<svg width="462" height="202" viewBox="0 0 462 202" fill="none" xmlns="http://www.w3.org/2000/svg">
<g filter="url(#filter0_d)">
<rect x="145.998" y="72.8933" width="150.398" height="67.6284" rx="33.3095" transform="rotate(-24.7277 145.998 72.8933)" fill="#002482"/>
</g>
<g filter="url(#filter1_d)">
<rect x="135.904" y="123.867" width="209.363" height="67.6284" rx="33.3095" transform="rotate(-24.7277 135.904 123.867)" fill="#002482"/>
</g>
<g filter="url(#filter2_d)">
<rect x="200" y="136.925" width="112.752" height="67.6284" rx="33.3095" transform="rotate(-24.7277 200 136.925)" fill="#002482"/>
</g>
<g filter="url(#filter3_d)">
<rect x="286.302" y="155.906" width="60.4922" height="36.2831" rx="18.1415" transform="rotate(-24.7277 286.302 155.906)" fill="#002482"/>
</g>
<g filter="url(#filter4_d)">
<rect x="137.923" y="40.9592" width="31.8282" height="19.0905" rx="9.54523" transform="rotate(-24.7277 137.923 40.9592)" fill="#002482"/>
</g>
<circle cx="75.7312" cy="20.3808" r="15.094" transform="rotate(-15 75.7312 20.3808)" fill="url(#paint0_linear)"/>
<path fill-rule="evenodd" clip-rule="evenodd" d="M88.8755 12.842C88.5562 12.2589 88.0906 11.5809 87.4594 10.7804C87.4082 10.7155 87.3566 10.6511 87.3045 10.5872C101.664 5.75004 112.713 4.34132 114.131 7.64046C115.974 11.9302 100.837 22.5548 80.3212 31.3711C59.8053 40.1875 41.6794 43.8571 39.836 39.5674C38.4114 36.2523 47.1279 29.1539 60.6311 22.0305C60.744 22.9254 60.9377 23.8142 61.2135 24.6853C55.9638 27.9623 52.9162 30.9051 53.5838 32.4588C54.7059 35.0699 65.8968 32.7685 78.5794 27.3183C91.262 21.8682 100.634 15.3333 99.5116 12.7221C98.8534 11.1906 94.7311 11.3492 88.8755 12.842Z" fill="url(#paint1_linear)"/>
<path d="M239.877 62.5601C247.342 76.9825 238.492 88.5241 224.07 95.9897C209.648 103.455 195.114 104.018 187.649 89.5953C180.183 75.1729 185.823 57.4292 200.245 49.9637C214.667 42.4981 232.411 48.1377 239.877 62.5601Z" fill="white"/>
<path d="M212.357 95.2562C210.298 90.8454 219.096 80.3089 221.914 79.4512C234.044 72.8347 254.469 87.874 269.33 90.8459C291.385 95.2564 319.687 101.505 295.795 131.278C260.716 174.992 214.93 100.77 212.357 95.2562Z" fill="white"/>
<path d="M336.809 86.8395C333.662 90.1779 333.185 93.6229 334.013 95.9188C337.637 98.9453 339.133 104.393 345.784 107.386C353.136 110.694 356.745 126.423 367.471 112.9C375.925 102.24 351.652 95.8977 352.029 92.4749C352.651 86.8395 342.711 80.5776 336.809 86.8395Z" fill="white"/>
<path d="M291.752 53.7212C278.392 52.5247 252.668 69.8941 240.66 81.6562C241.396 84.9642 245.365 92.6093 255.363 96.7261C267.86 101.872 282.086 84.9055 288.812 78.3483C303.514 64.0132 311.233 77.2451 316.379 76.8775C321.525 76.51 316.379 55.9267 291.752 53.7212Z" fill="white"/>
<path d="M276.682 168.402C260.509 168.696 255.241 147.941 254.628 137.526C261.979 126.94 284.646 134.586 295.06 139.732C295.673 149.166 292.855 168.108 276.682 168.402Z" fill="white"/>
<path d="M318.584 158.845C311.821 165.02 303.759 154.312 300.574 148.186L299.103 137.894L315.276 135.689C319.197 140.834 325.348 152.67 318.584 158.845Z" fill="#8E88A5"/>
<path d="M194.348 133.851C210.153 139.732 211.256 93.7861 214.196 92.6834L238.088 123.926C236.863 134.831 224.493 150.162 215.667 156.272C201.332 166.197 178.665 158.11 171.559 142.672C166.78 143.53 157.959 155.537 152.078 134.586C149.846 126.633 153.916 128.705 162.37 123.926C170.824 119.148 178.542 127.97 194.348 133.851Z" fill="white"/>
<path fill-rule="evenodd" clip-rule="evenodd" d="M166.397 119.671C170.949 118.498 173.443 112.904 171.967 107.177C170.492 101.449 165.605 97.7561 161.054 98.9287C159.821 99.2462 158.74 99.8876 157.847 100.768C150.14 103.78 134.531 101.818 127.45 100.402C139.212 111.576 137.374 134.708 135.168 142.304C139.873 130.836 156.855 120.741 164.206 119.883L164.203 119.872C164.933 119.922 165.669 119.858 166.397 119.671Z" fill="#FF4B55"/>
<path d="M153.915 127.97C153.621 127.97 153.057 124.784 152.812 123.191L163.839 117.678C163.962 119.026 164.133 122.236 163.839 124.294C163.472 126.867 154.283 127.97 153.915 127.97Z" fill="#FF4B55"/>
<ellipse cx="119.656" cy="122.662" rx="21.0115" ry="26.036" transform="rotate(-11.161 119.656 122.662)" fill="#FF4B55"/>
<ellipse cx="120.211" cy="123.049" rx="15.0905" ry="19.3565" transform="rotate(-11.161 120.211 123.049)" fill="#162746"/>
<ellipse cx="126.275" cy="121.188" rx="5.35961" ry="6.64125" transform="rotate(-11.161 126.275 121.188)" fill="#FF4B55"/>
<path d="M159.061 124.294C162.59 120.765 165.432 122.824 166.413 124.294C167.883 127.97 164.942 131.645 164.207 132.38C163.472 133.116 160.164 136.791 156.488 135.689C152.813 134.586 154.65 128.705 159.061 124.294Z" fill="white"/>
<path d="M303.882 74.3051C300.341 70.7642 292.977 74.9177 289.914 77.2456C282.563 69.5267 272.418 54.0153 290.649 53.7212C313.439 53.3536 320.055 71.3644 323.73 76.1427C327.406 80.9211 327.774 86.435 326.303 87.5375C325.472 88.1612 324.77 89.5903 323.73 90.1104C321.893 91.5807 320.947 91.3482 319.32 91.5807C314.174 92.3158 318.217 90.1104 316.379 87.5375C315.679 86.5571 313.981 86.5846 313.071 87.905C312.203 89.1642 311.916 91.9395 309.763 91.5807C308.462 91.3639 308.07 89.6174 307.925 87.5375C307.776 85.3963 308.016 82.7162 308.293 82.0238C309.763 78.3483 309.395 79.8186 303.882 74.3051Z" fill="white"/>
<path d="M327.406 89.0077C328.288 87.8315 327.529 85.087 327.038 83.8618L325.568 86.4348L325.936 90.1104C326.058 90.2329 326.524 90.1839 327.406 89.0077Z" fill="white"/>
<path d="M316.485 95.0816C314.481 94.2519 315.644 93.0509 317.114 89.7429L316.485 87.1699L320.789 91.2134C320.312 92.4811 318.49 95.9114 316.485 95.0816Z" fill="white"/>
<path d="M321.525 95.2563C319.286 95.2873 320 90.9685 320.423 90.1099L324.466 89.0076C324.566 90.4381 323.764 95.2252 321.525 95.2563Z" fill="white"/>
<path d="M325.463 93.3987C327.292 93.7349 327.406 90.1104 326.671 86.4349L323.485 89.3716C323.382 90.5739 323.634 93.0626 325.463 93.3987Z" fill="white"/>
<path d="M350.552 131.688C344.969 161.447 303.147 152.921 281.817 140.467C264.174 138.261 273.373 100.77 285.871 97.4617C298.368 94.1535 314.541 109.959 322.26 118.045C329.979 126.132 323.472 97.1618 335.492 91.5809C345.784 86.8025 354.973 108.121 350.552 131.688Z" fill="white"/>
<path d="M231.975 79.8784C226.525 89.9898 207.375 97.82 198.82 99.6677C192.509 99.6677 181.85 85.3318 184.423 73.9379C187.114 62.0194 220.185 54.2422 223.306 57.0135C227.814 60.1314 236.831 70.871 231.975 79.8784Z" fill="black"/>
<path d="M214.196 102.976C224.855 102.976 237.575 94.7829 242.131 82.7595" stroke="#D1D1D1" stroke-width="4.41079" stroke-linecap="round"/>
<path d="M291.017 52.6191C299.185 54.5503 300.546 71.1593 295.101 75.4081" stroke="#D1D1D1" stroke-width="2.94053" stroke-linecap="round"/>
<path d="M296.163 53.3542C302.697 55.0986 303.786 70.1002 299.43 73.9379" stroke="#D1D1D1" stroke-width="2.94053" stroke-linecap="round"/>
<path d="M199.126 133.484C208.927 135.789 210.561 155.612 204.026 160.683" stroke="#D1D1D1" stroke-width="2.94053" stroke-linecap="round"/>
<path d="M201.331 131.214C211.516 132.066 216.458 152.565 210.771 158.918" stroke="#D1D1D1" stroke-width="2.94053" stroke-linecap="round"/>
<path fill-rule="evenodd" clip-rule="evenodd" d="M353.155 92.747C353.138 90.8977 352.601 88.5019 350.985 86.5722C349.082 84.301 346.733 83.6054 341.742 84.2293L341.741 84.2292C346.152 84.0747 347.974 86.4123 349.294 87.9883C350.671 89.6324 351.041 91.8207 350.932 93.34L350.879 94.0803L351.545 94.408C355.356 96.2833 360.646 99.4585 364.196 102.878C365.982 104.598 367.223 106.282 367.695 107.802C368.01 108.813 368.592 111.41 367.838 112.165H368.206C368.573 112.165 369.722 111.418 369.97 110.342C370.218 109.269 370.125 108.19 369.801 107.147C369.164 105.098 367.607 103.102 365.726 101.29C362.144 97.8395 357.008 94.7029 353.155 92.747Z" fill="#D1D1D1"/>
<circle cx="434.587" cy="147.669" r="20.8905" transform="rotate(-27.4611 434.587 147.669)" fill="#4080FF" stroke="#4080FF" stroke-width="2.20539"/>
<mask id="mask0" mask-type="alpha" maskUnits="userSpaceOnUse" x="412" y="130" width="48" height="32">
<path d="M433.396 133.653C430.819 134.222 429.192 136.773 429.762 139.35C430.331 141.927 432.882 143.554 435.458 142.984L440.423 141.887C440.328 142.37 440.329 142.879 440.441 143.389C440.879 145.371 442.841 146.623 444.824 146.185L453.437 144.282C455.42 143.843 456.671 141.882 456.233 139.899C455.894 138.362 454.637 137.264 453.165 137.053C453.555 136.16 453.676 135.139 453.449 134.115C452.88 131.538 450.329 129.911 447.753 130.48L433.396 133.653Z" fill="#002482"/>
<path d="M433.965 158.372C433.527 156.39 434.779 154.428 436.761 153.99L454.706 150.024C456.689 149.586 458.651 150.838 459.089 152.82C459.527 154.802 458.275 156.764 456.293 157.202L438.347 161.168C436.365 161.606 434.403 160.354 433.965 158.372Z" fill="#002482"/>
<path d="M415.318 148.941C413.336 149.379 412.084 151.341 412.522 153.323C412.96 155.305 414.922 156.557 416.904 156.119L434.132 152.312C436.114 151.874 437.366 149.912 436.928 147.93C436.49 145.948 434.528 144.696 432.545 145.134L415.318 148.941Z" fill="#002482"/>
</mask>
<g mask="url(#mask0)">
<circle cx="434.586" cy="147.67" r="19.7878" transform="rotate(-27.4611 434.586 147.67)" fill="#002482"/>
</g>
<path d="M38.389 137.073L38.1693 135.991L42.1262 127.253L43.8353 126.906L45.3504 134.37L46.9184 134.051L47.1699 135.29L45.6018 135.608L46.1143 138.133L44.7031 138.419L44.1906 135.895L38.389 137.073ZM42.7892 128.669L39.7839 135.5L44.0019 134.643L42.7892 128.669ZM48.4036 131.644C48.0387 129.846 48.047 128.386 48.4287 127.263C48.8083 126.13 49.7298 125.416 51.1933 125.118C52.6463 124.824 53.7684 125.124 54.5597 126.019C55.3488 126.903 55.9258 128.245 56.2908 130.043C56.6621 131.872 56.658 133.353 56.2785 134.486C55.8989 135.619 54.9826 136.333 53.5296 136.628C52.0661 136.925 50.9387 136.626 50.1475 135.731C49.3563 134.835 48.775 133.473 48.4036 131.644ZM54.8796 130.329C54.695 129.42 54.4763 128.664 54.2235 128.062C53.9791 127.448 53.6294 126.986 53.1746 126.675C52.7302 126.363 52.1578 126.278 51.4575 126.42C50.7466 126.564 50.2423 126.868 49.9445 127.331C49.6571 127.792 49.5154 128.354 49.5194 129.017C49.5318 129.668 49.6302 130.448 49.8149 131.357C50.0058 132.298 50.2235 133.076 50.468 133.69C50.7229 134.302 51.0725 134.765 51.5169 135.077C51.9717 135.388 52.5545 135.471 53.2654 135.326C53.9658 135.184 54.4596 134.882 54.747 134.421C55.0448 133.958 55.1865 133.396 55.172 132.735C55.168 132.072 55.0705 131.27 54.8796 130.329ZM59.0372 132.881L58.8176 131.799L62.7744 123.061L64.4835 122.715L65.9986 130.178L67.5667 129.86L67.8181 131.099L66.2501 131.417L66.7626 133.942L65.3513 134.228L64.8389 131.703L59.0372 132.881ZM63.4374 124.478L60.4322 131.308L64.6501 130.452L63.4374 124.478Z" fill="#FF4B55"/>
<path d="M115.32 143.408C115.32 174.873 89.8128 200.38 58.3477 200.38C26.8825 200.38 1.375 174.873 1.375 143.408C1.375 111.942 26.8825 86.435 58.3477 86.435C77.9819 86.435 95.2964 96.367 105.541 111.481" stroke="#FF4B55" stroke-width="0.735132" stroke-dasharray="5.5 8.26"/>
<rect x="237.352" y="121.592" width="9.55671" height="7.35132" rx="2.20539" transform="rotate(-42.7492 237.352 121.592)" fill="#C4C4C4"/>
<path d="M254.26 142.392C255.853 145.061 262.42 147.348 275.947 135.149C289.473 122.95 294.57 104.819 295.428 97.8295" stroke="#D1D1D1" stroke-width="3.67566" stroke-linecap="round"/>
<rect x="243.968" y="127.639" width="2.2204" height="1.708" rx="0.854001" transform="rotate(-42.7492 243.968 127.639)" fill="#FF4B55"/>
<rect x="246.174" y="125.434" width="2.2204" height="1.708" rx="0.854001" transform="rotate(-42.7492 246.174 125.434)" fill="#4080FF"/>
<rect x="248.379" y="123.228" width="2.2204" height="1.708" rx="0.854001" transform="rotate(-42.7492 248.379 123.228)" fill="#26B998"/>
<path fill-rule="evenodd" clip-rule="evenodd" d="M220.118 56.8742C224.4 59.932 232.732 67.9849 231.616 76.0378C231.402 77.5822 230.436 79.8075 229.15 82.1437C224.557 87.6001 216.326 92.3402 209.125 95.4756C219.41 76.1642 212.795 63.7023 207.577 59.2519C212.785 57.6596 217.522 56.7862 220.118 56.8742Z" fill="#002482"/>
<path d="M187.952 73.9398C186.898 80.8916 189.831 90.1586 196.861 94.8143" stroke="#4080FF" stroke-width="2.20539" stroke-linecap="round"/>
<path d="M227.53 79.8069C229.621 77.7747 229.717 73.0612 228.707 71.7322" stroke="#4080FF" stroke-width="2.20539" stroke-linecap="round"/>
<rect x="252.648" y="105.176" width="13.2534" height="12.4592" rx="1.4949" transform="rotate(-44.5084 252.648 105.176)" stroke="#C4C4C4" stroke-width="0.597959"/>
<path d="M263.374 102.363C263.2 102.258 262.978 102.128 262.856 102.116L262.742 102.231L262.561 102.416L262.41 102.569L261.683 103.308L259.052 105.983C258.7 105.119 258.996 104.084 259.754 103.314C260.209 102.851 260.726 102.517 261.317 102.459L261.914 101.852C261.7 101.866 261.411 101.848 261.152 101.897C260.487 102.022 259.842 102.379 259.331 102.899C258.82 103.418 258.477 104.072 258.362 104.739C258.246 105.417 258.376 106.088 258.717 106.619L258.92 106.932L260.525 105.3L261.068 105.834L259.366 107.564L259.773 107.964L261.475 106.234L263.273 108.003L263.673 107.596L261.875 105.827L262.242 105.454L264.04 107.222L264.451 106.805L262.653 105.037L263.972 103.696L264.372 103.289L264.387 103.274C264.096 102.891 263.782 102.609 263.374 102.363ZM261.835 105.053L261.468 105.426L260.926 104.892L261.293 104.519L261.835 105.053ZM262.246 104.636L261.703 104.102L262.97 102.814C262.978 102.806 263.04 102.851 263.078 102.874C263.27 102.99 263.457 103.133 263.597 103.262L262.246 104.636Z" fill="#C4C4C4"/>
<path d="M258.519 102.086C256.786 103.847 256.81 106.689 258.571 108.422C260.332 110.155 263.175 110.131 264.907 108.37C266.64 106.609 266.616 103.766 264.855 102.034C263.094 100.301 260.251 100.324 258.519 102.086ZM264.461 107.931C262.97 109.446 260.525 109.466 259.01 107.976C257.495 106.485 257.475 104.04 258.965 102.525C260.456 101.009 262.901 100.989 264.416 102.48C265.932 103.97 265.952 106.416 264.461 107.931Z" fill="#C4C4C4"/>
<path d="M236.542 128.245C237.099 128.489 237.75 128.235 237.995 127.678C238.239 127.12 237.985 126.47 237.428 126.225L236.542 128.245ZM211.657 103.984C213.097 109.611 219.5 120.77 236.542 128.245L237.428 126.225C220.947 118.997 215.05 108.347 213.794 103.437L211.657 103.984Z" fill="#D1D1D1"/>
<path d="M274.936 93.4149C275.542 93.3643 275.993 92.8313 275.943 92.2244C275.892 91.6175 275.359 91.1665 274.752 91.2171L274.936 93.4149ZM242.312 80.4248C243.407 82.0894 247.06 85.6916 252.624 88.6906C258.225 91.7102 265.858 94.1714 274.936 93.4149L274.752 91.2171C266.187 91.9309 258.98 89.6117 253.67 86.7493C248.322 83.8662 244.991 80.4847 244.155 79.2127L242.312 80.4248Z" fill="#D1D1D1"/>
<path d="M295.06 146.716C286.827 144.069 281.583 137.037 279.99 133.851C278.814 144.437 288.077 153.209 292.855 156.272C294.325 154.214 294.938 149.044 295.06 146.716Z" fill="#8E88A5" fill-opacity="0.5"/>
<path d="M325.078 118.92C326.684 118.69 331.51 120.152 337.957 127.843C344.404 135.535 344.356 142.346 343.526 144.79" stroke="#D1D1D1" stroke-width="2.94053" stroke-linecap="round"/>
<path d="M326.493 115.988C328.204 115.679 333.451 117.012 340.743 124.815C348.034 132.618 348.318 139.769 347.548 142.369" stroke="#D1D1D1" stroke-width="2.94053" stroke-linecap="round"/>
<path d="M353.871 101.138C356.517 104.372 352.033 112.9 351.298 112.532C357.179 121.721 362.692 119.148 366 114.738C368.647 111.209 359.874 104.201 353.871 101.138Z" fill="#D1D1D1"/>
<ellipse cx="225.894" cy="55.6572" rx="1.05045" ry="0.815036" transform="rotate(39.8501 225.894 55.6572)" fill="#C4C4C4"/>
<ellipse cx="235.74" cy="71.5611" rx="1.05045" ry="0.815036" transform="rotate(76.9654 235.74 71.5611)" fill="#C4C4C4"/>
<path d="M162.368 132.013C157.958 133.483 156.61 130.665 156.487 129.073C155.605 135.836 160.776 134.586 163.471 133.116C164.941 132.136 166.779 130.543 162.368 132.013Z" fill="#D1D1D1"/>
<path d="M163.472 133.116C164.207 133.728 165.236 135.321 163.472 136.791C164.942 136.424 166.339 138.997 164.574 140.467C165.456 139.732 168.764 141.423 166.412 143.775" stroke="#D1D1D1" stroke-width="1.47026" stroke-linecap="round" stroke-linejoin="round"/>
<path d="M158.693 136.424C159.456 136.979 161.552 137.755 163.839 136.424" stroke="#D1D1D1" stroke-width="1.47026" stroke-linecap="round"/>
<path d="M158.693 140.1C159.673 140.835 162.369 141.864 165.309 140.1" stroke="#D1D1D1" stroke-width="1.47026" stroke-linecap="round"/>
<path d="M159.428 143.775C160.517 144.33 163.512 145.107 166.78 143.775" stroke="#D1D1D1" stroke-width="1.47026" stroke-linecap="round"/>
<defs>
<filter id="filter0_d" x="154.851" y="20.8524" width="147.191" height="106.634" filterUnits="userSpaceOnUse" color-interpolation-filters="sRGB">
<feFlood flood-opacity="0" result="BackgroundImageFix"/>
<feColorMatrix in="SourceAlpha" type="matrix" values="0 0 0 0 0 0 0 0 0 0 0 0 0 0 0 0 0 0 127 0"/>
<feOffset dy="2.01876"/>
<feGaussianBlur stdDeviation="1.00938"/>
<feColorMatrix type="matrix" values="0 0 0 0 0 0 0 0 0 0 0 0 0 0 0 0 0 0 0.25 0"/>
<feBlend mode="normal" in2="BackgroundImageFix" result="effect1_dropShadow"/>
<feBlend mode="normal" in="SourceGraphic" in2="effect1_dropShadow" result="shape"/>
</filter>
<filter id="filter1_d" x="144.757" y="47.1603" width="200.75" height="131.3" filterUnits="userSpaceOnUse" color-interpolation-filters="sRGB">
<feFlood flood-opacity="0" result="BackgroundImageFix"/>
<feColorMatrix in="SourceAlpha" type="matrix" values="0 0 0 0 0 0 0 0 0 0 0 0 0 0 0 0 0 0 127 0"/>
<feOffset dy="2.01876"/>
<feGaussianBlur stdDeviation="1.00938"/>
<feColorMatrix type="matrix" values="0 0 0 0 0 0 0 0 0 0 0 0 0 0 0 0 0 0 0.25 0"/>
<feBlend mode="normal" in2="BackgroundImageFix" result="effect1_dropShadow"/>
<feBlend mode="normal" in="SourceGraphic" in2="effect1_dropShadow" result="shape"/>
</filter>
<filter id="filter2_d" x="208.853" y="100.631" width="112.998" height="90.8872" filterUnits="userSpaceOnUse" color-interpolation-filters="sRGB">
<feFlood flood-opacity="0" result="BackgroundImageFix"/>
<feColorMatrix in="SourceAlpha" type="matrix" values="0 0 0 0 0 0 0 0 0 0 0 0 0 0 0 0 0 0 127 0"/>
<feOffset dy="2.01876"/>
<feGaussianBlur stdDeviation="1.00938"/>
<feColorMatrix type="matrix" values="0 0 0 0 0 0 0 0 0 0 0 0 0 0 0 0 0 0 0.25 0"/>
<feBlend mode="normal" in2="BackgroundImageFix" result="effect1_dropShadow"/>
<feBlend mode="normal" in="SourceGraphic" in2="effect1_dropShadow" result="shape"/>
</filter>
<filter id="filter3_d" x="290.204" y="136.523" width="62.3187" height="50.4562" filterUnits="userSpaceOnUse" color-interpolation-filters="sRGB">
<feFlood flood-opacity="0" result="BackgroundImageFix"/>
<feColorMatrix in="SourceAlpha" type="matrix" values="0 0 0 0 0 0 0 0 0 0 0 0 0 0 0 0 0 0 127 0"/>
<feOffset dy="2.01876"/>
<feGaussianBlur stdDeviation="1.00938"/>
<feColorMatrix type="matrix" values="0 0 0 0 0 0 0 0 0 0 0 0 0 0 0 0 0 0 0.25 0"/>
<feBlend mode="normal" in2="BackgroundImageFix" result="effect1_dropShadow"/>
<feBlend mode="normal" in="SourceGraphic" in2="effect1_dropShadow" result="shape"/>
</filter>
<filter id="filter4_d" x="139.02" y="30.7606" width="34.7023" height="28.4609" filterUnits="userSpaceOnUse" color-interpolation-filters="sRGB">
<feFlood flood-opacity="0" result="BackgroundImageFix"/>
<feColorMatrix in="SourceAlpha" type="matrix" values="0 0 0 0 0 0 0 0 0 0 0 0 0 0 0 0 0 0 127 0"/>
<feOffset dy="2.01876"/>
<feGaussianBlur stdDeviation="1.00938"/>
<feColorMatrix type="matrix" values="0 0 0 0 0 0 0 0 0 0 0 0 0 0 0 0 0 0 0.25 0"/>
<feBlend mode="normal" in2="BackgroundImageFix" result="effect1_dropShadow"/>
<feBlend mode="normal" in="SourceGraphic" in2="effect1_dropShadow" result="shape"/>
</filter>
<linearGradient id="paint0_linear" x1="116.08" y1="92.3464" x2="65.2091" y2="9.55894" gradientUnits="userSpaceOnUse">
<stop stop-color="#E09B3D"/>
<stop offset="0.3" stop-color="#C74C4D"/>
<stop offset="0.6" stop-color="#C21975"/>
<stop offset="1" stop-color="#7024C4"/>
</linearGradient>
<linearGradient id="paint1_linear" x1="141.049" y1="54.4569" x2="136.023" y2="17.6879" gradientUnits="userSpaceOnUse">
<stop stop-color="#E09B3D"/>
<stop offset="0.3" stop-color="#C74C4D"/>
<stop offset="0.6" stop-color="#C21975"/>
<stop offset="1" stop-color="#7024C4"/>
</linearGradient>
</defs>
</svg>
