<svg width="135" height="53" viewBox="0 0 135 53" fill="none" xmlns="http://www.w3.org/2000/svg">
<g filter="url(#filter0_d)">
<rect x="2.40869" y="0.615234" width="130" height="48" rx="24" fill="#00CC9E"/>
</g>
<path d="M37.282 26.2441L35.869 22.2481C35.785 22.0381 35.695 21.7921 35.599 21.5101C35.509 21.2281 35.422 20.9221 35.338 20.5921C35.254 20.9281 35.164 21.2401 35.068 21.5281C34.978 21.8101 34.891 22.0561 34.807 22.2661L33.403 26.2441H37.282ZM41.818 31.2031H39.721C39.487 31.2031 39.295 31.1491 39.145 31.0411C39.001 30.9271 38.893 30.7831 38.821 30.6091L37.939 28.1161H32.737L31.855 30.6091C31.795 30.7591 31.69 30.8971 31.54 31.0231C31.39 31.1431 31.201 31.2031 30.973 31.2031H28.858L33.961 18.1441H36.724L41.818 31.2031ZM49.7105 23.9941C49.6385 24.0901 49.5665 24.1651 49.4945 24.2191C49.4225 24.2671 49.3205 24.2911 49.1885 24.2911C49.0685 24.2911 48.9515 24.2581 48.8375 24.1921C48.7295 24.1201 48.6035 24.0451 48.4595 23.9671C48.3155 23.8831 48.1445 23.8081 47.9465 23.7421C47.7485 23.6701 47.5025 23.6341 47.2085 23.6341C46.8365 23.6341 46.5125 23.7031 46.2365 23.8411C45.9665 23.9731 45.7415 24.1651 45.5615 24.4171C45.3815 24.6691 45.2465 24.9751 45.1565 25.3351C45.0725 25.6951 45.0305 26.1001 45.0305 26.5501C45.0305 27.4981 45.2195 28.2241 45.5975 28.7281C45.9815 29.2321 46.5035 29.4841 47.1635 29.4841C47.3915 29.4841 47.5865 29.4661 47.7485 29.4301C47.9165 29.3881 48.0605 29.3371 48.1805 29.2771C48.3065 29.2171 48.4145 29.1511 48.5045 29.0791C48.5945 29.0071 48.6785 28.9411 48.7565 28.8811C48.8405 28.8211 48.9215 28.7731 48.9995 28.7371C49.0835 28.6951 49.1765 28.6741 49.2785 28.6741C49.4705 28.6741 49.6205 28.7461 49.7285 28.8901L50.4395 29.7901C50.1755 30.0961 49.8935 30.3511 49.5935 30.5551C49.2935 30.7531 48.9815 30.9121 48.6575 31.0321C48.3395 31.1461 48.0155 31.2241 47.6855 31.2661C47.3555 31.3141 47.0285 31.3381 46.7045 31.3381C46.1345 31.3381 45.5945 31.2331 45.0845 31.0231C44.5745 30.8071 44.1275 30.4951 43.7435 30.0871C43.3595 29.6791 43.0535 29.1781 42.8255 28.5841C42.6035 27.9901 42.4925 27.3121 42.4925 26.5501C42.4925 25.8721 42.5915 25.2421 42.7895 24.6601C42.9875 24.0781 43.2785 23.5741 43.6625 23.1481C44.0465 22.7221 44.5205 22.3891 45.0845 22.1491C45.6545 21.9031 46.3115 21.7801 47.0555 21.7801C47.7635 21.7801 48.3845 21.8941 48.9185 22.1221C49.4525 22.3501 49.9325 22.6801 50.3585 23.1121L49.7105 23.9941ZM58.8111 23.9941C58.7391 24.0901 58.6671 24.1651 58.5951 24.2191C58.5231 24.2671 58.4211 24.2911 58.2891 24.2911C58.1691 24.2911 58.0521 24.2581 57.9381 24.1921C57.8301 24.1201 57.7041 24.0451 57.5601 23.9671C57.4161 23.8831 57.2451 23.8081 57.0471 23.7421C56.8491 23.6701 56.6031 23.6341 56.3091 23.6341C55.9371 23.6341 55.6131 23.7031 55.3371 23.8411C55.0671 23.9731 54.8421 24.1651 54.6621 24.4171C54.4821 24.6691 54.3471 24.9751 54.2571 25.3351C54.1731 25.6951 54.1311 26.1001 54.1311 26.5501C54.1311 27.4981 54.3201 28.2241 54.6981 28.7281C55.0821 29.2321 55.6041 29.4841 56.2641 29.4841C56.4921 29.4841 56.6871 29.4661 56.8491 29.4301C57.0171 29.3881 57.1611 29.3371 57.2811 29.2771C57.4071 29.2171 57.5151 29.1511 57.6051 29.0791C57.6951 29.0071 57.7791 28.9411 57.8571 28.8811C57.9411 28.8211 58.0221 28.7731 58.1001 28.7371C58.1841 28.6951 58.2771 28.6741 58.3791 28.6741C58.5711 28.6741 58.7211 28.7461 58.8291 28.8901L59.5401 29.7901C59.2761 30.0961 58.9941 30.3511 58.6941 30.5551C58.3941 30.7531 58.0821 30.9121 57.7581 31.0321C57.4401 31.1461 57.1161 31.2241 56.7861 31.2661C56.4561 31.3141 56.1291 31.3381 55.8051 31.3381C55.2351 31.3381 54.6951 31.2331 54.1851 31.0231C53.6751 30.8071 53.2281 30.4951 52.8441 30.0871C52.4601 29.6791 52.1541 29.1781 51.9261 28.5841C51.7041 27.9901 51.5931 27.3121 51.5931 26.5501C51.5931 25.8721 51.6921 25.2421 51.8901 24.6601C52.0881 24.0781 52.3791 23.5741 52.7631 23.1481C53.1471 22.7221 53.6211 22.3891 54.1851 22.1491C54.7551 21.9031 55.4121 21.7801 56.1561 21.7801C56.8641 21.7801 57.4851 21.8941 58.0191 22.1221C58.5531 22.3501 59.0331 22.6801 59.4591 23.1121L58.8111 23.9941ZM67.0656 25.4701C67.0656 25.2121 67.0296 24.9661 66.9576 24.7321C66.8916 24.4981 66.7836 24.2911 66.6336 24.1111C66.4836 23.9311 66.2946 23.7901 66.0666 23.6881C65.8386 23.5801 65.5656 23.5261 65.2476 23.5261C64.6536 23.5261 64.1886 23.6941 63.8526 24.0301C63.5166 24.3661 63.2976 24.8461 63.1956 25.4701H67.0656ZM63.1596 26.9461C63.2376 27.8161 63.4836 28.4521 63.8976 28.8541C64.3176 29.2561 64.8636 29.4571 65.5356 29.4571C65.8776 29.4571 66.1716 29.4181 66.4176 29.3401C66.6696 29.2561 66.8886 29.1661 67.0746 29.0701C67.2666 28.9681 67.4376 28.8781 67.5876 28.8001C67.7436 28.7161 67.8966 28.6741 68.0466 28.6741C68.2386 28.6741 68.3886 28.7461 68.4966 28.8901L69.2166 29.7901C68.9526 30.0961 68.6616 30.3511 68.3436 30.5551C68.0256 30.7531 67.6956 30.9121 67.3536 31.0321C67.0116 31.1461 66.6666 31.2241 66.3186 31.2661C65.9706 31.3141 65.6346 31.3381 65.3106 31.3381C64.6626 31.3381 64.0566 31.2331 63.4926 31.0231C62.9346 30.8071 62.4456 30.4921 62.0256 30.0781C61.6116 29.6581 61.2846 29.1391 61.0446 28.5211C60.8046 27.9031 60.6846 27.1861 60.6846 26.3701C60.6846 25.7401 60.7866 25.1461 60.9906 24.5881C61.2006 24.0301 61.5006 23.5441 61.8906 23.1301C62.2806 22.7161 62.7546 22.3891 63.3126 22.1491C63.8706 21.9031 64.5006 21.7801 65.2026 21.7801C65.7966 21.7801 66.3426 21.8761 66.8406 22.0681C67.3446 22.2541 67.7766 22.5271 68.1366 22.8871C68.5026 23.2471 68.7846 23.6911 68.9826 24.2191C69.1866 24.7411 69.2886 25.3381 69.2886 26.0101C69.2886 26.1961 69.2796 26.3491 69.2616 26.4691C69.2436 26.5891 69.2136 26.6851 69.1716 26.7571C69.1296 26.8291 69.0726 26.8801 69.0006 26.9101C68.9286 26.9341 68.8356 26.9461 68.7216 26.9461H63.1596ZM73.854 28.7551C74.088 29.0251 74.34 29.2141 74.61 29.3221C74.886 29.4301 75.18 29.4841 75.492 29.4841C75.792 29.4841 76.065 29.4271 76.311 29.3131C76.557 29.1991 76.767 29.0221 76.941 28.7821C77.121 28.5361 77.259 28.2241 77.355 27.8461C77.451 27.4681 77.499 27.0181 77.499 26.4961C77.499 25.9801 77.457 25.5421 77.373 25.1821C77.295 24.8221 77.181 24.5311 77.031 24.3091C76.887 24.0871 76.71 23.9281 76.5 23.8321C76.29 23.7301 76.056 23.6791 75.798 23.6791C75.36 23.6791 74.991 23.7661 74.691 23.9401C74.397 24.1081 74.118 24.3571 73.854 24.6871V28.7551ZM73.71 23.1391C73.896 22.9351 74.094 22.7491 74.304 22.5811C74.514 22.4071 74.739 22.2601 74.979 22.1401C75.219 22.0141 75.477 21.9181 75.753 21.8521C76.029 21.7801 76.329 21.7441 76.653 21.7441C77.151 21.7441 77.607 21.8521 78.021 22.0681C78.441 22.2781 78.801 22.5871 79.101 22.9951C79.401 23.3971 79.635 23.8921 79.803 24.4801C79.971 25.0681 80.055 25.7401 80.055 26.4961C80.055 27.1921 79.959 27.8371 79.767 28.4311C79.581 29.0191 79.314 29.5291 78.966 29.9611C78.618 30.3931 78.198 30.7321 77.706 30.9781C77.22 31.2181 76.677 31.3381 76.077 31.3381C75.573 31.3381 75.144 31.2631 74.79 31.1131C74.442 30.9631 74.13 30.7591 73.854 30.5011V34.2001H71.37V21.9241H72.9C73.212 21.9241 73.419 22.0681 73.521 22.3561L73.71 23.1391ZM85.2566 31.3471C84.8366 31.3471 84.4646 31.2871 84.1406 31.1671C83.8166 31.0411 83.5436 30.8641 83.3216 30.6361C83.0996 30.4081 82.9316 30.1321 82.8176 29.8081C82.7036 29.4841 82.6466 29.1181 82.6466 28.7101V23.7061H81.7736C81.6416 23.7061 81.5276 23.6641 81.4316 23.5801C81.3416 23.4961 81.2966 23.3701 81.2966 23.2021V22.2301L82.7816 21.9601L83.2856 19.5571C83.3516 19.2871 83.5346 19.1521 83.8346 19.1521H85.1306V21.9781H87.5246V23.7061H85.1306V28.5481C85.1306 28.8061 85.1906 29.0101 85.3106 29.1601C85.4366 29.3101 85.6136 29.3851 85.8416 29.3851C85.9616 29.3851 86.0636 29.3731 86.1476 29.3491C86.2316 29.3191 86.3036 29.2891 86.3636 29.2591C86.4236 29.2231 86.4776 29.1931 86.5256 29.1691C86.5796 29.1391 86.6336 29.1241 86.6876 29.1241C86.7596 29.1241 86.8196 29.1421 86.8676 29.1781C86.9156 29.2081 86.9636 29.2621 87.0116 29.3401L87.7586 30.5281C87.4166 30.7981 87.0296 31.0021 86.5976 31.1401C86.1656 31.2781 85.7186 31.3471 85.2566 31.3471ZM95.1934 25.4701C95.1934 25.2121 95.1574 24.9661 95.0854 24.7321C95.0194 24.4981 94.9114 24.2911 94.7614 24.1111C94.6114 23.9311 94.4224 23.7901 94.1944 23.6881C93.9664 23.5801 93.6934 23.5261 93.3754 23.5261C92.7814 23.5261 92.3164 23.6941 91.9804 24.0301C91.6444 24.3661 91.4254 24.8461 91.3234 25.4701H95.1934ZM91.2874 26.9461C91.3654 27.8161 91.6114 28.4521 92.0254 28.8541C92.4454 29.2561 92.9914 29.4571 93.6634 29.4571C94.0054 29.4571 94.2994 29.4181 94.5454 29.3401C94.7974 29.2561 95.0164 29.1661 95.2024 29.0701C95.3944 28.9681 95.5654 28.8781 95.7154 28.8001C95.8714 28.7161 96.0244 28.6741 96.1744 28.6741C96.3664 28.6741 96.5164 28.7461 96.6244 28.8901L97.3444 29.7901C97.0804 30.0961 96.7894 30.3511 96.4714 30.5551C96.1534 30.7531 95.8234 30.9121 95.4814 31.0321C95.1394 31.1461 94.7944 31.2241 94.4464 31.2661C94.0984 31.3141 93.7624 31.3381 93.4384 31.3381C92.7904 31.3381 92.1844 31.2331 91.6204 31.0231C91.0624 30.8071 90.5734 30.4921 90.1534 30.0781C89.7394 29.6581 89.4124 29.1391 89.1724 28.5211C88.9324 27.9031 88.8124 27.1861 88.8124 26.3701C88.8124 25.7401 88.9144 25.1461 89.1184 24.5881C89.3284 24.0301 89.6284 23.5441 90.0184 23.1301C90.4084 22.7161 90.8824 22.3891 91.4404 22.1491C91.9984 21.9031 92.6284 21.7801 93.3304 21.7801C93.9244 21.7801 94.4704 21.8761 94.9684 22.0681C95.4724 22.2541 95.9044 22.5271 96.2644 22.8871C96.6304 23.2471 96.9124 23.6911 97.1104 24.2191C97.3144 24.7411 97.4164 25.3381 97.4164 26.0101C97.4164 26.1961 97.4074 26.3491 97.3894 26.4691C97.3714 26.5891 97.3414 26.6851 97.2994 26.7571C97.2574 26.8291 97.2004 26.8801 97.1284 26.9101C97.0564 26.9341 96.9634 26.9461 96.8494 26.9461H91.2874ZM101.829 23.4541C102.123 22.9261 102.462 22.5091 102.846 22.2031C103.23 21.8971 103.68 21.7441 104.196 21.7441C104.616 21.7441 104.958 21.8431 105.222 22.0411L105.06 23.8771C105.03 23.9971 104.982 24.0811 104.916 24.1291C104.856 24.1711 104.772 24.1921 104.664 24.1921C104.568 24.1921 104.43 24.1801 104.25 24.1561C104.07 24.1261 103.902 24.1111 103.746 24.1111C103.518 24.1111 103.314 24.1441 103.134 24.2101C102.96 24.2761 102.804 24.3691 102.666 24.4891C102.528 24.6091 102.402 24.7561 102.288 24.9301C102.18 25.1041 102.078 25.3021 101.982 25.5241V31.2031H99.4978V21.9241H100.965C101.217 21.9241 101.391 21.9691 101.487 22.0591C101.583 22.1491 101.652 22.3051 101.694 22.5271L101.829 23.4541Z" fill="white"/>
<defs>
<filter id="filter0_d" x="0.408691" y="0.615234" width="134" height="52" filterUnits="userSpaceOnUse" color-interpolation-filters="sRGB">
<feFlood flood-opacity="0" result="BackgroundImageFix"/>
<feColorMatrix in="SourceAlpha" type="matrix" values="0 0 0 0 0 0 0 0 0 0 0 0 0 0 0 0 0 0 127 0"/>
<feOffset dy="2"/>
<feGaussianBlur stdDeviation="1"/>
<feColorMatrix type="matrix" values="0 0 0 0 0 0 0 0 0 0 0 0 0 0 0 0 0 0 0.15 0"/>
<feBlend mode="normal" in2="BackgroundImageFix" result="effect1_dropShadow"/>
<feBlend mode="normal" in="SourceGraphic" in2="effect1_dropShadow" result="shape"/>
</filter>
</defs>
</svg>
