<svg width="163" height="58" viewBox="0 0 163 58" fill="none" xmlns="http://www.w3.org/2000/svg">
<g filter="url(#filter0_d)">
<rect x="4.41943" width="153.969" height="50" rx="25" fill="white"/>
</g>
<path d="M57.493 30.2998H59.861L55.845 19.1158H53.237L49.221 30.2998H51.573L52.309 28.1718H56.757L57.493 30.2998ZM56.149 26.3798H52.917L54.533 21.7078L56.149 26.3798ZM60.9461 25.8678C60.9461 28.6518 62.7701 30.4438 65.3301 30.4438C67.5381 30.4438 69.0261 29.1958 69.5061 27.3078H67.0901C66.8181 28.1078 66.2421 28.5238 65.3141 28.5238C64.0661 28.5238 63.2341 27.5958 63.2341 25.8678C63.2341 24.1398 64.0661 23.1958 65.3141 23.1958C66.2421 23.1958 66.8341 23.6758 67.0901 24.4278H69.5061C69.0261 22.4438 67.5381 21.2918 65.3301 21.2918C62.7701 21.2918 60.9461 23.0838 60.9461 25.8678ZM71.3071 30.2998H73.5471V25.4038C73.5471 23.9798 74.3311 23.2118 75.5471 23.2118C76.7311 23.2118 77.5151 23.9798 77.5151 25.4038V30.2998H79.7551V25.0998C79.7551 22.6518 78.2991 21.3078 76.2991 21.3078C75.1151 21.3078 74.1231 21.7878 73.5471 22.5398V18.4598H71.3071V30.2998ZM85.8532 23.1318C87.0052 23.1318 87.9332 23.8678 87.9652 25.0358H83.7572C83.9332 23.8198 84.7812 23.1318 85.8532 23.1318ZM90.0612 27.5158H87.6452C87.3572 28.1078 86.8292 28.5878 85.8692 28.5878C84.7492 28.5878 83.8532 27.8518 83.7412 26.5398H90.2212C90.2692 26.2518 90.2852 25.9638 90.2852 25.6758C90.2852 23.0358 88.4772 21.2918 85.9172 21.2918C83.2932 21.2918 81.4692 23.0678 81.4692 25.8678C81.4692 28.6518 83.3412 30.4438 85.9172 30.4438C88.1092 30.4438 89.5812 29.1478 90.0612 27.5158ZM92.4322 27.5478C92.4322 29.5798 93.5682 30.2998 95.2642 30.2998H96.6722V28.4118H95.6322C94.9282 28.4118 94.6882 28.1558 94.6882 27.5638V23.2758H96.6722V21.4358H94.6882V19.2438H92.4322V21.4358H91.3762V23.2758H92.4322V27.5478ZM102.251 23.1318C103.403 23.1318 104.331 23.8678 104.363 25.0358H100.155C100.331 23.8198 101.179 23.1318 102.251 23.1318ZM106.459 27.5158H104.043C103.755 28.1078 103.227 28.5878 102.267 28.5878C101.147 28.5878 100.251 27.8518 100.139 26.5398H106.619C106.667 26.2518 106.683 25.9638 106.683 25.6758C106.683 23.0358 104.875 21.2918 102.315 21.2918C99.6914 21.2918 97.8674 23.0678 97.8674 25.8678C97.8674 28.6518 99.7394 30.4438 102.315 30.4438C104.507 30.4438 105.979 29.1478 106.459 27.5158ZM110.718 25.8838C110.718 24.1718 111.518 23.6598 112.846 23.6598H113.438V21.3078C112.206 21.3078 111.278 21.8998 110.718 22.8118V21.4358H108.478V30.2998H110.718V25.8838Z" fill="#4048FF"/>
<defs>
<filter id="filter0_d" x="0.419434" y="0" width="161.969" height="58" filterUnits="userSpaceOnUse" color-interpolation-filters="sRGB">
<feFlood flood-opacity="0" result="BackgroundImageFix"/>
<feColorMatrix in="SourceAlpha" type="matrix" values="0 0 0 0 0 0 0 0 0 0 0 0 0 0 0 0 0 0 127 0"/>
<feOffset dy="4"/>
<feGaussianBlur stdDeviation="2"/>
<feColorMatrix type="matrix" values="0 0 0 0 0 0 0 0 0 0 0 0 0 0 0 0 0 0 0.25 0"/>
<feBlend mode="normal" in2="BackgroundImageFix" result="effect1_dropShadow"/>
<feBlend mode="normal" in="SourceGraphic" in2="effect1_dropShadow" result="shape"/>
</filter>
</defs>
</svg>
