<svg width="487" height="285" viewBox="0 0 487 285" fill="none" xmlns="http://www.w3.org/2000/svg">
<path d="M434.716 188.972C448.668 167.699 462.38 146.793 461.114 122.008C458.92 79.0551 437.809 32.8221 400.166 10.4816C375.296 -4.27839 345.941 0.433471 316.207 5.20604C301.518 7.56382 286.737 9.93641 272.358 9.98336C260.923 10.0207 249.428 8.76119 238.007 7.50972C214.524 4.93667 191.353 2.39769 169.655 11.2344C146.189 20.7912 130.49 40.2349 114.643 59.8625C108.626 67.3156 102.587 74.7952 96.0927 81.7701C87.5471 90.9489 77.0861 99.3223 66.6407 107.683C42.9109 126.678 19.2612 145.608 18.3283 173.771C17.4143 201.367 39.2155 221.231 61.1951 241.258C68.2661 247.701 75.3555 254.16 81.7131 260.899H405.444C406.527 250.803 408.187 240.861 411.456 231.491C416.713 216.42 425.764 202.621 434.716 188.972Z" fill="url(#paint0_linear_3547_39692)"/>
<path d="M164.483 186.401C164.715 186.54 164.951 186.674 165.189 186.803C165.271 186.848 165.351 186.891 165.433 186.933C165.618 187.03 165.803 187.123 165.99 187.214C174.939 191.534 185.853 188.218 190.718 179.544C195.358 171.269 192.863 161.022 185.251 155.64C184.644 155.211 184.005 154.811 183.333 154.449C183.092 154.318 182.85 154.193 182.605 154.075C182.368 153.96 182.13 153.849 181.889 153.744C181.153 153.421 180.407 153.15 179.652 152.928C178.53 152.596 177.39 152.371 176.25 152.254C172.709 151.885 169.149 152.521 165.99 154.04C162.639 155.65 159.743 158.256 157.804 161.71C152.927 170.409 155.932 181.289 164.483 186.401Z" fill="#FFB93E"/>
<path d="M165.91 185.523C157.662 181.052 154.65 170.82 159.197 162.711C163.744 154.603 174.153 151.642 182.403 156.111C190.651 160.582 193.662 170.814 189.116 178.923C186.006 184.469 180.156 187.605 174.128 187.605C171.341 187.605 168.518 186.936 165.91 185.523ZM160.022 163.158C155.725 170.818 158.57 180.488 166.365 184.711C174.158 188.935 183.994 186.137 188.291 178.476C192.587 170.815 189.742 161.146 181.948 156.923C179.484 155.587 176.816 154.954 174.183 154.954C168.49 154.954 162.96 157.919 160.022 163.158Z" fill="#FFA412"/>
<path d="M176.698 179.377L176.745 179.431C173.55 180.21 170.034 179.238 167.731 176.623C166.245 174.935 165.52 172.855 165.525 170.786L165.489 170.745L163.131 168.066C162.265 171.579 163.08 175.438 165.669 178.379C169.621 182.867 176.313 183.638 181.181 180.371L176.209 174.724L178.27 172.969L183.243 178.616L183.257 178.6C183.895 177.913 184.436 177.165 184.877 176.374L180.333 171.213L185.58 166.744C185.256 165.894 184.825 165.071 184.288 164.296L178.548 169.185L176.763 167.157L182.503 162.268C181.8 161.633 181.034 161.097 180.224 160.66L174.977 165.13L170.432 159.969C169.16 160.438 167.949 161.133 166.862 162.06C165.774 162.986 164.901 164.065 164.248 165.237L165.305 166.438L176.698 179.377ZM174.7 168.913L176.486 170.941L174.424 172.697L172.639 170.669L174.7 168.913ZM169.744 163.284L172.915 166.885L170.853 168.641L167.683 165.04C167.975 164.704 168.296 164.384 168.647 164.086C168.997 163.788 169.364 163.521 169.744 163.284Z" fill="#FFA412"/>
<g filter="url(#filter0_f_3547_39692)">
<ellipse cx="239.381" cy="261.947" rx="231.414" ry="15.4417" fill="url(#paint1_radial_3547_39692)"/>
</g>
<ellipse rx="17.5187" ry="17.5383" transform="matrix(-0.68582 -0.727772 -0.738008 0.674792 308.851 172.536)" fill="#F6F6FF"/>
<path d="M316.645 175.147C316.59 174.808 316.435 174.492 316.198 174.241C315.881 173.904 315.439 173.706 314.971 173.69C314.503 173.674 314.046 173.843 313.702 174.158C313.445 174.393 313.264 174.697 313.182 175.032C313.1 175.367 313.12 175.717 313.241 176.039C313.361 176.362 313.577 176.641 313.859 176.841C314.141 177.042 314.479 177.155 314.828 177.167C315.177 177.179 315.522 177.088 315.82 176.907C316.119 176.725 316.356 176.461 316.503 176.148C316.65 175.835 316.699 175.487 316.645 175.147Z" fill="#00CC9E"/>
<path d="M312.374 170.616C312.32 170.276 312.165 169.961 311.928 169.709C311.61 169.372 311.169 169.174 310.701 169.159C310.233 169.143 309.776 169.311 309.431 169.626C309.175 169.861 308.994 170.165 308.912 170.5C308.83 170.835 308.85 171.186 308.971 171.508C309.091 171.83 309.306 172.109 309.589 172.31C309.871 172.511 310.208 172.624 310.557 172.636C310.907 172.647 311.252 172.557 311.55 172.375C311.848 172.194 312.086 171.93 312.233 171.617C312.379 171.304 312.429 170.955 312.374 170.616Z" fill="#00CC9E"/>
<path d="M308.153 166.136C308.099 165.796 307.943 165.481 307.707 165.23C307.389 164.893 306.947 164.694 306.479 164.679C306.011 164.663 305.554 164.831 305.21 165.146C304.953 165.381 304.772 165.686 304.69 166.02C304.608 166.355 304.629 166.706 304.749 167.028C304.87 167.35 305.085 167.629 305.367 167.83C305.65 168.031 305.987 168.144 306.336 168.156C306.685 168.167 307.031 168.077 307.329 167.895C307.627 167.714 307.864 167.45 308.011 167.137C308.158 166.824 308.207 166.475 308.153 166.136Z" fill="#00CC9E"/>
<path fill-rule="evenodd" clip-rule="evenodd" d="M322.608 159.944C325.119 162.607 326.767 165.949 327.343 169.547C327.919 173.145 327.397 176.837 325.844 180.157C324.29 183.477 321.774 186.275 318.614 188.198C315.455 190.121 311.793 191.082 308.093 190.959C304.392 190.837 300.819 189.636 297.826 187.51C294.832 185.383 292.552 182.426 291.274 179.012C289.997 175.598 289.778 171.881 290.647 168.331C291.516 164.781 293.433 161.558 296.156 159.068C299.806 155.731 304.643 153.949 309.603 154.113C314.563 154.277 319.241 156.375 322.608 159.944ZM299.929 168.262L294.087 173.604L302.008 174.497C302.568 175.395 303.215 176.238 303.941 177.012C308.585 181.941 315.343 183.202 319.04 179.822C322.737 176.441 321.956 169.715 317.312 164.786C312.668 159.858 305.915 158.603 302.224 161.977C301.393 162.795 300.755 163.783 300.358 164.87C299.961 165.957 299.815 167.115 299.929 168.262Z" fill="#00CC9E"/>
<path d="M314.099 196.896H184.663V235.444H314.099V196.896Z" fill="#323754"/>
<path d="M349.617 261.435H146.283L150.759 254.09H343.501L349.617 261.435Z" fill="#1F2337"/>
<path d="M155.467 254.09L176.571 236.611C182.575 231.642 190.165 228.919 198.007 228.919H299.836C304.343 228.918 308.803 229.818 312.947 231.564C317.09 233.311 320.83 235.867 323.941 239.079L338.482 254.09H155.467Z" fill="#323754"/>
<path d="M184.663 198.592L184.663 121.151C184.663 119.736 185.234 118.378 186.25 117.377C187.266 116.376 188.644 115.814 190.081 115.814H241.189V69.4543C241.189 68.0388 241.76 66.6813 242.776 65.6804C243.792 64.6795 245.17 64.1172 246.607 64.1172H308.775C310.212 64.1172 311.59 64.6795 312.606 65.6804C313.623 66.6813 314.193 68.0388 314.193 69.4543V198.592H184.663Z" fill="#ADADC8"/>
<path d="M303.358 73.2979H251.688C250.413 73.2979 249.379 74.3164 249.379 75.5728V79.8225C249.379 81.0789 250.413 82.0974 251.688 82.0974H303.358C304.634 82.0974 305.668 81.0789 305.668 79.8225V75.5728C305.668 74.3164 304.634 73.2979 303.358 73.2979Z" fill="#ADADC8"/>
<path d="M303.561 106.709H251.485C250.322 106.709 249.379 107.638 249.379 108.784V113.927C249.379 115.073 250.322 116.002 251.485 116.002H303.561C304.725 116.002 305.668 115.073 305.668 113.927V108.784C305.668 107.638 304.725 106.709 303.561 106.709Z" fill="#D6D6E8"/>
<path d="M302.207 75.9668H252.84C250.928 75.9668 249.379 77.4931 249.379 79.3759V110.211C249.379 112.094 250.928 113.62 252.84 113.62H302.207C304.118 113.62 305.668 112.094 305.668 110.211V79.3759C305.668 77.4931 304.118 75.9668 302.207 75.9668Z" fill="#D3FFFB"/>
<rect x="270.066" y="85.3164" width="3.77144" height="3.71496" fill="#4048FF"/>
<rect width="3.77144" height="3.71496" transform="matrix(-1 0 0 1 281.381 99.9609)" fill="#4048FF"/>
<rect x="273.837" y="89.0312" width="3.77144" height="3.71496" fill="#4048FF"/>
<rect width="3.77144" height="3.71496" transform="matrix(-1 0 0 1 277.607 103.675)" fill="#4048FF"/>
<rect x="277.607" y="92.7461" width="3.77144" height="3.71496" fill="#4048FF"/>
<rect width="3.77144" height="3.71496" transform="matrix(-1 0 0 1 273.837 107.39)" fill="#4048FF"/>
<rect x="281.381" y="96.4609" width="3.77144" height="3.71496" fill="#4048FF"/>
<path d="M302.207 75.9668H252.84C251.922 75.9668 251.042 76.326 250.392 76.9653C249.743 77.6046 249.379 78.4717 249.379 79.3759H305.668C305.668 78.4717 305.303 77.6046 304.654 76.9653C304.005 76.326 303.125 75.9668 302.207 75.9668Z" fill="#A5D0FF"/>
<path d="M198.481 135.416H195.928C194.637 135.416 193.591 136.446 193.591 137.718V158.866C193.591 160.137 194.637 161.168 195.928 161.168H198.481C199.771 161.168 200.818 160.137 200.818 158.866V137.718C200.818 136.446 199.771 135.416 198.481 135.416Z" fill="#75758F"/>
<path d="M198.475 161.494H195.922C195.217 161.484 194.545 161.204 194.046 160.713C193.548 160.222 193.264 159.56 193.253 158.866V137.711C193.264 137.017 193.548 136.354 194.046 135.863C194.545 135.373 195.217 135.092 195.922 135.082H198.475C199.181 135.091 199.855 135.37 200.355 135.861C200.854 136.352 201.14 137.016 201.15 137.711V158.866C201.14 159.561 200.854 160.224 200.355 160.715C199.855 161.206 199.181 161.486 198.475 161.494ZM195.922 135.749C195.394 135.749 194.887 135.956 194.514 136.324C194.14 136.692 193.93 137.19 193.93 137.711V158.866C193.93 159.386 194.14 159.885 194.514 160.253C194.887 160.62 195.394 160.827 195.922 160.827H198.475C199.001 160.818 199.503 160.609 199.876 160.243C200.249 159.878 200.463 159.384 200.473 158.866V137.711C200.463 137.192 200.249 136.699 199.876 136.333C199.503 135.967 199.001 135.758 198.475 135.749H195.922Z" fill="#ADADC8"/>
<path d="M198.907 137.544H195.195V145.997H198.907V137.544Z" fill="#D6D6E8"/>
<path d="M208.511 135.416H205.958C204.667 135.416 203.621 136.446 203.621 137.718V158.866C203.621 160.137 204.667 161.168 205.958 161.168H208.511C209.802 161.168 210.848 160.137 210.848 158.866V137.718C210.848 136.446 209.802 135.416 208.511 135.416Z" fill="#75758F"/>
<path d="M208.518 161.494H205.964C205.253 161.494 204.57 161.219 204.063 160.727C203.556 160.235 203.266 159.566 203.255 158.866V137.711C203.266 137.01 203.556 136.341 204.063 135.849C204.57 135.358 205.253 135.082 205.964 135.082H208.518C209.229 135.082 209.912 135.358 210.419 135.849C210.926 136.341 211.216 137.01 211.227 137.711V158.866C211.216 159.566 210.926 160.235 210.419 160.727C209.912 161.219 209.229 161.494 208.518 161.494ZM205.964 135.749C205.432 135.749 204.922 135.954 204.542 136.321C204.162 136.688 203.943 137.187 203.932 137.711V158.866C203.943 159.389 204.162 159.888 204.542 160.255C204.922 160.622 205.432 160.827 205.964 160.827H208.518C209.05 160.827 209.56 160.622 209.94 160.255C210.32 159.888 210.539 159.389 210.549 158.866V137.711C210.539 137.187 210.32 136.688 209.94 136.321C209.56 135.954 209.05 135.749 208.518 135.749H205.964Z" fill="#ADADC8"/>
<path d="M208.937 142.588H205.225V151.041H208.937V142.588Z" fill="#D6D6E8"/>
<path d="M218.848 135.416H216.294C215.004 135.416 213.958 136.446 213.958 137.718V158.866C213.958 160.137 215.004 161.168 216.294 161.168H218.848C220.138 161.168 221.184 160.137 221.184 158.866V137.718C221.184 136.446 220.138 135.416 218.848 135.416Z" fill="#75758F"/>
<path d="M218.847 161.494H216.294C215.582 161.494 214.899 161.219 214.392 160.727C213.886 160.235 213.595 159.566 213.585 158.866V137.711C213.595 137.01 213.886 136.341 214.392 135.849C214.899 135.358 215.582 135.082 216.294 135.082H218.847C219.559 135.082 220.242 135.358 220.749 135.849C221.256 136.341 221.546 137.01 221.556 137.711V158.866C221.546 159.566 221.256 160.235 220.749 160.727C220.242 161.219 219.559 161.494 218.847 161.494ZM216.294 135.749C215.762 135.749 215.251 135.954 214.871 136.321C214.491 136.688 214.273 137.187 214.262 137.711V158.866C214.273 159.389 214.491 159.888 214.871 160.255C215.251 160.622 215.762 160.827 216.294 160.827H218.847C219.379 160.827 219.89 160.622 220.27 160.255C220.65 159.888 220.868 159.389 220.879 158.866V137.711C220.868 137.187 220.65 136.688 220.27 136.321C219.89 135.954 219.379 135.749 218.847 135.749H216.294Z" fill="#ADADC8"/>
<path d="M219.274 139.839H215.562V148.292H219.274V139.839Z" fill="#D6D6E8"/>
<path d="M228.979 135.416H226.425C225.135 135.416 224.089 136.446 224.089 137.718V158.866C224.089 160.137 225.135 161.168 226.425 161.168H228.979C230.269 161.168 231.315 160.137 231.315 158.866V137.718C231.315 136.446 230.269 135.416 228.979 135.416Z" fill="#75758F"/>
<path d="M228.979 161.494H226.426C225.714 161.494 225.031 161.219 224.524 160.727C224.018 160.235 223.727 159.566 223.717 158.866V137.711C223.727 137.01 224.018 136.341 224.524 135.849C225.031 135.358 225.714 135.082 226.426 135.082H228.979C229.691 135.082 230.374 135.358 230.881 135.849C231.388 136.341 231.678 137.01 231.688 137.711V158.866C231.678 159.566 231.388 160.235 230.881 160.727C230.374 161.219 229.691 161.494 228.979 161.494ZM226.426 135.749C225.894 135.749 225.383 135.954 225.003 136.321C224.623 136.688 224.405 137.187 224.394 137.711V158.866C224.405 159.389 224.623 159.888 225.003 160.255C225.383 160.622 225.894 160.827 226.426 160.827H228.979C229.511 160.827 230.022 160.622 230.402 160.255C230.782 159.888 231 159.389 231.011 158.866V137.711C231 137.187 230.782 136.688 230.402 136.321C230.022 135.954 229.511 135.749 228.979 135.749H226.426Z" fill="#ADADC8"/>
<path d="M229.404 149.699H225.693V158.152H229.404V149.699Z" fill="#D6D6E8"/>
<path d="M252.479 139.646C256.407 139.646 259.591 136.509 259.591 132.641C259.591 128.772 256.407 125.636 252.479 125.636C248.552 125.636 245.368 128.772 245.368 132.641C245.368 136.509 248.552 139.646 252.479 139.646Z" fill="#1F2337"/>
<path d="M253.152 127.41H251.811C251.059 127.41 250.45 128.011 250.45 128.751V133.628C250.45 134.368 251.059 134.969 251.811 134.969H253.152C253.904 134.969 254.514 134.368 254.514 133.628V128.751C254.514 128.011 253.904 127.41 253.152 127.41Z" fill="#75758F"/>
<path d="M256.3 127.41C256.3 128.156 256.075 128.885 255.654 129.505C255.233 130.125 254.635 130.608 253.936 130.893C253.236 131.178 252.466 131.252 251.724 131.106C250.982 130.96 250.3 130.601 249.765 130.073C249.23 129.545 248.866 128.873 248.719 128.141C248.572 127.41 248.649 126.652 248.94 125.963C249.23 125.274 249.722 124.686 250.352 124.273C250.982 123.859 251.723 123.639 252.48 123.641C253.494 123.642 254.465 124.04 255.181 124.747C255.897 125.454 256.3 126.411 256.3 127.41Z" fill="#F52079"/>
<path d="M277.527 139.646C281.454 139.646 284.638 136.509 284.638 132.641C284.638 128.772 281.454 125.636 277.527 125.636C273.599 125.636 270.415 128.772 270.415 132.641C270.415 136.509 273.599 139.646 277.527 139.646Z" fill="#1F2337"/>
<path d="M278.199 127.41H276.858C276.106 127.41 275.497 128.011 275.497 128.751V133.628C275.497 134.368 276.106 134.969 276.858 134.969H278.199C278.951 134.969 279.561 134.368 279.561 133.628V128.751C279.561 128.011 278.951 127.41 278.199 127.41Z" fill="#75758F"/>
<path d="M281.353 127.41C281.353 128.155 281.129 128.884 280.708 129.504C280.288 130.124 279.69 130.607 278.991 130.892C278.292 131.178 277.522 131.252 276.78 131.107C276.038 130.961 275.356 130.602 274.821 130.075C274.285 129.548 273.921 128.877 273.773 128.145C273.626 127.414 273.701 126.656 273.991 125.967C274.281 125.279 274.771 124.69 275.4 124.276C276.03 123.862 276.77 123.641 277.526 123.641C278.541 123.641 279.515 124.038 280.232 124.745C280.95 125.452 281.353 126.41 281.353 127.41Z" fill="#F52079"/>
<path d="M301.19 139.646C305.117 139.646 308.301 136.509 308.301 132.641C308.301 128.772 305.117 125.636 301.19 125.636C297.262 125.636 294.078 128.772 294.078 132.641C294.078 136.509 297.262 139.646 301.19 139.646Z" fill="#1F2337"/>
<path d="M301.862 127.41H300.521C299.769 127.41 299.16 128.011 299.16 128.751V133.628C299.16 134.368 299.769 134.969 300.521 134.969H301.862C302.614 134.969 303.223 134.368 303.223 133.628V128.751C303.223 128.011 302.614 127.41 301.862 127.41Z" fill="#75758F"/>
<path d="M305.016 127.41C305.016 128.155 304.792 128.884 304.371 129.504C303.951 130.124 303.353 130.607 302.654 130.892C301.955 131.178 301.185 131.252 300.443 131.107C299.701 130.961 299.019 130.602 298.484 130.075C297.949 129.548 297.584 128.877 297.436 128.145C297.289 127.414 297.365 126.656 297.654 125.967C297.944 125.279 298.434 124.69 299.064 124.276C299.693 123.862 300.433 123.641 301.19 123.641C301.692 123.641 302.19 123.738 302.654 123.928C303.118 124.117 303.54 124.395 303.895 124.745C304.251 125.095 304.533 125.51 304.725 125.967C304.917 126.425 305.016 126.915 305.016 127.41Z" fill="#F52079"/>
<path d="M268.695 146.783C269.28 147.838 269.534 149.041 269.425 150.238C269.316 151.435 268.849 152.574 268.084 153.51C267.318 154.446 266.288 155.137 265.123 155.496C263.958 155.856 262.712 155.866 261.541 155.528C260.37 155.189 259.327 154.516 258.545 153.593C257.762 152.671 257.275 151.541 257.145 150.345C257.014 149.15 257.247 147.944 257.813 146.879C258.378 145.813 259.252 144.938 260.323 144.362C261.76 143.591 263.448 143.414 265.017 143.868C266.587 144.322 267.909 145.37 268.695 146.783Z" fill="#1F2337"/>
<path d="M261.386 143.915C261.02 144.036 260.665 144.185 260.323 144.362C259.952 144.563 259.603 144.8 259.28 145.069L262.585 151.027L264.698 149.893L261.386 143.915Z" fill="#75758F"/>
<path d="M289.148 155.776C292.555 155.776 295.318 153.055 295.318 149.699C295.318 146.342 292.555 143.621 289.148 143.621C285.74 143.621 282.978 146.342 282.978 149.699C282.978 153.055 285.74 155.776 289.148 155.776Z" fill="#1F2337"/>
<path d="M295.069 147.991C294.961 147.625 294.818 147.27 294.642 146.93C294.45 146.563 294.224 146.214 293.965 145.89L287.828 148.985L288.926 151.093L295.069 147.991Z" fill="#75758F"/>
<path d="M238.143 122.333H189.379C188.929 122.333 188.499 122.157 188.181 121.844C187.864 121.531 187.685 121.107 187.685 120.665C187.685 120.223 187.864 119.798 188.181 119.486C188.499 119.173 188.929 118.997 189.379 118.997H238.143C238.592 118.997 239.023 119.173 239.34 119.486C239.658 119.798 239.836 120.223 239.836 120.665C239.836 121.107 239.658 121.531 239.34 121.844C239.023 122.157 238.592 122.333 238.143 122.333Z" fill="#D6D6E8"/>
<path d="M308.302 69.5818H245.369C244.919 69.5818 244.489 69.4061 244.171 69.0933C243.854 68.7805 243.675 68.3563 243.675 67.9139C243.675 67.4716 243.854 67.0474 244.171 66.7346C244.489 66.4218 244.919 66.2461 245.369 66.2461H308.302C308.751 66.2461 309.181 66.4218 309.499 66.7346C309.816 67.0474 309.995 67.4716 309.995 67.9139C309.995 68.3563 309.816 68.7805 309.499 69.0933C309.181 69.4061 308.751 69.5818 308.302 69.5818Z" fill="#D6D6E8"/>
<path d="M174.126 251.635C173.811 251.638 173.501 251.553 173.232 251.391C172.963 251.228 172.745 250.995 172.604 250.717C172.463 250.439 172.404 250.128 172.434 249.818C172.463 249.509 172.58 249.214 172.772 248.967C173.334 248.246 186.778 231.421 200.791 231.421H300.771C301.221 231.421 301.651 231.597 301.969 231.909C302.286 232.222 302.465 232.646 302.465 233.089C302.465 233.531 302.286 233.955 301.969 234.268C301.651 234.581 301.221 234.757 300.771 234.757H200.811C188.458 234.757 175.596 250.848 175.467 251.015C175.306 251.211 175.101 251.369 174.869 251.477C174.637 251.584 174.383 251.638 174.126 251.635Z" fill="#595F83"/>
<path d="M244.805 201.046H201.961C200.764 201.046 199.793 202.002 199.793 203.181V221.741C199.793 222.92 200.764 223.875 201.961 223.875H244.805C246.002 223.875 246.973 222.92 246.973 221.741V203.181C246.973 202.002 246.002 201.046 244.805 201.046Z" fill="#1F2337"/>
<path d="M241.779 205.789H241.027C240.32 205.789 239.747 206.354 239.747 207.05V218.465C239.747 219.161 240.32 219.726 241.027 219.726H241.779C242.486 219.726 243.059 219.161 243.059 218.465V207.05C243.059 206.354 242.486 205.789 241.779 205.789Z" fill="#595F83"/>
<path d="M228.769 111.104L227.415 110.851C227.489 110.45 229.04 101.511 217.574 94.1721C205.518 86.4533 202.423 69.5813 210.212 54.0636C217.926 38.7194 237.852 31.7811 251.628 34.9567C262.302 37.4118 268.418 45.2507 268.418 56.4587H267.063C267.063 45.9245 261.326 38.5592 251.323 36.2509C238.048 33.1954 218.854 39.8602 211.424 54.6574C203.974 69.5613 206.839 85.7061 218.312 93.058C230.625 100.91 228.837 110.691 228.769 111.104ZM228.092 110.977L227.415 110.851L228.092 110.977Z" fill="#1F2337"/>
<path d="M221.224 115.909V109.437C221.224 108.553 221.581 107.704 222.216 107.079C222.851 106.453 223.712 106.102 224.61 106.102H229.622C230.515 106.102 231.371 106.448 232.005 107.067C232.639 107.685 233 108.525 233.009 109.404L233.049 115.955L221.224 115.909Z" fill="#1F2337"/>
<path d="M223.095 111.739C222.961 111.735 222.83 111.705 222.708 111.65C222.587 111.596 222.477 111.519 222.386 111.423C222.295 111.327 222.224 111.214 222.177 111.091C222.13 110.967 222.108 110.836 222.113 110.705C222.145 109.773 222.536 108.887 223.206 108.228C223.876 107.569 224.776 107.186 225.723 107.156C225.856 107.151 225.989 107.173 226.114 107.219C226.239 107.265 226.354 107.335 226.451 107.425C226.549 107.515 226.627 107.623 226.682 107.743C226.737 107.862 226.768 107.992 226.772 108.123C226.78 108.389 226.68 108.647 226.494 108.841C226.309 109.035 226.054 109.149 225.784 109.157C225.353 109.171 224.944 109.345 224.64 109.645C224.335 109.945 224.158 110.348 224.144 110.772C224.14 110.903 224.11 111.032 224.054 111.152C223.999 111.272 223.921 111.38 223.823 111.47C223.726 111.56 223.611 111.63 223.486 111.676C223.361 111.722 223.228 111.744 223.095 111.739Z" fill="#323754"/>
<path d="M261.894 64.2111V57.7332C261.894 56.8485 262.251 56 262.886 55.3745C263.521 54.7489 264.383 54.3975 265.281 54.3975H270.286C271.184 54.3975 272.045 54.7489 272.68 55.3745C273.315 56 273.672 56.8485 273.672 57.7332V64.2845L261.894 64.2111Z" fill="#1F2337"/>
<path d="M263.764 60.0416C263.631 60.0372 263.5 60.0071 263.378 59.9527C263.257 59.8984 263.147 59.821 263.056 59.725C262.965 59.629 262.894 59.5162 262.847 59.3931C262.8 59.2699 262.778 59.1389 262.782 59.0075C262.816 58.075 263.207 57.1897 263.877 56.5299C264.547 55.8701 265.446 55.4848 266.392 55.4516C266.662 55.4437 266.923 55.5415 267.12 55.7235C267.316 55.9055 267.431 56.1569 267.439 56.4223C267.447 56.6877 267.348 56.9454 267.163 57.1387C266.978 57.332 266.723 57.4451 266.453 57.453C266.022 57.4681 265.613 57.6439 265.309 57.9449C265.005 58.2459 264.828 58.6496 264.814 59.0742C264.804 59.3391 264.688 59.5891 264.491 59.7702C264.295 59.9513 264.033 60.0488 263.764 60.0416Z" fill="#323754"/>
<path d="M373.69 189.662H124.473C115.752 189.662 108.682 196.626 108.682 205.217C108.682 213.808 115.752 220.773 124.473 220.773H373.69C382.412 220.773 389.482 213.808 389.482 205.217C389.482 196.626 382.412 189.662 373.69 189.662Z" fill="#1F2337"/>
<path d="M373.689 222.175H124.473C119.907 222.175 115.528 220.388 112.3 217.208C109.071 214.028 107.257 209.715 107.257 205.217C107.257 200.72 109.071 196.407 112.3 193.227C115.528 190.046 119.907 188.26 124.473 188.26H373.689C378.255 188.26 382.634 190.046 385.862 193.227C389.091 196.407 390.905 200.72 390.905 205.217C390.905 209.715 389.091 214.028 385.862 217.208C382.634 220.388 378.255 222.175 373.689 222.175ZM124.473 191.065C120.662 191.065 117.008 192.556 114.313 195.21C111.619 197.864 110.105 201.464 110.105 205.217C110.105 208.971 111.619 212.571 114.313 215.225C117.008 217.879 120.662 219.37 124.473 219.37H373.689C377.5 219.37 381.155 217.879 383.849 215.225C386.544 212.571 388.057 208.971 388.057 205.217C388.057 201.464 386.544 197.864 383.849 195.21C381.155 192.556 377.5 191.065 373.689 191.065H124.473Z" fill="#ADADC8"/>
<path d="M372.972 220.717H364.361V217.912H372.904L372.972 220.717ZM355.808 220.717H347.266V217.912H355.808V220.717ZM338.723 220.717H330.181V217.912H338.723V220.717ZM321.639 220.717H313.097V217.912H321.639V220.717ZM304.554 220.717H296.012V217.912H304.554V220.717ZM287.47 220.717H278.928V217.912H287.47V220.717ZM270.385 220.717H261.843V217.912H270.385V220.717ZM253.301 220.717H244.759V217.912H253.301V220.717ZM236.217 220.717H227.674V217.912H236.217V220.717ZM219.132 220.717H210.59V217.912H219.132V220.717ZM202.048 220.717H193.505V217.912H202.048V220.717ZM184.963 220.717H176.421V217.912H184.963V220.717ZM167.879 220.717H159.337V217.912H167.879V220.717ZM150.794 220.717H142.252V217.912H150.794V220.717ZM134.359 220.717H125.754L125.851 217.912H134.359V220.717ZM382.374 217.267L380.865 215.023C382.858 213.452 384.156 211.82 384.726 209.414L387.659 210.092C386.639 213.093 384.561 215.304 382.067 217.273L382.374 217.267ZM116.375 217.407C113.943 215.371 111.568 213.419 110.942 210.35L114.08 209.301C114.575 211.753 116.358 213.677 118.317 215.304L116.375 217.407ZM384.789 201.375C384.287 198.924 382.511 196.775 380.54 195.149L382.38 193.006C384.817 195.036 387.158 197.69 387.79 200.758L384.789 201.375ZM114.16 201.072L110.874 200.321C111.591 197.269 113.829 195.02 116.329 193.028L117.907 195.777C115.6 197.37 114.427 198.638 113.852 201.072H114.16ZM373.462 192.518H365.068V189.713H373.61L373.462 192.518ZM356.514 192.518H347.972V189.713H356.514V192.518ZM339.429 192.518H330.887V189.713H339.429V192.518ZM322.345 192.518H313.803V189.713H322.345V192.518ZM305.232 192.518H296.69V189.713H305.232V192.518ZM288.148 192.518H279.605V189.713H288.148V192.518ZM271.063 192.518H262.521V189.713H271.063V192.518ZM253.979 192.518H245.436V189.713H253.979V192.518ZM236.894 192.518H228.352V189.713H236.894V192.518ZM219.81 192.518H211.268V189.713H219.81V192.518ZM202.697 192.518H194.155V189.713H202.697V192.518ZM185.612 192.518H177.07V189.713H185.612V192.518ZM168.528 192.518H159.986V189.713H168.528V192.518ZM151.444 192.518H142.901V189.713H151.444V192.518ZM135.925 192.518H127.383V189.713H135.925V192.518Z" fill="#ADADC8"/>
<path d="M136.671 205.667C136.906 199.577 132.085 194.453 125.903 194.221C119.721 193.99 114.519 198.738 114.283 204.828C114.048 210.917 118.869 216.041 125.051 216.273C131.233 216.505 136.435 211.756 136.671 205.667Z" fill="#75758F"/>
<path d="M125.306 217.654C124.28 217.641 123.259 217.508 122.265 217.255C120.98 216.924 119.756 216.396 118.637 215.69L120.175 213.329C121.717 214.305 123.507 214.832 125.34 214.849L125.306 217.654ZM133.45 214.849L131.65 212.678C133.067 211.538 134.129 210.027 134.714 208.319L137.413 209.211C136.655 211.416 135.281 213.366 133.45 214.838V214.849ZM113.398 208.948C113.019 207.745 112.827 206.493 112.829 205.234C112.831 204.174 112.969 203.119 113.239 202.093L114.628 202.407L116.006 202.766V202.8C115.539 204.545 115.585 206.385 116.137 208.106L113.398 208.948ZM134.566 201.734C133.9 200.052 132.769 198.587 131.303 197.504L133.011 195.26C134.904 196.657 136.362 198.548 137.219 200.719L134.566 201.734ZM119.805 197.358L118.165 195.064C120.1 193.728 122.376 192.95 124.736 192.82L124.896 195.625C123.069 195.719 121.305 196.316 119.805 197.347V197.358Z" fill="#75758F"/>
<path d="M125.446 212.133C129.324 212.133 132.468 209.036 132.468 205.216C132.468 201.396 129.324 198.3 125.446 198.3C121.568 198.3 118.424 201.396 118.424 205.216C118.424 209.036 121.568 212.133 125.446 212.133Z" fill="#D6D6E8"/>
<path d="M128.989 205.218C128.989 205.908 128.781 206.582 128.392 207.156C128.003 207.73 127.449 208.177 126.802 208.441C126.155 208.705 125.443 208.774 124.756 208.64C124.069 208.505 123.437 208.173 122.942 207.685C122.447 207.197 122.109 206.575 121.973 205.898C121.836 205.222 121.906 204.52 122.174 203.882C122.442 203.245 122.896 202.7 123.479 202.317C124.061 201.933 124.746 201.729 125.447 201.729C125.912 201.729 126.372 201.819 126.802 201.994C127.232 202.169 127.622 202.426 127.951 202.75C128.28 203.074 128.541 203.459 128.719 203.882C128.897 204.306 128.989 204.759 128.989 205.218Z" fill="#1F2337"/>
<path d="M161.906 204.511C161.764 206.69 162.282 208.862 163.393 210.751C164.504 212.641 166.159 214.163 168.149 215.126C170.139 216.089 172.373 216.449 174.571 216.16C176.768 215.872 178.83 214.948 180.494 213.506C182.158 212.063 183.351 210.167 183.921 208.057C184.491 205.947 184.413 203.717 183.697 201.651C182.981 199.584 181.658 197.773 179.897 196.447C178.136 195.121 176.015 194.339 173.803 194.2C172.334 194.108 170.862 194.301 169.469 194.769C168.076 195.237 166.791 195.97 165.686 196.928C164.581 197.885 163.679 199.048 163.03 200.349C162.382 201.65 162 203.064 161.906 204.511Z" fill="#75758F"/>
<path d="M173.103 217.655C172.829 217.655 172.533 217.655 172.283 217.655C170.958 217.571 169.655 217.281 168.422 216.796L169.475 214.193C170.431 214.565 171.44 214.789 172.465 214.855C173.259 214.906 174.057 214.861 174.84 214.721L175.341 217.481C174.601 217.603 173.853 217.661 173.103 217.655ZM182.784 213.167L180.597 211.372C181.768 209.985 182.518 208.301 182.761 206.514L185.609 206.89C185.29 209.202 184.317 211.38 182.801 213.172L182.784 213.167ZM161.958 211.114C160.966 209.304 160.445 207.28 160.443 205.224C160.443 204.955 160.443 204.663 160.443 204.416L161.867 204.461L163.285 204.556V204.601C163.285 204.809 163.285 205.016 163.285 205.224C163.284 206.815 163.687 208.381 164.458 209.779L161.958 211.114ZM181.32 200.08C180.353 198.555 178.972 197.327 177.334 196.535L178.576 194.01C180.702 195.028 182.498 196.611 183.758 198.582L181.32 200.08ZM165.99 198.537L163.94 196.591C165.579 194.913 167.662 193.719 169.954 193.146L170.654 195.867C168.891 196.317 167.291 197.244 166.036 198.543L165.99 198.537Z" fill="#75758F"/>
<path d="M179.981 203.905C180.244 205.249 180.097 206.639 179.558 207.899C179.019 209.16 178.113 210.236 176.954 210.989C175.795 211.743 174.435 212.141 173.046 212.133C171.657 212.125 170.302 211.712 169.151 210.945C168.001 210.178 167.108 209.093 166.584 207.826C166.06 206.559 165.929 205.167 166.208 203.827C166.487 202.487 167.163 201.258 168.151 200.297C169.138 199.335 170.394 198.684 171.757 198.425C172.663 198.252 173.594 198.257 174.497 198.439C175.401 198.621 176.259 198.977 177.022 199.486C177.786 199.995 178.441 200.647 178.948 201.406C179.456 202.164 179.807 203.013 179.981 203.905Z" fill="#D6D6E8"/>
<path d="M176.568 204.555C176.701 205.232 176.626 205.933 176.355 206.569C176.083 207.205 175.625 207.747 175.041 208.127C174.456 208.507 173.77 208.708 173.07 208.704C172.369 208.7 171.686 208.492 171.106 208.105C170.526 207.719 170.075 207.171 169.81 206.532C169.546 205.893 169.479 205.192 169.62 204.516C169.76 203.84 170.101 203.22 170.598 202.735C171.096 202.249 171.729 201.92 172.417 201.789C173.339 201.615 174.295 201.808 175.073 202.326C175.851 202.845 176.389 203.646 176.568 204.555Z" fill="#1F2337"/>
<path d="M235.393 206.553C236.056 200.494 231.608 195.053 225.458 194.399C219.307 193.745 213.782 198.126 213.119 204.185C212.455 210.244 216.903 215.685 223.054 216.339C229.204 216.993 234.729 212.612 235.393 206.553Z" fill="#75758F"/>
<path d="M220.122 217.132C217.888 216.374 215.915 215.013 214.427 213.205L216.625 211.416V211.455C217.769 212.857 219.291 213.912 221.016 214.501L220.122 217.132ZM228.755 217.008L227.741 214.389C228.702 214.027 229.6 213.52 230.401 212.885C231.02 212.391 231.576 211.826 232.058 211.202L234.336 212.885C233.715 213.687 232.998 214.412 232.2 215.045C231.174 215.873 230.02 216.535 228.784 217.008H228.755ZM214.518 205.161L211.671 205.094C211.724 202.764 212.441 200.496 213.738 198.547L216.118 200.09C215.105 201.597 214.54 203.354 214.49 205.161H214.518ZM234.063 204.914C233.989 203.106 233.397 201.356 232.354 199.865L234.695 198.267C236.044 200.181 236.82 202.43 236.933 204.757L234.063 204.914ZM221.483 196.152L220.663 193.465C222.929 192.798 225.34 192.769 227.622 193.381L226.87 196.085C225.094 195.608 223.218 195.631 221.454 196.152H221.483Z" fill="#75758F"/>
<path d="M228.447 199.827C229.561 200.641 230.405 201.762 230.873 203.049C231.34 204.336 231.409 205.73 231.072 207.056C230.735 208.382 230.007 209.579 228.979 210.497C227.951 211.415 226.669 212.012 225.297 212.213C223.925 212.413 222.523 212.209 221.268 211.625C220.014 211.041 218.964 210.104 218.25 208.932C217.536 207.76 217.191 206.406 217.259 205.041C217.326 203.675 217.803 202.361 218.629 201.263C219.178 200.533 219.867 199.917 220.658 199.45C221.448 198.983 222.324 198.674 223.236 198.541C224.148 198.407 225.077 198.452 225.971 198.673C226.866 198.894 227.707 199.286 228.447 199.827Z" fill="#D6D6E8"/>
<path d="M226.382 202.575C226.946 202.987 227.374 203.554 227.61 204.205C227.847 204.856 227.882 205.561 227.712 206.232C227.541 206.903 227.172 207.508 226.652 207.973C226.132 208.437 225.484 208.739 224.79 208.84C224.095 208.942 223.386 208.838 222.752 208.542C222.117 208.246 221.586 207.771 221.226 207.178C220.865 206.585 220.692 205.9 220.726 205.209C220.761 204.519 221.003 203.854 221.422 203.299C221.984 202.557 222.821 202.064 223.75 201.928C224.68 201.793 225.626 202.025 226.382 202.575Z" fill="#1F2337"/>
<path d="M276.648 216.2C282.701 214.941 286.572 209.087 285.294 203.125C284.016 197.162 278.073 193.349 272.02 194.608C265.967 195.866 262.096 201.72 263.374 207.683C264.652 213.645 270.594 217.458 276.648 216.2Z" fill="#75758F"/>
<path d="M274.345 217.833C273.088 217.829 271.838 217.64 270.638 217.272L271.435 214.579H271.503C273.247 215.097 275.102 215.128 276.862 214.669L277.597 217.379C276.538 217.67 275.444 217.823 274.345 217.833ZM284.675 212.538L282.346 210.928C283.401 209.44 284.011 207.691 284.106 205.879L286.953 206.036C286.886 207.046 286.695 208.044 286.384 209.009C286.008 210.263 285.434 211.45 284.681 212.526L284.675 212.538ZM263.724 212.128C262.441 210.172 261.743 207.899 261.708 205.571L264.556 205.531C264.586 207.335 265.126 209.095 266.116 210.614L263.724 212.128ZM282.164 199.608C281.065 198.163 279.574 197.053 277.864 196.405L278.889 193.791C281.098 194.627 283.023 196.06 284.442 197.925L282.164 199.608ZM266.754 199.305L264.55 197.532C266.037 195.723 268.01 194.363 270.245 193.605L271.167 196.259C269.435 196.852 267.908 197.914 266.759 199.322L266.754 199.305Z" fill="#75758F"/>
<path d="M280.972 207.682C282.257 204.078 280.331 200.13 276.672 198.865C273.013 197.6 269.006 199.496 267.721 203.101C266.437 206.705 268.362 210.652 272.021 211.918C275.681 213.183 279.688 211.286 280.972 207.682Z" fill="#D6D6E8"/>
<path d="M274.492 201.892C275.193 201.92 275.869 202.152 276.436 202.558C277.002 202.964 277.434 203.527 277.676 204.175C277.919 204.823 277.961 205.527 277.797 206.198C277.634 206.87 277.272 207.479 276.758 207.948C276.244 208.417 275.6 208.725 274.907 208.834C274.215 208.943 273.506 208.848 272.869 208.56C272.231 208.272 271.695 207.805 271.327 207.217C270.959 206.629 270.777 205.947 270.802 205.257C270.819 204.797 270.928 204.345 271.122 203.927C271.317 203.508 271.594 203.132 271.937 202.819C272.28 202.506 272.682 202.263 273.121 202.104C273.559 201.945 274.025 201.873 274.492 201.892Z" fill="#1F2337"/>
<path d="M338.669 206.371C339.3 200.309 334.822 194.891 328.667 194.27C322.513 193.649 317.013 198.06 316.382 204.122C315.752 210.184 320.23 215.602 326.384 216.223C332.538 216.844 338.039 212.434 338.669 206.371Z" fill="#75758F"/>
<path d="M327.506 217.655C327.233 217.655 326.965 217.655 326.692 217.655C325.365 217.573 324.06 217.285 322.825 216.802L323.879 214.193C324.834 214.565 325.843 214.789 326.868 214.855C327.663 214.906 328.46 214.861 329.243 214.721L329.744 217.481C329.005 217.603 328.256 217.661 327.506 217.655ZM337.187 213.167L335.001 211.372C336.171 209.984 336.922 208.301 337.17 206.514L340.018 206.89C339.698 209.203 338.723 211.38 337.204 213.172L337.187 213.167ZM316.361 211.114C315.371 209.304 314.852 207.28 314.852 205.224C314.852 204.955 314.852 204.663 314.852 204.416L316.276 204.461L317.694 204.596C317.694 204.809 317.694 205.016 317.694 205.224C317.686 206.811 318.077 208.376 318.833 209.779L316.361 211.114ZM335.724 200.08C334.756 198.555 333.376 197.327 331.737 196.535L332.979 194.01C335.106 195.028 336.901 196.611 338.161 198.582L335.724 200.08ZM320.399 198.537L318.343 196.591C319.982 194.913 322.065 193.719 324.357 193.146L325.057 195.867C323.306 196.322 321.719 197.248 320.473 198.543L320.399 198.537Z" fill="#75758F"/>
<path d="M334.38 206.801C335.243 203.077 332.878 199.368 329.097 198.518C325.316 197.668 321.552 199.998 320.688 203.722C319.825 207.446 322.19 211.154 325.971 212.004C329.752 212.854 333.516 210.525 334.38 206.801Z" fill="#D6D6E8"/>
<path d="M330.974 204.556C331.106 205.233 331.032 205.934 330.76 206.57C330.488 207.206 330.031 207.748 329.446 208.128C328.862 208.508 328.176 208.709 327.475 208.705C326.775 208.701 326.091 208.493 325.511 208.106C324.931 207.719 324.48 207.172 324.216 206.533C323.951 205.894 323.885 205.193 324.025 204.517C324.165 203.841 324.506 203.221 325.004 202.736C325.502 202.25 326.135 201.921 326.822 201.79C327.745 201.616 328.7 201.809 329.479 202.327C330.257 202.846 330.795 203.647 330.974 204.556Z" fill="#1F2337"/>
<path d="M383.204 209.665C385.707 204.092 383.149 197.575 377.491 195.11C371.833 192.645 365.218 195.165 362.716 200.738C360.213 206.311 362.771 212.827 368.429 215.292C374.087 217.757 380.702 215.238 383.204 209.665Z" fill="#75758F"/>
<path d="M373.656 217.637L373.502 214.832C374.528 214.775 375.538 214.561 376.497 214.198C377.24 213.91 377.944 213.533 378.593 213.076L380.227 215.376C378.292 216.713 376.016 217.49 373.656 217.62V217.637ZM365.392 215.169C363.499 213.769 362.043 211.874 361.19 209.699L362.505 209.138L363.843 208.65L362.505 209.138L363.849 208.667C364.508 210.352 365.635 211.819 367.101 212.902L365.392 215.169ZM385.17 208.437L382.42 207.714C382.898 205.971 382.864 204.131 382.323 202.407L385.045 201.582C385.743 203.81 385.787 206.186 385.17 208.437ZM363.752 202.076L361.059 201.162C361.829 198.962 363.21 197.018 365.045 195.552L366.839 197.734C365.417 198.868 364.347 200.372 363.752 202.076ZM378.325 197.134C376.787 196.151 374.999 195.613 373.166 195.58L373.217 192.775C375.581 192.816 377.885 193.51 379.869 194.778L378.325 197.134Z" fill="#75758F"/>
<path d="M372.971 212.133C376.849 212.133 379.993 209.036 379.993 205.216C379.993 201.396 376.849 198.3 372.971 198.3C369.093 198.3 365.95 201.396 365.95 205.216C365.95 209.036 369.093 212.133 372.971 212.133Z" fill="#D6D6E8"/>
<path d="M375.847 203.175C376.256 203.735 376.488 204.402 376.512 205.092C376.536 205.781 376.353 206.462 375.984 207.049C375.616 207.635 375.079 208.101 374.442 208.388C373.805 208.674 373.096 208.768 372.405 208.657C371.713 208.547 371.071 208.237 370.558 207.767C370.046 207.297 369.686 206.688 369.525 206.016C369.364 205.345 369.408 204.642 369.653 203.995C369.897 203.349 370.331 202.788 370.898 202.384C371.662 201.845 372.611 201.625 373.539 201.774C374.466 201.922 375.296 202.426 375.847 203.175Z" fill="#1F2337"/>
<path d="M207.319 173.109H196.938V175.039H207.319V173.109Z" fill="#4048FF"/>
<path d="M220.204 173.109H209.823V175.039H220.204V173.109Z" fill="#F52079"/>
<path d="M233.137 173.109H222.755V175.039H233.137V173.109Z" fill="#00CC9E"/>
<path d="M231.875 176.935H198.2C197.503 176.935 196.938 177.399 196.938 177.972V178.556C196.938 179.129 197.503 179.593 198.2 179.593H231.875C232.572 179.593 233.137 179.129 233.137 178.556V177.972C233.137 177.399 232.572 176.935 231.875 176.935Z" fill="#75758F"/>
<path d="M292.446 160.05H260.486C256.961 160.05 254.103 162.865 254.103 166.337V177.212C254.103 180.684 256.961 183.499 260.486 183.499H292.446C295.971 183.499 298.829 180.684 298.829 177.212V166.337C298.829 162.865 295.971 160.05 292.446 160.05Z" fill="#ADADC8"/>
<path d="M259.306 178.987C259.064 178.734 258.931 178.398 258.935 178.05L259.018 165.57C259.024 165.194 259.177 164.835 259.444 164.567C259.712 164.299 260.074 164.143 260.455 164.131C260.641 164.124 260.825 164.154 260.999 164.219C261.172 164.285 261.329 164.384 261.462 164.512C261.595 164.639 261.7 164.792 261.771 164.961C261.842 165.13 261.877 165.311 261.874 165.493L261.797 177.973C261.791 178.349 261.638 178.709 261.371 178.978C261.103 179.247 260.741 179.404 260.36 179.418C260.163 179.422 259.968 179.386 259.787 179.312C259.605 179.237 259.442 179.127 259.306 178.987Z" fill="#1F2337"/>
<path d="M265.632 178.994C265.39 178.74 265.257 178.404 265.26 178.056L265.344 165.577C265.349 165.2 265.501 164.839 265.768 164.57C266.036 164.301 266.399 164.144 266.781 164.132C266.967 164.125 267.152 164.156 267.325 164.222C267.498 164.288 267.656 164.388 267.788 164.516C267.921 164.644 268.026 164.797 268.097 164.966C268.168 165.136 268.203 165.317 268.2 165.5L268.122 177.98C268.116 178.356 267.963 178.716 267.694 178.984C267.425 179.252 267.062 179.408 266.679 179.419C266.484 179.425 266.29 179.39 266.109 179.317C265.929 179.244 265.766 179.134 265.632 178.994Z" fill="#1F2337"/>
<path d="M271.957 178.987C271.715 178.733 271.582 178.398 271.586 178.05L271.67 165.57C271.674 165.194 271.826 164.834 272.094 164.566C272.362 164.297 272.725 164.142 273.107 164.131C273.292 164.124 273.477 164.154 273.65 164.219C273.823 164.285 273.981 164.384 274.114 164.512C274.246 164.639 274.351 164.792 274.422 164.961C274.493 165.129 274.528 165.311 274.526 165.493L274.442 177.973C274.438 178.35 274.286 178.71 274.018 178.979C273.75 179.249 273.387 179.406 273.005 179.418C272.809 179.425 272.614 179.39 272.433 179.316C272.252 179.241 272.09 179.129 271.957 178.987Z" fill="#1F2337"/>
<path d="M278.286 178.987C278.045 178.733 277.912 178.397 277.915 178.049L277.993 165.57C277.999 165.193 278.152 164.833 278.421 164.565C278.69 164.297 279.054 164.141 279.436 164.131C279.621 164.124 279.805 164.155 279.978 164.221C280.151 164.286 280.308 164.386 280.441 164.513C280.573 164.641 280.679 164.793 280.75 164.961C280.821 165.13 280.857 165.311 280.855 165.493L280.771 177.973C280.767 178.349 280.615 178.71 280.347 178.979C280.079 179.248 279.716 179.405 279.334 179.418C279.138 179.424 278.943 179.39 278.762 179.315C278.582 179.241 278.419 179.129 278.286 178.987Z" fill="#1F2337"/>
<path d="M284.613 178.994C284.369 178.741 284.235 178.404 284.241 178.056L284.319 165.576C284.325 165.199 284.478 164.838 284.747 164.569C285.016 164.3 285.379 164.144 285.762 164.131C285.947 164.126 286.132 164.157 286.305 164.224C286.478 164.29 286.635 164.39 286.767 164.518C286.9 164.646 287.005 164.799 287.076 164.967C287.147 165.136 287.183 165.317 287.181 165.5L287.097 177.979C287.091 178.355 286.939 178.714 286.671 178.982C286.404 179.25 286.042 179.406 285.66 179.418C285.465 179.426 285.27 179.391 285.09 179.318C284.909 179.245 284.746 179.134 284.613 178.994Z" fill="#1F2337"/>
<path d="M290.938 178.993C290.699 178.735 290.567 178.399 290.567 178.05L290.65 165.57C290.656 165.194 290.809 164.835 291.076 164.567C291.344 164.299 291.706 164.143 292.087 164.131C292.273 164.124 292.457 164.154 292.631 164.219C292.804 164.285 292.961 164.384 293.094 164.512C293.227 164.639 293.332 164.792 293.403 164.961C293.474 165.129 293.509 165.311 293.506 165.493L293.429 177.973C293.423 178.349 293.27 178.709 293.003 178.978C292.735 179.247 292.373 179.404 291.992 179.418C291.795 179.424 291.6 179.39 291.418 179.317C291.237 179.244 291.073 179.133 290.938 178.993Z" fill="#1F2337"/>
<path d="M292.74 183.798H260.792C259.018 183.796 257.318 183.102 256.064 181.867C254.81 180.632 254.105 178.957 254.104 177.21V166.341C254.105 164.594 254.81 162.919 256.064 161.684C257.318 160.449 259.018 159.754 260.792 159.753H292.74C294.514 159.754 296.214 160.449 297.468 161.684C298.722 162.919 299.427 164.594 299.428 166.341V177.21C299.427 178.957 298.722 180.632 297.468 181.867C296.214 183.102 294.514 183.796 292.74 183.798ZM260.792 160.343C259.177 160.344 257.629 160.977 256.488 162.101C255.346 163.226 254.704 164.75 254.702 166.341V177.21C254.704 178.8 255.346 180.325 256.488 181.45C257.629 182.574 259.177 183.207 260.792 183.208H292.74C294.355 183.207 295.903 182.574 297.044 181.45C298.186 180.325 298.828 178.8 298.83 177.21V166.341C298.828 164.75 298.186 163.226 297.044 162.101C295.903 160.977 294.355 160.344 292.74 160.343H260.792Z" fill="#1F2337"/>
<path fill-rule="evenodd" clip-rule="evenodd" d="M124.793 161.092C127.015 163.247 127.042 166.768 124.855 168.956C120.786 173.026 115.089 180.842 106.011 182.323C96.6514 183.851 82.3398 181.224 71.7734 172.228C69.4146 170.22 69.1551 166.709 71.1938 164.385C73.2326 162.062 76.7976 161.806 79.1564 163.814C87.178 170.643 94.6739 171.743 100.733 170.754C107.073 169.72 114.12 163.844 116.81 161.153C118.997 158.965 122.572 158.938 124.793 161.092Z" fill="url(#paint2_linear_3547_39692)"/>
<path d="M107.629 186.4C107.861 186.539 108.096 186.673 108.335 186.802C108.416 186.847 108.496 186.89 108.578 186.932C108.763 187.029 108.948 187.122 109.135 187.213C118.084 191.534 128.999 188.217 133.863 179.543C138.504 171.268 136.009 161.021 128.396 155.639C127.789 155.21 127.15 154.81 126.478 154.448C126.237 154.317 125.995 154.192 125.75 154.074C125.513 153.959 125.275 153.848 125.035 153.743C124.299 153.42 123.552 153.149 122.797 152.927C121.675 152.595 120.536 152.37 119.395 152.253C115.855 151.884 112.294 152.52 109.135 154.039C105.785 155.649 102.888 158.255 100.95 161.709C96.0725 170.408 99.0776 181.288 107.629 186.4Z" fill="#FFB93E"/>
<path d="M109.054 185.523C100.806 181.052 97.7942 170.82 102.34 162.711C106.888 154.603 117.297 151.642 125.547 156.111C133.795 160.582 136.806 170.814 132.26 178.923C129.15 184.469 123.299 187.605 117.272 187.605C114.485 187.605 111.662 186.936 109.054 185.523ZM103.166 163.158C98.8691 170.818 101.714 180.488 109.509 184.711C117.302 188.935 127.138 186.137 131.434 178.476C135.731 170.815 132.886 161.146 125.091 156.923C122.628 155.587 119.96 154.954 117.327 154.954C111.633 154.954 106.103 157.919 103.166 163.158Z" fill="#FFA412"/>
<path d="M119.841 179.376L119.889 179.43C116.694 180.209 113.178 179.238 110.875 176.622C109.389 174.934 108.664 172.854 108.669 170.785L108.633 170.744L106.275 168.065C105.409 171.578 106.224 175.437 108.813 178.378C112.765 182.866 119.456 183.637 124.325 180.37L119.352 174.723L121.414 172.968L126.386 178.615L126.4 178.599C127.039 177.912 127.579 177.164 128.021 176.374L123.476 171.212L128.723 166.743C128.399 165.893 127.969 165.07 127.432 164.295L121.691 169.184L119.906 167.156L125.647 162.267C124.943 161.632 124.177 161.096 123.368 160.659L118.12 165.129L113.576 159.968C112.304 160.437 111.093 161.132 110.005 162.059C108.918 162.985 108.045 164.064 107.392 165.236L108.449 166.437L119.841 179.376ZM117.844 168.912L119.629 170.94L117.568 172.696L115.783 170.668L117.844 168.912ZM112.888 163.283L116.058 166.884L113.997 168.64L110.827 165.039C111.119 164.703 111.44 164.383 111.79 164.085C112.14 163.787 112.507 163.52 112.888 163.283Z" fill="#FFA412"/>
<path fill-rule="evenodd" clip-rule="evenodd" d="M359.888 190.839C349.205 190.815 340.564 182.144 340.589 171.472C340.613 160.801 349.294 152.169 359.977 152.193C370.661 152.217 379.302 160.888 379.277 171.559C379.252 182.231 370.572 190.863 359.888 190.839ZM365.315 178.848L366.087 178.849C366.496 178.85 366.889 178.689 367.178 178.4C367.469 178.112 367.632 177.72 367.633 177.312L367.649 170.377C367.65 169.969 367.488 169.577 367.199 169.287C366.911 168.997 366.519 168.834 366.11 168.833L365.338 168.831L365.315 178.848ZM359.168 168.817L353.768 168.805C353.359 168.804 352.966 168.966 352.677 169.254C352.386 169.543 352.223 169.934 352.222 170.343L352.219 171.884L352.286 172.195L355.288 178.825L363.773 178.844L363.797 168.395L359.95 164.196L359.776 164.196C359.532 164.195 359.291 164.253 359.073 164.364C358.855 164.475 358.667 164.635 358.524 164.833C358.38 165.031 358.286 165.26 358.248 165.501C358.211 165.742 358.231 165.989 358.308 166.221L359.168 168.817Z" fill="#0007A3"/>
<ellipse rx="13.8706" ry="13.7242" transform="matrix(0.924885 0.380247 -0.390146 0.920753 362.759 172.189)" fill="#F6F6FF"/>
<path fill-rule="evenodd" clip-rule="evenodd" d="M362.951 190.442C352.268 190.418 343.627 181.748 343.652 171.076C343.676 160.404 352.357 151.773 363.04 151.797C373.724 151.82 382.365 160.491 382.34 171.163C382.315 181.834 373.635 190.466 362.951 190.442ZM368.378 178.451L369.15 178.453C369.559 178.454 369.952 178.292 370.241 178.004C370.532 177.716 370.695 177.324 370.696 176.915L370.712 169.981C370.713 169.572 370.551 169.18 370.262 168.89C369.974 168.601 369.582 168.437 369.173 168.436L368.401 168.435L368.378 178.451ZM362.231 168.421L356.831 168.409C356.422 168.408 356.029 168.569 355.74 168.858C355.449 169.146 355.286 169.538 355.285 169.946L355.282 171.487L355.349 171.799L358.351 178.429L366.836 178.448L366.86 167.998L363.013 163.8L362.839 163.799C362.595 163.799 362.354 163.856 362.136 163.967C361.918 164.078 361.73 164.239 361.587 164.437C361.443 164.634 361.349 164.863 361.311 165.104C361.274 165.346 361.294 165.592 361.371 165.824L362.231 168.421Z" fill="#4048FF"/>
<g filter="url(#filter1_d_3547_39692)">
<path d="M43.9502 156.655C51.3449 146.787 61.5424 148.235 65.7168 150.192C78.0906 164.584 56.6229 191.457 50.8085 197.038C44.9942 202.618 32.6201 198.653 29.042 191.457C25.464 184.261 34.7069 168.99 43.9502 156.655Z" fill="url(#paint3_linear_3547_39692)"/>
<path d="M38.6196 187.12C39.3951 179.04 48.784 168.149 53.3814 163.713C60.2431 154.061 74.2805 158.5 76.1619 166.585C78.5137 176.69 70.339 187.799 80.6491 200.453C87.1669 208.453 92.025 217.276 88.1289 231.011C86.6551 236.207 76.9469 234.262 76.1619 229.799C73.0022 211.835 62.5623 201.075 63.5599 213.668C64.1246 220.798 62.4132 239.924 49.5906 243.132C39.3325 245.698 38.1293 246.838 39.8752 243.878C56.3489 221.732 37.6502 197.219 38.6196 187.12Z" fill="url(#paint4_radial_3547_39692)"/>
<ellipse rx="1.12325" ry="1.97036" transform="matrix(-0.896029 -0.440775 -0.452854 0.893219 71.3929 173.135)" fill="#40BAC5"/>
<ellipse rx="1.12325" ry="1.97036" transform="matrix(-0.896029 -0.440775 -0.452854 0.893219 76.7746 183.662)" fill="#CE0C22"/>
<path d="M76.4103 201.97C72.6334 204.279 66.4507 206.62 63.8314 207.502C70.2189 206.998 75.3938 221.284 77.1828 228.49C78.5156 227.35 81.705 224.977 83.7996 224.603C86.4178 224.135 85.1149 221.265 78.8807 220.309C72.6466 219.354 77.983 215.942 80.6737 215.766C83.3644 215.59 82.8368 212.588 75.5701 212.604C69.7566 212.617 70.5786 210.439 71.7163 209.348C76.6456 206.975 76.8995 203.441 76.4103 201.97Z" fill="#C0CDD2"/>
<path d="M75.3882 163.066C61.3173 160.059 51.3809 147.375 53.1946 134.735C55.0083 122.095 67.8853 114.286 81.9562 117.292C96.027 120.299 105.963 132.983 104.15 145.623C102.336 158.263 89.459 166.073 75.3882 163.066Z" fill="url(#paint5_radial_3547_39692)"/>
<path d="M92.7911 153.779C93.9553 154.31 95.2879 154.155 96.1162 153.375C98.9012 150.77 101.528 145.857 101.48 142.302C101.308 128.65 79.8787 121.783 74.1071 132.048C71.453 136.783 72.812 141.92 73.5303 144.097C73.7628 144.79 74.3223 145.396 75.0441 145.722L92.7911 153.779Z" fill="url(#paint6_linear_3547_39692)"/>
<g style="mix-blend-mode:multiply">
<path d="M73.9824 132.065C76.9132 126.829 83.8843 126.029 90.0658 128.283C85.2133 127.672 91.3062 137.286 89.0399 141.321C86.3693 146.091 76.9601 143.052 77.6807 145.261C77.9146 145.959 78.4776 146.569 79.2039 146.898L95.1299 154.143C94.4097 154.384 93.5563 154.328 92.781 153.973L74.9231 145.856C74.1967 145.527 73.6338 144.917 73.3998 144.219C72.6793 142.011 71.2925 136.847 73.9824 132.065Z" fill="url(#paint7_radial_3547_39692)"/>
</g>
<path d="M97.2573 134.209C96.3441 133.007 94.6173 132.693 93.4008 133.577C92.861 133.964 92.4694 134.559 92.5819 135.44C92.8712 137.975 95.3751 138.837 94.1608 145.668C93.6551 148.513 91.7042 149.27 93.1621 150.151C94.6959 151.078 98.111 148.138 99.1335 142.103C99.7637 138.368 98.386 135.712 97.2573 134.209Z" fill="white"/>
<path d="M89.1476 231.984C89.3648 230.845 78.3318 229.012 76.4863 229.634C74.0744 234.252 75.8435 253.557 77.8065 253.956C80.2602 254.455 93.8691 255.789 97.4942 253.81C101.119 251.832 89.6298 248.572 88.3345 248.863C87.2982 249.095 88.8404 236.608 89.1476 231.984Z" fill="black"/>
<path d="M52.7004 235.156C47.9217 233.61 46.2998 229.682 46.2162 228.167C42.5003 234.496 41.5801 237.866 39.563 241.467C37.02 246.006 36.8368 252.01 37.9066 254.429C38.8102 256.472 62.4611 255.575 58.893 252.816C55.3249 250.057 48.6426 247.509 50.3988 246.489C51.8038 245.672 57.9966 240.115 60.1713 235.554C58.3758 235.692 57.4792 236.701 52.7004 235.156Z" fill="black"/>
<g filter="url(#filter2_d_3547_39692)">
<path fill-rule="evenodd" clip-rule="evenodd" d="M57.2838 164.955C55.2545 166.108 52.6414 169.461 53.9074 171.571C56.2618 175.495 60.2293 182.883 66.7743 185.919C73.5217 189.048 84.675 186.841 94.1141 182.303C96.2213 181.291 97.0122 178.702 95.8806 176.522C94.7491 174.341 92.1235 173.395 90.0163 174.408C82.8505 177.852 77.0516 177.095 72.6834 175.069C68.1128 172.949 64.807 169.284 63.2505 166.69C61.9845 164.58 59.3132 163.803 57.2838 164.955Z" fill="white"/>
</g>
<path d="M93.9216 169.062C91.5619 172.153 93.4441 177.442 94.6801 179.7C100.393 183.136 112.645 180.628 110.368 173.701C108.737 168.74 102.481 170.699 102.319 167.72C102.169 164.963 101.682 165.04 99.7811 164.555C97.8803 164.07 96.8713 165.198 93.9216 169.062Z" fill="black"/>
</g>
<g filter="url(#filter3_d_3547_39692)">
<path fill-rule="evenodd" clip-rule="evenodd" d="M427.007 160.695C424.569 158.39 420.848 158.583 418.696 161.125L410.512 170.796C408.005 173.758 403.731 176.109 400.283 174.401L384.969 166.653C382.011 165.188 380.182 163.306 378.832 166.408C377.483 169.511 379.658 171.979 382.617 173.445L395.601 184.144C405.645 189.92 413.405 186.157 419.342 179.142L427.527 169.471C429.678 166.928 429.446 162.999 427.007 160.695Z" fill="#ADADC8"/>
</g>
<g filter="url(#filter4_d_3547_39692)">
<path d="M448.862 148.169C443.467 146.222 439.514 150.581 438.212 153.004C429.13 161.291 429.62 194.342 431 209.831C432.491 211.618 437.684 215.304 446.525 215.751C457.576 216.31 457.576 165.007 458.377 158.693C459.179 152.379 455.606 150.603 448.862 148.169Z" fill="url(#paint8_linear_3547_39692)"/>
<path d="M415.139 162.95C416.786 150.212 420.596 152.695 425.512 154.743C435.004 155.626 438.733 158.616 441.3 169.044C446.047 188.328 440.746 212.027 440.458 225.543C440.171 239.059 446.558 249.151 440.616 247.284C435.862 245.791 426.672 245.427 421.99 220.741C419.212 230.775 427.484 237.302 421.193 239.977C417.569 241.518 410.559 241.079 408.213 229.248C405.867 217.417 406.499 203.492 406.403 201.299C405.555 181.786 412.39 177.258 415.139 162.95Z" fill="url(#paint9_radial_3547_39692)"/>
<path d="M442.211 237.46C437.96 242.648 430.005 240.092 428.331 239.627C428.572 241.705 435.405 250.385 437.293 253.929C432.91 255.19 425.57 254.978 425.015 259.352C431.849 262.615 444.135 259.142 447.07 256.917L442.211 237.46Z" fill="black"/>
<path d="M423.357 233.422C419.106 238.61 411.151 236.054 409.478 235.589C409.718 237.667 416.551 246.347 418.439 249.891C414.056 251.152 406.716 250.939 406.161 255.314C412.995 258.577 425.281 255.104 428.216 252.879L423.357 233.422Z" fill="black"/>
<path d="M417.688 216.98C413.066 215.962 409.13 209.941 407.785 207.292C404.105 220.548 417.852 223.901 417.691 224.13C419.352 221.707 421.52 220.453 422.214 220.409C421.393 217.263 422.31 217.997 417.688 216.98Z" fill="url(#paint10_linear_3547_39692)"/>
<g style="mix-blend-mode:multiply">
<path d="M415.15 229.628C412.838 229.425 418.584 225.054 420.714 223.33C420.714 223.33 421.5 229.727 422.536 232.08C423.571 234.432 418.813 236.047 417.909 235.387C417.006 234.727 418.735 233.871 419.609 232.368C422.34 227.669 418.04 229.882 415.15 229.628Z" fill="url(#paint11_linear_3547_39692)"/>
</g>
<ellipse rx="1.51611" ry="2.20701" transform="matrix(0.992504 0.122208 -0.125894 0.992044 418.349 184.048)" fill="#CE0C22"/>
<ellipse rx="1.51563" ry="2.20772" transform="matrix(0.963554 0.265504 -0.273337 0.962491 419.975 177.834)" fill="#40BAC5"/>
<path d="M421.587 163.195C436.094 163.112 447.81 151.488 447.755 137.232C447.7 122.977 435.895 111.488 421.388 111.571C406.881 111.653 395.165 123.277 395.22 137.533C395.275 151.789 407.08 163.278 421.587 163.195Z" fill="url(#paint12_radial_3547_39692)"/>
<path d="M421.587 163.195C436.094 163.112 447.81 151.488 447.755 137.232C447.7 122.977 435.895 111.488 421.388 111.571C406.881 111.653 395.165 123.277 395.22 137.533C395.275 151.789 407.08 163.278 421.587 163.195Z" fill="url(#paint13_radial_3547_39692)"/>
<path d="M405.116 149.537C403.874 149.854 402.559 149.379 401.837 148.334C399.407 144.838 397.458 138.844 398.003 134.952C400.082 120.004 422.538 117.364 426.894 129.951C428.895 135.756 426.814 141.085 425.789 143.31C425.459 144.018 424.814 144.555 424.044 144.748L405.116 149.537Z" fill="url(#paint14_linear_3547_39692)"/>
<g style="mix-blend-mode:multiply">
<path d="M427.05 129.937C424.853 123.564 418.013 121.108 411.536 122.16C416.46 122.597 409.051 131.693 410.751 136.605C412.753 142.411 422.557 141.237 421.532 143.48C421.202 144.188 420.556 144.725 419.786 144.918L402.9 149.197C403.585 149.624 404.444 149.757 405.266 149.545L424.199 144.756C424.969 144.562 425.615 144.025 425.945 143.317C426.97 141.074 429.069 135.761 427.05 129.937Z" fill="url(#paint15_radial_3547_39692)"/>
</g>
<path d="M403.215 127.909C404.381 126.818 406.234 126.793 407.342 127.926C407.834 128.424 408.135 129.112 407.86 130.01C407.104 132.598 404.344 133.058 404.383 140.383C404.399 143.434 406.293 144.564 404.618 145.226C402.856 145.922 399.829 142.263 399.847 135.8C399.861 131.801 401.771 129.277 403.215 127.909Z" fill="white"/>
<path d="M436.155 218.688C436.978 216.144 428.166 217.835 423.656 218.998C419.836 219.836 425.202 231.257 427.98 236.956C429.012 237.345 431.09 238.247 434.216 238.004C438.122 237.701 433.144 235.239 427.985 231.073C422.825 226.908 430.925 229.867 433.677 228.356C436.428 226.846 426.942 226.294 426.71 222.736C426.479 219.177 435.126 221.867 436.155 218.688Z" fill="#D2DBDE"/>
<path d="M415.791 173.565L411.984 173.096C411.854 174.122 411.084 175.72 410.057 178.486C409.199 180.795 408.617 182.899 408.078 184.769L412.649 185.331C413.103 185.387 413.533 185.105 413.661 184.665L416.569 174.749C416.73 174.197 416.361 173.635 415.791 173.565Z" fill="#2E3D6D"/>
</g>
<g filter="url(#filter5_d_3547_39692)">
<path fill-rule="evenodd" clip-rule="evenodd" d="M437.806 167.909C435.142 165.561 431.05 165.785 428.666 168.409L419.599 178.391C416.822 181.448 412.106 183.89 408.329 182.162L391.551 174.318C388.309 172.835 386.311 170.916 384.805 174.11C383.3 177.303 385.673 179.821 388.915 181.304L403.111 192.193C414.111 198.05 422.669 194.134 429.246 186.893L438.313 176.911C440.697 174.287 440.47 170.257 437.806 167.909Z" fill="white"/>
</g>
<path d="M386.012 168.428C388.132 171.297 390.893 172.708 392.488 173.927C391.67 175.961 391.649 183.725 386.317 180.781C378.004 178.949 379.447 175.876 374.37 174.029C369.293 172.182 372.616 168.201 374.837 165.238C377.057 162.276 383.362 164.842 386.012 168.428Z" fill="black"/>
<defs>
<filter id="filter0_f_3547_39692" x="0.46716" y="239.004" width="477.829" height="45.885" filterUnits="userSpaceOnUse" color-interpolation-filters="sRGB">
<feFlood flood-opacity="0" result="BackgroundImageFix"/>
<feBlend mode="normal" in="SourceGraphic" in2="BackgroundImageFix" result="shape"/>
<feGaussianBlur stdDeviation="3.75031" result="effect1_foregroundBlur_3547_39692"/>
</filter>
<filter id="filter1_d_3547_39692" x="26.152" y="116.648" width="86.5965" height="143.1" filterUnits="userSpaceOnUse" color-interpolation-filters="sRGB">
<feFlood flood-opacity="0" result="BackgroundImageFix"/>
<feColorMatrix in="SourceAlpha" type="matrix" values="0 0 0 0 0 0 0 0 0 0 0 0 0 0 0 0 0 0 127 0" result="hardAlpha"/>
<feOffset dy="2.10206"/>
<feGaussianBlur stdDeviation="1.05103"/>
<feComposite in2="hardAlpha" operator="out"/>
<feColorMatrix type="matrix" values="0 0 0 0 0 0 0 0 0 0 0 0 0 0 0 0 0 0 0.25 0"/>
<feBlend mode="normal" in2="BackgroundImageFix" result="effect1_dropShadow_3547_39692"/>
<feBlend mode="normal" in="SourceGraphic" in2="effect1_dropShadow_3547_39692" result="shape"/>
</filter>
<filter id="filter2_d_3547_39692" x="51.7259" y="164.422" width="46.5197" height="26.6575" filterUnits="userSpaceOnUse" color-interpolation-filters="sRGB">
<feFlood flood-opacity="0" result="BackgroundImageFix"/>
<feColorMatrix in="SourceAlpha" type="matrix" values="0 0 0 0 0 0 0 0 0 0 0 0 0 0 0 0 0 0 127 0" result="hardAlpha"/>
<feOffset dy="1.84879"/>
<feGaussianBlur stdDeviation="0.924396"/>
<feComposite in2="hardAlpha" operator="out"/>
<feColorMatrix type="matrix" values="0 0 0 0 0 0 0 0 0 0 0 0 0 0 0 0 0 0 0.25 0"/>
<feBlend mode="normal" in2="BackgroundImageFix" result="effect1_dropShadow_3547_39692"/>
<feBlend mode="normal" in="SourceGraphic" in2="effect1_dropShadow_3547_39692" result="shape"/>
</filter>
<filter id="filter3_d_3547_39692" x="376.574" y="159.085" width="54.2746" height="31.5872" filterUnits="userSpaceOnUse" color-interpolation-filters="sRGB">
<feFlood flood-opacity="0" result="BackgroundImageFix"/>
<feColorMatrix in="SourceAlpha" type="matrix" values="0 0 0 0 0 0 0 0 0 0 0 0 0 0 0 0 0 0 127 0" result="hardAlpha"/>
<feOffset dy="1.84879"/>
<feGaussianBlur stdDeviation="0.924396"/>
<feComposite in2="hardAlpha" operator="out"/>
<feColorMatrix type="matrix" values="0 0 0 0 0 0 0 0 0 0 0 0 0 0 0 0 0 0 0.25 0"/>
<feBlend mode="normal" in2="BackgroundImageFix" result="effect1_dropShadow_3547_39692"/>
<feBlend mode="normal" in="SourceGraphic" in2="effect1_dropShadow_3547_39692" result="shape"/>
</filter>
<filter id="filter4_d_3547_39692" x="393.355" y="111.57" width="66.998" height="152.846" filterUnits="userSpaceOnUse" color-interpolation-filters="sRGB">
<feFlood flood-opacity="0" result="BackgroundImageFix"/>
<feColorMatrix in="SourceAlpha" type="matrix" values="0 0 0 0 0 0 0 0 0 0 0 0 0 0 0 0 0 0 127 0" result="hardAlpha"/>
<feOffset dy="1.86484"/>
<feGaussianBlur stdDeviation="0.932419"/>
<feComposite in2="hardAlpha" operator="out"/>
<feColorMatrix type="matrix" values="0 0 0 0 0 0 0 0 0 0 0 0 0 0 0 0 0 0 0.25 0"/>
<feBlend mode="normal" in2="BackgroundImageFix" result="effect1_dropShadow_3547_39692"/>
<feBlend mode="normal" in="SourceGraphic" in2="effect1_dropShadow_3547_39692" result="shape"/>
</filter>
<filter id="filter5_d_3547_39692" x="382.493" y="166.284" width="59.3178" height="32.4447" filterUnits="userSpaceOnUse" color-interpolation-filters="sRGB">
<feFlood flood-opacity="0" result="BackgroundImageFix"/>
<feColorMatrix in="SourceAlpha" type="matrix" values="0 0 0 0 0 0 0 0 0 0 0 0 0 0 0 0 0 0 127 0" result="hardAlpha"/>
<feOffset dy="1.84879"/>
<feGaussianBlur stdDeviation="0.924396"/>
<feComposite in2="hardAlpha" operator="out"/>
<feColorMatrix type="matrix" values="0 0 0 0 0 0 0 0 0 0 0 0 0 0 0 0 0 0 0.25 0"/>
<feBlend mode="normal" in2="BackgroundImageFix" result="effect1_dropShadow_3547_39692"/>
<feBlend mode="normal" in="SourceGraphic" in2="effect1_dropShadow_3547_39692" result="shape"/>
</filter>
<linearGradient id="paint0_linear_3547_39692" x1="239.748" y1="339.232" x2="204.614" y2="-104.178" gradientUnits="userSpaceOnUse">
<stop stop-color="white" stop-opacity="0"/>
<stop offset="1" stop-color="#4048FF"/>
</linearGradient>
<radialGradient id="paint1_radial_3547_39692" cx="0" cy="0" r="1" gradientUnits="userSpaceOnUse" gradientTransform="translate(225.946 246.505) rotate(90) scale(38.6821 579.574)">
<stop stop-color="#ADADC8"/>
<stop offset="1" stop-color="#C4C4C4" stop-opacity="0"/>
<stop offset="1" stop-color="#ADADC8" stop-opacity="0"/>
</radialGradient>
<linearGradient id="paint2_linear_3547_39692" x1="93.3455" y1="164.953" x2="121.43" y2="168.606" gradientUnits="userSpaceOnUse">
<stop stop-color="white"/>
<stop offset="1" stop-color="#D4DDE0"/>
</linearGradient>
<linearGradient id="paint3_linear_3547_39692" x1="43.3543" y1="161.352" x2="59.6722" y2="190.787" gradientUnits="userSpaceOnUse">
<stop stop-color="white"/>
<stop offset="1" stop-color="#CAD5D9"/>
</linearGradient>
<radialGradient id="paint4_radial_3547_39692" cx="0" cy="0" r="1" gradientUnits="userSpaceOnUse" gradientTransform="translate(77.512 176.192) rotate(120.702) scale(64.2066 42.9328)">
<stop stop-color="white"/>
<stop offset="1" stop-color="#C0CDD2"/>
</radialGradient>
<radialGradient id="paint5_radial_3547_39692" cx="0" cy="0" r="1" gradientUnits="userSpaceOnUse" gradientTransform="translate(65.929 169.097) rotate(-167.938) scale(43.5561 38.5658)">
<stop offset="0.381" stop-color="#BFCCD1"/>
<stop offset="0.7578" stop-color="white"/>
</radialGradient>
<linearGradient id="paint6_linear_3547_39692" x1="101.45" y1="143.107" x2="72.2824" y2="138.919" gradientUnits="userSpaceOnUse">
<stop stop-color="#FFF668"/>
<stop offset="0.29" stop-color="#FF9C4C"/>
<stop offset="1" stop-color="#880000"/>
</linearGradient>
<radialGradient id="paint7_radial_3547_39692" cx="0" cy="0" r="1" gradientUnits="userSpaceOnUse" gradientTransform="translate(88.7162 144.934) rotate(-167.931) scale(23.3921 20.7233)">
<stop stop-color="white"/>
<stop offset="0.9385" stop-color="#880000"/>
</radialGradient>
<linearGradient id="paint8_linear_3547_39692" x1="455.105" y1="163.1" x2="432.785" y2="160.818" gradientUnits="userSpaceOnUse">
<stop stop-color="white"/>
<stop offset="1" stop-color="#CED8DB"/>
</linearGradient>
<radialGradient id="paint9_radial_3547_39692" cx="0" cy="0" r="1" gradientUnits="userSpaceOnUse" gradientTransform="translate(419.227 155.119) rotate(74.3643) scale(108.938 58.2997)">
<stop offset="0.0190804" stop-color="#C0CDD2"/>
<stop offset="0.367335" stop-color="white"/>
<stop offset="1" stop-color="#BFCCD1"/>
</radialGradient>
<linearGradient id="paint10_linear_3547_39692" x1="415.613" y1="208.256" x2="413.719" y2="223.641" gradientUnits="userSpaceOnUse">
<stop stop-color="#D1DADE"/>
<stop offset="1" stop-color="#C0CDD2" stop-opacity="0"/>
</linearGradient>
<linearGradient id="paint11_linear_3547_39692" x1="406.032" y1="233.827" x2="422.548" y2="233.782" gradientUnits="userSpaceOnUse">
<stop stop-color="#C0CDD2"/>
<stop offset="1" stop-color="#C0CDD2" stop-opacity="0"/>
</linearGradient>
<radialGradient id="paint12_radial_3547_39692" cx="0" cy="0" r="1" gradientUnits="userSpaceOnUse" gradientTransform="translate(430.217 171.957) rotate(-0.327601) scale(43.9157 43.1542)">
<stop offset="0.381" stop-color="#BFCCD1"/>
<stop offset="0.7578" stop-color="white"/>
</radialGradient>
<radialGradient id="paint13_radial_3547_39692" cx="0" cy="0" r="1" gradientUnits="userSpaceOnUse" gradientTransform="translate(430.217 171.957) rotate(-0.327601) scale(43.9157 43.1542)">
<stop offset="0.381" stop-color="#BFCCD1"/>
<stop offset="0.7578" stop-color="white"/>
</radialGradient>
<linearGradient id="paint14_linear_3547_39692" x1="397.921" y1="135.843" x2="427.756" y2="135.728" gradientUnits="userSpaceOnUse">
<stop stop-color="#FFF668"/>
<stop offset="0.29" stop-color="#FF9C4C"/>
<stop offset="1" stop-color="#880000"/>
</linearGradient>
<radialGradient id="paint15_radial_3547_39692" cx="0" cy="0" r="1" gradientUnits="userSpaceOnUse" gradientTransform="translate(410.573 140.617) rotate(-0.327599) scale(23.489 23.0816)">
<stop stop-color="white"/>
<stop offset="0.9385" stop-color="#880000"/>
</radialGradient>
</defs>
</svg>
