<svg width="36" height="37" viewBox="0 0 36 37" fill="none" xmlns="http://www.w3.org/2000/svg">
<path fill-rule="evenodd" clip-rule="evenodd" d="M28.5297 5.51198C28.5297 3.9674 26.7623 3.14031 25.5575 4.00013C24.4119 4.81773 22.7485 5.92769 21.0104 6.82951C19.2384 7.74889 17.5247 8.37849 16.2392 8.37849H9.12995C7.46095 8.37849 5.78405 8.71034 4.51772 9.77943C3.22101 10.8742 2.52686 12.5924 2.52686 14.9816C2.52686 17.3707 3.22101 19.089 4.51772 20.1837C5.23565 20.7898 6.08555 21.159 6.99116 21.365L11.1163 32.3653C11.2503 32.7227 11.592 32.9595 11.9736 32.9595H17.6611C17.9614 32.9595 18.2426 32.8122 18.4137 32.5654C18.5847 32.3185 18.6239 32.0035 18.5184 31.7223L16.5376 26.44C17.9333 26.2207 19.6865 25.3055 20.7001 22.9753C21.5026 23.3777 22.2989 23.8326 23.0463 24.2925C24.1761 24.9878 25.178 25.6847 25.898 26.2083C26.2575 26.4698 26.5456 26.6872 26.7429 26.8385C26.8415 26.9142 26.9173 26.9733 26.968 27.013L27.0248 27.0578L27.0385 27.0686L27.0415 27.071C27.3164 27.2908 27.6935 27.3342 28.0107 27.1817C28.3279 27.0292 28.5297 26.7084 28.5297 26.3564V20.0813C28.8947 20.0157 29.2525 19.911 29.5968 19.7684C30.2254 19.508 30.7966 19.1264 31.2777 18.6453C31.7588 18.1642 32.1405 17.593 32.4009 16.9644C32.6612 16.3357 32.7953 15.662 32.7953 14.9816C32.7953 14.3012 32.6612 13.6274 32.4009 12.9988C32.1405 12.3702 31.7588 11.799 31.2777 11.3179C30.7966 10.8368 30.2254 10.4551 29.5968 10.1947C29.2525 10.0521 28.8947 9.94744 28.5297 9.8819V5.51198ZM19.0282 22.2266C17.9758 21.8189 17.0202 21.5847 16.2392 21.5847H14.7168L15.8717 24.6643C16.6613 24.6598 18.1597 24.2354 19.0282 22.2266ZM9.12995 19.7533C7.65808 19.7533 6.49128 19.4531 5.69912 18.7844C4.93734 18.1412 4.35823 17.0158 4.35823 14.9816C4.35823 12.9474 4.93734 11.8219 5.69912 11.1788C6.49128 10.51 7.65808 10.2099 9.12995 10.2099H15.3235V19.7533H9.12995ZM17.1549 19.8201V10.1429C18.6819 9.92982 20.3495 9.23562 21.8538 8.4551C23.6994 7.49755 25.4411 6.33315 26.6214 5.4908C26.6274 5.48652 26.6309 5.48521 26.6322 5.48477C26.6337 5.48424 26.6359 5.4837 26.6393 5.48352C26.6473 5.4831 26.6613 5.4849 26.6768 5.49265C26.6893 5.4989 26.6958 5.50547 26.6982 5.50832L26.6983 5.51198V24.5274C25.9805 24.013 25.0472 23.3735 24.0061 22.7328C22.828 22.0079 21.496 21.2714 20.1714 20.7137C19.1757 20.2945 18.1412 19.9575 17.1549 19.8201ZM12.6082 31.1281L9.02943 21.5847H12.7609L16.3397 31.1281H12.6082ZM28.8959 18.0765C28.7762 18.1261 28.6539 18.1686 28.5297 18.2039V11.7593C28.6539 11.7946 28.7762 11.8371 28.8959 11.8867C29.3024 12.0551 29.6717 12.3018 29.9827 12.6129C30.2938 12.9239 30.5405 13.2932 30.7089 13.6996C30.8772 14.1061 30.9639 14.5417 30.9639 14.9816C30.9639 15.4215 30.8772 15.8571 30.7089 16.2635C30.5405 16.6699 30.2938 17.0392 29.9827 17.3503C29.6717 17.6614 29.3024 17.9081 28.8959 18.0765Z" fill="white"/>
</svg>
