<svg width="49" height="49" viewBox="0 0 49 49" fill="none" xmlns="http://www.w3.org/2000/svg">
<circle cx="24.4023" cy="24.2129" r="24" fill="white"/>
<path fill-rule="evenodd" clip-rule="evenodd" d="M24.6626 15.6318C27.5884 15.6318 30.386 17.1664 32.9933 19.6878C33.8827 20.5479 34.6874 21.4663 35.3958 22.385C35.8233 22.9393 36.1268 23.3754 36.293 23.6352L36.6626 24.2132L36.293 24.7912C36.1268 25.051 35.8233 25.4871 35.3958 26.0414C34.6874 26.9601 33.8827 27.8785 32.9933 28.7386C30.386 31.26 27.5884 32.7946 24.6626 32.7946C21.7368 32.7946 18.9392 31.26 16.3319 28.7386C15.4425 27.8785 14.6377 26.9601 13.9294 26.0414C13.5019 25.4871 13.1984 25.051 13.0322 24.7912L12.6626 24.2132L13.0322 23.6352C13.1984 23.3754 13.5019 22.9393 13.9294 22.385C14.6377 21.4663 15.4425 20.5479 16.3319 19.6878C18.9392 17.1664 21.7368 15.6318 24.6626 15.6318ZM33.6971 23.6942C33.0485 22.8531 32.3111 22.0116 31.5021 21.2292C29.2565 19.0576 26.9208 17.7764 24.6628 17.7764C22.4047 17.7764 20.0691 19.0576 17.8235 21.2292C17.0145 22.0116 16.2771 22.8531 15.6285 23.6942C15.4884 23.8759 15.359 24.0492 15.2406 24.2125C15.359 24.3757 15.4884 24.549 15.6285 24.7307C16.2771 25.5718 17.0145 26.4134 17.8235 27.1957C20.0691 29.3673 22.4047 30.6485 24.6628 30.6485C26.9208 30.6485 29.2565 29.3673 31.5021 27.1957C32.3111 26.4134 33.0485 25.5718 33.6971 24.7307C33.8372 24.549 33.9666 24.3757 34.085 24.2125C33.9666 24.0492 33.8372 23.8759 33.6971 23.6942ZM20.3725 24.2126C20.3725 26.5823 22.2935 28.5033 24.6632 28.5033C27.0328 28.5033 28.9538 26.5823 28.9538 24.2126C28.9538 21.8429 27.0328 19.9219 24.6632 19.9219C22.2935 19.9219 20.3725 21.8429 20.3725 24.2126ZM26.8086 24.2126C26.8086 25.3974 25.8481 26.3579 24.6632 26.3579C23.4784 26.3579 22.5179 25.3974 22.5179 24.2126C22.5179 23.0277 23.4784 22.0672 24.6632 22.0672C25.8481 22.0672 26.8086 23.0277 26.8086 24.2126Z" fill="#4048FF"/>
</svg>
