<svg width="36" height="37" viewBox="0 0 36 37" fill="none" xmlns="http://www.w3.org/2000/svg">
<path d="M16.3959 24.5014C16.3959 23.8414 16.9309 23.3063 17.591 23.3063C18.251 23.3063 18.7861 23.8414 18.7861 24.5014C18.7861 25.1614 18.251 25.6965 17.591 25.6965C16.9309 25.6965 16.3959 25.1614 16.3959 24.5014ZM18.32 11.4031C15.8581 11.0446 13.683 12.5623 13.0257 14.7374C12.8106 15.4306 13.3364 16.1357 14.0654 16.1357H14.3044C14.7944 16.1357 15.1888 15.7891 15.3561 15.335C15.7386 14.2713 16.8739 13.5423 18.1049 13.8052C19.2402 14.0443 20.0768 15.1557 19.9812 16.315C19.8617 17.9164 18.0451 18.263 17.0532 19.7568C17.0532 19.7688 17.0412 19.7688 17.0412 19.7808C17.0293 19.8047 17.0173 19.8166 17.0054 19.8405C16.8978 20.0198 16.7903 20.2229 16.7066 20.4381C16.6946 20.4739 16.6707 20.4978 16.6588 20.5337C16.6468 20.5576 16.6468 20.5815 16.6349 20.6173C16.6001 20.7159 16.5681 20.8193 16.5397 20.928C16.3724 21.5665 16.9309 22.1112 17.591 22.1112C18.251 22.1112 18.7591 21.5482 19.054 20.9577C19.0752 20.9151 19.0975 20.8734 19.1207 20.8324C19.1446 20.7966 19.1566 20.7607 19.1805 20.7249C19.2761 20.5576 19.3956 20.4022 19.5151 20.2588C19.527 20.2468 19.539 20.2229 19.5509 20.211C19.6705 20.0676 19.8019 19.9361 19.9453 19.8047C21.0926 18.7171 22.6463 17.8327 22.3236 15.5501C22.0368 13.4706 20.3995 11.7138 18.32 11.4031Z" fill="white"/>
<path fill-rule="evenodd" clip-rule="evenodd" d="M17.6721 30.0649C24.0462 30.0649 29.2134 24.8977 29.2134 18.5237C29.2134 12.1496 24.0462 6.98242 17.6721 6.98242C11.2981 6.98242 6.13086 12.1496 6.13086 18.5237C6.13086 24.8977 11.2981 30.0649 17.6721 30.0649ZM17.6721 32.0649C25.1507 32.0649 31.2134 26.0023 31.2134 18.5237C31.2134 11.045 25.1507 4.98242 17.6721 4.98242C10.1935 4.98242 4.13086 11.045 4.13086 18.5237C4.13086 26.0023 10.1935 32.0649 17.6721 32.0649Z" fill="white"/>
</svg>
