<svg width="25" height="25" viewBox="0 0 25 25" fill="none" xmlns="http://www.w3.org/2000/svg">
<g clip-path="url(#clip0_1330_34335)">
<path d="M12.4999 18.9745C12.9896 18.9745 13.3866 18.5775 13.3866 18.0878C13.3866 17.5981 12.9896 17.2012 12.4999 17.2012C12.0103 17.2012 11.6133 17.5981 11.6133 18.0878C11.6133 18.5775 12.0103 18.9745 12.4999 18.9745Z" fill="#F52079"/>
<path d="M12.5002 15.7884C12.3234 15.7884 12.1538 15.7182 12.0288 15.5931C11.9037 15.4681 11.8335 15.2986 11.8335 15.1217V7.12174C11.8335 6.94493 11.9037 6.77536 12.0288 6.65034C12.1538 6.52532 12.3234 6.45508 12.5002 6.45508C12.677 6.45508 12.8465 6.52532 12.9716 6.65034C13.0966 6.77536 13.1668 6.94493 13.1668 7.12174V15.1217C13.1668 15.2986 13.0966 15.4681 12.9716 15.5931C12.8465 15.7182 12.677 15.7884 12.5002 15.7884Z" fill="#F52079"/>
<path d="M12.5002 23.3822C10.3905 23.3822 8.32821 22.7566 6.57408 21.5845C4.81996 20.4124 3.45279 18.7465 2.64545 16.7975C1.83812 14.8484 1.62688 12.7037 2.03846 10.6345C2.45003 8.56541 3.46594 6.66479 4.9577 5.17303C6.44946 3.68127 8.35007 2.66537 10.4192 2.25379C12.4883 1.84221 14.633 2.05345 16.5821 2.86078C18.5312 3.66812 20.1971 5.03529 21.3692 6.78942C22.5412 8.54354 23.1668 10.6058 23.1668 12.7155C23.1668 15.5445 22.043 18.2576 20.0426 20.258C18.0423 22.2584 15.3291 23.3822 12.5002 23.3822ZM12.5002 3.38217C10.6542 3.38217 8.8497 3.92956 7.31485 4.95512C5.77999 5.98068 4.58371 7.43834 3.87729 9.14379C3.17087 10.8492 2.98604 12.7259 3.34617 14.5363C3.7063 16.3468 4.59521 18.0099 5.9005 19.3152C7.20579 20.6205 8.86884 21.5094 10.6793 21.8695C12.4898 22.2296 14.3664 22.0448 16.0719 21.3384C17.7773 20.632 19.235 19.4357 20.2605 17.9008C21.2861 16.366 21.8335 14.5615 21.8335 12.7155C21.8335 10.2401 20.8502 7.86618 19.0998 6.11584C17.3495 4.3655 14.9755 3.38217 12.5002 3.38217Z" fill="#F52079"/>
</g>
<defs>
<clipPath id="clip0_1330_34335">
<rect width="24" height="24" fill="white" transform="translate(0.5 0.714844)"/>
</clipPath>
</defs>
</svg>
