<svg width="207" height="207" viewBox="0 0 207 207" fill="none" xmlns="http://www.w3.org/2000/svg">
<path d="M58.3887 73.4714C46.0091 74.9791 37.235 86.1984 38.7909 98.5304C39.0781 100.807 39.6977 102.963 40.5946 104.955L29.7936 106.271C17.414 107.778 8.63987 118.998 10.1958 131.33C11.7515 143.662 23.0485 152.436 35.4281 150.929L50.4298 149.101C50.1359 151.079 50.1043 153.129 50.3669 155.211C51.9226 167.543 63.2196 176.317 75.5992 174.81L99.1432 171.942C103.905 177.698 111.425 180.988 119.394 180.017L157.302 175.4C169.681 173.892 178.456 162.673 176.9 150.341C176.073 143.787 172.494 138.237 167.463 134.702C178.484 132.081 185.979 121.57 184.532 110.096C183.034 98.2257 172.51 89.651 160.683 90.3712C161.064 88.2111 161.132 85.9572 160.843 83.665C159.287 71.333 147.99 62.5583 135.611 64.0662L58.3887 73.4714Z" fill="#4048FF"/>
<mask id="mask0" mask-type="alpha" maskUnits="userSpaceOnUse" x="50" y="0" width="157" height="158">
<rect x="50.173" y="0.895996" width="156.287" height="156.287" fill="#C4C4C4"/>
</mask>
<g mask="url(#mask0)">
<g style="mix-blend-mode:screen">
<path fill-rule="evenodd" clip-rule="evenodd" d="M116.525 113.398C123.316 109.347 133.565 118.473 131.959 123.814C142.739 129.378 140.355 146.897 124.883 144.217C127.507 156.234 102.831 156.909 99.883 147.41C93.6895 153.454 80.4946 146.191 83.2684 138.097C74.6193 137.845 70.6387 126.038 74.6677 123.776C66.9513 121.662 66.234 102.853 83.2306 107.591C87.0538 102.192 96.3559 101.715 100.495 110.926C104.121 107.709 115.276 108.387 116.525 113.398Z" fill="#DADBF0"/>
<path fill-rule="evenodd" clip-rule="evenodd" d="M138.384 132.338C139.62 138.932 135.112 145.989 124.883 144.217C127.506 156.234 102.83 156.909 99.8827 147.41C93.6892 153.454 80.4943 146.191 83.268 138.097C74.6189 137.845 70.6384 126.038 74.6674 123.776C68.2737 122.025 66.6858 108.81 75.9976 107.028C66.473 110.323 71.6155 121.838 77.6658 122.053C73.9019 124.166 75.3478 137.881 85.9436 136.509C83.3525 144.07 95.3034 151.783 101.88 144.689C104.633 153.562 126.008 152.26 123.557 141.034C135.326 143.98 137.695 137.622 138.384 132.338Z" fill="#C8D0E8"/>
<g opacity="0.5">
<path opacity="0.5" fill-rule="evenodd" clip-rule="evenodd" d="M112.99 107.784C118.639 103.884 128.588 110.08 127.493 114.799C134.182 117.986 134.949 127.88 121.428 126.45C123.414 133.411 115.599 133.855 110.74 131.189C109.098 133.375 104.339 133.615 102.294 131.199C98.4132 134.333 85.4303 131.039 88.6995 124.455C81.7456 123.966 81.0537 118.433 84.4128 116.241C78.0053 115.136 74.3708 102.273 90.0916 104.024C93.1008 99.1279 100.6 99.7396 103.685 104.795C106.642 101.8 111.637 103.516 112.99 107.784Z" fill="#DADBF0"/>
<path fill-rule="evenodd" clip-rule="evenodd" d="M131.637 118.974C133.675 123.3 130.215 127.885 121.429 126.451C123.415 133.412 115.6 133.856 110.741 131.19C109.099 133.376 104.34 133.616 102.295 131.2C98.4143 134.334 85.4313 131.04 88.7006 124.456C81.7467 123.967 81.0547 118.434 84.414 116.242C78.8439 115.282 75.3725 105.439 84.8852 104.031C77.7248 105.886 79.392 112.128 86.5476 115.913C82.4787 118.986 88.5982 124.615 91.4797 122.076C87.799 128.626 99.1911 131.534 102.197 127.437C105.038 131.402 110.723 131.861 111.24 127.763C117.302 131.528 121.41 129.451 120.363 124.262C126.907 125.242 132.406 125.236 131.637 118.974Z" fill="#C8D0E8"/>
</g>
<g opacity="0.5">
<path fill-rule="evenodd" clip-rule="evenodd" d="M142.153 68.175C138.79 74.8443 109.706 109.159 115.549 114.869C118.683 117.931 117.303 122.122 108.187 121.178C105.392 123.304 94.0624 123.942 95.7946 117.019C88.6328 113.787 92.8357 110.696 97.1859 109.72C98.4387 109.438 99.9056 109.395 101.313 108.641C108.774 104.641 135.153 74.6081 142.153 68.175Z" fill="#DADBF0"/>
<path fill-rule="evenodd" clip-rule="evenodd" d="M124.897 87.9119L124.876 87.9525C120.538 92.8745 109.911 103.299 101.838 109.151C100.58 110.063 99.4142 110.7 97.9815 110.979C92.16 112.11 94.8306 115.834 98.4171 115.718C96.1245 119.631 104.02 123.263 108.821 120.582C114.679 122.892 116.549 119.608 116.799 116.504C119.508 120.702 116.477 125.261 109.285 122.111C106.491 124.236 94.0611 123.943 95.7932 117.019C88.6314 113.788 92.8359 107.893 96.6341 109.255C98.0399 109.758 100.326 108.964 101.968 108.024C109.312 103.823 118.098 94.1606 124.897 87.9119Z" fill="#C8D0E8"/>
</g>
</g>
<path fill-rule="evenodd" clip-rule="evenodd" d="M115.634 102.116C115.655 99.5347 116.681 90.2863 117.498 88.0104L115.388 89.9901C117.045 80.07 119.583 77.7831 127.012 72.4685L139.455 80.5921C136.445 89.4113 135.527 92.693 126.562 97.7929L127.694 95.1304C125.839 96.6808 118.497 100.885 115.634 102.116Z" fill="url(#paint0_linear)"/>
<path fill-rule="evenodd" clip-rule="evenodd" d="M120.245 95.3397C120.26 93.5174 120.985 86.9885 121.56 85.3816L120.071 86.7797C121.241 79.7762 123.032 78.1621 128.277 74.4098L137.061 80.1447C134.937 86.3703 134.289 88.6874 127.96 92.288L128.758 90.4082C127.449 91.502 122.266 94.4707 120.245 95.3397Z" fill="#FF5959"/>
<path fill-rule="evenodd" clip-rule="evenodd" d="M123.58 90.4478C123.591 89.1136 124.121 84.3356 124.543 83.1596L123.453 84.1829C124.308 79.0572 125.62 77.8756 129.458 75.1295L135.887 79.3268C134.332 83.8833 133.858 85.5793 129.226 88.2145L129.811 86.8383C128.853 87.6391 125.059 89.8121 123.58 90.4478Z" fill="#FFDDD2"/>
<path fill-rule="evenodd" clip-rule="evenodd" d="M140.265 86.1876C143.242 83.7836 145.769 81.5231 148.725 79.1533L127.933 65.4448C127.833 64.5074 126.218 64.4075 126.474 63.645C125.202 67.1317 123.911 70.4118 122.811 74.0227C122.309 75.2421 122.403 76.8291 123.215 78.6189C124.35 81.1398 126.449 83.1349 128.65 84.5537C131.971 86.6942 136.623 88.839 140.265 86.1876Z" fill="url(#paint1_linear)"/>
<path fill-rule="evenodd" clip-rule="evenodd" d="M132.504 68.4589L127.933 65.4448C127.833 64.5074 126.218 64.4075 126.474 63.645C125.202 67.1317 123.911 70.4118 122.811 74.0227C122.309 75.2421 122.403 76.8291 123.215 78.6189C124.314 81.0588 126.416 83.1135 128.65 84.5537C131.867 86.6268 136.332 88.7042 139.919 86.4231C135.793 88.0694 129.356 83.8208 127.688 81.5436C129.232 77.0724 130.822 72.7065 132.504 68.4589Z" fill="url(#paint2_linear)"/>
<path fill-rule="evenodd" clip-rule="evenodd" d="M148.113 71.8494C145.67 66.4733 138.864 61.6509 132.91 61.0838C126.957 60.5168 124.111 64.4159 126.555 69.7928C128.996 75.1729 135.805 79.9911 141.758 80.5577C147.712 81.1248 150.557 77.2256 148.113 71.8494Z" fill="#0A3C5F"/>
<path d="M124.425 66.8498L124.426 66.8441C126.493 54.3252 134.356 39.0493 142.851 29.4287C146.557 25.2329 150.764 21.4597 154.951 18.5396C155.901 17.8806 156.84 17.2421 157.802 16.6656C163.877 13.0262 168.637 10.8936 172.293 10.0732C175.945 9.25374 178.358 9.76854 179.928 11.2233C181.535 12.7126 182.448 15.351 182.682 19.2178C182.915 23.0592 182.47 27.9677 181.514 33.8279C181.235 35.2711 180.897 36.7045 180.507 38.1266C179.095 43.2719 177.012 48.4028 174.403 53.1676C168.478 63.984 158.203 75.5493 148.288 81.7191L148.288 81.7192L148.286 81.7205C147.298 82.3357 145.881 83.219 144.699 83.8009L144.699 83.8009C143.193 84.5432 141.854 84.7835 140.062 84.677C137.092 84.4882 133.865 83.2038 131.066 81.2076C128.268 79.2122 125.955 76.5461 124.763 73.6571C124.279 72.4648 124.133 71.5407 124.099 70.549C124.063 69.4646 124.172 68.3073 124.425 66.8498Z" fill="#DADBF0" stroke="#4048FF" stroke-width="1.42564"/>
<path fill-rule="evenodd" clip-rule="evenodd" d="M158.104 14.9011C154.788 16.7246 151.152 19.4556 148.437 21.8648C146.186 23.8619 144.054 26.0307 142.126 28.3459C134.747 37.2017 128.37 50.2635 126.879 61.2806C126.679 62.6657 126.608 63.7972 126.687 64.8787C127.044 69.7645 131.787 74.3184 135.749 76.6651C138.249 78.1458 140.963 79.1318 143.502 79.3776C145.354 79.5492 146.125 79.5354 148.328 78.6788C142.232 79.9556 134.908 75.0096 131.491 70.3243C136.226 53.0505 143.706 37.5727 156.066 27.7777C157.221 29.1585 167.952 39.0356 176.643 36.3043L158.368 15.206C158.863 14.8999 159.363 14.6031 159.871 14.3236C163.562 12.2937 166.781 10.7998 169.574 9.80723C166.396 10.7513 162.601 12.4276 158.104 14.9011Z" fill="#C2BEDB"/>
<path fill-rule="evenodd" clip-rule="evenodd" d="M183.329 30.6514C184.308 23.6873 184.674 14.9039 182.405 8.21031C182.36 8.07944 182.307 7.92556 182.254 7.77167C182.215 7.65835 182.113 7.33699 181.897 7.18932C181.693 7.04951 181.376 7.07926 181.234 7.08212C173.783 7.23464 165.068 10.6848 158.799 14.3399C158.4 14.5725 158.018 14.824 157.727 15.0838C155.964 16.6034 155.594 18.8909 156.036 21.1209C156.46 23.2682 157.626 25.3484 158.886 26.9956C159.056 27.2313 159.236 27.4659 159.422 27.698C162.916 32.0456 169.054 35.6219 174.185 36.3021C176.071 36.5522 178.03 36.4706 179.692 35.7961C180.51 35.464 181.258 34.9807 181.879 34.2919C182.279 33.8484 182.622 33.3348 182.831 32.8162C183.109 32.1305 183.228 31.3692 183.329 30.6514Z" fill="url(#paint3_linear)"/>
<path fill-rule="evenodd" clip-rule="evenodd" d="M181.966 7.24543C181.944 7.22475 181.921 7.20564 181.897 7.18932C181.693 7.04951 181.376 7.07926 181.234 7.08212C173.783 7.23464 165.068 10.6848 158.799 14.3399C158.4 14.5725 158.018 14.824 157.727 15.0838C155.964 16.6034 155.594 18.8909 156.036 21.1209C156.042 21.1517 156.047 21.1818 156.054 21.2125L156.059 21.2364L156.076 21.3125L156.079 21.3292C156.093 21.3923 156.107 21.455 156.122 21.518L156.126 21.5327C156.133 21.5621 156.14 21.591 156.147 21.6207L156.148 21.6243C156.157 21.657 156.165 21.6891 156.174 21.7215L156.174 21.7233C156.19 21.7863 156.208 21.8498 156.226 21.913L156.231 21.9308C156.257 22.0257 156.286 22.1204 156.315 22.2146L156.319 22.2275C156.329 22.2575 156.338 22.2868 156.348 22.3169L156.348 22.3198C156.38 22.4182 156.414 22.516 156.448 22.6136L156.448 22.6156C156.483 22.7133 156.518 22.8098 156.555 22.9066L156.556 22.9101C156.581 22.9742 156.606 23.038 156.631 23.1016L156.633 23.1063L156.669 23.1949L156.672 23.2044C156.75 23.395 156.832 23.583 156.918 23.7702L156.923 23.7816L156.96 23.861L156.967 23.8762C156.995 23.9348 157.022 23.9924 157.051 24.0507L157.061 24.0724L157.094 24.1387L157.105 24.1601C157.134 24.2188 157.164 24.2766 157.193 24.3347L157.2 24.3473L157.238 24.4224L157.247 24.4393L157.28 24.5031L157.295 24.53L157.337 24.6084L157.35 24.633L157.381 24.6915L157.398 24.7221L157.438 24.7932L157.441 24.7995L157.49 24.8865L157.497 24.8997L157.538 24.9716L157.548 24.988L157.586 25.0557L157.599 25.0761L157.641 25.1483L157.668 25.193L157.688 25.2279L157.713 25.2692L157.743 25.3195L157.757 25.3424L157.801 25.4148L157.817 25.4412L157.852 25.4979L157.874 25.5327L157.899 25.5735L157.926 25.6166L157.951 25.6575L157.971 25.6882L158.013 25.7539C158.293 26.1892 158.587 26.6045 158.886 26.996C159.057 27.2317 159.236 27.4663 159.423 27.6984C162.916 32.0463 169.055 35.6222 174.186 36.3025C176.031 36.5475 178.158 36.4915 179.914 35.7034C177.203 36.2357 166.869 36.7189 159.572 24.0618C165.878 17.6399 173.104 12.1673 181.966 7.24543Z" fill="#1E2136"/>
<path fill-rule="evenodd" clip-rule="evenodd" d="M160.781 37.6138C165.766 41.0678 167.074 47.8196 163.697 52.6942C160.319 57.5685 153.541 58.7132 148.555 55.2586C143.567 51.8019 142.257 45.0532 145.634 40.1789C149.012 35.3047 155.793 34.1567 160.781 37.6138Z" fill="#B5B0D2"/>
<path fill-rule="evenodd" clip-rule="evenodd" d="M150.622 52.2745C147.391 50.0355 146.583 45.6094 148.818 42.3834C151.054 39.1575 155.484 38.3548 158.715 40.5936C161.943 42.83 162.749 47.2607 160.513 50.4863C158.278 53.7127 153.85 54.5108 150.622 52.2745ZM160.534 37.9697C155.854 34.7266 149.431 35.8848 146.19 40.562C142.952 45.236 144.121 51.6592 148.801 54.9023C153.479 58.1433 159.904 56.9815 163.141 52.3075C166.383 47.6298 165.211 41.2104 160.534 37.9697Z" fill="#EAE7F4"/>
<path fill-rule="evenodd" clip-rule="evenodd" d="M150.623 52.2765C153.841 54.5061 158.287 53.7029 160.514 50.4884C162.744 47.2705 161.934 42.8254 158.716 40.5956C155.496 38.3642 151.049 39.167 148.819 42.3855C146.592 45.5993 147.402 50.0449 150.623 52.2765Z" fill="url(#paint4_linear)"/>
<path fill-rule="evenodd" clip-rule="evenodd" d="M158.716 40.5959C161.944 42.8324 162.75 47.263 160.514 50.4887C160.261 50.8549 159.979 51.1891 159.672 51.4948C161.044 48.4282 160.087 44.7252 157.228 42.7439C154.366 40.761 150.561 41.1646 148.177 43.5301C148.351 43.1327 148.566 42.7515 148.819 42.3856C151.055 39.1598 155.485 38.3569 158.716 40.5959Z" fill="#0A3C5F"/>
<path fill-rule="evenodd" clip-rule="evenodd" d="M158.997 40.1866C159.34 40.424 159.808 40.3404 160.045 39.9986C160.285 39.6522 160.198 39.1845 159.856 38.9475C159.511 38.7081 159.042 38.7911 158.802 39.1375C158.565 39.4799 158.652 39.9477 158.997 40.1866Z" fill="#1466A0"/>
<path fill-rule="evenodd" clip-rule="evenodd" d="M149.478 53.9282C149.819 54.1654 150.291 54.0787 150.528 53.7365C150.765 53.3945 150.681 52.9221 150.339 52.6851C149.994 52.446 149.522 52.5327 149.285 52.8756C149.047 53.217 149.132 53.6888 149.478 53.9282Z" fill="#1466A0"/>
<path fill-rule="evenodd" clip-rule="evenodd" d="M162.164 51.6338C161.926 51.9759 161.455 52.0632 161.11 51.8241C160.767 51.5869 160.68 51.1129 160.917 50.77C161.154 50.428 161.631 50.3397 161.973 50.5767C162.319 50.8159 162.4 51.2918 162.164 51.6338Z" fill="#1466A0"/>
<path fill-rule="evenodd" clip-rule="evenodd" d="M148.409 42.1032C148.172 42.4456 147.697 42.5304 147.355 42.2932C147.01 42.054 146.926 41.5824 147.162 41.2399C147.399 40.8973 147.873 40.8066 148.219 41.0464C148.561 41.2834 148.646 41.7616 148.409 42.1032Z" fill="#1466A0"/>
<path fill-rule="evenodd" clip-rule="evenodd" d="M163.639 44.811C163.713 45.2237 163.441 45.6167 163.031 45.6877C162.621 45.7656 162.225 45.4909 162.15 45.078C162.076 44.6706 162.349 44.2778 162.758 44.2004C163.168 44.13 163.564 44.4045 163.639 44.811Z" fill="#1466A0"/>
<path fill-rule="evenodd" clip-rule="evenodd" d="M147.182 47.7916C147.253 48.2025 146.983 48.5918 146.574 48.6687C146.161 48.7437 145.764 48.4693 145.693 48.0589C145.618 47.6462 145.888 47.2567 146.301 47.1817C146.71 47.1036 147.107 47.3787 147.182 47.7916Z" fill="#1466A0"/>
<path fill-rule="evenodd" clip-rule="evenodd" d="M156.297 55.4063C155.887 55.4841 155.491 55.2096 155.416 54.7963C155.344 54.3857 155.614 53.9964 156.023 53.919C156.437 53.8444 156.833 54.1189 156.904 54.5289C156.979 54.9417 156.71 55.3313 156.297 55.4063Z" fill="#1466A0"/>
<path fill-rule="evenodd" clip-rule="evenodd" d="M153.306 38.951C152.893 39.0264 152.497 38.7515 152.425 38.3411C152.348 37.9324 152.621 37.5393 153.033 37.4639C153.44 37.3905 153.837 37.6656 153.914 38.0743C153.986 38.4849 153.713 38.8785 153.306 38.951Z" fill="#1466A0"/>
<path fill-rule="evenodd" clip-rule="evenodd" d="M149.426 77.4935L149.813 77.2898L149.393 77.5098L149.426 77.4935Z" fill="#828388"/>
<path fill-rule="evenodd" clip-rule="evenodd" d="M160.248 68.8797L156.104 68.5406C151.515 85.6906 145.413 93.379 137.253 105.629L141.402 105.962L141.398 105.958C145.89 100.607 151.397 95.349 155.038 89.5041C156.662 86.8991 157.945 84.1573 158.837 81.0608C159.98 77.0962 160.357 73.1445 160.248 68.8797Z" fill="url(#paint5_linear)"/>
<path fill-rule="evenodd" clip-rule="evenodd" d="M156.106 68.5398L143.541 80.2121C142.709 87.6981 140.819 96.0325 137.256 105.628C146.894 94.1493 156.592 87.3484 156.106 68.5398Z" fill="#1E2136"/>
<path fill-rule="evenodd" clip-rule="evenodd" d="M131.69 49.0891L133.463 52.85C119.018 63.1711 113.963 71.584 105.36 83.5277L103.591 79.7598L103.597 79.7625C107.029 73.6764 110.017 66.6744 114.21 61.2114C116.079 58.7767 118.195 56.6124 120.781 54.6893C124.091 52.2261 127.658 50.4846 131.69 49.0891Z" fill="url(#paint6_linear)"/>
<path fill-rule="evenodd" clip-rule="evenodd" d="M133.465 52.8498L126.95 68.714C120.233 72.1231 113.094 76.8204 105.363 83.5271C112.723 70.4706 115.684 59.0023 133.465 52.8498Z" fill="#1E2136"/>
<g style="mix-blend-mode:soft-light">
<path d="M159.217 47.2471L152.742 43.0457C153.933 42.3944 155.532 42.3437 156.803 43.1685C157.592 43.6807 158.115 44.4603 158.384 45.2825L159.411 45.9489C159.258 44.5545 158.484 43.3063 157.238 42.4978C155.291 41.2345 152.792 41.5242 151.185 43.1361L151.226 43.163L154.126 45.0443L153.505 46.0011L150.498 44.0498L150.025 44.7788L153.032 46.7301L150.992 49.8739L151.721 50.347L153.761 47.2031L154.353 47.5875L152.313 50.7313L153.088 51.2339L155.128 48.0901L157.144 49.3985L157.26 49.474L157.863 49.8651C158.096 49.6278 158.313 49.357 158.498 49.0712C158.865 48.5038 159.102 47.8846 159.217 47.2471ZM154.826 46.8585L154.234 46.4741L154.855 45.5173L155.447 45.9017L154.826 46.8585ZM155.601 47.3611L156.222 46.4043L158.223 47.7033C158.153 47.9816 157.973 48.3517 157.777 48.6556C157.758 48.684 157.752 48.6923 157.722 48.7374L155.601 47.3611Z" fill="white"/>
<path d="M159.217 47.2471L152.742 43.0457C153.933 42.3944 155.532 42.3437 156.803 43.1685C157.592 43.6807 158.115 44.4603 158.384 45.2825L159.411 45.9489C159.258 44.5545 158.484 43.3063 157.238 42.4978C155.291 41.2345 152.792 41.5242 151.185 43.1361L151.226 43.163L154.126 45.0443L153.505 46.0011L150.498 44.0498L150.025 44.7788L153.032 46.7301L150.992 49.8739L151.721 50.347L153.761 47.2031L154.353 47.5875L152.313 50.7313L153.088 51.2339L155.128 48.0901L157.144 49.3985L157.26 49.474L157.863 49.8651C158.096 49.6278 158.313 49.357 158.498 49.0712C158.865 48.5038 159.102 47.8846 159.217 47.2471ZM154.826 46.8585L154.234 46.4741L154.855 45.5173L155.447 45.9017L154.826 46.8585ZM155.601 47.3611L156.222 46.4043L158.223 47.7033C158.153 47.9816 157.973 48.3517 157.777 48.6556C157.758 48.684 157.752 48.6923 157.722 48.7374L155.601 47.3611Z" fill="white"/>
<path d="M158.175 40.9249C155.119 38.9419 151.019 39.8148 149.037 42.8708C147.053 45.9268 147.926 50.0264 150.982 52.0095C154.038 53.9925 158.138 53.1194 160.121 50.0634C162.104 47.0075 161.231 42.9079 158.175 40.9249ZM151.485 51.2353C148.856 49.5292 148.105 46.0023 149.811 43.3732C151.517 40.7441 155.044 39.9931 157.673 41.6991C160.302 43.4051 161.053 46.932 159.347 49.561C157.641 52.1902 154.114 52.9413 151.485 51.2353Z" fill="white"/>
</g>
<g style="mix-blend-mode:soft-light">
<path d="M159.234 47.2117L152.732 42.9924C153.928 42.3383 155.533 42.2874 156.81 43.1156C157.603 43.6301 158.128 44.4129 158.398 45.2387L159.429 45.9079C159.276 44.5075 158.498 43.254 157.247 42.442C155.292 41.1734 152.782 41.4643 151.168 43.0831L151.21 43.1101L154.121 44.9994L153.498 45.9603L150.478 44.0007L150.003 44.7328L153.023 46.6924L150.974 49.8497L151.706 50.3248L153.755 47.1675L154.35 47.5535L152.301 50.7107L153.079 51.2155L155.128 48.0582L157.153 49.3722L157.269 49.448L157.875 49.8408C158.109 49.6025 158.327 49.3306 158.513 49.0435C158.881 48.4737 159.118 47.8518 159.234 47.2117ZM154.825 46.8214L154.23 46.4354L154.853 45.4745L155.448 45.8605L154.825 46.8214ZM155.603 47.3261L156.226 46.3652L158.237 47.6698C158.166 47.9493 157.985 48.3209 157.788 48.6261C157.769 48.6547 157.763 48.663 157.733 48.7083L155.603 47.3261Z" fill="white"/>
<path d="M159.234 47.2117L152.732 42.9924C153.928 42.3383 155.533 42.2874 156.81 43.1156C157.603 43.6301 158.128 44.4129 158.398 45.2387L159.429 45.9079C159.276 44.5075 158.498 43.254 157.247 42.442C155.292 41.1734 152.782 41.4643 151.168 43.0831L151.21 43.1101L154.121 44.9994L153.498 45.9603L150.478 44.0007L150.003 44.7328L153.023 46.6924L150.974 49.8497L151.706 50.3248L153.755 47.1675L154.35 47.5535L152.301 50.7107L153.079 51.2155L155.128 48.0582L157.153 49.3722L157.269 49.448L157.875 49.8408C158.109 49.6025 158.327 49.3306 158.513 49.0435C158.881 48.4737 159.118 47.8518 159.234 47.2117ZM154.825 46.8214L154.23 46.4354L154.853 45.4745L155.448 45.8605L154.825 46.8214ZM155.603 47.3261L156.226 46.3652L158.237 47.6698C158.166 47.9493 157.985 48.3209 157.788 48.6261C157.769 48.6547 157.763 48.663 157.733 48.7083L155.603 47.3261Z" fill="white"/>
<path d="M158.19 40.8621C155.121 38.8707 151.004 39.7473 149.012 42.8163C147.021 45.8854 147.898 50.0025 150.967 51.994C154.036 53.9855 158.153 53.1087 160.144 50.0396C162.136 46.9706 161.259 42.8536 158.19 40.8621ZM151.471 51.2165C148.831 49.5032 148.077 45.9612 149.79 43.3208C151.503 40.6805 155.045 39.9263 157.686 41.6396C160.326 43.3529 161.08 46.8948 159.367 49.5351C157.653 52.1755 154.112 52.9297 151.471 51.2165Z" fill="white"/>
</g>
<g style="mix-blend-mode:soft-light">
<path d="M158.211 40.8734C155.142 38.8819 151.025 39.7585 149.034 42.8275C147.042 45.8966 147.919 50.0137 150.988 52.0052C154.057 53.9967 158.174 53.1199 160.166 50.0508C162.157 46.9819 161.28 42.8648 158.211 40.8734ZM151.492 51.2277C148.852 49.5144 148.098 45.9724 149.811 43.3321C151.524 40.6918 155.066 39.9375 157.707 41.6508C160.347 43.3641 161.101 46.906 159.388 49.5463C157.675 52.1868 154.133 52.941 151.492 51.2277Z" fill="white"/>
</g>
<circle cx="84.8435" cy="92.8988" r="2.34124" transform="rotate(15.4975 84.8435 92.8988)" fill="#4048FF"/>
<circle cx="67.308" cy="86.5548" r="3.66524" transform="rotate(15.4975 67.308 86.5548)" fill="#FB6C77"/>
<circle cx="75.1399" cy="93.8242" r="3.78618" transform="rotate(15.4975 75.1399 93.8242)" fill="#4048FF"/>
<path d="M74.6915 95.3504L74.3831 95.4588C74.2512 95.5053 74.1051 95.4353 74.0587 95.3033L73.6382 94.108C73.5917 93.9761 73.6617 93.8299 73.7937 93.7835L74.102 93.6751C74.2339 93.6286 74.38 93.6986 74.4265 93.8305L74.847 95.0259C74.8934 95.1578 74.8237 95.3039 74.6915 95.3504Z" fill="white"/>
<path d="M76.3505 93.1548C76.4293 93.0831 76.4624 92.9682 76.4247 92.8618C76.3748 92.7198 76.2177 92.6446 76.0762 92.6945L75.3427 92.9525C75.3387 92.8967 75.3876 92.6329 75.3987 92.5398C75.4085 92.4598 75.3905 92.3767 75.3634 92.3009C75.3299 92.2056 75.2758 92.1171 75.2059 92.0433C75.1104 91.9424 74.9783 91.8483 74.8385 91.9281C74.7142 91.9991 74.6786 92.1743 74.7698 92.2855C74.7698 92.2855 74.8345 92.3693 74.8408 92.4058C74.8494 92.4523 74.8134 92.5459 74.7728 92.667C74.6913 92.909 74.5869 93.2307 74.5678 93.3421C74.5459 93.4706 74.5482 93.5627 74.572 93.6596C74.5724 93.6791 74.5759 93.6988 74.5829 93.7182L74.9661 94.8081C75.0017 94.9085 75.1125 94.9619 75.2129 94.9265L76.5025 94.4764C76.6342 94.4302 76.7037 94.2847 76.6577 94.153C76.6386 94.0995 76.6035 94.0566 76.5595 94.0271C76.6364 93.9609 76.669 93.8518 76.6336 93.7512C76.6123 93.691 76.5702 93.644 76.5184 93.6148C76.5867 93.5425 76.6138 93.4355 76.5788 93.3356C76.5426 93.2335 76.4517 93.1664 76.3505 93.1548Z" fill="white"/>
<circle cx="80.2543" cy="108.263" r="3.08345" transform="rotate(15.4975 80.2543 108.263)" fill="#4048FF"/>
<path d="M79.8897 109.507L79.6386 109.595C79.5312 109.633 79.4122 109.576 79.3743 109.468L79.0319 108.495C78.9941 108.387 79.0511 108.268 79.1585 108.231L79.4096 108.142C79.5171 108.104 79.6361 108.161 79.6739 108.269L80.0163 109.242C80.0542 109.35 79.9974 109.469 79.8897 109.507Z" fill="white"/>
<path d="M81.24 107.718C81.3042 107.659 81.3312 107.566 81.3005 107.479C81.2599 107.364 81.1319 107.302 81.0167 107.343L80.4193 107.553C80.4161 107.508 80.4559 107.293 80.4649 107.217C80.4729 107.152 80.4582 107.084 80.4362 107.022C80.4089 106.945 80.3648 106.873 80.3079 106.813C80.2302 106.73 80.1225 106.654 80.0087 106.719C79.9075 106.777 79.8785 106.919 79.9527 107.01C79.9527 107.01 80.0054 107.078 80.0106 107.108C80.0176 107.146 79.9882 107.222 79.9552 107.321C79.8888 107.518 79.8038 107.78 79.7882 107.87C79.7704 107.975 79.7723 108.05 79.7917 108.129C79.792 108.145 79.7948 108.161 79.8005 108.177L80.1126 109.064C80.1416 109.146 80.2319 109.19 80.3136 109.161L81.3639 108.794C81.4711 108.756 81.5277 108.638 81.4902 108.531C81.4747 108.487 81.4461 108.452 81.4103 108.428C81.4729 108.374 81.4995 108.286 81.4706 108.204C81.4533 108.155 81.419 108.116 81.3768 108.092C81.4324 108.034 81.4545 107.946 81.426 107.865C81.3965 107.782 81.3225 107.727 81.24 107.718Z" fill="white"/>
<circle cx="100.991" cy="110.814" r="4.58939" transform="rotate(15.4975 100.991 110.814)" fill="#4048FF"/>
<path d="M100.45 112.663L100.076 112.794C99.9164 112.85 99.7393 112.766 99.683 112.606L99.1733 111.157C99.117 110.997 99.2018 110.82 99.3618 110.763L99.7355 110.632C99.8955 110.576 100.073 110.66 100.129 110.82L100.639 112.269C100.695 112.429 100.61 112.606 100.45 112.663Z" fill="white"/>
<path d="M102.459 110.001C102.555 109.914 102.595 109.774 102.549 109.645C102.489 109.473 102.298 109.382 102.127 109.443L101.237 109.755C101.233 109.688 101.292 109.368 101.305 109.255C101.317 109.158 101.295 109.057 101.263 108.966C101.222 108.85 101.156 108.743 101.072 108.653C100.956 108.531 100.796 108.417 100.626 108.514C100.476 108.6 100.432 108.812 100.543 108.947C100.543 108.947 100.621 109.048 100.629 109.093C100.639 109.149 100.596 109.262 100.547 109.409C100.448 109.703 100.321 110.093 100.298 110.228C100.272 110.383 100.274 110.495 100.303 110.612C100.304 110.636 100.308 110.66 100.316 110.683L100.781 112.005C100.824 112.126 100.958 112.191 101.08 112.148L102.643 111.602C102.803 111.546 102.887 111.37 102.831 111.211C102.808 111.146 102.766 111.094 102.712 111.058C102.806 110.978 102.845 110.845 102.802 110.723C102.776 110.65 102.725 110.593 102.663 110.558C102.745 110.47 102.778 110.341 102.736 110.22C102.692 110.096 102.582 110.015 102.459 110.001Z" fill="white"/>
<circle cx="88.7241" cy="101.082" r="1.90646" transform="rotate(15.4975 88.7241 101.082)" fill="#4048FF"/>
<path d="M88.5021 101.852L88.3468 101.907C88.2804 101.93 88.2068 101.895 88.1834 101.828L87.9717 101.226C87.9483 101.16 87.9835 101.086 88.05 101.063L88.2052 101.008C88.2717 100.985 88.3452 101.02 88.3686 101.087L88.5803 101.689C88.6037 101.755 88.5686 101.829 88.5021 101.852Z" fill="white"/>
<path d="M89.3374 100.746C89.3771 100.71 89.3938 100.652 89.3749 100.599C89.3497 100.527 89.2706 100.49 89.1994 100.515L88.83 100.645C88.828 100.616 88.8526 100.484 88.8582 100.437C88.8631 100.396 88.8541 100.355 88.8404 100.317C88.8235 100.268 88.7963 100.224 88.7611 100.187C88.7131 100.136 88.6465 100.089 88.5761 100.129C88.5135 100.165 88.4956 100.253 88.5415 100.309C88.5415 100.309 88.5741 100.351 88.5773 100.369C88.5816 100.393 88.5635 100.44 88.5431 100.501C88.502 100.623 88.4495 100.785 88.4398 100.841C88.4288 100.905 88.4299 100.952 88.442 101.001C88.4422 101.01 88.4439 101.02 88.4474 101.03L88.6404 101.579C88.6583 101.629 88.7141 101.656 88.7647 101.639L89.414 101.412C89.4803 101.389 89.5153 101.315 89.4921 101.249C89.4825 101.222 89.4649 101.201 89.4427 101.186C89.4814 101.152 89.4979 101.097 89.48 101.047C89.4693 101.016 89.4481 100.993 89.422 100.978C89.4564 100.942 89.47 100.888 89.4524 100.837C89.4342 100.786 89.3884 100.752 89.3374 100.746Z" fill="white"/>
<circle cx="75.8143" cy="80.0992" r="2.38265" transform="rotate(15.4975 75.8143 80.0992)" fill="#4048FF"/>
<path d="M75.5308 81.0592L75.3367 81.1274C75.2537 81.1567 75.1617 81.1126 75.1325 81.0296L74.8679 80.2774C74.8387 80.1943 74.8827 80.1024 74.9657 80.0732L75.1598 80.0049C75.2428 79.9757 75.3348 80.0197 75.364 80.1028L75.6286 80.855C75.6578 80.938 75.6139 81.03 75.5308 81.0592Z" fill="white"/>
<path d="M76.5737 79.678C76.6232 79.6329 76.6441 79.5606 76.6204 79.4936C76.589 79.4043 76.4901 79.3569 76.4011 79.3884L75.9394 79.5507C75.937 79.5156 75.9677 79.3496 75.9747 79.291C75.9809 79.2407 75.9695 79.1884 75.9525 79.1407C75.9314 79.0807 75.8974 79.025 75.8534 78.9786C75.7933 78.9151 75.7101 78.8558 75.6222 78.9061C75.5439 78.9508 75.5216 79.061 75.5789 79.131C75.5789 79.131 75.6196 79.1837 75.6236 79.2067C75.629 79.2359 75.6064 79.2949 75.5808 79.3711C75.5296 79.5233 75.4639 79.7258 75.4518 79.7959C75.438 79.8767 75.4395 79.9347 75.4545 79.9957C75.4547 80.008 75.4569 80.0204 75.4613 80.0326L75.7024 80.7185C75.7249 80.7817 75.7946 80.8152 75.8578 80.793L76.6693 80.5097C76.7522 80.4806 76.7959 80.3891 76.767 80.3062C76.755 80.2725 76.7329 80.2455 76.7052 80.227C76.7536 80.1853 76.7741 80.1167 76.7519 80.0534C76.7385 80.0154 76.7119 79.9859 76.6793 79.9675C76.7223 79.922 76.7394 79.8547 76.7174 79.7918C76.6946 79.7276 76.6374 79.6853 76.5737 79.678Z" fill="white"/>
<path d="M84.5664 93.8422L84.3757 93.9092C84.2942 93.9379 84.2038 93.8947 84.1751 93.8131L83.9151 93.0739C83.8864 92.9923 83.9296 92.902 84.0112 92.8733L84.2019 92.8062C84.2835 92.7775 84.3738 92.8208 84.4025 92.9023L84.6625 93.6415C84.6913 93.7231 84.6481 93.8135 84.5664 93.8422Z" fill="white"/>
<path d="M85.5924 92.4844C85.6411 92.4401 85.6616 92.369 85.6383 92.3032C85.6074 92.2154 85.5103 92.1689 85.4228 92.1998L84.9692 92.3593C84.9668 92.3248 84.997 92.1617 85.0039 92.1041C85.0099 92.0547 84.9988 92.0033 84.982 91.9564C84.9613 91.8975 84.9278 91.8428 84.8846 91.7971C84.8256 91.7347 84.7439 91.6765 84.6574 91.7259C84.5806 91.7698 84.5586 91.8781 84.6149 91.9469C84.6149 91.9469 84.6549 91.9987 84.6588 92.0213C84.6642 92.05 84.6419 92.1079 84.6168 92.1828C84.5664 92.3324 84.5019 92.5314 84.49 92.6003C84.4765 92.6797 84.4779 92.7366 84.4927 92.7966C84.4929 92.8087 84.495 92.8208 84.4993 92.8328L84.7363 93.5068C84.7583 93.5689 84.8269 93.6019 84.889 93.58L85.6864 93.3016C85.7678 93.2731 85.8108 93.1831 85.7823 93.1017C85.7706 93.0686 85.7489 93.0421 85.7216 93.0238C85.7692 92.9829 85.7894 92.9154 85.7675 92.8532C85.7543 92.816 85.7282 92.7869 85.6962 92.7688C85.7384 92.7242 85.7552 92.658 85.7336 92.5962C85.7112 92.5331 85.655 92.4916 85.5924 92.4844Z" fill="white"/>
<path d="M66.3952 85.5165C66.9262 85.3771 67.2529 85.7851 67.3647 85.9584C67.4441 85.768 67.6938 85.309 68.2407 85.3526C69.0322 85.4156 69.2248 86.3986 68.5697 87.1674C67.9275 87.9209 67.5531 88.0959 67.5531 88.0959C67.5531 88.0959 67.1568 87.9891 66.3915 87.3609C65.6107 86.7198 65.6273 85.7184 66.3952 85.5165Z" fill="white"/>
<circle cx="96.8304" cy="95.8371" r="3.66524" transform="rotate(58.9755 96.8304 95.8371)" fill="#FB6C77"/>
<path d="M96.7467 94.3863C97.228 94.6505 97.1843 95.1714 97.1462 95.3741C97.3348 95.2905 97.8319 95.1293 98.1987 95.5372C98.7297 96.1276 98.1931 96.9734 97.1887 97.0805C96.2042 97.1853 95.8121 97.0548 95.8121 97.0548C95.8121 97.0548 95.598 96.7046 95.475 95.7221C95.3495 94.7197 96.0506 94.0044 96.7467 94.3863Z" fill="white"/>
<circle cx="68.8231" cy="102.033" r="1.63385" transform="rotate(58.9755 68.8231 102.033)" fill="#FB6C77"/>
<path d="M68.7844 101.386C68.999 101.504 68.9795 101.736 68.9625 101.827C69.0466 101.789 69.2682 101.718 69.4317 101.899C69.6684 102.163 69.4292 102.54 68.9814 102.587C68.5426 102.634 68.3678 102.576 68.3678 102.576C68.3678 102.576 68.2724 102.42 68.2176 101.982C68.1616 101.535 68.4741 101.216 68.7844 101.386Z" fill="white"/>
<circle cx="102.242" cy="89.586" r="1.63385" transform="rotate(58.9755 102.242 89.586)" fill="#FB6C77"/>
<path d="M102.204 88.9392C102.419 89.0569 102.399 89.2891 102.382 89.3795C102.466 89.3422 102.688 89.2703 102.851 89.4522C103.088 89.7154 102.849 90.0924 102.401 90.1401C101.962 90.1869 101.788 90.1287 101.788 90.1287C101.788 90.1287 101.692 89.9726 101.637 89.5346C101.581 89.0878 101.894 88.7689 102.204 88.9392Z" fill="white"/>
<g filter="url(#filter0_f)">
<circle cx="88.2183" cy="84.3954" r="1.62756" transform="rotate(31.0419 88.2183 84.3954)" fill="#FB6C77"/>
<path d="M87.8818 83.8446C88.1256 83.8481 88.2168 84.0616 88.244 84.149C88.3006 84.077 88.4621 83.9103 88.6908 83.9941C89.022 84.1153 88.9874 84.5587 88.6156 84.8096C88.2512 85.0555 88.0702 85.0859 88.0702 85.0859C88.0702 85.0859 87.9134 84.993 87.6608 84.6332C87.403 84.266 87.5293 83.8396 87.8818 83.8446Z" fill="white"/>
</g>
<circle cx="142.851" cy="121.658" r="2.34124" transform="rotate(15.4975 142.851 121.658)" fill="#4048FF"/>
<circle cx="125.316" cy="115.314" r="3.66524" transform="rotate(15.4975 125.316 115.314)" fill="#FB6C77"/>
<circle cx="133.148" cy="122.584" r="3.78618" transform="rotate(15.4975 133.148 122.584)" fill="#4048FF"/>
<path d="M132.699 124.109L132.391 124.218C132.259 124.264 132.113 124.194 132.067 124.062L131.646 122.867C131.6 122.735 131.67 122.589 131.802 122.542L132.11 122.434C132.242 122.387 132.388 122.457 132.434 122.589L132.855 123.785C132.901 123.917 132.832 124.063 132.699 124.109Z" fill="white"/>
<path d="M134.359 121.914C134.438 121.842 134.471 121.727 134.433 121.621C134.383 121.479 134.226 121.403 134.085 121.453L133.351 121.711C133.347 121.655 133.396 121.392 133.407 121.299C133.417 121.219 133.399 121.136 133.372 121.06C133.338 120.964 133.284 120.876 133.214 120.802C133.119 120.701 132.987 120.607 132.847 120.687C132.723 120.758 132.687 120.933 132.778 121.044C132.778 121.044 132.843 121.128 132.849 121.165C132.858 121.211 132.822 121.305 132.781 121.426C132.7 121.668 132.595 121.99 132.576 122.101C132.554 122.229 132.557 122.321 132.581 122.418C132.581 122.438 132.584 122.458 132.591 122.477L132.975 123.567C133.01 123.667 133.121 123.721 133.221 123.685L134.511 123.235C134.643 123.189 134.712 123.044 134.666 122.912C134.647 122.858 134.612 122.815 134.568 122.786C134.645 122.72 134.678 122.611 134.642 122.51C134.621 122.45 134.579 122.403 134.527 122.374C134.595 122.301 134.622 122.194 134.587 122.094C134.551 121.992 134.46 121.925 134.359 121.914Z" fill="white"/>
<circle cx="138.262" cy="137.022" r="3.08345" transform="rotate(15.4975 138.262 137.022)" fill="#4048FF"/>
<path d="M137.897 138.265L137.646 138.354C137.539 138.392 137.42 138.335 137.382 138.227L137.04 137.254C137.002 137.146 137.059 137.027 137.166 136.989L137.417 136.901C137.525 136.863 137.644 136.92 137.682 137.028L138.024 138.001C138.062 138.109 138.005 138.228 137.897 138.265Z" fill="white"/>
<path d="M139.248 136.477C139.312 136.418 139.339 136.325 139.308 136.238C139.268 136.122 139.14 136.061 139.024 136.102L138.427 136.312C138.424 136.266 138.463 136.052 138.473 135.976C138.481 135.911 138.466 135.843 138.444 135.781C138.417 135.704 138.372 135.632 138.316 135.571C138.238 135.489 138.13 135.413 138.016 135.478C137.915 135.535 137.886 135.678 137.96 135.769C137.96 135.769 138.013 135.837 138.018 135.867C138.025 135.904 137.996 135.981 137.963 136.079C137.896 136.276 137.811 136.538 137.796 136.629C137.778 136.734 137.78 136.809 137.799 136.888C137.8 136.904 137.802 136.92 137.808 136.935L138.12 137.823C138.149 137.905 138.239 137.948 138.321 137.919L139.371 137.553C139.479 137.515 139.535 137.397 139.498 137.29C139.482 137.246 139.454 137.211 139.418 137.187C139.481 137.133 139.507 137.044 139.478 136.962C139.461 136.913 139.427 136.875 139.384 136.851C139.44 136.792 139.462 136.705 139.434 136.624C139.404 136.541 139.33 136.486 139.248 136.477Z" fill="white"/>
<circle cx="158.999" cy="139.573" r="4.58939" transform="rotate(15.4975 158.999 139.573)" fill="#4048FF"/>
<path d="M158.458 141.422L158.085 141.553C157.925 141.61 157.748 141.525 157.691 141.365L157.182 139.916C157.125 139.756 157.21 139.579 157.37 139.523L157.744 139.391C157.904 139.335 158.081 139.42 158.137 139.58L158.647 141.029C158.703 141.188 158.619 141.366 158.458 141.422Z" fill="white"/>
<path d="M160.467 138.76C160.563 138.673 160.603 138.534 160.557 138.405C160.497 138.233 160.306 138.141 160.135 138.202L159.246 138.515C159.241 138.447 159.3 138.127 159.314 138.014C159.325 137.917 159.304 137.817 159.271 137.725C159.23 137.609 159.165 137.502 159.08 137.413C158.964 137.29 158.804 137.176 158.635 137.273C158.484 137.359 158.441 137.571 158.551 137.706C158.551 137.706 158.63 137.808 158.637 137.852C158.648 137.908 158.604 138.022 158.555 138.169C158.456 138.462 158.33 138.852 158.306 138.987C158.28 139.143 158.283 139.254 158.312 139.372C158.312 139.395 158.316 139.419 158.325 139.443L158.789 140.764C158.832 140.886 158.967 140.95 159.088 140.907L160.652 140.362C160.811 140.306 160.895 140.129 160.84 139.97C160.817 139.905 160.774 139.853 160.721 139.817C160.814 139.737 160.853 139.605 160.811 139.483C160.785 139.41 160.734 139.353 160.671 139.317C160.754 139.23 160.786 139.1 160.744 138.979C160.7 138.855 160.59 138.774 160.467 138.76Z" fill="white"/>
<circle cx="146.732" cy="129.842" r="1.90646" transform="rotate(15.4975 146.732 129.842)" fill="#4048FF"/>
<path d="M146.508 130.61L146.353 130.665C146.286 130.688 146.213 130.653 146.189 130.587L145.977 129.985C145.954 129.918 145.989 129.845 146.056 129.821L146.211 129.767C146.277 129.743 146.351 129.778 146.374 129.845L146.586 130.447C146.61 130.513 146.574 130.587 146.508 130.61Z" fill="white"/>
<path d="M147.343 129.505C147.383 129.469 147.4 129.411 147.381 129.357C147.356 129.286 147.277 129.248 147.205 129.273L146.836 129.403C146.834 129.375 146.859 129.242 146.864 129.195C146.869 129.155 146.86 129.113 146.846 129.075C146.83 129.027 146.802 128.982 146.767 128.945C146.719 128.894 146.652 128.847 146.582 128.887C146.52 128.923 146.502 129.011 146.548 129.067C146.548 129.067 146.58 129.109 146.583 129.128C146.588 129.151 146.569 129.198 146.549 129.259C146.508 129.381 146.455 129.543 146.446 129.599C146.435 129.664 146.436 129.71 146.448 129.759C146.448 129.769 146.45 129.779 146.453 129.788L146.646 130.337C146.664 130.388 146.72 130.415 146.771 130.397L147.42 130.17C147.486 130.147 147.521 130.074 147.498 130.007C147.489 129.98 147.471 129.959 147.449 129.944C147.487 129.911 147.504 129.856 147.486 129.805C147.475 129.775 147.454 129.751 147.428 129.736C147.462 129.7 147.476 129.646 147.458 129.596C147.44 129.544 147.394 129.511 147.343 129.505Z" fill="white"/>
<circle cx="133.822" cy="108.858" r="2.38265" transform="rotate(15.4975 133.822 108.858)" fill="#4048FF"/>
<path d="M133.539 109.819L133.345 109.887C133.262 109.916 133.17 109.872 133.141 109.789L132.876 109.037C132.847 108.954 132.891 108.862 132.974 108.833L133.168 108.765C133.251 108.735 133.343 108.779 133.372 108.863L133.637 109.615C133.666 109.698 133.622 109.79 133.539 109.819Z" fill="white"/>
<path d="M134.582 108.438C134.632 108.393 134.653 108.32 134.629 108.253C134.597 108.164 134.499 108.117 134.409 108.148L133.948 108.31C133.945 108.275 133.976 108.109 133.983 108.051C133.989 108 133.978 107.948 133.961 107.9C133.94 107.84 133.906 107.785 133.862 107.738C133.802 107.675 133.719 107.616 133.631 107.666C133.552 107.711 133.53 107.821 133.587 107.891C133.587 107.891 133.628 107.944 133.632 107.966C133.637 107.996 133.615 108.055 133.589 108.131C133.538 108.283 133.472 108.486 133.46 108.556C133.446 108.637 133.448 108.694 133.463 108.756C133.463 108.768 133.465 108.78 133.47 108.792L133.711 109.478C133.733 109.541 133.803 109.575 133.866 109.553L134.678 109.269C134.761 109.24 134.804 109.149 134.775 109.066C134.763 109.032 134.741 109.005 134.714 108.987C134.762 108.945 134.783 108.876 134.76 108.813C134.747 108.775 134.72 108.746 134.688 108.727C134.731 108.682 134.748 108.614 134.726 108.552C134.703 108.487 134.646 108.445 134.582 108.438Z" fill="white"/>
<path d="M142.574 122.6L142.383 122.668C142.302 122.696 142.212 122.653 142.183 122.571L141.923 121.832C141.894 121.751 141.937 121.66 142.019 121.632L142.21 121.565C142.291 121.536 142.382 121.579 142.41 121.661L142.67 122.4C142.699 122.481 142.656 122.572 142.574 122.6Z" fill="white"/>
<path d="M143.6 121.243C143.649 121.198 143.669 121.127 143.646 121.062C143.615 120.974 143.518 120.927 143.431 120.958L142.977 121.118C142.975 121.083 143.005 120.92 143.012 120.862C143.018 120.813 143.007 120.762 142.99 120.715C142.969 120.656 142.936 120.601 142.892 120.555C142.833 120.493 142.752 120.435 142.665 120.484C142.588 120.528 142.566 120.636 142.623 120.705C142.623 120.705 142.663 120.757 142.667 120.78C142.672 120.808 142.65 120.866 142.625 120.941C142.574 121.091 142.51 121.29 142.498 121.359C142.484 121.438 142.486 121.495 142.5 121.555C142.501 121.567 142.503 121.579 142.507 121.591L142.744 122.265C142.766 122.327 142.835 122.36 142.897 122.338L143.694 122.06C143.776 122.031 143.819 121.941 143.79 121.86C143.778 121.827 143.757 121.8 143.729 121.782C143.777 121.741 143.797 121.674 143.775 121.612C143.762 121.574 143.736 121.545 143.704 121.527C143.746 121.482 143.763 121.416 143.741 121.355C143.719 121.291 143.663 121.25 143.6 121.243Z" fill="white"/>
<path d="M124.403 114.276C124.934 114.136 125.261 114.544 125.372 114.718C125.452 114.527 125.702 114.068 126.248 114.112C127.04 114.175 127.233 115.158 126.577 115.927C125.935 116.68 125.561 116.855 125.561 116.855C125.561 116.855 125.164 116.748 124.399 116.12C123.618 115.479 123.635 114.478 124.403 114.276Z" fill="white"/>
<circle cx="154.838" cy="124.596" r="3.66524" transform="rotate(58.9755 154.838 124.596)" fill="#FB6C77"/>
<path d="M154.754 123.146C155.235 123.41 155.192 123.931 155.153 124.133C155.342 124.05 155.839 123.889 156.206 124.297C156.737 124.887 156.2 125.733 155.196 125.84C154.211 125.945 153.819 125.814 153.819 125.814C153.819 125.814 153.605 125.464 153.482 124.481C153.357 123.479 154.058 122.764 154.754 123.146Z" fill="white"/>
<circle cx="126.83" cy="130.793" r="1.63385" transform="rotate(58.9755 126.83 130.793)" fill="#FB6C77"/>
<path d="M126.791 130.146C127.006 130.263 126.987 130.496 126.97 130.586C127.054 130.549 127.275 130.477 127.439 130.659C127.675 130.922 127.436 131.299 126.989 131.347C126.55 131.393 126.375 131.335 126.375 131.335C126.375 131.335 126.279 131.179 126.225 130.741C126.169 130.294 126.481 129.975 126.791 130.146Z" fill="white"/>
<circle cx="160.25" cy="118.344" r="1.63385" transform="rotate(58.9755 160.25 118.344)" fill="#FB6C77"/>
<path d="M160.212 117.697C160.426 117.815 160.407 118.047 160.39 118.138C160.474 118.101 160.695 118.029 160.859 118.211C161.096 118.474 160.856 118.851 160.409 118.898C159.97 118.945 159.795 118.887 159.795 118.887C159.795 118.887 159.7 118.731 159.645 118.293C159.589 117.846 159.901 117.527 160.212 117.697Z" fill="white"/>
<g filter="url(#filter1_f)">
<circle cx="146.226" cy="113.154" r="1.62756" transform="rotate(31.0419 146.226 113.154)" fill="#FB6C77"/>
<path d="M145.889 112.603C146.133 112.607 146.224 112.82 146.251 112.908C146.308 112.836 146.469 112.669 146.698 112.753C147.029 112.874 146.995 113.317 146.623 113.568C146.259 113.814 146.078 113.845 146.078 113.845C146.078 113.845 145.921 113.752 145.668 113.392C145.41 113.025 145.537 112.598 145.889 112.603Z" fill="white"/>
</g>
</g>
<defs>
<filter id="filter0_f" x="86.446" y="82.623" width="3.54467" height="3.54467" filterUnits="userSpaceOnUse" color-interpolation-filters="sRGB">
<feFlood flood-opacity="0" result="BackgroundImageFix"/>
<feBlend mode="normal" in="SourceGraphic" in2="BackgroundImageFix" result="shape"/>
<feGaussianBlur stdDeviation="0.0722665" result="effect1_foregroundBlur"/>
</filter>
<filter id="filter1_f" x="144.453" y="111.382" width="3.54467" height="3.54467" filterUnits="userSpaceOnUse" color-interpolation-filters="sRGB">
<feFlood flood-opacity="0" result="BackgroundImageFix"/>
<feBlend mode="normal" in="SourceGraphic" in2="BackgroundImageFix" result="shape"/>
<feGaussianBlur stdDeviation="0.0722665" result="effect1_foregroundBlur"/>
</filter>
<linearGradient id="paint0_linear" x1="132.55" y1="75.678" x2="102.416" y2="119.13" gradientUnits="userSpaceOnUse">
<stop stop-color="#DB2026"/>
<stop offset="0.505208" stop-color="#4080FF"/>
<stop offset="1" stop-color="#DB2026" stop-opacity="0"/>
</linearGradient>
<linearGradient id="paint1_linear" x1="91.6006" y1="87.1264" x2="156.23" y2="86.0487" gradientUnits="userSpaceOnUse">
<stop stop-color="#0B1D69"/>
<stop offset="1" stop-color="#4080FF"/>
</linearGradient>
<linearGradient id="paint2_linear" x1="121.979" y1="71.4013" x2="150.695" y2="83.8179" gradientUnits="userSpaceOnUse">
<stop stop-color="#0B1D69"/>
<stop offset="1" stop-color="#4080FF"/>
</linearGradient>
<linearGradient id="paint3_linear" x1="158.921" y1="12.447" x2="197.073" y2="30.2859" gradientUnits="userSpaceOnUse">
<stop stop-color="#0B1D69"/>
<stop offset="1" stop-color="#4080FF"/>
</linearGradient>
<linearGradient id="paint4_linear" x1="148.325" y1="43.1917" x2="165.861" y2="51.4138" gradientUnits="userSpaceOnUse">
<stop stop-color="#0B1D69"/>
<stop offset="1" stop-color="#4080FF"/>
</linearGradient>
<linearGradient id="paint5_linear" x1="145.564" y1="86.7265" x2="157.047" y2="93.0892" gradientUnits="userSpaceOnUse">
<stop stop-color="#0B1D69"/>
<stop offset="1" stop-color="#4080FF"/>
</linearGradient>
<linearGradient id="paint6_linear" x1="112.185" y1="63.9427" x2="127.592" y2="72.3455" gradientUnits="userSpaceOnUse">
<stop stop-color="#0B1D69"/>
<stop offset="1" stop-color="#4080FF"/>
</linearGradient>
</defs>
</svg>
