<svg width="65" height="65" viewBox="0 0 65 65" fill="none" xmlns="http://www.w3.org/2000/svg">
<circle cx="32.4394" cy="32.4648" r="32" fill="#1F2337"/>
<path d="M23.0403 37.8201C19.4023 39.1086 15.9036 37.9149 14.6091 37.157C13.1881 35.1677 13.8511 48.9989 14.6091 50.3252C15.3671 51.6515 21.1458 50.8936 23.0403 50.8936H37.8195L51.4614 42.4621C53.23 39.1463 56.2935 32.2494 54.3988 31.1884C52.0304 29.862 50.3249 31.8515 48.6196 36.3989C47.2554 40.0369 45.7145 40.441 45.1145 40.1883C44.9251 39.3989 44.1862 37.8201 42.7462 37.8201C40.9462 37.8201 36.2089 37.8201 33.9352 36.3989C31.6615 34.9778 27.5878 36.2095 23.0403 37.8201Z" fill="white"/>
<path d="M49.3368 29.8787C50.7127 29.4634 51.6085 30.4769 51.6085 31.0152L48.3727 35.7741C48.0483 36.8651 47.3554 39.0649 47.1784 39.1357C46.9573 39.2241 46.1169 40.1972 45.7188 40.3299C45.4004 40.436 44.5304 38.753 44.1352 37.8982C45.311 34.6898 46.7657 30.6549 49.3368 29.8787Z" fill="white"/>
<path d="M45.951 30.8724C47.1962 30.4965 48.007 31.4137 48.007 31.9009L45.0784 36.2079C44.7849 37.1953 44.1577 39.1862 43.9976 39.2502C43.7974 39.3303 43.0369 40.211 42.6766 40.3311C42.3884 40.4271 41.601 38.9039 41.2434 38.1303C42.3075 35.2266 43.624 31.5748 45.951 30.8724Z" fill="white"/>
<path d="M42.5432 33.001C43.5083 32.7096 44.1367 33.4205 44.1367 33.7981L41.867 37.1361C41.6395 37.9014 41.1534 39.4444 41.0293 39.494C40.8742 39.556 40.2847 40.2386 40.0055 40.3317C39.7821 40.4061 39.1719 39.2256 38.8947 38.626C39.7194 36.3756 40.7398 33.5454 42.5432 33.001Z" fill="white"/>
<path d="M23.0399 37.8191C19.4019 39.1077 15.9032 37.9139 14.6087 37.156C13.1877 35.1667 13.8507 48.9979 14.6087 50.3242C15.3667 51.6506 21.1454 50.8927 23.0399 50.8927H37.8191L51.461 42.4611C53.2296 39.1453 56.2932 32.2484 54.3984 31.1874C52.03 29.8611 50.3245 31.8505 48.6192 36.398C47.255 40.0359 45.7141 40.44 45.1141 40.1874C44.9247 39.398 44.1858 37.8191 42.7458 37.8191C40.9458 37.8191 36.2085 37.8191 33.9348 36.398C31.6611 34.9768 27.5874 36.2085 23.0399 37.8191Z" stroke="#00CC9E"/>
<path d="M51.6066 31.0152C51.6066 30.4769 50.7108 29.4634 49.3348 29.8787C46.7637 30.6549 45.309 34.6898 44.1333 37.8982" stroke="#00CC9E"/>
<path d="M46.4441 29.8789C43.873 30.6551 42.4183 34.69 41.2425 37.8984" stroke="#00CC9E"/>
<circle cx="31.848" cy="20.9633" r="9.82071" fill="white"/>
<path d="M27.5367 21.0618L31.2997 23.6672L34.0802 20.8219L36.8608 17.9766" stroke="#00CC9E"/>
<path d="M45.2097 40.3301C45.3674 41.0879 44.7682 43.0313 40.7519 43.0313C36.7355 43.0314 33.1416 43.0314 31.8467 43.0313" stroke="#00CC9E"/>
</svg>
