<svg width="19" height="26" viewBox="0 0 19 26" fill="none" xmlns="http://www.w3.org/2000/svg">
<path d="M13.0229 25.1183L17.9999 20.1413C18.1159 20.0253 18.208 19.8876 18.2707 19.736C18.3335 19.5844 18.3658 19.422 18.3658 19.2579C18.3658 18.9266 18.2342 18.6088 17.9999 18.3745C17.7656 18.1402 17.4479 18.0086 17.1165 18.0086C16.7852 18.0086 16.4674 18.1402 16.2331 18.3745L13.3838 21.2363L13.3838 6.81547C13.3838 6.48547 13.2527 6.16899 13.0193 5.93565C12.786 5.70231 12.4695 5.57122 12.1395 5.57122C11.8095 5.57122 11.4931 5.70231 11.2597 5.93565C11.0264 6.16899 10.8953 6.48547 10.8953 6.81547L10.8953 24.2349C10.8965 24.4805 10.9704 24.7203 11.1077 24.924C11.245 25.1277 11.4395 25.2863 11.6667 25.3796C11.8933 25.4749 12.143 25.5009 12.3844 25.4544C12.6258 25.4079 12.848 25.291 13.0229 25.1183ZM8.40679 19.2579L8.40679 1.83848C8.40556 1.59284 8.33165 1.35305 8.19437 1.14934C8.05709 0.945637 7.86258 0.787123 7.63536 0.693779C7.40877 0.598495 7.15903 0.572463 6.91766 0.618965C6.67629 0.665468 6.4541 0.782422 6.27913 0.955071L1.30215 5.93205C1.18553 6.04772 1.09296 6.18534 1.02979 6.33696C0.966623 6.48858 0.934103 6.65121 0.934103 6.81547C0.934103 6.97972 0.966623 7.14235 1.02979 7.29397C1.09296 7.4456 1.18553 7.58321 1.30215 7.69888C1.41782 7.8155 1.55543 7.90807 1.70706 7.97123C1.85868 8.0344 2.02131 8.06693 2.18556 8.06693C2.34982 8.06693 2.51245 8.0344 2.66407 7.97123C2.81569 7.90807 2.95331 7.8155 3.06898 7.69888L5.9183 4.83712L5.9183 19.2579C5.9183 19.5879 6.04939 19.9044 6.28273 20.1377C6.51607 20.3711 6.83255 20.5022 7.16254 20.5022C7.49254 20.5022 7.80902 20.3711 8.04236 20.1377C8.2757 19.9044 8.40679 19.5879 8.40679 19.2579Z" fill="#ADADC8"/>
</svg>
