<svg width="104" height="37" viewBox="0 0 104 37" fill="none" xmlns="http://www.w3.org/2000/svg">
<path d="M11.8926 28.7073H9.84963C9.61063 28.7073 9.50963 28.6053 9.50963 28.3663V27.9233C9.50963 27.6883 9.37462 27.5153 9.20262 27.5153C9.10062 27.5153 9.03262 27.5823 8.93162 27.6523C7.97762 28.4323 6.92463 28.7083 6.24263 28.7083H4.91663C2.39762 28.7083 0.390625 27.0073 0.390625 24.4533V24.2493C0.390625 21.6603 2.39863 20.0283 4.91663 20.0283H8.82963C9.06663 20.0283 9.17062 19.9243 9.17062 19.6883V18.7343C9.17062 17.0323 7.80963 15.7403 6.07463 15.7403C5.05163 15.7403 3.99763 16.3173 3.24763 17.6453C3.18063 17.7813 3.07663 17.8483 2.97663 17.8483C2.87263 17.8483 2.60162 17.6773 2.39762 17.5773L0.695625 16.6923C0.558625 16.6233 0.492625 16.5223 0.492625 16.4203C0.492625 16.2843 0.832625 15.7043 1.17263 15.2643C2.15863 13.9363 3.58862 13.0493 6.07463 13.0493C9.81663 13.0493 12.2346 15.3283 12.2346 18.7343V28.3673C12.2346 28.6063 12.1286 28.7073 11.8926 28.7073ZM9.16963 22.7493C9.16963 22.5123 9.06563 22.4083 8.82863 22.4083H4.91563C4.06363 22.4083 3.41763 23.0553 3.41763 23.9073V24.4523C3.41763 25.3053 4.06363 25.9833 4.91563 25.9833H6.24162C7.60262 25.9833 8.93062 24.7573 9.16963 23.4993V22.7493Z" fill="white"/>
<path d="M22.7206 29.0142C22.1756 29.0142 21.1896 28.8452 20.3726 28.5042C18.1936 27.6182 16.9346 25.7102 16.9346 23.2622V16.4542C16.9346 16.2152 16.8306 16.1142 16.5926 16.1142H14.7206C14.4836 16.1142 14.3816 16.0102 14.3816 15.8062C14.3816 15.6352 14.4136 15.1252 14.4476 14.5802L18.1926 10.6002C18.3636 10.4282 18.4986 10.3252 18.6686 10.3252H19.6546C19.8926 10.3252 19.9976 10.4292 19.9976 10.6672V13.0492C19.9976 13.2872 20.0986 13.3912 20.3366 13.3912H22.7196C22.9566 13.3912 23.0616 13.4932 23.0616 13.7322V15.7732C23.0616 16.0102 22.9576 16.1152 22.7196 16.1152H20.3366C20.0986 16.1152 19.9976 16.2162 19.9976 16.4552V23.2632C19.9976 24.7252 21.0846 26.0202 22.7856 26.2922C22.9566 26.3262 23.0606 26.4272 23.0606 26.6312V28.6742C23.0626 28.9092 22.9236 29.0142 22.7206 29.0142Z" fill="white"/>
<path d="M36.7456 28.7073H34.7036C34.4646 28.7073 34.3626 28.6053 34.3626 28.3663V27.9233C34.3626 27.6883 34.2276 27.5153 34.0566 27.5153C33.9526 27.5153 33.8866 27.5823 33.7856 27.6523C32.8316 28.4323 31.7776 28.7083 31.0966 28.7083H29.7686C27.2486 28.7083 25.2416 27.0073 25.2416 24.4533V24.2493C25.2416 21.6603 27.2496 20.0283 29.7686 20.0283H33.6826C33.9206 20.0283 34.0246 19.9243 34.0246 19.6883V18.7343C34.0246 17.0323 32.6616 15.7403 30.9256 15.7403C29.9036 15.7403 28.8506 16.3173 28.1006 17.6453C28.0346 17.7813 27.9306 17.8483 27.8296 17.8483C27.7256 17.8483 27.4526 17.6773 27.2496 17.5773L25.5486 16.6923C25.4126 16.6233 25.3446 16.5213 25.3446 16.4203C25.3446 16.2843 25.6856 15.7043 26.0276 15.2643C27.0136 13.9363 28.4416 13.0493 30.9266 13.0493C34.6716 13.0493 37.0896 15.3283 37.0896 18.7343V28.3673C37.0876 28.6063 36.9826 28.7073 36.7456 28.7073ZM34.0236 22.7493C34.0236 22.5123 33.9196 22.4083 33.6816 22.4083H29.7676C28.9176 22.4083 28.2696 23.0553 28.2696 23.9073V24.4523C28.2696 25.3053 28.9176 25.9833 29.7676 25.9833H31.0956C32.4546 25.9833 33.7846 24.7573 34.0236 23.4993V22.7493Z" fill="white"/>
<path d="M46.6196 36.7073C44.3056 36.7073 42.8426 35.8883 41.8896 34.8013C41.3446 34.1893 40.9366 33.4713 40.9366 33.2673C40.9366 33.1653 41.0046 33.0653 41.1416 32.9943L42.9116 32.1123C43.1156 32.0083 43.3546 31.8723 43.4566 31.8723C43.5936 31.8723 43.6946 31.9403 43.7616 32.0773C44.3766 33.3383 45.4646 33.9833 46.6206 33.9833C48.2886 33.9833 49.6846 32.5873 49.6846 30.9183V28.0943C49.6846 27.8573 49.5486 27.6893 49.3776 27.6893C49.2406 27.6893 49.1726 27.7203 49.0726 27.8253C48.3906 28.4333 47.4686 28.7093 46.6196 28.7093C42.8756 28.7093 40.4936 26.3273 40.4936 22.9243V13.7343C40.4936 13.4953 40.5946 13.3933 40.8346 13.3933H43.2166C43.4556 13.3933 43.5576 13.4953 43.5576 13.7343V22.9243C43.5576 24.5913 44.9526 25.9863 46.6206 25.9863C48.2886 25.9863 49.6846 24.5913 49.6846 22.9243V13.7343C49.6846 13.4953 49.7866 13.3933 50.0246 13.3933H52.4076C52.6436 13.3933 52.7476 13.4953 52.7476 13.7343V30.5813C52.7466 34.1183 50.6696 36.7073 46.6196 36.7073Z" fill="white"/>
<path d="M67.9976 21.5591H59.4896C59.2516 21.5591 59.1476 21.6601 59.1476 21.9001V23.2621C59.1476 24.9281 60.5436 26.3251 62.2116 26.3251C63.3676 26.3251 64.4246 25.6441 65.0686 24.3491C65.1376 24.2141 65.2406 24.1461 65.3416 24.1461C65.4426 24.1461 65.5466 24.2141 65.7516 24.3161L67.6896 25.3041C67.8256 25.3701 67.8946 25.4721 67.8946 25.5751C67.8946 25.7431 67.4846 26.4591 66.9086 27.1391C65.9566 28.2291 64.5256 29.0441 62.2116 29.0441C58.4666 29.0441 56.0846 26.6621 56.0846 23.2601V18.8361C56.0846 16.1121 58.4666 13.0471 62.2116 13.0471C65.9566 13.0471 68.3366 16.1121 68.3366 18.8361V21.2171C68.3376 21.4581 68.2366 21.5591 67.9976 21.5591ZM62.2126 15.7731C60.5446 15.7731 59.1486 17.1681 59.1486 18.8381C59.1486 19.0741 59.2526 19.1761 59.4906 19.1761H64.9356C65.1746 19.1761 65.2756 19.0741 65.2756 18.8381C65.2756 17.1671 63.8796 15.7731 62.2126 15.7731Z" fill="white"/>
<path d="M83.4196 28.7071H81.0366C80.7986 28.7071 80.6986 28.6051 80.6986 28.3661V19.1761C80.6986 17.5081 79.3006 16.1141 77.6346 16.1141C75.9666 16.1141 74.5716 17.5081 74.5716 19.1761V28.3661C74.5716 28.6051 74.4676 28.7071 74.2306 28.7071H71.8486C71.6086 28.7071 71.5076 28.6051 71.5076 28.3661V13.7321C71.5076 13.4931 71.6086 13.3911 71.8486 13.3911H73.8896C74.1276 13.3911 74.2306 13.4931 74.2306 13.7321V14.1401C74.2306 14.3801 74.3336 14.5471 74.5026 14.5471C74.6026 14.5471 74.6726 14.4811 74.7736 14.4101C75.5566 13.7641 76.7816 13.3901 77.6326 13.3901C81.3776 13.3901 83.7596 15.7721 83.7596 19.1751V28.3651C83.7616 28.6061 83.6606 28.7071 83.4196 28.7071Z" fill="white"/>
<path d="M90.1606 13.4673V5.0293H87.1716V16.4563H98.6016V13.4673H90.1606Z" fill="white"/>
<path d="M100.17 3.45919L100.168 11.8982H103.158L103.159 0.471191H91.7296V3.45919H100.17Z" fill="white"/>
<path d="M96.6736 6.9541H93.6586V9.9711H96.6736V6.9541Z" fill="white"/>
</svg>
