<svg width="478" height="367" viewBox="0 0 478 367" fill="none" xmlns="http://www.w3.org/2000/svg">
<g filter="url(#filter0_i)">
<path d="M96.6474 200.596C81.2907 170.389 94.9263 134.215 127.103 119.799L231.422 73.061C263.599 58.6446 302.133 71.4453 317.49 101.651C322.033 110.587 324.039 120.046 323.778 129.309L349.503 117.783C381.68 103.368 420.214 116.167 435.571 146.374C450.928 176.581 437.292 212.755 405.115 227.171L398.317 230.217C398.944 231.28 399.54 232.368 400.105 233.48C415.462 263.687 401.826 299.861 369.649 314.278L265.33 361.016C233.153 375.432 194.62 362.631 179.263 332.424C178.698 331.313 178.172 330.193 177.685 329.067L168.118 333.353C135.941 347.77 97.4076 334.969 82.0509 304.762C66.6942 274.556 80.3298 238.381 112.507 223.965L115.597 222.581C107.762 216.945 101.19 209.531 96.6474 200.596Z" fill="#001744"/>
</g>
<mask id="mask0" mask-type="alpha" maskUnits="userSpaceOnUse" x="0" y="0" width="478" height="367">
<path d="M14.9351 36.3216C-3.3601 -0.139449 86.9272 53.7234 125.261 36.3217L181.851 21.4633C220.185 4.06169 286.484 3.05279 317.822 3.05296C265.951 22.525 372.055 -8.12783 371.744 3.05296L433.98 36.3216C472.314 18.9212 451.968 62.579 470.263 99.0413C488.559 135.502 472.314 179.167 433.98 196.569L425.881 200.245C426.628 201.529 427.338 202.842 428.011 204.184C446.307 240.646 430.062 284.311 391.728 301.713L267.448 358.129C232.463 378.064 183.206 360.079 164.911 323.617C164.238 322.276 163.611 320.924 163.031 319.565L151.634 324.738C113.3 342.14 67.3929 326.688 49.0976 290.226C-20.7497 125.597 -4.50495 81.9319 33.8292 64.5302L37.5109 62.8591C28.1763 56.0569 20.3475 47.1079 14.9351 36.3216Z" fill="url(#paint0_linear)"/>
</mask>
<g mask="url(#mask0)">
<path d="M223.539 485.611C210.81 399.445 222.56 358.973 243.122 330.904C273.476 330.904 340.059 336.583 363.558 359.299C387.058 382.016 404.746 512.602 431.12 606.047L469.876 748.255L450.101 753.844L372.002 606.047L344.498 551.239L301.871 485.611C296.692 573.505 312.398 582.317 314.374 602.319C332.74 788.236 347.786 782.217 314.374 785.242L223.539 485.611Z" fill="black"/>
<path d="M268.074 71.1459C262.99 59.9604 273.098 54.743 278.787 53.5325C296.764 49.9009 312.199 145.05 311.109 147.955C310.02 150.86 284.417 161.755 263.898 155.944C243.379 150.134 287.564 147.955 287.563 107.846C287.563 67.9668 274.43 85.1277 268.074 71.1459Z" fill="#EC2281"/>
<path d="M192.592 195.476C207.788 202.23 237.869 168.837 273.396 152.304C280.032 186.993 244.813 249.179 192.592 239.196C154.969 232.003 131.869 143.06 144.181 131.1C139.96 151.15 177.396 188.722 192.592 195.476Z" fill="#CF6A55"/>
<path d="M192.592 195.476C207.788 202.23 237.869 168.837 273.396 152.304C280.032 186.993 244.813 249.179 192.592 239.196C154.969 232.003 131.869 143.06 144.181 131.1C139.96 151.15 177.396 188.722 192.592 195.476Z" fill="url(#paint1_linear)"/>
<path d="M292.803 123.917L295.353 145.253L286.893 148.879L265.93 201.528L274.811 252.59L361.788 151.453L334.307 147.161L317.762 102.001L292.803 123.917Z" fill="#CF6A55"/>
<path d="M292.803 123.917L295.353 145.253L286.893 148.879L265.93 201.528L274.811 252.59L361.788 151.453L334.307 147.161L317.762 102.001L292.803 123.917Z" fill="url(#paint2_linear)"/>
<path fill-rule="evenodd" clip-rule="evenodd" d="M298.998 130.779C283.446 136.058 275.651 128.442 276.156 120.246L276.993 100.6L271.553 99.6106L277.504 88.6129L279.062 52.0292L324.711 51.0137L337.29 81.352V98.0227L324.399 119.521L298.998 130.779Z" fill="#CF6A55"/>
<path fill-rule="evenodd" clip-rule="evenodd" d="M298.998 130.779C283.446 136.058 275.651 128.442 276.156 120.246L276.993 100.6L271.553 99.6106L277.504 88.6129L279.062 52.0292L324.711 51.0137L337.29 81.352V98.0227L324.399 119.521L298.998 130.779Z" fill="url(#paint3_linear)"/>
<path fill-rule="evenodd" clip-rule="evenodd" d="M288.896 147.897C280.837 163.574 267.614 198.51 281.224 215.989C294.626 198.938 325.724 163.656 342.893 158.935C351.779 156.491 356.423 152.965 358.63 149.607C365.053 151.595 372.464 154.64 381.983 159.232C413.928 174.64 384.597 217.445 361.067 251.783C350.258 267.559 340.673 281.547 338.815 290.272C335.719 304.813 349.871 322.402 362.143 337.655C368.584 345.659 374.507 353.02 377.147 358.96C377.147 358.96 348.157 367.578 329.57 373.058C278.887 388.004 225.31 365.084 225.31 365.084C231.927 347.219 235.877 341.26 239.879 335.223C243.638 329.553 247.442 323.814 253.545 308.08C261.93 286.461 251.981 259.873 244.385 239.573C240.566 229.366 237.341 220.749 237.341 215.152C237.341 199.59 247.061 188.079 255.262 178.368C260.436 172.241 265.005 166.831 266.146 161.571C268.022 152.927 276.718 149.413 288.896 147.897Z" fill="url(#paint4_linear)"/>
<path d="M139.841 137.732L131.123 79.6071C130.963 78.5401 131.559 77.5034 132.561 77.1044L155.866 67.8309C157.267 67.2738 158.818 68.1767 159.026 69.6691L168.966 141.142C169.182 142.694 167.83 144.01 166.285 143.753L141.758 139.679C140.765 139.514 139.991 138.728 139.841 137.732Z" fill="#4048FF"/>
<path d="M138.571 115.141C132.688 128.309 137.729 148.27 142.632 161.461L146.134 152.005C159.792 145.004 153.237 138.27 153.237 131.547C153.237 123.142 159.315 117.746 162.117 107.24C164.918 96.7343 145.925 98.6819 138.571 115.141Z" fill="#CF6A55"/>
<path d="M153.877 92.4973C151.609 84.4345 135.61 103.382 136.618 115.174C137.878 129.913 143.295 98.4183 153.877 92.4973Z" fill="#CF6A55"/>
<path d="M370.742 203.673C361.003 176.947 366.368 165.191 384.429 165.191C398.124 160.811 440.223 232.812 423.663 283.712C414.533 311.774 379.611 347.152 359.322 344.256C370.227 333.789 391.24 295.228 396.109 277.589C402.196 255.54 382.915 237.081 370.742 203.673Z" fill="#CF6A55"/>
<path d="M370.742 203.673C361.003 176.947 366.368 165.191 384.429 165.191C398.124 160.811 440.223 232.812 423.663 283.712C414.533 311.774 379.611 347.152 359.322 344.256C370.227 333.789 391.24 295.228 396.109 277.589C402.196 255.54 382.915 237.081 370.742 203.673Z" fill="url(#paint5_linear)"/>
<path d="M345.802 348.191C350.77 335.615 362.972 335.465 371.375 336.963C374.176 343.593 378.097 358.265 380.143 371.612C382.7 388.295 365.529 389.578 365.529 380.595C365.529 371.612 356.396 353.325 350.551 355.891C345.875 357.945 353.839 371.612 348.359 371.612C345.558 370.435 340.834 360.768 345.802 348.191Z" fill="#CF6A55"/>
<ellipse cx="137.705" cy="82.2997" rx="1.83515" ry="2.66068" transform="rotate(-6.66257 137.705 82.2997)" fill="white"/>
<path d="M282.851 109.001C286.606 108.642 295.277 106.914 299.916 102.871C298.535 111.404 293.189 124.575 282.851 109.001Z" fill="white"/>
<path d="M276.545 60.7694C262.172 47.1797 270.556 37.6844 276.545 34.6354C383.041 25.1619 331.427 68.9363 360.174 99.9704C388.921 131.004 383.695 156.485 377.815 156.158C371.935 155.832 369.975 171.512 327.507 188.499C285.039 205.486 326.527 101.277 323.26 87.2301C319.993 73.183 294.513 77.7565 276.545 60.7694Z" fill="#EC2281"/>
</g>
<path fill-rule="evenodd" clip-rule="evenodd" d="M102.156 158.468C102.561 158.64 103.014 158.668 103.435 158.538L114.929 154.996C116.105 154.634 117.295 155.513 117.295 156.743V168.578C117.295 169.011 117.451 169.429 117.724 169.765C121.654 174.6 123.915 180.27 123.915 186.332C123.915 204.041 104.62 218.397 80.817 218.397C57.0145 218.397 37.7188 204.041 37.7188 186.332C37.7188 168.624 57.0145 154.268 80.817 154.268C88.5805 154.268 95.8645 155.795 102.156 158.468Z" fill="#4048FF"/>
<path fill-rule="evenodd" clip-rule="evenodd" d="M91.78 97.6037C91.3171 97.7985 90.9586 98.1763 90.7643 98.6394C86.3315 109.208 73.0738 116.88 57.4078 116.88C38.1129 116.88 22.4712 105.243 22.4712 90.8875C22.4712 76.5322 38.1129 64.895 57.4078 64.895C74.5972 64.895 88.8871 74.131 91.8012 86.2966C91.9658 86.9835 92.4723 87.5471 93.1538 87.7326L101.446 89.9906C103.123 90.4472 103.276 92.7657 101.674 93.4398L91.78 97.6037Z" fill="#EC2281"/>
<circle cx="85.7259" cy="201.575" r="6.70705" fill="white"/>
<circle cx="93.114" cy="174.383" r="6.70705" fill="white"/>
<circle cx="67.6502" cy="186.017" r="9.16627" fill="white"/>
<path d="M90.3575 175.415L66.7615 186.082L86.6403 202.567" stroke="white" stroke-width="5.04369"/>
<path d="M66.6004 80.5558C62.1397 78.9235 58.5063 83.6697 58.5063 83.6697C58.5063 83.6697 55.0282 79.1393 50.4932 80.5445C43.3862 82.7479 44.0225 91.5502 47.5209 96.0739C50.8687 100.402 57.8318 104.795 58.5063 105.236V105.263C58.5063 105.267 58.5086 105.27 58.5086 105.27C58.5086 105.27 58.5131 105.263 58.5221 105.256C58.5311 105.263 58.5176 105.27 58.5176 105.27C58.5176 105.27 58.5063 105.267 58.5063 105.263V105.236C59.1808 104.795 66.1215 100.062 69.467 95.7344C72.9654 91.2084 73.514 83.0852 66.6004 80.5558Z" fill="white"/>
<defs>
<filter id="filter0_i" x="75.7407" y="67.1372" width="366.14" height="307.115" filterUnits="userSpaceOnUse" color-interpolation-filters="sRGB">
<feFlood flood-opacity="0" result="BackgroundImageFix"/>
<feBlend mode="normal" in="SourceGraphic" in2="BackgroundImageFix" result="shape"/>
<feColorMatrix in="SourceAlpha" type="matrix" values="0 0 0 0 0 0 0 0 0 0 0 0 0 0 0 0 0 0 127 0" result="hardAlpha"/>
<feOffset dy="7.3133"/>
<feGaussianBlur stdDeviation="3.65665"/>
<feComposite in2="hardAlpha" operator="arithmetic" k2="-1" k3="1"/>
<feColorMatrix type="matrix" values="0 0 0 0 0.25098 0 0 0 0 0.501961 0 0 0 0 1 0 0 0 0.5 0"/>
<feBlend mode="normal" in2="shape" result="effect1_innerShadow"/>
</filter>
<linearGradient id="paint0_linear" x1="-24.7968" y1="183.453" x2="509.035" y2="124.285" gradientUnits="userSpaceOnUse">
<stop stop-color="#F52079"/>
<stop offset="1" stop-color="#4048FF"/>
</linearGradient>
<linearGradient id="paint1_linear" x1="299.67" y1="158.442" x2="159.149" y2="235.152" gradientUnits="userSpaceOnUse">
<stop stop-color="#EE7056"/>
<stop offset="1" stop-color="#3F0B0B" stop-opacity="0"/>
</linearGradient>
<linearGradient id="paint2_linear" x1="247.62" y1="139.718" x2="368.92" y2="174.225" gradientUnits="userSpaceOnUse">
<stop stop-color="#EE7056"/>
<stop offset="1" stop-color="#3F0B0B" stop-opacity="0"/>
</linearGradient>
<linearGradient id="paint3_linear" x1="258.996" y1="71.4291" x2="338.575" y2="100.112" gradientUnits="userSpaceOnUse">
<stop stop-color="#EE7056"/>
<stop offset="1" stop-color="#3F0B0B" stop-opacity="0"/>
</linearGradient>
<linearGradient id="paint4_linear" x1="110.947" y1="342.242" x2="274.602" y2="147.43" gradientUnits="userSpaceOnUse">
<stop stop-color="#F52079"/>
<stop offset="1" stop-color="#4048FF"/>
</linearGradient>
<linearGradient id="paint5_linear" x1="440.48" y1="209.939" x2="349.884" y2="225.316" gradientUnits="userSpaceOnUse">
<stop stop-color="#EE7056"/>
<stop offset="1" stop-color="#3F0B0B" stop-opacity="0"/>
</linearGradient>
</defs>
</svg>
