<svg width="79" height="79" viewBox="0 0 79 79" fill="none" xmlns="http://www.w3.org/2000/svg">
<rect x="0.307249" y="0.133589" width="78.5594" height="77.7325" rx="37.455" transform="rotate(0.127995 0.307249 0.133589)" fill="#D8DAFF"/>
<circle cx="39.4545" cy="39.1873" r="31.99" fill="#791AFC"/>
<path d="M25.8454 37.6884C25.3842 38.1312 25.3842 38.8688 25.8454 39.3116L26.7001 40.1321C27.1352 40.5498 27.8222 40.5501 28.2576 40.1328L37.3047 31.4631V50.875C37.3047 51.4963 37.8084 52 38.4297 52H39.6953C40.3166 52 40.8203 51.4963 40.8203 50.875V31.4631L49.8498 40.1469C50.285 40.5655 50.9731 40.5658 51.4087 40.1476L52.2796 39.3116C52.7408 38.8688 52.7408 38.1312 52.2796 37.6884L39.8416 25.7479C39.4063 25.33 38.7187 25.33 38.2834 25.7479L25.8454 37.6884Z" fill="white"/>
<rect x="0.307249" y="0.133589" width="78.5594" height="77.7325" rx="37.455" transform="rotate(0.127995 0.307249 0.133589)" stroke="#D6D6E8" stroke-width="0.266583"/>
</svg>
