<svg width="163" height="161" viewBox="0 0 163 161" fill="none" xmlns="http://www.w3.org/2000/svg">
<g filter="url(#filter0_d)">
<rect x="4.61328" y="0.606445" width="154.214" height="151.474" rx="75.7369" fill="white"/>
<rect x="6.11328" y="2.10645" width="151.214" height="148.474" rx="74.2369" stroke="#75758F" stroke-width="3" stroke-dasharray="6 6"/>
</g>
<path d="M68.6485 95.4183H73.2805V97.1943H66.4965V85.6263H68.6485V95.4183ZM78.3372 88.8583C78.9505 88.8583 79.5052 88.957 80.0012 89.1543C80.5025 89.3517 80.9292 89.6317 81.2812 89.9943C81.6332 90.357 81.9052 90.7997 82.0972 91.3223C82.2892 91.845 82.3852 92.429 82.3852 93.0743C82.3852 93.725 82.2892 94.3117 82.0972 94.8343C81.9052 95.357 81.6332 95.8023 81.2812 96.1703C80.9292 96.5383 80.5025 96.821 80.0012 97.0183C79.5052 97.2157 78.9505 97.3143 78.3372 97.3143C77.7239 97.3143 77.1665 97.2157 76.6652 97.0183C76.1639 96.821 75.7345 96.5383 75.3772 96.1703C75.0252 95.8023 74.7505 95.357 74.5532 94.8343C74.3612 94.3117 74.2652 93.725 74.2652 93.0743C74.2652 92.429 74.3612 91.845 74.5532 91.3223C74.7505 90.7997 75.0252 90.357 75.3772 89.9943C75.7345 89.6317 76.1639 89.3517 76.6652 89.1543C77.1665 88.957 77.7239 88.8583 78.3372 88.8583ZM78.3372 95.7943C79.0199 95.7943 79.5239 95.565 79.8492 95.1063C80.1799 94.6477 80.3452 93.9757 80.3452 93.0903C80.3452 92.205 80.1799 91.5303 79.8492 91.0663C79.5239 90.6023 79.0199 90.3703 78.3372 90.3703C77.6439 90.3703 77.1319 90.605 76.8012 91.0743C76.4705 91.5383 76.3052 92.2103 76.3052 93.0903C76.3052 93.9703 76.4705 94.6423 76.8012 95.1063C77.1319 95.565 77.6439 95.7943 78.3372 95.7943ZM87.247 88.8423C87.599 88.8423 87.9296 88.8797 88.239 88.9543C88.5483 89.0237 88.831 89.1277 89.087 89.2663H91.447V90.0023C91.447 90.125 91.415 90.221 91.351 90.2903C91.287 90.3597 91.1776 90.4077 91.023 90.4343L90.287 90.5703C90.3403 90.709 90.3803 90.8557 90.407 91.0103C90.439 91.165 90.455 91.3277 90.455 91.4983C90.455 91.9037 90.3723 92.2717 90.207 92.6023C90.047 92.9277 89.823 93.205 89.535 93.4343C89.2523 93.6637 88.9136 93.8423 88.519 93.9703C88.1296 94.093 87.7056 94.1543 87.247 94.1543C86.9376 94.1543 86.6363 94.125 86.343 94.0663C86.087 94.221 85.959 94.3943 85.959 94.5863C85.959 94.7517 86.0336 94.8743 86.183 94.9543C86.3376 95.029 86.5376 95.0823 86.783 95.1143C87.0336 95.1463 87.3163 95.1677 87.631 95.1783C87.9456 95.1837 88.2683 95.1997 88.599 95.2263C88.9296 95.253 89.2523 95.301 89.567 95.3703C89.8816 95.4343 90.1616 95.5383 90.407 95.6823C90.6576 95.8263 90.8576 96.0237 91.007 96.2743C91.1616 96.5197 91.239 96.837 91.239 97.2263C91.239 97.589 91.1483 97.941 90.967 98.2823C90.791 98.6237 90.5323 98.9277 90.191 99.1943C89.855 99.461 89.4416 99.6743 88.951 99.8343C88.4603 99.9997 87.9003 100.082 87.271 100.082C86.647 100.082 86.1056 100.021 85.647 99.8983C85.1883 99.781 84.807 99.621 84.503 99.4183C84.2043 99.221 83.9803 98.9917 83.831 98.7303C83.6816 98.469 83.607 98.197 83.607 97.9143C83.607 97.5303 83.7243 97.2077 83.959 96.9463C84.1936 96.685 84.519 96.477 84.935 96.3223C84.7323 96.2103 84.5696 96.061 84.447 95.8743C84.3243 95.6877 84.263 95.445 84.263 95.1463C84.263 95.0237 84.2843 94.8983 84.327 94.7703C84.3696 94.637 84.4336 94.5063 84.519 94.3783C84.6096 94.2503 84.7216 94.1303 84.855 94.0183C84.9883 93.901 85.1456 93.797 85.327 93.7063C84.911 93.4823 84.583 93.1837 84.343 92.8103C84.1083 92.437 83.991 91.9997 83.991 91.4983C83.991 91.093 84.071 90.7277 84.231 90.4023C84.3963 90.0717 84.623 89.7917 84.911 89.5623C85.2043 89.3277 85.5483 89.149 85.943 89.0263C86.343 88.9037 86.7776 88.8423 87.247 88.8423ZM89.415 97.5623C89.415 97.4023 89.367 97.2717 89.271 97.1703C89.175 97.069 89.0443 96.9917 88.879 96.9383C88.7136 96.8797 88.519 96.837 88.295 96.8103C88.0763 96.7837 87.8416 96.765 87.591 96.7543C87.3456 96.7383 87.0896 96.725 86.823 96.7143C86.5616 96.6983 86.3083 96.6743 86.063 96.6423C85.839 96.765 85.6576 96.9117 85.519 97.0823C85.3856 97.2477 85.319 97.4397 85.319 97.6583C85.319 97.8023 85.3536 97.9357 85.423 98.0583C85.4976 98.1863 85.6123 98.2957 85.767 98.3863C85.927 98.477 86.1323 98.5463 86.383 98.5943C86.6336 98.6477 86.9403 98.6743 87.303 98.6743C87.671 98.6743 87.9883 98.645 88.255 98.5863C88.5216 98.533 88.7403 98.4557 88.911 98.3543C89.087 98.2583 89.215 98.141 89.295 98.0023C89.375 97.869 89.415 97.7223 89.415 97.5623ZM87.247 92.8903C87.4923 92.8903 87.7056 92.8583 87.887 92.7943C88.0683 92.725 88.2176 92.6317 88.335 92.5143C88.4576 92.397 88.5483 92.2557 88.607 92.0903C88.671 91.925 88.703 91.7437 88.703 91.5463C88.703 91.141 88.5803 90.821 88.335 90.5863C88.095 90.3463 87.7323 90.2263 87.247 90.2263C86.7616 90.2263 86.3963 90.3463 86.151 90.5863C85.911 90.821 85.791 91.141 85.791 91.5463C85.791 91.7383 85.8203 91.917 85.879 92.0823C85.943 92.2477 86.0336 92.3917 86.151 92.5143C86.2736 92.6317 86.4256 92.725 86.607 92.7943C86.7936 92.8583 87.007 92.8903 87.247 92.8903ZM96.6722 88.8583C97.2855 88.8583 97.8402 88.957 98.3362 89.1543C98.8375 89.3517 99.2642 89.6317 99.6162 89.9943C99.9682 90.357 100.24 90.7997 100.432 91.3223C100.624 91.845 100.72 92.429 100.72 93.0743C100.72 93.725 100.624 94.3117 100.432 94.8343C100.24 95.357 99.9682 95.8023 99.6162 96.1703C99.2642 96.5383 98.8375 96.821 98.3362 97.0183C97.8402 97.2157 97.2855 97.3143 96.6722 97.3143C96.0589 97.3143 95.5015 97.2157 95.0002 97.0183C94.4989 96.821 94.0695 96.5383 93.7122 96.1703C93.3602 95.8023 93.0855 95.357 92.8882 94.8343C92.6962 94.3117 92.6002 93.725 92.6002 93.0743C92.6002 92.429 92.6962 91.845 92.8882 91.3223C93.0855 90.7997 93.3602 90.357 93.7122 89.9943C94.0695 89.6317 94.4989 89.3517 95.0002 89.1543C95.5015 88.957 96.0589 88.8583 96.6722 88.8583ZM96.6722 95.7943C97.3549 95.7943 97.8589 95.565 98.1842 95.1063C98.5149 94.6477 98.6802 93.9757 98.6802 93.0903C98.6802 92.205 98.5149 91.5303 98.1842 91.0663C97.8589 90.6023 97.3549 90.3703 96.6722 90.3703C95.9789 90.3703 95.4669 90.605 95.1362 91.0743C94.8055 91.5383 94.6402 92.2103 94.6402 93.0903C94.6402 93.9703 94.8055 94.6423 95.1362 95.1063C95.4669 95.565 95.9789 95.7943 96.6722 95.7943ZM55.28 112.178C55.28 113.277 55.4134 114.357 55.68 115.418C55.9467 116.48 56.328 117.477 56.824 118.41C56.8614 118.48 56.8854 118.544 56.896 118.602C56.912 118.661 56.92 118.714 56.92 118.762C56.92 118.869 56.8934 118.954 56.84 119.018C56.7867 119.088 56.7227 119.144 56.648 119.186L55.768 119.722C55.3734 119.114 55.0374 118.504 54.76 117.89C54.4827 117.277 54.256 116.658 54.08 116.034C53.904 115.41 53.7734 114.778 53.688 114.138C53.608 113.498 53.568 112.845 53.568 112.178C53.568 111.512 53.608 110.858 53.688 110.218C53.7734 109.573 53.904 108.938 54.08 108.314C54.256 107.69 54.4827 107.074 54.76 106.466C55.0374 105.853 55.3734 105.242 55.768 104.634L56.648 105.162C56.7227 105.205 56.7867 105.261 56.84 105.33C56.8934 105.394 56.92 105.477 56.92 105.578C56.92 105.68 56.8854 105.8 56.816 105.938C56.3254 106.872 55.9467 107.872 55.68 108.938C55.4134 110 55.28 111.08 55.28 112.178ZM60.1489 115.714H62.4929V108.97C62.4929 108.709 62.5009 108.434 62.5169 108.146L60.8529 109.538C60.7836 109.597 60.7116 109.637 60.6369 109.658C60.5676 109.68 60.4982 109.69 60.4289 109.69C60.3222 109.69 60.2236 109.669 60.1329 109.626C60.0476 109.578 59.9836 109.525 59.9409 109.466L59.3169 108.61L62.8449 105.61H64.4689V115.714H66.5489V117.194H60.1489V115.714ZM75.6702 106.466C75.6702 106.749 75.5795 106.978 75.3982 107.154C75.2222 107.33 74.9262 107.418 74.5102 107.418H71.3262L70.9102 109.834C71.4328 109.728 71.9102 109.674 72.3422 109.674C72.9502 109.674 73.4835 109.765 73.9422 109.946C74.4062 110.128 74.7955 110.378 75.1102 110.698C75.4248 111.018 75.6622 111.394 75.8222 111.826C75.9822 112.253 76.0622 112.714 76.0622 113.21C76.0622 113.824 75.9528 114.384 75.7342 114.89C75.5208 115.397 75.2222 115.832 74.8382 116.194C74.4542 116.552 73.9982 116.829 73.4702 117.026C72.9475 117.224 72.3768 117.322 71.7582 117.322C71.3955 117.322 71.0515 117.285 70.7262 117.21C70.4008 117.136 70.0942 117.037 69.8062 116.914C69.5235 116.786 69.2595 116.642 69.0142 116.482C68.7742 116.317 68.5582 116.144 68.3662 115.962L68.9742 115.122C69.1022 114.941 69.2728 114.85 69.4862 114.85C69.6195 114.85 69.7528 114.893 69.8862 114.978C70.0248 115.064 70.1848 115.157 70.3662 115.258C70.5475 115.36 70.7582 115.453 70.9982 115.538C71.2382 115.624 71.5288 115.666 71.8702 115.666C72.2328 115.666 72.5528 115.608 72.8302 115.49C73.1075 115.373 73.3368 115.21 73.5182 115.002C73.7048 114.789 73.8435 114.538 73.9342 114.25C74.0302 113.957 74.0782 113.64 74.0782 113.298C74.0782 112.669 73.8942 112.178 73.5262 111.826C73.1635 111.469 72.6275 111.29 71.9182 111.29C71.3582 111.29 70.7955 111.392 70.2302 111.594L68.9982 111.242L69.9582 105.626H75.6702V106.466ZM86.3994 111.41C86.3994 112.418 86.2901 113.296 86.0714 114.042C85.8581 114.784 85.5594 115.397 85.1754 115.882C84.7967 116.368 84.3461 116.73 83.8234 116.97C83.3061 117.205 82.7461 117.322 82.1434 117.322C81.5407 117.322 80.9807 117.205 80.4634 116.97C79.9514 116.73 79.5061 116.368 79.1274 115.882C78.7487 115.397 78.4527 114.784 78.2394 114.042C78.0261 113.296 77.9194 112.418 77.9194 111.41C77.9194 110.397 78.0261 109.52 78.2394 108.778C78.4527 108.037 78.7487 107.424 79.1274 106.938C79.5061 106.453 79.9514 106.093 80.4634 105.858C80.9807 105.618 81.5407 105.498 82.1434 105.498C82.7461 105.498 83.3061 105.618 83.8234 105.858C84.3461 106.093 84.7967 106.453 85.1754 106.938C85.5594 107.424 85.8581 108.037 86.0714 108.778C86.2901 109.52 86.3994 110.397 86.3994 111.41ZM84.3594 111.41C84.3594 110.573 84.2981 109.88 84.1754 109.33C84.0527 108.781 83.8874 108.344 83.6794 108.018C83.4767 107.693 83.2421 107.466 82.9754 107.338C82.7087 107.205 82.4314 107.138 82.1434 107.138C81.8607 107.138 81.5861 107.205 81.3194 107.338C81.0581 107.466 80.8261 107.693 80.6234 108.018C80.4207 108.344 80.2581 108.781 80.1354 109.33C80.0181 109.88 79.9594 110.573 79.9594 111.41C79.9594 112.248 80.0181 112.941 80.1354 113.49C80.2581 114.04 80.4207 114.477 80.6234 114.802C80.8261 115.128 81.0581 115.357 81.3194 115.49C81.5861 115.618 81.8607 115.682 82.1434 115.682C82.4314 115.682 82.7087 115.618 82.9754 115.49C83.2421 115.357 83.4767 115.128 83.6794 114.802C83.8874 114.477 84.0527 114.04 84.1754 113.49C84.2981 112.941 84.3594 112.248 84.3594 111.41ZM88.3367 119.874V108.986H89.5447C89.6727 108.986 89.782 109.016 89.8727 109.074C89.9633 109.133 90.022 109.224 90.0487 109.346L90.2087 110.106C90.5393 109.728 90.918 109.421 91.3447 109.186C91.7767 108.952 92.2807 108.834 92.8567 108.834C93.3047 108.834 93.7127 108.928 94.0807 109.114C94.454 109.301 94.774 109.573 95.0407 109.93C95.3127 110.282 95.5207 110.72 95.6647 111.242C95.814 111.76 95.8887 112.354 95.8887 113.026C95.8887 113.64 95.806 114.208 95.6407 114.73C95.4753 115.253 95.238 115.706 94.9287 116.09C94.6247 116.474 94.254 116.776 93.8167 116.994C93.3847 117.208 92.8993 117.314 92.3607 117.314C91.8967 117.314 91.502 117.245 91.1767 117.106C90.8567 116.962 90.5687 116.765 90.3127 116.514V119.874H88.3367ZM92.1767 110.394C91.766 110.394 91.414 110.482 91.1207 110.658C90.8327 110.829 90.5633 111.072 90.3127 111.386V115.066C90.5367 115.344 90.7793 115.538 91.0407 115.65C91.3073 115.757 91.5927 115.81 91.8967 115.81C92.1953 115.81 92.4647 115.754 92.7047 115.642C92.95 115.53 93.1553 115.36 93.3207 115.13C93.4913 114.901 93.622 114.613 93.7127 114.266C93.8033 113.914 93.8487 113.501 93.8487 113.026C93.8487 112.546 93.8087 112.141 93.7287 111.81C93.654 111.474 93.5447 111.202 93.4007 110.994C93.2567 110.786 93.0807 110.634 92.8727 110.538C92.67 110.442 92.438 110.394 92.1767 110.394ZM99.3232 112.962L96.6272 108.986H98.5312C98.6752 108.986 98.7818 109.008 98.8512 109.05C98.9205 109.088 98.9818 109.152 99.0352 109.242L100.755 111.986C100.782 111.896 100.814 111.805 100.851 111.714C100.894 111.624 100.944 111.533 101.003 111.442L102.387 109.282C102.451 109.181 102.518 109.106 102.587 109.058C102.656 109.01 102.742 108.986 102.843 108.986H104.659L101.955 112.874L104.771 117.194H102.867C102.723 117.194 102.606 117.157 102.515 117.082C102.43 117.008 102.358 116.922 102.299 116.826L100.555 113.97C100.507 114.162 100.44 114.322 100.355 114.45L98.8192 116.826C98.7605 116.917 98.6885 117.002 98.6032 117.082C98.5178 117.157 98.4112 117.194 98.2832 117.194H96.5152L99.3232 112.962ZM107.684 112.178C107.684 111.08 107.55 110 107.284 108.938C107.017 107.872 106.638 106.872 106.148 105.938C106.078 105.8 106.044 105.68 106.044 105.578C106.044 105.477 106.07 105.394 106.124 105.33C106.177 105.261 106.241 105.205 106.316 105.162L107.196 104.634C107.59 105.242 107.926 105.853 108.204 106.466C108.481 107.074 108.708 107.69 108.884 108.314C109.06 108.938 109.188 109.573 109.268 110.218C109.353 110.858 109.396 111.512 109.396 112.178C109.396 112.845 109.353 113.498 109.268 114.138C109.188 114.778 109.06 115.41 108.884 116.034C108.708 116.658 108.481 117.277 108.204 117.89C107.926 118.504 107.59 119.114 107.196 119.722L106.316 119.186C106.241 119.144 106.177 119.088 106.124 119.018C106.07 118.954 106.044 118.869 106.044 118.762C106.044 118.714 106.049 118.661 106.06 118.602C106.076 118.544 106.102 118.48 106.14 118.41C106.636 117.477 107.017 116.48 107.284 115.418C107.55 114.357 107.684 113.277 107.684 112.178Z" fill="#75758F"/>
<path d="M102.559 41.5716V45.3602H96.7731V51.0432H92.916V45.3602H87.1303V41.5716H92.916V35.8887H96.7731V41.5716H102.559ZM86.166 54.8318C86.9335 54.8315 87.6694 54.5318 88.212 53.9986C88.7545 53.4654 89.0591 52.7423 89.0588 51.9884C89.0586 51.2346 88.7535 50.5117 88.2106 49.9788C87.6677 49.4459 86.9316 49.1467 86.1641 49.147C85.784 49.1471 85.4078 49.2207 85.0567 49.3637C84.7057 49.5067 84.3867 49.7161 84.1181 49.9802C83.8495 50.2442 83.6364 50.5576 83.4911 50.9025C83.3458 51.2474 83.2711 51.6171 83.2712 51.9903C83.2713 52.3636 83.3463 52.7332 83.4919 53.078C83.6374 53.4228 83.8507 53.7361 84.1195 53.9999C84.3883 54.2638 84.7074 54.4731 85.0585 54.6158C85.4096 54.7585 85.786 54.8319 86.166 54.8318ZM92.916 60.958L91.9266 59.8782C91.5649 59.4826 91.1224 59.1662 90.628 58.9496C90.1336 58.733 89.5983 58.6211 89.0569 58.6211C88.5156 58.6211 87.9803 58.733 87.4858 58.9496C86.9914 59.1662 86.5489 59.4826 86.1872 59.8782L84.924 61.2611L75.5589 51.0432L69.7732 57.3569V45.3602H83.2731V41.5716H69.7732C68.7502 41.5716 67.7691 41.9708 67.0457 42.6813C66.3224 43.3918 65.916 44.3554 65.916 45.3602V68.092C65.916 69.0968 66.3224 70.0604 67.0457 70.771C67.7691 71.4815 68.7502 71.8806 69.7732 71.8806H92.916C93.939 71.8806 94.92 71.4815 95.6434 70.771C96.3668 70.0604 96.7731 69.0968 96.7731 68.092V54.8318H92.916V60.958Z" fill="#75758F"/>
<defs>
<filter id="filter0_d" x="0.613281" y="0.606445" width="162.214" height="159.474" filterUnits="userSpaceOnUse" color-interpolation-filters="sRGB">
<feFlood flood-opacity="0" result="BackgroundImageFix"/>
<feColorMatrix in="SourceAlpha" type="matrix" values="0 0 0 0 0 0 0 0 0 0 0 0 0 0 0 0 0 0 127 0"/>
<feOffset dy="4"/>
<feGaussianBlur stdDeviation="2"/>
<feColorMatrix type="matrix" values="0 0 0 0 0 0 0 0 0 0 0 0 0 0 0 0 0 0 0.25 0"/>
<feBlend mode="normal" in2="BackgroundImageFix" result="effect1_dropShadow"/>
<feBlend mode="normal" in="SourceGraphic" in2="effect1_dropShadow" result="shape"/>
</filter>
</defs>
</svg>
