<svg width="31" height="31" viewBox="0 0 31 31" fill="none" xmlns="http://www.w3.org/2000/svg">
<path fill-rule="evenodd" clip-rule="evenodd" d="M15.7959 30.1553C24.0802 30.1553 30.7959 23.4395 30.7959 15.1553C30.7959 6.871 24.0802 0.155273 15.7959 0.155273C7.51163 0.155273 0.795898 6.871 0.795898 15.1553C0.795898 23.4395 7.51163 30.1553 15.7959 30.1553Z" fill="white"/>
<path fill-rule="evenodd" clip-rule="evenodd" d="M22.0355 12.8217C22.3295 10.8564 20.8332 9.79997 18.7872 9.0952L19.4509 6.43304L17.8304 6.0292L17.1843 8.6212C16.7583 8.51504 16.3207 8.41489 15.8859 8.31566L16.5367 5.70658L14.9172 5.30273L14.253 7.96397C13.9004 7.88366 13.5543 7.80427 13.2183 7.72073L13.2201 7.71243L10.9853 7.15443L10.5543 8.8852C10.5543 8.8852 11.7566 9.16073 11.7312 9.17781C12.3875 9.34166 12.5061 9.77597 12.4863 10.1203L11.7303 13.153C11.7755 13.1646 11.8341 13.1812 11.8987 13.207C11.8447 13.1937 11.787 13.1789 11.7275 13.1646L10.6678 17.413C10.5875 17.6124 10.3839 17.9115 9.92518 17.798C9.94133 17.8215 8.74733 17.504 8.74733 17.504L7.94287 19.3589L10.0516 19.8846C10.4439 19.9829 10.8284 20.0858 11.2069 20.1827L10.5363 22.8754L12.1549 23.2792L12.819 20.6152C13.2612 20.7352 13.6904 20.846 14.1104 20.9503L13.4486 23.6018L15.069 24.0057L15.7396 21.3181C18.5029 21.841 20.5807 21.6301 21.4553 19.1309C22.1601 17.1186 21.4203 15.9578 19.9664 15.2009C21.0252 14.9567 21.8227 14.2603 22.0355 12.8217ZM18.334 18.0135C17.8333 20.0258 14.4451 18.9379 13.3466 18.6651L14.2365 15.0979C15.3349 15.3721 18.8574 15.9148 18.334 18.0135ZM18.8349 12.7924C18.378 14.6229 15.558 13.6929 14.6432 13.4649L15.45 10.2295C16.3647 10.4575 19.3107 10.883 18.8349 12.7924Z" fill="#1F2337"/>
</svg>
