<svg width="18" height="23" viewBox="0 0 18 23" fill="none" xmlns="http://www.w3.org/2000/svg">
<path fill-rule="evenodd" clip-rule="evenodd" d="M17.0268 9.67833C17.3698 7.38556 15.6241 6.15302 13.2371 5.33079L14.0115 2.22494L12.1209 1.75379L11.3671 4.77779C10.8701 4.65394 10.3596 4.5371 9.85237 4.42133L10.6116 1.3774L8.72214 0.90625L7.9473 4.01102C7.53591 3.91733 7.13206 3.82471 6.74006 3.72725L6.74222 3.71756L4.13499 3.06656L3.63206 5.08579C3.63206 5.08579 5.03476 5.40725 5.00514 5.42717C5.77083 5.61833 5.90922 6.12502 5.88607 6.52671L5.00406 10.0649C5.05683 10.0784 5.12522 10.0978 5.2006 10.1279C5.1376 10.1123 5.0703 10.0951 5.00083 10.0784L3.76453 15.0349C3.67083 15.2676 3.43337 15.6165 2.89814 15.484C2.91699 15.5115 1.52399 15.141 1.52399 15.141L0.585449 17.3051L3.04568 17.9184C3.50337 18.0331 3.95191 18.1532 4.39345 18.2662L3.61106 21.4076L5.49945 21.8788L6.2743 18.7708C6.79014 18.9108 7.29091 19.04 7.78091 19.1617L7.00876 22.2552L8.8993 22.7263L9.68168 19.5909C12.9054 20.2009 15.3296 19.9549 16.35 17.0391C17.1722 14.6914 16.3091 13.3372 14.6129 12.4541C15.8481 12.1693 16.7786 11.3567 17.0268 9.67833ZM12.7066 15.7354C12.1224 18.0831 8.16956 16.8139 6.88802 16.4957L7.92618 12.3339C9.20771 12.6538 13.3173 13.287 12.7066 15.7354ZM13.2913 9.6445C12.7583 11.78 9.46827 10.695 8.40104 10.429L9.34227 6.65442C10.4095 6.92042 13.8465 7.41688 13.2913 9.6445Z" fill="white"/>
</svg>
