<svg width="28" height="28" viewBox="0 0 28 28" fill="none" xmlns="http://www.w3.org/2000/svg">
<path d="M7.36903 10.5286H7.31152C8.48835 8.21533 10.8914 6.63021 13.6648 6.63021C15.4538 6.63021 17.0883 7.28945 18.3393 8.37835H18.383H21.2225C19.5413 6.01899 16.7827 4.47998 13.6648 4.47998C8.90661 4.47998 4.98591 8.06323 4.4531 12.6788L10.4399 12.6783V14.8281H4.45215L4.45453 14.8447C4.5415 15.5862 4.71594 16.3006 4.96689 16.9783H10.439V22.4504C11.121 22.7033 11.842 22.8787 12.5887 22.9652V16.9788H14.7385V22.9656C15.4857 22.8791 16.2062 22.7042 16.8882 22.4509V16.9783H22.3603C22.733 15.974 22.9364 14.8875 22.9364 13.7535C22.9364 12.6194 22.733 11.5329 22.3603 10.5286H21.087H7.36903ZM14.739 14.8286H12.5892V12.6788H14.739V14.8286ZM20.7068 14.8286H16.8892V12.6788H20.7068C20.76 13.0296 20.7876 13.3884 20.7876 13.7539C20.7876 14.119 20.76 14.4778 20.7068 14.8286Z" fill="#1F2337"/>
<path d="M13.6578 0.157959C6.14913 0.157959 0.0625 6.24506 0.0625 13.7533C0.0625 21.2615 6.14913 27.3486 13.6578 27.3486C21.1666 27.3486 27.2532 21.2615 27.2532 13.7533C27.2532 6.24506 21.1666 0.157959 13.6578 0.157959ZM13.6578 25.1951C7.33879 25.1951 2.21606 20.0723 2.21606 13.7533C2.21606 7.43425 7.33879 2.31152 13.6578 2.31152C19.9769 2.31152 25.0996 7.43425 25.0996 13.7533C25.0996 20.0723 19.9769 25.1951 13.6578 25.1951Z" fill="#1F2337"/>
</svg>
