<svg width="18" height="20" viewBox="0 0 18 20" fill="none" xmlns="http://www.w3.org/2000/svg">
<path d="M15.7039 18.0208H5.83354V5.45854H15.7039V18.0208ZM15.7039 3.66393H5.83354C5.35758 3.66393 4.90112 3.85301 4.56456 4.18956C4.22801 4.52612 4.03893 4.98258 4.03893 5.45854V18.0208C4.03893 18.4968 4.22801 18.9533 4.56456 19.2898C4.90112 19.6264 5.35758 19.8154 5.83354 19.8154H15.7039C16.1799 19.8154 16.6363 19.6264 16.9729 19.2898C17.3095 18.9533 17.4985 18.4968 17.4985 18.0208V5.45854C17.4985 4.98258 17.3095 4.52612 16.9729 4.18956C16.6363 3.85301 16.1799 3.66393 15.7039 3.66393ZM13.012 0.074707H2.24432C1.76836 0.074707 1.31189 0.263782 0.975337 0.600337C0.638782 0.936892 0.449707 1.39336 0.449707 1.86932V14.4316H2.24432V1.86932H13.012V0.074707Z" fill="#4048FF"/>
</svg>
