<svg width="27" height="24" viewBox="0 0 27 24" fill="none" xmlns="http://www.w3.org/2000/svg">
<path d="M18.8868 15.8236L20.3252 14.3851C20.55 14.1604 20.9411 14.3177 20.9411 14.6414V21.1773C20.9411 22.3686 19.9746 23.335 18.7834 23.335H2.96041C1.76919 23.335 0.802734 22.3686 0.802734 21.1773V5.35436C0.802734 4.16314 1.76919 3.19668 2.96041 3.19668H15.2547C15.5738 3.19668 15.7357 3.58327 15.5109 3.81252L14.0725 5.25097C14.005 5.3184 13.9151 5.35436 13.8162 5.35436H2.96041V21.1773H18.7834V16.0753C18.7834 15.9809 18.8194 15.891 18.8868 15.8236ZM25.9262 6.75236L14.1219 18.5567L10.0583 19.0062C8.88054 19.1365 7.87812 18.1431 8.00848 16.9564L8.458 12.8928L20.2623 1.08845C21.2917 0.0590581 22.9549 0.0590581 23.9798 1.08845L25.9217 3.03036C26.9511 4.05975 26.9511 5.72746 25.9262 6.75236ZM21.485 8.14136L18.8733 5.52967L10.5213 13.8862L10.1931 16.8215L13.1285 16.4934L21.485 8.14136ZM24.3979 4.55872L22.4559 2.61681C22.2716 2.4325 21.9705 2.4325 21.7907 2.61681L20.4016 4.00581L23.0133 6.6175L24.4023 5.2285C24.5822 5.0397 24.5822 4.74302 24.3979 4.55872Z" fill="#4048FF"/>
</svg>
