<svg width="25" height="26" viewBox="0 0 25 26" fill="none" xmlns="http://www.w3.org/2000/svg">
<path d="M12.0635 0.775488C5.47289 0.775488 0.131445 6.19481 0.131445 12.8755C0.131445 19.5562 5.47289 24.9755 12.0635 24.9755C18.654 24.9755 23.9955 19.5562 23.9955 12.8755C23.9955 6.19481 18.654 0.775488 12.0635 0.775488ZM12.0635 22.7398C6.69525 22.7398 2.33866 18.3234 2.33866 12.8755C2.33866 7.4276 6.69525 3.0112 12.0635 3.0112C17.4317 3.0112 21.7883 7.4276 21.7883 12.8755C21.7883 18.3234 17.4317 22.7398 12.0635 22.7398Z" fill="#4048FF" stroke="#4048FF" stroke-width="0.2"/>
<path d="M10.6959 8.16096C10.6959 8.52802 10.8397 8.88033 11.096 9.14031C11.3524 9.40033 11.7004 9.54667 12.0636 9.54667C12.4268 9.54667 12.7749 9.40033 13.0313 9.14031C13.2876 8.88033 13.4314 8.52802 13.4314 8.16096C13.4314 7.7939 13.2876 7.44159 13.0313 7.18161C12.7749 6.92159 12.4268 6.77524 12.0636 6.77524C11.7004 6.77524 11.3524 6.92159 11.096 7.18161C10.8397 7.44159 10.6959 7.7939 10.6959 8.16096ZM11.4298 11.061C11.257 11.061 11.1185 11.2035 11.1185 11.3752V18.661C11.1185 18.8327 11.257 18.9752 11.4298 18.9752H12.6975C12.8703 18.9752 13.0088 18.8327 13.0088 18.661V11.3752C13.0088 11.2035 12.8703 11.061 12.6975 11.061H11.4298Z" fill="#4048FF" stroke="#4048FF" stroke-width="0.2"/>
</svg>
