<svg width="308" height="56" viewBox="0 0 308 56" fill="none" xmlns="http://www.w3.org/2000/svg">
<g filter="url(#filter0_d)">
<rect x="4" width="300" height="48" rx="24" fill="#4048FF"/>
</g>
<path d="M146.669 19.64V23.249H151.367V25.373H146.669V30.584H143.951V17.525H152.267V19.64H146.669ZM156.883 21.305V30.584H154.399V21.305H156.883ZM157.18 18.668C157.18 18.878 157.138 19.073 157.054 19.253C156.97 19.433 156.856 19.592 156.712 19.73C156.574 19.868 156.409 19.976 156.217 20.054C156.031 20.132 155.83 20.171 155.614 20.171C155.41 20.171 155.215 20.132 155.029 20.054C154.849 19.976 154.69 19.868 154.552 19.73C154.414 19.592 154.303 19.433 154.219 19.253C154.141 19.073 154.102 18.878 154.102 18.668C154.102 18.458 154.141 18.263 154.219 18.083C154.303 17.897 154.414 17.735 154.552 17.597C154.69 17.459 154.849 17.351 155.029 17.273C155.215 17.195 155.41 17.156 155.614 17.156C155.83 17.156 156.031 17.195 156.217 17.273C156.409 17.351 156.574 17.459 156.712 17.597C156.856 17.735 156.97 17.897 157.054 18.083C157.138 18.263 157.18 18.458 157.18 18.668ZM162.045 17.165V30.584H159.561V17.165H162.045ZM167.857 30.728C167.437 30.728 167.065 30.668 166.741 30.548C166.417 30.422 166.144 30.245 165.922 30.017C165.7 29.789 165.532 29.513 165.418 29.189C165.304 28.865 165.247 28.499 165.247 28.091V23.087H164.374C164.242 23.087 164.128 23.045 164.032 22.961C163.942 22.877 163.897 22.751 163.897 22.583V21.611L165.382 21.341L165.886 18.938C165.952 18.668 166.135 18.533 166.435 18.533H167.731V21.359H170.125V23.087H167.731V27.929C167.731 28.187 167.791 28.391 167.911 28.541C168.037 28.691 168.214 28.766 168.442 28.766C168.562 28.766 168.664 28.754 168.748 28.73C168.832 28.7 168.904 28.67 168.964 28.64C169.024 28.604 169.078 28.574 169.126 28.55C169.18 28.52 169.234 28.505 169.288 28.505C169.36 28.505 169.42 28.523 169.468 28.559C169.516 28.589 169.564 28.643 169.612 28.721L170.359 29.909C170.017 30.179 169.63 30.383 169.198 30.521C168.766 30.659 168.319 30.728 167.857 30.728ZM174.327 22.835C174.621 22.307 174.96 21.89 175.344 21.584C175.728 21.278 176.178 21.125 176.694 21.125C177.114 21.125 177.456 21.224 177.72 21.422L177.558 23.258C177.528 23.378 177.48 23.462 177.414 23.51C177.354 23.552 177.27 23.573 177.162 23.573C177.066 23.573 176.928 23.561 176.748 23.537C176.568 23.507 176.4 23.492 176.244 23.492C176.016 23.492 175.812 23.525 175.632 23.591C175.458 23.657 175.302 23.75 175.164 23.87C175.026 23.99 174.9 24.137 174.786 24.311C174.678 24.485 174.576 24.683 174.48 24.905V30.584H171.996V21.305H173.463C173.715 21.305 173.889 21.35 173.985 21.44C174.081 21.53 174.15 21.686 174.192 21.908L174.327 22.835ZM184.996 24.851C184.996 24.593 184.96 24.347 184.888 24.113C184.822 23.879 184.714 23.672 184.564 23.492C184.414 23.312 184.225 23.171 183.997 23.069C183.769 22.961 183.496 22.907 183.178 22.907C182.584 22.907 182.119 23.075 181.783 23.411C181.447 23.747 181.228 24.227 181.126 24.851H184.996ZM181.09 26.327C181.168 27.197 181.414 27.833 181.828 28.235C182.248 28.637 182.794 28.838 183.466 28.838C183.808 28.838 184.102 28.799 184.348 28.721C184.6 28.637 184.819 28.547 185.005 28.451C185.197 28.349 185.368 28.259 185.518 28.181C185.674 28.097 185.827 28.055 185.977 28.055C186.169 28.055 186.319 28.127 186.427 28.271L187.147 29.171C186.883 29.477 186.592 29.732 186.274 29.936C185.956 30.134 185.626 30.293 185.284 30.413C184.942 30.527 184.597 30.605 184.249 30.647C183.901 30.695 183.565 30.719 183.241 30.719C182.593 30.719 181.987 30.614 181.423 30.404C180.865 30.188 180.376 29.873 179.956 29.459C179.542 29.039 179.215 28.52 178.975 27.902C178.735 27.284 178.615 26.567 178.615 25.751C178.615 25.121 178.717 24.527 178.921 23.969C179.131 23.411 179.431 22.925 179.821 22.511C180.211 22.097 180.685 21.77 181.243 21.53C181.801 21.284 182.431 21.161 183.133 21.161C183.727 21.161 184.273 21.257 184.771 21.449C185.275 21.635 185.707 21.908 186.067 22.268C186.433 22.628 186.715 23.072 186.913 23.6C187.117 24.122 187.219 24.719 187.219 25.391C187.219 25.577 187.21 25.73 187.192 25.85C187.174 25.97 187.144 26.066 187.102 26.138C187.06 26.21 187.003 26.261 186.931 26.291C186.859 26.315 186.766 26.327 186.652 26.327H181.09ZM191.632 22.835C191.926 22.307 192.265 21.89 192.649 21.584C193.033 21.278 193.483 21.125 193.999 21.125C194.419 21.125 194.761 21.224 195.025 21.422L194.863 23.258C194.833 23.378 194.785 23.462 194.719 23.51C194.659 23.552 194.575 23.573 194.467 23.573C194.371 23.573 194.233 23.561 194.053 23.537C193.873 23.507 193.705 23.492 193.549 23.492C193.321 23.492 193.117 23.525 192.937 23.591C192.763 23.657 192.607 23.75 192.469 23.87C192.331 23.99 192.205 24.137 192.091 24.311C191.983 24.485 191.881 24.683 191.785 24.905V30.584H189.301V21.305H190.768C191.02 21.305 191.194 21.35 191.29 21.44C191.386 21.53 191.455 21.686 191.497 21.908L191.632 22.835Z" fill="white"/>
<path fill-rule="evenodd" clip-rule="evenodd" d="M108.81 35.2626V21.8188H110.378V35.2626H108.81Z" fill="white"/>
<path fill-rule="evenodd" clip-rule="evenodd" d="M108.81 16.5549V13.2627H110.378V16.5549H108.81Z" fill="white"/>
<path fill-rule="evenodd" clip-rule="evenodd" d="M109.596 20.7792C110.402 20.7792 111.056 20.1256 111.056 19.3193C111.056 18.513 110.402 17.8593 109.596 17.8593C108.79 17.8593 108.136 18.513 108.136 19.3193C108.136 20.1256 108.79 20.7792 109.596 20.7792ZM109.596 22.347C111.268 22.347 112.624 20.9914 112.624 19.3193C112.624 17.6471 111.268 16.2915 109.596 16.2915C107.924 16.2915 106.568 17.6471 106.568 19.3193C106.568 20.9914 107.924 22.347 109.596 22.347Z" fill="white"/>
<path fill-rule="evenodd" clip-rule="evenodd" d="M116.359 25.5949V13.2627H117.927V25.5949H116.359Z" fill="white"/>
<path fill-rule="evenodd" clip-rule="evenodd" d="M116.359 35.2615V30.4985H117.927V35.2615H116.359Z" fill="white"/>
<path fill-rule="evenodd" clip-rule="evenodd" d="M117.145 29.5048C117.951 29.5048 118.605 28.8512 118.605 28.0448C118.605 27.2385 117.951 26.5849 117.145 26.5849C116.339 26.5849 115.685 27.2385 115.685 28.0448C115.685 28.8512 116.339 29.5048 117.145 29.5048ZM117.145 31.0726C118.817 31.0726 120.173 29.717 120.173 28.0448C120.173 26.3727 118.817 25.0171 117.145 25.0171C115.473 25.0171 114.117 26.3727 114.117 28.0448C114.117 29.717 115.473 31.0726 117.145 31.0726Z" fill="white"/>
<path fill-rule="evenodd" clip-rule="evenodd" d="M123.908 35.2627V21.8188H125.476V35.2627H123.908Z" fill="white"/>
<path fill-rule="evenodd" clip-rule="evenodd" d="M123.908 16.5549V13.2627H125.476V16.5549H123.908Z" fill="white"/>
<path fill-rule="evenodd" clip-rule="evenodd" d="M124.692 20.7792C125.498 20.7792 126.152 20.1256 126.152 19.3193C126.152 18.513 125.498 17.8593 124.692 17.8593C123.886 17.8593 123.232 18.513 123.232 19.3193C123.232 20.1256 123.886 20.7792 124.692 20.7792ZM124.692 22.347C126.364 22.347 127.72 20.9914 127.72 19.3193C127.72 17.6471 126.364 16.2915 124.692 16.2915C123.02 16.2915 121.664 17.6471 121.664 19.3193C121.664 20.9914 123.02 22.347 124.692 22.347Z" fill="white"/>
<defs>
<filter id="filter0_d" x="0" y="0" width="308" height="56" filterUnits="userSpaceOnUse" color-interpolation-filters="sRGB">
<feFlood flood-opacity="0" result="BackgroundImageFix"/>
<feColorMatrix in="SourceAlpha" type="matrix" values="0 0 0 0 0 0 0 0 0 0 0 0 0 0 0 0 0 0 127 0"/>
<feOffset dy="4"/>
<feGaussianBlur stdDeviation="2"/>
<feColorMatrix type="matrix" values="0 0 0 0 0 0 0 0 0 0 0 0 0 0 0 0 0 0 0.25 0"/>
<feBlend mode="normal" in2="BackgroundImageFix" result="effect1_dropShadow"/>
<feBlend mode="normal" in="SourceGraphic" in2="effect1_dropShadow" result="shape"/>
</filter>
</defs>
</svg>
