<svg width="56" height="35" viewBox="0 0 56 35" fill="none" xmlns="http://www.w3.org/2000/svg">
<rect x="0.5" y="0.5" width="54.75" height="33.5" rx="16.75" fill="#F6F6FF" stroke="#D6D6E8"/>
<path d="M22.4491 12.8377V23.9097H20.9931V15.6537L17.3131 23.9097H16.2891L12.5931 15.6377V23.9097H11.1371V12.8377H12.7051L16.8011 21.9897L20.8971 12.8377H22.4491ZM31.9904 21.4297H27.1264L26.2304 23.9097H24.6944L28.7264 12.8217H30.4064L34.4224 23.9097H32.8864L31.9904 21.4297ZM31.5744 20.2457L29.5584 14.6137L27.5424 20.2457H31.5744ZM41.2196 18.3417L44.6436 23.9097H42.9956L40.3236 19.5577L37.7796 23.9097H36.1636L39.5716 18.3417L36.1476 12.7577H37.7796L40.4676 17.1257L43.0276 12.7577H44.6596L41.2196 18.3417Z" fill="#75758F"/>
</svg>
