<svg width="40" height="40" viewBox="0 0 40 40" fill="none" xmlns="http://www.w3.org/2000/svg">
<rect width="39.39" height="39.39" rx="19.695" fill="#F7931A"/>
<path d="M24.9959 21.3201C26.3939 21.0937 27.5097 20.2489 27.9176 18.3781C28.4865 15.8209 26.7162 14.3316 24.0912 13.2285L25.2 9.79192L23.0998 9.11434L22.0219 12.4554C21.4762 12.2794 20.9129 12.1129 20.3492 11.9456L21.4358 8.57751L19.3356 7.89993L18.2269 11.3365C17.4472 11.111 16.5515 10.809 14.0133 9.97715L13.2917 12.2138C14.9588 12.7195 15.8637 12.8937 15.7202 14.0209L12.6843 23.4306C12.2855 24.2331 11.6495 23.8941 10.1554 23.383L8.92782 25.7423C12.7571 26.9778 13.1376 27.1158 13.1376 27.1158L12.1881 30.0587L14.2883 30.7363L15.2246 27.8342C15.7928 28.0329 16.3516 28.2131 16.8841 28.3849L15.9521 31.2738L18.0523 31.9514L19.0017 29.0085C22.5817 29.9525 25.2199 29.8251 26.6028 26.6122C27.7058 24.0323 26.8347 22.4408 24.9971 21.3212L24.9959 21.3201ZM19.5979 14.4142C20.784 14.7969 24.6123 15.6252 23.8159 18.0938C23.0548 20.453 19.4333 18.9834 18.2472 18.6007L19.5979 14.4142ZM16.0826 25.3099L17.5698 20.7002C18.9879 21.1578 23.4585 22.1635 22.5875 24.8634C21.7471 27.4684 17.501 25.7667 16.0828 25.3092L16.0826 25.3099Z" fill="white"/>
</svg>
