<svg width="25" height="25" viewBox="0 0 25 25" fill="none" xmlns="http://www.w3.org/2000/svg">
<path d="M18.5174 7.47025C18.8929 7.09479 18.8929 6.48606 18.5174 6.11061C18.142 5.73515 17.5333 5.73515 17.1578 6.11061L12.4473 10.8211L7.73673 6.11061C7.36127 5.73515 6.75254 5.73515 6.37709 6.11061C6.00163 6.48606 6.00163 7.0948 6.37709 7.47025L11.0876 12.1808L6.37709 16.8913C6.00163 17.2668 6.00163 17.8755 6.37709 18.251C6.75254 18.6264 7.36127 18.6264 7.73673 18.251L12.4473 13.5404L17.1578 18.251C17.5333 18.6264 18.142 18.6264 18.5174 18.251C18.8929 17.8755 18.8929 17.2668 18.5174 16.8913L13.8069 12.1808L18.5174 7.47025Z" fill="#009775"/>
</svg>
