<svg width="57" height="36" viewBox="0 0 57 36" fill="none" xmlns="http://www.w3.org/2000/svg">
<rect x="1.40649" y="1.20508" width="54.75" height="33.5" rx="13.5" stroke="#75758F"/>
<path d="M16.1547 12.9512L18.8939 20.6855L21.6185 12.9512H24.5043V23.6152H22.2997V20.7002L22.5194 15.6685L19.641 23.6152H18.1322L15.2611 15.6758L15.4808 20.7002V23.6152H13.2836V12.9512H16.1547ZM32.5756 21.418H28.723L27.9906 23.6152H25.6542L29.6239 12.9512H31.66L35.6517 23.6152H33.3153L32.5756 21.418ZM29.3163 19.6382H31.9823L30.642 15.6465L29.3163 19.6382ZM40.4637 16.6279L42.4633 12.9512H44.9901L41.8846 18.2393L45.0707 23.6152H42.5145L40.4637 19.8799L38.413 23.6152H35.8568L39.0429 18.2393L35.9374 12.9512H38.4642L40.4637 16.6279Z" fill="#75758F"/>
</svg>
