<svg width="40" height="40" viewBox="0 0 40 40" fill="none" xmlns="http://www.w3.org/2000/svg">
<circle cx="19.695" cy="19.695" r="19.695" fill="#00041B"/>
<path d="M19.6318 34.3136C19.695 34.3136 19.7371 34.3136 19.8003 34.3136C19.8214 34.3136 19.8635 34.3136 19.8845 34.3136C19.9477 34.3136 20.0109 34.3136 20.0531 34.3136C20.0741 34.3136 20.0952 34.3136 20.1163 34.3136C20.2005 34.3136 20.2848 34.3136 20.369 34.2925C20.369 34.2925 20.369 34.2925 20.3901 34.2925C20.4743 34.2925 20.5375 34.2925 20.6218 34.2715C20.6429 34.2715 20.6639 34.2715 20.685 34.2715C20.7482 34.2715 20.8114 34.2715 20.8746 34.2504C20.8956 34.2504 20.9167 34.2504 20.9378 34.2504C21.0009 34.2504 21.0641 34.2293 21.1484 34.2293C21.1695 34.2293 21.1695 34.2293 21.1905 34.2293C21.2748 34.2293 21.359 34.2083 21.4433 34.2083C21.5276 34.2083 21.5907 34.1872 21.675 34.1662C21.6961 34.1662 21.7171 34.1662 21.7171 34.1662C21.7803 34.1662 21.8435 34.1451 21.9067 34.1451C21.9278 34.1451 21.9278 34.1451 21.9488 34.1451C22.0331 34.124 22.0963 34.124 22.1805 34.103C22.3491 34.0819 22.5176 34.0398 22.665 33.9976C22.6861 33.9976 22.6861 33.9976 22.7071 33.9976C22.7703 33.9766 22.8546 33.9766 22.9178 33.9555H22.9388C23.1074 33.9134 23.2548 33.8713 23.4233 33.8291C21.4012 33.8923 19.7582 33.6185 18.726 33.3868C16.409 32.8812 14.1972 31.9755 12.3225 30.4167C9.20501 27.8048 7.60413 24.0554 7.64626 20.327C7.66733 17.5465 8.61521 14.7661 10.5321 12.4911C12.9334 9.64746 16.3458 8.1519 19.8424 8.06765C20.0109 8.06765 20.1584 8.06765 20.3269 8.06765V5.26611C20.1373 5.26611 19.9688 5.26611 19.7792 5.26611C18.705 5.28718 17.6517 5.41356 16.6196 5.64527C15.5664 5.87697 14.5553 6.23507 13.5864 6.67741C12.5963 7.14082 11.6695 7.70956 10.8059 8.36255C9.92119 9.0366 9.09969 9.81597 8.38351 10.6796C7.70945 11.48 7.11966 12.3437 6.63518 13.2705C6.15071 14.1552 5.77155 15.1031 5.47665 16.072C5.20282 17.0199 4.99218 18.0099 4.90792 19C4.88685 19.3159 4.86579 19.6108 4.84473 19.9268C4.84473 20.0532 4.84473 20.1585 4.84473 20.2849C4.84473 20.3481 4.84473 20.4113 4.84473 20.4744C4.86579 21.5487 4.99218 22.6019 5.22388 23.6341C5.45559 24.6873 5.81368 25.6984 6.25603 26.6673C6.78263 27.8258 7.73052 29.532 9.14182 30.817C11.9223 33.0076 15.44 34.3136 19.2526 34.3136C19.3369 34.3136 19.4211 34.3136 19.5054 34.3136C19.5686 34.3136 19.6107 34.3136 19.6318 34.3136Z" fill="white"/>
<path d="M24.2238 31.6174C23.2549 31.5963 22.0542 31.4489 21.1274 31.2804C16.7882 30.501 13.0598 27.8469 11.6906 23.8447C10.0266 18.9789 12.5753 13.7129 17.4201 12.112C18.368 11.796 19.3159 11.6486 20.2848 11.6486C21.5276 11.6486 22.7704 11.9013 23.9078 12.3647L25.0874 9.85811C24.7293 9.71066 24.3713 9.58428 24.0132 9.45789C22.8125 9.07874 21.5487 8.88916 20.2848 8.88916C19.021 8.88916 17.7571 9.0998 16.5564 9.50002C15.0188 10.0056 13.6075 10.8271 12.4068 11.9013C11.8381 12.4069 11.2904 12.9967 10.827 13.6075C10.3636 14.2184 9.96336 14.8714 9.62633 15.5665C9.28931 16.2616 9.01547 16.9778 8.8259 17.715C8.63632 18.4523 8.48887 19.2317 8.44674 20.011C8.34142 21.6119 8.55206 23.2128 9.07867 24.7294C9.60527 26.2671 10.4478 27.6784 11.6064 28.9212C12.6385 30.0376 13.8392 30.8802 15.2926 31.6595C16.8092 32.46 18.6839 32.8813 20.6429 33.1551C21.9067 33.3236 23.5919 33.3657 24.5819 33.3657C25.4455 33.0498 25.8036 32.9023 26.267 32.7127C26.6672 32.5232 27.0675 32.3336 27.4677 32.1019C27.8679 31.8702 27.9311 31.828 28.6052 31.3857C28.6683 31.3436 28.7315 31.3014 28.7737 31.2593C26.4566 31.6595 25.8668 31.6385 24.2238 31.6174Z" fill="white"/>
<path d="M29.4055 28.4788C28.7525 28.5209 27.8257 28.5841 26.7725 28.5841C24.8978 28.5841 22.6018 28.4156 20.6428 27.7626C17.6096 26.7515 14.7448 24.1606 14.7448 20.9589C14.7448 17.7571 17.3357 15.1873 20.5164 15.1873C22.686 15.1873 24.5607 16.3879 25.5507 18.1363L28.0574 16.8935C27.6572 16.1562 27.1727 15.4822 26.5618 14.8924C25.7825 14.113 24.8556 13.4811 23.8445 13.0598C22.7913 12.6174 21.6749 12.3857 20.5164 12.3857C19.3579 12.3857 18.2415 12.6174 17.1883 13.0598C16.1772 13.4811 15.2504 14.113 14.471 14.8924C13.6916 15.6718 13.0597 16.5986 12.6384 17.6097C12.1961 18.6629 11.9644 19.7793 11.9644 20.9378C11.9644 22.0963 12.2171 23.2549 12.7016 24.3502C13.1439 25.3191 13.7548 26.2249 14.5342 27.0675C15.9034 28.542 17.7781 29.7216 19.7792 30.3956C21.696 31.0275 24.5186 31.2592 27.2569 31.0697C28.0153 31.0065 28.584 30.9433 29.5529 30.7326C30.4798 29.9954 31.3434 29.1528 32.0806 28.226C31.4277 28.2892 30.227 28.4156 29.4055 28.4788Z" fill="white"/>
</svg>
