<svg width="89" height="32" viewBox="0 0 89 32" fill="none" xmlns="http://www.w3.org/2000/svg">
<rect x="0.700195" y="0.5" width="87" height="31" rx="15.5" fill="white" stroke="#D6D6E8"/>
<path d="M28.827 21.6857H30.283V13.4137L33.979 21.6857H35.003L38.683 13.4297V21.6857H40.139V10.6137H38.587L34.491 19.7657L30.395 10.6137H28.827V21.6857ZM42.5443 17.2697C42.5443 19.9897 44.3523 21.8297 46.6883 21.8297C48.3043 21.8297 49.4403 20.9977 49.9683 20.0537V21.6857H51.4403V12.9177H49.9683V14.5177C49.4563 13.6057 48.3363 12.7737 46.7043 12.7737C44.3523 12.7737 42.5443 14.5337 42.5443 17.2697ZM49.9683 17.2857C49.9683 19.3497 48.5923 20.5497 46.9923 20.5497C45.3923 20.5497 44.0323 19.3337 44.0323 17.2697C44.0323 15.2057 45.3923 14.0377 46.9923 14.0377C48.5923 14.0377 49.9683 15.2537 49.9683 17.2857ZM58.9568 21.6857H60.6048L57.7728 17.2537L60.5888 12.9177H59.0688L57.0848 16.1657L55.0048 12.9177H53.3568L56.1888 17.3337L53.3568 21.6857H54.8768L56.8768 18.4217L58.9568 21.6857Z" fill="#ADADC8"/>
</svg>
