<svg width="53" height="53" viewBox="0 0 53 53" fill="none" xmlns="http://www.w3.org/2000/svg">
<g filter="url(#filter0_d)">
<rect x="2.88281" y="0.206787" width="48" height="48" rx="24" fill="white"/>
</g>
<path fill-rule="evenodd" clip-rule="evenodd" d="M22.3828 28.4612H31.3828C31.6812 28.4612 31.9673 28.5733 32.1783 28.7728C32.3893 28.9722 32.5078 29.2428 32.5078 29.5249C32.5078 29.807 32.3893 30.0775 32.1783 30.277C31.9673 30.4764 31.6812 30.5885 31.3828 30.5885H21.2578C20.9594 30.5885 20.6733 30.4764 20.4623 30.277C20.2513 30.0775 20.1328 29.807 20.1328 29.5249V15.6976H19.0078C18.7094 15.6976 18.4233 15.5855 18.2123 15.3861C18.0013 15.1866 17.8828 14.916 17.8828 14.6339C17.8828 14.3519 18.0013 14.0813 18.2123 13.8818C18.4233 13.6824 18.7094 13.5703 19.0078 13.5703H21.2578C21.5562 13.5703 21.8423 13.6824 22.0533 13.8818C22.2643 14.0813 22.3828 14.3519 22.3828 14.6339V24.2067H32.2547L33.6328 18.8885V16.7623C34.9209 16.7623 35.8828 17.7132 35.8828 18.8885C35.8828 19.0438 35.8637 19.198 35.8266 19.3501L34.5317 24.6683C34.2954 25.6415 33.3482 26.3339 32.2547 26.3339H22.4649L22.3828 26.3329V28.4612ZM21.8203 34.843C21.3728 34.843 20.9435 34.6749 20.6271 34.3757C20.3106 34.0765 20.1328 33.6707 20.1328 33.2476C20.1328 32.8244 20.3106 32.4186 20.6271 32.1194C20.9435 31.8202 21.3728 31.6521 21.8203 31.6521C22.2679 31.6521 22.6971 31.8202 23.0136 32.1194C23.33 32.4186 23.5078 32.8244 23.5078 33.2476C23.5078 33.6707 23.33 34.0765 23.0136 34.3757C22.6971 34.6749 22.2679 34.843 21.8203 34.843ZM31.9453 34.843C31.4978 34.843 31.0685 34.6749 30.7521 34.3757C30.4356 34.0765 30.2578 33.6707 30.2578 33.2476C30.2578 32.8244 30.4356 32.4186 30.7521 32.1194C31.0685 31.8202 31.4978 31.6521 31.9453 31.6521C32.3929 31.6521 32.8221 31.8202 33.1386 32.1194C33.455 32.4186 33.6328 32.8244 33.6328 33.2476C33.6328 33.6707 33.455 34.0765 33.1386 34.3757C32.8221 34.6749 32.3929 34.843 31.9453 34.843ZM29.1328 16.7612H30.2578C30.5562 16.7612 30.8423 16.8733 31.0533 17.0728C31.2643 17.2722 31.3828 17.5428 31.3828 17.8249C31.3828 18.107 31.2643 18.3775 31.0533 18.577C30.8423 18.7764 30.5562 18.8885 30.2578 18.8885H29.1328V19.9521C29.1328 20.2342 29.0143 20.5048 28.8033 20.7042C28.5923 20.9037 28.3062 21.0158 28.0078 21.0158C27.7094 21.0158 27.4233 20.9037 27.2123 20.7042C27.0013 20.5048 26.8828 20.2342 26.8828 19.9521V18.8885H25.7578C25.4594 18.8885 25.1733 18.7764 24.9623 18.577C24.7513 18.3775 24.6328 18.107 24.6328 17.8249C24.6328 17.5428 24.7513 17.2722 24.9623 17.0728C25.1733 16.8733 25.4594 16.7612 25.7578 16.7612H26.8828V15.6976C26.8828 15.4155 27.0013 15.145 27.2123 14.9455C27.4233 14.746 27.7094 14.6339 28.0078 14.6339C28.3062 14.6339 28.5923 14.746 28.8033 14.9455C29.0143 15.145 29.1328 15.4155 29.1328 15.6976V16.7612Z" fill="#FFA318"/>
<defs>
<filter id="filter0_d" x="0.882812" y="0.206787" width="52" height="52" filterUnits="userSpaceOnUse" color-interpolation-filters="sRGB">
<feFlood flood-opacity="0" result="BackgroundImageFix"/>
<feColorMatrix in="SourceAlpha" type="matrix" values="0 0 0 0 0 0 0 0 0 0 0 0 0 0 0 0 0 0 127 0"/>
<feOffset dy="2"/>
<feGaussianBlur stdDeviation="1"/>
<feColorMatrix type="matrix" values="0 0 0 0 0 0 0 0 0 0 0 0 0 0 0 0 0 0 0.15 0"/>
<feBlend mode="normal" in2="BackgroundImageFix" result="effect1_dropShadow"/>
<feBlend mode="normal" in="SourceGraphic" in2="effect1_dropShadow" result="shape"/>
</filter>
</defs>
</svg>
