<svg width="56" height="56" viewBox="0 0 56 56" fill="none" xmlns="http://www.w3.org/2000/svg">
<g filter="url(#filter0_d)">
<rect x="3.14339" y="1.46736" width="49.4788" height="49.4788" rx="24.7394" fill="#FFA318" stroke="white" stroke-width="1.47884"/>
<path fill-rule="evenodd" clip-rule="evenodd" d="M23.3828 30.4612H32.3828C32.6812 30.4612 32.9673 30.5733 33.1783 30.7728C33.3893 30.9722 33.5078 31.2428 33.5078 31.5249C33.5078 31.8069 33.3893 32.0775 33.1783 32.277C32.9673 32.4764 32.6812 32.5885 32.3828 32.5885H22.2578C21.9594 32.5885 21.6733 32.4764 21.4623 32.277C21.2513 32.0775 21.1328 31.8069 21.1328 31.5249V17.6976H20.0078C19.7094 17.6976 19.4233 17.5855 19.2123 17.3861C19.0013 17.1866 18.8828 16.916 18.8828 16.6339C18.8828 16.3519 19.0013 16.0813 19.2123 15.8818C19.4233 15.6824 19.7094 15.5703 20.0078 15.5703H22.2578C22.5562 15.5703 22.8423 15.6824 23.0533 15.8818C23.2643 16.0813 23.3828 16.3519 23.3828 16.6339V26.2067H33.2547L34.6328 20.8885V18.7623C35.9209 18.7623 36.8828 19.7132 36.8828 20.8885C36.8828 21.0438 36.8637 21.198 36.8266 21.3501L35.5317 26.6683C35.2954 27.6415 34.3482 28.3339 33.2547 28.3339H23.4649L23.3828 28.3329V30.4612ZM22.8203 36.843C22.3728 36.843 21.9435 36.6749 21.6271 36.3757C21.3106 36.0765 21.1328 35.6707 21.1328 35.2476C21.1328 34.8244 21.3106 34.4186 21.6271 34.1194C21.9435 33.8202 22.3728 33.6521 22.8203 33.6521C23.2679 33.6521 23.6971 33.8202 24.0136 34.1194C24.33 34.4186 24.5078 34.8244 24.5078 35.2476C24.5078 35.6707 24.33 36.0765 24.0136 36.3757C23.6971 36.6749 23.2679 36.843 22.8203 36.843ZM32.9453 36.843C32.4978 36.843 32.0685 36.6749 31.7521 36.3757C31.4356 36.0765 31.2578 35.6707 31.2578 35.2476C31.2578 34.8244 31.4356 34.4186 31.7521 34.1194C32.0685 33.8202 32.4978 33.6521 32.9453 33.6521C33.3929 33.6521 33.8221 33.8202 34.1386 34.1194C34.455 34.4186 34.6328 34.8244 34.6328 35.2476C34.6328 35.6707 34.455 36.0765 34.1386 36.3757C33.8221 36.6749 33.3929 36.843 32.9453 36.843ZM30.1328 18.7612H31.2578C31.5562 18.7612 31.8423 18.8733 32.0533 19.0728C32.2643 19.2722 32.3828 19.5428 32.3828 19.8249C32.3828 20.107 32.2643 20.3775 32.0533 20.577C31.8423 20.7764 31.5562 20.8885 31.2578 20.8885H30.1328V21.9521C30.1328 22.2342 30.0143 22.5048 29.8033 22.7042C29.5923 22.9037 29.3062 23.0158 29.0078 23.0158C28.7094 23.0158 28.4233 22.9037 28.2123 22.7042C28.0013 22.5048 27.8828 22.2342 27.8828 21.9521V20.8885H26.7578C26.4594 20.8885 26.1733 20.7764 25.9623 20.577C25.7513 20.3775 25.6328 20.107 25.6328 19.8249C25.6328 19.5428 25.7513 19.2722 25.9623 19.0728C26.1733 18.8733 26.4594 18.7612 26.7578 18.7612H27.8828V17.6976C27.8828 17.4155 28.0013 17.145 28.2123 16.9455C28.4233 16.746 28.7094 16.6339 29.0078 16.6339C29.3062 16.6339 29.5923 16.746 29.8033 16.9455C30.0143 17.145 30.1328 17.4155 30.1328 17.6976V18.7612Z" fill="white"/>
</g>
<defs>
<filter id="filter0_d" x="0.403809" y="0.727905" width="54.9577" height="54.9577" filterUnits="userSpaceOnUse" color-interpolation-filters="sRGB">
<feFlood flood-opacity="0" result="BackgroundImageFix"/>
<feColorMatrix in="SourceAlpha" type="matrix" values="0 0 0 0 0 0 0 0 0 0 0 0 0 0 0 0 0 0 127 0"/>
<feOffset dy="2"/>
<feGaussianBlur stdDeviation="1"/>
<feColorMatrix type="matrix" values="0 0 0 0 0 0 0 0 0 0 0 0 0 0 0 0 0 0 0.2 0"/>
<feBlend mode="normal" in2="BackgroundImageFix" result="effect1_dropShadow"/>
<feBlend mode="normal" in="SourceGraphic" in2="effect1_dropShadow" result="shape"/>
</filter>
</defs>
</svg>
