<svg width="53" height="53" viewBox="0 0 53 53" fill="none" xmlns="http://www.w3.org/2000/svg">
<g filter="url(#filter0_d)">
<rect x="2.53052" y="0.0761719" width="48" height="48" rx="24" fill="white"/>
</g>
<path fill-rule="evenodd" clip-rule="evenodd" d="M23.1458 27.7352H29.9151C30.1395 27.7352 30.3547 27.8194 30.5134 27.9695C30.6721 28.1195 30.7612 28.323 30.7612 28.5352C30.7612 28.7473 30.6721 28.9508 30.5134 29.1008C30.3547 29.2509 30.1395 29.3352 29.9151 29.3352H22.2997C22.0753 29.3352 21.8601 29.2509 21.7014 29.1008C21.5427 28.9508 21.4535 28.7473 21.4535 28.5352V18.1352H20.6074C20.383 18.1352 20.1677 18.0509 20.0091 17.9008C19.8504 17.7508 19.7612 17.5473 19.7612 17.3352C19.7612 17.123 19.8504 16.9195 20.0091 16.7695C20.1677 16.6194 20.383 16.5352 20.6074 16.5352H22.2997C22.5241 16.5352 22.7393 16.6194 22.898 16.7695C23.0567 16.9195 23.1458 17.123 23.1458 17.3352V24.5352H30.5708L31.6074 20.5352V18.936C32.5762 18.936 33.2997 19.6512 33.2997 20.5352C33.2997 20.652 33.2853 20.768 33.2574 20.8824L32.2835 24.8824C32.1058 25.6144 31.3933 26.1352 30.5708 26.1352H23.2076L23.1458 26.1344V27.7352ZM22.7228 32.5352C22.3861 32.5352 22.0633 32.4087 21.8253 32.1837C21.5873 31.9586 21.4535 31.6534 21.4535 31.3352C21.4535 31.0169 21.5873 30.7117 21.8253 30.4866C22.0633 30.2616 22.3861 30.1352 22.7228 30.1352C23.0594 30.1352 23.3822 30.2616 23.6203 30.4866C23.8583 30.7117 23.992 31.0169 23.992 31.3352C23.992 31.6534 23.8583 31.9586 23.6203 32.1837C23.3822 32.4087 23.0594 32.5352 22.7228 32.5352ZM30.3382 32.5352C30.0015 32.5352 29.6787 32.4087 29.4407 32.1837C29.2026 31.9586 29.0689 31.6534 29.0689 31.3352C29.0689 31.0169 29.2026 30.7117 29.4407 30.4866C29.6787 30.2616 30.0015 30.1352 30.3382 30.1352C30.6748 30.1352 30.9976 30.2616 31.2356 30.4866C31.4737 30.7117 31.6074 31.0169 31.6074 31.3352C31.6074 31.6534 31.4737 31.9586 31.2356 32.1837C30.9976 32.4087 30.6748 32.5352 30.3382 32.5352ZM28.2228 18.9352H29.0689C29.2933 18.9352 29.5086 19.0194 29.6672 19.1695C29.8259 19.3195 29.9151 19.523 29.9151 19.7352C29.9151 19.9473 29.8259 20.1508 29.6672 20.3008C29.5086 20.4509 29.2933 20.5352 29.0689 20.5352H28.2228V21.3352C28.2228 21.5473 28.1336 21.7508 27.9749 21.9008C27.8163 22.0509 27.601 22.1352 27.3766 22.1352C27.1522 22.1352 26.937 22.0509 26.7783 21.9008C26.6196 21.7508 26.5305 21.5473 26.5305 21.3352V20.5352H25.6843C25.4599 20.5352 25.2447 20.4509 25.086 20.3008C24.9273 20.1508 24.8382 19.9473 24.8382 19.7352C24.8382 19.523 24.9273 19.3195 25.086 19.1695C25.2447 19.0194 25.4599 18.9352 25.6843 18.9352H26.5305V18.1352C26.5305 17.923 26.6196 17.7195 26.7783 17.5695C26.937 17.4194 27.1522 17.3352 27.3766 17.3352C27.601 17.3352 27.8163 17.4194 27.9749 17.5695C28.1336 17.7195 28.2228 17.923 28.2228 18.1352V18.9352Z" fill="#4048FF"/>
<defs>
<filter id="filter0_d" x="0.530518" y="0.0761719" width="52" height="52" filterUnits="userSpaceOnUse" color-interpolation-filters="sRGB">
<feFlood flood-opacity="0" result="BackgroundImageFix"/>
<feColorMatrix in="SourceAlpha" type="matrix" values="0 0 0 0 0 0 0 0 0 0 0 0 0 0 0 0 0 0 127 0"/>
<feOffset dy="2"/>
<feGaussianBlur stdDeviation="1"/>
<feColorMatrix type="matrix" values="0 0 0 0 0 0 0 0 0 0 0 0 0 0 0 0 0 0 0.15 0"/>
<feBlend mode="normal" in2="BackgroundImageFix" result="effect1_dropShadow"/>
<feBlend mode="normal" in="SourceGraphic" in2="effect1_dropShadow" result="shape"/>
</filter>
</defs>
</svg>
