<svg width="23" height="22" viewBox="0 0 23 22" fill="none" xmlns="http://www.w3.org/2000/svg">
<path fill-rule="evenodd" clip-rule="evenodd" d="M19.7924 0.00976563H3.50696C2.7871 0.00976563 2.09672 0.295729 1.58771 0.804747C1.07869 1.31376 0.792725 2.00414 0.792725 2.724L0.792725 19.0094C0.792725 19.7293 1.07869 20.4197 1.58771 20.9287C2.09672 21.4377 2.7871 21.7236 3.50696 21.7236H19.7924C20.5122 21.7236 21.2026 21.4377 21.7116 20.9287C22.2206 20.4197 22.5066 19.7293 22.5066 19.0094V2.724C22.5066 2.00414 22.2206 1.31376 21.7116 0.804747C21.2026 0.295729 20.5122 0.00976563 19.7924 0.00976562V0.00976563ZM2.14984 5.24417C2.14984 4.60225 2.75783 4.08112 3.50696 4.08112H19.7924C20.5415 4.08112 21.1495 4.60225 21.1495 5.24417V19.2035C21.1495 19.8454 20.5415 20.3665 19.7924 20.3665H3.50696C2.75783 20.3665 2.14984 19.8454 2.14984 19.2035V5.24417Z" fill="#ADADC8"/>
<path fill-rule="evenodd" clip-rule="evenodd" d="M9.61402 9.50958C9.97395 9.50958 10.3191 9.3666 10.5736 9.11209C10.8282 8.85758 10.9711 8.5124 10.9711 8.15247C10.9711 7.79254 10.8282 7.44735 10.5736 7.19284C10.3191 6.93833 9.97395 6.79535 9.61402 6.79535C9.25409 6.79535 8.9089 6.93833 8.65439 7.19284C8.39988 7.44735 8.2569 7.79254 8.2569 8.15247C8.2569 8.5124 8.39988 8.85758 8.65439 9.11209C8.9089 9.3666 9.25409 9.50958 9.61402 9.50958ZM13.6854 9.50958C14.0453 9.50958 14.3905 9.3666 14.645 9.11209C14.8995 8.85758 15.0425 8.5124 15.0425 8.15247C15.0425 7.79254 14.8995 7.44735 14.645 7.19284C14.3905 6.93833 14.0453 6.79535 13.6854 6.79535C13.3254 6.79535 12.9803 6.93833 12.7257 7.19284C12.4712 7.44735 12.3283 7.79254 12.3283 8.15247C12.3283 8.5124 12.4712 8.85758 12.7257 9.11209C12.9803 9.3666 13.3254 9.50958 13.6854 9.50958ZM17.7567 9.50958C18.1167 9.50958 18.4618 9.3666 18.7164 9.11209C18.9709 8.85758 19.1138 8.5124 19.1138 8.15247C19.1138 7.79254 18.9709 7.44735 18.7164 7.19284C18.4618 6.93833 18.1167 6.79535 17.7567 6.79535C17.3968 6.79535 17.0516 6.93833 16.7971 7.19284C16.5426 7.44735 16.3996 7.79254 16.3996 8.15247C16.3996 8.5124 16.5426 8.85758 16.7971 9.11209C17.0516 9.3666 17.3968 9.50958 17.7567 9.50958ZM5.54266 13.5809C5.90259 13.5809 6.24778 13.438 6.50229 13.1834C6.7568 12.9289 6.89978 12.5838 6.89978 12.2238C6.89978 11.8639 6.7568 11.5187 6.50229 11.2642C6.24778 11.0097 5.90259 10.8667 5.54266 10.8667C5.18273 10.8667 4.83755 11.0097 4.58304 11.2642C4.32853 11.5187 4.18555 11.8639 4.18555 12.2238C4.18555 12.5838 4.32853 12.9289 4.58304 13.1834C4.83755 13.438 5.18273 13.5809 5.54266 13.5809ZM9.61402 13.5809C9.97395 13.5809 10.3191 13.438 10.5736 13.1834C10.8282 12.9289 10.9711 12.5838 10.9711 12.2238C10.9711 11.8639 10.8282 11.5187 10.5736 11.2642C10.3191 11.0097 9.97395 10.8667 9.61402 10.8667C9.25409 10.8667 8.9089 11.0097 8.65439 11.2642C8.39988 11.5187 8.2569 11.8639 8.2569 12.2238C8.2569 12.5838 8.39988 12.9289 8.65439 13.1834C8.9089 13.438 9.25409 13.5809 9.61402 13.5809ZM13.6854 13.5809C14.0453 13.5809 14.3905 13.438 14.645 13.1834C14.8995 12.9289 15.0425 12.5838 15.0425 12.2238C15.0425 11.8639 14.8995 11.5187 14.645 11.2642C14.3905 11.0097 14.0453 10.8667 13.6854 10.8667C13.3254 10.8667 12.9803 11.0097 12.7257 11.2642C12.4712 11.5187 12.3283 11.8639 12.3283 12.2238C12.3283 12.5838 12.4712 12.9289 12.7257 13.1834C12.9803 13.438 13.3254 13.5809 13.6854 13.5809ZM17.7567 13.5809C18.1167 13.5809 18.4618 13.438 18.7164 13.1834C18.9709 12.9289 19.1138 12.5838 19.1138 12.2238C19.1138 11.8639 18.9709 11.5187 18.7164 11.2642C18.4618 11.0097 18.1167 10.8667 17.7567 10.8667C17.3968 10.8667 17.0516 11.0097 16.7971 11.2642C16.5426 11.5187 16.3996 11.8639 16.3996 12.2238C16.3996 12.5838 16.5426 12.9289 16.7971 13.1834C17.0516 13.438 17.3968 13.5809 17.7567 13.5809ZM5.54266 17.6523C5.90259 17.6523 6.24778 17.5093 6.50229 17.2548C6.7568 17.0003 6.89978 16.6551 6.89978 16.2952C6.89978 15.9352 6.7568 15.5901 6.50229 15.3355C6.24778 15.081 5.90259 14.9381 5.54266 14.9381C5.18273 14.9381 4.83755 15.081 4.58304 15.3355C4.32853 15.5901 4.18555 15.9352 4.18555 16.2952C4.18555 16.6551 4.32853 17.0003 4.58304 17.2548C4.83755 17.5093 5.18273 17.6523 5.54266 17.6523ZM9.61402 17.6523C9.97395 17.6523 10.3191 17.5093 10.5736 17.2548C10.8282 17.0003 10.9711 16.6551 10.9711 16.2952C10.9711 15.9352 10.8282 15.5901 10.5736 15.3355C10.3191 15.081 9.97395 14.9381 9.61402 14.9381C9.25409 14.9381 8.9089 15.081 8.65439 15.3355C8.39988 15.5901 8.2569 15.9352 8.2569 16.2952C8.2569 16.6551 8.39988 17.0003 8.65439 17.2548C8.9089 17.5093 9.25409 17.6523 9.61402 17.6523ZM13.6854 17.6523C14.0453 17.6523 14.3905 17.5093 14.645 17.2548C14.8995 17.0003 15.0425 16.6551 15.0425 16.2952C15.0425 15.9352 14.8995 15.5901 14.645 15.3355C14.3905 15.081 14.0453 14.9381 13.6854 14.9381C13.3254 14.9381 12.9803 15.081 12.7257 15.3355C12.4712 15.5901 12.3283 15.9352 12.3283 16.2952C12.3283 16.6551 12.4712 17.0003 12.7257 17.2548C12.9803 17.5093 13.3254 17.6523 13.6854 17.6523Z" fill="#ADADC8"/>
</svg>
