<svg width="23" height="22" viewBox="0 0 23 22" fill="none" xmlns="http://www.w3.org/2000/svg">
<path fill-rule="evenodd" clip-rule="evenodd" d="M19.3903 0.0175781H3.10486C2.385 0.0175781 1.69462 0.303541 1.18561 0.812559C0.676588 1.32158 0.390625 2.01195 0.390625 2.73181L0.390625 19.0172C0.390625 19.7371 0.676588 20.4275 1.18561 20.9365C1.69462 21.4455 2.385 21.7315 3.10486 21.7315H19.3903C20.1101 21.7315 20.8005 21.4455 21.3095 20.9365C21.8185 20.4275 22.1045 19.7371 22.1045 19.0172V2.73181C22.1045 2.01195 21.8185 1.32158 21.3095 0.812559C20.8005 0.303541 20.1101 0.0175781 19.3903 0.0175781V0.0175781ZM1.74774 5.25198C1.74774 4.61006 2.35573 4.08893 3.10486 4.08893H19.3903C20.1394 4.08893 20.7474 4.61006 20.7474 5.25198V19.2113C20.7474 19.8532 20.1394 20.3743 19.3903 20.3743H3.10486C2.35573 20.3743 1.74774 19.8532 1.74774 19.2113V5.25198Z" fill="#ADADC8"/>
<path fill-rule="evenodd" clip-rule="evenodd" d="M9.21167 9.51746C9.5716 9.51746 9.91679 9.37448 10.1713 9.11997C10.4258 8.86546 10.5688 8.52027 10.5688 8.16034C10.5688 7.80041 10.4258 7.45522 10.1713 7.20071C9.91679 6.9462 9.5716 6.80322 9.21167 6.80322C8.85174 6.80322 8.50656 6.9462 8.25205 7.20071C7.99754 7.45522 7.85456 7.80041 7.85456 8.16034C7.85456 8.52027 7.99754 8.86546 8.25205 9.11997C8.50656 9.37448 8.85174 9.51746 9.21167 9.51746ZM13.283 9.51746C13.643 9.51746 13.9881 9.37448 14.2427 9.11997C14.4972 8.86546 14.6401 8.52027 14.6401 8.16034C14.6401 7.80041 14.4972 7.45522 14.2427 7.20071C13.9881 6.9462 13.643 6.80322 13.283 6.80322C12.9231 6.80322 12.5779 6.9462 12.3234 7.20071C12.0689 7.45522 11.9259 7.80041 11.9259 8.16034C11.9259 8.52027 12.0689 8.86546 12.3234 9.11997C12.5779 9.37448 12.9231 9.51746 13.283 9.51746ZM17.3544 9.51746C17.7143 9.51746 18.0595 9.37448 18.314 9.11997C18.5685 8.86546 18.7115 8.52027 18.7115 8.16034C18.7115 7.80041 18.5685 7.45522 18.314 7.20071C18.0595 6.9462 17.7143 6.80322 17.3544 6.80322C16.9945 6.80322 16.6493 6.9462 16.3948 7.20071C16.1402 7.45522 15.9973 7.80041 15.9973 8.16034C15.9973 8.52027 16.1402 8.86546 16.3948 9.11997C16.6493 9.37448 16.9945 9.51746 17.3544 9.51746ZM5.14032 13.5888C5.50025 13.5888 5.84544 13.4458 6.09995 13.1913C6.35446 12.9368 6.49744 12.5916 6.49744 12.2317C6.49744 11.8718 6.35446 11.5266 6.09995 11.2721C5.84544 11.0176 5.50025 10.8746 5.14032 10.8746C4.78039 10.8746 4.4352 11.0176 4.18069 11.2721C3.92618 11.5266 3.7832 11.8718 3.7832 12.2317C3.7832 12.5916 3.92618 12.9368 4.18069 13.1913C4.4352 13.4458 4.78039 13.5888 5.14032 13.5888ZM9.21167 13.5888C9.5716 13.5888 9.91679 13.4458 10.1713 13.1913C10.4258 12.9368 10.5688 12.5916 10.5688 12.2317C10.5688 11.8718 10.4258 11.5266 10.1713 11.2721C9.91679 11.0176 9.5716 10.8746 9.21167 10.8746C8.85174 10.8746 8.50656 11.0176 8.25205 11.2721C7.99754 11.5266 7.85456 11.8718 7.85456 12.2317C7.85456 12.5916 7.99754 12.9368 8.25205 13.1913C8.50656 13.4458 8.85174 13.5888 9.21167 13.5888ZM13.283 13.5888C13.643 13.5888 13.9881 13.4458 14.2427 13.1913C14.4972 12.9368 14.6401 12.5916 14.6401 12.2317C14.6401 11.8718 14.4972 11.5266 14.2427 11.2721C13.9881 11.0176 13.643 10.8746 13.283 10.8746C12.9231 10.8746 12.5779 11.0176 12.3234 11.2721C12.0689 11.5266 11.9259 11.8718 11.9259 12.2317C11.9259 12.5916 12.0689 12.9368 12.3234 13.1913C12.5779 13.4458 12.9231 13.5888 13.283 13.5888ZM17.3544 13.5888C17.7143 13.5888 18.0595 13.4458 18.314 13.1913C18.5685 12.9368 18.7115 12.5916 18.7115 12.2317C18.7115 11.8718 18.5685 11.5266 18.314 11.2721C18.0595 11.0176 17.7143 10.8746 17.3544 10.8746C16.9945 10.8746 16.6493 11.0176 16.3948 11.2721C16.1402 11.5266 15.9973 11.8718 15.9973 12.2317C15.9973 12.5916 16.1402 12.9368 16.3948 13.1913C16.6493 13.4458 16.9945 13.5888 17.3544 13.5888ZM5.14032 17.6602C5.50025 17.6602 5.84544 17.5172 6.09995 17.2627C6.35446 17.0082 6.49744 16.663 6.49744 16.303C6.49744 15.9431 6.35446 15.5979 6.09995 15.3434C5.84544 15.0889 5.50025 14.9459 5.14032 14.9459C4.78039 14.9459 4.4352 15.0889 4.18069 15.3434C3.92618 15.5979 3.7832 15.9431 3.7832 16.303C3.7832 16.663 3.92618 17.0082 4.18069 17.2627C4.4352 17.5172 4.78039 17.6602 5.14032 17.6602ZM9.21167 17.6602C9.5716 17.6602 9.91679 17.5172 10.1713 17.2627C10.4258 17.0082 10.5688 16.663 10.5688 16.303C10.5688 15.9431 10.4258 15.5979 10.1713 15.3434C9.91679 15.0889 9.5716 14.9459 9.21167 14.9459C8.85174 14.9459 8.50656 15.0889 8.25205 15.3434C7.99754 15.5979 7.85456 15.9431 7.85456 16.303C7.85456 16.663 7.99754 17.0082 8.25205 17.2627C8.50656 17.5172 8.85174 17.6602 9.21167 17.6602ZM13.283 17.6602C13.643 17.6602 13.9881 17.5172 14.2427 17.2627C14.4972 17.0082 14.6401 16.663 14.6401 16.303C14.6401 15.9431 14.4972 15.5979 14.2427 15.3434C13.9881 15.0889 13.643 14.9459 13.283 14.9459C12.9231 14.9459 12.5779 15.0889 12.3234 15.3434C12.0689 15.5979 11.9259 15.9431 11.9259 16.303C11.9259 16.663 12.0689 17.0082 12.3234 17.2627C12.5779 17.5172 12.9231 17.6602 13.283 17.6602Z" fill="#ADADC8"/>
</svg>
