<svg width="21" height="21" viewBox="0 0 21 21" fill="none" xmlns="http://www.w3.org/2000/svg">
<path fill-rule="evenodd" clip-rule="evenodd" d="M18.2227 0.402344H3.22266C2.55962 0.402344 1.92373 0.665736 1.45489 1.13458C0.986048 1.60342 0.722656 2.2393 0.722656 2.90234L0.722656 17.9023C0.722656 18.5654 0.986048 19.2013 1.45489 19.6701C1.92373 20.139 2.55962 20.4023 3.22266 20.4023H18.2227C18.8857 20.4023 19.5216 20.139 19.9904 19.6701C20.4593 19.2013 20.7227 18.5654 20.7227 17.9023V2.90234C20.7227 2.2393 20.4593 1.60342 19.9904 1.13458C19.5216 0.665736 18.8857 0.402344 18.2227 0.402344V0.402344ZM1.97266 5.22359C1.97266 4.63234 2.53266 4.15234 3.22266 4.15234H18.2227C18.9127 4.15234 19.4727 4.63234 19.4727 5.22359V18.0811C19.4727 18.6723 18.9127 19.1523 18.2227 19.1523H3.22266C2.53266 19.1523 1.97266 18.6723 1.97266 18.0811V5.22359Z" fill="#6C768C"/>
<path fill-rule="evenodd" clip-rule="evenodd" d="M8.84766 9.15234C9.17918 9.15234 9.49712 9.02065 9.73154 8.78623C9.96596 8.55181 10.0977 8.23386 10.0977 7.90234C10.0977 7.57082 9.96596 7.25288 9.73154 7.01846C9.49712 6.78404 9.17918 6.65234 8.84766 6.65234C8.51614 6.65234 8.19819 6.78404 7.96377 7.01846C7.72935 7.25288 7.59766 7.57082 7.59766 7.90234C7.59766 8.23386 7.72935 8.55181 7.96377 8.78623C8.19819 9.02065 8.51614 9.15234 8.84766 9.15234ZM12.5977 9.15234C12.9292 9.15234 13.2471 9.02065 13.4815 8.78623C13.716 8.55181 13.8477 8.23386 13.8477 7.90234C13.8477 7.57082 13.716 7.25288 13.4815 7.01846C13.2471 6.78404 12.9292 6.65234 12.5977 6.65234C12.2661 6.65234 11.9482 6.78404 11.7138 7.01846C11.4794 7.25288 11.3477 7.57082 11.3477 7.90234C11.3477 8.23386 11.4794 8.55181 11.7138 8.78623C11.9482 9.02065 12.2661 9.15234 12.5977 9.15234ZM16.3477 9.15234C16.6792 9.15234 16.9971 9.02065 17.2315 8.78623C17.466 8.55181 17.5977 8.23386 17.5977 7.90234C17.5977 7.57082 17.466 7.25288 17.2315 7.01846C16.9971 6.78404 16.6792 6.65234 16.3477 6.65234C16.0161 6.65234 15.6982 6.78404 15.4638 7.01846C15.2294 7.25288 15.0977 7.57082 15.0977 7.90234C15.0977 8.23386 15.2294 8.55181 15.4638 8.78623C15.6982 9.02065 16.0161 9.15234 16.3477 9.15234ZM5.09766 12.9023C5.42918 12.9023 5.74712 12.7706 5.98154 12.5362C6.21596 12.3018 6.34766 11.9839 6.34766 11.6523C6.34766 11.3208 6.21596 11.0029 5.98154 10.7685C5.74712 10.534 5.42918 10.4023 5.09766 10.4023C4.76614 10.4023 4.44819 10.534 4.21377 10.7685C3.97935 11.0029 3.84766 11.3208 3.84766 11.6523C3.84766 11.9839 3.97935 12.3018 4.21377 12.5362C4.44819 12.7706 4.76614 12.9023 5.09766 12.9023ZM8.84766 12.9023C9.17918 12.9023 9.49712 12.7706 9.73154 12.5362C9.96596 12.3018 10.0977 11.9839 10.0977 11.6523C10.0977 11.3208 9.96596 11.0029 9.73154 10.7685C9.49712 10.534 9.17918 10.4023 8.84766 10.4023C8.51614 10.4023 8.19819 10.534 7.96377 10.7685C7.72935 11.0029 7.59766 11.3208 7.59766 11.6523C7.59766 11.9839 7.72935 12.3018 7.96377 12.5362C8.19819 12.7706 8.51614 12.9023 8.84766 12.9023ZM12.5977 12.9023C12.9292 12.9023 13.2471 12.7706 13.4815 12.5362C13.716 12.3018 13.8477 11.9839 13.8477 11.6523C13.8477 11.3208 13.716 11.0029 13.4815 10.7685C13.2471 10.534 12.9292 10.4023 12.5977 10.4023C12.2661 10.4023 11.9482 10.534 11.7138 10.7685C11.4794 11.0029 11.3477 11.3208 11.3477 11.6523C11.3477 11.9839 11.4794 12.3018 11.7138 12.5362C11.9482 12.7706 12.2661 12.9023 12.5977 12.9023ZM16.3477 12.9023C16.6792 12.9023 16.9971 12.7706 17.2315 12.5362C17.466 12.3018 17.5977 11.9839 17.5977 11.6523C17.5977 11.3208 17.466 11.0029 17.2315 10.7685C16.9971 10.534 16.6792 10.4023 16.3477 10.4023C16.0161 10.4023 15.6982 10.534 15.4638 10.7685C15.2294 11.0029 15.0977 11.3208 15.0977 11.6523C15.0977 11.9839 15.2294 12.3018 15.4638 12.5362C15.6982 12.7706 16.0161 12.9023 16.3477 12.9023ZM5.09766 16.6523C5.42918 16.6523 5.74712 16.5206 5.98154 16.2862C6.21596 16.0518 6.34766 15.7339 6.34766 15.4023C6.34766 15.0708 6.21596 14.7529 5.98154 14.5185C5.74712 14.284 5.42918 14.1523 5.09766 14.1523C4.76614 14.1523 4.44819 14.284 4.21377 14.5185C3.97935 14.7529 3.84766 15.0708 3.84766 15.4023C3.84766 15.7339 3.97935 16.0518 4.21377 16.2862C4.44819 16.5206 4.76614 16.6523 5.09766 16.6523ZM8.84766 16.6523C9.17918 16.6523 9.49712 16.5206 9.73154 16.2862C9.96596 16.0518 10.0977 15.7339 10.0977 15.4023C10.0977 15.0708 9.96596 14.7529 9.73154 14.5185C9.49712 14.284 9.17918 14.1523 8.84766 14.1523C8.51614 14.1523 8.19819 14.284 7.96377 14.5185C7.72935 14.7529 7.59766 15.0708 7.59766 15.4023C7.59766 15.7339 7.72935 16.0518 7.96377 16.2862C8.19819 16.5206 8.51614 16.6523 8.84766 16.6523ZM12.5977 16.6523C12.9292 16.6523 13.2471 16.5206 13.4815 16.2862C13.716 16.0518 13.8477 15.7339 13.8477 15.4023C13.8477 15.0708 13.716 14.7529 13.4815 14.5185C13.2471 14.284 12.9292 14.1523 12.5977 14.1523C12.2661 14.1523 11.9482 14.284 11.7138 14.5185C11.4794 14.7529 11.3477 15.0708 11.3477 15.4023C11.3477 15.7339 11.4794 16.0518 11.7138 16.2862C11.9482 16.5206 12.2661 16.6523 12.5977 16.6523Z" fill="#6C768C"/>
</svg>
