<svg width="29" height="22" viewBox="0 0 29 22" fill="none" xmlns="http://www.w3.org/2000/svg">
<path d="M4.35205 4.39783C3.42379 4.39783 2.53355 4.76658 1.87718 5.42295C1.2208 6.07933 0.852051 6.96957 0.852051 7.89783L0.852051 18.3978C0.852051 19.3261 1.2208 20.2163 1.87718 20.8727C2.53355 21.5291 3.42379 21.8978 4.35205 21.8978H25.3521C26.2803 21.8978 27.1705 21.5291 27.8269 20.8727C28.4833 20.2163 28.8521 19.3261 28.8521 18.3978V7.89783C28.8521 6.96957 28.4833 6.07933 27.8269 5.42295C27.1705 4.76658 26.2803 4.39783 25.3521 4.39783H23.3011C22.3729 4.39763 21.4828 4.02875 20.8265 3.37233L19.3776 1.92333C18.7213 1.2669 17.8312 0.898025 16.9031 0.897827H12.8011C11.8729 0.898025 10.9828 1.2669 10.3266 1.92333L8.87755 3.37233C8.22133 4.02875 7.33123 4.39763 6.40305 4.39783H4.35205ZM5.22705 7.89783C4.99499 7.89783 4.77243 7.80564 4.60833 7.64155C4.44424 7.47745 4.35205 7.25489 4.35205 7.02283C4.35205 6.79076 4.44424 6.5682 4.60833 6.40411C4.77243 6.24001 4.99499 6.14783 5.22705 6.14783C5.45912 6.14783 5.68167 6.24001 5.84577 6.40411C6.00986 6.5682 6.10205 6.79076 6.10205 7.02283C6.10205 7.25489 6.00986 7.47745 5.84577 7.64155C5.68167 7.80564 5.45912 7.89783 5.22705 7.89783ZM20.9771 12.2728C20.9771 13.8973 20.3317 15.4552 19.1831 16.6039C18.0344 17.7525 16.4765 18.3978 14.8521 18.3978C13.2276 18.3978 11.6697 17.7525 10.521 16.6039C9.37236 15.4552 8.72705 13.8973 8.72705 12.2728C8.72705 10.6484 9.37236 9.09046 10.521 7.9418C11.6697 6.79314 13.2276 6.14783 14.8521 6.14783C16.4765 6.14783 18.0344 6.79314 19.1831 7.9418C20.3317 9.09046 20.9771 10.6484 20.9771 12.2728Z" fill="#F6F6FF"/>
</svg>
