<svg width="66" height="65" viewBox="0 0 66 65" fill="none" xmlns="http://www.w3.org/2000/svg">
<circle cx="33.3348" cy="32.8082" r="31.8885" fill="url(#paint0_linear)"/>
<mask id="mask0" mask-type="alpha" maskUnits="userSpaceOnUse" x="1" y="0" width="65" height="65">
<circle cx="33.3348" cy="32.5853" r="31.8885" fill="url(#paint1_linear)"/>
</mask>
<g mask="url(#mask0)">
<path d="M19.252 16.8349V66.6994C19.252 68.2081 20.4751 69.4313 21.9838 69.4313H44.1841C45.6931 69.4313 46.9161 68.2081 46.9161 66.6994V16.8349C46.9161 15.3262 45.6931 14.103 44.1841 14.103H21.9838C20.4751 14.103 19.252 15.3262 19.252 16.8349Z" fill="#0569FF"/>
<path d="M21.9838 16.748C21.0073 16.748 20.2129 17.5425 20.2129 18.5191V63.3311C20.2129 64.3077 21.0073 65.1023 21.9838 65.1023H44.1841C45.1608 65.1023 45.9551 64.3077 45.9551 63.3311V18.5191C45.9551 17.5425 45.1608 16.748 44.1841 16.748H21.9838Z" fill="#EBF1F9"/>
<path d="M33.0831 16.1404C33.4063 16.1404 33.6682 15.8785 33.6682 15.5553C33.6682 15.2322 33.4063 14.9702 33.0831 14.9702C32.76 14.9702 32.498 15.2322 32.498 15.5553C32.498 15.8785 32.76 16.1404 33.0831 16.1404Z" fill="#D7B2E9"/>
<path d="M38.9246 54.2673H24.7225C23.8407 58.4917 23.5646 61.4964 23.3662 65.1022H30.6294L31.2029 62.946C31.326 63.9088 31.4481 64.5343 31.566 65.1022H38.3264L38.9246 54.2673Z" fill="#00161D"/>
<path d="M44.5327 45.0487C40.86 42.2149 37.4252 38.428 34.5198 34.4353C32.2961 31.4571 33.2947 29.9234 35.5289 29.0911C36.9334 29.1966 38.1236 29.6679 39.2183 31.0641C42.372 35.0862 43.7393 37.4352 46.1373 41.469L44.5327 45.0487Z" fill="#EC5665"/>
<path d="M48.1255 31.66L47.0167 31.2188L45.8564 34.1684L47.9576 35.1128C48.0806 33.7862 48.1159 32.5716 48.1255 31.66Z" fill="#E3E3E3"/>
<path d="M45.8565 34.1687L43.3779 40.4706L45.0899 43.6054C46.9614 41.6442 48.1661 38.1507 48.4426 35.1692L45.8565 34.1687Z" fill="#EC5665"/>
<path d="M49.1716 33.2768L48.4091 33.5486C48.0547 33.675 47.6603 33.5925 47.3836 33.3375C45.9531 32.018 44.4859 29.1578 43.9053 27.4272L47.1456 26.272C47.5957 27.7236 48.7764 30.3828 49.6774 31.6209C50.1031 32.2055 49.8526 33.0339 49.1716 33.2768Z" fill="#000342"/>
<path d="M46.3336 26.5618L43.5839 27.542C42.0653 28.0835 40.3953 27.2914 39.8539 25.7727C39.3125 24.2542 40.1047 22.5842 41.6233 22.0428L44.3728 21.0625L46.3336 26.5618Z" fill="#0286FF"/>
<path d="M43.9732 21.3484C43.4461 21.6364 43.4276 22.9503 43.9175 24.3245C44.4074 25.6988 45.2532 26.7046 45.843 26.5927C45.8434 26.5942 58.7979 26.6359 58.7979 26.6359L53.9793 13.1206L43.9732 21.3484Z" fill="#0286FF"/>
<path d="M53.8475 12.2771C52.3969 12.7942 52.4256 16.5925 53.9116 20.7608C55.3977 24.9291 57.7783 27.8889 59.2289 27.3717C60.6795 26.8545 60.6508 23.0563 59.1647 18.888C57.6787 14.7197 55.2981 11.7599 53.8475 12.2771Z" fill="#000342"/>
<path d="M53.9114 20.7612C54.2359 21.6719 54.6034 22.5248 54.9944 23.2964L57.9499 21.6823L56.4563 17.4929L53.1465 18.1125C53.3316 18.9576 53.5867 19.8505 53.9114 20.7612Z" fill="#0286FF"/>
<path d="M56.4581 17.4957C56.0555 17.6392 56.0635 18.6934 56.4759 19.8502C56.8883 21.007 57.5491 21.8285 57.9517 21.6849C58.3543 21.5414 58.3463 20.4872 57.9339 19.3304C57.5215 18.1736 56.8607 17.3521 56.4581 17.4957Z" fill="#B3EDFF"/>
<path d="M59.3477 27.705C58.4936 28.0094 57.4142 27.42 56.3086 26.0453C55.28 24.7666 54.3107 22.9321 53.579 20.8798C52.8473 18.8275 52.4375 16.7936 52.4251 15.1528C52.4116 13.3885 52.8746 12.2492 53.7287 11.9448C54.5828 11.6403 55.6621 12.2296 56.7679 13.6045C57.7963 14.8831 58.7657 16.7176 59.4973 18.7699C60.2291 20.8222 60.6388 22.8561 60.6513 24.497C60.6646 26.2612 60.2017 27.4004 59.3477 27.705ZM53.9657 12.6097C52.8807 12.9965 52.7279 16.3908 54.2439 20.6428C55.7598 24.8947 58.0253 27.4269 59.1105 27.0401C60.1957 26.6532 60.3484 23.259 58.8323 19.0069C57.3163 14.7549 55.0509 12.2228 53.9657 12.6097Z" fill="#B3EDFF"/>
<path d="M47.5464 33.4651L45.8721 31.0939L45.1925 29.6289L44.7949 29.8134L45.1296 31.5492L46.1506 33.1182L47.5464 33.4651ZM47.5173 29.285L48.9025 31.4591L49.2769 30.676L48.8918 29.7387L48.201 28.313L47.9305 28.331L47.5173 29.285Z" fill="#F4ACC8"/>
<path d="M38.0416 47.1573C38.1261 44.0935 38.665 37.2617 38.8555 32.9093C38.9315 31.1728 37.7976 29.6104 36.1191 29.1599C31.8227 28.0063 26.7617 27.6262 23.104 29.2318C22.0938 29.6753 21.4753 30.6602 21.5198 31.8185C21.7452 37.6785 24.7427 47.1573 24.7427 47.1573L23.054 58.1296H40.0227L38.026 47.1573H38.0416Z" fill="#EC5665"/>
<path d="M35.3152 47.3092L34.4421 28.7596C32.2201 28.2925 29.8775 28.0569 27.6816 28.2016L32.568 47.324L32.1724 55.5804H35.2565L35.3152 47.3092Z" fill="#E3E3E3"/>
<path d="M14.1202 33.2249L12.96 33.9734C13.0183 34.5149 13.1008 35.1683 13.2119 35.8909L15.363 35.3401L14.1202 33.2249Z" fill="#E3E3E3"/>
<path d="M18.1211 46.0664C18.6725 41.7991 19.4594 35.2015 21.8584 30.4976L27.3063 33.4622C25.9925 38.0363 23.8707 43.9282 21.8107 47.7205L18.1211 46.0664Z" fill="#EC5665"/>
<path d="M20.6068 44.2659L15.363 35.3401L12.709 35.8951C13.2608 39.4866 15.0371 44.829 17.7488 47.169C19.0598 48.2135 20.4163 48.6161 21.8101 47.72L20.6068 44.2659Z" fill="#EC5665"/>
<path d="M32.1706 55.5806L32.0488 58.1174H35.5306L35.2546 55.5806H32.1706Z" fill="#00161D"/>
<path d="M32.7759 26.0132L32.037 31.076L28.7178 28.286L30.3355 23.8704L32.7759 26.0132Z" fill="#F4ACC8"/>
<path d="M34.4032 25.6542C34.4526 26.4556 33.6904 27.2003 32.1698 26.6841L29.6862 25.5834L28.4258 21.8514L29.6557 18.885L34.119 18.9843L34.4032 25.6542Z" fill="#F4ACC8"/>
<path d="M33.8037 21.6975L34.8531 23.6367L33.9748 23.7964L33.8037 21.6975Z" fill="#F4ACC8"/>
<path d="M34.3685 24.4679L33.1413 24.6814C32.3877 24.8127 31.6546 24.3607 31.4331 23.6284C31.4331 23.6284 31.0906 21.7319 31.0734 21.2896L34.3754 20.2682L35.1538 17.7446L34.0529 18.003L29.7591 18.1712C27.8468 18.225 27.1187 19.6758 27.7843 21.7732L28.6882 24.3124C28.9319 24.9968 28.9915 25.3692 29.6858 25.5829L29.9332 24.8549C30.0829 24.4138 29.9965 23.938 29.7409 23.5485C29.6998 23.4858 29.6617 23.4173 29.6282 23.3439C29.4235 22.8966 29.4613 22.4407 29.7129 22.3255C29.9644 22.2103 30.3344 22.4795 30.5391 22.9267C30.7189 23.3196 30.8295 26.0023 30.8295 26.0023L32.4274 26.8129C33.9769 27.234 34.6915 26.4437 34.5928 25.6469L34.3685 24.4679Z" fill="#4F2674"/>
<path d="M28.4648 28.1657L30.2932 32.5853L32.0365 31.0755L29.015 27.4727L28.4648 28.1657Z" fill="white"/>
<path d="M32.9076 28.4778L33.2691 32.2334L32.0361 31.0761L32.5341 27.6636L32.9076 28.4778Z" fill="white"/>
<path d="M14.1222 33.2249C14.1222 33.2249 15.5666 31.4673 13.5764 31.2362C8.23955 30.6168 12.004 31.3791 11.8133 31.3791C11.6227 31.3791 9.90735 31.2362 8.3826 30.9979C7.37509 30.8405 8.57322 32.7133 10.3839 33.0945C12.1947 33.4757 13.2429 33.8092 13.2429 33.8092L14.1222 33.2249Z" fill="#F4ACC8"/>
</g>
<path d="M12.2169 31.1185C12.1785 31.1234 12.1391 31.1224 12.0997 31.1244C12.0218 31.1303 11.9449 31.1362 11.8651 31.1343C11.8168 31.1333 11.7686 31.1264 11.7203 31.1224C11.6483 31.1165 11.5764 31.1126 11.5025 31.1008C11.4503 31.0929 11.3961 31.0791 11.3429 31.0682C11.2719 31.0535 11.2019 31.0397 11.13 31.02C11.0748 31.0052 11.0187 30.9845 10.9635 30.9667C10.8935 30.9441 10.8235 30.9214 10.7526 30.8938C10.6954 30.8721 10.6383 30.8455 10.5811 30.8209C10.5112 30.7903 10.4412 30.7598 10.3722 30.7253C10.3141 30.6967 10.2569 30.6642 10.1988 30.6327C10.1298 30.5952 10.0608 30.5568 9.99185 30.5154C9.93371 30.4799 9.87558 30.4425 9.81744 30.4041C9.74944 30.3597 9.68145 30.3144 9.61444 30.2651C9.56714 30.2316 9.51984 30.1952 9.47254 30.1597C9.34641 30.0641 9.22126 29.9616 9.09809 29.8542C9.06754 29.8266 9.036 29.802 9.00447 29.7744C8.89706 29.6768 8.79063 29.5734 8.68618 29.4669C8.66844 29.4482 8.64972 29.4324 8.63198 29.4137C8.54822 29.327 8.46742 29.2344 8.38563 29.1418C8.35607 29.1082 8.32552 29.0777 8.29694 29.0432C8.28118 29.0255 8.26738 29.0058 8.25162 28.987C8.16194 28.8796 8.07424 28.7712 7.98851 28.6579C7.95796 28.6175 7.92938 28.5742 7.89883 28.5328C7.83183 28.4401 7.7658 28.3485 7.70175 28.2519C7.66431 28.1958 7.62982 28.1376 7.59336 28.0805C7.53916 27.9957 7.48595 27.91 7.43471 27.8223C7.39233 27.7503 7.35292 27.6755 7.3135 27.6025C7.26029 27.505 7.2051 27.4084 7.15583 27.3079C7.08587 27.166 7.01985 27.0241 6.95974 26.8832C6.95579 26.8743 6.95284 26.8664 6.94988 26.8585C6.89864 26.7373 6.85134 26.6171 6.807 26.4979C6.79222 26.4575 6.77842 26.4181 6.76462 26.3787C6.73407 26.2909 6.70451 26.2032 6.67791 26.1165C6.66313 26.0682 6.64835 26.0209 6.63455 25.9727C6.60991 25.8879 6.58823 25.8032 6.56754 25.7194C6.5567 25.676 6.54586 25.6327 6.53601 25.5903C6.51334 25.4888 6.49363 25.3873 6.4759 25.2878C6.47195 25.2651 6.46604 25.2415 6.46309 25.2178C6.44338 25.0956 6.4286 24.9754 6.41677 24.8572C6.41381 24.8237 6.41185 24.7902 6.40988 24.7567C6.40298 24.6719 6.39805 24.5882 6.39509 24.5064C6.39411 24.465 6.39411 24.4236 6.39411 24.3822C6.39411 24.3093 6.39509 24.2364 6.39805 24.1654C6.40002 24.124 6.40199 24.0826 6.40495 24.0422C6.40987 23.9713 6.41776 23.9013 6.42663 23.8323C6.43155 23.7959 6.4355 23.7594 6.44042 23.7239C6.45323 23.6392 6.46998 23.5574 6.48772 23.4766C6.49166 23.4599 6.49462 23.4411 6.49856 23.4244C6.52221 23.3298 6.5498 23.2391 6.58035 23.1504C6.61977 23.0361 6.66608 22.9277 6.71831 22.8252C6.73407 22.7937 6.7528 22.7651 6.76955 22.7346C6.80404 22.6735 6.83951 22.6124 6.87893 22.5552C6.90357 22.5198 6.92919 22.4872 6.95579 22.4537C6.9893 22.4104 7.02379 22.368 7.06025 22.3276C7.09079 22.2951 7.12233 22.2645 7.15386 22.234C7.19032 22.1995 7.22678 22.166 7.2662 22.1345C7.32237 22.0882 7.37952 22.0428 7.4416 22.0044L6.51039 22.5956C6.46506 22.6242 6.42071 22.6558 6.37834 22.6883C6.36257 22.7001 6.34976 22.7149 6.33498 22.7267C6.29655 22.7582 6.2591 22.7917 6.22264 22.8262C6.20294 22.845 6.18126 22.8607 6.16155 22.8804C6.14972 22.8932 6.13987 22.908 6.12805 22.9208C6.09158 22.9612 6.0571 23.0036 6.02359 23.047C6.00585 23.0696 5.98516 23.0893 5.96841 23.113C5.96053 23.1238 5.95461 23.1376 5.94673 23.1485C5.90731 23.2056 5.87282 23.2657 5.83833 23.3268C5.82454 23.3515 5.80779 23.3731 5.79497 23.3978C5.79202 23.4037 5.79005 23.4116 5.78611 23.4175C5.73388 23.52 5.68855 23.6293 5.64815 23.7427C5.64618 23.7476 5.64322 23.7525 5.64224 23.7574C5.61366 23.8412 5.58902 23.9279 5.56734 24.0166C5.5634 24.0334 5.56045 24.0511 5.55651 24.0679C5.54074 24.1349 5.52596 24.2029 5.51413 24.2728C5.51216 24.2866 5.51118 24.3014 5.50921 24.3152C5.50329 24.3507 5.49935 24.3871 5.49541 24.4236C5.48654 24.4926 5.47964 24.5625 5.47373 24.6335C5.47078 24.6739 5.4688 24.7153 5.46683 24.7567C5.46388 24.8276 5.46289 24.9005 5.46289 24.9734C5.46289 25.0148 5.46289 25.0552 5.46388 25.0966C5.46585 25.1794 5.47176 25.2632 5.47866 25.3479C5.48161 25.3814 5.4826 25.4139 5.48556 25.4474C5.49738 25.5657 5.51216 25.6859 5.53187 25.8081C5.53581 25.8308 5.54074 25.8544 5.54468 25.8771C5.56242 25.9776 5.58114 26.0781 5.60479 26.1796C5.61464 26.223 5.62548 26.2663 5.63632 26.3097C5.65702 26.3934 5.6787 26.4772 5.70333 26.5619C5.71713 26.6102 5.73191 26.6585 5.74669 26.7068C5.75852 26.7442 5.76738 26.7807 5.78019 26.8181C5.79596 26.8674 5.81567 26.9177 5.83341 26.9679C5.8472 27.0083 5.861 27.0477 5.87578 27.0881C5.92012 27.2074 5.96644 27.3276 6.01768 27.4478C6.02162 27.4567 6.02458 27.4656 6.02852 27.4744C6.0295 27.4754 6.0295 27.4774 6.03049 27.4784C6.0906 27.6183 6.15564 27.7582 6.22462 27.8982C6.24235 27.9336 6.26009 27.9691 6.27783 28.0036C6.31133 28.0686 6.34779 28.1297 6.38228 28.1928C6.42269 28.2667 6.4621 28.3406 6.50349 28.4125C6.51236 28.4283 6.52024 28.4441 6.5301 28.4598C6.57247 28.5318 6.61878 28.5998 6.66312 28.6697C6.69958 28.7269 6.73407 28.786 6.77152 28.8422C6.77842 28.852 6.78433 28.8639 6.79123 28.8737C6.84838 28.9585 6.9085 29.0403 6.96762 29.122C6.99817 29.1634 7.02674 29.2068 7.05729 29.2482C7.06025 29.2531 7.06419 29.258 7.06714 29.262C7.14893 29.3714 7.23467 29.4758 7.3204 29.5783C7.33518 29.596 7.34996 29.6157 7.36474 29.6335C7.36573 29.6345 7.36573 29.6345 7.36671 29.6354C7.3943 29.668 7.42386 29.6975 7.45146 29.73C7.53325 29.8237 7.61504 29.9163 7.69978 30.005C7.70175 30.0069 7.70274 30.0079 7.70471 30.0099C7.72047 30.0267 7.73723 30.0404 7.75299 30.0562C7.85843 30.1636 7.96486 30.2671 8.07325 30.3656C8.08212 30.3735 8.09099 30.3834 8.09986 30.3913C8.12154 30.411 8.1442 30.4267 8.16588 30.4455C8.28906 30.5538 8.41421 30.6553 8.54034 30.7509C8.56399 30.7687 8.58665 30.7903 8.6103 30.8081C8.63395 30.8258 8.65859 30.8396 8.68224 30.8574C8.75023 30.9056 8.81724 30.951 8.88622 30.9963C8.94436 31.0347 9.00151 31.0722 9.05965 31.1076C9.12863 31.149 9.19761 31.1875 9.26659 31.2259C9.32473 31.2574 9.38188 31.29 9.44002 31.3185C9.50999 31.353 9.57897 31.3836 9.64893 31.4141C9.70609 31.4388 9.76324 31.4654 9.82039 31.487C9.89134 31.5146 9.96131 31.5373 10.0313 31.56C10.0865 31.5777 10.1426 31.5984 10.1978 31.6132C10.2697 31.6329 10.3397 31.6467 10.4107 31.6615C10.4639 31.6723 10.5171 31.6861 10.5693 31.694C10.6422 31.7048 10.7142 31.7097 10.7861 31.7157C10.8344 31.7196 10.8837 31.7265 10.9319 31.7275C11.0108 31.7294 11.0876 31.7225 11.1645 31.7176C11.2039 31.7147 11.2443 31.7157 11.2827 31.7117C11.398 31.6979 11.5104 31.6752 11.6198 31.6437C11.803 31.5905 11.9716 31.5146 12.1233 31.4181L13.0545 30.8268C12.9028 30.9234 12.7343 30.9993 12.551 31.0525C12.4436 31.082 12.3312 31.1037 12.2169 31.1185Z" fill="url(#paint2_linear)"/>
<path d="M7.94723 21.7776C9.65495 21.2849 12.0702 22.9601 13.3424 25.5212C14.6136 28.0803 14.2618 30.5577 12.5531 31.0504C10.8463 31.5431 8.4291 29.8659 7.15792 27.3068C5.88575 24.7447 6.24049 22.2703 7.94723 21.7776Z" fill="url(#paint3_linear)"/>
<path opacity="0.4" d="M8.43758 22.3032C7.15992 22.8147 7.01793 25.0171 8.12329 27.2128C9.22773 29.4096 11.1657 30.7799 12.4444 30.2683C13.722 29.7568 13.864 27.5544 12.7587 25.3587C11.6543 23.163 9.7163 21.7927 8.43758 22.3032ZM12.2794 25.5509C13.1544 27.2903 13.0427 29.0369 12.0282 29.4429C11.0157 29.8477 9.47952 28.7609 8.60454 27.0215C7.72839 25.2789 7.84019 23.5334 8.85271 23.1286C9.86615 22.7227 11.4033 23.8094 12.2794 25.5509Z" fill="#FEFBB4"/>
<path d="M11.0774 24.5043L8.82761 25.818C8.66928 25.1152 8.78827 24.4401 9.2299 24.1822C9.50421 24.022 9.85786 24.05 10.2158 24.2121L10.5726 24.0037C9.99068 23.6013 9.42494 23.5219 8.99196 23.7748C8.31552 24.1698 8.22896 25.3193 8.7152 26.4669L8.72955 26.4585L9.77627 25.8472L10.1226 26.4403L9.07595 27.0515L9.32991 27.4864L10.3765 26.8752L11.4616 28.7334L11.7175 28.584L10.6324 26.7258L10.8184 26.6171L11.9035 28.4753L12.1826 28.3123L11.0975 26.4541L11.7661 26.0637L11.8065 26.0401L12.0159 25.9178C11.9429 25.7484 11.8484 25.5632 11.7498 25.3946C11.554 25.0599 11.312 24.7384 11.0774 24.5043ZM10.5645 26.1822L10.3784 26.2909L10.0321 25.6978L10.2182 25.5892L10.5645 26.1822ZM10.8436 26.0192L10.4973 25.4262L11.1608 25.0387C11.2802 25.1811 11.4074 25.3653 11.5123 25.5446C11.5221 25.5613 11.5257 25.5679 11.5485 25.6076L10.8436 26.0192Z" fill="#F4D27C"/>
<g filter="url(#filter0_f)">
<path d="M2.79389 19.9541C2.82131 19.9576 2.84944 19.9569 2.87757 19.9583C2.93311 19.9626 2.98796 19.9668 3.04492 19.9654C3.07937 19.9647 3.11382 19.9597 3.14828 19.9569C3.19961 19.9527 3.25094 19.9499 3.30367 19.9415C3.34094 19.9358 3.37961 19.926 3.41758 19.9183C3.46821 19.9077 3.51813 19.8979 3.56946 19.8838C3.60884 19.8733 3.64892 19.8585 3.6883 19.8458C3.73822 19.8297 3.78815 19.8135 3.83877 19.7938C3.87955 19.7783 3.92034 19.7593 3.96112 19.7418C4.01104 19.72 4.06097 19.6982 4.11019 19.6736C4.15167 19.6532 4.19246 19.63 4.23394 19.6075C4.28316 19.5807 4.33238 19.5533 4.3816 19.5238C4.42309 19.4985 4.46458 19.4718 4.50606 19.4443C4.55458 19.4127 4.6031 19.3803 4.65091 19.3452C4.68466 19.3213 4.71841 19.2953 4.75216 19.27C4.84217 19.2017 4.93147 19.1286 5.01936 19.052C5.04116 19.0323 5.06366 19.0147 5.08616 18.995C5.1628 18.9254 5.23874 18.8516 5.31328 18.7756C5.32593 18.7623 5.33929 18.751 5.35195 18.7377C5.41172 18.6758 5.46938 18.6097 5.52774 18.5436C5.54883 18.5197 5.57063 18.4979 5.59102 18.4733C5.60227 18.4606 5.61211 18.4466 5.62337 18.4332C5.68735 18.3566 5.74993 18.2792 5.81111 18.1984C5.83291 18.1695 5.8533 18.1386 5.87509 18.1091C5.92291 18.043 5.97002 17.9776 6.01572 17.9087C6.04244 17.8686 6.06705 17.8271 6.09307 17.7863C6.13174 17.7258 6.16971 17.6647 6.20628 17.6021C6.23651 17.5508 6.26464 17.4973 6.29277 17.4453C6.33074 17.3757 6.37011 17.3068 6.40527 17.235C6.45519 17.1338 6.5023 17.0325 6.5452 16.932C6.54801 16.9257 6.55012 16.92 6.55223 16.9144C6.58879 16.8279 6.62254 16.7421 6.65418 16.657C6.66473 16.6282 6.67458 16.6001 6.68442 16.572C6.70622 16.5094 6.72731 16.4468 6.7463 16.3849C6.75684 16.3505 6.76739 16.3167 6.77723 16.2823C6.79481 16.2218 6.81028 16.1613 6.82505 16.1016C6.83279 16.0706 6.84052 16.0397 6.84755 16.0094C6.86372 15.937 6.87779 15.8646 6.89044 15.7936C6.89326 15.7774 6.89747 15.7605 6.89958 15.7437C6.91365 15.6565 6.92419 15.5707 6.93263 15.4863C6.93474 15.4624 6.93615 15.4385 6.93755 15.4146C6.94248 15.3541 6.94599 15.2943 6.9481 15.236C6.94881 15.2065 6.9488 15.1769 6.9488 15.1474C6.9488 15.0954 6.9481 15.0433 6.94599 14.9927C6.94459 14.9632 6.94318 14.9336 6.94107 14.9048C6.93755 14.8542 6.93193 14.8042 6.9256 14.755C6.92208 14.729 6.91927 14.703 6.91576 14.6777C6.90661 14.6172 6.89466 14.5588 6.88201 14.5012C6.87919 14.4892 6.87708 14.4759 6.87427 14.4639C6.85739 14.3964 6.83771 14.3317 6.81591 14.2684C6.78778 14.1869 6.75474 14.1095 6.71747 14.0364C6.70622 14.0139 6.69286 13.9935 6.6809 13.9717C6.65629 13.9281 6.63098 13.8845 6.60285 13.8437C6.58528 13.8184 6.56699 13.7952 6.54801 13.7713C6.5241 13.7404 6.49949 13.7101 6.47348 13.6813C6.45168 13.6581 6.42918 13.6363 6.40668 13.6145C6.38066 13.5899 6.35464 13.566 6.32652 13.5435C6.28644 13.5105 6.24565 13.4781 6.20135 13.4507L6.86583 13.8726C6.89818 13.893 6.92982 13.9155 6.96005 13.9387C6.9713 13.9471 6.98045 13.9577 6.99099 13.9661C7.01842 13.9886 7.04514 14.0125 7.07115 14.0371C7.08522 14.0505 7.10069 14.0617 7.11475 14.0758C7.12319 14.0849 7.13022 14.0955 7.13865 14.1046C7.16467 14.1334 7.18928 14.1637 7.21319 14.1946C7.22585 14.2108 7.24061 14.2249 7.25256 14.2417C7.25819 14.2495 7.26241 14.2593 7.26803 14.267C7.29616 14.3078 7.32077 14.3507 7.34538 14.3943C7.35523 14.4119 7.36718 14.4274 7.37632 14.4449C7.37843 14.4492 7.37984 14.4548 7.38265 14.459C7.41992 14.5321 7.45226 14.6102 7.48109 14.691C7.48249 14.6946 7.4846 14.6981 7.48531 14.7016C7.5057 14.7614 7.52328 14.8232 7.53875 14.8865C7.54156 14.8985 7.54367 14.9111 7.54648 14.9231C7.55773 14.9709 7.56828 15.0194 7.57672 15.0693C7.57812 15.0792 7.57883 15.0897 7.58023 15.0996C7.58445 15.1249 7.58726 15.1509 7.59008 15.1769C7.5964 15.2261 7.60133 15.2761 7.60555 15.3267C7.60765 15.3555 7.60906 15.385 7.61047 15.4146C7.61258 15.4652 7.61328 15.5172 7.61328 15.5693C7.61328 15.5988 7.61328 15.6276 7.61258 15.6572C7.61117 15.7162 7.60695 15.776 7.60203 15.8365C7.59992 15.8604 7.59922 15.8836 7.59711 15.9075C7.58867 15.9919 7.57812 16.0777 7.56406 16.1648C7.56125 16.181 7.55773 16.1979 7.55492 16.2141C7.54226 16.2858 7.5289 16.3575 7.51203 16.4299C7.505 16.4609 7.49726 16.4918 7.48953 16.5227C7.47476 16.5825 7.45929 16.6423 7.44171 16.7028C7.43187 16.7372 7.42132 16.7717 7.41077 16.8061C7.40234 16.8328 7.39601 16.8589 7.38687 16.8856C7.37562 16.9207 7.36155 16.9566 7.3489 16.9924C7.33905 17.0213 7.32921 17.0494 7.31866 17.0782C7.28702 17.1633 7.25397 17.2491 7.21741 17.3349C7.21459 17.3412 7.21249 17.3475 7.20967 17.3539C7.20897 17.3546 7.20897 17.356 7.20827 17.3567C7.16537 17.4565 7.11897 17.5564 7.06975 17.6562C7.05709 17.6815 7.04443 17.7068 7.03177 17.7315C7.00787 17.7779 6.98185 17.8215 6.95724 17.8665C6.92841 17.9192 6.90029 17.9719 6.87075 18.0233C6.86443 18.0345 6.8588 18.0458 6.85177 18.057C6.82153 18.1083 6.78849 18.1569 6.75684 18.2068C6.73083 18.2476 6.70622 18.2898 6.6795 18.3298C6.67458 18.3369 6.67036 18.3453 6.66543 18.3523C6.62465 18.4128 6.58176 18.4712 6.53957 18.5295C6.51777 18.5591 6.49738 18.59 6.47558 18.6195C6.47348 18.6231 6.47066 18.6266 6.46855 18.6294C6.41019 18.7074 6.34902 18.782 6.28784 18.8551C6.2773 18.8678 6.26675 18.8818 6.2562 18.8945C6.2555 18.8952 6.2555 18.8952 6.25479 18.8959C6.23511 18.9191 6.21401 18.9402 6.19432 18.9634C6.13596 19.0302 6.0776 19.0963 6.01713 19.1596C6.01572 19.161 6.01502 19.1617 6.01361 19.1631C6.00236 19.175 5.99041 19.1849 5.97916 19.1961C5.90392 19.2728 5.82798 19.3466 5.75064 19.4169C5.74431 19.4225 5.73798 19.4296 5.73165 19.4352C5.71618 19.4493 5.70001 19.4605 5.68454 19.4739C5.59665 19.5512 5.50735 19.6236 5.41734 19.6918C5.40047 19.7045 5.3843 19.72 5.36742 19.7326C5.35054 19.7453 5.33296 19.7551 5.31609 19.7678C5.26757 19.8022 5.21976 19.8346 5.17054 19.8669C5.12905 19.8944 5.08827 19.9211 5.04678 19.9464C4.99756 19.9759 4.94834 20.0033 4.89912 20.0308C4.85764 20.0533 4.81685 20.0765 4.77537 20.0969C4.72544 20.1215 4.67622 20.1433 4.6263 20.1651C4.58552 20.1826 4.54473 20.2016 4.50395 20.2171C4.45332 20.2368 4.4034 20.253 4.35348 20.2691C4.3141 20.2818 4.27402 20.2966 4.23464 20.3071C4.18331 20.3212 4.13339 20.331 4.08277 20.3416C4.0448 20.3493 4.00682 20.3591 3.96956 20.3648C3.91752 20.3725 3.86619 20.376 3.81486 20.3802C3.78041 20.383 3.74525 20.388 3.7108 20.3887C3.65455 20.3901 3.5997 20.3851 3.54485 20.3816C3.51673 20.3795 3.4879 20.3802 3.46048 20.3774C3.37821 20.3676 3.29805 20.3514 3.22 20.3289C3.08921 20.2909 2.96898 20.2368 2.86069 20.1679L2.19621 19.746C2.3045 19.8149 2.42474 19.869 2.55552 19.907C2.63217 19.9281 2.71233 19.9436 2.79389 19.9541Z" fill="url(#paint4_linear)"/>
<path d="M5.84128 13.2899C4.62272 12.9383 2.8993 14.1336 1.99153 15.9611C1.08447 17.7872 1.33549 19.5549 2.55475 19.9065C3.77261 20.2581 5.49744 19.0613 6.4045 17.2352C7.31227 15.407 7.05913 13.6414 5.84128 13.2899Z" fill="url(#paint5_linear)"/>
<path opacity="0.4" d="M5.49034 13.6652C6.40203 14.0302 6.50335 15.6018 5.71461 17.1685C4.92653 18.7361 3.54367 19.7139 2.63128 19.3488C1.7196 18.9838 1.61828 17.4123 2.40701 15.8455C3.19505 14.2787 4.57791 13.301 5.49034 13.6652ZM2.74896 15.9827C2.12462 17.2238 2.20435 18.4701 2.9282 18.7599C3.65069 19.0487 4.74686 18.2732 5.37121 17.0321C5.9964 15.7886 5.91662 14.5431 5.19412 14.2543C4.47098 13.9646 3.37411 14.74 2.74896 15.9827Z" fill="#FEFBB4"/>
<path d="M5.31661 16.2113L3.67746 15.3344C4.04558 14.9755 4.50047 14.7957 4.82223 14.9678C5.02209 15.0747 5.1372 15.3002 5.17236 15.5784L5.43236 15.7175C5.45959 15.2133 5.29652 14.8397 4.98106 14.671C4.48821 14.4073 3.757 14.7841 3.24101 15.5084L3.25146 15.514L4.01409 15.922L3.78293 16.3541L3.02036 15.9461L2.85084 16.263L3.6134 16.671L2.88908 18.0248L3.07549 18.1246L3.79981 16.7707L3.93537 16.8432L3.21105 18.1971L3.4144 18.3059L4.13872 16.952L4.62583 17.2126L4.65527 17.2284L4.80786 17.31C4.88356 17.2023 4.96089 17.0757 5.02656 16.9527C5.15687 16.7086 5.26191 16.4414 5.31661 16.2113ZM4.1049 16.5264L3.96933 16.4538L4.2005 16.0217L4.33606 16.0943L4.1049 16.5264ZM4.30825 16.6351L4.53941 16.2031L5.02286 16.4617C4.98091 16.5875 4.91646 16.7336 4.84664 16.8643C4.84012 16.8766 4.83744 16.8812 4.82184 16.9099L4.30825 16.6351Z" fill="#F4D27C"/>
</g>
<path d="M14.1184 14.919C14.1438 14.8947 14.1655 14.8663 14.1894 14.8396C14.2378 14.7881 14.2858 14.7372 14.3298 14.6798C14.3566 14.6452 14.3792 14.6072 14.4039 14.5709C14.4407 14.5168 14.4789 14.4638 14.5126 14.4049C14.5368 14.3636 14.5579 14.3175 14.5805 14.2738C14.6105 14.2154 14.6406 14.1582 14.6676 14.0962C14.6886 14.0489 14.706 13.9975 14.7249 13.9484C14.7487 13.8862 14.7726 13.8239 14.7935 13.7582C14.8107 13.7055 14.8245 13.6501 14.8396 13.5957C14.8579 13.529 14.8762 13.4623 14.8911 13.394C14.9041 13.3367 14.9137 13.2779 14.9245 13.2189C14.9374 13.1489 14.9495 13.0784 14.9596 13.0062C14.9677 12.945 14.9743 12.8827 14.9803 12.8198C14.9878 12.7466 14.9945 12.6728 14.9979 12.5975C15.0012 12.5451 15.0024 12.491 15.0043 12.4374C15.0086 12.294 15.0076 12.1474 15.0019 11.9994C14.9999 11.9621 15.0004 11.9259 14.9989 11.8879C14.9913 11.7566 14.9789 11.6227 14.9632 11.4884C14.9601 11.4652 14.9597 11.4431 14.9566 11.4199C14.9431 11.3115 14.9237 11.2017 14.9049 11.0913C14.8981 11.0514 14.894 11.0125 14.8859 10.9727C14.8824 10.9515 14.8763 10.9305 14.8721 10.9087C14.8474 10.7843 14.8208 10.6608 14.7897 10.5358C14.7786 10.4913 14.7643 10.4464 14.7525 10.4013C14.7253 10.3013 14.6982 10.2026 14.6666 10.1024C14.6483 10.044 14.6269 9.98663 14.6073 9.92838C14.5784 9.84191 14.5482 9.75558 14.5155 9.66951C14.4889 9.59868 14.4585 9.52824 14.4295 9.45893C14.391 9.36587 14.3543 9.27197 14.3114 9.18001C14.2512 9.04989 14.1887 8.92255 14.1235 8.79994C14.1195 8.79211 14.1156 8.78553 14.1117 8.77896C14.0554 8.67383 13.9975 8.57203 13.9386 8.47288C13.9186 8.43946 13.8986 8.40729 13.8787 8.37512C13.8342 8.30365 13.7891 8.23288 13.7431 8.16476C13.7175 8.12684 13.6925 8.08949 13.6663 8.05228C13.6206 7.98666 13.5731 7.92313 13.5258 7.86086C13.5014 7.82853 13.477 7.79621 13.4527 7.76514C13.394 7.69138 13.3337 7.6197 13.2736 7.55054C13.2598 7.53486 13.2465 7.51722 13.2315 7.50168C13.1565 7.41822 13.0801 7.33936 13.0035 7.26371C12.9815 7.24256 12.959 7.2221 12.9365 7.20164C12.8806 7.14853 12.8244 7.09738 12.7684 7.04874C12.7397 7.02448 12.7105 7.00093 12.6813 6.97737C12.6299 6.93586 12.5779 6.89505 12.5262 6.85675C12.4959 6.83458 12.4655 6.81241 12.4354 6.7915C12.3825 6.75459 12.3287 6.72032 12.275 6.68732C12.2464 6.67004 12.2185 6.65207 12.1907 6.63535C12.1236 6.59615 12.0564 6.5614 11.9893 6.52792C11.9752 6.52117 11.9603 6.5126 11.9463 6.50584C11.8661 6.46867 11.7864 6.43653 11.7065 6.4076C11.6034 6.37033 11.5006 6.3413 11.3986 6.31981C11.3674 6.31298 11.3365 6.30992 11.3055 6.30435C11.2427 6.2939 11.1794 6.28414 11.1167 6.27941C11.0777 6.2766 11.0401 6.27616 11.0014 6.27586C10.9517 6.27481 10.9022 6.27502 10.8529 6.27774C10.8126 6.28077 10.7731 6.28563 10.7336 6.29048C10.6885 6.29657 10.6441 6.30322 10.5995 6.31307C10.5348 6.32633 10.4703 6.34084 10.4079 6.36275L11.355 6.04245C11.4009 6.02675 11.4484 6.01342 11.4955 6.00204C11.5128 5.99765 11.5305 5.99703 11.5473 5.99333C11.5914 5.98417 11.6363 5.97683 11.6814 5.97074C11.7058 5.9675 11.7293 5.96118 11.7544 5.9585C11.7702 5.95745 11.7862 5.95891 11.802 5.95786C11.8512 5.95514 11.9008 5.95494 11.9504 5.95598C11.9765 5.95637 12.0022 5.953 12.0284 5.95464C12.0405 5.95525 12.0536 5.95893 12.0658 5.95954C12.1285 5.96427 12.1905 5.97416 12.2533 5.98461C12.2785 5.9889 12.3033 5.98942 12.328 5.99441C12.3338 5.99569 12.3405 5.99879 12.3469 5.99937C12.449 6.02087 12.5519 6.05116 12.6548 6.08716C12.6594 6.08858 12.6646 6.0893 12.6686 6.09141C12.744 6.11893 12.8192 6.15091 12.8941 6.1861C12.9081 6.19286 12.9223 6.20087 12.9364 6.20762C12.9926 6.23464 13.049 6.26292 13.1051 6.2944C13.1159 6.30087 13.1269 6.30859 13.1378 6.31505C13.1662 6.33107 13.1941 6.34904 13.2221 6.36702C13.2758 6.40003 13.3291 6.43499 13.3825 6.4712C13.4127 6.49211 13.443 6.51428 13.4733 6.53645C13.525 6.57475 13.577 6.61556 13.6284 6.65707C13.6576 6.68063 13.6861 6.70362 13.7148 6.72788C13.772 6.77638 13.8277 6.82823 13.8836 6.88134C13.9055 6.90249 13.9279 6.9217 13.9499 6.94285C14.0265 7.0185 14.1029 7.09736 14.1779 7.18082C14.1916 7.1965 14.2055 7.21343 14.2193 7.22912C14.2801 7.29884 14.3403 7.36926 14.3984 7.44371C14.4234 7.47535 14.4478 7.50767 14.4722 7.54C14.5195 7.60227 14.5663 7.66524 14.612 7.73086C14.6382 7.76807 14.6639 7.80598 14.6895 7.84389C14.7092 7.87355 14.7299 7.90056 14.749 7.93091C14.7748 7.97008 14.799 8.01258 14.8244 8.0537C14.845 8.08643 14.865 8.1186 14.8851 8.15202C14.9439 8.25117 15.0024 8.35227 15.058 8.45685C15.062 8.46467 15.0666 8.47181 15.0706 8.47964C15.0707 8.48089 15.0721 8.48201 15.0722 8.48327C15.1367 8.60532 15.1984 8.73085 15.2578 8.85915C15.2728 8.89185 15.2877 8.92456 15.3019 8.9567C15.3287 9.01735 15.3511 9.07785 15.3759 9.13807C15.4051 9.20864 15.4348 9.27851 15.4619 9.34865C15.468 9.36388 15.4746 9.37842 15.4801 9.39434C15.5068 9.46518 15.5284 9.53655 15.5525 9.60765C15.572 9.6659 15.5941 9.72388 15.6124 9.78227C15.6154 9.79274 15.6204 9.80364 15.6234 9.81412C15.6507 9.90267 15.6742 9.99163 15.6982 10.0799C15.71 10.125 15.7243 10.1698 15.7361 10.2149C15.7379 10.2198 15.7391 10.2254 15.7402 10.2297C15.7708 10.3497 15.7957 10.4696 15.8192 10.5884C15.8233 10.6089 15.8288 10.6306 15.8329 10.6511C15.833 10.6524 15.833 10.6524 15.8332 10.6536C15.8404 10.6916 15.8444 10.7293 15.8517 10.7673C15.8711 10.8782 15.8899 10.9886 15.9042 11.0989C15.9045 11.1014 15.9046 11.1027 15.9049 11.1052C15.9077 11.1258 15.9079 11.1455 15.9101 11.1656C15.9258 11.3011 15.9382 11.4351 15.946 11.5676C15.9466 11.5784 15.9485 11.5902 15.949 11.601C15.9505 11.6275 15.9487 11.6525 15.9496 11.6784C15.956 11.827 15.9563 11.973 15.9519 12.1164C15.951 12.1432 15.9534 12.1715 15.9524 12.1983C15.9515 12.2251 15.9472 12.2503 15.9462 12.2771C15.9416 12.3525 15.9354 12.4256 15.9281 12.5001C15.9222 12.5629 15.916 12.6246 15.908 12.6858C15.8979 12.758 15.8857 12.8285 15.8736 12.899C15.8627 12.958 15.8531 13.0168 15.8402 13.0741C15.8247 13.1431 15.807 13.2091 15.7887 13.2759C15.7735 13.3302 15.7598 13.3857 15.7425 13.4383C15.7216 13.5041 15.6978 13.5663 15.6739 13.6286C15.655 13.6776 15.6377 13.729 15.6167 13.7763C15.5896 13.8383 15.5595 13.8955 15.5296 13.954C15.5069 13.9977 15.4864 14.043 15.4622 14.0844C15.4283 14.142 15.3909 14.1955 15.3541 14.2496C15.3294 14.2859 15.3062 14.3246 15.2794 14.3592C15.2359 14.416 15.1873 14.4662 15.1401 14.5177C15.1156 14.5438 15.0933 14.5728 15.0686 14.5977C14.9933 14.6712 14.9133 14.7375 14.8288 14.7967C14.687 14.8957 14.5375 14.9714 14.383 15.0234L13.4359 15.3437C13.5904 15.2917 13.7399 15.216 13.8817 15.117C13.9637 15.0581 14.043 14.9912 14.1184 14.919Z" fill="url(#paint6_linear)"/>
<path d="M9.96002 6.58995C8.64043 7.51406 8.44726 10.1712 9.52962 12.5264C10.6112 14.8797 12.5588 16.0417 13.879 15.1169C15.198 14.1935 15.3909 11.5338 14.3094 9.18047C13.2263 6.82476 11.2791 5.66654 9.96002 6.58995Z" fill="url(#paint7_linear)"/>
<path opacity="0.4" d="M10.0515 7.23496C11.1396 6.62491 12.7739 7.7784 13.6935 9.80789C14.6144 11.8374 14.4778 13.9844 13.3891 14.5951C12.301 15.2051 10.6667 14.0516 9.74715 12.0221C8.82698 9.99331 8.96358 7.84636 10.0515 7.23496ZM10.1555 11.7935C10.8844 13.4008 12.1799 14.3161 13.0438 13.8317C13.9056 13.3479 14.0135 11.6457 13.2846 10.0385C12.5541 8.42853 11.2593 7.51386 10.3975 7.99765C9.53423 8.4814 9.4258 10.1843 10.1555 11.7935Z" fill="#FEFBB4"/>
<path d="M12.4295 9.439L10.2551 10.3598C10.194 9.70965 10.3791 9.11651 10.8059 8.93576C11.0711 8.82349 11.3858 8.88955 11.6888 9.07669L12.0337 8.93064C11.5571 8.50156 11.0577 8.36473 10.6392 8.54194C9.98537 8.81879 9.77458 9.8422 10.079 10.9301L10.0928 10.9242L11.1045 10.4958L11.3472 11.069L10.3356 11.4973L10.5136 11.9177L11.5252 11.4893L12.2857 13.2853L12.533 13.1806L11.7725 11.3846L11.9523 11.3085L12.7129 13.1045L12.9826 12.9902L12.2221 11.1942L12.8683 10.9206L12.9073 10.9041L13.1098 10.8183C13.0637 10.6576 13.0002 10.4802 12.931 10.3171C12.7937 9.99361 12.6133 9.67662 12.4295 9.439ZM11.7743 10.8881L11.5945 10.9643L11.3518 10.3911L11.5316 10.3149L11.7743 10.8881ZM12.0441 10.7739L11.8014 10.2007L12.4427 9.92912C12.5336 10.0709 12.6266 10.2512 12.7002 10.4245C12.707 10.4407 12.7095 10.4471 12.7254 10.4854L12.0441 10.7739Z" fill="#F4D27C"/>
<defs>
<filter id="filter0_f" x="0.957004" y="12.7392" width="7.14564" height="8.13897" filterUnits="userSpaceOnUse" color-interpolation-filters="sRGB">
<feFlood flood-opacity="0" result="BackgroundImageFix"/>
<feBlend mode="normal" in="SourceGraphic" in2="BackgroundImageFix" result="shape"/>
<feGaussianBlur stdDeviation="0.244642" result="effect1_foregroundBlur"/>
</filter>
<linearGradient id="paint0_linear" x1="73.905" y1="-41.4691" x2="55.8078" y2="64.9255" gradientUnits="userSpaceOnUse">
<stop stop-color="#4080FF"/>
<stop offset="1" stop-color="#F52053"/>
</linearGradient>
<linearGradient id="paint1_linear" x1="73.905" y1="-41.692" x2="55.8078" y2="64.7026" gradientUnits="userSpaceOnUse">
<stop stop-color="#4080FF"/>
<stop offset="1" stop-color="#F52053"/>
</linearGradient>
<linearGradient id="paint2_linear" x1="5.78536" y1="29.6406" x2="12.5423" y2="24.6848" gradientUnits="userSpaceOnUse">
<stop offset="0.074" stop-color="#FFF5B7"/>
<stop offset="0.228" stop-color="#E79127"/>
<stop offset="0.2507" stop-color="#D58326"/>
<stop offset="0.2976" stop-color="#B66A25"/>
<stop offset="0.3491" stop-color="#9D5524"/>
<stop offset="0.4061" stop-color="#894623"/>
<stop offset="0.4716" stop-color="#7B3A22"/>
<stop offset="0.5528" stop-color="#733422"/>
<stop offset="0.6982" stop-color="#713222"/>
<stop offset="0.7307" stop-color="#743422"/>
<stop offset="0.7531" stop-color="#7D3C23"/>
<stop offset="0.7725" stop-color="#8C4823"/>
<stop offset="0.7902" stop-color="#A25924"/>
<stop offset="0.8067" stop-color="#BE7025"/>
<stop offset="0.8221" stop-color="#E08B27"/>
<stop offset="0.8249" stop-color="#E79127"/>
<stop offset="0.8485" stop-color="#ECA443"/>
<stop offset="0.8993" stop-color="#F8D68A"/>
<stop offset="0.9294" stop-color="#FFF5B7"/>
</linearGradient>
<linearGradient id="paint3_linear" x1="6.13134" y1="22.9319" x2="15.5897" y2="30.9256" gradientUnits="userSpaceOnUse">
<stop stop-color="#DD8E19"/>
<stop offset="1" stop-color="#FFEDA5"/>
</linearGradient>
<linearGradient id="paint4_linear" x1="7.38318" y1="18.8995" x2="2.56169" y2="15.3633" gradientUnits="userSpaceOnUse">
<stop offset="0.074" stop-color="#FFF5B7"/>
<stop offset="0.228" stop-color="#E79127"/>
<stop offset="0.2507" stop-color="#D58326"/>
<stop offset="0.2976" stop-color="#B66A25"/>
<stop offset="0.3491" stop-color="#9D5524"/>
<stop offset="0.4061" stop-color="#894623"/>
<stop offset="0.4716" stop-color="#7B3A22"/>
<stop offset="0.5528" stop-color="#733422"/>
<stop offset="0.6982" stop-color="#713222"/>
<stop offset="0.7307" stop-color="#743422"/>
<stop offset="0.7531" stop-color="#7D3C23"/>
<stop offset="0.7725" stop-color="#8C4823"/>
<stop offset="0.7902" stop-color="#A25924"/>
<stop offset="0.8067" stop-color="#BE7025"/>
<stop offset="0.8221" stop-color="#E08B27"/>
<stop offset="0.8249" stop-color="#E79127"/>
<stop offset="0.8485" stop-color="#ECA443"/>
<stop offset="0.8993" stop-color="#F8D68A"/>
<stop offset="0.9294" stop-color="#FFF5B7"/>
</linearGradient>
<linearGradient id="paint5_linear" x1="7.13702" y1="14.1135" x2="0.38797" y2="19.8175" gradientUnits="userSpaceOnUse">
<stop stop-color="#DD8E19"/>
<stop offset="1" stop-color="#FFEDA5"/>
</linearGradient>
<linearGradient id="paint6_linear" x1="16.7369" y1="9.54111" x2="9.39514" y2="11.4864" gradientUnits="userSpaceOnUse">
<stop offset="0.074" stop-color="#FFF5B7"/>
<stop offset="0.228" stop-color="#E79127"/>
<stop offset="0.2507" stop-color="#D58326"/>
<stop offset="0.2976" stop-color="#B66A25"/>
<stop offset="0.3491" stop-color="#9D5524"/>
<stop offset="0.4061" stop-color="#894623"/>
<stop offset="0.4716" stop-color="#7B3A22"/>
<stop offset="0.5528" stop-color="#733422"/>
<stop offset="0.6982" stop-color="#713222"/>
<stop offset="0.7307" stop-color="#743422"/>
<stop offset="0.7531" stop-color="#7D3C23"/>
<stop offset="0.7725" stop-color="#8C4823"/>
<stop offset="0.7902" stop-color="#A25924"/>
<stop offset="0.8067" stop-color="#BE7025"/>
<stop offset="0.8221" stop-color="#E08B27"/>
<stop offset="0.8249" stop-color="#E79127"/>
<stop offset="0.8485" stop-color="#ECA443"/>
<stop offset="0.8993" stop-color="#F8D68A"/>
<stop offset="0.9294" stop-color="#FFF5B7"/>
</linearGradient>
<linearGradient id="paint7_linear" x1="11.8079" y1="5.96615" x2="12.0625" y2="17.1878" gradientUnits="userSpaceOnUse">
<stop stop-color="#DD8E19"/>
<stop offset="1" stop-color="#FFEDA5"/>
</linearGradient>
</defs>
</svg>
