<svg width="65" height="65" viewBox="0 0 65 65" fill="none" xmlns="http://www.w3.org/2000/svg">
<rect x="0.947266" y="0.329102" width="64" height="64" rx="32" fill="#162746"/>
<path d="M31.0983 39.6124L30.4994 39.8222C30.221 39.9197 29.9112 39.8561 29.6939 39.6593C28.5704 38.6412 27.418 36.4345 26.9619 35.0993L29.507 34.208C29.8605 35.328 30.7878 37.3797 31.4956 38.3348C31.8299 38.7859 31.6332 39.4251 31.0983 39.6124Z" fill="white"/>
<path d="M28.8687 34.4323L26.7089 35.1886C25.5162 35.6064 24.2045 34.9952 23.7793 33.8235C23.354 32.6519 23.9763 31.3635 25.1691 30.9458L27.3286 30.1895L28.8687 34.4323Z" fill="#31B7BC"/>
<path d="M27.0152 30.4105C26.6012 30.6328 26.5866 31.6465 26.9714 32.7067C27.3562 33.767 28.0205 34.543 28.4838 34.4567L38.6591 34.49L34.8743 24.0625L27.0152 30.4105Z" fill="#31B7BC"/>
<path d="M34.7713 23.4114C33.632 23.8104 33.6546 26.7409 34.8217 29.9569C35.9889 33.1728 37.8587 35.4564 38.9981 35.0574C40.1374 34.6584 40.1148 31.7279 38.9477 28.5119C37.7805 25.296 35.9107 23.0124 34.7713 23.4114Z" fill="white"/>
<path d="M34.82 29.9571C35.0749 30.6597 35.3636 31.3178 35.6707 31.9131L37.9919 30.6678L36.8188 27.4355L34.2192 27.9136C34.3646 28.5656 34.565 29.2545 34.82 29.9571Z" fill="#31B7BC"/>
<path d="M36.8207 27.4371C36.5045 27.5478 36.5108 28.3611 36.8347 29.2537C37.1586 30.1462 37.6776 30.78 37.9938 30.6693C38.3101 30.5585 38.3038 29.7452 37.9799 28.8527C37.6559 27.9601 37.137 27.3263 36.8207 27.4371Z" fill="#B3EDFF"/>
<path d="M39.0899 35.3146C38.419 35.5495 37.5712 35.0948 36.7029 34.0341C35.895 33.0476 35.1336 31.6322 34.5589 30.0488C33.9842 28.4654 33.6623 26.8962 33.6526 25.6302C33.642 24.2691 34.0057 23.39 34.6765 23.1552C35.3473 22.9203 36.195 23.3749 37.0636 24.4357C37.8713 25.4221 38.6328 26.8376 39.2074 28.421C39.7821 30.0044 40.104 31.5736 40.1138 32.8396C40.1242 34.2007 39.7606 35.0797 39.0899 35.3146ZM34.8626 23.6682C34.0104 23.9666 33.8904 26.5854 35.0812 29.866C36.2718 33.1465 38.0512 35.1001 38.9035 34.8016C39.7559 34.5032 39.8759 31.8844 38.6851 28.6038C37.4943 25.3233 35.715 23.3696 34.8626 23.6682Z" fill="#B3EDFF"/>
<path d="M18.611 46.1297V26.7402H11.7822V52.9951H37.9014V46.1297H18.611Z" fill="url(#paint0_radial)"/>
<path d="M47.0384 17.728L47.0339 37.8158H54.1112L54.112 10.6172L27.0557 10.6188V17.728H47.0384Z" fill="url(#paint1_radial)"/>
<defs>
<radialGradient id="paint0_radial" cx="0" cy="0" r="1" gradientUnits="userSpaceOnUse" gradientTransform="translate(37.9014 48.8338) rotate(-162.316) scale(29.5158 29.3633)">
<stop stop-color="#31B7BC"/>
<stop offset="1" stop-color="#4080FF" stop-opacity="0"/>
</radialGradient>
<radialGradient id="paint1_radial" cx="0" cy="0" r="1" gradientUnits="userSpaceOnUse" gradientTransform="translate(25.2726 15.2973) rotate(28.5245) scale(32.8239 32.6523)">
<stop stop-color="#31B7BC"/>
<stop offset="1" stop-color="#4080FF" stop-opacity="0"/>
</radialGradient>
</defs>
</svg>
