<svg width="65" height="65" viewBox="0 0 65 65" fill="none" xmlns="http://www.w3.org/2000/svg">
<circle cx="32.04" cy="32.2549" r="32" fill="#4048FF"/>
<circle cx="32.1798" cy="32.5426" r="11.6237" fill="white"/>
<path d="M29.9405 41.5512L29.2622 41.7888C28.9469 41.8992 28.596 41.8271 28.3499 41.6043C27.0772 40.4511 25.7719 37.9516 25.2554 36.4393L28.1381 35.4297C28.5385 36.6982 29.5889 39.0222 30.3906 40.1041C30.7692 40.615 30.5464 41.339 29.9405 41.5512Z" fill="#000342"/>
<path d="M27.4147 35.6828L24.9684 36.5395C23.6174 37.0126 22.1317 36.3204 21.6501 34.9933C21.1684 33.6662 21.8732 32.2068 23.2242 31.7336L25.6703 30.877L27.4147 35.6828Z" fill="#0286FF"/>
<path d="M25.3157 31.1268C24.8468 31.3785 24.8303 32.5268 25.2662 33.7277C25.702 34.9287 26.4544 35.8076 26.9791 35.7099C26.9795 35.7112 38.5045 35.7476 38.5045 35.7476L34.2176 23.9365L25.3157 31.1268Z" fill="#0286FF"/>
<path d="M34.1003 23.1993C32.8098 23.6513 32.8353 26.9706 34.1574 30.6133C35.4795 34.256 37.5974 36.8425 38.8879 36.3906C40.1784 35.9386 40.1529 32.6193 38.8308 28.9766C37.5088 25.334 35.3908 22.7474 34.1003 23.1993Z" fill="#000342"/>
<path d="M34.1556 30.6139C34.4443 31.4098 34.7713 32.1552 35.1191 32.8295L37.7484 31.4189L36.4196 27.7578L33.4751 28.2993C33.6398 29.0378 33.8668 29.8181 34.1556 30.6139Z" fill="#0286FF"/>
<path d="M36.4226 27.7605C36.0645 27.8859 36.0716 28.8071 36.4385 29.8181C36.8054 30.829 37.3932 31.5469 37.7514 31.4215C38.1095 31.296 38.1025 30.3748 37.7355 29.3638C37.3686 28.3529 36.7808 27.635 36.4226 27.7605Z" fill="#B3EDFF"/>
<path d="M38.9919 36.6821C38.2321 36.9482 37.2718 36.4331 36.2882 35.2317C35.3732 34.1143 34.5108 32.5111 33.8598 30.7176C33.2089 28.9241 32.8443 27.1467 32.8333 25.7127C32.8213 24.171 33.2332 23.1753 33.9931 22.9093C34.7529 22.6432 35.713 23.1582 36.6968 24.3597C37.6117 25.4771 38.4742 27.0803 39.1251 28.8738C39.7761 30.6673 40.1406 32.4447 40.1517 33.8787C40.1635 35.4204 39.7517 36.416 38.9919 36.6821ZM34.2038 23.4903C33.2386 23.8284 33.1027 26.7946 34.4514 30.5105C35.8 34.2263 37.8155 36.4391 38.7809 36.1011C39.7463 35.763 39.8822 32.7968 38.5334 29.0809C37.1847 25.3651 35.1693 23.1522 34.2038 23.4903Z" fill="#B3EDFF"/>
<rect x="8.92426" y="22.1734" width="6.37066" height="3.14544" rx="1.57272" transform="rotate(18.4176 8.92426 22.1734)" stroke="white" stroke-width="0.729737"/>
<rect x="12.7983" y="24.1006" width="7.10039" height="1.93759" rx="0.968795" transform="rotate(18.4176 12.7983 24.1006)" fill="white"/>
<rect x="17.7465" y="25.1109" width="6.37066" height="3.14544" rx="1.57272" transform="rotate(18.4176 17.7465 25.1109)" stroke="white" stroke-width="0.729737"/>
<path d="M13.3357 24.3398L14.9738 24.8614C15.0727 24.7808 14.8263 24.072 14.5133 23.8392C14.3123 23.6897 13.4803 24.0729 13.3357 24.3398Z" fill="#CFD4F1"/>
<path d="M18.4026 27.9482L16.7645 27.4267C16.6656 27.5073 16.9119 28.2161 17.225 28.4489C17.426 28.5984 18.2579 28.2152 18.4026 27.9482Z" fill="#CFD4F1"/>
<path d="M12.7768 26.0357L14.3856 26.6419C14.4132 26.7665 13.7805 27.17 13.3906 27.1586C13.1401 27.1513 12.7249 26.3349 12.7768 26.0357Z" fill="#CFD4F1"/>
<path d="M18.9614 26.2514L17.3527 25.6452C17.3251 25.5206 17.9578 25.1171 18.3477 25.1285C18.5982 25.1358 19.0134 25.9522 18.9614 26.2514Z" fill="#CFD4F1"/>
<rect x="13.1682" y="51.7586" width="6.37066" height="3.14544" rx="1.57272" transform="rotate(-49.4708 13.1682 51.7586)" stroke="white" stroke-width="0.729737"/>
<rect x="16.4106" y="48.8945" width="7.10039" height="1.93759" rx="0.968795" transform="rotate(-49.4708 16.4106 48.8945)" fill="white"/>
<rect x="19.2088" y="44.6912" width="6.37066" height="3.14544" rx="1.57272" transform="rotate(-49.4708 19.2088 44.6912)" stroke="white" stroke-width="0.729737"/>
<path d="M16.8356 48.4861L17.9355 47.1647C17.898 47.0428 17.1486 47.0042 16.8151 47.2066C16.6009 47.3365 16.6428 48.2515 16.8356 48.4861Z" fill="#CFD4F1"/>
<path d="M22.0857 45.1497L20.9859 46.471C21.0234 46.593 21.7728 46.6315 22.1063 46.4292C22.3205 46.2992 22.2786 45.3842 22.0857 45.1497Z" fill="#CFD4F1"/>
<path d="M18.1979 49.6424L19.3651 48.3802C19.4909 48.4015 19.6265 49.1395 19.4692 49.4965C19.3682 49.7258 18.4555 49.8032 18.1979 49.6424Z" fill="#CFD4F1"/>
<path d="M20.7255 43.9933L19.5583 45.2555C19.4325 45.2342 19.2968 44.4962 19.4541 44.1392C19.5552 43.9099 20.4678 43.8325 20.7255 43.9933Z" fill="#CFD4F1"/>
<rect x="27.79" y="57.8484" width="6.37066" height="3.14544" rx="1.57272" transform="rotate(-85.2236 27.79 57.8484)" stroke="white" stroke-width="0.729737"/>
<rect x="28.7485" y="53.6289" width="7.10039" height="1.93759" rx="0.968795" transform="rotate(-85.2236 28.7485 53.6289)" fill="white"/>
<rect x="28.5644" y="48.5828" width="6.37066" height="3.14544" rx="1.57272" transform="rotate(-85.2236 28.5644 48.5828)" stroke="white" stroke-width="0.729737"/>
<path d="M28.8536 53.0503L28.9741 51.3354C28.8724 51.2583 28.2417 51.6649 28.0893 52.024C27.9914 52.2546 28.56 52.9727 28.8536 53.0503Z" fill="#CFD4F1"/>
<path d="M31.1645 47.2749L31.044 48.9898C31.1457 49.0669 31.7764 48.6603 31.9288 48.3012C32.0267 48.0706 31.4581 47.3525 31.1645 47.2749Z" fill="#CFD4F1"/>
<path d="M30.6342 53.1924L30.8439 51.4861C30.9584 51.4299 31.4997 51.9496 31.5807 52.3312C31.6326 52.5763 30.9372 53.1724 30.6342 53.1924Z" fill="#CFD4F1"/>
<path d="M29.3858 47.1318L29.1761 48.8381C29.0616 48.8943 28.5203 48.3746 28.4394 47.993C28.3874 47.7479 29.0828 47.1518 29.3858 47.1318Z" fill="#CFD4F1"/>
<rect x="19.1726" y="10.2862" width="6.37066" height="3.14544" rx="1.57272" transform="rotate(53.1316 19.1726 10.2862)" stroke="white" stroke-width="0.729737"/>
<rect x="21.2598" y="14.0762" width="7.10039" height="1.93759" rx="0.968795" transform="rotate(53.1316 21.2598 14.0762)" fill="white"/>
<rect x="24.7512" y="17.7247" width="6.37066" height="3.14544" rx="1.57272" transform="rotate(53.1316 24.7512 17.7247)" stroke="white" stroke-width="0.729737"/>
<path d="M21.5645 14.5796L22.614 15.9412C22.7412 15.9312 22.9423 15.2083 22.8176 14.8387C22.7375 14.6013 21.8354 14.4425 21.5645 14.5796Z" fill="#CFD4F1"/>
<path d="M23.6753 20.4302L22.6258 19.0685C22.4985 19.0785 22.2974 19.8014 22.4221 20.1711C22.5022 20.4085 23.4043 20.5672 23.6753 20.4302Z" fill="#CFD4F1"/>
<path d="M20.1391 15.6556L21.1163 17.07C21.068 17.1881 20.3182 17.1595 20.0041 16.9281C19.8024 16.7795 19.926 15.8719 20.1391 15.6556Z" fill="#CFD4F1"/>
<path d="M25.1001 19.3542L24.123 17.9398C24.1712 17.8216 24.921 17.8503 25.2351 18.0817C25.4368 18.2303 25.3132 19.1379 25.1001 19.3542Z" fill="#CFD4F1"/>
<rect x="6.01267" y="37.7882" width="6.37066" height="3.14544" rx="1.57272" transform="rotate(-14.7568 6.01267 37.7882)" stroke="white" stroke-width="0.729737"/>
<rect x="10.3086" y="37.2812" width="7.10039" height="1.93759" rx="0.968795" transform="rotate(-14.7568 10.3086 37.2812)" fill="white"/>
<rect x="15.0029" y="35.4201" width="6.37066" height="3.14544" rx="1.57272" transform="rotate(-14.7568 15.0029 35.4201)" stroke="white" stroke-width="0.729737"/>
<path d="M10.8911 37.1876L12.5476 36.7277C12.5862 36.6061 11.9922 36.1477 11.6028 36.1241C11.3527 36.1089 10.8661 36.8849 10.8911 37.1876Z" fill="#CFD4F1"/>
<path d="M17.106 37.4345L15.4495 37.8943C15.4108 38.0159 16.0049 38.4744 16.3943 38.498C16.6443 38.5131 17.131 37.7372 17.106 37.4345Z" fill="#CFD4F1"/>
<path d="M11.3521 38.9131L13.0304 38.5403C13.1217 38.6294 12.8129 39.3133 12.4803 39.5172C12.2667 39.6481 11.4723 39.192 11.3521 38.9131Z" fill="#CFD4F1"/>
<path d="M16.6454 35.7099L14.9672 36.0828C14.8759 35.9936 15.1847 35.3097 15.5173 35.1059C15.7309 34.9749 16.5252 35.431 16.6454 35.7099Z" fill="#CFD4F1"/>
<rect x="42.8701" y="34.2368" width="6.37066" height="3.14544" rx="1.57272" transform="rotate(18.4176 42.8701 34.2368)" stroke="white" stroke-width="0.729737"/>
<rect x="46.7441" y="36.1621" width="7.10039" height="1.93759" rx="0.968795" transform="rotate(18.4176 46.7441 36.1621)" fill="white"/>
<rect x="51.6918" y="37.1734" width="6.37066" height="3.14544" rx="1.57272" transform="rotate(18.4176 51.6918 37.1734)" stroke="white" stroke-width="0.729737"/>
<path d="M47.2824 36.4023L48.9206 36.9239C49.0195 36.8433 48.7731 36.1345 48.4601 35.9017C48.2591 35.7522 47.4271 36.1354 47.2824 36.4023Z" fill="#CFD4F1"/>
<path d="M52.3494 40.0098L50.7113 39.4882C50.6124 39.5688 50.8587 40.2776 51.1717 40.5104C51.3728 40.66 52.2047 40.2767 52.3494 40.0098Z" fill="#CFD4F1"/>
<path d="M46.7231 38.0982L48.3319 38.7044C48.3595 38.829 47.7268 39.2325 47.3368 39.2211C47.0864 39.2138 46.6711 38.3974 46.7231 38.0982Z" fill="#CFD4F1"/>
<path d="M52.9082 38.3129L51.2995 37.7067C51.2719 37.5821 51.9046 37.1787 52.2945 37.19C52.5449 37.1973 52.9602 38.0137 52.9082 38.3129Z" fill="#CFD4F1"/>
<rect x="37.1223" y="24.8484" width="6.37066" height="3.14544" rx="1.57272" transform="rotate(-49.4708 37.1223 24.8484)" stroke="white" stroke-width="0.729737"/>
<rect x="40.3638" y="21.9834" width="7.10039" height="1.93759" rx="0.968795" transform="rotate(-49.4708 40.3638 21.9834)" fill="white"/>
<rect x="43.1629" y="17.7811" width="6.37066" height="3.14544" rx="1.57272" transform="rotate(-49.4708 43.1629 17.7811)" stroke="white" stroke-width="0.729737"/>
<path d="M40.7893 21.5759L41.8891 20.2546C41.8516 20.1326 41.1022 20.094 40.7687 20.2964C40.5545 20.4264 40.5964 21.3414 40.7893 21.5759Z" fill="#CFD4F1"/>
<path d="M46.0394 18.2395L44.9395 19.5609C44.977 19.6828 45.7264 19.7214 46.0599 19.519C46.2741 19.3891 46.2322 18.4741 46.0394 18.2395Z" fill="#CFD4F1"/>
<path d="M42.151 22.7323L43.3182 21.4701C43.444 21.4914 43.5796 22.2294 43.4223 22.5864C43.3213 22.8156 42.4086 22.8931 42.151 22.7323Z" fill="#CFD4F1"/>
<path d="M44.6781 17.0831L43.5109 18.3454C43.3851 18.3241 43.2495 17.586 43.4068 17.2291C43.5078 16.9998 44.4205 16.9224 44.6781 17.0831Z" fill="#CFD4F1"/>
<rect x="31.5043" y="22.0144" width="6.37066" height="3.14544" rx="1.57272" transform="rotate(-85.2236 31.5043 22.0144)" stroke="white" stroke-width="0.729737"/>
<rect x="32.4629" y="17.7959" width="7.10039" height="1.93759" rx="0.968795" transform="rotate(-85.2236 32.4629 17.7959)" fill="white"/>
<rect x="32.2787" y="12.7488" width="6.37066" height="3.14544" rx="1.57272" transform="rotate(-85.2236 32.2787 12.7488)" stroke="white" stroke-width="0.729737"/>
<path d="M32.5689 17.2154L32.6894 15.5004C32.5877 15.4234 31.957 15.8299 31.8046 16.189C31.7067 16.4196 32.2753 17.1377 32.5689 17.2154Z" fill="#CFD4F1"/>
<path d="M34.8798 11.4409L34.7593 13.1558C34.861 13.2329 35.4917 12.8263 35.6441 12.4672C35.742 12.2366 35.1734 11.5185 34.8798 11.4409Z" fill="#CFD4F1"/>
<path d="M34.3495 17.3584L34.5592 15.6521C34.6738 15.5959 35.215 16.1156 35.296 16.4972C35.348 16.7423 34.6525 17.3384 34.3495 17.3584Z" fill="#CFD4F1"/>
<path d="M33.1002 11.2978L32.8905 13.0041C32.7759 13.0603 32.2347 12.5407 32.1537 12.1591C32.1017 11.914 32.7972 11.3179 33.1002 11.2978Z" fill="#CFD4F1"/>
<rect x="40.2073" y="39.5343" width="6.37066" height="3.14544" rx="1.57272" transform="rotate(53.1316 40.2073 39.5343)" stroke="white" stroke-width="0.729737"/>
<rect x="42.2939" y="43.3242" width="7.10039" height="1.93759" rx="0.968795" transform="rotate(53.1316 42.2939 43.3242)" fill="white"/>
<rect x="45.7854" y="46.9727" width="6.37066" height="3.14544" rx="1.57272" transform="rotate(53.1316 45.7854 46.9727)" stroke="white" stroke-width="0.729737"/>
<path d="M42.5996 43.8276L43.6491 45.1893C43.7764 45.1793 43.9775 44.4564 43.8528 44.0867C43.7727 43.8494 42.8706 43.6906 42.5996 43.8276Z" fill="#CFD4F1"/>
<path d="M44.7109 49.6782L43.6614 48.3166C43.5342 48.3266 43.3331 49.0495 43.4578 49.4191C43.5379 49.6565 44.44 49.8153 44.7109 49.6782Z" fill="#CFD4F1"/>
<path d="M41.1743 44.9026L42.1514 46.3171C42.1032 46.4352 41.3534 46.4065 41.0393 46.1752C40.8376 46.0265 40.9612 45.119 41.1743 44.9026Z" fill="#CFD4F1"/>
<path d="M46.1348 48.6023L45.1576 47.1878C45.2059 47.0697 45.9557 47.0983 46.2698 47.3297C46.4715 47.4783 46.3479 48.3859 46.1348 48.6023Z" fill="#CFD4F1"/>
<rect x="41.0283" y="29.3097" width="6.37066" height="3.14544" rx="1.57272" transform="rotate(-14.7568 41.0283 29.3097)" stroke="white" stroke-width="0.729737"/>
<rect x="45.3252" y="28.8027" width="7.10039" height="1.93759" rx="0.968795" transform="rotate(-14.7568 45.3252 28.8027)" fill="white"/>
<rect x="50.0195" y="26.9415" width="6.37066" height="3.14544" rx="1.57272" transform="rotate(-14.7568 50.0195 26.9415)" stroke="white" stroke-width="0.729737"/>
<path d="M45.9057 28.709L47.5622 28.2492C47.6009 28.1276 47.0068 27.6692 46.6175 27.6456C46.3674 27.6304 45.8807 28.4064 45.9057 28.709Z" fill="#CFD4F1"/>
<path d="M52.1211 28.956L50.4646 29.4158C50.426 29.5374 51.02 29.9959 51.4094 30.0195C51.6595 30.0346 52.1461 29.2586 52.1211 28.956Z" fill="#CFD4F1"/>
<path d="M46.3663 30.4346L48.0445 30.0617C48.1358 30.1509 47.827 30.8348 47.4944 31.0387C47.2808 31.1696 46.4865 30.7135 46.3663 30.4346Z" fill="#CFD4F1"/>
<path d="M51.661 27.2314L49.9828 27.6043C49.8915 27.5151 50.2003 26.8312 50.5329 26.6273C50.7465 26.4964 51.5408 26.9525 51.661 27.2314Z" fill="#CFD4F1"/>
</svg>
