<svg width="30" height="30" viewBox="0 0 30 30" fill="none" xmlns="http://www.w3.org/2000/svg">
<path d="M15 0C6.71652 0 0 6.71652 0 15C0 23.2835 6.71652 30 15 30C23.2835 30 30 23.2835 30 15C30 6.71652 23.2835 0 15 0ZM20.5379 20.6987L18.3281 20.6886L15 16.721L11.6752 20.6853L9.46205 20.6953C9.31473 20.6953 9.1942 20.5781 9.1942 20.4275C9.1942 20.3638 9.21763 20.3036 9.25781 20.2533L13.6138 15.0636L9.25781 9.87723C9.21735 9.82816 9.19491 9.76672 9.1942 9.70312C9.1942 9.5558 9.31473 9.43527 9.46205 9.43527L11.6752 9.44531L15 13.4129L18.3248 9.44866L20.5346 9.43862C20.6819 9.43862 20.8025 9.5558 20.8025 9.70647C20.8025 9.77009 20.779 9.83036 20.7388 9.88058L16.3895 15.067L20.7422 20.2567C20.7824 20.3069 20.8058 20.3672 20.8058 20.4308C20.8058 20.5781 20.6853 20.6987 20.5379 20.6987Z" fill="#ADADC8"/>
</svg>
