<svg width="112" height="112" viewBox="0 0 112 112" fill="none" xmlns="http://www.w3.org/2000/svg">
<path d="M112 5.656L106.344 0L0 106.344L5.656 112L13.656 104H96C98.1208 103.997 100.154 103.153 101.653 101.653C103.153 100.154 103.997 98.1208 104 96V13.656L112 5.656ZM96 96H21.656L52.828 64.828L62.344 74.344C63.8442 75.8438 65.8787 76.6863 68 76.6863C70.1213 76.6863 72.1558 75.8438 73.656 74.344L80 68L96 83.988V96ZM96 72.672L85.656 62.328C84.1558 60.8282 82.1213 59.9857 80 59.9857C77.8787 59.9857 75.8442 60.8282 74.344 62.328L68 68.672L58.492 59.164L96 21.656V72.672Z" fill="#ADADC8"/>
<path d="M16 80V68L36 48.012L41.492 53.508L47.156 47.844L41.656 42.344C40.1558 40.8442 38.1213 40.0017 36 40.0017C33.8787 40.0017 31.8442 40.8442 30.344 42.344L16 56.688V16H80V8H16C13.8789 8.00212 11.8453 8.84565 10.3455 10.3455C8.84565 11.8453 8.00212 13.8789 8 16V80H16Z" fill="#ADADC8"/>
</svg>
