<svg width="98" height="126" viewBox="0 0 98 126" fill="none" xmlns="http://www.w3.org/2000/svg">
<path d="M80.3083 14.584H74.4167V8.69232C74.4167 7.11732 73.1333 5.83398 71.5583 5.83398H71.4708C69.8667 5.83398 68.5833 7.11732 68.5833 8.69232V14.584H62.7208C61.1458 14.584 59.8625 15.8673 59.8333 17.4423V17.5298C59.8333 19.134 61.1167 20.4173 62.7208 20.4173H68.5833V26.2798C68.5833 27.8548 69.8667 29.1673 71.4708 29.1382H71.5583C73.1333 29.1382 74.4167 27.8548 74.4167 26.2798V20.4173H80.3083C81.8833 20.4173 83.1667 19.134 83.1667 17.559V17.4423C83.1667 15.8673 81.8833 14.584 80.3083 14.584ZM65.6667 26.2798V23.334H62.7208C61.175 23.334 59.7167 22.7215 58.6083 21.6423C57.5292 20.534 56.9167 19.0757 56.9167 17.4423C56.9167 16.3923 57.2083 15.4298 57.7042 14.584H33.5833C30.375 14.584 27.75 17.209 27.75 20.4173V55.4173C27.75 58.6257 30.375 61.2507 33.5833 61.2507H68.5833C71.7917 61.2507 74.4167 58.6257 74.4167 55.4173V31.2673C73.5417 31.7632 72.55 32.084 71.4417 32.084C69.9097 32.0687 68.4453 31.4513 67.3648 30.3653C66.2842 29.2793 65.6743 27.8118 65.6667 26.2798ZM65.55 55.4173H36.5C36.2292 55.4173 35.9637 55.3419 35.7333 55.1995C35.5029 55.0571 35.3167 54.8534 35.1956 54.6112C35.0745 54.3689 35.0232 54.0978 35.0476 53.828C35.0719 53.5583 35.1708 53.3007 35.3333 53.084L41.1083 45.4132C41.7208 44.5965 42.9167 44.6548 43.5 45.4715L48.1667 52.5007L55.7792 42.3507C56.3625 41.5923 57.5 41.5632 58.0833 42.3215L66.6875 53.0548C67.4458 54.0173 66.775 55.4173 65.55 55.4173Z" fill="white"/>
<path d="M30.8112 101.481C31.1752 101.481 31.4995 101.42 31.7842 101.299C32.0735 101.178 32.3162 101.007 32.5122 100.788C32.7082 100.569 32.8575 100.303 32.9602 99.99C33.0675 99.6773 33.1212 99.3273 33.1212 98.94V92.878H35.0042V98.94C35.0042 99.542 34.9062 100.1 34.7102 100.613C34.5188 101.122 34.2412 101.563 33.8772 101.936C33.5178 102.305 33.0792 102.594 32.5612 102.804C32.0432 103.009 31.4598 103.112 30.8112 103.112C30.1578 103.112 29.5722 103.009 29.0542 102.804C28.5362 102.594 28.0952 102.305 27.7312 101.936C27.3718 101.563 27.0942 101.122 26.8982 100.613C26.7068 100.1 26.6112 99.542 26.6112 98.94V92.878H28.4942V98.933C28.4942 99.3203 28.5455 99.6703 28.6482 99.983C28.7555 100.296 28.9072 100.564 29.1032 100.788C29.3038 101.007 29.5465 101.178 29.8312 101.299C30.1205 101.42 30.4472 101.481 30.8112 101.481ZM38.7714 101.138C38.9674 101.376 39.1797 101.544 39.4084 101.642C39.6417 101.74 39.8937 101.789 40.1644 101.789C40.4257 101.789 40.6614 101.74 40.8714 101.642C41.0814 101.544 41.2587 101.395 41.4034 101.194C41.5527 100.993 41.667 100.741 41.7464 100.438C41.8257 100.13 41.8654 99.7683 41.8654 99.353C41.8654 98.933 41.8304 98.5783 41.7604 98.289C41.695 97.995 41.5994 97.757 41.4734 97.575C41.3474 97.393 41.1934 97.26 41.0114 97.176C40.834 97.092 40.631 97.05 40.4024 97.05C40.043 97.05 39.7374 97.127 39.4854 97.281C39.2334 97.4303 38.9954 97.6427 38.7714 97.918V101.138ZM38.6804 96.798C38.9744 96.4667 39.308 96.1983 39.6814 95.993C40.0547 95.7877 40.4934 95.685 40.9974 95.685C41.3894 95.685 41.7464 95.7667 42.0684 95.93C42.395 96.0933 42.675 96.3313 42.9084 96.644C43.1464 96.952 43.3284 97.3347 43.4544 97.792C43.585 98.2447 43.6504 98.765 43.6504 99.353C43.6504 99.8897 43.578 100.387 43.4334 100.844C43.2887 101.301 43.081 101.698 42.8104 102.034C42.5444 102.37 42.22 102.634 41.8374 102.825C41.4594 103.012 41.0347 103.105 40.5634 103.105C40.162 103.105 39.819 103.044 39.5344 102.923C39.2497 102.797 38.9954 102.624 38.7714 102.405V105.345H37.0424V95.818H38.0994C38.3234 95.818 38.4704 95.923 38.5404 96.133L38.6804 96.798ZM47.1694 92.598V103H45.4404V92.598H47.1694ZM52.49 95.706C53.022 95.706 53.505 95.7923 53.939 95.965C54.3777 96.1377 54.751 96.3827 55.059 96.7C55.3717 97.0173 55.612 97.4047 55.78 97.862C55.948 98.3193 56.032 98.8303 56.032 99.395C56.032 99.9643 55.948 100.478 55.78 100.935C55.612 101.392 55.3717 101.782 55.059 102.104C54.751 102.426 54.3777 102.673 53.939 102.846C53.505 103.019 53.022 103.105 52.49 103.105C51.9534 103.105 51.4657 103.019 51.027 102.846C50.5884 102.673 50.2127 102.426 49.9 102.104C49.592 101.782 49.3517 101.392 49.179 100.935C49.011 100.478 48.927 99.9643 48.927 99.395C48.927 98.8303 49.011 98.3193 49.179 97.862C49.3517 97.4047 49.592 97.0173 49.9 96.7C50.2127 96.3827 50.5884 96.1377 51.027 95.965C51.4657 95.7923 51.9534 95.706 52.49 95.706ZM52.49 101.775C53.0874 101.775 53.5284 101.574 53.813 101.173C54.1024 100.772 54.247 100.184 54.247 99.409C54.247 98.6343 54.1024 98.044 53.813 97.638C53.5284 97.232 53.0874 97.029 52.49 97.029C51.8834 97.029 51.433 97.2343 51.139 97.645C50.8497 98.051 50.705 98.639 50.705 99.409C50.705 100.179 50.8497 100.767 51.139 101.173C51.433 101.574 51.8834 101.775 52.49 101.775ZM61.5651 99.934C61.0658 99.9573 60.6458 100.002 60.3051 100.067C59.9644 100.128 59.6914 100.207 59.4861 100.305C59.2808 100.403 59.1338 100.517 59.0451 100.648C58.9564 100.779 58.9121 100.921 58.9121 101.075C58.9121 101.378 59.0008 101.595 59.1781 101.726C59.3601 101.857 59.5958 101.922 59.8851 101.922C60.2398 101.922 60.5454 101.859 60.8021 101.733C61.0634 101.602 61.3178 101.406 61.5651 101.145V99.934ZM57.6031 96.819C58.4291 96.063 59.4231 95.685 60.5851 95.685C61.0051 95.685 61.3808 95.755 61.7121 95.895C62.0434 96.0303 62.3234 96.2217 62.5521 96.469C62.7808 96.7117 62.9534 97.0033 63.0701 97.344C63.1914 97.6847 63.2521 98.058 63.2521 98.464V103H62.4681C62.3048 103 62.1788 102.977 62.0901 102.93C62.0014 102.879 61.9314 102.778 61.8801 102.629L61.7261 102.111C61.5441 102.274 61.3668 102.419 61.1941 102.545C61.0214 102.666 60.8418 102.769 60.6551 102.853C60.4684 102.937 60.2678 103 60.0531 103.042C59.8431 103.089 59.6098 103.112 59.3531 103.112C59.0498 103.112 58.7698 103.072 58.5131 102.993C58.2564 102.909 58.0348 102.785 57.8481 102.622C57.6614 102.459 57.5168 102.256 57.4141 102.013C57.3114 101.77 57.2601 101.488 57.2601 101.166C57.2601 100.984 57.2904 100.804 57.3511 100.627C57.4118 100.445 57.5098 100.272 57.6451 100.109C57.7851 99.9457 57.9648 99.7917 58.1841 99.647C58.4034 99.5023 58.6718 99.3763 58.9891 99.269C59.3111 99.1617 59.6844 99.0753 60.1091 99.01C60.5338 98.94 61.0191 98.898 61.5651 98.884V98.464C61.5651 97.9833 61.4624 97.6287 61.2571 97.4C61.0518 97.1667 60.7554 97.05 60.3681 97.05C60.0881 97.05 59.8548 97.0827 59.6681 97.148C59.4861 97.2133 59.3251 97.288 59.1851 97.372C59.0451 97.4513 58.9168 97.5237 58.8001 97.589C58.6881 97.6543 58.5621 97.687 58.4221 97.687C58.3008 97.687 58.1981 97.6567 58.1141 97.596C58.0301 97.5307 57.9624 97.456 57.9111 97.372L57.6031 96.819ZM69.8085 97.652C69.6125 97.414 69.3978 97.246 69.1645 97.148C68.9358 97.05 68.6885 97.001 68.4225 97.001C68.1612 97.001 67.9255 97.05 67.7155 97.148C67.5055 97.246 67.3258 97.3953 67.1765 97.596C67.0272 97.792 66.9128 98.044 66.8335 98.352C66.7542 98.6553 66.7145 99.0147 66.7145 99.43C66.7145 99.85 66.7472 100.207 66.8125 100.501C66.8825 100.79 66.9805 101.028 67.1065 101.215C67.2325 101.397 67.3865 101.53 67.5685 101.614C67.7505 101.693 67.9535 101.733 68.1775 101.733C68.5368 101.733 68.8425 101.658 69.0945 101.509C69.3465 101.36 69.5845 101.147 69.8085 100.872V97.652ZM71.5375 92.598V103H70.4805C70.2518 103 70.1072 102.895 70.0465 102.685L69.8995 101.992C69.6102 102.323 69.2765 102.592 68.8985 102.797C68.5252 103.002 68.0888 103.105 67.5895 103.105C67.1975 103.105 66.8382 103.023 66.5115 102.86C66.1848 102.697 65.9025 102.461 65.6645 102.153C65.4312 101.84 65.2492 101.455 65.1185 100.998C64.9925 100.541 64.9295 100.018 64.9295 99.43C64.9295 98.898 65.0018 98.4033 65.1465 97.946C65.2912 97.4887 65.4988 97.092 65.7695 96.756C66.0402 96.42 66.3645 96.1587 66.7425 95.972C67.1205 95.7807 67.5452 95.685 68.0165 95.685C68.4178 95.685 68.7608 95.748 69.0455 95.874C69.3302 96 69.5845 96.1703 69.8085 96.385V92.598H71.5375ZM11.7041 112.376V115.372H15.4981V116.877H11.7041V121H9.81411V110.878H16.1981V112.376H11.7041ZM18.9612 115.064C19.1852 114.635 19.4512 114.299 19.7592 114.056C20.0672 113.809 20.4312 113.685 20.8512 113.685C21.1826 113.685 21.4486 113.757 21.6492 113.902L21.5373 115.197C21.5139 115.281 21.4789 115.342 21.4322 115.379C21.3902 115.412 21.3319 115.428 21.2572 115.428C21.1872 115.428 21.0822 115.416 20.9422 115.393C20.8069 115.37 20.6739 115.358 20.5432 115.358C20.3519 115.358 20.1816 115.386 20.0322 115.442C19.8829 115.498 19.7476 115.58 19.6262 115.687C19.5096 115.79 19.4046 115.916 19.3112 116.065C19.2226 116.214 19.1386 116.385 19.0592 116.576V121H17.3302V113.818H18.3452C18.5226 113.818 18.6462 113.851 18.7162 113.916C18.7862 113.977 18.8329 114.089 18.8562 114.252L18.9612 115.064ZM25.9458 113.706C26.4778 113.706 26.9608 113.792 27.3948 113.965C27.8335 114.138 28.2068 114.383 28.5148 114.7C28.8275 115.017 29.0678 115.405 29.2358 115.862C29.4038 116.319 29.4878 116.83 29.4878 117.395C29.4878 117.964 29.4038 118.478 29.2358 118.935C29.0678 119.392 28.8275 119.782 28.5148 120.104C28.2068 120.426 27.8335 120.673 27.3948 120.846C26.9608 121.019 26.4778 121.105 25.9458 121.105C25.4092 121.105 24.9215 121.019 24.4828 120.846C24.0442 120.673 23.6685 120.426 23.3558 120.104C23.0478 119.782 22.8075 119.392 22.6348 118.935C22.4668 118.478 22.3828 117.964 22.3828 117.395C22.3828 116.83 22.4668 116.319 22.6348 115.862C22.8075 115.405 23.0478 115.017 23.3558 114.7C23.6685 114.383 24.0442 114.138 24.4828 113.965C24.9215 113.792 25.4092 113.706 25.9458 113.706ZM25.9458 119.775C26.5432 119.775 26.9842 119.574 27.2688 119.173C27.5582 118.772 27.7028 118.184 27.7028 117.409C27.7028 116.634 27.5582 116.044 27.2688 115.638C26.9842 115.232 26.5432 115.029 25.9458 115.029C25.3392 115.029 24.8888 115.234 24.5948 115.645C24.3055 116.051 24.1608 116.639 24.1608 117.409C24.1608 118.179 24.3055 118.767 24.5948 119.173C24.8888 119.574 25.3392 119.775 25.9458 119.775ZM31.2269 121V113.818H32.2839C32.5079 113.818 32.6549 113.923 32.7249 114.133L32.8369 114.665C32.9629 114.525 33.0936 114.397 33.2289 114.28C33.3689 114.163 33.5159 114.063 33.6699 113.979C33.8286 113.895 33.9966 113.83 34.1739 113.783C34.3559 113.732 34.5542 113.706 34.7689 113.706C35.2216 113.706 35.5926 113.83 35.8819 114.077C36.1759 114.32 36.3952 114.644 36.5399 115.05C36.6519 114.812 36.7919 114.609 36.9599 114.441C37.1279 114.268 37.3122 114.128 37.5129 114.021C37.7136 113.914 37.9259 113.834 38.1499 113.783C38.3786 113.732 38.6072 113.706 38.8359 113.706C39.2326 113.706 39.5849 113.767 39.8929 113.888C40.2009 114.009 40.4599 114.187 40.6699 114.42C40.8799 114.653 41.0386 114.938 41.1459 115.274C41.2579 115.61 41.3139 115.995 41.3139 116.429V121H39.5849V116.429C39.5849 115.972 39.4846 115.629 39.2839 115.4C39.0832 115.167 38.7892 115.05 38.4019 115.05C38.2246 115.05 38.0589 115.08 37.9049 115.141C37.7556 115.202 37.6226 115.29 37.5059 115.407C37.3939 115.519 37.3052 115.661 37.2399 115.834C37.1746 116.007 37.1419 116.205 37.1419 116.429V121H35.4059V116.429C35.4059 115.948 35.3079 115.598 35.1119 115.379C34.9206 115.16 34.6382 115.05 34.2649 115.05C34.0129 115.05 33.7772 115.113 33.5579 115.239C33.3432 115.36 33.1426 115.528 32.9559 115.743V121H31.2269ZM55.8187 115.925V120.02C55.3053 120.398 54.757 120.676 54.1737 120.853C53.595 121.026 52.9743 121.112 52.3117 121.112C51.4857 121.112 50.7367 120.984 50.0647 120.727C49.3973 120.47 48.8257 120.113 48.3497 119.656C47.8783 119.199 47.5143 118.653 47.2577 118.018C47.001 117.383 46.8727 116.69 46.8727 115.939C46.8727 115.178 46.9963 114.481 47.2437 113.846C47.491 113.211 47.841 112.665 48.2937 112.208C48.751 111.751 49.304 111.396 49.9527 111.144C50.6013 110.892 51.3293 110.766 52.1367 110.766C52.5473 110.766 52.93 110.799 53.2847 110.864C53.644 110.929 53.9753 111.02 54.2787 111.137C54.5867 111.249 54.8667 111.387 55.1187 111.55C55.3707 111.713 55.6017 111.893 55.8117 112.089L55.2727 112.943C55.1887 113.078 55.079 113.162 54.9437 113.195C54.8083 113.223 54.6613 113.188 54.5027 113.09C54.3487 113.001 54.1947 112.913 54.0407 112.824C53.8867 112.735 53.714 112.658 53.5227 112.593C53.336 112.528 53.1237 112.474 52.8857 112.432C52.6523 112.39 52.3817 112.369 52.0737 112.369C51.5743 112.369 51.1217 112.453 50.7157 112.621C50.3143 112.789 49.9713 113.029 49.6867 113.342C49.402 113.655 49.1827 114.03 49.0287 114.469C48.8747 114.908 48.7977 115.398 48.7977 115.939C48.7977 116.518 48.8793 117.036 49.0427 117.493C49.2107 117.946 49.444 118.331 49.7427 118.648C50.046 118.961 50.41 119.201 50.8347 119.369C51.2593 119.532 51.733 119.614 52.2557 119.614C52.629 119.614 52.9627 119.574 53.2567 119.495C53.5507 119.416 53.8377 119.308 54.1177 119.173V117.339H52.8437C52.7223 117.339 52.6267 117.306 52.5567 117.241C52.4913 117.171 52.4587 117.087 52.4587 116.989V115.925H55.8187ZM61.5465 117.934C61.0472 117.957 60.6272 118.002 60.2865 118.067C59.9458 118.128 59.6728 118.207 59.4675 118.305C59.2622 118.403 59.1152 118.517 59.0265 118.648C58.9378 118.779 58.8935 118.921 58.8935 119.075C58.8935 119.378 58.9822 119.595 59.1595 119.726C59.3415 119.857 59.5772 119.922 59.8665 119.922C60.2212 119.922 60.5268 119.859 60.7835 119.733C61.0448 119.602 61.2992 119.406 61.5465 119.145V117.934ZM57.5845 114.819C58.4105 114.063 59.4045 113.685 60.5665 113.685C60.9865 113.685 61.3622 113.755 61.6935 113.895C62.0248 114.03 62.3048 114.222 62.5335 114.469C62.7622 114.712 62.9348 115.003 63.0515 115.344C63.1728 115.685 63.2335 116.058 63.2335 116.464V121H62.4495C62.2862 121 62.1602 120.977 62.0715 120.93C61.9828 120.879 61.9128 120.778 61.8615 120.629L61.7075 120.111C61.5255 120.274 61.3482 120.419 61.1755 120.545C61.0028 120.666 60.8232 120.769 60.6365 120.853C60.4498 120.937 60.2492 121 60.0345 121.042C59.8245 121.089 59.5912 121.112 59.3345 121.112C59.0312 121.112 58.7512 121.072 58.4945 120.993C58.2378 120.909 58.0162 120.785 57.8295 120.622C57.6428 120.459 57.4982 120.256 57.3955 120.013C57.2928 119.77 57.2415 119.488 57.2415 119.166C57.2415 118.984 57.2718 118.804 57.3325 118.627C57.3932 118.445 57.4912 118.272 57.6265 118.109C57.7665 117.946 57.9462 117.792 58.1655 117.647C58.3848 117.502 58.6532 117.376 58.9705 117.269C59.2925 117.162 59.6658 117.075 60.0905 117.01C60.5152 116.94 61.0005 116.898 61.5465 116.884V116.464C61.5465 115.983 61.4438 115.629 61.2385 115.4C61.0332 115.167 60.7368 115.05 60.3495 115.05C60.0695 115.05 59.8362 115.083 59.6495 115.148C59.4675 115.213 59.3065 115.288 59.1665 115.372C59.0265 115.451 58.8982 115.524 58.7815 115.589C58.6695 115.654 58.5435 115.687 58.4035 115.687C58.2822 115.687 58.1795 115.657 58.0955 115.596C58.0115 115.531 57.9438 115.456 57.8925 115.372L57.5845 114.819ZM67.0319 110.598V121H65.3029V110.598H67.0319ZM70.9245 110.598V121H69.1955V110.598H70.9245ZM77.6942 116.583C77.6942 116.359 77.6615 116.149 77.5962 115.953C77.5355 115.752 77.4422 115.577 77.3162 115.428C77.1902 115.279 77.0292 115.162 76.8332 115.078C76.6419 114.989 76.4179 114.945 76.1612 114.945C75.6619 114.945 75.2675 115.087 74.9782 115.372C74.6935 115.657 74.5115 116.06 74.4322 116.583H77.6942ZM74.3972 117.626C74.4252 117.995 74.4905 118.314 74.5932 118.585C74.6959 118.851 74.8312 119.073 74.9992 119.25C75.1672 119.423 75.3655 119.553 75.5942 119.642C75.8275 119.726 76.0842 119.768 76.3642 119.768C76.6442 119.768 76.8845 119.735 77.0852 119.67C77.2905 119.605 77.4679 119.532 77.6172 119.453C77.7712 119.374 77.9042 119.301 78.0162 119.236C78.1329 119.171 78.2449 119.138 78.3522 119.138C78.4969 119.138 78.6042 119.192 78.6742 119.299L79.1712 119.929C78.9799 120.153 78.7652 120.342 78.5272 120.496C78.2892 120.645 78.0395 120.767 77.7782 120.86C77.5215 120.949 77.2579 121.012 76.9872 121.049C76.7212 121.086 76.4622 121.105 76.2102 121.105C75.7109 121.105 75.2465 121.023 74.8172 120.86C74.3879 120.692 74.0145 120.447 73.6972 120.125C73.3799 119.798 73.1302 119.397 72.9482 118.921C72.7662 118.44 72.6752 117.885 72.6752 117.255C72.6752 116.765 72.7545 116.305 72.9132 115.876C73.0719 115.442 73.2982 115.066 73.5922 114.749C73.8909 114.427 74.2525 114.173 74.6772 113.986C75.1065 113.799 75.5895 113.706 76.1262 113.706C76.5789 113.706 76.9965 113.778 77.3792 113.923C77.7619 114.068 78.0909 114.28 78.3662 114.56C78.6415 114.835 78.8562 115.176 79.0102 115.582C79.1689 115.983 79.2482 116.443 79.2482 116.961C79.2482 117.222 79.2202 117.4 79.1642 117.493C79.1082 117.582 79.0009 117.626 78.8422 117.626H74.3972ZM82.5967 115.064C82.8207 114.635 83.0867 114.299 83.3947 114.056C83.7027 113.809 84.0667 113.685 84.4867 113.685C84.8181 113.685 85.0841 113.757 85.2847 113.902L85.1727 115.197C85.1494 115.281 85.1144 115.342 85.0677 115.379C85.0257 115.412 84.9674 115.428 84.8927 115.428C84.8227 115.428 84.7177 115.416 84.5777 115.393C84.4424 115.37 84.3094 115.358 84.1787 115.358C83.9874 115.358 83.8171 115.386 83.6677 115.442C83.5184 115.498 83.3831 115.58 83.2617 115.687C83.1451 115.79 83.0401 115.916 82.9467 116.065C82.8581 116.214 82.7741 116.385 82.6947 116.576V121H80.9657V113.818H81.9807C82.1581 113.818 82.2817 113.851 82.3517 113.916C82.4217 113.977 82.4684 114.089 82.4917 114.252L82.5967 115.064ZM93.1324 113.818L89.2194 122.974C89.168 123.095 89.1004 123.186 89.0164 123.247C88.937 123.312 88.8134 123.345 88.6454 123.345H87.3574L88.7014 120.461L85.7964 113.818H87.3154C87.4507 113.818 87.5557 113.851 87.6304 113.916C87.7097 113.981 87.768 114.056 87.8054 114.14L89.3314 117.864C89.3827 117.99 89.4247 118.116 89.4574 118.242C89.4947 118.368 89.5297 118.496 89.5624 118.627C89.6044 118.496 89.6464 118.368 89.6884 118.242C89.7304 118.111 89.777 117.983 89.8284 117.857L91.2704 114.14C91.3077 114.047 91.3684 113.97 91.4524 113.909C91.541 113.848 91.639 113.818 91.7464 113.818H93.1324Z" fill="white"/>
</svg>
