<svg width="17" height="18" viewBox="0 0 17 18" fill="none" xmlns="http://www.w3.org/2000/svg">
<g clip-path="url(#clip0_11646_3014)">
<path d="M11.651 10.5588L9.34663 8.83054V5.31003C9.34663 4.95605 9.0605 4.66992 8.70652 4.66992C8.35253 4.66992 8.06641 4.95605 8.06641 5.31003V9.15063C8.06641 9.35225 8.16115 9.54238 8.32245 9.66272L10.8828 11.583C10.998 11.6694 11.1325 11.711 11.2662 11.711C11.4615 11.711 11.6535 11.6233 11.779 11.4543C11.9915 11.172 11.9339 10.7707 11.651 10.5588Z" fill="#75758F"/>
<path d="M8.70701 0.835693C4.15016 0.835693 0.443359 4.54249 0.443359 9.09934C0.443359 13.6562 4.15016 17.363 8.70701 17.363C13.2639 17.363 16.9707 13.6562 16.9707 9.09934C16.9707 4.54249 13.2639 0.835693 8.70701 0.835693ZM8.70701 16.0828C4.85683 16.0828 1.72355 12.9495 1.72355 9.09934C1.72355 5.24916 4.85683 2.11588 8.70701 2.11588C12.5578 2.11588 15.6905 5.24916 15.6905 9.09934C15.6905 12.9495 12.5572 16.0828 8.70701 16.0828Z" fill="#75758F"/>
</g>
<defs>
<clipPath id="clip0_11646_3014">
<rect width="16.5273" height="16.5273" fill="white" transform="translate(0.443359 0.835693)"/>
</clipPath>
</defs>
</svg>
