<svg width="205" height="118" viewBox="0 0 205 118" fill="none" xmlns="http://www.w3.org/2000/svg">
<path d="M17.1982 91.4287C17.1982 88.0589 19.93 85.3271 23.2998 85.3271H194.096C197.465 85.3271 200.197 88.0589 200.197 91.4287V92.7025C200.197 95.3688 198.036 97.5302 195.369 97.5302H194.905C192.495 97.5302 190.542 99.4836 190.542 101.893C190.542 104.303 188.588 106.256 186.179 106.256H167.685C164.714 106.256 162.305 108.665 162.305 111.636C162.305 114.607 159.897 117.015 156.926 117.015H59.5451C56.5741 117.015 54.1656 114.607 54.1656 111.636C54.1656 108.665 51.7571 106.256 48.786 106.256H31.6833C29.2737 106.256 27.3203 104.303 27.3203 101.893C27.3203 99.4836 25.3669 97.5302 22.9573 97.5302H22.2593C19.4641 97.5302 17.1982 95.2643 17.1982 92.4692V91.4287Z" fill="url(#paint0_linear)"/>
<path d="M7.55492 50.8633C6.31935 38.6303 12.7778 31.0847 21.9254 27.0062C36.5719 20.4772 42.6988 23.4598 65.6145 14.6077C93.6957 3.76028 104.72 40.8645 90.7797 54.8544C76.8395 68.8443 56.8123 59.7272 42.0342 65.8867C27.2561 72.0461 9.09938 66.1546 7.55492 50.8633Z" fill="#C5C7FF"/>
<rect x="13.4443" y="44.7119" width="74.0238" height="17.0613" rx="8.53065" transform="rotate(-13.3786 13.4443 44.7119)" fill="white"/>
<circle cx="23.8681" cy="51.0556" r="6.01663" transform="rotate(-21.1006 23.8681 51.0556)" fill="#FFA318"/>
<path d="M23.8206 47.6961C22.7968 48.0911 22.2885 49.2382 22.6836 50.2619C22.7676 50.4797 22.8952 50.6807 23.0446 50.8733L21.6401 54.0429L22.0604 55.1319L23.1494 54.7117L22.8973 54.0582L23.5507 53.8061L23.2986 53.1527L23.952 52.9005L24.5539 51.5421C24.7752 51.5318 25.0098 51.4913 25.2494 51.3989C26.2731 51.0038 26.7814 49.8568 26.3864 48.8331C25.9913 47.8093 24.8443 47.301 23.8206 47.6961ZM25.1215 49.4463C24.7512 49.5891 24.3588 49.4153 24.2159 49.045C24.0731 48.6747 24.2469 48.2823 24.6172 48.1394C24.9875 47.9965 25.3799 48.1704 25.5228 48.5407C25.6657 48.911 25.4918 49.3034 25.1215 49.4463Z" fill="white"/>
<circle cx="36.5242" cy="47.8502" r="1.42639" transform="rotate(-10.277 36.5242 47.8502)" fill="#1F2337"/>
<circle cx="42.4246" cy="46.4723" r="1.42639" transform="rotate(-10.277 42.4246 46.4723)" fill="#1F2337"/>
<circle cx="48.323" cy="45.0943" r="1.42639" transform="rotate(-10.277 48.323 45.0943)" fill="#1F2337"/>
<circle cx="54.2263" cy="43.7154" r="1.42639" transform="rotate(-10.277 54.2263 43.7154)" fill="#1F2337"/>
<circle cx="60.1248" cy="42.3385" r="1.42639" transform="rotate(-10.277 60.1248 42.3385)" fill="#1F2337"/>
<path d="M71.1246 34.2224L72.0216 34.0727L71.9364 33.1673L71.8151 31.8788C73.2321 31.4347 74.3726 30.6043 75.1817 29.3753C76.1674 27.901 76.4549 26.1576 76.1332 24.2295C75.7538 21.9561 74.8248 20.1761 73.2246 19.0858C71.6767 17.9994 69.8305 17.6725 67.7767 18.0152C66.2085 18.2769 64.8753 18.8423 63.8413 19.7619C62.833 20.6362 62.1428 21.7168 61.7911 22.987L61.791 22.987L61.7876 23C61.4622 24.2413 61.4514 25.5416 61.7327 26.8857L61.9248 27.8035L62.8497 27.6491L63.8009 27.4904L63.9033 28.0247L65.0984 34.2615L65.2779 35.1981L66.2186 35.0411L71.1246 34.2224ZM65.3304 39.8155C65.5219 40.9633 66.0619 41.916 66.9694 42.5947C67.9006 43.2911 69.007 43.5015 70.1959 43.3031C71.3736 43.1066 72.3407 42.5465 72.9925 41.5896C73.6304 40.653 73.8318 39.5765 73.6403 38.4288C73.4469 37.27 72.9107 36.3065 72.0025 35.6247C71.0751 34.9106 69.9748 34.6802 68.7899 34.8779C67.5939 35.0775 66.617 35.6509 65.9689 36.6316C65.3312 37.5713 65.137 38.6568 65.3304 39.8155Z" fill="#F52079" stroke="white" stroke-width="1.95373"/>
<path d="M61.0295 62.125C63.5542 50.2181 81.1792 49.8526 89.676 51.1582C91.4241 69.1228 73.087 83.0141 63.7 87.7141C61.7579 84.1456 58.5049 74.0318 61.0295 62.125Z" fill="#202438"/>
<path fill-rule="evenodd" clip-rule="evenodd" d="M85.5388 53.7128C80.4107 55.2698 76.8893 56.339 76.2093 61.4396C74.6072 73.4559 74.498 80.7609 75.7482 85.3267H108.605C108.801 84.8994 109.032 84.4091 109.289 83.8646C113.046 75.8922 122.276 56.3041 107.174 53.0126C96.458 50.677 95.621 50.6106 94.9119 50.5544C94.7296 50.5399 94.5557 50.5261 94.2245 50.4746C91.0334 52.0444 88.0876 52.9389 85.5388 53.7128Z" fill="url(#paint1_linear)"/>
<path d="M89.8221 48.9177C88.3816 42.9005 93.6605 37.4156 99.7284 38.6249L103.705 39.4174C108.311 40.3353 111.294 44.8207 110.36 49.423L108.772 57.2466C107.92 61.4428 104.074 64.346 99.8048 64.0155L99.4725 63.9898C95.803 63.7057 92.7355 61.0875 91.8786 57.5081L89.8221 48.9177Z" fill="url(#paint2_linear)"/>
<path d="M108.644 42.9141C109.112 41.7028 113.01 43.4972 113.009 46.2472C112.03 47.4404 112.705 45.5471 111.702 44.7796C110.062 43.5247 108.245 43.9437 108.644 42.9141Z" fill="#FFC9C9"/>
<path d="M96.0275 55.4801C95.3119 56.0716 94.0867 57.5672 94.9108 58.8179C95.9409 60.3813 97.3019 58.1221 96.0275 55.4801Z" fill="#F6F6FF"/>
<path d="M95.1217 68.2003C94.7738 68.689 94.2589 69.8273 94.9823 70.4704C95.8865 71.2742 96.3587 69.6366 95.1217 68.2003Z" fill="#F6F6FF"/>
<path d="M104.355 75.1841C104.696 75.6511 105.206 76.7422 104.516 77.3704C103.654 78.1556 103.18 76.5827 104.355 75.1841Z" fill="#F6F6FF"/>
<path d="M113.822 56.1156C115.646 55.3406 114.566 49.9993 112.913 46.903C112.913 46.2381 112.457 46.1279 110.634 51.006C108.355 57.1036 111.543 57.0844 113.822 56.1156Z" fill="#FFC9C9"/>
<path d="M88.5177 40.5969C90.0285 35.3389 96.198 34.2763 99.0939 34.4022C112.644 34.9912 111.937 39.7861 111.937 41.7403C111.937 47.1343 114.281 48.8396 112.914 51.7706C111.608 54.5685 111.584 58.0731 111.937 58.5768C109.821 57.912 109.947 56.7385 110.275 56.2349C108.945 57.1414 109.721 58.7279 110.275 59.4078C108.789 59.3826 105.153 58.9092 102.493 57.2169C99.8342 55.5247 99.6227 52.1302 99.8493 50.6445C98.701 51.3697 99.3708 53.9181 99.8493 55.1017C95.8 53.9534 95.2914 49.7379 95.5432 47.7737L90.8249 53.7869L89.3614 50.6445C91.0234 51.1229 87.0068 45.8549 88.5177 40.5969Z" fill="#1F2337"/>
<path d="M87.3275 44.099L86.766 55.4731C86.6538 56.9298 86.8225 59.9032 88.3945 60.1427C90.3596 60.442 92.1177 59.5032 92.1177 54.792C92.1177 52.1777 92.25 48.9778 96.0763 48.6675C97.5068 48.5516 97.092 47.4331 95.5249 47.2714C92.6432 46.9741 91.0439 49.6898 90.6956 48.1396C91.8724 47.4744 92.6175 46.5426 93.5037 46.2046C96.2543 45.1557 96.9725 46.4322 97.4108 45.5015C97.9777 44.2977 95.1078 44.1413 93.5037 44.6727C91.591 45.3063 89.6283 46.8469 90.0783 46.3407C90.9056 45.41 91.1072 44.099 93.1916 43.5175C93.9544 43.5175 95.9628 43.5098 95.8332 42.7371C95.7282 42.1111 95.3126 42.1659 93.7693 42.0609C90.0783 41.8097 88.5853 45.8477 88.8437 44.099C89.2488 41.3577 92.437 40.8064 93.5037 40.6268C94.3571 40.4832 94.271 40.0481 94.1213 39.8485C89.6746 38.9386 87.7393 42.3031 87.3275 44.099Z" fill="#FFC9C9"/>
<path d="M108.938 44.9314C109.39 43.779 113.406 45.0134 113.415 47.6335C112.763 48.4804 113.16 47.5936 112.182 46.859C110.581 45.6577 108.554 45.9111 108.938 44.9314Z" fill="#FFC9C9"/>
<path d="M110.63 39.4453C111.325 38.9173 113.289 41.1338 112.333 42.7143C111.63 42.985 112.195 42.597 111.875 41.7957C111.353 40.4854 110.039 39.894 110.63 39.4453Z" fill="#FFC9C9"/>
<path d="M109.484 40.9983C110.296 40.0643 113.665 42.5745 112.794 45.0457C111.896 45.6249 112.568 44.9229 111.893 43.9024C110.788 42.2339 108.793 41.7923 109.484 40.9983Z" fill="#FFC9C9"/>
<path d="M77.8666 57.502C79.6557 56.5226 82.6316 60.8761 83.9931 62.7262C78.7421 73.9358 67.5399 95.2612 64.7394 90.8862C61.2387 85.4174 75.6301 58.7264 77.8666 57.502Z" fill="url(#paint3_linear)"/>
<path d="M72.7469 92.335C49.9637 95.7897 79.3781 68.4221 86.9581 58.373C86.9581 58.373 87.1028 59.2955 88.1197 59.8967C89.1367 60.4979 90.3515 59.8967 90.3515 59.8967C86.9568 72.2129 79.5274 91.3068 72.7469 92.335Z" fill="#4048FF"/>
<path d="M113.748 71.2211L112.865 60.6074L114.521 59.7988C119.671 70.1092 128.691 90.4469 123.57 89.3148C118.45 88.1827 114.889 76.7806 113.748 71.2211Z" fill="#161CA7"/>
<path d="M124.625 89.6628C142.336 93.1725 120.69 64.2362 114.798 54.0273C114.798 54.0273 114.13 55.3697 113.53 55.8519C112.93 56.334 111.727 56.4966 111.727 56.4966C114.366 69.0087 119.354 88.6183 124.625 89.6628Z" fill="#4048FF"/>
<g style="mix-blend-mode:multiply">
<path d="M102.857 60.0637C102.526 58.731 102.644 57.9308 103.049 57.5264L104.538 58.3636V60.5678L101.461 61.5597L102.857 60.0637Z" fill="url(#paint4_linear)"/>
</g>
<path d="M133.195 97.9186C132.629 97.6505 132.729 96.8164 133.343 96.69L152.842 92.6702C152.961 92.6458 153.084 92.6548 153.198 92.6964L163.087 96.3084C163.701 96.5329 163.64 97.4215 163 97.5591L142.199 102.034C142.059 102.064 141.912 102.047 141.783 101.986L133.195 97.9186Z" fill="#616186"/>
<path d="M142.197 89.2392C142.197 88.1972 142.903 87.2874 143.912 87.0277L151.592 85.0514C153.037 84.6796 154.445 85.7708 154.445 87.2629V94.6461C154.445 95.7528 153.651 96.7002 152.561 96.8943L144.881 98.2624C143.482 98.5117 142.197 97.4357 142.197 96.0143V89.2392Z" fill="#75758F"/>
<path d="M92.7402 59.5654L93.1526 60.2589C96.0764 64.6968 101.701 64.2493 102.81 63.6201L98.6188 69.4512L93.1526 60.2589C93.0083 60.0398 92.8705 59.8089 92.7402 59.5654Z" fill="#F79797"/>
<path d="M99.446 100.022L90.67 95.5779C90.0983 95.2884 90.2429 94.4343 90.878 94.3491L123.487 89.9769C123.594 89.9626 123.703 89.975 123.804 90.013L133.02 93.4829C133.646 93.7184 133.555 94.6308 132.895 94.7375L99.8449 100.084C99.7087 100.106 99.5691 100.084 99.446 100.022Z" fill="url(#paint5_linear)"/>
<path d="M101.982 93.7645L114.558 91.8369" stroke="#9898B3" stroke-width="0.652436" stroke-linecap="round"/>
<path d="M95.4727 96.1028L97.7426 95.7461" stroke="#9898B3" stroke-width="0.652436" stroke-linecap="round"/>
<path d="M99.123 95.4925L101.393 95.1357" stroke="#9898B3" stroke-width="0.652436" stroke-linecap="round"/>
<path d="M102.775 94.8812L105.045 94.5244" stroke="#9898B3" stroke-width="0.652436" stroke-linecap="round"/>
<path d="M106.425 94.2698L108.695 93.9131" stroke="#9898B3" stroke-width="0.652436" stroke-linecap="round"/>
<path d="M110.079 93.6585L112.349 93.3018" stroke="#9898B3" stroke-width="0.652436" stroke-linecap="round"/>
<path d="M113.729 93.0481L115.999 92.6914" stroke="#9898B3" stroke-width="0.652436" stroke-linecap="round"/>
<path d="M117.378 92.4378L119.648 92.0811" stroke="#9898B3" stroke-width="0.652436" stroke-linecap="round"/>
<path d="M121.03 91.8255L123.3 91.4688" stroke="#9898B3" stroke-width="0.652436" stroke-linecap="round"/>
<path d="M97.7441 96.7132L100.014 96.3564" stroke="#9898B3" stroke-width="0.652436" stroke-linecap="round"/>
<path d="M101.395 96.1028L103.665 95.7461" stroke="#9898B3" stroke-width="0.652436" stroke-linecap="round"/>
<path d="M105.047 95.4915L107.317 95.1348" stroke="#9898B3" stroke-width="0.652436" stroke-linecap="round"/>
<path d="M108.696 94.8802L110.966 94.5234" stroke="#9898B3" stroke-width="0.652436" stroke-linecap="round"/>
<path d="M112.351 94.2688L114.621 93.9121" stroke="#9898B3" stroke-width="0.652436" stroke-linecap="round"/>
<path d="M116.001 93.6585L118.271 93.3018" stroke="#9898B3" stroke-width="0.652436" stroke-linecap="round"/>
<path d="M119.649 93.0481L121.919 92.6914" stroke="#9898B3" stroke-width="0.652436" stroke-linecap="round"/>
<path d="M123.302 92.4358L125.572 92.0791" stroke="#9898B3" stroke-width="0.652436" stroke-linecap="round"/>
<path d="M98.1445 97.8079L100.415 97.4512" stroke="#9898B3" stroke-width="0.652436" stroke-linecap="round"/>
<path d="M101.795 97.1976L104.065 96.8408" stroke="#9898B3" stroke-width="0.652436" stroke-linecap="round"/>
<path d="M105.447 96.5862L107.717 96.2295" stroke="#9898B3" stroke-width="0.652436" stroke-linecap="round"/>
<path d="M109.097 95.9749L111.367 95.6182" stroke="#9898B3" stroke-width="0.652436" stroke-linecap="round"/>
<path d="M112.751 95.3636L115.021 95.0068" stroke="#9898B3" stroke-width="0.652436" stroke-linecap="round"/>
<path d="M116.401 94.7532L118.671 94.3965" stroke="#9898B3" stroke-width="0.652436" stroke-linecap="round"/>
<path d="M120.05 94.1429L122.32 93.7861" stroke="#9898B3" stroke-width="0.652436" stroke-linecap="round"/>
<path d="M123.702 93.5306L125.972 93.1738" stroke="#9898B3" stroke-width="0.652436" stroke-linecap="round"/>
<path d="M101.627 98.3978L103.897 98.041" stroke="#9898B3" stroke-width="0.652436" stroke-linecap="round"/>
<path d="M105.277 97.7874L107.547 97.4307" stroke="#9898B3" stroke-width="0.652436" stroke-linecap="round"/>
<path d="M108.93 97.1761L111.2 96.8193" stroke="#9898B3" stroke-width="0.652436" stroke-linecap="round"/>
<path d="M112.579 96.5647L114.849 96.208" stroke="#9898B3" stroke-width="0.652436" stroke-linecap="round"/>
<path d="M116.233 95.9534L118.503 95.5967" stroke="#9898B3" stroke-width="0.652436" stroke-linecap="round"/>
<path d="M119.884 95.3421L122.154 94.9854" stroke="#9898B3" stroke-width="0.652436" stroke-linecap="round"/>
<path d="M123.532 94.7327L125.802 94.376" stroke="#9898B3" stroke-width="0.652436" stroke-linecap="round"/>
<path d="M127.185 94.1204L129.455 93.7637" stroke="#9898B3" stroke-width="0.652436" stroke-linecap="round"/>
<path d="M123.74 56.2982C123.74 55.626 124.251 55.0638 124.92 54.9994L171.427 50.5199C172.209 50.4446 172.88 51.0729 172.856 51.8585L171.847 85.0141C171.828 85.6373 171.371 86.16 170.756 86.2618L125.258 93.7888C124.463 93.9203 123.74 93.3071 123.74 92.5014V56.2982Z" fill="#75758F"/>
<path d="M125.021 58.1071V91.0973C125.021 91.902 125.743 92.5149 126.537 92.3851L170.969 85.1219C171.585 85.0213 172.043 84.4985 172.063 83.8746L173 53.6639C173.025 52.8767 172.352 52.2474 171.568 52.3248L126.198 56.8086C125.53 56.8746 125.021 57.4362 125.021 58.1071Z" fill="url(#paint6_linear)"/>
<path d="M146.035 67.626L142.935 81.1811L147.655 69.319C147.82 68.9035 148.187 68.6016 148.627 68.519L154.825 67.3546C155.499 67.228 156.156 67.6448 156.329 68.3086L159.049 78.7687L157.271 66.3587C157.167 65.6379 156.494 65.1411 155.775 65.255L147.103 66.6282C146.577 66.7116 146.154 67.1066 146.035 67.626Z" fill="#75758F"/>
<path fill-rule="evenodd" clip-rule="evenodd" d="M110.043 87.9733C110.043 88.6494 108.237 89.1975 106.009 89.1975C105.937 89.1975 105.866 89.1969 105.795 89.1958C105.795 89.1964 105.795 89.197 105.795 89.1977C105.795 89.4882 105.019 89.7236 104.062 89.7236C103.105 89.7236 102.329 89.4882 102.329 89.1977C102.329 89.0302 102.587 88.8809 102.989 88.7846C102.358 88.5686 101.976 88.2845 101.976 87.9733C101.976 87.2971 103.782 86.749 106.009 86.749C108.237 86.749 110.043 87.2971 110.043 87.9733ZM92.6537 90.7462C96.0696 90.7462 98.8387 89.9057 98.8387 88.8689C98.8387 87.8321 96.0696 86.9916 92.6537 86.9916C89.2378 86.9916 86.4687 87.8321 86.4687 88.8689C86.4687 88.9878 86.5051 89.1042 86.5748 89.2169C84.6943 89.3209 83.2686 89.8206 83.2686 90.4213C83.2686 91.0975 85.0744 91.6456 87.302 91.6456C89.218 91.6456 90.8219 91.2401 91.2332 90.6964C91.6893 90.729 92.1649 90.7462 92.6537 90.7462Z" fill="url(#paint7_linear)"/>
<path d="M93.6543 87.4869C93.4234 86.726 92.8393 85.3834 92.35 86.1009C91.8608 86.8184 93.0157 87.3238 93.6543 87.4869Z" fill="#F6F6FF"/>
<path d="M93.4907 85.7789C93.6951 85.3964 93.9876 84.6534 93.5222 84.7414C93.0568 84.8294 93.3073 85.4697 93.4907 85.7789Z" fill="#F6F6FF"/>
<path d="M93.9473 86.51C94.8187 86.2585 96.3589 85.6131 95.5483 85.044C94.7376 84.4749 94.1432 85.7842 93.9473 86.51Z" fill="#F6F6FF"/>
<path d="M194.978 29.8261C189.961 21.3208 180.664 16.5506 173.157 15.297C154.393 12.878 140.778 33.8202 152.783 48.6162C162.391 60.4585 152.079 42.6763 176.547 52.8456C193.277 59.799 202.469 42.5266 194.978 29.8261Z" fill="#F52079" stroke="#F6F6FF" stroke-width="0.787147"/>
<path d="M172.656 28.9985C173.14 27.561 174.609 26.832 176.047 27.3161C177.484 27.8002 178.213 29.2696 177.729 30.7071L177.16 32.3982L178.851 32.9677L179.42 31.2766C180.218 28.9091 178.984 26.4224 176.616 25.625C174.249 24.8277 171.762 26.0614 170.965 28.4289L170.395 30.12L172.086 30.6895L172.656 28.9985Z" fill="#F6F6FF"/>
<path d="M178.854 32.9676L170.399 30.1199C168.962 29.6358 167.492 30.3648 167.008 31.8023L165.015 37.7211C164.531 39.1585 165.26 40.628 166.697 41.1121L175.152 43.9597C176.59 44.4438 178.059 43.7148 178.543 42.2774L180.537 36.3586C181.021 34.9211 180.292 33.4517 178.854 32.9676ZM173.593 37.4092L173.194 38.5929C173.023 39.1003 172.571 39.3246 172.064 39.1537C171.556 38.9828 171.332 38.5307 171.503 38.0234L171.902 36.8396C171.733 36.5005 171.678 36.1054 171.792 35.7671C172.02 35.0907 172.811 34.6981 173.488 34.926C174.164 35.1538 174.557 35.945 174.329 36.6214C174.215 36.9597 173.932 37.2409 173.593 37.4092Z" fill="#F6F6FF"/>
<path d="M161.623 28.56L160.823 35.3221L158.103 35.1504L158.159 28.3413L161.623 28.56ZM159.201 39.3734C158.648 39.3385 158.213 39.1625 157.898 38.8456C157.583 38.5286 157.439 38.1459 157.467 37.6973C157.496 37.2392 157.687 36.8728 158.04 36.598C158.393 36.3137 158.847 36.1891 159.4 36.224C159.944 36.2584 160.374 36.4388 160.688 36.7653C161.004 37.0822 161.147 37.4697 161.118 37.9278C161.09 38.3764 160.899 38.738 160.546 39.0128C160.194 39.2876 159.745 39.4078 159.201 39.3734Z" fill="#F6F6FF"/>
<path d="M190.218 39.8965L185.465 44.7719L183.412 42.979L187.604 37.6129L190.218 39.8965ZM181.711 46.9976C181.294 46.6327 181.056 46.2286 180.999 45.7851C180.942 45.3417 181.061 44.9507 181.357 44.6122C181.659 44.2665 182.034 44.0921 182.481 44.089C182.934 44.0787 183.37 44.256 183.787 44.6209C184.198 44.9794 184.428 45.3841 184.479 45.8347C184.536 46.2782 184.414 46.6727 184.112 47.0184C183.816 47.3569 183.445 47.5277 182.998 47.5308C182.551 47.5339 182.122 47.3562 181.711 46.9976Z" fill="#F6F6FF"/>
<defs>
<linearGradient id="paint0_linear" x1="108.698" y1="80.0203" x2="108.698" y2="169.294" gradientUnits="userSpaceOnUse">
<stop offset="0.09375" stop-color="#1F2337"/>
<stop offset="1" stop-color="#75758F"/>
</linearGradient>
<linearGradient id="paint1_linear" x1="94.7357" y1="49.9437" x2="94.7357" y2="96.4177" gradientUnits="userSpaceOnUse">
<stop stop-color="#4048FF"/>
<stop offset="1" stop-color="#00057A"/>
</linearGradient>
<linearGradient id="paint2_linear" x1="99.3959" y1="56.5561" x2="81.1695" y2="56.9231" gradientUnits="userSpaceOnUse">
<stop stop-color="#FFC9C9"/>
<stop offset="1" stop-color="#E39F9F"/>
</linearGradient>
<linearGradient id="paint3_linear" x1="74.0932" y1="57.3604" x2="74.0932" y2="91.4691" gradientUnits="userSpaceOnUse">
<stop stop-color="#4048FF"/>
<stop offset="1" stop-color="#0009DB"/>
</linearGradient>
<linearGradient id="paint4_linear" x1="102.122" y1="60.127" x2="103.995" y2="60.5678" gradientUnits="userSpaceOnUse">
<stop stop-color="#F7BCBC"/>
<stop offset="1" stop-color="#F7BCBC" stop-opacity="0"/>
</linearGradient>
<linearGradient id="paint5_linear" x1="112.054" y1="89.9551" x2="119.571" y2="101.417" gradientUnits="userSpaceOnUse">
<stop stop-color="#75758F"/>
<stop offset="1" stop-color="#575777"/>
</linearGradient>
<linearGradient id="paint6_linear" x1="149.034" y1="52.1787" x2="149.034" y2="89.8278" gradientUnits="userSpaceOnUse">
<stop stop-color="#75758F"/>
<stop offset="1" stop-color="#47526A"/>
</linearGradient>
<linearGradient id="paint7_linear" x1="96.6556" y1="86.749" x2="96.6556" y2="97.6695" gradientUnits="userSpaceOnUse">
<stop stop-color="white"/>
<stop offset="1" stop-color="#4048FF"/>
</linearGradient>
</defs>
</svg>
