<svg width="30" height="25" viewBox="0 0 13 14" fill="none" xmlns="http://www.w3.org/2000/svg">
<mask id="mask0_18814_182716" style="mask-type:alpha" maskUnits="userSpaceOnUse" x="1" y="2" width="10" height="10">
<path d="M5.73721 6.17548L5.87858 6.31685L6.01996 6.17548L9.36863 2.8268C9.55746 2.63798 9.86361 2.63798 10.0524 2.8268C10.2413 3.01563 10.2413 3.32178 10.0524 3.51061L6.70376 6.85928L6.56239 7.00066L6.70376 7.14203L10.0524 10.4907C10.2413 10.6795 10.2413 10.9857 10.0524 11.1745C9.86361 11.3633 9.55746 11.3633 9.36863 11.1745L6.01996 7.82583L5.87858 7.68446L5.73721 7.82583L2.38854 11.1745C2.19971 11.3633 1.89356 11.3633 1.70473 11.1745C1.51591 10.9857 1.51591 10.6795 1.70473 10.4907L5.05341 7.14203L5.19478 7.00066L5.05341 6.85928L1.70473 3.51061C1.51591 3.32178 1.51591 3.01563 1.70473 2.8268C1.89356 2.63798 2.19971 2.63798 2.38854 2.8268L5.73721 6.17548Z" fill="#5F5F5F" stroke="black" stroke-width="0.399876"/>
</mask>
<g mask="url(#mask0_18814_182716)">
<rect width="12.796" height="13.3264" fill="#5F5F5F"/>
</g>
</svg>
