<svg width="570" height="39" viewBox="0 0 570 39" fill="none" xmlns="http://www.w3.org/2000/svg">
<path d="M22.0563 24.7659C22.3496 24.7659 22.6029 24.8793 22.8163 25.1059L24.9363 27.4059C23.7629 28.8593 22.3163 29.9726 20.5963 30.7459C18.8896 31.5193 16.8363 31.9059 14.4363 31.9059C12.2896 31.9059 10.3563 31.5393 8.63626 30.8059C6.92959 30.0726 5.46959 29.0526 4.25626 27.7459C3.04292 26.4393 2.10959 24.8793 1.45626 23.0659C0.816256 21.2526 0.496256 19.2726 0.496256 17.1259C0.496256 14.9526 0.856256 12.9659 1.57626 11.1659C2.29626 9.3526 3.30959 7.7926 4.61626 6.48594C5.92292 5.17927 7.48292 4.16594 9.29626 3.44594C11.1229 2.7126 13.1363 2.34594 15.3363 2.34594C17.4829 2.34594 19.3563 2.6926 20.9563 3.38594C22.5696 4.06594 23.9496 4.9726 25.0963 6.10594L23.2963 8.60594C23.1896 8.76594 23.0496 8.90594 22.8763 9.02594C22.7163 9.14594 22.4896 9.20594 22.1963 9.20594C21.8896 9.20594 21.5763 9.08594 21.2563 8.84594C20.9363 8.60594 20.5296 8.34594 20.0363 8.06594C19.5429 7.78594 18.9163 7.52594 18.1563 7.28594C17.4096 7.04594 16.4563 6.92594 15.2963 6.92594C13.9363 6.92594 12.6829 7.16594 11.5363 7.64594C10.4029 8.1126 9.42292 8.78594 8.59626 9.66594C7.78292 10.5459 7.14292 11.6193 6.67626 12.8859C6.22292 14.1393 5.99626 15.5526 5.99626 17.1259C5.99626 18.7526 6.22292 20.1993 6.67626 21.4659C7.14292 22.7326 7.76959 23.7993 8.55626 24.6659C9.34292 25.5326 10.2696 26.1993 11.3363 26.6659C12.4029 27.1193 13.5496 27.3459 14.7763 27.3459C15.5096 27.3459 16.1696 27.3059 16.7563 27.2259C17.3563 27.1459 17.9029 27.0193 18.3963 26.8459C18.9029 26.6726 19.3763 26.4526 19.8163 26.1859C20.2696 25.9059 20.7163 25.5659 21.1563 25.1659C21.2896 25.0459 21.4296 24.9526 21.5763 24.8859C21.7229 24.8059 21.8829 24.7659 22.0563 24.7659ZM29.7322 31.5859V1.86594H34.6722V13.2859C35.4722 12.5259 36.3522 11.9126 37.3122 11.4459C38.2722 10.9793 39.3989 10.7459 40.6922 10.7459C41.8122 10.7459 42.8055 10.9393 43.6722 11.3259C44.5389 11.6993 45.2589 12.2326 45.8322 12.9259C46.4189 13.6059 46.8589 14.4259 47.1522 15.3859C47.4589 16.3326 47.6122 17.3793 47.6122 18.5259V31.5859H42.6722V18.5259C42.6722 17.2726 42.3789 16.3059 41.7922 15.6259C41.2189 14.9326 40.3522 14.5859 39.1922 14.5859C38.3389 14.5859 37.5389 14.7793 36.7922 15.1659C36.0455 15.5526 35.3389 16.0793 34.6722 16.7459V31.5859H29.7322ZM62.2266 10.7459C63.7599 10.7459 65.1466 10.9926 66.3866 11.4859C67.6399 11.9793 68.7066 12.6793 69.5866 13.5859C70.4666 14.4926 71.1466 15.5993 71.6266 16.9059C72.1066 18.2126 72.3466 19.6726 72.3466 21.2859C72.3466 22.9126 72.1066 24.3793 71.6266 25.6859C71.1466 26.9926 70.4666 28.1059 69.5866 29.0259C68.7066 29.9459 67.6399 30.6526 66.3866 31.1459C65.1466 31.6393 63.7599 31.8859 62.2266 31.8859C60.6932 31.8859 59.2999 31.6393 58.0466 31.1459C56.7932 30.6526 55.7199 29.9459 54.8266 29.0259C53.9466 28.1059 53.2599 26.9926 52.7666 25.6859C52.2866 24.3793 52.0466 22.9126 52.0466 21.2859C52.0466 19.6726 52.2866 18.2126 52.7666 16.9059C53.2599 15.5993 53.9466 14.4926 54.8266 13.5859C55.7199 12.6793 56.7932 11.9793 58.0466 11.4859C59.2999 10.9926 60.6932 10.7459 62.2266 10.7459ZM62.2266 28.0859C63.9332 28.0859 65.1932 27.5126 66.0066 26.3659C66.8332 25.2193 67.2466 23.5393 67.2466 21.3259C67.2466 19.1126 66.8332 17.4259 66.0066 16.2659C65.1932 15.1059 63.9332 14.5259 62.2266 14.5259C60.4932 14.5259 59.2132 15.1126 58.3866 16.2859C57.5599 17.4459 57.1466 19.1259 57.1466 21.3259C57.1466 23.5259 57.5599 25.2059 58.3866 26.3659C59.2132 27.5126 60.4932 28.0859 62.2266 28.0859ZM82.4609 11.0659V31.5859H77.5209V11.0659H82.4609ZM83.2009 5.08594C83.2009 5.5126 83.1143 5.9126 82.9409 6.28594C82.7676 6.65927 82.5343 6.98594 82.2409 7.26594C81.9609 7.54594 81.6276 7.7726 81.2409 7.94594C80.8543 8.10594 80.4409 8.18594 80.0009 8.18594C79.5743 8.18594 79.1676 8.10594 78.7809 7.94594C78.4076 7.7726 78.0809 7.54594 77.8009 7.26594C77.5209 6.98594 77.2943 6.65927 77.1209 6.28594C76.9609 5.9126 76.8809 5.5126 76.8809 5.08594C76.8809 4.64594 76.9609 4.2326 77.1209 3.84594C77.2943 3.45927 77.5209 3.12594 77.8009 2.84594C78.0809 2.56594 78.4076 2.34594 78.7809 2.18594C79.1676 2.0126 79.5743 1.92594 80.0009 1.92594C80.4409 1.92594 80.8543 2.0126 81.2409 2.18594C81.6276 2.34594 81.9609 2.56594 82.2409 2.84594C82.5343 3.12594 82.7676 3.45927 82.9409 3.84594C83.1143 4.2326 83.2009 4.64594 83.2009 5.08594ZM101.24 15.0659C101.107 15.2793 100.967 15.4326 100.82 15.5259C100.674 15.6059 100.487 15.6459 100.26 15.6459C100.02 15.6459 99.7603 15.5793 99.4803 15.4459C99.2137 15.3126 98.9003 15.1659 98.5403 15.0059C98.1803 14.8326 97.767 14.6793 97.3003 14.5459C96.847 14.4126 96.307 14.3459 95.6803 14.3459C94.707 14.3459 93.9403 14.5526 93.3803 14.9659C92.8203 15.3793 92.5403 15.9193 92.5403 16.5859C92.5403 17.0259 92.6803 17.3993 92.9603 17.7059C93.2537 17.9993 93.6337 18.2593 94.1003 18.4859C94.5803 18.7126 95.1203 18.9193 95.7203 19.1059C96.3203 19.2793 96.9337 19.4726 97.5603 19.6859C98.187 19.8993 98.8003 20.1459 99.4003 20.4259C100 20.6926 100.534 21.0393 101 21.4659C101.48 21.8793 101.86 22.3793 102.14 22.9659C102.434 23.5526 102.58 24.2593 102.58 25.0859C102.58 26.0726 102.4 26.9859 102.04 27.8259C101.68 28.6526 101.154 29.3726 100.46 29.9859C99.767 30.5859 98.907 31.0593 97.8803 31.4059C96.867 31.7393 95.7003 31.9059 94.3803 31.9059C93.6737 31.9059 92.9803 31.8393 92.3003 31.7059C91.6337 31.5859 90.987 31.4126 90.3603 31.1859C89.747 30.9593 89.1737 30.6926 88.6403 30.3859C88.1203 30.0793 87.6603 29.7459 87.2603 29.3859L88.4003 27.5059C88.547 27.2793 88.7203 27.1059 88.9203 26.9859C89.1203 26.8659 89.3737 26.8059 89.6803 26.8059C89.987 26.8059 90.2737 26.8926 90.5403 27.0659C90.8203 27.2393 91.1403 27.4259 91.5003 27.6259C91.8603 27.8259 92.2803 28.0126 92.7603 28.1859C93.2537 28.3593 93.8737 28.4459 94.6203 28.4459C95.207 28.4459 95.707 28.3793 96.1203 28.2459C96.547 28.0993 96.8937 27.9126 97.1603 27.6859C97.4403 27.4593 97.6403 27.1993 97.7603 26.9059C97.8937 26.5993 97.9603 26.2859 97.9603 25.9659C97.9603 25.4859 97.8137 25.0926 97.5203 24.7859C97.2403 24.4793 96.8603 24.2126 96.3803 23.9859C95.9137 23.7593 95.3737 23.5593 94.7603 23.3859C94.1603 23.1993 93.5403 22.9993 92.9003 22.7859C92.2737 22.5726 91.6537 22.3259 91.0403 22.0459C90.4403 21.7526 89.9003 21.3859 89.4203 20.9459C88.9537 20.5059 88.5737 19.9659 88.2803 19.3259C88.0003 18.6859 87.8603 17.9126 87.8603 17.0059C87.8603 16.1659 88.027 15.3659 88.3603 14.6059C88.6937 13.8459 89.1803 13.1859 89.8203 12.6259C90.4737 12.0526 91.2803 11.5993 92.2403 11.2659C93.2137 10.9193 94.3337 10.7459 95.6003 10.7459C97.0137 10.7459 98.3003 10.9793 99.4603 11.4459C100.62 11.9126 101.587 12.5259 102.36 13.2859L101.24 15.0659ZM112.781 11.0659V31.5859H107.841V11.0659H112.781ZM113.521 5.08594C113.521 5.5126 113.435 5.9126 113.261 6.28594C113.088 6.65927 112.855 6.98594 112.561 7.26594C112.281 7.54594 111.948 7.7726 111.561 7.94594C111.175 8.10594 110.761 8.18594 110.321 8.18594C109.895 8.18594 109.488 8.10594 109.101 7.94594C108.728 7.7726 108.401 7.54594 108.121 7.26594C107.841 6.98594 107.615 6.65927 107.441 6.28594C107.281 5.9126 107.201 5.5126 107.201 5.08594C107.201 4.64594 107.281 4.2326 107.441 3.84594C107.615 3.45927 107.841 3.12594 108.121 2.84594C108.401 2.56594 108.728 2.34594 109.101 2.18594C109.488 2.0126 109.895 1.92594 110.321 1.92594C110.761 1.92594 111.175 2.0126 111.561 2.18594C111.948 2.34594 112.281 2.56594 112.561 2.84594C112.855 3.12594 113.088 3.45927 113.261 3.84594C113.435 4.2326 113.521 4.64594 113.521 5.08594ZM131.561 15.0659C131.427 15.2793 131.287 15.4326 131.141 15.5259C130.994 15.6059 130.807 15.6459 130.581 15.6459C130.341 15.6459 130.081 15.5793 129.801 15.4459C129.534 15.3126 129.221 15.1659 128.861 15.0059C128.501 14.8326 128.087 14.6793 127.621 14.5459C127.167 14.4126 126.627 14.3459 126.001 14.3459C125.027 14.3459 124.261 14.5526 123.701 14.9659C123.141 15.3793 122.861 15.9193 122.861 16.5859C122.861 17.0259 123.001 17.3993 123.281 17.7059C123.574 17.9993 123.954 18.2593 124.421 18.4859C124.901 18.7126 125.441 18.9193 126.041 19.1059C126.641 19.2793 127.254 19.4726 127.881 19.6859C128.507 19.8993 129.121 20.1459 129.721 20.4259C130.321 20.6926 130.854 21.0393 131.321 21.4659C131.801 21.8793 132.181 22.3793 132.461 22.9659C132.754 23.5526 132.901 24.2593 132.901 25.0859C132.901 26.0726 132.721 26.9859 132.361 27.8259C132.001 28.6526 131.474 29.3726 130.781 29.9859C130.087 30.5859 129.227 31.0593 128.201 31.4059C127.187 31.7393 126.021 31.9059 124.701 31.9059C123.994 31.9059 123.301 31.8393 122.621 31.7059C121.954 31.5859 121.307 31.4126 120.681 31.1859C120.067 30.9593 119.494 30.6926 118.961 30.3859C118.441 30.0793 117.981 29.7459 117.581 29.3859L118.721 27.5059C118.867 27.2793 119.041 27.1059 119.241 26.9859C119.441 26.8659 119.694 26.8059 120.001 26.8059C120.307 26.8059 120.594 26.8926 120.861 27.0659C121.141 27.2393 121.461 27.4259 121.821 27.6259C122.181 27.8259 122.601 28.0126 123.081 28.1859C123.574 28.3593 124.194 28.4459 124.941 28.4459C125.527 28.4459 126.027 28.3793 126.441 28.2459C126.867 28.0993 127.214 27.9126 127.481 27.6859C127.761 27.4593 127.961 27.1993 128.081 26.9059C128.214 26.5993 128.281 26.2859 128.281 25.9659C128.281 25.4859 128.134 25.0926 127.841 24.7859C127.561 24.4793 127.181 24.2126 126.701 23.9859C126.234 23.7593 125.694 23.5593 125.081 23.3859C124.481 23.1993 123.861 22.9993 123.221 22.7859C122.594 22.5726 121.974 22.3259 121.361 22.0459C120.761 21.7526 120.221 21.3859 119.741 20.9459C119.274 20.5059 118.894 19.9659 118.601 19.3259C118.321 18.6859 118.181 17.9126 118.181 17.0059C118.181 16.1659 118.347 15.3659 118.681 14.6059C119.014 13.8459 119.501 13.1859 120.141 12.6259C120.794 12.0526 121.601 11.5993 122.561 11.2659C123.534 10.9193 124.654 10.7459 125.921 10.7459C127.334 10.7459 128.621 10.9793 129.781 11.4459C130.941 11.9126 131.907 12.5259 132.681 13.2859L131.561 15.0659ZM150.022 15.0659C149.888 15.2793 149.748 15.4326 149.602 15.5259C149.455 15.6059 149.268 15.6459 149.042 15.6459C148.802 15.6459 148.542 15.5793 148.262 15.4459C147.995 15.3126 147.682 15.1659 147.322 15.0059C146.962 14.8326 146.548 14.6793 146.082 14.5459C145.628 14.4126 145.088 14.3459 144.462 14.3459C143.488 14.3459 142.722 14.5526 142.162 14.9659C141.602 15.3793 141.322 15.9193 141.322 16.5859C141.322 17.0259 141.462 17.3993 141.742 17.7059C142.035 17.9993 142.415 18.2593 142.882 18.4859C143.362 18.7126 143.902 18.9193 144.502 19.1059C145.102 19.2793 145.715 19.4726 146.342 19.6859C146.968 19.8993 147.582 20.1459 148.182 20.4259C148.782 20.6926 149.315 21.0393 149.782 21.4659C150.262 21.8793 150.642 22.3793 150.922 22.9659C151.215 23.5526 151.362 24.2593 151.362 25.0859C151.362 26.0726 151.182 26.9859 150.822 27.8259C150.462 28.6526 149.935 29.3726 149.242 29.9859C148.548 30.5859 147.688 31.0593 146.662 31.4059C145.648 31.7393 144.482 31.9059 143.162 31.9059C142.455 31.9059 141.762 31.8393 141.082 31.7059C140.415 31.5859 139.768 31.4126 139.142 31.1859C138.528 30.9593 137.955 30.6926 137.422 30.3859C136.902 30.0793 136.442 29.7459 136.042 29.3859L137.182 27.5059C137.328 27.2793 137.502 27.1059 137.702 26.9859C137.902 26.8659 138.155 26.8059 138.462 26.8059C138.768 26.8059 139.055 26.8926 139.322 27.0659C139.602 27.2393 139.922 27.4259 140.282 27.6259C140.642 27.8259 141.062 28.0126 141.542 28.1859C142.035 28.3593 142.655 28.4459 143.402 28.4459C143.988 28.4459 144.488 28.3793 144.902 28.2459C145.328 28.0993 145.675 27.9126 145.942 27.6859C146.222 27.4593 146.422 27.1993 146.542 26.9059C146.675 26.5993 146.742 26.2859 146.742 25.9659C146.742 25.4859 146.595 25.0926 146.302 24.7859C146.022 24.4793 145.642 24.2126 145.162 23.9859C144.695 23.7593 144.155 23.5593 143.542 23.3859C142.942 23.1993 142.322 22.9993 141.682 22.7859C141.055 22.5726 140.435 22.3259 139.822 22.0459C139.222 21.7526 138.682 21.3859 138.202 20.9459C137.735 20.5059 137.355 19.9659 137.062 19.3259C136.782 18.6859 136.642 17.9126 136.642 17.0059C136.642 16.1659 136.808 15.3659 137.142 14.6059C137.475 13.8459 137.962 13.1859 138.602 12.6259C139.255 12.0526 140.062 11.5993 141.022 11.2659C141.995 10.9193 143.115 10.7459 144.382 10.7459C145.795 10.7459 147.082 10.9793 148.242 11.4459C149.402 11.9126 150.368 12.5259 151.142 13.2859L150.022 15.0659ZM164.783 10.7459C166.076 10.7459 167.263 10.9526 168.343 11.3659C169.436 11.7793 170.376 12.3859 171.163 13.1859C171.949 13.9726 172.563 14.9459 173.003 16.1059C173.443 17.2526 173.663 18.5659 173.663 20.0459C173.663 20.4193 173.643 20.7326 173.603 20.9859C173.576 21.2259 173.516 21.4193 173.423 21.5659C173.343 21.6993 173.229 21.7993 173.083 21.8659C172.936 21.9193 172.749 21.9459 172.523 21.9459H159.843C159.989 24.0526 160.556 25.5993 161.543 26.5859C162.529 27.5726 163.836 28.0659 165.463 28.0659C166.263 28.0659 166.949 27.9726 167.523 27.7859C168.109 27.5993 168.616 27.3926 169.043 27.1659C169.483 26.9393 169.863 26.7326 170.183 26.5459C170.516 26.3593 170.836 26.2659 171.143 26.2659C171.343 26.2659 171.516 26.3059 171.663 26.3859C171.809 26.4659 171.936 26.5793 172.043 26.7259L173.483 28.5259C172.936 29.1659 172.323 29.7059 171.643 30.1459C170.963 30.5726 170.249 30.9193 169.503 31.1859C168.769 31.4393 168.016 31.6193 167.243 31.7259C166.483 31.8326 165.743 31.8859 165.023 31.8859C163.596 31.8859 162.269 31.6526 161.043 31.1859C159.816 30.7059 158.749 30.0059 157.843 29.0859C156.936 28.1526 156.223 27.0059 155.703 25.6459C155.183 24.2726 154.923 22.6859 154.923 20.8859C154.923 19.4859 155.149 18.1726 155.603 16.9459C156.056 15.7059 156.703 14.6326 157.543 13.7259C158.396 12.8059 159.429 12.0793 160.643 11.5459C161.869 11.0126 163.249 10.7459 164.783 10.7459ZM164.883 14.2859C163.443 14.2859 162.316 14.6926 161.503 15.5059C160.689 16.3193 160.169 17.4726 159.943 18.9659H169.223C169.223 18.3259 169.136 17.7259 168.963 17.1659C168.789 16.5926 168.523 16.0926 168.163 15.6659C167.803 15.2393 167.349 14.9059 166.803 14.6659C166.256 14.4126 165.616 14.2859 164.883 14.2859ZM193.51 13.1059C193.51 13.4526 193.443 13.7926 193.31 14.1259C193.19 14.4459 193.043 14.7193 192.87 14.9459L183.11 27.7859H193.23V31.5859H177.37V29.5259C177.37 29.2993 177.423 29.0326 177.53 28.7259C177.636 28.4059 177.803 28.1059 178.03 27.8259L187.87 14.8459H177.95V11.0659H193.51V13.1059ZM217.473 31.5859H212.993L204.833 11.0659H208.933C209.293 11.0659 209.593 11.1526 209.833 11.3259C210.086 11.4993 210.26 11.7193 210.353 11.9859L214.313 22.9459C214.54 23.5859 214.726 24.2126 214.873 24.8259C215.033 25.4393 215.173 26.0526 215.293 26.6659C215.413 26.0526 215.546 25.4393 215.693 24.8259C215.853 24.2126 216.053 23.5859 216.293 22.9459L220.353 11.9859C220.446 11.7193 220.613 11.4993 220.853 11.3259C221.093 11.1526 221.38 11.0659 221.713 11.0659H225.613L217.473 31.5859ZM237.617 10.7459C239.151 10.7459 240.537 10.9926 241.777 11.4859C243.031 11.9793 244.097 12.6793 244.977 13.5859C245.857 14.4926 246.537 15.5993 247.017 16.9059C247.497 18.2126 247.737 19.6726 247.737 21.2859C247.737 22.9126 247.497 24.3793 247.017 25.6859C246.537 26.9926 245.857 28.1059 244.977 29.0259C244.097 29.9459 243.031 30.6526 241.777 31.1459C240.537 31.6393 239.151 31.8859 237.617 31.8859C236.084 31.8859 234.691 31.6393 233.437 31.1459C232.184 30.6526 231.111 29.9459 230.217 29.0259C229.337 28.1059 228.651 26.9926 228.157 25.6859C227.677 24.3793 227.437 22.9126 227.437 21.2859C227.437 19.6726 227.677 18.2126 228.157 16.9059C228.651 15.5993 229.337 14.4926 230.217 13.5859C231.111 12.6793 232.184 11.9793 233.437 11.4859C234.691 10.9926 236.084 10.7459 237.617 10.7459ZM237.617 28.0859C239.324 28.0859 240.584 27.5126 241.397 26.3659C242.224 25.2193 242.637 23.5393 242.637 21.3259C242.637 19.1126 242.224 17.4259 241.397 16.2659C240.584 15.1059 239.324 14.5259 237.617 14.5259C235.884 14.5259 234.604 15.1126 233.777 16.2859C232.951 17.4459 232.537 19.1259 232.537 21.3259C232.537 23.5259 232.951 25.2059 233.777 26.3659C234.604 27.5126 235.884 28.0859 237.617 28.0859ZM259.332 31.9059C257.558 31.9059 256.192 31.4059 255.232 30.4059C254.272 29.3926 253.792 27.9993 253.792 26.2259V14.7659H251.712C251.445 14.7659 251.212 14.6793 251.012 14.5059C250.825 14.3326 250.732 14.0726 250.732 13.7259V11.7659L254.032 11.2259L255.072 5.62594C255.125 5.35927 255.245 5.1526 255.432 5.00594C255.632 4.85927 255.878 4.78594 256.172 4.78594H258.732V11.2459H264.132V14.7659H258.732V25.8859C258.732 26.5259 258.892 27.0259 259.212 27.3859C259.532 27.7459 259.958 27.9259 260.492 27.9259C260.798 27.9259 261.052 27.8926 261.252 27.8259C261.465 27.7459 261.645 27.6659 261.792 27.5859C261.952 27.5059 262.092 27.4326 262.212 27.3659C262.332 27.2859 262.452 27.2459 262.572 27.2459C262.718 27.2459 262.838 27.2859 262.932 27.3659C263.025 27.4326 263.125 27.5393 263.232 27.6859L264.712 30.0859C263.992 30.6859 263.165 31.1393 262.232 31.4459C261.298 31.7526 260.332 31.9059 259.332 31.9059ZM269.06 31.5859V11.0659H271.96C272.467 11.0659 272.82 11.1593 273.02 11.3459C273.22 11.5326 273.354 11.8526 273.42 12.3059L273.72 14.7859C274.454 13.5193 275.314 12.5193 276.3 11.7859C277.287 11.0526 278.394 10.6859 279.62 10.6859C280.634 10.6859 281.474 10.9193 282.14 11.3859L281.5 15.0859C281.46 15.3259 281.374 15.4993 281.24 15.6059C281.107 15.6993 280.927 15.7459 280.7 15.7459C280.5 15.7459 280.227 15.6993 279.88 15.6059C279.534 15.5126 279.074 15.4659 278.5 15.4659C277.474 15.4659 276.594 15.7526 275.86 16.3259C275.127 16.8859 274.507 17.7126 274 18.8059V31.5859H269.06ZM294.868 10.7459C296.162 10.7459 297.348 10.9526 298.428 11.3659C299.522 11.7793 300.462 12.3859 301.248 13.1859C302.035 13.9726 302.648 14.9459 303.088 16.1059C303.528 17.2526 303.748 18.5659 303.748 20.0459C303.748 20.4193 303.728 20.7326 303.688 20.9859C303.662 21.2259 303.602 21.4193 303.508 21.5659C303.428 21.6993 303.315 21.7993 303.168 21.8659C303.022 21.9193 302.835 21.9459 302.608 21.9459H289.928C290.075 24.0526 290.642 25.5993 291.628 26.5859C292.615 27.5726 293.922 28.0659 295.548 28.0659C296.348 28.0659 297.035 27.9726 297.608 27.7859C298.195 27.5993 298.702 27.3926 299.128 27.1659C299.568 26.9393 299.948 26.7326 300.268 26.5459C300.602 26.3593 300.922 26.2659 301.228 26.2659C301.428 26.2659 301.602 26.3059 301.748 26.3859C301.895 26.4659 302.022 26.5793 302.128 26.7259L303.568 28.5259C303.022 29.1659 302.408 29.7059 301.728 30.1459C301.048 30.5726 300.335 30.9193 299.588 31.1859C298.855 31.4393 298.102 31.6193 297.328 31.7259C296.568 31.8326 295.828 31.8859 295.108 31.8859C293.682 31.8859 292.355 31.6526 291.128 31.1859C289.902 30.7059 288.835 30.0059 287.928 29.0859C287.022 28.1526 286.308 27.0059 285.788 25.6459C285.268 24.2726 285.008 22.6859 285.008 20.8859C285.008 19.4859 285.235 18.1726 285.688 16.9459C286.142 15.7059 286.788 14.6326 287.628 13.7259C288.482 12.8059 289.515 12.0793 290.728 11.5459C291.955 11.0126 293.335 10.7459 294.868 10.7459ZM294.968 14.2859C293.528 14.2859 292.402 14.6926 291.588 15.5059C290.775 16.3193 290.255 17.4726 290.028 18.9659H299.308C299.308 18.3259 299.222 17.7259 299.048 17.1659C298.875 16.5926 298.608 16.0926 298.248 15.6659C297.888 15.2393 297.435 14.9059 296.888 14.6659C296.342 14.4126 295.702 14.2859 294.968 14.2859ZM331.91 15.4059C331.763 15.5926 331.617 15.7393 331.47 15.8459C331.337 15.9526 331.137 16.0059 330.87 16.0059C330.617 16.0059 330.37 15.9326 330.13 15.7859C329.89 15.6259 329.603 15.4526 329.27 15.2659C328.937 15.0659 328.537 14.8926 328.07 14.7459C327.617 14.5859 327.05 14.5059 326.37 14.5059C325.503 14.5059 324.743 14.6659 324.09 14.9859C323.437 15.2926 322.89 15.7393 322.45 16.3259C322.023 16.9126 321.703 17.6259 321.49 18.4659C321.277 19.2926 321.17 20.2326 321.17 21.2859C321.17 22.3793 321.283 23.3526 321.51 24.2059C321.75 25.0593 322.09 25.7793 322.53 26.3659C322.97 26.9393 323.503 27.3793 324.13 27.6859C324.757 27.9793 325.463 28.1259 326.25 28.1259C327.037 28.1259 327.67 28.0326 328.15 27.8459C328.643 27.6459 329.057 27.4326 329.39 27.2059C329.723 26.9659 330.01 26.7526 330.25 26.5659C330.503 26.3659 330.783 26.2659 331.09 26.2659C331.49 26.2659 331.79 26.4193 331.99 26.7259L333.41 28.5259C332.863 29.1659 332.27 29.7059 331.63 30.1459C330.99 30.5726 330.323 30.9193 329.63 31.1859C328.95 31.4393 328.243 31.6193 327.51 31.7259C326.777 31.8326 326.05 31.8859 325.33 31.8859C324.063 31.8859 322.87 31.6526 321.75 31.1859C320.63 30.7059 319.65 30.0126 318.81 29.1059C317.983 28.1993 317.323 27.0926 316.83 25.7859C316.35 24.4659 316.11 22.9659 316.11 21.2859C316.11 19.7793 316.323 18.3859 316.75 17.1059C317.19 15.8126 317.83 14.6993 318.67 13.7659C319.51 12.8193 320.55 12.0793 321.79 11.5459C323.03 11.0126 324.457 10.7459 326.07 10.7459C327.603 10.7459 328.943 10.9926 330.09 11.4859C331.25 11.9793 332.29 12.6859 333.21 13.6059L331.91 15.4059ZM346.313 10.7459C347.846 10.7459 349.233 10.9926 350.473 11.4859C351.726 11.9793 352.793 12.6793 353.673 13.5859C354.553 14.4926 355.233 15.5993 355.713 16.9059C356.193 18.2126 356.433 19.6726 356.433 21.2859C356.433 22.9126 356.193 24.3793 355.713 25.6859C355.233 26.9926 354.553 28.1059 353.673 29.0259C352.793 29.9459 351.726 30.6526 350.473 31.1459C349.233 31.6393 347.846 31.8859 346.313 31.8859C344.779 31.8859 343.386 31.6393 342.133 31.1459C340.879 30.6526 339.806 29.9459 338.913 29.0259C338.033 28.1059 337.346 26.9926 336.853 25.6859C336.373 24.3793 336.133 22.9126 336.133 21.2859C336.133 19.6726 336.373 18.2126 336.853 16.9059C337.346 15.5993 338.033 14.4926 338.913 13.5859C339.806 12.6793 340.879 11.9793 342.133 11.4859C343.386 10.9926 344.779 10.7459 346.313 10.7459ZM346.313 28.0859C348.019 28.0859 349.279 27.5126 350.093 26.3659C350.919 25.2193 351.333 23.5393 351.333 21.3259C351.333 19.1126 350.919 17.4259 350.093 16.2659C349.279 15.1059 348.019 14.5259 346.313 14.5259C344.579 14.5259 343.299 15.1126 342.473 16.2859C341.646 17.4459 341.233 19.1259 341.233 21.3259C341.233 23.5259 341.646 25.2059 342.473 26.3659C343.299 27.5126 344.579 28.0859 346.313 28.0859ZM375.727 31.5859C375.087 31.5859 374.667 31.2859 374.467 30.6859L374.067 28.7059C373.64 29.1859 373.194 29.6193 372.727 30.0059C372.26 30.3926 371.754 30.7259 371.207 31.0059C370.674 31.2859 370.094 31.4993 369.467 31.6459C368.854 31.8059 368.187 31.8859 367.467 31.8859C366.347 31.8859 365.32 31.6526 364.387 31.1859C363.454 30.7193 362.647 30.0459 361.967 29.1659C361.3 28.2726 360.78 27.1726 360.407 25.8659C360.047 24.5593 359.867 23.0659 359.867 21.3859C359.867 19.8659 360.074 18.4526 360.487 17.1459C360.9 15.8393 361.494 14.7059 362.267 13.7459C363.04 12.7859 363.967 12.0393 365.047 11.5059C366.127 10.9593 367.34 10.6859 368.687 10.6859C369.834 10.6859 370.814 10.8726 371.627 11.2459C372.44 11.6059 373.167 12.0926 373.807 12.7059V1.86594H378.747V31.5859H375.727ZM369.147 27.9659C370.174 27.9659 371.047 27.7526 371.767 27.3259C372.487 26.8993 373.167 26.2926 373.807 25.5059V16.3059C373.247 15.6259 372.634 15.1459 371.967 14.8659C371.314 14.5859 370.607 14.4459 369.847 14.4459C369.1 14.4459 368.42 14.5859 367.807 14.8659C367.207 15.1459 366.694 15.5726 366.267 16.1459C365.854 16.7059 365.534 17.4259 365.307 18.3059C365.08 19.1726 364.967 20.1993 364.967 21.3859C364.967 22.5859 365.06 23.6059 365.247 24.4459C365.447 25.2726 365.727 25.9526 366.087 26.4859C366.447 27.0059 366.887 27.3859 367.407 27.6259C367.927 27.8526 368.507 27.9659 369.147 27.9659ZM393.579 10.7459C394.873 10.7459 396.059 10.9526 397.139 11.3659C398.233 11.7793 399.173 12.3859 399.959 13.1859C400.746 13.9726 401.359 14.9459 401.799 16.1059C402.239 17.2526 402.459 18.5659 402.459 20.0459C402.459 20.4193 402.439 20.7326 402.399 20.9859C402.373 21.2259 402.313 21.4193 402.219 21.5659C402.139 21.6993 402.026 21.7993 401.879 21.8659C401.733 21.9193 401.546 21.9459 401.319 21.9459H388.639C388.786 24.0526 389.353 25.5993 390.339 26.5859C391.326 27.5726 392.633 28.0659 394.259 28.0659C395.059 28.0659 395.746 27.9726 396.319 27.7859C396.906 27.5993 397.413 27.3926 397.839 27.1659C398.279 26.9393 398.659 26.7326 398.979 26.5459C399.313 26.3593 399.633 26.2659 399.939 26.2659C400.139 26.2659 400.313 26.3059 400.459 26.3859C400.606 26.4659 400.733 26.5793 400.839 26.7259L402.279 28.5259C401.733 29.1659 401.119 29.7059 400.439 30.1459C399.759 30.5726 399.046 30.9193 398.299 31.1859C397.566 31.4393 396.813 31.6193 396.039 31.7259C395.279 31.8326 394.539 31.8859 393.819 31.8859C392.393 31.8859 391.066 31.6526 389.839 31.1859C388.613 30.7059 387.546 30.0059 386.639 29.0859C385.733 28.1526 385.019 27.0059 384.499 25.6459C383.979 24.2726 383.719 22.6859 383.719 20.8859C383.719 19.4859 383.946 18.1726 384.399 16.9459C384.853 15.7059 385.499 14.6326 386.339 13.7259C387.193 12.8059 388.226 12.0793 389.439 11.5459C390.666 11.0126 392.046 10.7459 393.579 10.7459ZM393.679 14.2859C392.239 14.2859 391.113 14.6926 390.299 15.5059C389.486 16.3193 388.966 17.4726 388.739 18.9659H398.019C398.019 18.3259 397.933 17.7259 397.759 17.1659C397.586 16.5926 397.319 16.0926 396.959 15.6659C396.599 15.2393 396.146 14.9059 395.599 14.6659C395.053 14.4126 394.413 14.2859 393.679 14.2859ZM416.201 38.2859V11.0659H419.221C419.541 11.0659 419.814 11.1393 420.041 11.2859C420.268 11.4326 420.414 11.6593 420.481 11.9659L420.881 13.8659C421.708 12.9193 422.654 12.1526 423.721 11.5659C424.801 10.9793 426.061 10.6859 427.501 10.6859C428.621 10.6859 429.641 10.9193 430.561 11.3859C431.494 11.8526 432.294 12.5326 432.961 13.4259C433.641 14.3059 434.161 15.3993 434.521 16.7059C434.894 17.9993 435.081 19.4859 435.081 21.1659C435.081 22.6993 434.874 24.1193 434.461 25.4259C434.048 26.7326 433.454 27.8659 432.681 28.8259C431.921 29.7859 430.994 30.5393 429.901 31.0859C428.821 31.6193 427.608 31.8859 426.261 31.8859C425.101 31.8859 424.114 31.7126 423.301 31.3659C422.501 31.0059 421.781 30.5126 421.141 29.8859V38.2859H416.201ZM425.801 14.5859C424.774 14.5859 423.894 14.8059 423.161 15.2459C422.441 15.6726 421.768 16.2793 421.141 17.0659V26.2659C421.701 26.9593 422.308 27.4459 422.961 27.7259C423.628 27.9926 424.341 28.1259 425.101 28.1259C425.848 28.1259 426.521 27.9859 427.121 27.7059C427.734 27.4259 428.248 26.9993 428.661 26.4259C429.088 25.8526 429.414 25.1326 429.641 24.2659C429.868 23.3859 429.981 22.3526 429.981 21.1659C429.981 19.9659 429.881 18.9526 429.681 18.1259C429.494 17.2859 429.221 16.6059 428.861 16.0859C428.501 15.5659 428.061 15.1859 427.541 14.9459C427.034 14.7059 426.454 14.5859 425.801 14.5859ZM445.078 11.0659V31.5859H440.138V11.0659H445.078ZM445.818 5.08594C445.818 5.5126 445.731 5.9126 445.558 6.28594C445.385 6.65927 445.151 6.98594 444.858 7.26594C444.578 7.54594 444.245 7.7726 443.858 7.94594C443.471 8.10594 443.058 8.18594 442.618 8.18594C442.191 8.18594 441.785 8.10594 441.398 7.94594C441.025 7.7726 440.698 7.54594 440.418 7.26594C440.138 6.98594 439.911 6.65927 439.738 6.28594C439.578 5.9126 439.498 5.5126 439.498 5.08594C439.498 4.64594 439.578 4.2326 439.738 3.84594C439.911 3.45927 440.138 3.12594 440.418 2.84594C440.698 2.56594 441.025 2.34594 441.398 2.18594C441.785 2.0126 442.191 1.92594 442.618 1.92594C443.058 1.92594 443.471 2.0126 443.858 2.18594C444.245 2.34594 444.578 2.56594 444.858 2.84594C445.151 3.12594 445.385 3.45927 445.558 3.84594C445.731 4.2326 445.818 4.64594 445.818 5.08594ZM451.678 31.5859V11.0659H454.698C455.338 11.0659 455.758 11.3659 455.958 11.9659L456.298 13.5859C456.711 13.1593 457.144 12.7726 457.598 12.4259C458.064 12.0793 458.551 11.7793 459.058 11.5259C459.578 11.2726 460.131 11.0793 460.718 10.9459C461.304 10.8126 461.944 10.7459 462.638 10.7459C463.758 10.7459 464.751 10.9393 465.618 11.3259C466.484 11.6993 467.204 12.2326 467.778 12.9259C468.364 13.6059 468.804 14.4259 469.098 15.3859C469.404 16.3326 469.558 17.3793 469.558 18.5259V31.5859H464.618V18.5259C464.618 17.2726 464.324 16.3059 463.738 15.6259C463.164 14.9326 462.298 14.5859 461.138 14.5859C460.284 14.5859 459.484 14.7793 458.738 15.1659C457.991 15.5526 457.284 16.0793 456.618 16.7459V31.5859H451.678ZM487.906 19.0459C487.906 21.7926 488.24 24.4926 488.906 27.1459C489.573 29.7993 490.526 32.2926 491.766 34.6259C491.86 34.7993 491.92 34.9593 491.946 35.1059C491.986 35.2526 492.006 35.3859 492.006 35.5059C492.006 35.7726 491.94 35.9859 491.806 36.1459C491.673 36.3193 491.513 36.4593 491.326 36.5659L489.126 37.9059C488.14 36.3859 487.3 34.8593 486.606 33.3259C485.913 31.7926 485.346 30.2459 484.906 28.6859C484.466 27.1259 484.14 25.5459 483.926 23.9459C483.726 22.3459 483.626 20.7126 483.626 19.0459C483.626 17.3793 483.726 15.7459 483.926 14.1459C484.14 12.5326 484.466 10.9459 484.906 9.38594C485.346 7.82594 485.913 6.28594 486.606 4.76594C487.3 3.2326 488.14 1.70594 489.126 0.185936L491.326 1.50594C491.513 1.6126 491.673 1.7526 491.806 1.92594C491.94 2.08594 492.006 2.2926 492.006 2.54594C492.006 2.79927 491.92 3.09927 491.746 3.44594C490.52 5.77927 489.573 8.27927 488.906 10.9459C488.24 13.5993 487.906 16.2993 487.906 19.0459ZM499.878 27.8859H505.738V11.0259C505.738 10.3726 505.758 9.68594 505.798 8.96594L501.638 12.4459C501.465 12.5926 501.285 12.6926 501.098 12.7459C500.925 12.7993 500.752 12.8259 500.578 12.8259C500.312 12.8259 500.065 12.7726 499.838 12.6659C499.625 12.5459 499.465 12.4126 499.358 12.2659L497.798 10.1259L506.618 2.62594H510.678V27.8859H515.878V31.5859H499.878V27.8859ZM523.062 31.6459C522.942 31.9526 522.788 32.2193 522.602 32.4459C522.415 32.6726 522.202 32.8593 521.962 33.0059C521.722 33.1659 521.468 33.2859 521.202 33.3659C520.935 33.4459 520.675 33.4859 520.422 33.4859H518.342L530.022 3.60594C530.248 3.04594 530.575 2.61927 531.002 2.32594C531.428 2.01927 531.942 1.86594 532.542 1.86594H534.642L523.062 31.6459ZM547.21 2.34594C548.544 2.34594 549.764 2.54594 550.87 2.94594C551.977 3.3326 552.924 3.88594 553.71 4.60594C554.497 5.32594 555.11 6.1926 555.55 7.20594C555.99 8.21927 556.21 9.34594 556.21 10.5859C556.21 11.6526 556.05 12.6393 555.73 13.5459C555.424 14.4526 555.004 15.3193 554.47 16.1459C553.95 16.9726 553.337 17.7726 552.63 18.5459C551.924 19.3193 551.184 20.1059 550.41 20.9059L543.89 27.5659C544.53 27.3793 545.157 27.2393 545.77 27.1459C546.384 27.0393 546.97 26.9859 547.53 26.9859H554.95C555.484 26.9859 555.904 27.1393 556.21 27.4459C556.53 27.7393 556.69 28.1326 556.69 28.6259V31.5859H536.85V29.9459C536.85 29.6126 536.917 29.2659 537.05 28.9059C537.197 28.5459 537.424 28.2126 537.73 27.9059L546.51 19.1059C547.244 18.3593 547.897 17.6459 548.47 16.9659C549.057 16.2859 549.544 15.6126 549.93 14.9459C550.33 14.2793 550.63 13.6059 550.83 12.9259C551.044 12.2326 551.15 11.5059 551.15 10.7459C551.15 10.0526 551.05 9.44594 550.85 8.92594C550.65 8.3926 550.364 7.94594 549.99 7.58594C549.617 7.22594 549.17 6.95927 548.65 6.78594C548.144 6.59927 547.57 6.50594 546.93 6.50594C545.744 6.50594 544.764 6.80594 543.99 7.40594C543.23 8.00594 542.697 8.8126 542.39 9.82594C542.244 10.3326 542.024 10.6993 541.73 10.9259C541.437 11.1393 541.064 11.2459 540.61 11.2459C540.41 11.2459 540.19 11.2259 539.95 11.1859L537.35 10.7259C537.55 9.33927 537.937 8.12594 538.51 7.08594C539.084 6.0326 539.797 5.15927 540.65 4.46594C541.517 3.75927 542.504 3.2326 543.61 2.88594C544.73 2.52594 545.93 2.34594 547.21 2.34594ZM564.973 19.0459C564.973 16.2993 564.64 13.5993 563.973 10.9459C563.307 8.27927 562.36 5.77927 561.133 3.44594C560.96 3.09927 560.873 2.79927 560.873 2.54594C560.873 2.2926 560.94 2.08594 561.073 1.92594C561.207 1.7526 561.367 1.6126 561.553 1.50594L563.753 0.185936C564.74 1.70594 565.58 3.2326 566.273 4.76594C566.967 6.28594 567.533 7.82594 567.973 9.38594C568.413 10.9459 568.733 12.5326 568.933 14.1459C569.147 15.7459 569.253 17.3793 569.253 19.0459C569.253 20.7126 569.147 22.3459 568.933 23.9459C568.733 25.5459 568.413 27.1259 567.973 28.6859C567.533 30.2459 566.967 31.7926 566.273 33.3259C565.58 34.8593 564.74 36.3859 563.753 37.9059L561.553 36.5659C561.367 36.4593 561.207 36.3193 561.073 36.1459C560.94 35.9859 560.873 35.7726 560.873 35.5059C560.873 35.3859 560.887 35.2526 560.913 35.1059C560.953 34.9593 561.02 34.7993 561.113 34.6259C562.353 32.2926 563.307 29.7993 563.973 27.1459C564.64 24.4926 564.973 21.7926 564.973 19.0459Z" fill="#1F2337"/>
</svg>
