<svg width="151" height="29" viewBox="0 0 151 29" fill="none" xmlns="http://www.w3.org/2000/svg">
<rect width="149.771" height="28" rx="14" transform="matrix(-1 8.74228e-08 8.74228e-08 1 150.5 0.279297)" fill="#43496A"/>
<path d="M26.3499 16.9604C26.4059 16.9604 26.4619 16.972 26.5179 16.9954C26.5739 17.014 26.6276 17.049 26.6789 17.1004L27.6169 18.0874C27.2063 18.624 26.6906 19.03 26.0699 19.3054C25.4539 19.576 24.7236 19.7114 23.8789 19.7114C23.1043 19.7114 22.4089 19.5807 21.7929 19.3194C21.1816 19.0534 20.6613 18.6894 20.2319 18.2274C19.8073 17.7607 19.4806 17.21 19.2519 16.5754C19.0233 15.936 18.9089 15.243 18.9089 14.4964C18.9089 13.7357 19.0396 13.038 19.3009 12.4034C19.5623 11.764 19.9263 11.2134 20.3929 10.7514C20.8643 10.2894 21.4266 9.93003 22.0799 9.67336C22.7333 9.4167 23.4543 9.28836 24.2429 9.28836C24.6256 9.28836 24.9849 9.32336 25.3209 9.39336C25.6616 9.4587 25.9789 9.55203 26.2729 9.67336C26.5669 9.79003 26.8376 9.93236 27.0849 10.1004C27.3323 10.2637 27.5516 10.4457 27.7429 10.6464L26.9449 11.7174C26.8936 11.7827 26.8329 11.8434 26.7629 11.8994C26.6929 11.9507 26.5949 11.9764 26.4689 11.9764C26.3849 11.9764 26.3056 11.9577 26.2309 11.9204C26.1563 11.883 26.0769 11.8387 25.9929 11.7874C25.9089 11.7314 25.8156 11.673 25.7129 11.6124C25.6149 11.547 25.4959 11.4887 25.3559 11.4374C25.2206 11.3814 25.0596 11.3347 24.8729 11.2974C24.6909 11.26 24.4763 11.2414 24.2289 11.2414C23.7996 11.2414 23.4076 11.3184 23.0529 11.4724C22.6983 11.6217 22.3926 11.8387 22.1359 12.1234C21.8839 12.4034 21.6856 12.744 21.5409 13.1454C21.4009 13.5467 21.3309 13.997 21.3309 14.4964C21.3309 15.019 21.4009 15.4834 21.5409 15.8894C21.6856 16.2954 21.8793 16.6384 22.1219 16.9184C22.3693 17.1937 22.6563 17.4037 22.9829 17.5484C23.3096 17.693 23.6596 17.7654 24.0329 17.7654C24.2476 17.7654 24.4436 17.756 24.6209 17.7374C24.7983 17.714 24.9616 17.6767 25.1109 17.6254C25.2649 17.574 25.4096 17.5087 25.5449 17.4294C25.6849 17.3454 25.8249 17.2427 25.9649 17.1214C26.0209 17.0747 26.0816 17.0374 26.1469 17.0094C26.2123 16.9767 26.2799 16.9604 26.3499 16.9604ZM39.1841 14.4964C39.1841 15.2337 39.0558 15.9197 38.7991 16.5544C38.5471 17.189 38.1901 17.742 37.7281 18.2134C37.2661 18.68 36.7084 19.0464 36.0551 19.3124C35.4064 19.5784 34.6854 19.7114 33.8921 19.7114C33.0988 19.7114 32.3754 19.5784 31.7221 19.3124C31.0688 19.0464 30.5088 18.68 30.0421 18.2134C29.5801 17.742 29.2208 17.189 28.9641 16.5544C28.7121 15.9197 28.5861 15.2337 28.5861 14.4964C28.5861 13.759 28.7121 13.073 28.9641 12.4384C29.2208 11.8037 29.5801 11.253 30.0421 10.7864C30.5088 10.3197 31.0688 9.95336 31.7221 9.68737C32.3754 9.42136 33.0988 9.28836 33.8921 9.28836C34.6854 9.28836 35.4064 9.4237 36.0551 9.69436C36.7084 9.96036 37.2661 10.3267 37.7281 10.7934C38.1901 11.26 38.5471 11.8107 38.7991 12.4454C39.0558 13.08 39.1841 13.7637 39.1841 14.4964ZM36.7621 14.4964C36.7621 13.9924 36.6968 13.5397 36.5661 13.1384C36.4354 12.7324 36.2464 12.3894 35.9991 12.1094C35.7564 11.8294 35.4578 11.6147 35.1031 11.4654C34.7484 11.316 34.3448 11.2414 33.8921 11.2414C33.4348 11.2414 33.0264 11.316 32.6671 11.4654C32.3124 11.6147 32.0114 11.8294 31.7641 12.1094C31.5214 12.3894 31.3348 12.7324 31.2041 13.1384C31.0734 13.5397 31.0081 13.9924 31.0081 14.4964C31.0081 15.005 31.0734 15.4624 31.2041 15.8684C31.3348 16.2697 31.5214 16.6104 31.7641 16.8904C32.0114 17.1704 32.3124 17.385 32.6671 17.5344C33.0264 17.679 33.4348 17.7514 33.8921 17.7514C34.3448 17.7514 34.7484 17.679 35.1031 17.5344C35.4578 17.385 35.7564 17.1704 35.9991 16.8904C36.2464 16.6104 36.4354 16.2697 36.5661 15.8684C36.6968 15.4624 36.7621 15.005 36.7621 14.4964ZM45.9504 14.9374C46.0437 15.1147 46.1324 15.299 46.2164 15.4904C46.305 15.6817 46.389 15.8777 46.4684 16.0784C46.5477 15.873 46.6317 15.6747 46.7204 15.4834C46.809 15.2874 46.9 15.0984 46.9934 14.9164L49.6114 9.76436C49.658 9.6757 49.7047 9.60803 49.7514 9.56137C49.8027 9.51003 49.8587 9.4727 49.9194 9.44936C49.98 9.42603 50.0477 9.41203 50.1224 9.40736C50.2017 9.4027 50.2927 9.40037 50.3954 9.40037H52.2014V19.5994H50.1154V13.7334C50.1154 13.4487 50.1294 13.1407 50.1574 12.8094L47.4554 18.0524C47.3714 18.2157 47.257 18.3394 47.1124 18.4234C46.9724 18.5074 46.8114 18.5494 46.6294 18.5494H46.3074C46.1254 18.5494 45.962 18.5074 45.8174 18.4234C45.6774 18.3394 45.5654 18.2157 45.4814 18.0524L42.7654 12.8024C42.784 12.9657 42.798 13.129 42.8074 13.2924C42.8167 13.451 42.8214 13.598 42.8214 13.7334V19.5994H40.7354V9.40037H42.5414C42.644 9.40037 42.7327 9.4027 42.8074 9.40736C42.8867 9.41203 42.9567 9.42603 43.0174 9.44936C43.078 9.4727 43.1317 9.51003 43.1784 9.56137C43.2297 9.60803 43.2787 9.6757 43.3254 9.76436L45.9504 14.9374ZM56.8977 19.5994H54.5177V9.40037H56.8977V19.5994ZM60.4581 9.40037C60.5608 9.40037 60.6471 9.40503 60.7171 9.41436C60.7871 9.4237 60.8501 9.44236 60.9061 9.47037C60.9621 9.4937 61.0158 9.5287 61.0671 9.57536C61.1184 9.62203 61.1768 9.68503 61.2421 9.76436L66.0861 15.8894C66.0674 15.6934 66.0534 15.5044 66.0441 15.3224C66.0348 15.1357 66.0301 14.9607 66.0301 14.7974V9.40037H68.1161V19.5994H66.8841C66.7021 19.5994 66.5481 19.5714 66.4221 19.5154C66.2961 19.4594 66.1748 19.3567 66.0581 19.2074L61.2491 13.1314C61.2631 13.3087 61.2748 13.4837 61.2841 13.6564C61.2934 13.8244 61.2981 13.983 61.2981 14.1324V19.5994H59.2121V9.40037H60.4581ZM75.0161 17.8914C75.3428 17.8914 75.6321 17.8634 75.8841 17.8074C76.1361 17.7514 76.3741 17.6767 76.5981 17.5834V16.0364H75.5901C75.4408 16.0364 75.3241 15.9967 75.2401 15.9174C75.1561 15.838 75.1141 15.7377 75.1141 15.6164V14.3144H78.7401V18.6194C78.4788 18.8107 78.2058 18.9764 77.9211 19.1164C77.6411 19.2517 77.3401 19.3637 77.0181 19.4524C76.7008 19.541 76.3601 19.6064 75.9961 19.6484C75.6368 19.6904 75.2495 19.7114 74.8341 19.7114C74.0875 19.7114 73.3968 19.5807 72.7621 19.3194C72.1275 19.0534 71.5768 18.6894 71.1101 18.2274C70.6481 17.7607 70.2841 17.21 70.0181 16.5754C69.7568 15.936 69.6261 15.243 69.6261 14.4964C69.6261 13.7357 69.7521 13.038 70.0041 12.4034C70.2561 11.764 70.6155 11.2134 71.0821 10.7514C71.5535 10.2894 72.1205 9.93003 72.7831 9.67336C73.4505 9.4167 74.1948 9.28836 75.0161 9.28836C75.4408 9.28836 75.8398 9.32336 76.2131 9.39336C76.5865 9.46336 76.9295 9.55903 77.2421 9.68036C77.5595 9.8017 77.8488 9.94637 78.1101 10.1144C78.3715 10.2824 78.6048 10.4644 78.8101 10.6604L78.1241 11.7034C78.0588 11.8014 77.9795 11.8784 77.8861 11.9344C77.7975 11.9904 77.6995 12.0184 77.5921 12.0184C77.4521 12.0184 77.3075 11.9717 77.1581 11.8784C76.9715 11.7664 76.7941 11.6707 76.6261 11.5914C76.4628 11.5074 76.2948 11.4397 76.1221 11.3884C75.9495 11.337 75.7675 11.2997 75.5761 11.2764C75.3848 11.253 75.1701 11.2414 74.9321 11.2414C74.4888 11.2414 74.0898 11.3207 73.7351 11.4794C73.3805 11.6334 73.0771 11.8527 72.8251 12.1374C72.5778 12.422 72.3865 12.765 72.2511 13.1664C72.1158 13.563 72.0481 14.0064 72.0481 14.4964C72.0481 15.0377 72.1228 15.5184 72.2721 15.9384C72.4215 16.3584 72.6268 16.713 72.8881 17.0024C73.1541 17.2917 73.4668 17.5134 73.8261 17.6674C74.1901 17.8167 74.5868 17.8914 75.0161 17.8914ZM89.412 11.4724C89.342 11.5844 89.2673 11.6684 89.188 11.7244C89.1133 11.7804 89.0153 11.8084 88.894 11.8084C88.7866 11.8084 88.67 11.7757 88.544 11.7104C88.4226 11.6404 88.2826 11.5634 88.124 11.4794C87.97 11.3954 87.7926 11.3207 87.592 11.2554C87.3913 11.1854 87.1626 11.1504 86.906 11.1504C86.4626 11.1504 86.1313 11.246 85.912 11.4374C85.6973 11.624 85.59 11.8784 85.59 12.2004C85.59 12.4057 85.6553 12.576 85.786 12.7114C85.9166 12.8467 86.087 12.9634 86.297 13.0614C86.5116 13.1594 86.7543 13.2504 87.025 13.3344C87.3003 13.4137 87.5803 13.5047 87.865 13.6074C88.1496 13.7054 88.4273 13.822 88.698 13.9574C88.9733 14.0927 89.216 14.2654 89.426 14.4754C89.6406 14.6854 89.8133 14.942 89.944 15.2454C90.0746 15.544 90.14 15.9057 90.14 16.3304C90.14 16.8017 90.0583 17.2427 89.895 17.6534C89.7316 18.064 89.4936 18.4234 89.181 18.7314C88.873 19.0347 88.4903 19.275 88.033 19.4524C87.5803 19.625 87.0646 19.7114 86.486 19.7114C86.1686 19.7114 85.8443 19.6787 85.513 19.6134C85.1863 19.548 84.869 19.457 84.561 19.3404C84.253 19.219 83.9636 19.0767 83.693 18.9134C83.4223 18.75 83.1866 18.568 82.986 18.3674L83.686 17.2614C83.7373 17.1774 83.8096 17.1097 83.903 17.0584C83.9963 17.007 84.0966 16.9814 84.204 16.9814C84.344 16.9814 84.484 17.0257 84.624 17.1144C84.7686 17.203 84.9296 17.301 85.107 17.4084C85.289 17.5157 85.4966 17.6137 85.73 17.7024C85.9633 17.791 86.2386 17.8354 86.556 17.8354C86.9853 17.8354 87.319 17.742 87.557 17.5554C87.795 17.364 87.914 17.063 87.914 16.6524C87.914 16.4144 87.8486 16.2207 87.718 16.0714C87.5873 15.922 87.4146 15.7984 87.2 15.7004C86.99 15.6024 86.7496 15.516 86.479 15.4414C86.2083 15.3667 85.9306 15.285 85.646 15.1964C85.3613 15.103 85.0836 14.991 84.813 14.8604C84.5423 14.725 84.2996 14.55 84.085 14.3354C83.875 14.116 83.7046 13.8454 83.574 13.5234C83.4433 13.1967 83.378 12.7954 83.378 12.3194C83.378 11.9367 83.455 11.5634 83.609 11.1994C83.763 10.8354 83.9893 10.511 84.288 10.2264C84.5866 9.9417 84.953 9.71536 85.387 9.54736C85.821 9.3747 86.318 9.28836 86.878 9.28836C87.1906 9.28836 87.494 9.31403 87.788 9.36537C88.0866 9.41203 88.369 9.48436 88.635 9.58236C88.901 9.6757 89.1483 9.79003 89.377 9.92536C89.6103 10.056 89.818 10.2054 90 10.3734L89.412 11.4724ZM101.802 14.4964C101.802 15.2337 101.674 15.9197 101.417 16.5544C101.165 17.189 100.808 17.742 100.346 18.2134C99.8838 18.68 99.3262 19.0464 98.6728 19.3124C98.0242 19.5784 97.3032 19.7114 96.5098 19.7114C95.7165 19.7114 94.9932 19.5784 94.3398 19.3124C93.6865 19.0464 93.1265 18.68 92.6598 18.2134C92.1978 17.742 91.8385 17.189 91.5818 16.5544C91.3298 15.9197 91.2038 15.2337 91.2038 14.4964C91.2038 13.759 91.3298 13.073 91.5818 12.4384C91.8385 11.8037 92.1978 11.253 92.6598 10.7864C93.1265 10.3197 93.6865 9.95336 94.3398 9.68737C94.9932 9.42136 95.7165 9.28836 96.5098 9.28836C97.3032 9.28836 98.0242 9.4237 98.6728 9.69436C99.3262 9.96036 99.8838 10.3267 100.346 10.7934C100.808 11.26 101.165 11.8107 101.417 12.4454C101.674 13.08 101.802 13.7637 101.802 14.4964ZM99.3798 14.4964C99.3798 13.9924 99.3145 13.5397 99.1838 13.1384C99.0532 12.7324 98.8642 12.3894 98.6168 12.1094C98.3742 11.8294 98.0755 11.6147 97.7208 11.4654C97.3662 11.316 96.9625 11.2414 96.5098 11.2414C96.0525 11.2414 95.6442 11.316 95.2848 11.4654C94.9302 11.6147 94.6292 11.8294 94.3818 12.1094C94.1392 12.3894 93.9525 12.7324 93.8218 13.1384C93.6912 13.5397 93.6258 13.9924 93.6258 14.4964C93.6258 15.005 93.6912 15.4624 93.8218 15.8684C93.9525 16.2697 94.1392 16.6104 94.3818 16.8904C94.6292 17.1704 94.9302 17.385 95.2848 17.5344C95.6442 17.679 96.0525 17.7514 96.5098 17.7514C96.9625 17.7514 97.3662 17.679 97.7208 17.5344C98.0755 17.385 98.3742 17.1704 98.6168 16.8904C98.8642 16.6104 99.0532 16.2697 99.1838 15.8684C99.3145 15.4624 99.3798 15.005 99.3798 14.4964ZM113.419 14.4964C113.419 15.2337 113.291 15.9197 113.034 16.5544C112.782 17.189 112.425 17.742 111.963 18.2134C111.501 18.68 110.943 19.0464 110.29 19.3124C109.641 19.5784 108.92 19.7114 108.127 19.7114C107.334 19.7114 106.61 19.5784 105.957 19.3124C105.304 19.0464 104.744 18.68 104.277 18.2134C103.815 17.742 103.456 17.189 103.199 16.5544C102.947 15.9197 102.821 15.2337 102.821 14.4964C102.821 13.759 102.947 13.073 103.199 12.4384C103.456 11.8037 103.815 11.253 104.277 10.7864C104.744 10.3197 105.304 9.95336 105.957 9.68737C106.61 9.42136 107.334 9.28836 108.127 9.28836C108.92 9.28836 109.641 9.4237 110.29 9.69436C110.943 9.96036 111.501 10.3267 111.963 10.7934C112.425 11.26 112.782 11.8107 113.034 12.4454C113.291 13.08 113.419 13.7637 113.419 14.4964ZM110.997 14.4964C110.997 13.9924 110.932 13.5397 110.801 13.1384C110.67 12.7324 110.481 12.3894 110.234 12.1094C109.991 11.8294 109.693 11.6147 109.338 11.4654C108.983 11.316 108.58 11.2414 108.127 11.2414C107.67 11.2414 107.261 11.316 106.902 11.4654C106.547 11.6147 106.246 11.8294 105.999 12.1094C105.756 12.3894 105.57 12.7324 105.439 13.1384C105.308 13.5397 105.243 13.9924 105.243 14.4964C105.243 15.005 105.308 15.4624 105.439 15.8684C105.57 16.2697 105.756 16.6104 105.999 16.8904C106.246 17.1704 106.547 17.385 106.902 17.5344C107.261 17.679 107.67 17.7514 108.127 17.7514C108.58 17.7514 108.983 17.679 109.338 17.5344C109.693 17.385 109.991 17.1704 110.234 16.8904C110.481 16.6104 110.67 16.2697 110.801 15.8684C110.932 15.4624 110.997 15.005 110.997 14.4964ZM116.216 9.40037C116.319 9.40037 116.405 9.40503 116.475 9.41436C116.545 9.4237 116.608 9.44236 116.664 9.47037C116.72 9.4937 116.774 9.5287 116.825 9.57536C116.877 9.62203 116.935 9.68503 117 9.76436L121.844 15.8894C121.826 15.6934 121.812 15.5044 121.802 15.3224C121.793 15.1357 121.788 14.9607 121.788 14.7974V9.40037H123.874V19.5994H122.642C122.46 19.5994 122.306 19.5714 122.18 19.5154C122.054 19.4594 121.933 19.3567 121.816 19.2074L117.007 13.1314C117.021 13.3087 117.033 13.4837 117.042 13.6564C117.052 13.8244 117.056 13.983 117.056 14.1324V19.5994H114.97V9.40037H116.216Z" fill="white"/>
</svg>
