<svg width="25" height="21" viewBox="0 0 25 21" fill="none" xmlns="http://www.w3.org/2000/svg">
<path d="M1.55557 11.7022C1.39616 11.5428 1.17996 11.4532 0.954529 11.4532C0.729095 11.4532 0.512894 11.5428 0.353488 11.7022C0.194082 11.8616 0.104529 12.0778 0.104529 12.3032V17.5532C0.104529 18.3754 0.431135 19.1639 1.0125 19.7453C1.59386 20.3266 2.38236 20.6532 3.20453 20.6532H21.2045C22.0267 20.6532 22.8152 20.3266 23.3966 19.7453C23.9779 19.1639 24.3045 18.3754 24.3045 17.5532V12.3032C24.3045 12.0778 24.215 11.8616 24.0556 11.7022C23.8962 11.5428 23.68 11.4532 23.4545 11.4532C23.2291 11.4532 23.0129 11.5428 22.8535 11.7022C22.6941 11.8616 22.6045 12.0778 22.6045 12.3032V17.5532C22.6045 17.9245 22.457 18.2806 22.1945 18.5432C21.9319 18.8057 21.5758 18.9532 21.2045 18.9532H3.20453C2.83323 18.9532 2.47713 18.8057 2.21458 18.5432C1.95203 18.2806 1.80453 17.9245 1.80453 17.5532V12.3032C1.80453 12.0778 1.71498 11.8616 1.55557 11.7022Z" fill="#ADADC8" stroke="#ADADC8" stroke-width="0.2"/>
<path d="M7.63381 10.7326L7.63379 10.7327L12.8063 15.905L16.7746 11.9352C16.8555 11.8569 16.92 11.7633 16.9645 11.6599C17.009 11.5562 17.0325 11.4446 17.0334 11.3318C17.0344 11.2189 17.0129 11.107 16.9702 11.0025C16.9274 10.8981 16.8643 10.8032 16.7845 10.7234C16.7047 10.6436 16.6098 10.5804 16.5053 10.5377C16.4009 10.495 16.289 10.4735 16.1761 10.4744C16.0632 10.4754 15.9517 10.4989 15.848 10.5434C15.7446 10.5878 15.651 10.6524 15.5727 10.7332L12.2045 14.1014L8.83572 10.7327L8.83571 10.7326C8.67632 10.5733 8.46015 10.4838 8.23476 10.4838C8.00937 10.4838 7.79321 10.5733 7.63381 10.7326ZM12.5303 16.0898C12.6335 16.047 12.7273 15.9842 12.8062 15.9051L7.70451 11.8639L7.63379 11.9346L7.63379 11.9346L11.6027 15.905C11.6817 15.9841 11.7755 16.0469 11.8787 16.0898C11.982 16.1327 12.0927 16.1547 12.2045 16.1547C12.3163 16.1547 12.427 16.1327 12.5303 16.0898Z" fill="#ADADC8" stroke="#ADADC8" stroke-width="0.2"/>
<path d="M12.8056 1.20218C12.6462 1.04278 12.43 0.953223 12.2045 0.953223C11.9791 0.953223 11.7629 1.04278 11.6035 1.20218C11.4441 1.36159 11.3545 1.57779 11.3545 1.80322V13.8032C11.3545 14.0287 11.4441 14.2449 11.6035 14.4043C11.7629 14.5637 11.9791 14.6532 12.2045 14.6532C12.43 14.6532 12.6462 14.5637 12.8056 14.4043C12.965 14.2449 13.0545 14.0287 13.0545 13.8032V1.80322C13.0545 1.57779 12.965 1.36159 12.8056 1.20218Z" fill="#ADADC8" stroke="#ADADC8" stroke-width="0.2"/>
</svg>
