<svg width="33" height="32" viewBox="0 0 33 32" fill="none" xmlns="http://www.w3.org/2000/svg">
<path d="M5.90304 21.9019L5.9005 22.0611L5.99058 22.1925C7.08813 23.7936 8.57717 25.1053 10.3237 26.0123C12.0701 26.9193 14.0204 27.3938 16.001 27.3945C17.9816 27.3951 19.9323 26.9219 21.6794 26.0161C23.4265 25.1103 24.9165 23.7995 26.0152 22.1993L26.1053 22.0679L26.1029 21.9086C26.0884 20.9526 25.581 20.1483 24.8667 19.5019C24.1537 18.8566 23.1951 18.3301 22.1677 17.9146C20.1142 17.0842 17.6629 16.6488 16.0049 16.6482C14.339 16.6476 11.8873 17.0814 9.83496 17.9106C8.80812 18.3254 7.85062 18.8513 7.13836 19.4963C6.42477 20.1424 5.91828 20.9463 5.90304 21.9019ZM0.50519 15.7507C0.50815 7.50299 7.4387 0.782766 16.0106 0.785642C24.5824 0.788518 31.5081 7.51339 31.5052 15.7611C31.5022 24.0088 24.5717 30.729 15.9998 30.7261C7.42796 30.7233 0.50223 23.9984 0.50519 15.7507ZM21.3074 9.56957C21.3084 6.70963 18.9254 4.42769 16.0093 4.42671C13.0931 4.42574 10.7084 6.70607 10.7074 9.56601C10.7064 12.4259 13.0894 14.7079 16.0056 14.7089C18.9217 14.7098 21.3064 12.4295 21.3074 9.56957Z" fill="#00CC9E" stroke="#00CC9E"/>
</svg>
