<svg width="458" height="450" viewBox="0 0 458 450" fill="none" xmlns="http://www.w3.org/2000/svg">
<path fill-rule="evenodd" clip-rule="evenodd" d="M168.153 70.9448C218.842 49.0564 279.012 38.6493 325.568 68.3307C372.678 98.3649 387.168 157.648 391.517 213.348C395.775 267.879 390.092 327.654 348.599 363.292C308.866 397.42 251.759 385.655 199.962 377.879C149.707 370.334 93.1306 364.373 66.7006 320.97C40.1438 277.358 57.6653 223.04 76.8641 175.726C95.1888 130.565 123.41 90.2658 168.153 70.9448Z" fill="url(#paint0_linear)"/>
<path d="M294.697 103.095C294.976 102.335 296.051 102.335 296.33 103.095L298.412 108.763C298.5 109.002 298.689 109.191 298.929 109.279L304.597 111.362C305.356 111.641 305.356 112.715 304.597 112.994L298.929 115.077C298.689 115.165 298.5 115.353 298.412 115.593L296.33 121.261C296.051 122.021 294.976 122.021 294.697 121.261L292.615 115.593C292.527 115.353 292.338 115.165 292.098 115.077L286.43 112.994C285.671 112.715 285.671 111.641 286.43 111.362L292.098 109.279C292.338 109.191 292.527 109.002 292.615 108.763L294.697 103.095Z" fill="#FFD45E"/>
<path d="M260.254 13.7825C260.566 12.9353 261.764 12.9353 262.075 13.7825L264.398 20.1046C264.496 20.3718 264.707 20.5823 264.974 20.6805L271.296 23.0034C272.143 23.3147 272.143 24.513 271.296 24.8242L264.974 27.1472C264.707 27.2453 264.496 27.4559 264.398 27.7231L262.075 34.0451C261.764 34.8924 260.566 34.8924 260.254 34.0451L257.931 27.7231C257.833 27.4559 257.623 27.2453 257.356 27.1472L251.033 24.8242C250.186 24.513 250.186 23.3147 251.033 23.0034L257.356 20.6805C257.623 20.5823 257.833 20.3718 257.931 20.1046L260.254 13.7825Z" fill="#FFD45E"/>
<path d="M213.825 85.7029C214.104 84.9434 215.178 84.9434 215.457 85.7029L217.54 91.371C217.628 91.6105 217.817 91.7993 218.056 91.8873L223.724 93.9699C224.484 94.249 224.484 95.3233 223.724 95.6024L218.056 97.685C217.817 97.773 217.628 97.9618 217.54 98.2014L215.457 103.869C215.178 104.629 214.104 104.629 213.825 103.869L211.742 98.2014C211.654 97.9618 211.465 97.773 211.226 97.685L205.558 95.6024C204.798 95.3233 204.798 94.249 205.558 93.9699L211.226 91.8873C211.465 91.7993 211.654 91.6105 211.742 91.371L213.825 85.7029Z" fill="#FFD45E"/>
<path d="M299.045 53.5272C299.324 52.7676 300.399 52.7676 300.678 53.5272L302.76 59.1952C302.848 59.4348 303.037 59.6235 303.277 59.7116L308.945 61.7942C309.704 62.0733 309.704 63.1476 308.945 63.4266L303.277 65.5093C303.037 65.5973 302.848 65.7861 302.76 66.0256L300.678 71.6936C300.399 72.4532 299.324 72.4532 299.045 71.6936L296.963 66.0256C296.875 65.7861 296.686 65.5973 296.446 65.5093L290.778 63.4266C290.019 63.1476 290.019 62.0733 290.778 61.7942L296.446 59.7116C296.686 59.6235 296.875 59.4348 296.963 59.1952L299.045 53.5272Z" fill="#FFD45E"/>
<path d="M267.741 125.686C268.021 124.929 269.092 124.929 269.372 125.686L269.827 126.916C269.915 127.154 270.102 127.341 270.34 127.43L271.57 127.884C272.327 128.165 272.327 129.235 271.57 129.516L270.34 129.97C270.102 130.059 269.915 130.246 269.827 130.484L269.372 131.714C269.092 132.471 268.021 132.471 267.741 131.714L267.286 130.484C267.198 130.246 267.01 130.059 266.772 129.97L265.543 129.516C264.785 129.235 264.785 128.165 265.543 127.884L266.772 127.43C267.01 127.341 267.198 127.154 267.286 126.916L267.741 125.686Z" fill="#FFD45E"/>
<path d="M214.26 125.686C214.54 124.929 215.611 124.929 215.891 125.686L217.051 128.82C217.139 129.058 217.327 129.246 217.565 129.334L220.698 130.493C221.455 130.773 221.455 131.844 220.698 132.124L217.565 133.284C217.327 133.372 217.139 133.56 217.051 133.798L215.891 136.931C215.611 137.688 214.54 137.688 214.26 136.931L213.101 133.798C213.013 133.56 212.825 133.372 212.587 133.284L209.453 132.124C208.696 131.844 208.696 130.773 209.453 130.493L212.587 129.334C212.825 129.246 213.013 129.058 213.101 128.82L214.26 125.686Z" fill="#FFD45E"/>
<path opacity="0.7" d="M272.425 59.1321C272.535 58.8335 272.958 58.8335 273.068 59.1321L273.824 61.1737C273.859 61.2676 273.933 61.3416 274.027 61.3764L276.068 62.1319C276.367 62.2424 276.367 62.6648 276.068 62.7753L274.027 63.5307C273.933 63.5655 273.859 63.6395 273.824 63.7334L273.068 65.775C272.958 66.0737 272.535 66.0737 272.425 65.775L271.67 63.7334C271.635 63.6395 271.561 63.5655 271.467 63.5307L269.425 62.7753C269.127 62.6648 269.127 62.2424 269.425 62.1319L271.467 61.3764C271.561 61.3416 271.635 61.2676 271.67 61.1737L272.425 59.1321Z" fill="white"/>
<path opacity="0.7" d="M288.078 86.9602C288.188 86.6616 288.611 86.6616 288.721 86.9602L289.477 89.0018C289.512 89.0957 289.586 89.1698 289.679 89.2045L291.721 89.96C292.02 90.0705 292.02 90.4929 291.721 90.6034L289.679 91.3589C289.586 91.3936 289.512 91.4676 289.477 91.5615L288.721 93.6032C288.611 93.9018 288.188 93.9018 288.078 93.6032L287.322 91.5615C287.288 91.4676 287.214 91.3936 287.12 91.3589L285.078 90.6034C284.779 90.4929 284.779 90.0705 285.078 89.96L287.12 89.2045C287.214 89.1698 287.288 89.0957 287.322 89.0018L288.078 86.9602Z" fill="white"/>
<path opacity="0.7" d="M232.424 107.83C232.534 107.531 232.957 107.531 233.067 107.83L233.823 109.871C233.858 109.965 233.932 110.039 234.025 110.074L236.067 110.83C236.366 110.94 236.366 111.363 236.067 111.473L234.025 112.228C233.932 112.263 233.858 112.337 233.823 112.431L233.067 114.473C232.957 114.771 232.534 114.771 232.424 114.473L231.668 112.431C231.634 112.337 231.56 112.263 231.466 112.228L229.424 111.473C229.126 111.363 229.126 110.94 229.424 110.83L231.466 110.074C231.56 110.039 231.634 109.965 231.668 109.871L232.424 107.83Z" fill="white"/>
<path opacity="0.7" d="M408.082 5.21706C408.193 4.91841 408.615 4.91841 408.726 5.21706L409.481 7.25869C409.516 7.35258 409.59 7.42661 409.684 7.46135L411.725 8.21682C412.024 8.32733 412.024 8.74973 411.725 8.86024L409.684 9.61571C409.59 9.65045 409.516 9.72448 409.481 9.81837L408.726 11.86C408.615 12.1586 408.193 12.1586 408.082 11.86L407.327 9.81837C407.292 9.72448 407.218 9.65045 407.124 9.61571L405.082 8.86024C404.784 8.74973 404.784 8.32733 405.082 8.21682L407.124 7.46135C407.218 7.42661 407.292 7.35258 407.327 7.25869L408.082 5.21706Z" fill="white" fill-opacity="0.2"/>
<path opacity="0.7" d="M405.473 60.8718C405.584 60.5732 406.006 60.5732 406.117 60.8718L406.872 62.9135C406.907 63.0074 406.981 63.0814 407.075 63.1161L409.117 63.8716C409.415 63.9821 409.415 64.4045 409.117 64.515L407.075 65.2705C406.981 65.3052 406.907 65.3793 406.872 65.4732L406.117 67.5148C406.006 67.8134 405.584 67.8134 405.473 67.5148L404.718 65.4732C404.683 65.3793 404.609 65.3052 404.515 65.2705L402.474 64.515C402.175 64.4045 402.175 63.9821 402.474 63.8716L404.515 63.1161C404.609 63.0814 404.683 63.0074 404.718 62.9135L405.473 60.8718Z" fill="white" fill-opacity="0.2"/>
<path opacity="0.7" d="M441.127 45.2195C441.237 44.9209 441.659 44.9209 441.77 45.2195L442.525 47.2611C442.56 47.355 442.634 47.429 442.728 47.4638L444.77 48.2193C445.068 48.3298 445.068 48.7522 444.77 48.8627L442.728 49.6181C442.634 49.6529 442.56 49.7269 442.525 49.8208L441.77 51.8624C441.659 52.1611 441.237 52.1611 441.127 51.8624L440.371 49.8208C440.336 49.7269 440.262 49.6529 440.168 49.6181L438.127 48.8627C437.828 48.7522 437.828 48.3298 438.127 48.2193L440.168 47.4638C440.262 47.429 440.336 47.355 440.371 47.2611L441.127 45.2195Z" fill="white" fill-opacity="0.2"/>
<path d="M291.593 30.2487C291.68 30.0143 292.011 30.0143 292.098 30.2487L292.691 31.8508C292.718 31.9245 292.776 31.9826 292.85 32.0098L294.452 32.6027C294.686 32.6894 294.686 33.0209 294.452 33.1076L292.85 33.7005C292.776 33.7277 292.718 33.7858 292.691 33.8595L292.098 35.4616C292.011 35.696 291.68 35.696 291.593 35.4616L291 33.8595C290.973 33.7858 290.915 33.7277 290.841 33.7005L289.239 33.1076C289.005 33.0209 289.005 32.6894 289.239 32.6027L290.841 32.0098C290.915 31.9826 290.973 31.9245 291 31.8508L291.593 30.2487Z" fill="white"/>
<path d="M260.287 83.2936C260.374 83.0592 260.706 83.0592 260.792 83.2936L261.385 84.8957C261.412 84.9694 261.47 85.0275 261.544 85.0548L263.146 85.6476C263.381 85.7343 263.381 86.0658 263.146 86.1525L261.544 86.7454C261.47 86.7726 261.412 86.8307 261.385 86.9044L260.792 88.5066C260.706 88.7409 260.374 88.7409 260.287 88.5066L259.694 86.9044C259.667 86.8307 259.609 86.7726 259.535 86.7454L257.933 86.1525C257.699 86.0658 257.699 85.7343 257.933 85.6476L259.535 85.0548C259.609 85.0275 259.667 84.9694 259.694 84.8957L260.287 83.2936Z" fill="white"/>
<path d="M236.783 49.0904C236.944 48.6566 237.557 48.6566 237.718 49.0904L238.815 52.0559C238.866 52.1922 238.973 52.2998 239.11 52.3502L242.075 53.4475C242.509 53.608 242.509 54.2216 242.075 54.3821L239.11 55.4794C238.973 55.5298 238.866 55.6374 238.815 55.7738L237.718 58.7392C237.557 59.173 236.944 59.173 236.783 58.7392L235.686 55.7738C235.636 55.6374 235.528 55.5298 235.392 55.4794L232.426 54.3821C231.992 54.2216 231.992 53.608 232.426 53.4475L235.392 52.3502C235.528 52.2998 235.636 52.1922 235.686 52.0559L236.783 49.0904Z" fill="white"/>
<path d="M454.207 0.682254C454.294 0.447896 454.625 0.447895 454.712 0.682253L455.305 2.2844C455.332 2.35808 455.39 2.41618 455.464 2.44344L457.066 3.03629C457.3 3.12301 457.3 3.45448 457.066 3.5412L455.464 4.13405C455.39 4.16132 455.332 4.21941 455.305 4.29309L454.712 5.89524C454.625 6.1296 454.294 6.1296 454.207 5.89524L453.614 4.29309C453.587 4.21941 453.529 4.16132 453.455 4.13405L451.853 3.5412C451.619 3.45448 451.619 3.12301 451.853 3.03629L453.455 2.44344C453.529 2.41618 453.587 2.35808 453.614 2.2844L454.207 0.682254Z" fill="white" fill-opacity="0.2"/>
<g filter="url(#filter0_d)">
<path d="M172.61 222.904C181.027 234.871 187.623 241.7 194.887 246.096C202.151 250.491 212.318 249.631 225.997 250.543" stroke="url(#paint1_linear)" stroke-width="18.7278" stroke-linecap="round"/>
<path d="M194.396 250.706C195.809 248.965 197.592 246.918 198.739 240.931" stroke="#C7D2D7" stroke-opacity="0.3" stroke-width="4.42185" stroke-linecap="round"/>
<path d="M186.674 242.901C188.428 242.423 190.6 241.932 193.266 238.141" stroke="#C7D2D7" stroke-opacity="0.3" stroke-width="4.42185" stroke-linecap="round"/>
<path d="M203.826 250.046C204.155 249.016 204.57 247.789 204.87 244.699" stroke="#C7D2D7" stroke-opacity="0.3" stroke-width="4.42185" stroke-linecap="round"/>
</g>
<path d="M146.039 205.356C156.165 205.356 164.268 213.761 163.897 223.88L161.774 281.799C161.426 291.286 153.721 298.845 144.229 299.011L101.636 299.757C92.0167 299.926 83.9904 292.448 83.4785 282.841L80.3525 224.177C79.8075 213.948 87.9542 205.356 98.1971 205.356H146.039Z" fill="url(#paint2_linear)" stroke="url(#paint3_linear)" stroke-width="3.12723"/>
<path d="M96.1724 205.356C105.023 205.356 112.316 212.3 112.75 221.14L115.729 281.887C116.179 291.058 108.864 298.741 99.6817 298.741C91.2222 298.741 84.2118 292.181 83.6501 283.741L79.6119 223.055C78.9745 213.476 86.5723 205.356 96.1724 205.356Z" fill="url(#paint4_linear)" stroke="url(#paint5_linear)" stroke-width="3.12723"/>
<g filter="url(#filter1_d)">
<path d="M154.751 216.877C165.24 214.989 175.729 220.34 179.48 230.316C187.935 252.805 196.037 282.734 192.122 293.117C187.824 304.517 174.613 310.126 165.911 312.157L165.915 312.179C165.318 312.316 164.661 312.448 163.954 312.57C163.249 312.702 162.588 312.807 161.981 312.887L161.977 312.865C153.113 313.996 138.775 313.345 130.771 304.159C123.482 295.793 120.64 264.917 120.723 240.892C120.759 230.234 128.725 221.561 139.214 219.673L154.751 216.877Z" fill="url(#paint6_linear)"/>
<g filter="url(#filter2_d)">
<rect width="20.5486" height="17.1672" rx="2.34098" transform="matrix(-0.984185 0.177142 0.177142 0.984185 164.673 240.896)" fill="url(#paint7_linear)"/>
<rect x="0.314879" y="-0.453107" width="21.3289" height="17.9475" rx="2.73114" transform="matrix(-0.984185 0.177142 0.177142 0.984185 165.378 240.833)" stroke="#EFF2F3" stroke-width="0.780326"/>
</g>
<path d="M153.176 250.336L153.152 250.341C153.466 249.229 154.356 248.346 155.529 248.135C156.285 247.999 157.029 248.166 157.645 248.552L157.663 248.548L158.864 248.332C157.965 247.418 156.676 246.948 155.358 247.185C153.346 247.548 151.973 249.429 152.114 251.508L154.646 251.052L154.817 252.002L152.285 252.457L152.287 252.465C152.383 252.785 152.513 253.088 152.673 253.368L154.987 252.951L155.422 255.368C155.731 255.428 156.05 255.451 156.372 255.432L155.896 252.788L156.806 252.624L157.282 255.269C157.591 255.174 157.881 255.042 158.15 254.878L157.715 252.461L160.029 252.044C160.107 251.572 160.106 251.077 160.016 250.576C159.926 250.075 159.754 249.61 159.516 249.195L158.978 249.292L153.176 250.336ZM156.635 251.675L155.726 251.838L155.555 250.889L156.464 250.725L156.635 251.675ZM159.159 251.22L157.544 251.511L157.373 250.561L158.988 250.271C159.038 250.422 159.078 250.578 159.107 250.74C159.136 250.901 159.153 251.061 159.159 251.22Z" fill="#9FF9FF"/>
<path d="M155.011 245.277C151.836 245.849 149.745 249.001 150.342 252.317C150.939 255.633 153.997 257.859 157.173 257.287C160.348 256.716 162.438 253.564 161.841 250.247C161.244 246.931 158.186 244.706 155.011 245.277ZM157.001 256.336C154.329 256.817 151.755 254.944 151.253 252.153C150.751 249.362 152.51 246.709 155.182 246.228C157.854 245.747 160.428 247.62 160.93 250.411C161.433 253.202 159.674 255.855 157.001 256.336Z" fill="#9FF9FF"/>
<g filter="url(#filter3_d)">
<ellipse rx="2.10098" ry="3.60208" transform="matrix(-0.984185 0.177142 0.177142 0.984185 177.107 242.4)" fill="url(#paint8_radial)"/>
<path d="M177.815 246.329C177.05 246.467 176.334 246.05 175.8 245.423C175.258 244.788 174.842 243.876 174.656 242.841C174.469 241.807 174.541 240.807 174.828 240.023C175.11 239.249 175.636 238.609 176.4 238.471C177.165 238.334 177.881 238.75 178.415 239.377C178.957 240.013 179.373 240.924 179.559 241.959C179.745 242.994 179.674 243.993 179.387 244.778C179.105 245.552 178.579 246.192 177.815 246.329Z" stroke="#EFF2F3" stroke-width="0.780326"/>
</g>
<g filter="url(#filter4_d)">
<ellipse rx="2.10098" ry="3.60208" transform="matrix(-0.984185 0.177142 0.177142 0.984185 178.858 252.129)" fill="url(#paint9_radial)"/>
<path d="M179.566 256.058C178.801 256.195 178.085 255.779 177.551 255.152C177.009 254.516 176.593 253.605 176.407 252.57C176.22 251.535 176.292 250.536 176.579 249.751C176.861 248.977 177.387 248.337 178.151 248.2C178.916 248.062 179.632 248.479 180.166 249.106C180.708 249.741 181.124 250.653 181.31 251.687C181.496 252.722 181.425 253.722 181.138 254.506C180.856 255.28 180.33 255.92 179.566 256.058Z" stroke="#EFF2F3" stroke-width="0.780326"/>
</g>
<path d="M169.259 302.65L167.03 289.837L192.656 285.379L194.885 298.192L169.259 302.65ZM198.551 345.602C198.203 352.776 192.106 358.31 184.931 357.962C177.757 357.615 172.223 351.517 172.571 344.342L198.551 345.602ZM194.885 298.192C196.568 307.869 199.225 331.705 198.551 345.602L172.571 344.342C173.112 333.176 170.792 311.466 169.259 302.65L194.885 298.192Z" fill="white"/>
<path d="M129.44 309.817L127.211 297.004L152.837 292.546L155.066 305.359L129.44 309.817ZM158.732 352.768C158.385 359.942 152.287 365.476 145.113 365.129C137.938 364.781 132.404 358.683 132.752 351.509L158.732 352.768ZM155.066 305.359C156.749 315.036 159.406 338.872 158.732 352.768L132.752 351.509C133.293 340.343 130.974 318.633 129.44 309.817L155.066 305.359Z" fill="white"/>
<path d="M188.552 297.036C180.898 305.117 159.57 318.341 135.484 306.587" stroke="#C7D2D7" stroke-opacity="0.3" stroke-width="4.42185" stroke-linecap="round"/>
<path d="M189.92 313.768C187.137 315.11 183.835 316.811 175.199 317.657" stroke="#C7D2D7" stroke-opacity="0.3" stroke-width="4.42185" stroke-linecap="round"/>
<path d="M152.738 322.893C149.78 323.782 146.252 324.946 137.59 324.429" stroke="#C7D2D7" stroke-opacity="0.3" stroke-width="4.42185" stroke-linecap="round"/>
<path d="M189.241 324.566C187.903 325.233 186.315 326.076 182.14 326.537" stroke="#C7D2D7" stroke-opacity="0.3" stroke-width="4.42185" stroke-linecap="round"/>
<path d="M149.564 332.535C148.112 332.892 146.378 333.366 142.204 332.9" stroke="#C7D2D7" stroke-opacity="0.3" stroke-width="4.42185" stroke-linecap="round"/>
</g>
<g filter="url(#filter5_d)">
<path d="M142.653 226.591C117.054 222.657 99.4923 198.715 103.427 173.117C107.362 147.518 131.303 129.956 156.902 133.891C182.5 137.825 200.062 161.767 196.128 187.365C192.193 212.964 168.251 230.526 142.653 226.591Z" fill="url(#paint10_radial)"/>
<path d="M175.431 206.389C177.539 207.282 179.99 206.773 181.547 205.083C186.78 199.435 191.836 189.173 191.921 182.038C192.274 154.637 153.322 144.032 142.239 165.513C137.142 175.421 139.383 185.539 140.593 189.805C140.985 191.163 141.982 192.296 143.289 192.845L175.431 206.389Z" fill="url(#paint11_linear)"/>
<g style="mix-blend-mode:multiply">
<path d="M141.969 165.441C147.563 154.566 160.302 151.938 171.455 155.518C162.644 155.018 173.278 173.29 168.954 181.671C163.856 191.579 146.861 186.91 148.067 191.208C148.459 192.565 149.455 193.699 150.763 194.247L179.427 206.34C178.103 206.927 176.551 206.941 175.156 206.347L143.014 192.803C141.706 192.254 140.71 191.121 140.318 189.764C139.112 185.466 136.836 175.374 141.969 165.441Z" fill="url(#paint12_radial)"/>
</g>
<path d="M182.967 169.377C184.681 170.762 189.887 181.301 183.548 190.836" stroke="white" stroke-width="5.30256" stroke-linecap="round"/>
</g>
<g filter="url(#filter6_d)">
<path d="M132.094 244.601C134.848 256.609 145.259 267.536 155.198 271.78C162.491 274.895 174.052 277.187 185.691 271.832" stroke="url(#paint13_linear)" stroke-width="18.7278" stroke-linecap="round"/>
<path d="M156.865 265.873C156.276 268.036 155.655 270.678 151.461 275.103" stroke="#C7D2D7" stroke-opacity="0.3" stroke-width="4.42185" stroke-linecap="round"/>
<path d="M149.467 262.446C149.133 263.784 148.799 265.459 145.873 266.938" stroke="#C7D2D7" stroke-opacity="0.3" stroke-width="4.42185" stroke-linecap="round"/>
<path d="M162.968 269.477C163.179 270.727 163.502 272.244 161.91 275.074" stroke="#C7D2D7" stroke-opacity="0.3" stroke-width="4.42185" stroke-linecap="round"/>
</g>
<path fill-rule="evenodd" clip-rule="evenodd" d="M197.475 344.11C191.741 344.405 182.39 344.112 173.391 341.592C171.841 341.158 170.254 342.291 170.254 343.9V365.505C170.254 365.756 170.292 366.005 170.371 366.237C170.314 368.293 170.234 372.996 170.372 375.483C170.51 377.975 174.122 380.329 175.91 381.194C177.756 383.444 183.958 387.91 193.997 387.771C204.035 387.633 206.891 385.694 207.064 384.742C207.064 385.55 207.064 385.798 207.064 380.329C207.064 376.722 200.993 372.792 194.857 369.839C194.888 369.751 194.914 369.66 194.935 369.568L200.053 347.087C200.413 345.504 199.095 344.026 197.475 344.11Z" fill="#282522"/>
<path d="M187.792 380.225C196.567 382.934 203.424 381.353 205.755 380.225C207.227 377.575 198.592 371.593 193.608 370.508C186.172 368.888 181.93 369.89 179.768 372.053C176.823 374.999 179.017 377.515 187.792 380.225Z" fill="url(#paint14_linear)"/>
<path fill-rule="evenodd" clip-rule="evenodd" d="M131.989 344.595C137.641 345.189 146.873 345.393 155.88 343.39C157.451 343.041 158.975 344.257 158.889 345.864L157.741 367.191C157.728 367.441 157.676 367.687 157.585 367.914C157.533 369.947 157.362 374.608 157.093 377.062C156.823 379.519 153.126 381.655 151.311 382.416C149.365 384.543 142.994 388.629 133.073 387.958C123.153 387.286 120.431 385.217 120.311 384.267C120.268 385.065 120.255 385.311 120.546 379.902C120.738 376.335 126.952 372.771 133.179 370.176C133.151 370.084 133.129 369.99 133.112 369.894L129.255 347.43C128.98 345.83 130.376 344.425 131.989 344.595Z" fill="#282522"/>
<path d="M139.611 380.824C130.789 383.037 124.092 381.109 121.846 379.868C120.531 377.169 129.39 371.713 134.377 370.905C141.817 369.699 145.96 370.916 147.983 373.17C150.738 376.24 148.434 378.612 139.611 380.824Z" fill="url(#paint15_linear)"/>
<g filter="url(#filter7_f)">
<ellipse cx="219.554" cy="387.631" rx="138.7" ry="8.18874" fill="url(#paint16_radial)" fill-opacity="0.5"/>
</g>
<g clip-path="url(#clip0)">
<path d="M352.121 182.737C350.957 180.902 349.424 179.276 347.446 178.061L273.534 145.547C263.937 141.483 259.772 142.472 253.165 150.384L202.031 212.59C200.81 214.565 200.168 216.708 199.952 218.87L291.682 267.284L352.121 182.737Z" fill="url(#paint17_linear)"/>
<path d="M208.723 171.666L322.943 144.544L345.483 239.467L231.263 266.589L208.723 171.666Z" fill="white"/>
<path d="M228.707 305.623L284.337 236.432L365.31 273.191C367.532 271.304 369.133 268.818 369.932 266.021L293.823 230.99C284.308 226.952 280.026 227.869 273.454 235.827L221.299 301.23C223.272 303.399 225.838 304.93 228.707 305.623Z" fill="#E8AB54"/>
<path d="M289.5 257.775L352.122 182.737L371.282 263.425C373.149 271.29 368.271 279.182 360.385 281.055L236.648 310.437C228.762 312.309 220.857 307.453 218.989 299.588L199.829 218.899L289.5 257.775Z" fill="url(#paint18_linear)"/>
<path d="M361.87 280.535C364.877 279.475 367.36 277.527 369.066 275.036L284.335 236.427L226.173 308.967C228.823 310.429 231.911 311.049 235.083 310.647L361.87 280.535Z" fill="url(#paint19_linear)"/>
<path d="M222.426 305.976C224.399 308.145 226.969 309.676 229.835 310.374L285.465 241.188L366.438 277.942C368.659 276.055 370.261 273.569 371.06 270.772L294.947 235.727C284.381 231.222 282.129 231.435 274.578 240.564L222.426 305.976Z" fill="#F9D7A7"/>
<circle cx="277.107" cy="199.021" r="22.3635" transform="rotate(-13.8869 277.107 199.021)" fill="#ED9C29"/>
<g filter="url(#filter8_d)">
<rect x="283.775" y="196.604" width="11.7283" height="2.69434" rx="1.34717" transform="rotate(-13.8869 283.775 196.604)" fill="white"/>
<rect x="286.119" y="201.271" width="11.7283" height="2.69434" rx="1.34717" transform="rotate(-65.3259 286.119 201.271)" fill="white"/>
<rect x="292.815" y="201.706" width="11.7283" height="2.69434" rx="1.34717" transform="rotate(-133.098 292.815 201.706)" fill="white"/>
</g>
<g filter="url(#filter9_d)">
<rect x="271.03" y="199.769" width="11.7283" height="2.69434" rx="1.34717" transform="rotate(-13.8869 271.03 199.769)" fill="white"/>
<rect x="273.374" y="204.436" width="11.7283" height="2.69434" rx="1.34717" transform="rotate(-65.3259 273.374 204.436)" fill="white"/>
<rect x="280.069" y="204.871" width="11.7283" height="2.69434" rx="1.34717" transform="rotate(-133.098 280.069 204.871)" fill="white"/>
</g>
<g filter="url(#filter10_d)">
<rect x="258.716" y="202.789" width="11.7283" height="2.69434" rx="1.34717" transform="rotate(-13.8869 258.716 202.789)" fill="white"/>
<rect x="261.06" y="207.456" width="11.7283" height="2.69434" rx="1.34717" transform="rotate(-65.3259 261.06 207.456)" fill="white"/>
<rect x="267.756" y="207.892" width="11.7283" height="2.69434" rx="1.34717" transform="rotate(-133.098 267.756 207.892)" fill="white"/>
</g>
</g>
<path d="M185.255 276.728C185 281.062 188.783 284.492 193.039 283.783L201.104 282.44C202.092 282.275 203.002 281.9 203.791 281.365C224.204 279.542 230.383 273.873 231.185 268.691C230.621 263.175 224.2 266.576 217.687 264.963C217.37 264.884 217.057 264.806 216.749 264.729C220.578 264.433 221.422 261.937 219.982 260.114C218.625 258.395 213.087 259.427 207.625 261.186C206.895 261.498 205.957 261.938 204.931 262.491C204.031 261.544 202.853 260.858 201.505 260.567L194.133 258.977C190.077 258.102 186.177 261.098 185.931 265.279L185.255 276.728Z" fill="#282522"/>
<defs>
<filter id="filter0_d" x="158.4" y="191.956" width="84.5289" height="89.9573" filterUnits="userSpaceOnUse" color-interpolation-filters="sRGB">
<feFlood flood-opacity="0" result="BackgroundImageFix"/>
<feColorMatrix in="SourceAlpha" type="matrix" values="0 0 0 0 0 0 0 0 0 0 0 0 0 0 0 0 0 0 127 0" result="hardAlpha"/>
<feOffset dy="1.04044"/>
<feGaussianBlur stdDeviation="0.520218"/>
<feComposite in2="hardAlpha" operator="out"/>
<feColorMatrix type="matrix" values="0 0 0 0 0 0 0 0 0 0 0 0 0 0 0 0 0 0 0.25 0"/>
<feBlend mode="normal" in2="BackgroundImageFix" result="effect1_dropShadow"/>
<feBlend mode="normal" in="SourceGraphic" in2="effect1_dropShadow" result="shape"/>
</filter>
<filter id="filter1_d" x="108.567" y="212.146" width="99.1219" height="157.269" filterUnits="userSpaceOnUse" color-interpolation-filters="sRGB">
<feFlood flood-opacity="0" result="BackgroundImageFix"/>
<feColorMatrix in="SourceAlpha" type="matrix" values="0 0 0 0 0 0 0 0 0 0 0 0 0 0 0 0 0 0 127 0" result="hardAlpha"/>
<feOffset dy="1.04044"/>
<feGaussianBlur stdDeviation="0.520218"/>
<feComposite in2="hardAlpha" operator="out"/>
<feColorMatrix type="matrix" values="0 0 0 0 0 0 0 0 0 0 0 0 0 0 0 0 0 0 0.25 0"/>
<feBlend mode="normal" in2="BackgroundImageFix" result="effect1_dropShadow"/>
<feBlend mode="normal" in="SourceGraphic" in2="effect1_dropShadow" result="shape"/>
</filter>
<filter id="filter2_d" x="142.502" y="239.989" width="27.1579" height="24.429" filterUnits="userSpaceOnUse" color-interpolation-filters="sRGB">
<feFlood flood-opacity="0" result="BackgroundImageFix"/>
<feColorMatrix in="SourceAlpha" type="matrix" values="0 0 0 0 0 0 0 0 0 0 0 0 0 0 0 0 0 0 127 0" result="hardAlpha"/>
<feOffset dy="1.04044"/>
<feGaussianBlur stdDeviation="0.520218"/>
<feComposite in2="hardAlpha" operator="out"/>
<feColorMatrix type="matrix" values="0 0 0 0 0 0 0 0 0 0 0 0 0 0 0 0 0 0 0.25 0"/>
<feBlend mode="normal" in2="BackgroundImageFix" result="effect1_dropShadow"/>
<feBlend mode="normal" in="SourceGraphic" in2="effect1_dropShadow" result="shape"/>
</filter>
<filter id="filter3_d" x="172.455" y="237.577" width="9.30496" height="11.7278" filterUnits="userSpaceOnUse" color-interpolation-filters="sRGB">
<feFlood flood-opacity="0" result="BackgroundImageFix"/>
<feColorMatrix in="SourceAlpha" type="matrix" values="0 0 0 0 0 0 0 0 0 0 0 0 0 0 0 0 0 0 127 0" result="hardAlpha"/>
<feOffset dy="1.04044"/>
<feGaussianBlur stdDeviation="0.520218"/>
<feComposite in2="hardAlpha" operator="out"/>
<feColorMatrix type="matrix" values="0 0 0 0 0 0 0 0 0 0 0 0 0 0 0 0 0 0 0.25 0"/>
<feBlend mode="normal" in2="BackgroundImageFix" result="effect1_dropShadow"/>
<feBlend mode="normal" in="SourceGraphic" in2="effect1_dropShadow" result="shape"/>
</filter>
<filter id="filter4_d" x="174.206" y="247.305" width="9.30496" height="11.7278" filterUnits="userSpaceOnUse" color-interpolation-filters="sRGB">
<feFlood flood-opacity="0" result="BackgroundImageFix"/>
<feColorMatrix in="SourceAlpha" type="matrix" values="0 0 0 0 0 0 0 0 0 0 0 0 0 0 0 0 0 0 127 0" result="hardAlpha"/>
<feOffset dy="1.04044"/>
<feGaussianBlur stdDeviation="0.520218"/>
<feComposite in2="hardAlpha" operator="out"/>
<feColorMatrix type="matrix" values="0 0 0 0 0 0 0 0 0 0 0 0 0 0 0 0 0 0 0.25 0"/>
<feBlend mode="normal" in2="BackgroundImageFix" result="effect1_dropShadow"/>
<feBlend mode="normal" in="SourceGraphic" in2="effect1_dropShadow" result="shape"/>
</filter>
<filter id="filter5_d" x="95.2621" y="126.766" width="109.03" height="109.031" filterUnits="userSpaceOnUse" color-interpolation-filters="sRGB">
<feFlood flood-opacity="0" result="BackgroundImageFix"/>
<feColorMatrix in="SourceAlpha" type="matrix" values="0 0 0 0 0 0 0 0 0 0 0 0 0 0 0 0 0 0 127 0" result="hardAlpha"/>
<feOffset dy="1.04044"/>
<feGaussianBlur stdDeviation="0.520218"/>
<feComposite in2="hardAlpha" operator="out"/>
<feColorMatrix type="matrix" values="0 0 0 0 0 0 0 0 0 0 0 0 0 0 0 0 0 0 0.25 0"/>
<feBlend mode="normal" in2="BackgroundImageFix" result="effect1_dropShadow"/>
<feBlend mode="normal" in="SourceGraphic" in2="effect1_dropShadow" result="shape"/>
</filter>
<filter id="filter6_d" x="121.566" y="234.473" width="74.89" height="52.7469" filterUnits="userSpaceOnUse" color-interpolation-filters="sRGB">
<feFlood flood-opacity="0" result="BackgroundImageFix"/>
<feColorMatrix in="SourceAlpha" type="matrix" values="0 0 0 0 0 0 0 0 0 0 0 0 0 0 0 0 0 0 127 0" result="hardAlpha"/>
<feOffset dy="1.04044"/>
<feGaussianBlur stdDeviation="0.520218"/>
<feComposite in2="hardAlpha" operator="out"/>
<feColorMatrix type="matrix" values="0 0 0 0 0 0 0 0 0 0 0 0 0 0 0 0 0 0 0.25 0"/>
<feBlend mode="normal" in2="BackgroundImageFix" result="effect1_dropShadow"/>
<feBlend mode="normal" in="SourceGraphic" in2="effect1_dropShadow" result="shape"/>
</filter>
<filter id="filter7_f" x="76.0469" y="374.636" width="287.014" height="25.9906" filterUnits="userSpaceOnUse" color-interpolation-filters="sRGB">
<feFlood flood-opacity="0" result="BackgroundImageFix"/>
<feBlend mode="normal" in="SourceGraphic" in2="BackgroundImageFix" result="shape"/>
<feGaussianBlur stdDeviation="2.4033" result="effect1_foregroundBlur"/>
</filter>
<filter id="filter8_d" x="283.008" y="190.613" width="13.5679" height="13.3179" filterUnits="userSpaceOnUse" color-interpolation-filters="sRGB">
<feFlood flood-opacity="0" result="BackgroundImageFix"/>
<feColorMatrix in="SourceAlpha" type="matrix" values="0 0 0 0 0 0 0 0 0 0 0 0 0 0 0 0 0 0 127 0" result="hardAlpha"/>
<feOffset dy="0.767845"/>
<feGaussianBlur stdDeviation="0.383922"/>
<feComposite in2="hardAlpha" operator="out"/>
<feColorMatrix type="matrix" values="0 0 0 0 0 0 0 0 0 0 0 0 0 0 0 0 0 0 0.25 0"/>
<feBlend mode="normal" in2="BackgroundImageFix" result="effect1_dropShadow"/>
<feBlend mode="normal" in="SourceGraphic" in2="effect1_dropShadow" result="shape"/>
</filter>
<filter id="filter9_d" x="270.262" y="193.778" width="13.5679" height="13.3179" filterUnits="userSpaceOnUse" color-interpolation-filters="sRGB">
<feFlood flood-opacity="0" result="BackgroundImageFix"/>
<feColorMatrix in="SourceAlpha" type="matrix" values="0 0 0 0 0 0 0 0 0 0 0 0 0 0 0 0 0 0 127 0" result="hardAlpha"/>
<feOffset dy="0.767845"/>
<feGaussianBlur stdDeviation="0.383922"/>
<feComposite in2="hardAlpha" operator="out"/>
<feColorMatrix type="matrix" values="0 0 0 0 0 0 0 0 0 0 0 0 0 0 0 0 0 0 0.25 0"/>
<feBlend mode="normal" in2="BackgroundImageFix" result="effect1_dropShadow"/>
<feBlend mode="normal" in="SourceGraphic" in2="effect1_dropShadow" result="shape"/>
</filter>
<filter id="filter10_d" x="257.949" y="196.799" width="13.5679" height="13.3179" filterUnits="userSpaceOnUse" color-interpolation-filters="sRGB">
<feFlood flood-opacity="0" result="BackgroundImageFix"/>
<feColorMatrix in="SourceAlpha" type="matrix" values="0 0 0 0 0 0 0 0 0 0 0 0 0 0 0 0 0 0 127 0" result="hardAlpha"/>
<feOffset dy="0.767845"/>
<feGaussianBlur stdDeviation="0.383922"/>
<feComposite in2="hardAlpha" operator="out"/>
<feColorMatrix type="matrix" values="0 0 0 0 0 0 0 0 0 0 0 0 0 0 0 0 0 0 0.25 0"/>
<feBlend mode="normal" in2="BackgroundImageFix" result="effect1_dropShadow"/>
<feBlend mode="normal" in="SourceGraphic" in2="effect1_dropShadow" result="shape"/>
</filter>
<linearGradient id="paint0_linear" x1="131.166" y1="-44.3535" x2="269.522" y2="378.931" gradientUnits="userSpaceOnUse">
<stop stop-color="#FFA318"/>
<stop offset="1" stop-color="#FFA318" stop-opacity="0"/>
</linearGradient>
<linearGradient id="paint1_linear" x1="186.387" y1="213.144" x2="212.295" y2="249.981" gradientUnits="userSpaceOnUse">
<stop stop-color="#EFF2F3"/>
<stop offset="1" stop-color="white"/>
</linearGradient>
<linearGradient id="paint2_linear" x1="118.165" y1="378.175" x2="117.28" y2="216.585" gradientUnits="userSpaceOnUse">
<stop stop-color="#C0CDD2"/>
<stop offset="0.936289" stop-color="white"/>
</linearGradient>
<linearGradient id="paint3_linear" x1="121.977" y1="206.919" x2="121.977" y2="297.177" gradientUnits="userSpaceOnUse">
<stop stop-color="white"/>
<stop offset="1" stop-color="#A9C6D1"/>
</linearGradient>
<linearGradient id="paint4_linear" x1="102.037" y1="322.348" x2="85.1249" y2="217.999" gradientUnits="userSpaceOnUse">
<stop stop-color="#C0CDD2"/>
<stop offset="0.936289" stop-color="white"/>
</linearGradient>
<linearGradient id="paint5_linear" x1="95.2959" y1="206.919" x2="95.2959" y2="297.177" gradientUnits="userSpaceOnUse">
<stop stop-color="white"/>
<stop offset="1" stop-color="#A9C6D1"/>
</linearGradient>
<linearGradient id="paint6_linear" x1="146.982" y1="218.275" x2="163.954" y2="312.571" gradientUnits="userSpaceOnUse">
<stop stop-color="#E3E9EB"/>
<stop offset="0.56737" stop-color="white"/>
</linearGradient>
<linearGradient id="paint7_linear" x1="10.2743" y1="-21.9062" x2="10.2743" y2="17.1672" gradientUnits="userSpaceOnUse">
<stop stop-color="#50D5FF"/>
<stop offset="1" stop-color="#2C3585"/>
</linearGradient>
<radialGradient id="paint8_radial" cx="0" cy="0" r="1" gradientUnits="userSpaceOnUse" gradientTransform="translate(2.10098 3.60208) rotate(90) scale(5.2491 3.06163)">
<stop stop-color="#51E0FF"/>
<stop offset="1" stop-color="#4E7CB4"/>
</radialGradient>
<radialGradient id="paint9_radial" cx="0" cy="0" r="1" gradientUnits="userSpaceOnUse" gradientTransform="translate(2.10098 3.60208) rotate(90) scale(5.2491 3.06163)">
<stop stop-color="#FFB3B3"/>
<stop offset="1" stop-color="#F20000"/>
</radialGradient>
<radialGradient id="paint10_radial" cx="0" cy="0" r="1" gradientUnits="userSpaceOnUse" gradientTransform="translate(125.052 240.082) rotate(-171.262) scale(78.4006)">
<stop offset="0.381" stop-color="#BFCCD1"/>
<stop offset="0.7578" stop-color="white"/>
</radialGradient>
<linearGradient id="paint11_linear" x1="191.826" y1="183.66" x2="139.177" y2="175.568" gradientUnits="userSpaceOnUse">
<stop stop-color="#FFF668"/>
<stop offset="0.29" stop-color="#FF9C4C"/>
<stop offset="1" stop-color="#880000"/>
</linearGradient>
<radialGradient id="paint12_radial" cx="0" cy="0" r="1" gradientUnits="userSpaceOnUse" gradientTransform="translate(168.189 188.924) rotate(-171.262) scale(41.9261)">
<stop stop-color="white"/>
<stop offset="0.9385" stop-color="#880000"/>
</radialGradient>
<linearGradient id="paint13_linear" x1="132.207" y1="261.485" x2="177.239" y2="261.031" gradientUnits="userSpaceOnUse">
<stop stop-color="#EFF2F3"/>
<stop offset="1" stop-color="white"/>
</linearGradient>
<linearGradient id="paint14_linear" x1="193.902" y1="366.606" x2="189.338" y2="377.944" gradientUnits="userSpaceOnUse">
<stop stop-color="#504A44"/>
<stop offset="1" stop-color="#504A44" stop-opacity="0"/>
</linearGradient>
<linearGradient id="paint15_linear" x1="134.293" y1="367.031" x2="138.204" y2="378.486" gradientUnits="userSpaceOnUse">
<stop stop-color="#504A44"/>
<stop offset="1" stop-color="#504A44" stop-opacity="0"/>
</linearGradient>
<radialGradient id="paint16_radial" cx="0" cy="0" r="1" gradientUnits="userSpaceOnUse" gradientTransform="translate(219.554 387.631) rotate(90) scale(8.18874 138.7)">
<stop stop-color="#021B51"/>
<stop offset="1" stop-color="#75758F" stop-opacity="0"/>
</radialGradient>
<linearGradient id="paint17_linear" x1="262.413" y1="143.43" x2="291.816" y2="267.253" gradientUnits="userSpaceOnUse">
<stop stop-color="#B14A00"/>
<stop offset="1" stop-color="#D07C40"/>
</linearGradient>
<linearGradient id="paint18_linear" x1="275.975" y1="200.818" x2="298.517" y2="295.746" gradientUnits="userSpaceOnUse">
<stop offset="0.349318" stop-color="#ED9C29"/>
<stop offset="1" stop-color="#FCCB85"/>
</linearGradient>
<linearGradient id="paint19_linear" x1="284.418" y1="236.407" x2="298.473" y2="295.595" gradientUnits="userSpaceOnUse">
<stop stop-color="#F4B459"/>
<stop offset="1" stop-color="#F7C887"/>
</linearGradient>
<clipPath id="clip0">
<rect width="156.527" height="156.527" fill="white" transform="translate(186.206 161.529) rotate(-13.3579)"/>
</clipPath>
</defs>
</svg>
