<svg width="33" height="33" viewBox="0 0 33 33" fill="none" xmlns="http://www.w3.org/2000/svg">
<path d="M16.8406 10.4699C13.2555 10.4699 10.3491 13.26 10.3491 16.7017C10.3491 20.1435 13.2555 22.9336 16.8406 22.9336C20.4258 22.9336 23.3322 20.1435 23.3322 16.7017C23.3322 13.26 20.4258 10.4699 16.8406 10.4699ZM12.3491 16.7017C12.3491 14.3204 14.36 12.3899 16.8406 12.3899C19.3212 12.3899 21.3322 14.3204 21.3322 16.7017C21.3322 19.0831 19.3212 21.0136 16.8406 21.0136C14.36 21.0136 12.3491 19.0831 12.3491 16.7017Z" fill="#F52079"/>
<path d="M20.4335 3.92108C19.3776 0.482035 14.3035 0.482038 13.2476 3.92108L13.0599 4.53244C12.7455 5.55657 11.527 6.04109 10.5503 5.53037L9.96729 5.2255C6.68757 3.51049 3.09963 6.95492 4.8861 10.1034L5.20368 10.6631C5.73568 11.6008 5.23096 12.7705 4.16416 13.0724L3.52733 13.2526C-0.0550089 14.2662 -0.0550063 19.1374 3.52733 20.151L4.16416 20.3312C5.23096 20.6331 5.73568 21.8028 5.20368 22.7404L4.8861 23.3001C3.09963 26.4487 6.68756 29.8931 9.96728 28.1781L10.5503 27.8732C11.527 27.3625 12.7455 27.847 13.0599 28.8712L13.2476 29.4825C14.3035 32.9216 19.3776 32.9215 20.4335 29.4825L20.6212 28.8712C20.9357 27.847 22.1542 27.3625 23.1308 27.8732L23.7139 28.1781C26.9936 29.8931 30.5815 26.4487 28.7951 23.3002L28.4775 22.7404C27.9455 21.8028 28.4502 20.6331 29.517 20.3312L30.1538 20.151C33.7362 19.1374 33.7362 14.2662 30.1538 13.2526L29.517 13.0724C28.4502 12.7705 27.9455 11.6008 28.4775 10.6631L28.7951 10.1034C30.5815 6.9549 26.9936 3.51049 23.7139 5.2255L23.1308 5.53037C22.1542 6.04109 20.9357 5.55657 20.6212 4.53244L20.4335 3.92108ZM15.166 4.46391C15.6581 2.86109 18.023 2.86109 18.5151 4.4639L18.7028 5.07526C19.3775 7.27266 21.9919 8.31229 24.0875 7.21647L24.6705 6.91159C26.1991 6.11228 27.8713 7.71761 27.0387 9.18502L26.7211 9.74473C25.5796 11.7565 26.6626 14.2664 28.9515 14.914L29.5884 15.0942C31.258 15.5667 31.258 17.8369 29.5884 18.3094L28.9515 18.4895C26.6626 19.1372 25.5796 21.6471 26.7211 23.6589L27.0387 24.2186C27.8713 25.686 26.1991 27.2913 24.6706 26.492L24.0875 26.1871C21.9919 25.0913 19.3775 26.1309 18.7028 28.3283L18.5151 28.9397C18.023 30.5425 15.6581 30.5425 15.166 28.9397L14.9783 28.3283C14.3037 26.1309 11.6892 25.0913 9.59363 26.1871L9.0106 26.492C7.48205 27.2913 5.80983 25.686 6.64245 24.2186L6.96002 23.6589C8.1015 21.6471 7.01857 19.1372 4.72961 18.4895L4.09277 18.3094C2.42318 17.8369 2.42318 15.5667 4.09277 15.0942L4.72961 14.914C7.01856 14.2664 8.1015 11.7565 6.96002 9.74473L6.64245 9.18502C5.80984 7.71761 7.48205 6.11229 9.0106 6.91159L9.59363 7.21646C11.6892 8.31228 14.3037 7.27267 14.9783 5.07527L15.166 4.46391Z" fill="#F52079"/>
</svg>
