<svg width="35" height="35" viewBox="0 0 35 35" fill="none" xmlns="http://www.w3.org/2000/svg">
<path fill-rule="evenodd" clip-rule="evenodd" d="M17.7563 34.9149C27.1881 34.9149 34.8341 27.2689 34.8341 17.8371C34.8341 8.40527 27.1881 0.759277 17.7563 0.759277C8.32446 0.759277 0.678467 8.40527 0.678467 17.8371C0.678467 27.2689 8.32446 34.9149 17.7563 34.9149ZM24.3357 16.5165C25.2152 15.5834 25.1718 14.1141 24.2388 13.2346C23.3058 12.3551 21.8364 12.3984 20.9569 13.3315L16.2301 18.3458L14.5557 16.5695C13.6762 15.6365 12.2069 15.5931 11.2738 16.4726C10.3408 17.3522 10.2974 18.8215 11.177 19.7545L14.5407 23.3229C14.9794 23.7883 15.5906 24.0521 16.2301 24.0521C16.8696 24.0521 17.4808 23.7883 17.9195 23.3229L24.3357 16.5165Z" fill="#D6D6E8"/>
</svg>
