<svg width="603" height="592" viewBox="0 0 603 592" fill="none" xmlns="http://www.w3.org/2000/svg">
<path fill-rule="evenodd" clip-rule="evenodd" d="M221.208 93.3306C287.891 64.536 367.046 50.8452 428.291 89.8917C490.265 129.402 509.327 207.391 515.048 280.665C520.649 352.401 513.173 431.036 458.589 477.919C406.32 522.815 331.193 507.338 263.053 497.108C196.943 487.182 122.515 479.341 87.7459 422.243C52.81 364.871 75.8598 293.415 101.116 231.172C125.223 171.763 162.348 118.748 221.208 93.3306Z" fill="url(#paint0_linear_301_9283)"/>
<path d="M387.68 135.623C388.047 134.624 389.46 134.624 389.827 135.623L392.567 143.079C392.683 143.394 392.931 143.643 393.246 143.759L400.703 146.498C401.702 146.865 401.702 148.279 400.703 148.646L393.246 151.386C392.931 151.501 392.683 151.75 392.567 152.065L389.827 159.521C389.46 160.52 388.047 160.52 387.68 159.521L384.94 152.065C384.824 151.75 384.576 151.501 384.261 151.386L376.804 148.646C375.805 148.279 375.805 146.865 376.804 146.498L384.261 143.759C384.576 143.643 384.824 143.394 384.94 143.079L387.68 135.623Z" fill="#FFD45E"/>
<path d="M342.369 18.1312C342.779 17.0167 344.355 17.0167 344.765 18.1312L347.821 26.448C347.95 26.7995 348.227 27.0765 348.578 27.2056L356.895 30.2615C358.01 30.671 358.01 32.2473 356.895 32.6568L348.578 35.7127C348.227 35.8418 347.95 36.1188 347.821 36.4703L344.765 44.7871C344.355 45.9016 342.779 45.9016 342.369 44.7871L339.314 36.4703C339.184 36.1188 338.907 35.8418 338.556 35.7127L330.239 32.6568C329.125 32.2473 329.125 30.671 330.239 30.2615L338.556 27.2056C338.907 27.0765 339.184 26.7995 339.314 26.448L342.369 18.1312Z" fill="#FFD45E"/>
<path d="M281.29 112.742C281.657 111.743 283.07 111.743 283.438 112.742L286.177 120.199C286.293 120.514 286.541 120.762 286.857 120.878L294.313 123.618C295.312 123.985 295.312 125.398 294.313 125.765L286.857 128.505C286.541 128.621 286.293 128.869 286.177 129.184L283.438 136.641C283.07 137.64 281.657 137.64 281.29 136.641L278.55 129.184C278.435 128.869 278.186 128.621 277.871 128.505L270.415 125.765C269.415 125.398 269.415 123.985 270.415 123.618L277.871 120.878C278.186 120.762 278.435 120.514 278.55 120.199L281.29 112.742Z" fill="#FFD45E"/>
<path d="M393.399 70.4146C393.767 69.4154 395.18 69.4154 395.547 70.4146L398.287 77.871C398.402 78.1862 398.651 78.4345 398.966 78.5503L406.422 81.29C407.422 81.6572 407.422 83.0704 406.422 83.4376L398.966 86.1773C398.651 86.2931 398.402 86.5414 398.287 86.8565L395.547 94.313C395.18 95.3122 393.767 95.3122 393.399 94.313L390.66 86.8565C390.544 86.5414 390.296 86.2931 389.98 86.1773L382.524 83.4376C381.525 83.0704 381.525 81.6572 382.524 81.29L389.98 78.5503C390.296 78.4345 390.544 78.1862 390.66 77.871L393.399 70.4146Z" fill="#FFD45E"/>
<path d="M352.218 165.343C352.586 164.347 353.995 164.347 354.363 165.343L354.962 166.96C355.078 167.273 355.325 167.52 355.638 167.636L357.255 168.234C358.251 168.603 358.251 170.012 357.255 170.38L355.638 170.978C355.325 171.094 355.078 171.341 354.962 171.654L354.363 173.272C353.995 174.268 352.586 174.268 352.218 173.272L351.619 171.654C351.503 171.341 351.257 171.094 350.943 170.978L349.326 170.38C348.33 170.012 348.33 168.603 349.326 168.234L350.943 167.636C351.257 167.52 351.503 167.273 351.619 166.96L352.218 165.343Z" fill="#FFD45E"/>
<path d="M281.862 165.343C282.231 164.347 283.64 164.347 284.008 165.343L285.534 169.465C285.649 169.778 285.896 170.025 286.209 170.141L290.332 171.666C291.328 172.035 291.328 173.443 290.332 173.812L286.209 175.337C285.896 175.453 285.649 175.7 285.534 176.013L284.008 180.135C283.64 181.131 282.231 181.131 281.862 180.135L280.337 176.013C280.221 175.7 279.974 175.453 279.661 175.337L275.539 173.812C274.543 173.443 274.543 172.035 275.539 171.666L279.661 170.141C279.974 170.025 280.221 169.778 280.337 169.465L281.862 165.343Z" fill="#FFD45E"/>
<path opacity="0.7" d="M358.38 77.788C358.525 77.3951 359.081 77.3951 359.226 77.788L360.22 80.4738C360.266 80.5973 360.363 80.6947 360.487 80.7404L363.173 81.7342C363.566 81.8796 363.566 82.4353 363.173 82.5807L360.487 83.5745C360.363 83.6202 360.266 83.7176 360.22 83.8411L359.226 86.5269C359.081 86.9198 358.525 86.9198 358.38 86.5269L357.386 83.8411C357.34 83.7176 357.243 83.6202 357.12 83.5745L354.434 82.5807C354.041 82.4353 354.041 81.8796 354.434 81.7342L357.12 80.7404C357.243 80.6947 357.34 80.5973 357.386 80.4738L358.38 77.788Z" fill="white"/>
<path opacity="0.7" d="M378.972 114.397C379.117 114.004 379.673 114.004 379.818 114.397L380.812 117.082C380.858 117.206 380.955 117.303 381.079 117.349L383.764 118.343C384.157 118.488 384.157 119.044 383.764 119.189L381.079 120.183C380.955 120.229 380.858 120.326 380.812 120.45L379.818 123.136C379.673 123.528 379.117 123.528 378.972 123.136L377.978 120.45C377.932 120.326 377.835 120.229 377.711 120.183L375.026 119.189C374.633 119.044 374.633 118.488 375.026 118.343L377.711 117.349C377.835 117.303 377.932 117.206 377.978 117.082L378.972 114.397Z" fill="white"/>
<path opacity="0.7" d="M305.758 141.853C305.903 141.46 306.459 141.46 306.604 141.853L307.598 144.539C307.644 144.662 307.741 144.76 307.865 144.805L310.551 145.799C310.943 145.945 310.943 146.5 310.551 146.646L307.865 147.639C307.741 147.685 307.644 147.783 307.598 147.906L306.604 150.592C306.459 150.985 305.903 150.985 305.758 150.592L304.764 147.906C304.718 147.783 304.621 147.685 304.497 147.639L301.812 146.646C301.419 146.5 301.419 145.945 301.812 145.799L304.497 144.805C304.621 144.76 304.718 144.662 304.764 144.539L305.758 141.853Z" fill="white"/>
<path opacity="0.7" d="M536.839 6.86319C536.984 6.47032 537.54 6.47032 537.685 6.86319L538.679 9.549C538.725 9.67251 538.822 9.7699 538.946 9.81561L541.632 10.8094C542.025 10.9548 542.025 11.5105 541.632 11.6559L538.946 12.6497C538.822 12.6954 538.725 12.7928 538.679 12.9163L537.685 15.6021C537.54 15.995 536.984 15.995 536.839 15.6021L535.845 12.9163C535.799 12.7928 535.702 12.6954 535.579 12.6497L532.893 11.6559C532.5 11.5105 532.5 10.9548 532.893 10.8094L535.579 9.81561C535.702 9.7699 535.799 9.67251 535.845 9.549L536.839 6.86319Z" fill="white" fill-opacity="0.2"/>
<path opacity="0.7" d="M533.407 80.0773C533.553 79.6844 534.108 79.6844 534.254 80.0773L535.248 82.7631C535.293 82.8866 535.391 82.984 535.514 83.0297L538.2 84.0236C538.593 84.1689 538.593 84.7246 538.2 84.87L535.514 85.8638C535.391 85.9095 535.293 86.0069 535.248 86.1304L534.254 88.8162C534.108 89.2091 533.553 89.2091 533.407 88.8162L532.414 86.1304C532.368 86.0069 532.27 85.9095 532.147 85.8638L529.461 84.87C529.068 84.7246 529.068 84.1689 529.461 84.0236L532.147 83.0297C532.27 82.984 532.368 82.8866 532.414 82.7631L533.407 80.0773Z" fill="white" fill-opacity="0.2"/>
<path opacity="0.7" d="M580.31 59.4865C580.455 59.0936 581.011 59.0936 581.156 59.4865L582.15 62.1723C582.196 62.2958 582.293 62.3932 582.417 62.4389L585.102 63.4327C585.495 63.5781 585.495 64.1338 585.102 64.2792L582.417 65.273C582.293 65.3187 582.196 65.4161 582.15 65.5396L581.156 68.2254C581.011 68.6183 580.455 68.6183 580.31 68.2254L579.316 65.5396C579.27 65.4161 579.173 65.3187 579.049 65.273L576.363 64.2792C575.971 64.1338 575.971 63.5781 576.363 63.4327L579.049 62.4389C579.173 62.3932 579.27 62.2958 579.316 62.1723L580.31 59.4865Z" fill="white" fill-opacity="0.2"/>
<path d="M383.596 39.7928C383.71 39.4845 384.146 39.4845 384.26 39.7928L385.04 41.9004C385.076 41.9974 385.152 42.0738 385.249 42.1097L387.357 42.8896C387.665 43.0036 387.665 43.4397 387.357 43.5538L385.249 44.3337C385.152 44.3696 385.076 44.446 385.04 44.5429L384.26 46.6506C384.146 46.9589 383.71 46.9589 383.596 46.6506L382.816 44.5429C382.78 44.446 382.704 44.3696 382.607 44.3337L380.499 43.5538C380.191 43.4397 380.191 43.0036 380.499 42.8896L382.607 42.1097C382.704 42.0738 382.78 41.9974 382.816 41.9004L383.596 39.7928Z" fill="white"/>
<path d="M342.412 109.574C342.526 109.266 342.962 109.266 343.076 109.574L343.856 111.682C343.892 111.779 343.969 111.855 344.066 111.891L346.173 112.671C346.482 112.785 346.482 113.221 346.173 113.335L344.066 114.115C343.969 114.151 343.892 114.227 343.856 114.324L343.076 116.432C342.962 116.74 342.526 116.74 342.412 116.432L341.632 114.324C341.596 114.227 341.52 114.151 341.423 114.115L339.315 113.335C339.007 113.221 339.007 112.785 339.315 112.671L341.423 111.891C341.52 111.855 341.596 111.779 341.632 111.682L342.412 109.574Z" fill="white"/>
<path d="M311.493 64.5799C311.704 64.0093 312.511 64.0093 312.722 64.5799L314.166 68.481C314.232 68.6604 314.373 68.8019 314.553 68.8682L318.454 70.3118C319.025 70.5229 319.025 71.33 318.454 71.5412L314.553 72.9847C314.373 73.0511 314.232 73.1926 314.166 73.372L312.722 77.273C312.511 77.8437 311.704 77.8437 311.493 77.273L310.049 73.372C309.983 73.1926 309.841 73.0511 309.662 72.9847L305.761 71.5412C305.19 71.33 305.19 70.5229 305.761 70.3118L309.662 68.8682C309.841 68.8019 309.983 68.6604 310.049 68.481L311.493 64.5799Z" fill="white"/>
<path d="M597.518 0.897517C597.632 0.589214 598.068 0.589214 598.182 0.897517L598.962 3.00517C598.998 3.1021 599.074 3.17853 599.171 3.21439L601.279 3.9943C601.587 4.10838 601.587 4.54444 601.279 4.65852L599.171 5.43842C599.074 5.47429 598.998 5.55071 598.962 5.64764L598.182 7.7553C598.068 8.0636 597.632 8.0636 597.518 7.7553L596.738 5.64764C596.702 5.55071 596.626 5.47429 596.529 5.43842L594.421 4.65852C594.113 4.54444 594.113 4.10838 594.421 3.9943L596.529 3.21439C596.626 3.17853 596.702 3.1021 596.738 3.00517L597.518 0.897517Z" fill="white" fill-opacity="0.2"/>
<g filter="url(#filter0_d_301_9283)">
<path d="M227.071 293.233C238.143 308.976 246.822 317.96 256.377 323.742C265.933 329.524 279.308 328.392 297.303 329.593" stroke="url(#paint1_linear_301_9283)" stroke-width="24.6368" stroke-linecap="round"/>
<path d="M255.73 329.806C257.59 327.516 259.936 324.824 261.444 316.947" stroke="#C7D2D7" stroke-opacity="0.3" stroke-width="5.81703" stroke-linecap="round"/>
<path d="M245.572 319.539C247.879 318.911 250.737 318.264 254.245 313.277" stroke="#C7D2D7" stroke-opacity="0.3" stroke-width="5.81703" stroke-linecap="round"/>
<path d="M268.136 328.938C268.569 327.583 269.115 325.97 269.509 321.904" stroke="#C7D2D7" stroke-opacity="0.3" stroke-width="5.81703" stroke-linecap="round"/>
</g>
<path d="M192.117 270.152C205.438 270.152 216.098 281.209 215.61 294.521L212.817 370.714C212.359 383.194 202.223 393.138 189.736 393.357L133.704 394.339C121.049 394.561 110.491 384.724 109.817 372.085L105.705 294.911C104.988 281.455 115.705 270.152 129.18 270.152H192.117Z" fill="url(#paint2_linear_301_9283)" stroke="url(#paint3_linear_301_9283)" stroke-width="4.11393"/>
<path d="M126.516 270.152C138.159 270.152 147.753 279.287 148.324 290.916L152.244 370.829C152.835 382.895 143.213 393.002 131.133 393.002C120.004 393.002 110.782 384.372 110.043 373.268L104.73 293.435C103.892 280.834 113.887 270.152 126.516 270.152Z" fill="url(#paint4_linear_301_9283)" stroke="url(#paint5_linear_301_9283)" stroke-width="4.11393"/>
<g filter="url(#filter1_d_301_9283)">
<path d="M203.578 285.306C217.376 282.823 231.176 289.863 236.11 302.986C247.232 332.57 257.891 371.942 252.741 385.602C247.086 400.599 229.707 407.977 218.259 410.649L218.264 410.678C217.479 410.858 216.616 411.032 215.685 411.192C214.758 411.366 213.888 411.504 213.089 411.609L213.084 411.581C201.423 413.068 182.562 412.212 172.033 400.128C162.443 389.122 158.704 348.504 158.813 316.898C158.862 302.879 169.341 291.468 183.139 288.985L203.578 285.306Z" fill="url(#paint6_linear_301_9283)"/>
<g filter="url(#filter2_d_301_9283)">
<rect width="27.0321" height="22.5838" rx="3.0796" transform="matrix(-0.984185 0.177142 0.177142 0.984185 216.63 316.903)" fill="url(#paint7_linear_301_9283)"/>
<rect x="0.414229" y="-0.596071" width="28.0586" height="23.6103" rx="3.59287" transform="matrix(-0.984185 0.177142 0.177142 0.984185 217.557 316.821)" stroke="#EFF2F3" stroke-width="1.02653"/>
</g>
<path d="M201.507 329.323L201.475 329.329C201.888 327.867 203.059 326.705 204.602 326.428C205.597 326.249 206.576 326.468 207.385 326.975L207.41 326.971L208.989 326.687C207.807 325.484 206.112 324.866 204.377 325.178C201.73 325.655 199.924 328.129 200.11 330.865L203.441 330.265L203.665 331.514L200.334 332.114L200.337 332.123C200.463 332.545 200.635 332.943 200.845 333.311L203.89 332.764L204.462 335.943C204.868 336.022 205.287 336.051 205.712 336.027L205.086 332.549L206.282 332.333L206.908 335.812C207.314 335.687 207.697 335.513 208.05 335.298L207.478 332.118L210.522 331.57C210.624 330.949 210.624 330.297 210.505 329.638C210.386 328.979 210.16 328.368 209.847 327.822L209.139 327.95L201.507 329.323ZM206.057 331.084L204.861 331.299L204.636 330.05L205.832 329.835L206.057 331.084ZM209.377 330.486L207.253 330.869L207.028 329.619L209.152 329.237C209.219 329.436 209.271 329.641 209.31 329.854C209.348 330.066 209.37 330.277 209.377 330.486Z" fill="#9FF9FF"/>
<path d="M203.921 322.668C199.744 323.42 196.994 327.566 197.779 331.929C198.564 336.291 202.587 339.219 206.765 338.467C210.942 337.715 213.691 333.569 212.906 329.206C212.121 324.843 208.098 321.916 203.921 322.668ZM206.539 337.216C203.024 337.848 199.638 335.385 198.977 331.713C198.316 328.041 200.631 324.552 204.146 323.919C207.662 323.286 211.047 325.75 211.708 329.422C212.369 333.093 210.055 336.583 206.539 337.216Z" fill="#9FF9FF"/>
<g filter="url(#filter3_d_301_9283)">
<ellipse rx="2.76388" ry="4.73861" transform="matrix(-0.984185 0.177142 0.177142 0.984185 232.988 318.883)" fill="url(#paint8_radial_301_9283)"/>
<path d="M233.919 324.052C232.913 324.233 231.971 323.685 231.268 322.86C230.555 322.024 230.008 320.824 229.763 319.463C229.518 318.102 229.613 316.787 229.989 315.755C230.361 314.737 231.053 313.895 232.058 313.714C233.063 313.533 234.005 314.081 234.709 314.906C235.422 315.742 235.969 316.941 236.214 318.302C236.459 319.663 236.364 320.978 235.988 322.01C235.616 323.029 234.924 323.871 233.919 324.052Z" stroke="#EFF2F3" stroke-width="1.02653"/>
</g>
<g filter="url(#filter4_d_301_9283)">
<ellipse rx="2.76388" ry="4.73861" transform="matrix(-0.984185 0.177142 0.177142 0.984185 235.292 331.681)" fill="url(#paint9_radial_301_9283)"/>
<path d="M236.222 336.85C235.217 337.031 234.275 336.483 233.572 335.658C232.859 334.822 232.312 333.623 232.067 332.261C231.822 330.9 231.916 329.585 232.293 328.553C232.665 327.535 233.356 326.693 234.362 326.512C235.367 326.331 236.309 326.879 237.013 327.704C237.725 328.54 238.272 329.739 238.517 331.1C238.762 332.462 238.668 333.776 238.291 334.808C237.92 335.827 237.228 336.669 236.222 336.85Z" stroke="#EFF2F3" stroke-width="1.02653"/>
</g>
<path d="M222.664 398.143L219.732 381.287L253.443 375.423L256.375 392.279L222.664 398.143ZM261.198 454.646C260.741 464.084 252.719 471.364 243.281 470.907C233.844 470.45 226.563 462.428 227.021 452.99L261.198 454.646ZM256.375 392.279C258.59 405.009 262.084 436.366 261.198 454.646L227.021 452.99C227.733 438.3 224.681 409.741 222.664 398.143L256.375 392.279Z" fill="white"/>
<path d="M170.281 407.571L167.349 390.716L201.06 384.851L203.992 401.707L170.281 407.571ZM208.816 464.075C208.358 473.512 200.337 480.793 190.899 480.335C181.461 479.878 174.181 471.856 174.638 462.418L208.816 464.075ZM203.992 401.707C206.207 414.437 209.702 445.794 208.816 464.075L174.638 462.418C175.35 447.728 172.298 419.169 170.281 407.571L203.992 401.707Z" fill="white"/>
<path d="M248.044 390.757C237.976 401.388 209.918 418.785 178.233 403.322" stroke="#C7D2D7" stroke-opacity="0.3" stroke-width="5.81703" stroke-linecap="round"/>
<path d="M249.844 412.769C246.184 414.534 241.84 416.772 230.478 417.885" stroke="#C7D2D7" stroke-opacity="0.3" stroke-width="5.81703" stroke-linecap="round"/>
<path d="M200.93 424.772C197.038 425.943 192.398 427.473 181.002 426.794" stroke="#C7D2D7" stroke-opacity="0.3" stroke-width="5.81703" stroke-linecap="round"/>
<path d="M248.951 426.975C247.191 427.851 245.102 428.96 239.61 429.567" stroke="#C7D2D7" stroke-opacity="0.3" stroke-width="5.81703" stroke-linecap="round"/>
<path d="M196.755 437.458C194.845 437.926 192.564 438.55 187.072 437.938" stroke="#C7D2D7" stroke-opacity="0.3" stroke-width="5.81703" stroke-linecap="round"/>
</g>
<g filter="url(#filter5_d_301_9283)">
<path d="M187.662 298.085C153.986 292.909 130.883 261.413 136.059 227.738C141.235 194.063 172.731 170.96 206.406 176.136C240.082 181.312 263.185 212.807 258.009 246.483C252.832 280.158 221.337 303.261 187.662 298.085Z" fill="url(#paint10_radial_301_9283)"/>
<path d="M230.782 271.509C233.556 272.684 236.779 272.015 238.827 269.791C245.711 262.361 252.364 248.862 252.475 239.475C252.939 203.429 201.698 189.477 187.118 217.736C180.413 230.77 183.36 244.081 184.952 249.693C185.468 251.478 186.779 252.97 188.499 253.692L230.782 271.509Z" fill="url(#paint11_linear_301_9283)"/>
<g style="mix-blend-mode:multiply">
<path d="M186.761 217.641C194.12 203.334 210.879 199.877 225.551 204.587C213.96 203.929 227.95 227.966 222.26 238.992C215.555 252.026 193.197 245.885 194.783 251.538C195.299 253.323 196.61 254.814 198.33 255.536L236.038 271.444C234.297 272.216 232.255 272.236 230.419 271.454L188.136 253.637C186.416 252.915 185.106 251.423 184.589 249.638C183.003 243.985 180.009 230.709 186.761 217.641Z" fill="url(#paint12_radial_301_9283)"/>
</g>
<path d="M240.695 222.818C242.95 224.64 249.799 238.505 241.461 251.048" stroke="white" stroke-width="6.97562" stroke-linecap="round"/>
</g>
<g filter="url(#filter6_d_301_9283)">
<path d="M173.772 321.777C177.394 337.573 191.091 351.948 204.165 357.532C213.759 361.629 228.967 364.644 244.279 357.599" stroke="url(#paint13_linear_301_9283)" stroke-width="24.6368" stroke-linecap="round"/>
<path d="M206.358 349.76C205.584 352.606 204.766 356.082 199.249 361.903" stroke="#C7D2D7" stroke-opacity="0.3" stroke-width="5.81703" stroke-linecap="round"/>
<path d="M196.626 345.252C196.187 347.012 195.748 349.215 191.899 351.161" stroke="#C7D2D7" stroke-opacity="0.3" stroke-width="5.81703" stroke-linecap="round"/>
<path d="M214.387 354.501C214.664 356.146 215.09 358.143 212.995 361.865" stroke="#C7D2D7" stroke-opacity="0.3" stroke-width="5.81703" stroke-linecap="round"/>
</g>
<path fill-rule="evenodd" clip-rule="evenodd" d="M259.782 452.683C252.238 453.072 239.937 452.687 228.098 449.371C226.06 448.8 223.972 450.29 223.972 452.407V480.828C223.972 481.159 224.022 481.487 224.127 481.792C224.051 484.497 223.945 490.684 224.127 493.955C224.309 497.234 229.06 500.33 231.413 501.468C233.842 504.428 242 510.303 255.206 510.121C268.412 509.938 272.169 507.388 272.396 506.136C272.396 507.199 272.396 507.525 272.396 500.33C272.396 495.586 264.41 490.416 256.337 486.53C256.379 486.414 256.413 486.295 256.441 486.174L263.174 456.599C263.647 454.518 261.913 452.573 259.782 452.683Z" fill="#282522"/>
<path d="M247.044 500.193C258.588 503.757 267.608 501.678 270.674 500.193C272.611 496.707 261.251 488.838 254.695 487.41C244.913 485.28 239.332 486.598 236.488 489.443C232.614 493.318 235.5 496.629 247.044 500.193Z" fill="url(#paint14_linear_301_9283)"/>
<path fill-rule="evenodd" clip-rule="evenodd" d="M174.633 453.321C182.068 454.103 194.213 454.371 206.062 451.736C208.128 451.277 210.134 452.877 210.02 454.991L208.51 483.047C208.492 483.376 208.425 483.699 208.305 483.997C208.236 486.673 208.011 492.804 207.657 496.032C207.302 499.265 202.439 502.075 200.051 503.075C197.492 505.874 189.11 511.249 176.059 510.366C163.008 509.483 159.429 506.761 159.27 505.51C159.214 506.561 159.196 506.884 159.579 499.768C159.832 495.076 168.006 490.387 176.198 486.974C176.161 486.853 176.132 486.729 176.11 486.602L171.036 457.05C170.674 454.947 172.51 453.098 174.633 453.321Z" fill="#282522"/>
<path d="M184.661 500.982C173.055 503.892 164.245 501.356 161.291 499.724C159.561 496.173 171.215 488.996 177.775 487.933C187.562 486.346 193.012 487.947 195.674 490.912C199.299 494.951 196.268 498.072 184.661 500.982Z" fill="url(#paint15_linear_301_9283)"/>
<g filter="url(#filter7_f_301_9283)">
<ellipse cx="288.827" cy="509.938" rx="182.463" ry="10.7724" fill="url(#paint16_radial_301_9283)" fill-opacity="0.5"/>
</g>
<g clip-path="url(#clip0_301_9283)">
<path d="M463.221 240.396C461.689 237.983 459.673 235.843 457.071 234.245L359.838 191.472C347.213 186.126 341.735 187.427 333.042 197.835L265.774 279.669C264.169 282.267 263.324 285.086 263.04 287.93L383.713 351.62L463.221 240.396Z" fill="url(#paint17_linear_301_9283)"/>
<path d="M274.579 225.831L424.837 190.152L454.489 315.025L304.231 350.704L274.579 225.831Z" fill="white"/>
<path d="M300.868 402.055L374.049 311.033L480.571 359.389C483.494 356.908 485.601 353.637 486.652 349.958L386.529 303.874C374.011 298.562 368.378 299.768 359.733 310.237L291.123 396.275C293.718 399.129 297.093 401.144 300.868 402.055Z" fill="#E8AB54"/>
<path d="M380.843 339.108L463.223 240.394L488.428 346.541C490.885 356.887 484.468 367.269 474.094 369.733L311.315 408.386C300.94 410.849 290.541 404.46 288.084 394.114L262.879 287.967L380.843 339.108Z" fill="url(#paint18_linear_301_9283)"/>
<path d="M476.047 369.052C480.002 367.657 483.269 365.094 485.513 361.817L374.048 311.026L297.534 406.454C301.02 408.377 305.083 409.193 309.256 408.664L476.047 369.052Z" fill="url(#paint19_linear_301_9283)"/>
<path d="M292.605 402.519C295.201 405.372 298.582 407.385 302.352 408.304L375.535 317.289L482.055 365.639C484.978 363.158 487.085 359.887 488.136 356.207L388.009 310.105C374.108 304.178 371.146 304.459 361.213 316.468L292.605 402.519Z" fill="#F9D7A7"/>
<circle cx="364.539" cy="261.816" r="29.4196" transform="rotate(-13.8869 364.539 261.816)" fill="#ED9C29"/>
<g filter="url(#filter8_d_301_9283)">
<rect x="373.312" y="258.634" width="15.4288" height="3.54445" rx="1.77223" transform="rotate(-13.8869 373.312 258.634)" fill="white"/>
<rect x="376.395" y="264.774" width="15.4288" height="3.54445" rx="1.77223" transform="rotate(-65.3259 376.395 264.774)" fill="white"/>
<rect x="385.202" y="265.347" width="15.4288" height="3.54445" rx="1.77223" transform="rotate(-133.098 385.202 265.347)" fill="white"/>
</g>
<g filter="url(#filter9_d_301_9283)">
<rect x="356.545" y="262.796" width="15.4288" height="3.54445" rx="1.77223" transform="rotate(-13.8869 356.545 262.796)" fill="white"/>
<rect x="359.628" y="268.937" width="15.4288" height="3.54445" rx="1.77223" transform="rotate(-65.3259 359.628 268.937)" fill="white"/>
<rect x="368.436" y="269.51" width="15.4288" height="3.54445" rx="1.77223" transform="rotate(-133.098 368.436 269.51)" fill="white"/>
</g>
<g filter="url(#filter10_d_301_9283)">
<rect x="340.346" y="266.771" width="15.4288" height="3.54445" rx="1.77223" transform="rotate(-13.8869 340.346 266.771)" fill="white"/>
<rect x="343.429" y="272.912" width="15.4288" height="3.54445" rx="1.77223" transform="rotate(-65.3259 343.429 272.912)" fill="white"/>
<rect x="352.236" y="273.485" width="15.4288" height="3.54445" rx="1.77223" transform="rotate(-133.098 352.236 273.485)" fill="white"/>
</g>
</g>
<path d="M243.707 364.041C243.37 369.743 248.348 374.254 253.946 373.322L264.556 371.555C265.856 371.339 267.053 370.846 268.091 370.142C294.944 367.743 303.073 360.285 304.127 353.469C303.385 346.212 294.939 350.687 286.371 348.563C285.953 348.46 285.542 348.358 285.137 348.256C290.175 347.867 291.284 344.583 289.39 342.185C287.604 339.923 280.319 341.281 273.135 343.596C272.174 344.006 270.94 344.585 269.59 345.312C268.406 344.067 266.856 343.164 265.083 342.781L255.385 340.689C250.049 339.538 244.919 343.48 244.595 348.979L243.707 364.041Z" fill="#282522"/>
<defs>
<filter id="filter0_d_301_9283" x="208.378" y="252.52" width="111.199" height="118.341" filterUnits="userSpaceOnUse" color-interpolation-filters="sRGB">
<feFlood flood-opacity="0" result="BackgroundImageFix"/>
<feColorMatrix in="SourceAlpha" type="matrix" values="0 0 0 0 0 0 0 0 0 0 0 0 0 0 0 0 0 0 127 0" result="hardAlpha"/>
<feOffset dy="1.36871"/>
<feGaussianBlur stdDeviation="0.684356"/>
<feComposite in2="hardAlpha" operator="out"/>
<feColorMatrix type="matrix" values="0 0 0 0 0 0 0 0 0 0 0 0 0 0 0 0 0 0 0.25 0"/>
<feBlend mode="normal" in2="BackgroundImageFix" result="effect1_dropShadow_301_9283"/>
<feBlend mode="normal" in="SourceGraphic" in2="effect1_dropShadow_301_9283" result="shape"/>
</filter>
<filter id="filter1_d_301_9283" x="142.822" y="279.084" width="130.397" height="206.891" filterUnits="userSpaceOnUse" color-interpolation-filters="sRGB">
<feFlood flood-opacity="0" result="BackgroundImageFix"/>
<feColorMatrix in="SourceAlpha" type="matrix" values="0 0 0 0 0 0 0 0 0 0 0 0 0 0 0 0 0 0 127 0" result="hardAlpha"/>
<feOffset dy="1.36871"/>
<feGaussianBlur stdDeviation="0.684356"/>
<feComposite in2="hardAlpha" operator="out"/>
<feColorMatrix type="matrix" values="0 0 0 0 0 0 0 0 0 0 0 0 0 0 0 0 0 0 0.25 0"/>
<feBlend mode="normal" in2="BackgroundImageFix" result="effect1_dropShadow_301_9283"/>
<feBlend mode="normal" in="SourceGraphic" in2="effect1_dropShadow_301_9283" result="shape"/>
</filter>
<filter id="filter2_d_301_9283" x="188.126" y="316.373" width="34.4034" height="30.8134" filterUnits="userSpaceOnUse" color-interpolation-filters="sRGB">
<feFlood flood-opacity="0" result="BackgroundImageFix"/>
<feColorMatrix in="SourceAlpha" type="matrix" values="0 0 0 0 0 0 0 0 0 0 0 0 0 0 0 0 0 0 127 0" result="hardAlpha"/>
<feOffset dy="1.36871"/>
<feGaussianBlur stdDeviation="0.684356"/>
<feComposite in2="hardAlpha" operator="out"/>
<feColorMatrix type="matrix" values="0 0 0 0 0 0 0 0 0 0 0 0 0 0 0 0 0 0 0.25 0"/>
<feBlend mode="normal" in2="BackgroundImageFix" result="effect1_dropShadow_301_9283"/>
<feBlend mode="normal" in="SourceGraphic" in2="effect1_dropShadow_301_9283" result="shape"/>
</filter>
<filter id="filter3_d_301_9283" x="227.746" y="313.166" width="10.4855" height="14.1718" filterUnits="userSpaceOnUse" color-interpolation-filters="sRGB">
<feFlood flood-opacity="0" result="BackgroundImageFix"/>
<feColorMatrix in="SourceAlpha" type="matrix" values="0 0 0 0 0 0 0 0 0 0 0 0 0 0 0 0 0 0 127 0" result="hardAlpha"/>
<feOffset dy="1.36871"/>
<feGaussianBlur stdDeviation="0.684356"/>
<feComposite in2="hardAlpha" operator="out"/>
<feColorMatrix type="matrix" values="0 0 0 0 0 0 0 0 0 0 0 0 0 0 0 0 0 0 0.25 0"/>
<feBlend mode="normal" in2="BackgroundImageFix" result="effect1_dropShadow_301_9283"/>
<feBlend mode="normal" in="SourceGraphic" in2="effect1_dropShadow_301_9283" result="shape"/>
</filter>
<filter id="filter4_d_301_9283" x="230.049" y="325.964" width="10.4855" height="14.1718" filterUnits="userSpaceOnUse" color-interpolation-filters="sRGB">
<feFlood flood-opacity="0" result="BackgroundImageFix"/>
<feColorMatrix in="SourceAlpha" type="matrix" values="0 0 0 0 0 0 0 0 0 0 0 0 0 0 0 0 0 0 127 0" result="hardAlpha"/>
<feOffset dy="1.36871"/>
<feGaussianBlur stdDeviation="0.684356"/>
<feComposite in2="hardAlpha" operator="out"/>
<feColorMatrix type="matrix" values="0 0 0 0 0 0 0 0 0 0 0 0 0 0 0 0 0 0 0.25 0"/>
<feBlend mode="normal" in2="BackgroundImageFix" result="effect1_dropShadow_301_9283"/>
<feBlend mode="normal" in="SourceGraphic" in2="effect1_dropShadow_301_9283" result="shape"/>
</filter>
<filter id="filter5_d_301_9283" x="125.318" y="166.763" width="143.432" height="143.432" filterUnits="userSpaceOnUse" color-interpolation-filters="sRGB">
<feFlood flood-opacity="0" result="BackgroundImageFix"/>
<feColorMatrix in="SourceAlpha" type="matrix" values="0 0 0 0 0 0 0 0 0 0 0 0 0 0 0 0 0 0 127 0" result="hardAlpha"/>
<feOffset dy="1.36871"/>
<feGaussianBlur stdDeviation="0.684356"/>
<feComposite in2="hardAlpha" operator="out"/>
<feColorMatrix type="matrix" values="0 0 0 0 0 0 0 0 0 0 0 0 0 0 0 0 0 0 0.25 0"/>
<feBlend mode="normal" in2="BackgroundImageFix" result="effect1_dropShadow_301_9283"/>
<feBlend mode="normal" in="SourceGraphic" in2="effect1_dropShadow_301_9283" result="shape"/>
</filter>
<filter id="filter6_d_301_9283" x="159.921" y="308.453" width="98.5197" height="69.3895" filterUnits="userSpaceOnUse" color-interpolation-filters="sRGB">
<feFlood flood-opacity="0" result="BackgroundImageFix"/>
<feColorMatrix in="SourceAlpha" type="matrix" values="0 0 0 0 0 0 0 0 0 0 0 0 0 0 0 0 0 0 127 0" result="hardAlpha"/>
<feOffset dy="1.36871"/>
<feGaussianBlur stdDeviation="0.684356"/>
<feComposite in2="hardAlpha" operator="out"/>
<feColorMatrix type="matrix" values="0 0 0 0 0 0 0 0 0 0 0 0 0 0 0 0 0 0 0.25 0"/>
<feBlend mode="normal" in2="BackgroundImageFix" result="effect1_dropShadow_301_9283"/>
<feBlend mode="normal" in="SourceGraphic" in2="effect1_dropShadow_301_9283" result="shape"/>
</filter>
<filter id="filter7_f_301_9283" x="100.041" y="492.842" width="377.572" height="34.1912" filterUnits="userSpaceOnUse" color-interpolation-filters="sRGB">
<feFlood flood-opacity="0" result="BackgroundImageFix"/>
<feBlend mode="normal" in="SourceGraphic" in2="BackgroundImageFix" result="shape"/>
<feGaussianBlur stdDeviation="3.16158" result="effect1_foregroundBlur_301_9283"/>
</filter>
<filter id="filter8_d_301_9283" x="372.674" y="251.332" width="17.1023" height="16.365" filterUnits="userSpaceOnUse" color-interpolation-filters="sRGB">
<feFlood flood-opacity="0" result="BackgroundImageFix"/>
<feColorMatrix in="SourceAlpha" type="matrix" values="0 0 0 0 0 0 0 0 0 0 0 0 0 0 0 0 0 0 127 0" result="hardAlpha"/>
<feOffset dy="1.01011"/>
<feGaussianBlur stdDeviation="0.505057"/>
<feComposite in2="hardAlpha" operator="out"/>
<feColorMatrix type="matrix" values="0 0 0 0 0 0 0 0 0 0 0 0 0 0 0 0 0 0 0.25 0"/>
<feBlend mode="normal" in2="BackgroundImageFix" result="effect1_dropShadow_301_9283"/>
<feBlend mode="normal" in="SourceGraphic" in2="effect1_dropShadow_301_9283" result="shape"/>
</filter>
<filter id="filter9_d_301_9283" x="355.908" y="255.494" width="17.1023" height="16.365" filterUnits="userSpaceOnUse" color-interpolation-filters="sRGB">
<feFlood flood-opacity="0" result="BackgroundImageFix"/>
<feColorMatrix in="SourceAlpha" type="matrix" values="0 0 0 0 0 0 0 0 0 0 0 0 0 0 0 0 0 0 127 0" result="hardAlpha"/>
<feOffset dy="1.01011"/>
<feGaussianBlur stdDeviation="0.505057"/>
<feComposite in2="hardAlpha" operator="out"/>
<feColorMatrix type="matrix" values="0 0 0 0 0 0 0 0 0 0 0 0 0 0 0 0 0 0 0.25 0"/>
<feBlend mode="normal" in2="BackgroundImageFix" result="effect1_dropShadow_301_9283"/>
<feBlend mode="normal" in="SourceGraphic" in2="effect1_dropShadow_301_9283" result="shape"/>
</filter>
<filter id="filter10_d_301_9283" x="339.709" y="259.469" width="17.1023" height="16.365" filterUnits="userSpaceOnUse" color-interpolation-filters="sRGB">
<feFlood flood-opacity="0" result="BackgroundImageFix"/>
<feColorMatrix in="SourceAlpha" type="matrix" values="0 0 0 0 0 0 0 0 0 0 0 0 0 0 0 0 0 0 127 0" result="hardAlpha"/>
<feOffset dy="1.01011"/>
<feGaussianBlur stdDeviation="0.505057"/>
<feComposite in2="hardAlpha" operator="out"/>
<feColorMatrix type="matrix" values="0 0 0 0 0 0 0 0 0 0 0 0 0 0 0 0 0 0 0.25 0"/>
<feBlend mode="normal" in2="BackgroundImageFix" result="effect1_dropShadow_301_9283"/>
<feBlend mode="normal" in="SourceGraphic" in2="effect1_dropShadow_301_9283" result="shape"/>
</filter>
<linearGradient id="paint0_linear_301_9283" x1="172.552" y1="-58.3465" x2="354.561" y2="498.492" gradientUnits="userSpaceOnUse">
<stop stop-color="#FFA318"/>
<stop offset="1" stop-color="#FFA318" stop-opacity="0"/>
</linearGradient>
<linearGradient id="paint1_linear_301_9283" x1="245.195" y1="280.394" x2="279.277" y2="328.853" gradientUnits="userSpaceOnUse">
<stop stop-color="#EFF2F3"/>
<stop offset="1" stop-color="white"/>
</linearGradient>
<linearGradient id="paint2_linear_301_9283" x1="155.448" y1="497.498" x2="154.283" y2="284.924" gradientUnits="userSpaceOnUse">
<stop stop-color="#C0CDD2"/>
<stop offset="0.936289" stop-color="white"/>
</linearGradient>
<linearGradient id="paint3_linear_301_9283" x1="160.462" y1="272.209" x2="160.462" y2="390.945" gradientUnits="userSpaceOnUse">
<stop stop-color="white"/>
<stop offset="1" stop-color="#A9C6D1"/>
</linearGradient>
<linearGradient id="paint4_linear_301_9283" x1="134.231" y1="424.058" x2="111.983" y2="286.785" gradientUnits="userSpaceOnUse">
<stop stop-color="#C0CDD2"/>
<stop offset="0.936289" stop-color="white"/>
</linearGradient>
<linearGradient id="paint5_linear_301_9283" x1="125.363" y1="272.209" x2="125.363" y2="390.945" gradientUnits="userSpaceOnUse">
<stop stop-color="white"/>
<stop offset="1" stop-color="#A9C6D1"/>
</linearGradient>
<linearGradient id="paint6_linear_301_9283" x1="193.358" y1="287.145" x2="215.686" y2="411.193" gradientUnits="userSpaceOnUse">
<stop stop-color="#E3E9EB"/>
<stop offset="0.56737" stop-color="white"/>
</linearGradient>
<linearGradient id="paint7_linear_301_9283" x1="13.516" y1="-28.818" x2="13.516" y2="22.5838" gradientUnits="userSpaceOnUse">
<stop stop-color="#50D5FF"/>
<stop offset="1" stop-color="#2C3585"/>
</linearGradient>
<radialGradient id="paint8_radial_301_9283" cx="0" cy="0" r="1" gradientUnits="userSpaceOnUse" gradientTransform="translate(2.76388 4.73861) rotate(90) scale(6.90529 4.02763)">
<stop stop-color="#51E0FF"/>
<stop offset="1" stop-color="#4E7CB4"/>
</radialGradient>
<radialGradient id="paint9_radial_301_9283" cx="0" cy="0" r="1" gradientUnits="userSpaceOnUse" gradientTransform="translate(2.76388 4.73861) rotate(90) scale(6.90529 4.02763)">
<stop stop-color="#FFB3B3"/>
<stop offset="1" stop-color="#F20000"/>
</radialGradient>
<radialGradient id="paint10_radial_301_9283" cx="0" cy="0" r="1" gradientUnits="userSpaceOnUse" gradientTransform="translate(164.507 315.833) rotate(-171.262) scale(103.137)">
<stop offset="0.381" stop-color="#BFCCD1"/>
<stop offset="0.7578" stop-color="white"/>
</radialGradient>
<linearGradient id="paint11_linear_301_9283" x1="252.35" y1="241.609" x2="183.089" y2="230.963" gradientUnits="userSpaceOnUse">
<stop stop-color="#FFF668"/>
<stop offset="0.29" stop-color="#FF9C4C"/>
<stop offset="1" stop-color="#880000"/>
</linearGradient>
<radialGradient id="paint12_radial_301_9283" cx="0" cy="0" r="1" gradientUnits="userSpaceOnUse" gradientTransform="translate(221.254 248.533) rotate(-171.262) scale(55.1546)">
<stop stop-color="white"/>
<stop offset="0.9385" stop-color="#880000"/>
</radialGradient>
<linearGradient id="paint13_linear_301_9283" x1="173.919" y1="343.987" x2="233.16" y2="343.391" gradientUnits="userSpaceOnUse">
<stop stop-color="#EFF2F3"/>
<stop offset="1" stop-color="white"/>
</linearGradient>
<linearGradient id="paint14_linear_301_9283" x1="255.082" y1="482.278" x2="249.078" y2="497.192" gradientUnits="userSpaceOnUse">
<stop stop-color="#504A44"/>
<stop offset="1" stop-color="#504A44" stop-opacity="0"/>
</linearGradient>
<linearGradient id="paint15_linear_301_9283" x1="177.665" y1="482.836" x2="182.81" y2="497.906" gradientUnits="userSpaceOnUse">
<stop stop-color="#504A44"/>
<stop offset="1" stop-color="#504A44" stop-opacity="0"/>
</linearGradient>
<radialGradient id="paint16_radial_301_9283" cx="0" cy="0" r="1" gradientUnits="userSpaceOnUse" gradientTransform="translate(288.827 509.937) rotate(90) scale(10.7724 182.463)">
<stop stop-color="#021B51"/>
<stop offset="1" stop-color="#75758F" stop-opacity="0"/>
</radialGradient>
<linearGradient id="paint17_linear_301_9283" x1="345.209" y1="188.688" x2="383.888" y2="351.579" gradientUnits="userSpaceOnUse">
<stop stop-color="#B14A00"/>
<stop offset="1" stop-color="#D07C40"/>
</linearGradient>
<linearGradient id="paint18_linear_301_9283" x1="363.051" y1="264.18" x2="392.704" y2="389.059" gradientUnits="userSpaceOnUse">
<stop offset="0.349318" stop-color="#ED9C29"/>
<stop offset="1" stop-color="#FCCB85"/>
</linearGradient>
<linearGradient id="paint19_linear_301_9283" x1="374.157" y1="311" x2="392.646" y2="388.862" gradientUnits="userSpaceOnUse">
<stop stop-color="#F4B459"/>
<stop offset="1" stop-color="#F7C887"/>
</linearGradient>
<clipPath id="clip0_301_9283">
<rect width="205.914" height="205.914" fill="white" transform="translate(244.957 212.496) rotate(-13.3579)"/>
</clipPath>
</defs>
</svg>
