<svg width="163" height="58" viewBox="0 0 163 58" fill="none" xmlns="http://www.w3.org/2000/svg">
<g filter="url(#filter0_d)">
<rect x="4.41943" width="153.969" height="50" rx="25" fill="white"/>
</g>
<path d="M43.1894 24.6998C43.1894 28.0438 45.6374 30.3958 48.8534 30.3958C51.3334 30.3958 53.3494 29.0838 54.1014 26.7798H51.5254C50.9974 27.8678 50.0374 28.3958 48.8374 28.3958C46.8854 28.3958 45.4934 26.9558 45.4934 24.6998C45.4934 22.4278 46.8854 21.0038 48.8374 21.0038C50.0374 21.0038 50.9974 21.5318 51.5254 22.6038H54.1014C53.3494 20.3158 51.3334 18.9878 48.8534 18.9878C45.6374 18.9878 43.1894 21.3558 43.1894 24.6998ZM64.7346 25.8678C64.7346 23.0678 62.7346 21.2918 60.1746 21.2918C57.6146 21.2918 55.6146 23.0678 55.6146 25.8678C55.6146 28.6518 57.5506 30.4438 60.1106 30.4438C62.6866 30.4438 64.7346 28.6518 64.7346 25.8678ZM57.8866 25.8678C57.8866 24.0918 58.9586 23.2438 60.1426 23.2438C61.3266 23.2438 62.4306 24.0918 62.4306 25.8678C62.4306 27.6278 61.2946 28.4918 60.1106 28.4918C58.9106 28.4918 57.8866 27.6278 57.8866 25.8678ZM72.7457 30.2998H74.9857V25.0998C74.9857 22.6518 73.5137 21.3078 71.4497 21.3078C70.3137 21.3078 69.3537 21.7878 68.7777 22.5398V21.4358H66.5377V30.2998H68.7777V25.4038C68.7777 23.9798 69.5617 23.2118 70.7777 23.2118C71.9617 23.2118 72.7457 23.9798 72.7457 25.4038V30.2998ZM76.3319 21.4358L79.5959 30.2998H82.3159L85.5959 21.4358H83.2119L80.9719 28.2358L78.7319 21.4358H76.3319ZM90.822 23.1318C91.974 23.1318 92.902 23.8678 92.934 25.0358H88.726C88.902 23.8198 89.75 23.1318 90.822 23.1318ZM95.03 27.5158H92.614C92.326 28.1078 91.798 28.5878 90.838 28.5878C89.718 28.5878 88.822 27.8518 88.71 26.5398H95.19C95.238 26.2518 95.254 25.9638 95.254 25.6758C95.254 23.0358 93.446 21.2918 90.886 21.2918C88.262 21.2918 86.438 23.0678 86.438 25.8678C86.438 28.6518 88.31 30.4438 90.886 30.4438C93.078 30.4438 94.55 29.1478 95.03 27.5158ZM99.289 25.8838C99.289 24.1718 100.089 23.6598 101.417 23.6598H102.009V21.3078C100.777 21.3078 99.849 21.8998 99.289 22.8118V21.4358H97.049V30.2998H99.289V25.8838ZM104.03 27.5478C104.03 29.5798 105.166 30.2998 106.862 30.2998H108.27V28.4118H107.23C106.526 28.4118 106.286 28.1558 106.286 27.5638V23.2758H108.27V21.4358H106.286V19.2438H104.03V21.4358H102.974V23.2758H104.03V27.5478ZM110.041 30.2998H112.281V21.4358H110.041V30.2998ZM111.177 20.3798C111.961 20.3798 112.553 19.8038 112.553 19.0678C112.553 18.3318 111.961 17.7558 111.177 17.7558C110.377 17.7558 109.801 18.3318 109.801 19.0678C109.801 19.8038 110.377 20.3798 111.177 20.3798ZM116.894 25.8838C116.894 24.1718 117.694 23.6598 119.022 23.6598H119.614V21.3078C118.382 21.3078 117.454 21.8998 116.894 22.8118V21.4358H114.654V30.2998H116.894V25.8838Z" fill="#4048FF"/>
<defs>
<filter id="filter0_d" x="0.419434" y="0" width="161.969" height="58" filterUnits="userSpaceOnUse" color-interpolation-filters="sRGB">
<feFlood flood-opacity="0" result="BackgroundImageFix"/>
<feColorMatrix in="SourceAlpha" type="matrix" values="0 0 0 0 0 0 0 0 0 0 0 0 0 0 0 0 0 0 127 0"/>
<feOffset dy="4"/>
<feGaussianBlur stdDeviation="2"/>
<feColorMatrix type="matrix" values="0 0 0 0 0 0 0 0 0 0 0 0 0 0 0 0 0 0 0.25 0"/>
<feBlend mode="normal" in2="BackgroundImageFix" result="effect1_dropShadow"/>
<feBlend mode="normal" in="SourceGraphic" in2="effect1_dropShadow" result="shape"/>
</filter>
</defs>
</svg>
