<svg width="53" height="53" viewBox="0 0 53 53" fill="none" xmlns="http://www.w3.org/2000/svg">
<g filter="url(#filter0_d)">
<rect x="2.50293" y="0.639648" width="48" height="48" rx="24" fill="white"/>
</g>
<path d="M39.6138 20.9792L34.2128 15.5782C34.0869 15.4524 33.9375 15.3525 33.773 15.2844C33.6085 15.2162 33.4322 15.1812 33.2542 15.1812C32.8946 15.1812 32.5497 15.324 32.2955 15.5782C32.0412 15.8325 31.8984 16.1773 31.8984 16.5369C31.8984 16.8965 32.0412 17.2413 32.2955 17.4956L35.401 20.5877H19.7517C19.3936 20.5877 19.0502 20.7299 18.7969 20.9831C18.5437 21.2364 18.4015 21.5798 18.4015 21.9379C18.4015 22.296 18.5437 22.6394 18.7969 22.8927C19.0502 23.1459 19.3936 23.2881 19.7517 23.2881H38.6551C38.9217 23.2868 39.1819 23.2066 39.403 23.0576C39.624 22.9087 39.7961 22.6976 39.8974 22.451C40.0008 22.2051 40.029 21.9341 39.9785 21.6722C39.9281 21.4102 39.8012 21.1691 39.6138 20.9792ZM33.2542 25.9886H14.3507C14.0842 25.99 13.8239 26.0702 13.6029 26.2192C13.3818 26.3681 13.2098 26.5792 13.1085 26.8258C13.0051 27.0717 12.9768 27.3427 13.0273 27.6046C13.0778 27.8666 13.2047 28.1077 13.3921 28.2976L18.793 33.6985C18.9186 33.8251 19.0679 33.9255 19.2324 33.9941C19.397 34.0626 19.5735 34.0979 19.7517 34.0979C19.93 34.0979 20.1064 34.0626 20.271 33.9941C20.4355 33.9255 20.5849 33.8251 20.7104 33.6985C20.8369 33.573 20.9374 33.4237 21.0059 33.2591C21.0745 33.0946 21.1098 32.9181 21.1098 32.7399C21.1098 32.5616 21.0745 32.3851 21.0059 32.2206C20.9374 32.056 20.8369 31.9067 20.7104 31.7812L17.6048 28.6891H33.2542C33.6123 28.6891 33.9557 28.5469 34.2089 28.2937C34.4621 28.0404 34.6044 27.697 34.6044 27.3389C34.6044 26.9808 34.4621 26.6373 34.2089 26.3841C33.9557 26.1309 33.6123 25.9886 33.2542 25.9886Z" fill="#4048FF"/>
<defs>
<filter id="filter0_d" x="0.50293" y="0.639648" width="52" height="52" filterUnits="userSpaceOnUse" color-interpolation-filters="sRGB">
<feFlood flood-opacity="0" result="BackgroundImageFix"/>
<feColorMatrix in="SourceAlpha" type="matrix" values="0 0 0 0 0 0 0 0 0 0 0 0 0 0 0 0 0 0 127 0"/>
<feOffset dy="2"/>
<feGaussianBlur stdDeviation="1"/>
<feColorMatrix type="matrix" values="0 0 0 0 0 0 0 0 0 0 0 0 0 0 0 0 0 0 0.15 0"/>
<feBlend mode="normal" in2="BackgroundImageFix" result="effect1_dropShadow"/>
<feBlend mode="normal" in="SourceGraphic" in2="effect1_dropShadow" result="shape"/>
</filter>
</defs>
</svg>
