<svg width="41" height="41" viewBox="0 0 41 41" fill="none" xmlns="http://www.w3.org/2000/svg">
<circle cx="20.5" cy="20.8047" r="19.5" fill="white" stroke="#D6D6E8"/>
<path d="M23.8858 32.0464L28.8813 27.4154C28.9977 27.3074 29.0901 27.1793 29.1531 27.0383C29.2161 26.8972 29.2485 26.7461 29.2485 26.5934C29.2485 26.2851 29.1164 25.9894 28.8813 25.7714C28.6461 25.5534 28.3271 25.4309 27.9946 25.4309C27.662 25.4309 27.343 25.5534 27.1079 25.7714L24.248 28.4342L24.248 15.0159C24.248 14.7089 24.1164 14.4144 23.8822 14.1973C23.648 13.9802 23.3303 13.8582 22.9991 13.8582C22.6679 13.8582 22.3502 13.9802 22.116 14.1973C21.8818 14.4144 21.7502 14.7089 21.7502 15.0159L21.7502 31.2244C21.7515 31.4529 21.8257 31.6761 21.9635 31.8656C22.1012 32.0552 22.2965 32.2026 22.5245 32.2895C22.752 32.3782 23.0026 32.4024 23.2449 32.3591C23.4872 32.3158 23.7102 32.207 23.8858 32.0464ZM19.2525 26.5934L19.2525 10.385C19.2513 10.1564 19.1771 9.93327 19.0393 9.74372C18.9015 9.55418 18.7063 9.40668 18.4782 9.31983C18.2508 9.23117 18.0001 9.20695 17.7579 9.25022C17.5156 9.29349 17.2926 9.40231 17.117 9.56296L12.1215 14.1939C12.0045 14.3016 11.9116 14.4296 11.8482 14.5707C11.7847 14.7118 11.7521 14.8631 11.7521 15.0159C11.7521 15.1688 11.7847 15.3201 11.8482 15.4612C11.9116 15.6023 12.0045 15.7303 12.1215 15.8379C12.2376 15.9465 12.3757 16.0326 12.5279 16.0914C12.6801 16.1501 12.8433 16.1804 13.0082 16.1804C13.1731 16.1804 13.3363 16.1501 13.4885 16.0914C13.6407 16.0326 13.7788 15.9465 13.8949 15.8379L16.7548 13.1751L16.7548 26.5934C16.7548 26.9004 16.8864 27.1949 17.1206 27.412C17.3548 27.6292 17.6724 27.7511 18.0037 27.7511C18.3349 27.7511 18.6525 27.6292 18.8867 27.412C19.1209 27.1949 19.2525 26.9004 19.2525 26.5934Z" fill="#4048FF"/>
</svg>
