<svg width="144" height="56" viewBox="0 0 144 56" fill="none" xmlns="http://www.w3.org/2000/svg">
<g filter="url(#filter0_d)">
<rect x="4" width="136" height="48" rx="24" fill="white"/>
</g>
<path d="M36.9218 21.0506L32.3536 16.4824C32.2471 16.3759 32.1207 16.2914 31.9816 16.2338C31.8425 16.1761 31.6933 16.1465 31.5427 16.1465C31.2386 16.1465 30.9469 16.2673 30.7319 16.4824C30.5168 16.6974 30.396 16.9891 30.396 17.2932C30.396 17.5973 30.5168 17.889 30.7319 18.1041L33.3586 20.7194H20.1222C19.8194 20.7194 19.5289 20.8397 19.3147 21.0539C19.1005 21.268 18.9802 21.5585 18.9802 21.8614C18.9802 22.1643 19.1005 22.4548 19.3147 22.669C19.5289 22.8831 19.8194 23.0035 20.1222 23.0035H36.1109C36.3364 23.0023 36.5565 22.9345 36.7435 22.8085C36.9305 22.6825 37.076 22.5039 37.1616 22.2954C37.2491 22.0874 37.273 21.8582 37.2303 21.6366C37.1876 21.4151 37.0803 21.2112 36.9218 21.0506ZM31.5427 25.2876H15.554C15.3286 25.2887 15.1085 25.3565 14.9215 25.4825C14.7345 25.6085 14.589 25.7871 14.5034 25.9956C14.4159 26.2036 14.392 26.4328 14.4347 26.6544C14.4774 26.8759 14.5847 27.0799 14.7432 27.2405L19.3114 31.8087C19.4176 31.9157 19.5439 32.0007 19.683 32.0587C19.8222 32.1166 19.9715 32.1465 20.1222 32.1465C20.273 32.1465 20.4223 32.1166 20.5614 32.0587C20.7006 32.0007 20.8269 31.9157 20.9331 31.8087C21.0401 31.7025 21.1251 31.5762 21.1831 31.437C21.2411 31.2978 21.2709 31.1486 21.2709 30.9978C21.2709 30.847 21.2411 30.6978 21.1831 30.5586C21.1251 30.4194 21.0401 30.2931 20.9331 30.187L18.3064 27.5717H31.5427C31.8456 27.5717 32.1361 27.4513 32.3503 27.2372C32.5645 27.023 32.6848 26.7325 32.6848 26.4296C32.6848 26.1267 32.5645 25.8362 32.3503 25.6221C32.1361 25.4079 31.8456 25.2876 31.5427 25.2876Z" fill="#ADADC8"/>
<path d="M56.5374 27.5172C56.6874 27.5172 56.8134 27.5712 56.9154 27.6792L57.9864 28.8222C57.4584 29.4942 56.8014 30.0042 56.0154 30.3522C55.2354 30.7002 54.3054 30.8742 53.2254 30.8742C52.2474 30.8742 51.3684 30.7092 50.5884 30.3792C49.8084 30.0432 49.1454 29.5782 48.5994 28.9842C48.0534 28.3902 47.6334 27.6852 47.3394 26.8692C47.0454 26.0532 46.8984 25.1622 46.8984 24.1962C46.8984 23.5482 46.9674 22.9332 47.1054 22.3512C47.2494 21.7632 47.4564 21.2232 47.7264 20.7312C47.9964 20.2392 48.3204 19.7952 48.6984 19.3992C49.0824 19.0032 49.5144 18.6672 49.9944 18.3912C50.4744 18.1092 50.9964 17.8962 51.5604 17.7522C52.1304 17.6022 52.7364 17.5272 53.3784 17.5272C53.8584 17.5272 54.3114 17.5692 54.7374 17.6532C55.1694 17.7372 55.5714 17.8542 55.9434 18.0042C56.3154 18.1542 56.6574 18.3372 56.9694 18.5532C57.2874 18.7632 57.5724 18.9942 57.8244 19.2462L56.9154 20.4882C56.8614 20.5662 56.7924 20.6352 56.7084 20.6952C56.6244 20.7552 56.5104 20.7852 56.3664 20.7852C56.2224 20.7852 56.0754 20.7342 55.9254 20.6322C55.7814 20.5302 55.6014 20.4162 55.3854 20.2902C55.1754 20.1642 54.9084 20.0502 54.5844 19.9482C54.2664 19.8462 53.8614 19.7952 53.3694 19.7952C52.8234 19.7952 52.3224 19.8942 51.8664 20.0922C51.4104 20.2902 51.0174 20.5782 50.6874 20.9562C50.3634 21.3282 50.1114 21.7872 49.9314 22.3332C49.7514 22.8792 49.6614 23.5002 49.6614 24.1962C49.6614 24.8982 49.7574 25.5252 49.9494 26.0772C50.1474 26.6232 50.4144 27.0852 50.7504 27.4632C51.0924 27.8412 51.4884 28.1292 51.9384 28.3272C52.3944 28.5192 52.8804 28.6152 53.3964 28.6152C53.7024 28.6152 53.9784 28.6002 54.2244 28.5702C54.4764 28.5402 54.7074 28.4892 54.9174 28.4172C55.1334 28.3452 55.3344 28.2522 55.5204 28.1382C55.7124 28.0242 55.9044 27.8802 56.0964 27.7062C56.1624 27.6522 56.2314 27.6072 56.3034 27.5712C56.3754 27.5352 56.4534 27.5172 56.5374 27.5172ZM63.7002 21.3072C64.3962 21.3072 65.0292 21.4182 65.5992 21.6402C66.1692 21.8622 66.6582 22.1802 67.0662 22.5942C67.4742 23.0022 67.7892 23.5002 68.0112 24.0882C68.2332 24.6762 68.3442 25.3392 68.3442 26.0772C68.3442 26.8152 68.2332 27.4812 68.0112 28.0752C67.7892 28.6632 67.4742 29.1642 67.0662 29.5782C66.6582 29.9922 66.1692 30.3102 65.5992 30.5322C65.0292 30.7542 64.3962 30.8652 63.7002 30.8652C62.9982 30.8652 62.3592 30.7542 61.7832 30.5322C61.2132 30.3102 60.7242 29.9922 60.3162 29.5782C59.9082 29.1642 59.5902 28.6632 59.3622 28.0752C59.1402 27.4812 59.0292 26.8152 59.0292 26.0772C59.0292 25.3392 59.1402 24.6762 59.3622 24.0882C59.5902 23.5002 59.9082 23.0022 60.3162 22.5942C60.7242 22.1802 61.2132 21.8622 61.7832 21.6402C62.3592 21.4182 62.9982 21.3072 63.7002 21.3072ZM63.7002 29.0022C64.4082 29.0022 64.9332 28.7592 65.2752 28.2732C65.6172 27.7812 65.7882 27.0522 65.7882 26.0862C65.7882 25.1262 65.6172 24.4032 65.2752 23.9172C64.9332 23.4252 64.4082 23.1792 63.7002 23.1792C62.9742 23.1792 62.4402 23.4252 62.0982 23.9172C61.7562 24.4032 61.5852 25.1262 61.5852 26.0862C61.5852 27.0522 61.7562 27.7812 62.0982 28.2732C62.4402 28.7592 62.9742 29.0022 63.7002 29.0022ZM72.7479 22.5312C72.9339 22.3512 73.1259 22.1862 73.3239 22.0362C73.5279 21.8862 73.7409 21.7572 73.9629 21.6492C74.1909 21.5412 74.4339 21.4572 74.6919 21.3972C74.9559 21.3372 75.2409 21.3072 75.5469 21.3072C76.0509 21.3072 76.4979 21.3942 76.8879 21.5682C77.2779 21.7422 77.6049 21.9852 77.8689 22.2972C78.1389 22.6092 78.3399 22.9812 78.4719 23.4132C78.6099 23.8452 78.6789 24.3192 78.6789 24.8352V30.7302H76.2039V24.8352C76.2039 24.3192 76.0839 23.9202 75.8439 23.6382C75.6039 23.3502 75.2499 23.2062 74.7819 23.2062C74.4339 23.2062 74.1069 23.2812 73.8009 23.4312C73.4949 23.5812 73.2039 23.7912 72.9279 24.0612V30.7302H70.4439V21.4512H71.9739C72.2859 21.4512 72.4929 21.5952 72.5949 21.8832L72.7479 22.5312ZM89.5269 21.4512L85.8819 30.7302H83.6319L79.9869 21.4512H82.0479C82.2279 21.4512 82.3779 21.4932 82.4979 21.5772C82.6179 21.6612 82.7019 21.7692 82.7499 21.9012L84.3069 26.4912C84.4089 26.8032 84.4989 27.1092 84.5769 27.4092C84.6549 27.7032 84.7239 28.0002 84.7839 28.3002C84.8499 28.0002 84.9219 27.7032 84.9999 27.4092C85.0839 27.1092 85.1799 26.8032 85.2879 26.4912L86.8989 21.9012C86.9409 21.7692 87.0219 21.6612 87.1419 21.5772C87.2619 21.4932 87.4029 21.4512 87.5649 21.4512H89.5269ZM96.7107 24.9972C96.7107 24.7392 96.6747 24.4932 96.6027 24.2592C96.5367 24.0252 96.4287 23.8182 96.2787 23.6382C96.1287 23.4582 95.9397 23.3172 95.7117 23.2152C95.4837 23.1072 95.2107 23.0532 94.8927 23.0532C94.2987 23.0532 93.8337 23.2212 93.4977 23.5572C93.1617 23.8932 92.9427 24.3732 92.8407 24.9972H96.7107ZM92.8047 26.4732C92.8827 27.3432 93.1287 27.9792 93.5427 28.3812C93.9627 28.7832 94.5087 28.9842 95.1807 28.9842C95.5227 28.9842 95.8167 28.9452 96.0627 28.8672C96.3147 28.7832 96.5337 28.6932 96.7197 28.5972C96.9117 28.4952 97.0827 28.4052 97.2327 28.3272C97.3887 28.2432 97.5417 28.2012 97.6917 28.2012C97.8837 28.2012 98.0337 28.2732 98.1417 28.4172L98.8617 29.3172C98.5977 29.6232 98.3067 29.8782 97.9887 30.0822C97.6707 30.2802 97.3407 30.4392 96.9987 30.5592C96.6567 30.6732 96.3117 30.7512 95.9637 30.7932C95.6157 30.8412 95.2797 30.8652 94.9557 30.8652C94.3077 30.8652 93.7017 30.7602 93.1377 30.5502C92.5797 30.3342 92.0907 30.0192 91.6707 29.6052C91.2567 29.1852 90.9297 28.6662 90.6897 28.0482C90.4497 27.4302 90.3297 26.7132 90.3297 25.8972C90.3297 25.2672 90.4317 24.6732 90.6357 24.1152C90.8457 23.5572 91.1457 23.0712 91.5357 22.6572C91.9257 22.2432 92.3997 21.9162 92.9577 21.6762C93.5157 21.4302 94.1457 21.3072 94.8477 21.3072C95.4417 21.3072 95.9877 21.4032 96.4857 21.5952C96.9897 21.7812 97.4217 22.0542 97.7817 22.4142C98.1477 22.7742 98.4297 23.2182 98.6277 23.7462C98.8317 24.2682 98.9337 24.8652 98.9337 25.5372C98.9337 25.7232 98.9247 25.8762 98.9067 25.9962C98.8887 26.1162 98.8587 26.2122 98.8167 26.2842C98.7747 26.3562 98.7177 26.4072 98.6457 26.4372C98.5737 26.4612 98.4807 26.4732 98.3667 26.4732H92.8047ZM103.346 22.9812C103.64 22.4532 103.979 22.0362 104.363 21.7302C104.747 21.4242 105.197 21.2712 105.713 21.2712C106.133 21.2712 106.475 21.3702 106.739 21.5682L106.577 23.4042C106.547 23.5242 106.499 23.6082 106.433 23.6562C106.373 23.6982 106.289 23.7192 106.181 23.7192C106.085 23.7192 105.947 23.7072 105.767 23.6832C105.587 23.6532 105.419 23.6382 105.263 23.6382C105.035 23.6382 104.831 23.6712 104.651 23.7372C104.477 23.8032 104.321 23.8962 104.183 24.0162C104.045 24.1362 103.919 24.2832 103.805 24.4572C103.697 24.6312 103.595 24.8292 103.499 25.0512V30.7302H101.015V21.4512H102.482C102.734 21.4512 102.908 21.4962 103.004 21.5862C103.1 21.6762 103.169 21.8322 103.211 22.0542L103.346 22.9812ZM118.006 30.7302H115.531V23.2332H111.418V28.0752C111.418 28.3332 111.478 28.5372 111.598 28.6872C111.724 28.8372 111.901 28.9122 112.129 28.9122C112.249 28.9122 112.351 28.9002 112.435 28.8762C112.519 28.8462 112.591 28.8162 112.651 28.7862C112.711 28.7502 112.765 28.7202 112.813 28.6962C112.867 28.6662 112.921 28.6512 112.975 28.6512C113.047 28.6512 113.107 28.6692 113.155 28.7052C113.203 28.7352 113.251 28.7892 113.299 28.8672L114.046 30.0552C113.704 30.3252 113.317 30.5292 112.885 30.6672C112.453 30.8052 112.006 30.8742 111.544 30.8742C111.124 30.8742 110.752 30.8142 110.428 30.6942C110.104 30.5682 109.831 30.3912 109.609 30.1632C109.387 29.9352 109.219 29.6592 109.105 29.3352C108.991 29.0112 108.934 28.6452 108.934 28.2372V23.2332H108.061C107.929 23.2332 107.815 23.1912 107.719 23.1072C107.629 23.0232 107.584 22.8972 107.584 22.7292V21.7572L109.069 21.4872L109.573 19.0842C109.639 18.8142 109.822 18.6792 110.122 18.6792H111.418V21.5052H118.006V30.7302ZM118.393 18.7962C118.393 19.0002 118.351 19.1952 118.267 19.3812C118.183 19.5612 118.069 19.7202 117.925 19.8582C117.787 19.9902 117.622 20.0982 117.43 20.1822C117.244 20.2602 117.043 20.2992 116.827 20.2992C116.623 20.2992 116.428 20.2602 116.242 20.1822C116.062 20.0982 115.903 19.9902 115.765 19.8582C115.627 19.7202 115.516 19.5612 115.432 19.3812C115.354 19.1952 115.315 19.0002 115.315 18.7962C115.315 18.5862 115.354 18.3912 115.432 18.2112C115.516 18.0252 115.627 17.8632 115.765 17.7252C115.903 17.5872 116.062 17.4792 116.242 17.4012C116.428 17.3172 116.623 17.2752 116.827 17.2752C117.043 17.2752 117.244 17.3172 117.43 17.4012C117.622 17.4792 117.787 17.5872 117.925 17.7252C118.069 17.8632 118.183 18.0252 118.267 18.2112C118.351 18.3912 118.393 18.5862 118.393 18.7962ZM123.006 22.9812C123.3 22.4532 123.639 22.0362 124.023 21.7302C124.407 21.4242 124.857 21.2712 125.373 21.2712C125.793 21.2712 126.135 21.3702 126.399 21.5682L126.237 23.4042C126.207 23.5242 126.159 23.6082 126.093 23.6562C126.033 23.6982 125.949 23.7192 125.841 23.7192C125.745 23.7192 125.607 23.7072 125.427 23.6832C125.247 23.6532 125.079 23.6382 124.923 23.6382C124.695 23.6382 124.491 23.6712 124.311 23.7372C124.137 23.8032 123.981 23.8962 123.843 24.0162C123.705 24.1362 123.579 24.2832 123.465 24.4572C123.357 24.6312 123.255 24.8292 123.159 25.0512V30.7302H120.675V21.4512H122.142C122.394 21.4512 122.568 21.4962 122.664 21.5862C122.76 21.6762 122.829 21.8322 122.871 22.0542L123.006 22.9812Z" fill="#ADADC8"/>
<defs>
<filter id="filter0_d" x="0" y="0" width="144" height="56" filterUnits="userSpaceOnUse" color-interpolation-filters="sRGB">
<feFlood flood-opacity="0" result="BackgroundImageFix"/>
<feColorMatrix in="SourceAlpha" type="matrix" values="0 0 0 0 0 0 0 0 0 0 0 0 0 0 0 0 0 0 127 0"/>
<feOffset dy="4"/>
<feGaussianBlur stdDeviation="2"/>
<feColorMatrix type="matrix" values="0 0 0 0 0 0 0 0 0 0 0 0 0 0 0 0 0 0 0.25 0"/>
<feBlend mode="normal" in2="BackgroundImageFix" result="effect1_dropShadow"/>
<feBlend mode="normal" in="SourceGraphic" in2="effect1_dropShadow" result="shape"/>
</filter>
</defs>
</svg>
