<svg width="25" height="26" viewBox="0 0 25 26" fill="none" xmlns="http://www.w3.org/2000/svg">
<path d="M3.86255 15.7415L7.59528 19.768C7.68229 19.8619 7.78558 19.9364 7.89927 19.9871C8.01295 20.0379 8.13479 20.0641 8.25784 20.0641C8.50635 20.0641 8.74468 19.9576 8.9204 19.768C9.09612 19.5785 9.19484 19.3214 9.19484 19.0533C9.19484 18.7853 9.09612 18.5282 8.9204 18.3386L6.77408 16.0335L17.5897 16.0335C17.8372 16.0335 18.0745 15.9274 18.2495 15.7386C18.4245 15.5498 18.5229 15.2938 18.5229 15.0268C18.5229 14.7599 18.4245 14.5038 18.2495 14.315C18.0745 14.1263 17.8372 14.0202 17.5897 14.0202L4.52511 14.0202C4.34087 14.0212 4.16103 14.081 4.00825 14.1921C3.85547 14.3031 3.73658 14.4605 3.66658 14.6443C3.59511 14.8276 3.57559 15.0297 3.61046 15.2249C3.64534 15.4202 3.73306 15.6 3.86255 15.7415ZM8.25784 12.007L21.3224 12.007C21.5066 12.006 21.6865 11.9462 21.8393 11.8351C21.9921 11.724 22.1109 11.5667 22.1809 11.3828C22.2524 11.1995 22.2719 10.9975 22.2371 10.8022C22.2022 10.6069 22.1145 10.4272 21.985 10.2856L18.2522 6.25911C18.1655 6.16476 18.0623 6.08987 17.9486 6.03877C17.8348 5.98766 17.7129 5.96135 17.5897 5.96135C17.4665 5.96135 17.3445 5.98766 17.2308 6.03877C17.1171 6.08987 17.0139 6.16476 16.9271 6.25911C16.8397 6.35269 16.7702 6.46402 16.7229 6.58669C16.6755 6.70936 16.6511 6.84093 16.6511 6.97382C16.6511 7.1067 16.6755 7.23827 16.7229 7.36094C16.7702 7.48361 16.8397 7.59494 16.9271 7.68852L19.0734 9.9937L8.25784 9.9937C8.01034 9.9937 7.77299 10.0998 7.59798 10.2885C7.42297 10.4773 7.32466 10.7333 7.32466 11.0003C7.32466 11.2673 7.42297 11.5233 7.59798 11.7121C7.77299 11.9009 8.01034 12.0069 8.25784 12.007Z" fill="#4048FF"/>
</svg>
