<svg width="52" height="52" viewBox="0 0 52 52" fill="none" xmlns="http://www.w3.org/2000/svg">
<rect x="1.14339" y="1.46736" width="49.4788" height="49.4788" rx="24.7394" fill="#F6F6FF" stroke="#D6D6E8" stroke-width="1.47884"/>
<path d="M38.9937 22.5464L33.5927 17.1454C33.4668 17.0195 33.3174 16.9196 33.1529 16.8515C32.9884 16.7834 32.8121 16.7483 32.634 16.7483C32.2745 16.7483 31.9296 16.8911 31.6754 17.1454C31.4211 17.3996 31.2783 17.7445 31.2783 18.1041C31.2783 18.4636 31.4211 18.8085 31.6754 19.0627L34.7809 22.1548H19.1316C18.7735 22.1548 18.43 22.2971 18.1768 22.5503C17.9236 22.8035 17.7813 23.1469 17.7813 23.505C17.7813 23.8631 17.9236 24.2066 18.1768 24.4598C18.43 24.713 18.7735 24.8553 19.1316 24.8553H38.035C38.3016 24.854 38.5618 24.7737 38.7829 24.6248C39.0039 24.4758 39.1759 24.2647 39.2772 24.0181C39.3806 23.7722 39.4089 23.5012 39.3584 23.2393C39.308 22.9774 39.181 22.7362 38.9937 22.5464ZM32.634 27.5558H13.7306C13.464 27.5571 13.2038 27.6373 12.9828 27.7863C12.7617 27.9353 12.5897 28.1463 12.4884 28.3929C12.385 28.6388 12.3567 28.9098 12.4072 29.1718C12.4577 29.4337 12.5846 29.6748 12.7719 29.8647L18.1729 35.2657C18.2984 35.3922 18.4478 35.4927 18.6123 35.5612C18.7769 35.6298 18.9533 35.6651 19.1316 35.6651C19.3098 35.6651 19.4863 35.6298 19.6509 35.5612C19.8154 35.4927 19.9647 35.3922 20.0903 35.2657C20.2168 35.1402 20.3173 34.9908 20.3858 34.8263C20.4544 34.6617 20.4897 34.4853 20.4897 34.307C20.4897 34.1288 20.4544 33.9523 20.3858 33.7877C20.3173 33.6232 20.2168 33.4739 20.0903 33.3483L16.9847 30.2563H32.634C32.9921 30.2563 33.3356 30.114 33.5888 29.8608C33.842 29.6076 33.9843 29.2641 33.9843 28.906C33.9843 28.5479 33.842 28.2045 33.5888 27.9513C33.3356 27.698 32.9921 27.5558 32.634 27.5558Z" fill="#D6D6E8"/>
</svg>
