<svg width="53" height="53" viewBox="0 0 53 53" fill="none" xmlns="http://www.w3.org/2000/svg">
<g filter="url(#filter0_d)">
<rect x="2.64404" y="0.0761719" width="48" height="48" rx="24" fill="white"/>
</g>
<path d="M17.5828 26.8044L21.3155 30.8309C21.4025 30.9248 21.5058 30.9992 21.6195 31.05C21.7332 31.1008 21.855 31.127 21.9781 31.127C22.2266 31.127 22.4649 31.0205 22.6406 30.8309C22.8163 30.6414 22.9151 30.3843 22.9151 30.1162C22.9151 29.8481 22.8163 29.5911 22.6406 29.4015L20.4943 27.0963L31.3099 27.0963C31.5574 27.0963 31.7947 26.9903 31.9698 26.8015C32.1448 26.6127 32.2431 26.3567 32.2431 26.0897C32.2431 25.8227 32.1448 25.5667 31.9698 25.3779C31.7947 25.1891 31.5574 25.0831 31.3099 25.0831L18.2453 25.0831C18.0611 25.0841 17.8812 25.1439 17.7285 25.2549C17.5757 25.366 17.4568 25.5233 17.3868 25.7072C17.3153 25.8905 17.2958 26.0925 17.3307 26.2878C17.3656 26.4831 17.4533 26.6628 17.5828 26.8044ZM21.9781 23.0698L35.0426 23.0698C35.2269 23.0688 35.4067 23.009 35.5595 22.898C35.7123 22.7869 35.8312 22.6295 35.9012 22.4457C35.9726 22.2624 35.9921 22.0603 35.9573 21.8651C35.9224 21.6698 35.8347 21.49 35.7052 21.3485L31.9725 17.322C31.8857 17.2276 31.7825 17.1527 31.6688 17.1016C31.5551 17.0505 31.4331 17.0242 31.3099 17.0242C31.1867 17.0242 31.0647 17.0505 30.951 17.1016C30.8373 17.1527 30.7341 17.2276 30.6473 17.322C30.5599 17.4156 30.4904 17.5269 30.4431 17.6496C30.3957 17.7722 30.3713 17.9038 30.3713 18.0367C30.3713 18.1696 30.3957 18.3011 30.4431 18.4238C30.4904 18.5465 30.5599 18.6578 30.6473 18.7514L32.7937 21.0566L21.9781 21.0566C21.7306 21.0566 21.4932 21.1626 21.3182 21.3514C21.1432 21.5402 21.0449 21.7962 21.0449 22.0632C21.0449 22.3302 21.1432 22.5862 21.3182 22.775C21.4932 22.9638 21.7306 23.0698 21.9781 23.0698Z" fill="#1F2337"/>
<defs>
<filter id="filter0_d" x="0.644043" y="0.0761719" width="52" height="52" filterUnits="userSpaceOnUse" color-interpolation-filters="sRGB">
<feFlood flood-opacity="0" result="BackgroundImageFix"/>
<feColorMatrix in="SourceAlpha" type="matrix" values="0 0 0 0 0 0 0 0 0 0 0 0 0 0 0 0 0 0 127 0"/>
<feOffset dy="2"/>
<feGaussianBlur stdDeviation="1"/>
<feColorMatrix type="matrix" values="0 0 0 0 0 0 0 0 0 0 0 0 0 0 0 0 0 0 0.15 0"/>
<feBlend mode="normal" in2="BackgroundImageFix" result="effect1_dropShadow"/>
<feBlend mode="normal" in="SourceGraphic" in2="effect1_dropShadow" result="shape"/>
</filter>
</defs>
</svg>
