<svg width="13" height="19" viewBox="0 0 13 19" fill="none" xmlns="http://www.w3.org/2000/svg">
<path d="M9.22451 17.8138L12.6523 14.3861C12.7322 14.3062 12.7956 14.2113 12.8388 14.1069C12.882 14.0025 12.9043 13.8906 12.9043 13.7776C12.9043 13.5494 12.8136 13.3306 12.6523 13.1692C12.4909 13.0078 12.2721 12.9172 12.0438 12.9172C11.8156 12.9172 11.5968 13.0078 11.4354 13.1692L9.47302 15.1402L9.47302 5.20821C9.47302 4.98093 9.38274 4.76297 9.22203 4.60226C9.06132 4.44155 8.84335 4.35126 8.61608 4.35126C8.3888 4.35126 8.17084 4.44155 8.01013 4.60226C7.84942 4.76297 7.75914 4.98093 7.75914 5.20821L7.75914 17.2054C7.75998 17.3746 7.81088 17.5397 7.90543 17.68C7.99998 17.8203 8.13395 17.9295 8.29044 17.9938C8.4465 18.0594 8.6185 18.0773 8.78474 18.0453C8.95097 18.0133 9.104 17.9327 9.22451 17.8138ZM6.04525 13.7776L6.04525 1.78044C6.04441 1.61125 5.9935 1.44611 5.89895 1.30581C5.80441 1.16551 5.67044 1.05634 5.51395 0.99205C5.35789 0.926426 5.18589 0.908496 5.01965 0.940523C4.85341 0.972551 4.70039 1.0531 4.57988 1.17201L1.15211 4.59978C1.07179 4.67944 1.00804 4.77422 0.964532 4.87865C0.921026 4.98307 0.898628 5.09508 0.898628 5.20821C0.898628 5.32133 0.921026 5.43334 0.964532 5.53777C1.00804 5.64219 1.07179 5.73697 1.15211 5.81664C1.23178 5.89696 1.32655 5.96071 1.43098 6.00421C1.5354 6.04772 1.64741 6.07012 1.76054 6.07012C1.87367 6.07012 1.98567 6.04772 2.0901 6.00421C2.19453 5.96071 2.2893 5.89696 2.36897 5.81664L4.33137 3.84567L4.33137 13.7776C4.33137 14.0049 4.42165 14.2229 4.58236 14.3836C4.74307 14.5443 4.96103 14.6346 5.18831 14.6346C5.41558 14.6346 5.63355 14.5443 5.79426 14.3836C5.95497 14.2229 6.04525 14.0049 6.04525 13.7776Z" fill="#ADADC8"/>
</svg>
