<svg width="145" height="57" viewBox="0 0 145 57" fill="none" xmlns="http://www.w3.org/2000/svg">
<g filter="url(#filter0_d)">
<rect x="4.79053" y="0.850952" width="136" height="48" rx="24" fill="white"/>
</g>
<path d="M37.7123 21.9016L33.1441 17.3334C33.0376 17.2269 32.9112 17.1425 32.7721 17.0848C32.633 17.0272 32.4839 16.9976 32.3333 16.9976C32.0291 16.9976 31.7375 17.1184 31.5224 17.3334C31.3074 17.5485 31.1866 17.8402 31.1866 18.1443C31.1866 18.4484 31.3074 18.7401 31.5224 18.9551L34.1491 21.5704H20.9128C20.6099 21.5704 20.3194 21.6908 20.1052 21.9049C19.891 22.1191 19.7707 22.4096 19.7707 22.7125C19.7707 23.0154 19.891 23.3059 20.1052 23.52C20.3194 23.7342 20.6099 23.8545 20.9128 23.8545H36.9015C37.1269 23.8534 37.347 23.7856 37.534 23.6596C37.721 23.5336 37.8665 23.355 37.9522 23.1465C38.0396 22.9385 38.0635 22.7093 38.0208 22.4877C37.9781 22.2662 37.8708 22.0622 37.7123 21.9016ZM32.3333 26.1386H16.3446C16.1191 26.1398 15.899 26.2076 15.712 26.3336C15.5251 26.4596 15.3796 26.6381 15.2939 26.8467C15.2064 27.0547 15.1825 27.2839 15.2252 27.5055C15.2679 27.727 15.3752 27.9309 15.5337 28.0915L20.1019 32.6597C20.2081 32.7668 20.3344 32.8517 20.4736 32.9097C20.6127 32.9677 20.762 32.9976 20.9128 32.9976C21.0635 32.9976 21.2128 32.9677 21.352 32.9097C21.4911 32.8517 21.6175 32.7668 21.7236 32.6597C21.8307 32.5536 21.9156 32.4273 21.9736 32.2881C22.0316 32.1489 22.0614 31.9997 22.0614 31.8489C22.0614 31.6981 22.0316 31.5488 21.9736 31.4097C21.9156 31.2705 21.8307 31.1442 21.7236 31.038L19.0969 28.4227H32.3333C32.6362 28.4227 32.9267 28.3024 33.1408 28.0882C33.355 27.8741 33.4753 27.5836 33.4753 27.2807C33.4753 26.9778 33.355 26.6873 33.1408 26.4731C32.9267 26.259 32.6362 26.1386 32.3333 26.1386Z" fill="#4048FF"/>
<path d="M55.3969 28.1883C55.4689 28.1883 55.5409 28.2033 55.6129 28.2333C55.6849 28.2573 55.7539 28.3023 55.8199 28.3683L57.0259 29.6373C56.4979 30.3273 55.8349 30.8493 55.0369 31.2033C54.2449 31.5513 53.3059 31.7253 52.2199 31.7253C51.2239 31.7253 50.3299 31.5573 49.5379 31.2213C48.7519 30.8793 48.0829 30.4113 47.5309 29.8173C46.9849 29.2173 46.5649 28.5093 46.2709 27.6933C45.9769 26.8713 45.8299 25.9803 45.8299 25.0203C45.8299 24.0423 45.9979 23.1453 46.3339 22.3293C46.6699 21.5073 47.1379 20.7993 47.7379 20.2053C48.3439 19.6113 49.0669 19.1493 49.9069 18.8193C50.7469 18.4893 51.6739 18.3243 52.6879 18.3243C53.1799 18.3243 53.6419 18.3693 54.0739 18.4593C54.5119 18.5433 54.9199 18.6633 55.2979 18.8193C55.6759 18.9693 56.0239 19.1523 56.3419 19.3683C56.6599 19.5783 56.9419 19.8123 57.1879 20.0703L56.1619 21.4473C56.0959 21.5313 56.0179 21.6093 55.9279 21.6813C55.8379 21.7473 55.7119 21.7803 55.5499 21.7803C55.4419 21.7803 55.3399 21.7563 55.2439 21.7083C55.1479 21.6603 55.0459 21.6033 54.9379 21.5373C54.8299 21.4653 54.7099 21.3903 54.5779 21.3123C54.4519 21.2283 54.2989 21.1533 54.1189 21.0873C53.9449 21.0153 53.7379 20.9553 53.4979 20.9073C53.2639 20.8593 52.9879 20.8353 52.6699 20.8353C52.1179 20.8353 51.6139 20.9343 51.1579 21.1323C50.7019 21.3243 50.3089 21.6033 49.9789 21.9693C49.6549 22.3293 49.3999 22.7673 49.2139 23.2833C49.0339 23.7993 48.9439 24.3783 48.9439 25.0203C48.9439 25.6923 49.0339 26.2893 49.2139 26.8113C49.3999 27.3333 49.6489 27.7743 49.9609 28.1343C50.2789 28.4883 50.6479 28.7583 51.0679 28.9443C51.4879 29.1303 51.9379 29.2233 52.4179 29.2233C52.6939 29.2233 52.9459 29.2113 53.1739 29.1873C53.4019 29.1573 53.6119 29.1093 53.8039 29.0433C54.0019 28.9773 54.1879 28.8933 54.3619 28.7913C54.5419 28.6833 54.7219 28.5513 54.9019 28.3953C54.9739 28.3353 55.0519 28.2873 55.1359 28.2513C55.2199 28.2093 55.3069 28.1883 55.3969 28.1883ZM63.114 22.1043C63.822 22.1043 64.467 22.2153 65.049 22.4373C65.631 22.6593 66.129 22.9773 66.543 23.3913C66.963 23.8053 67.287 24.3093 67.515 24.9033C67.749 25.4913 67.866 26.1543 67.866 26.8923C67.866 27.6363 67.749 28.3083 67.515 28.9083C67.287 29.5023 66.963 30.0093 66.543 30.4293C66.129 30.8433 65.631 31.1643 65.049 31.3923C64.467 31.6143 63.822 31.7253 63.114 31.7253C62.4 31.7253 61.749 31.6143 61.161 31.3923C60.579 31.1643 60.075 30.8433 59.649 30.4293C59.229 30.0093 58.902 29.5023 58.668 28.9083C58.44 28.3083 58.326 27.6363 58.326 26.8923C58.326 26.1543 58.44 25.4913 58.668 24.9033C58.902 24.3093 59.229 23.8053 59.649 23.3913C60.075 22.9773 60.579 22.6593 61.161 22.4373C61.749 22.2153 62.4 22.1043 63.114 22.1043ZM63.114 29.6553C63.756 29.6553 64.227 29.4303 64.527 28.9803C64.833 28.5243 64.986 27.8343 64.986 26.9103C64.986 25.9863 64.833 25.2993 64.527 24.8493C64.227 24.3993 63.756 24.1743 63.114 24.1743C62.454 24.1743 61.971 24.3993 61.665 24.8493C61.359 25.2993 61.206 25.9863 61.206 26.9103C61.206 27.8343 61.359 28.5243 61.665 28.9803C61.971 29.4303 62.454 29.6553 63.114 29.6553ZM69.9374 31.5813V22.2483H71.6654C71.8394 22.2483 71.9834 22.2873 72.0974 22.3653C72.2174 22.4433 72.3014 22.5603 72.3494 22.7163L72.5114 23.2563C72.6914 23.0883 72.8774 22.9323 73.0694 22.7883C73.2614 22.6443 73.4654 22.5243 73.6814 22.4283C73.9034 22.3263 74.1404 22.2483 74.3924 22.1943C74.6504 22.1343 74.9294 22.1043 75.2294 22.1043C75.7394 22.1043 76.1894 22.1943 76.5794 22.3743C76.9754 22.5483 77.3084 22.7943 77.5784 23.1123C77.8484 23.4243 78.0524 23.7993 78.1904 24.2373C78.3284 24.6693 78.3974 25.1403 78.3974 25.6503V31.5813H75.6074V25.6503C75.6074 25.1943 75.5024 24.8403 75.2924 24.5883C75.0824 24.3303 74.7734 24.2013 74.3654 24.2013C74.0594 24.2013 73.7714 24.2673 73.5014 24.3993C73.2314 24.5313 72.9734 24.7083 72.7274 24.9303V31.5813H69.9374ZM85.7332 31.5813H83.1952L79.5772 22.2483H81.8992C82.0972 22.2483 82.2622 22.2963 82.3942 22.3923C82.5322 22.4823 82.6252 22.5963 82.6732 22.7343L83.9692 26.9193C84.0712 27.2613 84.1672 27.5943 84.2572 27.9183C84.3532 28.2423 84.4342 28.5663 84.5002 28.8903C84.5662 28.5663 84.6472 28.2423 84.7432 27.9183C84.8392 27.5943 84.9412 27.2613 85.0492 26.9193L86.3992 22.7343C86.4472 22.5963 86.5372 22.4823 86.6692 22.3923C86.8012 22.2963 86.9572 22.2483 87.1372 22.2483H89.3512L85.7332 31.5813ZM94.7009 22.1043C95.3189 22.1043 95.8829 22.2003 96.3929 22.3923C96.9089 22.5843 97.3499 22.8633 97.7159 23.2293C98.0879 23.5953 98.3759 24.0453 98.5799 24.5793C98.7899 25.1073 98.8949 25.7073 98.8949 26.3793C98.8949 26.5893 98.8859 26.7603 98.8679 26.8923C98.8499 27.0243 98.8169 27.1293 98.7689 27.2073C98.7209 27.2853 98.6549 27.3393 98.5709 27.3693C98.4929 27.3993 98.3909 27.4143 98.2649 27.4143H92.8829C92.9729 28.1943 93.2099 28.7613 93.5939 29.1153C93.9779 29.4633 94.4729 29.6373 95.0789 29.6373C95.4029 29.6373 95.6819 29.5983 95.9159 29.5203C96.1499 29.4423 96.3569 29.3553 96.5369 29.2593C96.7229 29.1633 96.8909 29.0763 97.0409 28.9983C97.1969 28.9203 97.3589 28.8813 97.5269 28.8813C97.7489 28.8813 97.9169 28.9623 98.0309 29.1243L98.8409 30.1233C98.5529 30.4533 98.2409 30.7233 97.9049 30.9333C97.5749 31.1373 97.2329 31.2993 96.8789 31.4193C96.5309 31.5333 96.1799 31.6113 95.8259 31.6533C95.4779 31.7013 95.1449 31.7253 94.8269 31.7253C94.1729 31.7253 93.5579 31.6203 92.9819 31.4103C92.4119 31.1943 91.9109 30.8763 91.4789 30.4563C91.0529 30.0363 90.7139 29.5143 90.4619 28.8903C90.2159 28.2663 90.0929 27.5403 90.0929 26.7123C90.0929 26.0883 90.1979 25.4973 90.4079 24.9393C90.6239 24.3813 90.9299 23.8923 91.3259 23.4723C91.7279 23.0523 92.2109 22.7193 92.7749 22.4733C93.3449 22.2273 93.9869 22.1043 94.7009 22.1043ZM94.7549 24.0303C94.2209 24.0303 93.8039 24.1833 93.5039 24.4893C93.2039 24.7893 93.0059 25.2243 92.9099 25.7943H96.3929C96.3929 25.5723 96.3629 25.3563 96.3029 25.1463C96.2489 24.9363 96.1559 24.7503 96.0239 24.5883C95.8979 24.4203 95.7299 24.2853 95.5199 24.1833C95.3099 24.0813 95.0549 24.0303 94.7549 24.0303ZM101.036 31.5813V22.2483H102.692C102.83 22.2483 102.944 22.2603 103.034 22.2843C103.13 22.3083 103.208 22.3473 103.268 22.4013C103.334 22.4493 103.382 22.5153 103.412 22.5993C103.448 22.6833 103.478 22.7853 103.502 22.9053L103.655 23.7783C103.997 23.2503 104.381 22.8333 104.807 22.5273C105.233 22.2213 105.698 22.0683 106.202 22.0683C106.628 22.0683 106.97 22.1703 107.228 22.3743L106.868 24.4263C106.844 24.5523 106.796 24.6423 106.724 24.6963C106.652 24.7443 106.556 24.7683 106.436 24.7683C106.334 24.7683 106.214 24.7563 106.076 24.7323C105.938 24.7023 105.764 24.6873 105.554 24.6873C104.822 24.6873 104.246 25.0773 103.826 25.8573V31.5813H101.036ZM112.287 31.7253C111.843 31.7253 111.45 31.6623 111.108 31.5363C110.772 31.4043 110.487 31.2213 110.253 30.9873C110.025 30.7473 109.851 30.4593 109.731 30.1233C109.611 29.7873 109.551 29.4123 109.551 28.9983V24.1743H108.759C108.615 24.1743 108.492 24.1293 108.39 24.0393C108.288 23.9433 108.237 23.8053 108.237 23.6253V22.5363L109.722 22.2483L110.271 19.9713C110.343 19.6833 110.547 19.5393 110.883 19.5393H112.341V22.2663H114.609V24.1743H112.341V28.8093C112.341 29.0253 112.392 29.2053 112.494 29.3493C112.602 29.4873 112.755 29.5563 112.953 29.5563C113.055 29.5563 113.139 29.5473 113.205 29.5293C113.277 29.5053 113.337 29.4813 113.385 29.4573C113.439 29.4273 113.487 29.4033 113.529 29.3853C113.577 29.3613 113.631 29.3493 113.691 29.3493C113.775 29.3493 113.841 29.3703 113.889 29.4123C113.943 29.4483 113.997 29.5083 114.051 29.5923L114.897 30.9153C114.537 31.1853 114.132 31.3893 113.682 31.5273C113.232 31.6593 112.767 31.7253 112.287 31.7253ZM119.638 22.2483V31.5813H116.848V22.2483H119.638ZM119.962 19.6923C119.962 19.9143 119.917 20.1243 119.827 20.3223C119.737 20.5143 119.614 20.6853 119.458 20.8353C119.302 20.9793 119.119 21.0963 118.909 21.1863C118.705 21.2703 118.486 21.3123 118.252 21.3123C118.024 21.3123 117.811 21.2703 117.613 21.1863C117.415 21.0963 117.238 20.9793 117.082 20.8353C116.932 20.6853 116.812 20.5143 116.722 20.3223C116.638 20.1243 116.596 19.9143 116.596 19.6923C116.596 19.4643 116.638 19.2513 116.722 19.0533C116.812 18.8553 116.932 18.6813 117.082 18.5313C117.238 18.3813 117.415 18.2643 117.613 18.1803C117.811 18.0963 118.024 18.0543 118.252 18.0543C118.486 18.0543 118.705 18.0963 118.909 18.1803C119.119 18.2643 119.302 18.3813 119.458 18.5313C119.614 18.6813 119.737 18.8553 119.827 19.0533C119.917 19.2513 119.962 19.4643 119.962 19.6923ZM122.431 31.5813V22.2483H124.087C124.225 22.2483 124.339 22.2603 124.429 22.2843C124.525 22.3083 124.603 22.3473 124.663 22.4013C124.729 22.4493 124.777 22.5153 124.807 22.5993C124.843 22.6833 124.873 22.7853 124.897 22.9053L125.05 23.7783C125.392 23.2503 125.776 22.8333 126.202 22.5273C126.628 22.2213 127.093 22.0683 127.597 22.0683C128.023 22.0683 128.365 22.1703 128.623 22.3743L128.263 24.4263C128.239 24.5523 128.191 24.6423 128.119 24.6963C128.047 24.7443 127.951 24.7683 127.831 24.7683C127.729 24.7683 127.609 24.7563 127.471 24.7323C127.333 24.7023 127.159 24.6873 126.949 24.6873C126.217 24.6873 125.641 25.0773 125.221 25.8573V31.5813H122.431Z" fill="#4048FF"/>
<defs>
<filter id="filter0_d" x="0.790527" y="0.850952" width="144" height="56" filterUnits="userSpaceOnUse" color-interpolation-filters="sRGB">
<feFlood flood-opacity="0" result="BackgroundImageFix"/>
<feColorMatrix in="SourceAlpha" type="matrix" values="0 0 0 0 0 0 0 0 0 0 0 0 0 0 0 0 0 0 127 0"/>
<feOffset dy="4"/>
<feGaussianBlur stdDeviation="2"/>
<feColorMatrix type="matrix" values="0 0 0 0 0 0 0 0 0 0 0 0 0 0 0 0 0 0 0.25 0"/>
<feBlend mode="normal" in2="BackgroundImageFix" result="effect1_dropShadow"/>
<feBlend mode="normal" in="SourceGraphic" in2="effect1_dropShadow" result="shape"/>
</filter>
</defs>
</svg>
