<svg width="14" height="18" viewBox="0 0 14 18" fill="none" xmlns="http://www.w3.org/2000/svg">
<path d="M12.5699 15.6201H4.75586V5.15157H12.5699V15.6201ZM12.5699 3.65606H4.75586C4.37905 3.65606 4.01768 3.81362 3.75125 4.09408C3.48481 4.37455 3.33512 4.75494 3.33512 5.15157V15.6201C3.33512 16.0168 3.48481 16.3972 3.75125 16.6776C4.01768 16.9581 4.37905 17.1157 4.75586 17.1157H12.5699C12.9467 17.1157 13.3081 16.9581 13.5745 16.6776C13.8409 16.3972 13.9906 16.0168 13.9906 15.6201V5.15157C13.9906 4.75494 13.8409 4.37455 13.5745 4.09408C13.3081 3.81362 12.9467 3.65606 12.5699 3.65606ZM10.4388 0.665039H1.91439C1.53758 0.665039 1.17622 0.822601 0.909776 1.10306C0.643336 1.38353 0.493652 1.76392 0.493652 2.16055V12.6291H1.91439V2.16055H10.4388V0.665039Z" fill="#4048FF"/>
</svg>
