<svg width="536" height="54" viewBox="0 0 536 54" fill="none" xmlns="http://www.w3.org/2000/svg">
<path d="M12.5098 45.5506H10.4668C10.2278 45.5506 10.1268 45.4486 10.1268 45.2096V44.7666C10.1268 44.5316 9.99181 44.3586 9.81981 44.3586C9.71781 44.3586 9.64981 44.4256 9.54881 44.4956C8.59481 45.2756 7.54181 45.5516 6.85981 45.5516H5.53381C3.01481 45.5516 1.00781 43.8506 1.00781 41.2966V41.0926C1.00781 38.5036 3.01581 36.8716 5.53381 36.8716H9.44681C9.68381 36.8716 9.78781 36.7676 9.78781 36.5316V35.5776C9.78781 33.8756 8.42681 32.5836 6.69181 32.5836C5.66881 32.5836 4.61481 33.1606 3.86481 34.4886C3.79781 34.6246 3.69381 34.6916 3.59381 34.6916C3.48981 34.6916 3.21881 34.5206 3.01481 34.4206L1.31281 33.5356C1.17581 33.4666 1.10981 33.3656 1.10981 33.2636C1.10981 33.1276 1.44981 32.5476 1.78981 32.1076C2.77581 30.7796 4.20581 29.8926 6.69181 29.8926C10.4338 29.8926 12.8518 32.1716 12.8518 35.5776V45.2106C12.8518 45.4496 12.7458 45.5506 12.5098 45.5506ZM9.78681 39.5926C9.78681 39.3556 9.68281 39.2516 9.44581 39.2516H5.53281C4.68081 39.2516 4.03481 39.8986 4.03481 40.7506V41.2956C4.03481 42.1486 4.68081 42.8266 5.53281 42.8266H6.85881C8.21981 42.8266 9.54781 41.6006 9.78681 40.3426V39.5926Z" fill="white"/>
<path d="M23.338 45.8575C22.793 45.8575 21.807 45.6885 20.99 45.3475C18.811 44.4615 17.552 42.5535 17.552 40.1055V33.2975C17.552 33.0585 17.448 32.9575 17.21 32.9575H15.338C15.101 32.9575 14.999 32.8535 14.999 32.6495C14.999 32.4785 15.031 31.9685 15.065 31.4235L18.81 27.4435C18.981 27.2715 19.116 27.1685 19.286 27.1685H20.272C20.51 27.1685 20.615 27.2725 20.615 27.5105V29.8925C20.615 30.1305 20.716 30.2345 20.954 30.2345H23.337C23.574 30.2345 23.679 30.3365 23.679 30.5755V32.6165C23.679 32.8535 23.575 32.9585 23.337 32.9585H20.954C20.716 32.9585 20.615 33.0595 20.615 33.2985V40.1065C20.615 41.5685 21.702 42.8635 23.403 43.1355C23.574 43.1695 23.678 43.2705 23.678 43.4745V45.5175C23.68 45.7525 23.541 45.8575 23.338 45.8575Z" fill="white"/>
<path d="M37.3629 45.5506H35.3209C35.0819 45.5506 34.9799 45.4486 34.9799 45.2096V44.7666C34.9799 44.5316 34.8449 44.3586 34.6739 44.3586C34.5699 44.3586 34.5039 44.4256 34.4029 44.4956C33.4489 45.2756 32.3949 45.5516 31.7139 45.5516H30.3859C27.8659 45.5516 25.8589 43.8506 25.8589 41.2966V41.0926C25.8589 38.5036 27.8669 36.8716 30.3859 36.8716H34.2999C34.5379 36.8716 34.6419 36.7676 34.6419 36.5316V35.5776C34.6419 33.8756 33.2789 32.5836 31.5429 32.5836C30.5209 32.5836 29.4679 33.1606 28.7179 34.4886C28.6519 34.6246 28.5479 34.6916 28.4469 34.6916C28.3429 34.6916 28.0699 34.5206 27.8669 34.4206L26.1659 33.5356C26.0299 33.4666 25.9619 33.3646 25.9619 33.2636C25.9619 33.1276 26.3029 32.5476 26.6449 32.1076C27.6309 30.7796 29.0589 29.8926 31.5439 29.8926C35.2889 29.8926 37.7069 32.1716 37.7069 35.5776V45.2106C37.7049 45.4496 37.5999 45.5506 37.3629 45.5506ZM34.6409 39.5926C34.6409 39.3556 34.5369 39.2516 34.2989 39.2516H30.3849C29.5349 39.2516 28.8869 39.8986 28.8869 40.7506V41.2956C28.8869 42.1486 29.5349 42.8266 30.3849 42.8266H31.7129C33.0719 42.8266 34.4019 41.6006 34.6409 40.3426V39.5926Z" fill="white"/>
<path d="M47.2368 53.5503C44.9228 53.5503 43.4598 52.7313 42.5068 51.6443C41.9618 51.0323 41.5538 50.3143 41.5538 50.1103C41.5538 50.0083 41.6218 49.9083 41.7588 49.8373L43.5288 48.9553C43.7328 48.8513 43.9718 48.7153 44.0738 48.7153C44.2108 48.7153 44.3118 48.7833 44.3788 48.9203C44.9938 50.1813 46.0818 50.8263 47.2378 50.8263C48.9058 50.8263 50.3018 49.4303 50.3018 47.7613V44.9373C50.3018 44.7003 50.1658 44.5323 49.9948 44.5323C49.8578 44.5323 49.7898 44.5633 49.6898 44.6683C49.0078 45.2763 48.0858 45.5523 47.2368 45.5523C43.4928 45.5523 41.1108 43.1703 41.1108 39.7673V30.5773C41.1108 30.3383 41.2118 30.2363 41.4518 30.2363H43.8338C44.0728 30.2363 44.1748 30.3383 44.1748 30.5773V39.7673C44.1748 41.4343 45.5698 42.8293 47.2378 42.8293C48.9058 42.8293 50.3018 41.4343 50.3018 39.7673V30.5773C50.3018 30.3383 50.4038 30.2363 50.6418 30.2363H53.0248C53.2608 30.2363 53.3648 30.3383 53.3648 30.5773V47.4243C53.3638 50.9613 51.2868 53.5503 47.2368 53.5503Z" fill="white"/>
<path d="M68.6147 38.4026H60.1067C59.8687 38.4026 59.7647 38.5036 59.7647 38.7436V40.1056C59.7647 41.7716 61.1607 43.1686 62.8287 43.1686C63.9847 43.1686 65.0417 42.4876 65.6857 41.1926C65.7547 41.0576 65.8577 40.9896 65.9587 40.9896C66.0597 40.9896 66.1637 41.0576 66.3687 41.1596L68.3067 42.1476C68.4427 42.2136 68.5117 42.3156 68.5117 42.4186C68.5117 42.5866 68.1017 43.3026 67.5257 43.9826C66.5737 45.0726 65.1427 45.8876 62.8287 45.8876C59.0837 45.8876 56.7017 43.5056 56.7017 40.1036V35.6796C56.7017 32.9556 59.0837 29.8906 62.8287 29.8906C66.5737 29.8906 68.9537 32.9556 68.9537 35.6796V38.0606C68.9547 38.3016 68.8537 38.4026 68.6147 38.4026ZM62.8297 32.6166C61.1617 32.6166 59.7657 34.0116 59.7657 35.6816C59.7657 35.9176 59.8697 36.0196 60.1077 36.0196H65.5527C65.7917 36.0196 65.8927 35.9176 65.8927 35.6816C65.8927 34.0106 64.4967 32.6166 62.8297 32.6166Z" fill="white"/>
<path d="M84.037 45.5504H81.654C81.416 45.5504 81.316 45.4484 81.316 45.2094V36.0194C81.316 34.3514 79.918 32.9574 78.252 32.9574C76.584 32.9574 75.189 34.3514 75.189 36.0194V45.2094C75.189 45.4484 75.085 45.5504 74.848 45.5504H72.466C72.226 45.5504 72.125 45.4484 72.125 45.2094V30.5754C72.125 30.3364 72.226 30.2344 72.466 30.2344H74.507C74.745 30.2344 74.848 30.3364 74.848 30.5754V30.9834C74.848 31.2234 74.951 31.3904 75.12 31.3904C75.22 31.3904 75.29 31.3244 75.391 31.2534C76.174 30.6074 77.399 30.2334 78.25 30.2334C81.995 30.2334 84.377 32.6154 84.377 36.0184V45.2084C84.379 45.4494 84.278 45.5504 84.037 45.5504Z" fill="white"/>
<path d="M90.7776 30.3106V21.8726H87.7886V33.2996H99.2186V30.3106H90.7776Z" fill="white"/>
<path d="M100.787 20.3025L100.785 28.7415H103.775L103.776 17.3145H92.3467V20.3025H100.787Z" fill="white"/>
<path d="M97.2904 23.7974H94.2754V26.8144H97.2904V23.7974Z" fill="white"/>
<path d="M107.415 39.0363C107.415 38.2123 107.599 37.4763 107.967 36.8283C108.343 36.1723 108.851 35.6643 109.491 35.3043C110.139 34.9363 110.863 34.7523 111.663 34.7523C112.599 34.7523 113.419 34.9923 114.123 35.4723C114.827 35.9523 115.319 36.6163 115.599 37.4643H113.667C113.475 37.0643 113.203 36.7643 112.851 36.5643C112.507 36.3643 112.107 36.2643 111.651 36.2643C111.163 36.2643 110.727 36.3803 110.343 36.6123C109.967 36.8363 109.671 37.1563 109.455 37.5723C109.247 37.9883 109.143 38.4763 109.143 39.0363C109.143 39.5883 109.247 40.0763 109.455 40.5003C109.671 40.9163 109.967 41.2403 110.343 41.4723C110.727 41.6963 111.163 41.8083 111.651 41.8083C112.107 41.8083 112.507 41.7083 112.851 41.5083C113.203 41.3003 113.475 40.9963 113.667 40.5963H115.599C115.319 41.4523 114.827 42.1203 114.123 42.6003C113.427 43.0723 112.607 43.3083 111.663 43.3083C110.863 43.3083 110.139 43.1283 109.491 42.7683C108.851 42.4003 108.343 41.8923 107.967 41.2443C107.599 40.5963 107.415 39.8603 107.415 39.0363ZM121.282 43.3203C120.498 43.3203 119.778 43.1363 119.122 42.7683C118.466 42.4003 117.946 41.8923 117.562 41.2443C117.178 40.5883 116.986 39.8483 116.986 39.0243C116.986 38.2083 117.178 37.4763 117.562 36.8283C117.946 36.1723 118.466 35.6603 119.122 35.2923C119.778 34.9243 120.498 34.7403 121.282 34.7403C122.074 34.7403 122.794 34.9243 123.442 35.2923C124.098 35.6603 124.614 36.1723 124.99 36.8283C125.374 37.4763 125.566 38.2083 125.566 39.0243C125.566 39.8483 125.374 40.5883 124.99 41.2443C124.614 41.8923 124.098 42.4003 123.442 42.7683C122.786 43.1363 122.066 43.3203 121.282 43.3203ZM121.282 41.8203C121.786 41.8203 122.23 41.7083 122.614 41.4843C122.998 41.2523 123.298 40.9243 123.514 40.5003C123.73 40.0763 123.838 39.5843 123.838 39.0243C123.838 38.4643 123.73 37.9763 123.514 37.5603C123.298 37.1363 122.998 36.8123 122.614 36.5883C122.23 36.3643 121.786 36.2523 121.282 36.2523C120.778 36.2523 120.33 36.3643 119.938 36.5883C119.554 36.8123 119.254 37.1363 119.038 37.5603C118.822 37.9763 118.714 38.4643 118.714 39.0243C118.714 39.5843 118.822 40.0763 119.038 40.5003C119.254 40.9243 119.554 41.2523 119.938 41.4843C120.33 41.7083 120.778 41.8203 121.282 41.8203ZM133.284 37.4523C133.284 37.9003 133.176 38.3203 132.96 38.7123C132.752 39.1043 132.42 39.4203 131.964 39.6603C131.516 39.9003 130.948 40.0203 130.26 40.0203H128.856V43.2363H127.176V34.8603H130.26C130.908 34.8603 131.46 34.9723 131.916 35.1963C132.372 35.4203 132.712 35.7283 132.936 36.1203C133.168 36.5123 133.284 36.9563 133.284 37.4523ZM130.188 38.6643C130.652 38.6643 130.996 38.5603 131.22 38.3523C131.444 38.1363 131.556 37.8363 131.556 37.4523C131.556 36.6363 131.1 36.2283 130.188 36.2283H128.856V38.6643H130.188ZM141.497 34.8603L138.665 40.3203V43.2363H136.985V40.3203L134.141 34.8603H136.037L137.837 38.6883L139.625 34.8603H141.497ZM147.146 43.2363L145.298 39.9723H144.506V43.2363H142.826V34.8603H145.97C146.618 34.8603 147.17 34.9763 147.626 35.2083C148.082 35.4323 148.422 35.7403 148.646 36.1323C148.878 36.5163 148.994 36.9483 148.994 37.4283C148.994 37.9803 148.834 38.4803 148.514 38.9283C148.194 39.3683 147.718 39.6723 147.086 39.8403L149.09 43.2363H147.146ZM144.506 38.7123H145.91C146.366 38.7123 146.706 38.6043 146.93 38.3883C147.154 38.1643 147.266 37.8563 147.266 37.4643C147.266 37.0803 147.154 36.7843 146.93 36.5763C146.706 36.3603 146.366 36.2523 145.91 36.2523H144.506V38.7123ZM152.553 34.8603V43.2363H150.873V34.8603H152.553ZM160.405 37.3803C160.213 37.0283 159.949 36.7603 159.613 36.5763C159.277 36.3923 158.885 36.3003 158.437 36.3003C157.941 36.3003 157.501 36.4123 157.117 36.6363C156.733 36.8603 156.433 37.1803 156.217 37.5963C156.001 38.0123 155.893 38.4923 155.893 39.0363C155.893 39.5963 156.001 40.0843 156.217 40.5003C156.441 40.9163 156.749 41.2363 157.141 41.4603C157.533 41.6843 157.989 41.7963 158.509 41.7963C159.149 41.7963 159.673 41.6283 160.081 41.2923C160.489 40.9483 160.757 40.4723 160.885 39.8643H158.005V38.5803H162.541V40.0443C162.429 40.6283 162.189 41.1683 161.821 41.6643C161.453 42.1603 160.977 42.5603 160.393 42.8643C159.817 43.1603 159.169 43.3083 158.449 43.3083C157.641 43.3083 156.909 43.1283 156.253 42.7683C155.605 42.4003 155.093 41.8923 154.717 41.2443C154.349 40.5963 154.165 39.8603 154.165 39.0363C154.165 38.2123 154.349 37.4763 154.717 36.8283C155.093 36.1723 155.605 35.6643 156.253 35.3043C156.909 34.9363 157.637 34.7523 158.437 34.7523C159.381 34.7523 160.201 34.9843 160.897 35.4483C161.593 35.9043 162.073 36.5483 162.337 37.3803H160.405ZM171.092 34.8603V43.2363H169.412V39.6723H165.824V43.2363H164.144V34.8603H165.824V38.3043H169.412V34.8603H171.092ZM178.806 34.8603V36.2163H176.574V43.2363H174.894V36.2163H172.662V34.8603H178.806ZM187.499 34.7403C188.315 34.7403 189.039 34.9243 189.671 35.2923C190.311 35.6523 190.807 36.1603 191.159 36.8163C191.519 37.4643 191.699 38.2043 191.699 39.0363C191.699 39.8683 191.519 40.6123 191.159 41.2683C190.807 41.9163 190.311 42.4243 189.671 42.7923C189.039 43.1523 188.315 43.3323 187.499 43.3323C186.675 43.3323 185.943 43.1523 185.303 42.7923C184.671 42.4243 184.175 41.9163 183.815 41.2683C183.463 40.6123 183.287 39.8683 183.287 39.0363C183.287 38.2043 183.463 37.4643 183.815 36.8163C184.175 36.1603 184.671 35.6523 185.303 35.2923C185.943 34.9243 186.675 34.7403 187.499 34.7403ZM187.499 35.3523C186.779 35.3523 186.151 35.5043 185.615 35.8083C185.079 36.1043 184.667 36.5323 184.379 37.0923C184.091 37.6443 183.947 38.2923 183.947 39.0363C183.947 39.7723 184.091 40.4203 184.379 40.9803C184.667 41.5323 185.079 41.9643 185.615 42.2763C186.151 42.5803 186.779 42.7323 187.499 42.7323C188.211 42.7323 188.835 42.5803 189.371 42.2763C189.907 41.9643 190.319 41.5323 190.607 40.9803C190.895 40.4203 191.039 39.7723 191.039 39.0363C191.039 38.2923 190.895 37.6443 190.607 37.0923C190.319 36.5323 189.907 36.1043 189.371 35.8083C188.843 35.5043 188.219 35.3523 187.499 35.3523ZM187.487 36.3003C186.983 36.3003 186.531 36.4123 186.131 36.6363C185.731 36.8603 185.415 37.1803 185.183 37.5963C184.959 38.0043 184.847 38.4803 184.847 39.0243C184.847 39.5683 184.959 40.0483 185.183 40.4643C185.415 40.8803 185.731 41.2003 186.131 41.4243C186.531 41.6483 186.983 41.7603 187.487 41.7603C188.103 41.7603 188.635 41.5923 189.083 41.2563C189.531 40.9123 189.823 40.4603 189.959 39.9003H188.483C188.395 40.1243 188.267 40.2963 188.099 40.4163C187.939 40.5363 187.723 40.5963 187.451 40.5963C187.083 40.5963 186.791 40.4643 186.575 40.2003C186.367 39.9283 186.263 39.5363 186.263 39.0243C186.263 38.5123 186.367 38.1243 186.575 37.8603C186.791 37.5963 187.083 37.4643 187.451 37.4643C187.707 37.4643 187.923 37.5243 188.099 37.6443C188.283 37.7643 188.411 37.9363 188.483 38.1603H189.959C189.823 37.5843 189.531 37.1323 189.083 36.8043C188.643 36.4683 188.111 36.3003 187.487 36.3003ZM196.948 41.3403C197.716 40.7003 198.328 40.1683 198.784 39.7443C199.24 39.3123 199.62 38.8643 199.924 38.4003C200.228 37.9363 200.38 37.4803 200.38 37.0323C200.38 36.6243 200.284 36.3043 200.092 36.0723C199.9 35.8403 199.604 35.7243 199.204 35.7243C198.804 35.7243 198.496 35.8603 198.28 36.1323C198.064 36.3963 197.952 36.7603 197.944 37.2243H196.312C196.344 36.2643 196.628 35.5363 197.164 35.0403C197.708 34.5443 198.396 34.2963 199.228 34.2963C200.14 34.2963 200.84 34.5403 201.328 35.0283C201.816 35.5083 202.06 36.1443 202.06 36.9363C202.06 37.5603 201.892 38.1563 201.556 38.7243C201.22 39.2923 200.836 39.7883 200.404 40.2123C199.972 40.6283 199.408 41.1323 198.712 41.7243H202.252V43.1163H196.324V41.8683L196.948 41.3403ZM203.671 38.7483C203.671 37.3643 203.919 36.2803 204.415 35.4963C204.919 34.7123 205.751 34.3203 206.911 34.3203C208.071 34.3203 208.899 34.7123 209.395 35.4963C209.899 36.2803 210.151 37.3643 210.151 38.7483C210.151 40.1403 209.899 41.2323 209.395 42.0243C208.899 42.8163 208.071 43.2123 206.911 43.2123C205.751 43.2123 204.919 42.8163 204.415 42.0243C203.919 41.2323 203.671 40.1403 203.671 38.7483ZM208.495 38.7483C208.495 38.1563 208.455 37.6603 208.375 37.2603C208.303 36.8523 208.151 36.5203 207.919 36.2643C207.695 36.0083 207.359 35.8803 206.911 35.8803C206.463 35.8803 206.123 36.0083 205.891 36.2643C205.667 36.5203 205.515 36.8523 205.435 37.2603C205.363 37.6603 205.327 38.1563 205.327 38.7483C205.327 39.3563 205.363 39.8683 205.435 40.2843C205.507 40.6923 205.659 41.0243 205.891 41.2803C206.123 41.5283 206.463 41.6523 206.911 41.6523C207.359 41.6523 207.699 41.5283 207.931 41.2803C208.163 41.0243 208.315 40.6923 208.387 40.2843C208.459 39.8683 208.495 39.3563 208.495 38.7483ZM212.316 41.3403C213.084 40.7003 213.696 40.1683 214.152 39.7443C214.608 39.3123 214.988 38.8643 215.292 38.4003C215.596 37.9363 215.748 37.4803 215.748 37.0323C215.748 36.6243 215.652 36.3043 215.46 36.0723C215.268 35.8403 214.972 35.7243 214.572 35.7243C214.172 35.7243 213.864 35.8603 213.648 36.1323C213.432 36.3963 213.32 36.7603 213.312 37.2243H211.68C211.712 36.2643 211.996 35.5363 212.532 35.0403C213.076 34.5443 213.764 34.2963 214.596 34.2963C215.508 34.2963 216.208 34.5403 216.696 35.0283C217.184 35.5083 217.428 36.1443 217.428 36.9363C217.428 37.5603 217.26 38.1563 216.924 38.7243C216.588 39.2923 216.204 39.7883 215.772 40.2123C215.34 40.6283 214.776 41.1323 214.08 41.7243H217.62V43.1163H211.692V41.8683L212.316 41.3403ZM218.835 36.0363V34.4883H221.727V43.2363H219.999V36.0363H218.835ZM232.294 41.6403H228.958L228.406 43.2363H226.642L229.654 34.8483H231.61L234.622 43.2363H232.846L232.294 41.6403ZM231.838 40.2963L230.626 36.7923L229.414 40.2963H231.838ZM241.808 34.8603V36.2163H239.576V43.2363H237.896V36.2163H235.664V34.8603H241.808ZM248.53 41.6403H245.194L244.642 43.2363H242.878L245.89 34.8483H247.846L250.858 43.2363H249.082L248.53 41.6403ZM248.074 40.2963L246.862 36.7923L245.65 40.2963H248.074ZM259.004 34.8603L256.172 40.3203V43.2363H254.492V40.3203L251.648 34.8603H253.544L255.344 38.6883L257.132 34.8603H259.004ZM262.012 36.2163V38.3163H264.832V39.6483H262.012V41.8683H265.192V43.2363H260.332V34.8483H265.192V36.2163H262.012ZM274.243 43.2363H272.563L268.759 37.4883V43.2363H267.079V34.8483H268.759L272.563 40.6083V34.8483H274.243V43.2363ZM278.099 41.4723L276.695 44.8443H275.615L276.395 41.4723H278.099ZM284.57 34.8603V43.2363H282.89V34.8603H284.57ZM293.754 43.2363H292.074L288.27 37.4883V43.2363H286.59V34.8483H288.27L292.074 40.6083V34.8483H293.754V43.2363ZM295.366 39.0363C295.366 38.2123 295.55 37.4763 295.918 36.8283C296.294 36.1723 296.802 35.6643 297.442 35.3043C298.09 34.9363 298.814 34.7523 299.614 34.7523C300.55 34.7523 301.37 34.9923 302.074 35.4723C302.778 35.9523 303.27 36.6163 303.55 37.4643H301.618C301.426 37.0643 301.154 36.7643 300.802 36.5643C300.458 36.3643 300.058 36.2643 299.602 36.2643C299.114 36.2643 298.678 36.3803 298.294 36.6123C297.918 36.8363 297.622 37.1563 297.406 37.5723C297.198 37.9883 297.094 38.4763 297.094 39.0363C297.094 39.5883 297.198 40.0763 297.406 40.5003C297.622 40.9163 297.918 41.2403 298.294 41.4723C298.678 41.6963 299.114 41.8083 299.602 41.8083C300.058 41.8083 300.458 41.7083 300.802 41.5083C301.154 41.3003 301.426 40.9963 301.618 40.5963H303.55C303.27 41.4523 302.778 42.1203 302.074 42.6003C301.378 43.0723 300.558 43.3083 299.614 43.3083C298.814 43.3083 298.09 43.1283 297.442 42.7683C296.802 42.4003 296.294 41.8923 295.918 41.2443C295.55 40.5963 295.366 39.8603 295.366 39.0363ZM306.089 43.3203C305.785 43.3203 305.533 43.2283 305.333 43.0443C305.141 42.8523 305.045 42.6163 305.045 42.3363C305.045 42.0563 305.141 41.8243 305.333 41.6403C305.533 41.4483 305.785 41.3523 306.089 41.3523C306.385 41.3523 306.629 41.4483 306.821 41.6403C307.013 41.8243 307.109 42.0563 307.109 42.3363C307.109 42.6163 307.013 42.8523 306.821 43.0443C306.629 43.2283 306.385 43.3203 306.089 43.3203ZM317.177 41.6403H313.841L313.289 43.2363H311.525L314.537 34.8483H316.493L319.505 43.2363H317.729L317.177 41.6403ZM316.721 40.2963L315.509 36.7923L314.297 40.2963H316.721ZM322.671 41.9043H325.431V43.2363H320.991V34.8603H322.671V41.9043ZM328.539 41.9043H331.299V43.2363H326.859V34.8603H328.539V41.9043ZM340.266 43.2363L338.418 39.9723H337.626V43.2363H335.946V34.8603H339.09C339.738 34.8603 340.29 34.9763 340.746 35.2083C341.202 35.4323 341.542 35.7403 341.766 36.1323C341.998 36.5163 342.114 36.9483 342.114 37.4283C342.114 37.9803 341.954 38.4803 341.634 38.9283C341.314 39.3683 340.838 39.6723 340.206 39.8403L342.21 43.2363H340.266ZM337.626 38.7123H339.03C339.486 38.7123 339.826 38.6043 340.05 38.3883C340.274 38.1643 340.386 37.8563 340.386 37.4643C340.386 37.0803 340.274 36.7843 340.05 36.5763C339.826 36.3603 339.486 36.2523 339.03 36.2523H337.626V38.7123ZM345.674 34.8603V43.2363H343.994V34.8603H345.674ZM353.525 37.3803C353.333 37.0283 353.069 36.7603 352.733 36.5763C352.397 36.3923 352.005 36.3003 351.557 36.3003C351.061 36.3003 350.621 36.4123 350.237 36.6363C349.853 36.8603 349.553 37.1803 349.337 37.5963C349.121 38.0123 349.013 38.4923 349.013 39.0363C349.013 39.5963 349.121 40.0843 349.337 40.5003C349.561 40.9163 349.869 41.2363 350.261 41.4603C350.653 41.6843 351.109 41.7963 351.629 41.7963C352.269 41.7963 352.793 41.6283 353.201 41.2923C353.609 40.9483 353.877 40.4723 354.005 39.8643H351.125V38.5803H355.661V40.0443C355.549 40.6283 355.309 41.1683 354.941 41.6643C354.573 42.1603 354.097 42.5603 353.513 42.8643C352.937 43.1603 352.289 43.3083 351.569 43.3083C350.761 43.3083 350.029 43.1283 349.373 42.7683C348.725 42.4003 348.213 41.8923 347.837 41.2443C347.469 40.5963 347.285 39.8603 347.285 39.0363C347.285 38.2123 347.469 37.4763 347.837 36.8283C348.213 36.1723 348.725 35.6643 349.373 35.3043C350.029 34.9363 350.757 34.7523 351.557 34.7523C352.501 34.7523 353.321 34.9843 354.017 35.4483C354.713 35.9043 355.193 36.5483 355.457 37.3803H353.525ZM364.212 34.8603V43.2363H362.532V39.6723H358.944V43.2363H357.264V34.8603H358.944V38.3043H362.532V34.8603H364.212ZM371.926 34.8603V36.2163H369.694V43.2363H368.014V36.2163H365.782V34.8603H371.926ZM381.051 43.2363L379.203 39.9723H378.411V43.2363H376.731V34.8603H379.875C380.523 34.8603 381.075 34.9763 381.531 35.2083C381.987 35.4323 382.327 35.7403 382.551 36.1323C382.783 36.5163 382.899 36.9483 382.899 37.4283C382.899 37.9803 382.739 38.4803 382.419 38.9283C382.099 39.3683 381.623 39.6723 380.991 39.8403L382.995 43.2363H381.051ZM378.411 38.7123H379.815C380.271 38.7123 380.611 38.6043 380.835 38.3883C381.059 38.1643 381.171 37.8563 381.171 37.4643C381.171 37.0803 381.059 36.7843 380.835 36.5763C380.611 36.3603 380.271 36.2523 379.815 36.2523H378.411V38.7123ZM386.459 36.2163V38.3163H389.279V39.6483H386.459V41.8683H389.639V43.2363H384.779V34.8483H389.639V36.2163H386.459ZM394.417 43.3203C393.833 43.3203 393.305 43.2203 392.833 43.0203C392.369 42.8203 392.001 42.5323 391.729 42.1563C391.457 41.7803 391.317 41.3363 391.309 40.8243H393.109C393.133 41.1683 393.253 41.4403 393.469 41.6403C393.693 41.8403 393.997 41.9403 394.381 41.9403C394.773 41.9403 395.081 41.8483 395.305 41.6643C395.529 41.4723 395.641 41.2243 395.641 40.9203C395.641 40.6723 395.565 40.4683 395.413 40.3083C395.261 40.1483 395.069 40.0243 394.837 39.9363C394.613 39.8403 394.301 39.7363 393.901 39.6243C393.357 39.4643 392.913 39.3083 392.569 39.1563C392.233 38.9963 391.941 38.7603 391.693 38.4483C391.453 38.1283 391.333 37.7043 391.333 37.1763C391.333 36.6803 391.457 36.2483 391.705 35.8803C391.953 35.5123 392.301 35.2323 392.749 35.0403C393.197 34.8403 393.709 34.7403 394.285 34.7403C395.149 34.7403 395.849 34.9523 396.385 35.3763C396.929 35.7923 397.229 36.3763 397.285 37.1283H395.437C395.421 36.8403 395.297 36.6043 395.065 36.4203C394.841 36.2283 394.541 36.1323 394.165 36.1323C393.837 36.1323 393.573 36.2163 393.373 36.3843C393.181 36.5523 393.085 36.7963 393.085 37.1163C393.085 37.3403 393.157 37.5283 393.301 37.6803C393.453 37.8243 393.637 37.9443 393.853 38.0403C394.077 38.1283 394.389 38.2323 394.789 38.3523C395.333 38.5123 395.777 38.6723 396.121 38.8323C396.465 38.9923 396.761 39.2323 397.009 39.5523C397.257 39.8723 397.381 40.2923 397.381 40.8123C397.381 41.2603 397.265 41.6763 397.033 42.0603C396.801 42.4443 396.461 42.7523 396.013 42.9843C395.565 43.2083 395.033 43.3203 394.417 43.3203ZM400.878 36.2163V38.3163H403.698V39.6483H400.878V41.8683H404.058V43.2363H399.198V34.8483H404.058V36.2163H400.878ZM410.265 43.2363L408.417 39.9723H407.625V43.2363H405.945V34.8603H409.089C409.737 34.8603 410.289 34.9763 410.745 35.2083C411.201 35.4323 411.541 35.7403 411.765 36.1323C411.997 36.5163 412.113 36.9483 412.113 37.4283C412.113 37.9803 411.953 38.4803 411.633 38.9283C411.313 39.3683 410.837 39.6723 410.205 39.8403L412.209 43.2363H410.265ZM407.625 38.7123H409.029C409.485 38.7123 409.825 38.6043 410.049 38.3883C410.273 38.1643 410.385 37.8563 410.385 37.4643C410.385 37.0803 410.273 36.7843 410.049 36.5763C409.825 36.3603 409.485 36.2523 409.029 36.2523H407.625V38.7123ZM421.516 34.8603L418.444 43.2363H416.404L413.332 34.8603H415.132L417.436 41.5203L419.728 34.8603H421.516ZM424.563 36.2163V38.3163H427.383V39.6483H424.563V41.8683H427.743V43.2363H422.883V34.8483H427.743V36.2163H424.563ZM432.558 34.8603C433.438 34.8603 434.21 35.0323 434.874 35.3763C435.546 35.7203 436.062 36.2123 436.422 36.8523C436.79 37.4843 436.974 38.2203 436.974 39.0603C436.974 39.9003 436.79 40.6363 436.422 41.2683C436.062 41.8923 435.546 42.3763 434.874 42.7203C434.21 43.0643 433.438 43.2363 432.558 43.2363H429.63V34.8603H432.558ZM432.498 41.8083C433.378 41.8083 434.058 41.5683 434.538 41.0883C435.018 40.6083 435.258 39.9323 435.258 39.0603C435.258 38.1883 435.018 37.5083 434.538 37.0203C434.058 36.5243 433.378 36.2763 432.498 36.2763H431.31V41.8083H432.498Z" fill="white"/>
</svg>
