<svg width="22" height="23" viewBox="0 0 22 23" fill="none" xmlns="http://www.w3.org/2000/svg">
<path d="M15.7982 20.4489H6.32504C5.38287 20.4489 4.4793 20.1012 3.81308 19.4824C3.14687 18.8635 2.77259 18.0241 2.77259 17.1489V6.14893C2.77259 5.85719 2.64784 5.5774 2.42577 5.37111C2.20369 5.16482 1.9025 5.04893 1.58845 5.04893C1.27439 5.04893 0.973197 5.16482 0.751126 5.37111C0.529055 5.5774 0.404297 5.85719 0.404297 6.14893V17.1489C0.404297 18.6076 1.02809 20.0066 2.13844 21.038C3.2488 22.0695 4.75476 22.6489 6.32504 22.6489H15.7982C16.1123 22.6489 16.4135 22.533 16.6356 22.3267C16.8576 22.1205 16.9824 21.8407 16.9824 21.5489C16.9824 21.2572 16.8576 20.9774 16.6356 20.7711C16.4135 20.5648 16.1123 20.4489 15.7982 20.4489ZM21.719 8.28293C21.7066 8.18187 21.6828 8.08232 21.6479 7.98593V7.88693C21.591 7.77382 21.515 7.66986 21.4229 7.57893L14.318 0.978926C14.2202 0.893364 14.1082 0.822815 13.9865 0.769926H13.8799L13.501 0.648926H8.69334C7.75117 0.648926 6.84759 0.996603 6.18138 1.61547C5.51517 2.23434 5.14089 3.07371 5.14089 3.94893V14.9489C5.14089 15.8241 5.51517 16.6635 6.18138 17.2824C6.84759 17.9012 7.75117 18.2489 8.69334 18.2489H18.1665C19.1087 18.2489 20.0123 17.9012 20.6785 17.2824C21.3447 16.6635 21.719 15.8241 21.719 14.9489V8.34893V8.28293ZM14.6141 4.39993L17.681 7.24893H15.7982C15.4842 7.24893 15.183 7.13303 14.9609 6.92674C14.7388 6.72045 14.6141 6.44066 14.6141 6.14893V4.39993ZM19.3507 14.9489C19.3507 15.2407 19.2259 15.5205 19.0039 15.7267C18.7818 15.933 18.4806 16.0489 18.1665 16.0489H8.69334C8.37928 16.0489 8.07809 15.933 7.85602 15.7267C7.63395 15.5205 7.50919 15.2407 7.50919 14.9489V3.94893C7.50919 3.65719 7.63395 3.3774 7.85602 3.17111C8.07809 2.96482 8.37928 2.84893 8.69334 2.84893H12.2458V6.14893C12.2458 7.02414 12.6201 7.86351 13.2863 8.48238C13.9525 9.10125 14.8561 9.44893 15.7982 9.44893H19.3507V14.9489Z" fill="#4048FF"/>
</svg>
