<svg width="19" height="19" viewBox="0 0 19 19" fill="none" xmlns="http://www.w3.org/2000/svg">
<path d="M13.3278 16.8332H5.32776C4.53211 16.8332 3.76905 16.5396 3.20644 16.0169C2.64383 15.4943 2.32776 14.7855 2.32776 14.0464V4.75699C2.32776 4.51062 2.2224 4.27434 2.03487 4.10013C1.84733 3.92592 1.59298 3.82805 1.32776 3.82805C1.06254 3.82805 0.808188 3.92592 0.620652 4.10013C0.433116 4.27434 0.327759 4.51062 0.327759 4.75699V14.0464C0.327759 15.2782 0.854543 16.4596 1.79222 17.3307C2.72991 18.2017 4.00168 18.691 5.32776 18.691H13.3278C13.593 18.691 13.8473 18.5932 14.0349 18.419C14.2224 18.2448 14.3278 18.0085 14.3278 17.7621C14.3278 17.5157 14.2224 17.2795 14.0349 17.1053C13.8473 16.931 13.593 16.8332 13.3278 16.8332ZM18.3278 6.55913C18.3173 6.47379 18.2972 6.38972 18.2678 6.30832V6.22471C18.2197 6.1292 18.1555 6.0414 18.0778 5.96461L12.0778 0.390986C11.9951 0.31873 11.9006 0.259152 11.7978 0.214488H11.7078L11.3878 0.112305H7.32776C6.53211 0.112305 5.76905 0.405914 5.20644 0.928543C4.64383 1.45117 4.32776 2.16001 4.32776 2.89912V12.1885C4.32776 12.9276 4.64383 13.6364 5.20644 14.1591C5.76905 14.6817 6.53211 14.9753 7.32776 14.9753H15.3278C16.1234 14.9753 16.8865 14.6817 17.4491 14.1591C18.0117 13.6364 18.3278 12.9276 18.3278 12.1885V6.61487V6.55913ZM12.3278 3.27998L14.9178 5.68593H13.3278C13.0625 5.68593 12.8082 5.58806 12.6207 5.41385C12.4331 5.23964 12.3278 5.00336 12.3278 4.75699V3.27998ZM16.3278 12.1885C16.3278 12.4349 16.2224 12.6711 16.0349 12.8453C15.8473 13.0196 15.593 13.1174 15.3278 13.1174H7.32776C7.06254 13.1174 6.80819 13.0196 6.62065 12.8453C6.43312 12.6711 6.32776 12.4349 6.32776 12.1885V2.89912C6.32776 2.65275 6.43312 2.41647 6.62065 2.24226C6.80819 2.06805 7.06254 1.97018 7.32776 1.97018H10.3278V4.75699C10.3278 5.4961 10.6438 6.20494 11.2064 6.72756C11.769 7.25019 12.5321 7.5438 13.3278 7.5438H16.3278V12.1885Z" fill="#4048FF"/>
</svg>
