<svg width="18" height="20" viewBox="0 0 18 20" fill="none" xmlns="http://www.w3.org/2000/svg">
<path d="M15.67 4.83333H15.17V5.33333V17.3333C15.17 17.9079 14.9416 18.459 14.5351 18.8653C14.1285 19.2717 13.577 19.5 13.002 19.5H4.9979C4.42282 19.5 3.87135 19.2717 3.46478 18.8653C3.05823 18.459 2.82987 17.9079 2.82987 17.3333V5.33333V4.83333H2.32987H1.66287C1.44159 4.83333 1.22943 4.74547 1.07304 4.58917C0.916664 4.43287 0.828857 4.22093 0.828857 4V2.66667C0.828857 2.44573 0.916664 2.2338 1.07304 2.0775C1.22943 1.92119 1.44159 1.83333 1.66287 1.83333H6.33191H6.83191V1.33333C6.83191 1.1124 6.91972 0.900468 7.0761 0.744168L6.72263 0.390524L7.0761 0.744167C7.23248 0.587859 7.44464 0.5 7.66592 0.5H10.3339C10.5552 0.5 10.7674 0.587859 10.9238 0.744168C11.0801 0.900468 11.168 1.1124 11.168 1.33333V1.83333H11.668H16.337C16.5583 1.83333 16.7704 1.92119 16.9268 2.0775C17.0832 2.2338 17.171 2.44574 17.171 2.66667V4C17.171 4.22093 17.0832 4.43287 16.9268 4.58917C16.7704 4.74548 16.5583 4.83333 16.337 4.83333H15.67ZM3.8213 4.83333H3.70332L3.59779 4.88607L3.44037 4.96474L3.16389 5.10291V5.412V17.3333C3.16389 17.8196 3.35717 18.286 3.70115 18.6298C4.04511 18.9736 4.51157 19.1667 4.9979 19.1667H13.002C13.4883 19.1667 13.9548 18.9736 14.2987 18.6298C14.6427 18.286 14.836 17.8196 14.836 17.3333V5.412V5.10291L14.5595 4.96474L14.4021 4.88607L14.2965 4.83333H14.1786H3.8213ZM1.16287 4V4.5H1.66287H16.337H16.837V4V2.66667V2.16667H16.337H1.66287H1.16287V2.66667V4Z" fill="#75758F" stroke="#75758F"/>
</svg>
