<svg width="162" height="162" viewBox="0 0 162 162" fill="none" xmlns="http://www.w3.org/2000/svg">
<path d="M161.13 80.4832C161.13 124.716 125.272 160.574 81.0395 160.574C36.8067 160.574 0.948853 124.716 0.948853 80.4832C0.948853 36.2504 36.8067 0.392578 81.0395 0.392578C125.272 0.392578 161.13 36.2504 161.13 80.4832Z" fill="#F52079"/>
<circle cx="106.769" cy="53.372" r="37.4677" fill="url(#paint0_radial_437_25306)"/>
<path d="M96.9639 29.504C93.0744 29.504 90.0966 32.5016 90.0966 36.4111V40.6396H86.1202V36.4111C86.1202 30.2985 90.891 25.5011 96.9639 25.5011C103.037 25.5011 107.808 30.2985 107.808 36.4111V40.6396H103.831V36.4111C103.831 32.5016 100.853 29.504 96.9639 29.504Z" fill="white" stroke="#FFC107" stroke-width="0.451419"/>
<path d="M85.905 40.6671H108.044C111.681 40.6671 114.46 43.4601 114.46 47.1228V62.7128C114.46 66.3755 111.681 69.1684 108.044 69.1684H85.905C82.2674 69.1684 79.4891 66.3755 79.4891 62.7128V47.1228C79.4891 43.4601 82.2674 40.6671 85.905 40.6671ZM99.414 58.2585V55.2322C100.074 54.5396 100.521 53.6238 100.521 52.6906C100.521 50.7856 98.8714 49.1242 96.9744 49.1242C95.0774 49.1242 93.4279 50.7856 93.4279 52.6906C93.4279 53.6238 93.8749 54.5396 94.5348 55.2322V58.2585C94.5348 58.9775 94.774 59.5944 95.2093 60.0323C95.6446 60.4703 96.2585 60.7113 96.9744 60.7113C97.6903 60.7113 98.3042 60.4703 98.7395 60.0323C99.1748 59.5944 99.414 58.9775 99.414 58.2585Z" fill="white" stroke="#FFC107" stroke-width="0.451419"/>
<path d="M94.4266 16.3211C94.4796 16.1779 94.6821 16.1779 94.7351 16.3211L95.2861 17.8103C95.3028 17.8554 95.3383 17.8909 95.3833 17.9075L96.8725 18.4586C97.0157 18.5116 97.0157 18.7141 96.8725 18.767L95.3833 19.3181C95.3383 19.3348 95.3028 19.3703 95.2861 19.4153L94.7351 20.9045C94.6821 21.0477 94.4796 21.0477 94.4266 20.9045L93.8755 19.4153C93.8589 19.3703 93.8234 19.3348 93.7784 19.3181L92.2891 18.767C92.1459 18.7141 92.1459 18.5116 92.2891 18.4586L93.7784 17.9075C93.8234 17.8909 93.8589 17.8554 93.8755 17.8103L94.4266 16.3211Z" fill="#FFD45E"/>
<path d="M137.686 71.6018C137.765 71.387 138.069 71.387 138.148 71.6018L138.975 73.8356C139 73.9032 139.053 73.9564 139.121 73.9814L141.354 74.808C141.569 74.8875 141.569 75.1912 141.354 75.2707L139.121 76.0973C139.053 76.1223 139 76.1755 138.975 76.243L138.148 78.4769C138.069 78.6917 137.765 78.6917 137.686 78.4769L136.859 76.243C136.834 76.1755 136.781 76.1223 136.713 76.0973L134.479 75.2707C134.265 75.1912 134.265 74.8875 134.479 74.808L136.713 73.9814C136.781 73.9564 136.834 73.9032 136.859 73.8356L137.686 71.6018Z" fill="#FFD45E"/>
<path d="M87.7064 12.5708C87.7417 12.4754 87.8767 12.4754 87.912 12.5708L88.2794 13.5637C88.2905 13.5937 88.3142 13.6173 88.3442 13.6284L89.337 13.9958C89.4325 14.0311 89.4325 14.1661 89.337 14.2015L88.3442 14.5688C88.3142 14.5799 88.2905 14.6036 88.2794 14.6336L87.912 15.6265C87.8767 15.7219 87.7417 15.7219 87.7064 15.6265L87.339 14.6336C87.3279 14.6036 87.3042 14.5799 87.2742 14.5688L86.2814 14.2015C86.186 14.1661 86.186 14.0311 86.2814 13.9958L87.2742 13.6284C87.3042 13.6173 87.3279 13.5937 87.339 13.5637L87.7064 12.5708Z" fill="white" fill-opacity="0.5"/>
<path d="M139.117 59.2059C139.17 59.0627 139.373 59.0627 139.425 59.2059L139.977 60.6951C139.993 60.7401 140.029 60.7756 140.074 60.7923L141.563 61.3433C141.706 61.3963 141.706 61.5988 141.563 61.6518L140.074 62.2029C140.029 62.2195 139.993 62.255 139.977 62.3L139.425 63.7893C139.373 63.9325 139.17 63.9325 139.117 63.7893L138.566 62.3C138.549 62.255 138.514 62.2195 138.469 62.2029L136.98 61.6518C136.836 61.5988 136.836 61.3963 136.98 61.3433L138.469 60.7923C138.514 60.7756 138.549 60.7401 138.566 60.6951L139.117 59.2059Z" fill="white"/>
<path d="M83.5921 25.3504C83.6451 25.2072 83.8476 25.2072 83.9006 25.3504L84.4517 26.8396C84.4683 26.8847 84.5038 26.9201 84.5488 26.9368L86.0381 27.4879C86.1812 27.5409 86.1812 27.7434 86.0381 27.7963L84.5488 28.3474C84.5038 28.3641 84.4683 28.3996 84.4517 28.4446L83.9006 29.9338C83.8476 30.077 83.6451 30.077 83.5921 29.9338L83.0411 28.4446C83.0244 28.3996 82.9889 28.3641 82.9439 28.3474L81.4546 27.7963C81.3115 27.7434 81.3115 27.5409 81.4546 27.4879L82.9439 26.9368C82.9889 26.9201 83.0244 26.8847 83.0411 26.8396L83.5921 25.3504Z" fill="white"/>
<path d="M127.38 21.7371C127.433 21.5939 127.636 21.5939 127.689 21.7371L128.24 23.2264C128.256 23.2714 128.292 23.3069 128.337 23.3235L129.826 23.8746C129.969 23.9276 129.969 24.1301 129.826 24.1831L128.337 24.7341C128.292 24.7508 128.256 24.7863 128.24 24.8313L127.689 26.3205C127.636 26.4637 127.433 26.4637 127.38 26.3205L126.829 24.8313C126.812 24.7863 126.777 24.7508 126.732 24.7341L125.243 24.1831C125.1 24.1301 125.1 23.9276 125.243 23.8746L126.732 23.3235C126.777 23.3069 126.812 23.2714 126.829 23.2264L127.38 21.7371Z" fill="white" fill-opacity="0.5"/>
<g filter="url(#filter0_d_437_25306)">
<path d="M56.8465 83.3158C56.8465 83.3158 61.6306 91.2206 66.2444 92.5842C70.8583 93.9478 74.6037 88.443 76.0708 82.7294" stroke="url(#paint1_linear_437_25306)" stroke-width="6.9594" stroke-linecap="round"/>
<path d="M67.735 90.418C68.0453 91.1898 68.4529 92.1105 68.2148 94.3631" stroke="#C7D2D7" stroke-opacity="0.3" stroke-width="1.64319" stroke-linecap="round"/>
<path d="M65.6127 90.2051C65.7433 90.7999 65.9346 91.521 65.2273 92.9057" stroke="#C7D2D7" stroke-opacity="0.3" stroke-width="1.64319" stroke-linecap="round"/>
<path d="M70.017 89.8262C70.5035 90.1925 71.1183 90.6151 71.4834 92.1265" stroke="#C7D2D7" stroke-opacity="0.3" stroke-width="1.64319" stroke-linecap="round"/>
</g>
<g filter="url(#filter1_d_437_25306)">
<g filter="url(#filter2_d_437_25306)">
<path d="M51.6017 78.1717C55.6816 77.7134 59.5861 80.1149 60.7861 84.1581C63.4915 93.273 65.8805 105.317 64.1224 109.311C62.1921 113.697 56.9748 115.55 53.5786 116.114L53.5796 116.123C53.3466 116.161 53.091 116.195 52.8161 116.224C52.5417 116.256 52.2848 116.28 52.0493 116.295L52.0483 116.286C48.6117 116.49 43.1131 115.84 40.2581 111.992C37.6576 108.488 37.3149 96.2134 37.9306 86.7255C38.2037 82.5168 41.478 79.3089 45.558 78.8506L51.6017 78.1717Z" fill="url(#paint2_linear_437_25306)"/>
<g filter="url(#filter3_d_437_25306)">
<rect x="41.2419" y="89.416" width="8.39399" height="6.76889" rx="1.0065" transform="rotate(-6.40923 41.2419 89.416)" fill="url(#paint3_linear_437_25306)"/>
<rect x="41.0565" y="89.268" width="8.72949" height="7.10439" rx="1.17425" transform="rotate(-6.40923 41.0565 89.268)" stroke="#EFF2F3" stroke-width="0.335499"/>
</g>
<path d="M44.613 91.8626L44.6029 91.8637C44.7635 91.4319 45.1537 91.1045 45.6404 91.0498C45.9543 91.0146 46.2542 91.0988 46.4953 91.2665L46.503 91.2656L47.0012 91.2097C46.6594 90.826 46.1448 90.6085 45.5977 90.67C44.7628 90.7638 44.146 91.474 44.1441 92.2999L45.1945 92.1818L45.2372 92.5615L44.1865 92.6796L44.1873 92.6825C44.2173 92.8117 44.262 92.9345 44.3195 93.0493L45.2797 92.9414L45.3883 93.908C45.513 93.9393 45.643 93.956 45.7757 93.9566L45.6569 92.8991L46.0341 92.8567L46.1529 93.9143C46.2823 93.8843 46.4053 93.8392 46.5199 93.781L46.4113 92.8143L47.3715 92.7064C47.4169 92.5217 47.4311 92.3257 47.4086 92.1254C47.3861 91.9251 47.3288 91.7371 47.2435 91.5671L47.0201 91.5922L44.613 91.8626ZM45.9915 92.4769L45.6143 92.5193L45.5717 92.1395L45.9489 92.0971L45.9915 92.4769ZM47.0387 92.3593L46.3688 92.4345L46.3262 92.0548L46.996 91.9795C47.0123 92.0404 47.0243 92.1033 47.0315 92.1678C47.0388 92.2323 47.0411 92.2963 47.0387 92.3593Z" fill="#9FF9FF"/>
<path d="M45.5106 89.9059C44.1931 90.0539 43.2459 91.2491 43.3949 92.5755C43.5439 93.9018 44.7327 94.8571 46.0502 94.7091C47.3677 94.5611 48.3149 93.3659 48.1659 92.0395C48.0169 90.7132 46.8282 89.7579 45.5106 89.9059ZM46.0075 94.3287C44.8987 94.4532 43.8982 93.6493 43.7728 92.533C43.6474 91.4167 44.4446 90.4108 45.5534 90.2863C46.6621 90.1617 47.6627 90.9657 47.7881 92.082C47.9134 93.1982 47.1162 94.2041 46.0075 94.3287Z" fill="#9FF9FF"/>
<g filter="url(#filter4_d_437_25306)">
<ellipse cx="55.2752" cy="89.2766" rx="1.38766" ry="1.42676" transform="rotate(-6.40923 55.2752 89.2766)" fill="url(#paint4_radial_437_25306)"/>
<path d="M55.4532 90.8611C56.3112 90.7648 56.9187 89.9737 56.8209 89.103C56.7231 88.2323 55.9552 87.5957 55.0972 87.6921C54.2392 87.7884 53.6317 88.5795 53.7295 89.4502C53.8273 90.321 54.5952 90.9575 55.4532 90.8611Z" stroke="#EFF2F3" stroke-width="0.335499"/>
</g>
<g filter="url(#filter5_d_437_25306)">
<ellipse cx="55.7123" cy="93.1672" rx="1.38766" ry="1.42676" transform="rotate(-6.40923 55.7123 93.1672)" fill="url(#paint5_radial_437_25306)"/>
<path d="M55.8903 94.7518C56.7483 94.6554 57.3558 93.8643 57.258 92.9936C57.1602 92.1229 56.3923 91.4863 55.5343 91.5827C54.6763 91.6791 54.0688 92.4701 54.1666 93.3409C54.2644 94.2116 55.0323 94.8482 55.8903 94.7518Z" stroke="#EFF2F3" stroke-width="0.335499"/>
</g>
<path d="M53.3172 110.482L53.388 104.891L64.5704 105.032L64.4997 110.623L53.3172 110.482ZM65.8957 128.991C66.2404 132.06 64.032 134.827 60.9631 135.172C57.8943 135.516 55.127 133.308 54.7822 130.239L65.8957 128.991ZM64.4997 110.623C64.4331 115.882 65.4335 124.877 65.8957 128.991L54.7822 130.239C54.3497 126.388 53.2399 116.597 53.3172 110.482L64.4997 110.623Z" fill="white"/>
<path d="M51.1667 115.859L52.7285 110.49L41.9903 107.367L40.4285 112.736L51.1667 115.859ZM36.7044 130.209C36.0945 133.236 38.0543 136.185 41.0817 136.795C44.109 137.404 47.0576 135.445 47.6675 132.417L36.7044 130.209ZM40.4285 112.736C40.0498 114.037 39.0869 118.606 38.2923 122.441C37.8764 124.448 37.4795 126.39 37.1868 127.828C37.0404 128.548 36.9199 129.143 36.836 129.557C36.794 129.765 36.7612 129.927 36.7388 130.038C36.7276 130.094 36.7191 130.136 36.7133 130.165C36.7104 130.179 36.7082 130.19 36.7067 130.197C36.706 130.201 36.7054 130.204 36.705 130.206C36.7048 130.207 36.7047 130.207 36.7046 130.208C36.7045 130.208 36.7045 130.208 36.7045 130.209C36.7044 130.209 36.7044 130.209 42.1859 131.313C47.6675 132.417 47.6675 132.417 47.6675 132.417C47.6675 132.417 47.6675 132.417 47.6676 132.417C47.6677 132.416 47.6678 132.416 47.668 132.415C47.6683 132.413 47.6688 132.411 47.6696 132.407C47.671 132.4 47.6731 132.389 47.6759 132.375C47.6816 132.347 47.69 132.306 47.701 132.251C47.7231 132.142 47.7556 131.981 47.7972 131.775C47.8805 131.364 48.0001 130.773 48.1456 130.058C48.4367 128.627 48.8307 126.7 49.243 124.71C49.6558 122.718 50.0846 120.674 50.4459 119.007C50.6268 118.173 50.7878 117.446 50.9196 116.874C50.9855 116.588 51.0416 116.352 51.0873 116.167C51.11 116.075 51.1286 116.002 51.1433 115.946C51.1506 115.918 51.1563 115.897 51.1606 115.881C51.1649 115.865 51.1669 115.859 51.1667 115.859L40.4285 112.736Z" fill="white"/>
<path d="M62.6541 110.762C59.5141 113.744 50.9897 118.383 42.0117 113.08" stroke="#C7D2D7" stroke-opacity="0.3" stroke-width="1.90116" stroke-linecap="round"/>
<path d="M62.7736 117.408C61.6709 117.862 60.3596 118.444 57.0173 118.541" stroke="#C7D2D7" stroke-opacity="0.3" stroke-width="1.90116" stroke-linecap="round"/>
<path d="M42.2192 117.785C43.3224 118.252 44.6345 118.848 47.9769 118.984" stroke="#C7D2D7" stroke-opacity="0.3" stroke-width="1.90116" stroke-linecap="round"/>
<path d="M60.2471 121.914C59.6854 122.042 59.0143 122.215 57.4087 121.994" stroke="#C7D2D7" stroke-opacity="0.3" stroke-width="1.90116" stroke-linecap="round"/>
<path d="M42.7039 121.488C43.2545 121.666 43.911 121.898 45.5273 121.82" stroke="#C7D2D7" stroke-opacity="0.3" stroke-width="1.90116" stroke-linecap="round"/>
</g>
<g filter="url(#filter6_d_437_25306)">
<path d="M38.6298 84.3215C34.2772 86.5274 31.0719 91.5737 30.3901 95.7996C29.8897 98.9006 30.1134 103.563 33.2842 107.526" stroke="url(#paint6_linear_437_25306)" stroke-width="8.05199" stroke-linecap="round"/>
<path d="M32.8203 95.877C31.9325 95.8573 30.8573 95.8709 28.7557 94.6818" stroke="#C7D2D7" stroke-opacity="0.3" stroke-width="1.90116" stroke-linecap="round"/>
<path d="M33.4303 92.7051C32.8843 92.7047 32.2086 92.7364 31.3604 91.753" stroke="#C7D2D7" stroke-opacity="0.3" stroke-width="1.90116" stroke-linecap="round"/>
<path d="M32.0179 98.5664C31.5576 98.7669 31.0051 99.0363 29.7653 98.6946" stroke="#C7D2D7" stroke-opacity="0.3" stroke-width="1.90116" stroke-linecap="round"/>
</g>
<path d="M29.6347 105.562C28.1783 106.514 27.9768 108.55 29.2201 109.751L31.5765 112.027C31.8652 112.306 32.2029 112.51 32.5635 112.636C38.02 118.773 37.1569 122.4 39.8991 121.237C41.5405 119.739 42.0146 117.074 41.1591 113.197C41.1088 113.076 41.0591 112.957 41.0106 112.839C42.0193 114.002 43.0242 113.678 43.2677 112.779C43.4974 111.932 41.844 110.395 39.9748 109.057C39.7002 108.896 39.3346 108.699 38.912 108.5C39.002 107.985 38.9419 107.442 38.714 106.939L37.4673 104.186C36.7815 102.671 34.8865 102.131 33.4818 103.048L29.6347 105.562Z" fill="#282522"/>
<g filter="url(#filter7_d_437_25306)">
<path d="M45.5661 82.7054C35.3161 82.2885 27.3448 73.6412 27.7618 63.3912C28.1787 53.1413 36.8259 45.17 47.0759 45.5869C57.3259 46.0038 65.2972 54.6511 64.8802 64.901C64.4633 75.151 55.8161 83.1223 45.5661 82.7054Z" fill="url(#paint7_radial_437_25306)"/>
<path d="M34.0799 65.7079C34.3638 68.2352 35.2016 69.528 37.4238 70.0115L56.2977 67.8913C58.3573 66.9269 58.8873 65.4804 58.6035 62.9532C57.5942 53.9686 51.7363 51.3081 44.9643 52.0688C38.1923 52.8295 33.0628 56.6533 34.0799 65.7079Z" fill="url(#paint8_linear_437_25306)" stroke="#AE6666" stroke-opacity="0.5" stroke-width="0.335499"/>
<g style="mix-blend-mode:multiply">
<path d="M34.702 60.2861C36.009 56.189 38.1595 53.5968 44.3125 52.4364C41.1587 53.944 43.6899 57.2857 43.788 61.0201C43.9093 65.4316 37.1195 67.0542 38.3579 68.3158C38.7531 68.7119 39.3151 68.9154 39.8736 68.8564L56.6385 67.0546C56.4407 67.4823 56.4201 67.6491 55.8224 67.7091L37.8628 69.7266C37.3043 69.7855 35.9333 69.5788 34.8956 67.9491C34.2056 66.8652 34.3913 61.26 34.702 60.2861Z" fill="url(#paint9_radial_437_25306)"/>
</g>
<path d="M37.0404 65.1872C36.7928 66.6132 38.5306 68.3405 40.0839 68.166" stroke="white" stroke-width="1.79986" stroke-linecap="round"/>
<path d="M54.7878 59.512C54.318 57.6485 52.1964 54.032 47.4684 54.4738" stroke="white" stroke-width="2.27982" stroke-linecap="round"/>
</g>
<path fill-rule="evenodd" clip-rule="evenodd" d="M65.1779 125.072C62.8917 125.658 59.1787 126.578 55.3098 126.047C54.5938 125.949 53.9451 126.559 54.0669 127.271L55.5627 136.015C55.5783 136.106 55.6056 136.194 55.6449 136.276L55.5517 136.285C55.5949 136.91 55.7909 138.842 55.9357 140.269C55.9921 140.824 56.0407 141.303 56.0695 141.599C56.235 143.296 61.4433 142.789 62.2986 141.848C63.066 142.618 64.7885 142.456 65.5602 142.384C65.6669 142.374 65.7555 142.366 65.8208 142.362C70.304 142.095 72.2689 141.205 72.5359 140.705C72.5359 140.705 73.0523 140.452 72.8826 138.71C72.6336 136.155 69.2639 135.982 66.1577 135.916L66.3966 126.05C66.4124 125.395 65.812 124.91 65.1779 125.072Z" fill="#282522"/>
<path d="M64.9253 139.725C68.7482 140.509 71.6517 139.328 72.5912 138.755C72.3134 135.905 67.7722 136.075 65.9276 136.255C62.7092 136.568 63.5583 136.743 62.7332 137.746C61.6092 139.114 61.1024 138.941 64.9253 139.725Z" fill="url(#paint10_linear_437_25306)"/>
<path fill-rule="evenodd" clip-rule="evenodd" d="M38.0107 125.07C40.23 125.789 43.7666 126.792 47.724 126.6C48.4281 126.566 48.9993 127.209 48.8316 127.894L46.816 136.122C46.7898 136.229 46.7473 136.331 46.6886 136.421C46.5421 137.276 46.1912 139.193 45.9293 140.193C45.6652 141.202 45.433 141.79 44.6031 141.992C43.7848 143.629 41.6542 144.63 37.4072 143.717C33.2015 142.812 33.2124 142.004 33.2178 141.595C33.2179 141.591 33.2179 141.587 33.218 141.583C33.1514 141.914 33.131 142.016 33.5817 139.775C33.8416 138.483 34.8891 137.244 36.3357 136.35C36.1329 136.16 36.0314 135.88 36.0504 135.595L36.6938 125.957C36.7376 125.301 37.3856 124.867 38.0107 125.07Z" fill="#282522"/>
<path d="M42.2391 140.785C39.7163 141.432 34.7679 139.763 34.25 139.178C34.0825 138.015 36.1967 136.392 37.5923 136.21C39.6742 135.939 42.3326 136.757 42.8674 137.661C43.0683 138.001 44.7619 140.138 42.2391 140.785Z" fill="url(#paint11_linear_437_25306)"/>
</g>
<path d="M76.1723 88.0771C77.6195 89.2347 79.7474 88.7618 80.5497 87.1043L82.0703 83.9627C82.2566 83.5778 82.3502 83.1682 82.3583 82.7613C85.279 80.9213 86.3131 79.7724 84.2087 76.2175C82.2851 72.9681 82.2368 72.0033 80.0686 73.875C79.9631 73.9661 78.3331 75.1425 78.2304 75.2306C79.0714 73.8233 76.8916 71.5999 76.0744 72.1462C75.2572 72.6925 75.7349 73.7731 75.8635 75.2471C75.7461 77.1766 76.1227 77.2167 76.0622 77.7105C75.5106 77.7907 74.9809 78.0321 74.5472 78.4301L72.1754 80.607C70.8706 81.8045 70.9531 83.9023 72.3491 85.0189L76.1723 88.0771Z" fill="#282522"/>
<defs>
<filter id="filter0_d_437_25306" x="52.6322" y="79.248" width="28.0559" height="20.3944" filterUnits="userSpaceOnUse" color-interpolation-filters="sRGB">
<feFlood flood-opacity="0" result="BackgroundImageFix"/>
<feColorMatrix in="SourceAlpha" type="matrix" values="0 0 0 0 0 0 0 0 0 0 0 0 0 0 0 0 0 0 127 0" result="hardAlpha"/>
<feOffset dy="0.386633"/>
<feGaussianBlur stdDeviation="0.193317"/>
<feComposite in2="hardAlpha" operator="out"/>
<feColorMatrix type="matrix" values="0 0 0 0 0 0 0 0 0 0 0 0 0 0 0 0 0 0 0.25 0"/>
<feBlend mode="normal" in2="BackgroundImageFix" result="effect1_dropShadow_437_25306"/>
<feBlend mode="normal" in="SourceGraphic" in2="effect1_dropShadow_437_25306" result="shape"/>
</filter>
<filter id="filter1_d_437_25306" x="20.1585" y="40.7324" width="54.7884" height="108.863" filterUnits="userSpaceOnUse" color-interpolation-filters="sRGB">
<feFlood flood-opacity="0" result="BackgroundImageFix"/>
<feColorMatrix in="SourceAlpha" type="matrix" values="0 0 0 0 0 0 0 0 0 0 0 0 0 0 0 0 0 0 127 0" result="hardAlpha"/>
<feOffset dy="2.03008"/>
<feGaussianBlur stdDeviation="1.01504"/>
<feComposite in2="hardAlpha" operator="out"/>
<feColorMatrix type="matrix" values="0 0 0 0 0 0 0 0 0 0 0 0 0 0 0 0 0 0 0.25 0"/>
<feBlend mode="normal" in2="BackgroundImageFix" result="effect1_dropShadow_437_25306"/>
<feBlend mode="normal" in="SourceGraphic" in2="effect1_dropShadow_437_25306" result="shape"/>
</filter>
<filter id="filter2_d_437_25306" x="30.8799" y="76.959" width="37.7714" height="61.3458" filterUnits="userSpaceOnUse" color-interpolation-filters="sRGB">
<feFlood flood-opacity="0" result="BackgroundImageFix"/>
<feColorMatrix in="SourceAlpha" type="matrix" values="0 0 0 0 0 0 0 0 0 0 0 0 0 0 0 0 0 0 127 0" result="hardAlpha"/>
<feOffset dy="0.447333"/>
<feGaussianBlur stdDeviation="0.223666"/>
<feComposite in2="hardAlpha" operator="out"/>
<feColorMatrix type="matrix" values="0 0 0 0 0 0 0 0 0 0 0 0 0 0 0 0 0 0 0.25 0"/>
<feBlend mode="normal" in2="BackgroundImageFix" result="effect1_dropShadow_437_25306"/>
<feBlend mode="normal" in="SourceGraphic" in2="effect1_dropShadow_437_25306" result="shape"/>
</filter>
<filter id="filter3_d_437_25306" x="40.565" y="88.25" width="10.4509" height="9.01771" filterUnits="userSpaceOnUse" color-interpolation-filters="sRGB">
<feFlood flood-opacity="0" result="BackgroundImageFix"/>
<feColorMatrix in="SourceAlpha" type="matrix" values="0 0 0 0 0 0 0 0 0 0 0 0 0 0 0 0 0 0 127 0" result="hardAlpha"/>
<feOffset dy="0.447333"/>
<feGaussianBlur stdDeviation="0.223666"/>
<feComposite in2="hardAlpha" operator="out"/>
<feColorMatrix type="matrix" values="0 0 0 0 0 0 0 0 0 0 0 0 0 0 0 0 0 0 0.25 0"/>
<feBlend mode="normal" in2="BackgroundImageFix" result="effect1_dropShadow_437_25306"/>
<feBlend mode="normal" in="SourceGraphic" in2="effect1_dropShadow_437_25306" result="shape"/>
</filter>
<filter id="filter4_d_437_25306" x="53.1041" y="87.5137" width="4.34218" height="4.42006" filterUnits="userSpaceOnUse" color-interpolation-filters="sRGB">
<feFlood flood-opacity="0" result="BackgroundImageFix"/>
<feColorMatrix in="SourceAlpha" type="matrix" values="0 0 0 0 0 0 0 0 0 0 0 0 0 0 0 0 0 0 127 0" result="hardAlpha"/>
<feOffset dy="0.447333"/>
<feGaussianBlur stdDeviation="0.223666"/>
<feComposite in2="hardAlpha" operator="out"/>
<feColorMatrix type="matrix" values="0 0 0 0 0 0 0 0 0 0 0 0 0 0 0 0 0 0 0.25 0"/>
<feBlend mode="normal" in2="BackgroundImageFix" result="effect1_dropShadow_437_25306"/>
<feBlend mode="normal" in="SourceGraphic" in2="effect1_dropShadow_437_25306" result="shape"/>
</filter>
<filter id="filter5_d_437_25306" x="53.5412" y="91.4043" width="4.34218" height="4.42006" filterUnits="userSpaceOnUse" color-interpolation-filters="sRGB">
<feFlood flood-opacity="0" result="BackgroundImageFix"/>
<feColorMatrix in="SourceAlpha" type="matrix" values="0 0 0 0 0 0 0 0 0 0 0 0 0 0 0 0 0 0 127 0" result="hardAlpha"/>
<feOffset dy="0.447333"/>
<feGaussianBlur stdDeviation="0.223666"/>
<feComposite in2="hardAlpha" operator="out"/>
<feColorMatrix type="matrix" values="0 0 0 0 0 0 0 0 0 0 0 0 0 0 0 0 0 0 0.25 0"/>
<feBlend mode="normal" in2="BackgroundImageFix" result="effect1_dropShadow_437_25306"/>
<feBlend mode="normal" in="SourceGraphic" in2="effect1_dropShadow_437_25306" result="shape"/>
</filter>
<filter id="filter6_d_437_25306" x="21.7413" y="79.7773" width="27.2317" height="33.5841" filterUnits="userSpaceOnUse" color-interpolation-filters="sRGB">
<feFlood flood-opacity="0" result="BackgroundImageFix"/>
<feColorMatrix in="SourceAlpha" type="matrix" values="0 0 0 0 0 0 0 0 0 0 0 0 0 0 0 0 0 0 127 0" result="hardAlpha"/>
<feOffset dy="0.447333"/>
<feGaussianBlur stdDeviation="0.223666"/>
<feComposite in2="hardAlpha" operator="out"/>
<feColorMatrix type="matrix" values="0 0 0 0 0 0 0 0 0 0 0 0 0 0 0 0 0 0 0.25 0"/>
<feBlend mode="normal" in2="BackgroundImageFix" result="effect1_dropShadow_437_25306"/>
<feBlend mode="normal" in="SourceGraphic" in2="effect1_dropShadow_437_25306" result="shape"/>
</filter>
<filter id="filter7_d_437_25306" x="22.4607" y="40.7324" width="47.7205" height="47.7208" filterUnits="userSpaceOnUse" color-interpolation-filters="sRGB">
<feFlood flood-opacity="0" result="BackgroundImageFix"/>
<feColorMatrix in="SourceAlpha" type="matrix" values="0 0 0 0 0 0 0 0 0 0 0 0 0 0 0 0 0 0 127 0" result="hardAlpha"/>
<feOffset dy="0.447333"/>
<feGaussianBlur stdDeviation="0.223666"/>
<feComposite in2="hardAlpha" operator="out"/>
<feColorMatrix type="matrix" values="0 0 0 0 0 0 0 0 0 0 0 0 0 0 0 0 0 0 0.25 0"/>
<feBlend mode="normal" in2="BackgroundImageFix" result="effect1_dropShadow_437_25306"/>
<feBlend mode="normal" in="SourceGraphic" in2="effect1_dropShadow_437_25306" result="shape"/>
</filter>
<radialGradient id="paint0_radial_437_25306" cx="0" cy="0" r="1" gradientUnits="userSpaceOnUse" gradientTransform="translate(106.769 53.372) rotate(90) scale(37.4677)">
<stop stop-color="#FFC107"/>
<stop offset="0.994792" stop-color="#FFC107" stop-opacity="0"/>
</radialGradient>
<linearGradient id="paint1_linear_437_25306" x1="56.6837" y1="89.5878" x2="73.4146" y2="89.9652" gradientUnits="userSpaceOnUse">
<stop stop-color="#EFF2F3"/>
<stop offset="1" stop-color="white"/>
</linearGradient>
<linearGradient id="paint2_linear_437_25306" x1="48.5798" y1="78.5112" x2="52.8162" y2="116.224" gradientUnits="userSpaceOnUse">
<stop stop-color="#E3E9EB"/>
<stop offset="0.56737" stop-color="white"/>
</linearGradient>
<linearGradient id="paint3_linear_437_25306" x1="45.4389" y1="80.7786" x2="45.4389" y2="96.1849" gradientUnits="userSpaceOnUse">
<stop stop-color="#50D5FF"/>
<stop offset="1" stop-color="#2C3585"/>
</linearGradient>
<radialGradient id="paint4_radial_437_25306" cx="0" cy="0" r="1" gradientUnits="userSpaceOnUse" gradientTransform="translate(55.2752 89.2766) rotate(90) scale(2.07913 2.02216)">
<stop stop-color="#51E0FF"/>
<stop offset="1" stop-color="#4E7CB4"/>
</radialGradient>
<radialGradient id="paint5_radial_437_25306" cx="0" cy="0" r="1" gradientUnits="userSpaceOnUse" gradientTransform="translate(55.7123 93.1672) rotate(90) scale(2.07913 2.02216)">
<stop stop-color="#FFB3B3"/>
<stop offset="1" stop-color="#F20000"/>
</radialGradient>
<linearGradient id="paint6_linear_437_25306" x1="32.1507" y1="85.9781" x2="36.6281" y2="103.245" gradientUnits="userSpaceOnUse">
<stop stop-color="#EFF2F3"/>
<stop offset="1" stop-color="white"/>
</linearGradient>
<radialGradient id="paint7_radial_437_25306" cx="0" cy="0" r="1" gradientUnits="userSpaceOnUse" gradientTransform="translate(39.2344 88.7939) rotate(-177.671) scale(31.0538 31.0539)">
<stop offset="0.381" stop-color="#BFCCD1"/>
<stop offset="0.7578" stop-color="white"/>
</radialGradient>
<linearGradient id="paint8_linear_437_25306" x1="64.0673" y1="64.9598" x2="33.0641" y2="54.2375" gradientUnits="userSpaceOnUse">
<stop stop-color="#FFF668"/>
<stop offset="0.519247" stop-color="#FF9C4C"/>
<stop offset="1" stop-color="#880000"/>
</linearGradient>
<radialGradient id="paint9_radial_437_25306" cx="0" cy="0" r="1" gradientUnits="userSpaceOnUse" gradientTransform="translate(56.2679 66.3214) rotate(173.286) scale(39.2921 39.2921)">
<stop offset="0.180591" stop-color="white"/>
<stop offset="0.9385" stop-color="#880000"/>
</radialGradient>
<linearGradient id="paint10_linear_437_25306" x1="66.9482" y1="133.713" x2="65.4851" y2="138.696" gradientUnits="userSpaceOnUse">
<stop stop-color="#504A44"/>
<stop offset="1" stop-color="#504A44" stop-opacity="0"/>
</linearGradient>
<linearGradient id="paint11_linear_437_25306" x1="38.7404" y1="134.662" x2="40.3958" y2="139.017" gradientUnits="userSpaceOnUse">
<stop stop-color="#504A44"/>
<stop offset="1" stop-color="#504A44" stop-opacity="0"/>
</linearGradient>
</defs>
</svg>
