<svg width="30" height="33" viewBox="0 0 30 33" fill="none" xmlns="http://www.w3.org/2000/svg">
<mask id="path-1-outside-1" maskUnits="userSpaceOnUse" x="5.14062" y="6.27441" width="20" height="26" fill="black">
<rect fill="white" x="5.14062" y="6.27441" width="20" height="26"/>
<path fill-rule="evenodd" clip-rule="evenodd" d="M7.32528 20.5461C6.5487 19.2008 6.14011 17.6747 6.14063 16.1214C6.14085 14.5683 6.54987 13.0424 7.32658 11.6975C8.1033 10.3525 9.22034 9.23576 10.5654 8.45935C11.9105 7.68295 13.4363 7.27428 14.9894 7.27441C16.5425 7.27455 18.0682 7.68349 19.4132 8.46013C20.7581 9.23678 21.875 10.3538 22.6515 11.6988C23.4279 13.0439 23.8367 14.5696 23.8366 16.1227C23.8366 17.6758 23.4277 19.2016 22.6512 20.5466C21.8746 21.8916 20.7577 23.0085 19.4126 23.785C19.1032 23.9637 18.9126 24.2938 18.9126 24.651V27.6104C18.9126 28.6511 18.4992 29.6492 17.7633 30.3851C17.0274 31.121 16.0293 31.5344 14.9886 31.5344C13.9479 31.5344 12.9498 31.121 12.2139 30.3851C11.478 29.6492 11.0646 28.6511 11.0646 27.6104V24.651C11.0646 24.2937 10.874 23.9635 10.5645 23.7849C9.21906 23.0085 8.10187 21.8914 7.32528 20.5461ZM13.5131 24.8466C13.223 24.7979 12.9261 24.8793 12.7015 25.0693C12.4768 25.2593 12.3473 25.5386 12.3473 25.8328V27.6104C12.3473 28.3109 12.6256 28.9827 13.1209 29.4781C13.6163 29.9734 14.2881 30.2517 14.9886 30.2517C15.6892 30.2517 16.361 29.9734 16.8563 29.4781C17.3517 28.9827 17.63 28.3109 17.63 27.6104V25.8328C17.63 25.5386 17.5004 25.2593 17.2758 25.0693C17.0512 24.8793 16.7543 24.7979 16.4642 24.8466C15.4873 25.0109 14.4899 25.0109 13.5131 24.8466ZM14.9886 8.55569C12.9822 8.55569 11.0579 9.35275 9.63913 10.7715C8.22036 12.1903 7.4233 14.1146 7.4233 16.121C7.4233 18.1275 8.22036 20.0518 9.63913 21.4705C11.0579 22.8893 12.9822 23.6864 14.9886 23.6864C16.9951 23.6864 18.9194 22.8893 20.3381 21.4705C21.7569 20.0518 22.554 18.1275 22.554 16.121C22.554 14.1146 21.7569 12.1903 20.3381 10.7715C18.9194 9.35275 16.9951 8.55569 14.9886 8.55569Z"/>
</mask>
<path fill-rule="evenodd" clip-rule="evenodd" d="M7.32528 20.5461C6.5487 19.2008 6.14011 17.6747 6.14063 16.1214C6.14085 14.5683 6.54987 13.0424 7.32658 11.6975C8.1033 10.3525 9.22034 9.23576 10.5654 8.45935C11.9105 7.68295 13.4363 7.27428 14.9894 7.27441C16.5425 7.27455 18.0682 7.68349 19.4132 8.46013C20.7581 9.23678 21.875 10.3538 22.6515 11.6988C23.4279 13.0439 23.8367 14.5696 23.8366 16.1227C23.8366 17.6758 23.4277 19.2016 22.6512 20.5466C21.8746 21.8916 20.7577 23.0085 19.4126 23.785C19.1032 23.9637 18.9126 24.2938 18.9126 24.651V27.6104C18.9126 28.6511 18.4992 29.6492 17.7633 30.3851C17.0274 31.121 16.0293 31.5344 14.9886 31.5344C13.9479 31.5344 12.9498 31.121 12.2139 30.3851C11.478 29.6492 11.0646 28.6511 11.0646 27.6104V24.651C11.0646 24.2937 10.874 23.9635 10.5645 23.7849C9.21906 23.0085 8.10187 21.8914 7.32528 20.5461ZM13.5131 24.8466C13.223 24.7979 12.9261 24.8793 12.7015 25.0693C12.4768 25.2593 12.3473 25.5386 12.3473 25.8328V27.6104C12.3473 28.3109 12.6256 28.9827 13.1209 29.4781C13.6163 29.9734 14.2881 30.2517 14.9886 30.2517C15.6892 30.2517 16.361 29.9734 16.8563 29.4781C17.3517 28.9827 17.63 28.3109 17.63 27.6104V25.8328C17.63 25.5386 17.5004 25.2593 17.2758 25.0693C17.0512 24.8793 16.7543 24.7979 16.4642 24.8466C15.4873 25.0109 14.4899 25.0109 13.5131 24.8466ZM14.9886 8.55569C12.9822 8.55569 11.0579 9.35275 9.63913 10.7715C8.22036 12.1903 7.4233 14.1146 7.4233 16.121C7.4233 18.1275 8.22036 20.0518 9.63913 21.4705C11.0579 22.8893 12.9822 23.6864 14.9886 23.6864C16.9951 23.6864 18.9194 22.8893 20.3381 21.4705C21.7569 20.0518 22.554 18.1275 22.554 16.121C22.554 14.1146 21.7569 12.1903 20.3381 10.7715C18.9194 9.35275 16.9951 8.55569 14.9886 8.55569Z" fill="white"/>
<path d="M6.14063 16.1214L6.64063 16.1215V16.1214L6.14063 16.1214ZM7.32528 20.5461L7.75831 20.2962L7.32528 20.5461ZM7.32658 11.6975L7.75956 11.9475H7.75956L7.32658 11.6975ZM10.5654 8.45935L10.3155 8.02631L10.5654 8.45935ZM14.9894 7.27441L14.9895 6.77441L14.9894 7.27441ZM19.4132 8.46013L19.1631 8.89313L19.4132 8.46013ZM22.6515 11.6988L22.2184 11.9488V11.9488L22.6515 11.6988ZM19.4126 23.785L19.6626 24.218H19.6626L19.4126 23.785ZM17.7633 30.3851L17.4098 30.0315L17.7633 30.3851ZM12.2139 30.3851L12.5675 30.0315L12.2139 30.3851ZM10.5645 23.7849L10.8144 23.3519L10.8144 23.3519L10.5645 23.7849ZM12.7015 25.0693L12.3785 24.6876H12.3785L12.7015 25.0693ZM13.5131 24.8466L13.596 24.3536H13.596L13.5131 24.8466ZM13.1209 29.4781L13.4745 29.1245L13.1209 29.4781ZM16.4642 24.8466L16.3813 24.3536L16.4642 24.8466ZM9.63913 10.7715L9.99268 11.1251L9.99269 11.1251L9.63913 10.7715ZM9.63913 21.4705L9.99269 21.117L9.99268 21.117L9.63913 21.4705ZM20.3381 21.4705L19.9846 21.117V21.117L20.3381 21.4705ZM20.3381 10.7715L19.9846 11.1251V11.1251L20.3381 10.7715ZM5.64063 16.1212C5.64008 17.7624 6.07176 19.3747 6.89225 20.7961L7.75831 20.2962C7.02563 19.0269 6.64014 17.5871 6.64063 16.1215L5.64063 16.1212ZM6.8936 11.4474C6.07299 12.8684 5.64086 14.4804 5.64063 16.1213L6.64063 16.1214C6.64083 14.6561 7.02675 13.2164 7.75956 11.9475L6.8936 11.4474ZM10.3155 8.02631C8.89437 8.84659 7.71421 10.0265 6.8936 11.4474L7.75956 11.9475C8.49239 10.6786 9.5463 9.62492 10.8154 8.89239L10.3155 8.02631ZM14.9895 6.77441C13.3486 6.77427 11.7366 7.20603 10.3155 8.02631L10.8154 8.89239C12.0845 8.15986 13.524 7.77428 14.9894 7.77441L14.9895 6.77441ZM19.6632 8.02714C18.2422 7.20661 16.6303 6.77456 14.9895 6.77441L14.9894 7.77441C16.4547 7.77454 17.8942 8.16037 19.1631 8.89313L19.6632 8.02714ZM23.0845 11.4488C22.2641 10.0278 21.0842 8.84767 19.6632 8.02714L19.1631 8.89313C20.4321 9.62589 21.4858 10.6797 22.2184 11.9488L23.0845 11.4488ZM24.3366 16.1228C24.3367 14.4819 23.9048 12.8699 23.0845 11.4488L22.2184 11.9488C22.951 13.2179 23.3367 14.6574 23.3366 16.1227L24.3366 16.1228ZM23.0842 20.7966C23.9046 19.3756 24.3366 17.7636 24.3366 16.1228L23.3366 16.1227C23.3366 17.588 22.9508 19.0276 22.2181 20.2966L23.0842 20.7966ZM19.6626 24.218C21.0837 23.3976 22.2637 22.2176 23.0842 20.7966L22.2181 20.2966C21.4855 21.5656 20.4317 22.6193 19.1626 23.352L19.6626 24.218ZM19.4126 24.651C19.4126 24.4724 19.5079 24.3073 19.6626 24.218L19.1626 23.352C18.6985 23.62 18.4126 24.1151 18.4126 24.651H19.4126ZM19.4126 27.6104V24.651H18.4126V27.6104H19.4126ZM18.1169 30.7386C18.9465 29.909 19.4126 28.7837 19.4126 27.6104H18.4126C18.4126 28.5185 18.0519 29.3894 17.4098 30.0315L18.1169 30.7386ZM14.9886 32.0344C16.162 32.0344 17.2872 31.5683 18.1169 30.7386L17.4098 30.0315C16.7676 30.6736 15.8967 31.0344 14.9886 31.0344V32.0344ZM11.8604 30.7386C12.6901 31.5683 13.8153 32.0344 14.9886 32.0344V31.0344C14.0805 31.0344 13.2096 30.6736 12.5675 30.0315L11.8604 30.7386ZM10.5646 27.6104C10.5646 28.7837 11.0307 29.909 11.8604 30.7386L12.5675 30.0315C11.9254 29.3894 11.5646 28.5185 11.5646 27.6104H10.5646ZM10.5646 24.651V27.6104H11.5646V24.651H10.5646ZM10.3145 24.218C10.4693 24.3073 10.5646 24.4724 10.5646 24.651H11.5646C11.5646 24.115 11.2786 23.6198 10.8144 23.3519L10.3145 24.218ZM6.89225 20.7961C7.71274 22.2175 8.89309 23.3977 10.3145 24.218L10.8144 23.3519C9.54504 22.6193 8.491 21.5654 7.75831 20.2962L6.89225 20.7961ZM13.0244 25.4511C13.1367 25.3561 13.2851 25.3153 13.4302 25.3397L13.596 24.3536C13.1608 24.2804 12.7155 24.4026 12.3785 24.6876L13.0244 25.4511ZM12.8473 25.8328C12.8473 25.6857 12.9121 25.5461 13.0244 25.4511L12.3785 24.6876C12.0416 24.9726 11.8473 25.3915 11.8473 25.8328H12.8473ZM12.8473 27.6104V25.8328H11.8473V27.6104H12.8473ZM13.4745 29.1245C13.0729 28.7229 12.8473 28.1783 12.8473 27.6104H11.8473C11.8473 28.4435 12.1783 29.2425 12.7674 29.8316L13.4745 29.1245ZM14.9886 29.7517C14.4207 29.7517 13.8761 29.5261 13.4745 29.1245L12.7674 29.8316C13.3565 30.4207 14.1555 30.7517 14.9886 30.7517V29.7517ZM16.5028 29.1245C16.1012 29.5261 15.5566 29.7517 14.9886 29.7517V30.7517C15.8218 30.7517 16.6208 30.4207 17.2099 29.8316L16.5028 29.1245ZM17.13 27.6104C17.13 28.1783 16.9044 28.7229 16.5028 29.1245L17.2099 29.8316C17.799 29.2425 18.13 28.4435 18.13 27.6104H17.13ZM17.13 25.8328V27.6104H18.13V25.8328H17.13ZM16.9529 25.4511C17.0652 25.5461 17.13 25.6857 17.13 25.8328H18.13C18.13 25.3915 17.9356 24.9726 17.5987 24.6876L16.9529 25.4511ZM16.5471 25.3397C16.6921 25.3153 16.8406 25.3561 16.9529 25.4511L17.5987 24.6876C17.2618 24.4026 16.8165 24.2804 16.3813 24.3536L16.5471 25.3397ZM13.4302 25.3397C14.4619 25.5132 15.5154 25.5132 16.5471 25.3397L16.3813 24.3536C15.4593 24.5086 14.5179 24.5086 13.596 24.3536L13.4302 25.3397ZM9.99269 11.1251C11.3177 9.80007 13.1148 9.05569 14.9886 9.05569V8.05569C12.8496 8.05569 10.7981 8.90543 9.28558 10.418L9.99269 11.1251ZM7.9233 16.121C7.9233 14.2472 8.66768 12.4501 9.99268 11.1251L9.28558 10.418C7.77303 11.9305 6.9233 13.982 6.9233 16.121H7.9233ZM9.99268 21.117C8.66768 19.792 7.9233 17.9949 7.9233 16.121H6.9233C6.9233 18.2601 7.77303 20.3115 9.28558 21.8241L9.99268 21.117ZM14.9886 23.1864C13.1148 23.1864 11.3177 22.442 9.99269 21.117L9.28558 21.8241C10.7981 23.3366 12.8496 24.1864 14.9886 24.1864V23.1864ZM19.9846 21.117C18.6596 22.442 16.8625 23.1864 14.9886 23.1864V24.1864C17.1277 24.1864 19.1791 23.3366 20.6917 21.8241L19.9846 21.117ZM22.054 16.121C22.054 17.9949 21.3096 19.792 19.9846 21.117L20.6917 21.8241C22.2042 20.3115 23.054 18.2601 23.054 16.121H22.054ZM19.9846 11.1251C21.3096 12.4501 22.054 14.2472 22.054 16.121H23.054C23.054 13.982 22.2042 11.9305 20.6917 10.418L19.9846 11.1251ZM14.9886 9.05569C16.8625 9.05569 18.6596 9.80007 19.9846 11.1251L20.6917 10.418C19.1791 8.90543 17.1277 8.05569 14.9886 8.05569V9.05569Z" fill="white" mask="url(#path-1-outside-1)"/>
<rect x="16.0439" y="0.395508" width="3.5" height="2.10952" rx="1.05476" transform="rotate(90 16.0439 0.395508)" fill="white" stroke="white" stroke-width="0.5"/>
<rect x="22.3623" y="7.25684" width="3.5" height="2.10952" rx="1.05476" transform="rotate(-45 22.3623 7.25684)" fill="white" stroke="white" stroke-width="0.5"/>
<rect x="0.353553" width="3.5" height="2.10952" rx="1.05476" transform="matrix(-0.707107 -0.707107 -0.707107 0.707107 7.86576 7.50684)" fill="white" stroke="white" stroke-width="0.5"/>
<rect x="26.1973" y="14.7607" width="3.5" height="2.10952" rx="1.05476" fill="white" stroke="white" stroke-width="0.5"/>
<rect x="0.25" y="-0.25" width="3.5" height="2.10952" rx="1.05476" transform="matrix(-1 0 0 1 4.03027 15.0107)" fill="white" stroke="white" stroke-width="0.5"/>
</svg>
