<svg width="40" height="41" viewBox="0 0 40 41" fill="none" xmlns="http://www.w3.org/2000/svg">
<circle cx="20" cy="20.5" r="20" fill="#F52079"/>
<path d="M28.2929 14.02C28.6834 13.6294 28.6834 12.9963 28.2929 12.6058L27.8943 12.2071C27.5037 11.8166 26.8706 11.8166 26.48 12.2071L20 18.6871L13.52 12.2071C13.1294 11.8166 12.4963 11.8166 12.1058 12.2071L11.7071 12.6058C11.3166 12.9963 11.3166 13.6294 11.7071 14.02L18.1871 20.5L11.7071 26.98C11.3166 27.3706 11.3166 28.0037 11.7071 28.3943L12.1058 28.7929C12.4963 29.1834 13.1294 29.1834 13.52 28.7929L20 22.3129L26.48 28.7929C26.8706 29.1834 27.5037 29.1834 27.8943 28.7929L28.2929 28.3943C28.6834 28.0037 28.6834 27.3706 28.2929 26.98L21.8129 20.5L28.2929 14.02Z" fill="white"/>
</svg>
