<svg width="24" height="24" viewBox="0 0 24 24" fill="none" xmlns="http://www.w3.org/2000/svg">
<path d="M20.2929 5.51996C20.6834 5.12944 20.6834 4.49627 20.2929 4.10575L19.8943 3.70711C19.5037 3.31658 18.8706 3.31658 18.48 3.70711L12 10.1871L5.51996 3.70711C5.12944 3.31658 4.49627 3.31658 4.10575 3.70711L3.70711 4.10575C3.31658 4.49627 3.31658 5.12944 3.70711 5.51996L10.1871 12L3.70711 18.48C3.31658 18.8706 3.31658 19.5037 3.70711 19.8943L4.10575 20.2929C4.49627 20.6834 5.12944 20.6834 5.51996 20.2929L12 13.8129L18.48 20.2929C18.8706 20.6834 19.5037 20.6834 19.8943 20.2929L20.2929 19.8943C20.6834 19.5037 20.6834 18.8706 20.2929 18.48L13.8129 12L20.2929 5.51996Z" fill="white"/>
</svg>
