<svg width="22" height="23" viewBox="0 0 22 23" fill="none" xmlns="http://www.w3.org/2000/svg">
<circle cx="11" cy="11.502" r="10" stroke="#F52079" stroke-width="2"/>
<path d="M15.0468 8.3616C15.2971 8.11129 15.2971 7.70547 15.0468 7.45517C14.7965 7.20486 14.3907 7.20486 14.1404 7.45517L11.7071 9.88842C11.3166 10.2789 10.6834 10.2789 10.2929 9.88842L7.85964 7.45517C7.60934 7.20486 7.20352 7.20486 6.95321 7.45517C6.70291 7.70547 6.70291 8.11129 6.95321 8.3616L9.38646 10.7948C9.77699 11.1854 9.77699 11.8185 9.38646 12.2091L6.95321 14.6423C6.70291 14.8926 6.70291 15.2984 6.95321 15.5487C7.20352 15.799 7.60934 15.799 7.85964 15.5487L10.2929 13.1155C10.6834 12.725 11.3166 12.725 11.7071 13.1155L14.1404 15.5487C14.3907 15.799 14.7965 15.799 15.0468 15.5487C15.2971 15.2984 15.2971 14.8926 15.0468 14.6423L12.6135 12.2091C12.223 11.8185 12.223 11.1854 12.6135 10.7948L15.0468 8.3616Z" fill="#F52079"/>
</svg>
