<svg width="28" height="22" viewBox="0 0 28 22" fill="none" xmlns="http://www.w3.org/2000/svg">
<path d="M23.4944 0.953407C23.4944 0.953416 23.4944 0.953398 23.4944 0.953407V0.953407Z" fill="white"/>
<path d="M26.7972 4.2296L13.371 21.0124C13.178 21.2175 12.9462 21.3824 12.6889 21.4975C12.4275 21.6144 12.1452 21.6774 11.8588 21.6827C11.5725 21.688 11.288 21.6355 11.0224 21.5283C10.7569 21.4212 10.5156 21.2616 10.3131 21.0591L1.41824 12.1605L1.40806 12.151C1.19878 11.956 1.03092 11.7208 0.914503 11.4595C0.798082 11.1983 0.73548 10.9162 0.730434 10.6302C0.725388 10.3442 0.778 10.0601 0.885132 9.79486C0.992263 9.52963 1.15172 9.28869 1.35399 9.08642C1.55626 8.88415 1.79719 8.7247 2.06242 8.61757C2.32766 8.51043 2.61175 8.45782 2.89775 8.46287C3.18376 8.46791 3.46582 8.53052 3.72711 8.64694C3.98839 8.76336 4.22337 8.93138 4.41838 9.14066L11.783 16.5018L23.7343 1.27448C23.7446 1.26173 23.7557 1.24963 23.7674 1.23826L23.8597 1.14872C24.246 0.808905 24.7435 0.619355 25.2608 0.617928C25.8205 0.616384 26.3583 0.835162 26.7579 1.22696C27.1575 1.61877 27.3869 2.15211 27.3965 2.71169C27.406 3.27128 27.1949 3.81213 26.8089 4.21732L26.7972 4.2296Z" fill="white"/>
</svg>
