<svg width="14" height="16" viewBox="0 0 14 16" fill="none" xmlns="http://www.w3.org/2000/svg">
<path d="M7.19954 15.9097C10.6819 15.9097 13.5153 13.0763 13.5153 9.59392C13.5153 7.39884 12.3884 5.46427 10.6836 4.33275C10.1806 3.99886 9.56795 4.40326 9.56795 5.00705C9.56795 5.31095 9.73374 5.58693 9.97979 5.7653C10.5162 6.15418 10.9666 6.65244 11.3001 7.22916C11.7158 7.94802 11.9352 8.76353 11.9364 9.59392C11.9364 12.2063 9.81189 14.3307 7.19954 14.3307C4.58719 14.3307 2.46273 12.2063 2.46273 9.59392C2.46378 8.76351 2.68315 7.94797 3.09884 7.2291C3.43234 6.65238 3.88278 6.15413 4.41924 5.76528C4.66531 5.58692 4.83113 5.31093 4.83113 5.00701C4.83113 4.40324 4.21853 3.99885 3.71548 4.33273C2.01065 5.46424 0.883789 7.39883 0.883789 9.59392C0.883789 13.0763 3.71719 15.9097 7.19954 15.9097Z" fill="#323754"/>
<path d="M6.40918 1.69963C6.40918 1.26361 6.76264 0.910156 7.19865 0.910156C7.63466 0.910156 7.98812 1.26361 7.98812 1.69963V8.01538C7.98812 8.45139 7.63466 8.80485 7.19865 8.80485C6.76264 8.80485 6.40918 8.45139 6.40918 8.01538V1.69963Z" fill="#323754"/>
</svg>
