<svg width="13" height="16" viewBox="0 0 13 16" fill="none" xmlns="http://www.w3.org/2000/svg">
<path d="M6.64681 15.1685C10.1292 15.1685 12.9626 12.3351 12.9626 8.85271C12.9626 6.65763 11.8357 4.72306 10.1309 3.59154C9.62784 3.25765 9.01521 3.66205 9.01521 4.26584C9.01521 4.56974 9.18101 4.84572 9.42705 5.02409C9.96348 5.41297 10.4139 5.91123 10.7474 6.48795C11.1631 7.20681 11.3825 8.02232 11.3836 8.85271C11.3836 11.4651 9.25916 13.5895 6.64681 13.5895C4.03445 13.5895 1.90999 11.4651 1.90999 8.85271C1.91104 8.0223 2.13041 7.20676 2.54611 6.48789C2.8796 5.91117 3.33005 5.41292 3.86651 5.02407C4.11258 4.84571 4.2784 4.56972 4.2784 4.2658C4.2784 3.66203 3.6658 3.25764 3.16275 3.59152C1.45792 4.72303 0.331055 6.65762 0.331055 8.85271C0.331055 12.3351 3.16446 15.1685 6.64681 15.1685Z" fill="#ADADC8"/>
<path d="M5.85645 0.958414C5.85645 0.522403 6.2099 0.168945 6.64591 0.168945C7.08193 0.168945 7.43538 0.522403 7.43538 0.958414V7.27417C7.43538 7.71018 7.08193 8.06364 6.64591 8.06364C6.2099 8.06364 5.85645 7.71018 5.85645 7.27417V0.958414Z" fill="#ADADC8"/>
</svg>
