<svg width="25" height="25" viewBox="0 0 25 25" fill="none" xmlns="http://www.w3.org/2000/svg">
<g opacity="0.7">
<path d="M20.8664 6.11762C21.257 5.7271 21.257 5.09393 20.8664 4.70341L20.4678 4.30476C20.0773 3.91424 19.4441 3.91424 19.0536 4.30476L12.5735 10.7848L6.09351 4.30476C5.70299 3.91424 5.06982 3.91424 4.6793 4.30476L4.28065 4.70341C3.89013 5.09393 3.89013 5.7271 4.28065 6.11762L10.7607 12.5977L4.28065 19.0777C3.89013 19.4682 3.89013 20.1014 4.28065 20.4919L4.6793 20.8905C5.06982 21.2811 5.70299 21.2811 6.09351 20.8905L12.5735 14.4105L19.0536 20.8905C19.4441 21.2811 20.0773 21.2811 20.4678 20.8905L20.8664 20.4919C21.257 20.1014 21.257 19.4682 20.8664 19.0777L14.3864 12.5977L20.8664 6.11762Z" fill="#D6D6E8"/>
</g>
</svg>
