<svg width="28" height="28" viewBox="0 0 28 28" fill="none" xmlns="http://www.w3.org/2000/svg">
<circle cx="14" cy="14" r="13" stroke="#F52079" stroke-width="2"/>
<path d="M19.3957 9.81286C19.7295 9.47912 19.7295 8.93802 19.3957 8.60429C19.062 8.27055 18.5209 8.27055 18.1871 8.60429L14.7071 12.0843C14.3166 12.4748 13.6834 12.4748 13.2929 12.0843L9.81286 8.60429C9.47912 8.27055 8.93802 8.27055 8.60429 8.60429C8.27055 8.93802 8.27055 9.47912 8.60429 9.81286L12.0843 13.2929C12.4748 13.6834 12.4748 14.3166 12.0843 14.7071L8.60429 18.1871C8.27055 18.5209 8.27055 19.062 8.60429 19.3957C8.93802 19.7295 9.47912 19.7295 9.81286 19.3957L13.2929 15.9157C13.6834 15.5252 14.3166 15.5252 14.7071 15.9157L18.1871 19.3957C18.5209 19.7295 19.062 19.7295 19.3957 19.3957C19.7295 19.062 19.7295 18.5209 19.3957 18.1871L15.9157 14.7071C15.5252 14.3166 15.5252 13.6834 15.9157 13.2929L19.3957 9.81286Z" fill="#F52079"/>
</svg>
