<svg width="25" height="25" viewBox="0 0 25 25" fill="none" xmlns="http://www.w3.org/2000/svg">
<path d="M9.4297 9.91016C9.6066 9.91016 9.77626 9.98039 9.90135 10.1054C10.0264 10.2304 10.0967 10.4 10.0967 10.5768V18.5768C10.0967 18.7536 10.0264 18.9232 9.90135 19.0482C9.77626 19.1733 9.6066 19.2435 9.4297 19.2435C9.2528 19.2435 9.08314 19.1733 8.95806 19.0482C8.83297 18.9232 8.7627 18.7536 8.7627 18.5768V10.5768C8.7627 10.4 8.83297 10.2304 8.95806 10.1054C9.08314 9.98039 9.2528 9.91016 9.4297 9.91016ZM12.7647 9.91016C12.9416 9.91016 13.1113 9.98039 13.2364 10.1054C13.3615 10.2304 13.4317 10.4 13.4317 10.5768V18.5768C13.4317 18.7536 13.3615 18.9232 13.2364 19.0482C13.1113 19.1733 12.9416 19.2435 12.7647 19.2435C12.5878 19.2435 12.4182 19.1733 12.2931 19.0482C12.168 18.9232 12.0977 18.7536 12.0977 18.5768V10.5768C12.0977 10.4 12.168 10.2304 12.2931 10.1054C12.4182 9.98039 12.5878 9.91016 12.7647 9.91016ZM16.7668 10.5768C16.7668 10.4 16.6965 10.2304 16.5714 10.1054C16.4463 9.98039 16.2767 9.91016 16.0998 9.91016C15.9229 9.91016 15.7532 9.98039 15.6281 10.1054C15.503 10.2304 15.4328 10.4 15.4328 10.5768V18.5768C15.4328 18.7536 15.503 18.9232 15.6281 19.0482C15.7532 19.1733 15.9229 19.2435 16.0998 19.2435C16.2767 19.2435 16.4463 19.1733 16.5714 19.0482C16.6965 18.9232 16.7668 18.7536 16.7668 18.5768V10.5768Z" fill="#4048FF"/>
<path d="M19.4349 7.41341H18.9349V7.91341V19.9134C18.9349 20.488 18.7065 21.039 18.3 21.4454C17.8934 21.8517 17.3419 22.0801 16.7669 22.0801H8.76279C8.18771 22.0801 7.63624 21.8517 7.22968 21.4454C6.82312 21.039 6.59477 20.488 6.59477 19.9134V7.91341V7.41341H6.09477H5.42776C5.20649 7.41341 4.99432 7.32555 4.83794 7.16924C4.68156 7.01294 4.59375 6.80101 4.59375 6.58008V5.24675C4.59375 5.02581 4.68156 4.81388 4.83794 4.65758C4.99432 4.50127 5.20649 4.41341 5.42776 4.41341H10.0968H10.5968V3.91341C10.5968 3.69248 10.6846 3.48055 10.841 3.32425L10.4875 2.9706L10.841 3.32425C10.9974 3.16794 11.2095 3.08008 11.4308 3.08008H14.0988C14.3201 3.08008 14.5323 3.16794 14.6887 3.32425C14.845 3.48055 14.9328 3.69248 14.9328 3.91341V4.41341H15.4328H20.1019C20.3232 4.41341 20.5353 4.50127 20.6917 4.65758C20.8481 4.81388 20.9359 5.02581 20.9359 5.24675V6.58008C20.9359 6.80101 20.8481 7.01294 20.6917 7.16924C20.5353 7.32555 20.3232 7.41341 20.1019 7.41341H19.4349ZM7.58619 7.41341H7.46821L7.36268 7.46615L7.20526 7.54482L6.92878 7.68299V7.99208V19.9134C6.92878 20.3997 7.12207 20.8661 7.46604 21.2099C7.81 21.5537 8.27646 21.7467 8.76279 21.7467H16.7669C17.2532 21.7467 17.7196 21.5537 18.0636 21.2099C18.4076 20.8661 18.6009 20.3997 18.6009 19.9134V7.99208V7.68299L18.3244 7.54482L18.167 7.46615L18.0614 7.41341H17.9435H7.58619ZM4.92776 6.58008V7.08008H5.42776H20.1019H20.6019V6.58008V5.24675V4.74675H20.1019H5.42776H4.92776V5.24675V6.58008Z" fill="#4048FF" stroke="#4048FF"/>
</svg>
