<svg width="78" height="78" viewBox="0 0 78 78" fill="none" xmlns="http://www.w3.org/2000/svg">
<path d="M31.5168 34.0406C31.9026 34.0406 32.2725 34.1754 32.5452 34.4153C32.818 34.6552 32.9712 34.9806 32.9712 35.3199V50.6718C32.9712 51.0111 32.818 51.3365 32.5452 51.5764C32.2725 51.8163 31.9026 51.9511 31.5168 51.9511C31.1311 51.9511 30.7612 51.8163 30.4885 51.5764C30.2157 51.3365 30.0625 51.0111 30.0625 50.6718V35.3199C30.0625 34.9806 30.2157 34.6552 30.4885 34.4153C30.7612 34.1754 31.1311 34.0406 31.5168 34.0406ZM38.7886 34.0406C39.1743 34.0406 39.5442 34.1754 39.8169 34.4153C40.0897 34.6552 40.2429 34.9806 40.2429 35.3199V50.6718C40.2429 51.0111 40.0897 51.3365 39.8169 51.5764C39.5442 51.8163 39.1743 51.9511 38.7886 51.9511C38.4028 51.9511 38.0329 51.8163 37.7602 51.5764C37.4874 51.3365 37.3342 51.0111 37.3342 50.6718V35.3199C37.3342 34.9806 37.4874 34.6552 37.7602 34.4153C38.0329 34.1754 38.4028 34.0406 38.7886 34.0406ZM47.5146 35.3199C47.5146 34.9806 47.3614 34.6552 47.0886 34.4153C46.8159 34.1754 46.446 34.0406 46.0603 34.0406C45.6746 34.0406 45.3046 34.1754 45.0319 34.4153C44.7592 34.6552 44.6059 34.9806 44.6059 35.3199V50.6718C44.6059 51.0111 44.7592 51.3365 45.0319 51.5764C45.3046 51.8163 45.6746 51.9511 46.0603 51.9511C46.446 51.9511 46.8159 51.8163 47.0886 51.5764C47.3614 51.3365 47.5146 51.0111 47.5146 50.6718V35.3199Z" fill="#F52079"/>
<path fill-rule="evenodd" clip-rule="evenodd" d="M38.7891 5.16907C20.2875 5.16907 5.28906 20.1675 5.28906 38.6691C5.28906 57.1706 20.2875 72.1691 38.7891 72.1691C57.2906 72.1691 72.2891 57.1706 72.2891 38.6691C72.2891 20.1675 57.2906 5.16907 38.7891 5.16907ZM0.289062 38.6691C0.289062 17.4061 17.5261 0.169067 38.7891 0.169067C60.052 0.169067 77.2891 17.4061 77.2891 38.6691C77.2891 59.932 60.052 77.1691 38.7891 77.1691C17.5261 77.1691 0.289062 59.932 0.289062 38.6691Z" fill="#F52079"/>
<path fill-rule="evenodd" clip-rule="evenodd" d="M57.6996 25.7706C57.6996 26.542 57.3932 27.2819 56.8477 27.8273C56.3022 28.3728 55.5624 28.6793 54.791 28.6793H53.3366V54.8574C53.3366 56.4003 52.7237 57.88 51.6327 58.9709C50.5418 60.0619 49.0621 60.6748 47.5192 60.6748H30.0671C28.5243 60.6748 27.0446 60.0619 25.9536 58.9709C24.8626 57.88 24.2497 56.4003 24.2497 54.8574V28.6793H22.7954C22.024 28.6793 21.2841 28.3728 20.7387 27.8273C20.1932 27.2819 19.8867 26.542 19.8867 25.7706V22.8619C19.8867 22.0905 20.1932 21.3506 20.7387 20.8051C21.2841 20.2597 22.024 19.9532 22.7954 19.9532H32.9758C32.9758 19.1818 33.2823 18.4419 33.8277 17.8965C34.3732 17.351 35.1131 17.0445 35.8845 17.0445H41.7019C42.4733 17.0445 43.2131 17.351 43.7586 17.8965C44.3041 18.4419 44.6105 19.1818 44.6105 19.9532H54.791C55.5624 19.9532 56.3022 20.2597 56.8477 20.8051C57.3932 21.3506 57.6996 22.0905 57.6996 22.8619V25.7706ZM27.5017 28.6793L27.1584 28.8509V54.8574C27.1584 55.6289 27.4649 56.3687 28.0104 56.9142C28.5559 57.4597 29.2957 57.7661 30.0671 57.7661H47.5192C48.2907 57.7661 49.0305 57.4597 49.576 56.9142C50.1215 56.3687 50.4279 55.6289 50.4279 54.8574V28.8509L50.0847 28.6793H27.5017ZM22.7954 25.7706V22.8619H54.791V25.7706H22.7954Z" fill="#F52079"/>
</svg>
