<svg width="14" height="14" viewBox="0 0 14 14" fill="none" xmlns="http://www.w3.org/2000/svg">
<path d="M13.0702 2.28946C13.4456 1.91401 13.4456 1.30528 13.0702 0.929821C12.6947 0.554366 12.086 0.554366 11.7105 0.929821L7 5.64036L2.28946 0.929821C1.91401 0.554366 1.30528 0.554366 0.929821 0.929821C0.554366 1.30528 0.554366 1.91401 0.929821 2.28946L5.64036 7L0.929821 11.7105C0.554366 12.086 0.554366 12.6947 0.929821 13.0702C1.30528 13.4456 1.91401 13.4456 2.28946 13.0702L7 8.35964L11.7105 13.0702C12.086 13.4456 12.6947 13.4456 13.0702 13.0702C13.4456 12.6947 13.4456 12.086 13.0702 11.7105L8.35964 7L13.0702 2.28946Z" fill="#F52079"/>
</svg>
