<svg width="25" height="24" viewBox="0 0 25 24" fill="none" xmlns="http://www.w3.org/2000/svg">
<rect x="0.138428" width="24" height="24" rx="12" fill="#D6D6E8"/>
<path fill-rule="evenodd" clip-rule="evenodd" d="M11.9734 6.49902C10.4795 6.49902 10.292 6.50556 9.70532 6.53226C9.11975 6.55907 8.72005 6.65178 8.37031 6.7878C8.00854 6.92829 7.70166 7.11622 7.39592 7.42207C7.08996 7.72781 6.90202 8.03469 6.76107 8.39635C6.62471 8.7462 6.53189 9.14602 6.50553 9.73136C6.47929 10.3181 6.47241 10.5057 6.47241 11.9995C6.47241 13.4934 6.47906 13.6803 6.50564 14.267C6.53257 14.8525 6.62528 15.2522 6.76119 15.602C6.90179 15.9638 7.08973 16.2706 7.39558 16.5764C7.7012 16.8823 8.00808 17.0707 8.36962 17.2112C8.71959 17.3472 9.11941 17.44 9.70487 17.4668C10.2916 17.4935 10.4789 17.5 11.9727 17.5C13.4666 17.5 13.6535 17.4935 14.2402 17.4668C14.8258 17.44 15.226 17.3472 15.5759 17.2112C15.9376 17.0707 16.244 16.8823 16.5496 16.5764C16.8556 16.2706 17.0435 15.9638 17.1845 15.6021C17.3197 15.2522 17.4125 14.8524 17.44 14.2671C17.4664 13.6804 17.4733 13.4934 17.4733 11.9995C17.4733 10.5057 17.4664 10.3182 17.44 9.73148C17.4125 9.1459 17.3197 8.7462 17.1845 8.39646C17.0435 8.03469 16.8556 7.72781 16.5496 7.42207C16.2437 7.11611 15.9377 6.92818 15.5756 6.7878C15.2249 6.65178 14.825 6.55907 14.2394 6.53226C13.6527 6.50556 13.4659 6.49902 11.9716 6.49902H11.9734ZM11.4794 7.49122C11.6258 7.49099 11.7893 7.49122 11.9728 7.49122C13.4415 7.49122 13.6155 7.49649 14.1955 7.52285C14.7318 7.54737 15.0229 7.63698 15.2168 7.71227C15.4734 7.81197 15.6564 7.93115 15.8488 8.12366C16.0414 8.31618 16.1605 8.49953 16.2605 8.75622C16.3358 8.94988 16.4255 9.24095 16.4499 9.77725C16.4762 10.3571 16.482 10.5313 16.482 11.9992C16.482 13.4672 16.4762 13.6413 16.4499 14.2212C16.4254 14.7575 16.3358 15.0485 16.2605 15.2422C16.1608 15.4989 16.0414 15.6817 15.8488 15.8741C15.6563 16.0666 15.4736 16.1858 15.2168 16.2855C15.0231 16.3611 14.7318 16.4505 14.1955 16.475C13.6157 16.5014 13.4415 16.5071 11.9728 16.5071C10.5041 16.5071 10.33 16.5014 9.75018 16.475C9.21389 16.4503 8.92282 16.3606 8.72881 16.2854C8.47212 16.1857 8.28877 16.0665 8.09626 15.874C7.90374 15.6814 7.78456 15.4986 7.68464 15.2418C7.60935 15.0481 7.51962 14.757 7.49521 14.2207C7.46886 13.6409 7.46358 13.4667 7.46358 11.9978C7.46358 10.529 7.46886 10.3557 7.49521 9.77587C7.51974 9.23957 7.60935 8.94851 7.68464 8.75462C7.78433 8.49793 7.90374 8.31458 8.09626 8.12206C8.28877 7.92954 8.47212 7.81036 8.72881 7.71044C8.9227 7.63481 9.21389 7.54542 9.75018 7.52079C10.2576 7.49787 10.4542 7.49099 11.4794 7.48985V7.49122ZM14.9106 8.40264C14.5462 8.40264 14.2505 8.69795 14.2505 9.06247C14.2505 9.42688 14.5462 9.72253 14.9106 9.72253C15.275 9.72253 15.5706 9.42688 15.5706 9.06247C15.5706 8.69806 15.275 8.40241 14.9106 8.40241V8.40264ZM11.9747 9.17522C10.4148 9.17522 9.15001 10.44 9.15001 12C9.15001 13.5599 10.4148 14.8241 11.9747 14.8241C13.5347 14.8241 14.799 13.5599 14.799 12C14.799 10.44 13.5346 9.17522 11.9746 9.17522H11.9747ZM11.974 10.166C12.9865 10.166 13.8075 10.9869 13.8075 11.9995C13.8075 13.0121 12.9865 13.833 11.974 13.833C10.9613 13.833 10.1405 13.0121 10.1405 11.9995C10.1405 10.9869 10.9613 10.166 11.974 10.166Z" fill="white"/>
</svg>
