<svg width="24" height="23" viewBox="0 0 24 23" fill="none" xmlns="http://www.w3.org/2000/svg">
<rect x="0.6875" width="23" height="23" rx="11.5" fill="#C4C4C4"/>
<path fill-rule="evenodd" clip-rule="evenodd" d="M12.5104 10.0243L12.5324 10.3869L12.1658 10.3425C10.8316 10.1723 9.66598 9.59503 8.6763 8.62549L8.19246 8.14442L8.06783 8.49967C7.80391 9.29159 7.97253 10.1279 8.52235 10.6904C8.81559 11.0012 8.74961 11.0456 8.24377 10.8606C8.06783 10.8014 7.91388 10.757 7.89922 10.7792C7.8479 10.831 8.02384 11.5045 8.16313 11.771C8.35374 12.141 8.74228 12.5037 9.16748 12.7183L9.52669 12.8885L9.1015 12.8959C8.69096 12.8959 8.6763 12.9033 8.72029 13.0587C8.86691 13.5398 9.44605 14.0505 10.0912 14.2725L10.5457 14.4279L10.1498 14.6648C9.56335 15.0052 8.87424 15.1977 8.18512 15.2125C7.85523 15.2199 7.58398 15.2495 7.58398 15.2717C7.58398 15.3457 8.47836 15.7601 8.99886 15.923C10.5604 16.404 12.4151 16.1968 13.808 15.3753C14.7977 14.7906 15.7874 13.6286 16.2492 12.5037C16.4985 11.9042 16.7477 10.8088 16.7477 10.2833C16.7477 9.94288 16.7697 9.89847 17.1802 9.49141C17.4222 9.25458 17.6494 8.99554 17.6934 8.92153C17.7667 8.78091 17.7594 8.78091 17.3855 8.90673C16.7624 9.12876 16.6744 9.09916 16.9823 8.76611C17.2096 8.52927 17.4808 8.10001 17.4808 7.97419C17.4808 7.95199 17.3708 7.98899 17.2462 8.0556C17.1143 8.12961 16.821 8.24063 16.6011 8.30724L16.2052 8.43306L15.846 8.18882C15.6481 8.0556 15.3695 7.90758 15.2229 7.86318C14.849 7.75956 14.2772 7.77436 13.9399 7.89278C13.0236 8.22583 12.4444 9.08435 12.5104 10.0243Z" fill="white"/>
</svg>
