<svg width="24" height="23" viewBox="0 0 24 23" fill="none" xmlns="http://www.w3.org/2000/svg">
<rect x="0.626953" width="23" height="23" rx="11.5" fill="#C4C4C4"/>
<path fill-rule="evenodd" clip-rule="evenodd" d="M17.3249 8.82025C17.2001 8.34114 16.8327 7.96386 16.366 7.83582C15.5204 7.60312 12.1293 7.60312 12.1293 7.60312C12.1293 7.60312 8.73809 7.60312 7.8924 7.83582C7.42578 7.96386 7.05831 8.34114 6.93359 8.82025C6.70703 9.68857 6.70703 11.5003 6.70703 11.5003C6.70703 11.5003 6.70703 13.312 6.93359 14.1804C7.05831 14.6595 7.42578 15.0368 7.8924 15.1649C8.73809 15.3976 12.1293 15.3976 12.1293 15.3976C12.1293 15.3976 15.5204 15.3976 16.366 15.1649C16.8327 15.0368 17.2001 14.6595 17.3249 14.1804C17.5515 13.312 17.5515 11.5003 17.5515 11.5003C17.5515 11.5003 17.5515 9.68857 17.3249 8.82025Z" fill="white"/>
<path fill-rule="evenodd" clip-rule="evenodd" d="M11.1133 13.3635V9.97464L13.8244 11.6691L11.1133 13.3635Z" fill="#C4C4C4"/>
</svg>
