<svg width="25" height="24" viewBox="0 0 25 24" fill="none" xmlns="http://www.w3.org/2000/svg">
<rect x="0.138428" width="24" height="24" rx="12" fill="#D6D6E8"/>
<path fill-rule="evenodd" clip-rule="evenodd" d="M12.4761 10.4602L12.499 10.8386L12.1165 10.7923C10.7243 10.6147 9.50797 10.0123 8.47526 9.00057L7.97038 8.49859L7.84033 8.86928C7.56494 9.69563 7.74088 10.5683 8.31461 11.1553C8.6206 11.4796 8.55175 11.526 8.02392 11.3329C7.84033 11.2711 7.67969 11.2248 7.66439 11.2479C7.61084 11.302 7.79443 12.0048 7.93978 12.2828C8.13867 12.6689 8.5441 13.0474 8.98779 13.2713L9.36262 13.4489L8.91894 13.4567C8.49056 13.4567 8.47526 13.4644 8.52116 13.6266C8.67415 14.1286 9.27848 14.6614 9.95165 14.8931L10.4259 15.0553L10.0129 15.3024C9.40087 15.6577 8.6818 15.8585 7.96273 15.8739C7.61849 15.8817 7.33545 15.9125 7.33545 15.9357C7.33545 16.0129 8.26871 16.4454 8.81184 16.6153C10.4412 17.1173 12.3766 16.9011 13.8301 16.0438C14.8628 15.4337 15.8955 14.2212 16.3774 13.0474C16.6375 12.4218 16.8976 11.2788 16.8976 10.7305C16.8976 10.3752 16.9205 10.3289 17.3489 9.90415C17.6014 9.65702 17.8385 9.38672 17.8844 9.30949C17.9609 9.16275 17.9533 9.16275 17.5631 9.29404C16.9129 9.52573 16.8211 9.49484 17.1424 9.14731C17.3795 8.90017 17.6626 8.45225 17.6626 8.32096C17.6626 8.29779 17.5478 8.3364 17.4178 8.40591C17.2801 8.48314 16.9741 8.59898 16.7446 8.66849L16.3315 8.79978L15.9567 8.54492C15.7501 8.40591 15.4595 8.25145 15.3065 8.20512C14.9163 8.097 14.3196 8.11244 13.9678 8.23601C13.0115 8.58354 12.4072 9.47939 12.4761 10.4602Z" fill="white"/>
</svg>
