<svg width="25" height="24" viewBox="0 0 25 24" fill="none" xmlns="http://www.w3.org/2000/svg">
<rect x="0.138428" width="24" height="24" rx="12" fill="#D6D6E8"/>
<path fill-rule="evenodd" clip-rule="evenodd" d="M17.5629 9.20364C17.4327 8.7037 17.0493 8.31002 16.5624 8.17641C15.68 7.93359 12.1414 7.93359 12.1414 7.93359C12.1414 7.93359 8.60276 7.93359 7.72031 8.17641C7.2334 8.31002 6.84995 8.7037 6.71981 9.20364C6.4834 10.1097 6.4834 12.0003 6.4834 12.0003C6.4834 12.0003 6.4834 13.8907 6.71981 14.7969C6.84995 15.2968 7.2334 15.6905 7.72031 15.8242C8.60276 16.0669 12.1414 16.0669 12.1414 16.0669C12.1414 16.0669 15.68 16.0669 16.5624 15.8242C17.0493 15.6905 17.4327 15.2968 17.5629 14.7969C17.7993 13.8907 17.7993 12.0003 17.7993 12.0003C17.7993 12.0003 17.7993 10.1097 17.5629 9.20364Z" fill="white"/>
<path fill-rule="evenodd" clip-rule="evenodd" d="M11.0811 13.9444V10.4082L13.91 12.1764L11.0811 13.9444Z" fill="#D6D6E8"/>
</svg>
