<svg width="24" height="24" viewBox="0 0 24 24" fill="none" xmlns="http://www.w3.org/2000/svg">
<circle cx="12" cy="12" r="12" fill="#D6D6E8"/>
<path d="M5.49438 6.95065C5.49438 6.52847 5.64063 6.18017 5.93312 5.90576C6.2256 5.63134 6.60584 5.49414 7.07382 5.49414C7.53345 5.49414 7.90532 5.62923 8.18945 5.89943C8.48194 6.17807 8.62819 6.54113 8.62819 6.98865C8.62819 7.39394 8.48612 7.73167 8.20199 8.00187C7.90951 8.28051 7.52509 8.41983 7.04875 8.41983H7.03621C6.57659 8.41983 6.20472 8.28051 5.92058 8.00187C5.63645 7.72324 5.49438 7.37282 5.49438 6.95065ZM5.65734 18.0328V9.57237H8.44016V18.0328H5.65734ZM9.98199 18.0328H12.7648V13.3086C12.7648 13.0131 12.7982 12.7851 12.8651 12.6247C12.9821 12.3376 13.1597 12.0949 13.3978 11.8965C13.636 11.698 13.9348 11.5988 14.2941 11.5988C15.2301 11.5988 15.698 12.2363 15.698 13.5113V18.0328H18.4809V13.182C18.4809 11.9323 18.1884 10.9846 17.6034 10.3386C17.0184 9.69269 16.2454 9.36973 15.2844 9.36973C14.2064 9.36973 13.3665 9.83834 12.7648 10.7756V10.8009H12.7523L12.7648 10.7756V9.57237H9.98199C9.9987 9.84256 10.0071 10.6827 10.0071 12.0928C10.0071 13.5028 9.9987 15.4828 9.98199 18.0328Z" fill="white"/>
</svg>
