<svg width="24" height="23" viewBox="0 0 24 23" fill="none" xmlns="http://www.w3.org/2000/svg">
<rect x="0.0449219" width="23" height="23" rx="11.5" fill="#C4C4C4"/>
<path fill-rule="evenodd" clip-rule="evenodd" d="M11.387 6.229C9.95538 6.229 9.77571 6.23526 9.21344 6.26085C8.65227 6.28655 8.26922 6.37539 7.93405 6.50575C7.58736 6.64039 7.29326 6.82049 7.00026 7.11359C6.70705 7.40659 6.52694 7.70069 6.39187 8.04727C6.26118 8.38255 6.17223 8.76571 6.14697 9.32666C6.12182 9.88893 6.11523 10.0687 6.11523 11.5003C6.11523 12.9319 6.1216 13.111 6.14708 13.6733C6.17289 14.2345 6.26173 14.6175 6.39198 14.9527C6.52673 15.2994 6.70683 15.5935 6.99993 15.8865C7.29282 16.1797 7.58692 16.3602 7.93339 16.4949C8.26878 16.6252 8.65194 16.7141 9.213 16.7398C9.77527 16.7653 9.95483 16.7716 11.3863 16.7716C12.818 16.7716 12.9971 16.7653 13.5594 16.7398C14.1206 16.7141 14.5041 16.6252 14.8395 16.4949C15.186 16.3602 15.4797 16.1797 15.7726 15.8865C16.0658 15.5935 16.2459 15.2994 16.381 14.9528C16.5106 14.6175 16.5995 14.2344 16.6259 13.6734C16.6511 13.1111 16.6577 12.9319 16.6577 11.5003C16.6577 10.0687 16.6511 9.88904 16.6259 9.32677C16.5995 8.7656 16.5106 8.38255 16.381 8.04738C16.2459 7.70069 16.0658 7.40659 15.7726 7.11359C15.4794 6.82038 15.1862 6.64028 14.8391 6.50575C14.5031 6.37539 14.1198 6.28655 13.5586 6.26085C12.9964 6.23526 12.8174 6.229 11.3853 6.229H11.387ZM10.9134 7.17965C11.0537 7.17943 11.2103 7.17965 11.3863 7.17965C12.7937 7.17965 12.9605 7.1847 13.5163 7.20996C14.0303 7.23346 14.3092 7.31934 14.495 7.39149C14.741 7.48703 14.9164 7.60124 15.1008 7.78574C15.2853 7.97023 15.3995 8.14594 15.4952 8.39194C15.5674 8.57753 15.6534 8.85647 15.6768 9.37042C15.702 9.92611 15.7075 10.093 15.7075 11.4998C15.7075 12.9066 15.702 13.0735 15.6768 13.6292C15.6533 14.1431 15.5674 14.4221 15.4952 14.6077C15.3997 14.8537 15.2853 15.0288 15.1008 15.2132C14.9163 15.3977 14.7411 15.5119 14.495 15.6075C14.3094 15.68 14.0303 15.7656 13.5163 15.7891C12.9606 15.8144 12.7937 15.8199 11.3863 15.8199C9.97872 15.8199 9.81191 15.8144 9.25622 15.7891C8.74227 15.7654 8.46333 15.6795 8.27741 15.6074C8.03142 15.5118 7.85571 15.3976 7.67121 15.2131C7.48671 15.0286 7.3725 14.8533 7.27674 14.6072C7.20459 14.4216 7.1186 14.1427 7.09521 13.6288C7.06995 13.0731 7.0649 12.9061 7.0649 11.4985C7.0649 10.0908 7.06995 9.92479 7.09521 9.36911C7.11871 8.85515 7.20459 8.57621 7.27674 8.3904C7.37228 8.14441 7.48671 7.9687 7.67121 7.7842C7.85571 7.59971 8.03142 7.48549 8.27741 7.38973C8.46322 7.31725 8.74227 7.23159 9.25622 7.20798C9.7425 7.18602 9.93095 7.17943 10.9134 7.17833V7.17965ZM14.2018 8.05393C13.8525 8.05393 13.5692 8.33693 13.5692 8.68626C13.5692 9.03549 13.8525 9.31882 14.2018 9.31882C14.551 9.31882 14.8343 9.03549 14.8343 8.68626C14.8343 8.33704 14.551 8.05371 14.2018 8.05371V8.05393ZM11.3882 8.79401C9.89322 8.79401 8.68115 10.0061 8.68115 11.501C8.68115 12.996 9.89322 14.2075 11.3882 14.2075C12.8831 14.2075 14.0948 12.996 14.0948 11.501C14.0948 10.0061 12.883 8.79401 11.3881 8.79401H11.3882ZM11.3872 9.74299C12.3576 9.74299 13.1443 10.5296 13.1443 11.5001C13.1443 12.4704 12.3576 13.2572 11.3872 13.2572C10.4168 13.2572 9.63013 12.4704 9.63013 11.5001C9.63013 10.5296 10.4168 9.74299 11.3872 9.74299V9.74299Z" fill="white"/>
</svg>
