<svg width="20" height="18" viewBox="0 0 20 18" fill="none" xmlns="http://www.w3.org/2000/svg">
<path d="M1.41244 9.71218C1.28008 9.57983 1.10057 9.50547 0.913386 9.50547C0.726205 9.50547 0.54669 9.57983 0.414332 9.71218C0.281975 9.84454 0.207617 10.0241 0.207617 10.2112V14.4516C0.207617 15.1208 0.473441 15.7625 0.946609 16.2357C1.41978 16.7089 2.06153 16.9747 2.73069 16.9747H17.2692C17.9383 16.9747 18.5801 16.7089 19.0532 16.2357C19.5264 15.7625 19.7922 15.1208 19.7922 14.4516V10.2112C19.7922 10.0241 19.7179 9.84454 19.5855 9.71218C19.4532 9.57983 19.2736 9.50547 19.0865 9.50547C18.8993 9.50547 18.7198 9.57983 18.5874 9.71218C18.4551 9.84454 18.3807 10.0241 18.3807 10.2112V14.4516C18.3807 14.7464 18.2636 15.0291 18.0551 15.2376C17.8467 15.4461 17.564 15.5632 17.2692 15.5632H2.73069C2.4359 15.5632 2.15317 15.4461 1.94472 15.2376C1.73626 15.0291 1.61916 14.7464 1.61916 14.4516V10.2112C1.61916 10.0241 1.5448 9.84454 1.41244 9.71218Z" fill="#D6D6E8" stroke="#D6D6E8" stroke-width="0.2"/>
<path d="M6.29463 8.92869L6.29465 8.92867C6.427 8.79635 6.60648 8.72203 6.79363 8.72203C6.98077 8.72203 7.16026 8.79635 7.29261 8.92867L7.29262 8.92868L9.99997 11.636L12.7067 8.92927C12.7717 8.86217 12.8494 8.80862 12.9352 8.77175C13.0213 8.73476 13.1139 8.71529 13.2076 8.71448C13.3013 8.71367 13.3943 8.73152 13.481 8.76701C13.5677 8.8025 13.6465 8.8549 13.7128 8.92117C13.7791 8.98743 13.8315 9.06624 13.867 9.15297C13.9024 9.23971 13.9203 9.33264 13.9195 9.42636C13.9187 9.52007 13.8992 9.61268 13.8622 9.69878C13.8253 9.78461 13.7718 9.86227 13.7047 9.92724L10.4997 13.1335L10.4996 13.1336L10.4288 13.0629C10.3726 13.1193 10.3057 13.1641 10.2321 13.1946C10.1585 13.2251 10.0796 13.2409 9.99996 13.2409C9.92029 13.2409 9.84139 13.2251 9.76779 13.1946C9.6942 13.1641 9.62735 13.1193 9.57108 13.0629L6.29463 8.92869ZM6.29463 8.92869C6.16232 9.06104 6.08799 9.24052 6.08799 9.42767C6.08799 9.61481 6.16232 9.79429 6.29463 9.92664C6.29463 9.92664 6.29463 9.92664 6.29463 9.92664L9.50028 13.1335L6.29463 8.92869Z" fill="#D6D6E8" stroke="#D6D6E8" stroke-width="0.2"/>
<path d="M10.4989 1.23172C10.3665 1.09936 10.187 1.025 9.99981 1.025C9.81263 1.025 9.63312 1.09936 9.50076 1.23172C9.3684 1.36407 9.29404 1.54359 9.29404 1.73077V11.4231C9.29404 11.6103 9.3684 11.7898 9.50076 11.9221C9.63312 12.0545 9.81263 12.1288 9.99981 12.1288C10.187 12.1288 10.3665 12.0545 10.4989 11.9221C10.6312 11.7898 10.7056 11.6103 10.7056 11.4231V1.73077C10.7056 1.54359 10.6312 1.36407 10.4989 1.23172Z" fill="#D6D6E8" stroke="#D6D6E8" stroke-width="0.2"/>
</svg>
