<svg width="51" height="52" viewBox="0 0 51 52" fill="none" xmlns="http://www.w3.org/2000/svg">
<rect opacity="0.7" width="51" height="52" rx="25.5" fill="#1F2337"/>
<rect opacity="0.7" x="4" y="5" width="43" height="42" rx="21" fill="#1F2337"/>
<path fill-rule="evenodd" clip-rule="evenodd" d="M20.2324 29.9313C20.3813 29.7688 20.5831 29.6775 20.7936 29.6775C21.0041 29.6775 21.2059 29.7688 21.3548 29.9313L24.995 33.9061L28.6353 29.9313C28.7085 29.8485 28.7961 29.7825 28.8929 29.737C28.9898 29.6916 29.0939 29.6677 29.1993 29.6667C29.3047 29.6657 29.4093 29.6876 29.5068 29.7312C29.6044 29.7748 29.693 29.8391 29.7675 29.9205C29.842 30.0019 29.901 30.0987 29.9409 30.2052C29.9808 30.3117 30.0009 30.4259 30 30.5409C29.9991 30.656 29.9772 30.7698 29.9356 30.8755C29.894 30.9812 29.8335 31.0769 29.7577 31.1568L25.557 35.7454C25.4833 35.8261 25.3957 35.8901 25.2993 35.9338C25.2028 35.9775 25.0994 36 24.995 36C24.8906 36 24.7872 35.9775 24.6908 35.9338C24.5944 35.8901 24.5068 35.8261 24.433 35.7454L20.2324 31.1568C20.0836 30.9943 20 30.7739 20 30.5441C20 30.3142 20.0836 30.0938 20.2324 29.9313Z" fill="white"/>
<path fill-rule="evenodd" clip-rule="evenodd" d="M25 17C25.306 17 25.5995 17.088 25.8159 17.2448C26.0323 17.4015 26.1538 17.614 26.1538 17.8356V33.581C26.1538 33.8026 26.0323 34.0152 25.8159 34.1719C25.5995 34.3286 25.306 34.4167 25 34.4167C24.694 34.4167 24.4005 34.3286 24.1841 34.1719C23.9677 34.0152 23.8462 33.8026 23.8462 33.581V17.8356C23.8462 17.614 23.9677 17.4015 24.1841 17.2448C24.4005 17.088 24.694 17 25 17Z" fill="white"/>
</svg>
