<svg width="25" height="21" viewBox="0 0 25 21" fill="none" xmlns="http://www.w3.org/2000/svg">
<path d="M2.14596 11.3911C1.98656 11.2317 1.77036 11.1422 1.54492 11.1422C1.31949 11.1422 1.10329 11.2317 0.943881 11.3911C0.784475 11.5506 0.694922 11.7668 0.694922 11.9922V17.2422C0.694922 18.0644 1.02153 18.8529 1.60289 19.4342C2.18425 20.0156 2.97275 20.3422 3.79492 20.3422H21.7949C22.6171 20.3422 23.4056 20.0156 23.987 19.4342C24.5683 18.8529 24.8949 18.0644 24.8949 17.2422V11.9922C24.8949 11.7668 24.8054 11.5506 24.646 11.3911C24.4866 11.2317 24.2704 11.1422 24.0449 11.1422C23.8195 11.1422 23.6033 11.2317 23.4439 11.3911C23.2845 11.5506 23.1949 11.7668 23.1949 11.9922V17.2422C23.1949 17.6135 23.0474 17.9696 22.7849 18.2321C22.5223 18.4947 22.1662 18.6422 21.7949 18.6422H3.79492C3.42362 18.6422 3.06752 18.4947 2.80497 18.2321C2.54242 17.9696 2.39492 17.6135 2.39492 17.2422V11.9922C2.39492 11.7668 2.30537 11.5506 2.14596 11.3911Z" fill="#4048FF" stroke="#4048FF" stroke-width="0.2"/>
<path d="M8.22421 10.4219L8.22419 10.4219L13.3967 15.5943L17.365 11.6244C17.4459 11.5461 17.5104 11.4526 17.5549 11.3492C17.5994 11.2455 17.6229 11.1339 17.6238 11.0211C17.6248 10.9082 17.6033 10.7963 17.5606 10.6918C17.5178 10.5873 17.4547 10.4924 17.3749 10.4126C17.2951 10.3328 17.2002 10.2697 17.0957 10.227C16.9913 10.1842 16.8793 10.1627 16.7665 10.1637C16.6536 10.1647 16.5421 10.1881 16.4384 10.2327C16.335 10.2771 16.2414 10.3416 16.1631 10.4225L12.7949 13.7907L9.42612 10.4219L9.42611 10.4219C9.26671 10.2626 9.05055 10.173 8.82516 10.173C8.59977 10.173 8.38361 10.2626 8.22421 10.4219ZM13.1207 15.7791C13.2239 15.7362 13.3177 15.6735 13.3966 15.5943L8.29491 11.5531L8.22418 11.6238L8.22419 11.6238L12.1931 15.5943C12.2721 15.6734 12.3659 15.7362 12.4691 15.7791C12.5724 15.8219 12.6831 15.844 12.7949 15.844C12.9067 15.844 13.0174 15.8219 13.1207 15.7791Z" fill="#4048FF" stroke="#4048FF" stroke-width="0.2"/>
<path d="M13.396 0.891147C13.2366 0.731741 13.0204 0.642187 12.7949 0.642187C12.5695 0.642187 12.3533 0.731741 12.1939 0.891147C12.0345 1.05055 11.9449 1.26675 11.9449 1.49219V13.4922C11.9449 13.7176 12.0345 13.9338 12.1939 14.0932C12.3533 14.2526 12.5695 14.3422 12.7949 14.3422C13.0204 14.3422 13.2366 14.2526 13.396 14.0932C13.5554 13.9338 13.6449 13.7176 13.6449 13.4922V1.49219C13.6449 1.26675 13.5554 1.05055 13.396 0.891147Z" fill="#4048FF" stroke="#4048FF" stroke-width="0.2"/>
</svg>
