<svg width="37" height="37" viewBox="0 0 37 37" fill="none" xmlns="http://www.w3.org/2000/svg">
<circle cx="18.252" cy="18.9082" r="16" fill="#1F2337"/>
<circle cx="18.252" cy="18.9082" r="17" stroke="#1F2337" stroke-opacity="0.5" stroke-width="2"/>
<path d="M10.752 21.2453C11.0281 21.2453 11.252 21.4841 11.252 21.7786V24.4453C11.252 25.0344 11.6997 25.512 12.252 25.512H24.252C24.8042 25.512 25.252 25.0344 25.252 24.4453V21.7786C25.252 21.4841 25.4758 21.2453 25.752 21.2453C26.0281 21.2453 26.252 21.4841 26.252 21.7786V24.4453C26.252 25.6235 25.3565 26.5786 24.252 26.5786H12.252C11.1474 26.5786 10.252 25.6235 10.252 24.4453V21.7786C10.252 21.4841 10.4758 21.2453 10.752 21.2453Z" fill="white"/>
<path d="M17.8984 23.3291C18.0937 23.5374 18.4102 23.5374 18.6055 23.3291L21.6055 20.1291C21.8008 19.9208 21.8008 19.5831 21.6055 19.3748C21.4102 19.1665 21.0937 19.1665 20.8984 19.3748L18.752 21.6644V12.2853C18.752 11.9907 18.5281 11.752 18.252 11.752C17.9758 11.752 17.752 11.9907 17.752 12.2853V21.6644L15.6055 19.3748C15.4102 19.1665 15.0937 19.1665 14.8984 19.3748C14.7031 19.5831 14.7031 19.9208 14.8984 20.1291L17.8984 23.3291Z" fill="white"/>
</svg>
