<svg width="99" height="99" viewBox="0 0 99 99" fill="none" xmlns="http://www.w3.org/2000/svg">
<g clip-path="url(#clip0)">
<path d="M37.7861 66.1062C45.6379 72.0033 56.9053 71.4445 64.1376 64.2125C71.3648 56.9853 71.932 45.7178 66.0313 37.8611L37.7861 66.1062Z" fill="#D6D6E8"/>
<path d="M49.8708 29.769C38.7198 29.769 29.6943 38.7931 29.6943 49.9455C29.6943 54.3617 31.1044 58.5607 33.71 62.0301L61.9552 33.7849C58.486 31.1791 54.287 29.769 49.8708 29.769Z" fill="#D6D6E8"/>
<path d="M49.8711 0.945557C22.7902 0.945557 0.871094 22.861 0.871094 49.9456C0.871094 77.0264 22.7866 98.9456 49.8711 98.9456C76.9521 98.9456 98.8711 77.0303 98.8711 49.9456C98.8711 22.8647 76.9558 0.945557 49.8711 0.945557ZM68.2142 68.2887C58.7551 77.748 43.8458 78.3686 33.6786 70.2141L27.4516 76.4411L23.3754 72.3649L29.6024 66.1378C25.9274 61.5557 23.9299 55.9045 23.9299 49.9456C23.9299 35.6085 35.5323 24.0044 49.8711 24.0044C55.8303 24.0044 61.4812 26.0019 66.0636 29.6769L72.2906 23.4498L76.3668 27.526L70.1398 33.7531C78.28 43.9024 77.6921 58.8111 68.2142 68.2887Z" fill="#D6D6E8"/>
</g>
<defs>
<clipPath id="clip0">
<rect width="98" height="98" fill="white" transform="translate(0.871094 0.945557)"/>
</clipPath>
</defs>
</svg>
