<svg width="36" height="37" viewBox="0 0 36 37" fill="none" xmlns="http://www.w3.org/2000/svg">
<path d="M18 35.0608C27.3906 35.0608 35 27.4343 35 18.0304C35 8.62657 27.3906 1 18 1C8.60937 1 1 8.62657 1 18.0304C1 27.4343 8.60937 35.0608 18 35.0608Z" stroke="#1F2337" stroke-width="2"/>
<path d="M9 13.5219C9 12.2769 10.0074 11.2676 11.25 11.2676H24.75C25.9926 11.2676 27 12.2769 27 13.5219V22.539C27 23.784 25.9926 24.7932 24.75 24.7932H11.25C10.0074 24.7932 9 23.784 9 22.539V13.5219ZM11.25 12.3947C10.6287 12.3947 10.125 12.8994 10.125 13.5219V13.7663L18 18.5003L25.875 13.7663V13.5219C25.875 12.8994 25.3713 12.3947 24.75 12.3947H11.25ZM25.875 15.0808L20.5225 18.2984L25.875 21.5398V15.0808ZM25.8362 22.8334L19.431 18.9545L18 19.8148L16.569 18.9545L10.1638 22.8334C10.293 23.3131 10.7303 23.6661 11.25 23.6661H24.75C25.2697 23.6661 25.707 23.3131 25.8362 22.8334ZM10.125 21.5398L15.4775 18.2984L10.125 15.0808V21.5398Z" fill="#1F2337"/>
</svg>
