<svg width="101" height="101" viewBox="0 0 101 101" fill="none" xmlns="http://www.w3.org/2000/svg">
<circle cx="50.6431" cy="50.6938" r="48" stroke="#F52079" stroke-width="4"/>
<path d="M71.3266 34.6434C72.606 33.3641 72.606 31.2898 71.3266 30.0105C70.0473 28.7312 67.9731 28.7312 66.6938 30.0105L50.6431 46.0612L34.5924 30.0105C33.313 28.7312 31.2388 28.7312 29.9595 30.0105C28.6802 31.2898 28.6802 33.364 29.9595 34.6434L46.0102 50.6941L29.9595 66.7448C28.6802 68.0241 28.6802 70.0983 29.9595 71.3777C31.2388 72.657 33.313 72.657 34.5924 71.3777L50.6431 55.3269L66.6938 71.3777C67.9731 72.657 70.0473 72.657 71.3266 71.3777C72.606 70.0983 72.606 68.0241 71.3266 66.7448L55.2759 50.6941L71.3266 34.6434Z" fill="#F52079"/>
</svg>
