<svg width="97" height="97" viewBox="0 0 97 97" fill="none" xmlns="http://www.w3.org/2000/svg">
<circle cx="48.2812" cy="48.1313" r="48" fill="#F52079"/>
<rect x="56.2578" y="57.0143" width="19.1595" height="3.00358" rx="1.50179" transform="rotate(45 56.2578 57.0143)" fill="white"/>
<rect x="54.1348" y="70.562" width="19.1595" height="3.00358" rx="1.50179" transform="rotate(-45 54.1348 70.562)" fill="white"/>
<path fill-rule="evenodd" clip-rule="evenodd" d="M28.1202 32.9351L31.4623 46.2307H41.2142C42.2636 46.2307 43.1144 47.0814 43.1144 48.1308C43.1144 49.1802 42.2636 50.0309 41.2142 50.0309H29.9807C29.1097 50.0309 28.3502 49.4387 28.1379 48.594L24.3856 33.6666C24.3295 33.457 24.2952 33.2422 24.2832 33.0256C24.2823 33.0098 24.2816 32.994 24.2812 32.9782C24.1924 30.068 27.2917 28.3222 29.7764 29.514L65.005 46.4177C65.6639 46.7338 66.0831 47.3999 66.0831 48.1308C66.0831 48.8617 65.6639 49.5277 65.005 49.8439L29.7781 66.7468C27.3137 67.9318 24.2642 66.2281 24.2803 63.3762C24.2804 63.3595 24.2807 63.3428 24.2813 63.3261C24.2906 63.0336 24.3407 62.7437 24.4299 62.465L27.2121 53.2803C27.5163 52.276 28.5771 51.7084 29.5815 52.0126C30.5858 52.3169 31.1534 53.3777 30.8491 54.382L28.1428 63.3163L59.7907 48.1308L28.1328 32.9405C28.1328 32.9404 28.1329 32.9405 28.1328 32.9405C28.1281 32.9382 28.1237 32.9364 28.1202 32.9351Z" fill="white"/>
</svg>
