<svg width="470" height="218" viewBox="0 0 470 218" fill="none" xmlns="http://www.w3.org/2000/svg">
<g filter="url(#filter0_d)">
<path fill-rule="evenodd" clip-rule="evenodd" d="M170.306 107.414C162.776 93.899 168.393 78.4809 182.852 72.9768L293.292 30.9363C307.751 25.4322 325.577 31.9264 333.107 45.4416L339.551 57.0089C340.056 57.9144 341.139 58.3557 342.108 57.9869L345.091 56.8512C359.551 51.3472 377.376 57.8414 384.906 71.3565L391.351 82.9238C398.881 96.439 393.264 111.857 378.805 117.361L376.369 118.289C371.956 119.968 370.895 125.924 373.193 130.049C380.574 143.297 375.068 158.411 360.895 163.806L232.537 212.667C218.363 218.063 200.889 211.697 193.508 198.449C193.349 198.163 193.195 197.876 193.048 197.588C189.822 191.292 184.572 185.135 178.258 181.946C172.641 179.108 167.813 174.743 164.722 169.194L158.277 157.626C150.747 144.111 156.364 128.693 170.823 123.189L175.972 121.229C176.864 120.889 177.215 119.815 176.75 118.981L170.306 107.414Z" fill="#002482"/>
</g>
<path d="M219.491 99.8793C217.08 101.383 215.729 104.249 215.484 107.068C215.228 109.913 215.912 112.737 216.767 115.444C216.967 116.022 217.156 116.627 217.035 117.229C216.882 117.912 216.356 118.443 215.894 118.97C213.856 121.309 212.952 124.604 213.501 127.684C213.652 128.459 213.871 129.293 213.499 129.98C213.251 130.438 212.785 130.746 212.345 131.064C210.634 132.293 209.231 133.989 208.361 135.902C206.35 134.433 204.244 135.719 202.001 134.591C200.121 133.64 195.6 133.076 194.187 134.644C194.626 131.655 193.093 128.704 191.07 126.423C190.179 125.409 189.164 124.469 187.868 124.066C186.071 123.522 184.07 124.168 182.6 125.341C181.13 126.513 180.027 128.082 178.987 129.647C178.734 130.041 178.433 130.477 178.43 130.942C178.401 131.396 178.628 131.829 178.84 132.226C180.928 136.179 180.884 137.328 185.128 138.804C185.592 138.962 186.913 140.26 187.334 140.524C187.823 140.848 188.388 142.305 188.722 142.783C193.02 148.783 204.342 148.923 211.561 150.335C212.19 150.467 212.884 150.593 213.499 150.378C214.104 150.189 214.571 149.727 215.001 149.28C218.755 145.466 221.883 141.056 224.296 136.262C225.068 134.744 225.734 133.183 226.559 131.686C227.239 130.472 227.988 129.318 228.587 128.071C230.72 123.815 231.191 118.915 231.596 114.174L219.491 99.8793Z" fill="url(#paint0_radial)"/>
<path d="M228.192 55.7772C228.192 55.7772 234.804 44.8379 249.162 45.1044C263.52 45.371 323.55 89.2796 301.926 115.388C280.274 141.501 228.192 55.7772 228.192 55.7772Z" fill="url(#paint1_radial)"/>
<path d="M213.308 92.781C212.215 90.2137 207.909 93.4363 208.062 90.6483C208.424 84.1035 213.036 78.3312 218.812 75.2027C224.559 72.0787 231.303 71.2749 237.865 71.372C262.951 71.7646 287.462 85.4567 300.928 106.608C302.731 109.445 304.419 112.474 307.132 114.414C311.289 117.412 316.913 117.275 321.947 116.327C326.981 115.379 332.033 113.787 337.119 114.315C339.249 114.54 341.481 115.245 342.813 116.903C344.326 118.794 344.347 121.585 343.383 123.828C342.446 126.067 340.684 127.851 338.866 129.469C330.3 137.159 319.412 142.237 308.027 143.9C308.74 145.885 310.843 147.075 312.925 147.366C315.007 147.657 317.121 147.216 319.192 146.868C325.007 145.887 330.926 145.589 336.806 145.791C338.21 145.837 339.68 145.931 340.895 146.646C342.66 147.713 343.416 149.983 343.178 152.028C342.939 154.072 341.852 155.898 340.592 157.547C337.025 162.169 331.98 165.505 326.644 167.897C314.336 173.397 299.451 174.055 287.602 167.583C275.721 161.087 268.486 148.668 262.459 136.529C259.637 130.851 254.831 129.873 249.202 126.956C235.521 119.921 217.841 103.346 213.308 92.781Z" fill="url(#paint2_radial)"/>
<g filter="url(#filter1_f)">
<path d="M235.425 106.678C230.038 109.996 224.892 108.843 223.399 106.233L251.69 72.8913L254.398 73.4579C252.513 87.8348 240.813 103.36 235.425 106.678Z" fill="#A2AEB3"/>
</g>
<path d="M325.453 143.869C325.453 143.869 338.201 153.346 330.589 167.058C330.589 167.058 341.491 158.66 344.112 163.786C346.733 168.912 352.132 186.619 357.811 182.865C363.491 179.111 356.632 137.709 347.371 139.365C338.11 141.022 325.453 143.869 325.453 143.869Z" fill="black"/>
<path d="M320.742 115.872C320.742 115.872 335.737 121.046 332.635 136.451C332.635 136.451 340.5 125.144 344.534 129.238C348.567 133.332 359.086 148.564 363.366 143.279C367.646 137.995 348.598 100.591 340.253 104.987C331.908 109.383 320.742 115.872 320.742 115.872Z" fill="black"/>
<path d="M217.579 107.14C241.13 103.52 257.287 81.4939 253.667 57.9435C250.047 34.393 228.021 18.2361 204.471 21.856C180.92 25.4759 164.763 47.5018 168.383 71.0523C172.003 94.6028 194.029 110.76 217.579 107.14Z" fill="url(#paint3_radial)"/>
<path d="M187.426 88.5532C185.486 89.3751 183.231 88.9068 181.799 87.3519C176.985 82.1556 172.333 72.7149 172.255 66.1504C171.93 40.9418 207.765 31.1852 217.962 50.9479C222.651 60.0628 220.59 69.3714 219.476 73.2964C219.115 74.5449 218.199 75.5879 216.996 76.0928L187.426 88.5532Z" fill="url(#paint4_linear)"/>
<g style="mix-blend-mode:multiply">
<path d="M218.212 50.8802C213.066 40.8752 201.345 38.4573 191.085 41.7513C199.191 41.291 189.408 58.1012 193.386 65.8121C198.076 74.927 213.711 70.6322 212.602 74.5856C212.241 75.8342 211.325 76.8771 210.122 77.3821L183.751 88.5068C184.969 89.047 186.397 89.0604 187.68 88.5138L217.251 76.0535C218.454 75.5486 219.37 74.5056 219.731 73.257C220.84 69.3036 222.934 60.0191 218.212 50.8802Z" fill="url(#paint5_radial)"/>
</g>
<path d="M178.983 53.3017C180.612 51.218 183.621 50.7263 185.701 52.3273C186.623 53.0294 187.281 54.0922 187.054 55.6404C186.458 60.0968 182.08 61.5263 183.938 73.6082C184.711 78.64 188.07 80.0443 185.507 81.544C182.81 83.1225 176.99 77.8189 175.436 67.1453C174.48 60.5413 176.969 55.9102 178.983 53.3017Z" fill="white"/>
<path d="M247.109 104.54C248.125 103.257 247.716 101.242 246.196 100.04C244.676 98.837 242.621 98.9022 241.606 100.185C240.591 101.468 241 103.483 242.519 104.686C244.039 105.888 246.094 105.823 247.109 104.54Z" fill="#40BAC5"/>
<path d="M255.507 108.695C256.523 107.412 256.114 105.397 254.594 104.194C253.074 102.992 251.019 103.057 250.004 104.34C248.989 105.623 249.397 107.638 250.917 108.84C252.437 110.043 254.492 109.978 255.507 108.695Z" fill="#CE0C22"/>
<g style="mix-blend-mode:multiply">
<path d="M222.014 131.641C222.575 131.714 222.84 130.983 222.377 130.671C220.446 129.389 217.256 127.689 215.295 128.848C213.098 130.129 218.791 131.17 222.014 131.641Z" fill="url(#paint6_radial)"/>
</g>
<g style="mix-blend-mode:multiply">
<path d="M200.262 142.919C200.19 143.479 200.92 143.745 201.232 143.282C202.514 141.35 204.214 138.16 203.055 136.199C201.748 133.992 200.734 139.695 200.262 142.919Z" fill="url(#paint7_radial)"/>
</g>
<g style="mix-blend-mode:multiply">
<path d="M320.343 148.496C319.834 147.264 319.012 147.216 319.228 148.434C320.172 153.44 322.058 161.356 324.929 164.698C328.145 168.394 323.242 155.616 320.343 148.496Z" fill="url(#paint8_radial)"/>
</g>
<g style="mix-blend-mode:multiply">
<path d="M317.534 118.111C317.025 116.88 316.203 116.831 316.419 118.049C317.363 123.055 319.249 130.971 322.12 134.313C325.336 138.009 320.404 125.236 317.534 118.111Z" fill="url(#paint9_radial)"/>
</g>
<g style="mix-blend-mode:multiply">
<path d="M311.949 117.544C311.862 116.218 311.086 115.901 310.924 117.119C310.217 122.175 309.481 130.261 311.16 134.368C312.99 138.888 312.401 125.215 311.949 117.544Z" fill="url(#paint10_radial)"/>
</g>
<g style="mix-blend-mode:multiply">
<path d="M303.787 114.608C304.701 112.983 304.314 112.17 303.243 113.528C298.901 119.171 292.235 128.431 290.572 134.273C288.712 140.728 298.428 124.045 303.787 114.608Z" fill="url(#paint11_radial)"/>
</g>
<g style="mix-blend-mode:multiply">
<path d="M314.677 149.686C314.581 148.683 313.879 148.47 313.759 149.391C313.243 153.224 312.767 159.408 314.337 162.426C316.049 165.801 315.247 155.477 314.677 149.686Z" fill="url(#paint12_radial)"/>
</g>
<g style="mix-blend-mode:multiply">
<path d="M309.792 149.332C310.205 148.424 309.687 147.893 309.134 148.647C306.787 151.743 303.327 156.873 303.208 160.267C303.057 164.015 307.436 154.641 309.792 149.332Z" fill="url(#paint13_radial)"/>
</g>
<g style="mix-blend-mode:multiply">
<path d="M307.764 146.355C309.14 145.271 308.554 143.731 306.986 144.321C300.557 146.794 290.7 151.393 288.207 157.131C285.435 163.522 299.825 152.639 307.764 146.355Z" fill="url(#paint14_radial)"/>
</g>
<g style="mix-blend-mode:multiply">
<path d="M222.907 118.747C223.665 118.869 224.066 117.883 223.438 117.441C221.869 116.338 219.653 115.22 218.2 116.275C216.489 117.505 220.218 118.337 222.907 118.747Z" fill="url(#paint15_radial)"/>
</g>
<g style="mix-blend-mode:multiply">
<path d="M216.662 141.978C217.136 142.264 217.657 141.669 217.312 141.218C215.567 139.019 212.514 135.76 209.864 135.863C209.143 135.88 208.971 136.152 209.182 136.548C208.218 137.088 211.517 142.185 213.483 145.064C213.79 145.53 214.513 145.203 214.393 144.658C214.127 143.556 213.766 142.229 213.239 140.929C213.049 140.479 213.569 140.039 213.99 140.303C214.942 140.938 215.89 141.509 216.662 141.978Z" fill="url(#paint16_radial)"/>
</g>
<path d="M231.684 114.458L235.354 110.693C236.935 109.053 239.487 108.807 241.348 110.121L248.524 115.158C250.188 116.328 250.461 118.672 249.127 120.216L245.586 124.252C245.341 124.552 244.915 124.617 244.591 124.405C242.691 123.213 236.335 119.156 231.778 115.637C231.385 115.348 231.358 114.799 231.684 114.458Z" fill="#2E3D6D"/>
<path d="M255.452 73.5284C255.452 73.5284 251.08 77.0812 253.9 82.1766C257.479 88.6104 265.719 86.9365 265.719 86.9365C265.719 86.9365 272.071 89.4521 276.477 88.7748C280.883 88.0975 283.295 92.9939 288.683 92.4567C288.683 92.4567 283.014 97.984 283.492 102.421C283.971 106.858 276.64 109.905 277.922 110.668C278.626 111.084 276.43 113.837 276.43 113.837L285.511 118.203L291.939 107.961C291.939 107.961 303.066 100.082 302.186 93.0293C301.305 85.977 294.821 77.1089 288.365 77.8975C281.91 78.686 277.833 73.5511 272.998 74.0905C268.167 74.6584 264.977 69.9981 255.452 73.5284Z" fill="url(#paint17_radial)"/>
<path d="M284.059 111.588C284.059 111.588 281.52 109.272 275.845 111.162C270.171 113.053 256.247 119.209 259.548 127.432C262.877 135.65 276.046 131.21 278.226 130.06C280.407 128.91 286.286 120.965 285.868 116.926C285.451 112.887 284.059 111.588 284.059 111.588Z" fill="black"/>
<path d="M278.18 109.697C278.18 109.697 273.293 108.761 269.188 111.021C265.051 113.258 267.362 115.609 269.035 115.323C270.707 115.036 284.613 112.55 278.18 109.697Z" fill="black"/>
<g style="mix-blend-mode:multiply">
<path d="M265.277 79.1473C265.163 78.4082 264.105 78.3381 263.864 79.0443C263.307 80.9052 262.921 83.3214 264.397 84.4041C266.103 85.6551 265.721 81.8436 265.277 79.1473Z" fill="url(#paint18_radial)"/>
</g>
<g style="mix-blend-mode:multiply">
<path d="M278.45 82.6805C278.487 81.9764 277.871 81.7511 277.645 82.3677C277.044 83.9443 276.497 86.0653 277.21 87.2943C278.034 88.6808 278.343 85.1996 278.45 82.6805Z" fill="url(#paint19_radial)"/>
</g>
<g style="mix-blend-mode:multiply">
<path d="M293.903 82.8664C294.051 82.3198 293.356 81.961 293.015 82.3918C291.289 84.6067 288.835 88.3303 289.55 90.8977C289.744 91.5952 290.051 91.6937 290.385 91.4095C291.118 92.199 295.306 87.8305 297.642 85.2308C298.016 84.8241 297.541 84.1986 297.027 84.4522C296.028 84.955 294.794 85.6393 293.697 86.4482C293.305 86.7412 292.748 86.3322 292.909 85.8708C293.325 84.7885 293.631 83.752 293.903 82.8664Z" fill="url(#paint20_radial)"/>
</g>
<path d="M177.458 105.89L178.132 106.754L174.71 106.388C174.195 107.731 173.307 108.922 172.181 109.861L161.884 118.468C157.232 122.352 147.001 122.013 139.091 121.003C135.077 120.489 133.348 125.127 136.218 128.684L147.682 142.873L148.621 144L149.534 145.116L160.373 158.245C163.551 162.113 168.887 161.208 169.226 156.782C169.798 148.88 171.442 139.334 175.901 135.62L186.197 127.014C187.324 126.074 188.642 125.43 190.053 125.165L188.787 120.335L189.859 121.671C190.787 122.825 192.125 123.275 192.865 122.676L193.472 122.177C194.212 121.578 194.038 120.172 193.11 119.019L180.688 103.291C179.759 102.137 178.421 101.687 177.681 102.286L177.074 102.785C176.393 103.315 176.53 104.737 177.458 105.89Z" fill="#CE0C22"/>
<path d="M159.811 135.104C168.615 146.444 170.621 159.615 164.281 164.52C157.941 169.426 145.679 164.226 136.865 152.914C128.061 141.574 126.055 128.403 132.395 123.498C138.746 118.565 151.007 123.765 159.811 135.104Z" fill="url(#paint21_radial)"/>
<path d="M161.071 136.051C165.961 142.354 167.058 149.661 163.555 152.398C160.053 155.134 153.221 152.234 148.358 145.943C143.468 139.64 142.371 132.333 145.874 129.596C149.365 126.886 156.181 129.749 161.071 136.051Z" fill="url(#paint22_radial)"/>
<path d="M193.555 126.184C197.03 123.485 195.794 116.08 190.794 109.644C185.795 103.209 178.925 100.181 175.45 102.881C171.975 105.581 173.212 112.986 178.211 119.421C183.211 125.856 190.081 128.884 193.555 126.184Z" fill="#CE0C22"/>
<path d="M164.653 165.598C170.987 160.676 168.838 147.311 159.853 135.745C150.867 124.18 138.447 118.794 132.113 123.715C125.778 128.637 127.927 142.003 136.913 153.568C145.898 165.134 158.318 170.519 164.653 165.598Z" stroke="#FF0022" stroke-width="7.56899" stroke-miterlimit="10"/>
<path d="M190.409 153.07C185.875 154.624 179.696 142.277 176.162 134.937L186.362 125.547L196.076 143.599C196.751 146.756 194.943 151.516 190.409 153.07Z" fill="#CE0C22"/>
<path d="M185.551 154.932C185.551 154.932 191.815 152.457 194.337 147.397C196.859 142.337 197.014 138.364 195.682 136.829C194.35 135.294 193.209 129.087 187.71 130.547C182.201 132.034 172.743 134.834 176.457 141.28C180.171 147.725 183.668 156.433 185.551 154.932Z" fill="black"/>
<path d="M58.815 129.139L64.5797 130.559L65.6599 126.177L68.4242 126.858L69.654 121.869L66.8896 121.188L70.5623 106.287L64.1234 104.7L49.7149 117.312L48.5682 121.964L59.8952 124.756L58.815 129.139ZM55.866 118.471L63.6401 111.304L61.5295 119.867L55.866 118.471ZM73.2835 119.295C71.4887 126.577 72.6534 132.442 79.6654 134.171C86.6773 135.899 90.4345 131.246 92.2293 123.965C94.0075 116.751 92.8428 110.885 85.8308 109.157C78.8189 107.428 75.0617 112.081 73.2835 119.295ZM86.5658 122.569C85.6019 126.479 84.3997 129.616 80.9949 128.777C77.59 127.937 77.9832 124.601 78.947 120.691C79.8777 116.915 81.0965 113.711 84.5014 114.551C87.9062 115.39 87.4964 118.793 86.5658 122.569ZM103.621 140.182L109.385 141.603L110.466 137.221L113.23 137.902L114.46 132.913L111.695 132.232L115.368 117.331L108.929 115.744L94.5207 128.356L93.374 133.008L104.701 135.8L103.621 140.182ZM100.672 129.514L108.446 122.348L106.335 130.91L100.672 129.514Z" fill="#FF0022"/>
<path d="M136.893 145.788C122.831 175.507 87.34 188.2 57.6207 174.139C27.9015 160.077 15.2085 124.586 29.2701 94.8664C43.3317 65.1471 78.8232 52.4541 108.542 66.5158C127.087 75.2902 139.002 92.4089 141.924 111.263" stroke="#FF0022" stroke-width="2.523" stroke-linecap="round" stroke-dasharray="4.63 12.61"/>
<circle cx="349.054" cy="60.8215" r="17.5689" transform="rotate(-27.4611 349.054 60.8215)" fill="#4080FF" stroke="#4080FF" stroke-width="1.85473"/>
<mask id="mask0" style="mask-type:alpha" maskUnits="userSpaceOnUse" x="327" y="45" width="44" height="32">
<path d="M348.053 49.0339C345.886 49.5128 344.517 51.6578 344.996 53.825C345.475 55.9921 347.62 57.3607 349.787 56.8818L353.962 55.9591C353.882 56.3646 353.883 56.7927 353.978 57.222C354.346 58.889 355.996 59.9418 357.663 59.5734L364.907 57.9726C366.574 57.6042 367.627 55.9542 367.259 54.2871C366.973 52.9942 365.916 52.0708 364.679 51.8933C365.006 51.1421 365.108 50.2841 364.918 49.4227C364.439 47.2555 362.294 45.887 360.126 46.3659L348.053 49.0339Z" fill="#002482"/>
<path d="M348.531 69.8225C348.163 68.1555 349.216 66.5055 350.883 66.1371L365.975 62.802C367.642 62.4336 369.292 63.4864 369.66 65.1534C370.028 66.8204 368.976 68.4704 367.309 68.8388L352.217 72.1739C350.55 72.5423 348.9 71.4895 348.531 69.8225Z" fill="#002482"/>
<path d="M332.849 61.8911C331.182 62.2595 330.129 63.9095 330.498 65.5765C330.866 67.2436 332.516 68.2963 334.183 67.9279L348.671 64.7262C350.338 64.3579 351.391 62.7078 351.023 61.0408C350.654 59.3738 349.004 58.3211 347.337 58.6894L332.849 61.8911Z" fill="#002482"/>
</mask>
<g mask="url(#mask0)">
<circle cx="349.052" cy="60.822" r="16.6415" transform="rotate(-27.4611 349.052 60.822)" fill="#002482"/>
</g>
<circle cx="433.91" cy="149.777" r="12.694" transform="rotate(-15 433.91 149.777)" fill="#ED8441"/>
<path fill-rule="evenodd" clip-rule="evenodd" d="M444.964 143.437C444.696 142.947 444.304 142.376 443.773 141.703C443.73 141.648 443.687 141.594 443.643 141.541C455.72 137.472 465.012 136.287 466.205 139.062C467.755 142.67 455.025 151.605 437.771 159.02C420.517 166.434 405.273 169.52 403.723 165.913C402.525 163.125 409.855 157.155 421.211 151.165C421.306 151.917 421.469 152.665 421.701 153.398C417.286 156.153 414.724 158.628 415.285 159.934C416.229 162.13 425.641 160.195 436.307 155.611C446.973 151.028 454.854 145.532 453.911 143.336C453.357 142.048 449.89 142.181 444.964 143.437Z" fill="#ED8441"/>
<defs>
<filter id="filter0_d" x="153.235" y="28.9778" width="243.157" height="189.005" filterUnits="userSpaceOnUse" color-interpolation-filters="sRGB">
<feFlood flood-opacity="0" result="BackgroundImageFix"/>
<feColorMatrix in="SourceAlpha" type="matrix" values="0 0 0 0 0 0 0 0 0 0 0 0 0 0 0 0 0 0 127 0" result="hardAlpha"/>
<feOffset dy="1.69777"/>
<feGaussianBlur stdDeviation="0.848887"/>
<feColorMatrix type="matrix" values="0 0 0 0 0 0 0 0 0 0 0 0 0 0 0 0 0 0 0.25 0"/>
<feBlend mode="normal" in2="BackgroundImageFix" result="effect1_dropShadow"/>
<feBlend mode="normal" in="SourceGraphic" in2="effect1_dropShadow" result="shape"/>
</filter>
<filter id="filter1_f" x="219.193" y="68.6864" width="39.41" height="44.2364" filterUnits="userSpaceOnUse" color-interpolation-filters="sRGB">
<feFlood flood-opacity="0" result="BackgroundImageFix"/>
<feBlend mode="normal" in="SourceGraphic" in2="BackgroundImageFix" result="shape"/>
<feGaussianBlur stdDeviation="2.1025" result="effect1_foregroundBlur"/>
</filter>
<radialGradient id="paint0_radial" cx="0" cy="0" r="1" gradientUnits="userSpaceOnUse" gradientTransform="translate(269.803 124.779) rotate(3.74236) scale(82.4259)">
<stop offset="0.381" stop-color="#BFCCD1"/>
<stop offset="0.7578" stop-color="white"/>
</radialGradient>
<radialGradient id="paint1_radial" cx="0" cy="0" r="1" gradientUnits="userSpaceOnUse" gradientTransform="translate(242.067 95.7814) rotate(5.39645) scale(52.0111)">
<stop offset="0.381" stop-color="#BFCCD1"/>
<stop offset="0.7578" stop-color="white"/>
</radialGradient>
<radialGradient id="paint2_radial" cx="0" cy="0" r="1" gradientUnits="userSpaceOnUse" gradientTransform="translate(246.853 209.632) rotate(-27.1118) scale(161.652)">
<stop offset="0.381" stop-color="#BFCCD1"/>
<stop offset="0.7578" stop-color="white"/>
</radialGradient>
<radialGradient id="paint3_radial" cx="0" cy="0" r="1" gradientUnits="userSpaceOnUse" gradientTransform="translate(233.772 119.551) rotate(-8.73846) scale(72.1279)">
<stop offset="0.381" stop-color="#BFCCD1"/>
<stop offset="0.7578" stop-color="white"/>
</radialGradient>
<linearGradient id="paint4_linear" x1="172.342" y1="67.6431" x2="220.78" y2="60.1979" gradientUnits="userSpaceOnUse">
<stop stop-color="#FFF668"/>
<stop offset="0.29" stop-color="#FF9C4C"/>
<stop offset="1" stop-color="#880000"/>
</linearGradient>
<radialGradient id="paint5_radial" cx="0" cy="0" r="1" gradientUnits="userSpaceOnUse" gradientTransform="translate(194.09 72.4841) rotate(-8.73846) scale(38.5717)">
<stop stop-color="white"/>
<stop offset="0.9385" stop-color="#880000"/>
</radialGradient>
<radialGradient id="paint6_radial" cx="0" cy="0" r="1" gradientUnits="userSpaceOnUse" gradientTransform="translate(225.235 131.962) rotate(9.4359) scale(11.3334)">
<stop offset="0.381" stop-color="#BFCCD1"/>
<stop offset="0.7578" stop-color="white"/>
</radialGradient>
<radialGradient id="paint7_radial" cx="0" cy="0" r="1" gradientUnits="userSpaceOnUse" gradientTransform="translate(199.943 146.138) rotate(99.4359) scale(11.3334)">
<stop offset="0.381" stop-color="#BFCCD1"/>
<stop offset="0.7578" stop-color="white"/>
</radialGradient>
<radialGradient id="paint8_radial" cx="0" cy="0" r="1" gradientUnits="userSpaceOnUse" gradientTransform="translate(317.41 141.437) rotate(-111.415) scale(26.7789 11.3335)">
<stop offset="0.381" stop-color="#BFCCD1"/>
<stop offset="0.7578" stop-color="white"/>
</radialGradient>
<radialGradient id="paint9_radial" cx="0" cy="0" r="1" gradientUnits="userSpaceOnUse" gradientTransform="translate(314.589 111.058) rotate(-111.415) scale(26.7789 11.3335)">
<stop offset="0.381" stop-color="#BFCCD1"/>
<stop offset="0.7578" stop-color="white"/>
</radialGradient>
<radialGradient id="paint10_radial" cx="0" cy="0" r="1" gradientUnits="userSpaceOnUse" gradientTransform="translate(311.362 109.947) rotate(-92.8329) scale(26.7783 11.3337)">
<stop offset="0.381" stop-color="#BFCCD1"/>
<stop offset="0.7578" stop-color="white"/>
</radialGradient>
<radialGradient id="paint11_radial" cx="0" cy="0" r="1" gradientUnits="userSpaceOnUse" gradientTransform="translate(308.994 105.18) rotate(-60.0443) scale(37.7591 11.3339)">
<stop offset="0.381" stop-color="#BFCCD1"/>
<stop offset="0.7578" stop-color="white"/>
</radialGradient>
<radialGradient id="paint12_radial" cx="0" cy="0" r="1" gradientUnits="userSpaceOnUse" gradientTransform="translate(314.029 143.966) rotate(-94.9335) scale(20.2558 10.0092)">
<stop offset="0.381" stop-color="#BFCCD1"/>
<stop offset="0.7578" stop-color="white"/>
</radialGradient>
<radialGradient id="paint13_radial" cx="0" cy="0" r="1" gradientUnits="userSpaceOnUse" gradientTransform="translate(312.052 144.03) rotate(-65.3702) scale(20.2556 10.0083)">
<stop offset="0.381" stop-color="#BFCCD1"/>
<stop offset="0.7578" stop-color="white"/>
</radialGradient>
<radialGradient id="paint14_radial" cx="0" cy="0" r="1" gradientUnits="userSpaceOnUse" gradientTransform="translate(315.477 139.913) rotate(-37.565) scale(35.2705 23.3517)">
<stop offset="0.381" stop-color="#BFCCD1"/>
<stop offset="0.7578" stop-color="white"/>
</radialGradient>
<radialGradient id="paint15_radial" cx="0" cy="0" r="1" gradientUnits="userSpaceOnUse" gradientTransform="translate(224.581 114.011) rotate(3.74234) scale(12.1339)">
<stop offset="0.381" stop-color="#BFCCD1"/>
<stop offset="0.7578" stop-color="white"/>
</radialGradient>
<radialGradient id="paint16_radial" cx="0" cy="0" r="1" gradientUnits="userSpaceOnUse" gradientTransform="translate(207.392 132.878) rotate(3.74234) scale(17.2323)">
<stop offset="0.381" stop-color="#BFCCD1"/>
<stop offset="0.7578" stop-color="white"/>
</radialGradient>
<radialGradient id="paint17_radial" cx="0" cy="0" r="1" gradientUnits="userSpaceOnUse" gradientTransform="translate(242.046 110.508) rotate(-8.73846) scale(70.8567)">
<stop offset="0.381" stop-color="#BFCCD1"/>
<stop offset="0.7578" stop-color="white"/>
</radialGradient>
<radialGradient id="paint18_radial" cx="0" cy="0" r="1" gradientUnits="userSpaceOnUse" gradientTransform="translate(260.281 79.0301) rotate(-104.552) scale(12.1348)">
<stop offset="0.381" stop-color="#BFCCD1"/>
<stop offset="0.7578" stop-color="white"/>
</radialGradient>
<radialGradient id="paint19_radial" cx="0" cy="0" r="1" gradientUnits="userSpaceOnUse" gradientTransform="translate(275.527 81.7558) rotate(-90.8503) scale(11.1317 7.37743)">
<stop offset="0.381" stop-color="#BFCCD1"/>
<stop offset="0.7578" stop-color="white"/>
</radialGradient>
<radialGradient id="paint20_radial" cx="0" cy="0" r="1" gradientUnits="userSpaceOnUse" gradientTransform="translate(287.245 94.0219) rotate(-99.8102) scale(17.2323)">
<stop offset="0.381" stop-color="#BFCCD1"/>
<stop offset="0.7578" stop-color="white"/>
</radialGradient>
<radialGradient id="paint21_radial" cx="0" cy="0" r="1" gradientUnits="userSpaceOnUse" gradientTransform="translate(141.615 148.115) rotate(3.74236) scale(23.0141)">
<stop stop-color="#CE0C22"/>
<stop offset="1" stop-color="#590000"/>
</radialGradient>
<radialGradient id="paint22_radial" cx="0" cy="0" r="1" gradientUnits="userSpaceOnUse" gradientTransform="translate(143.14 141.365) rotate(3.74236) scale(30.248)">
<stop stop-color="#FF0C22"/>
<stop offset="1" stop-color="#590000"/>
</radialGradient>
</defs>
</svg>
