<svg width="291" height="212" viewBox="0 0 291 212" fill="none" xmlns="http://www.w3.org/2000/svg">
<path d="M126.189 31.8589C145.026 39.8079 133.757 61.9275 126.189 68.5582C116.237 82.5142 98.773 80.2335 101.035 93.042C108.226 133.759 71.4025 173.206 33.8088 142.869C11.3315 124.731 19.2742 101.412 22.1555 93.7629C32.4499 66.4341 49.3071 71.181 58.7186 49.3499C71.2838 20.2032 102.644 21.9227 126.189 31.8589Z" fill="url(#paint0_linear)"/>
<path d="M260.815 96.5064C270.643 108.579 271.756 119.767 268.479 128.746C263.232 143.121 256.842 143.197 247.632 164.271C236.346 190.097 201.547 157.25 200.832 135.488C200.117 113.725 220.54 112.821 226.148 98.7617C231.757 84.7025 248.529 81.4159 260.815 96.5064Z" fill="url(#paint1_linear)"/>
<path d="M5.51172 176.099C5.51172 171.452 9.27894 167.685 13.926 167.685H269.62C274.267 167.685 278.034 171.452 278.034 176.099V177.324C278.034 181.294 274.816 184.513 270.845 184.513H269.672C266.349 184.513 263.656 187.207 263.656 190.53C263.656 193.853 260.962 196.547 257.639 196.547H229.025C224.928 196.547 221.606 199.868 221.606 203.965C221.606 208.062 218.285 211.384 214.188 211.384H67.9822C63.8851 211.384 60.5636 208.062 60.5636 203.965C60.5636 199.868 57.2422 196.547 53.145 196.547H26.6023C23.2793 196.547 20.5855 193.853 20.5855 190.53C20.5855 187.207 17.8917 184.513 14.5688 184.513H13.0486C8.88611 184.513 5.51172 181.139 5.51172 176.976V176.099Z" fill="#35384D"/>
<path d="M57.6925 167.933H57.6999V162.765C57.6999 159.982 47.4553 157.727 34.8177 157.727C22.1801 157.727 11.9355 159.982 11.9355 162.765V167.933H11.943C12.2562 170.655 22.3776 172.841 34.8177 172.841C47.2578 172.841 57.3793 170.655 57.6925 167.933Z" fill="#FFA318"/>
<path d="M11.9726 162.765H11.9346V167.933H11.942C12.2552 170.655 22.3767 172.841 34.8168 172.841C47.2569 172.841 57.3783 170.655 57.6915 167.933H57.699V162.765H57.6609C56.9735 165.411 47.009 167.511 34.8168 167.511C22.6245 167.511 12.6601 165.411 11.9726 162.765Z" fill="url(#paint2_linear)"/>
<path fill-rule="evenodd" clip-rule="evenodd" d="M12.8125 163.862V169.192C13.1047 169.418 13.4664 169.637 13.8924 169.848V164.518C13.4664 164.306 13.1047 164.087 12.8125 163.862ZM15.0764 165.025V170.356C15.4126 170.482 15.773 170.604 16.1562 170.723V165.393C15.773 165.274 15.4126 165.151 15.0764 165.025ZM17.3427 165.729V171.06C17.6889 171.15 18.0491 171.237 18.4226 171.322V165.991C18.0491 165.907 17.6889 165.819 17.3427 165.729ZM19.6091 166.241V171.572C19.9596 171.64 20.3197 171.707 20.689 171.771V166.44C20.3197 166.376 19.9596 166.31 19.6091 166.241ZM21.8784 166.633V171.963C22.2314 172.016 22.5915 172.068 22.9583 172.117V166.786C22.5915 166.737 22.2314 166.686 21.8784 166.633ZM24.1475 166.935V172.265C24.5021 172.307 24.8622 172.346 25.2274 172.383V167.053C24.8622 167.015 24.5021 166.976 24.1475 166.935ZM26.4112 167.164V172.495C26.7669 172.526 27.1269 172.555 27.4911 172.582V167.251C27.1269 167.224 26.7669 167.195 26.4112 167.164ZM28.6803 167.332V172.662C29.0368 172.684 29.3969 172.704 29.7602 172.722V167.392C29.3969 167.374 29.0368 167.354 28.6803 167.332ZM30.9523 167.444V172.774C31.3095 172.787 31.6696 172.799 32.0322 172.809V167.478C31.6696 167.469 31.3095 167.457 30.9523 167.444ZM33.2156 167.503V172.833C33.5734 172.839 33.9334 172.843 34.2955 172.844V167.514C33.9334 167.512 33.5734 167.509 33.2156 167.503ZM35.482 167.513V172.844C35.8441 172.841 36.2041 172.837 36.5619 172.831V167.501C36.2041 167.507 35.8441 167.511 35.482 167.513ZM37.7515 167.474V172.805C38.1142 172.795 38.4742 172.782 38.8314 172.769V167.438C38.4742 167.452 38.1142 167.464 37.7515 167.474ZM40.0177 167.385V172.715C40.381 172.697 40.7411 172.676 41.0976 172.654V167.323C40.7411 167.346 40.381 167.366 40.0177 167.385ZM42.2868 167.241V172.571C42.651 172.544 43.011 172.514 43.3667 172.483V167.152C43.011 167.184 42.651 167.213 42.2868 167.241ZM44.5504 167.038V172.369C44.9158 172.331 45.2759 172.291 45.6303 172.249V166.919C45.2759 166.961 44.9158 167.001 44.5504 167.038ZM46.8223 166.767V172.098C47.1892 172.048 47.5493 171.996 47.9022 171.942V166.611C47.5493 166.666 47.1892 166.718 46.8223 166.767ZM49.0887 166.416V171.746C49.4581 171.682 49.8183 171.614 50.1685 171.544V166.214C49.8183 166.284 49.4581 166.351 49.0887 166.416ZM51.3521 165.96V171.291C51.7261 171.205 52.0863 171.116 52.432 171.024V165.694C52.0863 165.786 51.7261 165.874 51.3521 165.96ZM53.6212 165.35V170.68C54.0054 170.558 54.3659 170.433 54.7011 170.304V164.973C54.3659 165.102 54.0054 165.228 53.6212 165.35ZM55.8876 164.447V169.777C56.3218 169.552 56.6839 169.319 56.9675 169.079V163.771H56.941C56.6615 164.003 56.3084 164.229 55.8876 164.447Z" fill="#FF9211"/>
<g style="mix-blend-mode:multiply">
<path fill-rule="evenodd" clip-rule="evenodd" d="M54.0002 163.209C54.1283 163.026 54.1946 162.839 54.1946 162.648C54.1946 160.475 45.5461 158.714 34.8776 158.714C24.2091 158.714 15.5605 160.475 15.5605 162.648C15.5605 162.838 15.6266 163.025 15.7544 163.208C17.0897 161.3 25.1425 159.834 34.877 159.834C44.6129 159.834 52.6665 161.301 54.0002 163.209Z" fill="#FFC177"/>
</g>
<path d="M54.0259 162.648C54.0259 162.86 53.9215 163.085 53.6831 163.322C53.4444 163.559 53.0834 163.797 52.6034 164.028C51.6441 164.49 50.2453 164.91 48.5031 165.265C45.0215 165.974 40.204 166.414 34.8776 166.414C29.5511 166.414 24.7337 165.974 21.252 165.265C19.5098 164.91 18.111 164.49 17.1518 164.028C16.6718 163.797 16.3107 163.559 16.072 163.322C15.8337 163.085 15.7292 162.86 15.7292 162.648C15.7292 162.437 15.8337 162.212 16.072 161.975C16.3107 161.737 16.6718 161.5 17.1518 161.269C18.111 160.807 19.5098 160.386 21.252 160.032C24.7337 159.322 29.5511 158.883 34.8776 158.883C40.204 158.883 45.0215 159.322 48.5031 160.032C50.2453 160.386 51.6441 160.807 52.6034 161.269C53.0834 161.5 53.4444 161.737 53.6831 161.975C53.9215 162.212 54.0259 162.437 54.0259 162.648Z" stroke="#FFC177" stroke-width="0.337348"/>
<g style="mix-blend-mode:multiply" opacity="0.5">
<ellipse cx="34.89" cy="162.65" rx="22.8822" ry="5.03807" fill="#FF981D"/>
</g>
<path d="M60.2521 161.675H60.2595V156.507C60.2595 153.724 50.0149 151.469 37.3773 151.469C24.7397 151.469 14.4951 153.724 14.4951 156.507V161.675H14.5026C14.8157 164.397 24.9372 166.583 37.3773 166.583C49.8174 166.583 59.9389 164.397 60.2521 161.675Z" fill="#FFA318"/>
<path d="M14.5331 156.506H14.4951V161.674H14.5026C14.8157 164.397 24.9372 166.582 37.3773 166.582C49.8174 166.582 59.9389 164.397 60.2521 161.674H60.2595V156.506H60.2215C59.534 159.152 49.5695 161.252 37.3773 161.252C25.1851 161.252 15.2206 159.152 14.5331 156.506Z" fill="url(#paint3_linear)"/>
<path fill-rule="evenodd" clip-rule="evenodd" d="M15.3643 157.594V162.925C15.6562 163.151 16.018 163.37 16.4441 163.582V158.252C16.0179 158.04 15.6562 157.82 15.3643 157.594ZM17.6273 158.76V164.09C17.9636 164.216 18.324 164.339 18.7072 164.458V159.127C18.324 159.009 17.9636 158.886 17.6273 158.76ZM19.8996 159.466V164.796C20.2457 164.886 20.6059 164.974 20.9794 165.058V159.728C20.6059 159.643 20.2457 159.556 19.8996 159.466ZM22.1716 159.979V165.309C22.5221 165.378 22.8822 165.444 23.2515 165.508V160.178C22.8822 160.114 22.5221 160.047 22.1716 159.979ZM24.4321 160.369V165.699C24.7851 165.752 25.1452 165.804 25.512 165.853V160.522C25.1452 160.473 24.7851 160.422 24.4321 160.369ZM26.6985 160.671V166.001C27.0531 166.042 27.4131 166.082 27.7784 166.119V160.788C27.4131 160.751 27.0531 160.712 26.6985 160.671ZM28.9705 160.901V166.231C29.3262 166.262 29.6863 166.291 30.0504 166.318V160.988C29.6863 160.961 29.3262 160.932 28.9705 160.901ZM31.2338 161.068V166.398C31.5903 166.42 31.9504 166.44 32.3137 166.458V161.128C31.9504 161.11 31.5903 161.09 31.2338 161.068ZM33.5033 161.18V166.51C33.8605 166.524 34.2205 166.535 34.5832 166.545V161.215C34.2205 161.205 33.8605 161.193 33.5033 161.18ZM35.7697 161.239V166.57C36.1275 166.575 36.4875 166.579 36.8496 166.581V161.25C36.4875 161.249 36.1275 161.245 35.7697 161.239ZM38.0388 161.25V166.58C38.4009 166.578 38.761 166.574 39.1187 166.568V161.237C38.761 161.243 38.4009 161.247 38.0388 161.25ZM40.3081 161.211V166.541C40.6708 166.531 41.0308 166.519 41.388 166.505V161.175C41.0308 161.188 40.6708 161.201 40.3081 161.211ZM42.5772 161.121V166.451C42.9406 166.433 43.3006 166.412 43.6571 166.39V161.06C43.3006 161.082 42.9406 161.102 42.5772 161.121ZM44.8378 160.978V166.308C45.202 166.28 45.562 166.251 45.9176 166.219V160.889C45.562 160.921 45.202 160.95 44.8378 160.978ZM47.1069 160.775V166.105C47.4722 166.067 47.8323 166.027 48.1868 165.985V160.655C47.8323 160.697 47.4722 160.737 47.1069 160.775ZM49.3732 160.505V165.835C49.7402 165.785 50.1003 165.733 50.4531 165.679V160.348C50.1003 160.403 49.7402 160.455 49.3732 160.505ZM51.6426 160.153V165.483C52.012 165.418 52.3722 165.351 52.7224 165.281V159.951C52.3722 160.02 52.012 160.088 51.6426 160.153ZM53.9089 159.697V165.027C54.2829 164.941 54.6431 164.852 54.9888 164.761V159.43C54.6431 159.522 54.2829 159.611 53.9089 159.697ZM56.1722 159.088V164.418C56.5564 164.297 56.9168 164.171 57.2521 164.042V158.712C56.9168 158.841 56.5564 158.966 56.1722 159.088ZM58.4444 158.183V163.513C58.8786 163.288 59.2407 163.055 59.5243 162.815V157.507H59.4974C59.218 157.739 58.8651 157.965 58.4444 158.183Z" fill="#FF9211"/>
<g style="mix-blend-mode:multiply">
<path fill-rule="evenodd" clip-rule="evenodd" d="M56.5578 156.95C56.6859 156.767 56.7522 156.58 56.7522 156.39C56.7522 154.217 48.1037 152.455 37.4352 152.455C26.7667 152.455 18.1182 154.217 18.1182 156.39C18.1182 156.579 18.1842 156.766 18.3118 156.949C19.647 155.041 27.6998 153.575 37.4344 153.575C47.1709 153.575 55.2249 155.042 56.5578 156.95Z" fill="#FFC177"/>
</g>
<path d="M56.5835 156.39C56.5835 156.601 56.4791 156.826 56.2408 157.063C56.002 157.301 55.641 157.538 55.161 157.769C54.2018 158.231 52.8029 158.652 51.0607 159.006C47.5791 159.716 42.7616 160.155 37.4352 160.155C32.1087 160.155 27.2913 159.716 23.8097 159.006C22.0675 158.652 20.6686 158.231 19.7094 157.769C19.2294 157.538 18.8684 157.301 18.6296 157.063C18.3913 156.826 18.2868 156.601 18.2868 156.39C18.2868 156.178 18.3913 155.953 18.6296 155.716C18.8684 155.479 19.2294 155.241 19.7094 155.01C20.6686 154.548 22.0675 154.128 23.8097 153.773C27.2913 153.064 32.1087 152.624 37.4352 152.624C42.7616 152.624 47.5791 153.064 51.0607 153.773C52.8029 154.128 54.2018 154.548 55.161 155.01C55.641 155.241 56.002 155.479 56.2408 155.716C56.4791 155.953 56.5835 156.178 56.5835 156.39Z" stroke="#FFC177" stroke-width="0.337348"/>
<g style="mix-blend-mode:multiply" opacity="0.5">
<ellipse cx="37.4525" cy="156.394" rx="22.8822" ry="5.03807" fill="#FF981D"/>
</g>
<path d="M58.3575 155.631H58.365V150.463C58.365 147.68 48.1204 145.425 35.4828 145.425C22.8452 145.425 12.6006 147.68 12.6006 150.463V155.631H12.608C12.9212 158.353 23.0427 160.539 35.4828 160.539C47.9229 160.539 58.0444 158.353 58.3575 155.631Z" fill="#FFA318"/>
<path d="M12.6396 150.464H12.6016V155.632H12.609C12.9222 158.355 23.0436 160.54 35.4838 160.54C47.9239 160.54 58.0453 158.355 58.3585 155.632H58.3659V150.464H58.3279C57.6404 153.11 47.676 155.21 35.4838 155.21C23.2915 155.21 13.3271 153.11 12.6396 150.464Z" fill="url(#paint4_linear)"/>
<path fill-rule="evenodd" clip-rule="evenodd" d="M13.4766 151.555V156.885C13.7685 157.111 14.1303 157.331 14.5564 157.542V152.212C14.1303 152 13.7685 151.781 13.4766 151.555ZM15.742 152.721V158.051C16.0782 158.177 16.4386 158.3 16.8218 158.419V153.088C16.4386 152.969 16.0782 152.847 15.742 152.721ZM18.0111 153.426V158.756C18.3572 158.846 18.7174 158.934 19.0909 159.018V153.688C18.7174 153.603 18.3572 153.516 18.0111 153.426ZM20.2804 153.938V159.268C20.6308 159.337 20.991 159.404 21.3602 159.467V154.137C20.991 154.073 20.6308 154.007 20.2804 153.938ZM22.5467 154.329V159.659C22.8997 159.713 23.2598 159.764 23.6266 159.813V154.483C23.2598 154.434 22.8997 154.383 22.5467 154.329ZM24.8131 154.631V159.961C25.1677 160.003 25.5277 160.042 25.893 160.079V154.749C25.5277 154.712 25.1677 154.672 24.8131 154.631ZM27.0822 154.861V160.191C27.4379 160.222 27.798 160.251 28.1621 160.278V154.948C27.798 154.921 27.4379 154.892 27.0822 154.861ZM29.3484 155.028V160.359C29.705 160.38 30.065 160.4 30.4283 160.418V155.088C30.065 155.07 29.705 155.05 29.3484 155.028ZM31.6148 155.14V160.47C31.972 160.484 32.3321 160.495 32.6947 160.505V155.175C32.3321 155.165 31.972 155.153 31.6148 155.14ZM33.8781 155.199V160.53C34.2359 160.535 34.5959 160.539 34.958 160.541V155.21C34.5959 155.209 34.2359 155.205 33.8781 155.199ZM36.1503 155.21V160.54C36.5124 160.538 36.8725 160.534 37.2302 160.528V155.197C36.8725 155.203 36.5124 155.207 36.1503 155.21ZM38.4196 155.171V160.501C38.7823 160.491 39.1423 160.479 39.4995 160.465V155.135C39.1423 155.148 38.7823 155.161 38.4196 155.171ZM40.6887 155.081V160.411C41.0521 160.393 41.4121 160.372 41.7686 160.35V155.02C41.4121 155.042 41.0521 155.062 40.6887 155.081ZM42.9524 154.938V160.268C43.3166 160.24 43.6766 160.211 44.0323 160.179V154.849C43.6766 154.88 43.3166 154.91 42.9524 154.938ZM45.2215 154.735V160.065C45.5868 160.027 45.9469 159.987 46.3014 159.945V154.615C45.9469 154.657 45.5868 154.697 45.2215 154.735ZM47.4879 154.464V159.795C47.8548 159.745 48.2149 159.693 48.5678 159.638V154.308C48.2149 154.362 47.8548 154.414 47.4879 154.464ZM49.7541 154.113V159.443C50.1235 159.378 50.4837 159.311 50.8339 159.241V153.911C50.4837 153.981 50.1235 154.048 49.7541 154.113ZM52.0232 153.656V158.987C52.3971 158.901 52.7573 158.812 53.1031 158.72V153.39C52.7573 153.481 52.3971 153.57 52.0232 153.656ZM54.2896 153.046V158.376C54.6737 158.255 55.0342 158.129 55.3694 158V152.67C55.0342 152.799 54.6737 152.924 54.2896 153.046ZM56.559 152.141V157.472C56.9934 157.247 57.3555 157.013 57.6389 156.773V151.467H57.6095C57.3306 151.699 56.9785 151.924 56.559 152.141Z" fill="#FF9211"/>
<g style="mix-blend-mode:multiply">
<path fill-rule="evenodd" clip-rule="evenodd" d="M54.6653 150.905C54.7921 150.723 54.8577 150.537 54.8577 150.348C54.8577 148.175 46.2091 146.413 35.5407 146.413C24.8722 146.413 16.2236 148.175 16.2236 150.348C16.2236 150.537 16.2894 150.723 16.4165 150.906C17.7458 148.997 25.8017 147.529 35.5412 147.529C45.2793 147.529 53.3344 148.996 54.6653 150.905Z" fill="#FFC177"/>
</g>
<path d="M54.689 150.348C54.689 150.559 54.5846 150.784 54.3462 151.021C54.1075 151.259 53.7465 151.496 53.2665 151.727C52.3072 152.189 50.9084 152.61 49.1662 152.964C45.6846 153.674 40.8671 154.113 35.5407 154.113C30.2142 154.113 25.3967 153.674 21.9151 152.964C20.1729 152.61 18.7741 152.189 17.8148 151.727C17.3348 151.496 16.9738 151.259 16.7351 151.021C16.4967 150.784 16.3923 150.559 16.3923 150.348C16.3923 150.136 16.4967 149.911 16.7351 149.674C16.9738 149.437 17.3348 149.199 17.8148 148.968C18.7741 148.506 20.1729 148.086 21.9151 147.731C25.3967 147.022 30.2142 146.582 35.5407 146.582C40.8671 146.582 45.6846 147.022 49.1662 147.731C50.9084 148.086 52.3072 148.506 53.2665 148.968C53.7465 149.199 54.1075 149.437 54.3462 149.674C54.5846 149.911 54.689 150.136 54.689 150.348Z" stroke="#FFC177" stroke-width="0.337348"/>
<g style="mix-blend-mode:multiply" opacity="0.5">
<ellipse cx="35.5492" cy="150.345" rx="22.8822" ry="5.03807" fill="#FF981D"/>
</g>
<path d="M60.92 149.373H60.9275V144.205C60.9275 141.423 50.6829 139.167 38.0453 139.167C25.4077 139.167 15.1631 141.423 15.1631 144.205V149.373H15.1705C15.4837 152.096 25.6052 154.281 38.0453 154.281C50.4854 154.281 60.6069 152.096 60.92 149.373Z" fill="#FFA318"/>
<path d="M15.2001 144.202H15.1621V149.37H15.1695C15.4827 152.093 25.6042 154.278 38.0443 154.278C50.4844 154.278 60.6059 152.093 60.9191 149.37H60.9265V144.202H60.8885C60.201 146.849 50.2365 148.948 38.0443 148.948C25.8521 148.948 15.8876 146.849 15.2001 144.202Z" fill="url(#paint5_linear)"/>
<path fill-rule="evenodd" clip-rule="evenodd" d="M16.0352 145.3V150.63C16.3274 150.856 16.6892 151.075 17.115 151.286V145.956C16.6892 145.744 16.3274 145.525 16.0352 145.3ZM18.2951 146.462V151.792C18.6314 151.918 18.9918 152.041 19.375 152.16V146.829C18.9918 146.711 18.6314 146.588 18.2951 146.462ZM20.5703 147.168V152.499C20.9164 152.589 21.2766 152.676 21.6502 152.76V147.43C21.2766 147.346 20.9164 147.258 20.5703 147.168ZM22.8367 147.68V153.01C23.1871 153.079 23.5473 153.145 23.9165 153.209V147.879C23.5473 147.815 23.1871 147.748 22.8367 147.68ZM25.103 148.071V153.401C25.456 153.454 25.8161 153.506 26.1829 153.555V148.224C25.8161 148.175 25.456 148.124 25.103 148.071ZM27.3694 148.372V153.703C27.724 153.744 28.084 153.783 28.4493 153.82V148.49C28.084 148.453 27.724 148.414 27.3694 148.372ZM29.6356 148.602V153.932C29.9913 153.963 30.3513 153.992 30.7155 154.019V148.689C30.3513 148.662 29.9913 148.633 29.6356 148.602ZM31.9047 148.77V154.1C32.2613 154.122 32.6213 154.142 32.9846 154.16V148.829C32.6213 148.811 32.2613 148.791 31.9047 148.77ZM34.1738 148.881V154.211C34.531 154.225 34.8911 154.236 35.2537 154.246V148.916C34.8911 148.906 34.531 148.895 34.1738 148.881ZM36.4344 148.941V154.271C36.7921 154.276 37.1522 154.28 37.5143 154.282V148.951C37.1522 148.95 36.7921 148.946 36.4344 148.941ZM38.7066 148.951V154.281C39.0687 154.279 39.4288 154.275 39.7865 154.269V148.938C39.4288 148.944 39.0687 148.948 38.7066 148.951ZM40.9701 148.912V154.242C41.3328 154.232 41.6928 154.22 42.05 154.206V148.876C41.6928 148.89 41.3328 148.902 40.9701 148.912ZM43.2423 148.822V154.152C43.6056 154.134 43.9657 154.113 44.3222 154.091V148.761C43.9657 148.783 43.6056 148.803 43.2423 148.822ZM45.5083 148.678V154.009C45.8725 153.981 46.2325 153.951 46.5882 153.92V148.59C46.2325 148.621 45.8725 148.651 45.5083 148.678ZM47.7778 148.475V153.806C48.1431 153.768 48.5032 153.728 48.8577 153.686V148.356C48.5032 148.397 48.1431 148.437 47.7778 148.475ZM50.0442 148.205V153.535C50.4111 153.485 50.7712 153.433 51.124 153.379V148.049C50.7712 148.103 50.4111 148.155 50.0442 148.205ZM52.3103 147.853V153.184C52.6798 153.119 53.04 153.051 53.3902 152.982V147.651C53.04 147.721 52.6798 147.789 52.3103 147.853ZM54.5826 147.396V152.726C54.9565 152.64 55.3167 152.551 55.6625 152.459V147.129C55.3167 147.221 54.9565 147.31 54.5826 147.396ZM56.8458 146.786V152.117C57.2301 151.995 57.5905 151.869 57.9257 151.74V146.409C57.5905 146.539 57.2301 146.664 56.8458 146.786ZM59.1149 145.881V151.212C59.5495 150.986 59.9116 150.752 60.1948 150.511V145.208H60.1624C59.8842 145.439 59.5331 145.664 59.1149 145.881Z" fill="#FF9211"/>
<g style="mix-blend-mode:multiply">
<path fill-rule="evenodd" clip-rule="evenodd" d="M57.2249 144.649C57.3529 144.466 57.4192 144.279 57.4192 144.089C57.4192 141.916 48.7707 140.154 38.1022 140.154C27.4337 140.154 18.7852 141.916 18.7852 144.089C18.7852 144.278 18.8509 144.465 18.9781 144.647C20.3131 142.739 28.366 141.273 38.1008 141.273C47.839 141.273 55.8941 142.74 57.2249 144.649Z" fill="#FFC177"/>
</g>
<path d="M57.2505 144.089C57.2505 144.3 57.1461 144.525 56.9077 144.762C56.669 145 56.308 145.237 55.828 145.468C54.8688 145.93 53.4699 146.351 51.7277 146.706C48.2461 147.415 43.4286 147.855 38.1022 147.855C32.7757 147.855 27.9583 147.415 24.4766 146.706C22.7344 146.351 21.3356 145.93 20.3764 145.468C19.8964 145.237 19.5354 145 19.2966 144.762C19.0583 144.525 18.9538 144.3 18.9538 144.089C18.9538 143.877 19.0583 143.653 19.2966 143.415C19.5354 143.178 19.8964 142.94 20.3764 142.709C21.3356 142.247 22.7344 141.827 24.4766 141.472C27.9583 140.763 32.7757 140.323 38.1022 140.323C43.4286 140.323 48.2461 140.763 51.7277 141.472C53.4699 141.827 54.8688 142.247 55.828 142.709C56.308 142.94 56.669 143.178 56.9077 143.415C57.1461 143.653 57.2505 143.877 57.2505 144.089Z" stroke="#FFC177" stroke-width="0.337348"/>
<g style="mix-blend-mode:multiply" opacity="0.5">
<ellipse cx="38.1146" cy="144.09" rx="22.8822" ry="5.03807" fill="#FF981D"/>
</g>
<path d="M81.6293 177.666H81.6376V171.904C81.6376 168.802 70.2159 166.287 56.1264 166.287C42.0369 166.287 30.6152 168.802 30.6152 171.904V177.666H30.6235C30.9727 180.701 42.257 183.138 56.1264 183.138C69.9958 183.138 81.2801 180.701 81.6293 177.666Z" fill="#FFA318"/>
<path d="M30.6566 171.904H30.6143V177.666H30.6225C30.9717 180.702 42.2561 183.138 56.1254 183.138C69.9948 183.138 81.2791 180.702 81.6283 177.666H81.6366V171.904H81.5942C80.8277 174.855 69.7184 177.195 56.1254 177.195C42.5324 177.195 31.4231 174.855 30.6566 171.904Z" fill="url(#paint6_linear)"/>
<path fill-rule="evenodd" clip-rule="evenodd" d="M31.5908 173.123V179.066C31.9167 179.318 32.32 179.562 32.7948 179.797V173.854C32.32 173.619 31.9167 173.375 31.5908 173.123ZM34.1211 174.423V180.365C34.4961 180.506 34.8979 180.642 35.3251 180.774V174.832C34.8979 174.699 34.4961 174.563 34.1211 174.423ZM36.6436 175.205V181.148C37.0295 181.248 37.4311 181.346 37.8476 181.44V175.497C37.4311 175.403 37.0295 175.306 36.6436 175.205ZM39.1748 175.776V181.719C39.5656 181.796 39.9671 181.87 40.3788 181.941V175.998C39.9671 175.927 39.5656 175.853 39.1748 175.776ZM41.7002 176.212V182.155C42.0937 182.214 42.4952 182.271 42.9042 182.326V176.383C42.4952 176.329 42.0937 176.271 41.7002 176.212ZM44.2285 176.549V182.491C44.6238 182.537 45.0253 182.581 45.4325 182.623V176.68C45.0253 176.638 44.6238 176.595 44.2285 176.549ZM46.7598 176.805V182.748C47.1563 182.782 47.5577 182.814 47.9637 182.845V176.902C47.5577 176.872 47.1563 176.839 46.7598 176.805ZM49.2855 176.991V182.934C49.683 182.958 50.0844 182.981 50.4895 183.001V177.058C50.0844 177.038 49.683 177.016 49.2855 176.991ZM51.8139 177.116V183.058C52.2121 183.073 52.6135 183.086 53.0178 183.097V177.154C52.6135 177.143 52.2121 177.13 51.8139 177.116ZM54.3392 177.182V183.125C54.7381 183.131 55.1395 183.135 55.5432 183.137V177.194C55.1395 177.192 54.7381 177.188 54.3392 177.182ZM56.8678 177.193V183.136C57.2715 183.133 57.6729 183.129 58.0717 183.122V177.179C57.6729 177.186 57.2715 177.191 56.8678 177.193ZM59.3961 177.15V183.092C59.8004 183.081 60.2018 183.068 60.6 183.052V177.109C60.2018 177.125 59.8004 177.138 59.3961 177.15ZM61.9215 177.05V182.993C62.3266 182.972 62.728 182.949 63.1254 182.924V176.981C62.728 177.006 62.3266 177.029 61.9215 177.05ZM64.4472 176.89V182.832C64.8533 182.802 65.2547 182.769 65.6512 182.733V176.791C65.2547 176.826 64.8533 176.859 64.4472 176.89ZM66.9812 176.663V182.606C67.3885 182.563 67.79 182.519 68.1851 182.472V176.529C67.79 176.576 67.3885 176.621 66.9812 176.663ZM69.5095 176.361V182.304C69.9186 182.248 70.3201 182.19 70.7135 182.13V176.187C70.3201 176.247 69.9186 176.306 69.5095 176.361ZM72.038 175.969V181.912C72.4499 181.839 72.8514 181.764 73.242 181.686V175.743C72.8514 175.821 72.4499 175.896 72.038 175.969ZM74.5634 175.46V181.403C74.9803 181.307 75.3819 181.208 75.7674 181.106V175.163C75.3819 175.265 74.9803 175.364 74.5634 175.46ZM77.0917 174.779V180.722C77.5201 180.586 77.922 180.446 78.2957 180.302V174.359C77.922 174.503 77.5201 174.643 77.0917 174.779ZM79.6175 173.772V179.715C80.1019 179.464 80.5056 179.203 80.8214 178.935V173.02H80.7882C80.4775 173.278 80.0851 173.529 79.6175 173.772Z" fill="#FF9211"/>
<g style="mix-blend-mode:multiply">
<path fill-rule="evenodd" clip-rule="evenodd" d="M77.5118 172.398C77.6537 172.194 77.7271 171.987 77.7271 171.775C77.7271 169.353 68.0849 167.389 56.1907 167.389C44.2965 167.389 34.6543 169.353 34.6543 171.775C34.6543 171.987 34.7281 172.196 34.8708 172.4C36.3551 170.272 45.3354 168.636 56.1919 168.636C67.0455 168.636 76.0238 170.271 77.5118 172.398Z" fill="#FFC177"/>
</g>
<path d="M77.539 171.775C77.539 172.011 77.4226 172.262 77.1569 172.526C76.8907 172.791 76.4882 173.056 75.953 173.313C74.8836 173.828 73.324 174.297 71.3817 174.693C67.5 175.483 62.1291 175.974 56.1907 175.974C50.2523 175.974 44.8813 175.483 40.9997 174.693C39.0573 174.297 37.4978 173.828 36.4283 173.313C35.8932 173.056 35.4907 172.791 35.2245 172.526C34.9588 172.262 34.8423 172.011 34.8423 171.775C34.8423 171.54 34.9588 171.289 35.2245 171.024C35.4907 170.76 35.8932 170.495 36.4283 170.237C37.4978 169.722 39.0573 169.253 40.9997 168.858C44.8813 168.067 50.2523 167.577 56.1907 167.577C62.1291 167.577 67.5 168.067 71.3817 168.858C73.324 169.253 74.8836 169.722 75.953 170.237C76.4882 170.495 76.8907 170.76 77.1569 171.024C77.4226 171.289 77.539 171.54 77.539 171.775Z" stroke="#FFC177" stroke-width="0.376106"/>
<g style="mix-blend-mode:multiply" opacity="0.5">
<ellipse cx="56.1997" cy="171.776" rx="25.5112" ry="5.6169" fill="#FF981D"/>
</g>
<path d="M84.4828 170.689H84.4911V164.927C84.4911 161.825 73.0695 159.311 58.9799 159.311C44.8904 159.311 33.4688 161.825 33.4688 164.927V170.689H33.477C33.8262 173.725 45.1105 176.161 58.9799 176.161C72.8493 176.161 84.1336 173.725 84.4828 170.689Z" fill="#FFA318"/>
<path d="M33.5072 164.927H33.4648V170.689H33.4731C33.8223 173.724 45.1066 176.161 58.976 176.161C72.8454 176.161 84.1297 173.724 84.4789 170.689H84.4872V164.927H84.4448C83.6783 167.877 72.569 170.218 58.976 170.218C45.383 170.218 34.2737 167.877 33.5072 164.927Z" fill="url(#paint7_linear)"/>
<path fill-rule="evenodd" clip-rule="evenodd" d="M34.4355 166.143V172.086C34.761 172.338 35.1644 172.583 35.6395 172.819V166.876C35.1643 166.64 34.761 166.395 34.4355 166.143ZM36.9671 167.445V173.388C37.342 173.529 37.7438 173.665 38.171 173.798V167.855C37.7438 167.722 37.342 167.586 36.9671 167.445ZM39.4954 168.23V174.173C39.8813 174.273 40.2829 174.371 40.6993 174.465V168.522C40.2829 168.428 39.8813 168.331 39.4954 168.23ZM42.0181 168.8V174.743C42.4088 174.819 42.8103 174.893 43.222 174.964V169.022C42.8103 168.95 42.4088 168.876 42.0181 168.8ZM44.5493 169.237V175.179C44.9428 175.239 45.3442 175.296 45.7532 175.351V169.408C45.3442 169.353 44.9428 169.296 44.5493 169.237ZM47.0776 169.573V175.516C47.4729 175.562 47.8743 175.606 48.2816 175.647V169.704C47.8743 169.663 47.4729 169.619 47.0776 169.573ZM49.603 169.829V175.772C49.9995 175.806 50.401 175.839 50.8069 175.869V169.926C50.401 169.896 49.9995 169.864 49.603 169.829ZM52.1315 170.016V175.959C52.529 175.983 52.9304 176.005 53.3354 176.025V170.083C52.9304 170.062 52.529 170.04 52.1315 170.016ZM54.6571 170.14V176.083C55.0553 176.098 55.4567 176.111 55.861 176.122V170.179C55.4567 170.168 55.0553 170.155 54.6571 170.14ZM57.1883 170.207V176.15C57.5872 176.156 57.9886 176.16 58.3923 176.162V170.219C57.9886 170.217 57.5872 170.213 57.1883 170.207ZM59.7168 170.218V176.161C60.1206 176.158 60.5219 176.154 60.9208 176.147V170.204C60.5219 170.211 60.1206 170.216 59.7168 170.218ZM62.2451 170.175V176.117C62.6495 176.106 63.0509 176.093 63.4491 176.077V170.134C63.0509 170.15 62.6495 170.163 62.2451 170.175ZM64.7705 170.075V176.018C65.1756 175.997 65.577 175.974 65.9745 175.949V170.006C65.577 170.031 65.1756 170.054 64.7705 170.075ZM67.299 169.915V175.857C67.7051 175.827 68.1065 175.794 68.503 175.758V169.816C68.1065 169.851 67.7051 169.884 67.299 169.915ZM69.8244 169.689V175.632C70.2317 175.589 70.6332 175.545 71.0284 175.498V169.555C70.6332 169.602 70.2317 169.647 69.8244 169.689ZM72.3586 169.386V175.329C72.7677 175.274 73.1692 175.216 73.5625 175.155V169.212C73.1692 169.273 72.7677 169.331 72.3586 169.386ZM74.8839 168.995V174.938C75.2959 174.865 75.6974 174.79 76.0879 174.712V168.77C75.6974 168.847 75.2959 168.923 74.8839 168.995ZM77.4125 168.486V174.429C77.8294 174.333 78.231 174.234 78.6164 174.131V168.188C78.231 168.291 77.8294 168.39 77.4125 168.486ZM79.938 167.806V173.749C80.3664 173.613 80.7682 173.473 81.142 173.329V167.386C80.7683 167.53 80.3664 167.67 79.938 167.806ZM82.4665 166.798V172.741C82.9507 172.49 83.3544 172.23 83.6705 171.962V166.047H83.6372C83.3263 166.305 82.9339 166.556 82.4665 166.798Z" fill="#FF9211"/>
<g style="mix-blend-mode:multiply">
<path fill-rule="evenodd" clip-rule="evenodd" d="M80.3622 165.422C80.5042 165.218 80.5776 165.01 80.5776 164.799C80.5776 162.376 70.9355 160.412 59.0413 160.412C47.147 160.412 37.5049 162.376 37.5049 164.799C37.5049 165.011 37.5787 165.219 37.7213 165.423C39.2062 163.295 48.1862 161.659 59.0422 161.659C69.896 161.659 78.8744 163.295 80.3622 165.422Z" fill="#FFC177"/>
</g>
<path d="M80.3896 164.799C80.3896 165.034 80.2732 165.285 80.0074 165.549C79.7413 165.814 79.3388 166.079 78.8036 166.337C77.7342 166.852 76.1746 167.321 74.2323 167.716C70.3506 168.507 64.9797 168.997 59.0413 168.997C53.1028 168.997 47.7319 168.507 43.8503 167.716C41.9079 167.321 40.3483 166.852 39.2789 166.337C38.7438 166.079 38.3413 165.814 38.0751 165.549C37.8094 165.285 37.6929 165.034 37.6929 164.799C37.6929 164.563 37.8094 164.312 38.0751 164.048C38.3413 163.783 38.7438 163.518 39.2789 163.261C40.3483 162.746 41.9079 162.277 43.8503 161.881C47.7319 161.091 53.1028 160.6 59.0413 160.6C64.9797 160.6 70.3506 161.091 74.2323 161.881C76.1746 162.277 77.7342 162.746 78.8036 163.261C79.3388 163.518 79.7413 163.783 80.0074 164.048C80.2732 164.312 80.3896 164.563 80.3896 164.799Z" stroke="#FFC177" stroke-width="0.376106"/>
<g style="mix-blend-mode:multiply" opacity="0.5">
<ellipse cx="59.0571" cy="164.799" rx="25.5112" ry="5.6169" fill="#FF981D"/>
</g>
<path d="M82.3656 163.949H82.3739V158.187C82.3739 155.085 70.9523 152.57 56.8627 152.57C42.7732 152.57 31.3516 155.085 31.3516 158.187V163.949H31.3599C31.709 166.984 42.9934 169.421 56.8627 169.421C70.7321 169.421 82.0164 166.984 82.3656 163.949Z" fill="#FFA318"/>
<path d="M31.3939 158.187H31.3516V163.948H31.3599C31.709 166.984 42.9934 169.42 56.8627 169.42C70.7321 169.42 82.0164 166.984 82.3656 163.948H82.3739V158.187H82.3315C81.565 161.137 70.4557 163.478 56.8627 163.478C43.2697 163.478 32.1604 161.137 31.3939 158.187Z" fill="url(#paint8_linear)"/>
<path fill-rule="evenodd" clip-rule="evenodd" d="M32.3281 159.407V165.35C32.654 165.601 33.0573 165.846 33.5321 166.081V160.138C33.0573 159.903 32.654 159.659 32.3281 159.407ZM34.8521 160.704V166.647C35.227 166.787 35.6288 166.924 36.0561 167.056V161.113C35.6288 160.981 35.227 160.844 34.8521 160.704ZM37.3779 161.488V167.431C37.7638 167.531 38.1654 167.629 38.5818 167.723V161.78C38.1654 161.686 37.7638 161.589 37.3779 161.488ZM39.9033 162.058V168.001C40.294 168.078 40.6955 168.152 41.1072 168.223V162.28C40.6955 162.209 40.294 162.135 39.9033 162.058ZM42.4347 162.495V168.438C42.8282 168.498 43.2297 168.555 43.6387 168.609V162.667C43.2297 162.612 42.8282 162.555 42.4347 162.495ZM44.9659 162.832V168.775C45.3612 168.821 45.7626 168.865 46.1699 168.906V162.964C45.7626 162.922 45.3612 162.878 44.9659 162.832ZM47.4944 163.088V169.031C47.891 169.066 48.2924 169.098 48.6984 169.128V163.185C48.2924 163.155 47.891 163.123 47.4944 163.088ZM50.0196 163.275V169.218C50.4171 169.242 50.8185 169.264 51.2236 169.284V163.342C50.8185 163.321 50.4171 163.299 50.0196 163.275ZM52.5481 163.399V169.342C52.9464 169.357 53.3478 169.37 53.7521 169.381V163.438C53.3478 163.427 52.9464 163.414 52.5481 163.399ZM55.0735 163.466V169.408C55.4724 169.414 55.8738 169.418 56.2775 169.42V163.478C55.8738 163.476 55.4724 163.472 55.0735 163.466ZM57.6018 163.477V169.42C58.0056 169.417 58.407 169.412 58.8058 169.406V163.463C58.407 163.47 58.0056 163.474 57.6018 163.477ZM60.1303 163.433V169.376C60.5347 169.365 60.9361 169.351 61.3343 169.336V163.393C60.9361 163.409 60.5347 163.422 60.1303 163.433ZM62.6616 163.333V169.276C63.0667 169.255 63.4681 169.233 63.8655 169.208V163.265C63.4681 163.29 63.0667 163.313 62.6616 163.333ZM65.1899 163.173V169.116C65.5959 169.085 65.9974 169.052 66.3938 169.017V163.074C65.9974 163.109 65.5959 163.142 65.1899 163.173ZM67.7157 162.947V168.89C68.123 168.847 68.5244 168.803 68.9196 168.756V162.813C68.5244 162.86 68.123 162.905 67.7157 162.947ZM70.244 162.645V168.588C70.6531 168.532 71.0546 168.474 71.4479 168.414V162.471C71.0546 162.532 70.6531 162.59 70.244 162.645ZM72.7694 162.254V168.197C73.1813 168.124 73.5828 168.049 73.9733 167.971V162.028C73.5828 162.106 73.1813 162.181 72.7694 162.254ZM75.2979 161.745V167.687C75.7148 167.592 76.1164 167.492 76.5018 167.39V161.447C76.1164 161.549 75.7148 161.649 75.2979 161.745ZM77.8318 161.062V167.005C78.2602 166.869 78.6621 166.729 79.0358 166.585V160.642C78.6621 160.786 78.2602 160.926 77.8318 161.062ZM80.3574 160.054V165.997C80.842 165.746 81.2457 165.485 81.5614 165.216V159.304H81.5249C81.2148 159.562 80.8235 159.812 80.3574 160.054Z" fill="#FF9211"/>
<g style="mix-blend-mode:multiply">
<path fill-rule="evenodd" clip-rule="evenodd" d="M78.2493 158.68C78.391 158.476 78.4644 158.269 78.4644 158.057C78.4644 155.635 68.8222 153.671 56.928 153.671C45.0338 153.671 35.3916 155.635 35.3916 158.057C35.3916 158.269 35.4652 158.477 35.6074 158.681C37.0911 156.553 46.0717 154.917 56.9287 154.917C67.7839 154.917 76.7633 156.552 78.2493 158.68Z" fill="#FFC177"/>
</g>
<path d="M78.2763 158.057C78.2763 158.293 78.1599 158.544 77.8942 158.808C77.628 159.073 77.2255 159.338 76.6903 159.595C75.6209 160.11 74.0613 160.579 72.119 160.975C68.2373 161.766 62.8664 162.256 56.928 162.256C50.9896 162.256 45.6186 161.766 41.737 160.975C39.7946 160.579 38.2351 160.11 37.1656 159.595C36.6305 159.338 36.228 159.073 35.9618 158.808C35.6961 158.544 35.5797 158.293 35.5797 158.057C35.5797 157.822 35.6961 157.571 35.9618 157.307C36.228 157.042 36.6305 156.777 37.1656 156.519C38.2351 156.004 39.7946 155.536 41.737 155.14C45.6186 154.349 50.9896 153.859 56.928 153.859C62.8664 153.859 68.2373 154.349 72.119 155.14C74.0613 155.536 75.6209 156.004 76.6903 156.519C77.2255 156.777 77.628 157.042 77.8942 157.307C78.1599 157.571 78.2763 157.822 78.2763 158.057Z" stroke="#FFC177" stroke-width="0.376106"/>
<g style="mix-blend-mode:multiply" opacity="0.5">
<ellipse cx="56.9409" cy="158.06" rx="25.5112" ry="5.6169" fill="#FF981D"/>
</g>
<path d="M85.222 156.976H85.2303V151.214C85.2303 148.112 73.8087 145.598 59.7192 145.598C45.6296 145.598 34.208 148.112 34.208 151.214V156.976H34.2163C34.5655 160.012 45.8498 162.448 59.7192 162.448C73.5885 162.448 84.8729 160.012 85.222 156.976Z" fill="#FFA318"/>
<path d="M34.2514 151.213H34.209V156.975H34.2173C34.5664 160.01 45.8508 162.447 59.7201 162.447C73.5895 162.447 84.8739 160.01 85.223 156.975H85.2313V151.213H85.1889C84.4225 154.163 73.3131 156.504 59.7201 156.504C46.1272 156.504 35.0178 154.163 34.2514 151.213Z" fill="url(#paint9_linear)"/>
<path fill-rule="evenodd" clip-rule="evenodd" d="M35.1787 152.424V158.367C35.504 158.619 35.9073 158.864 36.3827 159.101V153.158C35.9073 152.921 35.504 152.676 35.1787 152.424ZM37.7165 153.73V159.673C38.0915 159.813 38.4933 159.95 38.9205 160.082V154.139C38.4933 154.007 38.0915 153.871 37.7165 153.73ZM40.2423 154.514V160.457C40.6282 160.557 41.0298 160.655 41.4463 160.749V154.806C41.0298 154.712 40.6282 154.614 40.2423 154.514ZM42.7619 155.083V161.026C43.1526 161.102 43.5541 161.176 43.9658 161.248V155.305C43.5541 155.234 43.1526 155.16 42.7619 155.083ZM45.296 155.52V161.463C45.6895 161.523 46.091 161.58 46.5 161.634V155.692C46.091 155.637 45.6895 155.58 45.296 155.52ZM47.8245 155.857V161.8C48.2198 161.846 48.6213 161.89 49.0285 161.931V155.988C48.6213 155.947 48.2198 155.903 47.8245 155.857ZM50.3499 156.113V162.056C50.7465 162.09 51.1479 162.123 51.5539 162.153V156.21C51.1479 156.18 50.7465 156.147 50.3499 156.113ZM52.8782 156.3V162.242C53.2757 162.267 53.6771 162.289 54.0822 162.309V156.366C53.6771 156.346 53.2757 156.324 52.8782 156.3ZM55.4067 156.424V162.367C55.805 162.382 56.2064 162.395 56.6107 162.406V156.463C56.2064 156.452 55.805 156.439 55.4067 156.424ZM57.9321 156.491V162.433C58.331 162.439 58.7324 162.443 59.1361 162.445V156.503C58.7324 156.501 58.331 156.497 57.9321 156.491ZM60.4577 156.502V162.445C60.8615 162.442 61.2629 162.438 61.6617 162.431V156.488C61.2629 156.495 60.8615 156.499 60.4577 156.502ZM62.989 156.459V162.401C63.3933 162.39 63.7947 162.376 64.1929 162.361V156.418C63.7947 156.434 63.3933 156.447 62.989 156.459ZM65.5202 156.359V162.301C65.9253 162.281 66.3267 162.258 66.7241 162.233V156.29C66.3267 156.315 65.9253 156.338 65.5202 156.359ZM68.0427 156.199V162.141C68.4487 162.111 68.8501 162.078 69.2466 162.042V156.1C68.8501 156.135 68.4487 156.168 68.0427 156.199ZM70.5743 155.972V161.915C70.9816 161.873 71.383 161.828 71.7782 161.782V155.839C71.383 155.885 70.9816 155.93 70.5743 155.972ZM73.0969 155.671V161.614C73.5061 161.559 73.9075 161.501 74.3009 161.44V155.497C73.9075 155.558 73.5061 155.616 73.0969 155.671ZM75.6253 155.28V161.222C76.0372 161.15 76.4387 161.075 76.8292 160.997V155.054C76.4387 155.132 76.0372 155.207 75.6253 155.28ZM78.1592 154.77V160.712C78.5761 160.617 78.9777 160.517 79.3632 160.415V154.472C78.9777 154.575 78.5761 154.674 78.1592 154.77ZM80.6819 154.09V160.033C81.1102 159.898 81.5121 159.758 81.8858 159.614V153.671C81.5121 153.815 81.1102 153.955 80.6819 154.09ZM83.2133 153.082V159.025C83.6975 158.774 84.1012 158.514 84.4173 158.246V152.329H84.3858C84.0746 152.588 83.6816 152.839 83.2133 153.082Z" fill="#FF9211"/>
<g style="mix-blend-mode:multiply">
<path fill-rule="evenodd" clip-rule="evenodd" d="M81.1056 151.71C81.2481 151.506 81.3218 151.298 81.3218 151.086C81.3218 148.663 71.6796 146.699 59.7854 146.699C47.8912 146.699 38.249 148.663 38.249 151.086C38.249 151.297 38.3224 151.505 38.4644 151.708C39.9516 149.581 48.9303 147.946 59.7845 147.946C70.6409 147.946 79.621 149.582 81.1056 151.71Z" fill="#FFC177"/>
</g>
<path d="M81.1337 151.086C81.1337 151.321 81.0173 151.572 80.7516 151.837C80.4854 152.101 80.0829 152.366 79.5478 152.624C78.4783 153.139 76.9188 153.608 74.9764 154.003C71.0948 154.794 65.7238 155.284 59.7854 155.284C53.847 155.284 48.4761 154.794 44.5944 154.003C42.652 153.608 41.0925 153.139 40.023 152.624C39.4879 152.366 39.0854 152.101 38.8192 151.837C38.5535 151.572 38.4371 151.321 38.4371 151.086C38.4371 150.85 38.5535 150.6 38.8192 150.335C39.0854 150.07 39.4879 149.805 40.023 149.548C41.0925 149.033 42.652 148.564 44.5944 148.168C48.4761 147.378 53.847 146.887 59.7854 146.887C65.7238 146.887 71.0948 147.378 74.9764 148.168C76.9188 148.564 78.4783 149.033 79.5478 149.548C80.0829 149.805 80.4854 150.07 80.7516 150.335C81.0173 150.6 81.1337 150.85 81.1337 151.086Z" stroke="#FFC177" stroke-width="0.376106"/>
<g style="mix-blend-mode:multiply" opacity="0.5">
<ellipse cx="59.8003" cy="151.084" rx="25.5112" ry="5.6169" fill="#FF981D"/>
</g>
<path d="M258.471 177.666H258.479V171.904C258.479 168.802 247.058 166.287 232.968 166.287C218.879 166.287 207.457 168.802 207.457 171.904V177.666H207.465C207.814 180.701 219.099 183.138 232.968 183.138C246.838 183.138 258.122 180.701 258.471 177.666Z" fill="#FFA318"/>
<path d="M207.499 171.904H207.457V177.666H207.465C207.814 180.702 219.099 183.138 232.968 183.138C246.838 183.138 258.122 180.702 258.471 177.666H258.479V171.904H258.437C257.671 174.855 246.561 177.195 232.968 177.195C219.375 177.195 208.266 174.855 207.499 171.904Z" fill="url(#paint10_linear)"/>
<path fill-rule="evenodd" clip-rule="evenodd" d="M208.428 173.116V179.059C208.753 179.312 209.156 179.556 209.632 179.793V173.85C209.156 173.614 208.753 173.369 208.428 173.116ZM210.961 174.42V180.363C211.336 180.504 211.738 180.64 212.165 180.773V174.83C211.738 174.697 211.336 174.561 210.961 174.42ZM213.489 175.205V181.148C213.875 181.248 214.277 181.346 214.693 181.44V175.497C214.277 175.403 213.875 175.306 213.489 175.205ZM216.015 175.775V181.718C216.406 181.795 216.807 181.869 217.219 181.94V175.997C216.807 175.926 216.406 175.852 216.015 175.775ZM218.543 176.212V182.154C218.937 182.214 219.338 182.271 219.747 182.326V176.383C219.338 176.328 218.937 176.271 218.543 176.212ZM221.072 176.548V182.491C221.467 182.537 221.868 182.581 222.275 182.622V176.679C221.868 176.638 221.467 176.594 221.072 176.548ZM223.597 176.804V182.747C223.994 182.781 224.395 182.814 224.801 182.844V176.901C224.395 176.871 223.994 176.839 223.597 176.804ZM226.129 176.991V182.934C226.526 182.958 226.927 182.98 227.333 183.001V177.058C226.927 177.038 226.526 177.015 226.129 176.991ZM228.654 177.115V183.058C229.052 183.073 229.454 183.086 229.858 183.097V177.154C229.454 177.143 229.052 177.13 228.654 177.115ZM231.182 177.182V183.125C231.581 183.131 231.983 183.135 232.386 183.137V177.194C231.983 177.192 231.581 177.188 231.182 177.182ZM233.708 177.193V183.136C234.112 183.133 234.513 183.129 234.912 183.122V177.179C234.513 177.186 234.112 177.191 233.708 177.193ZM236.239 177.15V183.092C236.643 183.081 237.045 183.068 237.443 183.052V177.109C237.045 177.125 236.643 177.138 236.239 177.15ZM238.762 177.05V182.993C239.167 182.972 239.568 182.949 239.966 182.924V176.982C239.568 177.007 239.167 177.029 238.762 177.05ZM241.29 176.89V182.833C241.696 182.802 242.098 182.769 242.494 182.734V176.791C242.098 176.826 241.696 176.859 241.29 176.89ZM243.824 176.663V182.606C244.232 182.564 244.633 182.519 245.028 182.472V176.53C244.633 176.576 244.232 176.621 243.824 176.663ZM246.35 176.362V182.305C246.759 182.249 247.16 182.191 247.554 182.131V176.188C247.16 176.248 246.759 176.306 246.35 176.362ZM248.875 175.97V181.913C249.287 181.841 249.689 181.766 250.079 181.688V175.745C249.689 175.823 249.287 175.898 248.875 175.97ZM251.407 175.461V181.404C251.823 181.308 252.225 181.209 252.611 181.106V175.163C252.225 175.266 251.823 175.365 251.407 175.461ZM253.932 174.781V180.724C254.36 180.588 254.762 180.448 255.136 180.304V174.361C254.762 174.505 254.36 174.645 253.932 174.781ZM256.46 173.773V179.716C256.945 179.465 257.348 179.205 257.664 178.937V173.02H257.634C257.323 173.279 256.929 173.53 256.46 173.773Z" fill="#FF9211"/>
<g style="mix-blend-mode:multiply">
<path fill-rule="evenodd" clip-rule="evenodd" d="M254.354 172.399C254.496 172.195 254.57 171.987 254.57 171.775C254.57 169.353 244.928 167.389 233.033 167.389C221.139 167.389 211.497 169.353 211.497 171.775C211.497 171.987 211.571 172.195 211.713 172.399C213.199 170.271 222.178 168.636 233.033 168.636C243.889 168.636 252.868 170.271 254.354 172.399Z" fill="#FFC177"/>
</g>
<path d="M254.382 171.775C254.382 172.011 254.265 172.262 254 172.526C253.733 172.791 253.331 173.056 252.796 173.313C251.726 173.828 250.167 174.297 248.224 174.693C244.343 175.483 238.972 175.974 233.033 175.974C227.095 175.974 221.724 175.483 217.842 174.693C215.9 174.297 214.341 173.828 213.271 173.313C212.736 173.056 212.333 172.791 212.067 172.526C211.802 172.262 211.685 172.011 211.685 171.775C211.685 171.54 211.802 171.289 212.067 171.024C212.333 170.76 212.736 170.495 213.271 170.237C214.341 169.722 215.9 169.253 217.842 168.858C221.724 168.067 227.095 167.577 233.033 167.577C238.972 167.577 244.343 168.067 248.224 168.858C250.167 169.253 251.726 169.722 252.796 170.237C253.331 170.495 253.733 170.76 254 171.024C254.265 171.289 254.382 171.54 254.382 171.775Z" stroke="#FFC177" stroke-width="0.376106"/>
<g style="mix-blend-mode:multiply" opacity="0.5">
<ellipse cx="233.047" cy="171.776" rx="25.5112" ry="5.6169" fill="#FF981D"/>
</g>
<path d="M261.329 170.689H261.338V164.927C261.338 161.825 249.916 159.311 235.827 159.311C221.737 159.311 210.315 161.825 210.315 164.927V170.689H210.324C210.673 173.725 221.957 176.161 235.827 176.161C249.696 176.161 260.98 173.725 261.329 170.689Z" fill="#FFA318"/>
<path d="M210.357 164.927H210.314V170.689H210.323C210.672 173.724 221.956 176.161 235.826 176.161C249.695 176.161 260.979 173.724 261.328 170.689H261.337V164.927H261.294C260.528 167.877 249.419 170.218 235.826 170.218C222.233 170.218 211.123 167.877 210.357 164.927Z" fill="url(#paint11_linear)"/>
<path fill-rule="evenodd" clip-rule="evenodd" d="M211.288 166.145V172.088C211.614 172.34 212.017 172.584 212.492 172.82V166.877C212.017 166.641 211.614 166.397 211.288 166.145ZM213.82 167.447V173.389C214.195 173.53 214.597 173.666 215.024 173.799V167.856C214.597 167.723 214.195 167.587 213.82 167.447ZM216.343 168.23V174.172C216.728 174.273 217.13 174.37 217.547 174.464V168.522C217.13 168.427 216.728 168.33 216.343 168.23ZM218.874 168.801V174.744C219.264 174.82 219.666 174.894 220.078 174.965V169.023C219.666 168.951 219.264 168.877 218.874 168.801ZM221.402 169.237V175.18C221.796 175.239 222.197 175.296 222.606 175.351V169.408C222.197 169.354 221.796 169.297 221.402 169.237ZM223.928 169.573V175.516C224.323 175.562 224.724 175.606 225.132 175.647V169.704C224.724 169.663 224.323 169.619 223.928 169.573ZM226.459 169.83V175.772C226.855 175.807 227.257 175.839 227.663 175.869V169.927C227.257 169.897 226.855 169.864 226.459 169.83ZM228.987 170.016V175.959C229.385 175.983 229.786 176.006 230.191 176.026V170.083C229.786 170.063 229.385 170.041 228.987 170.016ZM231.516 170.141V176.083C231.914 176.098 232.315 176.111 232.72 176.122V170.179C232.315 170.168 231.914 170.155 231.516 170.141ZM234.041 170.207V176.15C234.44 176.156 234.841 176.16 235.245 176.162V170.219C234.841 170.217 234.44 170.213 234.041 170.207ZM236.569 170.218V176.161C236.973 176.158 237.374 176.154 237.773 176.147V170.204C237.374 170.211 236.973 170.216 236.569 170.218ZM239.098 170.175V176.117C239.502 176.106 239.904 176.093 240.302 176.077V170.134C239.904 170.15 239.502 170.163 239.098 170.175ZM241.623 170.075V176.017C242.028 175.997 242.43 175.974 242.827 175.949V170.006C242.43 170.031 242.028 170.054 241.623 170.075ZM244.155 169.914V175.857C244.561 175.826 244.962 175.793 245.359 175.758V169.815C244.962 169.85 244.561 169.883 244.155 169.914ZM246.683 169.688V175.631C247.09 175.588 247.492 175.544 247.887 175.497V169.554C247.492 169.601 247.09 169.646 246.683 169.688ZM249.209 169.386V175.329C249.618 175.274 250.019 175.216 250.412 175.155V169.212C250.019 169.273 249.618 169.331 249.209 169.386ZM251.731 168.995V174.938C252.143 174.866 252.544 174.791 252.935 174.713V168.77C252.544 168.848 252.143 168.923 251.731 168.995ZM254.262 168.486V174.429C254.679 174.333 255.081 174.234 255.466 174.131V168.188C255.081 168.291 254.679 168.39 254.262 168.486ZM256.794 167.804V173.747C257.222 173.611 257.624 173.471 257.998 173.327V167.384C257.624 167.528 257.222 167.668 256.794 167.804ZM259.322 166.795V172.738C259.807 172.487 260.21 172.226 260.526 171.957V166.047H260.487C260.177 166.304 259.787 166.554 259.322 166.795Z" fill="#FF9211"/>
<g style="mix-blend-mode:multiply">
<path fill-rule="evenodd" clip-rule="evenodd" d="M257.202 165.423C257.345 165.219 257.418 165.011 257.418 164.799C257.418 162.376 247.776 160.412 235.882 160.412C223.988 160.412 214.346 162.376 214.346 164.799C214.346 165.01 214.419 165.218 214.561 165.422C216.049 163.295 225.027 161.659 235.881 161.659C246.737 161.659 255.717 163.295 257.202 165.423Z" fill="#FFC177"/>
</g>
<path d="M257.23 164.799C257.23 165.034 257.114 165.285 256.848 165.549C256.582 165.814 256.18 166.079 255.644 166.337C254.575 166.852 253.015 167.321 251.073 167.716C247.191 168.507 241.821 168.997 235.882 168.997C229.944 168.997 224.573 168.507 220.691 167.716C218.749 167.321 217.189 166.852 216.12 166.337C215.585 166.079 215.182 165.814 214.916 165.549C214.65 165.285 214.534 165.034 214.534 164.799C214.534 164.563 214.65 164.312 214.916 164.048C215.182 163.783 215.585 163.518 216.12 163.261C217.189 162.746 218.749 162.277 220.691 161.881C224.573 161.091 229.944 160.6 235.882 160.6C241.821 160.6 247.191 161.091 251.073 161.881C253.015 162.277 254.575 162.746 255.644 163.261C256.18 163.518 256.582 163.783 256.848 164.048C257.114 164.312 257.23 164.563 257.23 164.799Z" stroke="#FFC177" stroke-width="0.376106"/>
<g style="mix-blend-mode:multiply" opacity="0.5">
<ellipse cx="235.904" cy="164.799" rx="25.5112" ry="5.6169" fill="#FF981D"/>
</g>
<path d="M259.215 163.949H259.224V158.187C259.224 155.085 247.802 152.57 233.712 152.57C219.623 152.57 208.201 155.085 208.201 158.187V163.949H208.209C208.559 166.984 219.843 169.421 233.712 169.421C247.582 169.421 258.866 166.984 259.215 163.949Z" fill="#FFA318"/>
<path d="M208.244 158.187H208.201V163.948H208.209C208.559 166.984 219.843 169.42 233.712 169.42C247.582 169.42 258.866 166.984 259.215 163.948H259.224V158.187H259.181C258.415 161.137 247.305 163.478 233.712 163.478C220.119 163.478 209.01 161.137 208.244 158.187Z" fill="url(#paint12_linear)"/>
<path fill-rule="evenodd" clip-rule="evenodd" d="M209.178 159.405V165.348C209.503 165.6 209.907 165.844 210.382 166.08V160.137C209.907 159.901 209.503 159.657 209.178 159.405ZM211.707 160.705V166.648C212.082 166.788 212.484 166.925 212.911 167.057V161.114C212.484 160.982 212.082 160.846 211.707 160.705ZM214.233 161.489V167.432C214.619 167.532 215.02 167.63 215.437 167.724V161.781C215.02 161.687 214.619 161.589 214.233 161.489ZM216.761 162.06V168.002C217.152 168.079 217.553 168.153 217.965 168.224V162.281C217.553 162.21 217.152 162.136 216.761 162.06ZM219.287 162.495V168.438C219.68 168.498 220.082 168.555 220.491 168.609V162.667C220.082 162.612 219.68 162.555 219.287 162.495ZM221.818 162.832V168.775C222.213 168.821 222.615 168.865 223.022 168.906V162.964C222.615 162.922 222.213 162.878 221.818 162.832ZM224.346 163.088V169.031C224.743 169.066 225.144 169.098 225.55 169.128V163.185C225.144 163.155 224.743 163.123 224.346 163.088ZM226.875 163.275V169.218C227.272 169.242 227.674 169.264 228.079 169.284V163.342C227.674 163.322 227.272 163.299 226.875 163.275ZM229.403 163.399V169.342C229.801 169.357 230.203 169.37 230.607 169.381V163.438C230.203 163.427 229.801 163.414 229.403 163.399ZM231.928 163.466V169.408C232.327 169.414 232.729 169.418 233.132 169.42V163.478C232.729 163.476 232.327 163.472 231.928 163.466ZM234.457 163.477V169.42C234.861 169.417 235.262 169.412 235.661 169.406V163.463C235.262 163.47 234.861 163.474 234.457 163.477ZM236.988 163.433V169.376C237.392 169.365 237.794 169.351 238.192 169.336V163.393C237.794 163.408 237.392 163.422 236.988 163.433ZM239.514 163.333V169.276C239.919 169.255 240.32 169.233 240.718 169.208V163.265C240.32 163.29 239.919 163.313 239.514 163.333ZM242.045 163.173V169.116C242.451 169.085 242.852 169.052 243.249 169.016V163.074C242.852 163.109 242.451 163.142 242.045 163.173ZM244.568 162.947V168.89C244.975 168.847 245.376 168.803 245.772 168.756V162.813C245.376 162.86 244.975 162.905 244.568 162.947ZM247.096 162.645V168.588C247.505 168.532 247.906 168.474 248.3 168.414V162.471C247.906 162.532 247.505 162.59 247.096 162.645ZM249.624 162.253V168.196C250.036 168.124 250.438 168.048 250.828 167.97V162.028C250.438 162.105 250.036 162.181 249.624 162.253ZM252.15 161.745V167.687C252.567 167.592 252.968 167.492 253.354 167.39V161.447C252.968 161.549 252.567 161.649 252.15 161.745ZM254.684 161.062V167.005C255.112 166.869 255.514 166.729 255.888 166.584V160.642C255.514 160.786 255.112 160.926 254.684 161.062ZM257.207 160.056V165.998C257.691 165.747 258.095 165.487 258.411 165.218V159.304H258.377C258.066 159.562 257.674 159.813 257.207 160.056Z" fill="#FF9211"/>
<g style="mix-blend-mode:multiply">
<path fill-rule="evenodd" clip-rule="evenodd" d="M255.089 158.681C255.232 158.477 255.305 158.269 255.305 158.057C255.305 155.635 245.663 153.671 233.769 153.671C221.875 153.671 212.232 155.635 212.232 158.057C212.232 158.269 212.306 158.477 212.448 158.68C213.933 156.552 222.913 154.917 233.768 154.917C244.625 154.917 253.606 156.553 255.089 158.681Z" fill="#FFC177"/>
</g>
<path d="M255.117 158.057C255.117 158.293 255.001 158.544 254.735 158.808C254.469 159.073 254.066 159.338 253.531 159.595C252.462 160.11 250.902 160.579 248.96 160.975C245.078 161.766 239.707 162.256 233.769 162.256C227.83 162.256 222.459 161.766 218.578 160.975C216.635 160.579 215.076 160.11 214.006 159.595C213.471 159.338 213.069 159.073 212.803 158.808C212.537 158.544 212.42 158.293 212.42 158.057C212.42 157.822 212.537 157.571 212.803 157.307C213.069 157.042 213.471 156.777 214.006 156.519C215.076 156.004 216.635 155.536 218.578 155.14C222.459 154.349 227.83 153.859 233.769 153.859C239.707 153.859 245.078 154.349 248.96 155.14C250.902 155.536 252.462 156.004 253.531 156.519C254.066 156.777 254.469 157.042 254.735 157.307C255.001 157.571 255.117 157.822 255.117 158.057Z" stroke="#FFC177" stroke-width="0.376106"/>
<g style="mix-blend-mode:multiply" opacity="0.5">
<ellipse cx="233.784" cy="158.06" rx="25.5112" ry="5.6169" fill="#FF981D"/>
</g>
<path d="M262.066 156.976H262.074V151.214C262.074 148.112 250.652 145.598 236.563 145.598C222.473 145.598 211.052 148.112 211.052 151.214V156.976H211.06C211.409 160.012 222.694 162.448 236.563 162.448C250.432 162.448 261.717 160.012 262.066 156.976Z" fill="#FFA318"/>
<path d="M211.094 151.213H211.052V156.975H211.06C211.409 160.01 222.694 162.447 236.563 162.447C250.432 162.447 261.717 160.01 262.066 156.975H262.074V151.213H262.032C261.265 154.163 250.156 156.504 236.563 156.504C222.97 156.504 211.861 154.163 211.094 151.213Z" fill="url(#paint13_linear)"/>
<path fill-rule="evenodd" clip-rule="evenodd" d="M212.028 152.431V158.374C212.354 158.625 212.757 158.87 213.232 159.105V153.162C212.757 152.927 212.354 152.682 212.028 152.431ZM214.554 153.729V159.672C214.929 159.813 215.331 159.949 215.758 160.081V154.138C215.331 154.006 214.929 153.87 214.554 153.729ZM217.08 154.513V160.456C217.466 160.556 217.867 160.654 218.284 160.748V154.805C217.867 154.711 217.466 154.614 217.08 154.513ZM219.608 155.084V161.027C219.999 161.104 220.401 161.177 220.812 161.249V155.306C220.401 155.235 219.999 155.161 219.608 155.084ZM222.139 155.521V161.464C222.533 161.523 222.934 161.58 223.343 161.635V155.692C222.934 155.637 222.533 155.58 222.139 155.521ZM224.665 155.857V161.8C225.06 161.846 225.462 161.89 225.869 161.931V155.988C225.462 155.947 225.06 155.903 224.665 155.857ZM227.196 156.113V162.056C227.593 162.091 227.994 162.123 228.4 162.153V156.21C227.994 156.18 227.593 156.148 227.196 156.113ZM229.722 156.3V162.243C230.12 162.267 230.521 162.289 230.926 162.309V156.367C230.521 156.346 230.12 156.324 229.722 156.3ZM232.25 156.424V162.367C232.648 162.382 233.05 162.395 233.454 162.406V156.463C233.05 156.452 232.648 156.439 232.25 156.424ZM234.776 156.491V162.433C235.175 162.439 235.576 162.443 235.98 162.445V156.503C235.576 156.501 235.175 156.497 234.776 156.491ZM237.307 156.502V162.445C237.711 162.442 238.112 162.437 238.511 162.431V156.488C238.112 156.495 237.711 156.499 237.307 156.502ZM239.833 156.459V162.401C240.237 162.39 240.638 162.376 241.037 162.361V156.418C240.638 156.434 240.237 156.447 239.833 156.459ZM242.364 156.358V162.301C242.769 162.28 243.17 162.258 243.568 162.233V156.29C243.17 156.315 242.769 156.338 242.364 156.358ZM244.892 156.198V162.141C245.298 162.11 245.7 162.077 246.096 162.042V156.099C245.7 156.134 245.298 156.167 244.892 156.198ZM247.418 155.972V161.915C247.825 161.872 248.226 161.828 248.622 161.781V155.838C248.226 155.885 247.825 155.93 247.418 155.972ZM249.946 155.67V161.613C250.355 161.557 250.757 161.499 251.15 161.439V155.496C250.757 155.557 250.355 155.615 249.946 155.67ZM252.471 155.279V161.222C252.883 161.149 253.285 161.074 253.675 160.996V155.053C253.285 155.131 252.883 155.206 252.471 155.279ZM254.997 154.77V160.713C255.414 160.617 255.816 160.518 256.201 160.416V154.473C255.816 154.575 255.414 154.674 254.997 154.77ZM257.528 154.089V160.032C257.957 159.896 258.359 159.756 258.732 159.612V153.669C258.359 153.813 257.957 153.953 257.528 154.089ZM260.059 153.079V159.022C260.544 158.771 260.948 158.51 261.263 158.241V152.329H261.226C260.916 152.587 260.525 152.837 260.059 153.079Z" fill="#FF9211"/>
<g style="mix-blend-mode:multiply">
<path fill-rule="evenodd" clip-rule="evenodd" d="M257.949 151.706C258.091 151.503 258.165 151.294 258.165 151.083C258.165 148.66 248.522 146.696 236.628 146.696C224.734 146.696 215.092 148.66 215.092 151.083C215.092 151.295 215.166 151.503 215.308 151.707C216.794 149.58 225.773 147.944 236.629 147.944C247.483 147.944 256.461 149.579 257.949 151.706Z" fill="#FFC177"/>
</g>
<path d="M257.977 151.083C257.977 151.319 257.86 151.569 257.594 151.834C257.328 152.099 256.926 152.363 256.391 152.621C255.321 153.136 253.762 153.605 251.819 154C247.938 154.791 242.567 155.281 236.628 155.281C230.69 155.281 225.319 154.791 221.437 154C219.495 153.605 217.935 153.136 216.866 152.621C216.331 152.363 215.928 152.099 215.662 151.834C215.396 151.569 215.28 151.319 215.28 151.083C215.28 150.847 215.396 150.597 215.662 150.332C215.928 150.067 216.331 149.803 216.866 149.545C217.935 149.03 219.495 148.561 221.437 148.165C225.319 147.375 230.69 146.884 236.628 146.884C242.567 146.884 247.938 147.375 251.819 148.165C253.762 148.561 255.321 149.03 256.391 149.545C256.926 149.803 257.328 150.067 257.594 150.332C257.86 150.597 257.977 150.847 257.977 151.083Z" stroke="#FFC177" stroke-width="0.376106"/>
<g style="mix-blend-mode:multiply" opacity="0.5">
<ellipse cx="236.644" cy="151.084" rx="25.5112" ry="5.6169" fill="#FF981D"/>
</g>
<path d="M58.406 73.2294C58.1592 65.9102 63.9854 59.8225 71.3083 59.7479L224.597 58.1851C231.852 58.1111 237.773 63.9719 237.773 71.2272V167.408C237.773 174.612 231.933 180.451 224.73 180.451H74.6312C67.599 180.451 61.8328 174.876 61.5959 167.848L58.406 73.2294Z" fill="#1F2337"/>
<rect x="56.0986" y="60.4736" width="175.752" height="122.4" rx="13.0427" fill="url(#paint14_linear)"/>
<rect x="56.0986" y="60.4736" width="175.752" height="122.4" rx="13.0427" fill="url(#paint15_radial)" fill-opacity="0.5"/>
<rect x="62.9961" y="68.8291" width="163.746" height="105.643" rx="13.0427" stroke="#F6F6FF" stroke-width="1.25382" stroke-linecap="round" stroke-dasharray="5.43 5.43"/>
<g filter="url(#filter0_d)">
<path d="M143.975 9.89552C139.627 17.7141 121.044 26.6728 109.053 25.1122C107.931 41.2004 117.046 73.1039 143.975 87.9307C170.903 73.1039 180.019 41.2004 178.897 25.1122C166.906 26.6728 148.323 17.7141 143.975 9.89552Z" fill="#FFA318"/>
<path d="M158.304 42.392C154.664 38.7858 148.806 38.8126 145.2 42.4519C144.433 43.2263 143.82 44.1541 143.285 45.1586L127.098 45.2326L123.262 49.1043L127.134 52.9407L129.435 50.6177L131.758 52.9196L134.06 50.5966L136.383 52.8984L143.32 52.8667C143.787 53.7896 144.408 54.7117 145.26 55.5557C148.899 59.162 154.757 59.1351 158.364 55.4958C161.97 51.8564 161.943 45.9983 158.304 42.392ZM153.334 51.2793C152.018 49.9749 152.008 47.9708 153.313 46.6544C154.617 45.338 156.621 45.3289 157.938 46.6333C159.254 47.9377 159.263 49.9417 157.959 51.2581C156.654 52.5745 154.65 52.5837 153.334 51.2793Z" fill="#F6F6FF"/>
<g style="mix-blend-mode:multiply">
<path d="M143.979 87.6366C170.907 72.8098 180.023 40.9062 178.901 24.818C166.909 26.3787 148.327 17.4201 143.979 9.60156V87.6366Z" fill="#FFA318" fill-opacity="0.3"/>
</g>
</g>
<g filter="url(#filter1_d)">
<path d="M182.432 112.92C182.432 105.417 188.514 99.334 196.018 99.334H231.466C233.567 99.334 235.27 101.037 235.27 103.138V129.253C235.27 131.354 233.567 133.057 231.466 133.057H196.018C188.514 133.057 182.432 126.974 182.432 119.471V112.92Z" fill="#FF9211"/>
</g>
<circle cx="199.109" cy="116.194" r="5.45421" transform="rotate(-90 199.109 116.194)" fill="#1F2337"/>
<path d="M217.055 109.512L202.815 114.662C201.381 115.181 201.381 117.209 202.815 117.728L217.055 122.879C218.118 123.263 219.24 122.476 219.24 121.345V111.045C219.24 109.915 218.118 109.127 217.055 109.512Z" fill="#1F2337"/>
<path d="M237.889 96.9678L231.709 99.4399V132.97L237.889 130.575V96.9678Z" fill="#D17B14"/>
<g style="mix-blend-mode:lighten">
<path d="M229.972 102.486C230.491 102.486 230.912 102.065 230.912 101.546C230.912 101.027 230.491 100.606 229.972 100.606V102.486ZM197.301 101.546V100.606C197.264 100.606 197.227 100.608 197.19 100.612L197.301 101.546ZM183.49 116.072C183.421 116.587 183.783 117.06 184.298 117.129C184.812 117.197 185.285 116.836 185.354 116.321L183.49 116.072ZM229.972 100.606H197.301V102.486H229.972V100.606ZM197.19 100.612C192.455 101.173 184.952 105.11 183.49 116.072L185.354 116.321C186.687 106.323 193.411 102.953 197.411 102.48L197.19 100.612Z" fill="#FFECBC"/>
</g>
<path fill-rule="evenodd" clip-rule="evenodd" d="M203.625 114.378C203.62 114.361 203.614 114.345 203.608 114.328L203.488 114.372L203.257 113.878L203.405 113.824C202.568 112.027 200.746 110.781 198.633 110.781C195.914 110.781 193.677 112.843 193.4 115.488C193.192 115.66 192.999 115.822 192.828 115.967C192.869 112.796 195.452 110.238 198.633 110.238C200.981 110.238 203.004 111.632 203.918 113.639L217.784 108.624C219.024 108.175 220.333 109.094 220.333 110.412V112.391L219.789 111.919V110.412C219.789 109.471 218.854 108.815 217.969 109.135L204.12 114.144C204.126 114.162 204.132 114.18 204.138 114.198L203.625 114.378Z" fill="#FFECBC"/>
<defs>
<filter id="filter0_d" x="98.093" y="0.9064" width="91.7676" height="100.067" filterUnits="userSpaceOnUse" color-interpolation-filters="sRGB">
<feFlood flood-opacity="0" result="BackgroundImageFix"/>
<feColorMatrix in="SourceAlpha" type="matrix" values="0 0 0 0 0 0 0 0 0 0 0 0 0 0 0 0 0 0 127 0"/>
<feOffset dy="2.17379"/>
<feGaussianBlur stdDeviation="5.43448"/>
<feColorMatrix type="matrix" values="0 0 0 0 1 0 0 0 0 0.6 0 0 0 0 0 0 0 0 0.54 0"/>
<feBlend mode="normal" in2="BackgroundImageFix" result="effect1_dropShadow"/>
<feBlend mode="normal" in="SourceGraphic" in2="effect1_dropShadow" result="shape"/>
</filter>
<filter id="filter1_d" x="180.258" y="99.334" width="57.1858" height="38.0708" filterUnits="userSpaceOnUse" color-interpolation-filters="sRGB">
<feFlood flood-opacity="0" result="BackgroundImageFix"/>
<feColorMatrix in="SourceAlpha" type="matrix" values="0 0 0 0 0 0 0 0 0 0 0 0 0 0 0 0 0 0 127 0"/>
<feOffset dy="2.17379"/>
<feGaussianBlur stdDeviation="1.0869"/>
<feColorMatrix type="matrix" values="0 0 0 0 0 0 0 0 0 0 0 0 0 0 0 0 0 0 0.5 0"/>
<feBlend mode="normal" in2="BackgroundImageFix" result="effect1_dropShadow"/>
<feBlend mode="normal" in="SourceGraphic" in2="effect1_dropShadow" result="shape"/>
</filter>
<linearGradient id="paint0_linear" x1="38.6435" y1="53.2216" x2="80.7499" y2="142.833" gradientUnits="userSpaceOnUse">
<stop stop-color="#C5C7FF"/>
<stop offset="1" stop-color="#C5C7FF" stop-opacity="0"/>
</linearGradient>
<linearGradient id="paint1_linear" x1="256.563" y1="97.8462" x2="217.464" y2="125.461" gradientUnits="userSpaceOnUse">
<stop stop-color="#C5C7FF"/>
<stop offset="1" stop-color="#C5C7FF" stop-opacity="0"/>
</linearGradient>
<linearGradient id="paint2_linear" x1="16.8344" y1="167.803" x2="57.699" y2="165.845" gradientUnits="userSpaceOnUse">
<stop stop-color="#FF9211"/>
<stop offset="0.53395" stop-color="#FFC581"/>
<stop offset="1" stop-color="#FF9211"/>
</linearGradient>
<linearGradient id="paint3_linear" x1="19.3949" y1="161.544" x2="60.2595" y2="159.586" gradientUnits="userSpaceOnUse">
<stop stop-color="#FF9211"/>
<stop offset="0.53395" stop-color="#FFC581"/>
<stop offset="1" stop-color="#FF9211"/>
</linearGradient>
<linearGradient id="paint4_linear" x1="17.5014" y1="155.502" x2="58.3659" y2="153.544" gradientUnits="userSpaceOnUse">
<stop stop-color="#FF9211"/>
<stop offset="0.53395" stop-color="#FFC581"/>
<stop offset="1" stop-color="#FF9211"/>
</linearGradient>
<linearGradient id="paint5_linear" x1="20.0619" y1="149.24" x2="60.9265" y2="147.283" gradientUnits="userSpaceOnUse">
<stop stop-color="#FF9211"/>
<stop offset="0.53395" stop-color="#FFC581"/>
<stop offset="1" stop-color="#FF9211"/>
</linearGradient>
<linearGradient id="paint6_linear" x1="36.077" y1="177.521" x2="81.6366" y2="175.339" gradientUnits="userSpaceOnUse">
<stop stop-color="#FF9211"/>
<stop offset="0.53395" stop-color="#FFC581"/>
<stop offset="1" stop-color="#FF9211"/>
</linearGradient>
<linearGradient id="paint7_linear" x1="38.9276" y1="170.544" x2="84.4872" y2="168.361" gradientUnits="userSpaceOnUse">
<stop stop-color="#FF9211"/>
<stop offset="0.53395" stop-color="#FFC581"/>
<stop offset="1" stop-color="#FF9211"/>
</linearGradient>
<linearGradient id="paint8_linear" x1="36.8143" y1="163.803" x2="82.3739" y2="161.621" gradientUnits="userSpaceOnUse">
<stop stop-color="#FF9211"/>
<stop offset="0.53395" stop-color="#FFC581"/>
<stop offset="1" stop-color="#FF9211"/>
</linearGradient>
<linearGradient id="paint9_linear" x1="39.6717" y1="156.83" x2="85.2313" y2="154.647" gradientUnits="userSpaceOnUse">
<stop stop-color="#FF9211"/>
<stop offset="0.53395" stop-color="#FFC581"/>
<stop offset="1" stop-color="#FF9211"/>
</linearGradient>
<linearGradient id="paint10_linear" x1="212.92" y1="177.521" x2="258.479" y2="175.339" gradientUnits="userSpaceOnUse">
<stop stop-color="#FF9211"/>
<stop offset="0.53395" stop-color="#FFC581"/>
<stop offset="1" stop-color="#FF9211"/>
</linearGradient>
<linearGradient id="paint11_linear" x1="215.777" y1="170.544" x2="261.337" y2="168.361" gradientUnits="userSpaceOnUse">
<stop stop-color="#FF9211"/>
<stop offset="0.53395" stop-color="#FFC581"/>
<stop offset="1" stop-color="#FF9211"/>
</linearGradient>
<linearGradient id="paint12_linear" x1="213.664" y1="163.803" x2="259.224" y2="161.621" gradientUnits="userSpaceOnUse">
<stop stop-color="#FF9211"/>
<stop offset="0.53395" stop-color="#FFC581"/>
<stop offset="1" stop-color="#FF9211"/>
</linearGradient>
<linearGradient id="paint13_linear" x1="216.514" y1="156.83" x2="262.074" y2="154.647" gradientUnits="userSpaceOnUse">
<stop stop-color="#FF9211"/>
<stop offset="0.53395" stop-color="#FFC581"/>
<stop offset="1" stop-color="#FF9211"/>
</linearGradient>
<linearGradient id="paint14_linear" x1="141.822" y1="201.126" x2="143.974" y2="30.1811" gradientUnits="userSpaceOnUse">
<stop stop-color="#47526A"/>
<stop offset="1" stop-color="#F52079"/>
</linearGradient>
<radialGradient id="paint15_radial" cx="0" cy="0" r="1" gradientUnits="userSpaceOnUse" gradientTransform="translate(143.974 47.0279) rotate(90) scale(74.6459 107.182)">
<stop stop-color="#FFA318"/>
<stop offset="1" stop-color="#FFA318" stop-opacity="0"/>
</radialGradient>
</defs>
</svg>
