<svg width="29" height="29" viewBox="0 0 29 29" fill="none" xmlns="http://www.w3.org/2000/svg">
<path d="M14.3428 20.9356C15.0056 20.9356 15.5428 20.3984 15.5428 19.7356C15.5428 19.0729 15.0056 18.5356 14.3428 18.5356C13.6801 18.5356 13.1428 19.0729 13.1428 19.7356C13.1428 20.3984 13.6801 20.9356 14.3428 20.9356Z" fill="#FFA318"/>
<path d="M14.3428 8.93555C14.0246 8.93555 13.7193 9.06198 13.4943 9.28702C13.2693 9.51206 13.1428 9.81729 13.1428 10.1355L13.1428 16.1355C13.1428 16.4538 13.2693 16.759 13.4943 16.9841C13.7193 17.2091 14.0246 17.3355 14.3428 17.3355C14.6611 17.3355 14.9663 17.2091 15.1913 16.9841C15.4164 16.759 15.5428 16.4538 15.5428 16.1355L15.5428 10.1355C15.5428 9.81729 15.4164 9.51206 15.1914 9.28702C14.9663 9.06198 14.6611 8.93555 14.3428 8.93555Z" fill="#FFA318"/>
<circle cx="14.343" cy="14.9355" r="13" transform="rotate(-180 14.343 14.9355)" stroke="#FFA318" stroke-width="2"/>
</svg>
