<svg width="29" height="29" viewBox="0 0 29 29" fill="none" xmlns="http://www.w3.org/2000/svg">
<path d="M14.8621 20.3355C15.5249 20.3355 16.0621 19.7983 16.0621 19.1355C16.0621 18.4728 15.5249 17.9355 14.8621 17.9355C14.1994 17.9355 13.6621 18.4728 13.6621 19.1355C13.6621 19.7983 14.1994 20.3355 14.8621 20.3355Z" fill="white"/>
<path d="M14.8631 8.33545C14.5448 8.33545 14.2396 8.46188 14.0146 8.68692C13.7895 8.91196 13.6631 9.21719 13.6631 9.53545L13.6631 15.5354C13.6631 15.8537 13.7895 16.1589 14.0146 16.384C14.2396 16.609 14.5448 16.7354 14.8631 16.7354C15.1813 16.7354 15.4866 16.609 15.7116 16.384C15.9367 16.1589 16.0631 15.8537 16.0631 15.5354L16.0631 9.53545C16.0631 9.21719 15.9367 8.91197 15.7116 8.68692C15.4866 8.46188 15.1813 8.33545 14.8631 8.33545Z" fill="white"/>
<circle cx="14.8623" cy="14.3354" r="13" transform="rotate(-180 14.8623 14.3354)" stroke="white" stroke-width="2"/>
</svg>
