<svg width="29" height="29" viewBox="0 0 29 29" fill="none" xmlns="http://www.w3.org/2000/svg">
<path d="M14.2219 8.99307C13.5591 8.99307 13.0219 9.53032 13.0219 10.1931C13.0219 10.8558 13.5591 11.3931 14.2219 11.3931C14.8846 11.3931 15.4219 10.8558 15.4219 10.1931C15.4219 9.53032 14.8846 8.99307 14.2219 8.99307Z" fill="#4048FF"/>
<path d="M14.2219 20.9932C14.5401 20.9932 14.8454 20.8667 15.0704 20.6417C15.2954 20.4166 15.4219 20.1114 15.4219 19.7932L15.4219 13.7932C15.4219 13.4749 15.2954 13.1697 15.0704 12.9446C14.8454 12.7196 14.5401 12.5932 14.2219 12.5932C13.9036 12.5932 13.5984 12.7196 13.3733 12.9446C13.1483 13.1697 13.0219 13.4749 13.0219 13.7932L13.0219 19.7932C13.0219 20.1114 13.1483 20.4166 13.3733 20.6417C13.5984 20.8667 13.9036 20.9932 14.2219 20.9932Z" fill="#4048FF"/>
<circle cx="14.2217" cy="14.9932" r="13" stroke="#4048FF" stroke-width="2"/>
</svg>
