<svg width="45" height="43" viewBox="0 0 45 43" fill="none" xmlns="http://www.w3.org/2000/svg">
<path d="M30.9181 28.9411C31.5045 28.3547 32.4554 28.3547 33.0419 28.9411L44.4659 40.3651C45.0523 40.9516 45.0523 41.9025 44.4659 42.4889C43.8794 43.0754 42.9285 43.0754 42.342 42.4889L30.9181 31.065C30.3316 30.4785 30.3316 29.5276 30.9181 28.9411Z" fill="white"/>
<path d="M30.9179 42.4889C30.3314 41.9024 30.3314 40.9516 30.9179 40.3651L42.3418 28.9411C42.9283 28.3546 43.8792 28.3546 44.4657 28.9411C45.0522 29.5276 45.0522 30.4785 44.4657 31.065L33.0417 42.4889C32.4552 43.0754 31.5044 43.0754 30.9179 42.4889Z" fill="white"/>
<path fill-rule="evenodd" clip-rule="evenodd" d="M3.84091 3.80005L7.18298 17.0956H16.9349C17.9843 17.0956 18.8351 17.9464 18.8351 18.9958C18.8351 20.0452 17.9843 20.8959 16.9349 20.8959H5.70137C4.83037 20.8959 4.0709 20.3037 3.85857 19.459L0.106302 4.53155C0.0502506 4.322 0.0159319 4.10722 0.00390371 3.89059C0.00302725 3.8748 0.00234769 3.859 0.00186543 3.8432C-0.0869341 0.932994 3.01237 -0.812797 5.49706 0.378988L40.7257 17.2827C41.3846 17.5988 41.8038 18.2649 41.8038 18.9958C41.8038 19.7266 41.3846 20.3927 40.7257 20.7089L5.49877 37.6117C3.03436 38.7968 -0.0151007 37.0931 0.00101181 34.2412C0.00110612 34.2245 0.00142005 34.2078 0.00195361 34.1911C0.0113169 33.8985 0.0613676 33.6087 0.150624 33.33L2.93277 24.1453C3.237 23.141 4.29781 22.5734 5.30216 22.8776C6.3065 23.1819 6.87406 24.2427 6.56983 25.247L3.86354 34.1813L35.5114 18.9958L3.85354 3.80547C3.8488 3.80321 3.84444 3.80137 3.84091 3.80005Z" fill="white"/>
</svg>
