<svg width="29" height="29" viewBox="0 0 29 29" fill="none" xmlns="http://www.w3.org/2000/svg">
<path d="M19.5066 10.2582C19.8403 9.92443 19.8403 9.38334 19.5066 9.0496C19.1728 8.71586 18.6317 8.71586 18.298 9.0496L14.1108 13.2367L9.9237 9.0496C9.58996 8.71586 9.04886 8.71586 8.71513 9.0496C8.38139 9.38334 8.38139 9.92443 8.71513 10.2582L12.9023 14.4453L8.71512 18.6325C8.38139 18.9662 8.38139 19.5073 8.71513 19.841C9.04886 20.1748 9.58996 20.1748 9.9237 19.841L14.1108 15.6539L18.298 19.841C18.6317 20.1748 19.1728 20.1748 19.5066 19.841C19.8403 19.5073 19.8403 18.9662 19.5066 18.6325L15.3194 14.4453L19.5066 10.2582Z" fill="#F52079"/>
<circle cx="14.1108" cy="14.4453" r="13" stroke="#F52079" stroke-width="2"/>
</svg>
