<svg width="17" height="17" viewBox="0 0 17 17" fill="none" xmlns="http://www.w3.org/2000/svg">
<path d="M5.21299 6.59121H5.17914C5.87163 5.23 7.2857 4.29726 8.91764 4.29726C9.97036 4.29726 10.9322 4.68518 11.6683 5.32593H11.694H13.3649C12.3756 3.93759 10.7524 3.03198 8.91764 3.03198C6.11775 3.03198 3.81066 5.1405 3.49714 7.85648L7.02001 7.8562V9.1212H3.49658L3.49798 9.13099C3.54916 9.56729 3.65181 9.98765 3.79948 10.3865H7.01945V13.6064C7.42079 13.7552 7.84507 13.8584 8.28444 13.9093V10.3868H9.54944V13.9096C9.9891 13.8587 10.4131 13.7558 10.8144 13.6067V10.3865H14.0344C14.2537 9.79551 14.3734 9.15616 14.3734 8.48884C14.3734 7.82152 14.2537 7.18217 14.0344 6.59121H13.2851H5.21299ZM9.54972 9.12148H8.28472V7.85648H9.54972V9.12148ZM13.0614 9.12148H10.815V7.85648H13.0614C13.0927 8.06289 13.1089 8.27405 13.1089 8.48912C13.1089 8.70392 13.0927 8.91508 13.0614 9.12148Z" fill="#14142A"/>
<path d="M8.91309 0.48877C4.49468 0.48877 0.913086 4.07065 0.913086 8.48877C0.913086 12.9069 4.49468 16.4888 8.91309 16.4888C13.3315 16.4888 16.9131 12.9069 16.9131 8.48877C16.9131 4.07065 13.3315 0.48877 8.91309 0.48877ZM8.91309 15.2215C5.19473 15.2215 2.18032 12.2071 2.18032 8.48877C2.18032 4.77041 5.19473 1.75601 8.91309 1.75601C12.6314 1.75601 15.6459 4.77041 15.6459 8.48877C15.6459 12.2071 12.6314 15.2215 8.91309 15.2215Z" fill="#14142A"/>
</svg>
