<svg width="79" height="49" viewBox="0 0 79 49" fill="none" xmlns="http://www.w3.org/2000/svg">
<rect x="31" y="0.5" width="48" height="48" rx="24" fill="url(#paint0_linear_3812_70845)"/>
<path fill-rule="evenodd" clip-rule="evenodd" d="M54.6699 13.4995C51.6822 13.4995 51.3072 13.5126 50.1338 13.566C48.9626 13.6196 48.1632 13.805 47.4638 14.0771C46.7402 14.358 46.1265 14.7339 45.515 15.3456C44.9031 15.9571 44.5272 16.5708 44.2453 17.2942C43.9726 17.9939 43.7869 18.7935 43.7342 19.9642C43.6817 21.1376 43.668 21.5128 43.668 24.5005C43.668 27.4882 43.6813 27.862 43.7344 29.0354C43.7883 30.2066 43.9737 31.006 44.2455 31.7054C44.5267 32.429 44.9026 33.0427 45.5143 33.6542C46.1255 34.2661 46.7393 34.6429 47.4624 34.9239C48.1623 35.196 48.962 35.3814 50.1329 35.435C51.3063 35.4884 51.681 35.5015 54.6685 35.5015C57.6564 35.5015 58.0302 35.4884 59.2036 35.435C60.3748 35.3814 61.1751 35.196 61.875 34.9239C62.5984 34.6429 63.2112 34.2661 63.8224 33.6542C64.4344 33.0427 64.8102 32.429 65.0921 31.7057C65.3626 31.006 65.5482 30.2063 65.6032 29.0356C65.6559 27.8622 65.6697 27.4882 65.6697 24.5005C65.6697 21.5128 65.6559 21.1379 65.6032 19.9644C65.5482 18.7933 65.3626 17.9939 65.0921 17.2944C64.8102 16.5708 64.4344 15.9571 63.8224 15.3456C63.2105 14.7337 62.5986 14.3578 61.8744 14.0771C61.173 13.805 60.3732 13.6196 59.202 13.566C58.0286 13.5126 57.655 13.4995 54.6664 13.4995H54.6699ZM53.6817 15.4835C53.9746 15.483 54.3014 15.4835 54.6686 15.4835C57.6058 15.4835 57.954 15.494 59.1139 15.5467C60.1865 15.5958 60.7686 15.775 61.1564 15.9256C61.6698 16.125 62.0358 16.3633 62.4206 16.7484C62.8056 17.1334 63.044 17.5001 63.2438 18.0135C63.3944 18.4008 63.5739 18.9829 63.6227 20.0555C63.6754 21.2152 63.6869 21.5636 63.6869 24.4995C63.6869 27.4353 63.6754 27.7837 63.6227 28.9434C63.5736 30.016 63.3944 30.5981 63.2438 30.9855C63.0445 31.4988 62.8056 31.8644 62.4206 32.2492C62.0356 32.6342 61.67 32.8726 61.1564 33.072C60.7691 33.2232 60.1865 33.402 59.1139 33.451C57.9542 33.5038 57.6058 33.5152 54.6686 33.5152C51.7311 33.5152 51.383 33.5038 50.2233 33.451C49.1507 33.4015 48.5685 33.2223 48.1805 33.0717C47.6672 32.8723 47.3005 32.634 46.9154 32.249C46.5304 31.8639 46.292 31.4981 46.0922 30.9845C45.9416 30.5972 45.7622 30.0151 45.7133 28.9425C45.6606 27.7828 45.6501 27.4344 45.6501 24.4967C45.6501 21.559 45.6606 21.2125 45.7133 20.0528C45.7624 18.9802 45.9416 18.398 46.0922 18.0103C46.2916 17.4969 46.5304 17.1302 46.9154 16.7451C47.3005 16.3601 47.6672 16.1218 48.1805 15.9219C48.5683 15.7706 49.1507 15.5919 50.2233 15.5426C51.2381 15.4968 51.6314 15.483 53.6817 15.4807V15.4835ZM60.5447 17.3081C59.8159 17.3081 59.2246 17.8987 59.2246 18.6277C59.2246 19.3565 59.8159 19.9478 60.5447 19.9478C61.2735 19.9478 61.8648 19.3565 61.8648 18.6277C61.8648 17.8989 61.2735 17.3076 60.5447 17.3076V17.3081ZM54.6728 18.8526C51.5529 18.8526 49.0234 21.3821 49.0234 24.502C49.0234 27.622 51.5529 30.1504 54.6728 30.1504C57.7927 30.1504 60.3214 27.622 60.3214 24.502C60.3214 21.3821 57.7925 18.8526 54.6726 18.8526H54.6728ZM54.6708 20.833C56.6959 20.833 58.3378 22.4747 58.3378 24.5C58.3378 26.5251 56.6959 28.167 54.6708 28.167C52.6455 28.167 51.0038 26.5251 51.0038 24.5C51.0038 22.4747 52.6455 20.833 54.6708 20.833Z" fill="white"/>
<rect width="48" height="48" rx="24" fill="#1967FF"/>
<path fill-rule="evenodd" clip-rule="evenodd" d="M26.0174 33.8774V23.8132H28.7955L29.1637 20.3451H26.0174L26.0221 18.6092C26.0221 17.7047 26.108 17.22 27.4072 17.22H29.144V13.7515H26.3655C23.028 13.7515 21.8533 15.4339 21.8533 18.2632V20.3455H19.7729V23.8136H21.8533V33.8774H26.0174Z" fill="white"/>
<defs>
<linearGradient id="paint0_linear_3812_70845" x1="55" y1="70.6275" x2="55" y2="-21.1766" gradientUnits="userSpaceOnUse">
<stop stop-color="#E09B3D"/>
<stop offset="0.3" stop-color="#C74C4D"/>
<stop offset="0.6" stop-color="#C21975"/>
<stop offset="1" stop-color="#7024C4"/>
</linearGradient>
</defs>
</svg>
