<svg width="257" height="41" viewBox="0 0 257 41" fill="none" xmlns="http://www.w3.org/2000/svg">
<rect x="0.681152" y="0.687012" width="256" height="40" rx="20" fill="#1877F2"/>
<path d="M25.9534 10.687C20.3975 10.687 15.8931 15.1915 15.8931 20.7474C15.8931 25.768 19.5715 29.9294 24.3818 30.687V23.6561H21.8263V20.7474H24.3818V18.5309C24.3818 16.0075 25.884 14.616 28.181 14.616C29.2817 14.616 30.4348 14.8122 30.4348 14.8122V17.2863H29.163C27.9154 17.2863 27.525 18.063 27.525 18.8589V20.7454H30.313L29.8673 23.6541H27.525V30.685C32.3354 29.9314 36.0138 25.769 36.0138 20.7474C36.0138 15.1915 31.5093 10.687 25.9534 10.687Z" fill="white"/>
<path d="M51.0601 26.687V15.2339H52.5757V25.3354H58.2163V26.687H51.0601ZM59.1657 22.5386C59.1657 21.0021 59.5928 19.8641 60.4469 19.1245C61.1605 18.5099 62.0303 18.2026 63.0563 18.2026C64.1969 18.2026 65.1292 18.5776 65.8532 19.3276C66.5771 20.0724 66.9391 21.1037 66.9391 22.4214C66.9391 23.4891 66.7777 24.3302 66.4547 24.9448C66.137 25.5542 65.6709 26.0282 65.0563 26.3667C64.4469 26.7052 63.7803 26.8745 63.0563 26.8745C61.8949 26.8745 60.9547 26.5021 60.236 25.7573C59.5225 25.0125 59.1657 23.9396 59.1657 22.5386ZM60.611 22.5386C60.611 23.6011 60.8428 24.3979 61.3063 24.9292C61.7699 25.4552 62.3532 25.7183 63.0563 25.7183C63.7542 25.7183 64.335 25.4526 64.7985 24.9214C65.262 24.3901 65.4938 23.5802 65.4938 22.4917C65.4938 21.4657 65.2594 20.6896 64.7907 20.1636C64.3271 19.6323 63.749 19.3667 63.0563 19.3667C62.3532 19.3667 61.7699 19.6297 61.3063 20.1558C60.8428 20.6818 60.611 21.4761 60.611 22.5386ZM68.1776 27.3745L69.5447 27.5776C69.602 27.9995 69.7609 28.3068 70.0213 28.4995C70.3703 28.7599 70.8468 28.8901 71.451 28.8901C72.102 28.8901 72.6046 28.7599 72.9588 28.4995C73.313 28.2391 73.5526 27.8745 73.6776 27.4058C73.7505 27.1193 73.7843 26.5177 73.7791 25.6011C73.1645 26.325 72.3989 26.687 71.4822 26.687C70.3416 26.687 69.4588 26.2756 68.8338 25.4526C68.2088 24.6297 67.8963 23.6427 67.8963 22.4917C67.8963 21.7 68.0395 20.9709 68.326 20.3042C68.6125 19.6323 69.0265 19.1141 69.5682 18.7495C70.1151 18.3849 70.7557 18.2026 71.4901 18.2026C72.4692 18.2026 73.2765 18.5985 73.9119 19.3901V18.3901H75.2088V25.562C75.2088 26.8537 75.076 27.7677 74.8104 28.3042C74.55 28.8459 74.1333 29.2729 73.5604 29.5854C72.9927 29.8979 72.2921 30.0542 71.4588 30.0542C70.4692 30.0542 69.6697 29.8302 69.0604 29.3823C68.451 28.9396 68.1567 28.2703 68.1776 27.3745ZM69.3416 22.3901C69.3416 23.4787 69.5578 24.2729 69.9901 24.7729C70.4224 25.2729 70.964 25.5229 71.6151 25.5229C72.2609 25.5229 72.8026 25.2756 73.2401 24.7808C73.6776 24.2808 73.8963 23.4995 73.8963 22.437C73.8963 21.4214 73.6697 20.6558 73.2166 20.1401C72.7687 19.6245 72.227 19.3667 71.5916 19.3667C70.9666 19.3667 70.4354 19.6219 69.9979 20.1323C69.5604 20.6375 69.3416 21.3901 69.3416 22.3901ZM77.1894 16.8511V15.2339H78.5957V16.8511H77.1894ZM77.1894 26.687V18.3901H78.5957V26.687H77.1894ZM80.5841 26.687V18.3901H81.8497V19.5698C82.4591 18.6584 83.3393 18.2026 84.4904 18.2026C84.9904 18.2026 85.4487 18.2938 85.8654 18.4761C86.2872 18.6532 86.6024 18.8875 86.8107 19.1792C87.019 19.4709 87.1649 19.8172 87.2482 20.2183C87.3003 20.4787 87.3263 20.9344 87.3263 21.5854V26.687H85.9201V21.6401C85.9201 21.0672 85.8654 20.6401 85.756 20.3589C85.6466 20.0724 85.4513 19.8459 85.1701 19.6792C84.894 19.5073 84.5685 19.4214 84.1935 19.4214C83.5945 19.4214 83.0763 19.6115 82.6388 19.9917C82.2065 20.3719 81.9904 21.0933 81.9904 22.1558V26.687H80.5841ZM95.1547 26.687L92.6157 18.3901H94.0688L95.3891 23.1792L95.8813 24.9604C95.9021 24.8719 96.0454 24.3016 96.311 23.2495L97.6313 18.3901H99.0766L100.319 23.2026L100.733 24.7886L101.209 23.187L102.631 18.3901H103.998L101.405 26.687H99.9438L98.6235 21.7183L98.3032 20.3042L96.6235 26.687H95.1547ZM105.034 16.8511V15.2339H106.44V16.8511H105.034ZM105.034 26.687V18.3901H106.44V26.687H105.034ZM111.499 25.4292L111.702 26.6714C111.306 26.7547 110.952 26.7964 110.639 26.7964C110.129 26.7964 109.733 26.7157 109.452 26.5542C109.171 26.3927 108.973 26.1818 108.858 25.9214C108.744 25.6558 108.686 25.1011 108.686 24.2573V19.4839H107.655V18.3901H108.686V16.3354L110.085 15.4917V18.3901H111.499V19.4839H110.085V24.3354C110.085 24.7365 110.108 24.9943 110.155 25.1089C110.207 25.2235 110.288 25.3146 110.397 25.3823C110.512 25.45 110.673 25.4839 110.882 25.4839C111.038 25.4839 111.244 25.4657 111.499 25.4292ZM112.722 26.687V15.2339H114.128V19.3433C114.784 18.5828 115.612 18.2026 116.612 18.2026C117.227 18.2026 117.761 18.325 118.214 18.5698C118.667 18.8094 118.99 19.1427 119.183 19.5698C119.38 19.9969 119.479 20.6167 119.479 21.4292V26.687H118.073V21.4292C118.073 20.7261 117.92 20.2157 117.612 19.8979C117.31 19.575 116.88 19.4136 116.323 19.4136C115.907 19.4136 115.513 19.5229 115.143 19.7417C114.779 19.9552 114.518 20.2469 114.362 20.6167C114.206 20.9865 114.128 21.4969 114.128 22.1479V26.687H112.722ZM126.019 26.687V15.2339H133.745V16.5854H127.534V20.1323H132.909V21.4839H127.534V26.687H126.019ZM140.796 25.6636C140.275 26.1063 139.773 26.4188 139.288 26.6011C138.809 26.7834 138.294 26.8745 137.742 26.8745C136.83 26.8745 136.13 26.6532 135.64 26.2104C135.15 25.7625 134.906 25.1922 134.906 24.4995C134.906 24.0933 134.997 23.7235 135.179 23.3901C135.367 23.0516 135.609 22.7808 135.906 22.5776C136.208 22.3745 136.546 22.2209 136.921 22.1167C137.197 22.0438 137.614 21.9735 138.171 21.9058C139.307 21.7703 140.143 21.6089 140.679 21.4214C140.684 21.2287 140.687 21.1063 140.687 21.0542C140.687 20.4813 140.554 20.0776 140.288 19.8433C139.929 19.5256 139.395 19.3667 138.687 19.3667C138.025 19.3667 137.536 19.4839 137.218 19.7183C136.906 19.9474 136.674 20.3563 136.523 20.9448L135.148 20.7573C135.273 20.1688 135.479 19.6948 135.765 19.3354C136.052 18.9709 136.466 18.6922 137.007 18.4995C137.549 18.3016 138.177 18.2026 138.89 18.2026C139.598 18.2026 140.174 18.286 140.617 18.4526C141.059 18.6193 141.385 18.8302 141.593 19.0854C141.802 19.3354 141.947 19.6532 142.031 20.0386C142.078 20.2782 142.101 20.7104 142.101 21.3354V23.2104C142.101 24.5177 142.13 25.3459 142.187 25.6948C142.249 26.0386 142.369 26.3693 142.546 26.687H141.078C140.932 26.3953 140.838 26.0542 140.796 25.6636ZM140.679 22.5229C140.169 22.7313 139.403 22.9084 138.382 23.0542C137.804 23.1375 137.395 23.2313 137.156 23.3354C136.916 23.4396 136.731 23.5933 136.601 23.7964C136.471 23.9943 136.406 24.2157 136.406 24.4604C136.406 24.8354 136.546 25.1479 136.828 25.3979C137.114 25.6479 137.531 25.7729 138.078 25.7729C138.619 25.7729 139.101 25.6558 139.523 25.4214C139.945 25.1818 140.255 24.8563 140.453 24.4448C140.604 24.1271 140.679 23.6584 140.679 23.0386V22.5229ZM149.543 23.6479L150.925 23.8276C150.774 24.7808 150.386 25.5282 149.761 26.0698C149.142 26.6063 148.378 26.8745 147.472 26.8745C146.337 26.8745 145.423 26.5047 144.73 25.7651C144.043 25.0203 143.699 23.9552 143.699 22.5698C143.699 21.674 143.847 20.8901 144.144 20.2183C144.441 19.5464 144.892 19.0438 145.496 18.7104C146.105 18.3719 146.767 18.2026 147.48 18.2026C148.381 18.2026 149.118 18.4318 149.691 18.8901C150.264 19.3433 150.631 19.9891 150.793 20.8276L149.425 21.0386C149.295 20.4813 149.063 20.062 148.73 19.7808C148.402 19.4995 148.003 19.3589 147.535 19.3589C146.826 19.3589 146.251 19.6141 145.808 20.1245C145.365 20.6297 145.144 21.4318 145.144 22.5308C145.144 23.6453 145.358 24.4552 145.785 24.9604C146.212 25.4657 146.769 25.7183 147.457 25.7183C148.009 25.7183 148.47 25.549 148.839 25.2104C149.209 24.8719 149.444 24.3511 149.543 23.6479ZM157.648 24.0151L159.101 24.1948C158.872 25.0438 158.448 25.7026 157.828 26.1714C157.208 26.6401 156.416 26.8745 155.453 26.8745C154.239 26.8745 153.276 26.5021 152.562 25.7573C151.854 25.0073 151.5 23.9578 151.5 22.6089C151.5 21.2131 151.859 20.1297 152.578 19.3589C153.297 18.5881 154.229 18.2026 155.375 18.2026C156.484 18.2026 157.39 18.5802 158.093 19.3354C158.797 20.0907 159.148 21.1532 159.148 22.5229C159.148 22.6063 159.146 22.7313 159.14 22.8979H152.953C153.005 23.8094 153.263 24.5073 153.726 24.9917C154.19 25.4761 154.768 25.7183 155.461 25.7183C155.976 25.7183 156.416 25.5828 156.781 25.312C157.146 25.0412 157.435 24.6089 157.648 24.0151ZM153.031 21.7417H157.664C157.601 21.0438 157.424 20.5203 157.133 20.1714C156.685 19.6297 156.104 19.3589 155.39 19.3589C154.745 19.3589 154.2 19.575 153.758 20.0073C153.32 20.4396 153.078 21.0177 153.031 21.7417ZM162.012 26.687H160.707V15.2339H162.113V19.3198C162.707 18.575 163.465 18.2026 164.387 18.2026C164.897 18.2026 165.379 18.3068 165.832 18.5151C166.29 18.7183 166.665 19.0073 166.957 19.3823C167.254 19.7521 167.486 20.2 167.652 20.7261C167.819 21.2521 167.902 21.8146 167.902 22.4136C167.902 23.8354 167.551 24.9344 166.848 25.7104C166.144 26.4865 165.301 26.8745 164.316 26.8745C163.337 26.8745 162.569 26.4657 162.012 25.6479V26.687ZM161.996 22.4761C161.996 23.4709 162.131 24.1896 162.402 24.6323C162.845 25.3563 163.444 25.7183 164.199 25.7183C164.814 25.7183 165.345 25.4526 165.793 24.9214C166.241 24.3849 166.465 23.5881 166.465 22.5308C166.465 21.4474 166.249 20.6479 165.816 20.1323C165.389 19.6167 164.871 19.3589 164.262 19.3589C163.647 19.3589 163.116 19.6271 162.668 20.1636C162.22 20.6948 161.996 21.4657 161.996 22.4761ZM168.938 22.5386C168.938 21.0021 169.365 19.8641 170.219 19.1245C170.932 18.5099 171.802 18.2026 172.828 18.2026C173.969 18.2026 174.901 18.5776 175.625 19.3276C176.349 20.0724 176.711 21.1037 176.711 22.4214C176.711 23.4891 176.55 24.3302 176.227 24.9448C175.909 25.5542 175.443 26.0282 174.828 26.3667C174.219 26.7052 173.552 26.8745 172.828 26.8745C171.667 26.8745 170.727 26.5021 170.008 25.7573C169.294 25.0125 168.938 23.9396 168.938 22.5386ZM170.383 22.5386C170.383 23.6011 170.615 24.3979 171.078 24.9292C171.542 25.4552 172.125 25.7183 172.828 25.7183C173.526 25.7183 174.107 25.4526 174.57 24.9214C175.034 24.3901 175.266 23.5802 175.266 22.4917C175.266 21.4657 175.031 20.6896 174.563 20.1636C174.099 19.6323 173.521 19.3667 172.828 19.3667C172.125 19.3667 171.542 19.6297 171.078 20.1558C170.615 20.6818 170.383 21.4761 170.383 22.5386ZM177.684 22.5386C177.684 21.0021 178.111 19.8641 178.965 19.1245C179.679 18.5099 180.548 18.2026 181.574 18.2026C182.715 18.2026 183.647 18.5776 184.371 19.3276C185.095 20.0724 185.457 21.1037 185.457 22.4214C185.457 23.4891 185.296 24.3302 184.973 24.9448C184.655 25.5542 184.189 26.0282 183.574 26.3667C182.965 26.7052 182.298 26.8745 181.574 26.8745C180.413 26.8745 179.473 26.5021 178.754 25.7573C178.041 25.0125 177.684 23.9396 177.684 22.5386ZM179.129 22.5386C179.129 23.6011 179.361 24.3979 179.824 24.9292C180.288 25.4552 180.871 25.7183 181.574 25.7183C182.272 25.7183 182.853 25.4526 183.317 24.9214C183.78 24.3901 184.012 23.5802 184.012 22.4917C184.012 21.4657 183.778 20.6896 183.309 20.1636C182.845 19.6323 182.267 19.3667 181.574 19.3667C180.871 19.3667 180.288 19.6297 179.824 20.1558C179.361 20.6818 179.129 21.4761 179.129 22.5386ZM186.961 26.687V15.2339H188.368V21.7651L191.696 18.3901H193.516L190.344 21.4683L193.836 26.687H192.102L189.36 22.4448L188.368 23.3979V26.687H186.961Z" fill="white"/>
</svg>
