<svg width="257" height="41" viewBox="0 0 257 41" fill="none" xmlns="http://www.w3.org/2000/svg">
<rect x="0.669922" y="0.687012" width="256" height="40" rx="20" fill="#1877F2"/>
<path d="M25.9422 10.687C20.3863 10.687 15.8818 15.1915 15.8818 20.7474C15.8818 25.768 19.5603 29.9294 24.3706 30.687V23.6561H21.815V20.7474H24.3706V18.5309C24.3706 16.0075 25.8728 14.616 28.1698 14.616C29.2705 14.616 30.4235 14.8122 30.4235 14.8122V17.2863H29.1518C27.9042 17.2863 27.5138 18.063 27.5138 18.8589V20.7454H30.3018L29.8561 23.6541H27.5138V30.685C32.3241 29.9314 36.0026 25.769 36.0026 20.7474C36.0026 15.1915 31.4981 10.687 25.9422 10.687Z" fill="white"/>
<path d="M50.5957 23.0073L52.0254 22.8823C52.0931 23.4552 52.2493 23.9266 52.4941 24.2964C52.7441 24.661 53.1296 24.9578 53.6504 25.187C54.1712 25.411 54.7572 25.5229 55.4082 25.5229C55.9863 25.5229 56.4967 25.437 56.9395 25.2651C57.3822 25.0933 57.7103 24.8589 57.9238 24.562C58.1426 24.2599 58.252 23.9318 58.252 23.5776C58.252 23.2183 58.1478 22.9058 57.9395 22.6401C57.7311 22.3693 57.3874 22.1427 56.9082 21.9604C56.6009 21.8407 55.9212 21.6558 54.8691 21.4058C53.8171 21.1506 53.0801 20.911 52.6582 20.687C52.1113 20.4006 51.7025 20.0464 51.4316 19.6245C51.166 19.1974 51.0332 18.7209 51.0332 18.1948C51.0332 17.6167 51.1973 17.0776 51.5254 16.5776C51.8535 16.0724 52.3327 15.6896 52.9629 15.4292C53.5931 15.1688 54.2936 15.0386 55.0645 15.0386C55.9134 15.0386 56.6608 15.1766 57.3066 15.4526C57.9577 15.7235 58.4577 16.1245 58.8066 16.6558C59.1556 17.187 59.3431 17.7886 59.3691 18.4604L57.916 18.5698C57.8379 17.8459 57.5723 17.299 57.1191 16.9292C56.6712 16.5594 56.0072 16.3745 55.127 16.3745C54.2103 16.3745 53.541 16.5438 53.1191 16.8823C52.7025 17.2157 52.4941 17.6193 52.4941 18.0933C52.4941 18.5047 52.6426 18.8433 52.9395 19.1089C53.2311 19.3745 53.9915 19.6479 55.2207 19.9292C56.4551 20.2052 57.3014 20.4474 57.7598 20.6558C58.4264 20.9631 58.9186 21.3537 59.2363 21.8276C59.554 22.2964 59.7129 22.8381 59.7129 23.4526C59.7129 24.062 59.5384 24.6375 59.1895 25.1792C58.8405 25.7157 58.3379 26.1349 57.6816 26.437C57.0306 26.7339 56.2962 26.8823 55.4785 26.8823C54.4421 26.8823 53.5723 26.7313 52.8691 26.4292C52.1712 26.1271 51.6217 25.674 51.2207 25.0698C50.8249 24.4604 50.6165 23.7729 50.5957 23.0073ZM66.8032 24.0151L68.2563 24.1948C68.0272 25.0438 67.6027 25.7026 66.9829 26.1714C66.3631 26.6401 65.5714 26.8745 64.6079 26.8745C63.3943 26.8745 62.4308 26.5021 61.7173 25.7573C61.0089 25.0073 60.6548 23.9578 60.6548 22.6089C60.6548 21.2131 61.0141 20.1297 61.7329 19.3589C62.4516 18.5881 63.3839 18.2026 64.5298 18.2026C65.6391 18.2026 66.5454 18.5802 67.2485 19.3354C67.9516 20.0907 68.3032 21.1532 68.3032 22.5229C68.3032 22.6063 68.3006 22.7313 68.2954 22.8979H62.1079C62.16 23.8094 62.4178 24.5073 62.8813 24.9917C63.3449 25.4761 63.923 25.7183 64.6157 25.7183C65.1313 25.7183 65.5714 25.5828 65.936 25.312C66.3006 25.0412 66.5897 24.6089 66.8032 24.0151ZM62.186 21.7417H66.8188C66.7563 21.0438 66.5792 20.5203 66.2876 20.1714C65.8397 19.6297 65.2589 19.3589 64.5454 19.3589C63.8996 19.3589 63.3553 19.575 62.9126 20.0073C62.4751 20.4396 62.2329 21.0177 62.186 21.7417ZM78.937 23.6479L80.3198 23.8276C80.1687 24.7808 79.7807 25.5282 79.1557 26.0698C78.5359 26.6063 77.7729 26.8745 76.8666 26.8745C75.7312 26.8745 74.8172 26.5047 74.1245 25.7651C73.437 25.0203 73.0932 23.9552 73.0932 22.5698C73.0932 21.674 73.2416 20.8901 73.5385 20.2183C73.8354 19.5464 74.2859 19.0438 74.8901 18.7104C75.4995 18.3719 76.1609 18.2026 76.8745 18.2026C77.7755 18.2026 78.5125 18.4318 79.0854 18.8901C79.6583 19.3433 80.0255 19.9891 80.187 20.8276L78.8198 21.0386C78.6896 20.4813 78.4578 20.062 78.1245 19.7808C77.7963 19.4995 77.3979 19.3589 76.9291 19.3589C76.2208 19.3589 75.6453 19.6141 75.2026 20.1245C74.7599 20.6297 74.5385 21.4318 74.5385 22.5308C74.5385 23.6453 74.7521 24.4552 75.1791 24.9604C75.6062 25.4657 76.1635 25.7183 76.851 25.7183C77.4031 25.7183 77.864 25.549 78.2338 25.2104C78.6036 24.8719 78.838 24.3511 78.937 23.6479ZM80.5195 22.5386C80.5195 21.0021 80.9465 19.8641 81.8007 19.1245C82.5142 18.5099 83.384 18.2026 84.4101 18.2026C85.5507 18.2026 86.483 18.5776 87.207 19.3276C87.9309 20.0724 88.2929 21.1037 88.2929 22.4214C88.2929 23.4891 88.1314 24.3302 87.8085 24.9448C87.4908 25.5542 87.0247 26.0282 86.4101 26.3667C85.8007 26.7052 85.134 26.8745 84.4101 26.8745C83.2486 26.8745 82.3085 26.5021 81.5898 25.7573C80.8762 25.0125 80.5195 23.9396 80.5195 22.5386ZM81.9648 22.5386C81.9648 23.6011 82.1965 24.3979 82.6601 24.9292C83.1236 25.4552 83.707 25.7183 84.4101 25.7183C85.108 25.7183 85.6887 25.4526 86.1523 24.9214C86.6158 24.3901 86.8476 23.5802 86.8476 22.4917C86.8476 21.4657 86.6132 20.6896 86.1445 20.1636C85.6809 19.6323 85.1028 19.3667 84.4101 19.3667C83.707 19.3667 83.1236 19.6297 82.6601 20.1558C82.1965 20.6818 81.9648 21.4761 81.9648 22.5386ZM89.4691 26.687V18.3901H90.7348V19.5698C91.3441 18.6584 92.2243 18.2026 93.3754 18.2026C93.8754 18.2026 94.3337 18.2938 94.7504 18.4761C95.1723 18.6532 95.4874 18.8875 95.6957 19.1792C95.904 19.4709 96.0499 19.8172 96.1332 20.2183C96.1853 20.4787 96.2113 20.9344 96.2113 21.5854V26.687H94.8051V21.6401C94.8051 21.0672 94.7504 20.6401 94.641 20.3589C94.5316 20.0724 94.3363 19.8459 94.0551 19.6792C93.779 19.5073 93.4535 19.4214 93.0785 19.4214C92.4796 19.4214 91.9613 19.6115 91.5238 19.9917C91.0915 20.3719 90.8754 21.0933 90.8754 22.1558V26.687H89.4691ZM97.8954 26.687V18.3901H99.161V19.5698C99.7704 18.6584 100.651 18.2026 101.802 18.2026C102.302 18.2026 102.76 18.2938 103.177 18.4761C103.599 18.6532 103.914 18.8875 104.122 19.1792C104.33 19.4709 104.476 19.8172 104.559 20.2183C104.612 20.4787 104.638 20.9344 104.638 21.5854V26.687H103.231V21.6401C103.231 21.0672 103.177 20.6401 103.067 20.3589C102.958 20.0724 102.763 19.8459 102.481 19.6792C102.205 19.5073 101.88 19.4214 101.505 19.4214C100.906 19.4214 100.388 19.6115 99.9501 19.9917C99.5178 20.3719 99.3016 21.0933 99.3016 22.1558V26.687H97.8954ZM112.001 24.0151L113.454 24.1948C113.225 25.0438 112.801 25.7026 112.181 26.1714C111.561 26.6401 110.77 26.8745 109.806 26.8745C108.592 26.8745 107.629 26.5021 106.915 25.7573C106.207 25.0073 105.853 23.9578 105.853 22.6089C105.853 21.2131 106.212 20.1297 106.931 19.3589C107.65 18.5881 108.582 18.2026 109.728 18.2026C110.837 18.2026 111.744 18.5802 112.447 19.3354C113.15 20.0907 113.501 21.1532 113.501 22.5229C113.501 22.6063 113.499 22.7313 113.494 22.8979H107.306C107.358 23.8094 107.616 24.5073 108.079 24.9917C108.543 25.4761 109.121 25.7183 109.814 25.7183C110.329 25.7183 110.77 25.5828 111.134 25.312C111.499 25.0412 111.788 24.6089 112.001 24.0151ZM107.384 21.7417H112.017C111.954 21.0438 111.777 20.5203 111.486 20.1714C111.038 19.6297 110.457 19.3589 109.744 19.3589C109.098 19.3589 108.553 19.575 108.111 20.0073C107.673 20.4396 107.431 21.0177 107.384 21.7417ZM120.162 23.6479L121.545 23.8276C121.394 24.7808 121.006 25.5282 120.381 26.0698C119.761 26.6063 118.998 26.8745 118.092 26.8745C116.956 26.8745 116.042 26.5047 115.349 25.7651C114.662 25.0203 114.318 23.9552 114.318 22.5698C114.318 21.674 114.467 20.8901 114.764 20.2183C115.06 19.5464 115.511 19.0438 116.115 18.7104C116.724 18.3719 117.386 18.2026 118.099 18.2026C119 18.2026 119.737 18.4318 120.31 18.8901C120.883 19.3433 121.25 19.9891 121.412 20.8276L120.045 21.0386C119.915 20.4813 119.683 20.062 119.349 19.7808C119.021 19.4995 118.623 19.3589 118.154 19.3589C117.446 19.3589 116.87 19.6141 116.428 20.1245C115.985 20.6297 115.764 21.4318 115.764 22.5308C115.764 23.6453 115.977 24.4552 116.404 24.9604C116.831 25.4657 117.389 25.7183 118.076 25.7183C118.628 25.7183 119.089 25.549 119.459 25.2104C119.829 24.8719 120.063 24.3511 120.162 23.6479ZM125.338 25.4292L125.541 26.6714C125.145 26.7547 124.791 26.7964 124.479 26.7964C123.968 26.7964 123.573 26.7157 123.291 26.5542C123.01 26.3927 122.812 26.1818 122.698 25.9214C122.583 25.6558 122.526 25.1011 122.526 24.2573V19.4839H121.494V18.3901H122.526V16.3354L123.924 15.4917V18.3901H125.338V19.4839H123.924V24.3354C123.924 24.7365 123.948 24.9943 123.994 25.1089C124.047 25.2235 124.127 25.3146 124.237 25.3823C124.351 25.45 124.513 25.4839 124.721 25.4839C124.877 25.4839 125.083 25.4657 125.338 25.4292ZM131.921 24.0151L133.374 24.1948C133.145 25.0438 132.72 25.7026 132.1 26.1714C131.481 26.6401 130.689 26.8745 129.725 26.8745C128.512 26.8745 127.548 26.5021 126.835 25.7573C126.126 25.0073 125.772 23.9578 125.772 22.6089C125.772 21.2131 126.132 20.1297 126.85 19.3589C127.569 18.5881 128.501 18.2026 129.647 18.2026C130.757 18.2026 131.663 18.5802 132.366 19.3354C133.069 20.0907 133.421 21.1532 133.421 22.5229C133.421 22.6063 133.418 22.7313 133.413 22.8979H127.225C127.277 23.8094 127.535 24.5073 127.999 24.9917C128.462 25.4761 129.04 25.7183 129.733 25.7183C130.249 25.7183 130.689 25.5828 131.054 25.312C131.418 25.0412 131.707 24.6089 131.921 24.0151ZM127.304 21.7417H131.936C131.874 21.0438 131.697 20.5203 131.405 20.1714C130.957 19.6297 130.376 19.3589 129.663 19.3589C129.017 19.3589 128.473 19.575 128.03 20.0073C127.593 20.4396 127.35 21.0177 127.304 21.7417ZM134.652 26.687V18.3901H135.917V19.6479C136.24 19.0594 136.537 18.6714 136.808 18.4839C137.084 18.2964 137.386 18.2026 137.714 18.2026C138.188 18.2026 138.67 18.3537 139.159 18.6558L138.675 19.9604C138.331 19.7573 137.988 19.6558 137.644 19.6558C137.337 19.6558 137.06 19.7495 136.816 19.937C136.571 20.1193 136.396 20.3745 136.292 20.7026C136.136 21.2026 136.058 21.7495 136.058 22.3433V26.687H134.652ZM148.903 25.6636C148.382 26.1063 147.879 26.4188 147.395 26.6011C146.916 26.7834 146.4 26.8745 145.848 26.8745C144.936 26.8745 144.236 26.6532 143.746 26.2104C143.257 25.7625 143.012 25.1922 143.012 24.4995C143.012 24.0933 143.103 23.7235 143.285 23.3901C143.473 23.0516 143.715 22.7808 144.012 22.5776C144.314 22.3745 144.653 22.2209 145.028 22.1167C145.304 22.0438 145.72 21.9735 146.278 21.9058C147.413 21.7703 148.249 21.6089 148.785 21.4214C148.791 21.2287 148.793 21.1063 148.793 21.0542C148.793 20.4813 148.66 20.0776 148.395 19.8433C148.035 19.5256 147.502 19.3667 146.793 19.3667C146.132 19.3667 145.642 19.4839 145.324 19.7183C145.012 19.9474 144.78 20.3563 144.629 20.9448L143.254 20.7573C143.379 20.1688 143.585 19.6948 143.871 19.3354C144.158 18.9709 144.572 18.6922 145.114 18.4995C145.655 18.3016 146.283 18.2026 146.996 18.2026C147.705 18.2026 148.28 18.286 148.723 18.4526C149.166 18.6193 149.491 18.8302 149.699 19.0854C149.908 19.3354 150.054 19.6532 150.137 20.0386C150.184 20.2782 150.207 20.7104 150.207 21.3354V23.2104C150.207 24.5177 150.236 25.3459 150.293 25.6948C150.356 26.0386 150.475 26.3693 150.653 26.687H149.184C149.038 26.3953 148.944 26.0542 148.903 25.6636ZM148.785 22.5229C148.275 22.7313 147.509 22.9084 146.489 23.0542C145.91 23.1375 145.502 23.2313 145.262 23.3354C145.022 23.4396 144.837 23.5933 144.707 23.7964C144.577 23.9943 144.512 24.2157 144.512 24.4604C144.512 24.8354 144.653 25.1479 144.934 25.3979C145.22 25.6479 145.637 25.7729 146.184 25.7729C146.725 25.7729 147.207 25.6558 147.629 25.4214C148.051 25.1818 148.361 24.8563 148.559 24.4448C148.71 24.1271 148.785 23.6584 148.785 23.0386V22.5229ZM154.219 26.687L151.063 18.3901H152.548L154.329 23.3589C154.522 23.8953 154.699 24.4526 154.86 25.0308C154.985 24.5933 155.16 24.0672 155.384 23.4526L157.227 18.3901H158.673L155.532 26.687H154.219ZM165.114 24.0151L166.568 24.1948C166.338 25.0438 165.914 25.7026 165.294 26.1714C164.674 26.6401 163.883 26.8745 162.919 26.8745C161.706 26.8745 160.742 26.5021 160.029 25.7573C159.32 25.0073 158.966 23.9578 158.966 22.6089C158.966 21.2131 159.325 20.1297 160.044 19.3589C160.763 18.5881 161.695 18.2026 162.841 18.2026C163.95 18.2026 164.857 18.5802 165.56 19.3354C166.263 20.0907 166.614 21.1532 166.614 22.5229C166.614 22.6063 166.612 22.7313 166.607 22.8979H160.419C160.471 23.8094 160.729 24.5073 161.193 24.9917C161.656 25.4761 162.234 25.7183 162.927 25.7183C163.443 25.7183 163.883 25.5828 164.247 25.312C164.612 25.0412 164.901 24.6089 165.114 24.0151ZM160.497 21.7417H165.13C165.068 21.0438 164.89 20.5203 164.599 20.1714C164.151 19.6297 163.57 19.3589 162.857 19.3589C162.211 19.3589 161.667 19.575 161.224 20.0073C160.786 20.4396 160.544 21.0177 160.497 21.7417ZM173.275 23.6479L174.658 23.8276C174.507 24.7808 174.119 25.5282 173.494 26.0698C172.874 26.6063 172.111 26.8745 171.205 26.8745C170.069 26.8745 169.155 26.5047 168.463 25.7651C167.775 25.0203 167.431 23.9552 167.431 22.5698C167.431 21.674 167.58 20.8901 167.877 20.2183C168.174 19.5464 168.624 19.0438 169.228 18.7104C169.838 18.3719 170.499 18.2026 171.213 18.2026C172.114 18.2026 172.851 18.4318 173.424 18.8901C173.996 19.3433 174.364 19.9891 174.525 20.8276L173.158 21.0386C173.028 20.4813 172.796 20.062 172.463 19.7808C172.134 19.4995 171.736 19.3589 171.267 19.3589C170.559 19.3589 169.983 19.6141 169.541 20.1245C169.098 20.6297 168.877 21.4318 168.877 22.5308C168.877 23.6453 169.09 24.4552 169.517 24.9604C169.944 25.4657 170.502 25.7183 171.189 25.7183C171.741 25.7183 172.202 25.549 172.572 25.2104C172.942 24.8719 173.176 24.3511 173.275 23.6479ZM179.612 26.687V15.2339H187.339V16.5854H181.128V20.1323H186.503V21.4839H181.128V26.687H179.612ZM194.069 25.6636C193.549 26.1063 193.046 26.4188 192.562 26.6011C192.082 26.7834 191.567 26.8745 191.015 26.8745C190.103 26.8745 189.403 26.6532 188.913 26.2104C188.424 25.7625 188.179 25.1922 188.179 24.4995C188.179 24.0933 188.27 23.7235 188.452 23.3901C188.64 23.0516 188.882 22.7808 189.179 22.5776C189.481 22.3745 189.819 22.2209 190.194 22.1167C190.47 22.0438 190.887 21.9735 191.444 21.9058C192.58 21.7703 193.416 21.6089 193.952 21.4214C193.957 21.2287 193.96 21.1063 193.96 21.0542C193.96 20.4813 193.827 20.0776 193.562 19.8433C193.202 19.5256 192.668 19.3667 191.96 19.3667C191.299 19.3667 190.809 19.4839 190.491 19.7183C190.179 19.9474 189.947 20.3563 189.796 20.9448L188.421 20.7573C188.546 20.1688 188.752 19.6948 189.038 19.3354C189.325 18.9709 189.739 18.6922 190.28 18.4995C190.822 18.3016 191.45 18.2026 192.163 18.2026C192.872 18.2026 193.447 18.286 193.89 18.4526C194.332 18.6193 194.658 18.8302 194.866 19.0854C195.075 19.3354 195.22 19.6532 195.304 20.0386C195.351 20.2782 195.374 20.7104 195.374 21.3354V23.2104C195.374 24.5177 195.403 25.3459 195.46 25.6948C195.523 26.0386 195.642 26.3693 195.819 26.687H194.351C194.205 26.3953 194.111 26.0542 194.069 25.6636ZM193.952 22.5229C193.442 22.7313 192.676 22.9084 191.655 23.0542C191.077 23.1375 190.668 23.2313 190.429 23.3354C190.189 23.4396 190.004 23.5933 189.874 23.7964C189.744 23.9943 189.679 24.2157 189.679 24.4604C189.679 24.8354 189.819 25.1479 190.101 25.3979C190.387 25.6479 190.804 25.7729 191.351 25.7729C191.892 25.7729 192.374 25.6558 192.796 25.4214C193.218 25.1818 193.528 24.8563 193.726 24.4448C193.877 24.1271 193.952 23.6584 193.952 23.0386V22.5229ZM202.496 23.6479L203.879 23.8276C203.727 24.7808 203.339 25.5282 202.714 26.0698C202.095 26.6063 201.332 26.8745 200.425 26.8745C199.29 26.8745 198.376 26.5047 197.683 25.7651C196.996 25.0203 196.652 23.9552 196.652 22.5698C196.652 21.674 196.8 20.8901 197.097 20.2183C197.394 19.5464 197.845 19.0438 198.449 18.7104C199.058 18.3719 199.72 18.2026 200.433 18.2026C201.334 18.2026 202.071 18.4318 202.644 18.8901C203.217 19.3433 203.584 19.9891 203.746 20.8276L202.379 21.0386C202.248 20.4813 202.017 20.062 201.683 19.7808C201.355 19.4995 200.957 19.3589 200.488 19.3589C199.78 19.3589 199.204 19.6141 198.761 20.1245C198.319 20.6297 198.097 21.4318 198.097 22.5308C198.097 23.6453 198.311 24.4552 198.738 24.9604C199.165 25.4657 199.722 25.7183 200.41 25.7183C200.962 25.7183 201.423 25.549 201.793 25.2104C202.162 24.8719 202.397 24.3511 202.496 23.6479ZM210.281 24.0151L211.734 24.1948C211.505 25.0438 211.081 25.7026 210.461 26.1714C209.841 26.6401 209.05 26.8745 208.086 26.8745C206.872 26.8745 205.909 26.5021 205.195 25.7573C204.487 25.0073 204.133 23.9578 204.133 22.6089C204.133 21.2131 204.492 20.1297 205.211 19.3589C205.93 18.5881 206.862 18.2026 208.008 18.2026C209.117 18.2026 210.024 18.5802 210.727 19.3354C211.43 20.0907 211.781 21.1532 211.781 22.5229C211.781 22.6063 211.779 22.7313 211.774 22.8979H205.586C205.638 23.8094 205.896 24.5073 206.359 24.9917C206.823 25.4761 207.401 25.7183 208.094 25.7183C208.609 25.7183 209.05 25.5828 209.414 25.312C209.779 25.0412 210.068 24.6089 210.281 24.0151ZM205.664 21.7417H210.297C210.234 21.0438 210.057 20.5203 209.766 20.1714C209.318 19.6297 208.737 19.3589 208.024 19.3589C207.378 19.3589 206.833 19.575 206.391 20.0073C205.953 20.4396 205.711 21.0177 205.664 21.7417ZM214.325 26.687H213.02V15.2339H214.426V19.3198C215.02 18.575 215.778 18.2026 216.7 18.2026C217.21 18.2026 217.692 18.3068 218.145 18.5151C218.603 18.7183 218.978 19.0073 219.27 19.3823C219.567 19.7521 219.799 20.2 219.965 20.7261C220.132 21.2521 220.215 21.8146 220.215 22.4136C220.215 23.8354 219.864 24.9344 219.161 25.7104C218.458 26.4865 217.614 26.8745 216.629 26.8745C215.65 26.8745 214.882 26.4657 214.325 25.6479V26.687ZM214.309 22.4761C214.309 23.4709 214.445 24.1896 214.715 24.6323C215.158 25.3563 215.757 25.7183 216.512 25.7183C217.127 25.7183 217.658 25.4526 218.106 24.9214C218.554 24.3849 218.778 23.5881 218.778 22.5308C218.778 21.4474 218.562 20.6479 218.129 20.1323C217.702 19.6167 217.184 19.3589 216.575 19.3589C215.96 19.3589 215.429 19.6271 214.981 20.1636C214.533 20.6948 214.309 21.4657 214.309 22.4761ZM220.931 22.5386C220.931 21.0021 221.358 19.8641 222.212 19.1245C222.926 18.5099 223.795 18.2026 224.821 18.2026C225.962 18.2026 226.894 18.5776 227.618 19.3276C228.342 20.0724 228.704 21.1037 228.704 22.4214C228.704 23.4891 228.543 24.3302 228.22 24.9448C227.902 25.5542 227.436 26.0282 226.821 26.3667C226.212 26.7052 225.545 26.8745 224.821 26.8745C223.66 26.8745 222.72 26.5021 222.001 25.7573C221.287 25.0125 220.931 23.9396 220.931 22.5386ZM222.376 22.5386C222.376 23.6011 222.608 24.3979 223.071 24.9292C223.535 25.4552 224.118 25.7183 224.821 25.7183C225.519 25.7183 226.1 25.4526 226.564 24.9214C227.027 24.3901 227.259 23.5802 227.259 22.4917C227.259 21.4657 227.024 20.6896 226.556 20.1636C226.092 19.6323 225.514 19.3667 224.821 19.3667C224.118 19.3667 223.535 19.6297 223.071 20.1558C222.608 20.6818 222.376 21.4761 222.376 22.5386ZM229.357 22.5386C229.357 21.0021 229.784 19.8641 230.638 19.1245C231.352 18.5099 232.222 18.2026 233.248 18.2026C234.388 18.2026 235.32 18.5776 236.044 19.3276C236.768 20.0724 237.13 21.1037 237.13 22.4214C237.13 23.4891 236.969 24.3302 236.646 24.9448C236.328 25.5542 235.862 26.0282 235.248 26.3667C234.638 26.7052 233.972 26.8745 233.248 26.8745C232.086 26.8745 231.146 26.5021 230.427 25.7573C229.714 25.0125 229.357 23.9396 229.357 22.5386ZM230.802 22.5386C230.802 23.6011 231.034 24.3979 231.498 24.9292C231.961 25.4552 232.544 25.7183 233.248 25.7183C233.945 25.7183 234.526 25.4526 234.99 24.9214C235.453 24.3901 235.685 23.5802 235.685 22.4917C235.685 21.4657 235.451 20.6896 234.982 20.1636C234.518 19.6323 233.94 19.3667 233.248 19.3667C232.544 19.3667 231.961 19.6297 231.498 20.1558C231.034 20.6818 230.802 21.4761 230.802 22.5386ZM238.314 26.687V15.2339H239.721V21.7651L243.049 18.3901H244.869L241.697 21.4683L245.189 26.687H243.455L240.713 22.4448L239.721 23.3979V26.687H238.314Z" fill="white"/>
</svg>
