<svg width="33" height="33" viewBox="0 0 33 33" fill="none" xmlns="http://www.w3.org/2000/svg">
<path d="M16.8223 0.805845C7.98624 0.802779 0.819826 8.00746 0.816741 16.8969C0.813953 24.9299 6.66183 31.5901 14.3118 32.805L14.3157 21.5556L10.2513 21.5541L10.2529 16.9002L14.3173 16.9016L14.3185 13.3551C14.3199 9.31771 16.7097 7.09215 20.3629 7.09342C22.1135 7.09403 23.9472 7.40858 23.9472 7.40858L23.9458 11.3671L21.9232 11.3664C19.939 11.3657 19.3177 12.6083 19.3172 13.8817L19.3162 16.9001L23.7502 16.9016L23.0398 21.5554L19.3146 21.5541L19.3107 32.8035C26.9615 31.6004 32.814 24.9426 32.8167 16.908C32.8198 8.01856 25.6584 0.808911 16.8223 0.805845Z" fill="#D6D6E8"/>
</svg>
