<svg width="22" height="23" viewBox="0 0 22 23" fill="none" xmlns="http://www.w3.org/2000/svg">
<path fill-rule="evenodd" clip-rule="evenodd" d="M2.54883 22.2067V8.76294H4.11663V22.2067H2.54883Z" fill="#4048FF"/>
<path fill-rule="evenodd" clip-rule="evenodd" d="M2.54883 3.49897V0.206787H4.11663V3.49897H2.54883Z" fill="#4048FF"/>
<path fill-rule="evenodd" clip-rule="evenodd" d="M3.33489 7.7233C4.14119 7.7233 4.79484 7.06966 4.79484 6.26335C4.79484 5.45704 4.14119 4.8034 3.33489 4.8034C2.52858 4.8034 1.87493 5.45704 1.87493 6.26335C1.87493 7.06966 2.52858 7.7233 3.33489 7.7233ZM3.33489 9.29111C5.00707 9.29111 6.36264 7.93554 6.36264 6.26335C6.36264 4.59117 5.00707 3.2356 3.33489 3.2356C1.6627 3.2356 0.307129 4.59117 0.307129 6.26335C0.307129 7.93554 1.6627 9.29111 3.33489 9.29111Z" fill="#4048FF"/>
<path fill-rule="evenodd" clip-rule="evenodd" d="M10.0981 12.539V0.206787H11.666V12.539H10.0981Z" fill="#4048FF"/>
<path fill-rule="evenodd" clip-rule="evenodd" d="M10.0981 22.2056V17.4426H11.666V22.2056H10.0981Z" fill="#4048FF"/>
<path fill-rule="evenodd" clip-rule="evenodd" d="M10.8842 16.4489C11.6905 16.4489 12.3442 15.7952 12.3442 14.9889C12.3442 14.1826 11.6905 13.529 10.8842 13.529C10.0779 13.529 9.42425 14.1826 9.42425 14.9889C9.42425 15.7952 10.0779 16.4489 10.8842 16.4489ZM10.8842 18.0167C12.5564 18.0167 13.912 16.6611 13.912 14.9889C13.912 13.3168 12.5564 11.9612 10.8842 11.9612C9.21202 11.9612 7.85645 13.3168 7.85645 14.9889C7.85645 16.6611 9.21202 18.0167 10.8842 18.0167Z" fill="#4048FF"/>
<path fill-rule="evenodd" clip-rule="evenodd" d="M17.647 22.2068V8.76294H19.2148V22.2068H17.647Z" fill="#4048FF"/>
<path fill-rule="evenodd" clip-rule="evenodd" d="M17.647 3.49897V0.206787H19.2148V3.49897H17.647Z" fill="#4048FF"/>
<path fill-rule="evenodd" clip-rule="evenodd" d="M18.4311 7.7233C19.2374 7.7233 19.891 7.06966 19.891 6.26335C19.891 5.45704 19.2374 4.8034 18.4311 4.8034C17.6248 4.8034 16.9711 5.45704 16.9711 6.26335C16.9711 7.06966 17.6248 7.7233 18.4311 7.7233ZM18.4311 9.29111C20.1033 9.29111 21.4588 7.93554 21.4588 6.26335C21.4588 4.59117 20.1033 3.2356 18.4311 3.2356C16.7589 3.2356 15.4033 4.59117 15.4033 6.26335C15.4033 7.93554 16.7589 9.29111 18.4311 9.29111Z" fill="#4048FF"/>
</svg>
