<svg width="22" height="23" viewBox="0 0 22 23" fill="none" xmlns="http://www.w3.org/2000/svg">
<path fill-rule="evenodd" clip-rule="evenodd" d="M2.77051 22.5111V9.06738H4.33831V22.5111H2.77051Z" fill="#4048FF"/>
<path fill-rule="evenodd" clip-rule="evenodd" d="M2.77051 3.80292V0.510742H4.33831V3.80292H2.77051Z" fill="#4048FF"/>
<path fill-rule="evenodd" clip-rule="evenodd" d="M3.55657 8.02677C4.36287 8.02677 5.01652 7.37313 5.01652 6.56682C5.01652 5.76051 4.36287 5.10687 3.55657 5.10687C2.75026 5.10687 2.09661 5.76051 2.09661 6.56682C2.09661 7.37313 2.75026 8.02677 3.55657 8.02677ZM3.55657 9.59458C5.22875 9.59458 6.58432 8.239 6.58432 6.56682C6.58432 4.89464 5.22875 3.53906 3.55657 3.53906C1.88438 3.53906 0.528809 4.89464 0.528809 6.56682C0.528809 8.239 1.88438 9.59458 3.55657 9.59458Z" fill="#4048FF"/>
<path fill-rule="evenodd" clip-rule="evenodd" d="M10.3198 12.843V0.510742H11.8876V12.843H10.3198Z" fill="#4048FF"/>
<path fill-rule="evenodd" clip-rule="evenodd" d="M10.3198 22.5101V17.7471H11.8876V22.5101H10.3198Z" fill="#4048FF"/>
<path fill-rule="evenodd" clip-rule="evenodd" d="M11.1059 16.7533C11.9122 16.7533 12.5658 16.0997 12.5658 15.2934C12.5658 14.4871 11.9122 13.8334 11.1059 13.8334C10.2996 13.8334 9.64593 14.4871 9.64593 15.2934C9.64593 16.0997 10.2996 16.7533 11.1059 16.7533ZM11.1059 18.3211C12.7781 18.3211 14.1336 16.9656 14.1336 15.2934C14.1336 13.6212 12.7781 12.2656 11.1059 12.2656C9.4337 12.2656 8.07812 13.6212 8.07812 15.2934C8.07812 16.9656 9.4337 18.3211 11.1059 18.3211Z" fill="#4048FF"/>
<path fill-rule="evenodd" clip-rule="evenodd" d="M17.8687 22.5112V9.06738H19.4365V22.5112H17.8687Z" fill="#4048FF"/>
<path fill-rule="evenodd" clip-rule="evenodd" d="M17.8687 3.80292V0.510742H19.4365V3.80292H17.8687Z" fill="#4048FF"/>
<path fill-rule="evenodd" clip-rule="evenodd" d="M18.6528 8.02677C19.4591 8.02677 20.1127 7.37313 20.1127 6.56682C20.1127 5.76051 19.4591 5.10687 18.6528 5.10687C17.8464 5.10687 17.1928 5.76051 17.1928 6.56682C17.1928 7.37313 17.8464 8.02677 18.6528 8.02677ZM18.6528 9.59458C20.3249 9.59458 21.6805 8.239 21.6805 6.56682C21.6805 4.89464 20.3249 3.53906 18.6528 3.53906C16.9806 3.53906 15.625 4.89464 15.625 6.56682C15.625 8.239 16.9806 9.59458 18.6528 9.59458Z" fill="#4048FF"/>
</svg>
