<svg width="22" height="23" viewBox="0 0 22 23" fill="none" xmlns="http://www.w3.org/2000/svg">
<path fill-rule="evenodd" clip-rule="evenodd" d="M2.26074 22.2067V8.76294H3.82855V22.2067H2.26074Z" fill="white"/>
<path fill-rule="evenodd" clip-rule="evenodd" d="M2.26074 3.49897V0.206787H3.82855V3.49897H2.26074Z" fill="white"/>
<path fill-rule="evenodd" clip-rule="evenodd" d="M3.0468 7.7233C3.85311 7.7233 4.50675 7.06966 4.50675 6.26335C4.50675 5.45704 3.85311 4.8034 3.0468 4.8034C2.24049 4.8034 1.58685 5.45704 1.58685 6.26335C1.58685 7.06966 2.24049 7.7233 3.0468 7.7233ZM3.0468 9.29111C4.71898 9.29111 6.07456 7.93554 6.07456 6.26335C6.07456 4.59117 4.71898 3.2356 3.0468 3.2356C1.37462 3.2356 0.019043 4.59117 0.019043 6.26335C0.019043 7.93554 1.37462 9.29111 3.0468 9.29111Z" fill="white"/>
<path fill-rule="evenodd" clip-rule="evenodd" d="M9.81006 12.539V0.206787H11.3779V12.539H9.81006Z" fill="white"/>
<path fill-rule="evenodd" clip-rule="evenodd" d="M9.81006 22.2056V17.4426H11.3779V22.2056H9.81006Z" fill="white"/>
<path fill-rule="evenodd" clip-rule="evenodd" d="M10.5961 16.4489C11.4024 16.4489 12.0561 15.7952 12.0561 14.9889C12.0561 14.1826 11.4024 13.529 10.5961 13.529C9.78981 13.529 9.13617 14.1826 9.13617 14.9889C9.13617 15.7952 9.78981 16.4489 10.5961 16.4489ZM10.5961 18.0167C12.2683 18.0167 13.6239 16.6611 13.6239 14.9889C13.6239 13.3168 12.2683 11.9612 10.5961 11.9612C8.92393 11.9612 7.56836 13.3168 7.56836 14.9889C7.56836 16.6611 8.92393 18.0167 10.5961 18.0167Z" fill="white"/>
<path fill-rule="evenodd" clip-rule="evenodd" d="M17.3589 22.2068V8.76294H18.9267V22.2068H17.3589Z" fill="white"/>
<path fill-rule="evenodd" clip-rule="evenodd" d="M17.3589 3.49897V0.206787H18.9267V3.49897H17.3589Z" fill="white"/>
<path fill-rule="evenodd" clip-rule="evenodd" d="M18.143 7.7233C18.9493 7.7233 19.6029 7.06966 19.6029 6.26335C19.6029 5.45704 18.9493 4.8034 18.143 4.8034C17.3367 4.8034 16.683 5.45704 16.683 6.26335C16.683 7.06966 17.3367 7.7233 18.143 7.7233ZM18.143 9.29111C19.8152 9.29111 21.1707 7.93554 21.1707 6.26335C21.1707 4.59117 19.8152 3.2356 18.143 3.2356C16.4708 3.2356 15.1152 4.59117 15.1152 6.26335C15.1152 7.93554 16.4708 9.29111 18.143 9.29111Z" fill="white"/>
</svg>
