<svg width="56" height="56" viewBox="0 0 56 56" fill="none" xmlns="http://www.w3.org/2000/svg">
<g filter="url(#filter0_d)">
<rect x="3.14339" y="1.46736" width="49.4788" height="49.4788" rx="24.7394" fill="#4048FF" stroke="white" stroke-width="1.47884"/>
</g>
<path d="M40.9937 22.5456L35.5927 17.1447C35.4668 17.0188 35.3174 16.9189 35.1529 16.8508C34.9884 16.7826 34.8121 16.7476 34.634 16.7476C34.2745 16.7476 33.9296 16.8904 33.6754 17.1447C33.4211 17.3989 33.2783 17.7438 33.2783 18.1033C33.2783 18.4629 33.4211 18.8077 33.6754 19.062L36.7809 22.1541H21.1316C20.7735 22.1541 20.43 22.2963 20.1768 22.5495C19.9236 22.8028 19.7813 23.1462 19.7813 23.5043C19.7813 23.8624 19.9236 24.2059 20.1768 24.4591C20.43 24.7123 20.7735 24.8546 21.1316 24.8546H40.035C40.3016 24.8532 40.5618 24.773 40.7829 24.624C41.0039 24.4751 41.1759 24.264 41.2772 24.0174C41.3806 23.7715 41.4089 23.5005 41.3584 23.2386C41.308 22.9766 41.181 22.7355 40.9937 22.5456ZM34.634 27.555H15.7306C15.464 27.5564 15.2038 27.6366 14.9828 27.7856C14.7617 27.9345 14.5897 28.1456 14.4884 28.3922C14.385 28.6381 14.3567 28.9091 14.4072 29.171C14.4577 29.433 14.5846 29.6741 14.7719 29.864L20.1729 35.2649C20.2984 35.3915 20.4478 35.492 20.6123 35.5605C20.7769 35.6291 20.9533 35.6643 21.1316 35.6643C21.3098 35.6643 21.4863 35.6291 21.6509 35.5605C21.8154 35.492 21.9647 35.3915 22.0903 35.2649C22.2168 35.1394 22.3173 34.9901 22.3858 34.8255C22.4544 34.661 22.4897 34.4845 22.4897 34.3063C22.4897 34.128 22.4544 33.9515 22.3858 33.787C22.3173 33.6225 22.2168 33.4731 22.0903 33.3476L18.9847 30.2555H34.634C34.9921 30.2555 35.3356 30.1133 35.5888 29.8601C35.842 29.6068 35.9843 29.2634 35.9843 28.9053C35.9843 28.5472 35.842 28.2037 35.5888 27.9505C35.3356 27.6973 34.9921 27.555 34.634 27.555Z" fill="white"/>
<defs>
<filter id="filter0_d" x="0.403809" y="0.727905" width="54.9577" height="54.9577" filterUnits="userSpaceOnUse" color-interpolation-filters="sRGB">
<feFlood flood-opacity="0" result="BackgroundImageFix"/>
<feColorMatrix in="SourceAlpha" type="matrix" values="0 0 0 0 0 0 0 0 0 0 0 0 0 0 0 0 0 0 127 0"/>
<feOffset dy="2"/>
<feGaussianBlur stdDeviation="1"/>
<feColorMatrix type="matrix" values="0 0 0 0 0 0 0 0 0 0 0 0 0 0 0 0 0 0 0.15 0"/>
<feBlend mode="normal" in2="BackgroundImageFix" result="effect1_dropShadow"/>
<feBlend mode="normal" in="SourceGraphic" in2="effect1_dropShadow" result="shape"/>
</filter>
</defs>
</svg>
