<svg width="56" height="56" viewBox="0 0 56 56" fill="none" xmlns="http://www.w3.org/2000/svg">
<g filter="url(#filter0_d)">
<rect x="3.88281" y="2.20679" width="48" height="48" rx="24" fill="white"/>
<rect x="3.14339" y="1.46736" width="49.4788" height="49.4788" rx="24.7394" stroke="#4048FF" stroke-opacity="0.2" stroke-width="1.47884"/>
</g>
<path d="M40.9937 22.5464L35.5927 17.1454C35.4668 17.0195 35.3174 16.9196 35.1529 16.8515C34.9884 16.7834 34.8121 16.7483 34.634 16.7483C34.2745 16.7483 33.9296 16.8911 33.6754 17.1454C33.4211 17.3996 33.2783 17.7445 33.2783 18.1041C33.2783 18.4636 33.4211 18.8085 33.6754 19.0627L36.7809 22.1548H21.1316C20.7735 22.1548 20.43 22.2971 20.1768 22.5503C19.9236 22.8035 19.7813 23.1469 19.7813 23.505C19.7813 23.8631 19.9236 24.2066 20.1768 24.4598C20.43 24.713 20.7735 24.8553 21.1316 24.8553H40.035C40.3016 24.854 40.5618 24.7737 40.7829 24.6248C41.0039 24.4758 41.1759 24.2647 41.2772 24.0181C41.3806 23.7722 41.4089 23.5012 41.3584 23.2393C41.308 22.9774 41.181 22.7362 40.9937 22.5464ZM34.634 27.5558H15.7306C15.464 27.5571 15.2038 27.6373 14.9828 27.7863C14.7617 27.9353 14.5897 28.1463 14.4884 28.3929C14.385 28.6388 14.3567 28.9098 14.4072 29.1718C14.4577 29.4337 14.5846 29.6748 14.7719 29.8647L20.1729 35.2657C20.2984 35.3922 20.4478 35.4927 20.6123 35.5612C20.7769 35.6298 20.9533 35.6651 21.1316 35.6651C21.3098 35.6651 21.4863 35.6298 21.6509 35.5612C21.8154 35.4927 21.9647 35.3922 22.0903 35.2657C22.2168 35.1402 22.3173 34.9908 22.3858 34.8263C22.4544 34.6617 22.4897 34.4853 22.4897 34.307C22.4897 34.1288 22.4544 33.9523 22.3858 33.7877C22.3173 33.6232 22.2168 33.4739 22.0903 33.3483L18.9847 30.2563H34.634C34.9921 30.2563 35.3356 30.114 35.5888 29.8608C35.842 29.6076 35.9843 29.2641 35.9843 28.906C35.9843 28.5479 35.842 28.2045 35.5888 27.9513C35.3356 27.698 34.9921 27.5558 34.634 27.5558Z" fill="#4048FF"/>
<defs>
<filter id="filter0_d" x="0.403809" y="0.727905" width="54.9577" height="54.9577" filterUnits="userSpaceOnUse" color-interpolation-filters="sRGB">
<feFlood flood-opacity="0" result="BackgroundImageFix"/>
<feColorMatrix in="SourceAlpha" type="matrix" values="0 0 0 0 0 0 0 0 0 0 0 0 0 0 0 0 0 0 127 0"/>
<feOffset dy="2"/>
<feGaussianBlur stdDeviation="1"/>
<feColorMatrix type="matrix" values="0 0 0 0 0 0 0 0 0 0 0 0 0 0 0 0 0 0 0.15 0"/>
<feBlend mode="normal" in2="BackgroundImageFix" result="effect1_dropShadow"/>
<feBlend mode="normal" in="SourceGraphic" in2="effect1_dropShadow" result="shape"/>
</filter>
</defs>
</svg>
