<svg width="47" height="19" viewBox="0 0 47 19" fill="none" xmlns="http://www.w3.org/2000/svg">
<path fill-rule="evenodd" clip-rule="evenodd" d="M36.9919 18.5584C36.724 18.2756 36.5734 17.8921 36.5734 17.4922C36.5734 17.0922 36.724 16.7087 36.9919 16.4259L43.547 9.50943L36.9919 2.59297C36.8554 2.45385 36.7465 2.28743 36.6716 2.10343C36.5967 1.91943 36.5573 1.72152 36.5556 1.52127C36.554 1.32102 36.5901 1.12242 36.662 0.937076C36.7339 0.751728 36.84 0.583335 36.9742 0.441729C37.1084 0.300123 37.268 0.188141 37.4437 0.112309C37.6193 0.0364767 37.8075 -0.00168376 37.9973 5.63808e-05C38.1871 0.00179652 38.3747 0.0434001 38.5491 0.122442C38.7235 0.201483 38.8812 0.316381 39.013 0.460426L46.5801 8.44164C46.7132 8.58174 46.8188 8.74817 46.8908 8.9314C46.9629 9.11462 47 9.31105 47 9.50943C47 9.7078 46.9629 9.90423 46.8908 10.0875C46.8188 10.2707 46.7132 10.4371 46.5801 10.5772L39.013 18.5584C38.745 18.8412 38.3815 19 38.0025 19C37.6235 19 37.26 18.8412 36.9919 18.5584Z" fill="#ADADC8"/>
<path fill-rule="evenodd" clip-rule="evenodd" d="M-4.15258e-07 9.5C-4.40674e-07 8.91856 0.14519 8.36094 0.403632 7.9498C0.662073 7.53866 1.0126 7.30769 1.37809 7.30769L43.0108 7.30769C43.3763 7.30769 43.7268 7.53866 43.9853 7.9498C44.2437 8.36094 44.3889 8.91856 44.3889 9.5C44.3889 10.0814 44.2437 10.6391 43.9853 11.0502C43.7268 11.4613 43.3763 11.6923 43.0108 11.6923L1.37809 11.6923C1.0126 11.6923 0.662073 11.4613 0.403632 11.0502C0.14519 10.6391 -3.89843e-07 10.0814 -4.15258e-07 9.5Z" fill="#ADADC8"/>
</svg>
