<svg width="49" height="19" viewBox="0 0 49 19" fill="none" xmlns="http://www.w3.org/2000/svg">
<path fill-rule="evenodd" clip-rule="evenodd" d="M10.434 0.441572C10.7133 0.724395 10.8703 1.10793 10.8703 1.50785C10.8703 1.90776 10.7133 2.2913 10.434 2.57412L3.59996 9.49057L10.434 16.407C10.5763 16.5462 10.6898 16.7126 10.7679 16.8966C10.846 17.0806 10.8871 17.2785 10.8888 17.4787C10.8905 17.679 10.8528 17.8776 10.7779 18.0629C10.703 18.2483 10.5923 18.4167 10.4524 18.5583C10.3125 18.6999 10.1461 18.8119 9.96299 18.8877C9.77985 18.9635 9.58362 19.0017 9.38575 18.9999C9.18789 18.9982 8.99234 18.9566 8.81054 18.8776C8.62873 18.7985 8.4643 18.6836 8.32683 18.5396L0.437796 10.5584C0.299021 10.4183 0.188918 10.2518 0.113794 10.0686C0.0386691 9.88538 -1.79181e-06 9.68895 -1.79417e-06 9.49057C-1.79654e-06 9.2922 0.0386691 9.09577 0.113794 8.91254C0.188918 8.72931 0.299021 8.56289 0.437796 8.42279L8.32683 0.441572C8.60628 0.158834 8.98525 4.77171e-07 9.38039 4.72459e-07C9.77554 4.67747e-07 10.1545 0.158834 10.434 0.441572Z" fill="#ADADC8"/>
<path fill-rule="evenodd" clip-rule="evenodd" d="M49 9.5C49 10.0814 48.8486 10.6391 48.5792 11.0502C48.3098 11.4613 47.9443 11.6923 47.5633 11.6923L4.15895 11.6923C3.7779 11.6923 3.41246 11.4613 3.14303 11.0502C2.87359 10.6391 2.72222 10.0814 2.72222 9.5C2.72222 8.91857 2.87359 8.36095 3.14303 7.94981C3.41246 7.53867 3.7779 7.3077 4.15895 7.3077L47.5633 7.3077C47.9443 7.3077 48.3098 7.53867 48.5792 7.94981C48.8486 8.36095 49 8.91857 49 9.5Z" fill="#ADADC8"/>
</svg>
