<svg width="104" height="37" viewBox="0 0 104 37" fill="none" xmlns="http://www.w3.org/2000/svg">
<path d="M11.8926 28.9964H9.84963C9.61063 28.9964 9.50963 28.8944 9.50963 28.6554V28.2124C9.50963 27.9774 9.37462 27.8044 9.20262 27.8044C9.10062 27.8044 9.03262 27.8714 8.93162 27.9414C7.97762 28.7214 6.92463 28.9974 6.24263 28.9974H4.91663C2.39762 28.9974 0.390625 27.2964 0.390625 24.7424V24.5384C0.390625 21.9494 2.39863 20.3174 4.91663 20.3174H8.82963C9.06663 20.3174 9.17062 20.2134 9.17062 19.9774V19.0234C9.17062 17.3214 7.80963 16.0294 6.07463 16.0294C5.05163 16.0294 3.99763 16.6064 3.24763 17.9344C3.18063 18.0704 3.07663 18.1374 2.97663 18.1374C2.87263 18.1374 2.60162 17.9664 2.39762 17.8664L0.695625 16.9814C0.558625 16.9124 0.492625 16.8114 0.492625 16.7094C0.492625 16.5734 0.832625 15.9934 1.17263 15.5534C2.15863 14.2254 3.58862 13.3384 6.07463 13.3384C9.81663 13.3384 12.2346 15.6174 12.2346 19.0234V28.6564C12.2346 28.8954 12.1286 28.9964 11.8926 28.9964ZM9.16963 23.0384C9.16963 22.8014 9.06563 22.6974 8.82863 22.6974H4.91563C4.06363 22.6974 3.41763 23.3444 3.41763 24.1964V24.7414C3.41763 25.5944 4.06363 26.2724 4.91563 26.2724H6.24162C7.60262 26.2724 8.93062 25.0464 9.16963 23.7884V23.0384Z" fill="#1F2337"/>
<path d="M22.7208 29.3033C22.1758 29.3033 21.1898 29.1343 20.3728 28.7933C18.1938 27.9073 16.9348 25.9993 16.9348 23.5513V16.7433C16.9348 16.5043 16.8308 16.4033 16.5928 16.4033H14.7208C14.4838 16.4033 14.3818 16.2993 14.3818 16.0953C14.3818 15.9243 14.4138 15.4143 14.4478 14.8693L18.1928 10.8893C18.3638 10.7173 18.4988 10.6143 18.6688 10.6143H19.6548C19.8928 10.6143 19.9978 10.7183 19.9978 10.9563V13.3383C19.9978 13.5763 20.0988 13.6803 20.3368 13.6803H22.7198C22.9568 13.6803 23.0618 13.7823 23.0618 14.0213V16.0623C23.0618 16.2993 22.9578 16.4043 22.7198 16.4043H20.3368C20.0988 16.4043 19.9978 16.5053 19.9978 16.7443V23.5523C19.9978 25.0143 21.0848 26.3093 22.7858 26.5813C22.9568 26.6153 23.0608 26.7163 23.0608 26.9203V28.9633C23.0628 29.1983 22.9238 29.3033 22.7208 29.3033Z" fill="#1F2337"/>
<path d="M36.7457 28.9964H34.7037C34.4647 28.9964 34.3627 28.8944 34.3627 28.6554V28.2124C34.3627 27.9774 34.2277 27.8044 34.0567 27.8044C33.9527 27.8044 33.8867 27.8714 33.7857 27.9414C32.8317 28.7214 31.7777 28.9974 31.0967 28.9974H29.7687C27.2487 28.9974 25.2417 27.2964 25.2417 24.7424V24.5384C25.2417 21.9494 27.2497 20.3174 29.7687 20.3174H33.6827C33.9207 20.3174 34.0247 20.2134 34.0247 19.9774V19.0234C34.0247 17.3214 32.6617 16.0294 30.9257 16.0294C29.9037 16.0294 28.8507 16.6064 28.1007 17.9344C28.0347 18.0704 27.9307 18.1374 27.8297 18.1374C27.7257 18.1374 27.4527 17.9664 27.2497 17.8664L25.5487 16.9814C25.4127 16.9124 25.3447 16.8104 25.3447 16.7094C25.3447 16.5734 25.6857 15.9934 26.0277 15.5534C27.0137 14.2254 28.4417 13.3384 30.9267 13.3384C34.6717 13.3384 37.0897 15.6174 37.0897 19.0234V28.6564C37.0877 28.8954 36.9827 28.9964 36.7457 28.9964ZM34.0237 23.0384C34.0237 22.8014 33.9197 22.6974 33.6817 22.6974H29.7677C28.9177 22.6974 28.2697 23.3444 28.2697 24.1964V24.7414C28.2697 25.5944 28.9177 26.2724 29.7677 26.2724H31.0957C32.4547 26.2724 33.7847 25.0464 34.0237 23.7884V23.0384Z" fill="#1F2337"/>
<path d="M46.6197 36.9961C44.3057 36.9961 42.8427 36.1771 41.8897 35.0901C41.3447 34.4781 40.9367 33.7601 40.9367 33.5561C40.9367 33.4541 41.0047 33.3541 41.1417 33.2831L42.9117 32.4011C43.1157 32.2971 43.3547 32.1611 43.4567 32.1611C43.5937 32.1611 43.6947 32.2291 43.7617 32.3661C44.3767 33.6271 45.4647 34.2721 46.6207 34.2721C48.2887 34.2721 49.6847 32.8761 49.6847 31.2071V28.3831C49.6847 28.1461 49.5487 27.9781 49.3777 27.9781C49.2407 27.9781 49.1727 28.0091 49.0727 28.1141C48.3907 28.7221 47.4687 28.9981 46.6197 28.9981C42.8757 28.9981 40.4937 26.6161 40.4937 23.2131V14.0231C40.4937 13.7841 40.5947 13.6821 40.8347 13.6821H43.2167C43.4557 13.6821 43.5577 13.7841 43.5577 14.0231V23.2131C43.5577 24.8801 44.9527 26.2751 46.6207 26.2751C48.2887 26.2751 49.6847 24.8801 49.6847 23.2131V14.0231C49.6847 13.7841 49.7867 13.6821 50.0247 13.6821H52.4077C52.6437 13.6821 52.7477 13.7841 52.7477 14.0231V30.8701C52.7467 34.4071 50.6697 36.9961 46.6197 36.9961Z" fill="#1F2337"/>
<path d="M67.9975 21.8484H59.4895C59.2515 21.8484 59.1475 21.9494 59.1475 22.1894V23.5514C59.1475 25.2174 60.5435 26.6144 62.2115 26.6144C63.3675 26.6144 64.4245 25.9334 65.0685 24.6384C65.1375 24.5034 65.2405 24.4354 65.3415 24.4354C65.4425 24.4354 65.5465 24.5034 65.7515 24.6054L67.6895 25.5934C67.8255 25.6594 67.8945 25.7614 67.8945 25.8644C67.8945 26.0324 67.4845 26.7484 66.9085 27.4284C65.9565 28.5184 64.5255 29.3334 62.2115 29.3334C58.4665 29.3334 56.0845 26.9514 56.0845 23.5494V19.1254C56.0845 16.4014 58.4665 13.3364 62.2115 13.3364C65.9565 13.3364 68.3365 16.4014 68.3365 19.1254V21.5064C68.3375 21.7474 68.2365 21.8484 67.9975 21.8484ZM62.2125 16.0624C60.5445 16.0624 59.1485 17.4574 59.1485 19.1274C59.1485 19.3634 59.2525 19.4654 59.4905 19.4654H64.9355C65.1745 19.4654 65.2755 19.3634 65.2755 19.1274C65.2755 17.4564 63.8795 16.0624 62.2125 16.0624Z" fill="#1F2337"/>
<path d="M83.4198 28.9962H81.0368C80.7988 28.9962 80.6988 28.8942 80.6988 28.6552V19.4652C80.6988 17.7972 79.3008 16.4032 77.6348 16.4032C75.9668 16.4032 74.5718 17.7972 74.5718 19.4652V28.6552C74.5718 28.8942 74.4678 28.9962 74.2308 28.9962H71.8488C71.6088 28.9962 71.5078 28.8942 71.5078 28.6552V14.0212C71.5078 13.7822 71.6088 13.6802 71.8488 13.6802H73.8898C74.1278 13.6802 74.2308 13.7822 74.2308 14.0212V14.4292C74.2308 14.6692 74.3338 14.8362 74.5028 14.8362C74.6028 14.8362 74.6728 14.7702 74.7738 14.6992C75.5568 14.0532 76.7818 13.6792 77.6328 13.6792C81.3778 13.6792 83.7598 16.0612 83.7598 19.4642V28.6542C83.7618 28.8952 83.6608 28.9962 83.4198 28.9962Z" fill="#1F2337"/>
<path d="M90.1604 13.7564V5.31836H87.1714V16.7454H98.6014V13.7564H90.1604Z" fill="#1F2337"/>
<path d="M100.169 3.74825L100.167 12.1873H103.157L103.158 0.760254H91.7295V3.74825H100.169Z" fill="#1F2337"/>
<path d="M96.6732 7.24316H93.6582V10.2602H96.6732V7.24316Z" fill="#1F2337"/>
</svg>
