<svg width="106" height="81" viewBox="0 0 106 81" fill="none" xmlns="http://www.w3.org/2000/svg">
<ellipse cx="53.3102" cy="43.4236" rx="25.6798" ry="25.1841" fill="url(#paint0_linear)"/>
<mask id="mask0" mask-type="alpha" maskUnits="userSpaceOnUse" x="14" y="5" width="73" height="64">
<path d="M81.9277 37.063C81.9277 54.4846 69.1151 68.6077 53.3099 68.6077C37.5048 68.6077 24.6922 54.4846 24.6922 37.063C-3.89718 24.04 37.5048 5.51843 53.3099 5.51843C69.1151 5.51843 97.9558 12.4916 81.9277 37.063Z" fill="#C4C4C4"/>
</mask>
<g mask="url(#mask0)">
<ellipse cx="28.3992" cy="23.1438" rx="3.63164" ry="3.16575" fill="white"/>
<ellipse cx="23.2972" cy="30.8542" rx="3.63164" ry="3.16575" fill="white"/>
<path d="M29.279 27.6884C27.9201 27.1369 27.6584 26.0033 27.6975 25.5055H28.9275C27.8497 26.1029 28.7128 27.2097 29.279 27.6884Z" fill="white"/>
<path d="M28.2101 31.8202C26.7922 32.2031 25.876 31.4658 25.5951 31.0493L26.5661 30.3088C26.0893 31.4292 27.4634 31.7833 28.2101 31.8202Z" fill="white"/>
<path d="M29.7124 22.5353C29.5853 22.1341 29.1507 21.9098 28.7415 22.0344C28.4958 22.1093 28.316 22.2932 28.2385 22.5148C28.0464 22.3752 27.7921 22.3236 27.5463 22.3984C27.1372 22.523 26.9087 22.9492 27.0357 23.3505C27.1111 23.5885 27.295 23.7634 27.5172 23.841L27.5174 23.8415L28.81 24.3197L29.5989 23.2076L29.5987 23.2071C29.7373 23.0198 29.7878 22.7734 29.7124 22.5353Z" fill="#DE2D6A"/>
<path d="M68.2289 50.1964H56.825C56.117 53.523 53.0519 81.4342 52.8926 84.2736H54.8263L62.0286 57.0306C62.1275 57.7888 63.5538 82.8346 63.6484 83.2818L65.709 82.5846L68.2289 50.1964Z" fill="#00161D"/>
<path d="M72.7302 42.9368C69.7812 40.7052 67.0231 37.7232 64.6902 34.5791C62.9046 32.2338 63.7064 31.026 65.5004 30.3706C66.6282 30.4537 67.5839 30.8248 68.4629 31.9243C70.9953 35.0916 72.0931 36.9414 74.0186 40.1179L72.7302 42.9368Z" fill="#F62054"/>
<path d="M75.6193 32.3937L74.729 32.0463L73.7974 34.3691L75.4845 35.1128C75.5833 34.0681 75.6116 33.1116 75.6193 32.3937Z" fill="#E3E3E3"/>
<path d="M73.7964 34.3693L71.8062 39.3319L73.1808 41.8004C74.6835 40.256 75.6509 37.505 75.8729 35.1571L73.7964 34.3693Z" fill="#F62054"/>
<path d="M76.4587 33.6668L75.8464 33.8809C75.5618 33.9804 75.2451 33.9154 75.023 33.7146C73.8743 32.6755 72.6962 30.4232 72.23 29.0604L74.8318 28.1507C75.1933 29.2938 76.1413 31.3879 76.8649 32.3628C77.2066 32.8232 77.0055 33.4755 76.4587 33.6668Z" fill="#000342"/>
<path d="M74.1791 28.379L71.9712 29.151C70.7518 29.5774 69.4108 28.9536 68.9761 27.7577C68.5414 26.5619 69.1775 25.2468 70.3969 24.8205L72.6047 24.0485L74.1791 28.379Z" fill="url(#paint1_linear)"/>
<path d="M72.2836 24.2736C71.8604 24.5004 71.8455 25.5351 72.2389 26.6172C72.6322 27.6994 73.3114 28.4914 73.785 28.4033C73.7853 28.4045 84.1874 28.4373 84.1874 28.4373L80.3182 17.7944L72.2836 24.2736Z" fill="#F62054"/>
<path d="M80.2119 17.1301C79.0471 17.5373 79.0702 20.5284 80.2634 23.8108C81.4567 27.0932 83.3683 29.4239 84.533 29.0167C85.6978 28.6094 85.6748 25.6184 84.4815 22.336C83.2883 19.0536 81.3767 16.7228 80.2119 17.1301Z" fill="#000342"/>
<path d="M80.2631 23.8112C80.5237 24.5284 80.8188 25.2 81.1328 25.8077L83.5059 24.5366L82.3066 21.2375L79.6489 21.7255C79.7976 22.3909 80.0024 23.0941 80.2631 23.8112Z" fill="url(#paint2_linear)"/>
<path d="M82.3086 21.2398C81.9854 21.3528 81.9917 22.1829 82.3229 23.0939C82.6541 24.0049 83.1846 24.6517 83.5079 24.5387C83.8312 24.4257 83.8248 23.5956 83.4936 22.6846C83.1625 21.7736 82.6319 21.1267 82.3086 21.2398Z" fill="#F62054"/>
<path d="M84.6292 29.2792C83.9434 29.5189 83.0766 29.0548 82.1889 27.9722C81.363 26.9653 80.5846 25.5207 79.9971 23.9046C79.4096 22.2885 79.0805 20.6868 79.0705 19.3947C79.0597 18.0054 79.4315 17.1082 80.1173 16.8685C80.8031 16.6288 81.6698 17.0928 82.5577 18.1755C83.3835 19.1823 84.1619 20.627 84.7493 22.2431C85.3369 23.8592 85.6659 25.4609 85.676 26.753C85.6866 28.1423 85.3149 29.0394 84.6292 29.2792ZM80.3076 17.3921C79.4364 17.6967 79.3137 20.3696 80.531 23.7179C81.7482 27.0662 83.5673 29.0602 84.4387 28.7556C85.3101 28.451 85.4327 25.7781 84.2153 22.4297C82.998 19.0814 81.179 17.0874 80.3076 17.3921Z" fill="#B3EDFF"/>
<path d="M75.1532 33.8152L73.8088 31.948L73.2631 30.7943L72.9438 30.9396L73.2126 32.3066L74.0324 33.5421L75.1532 33.8152ZM75.1298 30.5235L76.2421 32.2356L76.5427 31.6189L76.2335 30.8808L75.6789 29.7581L75.4616 29.7723L75.1298 30.5235Z" fill="#F4ACC8"/>
<path d="M67.5188 44.5972C67.5866 42.1845 68.0193 36.8046 68.1723 33.3773C68.2333 32.0098 67.3229 30.7795 65.975 30.4247C62.5252 29.5163 58.4614 29.217 55.5243 30.4814C54.7131 30.8306 54.2165 31.6062 54.2523 32.5183C54.4333 37.1329 56.8402 44.5972 56.8402 44.5972L55.4842 53.2375H69.1095L67.5062 44.5972H67.5188Z" fill="#F62054"/>
<path d="M65.3283 44.717L64.6272 30.1097C62.843 29.7419 60.962 29.5563 59.1987 29.6703L63.1224 44.7287L62.8047 51.2303H65.2811L65.3283 44.717Z" fill="#E3E3E3"/>
<path d="M48.3125 33.6258L47.3809 34.2152C47.4277 34.6417 47.494 35.1562 47.5832 35.7253L49.3105 35.2915L48.3125 33.6258Z" fill="#F62054"/>
<path d="M51.5244 43.7383C51.9672 40.3779 52.599 35.1825 54.5254 31.4783L58.8999 33.8129C57.8449 37.4148 56.1412 42.0545 54.4871 45.0408L51.5244 43.7383Z" fill="#F62054"/>
<path d="M53.5204 42.3206L49.3098 35.2918L47.1787 35.7289C47.6218 38.557 49.0481 42.764 51.2255 44.6067C52.2783 45.4292 53.3675 45.7463 54.4866 45.0406L53.5204 42.3206Z" fill="#F62054"/>
<path d="M62.8058 51.2305L62.708 53.2281H65.5037L65.2822 51.2305H62.8058Z" fill="#00161D"/>
<path d="M63.2888 27.9469L62.6955 31.9337L60.0303 29.7366L61.3293 26.2595L63.2888 27.9469Z" fill="#F4ACC8"/>
<path d="M64.5955 27.6642C64.6352 28.2953 64.0232 28.8817 62.8022 28.4752L60.808 27.6085L59.7959 24.6696L60.7835 22.3337L64.3674 22.4119L64.5955 27.6642Z" fill="#F4ACC8"/>
<path d="M64.1147 24.5486L64.9574 26.0756L64.2521 26.2014L64.1147 24.5486Z" fill="#F4ACC8"/>
<path d="M64.5691 26.2938H63.6231C63.0179 26.3972 62.3899 26.6457 62.212 26.069C62.212 26.069 61.937 24.5756 61.9232 24.2273L64.5746 23.423L65.1996 21.4357L64.3156 21.6392L60.8679 21.7716C59.3324 21.814 58.7477 22.9564 59.2822 24.6081L60.008 26.6076C60.2036 27.1466 60.2515 27.4399 60.809 27.6081L61.0076 27.0348C61.1279 26.6875 61.0585 26.3128 60.8533 26.0061C60.8203 25.9567 60.7896 25.9028 60.7627 25.845C60.5984 25.4928 60.6288 25.1338 60.8308 25.043C61.0327 24.9523 61.3298 25.1643 61.4942 25.5165C61.6386 25.8258 61.7274 27.9384 61.7274 27.9384L63.0104 28.5767C64.2547 28.9084 64.8285 28.286 64.7492 27.6586L64.5691 26.2938Z" fill="#4F2674"/>
<path d="M59.8296 29.6421L61.2977 33.1223L62.6975 31.9334L60.2713 29.0963L59.8296 29.6421Z" fill="white"/>
<path d="M63.398 29.8877L63.6883 32.8451L62.6982 31.9338L63.0981 29.2465L63.398 29.8877Z" fill="white"/>
<path d="M48.3111 33.626C48.3111 33.626 49.4709 32.2419 47.8728 32.06C43.5875 31.5722 46.6102 32.1725 46.4572 32.1725C46.3041 32.1725 44.9267 32.06 43.7024 31.8723C42.8934 31.7483 43.8554 33.2231 45.3094 33.5233C46.7634 33.8235 47.6051 34.0861 47.6051 34.0861L48.3111 33.626Z" fill="#F4ACC8"/>
<path d="M54.4161 25.9935C54.399 25.9957 54.3815 25.9953 54.364 25.9961C54.3293 25.9987 54.2952 26.0013 54.2596 26.0004C54.2382 26 54.2167 25.997 54.1952 25.9953C54.1632 25.9927 54.1312 25.991 54.0983 25.9858C54.0751 25.9824 54.051 25.9763 54.0273 25.9716C53.9958 25.9652 53.9646 25.9591 53.9326 25.9505C53.9081 25.9441 53.8831 25.9351 53.8585 25.9273C53.8274 25.9174 53.7963 25.9076 53.7647 25.8955C53.7393 25.8861 53.7139 25.8744 53.6885 25.8637C53.6573 25.8504 53.6262 25.837 53.5955 25.822C53.5697 25.8095 53.5442 25.7953 53.5184 25.7816C53.4877 25.7653 53.457 25.7485 53.4263 25.7304C53.4005 25.715 53.3746 25.6986 53.3487 25.6819C53.3185 25.6625 53.2882 25.6427 53.2584 25.6212C53.2374 25.6066 53.2164 25.5907 53.1953 25.5752C53.1392 25.5335 53.0835 25.4888 53.0287 25.442C53.0151 25.4299 53.0011 25.4192 52.9871 25.4071C52.9393 25.3646 52.892 25.3194 52.8455 25.273C52.8376 25.2649 52.8293 25.258 52.8214 25.2498C52.7841 25.212 52.7482 25.1716 52.7118 25.1312C52.6986 25.1165 52.6851 25.1032 52.6723 25.0882C52.6653 25.0804 52.6592 25.0718 52.6522 25.0637C52.6123 25.0168 52.5733 24.9695 52.5351 24.9201C52.5215 24.9024 52.5088 24.8835 52.4952 24.8655C52.4654 24.8251 52.4361 24.7851 52.4076 24.743C52.3909 24.7185 52.3756 24.6931 52.3594 24.6682C52.3352 24.6312 52.3116 24.5938 52.2888 24.5555C52.2699 24.5241 52.2524 24.4915 52.2349 24.4597C52.2112 24.4171 52.1866 24.375 52.1647 24.3311C52.1336 24.2692 52.1042 24.2073 52.0775 24.1458C52.0757 24.142 52.0744 24.1385 52.0731 24.1351C52.0503 24.0822 52.0293 24.0298 52.0095 23.9777C52.003 23.9601 51.9968 23.9429 51.9907 23.9257C51.9771 23.8875 51.964 23.8492 51.9521 23.8114C51.9455 23.7903 51.939 23.7697 51.9328 23.7486C51.9219 23.7116 51.9122 23.6747 51.903 23.6381C51.8982 23.6192 51.8934 23.6003 51.889 23.5818C51.8789 23.5375 51.8701 23.4932 51.8623 23.4498C51.8605 23.4399 51.8579 23.4296 51.8566 23.4193C51.8478 23.366 51.8412 23.3135 51.836 23.262C51.8346 23.2473 51.8338 23.2327 51.8329 23.2181C51.8298 23.1811 51.8276 23.1446 51.8263 23.1089C51.8259 23.0909 51.8259 23.0728 51.8259 23.0547C51.8259 23.0229 51.8263 22.9911 51.8276 22.9602C51.8285 22.9421 51.8294 22.9241 51.8307 22.9064C51.8329 22.8755 51.8364 22.845 51.8403 22.8149C51.8425 22.799 51.8443 22.783 51.8465 22.7676C51.8522 22.7306 51.8596 22.6949 51.8675 22.6597C51.8693 22.6524 51.8706 22.6442 51.8723 22.6369C51.8829 22.5956 51.8951 22.5561 51.9087 22.5174C51.9263 22.4675 51.9469 22.4202 51.9701 22.3755C51.9771 22.3617 51.9854 22.3493 51.9929 22.336C52.0082 22.3093 52.024 22.2826 52.0415 22.2577C52.0525 22.2422 52.0639 22.228 52.0757 22.2134C52.0906 22.1945 52.106 22.176 52.1222 22.1584C52.1358 22.1442 52.1498 22.1309 52.1638 22.1176C52.1801 22.1025 52.1963 22.0879 52.2138 22.0741C52.2388 22.0539 52.2642 22.0342 52.2918 22.0174L51.8776 22.2753C51.8574 22.2878 51.8377 22.3016 51.8189 22.3157C51.8118 22.3209 51.8061 22.3274 51.7996 22.3325C51.7825 22.3463 51.7658 22.3609 51.7496 22.3759C51.7408 22.3841 51.7312 22.391 51.7224 22.3996C51.7172 22.4052 51.7128 22.4116 51.7075 22.4172C51.6913 22.4348 51.676 22.4533 51.661 22.4722C51.6532 22.4821 51.644 22.4907 51.6365 22.501C51.633 22.5058 51.6304 22.5118 51.6269 22.5165C51.6093 22.5414 51.594 22.5677 51.5786 22.5943C51.5725 22.6051 51.565 22.6145 51.5593 22.6253C51.558 22.6279 51.5572 22.6313 51.5554 22.6339C51.5322 22.6786 51.512 22.7263 51.494 22.7757C51.4932 22.7779 51.4918 22.78 51.4914 22.7822C51.4787 22.8187 51.4677 22.8566 51.4581 22.8952C51.4563 22.9026 51.455 22.9103 51.4533 22.9176C51.4463 22.9468 51.4397 22.9765 51.4344 23.007C51.4335 23.013 51.4331 23.0195 51.4322 23.0255C51.4296 23.041 51.4278 23.0569 51.4261 23.0728C51.4221 23.1029 51.4191 23.1334 51.4164 23.1644C51.4151 23.182 51.4143 23.2 51.4134 23.2181C51.4121 23.2491 51.4116 23.2809 51.4116 23.3127C51.4116 23.3307 51.4116 23.3484 51.4121 23.3664C51.4129 23.4025 51.4156 23.4391 51.4186 23.476C51.42 23.4907 51.4204 23.5048 51.4217 23.5195C51.427 23.5711 51.4335 23.6235 51.4423 23.6768C51.4441 23.6867 51.4463 23.697 51.448 23.7069C51.4559 23.7507 51.4642 23.7946 51.4747 23.8389C51.4791 23.8578 51.484 23.8767 51.4888 23.8956C51.498 23.9322 51.5076 23.9687 51.5186 24.0057C51.5247 24.0267 51.5313 24.0478 51.5379 24.0689C51.5431 24.0852 51.5471 24.1011 51.5528 24.1175C51.5598 24.1389 51.5686 24.1609 51.5764 24.1828C51.5826 24.2004 51.5887 24.2176 51.5953 24.2352C51.615 24.2873 51.6356 24.3397 51.6584 24.3922C51.6602 24.396 51.6615 24.3999 51.6632 24.4038C51.6637 24.4042 51.6637 24.4051 51.6641 24.4055C51.6909 24.4665 51.7198 24.5276 51.7505 24.5886C51.7584 24.6041 51.7663 24.6196 51.7741 24.6346C51.7891 24.663 51.8053 24.6896 51.8206 24.7172C51.8386 24.7494 51.8561 24.7816 51.8745 24.813C51.8785 24.8199 51.882 24.8268 51.8864 24.8337C51.9052 24.865 51.9258 24.8947 51.9455 24.9252C51.9618 24.9502 51.9771 24.976 51.9938 25.0005C51.9968 25.0048 51.9995 25.0099 52.0025 25.0142C52.028 25.0512 52.0547 25.0869 52.081 25.1226C52.0946 25.1406 52.1073 25.1595 52.1209 25.1776C52.1222 25.1797 52.124 25.1819 52.1253 25.1836C52.1617 25.2313 52.1998 25.2769 52.2379 25.3216C52.2445 25.3293 52.2511 25.3379 52.2577 25.3457C52.2581 25.3461 52.2581 25.3461 52.2585 25.3465C52.2708 25.3607 52.284 25.3736 52.2962 25.3878C52.3326 25.4286 52.369 25.4691 52.4067 25.5077C52.4076 25.5086 52.408 25.509 52.4089 25.5099C52.4159 25.5172 52.4234 25.5232 52.4304 25.5301C52.4773 25.577 52.5246 25.6221 52.5728 25.6651C52.5768 25.6685 52.5807 25.6728 52.5847 25.6763C52.5943 25.6849 52.6044 25.6917 52.614 25.6999C52.6688 25.7472 52.7245 25.7915 52.7806 25.8332C52.7911 25.8409 52.8012 25.8504 52.8117 25.8581C52.8223 25.8659 52.8332 25.8719 52.8437 25.8796C52.874 25.9007 52.9038 25.9204 52.9345 25.9402C52.9603 25.957 52.9858 25.9733 53.0116 25.9888C53.0423 26.0069 53.073 26.0236 53.1037 26.0404C53.1296 26.0541 53.155 26.0683 53.1808 26.0808C53.212 26.0958 53.2427 26.1092 53.2738 26.1225C53.2992 26.1332 53.3246 26.1449 53.3501 26.1543C53.3816 26.1664 53.4127 26.1762 53.4439 26.1861C53.4684 26.1939 53.4934 26.2029 53.5179 26.2093C53.5499 26.2179 53.5811 26.224 53.6126 26.2304C53.6363 26.2351 53.66 26.2412 53.6832 26.2446C53.7156 26.2493 53.7476 26.2515 53.7796 26.2541C53.8011 26.2558 53.823 26.2588 53.8445 26.2592C53.8796 26.2601 53.9138 26.2571 53.948 26.2549C53.9655 26.2536 53.9835 26.254 54.0006 26.2523C54.0519 26.2463 54.1018 26.2364 54.1505 26.2227C54.232 26.1995 54.307 26.1664 54.3745 26.1242L54.7888 25.8663C54.7212 25.9084 54.6463 25.9415 54.5647 25.9647C54.517 25.9776 54.467 25.9871 54.4161 25.9935Z" fill="url(#paint3_linear)"/>
<path d="M52.5169 21.9185C53.2766 21.7035 54.351 22.4344 54.9169 23.5517C55.4824 24.6681 55.3259 25.7489 54.5658 25.9638C53.8065 26.1788 52.7312 25.4471 52.1658 24.3306C51.5998 23.2129 51.7576 22.1334 52.5169 21.9185Z" fill="url(#paint4_linear)"/>
<path opacity="0.4" d="M52.7342 22.1478C52.1658 22.371 52.1027 23.3318 52.5944 24.2897C53.0857 25.2481 53.9478 25.8459 54.5166 25.6227C55.085 25.3996 55.1481 24.4387 54.6564 23.4809C54.1651 22.5229 53.303 21.9251 52.7342 22.1478ZM54.4432 23.5647C54.8325 24.3235 54.7828 25.0855 54.3315 25.2626C53.8811 25.4392 53.1977 24.9651 52.8085 24.2063C52.4187 23.446 52.4684 22.6846 52.9189 22.508C53.3697 22.3308 54.0535 22.805 54.4432 23.5647Z" fill="#FEFBB4"/>
<path d="M53.9087 23.108L52.9079 23.6812C52.8374 23.3746 52.8904 23.08 53.0868 22.9675C53.2089 22.8976 53.3662 22.9098 53.5254 22.9806L53.6841 22.8897C53.4253 22.7141 53.1736 22.6795 52.981 22.7898C52.6801 22.9621 52.6416 23.4636 52.8579 23.9642L52.8642 23.9606L53.3299 23.6939L53.4839 23.9526L53.0183 24.2193L53.1313 24.409L53.5969 24.1424L54.0796 24.953L54.1934 24.8878L53.7107 24.0772L53.7935 24.0298L54.2762 24.8404L54.4003 24.7693L53.9176 23.9587L54.2151 23.7884L54.233 23.7781L54.3262 23.7247C54.2937 23.6508 54.2517 23.57 54.2078 23.4964C54.1207 23.3504 54.013 23.2102 53.9087 23.108ZM53.6805 23.8401L53.5977 23.8875L53.4437 23.6287L53.5265 23.5813L53.6805 23.8401ZM53.8047 23.769L53.6506 23.5102L53.9458 23.3412C53.9989 23.4033 54.0555 23.4837 54.1021 23.5619C54.1065 23.5692 54.1081 23.5721 54.1183 23.5894L53.8047 23.769Z" fill="#F4D27C"/>
<g opacity="0.5">
<path d="M59.6944 19.2268C59.7045 19.2281 59.7148 19.2278 59.7251 19.2283C59.7455 19.2299 59.7656 19.2314 59.7865 19.2309C59.7992 19.2306 59.8118 19.2289 59.8245 19.2278C59.8433 19.2263 59.8621 19.2253 59.8815 19.2223C59.8952 19.2203 59.9094 19.2167 59.9233 19.2139C59.9419 19.2101 59.9602 19.2066 59.979 19.2015C59.9935 19.1977 60.0082 19.1924 60.0226 19.1879C60.0409 19.182 60.0593 19.1762 60.0778 19.1691C60.0928 19.1636 60.1078 19.1567 60.1227 19.1504C60.1411 19.1426 60.1594 19.1347 60.1774 19.1259C60.1927 19.1185 60.2076 19.1102 60.2229 19.1021C60.2409 19.0925 60.259 19.0826 60.277 19.072C60.2923 19.0629 60.3075 19.0532 60.3227 19.0434C60.3405 19.032 60.3583 19.0204 60.3759 19.0077C60.3882 18.9991 60.4006 18.9897 60.413 18.9806C60.446 18.9561 60.4788 18.9298 60.5111 18.9022C60.5191 18.8951 60.5273 18.8888 60.5356 18.8817C60.5637 18.8566 60.5916 18.8301 60.6189 18.8027C60.6236 18.7979 60.6285 18.7939 60.6331 18.7891C60.655 18.7668 60.6762 18.743 60.6976 18.7192C60.7053 18.7106 60.7133 18.7028 60.7208 18.6939C60.725 18.6894 60.7286 18.6843 60.7327 18.6795C60.7562 18.6519 60.7791 18.6241 60.8016 18.595C60.8096 18.5846 60.8171 18.5735 60.8251 18.5629C60.8426 18.5391 60.8599 18.5155 60.8767 18.4907C60.8865 18.4763 60.8955 18.4614 60.9051 18.4467C60.9192 18.425 60.9332 18.4029 60.9466 18.3804C60.9577 18.3619 60.968 18.3427 60.9783 18.324C60.9923 18.2989 61.0067 18.2741 61.0196 18.2483C61.0379 18.2119 61.0552 18.1755 61.071 18.1393C61.072 18.137 61.0728 18.135 61.0735 18.1329C61.087 18.1018 61.0993 18.0709 61.111 18.0403C61.1148 18.03 61.1184 18.0198 61.122 18.0097C61.13 17.9872 61.1378 17.9647 61.1448 17.9424C61.1486 17.93 61.1525 17.9179 61.1561 17.9055C61.1626 17.8837 61.1682 17.8619 61.1737 17.8404C61.1765 17.8293 61.1793 17.8182 61.1819 17.8073C61.1878 17.7812 61.193 17.7552 61.1976 17.7296C61.1987 17.7238 61.2002 17.7177 61.201 17.7116C61.2062 17.6803 61.21 17.6494 61.2131 17.619C61.2139 17.6104 61.2144 17.6018 61.2149 17.5932C61.2167 17.5715 61.218 17.5499 61.2188 17.5289C61.2191 17.5183 61.2191 17.5077 61.2191 17.4971C61.2191 17.4783 61.2188 17.4596 61.218 17.4414C61.2175 17.4308 61.217 17.4201 61.2162 17.4098C61.2149 17.3915 61.2129 17.3736 61.2105 17.3559C61.2093 17.3465 61.2082 17.3371 61.2069 17.328C61.2036 17.3063 61.1992 17.2853 61.1946 17.2645C61.1935 17.2602 61.1927 17.2554 61.1917 17.2511C61.1855 17.2268 61.1783 17.2035 61.1703 17.1808C61.16 17.1514 61.1478 17.1236 61.1342 17.0973C61.13 17.0892 61.1251 17.0818 61.1208 17.074C61.1117 17.0583 61.1024 17.0426 61.0921 17.0279C61.0857 17.0188 61.079 17.0105 61.072 17.0019C61.0632 16.9907 61.0542 16.9798 61.0446 16.9695C61.0366 16.9611 61.0284 16.9533 61.0201 16.9454C61.0106 16.9366 61.001 16.928 60.9907 16.9199C60.976 16.908 60.961 16.8963 60.9448 16.8865L61.1886 17.0383C61.2005 17.0456 61.2121 17.0537 61.2232 17.0621C61.2273 17.0651 61.2307 17.0689 61.2345 17.072C61.2446 17.08 61.2544 17.0887 61.264 17.0975C61.2691 17.1023 61.2748 17.1064 61.28 17.1114C61.2831 17.1147 61.2856 17.1185 61.2887 17.1218C61.2983 17.1322 61.3073 17.1431 61.3161 17.1542C61.3207 17.16 61.3261 17.1651 61.3305 17.1711C61.3326 17.1739 61.3341 17.1775 61.3362 17.1803C61.3465 17.1949 61.3556 17.2104 61.3646 17.2261C61.3682 17.2324 61.3726 17.2379 61.3759 17.2443C61.3767 17.2458 61.3772 17.2478 61.3783 17.2493C61.3919 17.2756 61.4038 17.3037 61.4144 17.3328C61.4149 17.3341 61.4157 17.3354 61.4159 17.3366C61.4234 17.3581 61.4299 17.3804 61.4355 17.4032C61.4366 17.4075 61.4373 17.412 61.4384 17.4163C61.4425 17.4335 61.4464 17.451 61.4495 17.469C61.45 17.4725 61.4502 17.4763 61.4508 17.4799C61.4523 17.489 61.4533 17.4983 61.4544 17.5077C61.4567 17.5254 61.4585 17.5434 61.4601 17.5616C61.4608 17.572 61.4613 17.5826 61.4619 17.5932C61.4626 17.6114 61.4629 17.6302 61.4629 17.6489C61.4629 17.6595 61.4629 17.6699 61.4626 17.6805C61.4621 17.7018 61.4606 17.7233 61.4588 17.745C61.458 17.7536 61.4577 17.762 61.457 17.7706C61.4539 17.801 61.45 17.8318 61.4448 17.8632C61.4438 17.869 61.4425 17.8751 61.4415 17.8809C61.4368 17.9067 61.4319 17.9325 61.4257 17.9586C61.4232 17.9697 61.4203 17.9809 61.4175 17.992C61.4121 18.0135 61.4064 18.035 61.3999 18.0568C61.3963 18.0692 61.3925 18.0816 61.3886 18.094C61.3855 18.1036 61.3832 18.113 61.3798 18.1226C61.3757 18.1352 61.3705 18.1481 61.3659 18.161C61.3623 18.1714 61.3587 18.1815 61.3548 18.1919C61.3432 18.2225 61.331 18.2534 61.3176 18.2843C61.3166 18.2865 61.3158 18.2888 61.3148 18.2911C61.3145 18.2913 61.3145 18.2919 61.3143 18.2921C61.2985 18.328 61.2815 18.364 61.2634 18.3999C61.2588 18.409 61.2542 18.4181 61.2495 18.427C61.2407 18.4437 61.2312 18.4594 61.2222 18.4756C61.2116 18.4945 61.2013 18.5135 61.1904 18.532C61.1881 18.536 61.186 18.5401 61.1835 18.5441C61.1724 18.5626 61.1602 18.5801 61.1486 18.598C61.1391 18.6127 61.13 18.6279 61.1202 18.6423C61.1184 18.6448 61.1169 18.6479 61.1151 18.6504C61.1001 18.6722 61.0844 18.6932 61.0689 18.7142C61.0609 18.7248 61.0534 18.7359 61.0454 18.7466C61.0446 18.7478 61.0436 18.7491 61.0428 18.7501C61.0214 18.7782 60.999 18.805 60.9765 18.8313C60.9727 18.8359 60.9688 18.8409 60.9649 18.8455C60.9647 18.8458 60.9647 18.8458 60.9644 18.846C60.9572 18.8544 60.9494 18.8619 60.9422 18.8703C60.9208 18.8943 60.8994 18.9181 60.8772 18.9409C60.8767 18.9414 60.8764 18.9417 60.8759 18.9422C60.8718 18.9465 60.8674 18.95 60.8633 18.9541C60.8356 18.9816 60.8078 19.0082 60.7794 19.0335C60.7771 19.0355 60.7748 19.0381 60.7724 19.0401C60.7668 19.0451 60.7608 19.0492 60.7551 19.054C60.7229 19.0818 60.6901 19.1079 60.6571 19.1324C60.6509 19.137 60.645 19.1426 60.6388 19.1471C60.6326 19.1517 60.6261 19.1552 60.6199 19.1598C60.6021 19.1722 60.5846 19.1838 60.5665 19.1955C60.5513 19.2053 60.5363 19.2149 60.5211 19.224C60.5031 19.2347 60.485 19.2445 60.4669 19.2544C60.4517 19.2625 60.4367 19.2709 60.4215 19.2782C60.4032 19.2871 60.3851 19.2949 60.3668 19.3027C60.3519 19.3091 60.3369 19.3159 60.3219 19.3215C60.3034 19.3286 60.285 19.3344 60.2667 19.3402C60.2523 19.3447 60.2376 19.3501 60.2231 19.3539C60.2043 19.3589 60.186 19.3625 60.1674 19.3663C60.1534 19.369 60.1395 19.3726 60.1258 19.3746C60.1067 19.3774 60.0879 19.3787 60.0691 19.3802C60.0564 19.3812 60.0435 19.383 60.0309 19.3832C60.0102 19.3837 59.9901 19.3819 59.97 19.3807C59.9597 19.3799 59.9491 19.3802 59.939 19.3792C59.9088 19.3756 59.8794 19.3698 59.8508 19.3617C59.8028 19.348 59.7587 19.3286 59.7189 19.3038L59.4751 19.1519C59.5148 19.1767 59.559 19.1962 59.607 19.2099C59.6351 19.2175 59.6645 19.223 59.6944 19.2268Z" fill="url(#paint5_linear)"/>
<path d="M60.8127 16.8287C60.3655 16.7021 59.7331 17.1323 59.4 17.7899C59.0672 18.4471 59.1593 19.0832 59.6067 19.2097C60.0536 19.3363 60.6865 18.9056 61.0194 18.2485C61.3525 17.5906 61.2596 16.9552 60.8127 16.8287Z" fill="url(#paint6_linear)"/>
<path opacity="0.4" d="M60.6844 16.9635C61.0189 17.0949 61.0561 17.6604 60.7667 18.2242C60.4775 18.7884 59.97 19.1402 59.6352 19.0088C59.3007 18.8775 59.2635 18.3119 59.553 17.7481C59.8421 17.1843 60.3496 16.8324 60.6844 16.9635ZM59.6784 17.7975C59.4493 18.2441 59.4786 18.6926 59.7442 18.7969C60.0093 18.9008 60.4116 18.6218 60.6407 18.1751C60.8701 17.7276 60.8408 17.2794 60.5757 17.1755C60.3103 17.0712 59.9078 17.3503 59.6784 17.7975Z" fill="#FEFBB4"/>
<path d="M59.9929 17.5289L60.5819 17.8662C60.6234 17.6858 60.5922 17.5124 60.4766 17.4462C60.4048 17.405 60.3122 17.4122 60.2185 17.4539L60.125 17.4003C60.2774 17.297 60.4255 17.2766 60.5389 17.3415C60.716 17.443 60.7387 17.7382 60.6114 18.0328L60.6076 18.0307L60.3335 17.8737L60.2429 18.026L60.5169 18.183L60.4504 18.2946L60.1764 18.1377L59.8923 18.6148L59.8253 18.5765L60.1094 18.0993L60.0607 18.0714L59.7765 18.5486L59.7035 18.5067L59.9876 18.0296L59.8125 17.9293L59.802 17.9233L59.7471 17.8919C59.7662 17.8484 59.791 17.8008 59.8168 17.7575C59.8681 17.6715 59.9314 17.589 59.9929 17.5289ZM60.1272 17.9597L60.1759 17.9876L60.2666 17.8354L60.2178 17.8075L60.1272 17.9597ZM60.0541 17.9179L60.1448 17.7656L59.971 17.6661C59.9398 17.7027 59.9064 17.75 59.879 17.796C59.8764 17.8003 59.8755 17.802 59.8695 17.8122L60.0541 17.9179Z" fill="#F4D27C"/>
</g>
<path d="M45.8603 14.7491C45.8502 14.7504 45.8399 14.7501 45.8296 14.7506C45.8092 14.7521 45.789 14.7537 45.7681 14.7532C45.7555 14.7529 45.7429 14.7511 45.7302 14.7501C45.7114 14.7486 45.6925 14.7476 45.6732 14.7446C45.6595 14.7425 45.6453 14.739 45.6314 14.7362C45.6128 14.7324 45.5945 14.7289 45.5757 14.7238C45.5612 14.72 45.5465 14.7147 45.5321 14.7101C45.5137 14.7043 45.4954 14.6985 45.4768 14.6914C45.4619 14.6858 45.4469 14.679 45.4319 14.6727C45.4136 14.6648 45.3953 14.657 45.3772 14.6481C45.362 14.6408 45.3471 14.6325 45.3318 14.6244C45.3138 14.6147 45.2957 14.6049 45.2777 14.5942C45.2624 14.5851 45.2472 14.5755 45.232 14.5657C45.2142 14.5543 45.1964 14.5426 45.1788 14.53C45.1664 14.5214 45.1541 14.512 45.1417 14.5029C45.1087 14.4784 45.0759 14.452 45.0436 14.4245C45.0356 14.4174 45.0274 14.411 45.0191 14.404C44.991 14.3789 44.9631 14.3523 44.9358 14.325C44.9311 14.3202 44.9262 14.3162 44.9216 14.3114C44.8997 14.2891 44.8785 14.2653 44.8571 14.2415C44.8493 14.2329 44.8413 14.2251 44.8339 14.2162C44.8297 14.2117 44.8261 14.2066 44.822 14.2018C44.7985 14.1742 44.7755 14.1464 44.7531 14.1173C44.7451 14.1069 44.7376 14.0958 44.7296 14.0851C44.7121 14.0613 44.6948 14.0378 44.678 14.013C44.6682 13.9986 44.6592 13.9837 44.6496 13.969C44.6354 13.9472 44.6215 13.9252 44.6081 13.9027C44.597 13.8842 44.5867 13.865 44.5764 13.8463C44.5624 13.8212 44.548 13.7964 44.5351 13.7706C44.5168 13.7342 44.4995 13.6977 44.4837 13.6615C44.4827 13.6593 44.4819 13.6572 44.4811 13.6552C44.4677 13.6241 44.4553 13.5932 44.4437 13.5626C44.4399 13.5522 44.4363 13.5421 44.4326 13.532C44.4246 13.5095 44.4169 13.487 44.4099 13.4647C44.4061 13.4523 44.4022 13.4401 44.3986 13.4277C44.3921 13.406 44.3865 13.3842 44.381 13.3627C44.3782 13.3516 44.3754 13.3404 44.3728 13.3296C44.3668 13.3035 44.3617 13.2774 44.357 13.2519C44.356 13.2461 44.3545 13.24 44.3537 13.2339C44.3485 13.2025 44.3447 13.1717 44.3416 13.1413C44.3408 13.1327 44.3403 13.1241 44.3398 13.1155C44.3379 13.0937 44.3367 13.0722 44.3359 13.0512C44.3356 13.0406 44.3356 13.03 44.3356 13.0193C44.3356 13.0006 44.3359 12.9819 44.3367 12.9637C44.3372 12.953 44.3377 12.9424 44.3385 12.932C44.3398 12.9138 44.3418 12.8959 44.3441 12.8781C44.3454 12.8688 44.3465 12.8594 44.3478 12.8503C44.3511 12.8285 44.3555 12.8075 44.3601 12.7868C44.3612 12.7825 44.3619 12.7777 44.363 12.7734C44.3692 12.7491 44.3764 12.7258 44.3844 12.703C44.3947 12.6737 44.4068 12.6458 44.4205 12.6195C44.4246 12.6114 44.4295 12.6041 44.4339 12.5963C44.443 12.5806 44.4522 12.5649 44.4626 12.5502C44.469 12.5411 44.4757 12.5327 44.4827 12.5241C44.4915 12.513 44.5005 12.5021 44.51 12.4917C44.518 12.4834 44.5263 12.4756 44.5346 12.4677C44.5441 12.4589 44.5537 12.4503 44.564 12.4422C44.5787 12.4303 44.5936 12.4186 44.6099 12.4088L44.3661 12.5606C44.3542 12.5679 44.3426 12.576 44.3315 12.5844C44.3274 12.5874 44.324 12.5912 44.3201 12.5942C44.3101 12.6023 44.3003 12.6109 44.2907 12.6198C44.2856 12.6246 44.2799 12.6286 44.2747 12.6337C44.2716 12.637 44.2691 12.6408 44.266 12.6441C44.2564 12.6545 44.2474 12.6653 44.2386 12.6765C44.234 12.6823 44.2285 12.6873 44.2242 12.6934C44.2221 12.6962 44.2205 12.6997 44.2185 12.7025C44.2082 12.7172 44.1991 12.7326 44.1901 12.7483C44.1865 12.7547 44.1821 12.7602 44.1787 12.7665C44.178 12.7681 44.1775 12.7701 44.1764 12.7716C44.1628 12.7979 44.1509 12.826 44.1403 12.8551C44.1398 12.8564 44.139 12.8576 44.1388 12.8589C44.1313 12.8804 44.1248 12.9027 44.1191 12.9255C44.1181 12.9298 44.1173 12.9343 44.1163 12.9386C44.1122 12.9558 44.1083 12.9733 44.1052 12.9912C44.1047 12.9948 44.1044 12.9986 44.1039 13.0021C44.1024 13.0112 44.1013 13.0206 44.1003 13.03C44.098 13.0477 44.0962 13.0656 44.0946 13.0839C44.0939 13.0942 44.0933 13.1049 44.0928 13.1155C44.0921 13.1337 44.0918 13.1524 44.0918 13.1712C44.0918 13.1818 44.0918 13.1922 44.0921 13.2028C44.0926 13.224 44.0941 13.2456 44.0959 13.2673C44.0967 13.2759 44.097 13.2843 44.0977 13.2929C44.1008 13.3232 44.1047 13.3541 44.1099 13.3855C44.1109 13.3913 44.1122 13.3974 44.1132 13.4032C44.1179 13.429 44.1228 13.4548 44.129 13.4809C44.1315 13.492 44.1344 13.5031 44.1372 13.5143C44.1426 13.5358 44.1483 13.5573 44.1548 13.5791C44.1584 13.5915 44.1622 13.6039 44.1661 13.6163C44.1692 13.6259 44.1715 13.6352 44.1749 13.6448C44.179 13.6575 44.1842 13.6704 44.1888 13.6833C44.1924 13.6937 44.196 13.7038 44.1999 13.7142C44.2115 13.7448 44.2236 13.7757 44.2371 13.8065C44.2381 13.8088 44.2389 13.8111 44.2399 13.8134C44.2402 13.8136 44.2402 13.8141 44.2404 13.8144C44.2562 13.8503 44.2732 13.8862 44.2912 13.9222C44.2959 13.9313 44.3005 13.9404 44.3052 13.9493C44.314 13.966 44.3235 13.9816 44.3325 13.9978C44.3431 14.0168 44.3534 14.0358 44.3643 14.0543C44.3666 14.0583 44.3687 14.0624 44.3712 14.0664C44.3823 14.0849 44.3945 14.1023 44.4061 14.1203C44.4156 14.135 44.4246 14.1502 44.4344 14.1646C44.4363 14.1671 44.4378 14.1702 44.4396 14.1727C44.4546 14.1944 44.4703 14.2154 44.4858 14.2365C44.4938 14.2471 44.5013 14.2582 44.5093 14.2688C44.51 14.2701 44.5111 14.2714 44.5119 14.2724C44.5333 14.3005 44.5557 14.3273 44.5782 14.3536C44.582 14.3582 44.5859 14.3632 44.5898 14.3678C44.59 14.368 44.59 14.368 44.5903 14.3683C44.5975 14.3766 44.6053 14.3842 44.6125 14.3926C44.6339 14.4166 44.6553 14.4404 44.6775 14.4632C44.678 14.4637 44.6783 14.4639 44.6788 14.4644C44.6829 14.4687 44.6873 14.4723 44.6914 14.4763C44.719 14.5039 44.7469 14.5305 44.7753 14.5558C44.7776 14.5578 44.7799 14.5603 44.7823 14.5624C44.7879 14.5674 44.7939 14.5715 44.7995 14.5763C44.8318 14.6041 44.8646 14.6302 44.8976 14.6547C44.9038 14.6593 44.9097 14.6648 44.9159 14.6694C44.9221 14.674 44.9286 14.6775 44.9347 14.6821C44.9525 14.6945 44.9701 14.7061 44.9882 14.7177C45.0034 14.7276 45.0183 14.7372 45.0336 14.7463C45.0516 14.757 45.0697 14.7668 45.0878 14.7767C45.103 14.7848 45.1179 14.7931 45.1332 14.8005C45.1515 14.8093 45.1695 14.8172 45.1879 14.825C45.2028 14.8313 45.2178 14.8382 45.2328 14.8437C45.2513 14.8508 45.2697 14.8566 45.288 14.8625C45.3024 14.867 45.3171 14.8723 45.3316 14.8761C45.3504 14.8812 45.3687 14.8847 45.3873 14.8885C45.4012 14.8913 45.4152 14.8949 45.4289 14.8969C45.4479 14.8997 45.4668 14.9009 45.4856 14.9025C45.4983 14.9035 45.5112 14.9052 45.5238 14.9055C45.5444 14.906 45.5646 14.9042 45.5847 14.903C45.595 14.9022 45.6056 14.9024 45.6157 14.9014C45.6458 14.8979 45.6753 14.8921 45.7039 14.884C45.7519 14.8703 45.796 14.8508 45.8357 14.826L46.0796 14.6742C46.0398 14.699 45.9957 14.7185 45.9477 14.7322C45.9196 14.7397 45.8902 14.7453 45.8603 14.7491Z" fill="url(#paint7_linear)"/>
<path d="M44.742 12.3509C45.1892 12.2244 45.8216 12.6546 46.1547 13.3122C46.4875 13.9694 46.3954 14.6055 45.948 14.732C45.5011 14.8585 44.8682 14.4279 44.5353 13.7707C44.2022 13.1128 44.2951 12.4775 44.742 12.3509Z" fill="url(#paint8_linear)"/>
<path opacity="0.4" d="M44.8703 12.4858C44.5358 12.6171 44.4986 13.1827 44.788 13.7465C45.0772 14.3106 45.5846 14.6625 45.9194 14.5311C46.254 14.3998 46.2912 13.8342 46.0017 13.2704C45.7126 12.7066 45.2051 12.3547 44.8703 12.4858ZM45.8763 13.3198C46.1054 13.7664 46.0761 14.2149 45.8105 14.3192C45.5454 14.4231 45.1431 14.144 44.914 13.6974C44.6846 13.2499 44.7139 12.8017 44.979 12.6978C45.2444 12.5935 45.6469 12.8726 45.8763 13.3198Z" fill="#FEFBB4"/>
<path d="M45.5628 13.0512L44.9737 13.3885C44.9323 13.208 44.9634 13.0347 45.0791 12.9685C45.1509 12.9273 45.2435 12.9345 45.3372 12.9761L45.4306 12.9226C45.2783 12.8193 45.1301 12.7989 45.0168 12.8638C44.8396 12.9653 44.817 13.2604 44.9443 13.5551L44.948 13.553L45.2221 13.396L45.3128 13.5483L45.0387 13.7052L45.1052 13.8169L45.3793 13.66L45.6634 14.1371L45.7304 14.0988L45.4463 13.6216L45.495 13.5937L45.7791 14.0709L45.8522 14.029L45.5681 13.5519L45.7431 13.4516L45.7537 13.4455L45.8085 13.4141C45.7894 13.3706 45.7647 13.3231 45.7388 13.2798C45.6876 13.1938 45.6242 13.1113 45.5628 13.0512ZM45.4285 13.482L45.3798 13.5099L45.2891 13.3576L45.3378 13.3297L45.4285 13.482ZM45.5016 13.4402L45.4109 13.2879L45.5846 13.1884C45.6159 13.225 45.6492 13.2723 45.6767 13.3183C45.6792 13.3226 45.6802 13.3243 45.6862 13.3345L45.5016 13.4402Z" fill="#F4D27C"/>
<g filter="url(#filter0_f)">
<path d="M47.92 20.8025C47.9353 20.8044 47.9509 20.804 47.9666 20.8048C47.9975 20.8071 48.028 20.8094 48.0597 20.8086C48.0789 20.8083 48.098 20.8056 48.1172 20.804C48.1458 20.8017 48.1743 20.8002 48.2037 20.7956C48.2244 20.7925 48.246 20.7872 48.2671 20.7829C48.2953 20.7772 48.323 20.7718 48.3516 20.7641C48.3735 20.7584 48.3958 20.7503 48.4177 20.7434C48.4455 20.7346 48.4733 20.7258 48.5015 20.715C48.5242 20.7066 48.5469 20.6962 48.5696 20.6866C48.5974 20.6747 48.6251 20.6628 48.6525 20.6494C48.6756 20.6383 48.6983 20.6256 48.7214 20.6133C48.7488 20.5987 48.7762 20.5838 48.8036 20.5676C48.8267 20.5538 48.8498 20.5392 48.8728 20.5243C48.8998 20.507 48.9268 20.4894 48.9534 20.4702C48.9722 20.4571 48.991 20.4429 49.0098 20.4291C49.0599 20.3919 49.1096 20.352 49.1585 20.3101C49.1706 20.2994 49.1832 20.2898 49.1957 20.2791C49.2383 20.2411 49.2806 20.2008 49.3221 20.1593C49.3291 20.152 49.3365 20.1459 49.3436 20.1386C49.3769 20.1048 49.4089 20.0688 49.4414 20.0327C49.4532 20.0196 49.4653 20.0077 49.4766 19.9943C49.4829 19.9874 49.4884 19.9797 49.4946 19.9724C49.5302 19.9306 49.5651 19.8884 49.5991 19.8443C49.6112 19.8285 49.6226 19.8116 49.6347 19.7955C49.6613 19.7594 49.6876 19.7238 49.713 19.6861C49.7279 19.6643 49.7416 19.6416 49.756 19.6194C49.7776 19.5864 49.7987 19.553 49.819 19.5188C49.8359 19.4908 49.8515 19.4616 49.8672 19.4333C49.8883 19.3953 49.9102 19.3577 49.9298 19.3185C49.9576 19.2632 49.9838 19.208 50.0076 19.1531C50.0092 19.1497 50.0104 19.1466 50.0116 19.1435C50.0319 19.0963 50.0507 19.0495 50.0683 19.0031C50.0742 18.9873 50.0796 18.972 50.0851 18.9566C50.0973 18.9225 50.109 18.8883 50.1196 18.8545C50.1254 18.8357 50.1313 18.8173 50.1368 18.7985C50.1466 18.7655 50.1552 18.7325 50.1634 18.6999C50.1677 18.683 50.172 18.6661 50.1759 18.6496C50.1849 18.6101 50.1927 18.5706 50.1998 18.5318C50.2013 18.523 50.2037 18.5138 50.2049 18.5046C50.2127 18.457 50.2186 18.4101 50.2233 18.3641C50.2244 18.351 50.2252 18.338 50.226 18.325C50.2287 18.292 50.2307 18.2593 50.2319 18.2275C50.2323 18.2114 50.2323 18.1952 50.2323 18.1791C50.2323 18.1507 50.2319 18.1223 50.2307 18.0947C50.2299 18.0786 50.2291 18.0625 50.228 18.0467C50.226 18.0191 50.2229 17.9918 50.2193 17.965C50.2174 17.9508 50.2158 17.9366 50.2139 17.9228C50.2088 17.8898 50.2021 17.8579 50.1951 17.8264C50.1935 17.8199 50.1923 17.8126 50.1908 17.8061C50.1814 17.7693 50.1704 17.734 50.1583 17.6994C50.1426 17.6549 50.1243 17.6127 50.1035 17.5728C50.0973 17.5605 50.0898 17.5494 50.0832 17.5375C50.0695 17.5137 50.0554 17.4899 50.0397 17.4676C50.03 17.4538 50.0198 17.4412 50.0092 17.4281C49.9959 17.4112 49.9822 17.3947 49.9677 17.379C49.9556 17.3663 49.9431 17.3544 49.9306 17.3425C49.9161 17.3291 49.9016 17.316 49.8859 17.3038C49.8636 17.2857 49.8409 17.2681 49.8163 17.2531L50.1861 17.4834C50.2041 17.4945 50.2217 17.5068 50.2385 17.5194C50.2448 17.524 50.2499 17.5298 50.2557 17.5344C50.271 17.5467 50.2859 17.5597 50.3003 17.5732C50.3082 17.5805 50.3168 17.5866 50.3246 17.5943C50.3293 17.5993 50.3332 17.605 50.3379 17.61C50.3524 17.6257 50.3661 17.6422 50.3794 17.6591C50.3864 17.668 50.3947 17.6756 50.4013 17.6848C50.4044 17.6891 50.4068 17.6944 50.4099 17.6987C50.4256 17.7209 50.4393 17.7443 50.453 17.7681C50.4584 17.7777 50.4651 17.7862 50.4702 17.7957C50.4714 17.7981 50.4721 17.8011 50.4737 17.8034C50.4944 17.8433 50.5124 17.8859 50.5285 17.9301C50.5293 17.932 50.5304 17.9339 50.5308 17.9358C50.5422 17.9684 50.552 18.0022 50.5606 18.0368C50.5621 18.0433 50.5633 18.0502 50.5649 18.0567C50.5711 18.0828 50.577 18.1093 50.5817 18.1365C50.5825 18.1419 50.5829 18.1477 50.5837 18.153C50.586 18.1668 50.5876 18.181 50.5891 18.1952C50.5927 18.2221 50.5954 18.2494 50.5977 18.277C50.5989 18.2927 50.5997 18.3088 50.6005 18.325C50.6017 18.3526 50.6021 18.381 50.6021 18.4094C50.6021 18.4255 50.6021 18.4412 50.6017 18.4574C50.6009 18.4896 50.5985 18.5222 50.5958 18.5552C50.5946 18.5683 50.5942 18.5809 50.5931 18.594C50.5884 18.64 50.5825 18.6868 50.5747 18.7344C50.5731 18.7433 50.5711 18.7525 50.5696 18.7613C50.5625 18.8004 50.5551 18.8396 50.5457 18.8791C50.5418 18.896 50.5375 18.9129 50.5332 18.9298C50.525 18.9624 50.5164 18.995 50.5066 19.028C50.5011 19.0468 50.4952 19.0656 50.4894 19.0844C50.4847 19.099 50.4811 19.1132 50.476 19.1278C50.4698 19.147 50.462 19.1665 50.4549 19.1861C50.4494 19.2018 50.444 19.2172 50.4381 19.2329C50.4205 19.2794 50.4021 19.3262 50.3817 19.373C50.3802 19.3765 50.379 19.3799 50.3774 19.3834C50.377 19.3837 50.377 19.3845 50.3767 19.3849C50.3528 19.4394 50.327 19.4939 50.2996 19.5484C50.2925 19.5622 50.2855 19.576 50.2784 19.5894C50.2651 19.6148 50.2507 19.6386 50.237 19.6631C50.2209 19.6919 50.2053 19.7207 50.1888 19.7487C50.1853 19.7548 50.1822 19.761 50.1783 19.7671C50.1614 19.7951 50.143 19.8216 50.1254 19.8489C50.111 19.8711 50.0973 19.8941 50.0824 19.916C50.0796 19.9199 50.0773 19.9245 50.0746 19.9283C50.0519 19.9613 50.028 19.9932 50.0045 20.025C49.9924 20.0411 49.981 20.058 49.9689 20.0741C49.9677 20.076 49.9662 20.078 49.965 20.0795C49.9325 20.1221 49.8985 20.1628 49.8644 20.2027C49.8586 20.2096 49.8527 20.2173 49.8468 20.2242C49.8464 20.2246 49.8464 20.2246 49.846 20.2249C49.8351 20.2376 49.8233 20.2491 49.8124 20.2618C49.7799 20.2982 49.7474 20.3343 49.7138 20.3689C49.713 20.3696 49.7126 20.37 49.7118 20.3708C49.7056 20.3773 49.6989 20.3827 49.6926 20.3888C49.6508 20.4306 49.6085 20.4709 49.5655 20.5093C49.5619 20.5124 49.5584 20.5162 49.5549 20.5193C49.5463 20.527 49.5373 20.5331 49.5287 20.5404C49.4798 20.5826 49.4301 20.6221 49.38 20.6594C49.3706 20.6663 49.3616 20.6747 49.3522 20.6816C49.3428 20.6885 49.333 20.6939 49.3236 20.7008C49.2966 20.7196 49.27 20.7373 49.2426 20.7549C49.2195 20.7699 49.1968 20.7845 49.1738 20.7983C49.1464 20.8144 49.119 20.8294 49.0916 20.8443C49.0685 20.8566 49.0458 20.8693 49.0227 20.8804C48.9949 20.8938 48.9675 20.9057 48.9398 20.9176C48.9171 20.9272 48.8944 20.9376 48.8717 20.946C48.8435 20.9568 48.8157 20.9656 48.7879 20.9744C48.766 20.9813 48.7437 20.9894 48.7218 20.9952C48.6932 21.0028 48.6654 21.0082 48.6373 21.014C48.6161 21.0182 48.595 21.0236 48.5743 21.0266C48.5453 21.0308 48.5167 21.0328 48.4882 21.0351C48.469 21.0366 48.4494 21.0393 48.4303 21.0397C48.399 21.0404 48.3684 21.0378 48.3379 21.0358C48.3223 21.0347 48.3062 21.0351 48.291 21.0335C48.2452 21.0282 48.2006 21.0193 48.1571 21.007C48.0843 20.9863 48.0174 20.9568 47.9572 20.9192L47.5874 20.6889C47.6476 20.7265 47.7146 20.7561 47.7873 20.7768C47.83 20.7883 47.8746 20.7968 47.92 20.8025Z" fill="url(#paint9_linear)"/>
<path d="M49.6163 17.1649C48.9382 16.973 47.9791 17.6254 47.4739 18.6228C46.9691 19.6194 47.1088 20.5842 47.7873 20.7761C48.4651 20.9679 49.425 20.3148 49.9298 19.3182C50.435 18.3204 50.2941 17.3568 49.6163 17.1649Z" fill="url(#paint10_linear)"/>
<path opacity="0.4" d="M49.4213 17.3698C49.9287 17.569 49.985 18.4267 49.5461 19.2818C49.1075 20.1374 48.3379 20.671 47.8302 20.4718C47.3228 20.2726 47.2664 19.4149 47.7054 18.5598C48.1439 17.7047 48.9135 17.171 49.4213 17.3698ZM47.8957 18.6346C47.5482 19.312 47.5926 19.9922 47.9954 20.1503C48.3975 20.308 49.0075 19.8847 49.355 19.2074C49.7029 18.5287 49.6585 17.8489 49.2564 17.6913C48.854 17.5332 48.2436 17.9564 47.8957 18.6346Z" fill="#FEFBB4"/>
<path d="M49.3234 18.7594L48.4112 18.2808C48.616 18.085 48.8692 17.9868 49.0483 18.0808C49.1595 18.1391 49.2235 18.2622 49.2431 18.414L49.3878 18.4899C49.403 18.2147 49.3122 18.0108 49.1367 17.9187C48.8624 17.7748 48.4554 17.9805 48.1683 18.3758L48.1741 18.3788L48.5985 18.6015L48.4699 18.8373L48.0455 18.6147L47.9512 18.7876L48.3755 19.0103L47.9724 19.7492L48.0762 19.8036L48.4793 19.0647L48.5547 19.1043L48.1516 19.8432L48.2648 19.9026L48.6679 19.1637L48.939 19.3059L48.9553 19.3145L49.0403 19.359C49.0824 19.3003 49.1254 19.2312 49.162 19.164C49.2345 19.0308 49.293 18.885 49.3234 18.7594ZM48.6491 18.9314L48.5736 18.8918L48.7023 18.656L48.7777 18.6955L48.6491 18.9314ZM48.7622 18.9907L48.8909 18.7549L49.1599 18.8961C49.1366 18.9647 49.1007 19.0445 49.0618 19.1158C49.0582 19.1225 49.0567 19.125 49.048 19.1407L48.7622 18.9907Z" fill="#F4D27C"/>
</g>
<g opacity="0.5" filter="url(#filter1_f)">
<path d="M63.6636 14.8213C63.6546 14.8224 63.6454 14.8222 63.6362 14.8226C63.618 14.824 63.6001 14.8254 63.5814 14.8249C63.5701 14.8247 63.5588 14.8231 63.5475 14.8222C63.5307 14.8208 63.5139 14.8199 63.4966 14.8172C63.4844 14.8154 63.4718 14.8123 63.4593 14.8098C63.4427 14.8064 63.4264 14.8032 63.4096 14.7987C63.3967 14.7953 63.3835 14.7906 63.3706 14.7865C63.3543 14.7813 63.3379 14.7761 63.3214 14.7698C63.308 14.7648 63.2946 14.7587 63.2813 14.7531C63.2649 14.7461 63.2486 14.7391 63.2324 14.7312C63.2189 14.7246 63.2055 14.7172 63.1919 14.7099C63.1758 14.7013 63.1597 14.6925 63.1435 14.6831C63.13 14.6749 63.1164 14.6663 63.1028 14.6575C63.0869 14.6474 63.071 14.637 63.0553 14.6257C63.0443 14.618 63.0332 14.6096 63.0222 14.6015C62.9927 14.5796 62.9634 14.5561 62.9346 14.5315C62.9275 14.5252 62.9201 14.5195 62.9128 14.5132C62.8877 14.4908 62.8628 14.4671 62.8384 14.4427C62.8342 14.4384 62.8298 14.4348 62.8257 14.4305C62.8061 14.4106 62.7872 14.3894 62.7681 14.3682C62.7612 14.3605 62.7541 14.3535 62.7474 14.3456C62.7437 14.3415 62.7405 14.337 62.7368 14.3327C62.7158 14.3081 62.6953 14.2832 62.6753 14.2573C62.6681 14.248 62.6615 14.2381 62.6543 14.2286C62.6387 14.2073 62.6232 14.1863 62.6083 14.1642C62.5995 14.1513 62.5914 14.138 62.5829 14.1249C62.5703 14.1055 62.5578 14.0858 62.5458 14.0657C62.5359 14.0492 62.5267 14.0321 62.5175 14.0153C62.5051 13.993 62.4922 13.9708 62.4807 13.9478C62.4643 13.9153 62.4489 13.8828 62.4348 13.8505C62.4339 13.8484 62.4332 13.8466 62.4325 13.8448C62.4205 13.817 62.4095 13.7895 62.3991 13.7621C62.3957 13.7529 62.3924 13.7438 62.3892 13.7348C62.3821 13.7147 62.3752 13.6946 62.369 13.6747C62.3655 13.6637 62.362 13.6528 62.3588 13.6417C62.3531 13.6223 62.348 13.6029 62.3432 13.5837C62.3406 13.5737 62.3381 13.5638 62.3358 13.5541C62.3305 13.5308 62.3259 13.5076 62.3217 13.4848C62.3208 13.4796 62.3194 13.4741 62.3187 13.4687C62.3141 13.4407 62.3107 13.4131 62.3079 13.386C62.3072 13.3784 62.3068 13.3707 62.3063 13.363C62.3047 13.3436 62.3035 13.3244 62.3029 13.3056C62.3026 13.2961 62.3026 13.2867 62.3026 13.2772C62.3026 13.2605 62.3029 13.2437 62.3035 13.2275C62.304 13.218 62.3045 13.2085 62.3052 13.1992C62.3063 13.183 62.3081 13.1669 62.3102 13.1511C62.3114 13.1428 62.3123 13.1344 62.3134 13.1263C62.3164 13.1069 62.3204 13.0881 62.3245 13.0696C62.3254 13.0657 62.3261 13.0615 62.327 13.0576C62.3326 13.0359 62.339 13.0151 62.3462 12.9948C62.3554 12.9686 62.3662 12.9438 62.3784 12.9203C62.3821 12.913 62.3865 12.9065 62.3904 12.8995C62.3984 12.8855 62.4067 12.8715 62.4159 12.8584C62.4217 12.8503 62.4277 12.8428 62.4339 12.8351C62.4417 12.8252 62.4498 12.8155 62.4583 12.8062C62.4655 12.7988 62.4728 12.7917 62.4802 12.7847C62.4887 12.7768 62.4972 12.7692 62.5065 12.7619C62.5196 12.7513 62.5329 12.7409 62.5475 12.7321L62.3298 12.8676C62.3192 12.8742 62.3088 12.8814 62.2989 12.8889C62.2952 12.8916 62.2923 12.895 62.2888 12.8977C62.2798 12.9049 62.2711 12.9126 62.2625 12.9205C62.2579 12.9248 62.2529 12.9284 62.2483 12.9329C62.2455 12.9359 62.2432 12.9392 62.2404 12.9422C62.2319 12.9514 62.2238 12.9612 62.216 12.9711C62.2119 12.9763 62.207 12.9808 62.2031 12.9862C62.2013 12.9887 62.1999 12.9919 62.1981 12.9944C62.1888 13.0075 62.1808 13.0212 62.1727 13.0352C62.1695 13.0409 62.1656 13.0459 62.1626 13.0515C62.1619 13.0529 62.1614 13.0547 62.1605 13.056C62.1483 13.0795 62.1377 13.1046 62.1283 13.1306C62.1278 13.1317 62.1271 13.1328 62.1269 13.134C62.1202 13.1532 62.1144 13.173 62.1094 13.1934C62.1085 13.1972 62.1078 13.2013 62.1068 13.2051C62.1032 13.2205 62.0997 13.2361 62.0969 13.2521C62.0965 13.2553 62.0962 13.2586 62.0958 13.2618C62.0944 13.2699 62.0935 13.2783 62.0926 13.2867C62.0905 13.3025 62.0889 13.3185 62.0875 13.3348C62.0868 13.344 62.0863 13.3535 62.0859 13.363C62.0852 13.3793 62.085 13.396 62.085 13.4127C62.085 13.4222 62.085 13.4314 62.0852 13.4409C62.0857 13.4599 62.087 13.4791 62.0886 13.4985C62.0893 13.5062 62.0896 13.5137 62.0903 13.5213C62.093 13.5485 62.0965 13.576 62.1011 13.604C62.102 13.6092 62.1032 13.6146 62.1041 13.6198C62.1082 13.6429 62.1126 13.6659 62.1181 13.6892C62.1204 13.6991 62.123 13.7091 62.1255 13.719C62.1303 13.7382 62.1354 13.7574 62.1412 13.7768C62.1444 13.7879 62.1478 13.799 62.1513 13.81C62.1541 13.8186 62.1561 13.827 62.1591 13.8355C62.1628 13.8468 62.1674 13.8584 62.1716 13.8699C62.1748 13.8791 62.178 13.8882 62.1815 13.8974C62.1918 13.9248 62.2027 13.9523 62.2146 13.9799C62.2156 13.9819 62.2162 13.9839 62.2172 13.986C62.2174 13.9862 62.2174 13.9867 62.2176 13.9869C62.2317 14.019 62.2469 14.051 62.263 14.0831C62.2671 14.0912 62.2713 14.0994 62.2754 14.1073C62.2833 14.1222 62.2918 14.1362 62.2999 14.1507C62.3093 14.1676 62.3185 14.1845 62.3282 14.201C62.3303 14.2046 62.3321 14.2082 62.3344 14.2119C62.3443 14.2284 62.3551 14.2439 62.3655 14.26C62.374 14.2731 62.3821 14.2866 62.3908 14.2995C62.3924 14.3018 62.3938 14.3045 62.3954 14.3067C62.4088 14.3262 62.4229 14.3449 62.4367 14.3637C62.4438 14.3731 62.4505 14.3831 62.4576 14.3926C62.4583 14.3937 62.4592 14.3948 62.4599 14.3957C62.4791 14.4208 62.4991 14.4447 62.5191 14.4682C62.5226 14.4723 62.526 14.4768 62.5295 14.4809C62.5297 14.4811 62.5297 14.4811 62.53 14.4813C62.5364 14.4888 62.5433 14.4956 62.5498 14.503C62.5689 14.5245 62.588 14.5457 62.6078 14.566C62.6083 14.5665 62.6085 14.5667 62.609 14.5672C62.6126 14.571 62.6166 14.5742 62.6202 14.5778C62.6449 14.6024 62.6698 14.6261 62.6951 14.6487C62.6972 14.6505 62.6992 14.6528 62.7013 14.6546C62.7064 14.6591 62.7117 14.6627 62.7167 14.667C62.7455 14.6919 62.7748 14.7151 62.8043 14.737C62.8098 14.7411 62.8151 14.7461 62.8206 14.7501C62.8262 14.7542 62.8319 14.7574 62.8374 14.7614C62.8533 14.7725 62.869 14.7829 62.8851 14.7933C62.8987 14.8021 62.9121 14.8107 62.9257 14.8188C62.9418 14.8283 62.9579 14.8371 62.974 14.8459C62.9876 14.8531 63.001 14.8606 63.0146 14.8671C63.0309 14.8751 63.047 14.8821 63.0634 14.8891C63.0767 14.8947 63.0901 14.9008 63.1035 14.9058C63.1201 14.9121 63.1364 14.9173 63.1528 14.9225C63.1657 14.9266 63.1788 14.9313 63.1917 14.9347C63.2085 14.9392 63.2248 14.9424 63.2414 14.9458C63.2539 14.9482 63.2663 14.9514 63.2785 14.9532C63.2956 14.9557 63.3124 14.9568 63.3292 14.9582C63.3405 14.9591 63.352 14.9607 63.3633 14.9609C63.3817 14.9613 63.3997 14.9598 63.4176 14.9586C63.4268 14.9579 63.4363 14.9582 63.4453 14.9573C63.4722 14.9541 63.4985 14.9489 63.524 14.9417C63.5669 14.9295 63.6063 14.9121 63.6417 14.89L63.8594 14.7544C63.8239 14.7766 63.7845 14.794 63.7417 14.8062C63.7166 14.8129 63.6903 14.8179 63.6636 14.8213Z" fill="url(#paint11_linear)"/>
<path d="M62.6661 12.6809C63.0653 12.568 63.6298 12.952 63.9272 13.539C64.2243 14.1256 64.1421 14.6935 63.7427 14.8064C63.3438 14.9194 62.7788 14.5349 62.4817 13.9483C62.1843 13.361 62.2672 12.7938 62.6661 12.6809Z" fill="url(#paint12_linear)"/>
<path opacity="0.4" d="M62.7802 12.8016C62.4816 12.9188 62.4484 13.4237 62.7068 13.927C62.9649 14.4306 63.4179 14.7447 63.7167 14.6274C64.0154 14.5101 64.0486 14.0053 63.7902 13.502C63.5321 12.9987 63.0791 12.6846 62.7802 12.8016ZM63.6782 13.546C63.8827 13.9447 63.8566 14.3451 63.6195 14.4382C63.3828 14.531 63.0238 14.2818 62.8192 13.8831C62.6145 13.4837 62.6406 13.0836 62.8772 12.9908C63.1141 12.8977 63.4734 13.1468 63.6782 13.546Z" fill="#FEFBB4"/>
<path d="M62.8364 13.6196L63.3733 13.3379C63.2528 13.2226 63.1038 13.1648 62.9984 13.2201C62.9329 13.2545 62.8952 13.3269 62.8837 13.4163L62.7985 13.461C62.7896 13.299 62.843 13.179 62.9464 13.1248C63.1078 13.04 63.3473 13.1611 63.5163 13.3938L63.5129 13.3956L63.2631 13.5267L63.3388 13.6655L63.5885 13.5344L63.6441 13.6362L63.3943 13.7673L63.6315 14.2022L63.5704 14.2343L63.3332 13.7993L63.2888 13.8226L63.526 14.2576L63.4594 14.2925L63.2222 13.8576L63.0627 13.9413L63.053 13.9464L63.003 13.9726C62.9783 13.938 62.9529 13.8973 62.9314 13.8578C62.8887 13.7794 62.8543 13.6936 62.8364 13.6196ZM63.2333 13.7208L63.2777 13.6975L63.202 13.5587L63.1576 13.582L63.2333 13.7208ZM63.1667 13.7558L63.091 13.617L62.9326 13.7001C62.9464 13.7405 62.9675 13.7874 62.9904 13.8294C62.9925 13.8334 62.9934 13.8349 62.9985 13.8441L63.1667 13.7558Z" fill="#F4D27C"/>
</g>
<g opacity="0.5" filter="url(#filter2_f)">
<path d="M43.7964 23.8685C43.8024 23.8618 43.8073 23.8542 43.8129 23.847C43.8242 23.8329 43.8353 23.819 43.8453 23.8036C43.8514 23.7943 43.8564 23.7842 43.8619 23.7745C43.8701 23.7601 43.8787 23.7459 43.8861 23.7303C43.8913 23.7193 43.8957 23.7073 43.9005 23.6957C43.9069 23.6804 43.9133 23.6653 43.9189 23.6491C43.9232 23.6367 43.9265 23.6233 43.9302 23.6106C43.935 23.5944 43.9397 23.5781 43.9436 23.5611C43.9468 23.5475 43.9491 23.5332 43.9517 23.5192C43.9549 23.5019 43.9581 23.4847 43.9604 23.4672C43.9624 23.4525 43.9636 23.4374 43.965 23.4224C43.9667 23.4044 43.9683 23.3864 43.9692 23.368C43.9699 23.3524 43.9702 23.3365 43.9703 23.3206C43.9706 23.302 43.9706 23.2832 43.9698 23.2642C43.9694 23.2509 43.9685 23.2372 43.9678 23.2237C43.9657 23.1875 43.9621 23.1506 43.9573 23.1134C43.9559 23.1041 43.9552 23.0949 43.954 23.0854C43.949 23.0525 43.9428 23.019 43.9358 22.9855C43.9344 22.9798 43.9338 22.9742 43.9325 22.9684C43.9266 22.9414 43.9191 22.9142 43.9118 22.8868C43.9091 22.8769 43.9072 22.8672 43.9042 22.8573C43.9028 22.8521 43.9008 22.8469 43.8992 22.8415C43.8901 22.8107 43.8804 22.7802 43.8696 22.7494C43.8658 22.7384 43.8611 22.7275 43.857 22.7164C43.8478 22.6918 43.8386 22.6675 43.8282 22.643C43.8221 22.6287 43.8154 22.6147 43.809 22.6004C43.7996 22.5793 43.7899 22.5582 43.7796 22.5373C43.7711 22.52 43.7617 22.5029 43.7527 22.4861C43.7407 22.4635 43.7291 22.4407 43.7161 22.4185C43.6976 22.387 43.6787 22.3563 43.6592 22.3269C43.658 22.325 43.6568 22.3235 43.6557 22.3219C43.6388 22.2966 43.6216 22.2723 43.6043 22.2486C43.5984 22.2406 43.5925 22.233 43.5867 22.2253C43.5736 22.2083 43.5604 22.1915 43.5471 22.1753C43.5396 22.1664 43.5324 22.1575 43.5248 22.1487C43.5116 22.1332 43.4979 22.1182 43.4844 22.1036C43.4774 22.096 43.4704 22.0884 43.4634 22.0811C43.4467 22.0638 43.4295 22.0471 43.4125 22.031C43.4087 22.0274 43.4048 22.0232 43.4006 22.0197C43.3795 22.0003 43.3581 21.9821 43.3367 21.9648C43.3305 21.9599 43.3243 21.9553 43.3181 21.9506C43.3025 21.9385 43.2869 21.9268 43.2714 21.9158C43.2635 21.9104 43.2555 21.9051 43.2474 21.8998C43.2333 21.8905 43.219 21.8813 43.2048 21.8728C43.1966 21.8679 43.1883 21.863 43.18 21.8584C43.1656 21.8503 43.151 21.8429 43.1365 21.8357C43.1288 21.832 43.1212 21.8281 43.1136 21.8245C43.0955 21.8161 43.0775 21.8089 43.0595 21.8019C43.0557 21.8005 43.0517 21.7987 43.0479 21.7973C43.0265 21.7897 43.0053 21.7834 42.9841 21.7779C42.9568 21.7708 42.9297 21.7658 42.903 21.7626C42.8949 21.7616 42.8869 21.7615 42.8788 21.7608C42.8624 21.7596 42.8459 21.7585 42.8297 21.7587C42.8196 21.7589 42.81 21.7596 42.8 21.7604C42.7872 21.7612 42.7745 21.7624 42.7619 21.7641C42.7516 21.7658 42.7416 21.7679 42.7315 21.77C42.7201 21.7725 42.7089 21.7752 42.6976 21.7787C42.6813 21.7835 42.6651 21.7885 42.6495 21.7954L42.8855 21.6937C42.897 21.6887 42.9089 21.6843 42.9207 21.6804C42.9251 21.6789 42.9296 21.6784 42.9338 21.6771C42.945 21.6738 42.9563 21.6709 42.9678 21.6684C42.974 21.667 42.9799 21.6649 42.9863 21.6637C42.9903 21.6631 42.9944 21.6631 42.9985 21.6625C43.011 21.6607 43.0238 21.6596 43.0365 21.6587C43.0433 21.6582 43.0498 21.6568 43.0565 21.6566C43.0597 21.6565 43.0631 21.6572 43.0663 21.657C43.0825 21.6568 43.0986 21.658 43.115 21.6592C43.1216 21.6597 43.128 21.6593 43.1344 21.66C43.1359 21.6602 43.1377 21.6608 43.1394 21.6608C43.1661 21.664 43.1932 21.6693 43.2205 21.6761C43.2217 21.6764 43.223 21.6764 43.2241 21.6769C43.2441 21.6821 43.2641 21.6885 43.2842 21.6957C43.2879 21.6971 43.2918 21.6988 43.2955 21.7002C43.3106 21.7058 43.3257 21.7116 43.3408 21.7183C43.3438 21.7197 43.3467 21.7214 43.3497 21.7228C43.3573 21.7262 43.3649 21.7301 43.3725 21.734C43.3871 21.7411 43.4015 21.7488 43.4161 21.7567C43.4243 21.7613 43.4326 21.7662 43.4409 21.7711C43.455 21.7796 43.4693 21.7888 43.4835 21.7981C43.4915 21.8034 43.4993 21.8085 43.5073 21.814C43.5231 21.8249 43.5385 21.8368 43.5541 21.8489C43.5602 21.8537 43.5664 21.8581 43.5725 21.8629C43.5939 21.8803 43.6153 21.8984 43.6365 21.9178C43.6404 21.9215 43.6443 21.9254 43.6482 21.9291C43.6654 21.9453 43.6825 21.9617 43.6991 21.9791C43.7062 21.9866 43.7132 21.9942 43.7202 22.0018C43.7338 22.0164 43.7472 22.0312 43.7605 22.0467C43.768 22.0555 43.7755 22.0645 43.7829 22.0735C43.7887 22.0805 43.7946 22.0869 43.8002 22.0941C43.8077 22.1034 43.8149 22.1136 43.8223 22.1233C43.8284 22.1311 43.8342 22.1388 43.8401 22.1468C43.8575 22.1704 43.8748 22.1946 43.8915 22.2197C43.8927 22.2216 43.894 22.2233 43.8952 22.2252C43.8953 22.2255 43.8956 22.2257 43.8957 22.2261C43.915 22.2554 43.9337 22.2856 43.9519 22.3166C43.9565 22.3245 43.961 22.3324 43.9654 22.3402C43.9737 22.3549 43.9808 22.3697 43.9885 22.3843C43.9976 22.4014 44.0068 22.4183 44.0154 22.4354C44.0173 22.4391 44.0194 22.4426 44.0211 22.4465C44.0296 22.4638 44.0367 22.4813 44.0445 22.4986C44.0509 22.5129 44.0579 22.527 44.0639 22.5413C44.0649 22.5439 44.0664 22.5465 44.0674 22.5491C44.0764 22.5708 44.0845 22.5927 44.0927 22.6144C44.0967 22.6255 44.1014 22.6365 44.1055 22.6476C44.106 22.6487 44.1065 22.6501 44.1069 22.6512C44.1174 22.6807 44.1265 22.7104 44.1353 22.7398C44.1368 22.7449 44.1387 22.7502 44.1402 22.7553C44.1403 22.7556 44.1403 22.7556 44.1403 22.7559C44.143 22.7653 44.1449 22.7747 44.1476 22.7841C44.1552 22.8117 44.1625 22.8391 44.1687 22.8665C44.1688 22.8671 44.1689 22.8675 44.169 22.8681C44.1702 22.8732 44.1707 22.8782 44.1717 22.8832C44.1788 22.917 44.185 22.9505 44.19 22.9837C44.1904 22.9864 44.1912 22.9893 44.1915 22.992C44.1925 22.9987 44.1926 23.005 44.1934 23.0115C44.1984 23.0488 44.2018 23.0856 44.204 23.1218C44.2043 23.1286 44.2056 23.1356 44.2059 23.1424C44.2063 23.1492 44.2058 23.1556 44.2061 23.1624C44.2067 23.1815 44.2067 23.2 44.2065 23.219C44.2064 23.2349 44.2062 23.2506 44.2056 23.2662C44.2046 23.2846 44.2031 23.3027 44.2016 23.3207C44.2001 23.3358 44.199 23.3508 44.1969 23.3655C44.1945 23.3833 44.1915 23.4003 44.1883 23.4175C44.1856 23.4315 44.1833 23.4458 44.1801 23.4595C44.1762 23.4765 44.1715 23.4927 44.1668 23.5089C44.1631 23.5217 44.1598 23.535 44.1554 23.5474C44.1499 23.5636 44.1435 23.5787 44.1371 23.5941C44.1323 23.6056 44.128 23.6175 44.1227 23.6284C44.1153 23.6437 44.1069 23.658 44.0987 23.6725C44.0932 23.6822 44.0881 23.6924 44.082 23.7017C44.0721 23.717 44.0608 23.7307 44.0498 23.7447C44.0441 23.7519 44.039 23.7597 44.0332 23.7665C44.0156 23.7867 43.9965 23.8052 43.9762 23.822C43.942 23.85 43.9053 23.8724 43.8668 23.889L43.6307 23.9907C43.6692 23.9742 43.7059 23.9518 43.7401 23.9237C43.7598 23.907 43.7787 23.8884 43.7964 23.8685Z" fill="url(#paint13_linear)"/>
<path d="M42.5391 21.863C42.221 22.1251 42.2316 22.7988 42.5629 23.368C42.8941 23.9369 43.4207 24.1864 43.7389 23.9241C44.0568 23.6621 44.0461 22.9878 43.715 22.419C43.3834 21.8496 42.857 21.6011 42.5391 21.863Z" fill="url(#paint14_linear)"/>
<path opacity="0.4" d="M42.5774 22.0235C42.8431 21.8457 43.289 22.1 43.5712 22.5908C43.8537 23.0816 43.8672 23.6255 43.6014 23.8036C43.3357 23.9814 42.8898 23.7271 42.6076 23.2363C42.3253 22.7456 42.3118 22.2017 42.5774 22.0235ZM42.7073 23.1696C42.9309 23.5583 43.2845 23.7601 43.4954 23.6189C43.7058 23.4779 43.695 23.0467 43.4714 22.658C43.2473 22.2686 42.8939 22.0669 42.6835 22.208C42.4727 22.349 42.4834 22.7804 42.7073 23.1696Z" fill="#FEFBB4"/>
<path d="M43.2385 22.5258L42.7007 22.806C42.6703 22.6436 42.7044 22.4901 42.81 22.4351C42.8756 22.4009 42.9579 22.4105 43.04 22.451L43.1253 22.4065C42.9931 22.309 42.8617 22.2856 42.7582 22.3395C42.5966 22.4238 42.5656 22.6863 42.6684 22.9536L42.6718 22.9518L42.922 22.8214L42.9973 22.9604L42.7472 23.0908L42.8024 23.1928L43.0526 23.0624L43.2886 23.4979L43.3498 23.4661L43.1137 23.0305L43.1582 23.0073L43.3942 23.4429L43.461 23.4081L43.2249 22.9726L43.3847 22.8893L43.3944 22.8842L43.4444 22.8582C43.4289 22.8187 43.4086 22.7754 43.3872 22.7359C43.3446 22.6574 43.291 22.5816 43.2385 22.5258ZM43.103 22.9054L43.0585 22.9286L42.9832 22.7896L43.0276 22.7664L43.103 22.9054ZM43.1697 22.8706L43.0943 22.7316L43.2529 22.649C43.2795 22.6827 43.3075 22.726 43.3303 22.768C43.3324 22.772 43.3332 22.7735 43.3382 22.7828L43.1697 22.8706Z" fill="#F4D27C"/>
</g>
<path d="M54.8674 18.4403C54.8815 18.4271 54.8936 18.4116 54.9068 18.397C54.9338 18.3689 54.9605 18.3411 54.985 18.3098C54.9999 18.2909 55.0125 18.2702 55.0263 18.2504C55.0467 18.2208 55.068 18.1919 55.0867 18.1598C55.1002 18.1372 55.1119 18.1121 55.1245 18.0882C55.1412 18.0563 55.158 18.0251 55.173 17.9913C55.1847 17.9655 55.1944 17.9374 55.2049 17.9106C55.2181 17.8767 55.2314 17.8427 55.243 17.8068C55.2526 17.7781 55.2603 17.7478 55.2687 17.7182C55.2789 17.6817 55.2891 17.6453 55.2974 17.608C55.3046 17.5768 55.3099 17.5447 55.316 17.5125C55.3231 17.4743 55.3299 17.4358 55.3355 17.3964C55.34 17.363 55.3437 17.329 55.347 17.2947C55.3512 17.2547 55.3549 17.2145 55.3568 17.1734C55.3586 17.1447 55.3593 17.1152 55.3604 17.086C55.3628 17.0077 55.3622 16.9277 55.3591 16.8469C55.3579 16.8266 55.3582 16.8068 55.3574 16.7861C55.3531 16.7144 55.3462 16.6413 55.3375 16.568C55.3358 16.5554 55.3355 16.5433 55.3338 16.5306C55.3263 16.4715 55.3155 16.4116 55.3051 16.3513C55.3013 16.3295 55.299 16.3083 55.2945 16.2866C55.2925 16.275 55.2892 16.2635 55.2868 16.2517C55.273 16.1838 55.2583 16.1163 55.2409 16.0481C55.2348 16.0238 55.2268 15.9993 55.2202 15.9747C55.2051 15.9202 55.19 15.8663 55.1724 15.8116C55.1622 15.7797 55.1503 15.7484 55.1394 15.7166C55.1233 15.6694 55.1066 15.6223 55.0884 15.5753C55.0735 15.5367 55.0566 15.4982 55.0405 15.4604C55.0191 15.4096 54.9986 15.3584 54.9748 15.3082C54.9412 15.2372 54.9065 15.1677 54.8702 15.1007C54.8679 15.0965 54.8658 15.0929 54.8636 15.0893C54.8323 15.0319 54.8001 14.9764 54.7673 14.9222C54.7561 14.904 54.745 14.8864 54.7339 14.8689C54.7092 14.8299 54.6841 14.7913 54.6585 14.7541C54.6442 14.7334 54.6304 14.713 54.6158 14.6927C54.5903 14.6569 54.5639 14.6222 54.5376 14.5882C54.524 14.5706 54.5104 14.5529 54.4969 14.536C54.4642 14.4957 54.4306 14.4566 54.3972 14.4189C54.3895 14.4103 54.3821 14.4007 54.3738 14.3922C54.3321 14.3466 54.2895 14.3036 54.2469 14.2623C54.2347 14.2508 54.2221 14.2396 54.2096 14.2284C54.1785 14.1994 54.1472 14.1715 54.116 14.145C54.1001 14.1317 54.0839 14.1189 54.0676 14.106C54.039 14.0834 54.01 14.0611 53.9813 14.0402C53.9644 14.0281 53.9475 14.016 53.9307 14.0046C53.9013 13.9844 53.8713 13.9657 53.8415 13.9477C53.8256 13.9383 53.81 13.9285 53.7945 13.9194C53.7572 13.898 53.7198 13.879 53.6825 13.8607C53.6746 13.857 53.6664 13.8524 53.6585 13.8487C53.6139 13.8284 53.5696 13.8109 53.5251 13.7951C53.4677 13.7747 53.4105 13.7589 53.3537 13.7472C53.3364 13.7434 53.3192 13.7418 53.3019 13.7387C53.267 13.733 53.2318 13.7277 53.1969 13.7251C53.1751 13.7236 53.1543 13.7233 53.1327 13.7232C53.105 13.7226 53.0775 13.7227 53.0501 13.7242C53.0276 13.7258 53.0056 13.7285 52.9837 13.7311C52.9586 13.7345 52.9339 13.7381 52.909 13.7435C52.873 13.7507 52.8371 13.7586 52.8024 13.7706L53.3295 13.5958C53.355 13.5872 53.3815 13.5799 53.4077 13.5737C53.4173 13.5713 53.4272 13.571 53.4365 13.569C53.461 13.564 53.486 13.56 53.5111 13.5566C53.5247 13.5549 53.5378 13.5514 53.5518 13.55C53.5605 13.5494 53.5695 13.5502 53.5782 13.5496C53.6056 13.5481 53.6332 13.548 53.6608 13.5486C53.6754 13.5488 53.6896 13.547 53.7042 13.5479C53.711 13.5482 53.7183 13.5502 53.725 13.5505C53.76 13.5531 53.7945 13.5585 53.8294 13.5642C53.8434 13.5666 53.8572 13.5668 53.871 13.5696C53.8742 13.5703 53.8779 13.5719 53.8815 13.5723C53.9383 13.584 53.9956 13.6005 54.0529 13.6202C54.0554 13.621 54.0583 13.6213 54.0605 13.6225C54.1025 13.6375 54.1443 13.655 54.186 13.6742C54.1938 13.6779 54.2017 13.6822 54.2095 13.6859C54.2408 13.7007 54.2722 13.7161 54.3034 13.7333C54.3095 13.7368 54.3156 13.741 54.3216 13.7446C54.3374 13.7533 54.353 13.7631 54.3685 13.7729C54.3984 13.7909 54.4281 13.81 54.4578 13.8298C54.4746 13.8412 54.4915 13.8533 54.5083 13.8654C54.5371 13.8863 54.5661 13.9086 54.5947 13.9312C54.6109 13.9441 54.6268 13.9566 54.6427 13.9699C54.6746 13.9963 54.7056 14.0246 54.7367 14.0536C54.7489 14.0652 54.7614 14.0756 54.7736 14.0872C54.8162 14.1285 54.8587 14.1715 54.9005 14.2171C54.9081 14.2256 54.9158 14.2349 54.9235 14.2434C54.9573 14.2815 54.9909 14.3199 55.0232 14.3605C55.0371 14.3778 55.0507 14.3955 55.0643 14.4131C55.0906 14.4471 55.1166 14.4815 55.1421 14.5173C55.1567 14.5376 55.1709 14.5583 55.1852 14.579C55.1962 14.5951 55.2077 14.6099 55.2183 14.6264C55.2326 14.6478 55.2461 14.671 55.2602 14.6935C55.2717 14.7113 55.2828 14.7289 55.294 14.7471C55.3268 14.8012 55.3593 14.8564 55.3902 14.9135C55.3925 14.9178 55.395 14.9217 55.3973 14.9259C55.3973 14.9266 55.3981 14.9272 55.3982 14.9279C55.4341 14.9945 55.4684 15.063 55.5015 15.1331C55.5098 15.1509 55.5181 15.1688 55.526 15.1863C55.5409 15.2194 55.5534 15.2524 55.5672 15.2853C55.5834 15.3238 55.5999 15.3619 55.615 15.4002C55.6184 15.4085 55.6221 15.4165 55.6252 15.4251C55.64 15.4638 55.652 15.5028 55.6654 15.5416C55.6763 15.5734 55.6886 15.605 55.6988 15.6369C55.7005 15.6426 55.7032 15.6485 55.7049 15.6542C55.7201 15.7026 55.7332 15.7511 55.7465 15.7993C55.7531 15.8239 55.7611 15.8484 55.7676 15.873C55.7686 15.8757 55.7693 15.8787 55.7699 15.8811C55.787 15.9466 55.8008 16.012 55.8139 16.0768C55.8162 16.088 55.8192 16.0999 55.8215 16.1111C55.8216 16.1117 55.8216 16.1117 55.8216 16.1124C55.8257 16.1332 55.8279 16.1537 55.8319 16.1744C55.8428 16.235 55.8532 16.2953 55.8612 16.3554C55.8613 16.3568 55.8614 16.3575 55.8616 16.3589C55.8631 16.3702 55.8633 16.3809 55.8645 16.3919C55.8732 16.4658 55.8801 16.5389 55.8845 16.6113C55.8847 16.6171 55.8858 16.6236 55.8861 16.6295C55.887 16.6439 55.886 16.6576 55.8865 16.6717C55.89 16.7528 55.8902 16.8325 55.8877 16.9108C55.8872 16.9254 55.8885 16.9409 55.888 16.9555C55.8875 16.9701 55.8851 16.9839 55.8846 16.9985C55.882 17.0396 55.8786 17.0795 55.8745 17.1202C55.8712 17.1545 55.8678 17.1881 55.8633 17.2215C55.8577 17.2609 55.8509 17.2994 55.8441 17.3379C55.8381 17.3701 55.8328 17.4022 55.8256 17.4335C55.8169 17.4711 55.8071 17.5072 55.7969 17.5436C55.7885 17.5732 55.7808 17.6035 55.7712 17.6322C55.7596 17.6681 55.7463 17.7021 55.733 17.7361C55.7225 17.7628 55.7128 17.7909 55.7012 17.8167C55.6861 17.8505 55.6694 17.8817 55.6527 17.9137C55.6401 17.9375 55.6287 17.9623 55.6152 17.9848C55.5964 18.0163 55.5755 18.0455 55.555 18.075C55.5413 18.0948 55.5284 18.1159 55.5135 18.1348C55.4893 18.1658 55.4622 18.1932 55.4359 18.2213C55.4223 18.2356 55.4099 18.2514 55.3962 18.265C55.3542 18.3051 55.3097 18.3413 55.2627 18.3736C55.1838 18.4276 55.1006 18.4689 55.0146 18.4974L54.4875 18.6722C54.5735 18.6437 54.6567 18.6024 54.7356 18.5484C54.7813 18.5163 54.8254 18.4797 54.8674 18.4403Z" fill="url(#paint15_linear)"/>
<path d="M52.5541 13.8948C51.8197 14.3992 51.7122 15.8494 52.3146 17.1348C52.9165 18.4192 54.0004 19.0533 54.735 18.5486C55.4691 18.0446 55.5765 16.5931 54.9746 15.3087C54.3718 14.023 53.2882 13.3909 52.5541 13.8948Z" fill="url(#paint16_linear)"/>
<path opacity="0.4" d="M52.6044 14.2466C53.2099 13.9137 54.1194 14.5432 54.6312 15.6509C55.1437 16.7585 55.0677 17.9303 54.4618 18.2636C53.8563 18.5965 52.9467 17.967 52.435 16.8593C51.9229 15.7521 51.9989 14.5803 52.6044 14.2466ZM52.6623 16.7346C53.0679 17.6118 53.7889 18.1113 54.2696 17.847C54.7492 17.5829 54.8092 16.6539 54.4036 15.7767C53.9971 14.898 53.2765 14.3988 52.7969 14.6629C52.3165 14.9269 52.2561 15.8563 52.6623 16.7346Z" fill="#FEFBB4"/>
<path d="M53.9284 15.4498L52.7182 15.9523C52.6843 15.5975 52.7873 15.2738 53.0248 15.1751C53.1724 15.1138 53.3475 15.1499 53.5161 15.252L53.7081 15.1723C53.4428 14.9381 53.1649 14.8635 52.932 14.9602C52.5682 15.1113 52.4508 15.6698 52.6202 16.2635L52.628 16.2603L53.191 16.0265L53.326 16.3394L52.7631 16.5731L52.8621 16.8026L53.4251 16.5688L53.8483 17.549L53.986 17.4918L53.5627 16.5116L53.6628 16.4701L54.086 17.4503L54.2362 17.3879L53.8129 16.4077L54.1725 16.2584L54.1943 16.2494L54.3069 16.2026C54.2813 16.1148 54.2459 16.018 54.2074 15.929C54.131 15.7525 54.0306 15.5794 53.9284 15.4498ZM53.5637 16.2406L53.4637 16.2822L53.3286 15.9694L53.4287 15.9278L53.5637 16.2406ZM53.7139 16.1783L53.5788 15.8655L53.9357 15.7173C53.9863 15.7946 54.0381 15.8931 54.079 15.9876C54.0828 15.9965 54.0842 15.9999 54.093 16.0208L53.7139 16.1783Z" fill="#F4D27C"/>
<g opacity="0.5">
<path d="M41.3851 17.7C41.3934 17.6922 41.4005 17.683 41.4083 17.6745C41.4242 17.6579 41.4399 17.6416 41.4543 17.6231C41.4631 17.612 41.4705 17.5998 41.4786 17.5881C41.4906 17.5708 41.5031 17.5537 41.5142 17.5348C41.5221 17.5216 41.529 17.5068 41.5364 17.4927C41.5463 17.4739 41.5561 17.4556 41.565 17.4357C41.5719 17.4205 41.5775 17.4039 41.5837 17.3882C41.5915 17.3682 41.5994 17.3482 41.6062 17.3271C41.6119 17.3102 41.6164 17.2923 41.6213 17.2749C41.6273 17.2534 41.6333 17.232 41.6382 17.2101C41.6424 17.1917 41.6456 17.1728 41.6491 17.1538C41.6533 17.1314 41.6573 17.1087 41.6606 17.0855C41.6633 17.0658 41.6655 17.0458 41.6674 17.0256C41.6698 17.0021 41.672 16.9784 41.6732 16.9542C41.6742 16.9374 41.6746 16.92 41.6753 16.9028C41.6767 16.8567 41.6763 16.8096 41.6745 16.7621C41.6738 16.7501 41.674 16.7385 41.6735 16.7263C41.671 16.6841 41.6669 16.6411 41.6618 16.5979C41.6608 16.5905 41.6606 16.5834 41.6596 16.5759C41.6552 16.5411 41.6489 16.5058 41.6427 16.4704C41.6405 16.4575 41.6391 16.445 41.6365 16.4322C41.6353 16.4254 41.6333 16.4187 41.632 16.4117C41.6239 16.3717 41.6152 16.3321 41.605 16.2919C41.6013 16.2776 41.5966 16.2632 41.5928 16.2487C41.5839 16.2166 41.575 16.1849 41.5646 16.1527C41.5586 16.1339 41.5516 16.1155 41.5452 16.0968C41.5358 16.069 41.5259 16.0413 41.5152 16.0136C41.5064 15.9909 41.4965 15.9682 41.487 15.946C41.4744 15.9161 41.4623 15.8859 41.4483 15.8564C41.4286 15.8146 41.4081 15.7737 41.3867 15.7343C41.3854 15.7318 41.3842 15.7296 41.3829 15.7275C41.3644 15.6938 41.3455 15.6611 41.3262 15.6292C41.3196 15.6185 41.3131 15.6081 41.3065 15.5978C41.292 15.5748 41.2772 15.5521 41.2621 15.5302C41.2537 15.5181 41.2456 15.5061 41.237 15.4941C41.222 15.473 41.2065 15.4526 41.191 15.4326C41.183 15.4222 41.175 15.4118 41.167 15.4019C41.1478 15.3782 41.128 15.3551 41.1083 15.3329C41.1038 15.3279 41.0995 15.3222 41.0946 15.3172C41.07 15.2904 41.045 15.2651 41.0199 15.2408C41.0127 15.234 41.0053 15.2274 40.9979 15.2208C40.9796 15.2038 40.9612 15.1873 40.9428 15.1717C40.9335 15.1639 40.9239 15.1564 40.9143 15.1488C40.8975 15.1355 40.8805 15.1223 40.8635 15.11C40.8536 15.1029 40.8437 15.0958 40.8338 15.0891C40.8165 15.0772 40.7988 15.0662 40.7812 15.0556C40.7719 15.0501 40.7627 15.0443 40.7536 15.0389C40.7316 15.0263 40.7096 15.0152 40.6876 15.0044C40.683 15.0022 40.6782 14.9995 40.6736 14.9973C40.6473 14.9854 40.6212 14.9751 40.595 14.9658C40.5613 14.9538 40.5276 14.9445 40.4942 14.9376C40.4839 14.9354 40.4738 14.9344 40.4637 14.9326C40.4431 14.9292 40.4224 14.9261 40.4018 14.9246C40.389 14.9237 40.3767 14.9235 40.364 14.9234C40.3478 14.9231 40.3316 14.9232 40.3154 14.924C40.3022 14.925 40.2893 14.9266 40.2763 14.9281C40.2616 14.9301 40.247 14.9322 40.2324 14.9354C40.2112 14.9397 40.1901 14.9443 40.1696 14.9514L40.4799 14.8485C40.4949 14.8434 40.5105 14.8391 40.5259 14.8355C40.5316 14.8341 40.5374 14.8339 40.5429 14.8327C40.5573 14.8297 40.572 14.8274 40.5868 14.8254C40.5948 14.8244 40.6025 14.8224 40.6107 14.8215C40.6159 14.8212 40.6211 14.8216 40.6263 14.8213C40.6424 14.8204 40.6587 14.8203 40.6749 14.8207C40.6835 14.8208 40.6919 14.8197 40.7005 14.8202C40.7044 14.8204 40.7087 14.8216 40.7127 14.8218C40.7333 14.8233 40.7536 14.8265 40.7741 14.8299C40.7824 14.8313 40.7905 14.8314 40.7986 14.833C40.8005 14.8334 40.8027 14.8344 40.8048 14.8346C40.8382 14.8415 40.8719 14.8513 40.9057 14.8628C40.9072 14.8633 40.9089 14.8635 40.9102 14.8642C40.9349 14.873 40.9595 14.8833 40.984 14.8946C40.9886 14.8968 40.9933 14.8993 40.9979 14.9015C41.0163 14.9102 41.0348 14.9193 41.0531 14.9294C41.0567 14.9315 41.0603 14.934 41.0639 14.936C41.0732 14.9412 41.0823 14.9469 41.0915 14.9527C41.1091 14.9633 41.1265 14.9746 41.144 14.9862C41.1539 14.9929 41.1638 15 41.1738 15.0071C41.1907 15.0195 41.2077 15.0326 41.2246 15.0459C41.2341 15.0535 41.2435 15.0609 41.2529 15.0686C41.2716 15.0842 41.2899 15.1009 41.3082 15.1179C41.3153 15.1247 41.3227 15.1309 41.3299 15.1377C41.355 15.162 41.38 15.1873 41.4046 15.2141C41.4091 15.2192 41.4136 15.2246 41.4181 15.2297C41.438 15.2521 41.4578 15.2747 41.4768 15.2986C41.485 15.3088 41.493 15.3191 41.501 15.3295C41.5165 15.3495 41.5318 15.3698 41.5468 15.3908C41.5554 15.4028 41.5638 15.415 41.5722 15.4272C41.5786 15.4367 41.5854 15.4454 41.5916 15.4551C41.6001 15.4677 41.608 15.4813 41.6163 15.4946C41.6231 15.5051 41.6296 15.5154 41.6362 15.5261C41.6555 15.558 41.6746 15.5905 41.6928 15.6241C41.6942 15.6266 41.6957 15.6289 41.697 15.6314C41.697 15.6318 41.6975 15.6321 41.6975 15.6325C41.7186 15.6718 41.7388 15.7121 41.7583 15.7533C41.7632 15.7638 41.7681 15.7743 41.7728 15.7846C41.7815 15.8041 41.7889 15.8236 41.797 15.8429C41.8065 15.8656 41.8163 15.888 41.8252 15.9105C41.8272 15.9154 41.8293 15.9201 41.8311 15.9252C41.8399 15.948 41.8469 15.9709 41.8548 15.9937C41.8612 16.0125 41.8685 16.0311 41.8745 16.0498C41.8754 16.0532 41.8771 16.0567 41.8781 16.0601C41.887 16.0885 41.8947 16.1171 41.9026 16.1455C41.9064 16.1599 41.9111 16.1743 41.915 16.1888C41.9156 16.1904 41.916 16.1922 41.9163 16.1936C41.9264 16.2321 41.9345 16.2706 41.9422 16.3088C41.9435 16.3154 41.9453 16.3224 41.9467 16.329C41.9467 16.3294 41.9467 16.3294 41.9468 16.3298C41.9491 16.342 41.9505 16.3541 41.9528 16.3663C41.9592 16.4019 41.9654 16.4374 41.97 16.4728C41.9701 16.4736 41.9702 16.474 41.9703 16.4748C41.9712 16.4815 41.9713 16.4878 41.972 16.4942C41.9771 16.5378 41.9812 16.5808 41.9837 16.6234C41.9839 16.6268 41.9845 16.6306 41.9847 16.6341C41.9852 16.6426 41.9846 16.6506 41.9849 16.659C41.987 16.7067 41.9871 16.7536 41.9857 16.7997C41.9854 16.8083 41.9861 16.8174 41.9858 16.826C41.9855 16.8346 41.9841 16.8427 41.9838 16.8513C41.9823 16.8755 41.9803 16.899 41.9779 16.9229C41.9759 16.9431 41.9739 16.9629 41.9713 16.9826C41.968 17.0058 41.964 17.0284 41.96 17.0511C41.9565 17.07 41.9533 17.0889 41.9491 17.1073C41.944 17.1295 41.9382 17.1507 41.9322 17.1721C41.9272 17.1896 41.9227 17.2074 41.9171 17.2243C41.9102 17.2454 41.9024 17.2654 41.8946 17.2854C41.8884 17.3012 41.8827 17.3177 41.8759 17.3329C41.867 17.3528 41.8571 17.3712 41.8473 17.39C41.8399 17.404 41.8332 17.4186 41.8253 17.4319C41.8142 17.4504 41.8019 17.4676 41.7898 17.4849C41.7818 17.4966 41.7742 17.509 41.7654 17.5202C41.7511 17.5384 41.7352 17.5545 41.7197 17.571C41.7117 17.5794 41.7044 17.5888 41.6963 17.5968C41.6716 17.6204 41.6455 17.6417 41.6178 17.6607C41.5713 17.6925 41.5224 17.7168 41.4718 17.7335L41.1615 17.8364C41.2121 17.8197 41.2611 17.7954 41.3075 17.7636C41.3344 17.7447 41.3604 17.7232 41.3851 17.7Z" fill="url(#paint17_linear)"/>
<path d="M40.0228 15.0247C39.5906 15.3215 39.5273 16.1751 39.8819 16.9317C40.2361 17.6877 40.8741 18.061 41.3065 17.7639C41.7386 17.4672 41.8018 16.6128 41.4475 15.8568C41.0928 15.1001 40.4549 14.728 40.0228 15.0247Z" fill="url(#paint18_linear)"/>
<path opacity="0.4" d="M40.0531 15.2317C40.4095 15.0358 40.9449 15.4063 41.2461 16.0583C41.5478 16.7102 41.503 17.3999 41.1464 17.5961C40.79 17.7921 40.2546 17.4215 39.9534 16.7696C39.652 16.1178 39.6968 15.4282 40.0531 15.2317ZM40.0872 16.6962C40.3259 17.2125 40.7503 17.5065 41.0333 17.3509C41.3156 17.1955 41.3509 16.6487 41.1122 16.1324C40.8729 15.6152 40.4488 15.3213 40.1664 15.4768C39.8837 15.6322 39.8482 16.1792 40.0872 16.6962Z" fill="#FEFBB4"/>
<path d="M40.8335 15.9398L40.1212 16.2356C40.1012 16.0267 40.1618 15.8362 40.3017 15.7781C40.3885 15.7421 40.4916 15.7633 40.5909 15.8234L40.7038 15.7765C40.5477 15.6387 40.3841 15.5947 40.247 15.6516C40.0329 15.7406 39.9638 16.0693 40.0635 16.4188L40.0681 16.4169L40.3995 16.2793L40.479 16.4634L40.1476 16.601L40.2059 16.736L40.5373 16.5984L40.7864 17.1754L40.8674 17.1418L40.6183 16.5648L40.6772 16.5403L40.9263 17.1173L41.0147 17.0806L40.7655 16.5036L40.9772 16.4157L40.99 16.4104L41.0563 16.3829C41.0412 16.3313 41.0204 16.2743 40.9978 16.2219C40.9528 16.118 40.8937 16.0161 40.8335 15.9398ZM40.6189 16.4053L40.56 16.4298L40.4805 16.2456L40.5394 16.2212L40.6189 16.4053ZM40.7072 16.3686L40.6277 16.1845L40.8378 16.0972C40.8676 16.1428 40.8981 16.2007 40.9221 16.2564C40.9244 16.2616 40.9252 16.2636 40.9304 16.2759L40.7072 16.3686Z" fill="#F4D27C"/>
</g>
<path d="M38.2779 60.9488C37.2785 54.3144 38.201 51.1982 39.8154 49.037C42.1985 49.037 47.426 49.4743 49.2709 51.2234C51.1159 52.9724 52.5046 63.027 54.5753 70.2218L57.6181 81.1712L56.0655 81.6015L49.9339 70.2218L47.7745 66.0019L44.4279 60.9488C44.0212 67.7162 45.2543 68.3947 45.4094 69.9348C46.8514 84.2495 48.0327 83.7861 45.4094 84.019L38.2779 60.9488Z" fill="black"/>
<path d="M41.7735 29.0367C41.3743 28.1755 42.1679 27.7738 42.6146 27.6806C44.026 27.401 45.2378 34.727 45.1522 34.9507C45.0667 35.1744 43.0566 36.0132 41.4456 35.5658C39.8347 35.1184 40.519 34.2656 42.1727 32.2943C42.749 31.6073 42.2725 30.1133 41.7735 29.0367Z" fill="#F62054"/>
<path d="M35.8478 38.6095C37.0409 39.1295 39.4025 36.5584 42.1918 35.2855C42.7128 37.9564 39.9478 42.7445 35.8478 41.9758C32.894 41.422 31.0805 34.5737 32.047 33.6529C31.7156 35.1967 34.6548 38.0895 35.8478 38.6095Z" fill="#8C4739"/>
<path d="M35.8478 38.6095C37.0409 39.1295 39.4025 36.5584 42.1918 35.2855C42.7128 37.9564 39.9478 42.7445 35.8478 41.9758C32.894 41.422 31.0805 34.5737 32.047 33.6529C31.7156 35.1967 34.6548 38.0895 35.8478 38.6095Z" fill="url(#paint19_linear)"/>
<path d="M43.7158 33.1L43.916 34.7428L43.2518 35.0219L41.606 39.0757L42.3032 43.0072L49.1318 35.2201L46.9743 34.8897L45.6753 31.4125L43.7158 33.1Z" fill="#8C4739"/>
<path d="M43.7158 33.1L43.916 34.7428L43.2518 35.0219L41.606 39.0757L42.3032 43.0072L49.1318 35.2201L46.9743 34.8897L45.6753 31.4125L43.7158 33.1Z" fill="url(#paint20_linear)"/>
<path fill-rule="evenodd" clip-rule="evenodd" d="M44.2022 33.6284C42.9811 34.0349 42.3691 33.4484 42.4088 32.8174L42.4745 31.305L42.0461 31.2286L42.5147 30.3794L42.637 27.565L46.2209 27.4868L47.2085 29.8227V31.1063L46.1964 32.7616L44.2022 33.6284Z" fill="#8C4739"/>
<path fill-rule="evenodd" clip-rule="evenodd" d="M44.2022 33.6284C42.9811 34.0349 42.3691 33.4484 42.4088 32.8174L42.4745 31.305L42.0461 31.2286L42.5147 30.3794L42.637 27.565L46.2209 27.4868L47.2085 29.8227V31.1063L46.1964 32.7616L44.2022 33.6284Z" fill="url(#paint21_linear)"/>
<path fill-rule="evenodd" clip-rule="evenodd" d="M43.4076 34.9467C42.7748 36.154 41.7371 38.8433 42.8055 40.189C43.8578 38.8761 46.2992 36.1596 47.6472 35.796C48.3445 35.608 48.709 35.3367 48.8824 35.0783C49.3868 35.2313 49.9686 35.4658 50.716 35.8194C53.224 37.0057 50.9213 40.3015 49.0739 42.9454C48.2253 44.16 47.4728 45.2371 47.3269 45.9088C47.0838 47.0285 48.1949 48.3827 49.1584 49.5571C49.6641 50.1734 50.1291 50.7402 50.3364 51.1975C50.3364 51.1975 48.0604 51.861 46.6011 52.283C42.6219 53.4337 38.4155 51.669 38.4155 51.669C38.935 50.2935 39.2451 49.8347 39.5594 49.3699C39.8544 48.9333 40.1532 48.4914 40.6323 47.28C41.2906 45.6154 40.5095 43.5683 39.9131 42.0053C39.6133 41.2194 39.3601 40.5559 39.3601 40.125C39.3601 38.9267 40.1232 38.0405 40.7671 37.2928C41.1733 36.821 41.532 36.4044 41.6216 35.9995C41.7688 35.334 42.4515 35.0634 43.4076 34.9467Z" fill="#4F2674"/>
<path d="M31.7732 34.5502L31.2208 30.9386C31.1659 30.5795 31.3617 30.2289 31.6962 30.0872L31.9502 29.9797C32.4304 29.7763 32.973 30.0831 33.0462 30.5995L33.5821 34.3781C33.6612 34.9363 33.1497 35.397 32.6028 35.26L32.3654 35.2006C32.055 35.1229 31.8216 34.8665 31.7732 34.5502Z" fill="black"/>
<path d="M31.6068 32.4241C31.1449 33.438 31.5407 34.9749 31.9257 35.9905L32.2006 35.2625C33.2729 34.7234 32.7582 34.205 32.7582 33.6873C32.7582 33.0401 33.2355 32.6247 33.4554 31.8158C33.6754 31.0069 32.1842 31.1568 31.6068 32.4241Z" fill="#8C4739"/>
<path d="M32.8078 30.6809C32.6298 30.0602 31.3737 31.519 31.4528 32.4269C31.5517 33.5618 31.977 31.1368 32.8078 30.6809Z" fill="#8C4739"/>
<path d="M49.8345 39.2407C49.07 37.1829 49.4912 36.2777 50.9092 36.2777C51.9844 35.9405 55.2896 41.4843 53.9895 45.4033C53.2727 47.564 50.5309 50.2879 48.938 50.0649C49.7942 49.259 51.4439 46.29 51.8262 44.9318C52.304 43.2341 50.7903 41.8129 49.8345 39.2407Z" fill="#8C4739"/>
<path d="M49.8345 39.2407C49.07 37.1829 49.4912 36.2777 50.9092 36.2777C51.9844 35.9405 55.2896 41.4843 53.9895 45.4033C53.2727 47.564 50.5309 50.2879 48.938 50.0649C49.7942 49.259 51.4439 46.29 51.8262 44.9318C52.304 43.2341 50.7903 41.8129 49.8345 39.2407Z" fill="url(#paint22_linear)"/>
<path d="M47.8767 50.368C48.2667 49.3997 49.2247 49.3882 49.8844 49.5034C50.1043 50.014 50.4122 51.1437 50.5728 52.1713C50.7735 53.4558 49.4254 53.5546 49.4254 52.8629C49.4254 52.1713 48.7084 50.7633 48.2495 50.9609C47.8824 51.119 48.5076 52.1713 48.0774 52.1713C47.8575 52.0807 47.4866 51.3364 47.8767 50.368Z" fill="#8C4739"/>
<path d="M30.9371 27.7135C30.9371 27.6997 30.9372 27.6862 30.9374 27.6729C30.9374 27.6865 30.9373 27.7 30.9371 27.7135C30.9385 28.3717 31.2364 29.5664 32.4383 29.3812C31.8431 29.5639 30.6811 30.3052 30.795 31.8094C30.7001 31.1719 30.2604 29.9249 29.2612 30.0366C29.8147 29.8521 30.9165 29.1307 30.9371 27.7135Z" fill="white"/>
<ellipse rx="0.144042" ry="0.204915" transform="matrix(0.993502 -0.113812 0.118274 0.992981 31.5384 30.7161)" fill="white"/>
<path d="M42.9341 31.9519C43.2289 31.9242 43.9097 31.7911 44.2739 31.4799C44.1655 32.1368 43.7458 33.151 42.9341 31.9519Z" fill="white"/>
<path d="M42.44 28.2381C41.3115 27.1918 41.9698 26.4607 42.44 26.2259C50.8011 25.4965 46.7488 28.8669 49.0057 31.2564C51.2627 33.6459 50.8524 35.6078 50.3907 35.5826C49.9291 35.5575 49.7752 36.7648 46.441 38.0727C43.1068 39.3807 46.3641 31.357 46.1076 30.2755C45.8511 29.1939 43.8506 29.5461 42.44 28.2381Z" fill="#F62054"/>
<ellipse cx="23.8989" cy="31.8071" rx="0.478033" ry="0.468806" fill="#4048FF"/>
<ellipse cx="24.4253" cy="29.9063" rx="0.478033" ry="0.468806" fill="#4048FF"/>
<ellipse cx="22.6103" cy="30.7196" rx="0.65331" ry="0.640699" fill="#4048FF"/>
<path d="M24.2291 29.9785L22.5474 30.7241L23.9642 31.8764" stroke="#4048FF" stroke-width="1.64901"/>
</g>
<defs>
<filter id="filter0_f" x="45.605" y="15.5655" width="6.56296" height="7.04017" filterUnits="userSpaceOnUse" color-interpolation-filters="sRGB">
<feFlood flood-opacity="0" result="BackgroundImageFix"/>
<feBlend mode="normal" in="SourceGraphic" in2="BackgroundImageFix" result="shape"/>
<feGaussianBlur stdDeviation="0.782945" result="effect1_foregroundBlur"/>
</filter>
<filter id="filter1_f" x="60.5191" y="11.0953" width="5.15247" height="5.43155" filterUnits="userSpaceOnUse" color-interpolation-filters="sRGB">
<feFlood flood-opacity="0" result="BackgroundImageFix"/>
<feBlend mode="normal" in="SourceGraphic" in2="BackgroundImageFix" result="shape"/>
<feGaussianBlur stdDeviation="0.782945" result="effect1_foregroundBlur"/>
</filter>
<filter id="filter2_f" x="40.7412" y="20.0907" width="5.03119" height="5.50355" filterUnits="userSpaceOnUse" color-interpolation-filters="sRGB">
<feFlood flood-opacity="0" result="BackgroundImageFix"/>
<feBlend mode="normal" in="SourceGraphic" in2="BackgroundImageFix" result="shape"/>
<feGaussianBlur stdDeviation="0.782945" result="effect1_foregroundBlur"/>
</filter>
<linearGradient id="paint0_linear" x1="68.0257" y1="-12.3685" x2="71.2402" y2="68.5713" gradientUnits="userSpaceOnUse">
<stop stop-color="#F52053"/>
<stop offset="1" stop-color="#4440FF"/>
</linearGradient>
<linearGradient id="paint1_linear" x1="71.2137" y1="13.5762" x2="77.1368" y2="16.4417" gradientUnits="userSpaceOnUse">
<stop stop-color="#4080FF"/>
<stop offset="1" stop-color="#1F2337"/>
</linearGradient>
<linearGradient id="paint2_linear" x1="81.3639" y1="12.0981" x2="85.9141" y2="13.92" gradientUnits="userSpaceOnUse">
<stop stop-color="#4080FF"/>
<stop offset="1" stop-color="#1F2337"/>
</linearGradient>
<linearGradient id="paint3_linear" x1="51.5551" y1="25.3488" x2="54.5197" y2="23.1316" gradientUnits="userSpaceOnUse">
<stop offset="0.074" stop-color="#FFF5B7"/>
<stop offset="0.228" stop-color="#E79127"/>
<stop offset="0.2507" stop-color="#D58326"/>
<stop offset="0.2976" stop-color="#B66A25"/>
<stop offset="0.3491" stop-color="#9D5524"/>
<stop offset="0.4061" stop-color="#894623"/>
<stop offset="0.4716" stop-color="#7B3A22"/>
<stop offset="0.5528" stop-color="#733422"/>
<stop offset="0.6982" stop-color="#713222"/>
<stop offset="0.7307" stop-color="#743422"/>
<stop offset="0.7531" stop-color="#7D3C23"/>
<stop offset="0.7725" stop-color="#8C4823"/>
<stop offset="0.7902" stop-color="#A25924"/>
<stop offset="0.8067" stop-color="#BE7025"/>
<stop offset="0.8221" stop-color="#E08B27"/>
<stop offset="0.8249" stop-color="#E79127"/>
<stop offset="0.8485" stop-color="#ECA443"/>
<stop offset="0.8993" stop-color="#F8D68A"/>
<stop offset="0.9294" stop-color="#FFF5B7"/>
</linearGradient>
<linearGradient id="paint4_linear" x1="51.7091" y1="22.4221" x2="55.8481" y2="25.9889" gradientUnits="userSpaceOnUse">
<stop stop-color="#DD8E19"/>
<stop offset="1" stop-color="#FFEDA5"/>
</linearGradient>
<linearGradient id="paint5_linear" x1="61.3785" y1="18.8473" x2="59.6335" y2="17.5423" gradientUnits="userSpaceOnUse">
<stop offset="0.074" stop-color="#FFF5B7"/>
<stop offset="0.228" stop-color="#E79127"/>
<stop offset="0.2507" stop-color="#D58326"/>
<stop offset="0.2976" stop-color="#B66A25"/>
<stop offset="0.3491" stop-color="#9D5524"/>
<stop offset="0.4061" stop-color="#894623"/>
<stop offset="0.4716" stop-color="#7B3A22"/>
<stop offset="0.5528" stop-color="#733422"/>
<stop offset="0.6982" stop-color="#713222"/>
<stop offset="0.7307" stop-color="#743422"/>
<stop offset="0.7531" stop-color="#7D3C23"/>
<stop offset="0.7725" stop-color="#8C4823"/>
<stop offset="0.7902" stop-color="#A25924"/>
<stop offset="0.8067" stop-color="#BE7025"/>
<stop offset="0.8221" stop-color="#E08B27"/>
<stop offset="0.8249" stop-color="#E79127"/>
<stop offset="0.8485" stop-color="#ECA443"/>
<stop offset="0.8993" stop-color="#F8D68A"/>
<stop offset="0.9294" stop-color="#FFF5B7"/>
</linearGradient>
<linearGradient id="paint6_linear" x1="61.2882" y1="17.1251" x2="58.852" y2="19.2245" gradientUnits="userSpaceOnUse">
<stop stop-color="#DD8E19"/>
<stop offset="1" stop-color="#FFEDA5"/>
</linearGradient>
<linearGradient id="paint7_linear" x1="44.1762" y1="14.3696" x2="45.9212" y2="13.0646" gradientUnits="userSpaceOnUse">
<stop offset="0.074" stop-color="#FFF5B7"/>
<stop offset="0.228" stop-color="#E79127"/>
<stop offset="0.2507" stop-color="#D58326"/>
<stop offset="0.2976" stop-color="#B66A25"/>
<stop offset="0.3491" stop-color="#9D5524"/>
<stop offset="0.4061" stop-color="#894623"/>
<stop offset="0.4716" stop-color="#7B3A22"/>
<stop offset="0.5528" stop-color="#733422"/>
<stop offset="0.6982" stop-color="#713222"/>
<stop offset="0.7307" stop-color="#743422"/>
<stop offset="0.7531" stop-color="#7D3C23"/>
<stop offset="0.7725" stop-color="#8C4823"/>
<stop offset="0.7902" stop-color="#A25924"/>
<stop offset="0.8067" stop-color="#BE7025"/>
<stop offset="0.8221" stop-color="#E08B27"/>
<stop offset="0.8249" stop-color="#E79127"/>
<stop offset="0.8485" stop-color="#ECA443"/>
<stop offset="0.8993" stop-color="#F8D68A"/>
<stop offset="0.9294" stop-color="#FFF5B7"/>
</linearGradient>
<linearGradient id="paint8_linear" x1="44.2665" y1="12.6473" x2="46.7027" y2="14.7468" gradientUnits="userSpaceOnUse">
<stop stop-color="#DD8E19"/>
<stop offset="1" stop-color="#FFEDA5"/>
</linearGradient>
<linearGradient id="paint9_linear" x1="50.474" y1="20.2269" x2="47.8276" y2="18.2478" gradientUnits="userSpaceOnUse">
<stop offset="0.074" stop-color="#FFF5B7"/>
<stop offset="0.228" stop-color="#E79127"/>
<stop offset="0.2507" stop-color="#D58326"/>
<stop offset="0.2976" stop-color="#B66A25"/>
<stop offset="0.3491" stop-color="#9D5524"/>
<stop offset="0.4061" stop-color="#894623"/>
<stop offset="0.4716" stop-color="#7B3A22"/>
<stop offset="0.5528" stop-color="#733422"/>
<stop offset="0.6982" stop-color="#713222"/>
<stop offset="0.7307" stop-color="#743422"/>
<stop offset="0.7531" stop-color="#7D3C23"/>
<stop offset="0.7725" stop-color="#8C4823"/>
<stop offset="0.7902" stop-color="#A25924"/>
<stop offset="0.8067" stop-color="#BE7025"/>
<stop offset="0.8221" stop-color="#E08B27"/>
<stop offset="0.8249" stop-color="#E79127"/>
<stop offset="0.8485" stop-color="#ECA443"/>
<stop offset="0.8993" stop-color="#F8D68A"/>
<stop offset="0.9294" stop-color="#FFF5B7"/>
</linearGradient>
<linearGradient id="paint10_linear" x1="50.3374" y1="17.6144" x2="46.6427" y2="20.7985" gradientUnits="userSpaceOnUse">
<stop stop-color="#DD8E19"/>
<stop offset="1" stop-color="#FFEDA5"/>
</linearGradient>
<linearGradient id="paint11_linear" x1="62.1603" y1="14.4825" x2="63.718" y2="13.3176" gradientUnits="userSpaceOnUse">
<stop offset="0.074" stop-color="#FFF5B7"/>
<stop offset="0.228" stop-color="#E79127"/>
<stop offset="0.2507" stop-color="#D58326"/>
<stop offset="0.2976" stop-color="#B66A25"/>
<stop offset="0.3491" stop-color="#9D5524"/>
<stop offset="0.4061" stop-color="#894623"/>
<stop offset="0.4716" stop-color="#7B3A22"/>
<stop offset="0.5528" stop-color="#733422"/>
<stop offset="0.6982" stop-color="#713222"/>
<stop offset="0.7307" stop-color="#743422"/>
<stop offset="0.7531" stop-color="#7D3C23"/>
<stop offset="0.7725" stop-color="#8C4823"/>
<stop offset="0.7902" stop-color="#A25924"/>
<stop offset="0.8067" stop-color="#BE7025"/>
<stop offset="0.8221" stop-color="#E08B27"/>
<stop offset="0.8249" stop-color="#E79127"/>
<stop offset="0.8485" stop-color="#ECA443"/>
<stop offset="0.8993" stop-color="#F8D68A"/>
<stop offset="0.9294" stop-color="#FFF5B7"/>
</linearGradient>
<linearGradient id="paint12_linear" x1="62.2417" y1="12.9455" x2="64.4164" y2="14.8196" gradientUnits="userSpaceOnUse">
<stop stop-color="#DD8E19"/>
<stop offset="1" stop-color="#FFEDA5"/>
</linearGradient>
<linearGradient id="paint13_linear" x1="44.3473" y1="22.4556" x2="42.5138" y2="23.1315" gradientUnits="userSpaceOnUse">
<stop offset="0.074" stop-color="#FFF5B7"/>
<stop offset="0.228" stop-color="#E79127"/>
<stop offset="0.2507" stop-color="#D58326"/>
<stop offset="0.2976" stop-color="#B66A25"/>
<stop offset="0.3491" stop-color="#9D5524"/>
<stop offset="0.4061" stop-color="#894623"/>
<stop offset="0.4716" stop-color="#7B3A22"/>
<stop offset="0.5528" stop-color="#733422"/>
<stop offset="0.6982" stop-color="#713222"/>
<stop offset="0.7307" stop-color="#743422"/>
<stop offset="0.7531" stop-color="#7D3C23"/>
<stop offset="0.7725" stop-color="#8C4823"/>
<stop offset="0.7902" stop-color="#A25924"/>
<stop offset="0.8067" stop-color="#BE7025"/>
<stop offset="0.8221" stop-color="#E08B27"/>
<stop offset="0.8249" stop-color="#E79127"/>
<stop offset="0.8485" stop-color="#ECA443"/>
<stop offset="0.8993" stop-color="#F8D68A"/>
<stop offset="0.9294" stop-color="#FFF5B7"/>
</linearGradient>
<linearGradient id="paint14_linear" x1="42.9996" y1="21.6648" x2="43.3071" y2="24.4874" gradientUnits="userSpaceOnUse">
<stop stop-color="#DD8E19"/>
<stop offset="1" stop-color="#FFEDA5"/>
</linearGradient>
<linearGradient id="paint15_linear" x1="56.3246" y1="15.5053" x2="52.2494" y2="16.6062" gradientUnits="userSpaceOnUse">
<stop offset="0.074" stop-color="#FFF5B7"/>
<stop offset="0.228" stop-color="#E79127"/>
<stop offset="0.2507" stop-color="#D58326"/>
<stop offset="0.2976" stop-color="#B66A25"/>
<stop offset="0.3491" stop-color="#9D5524"/>
<stop offset="0.4061" stop-color="#894623"/>
<stop offset="0.4716" stop-color="#7B3A22"/>
<stop offset="0.5528" stop-color="#733422"/>
<stop offset="0.6982" stop-color="#713222"/>
<stop offset="0.7307" stop-color="#743422"/>
<stop offset="0.7531" stop-color="#7D3C23"/>
<stop offset="0.7725" stop-color="#8C4823"/>
<stop offset="0.7902" stop-color="#A25924"/>
<stop offset="0.8067" stop-color="#BE7025"/>
<stop offset="0.8221" stop-color="#E08B27"/>
<stop offset="0.8249" stop-color="#E79127"/>
<stop offset="0.8485" stop-color="#ECA443"/>
<stop offset="0.8993" stop-color="#F8D68A"/>
<stop offset="0.9294" stop-color="#FFF5B7"/>
</linearGradient>
<linearGradient id="paint16_linear" x1="53.5824" y1="13.5544" x2="53.7187" y2="19.679" gradientUnits="userSpaceOnUse">
<stop stop-color="#DD8E19"/>
<stop offset="1" stop-color="#FFEDA5"/>
</linearGradient>
<linearGradient id="paint17_linear" x1="42.2428" y1="15.9724" x2="39.8442" y2="16.6204" gradientUnits="userSpaceOnUse">
<stop offset="0.074" stop-color="#FFF5B7"/>
<stop offset="0.228" stop-color="#E79127"/>
<stop offset="0.2507" stop-color="#D58326"/>
<stop offset="0.2976" stop-color="#B66A25"/>
<stop offset="0.3491" stop-color="#9D5524"/>
<stop offset="0.4061" stop-color="#894623"/>
<stop offset="0.4716" stop-color="#7B3A22"/>
<stop offset="0.5528" stop-color="#733422"/>
<stop offset="0.6982" stop-color="#713222"/>
<stop offset="0.7307" stop-color="#743422"/>
<stop offset="0.7531" stop-color="#7D3C23"/>
<stop offset="0.7725" stop-color="#8C4823"/>
<stop offset="0.7902" stop-color="#A25924"/>
<stop offset="0.8067" stop-color="#BE7025"/>
<stop offset="0.8221" stop-color="#E08B27"/>
<stop offset="0.8249" stop-color="#E79127"/>
<stop offset="0.8485" stop-color="#ECA443"/>
<stop offset="0.8993" stop-color="#F8D68A"/>
<stop offset="0.9294" stop-color="#FFF5B7"/>
</linearGradient>
<linearGradient id="paint18_linear" x1="40.6281" y1="14.8243" x2="40.7083" y2="18.4292" gradientUnits="userSpaceOnUse">
<stop stop-color="#DD8E19"/>
<stop offset="1" stop-color="#FFEDA5"/>
</linearGradient>
<linearGradient id="paint19_linear" x1="44.2546" y1="35.7581" x2="33.322" y2="41.8436" gradientUnits="userSpaceOnUse">
<stop stop-color="#420B00"/>
<stop offset="1" stop-color="#8C4739" stop-opacity="0"/>
</linearGradient>
<linearGradient id="paint20_linear" x1="40.1684" y1="34.3166" x2="49.6635" y2="37.0709" gradientUnits="userSpaceOnUse">
<stop stop-color="#420B00"/>
<stop offset="1" stop-color="#8C4739" stop-opacity="0"/>
</linearGradient>
<linearGradient id="paint21_linear" x1="41.06" y1="29.0587" x2="47.2806" y2="31.3454" gradientUnits="userSpaceOnUse">
<stop stop-color="#420B00"/>
<stop offset="1" stop-color="#8C4739" stop-opacity="0"/>
</linearGradient>
<linearGradient id="paint22_linear" x1="55.3098" y1="39.7231" x2="48.2049" y2="40.9527" gradientUnits="userSpaceOnUse">
<stop stop-color="#420B00"/>
<stop offset="1" stop-color="#8C4739" stop-opacity="0"/>
</linearGradient>
</defs>
</svg>
