<svg width="80" height="80" viewBox="0 0 80 80" fill="none" xmlns="http://www.w3.org/2000/svg">
<mask id="mask0" mask-type="alpha" maskUnits="userSpaceOnUse" x="0" y="0" width="80" height="80">
<rect width="80" height="80" fill="#C4C4C4"/>
</mask>
<g mask="url(#mask0)">
<circle cx="39.0022" cy="43.7011" r="26.393" fill="url(#paint0_linear)"/>
<g style="mix-blend-mode:screen">
<path fill-rule="evenodd" clip-rule="evenodd" d="M33.9651 57.5872C37.4413 55.5136 42.6874 60.185 41.8657 62.9191C47.3835 65.7673 46.1633 74.7347 38.2434 73.3627C39.5864 79.5143 26.9553 79.8595 25.4464 74.9971C22.2761 78.091 15.5219 74.3732 16.9417 70.2302C12.5144 70.101 10.4769 64.0572 12.5392 62.8995C8.58934 61.8174 8.22219 52.1893 16.9224 54.6146C18.8794 51.851 23.6409 51.6068 25.7597 56.3217C27.6158 54.6752 33.3259 55.0224 33.9651 57.5872Z" fill="#DADBF0"/>
<path fill-rule="evenodd" clip-rule="evenodd" d="M45.1539 67.2819C45.7866 70.6573 43.4792 74.2697 38.243 73.3627C39.586 79.5142 26.955 79.8594 25.4461 74.997C22.2757 78.0909 15.5216 74.3732 16.9414 70.2301C12.5141 70.1009 10.4765 64.0571 12.5389 62.8994C9.26608 62.0028 8.45327 55.2388 13.2198 54.3262C8.34435 56.0133 10.9767 61.9073 14.0737 62.0174C12.147 63.0988 12.8871 70.1192 18.3109 69.4172C16.9846 73.2873 23.102 77.2358 26.4684 73.6042C27.8778 78.1464 38.8193 77.48 37.5644 71.7336C43.5886 73.2416 44.8016 69.9867 45.1539 67.2819Z" fill="#C8D0E8"/>
<g opacity="0.5">
<path opacity="0.5" fill-rule="evenodd" clip-rule="evenodd" d="M32.1558 54.7138C35.0475 52.7173 40.1402 55.889 39.5796 58.3041C43.0035 59.9358 43.3963 65.0004 36.4749 64.2683C37.4914 67.8315 33.4914 68.0589 31.0042 66.694C30.1636 67.8129 27.7273 67.9357 26.6809 66.699C24.6942 68.3036 18.0485 66.6171 19.722 63.2469C16.1624 62.9969 15.8082 60.1643 17.5277 59.0428C14.2478 58.4767 12.3874 51.8928 20.4345 52.7889C21.9749 50.2827 25.8138 50.5958 27.3929 53.1834C28.9064 51.6504 31.463 52.529 32.1558 54.7138Z" fill="#DADBF0"/>
<path fill-rule="evenodd" clip-rule="evenodd" d="M41.7005 60.4411C42.7442 62.6558 40.9728 65.0028 36.4754 64.2686C37.4919 67.8318 33.4918 68.0592 31.0047 66.6943C30.164 67.8132 27.7277 67.936 26.6813 66.6993C24.6946 68.3039 18.0489 66.6174 19.7224 63.2472C16.1629 62.9972 15.8087 60.1646 17.5282 59.0429C14.6769 58.5514 12.9 53.513 17.7694 52.7922C14.1041 53.7417 14.9575 56.937 18.6204 58.8743C16.5376 60.4472 19.67 63.3286 21.145 62.0291C19.2609 65.3817 25.0923 66.8702 26.6308 64.7731C28.085 66.8031 30.9951 67.0376 31.26 64.9401C34.3631 66.8671 36.4655 65.804 35.9298 63.1479C39.2797 63.6498 42.0942 63.6465 41.7005 60.4411Z" fill="#C8D0E8"/>
</g>
<g opacity="0.5">
<path fill-rule="evenodd" clip-rule="evenodd" d="M47.0834 34.439C45.3619 37.8528 30.4745 55.4176 33.4655 58.3405C35.0698 59.9078 34.363 62.0531 29.6967 61.5703C28.2664 62.6584 22.4668 62.985 23.3535 59.4412C19.6875 57.7869 21.8389 56.2046 24.0657 55.7048C24.707 55.5608 25.4578 55.5387 26.178 55.1526C29.9975 53.105 43.5003 37.732 47.0834 34.439Z" fill="#DADBF0"/>
<path fill-rule="evenodd" clip-rule="evenodd" d="M38.2505 44.5418L38.2399 44.5625C36.0194 47.082 30.5796 52.418 26.4471 55.4134C25.8029 55.8805 25.2064 56.2067 24.473 56.3491C21.4932 56.9282 22.8602 58.8345 24.696 58.7752C23.5225 60.7779 27.5639 62.6374 30.0215 61.2652C33.0202 62.4472 33.9773 60.7663 34.1054 59.1775C35.492 61.3261 33.9404 63.6599 30.2593 62.0474C28.8291 63.1355 22.4663 62.9851 23.3529 59.4413C19.6869 57.787 21.8391 54.7696 23.7834 55.4666C24.503 55.7245 25.673 55.3178 26.5135 54.8366C30.2728 52.6861 34.7702 47.7403 38.2505 44.5418Z" fill="#C8D0E8"/>
</g>
</g>
<path fill-rule="evenodd" clip-rule="evenodd" d="M33.5086 51.8124C33.5191 50.491 34.0447 45.757 34.4625 44.5919L33.3827 45.6053C34.2307 40.5274 35.5301 39.3568 39.3329 36.6363L45.7022 40.7947C44.1614 45.3091 43.6912 46.9889 39.1025 49.5994L39.6819 48.2365C38.7322 49.0301 34.9741 51.1823 33.5086 51.8124Z" fill="url(#paint1_linear)"/>
<path fill-rule="evenodd" clip-rule="evenodd" d="M35.8688 48.344C35.8763 47.4112 36.2474 44.0692 36.5421 43.2466L35.7799 43.9623C36.3787 40.3774 37.2956 39.5511 39.9802 37.6304L44.4767 40.566C43.3891 43.7528 43.0575 44.9388 39.8179 46.7819L40.2266 45.8197C39.5561 46.3795 36.9031 47.8992 35.8688 48.344Z" fill="#FF5959"/>
<path fill-rule="evenodd" clip-rule="evenodd" d="M37.5757 45.84C37.581 45.1571 37.8527 42.7113 38.0687 42.1093L37.5104 42.6332C37.9485 40.0094 38.6198 39.4046 40.5845 37.9989L43.8755 40.1474C43.0795 42.4798 42.8366 43.3479 40.4657 44.6968L40.7653 43.9924C40.2746 44.4023 38.3325 45.5146 37.5757 45.84Z" fill="#FFDDD2"/>
<path fill-rule="evenodd" clip-rule="evenodd" d="M46.1163 43.6587C47.6404 42.4282 48.9339 41.2711 50.4468 40.058L39.804 33.0409C39.753 32.5611 38.9262 32.5099 39.0573 32.1196C38.4062 33.9044 37.7451 35.5834 37.1824 37.4318C36.9253 38.0559 36.9734 38.8683 37.3889 39.7845C37.97 41.0749 39.0442 42.0961 40.1711 42.8224C41.8711 43.9181 44.252 45.016 46.1163 43.6587Z" fill="url(#paint2_linear)"/>
<path fill-rule="evenodd" clip-rule="evenodd" d="M42.144 34.5838L39.804 33.0409C39.753 32.5611 38.9262 32.5099 39.0573 32.1196C38.4062 33.9044 37.7451 35.5834 37.1824 37.4318C36.9253 38.0559 36.9734 38.8683 37.3889 39.7845C37.9514 41.0334 39.0272 42.0852 40.1711 42.8224C41.8177 43.8836 44.1034 44.9469 45.9393 43.7793C43.8272 44.622 40.5323 42.4472 39.6787 41.2816C40.4687 38.9929 41.283 36.758 42.144 34.5838Z" fill="url(#paint3_linear)"/>
<path fill-rule="evenodd" clip-rule="evenodd" d="M50.1339 36.3194C48.8831 33.5675 45.3994 31.0991 42.3517 30.8087C39.3042 30.5185 37.8474 32.5144 39.0986 35.2667C40.3481 38.0206 43.8333 40.487 46.8805 40.777C49.9282 41.0673 51.3848 39.0714 50.1339 36.3194Z" fill="#0A3C5F"/>
<path d="M55.1623 8.18781C58.2678 6.32744 60.6899 5.24442 62.5403 4.8292C64.3878 4.41462 65.5692 4.68321 66.3268 5.38518C67.1106 6.1114 67.5746 7.41766 67.6939 9.38648C67.8121 11.3375 67.5863 13.8377 67.0977 16.8332C66.9557 17.5677 66.7837 18.2974 66.585 19.0216C65.865 21.645 64.8028 24.2617 63.4721 26.6916C60.4483 32.2115 55.2038 38.1128 50.1517 41.2567L50.1515 41.2568C49.6444 41.5727 48.9241 42.0213 48.3262 42.3159L48.3262 42.3159C47.5786 42.6843 46.9167 42.804 46.0206 42.7506C44.5304 42.6558 42.9026 42.0101 41.4859 40.9996C40.0697 39.9896 38.9043 38.6437 38.3057 37.1932C38.0652 36.5998 37.9931 36.1429 37.9763 35.6491C37.9581 35.1066 38.0123 34.5241 38.1409 33.7833L38.1415 33.7793C39.195 27.3995 43.2071 19.6029 47.541 14.6945C49.4315 12.5542 51.5773 10.6301 53.7107 9.14196C54.1966 8.80491 54.6741 8.48037 55.1623 8.18781ZM55.1623 8.18781L54.9054 7.75889M55.1623 8.18781L54.9054 7.75889M54.9054 7.75889C54.4018 8.06067 53.9125 8.39345 53.4252 8.73154L67.0672 19.1539C67.2697 18.4157 67.4452 17.6712 67.59 16.9209C69.5555 4.87629 67.3903 0.27954 54.9054 7.75889Z" fill="#DADBF0" stroke="#4048FF"/>
<path fill-rule="evenodd" clip-rule="evenodd" d="M55.2475 7.16895C53.5504 8.10238 51.6893 9.5003 50.2994 10.7335C49.1471 11.7558 48.0557 12.866 47.0686 14.0511C43.2916 18.5842 40.0273 25.2702 39.2643 30.9097C39.162 31.6187 39.1257 32.1979 39.166 32.7515C39.3488 35.2524 41.7765 37.5835 43.8046 38.7847C45.0841 39.5427 46.4737 40.0473 47.7733 40.1732C48.7213 40.261 49.1159 40.2539 50.2436 39.8155C47.1231 40.469 43.374 37.9373 41.6251 35.539C44.0487 26.6969 47.8775 18.7741 54.2042 13.7602C54.7957 14.467 60.2888 19.5229 64.7375 18.1248L55.3826 7.32503C55.636 7.16836 55.8919 7.01641 56.1524 6.87336C58.0418 5.83428 59.6895 5.06958 61.1189 4.56151C59.4921 5.04474 57.5496 5.90282 55.2475 7.16895Z" fill="#C2BEDB"/>
<path fill-rule="evenodd" clip-rule="evenodd" d="M68.1602 15.2311C68.6615 11.6663 68.8489 7.17024 67.6872 3.74393C67.664 3.67694 67.637 3.59817 67.6099 3.5194C67.59 3.4614 67.5378 3.2969 67.4269 3.22131C67.3226 3.14974 67.1602 3.16497 67.0876 3.16643C63.2739 3.24451 58.8129 5.01058 55.6038 6.88154C55.3997 7.00059 55.2039 7.12937 55.0548 7.26232C54.1527 8.04018 53.9632 9.21109 54.1892 10.3526C54.4067 11.4518 55.0031 12.5166 55.6481 13.3597C55.7355 13.4804 55.8272 13.6005 55.9226 13.7193C57.711 15.9447 60.8531 17.7754 63.4796 18.1236C64.4448 18.2516 65.4475 18.2098 66.2986 17.8645C66.7173 17.6946 67.1003 17.4471 67.418 17.0946C67.6229 16.8675 67.7981 16.6046 67.9053 16.3392C68.0474 15.9882 68.1086 15.5985 68.1602 15.2311Z" fill="url(#paint4_linear)"/>
<path fill-rule="evenodd" clip-rule="evenodd" d="M67.4623 3.25003C67.4513 3.23944 67.4394 3.22966 67.4269 3.22131C67.3226 3.14974 67.1602 3.16497 67.0876 3.16644C63.2739 3.24451 58.8129 5.01058 55.6038 6.88154C55.3997 7.00058 55.2039 7.12937 55.0548 7.26232C54.1527 8.04018 53.9632 9.21109 54.1892 10.3526C54.1923 10.3684 54.1951 10.3838 54.1985 10.3995L54.2012 10.4117L54.2097 10.4507L54.2114 10.4592C54.2185 10.4915 54.2259 10.5236 54.2336 10.5559L54.2355 10.5634C54.2392 10.5785 54.2429 10.5932 54.2465 10.6085L54.247 10.6103C54.2513 10.627 54.2555 10.6435 54.2599 10.66L54.26 10.661C54.2685 10.6932 54.2774 10.7257 54.2865 10.7581L54.2892 10.7672C54.3028 10.8158 54.3174 10.8642 54.3323 10.9124L54.3345 10.919C54.3392 10.9344 54.344 10.9494 54.3491 10.9648L54.3493 10.9663C54.3657 11.0167 54.3827 11.0667 54.4002 11.1167L54.4005 11.1177C54.4181 11.1677 54.4362 11.2171 54.455 11.2667L54.4558 11.2684C54.4683 11.3013 54.4809 11.3339 54.4938 11.3665L54.4949 11.3689L54.5133 11.4142L54.5152 11.4191C54.5551 11.5167 54.5968 11.6129 54.6411 11.7087L54.6435 11.7146L54.6622 11.7552L54.6661 11.763C54.6802 11.793 54.6943 11.8225 54.709 11.8523L54.7143 11.8634L54.7311 11.8974L54.7365 11.9083C54.7516 11.9383 54.7666 11.968 54.7819 11.9977L54.785 12.0042L54.8049 12.0426L54.8095 12.0512L54.8263 12.0839L54.8339 12.0976L54.8553 12.1378L54.862 12.1504L54.878 12.1803L54.8867 12.196L54.9069 12.2324L54.9086 12.2356L54.9337 12.2801L54.9374 12.2869L54.9583 12.3237L54.9632 12.3321L54.9831 12.3668L54.9892 12.3772L55.0112 12.4141L55.0246 12.437L55.0351 12.4549L55.0478 12.476L55.0631 12.5018L55.0703 12.5135L55.0928 12.5506L55.1012 12.5641L55.119 12.5931L55.1302 12.6109L55.1428 12.6318L55.1567 12.6538L55.1699 12.6748L55.1797 12.6905L55.2013 12.7241C55.3446 12.947 55.4952 13.1596 55.6484 13.3599C55.7358 13.4806 55.8276 13.6007 55.9229 13.7195C57.7112 15.9451 60.8534 17.7755 63.48 18.1237C64.4242 18.2492 65.5131 18.2205 66.4118 17.8171C65.0245 18.0895 59.7345 18.3369 55.9995 11.858C59.2274 8.57077 62.926 5.76942 67.4623 3.25003Z" fill="#1E2136"/>
<path fill-rule="evenodd" clip-rule="evenodd" d="M56.618 18.7948C59.1697 20.5628 59.8388 24.019 58.1102 26.5142C56.3812 29.0092 52.9117 29.5952 50.3598 27.8268C47.8064 26.0574 47.1355 22.6029 48.8644 20.1079C50.5934 17.6128 54.0643 17.0252 56.618 18.7948Z" fill="#B5B0D2"/>
<path fill-rule="evenodd" clip-rule="evenodd" d="M51.4175 26.2993C49.7636 25.1532 49.3499 22.8876 50.4943 21.2363C51.6387 19.585 53.9065 19.1741 55.5602 20.3201C57.2126 21.4649 57.6249 23.7329 56.4806 25.384C55.3366 27.0355 53.0697 27.444 51.4175 26.2993ZM56.4913 18.977C54.0955 17.3169 50.8082 17.9098 49.149 20.3039C47.4913 22.6965 48.0899 25.9844 50.4857 27.6445C52.8799 29.3034 56.1687 28.7087 57.826 26.3162C59.4851 23.9218 58.8854 20.6359 56.4913 18.977Z" fill="#EAE7F4"/>
<path fill-rule="evenodd" clip-rule="evenodd" d="M51.4181 26.3001C53.0652 27.4414 55.3414 27.0303 56.4813 25.3848C57.6228 23.7376 57.2081 21.4623 55.5608 20.3209C53.9125 19.1787 51.6364 19.5897 50.4949 21.2371C49.3548 22.8822 49.7696 25.1578 51.4181 26.3001Z" fill="url(#paint5_linear)"/>
<path fill-rule="evenodd" clip-rule="evenodd" d="M55.5609 20.3211C57.2133 21.4659 57.6256 23.7338 56.4813 25.385C56.3515 25.5724 56.2073 25.7435 56.0501 25.9C56.7528 24.3302 56.2626 22.4347 54.7992 21.4206C53.3342 20.4056 51.3866 20.6122 50.1659 21.823C50.2552 21.6196 50.3652 21.4245 50.4948 21.2372C51.6394 19.5859 53.907 19.175 55.5609 20.3211Z" fill="#0A3C5F"/>
<path fill-rule="evenodd" clip-rule="evenodd" d="M55.705 20.1116C55.8802 20.2331 56.1201 20.1903 56.2415 20.0154C56.3642 19.838 56.3197 19.5986 56.1444 19.4773C55.9679 19.3548 55.7279 19.3972 55.6051 19.5745C55.4835 19.7499 55.5281 19.9893 55.705 20.1116Z" fill="#1466A0"/>
<path fill-rule="evenodd" clip-rule="evenodd" d="M50.8319 27.1459C51.0069 27.2673 51.2482 27.2229 51.3697 27.0478C51.491 26.8727 51.448 26.6309 51.2727 26.5096C51.0961 26.3872 50.8548 26.4316 50.7335 26.6071C50.6118 26.7819 50.655 27.0233 50.8319 27.1459Z" fill="#1466A0"/>
<path fill-rule="evenodd" clip-rule="evenodd" d="M57.3261 25.9711C57.2046 26.1463 56.9633 26.1909 56.7867 26.0685C56.6113 25.9471 56.5666 25.7045 56.6878 25.529C56.8091 25.3539 57.0535 25.3087 57.2288 25.43C57.4058 25.5524 57.4473 25.796 57.3261 25.9711Z" fill="#1466A0"/>
<path fill-rule="evenodd" clip-rule="evenodd" d="M50.2849 21.0927C50.1636 21.2679 49.9207 21.3114 49.7457 21.1899C49.5689 21.0675 49.5259 20.8261 49.647 20.6508C49.7682 20.4754 50.0109 20.429 50.1878 20.5517C50.363 20.673 50.4065 20.9178 50.2849 21.0927Z" fill="#1466A0"/>
<path fill-rule="evenodd" clip-rule="evenodd" d="M58.0807 22.479C58.119 22.6902 57.9795 22.8914 57.7695 22.9277C57.56 22.9676 57.3572 22.827 57.3188 22.6156C57.2808 22.4071 57.4204 22.206 57.6301 22.1664C57.8401 22.1304 58.0427 22.2709 58.0807 22.479Z" fill="#1466A0"/>
<path fill-rule="evenodd" clip-rule="evenodd" d="M49.6566 24.0046C49.6932 24.2149 49.555 24.4141 49.3453 24.4535C49.1339 24.4919 48.9311 24.3514 48.8946 24.1414C48.8564 23.9301 48.9944 23.7308 49.2057 23.6924C49.4151 23.6524 49.6182 23.7932 49.6566 24.0046Z" fill="#1466A0"/>
<path fill-rule="evenodd" clip-rule="evenodd" d="M54.3226 27.9023C54.1129 27.9421 53.9103 27.8016 53.8716 27.59C53.8349 27.3799 53.9731 27.1806 54.1827 27.141C54.3944 27.1028 54.597 27.2433 54.6336 27.4532C54.6718 27.6645 54.534 27.8639 54.3226 27.9023Z" fill="#1466A0"/>
<path fill-rule="evenodd" clip-rule="evenodd" d="M52.792 19.4791C52.5805 19.5176 52.3776 19.3769 52.3411 19.1669C52.3015 18.9577 52.4412 18.7564 52.6523 18.7178C52.8605 18.6803 53.0636 18.8211 53.1032 19.0303C53.1399 19.2404 53.0002 19.4419 52.792 19.4791Z" fill="#1466A0"/>
<path fill-rule="evenodd" clip-rule="evenodd" d="M50.806 39.2085L51.004 39.1042L50.7892 39.2169L50.806 39.2085Z" fill="#828388"/>
<path fill-rule="evenodd" clip-rule="evenodd" d="M56.3457 34.7993L54.2244 34.6258C51.8752 43.4045 48.752 47.34 44.5751 53.6105L46.6988 53.7808L46.6968 53.7788C48.9959 51.0397 51.8149 48.3484 53.6789 45.3565C54.5101 44.0231 55.1668 42.6196 55.6234 41.0346C56.2082 39.0052 56.4014 36.9824 56.3457 34.7993Z" fill="url(#paint6_linear)"/>
<path fill-rule="evenodd" clip-rule="evenodd" d="M54.2259 34.6257L47.7941 40.6005C47.368 44.4324 46.4006 48.6986 44.5766 53.6105C49.5101 47.7347 54.4743 44.2534 54.2259 34.6257Z" fill="#1E2136"/>
<path fill-rule="evenodd" clip-rule="evenodd" d="M41.7272 24.6687L42.6351 26.5938C35.2407 31.877 32.6531 36.1834 28.2498 42.2971L27.3442 40.3684L27.3469 40.3698C29.1038 37.2544 30.6333 33.6702 32.7798 30.8738C33.7365 29.6276 34.8197 28.5197 36.1432 27.5353C37.8377 26.2745 39.6636 25.383 41.7272 24.6687Z" fill="url(#paint7_linear)"/>
<path fill-rule="evenodd" clip-rule="evenodd" d="M42.6358 26.5938L39.3009 34.7144C35.8627 36.4594 32.2082 38.8639 28.2506 42.2969C32.0185 35.6136 33.534 29.7431 42.6358 26.5938Z" fill="#1E2136"/>
<g style="mix-blend-mode:soft-light">
<path d="M55.8177 23.7267L52.5034 21.5761C53.1133 21.2428 53.9314 21.2168 54.582 21.639C54.9861 21.9012 55.2537 22.3002 55.3916 22.7211L55.9173 23.0622C55.8388 22.3484 55.4425 21.7095 54.8048 21.2956C53.8082 20.649 52.5289 20.7973 51.7064 21.6224L51.7276 21.6362L53.2117 22.5991L52.8939 23.0889L51.3546 22.0901L51.1124 22.4633L52.6517 23.4621L51.6075 25.0714L51.9807 25.3135L53.0249 23.7042L53.3281 23.901L52.2839 25.5102L52.6803 25.7675L53.7246 24.1582L54.7567 24.828L54.8163 24.8666L55.1248 25.0668C55.244 24.9453 55.3553 24.8068 55.45 24.6604C55.6379 24.37 55.7587 24.053 55.8177 23.7267ZM53.5702 23.5278L53.267 23.3311L53.5848 22.8413L53.888 23.038L53.5702 23.5278ZM53.9667 23.7851L54.2845 23.2953L55.3093 23.9603C55.2735 24.1027 55.1812 24.2921 55.0805 24.4477C55.0712 24.4623 55.0679 24.4665 55.0525 24.4896L53.9667 23.7851Z" fill="white"/>
<path d="M55.8177 23.7267L52.5034 21.5761C53.1133 21.2428 53.9314 21.2168 54.582 21.639C54.9861 21.9012 55.2537 22.3002 55.3916 22.7211L55.9173 23.0622C55.8388 22.3484 55.4425 21.7095 54.8048 21.2956C53.8082 20.649 52.5289 20.7973 51.7064 21.6224L51.7276 21.6362L53.2117 22.5991L52.8939 23.0889L51.3546 22.0901L51.1124 22.4633L52.6517 23.4621L51.6075 25.0714L51.9807 25.3135L53.0249 23.7042L53.3281 23.901L52.2839 25.5102L52.6803 25.7675L53.7246 24.1582L54.7567 24.828L54.8163 24.8666L55.1248 25.0668C55.244 24.9453 55.3553 24.8068 55.45 24.6604C55.6379 24.37 55.7587 24.053 55.8177 23.7267ZM53.5702 23.5278L53.267 23.3311L53.5848 22.8413L53.888 23.038L53.5702 23.5278ZM53.9667 23.7851L54.2845 23.2953L55.3093 23.9603C55.2735 24.1027 55.1812 24.2921 55.0805 24.4477C55.0712 24.4623 55.0679 24.4665 55.0525 24.4896L53.9667 23.7851Z" fill="white"/>
<path d="M55.2847 20.4902C53.7204 19.4751 51.622 19.9219 50.6069 21.4862C49.5918 23.0505 50.0386 25.149 51.603 26.1641C53.1673 27.1792 55.2658 26.7323 56.2809 25.168C57.2959 23.6037 56.849 21.5052 55.2847 20.4902ZM51.8601 25.7678C50.5143 24.8945 50.1299 23.0892 51.0032 21.7434C51.8765 20.3976 53.6818 20.0131 55.0276 20.8864C56.3734 21.7597 56.7578 23.565 55.8846 24.9108C55.0113 26.2566 53.2059 26.6411 51.8601 25.7678Z" fill="white"/>
</g>
<g style="mix-blend-mode:soft-light">
<path d="M55.8269 23.7083L52.4985 21.5486C53.111 21.2138 53.9325 21.1877 54.5859 21.6117C54.9917 21.875 55.2606 22.2757 55.399 22.6984L55.9269 23.041C55.8481 22.3242 55.4502 21.6825 54.8097 21.2669C53.8089 20.6175 52.5241 20.7664 51.6981 21.595L51.7194 21.6088L53.2098 22.5759L52.8906 23.0678L51.3448 22.0647L51.1016 22.4395L52.6475 23.4426L51.5988 25.0587L51.9735 25.3019L53.0222 23.6857L53.3267 23.8833L52.278 25.4995L52.6762 25.7578L53.7249 24.1417L54.7614 24.8143L54.8212 24.8531L55.1311 25.0542C55.2508 24.9321 55.3625 24.793 55.4577 24.646C55.6463 24.3543 55.7677 24.036 55.8269 23.7083ZM53.5699 23.5086L53.2654 23.311L53.5845 22.8191L53.889 23.0167L53.5699 23.5086ZM53.968 23.7669L54.2872 23.2751L55.3163 23.9429C55.2804 24.0859 55.1877 24.2761 55.0866 24.4324C55.0772 24.447 55.074 24.4513 55.0584 24.4745L53.968 23.7669Z" fill="white"/>
<path d="M55.8269 23.7083L52.4985 21.5486C53.111 21.2138 53.9325 21.1877 54.5859 21.6117C54.9917 21.875 55.2606 22.2757 55.399 22.6984L55.9269 23.041C55.8481 22.3242 55.4502 21.6825 54.8097 21.2669C53.8089 20.6175 52.5241 20.7664 51.6981 21.595L51.7194 21.6088L53.2098 22.5759L52.8906 23.0678L51.3448 22.0647L51.1016 22.4395L52.6475 23.4426L51.5988 25.0587L51.9735 25.3019L53.0222 23.6857L53.3267 23.8833L52.278 25.4995L52.6762 25.7578L53.7249 24.1417L54.7614 24.8143L54.8212 24.8531L55.1311 25.0542C55.2508 24.9321 55.3625 24.793 55.4577 24.646C55.6463 24.3543 55.7677 24.036 55.8269 23.7083ZM53.5699 23.5086L53.2654 23.311L53.5845 22.8191L53.889 23.0167L53.5699 23.5086ZM53.968 23.7669L54.2872 23.2751L55.3163 23.9429C55.2804 24.0859 55.1877 24.2761 55.0866 24.4324C55.0772 24.447 55.074 24.4513 55.0584 24.4745L53.968 23.7669Z" fill="white"/>
<path d="M55.2922 20.4582C53.7212 19.4388 51.6138 19.8875 50.5944 21.4585C49.575 23.0295 50.0237 25.1369 51.5947 26.1563C53.1657 27.1757 55.2732 26.7269 56.2926 25.1559C57.3119 23.585 56.8632 21.4775 55.2922 20.4582ZM51.853 25.7583C50.5014 24.8813 50.1154 23.0683 50.9924 21.7167C51.8694 20.3652 53.6824 19.9791 55.034 20.8561C56.3855 21.7331 56.7716 23.5462 55.8946 24.8977C55.0176 26.2492 53.2045 26.6353 51.853 25.7583Z" fill="white"/>
</g>
<g style="mix-blend-mode:soft-light">
<path d="M55.3031 20.464C53.7321 19.4446 51.6247 19.8933 50.6053 21.4643C49.5859 23.0353 50.0346 25.1427 51.6056 26.1621C53.1766 27.1815 55.284 26.7327 56.3034 25.1617C57.3228 23.5908 56.874 21.4834 55.3031 20.464ZM51.8638 25.7641C50.5123 24.8871 50.1263 23.0741 51.0033 21.7225C51.8802 20.371 53.6933 19.9849 55.0448 20.8619C56.3964 21.7389 56.7824 23.552 55.9054 24.9035C55.0284 26.2551 53.2154 26.6411 51.8638 25.7641Z" fill="white"/>
</g>
<circle cx="17.747" cy="47.0953" r="1.19843" transform="rotate(15.4975 17.747 47.0953)" fill="#4048FF"/>
<circle cx="8.77088" cy="43.848" r="1.87616" transform="rotate(15.4975 8.77088 43.848)" fill="#FB6C77"/>
<circle cx="12.7798" cy="47.5694" r="1.93807" transform="rotate(15.4975 12.7798 47.5694)" fill="#4048FF"/>
<path d="M12.5504 48.3504L12.3925 48.4059C12.325 48.4296 12.2502 48.3938 12.2264 48.3263L12.0112 47.7144C11.9874 47.6469 12.0232 47.5721 12.0908 47.5483L12.2486 47.4928C12.3161 47.469 12.3909 47.5048 12.4147 47.5724L12.6299 48.1842C12.6537 48.2518 12.618 48.3266 12.5504 48.3504Z" fill="white"/>
<path d="M13.3997 47.2266C13.4401 47.1899 13.4571 47.131 13.4378 47.0766C13.4122 47.0039 13.3318 46.9654 13.2594 46.991L12.8839 47.123C12.8819 47.0945 12.9069 46.9594 12.9126 46.9118C12.9176 46.8708 12.9083 46.8283 12.8945 46.7895C12.8773 46.7407 12.8496 46.6954 12.8139 46.6576C12.765 46.606 12.6973 46.5578 12.6258 46.5987C12.5622 46.635 12.544 46.7247 12.5906 46.7816C12.5906 46.7816 12.6237 46.8245 12.627 46.8432C12.6314 46.867 12.6129 46.9149 12.5922 46.9769C12.5505 47.1007 12.497 47.2654 12.4872 47.3225C12.476 47.3882 12.4772 47.4354 12.4894 47.485C12.4896 47.495 12.4914 47.505 12.4949 47.515L12.6911 48.0729C12.7093 48.1243 12.7661 48.1516 12.8175 48.1335L13.4776 47.9031C13.545 47.8794 13.5805 47.805 13.557 47.7376C13.5472 47.7101 13.5293 47.6882 13.5068 47.6731C13.5461 47.6392 13.5628 47.5834 13.5447 47.5319C13.5338 47.501 13.5122 47.477 13.4857 47.462C13.5207 47.425 13.5345 47.3702 13.5166 47.3191C13.4981 47.2669 13.4516 47.2325 13.3997 47.2266Z" fill="white"/>
<circle cx="15.3977" cy="54.9602" r="1.57836" transform="rotate(15.4975 15.3977 54.9602)" fill="#4048FF"/>
<path d="M15.2111 55.5962L15.0825 55.6414C15.0275 55.6607 14.9666 55.6316 14.9473 55.5766L14.772 55.0783C14.7526 55.0233 14.7818 54.9623 14.8368 54.943L14.9653 54.8978C15.0203 54.8784 15.0812 54.9076 15.1006 54.9626L15.2759 55.4609C15.2952 55.5159 15.2662 55.5768 15.2111 55.5962Z" fill="white"/>
<path d="M15.9022 54.6807C15.9351 54.6508 15.9489 54.6029 15.9332 54.5585C15.9124 54.4993 15.8469 54.468 15.7879 54.4888L15.4821 54.5964C15.4804 54.5731 15.5008 54.4631 15.5055 54.4243C15.5095 54.391 15.502 54.3563 15.4907 54.3247C15.4767 54.285 15.4542 54.2481 15.4251 54.2174C15.3853 54.1753 15.3302 54.136 15.2719 54.1693C15.2201 54.1989 15.2053 54.2719 15.2433 54.3183C15.2433 54.3183 15.2702 54.3533 15.2729 54.3685C15.2765 54.3878 15.2614 54.4269 15.2445 54.4773C15.2106 54.5782 15.167 54.7123 15.1591 54.7588C15.1499 54.8123 15.1509 54.8507 15.1608 54.8911C15.161 54.8993 15.1624 54.9075 15.1653 54.9155L15.3251 55.3699C15.3399 55.4118 15.3861 55.434 15.428 55.4193L15.9656 55.2316C16.0205 55.2123 16.0494 55.1517 16.0303 55.0968C16.0223 55.0745 16.0077 55.0566 15.9894 55.0443C16.0214 55.0167 16.035 54.9713 16.0202 54.9293C16.0114 54.9042 15.9938 54.8846 15.9722 54.8724C16.0007 54.8423 16.012 54.7977 15.9974 54.756C15.9823 54.7135 15.9444 54.6855 15.9022 54.6807Z" fill="white"/>
<circle cx="26.0127" cy="56.2656" r="2.34922" transform="rotate(15.4975 26.0127 56.2656)" fill="#4048FF"/>
<path d="M25.7358 57.2121L25.5445 57.2794C25.4626 57.3082 25.372 57.2648 25.3431 57.1829L25.0822 56.4413C25.0534 56.3594 25.0968 56.2687 25.1787 56.2399L25.37 56.1726C25.4519 56.1438 25.5426 56.1872 25.5714 56.2691L25.8323 57.0108C25.8611 57.0926 25.8178 57.1833 25.7358 57.2121Z" fill="white"/>
<path d="M26.7642 55.8497C26.8131 55.8051 26.8337 55.7338 26.8103 55.6678C26.7793 55.5797 26.6818 55.5331 26.594 55.5641L26.1389 55.7241C26.1365 55.6895 26.1668 55.5258 26.1737 55.4681C26.1797 55.4184 26.1686 55.3669 26.1518 55.3199C26.131 55.2607 26.0974 55.2058 26.054 55.16C25.9948 55.0974 25.9128 55.039 25.8261 55.0885C25.7489 55.1326 25.7269 55.2413 25.7834 55.3103C25.7834 55.3103 25.8236 55.3623 25.8275 55.3849C25.8328 55.4137 25.8105 55.4719 25.7853 55.547C25.7348 55.6971 25.67 55.8968 25.6581 55.9659C25.6445 56.0456 25.6459 56.1027 25.6607 56.1629C25.661 56.175 25.6631 56.1872 25.6674 56.1992L25.9052 56.8755C25.9273 56.9378 25.9961 56.9709 26.0584 56.9489L26.8585 56.6697C26.9403 56.641 26.9834 56.5507 26.9548 56.469C26.943 56.4358 26.9212 56.4092 26.8939 56.3909C26.9416 56.3498 26.9619 56.2821 26.9399 56.2197C26.9267 56.1823 26.9005 56.1532 26.8684 56.135C26.9108 56.0902 26.9276 56.0238 26.9059 55.9618C26.8834 55.8985 26.827 55.8568 26.7642 55.8497Z" fill="white"/>
<circle cx="19.7332" cy="51.2843" r="0.975878" transform="rotate(15.4975 19.7332 51.2843)" fill="#4048FF"/>
<path d="M19.6189 51.6777L19.5395 51.7057C19.5055 51.7177 19.4678 51.6996 19.4558 51.6656L19.3474 51.3575C19.3355 51.3235 19.3535 51.2858 19.3875 51.2739L19.467 51.2459C19.501 51.2339 19.5387 51.252 19.5506 51.286L19.659 51.5941C19.671 51.6281 19.653 51.6658 19.6189 51.6777Z" fill="white"/>
<path d="M20.0465 51.1118C20.0668 51.0933 20.0754 51.0637 20.0657 51.0363C20.0528 50.9997 20.0123 50.9803 19.9758 50.9932L19.7868 51.0597C19.7858 51.0453 19.7984 50.9773 19.8012 50.9533C19.8037 50.9327 19.7991 50.9113 19.7921 50.8917C19.7835 50.8671 19.7695 50.8443 19.7515 50.8253C19.7269 50.7993 19.6929 50.775 19.6568 50.7956C19.6248 50.8139 19.6156 50.8591 19.6391 50.8877C19.6391 50.8877 19.6558 50.9093 19.6574 50.9187C19.6596 50.9307 19.6504 50.9549 19.6399 50.9861C19.6189 51.0484 19.592 51.1314 19.5871 51.1601C19.5814 51.1932 19.582 51.2169 19.5881 51.2419C19.5883 51.2469 19.5891 51.252 19.5909 51.257L19.6897 51.5379C19.6989 51.5638 19.7275 51.5776 19.7533 51.5684L20.0857 51.4524C20.1197 51.4405 20.1376 51.403 20.1257 51.3691C20.1208 51.3553 20.1118 51.3442 20.1004 51.3366C20.1202 51.3196 20.1286 51.2915 20.1195 51.2655C20.114 51.25 20.1032 51.2379 20.0898 51.2304C20.1074 51.2117 20.1144 51.1841 20.1054 51.1584C20.0961 51.1321 20.0726 51.1148 20.0465 51.1118Z" fill="white"/>
<circle cx="13.1252" cy="40.5435" r="1.21963" transform="rotate(15.4975 13.1252 40.5435)" fill="#4048FF"/>
<path d="M12.9805 41.0349L12.8811 41.0698C12.8386 41.0848 12.7916 41.0623 12.7766 41.0198L12.6412 40.6347C12.6262 40.5922 12.6487 40.5451 12.6912 40.5302L12.7906 40.4952C12.8331 40.4803 12.8801 40.5028 12.8951 40.5453L13.0305 40.9304C13.0455 40.9729 13.023 41.0199 12.9805 41.0349Z" fill="white"/>
<path d="M13.5142 40.3276C13.5396 40.3045 13.5503 40.2675 13.5382 40.2332C13.5221 40.1875 13.4715 40.1633 13.4259 40.1793L13.1896 40.2625C13.1883 40.2445 13.2041 40.1595 13.2077 40.1295C13.2108 40.1037 13.205 40.077 13.1963 40.0526C13.1855 40.0218 13.1681 39.9933 13.1456 39.9696C13.1148 39.9371 13.0722 39.9068 13.0272 39.9325C12.9872 39.9553 12.9757 40.0118 13.0051 40.0476C13.0051 40.0476 13.0259 40.0746 13.0279 40.0863C13.0307 40.1013 13.0191 40.1315 13.0061 40.1705C12.9798 40.2484 12.9462 40.3521 12.94 40.388C12.9329 40.4293 12.9337 40.459 12.9414 40.4902C12.9415 40.4965 12.9426 40.5029 12.9449 40.5091L13.0683 40.8602C13.0798 40.8925 13.1155 40.9097 13.1478 40.8983L13.5632 40.7533C13.6056 40.7384 13.628 40.6916 13.6132 40.6492C13.6071 40.6319 13.5958 40.6181 13.5816 40.6086C13.6064 40.5873 13.6169 40.5521 13.6055 40.5197C13.5986 40.5003 13.585 40.4852 13.5684 40.4758C13.5903 40.4525 13.5991 40.418 13.5878 40.3858C13.5761 40.353 13.5469 40.3313 13.5142 40.3276Z" fill="white"/>
<path d="M17.6048 47.5782L17.5072 47.6126C17.4655 47.6273 17.4192 47.6051 17.4045 47.5633L17.2714 47.185C17.2567 47.1432 17.2789 47.097 17.3206 47.0823L17.4182 47.0479C17.46 47.0332 17.5063 47.0554 17.521 47.0972L17.654 47.4755C17.6688 47.5173 17.6467 47.5635 17.6048 47.5782Z" fill="white"/>
<path d="M18.1303 46.8833C18.1552 46.8606 18.1657 46.8242 18.1538 46.7905C18.138 46.7456 18.0882 46.7218 18.0435 46.7376L17.8113 46.8192C17.81 46.8016 17.8255 46.7181 17.829 46.6886C17.8321 46.6633 17.8264 46.637 17.8178 46.613C17.8072 46.5828 17.7901 46.5548 17.768 46.5315C17.7378 46.4995 17.6959 46.4697 17.6517 46.495C17.6123 46.5175 17.6011 46.5729 17.6299 46.6081C17.6299 46.6081 17.6504 46.6347 17.6524 46.6462C17.6551 46.6609 17.6437 46.6905 17.6309 46.7289C17.6051 46.8055 17.572 46.9073 17.566 46.9426C17.5591 46.9832 17.5598 47.0124 17.5673 47.0431C17.5675 47.0492 17.5685 47.0555 17.5708 47.0616L17.6921 47.4066C17.7033 47.4384 17.7384 47.4553 17.7702 47.4441L18.1784 47.3016C18.2201 47.287 18.2421 47.2409 18.2275 47.1992C18.2215 47.1823 18.2104 47.1687 18.1964 47.1594C18.2208 47.1384 18.2311 47.1039 18.2199 47.0721C18.2131 47.053 18.1998 47.0381 18.1834 47.0289C18.205 47.006 18.2136 46.9721 18.2025 46.9405C18.1911 46.9082 18.1623 46.8869 18.1303 46.8833Z" fill="white"/>
<path d="M8.30379 43.3165C8.5756 43.2451 8.74285 43.454 8.8001 43.5427C8.84073 43.4452 8.96855 43.2102 9.24849 43.2326C9.65366 43.2648 9.75225 43.768 9.4169 44.1615C9.08815 44.5472 8.89652 44.6368 8.89652 44.6368C8.89652 44.6368 8.69364 44.5821 8.30194 44.2605C7.90222 43.9324 7.91073 43.4198 8.30379 43.3165Z" fill="white"/>
<circle cx="23.8834" cy="48.5994" r="1.87616" transform="rotate(58.9755 23.8834 48.5994)" fill="#FB6C77"/>
<path d="M23.8402 47.8568C24.0865 47.992 24.0642 48.2587 24.0447 48.3624C24.1412 48.3196 24.3957 48.2371 24.5834 48.4459C24.8552 48.7481 24.5806 49.1811 24.0664 49.2359C23.5625 49.2896 23.3618 49.2227 23.3618 49.2227C23.3618 49.2227 23.2522 49.0435 23.1892 48.5406C23.125 48.0274 23.4838 47.6613 23.8402 47.8568Z" fill="white"/>
<circle cx="9.54675" cy="51.7709" r="0.836333" transform="rotate(58.9755 9.54675 51.7709)" fill="#FB6C77"/>
<path d="M9.52682 51.4398C9.63664 51.5001 9.62667 51.619 9.61798 51.6652C9.66102 51.6462 9.77444 51.6094 9.85813 51.7025C9.9793 51.8372 9.85686 52.0302 9.62768 52.0546C9.40304 52.0785 9.31358 52.0487 9.31358 52.0487C9.31358 52.0487 9.26471 51.9688 9.23666 51.7446C9.20801 51.5159 9.36799 51.3527 9.52682 51.4398Z" fill="white"/>
<circle cx="26.6536" cy="45.3995" r="0.836333" transform="rotate(58.9755 26.6536 45.3995)" fill="#FB6C77"/>
<path d="M26.6336 45.0685C26.7435 45.1287 26.7335 45.2476 26.7248 45.2939C26.7678 45.2748 26.8813 45.238 26.9649 45.3311C27.0861 45.4658 26.9637 45.6588 26.7345 45.6832C26.5099 45.7071 26.4204 45.6774 26.4204 45.6774C26.4204 45.6774 26.3715 45.5974 26.3435 45.3733C26.3148 45.1445 26.4748 44.9813 26.6336 45.0685Z" fill="white"/>
<g filter="url(#filter0_f)">
<circle cx="19.4745" cy="42.743" r="0.833114" transform="rotate(31.0419 19.4745 42.743)" fill="#FB6C77"/>
<path d="M19.3022 42.4607C19.427 42.4625 19.4737 42.5717 19.4876 42.6165C19.5166 42.5796 19.5992 42.4943 19.7163 42.5372C19.8858 42.5992 19.8681 42.8262 19.6778 42.9547C19.4913 43.0805 19.3986 43.0961 19.3986 43.0961C19.3986 43.0961 19.3184 43.0485 19.1891 42.8643C19.0571 42.6764 19.1217 42.4581 19.3022 42.4607Z" fill="white"/>
</g>
<circle cx="47.4405" cy="61.8158" r="1.19843" transform="rotate(15.4975 47.4405 61.8158)" fill="#4048FF"/>
<circle cx="38.4644" cy="58.5685" r="1.87616" transform="rotate(15.4975 38.4644 58.5685)" fill="#FB6C77"/>
<circle cx="42.4733" cy="62.2899" r="1.93807" transform="rotate(15.4975 42.4733 62.2899)" fill="#4048FF"/>
<path d="M42.2436 63.0709L42.0858 63.1264C42.0182 63.1502 41.9434 63.1144 41.9197 63.0468L41.7044 62.4349C41.6807 62.3674 41.7165 62.2926 41.784 62.2688L41.9418 62.2133C42.0094 62.1895 42.0842 62.2254 42.108 62.2929L42.3232 62.9048C42.347 62.9723 42.3113 63.0471 42.2436 63.0709Z" fill="white"/>
<path d="M43.0929 61.9471C43.1332 61.9104 43.1502 61.8516 43.1309 61.7971C43.1053 61.7244 43.0249 61.6859 42.9525 61.7115L42.577 61.8436C42.575 61.815 42.6 61.6799 42.6057 61.6323C42.6107 61.5914 42.6015 61.5488 42.5876 61.51C42.5704 61.4612 42.5427 61.4159 42.507 61.3782C42.4581 61.3265 42.3905 61.2783 42.3189 61.3192C42.2553 61.3556 42.2371 61.4452 42.2837 61.5021C42.2837 61.5021 42.3168 61.545 42.3201 61.5637C42.3245 61.5875 42.306 61.6354 42.2853 61.6974C42.2436 61.8213 42.1901 61.986 42.1803 62.043C42.1691 62.1087 42.1703 62.1559 42.1825 62.2055C42.1827 62.2155 42.1845 62.2256 42.188 62.2355L42.3842 62.7934C42.4025 62.8448 42.4592 62.8721 42.5106 62.854L43.1707 62.6236C43.2381 62.5999 43.2737 62.5255 43.2501 62.4581C43.2404 62.4307 43.2224 62.4087 43.1999 62.3936C43.2392 62.3597 43.2559 62.3039 43.2378 62.2524C43.2269 62.2216 43.2053 62.1975 43.1788 62.1826C43.2138 62.1456 43.2277 62.0908 43.2098 62.0396C43.1912 61.9874 43.1447 61.953 43.0929 61.9471Z" fill="white"/>
<circle cx="45.0912" cy="69.6807" r="1.57836" transform="rotate(15.4975 45.0912 69.6807)" fill="#4048FF"/>
<path d="M44.9046 70.3167L44.776 70.3619C44.721 70.3813 44.6601 70.3521 44.6407 70.2971L44.4655 69.7988C44.4461 69.7438 44.4753 69.6829 44.5303 69.6635L44.6588 69.6183C44.7138 69.5989 44.7747 69.6281 44.7941 69.6831L44.9694 70.1814C44.9887 70.2364 44.9597 70.2974 44.9046 70.3167Z" fill="white"/>
<path d="M45.5957 69.4012C45.6285 69.3713 45.6424 69.3234 45.6267 69.2791C45.6058 69.2199 45.5404 69.1885 45.4814 69.2093L45.1756 69.3169C45.1739 69.2936 45.1943 69.1836 45.1989 69.1449C45.203 69.1115 45.1955 69.0769 45.1842 69.0453C45.1702 69.0055 45.1477 68.9687 45.1186 68.9379C45.0788 68.8958 45.0237 68.8566 44.9654 68.8899C44.9136 68.9195 44.8987 68.9925 44.9367 69.0389C44.9367 69.0389 44.9637 69.0738 44.9663 69.089C44.9699 69.1084 44.9549 69.1474 44.938 69.1979C44.904 69.2988 44.8605 69.4329 44.8525 69.4793C44.8434 69.5329 44.8444 69.5713 44.8543 69.6117C44.8545 69.6198 44.8559 69.628 44.8588 69.6361L45.0186 70.0905C45.0334 70.1323 45.0796 70.1546 45.1215 70.1398L45.6591 69.9522C45.714 69.9329 45.7429 69.8723 45.7238 69.8174C45.7158 69.795 45.7012 69.7772 45.6828 69.7649C45.7149 69.7373 45.7285 69.6918 45.7137 69.6499C45.7049 69.6247 45.6873 69.6052 45.6657 69.593C45.6942 69.5629 45.7055 69.5182 45.6909 69.4766C45.6758 69.434 45.6379 69.4061 45.5957 69.4012Z" fill="white"/>
<circle cx="55.7062" cy="70.9861" r="2.34922" transform="rotate(15.4975 55.7062 70.9861)" fill="#4048FF"/>
<path d="M55.4293 71.9327L55.238 72C55.1561 72.0288 55.0654 71.9854 55.0366 71.9035L54.7757 71.1618C54.7469 71.0799 54.7903 70.9893 54.8722 70.9605L55.0635 70.8932C55.1454 70.8644 55.236 70.9078 55.2649 70.9896L55.5257 71.7313C55.5546 71.8132 55.5113 71.9039 55.4293 71.9327Z" fill="white"/>
<path d="M56.4577 70.5702C56.5066 70.5257 56.5272 70.4544 56.5038 70.3884C56.4728 70.3003 56.3753 70.2536 56.2875 70.2846L55.8324 70.4447C55.8299 70.4101 55.8602 70.2464 55.8672 70.1886C55.8732 70.139 55.862 70.0874 55.8453 70.0404C55.8244 69.9812 55.7909 69.9264 55.7475 69.8806C55.6883 69.818 55.6063 69.7596 55.5195 69.8091C55.4424 69.8532 55.4204 69.9618 55.4769 70.0308C55.4769 70.0308 55.517 70.0829 55.521 70.1055C55.5263 70.1343 55.5039 70.1924 55.4788 70.2676C55.4282 70.4177 55.3635 70.6173 55.3516 70.6865C55.338 70.7661 55.3394 70.8233 55.3542 70.8835C55.3545 70.8956 55.3566 70.9078 55.3609 70.9198L55.5987 71.596C55.6208 71.6583 55.6896 71.6915 55.7519 71.6695L56.552 71.3902C56.6337 71.3615 56.6768 71.2713 56.6483 71.1896C56.6365 71.1564 56.6147 71.1298 56.5874 71.1115C56.6351 71.0704 56.6553 71.0027 56.6334 70.9403C56.6202 70.9029 56.594 70.8737 56.5619 70.8556C56.6043 70.8108 56.6211 70.7444 56.5994 70.6824C56.5769 70.619 56.5205 70.5774 56.4577 70.5702Z" fill="white"/>
<circle cx="49.4267" cy="66.0048" r="0.975878" transform="rotate(15.4975 49.4267 66.0048)" fill="#4048FF"/>
<path d="M49.3119 66.3983L49.2325 66.4262C49.1984 66.4382 49.1608 66.4202 49.1488 66.3861L49.0404 66.078C49.0285 66.044 49.0465 66.0064 49.0805 65.9944L49.16 65.9665C49.194 65.9545 49.2317 65.9725 49.2436 66.0065L49.352 66.3146C49.364 66.3486 49.346 66.3863 49.3119 66.3983Z" fill="white"/>
<path d="M49.7397 65.8323C49.76 65.8139 49.7685 65.7842 49.7588 65.7568C49.7459 65.7202 49.7054 65.7008 49.669 65.7137L49.4799 65.7802C49.4789 65.7658 49.4915 65.6978 49.4943 65.6738C49.4969 65.6532 49.4922 65.6318 49.4852 65.6123C49.4766 65.5877 49.4627 65.5649 49.4446 65.5459C49.42 65.5199 49.386 65.4956 49.3499 65.5162C49.3179 65.5345 49.3087 65.5796 49.3322 65.6083C49.3322 65.6083 49.3489 65.6299 49.3505 65.6393C49.3528 65.6513 49.3435 65.6754 49.333 65.7066C49.312 65.769 49.2851 65.8519 49.2802 65.8806C49.2745 65.9137 49.2751 65.9375 49.2813 65.9625C49.2814 65.9675 49.2823 65.9726 49.2841 65.9775L49.3828 66.2585C49.392 66.2844 49.4206 66.2981 49.4465 66.289L49.7788 66.173C49.8128 66.1611 49.8307 66.1236 49.8188 66.0896C49.8139 66.0758 49.8049 66.0648 49.7935 66.0572C49.8134 66.0401 49.8218 66.012 49.8126 65.9861C49.8071 65.9705 49.7963 65.9584 49.7829 65.9509C49.8005 65.9323 49.8075 65.9047 49.7985 65.8789C49.7892 65.8526 49.7657 65.8353 49.7397 65.8323Z" fill="white"/>
<circle cx="42.8186" cy="55.264" r="1.21963" transform="rotate(15.4975 42.8186 55.264)" fill="#4048FF"/>
<path d="M42.6734 55.7555L42.5741 55.7904C42.5316 55.8054 42.4846 55.7828 42.4696 55.7403L42.3341 55.3553C42.3192 55.3128 42.3417 55.2657 42.3842 55.2507L42.4836 55.2158C42.5261 55.2008 42.5731 55.2234 42.5881 55.2659L42.7235 55.6509C42.7385 55.6934 42.716 55.7405 42.6734 55.7555Z" fill="white"/>
<path d="M43.2072 55.0482C43.2326 55.0251 43.2433 54.988 43.2312 54.9538C43.2151 54.908 43.1645 54.8838 43.1189 54.8999L42.8826 54.983C42.8813 54.965 42.8971 54.88 42.9007 54.8501C42.9038 54.8243 42.898 54.7975 42.8893 54.7731C42.8785 54.7424 42.8611 54.7139 42.8385 54.6901C42.8078 54.6576 42.7652 54.6273 42.7202 54.653C42.6802 54.6759 42.6687 54.7323 42.6981 54.7681C42.6981 54.7681 42.7189 54.7951 42.7209 54.8069C42.7237 54.8219 42.7121 54.852 42.699 54.891C42.6728 54.969 42.6392 55.0726 42.633 55.1085C42.6259 55.1499 42.6267 55.1795 42.6344 55.2108C42.6345 55.2171 42.6356 55.2234 42.6378 55.2296L42.7613 55.5807C42.7728 55.6131 42.8085 55.6303 42.8408 55.6189L43.2562 55.4739C43.2986 55.459 43.321 55.4121 43.3062 55.3697C43.3001 55.3525 43.2888 55.3387 43.2746 55.3292C43.2993 55.3078 43.3099 55.2727 43.2985 55.2403C43.2916 55.2209 43.278 55.2057 43.2613 55.1963C43.2833 55.1731 43.2921 55.1386 43.2808 55.1064C43.2691 55.0735 43.2399 55.0519 43.2072 55.0482Z" fill="white"/>
<path d="M47.2981 62.2987L47.2005 62.333C47.1587 62.3477 47.1125 62.3256 47.0978 62.2838L46.9647 61.9055C46.95 61.8637 46.9721 61.8174 47.0139 61.8027L47.1115 61.7684C47.1532 61.7537 47.1995 61.7759 47.2142 61.8176L47.3473 62.196C47.362 62.2378 47.3399 62.284 47.2981 62.2987Z" fill="white"/>
<path d="M47.8235 61.6038C47.8484 61.581 47.8589 61.5447 47.847 61.511C47.8312 61.4661 47.7815 61.4422 47.7367 61.4581L47.5045 61.5397C47.5033 61.5221 47.5187 61.4385 47.5222 61.4091C47.5253 61.3838 47.5196 61.3575 47.5111 61.3335C47.5004 61.3033 47.4833 61.2753 47.4612 61.2519C47.431 61.22 47.3892 61.1902 47.3449 61.2155C47.3056 61.238 47.2943 61.2934 47.3232 61.3286C47.3232 61.3286 47.3436 61.3551 47.3456 61.3667C47.3484 61.3814 47.337 61.411 47.3241 61.4494C47.2983 61.5259 47.2653 61.6278 47.2592 61.6631C47.2523 61.7037 47.253 61.7329 47.2606 61.7635C47.2607 61.7697 47.2618 61.7759 47.264 61.7821L47.3853 62.1271C47.3966 62.1589 47.4317 62.1757 47.4634 62.1645L47.8716 62.0221C47.9133 62.0074 47.9353 61.9614 47.9207 61.9197C47.9147 61.9028 47.9036 61.8892 47.8897 61.8799C47.914 61.8589 47.9243 61.8244 47.9131 61.7925C47.9064 61.7735 47.893 61.7586 47.8767 61.7493C47.8983 61.7265 47.9068 61.6926 47.8958 61.661C47.8843 61.6287 47.8555 61.6074 47.8235 61.6038Z" fill="white"/>
<path d="M37.9973 58.037C38.2691 57.9656 38.4363 58.1745 38.4936 58.2632C38.5342 58.1657 38.662 57.9307 38.942 57.9531C39.3471 57.9853 39.4457 58.4885 39.1104 58.882C38.7816 59.2677 38.59 59.3573 38.59 59.3573C38.59 59.3573 38.3871 59.3027 37.9954 58.981C37.5957 58.6529 37.6042 58.1403 37.9973 58.037Z" fill="white"/>
<circle cx="53.5766" cy="63.32" r="1.87616" transform="rotate(58.9755 53.5766 63.32)" fill="#FB6C77"/>
<path d="M53.5334 62.5774C53.7798 62.7126 53.7574 62.9793 53.7379 63.083C53.8345 63.0402 54.0889 62.9577 54.2766 63.1665C54.5485 63.4687 54.2738 63.9017 53.7597 63.9565C53.2557 64.0101 53.055 63.9433 53.055 63.9433C53.055 63.9433 52.9454 63.764 52.8825 63.2612C52.8182 62.748 53.1771 62.3819 53.5334 62.5774Z" fill="white"/>
<circle cx="39.2399" cy="66.4913" r="0.836333" transform="rotate(58.9755 39.2399 66.4913)" fill="#FB6C77"/>
<path d="M39.2201 66.1603C39.3299 66.2206 39.3199 66.3395 39.3112 66.3857C39.3543 66.3666 39.4677 66.3298 39.5514 66.4229C39.6725 66.5576 39.5501 66.7506 39.3209 66.7751C39.0963 66.799 39.0068 66.7692 39.0068 66.7692C39.0068 66.7692 38.958 66.6893 38.9299 66.4651C38.9012 66.2364 39.0612 66.0732 39.2201 66.1603Z" fill="white"/>
<circle cx="56.3468" cy="60.12" r="0.836333" transform="rotate(58.9755 56.3468 60.12)" fill="#FB6C77"/>
<path d="M56.3269 59.7889C56.4367 59.8492 56.4267 59.9681 56.418 60.0143C56.4611 59.9953 56.5745 59.9585 56.6582 60.0516C56.7794 60.1863 56.6569 60.3793 56.4277 60.4037C56.2031 60.4276 56.1136 60.3978 56.1136 60.3978C56.1136 60.3978 56.0648 60.3179 56.0367 60.0938C56.0081 59.865 56.168 59.7018 56.3269 59.7889Z" fill="white"/>
<g filter="url(#filter1_f)">
<circle cx="49.1679" cy="57.4635" r="0.833114" transform="rotate(31.0419 49.1679 57.4635)" fill="#FB6C77"/>
<path d="M48.9955 57.1811C49.1203 57.1829 49.167 57.2922 49.181 57.337C49.2099 57.3001 49.2926 57.2148 49.4097 57.2577C49.5792 57.3197 49.5615 57.5467 49.3712 57.6751C49.1846 57.801 49.092 57.8165 49.092 57.8165C49.092 57.8165 49.0117 57.769 48.8824 57.5848C48.7505 57.3969 48.8151 57.1786 48.9955 57.1811Z" fill="white"/>
</g>
</g>
<defs>
<filter id="filter0_f" x="18.5399" y="41.8084" width="1.86924" height="1.86924" filterUnits="userSpaceOnUse" color-interpolation-filters="sRGB">
<feFlood flood-opacity="0" result="BackgroundImageFix"/>
<feBlend mode="normal" in="SourceGraphic" in2="BackgroundImageFix" result="shape"/>
<feGaussianBlur stdDeviation="0.0506904" result="effect1_foregroundBlur"/>
</filter>
<filter id="filter1_f" x="48.2332" y="56.5289" width="1.86924" height="1.86924" filterUnits="userSpaceOnUse" color-interpolation-filters="sRGB">
<feFlood flood-opacity="0" result="BackgroundImageFix"/>
<feBlend mode="normal" in="SourceGraphic" in2="BackgroundImageFix" result="shape"/>
<feGaussianBlur stdDeviation="0.0506904" result="effect1_foregroundBlur"/>
</filter>
<linearGradient id="paint0_linear" x1="30.4591" y1="195.252" x2="123.743" y2="123.632" gradientUnits="userSpaceOnUse">
<stop stop-color="#162746"/>
<stop offset="0.927083" stop-color="#4048FF"/>
</linearGradient>
<linearGradient id="paint1_linear" x1="42.1676" y1="38.2793" x2="26.7426" y2="60.5214" gradientUnits="userSpaceOnUse">
<stop stop-color="#DB2026"/>
<stop offset="0.505208" stop-color="#4080FF"/>
<stop offset="1" stop-color="#DB2026" stop-opacity="0"/>
</linearGradient>
<linearGradient id="paint2_linear" x1="21.2061" y1="44.1393" x2="54.2886" y2="43.5876" gradientUnits="userSpaceOnUse">
<stop stop-color="#0B1D69"/>
<stop offset="1" stop-color="#4080FF"/>
</linearGradient>
<linearGradient id="paint3_linear" x1="36.7562" y1="36.0899" x2="51.4554" y2="42.4457" gradientUnits="userSpaceOnUse">
<stop stop-color="#0B1D69"/>
<stop offset="1" stop-color="#4080FF"/>
</linearGradient>
<linearGradient id="paint4_linear" x1="55.6662" y1="5.91259" x2="75.1953" y2="15.044" gradientUnits="userSpaceOnUse">
<stop stop-color="#0B1D69"/>
<stop offset="1" stop-color="#4080FF"/>
</linearGradient>
<linearGradient id="paint5_linear" x1="50.242" y1="21.6498" x2="59.2184" y2="25.8585" gradientUnits="userSpaceOnUse">
<stop stop-color="#0B1D69"/>
<stop offset="1" stop-color="#4080FF"/>
</linearGradient>
<linearGradient id="paint6_linear" x1="48.8293" y1="43.9347" x2="54.7073" y2="47.1917" gradientUnits="userSpaceOnUse">
<stop stop-color="#0B1D69"/>
<stop offset="1" stop-color="#4080FF"/>
</linearGradient>
<linearGradient id="paint7_linear" x1="31.743" y1="32.2719" x2="39.6297" y2="36.5732" gradientUnits="userSpaceOnUse">
<stop stop-color="#0B1D69"/>
<stop offset="1" stop-color="#4080FF"/>
</linearGradient>
</defs>
</svg>
