<svg width="15" height="14" viewBox="0 0 15 14" fill="none" xmlns="http://www.w3.org/2000/svg">
<path d="M4.48276 5.22539H4.45379C5.0465 4.06032 6.25682 3.26198 7.65361 3.26198C8.55465 3.26198 9.37788 3.594 10.0079 4.14243H10.03H11.46C10.6133 2.95413 9.22396 2.17902 7.65361 2.17902C5.25716 2.17902 3.2825 3.98372 3.01415 6.30835L6.02941 6.30811V7.39084H3.01367L3.01487 7.39922C3.05868 7.77265 3.14653 8.13244 3.27292 8.4738H6.02893V11.2298C6.37244 11.3572 6.73558 11.4455 7.11165 11.4891V8.47404H8.19438V11.4893C8.57068 11.4457 8.93359 11.3576 9.2771 11.23V8.4738H12.0331C12.2208 7.96799 12.3232 7.42076 12.3232 6.8496C12.3232 6.27843 12.2208 5.7312 12.0331 5.22539H11.3918H4.48276ZM8.19461 7.39108H7.11189V6.30835H8.19461V7.39108ZM11.2003 7.39108H9.27758V6.30835H11.2003C11.2271 6.48502 11.241 6.66575 11.241 6.84984C11.241 7.03368 11.2271 7.21441 11.2003 7.39108Z" fill="white"/>
<path d="M7.65001 0.00219727C3.86826 0.00219727 0.802734 3.06796 0.802734 6.84948C0.802734 10.631 3.86826 13.6968 7.65001 13.6968C11.4318 13.6968 14.4973 10.631 14.4973 6.84948C14.4973 3.06796 11.4318 0.00219727 7.65001 0.00219727ZM7.65001 12.6121C4.46743 12.6121 1.88737 10.0321 1.88737 6.84948C1.88737 3.66689 4.46743 1.08684 7.65001 1.08684C10.8326 1.08684 13.4127 3.66689 13.4127 6.84948C13.4127 10.0321 10.8326 12.6121 7.65001 12.6121Z" fill="white"/>
</svg>
