<svg width="40" height="40" viewBox="0 0 40 40" fill="none" xmlns="http://www.w3.org/2000/svg">
<path d="M39.4699 16.344H37.89V16.2626H20.2375V24.1082H31.3223C29.7051 28.6753 25.3596 31.9538 20.2375 31.9538C13.7384 31.9538 8.46915 26.6845 8.46915 20.1854C8.46915 13.6864 13.7384 8.41709 20.2375 8.41709C23.2374 8.41709 25.9667 9.54881 28.0448 11.3974L33.5926 5.84963C30.0895 2.5849 25.4038 0.571533 20.2375 0.571533C9.40571 0.571533 0.623596 9.35365 0.623596 20.1854C0.623596 31.0172 9.40571 39.7993 20.2375 39.7993C31.0693 39.7993 39.8514 31.0172 39.8514 20.1854C39.8514 18.8703 39.716 17.5866 39.4699 16.344Z" fill="#ADADC8"/>
<path d="M2.88516 11.0555L9.3293 15.7814C11.073 11.4644 15.2958 8.41642 20.2376 8.41642C23.2375 8.41642 25.9668 9.54814 28.0449 11.3967L33.5927 5.84896C30.0896 2.58423 25.4039 0.570862 20.2376 0.570862C12.7039 0.570862 6.17049 4.82413 2.88516 11.0555Z" fill="#ADADC8"/>
<path d="M20.2374 39.7997C25.3036 39.7997 29.907 37.8608 33.3875 34.7079L27.317 29.571C25.2816 31.1189 22.7945 31.9561 20.2374 31.9541C15.1358 31.9541 10.8041 28.7011 9.17218 24.1615L2.77609 29.0895C6.02219 35.4415 12.6144 39.7997 20.2374 39.7997Z" fill="#ADADC8"/>
<path d="M39.4704 16.3439H37.8905V16.2625H20.238V24.1081H31.3228C30.5492 26.2817 29.1558 28.181 27.3147 29.5715L27.3176 29.5695L33.3881 34.7064C32.9586 35.0967 39.8519 29.9922 39.8519 20.1853C39.8519 18.8702 39.7166 17.5864 39.4704 16.3439Z" fill="#ADADC8"/>
</svg>
