<svg width="48" height="48" viewBox="0 0 48 48" fill="none" xmlns="http://www.w3.org/2000/svg">
<circle cx="24" cy="24" r="24" fill="#F6F6FF"/>
<path d="M39.6465 20.8448H38.3591V20.7785H23.9746V27.1716H33.0073C31.6895 30.8932 28.1485 33.5648 23.9746 33.5648C18.6786 33.5648 14.3848 29.271 14.3848 23.975C14.3848 18.6791 18.6786 14.3853 23.9746 14.3853C26.4191 14.3853 28.6431 15.3075 30.3365 16.8139L34.8573 12.2932C32.0027 9.63283 28.1844 7.99219 23.9746 7.99219C15.148 7.99219 7.9917 15.1485 7.9917 23.975C7.9917 32.8016 15.148 39.9579 23.9746 39.9579C32.8011 39.9579 39.9574 32.8016 39.9574 23.975C39.9574 22.9034 39.8471 21.8573 39.6465 20.8448Z" fill="#FFC107"/>
<path d="M9.83386 16.5353L15.085 20.3864C16.5059 16.8686 19.947 14.3848 23.9739 14.3848C26.4185 14.3848 28.6425 15.3071 30.3359 16.8134L34.8566 12.2927C32.0021 9.63234 28.1838 7.9917 23.9739 7.9917C17.8349 7.9917 12.511 11.4576 9.83386 16.5353Z" fill="#FF3D00"/>
<path d="M23.9746 39.9581C28.103 39.9581 31.8541 38.3782 34.6903 35.8089L29.7436 31.623C28.085 32.8844 26.0583 33.5666 23.9746 33.565C19.8174 33.565 16.2876 30.9142 14.9579 27.215L9.74585 31.2307C12.391 36.4067 17.7629 39.9581 23.9746 39.9581Z" fill="#4CAF50"/>
<path d="M39.6468 20.8442H38.3594V20.7778H23.9749V27.171H33.0076C32.3772 28.9422 31.2417 30.49 29.7415 31.623L29.7439 31.6214L34.6906 35.8073C34.3405 36.1254 39.9577 31.9658 39.9577 23.9744C39.9577 22.9028 39.8474 21.8567 39.6468 20.8442Z" fill="#1976D2"/>
</svg>
