<svg width="18" height="19" viewBox="0 0 18 19" fill="none" xmlns="http://www.w3.org/2000/svg">
<path d="M17.596 7.80095H16.8909V7.7636H9.01255V11.3635H13.9597C13.238 13.4592 11.2986 14.9635 9.01255 14.9635C6.11199 14.9635 3.76029 12.5457 3.76029 9.56357C3.76029 6.58147 6.11199 4.16366 9.01255 4.16366C10.3514 4.16366 11.5695 4.68295 12.497 5.53119L14.973 2.98558C13.4096 1.48756 11.3183 0.563721 9.01255 0.563721C4.17828 0.563721 0.258789 4.5934 0.258789 9.56357C0.258789 14.5337 4.17828 18.5634 9.01255 18.5634C13.8468 18.5634 17.7663 14.5337 17.7663 9.56357C17.7663 8.96013 17.7059 8.37109 17.596 7.80095Z" fill="#8D8D8D"/>
<path d="M1.26807 5.37386L4.14411 7.54237C4.92232 5.5615 6.80701 4.16293 9.01252 4.16293C10.3514 4.16293 11.5695 4.68222 12.497 5.53045L14.9729 2.98485C13.4095 1.48682 11.3183 0.562988 9.01252 0.562988C5.6502 0.562988 2.73432 2.51461 1.26807 5.37386Z" fill="#8D8D8D"/>
<path d="M9.01227 18.5633C11.2734 18.5633 13.3279 17.6736 14.8812 16.2269L12.1719 13.8699C11.2635 14.5801 10.1535 14.9643 9.01227 14.9633C6.73542 14.9633 4.80215 13.4707 4.07384 11.3877L1.21924 13.6489C2.66799 16.5635 5.61012 18.5633 9.01227 18.5633Z" fill="#8D8D8D"/>
<path d="M17.5962 7.80053H16.8911V7.76318H9.0127V11.3631H13.9599C13.6146 12.3605 12.9927 13.232 12.1711 13.87L12.1724 13.8691L14.8817 16.2262C14.6899 16.4053 17.7665 14.0631 17.7665 9.56315C17.7665 8.95971 17.7061 8.37067 17.5962 7.80053Z" fill="#8D8D8D"/>
</svg>
