<svg width="35" height="35" viewBox="0 0 35 35" fill="none" xmlns="http://www.w3.org/2000/svg">
<path fill-rule="evenodd" clip-rule="evenodd" d="M17.08 0C7.64615 0 0 7.64757 0 17.08C0 26.5124 7.64615 34.16 17.08 34.16C26.5124 34.16 34.16 26.5124 34.16 17.08C34.16 7.64757 26.5124 0 17.08 0ZM17.2793 27.069C11.7738 27.069 7.31593 22.5997 7.31593 17.08C7.31593 11.5603 11.7738 7.09105 17.2793 7.09105C19.9694 7.09105 22.2182 8.08311 23.9433 9.69432L21.1337 12.5097V12.504C20.0875 11.5048 18.761 10.9924 17.2793 10.9924C13.9914 10.9924 11.3198 13.7764 11.3198 17.0743C11.3198 20.3693 13.9914 23.1619 17.2793 23.1619C20.2626 23.1619 22.2922 21.4511 22.7107 19.1026H17.2793V15.2069H26.6519C26.7772 15.8759 26.8441 16.5733 26.8441 17.3049C26.8441 23.0125 23.0338 27.069 17.2793 27.069Z" fill="#D6D6E8"/>
</svg>
