<svg width="259" height="43" viewBox="0 0 259 43" fill="none" xmlns="http://www.w3.org/2000/svg">
<rect x="1.68115" y="1.55005" width="256" height="40" rx="20" fill="white" stroke="#D6D6E8" stroke-width="1.63449"/>
<path d="M54.667 26.4575V15.0044H56.1826V25.106H61.8232V26.4575H54.667ZM62.7726 22.3091C62.7726 20.7726 63.1997 19.6346 64.0539 18.895C64.7674 18.2804 65.6372 17.9731 66.6632 17.9731C67.8039 17.9731 68.7362 18.3481 69.4601 19.0981C70.1841 19.8429 70.5461 20.8742 70.5461 22.1919C70.5461 23.2596 70.3846 24.1007 70.0617 24.7153C69.744 25.3247 69.2778 25.7987 68.6632 26.1372C68.0539 26.4757 67.3872 26.645 66.6632 26.645C65.5018 26.645 64.5617 26.2726 63.8429 25.5278C63.1294 24.783 62.7726 23.7101 62.7726 22.3091ZM64.2179 22.3091C64.2179 23.3716 64.4497 24.1685 64.9132 24.6997C65.3768 25.2257 65.9601 25.4888 66.6632 25.4888C67.3612 25.4888 67.9419 25.2231 68.4054 24.6919C68.869 24.1606 69.1007 23.3507 69.1007 22.2622C69.1007 21.2362 68.8664 20.4601 68.3976 19.9341C67.9341 19.4028 67.356 19.1372 66.6632 19.1372C65.9601 19.1372 65.3768 19.4002 64.9132 19.9263C64.4497 20.4523 64.2179 21.2466 64.2179 22.3091ZM71.7845 27.145L73.1517 27.3481C73.209 27.77 73.3678 28.0773 73.6282 28.27C73.9772 28.5304 74.4538 28.6606 75.0579 28.6606C75.709 28.6606 76.2116 28.5304 76.5657 28.27C76.9199 28.0096 77.1595 27.645 77.2845 27.1763C77.3574 26.8898 77.3913 26.2882 77.3861 25.3716C76.7715 26.0955 76.0058 26.4575 75.0892 26.4575C73.9486 26.4575 73.0657 26.0461 72.4407 25.2231C71.8157 24.4002 71.5032 23.4132 71.5032 22.2622C71.5032 21.4705 71.6465 20.7414 71.9329 20.0747C72.2194 19.4028 72.6335 18.8846 73.1751 18.52C73.722 18.1554 74.3626 17.9731 75.097 17.9731C76.0762 17.9731 76.8835 18.369 77.5189 19.1606V18.1606H78.8157V25.3325C78.8157 26.6242 78.6829 27.5382 78.4173 28.0747C78.1569 28.6164 77.7402 29.0435 77.1673 29.356C76.5996 29.6685 75.8991 29.8247 75.0657 29.8247C74.0762 29.8247 73.2767 29.6007 72.6673 29.1528C72.0579 28.7101 71.7637 28.0409 71.7845 27.145ZM72.9486 22.1606C72.9486 23.2492 73.1647 24.0435 73.597 24.5435C74.0293 25.0435 74.571 25.2935 75.222 25.2935C75.8678 25.2935 76.4095 25.0461 76.847 24.5513C77.2845 24.0513 77.5032 23.27 77.5032 22.2075C77.5032 21.1919 77.2767 20.4263 76.8236 19.9106C76.3756 19.395 75.834 19.1372 75.1986 19.1372C74.5736 19.1372 74.0423 19.3924 73.6048 19.9028C73.1673 20.408 72.9486 21.1606 72.9486 22.1606ZM85.0895 16.6216V15.0044H86.4957V16.6216H85.0895ZM85.0895 26.4575V18.1606H86.4957V26.4575H85.0895ZM88.4842 26.4575V18.1606H89.7498V19.3403C90.3592 18.4289 91.2394 17.9731 92.3904 17.9731C92.8904 17.9731 93.3488 18.0643 93.7654 18.2466C94.1873 18.4237 94.5024 18.658 94.7107 18.9497C94.9191 19.2414 95.0649 19.5877 95.1482 19.9888C95.2003 20.2492 95.2264 20.7049 95.2264 21.356V26.4575H93.8201V21.4106C93.8201 20.8377 93.7654 20.4106 93.6561 20.1294C93.5467 19.8429 93.3514 19.6164 93.0701 19.4497C92.7941 19.2778 92.4686 19.1919 92.0936 19.1919C91.4946 19.1919 90.9764 19.382 90.5389 19.7622C90.1066 20.1424 89.8904 20.8638 89.8904 21.9263V26.4575H88.4842ZM103.055 26.4575L100.516 18.1606H101.969L103.289 22.9497L103.781 24.731C103.802 24.6424 103.945 24.0721 104.211 23.02L105.531 18.1606H106.977L108.219 22.9731L108.633 24.5591L109.109 22.9575L110.531 18.1606H111.899L109.305 26.4575H107.844L106.524 21.4888L106.203 20.0747L104.524 26.4575H103.055ZM112.934 16.6216V15.0044H114.34V16.6216H112.934ZM112.934 26.4575V18.1606H114.34V26.4575H112.934ZM119.399 25.1997L119.602 26.4419C119.206 26.5252 118.852 26.5669 118.539 26.5669C118.029 26.5669 117.633 26.4862 117.352 26.3247C117.071 26.1632 116.873 25.9523 116.758 25.6919C116.644 25.4263 116.586 24.8716 116.586 24.0278V19.2544H115.555V18.1606H116.586V16.106L117.985 15.2622V18.1606H119.399V19.2544H117.985V24.106C117.985 24.507 118.008 24.7648 118.055 24.8794C118.107 24.994 118.188 25.0851 118.297 25.1528C118.412 25.2205 118.573 25.2544 118.782 25.2544C118.938 25.2544 119.144 25.2362 119.399 25.1997ZM120.622 26.4575V15.0044H122.028V19.1138C122.684 18.3534 123.512 17.9731 124.512 17.9731C125.127 17.9731 125.661 18.0955 126.114 18.3403C126.567 18.5799 126.89 18.9132 127.083 19.3403C127.281 19.7674 127.379 20.3872 127.379 21.1997V26.4575H125.973V21.1997C125.973 20.4966 125.82 19.9862 125.512 19.6685C125.21 19.3455 124.781 19.1841 124.223 19.1841C123.807 19.1841 123.413 19.2935 123.044 19.5122C122.679 19.7257 122.419 20.0174 122.262 20.3872C122.106 20.757 122.028 21.2674 122.028 21.9185V26.4575H120.622ZM139.2 21.9653V20.6216L144.052 20.6138V24.8638C143.307 25.4575 142.539 25.9054 141.747 26.2075C140.955 26.5044 140.143 26.6528 139.309 26.6528C138.184 26.6528 137.161 26.4132 136.239 25.9341C135.323 25.4497 134.63 24.7518 134.161 23.8403C133.692 22.9289 133.458 21.9106 133.458 20.7856C133.458 19.6711 133.69 18.632 134.153 17.6685C134.622 16.6997 135.294 15.981 136.169 15.5122C137.044 15.0435 138.052 14.8091 139.192 14.8091C140.02 14.8091 140.768 14.9445 141.434 15.2153C142.106 15.481 142.632 15.8534 143.013 16.3325C143.393 16.8117 143.682 17.4367 143.88 18.2075L142.513 18.5825C142.341 17.9992 142.127 17.5409 141.872 17.2075C141.617 16.8742 141.252 16.6086 140.778 16.4106C140.304 16.2075 139.778 16.106 139.2 16.106C138.507 16.106 137.908 16.2127 137.403 16.4263C136.898 16.6346 136.489 16.9106 136.177 17.2544C135.869 17.5981 135.63 17.9757 135.458 18.3872C135.166 19.0955 135.02 19.8638 135.02 20.6919C135.02 21.7127 135.195 22.5669 135.544 23.2544C135.898 23.9419 136.411 24.4523 137.083 24.7856C137.755 25.119 138.468 25.2856 139.224 25.2856C139.88 25.2856 140.52 25.1606 141.145 24.9106C141.77 24.6554 142.244 24.3846 142.567 24.0981V21.9653H139.2ZM145.431 22.3091C145.431 20.7726 145.858 19.6346 146.712 18.895C147.426 18.2804 148.295 17.9731 149.321 17.9731C150.462 17.9731 151.394 18.3481 152.118 19.0981C152.842 19.8429 153.204 20.8742 153.204 22.1919C153.204 23.2596 153.043 24.1007 152.72 24.7153C152.402 25.3247 151.936 25.7987 151.321 26.1372C150.712 26.4757 150.045 26.645 149.321 26.645C148.16 26.645 147.22 26.2726 146.501 25.5278C145.788 24.783 145.431 23.7101 145.431 22.3091ZM146.876 22.3091C146.876 23.3716 147.108 24.1685 147.571 24.6997C148.035 25.2257 148.618 25.4888 149.321 25.4888C150.019 25.4888 150.6 25.2231 151.064 24.6919C151.527 24.1606 151.759 23.3507 151.759 22.2622C151.759 21.2362 151.524 20.4601 151.056 19.9341C150.592 19.4028 150.014 19.1372 149.321 19.1372C148.618 19.1372 148.035 19.4002 147.571 19.9263C147.108 20.4523 146.876 21.2466 146.876 22.3091ZM154.177 22.3091C154.177 20.7726 154.604 19.6346 155.458 18.895C156.172 18.2804 157.042 17.9731 158.068 17.9731C159.208 17.9731 160.141 18.3481 160.864 19.0981C161.588 19.8429 161.95 20.8742 161.95 22.1919C161.95 23.2596 161.789 24.1007 161.466 24.7153C161.148 25.3247 160.682 25.7987 160.068 26.1372C159.458 26.4757 158.792 26.645 158.068 26.645C156.906 26.645 155.966 26.2726 155.247 25.5278C154.534 24.783 154.177 23.7101 154.177 22.3091ZM155.622 22.3091C155.622 23.3716 155.854 24.1685 156.318 24.6997C156.781 25.2257 157.364 25.4888 158.068 25.4888C158.766 25.4888 159.346 25.2231 159.81 24.6919C160.273 24.1606 160.505 23.3507 160.505 22.2622C160.505 21.2362 160.271 20.4601 159.802 19.9341C159.338 19.4028 158.76 19.1372 158.068 19.1372C157.364 19.1372 156.781 19.4002 156.318 19.9263C155.854 20.4523 155.622 21.2466 155.622 22.3091ZM163.189 27.145L164.556 27.3481C164.613 27.77 164.772 28.0773 165.033 28.27C165.382 28.5304 165.858 28.6606 166.462 28.6606C167.113 28.6606 167.616 28.5304 167.97 28.27C168.324 28.0096 168.564 27.645 168.689 27.1763C168.762 26.8898 168.796 26.2882 168.79 25.3716C168.176 26.0955 167.41 26.4575 166.494 26.4575C165.353 26.4575 164.47 26.0461 163.845 25.2231C163.22 24.4002 162.908 23.4132 162.908 22.2622C162.908 21.4705 163.051 20.7414 163.337 20.0747C163.624 19.4028 164.038 18.8846 164.579 18.52C165.126 18.1554 165.767 17.9731 166.501 17.9731C167.481 17.9731 168.288 18.369 168.923 19.1606V18.1606H170.22V25.3325C170.22 26.6242 170.087 27.5382 169.822 28.0747C169.561 28.6164 169.145 29.0435 168.572 29.356C168.004 29.6685 167.303 29.8247 166.47 29.8247C165.481 29.8247 164.681 29.6007 164.072 29.1528C163.462 28.7101 163.168 28.0409 163.189 27.145ZM164.353 22.1606C164.353 23.2492 164.569 24.0435 165.001 24.5435C165.434 25.0435 165.975 25.2935 166.626 25.2935C167.272 25.2935 167.814 25.0461 168.251 24.5513C168.689 24.0513 168.908 23.27 168.908 22.2075C168.908 21.1919 168.681 20.4263 168.228 19.9106C167.78 19.395 167.238 19.1372 166.603 19.1372C165.978 19.1372 165.447 19.3924 165.009 19.9028C164.572 20.408 164.353 21.1606 164.353 22.1606ZM172.162 26.4575V15.0044H173.568V26.4575H172.162ZM181.275 23.7856L182.728 23.9653C182.499 24.8143 182.075 25.4731 181.455 25.9419C180.835 26.4106 180.043 26.645 179.08 26.645C177.866 26.645 176.903 26.2726 176.189 25.5278C175.481 24.7778 175.127 23.7284 175.127 22.3794C175.127 20.9836 175.486 19.9002 176.205 19.1294C176.924 18.3586 177.856 17.9731 179.002 17.9731C180.111 17.9731 181.017 18.3507 181.72 19.106C182.424 19.8612 182.775 20.9237 182.775 22.2935C182.775 22.3768 182.773 22.5018 182.767 22.6685H176.58C176.632 23.5799 176.89 24.2778 177.353 24.7622C177.817 25.2466 178.395 25.4888 179.088 25.4888C179.603 25.4888 180.043 25.3534 180.408 25.0825C180.773 24.8117 181.062 24.3794 181.275 23.7856ZM176.658 21.5122H181.291C181.228 20.8143 181.051 20.2909 180.759 19.9419C180.312 19.4002 179.731 19.1294 179.017 19.1294C178.371 19.1294 177.827 19.3455 177.384 19.7778C176.947 20.2101 176.705 20.7882 176.658 21.5122Z" fill="#757575"/>
<path d="M34.3273 19.4995H33.5218V19.458H24.5221V23.4578H30.1734C29.349 25.7863 27.1335 27.4577 24.5221 27.4577C21.2087 27.4577 18.5223 24.7713 18.5223 21.4579C18.5223 18.1445 21.2087 15.4581 24.5221 15.4581C26.0516 15.4581 27.443 16.0351 28.5025 16.9776L31.3309 14.1492C29.5449 12.4847 27.156 11.4583 24.5221 11.4583C18.9998 11.4583 14.5225 15.9356 14.5225 21.4579C14.5225 26.9802 18.9998 31.4576 24.5221 31.4576C30.0444 31.4576 34.5218 26.9802 34.5218 21.4579C34.5218 20.7874 34.4528 20.133 34.3273 19.4995Z" fill="#FFC107"/>
<path d="M15.6755 16.8028L18.9609 19.2123C19.8499 17.0113 22.0028 15.4574 24.5222 15.4574C26.0517 15.4574 27.4431 16.0344 28.5026 16.9768L31.331 14.1484C29.5451 12.484 27.1561 11.4575 24.5222 11.4575C20.6814 11.4575 17.3505 13.6259 15.6755 16.8028Z" fill="#FF3D00"/>
<path d="M24.5218 31.4573C27.1047 31.4573 29.4517 30.4689 31.2261 28.8614L28.1312 26.2425C27.0935 27.0317 25.8255 27.4585 24.5218 27.4575C21.9209 27.4575 19.7125 25.799 18.8805 23.4846L15.6196 25.997C17.2746 29.2354 20.6355 31.4573 24.5218 31.4573Z" fill="#4CAF50"/>
<path d="M34.3276 19.499H33.5222V19.4575H24.5225V23.4574H30.1738C29.7794 24.5656 29.069 25.5339 28.1303 26.2428L28.1318 26.2418L31.2267 28.8607C31.0077 29.0597 34.5221 26.4573 34.5221 21.4575C34.5221 20.787 34.4531 20.1325 34.3276 19.499Z" fill="#1976D2"/>
</svg>
