<svg width="259" height="43" viewBox="0 0 259 43" fill="none" xmlns="http://www.w3.org/2000/svg">
<rect x="1.66992" y="1.55005" width="256" height="40" rx="20" fill="white" stroke="#D6D6E8" stroke-width="1.63449"/>
<path d="M54.2026 22.7778L55.6323 22.6528C55.7 23.2257 55.8563 23.6971 56.1011 24.0669C56.3511 24.4315 56.7365 24.7284 57.2573 24.9575C57.7782 25.1815 58.3641 25.2935 59.0151 25.2935C59.5933 25.2935 60.1037 25.2075 60.5464 25.0356C60.9891 24.8638 61.3172 24.6294 61.5308 24.3325C61.7495 24.0304 61.8589 23.7023 61.8589 23.3481C61.8589 22.9888 61.7547 22.6763 61.5464 22.4106C61.3381 22.1398 60.9943 21.9132 60.5151 21.731C60.2078 21.6112 59.5282 21.4263 58.4761 21.1763C57.424 20.9211 56.687 20.6815 56.2651 20.4575C55.7183 20.1711 55.3094 19.8169 55.0386 19.395C54.7729 18.9679 54.6401 18.4914 54.6401 17.9653C54.6401 17.3872 54.8042 16.8481 55.1323 16.3481C55.4604 15.8429 55.9396 15.4601 56.5698 15.1997C57.2 14.9393 57.9006 14.8091 58.6714 14.8091C59.5203 14.8091 60.2677 14.9471 60.9136 15.2231C61.5646 15.494 62.0646 15.895 62.4136 16.4263C62.7625 16.9575 62.95 17.5591 62.9761 18.231L61.5229 18.3403C61.4448 17.6164 61.1792 17.0695 60.7261 16.6997C60.2782 16.3299 59.6141 16.145 58.7339 16.145C57.8172 16.145 57.1479 16.3143 56.7261 16.6528C56.3094 16.9862 56.1011 17.3898 56.1011 17.8638C56.1011 18.2752 56.2495 18.6138 56.5464 18.8794C56.8381 19.145 57.5985 19.4185 58.8276 19.6997C60.062 19.9757 60.9084 20.2179 61.3667 20.4263C62.0334 20.7336 62.5256 21.1242 62.8433 21.5981C63.161 22.0669 63.3198 22.6086 63.3198 23.2231C63.3198 23.8325 63.1453 24.408 62.7964 24.9497C62.4474 25.4862 61.9448 25.9054 61.2886 26.2075C60.6375 26.5044 59.9032 26.6528 59.0854 26.6528C58.049 26.6528 57.1792 26.5018 56.4761 26.1997C55.7782 25.8976 55.2287 25.4445 54.8276 24.8403C54.4318 24.231 54.2235 23.5435 54.2026 22.7778ZM70.7301 23.7856L72.1833 23.9653C71.9541 24.8143 71.5296 25.4731 70.9098 25.9419C70.29 26.4106 69.4984 26.645 68.5348 26.645C67.3213 26.645 66.3577 26.2726 65.6442 25.5278C64.9359 24.7778 64.5817 23.7284 64.5817 22.3794C64.5817 20.9836 64.9411 19.9002 65.6598 19.1294C66.3786 18.3586 67.3109 17.9731 68.4567 17.9731C69.5661 17.9731 70.4723 18.3507 71.1754 19.106C71.8786 19.8612 72.2301 20.9237 72.2301 22.2935C72.2301 22.3768 72.2275 22.5018 72.2223 22.6685H66.0348C66.0869 23.5799 66.3447 24.2778 66.8083 24.7622C67.2718 25.2466 67.8499 25.4888 68.5426 25.4888C69.0583 25.4888 69.4984 25.3534 69.8629 25.0825C70.2275 24.8117 70.5166 24.3794 70.7301 23.7856ZM66.1129 21.5122H70.7458C70.6833 20.8143 70.5062 20.2909 70.2145 19.9419C69.7666 19.4002 69.1859 19.1294 68.4723 19.1294C67.8265 19.1294 67.2822 19.3455 66.8395 19.7778C66.402 20.2101 66.1598 20.7882 66.1129 21.5122ZM83.5039 23.4185L84.8867 23.5981C84.7357 24.5513 84.3476 25.2987 83.7226 25.8403C83.1028 26.3768 82.3398 26.645 81.4336 26.645C80.2982 26.645 79.3841 26.2752 78.6914 25.5356C78.0039 24.7909 77.6601 23.7257 77.6601 22.3403C77.6601 21.4445 77.8086 20.6606 78.1054 19.9888C78.4023 19.3169 78.8528 18.8143 79.457 18.481C80.0664 18.1424 80.7278 17.9731 81.4414 17.9731C82.3424 17.9731 83.0794 18.2023 83.6523 18.6606C84.2252 19.1138 84.5924 19.7596 84.7539 20.5981L83.3867 20.8091C83.2565 20.2518 83.0247 19.8325 82.6914 19.5513C82.3633 19.27 81.9648 19.1294 81.4961 19.1294C80.7877 19.1294 80.2122 19.3846 79.7695 19.895C79.3268 20.4002 79.1054 21.2023 79.1054 22.3013C79.1054 23.4159 79.319 24.2257 79.7461 24.731C80.1732 25.2362 80.7304 25.4888 81.4179 25.4888C81.97 25.4888 82.431 25.3195 82.8008 24.981C83.1706 24.6424 83.4049 24.1216 83.5039 23.4185ZM85.4064 22.3091C85.4064 20.7726 85.8335 19.6346 86.6876 18.895C87.4012 18.2804 88.271 17.9731 89.297 17.9731C90.4376 17.9731 91.3699 18.3481 92.0939 19.0981C92.8178 19.8429 93.1798 20.8742 93.1798 22.1919C93.1798 23.2596 93.0184 24.1007 92.6954 24.7153C92.3777 25.3247 91.9116 25.7987 91.297 26.1372C90.6876 26.4757 90.021 26.645 89.297 26.645C88.1356 26.645 87.1954 26.2726 86.4767 25.5278C85.7632 24.783 85.4064 23.7101 85.4064 22.3091ZM86.8517 22.3091C86.8517 23.3716 87.0835 24.1685 87.547 24.6997C88.0106 25.2257 88.5939 25.4888 89.297 25.4888C89.9949 25.4888 90.5757 25.2231 91.0392 24.6919C91.5027 24.1606 91.7345 23.3507 91.7345 22.2622C91.7345 21.2362 91.5001 20.4601 91.0314 19.9341C90.5678 19.4028 89.9897 19.1372 89.297 19.1372C88.5939 19.1372 88.0106 19.4002 87.547 19.9263C87.0835 20.4523 86.8517 21.2466 86.8517 22.3091ZM94.6761 26.4575V18.1606H95.9417V19.3403C96.5511 18.4289 97.4313 17.9731 98.5823 17.9731C99.0823 17.9731 99.5407 18.0643 99.9573 18.2466C100.379 18.4237 100.694 18.658 100.903 18.9497C101.111 19.2414 101.257 19.5877 101.34 19.9888C101.392 20.2492 101.418 20.7049 101.418 21.356V26.4575H100.012V21.4106C100.012 20.8377 99.9573 20.4106 99.8479 20.1294C99.7386 19.8429 99.5433 19.6164 99.262 19.4497C98.986 19.2778 98.6604 19.1919 98.2854 19.1919C97.6865 19.1919 97.1683 19.382 96.7308 19.7622C96.2985 20.1424 96.0823 20.8638 96.0823 21.9263V26.4575H94.6761ZM103.422 26.4575V18.1606H104.688V19.3403C105.297 18.4289 106.178 17.9731 107.329 17.9731C107.829 17.9731 108.287 18.0643 108.704 18.2466C109.125 18.4237 109.441 18.658 109.649 18.9497C109.857 19.2414 110.003 19.5877 110.086 19.9888C110.138 20.2492 110.165 20.7049 110.165 21.356V26.4575H108.758V21.4106C108.758 20.8377 108.704 20.4106 108.594 20.1294C108.485 19.8429 108.29 19.6164 108.008 19.4497C107.732 19.2778 107.407 19.1919 107.032 19.1919C106.433 19.1919 105.915 19.382 105.477 19.7622C105.045 20.1424 104.829 20.8638 104.829 21.9263V26.4575H103.422ZM117.848 23.7856L119.301 23.9653C119.072 24.8143 118.648 25.4731 118.028 25.9419C117.408 26.4106 116.616 26.645 115.653 26.645C114.439 26.645 113.476 26.2726 112.762 25.5278C112.054 24.7778 111.7 23.7284 111.7 22.3794C111.7 20.9836 112.059 19.9002 112.778 19.1294C113.497 18.3586 114.429 17.9731 115.575 17.9731C116.684 17.9731 117.59 18.3507 118.294 19.106C118.997 19.8612 119.348 20.9237 119.348 22.2935C119.348 22.3768 119.346 22.5018 119.34 22.6685H113.153C113.205 23.5799 113.463 24.2778 113.926 24.7622C114.39 25.2466 114.968 25.4888 115.661 25.4888C116.176 25.4888 116.616 25.3534 116.981 25.0825C117.346 24.8117 117.635 24.3794 117.848 23.7856ZM113.231 21.5122H117.864C117.801 20.8143 117.624 20.2909 117.333 19.9419C116.885 19.4002 116.304 19.1294 115.59 19.1294C114.945 19.1294 114.4 19.3455 113.958 19.7778C113.52 20.2101 113.278 20.7882 113.231 21.5122ZM126.329 23.4185L127.712 23.5981C127.561 24.5513 127.173 25.2987 126.548 25.8403C125.928 26.3768 125.165 26.645 124.259 26.645C123.123 26.645 122.209 26.2752 121.516 25.5356C120.829 24.7909 120.485 23.7257 120.485 22.3403C120.485 21.4445 120.634 20.6606 120.93 19.9888C121.227 19.3169 121.678 18.8143 122.282 18.481C122.891 18.1424 123.553 17.9731 124.266 17.9731C125.167 17.9731 125.904 18.2023 126.477 18.6606C127.05 19.1138 127.417 19.7596 127.579 20.5981L126.212 20.8091C126.081 20.2518 125.85 19.8325 125.516 19.5513C125.188 19.27 124.79 19.1294 124.321 19.1294C123.613 19.1294 123.037 19.3846 122.595 19.895C122.152 20.4002 121.93 21.2023 121.93 22.3013C121.93 23.4159 122.144 24.2257 122.571 24.731C122.998 25.2362 123.555 25.4888 124.243 25.4888C124.795 25.4888 125.256 25.3195 125.626 24.981C125.996 24.6424 126.23 24.1216 126.329 23.4185ZM131.825 25.1997L132.028 26.4419C131.632 26.5252 131.278 26.5669 130.966 26.5669C130.455 26.5669 130.06 26.4862 129.778 26.3247C129.497 26.1632 129.299 25.9523 129.185 25.6919C129.07 25.4263 129.013 24.8716 129.013 24.0278V19.2544H127.981V18.1606H129.013V16.106L130.411 15.2622V18.1606H131.825V19.2544H130.411V24.106C130.411 24.507 130.435 24.7648 130.481 24.8794C130.533 24.994 130.614 25.0851 130.724 25.1528C130.838 25.2205 131 25.2544 131.208 25.2544C131.364 25.2544 131.57 25.2362 131.825 25.1997ZM138.728 23.7856L140.181 23.9653C139.952 24.8143 139.527 25.4731 138.907 25.9419C138.288 26.4106 137.496 26.645 136.532 26.645C135.319 26.645 134.355 26.2726 133.642 25.5278C132.933 24.7778 132.579 23.7284 132.579 22.3794C132.579 20.9836 132.939 19.9002 133.657 19.1294C134.376 18.3586 135.308 17.9731 136.454 17.9731C137.564 17.9731 138.47 18.3507 139.173 19.106C139.876 19.8612 140.228 20.9237 140.228 22.2935C140.228 22.3768 140.225 22.5018 140.22 22.6685H134.032C134.084 23.5799 134.342 24.2778 134.806 24.7622C135.269 25.2466 135.847 25.4888 136.54 25.4888C137.056 25.4888 137.496 25.3534 137.86 25.0825C138.225 24.8117 138.514 24.3794 138.728 23.7856ZM134.11 21.5122H138.743C138.681 20.8143 138.504 20.2909 138.212 19.9419C137.764 19.4002 137.183 19.1294 136.47 19.1294C135.824 19.1294 135.28 19.3455 134.837 19.7778C134.4 20.2101 134.157 20.7882 134.11 21.5122ZM141.779 26.4575V18.1606H143.044V19.4185C143.367 18.8299 143.664 18.4419 143.935 18.2544C144.211 18.0669 144.513 17.9731 144.841 17.9731C145.315 17.9731 145.797 18.1242 146.286 18.4263L145.802 19.731C145.458 19.5278 145.115 19.4263 144.771 19.4263C144.463 19.4263 144.187 19.52 143.943 19.7075C143.698 19.8898 143.523 20.145 143.419 20.4731C143.263 20.9731 143.185 21.52 143.185 22.1138V26.4575H141.779ZM156.67 25.4341C156.149 25.8768 155.646 26.1893 155.162 26.3716C154.683 26.5539 154.167 26.645 153.615 26.645C152.703 26.645 152.003 26.4237 151.513 25.981C151.024 25.533 150.779 24.9627 150.779 24.27C150.779 23.8638 150.87 23.494 151.052 23.1606C151.24 22.8221 151.482 22.5513 151.779 22.3481C152.081 22.145 152.42 21.9914 152.795 21.8872C153.071 21.8143 153.487 21.744 154.045 21.6763C155.18 21.5409 156.016 21.3794 156.552 21.1919C156.558 20.9992 156.56 20.8768 156.56 20.8247C156.56 20.2518 156.427 19.8481 156.162 19.6138C155.802 19.2961 155.268 19.1372 154.56 19.1372C153.899 19.1372 153.409 19.2544 153.091 19.4888C152.779 19.7179 152.547 20.1268 152.396 20.7153L151.021 20.5278C151.146 19.9393 151.352 19.4653 151.638 19.106C151.925 18.7414 152.339 18.4627 152.88 18.27C153.422 18.0721 154.05 17.9731 154.763 17.9731C155.472 17.9731 156.047 18.0565 156.49 18.2231C156.933 18.3898 157.258 18.6007 157.466 18.856C157.675 19.106 157.821 19.4237 157.904 19.8091C157.951 20.0487 157.974 20.481 157.974 21.106V22.981C157.974 24.2882 158.003 25.1164 158.06 25.4653C158.123 25.8091 158.242 26.1398 158.42 26.4575H156.951C156.805 26.1659 156.711 25.8247 156.67 25.4341ZM156.552 22.2935C156.042 22.5018 155.276 22.6789 154.255 22.8247C153.677 22.908 153.268 23.0018 153.029 23.106C152.789 23.2101 152.604 23.3638 152.474 23.5669C152.344 23.7648 152.279 23.9862 152.279 24.231C152.279 24.606 152.42 24.9185 152.701 25.1685C152.987 25.4185 153.404 25.5435 153.951 25.5435C154.492 25.5435 154.974 25.4263 155.396 25.1919C155.818 24.9523 156.128 24.6268 156.326 24.2153C156.477 23.8976 156.552 23.4289 156.552 22.8091V22.2935ZM162.306 26.4575L159.15 18.1606H160.635L162.416 23.1294C162.608 23.6659 162.786 24.2231 162.947 24.8013C163.072 24.3638 163.246 23.8377 163.47 23.2231L165.314 18.1606H166.76L163.619 26.4575H162.306ZM173.521 23.7856L174.975 23.9653C174.745 24.8143 174.321 25.4731 173.701 25.9419C173.081 26.4106 172.29 26.645 171.326 26.645C170.113 26.645 169.149 26.2726 168.435 25.5278C167.727 24.7778 167.373 23.7284 167.373 22.3794C167.373 20.9836 167.732 19.9002 168.451 19.1294C169.17 18.3586 170.102 17.9731 171.248 17.9731C172.357 17.9731 173.264 18.3507 173.967 19.106C174.67 19.8612 175.021 20.9237 175.021 22.2935C175.021 22.3768 175.019 22.5018 175.014 22.6685H168.826C168.878 23.5799 169.136 24.2778 169.6 24.7622C170.063 25.2466 170.641 25.4888 171.334 25.4888C171.85 25.4888 172.29 25.3534 172.654 25.0825C173.019 24.8117 173.308 24.3794 173.521 23.7856ZM168.904 21.5122H173.537C173.475 20.8143 173.297 20.2909 173.006 19.9419C172.558 19.4002 171.977 19.1294 171.264 19.1294C170.618 19.1294 170.073 19.3455 169.631 19.7778C169.193 20.2101 168.951 20.7882 168.904 21.5122ZM182.002 23.4185L183.385 23.5981C183.234 24.5513 182.846 25.2987 182.221 25.8403C181.601 26.3768 180.838 26.645 179.932 26.645C178.796 26.645 177.882 26.2752 177.19 25.5356C176.502 24.7909 176.158 23.7257 176.158 22.3403C176.158 21.4445 176.307 20.6606 176.604 19.9888C176.9 19.3169 177.351 18.8143 177.955 18.481C178.565 18.1424 179.226 17.9731 179.94 17.9731C180.841 17.9731 181.578 18.2023 182.15 18.6606C182.723 19.1138 183.091 19.7596 183.252 20.5981L181.885 20.8091C181.755 20.2518 181.523 19.8325 181.19 19.5513C180.861 19.27 180.463 19.1294 179.994 19.1294C179.286 19.1294 178.71 19.3846 178.268 19.895C177.825 20.4002 177.604 21.2023 177.604 22.3013C177.604 23.4159 177.817 24.2257 178.244 24.731C178.671 25.2362 179.229 25.4888 179.916 25.4888C180.468 25.4888 180.929 25.3195 181.299 24.981C181.669 24.6424 181.903 24.1216 182.002 23.4185ZM194.26 21.9653V20.6216L199.112 20.6138V24.8638C198.367 25.4575 197.599 25.9054 196.807 26.2075C196.015 26.5044 195.203 26.6528 194.37 26.6528C193.245 26.6528 192.221 26.4132 191.299 25.9341C190.383 25.4497 189.69 24.7518 189.221 23.8403C188.752 22.9289 188.518 21.9106 188.518 20.7856C188.518 19.6711 188.75 18.632 189.213 17.6685C189.682 16.6997 190.354 15.981 191.229 15.5122C192.104 15.0435 193.112 14.8091 194.252 14.8091C195.08 14.8091 195.828 14.9445 196.495 15.2153C197.166 15.481 197.692 15.8534 198.073 16.3325C198.453 16.8117 198.742 17.4367 198.94 18.2075L197.573 18.5825C197.401 17.9992 197.187 17.5409 196.932 17.2075C196.677 16.8742 196.312 16.6086 195.838 16.4106C195.364 16.2075 194.838 16.106 194.26 16.106C193.567 16.106 192.968 16.2127 192.463 16.4263C191.958 16.6346 191.549 16.9106 191.237 17.2544C190.929 17.5981 190.69 17.9757 190.518 18.3872C190.226 19.0955 190.08 19.8638 190.08 20.6919C190.08 21.7127 190.255 22.5669 190.604 23.2544C190.958 23.9419 191.471 24.4523 192.143 24.7856C192.815 25.119 193.528 25.2856 194.284 25.2856C194.94 25.2856 195.58 25.1606 196.205 24.9106C196.83 24.6554 197.304 24.3846 197.627 24.0981V21.9653H194.26ZM200.491 22.3091C200.491 20.7726 200.918 19.6346 201.772 18.895C202.486 18.2804 203.355 17.9731 204.381 17.9731C205.522 17.9731 206.454 18.3481 207.178 19.0981C207.902 19.8429 208.264 20.8742 208.264 22.1919C208.264 23.2596 208.103 24.1007 207.78 24.7153C207.462 25.3247 206.996 25.7987 206.381 26.1372C205.772 26.4757 205.105 26.645 204.381 26.645C203.22 26.645 202.28 26.2726 201.561 25.5278C200.848 24.783 200.491 23.7101 200.491 22.3091ZM201.936 22.3091C201.936 23.3716 202.168 24.1685 202.631 24.6997C203.095 25.2257 203.678 25.4888 204.381 25.4888C205.079 25.4888 205.66 25.2231 206.124 24.6919C206.587 24.1606 206.819 23.3507 206.819 22.2622C206.819 21.2362 206.585 20.4601 206.116 19.9341C205.652 19.4028 205.074 19.1372 204.381 19.1372C203.678 19.1372 203.095 19.4002 202.631 19.9263C202.168 20.4523 201.936 21.2466 201.936 22.3091ZM209.237 22.3091C209.237 20.7726 209.664 19.6346 210.518 18.895C211.232 18.2804 212.102 17.9731 213.128 17.9731C214.268 17.9731 215.201 18.3481 215.925 19.0981C216.648 19.8429 217.01 20.8742 217.01 22.1919C217.01 23.2596 216.849 24.1007 216.526 24.7153C216.208 25.3247 215.742 25.7987 215.128 26.1372C214.518 26.4757 213.852 26.645 213.128 26.645C211.966 26.645 211.026 26.2726 210.307 25.5278C209.594 24.783 209.237 23.7101 209.237 22.3091ZM210.682 22.3091C210.682 23.3716 210.914 24.1685 211.378 24.6997C211.841 25.2257 212.425 25.4888 213.128 25.4888C213.826 25.4888 214.406 25.2231 214.87 24.6919C215.333 24.1606 215.565 23.3507 215.565 22.2622C215.565 21.2362 215.331 20.4601 214.862 19.9341C214.398 19.4028 213.82 19.1372 213.128 19.1372C212.425 19.1372 211.841 19.4002 211.378 19.9263C210.914 20.4523 210.682 21.2466 210.682 22.3091ZM218.249 27.145L219.616 27.3481C219.673 27.77 219.832 28.0773 220.093 28.27C220.442 28.5304 220.918 28.6606 221.522 28.6606C222.173 28.6606 222.676 28.5304 223.03 28.27C223.384 28.0096 223.624 27.645 223.749 27.1763C223.822 26.8898 223.856 26.2882 223.85 25.3716C223.236 26.0955 222.47 26.4575 221.554 26.4575C220.413 26.4575 219.53 26.0461 218.905 25.2231C218.28 24.4002 217.968 23.4132 217.968 22.2622C217.968 21.4705 218.111 20.7414 218.397 20.0747C218.684 19.4028 219.098 18.8846 219.64 18.52C220.186 18.1554 220.827 17.9731 221.561 17.9731C222.541 17.9731 223.348 18.369 223.983 19.1606V18.1606H225.28V25.3325C225.28 26.6242 225.147 27.5382 224.882 28.0747C224.621 28.6164 224.205 29.0435 223.632 29.356C223.064 29.6685 222.363 29.8247 221.53 29.8247C220.541 29.8247 219.741 29.6007 219.132 29.1528C218.522 28.7101 218.228 28.0409 218.249 27.145ZM219.413 22.1606C219.413 23.2492 219.629 24.0435 220.061 24.5435C220.494 25.0435 221.035 25.2935 221.686 25.2935C222.332 25.2935 222.874 25.0461 223.311 24.5513C223.749 24.0513 223.968 23.27 223.968 22.2075C223.968 21.1919 223.741 20.4263 223.288 19.9106C222.84 19.395 222.298 19.1372 221.663 19.1372C221.038 19.1372 220.507 19.3924 220.069 19.9028C219.632 20.408 219.413 21.1606 219.413 22.1606ZM227.222 26.4575V15.0044H228.628V26.4575H227.222ZM236.335 23.7856L237.788 23.9653C237.559 24.8143 237.135 25.4731 236.515 25.9419C235.895 26.4106 235.103 26.645 234.14 26.645C232.926 26.645 231.963 26.2726 231.249 25.5278C230.541 24.7778 230.187 23.7284 230.187 22.3794C230.187 20.9836 230.546 19.9002 231.265 19.1294C231.984 18.3586 232.916 17.9731 234.062 17.9731C235.171 17.9731 236.077 18.3507 236.78 19.106C237.484 19.8612 237.835 20.9237 237.835 22.2935C237.835 22.3768 237.833 22.5018 237.827 22.6685H231.64C231.692 23.5799 231.95 24.2778 232.413 24.7622C232.877 25.2466 233.455 25.4888 234.148 25.4888C234.663 25.4888 235.103 25.3534 235.468 25.0825C235.833 24.8117 236.122 24.3794 236.335 23.7856ZM231.718 21.5122H236.351C236.288 20.8143 236.111 20.2909 235.82 19.9419C235.372 19.4002 234.791 19.1294 234.077 19.1294C233.431 19.1294 232.887 19.3455 232.445 19.7778C232.007 20.2101 231.765 20.7882 231.718 21.5122Z" fill="#757575"/>
<path d="M34.3161 19.4995H33.5106V19.458H24.5109V23.4578H30.1622C29.3377 25.7863 27.1223 27.4577 24.5109 27.4577C21.1975 27.4577 18.5111 24.7713 18.5111 21.4579C18.5111 18.1445 21.1975 15.4581 24.5109 15.4581C26.0403 15.4581 27.4318 16.0351 28.4913 16.9776L31.3197 14.1492C29.5337 12.4847 27.1448 11.4583 24.5109 11.4583C18.9886 11.4583 14.5112 15.9356 14.5112 21.4579C14.5112 26.9802 18.9886 31.4576 24.5109 31.4576C30.0332 31.4576 34.5105 26.9802 34.5105 21.4579C34.5105 20.7874 34.4416 20.133 34.3161 19.4995Z" fill="#FFC107"/>
<path d="M15.6646 16.8028L18.9499 19.2123C19.8389 17.0113 21.9918 15.4574 24.5112 15.4574C26.0407 15.4574 27.4321 16.0344 28.4916 16.9768L31.32 14.1484C29.5341 12.484 27.1452 11.4575 24.5112 11.4575C20.6704 11.4575 17.3395 13.6259 15.6646 16.8028Z" fill="#FF3D00"/>
<path d="M24.5106 31.4573C27.0935 31.4573 29.4404 30.4689 31.2149 28.8614L28.12 26.2425C27.0823 27.0317 25.8143 27.4585 24.5106 27.4575C21.9097 27.4575 19.7013 25.799 18.8693 23.4846L15.6084 25.997C17.2633 29.2354 20.6242 31.4573 24.5106 31.4573Z" fill="#4CAF50"/>
<path d="M34.3164 19.499H33.5109V19.4575H24.5112V23.4574H30.1625C29.7682 24.5656 29.0578 25.5339 28.1191 26.2428L28.1206 26.2418L31.2155 28.8607C30.9965 29.0597 34.5109 26.4573 34.5109 21.4575C34.5109 20.787 34.4419 20.1325 34.3164 19.499Z" fill="#1976D2"/>
</svg>
