<svg width="41" height="41" viewBox="0 0 41 41" fill="none" xmlns="http://www.w3.org/2000/svg">
<circle cx="20.1201" cy="20.2827" r="20" fill="#00CC9E"/>
<path d="M23.9999 9.80566C20.3524 9.80566 17.4033 12.7547 17.4033 16.4023C17.4033 17.1783 17.5585 17.9544 17.7913 18.7305L9.64258 26.8793V30.7596H13.5229V28.4314H15.8512V26.1032H18.1794L21.6717 22.6109C22.3702 22.8437 23.1462 22.9989 23.9999 22.9989C27.6475 22.9989 30.5965 20.0498 30.5965 16.4023C30.5965 12.7548 27.6475 9.80566 23.9999 9.80566ZM25.9401 16.7903C24.6208 16.7903 23.6119 15.7814 23.6119 14.4621C23.6119 13.1428 24.6208 12.1339 25.9401 12.1339C27.2594 12.1339 28.2683 13.1428 28.2683 14.4621C28.2683 15.7814 27.2594 16.7903 25.9401 16.7903Z" fill="white"/>
</svg>
