<svg width="408" height="442" viewBox="0 0 408 442" fill="none" xmlns="http://www.w3.org/2000/svg">
<g filter="url(#filter0_dii)">
<rect x="93.4296" y="135.69" width="218.728" height="218.728" rx="35" fill="#1877F2"/>
</g>
<path d="M129.583 155.317V155.317C118.968 155.317 110.363 163.922 110.363 174.537V174.537" stroke="white" stroke-width="12" stroke-linecap="round"/>
<g style="mix-blend-mode:overlay">
<path fill-rule="evenodd" clip-rule="evenodd" d="M104.172 174.317C104.172 160.51 115.365 149.317 129.172 149.317H174.551C177.865 149.317 180.551 152.004 180.551 155.317C180.551 158.631 177.865 161.317 174.551 161.317H129.172C121.992 161.317 116.172 167.138 116.172 174.317V219.697C116.172 223.011 113.485 225.697 110.172 225.697C106.858 225.697 104.172 223.011 104.172 219.697V174.317Z" fill="url(#paint0_linear)"/>
</g>
<g style="mix-blend-mode:overlay">
<path fill-rule="evenodd" clip-rule="evenodd" d="M300.66 318.506C300.66 332.313 289.467 343.506 275.66 343.506H230.281C226.967 343.506 224.281 340.82 224.281 337.506C224.281 334.193 226.967 331.506 230.281 331.506H275.66C282.84 331.506 288.66 325.686 288.66 318.506V273.127C288.66 269.813 291.347 267.127 294.66 267.127C297.974 267.127 300.66 269.813 300.66 273.127V318.506Z" fill="url(#paint1_linear)"/>
</g>
<g style="mix-blend-mode:overlay">
<path fill-rule="evenodd" clip-rule="evenodd" d="M104.172 298.443C104.172 324.288 120.229 344.042 146.074 344.042L286.672 344.042C292.875 344.042 297.904 339.014 297.904 332.811C297.904 326.608 304.106 187.969 297.904 187.969L260.245 212.303C246.806 212.303 235.911 201.408 235.911 187.969L126.634 212.303C126.634 206.1 121.606 201.072 115.403 201.072C109.2 201.072 104.172 206.1 104.172 212.303V298.443Z" fill="url(#paint2_linear)"/>
</g>
<g filter="url(#filter1_i)">
<path d="M228.698 251.143L231.9 230.283H211.883V216.747C211.883 211.041 214.678 205.475 223.644 205.475H232.743V187.717C232.743 187.717 224.487 186.309 216.591 186.309C200.108 186.309 189.334 196.301 189.334 214.387V230.287H171.01V251.147H189.334V301.576H211.883V251.147L228.698 251.143Z" fill="white"/>
</g>
<path d="M195.14 75.3845C194.911 75.3845 194.643 75.3653 194.337 75.3271C194.031 75.2888 193.496 75.1932 192.731 75.0403C191.966 74.8873 191.277 74.6769 190.666 74.4092C190.054 74.1415 189.499 73.6825 189.002 73.0324C188.505 72.3822 188.256 71.6364 188.256 70.795C188.256 69.8006 188.543 68.9019 189.117 68.0987C189.69 67.2956 190.321 66.6263 191.01 66.0908C191.698 65.5554 192.329 64.5801 192.903 63.165C193.477 61.75 193.763 60.0098 193.763 57.9445V50.6014C193.763 48.5362 193.19 46.796 192.042 45.3809C190.895 43.9658 189.633 43.2583 188.256 43.2583C186.956 43.2583 185.866 43.6981 184.986 44.5778C184.106 45.4574 183.667 46.5474 183.667 47.8478V50.1425C183.667 51.7488 183.15 53.3742 182.118 55.0188C181.085 56.6633 179.899 58.0975 178.561 59.3214C177.222 60.5452 175.673 62.0177 173.914 63.7387C172.155 65.4598 170.816 67.047 169.898 68.5003C169.363 69.1887 168.598 70.0492 167.604 71.0819C166.609 72.1145 165.156 73.3575 163.244 74.8108C161.331 76.2641 158.941 77.488 156.073 78.4823C153.204 79.4767 150.164 79.9739 146.951 79.9739C146.798 79.9739 146.683 80.0122 146.607 80.0887C145.536 80.2416 144.561 81.3699 143.681 83.4734C142.801 85.5769 142.362 87.47 142.362 89.1528V107.511C142.362 108.964 142.782 110.092 143.624 110.895C144.465 111.698 145.574 112.1 146.951 112.1C148.481 112.1 151.54 112.865 156.13 114.395C160.719 115.925 163.779 116.69 165.309 116.69H202.024C203.248 116.69 204.319 116.231 205.237 115.313C206.155 114.395 206.614 113.305 206.614 112.043C206.614 110.781 206.155 109.71 205.237 108.83C204.319 107.95 203.248 107.511 202.024 107.511H206.614C207.914 107.511 209.004 107.052 209.884 106.134C210.764 105.216 211.203 104.126 211.203 102.864C211.203 101.602 210.764 100.531 209.884 99.6512C209.004 98.7715 207.914 98.3317 206.614 98.3317C207.914 98.3317 210.925 98.1164 211.804 97.1985C212.684 96.2806 213.124 95.1906 213.124 93.9285C213.124 92.6664 212.684 91.5956 211.804 90.7159C210.925 89.8363 207.914 89.1528 206.614 89.1528H211.203C212.504 89.1528 213.594 88.6939 214.473 87.776C215.353 86.8581 215.793 85.7872 215.793 84.5634C215.793 82.1921 213.747 80.0695 209.654 78.1955C205.562 76.3215 200.724 75.3845 195.14 75.3845Z" fill="url(#paint3_linear)"/>
<path opacity="0.7" d="M274.746 62.0484C274.571 62.0484 274.366 62.0338 274.132 62.0046C273.898 61.9754 273.489 61.9023 272.905 61.7854C272.32 61.6685 271.794 61.5077 271.326 61.3031C270.859 61.0985 270.435 60.7478 270.055 60.2509C269.675 59.7541 269.485 59.1841 269.485 58.5411C269.485 57.7812 269.704 57.0944 270.143 56.4806C270.581 55.8668 271.063 55.3553 271.59 54.9461C272.116 54.537 272.598 53.7917 273.036 52.7102C273.475 51.6288 273.694 50.299 273.694 48.7207V43.109C273.694 41.5307 273.255 40.2009 272.379 39.1194C271.502 38.038 270.537 37.4973 269.485 37.4973C268.491 37.4973 267.658 37.8334 266.986 38.5057C266.314 39.1779 265.978 40.0109 265.978 41.0046V42.7583C265.978 43.9858 265.583 45.228 264.794 46.4848C264.005 47.7416 263.099 48.8376 262.076 49.7729C261.053 50.7082 259.869 51.8334 258.525 53.1487C257.18 54.4639 256.157 55.6768 255.456 56.7875C255.047 57.3136 254.462 57.9712 253.702 58.7603C252.942 59.5495 251.832 60.4994 250.37 61.61C248.909 62.7207 247.082 63.656 244.89 64.4159C242.698 65.1758 240.375 65.5557 237.919 65.5557C237.802 65.5557 237.715 65.585 237.656 65.6434C236.838 65.7603 236.093 66.6225 235.42 68.2301C234.748 69.8376 234.412 71.2843 234.412 72.5703V86.5996C234.412 87.7102 234.734 88.5724 235.377 89.1862C236.02 89.8 236.867 90.1069 237.919 90.1069C239.088 90.1069 241.427 90.6914 244.934 91.8605C248.441 93.0296 250.78 93.6142 251.949 93.6142H280.007C280.942 93.6142 281.761 93.2634 282.462 92.562C283.164 91.8605 283.514 91.0275 283.514 90.063C283.514 89.0985 283.164 88.2801 282.462 87.6079C281.761 86.9357 280.942 86.5996 280.007 86.5996H283.514C284.508 86.5996 285.341 86.2488 286.013 85.5474C286.686 84.8459 287.022 84.0129 287.022 83.0484C287.022 82.0839 286.686 81.2655 286.013 80.5933C285.341 79.9211 284.508 79.585 283.514 79.585C284.508 79.585 286.809 79.4204 287.481 78.7189C288.153 78.0175 288.489 77.1845 288.489 76.22C288.489 75.2555 288.153 74.4371 287.481 73.7649C286.809 73.0926 284.508 72.5703 283.514 72.5703H287.022C288.015 72.5703 288.848 72.2196 289.521 71.5182C290.193 70.8167 290.529 69.9983 290.529 69.063C290.529 67.2509 288.965 65.6288 285.838 64.1967C282.711 62.7645 279.013 62.0484 274.746 62.0484Z" fill="url(#paint4_linear)"/>
<path opacity="0.4" d="M160.206 18.9307C160.075 18.9307 159.922 18.9197 159.747 18.8979C159.572 18.876 159.266 18.8213 158.828 18.7338C158.391 18.6463 157.997 18.526 157.647 18.3729C157.297 18.2197 156.98 17.9572 156.695 17.5854C156.411 17.2135 156.269 16.7869 156.269 16.3057C156.269 15.7369 156.433 15.2229 156.761 14.7635C157.089 14.3041 157.45 13.9213 157.844 13.615C158.238 13.3088 158.598 12.751 158.927 11.9416C159.255 11.1322 159.419 10.1369 159.419 8.95566V4.75566C159.419 3.57441 159.091 2.5791 158.434 1.76973C157.778 0.960351 157.056 0.555664 156.269 0.555664C155.525 0.555664 154.902 0.807226 154.398 1.31035C153.895 1.81348 153.644 2.43691 153.644 3.18066V4.49316C153.644 5.41191 153.348 6.3416 152.758 7.28223C152.167 8.22285 151.489 9.04316 150.723 9.74316C149.958 10.4432 149.072 11.2854 148.066 12.2697C147.059 13.2541 146.294 14.1619 145.769 14.9932C145.463 15.3869 145.025 15.8791 144.456 16.4697C143.888 17.0604 143.056 17.7713 141.963 18.6025C140.869 19.4338 139.502 20.1338 137.861 20.7025C136.22 21.2713 134.481 21.5557 132.644 21.5557C132.556 21.5557 132.491 21.5775 132.447 21.6213C131.834 21.7088 131.277 22.3541 130.773 23.5572C130.27 24.7604 130.019 25.8432 130.019 26.8057V37.3057C130.019 38.1369 130.259 38.7822 130.741 39.2416C131.222 39.701 131.856 39.9307 132.644 39.9307C133.519 39.9307 135.269 40.3682 137.894 41.2432C140.519 42.1182 142.269 42.5557 143.144 42.5557H164.144C164.844 42.5557 165.456 42.2932 165.981 41.7682C166.506 41.2432 166.769 40.6197 166.769 39.8979C166.769 39.176 166.506 38.5635 165.981 38.0604C165.456 37.5572 164.844 37.3057 164.144 37.3057H166.769C167.513 37.3057 168.136 37.0432 168.639 36.5182C169.142 35.9932 169.394 35.3697 169.394 34.6479C169.394 33.926 169.142 33.3135 168.639 32.8104C168.136 32.3072 167.513 32.0557 166.769 32.0557C167.513 32.0557 169.234 31.9325 169.737 31.4075C170.241 30.8825 170.492 30.2591 170.492 29.5372C170.492 28.8153 170.241 28.2028 169.737 27.6997C169.234 27.1966 167.513 26.8057 166.769 26.8057H169.394C170.138 26.8057 170.761 26.5432 171.264 26.0182C171.767 25.4932 172.019 24.8807 172.019 24.1807C172.019 22.8244 170.848 21.6104 168.508 20.5385C166.167 19.4666 163.4 18.9307 160.206 18.9307Z" fill="url(#paint5_linear)"/>
<path opacity="0.4" d="M95.6133 91.9725C95.5312 91.9725 95.4354 91.9657 95.326 91.952C95.2166 91.9383 95.025 91.9041 94.7514 91.8494C94.4778 91.7947 94.2315 91.7194 94.0126 91.6237C93.7938 91.5279 93.5954 91.3637 93.4175 91.1312C93.2397 90.8986 93.1508 90.6318 93.1508 90.3308C93.1508 89.9751 93.2534 89.6536 93.4586 89.3663C93.6638 89.079 93.8895 88.8396 94.1358 88.6481C94.382 88.4566 94.6078 88.1077 94.813 87.6015C95.0182 87.0953 95.1208 86.4729 95.1208 85.7341V83.1074C95.1208 82.3687 94.9156 81.7462 94.5052 81.24C94.0947 80.7338 93.6433 80.4807 93.1508 80.4807C92.6856 80.4807 92.2957 80.638 91.9811 80.9527C91.6664 81.2674 91.5091 81.6573 91.5091 82.1224V82.9432C91.5091 83.5178 91.3244 84.0993 90.955 84.6875C90.5856 85.2758 90.1615 85.7888 89.6827 86.2266C89.2039 86.6644 88.6498 87.1911 88.0205 87.8067C87.3912 88.4224 86.9124 88.9901 86.584 89.51C86.3925 89.7562 86.1189 90.0641 85.7632 90.4334C85.4075 90.8028 84.8876 91.2474 84.2036 91.7673C83.5195 92.2872 82.6645 92.725 81.6384 93.0807C80.6124 93.4364 79.5248 93.6142 78.3756 93.6142C78.3209 93.6142 78.2798 93.6279 78.2525 93.6553C77.8694 93.71 77.5205 94.1136 77.2059 94.866C76.8912 95.6184 76.7339 96.2956 76.7339 96.8976V103.464C76.7339 103.984 76.8844 104.388 77.1854 104.675C77.4863 104.962 77.8831 105.106 78.3756 105.106C78.9228 105.106 80.0173 105.38 81.659 105.927C83.3006 106.474 84.3951 106.748 84.9423 106.748H98.0758C98.5136 106.748 98.8967 106.584 99.225 106.255C99.5533 105.927 99.7175 105.537 99.7175 105.085C99.7175 104.634 99.5533 104.251 99.225 103.936C98.8967 103.622 98.5136 103.464 98.0758 103.464H99.7175C100.183 103.464 100.573 103.3 100.887 102.972C101.202 102.643 101.359 102.254 101.359 101.802C101.359 101.351 101.202 100.968 100.887 100.653C100.573 100.338 100.183 100.181 99.7175 100.181C100.183 100.181 101.259 100.104 101.574 99.7756C101.889 99.4473 102.046 99.0574 102.046 98.6059C102.046 98.1544 101.889 97.7714 101.574 97.4567C101.259 97.1421 100.183 96.8976 99.7175 96.8976H101.359C101.824 96.8976 102.214 96.7334 102.529 96.4051C102.844 96.0767 103.001 95.6937 103.001 95.2559C103.001 94.4077 102.269 93.6484 100.805 92.9781C99.3413 92.3077 97.6107 91.9725 95.6133 91.9725Z" fill="url(#paint6_linear)"/>
<path d="M360.007 165.309C359.515 164.17 358.805 163.138 357.918 162.271C357.031 161.4 355.984 160.709 354.836 160.234C353.645 159.739 352.368 159.486 351.078 159.489C349.269 159.489 347.503 159.984 345.969 160.92C345.602 161.144 345.254 161.39 344.924 161.658C344.593 161.39 344.245 161.144 343.878 160.92C342.344 159.984 340.578 159.489 338.769 159.489C337.466 159.489 336.204 159.738 335.011 160.234C333.859 160.711 332.82 161.397 331.929 162.271C331.041 163.137 330.331 164.169 329.84 165.309C329.33 166.495 329.07 167.753 329.07 169.049C329.07 170.271 329.319 171.544 329.815 172.84C330.229 173.922 330.824 175.045 331.584 176.179C332.787 177.974 334.442 179.845 336.498 181.743C339.903 184.888 343.276 187.06 343.419 187.148L344.289 187.706C344.674 187.952 345.169 187.952 345.555 187.706L346.425 187.148C346.568 187.057 349.937 184.888 353.346 181.743C355.401 179.845 357.056 177.974 358.26 176.179C359.019 175.045 359.618 173.922 360.029 172.84C360.524 171.544 360.774 170.271 360.774 169.049C360.777 167.753 360.517 166.495 360.007 165.309Z" fill="url(#paint7_linear)"/>
<path d="M367.442 77.1082C366.95 75.9693 366.241 74.9371 365.354 74.0696C364.466 73.1995 363.42 72.5081 362.271 72.0328C361.08 71.5381 359.803 71.2849 358.513 71.2879C356.704 71.2879 354.939 71.7833 353.405 72.7191C353.038 72.943 352.689 73.1888 352.359 73.4567C352.029 73.1888 351.68 72.943 351.313 72.7191C349.779 71.7833 348.014 71.2879 346.205 71.2879C344.902 71.2879 343.639 71.5374 342.447 72.0328C341.294 72.5099 340.256 73.1962 339.364 74.0696C338.476 74.9361 337.766 75.9685 337.276 77.1082C336.766 78.2936 336.505 79.5524 336.505 80.8478C336.505 82.0699 336.755 83.3433 337.25 84.6388C337.665 85.7214 338.259 86.8443 339.019 87.9783C340.223 89.7729 341.878 91.6445 343.933 93.5418C347.339 96.6869 350.711 98.8594 350.854 98.9475L351.724 99.5053C352.109 99.7512 352.605 99.7512 352.99 99.5053L353.86 98.9475C354.003 98.8557 357.372 96.6869 360.781 93.5418C362.836 91.6445 364.491 89.7729 365.695 87.9783C366.455 86.8443 367.053 85.7214 367.464 84.6388C367.959 83.3433 368.209 82.0699 368.209 80.8478C368.213 79.5524 367.952 78.2936 367.442 77.1082Z" fill="url(#paint8_linear)"/>
<path d="M79.8509 185.309C79.359 184.17 78.6497 183.138 77.7628 182.271C76.8752 181.4 75.8286 180.709 74.6801 180.234C73.4892 179.739 72.2118 179.486 70.9222 179.489C69.1129 179.489 67.3478 179.984 65.8138 180.92C65.4468 181.144 65.0981 181.39 64.7678 181.658C64.4376 181.39 64.0889 181.144 63.7219 180.92C62.1879 179.984 60.4228 179.489 58.6135 179.489C57.3107 179.489 56.0483 179.738 54.8556 180.234C53.7033 180.711 52.6647 181.397 51.7729 182.271C50.8848 183.137 50.1754 184.169 49.6848 185.309C49.1747 186.495 48.9141 187.753 48.9141 189.049C48.9141 190.271 49.1637 191.544 49.6591 192.84C50.0738 193.922 50.6683 195.045 51.428 196.179C52.6317 197.974 54.2868 199.845 56.3419 201.743C59.7475 204.888 63.1201 207.06 63.2632 207.148L64.133 207.706C64.5183 207.952 65.0137 207.952 65.3991 207.706L66.2688 207.148C66.4119 207.057 69.7809 204.888 73.1901 201.743C75.2453 199.845 76.9004 197.974 78.1041 196.179C78.8637 195.045 79.4619 193.922 79.8729 192.84C80.3684 191.544 80.6179 190.271 80.6179 189.049C80.6216 187.753 80.361 186.495 79.8509 185.309Z" fill="url(#paint9_linear)"/>
<path opacity="0.3" d="M46.2414 146.309C45.8541 145.412 45.2955 144.599 44.597 143.916C43.8981 143.231 43.0739 142.686 42.1695 142.312C41.2316 141.922 40.2257 141.723 39.2101 141.725C37.7854 141.725 36.3953 142.116 35.1873 142.852C34.8983 143.029 34.6238 143.222 34.3637 143.433C34.1036 143.222 33.829 143.029 33.54 142.852C32.332 142.116 30.942 141.725 29.5172 141.725C28.4913 141.725 27.4971 141.922 26.5579 142.312C25.6504 142.688 24.8326 143.228 24.1303 143.916C23.4309 144.598 22.8722 145.411 22.4859 146.309C22.0842 147.242 21.879 148.234 21.879 149.254C21.879 150.216 22.0755 151.219 22.4657 152.239C22.7923 153.092 23.2604 153.976 23.8587 154.869C24.8066 156.282 26.1099 157.756 27.7283 159.25C30.4102 161.727 33.0661 163.438 33.1788 163.507L33.8637 163.946C34.1672 164.14 34.5573 164.14 34.8608 163.946L35.5457 163.507C35.6584 163.435 38.3114 161.727 40.9961 159.25C42.6145 157.756 43.9179 156.282 44.8658 154.869C45.464 153.976 45.9351 153.092 46.2588 152.239C46.6489 151.219 46.8454 150.216 46.8454 149.254C46.8483 148.234 46.6431 147.242 46.2414 146.309Z" fill="url(#paint10_linear)"/>
<path opacity="0.3" d="M46.5434 107.798C46.3498 107.35 46.0705 106.943 45.7213 106.602C45.3718 106.259 44.9597 105.987 44.5075 105.8C44.0385 105.605 43.5356 105.505 43.0278 105.507C42.3154 105.507 41.6204 105.702 41.0164 106.07C40.8719 106.158 40.7346 106.255 40.6046 106.361C40.4745 106.255 40.3372 106.158 40.1927 106.07C39.5887 105.702 38.8937 105.507 38.1813 105.507C37.6684 105.507 37.1713 105.605 36.7017 105.8C36.2479 105.988 35.839 106.258 35.4879 106.602C35.1382 106.943 34.8589 107.35 34.6657 107.798C34.4648 108.265 34.3622 108.761 34.3622 109.271C34.3622 109.752 34.4605 110.253 34.6556 110.763C34.8189 111.19 35.0529 111.632 35.3521 112.078C35.826 112.785 36.4777 113.522 37.2869 114.269C38.6278 115.507 39.9558 116.363 40.0121 116.397L40.3546 116.617C40.5063 116.714 40.7014 116.714 40.8531 116.617L41.1956 116.397C41.2519 116.361 42.5784 115.507 43.9208 114.269C44.73 113.522 45.3817 112.785 45.8556 112.078C46.1547 111.632 46.3903 111.19 46.5521 110.763C46.7472 110.253 46.8454 109.752 46.8454 109.271C46.8469 108.761 46.7443 108.265 46.5434 107.798Z" fill="url(#paint11_linear)"/>
<path opacity="0.5" d="M328.418 111.695C328 110.727 327.397 109.85 326.643 109.112C325.888 108.373 324.999 107.785 324.022 107.381C323.01 106.96 321.924 106.745 320.828 106.748C319.29 106.748 317.79 107.169 316.486 107.964C316.174 108.154 315.877 108.364 315.596 108.591C315.316 108.364 315.019 108.154 314.707 107.964C313.403 107.169 311.903 106.748 310.365 106.748C309.258 106.748 308.184 106.96 307.171 107.381C306.191 107.786 305.308 108.37 304.55 109.112C303.795 109.849 303.192 110.726 302.775 111.695C302.342 112.703 302.12 113.773 302.12 114.874C302.12 115.913 302.332 116.995 302.753 118.096C303.106 119.017 303.611 119.971 304.257 120.935C305.28 122.461 306.687 124.052 308.434 125.664C311.329 128.338 314.196 130.185 314.317 130.26L315.057 130.734C315.384 130.943 315.805 130.943 316.133 130.734L316.872 130.26C316.994 130.182 319.858 128.338 322.756 125.664C324.503 124.052 325.91 122.461 326.933 120.935C327.579 119.971 328.087 119.017 328.437 118.096C328.858 116.995 329.07 115.913 329.07 114.874C329.073 113.773 328.851 112.703 328.418 111.695Z" fill="url(#paint12_linear)"/>
<path opacity="0.5" d="M358.071 132.128C357.862 131.644 357.56 131.205 357.183 130.836C356.806 130.466 356.361 130.172 355.873 129.97C355.367 129.76 354.824 129.653 354.276 129.654C353.507 129.654 352.756 129.864 352.104 130.262C351.949 130.357 351.8 130.462 351.66 130.576C351.52 130.462 351.371 130.357 351.215 130.262C350.563 129.864 349.813 129.654 349.044 129.654C348.491 129.654 347.954 129.76 347.447 129.97C346.957 130.173 346.516 130.465 346.137 130.836C345.759 131.204 345.458 131.643 345.249 132.128C345.032 132.631 344.922 133.166 344.922 133.717C344.922 134.236 345.028 134.778 345.238 135.328C345.415 135.788 345.667 136.266 345.99 136.748C346.502 137.51 347.205 138.306 348.079 139.112C349.526 140.449 350.96 141.372 351.02 141.41L351.39 141.647C351.554 141.751 351.764 141.751 351.928 141.647L352.298 141.41C352.359 141.371 353.791 140.449 355.24 139.112C356.113 138.306 356.817 137.51 357.328 136.748C357.651 136.266 357.905 135.788 358.08 135.328C358.291 134.778 358.397 134.236 358.397 133.717C358.398 133.166 358.287 132.631 358.071 132.128Z" fill="url(#paint13_linear)"/>
<g filter="url(#filter2_d)">
<path d="M88.282 255.393C91.125 266.003 84.8286 276.909 74.2186 279.752C63.6087 282.595 52.703 276.298 49.8601 265.689C47.0172 255.079 53.3136 244.173 63.9235 241.33C74.5334 238.487 85.4391 244.783 88.282 255.393Z" fill="#FFBE5E"/>
<g filter="url(#filter3_i)">
<path d="M60.4255 258.679L60.356 258.698C61.0293 255.521 63.4207 252.826 66.7731 251.928C68.9356 251.349 71.1249 251.616 72.9898 252.527L73.0427 252.513L76.4749 251.593C73.6786 249.286 69.8456 248.319 66.0766 249.329C60.325 250.87 56.7463 256.471 57.5972 262.223L64.8338 260.283L65.5301 262.882L58.2922 264.821L58.3004 264.841C58.6457 265.709 59.088 266.516 59.6108 267.254L66.2254 265.482L67.9978 272.096C68.9041 272.181 69.8325 272.159 70.7631 272.022L68.8242 264.786L71.4228 264.09L73.3619 271.326C74.237 270.98 75.0514 270.535 75.7938 270.008L74.0212 263.393L80.6358 261.62C80.761 260.286 80.6549 258.906 80.2876 257.535C79.9203 256.165 79.3225 254.917 78.5468 253.824L77.0076 254.236L60.4255 258.679ZM70.7269 261.49L68.1283 262.186L67.432 259.588L70.0306 258.892L70.7269 261.49ZM77.9407 259.557L73.3261 260.794L72.6298 258.195L77.2444 256.959C77.4224 257.365 77.5719 257.79 77.6903 258.232C77.8086 258.673 77.8915 259.116 77.9407 259.557Z" fill="#F4A837"/>
<path d="M64.6676 244.107C55.5912 246.539 50.2053 255.869 52.6372 264.944C55.069 274.02 64.3981 279.407 73.4745 276.975C82.5509 274.543 87.9368 265.213 85.5049 256.137C83.0731 247.062 73.744 241.675 64.6676 244.107ZM72.777 274.372C65.1386 276.418 57.2871 271.885 55.2404 264.247C53.1937 256.608 57.7267 248.757 65.3651 246.71C73.0035 244.664 80.855 249.197 82.9017 256.835C84.9484 264.473 80.4154 272.325 72.777 274.372Z" fill="#F4A837"/>
</g>
<path fill-rule="evenodd" clip-rule="evenodd" d="M63.6249 242.964C63.5166 242.56 63.7565 242.144 64.1607 242.036C68.9373 240.756 73.7769 241.371 77.8786 243.418C78.2531 243.605 78.4051 244.06 78.2182 244.434C78.0313 244.809 77.5762 244.961 77.2018 244.774C73.4185 242.885 68.9584 242.319 64.553 243.5C64.1487 243.608 63.7332 243.368 63.6249 242.964Z" fill="white"/>
<path fill-rule="evenodd" clip-rule="evenodd" d="M73.1313 278.442C73.2396 278.847 73.6551 279.087 74.0594 278.978C75.8373 278.502 77.4925 277.793 79.0005 276.894C79.3599 276.68 79.4775 276.214 79.2631 275.855C79.0488 275.496 78.5836 275.378 78.2242 275.592C76.8349 276.421 75.3088 277.074 73.6671 277.514C73.2629 277.623 73.023 278.038 73.1313 278.442Z" fill="white"/>
<g style="mix-blend-mode:overlay">
<path d="M50.1131 254.688C51.1706 251.255 53.1449 248.149 55.8271 245.734L58.7404 247.046C55.8764 249.255 53.8001 252.322 52.7937 255.759L50.1131 254.688Z" fill="url(#paint14_linear)"/>
<path d="M81.7323 267.32C83.2146 264.572 83.806 261.336 83.2376 258.08L80.0779 256.657C80.1772 256.939 80.2665 257.226 80.3451 257.52C80.7124 258.891 80.8185 260.27 80.6933 261.605L74.0787 263.377L74.3444 264.369L81.7323 267.32Z" fill="url(#paint15_linear)"/>
<path d="M84.2489 268.326C85.6464 265.618 86.3243 262.532 86.1062 259.372L89.0087 260.679C88.9873 263.748 88.2507 266.723 86.9201 269.393L84.2489 268.326Z" fill="url(#paint16_linear)"/>
<path d="M68.5797 262.066L68.1069 261.877L67.4895 259.572L70.0881 258.876L70.7844 261.475L68.5797 262.066Z" fill="url(#paint17_linear)"/>
<path d="M64.9886 260.631L64.406 260.398L64.8913 260.268L64.9886 260.631Z" fill="url(#paint18_linear)"/>
<path d="M57.8588 257.782L55.3104 256.764C56.2569 253.3 58.4895 250.259 61.6071 248.337L64.7797 249.766C61.2441 251.193 58.7242 254.234 57.8588 257.782Z" fill="url(#paint19_linear)"/>
<path d="M68.875 251.611C68.1982 251.631 67.513 251.73 66.8306 251.913C63.4782 252.811 61.0868 255.505 60.4135 258.683L75.5635 254.623L68.875 251.611Z" fill="url(#paint20_linear)"/>
<path d="M73.3836 260.778L77.9982 259.542C77.9489 259.101 77.8661 258.658 77.7478 258.217C77.6294 257.775 77.4799 257.35 77.3019 256.943L72.6873 258.18L73.3836 260.778Z" fill="url(#paint21_linear)"/>
</g>
<g style="mix-blend-mode:overlay">
<path fill-rule="evenodd" clip-rule="evenodd" d="M51.2645 251.782C50.8065 252.717 50.4209 253.689 50.1131 254.688L52.7937 255.759C53.0846 254.765 53.465 253.803 53.928 252.883L51.2645 251.782ZM56.427 253.915C55.9561 254.82 55.5807 255.775 55.3104 256.764L57.8588 257.783C58.0999 256.794 58.4693 255.845 58.9533 254.959L56.427 253.915ZM61.4593 255.995C60.9703 256.824 60.615 257.732 60.4135 258.683L64.9934 257.456L61.4593 255.995ZM69.0829 259.146L67.4895 259.573L68.1069 261.877L68.5796 262.066L70.7844 261.475L70.2944 259.646L69.0829 259.146ZM77.2602 262.525L74.0787 263.377L74.3444 264.369L81.7323 267.32C82.1632 266.521 82.5189 265.681 82.7926 264.811L77.2602 262.525ZM87.9448 266.94L85.2916 265.844C85.0094 266.699 84.6603 267.529 84.2489 268.326L86.9201 269.393C87.3151 268.6 87.6577 267.781 87.9448 266.94ZM64.9885 260.631L64.406 260.398L64.8913 260.268L64.9885 260.631Z" fill="url(#paint22_linear)"/>
</g>
</g>
<g filter="url(#filter4_d)">
<path d="M362.344 252.388C365.187 262.998 358.891 273.904 348.281 276.747C337.671 279.59 326.765 273.294 323.922 262.684C321.079 252.074 327.376 241.168 337.986 238.325C348.596 235.482 359.501 241.779 362.344 252.388Z" fill="#FFBE5E"/>
<g filter="url(#filter5_i)">
<path d="M334.488 255.675L334.418 255.693C335.091 252.516 337.483 249.821 340.835 248.923C342.998 248.344 345.187 248.611 347.052 249.522L347.105 249.508L350.537 248.588C347.741 246.281 343.908 245.314 340.139 246.324C334.387 247.865 330.808 253.466 331.659 259.218L338.896 257.279L339.592 259.877L332.354 261.817L332.363 261.836C332.708 262.704 333.15 263.511 333.673 264.249L340.288 262.477L342.06 269.091C342.966 269.176 343.895 269.154 344.825 269.017L342.886 261.781L345.485 261.085L347.424 268.321C348.299 267.975 349.114 267.53 349.856 267.003L348.083 260.388L354.698 258.615C354.823 257.281 354.717 255.901 354.35 254.531C353.982 253.16 353.385 251.912 352.609 250.819L351.07 251.231L334.488 255.675ZM344.789 258.485L342.19 259.182L341.494 256.583L344.093 255.887L344.789 258.485ZM352.003 256.552L347.388 257.789L346.692 255.19L351.307 253.954C351.485 254.361 351.634 254.785 351.752 255.227C351.871 255.668 351.954 256.111 352.003 256.552Z" fill="#F4A837"/>
<path d="M338.73 241.102C329.653 243.534 324.267 252.864 326.699 261.94C329.131 271.015 338.46 276.402 347.537 273.97C356.613 271.538 361.999 262.208 359.567 253.133C357.135 244.057 347.806 238.67 338.73 241.102ZM346.839 271.367C339.201 273.413 331.349 268.88 329.303 261.242C327.256 253.604 331.789 245.752 339.427 243.705C347.066 241.659 354.917 246.192 356.964 253.83C359.011 261.469 354.478 269.32 346.839 271.367Z" fill="#F4A837"/>
</g>
<path fill-rule="evenodd" clip-rule="evenodd" d="M337.687 239.959C337.579 239.555 337.819 239.139 338.223 239.031C342.999 237.751 347.839 238.366 351.941 240.413C352.315 240.6 352.467 241.055 352.28 241.43C352.093 241.804 351.638 241.956 351.264 241.769C347.481 239.881 343.021 239.315 338.615 240.495C338.211 240.603 337.795 240.363 337.687 239.959Z" fill="white"/>
<path fill-rule="evenodd" clip-rule="evenodd" d="M347.193 275.438C347.302 275.842 347.717 276.082 348.122 275.973C349.899 275.497 351.555 274.789 353.063 273.889C353.422 273.675 353.54 273.21 353.325 272.85C353.111 272.491 352.646 272.373 352.286 272.588C350.897 273.416 349.371 274.07 347.729 274.509C347.325 274.618 347.085 275.033 347.193 275.438Z" fill="white"/>
<g style="mix-blend-mode:overlay">
<path d="M324.175 251.683C325.233 248.25 327.207 245.145 329.889 242.729L332.803 244.041C329.939 246.25 327.862 249.317 326.856 252.754L324.175 251.683Z" fill="url(#paint23_linear)"/>
<path d="M355.794 264.315C357.277 261.567 357.868 258.331 357.3 255.075L354.14 253.652C354.239 253.934 354.329 254.222 354.407 254.515C354.775 255.886 354.881 257.265 354.755 258.6L348.141 260.372L348.406 261.364L355.794 264.315Z" fill="url(#paint24_linear)"/>
<path d="M358.311 265.321C359.709 262.614 360.386 259.527 360.168 256.367L363.071 257.674C363.049 260.743 362.313 263.718 360.982 266.388L358.311 265.321Z" fill="url(#paint25_linear)"/>
<path d="M342.642 259.061L342.169 258.872L341.552 256.568L344.15 255.871L344.847 258.47L342.642 259.061Z" fill="url(#paint26_linear)"/>
<path d="M339.051 257.626L338.468 257.393L338.953 257.263L339.051 257.626Z" fill="url(#paint27_linear)"/>
<path d="M331.921 254.778L329.373 253.759C330.319 250.295 332.552 247.254 335.669 245.332L338.842 246.761C335.306 248.188 332.786 251.229 331.921 254.778Z" fill="url(#paint28_linear)"/>
<path d="M342.937 248.606C342.26 248.626 341.575 248.725 340.893 248.908C337.54 249.806 335.149 252.5 334.476 255.678L349.626 251.618L342.937 248.606Z" fill="url(#paint29_linear)"/>
<path d="M347.446 257.773L352.06 256.537C352.011 256.096 351.928 255.653 351.81 255.212C351.692 254.77 351.542 254.345 351.364 253.938L346.749 255.175L347.446 257.773Z" fill="url(#paint30_linear)"/>
</g>
<g style="mix-blend-mode:overlay">
<path fill-rule="evenodd" clip-rule="evenodd" d="M325.327 248.777C324.869 249.712 324.483 250.684 324.175 251.683L326.856 252.754C327.147 251.761 327.527 250.798 327.99 249.878L325.327 248.777ZM330.489 250.911C330.018 251.815 329.643 252.77 329.373 253.76L331.921 254.778C332.162 253.789 332.531 252.84 333.015 251.955L330.489 250.911ZM335.521 252.99C335.032 253.819 334.677 254.727 334.476 255.678L339.056 254.451L335.521 252.99ZM343.145 256.141L341.552 256.568L342.169 258.872L342.642 259.061L344.847 258.47L344.357 256.641L343.145 256.141ZM351.322 259.52L348.141 260.372L348.406 261.364L355.794 264.315C356.225 263.516 356.581 262.676 356.855 261.806L351.322 259.52ZM362.007 263.935L359.354 262.839C359.072 263.694 358.722 264.524 358.311 265.321L360.982 266.388C361.377 265.595 361.72 264.776 362.007 263.935ZM339.051 257.626L338.468 257.393L338.953 257.263L339.051 257.626Z" fill="url(#paint31_linear)"/>
</g>
</g>
<g filter="url(#filter6_d)">
<path d="M100.672 330.726C104.411 344.681 96.1293 359.025 82.1743 362.764C68.2193 366.503 53.8752 358.222 50.136 344.267C46.3968 330.312 54.6783 315.968 68.6333 312.229C82.5883 308.489 96.9323 316.771 100.672 330.726Z" fill="#FFBE5E"/>
<g filter="url(#filter7_i)">
<path d="M64.0324 335.048L63.941 335.073C64.8266 330.893 67.972 327.35 72.3813 326.168C75.2256 325.406 78.1052 325.758 80.558 326.956L80.6275 326.937L85.1419 325.728C81.464 322.693 76.4225 321.421 71.4653 322.749C63.9003 324.776 59.1933 332.144 60.3124 339.709L69.8306 337.158L70.7465 340.576L61.2265 343.126L61.2374 343.152C61.6916 344.294 62.2732 345.355 62.961 346.326L71.661 343.995L73.9921 352.695C75.1842 352.806 76.4053 352.778 77.6293 352.597L75.0791 343.08L78.497 342.164L81.0474 351.682C82.1985 351.226 83.2695 350.641 84.246 349.948L81.9146 341.247L90.6147 338.916C90.7793 337.161 90.6398 335.346 90.1567 333.543C89.6736 331.74 88.8873 330.1 87.867 328.662L85.8426 329.204L64.0324 335.048ZM77.5817 338.745L74.1638 339.661L73.248 336.243L76.6659 335.327L77.5817 338.745ZM87.0699 336.203L81.0003 337.829L80.0845 334.411L86.154 332.785C86.3881 333.32 86.5848 333.879 86.7405 334.46C86.896 335.04 87.0051 335.622 87.0699 336.203Z" fill="#F4A837"/>
<path d="M69.612 315.881C57.6739 319.08 50.59 331.351 53.7886 343.288C56.9872 355.226 69.2574 362.31 81.1955 359.112C93.1336 355.913 100.217 343.642 97.0189 331.705C93.8203 319.767 81.55 312.683 69.612 315.881ZM80.2781 355.688C70.2314 358.38 59.9045 352.417 57.2125 342.371C54.5205 332.324 60.4828 321.997 70.5294 319.305C80.576 316.613 90.903 322.576 93.595 332.622C96.2869 342.669 90.3247 352.996 80.2781 355.688Z" fill="#F4A837"/>
</g>
<path fill-rule="evenodd" clip-rule="evenodd" d="M68.2406 314.378C68.0981 313.846 68.4136 313.3 68.9453 313.157C75.2278 311.474 81.5932 312.282 86.9882 314.975C87.4806 315.221 87.6806 315.819 87.4348 316.312C87.1889 316.804 86.5904 317.004 86.0979 316.758C81.1218 314.274 75.2555 313.53 69.4612 315.083C68.9295 315.225 68.383 314.91 68.2406 314.378Z" fill="white"/>
<path fill-rule="evenodd" clip-rule="evenodd" d="M80.7441 361.042C80.8866 361.573 81.4331 361.889 81.9648 361.746C84.3032 361.12 86.4803 360.188 88.4637 359.005C88.9365 358.723 89.0911 358.111 88.8092 357.639C88.5272 357.166 87.9154 357.011 87.4427 357.293C85.6154 358.383 83.6082 359.243 81.4489 359.821C80.9172 359.964 80.6017 360.51 80.7441 361.042Z" fill="white"/>
<g style="mix-blend-mode:overlay">
<path d="M50.4688 329.798C51.8596 325.283 54.4564 321.198 57.9843 318.021L61.8161 319.747C58.0491 322.652 55.3182 326.687 53.9945 331.207L50.4688 329.798Z" fill="url(#paint32_linear)"/>
<path d="M92.0568 346.413C94.0065 342.798 94.7843 338.543 94.0367 334.259L89.8809 332.387C90.0115 332.758 90.1288 333.137 90.2323 333.523C90.7154 335.326 90.8549 337.14 90.6903 338.896L81.9902 341.227L82.3396 342.531L92.0568 346.413Z" fill="url(#paint33_linear)"/>
<path d="M95.3668 347.735C97.2049 344.175 98.0966 340.115 97.8097 335.959L101.627 337.678C101.599 341.715 100.63 345.627 98.8803 349.139L95.3668 347.735Z" fill="url(#paint34_linear)"/>
<path d="M74.7574 339.502L74.1356 339.253L73.3236 336.223L76.7415 335.307L77.6573 338.725L74.7574 339.502Z" fill="url(#paint35_linear)"/>
<path d="M70.0341 337.615L69.2679 337.309L69.9063 337.137L70.0341 337.615Z" fill="url(#paint36_linear)"/>
<path d="M60.6565 333.868L57.3046 332.529C58.5495 327.972 61.486 323.973 65.5866 321.445L69.7594 323.324C65.1092 325.202 61.7948 329.201 60.6565 333.868Z" fill="url(#paint37_linear)"/>
<path d="M75.1459 325.751C74.2557 325.778 73.3545 325.907 72.4569 326.148C68.0475 327.329 64.9022 330.873 64.0166 335.052L83.9431 329.713L75.1459 325.751Z" fill="url(#paint38_linear)"/>
<path d="M81.0759 337.809L87.1455 336.182C87.0807 335.602 86.9716 335.02 86.8161 334.439C86.6604 333.858 86.4637 333.299 86.2297 332.764L80.1601 334.391L81.0759 337.809Z" fill="url(#paint39_linear)"/>
</g>
<g style="mix-blend-mode:overlay">
<path fill-rule="evenodd" clip-rule="evenodd" d="M51.9832 325.976C51.3807 327.206 50.8737 328.484 50.4688 329.798L53.9945 331.207C54.3772 329.9 54.8775 328.634 55.4864 327.424L51.9832 325.976ZM58.7733 328.782C58.1539 329.972 57.6602 331.228 57.3046 332.529L60.6565 333.868C60.9736 332.568 61.4595 331.32 62.0961 330.155L58.7733 328.782ZM65.3921 331.517C64.749 332.608 64.2816 333.802 64.0166 335.052L70.0405 333.438L65.3921 331.517ZM75.4194 335.661L73.3236 336.223L74.1356 339.253L74.7574 339.502L77.6573 338.725L77.0129 336.32L75.4194 335.661ZM86.1748 340.106L81.9902 341.227L82.3396 342.531L92.0568 346.413C92.6236 345.362 93.0914 344.257 93.4514 343.113L86.1748 340.106ZM100.228 345.913L96.7383 344.471C96.3671 345.596 95.908 346.687 95.3668 347.735L98.8803 349.139C99.3997 348.097 99.8503 347.019 100.228 345.913ZM70.0341 337.615L69.2679 337.309L69.9063 337.138L70.0341 337.615Z" fill="url(#paint40_linear)"/>
</g>
</g>
<g filter="url(#filter8_d)">
<path d="M320.919 354.81C314.972 367.976 299.477 373.829 286.311 367.882C273.144 361.935 267.291 346.441 273.238 333.274C279.185 320.108 294.679 314.255 307.846 320.202C321.013 326.148 326.865 341.643 320.919 354.81Z" fill="#FFBE5E"/>
<g filter="url(#filter9_i)">
<path d="M289.831 334.944L289.744 334.905C293.077 332.232 297.756 331.483 301.916 333.362C304.6 334.574 306.605 336.67 307.744 339.151L307.809 339.181L312.069 341.105C311.145 336.426 308.05 332.249 303.373 330.136C296.235 326.913 287.926 329.631 284 336.194L292.981 340.249L291.524 343.474L282.542 339.417L282.534 339.444C282.163 340.615 281.94 341.805 281.857 342.992L290.066 346.699L286.359 354.908C287.21 355.749 288.173 356.501 289.235 357.136L293.29 348.156L296.515 349.613L292.459 358.594C293.638 358.97 294.838 359.196 296.033 359.278L299.74 351.069L307.949 354.776C309.188 353.522 310.23 352.03 310.998 350.329C311.766 348.628 312.197 346.86 312.319 345.101L310.409 344.238L289.831 334.944ZM297.973 346.388L294.748 344.931L296.204 341.706L299.429 343.163L297.973 346.388ZM306.925 350.431L301.198 347.844L302.655 344.62L308.381 347.206C308.224 347.768 308.022 348.325 307.774 348.874C307.527 349.421 307.242 349.941 306.925 350.431Z" fill="#F4A837"/>
<path d="M306.289 323.648C295.026 318.561 281.771 323.568 276.684 334.831C271.597 346.094 276.604 359.349 287.867 364.436C299.131 369.523 312.385 364.516 317.472 353.253C322.559 341.99 317.553 328.735 306.289 323.648ZM289.326 361.206C279.847 356.924 275.634 345.769 279.915 336.29C284.196 326.811 295.351 322.597 304.83 326.879C314.309 331.16 318.523 342.315 314.242 351.794C309.961 361.273 298.805 365.487 289.326 361.206Z" fill="#F4A837"/>
</g>
<path fill-rule="evenodd" clip-rule="evenodd" d="M306.18 321.616C306.407 321.114 306.997 320.891 307.499 321.118C313.427 323.795 317.84 328.453 320.309 333.954C320.534 334.456 320.309 335.046 319.807 335.271C319.305 335.497 318.715 335.272 318.49 334.77C316.213 329.696 312.146 325.404 306.679 322.935C306.177 322.708 305.954 322.118 306.18 321.616Z" fill="white"/>
<path fill-rule="evenodd" clip-rule="evenodd" d="M286.295 365.644C286.069 366.145 286.292 366.736 286.793 366.962C289 367.959 291.274 368.617 293.559 368.958C294.103 369.039 294.61 368.664 294.691 368.119C294.773 367.575 294.397 367.068 293.853 366.987C291.749 366.672 289.651 366.066 287.614 365.146C287.112 364.919 286.522 365.142 286.295 365.644Z" fill="white"/>
<g style="mix-blend-mode:overlay">
<path d="M282.661 322.29C286.598 319.677 291.194 318.162 295.937 317.938L297.809 321.7C293.053 321.562 288.384 322.954 284.497 325.613L282.661 322.29Z" fill="url(#paint41_linear)"/>
<path d="M304.316 361.491C308.114 359.928 311.412 357.129 313.547 353.341L311.517 349.26C311.383 349.629 311.234 349.997 311.069 350.361C310.301 352.062 309.26 353.554 308.02 354.808L299.812 351.101L299.256 352.331L304.316 361.491Z" fill="url(#paint42_linear)"/>
<path d="M306.039 364.611C309.717 363.02 312.979 360.443 315.389 357.046L317.254 360.795C314.675 363.9 311.447 366.313 307.869 367.922L306.039 364.611Z" fill="url(#paint43_linear)"/>
<path d="M295.308 345.184L294.984 344.598L296.276 341.739L299.501 343.195L298.044 346.42L295.308 345.184Z" fill="url(#paint44_linear)"/>
<path d="M292.849 340.732L292.45 340.01L293.052 340.282L292.849 340.732Z" fill="url(#paint45_linear)"/>
<path d="M287.966 331.893L286.22 328.733C290.07 325.996 294.876 324.762 299.65 325.403L301.688 329.501C296.901 328.007 291.803 329.003 287.966 331.893Z" fill="url(#paint46_linear)"/>
<path d="M304.319 334.79C303.614 334.247 302.834 333.777 301.987 333.394C297.827 331.515 293.148 332.265 289.816 334.937L308.616 343.429L304.319 334.79Z" fill="url(#paint47_linear)"/>
<path d="M301.269 347.877L306.996 350.463C307.314 349.973 307.598 349.453 307.845 348.906C308.093 348.358 308.295 347.801 308.453 347.238L302.726 344.652L301.269 347.877Z" fill="url(#paint48_linear)"/>
</g>
<g style="mix-blend-mode:overlay">
<path fill-rule="evenodd" clip-rule="evenodd" d="M286.254 320.292C285.009 320.862 283.807 321.529 282.661 322.29L284.497 325.613C285.621 324.844 286.81 324.182 288.048 323.631L286.254 320.292ZM289.73 326.764C288.498 327.292 287.32 327.951 286.22 328.733L287.966 331.893C289.034 331.088 290.201 330.43 291.432 329.932L289.73 326.764ZM293.119 333.074C291.931 333.51 290.813 334.138 289.816 334.937L295.499 337.504L293.119 333.074ZM298.253 342.632L296.276 341.739L294.984 344.598L295.308 345.184L298.044 346.42L299.069 344.151L298.253 342.632ZM303.76 352.884L299.812 351.101L299.256 352.331L304.316 361.491C305.42 361.036 306.482 360.478 307.485 359.82L303.76 352.884ZM310.955 366.28L309.168 362.954C308.168 363.589 307.122 364.142 306.039 364.611L307.868 367.922C308.931 367.445 309.962 366.896 310.955 366.28ZM292.849 340.732L292.45 340.01L293.052 340.282L292.849 340.732Z" fill="url(#paint49_linear)"/>
</g>
</g>
<g opacity="0.5" filter="url(#filter10_d)">
<path d="M43.1643 297.199C42.4514 305.936 34.7905 312.441 26.0531 311.728C17.3158 311.015 10.8108 303.354 11.5237 294.617C12.2366 285.88 19.8976 279.375 28.6349 280.087C37.3722 280.8 43.8772 288.461 43.1643 297.199Z" fill="#FFBE5E"/>
<g filter="url(#filter11_i)">
<path d="M21.3464 292.187L21.2891 292.182C22.6485 289.975 25.1694 288.592 27.9301 288.818C29.711 288.963 31.2845 289.752 32.4413 290.938L32.4849 290.941L35.3113 291.172C33.8295 288.687 31.2085 286.93 28.1047 286.677C23.3683 286.291 19.1744 289.539 18.2691 294.09L24.2287 294.576L24.0541 296.716L18.0936 296.23L18.0946 296.247C18.121 296.992 18.2366 297.717 18.4313 298.412L23.8785 298.857L23.434 304.304C24.0924 304.611 24.7959 304.844 25.5322 304.991L26.0184 299.032L28.1583 299.206L27.6721 305.166C28.4229 305.14 29.1543 305.025 29.8538 304.828L30.2983 299.38L35.7455 299.825C36.198 298.855 36.4887 297.79 36.5808 296.662C36.673 295.533 36.5587 294.435 36.2693 293.405L35.0018 293.301L21.3464 292.187ZM28.3335 297.066L26.1935 296.891L26.3681 294.751L28.5081 294.926L28.3335 297.066ZM34.2741 297.551L30.4739 297.241L30.6485 295.101L34.4487 295.411C34.4732 295.764 34.4715 296.124 34.4418 296.487C34.4121 296.851 34.3555 297.206 34.2741 297.551Z" fill="#F4A837"/>
<path d="M28.4483 282.374C20.9738 281.764 14.4205 287.329 13.8107 294.803C13.2008 302.277 18.7653 308.831 26.2398 309.441C33.7142 310.051 40.2675 304.486 40.8774 297.012C41.4872 289.538 35.9228 282.984 28.4483 282.374ZM26.4147 307.297C20.1244 306.784 15.4411 301.269 15.9544 294.978C16.4677 288.688 21.9831 284.005 28.2734 284.518C34.5636 285.031 39.2469 290.547 38.7336 296.837C38.2204 303.127 32.7049 307.811 26.4147 307.297Z" fill="#F4A837"/>
</g>
<path fill-rule="evenodd" clip-rule="evenodd" d="M27.9716 281.235C27.9988 280.902 28.2907 280.655 28.6236 280.682C32.5571 281.003 36.0293 282.764 38.562 285.405C38.7932 285.646 38.7852 286.028 38.5442 286.26C38.3032 286.491 37.9203 286.483 37.6891 286.242C35.353 283.806 32.1531 282.183 28.5252 281.887C28.1923 281.86 27.9445 281.568 27.9716 281.235Z" fill="white"/>
<path fill-rule="evenodd" clip-rule="evenodd" d="M25.5877 310.452C25.5605 310.785 25.8084 311.077 26.1413 311.104C27.6054 311.223 29.0396 311.136 30.4145 310.865C30.7422 310.8 30.9554 310.482 30.8909 310.154C30.8263 309.827 30.5083 309.613 30.1806 309.678C28.914 309.928 27.5916 310.009 26.2396 309.898C25.9067 309.871 25.6149 310.119 25.5877 310.452Z" fill="white"/>
<g style="mix-blend-mode:overlay">
<path d="M14.6682 286.418C16.385 284.122 18.7028 282.318 21.3674 281.223L23.2044 282.991C20.4587 283.882 18.0745 285.63 16.3952 287.942L14.6682 286.418Z" fill="url(#paint50_linear)"/>
<path d="M35.0387 304.403C36.8909 302.736 38.2042 300.463 38.6517 297.863L36.6593 295.945C36.6582 296.183 36.6479 296.424 36.6282 296.666C36.5361 297.794 36.2453 298.859 35.7928 299.829L30.3457 299.384L30.2791 300.201L35.0387 304.403Z" fill="url(#paint51_linear)"/>
<path d="M36.66 305.835C38.4373 304.175 39.7758 302.038 40.4605 299.604L42.2908 301.366C41.4505 303.667 40.098 305.705 38.381 307.354L36.66 305.835Z" fill="url(#paint52_linear)"/>
<path d="M26.5652 296.922L26.2606 296.653L26.4155 294.755L28.5554 294.93L28.3808 297.07L26.5652 296.922Z" fill="url(#paint53_linear)"/>
<path d="M24.2516 294.879L23.8763 294.548L24.276 294.58L24.2516 294.879Z" fill="url(#paint54_linear)"/>
<path d="M19.6584 290.824L18.0165 289.374C19.6583 287.025 22.1528 285.339 25.0121 284.732L27.0126 286.658C23.9722 286.781 21.2617 288.389 19.6584 290.824Z" fill="url(#paint55_linear)"/>
<path d="M29.595 289.144C29.0809 288.978 28.5395 288.868 27.9774 288.822C25.2167 288.596 22.6959 289.979 21.3365 292.186L33.8126 293.204L29.595 289.144Z" fill="url(#paint56_linear)"/>
<path d="M30.5212 297.245L34.3214 297.555C34.4029 297.21 34.4595 296.855 34.4891 296.491C34.5188 296.128 34.5205 295.768 34.496 295.415L30.6958 295.105L30.5212 297.245Z" fill="url(#paint57_linear)"/>
</g>
<g style="mix-blend-mode:overlay">
<path fill-rule="evenodd" clip-rule="evenodd" d="M16.314 284.543C15.7187 285.122 15.168 285.749 14.6682 286.418L16.3952 287.942C16.8807 287.274 17.4251 286.652 18.0201 286.085L16.314 284.543ZM19.6208 287.533C19.0241 288.086 18.4855 288.703 18.0165 289.374L19.6584 290.823C20.105 290.145 20.6375 289.531 21.2391 288.996L19.6208 287.533ZM22.8443 290.447C22.2542 290.939 21.7433 291.526 21.3365 292.186L25.1081 292.494L22.8443 290.447ZM27.7277 294.862L26.4155 294.755L26.2606 296.653L26.5652 296.922L28.3808 297.07L28.5037 295.564L27.7277 294.862ZM32.9657 299.598L30.3457 299.384L30.2791 300.201L35.0387 304.403C35.5772 303.918 36.0701 303.382 36.5095 302.802L32.9657 299.598ZM39.8097 305.786L38.1102 304.249C37.6685 304.816 37.1833 305.346 36.66 305.835L38.381 307.354C38.8906 306.864 39.3682 306.341 39.8097 305.786ZM24.2517 294.879L23.8763 294.548L24.276 294.58L24.2517 294.879Z" fill="url(#paint58_linear)"/>
</g>
</g>
<g opacity="0.5" filter="url(#filter12_d)">
<path d="M32.1303 224.356C31.7608 228.885 27.7903 232.256 23.2619 231.887C18.7335 231.517 15.3621 227.547 15.7316 223.018C16.1011 218.49 20.0716 215.118 24.6 215.488C29.1283 215.857 32.4998 219.828 32.1303 224.356Z" fill="#FFBE5E"/>
<g filter="url(#filter13_i)">
<path d="M20.8225 221.759L20.7928 221.756C21.4973 220.612 22.8039 219.896 24.2347 220.013C25.1577 220.088 25.9732 220.497 26.5728 221.111L26.5953 221.113L28.0602 221.233C27.2922 219.945 25.9338 219.034 24.3252 218.903C21.8704 218.703 19.6968 220.387 19.2276 222.745L22.3163 222.997L22.2258 224.106L19.1366 223.854L19.1371 223.863C19.1508 224.249 19.2107 224.625 19.3117 224.985L22.1348 225.216L21.9044 228.039C22.2457 228.198 22.6103 228.319 22.9919 228.395L23.2439 225.306L24.353 225.397L24.101 228.485C24.4901 228.472 24.8692 228.412 25.2317 228.31L25.4621 225.487L28.2853 225.717C28.5198 225.215 28.6705 224.663 28.7182 224.078C28.7659 223.493 28.7067 222.924 28.5568 222.39L27.8998 222.336L20.8225 221.759ZM24.4438 224.287L23.3346 224.197L23.4251 223.088L24.5342 223.178L24.4438 224.287ZM27.5227 224.539L25.5531 224.378L25.6436 223.269L27.6131 223.43C27.6258 223.613 27.625 223.799 27.6096 223.988C27.5942 224.176 27.5649 224.36 27.5227 224.539Z" fill="#F4A837"/>
<path d="M24.5033 216.673C20.6294 216.357 17.2329 219.241 16.9168 223.115C16.6008 226.988 19.4847 230.385 23.3586 230.701C27.2325 231.017 30.629 228.133 30.945 224.259C31.2611 220.386 28.3771 216.989 24.5033 216.673ZM23.4493 229.59C20.1892 229.324 17.7619 226.465 18.0279 223.205C18.2939 219.945 21.1525 217.518 24.4126 217.784C27.6727 218.05 30.1 220.909 29.834 224.169C29.5679 227.429 26.7094 229.856 23.4493 229.59Z" fill="#F4A837"/>
</g>
<path fill-rule="evenodd" clip-rule="evenodd" d="M24.2562 216.083C24.2703 215.91 24.4216 215.782 24.5941 215.796C26.6328 215.962 28.4323 216.875 29.745 218.243C29.8648 218.368 29.8607 218.567 29.7358 218.687C29.6108 218.806 29.4124 218.802 29.2926 218.677C28.0819 217.415 26.4234 216.574 24.5431 216.421C24.3706 216.406 24.2421 216.255 24.2562 216.083Z" fill="white"/>
<path fill-rule="evenodd" clip-rule="evenodd" d="M23.0207 231.225C23.0066 231.397 23.135 231.549 23.3076 231.563C24.0664 231.625 24.8097 231.579 25.5223 231.439C25.6921 231.405 25.8027 231.241 25.7692 231.071C25.7357 230.901 25.5709 230.79 25.4011 230.824C24.7446 230.953 24.0592 230.995 23.3585 230.938C23.186 230.924 23.0347 231.052 23.0207 231.225Z" fill="white"/>
<g style="mix-blend-mode:overlay">
<path d="M17.3613 218.769C18.2511 217.579 19.4523 216.644 20.8333 216.076L21.7855 216.993C20.3624 217.455 19.1267 218.36 18.2564 219.559L17.3613 218.769Z" fill="url(#paint59_linear)"/>
<path d="M27.9189 228.09C28.8789 227.226 29.5596 226.048 29.7915 224.7L28.7589 223.706C28.7583 223.83 28.753 223.955 28.7427 224.08C28.695 224.665 28.5443 225.217 28.3098 225.719L25.4866 225.489L25.4521 225.912L27.9189 228.09Z" fill="url(#paint60_linear)"/>
<path d="M28.7592 228.832C29.6804 227.972 30.3741 226.864 30.729 225.603L31.6776 226.516C31.242 227.709 30.5411 228.765 29.6512 229.62L28.7592 228.832Z" fill="url(#paint61_linear)"/>
<path d="M23.5273 224.213L23.3694 224.073L23.4497 223.09L24.5588 223.18L24.4683 224.289L23.5273 224.213Z" fill="url(#paint62_linear)"/>
<path d="M22.3282 223.154L22.1337 222.982L22.3409 222.999L22.3282 223.154Z" fill="url(#paint63_linear)"/>
<path d="M19.9476 221.052L19.0967 220.301C19.9476 219.083 21.2404 218.209 22.7223 217.895L23.7592 218.893C22.1834 218.957 20.7786 219.79 19.9476 221.052Z" fill="url(#paint64_linear)"/>
<path d="M25.0976 220.181C24.8311 220.095 24.5505 220.038 24.2592 220.014C22.8284 219.898 21.5219 220.614 20.8174 221.758L27.2835 222.286L25.0976 220.181Z" fill="url(#paint65_linear)"/>
<path d="M25.5776 224.38L27.5472 224.541C27.5894 224.362 27.6188 224.178 27.6341 223.99C27.6495 223.801 27.6504 223.615 27.6377 223.432L25.6681 223.271L25.5776 224.38Z" fill="url(#paint66_linear)"/>
</g>
<g style="mix-blend-mode:overlay">
<path fill-rule="evenodd" clip-rule="evenodd" d="M18.2143 217.797C17.9057 218.097 17.6203 218.422 17.3613 218.768L18.2564 219.559C18.508 219.212 18.7901 218.89 19.0985 218.596L18.2143 217.797ZM19.9282 219.346C19.6189 219.633 19.3397 219.953 19.0967 220.301L19.9476 221.052C20.1791 220.701 20.4551 220.382 20.7669 220.105L19.9282 219.346ZM21.5988 220.857C21.293 221.112 21.0282 221.416 20.8174 221.758L22.7721 221.918L21.5988 220.857ZM24.1298 223.145L23.4497 223.09L23.3694 224.073L23.5273 224.213L24.4683 224.289L24.532 223.509L24.1298 223.145ZM26.8445 225.6L25.4867 225.489L25.4521 225.912L27.919 228.09C28.198 227.839 28.4535 227.561 28.6812 227.26L26.8445 225.6ZM30.3917 228.807L29.5108 228.01C29.2819 228.304 29.0304 228.579 28.7592 228.832L29.6512 229.619C29.9153 229.366 30.1628 229.094 30.3917 228.807ZM22.3282 223.154L22.1337 222.982L22.3409 222.999L22.3282 223.154Z" fill="url(#paint67_linear)"/>
</g>
</g>
<g opacity="0.5" filter="url(#filter14_d)">
<path d="M396.73 238.193C396.361 242.721 392.39 246.093 387.862 245.723C383.334 245.354 379.962 241.383 380.332 236.855C380.701 232.326 384.672 228.955 389.2 229.324C393.728 229.694 397.1 233.664 396.73 238.193Z" fill="#FFBE5E"/>
<g filter="url(#filter15_i)">
<path d="M385.423 235.595L385.393 235.593C386.097 234.449 387.404 233.732 388.835 233.849C389.758 233.924 390.573 234.333 391.173 234.948L391.195 234.949L392.66 235.069C391.892 233.781 390.534 232.871 388.925 232.74C386.47 232.539 384.297 234.223 383.828 236.582L386.916 236.834L386.826 237.943L383.737 237.691L383.737 237.699C383.751 238.085 383.811 238.461 383.912 238.822L386.735 239.052L386.505 241.875C386.846 242.034 387.21 242.155 387.592 242.231L387.844 239.143L388.953 239.233L388.701 242.322C389.09 242.309 389.469 242.249 389.832 242.147L390.062 239.323L392.885 239.554C393.12 239.051 393.271 238.499 393.318 237.914C393.366 237.329 393.307 236.76 393.157 236.226L392.5 236.173L385.423 235.595ZM389.044 238.124L387.935 238.033L388.025 236.924L389.134 237.015L389.044 238.124ZM392.123 238.375L390.153 238.214L390.244 237.105L392.213 237.266C392.226 237.449 392.225 237.636 392.21 237.824C392.194 238.012 392.165 238.196 392.123 238.375Z" fill="#F4A837"/>
<path d="M389.103 230.509C385.229 230.193 381.833 233.077 381.517 236.951C381.201 240.825 384.085 244.221 387.959 244.538C391.833 244.854 395.229 241.969 395.545 238.096C395.861 234.222 392.977 230.825 389.103 230.509ZM388.049 243.426C384.789 243.16 382.362 240.302 382.628 237.042C382.894 233.782 385.753 231.354 389.013 231.62C392.273 231.886 394.7 234.745 394.434 238.005C394.168 241.265 391.309 243.692 388.049 243.426Z" fill="#F4A837"/>
</g>
<path fill-rule="evenodd" clip-rule="evenodd" d="M388.856 229.919C388.87 229.747 389.022 229.618 389.194 229.632C391.233 229.799 393.032 230.711 394.345 232.08C394.465 232.205 394.461 232.403 394.336 232.523C394.211 232.643 394.012 232.639 393.893 232.514C392.682 231.252 391.023 230.41 389.143 230.257C388.971 230.243 388.842 230.092 388.856 229.919Z" fill="white"/>
<path fill-rule="evenodd" clip-rule="evenodd" d="M387.621 245.061C387.607 245.234 387.735 245.385 387.908 245.399C388.666 245.461 389.41 245.416 390.122 245.275C390.292 245.242 390.403 245.077 390.369 244.907C390.336 244.737 390.171 244.627 390.001 244.66C389.345 244.79 388.659 244.832 387.959 244.774C387.786 244.76 387.635 244.889 387.621 245.061Z" fill="white"/>
<g style="mix-blend-mode:overlay">
<path d="M381.961 232.605C382.851 231.415 384.052 230.48 385.433 229.913L386.386 230.829C384.962 231.291 383.727 232.197 382.856 233.395L381.961 232.605Z" fill="url(#paint68_linear)"/>
<path d="M392.519 241.927C393.479 241.062 394.16 239.884 394.392 238.537L393.359 237.543C393.358 237.666 393.353 237.791 393.343 237.916C393.295 238.501 393.144 239.053 392.91 239.556L390.087 239.325L390.052 239.749L392.519 241.927Z" fill="url(#paint69_linear)"/>
<path d="M393.359 242.668C394.28 241.809 394.974 240.701 395.329 239.439L396.278 240.353C395.842 241.545 395.141 242.601 394.251 243.456L393.359 242.668Z" fill="url(#paint70_linear)"/>
<path d="M388.127 238.049L387.969 237.91L388.05 236.926L389.159 237.017L389.068 238.126L388.127 238.049Z" fill="url(#paint71_linear)"/>
<path d="M386.928 236.99L386.734 236.819L386.941 236.836L386.928 236.99Z" fill="url(#paint72_linear)"/>
<path d="M384.548 234.888L383.697 234.137C384.548 232.92 385.84 232.046 387.322 231.731L388.359 232.729C386.783 232.793 385.379 233.627 384.548 234.888Z" fill="url(#paint73_linear)"/>
<path d="M389.698 234.018C389.431 233.932 389.151 233.875 388.859 233.851C387.428 233.734 386.122 234.451 385.417 235.595L391.884 236.122L389.698 234.018Z" fill="url(#paint74_linear)"/>
<path d="M390.178 238.216L392.147 238.377C392.189 238.198 392.219 238.014 392.234 237.826C392.25 237.637 392.25 237.451 392.238 237.268L390.268 237.107L390.178 238.216Z" fill="url(#paint75_linear)"/>
</g>
<g style="mix-blend-mode:overlay">
<path fill-rule="evenodd" clip-rule="evenodd" d="M382.814 231.633C382.506 231.934 382.22 232.258 381.961 232.605L382.856 233.395C383.108 233.049 383.39 232.727 383.699 232.433L382.814 231.633ZM384.528 233.183C384.219 233.469 383.94 233.789 383.697 234.137L384.548 234.888C384.779 234.537 385.055 234.219 385.367 233.941L384.528 233.183ZM386.199 234.693C385.893 234.948 385.628 235.252 385.417 235.595L387.372 235.754L386.199 234.693ZM388.73 236.982L388.05 236.926L387.969 237.91L388.127 238.049L389.068 238.126L389.132 237.345L388.73 236.982ZM391.445 239.436L390.087 239.325L390.052 239.748L392.519 241.926C392.798 241.675 393.054 241.397 393.281 241.097L391.445 239.436ZM394.992 242.643L394.111 241.847C393.882 242.141 393.63 242.415 393.359 242.668L394.251 243.456C394.515 243.202 394.763 242.931 394.992 242.643ZM386.928 236.99L386.734 236.819L386.941 236.835L386.928 236.99Z" fill="url(#paint76_linear)"/>
</g>
</g>
<g opacity="0.5" filter="url(#filter16_d)">
<path d="M378.372 315.728C377.659 324.465 369.998 330.97 361.261 330.257C352.523 329.544 346.018 321.884 346.731 313.146C347.444 304.409 355.105 297.904 363.842 298.617C372.58 299.33 379.085 306.991 378.372 315.728Z" fill="#FFBE5E"/>
<g filter="url(#filter17_i)">
<path d="M356.554 310.716L356.497 310.712C357.856 308.504 360.377 307.122 363.137 307.347C364.918 307.492 366.492 308.281 367.649 309.467L367.692 309.47L370.519 309.701C369.037 307.216 366.416 305.46 363.312 305.207C358.576 304.82 354.382 308.069 353.477 312.62L359.436 313.106L359.261 315.246L353.301 314.759L353.302 314.776C353.328 315.521 353.444 316.246 353.639 316.941L359.086 317.386L358.641 322.833C359.3 323.14 360.003 323.373 360.74 323.52L361.226 317.561L363.366 317.736L362.879 323.695C363.63 323.67 364.362 323.554 365.061 323.357L365.506 317.91L370.953 318.354C371.405 317.385 371.696 316.32 371.788 315.191C371.88 314.062 371.766 312.964 371.477 311.934L370.209 311.83L356.554 310.716ZM363.541 315.595L361.401 315.421L361.576 313.281L363.715 313.455L363.541 315.595ZM369.481 316.08L365.681 315.77L365.856 313.63L369.656 313.94C369.681 314.293 369.679 314.653 369.649 315.017C369.62 315.38 369.563 315.735 369.481 316.08Z" fill="#F4A837"/>
<path d="M363.656 300.904C356.181 300.294 349.628 305.859 349.018 313.333C348.408 320.807 353.973 327.36 361.447 327.97C368.922 328.58 375.475 323.015 376.085 315.541C376.695 308.067 371.13 301.513 363.656 300.904ZM361.622 325.827C355.332 325.313 350.649 319.798 351.162 313.508C351.675 307.217 357.191 302.534 363.481 303.047C369.771 303.561 374.454 309.076 373.941 315.366C373.428 321.657 367.912 326.34 361.622 325.827Z" fill="#F4A837"/>
</g>
<path fill-rule="evenodd" clip-rule="evenodd" d="M363.179 299.765C363.206 299.432 363.498 299.184 363.831 299.211C367.764 299.532 371.237 301.293 373.769 303.934C374.001 304.175 373.993 304.558 373.752 304.789C373.511 305.02 373.128 305.012 372.897 304.771C370.56 302.336 367.36 300.713 363.733 300.417C363.4 300.389 363.152 300.097 363.179 299.765Z" fill="white"/>
<path fill-rule="evenodd" clip-rule="evenodd" d="M360.795 328.981C360.768 329.314 361.016 329.606 361.349 329.633C362.813 329.753 364.247 329.665 365.622 329.394C365.95 329.329 366.163 329.011 366.098 328.684C366.034 328.356 365.716 328.143 365.388 328.207C364.121 328.457 362.799 328.538 361.447 328.428C361.114 328.401 360.822 328.648 360.795 328.981Z" fill="white"/>
<g style="mix-blend-mode:overlay">
<path d="M349.876 304.947C351.592 302.651 353.91 300.847 356.575 299.752L358.412 301.521C355.666 302.412 353.282 304.159 351.603 306.472L349.876 304.947Z" fill="url(#paint77_linear)"/>
<path d="M370.246 322.933C372.098 321.265 373.412 318.992 373.859 316.392L371.867 314.474C371.866 314.713 371.855 314.953 371.836 315.195C371.743 316.324 371.453 317.389 371 318.358L365.553 317.914L365.486 318.73L370.246 322.933Z" fill="url(#paint78_linear)"/>
<path d="M371.867 324.364C373.645 322.705 374.983 320.567 375.668 318.134L377.498 319.896C376.658 322.196 375.305 324.234 373.588 325.883L371.867 324.364Z" fill="url(#paint79_linear)"/>
<path d="M361.773 315.451L361.468 315.182L361.623 313.285L363.763 313.459L363.588 315.599L361.773 315.451Z" fill="url(#paint80_linear)"/>
<path d="M359.459 313.408L359.084 313.077L359.483 313.11L359.459 313.408Z" fill="url(#paint81_linear)"/>
<path d="M354.866 309.353L353.224 307.903C354.866 305.554 357.36 303.868 360.22 303.261L362.22 305.187C359.18 305.31 356.469 306.919 354.866 309.353Z" fill="url(#paint82_linear)"/>
<path d="M364.802 307.673C364.288 307.507 363.747 307.397 363.185 307.351C360.424 307.126 357.903 308.508 356.544 310.716L369.02 311.734L364.802 307.673Z" fill="url(#paint83_linear)"/>
<path d="M365.729 315.774L369.529 316.084C369.61 315.739 369.667 315.384 369.697 315.021C369.726 314.657 369.728 314.297 369.703 313.944L365.903 313.634L365.729 315.774Z" fill="url(#paint84_linear)"/>
</g>
<g style="mix-blend-mode:overlay">
<path fill-rule="evenodd" clip-rule="evenodd" d="M351.521 303.072C350.926 303.652 350.375 304.278 349.876 304.947L351.603 306.472C352.088 305.803 352.632 305.182 353.228 304.615L351.521 303.072ZM354.828 306.062C354.231 306.615 353.693 307.232 353.224 307.903L354.866 309.353C355.312 308.675 355.845 308.061 356.446 307.525L354.828 306.062ZM358.052 308.976C357.462 309.468 356.951 310.055 356.544 310.715L360.316 311.023L358.052 308.976ZM362.935 313.392L361.623 313.285L361.468 315.182L361.773 315.451L363.588 315.599L363.711 314.093L362.935 313.392ZM368.173 318.127L365.553 317.914L365.486 318.73L370.246 322.932C370.785 322.448 371.278 321.912 371.717 321.331L368.173 318.127ZM375.017 324.315L373.318 322.779C372.876 323.345 372.391 323.875 371.867 324.364L373.588 325.883C374.098 325.394 374.576 324.87 375.017 324.315ZM359.459 313.408L359.084 313.077L359.483 313.109L359.459 313.408Z" fill="url(#paint85_linear)"/>
</g>
</g>
<defs>
<filter id="filter0_dii" x="34.5931" y="106.521" width="335.384" height="335.384" filterUnits="userSpaceOnUse" color-interpolation-filters="sRGB">
<feFlood flood-opacity="0" result="BackgroundImageFix"/>
<feColorMatrix in="SourceAlpha" type="matrix" values="0 0 0 0 0 0 0 0 0 0 0 0 0 0 0 0 0 0 127 0" result="hardAlpha"/>
<feOffset dx="-0.508978" dy="29.1593"/>
<feGaussianBlur stdDeviation="29.1638"/>
<feColorMatrix type="matrix" values="0 0 0 0 0.0658824 0 0 0 0 0.132549 0 0 0 0 0.184314 0 0 0 0.3975 0"/>
<feBlend mode="normal" in2="BackgroundImageFix" result="effect1_dropShadow"/>
<feBlend mode="normal" in="SourceGraphic" in2="effect1_dropShadow" result="shape"/>
<feColorMatrix in="SourceAlpha" type="matrix" values="0 0 0 0 0 0 0 0 0 0 0 0 0 0 0 0 0 0 127 0" result="hardAlpha"/>
<feOffset dx="-0.209247" dy="11.9877"/>
<feGaussianBlur stdDeviation="5.99478"/>
<feComposite in2="hardAlpha" operator="arithmetic" k2="-1" k3="1"/>
<feColorMatrix type="matrix" values="0 0 0 0 0.320833 0 0 0 0 0.6168 0 0 0 0 1 0 0 0 1 0"/>
<feBlend mode="normal" in2="shape" result="effect2_innerShadow"/>
<feColorMatrix in="SourceAlpha" type="matrix" values="0 0 0 0 0 0 0 0 0 0 0 0 0 0 0 0 0 0 127 0" result="hardAlpha"/>
<feOffset dx="0.209247" dy="-11.9877"/>
<feGaussianBlur stdDeviation="5.99478"/>
<feComposite in2="hardAlpha" operator="arithmetic" k2="-1" k3="1"/>
<feColorMatrix type="matrix" values="0 0 0 0 0.0941176 0 0 0 0 0.466667 0 0 0 0 0.94902 0 0 0 1 0"/>
<feBlend mode="normal" in2="effect2_innerShadow" result="effect3_innerShadow"/>
</filter>
<filter id="filter1_i" x="171.01" y="186.309" width="61.7331" height="119.268" filterUnits="userSpaceOnUse" color-interpolation-filters="sRGB">
<feFlood flood-opacity="0" result="BackgroundImageFix"/>
<feBlend mode="normal" in="SourceGraphic" in2="BackgroundImageFix" result="shape"/>
<feColorMatrix in="SourceAlpha" type="matrix" values="0 0 0 0 0 0 0 0 0 0 0 0 0 0 0 0 0 0 127 0" result="hardAlpha"/>
<feOffset dy="4"/>
<feGaussianBlur stdDeviation="3"/>
<feComposite in2="hardAlpha" operator="arithmetic" k2="-1" k3="1"/>
<feColorMatrix type="matrix" values="0 0 0 0 0.575938 0 0 0 0 0.585671 0 0 0 0 0.808333 0 0 0 1 0"/>
<feBlend mode="normal" in2="shape" result="effect1_innerShadow"/>
</filter>
<filter id="filter2_d" x="39.1775" y="230.647" width="59.8312" height="59.7872" filterUnits="userSpaceOnUse" color-interpolation-filters="sRGB">
<feFlood flood-opacity="0" result="BackgroundImageFix"/>
<feColorMatrix in="SourceAlpha" type="matrix" values="0 0 0 0 0 0 0 0 0 0 0 0 0 0 0 0 0 0 127 0" result="hardAlpha"/>
<feOffset/>
<feGaussianBlur stdDeviation="5"/>
<feColorMatrix type="matrix" values="0 0 0 0 1 0 0 0 0 0.927583 0 0 0 0 0.670833 0 0 0 1 0"/>
<feBlend mode="normal" in2="BackgroundImageFix" result="effect1_dropShadow"/>
<feBlend mode="normal" in="SourceGraphic" in2="effect1_dropShadow" result="shape"/>
</filter>
<filter id="filter3_i" x="52.0532" y="243.523" width="34.0356" height="35.0187" filterUnits="userSpaceOnUse" color-interpolation-filters="sRGB">
<feFlood flood-opacity="0" result="BackgroundImageFix"/>
<feBlend mode="normal" in="SourceGraphic" in2="BackgroundImageFix" result="shape"/>
<feColorMatrix in="SourceAlpha" type="matrix" values="0 0 0 0 0 0 0 0 0 0 0 0 0 0 0 0 0 0 127 0" result="hardAlpha"/>
<feOffset dy="0.983008"/>
<feGaussianBlur stdDeviation="1.96602"/>
<feComposite in2="hardAlpha" operator="arithmetic" k2="-1" k3="1"/>
<feColorMatrix type="matrix" values="0 0 0 0 0.320833 0 0 0 0 0 0 0 0 0 0 0 0 0 0.25 0"/>
<feBlend mode="normal" in2="shape" result="effect1_innerShadow"/>
</filter>
<filter id="filter4_d" x="313.24" y="227.643" width="59.8312" height="59.7872" filterUnits="userSpaceOnUse" color-interpolation-filters="sRGB">
<feFlood flood-opacity="0" result="BackgroundImageFix"/>
<feColorMatrix in="SourceAlpha" type="matrix" values="0 0 0 0 0 0 0 0 0 0 0 0 0 0 0 0 0 0 127 0" result="hardAlpha"/>
<feOffset/>
<feGaussianBlur stdDeviation="5"/>
<feColorMatrix type="matrix" values="0 0 0 0 1 0 0 0 0 0.927583 0 0 0 0 0.670833 0 0 0 1 0"/>
<feBlend mode="normal" in2="BackgroundImageFix" result="effect1_dropShadow"/>
<feBlend mode="normal" in="SourceGraphic" in2="effect1_dropShadow" result="shape"/>
</filter>
<filter id="filter5_i" x="326.115" y="240.518" width="34.0356" height="35.0187" filterUnits="userSpaceOnUse" color-interpolation-filters="sRGB">
<feFlood flood-opacity="0" result="BackgroundImageFix"/>
<feBlend mode="normal" in="SourceGraphic" in2="BackgroundImageFix" result="shape"/>
<feColorMatrix in="SourceAlpha" type="matrix" values="0 0 0 0 0 0 0 0 0 0 0 0 0 0 0 0 0 0 127 0" result="hardAlpha"/>
<feOffset dy="0.983008"/>
<feGaussianBlur stdDeviation="1.96602"/>
<feComposite in2="hardAlpha" operator="arithmetic" k2="-1" k3="1"/>
<feColorMatrix type="matrix" values="0 0 0 0 0.320833 0 0 0 0 0 0 0 0 0 0 0 0 0 0.25 0"/>
<feBlend mode="normal" in2="shape" result="effect1_innerShadow"/>
</filter>
<filter id="filter6_d" x="39.2382" y="301.331" width="72.3891" height="72.3312" filterUnits="userSpaceOnUse" color-interpolation-filters="sRGB">
<feFlood flood-opacity="0" result="BackgroundImageFix"/>
<feColorMatrix in="SourceAlpha" type="matrix" values="0 0 0 0 0 0 0 0 0 0 0 0 0 0 0 0 0 0 127 0" result="hardAlpha"/>
<feOffset/>
<feGaussianBlur stdDeviation="5"/>
<feColorMatrix type="matrix" values="0 0 0 0 1 0 0 0 0 0.927583 0 0 0 0 0.670833 0 0 0 1 0"/>
<feBlend mode="normal" in2="BackgroundImageFix" result="effect1_dropShadow"/>
<feBlend mode="normal" in="SourceGraphic" in2="effect1_dropShadow" result="shape"/>
</filter>
<filter id="filter7_i" x="53.0206" y="315.113" width="44.7664" height="45.7494" filterUnits="userSpaceOnUse" color-interpolation-filters="sRGB">
<feFlood flood-opacity="0" result="BackgroundImageFix"/>
<feBlend mode="normal" in="SourceGraphic" in2="BackgroundImageFix" result="shape"/>
<feColorMatrix in="SourceAlpha" type="matrix" values="0 0 0 0 0 0 0 0 0 0 0 0 0 0 0 0 0 0 127 0" result="hardAlpha"/>
<feOffset dy="0.983008"/>
<feGaussianBlur stdDeviation="1.96602"/>
<feComposite in2="hardAlpha" operator="arithmetic" k2="-1" k3="1"/>
<feColorMatrix type="matrix" values="0 0 0 0 0.320833 0 0 0 0 0 0 0 0 0 0 0 0 0 0.25 0"/>
<feBlend mode="normal" in2="shape" result="effect1_innerShadow"/>
</filter>
<filter id="filter8_d" x="260.913" y="307.876" width="72.3311" height="72.3311" filterUnits="userSpaceOnUse" color-interpolation-filters="sRGB">
<feFlood flood-opacity="0" result="BackgroundImageFix"/>
<feColorMatrix in="SourceAlpha" type="matrix" values="0 0 0 0 0 0 0 0 0 0 0 0 0 0 0 0 0 0 127 0" result="hardAlpha"/>
<feOffset/>
<feGaussianBlur stdDeviation="5"/>
<feColorMatrix type="matrix" values="0 0 0 0 1 0 0 0 0 0.927583 0 0 0 0 0.670833 0 0 0 1 0"/>
<feBlend mode="normal" in2="BackgroundImageFix" result="effect1_dropShadow"/>
<feBlend mode="normal" in="SourceGraphic" in2="effect1_dropShadow" result="shape"/>
</filter>
<filter id="filter9_i" x="274.695" y="321.659" width="44.7663" height="45.7493" filterUnits="userSpaceOnUse" color-interpolation-filters="sRGB">
<feFlood flood-opacity="0" result="BackgroundImageFix"/>
<feBlend mode="normal" in="SourceGraphic" in2="BackgroundImageFix" result="shape"/>
<feColorMatrix in="SourceAlpha" type="matrix" values="0 0 0 0 0 0 0 0 0 0 0 0 0 0 0 0 0 0 127 0" result="hardAlpha"/>
<feOffset dy="0.983008"/>
<feGaussianBlur stdDeviation="1.96602"/>
<feComposite in2="hardAlpha" operator="arithmetic" k2="-1" k3="1"/>
<feColorMatrix type="matrix" values="0 0 0 0 0.320833 0 0 0 0 0 0 0 0 0 0 0 0 0 0.25 0"/>
<feBlend mode="normal" in2="shape" result="effect1_innerShadow"/>
</filter>
<filter id="filter10_d" x="0.232849" y="268.797" width="54.2223" height="54.2223" filterUnits="userSpaceOnUse" color-interpolation-filters="sRGB">
<feFlood flood-opacity="0" result="BackgroundImageFix"/>
<feColorMatrix in="SourceAlpha" type="matrix" values="0 0 0 0 0 0 0 0 0 0 0 0 0 0 0 0 0 0 127 0" result="hardAlpha"/>
<feOffset/>
<feGaussianBlur stdDeviation="5"/>
<feColorMatrix type="matrix" values="0 0 0 0 1 0 0 0 0 0.927583 0 0 0 0 0.670833 0 0 0 1 0"/>
<feBlend mode="normal" in2="BackgroundImageFix" result="effect1_dropShadow"/>
<feBlend mode="normal" in="SourceGraphic" in2="effect1_dropShadow" result="shape"/>
</filter>
<filter id="filter11_i" x="12.7064" y="281.27" width="29.2753" height="30.2583" filterUnits="userSpaceOnUse" color-interpolation-filters="sRGB">
<feFlood flood-opacity="0" result="BackgroundImageFix"/>
<feBlend mode="normal" in="SourceGraphic" in2="BackgroundImageFix" result="shape"/>
<feColorMatrix in="SourceAlpha" type="matrix" values="0 0 0 0 0 0 0 0 0 0 0 0 0 0 0 0 0 0 127 0" result="hardAlpha"/>
<feOffset dy="0.983008"/>
<feGaussianBlur stdDeviation="1.96602"/>
<feComposite in2="hardAlpha" operator="arithmetic" k2="-1" k3="1"/>
<feColorMatrix type="matrix" values="0 0 0 0 0.320833 0 0 0 0 0 0 0 0 0 0 0 0 0 0.25 0"/>
<feBlend mode="normal" in2="shape" result="effect1_innerShadow"/>
</filter>
<filter id="filter12_d" x="5.06253" y="204.819" width="37.7368" height="37.7368" filterUnits="userSpaceOnUse" color-interpolation-filters="sRGB">
<feFlood flood-opacity="0" result="BackgroundImageFix"/>
<feColorMatrix in="SourceAlpha" type="matrix" values="0 0 0 0 0 0 0 0 0 0 0 0 0 0 0 0 0 0 127 0" result="hardAlpha"/>
<feOffset/>
<feGaussianBlur stdDeviation="5"/>
<feColorMatrix type="matrix" values="0 0 0 0 1 0 0 0 0 0.927583 0 0 0 0 0.670833 0 0 0 1 0"/>
<feBlend mode="normal" in2="BackgroundImageFix" result="effect1_dropShadow"/>
<feBlend mode="normal" in="SourceGraphic" in2="effect1_dropShadow" result="shape"/>
</filter>
<filter id="filter13_i" x="16.8932" y="216.649" width="14.0755" height="15.0586" filterUnits="userSpaceOnUse" color-interpolation-filters="sRGB">
<feFlood flood-opacity="0" result="BackgroundImageFix"/>
<feBlend mode="normal" in="SourceGraphic" in2="BackgroundImageFix" result="shape"/>
<feColorMatrix in="SourceAlpha" type="matrix" values="0 0 0 0 0 0 0 0 0 0 0 0 0 0 0 0 0 0 127 0" result="hardAlpha"/>
<feOffset dy="0.983008"/>
<feGaussianBlur stdDeviation="1.96602"/>
<feComposite in2="hardAlpha" operator="arithmetic" k2="-1" k3="1"/>
<feColorMatrix type="matrix" values="0 0 0 0 0.320833 0 0 0 0 0 0 0 0 0 0 0 0 0 0.25 0"/>
<feBlend mode="normal" in2="shape" result="effect1_innerShadow"/>
</filter>
<filter id="filter14_d" x="369.663" y="218.655" width="37.7368" height="37.7368" filterUnits="userSpaceOnUse" color-interpolation-filters="sRGB">
<feFlood flood-opacity="0" result="BackgroundImageFix"/>
<feColorMatrix in="SourceAlpha" type="matrix" values="0 0 0 0 0 0 0 0 0 0 0 0 0 0 0 0 0 0 127 0" result="hardAlpha"/>
<feOffset/>
<feGaussianBlur stdDeviation="5"/>
<feColorMatrix type="matrix" values="0 0 0 0 1 0 0 0 0 0.927583 0 0 0 0 0.670833 0 0 0 1 0"/>
<feBlend mode="normal" in2="BackgroundImageFix" result="effect1_dropShadow"/>
<feBlend mode="normal" in="SourceGraphic" in2="effect1_dropShadow" result="shape"/>
</filter>
<filter id="filter15_i" x="381.493" y="230.486" width="14.0755" height="15.0586" filterUnits="userSpaceOnUse" color-interpolation-filters="sRGB">
<feFlood flood-opacity="0" result="BackgroundImageFix"/>
<feBlend mode="normal" in="SourceGraphic" in2="BackgroundImageFix" result="shape"/>
<feColorMatrix in="SourceAlpha" type="matrix" values="0 0 0 0 0 0 0 0 0 0 0 0 0 0 0 0 0 0 127 0" result="hardAlpha"/>
<feOffset dy="0.983008"/>
<feGaussianBlur stdDeviation="1.96602"/>
<feComposite in2="hardAlpha" operator="arithmetic" k2="-1" k3="1"/>
<feColorMatrix type="matrix" values="0 0 0 0 0.320833 0 0 0 0 0 0 0 0 0 0 0 0 0 0.25 0"/>
<feBlend mode="normal" in2="shape" result="effect1_innerShadow"/>
</filter>
<filter id="filter16_d" x="335.44" y="287.326" width="54.2223" height="54.2223" filterUnits="userSpaceOnUse" color-interpolation-filters="sRGB">
<feFlood flood-opacity="0" result="BackgroundImageFix"/>
<feColorMatrix in="SourceAlpha" type="matrix" values="0 0 0 0 0 0 0 0 0 0 0 0 0 0 0 0 0 0 127 0" result="hardAlpha"/>
<feOffset/>
<feGaussianBlur stdDeviation="5"/>
<feColorMatrix type="matrix" values="0 0 0 0 1 0 0 0 0 0.927583 0 0 0 0 0.670833 0 0 0 1 0"/>
<feBlend mode="normal" in2="BackgroundImageFix" result="effect1_dropShadow"/>
<feBlend mode="normal" in="SourceGraphic" in2="effect1_dropShadow" result="shape"/>
</filter>
<filter id="filter17_i" x="347.914" y="299.799" width="29.2753" height="30.2583" filterUnits="userSpaceOnUse" color-interpolation-filters="sRGB">
<feFlood flood-opacity="0" result="BackgroundImageFix"/>
<feBlend mode="normal" in="SourceGraphic" in2="BackgroundImageFix" result="shape"/>
<feColorMatrix in="SourceAlpha" type="matrix" values="0 0 0 0 0 0 0 0 0 0 0 0 0 0 0 0 0 0 127 0" result="hardAlpha"/>
<feOffset dy="0.983008"/>
<feGaussianBlur stdDeviation="1.96602"/>
<feComposite in2="hardAlpha" operator="arithmetic" k2="-1" k3="1"/>
<feColorMatrix type="matrix" values="0 0 0 0 0.320833 0 0 0 0 0 0 0 0 0 0 0 0 0 0.25 0"/>
<feBlend mode="normal" in2="shape" result="effect1_innerShadow"/>
</filter>
<linearGradient id="paint0_linear" x1="97.3173" y1="137.659" x2="142.362" y2="192.662" gradientUnits="userSpaceOnUse">
<stop stop-color="white"/>
<stop offset="1" stop-color="white" stop-opacity="0"/>
</linearGradient>
<linearGradient id="paint1_linear" x1="307.515" y1="355.165" x2="266.368" y2="310.082" gradientUnits="userSpaceOnUse">
<stop stop-color="white"/>
<stop offset="1" stop-color="white" stop-opacity="0"/>
</linearGradient>
<linearGradient id="paint2_linear" x1="91.3412" y1="365.865" x2="160.193" y2="266.005" gradientUnits="userSpaceOnUse">
<stop stop-color="#97C4FF"/>
<stop offset="1" stop-color="white" stop-opacity="0"/>
</linearGradient>
<linearGradient id="paint3_linear" x1="195.56" y1="63.5528" x2="179.077" y2="146.691" gradientUnits="userSpaceOnUse">
<stop stop-color="#1877F2"/>
<stop offset="1" stop-color="#1877F2" stop-opacity="0"/>
</linearGradient>
<linearGradient id="paint4_linear" x1="275.067" y1="53.0066" x2="262.471" y2="116.542" gradientUnits="userSpaceOnUse">
<stop stop-color="#1877F2"/>
<stop offset="1" stop-color="#1877F2" stop-opacity="0"/>
</linearGradient>
<linearGradient id="paint5_linear" x1="160.446" y1="12.1634" x2="151.019" y2="59.7154" gradientUnits="userSpaceOnUse">
<stop stop-color="#1877F2"/>
<stop offset="1" stop-color="#1877F2" stop-opacity="0"/>
</linearGradient>
<linearGradient id="paint6_linear" x1="95.7635" y1="87.7402" x2="89.8674" y2="117.479" gradientUnits="userSpaceOnUse">
<stop stop-color="#1877F2"/>
<stop offset="1" stop-color="#1877F2" stop-opacity="0"/>
</linearGradient>
<linearGradient id="paint7_linear" x1="344.922" y1="159.489" x2="344.922" y2="197.341" gradientUnits="userSpaceOnUse">
<stop stop-color="#FF4949"/>
<stop offset="1" stop-color="#FF4949" stop-opacity="0"/>
</linearGradient>
<linearGradient id="paint8_linear" x1="352.357" y1="71.2878" x2="352.357" y2="109.14" gradientUnits="userSpaceOnUse">
<stop stop-color="#FF4949"/>
<stop offset="1" stop-color="#FF4949" stop-opacity="0"/>
</linearGradient>
<linearGradient id="paint9_linear" x1="64.766" y1="179.489" x2="64.766" y2="217.341" gradientUnits="userSpaceOnUse">
<stop stop-color="#FF4949"/>
<stop offset="1" stop-color="#FF4949" stop-opacity="0"/>
</linearGradient>
<linearGradient id="paint10_linear" x1="34.3622" y1="141.725" x2="34.3622" y2="171.534" gradientUnits="userSpaceOnUse">
<stop stop-color="#FF4949"/>
<stop offset="1" stop-color="#FF4949" stop-opacity="0"/>
</linearGradient>
<linearGradient id="paint11_linear" x1="40.6039" y1="105.507" x2="40.6039" y2="120.411" gradientUnits="userSpaceOnUse">
<stop stop-color="#FF4949"/>
<stop offset="1" stop-color="#FF4949" stop-opacity="0"/>
</linearGradient>
<linearGradient id="paint12_linear" x1="315.595" y1="106.748" x2="315.595" y2="138.924" gradientUnits="userSpaceOnUse">
<stop stop-color="#FF4949"/>
<stop offset="1" stop-color="#FF4949" stop-opacity="0"/>
</linearGradient>
<linearGradient id="paint13_linear" x1="351.659" y1="129.654" x2="351.659" y2="145.742" gradientUnits="userSpaceOnUse">
<stop stop-color="#FF4949"/>
<stop offset="1" stop-color="#FF4949" stop-opacity="0"/>
</linearGradient>
<linearGradient id="paint14_linear" x1="78.0459" y1="239.21" x2="74.5067" y2="273.91" gradientUnits="userSpaceOnUse">
<stop stop-color="white"/>
<stop offset="1" stop-color="white" stop-opacity="0"/>
</linearGradient>
<linearGradient id="paint15_linear" x1="78.0459" y1="239.21" x2="74.5067" y2="273.91" gradientUnits="userSpaceOnUse">
<stop stop-color="white"/>
<stop offset="1" stop-color="white" stop-opacity="0"/>
</linearGradient>
<linearGradient id="paint16_linear" x1="78.0459" y1="239.21" x2="74.5067" y2="273.91" gradientUnits="userSpaceOnUse">
<stop stop-color="white"/>
<stop offset="1" stop-color="white" stop-opacity="0"/>
</linearGradient>
<linearGradient id="paint17_linear" x1="78.0459" y1="239.21" x2="74.5067" y2="273.91" gradientUnits="userSpaceOnUse">
<stop stop-color="white"/>
<stop offset="1" stop-color="white" stop-opacity="0"/>
</linearGradient>
<linearGradient id="paint18_linear" x1="78.0459" y1="239.21" x2="74.5067" y2="273.91" gradientUnits="userSpaceOnUse">
<stop stop-color="white"/>
<stop offset="1" stop-color="white" stop-opacity="0"/>
</linearGradient>
<linearGradient id="paint19_linear" x1="78.0459" y1="239.21" x2="74.5067" y2="273.91" gradientUnits="userSpaceOnUse">
<stop stop-color="white"/>
<stop offset="1" stop-color="white" stop-opacity="0"/>
</linearGradient>
<linearGradient id="paint20_linear" x1="78.0459" y1="239.21" x2="74.5067" y2="273.91" gradientUnits="userSpaceOnUse">
<stop stop-color="white"/>
<stop offset="1" stop-color="white" stop-opacity="0"/>
</linearGradient>
<linearGradient id="paint21_linear" x1="78.0459" y1="239.21" x2="74.5067" y2="273.91" gradientUnits="userSpaceOnUse">
<stop stop-color="white"/>
<stop offset="1" stop-color="white" stop-opacity="0"/>
</linearGradient>
<linearGradient id="paint22_linear" x1="78.0459" y1="239.21" x2="74.5067" y2="273.91" gradientUnits="userSpaceOnUse">
<stop stop-color="white"/>
<stop offset="1" stop-color="white" stop-opacity="0"/>
</linearGradient>
<linearGradient id="paint23_linear" x1="352.108" y1="236.205" x2="348.569" y2="270.905" gradientUnits="userSpaceOnUse">
<stop stop-color="white"/>
<stop offset="1" stop-color="white" stop-opacity="0"/>
</linearGradient>
<linearGradient id="paint24_linear" x1="352.108" y1="236.205" x2="348.569" y2="270.905" gradientUnits="userSpaceOnUse">
<stop stop-color="white"/>
<stop offset="1" stop-color="white" stop-opacity="0"/>
</linearGradient>
<linearGradient id="paint25_linear" x1="352.108" y1="236.205" x2="348.569" y2="270.905" gradientUnits="userSpaceOnUse">
<stop stop-color="white"/>
<stop offset="1" stop-color="white" stop-opacity="0"/>
</linearGradient>
<linearGradient id="paint26_linear" x1="352.108" y1="236.205" x2="348.569" y2="270.905" gradientUnits="userSpaceOnUse">
<stop stop-color="white"/>
<stop offset="1" stop-color="white" stop-opacity="0"/>
</linearGradient>
<linearGradient id="paint27_linear" x1="352.108" y1="236.205" x2="348.569" y2="270.905" gradientUnits="userSpaceOnUse">
<stop stop-color="white"/>
<stop offset="1" stop-color="white" stop-opacity="0"/>
</linearGradient>
<linearGradient id="paint28_linear" x1="352.108" y1="236.205" x2="348.569" y2="270.905" gradientUnits="userSpaceOnUse">
<stop stop-color="white"/>
<stop offset="1" stop-color="white" stop-opacity="0"/>
</linearGradient>
<linearGradient id="paint29_linear" x1="352.108" y1="236.205" x2="348.569" y2="270.905" gradientUnits="userSpaceOnUse">
<stop stop-color="white"/>
<stop offset="1" stop-color="white" stop-opacity="0"/>
</linearGradient>
<linearGradient id="paint30_linear" x1="352.108" y1="236.205" x2="348.569" y2="270.905" gradientUnits="userSpaceOnUse">
<stop stop-color="white"/>
<stop offset="1" stop-color="white" stop-opacity="0"/>
</linearGradient>
<linearGradient id="paint31_linear" x1="352.108" y1="236.206" x2="348.569" y2="270.905" gradientUnits="userSpaceOnUse">
<stop stop-color="white"/>
<stop offset="1" stop-color="white" stop-opacity="0"/>
</linearGradient>
<linearGradient id="paint32_linear" x1="87.2082" y1="309.441" x2="82.5531" y2="355.08" gradientUnits="userSpaceOnUse">
<stop stop-color="white"/>
<stop offset="1" stop-color="white" stop-opacity="0"/>
</linearGradient>
<linearGradient id="paint33_linear" x1="87.2082" y1="309.441" x2="82.5531" y2="355.08" gradientUnits="userSpaceOnUse">
<stop stop-color="white"/>
<stop offset="1" stop-color="white" stop-opacity="0"/>
</linearGradient>
<linearGradient id="paint34_linear" x1="87.2082" y1="309.441" x2="82.5531" y2="355.08" gradientUnits="userSpaceOnUse">
<stop stop-color="white"/>
<stop offset="1" stop-color="white" stop-opacity="0"/>
</linearGradient>
<linearGradient id="paint35_linear" x1="87.2082" y1="309.441" x2="82.5531" y2="355.08" gradientUnits="userSpaceOnUse">
<stop stop-color="white"/>
<stop offset="1" stop-color="white" stop-opacity="0"/>
</linearGradient>
<linearGradient id="paint36_linear" x1="87.2082" y1="309.441" x2="82.5531" y2="355.08" gradientUnits="userSpaceOnUse">
<stop stop-color="white"/>
<stop offset="1" stop-color="white" stop-opacity="0"/>
</linearGradient>
<linearGradient id="paint37_linear" x1="87.2082" y1="309.441" x2="82.5531" y2="355.08" gradientUnits="userSpaceOnUse">
<stop stop-color="white"/>
<stop offset="1" stop-color="white" stop-opacity="0"/>
</linearGradient>
<linearGradient id="paint38_linear" x1="87.2082" y1="309.441" x2="82.5531" y2="355.08" gradientUnits="userSpaceOnUse">
<stop stop-color="white"/>
<stop offset="1" stop-color="white" stop-opacity="0"/>
</linearGradient>
<linearGradient id="paint39_linear" x1="87.2082" y1="309.441" x2="82.5531" y2="355.08" gradientUnits="userSpaceOnUse">
<stop stop-color="white"/>
<stop offset="1" stop-color="white" stop-opacity="0"/>
</linearGradient>
<linearGradient id="paint40_linear" x1="87.2082" y1="309.441" x2="82.5531" y2="355.08" gradientUnits="userSpaceOnUse">
<stop stop-color="white"/>
<stop offset="1" stop-color="white" stop-opacity="0"/>
</linearGradient>
<linearGradient id="paint41_linear" x1="323.985" y1="329.811" x2="291.472" y2="362.176" gradientUnits="userSpaceOnUse">
<stop stop-color="white"/>
<stop offset="1" stop-color="white" stop-opacity="0"/>
</linearGradient>
<linearGradient id="paint42_linear" x1="323.985" y1="329.811" x2="291.472" y2="362.176" gradientUnits="userSpaceOnUse">
<stop stop-color="white"/>
<stop offset="1" stop-color="white" stop-opacity="0"/>
</linearGradient>
<linearGradient id="paint43_linear" x1="323.985" y1="329.811" x2="291.472" y2="362.176" gradientUnits="userSpaceOnUse">
<stop stop-color="white"/>
<stop offset="1" stop-color="white" stop-opacity="0"/>
</linearGradient>
<linearGradient id="paint44_linear" x1="323.985" y1="329.811" x2="291.472" y2="362.176" gradientUnits="userSpaceOnUse">
<stop stop-color="white"/>
<stop offset="1" stop-color="white" stop-opacity="0"/>
</linearGradient>
<linearGradient id="paint45_linear" x1="323.985" y1="329.811" x2="291.472" y2="362.176" gradientUnits="userSpaceOnUse">
<stop stop-color="white"/>
<stop offset="1" stop-color="white" stop-opacity="0"/>
</linearGradient>
<linearGradient id="paint46_linear" x1="323.985" y1="329.811" x2="291.472" y2="362.176" gradientUnits="userSpaceOnUse">
<stop stop-color="white"/>
<stop offset="1" stop-color="white" stop-opacity="0"/>
</linearGradient>
<linearGradient id="paint47_linear" x1="323.985" y1="329.811" x2="291.472" y2="362.176" gradientUnits="userSpaceOnUse">
<stop stop-color="white"/>
<stop offset="1" stop-color="white" stop-opacity="0"/>
</linearGradient>
<linearGradient id="paint48_linear" x1="323.985" y1="329.811" x2="291.472" y2="362.176" gradientUnits="userSpaceOnUse">
<stop stop-color="white"/>
<stop offset="1" stop-color="white" stop-opacity="0"/>
</linearGradient>
<linearGradient id="paint49_linear" x1="323.985" y1="329.811" x2="291.472" y2="362.177" gradientUnits="userSpaceOnUse">
<stop stop-color="white"/>
<stop offset="1" stop-color="white" stop-opacity="0"/>
</linearGradient>
<linearGradient id="paint50_linear" x1="39.8177" y1="282.288" x2="27.8386" y2="307.415" gradientUnits="userSpaceOnUse">
<stop stop-color="white"/>
<stop offset="1" stop-color="white" stop-opacity="0"/>
</linearGradient>
<linearGradient id="paint51_linear" x1="39.8177" y1="282.288" x2="27.8386" y2="307.415" gradientUnits="userSpaceOnUse">
<stop stop-color="white"/>
<stop offset="1" stop-color="white" stop-opacity="0"/>
</linearGradient>
<linearGradient id="paint52_linear" x1="39.8177" y1="282.288" x2="27.8386" y2="307.415" gradientUnits="userSpaceOnUse">
<stop stop-color="white"/>
<stop offset="1" stop-color="white" stop-opacity="0"/>
</linearGradient>
<linearGradient id="paint53_linear" x1="39.8177" y1="282.288" x2="27.8386" y2="307.415" gradientUnits="userSpaceOnUse">
<stop stop-color="white"/>
<stop offset="1" stop-color="white" stop-opacity="0"/>
</linearGradient>
<linearGradient id="paint54_linear" x1="39.8177" y1="282.288" x2="27.8386" y2="307.415" gradientUnits="userSpaceOnUse">
<stop stop-color="white"/>
<stop offset="1" stop-color="white" stop-opacity="0"/>
</linearGradient>
<linearGradient id="paint55_linear" x1="39.8177" y1="282.288" x2="27.8386" y2="307.415" gradientUnits="userSpaceOnUse">
<stop stop-color="white"/>
<stop offset="1" stop-color="white" stop-opacity="0"/>
</linearGradient>
<linearGradient id="paint56_linear" x1="39.8177" y1="282.288" x2="27.8386" y2="307.415" gradientUnits="userSpaceOnUse">
<stop stop-color="white"/>
<stop offset="1" stop-color="white" stop-opacity="0"/>
</linearGradient>
<linearGradient id="paint57_linear" x1="39.8177" y1="282.288" x2="27.8386" y2="307.415" gradientUnits="userSpaceOnUse">
<stop stop-color="white"/>
<stop offset="1" stop-color="white" stop-opacity="0"/>
</linearGradient>
<linearGradient id="paint58_linear" x1="39.8177" y1="282.287" x2="27.8386" y2="307.415" gradientUnits="userSpaceOnUse">
<stop stop-color="white"/>
<stop offset="1" stop-color="white" stop-opacity="0"/>
</linearGradient>
<linearGradient id="paint59_linear" x1="30.3958" y1="216.628" x2="24.1873" y2="229.651" gradientUnits="userSpaceOnUse">
<stop stop-color="white"/>
<stop offset="1" stop-color="white" stop-opacity="0"/>
</linearGradient>
<linearGradient id="paint60_linear" x1="30.3958" y1="216.628" x2="24.1873" y2="229.651" gradientUnits="userSpaceOnUse">
<stop stop-color="white"/>
<stop offset="1" stop-color="white" stop-opacity="0"/>
</linearGradient>
<linearGradient id="paint61_linear" x1="30.3958" y1="216.628" x2="24.1873" y2="229.651" gradientUnits="userSpaceOnUse">
<stop stop-color="white"/>
<stop offset="1" stop-color="white" stop-opacity="0"/>
</linearGradient>
<linearGradient id="paint62_linear" x1="30.3958" y1="216.628" x2="24.1873" y2="229.651" gradientUnits="userSpaceOnUse">
<stop stop-color="white"/>
<stop offset="1" stop-color="white" stop-opacity="0"/>
</linearGradient>
<linearGradient id="paint63_linear" x1="30.3958" y1="216.628" x2="24.1873" y2="229.651" gradientUnits="userSpaceOnUse">
<stop stop-color="white"/>
<stop offset="1" stop-color="white" stop-opacity="0"/>
</linearGradient>
<linearGradient id="paint64_linear" x1="30.3958" y1="216.628" x2="24.1873" y2="229.651" gradientUnits="userSpaceOnUse">
<stop stop-color="white"/>
<stop offset="1" stop-color="white" stop-opacity="0"/>
</linearGradient>
<linearGradient id="paint65_linear" x1="30.3958" y1="216.628" x2="24.1873" y2="229.651" gradientUnits="userSpaceOnUse">
<stop stop-color="white"/>
<stop offset="1" stop-color="white" stop-opacity="0"/>
</linearGradient>
<linearGradient id="paint66_linear" x1="30.3958" y1="216.628" x2="24.1873" y2="229.651" gradientUnits="userSpaceOnUse">
<stop stop-color="white"/>
<stop offset="1" stop-color="white" stop-opacity="0"/>
</linearGradient>
<linearGradient id="paint67_linear" x1="30.3958" y1="216.628" x2="24.1873" y2="229.651" gradientUnits="userSpaceOnUse">
<stop stop-color="white"/>
<stop offset="1" stop-color="white" stop-opacity="0"/>
</linearGradient>
<linearGradient id="paint68_linear" x1="394.996" y1="230.464" x2="388.787" y2="243.487" gradientUnits="userSpaceOnUse">
<stop stop-color="white"/>
<stop offset="1" stop-color="white" stop-opacity="0"/>
</linearGradient>
<linearGradient id="paint69_linear" x1="394.996" y1="230.464" x2="388.787" y2="243.487" gradientUnits="userSpaceOnUse">
<stop stop-color="white"/>
<stop offset="1" stop-color="white" stop-opacity="0"/>
</linearGradient>
<linearGradient id="paint70_linear" x1="394.996" y1="230.464" x2="388.787" y2="243.487" gradientUnits="userSpaceOnUse">
<stop stop-color="white"/>
<stop offset="1" stop-color="white" stop-opacity="0"/>
</linearGradient>
<linearGradient id="paint71_linear" x1="394.996" y1="230.464" x2="388.787" y2="243.487" gradientUnits="userSpaceOnUse">
<stop stop-color="white"/>
<stop offset="1" stop-color="white" stop-opacity="0"/>
</linearGradient>
<linearGradient id="paint72_linear" x1="394.996" y1="230.464" x2="388.787" y2="243.487" gradientUnits="userSpaceOnUse">
<stop stop-color="white"/>
<stop offset="1" stop-color="white" stop-opacity="0"/>
</linearGradient>
<linearGradient id="paint73_linear" x1="394.996" y1="230.464" x2="388.787" y2="243.487" gradientUnits="userSpaceOnUse">
<stop stop-color="white"/>
<stop offset="1" stop-color="white" stop-opacity="0"/>
</linearGradient>
<linearGradient id="paint74_linear" x1="394.996" y1="230.464" x2="388.787" y2="243.487" gradientUnits="userSpaceOnUse">
<stop stop-color="white"/>
<stop offset="1" stop-color="white" stop-opacity="0"/>
</linearGradient>
<linearGradient id="paint75_linear" x1="394.996" y1="230.464" x2="388.787" y2="243.487" gradientUnits="userSpaceOnUse">
<stop stop-color="white"/>
<stop offset="1" stop-color="white" stop-opacity="0"/>
</linearGradient>
<linearGradient id="paint76_linear" x1="394.996" y1="230.464" x2="388.787" y2="243.487" gradientUnits="userSpaceOnUse">
<stop stop-color="white"/>
<stop offset="1" stop-color="white" stop-opacity="0"/>
</linearGradient>
<linearGradient id="paint77_linear" x1="375.025" y1="300.817" x2="363.046" y2="325.944" gradientUnits="userSpaceOnUse">
<stop stop-color="white"/>
<stop offset="1" stop-color="white" stop-opacity="0"/>
</linearGradient>
<linearGradient id="paint78_linear" x1="375.025" y1="300.817" x2="363.046" y2="325.944" gradientUnits="userSpaceOnUse">
<stop stop-color="white"/>
<stop offset="1" stop-color="white" stop-opacity="0"/>
</linearGradient>
<linearGradient id="paint79_linear" x1="375.025" y1="300.817" x2="363.046" y2="325.944" gradientUnits="userSpaceOnUse">
<stop stop-color="white"/>
<stop offset="1" stop-color="white" stop-opacity="0"/>
</linearGradient>
<linearGradient id="paint80_linear" x1="375.025" y1="300.817" x2="363.046" y2="325.944" gradientUnits="userSpaceOnUse">
<stop stop-color="white"/>
<stop offset="1" stop-color="white" stop-opacity="0"/>
</linearGradient>
<linearGradient id="paint81_linear" x1="375.025" y1="300.817" x2="363.046" y2="325.944" gradientUnits="userSpaceOnUse">
<stop stop-color="white"/>
<stop offset="1" stop-color="white" stop-opacity="0"/>
</linearGradient>
<linearGradient id="paint82_linear" x1="375.025" y1="300.817" x2="363.046" y2="325.944" gradientUnits="userSpaceOnUse">
<stop stop-color="white"/>
<stop offset="1" stop-color="white" stop-opacity="0"/>
</linearGradient>
<linearGradient id="paint83_linear" x1="375.025" y1="300.817" x2="363.046" y2="325.944" gradientUnits="userSpaceOnUse">
<stop stop-color="white"/>
<stop offset="1" stop-color="white" stop-opacity="0"/>
</linearGradient>
<linearGradient id="paint84_linear" x1="375.025" y1="300.817" x2="363.046" y2="325.944" gradientUnits="userSpaceOnUse">
<stop stop-color="white"/>
<stop offset="1" stop-color="white" stop-opacity="0"/>
</linearGradient>
<linearGradient id="paint85_linear" x1="375.025" y1="300.817" x2="363.046" y2="325.944" gradientUnits="userSpaceOnUse">
<stop stop-color="white"/>
<stop offset="1" stop-color="white" stop-opacity="0"/>
</linearGradient>
</defs>
</svg>
