<svg width="52" height="52" viewBox="0 0 52 52" fill="none" xmlns="http://www.w3.org/2000/svg">
<rect x="1.50453" y="1.29585" width="49.4" height="49.4" rx="24.7" fill="#55ACEE" stroke="white" stroke-width="1.4"/>
<path fill-rule="evenodd" clip-rule="evenodd" d="M26.8797 22.9165L26.9256 23.6733L26.1607 23.5806C23.3762 23.2254 20.9436 22.0206 18.8781 19.9972L17.8684 18.9932L17.6083 19.7346C17.0575 21.3873 17.4094 23.1327 18.5568 24.3066C19.1688 24.9553 19.0311 25.048 17.9755 24.6618C17.6083 24.5383 17.287 24.4456 17.2564 24.4919C17.1493 24.6 17.5165 26.0056 17.8072 26.5617C18.205 27.3339 19.0158 28.0908 19.9032 28.5387L20.6529 28.894L19.7655 28.9094C18.9087 28.9094 18.8781 28.9249 18.9699 29.2492C19.2759 30.2532 20.4846 31.3189 21.8309 31.7823L22.7795 32.1067L21.9533 32.6009C20.7294 33.3114 19.2912 33.713 17.8531 33.7439C17.1646 33.7594 16.5985 33.8212 16.5985 33.8675C16.5985 34.0219 18.465 34.8869 19.5513 35.2267C22.8101 36.2307 26.6808 35.7982 29.5877 34.0837C31.6532 32.8635 33.7186 30.4385 34.6824 28.0908C35.2026 26.8397 35.7228 24.5537 35.7228 23.4571C35.7228 22.7466 35.7687 22.6539 36.6255 21.8044C37.1304 21.3101 37.6046 20.7695 37.6964 20.615C37.8494 20.3216 37.8341 20.3216 37.0539 20.5841C35.7534 21.0475 35.5698 20.9857 36.2124 20.2907C36.6867 19.7964 37.2528 18.9006 37.2528 18.638C37.2528 18.5916 37.0233 18.6689 36.7632 18.8079C36.4878 18.9623 35.8758 19.194 35.4168 19.333L34.5907 19.5956L33.841 19.0859C33.4279 18.8079 32.8465 18.499 32.5405 18.4063C31.7603 18.1901 30.5669 18.2209 29.8631 18.4681C27.9507 19.1631 26.742 20.9548 26.8797 22.9165Z" fill="white"/>
</svg>
