<svg width="297" height="297" viewBox="0 0 297 297" fill="none" xmlns="http://www.w3.org/2000/svg">
<circle cx="148.228" cy="148.179" r="140.898" stroke="#D6D6E8" stroke-width="14.0001"/>
<circle cx="148.224" cy="148.692" r="134.401" fill="#D6D6E8"/>
<path fill-rule="evenodd" clip-rule="evenodd" d="M148.218 15.7305V150.132L13.8171 150.132C13.8171 75.9041 73.9905 15.7306 148.218 15.7305Z" fill="#FF0000"/>
<path fill-rule="evenodd" clip-rule="evenodd" d="M148.218 284.533V150.132L13.8169 150.132C13.8169 224.36 73.9902 284.533 148.218 284.533Z" fill="#1967FF"/>
<path fill-rule="evenodd" clip-rule="evenodd" d="M149.35 15.7305C223.578 15.7305 283.751 75.904 283.751 150.132L149.35 150.132L149.35 15.7305Z" fill="#55ACEE"/>
<path fill-rule="evenodd" clip-rule="evenodd" d="M149.35 284.533C223.578 284.533 283.751 224.36 283.751 150.132L149.35 150.132L149.35 284.533Z" fill="#8621B0"/>
<g opacity="0.9">
<path fill-rule="evenodd" clip-rule="evenodd" d="M93.7606 68.6172C95.8501 69.1906 97.4956 70.88 98.054 73.0253C99.0688 76.9136 99.0688 85.0265 99.0688 85.0265C99.0688 85.0265 99.0688 93.139 98.054 97.0276C97.4956 99.173 95.8501 100.862 93.7606 101.436C89.974 102.478 74.7888 102.478 74.7888 102.478C74.7888 102.478 59.6036 102.478 55.8167 101.436C53.7273 100.862 52.0817 99.173 51.5233 97.0276C50.5088 93.139 50.5088 85.0265 50.5088 85.0265C50.5088 85.0265 50.5088 76.9136 51.5233 73.0253C52.0817 70.88 53.7273 69.1906 55.8167 68.6172C59.6036 67.5752 74.7888 67.5752 74.7888 67.5752C74.7888 67.5752 89.974 67.5752 93.7606 68.6172ZM70.2375 78.1924V93.3674L82.3775 85.7802L70.2375 78.1924Z" fill="white"/>
</g>
<path opacity="0.9" fill-rule="evenodd" clip-rule="evenodd" d="M217.06 188.393C211.629 188.393 210.947 188.416 208.814 188.513C206.685 188.611 205.231 188.948 203.96 189.443C202.644 189.953 201.529 190.637 200.417 191.749C199.305 192.86 198.621 193.976 198.109 195.291C197.613 196.563 197.276 198.017 197.18 200.145C197.084 202.278 197.059 202.96 197.059 208.392C197.059 213.823 197.083 214.503 197.18 216.636C197.278 218.765 197.615 220.218 198.109 221.49C198.621 222.805 199.304 223.921 200.416 225.033C201.527 226.145 202.643 226.83 203.957 227.341C205.23 227.835 206.683 228.172 208.812 228.27C210.945 228.367 211.627 228.391 217.058 228.391C222.489 228.391 223.169 228.367 225.302 228.27C227.431 228.172 228.886 227.835 230.159 227.341C231.474 226.83 232.588 226.145 233.699 225.033C234.811 223.921 235.495 222.805 236.007 221.49C236.499 220.218 236.836 218.764 236.936 216.636C237.032 214.503 237.057 213.823 237.057 208.392C237.057 202.96 237.032 202.279 236.936 200.145C236.836 198.016 236.499 196.563 236.007 195.291C235.495 193.976 234.811 192.86 233.699 191.749C232.586 190.636 231.474 189.953 230.157 189.443C228.882 188.948 227.428 188.611 225.299 188.513C223.166 188.416 222.487 188.393 217.054 188.393H217.06ZM215.263 191.999C215.795 191.998 216.389 191.999 217.057 191.999C222.397 191.999 223.03 192.018 225.138 192.114C227.088 192.203 228.146 192.529 228.851 192.803C229.785 193.165 230.45 193.598 231.15 194.298C231.85 194.998 232.283 195.665 232.646 196.598C232.92 197.302 233.246 198.361 233.335 200.311C233.431 202.419 233.452 203.052 233.452 208.389C233.452 213.727 233.431 214.36 233.335 216.468C233.246 218.418 232.92 219.476 232.646 220.18C232.284 221.114 231.85 221.778 231.15 222.478C230.45 223.178 229.785 223.611 228.851 223.974C228.147 224.249 227.088 224.574 225.138 224.663C223.03 224.759 222.397 224.779 217.057 224.779C211.717 224.779 211.084 224.759 208.976 224.663C207.026 224.573 205.967 224.247 205.262 223.973C204.329 223.611 203.662 223.177 202.962 222.477C202.262 221.777 201.829 221.112 201.466 220.179C201.192 219.475 200.866 218.416 200.777 216.466C200.681 214.358 200.662 213.725 200.662 208.384C200.662 203.044 200.681 202.414 200.777 200.306C200.866 198.356 201.192 197.297 201.466 196.592C201.828 195.659 202.262 194.992 202.962 194.293C203.662 193.593 204.329 193.159 205.262 192.796C205.967 192.521 207.026 192.196 208.976 192.106C210.821 192.023 211.536 191.998 215.263 191.994V191.999ZM227.74 195.317C226.415 195.317 225.34 196.39 225.34 197.716C225.34 199.041 226.415 200.115 227.74 200.115C229.064 200.115 230.139 199.041 230.139 197.716C230.139 196.391 229.064 195.316 227.74 195.316V195.317ZM217.063 198.124C211.391 198.124 206.793 202.723 206.793 208.394C206.793 214.066 211.391 218.663 217.063 218.663C222.735 218.663 227.332 214.066 227.332 208.394C227.332 202.723 222.735 198.124 217.063 198.124H217.063ZM217.059 201.724C220.74 201.724 223.725 204.708 223.725 208.39C223.725 212.072 220.74 215.057 217.059 215.057C213.377 215.057 210.393 212.072 210.393 208.39C210.393 204.708 213.377 201.724 217.059 201.724Z" fill="white"/>
<path opacity="0.9" fill-rule="evenodd" clip-rule="evenodd" d="M220.508 76.9006L220.6 78.4028L219.055 78.2188C213.428 77.5138 208.512 75.1226 204.339 71.1067L202.298 69.114L201.773 70.5855C200.66 73.8657 201.371 77.3298 203.69 79.6597C204.926 80.9472 204.648 81.1312 202.515 80.3648C201.773 80.1195 201.124 79.9356 201.062 80.0275C200.845 80.2421 201.587 83.0318 202.175 84.1354C202.979 85.6682 204.617 87.1704 206.41 88.0594L207.925 88.7645L206.132 88.7951C204.401 88.7951 204.339 88.8258 204.524 89.4696C205.143 91.4622 207.585 93.5775 210.305 94.4971L212.222 95.1409L210.553 96.1219C208.08 97.5321 205.174 98.3291 202.267 98.3904C200.876 98.4211 199.732 98.5437 199.732 98.6357C199.732 98.9422 203.504 100.659 205.699 101.333C212.284 103.326 220.106 102.468 225.98 99.0649C230.153 96.6431 234.327 91.8301 236.274 87.1704C237.326 84.6872 238.377 80.1502 238.377 77.9736C238.377 76.5634 238.469 76.3795 240.201 74.6934C241.221 73.7124 242.179 72.6395 242.365 72.3329C242.674 71.7505 242.643 71.7505 241.066 72.2716C238.439 73.1913 238.068 73.0687 239.366 71.6891C240.324 70.7081 241.468 68.9301 241.468 68.409C241.468 68.317 241.005 68.4703 240.479 68.7462C239.922 69.0527 238.686 69.5126 237.758 69.7885L236.089 70.3096L234.574 69.298C233.739 68.7462 232.565 68.1331 231.946 67.9491C230.37 67.5199 227.958 67.5812 226.536 68.0717C222.672 69.4513 220.229 73.0073 220.508 76.9006Z" fill="white"/>
<g opacity="0.9">
<path fill-rule="evenodd" clip-rule="evenodd" d="M78.4795 227.602V208.389H84.3419L85.1188 201.768H78.4795L78.4894 198.454C78.4894 196.728 78.6708 195.802 81.4123 195.802H85.0773V189.181H79.214C72.1713 189.181 69.6925 192.393 69.6925 197.794V201.769H65.3025V208.39H69.6925V227.602H78.4795Z" fill="white"/>
</g>
<g style="mix-blend-mode:multiply">
<path d="M283.286 152.156C283.286 226.937 222.814 287.559 148.218 287.559C73.6216 287.559 13.1494 226.937 13.1494 152.156C13.1494 77.376 73.6216 16.7544 148.218 16.7544C222.814 16.7544 283.286 77.376 283.286 152.156Z" fill="url(#paint0_radial)"/>
</g>
<circle cx="148.218" cy="152.157" r="53.2318" fill="#00CC9E" stroke="white" stroke-width="6"/>
<defs>
<radialGradient id="paint0_radial" cx="0" cy="0" r="1" gradientUnits="userSpaceOnUse" gradientTransform="translate(148.218 152.156) rotate(90) scale(180.044 179.601)">
<stop offset="0.661523" stop-color="white"/>
<stop offset="0.856086" stop-color="#424479"/>
</radialGradient>
</defs>
</svg>
