<svg width="408" height="438" viewBox="0 0 408 438" fill="none" xmlns="http://www.w3.org/2000/svg">
<path d="M174.677 10.4125C173.823 8.38059 172.582 6.53371 171.022 4.97481C169.467 3.41319 167.619 2.17161 165.584 1.32057C163.5 0.444507 161.26 -0.00456249 158.998 3.4946e-05H158.922C156.622 0.0114189 154.397 0.466776 152.302 1.36231C150.284 2.22208 148.454 3.46586 146.913 5.02414C145.368 6.57954 144.142 8.41996 143.301 10.4429C142.428 12.5465 141.986 14.803 142 17.0797C142.012 19.7132 142.643 22.3277 143.822 24.6652V30.433C143.822 31.3969 144.605 32.1786 145.567 32.1786H151.34C153.693 33.3636 156.29 33.9871 158.926 34H159.006C161.28 34 163.482 33.5598 165.558 32.6984C167.582 31.8575 169.423 30.6304 170.977 29.0859C172.543 27.5339 173.775 25.7201 174.639 23.6976C175.532 21.6029 175.988 19.3755 176 17.0759C176.008 14.765 175.559 12.5223 174.677 10.4125ZM151.408 18.8214C150.404 18.8214 149.587 18.0056 149.587 17C149.587 15.9944 150.404 15.1786 151.408 15.1786C152.412 15.1786 153.23 15.9944 153.23 17C153.23 18.0056 152.416 18.8214 151.408 18.8214ZM158.998 18.8214C157.994 18.8214 157.177 18.0056 157.177 17C157.177 15.9944 157.994 15.1786 158.998 15.1786C160.002 15.1786 160.82 15.9944 160.82 17C160.82 18.0056 160.002 18.8214 158.998 18.8214ZM166.588 18.8214C165.584 18.8214 164.767 18.0056 164.767 17C164.767 15.9944 165.584 15.1786 166.588 15.1786C167.592 15.1786 168.41 15.9944 168.41 17C168.41 18.0056 167.592 18.8214 166.588 18.8214Z" fill="url(#paint0_linear)"/>
<g filter="url(#filter0_dii)">
<rect x="83.5651" y="131.378" width="218.728" height="218.728" rx="35" fill="#40B3E0"/>
</g>
<path d="M119.718 151.006V151.006C109.103 151.006 100.499 159.611 100.499 170.225V170.225" stroke="white" stroke-width="12" stroke-linecap="round"/>
<g style="mix-blend-mode:overlay">
<path fill-rule="evenodd" clip-rule="evenodd" d="M94.3072 170.006C94.3072 156.199 105.5 145.006 119.307 145.006H164.687C168 145.006 170.687 147.692 170.687 151.006C170.687 154.32 168 157.006 164.687 157.006H119.307C112.128 157.006 106.307 162.826 106.307 170.006V215.385C106.307 218.699 103.621 221.385 100.307 221.385C96.9935 221.385 94.3072 218.699 94.3072 215.385V170.006Z" fill="url(#paint1_linear)"/>
</g>
<g style="mix-blend-mode:overlay">
<path fill-rule="evenodd" clip-rule="evenodd" d="M290.796 314.195C290.796 328.002 279.603 339.195 265.796 339.195H220.416C217.102 339.195 214.416 336.509 214.416 333.195C214.416 329.881 217.102 327.195 220.416 327.195H265.796C272.975 327.195 278.796 321.375 278.796 314.195V268.815C278.796 265.502 281.482 262.815 284.796 262.815C288.109 262.815 290.796 265.502 290.796 268.815V314.195Z" fill="url(#paint2_linear)"/>
</g>
<g style="mix-blend-mode:overlay">
<path fill-rule="evenodd" clip-rule="evenodd" d="M94.3072 294.131C94.3072 319.976 110.364 339.73 136.209 339.73L276.808 339.73C283.011 339.73 288.039 334.702 288.039 328.499C288.039 322.297 294.242 183.657 288.039 183.657L250.381 207.991C236.941 207.991 226.047 197.096 226.047 183.657L116.769 207.991C116.769 201.788 111.741 196.76 105.538 196.76C99.3355 196.76 94.3072 201.788 94.3072 207.991V294.131Z" fill="url(#paint3_linear)"/>
</g>
<path d="M259 188.251L237.015 299.005C237.015 299.005 233.941 306.685 225.486 302.999L174.754 264.135L156.307 255.226L125.253 244.78C125.253 244.78 120.488 243.091 120.026 239.404C119.564 235.718 125.407 233.721 125.407 233.721L248.852 185.334C248.852 185.334 258.999 180.879 258.999 188.253" fill="white"/>
<path d="M170.58 298C170.58 298 169.096 297.862 167.245 292.024C165.398 286.187 156 255.468 156 255.468L230.717 208.161C230.717 208.161 235.031 205.549 234.877 208.161C234.877 208.161 235.647 208.622 233.335 210.772C231.025 212.923 174.641 263.456 174.641 263.456" fill="#D2E5F1"/>
<path d="M194 279.141L174.236 297.315C174.236 297.315 172.69 298.497 171 297.756L174.785 264" fill="#B5CFE4"/>
<g opacity="0.5" filter="url(#filter1_d)">
<path d="M396.497 239.374C396.128 243.902 392.157 247.274 387.629 246.904C383.101 246.535 379.729 242.564 380.099 238.036C380.468 233.507 384.439 230.136 388.967 230.505C393.496 230.875 396.867 234.845 396.497 239.374Z" fill="#FFBE5E"/>
<g filter="url(#filter2_i)">
<path d="M385.19 236.776L385.16 236.774C385.864 235.63 387.171 234.913 388.602 235.03C389.525 235.105 390.34 235.514 390.94 236.129L390.962 236.13L392.427 236.25C391.659 234.962 390.301 234.052 388.692 233.921C386.238 233.72 384.064 235.404 383.595 237.763L386.683 238.014L386.593 239.124L383.504 238.872L383.504 238.88C383.518 239.266 383.578 239.642 383.679 240.003L386.502 240.233L386.272 243.056C386.613 243.215 386.977 243.336 387.359 243.412L387.611 240.324L388.72 240.414L388.468 243.503C388.857 243.49 389.236 243.43 389.599 243.328L389.829 240.504L392.652 240.735C392.887 240.232 393.038 239.68 393.085 239.095C393.133 238.51 393.074 237.941 392.924 237.407L392.267 237.354L385.19 236.776ZM388.811 239.305L387.702 239.214L387.792 238.105L388.901 238.196L388.811 239.305ZM391.89 239.556L389.92 239.395L390.011 238.286L391.98 238.447C391.993 238.63 391.992 238.816 391.977 239.005C391.961 239.193 391.932 239.377 391.89 239.556Z" fill="#F4A837"/>
<path d="M388.87 231.69C384.997 231.374 381.6 234.259 381.284 238.132C380.968 242.006 383.852 245.403 387.726 245.719C391.6 246.035 394.996 243.151 395.312 239.277C395.628 235.403 392.744 232.007 388.87 231.69ZM387.816 244.608C384.556 244.342 382.129 241.483 382.395 238.223C382.661 234.963 385.52 232.536 388.78 232.802C392.04 233.068 394.467 235.926 394.201 239.186C393.935 242.446 391.077 244.874 387.816 244.608Z" fill="#F4A837"/>
</g>
<path fill-rule="evenodd" clip-rule="evenodd" d="M388.623 231.1C388.637 230.928 388.789 230.799 388.961 230.814C391 230.98 392.8 231.893 394.112 233.261C394.232 233.386 394.228 233.585 394.103 233.704C393.978 233.824 393.78 233.82 393.66 233.695C392.449 232.433 390.791 231.592 388.91 231.438C388.738 231.424 388.609 231.273 388.623 231.1Z" fill="white"/>
<path fill-rule="evenodd" clip-rule="evenodd" d="M387.388 246.243C387.374 246.415 387.502 246.567 387.675 246.581C388.434 246.643 389.177 246.597 389.889 246.457C390.059 246.423 390.17 246.258 390.136 246.089C390.103 245.919 389.938 245.808 389.768 245.842C389.112 245.971 388.426 246.013 387.726 245.956C387.553 245.942 387.402 246.07 387.388 246.243Z" fill="white"/>
<g style="mix-blend-mode:overlay">
<path d="M381.728 233.786C382.618 232.596 383.819 231.661 385.201 231.094L386.153 232.01C384.73 232.472 383.494 233.378 382.624 234.576L381.728 233.786Z" fill="url(#paint4_linear)"/>
<path d="M392.286 243.108C393.246 242.243 393.927 241.066 394.159 239.718L393.126 238.724C393.125 238.848 393.12 238.972 393.11 239.097C393.062 239.682 392.911 240.234 392.677 240.737L389.854 240.507L389.819 240.93L392.286 243.108Z" fill="url(#paint5_linear)"/>
<path d="M393.126 243.85C394.048 242.99 394.741 241.882 395.096 240.621L396.045 241.534C395.609 242.726 394.908 243.782 394.018 244.637L393.126 243.85Z" fill="url(#paint6_linear)"/>
<path d="M387.894 239.23L387.737 239.091L387.817 238.107L388.926 238.198L388.835 239.307L387.894 239.23Z" fill="url(#paint7_linear)"/>
<path d="M386.695 238.172L386.501 238L386.708 238.017L386.695 238.172Z" fill="url(#paint8_linear)"/>
<path d="M384.315 236.07L383.464 235.318C384.315 234.101 385.608 233.227 387.09 232.912L388.126 233.911C386.551 233.974 385.146 234.808 384.315 236.07Z" fill="url(#paint9_linear)"/>
<path d="M389.465 235.199C389.198 235.113 388.918 235.056 388.626 235.032C387.196 234.915 385.889 235.632 385.185 236.776L391.651 237.303L389.465 235.199Z" fill="url(#paint10_linear)"/>
<path d="M389.945 239.397L391.914 239.558C391.957 239.379 391.986 239.196 392.001 239.007C392.017 238.819 392.018 238.632 392.005 238.449L390.035 238.288L389.945 239.397Z" fill="url(#paint11_linear)"/>
</g>
<g style="mix-blend-mode:overlay">
<path fill-rule="evenodd" clip-rule="evenodd" d="M382.581 232.815C382.273 233.115 381.988 233.44 381.729 233.786L382.624 234.577C382.875 234.23 383.157 233.908 383.466 233.614L382.581 232.815ZM384.295 234.364C383.986 234.651 383.707 234.971 383.464 235.318L384.315 236.07C384.546 235.718 384.822 235.4 385.134 235.123L384.295 234.364ZM385.966 235.875C385.66 236.13 385.395 236.434 385.185 236.776L387.139 236.936L385.966 235.875ZM388.497 238.163L387.817 238.108L387.737 239.091L387.894 239.23L388.835 239.307L388.899 238.527L388.497 238.163ZM391.212 240.617L389.854 240.507L389.819 240.93L392.286 243.108C392.565 242.857 392.821 242.579 393.048 242.278L391.212 240.617ZM394.759 243.825L393.878 243.028C393.649 243.322 393.398 243.597 393.126 243.85L394.018 244.637C394.283 244.384 394.53 244.112 394.759 243.825ZM386.695 238.172L386.501 238L386.708 238.017L386.695 238.172Z" fill="url(#paint12_linear)"/>
</g>
</g>
<g filter="url(#filter3_d)">
<path d="M88.0492 256.575C90.8921 267.184 84.5957 278.09 73.9858 280.933C63.3758 283.776 52.4702 277.48 49.6272 266.87C46.7843 256.26 53.0807 245.354 63.6906 242.511C74.3006 239.668 85.2063 245.965 88.0492 256.575Z" fill="#FFBE5E"/>
<g filter="url(#filter4_i)">
<path d="M60.1926 259.86L60.1231 259.879C60.7964 256.702 63.1878 254.007 66.5402 253.109C68.7027 252.529 70.8921 252.797 72.7569 253.708L72.8098 253.694L76.242 252.774C73.4457 250.467 69.6127 249.5 65.8438 250.51C60.0921 252.051 56.5134 257.652 57.3643 263.404L64.601 261.464L65.2973 264.063L58.0593 266.002L58.0676 266.022C58.4129 266.89 58.8551 267.697 59.378 268.435L65.9926 266.662L67.7649 273.277C68.6713 273.362 69.5996 273.34 70.5303 273.203L68.5913 265.967L71.1899 265.27L73.129 272.507C74.0042 272.161 74.8185 271.716 75.5609 271.189L73.7884 264.574L80.4029 262.801C80.5281 261.466 80.4221 260.087 80.0548 258.716C79.6875 257.346 79.0896 256.098 78.3139 255.005L76.7747 255.417L60.1926 259.86ZM70.494 262.671L67.8954 263.367L67.1991 260.769L69.7978 260.072L70.494 262.671ZM77.7079 260.738L73.0932 261.975L72.3969 259.376L77.0116 258.14C77.1895 258.546 77.3391 258.971 77.4575 259.413C77.5757 259.854 77.6586 260.297 77.7079 260.738Z" fill="#F4A837"/>
<path d="M64.4347 245.288C55.3583 247.72 49.9724 257.049 52.4043 266.125C54.8362 275.201 64.1652 280.588 73.2416 278.156C82.3181 275.724 87.7039 266.394 85.2721 257.318C82.8402 248.243 73.5112 242.856 64.4347 245.288ZM72.5441 275.553C64.9057 277.599 57.0542 273.066 55.0075 265.428C52.9608 257.789 57.4939 249.938 65.1323 247.891C72.7706 245.844 80.6222 250.378 82.6689 258.016C84.7156 265.654 80.1825 273.506 72.5441 275.553Z" fill="#F4A837"/>
</g>
<path fill-rule="evenodd" clip-rule="evenodd" d="M63.3921 244.145C63.2837 243.741 63.5236 243.325 63.9279 243.217C68.7044 241.937 73.544 242.551 77.6458 244.599C78.0202 244.786 78.1722 245.241 77.9853 245.615C77.7984 245.99 77.3433 246.142 76.9689 245.955C73.1856 244.066 68.7255 243.5 64.3201 244.681C63.9159 244.789 63.5004 244.549 63.3921 244.145Z" fill="white"/>
<path fill-rule="evenodd" clip-rule="evenodd" d="M72.8985 279.624C73.0068 280.028 73.4223 280.268 73.8265 280.159C75.6044 279.683 77.2596 278.975 78.7676 278.075C79.127 277.861 79.2446 277.396 79.0303 277.036C78.8159 276.677 78.3507 276.559 77.9913 276.774C76.6021 277.602 75.076 278.256 73.4343 278.696C73.03 278.804 72.7902 279.219 72.8985 279.624Z" fill="white"/>
<g style="mix-blend-mode:overlay">
<path d="M49.8802 255.869C50.9377 252.436 52.912 249.33 55.5942 246.915L58.5075 248.227C55.6435 250.436 53.5672 253.503 52.5608 256.94L49.8802 255.869Z" fill="url(#paint13_linear)"/>
<path d="M81.4994 268.501C82.9817 265.753 83.5731 262.517 83.0047 259.261L79.8451 257.838C79.9444 258.119 80.0336 258.407 80.1122 258.701C80.4796 260.072 80.5856 261.451 80.4604 262.786L73.8459 264.558L74.1115 265.549L81.4994 268.501Z" fill="url(#paint14_linear)"/>
<path d="M84.016 269.506C85.4135 266.799 86.0915 263.713 85.8733 260.553L88.7758 261.86C88.7544 264.929 88.0178 267.904 86.6873 270.574L84.016 269.506Z" fill="url(#paint15_linear)"/>
<path d="M68.3468 263.246L67.874 263.058L67.2566 260.753L69.8553 260.057L70.5515 262.656L68.3468 263.246Z" fill="url(#paint16_linear)"/>
<path d="M64.7557 261.812L64.1731 261.579L64.6585 261.449L64.7557 261.812Z" fill="url(#paint17_linear)"/>
<path d="M57.626 258.963L55.0775 257.945C56.024 254.481 58.2566 251.44 61.3743 249.518L64.5468 250.947C61.0113 252.374 58.4913 255.415 57.626 258.963Z" fill="url(#paint18_linear)"/>
<path d="M68.6421 252.792C67.9653 252.812 67.2802 252.911 66.5977 253.093C63.2453 253.992 60.8539 256.686 60.1806 259.864L75.3306 255.804L68.6421 252.792Z" fill="url(#paint19_linear)"/>
<path d="M73.1507 261.959L77.7654 260.723C77.7161 260.281 77.6332 259.839 77.515 259.398C77.3966 258.956 77.247 258.531 77.0691 258.124L72.4544 259.361L73.1507 261.959Z" fill="url(#paint20_linear)"/>
</g>
<g style="mix-blend-mode:overlay">
<path fill-rule="evenodd" clip-rule="evenodd" d="M51.0317 252.963C50.5736 253.898 50.1881 254.87 49.8802 255.869L52.5608 256.94C52.8518 255.947 53.2321 254.984 53.6951 254.064L51.0317 252.963ZM56.1941 255.097C55.7232 256.001 55.3479 256.956 55.0775 257.946L57.6259 258.964C57.867 257.975 58.2364 257.026 58.7204 256.141L56.1941 255.097ZM61.2264 257.176C60.7374 258.005 60.3821 258.913 60.1806 259.864L64.7605 258.637L61.2264 257.176ZM68.8501 260.327L67.2566 260.754L67.874 263.058L68.3468 263.247L70.5515 262.656L70.0616 260.827L68.8501 260.327ZM77.0273 263.706L73.8459 264.558L74.1115 265.55L81.4994 268.501C81.9304 267.702 82.286 266.862 82.5597 265.992L77.0273 263.706ZM87.7119 268.121L85.0587 267.025C84.7765 267.88 84.4274 268.71 84.016 269.507L86.6873 270.574C87.0822 269.781 87.4248 268.962 87.7119 268.121ZM64.7557 261.812L64.1731 261.579L64.6585 261.449L64.7557 261.812Z" fill="url(#paint21_linear)"/>
</g>
</g>
<g filter="url(#filter5_d)">
<path d="M362.111 253.57C364.954 264.18 358.658 275.085 348.048 277.928C337.438 280.771 326.532 274.475 323.689 263.865C320.846 253.255 327.143 242.349 337.753 239.506C348.363 236.663 359.268 242.96 362.111 253.57Z" fill="#FFBE5E"/>
<g filter="url(#filter6_i)">
<path d="M334.255 256.855L334.185 256.874C334.858 253.697 337.25 251.002 340.602 250.104C342.765 249.525 344.954 249.792 346.819 250.703L346.872 250.689L350.304 249.769C347.508 247.462 343.675 246.495 339.906 247.505C334.154 249.046 330.575 254.647 331.426 260.399L338.663 258.459L339.359 261.058L332.121 262.997L332.13 263.017C332.475 263.885 332.917 264.692 333.44 265.43L340.055 263.658L341.827 270.272C342.733 270.357 343.662 270.335 344.592 270.198L342.653 262.962L345.252 262.266L347.191 269.502C348.066 269.156 348.881 268.711 349.623 268.184L347.85 261.569L354.465 259.796C354.59 258.462 354.484 257.082 354.117 255.712C353.749 254.341 353.152 253.093 352.376 252L350.837 252.412L334.255 256.855ZM344.556 259.666L341.957 260.362L341.261 257.764L343.86 257.068L344.556 259.666ZM351.77 257.733L347.155 258.97L346.459 256.371L351.074 255.135C351.252 255.541 351.401 255.966 351.519 256.408C351.638 256.849 351.721 257.292 351.77 257.733Z" fill="#F4A837"/>
<path d="M338.497 242.283C329.42 244.715 324.034 254.045 326.466 263.12C328.898 272.196 338.227 277.583 347.304 275.151C356.38 272.719 361.766 263.389 359.334 254.314C356.902 245.238 347.573 239.851 338.497 242.283ZM346.606 272.548C338.968 274.594 331.116 270.061 329.069 262.423C327.023 254.784 331.556 246.933 339.194 244.886C346.833 242.84 354.684 247.373 356.731 255.011C358.778 262.649 354.245 270.501 346.606 272.548Z" fill="#F4A837"/>
</g>
<path fill-rule="evenodd" clip-rule="evenodd" d="M337.454 241.14C337.346 240.736 337.586 240.32 337.99 240.212C342.766 238.932 347.606 239.547 351.708 241.594C352.082 241.781 352.234 242.236 352.047 242.61C351.86 242.985 351.405 243.137 351.031 242.95C347.248 241.061 342.788 240.495 338.382 241.676C337.978 241.784 337.562 241.544 337.454 241.14Z" fill="white"/>
<path fill-rule="evenodd" clip-rule="evenodd" d="M346.96 276.619C347.069 277.023 347.484 277.263 347.889 277.154C349.666 276.678 351.322 275.97 352.83 275.07C353.189 274.856 353.307 274.391 353.092 274.031C352.878 273.672 352.413 273.554 352.053 273.769C350.664 274.597 349.138 275.251 347.496 275.691C347.092 275.799 346.852 276.214 346.96 276.619Z" fill="white"/>
<g style="mix-blend-mode:overlay">
<path d="M323.942 252.864C325 249.431 326.974 246.326 329.656 243.91L332.57 245.222C329.706 247.431 327.629 250.498 326.623 253.935L323.942 252.864Z" fill="url(#paint22_linear)"/>
<path d="M355.561 265.496C357.044 262.748 357.635 259.512 357.067 256.256L353.907 254.833C354.006 255.115 354.096 255.403 354.174 255.696C354.542 257.067 354.648 258.446 354.522 259.781L347.908 261.553L348.173 262.545L355.561 265.496Z" fill="url(#paint23_linear)"/>
<path d="M358.078 266.502C359.476 263.794 360.153 260.708 359.935 257.548L362.838 258.855C362.816 261.924 362.08 264.899 360.749 267.569L358.078 266.502Z" fill="url(#paint24_linear)"/>
<path d="M342.409 260.242L341.936 260.053L341.319 257.748L343.917 257.052L344.614 259.651L342.409 260.242Z" fill="url(#paint25_linear)"/>
<path d="M338.818 258.807L338.235 258.574L338.72 258.444L338.818 258.807Z" fill="url(#paint26_linear)"/>
<path d="M331.688 255.958L329.14 254.94C330.086 251.476 332.319 248.435 335.436 246.513L338.609 247.942C335.073 249.369 332.553 252.41 331.688 255.958Z" fill="url(#paint27_linear)"/>
<path d="M342.704 249.787C342.027 249.807 341.342 249.906 340.66 250.089C337.307 250.987 334.916 253.681 334.243 256.859L349.393 252.799L342.704 249.787Z" fill="url(#paint28_linear)"/>
<path d="M347.213 258.954L351.827 257.718C351.778 257.277 351.695 256.834 351.577 256.393C351.459 255.951 351.309 255.526 351.131 255.119L346.516 256.356L347.213 258.954Z" fill="url(#paint29_linear)"/>
</g>
<g style="mix-blend-mode:overlay">
<path fill-rule="evenodd" clip-rule="evenodd" d="M325.094 249.958C324.636 250.893 324.25 251.865 323.942 252.864L326.623 253.935C326.914 252.942 327.294 251.979 327.757 251.059L325.094 249.958ZM330.256 252.092C329.785 252.996 329.41 253.951 329.14 254.941L331.688 255.959C331.929 254.97 332.298 254.021 332.782 253.136L330.256 252.092ZM335.288 254.171C334.799 255.001 334.444 255.908 334.243 256.859L338.823 255.632L335.288 254.171ZM342.912 257.322L341.319 257.749L341.936 260.053L342.409 260.242L344.614 259.651L344.124 257.823L342.912 257.322ZM351.089 260.701L347.908 261.554L348.173 262.545L355.561 265.496C355.992 264.697 356.348 263.857 356.622 262.987L351.089 260.701ZM361.774 265.117L359.121 264.02C358.839 264.875 358.489 265.705 358.078 266.502L360.749 267.569C361.144 266.777 361.487 265.957 361.774 265.117ZM338.818 258.807L338.235 258.574L338.72 258.444L338.818 258.807Z" fill="url(#paint30_linear)"/>
</g>
</g>
<g filter="url(#filter7_d)">
<path d="M100.439 331.907C104.178 345.862 95.8963 360.206 81.9413 363.945C67.9862 367.684 53.6422 359.403 49.903 345.448C46.1638 331.493 54.4453 317.149 68.4003 313.41C82.3553 309.67 96.6993 317.952 100.439 331.907Z" fill="#FFBE5E"/>
<g filter="url(#filter8_i)">
<path d="M63.7994 336.229L63.708 336.253C64.5935 332.074 67.7389 328.53 72.1483 327.349C74.9926 326.587 77.8722 326.939 80.325 328.137L80.3945 328.118L84.9089 326.909C81.231 323.874 76.1894 322.602 71.2322 323.93C63.6672 325.957 58.9602 333.325 60.0794 340.89L69.5976 338.339L70.5134 341.757L60.9935 344.307L61.0044 344.333C61.4585 345.475 62.0402 346.536 62.7279 347.507L71.428 345.176L73.7591 353.876C74.9512 353.987 76.1723 353.959 77.3963 353.778L74.846 344.261L78.2639 343.345L80.8144 352.863C81.9654 352.407 83.0365 351.822 84.013 351.129L81.6816 342.428L90.3816 340.097C90.5462 338.341 90.4068 336.527 89.9237 334.724C89.4406 332.921 88.6543 331.281 87.634 329.843L85.6095 330.385L63.7994 336.229ZM77.3487 339.926L73.9308 340.842L73.015 337.424L76.4328 336.508L77.3487 339.926ZM86.8368 337.384L80.7673 339.01L79.8515 335.592L85.921 333.966C86.1551 334.501 86.3518 335.059 86.5075 335.641C86.663 336.221 86.772 336.803 86.8368 337.384Z" fill="#F4A837"/>
<path d="M69.379 317.062C57.4409 320.261 50.357 332.532 53.5556 344.469C56.7542 356.406 69.0244 363.491 80.9625 360.293C92.9005 357.094 99.9844 344.823 96.7859 332.886C93.5873 320.948 81.317 313.863 69.379 317.062ZM80.045 356.869C69.9984 359.561 59.6715 353.598 56.9795 343.552C54.2875 333.505 60.2498 323.178 70.2964 320.486C80.343 317.794 90.6699 323.756 93.3619 333.803C96.0539 343.85 90.0916 354.177 80.045 356.869Z" fill="#F4A837"/>
</g>
<path fill-rule="evenodd" clip-rule="evenodd" d="M68.0076 315.559C67.8651 315.028 68.1806 314.481 68.7123 314.339C74.9948 312.655 81.3602 313.463 86.7551 316.156C87.2476 316.402 87.4476 317.001 87.2017 317.493C86.9559 317.986 86.3574 318.186 85.8649 317.94C80.8888 315.456 75.0225 314.711 69.2282 316.264C68.6965 316.407 68.15 316.091 68.0076 315.559Z" fill="white"/>
<path fill-rule="evenodd" clip-rule="evenodd" d="M80.5111 362.223C80.6536 362.755 81.2001 363.07 81.7317 362.928C84.0702 362.301 86.2473 361.369 88.2307 360.186C88.7034 359.904 88.8581 359.293 88.5761 358.82C88.2942 358.347 87.6824 358.192 87.2097 358.474C85.3824 359.564 83.3752 360.424 81.2159 361.002C80.6842 361.145 80.3687 361.691 80.5111 362.223Z" fill="white"/>
<g style="mix-blend-mode:overlay">
<path d="M50.2357 330.979C51.6266 326.464 54.2234 322.379 57.7512 319.202L61.583 320.928C57.8161 323.833 55.0851 327.868 53.7615 332.388L50.2357 330.979Z" fill="url(#paint31_linear)"/>
<path d="M91.8238 347.594C93.7735 343.979 94.5512 339.724 93.8037 335.44L89.6478 333.569C89.7784 333.939 89.8958 334.318 89.9993 334.704C90.4824 336.507 90.6219 338.321 90.4572 340.077L81.7572 342.408L82.1066 343.712L91.8238 347.594Z" fill="url(#paint32_linear)"/>
<path d="M95.1338 348.916C96.9719 345.356 97.8636 341.296 97.5766 337.14L101.394 338.859C101.366 342.896 100.397 346.808 98.6472 350.32L95.1338 348.916Z" fill="url(#paint33_linear)"/>
<path d="M74.5244 340.683L73.9026 340.434L73.0905 337.404L76.5085 336.488L77.4243 339.906L74.5244 340.683Z" fill="url(#paint34_linear)"/>
<path d="M69.8011 338.796L69.0349 338.49L69.6732 338.319L69.8011 338.796Z" fill="url(#paint35_linear)"/>
<path d="M60.4235 335.049L57.0716 333.71C58.3165 329.154 61.253 325.154 65.3536 322.626L69.5264 324.506C64.8761 326.383 61.5617 330.383 60.4235 335.049Z" fill="url(#paint36_linear)"/>
<path d="M74.9129 326.932C74.0227 326.959 73.1215 327.088 72.2238 327.329C67.8145 328.51 64.6692 332.054 63.7836 336.233L83.7101 330.894L74.9129 326.932Z" fill="url(#paint37_linear)"/>
<path d="M80.8429 338.99L86.9124 337.363C86.8476 336.783 86.7386 336.201 86.5831 335.62C86.4274 335.039 86.2307 334.481 85.9966 333.946L79.927 335.572L80.8429 338.99Z" fill="url(#paint38_linear)"/>
</g>
<g style="mix-blend-mode:overlay">
<path fill-rule="evenodd" clip-rule="evenodd" d="M51.7502 327.157C51.1477 328.387 50.6406 329.665 50.2357 330.979L53.7615 332.388C54.1441 331.081 54.6444 329.815 55.2534 328.605L51.7502 327.157ZM58.5402 329.963C57.9209 331.153 57.4272 332.409 57.0716 333.71L60.4235 335.05C60.7406 333.75 61.2265 332.501 61.863 331.336L58.5402 329.963ZM65.1591 332.699C64.516 333.789 64.0486 334.983 63.7836 336.234L69.8075 334.62L65.1591 332.699ZM75.1864 336.842L73.0905 337.404L73.9026 340.435L74.5244 340.683L77.4243 339.906L76.7798 337.501L75.1864 336.842ZM85.9417 341.287L81.7572 342.408L82.1066 343.712L91.8238 347.594C92.3906 346.543 92.8584 345.438 93.2184 344.294L85.9417 341.287ZM99.9949 347.094L96.5052 345.652C96.1341 346.777 95.675 347.868 95.1338 348.917L98.6472 350.32C99.1667 349.278 99.6173 348.2 99.9949 347.094ZM69.8011 338.796L69.0349 338.49L69.6732 338.319L69.8011 338.796Z" fill="url(#paint39_linear)"/>
</g>
</g>
<g filter="url(#filter9_d)">
<path d="M320.686 355.991C314.739 369.157 299.245 375.01 286.078 369.063C272.911 363.117 267.059 347.622 273.005 334.456C278.952 321.289 294.447 315.436 307.613 321.383C320.78 327.33 326.633 342.824 320.686 355.991Z" fill="#FFBE5E"/>
<g filter="url(#filter10_i)">
<path d="M289.598 336.125L289.512 336.086C292.844 333.414 297.523 332.664 301.683 334.543C304.367 335.755 306.372 337.851 307.511 340.332L307.576 340.362L311.836 342.286C310.913 337.607 307.817 333.43 303.14 331.317C296.002 328.094 287.693 330.812 283.767 337.375L292.748 341.431L291.291 344.655L282.309 340.599L282.302 340.625C281.93 341.796 281.707 342.986 281.625 344.173L289.833 347.88L286.126 356.089C286.978 356.93 287.94 357.682 289.002 358.317L293.058 349.338L296.282 350.794L292.226 359.775C293.406 360.151 294.605 360.377 295.8 360.459L299.508 352.25L307.716 355.957C308.955 354.703 309.997 353.211 310.765 351.51C311.533 349.809 311.964 348.041 312.086 346.282L310.176 345.419L289.598 336.125ZM297.74 347.569L294.515 346.112L295.972 342.888L299.196 344.344L297.74 347.569ZM306.692 351.612L300.965 349.026L302.422 345.801L308.149 348.387C307.991 348.95 307.789 349.507 307.541 350.055C307.294 350.602 307.01 351.122 306.692 351.612Z" fill="#F4A837"/>
<path d="M306.057 324.829C294.793 319.742 281.538 324.749 276.452 336.012C271.365 347.275 276.371 360.53 287.634 365.617C298.898 370.704 312.153 365.697 317.24 354.434C322.326 343.171 317.32 329.916 306.057 324.829ZM289.094 362.387C279.615 358.105 275.401 346.95 279.682 337.471C283.963 327.992 295.118 323.778 304.598 328.06C314.077 332.341 318.29 343.496 314.009 352.975C309.728 362.454 298.573 366.668 289.094 362.387Z" fill="#F4A837"/>
</g>
<path fill-rule="evenodd" clip-rule="evenodd" d="M305.948 322.797C306.174 322.295 306.765 322.072 307.266 322.299C313.194 324.976 317.607 329.634 320.076 335.135C320.301 335.637 320.077 336.227 319.575 336.452C319.072 336.678 318.483 336.453 318.257 335.951C315.98 330.877 311.913 326.585 306.446 324.115C305.944 323.889 305.721 323.299 305.948 322.797Z" fill="white"/>
<path fill-rule="evenodd" clip-rule="evenodd" d="M286.062 366.825C285.836 367.326 286.059 367.917 286.561 368.143C288.767 369.14 291.042 369.798 293.326 370.139C293.87 370.22 294.377 369.845 294.459 369.3C294.54 368.756 294.165 368.249 293.62 368.167C291.516 367.853 289.418 367.247 287.381 366.327C286.879 366.1 286.289 366.323 286.062 366.825Z" fill="white"/>
<g style="mix-blend-mode:overlay">
<path d="M282.428 323.471C286.365 320.858 290.962 319.343 295.704 319.119L297.576 322.882C292.821 322.743 288.152 324.135 284.264 326.794L282.428 323.471Z" fill="url(#paint40_linear)"/>
<path d="M304.083 362.672C307.881 361.11 311.179 358.31 313.314 354.522L311.284 350.441C311.15 350.811 311.001 351.178 310.836 351.542C310.068 353.243 309.027 354.735 307.787 355.989L299.579 352.282L299.023 353.512L304.083 362.672Z" fill="url(#paint41_linear)"/>
<path d="M305.806 365.792C309.484 364.201 312.746 361.625 315.157 358.227L317.021 361.976C314.443 365.081 311.215 367.495 307.636 369.103L305.806 365.792Z" fill="url(#paint42_linear)"/>
<path d="M295.075 346.365L294.751 345.779L296.043 342.92L299.268 344.376L297.811 347.601L295.075 346.365Z" fill="url(#paint43_linear)"/>
<path d="M292.616 341.913L292.217 341.191L292.819 341.463L292.616 341.913Z" fill="url(#paint44_linear)"/>
<path d="M287.733 333.074L285.988 329.914C289.837 327.177 294.643 325.943 299.417 326.584L301.456 330.682C296.668 329.189 291.57 330.184 287.733 333.074Z" fill="url(#paint45_linear)"/>
<path d="M304.087 335.971C303.381 335.428 302.601 334.958 301.754 334.575C297.594 332.696 292.915 333.446 289.583 336.119L308.384 344.61L304.087 335.971Z" fill="url(#paint46_linear)"/>
<path d="M301.037 349.058L306.763 351.644C307.081 351.154 307.365 350.635 307.613 350.087C307.86 349.539 308.062 348.982 308.22 348.42L302.493 345.833L301.037 349.058Z" fill="url(#paint47_linear)"/>
</g>
<g style="mix-blend-mode:overlay">
<path fill-rule="evenodd" clip-rule="evenodd" d="M286.021 321.473C284.776 322.043 283.574 322.71 282.428 323.471L284.264 326.794C285.388 326.025 286.577 325.363 287.815 324.812L286.021 321.473ZM289.498 327.945C288.265 328.473 287.087 329.132 285.988 329.914L287.733 333.074C288.802 332.269 289.968 331.611 291.199 331.113L289.498 327.945ZM292.886 334.254C291.698 334.691 290.58 335.319 289.583 336.118L295.266 338.685L292.886 334.254ZM298.02 343.813L296.043 342.92L294.751 345.779L295.075 346.365L297.811 347.601L298.836 345.332L298.02 343.813ZM303.527 354.065L299.579 352.282L299.023 353.512L304.083 362.671C305.187 362.217 306.249 361.659 307.252 361.001L303.527 354.065ZM310.722 367.461L308.935 364.134C307.936 364.769 306.889 365.323 305.806 365.792L307.636 369.103C308.698 368.626 309.729 368.077 310.722 367.461ZM292.616 341.913L292.217 341.191L292.819 341.463L292.616 341.913Z" fill="url(#paint48_linear)"/>
</g>
</g>
<g opacity="0.5" filter="url(#filter11_d)">
<path d="M42.9315 298.38C42.2185 307.117 34.5576 313.622 25.8203 312.909C17.083 312.197 10.5779 304.536 11.2909 295.798C12.0038 287.061 19.6647 280.556 28.402 281.269C37.1393 281.982 43.6444 289.643 42.9315 298.38Z" fill="#FFBE5E"/>
<g filter="url(#filter12_i)">
<path d="M21.1136 293.368L21.0563 293.364C22.4157 291.157 24.9366 289.774 27.6973 289.999C29.4781 290.144 31.0517 290.933 32.2085 292.119L32.252 292.122L35.0785 292.353C33.5967 289.868 30.9756 288.112 27.8719 287.859C23.1354 287.472 18.9415 290.721 18.0363 295.272L23.9958 295.758L23.8212 297.898L17.8607 297.411L17.8618 297.428C17.8881 298.173 18.0037 298.898 18.1985 299.594L23.6456 300.038L23.2012 305.485C23.8596 305.792 24.5631 306.025 25.2993 306.172L25.7855 300.213L27.9255 300.388L27.4392 306.347C28.19 306.322 28.9215 306.206 29.621 306.009L30.0655 300.562L35.5126 301.006C35.9651 300.037 36.2559 298.972 36.348 297.843C36.4401 296.714 36.3259 295.616 36.0365 294.586L34.769 294.483L21.1136 293.368ZM28.1006 298.247L25.9607 298.073L26.1353 295.933L28.2752 296.107L28.1006 298.247ZM34.0412 298.732L30.2411 298.422L30.4157 296.282L34.2158 296.592C34.2403 296.946 34.2386 297.305 34.2089 297.669C34.1793 298.032 34.1227 298.387 34.0412 298.732Z" fill="#F4A837"/>
<path d="M28.2154 283.555C20.741 282.946 14.1877 288.511 13.5778 295.985C12.968 303.459 18.5324 310.012 26.0069 310.622C33.4814 311.232 40.0347 305.667 40.6445 298.193C41.2544 290.719 35.6899 284.165 28.2154 283.555ZM26.1818 308.478C19.8916 307.965 15.2083 302.45 15.7216 296.159C16.2348 289.869 21.7503 285.186 28.0405 285.699C34.3308 286.212 39.0141 291.728 38.5008 298.018C37.9875 304.308 32.4721 308.992 26.1818 308.478Z" fill="#F4A837"/>
</g>
<path fill-rule="evenodd" clip-rule="evenodd" d="M27.7388 282.417C27.766 282.084 28.0578 281.836 28.3907 281.863C32.3242 282.184 35.7964 283.946 38.3291 286.586C38.5603 286.827 38.5524 287.21 38.3113 287.441C38.0703 287.672 37.6875 287.664 37.4563 287.423C35.1202 284.988 31.9202 283.365 28.2924 283.069C27.9595 283.041 27.7116 282.75 27.7388 282.417Z" fill="white"/>
<path fill-rule="evenodd" clip-rule="evenodd" d="M25.3549 311.633C25.3277 311.966 25.5755 312.258 25.9084 312.285C27.3725 312.404 28.8067 312.317 30.1816 312.046C30.5093 311.981 30.7226 311.663 30.658 311.335C30.5934 311.008 30.2754 310.794 29.9478 310.859C28.6811 311.109 27.3587 311.19 26.0068 311.08C25.6739 311.052 25.382 311.3 25.3549 311.633Z" fill="white"/>
<g style="mix-blend-mode:overlay">
<path d="M14.4354 287.599C16.1521 285.303 18.4699 283.499 21.1345 282.404L22.9716 284.173C20.2259 285.064 17.8416 286.811 16.1623 289.124L14.4354 287.599Z" fill="url(#paint49_linear)"/>
<path d="M34.8059 305.585C36.6581 303.917 37.9714 301.645 38.4188 299.044L36.4264 297.126C36.4253 297.365 36.4151 297.605 36.3953 297.847C36.3032 298.976 36.0125 300.041 35.56 301.01L30.1129 300.566L30.0462 301.382L34.8059 305.585Z" fill="url(#paint50_linear)"/>
<path d="M36.4272 307.016C38.2045 305.357 39.543 303.219 40.2277 300.786L42.0579 302.548C41.2176 304.849 39.8652 306.886 38.1481 308.536L36.4272 307.016Z" fill="url(#paint51_linear)"/>
<path d="M26.3324 298.103L26.0278 297.834L26.1826 295.937L28.3226 296.111L28.148 298.251L26.3324 298.103Z" fill="url(#paint52_linear)"/>
<path d="M24.0188 296.06L23.6435 295.729L24.0432 295.762L24.0188 296.06Z" fill="url(#paint53_linear)"/>
<path d="M19.4255 292.005L17.7837 290.555C19.4255 288.206 21.92 286.52 24.7793 285.913L26.7798 287.839C23.7394 287.962 21.0288 289.571 19.4255 292.005Z" fill="url(#paint54_linear)"/>
<path d="M29.3622 290.325C28.848 290.159 28.3066 290.049 27.7446 290.003C24.9839 289.778 22.463 291.161 21.1037 293.368L33.5798 294.386L29.3622 290.325Z" fill="url(#paint55_linear)"/>
<path d="M30.2884 298.426L34.0886 298.736C34.1701 298.391 34.2267 298.036 34.2563 297.673C34.286 297.309 34.2877 296.95 34.2632 296.596L30.463 296.286L30.2884 298.426Z" fill="url(#paint56_linear)"/>
</g>
<g style="mix-blend-mode:overlay">
<path fill-rule="evenodd" clip-rule="evenodd" d="M16.0812 285.725C15.4858 286.304 14.9351 286.931 14.4354 287.599L16.1623 289.124C16.6478 288.455 17.1922 287.834 17.7873 287.267L16.0812 285.725ZM19.388 288.714C18.7912 289.267 18.2527 289.884 17.7837 290.555L19.4255 292.005C19.8721 291.327 20.4046 290.713 21.0062 290.177L19.388 288.714ZM22.6115 291.629C22.0213 292.121 21.5105 292.707 21.1037 293.368L24.8753 293.675L22.6115 291.629ZM27.4948 296.044L26.1826 295.937L26.0278 297.834L26.3324 298.103L28.148 298.251L28.2709 296.746L27.4948 296.044ZM32.7328 300.78L30.1129 300.566L30.0463 301.382L34.8059 305.585C35.3444 305.1 35.8373 304.564 36.2766 303.984L32.7328 300.78ZM39.5769 306.968L37.8773 305.431C37.4357 305.998 36.9504 306.528 36.4272 307.016L38.1481 308.536C38.6578 308.046 39.1353 307.522 39.5769 306.968ZM24.0188 296.061L23.6435 295.729L24.0432 295.762L24.0188 296.061Z" fill="url(#paint57_linear)"/>
</g>
</g>
<g opacity="0.5" filter="url(#filter13_d)">
<path d="M31.8974 225.537C31.5279 230.066 27.5574 233.437 23.029 233.068C18.5006 232.698 15.1291 228.728 15.4986 224.199C15.8681 219.671 19.8387 216.3 24.367 216.669C28.8954 217.039 32.2669 221.009 31.8974 225.537Z" fill="#FFBE5E"/>
<g filter="url(#filter14_i)">
<path d="M20.5896 222.94L20.5599 222.937C21.2644 221.793 22.5709 221.077 24.0018 221.193C24.9248 221.269 25.7403 221.678 26.3399 222.292L26.3624 222.294L27.8273 222.414C27.0593 221.125 25.7009 220.215 24.0923 220.084C21.6375 219.884 19.4638 221.567 18.9947 223.926L22.0834 224.178L21.9929 225.287L18.9037 225.035L18.9042 225.044C18.9179 225.43 18.9778 225.806 19.0787 226.166L21.9019 226.396L21.6715 229.22C22.0128 229.379 22.3774 229.5 22.759 229.576L23.011 226.487L24.1201 226.578L23.868 229.666C24.2572 229.653 24.6363 229.593 24.9988 229.491L25.2292 226.668L28.0523 226.898C28.2869 226.396 28.4375 225.844 28.4853 225.259C28.533 224.674 28.4738 224.105 28.3238 223.571L27.6669 223.517L20.5896 222.94ZM24.2108 225.468L23.1017 225.378L23.1922 224.269L24.3013 224.359L24.2108 225.468ZM27.2897 225.72L25.3202 225.559L25.4107 224.45L27.3802 224.61C27.3929 224.794 27.392 224.98 27.3767 225.169C27.3613 225.357 27.332 225.541 27.2897 225.72Z" fill="#F4A837"/>
<path d="M24.2703 217.854C20.3965 217.538 17 220.422 16.6839 224.296C16.3679 228.169 19.2518 231.566 23.1257 231.882C26.9996 232.198 30.396 229.314 30.7121 225.44C31.0282 221.567 28.1442 218.17 24.2703 217.854ZM23.2164 230.771C19.9562 230.505 17.529 227.647 17.795 224.386C18.061 221.126 20.9196 218.699 24.1797 218.965C27.4398 219.231 29.8671 222.09 29.601 225.35C29.335 228.61 26.4765 231.037 23.2164 230.771Z" fill="#F4A837"/>
</g>
<path fill-rule="evenodd" clip-rule="evenodd" d="M24.0233 217.264C24.0374 217.092 24.1887 216.963 24.3612 216.977C26.3998 217.143 28.1994 218.056 29.5121 219.425C29.6319 219.55 29.6278 219.748 29.5029 219.868C29.3779 219.988 29.1795 219.984 29.0597 219.859C27.8489 218.597 26.1905 217.755 24.3102 217.602C24.1377 217.588 24.0092 217.437 24.0233 217.264Z" fill="white"/>
<path fill-rule="evenodd" clip-rule="evenodd" d="M22.7877 232.406C22.7737 232.579 22.9021 232.73 23.0746 232.744C23.8335 232.806 24.5768 232.761 25.2894 232.62C25.4592 232.587 25.5697 232.422 25.5363 232.252C25.5028 232.082 25.338 231.972 25.1682 232.005C24.5117 232.135 23.8263 232.177 23.1256 232.119C22.9531 232.105 22.8018 232.234 22.7877 232.406Z" fill="white"/>
<g style="mix-blend-mode:overlay">
<path d="M17.1284 219.95C18.0181 218.76 19.2194 217.825 20.6004 217.257L21.5525 218.174C20.1295 218.636 18.8938 219.541 18.0234 220.74L17.1284 219.95Z" fill="url(#paint58_linear)"/>
<path d="M27.686 229.271C28.646 228.407 29.3266 227.229 29.5586 225.882L28.5259 224.887C28.5254 225.011 28.5201 225.136 28.5098 225.261C28.4621 225.846 28.3114 226.398 28.0769 226.9L25.2537 226.67L25.2192 227.093L27.686 229.271Z" fill="url(#paint59_linear)"/>
<path d="M28.5263 230.013C29.4475 229.153 30.1412 228.045 30.496 226.784L31.4446 227.697C31.0091 228.89 30.3082 229.946 29.4183 230.801L28.5263 230.013Z" fill="url(#paint60_linear)"/>
<path d="M23.2944 225.394L23.1365 225.254L23.2168 224.271L24.3259 224.361L24.2354 225.471L23.2944 225.394Z" fill="url(#paint61_linear)"/>
<path d="M22.0953 224.335L21.9008 224.163L22.1079 224.18L22.0953 224.335Z" fill="url(#paint62_linear)"/>
<path d="M19.7147 222.233L18.8638 221.482C19.7147 220.264 21.0075 219.391 22.4894 219.076L23.5263 220.074C21.9505 220.138 20.5456 220.972 19.7147 222.233Z" fill="url(#paint63_linear)"/>
<path d="M24.8647 221.363C24.5982 221.276 24.3176 221.219 24.0263 221.196C22.5955 221.079 21.289 221.796 20.5844 222.939L27.0506 223.467L24.8647 221.363Z" fill="url(#paint64_linear)"/>
<path d="M25.3447 225.561L27.3143 225.722C27.3565 225.543 27.3858 225.359 27.4012 225.171C27.4166 224.982 27.4175 224.796 27.4048 224.613L25.4352 224.452L25.3447 225.561Z" fill="url(#paint65_linear)"/>
</g>
<g style="mix-blend-mode:overlay">
<path fill-rule="evenodd" clip-rule="evenodd" d="M17.9814 218.978C17.6728 219.279 17.3874 219.603 17.1284 219.95L18.0234 220.74C18.2751 220.394 18.5572 220.072 18.8656 219.778L17.9814 218.978ZM19.6952 220.528C19.3859 220.814 19.1068 221.134 18.8638 221.482L19.7147 222.233C19.9462 221.882 20.2221 221.564 20.5339 221.286L19.6952 220.528ZM21.3659 222.038C21.06 222.293 20.7953 222.597 20.5844 222.94L22.5392 223.099L21.3659 222.038ZM23.8969 224.327L23.2168 224.271L23.1365 225.255L23.2944 225.394L24.2354 225.471L24.2991 224.69L23.8969 224.327ZM26.6116 226.781L25.2537 226.67L25.2192 227.093L27.686 229.271C27.9651 229.02 28.2206 228.742 28.4483 228.442L26.6116 226.781ZM30.1587 229.988L29.2779 229.192C29.049 229.485 28.7975 229.76 28.5263 230.013L29.4183 230.801C29.6824 230.547 29.9299 230.276 30.1587 229.988ZM22.0953 224.335L21.9008 224.163L22.1079 224.18L22.0953 224.335Z" fill="url(#paint66_linear)"/>
</g>
</g>
<g opacity="0.5" filter="url(#filter15_d)">
<path d="M378.139 316.909C377.426 325.647 369.765 332.152 361.028 331.439C352.29 330.726 345.785 323.065 346.498 314.328C347.211 305.59 354.872 299.085 363.609 299.798C372.347 300.511 378.852 308.172 378.139 316.909Z" fill="#FFBE5E"/>
<g filter="url(#filter16_i)">
<path d="M356.321 311.898L356.264 311.893C357.623 309.686 360.144 308.303 362.905 308.528C364.685 308.674 366.259 309.463 367.416 310.648L367.459 310.652L370.286 310.882C368.804 308.397 366.183 306.641 363.079 306.388C358.343 306.001 354.149 309.25 353.244 313.801L359.203 314.287L359.028 316.427L353.068 315.941L353.069 315.957C353.095 316.702 353.211 317.428 353.406 318.123L358.853 318.567L358.408 324.014C359.067 324.322 359.77 324.555 360.507 324.701L360.993 318.742L363.133 318.917L362.646 324.877C363.397 324.851 364.129 324.736 364.828 324.539L365.273 319.091L370.72 319.536C371.172 318.566 371.463 317.501 371.555 316.372C371.647 315.243 371.533 314.145 371.244 313.115L369.976 313.012L356.321 311.898ZM363.308 316.777L361.168 316.602L361.343 314.462L363.482 314.637L363.308 316.777ZM369.248 317.261L365.448 316.951L365.623 314.811L369.423 315.121C369.448 315.475 369.446 315.834 369.416 316.198C369.387 316.562 369.33 316.916 369.248 317.261Z" fill="#F4A837"/>
<path d="M363.423 302.085C355.948 301.475 349.395 307.04 348.785 314.514C348.175 321.988 353.74 328.542 361.214 329.151C368.689 329.761 375.242 324.196 375.852 316.722C376.462 309.248 370.897 302.695 363.423 302.085ZM361.389 327.008C355.099 326.494 350.416 320.979 350.929 314.689C351.442 308.399 356.958 303.715 363.248 304.228C369.538 304.742 374.221 310.257 373.708 316.547C373.195 322.838 367.679 327.521 361.389 327.008Z" fill="#F4A837"/>
</g>
<path fill-rule="evenodd" clip-rule="evenodd" d="M362.946 300.946C362.973 300.613 363.265 300.365 363.598 300.392C367.531 300.713 371.004 302.475 373.536 305.115C373.768 305.356 373.76 305.739 373.519 305.97C373.278 306.201 372.895 306.194 372.664 305.952C370.327 303.517 367.127 301.894 363.5 301.598C363.167 301.571 362.919 301.279 362.946 300.946Z" fill="white"/>
<path fill-rule="evenodd" clip-rule="evenodd" d="M360.562 330.162C360.535 330.495 360.783 330.787 361.116 330.814C362.58 330.934 364.014 330.846 365.389 330.575C365.717 330.51 365.93 330.192 365.865 329.865C365.801 329.537 365.483 329.324 365.155 329.388C363.888 329.638 362.566 329.719 361.214 329.609C360.881 329.582 360.589 329.83 360.562 330.162Z" fill="white"/>
<g style="mix-blend-mode:overlay">
<path d="M349.643 306.128C351.359 303.832 353.677 302.029 356.342 300.933L358.179 302.702C355.433 303.593 353.049 305.341 351.37 307.653L349.643 306.128Z" fill="url(#paint67_linear)"/>
<path d="M370.013 324.114C371.865 322.446 373.179 320.174 373.626 317.574L371.634 315.656C371.633 315.894 371.622 316.134 371.603 316.376C371.511 317.505 371.22 318.57 370.767 319.54L365.32 319.095L365.254 319.912L370.013 324.114Z" fill="url(#paint68_linear)"/>
<path d="M371.634 325.545C373.412 323.886 374.75 321.749 375.435 319.315L377.265 321.077C376.425 323.378 375.072 325.415 373.355 327.065L371.634 325.545Z" fill="url(#paint69_linear)"/>
<path d="M361.54 316.632L361.235 316.364L361.39 314.466L363.53 314.641L363.355 316.781L361.54 316.632Z" fill="url(#paint70_linear)"/>
<path d="M359.226 314.59L358.851 314.258L359.25 314.291L359.226 314.59Z" fill="url(#paint71_linear)"/>
<path d="M354.633 310.534L352.991 309.085C354.633 306.735 357.127 305.05 359.987 304.442L361.987 306.368C358.947 306.491 356.236 308.1 354.633 310.534Z" fill="url(#paint72_linear)"/>
<path d="M364.569 308.855C364.055 308.688 363.514 308.578 362.952 308.532C360.191 308.307 357.67 309.69 356.311 311.897L368.787 312.915L364.569 308.855Z" fill="url(#paint73_linear)"/>
<path d="M365.496 316.955L369.296 317.265C369.377 316.92 369.434 316.566 369.464 316.202C369.493 315.838 369.495 315.479 369.47 315.125L365.67 314.815L365.496 316.955Z" fill="url(#paint74_linear)"/>
</g>
<g style="mix-blend-mode:overlay">
<path fill-rule="evenodd" clip-rule="evenodd" d="M351.288 304.254C350.693 304.833 350.142 305.46 349.643 306.128L351.37 307.653C351.855 306.985 352.399 306.363 352.995 305.796L351.288 304.254ZM354.595 307.244C353.998 307.797 353.46 308.414 352.991 309.085L354.633 310.534C355.079 309.856 355.612 309.242 356.213 308.707L354.595 307.244ZM357.819 310.158C357.229 310.65 356.718 311.237 356.311 311.897L360.083 312.205L357.819 310.158ZM362.702 314.573L361.39 314.466L361.235 316.364L361.54 316.633L363.355 316.781L363.478 315.275L362.702 314.573ZM367.94 319.309L365.32 319.095L365.254 319.912L370.013 324.114C370.552 323.629 371.045 323.093 371.484 322.513L367.94 319.309ZM374.784 325.497L373.085 323.96C372.643 324.527 372.158 325.057 371.634 325.545L373.355 327.065C373.865 326.575 374.343 326.052 374.784 325.497ZM359.226 314.59L358.851 314.259L359.25 314.291L359.226 314.59Z" fill="url(#paint75_linear)"/>
</g>
</g>
<path d="M300.054 53.3125C298.799 50.3244 296.974 47.6084 294.68 45.3159C292.392 43.0194 289.675 41.1936 286.683 39.942C283.617 38.6537 280.324 37.9933 276.997 38.0001H276.886C273.502 38.0168 270.231 38.6864 267.15 40.0034C264.183 41.2678 261.491 43.0969 259.226 45.3884C256.954 47.6758 255.149 50.3823 253.913 53.3572C252.63 56.4507 251.979 59.7692 252 63.1172C252.017 66.99 252.946 70.8348 254.679 74.2723V82.7545C254.679 84.1719 255.831 85.3214 257.246 85.3214H265.735C269.196 87.0641 273.015 87.981 276.891 88H277.009C280.353 88 283.591 87.3527 286.644 86.0859C289.621 84.8493 292.328 83.0448 294.613 80.7734C296.917 78.4911 298.728 75.8237 299.998 72.8493C301.312 69.769 301.983 66.4933 302 63.1116C302.011 59.7132 301.351 56.4152 300.054 53.3125ZM265.835 65.6786C264.359 65.6786 263.157 64.4788 263.157 63C263.157 61.5212 264.359 60.3215 265.835 60.3215C267.312 60.3215 268.514 61.5212 268.514 63C268.514 64.4788 267.317 65.6786 265.835 65.6786ZM276.997 65.6786C275.521 65.6786 274.319 64.4788 274.319 63C274.319 61.5212 275.521 60.3215 276.997 60.3215C278.474 60.3215 279.676 61.5212 279.676 63C279.676 64.4788 278.474 65.6786 276.997 65.6786ZM288.159 65.6786C286.683 65.6786 285.481 64.4788 285.481 63C285.481 61.5212 286.683 60.3215 288.159 60.3215C289.636 60.3215 290.838 61.5212 290.838 63C290.838 64.4788 289.636 65.6786 288.159 65.6786Z" fill="url(#paint76_linear)"/>
<path d="M113.949 80.2688C113.272 78.6552 112.286 77.1885 111.047 75.9506C109.812 74.7105 108.345 73.7245 106.729 73.0487C105.073 72.353 103.295 71.9964 101.499 72H101.438C99.6112 72.0091 97.8447 72.3707 96.1808 73.0818C94.5787 73.7646 93.1253 74.7523 91.9018 75.9898C90.675 77.2249 89.7006 78.6864 89.033 80.2929C88.34 81.9634 87.9889 83.7553 88.0003 85.5633C88.0093 87.6546 88.5106 89.7308 89.4467 91.5871V96.1674C89.4467 96.9328 90.0688 97.5536 90.8328 97.5536H95.4168C97.2856 98.4946 99.3479 98.9898 101.441 99H101.505C103.31 99 105.059 98.6504 106.708 97.9664C108.315 97.2986 109.777 96.3242 111.011 95.0977C112.255 93.8652 113.233 92.4248 113.919 90.8186C114.628 89.1553 114.991 87.3864 115 85.5603C115.006 83.7251 114.65 81.9442 113.949 80.2688ZM95.4711 86.9464C94.6739 86.9464 94.0247 86.2986 94.0247 85.5C94.0247 84.7015 94.6739 84.0536 95.4711 84.0536C96.2684 84.0536 96.9176 84.7015 96.9176 85.5C96.9176 86.2986 96.2714 86.9464 95.4711 86.9464ZM101.499 86.9464C100.701 86.9464 100.052 86.2986 100.052 85.5C100.052 84.7015 100.701 84.0536 101.499 84.0536C102.296 84.0536 102.945 84.7015 102.945 85.5C102.945 86.2986 102.296 86.9464 101.499 86.9464ZM107.526 86.9464C106.729 86.9464 106.08 86.2986 106.08 85.5C106.08 84.7015 106.729 84.0536 107.526 84.0536C108.323 84.0536 108.972 84.7015 108.972 85.5C108.972 86.2986 108.323 86.9464 107.526 86.9464Z" fill="url(#paint77_linear)"/>
<path d="M229.003 57.5813C227.071 52.9796 224.26 48.7969 220.727 45.2665C217.204 41.7299 213.02 38.9181 208.412 36.9907C203.691 35.0067 198.618 33.9897 193.496 34.0001H193.324C188.114 34.0259 183.076 35.0571 178.33 37.0852C173.762 39.0324 169.617 41.8492 166.127 45.3782C162.629 48.9007 159.85 53.0687 157.946 57.6501C155.97 62.4141 154.968 67.5245 155.001 72.6805C155.027 78.6446 156.456 84.5657 159.126 89.8594V102.922C159.126 105.105 160.9 106.875 163.079 106.875H176.152C181.481 109.559 187.363 110.971 193.332 111H193.513C198.663 111 203.649 110.003 208.352 108.052C212.937 106.148 217.105 103.369 220.623 99.8711C224.172 96.3563 226.962 92.2485 228.917 87.668C230.941 82.9242 231.974 77.8797 232 72.6719C232.017 67.4383 231.001 62.3594 229.003 57.5813ZM176.307 76.625C174.033 76.625 172.182 74.7774 172.182 72.5C172.182 70.2227 174.033 68.375 176.307 68.375C178.58 68.375 180.432 70.2227 180.432 72.5C180.432 74.7774 178.589 76.625 176.307 76.625ZM193.496 76.625C191.222 76.625 189.371 74.7774 189.371 72.5C189.371 70.2227 191.222 68.375 193.496 68.375C195.77 68.375 197.621 70.2227 197.621 72.5C197.621 74.7774 195.77 76.625 193.496 76.625ZM210.685 76.625C208.412 76.625 206.56 74.7774 206.56 72.5C206.56 70.2227 208.412 68.375 210.685 68.375C212.959 68.375 214.81 70.2227 214.81 72.5C214.81 74.7774 212.959 76.625 210.685 76.625Z" fill="url(#paint78_linear)"/>
<defs>
<filter id="filter0_dii" x="24.7285" y="102.21" width="335.384" height="335.384" filterUnits="userSpaceOnUse" color-interpolation-filters="sRGB">
<feFlood flood-opacity="0" result="BackgroundImageFix"/>
<feColorMatrix in="SourceAlpha" type="matrix" values="0 0 0 0 0 0 0 0 0 0 0 0 0 0 0 0 0 0 127 0" result="hardAlpha"/>
<feOffset dx="-0.508978" dy="29.1593"/>
<feGaussianBlur stdDeviation="29.1638"/>
<feColorMatrix type="matrix" values="0 0 0 0 0.0658824 0 0 0 0 0.132549 0 0 0 0 0.184314 0 0 0 0.3975 0"/>
<feBlend mode="normal" in2="BackgroundImageFix" result="effect1_dropShadow"/>
<feBlend mode="normal" in="SourceGraphic" in2="effect1_dropShadow" result="shape"/>
<feColorMatrix in="SourceAlpha" type="matrix" values="0 0 0 0 0 0 0 0 0 0 0 0 0 0 0 0 0 0 127 0" result="hardAlpha"/>
<feOffset dx="-0.209247" dy="11.9877"/>
<feGaussianBlur stdDeviation="5.99478"/>
<feComposite in2="hardAlpha" operator="arithmetic" k2="-1" k3="1"/>
<feColorMatrix type="matrix" values="0 0 0 0 0.25098 0 0 0 0 0.701961 0 0 0 0 0.878431 0 0 0 1 0"/>
<feBlend mode="normal" in2="shape" result="effect2_innerShadow"/>
<feColorMatrix in="SourceAlpha" type="matrix" values="0 0 0 0 0 0 0 0 0 0 0 0 0 0 0 0 0 0 127 0" result="hardAlpha"/>
<feOffset dx="0.209247" dy="-11.9877"/>
<feGaussianBlur stdDeviation="5.99478"/>
<feComposite in2="hardAlpha" operator="arithmetic" k2="-1" k3="1"/>
<feColorMatrix type="matrix" values="0 0 0 0 0.25098 0 0 0 0 0.701961 0 0 0 0 0.878431 0 0 0 1 0"/>
<feBlend mode="normal" in2="effect2_innerShadow" result="effect3_innerShadow"/>
</filter>
<filter id="filter1_d" x="369.43" y="219.836" width="37.7368" height="37.7368" filterUnits="userSpaceOnUse" color-interpolation-filters="sRGB">
<feFlood flood-opacity="0" result="BackgroundImageFix"/>
<feColorMatrix in="SourceAlpha" type="matrix" values="0 0 0 0 0 0 0 0 0 0 0 0 0 0 0 0 0 0 127 0" result="hardAlpha"/>
<feOffset/>
<feGaussianBlur stdDeviation="5"/>
<feColorMatrix type="matrix" values="0 0 0 0 1 0 0 0 0 0.927583 0 0 0 0 0.670833 0 0 0 1 0"/>
<feBlend mode="normal" in2="BackgroundImageFix" result="effect1_dropShadow"/>
<feBlend mode="normal" in="SourceGraphic" in2="effect1_dropShadow" result="shape"/>
</filter>
<filter id="filter2_i" x="380.712" y="231.118" width="15.1728" height="16.1558" filterUnits="userSpaceOnUse" color-interpolation-filters="sRGB">
<feFlood flood-opacity="0" result="BackgroundImageFix"/>
<feBlend mode="normal" in="SourceGraphic" in2="BackgroundImageFix" result="shape"/>
<feColorMatrix in="SourceAlpha" type="matrix" values="0 0 0 0 0 0 0 0 0 0 0 0 0 0 0 0 0 0 127 0" result="hardAlpha"/>
<feOffset dy="0.983008"/>
<feGaussianBlur stdDeviation="1.96602"/>
<feComposite in2="hardAlpha" operator="arithmetic" k2="-1" k3="1"/>
<feColorMatrix type="matrix" values="0 0 0 0 0.320833 0 0 0 0 0 0 0 0 0 0 0 0 0 0.25 0"/>
<feBlend mode="normal" in2="shape" result="effect1_innerShadow"/>
</filter>
<filter id="filter3_d" x="34.4797" y="227.364" width="68.7171" height="68.7171" filterUnits="userSpaceOnUse" color-interpolation-filters="sRGB">
<feFlood flood-opacity="0" result="BackgroundImageFix"/>
<feColorMatrix in="SourceAlpha" type="matrix" values="0 0 0 0 0 0 0 0 0 0 0 0 0 0 0 0 0 0 127 0" result="hardAlpha"/>
<feOffset/>
<feGaussianBlur stdDeviation="5"/>
<feColorMatrix type="matrix" values="0 0 0 0 1 0 0 0 0 0.927583 0 0 0 0 0.670833 0 0 0 1 0"/>
<feBlend mode="normal" in2="BackgroundImageFix" result="effect1_dropShadow"/>
<feBlend mode="normal" in="SourceGraphic" in2="effect1_dropShadow" result="shape"/>
</filter>
<filter id="filter4_i" x="48.0008" y="240.884" width="41.6747" height="42.6577" filterUnits="userSpaceOnUse" color-interpolation-filters="sRGB">
<feFlood flood-opacity="0" result="BackgroundImageFix"/>
<feBlend mode="normal" in="SourceGraphic" in2="BackgroundImageFix" result="shape"/>
<feColorMatrix in="SourceAlpha" type="matrix" values="0 0 0 0 0 0 0 0 0 0 0 0 0 0 0 0 0 0 127 0" result="hardAlpha"/>
<feOffset dy="0.983008"/>
<feGaussianBlur stdDeviation="1.96602"/>
<feComposite in2="hardAlpha" operator="arithmetic" k2="-1" k3="1"/>
<feColorMatrix type="matrix" values="0 0 0 0 0.320833 0 0 0 0 0 0 0 0 0 0 0 0 0 0.25 0"/>
<feBlend mode="normal" in2="shape" result="effect1_innerShadow"/>
</filter>
<filter id="filter5_d" x="308.542" y="224.359" width="68.7171" height="68.7171" filterUnits="userSpaceOnUse" color-interpolation-filters="sRGB">
<feFlood flood-opacity="0" result="BackgroundImageFix"/>
<feColorMatrix in="SourceAlpha" type="matrix" values="0 0 0 0 0 0 0 0 0 0 0 0 0 0 0 0 0 0 127 0" result="hardAlpha"/>
<feOffset/>
<feGaussianBlur stdDeviation="5"/>
<feColorMatrix type="matrix" values="0 0 0 0 1 0 0 0 0 0.927583 0 0 0 0 0.670833 0 0 0 1 0"/>
<feBlend mode="normal" in2="BackgroundImageFix" result="effect1_dropShadow"/>
<feBlend mode="normal" in="SourceGraphic" in2="effect1_dropShadow" result="shape"/>
</filter>
<filter id="filter6_i" x="322.063" y="237.879" width="41.6747" height="42.6577" filterUnits="userSpaceOnUse" color-interpolation-filters="sRGB">
<feFlood flood-opacity="0" result="BackgroundImageFix"/>
<feBlend mode="normal" in="SourceGraphic" in2="BackgroundImageFix" result="shape"/>
<feColorMatrix in="SourceAlpha" type="matrix" values="0 0 0 0 0 0 0 0 0 0 0 0 0 0 0 0 0 0 127 0" result="hardAlpha"/>
<feOffset dy="0.983008"/>
<feGaussianBlur stdDeviation="1.96602"/>
<feComposite in2="hardAlpha" operator="arithmetic" k2="-1" k3="1"/>
<feColorMatrix type="matrix" values="0 0 0 0 0.320833 0 0 0 0 0 0 0 0 0 0 0 0 0 0.25 0"/>
<feBlend mode="normal" in2="shape" result="effect1_innerShadow"/>
</filter>
<filter id="filter7_d" x="33.1325" y="296.639" width="84.0765" height="84.0765" filterUnits="userSpaceOnUse" color-interpolation-filters="sRGB">
<feFlood flood-opacity="0" result="BackgroundImageFix"/>
<feColorMatrix in="SourceAlpha" type="matrix" values="0 0 0 0 0 0 0 0 0 0 0 0 0 0 0 0 0 0 127 0" result="hardAlpha"/>
<feOffset/>
<feGaussianBlur stdDeviation="5"/>
<feColorMatrix type="matrix" values="0 0 0 0 1 0 0 0 0 0.927583 0 0 0 0 0.670833 0 0 0 1 0"/>
<feBlend mode="normal" in2="BackgroundImageFix" result="effect1_dropShadow"/>
<feBlend mode="normal" in="SourceGraphic" in2="effect1_dropShadow" result="shape"/>
</filter>
<filter id="filter8_i" x="47.7638" y="311.271" width="54.8138" height="55.7968" filterUnits="userSpaceOnUse" color-interpolation-filters="sRGB">
<feFlood flood-opacity="0" result="BackgroundImageFix"/>
<feBlend mode="normal" in="SourceGraphic" in2="BackgroundImageFix" result="shape"/>
<feColorMatrix in="SourceAlpha" type="matrix" values="0 0 0 0 0 0 0 0 0 0 0 0 0 0 0 0 0 0 127 0" result="hardAlpha"/>
<feOffset dy="0.983008"/>
<feGaussianBlur stdDeviation="1.96602"/>
<feComposite in2="hardAlpha" operator="arithmetic" k2="-1" k3="1"/>
<feColorMatrix type="matrix" values="0 0 0 0 0.320833 0 0 0 0 0 0 0 0 0 0 0 0 0 0.25 0"/>
<feBlend mode="normal" in2="shape" result="effect1_innerShadow"/>
</filter>
<filter id="filter9_d" x="252.238" y="300.615" width="89.2157" height="89.2157" filterUnits="userSpaceOnUse" color-interpolation-filters="sRGB">
<feFlood flood-opacity="0" result="BackgroundImageFix"/>
<feColorMatrix in="SourceAlpha" type="matrix" values="0 0 0 0 0 0 0 0 0 0 0 0 0 0 0 0 0 0 127 0" result="hardAlpha"/>
<feOffset/>
<feGaussianBlur stdDeviation="5"/>
<feColorMatrix type="matrix" values="0 0 0 0 1 0 0 0 0 0.927583 0 0 0 0 0.670833 0 0 0 1 0"/>
<feBlend mode="normal" in2="BackgroundImageFix" result="effect1_dropShadow"/>
<feBlend mode="normal" in="SourceGraphic" in2="effect1_dropShadow" result="shape"/>
</filter>
<filter id="filter10_i" x="267.24" y="315.618" width="59.2101" height="60.1931" filterUnits="userSpaceOnUse" color-interpolation-filters="sRGB">
<feFlood flood-opacity="0" result="BackgroundImageFix"/>
<feBlend mode="normal" in="SourceGraphic" in2="BackgroundImageFix" result="shape"/>
<feColorMatrix in="SourceAlpha" type="matrix" values="0 0 0 0 0 0 0 0 0 0 0 0 0 0 0 0 0 0 127 0" result="hardAlpha"/>
<feOffset dy="0.983008"/>
<feGaussianBlur stdDeviation="1.96602"/>
<feComposite in2="hardAlpha" operator="arithmetic" k2="-1" k3="1"/>
<feColorMatrix type="matrix" values="0 0 0 0 0.320833 0 0 0 0 0 0 0 0 0 0 0 0 0 0.25 0"/>
<feBlend mode="normal" in2="shape" result="effect1_innerShadow"/>
</filter>
<filter id="filter11_d" x="0" y="269.978" width="54.2223" height="54.2223" filterUnits="userSpaceOnUse" color-interpolation-filters="sRGB">
<feFlood flood-opacity="0" result="BackgroundImageFix"/>
<feColorMatrix in="SourceAlpha" type="matrix" values="0 0 0 0 0 0 0 0 0 0 0 0 0 0 0 0 0 0 127 0" result="hardAlpha"/>
<feOffset/>
<feGaussianBlur stdDeviation="5"/>
<feColorMatrix type="matrix" values="0 0 0 0 1 0 0 0 0 0.927583 0 0 0 0 0.670833 0 0 0 1 0"/>
<feBlend mode="normal" in2="BackgroundImageFix" result="effect1_dropShadow"/>
<feBlend mode="normal" in="SourceGraphic" in2="effect1_dropShadow" result="shape"/>
</filter>
<filter id="filter12_i" x="12.4735" y="282.451" width="29.2753" height="30.2583" filterUnits="userSpaceOnUse" color-interpolation-filters="sRGB">
<feFlood flood-opacity="0" result="BackgroundImageFix"/>
<feBlend mode="normal" in="SourceGraphic" in2="BackgroundImageFix" result="shape"/>
<feColorMatrix in="SourceAlpha" type="matrix" values="0 0 0 0 0 0 0 0 0 0 0 0 0 0 0 0 0 0 127 0" result="hardAlpha"/>
<feOffset dy="0.983008"/>
<feGaussianBlur stdDeviation="1.96602"/>
<feComposite in2="hardAlpha" operator="arithmetic" k2="-1" k3="1"/>
<feColorMatrix type="matrix" values="0 0 0 0 0.320833 0 0 0 0 0 0 0 0 0 0 0 0 0 0.25 0"/>
<feBlend mode="normal" in2="shape" result="effect1_innerShadow"/>
</filter>
<filter id="filter13_d" x="4.82961" y="206" width="37.7368" height="37.7368" filterUnits="userSpaceOnUse" color-interpolation-filters="sRGB">
<feFlood flood-opacity="0" result="BackgroundImageFix"/>
<feColorMatrix in="SourceAlpha" type="matrix" values="0 0 0 0 0 0 0 0 0 0 0 0 0 0 0 0 0 0 127 0" result="hardAlpha"/>
<feOffset/>
<feGaussianBlur stdDeviation="5"/>
<feColorMatrix type="matrix" values="0 0 0 0 1 0 0 0 0 0.927583 0 0 0 0 0.670833 0 0 0 1 0"/>
<feBlend mode="normal" in2="BackgroundImageFix" result="effect1_dropShadow"/>
<feBlend mode="normal" in="SourceGraphic" in2="effect1_dropShadow" result="shape"/>
</filter>
<filter id="filter14_i" x="16.1116" y="217.282" width="15.1728" height="16.1558" filterUnits="userSpaceOnUse" color-interpolation-filters="sRGB">
<feFlood flood-opacity="0" result="BackgroundImageFix"/>
<feBlend mode="normal" in="SourceGraphic" in2="BackgroundImageFix" result="shape"/>
<feColorMatrix in="SourceAlpha" type="matrix" values="0 0 0 0 0 0 0 0 0 0 0 0 0 0 0 0 0 0 127 0" result="hardAlpha"/>
<feOffset dy="0.983008"/>
<feGaussianBlur stdDeviation="1.96602"/>
<feComposite in2="hardAlpha" operator="arithmetic" k2="-1" k3="1"/>
<feColorMatrix type="matrix" values="0 0 0 0 0.320833 0 0 0 0 0 0 0 0 0 0 0 0 0 0.25 0"/>
<feBlend mode="normal" in2="shape" result="effect1_innerShadow"/>
</filter>
<filter id="filter15_d" x="335.207" y="288.507" width="54.2223" height="54.2223" filterUnits="userSpaceOnUse" color-interpolation-filters="sRGB">
<feFlood flood-opacity="0" result="BackgroundImageFix"/>
<feColorMatrix in="SourceAlpha" type="matrix" values="0 0 0 0 0 0 0 0 0 0 0 0 0 0 0 0 0 0 127 0" result="hardAlpha"/>
<feOffset/>
<feGaussianBlur stdDeviation="5"/>
<feColorMatrix type="matrix" values="0 0 0 0 1 0 0 0 0 0.927583 0 0 0 0 0.670833 0 0 0 1 0"/>
<feBlend mode="normal" in2="BackgroundImageFix" result="effect1_dropShadow"/>
<feBlend mode="normal" in="SourceGraphic" in2="effect1_dropShadow" result="shape"/>
</filter>
<filter id="filter16_i" x="347.681" y="300.98" width="29.2753" height="30.2583" filterUnits="userSpaceOnUse" color-interpolation-filters="sRGB">
<feFlood flood-opacity="0" result="BackgroundImageFix"/>
<feBlend mode="normal" in="SourceGraphic" in2="BackgroundImageFix" result="shape"/>
<feColorMatrix in="SourceAlpha" type="matrix" values="0 0 0 0 0 0 0 0 0 0 0 0 0 0 0 0 0 0 127 0" result="hardAlpha"/>
<feOffset dy="0.983008"/>
<feGaussianBlur stdDeviation="1.96602"/>
<feComposite in2="hardAlpha" operator="arithmetic" k2="-1" k3="1"/>
<feColorMatrix type="matrix" values="0 0 0 0 0.320833 0 0 0 0 0 0 0 0 0 0 0 0 0 0.25 0"/>
<feBlend mode="normal" in2="shape" result="effect1_innerShadow"/>
</filter>
<linearGradient id="paint0_linear" x1="166.632" y1="9.39673" x2="159" y2="47.8912" gradientUnits="userSpaceOnUse">
<stop stop-color="#1877F2"/>
<stop offset="1" stop-color="#1877F2" stop-opacity="0"/>
</linearGradient>
<linearGradient id="paint1_linear" x1="87.4527" y1="133.347" x2="132.497" y2="188.351" gradientUnits="userSpaceOnUse">
<stop stop-color="white"/>
<stop offset="1" stop-color="white" stop-opacity="0"/>
</linearGradient>
<linearGradient id="paint2_linear" x1="297.65" y1="350.853" x2="256.503" y2="305.77" gradientUnits="userSpaceOnUse">
<stop stop-color="white"/>
<stop offset="1" stop-color="white" stop-opacity="0"/>
</linearGradient>
<linearGradient id="paint3_linear" x1="81.4767" y1="361.553" x2="165.792" y2="258.596" gradientUnits="userSpaceOnUse">
<stop stop-color="white"/>
<stop offset="1" stop-color="white" stop-opacity="0"/>
</linearGradient>
<linearGradient id="paint4_linear" x1="394.763" y1="231.646" x2="388.554" y2="244.669" gradientUnits="userSpaceOnUse">
<stop stop-color="white"/>
<stop offset="1" stop-color="white" stop-opacity="0"/>
</linearGradient>
<linearGradient id="paint5_linear" x1="394.763" y1="231.646" x2="388.554" y2="244.669" gradientUnits="userSpaceOnUse">
<stop stop-color="white"/>
<stop offset="1" stop-color="white" stop-opacity="0"/>
</linearGradient>
<linearGradient id="paint6_linear" x1="394.763" y1="231.646" x2="388.554" y2="244.669" gradientUnits="userSpaceOnUse">
<stop stop-color="white"/>
<stop offset="1" stop-color="white" stop-opacity="0"/>
</linearGradient>
<linearGradient id="paint7_linear" x1="394.763" y1="231.646" x2="388.554" y2="244.669" gradientUnits="userSpaceOnUse">
<stop stop-color="white"/>
<stop offset="1" stop-color="white" stop-opacity="0"/>
</linearGradient>
<linearGradient id="paint8_linear" x1="394.763" y1="231.646" x2="388.554" y2="244.669" gradientUnits="userSpaceOnUse">
<stop stop-color="white"/>
<stop offset="1" stop-color="white" stop-opacity="0"/>
</linearGradient>
<linearGradient id="paint9_linear" x1="394.763" y1="231.646" x2="388.554" y2="244.669" gradientUnits="userSpaceOnUse">
<stop stop-color="white"/>
<stop offset="1" stop-color="white" stop-opacity="0"/>
</linearGradient>
<linearGradient id="paint10_linear" x1="394.763" y1="231.646" x2="388.554" y2="244.669" gradientUnits="userSpaceOnUse">
<stop stop-color="white"/>
<stop offset="1" stop-color="white" stop-opacity="0"/>
</linearGradient>
<linearGradient id="paint11_linear" x1="394.763" y1="231.646" x2="388.554" y2="244.669" gradientUnits="userSpaceOnUse">
<stop stop-color="white"/>
<stop offset="1" stop-color="white" stop-opacity="0"/>
</linearGradient>
<linearGradient id="paint12_linear" x1="394.763" y1="231.646" x2="388.554" y2="244.669" gradientUnits="userSpaceOnUse">
<stop stop-color="white"/>
<stop offset="1" stop-color="white" stop-opacity="0"/>
</linearGradient>
<linearGradient id="paint13_linear" x1="77.813" y1="240.391" x2="74.2738" y2="275.091" gradientUnits="userSpaceOnUse">
<stop stop-color="white"/>
<stop offset="1" stop-color="white" stop-opacity="0"/>
</linearGradient>
<linearGradient id="paint14_linear" x1="77.813" y1="240.391" x2="74.2738" y2="275.091" gradientUnits="userSpaceOnUse">
<stop stop-color="white"/>
<stop offset="1" stop-color="white" stop-opacity="0"/>
</linearGradient>
<linearGradient id="paint15_linear" x1="77.813" y1="240.391" x2="74.2738" y2="275.091" gradientUnits="userSpaceOnUse">
<stop stop-color="white"/>
<stop offset="1" stop-color="white" stop-opacity="0"/>
</linearGradient>
<linearGradient id="paint16_linear" x1="77.813" y1="240.391" x2="74.2738" y2="275.091" gradientUnits="userSpaceOnUse">
<stop stop-color="white"/>
<stop offset="1" stop-color="white" stop-opacity="0"/>
</linearGradient>
<linearGradient id="paint17_linear" x1="77.813" y1="240.391" x2="74.2738" y2="275.091" gradientUnits="userSpaceOnUse">
<stop stop-color="white"/>
<stop offset="1" stop-color="white" stop-opacity="0"/>
</linearGradient>
<linearGradient id="paint18_linear" x1="77.813" y1="240.391" x2="74.2738" y2="275.091" gradientUnits="userSpaceOnUse">
<stop stop-color="white"/>
<stop offset="1" stop-color="white" stop-opacity="0"/>
</linearGradient>
<linearGradient id="paint19_linear" x1="77.813" y1="240.391" x2="74.2738" y2="275.091" gradientUnits="userSpaceOnUse">
<stop stop-color="white"/>
<stop offset="1" stop-color="white" stop-opacity="0"/>
</linearGradient>
<linearGradient id="paint20_linear" x1="77.813" y1="240.391" x2="74.2738" y2="275.091" gradientUnits="userSpaceOnUse">
<stop stop-color="white"/>
<stop offset="1" stop-color="white" stop-opacity="0"/>
</linearGradient>
<linearGradient id="paint21_linear" x1="77.813" y1="240.392" x2="74.2738" y2="275.091" gradientUnits="userSpaceOnUse">
<stop stop-color="white"/>
<stop offset="1" stop-color="white" stop-opacity="0"/>
</linearGradient>
<linearGradient id="paint22_linear" x1="351.875" y1="237.386" x2="348.336" y2="272.086" gradientUnits="userSpaceOnUse">
<stop stop-color="white"/>
<stop offset="1" stop-color="white" stop-opacity="0"/>
</linearGradient>
<linearGradient id="paint23_linear" x1="351.875" y1="237.386" x2="348.336" y2="272.086" gradientUnits="userSpaceOnUse">
<stop stop-color="white"/>
<stop offset="1" stop-color="white" stop-opacity="0"/>
</linearGradient>
<linearGradient id="paint24_linear" x1="351.875" y1="237.386" x2="348.336" y2="272.086" gradientUnits="userSpaceOnUse">
<stop stop-color="white"/>
<stop offset="1" stop-color="white" stop-opacity="0"/>
</linearGradient>
<linearGradient id="paint25_linear" x1="351.875" y1="237.386" x2="348.336" y2="272.086" gradientUnits="userSpaceOnUse">
<stop stop-color="white"/>
<stop offset="1" stop-color="white" stop-opacity="0"/>
</linearGradient>
<linearGradient id="paint26_linear" x1="351.875" y1="237.386" x2="348.336" y2="272.086" gradientUnits="userSpaceOnUse">
<stop stop-color="white"/>
<stop offset="1" stop-color="white" stop-opacity="0"/>
</linearGradient>
<linearGradient id="paint27_linear" x1="351.875" y1="237.386" x2="348.336" y2="272.086" gradientUnits="userSpaceOnUse">
<stop stop-color="white"/>
<stop offset="1" stop-color="white" stop-opacity="0"/>
</linearGradient>
<linearGradient id="paint28_linear" x1="351.875" y1="237.386" x2="348.336" y2="272.086" gradientUnits="userSpaceOnUse">
<stop stop-color="white"/>
<stop offset="1" stop-color="white" stop-opacity="0"/>
</linearGradient>
<linearGradient id="paint29_linear" x1="351.875" y1="237.386" x2="348.336" y2="272.086" gradientUnits="userSpaceOnUse">
<stop stop-color="white"/>
<stop offset="1" stop-color="white" stop-opacity="0"/>
</linearGradient>
<linearGradient id="paint30_linear" x1="351.875" y1="237.387" x2="348.336" y2="272.086" gradientUnits="userSpaceOnUse">
<stop stop-color="white"/>
<stop offset="1" stop-color="white" stop-opacity="0"/>
</linearGradient>
<linearGradient id="paint31_linear" x1="86.9752" y1="310.622" x2="82.3201" y2="356.261" gradientUnits="userSpaceOnUse">
<stop stop-color="white"/>
<stop offset="1" stop-color="white" stop-opacity="0"/>
</linearGradient>
<linearGradient id="paint32_linear" x1="86.9752" y1="310.622" x2="82.3201" y2="356.261" gradientUnits="userSpaceOnUse">
<stop stop-color="white"/>
<stop offset="1" stop-color="white" stop-opacity="0"/>
</linearGradient>
<linearGradient id="paint33_linear" x1="86.9752" y1="310.622" x2="82.3201" y2="356.261" gradientUnits="userSpaceOnUse">
<stop stop-color="white"/>
<stop offset="1" stop-color="white" stop-opacity="0"/>
</linearGradient>
<linearGradient id="paint34_linear" x1="86.9752" y1="310.622" x2="82.3201" y2="356.261" gradientUnits="userSpaceOnUse">
<stop stop-color="white"/>
<stop offset="1" stop-color="white" stop-opacity="0"/>
</linearGradient>
<linearGradient id="paint35_linear" x1="86.9752" y1="310.622" x2="82.3201" y2="356.261" gradientUnits="userSpaceOnUse">
<stop stop-color="white"/>
<stop offset="1" stop-color="white" stop-opacity="0"/>
</linearGradient>
<linearGradient id="paint36_linear" x1="86.9752" y1="310.622" x2="82.3201" y2="356.261" gradientUnits="userSpaceOnUse">
<stop stop-color="white"/>
<stop offset="1" stop-color="white" stop-opacity="0"/>
</linearGradient>
<linearGradient id="paint37_linear" x1="86.9752" y1="310.622" x2="82.3201" y2="356.261" gradientUnits="userSpaceOnUse">
<stop stop-color="white"/>
<stop offset="1" stop-color="white" stop-opacity="0"/>
</linearGradient>
<linearGradient id="paint38_linear" x1="86.9752" y1="310.622" x2="82.3201" y2="356.261" gradientUnits="userSpaceOnUse">
<stop stop-color="white"/>
<stop offset="1" stop-color="white" stop-opacity="0"/>
</linearGradient>
<linearGradient id="paint39_linear" x1="86.9752" y1="310.622" x2="82.3201" y2="356.261" gradientUnits="userSpaceOnUse">
<stop stop-color="white"/>
<stop offset="1" stop-color="white" stop-opacity="0"/>
</linearGradient>
<linearGradient id="paint40_linear" x1="323.752" y1="330.992" x2="291.239" y2="363.358" gradientUnits="userSpaceOnUse">
<stop stop-color="white"/>
<stop offset="1" stop-color="white" stop-opacity="0"/>
</linearGradient>
<linearGradient id="paint41_linear" x1="323.752" y1="330.992" x2="291.239" y2="363.358" gradientUnits="userSpaceOnUse">
<stop stop-color="white"/>
<stop offset="1" stop-color="white" stop-opacity="0"/>
</linearGradient>
<linearGradient id="paint42_linear" x1="323.752" y1="330.992" x2="291.239" y2="363.358" gradientUnits="userSpaceOnUse">
<stop stop-color="white"/>
<stop offset="1" stop-color="white" stop-opacity="0"/>
</linearGradient>
<linearGradient id="paint43_linear" x1="323.752" y1="330.992" x2="291.239" y2="363.358" gradientUnits="userSpaceOnUse">
<stop stop-color="white"/>
<stop offset="1" stop-color="white" stop-opacity="0"/>
</linearGradient>
<linearGradient id="paint44_linear" x1="323.752" y1="330.992" x2="291.239" y2="363.358" gradientUnits="userSpaceOnUse">
<stop stop-color="white"/>
<stop offset="1" stop-color="white" stop-opacity="0"/>
</linearGradient>
<linearGradient id="paint45_linear" x1="323.752" y1="330.992" x2="291.239" y2="363.358" gradientUnits="userSpaceOnUse">
<stop stop-color="white"/>
<stop offset="1" stop-color="white" stop-opacity="0"/>
</linearGradient>
<linearGradient id="paint46_linear" x1="323.752" y1="330.992" x2="291.239" y2="363.358" gradientUnits="userSpaceOnUse">
<stop stop-color="white"/>
<stop offset="1" stop-color="white" stop-opacity="0"/>
</linearGradient>
<linearGradient id="paint47_linear" x1="323.752" y1="330.992" x2="291.239" y2="363.358" gradientUnits="userSpaceOnUse">
<stop stop-color="white"/>
<stop offset="1" stop-color="white" stop-opacity="0"/>
</linearGradient>
<linearGradient id="paint48_linear" x1="323.752" y1="330.992" x2="291.239" y2="363.357" gradientUnits="userSpaceOnUse">
<stop stop-color="white"/>
<stop offset="1" stop-color="white" stop-opacity="0"/>
</linearGradient>
<linearGradient id="paint49_linear" x1="39.5848" y1="283.469" x2="27.6058" y2="308.596" gradientUnits="userSpaceOnUse">
<stop stop-color="white"/>
<stop offset="1" stop-color="white" stop-opacity="0"/>
</linearGradient>
<linearGradient id="paint50_linear" x1="39.5848" y1="283.469" x2="27.6058" y2="308.596" gradientUnits="userSpaceOnUse">
<stop stop-color="white"/>
<stop offset="1" stop-color="white" stop-opacity="0"/>
</linearGradient>
<linearGradient id="paint51_linear" x1="39.5848" y1="283.469" x2="27.6058" y2="308.596" gradientUnits="userSpaceOnUse">
<stop stop-color="white"/>
<stop offset="1" stop-color="white" stop-opacity="0"/>
</linearGradient>
<linearGradient id="paint52_linear" x1="39.5848" y1="283.469" x2="27.6058" y2="308.596" gradientUnits="userSpaceOnUse">
<stop stop-color="white"/>
<stop offset="1" stop-color="white" stop-opacity="0"/>
</linearGradient>
<linearGradient id="paint53_linear" x1="39.5848" y1="283.469" x2="27.6058" y2="308.596" gradientUnits="userSpaceOnUse">
<stop stop-color="white"/>
<stop offset="1" stop-color="white" stop-opacity="0"/>
</linearGradient>
<linearGradient id="paint54_linear" x1="39.5848" y1="283.469" x2="27.6058" y2="308.596" gradientUnits="userSpaceOnUse">
<stop stop-color="white"/>
<stop offset="1" stop-color="white" stop-opacity="0"/>
</linearGradient>
<linearGradient id="paint55_linear" x1="39.5848" y1="283.469" x2="27.6058" y2="308.596" gradientUnits="userSpaceOnUse">
<stop stop-color="white"/>
<stop offset="1" stop-color="white" stop-opacity="0"/>
</linearGradient>
<linearGradient id="paint56_linear" x1="39.5848" y1="283.469" x2="27.6058" y2="308.596" gradientUnits="userSpaceOnUse">
<stop stop-color="white"/>
<stop offset="1" stop-color="white" stop-opacity="0"/>
</linearGradient>
<linearGradient id="paint57_linear" x1="39.5848" y1="283.469" x2="27.6058" y2="308.596" gradientUnits="userSpaceOnUse">
<stop stop-color="white"/>
<stop offset="1" stop-color="white" stop-opacity="0"/>
</linearGradient>
<linearGradient id="paint58_linear" x1="30.1629" y1="217.809" x2="23.9544" y2="230.832" gradientUnits="userSpaceOnUse">
<stop stop-color="white"/>
<stop offset="1" stop-color="white" stop-opacity="0"/>
</linearGradient>
<linearGradient id="paint59_linear" x1="30.1629" y1="217.809" x2="23.9544" y2="230.832" gradientUnits="userSpaceOnUse">
<stop stop-color="white"/>
<stop offset="1" stop-color="white" stop-opacity="0"/>
</linearGradient>
<linearGradient id="paint60_linear" x1="30.1629" y1="217.809" x2="23.9544" y2="230.832" gradientUnits="userSpaceOnUse">
<stop stop-color="white"/>
<stop offset="1" stop-color="white" stop-opacity="0"/>
</linearGradient>
<linearGradient id="paint61_linear" x1="30.1629" y1="217.809" x2="23.9544" y2="230.832" gradientUnits="userSpaceOnUse">
<stop stop-color="white"/>
<stop offset="1" stop-color="white" stop-opacity="0"/>
</linearGradient>
<linearGradient id="paint62_linear" x1="30.1629" y1="217.809" x2="23.9544" y2="230.832" gradientUnits="userSpaceOnUse">
<stop stop-color="white"/>
<stop offset="1" stop-color="white" stop-opacity="0"/>
</linearGradient>
<linearGradient id="paint63_linear" x1="30.1629" y1="217.809" x2="23.9544" y2="230.832" gradientUnits="userSpaceOnUse">
<stop stop-color="white"/>
<stop offset="1" stop-color="white" stop-opacity="0"/>
</linearGradient>
<linearGradient id="paint64_linear" x1="30.1629" y1="217.809" x2="23.9544" y2="230.832" gradientUnits="userSpaceOnUse">
<stop stop-color="white"/>
<stop offset="1" stop-color="white" stop-opacity="0"/>
</linearGradient>
<linearGradient id="paint65_linear" x1="30.1629" y1="217.809" x2="23.9544" y2="230.832" gradientUnits="userSpaceOnUse">
<stop stop-color="white"/>
<stop offset="1" stop-color="white" stop-opacity="0"/>
</linearGradient>
<linearGradient id="paint66_linear" x1="30.1629" y1="217.809" x2="23.9544" y2="230.832" gradientUnits="userSpaceOnUse">
<stop stop-color="white"/>
<stop offset="1" stop-color="white" stop-opacity="0"/>
</linearGradient>
<linearGradient id="paint67_linear" x1="374.792" y1="301.998" x2="362.813" y2="327.126" gradientUnits="userSpaceOnUse">
<stop stop-color="white"/>
<stop offset="1" stop-color="white" stop-opacity="0"/>
</linearGradient>
<linearGradient id="paint68_linear" x1="374.792" y1="301.998" x2="362.813" y2="327.126" gradientUnits="userSpaceOnUse">
<stop stop-color="white"/>
<stop offset="1" stop-color="white" stop-opacity="0"/>
</linearGradient>
<linearGradient id="paint69_linear" x1="374.792" y1="301.998" x2="362.813" y2="327.126" gradientUnits="userSpaceOnUse">
<stop stop-color="white"/>
<stop offset="1" stop-color="white" stop-opacity="0"/>
</linearGradient>
<linearGradient id="paint70_linear" x1="374.792" y1="301.998" x2="362.813" y2="327.126" gradientUnits="userSpaceOnUse">
<stop stop-color="white"/>
<stop offset="1" stop-color="white" stop-opacity="0"/>
</linearGradient>
<linearGradient id="paint71_linear" x1="374.792" y1="301.998" x2="362.813" y2="327.126" gradientUnits="userSpaceOnUse">
<stop stop-color="white"/>
<stop offset="1" stop-color="white" stop-opacity="0"/>
</linearGradient>
<linearGradient id="paint72_linear" x1="374.792" y1="301.998" x2="362.813" y2="327.126" gradientUnits="userSpaceOnUse">
<stop stop-color="white"/>
<stop offset="1" stop-color="white" stop-opacity="0"/>
</linearGradient>
<linearGradient id="paint73_linear" x1="374.792" y1="301.998" x2="362.813" y2="327.126" gradientUnits="userSpaceOnUse">
<stop stop-color="white"/>
<stop offset="1" stop-color="white" stop-opacity="0"/>
</linearGradient>
<linearGradient id="paint74_linear" x1="374.792" y1="301.998" x2="362.813" y2="327.126" gradientUnits="userSpaceOnUse">
<stop stop-color="white"/>
<stop offset="1" stop-color="white" stop-opacity="0"/>
</linearGradient>
<linearGradient id="paint75_linear" x1="374.792" y1="301.998" x2="362.813" y2="327.126" gradientUnits="userSpaceOnUse">
<stop stop-color="white"/>
<stop offset="1" stop-color="white" stop-opacity="0"/>
</linearGradient>
<linearGradient id="paint76_linear" x1="288.223" y1="51.8187" x2="277" y2="108.428" gradientUnits="userSpaceOnUse">
<stop stop-color="#1877F2"/>
<stop offset="1" stop-color="#1877F2" stop-opacity="0"/>
</linearGradient>
<linearGradient id="paint77_linear" x1="107.561" y1="79.4621" x2="101.5" y2="110.031" gradientUnits="userSpaceOnUse">
<stop stop-color="#1877F2"/>
<stop offset="1" stop-color="#1877F2" stop-opacity="0"/>
</linearGradient>
<linearGradient id="paint78_linear" x1="210.784" y1="55.2808" x2="193.5" y2="142.459" gradientUnits="userSpaceOnUse">
<stop stop-color="#1877F2"/>
<stop offset="1" stop-color="#1877F2" stop-opacity="0"/>
</linearGradient>
</defs>
</svg>
