<svg width="542" height="421" viewBox="0 0 542 421" fill="none" xmlns="http://www.w3.org/2000/svg">
<mask id="mask0" style="mask-type:alpha" maskUnits="userSpaceOnUse" x="0" y="0" width="542" height="421">
<rect x="0.026123" y="0.169434" width="541" height="420.778" fill="#C4C4C4"/>
</mask>
<g mask="url(#mask0)">
<path fill-rule="evenodd" clip-rule="evenodd" d="M492.842 272.16C497.277 224.185 514.792 166.19 456.987 137.17C399.676 108.399 323.467 141.707 253.256 151.883C181.619 162.265 122.607 148.551 88.4827 191.583C53.9767 235.096 68.9095 290.306 111.594 330.521C145.079 362.069 199.629 374.887 255.818 384.886C316.131 395.618 383.082 411.988 433.813 387.861C486.304 362.896 488.889 314.918 492.842 272.16Z" fill="url(#paint0_linear)"/>
<g filter="url(#filter0_dii)">
<rect x="45.6345" y="68.4001" width="199.02" height="199.02" rx="99.5102" transform="rotate(-18.3274 45.6345 68.4001)" fill="#54A9EB"/>
</g>
<path fill-rule="evenodd" clip-rule="evenodd" d="M166.465 107.207L168.014 111.081L163.858 111.92C148.701 114.882 133.912 112.798 119.625 105.804L112.614 102.307L112.538 106.629C112.521 116.214 117.378 124.72 125.402 128.866C129.72 131.195 129.162 131.918 122.98 131.727C120.849 131.717 119.01 131.789 118.931 132.084C118.558 132.834 122.908 139.539 125.388 141.941C128.801 145.286 134.346 147.836 139.755 148.64L144.285 149.198L139.677 150.814C135.203 152.296 135.07 152.43 136.11 153.965C139.445 158.679 147.601 162.154 155.434 162.245L160.95 162.298L157.49 166.309C152.327 172.137 145.51 176.723 138.053 179.372C134.484 180.644 131.634 181.946 131.715 182.188C131.982 182.994 143.226 184.283 149.488 184.178C168.244 183.784 187.711 174.829 199.927 160.846C208.603 150.9 215.195 134.662 216.167 120.732C216.72 113.298 215.482 100.46 213.584 94.7322C212.355 91.0215 212.435 90.4581 215.44 84.5391C217.221 81.0843 218.763 77.4404 218.975 76.4749C219.267 74.6776 219.187 74.704 215.566 77.4253C209.576 82.0951 208.51 82.09 210.664 77.3483C212.286 73.9464 213.692 68.2883 213.238 66.917C213.158 66.675 212.093 67.4753 210.975 68.6513C209.804 69.9344 207.008 72.2032 204.852 73.7232L200.991 76.5238L196.194 75.1587C193.556 74.4214 189.985 73.8138 188.227 73.8591C183.777 74.0796 177.598 76.3055 174.35 78.8137C165.565 85.7523 162.352 97.2007 166.465 107.207Z" fill="white"/>
<g style="mix-blend-mode:overlay">
<path fill-rule="evenodd" clip-rule="evenodd" d="M276.935 167.015C280.886 178.941 274.42 191.811 262.495 195.762L223.298 208.745C220.436 209.694 217.347 208.142 216.399 205.28C215.451 202.417 217.003 199.329 219.865 198.381L259.061 185.397C265.263 183.343 268.625 176.65 266.57 170.449L253.587 131.252C252.639 128.39 254.19 125.301 257.052 124.353C259.915 123.405 263.003 124.957 263.952 127.819L276.935 167.015Z" fill="url(#paint1_linear)"/>
</g>
<g style="mix-blend-mode:overlay">
<path fill-rule="evenodd" clip-rule="evenodd" d="M96.2345 189.647C116.958 218.547 153.56 228.805 182.421 225.288C182.421 225.288 232.533 215.858 245.278 184.77C258.024 153.682 265.353 141.893 257.633 118.586C255.858 113.229 242.563 53.278 237.205 55.0527L211.64 86.8457C200.032 90.6908 187.505 84.3976 183.66 72.7896L96.2345 125.074C94.4598 119.716 88.6779 116.812 83.3204 118.586C77.9628 120.361 74.2808 137.219 76.0555 142.576C76.0555 142.576 75.5107 160.748 96.2345 189.647Z" fill="url(#paint2_linear)"/>
</g>
<g filter="url(#filter1_d)">
<path d="M350.943 243.207C338.989 250.305 321.955 250.305 310.75 245.489C302.527 241.955 291.654 234.294 286.968 220.614" stroke="url(#paint3_linear)" stroke-width="21.8057" stroke-linecap="round"/>
<path d="M314.279 239.528C312.97 241.693 311.295 244.258 310.944 251.13" stroke="#C7D2D7" stroke-opacity="0.3" stroke-width="5.14856" stroke-linecap="round"/>
<path d="M322.838 242.905C322.005 244.219 320.896 245.795 321.966 249.338" stroke="#C7D2D7" stroke-opacity="0.3" stroke-width="5.14856" stroke-linecap="round"/>
<path d="M306.583 237.347C305.397 238.148 303.905 239.066 302.833 242.57" stroke="#C7D2D7" stroke-opacity="0.3" stroke-width="5.14856" stroke-linecap="round"/>
</g>
<g filter="url(#filter2_d)">
<path d="M365.416 227.18C353.396 226.727 342.52 234.366 339.905 246.106C334.011 272.572 329.686 307.297 335.702 318.281C342.307 330.341 357.956 334.521 368.001 335.416L368 335.441C368.689 335.499 369.443 335.543 370.252 335.568C371.061 335.604 371.817 335.617 372.508 335.61L372.509 335.585C382.593 335.448 398.512 332.455 406.004 320.926C412.828 310.425 411.125 275.473 407.236 248.639C405.511 236.735 395.239 228.302 383.22 227.849L365.416 227.18Z" fill="url(#paint4_linear)"/>
<path fill-rule="evenodd" clip-rule="evenodd" d="M363.224 310.651L362.758 325.321C362.437 335.415 363.275 360.042 365.645 372.434C367.167 380.396 361.946 388.085 353.984 389.607C346.022 391.129 338.334 385.909 336.811 377.947C333.863 362.524 333.065 335.469 333.417 324.389L333.883 309.719L363.224 310.651Z" fill="white"/>
<path fill-rule="evenodd" clip-rule="evenodd" d="M404.045 312.187L403.579 326.857C403.492 329.597 404.231 333.159 406.208 336.07C407.917 338.588 411.102 341.487 417.901 342.715C425.878 344.156 431.176 351.791 429.735 359.768C428.294 367.745 420.66 373.044 412.682 371.603C398.392 369.021 388.217 361.83 381.923 352.563C375.897 343.689 373.989 333.772 374.238 325.925L374.704 311.255L404.045 312.187Z" fill="white"/>
<g filter="url(#filter3_d)">
<path d="M340.569 257.099C340.804 255.756 341.994 254.794 343.357 254.845L358.575 255.417C360.161 255.477 361.36 256.873 361.181 258.449L359.604 272.323C359.443 273.739 358.217 274.792 356.793 274.739L340.731 274.134C339.08 274.072 337.864 272.568 338.148 270.941L340.569 257.099Z" fill="url(#paint5_linear)"/>
<path d="M358.592 254.963L343.374 254.391C341.785 254.331 340.396 255.454 340.122 257.021L337.701 270.863C337.369 272.761 338.788 274.516 340.714 274.588L356.776 275.193C358.438 275.255 359.867 274.026 360.055 272.374L361.632 258.5C361.842 256.661 360.442 255.033 358.592 254.963Z" stroke="#EFF2F3" stroke-width="0.90857"/>
</g>
<path d="M340.311 322.096C350.141 329.917 376.064 341.325 401.122 324.384" stroke="#C7D2D7" stroke-opacity="0.3" stroke-width="5.14856" stroke-linecap="round"/>
<path d="M341.427 341.01C344.748 342.07 348.706 343.449 358.491 343.03" stroke="#C7D2D7" stroke-opacity="0.3" stroke-width="5.14856" stroke-linecap="round"/>
<path d="M399.186 337.304C396.193 339.091 392.651 341.334 383.027 343.15" stroke="#C7D2D7" stroke-opacity="0.3" stroke-width="5.14856" stroke-linecap="round"/>
<path d="M343.891 352.97C345.492 353.503 347.399 354.194 352.137 354.05" stroke="#C7D2D7" stroke-opacity="0.3" stroke-width="5.14856" stroke-linecap="round"/>
<path d="M405.211 343.577C404.087 344.836 402.776 346.384 398.594 348.615" stroke="#C7D2D7" stroke-opacity="0.3" stroke-width="5.14856" stroke-linecap="round"/>
<path d="M346.03 263.139L346.004 263.138C346.58 261.987 347.697 261.226 348.952 261.273C349.761 261.304 350.487 261.665 351.033 262.237L351.052 262.238L352.337 262.287C351.621 261.064 350.403 260.238 348.992 260.185C346.84 260.104 344.999 261.851 344.67 264.178L347.378 264.279L347.337 265.368L344.629 265.266L344.629 265.274C344.655 265.651 344.72 266.015 344.821 266.363L347.295 266.456L347.191 269.225C347.495 269.365 347.818 269.466 348.154 269.523L348.268 266.493L349.24 266.529L349.126 269.559C349.466 269.528 349.795 269.452 350.108 269.335L350.212 266.566L352.687 266.659C352.875 266.157 352.988 265.61 353.009 265.036C353.031 264.462 352.96 263.909 352.81 263.394L352.234 263.373L346.03 263.139V263.139ZM349.281 265.441L348.309 265.404L348.35 264.316L349.322 264.353L349.281 265.441ZM351.98 265.542L350.254 265.478L350.295 264.389L352.021 264.454C352.039 264.633 352.044 264.815 352.037 265C352.031 265.185 352.011 265.366 351.98 265.542Z" fill="#9FF9FF"/>
<path d="M349.071 257.997C345.675 257.869 342.806 260.847 342.663 264.647C342.52 268.447 345.157 271.632 348.553 271.759C351.95 271.887 354.818 268.91 354.961 265.11C355.104 261.309 352.467 258.125 349.071 257.997ZM348.594 270.669C345.736 270.562 343.517 267.882 343.637 264.684C343.758 261.485 346.172 258.98 349.03 259.087C351.888 259.195 354.108 261.875 353.987 265.073C353.867 268.271 351.452 270.777 348.594 270.669Z" fill="#9FF9FF"/>
<g filter="url(#filter4_d)">
<ellipse cx="371.975" cy="260.078" rx="4.06525" ry="4.06525" transform="rotate(2.15455 371.975 260.078)" fill="url(#paint6_radial)"/>
<path d="M371.805 264.594C374.299 264.688 376.397 262.742 376.491 260.248C376.585 257.753 374.639 255.655 372.145 255.561C369.651 255.468 367.552 257.414 367.459 259.908C367.365 262.402 369.311 264.5 371.805 264.594Z" stroke="#EFF2F3" stroke-width="0.90857"/>
</g>
<g filter="url(#filter5_d)">
<ellipse cx="371.556" cy="271.226" rx="4.06525" ry="4.06524" transform="rotate(2.15455 371.556 271.226)" fill="url(#paint7_radial)"/>
<path d="M371.386 275.742C373.88 275.836 375.978 273.89 376.072 271.396C376.166 268.901 374.22 266.803 371.725 266.709C369.231 266.616 367.133 268.561 367.039 271.056C366.945 273.55 368.891 275.648 371.386 275.742Z" stroke="#EFF2F3" stroke-width="0.90857"/>
</g>
</g>
<path d="M297.284 225.178C301.691 222.909 302.86 217.197 299.689 213.428L293.679 206.285C292.942 205.41 292.045 204.734 291.06 204.27C289.757 195.13 284.45 184.388 274.017 188.953C263.983 190.101 265.924 193.972 266.06 195.16C266.854 197.806 265.968 195.77 264.607 199.299C263.708 201.633 264.1 207.896 269.005 212.239C269.736 212.775 270.714 213.44 271.853 214.127C271.447 215.562 271.458 217.119 271.956 218.612L274.681 226.78C276.18 231.273 281.392 233.362 285.643 231.173L297.284 225.178Z" fill="#282522"/>
<g filter="url(#filter6_d)">
<path d="M401.813 239.047C415.273 242.527 427.277 254.612 431.757 265.957C435.044 274.281 437.27 287.394 430.867 300.359" stroke="url(#paint8_linear)" stroke-width="21.8057" stroke-linecap="round"/>
<path d="M425.04 267.654C427.499 267.057 430.499 266.437 435.622 261.844" stroke="#C7D2D7" stroke-opacity="0.3" stroke-width="5.14856" stroke-linecap="round"/>
<path d="M421.405 259.201C422.924 258.866 424.824 258.542 426.583 255.286" stroke="#C7D2D7" stroke-opacity="0.3" stroke-width="5.14856" stroke-linecap="round"/>
<path d="M428.917 274.651C430.32 274.927 432.022 275.34 435.264 273.631" stroke="#C7D2D7" stroke-opacity="0.3" stroke-width="5.14856" stroke-linecap="round"/>
</g>
<path d="M440.631 288.352C445.198 290.279 446.799 295.885 443.925 299.884L438.477 307.465C437.81 308.394 436.966 309.136 436.02 309.674C435.418 318.887 429.634 333.372 418.593 332.957C408.501 332.577 410.571 323.104 412.207 315.62C412.287 315.256 412.366 314.896 412.442 314.542C410.206 318.314 407.223 317.917 406.084 315.522C405.009 313.264 408.862 308.115 413.421 303.411C414.109 302.82 415.033 302.082 416.117 301.31C415.602 299.911 415.495 298.358 415.878 296.831L417.972 288.479C419.124 283.884 424.161 281.404 428.566 283.262L440.631 288.352Z" fill="#282522"/>
<g filter="url(#filter7_d)">
<path d="M382.642 238.829C411.678 235.478 432.5 209.222 429.149 180.185C425.798 151.149 399.542 130.327 370.505 133.678C341.469 137.03 320.647 163.285 323.998 192.322C327.35 221.358 353.605 242.18 382.642 238.829Z" fill="url(#paint9_radial)"/>
<path d="M336.85 195.819C334.267 195.9 331.896 194.365 330.947 191.952C329.361 183.27 331.685 170.833 334.505 163.29C345.531 133.798 390.632 138.386 393.536 165.511C394.861 178.015 388.378 187.75 385.364 191.746C384.398 193.014 382.888 193.801 381.288 193.845L336.85 195.819Z" fill="url(#paint10_linear)"/>
<g style="mix-blend-mode:multiply">
<path d="M392.359 165.806C390.906 152.081 378.571 144.121 365.374 143.342C374.851 146.408 356.21 161.301 357.344 171.884C358.668 184.389 378.457 186.406 375.436 190.436C374.47 191.704 372.959 192.491 371.36 192.536L332.999 194.09C334.152 195.247 335.78 195.895 337.49 195.839L380.103 194.176C381.703 194.131 383.213 193.344 384.179 192.076C387.2 188.045 393.71 178.353 392.359 165.806Z" fill="url(#paint11_radial)"/>
</g>
<path d="M352.402 151.586C349.93 151.859 338.566 158.706 338.787 171.626" stroke="white" stroke-width="6.17402" stroke-linecap="round"/>
</g>
<path fill-rule="evenodd" clip-rule="evenodd" d="M337.258 368.001C343.514 368.081 353.601 368.119 363.199 364.371C365.022 363.659 367.119 364.85 367.253 366.803L368.856 390.211C368.874 390.462 368.858 390.713 368.806 390.954L369.055 390.919C369.335 392.56 370.038 397.668 370.557 401.442C370.759 402.911 370.933 404.177 371.044 404.959C371.679 409.444 357.918 411.392 355.121 409.501C353.622 411.966 349.075 412.628 347.038 412.925C346.756 412.966 346.522 413 346.351 413.03C334.612 415.147 328.983 414.078 327.982 412.956C327.982 412.956 326.49 412.625 325.838 408.022C324.883 401.274 333.472 398.717 341.448 396.602L334.675 371.351C334.216 369.639 335.485 367.978 337.258 368.001Z" fill="#282522"/>
<path d="M347.014 405.666C337.636 410.082 329.403 408.851 326.619 407.959C325.553 400.429 337.381 398.027 342.255 397.336C350.758 396.132 348.676 397.113 351.434 399.188C355.191 402.014 356.391 401.25 347.014 405.666Z" fill="url(#paint12_linear)"/>
<path fill-rule="evenodd" clip-rule="evenodd" d="M407.951 369.853C409.96 363.927 413.111 354.346 412.511 344.059C412.397 342.105 414.178 340.479 416.076 340.955L438.835 346.659C439.079 346.721 439.313 346.813 439.527 346.937L439.57 346.689C441.217 346.93 446.293 347.839 450.043 348.511C451.502 348.773 452.76 348.998 453.538 349.135C457.999 349.916 455.602 363.606 452.94 365.681C454.822 367.869 454.046 372.398 453.699 374.427C453.651 374.707 453.611 374.94 453.588 375.112C451.975 386.931 449.219 391.955 447.843 392.561C447.843 392.561 447.068 393.877 442.489 393.076C435.775 391.9 435.996 382.941 436.448 374.702L410.34 373.344C408.57 373.252 407.382 371.532 407.951 369.853Z" fill="#282522"/>
<path d="M446.788 372.208C448.092 382.49 444.378 389.941 442.67 392.313C435.179 391.001 436.547 379.01 437.396 374.161C438.877 365.701 439.167 367.985 441.992 366.003C445.84 363.303 445.484 361.925 446.788 372.208Z" fill="url(#paint13_linear)"/>
<path fill-rule="evenodd" clip-rule="evenodd" d="M293.711 196.104C293.792 195.859 293.824 195.6 293.805 195.343C293.785 195.086 293.716 194.835 293.599 194.604C293.483 194.374 293.323 194.168 293.127 194C292.931 193.831 292.705 193.703 292.459 193.622L292.461 193.618L290.025 192.819L290.011 192.814L290.011 192.815C289.735 192.755 289.249 193.513 288.916 194.529C288.582 195.546 288.525 196.444 288.783 196.559L288.783 196.56L288.797 196.564L291.233 197.363C291.729 197.525 292.268 197.483 292.733 197.247C293.198 197.011 293.55 196.6 293.711 196.104V196.104Z" fill="#E63D3A" stroke="#E63D3A" stroke-width="0.0679941" stroke-miterlimit="22.9256"/>
<path fill-rule="evenodd" clip-rule="evenodd" d="M292.192 193.53L290.024 192.819L290.011 192.814L290.011 192.815C289.735 192.755 289.249 193.513 288.916 194.529C288.582 195.546 288.525 196.444 288.783 196.559L288.783 196.56L288.797 196.564L291.233 197.363C291.48 197.444 291.741 197.476 292 197.455C291.852 197.379 291.721 197.275 291.613 197.149C291.366 196.871 291.213 196.522 291.175 196.151C291.138 195.65 291.23 195.147 291.441 194.691C291.639 194.272 291.892 193.882 292.192 193.53Z" fill="#D93230" stroke="#D93230" stroke-width="0.0679941" stroke-miterlimit="22.9256"/>
<path fill-rule="evenodd" clip-rule="evenodd" d="M293.506 188.652C293.07 191.395 290.144 197.063 286.203 202.108C282.261 207.153 277.304 211.575 273.358 213.686C269.412 215.797 266.479 215.595 264.623 214.949C262.767 214.303 261.989 213.213 261.911 212.482C261.832 211.751 262.452 211.381 263.799 210.658C265.145 209.935 267.217 208.861 269.596 206.494C271.974 204.128 274.659 200.468 276.355 197.697C278.051 194.926 278.759 193.042 279.198 191.452C279.524 190.23 279.768 188.988 279.929 187.734C280.051 186.905 280.125 186.544 281.769 186.378C283.413 186.213 286.625 186.243 289.258 186.167C291.891 186.091 293.943 185.909 293.506 188.652Z" fill="white" stroke="white" stroke-width="0.0679941" stroke-miterlimit="22.9256"/>
<path fill-rule="evenodd" clip-rule="evenodd" d="M293.506 188.652C293.07 191.395 290.144 197.063 286.203 202.108C282.261 207.153 277.304 211.575 273.358 213.686C269.412 215.797 266.479 215.595 264.623 214.95C263.012 214.389 262.213 213.493 261.979 212.788C262.052 212.869 262.132 212.942 262.22 213.007C262.559 213.262 263.036 213.462 263.896 213.6C265.081 213.779 266.287 213.784 267.473 213.614C268.952 213.412 270.668 212.93 272.698 211.764C274.728 210.597 277.072 208.744 279.23 206.597C281.388 204.449 283.36 202.006 284.447 199.712C285.534 197.418 285.736 195.273 285.338 193.757C284.94 192.241 283.943 191.355 282.615 190.774C281.64 190.354 280.6 190.106 279.54 190.04C279.74 189.09 279.846 188.302 279.929 187.734C280.051 186.905 280.125 186.544 281.769 186.378C283.413 186.213 286.626 186.243 289.259 186.167C291.892 186.091 293.943 185.909 293.506 188.652Z" fill="#F0ECCC" stroke="#F0ECCC" stroke-width="0.0679941" stroke-miterlimit="22.9256"/>
<path fill-rule="evenodd" clip-rule="evenodd" d="M276.001 143.405C276.317 144.296 276.64 145.37 277.681 147.122C278.722 148.875 280.48 151.306 283.852 153.965C287.224 156.624 292.21 159.51 296.425 161.503C300.641 163.496 304.087 164.596 306.904 165.476C308.317 165.916 309.571 166.302 310.614 166.765C316.4 169.131 319.065 176.759 316.571 184.099C314.41 190.462 309.064 194.573 303.775 194.414C303.211 194.425 302.649 194.359 302.103 194.217C301.686 194.132 301.275 194.018 300.872 193.878C300.86 193.873 300.848 193.868 300.835 193.865C300.646 193.807 300.45 193.746 300.249 193.684C298.465 193.131 296.187 192.439 293.217 191.584C290.247 190.73 286.586 189.713 282.378 189.13C278.169 188.547 273.415 188.398 269.751 188.655C266.843 188.836 263.972 189.4 261.212 190.335C258.909 191.097 256.876 191.961 255.563 192.199C254.25 192.438 253.658 192.052 253.868 188.482C254.078 184.911 255.09 178.157 257.531 170.911C259.971 163.664 263.841 155.926 266.544 150.978C269.247 146.031 270.783 143.876 272.01 142.694C273.237 141.512 274.155 141.304 274.767 141.554C275.38 141.805 275.686 142.514 276.001 143.405Z" fill="white" stroke="white" stroke-width="0.0679941" stroke-miterlimit="22.9256"/>
<path fill-rule="evenodd" clip-rule="evenodd" d="M276.544 144.881C276.846 145.605 277.199 146.307 277.598 146.982C277.79 148.602 277.875 150.233 277.854 151.864C277.818 154.835 277.411 157.609 276.661 160.613C275.911 163.617 274.819 166.851 274.3 169.773C273.78 172.695 273.834 175.305 274.526 177.469C275.218 179.632 276.548 181.35 279.161 182.813C281.775 184.276 285.671 185.484 290.611 187.171C295.551 188.858 301.534 191.023 305.379 192.002C307.403 192.517 308.834 192.703 309.937 192.688C308.012 193.86 305.889 194.479 303.775 194.415C303.211 194.427 302.649 194.36 302.103 194.219C301.686 194.133 301.275 194.019 300.872 193.879C300.86 193.875 300.848 193.87 300.835 193.866C300.646 193.808 300.45 193.748 300.249 193.685C298.465 193.133 296.187 192.44 293.217 191.586C290.247 190.731 286.586 189.714 282.378 189.131C278.169 188.548 273.415 188.4 269.751 188.656C266.843 188.837 263.972 189.402 261.212 190.336C258.909 191.099 256.876 191.962 255.563 192.201C254.295 192.431 253.699 192.078 253.85 188.836C255.167 187.323 256.954 185.333 259.223 182.442C263.395 177.126 269.198 168.763 272.217 162.281C275.235 155.8 275.469 151.199 275.838 148.226C276.044 146.569 276.292 145.418 276.544 144.881Z" fill="#FAF7DF" stroke="#FAF7DF" stroke-width="0.0679941" stroke-miterlimit="22.9256"/>
<path fill-rule="evenodd" clip-rule="evenodd" d="M302.343 163.963C303.955 164.546 305.417 165.011 306.741 165.425L306.743 165.429C307.26 166.98 307.498 168.717 307.523 170.477C307.548 172.237 307.359 174.019 306.76 176.255C306.094 178.644 305.236 180.974 304.193 183.224C303.237 185.265 302.336 186.656 301.255 187.965C300.175 189.273 298.916 190.5 297.61 191.376C297.054 191.744 296.473 192.073 295.871 192.359C295.053 192.117 294.171 191.86 293.217 191.585C293.019 191.528 292.817 191.47 292.613 191.412C292.924 191.24 293.243 191.049 293.559 190.837C294.865 189.961 296.124 188.735 297.205 187.426C298.285 186.117 299.186 184.726 300.142 182.685C301.185 180.435 302.044 178.105 302.709 175.716C303.309 173.48 303.497 171.697 303.472 169.938C303.447 168.179 303.21 166.441 302.692 164.89C302.586 164.572 302.468 164.262 302.343 163.963Z" fill="#E63D3A" stroke="#E63D3A" stroke-width="0.0679941" stroke-miterlimit="22.9256"/>
<path fill-rule="evenodd" clip-rule="evenodd" d="M299.206 190.12C298.704 190.576 298.171 190.995 297.61 191.376C297.054 191.744 296.473 192.073 295.871 192.359C295.053 192.117 294.171 191.859 293.217 191.585C293.019 191.528 292.818 191.47 292.613 191.412C292.924 191.24 293.243 191.049 293.559 190.837C294.366 190.285 295.118 189.658 295.807 188.964C296.952 189.359 298.095 189.75 299.206 190.12Z" fill="#D93230" stroke="#D93230" stroke-width="0.0679941" stroke-miterlimit="22.9256"/>
<path fill-rule="evenodd" clip-rule="evenodd" d="M304.781 164.801C305.526 165.045 306.234 165.267 306.905 165.477C308.318 165.917 309.572 166.303 310.614 166.766C316.401 169.132 319.066 176.76 316.572 184.1C314.411 190.463 309.065 194.574 303.776 194.415C303.212 194.426 302.649 194.36 302.104 194.219C301.687 194.133 301.275 194.019 300.873 193.879C300.861 193.874 300.849 193.87 300.836 193.866C300.647 193.808 300.451 193.747 300.25 193.685C298.852 193.252 297.151 192.733 295.051 192.118C296.121 191.636 296.839 191.099 297.591 190.474C298.647 189.617 299.6 188.64 300.43 187.563C301.371 186.325 302.279 184.752 303.086 183.039C303.963 181.192 304.655 179.262 305.153 177.279C305.706 175.086 306.104 172.554 306.091 170.477C306.078 168.399 305.654 166.776 304.9 165.065C304.861 164.977 304.821 164.889 304.781 164.801Z" fill="#F75E5B" stroke="#F75E5B" stroke-width="0.0679941" stroke-miterlimit="22.9256"/>
<path fill-rule="evenodd" clip-rule="evenodd" d="M309.938 192.687C308.012 193.86 305.89 194.478 303.775 194.415C303.212 194.426 302.649 194.36 302.104 194.219C301.686 194.133 301.275 194.019 300.873 193.879C300.861 193.874 300.849 193.869 300.836 193.866C300.646 193.808 300.451 193.747 300.25 193.685C298.852 193.252 297.151 192.733 295.051 192.118C296.121 191.636 296.839 191.099 297.591 190.474C297.836 190.269 298.085 190.055 298.337 189.828C300.956 190.713 303.441 191.509 305.38 192.002C307.403 192.517 308.834 192.703 309.938 192.687Z" fill="#F54F4C" stroke="#F54F4C" stroke-width="0.0679941" stroke-miterlimit="22.9256"/>
<path d="M273.158 169.098C279.199 153.477 279.419 139.005 273.649 136.773C267.879 134.541 258.304 145.395 252.262 161.016C246.221 176.637 246.001 191.109 251.771 193.341C257.541 195.573 267.116 184.719 273.158 169.098Z" fill="white" stroke="white" stroke-width="0.0679941" stroke-miterlimit="22.9256"/>
<path d="M271.235 167.84C276.389 153.652 276.495 140.67 271.471 138.845C266.447 137.02 258.196 147.042 253.041 161.231C247.887 175.419 247.781 188.4 252.805 190.225C257.829 192.05 266.08 182.028 271.235 167.84Z" fill="#E8F6F7" stroke="#E8F6F7" stroke-width="0.0679941" stroke-miterlimit="22.9256"/>
<path fill-rule="evenodd" clip-rule="evenodd" d="M249.348 176.417C248.556 183.713 249.702 189.098 252.805 190.225C257.829 192.05 266.08 182.028 271.234 167.839C272.921 163.195 274.067 158.681 274.67 154.644C275.462 147.348 274.317 141.964 271.213 140.836C266.19 139.011 257.938 149.034 252.784 163.222C251.097 167.866 249.951 172.381 249.348 176.417Z" fill="#D7E9E9" stroke="#D7E9E9" stroke-width="0.0679941" stroke-miterlimit="22.9256"/>
<path fill-rule="evenodd" clip-rule="evenodd" d="M254.758 190.379C259.78 189.564 266.704 180.312 271.235 167.839C272.922 163.195 274.068 158.68 274.671 154.644C274.815 153.32 274.894 152.061 274.91 150.877C269.889 151.692 262.965 160.944 258.433 173.417C256.746 178.061 255.6 182.576 254.998 186.613C254.854 187.936 254.775 189.196 254.758 190.379Z" fill="#B6DBDE" stroke="#B6DBDE" stroke-width="0.0679941" stroke-miterlimit="22.9256"/>
<path fill-rule="evenodd" clip-rule="evenodd" d="M267.211 176.974C268.759 174.024 270.103 170.972 271.234 167.839C272.264 165.017 273.121 162.135 273.799 159.208C273.272 159.341 272.756 159.454 272.253 159.542C269.414 160.042 267.008 159.765 265.543 159.41C264.077 159.055 263.551 158.624 263.236 158.521C262.922 158.418 262.819 158.644 262.107 160.173C261.396 161.701 260.076 164.533 259.258 166.534C258.44 168.535 258.123 169.706 258.037 170.335C257.95 170.965 258.095 171.054 258.515 171.172C259.289 171.361 260.044 171.622 260.77 171.951C262.129 172.576 263.43 173.321 264.656 174.178C265.822 175.014 266.573 175.808 267.152 176.864C267.172 176.9 267.191 176.937 267.211 176.974Z" fill="#F75E5B" stroke="#F75E5B" stroke-width="0.0679941" stroke-miterlimit="22.9256"/>
<path fill-rule="evenodd" clip-rule="evenodd" d="M267.209 176.974C268.758 174.024 270.102 170.972 271.233 167.839C272.263 165.017 273.12 162.135 273.798 159.208C273.401 159.308 273.011 159.396 272.627 159.472C272.616 159.662 272.599 159.883 272.573 160.141C272.428 161.575 271.997 164.167 271.229 166.238C270.461 168.309 269.357 169.859 268.13 170.617C266.903 171.374 265.556 171.339 264.571 171.105C263.587 170.871 262.967 170.438 262.888 169.495C262.81 168.552 263.274 167.099 263.627 165.778C263.98 164.457 264.222 163.268 264.29 162.262C264.358 161.257 264.253 160.434 264.076 159.889C263.9 159.344 263.652 159.077 263.29 159.822C262.929 160.566 262.453 162.322 261.793 163.958C261.133 165.593 260.287 167.108 259.467 168.555C258.973 169.426 258.489 170.273 258.371 171.129C258.415 171.143 258.462 171.157 258.514 171.172C259.288 171.361 260.042 171.621 260.768 171.95C262.127 172.575 263.428 173.321 264.655 174.177C265.821 175.014 266.572 175.807 267.15 176.864C267.17 176.9 267.19 176.937 267.209 176.974Z" fill="#F54F4C" stroke="#F54F4C" stroke-width="0.0679941" stroke-miterlimit="22.9256"/>
<path opacity="0.5" fill-rule="evenodd" clip-rule="evenodd" d="M250.783 188.524C251.249 188.007 251.741 187.513 252.257 187.046C254.188 185.3 256.798 183.609 258.826 182.518C260.854 181.426 262.297 180.935 263.826 180.598C264.3 180.494 264.783 180.404 265.294 180.334C265.555 179.91 265.815 179.475 266.073 179.029C264.453 178.949 262.829 179.025 261.223 179.257C258.982 179.567 256.444 180.139 254.386 180.849C252.39 181.539 250.845 182.359 249.269 183.638C249.509 185.684 250.013 187.352 250.783 188.524Z" fill="white" stroke="white" stroke-width="0.0679941" stroke-miterlimit="22.9256"/>
<path d="M263.097 165.704C264.446 162.216 264.495 158.985 263.206 158.487C261.918 157.988 259.78 160.412 258.431 163.899C257.083 167.387 257.033 170.618 258.322 171.117C259.61 171.615 261.748 169.191 263.097 165.704Z" fill="#F7F3D9" stroke="#F7F3D9" stroke-width="0.0679941" stroke-miterlimit="22.9256"/>
<path fill-rule="evenodd" clip-rule="evenodd" d="M263.175 158.475C261.869 158.023 259.731 160.488 258.399 163.982C257.947 165.142 257.633 166.351 257.464 167.584C257.517 168.605 257.819 169.315 258.371 169.506C259.61 169.935 261.638 167.597 262.902 164.282C263.661 162.29 263.971 160.399 263.828 159.114C263.768 158.969 263.678 158.838 263.566 158.729C263.454 158.619 263.321 158.532 263.175 158.475Z" fill="white" stroke="white" stroke-width="0.0679941" stroke-miterlimit="22.9256"/>
<path opacity="0.5" fill-rule="evenodd" clip-rule="evenodd" d="M266.992 177.382C265.668 177.233 264.357 177.1 263.127 176.994C258.125 176.563 254.455 176.577 251.031 176.903C250.438 176.959 249.851 177.025 249.279 177.097C249.2 177.939 249.148 178.752 249.123 179.536C250.708 179.101 252.317 178.759 253.943 178.513C256.916 178.064 260.289 177.888 263.349 177.942C264.471 177.962 265.55 178.013 266.606 178.091C266.735 177.857 266.864 177.621 266.992 177.382Z" fill="white" stroke="white" stroke-width="0.0679941" stroke-miterlimit="22.9256"/>
<path fill-rule="evenodd" clip-rule="evenodd" d="M309.089 167.746C309.916 167.75 311.418 168.511 312.571 169.557C313.684 170.589 314.524 171.88 315.018 173.315C315.508 174.695 315.685 176.125 315.573 177.137C315.46 178.149 315.058 178.744 314.793 178.219C314.528 177.694 314.401 176.049 313.85 174.646C313.3 173.244 312.327 172.082 311.276 171.222C310.224 170.362 309.093 169.805 308.603 169.15C308.112 168.495 308.263 167.742 309.089 167.746Z" fill="#FD7D7A" stroke="#FD7D7A" stroke-width="0.0679941" stroke-miterlimit="22.9256"/>
<path fill-rule="evenodd" clip-rule="evenodd" d="M280.562 198.072L277.181 196.049C276.928 195.898 276.625 195.854 276.339 195.925C276.052 195.997 275.806 196.179 275.654 196.432V196.432C275.503 196.686 275.459 196.989 275.531 197.275C275.603 197.561 275.785 197.807 276.037 197.959L279.418 199.983C279.672 200.134 279.975 200.178 280.261 200.106C280.547 200.035 280.794 199.852 280.946 199.6V199.6C281.097 199.346 281.141 199.043 281.069 198.757C280.997 198.471 280.815 198.225 280.562 198.072V198.072Z" fill="#E63D3A" stroke="#E63D3A" stroke-width="0.0679941" stroke-miterlimit="22.9256"/>
<path fill-rule="evenodd" clip-rule="evenodd" d="M277.375 201.307L274.816 199.788C274.624 199.675 274.396 199.642 274.18 199.697C273.964 199.752 273.778 199.891 273.664 200.082V200.082C273.551 200.274 273.518 200.503 273.573 200.719C273.628 200.935 273.767 201.12 273.958 201.234L276.517 202.753C276.709 202.867 276.937 202.899 277.153 202.844C277.369 202.789 277.555 202.651 277.669 202.459V202.459C277.782 202.268 277.815 202.039 277.76 201.823C277.705 201.607 277.566 201.421 277.375 201.307V201.307Z" fill="#E63D3A" stroke="#E63D3A" stroke-width="0.0679941" stroke-miterlimit="22.9256"/>
<path fill-rule="evenodd" clip-rule="evenodd" d="M274.602 203.582L272.884 202.536C272.756 202.458 272.601 202.434 272.455 202.47C272.309 202.505 272.182 202.597 272.104 202.726V202.726C272.026 202.855 272.002 203.009 272.037 203.155C272.073 203.302 272.165 203.428 272.293 203.507L274.011 204.553C274.139 204.631 274.294 204.654 274.44 204.619C274.586 204.583 274.713 204.491 274.791 204.363V204.363C274.869 204.234 274.893 204.08 274.858 203.933C274.822 203.787 274.73 203.661 274.602 203.582V203.582Z" fill="#E63D3A" stroke="#E63D3A" stroke-width="0.0679941" stroke-miterlimit="22.9256"/>
<path d="M239.974 199.976C236.828 209.975 230.253 228.078 229.117 220.501C227.696 211.03 236.48 209.781 239.974 199.976Z" fill="white"/>
<path d="M265.394 120.41C263.892 112.037 262.458 96.5026 268.739 101.349C276.59 107.406 264.518 112.025 265.394 120.41Z" fill="white"/>
<path d="M243.478 122.98C239.44 111.045 230.772 89.5898 228.409 99.2483C225.455 111.321 238.888 111.347 243.478 122.98Z" fill="white"/>
<path d="M229.165 188.221C214.489 189.628 187.728 193.76 198.098 199.036C211.061 205.633 214.686 190.337 229.165 188.221Z" fill="white"/>
<g opacity="0.5" filter="url(#filter8_dii)">
<path fill-rule="evenodd" clip-rule="evenodd" d="M308.387 54.9577C296.895 52.5835 285.654 59.9753 283.279 71.4679C280.905 82.9605 288.297 94.2018 299.789 96.5761C311.282 98.9503 322.523 91.5585 324.898 80.0659C327.272 68.5733 319.88 57.332 308.387 54.9577ZM300.306 70.9598L297.466 75.8784L303.215 79.1975L304.106 83.6469L294.778 78.2616C294.257 77.9604 293.876 77.4642 293.72 76.8822C293.564 76.3002 293.646 75.6801 293.947 75.1583L297.355 69.256L295.387 68.1201L301.102 66.173L302.273 72.0957L300.306 70.9598ZM304.071 67.8871L304.962 72.3365L310.711 75.6556L307.871 80.5742L305.904 79.4383L307.075 85.361L312.79 83.4139L310.822 82.278L314.23 76.3757C314.856 75.2907 314.484 73.8994 313.398 73.2724L304.071 67.8871Z" fill="#54A9EB"/>
</g>
<g opacity="0.5" filter="url(#filter9_dii)">
<path fill-rule="evenodd" clip-rule="evenodd" d="M171.775 250.375C155.448 247.002 139.479 257.503 136.106 273.83C132.733 290.156 143.234 306.126 159.56 309.499C175.887 312.872 191.857 302.371 195.23 286.044C198.602 269.718 188.101 253.748 171.775 250.375ZM160.294 273.108L156.26 280.096L164.427 284.811L165.693 291.132L152.442 283.481C151.7 283.053 151.16 282.348 150.938 281.522C150.716 280.695 150.832 279.814 151.26 279.073L156.101 270.688L153.307 269.074L161.425 266.308L163.089 274.722L160.294 273.108ZM165.643 268.743L166.909 275.064L175.076 279.779L171.042 286.766L168.247 285.153L169.91 293.567L178.029 290.801L175.234 289.187L180.075 280.802C180.965 279.261 180.437 277.284 178.894 276.393L165.643 268.743Z" fill="#54A9EB"/>
</g>
<g opacity="0.2" filter="url(#filter10_diif)">
<path fill-rule="evenodd" clip-rule="evenodd" d="M51.0237 177.329C42.4982 175.568 34.1592 181.051 32.3979 189.577C30.6366 198.102 36.12 206.441 44.6455 208.202C53.1709 209.964 61.51 204.48 63.2713 195.955C65.0326 187.429 59.5491 179.09 51.0237 177.329ZM45.0284 189.2L42.9218 192.848L47.1864 195.31L47.8475 198.611L40.9281 194.616C40.541 194.393 40.2585 194.025 40.1429 193.593C40.0272 193.161 40.0877 192.701 40.3112 192.314L42.8391 187.936L41.3796 187.093L45.619 185.649L46.4879 190.042L45.0284 189.2ZM47.8214 186.92L48.4825 190.221L52.7471 192.683L50.6405 196.332L49.1811 195.489L50.0499 199.883L54.2893 198.438L52.8298 197.596L55.3577 193.217C55.8224 192.412 55.5465 191.38 54.7408 190.915L47.8214 186.92Z" fill="#54A9EB"/>
</g>
<g opacity="0.2" filter="url(#filter11_dii)">
<path fill-rule="evenodd" clip-rule="evenodd" d="M271.07 10.1727C265.834 16.0551 266.358 25.0683 272.24 30.3043C278.122 35.5403 287.136 35.0162 292.372 29.1339C297.608 23.2515 297.084 14.2382 291.201 9.00226C285.319 3.76628 276.306 4.2903 271.07 10.1727ZM277.658 20.2388L279.563 23.5395L283.421 21.3121L286.306 22.2871L280.047 25.901C279.696 26.1032 279.28 26.158 278.89 26.0533C278.499 25.9487 278.166 25.6932 277.964 25.343L275.677 21.3822L274.357 22.1444L275.143 18.1699L278.978 19.4765L277.658 20.2388ZM277.135 17.0197L280.02 17.9946L283.878 15.7673L285.784 19.068L284.463 19.8303L288.298 21.1369L289.084 17.1623L287.764 17.9246L285.477 13.9638C285.057 13.2356 284.123 12.985 283.395 13.4058L277.135 17.0197Z" fill="#54A9EB"/>
</g>
</g>
<defs>
<filter id="filter0_dii" x="13.014" y="2.86668" width="315.73" height="315.73" filterUnits="userSpaceOnUse" color-interpolation-filters="sRGB">
<feFlood flood-opacity="0" result="BackgroundImageFix"/>
<feColorMatrix in="SourceAlpha" type="matrix" values="0 0 0 0 0 0 0 0 0 0 0 0 0 0 0 0 0 0 127 0" result="hardAlpha"/>
<feOffset dx="-0.508978" dy="29.1593"/>
<feGaussianBlur stdDeviation="29.1638"/>
<feColorMatrix type="matrix" values="0 0 0 0 0.0658824 0 0 0 0 0.132549 0 0 0 0 0.184314 0 0 0 0.3975 0"/>
<feBlend mode="normal" in2="BackgroundImageFix" result="effect1_dropShadow"/>
<feBlend mode="normal" in="SourceGraphic" in2="effect1_dropShadow" result="shape"/>
<feColorMatrix in="SourceAlpha" type="matrix" values="0 0 0 0 0 0 0 0 0 0 0 0 0 0 0 0 0 0 127 0" result="hardAlpha"/>
<feOffset dx="-0.209247" dy="11.9877"/>
<feGaussianBlur stdDeviation="5.99478"/>
<feComposite in2="hardAlpha" operator="arithmetic" k2="-1" k3="1"/>
<feColorMatrix type="matrix" values="0 0 0 0 0.360294 0 0 0 0 0.724877 0 0 0 0 1 0 0 0 1 0"/>
<feBlend mode="normal" in2="shape" result="effect2_innerShadow"/>
<feColorMatrix in="SourceAlpha" type="matrix" values="0 0 0 0 0 0 0 0 0 0 0 0 0 0 0 0 0 0 127 0" result="hardAlpha"/>
<feOffset dx="0.209247" dy="-11.9877"/>
<feGaussianBlur stdDeviation="5.99478"/>
<feComposite in2="hardAlpha" operator="arithmetic" k2="-1" k3="1"/>
<feColorMatrix type="matrix" values="0 0 0 0 0.290809 0 0 0 0 0.58508 0 0 0 0 0.813572 0 0 0 1 0"/>
<feBlend mode="normal" in2="effect2_innerShadow" result="effect3_innerShadow"/>
</filter>
<filter id="filter1_d" x="267.907" y="183.995" width="99.3151" height="100.536" filterUnits="userSpaceOnUse" color-interpolation-filters="sRGB">
<feFlood flood-opacity="0" result="BackgroundImageFix"/>
<feColorMatrix in="SourceAlpha" type="matrix" values="0 0 0 0 0 0 0 0 0 0 0 0 0 0 0 0 0 0 127 0" result="hardAlpha"/>
<feOffset dy="1.21143"/>
<feGaussianBlur stdDeviation="0.605713"/>
<feComposite in2="hardAlpha" operator="out"/>
<feColorMatrix type="matrix" values="0 0 0 0 0 0 0 0 0 0 0 0 0 0 0 0 0 0 0.25 0"/>
<feBlend mode="normal" in2="BackgroundImageFix" result="effect1_dropShadow"/>
<feBlend mode="normal" in="SourceGraphic" in2="effect1_dropShadow" result="shape"/>
</filter>
<filter id="filter2_d" x="327.948" y="225.937" width="108.308" height="169.569" filterUnits="userSpaceOnUse" color-interpolation-filters="sRGB">
<feFlood flood-opacity="0" result="BackgroundImageFix"/>
<feColorMatrix in="SourceAlpha" type="matrix" values="0 0 0 0 0 0 0 0 0 0 0 0 0 0 0 0 0 0 127 0" result="hardAlpha"/>
<feOffset dy="1.21143"/>
<feGaussianBlur stdDeviation="0.605713"/>
<feComposite in2="hardAlpha" operator="out"/>
<feColorMatrix type="matrix" values="0 0 0 0 0 0 0 0 0 0 0 0 0 0 0 0 0 0 0.25 0"/>
<feBlend mode="normal" in2="BackgroundImageFix" result="effect1_dropShadow"/>
<feBlend mode="normal" in="SourceGraphic" in2="effect1_dropShadow" result="shape"/>
</filter>
<filter id="filter3_d" x="335.987" y="253.934" width="27.3322" height="24.1377" filterUnits="userSpaceOnUse" color-interpolation-filters="sRGB">
<feFlood flood-opacity="0" result="BackgroundImageFix"/>
<feColorMatrix in="SourceAlpha" type="matrix" values="0 0 0 0 0 0 0 0 0 0 0 0 0 0 0 0 0 0 127 0" result="hardAlpha"/>
<feOffset dy="1.21143"/>
<feGaussianBlur stdDeviation="0.605713"/>
<feComposite in2="hardAlpha" operator="out"/>
<feColorMatrix type="matrix" values="0 0 0 0 0 0 0 0 0 0 0 0 0 0 0 0 0 0 0.25 0"/>
<feBlend mode="normal" in2="BackgroundImageFix" result="effect1_dropShadow"/>
<feBlend mode="normal" in="SourceGraphic" in2="effect1_dropShadow" result="shape"/>
</filter>
<filter id="filter4_d" x="365.79" y="255.104" width="12.3706" height="12.3706" filterUnits="userSpaceOnUse" color-interpolation-filters="sRGB">
<feFlood flood-opacity="0" result="BackgroundImageFix"/>
<feColorMatrix in="SourceAlpha" type="matrix" values="0 0 0 0 0 0 0 0 0 0 0 0 0 0 0 0 0 0 127 0" result="hardAlpha"/>
<feOffset dy="1.21143"/>
<feGaussianBlur stdDeviation="0.605713"/>
<feComposite in2="hardAlpha" operator="out"/>
<feColorMatrix type="matrix" values="0 0 0 0 0 0 0 0 0 0 0 0 0 0 0 0 0 0 0.25 0"/>
<feBlend mode="normal" in2="BackgroundImageFix" result="effect1_dropShadow"/>
<feBlend mode="normal" in="SourceGraphic" in2="effect1_dropShadow" result="shape"/>
</filter>
<filter id="filter5_d" x="365.37" y="266.252" width="12.3706" height="12.3706" filterUnits="userSpaceOnUse" color-interpolation-filters="sRGB">
<feFlood flood-opacity="0" result="BackgroundImageFix"/>
<feColorMatrix in="SourceAlpha" type="matrix" values="0 0 0 0 0 0 0 0 0 0 0 0 0 0 0 0 0 0 127 0" result="hardAlpha"/>
<feOffset dy="1.21143"/>
<feGaussianBlur stdDeviation="0.605713"/>
<feComposite in2="hardAlpha" operator="out"/>
<feColorMatrix type="matrix" values="0 0 0 0 0 0 0 0 0 0 0 0 0 0 0 0 0 0 0.25 0"/>
<feBlend mode="normal" in2="BackgroundImageFix" result="effect1_dropShadow"/>
<feBlend mode="normal" in="SourceGraphic" in2="effect1_dropShadow" result="shape"/>
</filter>
<filter id="filter6_d" x="387.223" y="228.051" width="61.8135" height="86.0922" filterUnits="userSpaceOnUse" color-interpolation-filters="sRGB">
<feFlood flood-opacity="0" result="BackgroundImageFix"/>
<feColorMatrix in="SourceAlpha" type="matrix" values="0 0 0 0 0 0 0 0 0 0 0 0 0 0 0 0 0 0 127 0" result="hardAlpha"/>
<feOffset dy="1.21143"/>
<feGaussianBlur stdDeviation="0.605713"/>
<feComposite in2="hardAlpha" operator="out"/>
<feColorMatrix type="matrix" values="0 0 0 0 0 0 0 0 0 0 0 0 0 0 0 0 0 0 0.25 0"/>
<feBlend mode="normal" in2="BackgroundImageFix" result="effect1_dropShadow"/>
<feBlend mode="normal" in="SourceGraphic" in2="effect1_dropShadow" result="shape"/>
</filter>
<filter id="filter7_d" x="312.785" y="123.677" width="127.577" height="127.577" filterUnits="userSpaceOnUse" color-interpolation-filters="sRGB">
<feFlood flood-opacity="0" result="BackgroundImageFix"/>
<feColorMatrix in="SourceAlpha" type="matrix" values="0 0 0 0 0 0 0 0 0 0 0 0 0 0 0 0 0 0 127 0" result="hardAlpha"/>
<feOffset dy="1.21143"/>
<feGaussianBlur stdDeviation="0.605713"/>
<feComposite in2="hardAlpha" operator="out"/>
<feColorMatrix type="matrix" values="0 0 0 0 0 0 0 0 0 0 0 0 0 0 0 0 0 0 0.25 0"/>
<feBlend mode="normal" in2="BackgroundImageFix" result="effect1_dropShadow"/>
<feBlend mode="normal" in="SourceGraphic" in2="effect1_dropShadow" result="shape"/>
</filter>
<filter id="filter8_dii" x="216.218" y="17.5647" width="174.723" height="174.723" filterUnits="userSpaceOnUse" color-interpolation-filters="sRGB">
<feFlood flood-opacity="0" result="BackgroundImageFix"/>
<feColorMatrix in="SourceAlpha" type="matrix" values="0 0 0 0 0 0 0 0 0 0 0 0 0 0 0 0 0 0 127 0" result="hardAlpha"/>
<feOffset dx="-0.508978" dy="29.1593"/>
<feGaussianBlur stdDeviation="29.1638"/>
<feColorMatrix type="matrix" values="0 0 0 0 0.0658824 0 0 0 0 0.132549 0 0 0 0 0.184314 0 0 0 0.3975 0"/>
<feBlend mode="normal" in2="BackgroundImageFix" result="effect1_dropShadow"/>
<feBlend mode="normal" in="SourceGraphic" in2="effect1_dropShadow" result="shape"/>
<feColorMatrix in="SourceAlpha" type="matrix" values="0 0 0 0 0 0 0 0 0 0 0 0 0 0 0 0 0 0 127 0" result="hardAlpha"/>
<feOffset dx="-0.209247" dy="11.9877"/>
<feGaussianBlur stdDeviation="5.99478"/>
<feComposite in2="hardAlpha" operator="arithmetic" k2="-1" k3="1"/>
<feColorMatrix type="matrix" values="0 0 0 0 0.360294 0 0 0 0 0.724877 0 0 0 0 1 0 0 0 1 0"/>
<feBlend mode="normal" in2="shape" result="effect2_innerShadow"/>
<feColorMatrix in="SourceAlpha" type="matrix" values="0 0 0 0 0 0 0 0 0 0 0 0 0 0 0 0 0 0 127 0" result="hardAlpha"/>
<feOffset dx="0.209247" dy="-11.9877"/>
<feGaussianBlur stdDeviation="5.99478"/>
<feComposite in2="hardAlpha" operator="arithmetic" k2="-1" k3="1"/>
<feColorMatrix type="matrix" values="0 0 0 0 0.290809 0 0 0 0 0.58508 0 0 0 0 0.813572 0 0 0 1 0"/>
<feBlend mode="normal" in2="effect2_innerShadow" result="effect3_innerShadow"/>
</filter>
<filter id="filter9_dii" x="65.5848" y="209.523" width="199.148" height="199.148" filterUnits="userSpaceOnUse" color-interpolation-filters="sRGB">
<feFlood flood-opacity="0" result="BackgroundImageFix"/>
<feColorMatrix in="SourceAlpha" type="matrix" values="0 0 0 0 0 0 0 0 0 0 0 0 0 0 0 0 0 0 127 0" result="hardAlpha"/>
<feOffset dx="-0.508978" dy="29.1593"/>
<feGaussianBlur stdDeviation="29.1638"/>
<feColorMatrix type="matrix" values="0 0 0 0 0.0658824 0 0 0 0 0.132549 0 0 0 0 0.184314 0 0 0 0.3975 0"/>
<feBlend mode="normal" in2="BackgroundImageFix" result="effect1_dropShadow"/>
<feBlend mode="normal" in="SourceGraphic" in2="effect1_dropShadow" result="shape"/>
<feColorMatrix in="SourceAlpha" type="matrix" values="0 0 0 0 0 0 0 0 0 0 0 0 0 0 0 0 0 0 127 0" result="hardAlpha"/>
<feOffset dx="-0.209247" dy="11.9877"/>
<feGaussianBlur stdDeviation="5.99478"/>
<feComposite in2="hardAlpha" operator="arithmetic" k2="-1" k3="1"/>
<feColorMatrix type="matrix" values="0 0 0 0 0.360294 0 0 0 0 0.724877 0 0 0 0 1 0 0 0 1 0"/>
<feBlend mode="normal" in2="shape" result="effect2_innerShadow"/>
<feColorMatrix in="SourceAlpha" type="matrix" values="0 0 0 0 0 0 0 0 0 0 0 0 0 0 0 0 0 0 127 0" result="hardAlpha"/>
<feOffset dx="0.209247" dy="-11.9877"/>
<feGaussianBlur stdDeviation="5.99478"/>
<feComposite in2="hardAlpha" operator="arithmetic" k2="-1" k3="1"/>
<feColorMatrix type="matrix" values="0 0 0 0 0.290809 0 0 0 0 0.58508 0 0 0 0 0.813572 0 0 0 1 0"/>
<feBlend mode="normal" in2="effect2_innerShadow" result="effect3_innerShadow"/>
</filter>
<filter id="filter10_diif" x="22.2966" y="159.24" width="51.0761" height="67.0516" filterUnits="userSpaceOnUse" color-interpolation-filters="sRGB">
<feFlood flood-opacity="0" result="BackgroundImageFix"/>
<feColorMatrix in="SourceAlpha" type="matrix" values="0 0 0 0 0 0 0 0 0 0 0 0 0 0 0 0 0 0 127 0" result="hardAlpha"/>
<feOffset dy="4"/>
<feGaussianBlur stdDeviation="2"/>
<feComposite in2="hardAlpha" operator="out"/>
<feColorMatrix type="matrix" values="0 0 0 0 0 0 0 0 0 0 0 0 0 0 0 0 0 0 0.25 0"/>
<feBlend mode="normal" in2="BackgroundImageFix" result="effect1_dropShadow"/>
<feBlend mode="normal" in="SourceGraphic" in2="effect1_dropShadow" result="shape"/>
<feColorMatrix in="SourceAlpha" type="matrix" values="0 0 0 0 0 0 0 0 0 0 0 0 0 0 0 0 0 0 127 0" result="hardAlpha"/>
<feOffset dx="-0.209247" dy="11.9877"/>
<feGaussianBlur stdDeviation="5.99478"/>
<feComposite in2="hardAlpha" operator="arithmetic" k2="-1" k3="1"/>
<feColorMatrix type="matrix" values="0 0 0 0 0.360294 0 0 0 0 0.724877 0 0 0 0 1 0 0 0 1 0"/>
<feBlend mode="normal" in2="shape" result="effect2_innerShadow"/>
<feColorMatrix in="SourceAlpha" type="matrix" values="0 0 0 0 0 0 0 0 0 0 0 0 0 0 0 0 0 0 127 0" result="hardAlpha"/>
<feOffset dx="0.209247" dy="-11.9877"/>
<feGaussianBlur stdDeviation="5.99478"/>
<feComposite in2="hardAlpha" operator="arithmetic" k2="-1" k3="1"/>
<feColorMatrix type="matrix" values="0 0 0 0 0.290809 0 0 0 0 0.58508 0 0 0 0 0.813572 0 0 0 1 0"/>
<feBlend mode="normal" in2="effect2_innerShadow" result="effect3_innerShadow"/>
<feGaussianBlur stdDeviation="1.5" result="effect4_foregroundBlur"/>
</filter>
<filter id="filter11_dii" x="203.4" y="-28.9988" width="155.623" height="155.623" filterUnits="userSpaceOnUse" color-interpolation-filters="sRGB">
<feFlood flood-opacity="0" result="BackgroundImageFix"/>
<feColorMatrix in="SourceAlpha" type="matrix" values="0 0 0 0 0 0 0 0 0 0 0 0 0 0 0 0 0 0 127 0" result="hardAlpha"/>
<feOffset dx="-0.508978" dy="29.1593"/>
<feGaussianBlur stdDeviation="29.1638"/>
<feColorMatrix type="matrix" values="0 0 0 0 0.0658824 0 0 0 0 0.132549 0 0 0 0 0.184314 0 0 0 0.3975 0"/>
<feBlend mode="normal" in2="BackgroundImageFix" result="effect1_dropShadow"/>
<feBlend mode="normal" in="SourceGraphic" in2="effect1_dropShadow" result="shape"/>
<feColorMatrix in="SourceAlpha" type="matrix" values="0 0 0 0 0 0 0 0 0 0 0 0 0 0 0 0 0 0 127 0" result="hardAlpha"/>
<feOffset dx="-0.209247" dy="11.9877"/>
<feGaussianBlur stdDeviation="5.99478"/>
<feComposite in2="hardAlpha" operator="arithmetic" k2="-1" k3="1"/>
<feColorMatrix type="matrix" values="0 0 0 0 0.360294 0 0 0 0 0.724877 0 0 0 0 1 0 0 0 1 0"/>
<feBlend mode="normal" in2="shape" result="effect2_innerShadow"/>
<feColorMatrix in="SourceAlpha" type="matrix" values="0 0 0 0 0 0 0 0 0 0 0 0 0 0 0 0 0 0 127 0" result="hardAlpha"/>
<feOffset dx="0.209247" dy="-11.9877"/>
<feGaussianBlur stdDeviation="5.99478"/>
<feComposite in2="hardAlpha" operator="arithmetic" k2="-1" k3="1"/>
<feColorMatrix type="matrix" values="0 0 0 0 0.290809 0 0 0 0 0.58508 0 0 0 0 0.813572 0 0 0 1 0"/>
<feBlend mode="normal" in2="effect2_innerShadow" result="effect3_innerShadow"/>
</filter>
<linearGradient id="paint0_linear" x1="570.404" y1="276.342" x2="22.7429" y2="372.71" gradientUnits="userSpaceOnUse">
<stop stop-color="#54A9EB"/>
<stop offset="1" stop-color="#87DFF6" stop-opacity="0"/>
</linearGradient>
<linearGradient id="paint1_linear" x1="293.344" y1="196.718" x2="244.905" y2="169.55" gradientUnits="userSpaceOnUse">
<stop stop-color="white"/>
<stop offset="1" stop-color="white" stop-opacity="0"/>
</linearGradient>
<linearGradient id="paint2_linear" x1="109.687" y1="267.81" x2="153.057" y2="154.757" gradientUnits="userSpaceOnUse">
<stop stop-color="white"/>
<stop offset="1" stop-color="white" stop-opacity="0"/>
</linearGradient>
<linearGradient id="paint3_linear" x1="337.061" y1="256.259" x2="302.373" y2="219.112" gradientUnits="userSpaceOnUse">
<stop stop-color="#EFF2F3"/>
<stop offset="1" stop-color="white"/>
</linearGradient>
<linearGradient id="paint4_linear" x1="374.318" y1="227.515" x2="370.252" y2="335.569" gradientUnits="userSpaceOnUse">
<stop stop-color="#E3E9EB"/>
<stop offset="0.56737" stop-color="white"/>
</linearGradient>
<linearGradient id="paint5_linear" x1="350.122" y1="230.359" x2="348.464" y2="274.425" gradientUnits="userSpaceOnUse">
<stop stop-color="#50D5FF"/>
<stop offset="1" stop-color="#2C3585"/>
</linearGradient>
<radialGradient id="paint6_radial" cx="0" cy="0" r="1" gradientUnits="userSpaceOnUse" gradientTransform="translate(371.975 260.078) rotate(90) scale(5.92404)">
<stop stop-color="#51E0FF"/>
<stop offset="1" stop-color="#4E7CB4"/>
</radialGradient>
<radialGradient id="paint7_radial" cx="0" cy="0" r="1" gradientUnits="userSpaceOnUse" gradientTransform="translate(371.556 271.226) rotate(90) scale(5.92404)">
<stop stop-color="#FFB3B3"/>
<stop offset="1" stop-color="#F20000"/>
</radialGradient>
<linearGradient id="paint8_linear" x1="420.856" y1="239.699" x2="418.945" y2="290.488" gradientUnits="userSpaceOnUse">
<stop stop-color="#EFF2F3"/>
<stop offset="1" stop-color="white"/>
</linearGradient>
<radialGradient id="paint9_radial" cx="0" cy="0" r="1" gradientUnits="userSpaceOnUse" gradientTransform="translate(401.92 254.791) rotate(-6.58391) scale(88.4815)">
<stop offset="0.381" stop-color="#BFCCD1"/>
<stop offset="0.7578" stop-color="white"/>
</radialGradient>
<linearGradient id="paint10_linear" x1="332.462" y1="164.653" x2="391.168" y2="177.603" gradientUnits="userSpaceOnUse">
<stop stop-color="#FFF668"/>
<stop offset="0.29" stop-color="#FF9C4C"/>
<stop offset="1" stop-color="#880000"/>
</linearGradient>
<radialGradient id="paint11_radial" cx="0" cy="0" r="1" gradientUnits="userSpaceOnUse" gradientTransform="translate(355.192 179.828) rotate(12.4398) scale(47.3171)">
<stop stop-color="white"/>
<stop offset="0.9385" stop-color="#880000"/>
</radialGradient>
<linearGradient id="paint12_linear" x1="338.031" y1="391.416" x2="344.925" y2="403.362" gradientUnits="userSpaceOnUse">
<stop stop-color="#504A44"/>
<stop offset="1" stop-color="#504A44" stop-opacity="0"/>
</linearGradient>
<linearGradient id="paint13_linear" x1="430.46" y1="376.35" x2="443.952" y2="373.483" gradientUnits="userSpaceOnUse">
<stop stop-color="#504A44"/>
<stop offset="1" stop-color="#504A44" stop-opacity="0"/>
</linearGradient>
</defs>
</svg>
