<svg width="406" height="376" viewBox="0 0 406 376" fill="none" xmlns="http://www.w3.org/2000/svg">
<g opacity="0.5" filter="url(#filter0_d)">
<path d="M395.498 233.374C395.128 237.902 391.158 241.274 386.629 240.904C382.101 240.535 378.729 236.564 379.099 232.036C379.468 227.507 383.439 224.136 387.967 224.505C392.496 224.875 395.867 228.845 395.498 233.374Z" fill="#FFBE5E"/>
<g filter="url(#filter1_i)">
<path d="M384.19 230.776L384.16 230.774C384.865 229.63 386.171 228.913 387.602 229.03C388.525 229.105 389.34 229.514 389.94 230.129L389.963 230.13L391.427 230.25C390.659 228.962 389.301 228.052 387.692 227.921C385.238 227.72 383.064 229.404 382.595 231.763L385.684 232.014L385.593 233.124L382.504 232.872L382.504 232.88C382.518 233.266 382.578 233.642 382.679 234.003L385.502 234.233L385.272 237.056C385.613 237.215 385.978 237.336 386.359 237.412L386.611 234.324L387.72 234.414L387.468 237.503C387.857 237.49 388.236 237.43 388.599 237.328L388.829 234.504L391.652 234.735C391.887 234.232 392.038 233.68 392.085 233.095C392.133 232.51 392.074 231.941 391.924 231.407L391.267 231.354L384.19 230.776ZM387.811 233.305L386.702 233.214L386.792 232.105L387.901 232.196L387.811 233.305ZM390.89 233.556L388.92 233.395L389.011 232.286L390.98 232.447C390.993 232.63 390.992 232.816 390.977 233.005C390.961 233.193 390.932 233.377 390.89 233.556Z" fill="#F4A837"/>
<path d="M387.871 225.69C383.997 225.374 380.6 228.259 380.284 232.132C379.968 236.006 382.852 239.403 386.726 239.719C390.6 240.035 393.996 237.151 394.312 233.277C394.628 229.403 391.744 226.007 387.871 225.69ZM386.817 238.608C383.556 238.342 381.129 235.483 381.395 232.223C381.661 228.963 384.52 226.536 387.78 226.802C391.04 227.068 393.467 229.926 393.201 233.186C392.935 236.446 390.077 238.874 386.817 238.608Z" fill="#F4A837"/>
</g>
<path fill-rule="evenodd" clip-rule="evenodd" d="M387.623 225.1C387.638 224.928 387.789 224.799 387.961 224.814C390 224.98 391.8 225.893 393.112 227.261C393.232 227.386 393.228 227.585 393.103 227.704C392.978 227.824 392.78 227.82 392.66 227.695C391.449 226.433 389.791 225.592 387.91 225.438C387.738 225.424 387.609 225.273 387.623 225.1Z" fill="white"/>
<path fill-rule="evenodd" clip-rule="evenodd" d="M386.388 240.243C386.374 240.415 386.502 240.567 386.675 240.581C387.434 240.643 388.177 240.597 388.889 240.457C389.059 240.423 389.17 240.258 389.136 240.089C389.103 239.919 388.938 239.808 388.768 239.842C388.112 239.971 387.426 240.013 386.726 239.956C386.553 239.942 386.402 240.07 386.388 240.243Z" fill="white"/>
<g style="mix-blend-mode:overlay">
<path d="M380.729 227.786C381.618 226.596 382.82 225.661 384.201 225.094L385.153 226.01C383.73 226.472 382.494 227.378 381.624 228.576L380.729 227.786Z" fill="url(#paint0_linear)"/>
<path d="M391.286 237.108C392.246 236.243 392.927 235.066 393.159 233.718L392.126 232.724C392.126 232.848 392.12 232.972 392.11 233.097C392.062 233.682 391.912 234.234 391.677 234.737L388.854 234.507L388.819 234.93L391.286 237.108Z" fill="url(#paint1_linear)"/>
<path d="M392.126 237.85C393.048 236.99 393.741 235.882 394.096 234.621L395.045 235.534C394.609 236.726 393.908 237.782 393.018 238.637L392.126 237.85Z" fill="url(#paint2_linear)"/>
<path d="M386.895 233.23L386.737 233.091L386.817 232.107L387.926 232.198L387.836 233.307L386.895 233.23Z" fill="url(#paint3_linear)"/>
<path d="M385.695 232.172L385.501 232L385.708 232.017L385.695 232.172Z" fill="url(#paint4_linear)"/>
<path d="M383.315 230.07L382.464 229.318C383.315 228.101 384.608 227.227 386.09 226.912L387.126 227.911C385.551 227.974 384.146 228.808 383.315 230.07Z" fill="url(#paint5_linear)"/>
<path d="M388.465 229.199C388.198 229.113 387.918 229.056 387.626 229.032C386.196 228.915 384.889 229.632 384.185 230.776L390.651 231.303L388.465 229.199Z" fill="url(#paint6_linear)"/>
<path d="M388.945 233.397L390.914 233.558C390.957 233.379 390.986 233.196 391.001 233.007C391.017 232.819 391.018 232.632 391.005 232.449L389.035 232.288L388.945 233.397Z" fill="url(#paint7_linear)"/>
</g>
<g style="mix-blend-mode:overlay">
<path fill-rule="evenodd" clip-rule="evenodd" d="M381.582 226.815C381.273 227.115 380.988 227.44 380.729 227.786L381.624 228.577C381.875 228.23 382.157 227.908 382.466 227.614L381.582 226.815ZM383.295 228.364C382.986 228.651 382.707 228.971 382.464 229.318L383.315 230.07C383.546 229.718 383.822 229.4 384.134 229.123L383.295 228.364ZM384.966 229.875C384.66 230.13 384.395 230.434 384.185 230.776L386.139 230.936L384.966 229.875ZM387.497 232.163L386.817 232.108L386.737 233.091L386.895 233.23L387.836 233.307L387.899 232.527L387.497 232.163ZM390.212 234.617L388.854 234.507L388.819 234.93L391.286 237.108C391.565 236.857 391.821 236.579 392.048 236.278L390.212 234.617ZM393.759 237.825L392.878 237.028C392.649 237.322 392.398 237.597 392.127 237.85L393.018 238.637C393.283 238.384 393.53 238.112 393.759 237.825ZM385.696 232.172L385.501 232L385.708 232.017L385.696 232.172Z" fill="url(#paint8_linear)"/>
</g>
</g>
<path d="M78 161C78 144.431 91.4315 131 108 131H187V240H78V161Z" fill="url(#paint9_linear)"/>
<path d="M296 319C296 335.569 282.569 349 266 349L187 349L187 240L296 240L296 319Z" fill="url(#paint10_linear)"/>
<path d="M108 349C91.4315 349 78 335.569 78 319L78 240L187 240L187 349L108 349Z" fill="url(#paint11_linear)"/>
<path d="M266 131C282.569 131 296 144.431 296 161L296 240L187 240L187 131L266 131Z" fill="url(#paint12_linear)"/>
<g filter="url(#filter2_i)">
<path d="M246.496 227.704H241.651V227.454H187.512V251.516H221.508C216.549 265.523 203.222 275.577 187.512 275.577C167.58 275.577 151.42 259.417 151.42 239.485C151.42 219.553 167.58 203.393 187.512 203.393C196.713 203.393 205.083 206.863 211.457 212.533L228.471 195.518C217.728 185.506 203.357 179.331 187.512 179.331C154.292 179.331 127.359 206.265 127.359 239.485C127.359 272.705 154.292 299.639 187.512 299.639C220.732 299.639 247.666 272.705 247.666 239.485C247.666 235.452 247.251 231.515 246.496 227.704Z" fill="white"/>
<path d="M134.294 211.485L154.058 225.979C159.405 212.74 172.357 203.392 187.512 203.392C196.713 203.392 205.083 206.863 211.457 212.532L228.471 195.517C217.728 185.505 203.357 179.33 187.512 179.33C164.407 179.33 144.37 192.374 134.294 211.485Z" fill="white"/>
<path d="M187.512 299.641C203.05 299.641 217.168 293.695 227.842 284.025L209.225 268.271C202.982 273.018 195.355 275.586 187.512 275.58C171.866 275.58 158.581 265.603 153.576 251.681L133.96 266.794C143.916 286.275 164.133 299.641 187.512 299.641Z" fill="white"/>
<path d="M246.498 227.704H241.653V227.455H187.514V251.516H221.51C219.138 258.182 214.864 264.008 209.218 268.272L209.227 268.266L227.844 284.02C226.527 285.217 247.668 269.562 247.668 239.485C247.668 235.452 247.253 231.515 246.498 227.704Z" fill="white"/>
</g>
<path d="M113.385 145.396V145.396C102.47 145.396 93.6213 154.244 93.6213 165.159V165.159" stroke="white" stroke-width="12" stroke-linecap="round"/>
<g style="mix-blend-mode:overlay">
<path fill-rule="evenodd" clip-rule="evenodd" d="M87.2548 164.934C87.2548 150.736 98.7644 139.227 112.962 139.227H159.626C163.034 139.227 165.796 141.989 165.796 145.396C165.796 148.804 163.034 151.566 159.626 151.566H112.962C105.579 151.566 99.5944 157.551 99.5944 164.934V211.598C99.5944 215.005 96.8321 217.768 93.4246 217.768C90.0171 217.768 87.2548 215.005 87.2548 211.598V164.934Z" fill="url(#paint13_linear)"/>
</g>
<path d="M261.006 334.994V334.994C271.92 334.994 280.769 326.146 280.769 315.231V315.231" stroke="white" stroke-width="12" stroke-linecap="round"/>
<g style="mix-blend-mode:overlay">
<path fill-rule="evenodd" clip-rule="evenodd" d="M287.135 315.456C287.135 329.654 275.626 341.164 261.428 341.164L214.764 341.164C211.357 341.164 208.594 338.401 208.594 334.994C208.594 331.586 211.357 328.824 214.764 328.824L261.428 328.824C268.811 328.824 274.796 322.839 274.796 315.456L274.796 268.792C274.796 265.385 277.558 262.622 280.966 262.622C284.373 262.622 287.135 265.385 287.135 268.792L287.135 315.456Z" fill="url(#paint14_linear)"/>
</g>
<g style="mix-blend-mode:overlay">
<path fill-rule="evenodd" clip-rule="evenodd" d="M86.2264 293.959C86.2264 320.536 102.738 340.849 129.314 340.849L273.892 340.849C280.271 340.849 285.441 335.678 285.441 329.3C285.441 322.922 291.819 180.359 285.441 180.359L246.717 205.381C232.897 205.381 221.694 194.178 221.694 180.359L109.324 205.381C109.324 199.003 104.154 193.832 97.7753 193.832C91.3971 193.832 86.2264 199.003 86.2264 205.381L86.2264 293.959Z" fill="url(#paint15_linear)"/>
</g>
<g filter="url(#filter3_d)">
<path d="M87.0492 250.575C89.8922 261.184 83.5958 272.09 72.9858 274.933C62.3759 277.776 51.4702 271.48 48.6273 260.87C45.7844 250.26 52.0808 239.354 62.6907 236.511C73.3006 233.668 84.2063 239.965 87.0492 250.575Z" fill="#FFBE5E"/>
<g filter="url(#filter4_i)">
<path d="M59.1926 253.86L59.1231 253.879C59.7964 250.702 62.1878 248.007 65.5402 247.109C67.7028 246.529 69.8921 246.797 71.757 247.708L71.8098 247.694L75.2421 246.774C72.4458 244.467 68.6127 243.5 64.8438 244.51C59.0921 246.051 55.5134 251.652 56.3643 257.404L63.601 255.464L64.2973 258.063L57.0593 260.002L57.0676 260.022C57.4129 260.89 57.8551 261.697 58.378 262.435L64.9926 260.662L66.7649 267.277C67.6713 267.362 68.5997 267.34 69.5303 267.203L67.5913 259.967L70.1899 259.27L72.129 266.507C73.0042 266.161 73.8185 265.716 74.5609 265.189L72.7884 258.574L79.403 256.801C79.5281 255.466 79.4221 254.087 79.0548 252.716C78.6875 251.346 78.0897 250.098 77.3139 249.005L75.7748 249.417L59.1926 253.86ZM69.4941 256.671L66.8955 257.367L66.1992 254.769L68.7978 254.072L69.4941 256.671ZM76.7079 254.738L72.0932 255.975L71.397 253.376L76.0116 252.14C76.1895 252.546 76.3391 252.971 76.4575 253.413C76.5757 253.854 76.6586 254.297 76.7079 254.738Z" fill="#F4A837"/>
<path d="M63.4347 239.288C54.3583 241.72 48.9724 251.049 51.4043 260.125C53.8362 269.201 63.1652 274.588 72.2416 272.156C81.3181 269.724 86.704 260.394 84.2721 251.318C81.8402 242.243 72.5112 236.856 63.4347 239.288ZM71.5441 269.553C63.9057 271.599 56.0542 267.066 54.0075 259.428C51.9608 251.789 56.4939 243.938 64.1323 241.891C71.7707 239.844 79.6222 244.378 81.6689 252.016C83.7156 259.654 79.1825 267.506 71.5441 269.553Z" fill="#F4A837"/>
</g>
<path fill-rule="evenodd" clip-rule="evenodd" d="M62.3922 238.145C62.2838 237.741 62.5237 237.325 62.928 237.217C67.7045 235.937 72.5441 236.551 76.6459 238.599C77.0203 238.786 77.1723 239.241 76.9854 239.615C76.7985 239.99 76.3434 240.142 75.969 239.955C72.1857 238.066 67.7256 237.5 63.3202 238.681C62.916 238.789 62.5005 238.549 62.3922 238.145Z" fill="white"/>
<path fill-rule="evenodd" clip-rule="evenodd" d="M71.8985 273.624C72.0068 274.028 72.4223 274.268 72.8265 274.159C74.6044 273.683 76.2596 272.975 77.7677 272.075C78.1271 271.861 78.2446 271.396 78.0303 271.036C77.8159 270.677 77.3508 270.559 76.9914 270.774C75.6021 271.602 74.076 272.256 72.4343 272.696C72.0301 272.804 71.7902 273.219 71.8985 273.624Z" fill="white"/>
<g style="mix-blend-mode:overlay">
<path d="M48.8803 249.869C49.9378 246.436 51.9122 243.33 54.5943 240.915L57.5076 242.227C54.6437 244.436 52.5673 247.503 51.5609 250.94L48.8803 249.869Z" fill="url(#paint16_linear)"/>
<path d="M80.4995 262.501C81.9819 259.753 82.5732 256.517 82.0048 253.261L78.8452 251.838C78.9445 252.119 79.0337 252.407 79.1124 252.701C79.4797 254.072 79.5857 255.451 79.4606 256.786L72.846 258.558L73.1116 259.549L80.4995 262.501Z" fill="url(#paint17_linear)"/>
<path d="M83.0161 263.506C84.4136 260.799 85.0916 257.713 84.8734 254.553L87.7759 255.86C87.7545 258.929 87.0179 261.904 85.6874 264.574L83.0161 263.506Z" fill="url(#paint18_linear)"/>
<path d="M67.3469 257.246L66.8742 257.058L66.2567 254.753L68.8554 254.057L69.5517 256.656L67.3469 257.246Z" fill="url(#paint19_linear)"/>
<path d="M63.7558 255.812L63.1732 255.579L63.6586 255.449L63.7558 255.812Z" fill="url(#paint20_linear)"/>
<path d="M56.6261 252.963L54.0776 251.945C55.0241 248.481 57.2567 245.44 60.3744 243.518L63.5469 244.947C60.0114 246.374 57.4915 249.415 56.6261 252.963Z" fill="url(#paint21_linear)"/>
<path d="M67.6422 246.792C66.9655 246.812 66.2803 246.911 65.5978 247.093C62.2454 247.992 59.854 250.686 59.1807 253.864L74.3307 249.804L67.6422 246.792Z" fill="url(#paint22_linear)"/>
<path d="M72.1508 255.959L76.7655 254.723C76.7162 254.281 76.6333 253.839 76.5151 253.398C76.3967 252.956 76.2471 252.531 76.0692 252.124L71.4545 253.361L72.1508 255.959Z" fill="url(#paint23_linear)"/>
</g>
<g style="mix-blend-mode:overlay">
<path fill-rule="evenodd" clip-rule="evenodd" d="M50.0318 246.963C49.5737 247.898 49.1881 248.87 48.8803 249.869L51.5609 250.94C51.8518 249.947 52.2322 248.984 52.6952 248.064L50.0318 246.963ZM55.1942 249.097C54.7233 250.001 54.3479 250.956 54.0776 251.946L56.626 252.964C56.8671 251.975 57.2365 251.026 57.7205 250.141L55.1942 249.097ZM60.2265 251.176C59.7375 252.005 59.3822 252.913 59.1807 253.864L63.7606 252.637L60.2265 251.176ZM67.8501 254.327L66.2567 254.754L66.8741 257.058L67.3468 257.247L69.5516 256.656L69.0616 254.827L67.8501 254.327ZM76.0274 257.706L72.8459 258.558L73.1116 259.55L80.4995 262.501C80.9304 261.702 81.2861 260.862 81.5598 259.992L76.0274 257.706ZM86.712 262.121L84.0588 261.025C83.7766 261.88 83.4275 262.71 83.0161 263.507L85.6873 264.574C86.0823 263.781 86.4249 262.962 86.712 262.121ZM63.7558 255.812L63.1732 255.579L63.6585 255.449L63.7558 255.812Z" fill="url(#paint24_linear)"/>
</g>
</g>
<g filter="url(#filter5_d)">
<path d="M361.111 247.57C363.954 258.18 357.658 269.085 347.048 271.928C336.438 274.771 325.532 268.475 322.689 257.865C319.846 247.255 326.143 236.349 336.753 233.506C347.363 230.663 358.268 236.96 361.111 247.57Z" fill="#FFBE5E"/>
<g filter="url(#filter6_i)">
<path d="M333.255 250.855L333.185 250.874C333.858 247.697 336.25 245.002 339.602 244.104C341.765 243.525 343.954 243.792 345.819 244.703L345.872 244.689L349.304 243.769C346.508 241.462 342.675 240.495 338.906 241.505C333.154 243.046 329.575 248.647 330.426 254.399L337.663 252.459L338.359 255.058L331.121 256.997L331.13 257.017C331.475 257.885 331.917 258.692 332.44 259.43L339.055 257.658L340.827 264.272C341.733 264.357 342.662 264.335 343.592 264.198L341.653 256.962L344.252 256.266L346.191 263.502C347.066 263.156 347.881 262.711 348.623 262.184L346.85 255.569L353.465 253.796C353.59 252.462 353.484 251.082 353.117 249.712C352.749 248.341 352.152 247.093 351.376 246L349.837 246.412L333.255 250.855ZM343.556 253.666L340.957 254.362L340.261 251.764L342.86 251.068L343.556 253.666ZM350.77 251.733L346.155 252.97L345.459 250.371L350.074 249.135C350.252 249.541 350.401 249.966 350.519 250.408C350.638 250.849 350.721 251.292 350.77 251.733Z" fill="#F4A837"/>
<path d="M337.497 236.283C328.42 238.715 323.034 248.045 325.466 257.12C327.898 266.196 337.227 271.583 346.304 269.151C355.38 266.719 360.766 257.389 358.334 248.314C355.902 239.238 346.573 233.851 337.497 236.283ZM345.606 266.548C337.968 268.594 330.116 264.061 328.07 256.423C326.023 248.784 330.556 240.933 338.194 238.886C345.833 236.84 353.684 241.373 355.731 249.011C357.778 256.649 353.245 264.501 345.606 266.548Z" fill="#F4A837"/>
</g>
<path fill-rule="evenodd" clip-rule="evenodd" d="M336.454 235.14C336.346 234.736 336.586 234.32 336.99 234.212C341.767 232.932 346.606 233.547 350.708 235.594C351.082 235.781 351.234 236.236 351.047 236.61C350.861 236.985 350.405 237.137 350.031 236.95C346.248 235.061 341.788 234.495 337.382 235.676C336.978 235.784 336.562 235.544 336.454 235.14Z" fill="white"/>
<path fill-rule="evenodd" clip-rule="evenodd" d="M345.96 270.619C346.069 271.023 346.484 271.263 346.889 271.154C348.666 270.678 350.322 269.97 351.83 269.07C352.189 268.856 352.307 268.391 352.092 268.031C351.878 267.672 351.413 267.554 351.053 267.769C349.664 268.597 348.138 269.251 346.496 269.691C346.092 269.799 345.852 270.214 345.96 270.619Z" fill="white"/>
<g style="mix-blend-mode:overlay">
<path d="M322.942 246.864C324 243.431 325.974 240.326 328.656 237.91L331.57 239.222C328.706 241.431 326.629 244.498 325.623 247.935L322.942 246.864Z" fill="url(#paint25_linear)"/>
<path d="M354.562 259.496C356.044 256.748 356.635 253.512 356.067 250.256L352.907 248.833C353.006 249.115 353.096 249.403 353.174 249.696C353.542 251.067 353.648 252.446 353.523 253.781L346.908 255.553L347.174 256.545L354.562 259.496Z" fill="url(#paint26_linear)"/>
<path d="M357.078 260.502C358.476 257.794 359.154 254.708 358.935 251.548L361.838 252.855C361.817 255.924 361.08 258.899 359.749 261.569L357.078 260.502Z" fill="url(#paint27_linear)"/>
<path d="M341.409 254.242L340.936 254.053L340.319 251.748L342.917 251.052L343.614 253.651L341.409 254.242Z" fill="url(#paint28_linear)"/>
<path d="M337.818 252.807L337.235 252.574L337.721 252.444L337.818 252.807Z" fill="url(#paint29_linear)"/>
<path d="M330.688 249.958L328.14 248.94C329.086 245.476 331.319 242.435 334.436 240.513L337.609 241.942C334.073 243.369 331.553 246.41 330.688 249.958Z" fill="url(#paint30_linear)"/>
<path d="M341.704 243.787C341.027 243.807 340.342 243.906 339.66 244.089C336.307 244.987 333.916 247.681 333.243 250.859L348.393 246.799L341.704 243.787Z" fill="url(#paint31_linear)"/>
<path d="M346.213 252.954L350.827 251.718C350.778 251.277 350.695 250.834 350.577 250.393C350.459 249.951 350.309 249.526 350.131 249.119L345.517 250.356L346.213 252.954Z" fill="url(#paint32_linear)"/>
</g>
<g style="mix-blend-mode:overlay">
<path fill-rule="evenodd" clip-rule="evenodd" d="M324.094 243.958C323.636 244.893 323.25 245.865 322.942 246.864L325.623 247.935C325.914 246.942 326.294 245.979 326.757 245.059L324.094 243.958ZM329.256 246.092C328.785 246.996 328.41 247.951 328.14 248.941L330.688 249.959C330.929 248.97 331.299 248.021 331.783 247.136L329.256 246.092ZM334.288 248.171C333.8 249.001 333.444 249.908 333.243 250.859L337.823 249.632L334.288 248.171ZM341.912 251.322L340.319 251.749L340.936 254.053L341.409 254.242L343.614 253.651L343.124 251.823L341.912 251.322ZM350.089 254.701L346.908 255.554L347.174 256.545L354.561 259.496C354.992 258.697 355.348 257.857 355.622 256.987L350.089 254.701ZM360.774 259.117L358.121 258.02C357.839 258.875 357.49 259.705 357.078 260.502L359.749 261.569C360.144 260.777 360.487 259.957 360.774 259.117ZM337.818 252.807L337.235 252.574L337.721 252.444L337.818 252.807Z" fill="url(#paint33_linear)"/>
</g>
</g>
<g filter="url(#filter7_d)">
<path d="M99.4386 325.907C103.178 339.862 94.8963 354.206 80.9413 357.945C66.9863 361.684 52.6423 353.403 48.903 339.448C45.1638 325.493 53.4453 311.149 67.4003 307.41C81.3554 303.67 95.6994 311.952 99.4386 325.907Z" fill="#FFBE5E"/>
<g filter="url(#filter8_i)">
<path d="M62.7995 330.229L62.7081 330.253C63.5936 326.074 66.739 322.53 71.1484 321.349C73.9927 320.587 76.8723 320.939 79.3251 322.137L79.3946 322.118L83.909 320.909C80.2311 317.874 75.1895 316.602 70.2323 317.93C62.6673 319.957 57.9603 327.325 59.0795 334.89L68.5977 332.339L69.5135 335.757L59.9936 338.307L60.0045 338.333C60.4586 339.475 61.0403 340.536 61.728 341.507L70.428 339.176L72.7592 347.876C73.9513 347.987 75.1724 347.959 76.3964 347.778L73.8461 338.261L77.264 337.345L79.8145 346.863C80.9655 346.407 82.0366 345.822 83.0131 345.129L80.6817 336.428L89.3817 334.097C89.5463 332.341 89.4069 330.527 88.9238 328.724C88.4406 326.921 87.6544 325.281 86.6341 323.843L84.6096 324.385L62.7995 330.229ZM76.3488 333.926L72.9309 334.842L72.015 331.424L75.4329 330.508L76.3488 333.926ZM85.8369 331.384L79.7674 333.01L78.8516 329.592L84.9211 327.966C85.1552 328.501 85.3519 329.059 85.5076 329.641C85.6631 330.221 85.7721 330.803 85.8369 331.384Z" fill="#F4A837"/>
<path d="M68.3791 311.062C56.441 314.261 49.3571 326.532 52.5557 338.469C55.7543 350.406 68.0245 357.491 79.9626 354.293C91.9006 351.094 98.9846 338.823 95.786 326.886C92.5874 314.948 80.3171 307.863 68.3791 311.062ZM79.0451 350.869C68.9985 353.561 58.6716 347.598 55.9796 337.552C53.2876 327.505 59.2499 317.178 69.2965 314.486C79.3431 311.794 89.6701 317.756 92.362 327.803C95.054 337.85 89.0918 348.177 79.0451 350.869Z" fill="#F4A837"/>
</g>
<path fill-rule="evenodd" clip-rule="evenodd" d="M67.0076 309.559C66.8651 309.028 67.1806 308.481 67.7123 308.339C73.9948 306.655 80.3603 307.463 85.7552 310.156C86.2477 310.402 86.4476 311.001 86.2018 311.493C85.9559 311.986 85.3574 312.186 84.8649 311.94C79.8889 309.456 74.0225 308.711 68.2282 310.264C67.6965 310.407 67.15 310.091 67.0076 309.559Z" fill="white"/>
<path fill-rule="evenodd" clip-rule="evenodd" d="M79.5112 356.223C79.6537 356.755 80.2002 357.07 80.7318 356.928C83.0703 356.301 85.2474 355.369 87.2308 354.186C87.7035 353.904 87.8582 353.293 87.5762 352.82C87.2943 352.347 86.6825 352.192 86.2098 352.474C84.3825 353.564 82.3753 354.424 80.2159 355.002C79.6843 355.145 79.3688 355.691 79.5112 356.223Z" fill="white"/>
<g style="mix-blend-mode:overlay">
<path d="M49.2358 324.979C50.6267 320.464 53.2235 316.379 56.7513 313.202L60.5831 314.928C56.8162 317.833 54.0852 321.868 52.7616 326.388L49.2358 324.979Z" fill="url(#paint34_linear)"/>
<path d="M90.8239 341.594C92.7736 337.979 93.5513 333.724 92.8038 329.44L88.6479 327.569C88.7785 327.939 88.8959 328.318 88.9994 328.704C89.4825 330.507 89.622 332.321 89.4573 334.077L80.7573 336.408L81.1067 337.712L90.8239 341.594Z" fill="url(#paint35_linear)"/>
<path d="M94.1339 342.916C95.972 339.356 96.8637 335.296 96.5767 331.14L100.394 332.859C100.366 336.896 99.3973 340.808 97.6473 344.32L94.1339 342.916Z" fill="url(#paint36_linear)"/>
<path d="M73.5245 334.683L72.9027 334.434L72.0906 331.404L75.5086 330.488L76.4244 333.906L73.5245 334.683Z" fill="url(#paint37_linear)"/>
<path d="M68.8012 332.796L68.0349 332.49L68.6733 332.319L68.8012 332.796Z" fill="url(#paint38_linear)"/>
<path d="M59.4236 329.049L56.0717 327.71C57.3166 323.154 60.2531 319.154 64.3537 316.626L68.5265 318.506C63.8762 320.383 60.5618 324.383 59.4236 329.049Z" fill="url(#paint39_linear)"/>
<path d="M73.9129 320.932C73.0228 320.959 72.1216 321.088 71.2239 321.329C66.8146 322.51 63.6692 326.054 62.7837 330.233L82.7102 324.894L73.9129 320.932Z" fill="url(#paint40_linear)"/>
<path d="M79.843 332.99L85.9125 331.363C85.8477 330.783 85.7387 330.201 85.5832 329.62C85.4275 329.039 85.2308 328.481 84.9967 327.946L78.9271 329.572L79.843 332.99Z" fill="url(#paint41_linear)"/>
</g>
<g style="mix-blend-mode:overlay">
<path fill-rule="evenodd" clip-rule="evenodd" d="M50.7503 321.157C50.1478 322.387 49.6407 323.665 49.2358 324.979L52.7615 326.388C53.1442 325.081 53.6445 323.815 54.2534 322.605L50.7503 321.157ZM57.5403 323.963C56.9209 325.153 56.4273 326.409 56.0717 327.71L59.4236 329.05C59.7406 327.75 60.2265 326.501 60.8631 325.336L57.5403 323.963ZM64.1591 326.699C63.5161 327.789 63.0487 328.983 62.7836 330.234L68.8075 328.62L64.1591 326.699ZM74.1864 330.842L72.0906 331.404L72.9027 334.435L73.5244 334.683L76.4243 333.906L75.7799 331.501L74.1864 330.842ZM84.9418 335.287L80.7573 336.408L81.1066 337.712L90.8238 341.594C91.3906 340.543 91.8584 339.438 92.2184 338.294L84.9418 335.287ZM98.995 341.094L95.5053 339.652C95.1341 340.777 94.675 341.868 94.1339 342.917L97.6473 344.32C98.1667 343.278 98.6173 342.2 98.995 341.094ZM68.8011 332.796L68.0349 332.49L68.6733 332.319L68.8011 332.796Z" fill="url(#paint42_linear)"/>
</g>
</g>
<g filter="url(#filter9_d)">
<path d="M319.686 349.991C313.739 363.157 298.245 369.01 285.078 363.063C271.911 357.117 266.059 341.622 272.005 328.456C277.952 315.289 293.447 309.436 306.613 315.383C319.78 321.33 325.633 336.824 319.686 349.991Z" fill="#FFBE5E"/>
<g filter="url(#filter10_i)">
<path d="M288.598 330.125L288.512 330.086C291.844 327.414 296.523 326.664 300.683 328.543C303.367 329.755 305.372 331.851 306.511 334.332L306.576 334.362L310.836 336.286C309.913 331.607 306.817 327.43 302.14 325.317C295.002 322.094 286.693 324.812 282.767 331.375L291.748 335.431L290.291 338.655L281.309 334.599L281.302 334.625C280.93 335.796 280.707 336.986 280.625 338.173L288.833 341.88L285.126 350.089C285.978 350.93 286.94 351.682 288.002 352.317L292.058 343.338L295.282 344.794L291.226 353.775C292.406 354.151 293.605 354.377 294.8 354.459L298.508 346.25L306.716 349.957C307.955 348.703 308.997 347.211 309.765 345.51C310.533 343.809 310.964 342.041 311.086 340.282L309.176 339.419L288.598 330.125ZM296.74 341.569L293.515 340.112L294.972 336.888L298.196 338.344L296.74 341.569ZM305.692 345.612L299.965 343.026L301.422 339.801L307.149 342.387C306.991 342.95 306.789 343.507 306.541 344.055C306.294 344.602 306.01 345.122 305.692 345.612Z" fill="#F4A837"/>
<path d="M305.057 318.829C293.793 313.742 280.538 318.749 275.452 330.012C270.365 341.275 275.371 354.53 286.635 359.617C297.898 364.704 311.153 359.697 316.24 348.434C321.327 337.171 316.32 323.916 305.057 318.829ZM288.094 356.387C278.615 352.105 274.401 340.95 278.682 331.471C282.963 321.992 294.118 317.778 303.598 322.06C313.077 326.341 317.29 337.496 313.009 346.975C308.728 356.454 297.573 360.668 288.094 356.387Z" fill="#F4A837"/>
</g>
<path fill-rule="evenodd" clip-rule="evenodd" d="M304.948 316.797C305.174 316.295 305.765 316.072 306.266 316.299C312.194 318.976 316.607 323.634 319.076 329.135C319.301 329.637 319.077 330.227 318.575 330.452C318.072 330.678 317.483 330.453 317.257 329.951C314.98 324.877 310.913 320.585 305.446 318.115C304.944 317.889 304.721 317.299 304.948 316.797Z" fill="white"/>
<path fill-rule="evenodd" clip-rule="evenodd" d="M285.063 360.825C284.836 361.326 285.059 361.917 285.561 362.143C287.767 363.14 290.042 363.798 292.326 364.139C292.87 364.22 293.377 363.845 293.459 363.3C293.54 362.756 293.165 362.249 292.62 362.167C290.516 361.853 288.418 361.247 286.381 360.327C285.879 360.1 285.289 360.323 285.063 360.825Z" fill="white"/>
<g style="mix-blend-mode:overlay">
<path d="M281.428 317.471C285.365 314.858 289.962 313.343 294.704 313.119L296.576 316.882C291.821 316.743 287.152 318.135 283.264 320.794L281.428 317.471Z" fill="url(#paint43_linear)"/>
<path d="M303.083 356.672C306.881 355.11 310.179 352.31 312.314 348.522L310.284 344.441C310.15 344.811 310.001 345.178 309.836 345.542C309.068 347.243 308.027 348.735 306.787 349.989L298.579 346.282L298.023 347.512L303.083 356.672Z" fill="url(#paint44_linear)"/>
<path d="M304.806 359.792C308.484 358.201 311.746 355.625 314.157 352.227L316.021 355.976C313.443 359.081 310.215 361.495 306.636 363.103L304.806 359.792Z" fill="url(#paint45_linear)"/>
<path d="M294.075 340.365L293.751 339.779L295.043 336.92L298.268 338.376L296.811 341.601L294.075 340.365Z" fill="url(#paint46_linear)"/>
<path d="M291.616 335.913L291.217 335.191L291.819 335.463L291.616 335.913Z" fill="url(#paint47_linear)"/>
<path d="M286.733 327.074L284.988 323.914C288.837 321.177 293.643 319.943 298.418 320.584L300.456 324.682C295.668 323.189 290.57 324.184 286.733 327.074Z" fill="url(#paint48_linear)"/>
<path d="M303.087 329.971C302.381 329.428 301.601 328.958 300.754 328.575C296.594 326.696 291.915 327.446 288.583 330.119L307.384 338.61L303.087 329.971Z" fill="url(#paint49_linear)"/>
<path d="M300.037 343.058L305.763 345.644C306.081 345.154 306.365 344.635 306.613 344.087C306.86 343.539 307.062 342.982 307.22 342.42L301.493 339.833L300.037 343.058Z" fill="url(#paint50_linear)"/>
</g>
<g style="mix-blend-mode:overlay">
<path fill-rule="evenodd" clip-rule="evenodd" d="M285.021 315.473C283.776 316.043 282.574 316.71 281.428 317.471L283.264 320.794C284.388 320.025 285.577 319.363 286.815 318.812L285.021 315.473ZM288.498 321.945C287.265 322.473 286.087 323.132 284.988 323.914L286.733 327.074C287.802 326.269 288.968 325.611 290.199 325.113L288.498 321.945ZM291.887 328.254C290.698 328.691 289.58 329.319 288.583 330.118L294.266 332.685L291.887 328.254ZM297.02 337.813L295.043 336.92L293.751 339.779L294.075 340.365L296.811 341.601L297.836 339.332L297.02 337.813ZM302.527 348.065L298.579 346.282L298.023 347.512L303.083 356.671C304.187 356.217 305.249 355.659 306.253 355.001L302.527 348.065ZM309.722 361.461L307.935 358.134C306.936 358.769 305.889 359.323 304.806 359.792L306.636 363.103C307.698 362.626 308.729 362.077 309.722 361.461ZM291.616 335.913L291.217 335.191L291.819 335.463L291.616 335.913Z" fill="url(#paint51_linear)"/>
</g>
</g>
<g opacity="0.5" filter="url(#filter11_d)">
<path d="M41.9315 292.38C41.2186 301.117 33.5577 307.622 24.8204 306.909C16.083 306.197 9.57799 298.536 10.2909 289.798C11.0038 281.061 18.6648 274.556 27.4021 275.269C36.1394 275.982 42.6444 283.643 41.9315 292.38Z" fill="#FFBE5E"/>
<g filter="url(#filter12_i)">
<path d="M20.1136 287.368L20.0563 287.364C21.4157 285.157 23.9366 283.774 26.6973 283.999C28.4782 284.144 30.0517 284.933 31.2085 286.119L31.2521 286.122L34.0785 286.353C32.5967 283.868 29.9757 282.112 26.8719 281.859C22.1355 281.472 17.9416 284.721 17.0363 289.272L22.9959 289.758L22.8213 291.898L16.8608 291.411L16.8618 291.428C16.8882 292.173 17.0038 292.898 17.1985 293.594L22.6457 294.038L22.2012 299.485C22.8596 299.792 23.5631 300.025 24.2993 300.172L24.7856 294.213L26.9255 294.388L26.4393 300.347C27.1901 300.322 27.9215 300.206 28.621 300.009L29.0655 294.562L34.5127 295.006C34.9652 294.037 35.2559 292.972 35.348 291.843C35.4401 290.714 35.3259 289.616 35.0365 288.586L33.769 288.483L20.1136 287.368ZM27.1007 292.247L24.9607 292.073L25.1353 289.933L27.2753 290.107L27.1007 292.247ZM33.0413 292.732L29.2411 292.422L29.4157 290.282L33.2159 290.592C33.2404 290.946 33.2387 291.305 33.209 291.669C33.1793 292.032 33.1227 292.387 33.0413 292.732Z" fill="#F4A837"/>
<path d="M27.2155 277.555C19.741 276.946 13.1877 282.511 12.5779 289.985C11.968 297.459 17.5325 304.012 25.007 304.622C32.4815 305.232 39.0348 299.667 39.6446 292.193C40.2544 284.719 34.69 278.165 27.2155 277.555ZM25.1819 302.478C18.8916 301.965 14.2084 296.45 14.7216 290.159C15.2349 283.869 20.7503 279.186 27.0406 279.699C33.3308 280.212 38.0141 285.728 37.5009 292.018C36.9876 298.308 31.4721 302.992 25.1819 302.478Z" fill="#F4A837"/>
</g>
<path fill-rule="evenodd" clip-rule="evenodd" d="M26.7389 276.417C26.7661 276.084 27.0579 275.836 27.3908 275.863C31.3243 276.184 34.7965 277.946 37.3292 280.586C37.5604 280.827 37.5525 281.21 37.3114 281.441C37.0704 281.672 36.6876 281.664 36.4564 281.423C34.1203 278.988 30.9203 277.365 27.2925 277.069C26.9596 277.041 26.7117 276.75 26.7389 276.417Z" fill="white"/>
<path fill-rule="evenodd" clip-rule="evenodd" d="M24.355 305.633C24.3278 305.966 24.5756 306.258 24.9085 306.285C26.3726 306.404 27.8068 306.317 29.1817 306.046C29.5094 305.981 29.7227 305.663 29.6581 305.335C29.5936 305.008 29.2756 304.794 28.9479 304.859C27.6812 305.109 26.3588 305.19 25.0069 305.08C24.674 305.052 24.3821 305.3 24.355 305.633Z" fill="white"/>
<g style="mix-blend-mode:overlay">
<path d="M13.4354 281.599C15.1521 279.303 17.4699 277.499 20.1345 276.404L21.9716 278.173C19.2259 279.064 16.8416 280.811 15.1623 283.124L13.4354 281.599Z" fill="url(#paint52_linear)"/>
<path d="M33.8059 299.585C35.6581 297.917 36.9714 295.645 37.4188 293.044L35.4264 291.126C35.4253 291.365 35.4151 291.605 35.3953 291.847C35.3032 292.976 35.0125 294.041 34.56 295.01L29.1128 294.566L29.0462 295.382L33.8059 299.585Z" fill="url(#paint53_linear)"/>
<path d="M35.4272 301.016C37.2045 299.357 38.543 297.219 39.2277 294.786L41.0579 296.548C40.2176 298.849 38.8651 300.886 37.1481 302.536L35.4272 301.016Z" fill="url(#paint54_linear)"/>
<path d="M25.3323 292.103L25.0278 291.834L25.1826 289.937L27.3226 290.111L27.148 292.251L25.3323 292.103Z" fill="url(#paint55_linear)"/>
<path d="M23.0188 290.06L22.6435 289.729L23.0432 289.762L23.0188 290.06Z" fill="url(#paint56_linear)"/>
<path d="M18.4255 286.005L16.7837 284.555C18.4254 282.206 20.92 280.52 23.7793 279.913L25.7798 281.839C22.7394 281.962 20.0288 283.571 18.4255 286.005Z" fill="url(#paint57_linear)"/>
<path d="M28.3622 284.325C27.848 284.159 27.3066 284.049 26.7446 284.003C23.9839 283.778 21.463 285.161 20.1037 287.368L32.5797 288.386L28.3622 284.325Z" fill="url(#paint58_linear)"/>
<path d="M29.2884 292.426L33.0886 292.736C33.17 292.391 33.2266 292.036 33.2563 291.673C33.286 291.309 33.2877 290.95 33.2632 290.596L29.463 290.286L29.2884 292.426Z" fill="url(#paint59_linear)"/>
</g>
<g style="mix-blend-mode:overlay">
<path fill-rule="evenodd" clip-rule="evenodd" d="M15.0812 279.725C14.4859 280.304 13.9352 280.931 13.4354 281.599L15.1624 283.124C15.6479 282.455 16.1923 281.834 16.7873 281.267L15.0812 279.725ZM18.388 282.714C17.7913 283.267 17.2527 283.884 16.7837 284.555L18.4256 286.005C18.8722 285.327 19.4047 284.713 20.0063 284.177L18.388 282.714ZM21.6115 285.629C21.0213 286.121 20.5105 286.707 20.1037 287.368L23.8753 287.675L21.6115 285.629ZM26.4949 290.044L25.1827 289.937L25.0278 291.834L25.3324 292.103L27.148 292.251L27.2709 290.746L26.4949 290.044ZM31.7329 294.78L29.1129 294.566L29.0463 295.382L33.8059 299.585C34.3444 299.1 34.8373 298.564 35.2767 297.984L31.7329 294.78ZM38.5769 300.968L36.8774 299.431C36.4357 299.998 35.9505 300.528 35.4272 301.016L37.1482 302.536C37.6578 302.046 38.1353 301.522 38.5769 300.968ZM23.0189 290.061L22.6435 289.729L23.0432 289.762L23.0189 290.061Z" fill="url(#paint60_linear)"/>
</g>
</g>
<g opacity="0.5" filter="url(#filter13_d)">
<path d="M30.8974 219.537C30.5279 224.066 26.5574 227.437 22.029 227.068C17.5006 226.698 14.1292 222.728 14.4987 218.199C14.8682 213.671 18.8387 210.3 23.3671 210.669C27.8955 211.039 31.2669 215.009 30.8974 219.537Z" fill="#FFBE5E"/>
<g filter="url(#filter14_i)">
<path d="M19.5896 216.94L19.5599 216.937C20.2645 215.793 21.571 215.077 23.0018 215.193C23.9248 215.269 24.7403 215.678 25.3399 216.292L25.3625 216.294L26.8274 216.414C26.0594 215.125 24.7009 214.215 23.0923 214.084C20.6375 213.884 18.4639 215.567 17.9947 217.926L21.0834 218.178L20.9929 219.287L17.9037 219.035L17.9043 219.044C17.9179 219.43 17.9778 219.806 18.0788 220.166L20.9019 220.396L20.6716 223.22C21.0128 223.379 21.3774 223.5 21.759 223.576L22.011 220.487L23.1201 220.578L22.8681 223.666C23.2572 223.653 23.6363 223.593 23.9989 223.491L24.2292 220.668L27.0524 220.898C27.2869 220.396 27.4376 219.844 27.4853 219.259C27.5331 218.674 27.4739 218.105 27.3239 217.571L26.667 217.517L19.5896 216.94ZM23.2109 219.468L22.1018 219.378L22.1923 218.269L23.3014 218.359L23.2109 219.468ZM26.2898 219.72L24.3202 219.559L24.4107 218.45L26.3803 218.61C26.393 218.794 26.3921 218.98 26.3767 219.169C26.3613 219.357 26.332 219.541 26.2898 219.72Z" fill="#F4A837"/>
<path d="M23.2704 211.854C19.3966 211.538 16.0001 214.422 15.684 218.296C15.368 222.169 18.2519 225.566 22.1258 225.882C25.9997 226.198 29.3961 223.314 29.7122 219.44C30.0283 215.567 27.1443 212.17 23.2704 211.854ZM22.2165 224.771C18.9563 224.505 16.5291 221.647 16.7951 218.386C17.0611 215.126 19.9197 212.699 23.1798 212.965C26.4399 213.231 28.8672 216.09 28.6011 219.35C28.3351 222.61 25.4766 225.037 22.2165 224.771Z" fill="#F4A837"/>
</g>
<path fill-rule="evenodd" clip-rule="evenodd" d="M23.0233 211.264C23.0374 211.092 23.1887 210.963 23.3612 210.977C25.3999 211.143 27.1994 212.056 28.5121 213.425C28.6319 213.55 28.6278 213.748 28.5029 213.868C28.378 213.988 28.1796 213.984 28.0597 213.859C26.849 212.597 25.1905 211.755 23.3102 211.602C23.1377 211.588 23.0093 211.437 23.0233 211.264Z" fill="white"/>
<path fill-rule="evenodd" clip-rule="evenodd" d="M21.7878 226.406C21.7737 226.579 21.9022 226.73 22.0747 226.744C22.8335 226.806 23.5769 226.761 24.2894 226.62C24.4593 226.587 24.5698 226.422 24.5363 226.252C24.5029 226.082 24.3381 225.972 24.1682 226.005C23.5118 226.135 22.8264 226.177 22.1257 226.119C21.9532 226.105 21.8019 226.234 21.7878 226.406Z" fill="white"/>
<g style="mix-blend-mode:overlay">
<path d="M16.1284 213.95C17.0182 212.76 18.2195 211.825 19.6005 211.257L20.5526 212.174C19.1295 212.636 17.8938 213.541 17.0235 214.74L16.1284 213.95Z" fill="url(#paint61_linear)"/>
<path d="M26.6861 223.271C27.646 222.407 28.3267 221.229 28.5586 219.882L27.526 218.887C27.5254 219.011 27.5201 219.136 27.5099 219.261C27.4621 219.846 27.3114 220.398 27.0769 220.9L24.2538 220.67L24.2192 221.093L26.6861 223.271Z" fill="url(#paint62_linear)"/>
<path d="M27.5264 224.013C28.4475 223.153 29.1412 222.045 29.4961 220.784L30.4447 221.697C30.0092 222.89 29.3082 223.946 28.4183 224.801L27.5264 224.013Z" fill="url(#paint63_linear)"/>
<path d="M22.2944 219.394L22.1366 219.254L22.2168 218.271L23.3259 218.361L23.2354 219.471L22.2944 219.394Z" fill="url(#paint64_linear)"/>
<path d="M21.0953 218.335L20.9008 218.163L21.108 218.18L21.0953 218.335Z" fill="url(#paint65_linear)"/>
<path d="M18.7147 216.233L17.8638 215.482C18.7147 214.264 20.0076 213.391 21.4895 213.076L22.5263 214.074C20.9505 214.138 19.5457 214.972 18.7147 216.233Z" fill="url(#paint66_linear)"/>
<path d="M23.8647 215.363C23.5982 215.276 23.3176 215.219 23.0263 215.196C21.5955 215.079 20.289 215.796 19.5845 216.939L26.0506 217.467L23.8647 215.363Z" fill="url(#paint67_linear)"/>
<path d="M24.3447 219.561L26.3143 219.722C26.3565 219.543 26.3859 219.359 26.4012 219.171C26.4166 218.982 26.4175 218.796 26.4048 218.613L24.4352 218.452L24.3447 219.561Z" fill="url(#paint68_linear)"/>
</g>
<g style="mix-blend-mode:overlay">
<path fill-rule="evenodd" clip-rule="evenodd" d="M16.9815 212.978C16.6729 213.279 16.3875 213.603 16.1285 213.95L17.0235 214.74C17.2752 214.394 17.5573 214.072 17.8657 213.778L16.9815 212.978ZM18.6953 214.528C18.386 214.814 18.1069 215.134 17.8639 215.482L18.7148 216.233C18.9463 215.882 19.2222 215.564 19.534 215.286L18.6953 214.528ZM20.366 216.038C20.0601 216.293 19.7954 216.597 19.5845 216.94L21.5393 217.099L20.366 216.038ZM22.897 218.327L22.2169 218.271L22.1366 219.255L22.2945 219.394L23.2355 219.471L23.2992 218.69L22.897 218.327ZM25.6117 220.781L24.2538 220.67L24.2193 221.093L26.6861 223.271C26.9652 223.02 27.2207 222.742 27.4484 222.442L25.6117 220.781ZM29.1588 223.988L28.278 223.192C28.0491 223.485 27.7976 223.76 27.5264 224.013L28.4184 224.801C28.6825 224.547 28.93 224.276 29.1588 223.988ZM21.0954 218.335L20.9009 218.163L21.108 218.18L21.0954 218.335Z" fill="url(#paint69_linear)"/>
</g>
</g>
<g opacity="0.5" filter="url(#filter15_d)">
<path d="M377.139 310.909C376.426 319.647 368.765 326.152 360.028 325.439C351.29 324.726 344.785 317.065 345.498 308.328C346.211 299.59 353.872 293.085 362.609 293.798C371.347 294.511 377.852 302.172 377.139 310.909Z" fill="#FFBE5E"/>
<g filter="url(#filter16_i)">
<path d="M355.321 305.898L355.264 305.893C356.623 303.686 359.144 302.303 361.905 302.528C363.685 302.674 365.259 303.463 366.416 304.648L366.459 304.652L369.286 304.882C367.804 302.397 365.183 300.641 362.079 300.388C357.343 300.001 353.149 303.25 352.244 307.801L358.203 308.287L358.029 310.427L352.068 309.941L352.069 309.957C352.095 310.702 352.211 311.428 352.406 312.123L357.853 312.567L357.408 318.014C358.067 318.322 358.77 318.555 359.507 318.701L359.993 312.742L362.133 312.917L361.647 318.877C362.397 318.851 363.129 318.736 363.828 318.539L364.273 313.091L369.72 313.536C370.172 312.566 370.463 311.501 370.555 310.372C370.647 309.243 370.533 308.145 370.244 307.115L368.976 307.012L355.321 305.898ZM362.308 310.777L360.168 310.602L360.343 308.462L362.483 308.637L362.308 310.777ZM368.249 311.261L364.448 310.951L364.623 308.811L368.423 309.121C368.448 309.475 368.446 309.834 368.416 310.198C368.387 310.562 368.33 310.916 368.249 311.261Z" fill="#F4A837"/>
<path d="M362.423 296.085C354.948 295.475 348.395 301.04 347.785 308.514C347.175 315.988 352.74 322.542 360.214 323.151C367.689 323.761 374.242 318.196 374.852 310.722C375.462 303.248 369.897 296.695 362.423 296.085ZM360.389 321.008C354.099 320.494 349.416 314.979 349.929 308.689C350.442 302.399 355.958 297.715 362.248 298.228C368.538 298.742 373.221 304.257 372.708 310.547C372.195 316.838 366.679 321.521 360.389 321.008Z" fill="#F4A837"/>
</g>
<path fill-rule="evenodd" clip-rule="evenodd" d="M361.946 294.946C361.973 294.613 362.265 294.365 362.598 294.392C366.532 294.713 370.004 296.475 372.537 299.115C372.768 299.356 372.76 299.739 372.519 299.97C372.278 300.201 371.895 300.194 371.664 299.952C369.328 297.517 366.128 295.894 362.5 295.598C362.167 295.571 361.919 295.279 361.946 294.946Z" fill="white"/>
<path fill-rule="evenodd" clip-rule="evenodd" d="M359.562 324.162C359.535 324.495 359.783 324.787 360.116 324.814C361.58 324.934 363.014 324.846 364.389 324.575C364.717 324.51 364.93 324.192 364.865 323.865C364.801 323.537 364.483 323.324 364.155 323.388C362.889 323.638 361.566 323.719 360.214 323.609C359.881 323.582 359.589 323.83 359.562 324.162Z" fill="white"/>
<g style="mix-blend-mode:overlay">
<path d="M348.643 300.128C350.359 297.832 352.677 296.029 355.342 294.933L357.179 296.702C354.433 297.593 352.049 299.341 350.37 301.653L348.643 300.128Z" fill="url(#paint70_linear)"/>
<path d="M369.013 318.114C370.865 316.446 372.179 314.174 372.626 311.574L370.634 309.656C370.633 309.894 370.622 310.134 370.603 310.376C370.511 311.505 370.22 312.57 369.767 313.54L364.32 313.095L364.254 313.912L369.013 318.114Z" fill="url(#paint71_linear)"/>
<path d="M370.634 319.545C372.412 317.886 373.75 315.749 374.435 313.315L376.265 315.077C375.425 317.378 374.072 319.415 372.355 321.065L370.634 319.545Z" fill="url(#paint72_linear)"/>
<path d="M360.54 310.632L360.235 310.364L360.39 308.466L362.53 308.641L362.355 310.781L360.54 310.632Z" fill="url(#paint73_linear)"/>
<path d="M358.226 308.59L357.851 308.258L358.25 308.291L358.226 308.59Z" fill="url(#paint74_linear)"/>
<path d="M353.633 304.534L351.991 303.085C353.633 300.735 356.127 299.05 358.987 298.442L360.987 300.368C357.947 300.491 355.236 302.1 353.633 304.534Z" fill="url(#paint75_linear)"/>
<path d="M363.569 302.855C363.055 302.688 362.514 302.578 361.952 302.532C359.191 302.307 356.67 303.69 355.311 305.897L367.787 306.915L363.569 302.855Z" fill="url(#paint76_linear)"/>
<path d="M364.496 310.955L368.296 311.265C368.377 310.92 368.434 310.566 368.464 310.202C368.493 309.838 368.495 309.479 368.47 309.125L364.67 308.815L364.496 310.955Z" fill="url(#paint77_linear)"/>
</g>
<g style="mix-blend-mode:overlay">
<path fill-rule="evenodd" clip-rule="evenodd" d="M350.289 298.254C349.693 298.833 349.142 299.46 348.643 300.128L350.37 301.653C350.855 300.985 351.4 300.363 351.995 299.796L350.289 298.254ZM353.595 301.244C352.999 301.797 352.46 302.414 351.991 303.085L353.633 304.534C354.079 303.856 354.612 303.242 355.214 302.707L353.595 301.244ZM356.819 304.158C356.229 304.65 355.718 305.237 355.311 305.897L359.083 306.205L356.819 304.158ZM361.702 308.573L360.39 308.466L360.235 310.364L360.54 310.633L362.355 310.781L362.478 309.275L361.702 308.573ZM366.94 313.309L364.32 313.095L364.254 313.912L369.013 318.114C369.552 317.629 370.045 317.093 370.484 316.513L366.94 313.309ZM373.784 319.497L372.085 317.96C371.643 318.527 371.158 319.057 370.635 319.545L372.355 321.065C372.865 320.575 373.343 320.052 373.784 319.497ZM358.226 308.59L357.851 308.259L358.251 308.291L358.226 308.59Z" fill="url(#paint78_linear)"/>
</g>
</g>
<path d="M27.2823 132.291C28.8494 132.287 30.3572 131.692 31.5052 130.625L42.7211 137.034C42.3453 138.502 42.5109 140.057 43.1877 141.413C43.8645 142.769 45.0071 143.837 46.4065 144.419C47.8058 145.002 49.3681 145.061 50.8075 144.586C52.2469 144.111 53.4671 143.133 54.2446 141.832C55.0221 140.531 55.305 138.993 55.0414 137.501C54.7779 136.008 53.9856 134.66 52.8095 133.704C51.6334 132.748 50.1522 132.247 48.6372 132.294C47.1221 132.34 45.6745 132.931 44.5593 133.957L33.3435 127.549C33.4617 127.101 33.5262 126.637 33.537 126.173L44.5557 119.875C45.6167 120.84 46.9774 121.411 48.4095 121.492C49.8416 121.573 51.258 121.159 52.4211 120.32C53.5842 119.48 54.4231 118.266 54.7973 116.882C55.1714 115.497 55.0579 114.026 54.4759 112.715C53.8938 111.404 52.8786 110.333 51.6006 109.681C50.3226 109.03 48.8594 108.838 47.4567 109.138C46.0539 109.438 44.7969 110.211 43.8965 111.327C42.9961 112.444 42.507 113.836 42.5114 115.27C42.5186 115.786 42.5885 116.301 42.7211 116.799L32.5372 122.616C31.9467 121.703 31.1286 120.958 30.1633 120.456C29.198 119.955 28.1189 119.713 27.0318 119.754C25.9446 119.796 24.887 120.119 23.9628 120.693C23.0386 121.267 22.2796 122.071 21.7604 123.027C21.2411 123.983 20.9795 125.058 21.0013 126.146C21.023 127.233 21.3273 128.297 21.8843 129.231C22.4413 130.166 23.2319 130.939 24.1783 131.476C25.1247 132.012 26.1944 132.293 27.2823 132.291Z" fill="url(#paint79_linear)"/>
<path d="M3.83263 159.209C4.78866 159.206 5.70853 158.843 6.40893 158.193L13.2514 162.103C13.0221 162.998 13.1232 163.947 13.5361 164.774C13.949 165.602 14.646 166.253 15.4997 166.608C16.3534 166.964 17.3066 167 18.1847 166.71C19.0628 166.42 19.8072 165.824 20.2815 165.03C20.7559 164.236 20.9285 163.298 20.7677 162.387C20.6069 161.477 20.1235 160.655 19.406 160.071C18.6885 159.488 17.7849 159.182 16.8606 159.211C15.9363 159.239 15.0532 159.599 14.3728 160.226L7.53039 156.316C7.60253 156.043 7.64188 155.76 7.64844 155.477L14.3707 151.634C15.0179 152.223 15.848 152.572 16.7217 152.621C17.5954 152.671 18.4595 152.418 19.1691 151.906C19.8786 151.394 20.3905 150.653 20.6187 149.808C20.847 148.964 20.7777 148.066 20.4226 147.266C20.0676 146.466 19.4482 145.813 18.6685 145.416C17.8888 145.018 16.9962 144.901 16.1404 145.084C15.2847 145.267 14.5178 145.739 13.9685 146.42C13.4191 147.101 13.1208 147.95 13.1235 148.825C13.1279 149.14 13.1705 149.454 13.2514 149.758L7.03852 153.307C6.67823 152.749 6.17913 152.295 5.59026 151.989C5.00139 151.683 4.343 151.535 3.67979 151.561C3.01658 151.586 2.37137 151.783 1.80753 152.134C1.2437 152.484 0.780648 152.974 0.463875 153.558C0.147102 154.141 -0.0124956 154.796 0.000763702 155.46C0.014023 156.124 0.199683 156.772 0.539502 157.342C0.879321 157.912 1.36161 158.384 1.93898 158.712C2.51635 159.039 3.16894 159.21 3.83263 159.209Z" fill="url(#paint80_linear)"/>
<path d="M49.9746 195.028C50.7166 195.026 51.4305 194.744 51.9741 194.239L57.2846 197.274C57.1067 197.969 57.1851 198.705 57.5056 199.347C57.826 199.989 58.367 200.495 59.0296 200.771C59.6921 201.046 60.4319 201.074 61.1134 200.85C61.795 200.625 62.3727 200.162 62.7408 199.546C63.109 198.93 63.2429 198.201 63.1181 197.495C62.9934 196.788 62.6182 196.15 62.0613 195.697C61.5045 195.244 60.8032 195.007 60.0858 195.029C59.3684 195.051 58.683 195.331 58.155 195.817L52.8445 192.783C52.9005 192.57 52.931 192.351 52.9361 192.131L58.1533 189.149C58.6557 189.606 59.2999 189.877 59.978 189.915C60.6561 189.953 61.3267 189.757 61.8774 189.36C62.4281 188.962 62.8254 188.387 63.0025 187.732C63.1797 187.076 63.126 186.38 62.8504 185.759C62.5748 185.138 62.0941 184.631 61.489 184.323C60.8838 184.014 60.191 183.923 59.5269 184.065C58.8627 184.207 58.2675 184.573 57.8412 185.102C57.4148 185.631 57.1833 186.29 57.1854 186.969C57.1888 187.213 57.2218 187.457 57.2846 187.693L52.4627 190.447C52.1831 190.014 51.7957 189.662 51.3387 189.424C50.8817 189.187 50.3707 189.072 49.856 189.092C49.3412 189.112 48.8405 189.265 48.4029 189.536C47.9653 189.808 47.6059 190.189 47.36 190.642C47.1142 191.094 46.9903 191.603 47.0006 192.118C47.0109 192.633 47.155 193.137 47.4187 193.579C47.6825 194.022 48.0568 194.388 48.5049 194.642C48.953 194.896 49.4595 195.029 49.9746 195.028Z" fill="url(#paint81_linear)"/>
<path d="M359.887 187.021C359.395 185.882 358.685 184.85 357.798 183.982C356.911 183.112 355.864 182.421 354.716 181.946C353.525 181.451 352.247 181.198 350.958 181.201C349.149 181.201 347.383 181.696 345.849 182.632C345.482 182.856 345.134 183.102 344.803 183.37C344.473 183.102 344.125 182.856 343.758 182.632C342.224 181.696 340.458 181.201 338.649 181.201C337.346 181.201 336.084 181.45 334.891 181.946C333.739 182.423 332.7 183.109 331.809 183.982C330.92 184.849 330.211 185.881 329.72 187.021C329.21 188.206 328.95 189.465 328.95 190.761C328.95 191.983 329.199 193.256 329.695 194.552C330.109 195.634 330.704 196.757 331.464 197.891C332.667 199.686 334.322 201.557 336.377 203.455C339.783 206.6 343.156 208.772 343.299 208.86L344.169 209.418C344.554 209.664 345.049 209.664 345.435 209.418L346.304 208.86C346.448 208.769 349.816 206.6 353.226 203.455C355.281 201.557 356.936 199.686 358.14 197.891C358.899 196.757 359.498 195.634 359.909 194.552C360.404 193.256 360.654 191.983 360.654 190.761C360.657 189.465 360.397 188.206 359.887 187.021Z" fill="url(#paint82_linear)"/>
<path d="M367.322 98.8204C366.83 97.6814 366.121 96.6493 365.234 95.7818C364.346 94.9117 363.3 94.2202 362.151 93.745C360.96 93.2503 359.683 92.9971 358.393 93C356.584 93 354.819 93.4955 353.285 94.4313C352.918 94.6551 352.569 94.901 352.239 95.1689C351.908 94.901 351.56 94.6551 351.193 94.4313C349.659 93.4955 347.894 93 346.084 93C344.782 93 343.519 93.2496 342.326 93.745C341.174 94.2221 340.136 94.9083 339.244 95.7818C338.356 96.6483 337.646 97.6807 337.156 98.8204C336.646 100.006 336.385 101.265 336.385 102.56C336.385 103.782 336.635 105.055 337.13 106.351C337.545 107.434 338.139 108.557 338.899 109.69C340.103 111.485 341.758 113.357 343.813 115.254C347.218 118.399 350.591 120.572 350.734 120.66L351.604 121.217C351.989 121.463 352.485 121.463 352.87 121.217L353.74 120.66C353.883 120.568 357.252 118.399 360.661 115.254C362.716 113.357 364.371 111.485 365.575 109.69C366.335 108.557 366.933 107.434 367.344 106.351C367.839 105.055 368.089 103.782 368.089 102.56C368.092 101.265 367.832 100.006 367.322 98.8204Z" fill="url(#paint83_linear)"/>
<path opacity="0.5" d="M328.298 133.407C327.88 132.439 327.277 131.562 326.523 130.824C325.768 130.084 324.879 129.497 323.902 129.093C322.89 128.672 321.804 128.457 320.708 128.459C319.17 128.459 317.669 128.881 316.365 129.676C316.054 129.866 315.757 130.075 315.476 130.303C315.196 130.075 314.899 129.866 314.587 129.676C313.283 128.881 311.783 128.459 310.245 128.459C309.138 128.459 308.064 128.672 307.051 129.093C306.071 129.498 305.188 130.082 304.43 130.824C303.675 131.561 303.072 132.438 302.655 133.407C302.221 134.415 302 135.485 302 136.586C302 137.625 302.212 138.707 302.633 139.808C302.986 140.729 303.491 141.683 304.137 142.647C305.16 144.173 306.567 145.764 308.314 147.376C311.209 150.05 314.076 151.897 314.197 151.971L314.937 152.446C315.264 152.655 315.685 152.655 316.013 152.446L316.752 151.971C316.874 151.893 319.738 150.05 322.636 147.376C324.383 145.764 325.79 144.173 326.813 142.647C327.459 141.683 327.967 140.729 328.316 139.808C328.738 138.707 328.95 137.625 328.95 136.586C328.953 135.485 328.731 134.415 328.298 133.407Z" fill="url(#paint84_linear)"/>
<path opacity="0.5" d="M357.951 153.84C357.742 153.355 357.44 152.917 357.063 152.548C356.686 152.178 356.241 151.884 355.753 151.682C355.247 151.472 354.704 151.364 354.156 151.366C353.387 151.366 352.636 151.576 351.985 151.974C351.829 152.069 351.68 152.174 351.54 152.288C351.4 152.174 351.251 152.069 351.095 151.974C350.443 151.576 349.693 151.366 348.924 151.366C348.371 151.366 347.834 151.472 347.327 151.682C346.837 151.885 346.396 152.177 346.017 152.548C345.639 152.916 345.338 153.355 345.129 153.84C344.913 154.343 344.802 154.878 344.802 155.429C344.802 155.948 344.908 156.49 345.118 157.04C345.295 157.5 345.547 157.978 345.87 158.46C346.382 159.222 347.085 160.018 347.959 160.824C349.406 162.161 350.84 163.084 350.9 163.122L351.27 163.359C351.434 163.463 351.644 163.463 351.808 163.359L352.178 163.122C352.239 163.083 353.671 162.161 355.12 160.824C355.993 160.018 356.697 159.222 357.208 158.46C357.531 157.978 357.785 157.5 357.96 157.04C358.171 156.49 358.277 155.948 358.277 155.429C358.278 154.878 358.167 154.343 357.951 153.84Z" fill="url(#paint85_linear)"/>
<path d="M206.406 74.8288C206.177 74.8288 205.909 74.8097 205.603 74.7714C205.297 74.7332 204.762 74.6376 203.997 74.4846C203.232 74.3316 202.544 74.1213 201.932 73.8535C201.32 73.5858 200.765 73.1269 200.268 72.4767C199.771 71.8265 199.522 71.0807 199.522 70.2393C199.522 69.245 199.809 68.3462 200.383 67.543C200.956 66.7399 201.587 66.0706 202.276 65.5352C202.964 64.9997 203.595 64.0245 204.169 62.6094C204.743 61.1943 205.03 59.4541 205.03 57.3889V50.0458C205.03 47.9805 204.456 46.2403 203.309 44.8253C202.161 43.4102 200.899 42.7026 199.522 42.7026C198.222 42.7026 197.132 43.1425 196.252 44.0221C195.373 44.9017 194.933 45.9917 194.933 47.2921V49.5868C194.933 51.1931 194.416 52.8186 193.384 54.4631C192.351 56.1077 191.166 57.5419 189.827 58.7657C188.488 59.9896 186.939 61.462 185.18 63.1831C183.421 64.9041 182.082 66.4913 181.164 67.9446C180.629 68.633 179.864 69.4936 178.87 70.5262C177.875 71.5588 176.422 72.8018 174.51 74.2551C172.597 75.7084 170.207 76.9323 167.339 77.9267C164.47 78.9211 161.43 79.4183 158.217 79.4183C158.064 79.4183 157.949 79.4565 157.873 79.533C156.802 79.686 155.827 80.8142 154.947 82.9177C154.068 85.0212 153.628 86.9144 153.628 88.5972V106.955C153.628 108.408 154.048 109.537 154.89 110.34C155.731 111.143 156.84 111.544 158.217 111.544C159.747 111.544 162.807 112.309 167.396 113.839C171.985 115.369 175.045 116.134 176.575 116.134H213.291C214.514 116.134 215.585 115.675 216.503 114.757C217.421 113.839 217.88 112.749 217.88 111.487C217.88 110.225 217.421 109.154 216.503 108.274C215.585 107.395 214.514 106.955 213.291 106.955H217.88C219.18 106.955 220.27 106.496 221.15 105.578C222.03 104.66 222.469 103.57 222.469 102.308C222.469 101.046 222.03 99.9752 221.15 99.0955C220.27 98.2159 219.18 97.7761 217.88 97.7761C219.18 97.7761 222.191 97.5607 223.07 96.6429C223.95 95.725 224.39 94.635 224.39 93.3729C224.39 92.1108 223.95 91.0399 223.07 90.1603C222.191 89.2806 219.18 88.5972 217.88 88.5972H222.469C223.77 88.5972 224.86 88.1382 225.739 87.2203C226.619 86.3024 227.059 85.2316 227.059 84.0077C227.059 81.6365 225.013 79.5139 220.921 77.6398C216.828 75.7658 211.99 74.8288 206.406 74.8288Z" fill="url(#paint86_linear)"/>
<path opacity="0.7" d="M286.012 61.4925C285.837 61.4925 285.632 61.4779 285.398 61.4487C285.165 61.4195 284.755 61.3464 284.171 61.2295C283.586 61.1126 283.06 60.9518 282.593 60.7472C282.125 60.5426 281.701 60.1919 281.321 59.695C280.941 59.1982 280.751 58.6282 280.751 57.9852C280.751 57.2253 280.97 56.5385 281.409 55.9247C281.847 55.3109 282.33 54.7994 282.856 54.3902C283.382 53.9811 283.864 53.2358 284.302 52.1543C284.741 51.0729 284.96 49.7431 284.96 48.1648V42.5531C284.96 40.9748 284.522 39.645 283.645 38.5635C282.768 37.4821 281.803 36.9414 280.751 36.9414C279.758 36.9414 278.925 37.2775 278.252 37.9498C277.58 38.622 277.244 39.455 277.244 40.4487V42.2024C277.244 43.4299 276.849 44.6721 276.06 45.9289C275.271 47.1857 274.365 48.2817 273.342 49.217C272.319 50.1522 271.135 51.2775 269.791 52.5927C268.446 53.908 267.424 55.1209 266.722 56.2316C266.313 56.7577 265.728 57.4153 264.968 58.2044C264.208 58.9936 263.098 59.9435 261.636 61.0541C260.175 62.1648 258.348 63.1 256.156 63.86C253.964 64.6199 251.641 64.9998 249.186 64.9998C249.069 64.9998 248.981 65.0291 248.922 65.0875C248.104 65.2044 247.359 66.0666 246.687 67.6741C246.014 69.2817 245.678 70.7284 245.678 72.0144V86.0437C245.678 87.1543 246 88.0165 246.643 88.6303C247.286 89.2441 248.133 89.5509 249.186 89.5509C250.355 89.5509 252.693 90.1355 256.2 91.3046C259.707 92.4737 262.046 93.0583 263.215 93.0583H291.273C292.208 93.0583 293.027 92.7075 293.728 92.0061C294.43 91.3046 294.78 90.4716 294.78 89.5071C294.78 88.5426 294.43 87.7242 293.728 87.052C293.027 86.3798 292.208 86.0437 291.273 86.0437H294.78C295.774 86.0437 296.607 85.6929 297.279 84.9915C297.952 84.29 298.288 83.457 298.288 82.4925C298.288 81.528 297.952 80.7096 297.279 80.0374C296.607 79.3652 295.774 79.029 294.78 79.029C295.774 79.029 298.075 78.8645 298.747 78.163C299.419 77.4616 299.755 76.6286 299.755 75.6641C299.755 74.6996 299.419 73.8812 298.747 73.209C298.075 72.5367 295.774 72.0144 294.78 72.0144H298.288C299.282 72.0144 300.114 71.6637 300.787 70.9622C301.459 70.2608 301.795 69.4424 301.795 68.5071C301.795 66.695 300.231 65.0729 297.104 63.6408C293.977 62.2086 290.279 61.4925 286.012 61.4925Z" fill="url(#paint87_linear)"/>
<path opacity="0.4" d="M171.472 18.375C171.341 18.375 171.188 18.3641 171.013 18.3422C170.838 18.3203 170.532 18.2656 170.094 18.1781C169.657 18.0906 169.263 17.9703 168.913 17.8172C168.563 17.6641 168.246 17.4016 167.961 17.0297C167.677 16.6578 167.535 16.2312 167.535 15.75C167.535 15.1812 167.699 14.6672 168.027 14.2078C168.355 13.7484 168.716 13.3656 169.11 13.0594C169.504 12.7531 169.865 12.1953 170.193 11.3859C170.521 10.5766 170.685 9.58125 170.685 8.4V4.2C170.685 3.01875 170.357 2.02344 169.701 1.21406C169.044 0.404687 168.322 0 167.535 0C166.791 0 166.168 0.251562 165.665 0.754687C165.161 1.25781 164.91 1.88125 164.91 2.625V3.9375C164.91 4.85625 164.615 5.78594 164.024 6.72656C163.433 7.66719 162.755 8.4875 161.99 9.1875C161.224 9.8875 160.338 10.7297 159.332 11.7141C158.326 12.6984 157.56 13.6063 157.035 14.4375C156.729 14.8313 156.291 15.3234 155.722 15.9141C155.154 16.5047 154.322 17.2156 153.229 18.0469C152.135 18.8781 150.768 19.5781 149.127 20.1469C147.486 20.7156 145.747 21 143.91 21C143.822 21 143.757 21.0219 143.713 21.0656C143.101 21.1531 142.543 21.7984 142.04 23.0016C141.536 24.2047 141.285 25.2875 141.285 26.25V36.75C141.285 37.5813 141.526 38.2266 142.007 38.6859C142.488 39.1453 143.122 39.375 143.91 39.375C144.785 39.375 146.535 39.8125 149.16 40.6875C151.785 41.5625 153.535 42 154.41 42H175.41C176.11 42 176.722 41.7375 177.247 41.2125C177.772 40.6875 178.035 40.0641 178.035 39.3422C178.035 38.6203 177.772 38.0078 177.247 37.5047C176.722 37.0016 176.11 36.75 175.41 36.75H178.035C178.779 36.75 179.402 36.4875 179.905 35.9625C180.408 35.4375 180.66 34.8141 180.66 34.0922C180.66 33.3703 180.408 32.7578 179.905 32.2547C179.402 31.7516 178.779 31.5 178.035 31.5C178.779 31.5 180.5 31.3768 181.004 30.8518C181.507 30.3268 181.758 29.7034 181.758 28.9815C181.758 28.2597 181.507 27.6472 181.004 27.144C180.5 26.6409 178.779 26.25 178.035 26.25H180.66C181.404 26.25 182.027 25.9875 182.53 25.4625C183.033 24.9375 183.285 24.325 183.285 23.625C183.285 22.2687 182.115 21.0547 179.774 19.9828C177.433 18.9109 174.666 18.375 171.472 18.375Z" fill="url(#paint88_linear)"/>
<path opacity="0.4" d="M106.879 91.4166C106.797 91.4166 106.702 91.4098 106.592 91.3961C106.483 91.3824 106.291 91.3482 106.018 91.2935C105.744 91.2388 105.498 91.1635 105.279 91.0678C105.06 90.972 104.861 90.8078 104.684 90.5752C104.506 90.3427 104.417 90.0759 104.417 89.7749C104.417 89.4192 104.519 89.0977 104.725 88.8104C104.93 88.5231 105.156 88.2837 105.402 88.0922C105.648 87.9007 105.874 87.5518 106.079 87.0456C106.284 86.5394 106.387 85.917 106.387 85.1782V82.5515C106.387 81.8127 106.182 81.1903 105.771 80.6841C105.361 80.1779 104.909 79.9248 104.417 79.9248C103.952 79.9248 103.562 80.0821 103.247 80.3968C102.933 80.7114 102.775 81.1013 102.775 81.5665V82.3873C102.775 82.9619 102.59 83.5434 102.221 84.1316C101.852 84.7199 101.428 85.2329 100.949 85.6707C100.47 86.1085 99.9159 86.6352 99.2866 87.2508C98.6573 87.8665 98.1785 88.4342 97.8501 88.9541C97.6586 89.2003 97.385 89.5082 97.0293 89.8775C96.6736 90.2469 96.1537 90.6915 95.4697 91.2114C94.7856 91.7313 93.9306 92.1691 92.9045 92.5248C91.8785 92.8805 90.7909 93.0583 89.6417 93.0583C89.587 93.0583 89.5459 93.072 89.5186 93.0993C89.1355 93.1541 88.7866 93.5576 88.472 94.3101C88.1573 95.0625 88 95.7397 88 96.3417V102.908C88 103.428 88.1505 103.832 88.4515 104.119C88.7524 104.406 89.1492 104.55 89.6417 104.55C90.1889 104.55 91.2834 104.824 92.9251 105.371C94.5667 105.918 95.6612 106.192 96.2084 106.192H109.342C109.78 106.192 110.163 106.028 110.491 105.699C110.819 105.371 110.984 104.981 110.984 104.53C110.984 104.078 110.819 103.695 110.491 103.38C110.163 103.066 109.78 102.908 109.342 102.908H110.984C111.449 102.908 111.839 102.744 112.153 102.416C112.468 102.088 112.625 101.698 112.625 101.246C112.625 100.795 112.468 100.412 112.153 100.097C111.839 99.7824 111.449 99.625 110.984 99.625C111.449 99.625 112.526 99.548 112.84 99.2197C113.155 98.8914 113.312 98.5015 113.312 98.05C113.312 97.5985 113.155 97.2155 112.84 96.9008C112.526 96.5862 111.449 96.3417 110.984 96.3417H112.625C113.09 96.3417 113.48 96.1775 113.795 95.8492C114.11 95.5208 114.267 95.1378 114.267 94.7C114.267 93.8518 113.535 93.0925 112.071 92.4221C110.607 91.7518 108.877 91.4166 106.879 91.4166Z" fill="url(#paint89_linear)"/>
<defs>
<filter id="filter0_d" x="369.071" y="214.478" width="36.4541" height="36.4541" filterUnits="userSpaceOnUse" color-interpolation-filters="sRGB">
<feFlood flood-opacity="0" result="BackgroundImageFix"/>
<feColorMatrix in="SourceAlpha" type="matrix" values="0 0 0 0 0 0 0 0 0 0 0 0 0 0 0 0 0 0 127 0" result="hardAlpha"/>
<feOffset/>
<feGaussianBlur stdDeviation="5"/>
<feColorMatrix type="matrix" values="0 0 0 0 1 0 0 0 0 0.927583 0 0 0 0 0.670833 0 0 0 1 0"/>
<feBlend mode="normal" in2="BackgroundImageFix" result="effect1_dropShadow"/>
<feBlend mode="normal" in="SourceGraphic" in2="effect1_dropShadow" result="shape"/>
</filter>
<filter id="filter1_i" x="380.26" y="225.667" width="14.0755" height="15.0586" filterUnits="userSpaceOnUse" color-interpolation-filters="sRGB">
<feFlood flood-opacity="0" result="BackgroundImageFix"/>
<feBlend mode="normal" in="SourceGraphic" in2="BackgroundImageFix" result="shape"/>
<feColorMatrix in="SourceAlpha" type="matrix" values="0 0 0 0 0 0 0 0 0 0 0 0 0 0 0 0 0 0 127 0" result="hardAlpha"/>
<feOffset dy="0.983008"/>
<feGaussianBlur stdDeviation="1.96602"/>
<feComposite in2="hardAlpha" operator="arithmetic" k2="-1" k3="1"/>
<feColorMatrix type="matrix" values="0 0 0 0 0.320833 0 0 0 0 0 0 0 0 0 0 0 0 0 0.25 0"/>
<feBlend mode="normal" in2="shape" result="effect1_innerShadow"/>
</filter>
<filter id="filter2_i" x="127.359" y="179.33" width="120.31" height="124.311" filterUnits="userSpaceOnUse" color-interpolation-filters="sRGB">
<feFlood flood-opacity="0" result="BackgroundImageFix"/>
<feBlend mode="normal" in="SourceGraphic" in2="BackgroundImageFix" result="shape"/>
<feColorMatrix in="SourceAlpha" type="matrix" values="0 0 0 0 0 0 0 0 0 0 0 0 0 0 0 0 0 0 127 0" result="hardAlpha"/>
<feOffset dy="4"/>
<feGaussianBlur stdDeviation="3"/>
<feComposite in2="hardAlpha" operator="arithmetic" k2="-1" k3="1"/>
<feColorMatrix type="matrix" values="0 0 0 0 0.2375 0 0 0 0 0.2375 0 0 0 0 0.2375 0 0 0 0.37 0"/>
<feBlend mode="normal" in2="shape" result="effect1_innerShadow"/>
</filter>
<filter id="filter3_d" x="37.9447" y="225.829" width="59.8313" height="59.7872" filterUnits="userSpaceOnUse" color-interpolation-filters="sRGB">
<feFlood flood-opacity="0" result="BackgroundImageFix"/>
<feColorMatrix in="SourceAlpha" type="matrix" values="0 0 0 0 0 0 0 0 0 0 0 0 0 0 0 0 0 0 127 0" result="hardAlpha"/>
<feOffset/>
<feGaussianBlur stdDeviation="5"/>
<feColorMatrix type="matrix" values="0 0 0 0 1 0 0 0 0 0.927583 0 0 0 0 0.670833 0 0 0 1 0"/>
<feBlend mode="normal" in2="BackgroundImageFix" result="effect1_dropShadow"/>
<feBlend mode="normal" in="SourceGraphic" in2="effect1_dropShadow" result="shape"/>
</filter>
<filter id="filter4_i" x="50.8203" y="238.704" width="34.0356" height="35.0187" filterUnits="userSpaceOnUse" color-interpolation-filters="sRGB">
<feFlood flood-opacity="0" result="BackgroundImageFix"/>
<feBlend mode="normal" in="SourceGraphic" in2="BackgroundImageFix" result="shape"/>
<feColorMatrix in="SourceAlpha" type="matrix" values="0 0 0 0 0 0 0 0 0 0 0 0 0 0 0 0 0 0 127 0" result="hardAlpha"/>
<feOffset dy="0.983008"/>
<feGaussianBlur stdDeviation="1.96602"/>
<feComposite in2="hardAlpha" operator="arithmetic" k2="-1" k3="1"/>
<feColorMatrix type="matrix" values="0 0 0 0 0.320833 0 0 0 0 0 0 0 0 0 0 0 0 0 0.25 0"/>
<feBlend mode="normal" in2="shape" result="effect1_innerShadow"/>
</filter>
<filter id="filter5_d" x="312.007" y="222.824" width="59.8313" height="59.7872" filterUnits="userSpaceOnUse" color-interpolation-filters="sRGB">
<feFlood flood-opacity="0" result="BackgroundImageFix"/>
<feColorMatrix in="SourceAlpha" type="matrix" values="0 0 0 0 0 0 0 0 0 0 0 0 0 0 0 0 0 0 127 0" result="hardAlpha"/>
<feOffset/>
<feGaussianBlur stdDeviation="5"/>
<feColorMatrix type="matrix" values="0 0 0 0 1 0 0 0 0 0.927583 0 0 0 0 0.670833 0 0 0 1 0"/>
<feBlend mode="normal" in2="BackgroundImageFix" result="effect1_dropShadow"/>
<feBlend mode="normal" in="SourceGraphic" in2="effect1_dropShadow" result="shape"/>
</filter>
<filter id="filter6_i" x="324.882" y="235.699" width="34.0356" height="35.0187" filterUnits="userSpaceOnUse" color-interpolation-filters="sRGB">
<feFlood flood-opacity="0" result="BackgroundImageFix"/>
<feBlend mode="normal" in="SourceGraphic" in2="BackgroundImageFix" result="shape"/>
<feColorMatrix in="SourceAlpha" type="matrix" values="0 0 0 0 0 0 0 0 0 0 0 0 0 0 0 0 0 0 127 0" result="hardAlpha"/>
<feOffset dy="0.983008"/>
<feGaussianBlur stdDeviation="1.96602"/>
<feComposite in2="hardAlpha" operator="arithmetic" k2="-1" k3="1"/>
<feColorMatrix type="matrix" values="0 0 0 0 0.320833 0 0 0 0 0 0 0 0 0 0 0 0 0 0.25 0"/>
<feBlend mode="normal" in2="shape" result="effect1_innerShadow"/>
</filter>
<filter id="filter7_d" x="38.0052" y="296.512" width="72.3891" height="72.3312" filterUnits="userSpaceOnUse" color-interpolation-filters="sRGB">
<feFlood flood-opacity="0" result="BackgroundImageFix"/>
<feColorMatrix in="SourceAlpha" type="matrix" values="0 0 0 0 0 0 0 0 0 0 0 0 0 0 0 0 0 0 127 0" result="hardAlpha"/>
<feOffset/>
<feGaussianBlur stdDeviation="5"/>
<feColorMatrix type="matrix" values="0 0 0 0 1 0 0 0 0 0.927583 0 0 0 0 0.670833 0 0 0 1 0"/>
<feBlend mode="normal" in2="BackgroundImageFix" result="effect1_dropShadow"/>
<feBlend mode="normal" in="SourceGraphic" in2="effect1_dropShadow" result="shape"/>
</filter>
<filter id="filter8_i" x="51.7876" y="310.294" width="44.7664" height="45.7494" filterUnits="userSpaceOnUse" color-interpolation-filters="sRGB">
<feFlood flood-opacity="0" result="BackgroundImageFix"/>
<feBlend mode="normal" in="SourceGraphic" in2="BackgroundImageFix" result="shape"/>
<feColorMatrix in="SourceAlpha" type="matrix" values="0 0 0 0 0 0 0 0 0 0 0 0 0 0 0 0 0 0 127 0" result="hardAlpha"/>
<feOffset dy="0.983008"/>
<feGaussianBlur stdDeviation="1.96602"/>
<feComposite in2="hardAlpha" operator="arithmetic" k2="-1" k3="1"/>
<feColorMatrix type="matrix" values="0 0 0 0 0.320833 0 0 0 0 0 0 0 0 0 0 0 0 0 0.25 0"/>
<feBlend mode="normal" in2="shape" result="effect1_innerShadow"/>
</filter>
<filter id="filter9_d" x="259.68" y="303.058" width="72.3311" height="72.3311" filterUnits="userSpaceOnUse" color-interpolation-filters="sRGB">
<feFlood flood-opacity="0" result="BackgroundImageFix"/>
<feColorMatrix in="SourceAlpha" type="matrix" values="0 0 0 0 0 0 0 0 0 0 0 0 0 0 0 0 0 0 127 0" result="hardAlpha"/>
<feOffset/>
<feGaussianBlur stdDeviation="5"/>
<feColorMatrix type="matrix" values="0 0 0 0 1 0 0 0 0 0.927583 0 0 0 0 0.670833 0 0 0 1 0"/>
<feBlend mode="normal" in2="BackgroundImageFix" result="effect1_dropShadow"/>
<feBlend mode="normal" in="SourceGraphic" in2="effect1_dropShadow" result="shape"/>
</filter>
<filter id="filter10_i" x="273.462" y="316.84" width="44.7663" height="45.7493" filterUnits="userSpaceOnUse" color-interpolation-filters="sRGB">
<feFlood flood-opacity="0" result="BackgroundImageFix"/>
<feBlend mode="normal" in="SourceGraphic" in2="BackgroundImageFix" result="shape"/>
<feColorMatrix in="SourceAlpha" type="matrix" values="0 0 0 0 0 0 0 0 0 0 0 0 0 0 0 0 0 0 127 0" result="hardAlpha"/>
<feOffset dy="0.983008"/>
<feGaussianBlur stdDeviation="1.96602"/>
<feComposite in2="hardAlpha" operator="arithmetic" k2="-1" k3="1"/>
<feColorMatrix type="matrix" values="0 0 0 0 0.320833 0 0 0 0 0 0 0 0 0 0 0 0 0 0.25 0"/>
<feBlend mode="normal" in2="shape" result="effect1_innerShadow"/>
</filter>
<filter id="filter11_d" x="0.237549" y="265.215" width="51.7475" height="51.7475" filterUnits="userSpaceOnUse" color-interpolation-filters="sRGB">
<feFlood flood-opacity="0" result="BackgroundImageFix"/>
<feColorMatrix in="SourceAlpha" type="matrix" values="0 0 0 0 0 0 0 0 0 0 0 0 0 0 0 0 0 0 127 0" result="hardAlpha"/>
<feOffset/>
<feGaussianBlur stdDeviation="5"/>
<feColorMatrix type="matrix" values="0 0 0 0 1 0 0 0 0 0.927583 0 0 0 0 0.670833 0 0 0 1 0"/>
<feBlend mode="normal" in2="BackgroundImageFix" result="effect1_dropShadow"/>
<feBlend mode="normal" in="SourceGraphic" in2="effect1_dropShadow" result="shape"/>
</filter>
<filter id="filter12_i" x="12.5321" y="277.51" width="27.1581" height="28.1412" filterUnits="userSpaceOnUse" color-interpolation-filters="sRGB">
<feFlood flood-opacity="0" result="BackgroundImageFix"/>
<feBlend mode="normal" in="SourceGraphic" in2="BackgroundImageFix" result="shape"/>
<feColorMatrix in="SourceAlpha" type="matrix" values="0 0 0 0 0 0 0 0 0 0 0 0 0 0 0 0 0 0 127 0" result="hardAlpha"/>
<feOffset dy="0.983008"/>
<feGaussianBlur stdDeviation="1.96602"/>
<feComposite in2="hardAlpha" operator="arithmetic" k2="-1" k3="1"/>
<feColorMatrix type="matrix" values="0 0 0 0 0.320833 0 0 0 0 0 0 0 0 0 0 0 0 0 0.25 0"/>
<feBlend mode="normal" in2="shape" result="effect1_innerShadow"/>
</filter>
<filter id="filter13_d" x="4.47095" y="200.641" width="36.4541" height="36.4541" filterUnits="userSpaceOnUse" color-interpolation-filters="sRGB">
<feFlood flood-opacity="0" result="BackgroundImageFix"/>
<feColorMatrix in="SourceAlpha" type="matrix" values="0 0 0 0 0 0 0 0 0 0 0 0 0 0 0 0 0 0 127 0" result="hardAlpha"/>
<feOffset/>
<feGaussianBlur stdDeviation="5"/>
<feColorMatrix type="matrix" values="0 0 0 0 1 0 0 0 0 0.927583 0 0 0 0 0.670833 0 0 0 1 0"/>
<feBlend mode="normal" in2="BackgroundImageFix" result="effect1_dropShadow"/>
<feBlend mode="normal" in="SourceGraphic" in2="effect1_dropShadow" result="shape"/>
</filter>
<filter id="filter14_i" x="15.6604" y="211.831" width="14.0755" height="15.0586" filterUnits="userSpaceOnUse" color-interpolation-filters="sRGB">
<feFlood flood-opacity="0" result="BackgroundImageFix"/>
<feBlend mode="normal" in="SourceGraphic" in2="BackgroundImageFix" result="shape"/>
<feColorMatrix in="SourceAlpha" type="matrix" values="0 0 0 0 0 0 0 0 0 0 0 0 0 0 0 0 0 0 127 0" result="hardAlpha"/>
<feOffset dy="0.983008"/>
<feGaussianBlur stdDeviation="1.96602"/>
<feComposite in2="hardAlpha" operator="arithmetic" k2="-1" k3="1"/>
<feColorMatrix type="matrix" values="0 0 0 0 0.320833 0 0 0 0 0 0 0 0 0 0 0 0 0 0.25 0"/>
<feBlend mode="normal" in2="shape" result="effect1_innerShadow"/>
</filter>
<filter id="filter15_d" x="335.445" y="283.745" width="51.7475" height="51.7475" filterUnits="userSpaceOnUse" color-interpolation-filters="sRGB">
<feFlood flood-opacity="0" result="BackgroundImageFix"/>
<feColorMatrix in="SourceAlpha" type="matrix" values="0 0 0 0 0 0 0 0 0 0 0 0 0 0 0 0 0 0 127 0" result="hardAlpha"/>
<feOffset/>
<feGaussianBlur stdDeviation="5"/>
<feColorMatrix type="matrix" values="0 0 0 0 1 0 0 0 0 0.927583 0 0 0 0 0.670833 0 0 0 1 0"/>
<feBlend mode="normal" in2="BackgroundImageFix" result="effect1_dropShadow"/>
<feBlend mode="normal" in="SourceGraphic" in2="effect1_dropShadow" result="shape"/>
</filter>
<filter id="filter16_i" x="347.739" y="296.039" width="27.1581" height="28.1412" filterUnits="userSpaceOnUse" color-interpolation-filters="sRGB">
<feFlood flood-opacity="0" result="BackgroundImageFix"/>
<feBlend mode="normal" in="SourceGraphic" in2="BackgroundImageFix" result="shape"/>
<feColorMatrix in="SourceAlpha" type="matrix" values="0 0 0 0 0 0 0 0 0 0 0 0 0 0 0 0 0 0 127 0" result="hardAlpha"/>
<feOffset dy="0.983008"/>
<feGaussianBlur stdDeviation="1.96602"/>
<feComposite in2="hardAlpha" operator="arithmetic" k2="-1" k3="1"/>
<feColorMatrix type="matrix" values="0 0 0 0 0.320833 0 0 0 0 0 0 0 0 0 0 0 0 0 0.25 0"/>
<feBlend mode="normal" in2="shape" result="effect1_innerShadow"/>
</filter>
<linearGradient id="paint0_linear" x1="393.763" y1="225.646" x2="387.554" y2="238.669" gradientUnits="userSpaceOnUse">
<stop stop-color="white"/>
<stop offset="1" stop-color="white" stop-opacity="0"/>
</linearGradient>
<linearGradient id="paint1_linear" x1="393.763" y1="225.646" x2="387.554" y2="238.669" gradientUnits="userSpaceOnUse">
<stop stop-color="white"/>
<stop offset="1" stop-color="white" stop-opacity="0"/>
</linearGradient>
<linearGradient id="paint2_linear" x1="393.763" y1="225.646" x2="387.554" y2="238.669" gradientUnits="userSpaceOnUse">
<stop stop-color="white"/>
<stop offset="1" stop-color="white" stop-opacity="0"/>
</linearGradient>
<linearGradient id="paint3_linear" x1="393.763" y1="225.646" x2="387.554" y2="238.669" gradientUnits="userSpaceOnUse">
<stop stop-color="white"/>
<stop offset="1" stop-color="white" stop-opacity="0"/>
</linearGradient>
<linearGradient id="paint4_linear" x1="393.763" y1="225.646" x2="387.554" y2="238.669" gradientUnits="userSpaceOnUse">
<stop stop-color="white"/>
<stop offset="1" stop-color="white" stop-opacity="0"/>
</linearGradient>
<linearGradient id="paint5_linear" x1="393.763" y1="225.646" x2="387.554" y2="238.669" gradientUnits="userSpaceOnUse">
<stop stop-color="white"/>
<stop offset="1" stop-color="white" stop-opacity="0"/>
</linearGradient>
<linearGradient id="paint6_linear" x1="393.763" y1="225.646" x2="387.554" y2="238.669" gradientUnits="userSpaceOnUse">
<stop stop-color="white"/>
<stop offset="1" stop-color="white" stop-opacity="0"/>
</linearGradient>
<linearGradient id="paint7_linear" x1="393.763" y1="225.646" x2="387.554" y2="238.669" gradientUnits="userSpaceOnUse">
<stop stop-color="white"/>
<stop offset="1" stop-color="white" stop-opacity="0"/>
</linearGradient>
<linearGradient id="paint8_linear" x1="393.763" y1="225.646" x2="387.555" y2="238.669" gradientUnits="userSpaceOnUse">
<stop stop-color="white"/>
<stop offset="1" stop-color="white" stop-opacity="0"/>
</linearGradient>
<linearGradient id="paint9_linear" x1="132.5" y1="131" x2="132.5" y2="240" gradientUnits="userSpaceOnUse">
<stop stop-color="#FFC107"/>
<stop offset="1" stop-color="#FFDE7A"/>
</linearGradient>
<linearGradient id="paint10_linear" x1="241.5" y1="349" x2="241.5" y2="240" gradientUnits="userSpaceOnUse">
<stop stop-color="#1976D2"/>
<stop offset="1" stop-color="#3C96EF"/>
</linearGradient>
<linearGradient id="paint11_linear" x1="78" y1="294.5" x2="187" y2="294.5" gradientUnits="userSpaceOnUse">
<stop stop-color="#4CAF50"/>
<stop offset="1" stop-color="#6FDC73"/>
</linearGradient>
<linearGradient id="paint12_linear" x1="296" y1="185.5" x2="187" y2="185.5" gradientUnits="userSpaceOnUse">
<stop stop-color="#FF3D00"/>
<stop offset="1" stop-color="#FD6C3E"/>
</linearGradient>
<linearGradient id="paint13_linear" x1="80.2062" y1="127.238" x2="126.525" y2="183.798" gradientUnits="userSpaceOnUse">
<stop stop-color="white"/>
<stop offset="1" stop-color="white" stop-opacity="0"/>
</linearGradient>
<linearGradient id="paint14_linear" x1="294.184" y1="353.152" x2="247.865" y2="296.592" gradientUnits="userSpaceOnUse">
<stop stop-color="white"/>
<stop offset="1" stop-color="white" stop-opacity="0"/>
</linearGradient>
<linearGradient id="paint15_linear" x1="73.0327" y1="363.29" x2="159.735" y2="257.418" gradientUnits="userSpaceOnUse">
<stop stop-color="white"/>
<stop offset="1" stop-color="white" stop-opacity="0"/>
</linearGradient>
<linearGradient id="paint16_linear" x1="76.8131" y1="234.391" x2="73.2739" y2="269.091" gradientUnits="userSpaceOnUse">
<stop stop-color="white"/>
<stop offset="1" stop-color="white" stop-opacity="0"/>
</linearGradient>
<linearGradient id="paint17_linear" x1="76.8131" y1="234.391" x2="73.2739" y2="269.091" gradientUnits="userSpaceOnUse">
<stop stop-color="white"/>
<stop offset="1" stop-color="white" stop-opacity="0"/>
</linearGradient>
<linearGradient id="paint18_linear" x1="76.8131" y1="234.391" x2="73.2739" y2="269.091" gradientUnits="userSpaceOnUse">
<stop stop-color="white"/>
<stop offset="1" stop-color="white" stop-opacity="0"/>
</linearGradient>
<linearGradient id="paint19_linear" x1="76.8131" y1="234.391" x2="73.2739" y2="269.091" gradientUnits="userSpaceOnUse">
<stop stop-color="white"/>
<stop offset="1" stop-color="white" stop-opacity="0"/>
</linearGradient>
<linearGradient id="paint20_linear" x1="76.8131" y1="234.391" x2="73.2739" y2="269.091" gradientUnits="userSpaceOnUse">
<stop stop-color="white"/>
<stop offset="1" stop-color="white" stop-opacity="0"/>
</linearGradient>
<linearGradient id="paint21_linear" x1="76.8131" y1="234.391" x2="73.2739" y2="269.091" gradientUnits="userSpaceOnUse">
<stop stop-color="white"/>
<stop offset="1" stop-color="white" stop-opacity="0"/>
</linearGradient>
<linearGradient id="paint22_linear" x1="76.8131" y1="234.391" x2="73.2739" y2="269.091" gradientUnits="userSpaceOnUse">
<stop stop-color="white"/>
<stop offset="1" stop-color="white" stop-opacity="0"/>
</linearGradient>
<linearGradient id="paint23_linear" x1="76.8131" y1="234.391" x2="73.2739" y2="269.091" gradientUnits="userSpaceOnUse">
<stop stop-color="white"/>
<stop offset="1" stop-color="white" stop-opacity="0"/>
</linearGradient>
<linearGradient id="paint24_linear" x1="76.8131" y1="234.392" x2="73.2739" y2="269.091" gradientUnits="userSpaceOnUse">
<stop stop-color="white"/>
<stop offset="1" stop-color="white" stop-opacity="0"/>
</linearGradient>
<linearGradient id="paint25_linear" x1="350.875" y1="231.386" x2="347.336" y2="266.086" gradientUnits="userSpaceOnUse">
<stop stop-color="white"/>
<stop offset="1" stop-color="white" stop-opacity="0"/>
</linearGradient>
<linearGradient id="paint26_linear" x1="350.875" y1="231.386" x2="347.336" y2="266.086" gradientUnits="userSpaceOnUse">
<stop stop-color="white"/>
<stop offset="1" stop-color="white" stop-opacity="0"/>
</linearGradient>
<linearGradient id="paint27_linear" x1="350.875" y1="231.386" x2="347.336" y2="266.086" gradientUnits="userSpaceOnUse">
<stop stop-color="white"/>
<stop offset="1" stop-color="white" stop-opacity="0"/>
</linearGradient>
<linearGradient id="paint28_linear" x1="350.875" y1="231.386" x2="347.336" y2="266.086" gradientUnits="userSpaceOnUse">
<stop stop-color="white"/>
<stop offset="1" stop-color="white" stop-opacity="0"/>
</linearGradient>
<linearGradient id="paint29_linear" x1="350.875" y1="231.386" x2="347.336" y2="266.086" gradientUnits="userSpaceOnUse">
<stop stop-color="white"/>
<stop offset="1" stop-color="white" stop-opacity="0"/>
</linearGradient>
<linearGradient id="paint30_linear" x1="350.875" y1="231.386" x2="347.336" y2="266.086" gradientUnits="userSpaceOnUse">
<stop stop-color="white"/>
<stop offset="1" stop-color="white" stop-opacity="0"/>
</linearGradient>
<linearGradient id="paint31_linear" x1="350.875" y1="231.386" x2="347.336" y2="266.086" gradientUnits="userSpaceOnUse">
<stop stop-color="white"/>
<stop offset="1" stop-color="white" stop-opacity="0"/>
</linearGradient>
<linearGradient id="paint32_linear" x1="350.875" y1="231.386" x2="347.336" y2="266.086" gradientUnits="userSpaceOnUse">
<stop stop-color="white"/>
<stop offset="1" stop-color="white" stop-opacity="0"/>
</linearGradient>
<linearGradient id="paint33_linear" x1="350.875" y1="231.387" x2="347.336" y2="266.086" gradientUnits="userSpaceOnUse">
<stop stop-color="white"/>
<stop offset="1" stop-color="white" stop-opacity="0"/>
</linearGradient>
<linearGradient id="paint34_linear" x1="85.9753" y1="304.622" x2="81.3202" y2="350.261" gradientUnits="userSpaceOnUse">
<stop stop-color="white"/>
<stop offset="1" stop-color="white" stop-opacity="0"/>
</linearGradient>
<linearGradient id="paint35_linear" x1="85.9753" y1="304.622" x2="81.3202" y2="350.261" gradientUnits="userSpaceOnUse">
<stop stop-color="white"/>
<stop offset="1" stop-color="white" stop-opacity="0"/>
</linearGradient>
<linearGradient id="paint36_linear" x1="85.9753" y1="304.622" x2="81.3202" y2="350.261" gradientUnits="userSpaceOnUse">
<stop stop-color="white"/>
<stop offset="1" stop-color="white" stop-opacity="0"/>
</linearGradient>
<linearGradient id="paint37_linear" x1="85.9753" y1="304.622" x2="81.3202" y2="350.261" gradientUnits="userSpaceOnUse">
<stop stop-color="white"/>
<stop offset="1" stop-color="white" stop-opacity="0"/>
</linearGradient>
<linearGradient id="paint38_linear" x1="85.9753" y1="304.622" x2="81.3202" y2="350.261" gradientUnits="userSpaceOnUse">
<stop stop-color="white"/>
<stop offset="1" stop-color="white" stop-opacity="0"/>
</linearGradient>
<linearGradient id="paint39_linear" x1="85.9753" y1="304.622" x2="81.3202" y2="350.261" gradientUnits="userSpaceOnUse">
<stop stop-color="white"/>
<stop offset="1" stop-color="white" stop-opacity="0"/>
</linearGradient>
<linearGradient id="paint40_linear" x1="85.9753" y1="304.622" x2="81.3202" y2="350.261" gradientUnits="userSpaceOnUse">
<stop stop-color="white"/>
<stop offset="1" stop-color="white" stop-opacity="0"/>
</linearGradient>
<linearGradient id="paint41_linear" x1="85.9753" y1="304.622" x2="81.3202" y2="350.261" gradientUnits="userSpaceOnUse">
<stop stop-color="white"/>
<stop offset="1" stop-color="white" stop-opacity="0"/>
</linearGradient>
<linearGradient id="paint42_linear" x1="85.9752" y1="304.622" x2="81.3201" y2="350.261" gradientUnits="userSpaceOnUse">
<stop stop-color="white"/>
<stop offset="1" stop-color="white" stop-opacity="0"/>
</linearGradient>
<linearGradient id="paint43_linear" x1="322.752" y1="324.992" x2="290.239" y2="357.358" gradientUnits="userSpaceOnUse">
<stop stop-color="white"/>
<stop offset="1" stop-color="white" stop-opacity="0"/>
</linearGradient>
<linearGradient id="paint44_linear" x1="322.752" y1="324.992" x2="290.239" y2="357.358" gradientUnits="userSpaceOnUse">
<stop stop-color="white"/>
<stop offset="1" stop-color="white" stop-opacity="0"/>
</linearGradient>
<linearGradient id="paint45_linear" x1="322.752" y1="324.992" x2="290.239" y2="357.358" gradientUnits="userSpaceOnUse">
<stop stop-color="white"/>
<stop offset="1" stop-color="white" stop-opacity="0"/>
</linearGradient>
<linearGradient id="paint46_linear" x1="322.752" y1="324.992" x2="290.239" y2="357.358" gradientUnits="userSpaceOnUse">
<stop stop-color="white"/>
<stop offset="1" stop-color="white" stop-opacity="0"/>
</linearGradient>
<linearGradient id="paint47_linear" x1="322.752" y1="324.992" x2="290.239" y2="357.358" gradientUnits="userSpaceOnUse">
<stop stop-color="white"/>
<stop offset="1" stop-color="white" stop-opacity="0"/>
</linearGradient>
<linearGradient id="paint48_linear" x1="322.752" y1="324.992" x2="290.239" y2="357.358" gradientUnits="userSpaceOnUse">
<stop stop-color="white"/>
<stop offset="1" stop-color="white" stop-opacity="0"/>
</linearGradient>
<linearGradient id="paint49_linear" x1="322.752" y1="324.992" x2="290.239" y2="357.358" gradientUnits="userSpaceOnUse">
<stop stop-color="white"/>
<stop offset="1" stop-color="white" stop-opacity="0"/>
</linearGradient>
<linearGradient id="paint50_linear" x1="322.752" y1="324.992" x2="290.239" y2="357.358" gradientUnits="userSpaceOnUse">
<stop stop-color="white"/>
<stop offset="1" stop-color="white" stop-opacity="0"/>
</linearGradient>
<linearGradient id="paint51_linear" x1="322.752" y1="324.992" x2="290.239" y2="357.357" gradientUnits="userSpaceOnUse">
<stop stop-color="white"/>
<stop offset="1" stop-color="white" stop-opacity="0"/>
</linearGradient>
<linearGradient id="paint52_linear" x1="38.5848" y1="277.469" x2="26.6058" y2="302.596" gradientUnits="userSpaceOnUse">
<stop stop-color="white"/>
<stop offset="1" stop-color="white" stop-opacity="0"/>
</linearGradient>
<linearGradient id="paint53_linear" x1="38.5848" y1="277.469" x2="26.6058" y2="302.596" gradientUnits="userSpaceOnUse">
<stop stop-color="white"/>
<stop offset="1" stop-color="white" stop-opacity="0"/>
</linearGradient>
<linearGradient id="paint54_linear" x1="38.5848" y1="277.469" x2="26.6058" y2="302.596" gradientUnits="userSpaceOnUse">
<stop stop-color="white"/>
<stop offset="1" stop-color="white" stop-opacity="0"/>
</linearGradient>
<linearGradient id="paint55_linear" x1="38.5848" y1="277.469" x2="26.6058" y2="302.596" gradientUnits="userSpaceOnUse">
<stop stop-color="white"/>
<stop offset="1" stop-color="white" stop-opacity="0"/>
</linearGradient>
<linearGradient id="paint56_linear" x1="38.5848" y1="277.469" x2="26.6058" y2="302.596" gradientUnits="userSpaceOnUse">
<stop stop-color="white"/>
<stop offset="1" stop-color="white" stop-opacity="0"/>
</linearGradient>
<linearGradient id="paint57_linear" x1="38.5848" y1="277.469" x2="26.6058" y2="302.596" gradientUnits="userSpaceOnUse">
<stop stop-color="white"/>
<stop offset="1" stop-color="white" stop-opacity="0"/>
</linearGradient>
<linearGradient id="paint58_linear" x1="38.5848" y1="277.469" x2="26.6058" y2="302.596" gradientUnits="userSpaceOnUse">
<stop stop-color="white"/>
<stop offset="1" stop-color="white" stop-opacity="0"/>
</linearGradient>
<linearGradient id="paint59_linear" x1="38.5848" y1="277.469" x2="26.6058" y2="302.596" gradientUnits="userSpaceOnUse">
<stop stop-color="white"/>
<stop offset="1" stop-color="white" stop-opacity="0"/>
</linearGradient>
<linearGradient id="paint60_linear" x1="38.5849" y1="277.469" x2="26.6058" y2="302.596" gradientUnits="userSpaceOnUse">
<stop stop-color="white"/>
<stop offset="1" stop-color="white" stop-opacity="0"/>
</linearGradient>
<linearGradient id="paint61_linear" x1="29.1629" y1="211.809" x2="22.9544" y2="224.832" gradientUnits="userSpaceOnUse">
<stop stop-color="white"/>
<stop offset="1" stop-color="white" stop-opacity="0"/>
</linearGradient>
<linearGradient id="paint62_linear" x1="29.1629" y1="211.809" x2="22.9544" y2="224.832" gradientUnits="userSpaceOnUse">
<stop stop-color="white"/>
<stop offset="1" stop-color="white" stop-opacity="0"/>
</linearGradient>
<linearGradient id="paint63_linear" x1="29.1629" y1="211.809" x2="22.9544" y2="224.832" gradientUnits="userSpaceOnUse">
<stop stop-color="white"/>
<stop offset="1" stop-color="white" stop-opacity="0"/>
</linearGradient>
<linearGradient id="paint64_linear" x1="29.1629" y1="211.809" x2="22.9544" y2="224.832" gradientUnits="userSpaceOnUse">
<stop stop-color="white"/>
<stop offset="1" stop-color="white" stop-opacity="0"/>
</linearGradient>
<linearGradient id="paint65_linear" x1="29.1629" y1="211.809" x2="22.9544" y2="224.832" gradientUnits="userSpaceOnUse">
<stop stop-color="white"/>
<stop offset="1" stop-color="white" stop-opacity="0"/>
</linearGradient>
<linearGradient id="paint66_linear" x1="29.1629" y1="211.809" x2="22.9544" y2="224.832" gradientUnits="userSpaceOnUse">
<stop stop-color="white"/>
<stop offset="1" stop-color="white" stop-opacity="0"/>
</linearGradient>
<linearGradient id="paint67_linear" x1="29.1629" y1="211.809" x2="22.9544" y2="224.832" gradientUnits="userSpaceOnUse">
<stop stop-color="white"/>
<stop offset="1" stop-color="white" stop-opacity="0"/>
</linearGradient>
<linearGradient id="paint68_linear" x1="29.1629" y1="211.809" x2="22.9544" y2="224.832" gradientUnits="userSpaceOnUse">
<stop stop-color="white"/>
<stop offset="1" stop-color="white" stop-opacity="0"/>
</linearGradient>
<linearGradient id="paint69_linear" x1="29.163" y1="211.809" x2="22.9545" y2="224.832" gradientUnits="userSpaceOnUse">
<stop stop-color="white"/>
<stop offset="1" stop-color="white" stop-opacity="0"/>
</linearGradient>
<linearGradient id="paint70_linear" x1="373.792" y1="295.998" x2="361.813" y2="321.126" gradientUnits="userSpaceOnUse">
<stop stop-color="white"/>
<stop offset="1" stop-color="white" stop-opacity="0"/>
</linearGradient>
<linearGradient id="paint71_linear" x1="373.792" y1="295.998" x2="361.813" y2="321.126" gradientUnits="userSpaceOnUse">
<stop stop-color="white"/>
<stop offset="1" stop-color="white" stop-opacity="0"/>
</linearGradient>
<linearGradient id="paint72_linear" x1="373.792" y1="295.998" x2="361.813" y2="321.126" gradientUnits="userSpaceOnUse">
<stop stop-color="white"/>
<stop offset="1" stop-color="white" stop-opacity="0"/>
</linearGradient>
<linearGradient id="paint73_linear" x1="373.792" y1="295.998" x2="361.813" y2="321.126" gradientUnits="userSpaceOnUse">
<stop stop-color="white"/>
<stop offset="1" stop-color="white" stop-opacity="0"/>
</linearGradient>
<linearGradient id="paint74_linear" x1="373.792" y1="295.998" x2="361.813" y2="321.126" gradientUnits="userSpaceOnUse">
<stop stop-color="white"/>
<stop offset="1" stop-color="white" stop-opacity="0"/>
</linearGradient>
<linearGradient id="paint75_linear" x1="373.792" y1="295.998" x2="361.813" y2="321.126" gradientUnits="userSpaceOnUse">
<stop stop-color="white"/>
<stop offset="1" stop-color="white" stop-opacity="0"/>
</linearGradient>
<linearGradient id="paint76_linear" x1="373.792" y1="295.998" x2="361.813" y2="321.126" gradientUnits="userSpaceOnUse">
<stop stop-color="white"/>
<stop offset="1" stop-color="white" stop-opacity="0"/>
</linearGradient>
<linearGradient id="paint77_linear" x1="373.792" y1="295.998" x2="361.813" y2="321.126" gradientUnits="userSpaceOnUse">
<stop stop-color="white"/>
<stop offset="1" stop-color="white" stop-opacity="0"/>
</linearGradient>
<linearGradient id="paint78_linear" x1="373.792" y1="295.998" x2="361.813" y2="321.126" gradientUnits="userSpaceOnUse">
<stop stop-color="white"/>
<stop offset="1" stop-color="white" stop-opacity="0"/>
</linearGradient>
<linearGradient id="paint79_linear" x1="38.0688" y1="109" x2="38.0688" y2="144.904" gradientUnits="userSpaceOnUse">
<stop stop-color="#4CAF50"/>
<stop offset="1" stop-color="#BBFFBE" stop-opacity="0"/>
</linearGradient>
<linearGradient id="paint80_linear" x1="10.4131" y1="145" x2="10.4131" y2="166.904" gradientUnits="userSpaceOnUse">
<stop stop-color="#4CAF50"/>
<stop offset="1" stop-color="#BBFFBE" stop-opacity="0"/>
</linearGradient>
<linearGradient id="paint81_linear" x1="55.0818" y1="184" x2="55.0818" y2="201" gradientUnits="userSpaceOnUse">
<stop stop-color="#4CAF50"/>
<stop offset="1" stop-color="#BBFFBE" stop-opacity="0"/>
</linearGradient>
<linearGradient id="paint82_linear" x1="344.802" y1="181.201" x2="344.802" y2="219.053" gradientUnits="userSpaceOnUse">
<stop stop-color="#FF4949"/>
<stop offset="1" stop-color="#FF4949" stop-opacity="0"/>
</linearGradient>
<linearGradient id="paint83_linear" x1="352.237" y1="93" x2="352.237" y2="130.852" gradientUnits="userSpaceOnUse">
<stop stop-color="#FF4949"/>
<stop offset="1" stop-color="#FF4949" stop-opacity="0"/>
</linearGradient>
<linearGradient id="paint84_linear" x1="315.475" y1="128.459" x2="315.475" y2="160.636" gradientUnits="userSpaceOnUse">
<stop stop-color="#FF4949"/>
<stop offset="1" stop-color="#FF4949" stop-opacity="0"/>
</linearGradient>
<linearGradient id="paint85_linear" x1="351.539" y1="151.366" x2="351.539" y2="167.454" gradientUnits="userSpaceOnUse">
<stop stop-color="#FF4949"/>
<stop offset="1" stop-color="#FF4949" stop-opacity="0"/>
</linearGradient>
<linearGradient id="paint86_linear" x1="206.826" y1="62.9972" x2="190.343" y2="146.135" gradientUnits="userSpaceOnUse">
<stop stop-color="#1877F2"/>
<stop offset="1" stop-color="#1877F2" stop-opacity="0"/>
</linearGradient>
<linearGradient id="paint87_linear" x1="286.333" y1="52.4507" x2="273.737" y2="115.986" gradientUnits="userSpaceOnUse">
<stop stop-color="#1877F2"/>
<stop offset="1" stop-color="#1877F2" stop-opacity="0"/>
</linearGradient>
<linearGradient id="paint88_linear" x1="171.713" y1="11.6077" x2="162.285" y2="59.1597" gradientUnits="userSpaceOnUse">
<stop stop-color="#1877F2"/>
<stop offset="1" stop-color="#1877F2" stop-opacity="0"/>
</linearGradient>
<linearGradient id="paint89_linear" x1="107.03" y1="87.1843" x2="101.133" y2="116.924" gradientUnits="userSpaceOnUse">
<stop stop-color="#1877F2"/>
<stop offset="1" stop-color="#1877F2" stop-opacity="0"/>
</linearGradient>
</defs>
</svg>
