<svg width="503" height="372" viewBox="0 0 503 372" fill="none" xmlns="http://www.w3.org/2000/svg">
<path d="M17.6348 302.824C17.6348 298.583 21.0721 295.146 25.3123 295.146H439.925C444.165 295.146 447.602 298.583 447.602 302.824V321.646C447.602 325.886 444.165 329.324 439.925 329.324H432.594C428.353 329.324 424.916 332.761 424.916 337.001V346.085C424.916 350.325 421.479 353.763 417.238 353.763H366.251C362.011 353.763 358.573 357.2 358.573 361.44V364.177C358.573 368.417 355.136 371.854 350.896 371.854H112.169C107.929 371.854 104.492 368.417 104.492 364.177V361.44C104.492 357.2 101.054 353.763 96.8143 353.763H49.0947C44.8545 353.763 41.4172 350.325 41.4172 346.085V337.001C41.4172 332.761 37.9798 329.324 33.7396 329.324H25.3123C21.0721 329.324 17.6348 325.886 17.6348 321.646V302.824Z" fill="url(#paint0_linear)" fill-opacity="0.9"/>
<rect x="36.1846" y="124.533" width="207.321" height="47.7843" rx="10.7287" transform="rotate(-13.3786 36.1846 124.533)" fill="white"/>
<circle cx="65.3774" cy="142.299" r="16.851" transform="rotate(-21.1006 65.3774 142.299)" fill="#FFA318"/>
<path d="M65.2393 132.887C62.3721 133.994 60.9485 137.206 62.0549 140.073C62.2903 140.684 62.6477 141.246 63.0661 141.786L59.1324 150.663L60.3094 153.713L63.3596 152.536L62.6534 150.706L64.4835 150L63.7773 148.17L65.6074 147.464L67.2933 143.659C67.913 143.63 68.5701 143.517 69.2411 143.258C72.1083 142.152 73.5319 138.939 72.4255 136.072C71.3191 133.205 68.1065 131.781 65.2393 132.887ZM68.883 137.789C67.8459 138.189 66.7469 137.702 66.3467 136.665C65.9465 135.628 66.4335 134.529 67.4706 134.129C68.5077 133.729 69.6067 134.216 70.0069 135.253C70.4071 136.29 69.9201 137.389 68.883 137.789Z" fill="white"/>
<circle cx="100.828" cy="133.322" r="3.99496" transform="rotate(-10.277 100.828 133.322)" fill="#1F2337"/>
<circle cx="117.352" cy="129.46" r="3.99496" transform="rotate(-10.277 117.352 129.46)" fill="#1F2337"/>
<circle cx="133.875" cy="125.602" r="3.99496" transform="rotate(-10.277 133.875 125.602)" fill="#1F2337"/>
<circle cx="150.398" cy="121.741" r="3.99496" transform="rotate(-10.277 150.398 121.741)" fill="#1F2337"/>
<circle cx="166.922" cy="117.883" r="3.99496" transform="rotate(-10.277 166.922 117.883)" fill="#1F2337"/>
<path d="M197.429 93.3898L198.296 93.245L198.214 92.3692L197.733 87.2627C202.012 86.2592 205.324 84.0407 207.594 80.5903C210.058 76.9083 210.826 72.5055 209.984 67.4635C208.973 61.4017 206.546 56.9289 202.586 54.2358C198.702 51.5052 194.024 50.6326 188.642 51.5309C184.494 52.2231 181.095 53.6972 178.507 56.0021C175.938 58.227 174.198 60.9539 173.309 64.1668L173.309 64.1668L173.305 64.1794C172.472 67.3592 172.435 70.7181 173.172 74.2413L173.358 75.1291L174.253 74.9798L188.904 72.5346L189.836 72.3791L189.681 71.4471C189.515 70.4555 189.59 69.7359 189.806 69.2238C190.012 68.755 190.365 68.4645 191.017 68.3557C191.464 68.2811 191.786 68.3891 192.089 68.7001L192.121 68.7329L192.155 68.7624C192.482 69.0385 192.781 69.5546 192.935 70.4788C193.044 71.1285 192.978 71.6609 192.784 72.1101C192.589 72.5616 192.235 72.9954 191.661 73.3989L191.661 73.3988L191.651 73.4057C190.495 74.2393 188.62 74.9175 185.918 75.3684L180.03 76.3511L179.075 76.5104L179.257 77.461L182.605 94.9286L182.778 95.8347L183.688 95.6828L197.429 93.3898ZM187.158 117.171C189.317 118.785 191.903 119.311 194.828 118.823C197.711 118.341 199.96 117.005 201.475 114.782C202.976 112.578 203.471 110.039 203.002 107.232C202.526 104.378 201.234 102.11 199.098 100.51C196.937 98.8422 194.369 98.2766 191.479 98.7588C188.548 99.248 186.277 100.618 184.772 102.9C183.271 105.107 182.786 107.673 183.262 110.526C183.73 113.334 185.023 115.574 187.158 117.171Z" fill="#F52079" stroke="white" stroke-width="1.88984"/>
<path d="M100.688 230.161C107.759 196.813 157.122 195.789 180.919 199.446C185.815 249.76 134.458 288.666 108.167 301.83C102.728 291.835 93.6171 263.509 100.688 230.161Z" fill="#202438"/>
<path fill-rule="evenodd" clip-rule="evenodd" d="M169.327 206.603C154.965 210.964 145.102 213.958 143.198 228.244C138.711 261.898 138.405 282.357 141.906 295.145H233.929C234.478 293.949 235.126 292.575 235.844 291.05C246.367 268.722 272.22 213.861 229.923 204.642C199.909 198.101 197.565 197.915 195.579 197.757C195.068 197.717 194.581 197.678 193.654 197.534C184.716 201.93 176.466 204.435 169.327 206.603Z" fill="url(#paint1_linear)"/>
<path d="M175.67 169.552C174.277 163.731 179.383 158.426 185.253 159.595L235.514 169.612C239.969 170.499 242.854 174.838 241.951 179.29L231.662 229.968C230.838 234.027 227.118 236.835 222.989 236.515L197.066 234.508C193.516 234.234 190.549 231.701 189.72 228.239L175.67 169.552Z" fill="url(#paint2_linear)"/>
<path d="M234.044 176.354C235.357 172.962 246.272 177.988 246.27 185.69C243.527 189.032 245.419 183.729 242.611 181.579C238.018 178.065 232.929 179.238 234.044 176.354Z" fill="#FFC9C9"/>
<path d="M198.708 211.553C196.704 213.21 193.272 217.399 195.58 220.902C198.465 225.28 202.277 218.953 198.708 211.553Z" fill="#F6F6FF"/>
<path d="M196.165 247.178C195.191 248.547 193.749 251.735 195.775 253.536C198.307 255.787 199.63 251.201 196.165 247.178Z" fill="#F6F6FF"/>
<path d="M222.036 266.734C222.991 268.042 224.418 271.098 222.486 272.858C220.072 275.057 218.744 270.652 222.036 266.734Z" fill="#F6F6FF"/>
<path d="M248.544 213.333C253.65 211.162 250.626 196.203 245.998 187.531C245.998 185.669 244.721 185.36 239.615 199.022C233.231 216.1 242.16 216.046 248.544 213.333Z" fill="#FFC9C9"/>
<path d="M177.676 169.866C181.907 155.139 199.186 152.163 207.297 152.516C245.246 154.165 243.266 167.595 243.266 173.068C243.266 188.175 249.833 192.951 246.003 201.16C242.346 208.996 242.279 218.812 243.266 220.222C237.342 218.36 237.694 215.074 238.611 213.663C234.887 216.202 237.06 220.646 238.611 222.55C234.45 222.479 224.266 221.153 216.818 216.414C209.37 211.674 208.778 202.167 209.413 198.006C206.197 200.037 208.073 207.175 209.413 210.49C198.072 207.273 196.647 195.467 197.352 189.966L184.138 206.807L180.039 198.006C184.694 199.346 173.444 184.592 177.676 169.866Z" fill="#1F2337"/>
<path d="M174.338 179.672L172.765 211.528C172.451 215.608 172.923 223.936 177.326 224.607C182.83 225.445 187.754 222.816 187.754 209.621C187.754 202.299 188.124 193.337 198.841 192.468C202.847 192.143 201.686 189.01 197.297 188.558C189.226 187.725 184.746 195.331 183.771 190.989C187.067 189.126 189.154 186.516 191.636 185.57C199.339 182.632 201.351 186.207 202.578 183.6C204.166 180.229 196.128 179.791 191.636 181.279C186.279 183.054 180.782 187.369 182.042 185.951C184.359 183.344 184.924 179.672 190.762 178.044C192.898 178.044 198.523 178.022 198.16 175.858C197.866 174.105 196.702 174.258 192.38 173.964C182.042 173.261 177.861 184.57 178.584 179.672C179.719 171.995 188.648 170.451 191.636 169.948C194.026 169.545 193.785 168.327 193.365 167.768C180.911 165.22 175.491 174.642 174.338 179.672Z" fill="#FFC9C9"/>
<path d="M234.866 182.002C236.131 178.775 247.379 182.232 247.404 189.57C245.579 191.942 246.692 189.459 243.951 187.401C239.469 184.036 233.79 184.746 234.866 182.002Z" fill="#FFC9C9"/>
<path d="M239.602 166.636C241.548 165.157 247.05 171.365 244.373 175.791C242.404 176.55 243.985 175.463 243.09 173.219C241.626 169.549 237.948 167.893 239.602 166.636Z" fill="#FFC9C9"/>
<path d="M236.393 170.986C238.668 168.369 248.104 175.4 245.665 182.321C243.15 183.943 245.032 181.977 243.14 179.119C240.047 174.446 234.459 173.209 236.393 170.986Z" fill="#FFC9C9"/>
<path d="M147.839 217.213C152.85 214.47 161.185 226.663 164.998 231.845C150.292 263.24 118.917 322.967 111.074 310.714C101.269 295.397 141.576 220.642 147.839 217.213Z" fill="url(#paint3_linear)"/>
<path d="M133.509 314.77C69.6995 324.446 152.082 247.796 173.311 219.651C173.311 219.651 173.716 222.235 176.565 223.919C179.413 225.603 182.815 223.919 182.815 223.919C173.307 258.413 152.5 311.89 133.509 314.77Z" fill="#4048FF"/>
<path d="M248.342 255.636L245.869 225.91L250.505 223.646C264.929 252.522 290.193 309.483 275.851 306.312C261.509 303.141 251.536 271.207 248.342 255.636Z" fill="#161CA7"/>
<path d="M278.804 307.286C328.407 317.116 267.785 236.073 251.282 207.48C251.282 207.48 249.409 211.24 247.73 212.59C246.05 213.941 242.68 214.396 242.68 214.396C250.071 249.439 264.041 304.361 278.804 307.286Z" fill="#4048FF"/>
<g style="mix-blend-mode:multiply">
<path d="M217.836 224.392C216.91 220.659 217.241 218.418 218.374 217.285L222.546 219.63V225.803L213.927 228.581L217.836 224.392Z" fill="url(#paint4_linear)"/>
</g>
<path d="M299.573 328.876C299.025 328.617 299.122 327.81 299.715 327.688L358.163 315.639C358.277 315.615 358.397 315.624 358.507 315.664L390.414 327.318C391.009 327.536 390.949 328.395 390.331 328.528L327.625 342.018C327.49 342.048 327.348 342.031 327.222 341.972L299.573 328.876Z" fill="#616186"/>
<path d="M328.02 302.854C328.02 301.846 328.702 300.966 329.678 300.715L359.562 293.025C360.959 292.666 362.321 293.721 362.321 295.165V324.75C362.321 325.821 361.553 326.737 360.499 326.925L330.616 332.249C329.262 332.49 328.02 331.449 328.02 330.074V302.854Z" fill="#75758F"/>
<path d="M189.506 222.993L190.661 224.935C198.85 237.365 214.602 236.111 217.708 234.349L205.97 250.681L190.661 224.935C190.257 224.322 189.871 223.675 189.506 222.993Z" fill="#F79797"/>
<path d="M208.628 336.476L180.264 322.114C179.711 321.834 179.851 321.008 180.465 320.926L275.912 308.128C276.016 308.114 276.121 308.126 276.218 308.163L306.519 319.57C307.124 319.798 307.036 320.681 306.398 320.784L209.014 336.536C208.882 336.557 208.747 336.537 208.628 336.476Z" fill="url(#paint5_linear)"/>
<path d="M215.394 318.778L250.615 313.379" stroke="#9898B3" stroke-width="0.631103" stroke-linecap="round"/>
<path d="M197.149 325.326L203.507 324.327" stroke="#9898B3" stroke-width="0.631103" stroke-linecap="round"/>
<path d="M207.379 323.617L213.737 322.618" stroke="#9898B3" stroke-width="0.631103" stroke-linecap="round"/>
<path d="M217.597 321.902L223.955 320.903" stroke="#9898B3" stroke-width="0.631103" stroke-linecap="round"/>
<path d="M227.826 320.191L234.183 319.192" stroke="#9898B3" stroke-width="0.631103" stroke-linecap="round"/>
<path d="M238.061 318.478L244.418 317.479" stroke="#9898B3" stroke-width="0.631103" stroke-linecap="round"/>
<path d="M248.285 316.769L254.642 315.77" stroke="#9898B3" stroke-width="0.631103" stroke-linecap="round"/>
<path d="M258.497 315.057L264.855 314.058" stroke="#9898B3" stroke-width="0.631103" stroke-linecap="round"/>
<path d="M268.732 313.344L275.09 312.345" stroke="#9898B3" stroke-width="0.631103" stroke-linecap="round"/>
<path d="M203.52 327.038L209.878 326.039" stroke="#9898B3" stroke-width="0.631103" stroke-linecap="round"/>
<path d="M213.75 325.33L220.107 324.331" stroke="#9898B3" stroke-width="0.631103" stroke-linecap="round"/>
<path d="M223.968 323.615L230.325 322.616" stroke="#9898B3" stroke-width="0.631103" stroke-linecap="round"/>
<path d="M234.196 321.903L240.554 320.904" stroke="#9898B3" stroke-width="0.631103" stroke-linecap="round"/>
<path d="M244.431 320.19L250.789 319.191" stroke="#9898B3" stroke-width="0.631103" stroke-linecap="round"/>
<path d="M254.655 318.479L261.013 317.479" stroke="#9898B3" stroke-width="0.631103" stroke-linecap="round"/>
<path d="M264.868 316.77L271.225 315.771" stroke="#9898B3" stroke-width="0.631103" stroke-linecap="round"/>
<path d="M275.103 315.057L281.461 314.058" stroke="#9898B3" stroke-width="0.631103" stroke-linecap="round"/>
<path d="M204.64 330.104L210.998 329.104" stroke="#9898B3" stroke-width="0.631103" stroke-linecap="round"/>
<path d="M214.87 328.395L221.227 327.396" stroke="#9898B3" stroke-width="0.631103" stroke-linecap="round"/>
<path d="M225.088 326.68L231.445 325.681" stroke="#9898B3" stroke-width="0.631103" stroke-linecap="round"/>
<path d="M235.317 324.969L241.675 323.97" stroke="#9898B3" stroke-width="0.631103" stroke-linecap="round"/>
<path d="M245.551 323.255L251.909 322.256" stroke="#9898B3" stroke-width="0.631103" stroke-linecap="round"/>
<path d="M255.775 321.544L262.133 320.545" stroke="#9898B3" stroke-width="0.631103" stroke-linecap="round"/>
<path d="M265.988 319.835L272.345 318.836" stroke="#9898B3" stroke-width="0.631103" stroke-linecap="round"/>
<path d="M276.223 318.122L282.581 317.123" stroke="#9898B3" stroke-width="0.631103" stroke-linecap="round"/>
<path d="M214.4 331.758L220.758 330.759" stroke="#9898B3" stroke-width="0.631103" stroke-linecap="round"/>
<path d="M224.629 330.049L230.987 329.05" stroke="#9898B3" stroke-width="0.631103" stroke-linecap="round"/>
<path d="M234.848 328.335L241.205 327.335" stroke="#9898B3" stroke-width="0.631103" stroke-linecap="round"/>
<path d="M245.076 326.623L251.434 325.624" stroke="#9898B3" stroke-width="0.631103" stroke-linecap="round"/>
<path d="M255.311 324.91L261.669 323.911" stroke="#9898B3" stroke-width="0.631103" stroke-linecap="round"/>
<path d="M265.535 323.201L271.893 322.202" stroke="#9898B3" stroke-width="0.631103" stroke-linecap="round"/>
<path d="M275.748 321.489L282.105 320.49" stroke="#9898B3" stroke-width="0.631103" stroke-linecap="round"/>
<path d="M285.983 319.776L292.341 318.777" stroke="#9898B3" stroke-width="0.631103" stroke-linecap="round"/>
<path d="M276.32 211.667C276.32 211.017 276.814 210.473 277.462 210.411L412.581 197.397C413.337 197.324 413.986 197.932 413.963 198.691L410.996 296.233C410.977 296.835 410.535 297.341 409.94 297.439L277.789 319.302C277.02 319.429 276.32 318.836 276.32 318.057V211.667Z" fill="#75758F"/>
<path d="M279.91 216.742V314.122C279.91 314.9 280.608 315.493 281.376 315.367L410.542 294.253C411.137 294.156 411.581 293.65 411.599 293.047L414.371 203.742C414.395 202.981 413.743 202.372 412.985 202.447L281.048 215.486C280.402 215.55 279.91 216.093 279.91 216.742Z" fill="url(#paint6_linear)"/>
<path d="M339.123 243.992L330.078 283.533L343.786 249.086C343.946 248.685 344.3 248.393 344.725 248.313L365.574 244.396C366.227 244.273 366.862 244.677 367.029 245.319L375.21 276.776L369.884 239.616C369.785 238.918 369.133 238.438 368.438 238.548L340.156 243.027C339.647 243.107 339.238 243.489 339.123 243.992Z" fill="#75758F"/>
<path fill-rule="evenodd" clip-rule="evenodd" d="M237.952 302.557C237.952 304.451 232.894 305.986 226.655 305.986C226.454 305.986 226.255 305.984 226.057 305.981C226.057 305.983 226.057 305.985 226.057 305.987C226.057 306.801 223.884 307.46 221.203 307.46C218.523 307.46 216.35 306.801 216.35 305.987C216.35 305.518 217.072 305.1 218.197 304.83C216.431 304.225 215.358 303.429 215.358 302.557C215.358 300.664 220.416 299.128 226.655 299.128C232.894 299.128 237.952 300.664 237.952 302.557ZM189.258 310.324C198.825 310.324 206.581 307.97 206.581 305.066C206.581 302.163 198.825 299.809 189.258 299.809C179.691 299.809 171.935 302.163 171.935 305.066C171.935 305.4 172.038 305.726 172.233 306.042C166.965 306.333 162.97 307.733 162.97 309.416C162.97 311.309 168.028 312.844 174.267 312.844C179.635 312.844 184.128 311.708 185.278 310.185C186.556 310.276 187.888 310.324 189.258 310.324Z" fill="url(#paint7_linear)"/>
<path d="M192.065 301.194C191.419 299.062 189.783 295.302 188.412 297.312C187.042 299.321 190.277 300.737 192.065 301.194Z" fill="#F6F6FF"/>
<path d="M191.601 296.409C192.173 295.338 192.992 293.257 191.689 293.504C190.386 293.75 191.087 295.544 191.601 296.409Z" fill="#F6F6FF"/>
<path d="M192.881 298.46C195.322 297.755 199.635 295.948 197.365 294.354C195.095 292.76 193.43 296.427 192.881 298.46Z" fill="#F6F6FF"/>
<path d="M475.834 139.701C461.783 115.88 435.743 102.519 414.718 99.0083C362.166 92.2334 324.034 150.887 357.655 192.327C384.565 225.494 355.685 175.691 424.213 204.172C471.071 223.647 496.815 175.271 475.834 139.701Z" fill="white"/>
<path d="M413.33 137.381C414.686 133.355 418.801 131.314 422.827 132.669C426.853 134.025 428.895 138.141 427.539 142.167L425.944 146.903L430.68 148.498L432.275 143.762C434.509 137.131 431.053 130.166 424.422 127.933C417.791 125.7 410.827 129.155 408.594 135.786L406.999 140.522L411.735 142.118L413.33 137.381Z" fill="#F52079"/>
<path d="M430.692 148.497L407.011 140.522C402.985 139.166 398.869 141.208 397.514 145.233L391.931 161.811C390.575 165.836 392.617 169.952 396.642 171.308L420.324 179.283C424.35 180.639 428.465 178.597 429.821 174.571L435.404 157.994C436.76 153.968 434.718 149.853 430.692 148.497ZM415.956 160.937L414.839 164.252C414.361 165.673 413.094 166.301 411.673 165.823C410.253 165.344 409.624 164.078 410.103 162.657L411.219 159.342C410.748 158.392 410.594 157.285 410.913 156.338C411.551 154.443 413.767 153.344 415.661 153.982C417.556 154.62 418.655 156.836 418.017 158.731C417.698 159.678 416.906 160.466 415.956 160.937Z" fill="#F52079"/>
<path d="M382.417 136.151L380.175 155.09L372.557 154.609L372.714 135.539L382.417 136.151ZM375.634 166.437C374.084 166.339 372.867 165.846 371.984 164.959C371.101 164.071 370.699 162.999 370.778 161.743C370.859 160.46 371.393 159.433 372.381 158.664C373.371 157.867 374.641 157.518 376.191 157.616C377.715 157.712 378.917 158.218 379.799 159.132C380.682 160.02 381.083 161.105 381.002 162.388C380.923 163.644 380.389 164.657 379.401 165.427C378.413 166.196 377.158 166.533 375.634 166.437Z" fill="#F52079"/>
<path d="M462.501 167.904L449.188 181.559L443.439 176.537L455.179 161.508L462.501 167.904ZM438.675 187.792C437.505 186.77 436.84 185.638 436.681 184.396C436.521 183.154 436.855 182.059 437.683 181.111C438.529 180.143 439.578 179.655 440.83 179.646C442.1 179.617 443.32 180.114 444.49 181.136C445.639 182.14 446.285 183.273 446.427 184.535C446.587 185.777 446.244 186.882 445.399 187.851C444.571 188.799 443.53 189.277 442.278 189.286C441.026 189.294 439.825 188.796 438.675 187.792Z" fill="#F52079"/>
<defs>
<linearGradient id="paint0_linear" x1="232.618" y1="280.283" x2="232.618" y2="530.315" gradientUnits="userSpaceOnUse">
<stop offset="0.09375" stop-color="white"/>
<stop offset="1" stop-color="#2E3AAE"/>
</linearGradient>
<linearGradient id="paint1_linear" x1="195.085" y1="196.047" x2="195.085" y2="326.208" gradientUnits="userSpaceOnUse">
<stop stop-color="#4048FF"/>
<stop offset="1" stop-color="#00057A"/>
</linearGradient>
<linearGradient id="paint2_linear" x1="208.138" y1="214.563" x2="157.091" y2="215.59" gradientUnits="userSpaceOnUse">
<stop stop-color="#FFC9C9"/>
<stop offset="1" stop-color="#E39F9F"/>
</linearGradient>
<linearGradient id="paint3_linear" x1="137.271" y1="216.816" x2="137.271" y2="312.346" gradientUnits="userSpaceOnUse">
<stop stop-color="#4048FF"/>
<stop offset="1" stop-color="#0009DB"/>
</linearGradient>
<linearGradient id="paint4_linear" x1="215.779" y1="224.569" x2="221.026" y2="225.803" gradientUnits="userSpaceOnUse">
<stop stop-color="#F7BCBC"/>
<stop offset="1" stop-color="#F7BCBC" stop-opacity="0"/>
</linearGradient>
<linearGradient id="paint5_linear" x1="243.594" y1="308.107" x2="264.645" y2="340.209" gradientUnits="userSpaceOnUse">
<stop stop-color="#75758F"/>
<stop offset="1" stop-color="#575777"/>
</linearGradient>
<linearGradient id="paint6_linear" x1="347.163" y1="202.306" x2="347.163" y2="307.751" gradientUnits="userSpaceOnUse">
<stop stop-color="#75758F"/>
<stop offset="1" stop-color="#47526A"/>
</linearGradient>
<linearGradient id="paint7_linear" x1="200.461" y1="299.128" x2="200.461" y2="329.718" gradientUnits="userSpaceOnUse">
<stop stop-color="white"/>
<stop offset="1" stop-color="#4048FF"/>
</linearGradient>
</defs>
</svg>
