<svg width="271" height="274" viewBox="0 0 271 274" fill="none" xmlns="http://www.w3.org/2000/svg">
<circle cx="135.224" cy="134.612" r="134.401" fill="#D6D6E8"/>
<path fill-rule="evenodd" clip-rule="evenodd" d="M135.218 1.65039V136.052L0.817139 136.052C0.817139 61.824 60.9905 1.65056 135.218 1.65039Z" fill="#FF0000"/>
<path fill-rule="evenodd" clip-rule="evenodd" d="M135.218 270.453V136.052L0.816895 136.052C0.816895 210.28 60.9902 270.453 135.218 270.453Z" fill="#1967FF"/>
<path fill-rule="evenodd" clip-rule="evenodd" d="M136.35 1.65039C210.578 1.65039 270.751 61.8239 270.751 136.052L136.35 136.052L136.35 1.65039Z" fill="#55ACEE"/>
<path fill-rule="evenodd" clip-rule="evenodd" d="M136.35 270.453C210.578 270.453 270.751 210.28 270.751 136.052L136.35 136.052L136.35 270.453Z" fill="#8621B0"/>
<g opacity="0.9">
<path fill-rule="evenodd" clip-rule="evenodd" d="M80.7606 54.5371C82.8501 55.1105 84.4956 56.7999 85.054 58.9453C86.0688 62.8335 86.0688 70.9464 86.0688 70.9464C86.0688 70.9464 86.0688 79.059 85.054 82.9475C84.4956 85.0929 82.8501 86.7823 80.7606 87.3559C76.974 88.3976 61.7888 88.3976 61.7888 88.3976C61.7888 88.3976 46.6036 88.3976 42.8167 87.3559C40.7273 86.7823 39.0817 85.0929 38.5233 82.9475C37.5088 79.059 37.5088 70.9464 37.5088 70.9464C37.5088 70.9464 37.5088 62.8335 38.5233 58.9453C39.0817 56.7999 40.7273 55.1105 42.8167 54.5371C46.6036 53.4951 61.7888 53.4951 61.7888 53.4951C61.7888 53.4951 76.974 53.4951 80.7606 54.5371ZM57.2375 64.1123V79.2873L69.3775 71.7001L57.2375 64.1123Z" fill="white"/>
</g>
<path opacity="0.9" fill-rule="evenodd" clip-rule="evenodd" d="M204.06 174.312C198.629 174.312 197.947 174.336 195.814 174.433C193.685 174.531 192.231 174.868 190.96 175.362C189.644 175.873 188.529 176.557 187.417 177.669C186.305 178.78 185.621 179.896 185.109 181.211C184.613 182.483 184.276 183.937 184.18 186.065C184.084 188.198 184.059 188.88 184.059 194.312C184.059 199.743 184.083 200.423 184.18 202.556C184.278 204.685 184.615 206.138 185.109 207.41C185.621 208.725 186.304 209.841 187.416 210.952C188.527 212.065 189.643 212.75 190.957 213.261C192.23 213.755 193.683 214.092 195.812 214.19C197.945 214.287 198.627 214.311 204.058 214.311C209.489 214.311 210.169 214.287 212.302 214.19C214.431 214.092 215.886 213.755 217.159 213.261C218.474 212.75 219.588 212.065 220.699 210.952C221.811 209.841 222.495 208.725 223.007 207.41C223.499 206.138 223.836 204.684 223.936 202.556C224.032 200.423 224.057 199.743 224.057 194.312C224.057 188.88 224.032 188.199 223.936 186.065C223.836 183.936 223.499 182.483 223.007 181.211C222.495 179.896 221.811 178.78 220.699 177.669C219.586 176.556 218.474 175.873 217.157 175.362C215.882 174.868 214.428 174.531 212.299 174.433C210.166 174.336 209.487 174.312 204.054 174.312H204.06ZM202.263 177.919C202.795 177.918 203.389 177.919 204.057 177.919C209.397 177.919 210.03 177.938 212.138 178.034C214.088 178.123 215.146 178.449 215.851 178.722C216.785 179.085 217.45 179.518 218.15 180.218C218.85 180.918 219.283 181.585 219.646 182.518C219.92 183.222 220.246 184.281 220.335 186.23C220.431 188.339 220.452 188.972 220.452 194.309C220.452 199.647 220.431 200.28 220.335 202.388C220.246 204.338 219.92 205.396 219.646 206.1C219.284 207.034 218.85 207.698 218.15 208.398C217.45 209.098 216.785 209.531 215.851 209.894C215.147 210.169 214.088 210.494 212.138 210.583C210.03 210.678 209.397 210.699 204.057 210.699C198.717 210.699 198.084 210.678 195.976 210.583C194.026 210.493 192.967 210.167 192.262 209.893C191.329 209.531 190.662 209.097 189.962 208.397C189.262 207.697 188.829 207.032 188.466 206.099C188.192 205.395 187.866 204.336 187.777 202.386C187.681 200.278 187.662 199.645 187.662 194.304C187.662 188.964 187.681 188.334 187.777 186.225C187.866 184.276 188.192 183.217 188.466 182.512C188.828 181.579 189.262 180.912 189.962 180.212C190.662 179.512 191.329 179.079 192.262 178.716C192.967 178.441 194.026 178.116 195.976 178.026C197.821 177.943 198.536 177.918 202.263 177.914V177.919ZM214.74 181.236C213.415 181.236 212.34 182.31 212.34 183.636C212.34 184.96 213.415 186.035 214.74 186.035C216.064 186.035 217.139 184.96 217.139 183.636C217.139 182.311 216.064 181.236 214.74 181.236V181.236ZM204.063 184.044C198.391 184.044 193.793 188.643 193.793 194.314C193.793 199.986 198.391 204.583 204.063 204.583C209.735 204.583 214.332 199.986 214.332 194.314C214.332 188.643 209.735 184.044 204.063 184.044H204.063ZM204.059 187.644C207.74 187.644 210.725 190.628 210.725 194.31C210.725 197.992 207.74 200.977 204.059 200.977C200.377 200.977 197.393 197.992 197.393 194.31C197.393 190.628 200.377 187.644 204.059 187.644Z" fill="white"/>
<path opacity="0.9" fill-rule="evenodd" clip-rule="evenodd" d="M207.508 62.8206L207.6 64.3227L206.055 64.1388C200.428 63.4337 195.512 61.0425 191.339 57.0266L189.298 55.034L188.773 56.5054C187.66 59.7856 188.371 63.2497 190.69 65.5796C191.926 66.8671 191.648 67.0511 189.515 66.2847C188.773 66.0394 188.124 65.8555 188.062 65.9475C187.845 66.1621 188.587 68.9517 189.175 70.0554C189.979 71.5882 191.617 73.0903 193.41 73.9793L194.925 74.6844L193.132 74.7151C191.401 74.7151 191.339 74.7457 191.524 75.3895C192.143 77.3821 194.585 79.4974 197.305 80.4171L199.222 81.0608L197.553 82.0418C195.08 83.452 192.174 84.2491 189.267 84.3104C187.876 84.341 186.732 84.4636 186.732 84.5556C186.732 84.8622 190.504 86.5789 192.699 87.2533C199.284 89.246 207.106 88.3876 212.98 84.9848C217.153 82.563 221.327 77.75 223.274 73.0903C224.326 70.6072 225.377 66.0701 225.377 63.8935C225.377 62.4834 225.469 62.2994 227.201 60.6133C228.221 59.6324 229.179 58.5594 229.365 58.2528C229.674 57.6704 229.643 57.6704 228.066 58.1915C225.439 59.1112 225.068 58.9886 226.366 57.6091C227.324 56.6281 228.468 54.85 228.468 54.3289C228.468 54.2369 228.005 54.3902 227.479 54.6661C226.922 54.9727 225.686 55.4325 224.758 55.7084L223.089 56.2295L221.574 55.2179C220.739 54.6661 219.565 54.053 218.946 53.869C217.37 53.4399 214.958 53.5012 213.536 53.9917C209.672 55.3712 207.229 58.9273 207.508 62.8206Z" fill="white"/>
<g opacity="0.9">
<path fill-rule="evenodd" clip-rule="evenodd" d="M65.4795 213.522V194.309H71.3419L72.1188 187.688H65.4795L65.4894 184.374C65.4894 182.648 65.6708 181.722 68.4123 181.722H72.0773V175.101H66.214C59.1713 175.101 56.6925 178.312 56.6925 183.714V187.689H52.3025V194.31H56.6925V213.522H65.4795Z" fill="white"/>
</g>
<g style="mix-blend-mode:multiply">
<path d="M270.286 138.076C270.286 212.857 209.814 273.478 135.218 273.478C60.6216 273.478 0.149414 212.857 0.149414 138.076C0.149414 63.2959 60.6216 2.67432 135.218 2.67432C209.814 2.67432 270.286 63.2959 270.286 138.076Z" fill="url(#paint0_radial)"/>
</g>
<circle cx="132.037" cy="132.524" r="53.2318" fill="#00CC9E" stroke="white" stroke-width="6"/>
<defs>
<radialGradient id="paint0_radial" cx="0" cy="0" r="1" gradientUnits="userSpaceOnUse" gradientTransform="translate(135.218 138.076) rotate(90) scale(180.044 179.601)">
<stop offset="0.661523" stop-color="white"/>
<stop offset="0.856086" stop-color="#424479"/>
</radialGradient>
</defs>
</svg>
