<svg width="662" height="129" viewBox="0 0 662 129" fill="none" xmlns="http://www.w3.org/2000/svg">
<rect x="40.2432" y="12.5322" width="620.89" height="115.583" rx="57.7917" fill="#F52079"/>
<path d="M16.6748 91.0078C16.6748 87.638 19.4065 84.9062 22.7763 84.9062H193.572C196.942 84.9062 199.674 87.638 199.674 91.0078V92.2816C199.674 94.9479 197.512 97.1093 194.846 97.1093H194.381C191.972 97.1093 190.018 99.0627 190.018 101.472C190.018 103.882 188.065 105.835 185.655 105.835H167.162C164.191 105.835 161.782 108.244 161.782 111.215C161.782 114.186 159.374 116.594 156.403 116.594H59.0216C56.0506 116.594 53.6421 114.186 53.6421 111.215C53.6421 108.244 51.2336 105.835 48.2626 105.835H31.1598C28.7502 105.835 26.7969 103.882 26.7969 101.472C26.7969 99.0627 24.8435 97.1093 22.4339 97.1093H21.7358C18.9407 97.1093 16.6748 94.8434 16.6748 92.0483V91.0078Z" fill="url(#paint0_linear)"/>
<path d="M7.03148 50.4424C5.79591 38.2095 12.2543 30.6638 21.402 26.5853C36.0485 20.0563 42.1754 23.0389 65.0911 14.1868C93.1723 3.33938 104.197 40.4436 90.2563 54.4335C76.3161 68.4234 56.2888 59.3063 41.5107 65.4658C26.7327 71.6252 8.57594 65.7337 7.03148 50.4424Z" fill="#C5C7FF"/>
<rect x="12.9209" y="44.291" width="74.0238" height="17.0613" rx="8.53065" transform="rotate(-13.3786 12.9209 44.291)" fill="white"/>
<circle cx="23.3447" cy="50.6347" r="6.01663" transform="rotate(-21.1006 23.3447 50.6347)" fill="#FFA318"/>
<path d="M23.2971 47.2752C22.2734 47.6702 21.7651 48.8173 22.1601 49.841C22.2442 50.0588 22.3718 50.2598 22.5212 50.4524L21.1167 53.622L21.5369 54.711L22.626 54.2908L22.3738 53.6373L23.0273 53.3852L22.7751 52.7318L23.4286 52.4796L24.0305 51.1212C24.2517 51.1109 24.4864 51.0704 24.726 50.978C25.7497 50.5829 26.258 49.4359 25.8629 48.4122C25.4679 47.3884 24.3208 46.8801 23.2971 47.2752ZM24.5981 49.0254C24.2278 49.1682 23.8354 48.9944 23.6925 48.6241C23.5496 48.2538 23.7235 47.8614 24.0938 47.7185C24.4641 47.5756 24.8565 47.7495 24.9994 48.1198C25.1423 48.4901 24.9684 48.8825 24.5981 49.0254Z" fill="white"/>
<circle cx="36.0008" cy="47.4293" r="1.42639" transform="rotate(-10.277 36.0008 47.4293)" fill="#1F2337"/>
<circle cx="41.9012" cy="46.0514" r="1.42639" transform="rotate(-10.277 41.9012 46.0514)" fill="#1F2337"/>
<circle cx="47.7996" cy="44.6734" r="1.42639" transform="rotate(-10.277 47.7996 44.6734)" fill="#1F2337"/>
<circle cx="53.7029" cy="43.2945" r="1.42639" transform="rotate(-10.277 53.7029 43.2945)" fill="#1F2337"/>
<circle cx="59.6013" cy="41.9176" r="1.42639" transform="rotate(-10.277 59.6013 41.9176)" fill="#1F2337"/>
<path d="M70.6012 33.8015L71.4982 33.6518L71.413 32.7464L71.2917 31.4579C72.7087 31.0138 73.8492 30.1834 74.6583 28.9544C75.6439 27.4801 75.9315 25.7367 75.6097 23.8086C75.2303 21.5352 74.3013 19.7552 72.7012 18.6649C71.1532 17.5785 69.3071 17.2516 67.2533 17.5943C65.685 17.856 64.3519 18.4214 63.3179 19.341C62.3095 20.2153 61.6194 21.2959 61.2677 22.5661L61.2676 22.5661L61.2642 22.5791C60.9388 23.8204 60.9279 25.1207 61.2093 26.4648L61.4014 27.3826L62.3262 27.2282L63.2774 27.0695L63.3798 27.6038L64.575 33.8406L64.7545 34.7772L65.6952 34.6202L70.6012 33.8015ZM64.807 39.3946C64.9985 40.5424 65.5385 41.4952 66.446 42.1738C67.3771 42.8702 68.4836 43.0806 69.6725 42.8822C70.8502 42.6857 71.8173 42.1256 72.4691 41.1687C73.107 40.2321 73.3084 39.1557 73.1168 38.0079C72.9234 36.8491 72.3873 35.8856 71.4791 35.2038C70.5516 34.4898 69.4514 34.2593 68.2665 34.457C67.0705 34.6566 66.0936 35.23 65.4454 36.2107C64.8078 37.1504 64.6136 38.2359 64.807 39.3946Z" fill="#F52079" stroke="white" stroke-width="1.95373"/>
<path d="M60.5061 61.7041C63.0308 49.7972 80.6557 49.4317 89.1526 50.7373C90.9006 68.7019 72.5636 82.5932 63.1766 87.2932C61.2345 83.7247 57.9814 73.6109 60.5061 61.7041Z" fill="#202438"/>
<path fill-rule="evenodd" clip-rule="evenodd" d="M85.0154 53.2928C79.8872 54.8499 76.3659 55.9191 75.6859 61.0196C74.0838 73.0359 73.9746 80.341 75.2248 84.9067H108.081C108.278 84.4795 108.509 83.9892 108.765 83.4447C112.522 75.4723 121.753 55.8842 106.651 52.5927C95.9345 50.2571 95.0975 50.1907 94.3884 50.1345C94.2061 50.12 94.0323 50.1062 93.7011 50.0547C90.51 51.6245 87.5642 52.5189 85.0154 53.2928Z" fill="url(#paint1_linear)"/>
<path d="M89.2987 48.4968C87.8582 42.4796 93.1371 36.9947 99.2049 38.204L103.182 38.9965C107.788 39.9144 110.771 44.3998 109.836 49.0021L108.248 56.8257C107.396 61.0219 103.55 63.9251 99.2814 63.5946L98.9491 63.5689C95.2796 63.2848 92.2121 60.6666 91.3552 57.0872L89.2987 48.4968Z" fill="url(#paint2_linear)"/>
<path d="M108.12 42.4932C108.589 41.2819 112.486 43.0763 112.486 45.8263C111.506 47.0195 112.182 45.1262 111.179 44.3587C109.539 43.1038 107.722 43.5228 108.12 42.4932Z" fill="#FFC9C9"/>
<path d="M95.504 55.0592C94.7885 55.6507 93.5633 57.1463 94.3873 58.397C95.4174 59.9604 96.7785 57.7012 95.504 55.0592Z" fill="#F6F6FF"/>
<path d="M94.5983 67.7794C94.2504 68.2681 93.7355 69.4064 94.4589 70.0495C95.3631 70.8533 95.8353 69.2157 94.5983 67.7794Z" fill="#F6F6FF"/>
<path d="M103.832 74.7632C104.173 75.2302 104.682 76.3213 103.993 76.9495C103.131 77.7347 102.656 76.1618 103.832 74.7632Z" fill="#F6F6FF"/>
<path d="M113.299 55.6947C115.122 54.9197 114.042 49.5784 112.39 46.4821C112.39 45.8172 111.934 45.707 110.111 50.5851C107.832 56.6827 111.019 56.6635 113.299 55.6947Z" fill="#FFC9C9"/>
<path d="M87.9942 40.176C89.5051 34.918 95.6746 33.8554 98.5705 33.9813C112.12 34.5703 111.413 39.3652 111.413 41.3194C111.413 46.7134 113.758 48.4187 112.39 51.3497C111.085 54.1476 111.061 57.6522 111.413 58.1559C109.298 57.4911 109.424 56.3176 109.751 55.814C108.422 56.7205 109.197 58.307 109.751 58.9869C108.265 58.9617 104.629 58.4883 101.97 56.796C99.3107 55.1038 99.0992 51.7093 99.3259 50.2236C98.1776 50.9488 98.8474 53.4972 99.3259 54.6808C95.2766 53.5325 94.7679 49.317 95.0198 47.3528L90.3015 53.366L88.838 50.2236C90.5 50.702 86.4834 45.434 87.9942 40.176Z" fill="#1F2337"/>
<path d="M86.8041 43.6781L86.2426 55.0522C86.1304 56.5089 86.299 59.4823 87.8711 59.7218C89.8362 60.0211 91.5943 59.0823 91.5943 54.3711C91.5943 51.7568 91.7266 48.5569 95.5529 48.2466C96.9834 48.1307 96.5686 47.0122 95.0015 46.8505C92.1198 46.5532 90.5205 49.2689 90.1722 47.7187C91.349 47.0535 92.0941 46.1217 92.9803 45.7837C95.7308 44.7348 96.449 46.0113 96.8874 45.0806C97.4543 43.8768 94.5844 43.7204 92.9803 44.2518C91.0676 44.8854 89.1049 46.426 89.5549 45.9198C90.3822 44.9891 90.5837 43.6781 92.6682 43.0966C93.431 43.0966 95.4394 43.0889 95.3098 42.3162C95.2047 41.6902 94.7891 41.745 93.2459 41.64C89.5549 41.3888 88.0619 45.4268 88.3203 43.6781C88.7253 40.9368 91.9135 40.3855 92.9803 40.2059C93.8337 40.0623 93.7476 39.6272 93.5979 39.4276C89.1512 38.5177 87.2159 41.8822 86.8041 43.6781Z" fill="#FFC9C9"/>
<path d="M108.414 44.5105C108.866 43.3581 112.882 44.5925 112.891 47.2126C112.239 48.0595 112.637 47.1727 111.658 46.4381C110.058 45.2368 108.03 45.4902 108.414 44.5105Z" fill="#FFC9C9"/>
<path d="M110.106 39.0244C110.801 38.4964 112.766 40.7129 111.81 42.2934C111.107 42.5641 111.671 42.1761 111.352 41.3748C110.829 40.0645 109.516 39.4732 110.106 39.0244Z" fill="#FFC9C9"/>
<path d="M108.96 40.5774C109.772 39.6434 113.142 42.1536 112.271 44.6248C111.373 45.204 112.045 44.502 111.369 43.4815C110.265 41.813 108.27 41.3714 108.96 40.5774Z" fill="#FFC9C9"/>
<path d="M77.3431 57.0811C79.1323 56.1017 82.1082 60.4552 83.4696 62.3053C78.2186 73.5149 67.0165 94.8403 64.2159 90.4653C60.7152 84.9965 75.1067 58.3055 77.3431 57.0811Z" fill="url(#paint3_linear)"/>
<path d="M72.2235 91.9141C49.4403 95.3688 78.8547 68.0012 86.4347 57.9521C86.4347 57.9521 86.5793 58.8746 87.5963 59.4758C88.6133 60.077 89.8281 59.4758 89.8281 59.4758C86.4334 71.792 79.0039 90.8859 72.2235 91.9141Z" fill="#4048FF"/>
<path d="M113.225 70.8002L112.342 60.1865L113.997 59.3779C119.147 69.6883 128.168 90.026 123.047 88.8939C117.926 87.7618 114.365 76.3597 113.225 70.8002Z" fill="#161CA7"/>
<path d="M124.101 89.2419C141.812 92.7516 120.167 63.8153 114.275 53.6064C114.275 53.6064 113.606 54.9488 113.006 55.431C112.407 55.9131 111.203 56.0757 111.203 56.0757C113.842 68.5878 118.83 88.1974 124.101 89.2419Z" fill="#4048FF"/>
<g style="mix-blend-mode:multiply">
<path d="M102.333 59.6428C102.003 58.3101 102.121 57.5099 102.525 57.1055L104.015 57.9427V60.1469L100.938 61.1388L102.333 59.6428Z" fill="url(#paint4_linear)"/>
</g>
<path d="M132.672 97.4977C132.106 97.2296 132.206 96.3955 132.819 96.2691L152.319 92.2493C152.437 92.2249 152.56 92.2339 152.674 92.2755L162.563 95.8875C163.178 96.112 163.116 97.0006 162.477 97.1382L141.676 101.613C141.535 101.643 141.389 101.626 141.259 101.565L132.672 97.4977Z" fill="#616186"/>
<path d="M141.674 88.8183C141.674 87.7763 142.379 86.8665 143.388 86.6068L151.068 84.6305C152.514 84.2587 153.921 85.3499 153.921 86.842V94.2252C153.921 95.3319 153.128 96.2793 152.038 96.4734L144.358 97.8415C142.958 98.0908 141.674 97.0148 141.674 95.5934V88.8183Z" fill="#75758F"/>
<path d="M92.2168 59.1445L92.6292 59.838C95.553 64.2759 101.177 63.8284 102.287 63.1992L98.0954 69.0303L92.6292 59.838C92.4848 59.6189 92.3471 59.388 92.2168 59.1445Z" fill="#F79797"/>
<path d="M98.9226 99.6006L90.1465 95.157C89.5748 94.8675 89.7194 94.0134 90.3546 93.9282L122.964 89.556C123.07 89.5417 123.179 89.5541 123.28 89.5921L132.497 93.062C133.123 93.2975 133.031 94.2099 132.371 94.3166L99.3215 99.6626C99.1853 99.6846 99.0456 99.6629 98.9226 99.6006Z" fill="url(#paint5_linear)"/>
<path d="M101.459 93.3436L114.035 91.416" stroke="#9898B3" stroke-width="0.652436" stroke-linecap="round"/>
<path d="M94.9492 95.6819L97.2192 95.3252" stroke="#9898B3" stroke-width="0.652436" stroke-linecap="round"/>
<path d="M98.5996 95.0716L100.87 94.7148" stroke="#9898B3" stroke-width="0.652436" stroke-linecap="round"/>
<path d="M102.252 94.4603L104.522 94.1035" stroke="#9898B3" stroke-width="0.652436" stroke-linecap="round"/>
<path d="M105.901 93.8489L108.171 93.4922" stroke="#9898B3" stroke-width="0.652436" stroke-linecap="round"/>
<path d="M109.556 93.2376L111.826 92.8809" stroke="#9898B3" stroke-width="0.652436" stroke-linecap="round"/>
<path d="M113.206 92.6272L115.476 92.2705" stroke="#9898B3" stroke-width="0.652436" stroke-linecap="round"/>
<path d="M116.854 92.0169L119.124 91.6602" stroke="#9898B3" stroke-width="0.652436" stroke-linecap="round"/>
<path d="M120.507 91.4046L122.777 91.0479" stroke="#9898B3" stroke-width="0.652436" stroke-linecap="round"/>
<path d="M97.2207 96.2923L99.4907 95.9355" stroke="#9898B3" stroke-width="0.652436" stroke-linecap="round"/>
<path d="M100.871 95.6819L103.141 95.3252" stroke="#9898B3" stroke-width="0.652436" stroke-linecap="round"/>
<path d="M104.523 95.0706L106.793 94.7139" stroke="#9898B3" stroke-width="0.652436" stroke-linecap="round"/>
<path d="M108.173 94.4593L110.443 94.1025" stroke="#9898B3" stroke-width="0.652436" stroke-linecap="round"/>
<path d="M111.827 93.8479L114.097 93.4912" stroke="#9898B3" stroke-width="0.652436" stroke-linecap="round"/>
<path d="M115.478 93.2376L117.748 92.8809" stroke="#9898B3" stroke-width="0.652436" stroke-linecap="round"/>
<path d="M119.126 92.6272L121.396 92.2705" stroke="#9898B3" stroke-width="0.652436" stroke-linecap="round"/>
<path d="M122.778 92.0149L125.048 91.6582" stroke="#9898B3" stroke-width="0.652436" stroke-linecap="round"/>
<path d="M97.6211 97.387L99.8911 97.0303" stroke="#9898B3" stroke-width="0.652436" stroke-linecap="round"/>
<path d="M101.271 96.7767L103.541 96.4199" stroke="#9898B3" stroke-width="0.652436" stroke-linecap="round"/>
<path d="M104.924 96.1653L107.194 95.8086" stroke="#9898B3" stroke-width="0.652436" stroke-linecap="round"/>
<path d="M108.573 95.554L110.843 95.1973" stroke="#9898B3" stroke-width="0.652436" stroke-linecap="round"/>
<path d="M112.228 94.9427L114.498 94.5859" stroke="#9898B3" stroke-width="0.652436" stroke-linecap="round"/>
<path d="M115.878 94.3323L118.148 93.9756" stroke="#9898B3" stroke-width="0.652436" stroke-linecap="round"/>
<path d="M119.526 93.722L121.796 93.3652" stroke="#9898B3" stroke-width="0.652436" stroke-linecap="round"/>
<path d="M123.179 93.1097L125.449 92.7529" stroke="#9898B3" stroke-width="0.652436" stroke-linecap="round"/>
<path d="M101.104 97.9769L103.373 97.6201" stroke="#9898B3" stroke-width="0.652436" stroke-linecap="round"/>
<path d="M104.754 97.3665L107.024 97.0098" stroke="#9898B3" stroke-width="0.652436" stroke-linecap="round"/>
<path d="M108.406 96.7552L110.676 96.3984" stroke="#9898B3" stroke-width="0.652436" stroke-linecap="round"/>
<path d="M112.056 96.1438L114.326 95.7871" stroke="#9898B3" stroke-width="0.652436" stroke-linecap="round"/>
<path d="M115.71 95.5325L117.98 95.1758" stroke="#9898B3" stroke-width="0.652436" stroke-linecap="round"/>
<path d="M119.36 94.9212L121.63 94.5645" stroke="#9898B3" stroke-width="0.652436" stroke-linecap="round"/>
<path d="M123.009 94.3118L125.279 93.9551" stroke="#9898B3" stroke-width="0.652436" stroke-linecap="round"/>
<path d="M126.661 93.6995L128.931 93.3428" stroke="#9898B3" stroke-width="0.652436" stroke-linecap="round"/>
<path d="M123.217 55.8773C123.217 55.2051 123.727 54.6429 124.397 54.5785L170.903 50.099C171.685 50.0237 172.356 50.652 172.333 51.4376L171.324 84.5932C171.305 85.2164 170.848 85.7391 170.232 85.8409L124.735 93.3679C123.94 93.4994 123.217 92.8862 123.217 92.0805V55.8773Z" fill="#75758F"/>
<path d="M124.498 57.6862V90.6764C124.498 91.4811 125.219 92.094 126.013 91.9642L170.446 84.701C171.062 84.6004 171.52 84.0776 171.539 83.4537L172.477 53.243C172.501 52.4558 171.828 51.8265 171.044 51.9039L125.675 56.3877C125.007 56.4537 124.498 57.0153 124.498 57.6862Z" fill="url(#paint6_linear)"/>
<path d="M145.512 67.2051L142.411 80.7602L147.132 68.8981C147.297 68.4826 147.664 68.1807 148.103 68.0981L154.302 66.9337C154.976 66.8071 155.633 67.2239 155.805 67.8877L158.525 78.3478L156.747 65.9378C156.644 65.217 155.971 64.7202 155.251 64.8341L146.58 66.2073C146.054 66.2907 145.631 66.6857 145.512 67.2051Z" fill="#75758F"/>
<path fill-rule="evenodd" clip-rule="evenodd" d="M109.519 87.5524C109.519 88.2285 107.713 88.7766 105.486 88.7766C105.414 88.7766 105.342 88.776 105.271 88.7749C105.271 88.7755 105.271 88.7761 105.271 88.7768C105.271 89.0673 104.495 89.3027 103.538 89.3027C102.581 89.3027 101.805 89.0673 101.805 88.7768C101.805 88.6093 102.063 88.46 102.465 88.3637C101.835 88.1477 101.452 87.8636 101.452 87.5524C101.452 86.8762 103.258 86.3281 105.486 86.3281C107.713 86.3281 109.519 86.8762 109.519 87.5524ZM92.1302 90.3253C95.5461 90.3253 98.3153 89.4848 98.3153 88.448C98.3153 87.4112 95.5461 86.5707 92.1302 86.5707C88.7144 86.5707 85.9452 87.4112 85.9452 88.448C85.9452 88.5669 85.9817 88.6833 86.0513 88.7961C84.1708 88.9 82.7451 89.3997 82.7451 90.0004C82.7451 90.6766 84.551 91.2247 86.7786 91.2247C88.6946 91.2247 90.2985 90.8192 90.7098 90.2755C91.1659 90.3081 91.6414 90.3253 92.1302 90.3253Z" fill="url(#paint7_linear)"/>
<path d="M93.1309 87.066C92.9 86.3051 92.3158 84.9625 91.8266 85.68C91.3374 86.3975 92.4923 86.9029 93.1309 87.066Z" fill="#F6F6FF"/>
<path d="M92.9672 85.358C93.1717 84.9755 93.4641 84.2325 92.9988 84.3205C92.5334 84.4085 92.7838 85.0488 92.9672 85.358Z" fill="#F6F6FF"/>
<path d="M93.4239 86.0891C94.2953 85.8376 95.8355 85.1922 95.0248 84.6231C94.2142 84.0541 93.6198 85.3633 93.4239 86.0891Z" fill="#F6F6FF"/>
<path d="M194.455 29.4052C189.438 20.8999 180.14 16.1297 172.633 14.8761C153.87 12.4571 140.255 33.3994 152.259 48.1953C161.867 60.0376 151.556 42.2554 176.024 52.4247C192.754 59.3781 201.946 42.1057 194.455 29.4052Z" fill="#F52079" stroke="#F6F6FF" stroke-width="0.787147"/>
<path d="M172.132 28.5776C172.617 27.1401 174.086 26.4111 175.523 26.8952C176.961 27.3793 177.69 28.8487 177.206 30.2862L176.636 31.9773L178.327 32.5468L178.897 30.8557C179.694 28.4882 178.461 26.0015 176.093 25.2041C173.725 24.4068 171.239 25.6405 170.441 28.008L169.872 29.6991L171.563 30.2686L172.132 28.5776Z" fill="#F6F6FF"/>
<path d="M178.331 32.5467L169.876 29.699C168.438 29.2149 166.969 29.9439 166.485 31.3814L164.491 37.3002C164.007 38.7376 164.736 40.2071 166.174 40.6912L174.629 43.5388C176.066 44.0229 177.536 43.2939 178.02 41.8565L180.013 35.9377C180.497 34.5002 179.768 33.0308 178.331 32.5467ZM173.069 36.9883L172.671 38.172C172.5 38.6794 172.048 38.9037 171.54 38.7328C171.033 38.5619 170.809 38.1098 170.98 37.6025L171.378 36.4187C171.21 36.0796 171.155 35.6845 171.269 35.3462C171.497 34.6698 172.288 34.2772 172.964 34.5051C173.641 34.7329 174.033 35.5241 173.805 36.2005C173.691 36.5388 173.408 36.82 173.069 36.9883Z" fill="#F6F6FF"/>
<path d="M161.1 28.1391L160.299 34.9012L157.579 34.7295L157.635 27.9204L161.1 28.1391ZM158.678 38.9525C158.124 38.9176 157.69 38.7416 157.375 38.4247C157.059 38.1078 156.916 37.725 156.944 37.2764C156.973 36.8183 157.164 36.4519 157.516 36.1771C157.87 35.8928 158.323 35.7682 158.877 35.8031C159.421 35.8375 159.85 36.0179 160.165 36.3444C160.48 36.6613 160.623 37.0488 160.595 37.5069C160.566 37.9555 160.376 38.3171 160.023 38.5919C159.67 38.8667 159.222 38.9869 158.678 38.9525Z" fill="#F6F6FF"/>
<path d="M189.695 39.4756L184.941 44.351L182.889 42.5581L187.081 37.192L189.695 39.4756ZM181.188 46.5767C180.77 46.2118 180.533 45.8077 180.476 45.3642C180.419 44.9208 180.538 44.5298 180.834 44.1913C181.136 43.8456 181.51 43.6712 181.957 43.6681C182.411 43.6578 182.846 43.8351 183.264 44.2C183.674 44.5585 183.905 44.9632 183.956 45.4138C184.013 45.8573 183.89 46.2518 183.588 46.5975C183.293 46.936 182.921 47.1068 182.474 47.1099C182.027 47.113 181.598 46.9353 181.188 46.5767Z" fill="#F6F6FF"/>
<defs>
<linearGradient id="paint0_linear" x1="108.174" y1="79.5994" x2="108.174" y2="168.873" gradientUnits="userSpaceOnUse">
<stop offset="0.09375" stop-color="#1F2337"/>
<stop offset="1" stop-color="#75758F"/>
</linearGradient>
<linearGradient id="paint1_linear" x1="94.2123" y1="49.5238" x2="94.2122" y2="95.9977" gradientUnits="userSpaceOnUse">
<stop stop-color="#4048FF"/>
<stop offset="1" stop-color="#00057A"/>
</linearGradient>
<linearGradient id="paint2_linear" x1="98.8724" y1="56.1353" x2="80.6461" y2="56.5022" gradientUnits="userSpaceOnUse">
<stop stop-color="#FFC9C9"/>
<stop offset="1" stop-color="#E39F9F"/>
</linearGradient>
<linearGradient id="paint3_linear" x1="73.5698" y1="56.9395" x2="73.5698" y2="91.0482" gradientUnits="userSpaceOnUse">
<stop stop-color="#4048FF"/>
<stop offset="1" stop-color="#0009DB"/>
</linearGradient>
<linearGradient id="paint4_linear" x1="101.598" y1="59.7061" x2="103.472" y2="60.1469" gradientUnits="userSpaceOnUse">
<stop stop-color="#F7BCBC"/>
<stop offset="1" stop-color="#F7BCBC" stop-opacity="0"/>
</linearGradient>
<linearGradient id="paint5_linear" x1="111.531" y1="89.5342" x2="119.047" y2="100.996" gradientUnits="userSpaceOnUse">
<stop stop-color="#75758F"/>
<stop offset="1" stop-color="#575777"/>
</linearGradient>
<linearGradient id="paint6_linear" x1="148.511" y1="51.7578" x2="148.511" y2="89.4069" gradientUnits="userSpaceOnUse">
<stop stop-color="#75758F"/>
<stop offset="1" stop-color="#47526A"/>
</linearGradient>
<linearGradient id="paint7_linear" x1="96.1322" y1="86.3281" x2="96.1322" y2="97.2486" gradientUnits="userSpaceOnUse">
<stop stop-color="white"/>
<stop offset="1" stop-color="#4048FF"/>
</linearGradient>
</defs>
</svg>
