<svg width="556" height="559" viewBox="0 0 556 559" fill="none" xmlns="http://www.w3.org/2000/svg">
<path d="M344.394 15.329C341.97 16.3185 337.124 18.3645 329.86 21.4672C328.682 21.9253 328.062 22.3772 328.006 22.817C327.913 23.559 328.863 23.8522 330.156 24.2523L330.701 24.4202C331.972 24.8264 333.685 25.2997 334.573 25.318C335.382 25.3364 336.283 25.0127 337.276 24.3408C344.064 19.8487 347.568 17.5797 347.786 17.5308C347.942 17.4942 348.16 17.4514 348.303 17.5797C348.449 17.7049 348.434 17.9461 348.418 18.0103C348.325 18.4042 344.596 21.8001 342.668 23.559C342.067 24.1087 341.64 24.4966 341.553 24.5851C341.361 24.7776 341.166 24.9669 340.967 25.1531C339.784 26.2708 338.899 27.1076 341.014 28.4757C342.033 29.1353 342.849 29.6758 343.662 30.2194C344.546 30.8119 345.431 31.4012 346.577 32.1403C346.867 32.3235 347.147 32.522 347.418 32.7113C348.449 33.432 349.381 34.0794 350.524 33.9756C351.19 33.9145 351.879 33.3038 352.228 31.4715C353.053 27.1442 354.676 17.7721 355.05 13.909C355.073 13.5879 355.059 13.2652 355.009 12.947C354.98 12.6903 354.853 12.4537 354.654 12.2844C354.371 12.0926 354.033 11.9932 353.689 12.0004C352.754 12.0156 351.312 12.5073 344.394 15.329Z" fill="white"/>
<path d="M308.571 69.1514L308.571 69.1512C307.333 69.4375 306.401 69.7557 305.758 70.0963C305.101 70.4437 304.823 70.773 304.748 71.0415C304.673 71.3117 304.701 71.5368 304.807 71.7515C304.92 71.9798 305.133 72.2184 305.465 72.4748C306.137 72.994 307.165 73.4905 308.423 74.0951L308.571 69.1514ZM308.571 69.1514L308.584 69.1479M308.571 69.1514L308.584 69.1479M345.7 65.6498C345.607 65.6575 345.499 65.6941 345.426 65.7196C345.332 65.7526 345.211 65.7989 345.066 65.8572C344.776 65.9742 344.374 66.1459 343.861 66.3713C342.835 66.8225 341.354 67.494 339.421 68.3853C335.555 70.168 329.87 72.8334 322.369 76.3818L322.369 76.3818L322.365 76.3836C320.208 77.4302 318.392 77.7845 316.885 77.5279L316.885 77.5277C316.044 77.3861 314.809 76.9606 313.457 76.4075C312.114 75.8581 310.687 75.1959 309.474 74.5989L309.47 74.597L308.424 74.0954L308.233 74.4706L308.241 74.4745L309.288 74.9764C311.726 76.1759 315.033 77.6426 316.815 77.9426C318.44 78.2195 320.348 77.8298 322.549 76.7621C337.551 69.6656 345.281 66.1036 345.735 66.0691C346.059 66.0409 346.511 66.0188 346.761 66.3212M345.7 65.6498C345.701 65.6497 345.702 65.6497 345.703 65.6496L345.735 66.0689L345.698 65.6499C345.699 65.6499 345.699 65.6499 345.7 65.6498ZM345.7 65.6498C345.863 65.6357 346.101 65.6183 346.34 65.6555C346.583 65.6932 346.869 65.7938 347.082 66.0493M347.082 66.0493C347.081 66.0481 347.08 66.0469 347.079 66.0458L346.761 66.3212M347.082 66.0493C347.083 66.0505 347.084 66.0518 347.085 66.053L346.761 66.3212M347.082 66.0493C347.301 66.3046 347.349 66.6152 347.349 66.839C347.349 67.0632 347.302 67.2688 347.255 67.3842L331.085 78.5235M346.761 66.3212C347.018 66.6183 346.915 67.1028 346.865 67.2282C346.564 67.9857 338.335 73.5795 333.869 76.6151L333.636 76.7737C333.38 76.9476 333.139 77.112 332.914 77.2654C331.926 77.9376 331.249 78.3983 331.085 78.5235M331.085 78.5235C330.641 78.8567 330.192 79.1827 329.737 79.5015M331.085 78.5235L346.366 99.7945C344.216 99.6764 342.646 98.2187 340.759 96.4273L340.759 96.4272C340.706 96.3775 340.654 96.3274 340.601 96.2771C340.162 95.8606 339.702 95.4236 339.223 95.0091C337.14 93.1745 335.537 91.72 333.934 90.2581L333.933 90.2579C332.458 88.9143 330.975 87.5756 329.119 85.9352L329.119 85.9351C327.21 84.2494 326.953 83.2158 327.223 82.4611C327.371 82.0473 327.698 81.6389 328.19 81.1999C328.68 80.7623 329.295 80.328 329.979 79.8455M329.737 79.5015L329.979 79.8453C329.979 79.8454 329.979 79.8454 329.979 79.8455M329.737 79.5015L329.978 79.846C329.979 79.8458 329.979 79.8456 329.979 79.8455M329.737 79.5015L329.979 79.8455M308.584 69.1479C324.132 65.0089 334.495 62.2971 339.665 61.0099C347.05 59.1736 351.495 58.1157 354.328 57.5472C357.168 56.9772 358.343 56.9099 359.211 57.0231L359.213 57.0233C359.814 57.0988 360.376 57.357 360.822 57.7609C361.094 58.081 361.235 58.4874 361.222 58.902L361.221 58.9106L361.221 58.9192C361.226 59.5457 361.161 60.1705 361.027 60.7823C359.127 68.4843 353.074 86.9784 350.123 95.5053L350.123 95.5055M308.584 69.1479L350.123 95.5055M350.123 95.5055C348.889 99.0727 347.428 99.8517 346.367 99.7945L350.123 95.5055ZM359.266 56.6063L359.266 56.6059L359.266 56.6063ZM333.872 77.1213L333.636 76.7742L333.872 77.1216L333.872 77.1213Z" stroke="white" stroke-width="0.84143"/>
<path d="M269.245 7.43355C273.809 9.57352 282.931 13.9835 296.6 20.6628C298.82 21.6587 299.968 22.591 300.035 23.4471C300.145 24.8918 298.292 25.3708 295.77 26.0248L294.707 26.2991C292.227 26.9669 288.89 27.7236 287.183 27.6766C285.625 27.6367 283.925 26.9266 282.079 25.5342C269.456 16.2103 262.934 11.4937 262.52 11.3789C262.224 11.2935 261.809 11.1905 261.522 11.4254C261.229 11.6541 261.236 12.1224 261.26 12.2479C261.403 13.0189 268.25 19.9369 271.79 23.52C272.894 24.6396 273.678 25.4298 273.837 25.6093C274.188 25.9995 274.546 26.3841 274.909 26.7629C277.079 29.0358 278.701 30.7373 274.508 33.1881C272.489 34.3698 270.871 35.3399 269.257 36.3163C267.502 37.3804 265.747 38.4387 263.475 39.7623C262.901 40.0899 262.344 40.448 261.805 40.7892C259.756 42.0879 257.906 43.2542 255.719 42.947C254.444 42.7668 253.178 41.5209 252.679 37.9428C251.498 29.4923 249.257 11.2052 248.9 3.69496C248.886 3.07141 248.943 2.44836 249.068 1.83723C249.149 1.3431 249.414 0.897118 249.813 0.587886C250.375 0.24306 251.034 0.0821717 251.695 0.128077C253.489 0.244501 256.214 1.33001 269.245 7.43355Z" fill="white" fill-opacity="0.3"/>
<path fill-rule="evenodd" clip-rule="evenodd" d="M513.586 290.746C530.065 344.345 563.832 406.244 504.89 453.072C446.452 499.501 351.698 479.706 269.288 484.837C185.202 490.071 121.241 519.75 72.115 478.855C22.4404 437.502 26.3023 371.048 65.3516 315.066C95.9852 271.149 155.078 243.554 216.709 218.78C282.863 192.187 355.238 157.592 418.779 172.995C484.526 188.933 498.898 242.975 513.586 290.746Z" fill="url(#paint0_linear)"/>
<path d="M121.388 323.118C117.032 327.867 118.174 335.359 123.736 338.531L134.277 344.542C135.569 345.279 136.967 345.699 138.377 345.823C144.075 356.386 158.75 370.376 171.575 363.909C183.297 357.998 175.723 347.923 169.739 339.964C169.448 339.576 169.16 339.193 168.879 338.816C173.563 342.064 176.873 339.98 176.924 336.533C176.972 333.283 169.631 329.282 161.697 326.19C160.564 325.864 159.072 325.492 157.373 325.167C157.225 323.234 156.511 321.34 155.232 319.743L148.237 311.005C144.389 306.198 137.093 305.993 132.892 310.573L121.388 323.118Z" fill="#282522"/>
<path d="M146.759 227.704H217.667C230.715 227.704 241.241 238.379 241.059 251.426L240.007 326.552C239.828 339.344 229.408 349.619 216.615 349.619H147.811C135.018 349.619 124.598 339.344 124.419 326.552L123.367 251.426C123.185 238.379 133.711 227.704 146.759 227.704Z" fill="url(#paint1_linear)" stroke="url(#paint2_linear)" stroke-width="4.09403"/>
<g filter="url(#filter0_d)">
<path d="M209.628 256.77C217.805 274.09 224.784 284.376 233.169 291.672C241.554 298.968 254.861 300.135 272.301 304.375" stroke="url(#paint3_linear)" stroke-width="24.5176" stroke-linecap="round"/>
<path d="M231.503 297.508C233.716 295.579 236.475 293.339 239.294 285.873" stroke="#C7D2D7" stroke-opacity="0.3" stroke-width="5.78888" stroke-linecap="round"/>
<path d="M223.291 285.712C225.66 285.489 228.572 285.341 232.86 281.049" stroke="#C7D2D7" stroke-opacity="0.3" stroke-width="5.78888" stroke-linecap="round"/>
<path d="M243.815 298.769C244.47 297.513 245.28 296.025 246.359 292.105" stroke="#C7D2D7" stroke-opacity="0.3" stroke-width="5.78888" stroke-linecap="round"/>
</g>
<path d="M254.629 307.656C253.334 313.259 257.513 318.576 263.226 318.595L274.055 318.63C275.381 318.635 276.652 318.347 277.802 317.823C286.869 323.523 304.414 327.939 311.533 317.281C318.039 307.538 307.729 303.042 299.584 299.49C299.187 299.317 298.795 299.146 298.411 298.977C303.476 299.441 305.131 296.368 303.656 293.668C302.265 291.123 294.806 291.242 287.285 292.327C286.262 292.572 284.939 292.939 283.477 293.433C282.512 291.997 281.126 290.84 279.431 290.161L270.158 286.449C265.057 284.407 259.3 287.454 258.051 292.857L254.629 307.656Z" fill="#282522"/>
<g filter="url(#filter1_d)">
<path d="M169.729 255.286C169.729 255.286 138.222 263.464 128.967 277.664C119.712 291.863 134.517 310.057 152.324 320.77" stroke="url(#paint4_linear)" stroke-width="24.5176" stroke-linecap="round"/>
<path d="M134.78 284.881C131.861 285.15 128.342 285.598 120.979 282.523" stroke="#C7D2D7" stroke-opacity="0.3" stroke-width="5.78888" stroke-linecap="round"/>
<path d="M137.638 277.932C135.498 277.773 132.871 277.692 128.91 273.908" stroke="#C7D2D7" stroke-opacity="0.3" stroke-width="5.78888" stroke-linecap="round"/>
<path d="M134.476 293.181C132.749 294.454 130.702 296.103 125.233 295.811" stroke="#C7D2D7" stroke-opacity="0.3" stroke-width="5.78888" stroke-linecap="round"/>
</g>
<g filter="url(#filter2_d)">
<path d="M169.122 240.559C155.17 240.559 142.896 249.887 140.377 263.61C134.698 294.546 131.2 334.987 138.652 347.458C146.834 361.149 165.156 365.312 176.839 365.911V365.94C177.64 365.978 178.517 365.996 179.456 365.989C180.395 365.996 181.271 365.978 182.072 365.94V365.911C193.755 365.312 212.078 361.149 220.26 347.458C227.712 334.987 224.213 294.546 218.535 263.61C216.016 249.887 203.742 240.559 189.79 240.559H169.122Z" fill="url(#paint5_linear)"/>
<g filter="url(#filter3_d)">
<rect width="28.5252" height="22.3724" rx="3.0647" transform="matrix(-1 0 0 1 208.373 273.67)" fill="url(#paint6_linear)"/>
<rect x="0.510784" y="-0.510784" width="29.5468" height="23.3939" rx="3.57548" transform="matrix(-1 0 0 1 209.395 273.67)" stroke="#EFF2F3" stroke-width="1.02157"/>
</g>
<path d="M197.917 282.947H197.951C197.245 281.588 195.803 280.656 194.139 280.656C193.065 280.656 192.085 281.044 191.334 281.683H191.308H189.604C190.613 280.297 192.268 279.393 194.139 279.393C196.994 279.393 199.346 281.498 199.666 284.21L196.074 284.21V285.473H199.667L199.665 285.483C199.613 285.918 199.508 286.338 199.358 286.736H196.074V289.951C195.665 290.1 195.233 290.203 194.785 290.254V286.737H193.495V290.254C193.046 290.203 192.614 290.1 192.205 289.952V286.736H188.921C188.698 286.146 188.576 285.508 188.576 284.842C188.576 284.175 188.698 283.537 188.921 282.947H189.685H197.917V282.947ZM193.494 285.473H194.784V284.21H193.494V285.473ZM189.913 285.473H192.204V284.21H189.913C189.881 284.416 189.865 284.627 189.865 284.842C189.865 285.056 189.881 285.267 189.913 285.473Z" fill="#9FF9FF"/>
<path d="M194.143 276.854C198.649 276.854 202.301 280.43 202.301 284.842C202.301 289.253 198.649 292.829 194.143 292.829C189.638 292.829 185.986 289.253 185.986 284.842C185.986 280.43 189.638 276.854 194.143 276.854ZM194.143 291.564C197.935 291.564 201.009 288.554 201.009 284.842C201.009 281.129 197.935 278.119 194.143 278.119C190.352 278.119 187.278 281.129 187.278 284.842C187.278 288.554 190.352 291.564 194.143 291.564Z" fill="#9FF9FF"/>
<g filter="url(#filter4_d)">
<circle r="4.71568" transform="matrix(-1 0 0 1 160.929 278.386)" fill="url(#paint7_radial)"/>
<circle r="5.22646" transform="matrix(-1 0 0 1 160.929 278.386)" stroke="#EFF2F3" stroke-width="1.02157"/>
</g>
<g filter="url(#filter5_d)">
<circle r="4.71568" transform="matrix(-1 0 0 1 160.929 291.327)" fill="url(#paint8_radial)"/>
<circle r="5.22646" transform="matrix(-1 0 0 1 160.929 291.327)" stroke="#EFF2F3" stroke-width="1.02157"/>
</g>
<path d="M173.618 347.438L171.445 330.551L137.671 334.897L139.844 351.784L173.618 347.438ZM142.105 412.749C142.105 422.152 149.728 429.775 159.131 429.775C168.534 429.775 176.157 422.152 176.157 412.749H142.105ZM139.844 351.784C142.073 369.107 142.105 399.089 142.105 412.749H176.157C176.157 399.918 176.189 367.418 173.618 347.438L139.844 351.784Z" fill="white"/>
<path d="M186.778 363.779L180.071 348.129L211.37 334.715L218.077 350.365L186.778 363.779ZM237.247 406.29C240.194 415.22 235.345 424.848 226.416 427.795C217.486 430.743 207.858 425.894 204.911 416.964L237.247 406.29ZM218.077 350.365C219.826 354.446 224.791 369.034 228.94 381.369C231.105 387.807 233.181 394.035 234.715 398.652C235.483 400.961 236.115 402.869 236.555 404.2C236.776 404.866 236.948 405.387 237.066 405.743C237.125 405.921 237.17 406.057 237.2 406.149C237.215 406.195 237.227 406.23 237.235 406.254C237.239 406.266 237.241 406.275 237.243 406.281C237.244 406.284 237.245 406.286 237.246 406.288C237.246 406.288 237.246 406.289 237.246 406.29C237.247 406.29 237.247 406.29 221.079 411.627C204.911 416.964 204.911 416.964 204.91 416.964C204.91 416.964 204.91 416.963 204.91 416.962C204.91 416.961 204.909 416.959 204.908 416.956C204.906 416.951 204.903 416.942 204.9 416.931C204.892 416.908 204.881 416.874 204.866 416.829C204.836 416.739 204.792 416.605 204.734 416.43C204.618 416.079 204.447 415.562 204.228 414.902C203.791 413.581 203.163 411.685 202.4 409.39C200.874 404.797 198.812 398.611 196.664 392.226C192.187 378.915 187.826 366.226 186.778 363.779L218.077 350.365Z" fill="white"/>
<path d="M144.161 351.679C155.896 360.316 186.443 372.409 214.751 351.679" stroke="#C7D2D7" stroke-opacity="0.3" stroke-width="5.78888" stroke-linecap="round"/>
<path d="M146.279 373.555C150.175 374.639 154.824 376.065 166.148 375.152" stroke="#C7D2D7" stroke-opacity="0.3" stroke-width="5.78888" stroke-linecap="round"/>
<path d="M215.835 367.209C212.286 369.148 208.082 371.591 196.845 373.271" stroke="#C7D2D7" stroke-opacity="0.3" stroke-width="5.78888" stroke-linecap="round"/>
<path d="M156.52 387.422C158.466 387.636 160.798 387.955 166.136 386.637" stroke="#C7D2D7" stroke-opacity="0.3" stroke-width="5.78888" stroke-linecap="round"/>
<path d="M215.603 379.548C213.811 380.335 211.681 381.338 206.193 381.679" stroke="#C7D2D7" stroke-opacity="0.3" stroke-width="5.78888" stroke-linecap="round"/>
</g>
<g filter="url(#filter6_d)">
<path d="M187.315 261.686C153.803 256.535 130.811 225.192 135.962 191.68C141.114 158.167 172.457 135.176 205.969 140.327C239.481 145.478 262.473 176.821 257.322 210.333C252.171 243.846 220.828 266.837 187.315 261.686Z" fill="url(#paint9_radial)"/>
<path d="M230.227 235.239C232.987 236.409 236.195 235.742 238.233 233.53C245.084 226.135 251.704 212.701 251.815 203.36C252.277 167.488 201.283 153.604 186.774 181.726C180.101 194.697 183.034 207.943 184.619 213.528C185.132 215.305 186.436 216.789 188.148 217.508L230.227 235.239Z" fill="url(#paint10_linear)"/>
<g style="mix-blend-mode:multiply">
<path d="M186.42 181.631C193.743 167.394 210.421 163.953 225.022 168.641C213.487 167.986 227.409 191.907 221.747 202.879C215.074 215.85 192.824 209.738 194.403 215.364C194.916 217.141 196.22 218.625 197.932 219.344L235.458 235.174C233.725 235.943 231.693 235.962 229.866 235.184L187.787 217.453C186.076 216.734 184.772 215.25 184.258 213.474C182.68 207.848 179.7 194.636 186.42 181.631Z" fill="url(#paint11_radial)"/>
</g>
<path d="M240.092 186.784C242.336 188.597 249.152 202.395 240.853 214.876" stroke="white" stroke-width="6.94186" stroke-linecap="round"/>
</g>
<path fill-rule="evenodd" clip-rule="evenodd" d="M230.469 397.224C223.256 399.757 213.221 403.28 202.709 402.066C200.254 401.782 198.045 404.112 198.82 406.458L210.078 440.524C210.152 440.747 210.249 440.963 210.373 441.159C210.425 442.869 210.523 444.779 210.697 446.022C210.989 448.115 213.847 452.406 220.305 452.098C228.584 451.702 231.761 450.64 233.54 450.045C234.463 449.736 235.009 449.554 235.696 449.655C247.507 451.405 260.128 447.077 261.56 441.743L261.382 438.021C260.812 426.071 251.728 427.733 242.921 429.435L238.177 398.104C237.92 396.406 236.323 395.279 234.685 395.792C233.424 396.187 232.011 396.683 230.469 397.224Z" fill="#282522"/>
<path fill-rule="evenodd" clip-rule="evenodd" d="M141.992 401.408C149.127 402.263 160.441 403.186 172.3 400.086C174.388 399.54 176.504 401.116 176.417 403.272L175.32 430.497C175.306 430.832 175.241 431.161 175.121 431.465C175.197 434.245 175.3 440.417 175.118 443.696C174.934 447.016 174.59 448.998 172.207 450.151C170.731 455.78 164.909 460.247 151.536 460.063C138.294 459.88 137.836 457.347 137.604 456.066C137.602 456.054 137.6 456.041 137.597 456.029C137.597 457.105 137.597 457.435 137.597 450.151C137.597 445.951 140.004 441.423 143.823 437.722C143.103 437.276 142.634 436.497 142.523 435.631L138.578 404.831C138.324 402.847 140.006 401.17 141.992 401.408Z" fill="#282522"/>
<path d="M164.34 447.866C157.119 451.474 141.17 449.369 139.252 447.866C138.04 444.336 143.436 437.937 147.538 436.491C153.657 434.334 162.177 435.22 164.34 437.71C165.153 438.646 171.561 444.257 164.34 447.866Z" fill="url(#paint12_linear)"/>
<g filter="url(#filter7_dii)">
<rect x="274" y="166.268" width="156.68" height="156.68" rx="78.3401" transform="rotate(-18.3274 274 166.268)" fill="#54A9EB"/>
</g>
<path d="M377.36 188.928C368.912 192.395 352.015 199.566 326.692 210.439C322.587 212.045 320.426 213.629 320.231 215.17C319.905 217.77 323.217 218.798 327.724 220.2L329.624 220.788C334.054 222.212 340.027 223.871 343.122 223.935C345.945 223.999 349.083 222.865 352.547 220.51C376.209 204.767 388.425 196.815 389.185 196.644C389.728 196.515 390.488 196.366 390.988 196.815C391.498 197.254 391.444 198.099 391.389 198.324C391.064 199.705 378.066 211.606 371.344 217.77C369.248 219.697 367.76 221.056 367.456 221.366C366.787 222.041 366.106 222.704 365.415 223.357C361.289 227.274 358.205 230.206 365.578 235.001C369.129 237.313 371.974 239.207 374.808 241.112C377.892 243.188 380.976 245.254 384.972 247.844C385.982 248.486 386.959 249.182 387.904 249.845C391.498 252.371 394.745 254.64 398.73 254.276C401.054 254.062 403.454 251.921 404.67 245.5C407.548 230.335 413.205 197.489 414.508 183.951C414.588 182.826 414.54 181.695 414.367 180.58C414.265 179.68 413.823 178.851 413.129 178.257C412.141 177.585 410.963 177.237 409.763 177.262C406.505 177.316 401.477 179.039 377.36 188.928Z" fill="white"/>
<path d="M250.249 136.799C266.833 132.067 286.257 116.486 285.62 97.2645C285.36 89.5096 281.582 82.1839 274.339 78.5133C265.187 73.866 258.935 82.2305 263.532 91.0146C271.08 105.444 293.018 111.517 307.299 107.663C315.552 105.436 322.161 99.3104 322.847 90.4143" stroke="white" stroke-width="1.04303" stroke-miterlimit="10" stroke-dasharray="2.61 2.61"/>
<defs>
<filter id="filter0_d" x="191.777" y="223.049" width="102.26" height="116.24" filterUnits="userSpaceOnUse" color-interpolation-filters="sRGB">
<feFlood flood-opacity="0" result="BackgroundImageFix"/>
<feColorMatrix in="SourceAlpha" type="matrix" values="0 0 0 0 0 0 0 0 0 0 0 0 0 0 0 0 0 0 127 0" result="hardAlpha"/>
<feOffset dy="1.36209"/>
<feGaussianBlur stdDeviation="0.681045"/>
<feComposite in2="hardAlpha" operator="out"/>
<feColorMatrix type="matrix" values="0 0 0 0 0 0 0 0 0 0 0 0 0 0 0 0 0 0 0.25 0"/>
<feBlend mode="normal" in2="BackgroundImageFix" result="effect1_dropShadow"/>
<feBlend mode="normal" in="SourceGraphic" in2="effect1_dropShadow" result="shape"/>
</filter>
<filter id="filter1_d" x="92.6379" y="227.294" width="94.0639" height="112.916" filterUnits="userSpaceOnUse" color-interpolation-filters="sRGB">
<feFlood flood-opacity="0" result="BackgroundImageFix"/>
<feColorMatrix in="SourceAlpha" type="matrix" values="0 0 0 0 0 0 0 0 0 0 0 0 0 0 0 0 0 0 127 0" result="hardAlpha"/>
<feOffset dy="1.36209"/>
<feGaussianBlur stdDeviation="0.681045"/>
<feComposite in2="hardAlpha" operator="out"/>
<feColorMatrix type="matrix" values="0 0 0 0 0 0 0 0 0 0 0 0 0 0 0 0 0 0 0.25 0"/>
<feBlend mode="normal" in2="BackgroundImageFix" result="effect1_dropShadow"/>
<feBlend mode="normal" in="SourceGraphic" in2="effect1_dropShadow" result="shape"/>
</filter>
<filter id="filter2_d" x="132.866" y="240.337" width="106.924" height="192.395" filterUnits="userSpaceOnUse" color-interpolation-filters="sRGB">
<feFlood flood-opacity="0" result="BackgroundImageFix"/>
<feColorMatrix in="SourceAlpha" type="matrix" values="0 0 0 0 0 0 0 0 0 0 0 0 0 0 0 0 0 0 127 0" result="hardAlpha"/>
<feOffset dy="1.36209"/>
<feGaussianBlur stdDeviation="0.681045"/>
<feComposite in2="hardAlpha" operator="out"/>
<feColorMatrix type="matrix" values="0 0 0 0 0 0 0 0 0 0 0 0 0 0 0 0 0 0 0.25 0"/>
<feBlend mode="normal" in2="BackgroundImageFix" result="effect1_dropShadow"/>
<feBlend mode="normal" in="SourceGraphic" in2="effect1_dropShadow" result="shape"/>
</filter>
<filter id="filter3_d" x="177.465" y="272.648" width="33.2925" height="27.1397" filterUnits="userSpaceOnUse" color-interpolation-filters="sRGB">
<feFlood flood-opacity="0" result="BackgroundImageFix"/>
<feColorMatrix in="SourceAlpha" type="matrix" values="0 0 0 0 0 0 0 0 0 0 0 0 0 0 0 0 0 0 127 0" result="hardAlpha"/>
<feOffset dy="1.36209"/>
<feGaussianBlur stdDeviation="0.681045"/>
<feComposite in2="hardAlpha" operator="out"/>
<feColorMatrix type="matrix" values="0 0 0 0 0 0 0 0 0 0 0 0 0 0 0 0 0 0 0.25 0"/>
<feBlend mode="normal" in2="BackgroundImageFix" result="effect1_dropShadow"/>
<feBlend mode="normal" in="SourceGraphic" in2="effect1_dropShadow" result="shape"/>
</filter>
<filter id="filter4_d" x="153.83" y="272.648" width="14.1987" height="14.1987" filterUnits="userSpaceOnUse" color-interpolation-filters="sRGB">
<feFlood flood-opacity="0" result="BackgroundImageFix"/>
<feColorMatrix in="SourceAlpha" type="matrix" values="0 0 0 0 0 0 0 0 0 0 0 0 0 0 0 0 0 0 127 0" result="hardAlpha"/>
<feOffset dy="1.36209"/>
<feGaussianBlur stdDeviation="0.681045"/>
<feComposite in2="hardAlpha" operator="out"/>
<feColorMatrix type="matrix" values="0 0 0 0 0 0 0 0 0 0 0 0 0 0 0 0 0 0 0.25 0"/>
<feBlend mode="normal" in2="BackgroundImageFix" result="effect1_dropShadow"/>
<feBlend mode="normal" in="SourceGraphic" in2="effect1_dropShadow" result="shape"/>
</filter>
<filter id="filter5_d" x="153.83" y="285.589" width="14.1987" height="14.1987" filterUnits="userSpaceOnUse" color-interpolation-filters="sRGB">
<feFlood flood-opacity="0" result="BackgroundImageFix"/>
<feColorMatrix in="SourceAlpha" type="matrix" values="0 0 0 0 0 0 0 0 0 0 0 0 0 0 0 0 0 0 127 0" result="hardAlpha"/>
<feOffset dy="1.36209"/>
<feGaussianBlur stdDeviation="0.681045"/>
<feComposite in2="hardAlpha" operator="out"/>
<feColorMatrix type="matrix" values="0 0 0 0 0 0 0 0 0 0 0 0 0 0 0 0 0 0 0.25 0"/>
<feBlend mode="normal" in2="BackgroundImageFix" result="effect1_dropShadow"/>
<feBlend mode="normal" in="SourceGraphic" in2="effect1_dropShadow" result="shape"/>
</filter>
<filter id="filter6_d" x="125.273" y="131" width="142.737" height="142.737" filterUnits="userSpaceOnUse" color-interpolation-filters="sRGB">
<feFlood flood-opacity="0" result="BackgroundImageFix"/>
<feColorMatrix in="SourceAlpha" type="matrix" values="0 0 0 0 0 0 0 0 0 0 0 0 0 0 0 0 0 0 127 0" result="hardAlpha"/>
<feOffset dy="1.36209"/>
<feGaussianBlur stdDeviation="0.681045"/>
<feComposite in2="hardAlpha" operator="out"/>
<feColorMatrix type="matrix" values="0 0 0 0 0 0 0 0 0 0 0 0 0 0 0 0 0 0 0.25 0"/>
<feBlend mode="normal" in2="BackgroundImageFix" result="effect1_dropShadow"/>
<feBlend mode="normal" in="SourceGraphic" in2="effect1_dropShadow" result="shape"/>
</filter>
<filter id="filter7_dii" x="227.595" y="93.9946" width="290.008" height="290.008" filterUnits="userSpaceOnUse" color-interpolation-filters="sRGB">
<feFlood flood-opacity="0" result="BackgroundImageFix"/>
<feColorMatrix in="SourceAlpha" type="matrix" values="0 0 0 0 0 0 0 0 0 0 0 0 0 0 0 0 0 0 127 0" result="hardAlpha"/>
<feOffset dx="-0.401438" dy="22.9984"/>
<feGaussianBlur stdDeviation="23.0019"/>
<feColorMatrix type="matrix" values="0 0 0 0 0.0658824 0 0 0 0 0.132549 0 0 0 0 0.184314 0 0 0 0.3975 0"/>
<feBlend mode="normal" in2="BackgroundImageFix" result="effect1_dropShadow"/>
<feBlend mode="normal" in="SourceGraphic" in2="effect1_dropShadow" result="shape"/>
<feColorMatrix in="SourceAlpha" type="matrix" values="0 0 0 0 0 0 0 0 0 0 0 0 0 0 0 0 0 0 127 0" result="hardAlpha"/>
<feOffset dx="-0.165036" dy="9.45489"/>
<feGaussianBlur stdDeviation="4.72817"/>
<feComposite in2="hardAlpha" operator="arithmetic" k2="-1" k3="1"/>
<feColorMatrix type="matrix" values="0 0 0 0 0.360294 0 0 0 0 0.724877 0 0 0 0 1 0 0 0 1 0"/>
<feBlend mode="normal" in2="shape" result="effect2_innerShadow"/>
<feColorMatrix in="SourceAlpha" type="matrix" values="0 0 0 0 0 0 0 0 0 0 0 0 0 0 0 0 0 0 127 0" result="hardAlpha"/>
<feOffset dx="0.165036" dy="-9.45489"/>
<feGaussianBlur stdDeviation="4.72817"/>
<feComposite in2="hardAlpha" operator="arithmetic" k2="-1" k3="1"/>
<feColorMatrix type="matrix" values="0 0 0 0 0.290809 0 0 0 0 0.58508 0 0 0 0 0.813572 0 0 0 1 0"/>
<feBlend mode="normal" in2="effect2_innerShadow" result="effect3_innerShadow"/>
</filter>
<linearGradient id="paint0_linear" x1="834.862" y1="536.119" x2="503.325" y2="-14.6563" gradientUnits="userSpaceOnUse">
<stop stop-color="#20F5CF"/>
<stop offset="1" stop-color="#4440FF" stop-opacity="0"/>
</linearGradient>
<linearGradient id="paint1_linear" x1="176.902" y1="384.334" x2="176.902" y2="205.576" gradientUnits="userSpaceOnUse">
<stop stop-color="#C0CDD2"/>
<stop offset="0.936289" stop-color="white"/>
</linearGradient>
<linearGradient id="paint2_linear" x1="182.213" y1="229.751" x2="182.213" y2="347.572" gradientUnits="userSpaceOnUse">
<stop stop-color="white"/>
<stop offset="1" stop-color="#A9C6D1"/>
</linearGradient>
<linearGradient id="paint3_linear" x1="229.584" y1="247.266" x2="254.753" y2="300.581" gradientUnits="userSpaceOnUse">
<stop stop-color="#EFF2F3"/>
<stop offset="1" stop-color="white"/>
</linearGradient>
<linearGradient id="paint4_linear" x1="148.721" y1="248.412" x2="130.578" y2="304.508" gradientUnits="userSpaceOnUse">
<stop stop-color="#EFF2F3"/>
<stop offset="1" stop-color="white"/>
</linearGradient>
<linearGradient id="paint5_linear" x1="179.456" y1="240.559" x2="179.456" y2="365.991" gradientUnits="userSpaceOnUse">
<stop stop-color="#E3E9EB"/>
<stop offset="0.56737" stop-color="white"/>
</linearGradient>
<linearGradient id="paint6_linear" x1="14.2626" y1="-28.5483" x2="14.2626" y2="22.3724" gradientUnits="userSpaceOnUse">
<stop stop-color="#50D5FF"/>
<stop offset="1" stop-color="#2C3585"/>
</linearGradient>
<radialGradient id="paint7_radial" cx="0" cy="0" r="1" gradientUnits="userSpaceOnUse" gradientTransform="translate(4.71568 4.71568) rotate(90) scale(6.87188)">
<stop stop-color="#51E0FF"/>
<stop offset="1" stop-color="#4E7CB4"/>
</radialGradient>
<radialGradient id="paint8_radial" cx="0" cy="0" r="1" gradientUnits="userSpaceOnUse" gradientTransform="translate(4.71568 4.71568) rotate(90) scale(6.87188)">
<stop stop-color="#FFB3B3"/>
<stop offset="1" stop-color="#F20000"/>
</radialGradient>
<radialGradient id="paint9_radial" cx="0" cy="0" r="1" gradientUnits="userSpaceOnUse" gradientTransform="translate(164.272 279.348) rotate(-171.262) scale(102.638)">
<stop offset="0.381" stop-color="#BFCCD1"/>
<stop offset="0.7578" stop-color="white"/>
</radialGradient>
<linearGradient id="paint10_linear" x1="251.691" y1="205.484" x2="182.764" y2="194.889" gradientUnits="userSpaceOnUse">
<stop stop-color="#FFF668"/>
<stop offset="0.29" stop-color="#FF9C4C"/>
<stop offset="1" stop-color="#880000"/>
</linearGradient>
<radialGradient id="paint11_radial" cx="0" cy="0" r="1" gradientUnits="userSpaceOnUse" gradientTransform="translate(220.745 212.374) rotate(-171.262) scale(54.8877)">
<stop stop-color="white"/>
<stop offset="0.9385" stop-color="#880000"/>
</radialGradient>
<linearGradient id="paint12_linear" x1="150.063" y1="430.932" x2="158.09" y2="443.249" gradientUnits="userSpaceOnUse">
<stop stop-color="#504A44"/>
<stop offset="1" stop-color="#504A44" stop-opacity="0"/>
</linearGradient>
</defs>
</svg>
