<svg width="113" height="103" viewBox="0 0 113 103" fill="none" xmlns="http://www.w3.org/2000/svg">
<g style="mix-blend-mode:overlay">
<circle cx="56.7408" cy="51.8033" r="50.9673" fill="white"/>
</g>
<path fill-rule="evenodd" clip-rule="evenodd" d="M95.7948 79.4093C105.391 78.9334 112.648 76.726 112.648 74.0747C112.648 71.076 103.364 68.6451 91.9124 68.6451C80.4607 68.6451 71.1772 71.076 71.1772 74.0747C71.1772 75.6005 73.5807 76.9794 77.4504 77.9657C73.4108 78.1661 69.7857 78.6733 66.942 79.3913C60.8024 77.7748 49.3705 76.6881 36.2817 76.6881C16.705 76.6881 0.834961 79.1191 0.834961 82.1178C0.834961 85.1165 16.705 87.5474 36.2817 87.5474C46.819 87.5474 56.2824 86.8431 62.7751 85.7251C66.1765 87.5066 73.2091 88.73 81.3329 88.73C92.7846 88.73 102.068 86.299 102.068 83.3003C102.068 81.7745 99.6645 80.3957 95.7948 79.4093Z" fill="#050045"/>
<path d="M112.558 72.3H112.567V66.4316C112.567 63.2722 100.934 60.7109 86.584 60.7109C72.234 60.7109 60.6013 63.2722 60.6013 66.4316V72.3H60.6098C60.9654 75.3914 72.4583 77.8731 86.584 77.8731C100.71 77.8731 112.203 75.3914 112.558 72.3Z" fill="#FFA318"/>
<path d="M60.6412 66.4292H60.5981V72.2976H60.6065C60.9621 75.389 72.455 77.8707 86.5808 77.8707C100.706 77.8707 112.199 75.389 112.555 72.2976H112.563V66.4292H112.52C111.74 69.4342 100.425 71.8181 86.5808 71.8181C72.7365 71.8181 61.4219 69.4342 60.6412 66.4292Z" fill="url(#paint0_linear)"/>
<path fill-rule="evenodd" clip-rule="evenodd" d="M61.5889 67.6686V73.7215C61.9206 73.9778 62.3314 74.2269 62.8151 74.4672V68.4144C62.3314 68.1741 61.9206 67.925 61.5889 67.6686ZM64.1636 68.9928V75.0455C64.5455 75.1885 64.9547 75.3276 65.3899 75.4624V69.4097C64.9547 69.2749 64.5455 69.1358 64.1636 68.9928ZM66.7372 69.7918V75.8445C67.1302 75.9467 67.5393 76.0459 67.9634 76.1418V70.0892C67.5393 69.9932 67.1302 69.8941 66.7372 69.7918ZM69.3108 70.3729V76.4255C69.7088 76.5035 70.1177 76.5789 70.537 76.6514V70.5988C70.1177 70.5262 69.7088 70.4509 69.3108 70.3729ZM71.8856 70.8172V76.8698C72.2864 76.9304 72.6953 76.9886 73.1118 77.0443V70.9917C72.6952 70.936 72.2864 70.8778 71.8856 70.8172ZM74.4592 71.16V77.2126C74.8618 77.2594 75.2706 77.304 75.6854 77.3462V71.2936C75.2706 71.2514 74.8618 71.2068 74.4592 71.16ZM77.0352 71.421V77.4736C77.439 77.5087 77.8479 77.5417 78.2614 77.5724V71.5198C77.8479 71.4891 77.439 71.4561 77.0352 71.421ZM79.6076 71.611V77.6636C80.0124 77.6884 80.4212 77.711 80.8338 77.7315V71.679C80.4212 71.6584 80.0124 71.6358 79.6076 71.611ZM82.1871 71.7379V77.7905C82.5927 77.8057 83.0016 77.8188 83.4133 77.8299V71.7773C83.0016 71.7663 82.5927 71.7531 82.1871 71.7379ZM84.7607 71.8056V77.8581C85.167 77.8643 85.5758 77.8684 85.9869 77.8705V71.8179C85.5758 71.8159 85.167 71.8117 84.7607 71.8056ZM87.3343 71.817V77.8696C87.7455 77.867 88.1543 77.8623 88.5605 77.8556V71.803C88.1543 71.8097 87.7455 71.8144 87.3343 71.817ZM89.9091 71.7729V77.8254C90.3209 77.8138 90.7297 77.8001 91.1353 77.7843V71.7318C90.7297 71.7476 90.3209 71.7613 89.9091 71.7729ZM92.4827 71.6711V77.7237C92.8953 77.7026 93.3041 77.6794 93.7089 77.654V71.6014C93.3041 71.6268 92.8953 71.65 92.4827 71.6711ZM95.0622 71.5076V77.5602C95.4758 77.5288 95.8846 77.4951 96.2885 77.4593V71.4067C95.8846 71.4425 95.4758 71.4762 95.0622 71.5076ZM97.6298 71.2778V77.3304C98.0447 77.2874 98.4535 77.2421 98.856 77.1945V71.1419C98.4536 71.1895 98.0447 71.2348 97.6298 71.2778ZM100.208 70.9703V77.0229C100.625 76.9663 101.034 76.9072 101.434 76.8456V70.793C101.034 70.8545 100.625 70.9137 100.208 70.9703ZM102.781 70.5715V76.6242C103.2 76.5504 103.609 76.4739 104.007 76.3946V70.342C103.609 70.4212 103.2 70.4978 102.781 70.5715ZM105.354 70.0535V76.1062C105.779 76.0085 106.188 75.9075 106.58 75.8034V69.7507C106.188 69.8548 105.779 69.9558 105.354 70.0535ZM107.93 69.36V75.4127C108.366 75.2745 108.776 75.1319 109.156 74.9852V68.9325C108.776 69.0792 108.366 69.2218 107.93 69.36ZM110.509 68.332V74.3848C111.002 74.1289 111.413 73.8634 111.735 73.59V67.5674H111.699C111.383 67.8302 110.984 68.0855 110.509 68.332Z" fill="#FF9211"/>
<g style="mix-blend-mode:multiply">
<path fill-rule="evenodd" clip-rule="evenodd" d="M108.359 66.9339C108.504 66.7263 108.579 66.5141 108.579 66.2984C108.579 63.831 98.7585 61.8307 86.6445 61.8307C74.5304 61.8307 64.7101 63.831 64.7101 66.2984C64.7101 66.5141 64.7851 66.7263 64.9302 66.9338C66.4449 64.7674 75.5896 63.1017 86.6445 63.1017C97.6994 63.1017 106.844 64.7674 108.359 66.9339Z" fill="#FFC177"/>
</g>
<path d="M108.493 66.2984C108.493 66.576 108.355 66.8564 108.072 67.1375C107.79 67.4189 107.368 67.6945 106.818 67.9595C105.717 68.4895 104.119 68.9692 102.137 69.3728C98.1751 70.1798 92.6975 70.6796 86.6445 70.6796C80.5915 70.6796 75.1139 70.1798 71.1518 69.3728C69.17 68.9692 67.5719 68.4895 66.4713 67.9595C65.9208 67.6945 65.4993 67.4189 65.2166 67.1375C64.9342 66.8564 64.7965 66.576 64.7965 66.2984C64.7965 66.0208 64.9342 65.7404 65.2166 65.4592C65.4993 65.1779 65.9208 64.9023 66.4713 64.6372C67.5719 64.1072 69.17 63.6276 71.1518 63.2239C75.1139 62.4169 80.5915 61.9171 86.6445 61.9171C92.6975 61.9171 98.1751 62.4169 102.137 63.2239C104.119 63.6276 105.717 64.1072 106.818 64.6372C107.368 64.9023 107.79 65.1779 108.072 65.4592C108.355 65.7404 108.493 66.0208 108.493 66.2984Z" stroke="#FFC177" stroke-width="0.172794"/>
<g style="mix-blend-mode:multiply" opacity="0.5">
<ellipse cx="86.6644" cy="66.301" rx="25.9827" ry="5.72071" fill="#FF981D"/>
</g>
<path d="M71.7218 77.7759H71.7322V70.5553C71.7322 66.668 57.4193 63.5166 39.7631 63.5166C22.1069 63.5166 7.79395 66.668 7.79395 70.5553V77.7759H7.80434C8.24187 81.5795 22.3828 84.633 39.7631 84.633C57.1434 84.633 71.2843 81.5795 71.7218 77.7759Z" fill="#FFA318"/>
<path d="M7.84357 70.552H7.79046V77.7725H7.80085C8.23839 81.5762 22.3793 84.6297 39.7596 84.6297C57.1399 84.6297 71.2808 81.5762 71.7183 77.7725H71.7287V70.552H71.6756C70.7151 74.2494 56.7936 77.1826 39.7596 77.1826C22.7256 77.1826 8.80407 74.2494 7.84357 70.552Z" fill="url(#paint1_linear)"/>
<path fill-rule="evenodd" clip-rule="evenodd" d="M9.00896 72.077L9.00896 79.5244C9.41695 79.8399 9.92241 80.1464 10.5177 80.4421V72.9948C9.92239 72.699 9.41694 72.3925 9.00896 72.077ZM12.178 73.7069V81.1542C12.6478 81.3302 13.1514 81.5014 13.6868 81.6671V74.2199C13.1514 74.0541 12.6478 73.883 12.178 73.7069ZM15.3435 74.6897V82.137C15.8271 82.2628 16.3303 82.3848 16.8522 82.5029V75.0557C16.3303 74.9376 15.8271 74.8156 15.3435 74.6897ZM18.5102 75.4048V82.852C18.9998 82.9479 19.503 83.0407 20.0189 83.1299V75.6828C19.503 75.5935 18.9998 75.5008 18.5102 75.4048ZM21.6792 75.9516V83.3988C22.1723 83.4733 22.6754 83.545 23.188 83.6135V76.1664C22.6754 76.0978 22.1723 76.0262 21.6792 75.9516ZM24.8459 76.3734V83.8205C25.3412 83.8782 25.8443 83.933 26.3546 83.985V76.5378C25.8443 76.4859 25.3412 76.431 24.8459 76.3734ZM28.0149 76.6945V84.1416C28.5119 84.1848 29.0149 84.2254 29.5237 84.2632V76.8161C29.0149 76.7783 28.5119 76.7377 28.0149 76.6945ZM31.1804 76.9283V84.3754C31.6785 84.4059 32.1815 84.4338 32.6891 84.459V77.0119C32.1815 76.9867 31.6785 76.9588 31.1804 76.9283ZM34.3543 77.0845V84.5316C34.8533 84.5503 35.3563 84.5664 35.863 84.58V77.1329C35.3563 77.1193 34.8533 77.1032 34.3543 77.0845ZM37.5197 77.1677V84.6147C38.0195 84.6224 38.5225 84.6274 39.0284 84.6299V77.1829C38.5225 77.1804 38.0195 77.1753 37.5197 77.1677ZM40.6864 77.1818V84.6289C41.1923 84.6257 41.6953 84.6199 42.1951 84.6116V77.1645C41.6953 77.1728 41.1923 77.1786 40.6864 77.1818ZM43.8554 77.1274V84.5745C44.3621 84.5603 44.8652 84.5434 45.3642 84.524V77.0769C44.8652 77.0963 44.3621 77.1132 43.8554 77.1274ZM47.0209 77.0023V84.4494C47.5285 84.4234 48.0316 84.3948 48.5296 84.3636V76.9165C48.0316 76.9477 47.5285 76.9763 47.0209 77.0023ZM50.1947 76.8012V84.2483C50.7036 84.2096 51.2066 84.1682 51.7035 84.1241V76.677C51.2066 76.7211 50.7036 76.7625 50.1947 76.8012ZM53.3542 76.5184V83.9655C53.8646 83.9126 54.3677 83.8569 54.8629 83.7983V76.3512C54.3677 76.4097 53.8647 76.4655 53.3542 76.5184ZM56.5269 76.14V83.5871C57.0396 83.5175 57.5427 83.4447 58.0356 83.3689V75.9218C57.5427 75.9975 57.0396 76.0703 56.5269 76.14ZM59.6923 75.6493V83.0965C60.2085 83.0057 60.7117 82.9115 61.201 82.814V75.3668C60.7117 75.4643 60.2085 75.5585 59.6923 75.6493ZM62.859 75.0119V82.4591C63.3814 82.3389 63.8847 82.2146 64.3677 82.0865V74.6393C63.8847 74.7674 63.3814 74.8917 62.859 75.0119ZM66.028 74.1586V81.6059C66.5648 81.4359 67.0684 81.2604 67.5368 81.0799V73.6326C67.0684 73.8131 66.5648 73.9886 66.028 74.1586ZM69.2007 72.8937V80.3411C69.8078 80.0262 70.3137 79.6995 70.7094 79.3631V71.9535H70.6644C70.2756 72.2766 69.785 72.5906 69.2007 72.8937Z" fill="#FF9211"/>
<g style="mix-blend-mode:multiply">
<path fill-rule="evenodd" clip-rule="evenodd" d="M66.5559 71.1728C66.7342 70.9176 66.8265 70.6567 66.8265 70.3914C66.8265 67.3555 54.7435 64.8944 39.8383 64.8944C24.9332 64.8944 12.8502 67.3555 12.8502 70.3914C12.8502 70.6569 12.9426 70.918 13.1212 71.1734C14.9838 68.5076 26.236 66.4578 39.8387 66.4578C53.4404 66.4578 64.692 68.5073 66.5559 71.1728Z" fill="#FFC177"/>
</g>
<path d="M66.7202 70.3914C66.7202 70.733 66.5507 71.078 66.2032 71.4239C65.8554 71.7701 65.3368 72.1091 64.6595 72.4353C63.3053 73.0874 61.339 73.6776 58.9006 74.1742C54.0256 75.1672 47.286 75.7821 39.8383 75.7821C32.3907 75.7821 25.6511 75.1672 20.776 74.1742C18.3376 73.6776 16.3713 73.0874 15.0172 72.4353C14.3398 72.1091 13.8213 71.7701 13.4735 71.4239C13.1259 71.078 12.9565 70.733 12.9565 70.3914C12.9565 70.0499 13.1259 69.7049 13.4735 69.3589C13.8213 69.0127 14.3398 68.6737 15.0172 68.3475C16.3713 67.6954 18.3376 67.1053 20.776 66.6086C25.6511 65.6157 32.3907 65.0007 39.8383 65.0007C47.286 65.0007 54.0256 65.6157 58.9006 66.6086C61.339 67.1053 63.3053 67.6954 64.6595 68.3475C65.3368 68.6737 65.8554 69.0127 66.2032 69.3589C66.5507 69.7049 66.7202 70.0499 66.7202 70.3914Z" stroke="#FFC177" stroke-width="0.212606"/>
<g style="mix-blend-mode:multiply" opacity="0.5">
<ellipse cx="39.8612" cy="70.3949" rx="31.9692" ry="7.03878" fill="#FF981D"/>
</g>
<path d="M101.451 83.8332L101.46 83.8372L104.222 77.1657C105.709 73.5739 93.6894 65.1878 77.3757 58.4348C61.062 51.6817 46.632 49.1192 45.1452 52.7109L42.3835 59.3824L42.3931 59.3864C41.3426 63.0682 53.2404 71.2981 69.2992 77.9456C85.358 84.5931 99.5916 87.1803 101.451 83.8332Z" fill="#FFA318"/>
<path d="M45.1937 52.7277L45.1446 52.7074L42.3829 59.3789L42.3925 59.3829C41.342 63.0647 53.2398 71.2946 69.2986 77.9421C85.3574 84.5897 99.591 87.1768 101.45 83.8298L101.46 83.8337L104.221 77.1622L104.172 77.1419C101.871 80.1908 87.8857 77.5763 72.1469 71.0613C56.4081 64.5462 44.667 56.5114 45.1937 52.7277Z" fill="url(#paint2_linear)"/>
<path fill-rule="evenodd" clip-rule="evenodd" d="M45.6863 54.5835L42.8378 61.4647C43.0941 61.9122 43.4439 62.3887 43.8808 62.8896L46.7293 56.0085C46.2924 55.5076 45.9426 55.0311 45.6863 54.5835ZM47.991 57.3016L45.1426 64.1826C45.5094 64.525 45.9092 64.8757 46.3405 65.2336L49.1889 58.3526C48.7576 57.9946 48.3578 57.6439 47.991 57.3016ZM50.5396 59.4202L47.6912 66.3012C48.0899 66.6024 48.5082 66.9076 48.9453 67.2163L51.7937 60.3353C51.3566 60.0266 50.9383 59.7214 50.5396 59.4202ZM53.192 61.292L50.3436 68.173C50.7594 68.4489 51.1888 68.727 51.6313 69.0069L54.4797 62.1259C54.0371 61.8461 53.6077 61.568 53.192 61.292ZM55.9112 63.0095L53.0629 69.8904C53.4899 70.148 53.9274 70.4065 54.3747 70.6659L57.2231 63.785C56.7757 63.5256 56.3383 63.267 55.9112 63.0095ZM58.6758 64.6104L55.8274 71.4913C56.2631 71.734 56.7069 71.9771 57.1585 72.2203L60.0069 65.3394C59.5552 65.0962 59.1114 64.8531 58.6758 64.6104ZM61.4809 66.1191L58.6326 73C59.0752 73.23 59.5244 73.4599 59.9801 73.6894L62.8284 66.8085C62.3728 66.579 61.9235 66.3491 61.4809 66.1191ZM64.3163 67.5459L61.468 74.4268C61.9166 74.6455 62.3707 74.8636 62.83 75.0811L65.6784 68.2002C65.219 67.9828 64.7649 67.7646 64.3163 67.5459ZM67.1885 68.9038L64.3402 75.7847C64.7941 75.9928 65.2527 76.2002 65.7156 76.4065L68.564 69.5256C68.101 69.3193 67.6424 69.112 67.1885 68.9038ZM70.0821 70.1917L67.2338 77.0725C67.6927 77.2708 68.1555 77.4678 68.622 77.6636L71.4703 70.7828C71.0038 70.587 70.541 70.3899 70.0821 70.1917ZM73.0016 71.4155L70.1533 78.2963C70.6219 78.4869 71.0889 78.674 71.5539 78.8575L74.4022 71.9766C73.9372 71.7931 73.4703 71.6061 73.0016 71.4155ZM75.9507 72.5775L73.1024 79.4583C73.576 79.639 74.0473 79.8158 74.5158 79.9887L77.3641 73.1078C76.8956 72.9349 76.4244 72.7581 75.9507 72.5775ZM78.9245 73.673L76.0762 80.5539C76.5552 80.7241 77.0309 80.89 77.503 81.0517L80.3513 74.1708C79.8792 74.0091 79.4035 73.8432 78.9245 73.673ZM81.9328 74.7007L79.0845 81.5816C79.5694 81.7405 80.0501 81.8946 80.526 82.0439L83.3743 75.163C82.8984 75.0137 82.4178 74.8596 81.9328 74.7007ZM84.9609 75.6481L82.1126 82.529C82.6044 82.6753 83.0906 82.8162 83.5706 82.9515L86.4189 76.0706C85.9389 75.9353 85.4528 75.7944 84.9609 75.6481ZM88.0365 76.5117L85.1881 83.3927C85.6885 83.5244 86.1811 83.6496 86.6656 83.7681L89.5139 76.8872C89.0295 76.7687 88.5368 76.6435 88.0365 76.5117ZM91.1496 77.2693L88.3013 84.1502C88.8129 84.2638 89.3139 84.3692 89.8033 84.4663L92.6517 77.5853C92.1622 77.4882 91.6613 77.3828 91.1496 77.2693ZM94.3182 77.8913L91.4698 84.7723C91.9985 84.861 92.511 84.9387 93.0063 85.0051L95.8547 78.1241C95.3594 78.0577 94.8469 77.9801 94.3182 77.8913ZM97.5741 78.3152L94.7257 85.1962C95.2867 85.2444 95.8191 85.2749 96.3209 85.2873L99.1693 78.4062C98.6675 78.3939 98.1351 78.3634 97.5741 78.3152ZM100.989 78.3599L98.1402 85.241C98.8215 85.1823 99.4138 85.074 99.9082 84.9146L102.742 78.0688L102.7 78.0514C102.217 78.201 101.644 78.3034 100.989 78.3599Z" fill="#FF9211"/>
<g style="mix-blend-mode:multiply">
<path fill-rule="evenodd" clip-rule="evenodd" d="M99.2042 75.7572C99.4667 75.5895 99.6518 75.3837 99.7533 75.1386C100.914 72.3335 90.6915 65.4381 76.9196 59.7373C63.1478 54.0364 51.0422 51.6889 49.8811 54.494C49.7796 54.7391 49.765 55.0155 49.8322 55.3196C52.5731 53.5691 63.7536 55.9789 76.3218 61.1815C88.8901 66.3841 98.5027 72.5817 99.2042 75.7572Z" fill="#FFC177"/>
</g>
<path d="M99.6551 75.0979C99.5245 75.4135 99.2359 75.6675 98.7825 75.8542C98.3287 76.041 97.7199 76.1559 96.9694 76.1983C95.4687 76.2828 93.4262 76.076 90.9833 75.6023C86.0991 74.6552 79.6368 72.6456 72.7554 69.7971C65.874 66.9486 59.882 63.8026 55.7575 61.0206C53.6944 59.6291 52.1033 58.3318 51.1015 57.2113C50.6005 56.6509 50.251 56.1393 50.0621 55.6864C49.8732 55.2338 49.8486 54.8502 49.9793 54.5347C50.1099 54.2191 50.3984 53.9651 50.8519 53.7784C51.3056 53.5916 51.9144 53.4766 52.665 53.4343C54.1656 53.3497 56.2082 53.5565 58.6511 54.0303C63.5352 54.9774 69.9976 56.9869 76.879 59.8355C83.7604 62.684 89.7523 65.8299 93.8769 68.612C95.9399 70.0035 97.5311 71.3008 98.5328 72.4213C99.0339 72.9817 99.3834 73.4933 99.5723 73.9462C99.7611 74.3988 99.7857 74.7823 99.6551 75.0979Z" stroke="#FFC177" stroke-width="0.212606"/>
<g style="mix-blend-mode:multiply" opacity="0.5">
<ellipse cx="74.8371" cy="64.8296" rx="31.9692" ry="7.03878" transform="rotate(22.4871 74.8371 64.8296)" fill="#FF981D"/>
</g>
<defs>
<linearGradient id="paint0_linear" x1="66.1618" y1="72.1499" x2="112.563" y2="69.9272" gradientUnits="userSpaceOnUse">
<stop stop-color="#FF9211"/>
<stop offset="0.53395" stop-color="#FFC581"/>
<stop offset="1" stop-color="#FF9211"/>
</linearGradient>
<linearGradient id="paint1_linear" x1="14.636" y1="77.5908" x2="71.7287" y2="74.8559" gradientUnits="userSpaceOnUse">
<stop stop-color="#FF9211"/>
<stop offset="0.53395" stop-color="#FFC581"/>
<stop offset="1" stop-color="#FF9211"/>
</linearGradient>
<linearGradient id="paint2_linear" x1="48.7775" y1="61.8293" x2="102.575" y2="81.1389" gradientUnits="userSpaceOnUse">
<stop stop-color="#FF9211"/>
<stop offset="0.53395" stop-color="#FFC581"/>
<stop offset="1" stop-color="#FF9211"/>
</linearGradient>
</defs>
</svg>
