<svg width="25" height="25" viewBox="0 0 25 25" fill="none" xmlns="http://www.w3.org/2000/svg">
<path fill-rule="evenodd" clip-rule="evenodd" d="M12.5787 20.2449C14.6673 20.2449 16.6704 19.4152 18.1472 17.9383C19.6241 16.4615 20.4537 14.4585 20.4537 12.3699C20.4537 10.2813 19.6241 8.27826 18.1472 6.80141C16.6704 5.32456 14.6673 4.49487 12.5787 4.49487C10.4902 4.49487 8.48712 5.32456 7.01027 6.80141C5.53342 8.27826 4.70374 10.2813 4.70374 12.3699C4.70374 14.4585 5.53342 16.4615 7.01027 17.9383C8.48712 19.4152 10.4902 20.2449 12.5787 20.2449ZM12.5787 21.3699C14.9657 21.3699 17.2549 20.4217 18.9427 18.7338C20.6305 17.046 21.5787 14.7568 21.5787 12.3699C21.5787 9.98292 20.6305 7.69374 18.9427 6.00591C17.2549 4.31808 14.9657 3.36987 12.5787 3.36987C10.1918 3.36987 7.9026 4.31808 6.21477 6.00591C4.52695 7.69374 3.57874 9.98292 3.57874 12.3699C3.57874 14.7568 4.52695 17.046 6.21477 18.7338C7.9026 20.4217 10.1918 21.3699 12.5787 21.3699Z" fill="white"/>
<path d="M9.48499 10.157H10.97C10.97 9.27837 11.4852 8.6 12.5 8.6C13.2706 8.6 13.9771 8.98587 13.9771 9.914C13.9771 10.6284 13.5564 10.9569 12.8915 11.4564C12.1344 12.0065 11.5347 12.6489 11.5775 13.6917L11.5854 14.2126H13.0557V13.8132C13.0557 13.0055 13.3629 12.7704 14.192 12.1415C14.8771 11.6206 15.5915 11.0424 15.5915 9.8285C15.5915 8.12862 14.156 7.30737 12.5844 7.30737C11.0926 7.30737 9.45011 8.03525 9.48611 10.157H9.48499ZM11.2422 16.3625C11.2422 16.9621 11.7204 17.4054 12.3785 17.4054C13.0636 17.4054 13.535 16.9621 13.535 16.3625C13.535 15.7415 13.0625 15.305 12.3774 15.305C11.7204 15.305 11.2422 15.7415 11.2422 16.3625Z" fill="white"/>
</svg>
