<svg width="28" height="28" viewBox="0 0 28 28" fill="none" xmlns="http://www.w3.org/2000/svg">
<path d="M12.724 20.0629C12.724 19.4029 13.2591 18.8678 13.9191 18.8678C14.5791 18.8678 15.1142 19.4029 15.1142 20.0629C15.1142 20.723 14.5791 21.258 13.9191 21.258C13.2591 21.258 12.724 20.723 12.724 20.0629ZM14.6481 6.96461C12.1862 6.60608 10.0111 8.12386 9.35381 10.2989C9.13869 10.9921 9.66453 11.6972 10.3935 11.6972H10.6326C11.1226 11.6972 11.5169 11.3506 11.6843 10.8965C12.0667 9.83285 13.202 9.10384 14.433 9.36676C15.5683 9.60578 16.4049 10.7172 16.3093 11.8765C16.1898 13.4779 14.3732 13.8245 13.3813 15.3184C13.3813 15.3303 13.3694 15.3303 13.3694 15.3423C13.3574 15.3662 13.3454 15.3781 13.3335 15.402C13.2259 15.5813 13.1184 15.7845 13.0347 15.9996C13.0228 16.0354 12.9989 16.0593 12.9869 16.0952C12.975 16.1191 12.975 16.143 12.963 16.1788C12.9282 16.2774 12.8963 16.3808 12.8678 16.4896C12.7006 17.1281 13.2591 17.6727 13.9191 17.6727C14.5791 17.6727 15.0872 17.1097 15.3821 16.5192C15.4033 16.4767 15.4256 16.4349 15.4488 16.394C15.4727 16.3581 15.4847 16.3223 15.5086 16.2864C15.6042 16.1191 15.7237 15.9637 15.8432 15.8203C15.8552 15.8084 15.8671 15.7845 15.8791 15.7725C15.9986 15.6291 16.13 15.4976 16.2734 15.3662C17.4207 14.2786 18.9744 13.3943 18.6517 11.1116C18.3649 9.03213 16.7276 7.27533 14.6481 6.96461Z" fill="white"/>
<path fill-rule="evenodd" clip-rule="evenodd" d="M14.0002 25.6265C20.3743 25.6265 25.5415 20.4593 25.5415 14.0852C25.5415 7.71114 20.3743 2.54395 14.0002 2.54395C7.62618 2.54395 2.45898 7.71114 2.45898 14.0852C2.45898 20.4593 7.62618 25.6265 14.0002 25.6265ZM14.0002 27.6265C21.4789 27.6265 27.5415 21.5638 27.5415 14.0852C27.5415 6.60657 21.4789 0.543945 14.0002 0.543945C6.52161 0.543945 0.458984 6.60657 0.458984 14.0852C0.458984 21.5638 6.52161 27.6265 14.0002 27.6265Z" fill="white"/>
</svg>
