<svg width="19" height="19" viewBox="0 0 19 19" fill="none" xmlns="http://www.w3.org/2000/svg">
<path fill-rule="evenodd" clip-rule="evenodd" d="M9.80371 17.4346C11.8923 17.4346 13.8953 16.6049 15.3722 15.128C16.849 13.6512 17.6787 11.6482 17.6787 9.55957C17.6787 7.47099 16.849 5.46795 15.3722 3.9911C13.8953 2.51426 11.8923 1.68457 9.80371 1.68457C7.71513 1.68457 5.71209 2.51426 4.23524 3.9911C2.7584 5.46795 1.92871 7.47099 1.92871 9.55957C1.92871 11.6482 2.7584 13.6512 4.23524 15.128C5.71209 16.6049 7.71513 17.4346 9.80371 17.4346ZM9.80371 18.5596C12.1907 18.5596 14.4798 17.6114 16.1677 15.9235C17.8555 14.2357 18.8037 11.9465 18.8037 9.55957C18.8037 7.17262 17.8555 4.88344 16.1677 3.19561C14.4798 1.50778 12.1907 0.55957 9.80371 0.55957C7.41676 0.55957 5.12758 1.50778 3.43975 3.19561C1.75192 4.88344 0.803711 7.17262 0.803711 9.55957C0.803711 11.9465 1.75192 14.2357 3.43975 15.9235C5.12758 17.6114 7.41676 18.5596 9.80371 18.5596Z" fill="white"/>
<path d="M6.70996 7.3467H8.19496C8.19496 6.46807 8.71021 5.7897 9.72496 5.7897C10.4956 5.7897 11.2021 6.17557 11.2021 7.1037C11.2021 7.81807 10.7813 8.14657 10.1165 8.64607C9.35934 9.1962 8.75971 9.83857 8.80246 10.8814L8.81034 11.4023H10.2807V11.0029C10.2807 10.1952 10.5878 9.96007 11.417 9.3312C12.1021 8.81032 12.8165 8.23207 12.8165 7.0182C12.8165 5.31832 11.381 4.49707 9.80934 4.49707C8.31759 4.49707 6.67509 5.22495 6.71109 7.3467H6.70996ZM8.46721 13.5522C8.46721 14.1518 8.94534 14.5951 9.60346 14.5951C10.2886 14.5951 10.76 14.1518 10.76 13.5522C10.76 12.9312 10.2875 12.4947 9.60234 12.4947C8.94534 12.4947 8.46721 12.9312 8.46721 13.5522Z" fill="white"/>
</svg>
