<svg width="28" height="28" viewBox="0 0 28 28" fill="none" xmlns="http://www.w3.org/2000/svg">
<path fill-rule="evenodd" clip-rule="evenodd" d="M3.49882 5.89307L1.49041 3.88466C1.43266 3.82677 1.35902 3.78732 1.27883 3.77133C1.19863 3.75533 1.1155 3.76351 1.03995 3.79483C0.964413 3.82614 0.899871 3.87918 0.85451 3.94722C0.809148 4.01526 0.785011 4.09523 0.785157 4.17701V10.1989C0.785157 10.4269 0.970142 10.6118 1.19807 10.6118H7.21999C7.30176 10.612 7.38174 10.5878 7.44978 10.5425C7.51782 10.4971 7.57086 10.4326 7.60217 10.357C7.63348 10.2815 7.64166 10.1984 7.62567 10.1182C7.60967 10.038 7.57023 9.96433 7.51233 9.90658L5.26939 7.66364C6.73149 5.62162 8.86323 4.15682 11.2937 3.52412C13.7242 2.89141 16.2996 3.13084 18.5718 4.20075C20.844 5.27066 22.6692 7.10332 23.7298 9.37988C24.7904 11.6564 25.0193 14.2328 24.3766 16.6607C23.734 19.0885 22.2605 21.2143 20.2125 22.668C18.1645 24.1217 15.6717 24.8114 13.1677 24.6171C10.6638 24.4228 8.30716 23.3568 6.50796 21.6045C4.70876 19.8523 3.58084 17.5247 3.32044 15.0267C3.28671 14.6997 3.12446 14.3995 2.86939 14.1921C2.61431 13.9847 2.28731 13.8872 1.96031 13.9209C1.63331 13.9547 1.3331 14.1169 1.12572 14.372C0.918349 14.627 0.820797 14.9541 0.854526 15.2811C1.17228 18.3387 2.54607 21.1898 4.73938 23.3437C6.93269 25.4976 9.8083 26.8195 12.8712 27.0818C15.934 27.344 18.9925 26.5303 21.5201 24.7806C24.0476 23.031 25.8861 20.4549 26.7191 17.4958C27.552 14.5367 27.3273 11.3798 26.0836 8.56859C24.8399 5.75735 22.655 3.46765 19.9051 2.09366C17.1552 0.719679 14.0123 0.34738 11.0175 1.04086C8.02263 1.73434 5.36326 3.45021 3.49717 5.89307H3.49882ZM13.5855 7.30854C13.914 7.30854 14.2291 7.43904 14.4614 7.67135C14.6937 7.90366 14.8242 8.21874 14.8242 8.54727V13.489L18.1737 14.8302C18.4689 14.9588 18.7024 15.1974 18.8247 15.4953C18.9469 15.7931 18.9484 16.1269 18.8288 16.4259C18.7092 16.7248 18.4778 16.9655 18.1838 17.0968C17.8898 17.2281 17.5562 17.2397 17.2538 17.1293L13.1246 15.4776C12.895 15.3856 12.6982 15.2269 12.5595 15.022C12.4209 14.8171 12.3468 14.5754 12.3467 14.3281V8.54727C12.3467 8.21874 12.4772 7.90366 12.7095 7.67135C12.9418 7.43904 13.2569 7.30854 13.5855 7.30854Z" fill="white"/>
</svg>
