<svg width="18" height="21" viewBox="0 0 18 21" fill="none" xmlns="http://www.w3.org/2000/svg">
<path d="M0.895926 20.3296C0.706486 20.3296 0.524805 20.2543 0.39085 20.1204C0.256896 19.9864 0.181641 19.8047 0.181641 19.6153C0.181641 19.4259 0.256896 19.2442 0.39085 19.1102C0.524805 18.9763 0.706486 18.901 0.895926 18.901H2.3245V17.4724C2.3242 16.2595 2.66705 15.0713 3.31343 14.045C3.9598 13.0187 4.88334 12.1962 5.97736 11.6724C6.39164 11.4739 6.61021 11.1339 6.61021 10.8296V9.82959C6.61021 9.5253 6.39021 9.1853 5.97736 8.98673C4.88334 8.46303 3.9598 7.64051 3.31343 6.61419C2.66705 5.58788 2.3242 4.39963 2.3245 3.18673V1.75816H0.895926C0.706486 1.75816 0.524805 1.68291 0.39085 1.54895C0.256896 1.415 0.181641 1.23332 0.181641 1.04388C0.181641 0.854435 0.256896 0.672754 0.39085 0.538799C0.524805 0.404845 0.706486 0.32959 0.895926 0.32959H16.6102C16.7997 0.32959 16.9813 0.404845 17.1153 0.538799C17.2492 0.672754 17.3245 0.854435 17.3245 1.04388C17.3245 1.23332 17.2492 1.415 17.1153 1.54895C16.9813 1.68291 16.7997 1.75816 16.6102 1.75816H15.1816V3.18673C15.1819 4.39963 14.8391 5.58788 14.1927 6.61419C13.5463 7.64051 12.6228 8.46303 11.5288 8.98673C11.1145 9.1853 10.8959 9.5253 10.8959 9.82959V10.8296C10.8959 11.1339 11.1159 11.4739 11.5288 11.6724C12.6228 12.1962 13.5463 13.0187 14.1927 14.045C14.8391 15.0713 15.1819 16.2595 15.1816 17.4724V18.901H16.6102C16.7997 18.901 16.9813 18.9763 17.1153 19.1102C17.2492 19.2442 17.3245 19.4259 17.3245 19.6153C17.3245 19.8047 17.2492 19.9864 17.1153 20.1204C16.9813 20.2543 16.7997 20.3296 16.6102 20.3296H0.895926ZM3.75307 1.75816V3.18673C3.75307 3.95388 3.9245 4.67959 4.2345 5.32959H13.2716C13.5802 4.67959 13.7531 3.95388 13.7531 3.18673V1.75816H3.75307ZM8.03878 10.8296C8.03878 11.831 7.35593 12.5953 6.5945 12.961C5.74349 13.3683 5.02508 14.0081 4.52228 14.8064C4.01948 15.6047 3.75281 16.529 3.75307 17.4724C3.75307 17.4724 4.99021 15.6167 8.03878 15.3582V10.8296ZM9.46735 10.8296V15.3582C12.5159 15.6167 13.7531 17.4724 13.7531 17.4724C13.7533 16.529 13.4867 15.6047 12.9839 14.8064C12.4811 14.0081 11.7626 13.3683 10.9116 12.961C10.1502 12.5953 9.46735 11.8324 9.46735 10.831V10.8296Z" fill="white"/>
</svg>
