<svg width="21" height="20" viewBox="0 0 21 20" fill="none" xmlns="http://www.w3.org/2000/svg">
<path d="M14.7711 16.917L14.1973 12.3227C14.1159 11.6719 13.7997 11.0733 13.308 10.6393C12.8162 10.2054 12.1829 9.96606 11.5271 9.96631H9.55091C8.8954 9.96649 8.26252 10.206 7.77117 10.6399C7.27981 11.0738 6.96381 11.6722 6.88253 12.3227L6.30779 16.917C6.27624 17.1694 6.29876 17.4257 6.37385 17.6687C6.44893 17.9118 6.57487 18.136 6.74329 18.3267C6.91171 18.5173 7.11876 18.6699 7.35069 18.7744C7.58262 18.8789 7.83412 18.9328 8.0885 18.9326H12.9913C13.2456 18.9327 13.497 18.8787 13.7288 18.7741C13.9606 18.6696 14.1676 18.517 14.3359 18.3263C14.5042 18.1357 14.6301 17.9115 14.7051 17.6685C14.7802 17.4255 14.8026 17.1694 14.7711 16.917V16.917Z" stroke="#75758F" stroke-width="1.79327" stroke-linecap="round" stroke-linejoin="round"/>
<path d="M10.5385 6.3798C12.0241 6.3798 13.2284 5.17549 13.2284 3.6899C13.2284 2.20431 12.0241 1 10.5385 1C9.05294 1 7.84863 2.20431 7.84863 3.6899C7.84863 5.17549 9.05294 6.3798 10.5385 6.3798Z" stroke="#75758F" stroke-width="1.79327"/>
<path d="M3.36553 9.06993C4.35593 9.06993 5.1588 8.26706 5.1588 7.27667C5.1588 6.28627 4.35593 5.4834 3.36553 5.4834C2.37514 5.4834 1.57227 6.28627 1.57227 7.27667C1.57227 8.26706 2.37514 9.06993 3.36553 9.06993Z" stroke="#75758F" stroke-width="1.79327"/>
<path d="M17.7122 9.06993C18.7026 9.06993 19.5055 8.26706 19.5055 7.27667C19.5055 6.28627 18.7026 5.4834 17.7122 5.4834C16.7218 5.4834 15.9189 6.28627 15.9189 7.27667C15.9189 8.26706 16.7218 9.06993 17.7122 9.06993Z" stroke="#75758F" stroke-width="1.79327"/>
<path d="M3.36644 11.7598H3.09207C2.66757 11.7597 2.25681 11.9103 1.93288 12.1846C1.60894 12.459 1.39284 12.8393 1.32301 13.258L1.02443 15.0513C0.981582 15.3082 0.995218 15.5714 1.06439 15.8225C1.13357 16.0737 1.25661 16.3067 1.42498 16.5054C1.59335 16.7042 1.80299 16.8639 2.03932 16.9734C2.27566 17.0829 2.53301 17.1396 2.79349 17.1396H6.05634" stroke="#75758F" stroke-width="1.79327" stroke-linecap="round" stroke-linejoin="round"/>
<path d="M17.7124 11.7598H17.9867C18.4112 11.7597 18.822 11.9103 19.1459 12.1846C19.4699 12.459 19.686 12.8393 19.7558 13.258L20.0544 15.0513C20.0972 15.3082 20.0836 15.5714 20.0144 15.8225C19.9452 16.0737 19.8222 16.3067 19.6538 16.5054C19.4855 16.7042 19.2758 16.8639 19.0395 16.9734C18.8031 17.0829 18.5458 17.1396 18.2853 17.1396H15.0225" stroke="#75758F" stroke-width="1.79327" stroke-linecap="round" stroke-linejoin="round"/>
</svg>
