<svg width="20" height="21" viewBox="0 0 20 21" fill="none" xmlns="http://www.w3.org/2000/svg">
<path d="M13.4723 1.72595C12.2272 1.72595 11.0987 1.96862 10.2167 2.42579C9.3355 2.88295 8.61119 3.62756 8.61119 4.61484V7.50373C8.61119 7.5969 8.64105 7.68717 8.65494 7.77456C7.95982 7.59086 7.24506 7.49985 6.52786 7.50373C5.28272 7.50373 4.15425 7.7464 3.2723 8.20356C2.39105 8.66073 1.66675 9.40534 1.66675 10.3926V16.1704C1.66675 17.1577 2.39105 17.9023 3.273 18.3595C4.15425 18.8166 5.28272 19.0593 6.52786 19.0593C7.773 19.0593 8.90147 18.8166 9.78341 18.3595C10.664 17.9023 11.389 17.1577 11.389 16.1704V15.8772C12.0683 16.0682 12.7686 16.1667 13.4723 16.1704C14.7174 16.1704 15.8459 15.9277 16.7279 15.4706C17.6084 15.0134 18.3334 14.2688 18.3334 13.2815V4.61484C18.3334 3.62756 17.6091 2.88295 16.7272 2.42579C15.8466 1.96862 14.7181 1.72595 13.4723 1.72595ZM13.4723 3.1704C14.5299 3.1704 15.4716 3.40729 16.098 3.73445C16.7251 4.06162 16.9445 4.40612 16.9445 4.61484C16.9445 4.82429 16.7251 5.16806 16.098 5.49523C15.4723 5.8224 14.5299 6.05929 13.4723 6.05929C12.4147 6.05929 11.473 5.8224 10.8466 5.49523C10.2195 5.16806 10.0001 4.82356 10.0001 4.61484C10.0001 4.4054 10.2195 4.06162 10.8466 3.73445C11.4723 3.40729 12.4147 3.1704 13.4723 3.1704ZM10.0001 6.66884C10.073 6.71073 10.1411 6.7649 10.2174 6.8039C11.0987 7.26106 12.2272 7.50373 13.4723 7.50373C14.7174 7.50373 15.8459 7.26106 16.7279 6.8039C16.8036 6.7649 16.8716 6.71073 16.9445 6.66884V7.50373C16.9445 7.71317 16.7251 8.05695 16.098 8.38412C15.4716 8.71129 14.5299 8.94817 13.4723 8.94817C12.4147 8.94817 11.473 8.71129 10.8466 8.38412C10.2195 8.05695 10.0001 7.71245 10.0001 7.50373V6.66884ZM6.52786 8.94817C7.5855 8.94817 8.52716 9.18506 9.15355 9.51223C9.78064 9.8394 10.0001 10.1839 10.0001 10.3926C10.0001 10.6021 9.78064 10.9458 9.15355 11.273C8.52716 11.6002 7.5855 11.8371 6.52786 11.8371C5.47022 11.8371 4.52855 11.6002 3.90216 11.273C3.27508 10.9458 3.05564 10.6013 3.05564 10.3926C3.05564 10.1832 3.27508 9.8394 3.90216 9.51223C4.52786 9.18506 5.47022 8.94817 6.52786 8.94817ZM16.9445 9.55773V10.3926C16.9445 10.6021 16.7251 10.9458 16.098 11.273C15.4716 11.6002 14.5299 11.8371 13.4723 11.8371C12.7649 11.8411 12.0615 11.7267 11.389 11.4983V10.3926C11.389 10.2995 11.3591 10.2092 11.3452 10.1218C11.9911 10.2966 12.707 10.3926 13.4723 10.3926C14.7174 10.3926 15.8459 10.15 16.7279 9.69279C16.8036 9.65379 16.8716 9.59962 16.9445 9.55773ZM3.05564 12.4466C3.12855 12.4885 3.19661 12.5427 3.273 12.5817C4.15425 13.0388 5.28272 13.2815 6.52786 13.2815C7.773 13.2815 8.90147 13.0388 9.78341 12.5817C9.85911 12.5427 9.92717 12.4885 10.0001 12.4466V13.2815C10.0001 13.491 9.78064 13.8347 9.15355 14.1619C8.52716 14.4891 7.5855 14.726 6.52786 14.726C5.47022 14.726 4.52855 14.4891 3.90216 14.1619C3.27508 13.8347 3.05564 13.4902 3.05564 13.2815V12.4466ZM16.9445 12.4466V13.2815C16.9445 13.491 16.7251 13.8347 16.098 14.1619C15.4716 14.4891 14.5299 14.726 13.4723 14.726C12.6827 14.726 11.9695 14.6104 11.389 14.4096V13.0107C12.0265 13.1855 12.7209 13.2815 13.4723 13.2815C14.7174 13.2815 15.8459 13.0388 16.7279 12.5817C16.8036 12.5427 16.8716 12.4885 16.9445 12.4466ZM3.05564 15.3355C3.12855 15.3774 3.19661 15.4316 3.273 15.4706C4.15425 15.9277 5.28272 16.1704 6.52786 16.1704C7.773 16.1704 8.90147 15.9277 9.78341 15.4706C9.85911 15.4316 9.92717 15.3774 10.0001 15.3355V16.1704C10.0001 16.3798 9.78064 16.7236 9.15355 17.0508C8.52716 17.378 7.5855 17.6148 6.52786 17.6148C5.47022 17.6148 4.52855 17.378 3.90216 17.0508C3.27508 16.7236 3.05564 16.3791 3.05564 16.1704V15.3355Z" fill="white"/>
</svg>
