<svg width="27" height="19" viewBox="0 0 27 19" fill="none" xmlns="http://www.w3.org/2000/svg">
<path fill-rule="evenodd" clip-rule="evenodd" d="M13.0352 0.304688C16.2047 0.304688 19.2355 1.91414 22.06 4.55848C23.0237 5.46062 23.8954 6.42374 24.6628 7.38726C25.1259 7.96868 25.4547 8.42606 25.6347 8.69854L26.0352 9.30469L25.6347 9.91083C25.4547 10.1833 25.1259 10.6407 24.6628 11.2221C23.8954 12.1856 23.0237 13.1488 22.06 14.0509C19.2355 16.6952 16.2047 18.3047 13.0352 18.3047C9.86558 18.3047 6.83478 16.6952 4.01027 14.0509C3.04666 13.1488 2.1749 12.1856 1.40748 11.2221C0.944399 10.6407 0.615615 10.1833 0.435601 9.91083L0.0351562 9.30469L0.435601 8.69854C0.615615 8.42606 0.944399 7.96868 1.40748 7.38726C2.1749 6.42374 3.04666 5.46062 4.01027 4.55848C6.83478 1.91414 9.86558 0.304688 13.0352 0.304688ZM22.8222 8.75922C22.1195 7.87704 21.3207 6.99446 20.4443 6.17394C18.0115 3.89641 15.4812 2.55273 13.035 2.55273C10.5888 2.55273 8.05848 3.89641 5.62577 6.17394C4.74934 6.99446 3.95048 7.87704 3.24785 8.75922C3.0961 8.94975 2.95587 9.13153 2.82767 9.30273C2.95587 9.47393 3.0961 9.65572 3.24785 9.84625C3.95048 10.7284 4.74934 11.611 5.62577 12.4315C8.05848 14.7091 10.5888 16.0527 13.035 16.0527C15.4812 16.0527 18.0115 14.7091 20.4443 12.4315C21.3207 11.611 22.1195 10.7284 22.8222 9.84625C22.9739 9.65572 23.1141 9.47393 23.2424 9.30273C23.1141 9.13153 22.9739 8.94975 22.8222 8.75922ZM8.38776 9.30371C8.38776 11.789 10.4689 13.8037 13.036 13.8037C15.6032 13.8037 17.6842 11.789 17.6842 9.30371C17.6842 6.81843 15.6032 4.80371 13.036 4.80371C10.4689 4.80371 8.38776 6.81843 8.38776 9.30371ZM15.3602 9.30127C15.3602 10.5439 14.3196 11.5513 13.036 11.5513C11.7525 11.5513 10.7119 10.5439 10.7119 9.30127C10.7119 8.05863 11.7525 7.05127 13.036 7.05127C14.3196 7.05127 15.3602 8.05863 15.3602 9.30127Z" fill="#1F2337"/>
</svg>
