<svg width="33" height="34" viewBox="0 0 33 34" fill="none" xmlns="http://www.w3.org/2000/svg">
<mask id="mask0_3827_40388" style="mask-type:alpha" maskUnits="userSpaceOnUse" x="5" y="5" width="23" height="24">
<path d="M15.9594 14.9462L16.3129 15.2997L16.6665 14.9462L25.0408 6.57189C25.513 6.09968 26.2786 6.09968 26.7508 6.57189C27.223 7.0441 27.223 7.80971 26.7508 8.28193L18.3765 16.6562L18.023 17.0098L18.3765 17.3633L26.7508 25.7376C27.223 26.2098 27.223 26.9754 26.7508 27.4476C26.2786 27.9199 25.513 27.9199 25.0408 27.4476L16.6665 19.0734L16.3129 18.7198L15.9594 19.0734L7.58509 27.4476C7.11287 27.9199 6.34727 27.9199 5.87505 27.4476C5.40284 26.9754 5.40284 26.2098 5.87505 25.7376L14.2493 17.3633L14.6029 17.0098L14.2493 16.6562L5.87505 8.28193C5.40284 7.80971 5.40284 7.0441 5.87505 6.57189C6.34727 6.09968 7.11287 6.09968 7.58509 6.57189L15.9594 14.9462Z" fill="#5F5F5F" stroke="black"/>
</mask>
<g mask="url(#mask0_3827_40388)">
<rect x="0.614746" y="0.00976562" width="32" height="33.3264" fill="#5F5F5F"/>
</g>
</svg>
