<svg width="78" height="78" viewBox="0 0 78 78" fill="none" xmlns="http://www.w3.org/2000/svg">
<path d="M28.9372 19.3215V24.2217H24.037V29.1219H33.8374V19.3215H28.9372ZM47.95 19.4685C47.0677 19.4917 46.1933 19.6402 45.3529 19.9095C44.0298 20.3995 42.7558 21.1346 41.6777 22.2126L39.5216 24.3687C39.2114 24.5653 38.9494 24.8292 38.755 25.1407C38.5605 25.4523 38.4386 25.8035 38.3982 26.1686C38.3578 26.5336 38.4 26.903 38.5216 27.2496C38.6433 27.5961 38.8413 27.9108 39.1009 28.1705C39.3606 28.4302 39.6754 28.6282 40.0219 28.7498C40.3684 28.8715 40.7379 28.9137 41.1029 28.8733C41.4679 28.8329 41.8192 28.711 42.1307 28.5165C42.4423 28.322 42.7061 28.06 42.9028 27.7498L45.0589 25.5938C45.5979 25.0547 46.2349 24.7607 46.9209 24.5157C48.636 23.9277 50.7431 24.1727 52.1151 25.5938C54.0262 27.5048 54.0262 30.69 52.1151 32.65L44.7648 40.0003C44.4547 40.197 44.1926 40.4608 43.9982 40.7723C43.8037 41.0839 43.6818 41.4352 43.6414 41.8002C43.601 42.1652 43.6432 42.5347 43.7648 42.8812C43.8865 43.2277 44.0845 43.5425 44.3442 43.8022C44.6038 44.0618 44.9186 44.2598 45.2651 44.3815C45.6116 44.5031 45.9811 44.5453 46.3461 44.5049C46.7111 44.4645 47.0624 44.3426 47.374 44.1481C47.6855 43.9537 47.9493 43.6916 48.146 43.3815L55.4963 36.0312C56.7349 34.8029 57.6195 33.2635 58.057 31.5748C58.4944 29.8862 58.4686 28.1109 57.9821 26.4357C57.4956 24.7606 56.5664 23.2475 55.2925 22.0559C54.0186 20.8643 52.447 20.0382 50.7431 19.6645C49.861 19.4685 48.881 19.4685 47.999 19.5175L47.95 19.4685ZM30.3583 33.7281C29.9869 33.9069 29.6667 34.1766 29.4272 34.5121L22.0769 41.8624C21.1687 42.7642 20.4479 43.8368 19.956 45.0184C19.4642 46.2 19.2109 47.4673 19.2109 48.7472C19.2109 50.0271 19.4642 51.2943 19.956 52.4759C20.4479 53.6575 21.1687 54.7301 22.0769 55.6319C24.821 58.3761 28.7412 59.1601 32.1713 57.935C33.4944 57.445 34.7684 56.71 35.8465 55.6319L38.0026 53.4759C38.3128 53.2792 38.5748 53.0154 38.7692 52.7038C38.9637 52.3923 39.0856 52.041 39.126 51.676C39.1664 51.311 39.1242 50.9415 39.0026 50.595C38.8809 50.2485 38.6829 49.9337 38.4233 49.674C38.1636 49.4144 37.8488 49.2164 37.5023 49.0947C37.1558 48.9731 36.7863 48.9309 36.4213 48.9713C36.0563 49.0117 35.705 49.1336 35.3935 49.3281C35.0819 49.5225 34.8181 49.7845 34.6214 50.0947L32.4654 52.2508C31.9263 52.7898 31.2893 53.0838 30.6033 53.3289C28.8882 53.9169 26.7811 53.6719 25.4091 52.2508C23.498 50.3397 23.498 47.1546 25.4091 45.1945L32.7594 37.8442C33.1152 37.4738 33.3455 37.0008 33.4179 36.4923C33.4903 35.9837 33.401 35.4653 33.1626 35.0102C32.9243 34.5552 32.5489 34.1866 32.0897 33.9565C31.6304 33.7264 31.1104 33.6465 30.6033 33.7281C30.5054 33.7222 30.4072 33.7222 30.3093 33.7281H30.3583ZM43.6868 48.7227V58.5231H48.587V53.6229H53.4872V48.7227H43.6868Z" fill="#F52079"/>
<path fill-rule="evenodd" clip-rule="evenodd" d="M38.7891 5.42212C20.2875 5.42212 5.28906 20.4206 5.28906 38.9221C5.28906 57.4237 20.2875 72.4221 38.7891 72.4221C57.2906 72.4221 72.2891 57.4237 72.2891 38.9221C72.2891 20.4206 57.2906 5.42212 38.7891 5.42212ZM0.289062 38.9221C0.289062 17.6592 17.5261 0.422119 38.7891 0.422119C60.052 0.422119 77.2891 17.6592 77.2891 38.9221C77.2891 60.1851 60.052 77.4221 38.7891 77.4221C17.5261 77.4221 0.289062 60.1851 0.289062 38.9221Z" fill="#F52079"/>
</svg>
