<?xml version="1.0" encoding="utf-8"?>
<!-- Generator: Adobe Illustrator 25.2.1, SVG Export Plug-In . SVG Version: 6.00 Build 0)  -->
<svg version="1.1" id="Calque_1" xmlns="http://www.w3.org/2000/svg" xmlns:xlink="http://www.w3.org/1999/xlink" x="0px" y="0px"
	 viewBox="0 0 96 96" style="enable-background:new 0 0 96 96;" xml:space="preserve">
<style type="text/css">
	.st0{fill:#1F2337;}
	.st1{fill:#FFA318;}
	.st2{opacity:0.5;fill:url(#SVGID_1_);enable-background:new    ;}
	.st3{fill:#FFFFFF;}
	.st4{fill:#FFA318;fill-opacity:0.3;}
	.st5{fill-rule:evenodd;clip-rule:evenodd;fill:#FFA318;}
</style>
<g>
	<circle class="st0" cx="48" cy="48" r="48"/>
	<g>
		<path class="st1" d="M48,16.8c-3.49,6.28-18.4,13.47-28.03,12.21C19.07,41.93,26.39,67.53,48,79.43
			c21.61-11.9,28.93-37.51,28.03-50.42C66.4,30.27,51.49,23.08,48,16.8z"/>
		
			<linearGradient id="SVGID_1_" gradientUnits="userSpaceOnUse" x1="47.6105" y1="44.1063" x2="50.2452" y2="87.1663" gradientTransform="matrix(1 0 0 -1 0 98)">
			<stop  offset="0" style="stop-color:#111214"/>
			<stop  offset="1" style="stop-color:#D6D6E8"/>
		</linearGradient>
		<path class="st2" d="M44.15,39.68c0-2.41,1.84-4.25,4.25-4.25c2.41,0,4.25,1.84,4.25,4.25v2.83h2.83v-2.83
			c0-3.97-3.12-7.09-7.09-7.09s-7.09,3.12-7.09,7.09v2.83h2.84V39.68z M50.53,50.31c0-1.13-0.99-2.13-2.13-2.13
			c-1.13,0-2.13,0.99-2.13,2.13c0,0.57,0.28,1.13,0.71,1.56v1.98c0,0.85,0.57,1.42,1.42,1.42c0.85,0,1.42-0.57,1.42-1.42v-1.98
			C50.24,51.44,50.53,50.88,50.53,50.31z"/>
		<path class="st3" d="M55.49,42.51H41.31c-2.41,0-4.25,1.84-4.25,4.25v9.92c0,2.41,1.84,4.25,4.25,4.25h14.18
			c2.41,0,4.25-1.84,4.25-4.25v-9.92C59.74,44.36,57.9,42.51,55.49,42.51z M49.82,51.87v1.98c0,0.85-0.57,1.42-1.42,1.42
			c-0.85,0-1.42-0.57-1.42-1.42v-1.98c-0.43-0.43-0.71-0.99-0.71-1.56c0-1.13,0.99-2.13,2.13-2.13c1.13,0,2.13,0.99,2.13,2.13
			C50.53,50.88,50.24,51.44,49.82,51.87z"/>
		<g>
			<path class="st4" d="M48,79.2c21.61-11.9,28.93-37.51,28.03-50.42C66.41,30.03,51.49,22.84,48,16.57V79.2z"/>
		</g>
	</g>
	<g>
		<path class="st5" d="M48,91.05c23.77,0,43.05-19.27,43.05-43.05C91.05,24.23,71.78,4.95,48,4.95C24.23,4.95,4.95,24.23,4.95,48
			C4.95,71.77,24.23,91.05,48,91.05z M48,92.05c24.33,0,44.05-19.72,44.05-44.05C92.05,23.67,72.33,3.95,48,3.95
			C23.67,3.95,3.95,23.67,3.95,48C3.95,72.33,23.67,92.05,48,92.05z"/>
		<path class="st5" d="M89.94,49.5c0.01-0.17,0.01-0.33,0.01-0.5c0.01-0.33,0.01-0.67,0.01-1c0-0.33,0-0.67-0.01-1
			c0-0.17-0.01-0.33-0.01-0.5c-0.01-0.17-0.01-0.33-0.02-0.5c-0.55,0.02-0.98,0.47-0.96,1.02c0.01,0.33,0.01,0.65,0.01,0.98
			c0,0.33,0,0.65-0.01,0.98c-0.01,0.55,0.42,1,0.96,1.02C89.93,49.83,89.93,49.67,89.94,49.5z M85.31,67.23
			c-0.48-0.26-1.08-0.08-1.35,0.4c-0.31,0.57-0.64,1.13-0.98,1.69c-0.29,0.47-0.14,1.08,0.32,1.37c0.09-0.14,0.18-0.28,0.27-0.42
			c0.09-0.14,0.18-0.28,0.26-0.43c0.35-0.57,0.68-1.14,1-1.73c0.08-0.15,0.16-0.29,0.24-0.44C85.16,67.53,85.23,67.38,85.31,67.23z
			 M70.69,83.31c-0.29-0.46-0.9-0.61-1.37-0.32c-0.55,0.34-1.12,0.66-1.69,0.98c-0.48,0.26-0.66,0.86-0.4,1.35
			c0.15-0.08,0.3-0.15,0.44-0.23c0.15-0.08,0.29-0.16,0.44-0.24c0.58-0.32,1.16-0.65,1.73-1c0.14-0.09,0.28-0.17,0.42-0.26
			C70.41,83.49,70.55,83.4,70.69,83.31z M50,89.92c-0.02-0.55-0.47-0.98-1.02-0.96c-0.33,0.01-0.65,0.01-0.98,0.01
			c-0.33,0-0.65,0-0.98-0.01c-0.55-0.01-1,0.42-1.02,0.96c0.17,0.01,0.33,0.01,0.5,0.02c0.17,0.01,0.33,0.01,0.5,0.01
			c0.33,0.01,0.67,0.01,1,0.01c0.33,0,0.67,0,1-0.01c0.17,0,0.33-0.01,0.5-0.01C49.67,89.93,49.84,89.93,50,89.92z M28.77,85.31
			c0.26-0.48,0.08-1.08-0.4-1.35c-0.57-0.31-1.13-0.64-1.69-0.98c-0.47-0.29-1.08-0.14-1.37,0.32c0.14,0.09,0.28,0.18,0.42,0.27
			c0.14,0.09,0.28,0.18,0.43,0.26c0.57,0.35,1.14,0.68,1.73,1c0.15,0.08,0.29,0.16,0.44,0.24C28.47,85.16,28.62,85.23,28.77,85.31z
			 M12.69,70.69c0.46-0.29,0.61-0.9,0.32-1.37c-0.34-0.55-0.66-1.12-0.98-1.69c-0.26-0.48-0.86-0.66-1.35-0.4
			c0.08,0.15,0.15,0.3,0.23,0.44c0.08,0.15,0.16,0.29,0.24,0.44c0.32,0.58,0.65,1.16,1,1.73c0.09,0.14,0.17,0.28,0.26,0.43
			C12.51,70.41,12.6,70.55,12.69,70.69z M6.08,50c0.55-0.02,0.98-0.47,0.96-1.02C7.04,48.65,7.04,48.33,7.04,48
			c0-0.33,0-0.65,0.01-0.98c0.01-0.55-0.42-1-0.96-1.02c-0.01,0.17-0.01,0.33-0.02,0.5c-0.01,0.17-0.01,0.33-0.01,0.5
			c-0.01,0.33-0.01,0.67-0.01,1c0,0.33,0,0.67,0.01,1c0,0.17,0.01,0.33,0.01,0.5C6.07,49.67,6.07,49.83,6.08,50z M10.69,28.77
			c0.48,0.26,1.08,0.08,1.35-0.4c0.31-0.57,0.64-1.13,0.98-1.69c0.29-0.47,0.14-1.08-0.32-1.37c-0.09,0.14-0.18,0.28-0.27,0.42
			c-0.09,0.14-0.18,0.28-0.26,0.43c-0.35,0.57-0.68,1.14-1,1.73c-0.08,0.15-0.16,0.29-0.24,0.44
			C10.85,28.47,10.77,28.62,10.69,28.77z M25.31,12.69c0.29,0.46,0.9,0.61,1.37,0.32c0.55-0.34,1.12-0.66,1.69-0.98
			c0.48-0.26,0.66-0.86,0.4-1.35c-0.15,0.08-0.3,0.15-0.44,0.23c-0.15,0.08-0.29,0.16-0.44,0.24c-0.58,0.32-1.16,0.65-1.73,1
			c-0.14,0.09-0.28,0.17-0.43,0.26C25.59,12.51,25.45,12.6,25.31,12.69z M46,6.08c0.02,0.55,0.47,0.98,1.02,0.96
			c0.33-0.01,0.65-0.01,0.98-0.01c0.33,0,0.65,0,0.98,0.01c0.55,0.01,1-0.42,1.02-0.96c-0.17-0.01-0.33-0.01-0.5-0.02
			c-0.17-0.01-0.33-0.01-0.5-0.01c-0.33-0.01-0.67-0.01-1-0.01c-0.33,0-0.67,0-1,0.01c-0.17,0-0.33,0.01-0.5,0.01
			C46.33,6.07,46.17,6.07,46,6.08z M67.23,10.69c-0.26,0.48-0.08,1.08,0.4,1.35c0.57,0.31,1.13,0.64,1.69,0.98
			c0.47,0.29,1.08,0.14,1.37-0.32c-0.14-0.09-0.28-0.18-0.42-0.27c-0.14-0.09-0.28-0.18-0.42-0.26c-0.57-0.35-1.14-0.68-1.73-1
			c-0.15-0.08-0.29-0.16-0.44-0.24C67.53,10.84,67.38,10.77,67.23,10.69z M83.31,25.31c-0.46,0.29-0.61,0.9-0.32,1.37
			c0.34,0.55,0.66,1.12,0.98,1.69c0.26,0.48,0.86,0.66,1.35,0.4c-0.08-0.15-0.15-0.3-0.23-0.44c-0.08-0.15-0.16-0.29-0.24-0.44
			c-0.32-0.58-0.65-1.16-1-1.73c-0.09-0.14-0.17-0.28-0.26-0.43C83.49,25.59,83.4,25.45,83.31,25.31z"/>
	</g>
</g>
</svg>
