<svg width="22" height="23" viewBox="0 0 22 23" fill="none" xmlns="http://www.w3.org/2000/svg">
<path fill-rule="evenodd" clip-rule="evenodd" d="M2.81958 22.1928V8.74902H4.38739V22.1928H2.81958Z" fill="#4048FF"/>
<path fill-rule="evenodd" clip-rule="evenodd" d="M2.81958 3.48505V0.192871H4.38739V3.48505H2.81958Z" fill="#4048FF"/>
<path fill-rule="evenodd" clip-rule="evenodd" d="M3.60539 7.70939C4.4117 7.70939 5.06534 7.05575 5.06534 6.24944C5.06534 5.44313 4.4117 4.78949 3.60539 4.78949C2.79909 4.78949 2.14544 5.44313 2.14544 6.24944C2.14544 7.05575 2.79909 7.70939 3.60539 7.70939ZM3.60539 9.27719C5.27758 9.27719 6.63315 7.92162 6.63315 6.24944C6.63315 4.57725 5.27758 3.22168 3.60539 3.22168C1.93321 3.22168 0.577637 4.57725 0.577637 6.24944C0.577637 7.92162 1.93321 9.27719 3.60539 9.27719Z" fill="#4048FF"/>
<path fill-rule="evenodd" clip-rule="evenodd" d="M10.3687 12.5251V0.192871H11.9365V12.5251H10.3687Z" fill="#4048FF"/>
<path fill-rule="evenodd" clip-rule="evenodd" d="M10.3687 22.1917V17.4287H11.9365V22.1917H10.3687Z" fill="#4048FF"/>
<path fill-rule="evenodd" clip-rule="evenodd" d="M11.1545 16.435C11.9608 16.435 12.6144 15.7813 12.6144 14.975C12.6144 14.1687 11.9608 13.5151 11.1545 13.5151C10.3482 13.5151 9.69451 14.1687 9.69451 14.975C9.69451 15.7813 10.3482 16.435 11.1545 16.435ZM11.1545 18.0028C12.8266 18.0028 14.1822 16.6472 14.1822 14.975C14.1822 13.3028 12.8266 11.9473 11.1545 11.9473C9.48228 11.9473 8.12671 13.3028 8.12671 14.975C8.12671 16.6472 9.48228 18.0028 11.1545 18.0028Z" fill="#4048FF"/>
<path fill-rule="evenodd" clip-rule="evenodd" d="M17.9177 22.1928V8.74902H19.4855V22.1928H17.9177Z" fill="#4048FF"/>
<path fill-rule="evenodd" clip-rule="evenodd" d="M17.9177 3.48505V0.192871H19.4855V3.48505H17.9177Z" fill="#4048FF"/>
<path fill-rule="evenodd" clip-rule="evenodd" d="M18.7015 7.70939C19.5078 7.70939 20.1614 7.05575 20.1614 6.24944C20.1614 5.44313 19.5078 4.78949 18.7015 4.78949C17.8952 4.78949 17.2415 5.44313 17.2415 6.24944C17.2415 7.05575 17.8952 7.70939 18.7015 7.70939ZM18.7015 9.27719C20.3736 9.27719 21.7292 7.92162 21.7292 6.24944C21.7292 4.57725 20.3736 3.22168 18.7015 3.22168C17.0293 3.22168 15.6737 4.57725 15.6737 6.24944C15.6737 7.92162 17.0293 9.27719 18.7015 9.27719Z" fill="#4048FF"/>
</svg>
