<svg width="18" height="16" viewBox="0 0 18 16" fill="none" xmlns="http://www.w3.org/2000/svg">
<path d="M7.5145 10.0715V3.78899L15.2726 1.30609V13.153L8.84268 10.6053L8.32658 10.4008L8.28484 10.3839L7.5145 10.0715ZM3.21185 4.26286H6.44411V10.4083V10.9083H6.49103V12.0001V12.1498V12.5883V12.5969V15.0603H4.69999L3.85782 10.6525L3.78022 10.2464H3.3667H3.21185C3.03874 10.2464 2.90001 10.107 2.90001 9.93532V9.44493V8.94493H2.40001H2.2999C2.06555 8.94493 1.877 8.75606 1.877 8.52282V8.17712V7.67712H1.377C1.14293 7.67712 0.954102 7.48775 0.954102 7.25501C0.954102 7.02227 1.14293 6.83289 1.377 6.83289H1.877V6.33289V5.9872C1.877 5.75446 2.06582 5.56508 2.2999 5.56508H2.40001H2.90001V5.06508V4.57469C2.90001 4.40237 3.03937 4.26286 3.21185 4.26286Z" stroke="white"/>
<path d="M14.4264 1.58299C14.4264 1.22677 14.7157 0.9375 15.0719 0.9375C15.4281 0.9375 15.7174 1.22677 15.7174 1.58299V5.11232C16.5599 5.45969 17.1523 6.28771 17.1523 7.25531C17.1523 8.2229 16.5599 9.05029 15.7174 9.39766V12.927C15.7174 13.2838 15.4281 13.5731 15.0719 13.5731C14.7157 13.5731 14.4264 13.2838 14.4264 12.927V12.879L14.3936 12.8657V1.64488L14.4264 1.63162V1.58299Z" fill="white"/>
</svg>
