<svg width="31" height="31" viewBox="0 0 31 31" fill="none" xmlns="http://www.w3.org/2000/svg">
<path d="M17.9016 13.6052C16.8777 12.5818 15.4893 12.0068 14.0416 12.0068C12.5939 12.0068 11.2054 12.5818 10.1816 13.6052L6.32031 17.4652C5.29641 18.4891 4.72119 19.8778 4.72119 21.3259C4.72119 22.7739 5.29641 24.1626 6.32031 25.1865C7.34422 26.2104 8.73292 26.7856 10.1809 26.7856C11.629 26.7856 13.0177 26.2104 14.0416 25.1865L15.9716 23.2565" stroke="white" stroke-width="2" stroke-linecap="round" stroke-linejoin="round"/>
<path d="M14.041 17.465C15.0649 18.4885 16.4533 19.0634 17.901 19.0634C19.3487 19.0634 20.7371 18.4885 21.761 17.465L25.6223 13.605C26.6462 12.5811 27.2214 11.1924 27.2214 9.74442C27.2214 8.2964 26.6462 6.90769 25.6223 5.88379C24.5984 4.85989 23.2097 4.28467 21.7616 4.28467C20.3136 4.28467 18.9249 4.85989 17.901 5.88379L15.971 7.81379" stroke="white" stroke-width="2" stroke-linecap="round" stroke-linejoin="round"/>
</svg>
