<svg width="25" height="20" viewBox="0 0 25 20" fill="none" xmlns="http://www.w3.org/2000/svg">
<path fill-rule="evenodd" clip-rule="evenodd" d="M12.4539 5.62857V5.62857C12.4806 6.06805 12.1026 6.42431 11.6655 6.37154L11.6489 6.36954C8.53158 5.9732 5.80821 4.62911 3.49593 2.37173L2.98838 1.86884C2.69899 1.5821 2.20958 1.69451 2.0743 2.07878V2.07878C1.45769 3.9226 1.85163 5.86981 3.13624 7.17944C3.82136 7.90318 3.66721 8.00658 2.48537 7.57578V7.57578C1.95761 7.39879 1.65005 7.66662 1.78406 8.2069C1.91222 8.72359 2.1176 9.3534 2.29696 9.69531C2.74229 10.5569 3.65008 11.4013 4.64351 11.901V11.901C4.85073 11.9989 4.7839 12.3095 4.55477 12.3134L4.48935 12.3146C3.53018 12.3146 3.49593 12.3318 3.5987 12.6937C3.94126 13.8137 5.29437 15.0027 6.80164 15.5197L6.84432 15.5342C7.24602 15.6711 7.30318 16.2157 6.93867 16.433V16.433C5.56842 17.2257 3.95839 17.6737 2.34835 17.7082C1.57759 17.7254 0.943848 17.7943 0.943848 17.846C0.943848 18.0183 3.03347 18.9833 4.24956 19.3624C7.89784 20.4825 12.2312 20 15.4856 18.0873C17.7979 16.7259 20.1101 14.0205 21.1892 11.4013C21.7716 10.0055 22.3539 7.45515 22.3539 6.23168C22.3539 5.43901 22.4053 5.33562 23.3645 4.38787C23.9297 3.83644 24.4607 3.23332 24.5634 3.06101C24.7347 2.7336 24.7176 2.7336 23.8441 3.02654C22.3882 3.5435 22.1826 3.47457 22.902 2.69913C23.433 2.14771 24.0667 1.14826 24.0667 0.855316C24.0667 0.80362 23.8098 0.88978 23.5186 1.04487C23.2103 1.21719 22.5252 1.47567 22.0114 1.63075V1.63075C21.4272 1.81577 20.7905 1.72319 20.2832 1.37949L20.2472 1.35504C19.7847 1.04487 19.1338 0.700228 18.7913 0.596837C17.9177 0.355589 16.5818 0.390053 15.7939 0.665764C13.6529 1.4412 12.2997 3.44011 12.4539 5.62857Z" fill="#8D8D8D"/>
</svg>
