<svg width="23" height="23" viewBox="0 0 23 23" fill="none" xmlns="http://www.w3.org/2000/svg">
<path fill-rule="evenodd" clip-rule="evenodd" d="M11.4638 0.151855C8.47612 0.151855 8.10118 0.164919 6.92774 0.21832C5.75659 0.271949 4.95719 0.457362 4.25771 0.729407C3.53417 1.01039 2.9204 1.38626 2.30893 1.99796C1.697 2.60943 1.32114 3.22319 1.03924 3.9465C0.766504 4.64621 0.580862 5.44585 0.528149 6.61653C0.475665 7.78997 0.461914 8.16515 0.461914 11.1528C0.461914 14.1405 0.475207 14.5143 0.528378 15.6878C0.582237 16.8589 0.76765 17.6583 1.03947 18.3578C1.32068 19.0813 1.69654 19.6951 2.30824 20.3066C2.91949 20.9185 3.53325 21.2953 4.25633 21.5763C4.95627 21.8483 5.7559 22.0337 6.92682 22.0873C8.10026 22.1407 8.47498 22.1538 11.4624 22.1538C14.4503 22.1538 14.8241 22.1407 15.9976 22.0873C17.1687 22.0337 17.9691 21.8483 18.669 21.5763C19.3923 21.2953 20.0051 20.9185 20.6164 20.3066C21.2283 19.6951 21.6042 19.0813 21.8861 18.358C22.1565 17.6583 22.3422 16.8587 22.3972 15.688C22.4499 14.5145 22.4636 14.1405 22.4636 11.1528C22.4636 8.16515 22.4499 7.7902 22.3972 6.61676C22.3422 5.44562 22.1565 4.64621 21.8861 3.94673C21.6042 3.22319 21.2283 2.60943 20.6164 1.99796C20.0045 1.38603 19.3925 1.01016 18.6683 0.729407C17.967 0.457362 17.1671 0.271949 15.996 0.21832C14.8225 0.164919 14.449 0.151855 11.4604 0.151855H11.4638ZM10.4757 2.13672C10.7686 2.13626 11.0954 2.13672 11.4626 2.13672C14.3999 2.13672 14.748 2.14726 15.9079 2.19997C16.9805 2.24902 17.5626 2.42825 17.9504 2.57882C18.4638 2.77821 18.8298 3.01657 19.2146 3.4016C19.5996 3.78664 19.838 4.15334 20.0379 4.66671C20.1884 5.05404 20.3679 5.63618 20.4167 6.70877C20.4694 7.86846 20.4809 8.21682 20.4809 11.1527C20.4809 14.0886 20.4694 14.437 20.4167 15.5966C20.3677 16.6692 20.1884 17.2514 20.0379 17.6387C19.8385 18.1521 19.5996 18.5176 19.2146 18.9024C18.8296 19.2875 18.464 19.5258 17.9504 19.7252C17.5631 19.8765 16.9805 20.0552 15.9079 20.1043C14.7482 20.157 14.3999 20.1685 11.4626 20.1685C8.5251 20.1685 8.17697 20.157 7.01728 20.1043C5.94469 20.0548 5.36255 19.8756 4.97454 19.725C4.46116 19.5256 4.09446 19.2872 3.70943 18.9022C3.32439 18.5172 3.08604 18.1514 2.88619 17.6378C2.73561 17.2505 2.55616 16.6683 2.50734 15.5957C2.45463 14.436 2.44409 14.0877 2.44409 11.15C2.44409 8.21224 2.45463 7.86571 2.50734 6.70602C2.55639 5.63342 2.73561 5.05129 2.88619 4.66351C3.08558 4.15013 3.32439 3.78343 3.70943 3.39839C4.09446 3.01336 4.46116 2.775 4.97454 2.57515C5.36232 2.42389 5.94469 2.24512 7.01728 2.19585C8.03212 2.15001 8.42541 2.13626 10.4757 2.13397V2.13672ZM17.3381 3.96095C16.6092 3.96095 16.0179 4.55157 16.0179 5.28061C16.0179 6.00943 16.6092 6.60073 17.3381 6.60073C18.0669 6.60073 18.6582 6.00943 18.6582 5.28061C18.6582 4.5518 18.0669 3.96049 17.3381 3.96049V3.96095ZM11.4664 5.50472C8.34647 5.50472 5.81694 8.03426 5.81694 11.1542C5.81694 14.2741 8.34647 16.8025 11.4664 16.8025C14.5863 16.8025 17.1149 14.2741 17.1149 11.1542C17.1149 8.03426 14.5861 5.50472 11.4662 5.50472H11.4664ZM11.4649 7.48637C13.49 7.48637 15.1319 9.12804 15.1319 11.1534C15.1319 13.1785 13.49 14.8204 11.4649 14.8204C9.43955 14.8204 7.79789 13.1785 7.79789 11.1534C7.79789 9.12804 9.43955 7.48637 11.4649 7.48637Z" fill="#8D8D8D"/>
</svg>
