<?xml version="1.0" encoding="utf-8"?>
<!-- Generator: Adobe Illustrator 25.2.1, SVG Export Plug-In . SVG Version: 6.00 Build 0)  -->
<svg version="1.1" id="Calque_1" xmlns="http://www.w3.org/2000/svg" xmlns:xlink="http://www.w3.org/1999/xlink" x="0px" y="0px"
	 viewBox="0 0 96 96" style="enable-background:new 0 0 96 96;" xml:space="preserve">
<style type="text/css">
	.st0{fill:url(#SVGID_1_);}
	.st1{fill:url(#SVGID_2_);}
	.st2{fill-rule:evenodd;clip-rule:evenodd;fill:url(#SVGID_3_);}
	.st3{fill-rule:evenodd;clip-rule:evenodd;fill:url(#SVGID_4_);}
	.st4{fill:url(#SVGID_5_);}
	.st5{fill:url(#SVGID_6_);}
	.st6{fill:url(#SVGID_7_);}
	.st7{fill:url(#SVGID_8_);}
	.st8{fill:url(#SVGID_9_);}
	.st9{fill:url(#SVGID_10_);}
	.st10{fill:url(#SVGID_11_);}
	.st11{fill:url(#SVGID_12_);}
	.st12{fill:#1F2337;}
	.st13{fill:#F52079;}
	.st14{fill:#00CC9E;}
	.st15{fill:#FF4E98;}
	.st16{fill:#BF2169;}
	.st17{opacity:0.5;fill:#DD2172;enable-background:new    ;}
</style>
<g>
	
		<radialGradient id="SVGID_1_" cx="0.9768" cy="96.8487" r="1" gradientTransform="matrix(2.939152e-15 48 48 -2.939152e-15 -4600.7358 1.1147)" gradientUnits="userSpaceOnUse">
		<stop  offset="0" style="stop-color:#47526A"/>
		<stop  offset="1" style="stop-color:#1F2337"/>
	</radialGradient>
	<circle class="st0" cx="48" cy="48" r="48"/>
	
		<linearGradient id="SVGID_2_" gradientUnits="userSpaceOnUse" x1="72.9981" y1="38.632" x2="31.3318" y2="31.7206" gradientTransform="matrix(1 0 0 -1 0 98)">
		<stop  offset="0" style="stop-color:#F52079"/>
		<stop  offset="1" style="stop-color:#F52079;stop-opacity:0"/>
	</linearGradient>
	<path class="st1" d="M85.07,44.53c0.14,0.24,0.13,0.56,0.04,0.82l-2.87,8.58c-0.1,0.33-0.44,0.59-0.76,0.67
		c-0.09,0.02-0.35,0.08-0.45,0.08l-4.16,0.12l4.73,17.15c0.14,0.52-0.12,1-0.65,1.15L62,78.32c-0.53,0.15-1.01-0.13-1.15-0.65
		l-4.73-17.15l-3.24,1.93c-0.37,0.24-0.77,0.17-1.09-0.12l-6.82-5.89c-0.22-0.19-0.34-0.44-0.34-0.72
		c-0.01-0.29,0.13-0.52,0.34-0.71l8.56-7.37l4.51-1.24c0.53-0.15,1,0.12,1.15,0.65c0.51,1.86,3.48,2.46,5.34,1.94
		c1.86-0.51,4.2-2.57,3.68-4.43c-0.14-0.52,0.12-1,0.65-1.15l4.51-1.24l11.01,1.88C84.68,44.1,84.93,44.28,85.07,44.53z"/>
	
		<linearGradient id="SVGID_3_" gradientUnits="userSpaceOnUse" x1="35.3099" y1="28.2938" x2="34.1346" y2="20.9854" gradientTransform="matrix(1 0 0 -1 0 98)">
		<stop  offset="0" style="stop-color:#F29201"/>
		<stop  offset="1" style="stop-color:#B85800"/>
	</linearGradient>
	<path class="st2" d="M26.76,68.47c3.02,0.01,6.86,1.35,9.03,3.99c2.16,2.64,5.74,2.95,9.01,4.06l-0.35,2.15
		c-2.75-0.93-8.16-2.37-9.81-4.38c-1.65-2.01-4.66-3.51-7.71-3.52C24.16,70.77,23.97,68.46,26.76,68.47z"/>
	
		<linearGradient id="SVGID_4_" gradientUnits="userSpaceOnUse" x1="29.2924" y1="43.1903" x2="29.2924" y2="13.0038" gradientTransform="matrix(1 0 0 -1 0 98)">
		<stop  offset="0" style="stop-color:#F29201"/>
		<stop  offset="1" style="stop-color:#B85800"/>
	</linearGradient>
	<path class="st3" d="M32.22,36.6c-10.12-1.63-19.63,5.21-21.25,15.27s5.28,19.53,15.39,21.16C36.48,74.65,46,67.81,47.61,57.76
		C49.23,47.7,42.34,38.23,32.22,36.6z M24.92,42.6c0.65,0.1,1.27,0.34,1.83,0.68c0.56,0.34,1.05,0.8,1.43,1.33
		c0.38,0.53,0.66,1.14,0.81,1.77c0.15,0.64,0.18,1.3,0.07,1.95c-0.1,0.65-0.34,1.27-0.68,1.83c-0.34,0.56-0.8,1.05-1.33,1.43
		c-0.53,0.38-1.14,0.66-1.77,0.81c-0.64,0.15-1.3,0.18-1.95,0.07c-1.31-0.21-2.48-0.93-3.26-2.01c-0.78-1.08-1.1-2.42-0.88-3.73
		c0.21-1.31,0.93-2.48,2.01-3.26C22.27,42.71,23.61,42.39,24.92,42.6z M21.35,64.83c-0.65-0.1-1.27-0.34-1.83-0.68
		c-0.56-0.34-1.05-0.8-1.43-1.33c-0.38-0.53-0.66-1.14-0.81-1.77c-0.15-0.64-0.18-1.3-0.07-1.95c0.1-0.65,0.34-1.27,0.68-1.83
		c0.34-0.56,0.8-1.05,1.33-1.43c0.53-0.38,1.14-0.66,1.77-0.81c0.64-0.15,1.3-0.18,1.95-0.07c1.31,0.21,2.48,0.93,3.26,2.01
		c0.78,1.08,1.1,2.42,0.88,3.73s-0.93,2.48-2.01,3.26C24,64.72,22.66,65.04,21.35,64.83z M27.35,54.43c0.18-1.12,1.27-1.88,2.42-1.7
		c1.16,0.19,1.95,1.25,1.77,2.37c-0.18,1.12-1.27,1.88-2.42,1.7c-0.55-0.08-1.04-0.38-1.37-0.82
		C27.41,55.53,27.27,54.98,27.35,54.43z M33.7,66.81c-0.65-0.1-1.27-0.34-1.83-0.68c-0.56-0.34-1.05-0.8-1.43-1.33
		c-0.38-0.53-0.66-1.14-0.81-1.77c-0.15-0.64-0.18-1.3-0.07-1.95c0.1-0.65,0.34-1.27,0.68-1.83c0.34-0.56,0.8-1.05,1.33-1.43
		c0.53-0.38,1.14-0.66,1.77-0.81c0.64-0.15,1.3-0.18,1.95-0.07c1.31,0.21,2.48,0.93,3.26,2.01c0.78,1.08,1.1,2.42,0.88,3.73
		c-0.21,1.31-0.93,2.48-2.01,3.26S35.01,67.02,33.7,66.81z M35.68,54.47c-0.65-0.1-1.27-0.34-1.83-0.68
		c-0.56-0.34-1.05-0.8-1.43-1.33c-0.38-0.53-0.66-1.14-0.81-1.77c-0.15-0.64-0.18-1.3-0.07-1.95c0.1-0.65,0.34-1.27,0.68-1.83
		c0.34-0.56,0.8-1.05,1.33-1.43c0.53-0.38,1.14-0.66,1.77-0.81c0.64-0.15,1.3-0.18,1.95-0.07c1.31,0.21,2.48,0.93,3.26,2.01
		c0.78,1.08,1.1,2.42,0.88,3.73c-0.21,1.31-0.93,2.48-2.01,3.26S36.99,54.68,35.68,54.47z"/>
	<g>
		
			<linearGradient id="SVGID_5_" gradientUnits="userSpaceOnUse" x1="34.8377" y1="37.2271" x2="34.8377" y2="26.2167" gradientTransform="matrix(0.8345 0.551 0.551 -0.8345 -12.3009 69.3694)">
			<stop  offset="0" style="stop-color:#FFED8E"/>
			<stop  offset="0.099" style="stop-color:#FFA829"/>
			<stop  offset="1" style="stop-color:#C36301"/>
		</linearGradient>
		<path class="st4" d="M34.24,67.6c-1.07,0-2.11-0.31-3.02-0.91c-2.53-1.67-3.23-5.09-1.56-7.63c1.67-2.53,5.09-3.24,7.63-1.56l0,0
			c2.53,1.67,3.23,5.09,1.56,7.63c-0.81,1.23-2.05,2.07-3.49,2.36C34.98,67.56,34.61,67.6,34.24,67.6z M34.26,57.59
			c-1.46,0-2.9,0.71-3.77,2.02c-1.37,2.07-0.8,4.87,1.28,6.24c1,0.66,2.21,0.89,3.39,0.65c1.18-0.24,2.19-0.93,2.86-1.93
			c1.37-2.07,0.8-4.87-1.28-6.24l0,0C35.97,57.83,35.11,57.59,34.26,57.59z"/>
	</g>
	<g>
		
			<linearGradient id="SVGID_6_" gradientUnits="userSpaceOnUse" x1="22.9759" y1="39.2438" x2="22.9759" y2="28.2342" gradientTransform="matrix(0.8345 0.551 0.551 -0.8345 -15.3751 75.5711)">
			<stop  offset="0" style="stop-color:#FFED8E"/>
			<stop  offset="0.099" style="stop-color:#FFA829"/>
			<stop  offset="1" style="stop-color:#C36301"/>
		</linearGradient>
		<path class="st5" d="M22.38,65.58c-1.07,0-2.11-0.31-3.02-0.91c-1.23-0.81-2.07-2.05-2.36-3.49c-0.29-1.44-0.01-2.91,0.8-4.14
			c1.67-2.53,5.1-3.23,7.63-1.56l0,0c1.23,0.81,2.07,2.05,2.36,3.49c0.29,1.44,0.01,2.91-0.8,4.14c-0.81,1.23-2.05,2.07-3.49,2.36
			C23.12,65.54,22.75,65.58,22.38,65.58z M22.4,55.57c-1.46,0-2.9,0.71-3.77,2.02c-0.66,1-0.9,2.21-0.65,3.39
			c0.24,1.18,0.93,2.19,1.93,2.86c1,0.66,2.2,0.89,3.39,0.65c1.18-0.24,2.19-0.93,2.86-1.93c0.66-1,0.9-2.21,0.65-3.39
			s-0.93-2.19-1.93-2.86l0,0C24.11,55.81,23.25,55.57,22.4,55.57z"/>
	</g>
	<g>
		
			<linearGradient id="SVGID_7_" gradientUnits="userSpaceOnUse" x1="37.3384" y1="48.8323" x2="37.3384" y2="37.8225" gradientTransform="matrix(0.7207 0.6933 0.6933 -0.7207 -20.8646 54.6622)">
			<stop  offset="0" style="stop-color:#FFED8E"/>
			<stop  offset="0.099" style="stop-color:#FFA829"/>
			<stop  offset="1" style="stop-color:#C36301"/>
		</linearGradient>
		<path class="st6" d="M36.08,54.83c-1.43,0-2.78-0.54-3.81-1.54c-1.06-1.02-1.66-2.39-1.69-3.86c-0.03-1.47,0.52-2.86,1.54-3.92
			s2.39-1.66,3.86-1.69c1.46-0.03,2.86,0.52,3.92,1.54c2.19,2.1,2.25,5.6,0.15,7.78c-1.02,1.06-2.39,1.66-3.86,1.69
			C36.15,54.83,36.12,54.83,36.08,54.83z M36.08,44.82c-1.18,0-2.36,0.46-3.25,1.38c-0.83,0.87-1.28,2.01-1.26,3.21
			c0.02,1.2,0.51,2.33,1.38,3.16s2.02,1.29,3.21,1.26c1.2-0.02,2.33-0.51,3.16-1.38c1.72-1.79,1.67-4.65-0.12-6.37
			C38.33,45.24,37.21,44.82,36.08,44.82z"/>
	</g>
	<g>
		
			<linearGradient id="SVGID_8_" gradientUnits="userSpaceOnUse" x1="30.6565" y1="41.1185" x2="30.6565" y2="34.8884" gradientTransform="matrix(0.7207 0.6933 0.6933 -0.7207 -19.0402 60.7821)">
			<stop  offset="0" style="stop-color:#FFED8E"/>
			<stop  offset="0.099" style="stop-color:#FFA829"/>
			<stop  offset="1" style="stop-color:#C36301"/>
		</linearGradient>
		<path class="st7" d="M29.4,57.76c-0.81,0-1.57-0.31-2.16-0.87c-0.6-0.58-0.94-1.35-0.95-2.18c-0.02-0.83,0.29-1.62,0.87-2.22
			c0.58-0.6,1.35-0.94,2.18-0.96c0.82,0,1.62,0.29,2.22,0.87c0.6,0.58,0.94,1.35,0.95,2.18s-0.29,1.62-0.87,2.22
			c-0.58,0.6-1.35,0.94-2.18,0.96C29.44,57.76,29.42,57.76,29.4,57.76z M29.4,52.53c-0.01,0-0.03,0-0.04,0
			c-0.56,0.01-1.09,0.24-1.48,0.65s-0.6,0.94-0.59,1.51c0.01,0.56,0.24,1.09,0.65,1.48s0.94,0.6,1.51,0.59
			c0.56-0.01,1.09-0.24,1.48-0.65s0.6-0.94,0.59-1.51c-0.01-0.57-0.24-1.09-0.65-1.48l0,0C30.47,52.74,29.95,52.53,29.4,52.53z"/>
	</g>
	<g>
		
			<linearGradient id="SVGID_9_" gradientUnits="userSpaceOnUse" x1="25.6307" y1="49.655" x2="25.6307" y2="38.6441" gradientTransform="matrix(0.6378 0.7702 0.7702 -0.6378 -26.4933 56.2692)">
			<stop  offset="0" style="stop-color:#FFED8E"/>
			<stop  offset="0.099" style="stop-color:#FFA829"/>
			<stop  offset="1" style="stop-color:#C36301"/>
		</linearGradient>
		<path class="st8" d="M23.87,53.36c-0.17,0-0.35-0.01-0.52-0.02c-1.46-0.14-2.79-0.84-3.73-1.97c-1.94-2.34-1.61-5.82,0.73-7.75
			c1.13-0.94,2.56-1.38,4.03-1.24c1.46,0.14,2.79,0.84,3.72,1.97l0,0c0.94,1.13,1.38,2.56,1.24,4.03c-0.14,1.46-0.84,2.79-1.97,3.72
			C26.37,52.92,25.15,53.36,23.87,53.36z M23.85,43.35c-1.05,0-2.05,0.36-2.87,1.04c-1.91,1.58-2.18,4.43-0.6,6.34
			c0.77,0.93,1.85,1.5,3.05,1.61s2.37-0.25,3.3-1.02c0.93-0.77,1.5-1.85,1.61-3.05s-0.25-2.37-1.02-3.29l0,0
			c-0.77-0.93-1.85-1.5-3.05-1.61C24.14,43.35,23.99,43.35,23.85,43.35z"/>
	</g>
	
		<linearGradient id="SVGID_10_" gradientUnits="userSpaceOnUse" x1="33.6692" y1="56.0859" x2="26.1325" y2="21.44" gradientTransform="matrix(0.8345 0.551 0.551 -0.8345 -17.2041 70.8099)">
		<stop  offset="0" style="stop-color:#FFD79C"/>
		<stop  offset="0.1458" style="stop-color:#FFA829"/>
		<stop  offset="1" style="stop-color:#C36301"/>
	</linearGradient>
	<path class="st9" d="M29.36,73.22c-3.6,0-7.12-1.05-10.19-3.08c-4.14-2.73-6.96-6.91-7.96-11.77s-0.04-9.81,2.69-13.95
		c2.73-4.14,6.91-6.96,11.77-7.96c4.86-1,9.81-0.04,13.95,2.69c4.14,2.73,6.96,6.91,7.96,11.77c0.99,4.86,0.04,9.81-2.69,13.95
		c-2.73,4.14-6.91,6.96-11.77,7.96C31.87,73.09,30.61,73.22,29.36,73.22z M29.44,37.08c-1.18,0-2.37,0.12-3.56,0.36
		c-4.6,0.94-8.55,3.61-11.13,7.53c-2.58,3.91-3.49,8.6-2.55,13.2s3.61,8.55,7.53,11.13s8.6,3.49,13.2,2.55
		c4.6-0.94,8.55-3.61,11.13-7.53c2.58-3.92,3.49-8.6,2.55-13.2c-0.94-4.6-3.61-8.55-7.53-11.13l0,0
		C36.17,38.08,32.84,37.08,29.44,37.08z"/>
	
		<linearGradient id="SVGID_11_" gradientUnits="userSpaceOnUse" x1="56.4041" y1="89.3664" x2="43.7389" y2="63.2521" gradientTransform="matrix(1 0 0 -1 0 98)">
		<stop  offset="0" style="stop-color:#4048FF"/>
		<stop  offset="1" style="stop-color:#9698D2"/>
	</linearGradient>
	<path class="st10" d="M67.3,29.07c1.88-7.88,1.35-12.82-1.66-15.56c-0.63-0.57-1.35-1.05-2.12-1.42c-1.02-0.49-2.02-0.67-3.09-0.87
		c-1.28-0.23-2.74-0.49-4.61-1.4c-1.87-0.91-2.98-1.89-3.96-2.75c-0.81-0.72-1.57-1.39-2.59-1.89c-0.79-0.39-1.64-0.66-2.51-0.82
		c-3.99-0.66-8.2,1.99-13.25,8.33c-5.43,6.82-6.93,12.07-4.23,14.76c0.37,0.37,0.8,0.68,1.27,0.91c2.22,1.08,4.9,0.09,6.85-0.83
		c2.21-1.05,4.24-1.14,9.21,1.28c4.45,2.16,5.99,3.65,6.62,6.4c0.4,1.73,0.92,3.06,1.59,4.06c0.9,1.34,2.07,2.1,3.49,2.28
		c2.23,0.28,4.17-0.92,5.75-3.55C65.3,35.97,66.35,33.05,67.3,29.07z M47.09,18.77l-2.37-1.15L43.56,20
		c-0.15,0.31-0.42,0.56-0.75,0.67c-0.33,0.11-0.69,0.09-1.01-0.06c-0.31-0.15-0.56-0.42-0.67-0.75s-0.09-0.69,0.06-1.01l1.15-2.37
		l-2.37-1.15c-0.31-0.15-0.56-0.42-0.67-0.75c-0.11-0.33-0.09-0.69,0.06-1.01c0.15-0.31,0.42-0.56,0.75-0.67
		c0.33-0.11,0.69-0.09,1.01,0.06l2.37,1.15l1.15-2.37c0.15-0.31,0.42-0.56,0.75-0.67c0.33-0.11,0.69-0.09,1.01,0.06
		c0.31,0.15,0.56,0.42,0.67,0.75c0.11,0.33,0.09,0.69-0.06,1.01l-1.15,2.37l2.37,1.15c0.31,0.15,0.56,0.42,0.67,0.75
		c0.11,0.33,0.09,0.69-0.06,1.01c-0.15,0.31-0.42,0.56-0.75,0.67C47.76,18.95,47.4,18.93,47.09,18.77z M53.17,22.09
		c-0.29-0.14-0.54-0.37-0.7-0.65c-0.16-0.28-0.24-0.61-0.22-0.93c0.02-0.33,0.13-0.64,0.33-0.9s0.47-0.46,0.77-0.56
		c0.31-0.11,0.64-0.12,0.96-0.04c0.32,0.08,0.6,0.26,0.82,0.5c0.22,0.24,0.36,0.55,0.4,0.87c0.04,0.32-0.01,0.65-0.15,0.95
		c-0.19,0.39-0.53,0.69-0.94,0.84C54.02,22.31,53.57,22.28,53.17,22.09z M54.85,26.94c-0.29-0.14-0.54-0.37-0.7-0.65
		c-0.16-0.28-0.24-0.61-0.22-0.93c0.02-0.33,0.13-0.64,0.33-0.9c0.2-0.26,0.47-0.46,0.78-0.56c0.31-0.11,0.64-0.12,0.96-0.04
		c0.32,0.08,0.6,0.26,0.82,0.5c0.22,0.24,0.36,0.55,0.4,0.87c0.04,0.32-0.01,0.65-0.15,0.95c-0.19,0.39-0.53,0.69-0.94,0.84
		C55.7,27.16,55.25,27.13,54.85,26.94z M58.02,20.41c-0.29-0.14-0.54-0.37-0.7-0.65c-0.16-0.28-0.24-0.61-0.22-0.93
		c0.02-0.33,0.13-0.64,0.33-0.9s0.47-0.46,0.77-0.56c0.31-0.11,0.64-0.12,0.96-0.04c0.32,0.08,0.6,0.26,0.82,0.5
		c0.22,0.24,0.36,0.55,0.4,0.87c0.04,0.32-0.01,0.65-0.15,0.95c-0.19,0.39-0.53,0.69-0.94,0.84C58.87,20.63,58.41,20.6,58.02,20.41z
		 M59.7,25.26c-0.29-0.14-0.54-0.37-0.7-0.65c-0.16-0.28-0.24-0.61-0.22-0.93c0.02-0.33,0.13-0.64,0.33-0.9
		c0.2-0.26,0.47-0.46,0.77-0.56c0.31-0.11,0.64-0.12,0.96-0.04c0.32,0.08,0.6,0.26,0.82,0.5c0.22,0.24,0.36,0.55,0.4,0.87
		c0.04,0.32-0.01,0.65-0.15,0.95c-0.19,0.39-0.53,0.7-0.94,0.84C60.55,25.48,60.09,25.45,59.7,25.26z"/>
	
		<linearGradient id="SVGID_12_" gradientUnits="userSpaceOnUse" x1="50.5506" y1="80.6959" x2="43.5851" y2="73.5648" gradientTransform="matrix(1 0 0 -1 0 98)">
		<stop  offset="0" style="stop-color:#FFFFFF"/>
		<stop  offset="1" style="stop-color:#DEDEDE"/>
	</linearGradient>
	<path class="st11" d="M47.2,18.48l-2.37-1.15l-1.15,2.37c-0.15,0.31-0.42,0.56-0.75,0.67c-0.33,0.11-0.69,0.09-1.01-0.06
		c-0.31-0.15-0.56-0.42-0.67-0.75c-0.11-0.33-0.09-0.69,0.06-1.01l1.15-2.37l-2.37-1.15c-0.31-0.15-0.56-0.42-0.67-0.75
		c-0.11-0.33-0.09-0.69,0.06-1.01c0.15-0.31,0.42-0.56,0.75-0.67c0.33-0.11,0.69-0.09,1.01,0.06l2.37,1.15l1.15-2.37
		c0.15-0.31,0.42-0.56,0.75-0.67c0.33-0.11,0.69-0.09,1.01,0.06c0.31,0.15,0.56,0.42,0.67,0.75c0.11,0.33,0.09,0.69-0.06,1.01
		l-1.15,2.37l2.37,1.15c0.31,0.15,0.56,0.42,0.67,0.75c0.11,0.33,0.09,0.69-0.06,1.01c-0.15,0.31-0.42,0.56-0.75,0.67
		C47.88,18.66,47.52,18.63,47.2,18.48z M54.97,26.65c-0.29-0.14-0.54-0.37-0.7-0.65c-0.16-0.28-0.24-0.61-0.22-0.93
		c0.02-0.33,0.13-0.64,0.33-0.9c0.2-0.26,0.47-0.46,0.78-0.56c0.31-0.11,0.64-0.12,0.96-0.04c0.32,0.08,0.6,0.26,0.82,0.5
		c0.22,0.24,0.36,0.55,0.4,0.87c0.04,0.32-0.01,0.65-0.15,0.95c-0.19,0.39-0.53,0.69-0.94,0.84C55.82,26.86,55.36,26.84,54.97,26.65
		z"/>
	<path class="st12" d="M59.11,24.32c0.16,0.28,0.41,0.51,0.7,0.65c0.39,0.19,0.85,0.22,1.26,0.07c0.41-0.14,0.75-0.44,0.94-0.84
		c0.14-0.29,0.19-0.62,0.15-0.95c-0.04-0.32-0.18-0.63-0.4-0.87c-0.22-0.24-0.5-0.42-0.82-0.5c-0.32-0.08-0.65-0.07-0.96,0.04
		c-0.31,0.11-0.58,0.3-0.77,0.56s-0.31,0.57-0.33,0.9C58.87,23.71,58.95,24.03,59.11,24.32z"/>
	<path class="st13" d="M57.43,19.47c0.16,0.28,0.41,0.51,0.7,0.65c0.39,0.19,0.85,0.22,1.26,0.07c0.41-0.14,0.75-0.44,0.94-0.84
		c0.14-0.29,0.19-0.62,0.15-0.95c-0.04-0.32-0.18-0.63-0.4-0.87c-0.22-0.24-0.5-0.42-0.82-0.5c-0.32-0.08-0.65-0.07-0.96,0.04
		c-0.31,0.11-0.58,0.3-0.77,0.56c-0.2,0.26-0.31,0.57-0.33,0.9C57.19,18.86,57.27,19.19,57.43,19.47z"/>
	<path class="st14" d="M52.59,21.15c0.16,0.28,0.41,0.51,0.7,0.65c0.39,0.19,0.85,0.22,1.26,0.07c0.41-0.14,0.75-0.44,0.94-0.84
		c0.14-0.29,0.19-0.62,0.15-0.95c-0.04-0.32-0.18-0.63-0.4-0.87c-0.22-0.24-0.5-0.42-0.82-0.5c-0.32-0.08-0.65-0.07-0.96,0.04
		c-0.31,0.11-0.58,0.3-0.77,0.56c-0.2,0.26-0.31,0.57-0.33,0.9C52.34,20.54,52.42,20.87,52.59,21.15z"/>
	<path class="st15" d="M76.51,54.31c-0.18,0-0.36-0.1-0.45-0.28c-2.22-4.45-2.49-8.91-2.32-10.65c0.03-0.28,0.28-0.47,0.55-0.45
		c0.27,0.03,0.48,0.27,0.45,0.55c-0.16,1.64,0.1,5.86,2.21,10.1c0.12,0.25,0.02,0.55-0.22,0.67C76.66,54.29,76.58,54.31,76.51,54.31
		z"/>
	<path class="st16" d="M62.93,50.73c-2.38,0-4.74-1.06-5.45-3.4c-0.08-0.26,0.07-0.54,0.33-0.62c0.27-0.08,0.54,0.07,0.62,0.33
		c0.67,2.23,3.46,2.99,5.75,2.57c2.18-0.4,4.65-2.02,4.43-5.27c-0.02-0.28,0.19-0.51,0.47-0.53c0.25-0.01,0.51,0.19,0.53,0.47
		c0.26,3.91-2.67,5.85-5.25,6.32C63.89,50.69,63.41,50.73,62.93,50.73z"/>
	<path class="st17" d="M56.31,59.3c-0.25,0-0.47-0.19-0.5-0.45c-0.44-4.29-1.76-8.18-2.4-9.63c-0.11-0.25,0-0.55,0.26-0.66
		c0.25-0.11,0.55,0,0.66,0.26c0.66,1.5,2.03,5.51,2.48,9.93c0.03,0.27-0.17,0.52-0.45,0.55C56.34,59.3,56.33,59.3,56.31,59.3z"/>
</g>
</svg>
