<svg width="25" height="25" viewBox="0 0 25 25" fill="none" xmlns="http://www.w3.org/2000/svg">
<path d="M10.7419 14.3506V8.06804L18.5001 5.58515V17.432L12.0701 14.8844L11.554 14.6799L11.5123 14.663L10.7419 14.3506ZM6.43926 8.54191H9.67152V14.6874V15.1874H9.71845V16.2792V16.4288V16.8673V16.8759V19.3394H7.9274L7.08524 14.9316L7.00763 14.5254H6.59412H6.43926C6.26616 14.5254 6.12743 14.3861 6.12743 14.2144V13.724V13.224H5.62743H5.52731C5.29296 13.224 5.10442 13.0351 5.10442 12.8019V12.4562V11.9562H4.60442C4.37034 11.9562 4.18152 11.7668 4.18152 11.5341C4.18152 11.3013 4.37034 11.1119 4.60442 11.1119H5.10442V10.6119V10.2662C5.10442 10.0335 5.29324 9.84413 5.52731 9.84413H5.62743H6.12743V9.34413V8.85375C6.12743 8.68142 6.26678 8.54191 6.43926 8.54191Z" stroke="white"/>
<path d="M17.6538 5.86204C17.6538 5.50582 17.9431 5.21655 18.2993 5.21655C18.6555 5.21655 18.9448 5.50582 18.9448 5.86204V9.39137C19.7873 9.73875 20.3798 10.5668 20.3798 11.5344C20.3798 12.502 19.7873 13.3293 18.9448 13.6767V17.206C18.9448 17.5629 18.6555 17.8522 18.2993 17.8522C17.9431 17.8522 17.6538 17.5629 17.6538 17.206V17.158L17.621 17.1448V5.92393L17.6538 5.91067V5.86204Z" fill="white"/>
</svg>
