<svg width="29" height="22" viewBox="0 0 29 22" fill="none" xmlns="http://www.w3.org/2000/svg">
<path fill-rule="evenodd" clip-rule="evenodd" d="M28.1094 3.9095C27.7808 2.64701 26.8125 1.65286 25.5829 1.31546C23.3546 0.702271 14.4186 0.702271 14.4186 0.702271C14.4186 0.702271 5.4826 0.702271 3.25416 1.31546C2.02459 1.65286 1.05625 2.64701 0.727626 3.9095C0.130615 6.19761 0.130615 10.9718 0.130615 10.9718C0.130615 10.9718 0.130615 15.7458 0.727626 18.034C1.05625 19.2965 2.02459 20.2907 3.25416 20.6282C5.4826 21.2413 14.4186 21.2413 14.4186 21.2413C14.4186 21.2413 23.3546 21.2413 25.5829 20.6282C26.8125 20.2907 27.7808 19.2965 28.1094 18.034C28.7066 15.7458 28.7066 10.9718 28.7066 10.9718C28.7066 10.9718 28.7066 6.19761 28.1094 3.9095Z" fill="#8D8D8D"/>
<path fill-rule="evenodd" clip-rule="evenodd" d="M11.7405 15.8803V6.95026L18.8845 11.4154L11.7405 15.8803Z" fill="#EEEEEE"/>
</svg>
