<svg width="28" height="29" viewBox="0 0 28 29" fill="none" xmlns="http://www.w3.org/2000/svg">
<path d="M13.9998 20.8907C14.6625 20.8907 15.1998 20.3535 15.1998 19.6907C15.1998 19.028 14.6625 18.4907 13.9998 18.4907C13.3371 18.4907 12.7998 19.028 12.7998 19.6907C12.7998 20.3535 13.3371 20.8907 13.9998 20.8907Z" fill="#FFA318"/>
<path d="M13.9998 8.89063C13.6815 8.89063 13.3763 9.01705 13.1513 9.2421C12.9262 9.46714 12.7998 9.77237 12.7998 10.0906L12.7998 16.0906C12.7998 16.4089 12.9262 16.7141 13.1513 16.9392C13.3763 17.1642 13.6815 17.2906 13.9998 17.2906C14.3181 17.2906 14.6233 17.1642 14.8483 16.9392C15.0734 16.7141 15.1998 16.4089 15.1998 16.0906L15.1998 10.0906C15.1998 9.77237 15.0734 9.46714 14.8483 9.2421C14.6233 9.01705 14.3181 8.89063 13.9998 8.89063Z" fill="#FFA318"/>
<circle cx="14" cy="14.8906" r="13" transform="rotate(-180 14 14.8906)" stroke="#FFA318" stroke-width="2"/>
</svg>
