<svg width="14" height="19" viewBox="0 0 14 19" fill="none" xmlns="http://www.w3.org/2000/svg">
<path d="M0.0959475 17.5938C0.0959476 17.1125 0.486147 16.7223 0.967483 16.7223L13.0504 16.7223C13.5317 16.7223 13.9219 17.1125 13.9219 17.5938C13.9219 18.0751 13.5317 18.4653 13.0504 18.4653L0.967483 18.4653C0.486147 18.4653 0.0959474 18.0751 0.0959475 17.5938Z" fill="white"/>
<path fill-rule="evenodd" clip-rule="evenodd" d="M13.3222 8.59555C13.6542 8.26066 13.6542 7.72071 13.3222 7.38582C12.9861 7.04686 12.4381 7.04687 12.1021 7.38582L7.87301 11.6511L7.87301 1.32946C7.87301 0.852214 7.48613 0.465332 7.00889 0.465332C6.53164 0.465332 6.14476 0.852213 6.14476 1.32946L6.14476 11.6511L1.91571 7.38582C1.57964 7.04686 1.03169 7.04686 0.695615 7.38582C0.363574 7.72071 0.363573 8.26066 0.695614 8.59555L3.55239 11.4768L6.29876 14.2468C6.68997 14.6413 7.3278 14.6413 7.719 14.2468L13.3222 8.59555Z" fill="white"/>
</svg>
