<svg width="20" height="19" viewBox="0 0 20 19" fill="none" xmlns="http://www.w3.org/2000/svg">
<path d="M0.55957 2.55125C0.55957 1.93969 0.773855 1.43516 1.20241 1.03766C1.63096 0.64015 2.18809 0.441402 2.87378 0.441402C3.54723 0.441402 4.0921 0.637086 4.50842 1.02849C4.93697 1.43211 5.15125 1.95803 5.15125 2.60629C5.15125 3.19337 4.9431 3.6826 4.52678 4.07401C4.09823 4.47763 3.53498 4.67944 2.83704 4.67944H2.81868C2.14522 4.67944 1.60036 4.47763 1.18404 4.07401C0.76772 3.67038 0.55957 3.16279 0.55957 2.55125ZM0.798338 18.6044V6.34897H4.87575V18.6044H0.798338ZM7.13486 18.6044H11.2123V11.7612C11.2123 11.3331 11.2613 11.0028 11.3592 10.7705C11.5306 10.3546 11.7908 10.003 12.1398 9.71555C12.4888 9.42811 12.9265 9.28441 13.453 9.28441C14.8244 9.28441 15.5101 10.2078 15.5101 12.0547V18.6044H19.5875V11.5777C19.5875 9.76752 19.1589 8.3946 18.3018 7.45893C17.4447 6.52326 16.3121 6.05543 14.904 6.05543C13.3244 6.05543 12.0939 6.73425 11.2123 8.09189V8.12858H11.1939L11.2123 8.09189V6.34897H7.13486C7.15934 6.74035 7.17159 7.95733 7.17159 9.99992C7.17159 12.0425 7.15934 14.9106 7.13486 18.6044Z" fill="#8D8D8D"/>
</svg>
