<svg width="22" height="23" viewBox="0 0 22 23" fill="none" xmlns="http://www.w3.org/2000/svg">
<circle cx="11" cy="11.582" r="10" stroke="white" stroke-width="2"/>
<path d="M15.0468 8.44167C15.2971 8.19137 15.2971 7.78555 15.0468 7.53525C14.7965 7.28494 14.3907 7.28494 14.1404 7.53525L11.7071 9.9685C11.3166 10.359 10.6834 10.359 10.2929 9.9685L7.85964 7.53525C7.60934 7.28494 7.20352 7.28494 6.95321 7.53525C6.70291 7.78555 6.70291 8.19137 6.95321 8.44167L9.38646 10.8749C9.77699 11.2654 9.77699 11.8986 9.38646 12.2891L6.95321 14.7224C6.70291 14.9727 6.70291 15.3785 6.95321 15.6288C7.20352 15.8791 7.60934 15.8791 7.85964 15.6288L10.2929 13.1956C10.6834 12.805 11.3166 12.805 11.7071 13.1956L14.1404 15.6288C14.3907 15.8791 14.7965 15.8791 15.0468 15.6288C15.2971 15.3785 15.2971 14.9727 15.0468 14.7224L12.6135 12.2891C12.223 11.8986 12.223 11.2654 12.6135 10.8749L15.0468 8.44167Z" fill="white"/>
</svg>
