<svg width="43" height="38" viewBox="0 0 43 38" fill="none" xmlns="http://www.w3.org/2000/svg">
<path fill-rule="evenodd" clip-rule="evenodd" d="M31.9104 14.9524C32.1832 14.6797 32.3364 14.3097 32.3364 13.9239C32.3364 13.5381 32.1832 13.1682 31.9104 12.8954C31.6376 12.6226 31.2676 12.4694 30.8819 12.4694H23.6092C23.2234 12.4694 22.8534 12.6226 22.5806 12.8954C22.3079 13.1682 22.1546 13.5381 22.1546 13.9239C22.1546 14.3097 22.3079 14.6797 22.5806 14.9524C22.8534 15.2252 23.2234 15.3785 23.6092 15.3785H30.8819C31.2676 15.3785 31.6376 15.2252 31.9104 14.9524ZM23.6092 18.2876H30.8819C31.2676 18.2876 31.6376 18.4408 31.9104 18.7136C32.1832 18.9864 32.3364 19.3563 32.3364 19.7421C32.3364 20.1279 32.1832 20.4978 31.9104 20.7706C31.6376 21.0434 31.2676 21.1966 30.8819 21.1966H23.6092C23.2234 21.1966 22.8534 21.0434 22.5806 20.7706C22.3079 20.4978 22.1546 20.1279 22.1546 19.7421C22.1546 19.3563 22.3079 18.9864 22.5806 18.7136C22.8534 18.4408 23.2234 18.2876 23.6092 18.2876ZM19.7935 24.3094C19.8202 24.1202 19.8095 23.9276 19.7619 23.7426C19.3194 22.0222 18.2608 20.5239 16.7872 19.5319C17.6135 18.7234 18.1803 17.687 18.4151 16.5549C18.65 15.4229 18.5422 14.2466 18.1056 13.176C17.669 12.1055 16.9234 11.1893 15.9638 10.5444C15.0043 9.89943 13.8744 9.55498 12.7182 9.55498C11.5621 9.55498 10.4322 9.89943 9.47264 10.5444C8.5131 11.1893 7.76747 12.1055 7.33087 13.176C6.89427 14.2466 6.78651 15.4229 7.02134 16.5549C7.25617 17.687 7.82294 18.7234 8.64933 19.5319C7.1756 20.524 6.11718 22.0224 5.67479 23.743C5.62679 23.9281 5.61577 24.1209 5.64234 24.3103C5.66892 24.4996 5.73259 24.6819 5.82969 24.8467C5.92679 25.0114 6.05543 25.1554 6.20824 25.2704C6.36105 25.3853 6.53503 25.4691 6.72023 25.5167C6.90543 25.5644 7.09821 25.5751 7.28753 25.5482C7.47686 25.5212 7.65903 25.4572 7.8236 25.3598C7.98817 25.2624 8.13192 25.1335 8.24662 24.9805C8.36133 24.8275 8.44473 24.6534 8.49206 24.4681C8.73446 23.5316 9.28105 22.7021 10.046 22.11C10.8109 21.5178 11.7509 21.1965 12.7182 21.1965C13.6856 21.1965 14.6256 21.5178 15.3905 22.11C16.1554 22.7021 16.702 23.5316 16.9444 24.4681C16.9921 24.6531 17.0757 24.8269 17.1905 24.9796C17.3053 25.1323 17.449 25.2609 17.6135 25.358C17.778 25.4551 17.96 25.5189 18.1492 25.5457C18.3383 25.5725 18.5309 25.5617 18.7159 25.5141C18.9009 25.4665 19.0747 25.3829 19.2274 25.2681C19.3801 25.1533 19.5086 25.0095 19.6058 24.845C19.7029 24.6805 19.7667 24.4985 19.7935 24.3094ZM14.3344 17.7973C13.856 18.1169 13.2936 18.2876 12.7182 18.2876C11.947 18.2867 11.2075 17.9799 10.6622 17.4345C10.1168 16.8892 9.81002 16.1497 9.80915 15.3785C9.80915 14.8031 9.97977 14.2407 10.2994 13.7623C10.6191 13.2839 11.0734 12.911 11.605 12.6908C12.1365 12.4706 12.7215 12.413 13.2858 12.5253C13.8501 12.6375 14.3684 12.9146 14.7753 13.3214C15.1821 13.7283 15.4592 14.2466 15.5714 14.8109C15.6837 15.3752 15.6261 15.9602 15.4059 16.4917C15.1857 17.0233 14.8128 17.4776 14.3344 17.7973ZM38.1546 22.9157V3.7421C38.1537 2.97083 37.847 2.23139 37.3016 1.68602C36.7562 1.14065 36.0168 0.833874 35.2455 0.833008H3.24552C2.47424 0.833874 1.73481 1.14065 1.18944 1.68602C0.644063 2.23139 0.337292 2.97083 0.336426 3.7421V29.9239C0.337292 30.6952 0.644063 31.4346 1.18944 31.98C1.73481 32.5254 2.47424 32.8321 3.24552 32.833H27.5498C27.056 32.2084 26.7617 31.4181 26.7617 30.5569V30.4879L26.7621 30.4693C26.7655 30.2842 26.7827 30.102 26.8127 29.9239H3.24552V3.7421H35.2455L35.2468 21.8106C35.3245 21.8057 35.4028 21.8032 35.4817 21.8032H35.5322C36.5607 21.8032 37.4907 22.2299 38.1546 22.9157Z" fill="#ADADC8"/>
<path d="M40.5854 29.0102H37.1833V25.608C37.1833 24.6986 36.4422 23.9575 35.5327 23.9575H35.4822C34.5559 23.9575 33.8148 24.6986 33.8148 25.608V29.0102H30.4296C29.5201 29.0102 28.779 29.7512 28.7622 30.6607V30.7112C28.7622 31.6375 29.5033 32.3786 30.4296 32.3786H33.8148V35.7638C33.8148 36.6733 34.5559 37.4312 35.4822 37.4144H35.5327C36.4422 37.4144 37.1833 36.6733 37.1833 35.7638V32.3786H40.5854C41.4948 32.3786 42.2359 31.6375 42.2359 30.728V30.6607C42.2359 29.7512 41.4948 29.0102 40.5854 29.0102Z" fill="#ADADC8"/>
</svg>
