<svg width="161" height="161" viewBox="0 0 161 161" fill="none" xmlns="http://www.w3.org/2000/svg">
<path d="M161 80.5C161 124.959 124.959 161 80.5 161C36.0411 161 0 124.959 0 80.5C0 36.0411 36.0411 0 80.5 0C124.959 0 161 36.0411 161 80.5Z" fill="#F52079"/>
<g filter="url(#filter0_d_1594_37947)">
<path d="M58.7495 85.0124C58.7495 85.0124 63.5896 93.0097 68.2575 94.3893C72.9254 95.7689 76.7147 90.1996 78.199 84.419" stroke="url(#paint0_linear_1594_37947)" stroke-width="4.19833" stroke-linecap="round"/>
<path d="M69.7656 92.1973C70.0796 92.9781 70.492 93.9097 70.2511 96.1886" stroke="#C7D2D7" stroke-opacity="0.3" stroke-width="0.991273" stroke-linecap="round"/>
<path d="M67.6184 91.9805C67.7505 92.5823 67.9441 93.3118 67.2285 94.7127" stroke="#C7D2D7" stroke-opacity="0.3" stroke-width="0.991273" stroke-linecap="round"/>
<path d="M72.0745 91.5977C72.5667 91.9683 73.1887 92.3958 73.5581 93.9249" stroke="#C7D2D7" stroke-opacity="0.3" stroke-width="0.991273" stroke-linecap="round"/>
</g>
<g filter="url(#filter1_d_1594_37947)">
<g filter="url(#filter2_d_1594_37947)">
<path d="M53.4434 79.8062C57.5712 79.3425 61.5214 81.7721 62.7355 85.8627C65.4726 95.0844 67.8895 107.27 66.1108 111.311C64.158 115.747 58.8795 117.623 55.4435 118.193L55.4445 118.202C55.2088 118.24 54.9502 118.275 54.6721 118.304C54.3944 118.337 54.1346 118.361 53.8963 118.376L53.8953 118.367C50.4184 118.573 44.8554 117.916 41.9669 114.023C39.3359 110.477 38.9892 98.0593 39.6121 88.4602C39.8884 84.2021 43.2011 80.9567 47.3289 80.493L53.4434 79.8062Z" fill="url(#paint1_linear_1594_37947)"/>
<g filter="url(#filter3_d_1594_37947)">
<rect x="42.9622" y="91.1836" width="8.49235" height="6.84821" rx="0.607181" transform="rotate(-6.40923 42.9622 91.1836)" fill="url(#paint2_linear_1594_37947)"/>
<rect x="42.8503" y="91.0943" width="8.69475" height="7.05061" rx="0.708378" transform="rotate(-6.40923 42.8503 91.0943)" stroke="#EFF2F3" stroke-width="0.202394"/>
</g>
<path d="M46.3726 93.6596L46.3624 93.6607C46.5249 93.2238 46.9197 92.8926 47.412 92.8373C47.7296 92.8016 48.033 92.8868 48.2769 93.0565L48.2847 93.0556L48.7888 92.999C48.443 92.6109 47.9223 92.3908 47.3688 92.453C46.5242 92.5479 45.9001 93.2665 45.8982 94.102L46.9609 93.9825L47.0041 94.3667L45.9411 94.4861L45.9419 94.4891C45.9722 94.6198 46.0175 94.744 46.0757 94.8602L47.0471 94.751L47.157 95.729C47.2831 95.7606 47.4146 95.7776 47.5489 95.7781L47.4287 94.7083L47.8104 94.6654L47.9306 95.7354C48.0615 95.705 48.1859 95.6594 48.3019 95.6005L48.192 94.6224L49.1634 94.5133C49.2094 94.3264 49.2237 94.1282 49.2009 93.9255C49.1782 93.7228 49.1202 93.5327 49.0339 93.3606L48.8079 93.386L46.3726 93.6596ZM47.7673 94.2811L47.3857 94.324L47.3425 93.9398L47.7241 93.8969L47.7673 94.2811ZM48.8267 94.1621L48.149 94.2382L48.1058 93.854L48.7835 93.7779C48.8 93.8395 48.8121 93.9031 48.8195 93.9684C48.8268 94.0337 48.8291 94.0983 48.8267 94.1621Z" fill="#9FF9FF"/>
<path d="M47.2807 91.6801C45.9477 91.8298 44.9894 93.0391 45.1401 94.3809C45.2909 95.7228 46.4936 96.6893 47.8265 96.5396C49.1595 96.3899 50.1178 95.1806 49.9671 93.8387C49.8163 92.4968 48.6136 91.5303 47.2807 91.6801ZM47.7833 96.1547C46.6615 96.2807 45.6493 95.4673 45.5224 94.338C45.3956 93.2087 46.2021 92.191 47.3239 92.065C48.4457 91.9389 49.4579 92.7523 49.5848 93.8817C49.7116 95.011 48.9051 96.0287 47.7833 96.1547Z" fill="#9FF9FF"/>
<g filter="url(#filter4_d_1594_37947)">
<ellipse cx="57.16" cy="91.0414" rx="1.40392" ry="1.44348" transform="rotate(-6.40923 57.16 91.0414)" fill="url(#paint3_radial_1594_37947)"/>
<path d="M57.3325 92.5764C58.1611 92.4833 58.7507 91.7185 58.6558 90.8734C58.5608 90.0283 57.8163 89.4133 56.9876 89.5064C56.1589 89.5995 55.5694 90.3643 55.6643 91.2094C55.7593 92.0545 56.5038 92.6695 57.3325 92.5764Z" stroke="#EFF2F3" stroke-width="0.202394"/>
</g>
<g filter="url(#filter5_d_1594_37947)">
<ellipse cx="57.6022" cy="94.977" rx="1.40392" ry="1.44348" transform="rotate(-6.40923 57.6022 94.977)" fill="url(#paint4_radial_1594_37947)"/>
<path d="M57.7746 96.512C58.6033 96.4189 59.1928 95.6541 59.0979 94.8089C59.003 93.9638 58.2584 93.3489 57.4298 93.4419C56.6011 93.535 56.0115 94.2999 56.1065 95.145C56.2014 95.9901 56.9459 96.6051 57.7746 96.512Z" stroke="#EFF2F3" stroke-width="0.202394"/>
</g>
<path d="M57.4627 112.526L57.5054 109.153L64.2513 109.238L64.2087 112.611L57.4627 112.526ZM65.6351 131.477C65.8431 133.329 64.5109 134.998 62.6595 135.206C60.8082 135.414 59.1388 134.082 58.9308 132.23L65.6351 131.477ZM64.2087 112.611C64.1391 118.106 65.1736 127.369 65.6351 131.477L58.9308 132.23C58.4872 128.281 57.3867 118.537 57.4627 112.526L64.2087 112.611Z" fill="white"/>
<path d="M50.8103 117.297L51.7525 114.058L45.2745 112.174L44.3323 115.413L50.8103 117.297ZM40.6106 132.904C40.2427 134.73 41.4249 136.509 43.2512 136.877C45.0775 137.244 46.8562 136.062 47.2242 134.236L40.6106 132.904ZM44.3323 115.413C43.9819 116.618 43.0322 121.111 42.2145 125.057C41.7945 127.085 41.3936 129.046 41.0978 130.5C40.9498 131.227 40.8281 131.827 40.7433 132.246C40.701 132.456 40.6678 132.62 40.6452 132.732C40.6339 132.788 40.6253 132.831 40.6195 132.859C40.6166 132.874 40.6143 132.885 40.6129 132.892C40.6121 132.896 40.6115 132.899 40.6112 132.901C40.611 132.902 40.6108 132.902 40.6107 132.903C40.6107 132.903 40.6106 132.903 40.6106 132.903C40.6106 132.903 40.6106 132.904 43.9174 133.57C47.2242 134.236 47.2242 134.236 47.2242 134.236C47.2242 134.236 47.2242 134.236 47.2243 134.235C47.2244 134.235 47.2245 134.234 47.2247 134.233C47.225 134.232 47.2256 134.229 47.2263 134.225C47.2278 134.218 47.2299 134.207 47.2328 134.193C47.2385 134.165 47.2471 134.122 47.2583 134.067C47.2807 133.956 47.3136 133.793 47.3558 133.584C47.4402 133.167 47.5614 132.569 47.7088 131.845C48.0036 130.396 48.4028 128.443 48.8207 126.426C49.6789 122.284 50.5561 118.171 50.8103 117.297L44.3323 115.413Z" fill="white"/>
<path d="M64.6252 112.779C61.4485 115.797 52.8242 120.49 43.741 115.125" stroke="#C7D2D7" stroke-opacity="0.3" stroke-width="1.1469" stroke-linecap="round"/>
<path d="M64.7461 119.504C63.6305 119.963 62.3038 120.551 58.9223 120.65" stroke="#C7D2D7" stroke-opacity="0.3" stroke-width="1.1469" stroke-linecap="round"/>
<path d="M43.9509 119.885C45.0671 120.357 46.3945 120.96 49.776 121.098" stroke="#C7D2D7" stroke-opacity="0.3" stroke-width="1.1469" stroke-linecap="round"/>
<path d="M62.1899 124.062C61.6217 124.192 60.9427 124.367 59.3183 124.143" stroke="#C7D2D7" stroke-opacity="0.3" stroke-width="1.1469" stroke-linecap="round"/>
<path d="M44.4414 123.631C44.9985 123.811 45.6627 124.045 47.298 123.966" stroke="#C7D2D7" stroke-opacity="0.3" stroke-width="1.1469" stroke-linecap="round"/>
</g>
<g filter="url(#filter6_d_1594_37947)">
<path d="M40.3194 86.0297C35.9159 88.2615 32.673 93.3669 31.9832 97.6423C31.477 100.78 31.7033 105.497 34.9113 109.506" stroke="url(#paint5_linear_1594_37947)" stroke-width="4.85745" stroke-linecap="round"/>
<path d="M34.4419 97.7207C33.5436 97.7009 32.4559 97.7146 30.3297 96.5115" stroke="#C7D2D7" stroke-opacity="0.3" stroke-width="1.1469" stroke-linecap="round"/>
<path d="M35.0591 94.5117C34.5067 94.5114 33.8231 94.5434 32.9649 93.5485" stroke="#C7D2D7" stroke-opacity="0.3" stroke-width="1.1469" stroke-linecap="round"/>
<path d="M33.6301 100.441C33.1644 100.644 32.6054 100.917 31.3511 100.571" stroke="#C7D2D7" stroke-opacity="0.3" stroke-width="1.1469" stroke-linecap="round"/>
</g>
<path d="M31.2186 107.518C29.7452 108.481 29.5414 110.541 30.7992 111.756L33.1832 114.059C33.4753 114.341 33.817 114.547 34.1818 114.675C39.7023 120.884 38.829 124.553 41.6033 123.376C43.264 121.861 43.7437 119.165 42.8782 115.242C42.8272 115.12 42.7769 114.999 42.7279 114.88C43.7484 116.056 44.7651 115.728 45.0115 114.819C45.2438 113.962 43.5711 112.408 41.6799 111.053C41.4021 110.891 41.0323 110.692 40.6047 110.491C40.6958 109.969 40.635 109.42 40.4043 108.91L39.1431 106.125C38.4492 104.593 36.532 104.046 35.1109 104.975L31.2186 107.518Z" fill="#282522"/>
<g filter="url(#filter7_d_1594_37947)">
<path d="M47.3371 84.3952C36.967 83.9734 28.9024 75.2248 29.3242 64.8547C29.746 54.4846 38.4945 46.4199 48.8646 46.8417C59.2347 47.2635 67.2994 56.0121 66.8776 66.3822C66.4558 76.7523 57.7072 84.817 47.3371 84.3952Z" fill="url(#paint6_radial_1594_37947)"/>
<path d="M35.7164 67.1983C36.0036 69.7552 36.8512 71.0631 39.0994 71.5523L58.1946 69.4073C60.2782 68.4316 60.8145 66.9682 60.5273 64.4113C59.5062 55.3214 53.5797 52.6298 46.7283 53.3994C39.877 54.169 34.6874 58.0376 35.7164 67.1983Z" fill="url(#paint7_linear_1594_37947)" stroke="#AE6666" stroke-opacity="0.5" stroke-width="0.202394"/>
<g style="mix-blend-mode:multiply">
<path d="M36.3458 61.7124C37.6682 57.5673 39.8439 54.9447 46.069 53.7707C42.8782 55.296 45.439 58.6768 45.5383 62.455C45.6611 66.9182 38.7916 68.5598 40.0446 69.8362C40.4444 70.237 41.013 70.4428 41.5781 70.3831L58.5393 68.5602C58.3393 68.9929 58.3184 69.1617 57.7138 69.2224L39.5436 71.2635C38.9786 71.3231 37.5915 71.114 36.5417 69.4652C35.8436 68.3686 36.0315 62.6977 36.3458 61.7124Z" fill="url(#paint8_radial_1594_37947)"/>
</g>
<path d="M38.7115 66.6732C38.4609 68.1159 40.2191 69.8634 41.7906 69.6868" stroke="white" stroke-width="1.08579" stroke-linecap="round"/>
<path d="M56.667 60.9314C56.1917 59.0461 54.0453 55.3871 49.2618 55.8341" stroke="white" stroke-width="1.37533" stroke-linecap="round"/>
</g>
<path fill-rule="evenodd" clip-rule="evenodd" d="M67.3257 127.222C64.9092 127.841 60.796 128.896 56.5786 128.149C56.1493 128.073 55.7585 128.439 55.832 128.869L57.4741 138.468C57.4817 138.513 57.4939 138.556 57.5107 138.597L57.4393 138.604C57.483 139.236 57.6813 141.19 57.8279 142.634C57.8849 143.196 57.9341 143.68 57.9632 143.98C58.1306 145.697 63.3999 145.183 64.2653 144.232C65.0417 145.01 66.7844 144.847 67.5651 144.774C67.6731 144.764 67.7627 144.756 67.8287 144.752C72.3645 144.482 74.3525 143.581 74.6226 143.075C74.6226 143.075 75.1451 142.819 74.9733 141.057C74.7214 138.473 71.3122 138.297 68.1696 138.23L68.424 127.722C68.4336 127.328 68.0717 127.031 67.689 127.129C67.5727 127.158 67.4515 127.189 67.3257 127.222Z" fill="#282522"/>
<path d="M66.9228 142.083C70.7905 142.876 73.728 141.682 74.6785 141.102C74.3975 138.218 69.803 138.391 67.9368 138.572C64.6807 138.89 65.5398 139.066 64.705 140.082C63.5678 141.465 63.055 141.29 66.9228 142.083Z" fill="url(#paint9_linear_1594_37947)"/>
<path fill-rule="evenodd" clip-rule="evenodd" d="M39.1895 127.09C41.4793 127.85 45.5552 129.124 50.1155 128.766C50.5395 128.733 50.8841 129.12 50.7829 129.533L48.5658 138.585C48.5463 138.664 48.5113 138.739 48.4621 138.803C48.308 139.696 47.9634 141.568 47.7047 142.556C47.4375 143.577 47.2026 144.172 46.3629 144.376C45.5351 146.032 43.3795 147.045 39.0828 146.121C34.8278 145.206 34.8387 144.388 34.8443 143.975C34.8443 143.971 34.8444 143.967 34.8444 143.963C34.7771 144.297 34.7564 144.4 35.2123 142.133C35.4742 140.831 36.5263 139.583 37.9805 138.679C37.9725 138.674 37.9645 138.669 37.9565 138.664C37.7767 138.552 37.6805 138.346 37.6947 138.135L38.3963 127.625C38.4227 127.229 38.8132 126.966 39.1895 127.09Z" fill="#282522"/>
<path d="M43.9711 143.154C41.4187 143.809 36.4123 142.12 35.8883 141.528C35.7189 140.351 37.8579 138.71 39.2698 138.526C41.3761 138.251 44.0657 139.079 44.6067 139.994C44.81 140.338 46.5234 142.499 43.9711 143.154Z" fill="url(#paint10_linear_1594_37947)"/>
</g>
<path d="M78.3018 89.8319C79.766 91.0031 81.9189 90.5247 82.7306 88.8477L84.269 85.6693C84.4575 85.2799 84.5522 84.8655 84.5604 84.4538C87.5153 82.5923 88.5615 81.4299 86.4324 77.8334C84.4863 74.5459 84.4375 73.5698 82.2439 75.4633C82.137 75.5555 80.488 76.7457 80.3841 76.8348C81.2349 75.4111 79.0296 73.1617 78.2028 73.7143C77.376 74.267 77.8594 75.3603 77.9894 76.8515C77.8707 78.8036 78.2517 78.8443 78.1905 79.3439C77.6324 79.425 77.0965 79.6692 76.6577 80.0719L74.2581 82.2742C72.938 83.4858 73.0216 85.6081 74.4338 86.7378L78.3018 89.8319Z" fill="#282522"/>
<ellipse cx="105.397" cy="52.1921" rx="39.3972" ry="39.3972" fill="url(#paint11_radial_1594_37947)"/>
<path d="M104.656 29.888C100.573 29.888 97.4444 33.0159 97.4444 37.0984V41.5098H93.2693V37.0984C93.2693 30.7213 98.2777 25.7139 104.656 25.7139C111.035 25.7139 116.043 30.7213 116.043 37.0984V41.5098H111.868V37.0984C111.868 33.0159 108.74 29.888 104.656 29.888Z" fill="white" stroke="#FFC107" stroke-width="0.474665"/>
<path d="M93.043 41.5401H116.292C120.113 41.5401 123.029 44.4555 123.029 48.2759V64.5465C123.029 68.3668 120.113 71.2822 116.292 71.2822H93.043C89.2217 71.2822 86.3057 68.3668 86.3057 64.5465V48.2759C86.3057 44.4555 89.2217 41.5401 93.043 41.5401ZM107.23 59.8977V56.7404C107.922 56.0175 108.392 55.0615 108.392 54.0868C108.392 52.0962 106.658 50.3629 104.667 50.3629C102.676 50.3629 100.943 52.0962 100.943 54.0868C100.943 55.0615 101.412 56.0175 102.105 56.7404V59.8977C102.105 60.649 102.357 61.2935 102.814 61.7507C103.271 62.208 103.916 62.4594 104.667 62.4594C105.419 62.4594 106.063 62.208 106.521 61.7507C106.978 61.2935 107.23 60.649 107.23 59.8977Z" fill="white" stroke="#FFC107" stroke-width="0.474665"/>
<path d="M92.4192 13.2332C92.4749 13.0826 92.6879 13.0826 92.7436 13.2332L93.323 14.7991C93.3405 14.8465 93.3778 14.8838 93.4252 14.9013L94.9911 15.4807C95.1417 15.5364 95.1417 15.7494 94.9911 15.8051L93.4252 16.3845C93.3778 16.402 93.3405 16.4394 93.323 16.4867L92.7436 18.0526C92.6879 18.2032 92.4749 18.2032 92.4192 18.0526L91.8398 16.4867C91.8223 16.4394 91.7849 16.402 91.7376 16.3845L90.1717 15.8051C90.0211 15.7494 90.0211 15.5364 90.1717 15.4807L91.7376 14.9013C91.7849 14.8838 91.8223 14.8465 91.8398 14.7991L92.4192 13.2332Z" fill="#FFD45E"/>
<path d="M137.906 71.3644C137.99 71.1386 138.309 71.1386 138.393 71.3644L139.262 73.7133C139.288 73.7843 139.344 73.8403 139.415 73.8666L141.764 74.7358C141.99 74.8193 141.99 75.1387 141.764 75.2223L139.415 76.0914C139.344 76.1177 139.288 76.1737 139.262 76.2447L138.393 78.5936C138.309 78.8194 137.99 78.8194 137.906 78.5936L137.037 76.2447C137.011 76.1737 136.955 76.1177 136.884 76.0914L134.535 75.2223C134.309 75.1387 134.309 74.8193 134.535 74.7358L136.884 73.8666C136.955 73.8403 137.011 73.7843 137.037 73.7133L137.906 71.3644Z" fill="#FFD45E"/>
<path d="M85.3535 9.29218C85.3907 9.19181 85.5326 9.19181 85.5698 9.29218L85.9561 10.3361C85.9677 10.3677 85.9926 10.3926 86.0242 10.4042L87.0681 10.7905C87.1685 10.8277 87.1685 10.9696 87.0681 11.0068L86.0242 11.3931C85.9926 11.4047 85.9677 11.4296 85.9561 11.4612L85.5698 12.5051C85.5326 12.6055 85.3907 12.6055 85.3535 12.5051L84.9672 11.4612C84.9556 11.4296 84.9307 11.4047 84.8991 11.3931L83.8552 11.0068C83.7548 10.9696 83.7548 10.8277 83.8552 10.7905L84.8991 10.4042C84.9307 10.3926 84.9556 10.3677 84.9672 10.3361L85.3535 9.29218Z" fill="white" fill-opacity="0.5"/>
<path d="M139.412 58.3289C139.467 58.1783 139.68 58.1783 139.736 58.3289L140.315 59.8948C140.333 59.9422 140.37 59.9795 140.418 59.997L141.984 60.5764C142.134 60.6321 142.134 60.8451 141.984 60.9008L140.418 61.4802C140.37 61.4977 140.333 61.5351 140.315 61.5824L139.736 63.1483C139.68 63.2989 139.467 63.2989 139.412 63.1483L138.832 61.5824C138.815 61.5351 138.777 61.4977 138.73 61.4802L137.164 60.9008C137.014 60.8451 137.014 60.6321 137.164 60.5764L138.73 59.997C138.777 59.9795 138.815 59.9422 138.832 59.8948L139.412 58.3289Z" fill="white"/>
<path d="M81.0274 22.7293C81.0831 22.5787 81.296 22.5787 81.3517 22.7293L81.9312 24.2952C81.9487 24.3426 81.986 24.3799 82.0333 24.3974L83.5993 24.9768C83.7498 25.0325 83.7498 25.2455 83.5993 25.3012L82.0333 25.8806C81.986 25.8981 81.9487 25.9355 81.9312 25.9828L81.3517 27.5487C81.296 27.6993 81.0831 27.6993 81.0274 27.5487L80.4479 25.9828C80.4304 25.9355 80.3931 25.8981 80.3458 25.8806L78.7798 25.3012C78.6293 25.2455 78.6293 25.0325 78.7798 24.9768L80.3458 24.3974C80.3931 24.3799 80.4304 24.3426 80.4479 24.2952L81.0274 22.7293Z" fill="white"/>
<path d="M127.07 18.9304C127.126 18.7799 127.339 18.7799 127.394 18.9305L127.974 20.4964C127.991 20.5437 128.029 20.581 128.076 20.5986L129.642 21.178C129.793 21.2337 129.793 21.4466 129.642 21.5023L128.076 22.0818C128.029 22.0993 127.991 22.1366 127.974 22.184L127.394 23.7499C127.339 23.9004 127.126 23.9004 127.07 23.7499L126.491 22.184C126.473 22.1366 126.436 22.0993 126.388 22.0818L124.823 21.5023C124.672 21.4466 124.672 21.2337 124.823 21.178L126.388 20.5986C126.436 20.581 126.473 20.5437 126.491 20.4964L127.07 18.9304Z" fill="white" fill-opacity="0.5"/>
<path d="M99.0274 76.652L99.9274 78.272L97.5874 79.118L99.9274 79.964L98.9914 81.638L97.0474 80.036L97.4614 82.52H95.5894L95.9854 80.036L94.0594 81.674L93.0694 79.946L95.4094 79.1L93.0874 78.29L94.0054 76.634L96.0034 78.218L95.5894 75.716H97.4794L97.0474 78.218L99.0274 76.652ZM108.524 76.652L109.424 78.272L107.084 79.118L109.424 79.964L108.488 81.638L106.544 80.036L106.958 82.52H105.086L105.482 80.036L103.556 81.674L102.566 79.946L104.906 79.1L102.584 78.29L103.502 76.634L105.5 78.218L105.086 75.716H106.976L106.544 78.218L108.524 76.652ZM118.02 76.652L118.92 78.272L116.58 79.118L118.92 79.964L117.984 81.638L116.04 80.036L116.454 82.52H114.582L114.978 80.036L113.052 81.674L112.062 79.946L114.402 79.1L112.08 78.29L112.998 76.634L114.996 78.218L114.582 75.716H116.472L116.04 78.218L118.02 76.652Z" fill="white"/>
<path d="M99.0274 76.652L99.4645 76.4092L99.1787 75.8948L98.7172 76.2598L99.0274 76.652ZM99.9274 78.272L100.097 78.7422L100.65 78.5425L100.364 78.0292L99.9274 78.272ZM97.5874 79.118L97.4174 78.6478L96.1168 79.118L97.4174 79.5882L97.5874 79.118ZM99.9274 79.964L100.364 80.208L100.651 79.694L100.097 79.4938L99.9274 79.964ZM98.9914 81.638L98.6734 82.0239L99.1356 82.4047L99.4278 81.882L98.9914 81.638ZM97.0474 80.036L97.3654 79.6501L96.3346 78.8007L96.5542 80.1182L97.0474 80.036ZM97.4614 82.52V83.02H98.0516L97.9546 82.4378L97.4614 82.52ZM95.5894 82.52L95.0956 82.4413L95.0034 83.02H95.5894V82.52ZM95.9854 80.036L96.4792 80.1147L96.6922 78.7785L95.6615 79.6551L95.9854 80.036ZM94.0594 81.674L93.6255 81.9226L93.9248 82.4449L94.3833 82.0549L94.0594 81.674ZM93.0694 79.946L92.8994 79.4758L92.3397 79.6781L92.6355 80.1946L93.0694 79.946ZM95.4094 79.1L95.5794 79.5702L96.9033 79.0916L95.5741 78.6279L95.4094 79.1ZM93.0874 78.29L92.6501 78.0476L92.3624 78.5666L92.9227 78.7621L93.0874 78.29ZM94.0054 76.634L94.316 76.2422L93.854 75.8759L93.5681 76.3916L94.0054 76.634ZM96.0034 78.218L95.6928 78.6098L96.7082 79.4149L96.4967 78.1364L96.0034 78.218ZM95.5894 75.716V75.216H94.9999L95.0961 75.7976L95.5894 75.716ZM97.4794 75.716L97.9721 75.8011L98.0731 75.216H97.4794V75.716ZM97.0474 78.218L96.5547 78.1329L96.3323 79.4211L97.3576 78.6102L97.0474 78.218ZM98.5903 76.8948L99.4903 78.5148L100.364 78.0292L99.4645 76.4092L98.5903 76.8948ZM99.7574 77.8018L97.4174 78.6478L97.7574 79.5882L100.097 78.7422L99.7574 77.8018ZM97.4174 79.5882L99.7574 80.4342L100.097 79.4938L97.7574 78.6478L97.4174 79.5882ZM99.491 79.72L98.555 81.394L99.4278 81.882L100.364 80.208L99.491 79.72ZM99.3094 81.2521L97.3654 79.6501L96.7294 80.4219L98.6734 82.0239L99.3094 81.2521ZM96.5542 80.1182L96.9682 82.6022L97.9546 82.4378L97.5406 79.9538L96.5542 80.1182ZM97.4614 82.02H95.5894V83.02H97.4614V82.02ZM96.0832 82.5987L96.4792 80.1147L95.4916 79.9573L95.0956 82.4413L96.0832 82.5987ZM95.6615 79.6551L93.7355 81.2931L94.3833 82.0549L96.3093 80.4169L95.6615 79.6551ZM94.4932 81.4254L93.5032 79.6974L92.6355 80.1946L93.6255 81.9226L94.4932 81.4254ZM93.2394 80.4162L95.5794 79.5702L95.2394 78.6298L92.8994 79.4758L93.2394 80.4162ZM95.5741 78.6279L93.2521 77.8179L92.9227 78.7621L95.2447 79.5721L95.5741 78.6279ZM93.5247 78.5324L94.4427 76.8764L93.5681 76.3916L92.6501 78.0476L93.5247 78.5324ZM93.6948 77.0258L95.6928 78.6098L96.314 77.8262L94.316 76.2422L93.6948 77.0258ZM96.4967 78.1364L96.0827 75.6344L95.0961 75.7976L95.5101 78.2996L96.4967 78.1364ZM95.5894 76.216H97.4794V75.216H95.5894V76.216ZM96.9867 75.6309L96.5547 78.1329L97.5401 78.3031L97.9721 75.8011L96.9867 75.6309ZM97.3576 78.6102L99.3376 77.0442L98.7172 76.2598L96.7372 77.8258L97.3576 78.6102ZM108.524 76.652L108.961 76.4092L108.675 75.8948L108.214 76.2598L108.524 76.652ZM109.424 78.272L109.594 78.7422L110.146 78.5425L109.861 78.0292L109.424 78.272ZM107.084 79.118L106.914 78.6478L105.613 79.118L106.914 79.5882L107.084 79.118ZM109.424 79.964L109.86 80.208L110.148 79.694L109.594 79.4938L109.424 79.964ZM108.488 81.638L108.17 82.0239L108.632 82.4047L108.924 81.882L108.488 81.638ZM106.544 80.036L106.862 79.6501L105.831 78.8007L106.051 80.1182L106.544 80.036ZM106.958 82.52V83.02H107.548L107.451 82.4378L106.958 82.52ZM105.086 82.52L104.592 82.4413L104.5 83.02H105.086V82.52ZM105.482 80.036L105.976 80.1147L106.189 78.7785L105.158 79.6551L105.482 80.036ZM103.556 81.674L103.122 81.9226L103.421 82.4449L103.88 82.0549L103.556 81.674ZM102.566 79.946L102.396 79.4758L101.836 79.6781L102.132 80.1946L102.566 79.946ZM104.906 79.1L105.076 79.5702L106.4 79.0916L105.07 78.6279L104.906 79.1ZM102.584 78.29L102.146 78.0476L101.859 78.5666L102.419 78.7621L102.584 78.29ZM103.502 76.634L103.812 76.2422L103.35 75.8759L103.064 76.3916L103.502 76.634ZM105.5 78.218L105.189 78.6098L106.205 79.4149L105.993 78.1364L105.5 78.218ZM105.086 75.716V75.216H104.496L104.593 75.7976L105.086 75.716ZM106.976 75.716L107.469 75.8011L107.57 75.216H106.976V75.716ZM106.544 78.218L106.051 78.1329L105.829 79.4211L106.854 78.6102L106.544 78.218ZM108.087 76.8948L108.987 78.5148L109.861 78.0292L108.961 76.4092L108.087 76.8948ZM109.254 77.8018L106.914 78.6478L107.254 79.5882L109.594 78.7422L109.254 77.8018ZM106.914 79.5882L109.254 80.4342L109.594 79.4938L107.254 78.6478L106.914 79.5882ZM108.987 79.72L108.051 81.394L108.924 81.882L109.86 80.208L108.987 79.72ZM108.806 81.2521L106.862 79.6501L106.226 80.4219L108.17 82.0239L108.806 81.2521ZM106.051 80.1182L106.465 82.6022L107.451 82.4378L107.037 79.9538L106.051 80.1182ZM106.958 82.02H105.086V83.02H106.958V82.02ZM105.58 82.5987L105.976 80.1147L104.988 79.9573L104.592 82.4413L105.58 82.5987ZM105.158 79.6551L103.232 81.2931L103.88 82.0549L105.806 80.4169L105.158 79.6551ZM103.99 81.4254L103 79.6974L102.132 80.1946L103.122 81.9226L103.99 81.4254ZM102.736 80.4162L105.076 79.5702L104.736 78.6298L102.396 79.4758L102.736 80.4162ZM105.07 78.6279L102.748 77.8179L102.419 78.7621L104.741 79.5721L105.07 78.6279ZM103.021 78.5324L103.939 76.8764L103.064 76.3916L102.146 78.0476L103.021 78.5324ZM103.191 77.0258L105.189 78.6098L105.81 77.8262L103.812 76.2422L103.191 77.0258ZM105.993 78.1364L105.579 75.6344L104.593 75.7976L105.007 78.2996L105.993 78.1364ZM105.086 76.216H106.976V75.216H105.086V76.216ZM106.483 75.6309L106.051 78.1329L107.037 78.3031L107.469 75.8011L106.483 75.6309ZM106.854 78.6102L108.834 77.0442L108.214 76.2598L106.234 77.8258L106.854 78.6102ZM118.02 76.652L118.457 76.4092L118.172 75.8948L117.71 76.2598L118.02 76.652ZM118.92 78.272L119.09 78.7422L119.642 78.5425L119.357 78.0292L118.92 78.272ZM116.58 79.118L116.41 78.6478L115.11 79.118L116.41 79.5882L116.58 79.118ZM118.92 79.964L119.357 80.208L119.644 79.694L119.09 79.4938L118.92 79.964ZM117.984 81.638L117.666 82.0239L118.128 82.4047L118.421 81.882L117.984 81.638ZM116.04 80.036L116.358 79.6501L115.327 78.8007L115.547 80.1182L116.04 80.036ZM116.454 82.52V83.02H117.044L116.947 82.4378L116.454 82.52ZM114.582 82.52L114.088 82.4413L113.996 83.02H114.582V82.52ZM114.978 80.036L115.472 80.1147L115.685 78.7785L114.654 79.6551L114.978 80.036ZM113.052 81.674L112.618 81.9226L112.918 82.4449L113.376 82.0549L113.052 81.674ZM112.062 79.946L111.892 79.4758L111.332 79.6781L111.628 80.1946L112.062 79.946ZM114.402 79.1L114.572 79.5702L115.896 79.0916L114.567 78.6279L114.402 79.1ZM112.08 78.29L111.643 78.0476L111.355 78.5666L111.916 78.7621L112.08 78.29ZM112.998 76.634L113.309 76.2422L112.847 75.8759L112.561 76.3916L112.998 76.634ZM114.996 78.218L114.686 78.6098L115.701 79.4149L115.489 78.1364L114.996 78.218ZM114.582 75.716V75.216H113.993L114.089 75.7976L114.582 75.716ZM116.472 75.716L116.965 75.8011L117.066 75.216H116.472V75.716ZM116.04 78.218L115.547 78.1329L115.325 79.4211L116.35 78.6102L116.04 78.218ZM117.583 76.8948L118.483 78.5148L119.357 78.0292L118.457 76.4092L117.583 76.8948ZM118.75 77.8018L116.41 78.6478L116.75 79.5882L119.09 78.7422L118.75 77.8018ZM116.41 79.5882L118.75 80.4342L119.09 79.4938L116.75 78.6478L116.41 79.5882ZM118.484 79.72L117.548 81.394L118.421 81.882L119.357 80.208L118.484 79.72ZM118.302 81.2521L116.358 79.6501L115.722 80.4219L117.666 82.0239L118.302 81.2521ZM115.547 80.1182L115.961 82.6022L116.947 82.4378L116.533 79.9538L115.547 80.1182ZM116.454 82.02H114.582V83.02H116.454V82.02ZM115.076 82.5987L115.472 80.1147L114.484 79.9573L114.088 82.4413L115.076 82.5987ZM114.654 79.6551L112.728 81.2931L113.376 82.0549L115.302 80.4169L114.654 79.6551ZM113.486 81.4254L112.496 79.6974L111.628 80.1946L112.618 81.9226L113.486 81.4254ZM112.232 80.4162L114.572 79.5702L114.232 78.6298L111.892 79.4758L112.232 80.4162ZM114.567 78.6279L112.245 77.8179L111.916 78.7621L114.238 79.5721L114.567 78.6279ZM112.518 78.5324L113.436 76.8764L112.561 76.3916L111.643 78.0476L112.518 78.5324ZM112.688 77.0258L114.686 78.6098L115.307 77.8262L113.309 76.2422L112.688 77.0258ZM115.489 78.1364L115.075 75.6344L114.089 75.7976L114.503 78.2996L115.489 78.1364ZM114.582 76.216H116.472V75.216H114.582V76.216ZM115.979 75.6309L115.547 78.1329L116.533 78.3031L116.965 75.8011L115.979 75.6309ZM116.35 78.6102L118.33 77.0442L117.71 76.2598L115.73 77.8258L116.35 78.6102Z" fill="#FFD12E" fill-opacity="0.09"/>
<defs>
<filter id="filter0_d_1594_37947" x="54.6437" y="81.3633" width="28.0688" height="19.8512" filterUnits="userSpaceOnUse" color-interpolation-filters="sRGB">
<feFlood flood-opacity="0" result="BackgroundImageFix"/>
<feColorMatrix in="SourceAlpha" type="matrix" values="0 0 0 0 0 0 0 0 0 0 0 0 0 0 0 0 0 0 127 0" result="hardAlpha"/>
<feOffset dy="0.233241"/>
<feGaussianBlur stdDeviation="0.11662"/>
<feComposite in2="hardAlpha" operator="out"/>
<feColorMatrix type="matrix" values="0 0 0 0 0 0 0 0 0 0 0 0 0 0 0 0 0 0 0.25 0"/>
<feBlend mode="normal" in2="BackgroundImageFix" result="effect1_dropShadow_1594_37947"/>
<feBlend mode="normal" in="SourceGraphic" in2="effect1_dropShadow_1594_37947" result="shape"/>
</filter>
<filter id="filter1_d_1594_37947" x="22.4609" y="41.9316" width="53.7718" height="108.479" filterUnits="userSpaceOnUse" color-interpolation-filters="sRGB">
<feFlood flood-opacity="0" result="BackgroundImageFix"/>
<feColorMatrix in="SourceAlpha" type="matrix" values="0 0 0 0 0 0 0 0 0 0 0 0 0 0 0 0 0 0 127 0" result="hardAlpha"/>
<feOffset dy="1.22467"/>
<feGaussianBlur stdDeviation="0.612333"/>
<feComposite in2="hardAlpha" operator="out"/>
<feColorMatrix type="matrix" values="0 0 0 0 0 0 0 0 0 0 0 0 0 0 0 0 0 0 0.25 0"/>
<feBlend mode="normal" in2="BackgroundImageFix" result="effect1_dropShadow_1594_37947"/>
<feBlend mode="normal" in="SourceGraphic" in2="effect1_dropShadow_1594_37947" result="shape"/>
</filter>
<filter id="filter2_d_1594_37947" x="32.6615" y="78.5801" width="37.8486" height="61.6979" filterUnits="userSpaceOnUse" color-interpolation-filters="sRGB">
<feFlood flood-opacity="0" result="BackgroundImageFix"/>
<feColorMatrix in="SourceAlpha" type="matrix" values="0 0 0 0 0 0 0 0 0 0 0 0 0 0 0 0 0 0 127 0" result="hardAlpha"/>
<feOffset dy="0.269858"/>
<feGaussianBlur stdDeviation="0.134929"/>
<feComposite in2="hardAlpha" operator="out"/>
<feColorMatrix type="matrix" values="0 0 0 0 0 0 0 0 0 0 0 0 0 0 0 0 0 0 0.25 0"/>
<feBlend mode="normal" in2="BackgroundImageFix" result="effect1_dropShadow_1594_37947"/>
<feBlend mode="normal" in="SourceGraphic" in2="effect1_dropShadow_1594_37947" result="shape"/>
</filter>
<filter id="filter3_d_1594_37947" x="42.5539" y="90.0977" width="10.0204" height="8.56901" filterUnits="userSpaceOnUse" color-interpolation-filters="sRGB">
<feFlood flood-opacity="0" result="BackgroundImageFix"/>
<feColorMatrix in="SourceAlpha" type="matrix" values="0 0 0 0 0 0 0 0 0 0 0 0 0 0 0 0 0 0 127 0" result="hardAlpha"/>
<feOffset dy="0.269858"/>
<feGaussianBlur stdDeviation="0.134929"/>
<feComposite in2="hardAlpha" operator="out"/>
<feColorMatrix type="matrix" values="0 0 0 0 0 0 0 0 0 0 0 0 0 0 0 0 0 0 0.25 0"/>
<feBlend mode="normal" in2="BackgroundImageFix" result="effect1_dropShadow_1594_37947"/>
<feBlend mode="normal" in="SourceGraphic" in2="effect1_dropShadow_1594_37947" result="shape"/>
</filter>
<filter id="filter4_d_1594_37947" x="55.2834" y="89.3965" width="3.75358" height="3.83073" filterUnits="userSpaceOnUse" color-interpolation-filters="sRGB">
<feFlood flood-opacity="0" result="BackgroundImageFix"/>
<feColorMatrix in="SourceAlpha" type="matrix" values="0 0 0 0 0 0 0 0 0 0 0 0 0 0 0 0 0 0 127 0" result="hardAlpha"/>
<feOffset dy="0.269858"/>
<feGaussianBlur stdDeviation="0.134929"/>
<feComposite in2="hardAlpha" operator="out"/>
<feColorMatrix type="matrix" values="0 0 0 0 0 0 0 0 0 0 0 0 0 0 0 0 0 0 0.25 0"/>
<feBlend mode="normal" in2="BackgroundImageFix" result="effect1_dropShadow_1594_37947"/>
<feBlend mode="normal" in="SourceGraphic" in2="effect1_dropShadow_1594_37947" result="shape"/>
</filter>
<filter id="filter5_d_1594_37947" x="55.7255" y="93.332" width="3.75358" height="3.83073" filterUnits="userSpaceOnUse" color-interpolation-filters="sRGB">
<feFlood flood-opacity="0" result="BackgroundImageFix"/>
<feColorMatrix in="SourceAlpha" type="matrix" values="0 0 0 0 0 0 0 0 0 0 0 0 0 0 0 0 0 0 127 0" result="hardAlpha"/>
<feOffset dy="0.269858"/>
<feGaussianBlur stdDeviation="0.134929"/>
<feComposite in2="hardAlpha" operator="out"/>
<feColorMatrix type="matrix" values="0 0 0 0 0 0 0 0 0 0 0 0 0 0 0 0 0 0 0.25 0"/>
<feBlend mode="normal" in2="BackgroundImageFix" result="effect1_dropShadow_1594_37947"/>
<feBlend mode="normal" in="SourceGraphic" in2="effect1_dropShadow_1594_37947" result="shape"/>
</filter>
<filter id="filter6_d_1594_37947" x="23.4157" y="81.4316" width="27.1855" height="33.612" filterUnits="userSpaceOnUse" color-interpolation-filters="sRGB">
<feFlood flood-opacity="0" result="BackgroundImageFix"/>
<feColorMatrix in="SourceAlpha" type="matrix" values="0 0 0 0 0 0 0 0 0 0 0 0 0 0 0 0 0 0 127 0" result="hardAlpha"/>
<feOffset dy="0.269858"/>
<feGaussianBlur stdDeviation="0.134929"/>
<feComposite in2="hardAlpha" operator="out"/>
<feColorMatrix type="matrix" values="0 0 0 0 0 0 0 0 0 0 0 0 0 0 0 0 0 0 0.25 0"/>
<feBlend mode="normal" in2="BackgroundImageFix" result="effect1_dropShadow_1594_37947"/>
<feBlend mode="normal" in="SourceGraphic" in2="effect1_dropShadow_1594_37947" result="shape"/>
</filter>
<filter id="filter7_d_1594_37947" x="24.1437" y="41.9316" width="47.9142" height="47.9147" filterUnits="userSpaceOnUse" color-interpolation-filters="sRGB">
<feFlood flood-opacity="0" result="BackgroundImageFix"/>
<feColorMatrix in="SourceAlpha" type="matrix" values="0 0 0 0 0 0 0 0 0 0 0 0 0 0 0 0 0 0 127 0" result="hardAlpha"/>
<feOffset dy="0.269858"/>
<feGaussianBlur stdDeviation="0.134929"/>
<feComposite in2="hardAlpha" operator="out"/>
<feColorMatrix type="matrix" values="0 0 0 0 0 0 0 0 0 0 0 0 0 0 0 0 0 0 0.25 0"/>
<feBlend mode="normal" in2="BackgroundImageFix" result="effect1_dropShadow_1594_37947"/>
<feBlend mode="normal" in="SourceGraphic" in2="effect1_dropShadow_1594_37947" result="shape"/>
</filter>
<linearGradient id="paint0_linear_1594_37947" x1="58.5847" y1="91.3578" x2="75.5117" y2="91.7396" gradientUnits="userSpaceOnUse">
<stop stop-color="#EFF2F3"/>
<stop offset="1" stop-color="white"/>
</linearGradient>
<linearGradient id="paint1_linear_1594_37947" x1="50.3861" y1="80.1496" x2="54.6721" y2="118.304" gradientUnits="userSpaceOnUse">
<stop stop-color="#E3E9EB"/>
<stop offset="0.56737" stop-color="white"/>
</linearGradient>
<linearGradient id="paint2_linear_1594_37947" x1="47.2083" y1="82.4449" x2="47.2083" y2="98.0318" gradientUnits="userSpaceOnUse">
<stop stop-color="#50D5FF"/>
<stop offset="1" stop-color="#2C3585"/>
</linearGradient>
<radialGradient id="paint3_radial_1594_37947" cx="0" cy="0" r="1" gradientUnits="userSpaceOnUse" gradientTransform="translate(57.16 91.0414) rotate(90) scale(2.10349 2.04585)">
<stop stop-color="#51E0FF"/>
<stop offset="1" stop-color="#4E7CB4"/>
</radialGradient>
<radialGradient id="paint4_radial_1594_37947" cx="0" cy="0" r="1" gradientUnits="userSpaceOnUse" gradientTransform="translate(57.6022 94.977) rotate(90) scale(2.10349 2.04585)">
<stop stop-color="#FFB3B3"/>
<stop offset="1" stop-color="#F20000"/>
</radialGradient>
<linearGradient id="paint5_linear_1594_37947" x1="33.7644" y1="87.7057" x2="38.2943" y2="105.175" gradientUnits="userSpaceOnUse">
<stop stop-color="#EFF2F3"/>
<stop offset="1" stop-color="white"/>
</linearGradient>
<radialGradient id="paint6_radial_1594_37947" cx="0" cy="0" r="1" gradientUnits="userSpaceOnUse" gradientTransform="translate(40.9313 90.5551) rotate(-177.671) scale(31.4178 31.4178)">
<stop offset="0.381" stop-color="#BFCCD1"/>
<stop offset="0.7578" stop-color="white"/>
</radialGradient>
<linearGradient id="paint7_linear_1594_37947" x1="66.0552" y1="66.4414" x2="34.6886" y2="55.5935" gradientUnits="userSpaceOnUse">
<stop stop-color="#FFF668"/>
<stop offset="0.519247" stop-color="#FF9C4C"/>
<stop offset="1" stop-color="#880000"/>
</linearGradient>
<radialGradient id="paint8_radial_1594_37947" cx="0" cy="0" r="1" gradientUnits="userSpaceOnUse" gradientTransform="translate(58.1644 67.8185) rotate(173.286) scale(39.7526 39.7526)">
<stop offset="0.180591" stop-color="white"/>
<stop offset="0.9385" stop-color="#880000"/>
</radialGradient>
<linearGradient id="paint9_linear_1594_37947" x1="68.9693" y1="136.001" x2="67.4891" y2="141.043" gradientUnits="userSpaceOnUse">
<stop stop-color="#504A44"/>
<stop offset="1" stop-color="#504A44" stop-opacity="0"/>
</linearGradient>
<linearGradient id="paint10_linear_1594_37947" x1="40.4314" y1="136.959" x2="42.1062" y2="141.366" gradientUnits="userSpaceOnUse">
<stop stop-color="#504A44"/>
<stop offset="1" stop-color="#504A44" stop-opacity="0"/>
</linearGradient>
<radialGradient id="paint11_radial_1594_37947" cx="0" cy="0" r="1" gradientUnits="userSpaceOnUse" gradientTransform="translate(105.397 52.1921) rotate(90) scale(39.3972 39.3972)">
<stop stop-color="#FFC107"/>
<stop offset="0.994792" stop-color="#FFC107" stop-opacity="0"/>
</radialGradient>
</defs>
</svg>
