<svg width="110" height="105" viewBox="0 0 110 105" fill="none" xmlns="http://www.w3.org/2000/svg">
<path d="M96.5 57C96.5 83.5097 75.0097 105 48.5 105C21.9903 105 0.5 83.5097 0.5 57C0.5 30.4903 21.9903 9 48.5 9C75.0097 9 96.5 30.4903 96.5 57Z" fill="#F52079"/>
<g filter="url(#filter0_d_1251_30529)">
<path d="M35.5309 59.6891C35.5309 59.6891 38.4169 64.4577 41.2003 65.2803C43.9836 66.103 46.2431 62.7821 47.1281 59.3353" stroke="url(#paint0_linear_1251_30529)" stroke-width="4.19833" stroke-linecap="round"/>
<path d="M42.0995 63.9727C42.2867 64.4383 42.5326 64.9937 42.389 66.3526" stroke="#C7D2D7" stroke-opacity="0.3" stroke-width="0.991273" stroke-linecap="round"/>
<path d="M40.8192 63.8447C40.898 64.2036 41.0134 64.6386 40.5867 65.4739" stroke="#C7D2D7" stroke-opacity="0.3" stroke-width="0.991273" stroke-linecap="round"/>
<path d="M43.4762 63.6162C43.7697 63.8372 44.1406 64.0921 44.3608 65.0039" stroke="#C7D2D7" stroke-opacity="0.3" stroke-width="0.991273" stroke-linecap="round"/>
</g>
<g filter="url(#filter1_d_1251_30529)">
<g filter="url(#filter2_d_1251_30529)">
<path d="M32.3668 56.5864C34.8281 56.31 37.1835 57.7587 37.9075 60.1978C39.5395 65.6964 40.9807 72.9622 39.9201 75.3718C38.7556 78.0173 35.6082 79.1355 33.5595 79.4756L33.56 79.4809C33.4195 79.5037 33.2653 79.5242 33.0995 79.5416C32.9339 79.5615 32.779 79.5756 32.6369 79.5846L32.6363 79.5793C30.5631 79.7022 27.246 79.3102 25.5237 76.989C23.9549 74.8748 23.7482 67.4703 24.1196 61.7466C24.2844 59.2076 26.2596 57.2725 28.7209 56.996L32.3668 56.5864Z" fill="url(#paint1_linear_1251_30529)"/>
<g filter="url(#filter3_d_1251_30529)">
<rect x="26.1172" y="63.3691" width="5.06376" height="4.08341" rx="0.607181" transform="rotate(-6.40923 26.1172 63.3691)" fill="url(#paint2_linear_1251_30529)"/>
<rect x="26.0053" y="63.2799" width="5.26616" height="4.2858" rx="0.708378" transform="rotate(-6.40923 26.0053 63.2799)" stroke="#EFF2F3" stroke-width="0.202394"/>
</g>
<path d="M28.1509 64.8443L28.1449 64.845C28.2417 64.5844 28.4771 64.387 28.7707 64.354C28.9601 64.3327 29.141 64.3835 29.2864 64.4847L29.291 64.4842L29.5916 64.4504C29.3854 64.219 29.075 64.0878 28.7449 64.1248C28.2413 64.1814 27.8692 64.6099 27.868 65.1081L28.5017 65.0368L28.5275 65.2659L27.8936 65.3371L27.8941 65.3389C27.9122 65.4169 27.9392 65.4909 27.9739 65.5602L28.5531 65.4951L28.6186 66.0782C28.6938 66.0971 28.7723 66.1072 28.8523 66.1075L28.7807 65.4696L29.0082 65.444L29.0799 66.082C29.1579 66.0639 29.2321 66.0367 29.3013 66.0016L29.2358 65.4184L29.815 65.3533C29.8424 65.2419 29.8509 65.1237 29.8374 65.0028C29.8238 64.882 29.7893 64.7686 29.7378 64.666L29.603 64.6812L28.1509 64.8443ZM28.9825 65.2149L28.755 65.2404L28.7292 65.0113L28.9568 64.9858L28.9825 65.2149ZM29.6142 65.1439L29.2101 65.1893L29.1844 64.9602L29.5885 64.9148C29.5983 64.9516 29.6055 64.9895 29.6099 65.0284C29.6143 65.0673 29.6157 65.1059 29.6142 65.1439Z" fill="#9FF9FF"/>
<path d="M28.6924 63.6645C27.8976 63.7538 27.3262 64.4749 27.416 65.275C27.5059 66.0751 28.2231 66.6514 29.0179 66.5621C29.8127 66.4728 30.3841 65.7518 30.2942 64.9517C30.2043 64.1515 29.4872 63.5752 28.6924 63.6645ZM28.9921 66.3326C28.3232 66.4078 27.7196 65.9228 27.644 65.2494C27.5684 64.576 28.0493 63.9692 28.7182 63.894C29.387 63.8189 29.9906 64.3039 30.0663 64.9773C30.1419 65.6507 29.661 66.2575 28.9921 66.3326Z" fill="#9FF9FF"/>
<g filter="url(#filter4_d_1251_30529)">
<ellipse cx="34.583" cy="63.2843" rx="0.837122" ry="0.860706" transform="rotate(-6.40923 34.583 63.2843)" fill="url(#paint3_radial_1251_30529)"/>
<path d="M34.6904 64.2402C35.208 64.1821 35.5745 63.7049 35.5155 63.1796C35.4564 62.6543 34.9932 62.2703 34.4756 62.3284C33.958 62.3866 33.5915 62.8638 33.6505 63.3891C33.7095 63.9144 34.1728 64.2984 34.6904 64.2402Z" stroke="#EFF2F3" stroke-width="0.202394"/>
</g>
<g filter="url(#filter5_d_1251_30529)">
<ellipse cx="34.8467" cy="65.632" rx="0.837122" ry="0.860706" transform="rotate(-6.40923 34.8467 65.632)" fill="url(#paint4_radial_1251_30529)"/>
<path d="M34.954 66.5879C35.4716 66.5297 35.8381 66.0525 35.7791 65.5273C35.7201 65.002 35.2569 64.618 34.7393 64.6761C34.2217 64.7342 33.8552 65.2115 33.9142 65.7367C33.9732 66.262 34.4365 66.646 34.954 66.5879Z" stroke="#EFF2F3" stroke-width="0.202394"/>
</g>
<path d="M33.4017 76.0774L33.4444 72.7045L40.1903 72.7898L40.1476 76.1628L33.4017 76.0774ZM40.9898 87.243C41.1977 89.0944 39.8655 90.7638 38.0142 90.9717C36.1628 91.1797 34.4934 89.8475 34.2855 87.9961L40.9898 87.243ZM40.1476 76.1628C40.1075 79.3352 40.711 84.7613 40.9898 87.243L34.2855 87.9961C34.0245 85.6732 33.355 79.7662 33.4017 76.0774L40.1476 76.1628Z" fill="white"/>
<path d="M32.1045 79.3216L33.0466 76.0826L26.5687 74.1983L25.6265 77.4372L32.1045 79.3216ZM23.3799 87.9781C23.012 89.8044 24.1943 91.5831 26.0206 91.9511C27.8469 92.319 29.6256 91.1367 29.9935 89.3104L23.3799 87.9781ZM25.6265 77.4372C25.3981 78.2226 24.8172 80.9788 24.3378 83.2922C24.0869 84.5031 23.8475 85.6742 23.671 86.5422C23.5826 86.9763 23.51 87.3349 23.4593 87.5851C23.434 87.7102 23.4142 87.8083 23.4007 87.8751C23.394 87.9086 23.3888 87.9342 23.3853 87.9515C23.3836 87.9602 23.3822 87.9668 23.3813 87.9712C23.3809 87.9735 23.3805 87.9751 23.3803 87.9763C23.3802 87.9769 23.3801 87.9773 23.38 87.9776C23.38 87.9778 23.38 87.9779 23.38 87.9779C23.38 87.978 23.3799 87.9781 26.6867 88.6443C29.9935 89.3104 29.9935 89.3104 29.9935 89.3104C29.9936 89.3103 29.9936 89.3102 29.9936 89.3101C29.9936 89.3099 29.9937 89.3095 29.9938 89.3089C29.994 89.3079 29.9944 89.3063 29.9948 89.3042C29.9956 89.3 29.9969 89.2936 29.9986 89.2851C30.002 89.2682 30.0071 89.243 30.0138 89.2101C30.0271 89.1441 30.0467 89.0471 30.0718 88.923C30.122 88.6748 30.1942 88.3186 30.282 87.8872C30.4576 87.0241 30.6953 85.8614 30.944 84.661C31.193 83.4591 31.4517 82.2263 31.6697 81.2207C31.7788 80.7172 31.8759 80.279 31.9554 79.934C31.9952 79.7614 32.029 79.619 32.0566 79.5073C32.0703 79.4518 32.0815 79.4076 32.0904 79.3738C32.0948 79.3571 32.0982 79.3442 32.1008 79.3349C32.1034 79.3253 32.1046 79.3212 32.1045 79.3216L25.6265 77.4372Z" fill="white"/>
<path d="M39.0343 76.2461C37.1401 78.0453 31.9976 80.844 26.5816 77.6449" stroke="#C7D2D7" stroke-opacity="0.3" stroke-width="1.1469" stroke-linecap="round"/>
<path d="M39.1064 80.2559C38.4412 80.5297 37.6502 80.8804 35.6339 80.9393" stroke="#C7D2D7" stroke-opacity="0.3" stroke-width="1.1469" stroke-linecap="round"/>
<path d="M26.7068 80.4834C27.3723 80.7648 28.1638 81.1247 30.1802 81.2066" stroke="#C7D2D7" stroke-opacity="0.3" stroke-width="1.1469" stroke-linecap="round"/>
<path d="M37.5823 82.9746C37.2434 83.052 36.8386 83.1561 35.87 83.0227" stroke="#C7D2D7" stroke-opacity="0.3" stroke-width="1.1469" stroke-linecap="round"/>
<path d="M26.9991 82.7168C27.3313 82.824 27.7274 82.9637 28.7024 82.9168" stroke="#C7D2D7" stroke-opacity="0.3" stroke-width="1.1469" stroke-linecap="round"/>
</g>
<g filter="url(#filter6_d_1251_30529)">
<path d="M24.5414 60.2964C21.9157 61.6271 19.9821 64.6713 19.5707 67.2207C19.2689 69.0914 19.4039 71.9043 21.3167 74.2947" stroke="url(#paint5_linear_1251_30529)" stroke-width="4.85745" stroke-linecap="round"/>
<path d="M21.0369 67.2666C20.5013 67.2548 19.8527 67.263 18.5849 66.5456" stroke="#C7D2D7" stroke-opacity="0.3" stroke-width="1.1469" stroke-linecap="round"/>
<path d="M21.4049 65.3535C21.0755 65.3533 20.6679 65.3724 20.1562 64.7792" stroke="#C7D2D7" stroke-opacity="0.3" stroke-width="1.1469" stroke-linecap="round"/>
<path d="M20.5529 68.8896C20.2752 69.0106 19.9418 69.1731 19.1939 68.967" stroke="#C7D2D7" stroke-opacity="0.3" stroke-width="1.1469" stroke-linecap="round"/>
</g>
<path d="M19.1149 73.1087C18.2364 73.6828 18.1148 74.9112 18.8649 75.6357L20.2864 77.0088C20.4605 77.1771 20.6643 77.2998 20.8818 77.3761C24.1735 81.0782 23.6528 83.2661 25.3071 82.5646C26.2973 81.6612 26.5833 80.0532 26.0672 77.7144C26.0368 77.6415 26.0069 77.5695 25.9776 77.4987C26.5861 78.1998 27.1923 78.0043 27.3392 77.4624C27.4778 76.9513 26.4804 76.0243 25.3527 75.2168C25.1871 75.1198 24.9666 75.001 24.7116 74.8812C24.7659 74.5702 24.7297 74.2426 24.5921 73.939L23.8401 72.2783C23.4263 71.3647 22.2832 71.0385 21.4358 71.5922L19.1149 73.1087Z" fill="#282522"/>
<g filter="url(#filter7_d_1251_30529)">
<path d="M28.7259 59.3195C22.5425 59.068 17.7337 53.8515 17.9852 47.6681C18.2368 41.4847 23.4533 36.6759 29.6367 36.9274C35.8201 37.1789 40.6289 42.3955 40.3774 48.5789C40.1259 54.7623 34.9093 59.571 28.7259 59.3195Z" fill="url(#paint6_radial_1251_30529)"/>
<path d="M21.7967 49.0657C21.968 50.5903 22.4734 51.3702 23.8139 51.6619L35.1999 50.3829C36.4423 49.801 36.7621 48.9285 36.5908 47.4039C35.982 41.9838 32.4481 40.3789 28.3628 40.8378C24.2776 41.2967 21.1831 43.6034 21.7967 49.0657Z" fill="url(#paint7_linear_1251_30529)" stroke="#AE6666" stroke-opacity="0.5" stroke-width="0.202394"/>
<g style="mix-blend-mode:multiply">
<path d="M22.172 45.7948C22.9605 43.3231 24.2578 41.7594 27.9697 41.0593C26.0671 41.9688 27.594 43.9847 27.6533 46.2376C27.7264 48.8989 23.6304 49.8777 24.3775 50.6387C24.6159 50.8777 24.9549 51.0005 25.2919 50.9649L35.4054 49.8779C35.2861 50.1359 35.2737 50.2366 34.9131 50.2728L24.0788 51.4898C23.7419 51.5254 22.9148 51.4007 22.2888 50.4175C21.8725 49.7637 21.9846 46.3823 22.172 45.7948Z" fill="url(#paint8_radial_1251_30529)"/>
</g>
<path d="M23.5826 48.7526C23.4332 49.6128 24.4816 50.6548 25.4186 50.5495" stroke="white" stroke-width="1.08579" stroke-linecap="round"/>
<path d="M34.2889 45.3292C34.0055 44.205 32.7256 42.0233 29.8734 42.2898" stroke="white" stroke-width="1.37533" stroke-linecap="round"/>
</g>
<path fill-rule="evenodd" clip-rule="evenodd" d="M40.5569 84.8787C39.1777 85.232 36.9378 85.7869 34.6039 85.4669C34.1719 85.4076 33.7806 85.7755 33.8541 86.2052L34.7564 91.4801C34.7658 91.535 34.7823 91.5883 34.806 91.6375L34.7498 91.643C34.7758 92.0202 34.8941 93.1855 34.9815 94.0463C35.0155 94.3813 35.0448 94.6702 35.0622 94.8486C35.162 95.8726 38.3039 95.5664 38.8199 94.9992C39.2829 95.4632 40.322 95.366 40.7875 95.3224C40.8519 95.3164 40.9053 95.3114 40.9447 95.309C43.6493 95.148 44.8346 94.6108 44.9957 94.3095C44.9957 94.3095 45.3073 94.1567 45.2048 93.1058C45.0547 91.5649 43.0218 91.4602 41.148 91.4202L41.2921 85.4684C41.3016 85.0737 40.9394 84.7808 40.5569 84.8787Z" fill="#282522"/>
<path d="M40.4044 93.7193C42.7106 94.1923 44.4622 93.4799 45.0289 93.134C44.8613 91.4148 42.1218 91.5174 41.009 91.6258C39.0675 91.815 39.5797 91.9202 39.082 92.5258C38.4039 93.3506 38.0981 93.2462 40.4044 93.7193Z" fill="url(#paint9_linear_1251_30529)"/>
<path fill-rule="evenodd" clip-rule="evenodd" d="M24.1681 84.8773C25.5068 85.3111 27.6404 85.9163 30.0277 85.8004C30.4525 85.7798 30.797 86.1677 30.6959 86.5807L29.48 91.5448C29.4641 91.6094 29.4385 91.6708 29.4031 91.7251C29.3147 92.2408 29.103 93.3969 28.945 94.0007C28.7857 94.6095 28.6457 94.964 28.145 95.0858C27.6513 96.0733 26.366 96.6772 23.804 96.1263C21.2669 95.5807 21.2734 95.0929 21.2767 94.8463C21.2767 94.8439 21.2768 94.8415 21.2768 94.8392L21.4962 93.7485C21.653 92.9689 22.2849 92.2212 23.1576 91.682C23.0353 91.5678 22.974 91.3988 22.9855 91.2264L23.3736 85.4124C23.4 85.0168 23.7909 84.755 24.1681 84.8773Z" fill="#282522"/>
<path d="M26.7188 94.358C25.1969 94.7485 22.2117 93.7417 21.8993 93.3886C21.7982 92.6869 23.0737 91.7081 23.9156 91.5983C25.1715 91.4345 26.7752 91.928 27.0978 92.4737C27.219 92.6787 28.2407 93.9675 26.7188 94.358Z" fill="url(#paint10_linear_1251_30529)"/>
</g>
<path d="M47.1894 62.5622C48.0625 63.2606 49.3462 62.9753 49.8302 61.9754L50.7475 60.0802C50.8598 59.848 50.9163 59.6009 50.9212 59.3554C52.6832 58.2454 53.307 57.5523 52.0375 55.4078C50.877 53.4476 50.8479 52.8656 49.5399 53.9946C49.4762 54.0496 48.4929 54.7593 48.431 54.8124C48.9383 53.9635 47.6233 52.6222 47.1304 52.9517C46.6374 53.2813 46.9256 53.9332 47.0031 54.8224C46.9323 55.9864 47.1595 56.0106 47.123 56.3085C46.7902 56.3569 46.4707 56.5025 46.2091 56.7426L44.7783 58.0558C43.9911 58.7782 44.0409 60.0437 44.883 60.7173L47.1894 62.5622Z" fill="#282522"/>
<circle cx="63.9201" cy="40.7521" r="22.4552" fill="url(#paint11_radial_1251_30529)"/>
<path d="M56.4613 18.7137C56.5143 18.5705 56.7168 18.5705 56.7698 18.7137L57.0278 19.4108C57.0444 19.4558 57.0799 19.4913 57.1249 19.508L57.822 19.7659C57.9652 19.8189 57.9652 20.0214 57.822 20.0744L57.1249 20.3323C57.0799 20.349 57.0444 20.3845 57.0278 20.4295L56.7698 21.1266C56.7168 21.2698 56.5143 21.2698 56.4613 21.1266L56.2034 20.4295C56.1867 20.3845 56.1512 20.349 56.1062 20.3323L55.4091 20.0744C55.2659 20.0214 55.2659 19.8189 55.4091 19.7659L56.1062 19.508C56.1512 19.4913 56.1867 19.4558 56.2034 19.4108L56.4613 18.7137Z" fill="#FFD45E"/>
<path d="M82.3565 51.9279C82.436 51.7132 82.7397 51.7132 82.8192 51.9279L83.2061 52.9736C83.2311 53.0411 83.2844 53.0944 83.3519 53.1194L84.3976 53.5063C84.6123 53.5858 84.6123 53.8895 84.3976 53.969L83.3519 54.3559C83.2844 54.3809 83.2311 54.4341 83.2061 54.5017L82.8192 55.5473C82.7397 55.7621 82.436 55.7621 82.3565 55.5473L81.9696 54.5017C81.9446 54.4341 81.8914 54.3809 81.8238 54.3559L80.7782 53.969C80.5634 53.8895 80.5634 53.5858 80.7782 53.5063L81.8238 53.1194C81.8914 53.0944 81.9446 53.0411 81.9696 52.9736L82.3565 51.9279Z" fill="#FFD45E"/>
<path d="M52.4543 16.4097C52.4897 16.3143 52.6247 16.3143 52.66 16.4097L52.8319 16.8744C52.8431 16.9045 52.8667 16.9281 52.8967 16.9392L53.3615 17.1112C53.4569 17.1465 53.4569 17.2815 53.3615 17.3168L52.8967 17.4888C52.8667 17.4999 52.8431 17.5236 52.8319 17.5536L52.66 18.0183C52.6247 18.1138 52.4897 18.1138 52.4543 18.0183L52.2824 17.5536C52.2713 17.5236 52.2476 17.4999 52.2176 17.4888L51.7528 17.3168C51.6574 17.2815 51.6574 17.1465 51.7528 17.1112L52.2176 16.9392C52.2476 16.9281 52.2713 16.9045 52.2824 16.8744L52.4543 16.4097Z" fill="white" fill-opacity="0.5"/>
<path d="M83.2453 44.4148C83.2983 44.2717 83.5008 44.2717 83.5537 44.4148L83.8117 45.112C83.8284 45.157 83.8638 45.1925 83.9089 45.2091L84.606 45.4671C84.7492 45.5201 84.7492 45.7226 84.606 45.7755L83.9089 46.0335C83.8638 46.0502 83.8284 46.0856 83.8117 46.1307L83.5537 46.8278C83.5008 46.971 83.2983 46.971 83.2453 46.8278L82.9873 46.1307C82.9707 46.0856 82.9352 46.0502 82.8902 46.0335L82.193 45.7755C82.0499 45.7226 82.0499 45.5201 82.193 45.4671L82.8902 45.2091C82.9352 45.1925 82.9707 45.157 82.9873 45.112L83.2453 44.4148Z" fill="white"/>
<path d="M49.9681 24.1238C50.021 23.9807 50.2235 23.9807 50.2765 24.1238L50.5345 24.821C50.5511 24.866 50.5866 24.9015 50.6316 24.9181L51.3288 25.1761C51.4719 25.229 51.4719 25.4316 51.3288 25.4845L50.6316 25.7425C50.5866 25.7591 50.5511 25.7946 50.5345 25.8396L50.2765 26.5368C50.2235 26.6799 50.021 26.6799 49.9681 26.5368L49.7101 25.8396C49.6934 25.7946 49.658 25.7591 49.6129 25.7425L48.9158 25.4845C48.7726 25.4315 48.7726 25.229 48.9158 25.1761L49.6129 24.9181C49.658 24.9015 49.6934 24.866 49.7101 24.821L49.9681 24.1238Z" fill="white"/>
<path d="M76.2111 21.9598C76.2641 21.8166 76.4666 21.8166 76.5196 21.9598L76.7775 22.6569C76.7942 22.7019 76.8297 22.7374 76.8747 22.754L77.5718 23.012C77.715 23.065 77.715 23.2675 77.5718 23.3205L76.8747 23.5784C76.8297 23.5951 76.7942 23.6306 76.7775 23.6756L76.5196 24.3727C76.4666 24.5159 76.2641 24.5159 76.2111 24.3727L75.9531 23.6756C75.9365 23.6306 75.901 23.5951 75.856 23.5784L75.1589 23.3205C75.0157 23.2675 75.0157 23.065 75.1589 23.012L75.856 22.754C75.901 22.7374 75.9365 22.7019 75.9531 22.6569L76.2111 21.9598Z" fill="white" fill-opacity="0.5"/>
<g filter="url(#filter8_d_1251_30529)">
<path d="M64.3576 24.8594C62.4971 28.2049 54.5457 32.0382 49.4148 31.3704C48.9347 38.2544 52.8352 51.9057 64.3576 58.25C75.8801 51.9057 79.7806 38.2544 79.3005 31.3704C74.1696 32.0382 66.2182 28.2049 64.3576 24.8594Z" fill="white"/>
<path d="M64.3576 24.8594C62.4971 28.2049 54.5457 32.0382 49.4148 31.3704C48.9347 38.2544 52.8352 51.9057 64.3576 58.25M64.3576 24.8594C66.2182 28.2049 74.1696 32.0382 79.3005 31.3704C79.7806 38.2544 75.8801 51.9057 64.3576 58.25M64.3576 24.8594C64.3576 24.8594 64.3576 24.8594 64.3576 24.8594ZM64.3576 58.25C64.3576 58.2499 64.3576 58.25 64.3576 58.25Z" stroke="#FFC107"/>
<path d="M70.4886 38.7642C68.9314 37.2212 66.4247 37.2326 64.8817 38.7899C64.5533 39.1212 64.2913 39.5182 64.0624 39.948L57.1361 39.9797L55.4945 41.6364L57.1512 43.2779L58.1361 42.2839L59.1301 43.2689L60.1151 42.2749L61.1091 43.2598L64.0774 43.2463C64.2772 43.6411 64.5428 44.0357 64.9073 44.3969C66.4646 45.94 68.9712 45.9285 70.5143 44.3712C72.0573 42.814 72.0459 40.3073 70.4886 38.7642ZM68.3621 42.567C67.7989 42.0089 67.7949 41.1513 68.3531 40.5881C68.9112 40.0248 69.7688 40.0209 70.332 40.579C70.8953 41.1372 70.8992 41.9947 70.3411 42.558C69.7829 43.1212 68.9254 43.1252 68.3621 42.567Z" fill="#FFC700"/>
<g style="mix-blend-mode:multiply">
<path d="M64.3597 58.1249C75.8822 51.7806 79.7827 38.1294 79.3026 31.2454C74.1717 31.9131 66.2204 28.0799 64.3597 24.7344V58.1249Z" fill="#FFA318" fill-opacity="0.2"/>
</g>
</g>
<defs>
<filter id="filter0_d_1251_30529" x="32.9886" y="57.2354" width="16.925" height="12.3024" filterUnits="userSpaceOnUse" color-interpolation-filters="sRGB">
<feFlood flood-opacity="0" result="BackgroundImageFix"/>
<feColorMatrix in="SourceAlpha" type="matrix" values="0 0 0 0 0 0 0 0 0 0 0 0 0 0 0 0 0 0 127 0" result="hardAlpha"/>
<feOffset dy="0.233241"/>
<feGaussianBlur stdDeviation="0.11662"/>
<feComposite in2="hardAlpha" operator="out"/>
<feColorMatrix type="matrix" values="0 0 0 0 0 0 0 0 0 0 0 0 0 0 0 0 0 0 0.25 0"/>
<feBlend mode="normal" in2="BackgroundImageFix" result="effect1_dropShadow_1251_30529"/>
<feBlend mode="normal" in="SourceGraphic" in2="effect1_dropShadow_1251_30529" result="shape"/>
</filter>
<filter id="filter1_d_1251_30529" x="13.3985" y="34" width="33.0516" height="65.673" filterUnits="userSpaceOnUse" color-interpolation-filters="sRGB">
<feFlood flood-opacity="0" result="BackgroundImageFix"/>
<feColorMatrix in="SourceAlpha" type="matrix" values="0 0 0 0 0 0 0 0 0 0 0 0 0 0 0 0 0 0 127 0" result="hardAlpha"/>
<feOffset dy="1.22467"/>
<feGaussianBlur stdDeviation="0.612333"/>
<feComposite in2="hardAlpha" operator="out"/>
<feColorMatrix type="matrix" values="0 0 0 0 0 0 0 0 0 0 0 0 0 0 0 0 0 0 0.25 0"/>
<feBlend mode="normal" in2="BackgroundImageFix" result="effect1_dropShadow_1251_30529"/>
<feBlend mode="normal" in="SourceGraphic" in2="effect1_dropShadow_1251_30529" result="shape"/>
</filter>
<filter id="filter2_d_1251_30529" x="19.8663" y="55.8545" width="22.7861" height="37.0065" filterUnits="userSpaceOnUse" color-interpolation-filters="sRGB">
<feFlood flood-opacity="0" result="BackgroundImageFix"/>
<feColorMatrix in="SourceAlpha" type="matrix" values="0 0 0 0 0 0 0 0 0 0 0 0 0 0 0 0 0 0 127 0" result="hardAlpha"/>
<feOffset dy="0.269858"/>
<feGaussianBlur stdDeviation="0.134929"/>
<feComposite in2="hardAlpha" operator="out"/>
<feColorMatrix type="matrix" values="0 0 0 0 0 0 0 0 0 0 0 0 0 0 0 0 0 0 0.25 0"/>
<feBlend mode="normal" in2="BackgroundImageFix" result="effect1_dropShadow_1251_30529"/>
<feBlend mode="normal" in="SourceGraphic" in2="effect1_dropShadow_1251_30529" result="shape"/>
</filter>
<filter id="filter3_d_1251_30529" x="25.7089" y="62.665" width="6.30461" height="5.44011" filterUnits="userSpaceOnUse" color-interpolation-filters="sRGB">
<feFlood flood-opacity="0" result="BackgroundImageFix"/>
<feColorMatrix in="SourceAlpha" type="matrix" values="0 0 0 0 0 0 0 0 0 0 0 0 0 0 0 0 0 0 127 0" result="hardAlpha"/>
<feOffset dy="0.269858"/>
<feGaussianBlur stdDeviation="0.134929"/>
<feComposite in2="hardAlpha" operator="out"/>
<feColorMatrix type="matrix" values="0 0 0 0 0 0 0 0 0 0 0 0 0 0 0 0 0 0 0.25 0"/>
<feBlend mode="normal" in2="BackgroundImageFix" result="effect1_dropShadow_1251_30529"/>
<feBlend mode="normal" in="SourceGraphic" in2="effect1_dropShadow_1251_30529" result="shape"/>
</filter>
<filter id="filter4_d_1251_30529" x="33.2732" y="62.2217" width="2.61955" height="2.66569" filterUnits="userSpaceOnUse" color-interpolation-filters="sRGB">
<feFlood flood-opacity="0" result="BackgroundImageFix"/>
<feColorMatrix in="SourceAlpha" type="matrix" values="0 0 0 0 0 0 0 0 0 0 0 0 0 0 0 0 0 0 127 0" result="hardAlpha"/>
<feOffset dy="0.269858"/>
<feGaussianBlur stdDeviation="0.134929"/>
<feComposite in2="hardAlpha" operator="out"/>
<feColorMatrix type="matrix" values="0 0 0 0 0 0 0 0 0 0 0 0 0 0 0 0 0 0 0.25 0"/>
<feBlend mode="normal" in2="BackgroundImageFix" result="effect1_dropShadow_1251_30529"/>
<feBlend mode="normal" in="SourceGraphic" in2="effect1_dropShadow_1251_30529" result="shape"/>
</filter>
<filter id="filter5_d_1251_30529" x="33.5369" y="64.5693" width="2.61955" height="2.66569" filterUnits="userSpaceOnUse" color-interpolation-filters="sRGB">
<feFlood flood-opacity="0" result="BackgroundImageFix"/>
<feColorMatrix in="SourceAlpha" type="matrix" values="0 0 0 0 0 0 0 0 0 0 0 0 0 0 0 0 0 0 127 0" result="hardAlpha"/>
<feOffset dy="0.269858"/>
<feGaussianBlur stdDeviation="0.134929"/>
<feComposite in2="hardAlpha" operator="out"/>
<feColorMatrix type="matrix" values="0 0 0 0 0 0 0 0 0 0 0 0 0 0 0 0 0 0 0.25 0"/>
<feBlend mode="normal" in2="BackgroundImageFix" result="effect1_dropShadow_1251_30529"/>
<feBlend mode="normal" in="SourceGraphic" in2="effect1_dropShadow_1251_30529" result="shape"/>
</filter>
<filter id="filter6_d_1251_30529" x="14.3533" y="57.5547" width="16.4279" height="20.2604" filterUnits="userSpaceOnUse" color-interpolation-filters="sRGB">
<feFlood flood-opacity="0" result="BackgroundImageFix"/>
<feColorMatrix in="SourceAlpha" type="matrix" values="0 0 0 0 0 0 0 0 0 0 0 0 0 0 0 0 0 0 127 0" result="hardAlpha"/>
<feOffset dy="0.269858"/>
<feGaussianBlur stdDeviation="0.134929"/>
<feComposite in2="hardAlpha" operator="out"/>
<feColorMatrix type="matrix" values="0 0 0 0 0 0 0 0 0 0 0 0 0 0 0 0 0 0 0.25 0"/>
<feBlend mode="normal" in2="BackgroundImageFix" result="effect1_dropShadow_1251_30529"/>
<feBlend mode="normal" in="SourceGraphic" in2="effect1_dropShadow_1251_30529" result="shape"/>
</filter>
<filter id="filter7_d_1251_30529" x="14.7873" y="34" width="28.7879" height="28.7878" filterUnits="userSpaceOnUse" color-interpolation-filters="sRGB">
<feFlood flood-opacity="0" result="BackgroundImageFix"/>
<feColorMatrix in="SourceAlpha" type="matrix" values="0 0 0 0 0 0 0 0 0 0 0 0 0 0 0 0 0 0 127 0" result="hardAlpha"/>
<feOffset dy="0.269858"/>
<feGaussianBlur stdDeviation="0.134929"/>
<feComposite in2="hardAlpha" operator="out"/>
<feColorMatrix type="matrix" values="0 0 0 0 0 0 0 0 0 0 0 0 0 0 0 0 0 0 0.25 0"/>
<feBlend mode="normal" in2="BackgroundImageFix" result="effect1_dropShadow_1251_30529"/>
<feBlend mode="normal" in="SourceGraphic" in2="effect1_dropShadow_1251_30529" result="shape"/>
</filter>
<filter id="filter8_d_1251_30529" x="19.2667" y="0.896637" width="90.182" height="93.3219" filterUnits="userSpaceOnUse" color-interpolation-filters="sRGB">
<feFlood flood-opacity="0" result="BackgroundImageFix"/>
<feColorMatrix in="SourceAlpha" type="matrix" values="0 0 0 0 0 0 0 0 0 0 0 0 0 0 0 0 0 0 127 0" result="hardAlpha"/>
<feOffset dy="5.92184"/>
<feGaussianBlur stdDeviation="14.8046"/>
<feColorMatrix type="matrix" values="0 0 0 0 1 0 0 0 0 0.6 0 0 0 0 0 0 0 0 0.54 0"/>
<feBlend mode="normal" in2="BackgroundImageFix" result="effect1_dropShadow_1251_30529"/>
<feBlend mode="normal" in="SourceGraphic" in2="effect1_dropShadow_1251_30529" result="shape"/>
</filter>
<linearGradient id="paint0_linear_1251_30529" x1="35.4326" y1="63.4727" x2="45.5258" y2="63.7004" gradientUnits="userSpaceOnUse">
<stop stop-color="#EFF2F3"/>
<stop offset="1" stop-color="white"/>
</linearGradient>
<linearGradient id="paint1_linear_1251_30529" x1="30.5439" y1="56.7912" x2="33.0995" y2="79.5419" gradientUnits="userSpaceOnUse">
<stop stop-color="#E3E9EB"/>
<stop offset="0.56737" stop-color="white"/>
</linearGradient>
<linearGradient id="paint2_linear_1251_30529" x1="28.6491" y1="58.1585" x2="28.6491" y2="67.4525" gradientUnits="userSpaceOnUse">
<stop stop-color="#50D5FF"/>
<stop offset="1" stop-color="#2C3585"/>
</linearGradient>
<radialGradient id="paint3_radial_1251_30529" cx="0" cy="0" r="1" gradientUnits="userSpaceOnUse" gradientTransform="translate(34.583 63.2843) rotate(90) scale(1.25426 1.21989)">
<stop stop-color="#51E0FF"/>
<stop offset="1" stop-color="#4E7CB4"/>
</radialGradient>
<radialGradient id="paint4_radial_1251_30529" cx="0" cy="0" r="1" gradientUnits="userSpaceOnUse" gradientTransform="translate(34.8467 65.632) rotate(90) scale(1.25426 1.21989)">
<stop stop-color="#FFB3B3"/>
<stop offset="1" stop-color="#F20000"/>
</radialGradient>
<linearGradient id="paint5_linear_1251_30529" x1="20.6328" y1="61.2957" x2="23.3339" y2="71.7121" gradientUnits="userSpaceOnUse">
<stop stop-color="#EFF2F3"/>
<stop offset="1" stop-color="white"/>
</linearGradient>
<radialGradient id="paint6_radial_1251_30529" cx="0" cy="0" r="1" gradientUnits="userSpaceOnUse" gradientTransform="translate(24.9063 62.9925) rotate(-177.671) scale(18.7336 18.7336)">
<stop offset="0.381" stop-color="#BFCCD1"/>
<stop offset="0.7578" stop-color="white"/>
</radialGradient>
<linearGradient id="paint7_linear_1251_30529" x1="39.8869" y1="48.6144" x2="21.1839" y2="42.1461" gradientUnits="userSpaceOnUse">
<stop stop-color="#FFF668"/>
<stop offset="0.519247" stop-color="#FF9C4C"/>
<stop offset="1" stop-color="#880000"/>
</linearGradient>
<radialGradient id="paint8_radial_1251_30529" cx="0" cy="0" r="1" gradientUnits="userSpaceOnUse" gradientTransform="translate(35.1819 49.4356) rotate(173.286) scale(23.7034)">
<stop offset="0.180591" stop-color="white"/>
<stop offset="0.9385" stop-color="#880000"/>
</radialGradient>
<linearGradient id="paint9_linear_1251_30529" x1="41.6247" y1="90.0929" x2="40.7421" y2="93.0989" gradientUnits="userSpaceOnUse">
<stop stop-color="#504A44"/>
<stop offset="1" stop-color="#504A44" stop-opacity="0"/>
</linearGradient>
<linearGradient id="paint10_linear_1251_30529" x1="24.6082" y1="90.6643" x2="25.6068" y2="93.2916" gradientUnits="userSpaceOnUse">
<stop stop-color="#504A44"/>
<stop offset="1" stop-color="#504A44" stop-opacity="0"/>
</linearGradient>
<radialGradient id="paint11_radial_1251_30529" cx="0" cy="0" r="1" gradientUnits="userSpaceOnUse" gradientTransform="translate(63.9201 40.7521) rotate(90) scale(22.4552)">
<stop stop-color="#FFC107"/>
<stop offset="0.994792" stop-color="#FFC107" stop-opacity="0"/>
</radialGradient>
</defs>
</svg>
