<svg width="59" height="63" viewBox="0 0 59 63" fill="none" xmlns="http://www.w3.org/2000/svg">
<path d="M17.8567 12.192V59.6927C17.8567 61.1299 19.0219 62.2951 20.4591 62.2951H41.607C43.0444 62.2951 44.2095 61.1299 44.2095 59.6927V12.192C44.2095 10.7548 43.0444 9.58966 41.607 9.58966H20.4591C19.0219 9.58966 17.8567 10.7548 17.8567 12.192Z" fill="#0569FF"/>
<path d="M20.4586 12.1094C19.5284 12.1094 18.7716 12.8662 18.7716 13.7965V56.4843C18.7716 57.4145 19.5284 58.1714 20.4586 58.1714H41.6065C42.5369 58.1714 43.2936 57.4145 43.2936 56.4843V13.7965C43.2936 12.8662 42.5369 12.1094 41.6065 12.1094H20.4586Z" fill="#EBF1F9"/>
<path d="M31.0327 11.5306C31.3405 11.5306 31.5901 11.281 31.5901 10.9732C31.5901 10.6654 31.3405 10.4158 31.0327 10.4158C30.7249 10.4158 30.4753 10.6654 30.4753 10.9732C30.4753 11.281 30.7249 11.5306 31.0327 11.5306Z" fill="#D7B2E9"/>
<path d="M34.0056 60.8247H28.0606C27.7528 60.8247 27.5033 60.5752 27.5033 60.2673C27.5033 59.9596 27.7528 59.7101 28.0606 59.7101H34.0056C34.3134 59.7101 34.563 59.9596 34.563 60.2673C34.563 60.5751 34.3134 60.8247 34.0056 60.8247Z" fill="#D7B2E9"/>
<path d="M36.5986 47.85H23.0697C22.2297 51.8741 21.9667 54.7364 21.7777 58.1712H28.6966L29.2429 56.1173C29.3602 57.0344 29.4764 57.6303 29.5888 58.1712H36.0287L36.5986 47.85Z" fill="#00161D"/>
<path d="M41.9392 39.0683C38.4406 36.3688 35.1687 32.7615 32.401 28.9581C30.2827 26.121 31.2339 24.66 33.3622 23.8672C34.7002 23.9677 35.8339 24.4166 36.8767 25.7466C39.881 29.5781 41.1834 31.8157 43.4677 35.6584L41.9392 39.0683Z" fill="#EC5665"/>
<path d="M45.3649 26.3143L44.3086 25.894L43.2034 28.7038L45.2049 29.6035C45.3221 28.3397 45.3557 27.1826 45.3649 26.3143Z" fill="#E3E3E3"/>
<path d="M43.2024 28.704L40.8414 34.7073L42.4722 37.6934C44.2549 35.8251 45.4026 32.4973 45.666 29.6571L43.2024 28.704Z" fill="#EC5665"/>
<path d="M46.3609 27.8544L45.6346 28.1134C45.2969 28.2338 44.9212 28.1552 44.6577 27.9123C43.295 26.6553 41.8973 23.9307 41.3442 22.2822L44.4309 21.1817C44.8597 22.5644 45.9844 25.0977 46.8428 26.277C47.2482 26.834 47.0096 27.6231 46.3609 27.8544Z" fill="#000342"/>
<path d="M43.6566 21.4579L41.0372 22.3917C39.5906 22.9075 37.9998 22.1529 37.4841 20.7063C36.9683 19.2597 37.723 17.6689 39.1696 17.1531L41.7888 16.2193L43.6566 21.4579Z" fill="#0286FF"/>
<path d="M41.4082 16.4915C40.9061 16.7659 40.8884 18.0176 41.3552 19.3266C41.8218 20.6357 42.6275 21.5939 43.1893 21.4873C43.1898 21.4887 55.5302 21.5284 55.5302 21.5284L50.9399 8.65381L41.4082 16.4915Z" fill="#0286FF"/>
<path d="M50.815 7.85013C49.4332 8.34278 49.4606 11.961 50.8762 15.9317C52.2918 19.9024 54.5595 22.7219 55.9414 22.2292C57.3232 21.7366 57.2959 18.1183 55.8802 14.1477C54.4646 10.177 52.1969 7.35749 50.815 7.85013Z" fill="#000342"/>
<path d="M50.8748 15.9321C51.1839 16.7997 51.534 17.6122 51.9065 18.3472L54.7218 16.8096L53.299 12.8188L50.1461 13.4091C50.3225 14.2141 50.5655 15.0646 50.8748 15.9321Z" fill="#0286FF"/>
<path d="M53.3013 12.8214C52.9178 12.9581 52.9253 13.9623 53.3182 15.0643C53.7111 16.1663 54.3405 16.9488 54.724 16.8121C55.1075 16.6753 55.1 15.6711 54.7071 14.5691C54.3142 13.4671 53.6848 12.6846 53.3013 12.8214Z" fill="#B3EDFF"/>
<path d="M56.0536 22.5468C55.24 22.8368 54.2117 22.2753 53.1586 20.9658C52.1788 19.7477 51.2553 18.0002 50.5584 16.0452C49.8614 14.0902 49.471 12.1527 49.4591 10.5896C49.4463 8.90901 49.8874 7.8237 50.701 7.53368C51.5146 7.24367 52.5427 7.80504 53.5961 9.1147C54.5757 10.3327 55.4992 12.0803 56.1961 14.0353C56.8932 15.9903 57.2835 17.9278 57.2954 19.4909C57.3081 21.1714 56.8671 22.2567 56.0536 22.5468ZM50.9267 8.16708C49.8931 8.53558 49.7476 11.7689 51.1918 15.8194C52.6358 19.8698 54.7939 22.2819 55.8276 21.9134C56.8614 21.5449 57.0069 18.3115 55.5626 14.2611C54.1185 10.2106 51.9605 7.79849 50.9267 8.16708Z" fill="#B3EDFF"/>
<path d="M44.812 28.0339L43.2171 25.7752L42.5697 24.3796L42.191 24.5553L42.5098 26.2089L43.4823 27.7035L44.812 28.0339ZM44.7843 24.052L46.1038 26.1231L46.4605 25.3771L46.0936 24.4842L45.4356 23.1261L45.1779 23.1432L44.7843 24.052Z" fill="#F4ACC8"/>
<path d="M35.7555 41.077C35.836 38.1583 36.3493 31.6504 36.5308 27.5043C36.6032 25.8502 35.523 24.3618 33.9241 23.9326C29.8314 22.8338 25.0103 22.4717 21.5259 24.0012C20.5636 24.4237 19.9745 25.3619 20.0169 26.4653C20.2316 32.0474 23.087 41.077 23.087 41.077L21.4784 51.5291H37.6426L35.7406 41.077H35.7555Z" fill="#EC5665"/>
<path d="M33.1582 41.2218L32.3264 23.5514C30.2098 23.1065 27.9783 22.8821 25.8865 23.0199L30.5412 41.2359L30.1644 49.1008H33.1022L33.1582 41.2218Z" fill="#E3E3E3"/>
<path d="M12.9701 27.8048L11.8649 28.5178C11.9204 29.0337 11.9991 29.6561 12.1049 30.3445L14.154 29.8198L12.9701 27.8048Z" fill="#E3E3E3"/>
<path d="M16.7804 40.0377C17.3056 35.9727 18.0552 29.6878 20.3405 25.2069L25.5302 28.031C24.2786 32.3882 22.2575 38.0009 20.2951 41.6133L16.7804 40.0377Z" fill="#EC5665"/>
<path d="M19.1491 38.3226L14.1539 29.8199L11.6257 30.3486C12.1513 33.7698 13.8434 38.859 16.4266 41.088C17.6755 42.0831 18.9676 42.4666 20.2954 41.613L19.1491 38.3226Z" fill="#EC5665"/>
<path d="M30.1641 49.101L30.0482 51.5176H33.3648L33.102 49.101H30.1641Z" fill="#00161D"/>
<path d="M30.7399 20.9351L30.036 25.7579L26.8741 23.1001L28.4151 18.8939L30.7399 20.9351Z" fill="#F4ACC8"/>
<path d="M32.2902 20.5933C32.3373 21.3566 31.6113 22.066 30.1627 21.5743L27.7968 20.5258L26.5962 16.9707L27.7678 14.1449L32.0196 14.2395L32.2902 20.5933Z" fill="#F4ACC8"/>
<path d="M31.7194 16.8241L32.7191 18.6714L31.8824 18.8235L31.7194 16.8241Z" fill="#F4ACC8"/>
<path d="M32.2581 19.4633L31.0891 19.6666C30.3711 19.7917 29.6728 19.3611 29.4618 18.6635C29.4618 18.6635 29.1355 16.857 29.1192 16.4356L32.2646 15.4626L33.0061 13.0587L31.9574 13.3048L27.8672 13.465C26.0455 13.5162 25.3519 14.8983 25.986 16.8963L26.8471 19.3151C27.0792 19.967 27.1359 20.3218 27.7973 20.5254L28.033 19.8319C28.1757 19.4117 28.0933 18.9584 27.8499 18.5875C27.8107 18.5277 27.7744 18.4624 27.7425 18.3925C27.5475 17.9665 27.5835 17.5322 27.8232 17.4224C28.0628 17.3126 28.4152 17.5691 28.6102 17.9951C28.7815 18.3693 28.8868 20.9249 28.8868 20.9249L30.409 21.6971C31.8851 22.0983 32.5658 21.3454 32.4717 20.5864L32.2581 19.4633Z" fill="#4F2674"/>
<path d="M26.6345 22.9858L28.3762 27.1958L30.0368 25.7576L27.1586 22.3256L26.6345 22.9858Z" fill="white"/>
<path d="M30.8669 23.2829L31.2112 26.8605L30.0367 25.7581L30.5111 22.5073L30.8669 23.2829Z" fill="white"/>
<path d="M12.9705 27.8052C12.9705 27.8052 14.3464 26.1309 12.4505 25.9108C7.36669 25.3207 10.9526 26.0469 10.7711 26.0469C10.5895 26.0469 8.95543 25.9108 7.50296 25.6838C6.54321 25.5338 7.68454 27.3178 9.40944 27.681C11.1343 28.0442 12.1329 28.3618 12.1329 28.3618L12.9705 27.8052Z" fill="#F4ACC8"/>
<path d="M11.1571 25.7986C11.1205 25.8033 11.083 25.8023 11.0454 25.8042C10.9713 25.8098 10.898 25.8155 10.822 25.8136C10.776 25.8126 10.73 25.8061 10.684 25.8023C10.6155 25.7967 10.547 25.7929 10.4766 25.7817C10.4268 25.7742 10.3752 25.761 10.3245 25.7507C10.2569 25.7366 10.1903 25.7235 10.1217 25.7047C10.0692 25.6906 10.0157 25.6709 9.9631 25.654C9.89645 25.6324 9.8298 25.6108 9.76222 25.5845C9.70777 25.5639 9.65333 25.5385 9.59888 25.5151C9.53223 25.486 9.46559 25.4569 9.39988 25.424C9.34449 25.3968 9.29005 25.3658 9.23467 25.3358C9.16896 25.3001 9.10325 25.2635 9.03754 25.2241C8.98215 25.1903 8.92677 25.1546 8.87139 25.118C8.80662 25.0758 8.74185 25.0326 8.67802 24.9857C8.63296 24.9537 8.5879 24.919 8.54284 24.8852C8.42269 24.7942 8.30348 24.6965 8.18614 24.5942C8.15704 24.5679 8.127 24.5445 8.09696 24.5182C7.99464 24.4252 7.89326 24.3267 7.79376 24.2253C7.77686 24.2075 7.75903 24.1924 7.74213 24.1746C7.66234 24.092 7.58537 24.0038 7.50746 23.9155C7.47929 23.8836 7.4502 23.8545 7.42297 23.8217C7.40795 23.8048 7.39481 23.786 7.37979 23.7682C7.29437 23.6658 7.21083 23.5626 7.12916 23.4546C7.10006 23.4161 7.07284 23.3748 7.04374 23.3354C6.9799 23.2472 6.91701 23.1599 6.856 23.0679C6.82033 23.0144 6.78747 22.959 6.75274 22.9046C6.70111 22.8238 6.65042 22.7422 6.60161 22.6586C6.56124 22.5901 6.5237 22.5187 6.48615 22.4493C6.43546 22.3563 6.38289 22.2644 6.33595 22.1686C6.26931 22.0334 6.20642 21.8983 6.14915 21.764C6.1454 21.7556 6.14258 21.7481 6.13977 21.7406C6.09095 21.6251 6.0459 21.5106 6.00366 21.397C5.98958 21.3585 5.97643 21.321 5.96329 21.2834C5.93419 21.1999 5.90603 21.1163 5.88069 21.0337C5.86661 20.9877 5.85253 20.9427 5.83938 20.8967C5.81592 20.8159 5.79526 20.7352 5.77555 20.6554C5.76522 20.6141 5.7549 20.5728 5.74551 20.5325C5.72392 20.4358 5.70515 20.3391 5.68825 20.2443C5.6845 20.2227 5.67886 20.2002 5.67605 20.1776C5.65727 20.0612 5.64319 19.9467 5.63193 19.8341C5.62911 19.8021 5.62724 19.7702 5.62536 19.7383C5.61879 19.6576 5.61409 19.5778 5.61128 19.4999C5.61034 19.4605 5.61034 19.421 5.61034 19.3816C5.61034 19.3121 5.61128 19.2427 5.61409 19.1751C5.61597 19.1357 5.61785 19.0962 5.62066 19.0578C5.62536 18.9902 5.63287 18.9235 5.64132 18.8578C5.64601 18.8231 5.64977 18.7883 5.65446 18.7546C5.66666 18.6738 5.68262 18.5959 5.69952 18.5189C5.70327 18.503 5.70609 18.4851 5.70984 18.4692C5.73237 18.3791 5.75865 18.2927 5.78775 18.2082C5.8253 18.0993 5.86942 17.9961 5.91917 17.8985C5.93419 17.8684 5.95203 17.8412 5.96799 17.8121C6.00084 17.7539 6.03463 17.6957 6.07218 17.6412C6.09565 17.6075 6.12005 17.5765 6.1454 17.5446C6.17731 17.5033 6.21017 17.4629 6.2449 17.4244C6.274 17.3934 6.30404 17.3643 6.33408 17.3352C6.36881 17.3024 6.40354 17.2705 6.44109 17.2404C6.4946 17.1963 6.54904 17.1531 6.60818 17.1165L5.72111 17.6797C5.67793 17.707 5.63569 17.737 5.59532 17.768C5.5803 17.7792 5.5681 17.7933 5.55402 17.8046C5.51741 17.8346 5.48174 17.8665 5.447 17.8994C5.42823 17.9172 5.40758 17.9322 5.38881 17.951C5.37754 17.9632 5.36815 17.9773 5.35689 17.9895C5.32216 18.028 5.2893 18.0684 5.25739 18.1097C5.24049 18.1313 5.22078 18.15 5.20482 18.1726C5.19731 18.1829 5.19168 18.196 5.18417 18.2064C5.14662 18.2608 5.11377 18.3181 5.08091 18.3763C5.06777 18.3997 5.05181 18.4204 5.03961 18.4438C5.03679 18.4495 5.03492 18.457 5.03116 18.4626C4.98141 18.5602 4.93823 18.6644 4.89974 18.7724C4.89787 18.7771 4.89505 18.7818 4.89411 18.7865C4.86689 18.8663 4.84342 18.9489 4.82277 19.0333C4.81901 19.0493 4.8162 19.0662 4.81244 19.0822C4.79743 19.146 4.78335 19.2108 4.77208 19.2774C4.7702 19.2905 4.76926 19.3046 4.76739 19.3178C4.76175 19.3516 4.758 19.3863 4.75425 19.421C4.7458 19.4867 4.73923 19.5534 4.73359 19.621C4.73078 19.6595 4.7289 19.6989 4.72702 19.7383C4.72421 19.8059 4.72327 19.8754 4.72327 19.9448C4.72327 19.9842 4.72327 20.0227 4.72421 20.0622C4.72608 20.141 4.73172 20.2208 4.73829 20.3015C4.7411 20.3334 4.74204 20.3644 4.74486 20.3963C4.75612 20.509 4.7702 20.6235 4.78898 20.7399C4.79273 20.7615 4.79743 20.784 4.80118 20.8056C4.81808 20.9014 4.83591 20.9971 4.85844 21.0938C4.86783 21.1351 4.87815 21.1764 4.88848 21.2177C4.90819 21.2975 4.92884 21.3773 4.95231 21.458C4.96545 21.504 4.97953 21.55 4.99361 21.596C5.00488 21.6317 5.01333 21.6664 5.02553 21.7021C5.04055 21.749 5.05932 21.7969 5.07622 21.8448C5.08936 21.8832 5.1025 21.9208 5.11658 21.9593C5.15882 22.0729 5.20294 22.1874 5.25176 22.3019C5.25551 22.3104 5.25833 22.3188 5.26208 22.3272C5.26302 22.3282 5.26302 22.3301 5.26396 22.331C5.32122 22.4643 5.38317 22.5976 5.44888 22.7309C5.46578 22.7647 5.48268 22.7985 5.49957 22.8313C5.53149 22.8933 5.56622 22.9515 5.59908 23.0116C5.63756 23.082 5.67511 23.1524 5.71454 23.2209C5.72298 23.2359 5.73049 23.2509 5.73988 23.2659C5.78025 23.3345 5.82436 23.3992 5.8666 23.4659C5.90134 23.5203 5.93419 23.5767 5.96986 23.6302C5.97643 23.6396 5.98207 23.6508 5.98864 23.6602C6.04308 23.7409 6.10034 23.8188 6.15667 23.8968C6.18577 23.9362 6.21299 23.9775 6.24208 24.0169C6.2449 24.0216 6.24866 24.0263 6.25147 24.0301C6.32938 24.1342 6.41105 24.2338 6.49272 24.3314C6.5068 24.3483 6.52088 24.367 6.53496 24.3839C6.5359 24.3849 6.5359 24.3849 6.53684 24.3858C6.56312 24.4168 6.59128 24.445 6.61757 24.4759C6.69548 24.5651 6.77339 24.6533 6.85412 24.7378C6.856 24.7397 6.85693 24.7407 6.85881 24.7425C6.87383 24.7585 6.88979 24.7716 6.90481 24.7866C7.00525 24.889 7.10663 24.9875 7.20989 25.0814C7.21833 25.0889 7.22678 25.0983 7.23523 25.1058C7.25588 25.1246 7.27747 25.1396 7.29812 25.1574C7.41546 25.2607 7.53468 25.3574 7.65483 25.4484C7.67736 25.4653 7.69895 25.486 7.72148 25.5029C7.74401 25.5198 7.76748 25.5329 7.79001 25.5498C7.85478 25.5958 7.91861 25.639 7.98431 25.6822C8.0397 25.7188 8.09414 25.7544 8.14953 25.7882C8.21524 25.8277 8.28095 25.8643 8.34665 25.9009C8.40204 25.9309 8.45648 25.9619 8.51187 25.9891C8.57851 26.022 8.64422 26.0511 8.71087 26.0802C8.76532 26.1036 8.81976 26.129 8.8742 26.1496C8.94179 26.1759 9.00844 26.1975 9.07509 26.2191C9.12766 26.236 9.18116 26.2557 9.23373 26.2698C9.30225 26.2886 9.3689 26.3017 9.43649 26.3158C9.48718 26.3261 9.53787 26.3393 9.58762 26.3468C9.65708 26.3571 9.72561 26.3618 9.79413 26.3674C9.84013 26.3712 9.88706 26.3777 9.93306 26.3787C10.0082 26.3806 10.0814 26.374 10.1546 26.3693C10.1921 26.3665 10.2306 26.3674 10.2672 26.3637C10.3771 26.3505 10.4841 26.3289 10.5883 26.2989C10.7629 26.2482 10.9234 26.1759 11.0679 26.0839L11.955 25.5207C11.8105 25.6127 11.6499 25.685 11.4753 25.7357C11.373 25.7638 11.266 25.7845 11.1571 25.7986Z" fill="url(#paint0_linear)"/>
<path d="M7.08969 16.9004C8.71646 16.4311 11.0172 18.0269 12.2291 20.4666C13.44 22.9044 13.1049 25.2643 11.4772 25.7336C9.85135 26.203 7.54872 24.6053 6.33779 22.1675C5.12593 19.7269 5.46386 17.3698 7.08969 16.9004Z" fill="url(#paint1_linear)"/>
<path opacity="0.4" d="M7.5565 17.4011C6.33941 17.8884 6.20415 19.9864 7.25711 22.078C8.30919 24.1707 10.1553 25.476 11.3733 24.9887C12.5904 24.5014 12.7257 22.4034 11.6727 20.3118C10.6207 18.2202 8.7746 16.9149 7.5565 17.4011ZM11.2162 20.495C12.0497 22.1518 11.9433 23.8156 10.977 24.2024C10.0124 24.588 8.54905 23.5527 7.71555 21.8958C6.88092 20.2358 6.98743 18.5731 7.95195 18.1875C8.91735 17.8007 10.3817 18.836 11.2162 20.495Z" fill="#FEFBB4"/>
<path d="M10.0719 19.4979L7.9288 20.7494C7.77797 20.0799 7.89132 19.4368 8.31202 19.1911C8.57332 19.0385 8.91021 19.0652 9.25118 19.2196L9.59111 19.0211C9.03673 18.6378 8.49781 18.5621 8.08536 18.803C7.44098 19.1793 7.35853 20.2743 7.82172 21.3674L7.83539 21.3595L8.83249 20.7772L9.16238 21.3421L8.16537 21.9243L8.40729 22.3386L9.4043 21.7564L10.438 23.5265L10.6817 23.3842L9.64801 21.6141L9.82526 21.5106L10.8589 23.2807L11.1248 23.1255L10.0911 21.3553L10.728 20.9834L10.7665 20.961L10.966 20.8445C10.8964 20.6831 10.8064 20.5066 10.7124 20.346C10.5259 20.0272 10.2954 19.7209 10.0719 19.4979ZM9.58334 21.0963L9.40609 21.1998L9.0762 20.6349L9.25345 20.5314L9.58334 21.0963ZM9.84921 20.9411L9.51932 20.3761L10.1514 20.007C10.2651 20.1426 10.3863 20.3181 10.4862 20.4889C10.4955 20.5048 10.499 20.5111 10.5207 20.5489L9.84921 20.9411Z" fill="#F4D27C"/>
<g filter="url(#filter0_f)">
<path d="M2.17945 15.164C2.20558 15.1674 2.23237 15.1667 2.25916 15.168C2.31208 15.1721 2.36433 15.1761 2.41858 15.1747C2.4514 15.1741 2.48422 15.1694 2.51704 15.1667C2.56594 15.1627 2.61484 15.16 2.66507 15.152C2.70057 15.1466 2.73741 15.1372 2.77358 15.1299C2.82181 15.1198 2.86937 15.1104 2.91826 15.097C2.95577 15.087 2.99395 15.0729 3.03146 15.0609C3.07902 15.0455 3.12658 15.0301 3.1748 15.0113C3.21365 14.9966 3.2525 14.9785 3.29135 14.9617C3.33891 14.941 3.38647 14.9202 3.43335 14.8968C3.47287 14.8773 3.51172 14.8552 3.55124 14.8338C3.59813 14.8083 3.64502 14.7822 3.6919 14.7541C3.73142 14.73 3.77094 14.7045 3.81046 14.6784C3.85668 14.6483 3.9029 14.6174 3.94844 14.584C3.98059 14.5612 4.01275 14.5364 4.0449 14.5123C4.13063 14.4473 4.2157 14.3777 4.29943 14.3046C4.32019 14.2859 4.34163 14.2691 4.36306 14.2504C4.43607 14.1841 4.50841 14.1137 4.57941 14.0414C4.59147 14.0287 4.6042 14.018 4.61625 14.0052C4.67319 13.9463 4.72811 13.8833 4.78371 13.8204C4.8038 13.7976 4.82456 13.7768 4.84399 13.7534C4.85471 13.7413 4.86408 13.7279 4.8748 13.7152C4.93575 13.6422 4.99537 13.5685 5.05364 13.4915C5.07441 13.464 5.09383 13.4345 5.1146 13.4064C5.16014 13.3435 5.20502 13.2812 5.24856 13.2155C5.27401 13.1773 5.29746 13.1378 5.32224 13.099C5.35908 13.0414 5.39525 12.9831 5.43008 12.9235C5.45888 12.8746 5.48568 12.8237 5.51247 12.7741C5.54864 12.7078 5.58615 12.6422 5.61964 12.5738C5.6672 12.4774 5.71207 12.3809 5.75293 12.2851C5.75561 12.2791 5.75762 12.2738 5.75963 12.2684C5.79446 12.186 5.82661 12.1043 5.85675 12.0232C5.8668 11.9958 5.87618 11.969 5.88556 11.9422C5.90632 11.8826 5.92641 11.823 5.9445 11.764C5.95455 11.7312 5.96459 11.699 5.97397 11.6662C5.99072 11.6086 6.00545 11.551 6.01952 11.4941C6.02689 11.4646 6.03426 11.4351 6.04095 11.4063C6.05636 11.3373 6.06976 11.2684 6.08181 11.2007C6.08449 11.1853 6.08851 11.1692 6.09052 11.1531C6.10392 11.0701 6.11396 10.9884 6.122 10.908C6.12401 10.8852 6.12535 10.8624 6.12669 10.8397C6.13138 10.7821 6.13473 10.7251 6.13674 10.6695C6.13741 10.6414 6.13741 10.6133 6.13741 10.5851C6.13741 10.5356 6.13674 10.486 6.13473 10.4378C6.13339 10.4096 6.13205 10.3815 6.13004 10.3541C6.12669 10.3058 6.12133 10.2583 6.1153 10.2114C6.11196 10.1866 6.10927 10.1618 6.10593 10.1377C6.09722 10.0801 6.08583 10.0245 6.07378 9.96958C6.0711 9.95819 6.06909 9.94547 6.06641 9.93408C6.05033 9.86978 6.03158 9.80815 6.01081 9.74787C5.98402 9.67017 5.95254 9.59649 5.91704 9.52683C5.90632 9.5054 5.89359 9.48597 5.88221 9.46521C5.85876 9.42368 5.83465 9.38215 5.80786 9.3433C5.79111 9.31919 5.7737 9.29708 5.75561 9.27431C5.73284 9.24484 5.7094 9.21603 5.68461 9.18857C5.66385 9.16647 5.64241 9.1457 5.62098 9.12494C5.5962 9.1015 5.57141 9.07872 5.54462 9.05729C5.50644 9.02581 5.46759 8.99499 5.42539 8.96887L6.05837 9.37076C6.08918 9.39019 6.11932 9.41162 6.14812 9.43373C6.15884 9.44176 6.16755 9.45181 6.1776 9.45985C6.20372 9.48128 6.22917 9.50406 6.25396 9.5275C6.26735 9.54023 6.28209 9.55094 6.29549 9.56434C6.30352 9.57305 6.31022 9.58309 6.31826 9.5918C6.34304 9.61926 6.36649 9.64807 6.38926 9.67754C6.40132 9.69294 6.41538 9.70634 6.42677 9.72242C6.43213 9.72978 6.43615 9.73916 6.44151 9.74653C6.4683 9.78538 6.49174 9.82624 6.51519 9.86777C6.52456 9.88451 6.53595 9.89925 6.54466 9.916C6.54667 9.92001 6.54801 9.92537 6.55069 9.92939C6.58619 9.99905 6.617 10.0734 6.64446 10.1504C6.6458 10.1538 6.64781 10.1571 6.64848 10.1605C6.6679 10.2174 6.68465 10.2764 6.69939 10.3366C6.70206 10.348 6.70407 10.3601 6.70675 10.3715C6.71747 10.417 6.72752 10.4632 6.73555 10.5108C6.73689 10.5202 6.73756 10.5302 6.7389 10.5396C6.74292 10.5637 6.7456 10.5885 6.74828 10.6133C6.75431 10.6602 6.759 10.7077 6.76302 10.7559C6.76503 10.7834 6.76637 10.8115 6.76771 10.8397C6.76972 10.8879 6.77039 10.9375 6.77039 10.987C6.77039 11.0152 6.77039 11.0426 6.76972 11.0708C6.76838 11.127 6.76436 11.184 6.75967 11.2416C6.75766 11.2643 6.75699 11.2864 6.75498 11.3092C6.74694 11.3896 6.73689 11.4713 6.7235 11.5544C6.72082 11.5698 6.71747 11.5858 6.71479 11.6013C6.70273 11.6696 6.69001 11.7379 6.67393 11.8069C6.66723 11.8364 6.65987 11.8658 6.6525 11.8953C6.63843 11.9522 6.6237 12.0092 6.60695 12.0668C6.59757 12.0996 6.58753 12.1324 6.57748 12.1652C6.56944 12.1907 6.56341 12.2155 6.5547 12.2409C6.54399 12.2744 6.53059 12.3086 6.51853 12.3427C6.50916 12.3702 6.49978 12.397 6.48973 12.4245C6.45959 12.5055 6.42811 12.5872 6.39328 12.6689C6.3906 12.675 6.38859 12.681 6.38591 12.687C6.38524 12.6877 6.38524 12.689 6.38457 12.6897C6.34371 12.7848 6.2995 12.8799 6.25262 12.9751C6.24056 12.9992 6.2285 13.0233 6.21645 13.0467C6.19367 13.0909 6.16889 13.1325 6.14544 13.1753C6.11798 13.2256 6.09119 13.2758 6.06306 13.3247C6.05703 13.3354 6.05167 13.3461 6.04497 13.3568C6.01617 13.4057 5.98469 13.452 5.95455 13.4995C5.92977 13.5384 5.90632 13.5786 5.88087 13.6167C5.87618 13.6234 5.87216 13.6315 5.86747 13.6382C5.82862 13.6958 5.78776 13.7514 5.74757 13.807C5.72681 13.8351 5.70739 13.8646 5.68662 13.8927C5.68461 13.896 5.68193 13.8994 5.67992 13.9021C5.62433 13.9764 5.56605 14.0474 5.50778 14.1171C5.49773 14.1291 5.48768 14.1425 5.47764 14.1546C5.47697 14.1553 5.47697 14.1553 5.4763 14.1559C5.45754 14.178 5.43745 14.1981 5.41869 14.2202C5.3631 14.2839 5.3075 14.3468 5.2499 14.4071C5.24856 14.4085 5.24789 14.4091 5.24655 14.4105C5.23583 14.4219 5.22445 14.4312 5.21373 14.442C5.14206 14.515 5.06972 14.5853 4.99604 14.6523C4.99001 14.6576 4.98398 14.6643 4.97795 14.6697C4.96322 14.6831 4.94781 14.6938 4.93308 14.7065C4.84935 14.7802 4.76428 14.8492 4.67854 14.9142C4.66247 14.9262 4.64706 14.941 4.63099 14.953C4.61491 14.9651 4.59817 14.9745 4.58209 14.9865C4.53587 15.0193 4.49033 15.0501 4.44344 15.081C4.40392 15.1071 4.36507 15.1325 4.32555 15.1566C4.27866 15.1848 4.23178 15.2109 4.18489 15.237C4.14537 15.2585 4.10652 15.2806 4.067 15.3C4.01944 15.3234 3.97256 15.3442 3.925 15.365C3.88615 15.3817 3.8473 15.3998 3.80845 15.4145C3.76022 15.4333 3.71267 15.4487 3.66511 15.4641C3.6276 15.4762 3.58942 15.4902 3.55191 15.5003C3.50301 15.5137 3.45546 15.523 3.40723 15.5331C3.37106 15.5405 3.33489 15.5498 3.29939 15.5552C3.24982 15.5626 3.20093 15.5659 3.15203 15.5699C3.11921 15.5726 3.08572 15.5773 3.0529 15.578C2.99931 15.5793 2.94707 15.5746 2.89482 15.5713C2.86803 15.5693 2.84057 15.5699 2.81444 15.5672C2.73607 15.5579 2.65971 15.5425 2.58536 15.521C2.46078 15.4849 2.34624 15.4333 2.24309 15.3676L1.61011 14.9657C1.71326 15.0314 1.8278 15.083 1.95239 15.1191C2.0254 15.1392 2.10176 15.154 2.17945 15.164Z" fill="url(#paint2_linear)"/>
<path d="M5.08173 8.8149C3.92093 8.48 2.27921 9.61868 1.41447 11.3595C0.55041 13.0991 0.789534 14.783 1.951 15.1179C3.11112 15.4528 4.75418 14.3128 5.61825 12.5732C6.48298 10.8317 6.24185 9.14981 5.08173 8.8149Z" fill="url(#paint3_linear)"/>
<path opacity="0.4" d="M4.74826 9.1725C5.61673 9.5202 5.71325 11.0173 4.9619 12.5097C4.21118 14.003 2.89387 14.9344 2.02474 14.5867C1.15627 14.239 1.05975 12.7419 1.8111 11.2495C2.56177 9.75694 3.87908 8.82553 4.74826 9.1725ZM2.13684 11.3801C1.54209 12.5624 1.61804 13.7496 2.30758 14.0256C2.99582 14.3008 4.04003 13.562 4.63478 12.3797C5.23033 11.1952 5.15433 10.0087 4.46609 9.73361C3.77722 9.45765 2.73235 10.1963 2.13684 11.3801Z" fill="#FEFBB4"/>
<path d="M4.58262 11.5978L3.02117 10.7624C3.37184 10.4206 3.80516 10.2492 4.11167 10.4132C4.30206 10.5151 4.41171 10.7299 4.4452 10.9948L4.69288 11.1273C4.71882 10.6471 4.56348 10.2912 4.26297 10.1304C3.79348 9.87926 3.09694 10.2382 2.6054 10.9282L2.61536 10.9335L3.34184 11.3222L3.12163 11.7338L2.39522 11.3452L2.23373 11.647L2.96015 12.0356L2.27016 13.3253L2.44773 13.4203L3.13772 12.1306L3.26686 12.1997L2.57687 13.4894L2.77058 13.593L3.46057 12.3034L3.92458 12.5516L3.95262 12.5666L4.09799 12.6444C4.17009 12.5418 4.24375 12.4212 4.30631 12.304C4.43045 12.0715 4.53051 11.8169 4.58262 11.5978ZM3.42834 11.8979L3.2992 11.8288L3.51941 11.4172L3.64855 11.4863L3.42834 11.8979ZM3.62205 12.0015L3.84226 11.5899L4.30279 11.8363C4.26283 11.9561 4.20143 12.0953 4.13492 12.2199C4.12871 12.2315 4.12616 12.2359 4.1113 12.2633L3.62205 12.0015Z" fill="#F4D27C"/>
</g>
<path d="M12.9684 10.3668C12.9926 10.3436 13.0133 10.3166 13.036 10.2912C13.0822 10.2421 13.1278 10.1937 13.1698 10.139C13.1953 10.106 13.2168 10.0698 13.2404 10.0352C13.2754 9.98367 13.3117 9.9332 13.3439 9.87713C13.3669 9.83776 13.387 9.79386 13.4086 9.75223C13.4371 9.69654 13.4658 9.64205 13.4916 9.58303C13.5115 9.53794 13.5281 9.48897 13.5461 9.44227C13.5688 9.38297 13.5915 9.32367 13.6114 9.26104C13.6279 9.21088 13.641 9.15805 13.6554 9.10629C13.6728 9.04272 13.6902 8.97914 13.7045 8.91409C13.7168 8.85953 13.7259 8.80349 13.7363 8.74733C13.7485 8.68068 13.7601 8.61349 13.7697 8.5447C13.7774 8.4864 13.7837 8.42703 13.7894 8.36713C13.7965 8.29739 13.8029 8.22713 13.8062 8.15539C13.8093 8.10544 13.8104 8.05388 13.8122 8.00287C13.8164 7.86629 13.8154 7.72663 13.81 7.58562C13.8081 7.55013 13.8086 7.51559 13.8072 7.47944C13.7999 7.35437 13.788 7.22676 13.7732 7.09886C13.7702 7.07679 13.7698 7.05566 13.7668 7.03359C13.7539 6.93029 13.7355 6.82577 13.7176 6.72059C13.7111 6.68256 13.7072 6.64547 13.6995 6.60757C13.6961 6.58735 13.6904 6.5674 13.6863 6.54665C13.6628 6.42816 13.6375 6.31045 13.6079 6.1914C13.5973 6.14897 13.5836 6.10626 13.5724 6.06329C13.5465 5.96804 13.5207 5.87398 13.4906 5.77858C13.4731 5.72296 13.4528 5.66826 13.4341 5.61277C13.4066 5.53041 13.3778 5.44817 13.3467 5.36618C13.3213 5.2987 13.2924 5.23161 13.2647 5.16558C13.228 5.07693 13.1931 4.98749 13.1523 4.89988C13.0948 4.77593 13.0353 4.65462 12.9732 4.53783C12.9694 4.53037 12.9657 4.52411 12.962 4.51785C12.9083 4.41769 12.8532 4.32073 12.7971 4.22628C12.778 4.19444 12.759 4.16379 12.74 4.13315C12.6976 4.06507 12.6547 3.99765 12.6109 3.93276C12.5865 3.89664 12.5627 3.86106 12.5377 3.82561C12.4941 3.76311 12.449 3.70259 12.4039 3.64327C12.3806 3.61247 12.3574 3.58168 12.3343 3.55208C12.2783 3.48182 12.2208 3.41354 12.1636 3.34765C12.1505 3.33272 12.1378 3.31592 12.1235 3.30111C12.0521 3.22161 11.9793 3.14649 11.9063 3.07443C11.8854 3.05427 11.8639 3.03478 11.8425 3.01529C11.7893 2.96471 11.7357 2.91598 11.6823 2.86964C11.655 2.84654 11.6272 2.8241 11.5994 2.80166C11.5504 2.76212 11.5009 2.72324 11.4516 2.68675C11.4227 2.66563 11.3939 2.64452 11.3651 2.6246C11.3148 2.58944 11.2635 2.5568 11.2123 2.52535C11.1852 2.50889 11.1585 2.49177 11.132 2.47585C11.0681 2.43851 11.0041 2.40541 10.9402 2.37352C10.9268 2.36708 10.9126 2.35892 10.8992 2.35248C10.8228 2.31708 10.7469 2.28646 10.6708 2.25889C10.5726 2.2234 10.4747 2.19574 10.3775 2.17526C10.3477 2.16876 10.3184 2.16585 10.2888 2.16054C10.229 2.15059 10.1687 2.14129 10.109 2.13679C10.0718 2.13411 10.036 2.13369 9.99908 2.1334C9.95178 2.1324 9.90461 2.1326 9.85769 2.13519C9.81928 2.13808 9.78165 2.14271 9.74403 2.14733C9.70109 2.15313 9.6588 2.15946 9.61624 2.16885C9.55467 2.18148 9.49322 2.1953 9.43373 2.21618L10.3359 1.91106C10.3797 1.8961 10.425 1.8834 10.4698 1.87256C10.4863 1.86838 10.5032 1.86779 10.5191 1.86427C10.5611 1.85554 10.604 1.84855 10.6469 1.84275C10.6702 1.83966 10.6925 1.83364 10.7164 1.83109C10.7315 1.83009 10.7467 1.83148 10.7618 1.83048C10.8087 1.82789 10.8559 1.82769 10.9032 1.82869C10.928 1.82906 10.9525 1.82584 10.9774 1.82741C10.989 1.82799 11.0015 1.8315 11.013 1.83208C11.0728 1.83659 11.1319 1.846 11.1917 1.85596C11.2157 1.86005 11.2393 1.86055 11.2628 1.8653C11.2684 1.86652 11.2748 1.86946 11.2809 1.87002C11.3781 1.8905 11.4761 1.91935 11.5742 1.95365C11.5786 1.955 11.5835 1.95568 11.5873 1.95769C11.6591 1.98391 11.7307 2.01438 11.8021 2.0479C11.8155 2.05433 11.829 2.06197 11.8424 2.0684C11.896 2.09414 11.9497 2.12108 12.0031 2.15107C12.0134 2.15722 12.0239 2.16458 12.0342 2.17073C12.0613 2.186 12.0879 2.20312 12.1145 2.22024C12.1657 2.25168 12.2164 2.28498 12.2673 2.31948C12.2961 2.3394 12.325 2.36052 12.3538 2.38164C12.4031 2.41812 12.4526 2.457 12.5016 2.49654C12.5294 2.51898 12.5566 2.54089 12.5839 2.56399C12.6384 2.6102 12.6915 2.65959 12.7447 2.71018C12.7656 2.73033 12.7869 2.74863 12.8078 2.76878C12.8809 2.84084 12.9536 2.91596 13.0251 2.99546C13.0381 3.0104 13.0514 3.02653 13.0645 3.04147C13.1224 3.10789 13.1798 3.17497 13.2351 3.2459C13.2589 3.27603 13.2822 3.30682 13.3054 3.33762C13.3505 3.39694 13.395 3.45692 13.4386 3.51943C13.4636 3.55488 13.488 3.59099 13.5124 3.62711C13.5312 3.65536 13.5509 3.68108 13.5691 3.71C13.5936 3.74731 13.6167 3.7878 13.6409 3.82697C13.6605 3.85814 13.6795 3.88879 13.6987 3.92063C13.7548 4.01507 13.8104 4.11138 13.8634 4.211C13.8672 4.21846 13.8716 4.22525 13.8754 4.23271C13.8755 4.23391 13.8769 4.23498 13.877 4.23617C13.9384 4.35244 13.9972 4.47201 14.0538 4.59423C14.068 4.62539 14.0822 4.65654 14.0958 4.68716C14.1213 4.74494 14.1426 4.80257 14.1663 4.85994C14.194 4.92716 14.2223 4.99371 14.2482 5.06053C14.254 5.07504 14.2603 5.08888 14.2656 5.10405C14.2909 5.17153 14.3115 5.23952 14.3345 5.30725C14.3531 5.36274 14.3741 5.41797 14.3916 5.47359C14.3944 5.48357 14.3992 5.49395 14.4021 5.50393C14.428 5.58829 14.4504 5.67303 14.4733 5.7571C14.4845 5.80007 14.4982 5.84278 14.5094 5.88575C14.5111 5.89041 14.5123 5.89573 14.5133 5.89985C14.5425 6.01412 14.5662 6.12836 14.5886 6.24154C14.5925 6.26109 14.5977 6.28171 14.6016 6.30125C14.6017 6.30245 14.6017 6.30245 14.6018 6.30364C14.6087 6.33982 14.6126 6.37571 14.6195 6.41188C14.638 6.5176 14.6559 6.62278 14.6695 6.72781C14.6698 6.73021 14.6699 6.73141 14.6702 6.7338C14.6729 6.75348 14.6731 6.77221 14.6751 6.79135C14.6901 6.92044 14.7019 7.04806 14.7094 7.17432C14.7099 7.18456 14.7117 7.19586 14.7122 7.20609C14.7136 7.23135 14.712 7.25512 14.7128 7.27984C14.7188 7.42138 14.7192 7.56051 14.715 7.69709C14.7141 7.7226 14.7164 7.74958 14.7155 7.77509C14.7146 7.8006 14.7105 7.82464 14.7096 7.85014C14.7051 7.92201 14.6993 7.99162 14.6923 8.06254C14.6866 8.12245 14.6808 8.18115 14.6731 8.23945C14.6635 8.30824 14.6519 8.37543 14.6403 8.44262C14.63 8.49878 14.6209 8.55482 14.6085 8.60938C14.5938 8.67509 14.5769 8.73801 14.5595 8.80158C14.5451 8.85334 14.5319 8.90617 14.5155 8.95633C14.4956 9.01897 14.4729 9.07827 14.4502 9.13757C14.4322 9.18426 14.4156 9.23322 14.3956 9.27832C14.3699 9.33734 14.3412 9.39183 14.3127 9.44752C14.2911 9.48915 14.2715 9.53239 14.2485 9.57175C14.2162 9.62663 14.1805 9.67764 14.1455 9.72918C14.122 9.76376 14.0999 9.80061 14.0744 9.83358C14.0329 9.88762 13.9866 9.93553 13.9416 9.9845C13.9183 10.0094 13.897 10.0371 13.8735 10.0607C13.8018 10.1307 13.7256 10.1939 13.6451 10.2503C13.51 10.3446 13.3676 10.4167 13.2205 10.4663L12.3182 10.7714C12.4654 10.7218 12.6078 10.6497 12.7429 10.5554C12.821 10.4993 12.8965 10.4356 12.9684 10.3668Z" fill="url(#paint4_linear)"/>
<path d="M9.00741 2.43269C7.75036 3.31299 7.56635 5.84421 8.59741 8.08771C9.62767 10.3295 11.483 11.4364 12.7406 10.5554C13.9971 9.67579 14.1808 7.14218 13.1506 4.90041C12.1189 2.65636 10.2639 1.55305 9.00741 2.43269Z" fill="url(#paint5_linear)"/>
<path opacity="0.4" d="M9.09456 3.04682C10.1311 2.46569 11.6879 3.5645 12.5639 5.49779C13.4412 7.4311 13.311 9.47627 12.274 10.058C11.2375 10.6392 9.68061 9.54035 8.80464 7.60707C7.92809 5.67441 8.05821 3.62924 9.09456 3.04682ZM9.19367 7.38931C9.88794 8.92036 11.1221 9.79233 11.945 9.33088C12.766 8.87002 12.8687 7.2485 12.1744 5.71746C11.4786 4.18381 10.2451 3.3125 9.42412 3.77335C8.60182 4.23418 8.49852 5.85632 9.19367 7.38931Z" fill="#FEFBB4"/>
<path d="M11.3595 5.14655L9.28811 6.02367C9.22996 5.40437 9.40626 4.83934 9.81287 4.66716C10.0654 4.56022 10.3652 4.62315 10.6539 4.80142L10.9824 4.66229C10.5284 4.25355 10.0527 4.1232 9.65401 4.29201C9.0312 4.55574 8.8304 5.53064 9.12035 6.56693L9.13356 6.56133L10.0973 6.15324L10.3285 6.69926L9.36486 7.10731L9.53441 7.50773L10.4981 7.09967L11.2225 8.81054L11.4581 8.71079L10.7336 6.99993L10.9049 6.92739L11.6294 8.63825L11.8864 8.52943L11.1619 6.81857L11.7774 6.55791L11.8146 6.54216L12.0075 6.46051C11.9636 6.30739 11.9031 6.13835 11.8372 5.98305C11.7064 5.67487 11.5346 5.3729 11.3595 5.14655ZM10.7354 6.52697L10.5641 6.59951L10.3328 6.05349L10.5042 5.98095L10.7354 6.52697ZM10.9923 6.41816L10.7611 5.87214L11.372 5.61344C11.4586 5.74851 11.5473 5.92028 11.6173 6.08535C11.6238 6.10077 11.6262 6.10683 11.6414 6.14333L10.9923 6.41816Z" fill="#F4D27C"/>
<defs>
<filter id="filter0_f" x="0.0219673" y="7.88299" width="7.6219" height="8.56869" filterUnits="userSpaceOnUse" color-interpolation-filters="sRGB">
<feFlood flood-opacity="0" result="BackgroundImageFix"/>
<feBlend mode="normal" in="SourceGraphic" in2="BackgroundImageFix" result="shape"/>
<feGaussianBlur stdDeviation="0.43674" result="effect1_foregroundBlur"/>
</filter>
<linearGradient id="paint0_linear" x1="5.03045" y1="24.3907" x2="11.4671" y2="19.6699" gradientUnits="userSpaceOnUse">
<stop offset="0.074" stop-color="#FFF5B7"/>
<stop offset="0.228" stop-color="#E79127"/>
<stop offset="0.2507" stop-color="#D58326"/>
<stop offset="0.2976" stop-color="#B66A25"/>
<stop offset="0.3491" stop-color="#9D5524"/>
<stop offset="0.4061" stop-color="#894623"/>
<stop offset="0.4716" stop-color="#7B3A22"/>
<stop offset="0.5528" stop-color="#733422"/>
<stop offset="0.6982" stop-color="#713222"/>
<stop offset="0.7307" stop-color="#743422"/>
<stop offset="0.7531" stop-color="#7D3C23"/>
<stop offset="0.7725" stop-color="#8C4823"/>
<stop offset="0.7902" stop-color="#A25924"/>
<stop offset="0.8067" stop-color="#BE7025"/>
<stop offset="0.8221" stop-color="#E08B27"/>
<stop offset="0.8249" stop-color="#E79127"/>
<stop offset="0.8485" stop-color="#ECA443"/>
<stop offset="0.8993" stop-color="#F8D68A"/>
<stop offset="0.9294" stop-color="#FFF5B7"/>
</linearGradient>
<linearGradient id="paint1_linear" x1="5.35988" y1="18" x2="14.3698" y2="25.6147" gradientUnits="userSpaceOnUse">
<stop stop-color="#DD8E19"/>
<stop offset="1" stop-color="#FFEDA5"/>
</linearGradient>
<linearGradient id="paint2_linear" x1="6.55119" y1="14.1594" x2="1.95826" y2="10.7908" gradientUnits="userSpaceOnUse">
<stop offset="0.074" stop-color="#FFF5B7"/>
<stop offset="0.228" stop-color="#E79127"/>
<stop offset="0.2507" stop-color="#D58326"/>
<stop offset="0.2976" stop-color="#B66A25"/>
<stop offset="0.3491" stop-color="#9D5524"/>
<stop offset="0.4061" stop-color="#894623"/>
<stop offset="0.4716" stop-color="#7B3A22"/>
<stop offset="0.5528" stop-color="#733422"/>
<stop offset="0.6982" stop-color="#713222"/>
<stop offset="0.7307" stop-color="#743422"/>
<stop offset="0.7531" stop-color="#7D3C23"/>
<stop offset="0.7725" stop-color="#8C4823"/>
<stop offset="0.7902" stop-color="#A25924"/>
<stop offset="0.8067" stop-color="#BE7025"/>
<stop offset="0.8221" stop-color="#E08B27"/>
<stop offset="0.8249" stop-color="#E79127"/>
<stop offset="0.8485" stop-color="#ECA443"/>
<stop offset="0.8993" stop-color="#F8D68A"/>
<stop offset="0.9294" stop-color="#FFF5B7"/>
</linearGradient>
<linearGradient id="paint3_linear" x1="6.31604" y1="9.59954" x2="-0.113072" y2="15.0331" gradientUnits="userSpaceOnUse">
<stop stop-color="#DD8E19"/>
<stop offset="1" stop-color="#FFEDA5"/>
</linearGradient>
<linearGradient id="paint4_linear" x1="15.4627" y1="5.24387" x2="8.46901" y2="7.09691" gradientUnits="userSpaceOnUse">
<stop offset="0.074" stop-color="#FFF5B7"/>
<stop offset="0.228" stop-color="#E79127"/>
<stop offset="0.2507" stop-color="#D58326"/>
<stop offset="0.2976" stop-color="#B66A25"/>
<stop offset="0.3491" stop-color="#9D5524"/>
<stop offset="0.4061" stop-color="#894623"/>
<stop offset="0.4716" stop-color="#7B3A22"/>
<stop offset="0.5528" stop-color="#733422"/>
<stop offset="0.6982" stop-color="#713222"/>
<stop offset="0.7307" stop-color="#743422"/>
<stop offset="0.7531" stop-color="#7D3C23"/>
<stop offset="0.7725" stop-color="#8C4823"/>
<stop offset="0.7902" stop-color="#A25924"/>
<stop offset="0.8067" stop-color="#BE7025"/>
<stop offset="0.8221" stop-color="#E08B27"/>
<stop offset="0.8249" stop-color="#E79127"/>
<stop offset="0.8485" stop-color="#ECA443"/>
<stop offset="0.8993" stop-color="#F8D68A"/>
<stop offset="0.9294" stop-color="#FFF5B7"/>
</linearGradient>
<linearGradient id="paint5_linear" x1="10.7677" y1="1.83846" x2="11.0102" y2="12.5281" gradientUnits="userSpaceOnUse">
<stop stop-color="#DD8E19"/>
<stop offset="1" stop-color="#FFEDA5"/>
</linearGradient>
</defs>
</svg>
