<svg width="60" height="91" viewBox="0 0 60 91" fill="none" xmlns="http://www.w3.org/2000/svg">
<g style="mix-blend-mode:screen">
<path fill-rule="evenodd" clip-rule="evenodd" d="M27.9982 63.203C30.933 60.1304 37.55 63.3844 37.4857 66.3806C43.8662 67.714 45.1471 77.1275 36.7507 77.9611C39.8347 83.8071 27.1543 87.6991 24.2641 83.2037C21.9249 87.2226 14.0498 85.3563 14.324 80.7671C9.80926 81.8782 6.05294 76.3359 7.81441 74.5864C3.51534 74.5996 0.443408 64.9632 9.92451 64.9763C11.129 61.6318 15.8772 60.0492 19.3429 64.2244C20.7586 62.0382 26.6322 60.7878 27.9982 63.203Z" fill="#DADBF0"/>
<path fill-rule="evenodd" clip-rule="evenodd" d="M42.036 69.8715C43.6227 73.1084 42.3019 77.4098 36.7507 77.9609C39.8347 83.8069 27.1543 87.699 24.2641 83.2036C21.9249 87.2225 14.0498 85.3562 14.324 80.767C9.80926 81.8781 6.05293 76.3358 7.81441 74.5863C4.25228 74.5973 1.53286 67.983 6.09855 65.723C1.63991 68.797 5.95589 74.0209 9.1196 73.2636C7.47396 74.8979 10.1918 81.7919 15.4814 79.5605C15.2252 83.8474 22.5209 86.1257 24.9076 81.5079C27.6074 85.7074 38.4885 81.9642 35.6073 76.5034C42.1242 76.3391 42.4383 72.7064 42.036 69.8715Z" fill="#C8D0E8"/>
<path fill-rule="evenodd" clip-rule="evenodd" d="M27.2338 60.5852C29.599 57.7545 35.6402 59.5344 35.7505 62.1348C39.6718 62.825 41.4896 67.8379 34.2829 69.0388C36.3105 72.3581 32.328 73.71 29.4292 73.027C28.8927 74.3946 26.4626 75.2021 25.0572 74.2447C23.4977 76.4251 16.302 76.5831 17.0496 72.7045C13.3787 73.45 12.2259 70.684 13.6507 69.0672C10.1741 69.4146 6.4455 63.2763 14.8371 61.9257C15.6923 58.9584 19.6635 58.1984 21.9866 60.373C23.0876 58.3977 25.9202 58.5694 27.2338 60.5852Z" fill="#DADBF0"/>
<path fill-rule="evenodd" clip-rule="evenodd" d="M38.495 63.7015C40.172 65.6491 39.0384 68.5201 34.2831 69.0389C36.3107 72.3582 32.3282 73.7101 29.4294 73.0271C28.8929 74.3947 26.4628 75.2022 25.0574 74.2448C23.4979 76.4252 16.3023 76.5832 17.0498 72.7046C13.3789 73.4501 12.2261 70.6841 13.6509 69.0672C10.6288 69.3696 7.41817 64.7714 12.1417 62.6765C8.70035 64.665 10.4599 67.6579 14.7084 68.5903C13.0427 70.7655 17.0196 72.8017 18.1471 71.0735C17.1816 74.9932 23.498 74.8634 24.4661 72.3105C26.5064 73.956 29.516 73.377 29.1957 71.181C32.8752 72.2599 34.7037 70.5948 33.4168 68.0582C36.9462 67.6263 39.7924 66.8336 38.495 63.7015Z" fill="#C8D0E8"/>
<path fill-rule="evenodd" clip-rule="evenodd" d="M36.4994 35.7548C35.7155 39.6911 25.5825 61.6347 29.4279 63.7525C31.4904 64.888 31.3771 67.2563 26.5214 68.0768C25.3798 69.5786 19.6047 71.5357 19.5076 67.7022C15.3352 67.057 17.0677 64.853 19.1801 63.7228C19.7884 63.3973 20.5418 63.1643 21.162 62.5718C24.4513 59.4292 33.7984 40.091 36.4994 35.7548Z" fill="#DADBF0"/>
<path fill-rule="evenodd" clip-rule="evenodd" d="M30.3988 48.4517L30.3938 48.4757C28.8543 51.6472 24.8483 58.5707 21.5082 62.7599C20.9875 63.413 20.4756 63.9103 19.7737 64.2601C16.9218 65.6817 18.8393 67.2266 20.6797 66.6517C20.0544 69.0068 24.6641 69.7542 26.7652 67.6767C30.1302 68.0314 30.6268 66.0626 30.3109 64.4194C32.3161 66.204 31.4012 69 27.2252 68.4013C26.0836 69.9031 19.605 71.5357 19.5079 67.7022C15.3355 67.057 16.6663 63.4011 18.8285 63.5608C19.6288 63.6199 20.6983 62.8803 21.4136 62.1577C24.6132 58.9279 27.7753 52.6635 30.3988 48.4517Z" fill="#C8D0E8"/>
</g>
<path fill-rule="evenodd" clip-rule="evenodd" d="M29.6758 52.6106C29.3925 51.5566 28.766 47.6725 28.8415 46.653L28.2057 47.6979C27.76 43.469 28.5359 42.2505 30.9623 39.2459L36.9496 41.15C36.7196 45.0833 36.716 46.5241 33.6398 49.6147L33.8002 48.402C33.2194 49.2433 30.7032 51.7857 29.6758 52.6106Z" fill="url(#paint0_linear)"/>
<path fill-rule="evenodd" clip-rule="evenodd" d="M30.7886 49.3292C30.5887 48.5851 30.1465 45.8431 30.1995 45.1234L29.7509 45.8612C29.4362 42.8756 29.9837 42.0157 31.6966 39.8944L35.9234 41.2386C35.7611 44.0151 35.7589 45.0323 33.5871 47.2143L33.7001 46.3582C33.29 46.9518 31.5137 48.7469 30.7886 49.3292Z" fill="#FF5959"/>
<path fill-rule="evenodd" clip-rule="evenodd" d="M31.5957 46.9591C31.4492 46.4143 31.1256 44.4077 31.1647 43.8809L30.8359 44.421C30.6056 42.2359 31.0064 41.6064 32.26 40.054L35.3536 41.0377C35.2348 43.0698 35.2331 43.8145 33.6436 45.4114L33.7266 44.7846C33.4265 45.2191 32.1262 46.5331 31.5957 46.9591Z" fill="#FFDDD2"/>
<path fill-rule="evenodd" clip-rule="evenodd" d="M37.9113 43.3384C38.8529 42.0225 39.6271 40.8161 40.5635 39.5167L30.5438 36.2803C30.3973 35.9096 29.7279 36.0514 29.7461 35.7118C29.6218 37.2761 29.4662 38.7583 29.4262 40.3537C29.3593 40.9073 29.5769 41.5433 30.1098 42.1808C30.8571 43.0796 31.9375 43.6554 32.9947 43.9847C34.5897 44.4817 36.7271 44.8301 37.9113 43.3384Z" fill="url(#paint1_linear)"/>
<path fill-rule="evenodd" clip-rule="evenodd" d="M32.7467 36.9919L30.5437 36.2803C30.3972 35.9096 29.7278 36.0514 29.746 35.7118C29.6217 37.2761 29.4661 38.7583 29.426 40.3537C29.3592 40.9073 29.5767 41.5433 30.1097 42.1808C30.833 43.0507 31.9214 43.6504 32.9946 43.9847C34.5395 44.466 36.5934 44.8079 37.7969 43.4734C36.3019 44.6102 33.1993 43.6064 32.2626 42.867C32.3863 40.871 32.5412 38.9125 32.7467 36.9919Z" fill="url(#paint2_linear)"/>
<path fill-rule="evenodd" clip-rule="evenodd" d="M39.4891 36.6101C37.8862 34.6958 34.5686 33.4998 32.0787 33.9414C29.589 34.383 28.8699 36.293 30.4732 38.2076C32.0756 40.1238 35.3939 41.3177 37.8833 40.8761C40.3732 40.4345 41.0921 38.5244 39.4891 36.6101Z" fill="#0A3C5F"/>
<path fill-rule="evenodd" clip-rule="evenodd" d="M48.7294 24.7641C49.2117 22.6889 49.4353 20.5249 49.384 18.4195C49.3696 17.8356 49.3325 17.252 49.2699 16.67C47.9821 7.39432 45.1951 4.40225 37.125 12.2793C36.7995 12.5971 36.4925 12.9352 36.1884 13.2768C34.837 14.8027 33.5834 16.6545 32.5859 18.6176C30.3012 23.116 28.9593 29.7065 29.6428 34.7031C29.7179 35.29 29.8168 35.759 29.971 36.1908C30.1138 36.5902 30.2999 36.9565 30.6636 37.3913C32.4066 39.4507 35.8877 40.6506 38.4601 40.1983C39.2396 40.0583 39.799 39.8197 40.3592 39.3589C40.7786 39.014 41.2543 38.532 41.5757 38.2067C44.868 34.8775 47.6357 29.4664 48.7294 24.7641Z" fill="#DADBF0"/>
<path fill-rule="evenodd" clip-rule="evenodd" d="M37.1251 12.2794C35.9803 13.3969 34.8075 14.9203 33.9734 16.2086C33.2819 17.2766 32.6582 18.4011 32.134 19.5622C30.1282 24.0039 29.0055 30.0461 29.6429 34.7031C29.718 35.29 29.8169 35.7591 29.9711 36.1908C30.6686 38.1411 33.1153 39.4607 34.9948 39.9692C36.1804 40.2901 37.3978 40.3851 38.46 40.1985C39.234 40.0592 39.5465 39.9664 40.3473 39.3685C38.0078 40.5775 34.4649 39.3897 32.5436 37.8668C32.5212 30.2941 33.8202 23.143 37.7494 17.7559C38.3762 18.188 43.8642 20.9999 47.0965 18.9052L37.2671 12.3738C37.4342 12.1931 37.6044 12.0157 37.7801 11.8444C39.0546 10.6003 40.1973 9.62805 41.2229 8.90818C40.0347 9.65184 38.678 10.7635 37.1251 12.2794Z" fill="#C2BEDB"/>
<path fill-rule="evenodd" clip-rule="evenodd" d="M49.1821 15.8466C48.7944 12.8986 47.9513 9.27859 46.2704 6.80782C46.2372 6.75961 46.1983 6.70288 46.1594 6.64615C46.1308 6.60438 46.0529 6.48497 45.948 6.44928C45.8491 6.41533 45.7232 6.46329 45.6658 6.48049C42.6475 7.38429 39.4866 9.77454 37.3452 11.972C37.209 12.1118 37.0816 12.2575 36.9923 12.3962C36.4459 13.2144 36.5535 14.1882 36.9853 15.0469C37.401 15.8738 38.1108 16.5897 38.8102 17.1185C38.9064 17.1952 39.0059 17.2706 39.108 17.3441C41.0226 18.7207 43.9276 19.4843 46.0951 19.1818C46.8915 19.0707 47.6804 18.8161 48.2816 18.3535C48.5774 18.1258 48.8276 17.8443 49.0026 17.4936C49.1156 17.2677 49.1971 17.0197 49.2238 16.7848C49.2595 16.4741 49.2221 16.1504 49.1821 15.8466Z" fill="url(#paint3_linear)"/>
<path fill-rule="evenodd" clip-rule="evenodd" d="M45.9826 6.46433C45.9715 6.45833 45.9599 6.45317 45.9481 6.44928C45.8493 6.41533 45.7234 6.46329 45.6659 6.48049C42.6477 7.38429 39.4867 9.77454 37.3453 11.972C37.2091 12.1118 37.0817 12.2575 36.9924 12.3962C36.446 13.2144 36.5536 14.1882 36.9855 15.0469C36.9914 15.0588 36.9971 15.0704 37.0032 15.0822L37.008 15.0914L37.0234 15.1205L37.0267 15.1269C37.0394 15.1511 37.0524 15.175 37.0657 15.1989L37.0688 15.2045C37.0751 15.2157 37.0813 15.2266 37.0875 15.2379L37.0883 15.2393C37.0954 15.2516 37.1024 15.2638 37.1096 15.276L37.1099 15.2767C37.1237 15.3005 37.138 15.3244 37.1523 15.3482L37.1565 15.3549C37.1781 15.3905 37.2004 15.4259 37.2229 15.4609L37.2261 15.4657C37.2332 15.4769 37.2404 15.4878 37.2478 15.4989L37.2483 15.5001C37.2725 15.5365 37.2971 15.5726 37.322 15.6085L37.3225 15.6093C37.3476 15.6452 37.3728 15.6805 37.3988 15.7158L37.3998 15.7171C37.417 15.7404 37.4342 15.7636 37.4517 15.7867L37.4531 15.7884L37.4777 15.8204L37.4803 15.8239C37.5336 15.8927 37.5881 15.9601 37.6444 16.0266L37.6476 16.0307L37.6714 16.0589L37.6763 16.0643C37.6942 16.085 37.7119 16.1054 37.7301 16.1259L37.7369 16.1336L37.7577 16.1569L37.7644 16.1644C37.783 16.185 37.8016 16.2052 37.8202 16.2255L37.8242 16.23L37.8485 16.2562L37.854 16.2621L37.8747 16.2843L37.8837 16.2936L37.9096 16.3208L37.9177 16.3294L37.9371 16.3497L37.9475 16.3602L37.9716 16.3847L37.9737 16.3869L38.0034 16.4168L38.0078 16.4214L38.0326 16.4461L38.0383 16.4517L38.0619 16.4749L38.0691 16.4818L38.0947 16.5064L38.1104 16.5217L38.1227 16.5336L38.1374 16.5476L38.1553 16.5647L38.1636 16.5724L38.1897 16.597L38.1994 16.6059L38.22 16.625L38.2329 16.6368L38.2475 16.6506L38.2634 16.6651L38.2785 16.6788L38.2898 16.6892L38.3144 16.7112C38.4777 16.8569 38.6444 16.9929 38.8106 17.1186C38.9068 17.1953 39.0063 17.2706 39.1085 17.3442C41.023 18.7209 43.928 19.4844 46.0955 19.1819C46.8747 19.0733 47.7351 18.8102 48.3614 18.2907C47.3173 18.8138 43.1613 20.1781 38.7586 15.8456C40.6023 12.5168 42.9279 9.47078 45.9826 6.46433Z" fill="#1E2136"/>
<path fill-rule="evenodd" clip-rule="evenodd" d="M40.7822 21.2302C43.2034 22.0743 44.4987 24.6776 43.6735 27.0451C42.848 29.4126 40.2158 30.6447 37.7943 29.8004C35.3715 28.9556 34.0751 26.354 34.9006 23.9865C35.7261 21.6191 38.359 20.3853 40.7822 21.2302Z" fill="#B5B0D2"/>
<path fill-rule="evenodd" clip-rule="evenodd" d="M38.2992 28.3518C36.7299 27.8045 35.9006 26.0925 36.447 24.5256C36.9935 22.9587 38.7078 22.1312 40.277 22.6783C41.8449 23.2249 42.6736 24.939 42.1272 26.5058C41.5811 28.0728 39.867 28.8982 38.2992 28.3518ZM40.7217 21.4038C38.4484 20.6112 35.9627 21.8086 35.1705 24.0804C34.3791 26.3506 35.5811 28.8355 37.8544 29.6281C40.1262 30.4201 42.6127 29.2209 43.4038 26.9508C44.1959 24.6789 42.9933 22.1958 40.7217 21.4038Z" fill="#EAE7F4"/>
<path fill-rule="evenodd" clip-rule="evenodd" d="M38.2991 28.3519C39.862 28.8968 41.5829 28.0672 42.1271 26.5059C42.6721 24.9429 41.8399 23.2234 40.2769 22.6785C38.7128 22.1331 36.9919 22.9625 36.4469 24.5257C35.9025 26.0868 36.7349 27.8065 38.2991 28.3519Z" fill="url(#paint4_linear)"/>
<path fill-rule="evenodd" clip-rule="evenodd" d="M40.2769 22.6785C41.8448 23.225 42.6735 24.9392 42.1271 26.5059C42.0652 26.6838 41.9882 26.8518 41.8976 27.011C42.1105 25.6065 41.302 24.206 39.9133 23.7217C38.5233 23.2371 37.0187 23.8314 36.3143 25.0646C36.3405 24.883 36.3849 24.7034 36.4468 24.5257C36.9934 22.9588 38.7076 22.1312 40.2769 22.6785Z" fill="#0A3C5F"/>
<path fill-rule="evenodd" clip-rule="evenodd" d="M40.3463 22.4797C40.5125 22.5377 40.694 22.4507 40.752 22.2847C40.8106 22.1164 40.7223 21.9357 40.556 21.8778C40.3885 21.8193 40.2068 21.906 40.1483 22.0743C40.0902 22.2406 40.1785 22.4213 40.3463 22.4797Z" fill="#1466A0"/>
<path fill-rule="evenodd" clip-rule="evenodd" d="M38.0195 29.1543C38.1855 29.2123 38.3678 29.1237 38.4259 28.9575C38.4837 28.7914 38.3961 28.6084 38.2299 28.5505C38.0623 28.4921 37.88 28.5807 37.8222 28.7471C37.7639 28.9131 37.8516 29.0958 38.0195 29.1543Z" fill="#1466A0"/>
<path fill-rule="evenodd" clip-rule="evenodd" d="M42.93 26.7858C42.8719 26.952 42.6898 27.0408 42.5222 26.9823C42.3557 26.9244 42.2666 26.7412 42.3244 26.5747C42.3822 26.4086 42.5668 26.3186 42.7331 26.3766C42.901 26.4349 42.9878 26.6196 42.93 26.7858Z" fill="#1466A0"/>
<path fill-rule="evenodd" clip-rule="evenodd" d="M36.2491 24.4566C36.1912 24.6229 36.0074 24.7111 35.8413 24.6531C35.6736 24.5946 35.5861 24.412 35.6438 24.2457C35.7016 24.0794 35.8845 23.9888 36.0524 24.0475C36.2187 24.1054 36.3073 24.2906 36.2491 24.4566Z" fill="#1466A0"/>
<path fill-rule="evenodd" clip-rule="evenodd" d="M42.7599 23.8397C42.8369 23.9994 42.7703 24.1904 42.6112 24.2656C42.4532 24.3436 42.2608 24.2764 42.1836 24.1167C42.1073 23.9591 42.1741 23.7682 42.3322 23.6904C42.4914 23.6154 42.6836 23.6825 42.7599 23.8397Z" fill="#1466A0"/>
<path fill-rule="evenodd" clip-rule="evenodd" d="M36.3914 26.913C36.4669 27.0724 36.4009 27.2615 36.2427 27.3391C36.0829 27.4163 35.8905 27.3493 35.8151 27.1901C35.738 27.0304 35.8038 26.8413 35.9636 26.7641C36.1215 26.686 36.3142 26.7533 36.3914 26.913Z" fill="#1466A0"/>
<path fill-rule="evenodd" clip-rule="evenodd" d="M40.9657 28.9857C40.8076 29.0636 40.6153 28.9965 40.5378 28.8367C40.4623 28.6775 40.5282 28.4884 40.6864 28.4106C40.8464 28.3335 41.0387 28.4006 41.1141 28.5596C41.1912 28.7193 41.1255 28.9085 40.9657 28.9857Z" fill="#1466A0"/>
<path fill-rule="evenodd" clip-rule="evenodd" d="M37.8882 22.6191C37.7284 22.6964 37.5359 22.6292 37.4605 22.4701C37.3827 22.3123 37.4496 22.1213 37.609 22.044C37.7665 21.9682 37.9592 22.0354 38.0369 22.1932C38.1125 22.3524 38.0458 22.5436 37.8882 22.6191Z" fill="#1466A0"/>
<path fill-rule="evenodd" clip-rule="evenodd" d="M40.6617 38.7624L40.7976 38.6345L40.6501 38.7729L40.6617 38.7624Z" fill="#828388"/>
<path fill-rule="evenodd" clip-rule="evenodd" d="M44.0987 34.0287L42.372 34.3587C42.4395 41.8646 40.8222 45.6863 38.8816 51.5992L40.6094 51.266L40.6075 51.2649C41.8329 48.5773 43.4826 45.813 44.306 43.0203C44.6733 41.7755 44.8863 40.5134 44.8999 39.1511C44.9175 37.4067 44.6249 35.7541 44.0987 34.0287Z" fill="url(#paint5_linear)"/>
<path fill-rule="evenodd" clip-rule="evenodd" d="M42.3719 34.3587L38.5711 40.5338C39.0777 43.6779 39.2492 47.2871 38.8815 51.5991C41.5115 45.8335 44.6944 41.9671 42.3719 34.3587Z" fill="#1E2136"/>
<path fill-rule="evenodd" clip-rule="evenodd" d="M30.2257 29.1923L31.3732 30.5243C26.6537 36.3613 25.5445 40.36 23.389 46.198L22.2425 44.8627L22.245 44.8632C22.9558 41.9958 23.3822 38.8055 24.4735 36.106C24.96 34.9029 25.5776 33.782 26.4138 32.7064C27.4843 31.3288 28.7408 30.2163 30.2257 29.1923Z" fill="url(#paint6_linear)"/>
<path fill-rule="evenodd" clip-rule="evenodd" d="M31.3732 30.5242L30.5109 37.7237C28.1594 39.8715 25.7813 42.5919 23.389 46.1978C24.913 40.0467 24.8237 35.0397 31.3732 30.5242Z" fill="#1E2136"/>
<g style="mix-blend-mode:soft-light">
<path d="M41.2625 25.3018L38.1366 24.3173C38.5502 23.9156 39.1983 23.7136 39.812 23.9068C40.1931 24.0269 40.4955 24.2865 40.699 24.5924L41.1948 24.7485C40.9738 24.1954 40.5155 23.7725 39.9139 23.583C38.9741 23.287 37.9843 23.6891 37.5098 24.5309L37.5297 24.5372L38.9294 24.978L38.784 25.44L37.3321 24.9827L37.2213 25.3347L38.6731 25.7919L38.1951 27.3097L38.547 27.4206L39.0251 25.9028L39.311 25.9928L38.833 27.5106L39.207 27.6284L39.685 26.1106L40.6585 26.4172L40.7146 26.4349L41.0056 26.5265C41.074 26.403 41.1322 26.2676 41.1755 26.1296C41.2613 25.8558 41.2877 25.5757 41.2625 25.3018ZM39.4219 25.6409L39.1359 25.5508L39.2814 25.0889L39.5674 25.179L39.4219 25.6409ZM39.7958 25.7587L39.9413 25.2967L40.9078 25.6011C40.9107 25.7229 40.879 25.8948 40.833 26.0415C40.8287 26.0552 40.8271 26.0593 40.8199 26.0812L39.7958 25.7587Z" fill="white"/>
<path d="M41.2625 25.3018L38.1366 24.3173C38.5502 23.9156 39.1983 23.7136 39.812 23.9068C40.1931 24.0269 40.4955 24.2865 40.699 24.5924L41.1948 24.7485C40.9738 24.1954 40.5155 23.7725 39.9139 23.583C38.9741 23.287 37.9843 23.6891 37.5098 24.5309L37.5297 24.5372L38.9294 24.978L38.784 25.44L37.3321 24.9827L37.2213 25.3347L38.6731 25.7919L38.1951 27.3097L38.547 27.4206L39.0251 25.9028L39.311 25.9928L38.833 27.5106L39.207 27.6284L39.685 26.1106L40.6585 26.4172L40.7146 26.4349L41.0056 26.5265C41.074 26.403 41.1322 26.2676 41.1755 26.1296C41.2613 25.8558 41.2877 25.5757 41.2625 25.3018ZM39.4219 25.6409L39.1359 25.5508L39.2814 25.0889L39.5674 25.179L39.4219 25.6409ZM39.7958 25.7587L39.9413 25.2967L40.9078 25.6011C40.9107 25.7229 40.879 25.8948 40.833 26.0415C40.8287 26.0552 40.8271 26.0593 40.8199 26.0812L39.7958 25.7587Z" fill="white"/>
<path d="M40.1188 22.8328C38.6435 22.3682 37.0651 23.1904 36.6004 24.6658C36.1358 26.1412 36.958 27.7196 38.4334 28.1843C39.9088 28.649 41.4872 27.8266 41.9519 26.3512C42.4165 24.8759 41.5942 23.2975 40.1188 22.8328ZM38.5511 27.8105C37.2818 27.4108 36.5744 26.0529 36.9742 24.7835C37.374 23.5143 38.7318 22.8068 40.0011 23.2066C41.2704 23.6064 41.9778 24.9642 41.5781 26.2335C41.1783 27.5029 39.8204 28.2103 38.5511 27.8105Z" fill="white"/>
</g>
<g style="mix-blend-mode:soft-light">
<path d="M41.2539 25.2963L38.128 24.3119C38.5416 23.9102 39.1898 23.7081 39.8034 23.9014C40.1845 24.0214 40.4869 24.2811 40.6904 24.5869L41.1862 24.7431C40.9653 24.1899 40.5069 23.767 39.9054 23.5776C38.9655 23.2816 37.9758 23.6836 37.5012 24.5255L37.5212 24.5318L38.9209 24.9726L38.7754 25.4346L37.3236 24.9773L37.2128 25.3293L38.6646 25.7865L38.1865 27.3043L38.5385 27.4151L39.0165 25.8974L39.3025 25.9874L38.8245 27.5052L39.1984 27.623L39.6764 26.1052L40.6499 26.4118L40.7061 26.4295L40.9971 26.5211C41.0654 26.3976 41.1236 26.2622 41.1669 26.1242C41.2527 25.8504 41.2791 25.5702 41.2539 25.2963ZM39.4133 25.6355L39.1274 25.5454L39.2728 25.0835L39.5588 25.1735L39.4133 25.6355ZM39.7873 25.7532L39.9328 25.2913L40.8993 25.5957C40.9022 25.7175 40.8704 25.8894 40.8245 26.036C40.8202 26.0497 40.8186 26.0539 40.8113 26.0757L39.7873 25.7532Z" fill="white"/>
<path d="M41.2539 25.2963L38.128 24.3119C38.5416 23.9102 39.1898 23.7081 39.8034 23.9014C40.1845 24.0214 40.4869 24.2811 40.6904 24.5869L41.1862 24.7431C40.9653 24.1899 40.5069 23.767 39.9054 23.5776C38.9655 23.2816 37.9758 23.6836 37.5012 24.5255L37.5212 24.5318L38.9209 24.9726L38.7754 25.4346L37.3236 24.9773L37.2128 25.3293L38.6646 25.7865L38.1865 27.3043L38.5385 27.4151L39.0165 25.8974L39.3025 25.9874L38.8245 27.5052L39.1984 27.623L39.6764 26.1052L40.6499 26.4118L40.7061 26.4295L40.9971 26.5211C41.0654 26.3976 41.1236 26.2622 41.1669 26.1242C41.2527 25.8504 41.2791 25.5702 41.2539 25.2963ZM39.4133 25.6355L39.1274 25.5454L39.2728 25.0835L39.5588 25.1735L39.4133 25.6355ZM39.7873 25.7532L39.9328 25.2913L40.8993 25.5957C40.9022 25.7175 40.8704 25.8894 40.8245 26.036C40.8202 26.0497 40.8186 26.0539 40.8113 26.0757L39.7873 25.7532Z" fill="white"/>
<path d="M40.1103 22.8274C38.6349 22.3627 37.0565 23.185 36.5919 24.6604C36.1272 26.1358 36.9495 27.7142 38.4249 28.1789C39.9003 28.6435 41.4787 27.8212 41.9433 26.3458C42.408 24.8704 41.5857 23.2921 40.1103 22.8274ZM38.5426 27.8051C37.2733 27.4053 36.5659 26.0474 36.9657 24.7781C37.3654 23.5088 38.7233 22.8014 39.9926 23.2012C41.2619 23.6009 41.9693 24.9588 41.5696 26.2281C41.1698 27.4974 39.8119 28.2048 38.5426 27.8051Z" fill="white"/>
</g>
<g style="mix-blend-mode:soft-light">
<path d="M41.2632 25.2987L38.1373 24.3142C38.5509 23.9126 39.1991 23.7105 39.8127 23.9038C40.1938 24.0238 40.4962 24.2834 40.6997 24.5893L41.1955 24.7455C40.9746 24.1923 40.5162 23.7694 39.9147 23.58C38.9748 23.2839 37.9851 23.686 37.5105 24.5279L37.5305 24.5342L38.9302 24.975L38.7847 25.4369L37.3329 24.9797L37.222 25.3316L38.6738 25.7889L38.1958 27.3067L38.5478 27.4175L39.0258 25.8997L39.3118 25.9898L38.8337 27.5076L39.2077 27.6254L39.6857 26.1076L40.6592 26.4142L40.7153 26.4318L41.0063 26.5235C41.0747 26.4 41.1329 26.2645 41.1762 26.1266C41.262 25.8528 41.2884 25.5726 41.2632 25.2987ZM39.4226 25.6378L39.1366 25.5478L39.2821 25.0858L39.5681 25.1759L39.4226 25.6378ZM39.7966 25.7556L39.942 25.2937L40.9085 25.5981C40.9115 25.7199 40.8797 25.8917 40.8337 26.0384C40.8295 26.0521 40.8278 26.0562 40.8206 26.0781L39.7966 25.7556Z" fill="white"/>
<path d="M41.2632 25.2987L38.1373 24.3142C38.5509 23.9126 39.1991 23.7105 39.8127 23.9038C40.1938 24.0238 40.4962 24.2834 40.6997 24.5893L41.1955 24.7455C40.9746 24.1923 40.5162 23.7694 39.9147 23.58C38.9748 23.2839 37.9851 23.686 37.5105 24.5279L37.5305 24.5342L38.9302 24.975L38.7847 25.4369L37.3329 24.9797L37.222 25.3316L38.6738 25.7889L38.1958 27.3067L38.5478 27.4175L39.0258 25.8997L39.3118 25.9898L38.8337 27.5076L39.2077 27.6254L39.6857 26.1076L40.6592 26.4142L40.7153 26.4318L41.0063 26.5235C41.0747 26.4 41.1329 26.2645 41.1762 26.1266C41.262 25.8528 41.2884 25.5726 41.2632 25.2987ZM39.4226 25.6378L39.1366 25.5478L39.2821 25.0858L39.5681 25.1759L39.4226 25.6378ZM39.7966 25.7556L39.942 25.2937L40.9085 25.5981C40.9115 25.7199 40.8797 25.8917 40.8337 26.0384C40.8295 26.0521 40.8278 26.0562 40.8206 26.0781L39.7966 25.7556Z" fill="white"/>
<path d="M40.1197 22.8298C38.6443 22.3651 37.0659 23.1874 36.6013 24.6628C36.1366 26.1382 36.9589 27.7166 38.4343 28.1812C39.9097 28.6459 41.4881 27.8236 41.9527 26.3482C42.4174 24.8728 41.5951 23.2945 40.1197 22.8298ZM38.552 27.8075C37.2827 27.4077 36.5753 26.0498 36.9751 24.7805C37.3748 23.5112 38.7327 22.8038 40.002 23.2035C41.2713 23.6033 41.9787 24.9612 41.579 26.2305C41.1792 27.4998 39.8213 28.2072 38.552 27.8075Z" fill="white"/>
</g>
<circle cx="25.9617" cy="54.7325" r="1.55243" fill="#4048FF"/>
<circle cx="13.6325" cy="53.786" r="2.43035" fill="#FB6C77"/>
<circle cx="19.9257" cy="57.0434" r="2.51054" fill="#4048FF"/>
<path d="M19.9103 58.0975L19.7325 58.2215C19.6564 58.2745 19.5506 58.2557 19.4976 58.1796L19.0171 57.4903C18.9641 57.4142 18.9829 57.3085 19.059 57.2554L19.2368 57.1315C19.3129 57.0784 19.4186 57.0973 19.4717 57.1734L19.9521 57.8627C20.0052 57.9387 19.9865 58.0445 19.9103 58.0975Z" fill="white"/>
<path d="M20.581 56.4005C20.6187 56.3407 20.6195 56.2614 20.5766 56.2001C20.5195 56.1182 20.4058 56.0979 20.3242 56.1549L19.9012 56.4498C19.8888 56.4148 19.8733 56.2375 19.8639 56.1761C19.856 56.1233 19.8298 56.0734 19.7991 56.0298C19.7607 55.9748 19.7105 55.9278 19.6528 55.8931C19.5739 55.8455 19.4728 55.8088 19.3976 55.8845C19.3308 55.9519 19.339 56.0701 19.417 56.1251C19.417 56.1251 19.4732 56.1672 19.4837 56.1894C19.4974 56.2175 19.491 56.2837 19.4866 56.3683C19.4773 56.5373 19.4676 56.7614 19.4751 56.836C19.4839 56.9219 19.5017 56.9804 19.5341 57.0381C19.5378 57.0505 19.5435 57.0625 19.5514 57.0736L19.9894 57.7022C20.0299 57.76 20.1102 57.7745 20.1681 57.7341L20.9123 57.218C20.9883 57.1651 21.0069 57.0599 20.9542 56.9839C20.9325 56.953 20.9025 56.9319 20.8692 56.9208C20.9066 56.8649 20.9081 56.7894 20.8676 56.7314C20.8434 56.6967 20.8081 56.6741 20.7698 56.6646C20.8007 56.6063 20.799 56.5331 20.759 56.4755C20.7177 56.4167 20.6478 56.3899 20.581 56.4005Z" fill="white"/>
<circle cx="25.7523" cy="65.3631" r="2.04457" fill="#4048FF"/>
<path d="M25.7398 66.2215L25.595 66.3224C25.533 66.3656 25.4469 66.3503 25.4037 66.2883L25.0124 65.7269C24.9692 65.665 24.9845 65.5788 25.0465 65.5356L25.1913 65.4347C25.2532 65.3915 25.3394 65.4068 25.3826 65.4688L25.7739 66.0302C25.8171 66.0921 25.8019 66.1782 25.7398 66.2215Z" fill="white"/>
<path d="M26.286 64.8393C26.3166 64.7906 26.3173 64.726 26.2823 64.6761C26.2359 64.6094 26.1433 64.5929 26.0768 64.6394L25.7323 64.8795C25.7223 64.851 25.7096 64.7066 25.702 64.6566C25.6955 64.6136 25.6742 64.5729 25.6491 64.5374C25.6179 64.4926 25.577 64.4544 25.53 64.4261C25.4658 64.3873 25.3834 64.3574 25.3222 64.4191C25.2677 64.474 25.2745 64.5703 25.338 64.615C25.338 64.615 25.3837 64.6493 25.3923 64.6674C25.4035 64.6903 25.3982 64.7442 25.3946 64.8131C25.3871 64.9508 25.3792 65.1333 25.3853 65.194C25.3925 65.264 25.407 65.3116 25.4334 65.3586C25.4364 65.3687 25.441 65.3784 25.4474 65.3875L25.8041 65.8994C25.8372 65.9465 25.9025 65.9583 25.9497 65.9254L26.5558 65.5051C26.6176 65.462 26.6328 65.3763 26.5899 65.3144C26.5722 65.2893 26.5478 65.2721 26.5206 65.2631C26.5511 65.2175 26.5523 65.1561 26.5194 65.1088C26.4996 65.0805 26.4709 65.0622 26.4397 65.0544C26.4648 65.007 26.4635 64.9474 26.4309 64.9004C26.3973 64.8525 26.3403 64.8307 26.286 64.8393Z" fill="white"/>
<circle cx="39.454" cy="63.3187" r="3.04313" fill="#4048FF"/>
<path d="M39.4354 64.5962L39.2198 64.7464C39.1276 64.8107 38.9994 64.7879 38.9351 64.6957L38.3527 63.8602C38.2884 63.7679 38.3112 63.6397 38.4035 63.5754L38.619 63.4252C38.7112 63.3609 38.8394 63.3837 38.9037 63.4759L39.4861 64.3115C39.5504 64.4037 39.5278 64.5318 39.4354 64.5962Z" fill="white"/>
<path d="M40.2484 62.5392C40.2941 62.4667 40.2951 62.3706 40.243 62.2963C40.1739 62.1971 40.0361 62.1725 39.9372 62.2416L39.4244 62.599C39.4094 62.5566 39.3906 62.3418 39.3792 62.2673C39.3696 62.2032 39.3378 62.1428 39.3006 62.0899C39.2541 62.0232 39.1932 61.9663 39.1233 61.9242C39.0276 61.8665 38.905 61.822 38.8139 61.9138C38.7329 61.9955 38.743 62.1388 38.8375 62.2054C38.8375 62.2054 38.9056 62.2564 38.9183 62.2833C38.935 62.3175 38.9271 62.3977 38.9218 62.5002C38.9106 62.7051 38.8988 62.9768 38.908 63.0672C38.9186 63.1713 38.9401 63.2422 38.9794 63.3122C38.9839 63.3272 38.9908 63.3417 39.0004 63.3552L39.5312 64.1171C39.5804 64.1872 39.6777 64.2047 39.7479 64.1557L40.65 63.5302C40.7421 63.4661 40.7647 63.3385 40.7008 63.2464C40.6745 63.209 40.6381 63.1833 40.5977 63.1699C40.643 63.1022 40.6449 63.0107 40.5958 62.9403C40.5664 62.8983 40.5237 62.8709 40.4773 62.8594C40.5147 62.7888 40.5127 62.7001 40.4641 62.6302C40.4141 62.5589 40.3293 62.5264 40.2484 62.5392Z" fill="white"/>
<circle cx="29.8918" cy="59.274" r="1.26413" fill="#4048FF"/>
<path d="M29.8843 59.8048L29.7948 59.8672C29.7565 59.8939 29.7032 59.8844 29.6765 59.8461L29.4346 59.499C29.4079 59.4607 29.4173 59.4074 29.4556 59.3807L29.5452 59.3183C29.5835 59.2916 29.6367 59.3011 29.6634 59.3394L29.9054 59.6865C29.9321 59.7248 29.9227 59.778 29.8843 59.8048Z" fill="white"/>
<path d="M30.222 58.9503C30.241 58.9202 30.2414 58.8803 30.2198 58.8494C30.191 58.8082 30.1338 58.798 30.0927 58.8267L29.8797 58.9751C29.8735 58.9575 29.8656 58.8683 29.8609 58.8373C29.8569 58.8107 29.8437 58.7856 29.8283 58.7636C29.809 58.7359 29.7837 58.7123 29.7546 58.6948C29.7149 58.6708 29.6639 58.6523 29.6261 58.6905C29.5924 58.7244 29.5966 58.784 29.6359 58.8116C29.6359 58.8116 29.6642 58.8328 29.6695 58.844C29.6764 58.8582 29.6731 58.8915 29.6709 58.9341C29.6663 59.0192 29.6614 59.132 29.6652 59.1696C29.6696 59.2129 29.6785 59.2423 29.6948 59.2714C29.6967 59.2776 29.6996 59.2836 29.7035 59.2892L29.9241 59.6057C29.9445 59.6349 29.9849 59.6421 30.0141 59.6218L30.3888 59.3619C30.4271 59.3353 30.4364 59.2823 30.4099 59.2441C30.399 59.2285 30.3839 59.2179 30.3671 59.2123C30.3859 59.1841 30.3867 59.1461 30.3663 59.1169C30.3541 59.0994 30.3363 59.0881 30.3171 59.0833C30.3326 59.054 30.3318 59.0171 30.3116 58.9881C30.2908 58.9585 30.2556 58.945 30.222 58.9503Z" fill="white"/>
<circle cx="17.9257" cy="48.1535" r="1.57989" fill="#4048FF"/>
<path d="M17.9158 48.8169L17.8039 48.8949C17.7561 48.9283 17.6895 48.9164 17.6561 48.8686L17.3538 48.4348C17.3204 48.3869 17.3322 48.3203 17.3801 48.287L17.492 48.209C17.5399 48.1756 17.6064 48.1874 17.6398 48.2353L17.9422 48.6691C17.9756 48.717 17.9638 48.7835 17.9158 48.8169Z" fill="white"/>
<path d="M18.338 47.7491C18.3617 47.7115 18.3622 47.6616 18.3352 47.623C18.2993 47.5715 18.2278 47.5587 18.1764 47.5946L17.9102 47.7801C17.9024 47.7581 17.8926 47.6466 17.8868 47.6079C17.8818 47.5746 17.8653 47.5433 17.8459 47.5158C17.8218 47.4812 17.7902 47.4517 17.7539 47.4298C17.7042 47.3998 17.6406 47.3767 17.5933 47.4244C17.5512 47.4668 17.5564 47.5412 17.6055 47.5758C17.6055 47.5758 17.6409 47.6023 17.6475 47.6162C17.6561 47.6339 17.6521 47.6756 17.6493 47.7288C17.6435 47.8352 17.6374 47.9762 17.6421 48.0232C17.6476 48.0773 17.6588 48.114 17.6792 48.1504C17.6815 48.1582 17.6851 48.1657 17.6901 48.1727L17.9657 48.5682C17.9912 48.6046 18.0417 48.6137 18.0781 48.5883L18.5465 48.2635C18.5943 48.2303 18.606 48.1641 18.5729 48.1162C18.5592 48.0968 18.5403 48.0835 18.5193 48.0765C18.5429 48.0413 18.5438 47.9938 18.5184 47.9573C18.5031 47.9355 18.4809 47.9213 18.4568 47.9153C18.4762 47.8786 18.4752 47.8326 18.45 47.7963C18.424 47.7593 18.38 47.7425 18.338 47.7491Z" fill="white"/>
<path d="M25.9521 55.3845L25.8421 55.4611C25.7951 55.4939 25.7297 55.4823 25.6969 55.4352L25.3998 55.009C25.367 54.9619 25.3786 54.8965 25.4256 54.8637L25.5356 54.7871C25.5826 54.7543 25.648 54.7659 25.6808 54.813L25.9779 55.2392C26.0107 55.2863 25.9992 55.3516 25.9521 55.3845Z" fill="white"/>
<path d="M26.3669 54.3351C26.3902 54.2982 26.3907 54.2491 26.3642 54.2112C26.3289 54.1606 26.2586 54.1481 26.2081 54.1833L25.9465 54.3656C25.9389 54.344 25.9293 54.2344 25.9235 54.1964C25.9186 54.1637 25.9024 54.1329 25.8834 54.1059C25.8597 54.0719 25.8286 54.0429 25.7929 54.0214C25.7441 53.9919 25.6816 53.9692 25.6351 54.0161C25.5938 54.0578 25.5989 54.1309 25.6471 54.1648C25.6471 54.1648 25.6818 54.1909 25.6883 54.2046C25.6968 54.222 25.6929 54.2629 25.6901 54.3152C25.6844 54.4198 25.6784 54.5583 25.6831 54.6045C25.6885 54.6576 25.6995 54.6937 25.7195 54.7294C25.7218 54.7371 25.7253 54.7445 25.7302 54.7514L26.001 55.14C26.0261 55.1758 26.0758 55.1848 26.1115 55.1598L26.5718 54.8406C26.6187 54.808 26.6303 54.7429 26.5977 54.6959C26.5843 54.6768 26.5657 54.6637 26.5451 54.6569C26.5682 54.6223 26.5691 54.5756 26.5441 54.5398C26.5291 54.5183 26.5073 54.5043 26.4837 54.4985C26.5027 54.4624 26.5017 54.4172 26.4769 54.3815C26.4514 54.3452 26.4082 54.3286 26.3669 54.3351Z" fill="white"/>
<path d="M12.8657 53.2841C13.1803 53.1009 13.4614 53.3037 13.5635 53.3947C13.5805 53.2589 13.6588 52.9214 14.0159 52.8524C14.5329 52.7524 14.8301 53.3463 14.5477 53.9537C14.2708 54.5489 14.0626 54.7271 14.0626 54.7271C14.0626 54.7271 13.7904 54.7291 13.1902 54.4632C12.5776 54.1919 12.4108 53.5491 12.8657 53.2841Z" fill="white"/>
<circle cx="34.1436" cy="54.486" r="2.43035" transform="rotate(43.4779 34.1436 54.486)" fill="#FB6C77"/>
<path d="M33.8322 53.574C34.1865 53.6575 34.2509 53.9981 34.2625 54.1344C34.3682 54.0476 34.6572 53.8565 34.9639 54.0522C35.4078 54.3353 35.2147 54.9708 34.5919 55.2172C33.9815 55.4586 33.7078 55.4446 33.7078 55.4446C33.7078 55.4446 33.5089 55.2588 33.2563 54.6529C32.9985 54.0346 33.3197 53.4533 33.8322 53.574Z" fill="white"/>
<circle cx="17.3433" cy="63.4073" r="1.08337" transform="rotate(43.4779 17.3433 63.4073)" fill="#FB6C77"/>
<path d="M17.2046 63.0008C17.3625 63.0381 17.3912 63.1899 17.3964 63.2506C17.4435 63.2119 17.5724 63.1267 17.709 63.214C17.9069 63.3402 17.8209 63.6235 17.5433 63.7333C17.2711 63.8409 17.1491 63.8347 17.1491 63.8347C17.1491 63.8347 17.0605 63.7519 16.9479 63.4818C16.8329 63.2061 16.9761 62.947 17.2046 63.0008Z" fill="white"/>
<circle cx="36.4933" cy="49.533" r="1.08337" transform="rotate(43.4779 36.4933 49.533)" fill="#FB6C77"/>
<path d="M36.3545 49.1265C36.5125 49.1637 36.5412 49.3156 36.5463 49.3763C36.5935 49.3376 36.7223 49.2524 36.859 49.3397C37.0569 49.4659 36.9708 49.7492 36.6932 49.859C36.4211 49.9666 36.2991 49.9604 36.2991 49.9604C36.2991 49.9604 36.2104 49.8775 36.0978 49.6074C35.9829 49.3318 36.1261 49.0727 36.3545 49.1265Z" fill="white"/>
<g filter="url(#filter0_f)">
<circle cx="26.6117" cy="48.7017" r="1.0792" transform="rotate(15.5444 26.6117 48.7017)" fill="#FB6C77"/>
<path d="M26.2998 48.4087C26.4562 48.3678 26.5523 48.488 26.5852 48.5391C26.6086 48.483 26.6822 48.3479 26.8433 48.3609C27.0763 48.3797 27.1328 48.6691 26.9397 48.8953C26.7504 49.117 26.6401 49.1685 26.6401 49.1685C26.6401 49.1685 26.5235 49.137 26.2983 48.9518C26.0685 48.7628 26.0737 48.468 26.2998 48.4087Z" fill="white"/>
</g>
<defs>
<filter id="filter0_f" x="25.1132" y="47.2031" width="2.99707" height="2.99707" filterUnits="userSpaceOnUse" color-interpolation-filters="sRGB">
<feFlood flood-opacity="0" result="BackgroundImageFix"/>
<feBlend mode="normal" in="SourceGraphic" in2="BackgroundImageFix" result="shape"/>
<feGaussianBlur stdDeviation="0.0848001" result="effect1_foregroundBlur"/>
</filter>
<linearGradient id="paint0_linear" x1="33.5812" y1="39.928" x2="26.2125" y2="61.0357" gradientUnits="userSpaceOnUse">
<stop stop-color="#DB2026"/>
<stop offset="0.505208" stop-color="#4080FF"/>
<stop offset="1" stop-color="#DB2026" stop-opacity="0"/>
</linearGradient>
<linearGradient id="paint1_linear" x1="18.1903" y1="49.2185" x2="44.4004" y2="41.4782" gradientUnits="userSpaceOnUse">
<stop stop-color="#0B1D69"/>
<stop offset="1" stop-color="#4080FF"/>
</linearGradient>
<linearGradient id="paint2_linear" x1="28.7907" y1="39.3798" x2="41.8931" y2="41.1945" gradientUnits="userSpaceOnUse">
<stop stop-color="#0B1D69"/>
<stop offset="1" stop-color="#4080FF"/>
</linearGradient>
<linearGradient id="paint3_linear" x1="37.1811" y1="11.1869" x2="54.7404" y2="14.145" gradientUnits="userSpaceOnUse">
<stop stop-color="#0B1D69"/>
<stop offset="1" stop-color="#4080FF"/>
</linearGradient>
<linearGradient id="paint4_linear" x1="36.3366" y1="24.9101" x2="44.4103" y2="26.2789" gradientUnits="userSpaceOnUse">
<stop stop-color="#0B1D69"/>
<stop offset="1" stop-color="#4080FF"/>
</linearGradient>
<linearGradient id="paint5_linear" x1="40.1322" y1="42.9589" x2="45.5296" y2="44.254" gradientUnits="userSpaceOnUse">
<stop stop-color="#0B1D69"/>
<stop offset="1" stop-color="#4080FF"/>
</linearGradient>
<linearGradient id="paint6_linear" x1="23.9568" y1="37.4476" x2="31.1835" y2="39.1305" gradientUnits="userSpaceOnUse">
<stop stop-color="#0B1D69"/>
<stop offset="1" stop-color="#4080FF"/>
</linearGradient>
</defs>
</svg>
