<svg width="24" height="20" viewBox="0 0 24 20" fill="none" xmlns="http://www.w3.org/2000/svg">
<path d="M1.99172 11.0742C1.84111 10.9236 1.63683 10.839 1.42383 10.839C1.21083 10.839 1.00655 10.9236 0.855933 11.0742C0.705318 11.2248 0.620703 11.4291 0.620703 11.6421V16.564C0.620703 17.3364 0.927555 18.0772 1.47375 18.6234C2.01995 19.1696 2.76076 19.4765 3.5332 19.4765H20.4082C21.1806 19.4765 21.9214 19.1696 22.4677 18.6234C23.0139 18.0772 23.3207 17.3364 23.3207 16.564V11.6421C23.3207 11.4291 23.2361 11.2248 23.0855 11.0742C22.9349 10.9236 22.7306 10.839 22.5176 10.839C22.3046 10.839 22.1003 10.9236 21.9497 11.0742C21.7991 11.2248 21.7145 11.4291 21.7145 11.6421V16.564C21.7145 16.9104 21.5768 17.2427 21.3319 17.4876C21.0869 17.7326 20.7546 17.8702 20.4082 17.8702H3.5332C3.18676 17.8702 2.85451 17.7326 2.60954 17.4876C2.36458 17.2427 2.22695 16.9104 2.22695 16.564V11.6421C2.22695 11.4291 2.14234 11.2248 1.99172 11.0742Z" fill="#4048FF" stroke="#4048FF" stroke-width="0.2"/>
<path d="M7.68204 10.1654L7.68202 10.1654L7.75274 11.2304L7.68202 11.3011L7.68202 11.3011L11.4029 15.0233C11.4775 15.0981 11.5661 15.1575 11.6637 15.1979C11.7612 15.2384 11.8658 15.2593 11.9715 15.2593C12.0771 15.2593 12.1817 15.2384 12.2793 15.1979C12.3769 15.1575 12.4655 15.0981 12.5401 15.0233L16.2604 11.3017C16.3368 11.2277 16.3977 11.1393 16.4397 11.0416C16.4818 10.9436 16.5039 10.8382 16.5049 10.7316C16.5058 10.6249 16.4855 10.5192 16.4451 10.4205C16.4047 10.3218 16.3451 10.2321 16.2697 10.1567C16.1943 10.0813 16.1046 10.0217 16.0059 9.98129C15.9072 9.94091 15.8014 9.92059 15.6948 9.92151C15.5882 9.92244 15.4828 9.9446 15.3848 9.98669C15.2871 10.0287 15.1987 10.0896 15.1247 10.166L11.9715 13.3192L8.81767 10.1654L8.81766 10.1654C8.66705 10.0149 8.46281 9.93027 8.24985 9.93027C8.03689 9.93027 7.83265 10.0149 7.68204 10.1654Z" fill="#4048FF" stroke="#4048FF" stroke-width="0.2"/>
<path d="M12.5386 1.23044C12.388 1.07983 12.1837 0.995215 11.9707 0.995215C11.7577 0.995215 11.5534 1.07983 11.4028 1.23044C11.2522 1.38106 11.1676 1.58534 11.1676 1.79834V13.0483C11.1676 13.2613 11.2522 13.4656 11.4028 13.6162C11.5534 13.7669 11.7577 13.8515 11.9707 13.8515C12.1837 13.8515 12.388 13.7669 12.5386 13.6162C12.6892 13.4656 12.7738 13.2613 12.7738 13.0483V1.79834C12.7738 1.58534 12.6892 1.38106 12.5386 1.23044Z" fill="#4048FF" stroke="#4048FF" stroke-width="0.2"/>
</svg>
