<svg width="14" height="14" viewBox="0 0 14 14" fill="none" xmlns="http://www.w3.org/2000/svg">
<path d="M7.25127 9.44653C6.87679 9.44653 6.57361 9.75862 6.57361 10.1331C6.57361 10.4987 6.86786 10.8197 7.25127 10.8197C7.63467 10.8197 7.93785 10.4987 7.93785 10.1331C7.93785 9.75862 7.62579 9.44653 7.25127 9.44653Z" fill="#4080FF"/>
<path d="M7.36717 4.24805C6.16342 4.24805 5.6106 4.96136 5.6106 5.44287C5.6106 5.79064 5.90483 5.95113 6.14559 5.95113C6.62707 5.95113 6.43092 5.26455 7.34041 5.26455C7.78626 5.26455 8.14293 5.46073 8.14293 5.87089C8.14293 6.35242 7.6436 6.62882 7.34934 6.87848C7.09077 7.1014 6.75193 7.46699 6.75193 8.23383C6.75193 8.69748 6.87674 8.83124 7.24234 8.83124C7.67926 8.83124 7.7684 8.63509 7.7684 8.46567C7.7684 8.00199 7.77736 7.73449 8.26777 7.35109C8.50851 7.16384 9.26644 6.5575 9.26644 5.71932C9.26644 4.88114 8.50851 4.24805 7.36717 4.24805Z" fill="#4080FF"/>
<path d="M7.45198 0.666748C3.83272 0.666748 0.90332 3.59566 0.90332 7.21541V13.2525C0.90332 13.535 1.13237 13.7641 1.41493 13.7641H7.45198C11.0712 13.7641 14.0006 10.8352 14.0006 7.21541C14.0006 3.59615 11.0717 0.666748 7.45198 0.666748ZM7.45198 12.7408H1.92655V7.21541C1.92655 4.16166 4.39782 1.68998 7.45198 1.68998C10.5057 1.68998 12.9774 4.16125 12.9774 7.21541C12.9774 10.2692 10.5061 12.7408 7.45198 12.7408Z" fill="#4080FF"/>
</svg>
