<svg width="6" height="18" viewBox="0 0 6 18" fill="none" xmlns="http://www.w3.org/2000/svg">
<path d="M5.33555 6.11216L0.80289 6.68023L0.640585 7.43237L1.53128 7.59666C2.1132 7.73521 2.22801 7.94502 2.10133 8.52496L0.640585 15.3893C0.256596 17.1647 0.848415 18 2.23988 18C3.31861 18 4.57153 17.5012 5.1396 16.8164L5.31378 15.993C4.91791 16.3413 4.33995 16.4799 3.95596 16.4799C3.41164 16.4799 3.21371 16.0979 3.35424 15.4249L5.33555 6.11216ZM5.4741 1.97933C5.4741 2.50428 5.26557 3.00773 4.89437 3.37892C4.52317 3.75012 4.01972 3.95865 3.49477 3.95865C2.96982 3.95865 2.46638 3.75012 2.09518 3.37892C1.72398 3.00773 1.51545 2.50428 1.51545 1.97933C1.51545 1.45438 1.72398 0.950927 2.09518 0.579731C2.46638 0.208536 2.96982 0 3.49477 0C4.01972 0 4.52317 0.208536 4.89437 0.579731C5.26557 0.950927 5.4741 1.45438 5.4741 1.97933Z" fill="#4048FF"/>
</svg>
