<svg width="10" height="8" viewBox="0 0 10 8" fill="none" xmlns="http://www.w3.org/2000/svg">
<path fill-rule="evenodd" clip-rule="evenodd" d="M8.27139 0.490134C8.43953 0.337175 8.66651 0.251091 8.90325 0.250491C9.14 0.249892 9.36749 0.334826 9.53655 0.48693C9.7056 0.639035 9.80263 0.846089 9.80667 1.06333C9.8107 1.28057 9.72142 1.49053 9.55811 1.64784L4.76206 7.14969C4.67963 7.23117 4.58015 7.29655 4.46955 7.34194C4.35896 7.38733 4.23953 7.41178 4.1184 7.41384C3.99728 7.4159 3.87694 7.39552 3.76459 7.35392C3.65224 7.31232 3.55019 7.25036 3.46453 7.17174L0.286788 4.25433C0.198259 4.17862 0.127253 4.08733 0.0780048 3.98589C0.0287565 3.88445 0.00227488 3.77495 0.000140229 3.66392C-0.00199443 3.55289 0.0202616 3.4426 0.0655802 3.33963C0.110899 3.23666 0.178352 3.14313 0.263915 3.0646C0.349478 2.98608 0.451399 2.92418 0.563597 2.88259C0.675795 2.841 0.795971 2.82057 0.916957 2.82253C1.03794 2.82449 1.15726 2.84879 1.26779 2.89399C1.37832 2.93919 1.4778 3.00435 1.56029 3.0856L4.07605 5.39329L8.24856 0.514391C8.25601 0.50585 8.26404 0.497748 8.27259 0.490134H8.27139Z" fill="#4048FF"/>
</svg>
