<svg width="21" height="21" viewBox="0 0 21 21" fill="none" xmlns="http://www.w3.org/2000/svg">
<circle cx="10.8389" cy="10.5024" r="10" fill="#F7931A"/>
<path d="M12.8091 5.18262C10.9569 5.18262 9.45939 6.68013 9.45939 8.53232C9.45939 8.9264 9.53821 9.32048 9.65642 9.71457L5.51855 13.8525V15.8229H7.48897V14.6406H8.67122V13.4584H9.85347L11.6268 11.685C11.9815 11.8032 12.3756 11.882 12.8091 11.882C14.6613 11.882 16.1588 10.3845 16.1588 8.53234C16.1588 6.68016 14.6613 5.18262 12.8091 5.18262ZM13.7943 8.72937C13.1244 8.72937 12.6121 8.21707 12.6121 7.54712C12.6121 6.87717 13.1244 6.36487 13.7943 6.36487C14.4643 6.36487 14.9766 6.87717 14.9766 7.54712C14.9766 8.21707 14.4643 8.72937 13.7943 8.72937Z" fill="white"/>
</svg>
