<svg width="30" height="30" viewBox="0 0 30 30" fill="none" xmlns="http://www.w3.org/2000/svg">
<rect width="30" height="30" rx="15" fill="url(#paint0_linear_12097_63615)"/>
<path fill-rule="evenodd" clip-rule="evenodd" d="M14.7942 8.12482C12.9269 8.12482 12.6925 8.13298 11.9591 8.16636C11.2271 8.19988 10.7275 8.31576 10.2903 8.48579C9.83813 8.6614 9.45452 8.89632 9.07236 9.27863C8.6899 9.6608 8.45498 10.0444 8.2788 10.4965C8.10834 10.9338 7.99231 11.4336 7.95937 12.1652C7.92656 12.8986 7.91797 13.1331 7.91797 15.0004C7.91797 16.8677 7.92628 17.1014 7.95951 17.8348C7.99317 18.5667 8.10905 19.0663 8.27894 19.5035C8.4547 19.9557 8.68961 20.3393 9.07193 20.7215C9.45395 21.104 9.83755 21.3395 10.2895 21.5151C10.7269 21.6851 11.2267 21.801 11.9585 21.8345C12.6919 21.8679 12.9261 21.876 14.7933 21.876C16.6607 21.876 16.8944 21.8679 17.6278 21.8345C18.3597 21.801 18.8599 21.6851 19.2974 21.5151C19.7495 21.3395 20.1325 21.104 20.5145 20.7215C20.897 20.3393 21.1319 19.9557 21.3081 19.5037C21.4771 19.0663 21.5931 18.5666 21.6275 17.8349C21.6605 17.1015 21.669 16.8677 21.669 15.0004C21.669 13.1331 21.6605 12.8988 21.6275 12.1654C21.5931 11.4334 21.4771 10.9338 21.3081 10.4966C21.1319 10.0444 20.897 9.6608 20.5145 9.27863C20.1321 8.89617 19.7496 8.66126 19.297 8.48579C18.8586 8.31576 18.3587 8.19988 17.6268 8.16636C16.8934 8.13298 16.6599 8.12482 14.792 8.12482H14.7942ZM14.1763 9.36477C14.3594 9.36448 14.5637 9.36477 14.7931 9.36477C16.6289 9.36477 16.8465 9.37136 17.5715 9.40431C18.2418 9.43496 18.6057 9.54697 18.848 9.64108C19.1689 9.7657 19.3977 9.91468 19.6382 10.1553C19.8788 10.396 20.0278 10.6252 20.1527 10.946C20.2468 11.1881 20.3589 11.5519 20.3895 12.2223C20.4224 12.9471 20.4296 13.1648 20.4296 14.9998C20.4296 16.8347 20.4224 17.0524 20.3895 17.7772C20.3588 18.4476 20.2468 18.8114 20.1527 19.0535C20.0281 19.3744 19.8788 19.6028 19.6382 19.8433C19.3975 20.084 19.169 20.233 18.848 20.3576C18.606 20.4521 18.2418 20.5638 17.5715 20.5945C16.8467 20.6274 16.6289 20.6346 14.7931 20.6346C12.9572 20.6346 12.7396 20.6274 12.0148 20.5945C11.3445 20.5636 10.9806 20.4515 10.7381 20.3574C10.4172 20.2328 10.1881 20.0838 9.94741 19.8432C9.70677 19.6026 9.5578 19.3739 9.43289 19.0529C9.33878 18.8109 9.22662 18.447 9.19611 17.7766C9.16316 17.0518 9.15657 16.8341 9.15657 14.998C9.15657 13.162 9.16316 12.9454 9.19611 12.2206C9.22676 11.5502 9.33878 11.1864 9.43289 10.944C9.55751 10.6232 9.70677 10.394 9.94741 10.1533C10.1881 9.91267 10.4172 9.7637 10.7381 9.63879C10.9805 9.54425 11.3445 9.43252 12.0148 9.40173C12.6491 9.37308 12.8949 9.36448 14.1763 9.36305V9.36477ZM18.4653 10.5051C18.0098 10.5051 17.6403 10.8743 17.6403 11.3299C17.6403 11.7854 18.0098 12.155 18.4653 12.155C18.9208 12.155 19.2904 11.7854 19.2904 11.3299C19.2904 10.8744 18.9208 10.5049 18.4653 10.5049V10.5051ZM14.796 11.4705C12.8461 11.4705 11.2651 13.0514 11.2651 15.0014C11.2651 16.9513 12.8461 18.5316 14.796 18.5316C16.746 18.5316 18.3263 16.9513 18.3263 15.0014C18.3263 13.0514 16.7458 11.4705 14.7959 11.4705H14.796ZM14.7942 12.7083C16.0599 12.7083 17.0861 13.7343 17.0861 15.0001C17.0861 16.2658 16.0599 17.292 14.7942 17.292C13.5284 17.292 12.5023 16.2658 12.5023 15.0001C12.5023 13.7343 13.5284 12.7083 14.7942 12.7083V12.7083Z" fill="white"/>
<defs>
<linearGradient id="paint0_linear_12097_63615" x1="15" y1="43.8297" x2="15" y2="-13.5479" gradientUnits="userSpaceOnUse">
<stop stop-color="#E09B3D"/>
<stop offset="0.3" stop-color="#C74C4D"/>
<stop offset="0.6" stop-color="#C21975"/>
<stop offset="1" stop-color="#7024C4"/>
</linearGradient>
</defs>
</svg>
