<svg width="52" height="52" viewBox="0 0 52 52" fill="none" xmlns="http://www.w3.org/2000/svg">
<rect x="1.50453" y="1.29585" width="49.4" height="49.4" rx="24.7" fill="url(#paint0_linear)" stroke="white" stroke-width="1.4"/>
<path fill-rule="evenodd" clip-rule="evenodd" d="M25.8744 14.9955C22.8867 14.9955 22.5118 15.0086 21.3383 15.062C20.1672 15.1156 19.3678 15.301 18.6683 15.573C17.9447 15.854 17.331 16.2299 16.7195 16.8416C16.1076 17.4531 15.7317 18.0668 15.4498 18.7901C15.1771 19.4899 14.9914 20.2895 14.9387 21.4602C14.8862 22.6336 14.8725 23.0088 14.8725 25.9965C14.8725 28.9842 14.8858 29.358 14.939 30.5314C14.9928 31.7025 15.1782 32.5019 15.45 33.2014C15.7313 33.925 16.1071 34.5387 16.7188 35.1502C17.3301 35.7621 17.9438 36.1389 18.6669 36.4199C19.3669 36.6919 20.1665 36.8774 21.3374 36.931C22.5108 36.9844 22.8856 36.9975 25.873 36.9975C28.8609 36.9975 29.2347 36.9844 30.4082 36.931C31.5793 36.8774 32.3796 36.6919 33.0796 36.4199C33.8029 36.1389 34.4157 35.7621 35.027 35.1502C35.6389 34.5387 36.0148 33.925 36.2967 33.2017C36.5671 32.5019 36.7528 31.7023 36.8078 30.5316C36.8605 29.3582 36.8742 28.9842 36.8742 25.9965C36.8742 23.0088 36.8605 22.6338 36.8078 21.4604C36.7528 20.2893 36.5671 19.4899 36.2967 18.7904C36.0148 18.0668 35.6389 17.4531 35.027 16.8416C34.415 16.2297 33.8031 15.8538 33.0789 15.573C32.3776 15.301 31.5777 15.1156 30.4066 15.062C29.2331 15.0086 28.8596 14.9955 25.871 14.9955H25.8744ZM24.8863 16.9795C25.1792 16.979 25.506 16.9795 25.8731 16.9795C28.8104 16.9795 29.1585 16.99 30.3185 17.0427C31.3911 17.0918 31.9732 17.271 32.361 17.4216C32.8744 17.6209 33.2404 17.8593 33.6252 18.2443C34.0102 18.6294 34.2486 18.9961 34.4484 19.5094C34.599 19.8968 34.7784 20.4789 34.8273 21.5515C34.88 22.7112 34.8914 23.0596 34.8914 25.9954C34.8914 28.9313 34.88 29.2797 34.8273 30.4394C34.7782 31.512 34.599 32.0941 34.4484 32.4814C34.249 32.9948 34.0102 33.3604 33.6252 33.7452C33.2401 34.1302 32.8746 34.3686 32.361 34.5679C31.9736 34.7192 31.3911 34.898 30.3185 34.947C29.1588 34.9997 28.8104 35.0112 25.8731 35.0112C22.9357 35.0112 22.5875 34.9997 21.4278 34.947C20.3552 34.8975 19.7731 34.7183 19.3851 34.5677C18.8717 34.3683 18.505 34.13 18.12 33.7449C17.7349 33.3599 17.4966 32.9941 17.2967 32.4805C17.1462 32.0932 16.9667 31.5111 16.9179 30.4385C16.8652 29.2788 16.8546 28.9304 16.8546 25.9927C16.8546 23.055 16.8652 22.7084 16.9179 21.5488C16.9669 20.4762 17.1462 19.894 17.2967 19.5062C17.4961 18.9929 17.7349 18.6262 18.12 18.2411C18.505 17.8561 18.8717 17.6177 19.3851 17.4179C19.7729 17.2666 20.3552 17.0879 21.4278 17.0386C22.4427 16.9927 22.836 16.979 24.8863 16.9767V16.9795ZM31.7493 18.804C31.0204 18.804 30.4291 19.3946 30.4291 20.1237C30.4291 20.8525 31.0204 21.4438 31.7493 21.4438C32.4781 21.4438 33.0694 20.8525 33.0694 20.1237C33.0694 19.3949 32.4781 18.8036 31.7493 18.8036V18.804ZM25.8774 20.3486C22.7575 20.3486 20.228 22.8781 20.228 25.998C20.228 29.1179 22.7575 31.6463 25.8774 31.6463C28.9973 31.6463 31.526 29.1179 31.526 25.998C31.526 22.8781 28.9971 20.3486 25.8772 20.3486H25.8774ZM25.8754 22.329C27.9005 22.329 29.5424 23.9707 29.5424 25.996C29.5424 28.0211 27.9005 29.663 25.8754 29.663C23.8501 29.663 22.2084 28.0211 22.2084 25.996C22.2084 23.9707 23.8501 22.329 25.8754 22.329Z" fill="white"/>
<defs>
<linearGradient id="paint0_linear" x1="26.2045" y1="72.1233" x2="26.2045" y2="-19.6808" gradientUnits="userSpaceOnUse">
<stop stop-color="#E09B3D"/>
<stop offset="0.3" stop-color="#C74C4D"/>
<stop offset="0.6" stop-color="#C21975"/>
<stop offset="1" stop-color="#7024C4"/>
</linearGradient>
</defs>
</svg>
