<svg width="26" height="26" viewBox="0 0 26 26" fill="none" xmlns="http://www.w3.org/2000/svg">
<path fill-rule="evenodd" clip-rule="evenodd" d="M12.6357 0C9.20432 0 8.77369 0.0150036 7.42599 0.0763341C6.08093 0.137928 5.16282 0.350874 4.35947 0.663317C3.52848 0.986026 2.82357 1.41771 2.1213 2.12025C1.4185 2.82252 0.986816 3.52743 0.663054 4.35815C0.349821 5.16177 0.136612 6.08014 0.0760709 7.42468C0.0157933 8.77237 0 9.20326 0 12.6346C0 16.066 0.0152668 16.4953 0.0763341 17.843C0.138191 19.188 0.351137 20.1061 0.663317 20.9095C0.98629 21.7405 1.41797 22.4454 2.12051 23.1477C2.82252 23.8505 3.52743 24.2832 4.35789 24.6059C5.16177 24.9184 6.08014 25.1313 7.42494 25.1929C8.77263 25.2542 9.203 25.2692 12.6341 25.2692C16.0657 25.2692 16.495 25.2542 17.8427 25.1929C19.1878 25.1313 20.1069 24.9184 20.9108 24.6059C21.7415 24.2832 22.4454 23.8505 23.1474 23.1477C23.8502 22.4454 24.2819 21.7405 24.6056 20.9098C24.9162 20.1061 25.1295 19.1878 25.1926 17.8432C25.2532 16.4955 25.269 16.066 25.269 12.6346C25.269 9.20326 25.2532 8.77263 25.1926 7.42494C25.1295 6.07988 24.9162 5.16177 24.6056 4.35842C24.2819 3.52743 23.8502 2.82252 23.1474 2.12025C22.4446 1.41745 21.7418 0.985763 20.91 0.663317C20.1046 0.350874 19.1859 0.137928 17.8409 0.0763341C16.4932 0.0150036 16.0641 0 12.6317 0H12.6357ZM11.5013 2.27663C11.8377 2.27611 12.213 2.27663 12.6347 2.27663C16.0081 2.27663 16.408 2.28874 17.7401 2.34928C18.972 2.40561 19.6406 2.61145 20.086 2.78439C20.6756 3.01339 21.0959 3.28714 21.5379 3.72935C21.9801 4.17156 22.2538 4.59271 22.4834 5.18233C22.6563 5.62717 22.8624 6.29576 22.9185 7.52763C22.979 8.85953 22.9922 9.25963 22.9922 12.6315C22.9922 16.0033 22.979 16.4034 22.9185 17.7353C22.8621 18.9672 22.6563 19.6358 22.4834 20.0806C22.2544 20.6703 21.9801 21.0901 21.5379 21.532C21.0957 21.9743 20.6758 22.248 20.086 22.477C19.6411 22.6507 18.972 22.856 17.7401 22.9124C16.4082 22.9729 16.0081 22.9861 12.6347 22.9861C9.26099 22.9861 8.86115 22.9729 7.52925 22.9124C6.29738 22.8555 5.6288 22.6497 5.18316 22.4767C4.59355 22.2477 4.1724 21.974 3.73018 21.5318C3.28797 21.0896 3.01422 20.6695 2.78469 20.0796C2.61176 19.6347 2.40566 18.9662 2.34959 17.7343C2.28905 16.4024 2.27694 16.0023 2.27694 12.6283C2.27694 9.25436 2.28905 8.85637 2.34959 7.52447C2.40592 6.2926 2.61176 5.62401 2.78469 5.17865C3.0137 4.58903 3.28797 4.16788 3.73018 3.72566C4.1724 3.28345 4.59355 3.0097 5.18316 2.78017C5.62854 2.60645 6.29738 2.40114 7.52925 2.34454C8.6948 2.2919 9.14648 2.27611 11.5013 2.27347V2.27663ZM19.3819 4.37375C18.5448 4.37375 17.8657 5.05207 17.8657 5.88938C17.8657 6.72642 18.5448 7.40553 19.3819 7.40553C20.2189 7.40553 20.898 6.72642 20.898 5.88938C20.898 5.05234 20.2189 4.37323 19.3819 4.37323V4.37375ZM12.6379 6.14769C9.0547 6.14769 6.14953 9.05286 6.14953 12.6361C6.14953 16.2193 9.0547 19.1232 12.6379 19.1232C16.2212 19.1232 19.1253 16.2193 19.1253 12.6361C19.1253 9.05286 16.2209 6.14769 12.6377 6.14769H12.6379ZM12.6365 8.4231C14.9623 8.4231 16.848 10.3086 16.848 12.6346C16.848 14.9605 14.9623 16.8462 12.6365 16.8462C10.3104 16.8462 8.42494 14.9605 8.42494 12.6346C8.42494 10.3086 10.3104 8.4231 12.6365 8.4231Z" fill="#D6D6E8"/>
</svg>
