<svg width="22" height="22" viewBox="0 0 22 22" fill="none" xmlns="http://www.w3.org/2000/svg">
<path fill-rule="evenodd" clip-rule="evenodd" d="M11.041 4.55273C9.228 4.55273 9.00047 4.56066 8.28839 4.59307C7.57771 4.62561 7.09261 4.73812 6.66814 4.90321C6.22908 5.07372 5.85663 5.3018 5.48557 5.673C5.11423 6.04406 4.88615 6.41651 4.71508 6.85544C4.54958 7.28004 4.43693 7.76528 4.40494 8.47569C4.37309 9.18776 4.36475 9.41543 4.36475 11.2284C4.36475 13.0415 4.37281 13.2683 4.40508 13.9804C4.43776 14.691 4.55028 15.1761 4.71522 15.6006C4.88587 16.0397 5.11396 16.4121 5.48515 16.7832C5.85607 17.1545 6.22852 17.3832 6.66731 17.5537C7.09205 17.7188 7.57729 17.8313 8.28784 17.8638C8.99991 17.8962 9.2273 17.9041 11.0402 17.9041C12.8533 17.9041 13.0802 17.8962 13.7922 17.8638C14.5029 17.8313 14.9886 17.7188 15.4133 17.5537C15.8522 17.3832 16.2241 17.1545 16.5951 16.7832C16.9664 16.4121 17.1945 16.0397 17.3655 15.6008C17.5297 15.1761 17.6423 14.6909 17.6757 13.9805C17.7077 13.2684 17.716 13.0415 17.716 11.2284C17.716 9.41543 17.7077 9.1879 17.6757 8.47582C17.6423 7.76514 17.5297 7.28004 17.3655 6.85558C17.1945 6.41651 16.9664 6.04406 16.5951 5.673C16.2237 5.30167 15.8524 5.07358 15.4129 4.90321C14.9873 4.73812 14.5019 4.62561 13.7913 4.59307C13.0792 4.56066 12.8525 4.55273 11.0389 4.55273H11.041ZM10.4414 5.75623C10.6191 5.75595 10.8174 5.75623 11.0402 5.75623C12.8226 5.75623 13.0339 5.76262 13.7378 5.79461C14.3887 5.82437 14.7419 5.93313 14.9772 6.02451C15.2888 6.1455 15.5109 6.29014 15.7444 6.52379C15.978 6.75744 16.1227 6.97997 16.2439 7.2915C16.3353 7.52654 16.4442 7.8798 16.4738 8.53068C16.5058 9.23441 16.5128 9.44581 16.5128 11.2274C16.5128 13.009 16.5058 13.2204 16.4738 13.9241C16.4441 14.575 16.3353 14.9282 16.2439 15.1633C16.123 15.4748 15.978 15.6966 15.7444 15.9301C15.5107 16.1638 15.2889 16.3084 14.9772 16.4294C14.7422 16.5212 14.3887 16.6297 13.7378 16.6595C13.034 16.6915 12.8226 16.6984 11.0402 16.6984C9.25768 16.6984 9.04642 16.6915 8.34269 16.6595C7.69181 16.6294 7.33856 16.5207 7.1031 16.4293C6.79156 16.3083 6.56904 16.1637 6.33539 15.93C6.10174 15.6964 5.9571 15.4744 5.83583 15.1627C5.74445 14.9277 5.63555 14.5744 5.60593 13.9235C5.57394 13.2198 5.56755 13.0084 5.56755 11.2257C5.56755 9.44302 5.57394 9.23274 5.60593 8.52901C5.63569 7.87813 5.74445 7.52487 5.83583 7.28955C5.95682 6.97802 6.10174 6.7555 6.33539 6.52185C6.56904 6.2882 6.79156 6.14356 7.1031 6.02228C7.33842 5.93049 7.69181 5.82201 8.34269 5.79211C8.95853 5.76429 9.19718 5.75595 10.4414 5.75456V5.75623ZM14.6056 6.86421C14.1633 6.86421 13.8045 7.22261 13.8045 7.66502C13.8045 8.10728 14.1633 8.4661 14.6056 8.4661C15.0479 8.4661 15.4067 8.10728 15.4067 7.66502C15.4067 7.22275 15.0479 6.86393 14.6056 6.86393V6.86421ZM11.0427 7.80143C9.14942 7.80143 7.61442 9.33643 7.61442 11.2297C7.61442 13.1229 9.14942 14.6572 11.0427 14.6572C12.9359 14.6572 14.4704 13.1229 14.4704 11.2297C14.4704 9.33643 12.9358 7.80143 11.0425 7.80143H11.0427ZM11.0415 9.00326C12.2704 9.00326 13.2667 9.99947 13.2667 11.2285C13.2667 12.4574 12.2704 13.4537 11.0415 13.4537C9.81245 13.4537 8.81624 12.4574 8.81624 11.2285C8.81624 9.99947 9.81245 9.00326 11.0415 9.00326Z" fill="url(#paint0_linear)"/>
<defs>
<linearGradient id="paint0_linear" x1="15.694" y1="16.0147" x2="6.38665" y2="6.44228" gradientUnits="userSpaceOnUse">
<stop stop-color="#E09B3D"/>
<stop offset="0.3" stop-color="#C74C4D"/>
<stop offset="0.6" stop-color="#C21975"/>
<stop offset="1" stop-color="#7024C4"/>
</linearGradient>
</defs>
</svg>
