<svg width="23" height="23" viewBox="0 0 23 23" fill="none" xmlns="http://www.w3.org/2000/svg">
<rect width="23" height="23" rx="11.5" fill="url(#paint0_linear_12097_63615)"/>
<path fill-rule="evenodd" clip-rule="evenodd" d="M11.3421 6.229C9.91046 6.229 9.73079 6.23526 9.16852 6.26085C8.60735 6.28655 8.2243 6.37539 7.88913 6.50575C7.54243 6.64039 7.24834 6.82049 6.95534 7.11359C6.66213 7.40659 6.48202 7.70069 6.34695 8.04727C6.21626 8.38255 6.12731 8.76571 6.10205 9.32666C6.0769 9.88893 6.07031 10.0687 6.07031 11.5003C6.07031 12.9319 6.07668 13.111 6.10216 13.6733C6.12797 14.2345 6.21681 14.6175 6.34706 14.9527C6.4818 15.2994 6.66191 15.5935 6.95501 15.8865C7.2479 16.1797 7.54199 16.3602 7.88847 16.4949C8.22386 16.6252 8.60702 16.7141 9.16808 16.7398C9.73035 16.7653 9.90991 16.7716 11.3414 16.7716C12.7731 16.7716 12.9522 16.7653 13.5145 16.7398C14.0757 16.7141 14.4591 16.6252 14.7945 16.4949C15.1411 16.3602 15.4348 16.1797 15.7277 15.8865C16.0209 15.5935 16.201 15.2994 16.3361 14.9528C16.4656 14.6175 16.5546 14.2344 16.581 13.6734C16.6062 13.1111 16.6128 12.9319 16.6128 11.5003C16.6128 10.0687 16.6062 9.88904 16.581 9.32677C16.5546 8.7656 16.4656 8.38255 16.3361 8.04738C16.201 7.70069 16.0209 7.40659 15.7277 7.11359C15.4345 6.82038 15.1412 6.64028 14.7942 6.50575C14.4582 6.37539 14.0749 6.28655 13.5137 6.26085C12.9514 6.23526 12.7724 6.229 11.3404 6.229H11.3421ZM10.8685 7.17965C11.0088 7.17943 11.1654 7.17965 11.3413 7.17965C12.7488 7.17965 12.9156 7.1847 13.4714 7.20996C13.9853 7.23346 14.2643 7.31934 14.4501 7.39149C14.6961 7.48703 14.8715 7.60124 15.0559 7.78574C15.2404 7.97023 15.3546 8.14594 15.4503 8.39194C15.5225 8.57753 15.6085 8.85647 15.6319 9.37042C15.6571 9.92611 15.6626 10.093 15.6626 11.4998C15.6626 12.9066 15.6571 13.0735 15.6319 13.6292C15.6084 14.1431 15.5225 14.4221 15.4503 14.6077C15.3548 14.8537 15.2404 15.0288 15.0559 15.2132C14.8714 15.3977 14.6962 15.5119 14.4501 15.6075C14.2645 15.68 13.9853 15.7656 13.4714 15.7891C12.9157 15.8144 12.7488 15.8199 11.3413 15.8199C9.9338 15.8199 9.76698 15.8144 9.2113 15.7891C8.69735 15.7654 8.41841 15.6795 8.23249 15.6074C7.98649 15.5118 7.81078 15.3976 7.62629 15.2131C7.44179 15.0286 7.32758 14.8533 7.23182 14.6072C7.15967 14.4216 7.07368 14.1427 7.05029 13.6288C7.02503 13.0731 7.01998 12.9061 7.01998 11.4985C7.01998 10.0908 7.02503 9.92479 7.05029 9.36911C7.07379 8.85515 7.15967 8.57621 7.23182 8.3904C7.32736 8.14441 7.44179 7.9687 7.62629 7.7842C7.81078 7.59971 7.98649 7.48549 8.23249 7.38973C8.4183 7.31725 8.69735 7.23159 9.2113 7.20798C9.69758 7.18602 9.88603 7.17943 10.8685 7.17833V7.17965ZM14.1568 8.05393C13.8076 8.05393 13.5243 8.33693 13.5243 8.68626C13.5243 9.03549 13.8076 9.31882 14.1568 9.31882C14.5061 9.31882 14.7894 9.03549 14.7894 8.68626C14.7894 8.33704 14.5061 8.05371 14.1568 8.05371V8.05393ZM11.3433 8.79401C9.8483 8.79401 8.63623 10.0061 8.63623 11.501C8.63623 12.996 9.8483 14.2075 11.3433 14.2075C12.8382 14.2075 14.0499 12.996 14.0499 11.501C14.0499 10.0061 12.8381 8.79401 11.3432 8.79401H11.3433ZM11.3423 9.74299C12.3127 9.74299 13.0994 10.5296 13.0994 11.5001C13.0994 12.4704 12.3127 13.2572 11.3423 13.2572C10.3718 13.2572 9.5852 12.4704 9.5852 11.5001C9.5852 10.5296 10.3718 9.74299 11.3423 9.74299V9.74299Z" fill="white"/>
<defs>
<linearGradient id="paint0_linear_12097_63615" x1="11.5" y1="33.6027" x2="11.5" y2="-10.3867" gradientUnits="userSpaceOnUse">
<stop stop-color="#E09B3D"/>
<stop offset="0.3" stop-color="#C74C4D"/>
<stop offset="0.6" stop-color="#C21975"/>
<stop offset="1" stop-color="#7024C4"/>
</linearGradient>
</defs>
</svg>
