<svg width="103" height="97" viewBox="0 0 103 97" fill="none" xmlns="http://www.w3.org/2000/svg">
<circle cx="54.3239" cy="48.7754" r="48" fill="url(#paint0_radial)"/>
<path d="M91.398 45.3024C91.5423 45.5442 91.5308 45.8581 91.4405 46.1258L88.5726 54.7044C88.4692 55.0339 88.1325 55.2919 87.8158 55.3792C87.7256 55.4041 87.4679 55.4557 87.3621 55.4558L83.1999 55.5744L87.9285 72.7199C88.0728 73.2433 87.8074 73.7244 87.275 73.8712L68.3246 79.0975C67.7922 79.2443 67.3177 78.9674 67.1733 78.444L62.4448 61.2984L59.2098 63.2296C58.8385 63.468 58.4418 63.4026 58.1191 63.1129L51.3003 57.2252C51.0822 57.0328 50.9649 56.7836 50.965 56.502C50.9535 56.2138 51.0932 55.9811 51.302 55.7876L59.863 48.416L64.375 47.1717C64.9074 47.0248 65.3794 47.2928 65.5262 47.8252C66.0389 49.6841 69.0102 50.2824 70.8691 49.7697C72.7281 49.257 75.0654 47.2044 74.5502 45.3365C74.4059 44.8131 74.6713 44.332 75.2037 44.1852L79.7157 42.9408L90.7209 44.8191C91.0084 44.8758 91.2511 45.0516 91.398 45.3024Z" fill="url(#paint1_linear)"/>
<path fill-rule="evenodd" clip-rule="evenodd" d="M33.0855 69.2438C36.1059 69.2533 39.9504 70.596 42.1117 73.2385C44.273 75.881 47.8505 76.1904 51.123 77.2942L50.7768 79.4473C48.0286 78.5165 42.6208 77.082 40.9696 75.0636C39.3226 73.0509 36.311 71.5534 33.2598 71.5465C30.4848 71.5385 30.2904 69.2351 33.0855 69.2438Z" fill="url(#paint2_linear)"/>
<path fill-rule="evenodd" clip-rule="evenodd" d="M38.545 37.3721C28.4287 35.7453 18.9121 42.5815 17.2948 52.6385C15.6775 62.6955 22.5714 72.1682 32.6877 73.795C42.8064 75.4222 52.3201 68.5881 53.9374 58.5311C55.5548 48.4741 48.6637 38.9993 38.545 37.3721ZM31.2467 43.3771C31.8953 43.4816 32.5171 43.7128 33.0764 44.0575C33.6356 44.4023 34.1216 44.8538 34.5064 45.3864C34.8911 45.9189 35.1673 46.522 35.319 47.1613C35.4707 47.8005 35.495 48.4634 35.3905 49.1121C35.286 49.7607 35.0548 50.3824 34.7101 50.9417C34.3653 51.501 33.9138 51.9869 33.3812 52.3717C32.8487 52.7565 32.2456 53.0326 31.6063 53.1843C30.967 53.336 30.3042 53.3604 29.6555 53.2559C28.3455 53.0449 27.173 52.3221 26.3958 51.2466C25.6187 50.1711 25.3007 48.8309 25.5117 47.5209C25.7227 46.2109 26.4455 45.0383 27.521 44.2612C28.5965 43.4841 29.9367 43.1661 31.2467 43.3771ZM27.673 65.5997C27.0243 65.4952 26.4026 65.264 25.8433 64.9193C25.284 64.5745 24.7981 64.123 24.4133 63.5904C24.0285 63.0579 23.7524 62.4548 23.6007 61.8155C23.449 61.1763 23.4247 60.5134 23.5292 59.8647C23.6336 59.2161 23.8649 58.5943 24.2096 58.0351C24.5544 57.4758 25.0059 56.9898 25.5385 56.6051C26.071 56.2203 26.6741 55.9441 27.3134 55.7924C27.9526 55.6407 28.6155 55.6164 29.2642 55.7209C30.5742 55.9319 31.7467 56.6547 32.5238 57.7302C33.3009 58.8057 33.619 60.1459 33.408 61.4559C33.197 62.7659 32.4742 63.9385 31.3987 64.7156C30.3232 65.4927 28.983 65.8107 27.673 65.5997ZM33.6741 55.2016C33.8548 54.0781 34.9392 53.3203 36.0898 53.5054C37.2454 53.6912 38.0376 54.7507 37.8569 55.8742C37.6766 56.9952 36.5918 57.7555 35.4362 57.5696C34.889 57.4884 34.3962 57.1935 34.0659 56.7497C33.7356 56.3058 33.5947 55.7491 33.6741 55.2016ZM40.0189 67.5851C39.3702 67.4806 38.7485 67.2494 38.1892 66.9047C37.6299 66.5599 37.144 66.1084 36.7592 65.5758C36.3744 65.0433 36.0983 64.4402 35.9466 63.8009C35.7949 63.1616 35.7706 62.4988 35.8751 61.8501C35.9796 61.2015 36.2108 60.5797 36.5555 60.0205C36.9003 59.4612 37.3518 58.9752 37.8844 58.5905C38.4169 58.2057 39.02 57.9295 39.6593 57.7778C40.2985 57.6261 40.9614 57.6018 41.6101 57.7063C42.9201 57.9173 44.0926 58.6401 44.8697 59.7156C45.6469 60.7911 45.9649 62.1313 45.7539 63.4413C45.5429 64.7513 44.8201 65.9238 43.7446 66.701C42.6691 67.4781 41.3289 67.7961 40.0189 67.5851ZM42.0043 55.2392C41.3556 55.1347 40.7339 54.9035 40.1746 54.5587C39.6153 54.214 39.1294 53.7625 38.7446 53.2299C38.3598 52.6974 38.0837 52.0943 37.932 51.455C37.7803 50.8157 37.756 50.1529 37.8605 49.5042C37.965 48.8556 38.1962 48.2338 38.5409 47.6745C38.8857 47.1152 39.3372 46.6293 39.8698 46.2445C40.4023 45.8598 41.0054 45.5836 41.6447 45.4319C42.2839 45.2802 42.9468 45.2559 43.5955 45.3604C44.9055 45.5714 46.078 46.2942 46.8551 47.3697C47.6322 48.4452 47.9503 49.7854 47.7393 51.0954C47.5283 52.4054 46.8055 53.5779 45.73 54.355C44.6545 55.1322 43.3143 55.4502 42.0043 55.2392Z" fill="url(#paint3_linear)"/>
<g filter="url(#filter0_d)">
<circle cx="40.5737" cy="62.8657" r="5.00519" transform="rotate(33.4336 40.5737 62.8657)" stroke="url(#paint4_linear)"/>
</g>
<g filter="url(#filter1_d)">
<circle cx="28.7119" cy="60.8501" r="5.00519" transform="rotate(33.4336 28.7119 60.8501)" stroke="url(#paint5_linear)"/>
</g>
<g filter="url(#filter2_d)">
<circle cx="42.4058" cy="50.1005" r="5.00519" transform="rotate(43.8917 42.4058 50.1005)" stroke="url(#paint6_linear)"/>
</g>
<g filter="url(#filter3_d)">
<circle cx="35.7239" cy="55.4243" r="2.61524" transform="rotate(43.8917 35.7239 55.4243)" stroke="url(#paint7_linear)"/>
</g>
<g filter="url(#filter4_d)">
<circle cx="30.1824" cy="48.6263" r="5.00519" transform="rotate(50.372 30.1824 48.6263)" stroke="url(#paint8_linear)"/>
</g>
<circle cx="35.7238" cy="55.4231" r="18.0609" transform="rotate(33.4336 35.7238 55.4231)" stroke="url(#paint9_linear)"/>
<path d="M73.6249 29.8468C75.5012 21.9709 74.9747 17.0262 71.9653 14.2858C71.3321 13.7111 70.6187 13.2315 69.8476 12.8619C68.8306 12.3687 67.8248 12.1869 66.7605 11.9951C65.4779 11.7643 64.0209 11.5021 62.1509 10.5951C60.2809 9.68821 59.1718 8.70681 58.1942 7.84145C57.3843 7.1234 56.6195 6.44646 55.6055 5.95468C54.8112 5.56606 53.9668 5.28973 53.0964 5.13363C49.1019 4.47174 44.8951 7.11905 39.8481 13.46C34.4182 20.2841 32.9186 25.528 35.6155 28.2213C35.9838 28.5934 36.412 28.9008 36.8823 29.1308C39.1024 30.2075 41.7796 29.2217 43.7303 28.2977C45.9359 27.2508 47.9664 27.1618 52.9452 29.5764C57.3921 31.7331 58.94 33.2288 59.5695 35.9795C59.965 37.7088 60.4869 39.0376 61.1631 40.0427C62.0627 41.3787 63.2364 42.1477 64.6547 42.3197C66.8869 42.5951 68.8226 41.3999 70.4094 38.7665C71.6246 36.7464 72.6767 33.829 73.6249 29.8468ZM53.41 19.5499L51.0363 18.3987L49.8851 20.7724C49.7324 21.0871 49.461 21.3284 49.1304 21.443C48.7999 21.5576 48.4374 21.5363 48.1226 21.3836C47.8079 21.2309 47.5666 20.9595 47.452 20.629C47.3374 20.2984 47.3587 19.9359 47.5114 19.6212L48.6626 17.2475L46.2889 16.0963C45.9742 15.9436 45.7329 15.6722 45.6183 15.3416C45.5037 15.0111 45.525 14.6486 45.6777 14.3338C45.8303 14.0191 46.1018 13.7778 46.4323 13.6632C46.7628 13.5486 47.1254 13.5699 47.4401 13.7226L49.8138 14.8738L50.965 12.5001C51.1177 12.1853 51.3891 11.9441 51.7196 11.8295C52.0502 11.7149 52.4127 11.7362 52.7275 11.8889C53.0422 12.0415 53.2835 12.313 53.3981 12.6435C53.5127 12.974 53.4914 13.3366 53.3387 13.6513L52.1875 16.025L54.5612 17.1762C54.8759 17.3289 55.1172 17.6003 55.2318 17.9308C55.3464 18.2614 55.3251 18.6239 55.1724 18.9387C55.0197 19.2534 54.7483 19.4947 54.4178 19.6093C54.0873 19.7239 53.7247 19.7026 53.41 19.5499ZM59.497 22.8685C59.2036 22.7262 58.9589 22.5001 58.794 22.2188C58.6291 21.9374 58.5513 21.6135 58.5705 21.288C58.5897 20.9624 58.705 20.6499 58.9018 20.3899C59.0986 20.1298 59.3681 19.934 59.6762 19.8272C59.9843 19.7203 60.3172 19.7072 60.6327 19.7896C60.9483 19.8719 61.2323 20.0459 61.4489 20.2897C61.6656 20.5335 61.805 20.836 61.8497 21.159C61.8944 21.482 61.8423 21.8111 61.7 22.1045C61.5092 22.4979 61.1699 22.7995 60.7567 22.9428C60.3436 23.0861 59.8904 23.0593 59.497 22.8685ZM61.1779 27.7152C60.8843 27.5729 60.6396 27.3466 60.4747 27.065C60.3097 26.7835 60.2321 26.4594 60.2515 26.1337C60.2709 25.808 60.3865 25.4953 60.5836 25.2354C60.7808 24.9754 61.0507 24.7798 61.3591 24.6732C61.6675 24.5667 62.0005 24.5541 62.3161 24.6369C62.6317 24.7198 62.9156 24.8944 63.1319 25.1387C63.3482 25.383 63.4871 25.686 63.5311 26.0093C63.5751 26.3326 63.5222 26.6617 63.3791 26.9549C63.1876 27.3473 62.8483 27.6476 62.4357 27.7902C62.023 27.9327 61.5707 27.9058 61.1779 27.7152ZM64.3437 21.1876C64.0503 21.0453 63.8056 20.8192 63.6407 20.5379C63.4758 20.2565 63.398 19.9326 63.4172 19.6071C63.4364 19.2815 63.5517 18.969 63.7485 18.709C63.9453 18.4489 64.2148 18.2531 64.5229 18.1463C64.831 18.0394 65.1639 18.0263 65.4795 18.1087C65.795 18.191 66.079 18.365 66.2957 18.6088C66.5123 18.8526 66.6518 19.1551 66.6965 19.4781C66.7412 19.8011 66.6891 20.1302 66.5467 20.4236C66.3559 20.817 66.0166 21.1186 65.6035 21.2619C65.1903 21.4052 64.7372 21.3784 64.3437 21.1876ZM66.0246 26.0343C65.7312 25.892 65.4865 25.6659 65.3216 25.3846C65.1567 25.1033 65.0789 24.7793 65.0981 24.4538C65.1173 24.1282 65.2326 23.8157 65.4294 23.5557C65.6262 23.2957 65.8957 23.0999 66.2038 22.993C66.5119 22.8861 66.8448 22.8731 67.1604 22.9554C67.4759 23.0377 67.7599 23.2118 67.9766 23.4555C68.1932 23.6993 68.3327 24.0018 68.3774 24.3248C68.4221 24.6479 68.37 24.9769 68.2276 25.2703C68.0368 25.6638 67.6975 25.9653 67.2844 26.1086C66.8712 26.2519 66.4181 26.2252 66.0246 26.0343Z" fill="url(#paint10_linear)"/>
<path d="M53.5264 19.2561L51.1527 18.1049L50.0015 20.4786C49.8488 20.7934 49.5774 21.0346 49.2468 21.1492C48.9163 21.2639 48.5538 21.2425 48.239 21.0898C47.9243 20.9372 47.683 20.6657 47.5684 20.3352C47.4538 20.0047 47.4751 19.6422 47.6278 19.3274L48.779 16.9537L46.4053 15.8025C46.0905 15.6498 45.8493 15.3784 45.7347 15.0479C45.6201 14.7173 45.6414 14.3548 45.7941 14.0401C45.9467 13.7253 46.2182 13.484 46.5487 13.3694C46.8792 13.2548 47.2418 13.2762 47.5565 13.4288L49.9302 14.58L51.0814 12.2063C51.2341 11.8916 51.5055 11.6503 51.836 11.5357C52.1666 11.4211 52.5291 11.4424 52.8439 11.5951C53.1586 11.7478 53.3999 12.0192 53.5145 12.3497C53.6291 12.6803 53.6078 13.0428 53.4551 13.3576L52.3039 15.7312L54.6776 16.8824C54.9923 17.0351 55.2336 17.3065 55.3482 17.6371C55.4628 17.9676 55.4415 18.3301 55.2888 18.6449C55.1361 18.9597 54.8647 19.2009 54.5342 19.3155C54.2037 19.4301 53.8411 19.4088 53.5264 19.2561ZM61.2943 27.4215C61.0007 27.2791 60.756 27.0528 60.5911 26.7713C60.4261 26.4897 60.3485 26.1656 60.3679 25.8399C60.3873 25.5142 60.5029 25.2016 60.7 24.9416C60.8972 24.6816 61.1671 24.486 61.4755 24.3795C61.7839 24.2729 62.1169 24.2603 62.4325 24.3432C62.7481 24.426 63.032 24.6007 63.2483 24.845C63.4646 25.0893 63.6035 25.3922 63.6475 25.7155C63.6915 26.0388 63.6386 26.3679 63.4955 26.6611C63.304 27.0535 62.9647 27.3539 62.5521 27.4964C62.1394 27.6389 61.6871 27.612 61.2943 27.4215Z" fill="url(#paint11_linear)"/>
<path d="M65.437 25.0915C65.6019 25.3729 65.8466 25.599 66.14 25.7413C66.5335 25.9321 66.9866 25.9588 67.3998 25.8155C67.8129 25.6723 68.1522 25.3707 68.3431 24.9772C68.4854 24.6838 68.5375 24.3548 68.4928 24.0318C68.4481 23.7087 68.3086 23.4062 68.092 23.1625C67.8753 22.9187 67.5913 22.7447 67.2758 22.6623C66.9602 22.58 66.6273 22.5931 66.3192 22.6999C66.0111 22.8068 65.7416 23.0026 65.5448 23.2626C65.348 23.5227 65.2327 23.8352 65.2135 24.1607C65.1944 24.4863 65.2721 24.8102 65.437 25.0915Z" fill="#1F2337"/>
<path d="M63.7576 20.2439C63.9225 20.5252 64.1671 20.7513 64.4606 20.8936C64.854 21.0845 65.3072 21.1112 65.7203 20.9679C66.1335 20.8246 66.4728 20.5231 66.6636 20.1296C66.8059 19.8362 66.858 19.5071 66.8133 19.1841C66.7686 18.8611 66.6292 18.5586 66.4125 18.3148C66.1959 18.071 65.9119 17.897 65.5963 17.8147C65.2808 17.7323 64.9479 17.7454 64.6398 17.8523C64.3317 17.9591 64.0622 18.155 63.8654 18.415C63.6686 18.675 63.5533 18.9875 63.5341 19.3131C63.5149 19.6386 63.5927 19.9625 63.7576 20.2439Z" fill="#F52079"/>
<path d="M58.9106 21.9255C59.0755 22.2069 59.3201 22.433 59.6135 22.5753C60.007 22.7661 60.4601 22.7928 60.8733 22.6495C61.2864 22.5062 61.6257 22.2047 61.8166 21.8112C61.9589 21.5178 62.011 21.1888 61.9663 20.8658C61.9216 20.5427 61.7821 20.2402 61.5655 19.9964C61.3489 19.7527 61.0648 19.5786 60.7493 19.4963C60.4337 19.414 60.1009 19.4271 59.7928 19.5339C59.4847 19.6408 59.2152 19.8366 59.0183 20.0966C58.8215 20.3566 58.7062 20.6692 58.687 20.9947C58.6679 21.3203 58.7456 21.6442 58.9106 21.9255Z" fill="#00CC9E"/>
<path d="M80.5651 44.2051C80.406 45.8319 80.6363 50.1845 82.8306 54.581" stroke="#FF4E98" stroke-linecap="round"/>
<path d="M64.2835 47.9655C65.7454 52.8172 75.898 51.8632 75.442 45.089" stroke="#BF2169" stroke-linecap="round"/>
<path opacity="0.5" d="M60.1919 49.796C60.8165 51.2188 62.1793 55.1672 62.6334 59.5784" stroke="#DD2172" stroke-linecap="round"/>
<defs>
<filter id="filter0_d" x="31.9463" y="54.4383" width="17.2548" height="17.2548" filterUnits="userSpaceOnUse" color-interpolation-filters="sRGB">
<feFlood flood-opacity="0" result="BackgroundImageFix"/>
<feColorMatrix in="SourceAlpha" type="matrix" values="0 0 0 0 0 0 0 0 0 0 0 0 0 0 0 0 0 0 127 0"/>
<feOffset dy="0.2"/>
<feGaussianBlur stdDeviation="0.5"/>
<feColorMatrix type="matrix" values="0 0 0 0 0.441667 0 0 0 0 0.207951 0 0 0 0 0.207951 0 0 0 0.7 0"/>
<feBlend mode="normal" in2="BackgroundImageFix" result="effect1_dropShadow"/>
<feBlend mode="normal" in="SourceGraphic" in2="effect1_dropShadow" result="shape"/>
</filter>
<filter id="filter1_d" x="20.0845" y="52.4227" width="17.2548" height="17.2548" filterUnits="userSpaceOnUse" color-interpolation-filters="sRGB">
<feFlood flood-opacity="0" result="BackgroundImageFix"/>
<feColorMatrix in="SourceAlpha" type="matrix" values="0 0 0 0 0 0 0 0 0 0 0 0 0 0 0 0 0 0 127 0"/>
<feOffset dy="0.2"/>
<feGaussianBlur stdDeviation="0.5"/>
<feColorMatrix type="matrix" values="0 0 0 0 0.441667 0 0 0 0 0.207951 0 0 0 0 0.207951 0 0 0 0.7 0"/>
<feBlend mode="normal" in2="BackgroundImageFix" result="effect1_dropShadow"/>
<feBlend mode="normal" in="SourceGraphic" in2="effect1_dropShadow" result="shape"/>
</filter>
<filter id="filter2_d" x="33.6218" y="41.5164" width="17.5681" height="17.5681" filterUnits="userSpaceOnUse" color-interpolation-filters="sRGB">
<feFlood flood-opacity="0" result="BackgroundImageFix"/>
<feColorMatrix in="SourceAlpha" type="matrix" values="0 0 0 0 0 0 0 0 0 0 0 0 0 0 0 0 0 0 127 0"/>
<feOffset dy="0.2"/>
<feGaussianBlur stdDeviation="0.5"/>
<feColorMatrix type="matrix" values="0 0 0 0 0.441667 0 0 0 0 0.207951 0 0 0 0 0.207951 0 0 0 0.7 0"/>
<feBlend mode="normal" in2="BackgroundImageFix" result="effect1_dropShadow"/>
<feBlend mode="normal" in="SourceGraphic" in2="effect1_dropShadow" result="shape"/>
</filter>
<filter id="filter3_d" x="30.3191" y="50.2195" width="10.8096" height="10.8096" filterUnits="userSpaceOnUse" color-interpolation-filters="sRGB">
<feFlood flood-opacity="0" result="BackgroundImageFix"/>
<feColorMatrix in="SourceAlpha" type="matrix" values="0 0 0 0 0 0 0 0 0 0 0 0 0 0 0 0 0 0 127 0"/>
<feOffset dy="0.2"/>
<feGaussianBlur stdDeviation="0.5"/>
<feColorMatrix type="matrix" values="0 0 0 0 0.441667 0 0 0 0 0.207951 0 0 0 0 0.207951 0 0 0 0.7 0"/>
<feBlend mode="normal" in2="BackgroundImageFix" result="effect1_dropShadow"/>
<feBlend mode="normal" in="SourceGraphic" in2="effect1_dropShadow" result="shape"/>
</filter>
<filter id="filter4_d" x="21.431" y="40.075" width="17.5026" height="17.5026" filterUnits="userSpaceOnUse" color-interpolation-filters="sRGB">
<feFlood flood-opacity="0" result="BackgroundImageFix"/>
<feColorMatrix in="SourceAlpha" type="matrix" values="0 0 0 0 0 0 0 0 0 0 0 0 0 0 0 0 0 0 127 0"/>
<feOffset dy="0.2"/>
<feGaussianBlur stdDeviation="0.5"/>
<feColorMatrix type="matrix" values="0 0 0 0 0.441667 0 0 0 0 0.207951 0 0 0 0 0.207951 0 0 0 0.7 0"/>
<feBlend mode="normal" in2="BackgroundImageFix" result="effect1_dropShadow"/>
<feBlend mode="normal" in="SourceGraphic" in2="effect1_dropShadow" result="shape"/>
</filter>
<radialGradient id="paint0_radial" cx="0" cy="0" r="1" gradientUnits="userSpaceOnUse" gradientTransform="translate(54.3239 48.7754) rotate(90) scale(48)">
<stop stop-color="#47526A"/>
<stop offset="1" stop-color="#1F2337"/>
</radialGradient>
<linearGradient id="paint1_linear" x1="77.6037" y1="49.7836" x2="35.9374" y2="56.6951" gradientUnits="userSpaceOnUse">
<stop stop-color="#F52079"/>
<stop offset="1" stop-color="#F52079" stop-opacity="0"/>
</linearGradient>
<linearGradient id="paint2_linear" x1="41.6338" y1="70.4796" x2="40.4585" y2="77.788" gradientUnits="userSpaceOnUse">
<stop stop-color="#F29201"/>
<stop offset="1" stop-color="#B85800"/>
</linearGradient>
<linearGradient id="paint3_linear" x1="35.6162" y1="55.5836" x2="35.6162" y2="85.7701" gradientUnits="userSpaceOnUse">
<stop stop-color="#F29201"/>
<stop offset="1" stop-color="#B85800"/>
</linearGradient>
<linearGradient id="paint4_linear" x1="40.5737" y1="57.3605" x2="40.5737" y2="68.3709" gradientUnits="userSpaceOnUse">
<stop stop-color="#FFED8E"/>
<stop offset="0.0989583" stop-color="#FFA829"/>
<stop offset="1" stop-color="#C36301"/>
</linearGradient>
<linearGradient id="paint5_linear" x1="28.7119" y1="55.3449" x2="28.7119" y2="66.3553" gradientUnits="userSpaceOnUse">
<stop stop-color="#FFED8E"/>
<stop offset="0.0989583" stop-color="#FFA829"/>
<stop offset="1" stop-color="#C36301"/>
</linearGradient>
<linearGradient id="paint6_linear" x1="42.4058" y1="44.5953" x2="42.4058" y2="55.6057" gradientUnits="userSpaceOnUse">
<stop stop-color="#FFED8E"/>
<stop offset="0.0989583" stop-color="#FFA829"/>
<stop offset="1" stop-color="#C36301"/>
</linearGradient>
<linearGradient id="paint7_linear" x1="35.7239" y1="52.3091" x2="35.7239" y2="58.5396" gradientUnits="userSpaceOnUse">
<stop stop-color="#FFED8E"/>
<stop offset="0.0989583" stop-color="#FFA829"/>
<stop offset="1" stop-color="#C36301"/>
</linearGradient>
<linearGradient id="paint8_linear" x1="30.1824" y1="43.1211" x2="30.1824" y2="54.1315" gradientUnits="userSpaceOnUse">
<stop stop-color="#FFED8E"/>
<stop offset="0.0989583" stop-color="#FFA829"/>
<stop offset="1" stop-color="#C36301"/>
</linearGradient>
<linearGradient id="paint9_linear" x1="43.2595" y1="39.3424" x2="35.7238" y2="73.9839" gradientUnits="userSpaceOnUse">
<stop stop-color="#FFD79C"/>
<stop offset="0.145833" stop-color="#FFA829"/>
<stop offset="1" stop-color="#C36301"/>
</linearGradient>
<linearGradient id="paint10_linear" x1="62.7281" y1="9.40896" x2="50.063" y2="35.5232" gradientUnits="userSpaceOnUse">
<stop stop-color="#4048FF"/>
<stop offset="1" stop-color="#9698D2"/>
</linearGradient>
<linearGradient id="paint11_linear" x1="50.3183" y1="11.6749" x2="43.3527" y2="18.806" gradientUnits="userSpaceOnUse">
<stop stop-color="white"/>
<stop offset="1" stop-color="#DEDEDE"/>
</linearGradient>
</defs>
</svg>
