<svg width="27" height="27" viewBox="0 0 27 27" fill="none" xmlns="http://www.w3.org/2000/svg">
<circle cx="13.7344" cy="13.9805" r="12" stroke="#4048FF" stroke-width="2"/>
<path d="M13.639 17.5625C13.288 17.5625 12.9881 17.674 12.7399 17.8963C12.4919 18.1185 12.3672 18.3876 12.3672 18.7048C12.3672 19.0622 12.4927 19.3427 12.7433 19.5468C12.9946 19.7509 13.2873 19.8539 13.6218 19.8539C13.9619 19.8539 14.2587 19.7524 14.5126 19.5511C14.7663 19.3488 14.8931 19.067 14.8931 18.7046C14.8931 18.3874 14.7719 18.1183 14.5292 17.8961C14.2865 17.6741 13.9902 17.5625 13.6385 17.5625" fill="#4048FF"/>
<path d="M17.2242 9.69756C16.9013 9.20744 16.4398 8.81548 15.8517 8.53148C15.2669 8.25007 14.5857 8.10742 13.8266 8.10742C13.0093 8.10742 12.2818 8.2783 11.6655 8.61545C11.0484 8.95315 10.5715 9.38644 10.2482 9.90313C9.92346 10.4224 9.7583 10.9447 9.7583 11.4558C9.7583 11.7284 9.87197 11.9828 10.0949 12.2117C10.3189 12.442 10.5976 12.5584 10.9231 12.5584C11.4785 12.5584 11.857 12.2325 12.0497 11.5933C12.2252 11.0646 12.4416 10.6614 12.6919 10.3942C12.9273 10.1425 13.3093 10.0148 13.8266 10.0148C14.2728 10.0148 14.6249 10.1399 14.9042 10.3977C15.1794 10.652 15.3134 10.955 15.3134 11.3241C15.3134 11.5104 15.2698 11.6778 15.1825 11.8361C15.0897 12.0022 14.974 12.1548 14.8387 12.2906C14.6957 12.4338 14.4597 12.6488 14.1371 12.9315C13.7614 13.2609 13.4582 13.5494 13.2375 13.7889C13.0069 14.0378 12.8199 14.3305 12.6802 14.6584C12.5407 14.9886 12.4699 15.3825 12.4699 15.83C12.4699 16.2118 12.5763 16.5075 12.7867 16.7088C12.9949 16.9081 13.2541 17.0096 13.5577 17.0096C14.1381 17.0096 14.5027 16.6924 14.6112 16.0989C14.6662 15.8522 14.7079 15.6798 14.7356 15.5818C14.7607 15.4927 14.797 15.4012 14.8437 15.3098C14.8891 15.2209 14.9609 15.1201 15.0578 15.01C15.1587 14.8935 15.2951 14.757 15.4623 14.6044C16.0877 14.0452 16.5289 13.6407 16.7736 13.4012C17.026 13.1545 17.2462 12.8575 17.428 12.5195C17.6151 12.1735 17.7099 11.7658 17.7099 11.3091C17.7103 10.7313 17.5462 10.1886 17.2233 9.69682" fill="#4048FF"/>
</svg>
