<svg width="33" height="38" viewBox="0 0 33 38" fill="none" xmlns="http://www.w3.org/2000/svg">
<path d="M20.5205 2.03296V9.62896C20.5205 10.1326 20.7416 10.6156 21.1352 10.9718C21.5287 11.3279 22.0625 11.528 22.6191 11.528H31.0134" stroke="#ADADC8" stroke-width="3" stroke-linecap="round" stroke-linejoin="round"/>
<path d="M26.8163 36.2147H5.83047C4.71732 36.2147 3.64975 35.8146 2.86262 35.1023C2.0755 34.39 1.6333 33.424 1.6333 32.4167V5.83072C1.6333 4.82342 2.0755 3.85739 2.86262 3.14512C3.64975 2.43286 4.71732 2.03271 5.83047 2.03271H20.5206L31.0135 11.5277V32.4167C31.0135 33.424 30.5713 34.39 29.7842 35.1023C28.9971 35.8146 27.9295 36.2147 26.8163 36.2147Z" stroke="#ADADC8" stroke-width="3" stroke-linecap="round" stroke-linejoin="round"/>
<path d="M10.0278 9.62866H12.1264" stroke="#ADADC8" stroke-width="3" stroke-linecap="round" stroke-linejoin="round"/>
<path d="M10.0278 21.0229H22.6194" stroke="#ADADC8" stroke-width="3" stroke-linecap="round" stroke-linejoin="round"/>
<path d="M10.0278 16.77H22.6194" stroke="#ADADC8" stroke-width="3" stroke-linecap="round" stroke-linejoin="round"/>
<path d="M10.0278 25.3665H22.6194" stroke="#ADADC8" stroke-width="3" stroke-linecap="round" stroke-linejoin="round"/>
<path d="M18.4219 29.614H22.619" stroke="#ADADC8" stroke-width="3" stroke-linecap="round" stroke-linejoin="round"/>
</svg>
