<svg width="32" height="33" viewBox="0 0 32 33" fill="none" xmlns="http://www.w3.org/2000/svg">
<circle cx="16" cy="16.8242" r="16" fill="#F52079"/>
<path d="M18.963 8.82422C16.1778 8.82422 13.9259 11.0761 13.9259 13.8612C13.9259 14.4538 14.0444 15.0464 14.2222 15.639L8 21.8613V24.8242H10.963V23.0464H12.7407V21.2687H14.5185L17.1852 18.602C17.7185 18.7798 18.3111 18.8983 18.963 18.8983C21.7482 18.8983 24 16.6464 24 13.8613C24 11.0761 21.7482 8.82422 18.963 8.82422ZM20.4445 14.1576C19.437 14.1576 18.6667 13.3872 18.6667 12.3798C18.6667 11.3724 19.437 10.602 20.4445 10.602C21.4519 10.602 22.2222 11.3724 22.2222 12.3798C22.2222 13.3872 21.4519 14.1576 20.4445 14.1576Z" fill="white"/>
</svg>
