<svg width="41" height="41" viewBox="0 0 41 41" fill="none" xmlns="http://www.w3.org/2000/svg">
<circle cx="20.5439" cy="20.8027" r="20" fill="#FFA318"/>
<path d="M24.4237 10.3257C20.7762 10.3257 17.8271 13.2748 17.8271 16.9223C17.8271 17.6984 17.9823 18.4744 18.2151 19.2505L10.0664 27.3993V31.2796H13.9468V28.9514H16.275V26.6232H18.6032L22.0955 23.1309C22.794 23.3637 23.5701 23.5189 24.4237 23.5189C28.0713 23.5189 31.0203 20.5698 31.0203 16.9223C31.0203 13.2748 28.0713 10.3257 24.4237 10.3257ZM26.3639 17.3103C25.0446 17.3103 24.0357 16.3015 24.0357 14.9821C24.0357 13.6628 25.0446 12.6539 26.3639 12.6539C27.6833 12.6539 28.6922 13.6628 28.6922 14.9821C28.6922 16.3015 27.6833 17.3103 26.3639 17.3103Z" fill="white"/>
</svg>
