<svg width="36" height="35" viewBox="0 0 36 35" fill="none" xmlns="http://www.w3.org/2000/svg">
<path d="M20.8711 13.0545C20.8707 14.148 21.7066 14.9845 22.8001 14.9848C23.8936 14.9852 24.73 14.1493 24.7304 13.0558C24.7308 11.9623 23.8949 11.1259 22.8014 11.1255C21.7079 11.1251 20.8714 11.961 20.8711 13.0545Z" fill="#D6D6E8"/>
<path fill-rule="evenodd" clip-rule="evenodd" d="M17.969 34.9555C27.4008 34.9588 35.0494 27.3154 35.0527 17.8836C35.056 8.45179 27.4126 0.803145 17.9808 0.799872C8.54901 0.796599 0.900362 8.43994 0.897089 17.8718C0.893816 27.3036 8.53716 34.9522 17.969 34.9555ZM15.7247 14.6608C15.7258 11.6376 18.1709 9.19423 21.194 9.19527C24.2172 9.19632 26.6605 11.6415 26.6595 14.6646C26.6584 17.6877 24.2134 20.1311 21.1902 20.1301C20.4827 20.1298 19.8395 20.001 19.2607 19.8078L16.3652 22.7013L14.4355 22.7006L14.4348 24.6303L12.5051 24.6296L12.5045 26.5593L9.28836 26.5582L9.28948 23.3421L16.0457 16.5905C15.8529 15.9472 15.7245 15.304 15.7247 14.6608Z" fill="#D6D6E8"/>
</svg>
