<svg width="241" height="244" viewBox="0 0 241 244" fill="none" xmlns="http://www.w3.org/2000/svg">
<g opacity="0.6">
<rect opacity="0.3" width="241" height="244" fill="#D6D6E8"/>
</g>
<path d="M153.334 85.6673V135.667H103.333V85.6673H153.334ZM153.334 77.334H103.333C98.7502 77.334 95.0002 81.084 95.0002 85.6673V135.667C95.0002 140.251 98.7502 144.001 103.333 144.001H153.334C157.917 144.001 161.667 140.251 161.667 135.667V85.6673C161.667 81.084 157.917 77.334 153.334 77.334ZM117.917 117.626L124.958 127.042L135.292 114.126L149.167 131.501H107.5L117.917 117.626ZM78.3335 94.0007V152.334C78.3335 156.917 82.0835 160.667 86.6668 160.667H145V152.334H86.6668V94.0007H78.3335Z" fill="#ADADC8"/>
</svg>
