<svg width="244" height="244" viewBox="0 0 244 244" fill="none" xmlns="http://www.w3.org/2000/svg">
<rect width="241" height="244" fill="#323754"/>
<path d="M164.217 74.125H154.875V64.7825C154.875 62.285 152.84 60.25 150.342 60.25H150.204C147.66 60.25 145.625 62.285 145.625 64.7825V74.125H136.329C133.831 74.125 131.796 76.16 131.75 78.6575V78.7963C131.75 81.34 133.785 83.375 136.329 83.375H145.625V92.6712C145.625 95.1688 147.66 97.25 150.204 97.2038H150.342C152.84 97.2038 154.875 95.1688 154.875 92.6712V83.375H164.217C166.715 83.375 168.75 81.34 168.75 78.8425V78.6575C168.75 76.16 166.715 74.125 164.217 74.125ZM141 92.6712V88H136.329C133.877 88 131.565 87.0287 129.807 85.3175C128.096 83.56 127.125 81.2475 127.125 78.6575C127.125 76.9925 127.588 75.4663 128.374 74.125H90.125C85.0375 74.125 80.875 78.2875 80.875 83.375V138.875C80.875 143.963 85.0375 148.125 90.125 148.125H145.625C150.713 148.125 154.875 143.963 154.875 138.875V100.58C153.488 101.366 151.915 101.875 150.158 101.875C147.728 101.851 145.406 100.872 143.693 99.1497C141.979 97.4276 141.012 95.1005 141 92.6712ZM140.815 138.875H94.75C94.3205 138.875 93.8996 138.755 93.5342 138.53C93.1689 138.304 92.8737 137.981 92.6816 137.597C92.4896 137.213 92.4083 136.783 92.4468 136.355C92.4854 135.927 92.6423 135.519 92.9 135.175L102.057 123.011C103.029 121.716 104.925 121.809 105.85 123.104L113.25 134.25L125.321 118.155C126.246 116.953 128.05 116.906 128.975 118.109L142.619 135.129C143.821 136.655 142.757 138.875 140.815 138.875Z" fill="white"/>
<path d="M50.5303 201.264C50.9463 201.264 51.3169 201.195 51.6423 201.056C51.9729 200.917 52.2503 200.723 52.4743 200.472C52.6983 200.221 52.8689 199.917 52.9863 199.56C53.1089 199.203 53.1703 198.803 53.1703 198.36V191.432H55.3223V198.36C55.3223 199.048 55.2103 199.685 54.9863 200.272C54.7676 200.853 54.4503 201.357 54.0343 201.784C53.6236 202.205 53.1223 202.536 52.5303 202.776C51.9383 203.011 51.2716 203.128 50.5303 203.128C49.7836 203.128 49.1143 203.011 48.5223 202.776C47.9303 202.536 47.4263 202.205 47.0103 201.784C46.5996 201.357 46.2823 200.853 46.0583 200.272C45.8396 199.685 45.7303 199.048 45.7303 198.36V191.432H47.8823V198.352C47.8823 198.795 47.9409 199.195 48.0583 199.552C48.1809 199.909 48.3543 200.216 48.5783 200.472C48.8076 200.723 49.0849 200.917 49.4103 201.056C49.7409 201.195 50.1143 201.264 50.5303 201.264ZM59.6276 200.872C59.8516 201.144 60.0943 201.336 60.3556 201.448C60.6223 201.56 60.9103 201.616 61.2196 201.616C61.5183 201.616 61.7876 201.56 62.0276 201.448C62.2676 201.336 62.4703 201.165 62.6356 200.936C62.8063 200.707 62.937 200.419 63.0276 200.072C63.1183 199.72 63.1636 199.307 63.1636 198.832C63.1636 198.352 63.1236 197.947 63.0436 197.616C62.969 197.28 62.8596 197.008 62.7156 196.8C62.5716 196.592 62.3956 196.44 62.1876 196.344C61.985 196.248 61.753 196.2 61.4916 196.2C61.081 196.2 60.7316 196.288 60.4436 196.464C60.1556 196.635 59.8836 196.877 59.6276 197.192V200.872ZM59.5236 195.912C59.8596 195.533 60.241 195.227 60.6676 194.992C61.0943 194.757 61.5956 194.64 62.1716 194.64C62.6196 194.64 63.0276 194.733 63.3956 194.92C63.769 195.107 64.089 195.379 64.3556 195.736C64.6276 196.088 64.8356 196.525 64.9796 197.048C65.129 197.565 65.2036 198.16 65.2036 198.832C65.2036 199.445 65.121 200.013 64.9556 200.536C64.7903 201.059 64.553 201.512 64.2436 201.896C63.9396 202.28 63.569 202.581 63.1316 202.8C62.6996 203.013 62.2143 203.12 61.6756 203.12C61.217 203.12 60.825 203.051 60.4996 202.912C60.1743 202.768 59.8836 202.571 59.6276 202.32V205.68H57.6516V194.792H58.8596C59.1156 194.792 59.2836 194.912 59.3636 195.152L59.5236 195.912ZM69.2254 191.112V203H67.2494V191.112H69.2254ZM75.3061 194.664C75.9141 194.664 76.4661 194.763 76.9621 194.96C77.4635 195.157 77.8901 195.437 78.2421 195.8C78.5995 196.163 78.8741 196.605 79.0661 197.128C79.2581 197.651 79.3541 198.235 79.3541 198.88C79.3541 199.531 79.2581 200.117 79.0661 200.64C78.8741 201.163 78.5995 201.608 78.2421 201.976C77.8901 202.344 77.4635 202.627 76.9621 202.824C76.4661 203.021 75.9141 203.12 75.3061 203.12C74.6928 203.12 74.1355 203.021 73.6341 202.824C73.1328 202.627 72.7035 202.344 72.3461 201.976C71.9941 201.608 71.7195 201.163 71.5221 200.64C71.3301 200.117 71.2341 199.531 71.2341 198.88C71.2341 198.235 71.3301 197.651 71.5221 197.128C71.7195 196.605 71.9941 196.163 72.3461 195.8C72.7035 195.437 73.1328 195.157 73.6341 194.96C74.1355 194.763 74.6928 194.664 75.3061 194.664ZM75.3061 201.6C75.9888 201.6 76.4928 201.371 76.8181 200.912C77.1488 200.453 77.3141 199.781 77.3141 198.896C77.3141 198.011 77.1488 197.336 76.8181 196.872C76.4928 196.408 75.9888 196.176 75.3061 196.176C74.6128 196.176 74.0981 196.411 73.7621 196.88C73.4315 197.344 73.2661 198.016 73.2661 198.896C73.2661 199.776 73.4315 200.448 73.7621 200.912C74.0981 201.371 74.6128 201.6 75.3061 201.6ZM85.6776 199.496C85.107 199.523 84.627 199.573 84.2376 199.648C83.8483 199.717 83.5363 199.808 83.3016 199.92C83.067 200.032 82.899 200.163 82.7976 200.312C82.6963 200.461 82.6456 200.624 82.6456 200.8C82.6456 201.147 82.747 201.395 82.9496 201.544C83.1576 201.693 83.427 201.768 83.7576 201.768C84.163 201.768 84.5123 201.696 84.8056 201.552C85.1043 201.403 85.395 201.179 85.6776 200.88V199.496ZM81.1496 195.936C82.0936 195.072 83.2296 194.64 84.5576 194.64C85.0376 194.64 85.467 194.72 85.8456 194.88C86.2243 195.035 86.5443 195.253 86.8056 195.536C87.067 195.813 87.2643 196.147 87.3976 196.536C87.5363 196.925 87.6056 197.352 87.6056 197.816V203H86.7096C86.523 203 86.379 202.973 86.2776 202.92C86.1763 202.861 86.0963 202.747 86.0376 202.576L85.8616 201.984C85.6536 202.171 85.451 202.336 85.2536 202.48C85.0563 202.619 84.851 202.736 84.6376 202.832C84.4243 202.928 84.195 203 83.9496 203.048C83.7096 203.101 83.443 203.128 83.1496 203.128C82.803 203.128 82.483 203.083 82.1896 202.992C81.8963 202.896 81.643 202.755 81.4296 202.568C81.2163 202.381 81.051 202.149 80.9336 201.872C80.8163 201.595 80.7576 201.272 80.7576 200.904C80.7576 200.696 80.7923 200.491 80.8616 200.288C80.931 200.08 81.043 199.883 81.1976 199.696C81.3576 199.509 81.563 199.333 81.8136 199.168C82.0643 199.003 82.371 198.859 82.7336 198.736C83.1016 198.613 83.5283 198.515 84.0136 198.44C84.499 198.36 85.0536 198.312 85.6776 198.296V197.816C85.6776 197.267 85.5603 196.861 85.3256 196.6C85.091 196.333 84.7523 196.2 84.3096 196.2C83.9896 196.2 83.723 196.237 83.5096 196.312C83.3016 196.387 83.1176 196.472 82.9576 196.568C82.7976 196.659 82.651 196.741 82.5176 196.816C82.3896 196.891 82.2456 196.928 82.0856 196.928C81.947 196.928 81.8296 196.893 81.7336 196.824C81.6376 196.749 81.5603 196.664 81.5016 196.568L81.1496 195.936ZM95.0986 196.888C94.8746 196.616 94.6293 196.424 94.3626 196.312C94.1013 196.2 93.8186 196.144 93.5146 196.144C93.216 196.144 92.9466 196.2 92.7066 196.312C92.4666 196.424 92.2613 196.595 92.0906 196.824C91.92 197.048 91.7893 197.336 91.6986 197.688C91.608 198.035 91.5626 198.445 91.5626 198.92C91.5626 199.4 91.6 199.808 91.6746 200.144C91.7546 200.475 91.8666 200.747 92.0106 200.96C92.1546 201.168 92.3306 201.32 92.5386 201.416C92.7466 201.507 92.9786 201.552 93.2346 201.552C93.6453 201.552 93.9946 201.467 94.2826 201.296C94.5706 201.125 94.8426 200.883 95.0986 200.568V196.888ZM97.0746 191.112V203H95.8666C95.6053 203 95.44 202.88 95.3706 202.64L95.2026 201.848C94.872 202.227 94.4906 202.533 94.0586 202.768C93.632 203.003 93.1333 203.12 92.5626 203.12C92.1146 203.12 91.704 203.027 91.3306 202.84C90.9573 202.653 90.6346 202.384 90.3626 202.032C90.096 201.675 89.888 201.235 89.7386 200.712C89.5946 200.189 89.5226 199.592 89.5226 198.92C89.5226 198.312 89.6053 197.747 89.7706 197.224C89.936 196.701 90.1733 196.248 90.4826 195.864C90.792 195.48 91.1626 195.181 91.5946 194.968C92.0266 194.749 92.512 194.64 93.0506 194.64C93.5093 194.64 93.9013 194.712 94.2266 194.856C94.552 195 94.8426 195.195 95.0986 195.44V191.112H97.0746ZM106.347 193.144V196.568H110.683V198.288H106.347V203H104.187V191.432H111.483V193.144H106.347ZM114.641 196.216C114.897 195.725 115.201 195.341 115.553 195.064C115.905 194.781 116.321 194.64 116.801 194.64C117.18 194.64 117.484 194.723 117.713 194.888L117.585 196.368C117.559 196.464 117.519 196.533 117.465 196.576C117.417 196.613 117.351 196.632 117.265 196.632C117.185 196.632 117.065 196.619 116.905 196.592C116.751 196.565 116.599 196.552 116.449 196.552C116.231 196.552 116.036 196.584 115.865 196.648C115.695 196.712 115.54 196.805 115.401 196.928C115.268 197.045 115.148 197.189 115.041 197.36C114.94 197.531 114.844 197.725 114.753 197.944V203H112.777V194.792H113.937C114.14 194.792 114.281 194.829 114.361 194.904C114.441 194.973 114.495 195.101 114.521 195.288L114.641 196.216ZM122.624 194.664C123.232 194.664 123.784 194.763 124.28 194.96C124.781 195.157 125.208 195.437 125.56 195.8C125.917 196.163 126.192 196.605 126.384 197.128C126.576 197.651 126.672 198.235 126.672 198.88C126.672 199.531 126.576 200.117 126.384 200.64C126.192 201.163 125.917 201.608 125.56 201.976C125.208 202.344 124.781 202.627 124.28 202.824C123.784 203.021 123.232 203.12 122.624 203.12C122.01 203.12 121.453 203.021 120.952 202.824C120.45 202.627 120.021 202.344 119.664 201.976C119.312 201.608 119.037 201.163 118.84 200.64C118.648 200.117 118.552 199.531 118.552 198.88C118.552 198.235 118.648 197.651 118.84 197.128C119.037 196.605 119.312 196.163 119.664 195.8C120.021 195.437 120.45 195.157 120.952 194.96C121.453 194.763 122.01 194.664 122.624 194.664ZM122.624 201.6C123.306 201.6 123.81 201.371 124.136 200.912C124.466 200.453 124.632 199.781 124.632 198.896C124.632 198.011 124.466 197.336 124.136 196.872C123.81 196.408 123.306 196.176 122.624 196.176C121.93 196.176 121.416 196.411 121.08 196.88C120.749 197.344 120.584 198.016 120.584 198.896C120.584 199.776 120.749 200.448 121.08 200.912C121.416 201.371 121.93 201.6 122.624 201.6ZM128.659 203V194.792H129.867C130.123 194.792 130.291 194.912 130.371 195.152L130.499 195.76C130.643 195.6 130.792 195.453 130.947 195.32C131.107 195.187 131.275 195.072 131.451 194.976C131.632 194.88 131.824 194.805 132.027 194.752C132.235 194.693 132.462 194.664 132.707 194.664C133.224 194.664 133.648 194.805 133.979 195.088C134.315 195.365 134.566 195.736 134.731 196.2C134.859 195.928 135.019 195.696 135.211 195.504C135.403 195.307 135.614 195.147 135.843 195.024C136.072 194.901 136.315 194.811 136.571 194.752C136.832 194.693 137.094 194.664 137.355 194.664C137.808 194.664 138.211 194.733 138.563 194.872C138.915 195.011 139.211 195.213 139.451 195.48C139.691 195.747 139.872 196.072 139.995 196.456C140.123 196.84 140.187 197.28 140.187 197.776V203H138.211V197.776C138.211 197.253 138.096 196.861 137.867 196.6C137.638 196.333 137.302 196.2 136.859 196.2C136.656 196.2 136.467 196.235 136.291 196.304C136.12 196.373 135.968 196.475 135.835 196.608C135.707 196.736 135.606 196.899 135.531 197.096C135.456 197.293 135.419 197.52 135.419 197.776V203H133.435V197.776C133.435 197.227 133.323 196.827 133.099 196.576C132.88 196.325 132.558 196.2 132.131 196.2C131.843 196.2 131.574 196.272 131.323 196.416C131.078 196.555 130.848 196.747 130.635 196.992V203H128.659ZM156.764 197.2V201.88C156.177 202.312 155.551 202.629 154.884 202.832C154.223 203.029 153.513 203.128 152.756 203.128C151.812 203.128 150.956 202.981 150.188 202.688C149.425 202.395 148.772 201.987 148.228 201.464C147.689 200.941 147.273 200.317 146.98 199.592C146.687 198.867 146.54 198.075 146.54 197.216C146.54 196.347 146.681 195.549 146.964 194.824C147.247 194.099 147.647 193.475 148.164 192.952C148.687 192.429 149.319 192.024 150.06 191.736C150.801 191.448 151.633 191.304 152.556 191.304C153.025 191.304 153.463 191.341 153.868 191.416C154.279 191.491 154.657 191.595 155.004 191.728C155.356 191.856 155.676 192.013 155.964 192.2C156.252 192.387 156.516 192.592 156.756 192.816L156.14 193.792C156.044 193.947 155.919 194.043 155.764 194.08C155.609 194.112 155.441 194.072 155.26 193.96C155.084 193.859 154.908 193.757 154.732 193.656C154.556 193.555 154.359 193.467 154.14 193.392C153.927 193.317 153.684 193.256 153.412 193.208C153.145 193.16 152.836 193.136 152.484 193.136C151.913 193.136 151.396 193.232 150.932 193.424C150.473 193.616 150.081 193.891 149.756 194.248C149.431 194.605 149.18 195.035 149.004 195.536C148.828 196.037 148.74 196.597 148.74 197.216C148.74 197.877 148.833 198.469 149.02 198.992C149.212 199.509 149.479 199.949 149.82 200.312C150.167 200.669 150.583 200.944 151.068 201.136C151.553 201.323 152.095 201.416 152.692 201.416C153.119 201.416 153.5 201.371 153.836 201.28C154.172 201.189 154.5 201.067 154.82 200.912V198.816H153.364C153.225 198.816 153.116 198.779 153.036 198.704C152.961 198.624 152.924 198.528 152.924 198.416V197.2H156.764ZM163.31 199.496C162.739 199.523 162.259 199.573 161.87 199.648C161.481 199.717 161.169 199.808 160.934 199.92C160.699 200.032 160.531 200.163 160.43 200.312C160.329 200.461 160.278 200.624 160.278 200.8C160.278 201.147 160.379 201.395 160.582 201.544C160.79 201.693 161.059 201.768 161.39 201.768C161.795 201.768 162.145 201.696 162.438 201.552C162.737 201.403 163.027 201.179 163.31 200.88V199.496ZM158.782 195.936C159.726 195.072 160.862 194.64 162.19 194.64C162.67 194.64 163.099 194.72 163.478 194.88C163.857 195.035 164.177 195.253 164.438 195.536C164.699 195.813 164.897 196.147 165.03 196.536C165.169 196.925 165.238 197.352 165.238 197.816V203H164.342C164.155 203 164.011 202.973 163.91 202.92C163.809 202.861 163.729 202.747 163.67 202.576L163.494 201.984C163.286 202.171 163.083 202.336 162.886 202.48C162.689 202.619 162.483 202.736 162.27 202.832C162.057 202.928 161.827 203 161.582 203.048C161.342 203.101 161.075 203.128 160.782 203.128C160.435 203.128 160.115 203.083 159.822 202.992C159.529 202.896 159.275 202.755 159.062 202.568C158.849 202.381 158.683 202.149 158.566 201.872C158.449 201.595 158.39 201.272 158.39 200.904C158.39 200.696 158.425 200.491 158.494 200.288C158.563 200.08 158.675 199.883 158.83 199.696C158.99 199.509 159.195 199.333 159.446 199.168C159.697 199.003 160.003 198.859 160.366 198.736C160.734 198.613 161.161 198.515 161.646 198.44C162.131 198.36 162.686 198.312 163.31 198.296V197.816C163.31 197.267 163.193 196.861 162.958 196.6C162.723 196.333 162.385 196.2 161.942 196.2C161.622 196.2 161.355 196.237 161.142 196.312C160.934 196.387 160.75 196.472 160.59 196.568C160.43 196.659 160.283 196.741 160.15 196.816C160.022 196.891 159.878 196.928 159.718 196.928C159.579 196.928 159.462 196.893 159.366 196.824C159.27 196.749 159.193 196.664 159.134 196.568L158.782 195.936ZM169.579 191.112V203H167.603V191.112H169.579ZM174.028 191.112V203H172.052V191.112H174.028ZM181.765 197.952C181.765 197.696 181.727 197.456 181.653 197.232C181.583 197.003 181.477 196.803 181.333 196.632C181.189 196.461 181.005 196.328 180.781 196.232C180.562 196.131 180.306 196.08 180.013 196.08C179.442 196.08 178.991 196.243 178.661 196.568C178.335 196.893 178.127 197.355 178.037 197.952H181.765ZM177.997 199.144C178.029 199.565 178.103 199.931 178.221 200.24C178.338 200.544 178.493 200.797 178.685 201C178.877 201.197 179.103 201.347 179.365 201.448C179.631 201.544 179.925 201.592 180.245 201.592C180.565 201.592 180.839 201.555 181.069 201.48C181.303 201.405 181.506 201.323 181.677 201.232C181.853 201.141 182.005 201.059 182.133 200.984C182.266 200.909 182.394 200.872 182.517 200.872C182.682 200.872 182.805 200.933 182.885 201.056L183.453 201.776C183.234 202.032 182.989 202.248 182.717 202.424C182.445 202.595 182.159 202.733 181.861 202.84C181.567 202.941 181.266 203.013 180.957 203.056C180.653 203.099 180.357 203.12 180.069 203.12C179.498 203.12 178.967 203.027 178.477 202.84C177.986 202.648 177.559 202.368 177.197 202C176.834 201.627 176.549 201.168 176.341 200.624C176.133 200.075 176.029 199.44 176.029 198.72C176.029 198.16 176.119 197.635 176.301 197.144C176.482 196.648 176.741 196.219 177.077 195.856C177.418 195.488 177.831 195.197 178.317 194.984C178.807 194.771 179.359 194.664 179.973 194.664C180.49 194.664 180.967 194.747 181.405 194.912C181.842 195.077 182.218 195.32 182.533 195.64C182.847 195.955 183.093 196.344 183.269 196.808C183.45 197.267 183.541 197.792 183.541 198.384C183.541 198.683 183.509 198.885 183.445 198.992C183.381 199.093 183.258 199.144 183.077 199.144H177.997ZM187.367 196.216C187.623 195.725 187.927 195.341 188.279 195.064C188.631 194.781 189.047 194.64 189.527 194.64C189.906 194.64 190.21 194.723 190.439 194.888L190.311 196.368C190.285 196.464 190.245 196.533 190.191 196.576C190.143 196.613 190.077 196.632 189.991 196.632C189.911 196.632 189.791 196.619 189.631 196.592C189.477 196.565 189.325 196.552 189.175 196.552C188.957 196.552 188.762 196.584 188.591 196.648C188.421 196.712 188.266 196.805 188.127 196.928C187.994 197.045 187.874 197.189 187.767 197.36C187.666 197.531 187.57 197.725 187.479 197.944V203H185.503V194.792H186.663C186.866 194.792 187.007 194.829 187.087 194.904C187.167 194.973 187.221 195.101 187.247 195.288L187.367 196.216ZM199.408 194.792L194.936 205.256C194.878 205.395 194.8 205.499 194.704 205.568C194.614 205.643 194.472 205.68 194.28 205.68H192.808L194.344 202.384L191.024 194.792H192.76C192.915 194.792 193.035 194.829 193.12 194.904C193.211 194.979 193.278 195.064 193.32 195.16L195.064 199.416C195.123 199.56 195.171 199.704 195.208 199.848C195.251 199.992 195.291 200.139 195.328 200.288C195.376 200.139 195.424 199.992 195.472 199.848C195.52 199.699 195.574 199.552 195.632 199.408L197.28 195.16C197.323 195.053 197.392 194.965 197.488 194.896C197.59 194.827 197.702 194.792 197.824 194.792H199.408Z" fill="white"/>
</svg>
