<svg width="99" height="219" viewBox="0 0 99 219" fill="none" xmlns="http://www.w3.org/2000/svg">
<rect width="99" height="219" fill="#323754"/>
<path d="M74.9167 55.584V56.084H75.4167H81.3083C82.6072 56.084 83.6667 57.1435 83.6667 58.4423V58.559C83.6667 59.8578 82.6072 60.9173 81.3083 60.9173H75.4167H74.9167V61.4173V67.2798C74.9167 68.5787 73.8572 69.6382 72.5583 69.6382H72.4708V69.6381L72.4617 69.6382C71.1458 69.6622 70.0833 68.5838 70.0833 67.2798V61.4173V60.9173H69.5833H63.7208C62.3928 60.9173 61.3333 59.8578 61.3333 58.5298V58.4472C61.3598 57.1413 62.4252 56.084 63.7208 56.084H69.5833H70.0833V55.584V49.6923C70.0833 48.3968 71.1395 47.334 72.4708 47.334H72.5583C73.8572 47.334 74.9167 48.3935 74.9167 49.6923V55.584ZM66.1667 67.2798L66.1667 67.2823C66.1749 68.9456 66.8371 70.5389 68.0103 71.718C69.1835 72.8971 70.7734 73.5673 72.4367 73.584H72.4417C73.3412 73.584 74.167 73.3898 74.9167 73.0717V96.4173C74.9167 99.3495 72.5155 101.751 69.5833 101.751H34.5833C31.6511 101.751 29.25 99.3495 29.25 96.4173V61.4173C29.25 58.4851 31.6511 56.084 34.5833 56.084H57.8948C57.5895 56.8081 57.4167 57.599 57.4167 58.4423C57.4167 60.2064 58.0804 61.7898 59.2501 62.9911L59.25 62.9913L59.2595 63.0006C60.458 64.1675 62.0403 64.834 63.7208 64.834H66.1667L66.1667 67.2798ZM35.9339 93.7833L35.9333 93.784C35.7151 94.0749 35.5822 94.4209 35.5496 94.7831C35.5169 95.1453 35.5858 95.5095 35.7484 95.8348C35.9111 96.1601 36.1611 96.4336 36.4704 96.6248C36.7798 96.816 37.1363 96.9173 37.5 96.9173H66.55C68.1982 96.9173 69.0935 95.0314 68.0803 93.7454L68.0776 93.7421L59.4763 83.0123C58.6807 81.9837 57.1539 82.0434 56.3829 83.0458L56.3828 83.0458L56.3792 83.0507L49.1916 92.6341L44.9166 86.1949L44.9118 86.1878L44.9069 86.1809C44.1409 85.1085 42.5382 85.0072 41.7087 86.1127C41.7085 86.1129 41.7084 86.113 41.7083 86.1132L35.9339 93.7833Z" fill="white" stroke="black"/>
<path d="M31.8112 142.481C32.1752 142.481 32.4995 142.42 32.7842 142.299C33.0735 142.178 33.3162 142.007 33.5122 141.788C33.7082 141.569 33.8575 141.303 33.9602 140.99C34.0675 140.677 34.1212 140.327 34.1212 139.94V133.878H36.0042V139.94C36.0042 140.542 35.9062 141.1 35.7102 141.613C35.5188 142.122 35.2412 142.563 34.8772 142.936C34.5178 143.305 34.0792 143.594 33.5612 143.804C33.0432 144.009 32.4598 144.112 31.8112 144.112C31.1578 144.112 30.5722 144.009 30.0542 143.804C29.5362 143.594 29.0952 143.305 28.7312 142.936C28.3718 142.563 28.0942 142.122 27.8982 141.613C27.7068 141.1 27.6112 140.542 27.6112 139.94V133.878H29.4942V139.933C29.4942 140.32 29.5455 140.67 29.6482 140.983C29.7555 141.296 29.9072 141.564 30.1032 141.788C30.3038 142.007 30.5465 142.178 30.8312 142.299C31.1205 142.42 31.4472 142.481 31.8112 142.481ZM39.7714 142.138C39.9674 142.376 40.1797 142.544 40.4084 142.642C40.6417 142.74 40.8937 142.789 41.1644 142.789C41.4257 142.789 41.6614 142.74 41.8714 142.642C42.0814 142.544 42.2587 142.395 42.4034 142.194C42.5527 141.993 42.667 141.741 42.7464 141.438C42.8257 141.13 42.8654 140.768 42.8654 140.353C42.8654 139.933 42.8304 139.578 42.7604 139.289C42.695 138.995 42.5994 138.757 42.4734 138.575C42.3474 138.393 42.1934 138.26 42.0114 138.176C41.834 138.092 41.631 138.05 41.4024 138.05C41.043 138.05 40.7374 138.127 40.4854 138.281C40.2334 138.43 39.9954 138.643 39.7714 138.918V142.138ZM39.6804 137.798C39.9744 137.467 40.308 137.198 40.6814 136.993C41.0547 136.788 41.4934 136.685 41.9974 136.685C42.3894 136.685 42.7464 136.767 43.0684 136.93C43.395 137.093 43.675 137.331 43.9084 137.644C44.1464 137.952 44.3284 138.335 44.4544 138.792C44.585 139.245 44.6504 139.765 44.6504 140.353C44.6504 140.89 44.578 141.387 44.4334 141.844C44.2887 142.301 44.081 142.698 43.8104 143.034C43.5444 143.37 43.22 143.634 42.8374 143.825C42.4594 144.012 42.0347 144.105 41.5634 144.105C41.162 144.105 40.819 144.044 40.5344 143.923C40.2497 143.797 39.9954 143.624 39.7714 143.405V146.345H38.0424V136.818H39.0994C39.3234 136.818 39.4704 136.923 39.5404 137.133L39.6804 137.798ZM48.1694 133.598V144H46.4404V133.598H48.1694ZM53.49 136.706C54.022 136.706 54.505 136.792 54.939 136.965C55.3777 137.138 55.751 137.383 56.059 137.7C56.3717 138.017 56.612 138.405 56.78 138.862C56.948 139.319 57.032 139.83 57.032 140.395C57.032 140.964 56.948 141.478 56.78 141.935C56.612 142.392 56.3717 142.782 56.059 143.104C55.751 143.426 55.3777 143.673 54.939 143.846C54.505 144.019 54.022 144.105 53.49 144.105C52.9534 144.105 52.4657 144.019 52.027 143.846C51.5884 143.673 51.2127 143.426 50.9 143.104C50.592 142.782 50.3517 142.392 50.179 141.935C50.011 141.478 49.927 140.964 49.927 140.395C49.927 139.83 50.011 139.319 50.179 138.862C50.3517 138.405 50.592 138.017 50.9 137.7C51.2127 137.383 51.5884 137.138 52.027 136.965C52.4657 136.792 52.9534 136.706 53.49 136.706ZM53.49 142.775C54.0874 142.775 54.5284 142.574 54.813 142.173C55.1024 141.772 55.247 141.184 55.247 140.409C55.247 139.634 55.1024 139.044 54.813 138.638C54.5284 138.232 54.0874 138.029 53.49 138.029C52.8834 138.029 52.433 138.234 52.139 138.645C51.8497 139.051 51.705 139.639 51.705 140.409C51.705 141.179 51.8497 141.767 52.139 142.173C52.433 142.574 52.8834 142.775 53.49 142.775ZM62.5651 140.934C62.0658 140.957 61.6458 141.002 61.3051 141.067C60.9644 141.128 60.6914 141.207 60.4861 141.305C60.2808 141.403 60.1338 141.517 60.0451 141.648C59.9564 141.779 59.9121 141.921 59.9121 142.075C59.9121 142.378 60.0008 142.595 60.1781 142.726C60.3601 142.857 60.5958 142.922 60.8851 142.922C61.2398 142.922 61.5454 142.859 61.8021 142.733C62.0634 142.602 62.3178 142.406 62.5651 142.145V140.934ZM58.6031 137.819C59.4291 137.063 60.4231 136.685 61.5851 136.685C62.0051 136.685 62.3808 136.755 62.7121 136.895C63.0434 137.03 63.3234 137.222 63.5521 137.469C63.7808 137.712 63.9534 138.003 64.0701 138.344C64.1914 138.685 64.2521 139.058 64.2521 139.464V144H63.4681C63.3048 144 63.1788 143.977 63.0901 143.93C63.0014 143.879 62.9314 143.778 62.8801 143.629L62.7261 143.111C62.5441 143.274 62.3668 143.419 62.1941 143.545C62.0214 143.666 61.8418 143.769 61.6551 143.853C61.4684 143.937 61.2678 144 61.0531 144.042C60.8431 144.089 60.6098 144.112 60.3531 144.112C60.0498 144.112 59.7698 144.072 59.5131 143.993C59.2564 143.909 59.0348 143.785 58.8481 143.622C58.6614 143.459 58.5168 143.256 58.4141 143.013C58.3114 142.77 58.2601 142.488 58.2601 142.166C58.2601 141.984 58.2904 141.804 58.3511 141.627C58.4118 141.445 58.5098 141.272 58.6451 141.109C58.7851 140.946 58.9648 140.792 59.1841 140.647C59.4034 140.502 59.6718 140.376 59.9891 140.269C60.3111 140.162 60.6844 140.075 61.1091 140.01C61.5338 139.94 62.0191 139.898 62.5651 139.884V139.464C62.5651 138.983 62.4624 138.629 62.2571 138.4C62.0518 138.167 61.7554 138.05 61.3681 138.05C61.0881 138.05 60.8548 138.083 60.6681 138.148C60.4861 138.213 60.3251 138.288 60.1851 138.372C60.0451 138.451 59.9168 138.524 59.8001 138.589C59.6881 138.654 59.5621 138.687 59.4221 138.687C59.3008 138.687 59.1981 138.657 59.1141 138.596C59.0301 138.531 58.9624 138.456 58.9111 138.372L58.6031 137.819ZM70.8085 138.652C70.6125 138.414 70.3978 138.246 70.1645 138.148C69.9358 138.05 69.6885 138.001 69.4225 138.001C69.1612 138.001 68.9255 138.05 68.7155 138.148C68.5055 138.246 68.3258 138.395 68.1765 138.596C68.0272 138.792 67.9128 139.044 67.8335 139.352C67.7542 139.655 67.7145 140.015 67.7145 140.43C67.7145 140.85 67.7472 141.207 67.8125 141.501C67.8825 141.79 67.9805 142.028 68.1065 142.215C68.2325 142.397 68.3865 142.53 68.5685 142.614C68.7505 142.693 68.9535 142.733 69.1775 142.733C69.5368 142.733 69.8425 142.658 70.0945 142.509C70.3465 142.36 70.5845 142.147 70.8085 141.872V138.652ZM72.5375 133.598V144H71.4805C71.2518 144 71.1072 143.895 71.0465 143.685L70.8995 142.992C70.6102 143.323 70.2765 143.592 69.8985 143.797C69.5252 144.002 69.0888 144.105 68.5895 144.105C68.1975 144.105 67.8382 144.023 67.5115 143.86C67.1848 143.697 66.9025 143.461 66.6645 143.153C66.4312 142.84 66.2492 142.455 66.1185 141.998C65.9925 141.541 65.9295 141.018 65.9295 140.43C65.9295 139.898 66.0018 139.403 66.1465 138.946C66.2912 138.489 66.4988 138.092 66.7695 137.756C67.0402 137.42 67.3645 137.159 67.7425 136.972C68.1205 136.781 68.5452 136.685 69.0165 136.685C69.4178 136.685 69.7608 136.748 70.0455 136.874C70.3302 137 70.5845 137.17 70.8085 137.385V133.598H72.5375ZM12.7041 153.376V156.372H16.4981V157.877H12.7041V162H10.8141V151.878H17.1981V153.376H12.7041ZM19.9612 156.064C20.1852 155.635 20.4512 155.299 20.7592 155.056C21.0672 154.809 21.4312 154.685 21.8512 154.685C22.1826 154.685 22.4486 154.757 22.6492 154.902L22.5373 156.197C22.5139 156.281 22.4789 156.342 22.4322 156.379C22.3902 156.412 22.3319 156.428 22.2572 156.428C22.1872 156.428 22.0822 156.416 21.9422 156.393C21.8069 156.37 21.6739 156.358 21.5432 156.358C21.3519 156.358 21.1816 156.386 21.0322 156.442C20.8829 156.498 20.7476 156.58 20.6262 156.687C20.5096 156.79 20.4046 156.916 20.3112 157.065C20.2226 157.214 20.1386 157.385 20.0592 157.576V162H18.3302V154.818H19.3452C19.5226 154.818 19.6462 154.851 19.7162 154.916C19.7862 154.977 19.8329 155.089 19.8562 155.252L19.9612 156.064ZM26.9458 154.706C27.4778 154.706 27.9608 154.792 28.3948 154.965C28.8335 155.138 29.2068 155.383 29.5148 155.7C29.8275 156.017 30.0678 156.405 30.2358 156.862C30.4038 157.319 30.4878 157.83 30.4878 158.395C30.4878 158.964 30.4038 159.478 30.2358 159.935C30.0678 160.392 29.8275 160.782 29.5148 161.104C29.2068 161.426 28.8335 161.673 28.3948 161.846C27.9608 162.019 27.4778 162.105 26.9458 162.105C26.4092 162.105 25.9215 162.019 25.4828 161.846C25.0442 161.673 24.6685 161.426 24.3558 161.104C24.0478 160.782 23.8075 160.392 23.6348 159.935C23.4668 159.478 23.3828 158.964 23.3828 158.395C23.3828 157.83 23.4668 157.319 23.6348 156.862C23.8075 156.405 24.0478 156.017 24.3558 155.7C24.6685 155.383 25.0442 155.138 25.4828 154.965C25.9215 154.792 26.4092 154.706 26.9458 154.706ZM26.9458 160.775C27.5432 160.775 27.9842 160.574 28.2688 160.173C28.5582 159.772 28.7028 159.184 28.7028 158.409C28.7028 157.634 28.5582 157.044 28.2688 156.638C27.9842 156.232 27.5432 156.029 26.9458 156.029C26.3392 156.029 25.8888 156.234 25.5948 156.645C25.3055 157.051 25.1608 157.639 25.1608 158.409C25.1608 159.179 25.3055 159.767 25.5948 160.173C25.8888 160.574 26.3392 160.775 26.9458 160.775ZM32.2269 162V154.818H33.2839C33.5079 154.818 33.6549 154.923 33.7249 155.133L33.8369 155.665C33.9629 155.525 34.0936 155.397 34.2289 155.28C34.3689 155.163 34.5159 155.063 34.6699 154.979C34.8286 154.895 34.9966 154.83 35.1739 154.783C35.3559 154.732 35.5542 154.706 35.7689 154.706C36.2216 154.706 36.5926 154.83 36.8819 155.077C37.1759 155.32 37.3952 155.644 37.5399 156.05C37.6519 155.812 37.7919 155.609 37.9599 155.441C38.1279 155.268 38.3122 155.128 38.5129 155.021C38.7136 154.914 38.9259 154.834 39.1499 154.783C39.3786 154.732 39.6072 154.706 39.8359 154.706C40.2326 154.706 40.5849 154.767 40.8929 154.888C41.2009 155.009 41.4599 155.187 41.6699 155.42C41.8799 155.653 42.0386 155.938 42.1459 156.274C42.2579 156.61 42.3139 156.995 42.3139 157.429V162H40.5849V157.429C40.5849 156.972 40.4846 156.629 40.2839 156.4C40.0832 156.167 39.7892 156.05 39.4019 156.05C39.2246 156.05 39.0589 156.08 38.9049 156.141C38.7556 156.202 38.6226 156.29 38.5059 156.407C38.3939 156.519 38.3052 156.661 38.2399 156.834C38.1746 157.007 38.1419 157.205 38.1419 157.429V162H36.4059V157.429C36.4059 156.948 36.3079 156.598 36.1119 156.379C35.9206 156.16 35.6382 156.05 35.2649 156.05C35.0129 156.05 34.7772 156.113 34.5579 156.239C34.3432 156.36 34.1426 156.528 33.9559 156.743V162H32.2269ZM56.8187 156.925V161.02C56.3053 161.398 55.757 161.676 55.1737 161.853C54.595 162.026 53.9743 162.112 53.3117 162.112C52.4857 162.112 51.7367 161.984 51.0647 161.727C50.3973 161.47 49.8257 161.113 49.3497 160.656C48.8783 160.199 48.5143 159.653 48.2577 159.018C48.001 158.383 47.8727 157.69 47.8727 156.939C47.8727 156.178 47.9963 155.481 48.2437 154.846C48.491 154.211 48.841 153.665 49.2937 153.208C49.751 152.751 50.304 152.396 50.9527 152.144C51.6013 151.892 52.3293 151.766 53.1367 151.766C53.5473 151.766 53.93 151.799 54.2847 151.864C54.644 151.929 54.9753 152.02 55.2787 152.137C55.5867 152.249 55.8667 152.387 56.1187 152.55C56.3707 152.713 56.6017 152.893 56.8117 153.089L56.2727 153.943C56.1887 154.078 56.079 154.162 55.9437 154.195C55.8083 154.223 55.6613 154.188 55.5027 154.09C55.3487 154.001 55.1947 153.913 55.0407 153.824C54.8867 153.735 54.714 153.658 54.5227 153.593C54.336 153.528 54.1237 153.474 53.8857 153.432C53.6523 153.39 53.3817 153.369 53.0737 153.369C52.5743 153.369 52.1217 153.453 51.7157 153.621C51.3143 153.789 50.9713 154.029 50.6867 154.342C50.402 154.655 50.1827 155.03 50.0287 155.469C49.8747 155.908 49.7977 156.398 49.7977 156.939C49.7977 157.518 49.8793 158.036 50.0427 158.493C50.2107 158.946 50.444 159.331 50.7427 159.648C51.046 159.961 51.41 160.201 51.8347 160.369C52.2593 160.532 52.733 160.614 53.2557 160.614C53.629 160.614 53.9627 160.574 54.2567 160.495C54.5507 160.416 54.8377 160.308 55.1177 160.173V158.339H53.8437C53.7223 158.339 53.6267 158.306 53.5567 158.241C53.4913 158.171 53.4587 158.087 53.4587 157.989V156.925H56.8187ZM62.5465 158.934C62.0472 158.957 61.6272 159.002 61.2865 159.067C60.9458 159.128 60.6728 159.207 60.4675 159.305C60.2622 159.403 60.1152 159.517 60.0265 159.648C59.9378 159.779 59.8935 159.921 59.8935 160.075C59.8935 160.378 59.9822 160.595 60.1595 160.726C60.3415 160.857 60.5772 160.922 60.8665 160.922C61.2212 160.922 61.5268 160.859 61.7835 160.733C62.0448 160.602 62.2992 160.406 62.5465 160.145V158.934ZM58.5845 155.819C59.4105 155.063 60.4045 154.685 61.5665 154.685C61.9865 154.685 62.3622 154.755 62.6935 154.895C63.0248 155.03 63.3048 155.222 63.5335 155.469C63.7622 155.712 63.9348 156.003 64.0515 156.344C64.1728 156.685 64.2335 157.058 64.2335 157.464V162H63.4495C63.2862 162 63.1602 161.977 63.0715 161.93C62.9828 161.879 62.9128 161.778 62.8615 161.629L62.7075 161.111C62.5255 161.274 62.3482 161.419 62.1755 161.545C62.0028 161.666 61.8232 161.769 61.6365 161.853C61.4498 161.937 61.2492 162 61.0345 162.042C60.8245 162.089 60.5912 162.112 60.3345 162.112C60.0312 162.112 59.7512 162.072 59.4945 161.993C59.2378 161.909 59.0162 161.785 58.8295 161.622C58.6428 161.459 58.4982 161.256 58.3955 161.013C58.2928 160.77 58.2415 160.488 58.2415 160.166C58.2415 159.984 58.2718 159.804 58.3325 159.627C58.3932 159.445 58.4912 159.272 58.6265 159.109C58.7665 158.946 58.9462 158.792 59.1655 158.647C59.3848 158.502 59.6532 158.376 59.9705 158.269C60.2925 158.162 60.6658 158.075 61.0905 158.01C61.5152 157.94 62.0005 157.898 62.5465 157.884V157.464C62.5465 156.983 62.4438 156.629 62.2385 156.4C62.0332 156.167 61.7368 156.05 61.3495 156.05C61.0695 156.05 60.8362 156.083 60.6495 156.148C60.4675 156.213 60.3065 156.288 60.1665 156.372C60.0265 156.451 59.8982 156.524 59.7815 156.589C59.6695 156.654 59.5435 156.687 59.4035 156.687C59.2822 156.687 59.1795 156.657 59.0955 156.596C59.0115 156.531 58.9438 156.456 58.8925 156.372L58.5845 155.819ZM68.0319 151.598V162H66.3029V151.598H68.0319ZM71.9245 151.598V162H70.1955V151.598H71.9245ZM78.6942 157.583C78.6942 157.359 78.6615 157.149 78.5962 156.953C78.5355 156.752 78.4422 156.577 78.3162 156.428C78.1902 156.279 78.0292 156.162 77.8332 156.078C77.6419 155.989 77.4179 155.945 77.1612 155.945C76.6619 155.945 76.2675 156.087 75.9782 156.372C75.6935 156.657 75.5115 157.06 75.4322 157.583H78.6942ZM75.3972 158.626C75.4252 158.995 75.4905 159.314 75.5932 159.585C75.6959 159.851 75.8312 160.073 75.9992 160.25C76.1672 160.423 76.3655 160.553 76.5942 160.642C76.8275 160.726 77.0842 160.768 77.3642 160.768C77.6442 160.768 77.8845 160.735 78.0852 160.67C78.2905 160.605 78.4679 160.532 78.6172 160.453C78.7712 160.374 78.9042 160.301 79.0162 160.236C79.1329 160.171 79.2449 160.138 79.3522 160.138C79.4969 160.138 79.6042 160.192 79.6742 160.299L80.1712 160.929C79.9799 161.153 79.7652 161.342 79.5272 161.496C79.2892 161.645 79.0395 161.767 78.7782 161.86C78.5215 161.949 78.2579 162.012 77.9872 162.049C77.7212 162.086 77.4622 162.105 77.2102 162.105C76.7109 162.105 76.2465 162.023 75.8172 161.86C75.3879 161.692 75.0145 161.447 74.6972 161.125C74.3799 160.798 74.1302 160.397 73.9482 159.921C73.7662 159.44 73.6752 158.885 73.6752 158.255C73.6752 157.765 73.7545 157.305 73.9132 156.876C74.0719 156.442 74.2982 156.066 74.5922 155.749C74.8909 155.427 75.2525 155.173 75.6772 154.986C76.1065 154.799 76.5895 154.706 77.1262 154.706C77.5789 154.706 77.9965 154.778 78.3792 154.923C78.7619 155.068 79.0909 155.28 79.3662 155.56C79.6415 155.835 79.8562 156.176 80.0102 156.582C80.1689 156.983 80.2482 157.443 80.2482 157.961C80.2482 158.222 80.2202 158.4 80.1642 158.493C80.1082 158.582 80.0009 158.626 79.8422 158.626H75.3972ZM83.5967 156.064C83.8207 155.635 84.0867 155.299 84.3947 155.056C84.7027 154.809 85.0667 154.685 85.4867 154.685C85.8181 154.685 86.0841 154.757 86.2847 154.902L86.1727 156.197C86.1494 156.281 86.1144 156.342 86.0677 156.379C86.0257 156.412 85.9674 156.428 85.8927 156.428C85.8227 156.428 85.7177 156.416 85.5777 156.393C85.4424 156.37 85.3094 156.358 85.1787 156.358C84.9874 156.358 84.8171 156.386 84.6677 156.442C84.5184 156.498 84.3831 156.58 84.2617 156.687C84.1451 156.79 84.0401 156.916 83.9467 157.065C83.8581 157.214 83.7741 157.385 83.6947 157.576V162H81.9657V154.818H82.9807C83.1581 154.818 83.2817 154.851 83.3517 154.916C83.4217 154.977 83.4684 155.089 83.4917 155.252L83.5967 156.064ZM94.1324 154.818L90.2194 163.974C90.168 164.095 90.1004 164.186 90.0164 164.247C89.937 164.312 89.8134 164.345 89.6454 164.345H88.3574L89.7014 161.461L86.7964 154.818H88.3154C88.4507 154.818 88.5557 154.851 88.6304 154.916C88.7097 154.981 88.768 155.056 88.8054 155.14L90.3314 158.864C90.3827 158.99 90.4247 159.116 90.4574 159.242C90.4947 159.368 90.5297 159.496 90.5624 159.627C90.6044 159.496 90.6464 159.368 90.6884 159.242C90.7304 159.111 90.777 158.983 90.8284 158.857L92.2704 155.14C92.3077 155.047 92.3684 154.97 92.4524 154.909C92.541 154.848 92.639 154.818 92.7464 154.818H94.1324Z" fill="white"/>
</svg>
