<svg width="241" height="244" viewBox="0 0 241 244" fill="none" xmlns="http://www.w3.org/2000/svg">
<rect opacity="0.5" width="241" height="244" fill="#D6D6E8"/>
<path d="M155.334 85.6673V135.667H105.333V85.6673H155.334ZM155.334 77.334H105.333C100.75 77.334 97.0002 81.084 97.0002 85.6673V135.667C97.0002 140.251 100.75 144.001 105.333 144.001H155.334C159.917 144.001 163.667 140.251 163.667 135.667V85.6673C163.667 81.084 159.917 77.334 155.334 77.334ZM119.917 117.626L126.958 127.042L137.292 114.126L151.167 131.501H109.5L119.917 117.626ZM80.3335 94.0007V152.334C80.3335 156.917 84.0835 160.667 88.6668 160.667H147V152.334H88.6668V94.0007H80.3335Z" fill="#ADADC8"/>
</svg>
