<svg width="99" height="219" viewBox="0 0 99 219" fill="none" xmlns="http://www.w3.org/2000/svg">
<rect width="99" height="219" fill="#D6D6E8"/>
<path d="M82.25 81.0931L79.1569 78L21 136.157L24.0931 139.25L28.4681 134.875H73.5C74.6598 134.873 75.7716 134.412 76.5917 133.592C77.4118 132.772 77.8733 131.66 77.875 130.5V85.4681L82.25 81.0931ZM73.5 130.5H32.8431L49.8903 113.453L55.0944 118.657C55.9148 119.477 57.0274 119.938 58.1875 119.938C59.3476 119.938 60.4602 119.477 61.2806 118.657L64.75 115.188L73.5 123.931V130.5ZM73.5 117.743L67.8431 112.086C67.0227 111.265 65.9101 110.805 64.75 110.805C63.5899 110.805 62.4773 111.265 61.6569 112.086L58.1875 115.555L52.9878 110.355L73.5 89.8431V117.743Z" fill="#ADADC8"/>
<path d="M29.75 121.75V115.188L40.6875 104.257L43.6909 107.262L46.7884 104.165L43.7806 101.157C42.9602 100.337 41.8476 99.8759 40.6875 99.8759C39.5274 99.8759 38.4148 100.337 37.5944 101.157L29.75 109.001V86.75H64.75V82.375H29.75C28.59 82.3762 27.4779 82.8375 26.6577 83.6577C25.8375 84.4779 25.3762 85.59 25.375 86.75V121.75H29.75Z" fill="#ADADC8"/>
</svg>
