<svg width="240" height="244" viewBox="0 0 240 244" fill="none" xmlns="http://www.w3.org/2000/svg">
<g opacity="0.8">
<rect opacity="0.4" width="240" height="244" fill="#D6D6E8"/>
</g>
<path d="M152.334 85.6673V135.667H102.333V85.6673H152.334ZM152.334 77.334H102.333C97.7502 77.334 94.0002 81.084 94.0002 85.6673V135.667C94.0002 140.251 97.7502 144.001 102.333 144.001H152.334C156.917 144.001 160.667 140.251 160.667 135.667V85.6673C160.667 81.084 156.917 77.334 152.334 77.334ZM116.917 117.626L123.958 127.042L134.292 114.126L148.167 131.501H106.5L116.917 117.626ZM77.3335 94.0007V152.334C77.3335 156.917 81.0835 160.667 85.6668 160.667H144V152.334H85.6668V94.0007H77.3335Z" fill="#ADADC8"/>
</svg>
