<svg width="241" height="244" viewBox="0 0 241 244" fill="none" xmlns="http://www.w3.org/2000/svg">
<rect width="241" height="244" fill="#D6D6E8"/>
<path d="M176 71.656L170.344 66L64 172.344L69.656 178L77.656 170H160C162.121 169.997 164.154 169.153 165.653 167.653C167.153 166.154 167.997 164.121 168 162V79.656L176 71.656ZM160 162H85.656L116.828 130.828L126.344 140.344C127.844 141.844 129.879 142.686 132 142.686C134.121 142.686 136.156 141.844 137.656 140.344L144 134L160 149.988V162ZM160 138.672L149.656 128.328C148.156 126.828 146.121 125.986 144 125.986C141.879 125.986 139.844 126.828 138.344 128.328L132 134.672L122.492 125.164L160 87.656V138.672Z" fill="#ADADC8"/>
<path d="M80 146V134L100 114.012L105.492 119.508L111.156 113.844L105.656 108.344C104.156 106.844 102.121 106.002 100 106.002C97.8787 106.002 95.8442 106.844 94.344 108.344L80 122.688V82H144V74H80C77.8789 74.0021 75.8453 74.8457 74.3455 76.3455C72.8457 77.8453 72.0021 79.8789 72 82V146H80Z" fill="#ADADC8"/>
</svg>
