<svg width="110" height="110" viewBox="0 0 110 110" fill="none" xmlns="http://www.w3.org/2000/svg">
<circle cx="54.6625" cy="54.6625" r="52.1625" stroke="#D6D6E8" stroke-width="5"/>
<circle cx="54.6621" cy="54.6621" r="48" fill="#1F2337"/>
<rect x="22.707" y="33.7578" width="60.0723" height="39.3902" rx="5.57233" fill="white"/>
<rect x="29.0523" y="43.6383" width="16.8691" height="19.6291" rx="0.601976" fill="#F6F6FF" stroke="#D6D6E8" stroke-width="0.796047"/>
<path d="M40.8016 50.1399C40.8016 51.9701 39.318 53.4537 37.4878 53.4537C35.6577 53.4537 34.1741 51.9701 34.1741 50.1399C34.1741 48.3098 35.6577 46.8262 37.4878 46.8262C39.318 46.8262 40.8016 48.3098 40.8016 50.1399Z" fill="url(#paint0_linear)"/>
<path d="M33.2324 57.3661C33.2324 55.579 34.6811 54.1303 36.4682 54.1303H38.5059C40.2929 54.1303 41.7416 55.579 41.7416 57.3661V61.1479H33.2324V57.3661Z" fill="url(#paint1_linear)"/>
<rect x="49.9727" y="45.2012" width="18.2377" height="2.70415" rx="1.35207" fill="#47526A"/>
<rect x="49.9727" y="52.1016" width="27.0375" height="2.70415" rx="1.35207" fill="#47526A"/>
<rect x="49.9727" y="59" width="27.0375" height="2.70415" rx="1.35207" fill="#47526A"/>
<path d="M74.0958 72.3372C82.1979 72.3372 88.7659 65.7692 88.7659 57.6671C88.7659 49.5651 82.1979 42.9971 74.0958 42.9971C65.9938 42.9971 59.4258 49.5651 59.4258 57.6671C59.4258 65.7692 65.9938 72.3372 74.0958 72.3372Z" fill="url(#paint2_linear)"/>
<path fill-rule="evenodd" clip-rule="evenodd" d="M61.3755 44.9466C68.4005 37.9214 79.7905 37.9214 86.8157 44.9466C93.8408 51.9717 93.8408 63.3616 86.8158 70.3869C80.3868 76.8158 70.303 77.3601 63.2536 72.0222L60.4847 74.7911L56.9713 71.2777L59.7402 68.5088C54.4023 61.4594 54.9465 51.3756 61.3755 44.9466ZM88.762 57.6671C88.762 65.7692 82.194 72.3372 74.0919 72.3372C65.9899 72.3372 59.4219 65.7692 59.4219 57.6671C59.4219 49.5651 65.9899 42.9971 74.0919 42.9971C82.194 42.9971 88.762 49.5651 88.762 57.6671Z" fill="#FFA318"/>
<path d="M64.1751 49.0387C69.9041 43.3096 79.1927 43.3096 84.9217 49.0387C86.5062 50.6231 87.6503 52.4806 88.3583 54.4589C87.7795 51.8101 86.4646 49.2899 84.4051 47.2304C78.676 41.5013 69.3874 41.5013 63.6584 47.2304C59.5138 51.375 58.3697 57.3818 60.2218 62.5568C59.1906 57.8372 60.5055 52.7081 64.1751 49.0387Z" fill="#00A7E0"/>
<path d="M42.1086 89.6563C40.4238 87.9715 39.7793 85.8592 40.6762 84.9622L56.3366 70.5842C57.2336 69.6871 58.7047 69.6906 60.3894 71.3754C62.0742 73.0602 62.0775 74.5313 61.1806 75.4282L46.8027 91.0887C45.9057 91.9856 43.7934 91.3411 42.1086 89.6563Z" fill="#FFA318"/>
<path d="M43.8203 82.0782L49.6894 87.9473L56.7695 80.2357L51.5319 74.998L43.8203 82.0782Z" fill="#5BC0A4"/>
<defs>
<linearGradient id="paint0_linear" x1="37.487" y1="54.1303" x2="45.0459" y2="49.1308" gradientUnits="userSpaceOnUse">
<stop stop-color="#47526A"/>
<stop offset="1" stop-color="#ADADC8"/>
</linearGradient>
<linearGradient id="paint1_linear" x1="37.487" y1="54.1303" x2="45.0459" y2="49.1308" gradientUnits="userSpaceOnUse">
<stop stop-color="#47526A"/>
<stop offset="1" stop-color="#ADADC8"/>
</linearGradient>
<linearGradient id="paint2_linear" x1="74.0958" y1="42.9971" x2="74.0958" y2="72.3372" gradientUnits="userSpaceOnUse">
<stop stop-color="#70C4EA"/>
<stop offset="1" stop-color="#70C4EA" stop-opacity="0"/>
</linearGradient>
</defs>
</svg>
