<svg width="138" height="138" viewBox="0 0 138 138" fill="none" xmlns="http://www.w3.org/2000/svg">
<path d="M137.79 68.895C137.79 106.945 106.945 137.79 68.895 137.79C30.8453 137.79 0 106.945 0 68.895C0 30.8453 30.8453 0 68.895 0C106.945 0 137.79 30.8453 137.79 68.895Z" fill="#4048FF"/>
<g filter="url(#filter0_d_1064_21085)">
<ellipse cx="69.5" cy="81" rx="44.5" ry="3" fill="url(#paint0_radial_1064_21085)" fill-opacity="0.85" shape-rendering="crispEdges"/>
</g>
<g filter="url(#filter1_d_1064_21085)">
<rect x="25" y="40" width="88.7287" height="59" rx="6.4031" fill="white"/>
</g>
<path d="M96.864 63.4447H96.8457C97.2203 62.7083 97.9852 62.2036 98.8679 62.2036C99.4374 62.2036 99.9576 62.4135 100.356 62.7602H100.37H101.274C100.738 62.009 99.8603 61.519 98.8679 61.519C97.3534 61.519 96.1054 62.6598 95.9358 64.1293L97.8414 64.1292V64.8136H95.9355L95.9363 64.8189C95.964 65.0549 96.0195 65.2824 96.0994 65.4981H97.8411V67.2403C98.0582 67.3208 98.2877 67.3766 98.5254 67.4042V65.4983H99.2097V67.4043C99.4475 67.3768 99.6768 67.3211 99.8939 67.2404V65.4981H101.636C101.754 65.1784 101.819 64.8325 101.819 64.4714C101.819 64.1104 101.754 63.7645 101.636 63.4447H101.23H96.864ZM99.2098 64.8137H98.5256V64.1293H99.2098V64.8137ZM101.109 64.8137H99.8942V64.1293H101.109C101.126 64.241 101.135 64.3552 101.135 64.4716C101.135 64.5878 101.126 64.7021 101.109 64.8137Z" fill="#1F2337" fill-opacity="0.5"/>
<path d="M98.8664 60.1431C96.4764 60.1431 94.5391 62.081 94.5391 64.4714C94.5391 66.8618 96.4764 68.7998 98.8664 68.7998C101.256 68.7998 103.194 66.8618 103.194 64.4714C103.194 62.081 101.256 60.1431 98.8664 60.1431ZM98.8664 68.1141C96.8551 68.1141 95.2245 66.4832 95.2245 64.4714C95.2245 62.4596 96.8551 60.8287 98.8664 60.8287C100.878 60.8287 102.508 62.4596 102.508 64.4714C102.508 66.4832 100.878 68.1141 98.8664 68.1141Z" fill="#1F2337" fill-opacity="0.5"/>
<path d="M92.966 72.5297C92.0081 72.2843 91.7706 72.1655 91.7706 71.8013V71.7854C91.7706 71.5162 92.016 71.3025 92.4831 71.3025C92.9501 71.3025 93.433 71.5083 93.924 71.8488L94.5572 70.9304C93.9952 70.479 93.3064 70.2256 92.499 70.2256C91.3669 70.2256 90.5595 70.8908 90.5595 71.8965V71.9122C90.5595 73.0129 91.2799 73.3217 92.3961 73.6067C93.3223 73.8442 93.5123 74.0027 93.5123 74.3114V74.3273C93.5123 74.6518 93.2116 74.8499 92.7128 74.8499C92.0795 74.8499 91.5569 74.5886 91.0583 74.1767L90.3379 75.0398C91.0029 75.6336 91.85 75.9267 92.689 75.9267C93.8843 75.9267 94.7235 75.309 94.7235 74.2085V74.1926C94.7234 73.2266 94.0901 72.8227 92.966 72.5297Z" fill="#1F2337" fill-opacity="0.5"/>
<path d="M103.658 70.3047V71.429H104.916V75.8474H106.135V71.429H107.393V70.3047H103.658Z" fill="#1F2337" fill-opacity="0.5"/>
<path d="M99.7324 71.429H100.99V75.8474H102.209V71.429H103.467V70.3047H99.7324V71.429Z" fill="#1F2337" fill-opacity="0.5"/>
<path d="M98.2193 71.6712C97.9158 71.5172 97.5727 71.4302 97.2096 71.4302C95.9751 71.4302 94.9707 72.4348 94.9707 73.6696C94.9707 74.9043 95.9751 75.9089 97.2096 75.9089C97.5727 75.9089 97.9156 75.8219 98.2193 75.6679V75.9089H99.4485V71.4302H98.2193V71.6712ZM97.2096 74.6796C96.6528 74.6796 96.1999 74.2266 96.1999 73.6697C96.1999 73.1127 96.6528 72.6598 97.2096 72.6598C97.7663 72.6598 98.2193 73.1129 98.2193 73.6697C98.2193 74.2266 97.7662 74.6796 97.2096 74.6796Z" fill="#1F2337" fill-opacity="0.5"/>
<path d="M25 45.9457C25 42.662 27.662 40 30.9457 40H107.783C111.067 40 113.729 42.662 113.729 45.9457H25Z" fill="url(#paint1_linear_1064_21085)"/>
<g filter="url(#filter2_d_1064_21085)">
<rect x="28.6327" y="56.4374" width="19.7211" height="19.7211" rx="9.86053" fill="url(#paint2_radial_1064_21085)" stroke="white" stroke-width="1.56266"/>
<mask id="mask0_1064_21085" style="mask-type:alpha" maskUnits="userSpaceOnUse" x="29" y="57" width="19" height="19">
<rect x="29.1172" y="57.5259" width="18.1584" height="18.1584" rx="9.0792" transform="rotate(-1.90483 29.1172 57.5259)" fill="url(#paint3_radial_1064_21085)"/>
</mask>
<g mask="url(#mask0_1064_21085)">
<path fill-rule="evenodd" clip-rule="evenodd" d="M41.7196 70.1098C42.135 69.1354 42.1352 69.1354 42.1354 69.1355L42.1368 69.1361L42.1396 69.1373C42.1418 69.1383 42.1446 69.1395 42.1479 69.1409C42.1547 69.1439 42.1639 69.1479 42.1755 69.1529C42.1985 69.1631 42.2307 69.1774 42.271 69.1958C42.3516 69.2325 42.4649 69.2854 42.6017 69.3528C42.874 69.487 43.2462 69.6819 43.6423 69.9243C44.0354 70.1648 44.4718 70.4639 44.8621 70.8097C45.2425 71.1467 45.6399 71.5809 45.8794 72.1049C46.4214 73.2911 45.9486 74.403 45.298 75.1663C44.6519 75.9242 43.7045 76.5218 42.7721 76.9079C42.2315 77.1318 41.6119 76.875 41.388 76.3345C41.1642 75.794 41.4209 75.1743 41.9615 74.9505C42.6882 74.6495 43.3197 74.2212 43.6856 73.7919C44.047 73.368 44.0191 73.1314 43.9524 72.9854C43.8874 72.8433 43.7332 72.6401 43.4572 72.3955C43.1911 72.1598 42.8665 71.9334 42.5366 71.7316C42.2098 71.5316 41.897 71.3675 41.6651 71.2532C41.5498 71.1964 41.4562 71.1527 41.3929 71.1239C41.3613 71.1095 41.3373 71.0988 41.3221 71.0922C41.3145 71.0888 41.3092 71.0865 41.3061 71.0852L41.3038 71.0842L41.3036 71.0841C41.3036 71.0841 41.3036 71.0841 41.3036 71.0841C41.3035 71.084 41.3034 71.084 41.3033 71.084C40.7657 70.8542 40.5158 70.2323 40.7451 69.6944C40.9746 69.1562 41.5968 68.9059 42.135 69.1354L41.7196 70.1098Z" fill="url(#paint4_linear_1064_21085)"/>
<path fill-rule="evenodd" clip-rule="evenodd" d="M44.1127 73.22C44.1698 73.0942 44.318 73.0384 44.4438 73.0954C44.4502 73.0983 44.4566 73.1012 44.4629 73.1041C44.5726 73.1539 44.6742 73.2001 44.8212 73.2335C44.977 73.269 45.1932 73.2917 45.5186 73.2715C45.6565 73.2629 45.7752 73.3678 45.7838 73.5056C45.7923 73.6435 45.6875 73.7622 45.5496 73.7708C45.1868 73.7933 44.9216 73.7694 44.7103 73.7213C44.5124 73.6763 44.3702 73.6116 44.2598 73.5613C44.2522 73.5578 44.2446 73.5544 44.2373 73.551C44.1115 73.494 44.0557 73.3458 44.1127 73.22Z" fill="url(#paint5_linear_1064_21085)" fill-opacity="0.3"/>
<path fill-rule="evenodd" clip-rule="evenodd" d="M44.049 72.6622C44.0513 72.5241 44.1652 72.414 44.3033 72.4164C44.3072 72.4164 44.3111 72.4165 44.3149 72.4166C44.406 72.4182 44.4732 72.4193 44.5577 72.3973C44.6438 72.3748 44.7624 72.3231 44.9262 72.193C45.0343 72.1071 45.1917 72.1251 45.2776 72.2333C45.3635 72.3414 45.3455 72.4988 45.2373 72.5847C45.0305 72.7491 44.8504 72.8378 44.6842 72.8813C44.5312 72.9213 44.4022 72.9187 44.3139 72.9169C44.3073 72.9168 44.3009 72.9166 44.2948 72.9165C44.1567 72.9142 44.0466 72.8003 44.049 72.6622Z" fill="url(#paint6_linear_1064_21085)" fill-opacity="0.3"/>
<path fill-rule="evenodd" clip-rule="evenodd" d="M43.9899 73.6763C44.1037 73.598 44.2594 73.6269 44.3377 73.7407C44.3399 73.744 44.3421 73.7471 44.3442 73.7503C44.3958 73.8254 44.4339 73.8809 44.5008 73.9368C44.5692 73.9939 44.6801 74.0605 44.881 74.1184C45.0138 74.1566 45.0904 74.2952 45.0522 74.4279C45.014 74.5607 44.8754 74.6373 44.7427 74.5991C44.4887 74.526 44.312 74.4308 44.1801 74.3207C44.0588 74.2193 43.986 74.1128 43.9362 74.0398C43.9325 74.0344 43.9289 74.0291 43.9254 74.0241C43.8472 73.9102 43.876 73.7545 43.9899 73.6763Z" fill="url(#paint7_linear_1064_21085)" fill-opacity="0.3"/>
<path fill-rule="evenodd" clip-rule="evenodd" d="M35.2628 70.1098C34.8474 69.1354 34.8472 69.1354 34.847 69.1355L34.8456 69.1361L34.8428 69.1373C34.8407 69.1383 34.8379 69.1395 34.8345 69.1409C34.8277 69.1439 34.8185 69.1479 34.807 69.1529C34.7839 69.1631 34.7517 69.1774 34.7114 69.1958C34.6308 69.2325 34.5176 69.2854 34.3807 69.3528C34.1085 69.487 33.7363 69.6819 33.3401 69.9243C32.947 70.1648 32.5106 70.4639 32.1203 70.8097C31.74 71.1467 31.3425 71.5809 31.103 72.1049C30.561 73.2911 31.0338 74.403 31.6844 75.1663C32.3305 75.9242 33.2779 76.5218 34.2104 76.9079C34.7509 77.1318 35.3706 76.875 35.5944 76.3345C35.8182 75.794 35.5615 75.1743 35.021 74.9505C34.2942 74.6495 33.6627 74.2212 33.2968 73.7919C32.9355 73.368 32.9634 73.1314 33.0301 72.9854C33.095 72.8433 33.2492 72.6401 33.5253 72.3955C33.7913 72.1598 34.116 71.9334 34.4458 71.7316C34.7727 71.5316 35.0854 71.3675 35.3173 71.2532C35.4326 71.1964 35.5262 71.1527 35.5895 71.1239C35.6212 71.1095 35.6451 71.0988 35.6603 71.0922C35.6679 71.0888 35.6733 71.0865 35.6763 71.0852L35.6786 71.0842L35.6788 71.0841C35.6788 71.0841 35.6788 71.0841 35.6789 71.0841C35.679 71.084 35.679 71.084 35.6791 71.084C36.2167 70.8542 36.4666 70.2323 36.2373 69.6944C36.0079 69.1562 35.3856 68.9059 34.8474 69.1354L35.2628 70.1098Z" fill="url(#paint8_linear_1064_21085)"/>
<path fill-rule="evenodd" clip-rule="evenodd" d="M32.8697 73.22C32.8127 73.0942 32.6644 73.0384 32.5386 73.0954C32.5322 73.0983 32.5259 73.1012 32.5195 73.1041C32.4098 73.1539 32.3082 73.2001 32.1612 73.2335C32.0054 73.269 31.7892 73.2917 31.4638 73.2715C31.3259 73.2629 31.2072 73.3678 31.1987 73.5056C31.1901 73.6435 31.2949 73.7622 31.4328 73.7708C31.7956 73.7933 32.0608 73.7694 32.2722 73.7213C32.47 73.6763 32.6122 73.6116 32.7226 73.5613C32.7303 73.5578 32.7378 73.5544 32.7451 73.551C32.871 73.494 32.9267 73.3458 32.8697 73.22Z" fill="url(#paint9_linear_1064_21085)" fill-opacity="0.3"/>
<path fill-rule="evenodd" clip-rule="evenodd" d="M32.9335 72.6622C32.9311 72.5241 32.8172 72.414 32.6791 72.4164C32.6752 72.4164 32.6714 72.4165 32.6675 72.4166C32.5764 72.4182 32.5092 72.4193 32.4248 72.3973C32.3386 72.3748 32.22 72.3231 32.0563 72.193C31.9481 72.1071 31.7908 72.1251 31.7048 72.2333C31.6189 72.3414 31.6369 72.4988 31.7451 72.5847C31.952 72.7491 32.1321 72.8378 32.2982 72.8813C32.4512 72.9213 32.5802 72.9187 32.6686 72.9169C32.6752 72.9168 32.6815 72.9166 32.6877 72.9165C32.8258 72.9142 32.9358 72.8003 32.9335 72.6622Z" fill="url(#paint10_linear_1064_21085)" fill-opacity="0.3"/>
<path fill-rule="evenodd" clip-rule="evenodd" d="M32.9926 73.6763C32.8787 73.598 32.723 73.6269 32.6448 73.7407C32.6425 73.744 32.6404 73.7471 32.6382 73.7503C32.5866 73.8254 32.5485 73.8809 32.4816 73.9368C32.4132 73.9939 32.3024 74.0605 32.1014 74.1184C31.9686 74.1566 31.892 74.2952 31.9302 74.4279C31.9684 74.5607 32.107 74.6373 32.2398 74.5991C32.4937 74.526 32.6705 74.4308 32.8023 74.3207C32.9236 74.2193 32.9964 74.1128 33.0462 74.0398C33.05 74.0344 33.0535 74.0291 33.057 74.0241C33.1353 73.9102 33.1064 73.7545 32.9926 73.6763Z" fill="url(#paint11_linear_1064_21085)" fill-opacity="0.3"/>
<path d="M37.4299 68.7622C36.2242 68.7622 35.1635 69.5683 34.9459 70.7541C34.4552 73.4275 34.1528 76.9222 34.7968 77.9998C35.5039 79.1829 37.0872 79.5427 38.0968 79.5944V79.5969C38.166 79.6002 38.2417 79.6018 38.3229 79.6012C38.404 79.6018 38.4798 79.6002 38.549 79.5969V79.5944C39.5586 79.5427 41.1419 79.1829 41.8489 77.9998C42.4929 76.9222 42.1906 73.4275 41.6999 70.7541C41.4822 69.5683 40.4215 68.7622 39.2159 68.7622H37.4299Z" fill="url(#paint12_linear_1064_21085)"/>
<g filter="url(#filter3_d_1064_21085)">
<rect x="36.0957" y="71.6934" width="2.46499" height="1.9333" rx="0.578911" fill="url(#paint13_linear_1064_21085)"/>
<rect x="35.9992" y="71.5969" width="2.65796" height="2.12627" rx="0.675396" stroke="#EFF2F3" stroke-width="0.19297"/>
</g>
<path d="M36.9989 72.4946H36.9959C37.0569 72.3771 37.1815 72.2967 37.3253 72.2967C37.4181 72.2967 37.5029 72.3301 37.5677 72.3854H37.57H37.7172C37.6301 72.2656 37.487 72.1875 37.3253 72.1875C37.0786 72.1875 36.8753 72.3694 36.8477 72.6038L37.1581 72.6037V72.7129H36.8477L36.8478 72.7137C36.8523 72.7514 36.8613 72.7876 36.8743 72.8221H37.1581V73.0999C37.1934 73.1127 37.2308 73.1216 37.2696 73.126V72.8221H37.381V73.126C37.4198 73.1216 37.4571 73.1128 37.4925 73.0999V72.8221H37.7762C37.7955 72.7711 37.8061 72.7159 37.8061 72.6583C37.8061 72.6007 37.7955 72.5456 37.7762 72.4946H37.7102H36.9989ZM37.381 72.7129H37.2696V72.6038H37.381V72.7129ZM37.6905 72.7129H37.4925V72.6038H37.6905C37.6932 72.6216 37.6947 72.6398 37.6947 72.6584C37.6947 72.6769 37.6932 72.6951 37.6905 72.7129Z" fill="#EFEFEF"/>
<path d="M37.3241 71.9683C36.9347 71.9683 36.6191 72.2773 36.6191 72.6585C36.6191 73.0397 36.9347 73.3488 37.3241 73.3488C37.7134 73.3488 38.029 73.0397 38.029 72.6585C38.029 72.2773 37.7134 71.9683 37.3241 71.9683ZM37.3241 73.2394C36.9964 73.2394 36.7308 72.9793 36.7308 72.6585C36.7308 72.3377 36.9964 72.0776 37.3241 72.0776C37.6517 72.0776 37.9174 72.3377 37.9174 72.6585C37.9174 72.9793 37.6517 73.2394 37.3241 73.2394Z" fill="#EFEFEF"/>
<g filter="url(#filter4_d_1064_21085)">
<ellipse cx="40.1966" cy="72.1009" rx="0.407503" ry="0.407504" fill="url(#paint14_radial_1064_21085)"/>
<path d="M40.1966 72.6049C40.4749 72.6049 40.7006 72.3792 40.7006 72.1009C40.7006 71.8225 40.4749 71.5969 40.1966 71.5969C39.9182 71.5969 39.6926 71.8225 39.6926 72.1009C39.6926 72.3792 39.9182 72.6049 40.1966 72.6049Z" stroke="#EFF2F3" stroke-width="0.19297"/>
</g>
<g filter="url(#filter5_d_1064_21085)">
<ellipse cx="40.1966" cy="73.219" rx="0.407503" ry="0.407504" fill="url(#paint15_radial_1064_21085)"/>
<path d="M40.1966 73.723C40.4749 73.723 40.7006 73.4974 40.7006 73.219C40.7006 72.9407 40.4749 72.715 40.1966 72.715C39.9182 72.715 39.6926 72.9407 39.6926 73.219C39.6926 73.4974 39.9182 73.723 40.1966 73.723Z" stroke="#EFF2F3" stroke-width="0.19297"/>
</g>
<mask id="mask1_1064_21085" style="mask-type:alpha" maskUnits="userSpaceOnUse" x="34" y="68" width="9" height="12">
<path opacity="0.5" d="M37.5647 68.8247C36.359 68.8247 35.2983 69.6308 35.0806 70.8166C34.5899 73.49 34.2876 76.9847 34.9316 78.0623C35.6386 79.2454 37.222 79.6052 38.2315 79.6569V79.6594C38.3008 79.6627 38.3765 79.6643 38.4576 79.6637C38.5388 79.6643 38.6145 79.6627 38.6837 79.6594V79.6569C39.6933 79.6052 41.2766 79.2454 41.9837 78.0623C42.6277 76.9847 42.3253 73.49 41.8346 70.8166C41.617 69.6308 40.5563 68.8247 39.3506 68.8247H37.5647Z" fill="url(#paint16_linear_1064_21085)"/>
</mask>
<g mask="url(#mask1_1064_21085)">
<g filter="url(#filter6_f_1064_21085)">
<path fill-rule="evenodd" clip-rule="evenodd" d="M41.6598 69.7526C40.7437 70.1524 38.5681 71.0673 37.1248 71.5586C35.6693 72.0541 34.5958 71.6861 34.4316 71.0424C34.7046 69.6827 35.9314 68.7622 37.3237 68.7622H39.4094C40.2935 68.7622 41.111 69.1334 41.6598 69.7526Z" fill="url(#paint17_linear_1064_21085)"/>
</g>
</g>
<path d="M39.3673 70.2535C42.2632 69.8083 44.25 67.0998 43.8049 64.2039C43.3598 61.3079 40.6513 59.3211 37.7553 59.7663C34.8594 60.2114 32.8726 62.9199 33.3177 65.8159C33.7628 68.7118 36.4713 70.6986 39.3673 70.2535Z" fill="url(#paint18_radial_1064_21085)"/>
<path d="M42.0854 65.0627C42.0854 65.7891 41.8889 66.1827 41.2736 66.3908L35.849 66.3908C35.2337 66.1827 35.0371 65.7891 35.0371 65.0627C35.0371 62.4805 36.6149 61.5386 38.5613 61.5386C40.5076 61.5386 42.0854 62.4603 42.0854 65.0627Z" fill="url(#paint19_linear_1064_21085)" stroke="#848484" stroke-width="0.390665"/>
<g style="mix-blend-mode:multiply">
<path d="M41.735 63.5439C41.2334 62.4227 40.5404 61.7555 38.757 61.6224C39.7002 61.9497 39.0883 62.9789 39.1795 64.042C39.2857 65.2979 41.2647 65.542 40.9534 65.9395C40.8538 66.0646 40.7008 66.1403 40.5404 66.1413L35.7246 66.1644C35.7943 66.2795 35.8055 66.3262 35.9771 66.3242L41.1389 66.3242C41.2993 66.3231 41.6818 66.2207 41.9244 65.7251C42.0857 65.3955 41.8542 63.8104 41.735 63.5439Z" fill="url(#paint20_radial_1064_21085)"/>
</g>
<path d="M41.2279 65.0098C41.3436 65.4066 40.9054 65.9523 40.459 65.9523" stroke="white" stroke-width="0.334856" stroke-linecap="round"/>
<path d="M36.0098 63.9646C36.0837 63.4207 36.5706 62.3266 37.9266 62.3013" stroke="white" stroke-width="0.334856" stroke-linecap="round"/>
<g filter="url(#filter7_f_1064_21085)">
<path d="M35.9239 65.9486C35.2826 65.3743 35.5769 64.0821 35.8042 63.5079L36.6537 63.1968C35.6774 64.8814 36.8451 65.7332 37.5511 65.9486H35.9239Z" fill="url(#paint21_linear_1064_21085)"/>
</g>
</g>
</g>
<g filter="url(#filter8_bii_1064_21085)">
<path d="M25 45.9457C25 42.662 27.662 40 30.9457 40H107.783C111.067 40 113.729 42.662 113.729 45.9457H25Z" fill="url(#paint22_linear_1064_21085)" fill-opacity="0.1"/>
</g>
<rect x="25" y="47.3179" width="88.7287" height="5.94574" fill="url(#paint23_linear_1064_21085)"/>
<g filter="url(#filter9_bii_1064_21085)">
<rect x="25" y="47.3179" width="88.7287" height="5.94574" fill="url(#paint24_linear_1064_21085)" fill-opacity="0.1"/>
</g>
<path d="M57.3762 60.6357H58.5837L57.3945 58.9481L58.5105 57.3976H57.3625L56.4341 58.7605V57.3976H55.4187V60.6357H56.4341V59.2316L57.3762 60.6357ZM59.9415 59.6524V60.6357H60.9569V59.6524L62.1186 57.3976H60.9752L60.4583 58.5456L59.9415 57.3976H58.7798L59.9415 59.6524ZM62.3951 59.0121C62.3951 59.9771 63.0034 60.6586 63.9959 60.6586C64.8512 60.6586 65.432 60.1464 65.5647 59.3826H64.4944C64.3984 59.5975 64.2063 59.721 63.9776 59.721C63.6346 59.721 63.4242 59.442 63.4242 59.0121C63.4242 58.5822 63.6346 58.3032 63.9776 58.3032C64.2063 58.3032 64.3984 58.4267 64.4944 58.6416H65.5647C65.432 57.8778 64.8512 57.3656 63.9959 57.3656C63.0034 57.3656 62.3951 58.0471 62.3951 59.0121Z" fill="#1F2337"/>
<path d="M55.0098 65.4106H55.3748V63.1856H55.0098V65.4106ZM56.6768 63.1856H55.95V65.4106H56.6768C57.3907 65.4106 57.8581 64.9912 57.8581 64.3061C57.8581 63.6178 57.3907 63.1856 56.6768 63.1856ZM56.315 65.1129V63.4833H56.6768C57.2018 63.4833 57.4836 63.7971 57.4836 64.3061C57.4836 64.812 57.2018 65.1129 56.6768 65.1129H56.315ZM58.6937 65.1993C58.6937 65.0681 58.5912 64.9656 58.4632 64.9656C58.3319 64.9656 58.2295 65.0681 58.2295 65.1993C58.2295 65.3306 58.3319 65.4331 58.4632 65.4331C58.5912 65.4331 58.6937 65.3306 58.6937 65.1993ZM58.6937 63.8547C58.6937 63.7234 58.5912 63.621 58.4632 63.621C58.3319 63.621 58.2295 63.7234 58.2295 63.8547C58.2295 63.986 58.3319 64.0884 58.4632 64.0884C58.5912 64.0884 58.6937 63.986 58.6937 63.8547ZM60.3261 65.4106H60.6943V63.0767H60.0284V63.4097H60.3261V65.4106ZM61.2629 65.3786H62.8189V65.0745H61.804C62.1786 64.7319 62.7548 64.2997 62.7548 63.733C62.7548 63.3136 62.4859 63.0287 62.0121 63.0287C61.5991 63.0287 61.2725 63.2752 61.2597 63.7811H61.6119C61.6215 63.5185 61.7592 63.3392 62.0153 63.3392C62.2874 63.3392 62.3931 63.5057 62.3931 63.749C62.3931 64.2069 61.8136 64.6295 61.2629 65.1129V65.3786ZM63.2291 63.653H63.5845C63.6069 63.4897 63.7254 63.336 63.9815 63.336C64.2312 63.336 64.3625 63.4705 64.3625 63.6722C64.3625 63.9219 64.1608 64.018 63.831 64.0212H63.7446V64.3221H63.8278C64.2088 64.3221 64.4073 64.4278 64.4073 64.7351C64.4073 64.9528 64.2728 65.1193 64.0007 65.1193C63.7254 65.1193 63.5653 64.9528 63.5493 64.7351H63.1971C63.2195 65.1929 63.5621 65.4235 64.0039 65.4235C64.4906 65.4235 64.7531 65.1417 64.7531 64.7703C64.7531 64.447 64.5962 64.2453 64.3529 64.1716V64.1588C64.5354 64.098 64.7115 63.9091 64.7115 63.6306C64.7115 63.2912 64.4585 63.0223 63.9943 63.0223C63.5685 63.0223 63.2548 63.2496 63.2291 63.653ZM66.3467 65.4106H66.7052V64.924H67.003V64.6071H66.7052V63.1055H66.2634L65.1877 64.6487V64.924H66.3467V65.4106ZM65.6071 64.6071L66.3627 63.4769V64.6071H65.6071ZM67.4975 63.0703V64.4182H67.8433C67.9041 64.2453 68.0482 64.1268 68.2627 64.1268C68.5668 64.1268 68.7173 64.2997 68.7173 64.6039C68.7173 64.892 68.5764 65.1065 68.2627 65.1065C68.0161 65.1065 67.8497 64.9784 67.8016 64.7799H67.4463C67.5007 65.1449 67.7792 65.4106 68.2595 65.4106C68.8005 65.4106 69.0662 65.0585 69.0662 64.5942C69.0662 64.2421 68.8902 63.8163 68.3171 63.8163C68.109 63.8163 67.9201 63.9123 67.8336 64.0276V63.3905H68.9062V63.0703H67.4975ZM71.1334 63.6178C71.095 63.3072 70.8677 63.0191 70.413 63.0191C69.8304 63.0191 69.587 63.4609 69.587 64.1909C69.587 64.9336 69.7631 65.4106 70.4419 65.4106C70.9413 65.4106 71.207 65.0745 71.207 64.6327C71.207 64.146 70.9093 63.8643 70.4899 63.8643C70.2466 63.8643 70.0161 63.9667 69.9008 64.1588C69.9104 63.5473 70.0801 63.3232 70.4098 63.3232C70.6404 63.3232 70.7524 63.4289 70.7972 63.6178H71.1334ZM70.4098 64.1716C70.7172 64.1716 70.8581 64.3701 70.8581 64.6487C70.8581 64.924 70.6916 65.1065 70.4227 65.1065C70.1121 65.1065 69.9424 64.9144 69.9424 64.6263C69.9424 64.3157 70.1697 64.1716 70.4098 64.1716ZM71.6284 63.0863V63.3969H72.8129L71.9133 65.4106H72.2815L73.1715 63.3585V63.0863H71.6284ZM73.9737 64.1909C73.74 64.2773 73.5831 64.4854 73.5831 64.7671C73.5831 65.1929 73.9289 65.4683 74.4091 65.4683C74.8926 65.4683 75.2383 65.1929 75.2383 64.7671C75.2383 64.4886 75.0815 64.2805 74.8445 64.1909C75.0334 64.098 75.1775 63.9155 75.1775 63.6658C75.1775 63.3296 74.9246 63.0351 74.4091 63.0351C73.8937 63.0351 73.6408 63.3264 73.6408 63.6658C73.6408 63.9251 73.7752 64.0916 73.9737 64.1909ZM74.4091 64.0756C74.1658 64.0756 73.9929 63.9251 73.9929 63.7138C73.9929 63.4673 74.1594 63.3392 74.4091 63.3392C74.6653 63.3392 74.8285 63.4705 74.8285 63.7106C74.8285 63.9219 74.6524 64.0756 74.4091 64.0756ZM74.4091 64.3509C74.6845 64.3509 74.8798 64.4918 74.8798 64.7543C74.8798 64.988 74.7037 65.1641 74.4091 65.1641C74.1114 65.1641 73.9321 64.9912 73.9321 64.7543C73.9321 64.4822 74.1402 64.3509 74.4091 64.3509ZM75.836 64.7767C75.8649 65.1097 76.089 65.4074 76.5724 65.4074C77.1839 65.4074 77.3504 64.988 77.3504 64.2005C77.3504 63.4353 77.1487 63.0223 76.5468 63.0223C76.057 63.0223 75.772 63.3296 75.772 63.7939C75.772 64.2869 76.105 64.5398 76.5148 64.5398C76.7261 64.5398 76.9278 64.4598 77.0334 64.3125C77.0334 64.908 76.8862 65.1033 76.5948 65.1033C76.3515 65.1033 76.2138 64.9848 76.1722 64.7767H75.836ZM76.5788 64.2325C76.2555 64.2325 76.121 64.0244 76.121 63.7843C76.121 63.5153 76.2843 63.3264 76.5564 63.3264C76.8221 63.3264 76.9918 63.4961 76.9918 63.7939C76.9918 64.0564 76.8381 64.2325 76.5788 64.2325Z" fill="#1F2337"/>
<path d="M56.8888 68.6711V70.3295L55.7906 68.6711H55.4257V70.8994H55.7906V69.2378L56.8888 70.8994H57.2537V68.6711H56.8888ZM57.7074 70.0094C57.7074 70.5536 58.0756 70.9282 58.5334 70.9282C58.828 70.9282 59.0393 70.7874 59.1513 70.6369V70.8994H59.5195V69.1354H59.1513V69.3915C59.0425 69.2474 58.8376 69.1065 58.5398 69.1065C58.0756 69.1065 57.7074 69.4651 57.7074 70.0094ZM59.1513 70.0158C59.1513 70.3968 58.892 70.6113 58.6167 70.6113C58.3445 70.6113 58.082 70.3904 58.082 70.0094C58.082 69.6284 58.3445 69.4235 58.6167 69.4235C58.892 69.4235 59.1513 69.638 59.1513 70.0158ZM62.5953 70.8994H62.9571V69.8589C62.9571 69.3659 62.6434 69.1065 62.2304 69.1065C61.9742 69.1065 61.7245 69.241 61.6157 69.4555C61.494 69.225 61.2603 69.1065 60.9818 69.1065C60.7705 69.1065 60.5784 69.193 60.4599 69.3371V69.1354H60.0949V70.8994H60.4599V69.9133C60.4599 69.59 60.636 69.4235 60.9049 69.4235C61.1706 69.4235 61.3467 69.59 61.3467 69.9133V70.8994H61.7085V69.9133C61.7085 69.59 61.8846 69.4235 62.1535 69.4235C62.4192 69.4235 62.5953 69.59 62.5953 69.9133V70.8994ZM64.2603 69.4139C64.5325 69.4139 64.747 69.5868 64.7534 69.8589H63.7769C63.8153 69.5804 64.0138 69.4139 64.2603 69.4139ZM65.0863 70.3744H64.6926C64.6253 70.512 64.5005 70.6209 64.2763 70.6209C64.0074 70.6209 63.7993 70.4448 63.7737 70.1535H65.1216C65.1312 70.0926 65.1344 70.035 65.1344 69.9742C65.1344 69.4555 64.779 69.1065 64.2763 69.1065C63.7545 69.1065 63.3959 69.4619 63.3959 70.0158C63.3959 70.5697 63.7705 70.9282 64.2763 70.9282C64.7086 70.9282 64.9871 70.6817 65.0863 70.3744ZM65.9674 70.6881C65.9674 70.5568 65.8649 70.4544 65.7369 70.4544C65.6056 70.4544 65.5031 70.5568 65.5031 70.6881C65.5031 70.8194 65.6056 70.9218 65.7369 70.9218C65.8649 70.9218 65.9674 70.8194 65.9674 70.6881ZM65.9674 69.3435C65.9674 69.2122 65.8649 69.1097 65.7369 69.1097C65.6056 69.1097 65.5031 69.2122 65.5031 69.3435C65.5031 69.4747 65.6056 69.5772 65.7369 69.5772C65.8649 69.5772 65.9674 69.4747 65.9674 69.3435Z" fill="#1F2337"/>
<path d="M56.9272 80.0464H57.3114L56.5142 77.8181H56.0916L55.2944 80.0464H55.6754L55.8355 79.5918H56.7671L56.9272 80.0464ZM56.6647 79.294H55.9379L56.3029 78.2599L56.6647 79.294ZM57.6324 79.1564C57.6324 79.7006 58.0006 80.0752 58.4648 80.0752C58.7529 80.0752 58.9642 79.9407 59.0763 79.7807V80.0464H59.4445V77.6772H59.0763V78.5289C58.9418 78.3624 58.6985 78.2535 58.468 78.2535C58.0006 78.2535 57.6324 78.6121 57.6324 79.1564ZM59.0763 79.1628C59.0763 79.5437 58.817 79.7582 58.5416 79.7582C58.2695 79.7582 58.007 79.5373 58.007 79.1564C58.007 78.7754 58.2695 78.5705 58.5416 78.5705C58.817 78.5705 59.0763 78.785 59.0763 79.1628ZM60.3849 79.1179C60.3849 78.7434 60.5513 78.6313 60.8203 78.6313H60.9131V78.2535C60.6634 78.2535 60.4873 78.3624 60.3849 78.5385V78.2823H60.0199V80.0464H60.3849V79.1179ZM62.0874 78.5609C62.3595 78.5609 62.574 78.7338 62.5805 79.0059H61.604C61.6424 78.7273 61.8409 78.5609 62.0874 78.5609ZM62.9134 79.5213H62.5196C62.4524 79.659 62.3275 79.7679 62.1034 79.7679C61.8345 79.7679 61.6264 79.5918 61.6008 79.3004H62.9486C62.9582 79.2396 62.9614 79.182 62.9614 79.1211C62.9614 78.6025 62.6061 78.2535 62.1034 78.2535C61.5816 78.2535 61.223 78.6089 61.223 79.1628C61.223 79.7166 61.5976 80.0752 62.1034 80.0752C62.5356 80.0752 62.8142 79.8287 62.9134 79.5213ZM64.7325 79.5533C64.7133 78.9162 63.7176 79.1147 63.7176 78.7594C63.7176 78.6409 63.8201 78.5609 64.0153 78.5609C64.2138 78.5609 64.3323 78.6665 64.3451 78.8202H64.7101C64.6909 78.468 64.4283 78.2535 64.0282 78.2535C63.612 78.2535 63.3494 78.4808 63.3494 78.7626C63.3494 79.4093 64.3739 79.2108 64.3739 79.5565C64.3739 79.6782 64.2619 79.7679 64.0506 79.7679C63.8489 79.7679 63.7112 79.6494 63.6984 79.5053H63.3206C63.3366 79.8255 63.6344 80.0752 64.057 80.0752C64.4732 80.0752 64.7325 79.8511 64.7325 79.5533ZM66.5387 79.5533C66.5195 78.9162 65.5239 79.1147 65.5239 78.7594C65.5239 78.6409 65.6263 78.5609 65.8216 78.5609C66.0201 78.5609 66.1386 78.6665 66.1514 78.8202H66.5163C66.4971 78.468 66.2346 78.2535 65.8344 78.2535C65.4182 78.2535 65.1557 78.4808 65.1557 78.7626C65.1557 79.4093 66.1802 79.2108 66.1802 79.5565C66.1802 79.6782 66.0681 79.7679 65.8568 79.7679C65.6551 79.7679 65.5174 79.6494 65.5046 79.5053H65.1269C65.1429 79.8255 65.4406 80.0752 65.8632 80.0752C66.2794 80.0752 66.5387 79.8511 66.5387 79.5533ZM67.4069 79.8351C67.4069 79.7038 67.3045 79.6014 67.1764 79.6014C67.0452 79.6014 66.9427 79.7038 66.9427 79.8351C66.9427 79.9663 67.0452 80.0688 67.1764 80.0688C67.3045 80.0688 67.4069 79.9663 67.4069 79.8351ZM67.4069 78.4904C67.4069 78.3592 67.3045 78.2567 67.1764 78.2567C67.0452 78.2567 66.9427 78.3592 66.9427 78.4904C66.9427 78.6217 67.0452 78.7241 67.1764 78.7241C67.3045 78.7241 67.4069 78.6217 67.4069 78.4904Z" fill="#1F2337"/>
<path d="M55.7906 87.9933V87.2665H56.194C56.479 87.2665 56.607 87.401 56.607 87.6315C56.607 87.8556 56.479 87.9933 56.194 87.9933H55.7906ZM56.9816 87.6315C56.9816 87.2697 56.7223 86.9688 56.194 86.9688H55.4257V89.1938H55.7906V88.291H56.194C56.7735 88.291 56.9816 87.9484 56.9816 87.6315ZM57.4258 89.1938H57.7907V88.2078C57.7907 87.8844 57.9668 87.7179 58.2357 87.7179C58.5015 87.7179 58.6776 87.8844 58.6776 88.2078V89.1938H59.0393V88.1533C59.0393 87.6603 58.732 87.401 58.3382 87.401C58.1109 87.401 57.9124 87.4874 57.7907 87.6347V86.8247H57.4258V89.1938ZM61.2817 88.3102C61.2817 87.7564 60.8848 87.401 60.3821 87.401C59.8795 87.401 59.4825 87.7564 59.4825 88.3102C59.4825 88.8641 59.8635 89.2227 60.3661 89.2227C60.872 89.2227 61.2817 88.8641 61.2817 88.3102ZM59.8539 88.3102C59.8539 87.91 60.1004 87.7179 60.3757 87.7179C60.6478 87.7179 60.9072 87.91 60.9072 88.3102C60.9072 88.7104 60.6382 88.9057 60.3661 88.9057C60.0908 88.9057 59.8539 88.7104 59.8539 88.3102ZM62.9904 89.1938H63.3522V88.1533C63.3522 87.6603 63.0416 87.401 62.6286 87.401C62.4173 87.401 62.222 87.4874 62.1036 87.6315V87.4298H61.7386V89.1938H62.1036V88.2078C62.1036 87.8844 62.2797 87.7179 62.5486 87.7179C62.8143 87.7179 62.9904 87.8844 62.9904 88.2078V89.1938ZM64.6565 87.7083C64.9287 87.7083 65.1432 87.8812 65.1496 88.1533H64.1731C64.2115 87.8748 64.41 87.7083 64.6565 87.7083ZM65.4825 88.6688H65.0887C65.0215 88.8065 64.8966 88.9153 64.6725 88.9153C64.4036 88.9153 64.1955 88.7392 64.1699 88.4479H65.5178C65.5274 88.3871 65.5306 88.3294 65.5306 88.2686C65.5306 87.7499 65.1752 87.401 64.6725 87.401C64.1507 87.401 63.7921 87.7564 63.7921 88.3102C63.7921 88.8641 64.1667 89.2227 64.6725 89.2227C65.1048 89.2227 65.3833 88.9761 65.4825 88.6688ZM66.3636 88.9825C66.3636 88.8513 66.2611 88.7488 66.133 88.7488C66.0018 88.7488 65.8993 88.8513 65.8993 88.9825C65.8993 89.1138 66.0018 89.2163 66.133 89.2163C66.2611 89.2163 66.3636 89.1138 66.3636 88.9825ZM66.3636 87.6379C66.3636 87.5066 66.2611 87.4042 66.133 87.4042C66.0018 87.4042 65.8993 87.5066 65.8993 87.6379C65.8993 87.7692 66.0018 87.8716 66.133 87.8716C66.2611 87.8716 66.3636 87.7692 66.3636 87.6379Z" fill="#1F2337"/>
<path d="M55.4065 74.5581H55.8547V73.1046L56.4566 74.5581H56.7959L57.3946 73.1046V74.5581H57.8428V72.3234H57.337L56.6262 73.985L55.9155 72.3234H55.4065V74.5581ZM60.5623 73.4344C60.5623 72.7652 60.0564 72.2914 59.4193 72.2914C58.7886 72.2914 58.2732 72.7652 58.2732 73.4344C58.2732 74.1067 58.7886 74.5805 59.4193 74.5805C60.0532 74.5805 60.5623 74.1067 60.5623 73.4344ZM58.7342 73.4344C58.7342 72.9797 59.0127 72.6948 59.4193 72.6948C59.8227 72.6948 60.1013 72.9797 60.1013 73.4344C60.1013 73.889 59.8227 74.1803 59.4193 74.1803C59.0127 74.1803 58.7342 73.889 58.7342 73.4344ZM63.172 73.4344C63.172 72.7652 62.6662 72.2914 62.0291 72.2914C61.3984 72.2914 60.8829 72.7652 60.8829 73.4344C60.8829 74.1067 61.3984 74.5805 62.0291 74.5805C62.663 74.5805 63.172 74.1067 63.172 73.4344ZM61.344 73.4344C61.344 72.9797 61.6225 72.6948 62.0291 72.6948C62.4325 72.6948 62.711 72.9797 62.711 73.4344C62.711 73.889 62.4325 74.1803 62.0291 74.1803C61.6225 74.1803 61.344 73.889 61.344 73.4344ZM65.0647 72.3202V73.857L64.0498 72.3202H63.6015V74.5581H64.0498V73.0246L65.0647 74.5581H65.5129V72.3202H65.0647ZM68.1562 73.8986C68.1562 74.0875 68.0281 74.1931 67.8104 74.1931H67.359V73.5912H67.8008C68.0185 73.5912 68.1562 73.7065 68.1562 73.8986ZM68.1018 72.9669C68.1018 73.1494 67.9801 73.2455 67.7688 73.2455H67.359V72.6852H67.7688C67.9801 72.6852 68.1018 72.7876 68.1018 72.9669ZM68.6108 73.953C68.6108 73.6905 68.4315 73.4568 68.1786 73.412C68.3963 73.3415 68.5596 73.1718 68.5596 72.8997C68.5596 72.5667 68.3002 72.3234 67.8328 72.3234H66.9108V74.5581H67.8744C68.3387 74.5581 68.6108 74.3084 68.6108 73.953ZM71.2443 73.4344C71.2443 72.7652 70.7385 72.2914 70.1014 72.2914C69.4707 72.2914 68.9552 72.7652 68.9552 73.4344C68.9552 74.1067 69.4707 74.5805 70.1014 74.5805C70.7353 74.5805 71.2443 74.1067 71.2443 73.4344ZM69.4162 73.4344C69.4162 72.9797 69.6948 72.6948 70.1014 72.6948C70.5048 72.6948 70.7833 72.9797 70.7833 73.4344C70.7833 73.889 70.5048 74.1803 70.1014 74.1803C69.6948 74.1803 69.4162 73.889 69.4162 73.4344ZM72.2469 73.7801V74.5581H72.6951V73.7801L73.4507 72.3234H72.9512L72.4742 73.3447L71.994 72.3234H71.4881L72.2469 73.7801Z" fill="#1F2337"/>
<path d="M55.288 81.8327H55.8835V83.7056H56.3317V81.8327H56.9272V81.4709H55.288V81.8327ZM58.7558 83.7056H59.204V81.4709H58.7558V82.3897H57.7985V81.4709H57.3503V83.7056H57.7985V82.7547H58.7558V83.7056ZM61.0378 81.4677H59.7412V83.7056H61.0378V83.3406H60.1894V82.7483H60.9418V82.3929H60.1894V81.8327H61.0378V81.4677ZM62.4001 83.7056H62.8483V82.2521L63.4502 83.7056H63.7896L64.3883 82.2521V83.7056H64.8365V81.4709H64.3306L63.6199 83.1325L62.9091 81.4709H62.4001V83.7056ZM67.5559 82.5818C67.5559 81.9127 67.0501 81.4389 66.413 81.4389C65.7823 81.4389 65.2668 81.9127 65.2668 82.5818C65.2668 83.2541 65.7823 83.728 66.413 83.728C67.0469 83.728 67.5559 83.2541 67.5559 82.5818ZM65.7278 82.5818C65.7278 82.1272 66.0064 81.8423 66.413 81.8423C66.8164 81.8423 67.0949 82.1272 67.0949 82.5818C67.0949 83.0364 66.8164 83.3278 66.413 83.3278C66.0064 83.3278 65.7278 83.0364 65.7278 82.5818ZM70.1657 82.5818C70.1657 81.9127 69.6598 81.4389 69.0227 81.4389C68.392 81.4389 67.8766 81.9127 67.8766 82.5818C67.8766 83.2541 68.392 83.728 69.0227 83.728C69.6566 83.728 70.1657 83.2541 70.1657 82.5818ZM68.3376 82.5818C68.3376 82.1272 68.6161 81.8423 69.0227 81.8423C69.4261 81.8423 69.7047 82.1272 69.7047 82.5818C69.7047 83.0364 69.4261 83.3278 69.0227 83.3278C68.6161 83.3278 68.3376 83.0364 68.3376 82.5818ZM72.0583 81.4677V83.0044L71.0434 81.4677H70.5952V83.7056H71.0434V82.172L72.0583 83.7056H72.5065V81.4677H72.0583ZM72.863 84.1666H73.1543L73.5513 83.2125H73.0775L72.863 84.1666ZM76.3788 83.0589C76.3788 82.2713 75.2327 82.521 75.2327 82.0728C75.2327 81.8903 75.3639 81.8038 75.54 81.8102C75.7321 81.8135 75.8506 81.9287 75.8602 82.076H76.3532C76.3244 81.6726 76.0107 81.4389 75.5528 81.4389C75.0918 81.4389 74.7653 81.6822 74.7653 82.0856C74.7621 82.8956 75.9146 82.6042 75.9146 83.0877C75.9146 83.2477 75.7897 83.3598 75.5784 83.3598C75.3703 83.3598 75.2519 83.2413 75.2391 83.0621H74.7588C74.7653 83.4847 75.1238 83.728 75.5881 83.728C76.0971 83.728 76.3788 83.411 76.3788 83.0589ZM76.7482 82.8123C76.7482 83.3662 77.1068 83.7344 77.555 83.7344C77.8367 83.7344 78.0384 83.5999 78.1441 83.4462V83.7056H78.5955V81.9319H78.1441V82.1848C78.0384 82.0376 77.8431 81.9031 77.5582 81.9031C77.1068 81.9031 76.7482 82.2585 76.7482 82.8123ZM78.1441 82.8187C78.1441 83.1549 77.92 83.3406 77.6735 83.3406C77.4333 83.3406 77.206 83.1485 77.206 82.8123C77.206 82.4762 77.4333 82.2969 77.6735 82.2969C77.92 82.2969 78.1441 82.4826 78.1441 82.8187ZM79.0109 81.8327H79.6063V83.7056H80.0546V81.8327H80.6501V81.4709H79.0109V81.8327ZM80.9547 81.8327H81.5502V83.7056H81.9984V81.8327H82.5939V81.4709H80.9547V81.8327ZM83.799 83.6736H85.3806V83.3022H84.4361C84.8075 82.9884 85.3294 82.5658 85.3294 82.0248C85.3294 81.6182 85.0764 81.3204 84.5738 81.3204C84.1544 81.3204 83.8118 81.5669 83.7958 82.1016H84.2312C84.2344 81.8551 84.3529 81.7014 84.5674 81.7014C84.7883 81.7014 84.8812 81.8423 84.8812 82.0504C84.8812 82.4794 84.3273 82.8924 83.799 83.3406V83.6736ZM85.7591 82.5082C85.7591 83.1901 85.964 83.6992 86.6235 83.6992C87.283 83.6992 87.4879 83.1901 87.4879 82.5082C87.4879 81.8327 87.283 81.3268 86.6235 81.3268C85.964 81.3268 85.7591 81.8327 85.7591 82.5082ZM87.0461 82.5082C87.0461 82.9244 87.0013 83.283 86.6235 83.283C86.2457 83.283 86.2009 82.9244 86.2009 82.5082C86.2009 82.108 86.2457 81.743 86.6235 81.743C87.0013 81.743 87.0461 82.108 87.0461 82.5082ZM88.181 83.7056H88.642V81.3716H87.8704V81.7846H88.181V83.7056ZM89.5714 82.4698C89.3409 82.5658 89.1969 82.7675 89.1969 83.0428C89.1969 83.4879 89.5618 83.7568 90.0389 83.7568C90.5191 83.7568 90.8841 83.4879 90.8841 83.0428C90.8841 82.7707 90.74 82.569 90.5095 82.4698C90.692 82.3769 90.8265 82.2008 90.8265 81.9543C90.8265 81.6214 90.5703 81.3268 90.0389 81.3268C89.5074 81.3268 89.2513 81.6182 89.2513 81.9543C89.2513 82.2072 89.3794 82.3705 89.5714 82.4698ZM90.0389 82.3385C89.8372 82.3385 89.6899 82.2136 89.6899 82.0216C89.6899 81.8038 89.8308 81.6886 90.0389 81.6886C90.2534 81.6886 90.391 81.807 90.391 82.0183C90.391 82.2104 90.2438 82.3385 90.0389 82.3385ZM90.0389 82.6651C90.279 82.6651 90.4455 82.7931 90.4455 83.0236C90.4455 83.2285 90.295 83.3854 90.0389 83.3854C89.7828 83.3854 89.6291 83.2317 89.6291 83.0236C89.6291 82.7867 89.8052 82.6651 90.0389 82.6651Z" fill="#1F2337"/>
<path d="M55.3552 91.6552C55.3552 92.3371 55.5601 92.8461 56.2196 92.8461C56.8792 92.8461 57.0841 92.3371 57.0841 91.6552C57.0841 90.9796 56.8792 90.4738 56.2196 90.4738C55.5601 90.4738 55.3552 90.9796 55.3552 91.6552ZM56.6423 91.6552C56.6423 92.0714 56.5974 92.4299 56.2196 92.4299C55.8419 92.4299 55.797 92.0714 55.797 91.6552C55.797 91.255 55.8419 90.89 56.2196 90.89C56.5974 90.89 56.6423 91.255 56.6423 91.6552ZM58.5519 92.8525H59.0578L58.4687 91.9625L59.0514 91.0789H58.5711L58.2446 91.6263L57.8828 91.0789H57.377L57.9628 91.9625L57.3834 92.8525H57.8636L58.187 92.3019L58.5519 92.8525ZM59.4677 90.5122V91.8825H59.8967C59.9447 91.7384 60.0632 91.6359 60.2489 91.6359C60.5018 91.6359 60.6331 91.78 60.6331 92.0425C60.6331 92.2891 60.5146 92.4748 60.2521 92.4748C60.0344 92.4748 59.9031 92.3563 59.8647 92.193H59.4293C59.4677 92.574 59.7558 92.8525 60.2585 92.8525C60.7899 92.8525 61.0653 92.5132 61.0653 92.0361C61.0653 91.6744 60.8796 91.2646 60.3353 91.2646C60.14 91.2646 59.9639 91.3478 59.8775 91.4535V90.906H60.9148V90.5122H59.4677ZM61.4448 90.525V90.9092H62.5398L61.6817 92.8525H62.1364L62.988 90.858V90.525H61.4448ZM63.2948 90.525V90.9092H64.3898L63.5318 92.8525H63.9864L64.838 90.858V90.525H63.2948ZM65.3242 90.5122V91.8825H65.7532C65.8012 91.7384 65.9196 91.6359 66.1053 91.6359C66.3583 91.6359 66.4895 91.78 66.4895 92.0425C66.4895 92.2891 66.3711 92.4748 66.1085 92.4748C65.8908 92.4748 65.7596 92.3563 65.7211 92.193H65.2857C65.3242 92.574 65.6123 92.8525 66.1149 92.8525C66.6464 92.8525 66.9217 92.5132 66.9217 92.0361C66.9217 91.6744 66.736 91.2646 66.1918 91.2646C65.9965 91.2646 65.8204 91.3478 65.734 91.4535V90.906H66.7713V90.5122H65.3242ZM67.2949 91.9657C67.2949 92.5228 67.6599 92.8814 68.1721 92.8814C68.6139 92.8814 68.9117 92.6316 69.0077 92.2538H68.5243C68.4699 92.4139 68.3546 92.4972 68.1689 92.4972C67.9192 92.4972 67.7527 92.3115 67.7527 91.9657C67.7527 91.6199 67.9192 91.4311 68.1689 91.4311C68.3546 91.4311 68.4731 91.5271 68.5243 91.6776H69.0077C68.9117 91.2806 68.6139 91.0501 68.1721 91.0501C67.6599 91.0501 67.2949 91.4086 67.2949 91.9657ZM69.3169 91.9593C69.3169 92.5132 69.6754 92.8814 70.1269 92.8814C70.4054 92.8814 70.6039 92.7533 70.7095 92.59V92.8525H71.1642V90.4834H70.7095V91.3254C70.5879 91.1589 70.3638 91.0501 70.1301 91.0501C69.6754 91.0501 69.3169 91.4054 69.3169 91.9593ZM70.7127 91.9657C70.7127 92.3019 70.4886 92.4876 70.2421 92.4876C70.002 92.4876 69.7747 92.2955 69.7747 91.9593C69.7747 91.6231 70.002 91.4439 70.2421 91.4439C70.4886 91.4439 70.7127 91.6295 70.7127 91.9657ZM71.6531 91.1333H72.0918C72.1078 90.986 72.2006 90.8452 72.4183 90.8452C72.6232 90.8452 72.7353 90.954 72.7353 91.1365C72.7353 91.367 72.5432 91.4407 72.2806 91.4407H72.1878V91.8088H72.2806C72.6136 91.8088 72.7801 91.9049 72.7801 92.1674C72.7801 92.3531 72.6648 92.494 72.4407 92.494C72.2006 92.494 72.0661 92.3499 72.0565 92.1482H71.6211C71.6403 92.638 71.9893 92.8685 72.4503 92.8685C72.9402 92.8685 73.2091 92.5868 73.2091 92.2058C73.2091 91.8889 73.0522 91.6968 72.8153 91.6231V91.6103C72.985 91.5527 73.1675 91.3734 73.1675 91.0821C73.1675 90.7363 72.9114 90.4642 72.4311 90.4642C71.9829 90.4642 71.6756 90.7011 71.6531 91.1333ZM73.6337 92.8205H75.2153V92.4491H74.2708C74.6422 92.1354 75.1641 91.7128 75.1641 91.1717C75.1641 90.7651 74.9111 90.4674 74.4085 90.4674C73.9891 90.4674 73.6465 90.7139 73.6305 91.2486H74.0659C74.0691 91.002 74.1876 90.8484 74.4021 90.8484C74.623 90.8484 74.7159 90.9892 74.7159 91.1973C74.7159 91.6263 74.162 92.0393 73.6337 92.4876V92.8205ZM76.6951 92.8525H77.1433V92.3979H77.4251V92.0073H77.1433V90.5474H76.6215L75.5746 92.0457V92.3979H76.6951V92.8525ZM76.0676 92.0073L76.7239 91.0277V92.0073H76.0676ZM77.7424 91.9657C77.7424 92.5228 78.1074 92.8814 78.6197 92.8814C79.0615 92.8814 79.3592 92.6316 79.4553 92.2538H78.9718C78.9174 92.4139 78.8022 92.4972 78.6165 92.4972C78.3667 92.4972 78.2003 92.3115 78.2003 91.9657C78.2003 91.6199 78.3667 91.4311 78.6165 91.4311C78.8022 91.4311 78.9206 91.5271 78.9718 91.6776H79.4553C79.3592 91.2806 79.0615 91.0501 78.6197 91.0501C78.1074 91.0501 77.7424 91.4086 77.7424 91.9657ZM80.9298 92.8525H81.378V92.3979H81.6597V92.0073H81.378V90.5474H80.8562L79.8092 92.0457V92.3979H80.9298V92.8525ZM80.3023 92.0073L80.9586 91.0277V92.0073H80.3023ZM83.1425 92.8525H83.5907V92.3979H83.8724V92.0073H83.5907V90.5474H83.0688L82.0219 92.0457V92.3979H83.1425V92.8525ZM82.515 92.0073L83.1713 91.0277V92.0073H82.515Z" fill="#1F2337"/>
<rect x="30.0312" y="82.5347" width="0.457364" height="6.86047" fill="#1F2337" fill-opacity="0.7"/>
<rect x="30.9453" y="82.5347" width="0.457364" height="6.86047" fill="#1F2337" fill-opacity="0.7"/>
<rect x="42.8379" y="82.5347" width="0.457364" height="6.86047" fill="#1F2337" fill-opacity="0.7"/>
<rect x="46.4961" y="82.5347" width="0.457364" height="6.86047" fill="#1F2337" fill-opacity="0.7"/>
<rect x="43.752" y="82.5347" width="0.457364" height="6.86047" fill="#1F2337" fill-opacity="0.7"/>
<rect x="40.5508" y="82.5347" width="0.457364" height="6.86047" fill="#1F2337" fill-opacity="0.7"/>
<rect x="31.8613" y="82.5347" width="0.228682" height="6.86047" fill="#1F2337" fill-opacity="0.7"/>
<rect x="32.3184" y="82.5347" width="0.228682" height="6.86047" fill="#1F2337" fill-opacity="0.7"/>
<rect x="41.4648" y="82.5347" width="0.228682" height="6.86047" fill="#1F2337" fill-opacity="0.7"/>
<rect x="41.9219" y="82.5347" width="0.228682" height="6.86047" fill="#1F2337" fill-opacity="0.7"/>
<rect x="42.3809" y="82.5347" width="0.228682" height="6.86047" fill="#1F2337" fill-opacity="0.7"/>
<rect x="46.0391" y="82.5347" width="0.228682" height="6.86047" fill="#1F2337" fill-opacity="0.7"/>
<rect x="37.8066" y="82.5347" width="0.914729" height="6.86047" fill="#1F2337" fill-opacity="0.7"/>
<rect x="44.666" y="82.5347" width="0.914729" height="6.86047" fill="#1F2337" fill-opacity="0.7"/>
<rect x="39.1777" y="82.5347" width="0.914729" height="6.86047" fill="#1F2337" fill-opacity="0.7"/>
<rect x="32.7754" y="82.5347" width="0.686046" height="6.86047" fill="#1F2337" fill-opacity="0.7"/>
<rect x="33.6895" y="82.5347" width="0.457364" height="6.86047" fill="#1F2337" fill-opacity="0.7"/>
<rect x="34.6055" y="82.5347" width="0.457364" height="6.86047" fill="#1F2337" fill-opacity="0.7"/>
<rect x="35.5195" y="82.5347" width="0.914729" height="6.86047" fill="#1F2337" fill-opacity="0.7"/>
<rect x="36.8906" y="82.5347" width="0.228682" height="6.86047" fill="#1F2337" fill-opacity="0.7"/>
<rect x="37.3496" y="82.5347" width="0.228682" height="6.86047" fill="#1F2337" fill-opacity="0.7"/>
<path d="M43.3616 26.2624C43.3155 26.1496 43.4346 26.0403 43.5431 26.0959L44.725 26.7026C44.7591 26.7201 44.7991 26.7218 44.8346 26.7073L46.0645 26.205C46.1773 26.1589 46.2866 26.278 46.2309 26.3865L45.6243 27.5684C45.6068 27.6025 45.6051 27.6425 45.6196 27.678L46.1219 28.9079C46.168 29.0207 46.0488 29.13 45.9404 29.0743L44.7585 28.4677C44.7244 28.4502 44.6844 28.4485 44.6489 28.463L43.419 28.9653C43.3062 29.0114 43.1969 28.8922 43.2525 28.7838L43.8592 27.6019C43.8767 27.5678 43.8784 27.5277 43.8639 27.4923L43.3616 26.2624Z" fill="#F52079" fill-opacity="0.5"/>
<path d="M118.678 35.7642C118.609 35.5949 118.788 35.431 118.95 35.5145L120.723 36.4245C120.774 36.4507 120.834 36.4533 120.888 36.4316L122.732 35.6781C122.902 35.6089 123.066 35.7877 122.982 35.9503L122.072 37.7232C122.046 37.7743 122.043 37.8344 122.065 37.8876L122.819 39.7324C122.888 39.9017 122.709 40.0656 122.546 39.9821L120.773 39.0721C120.722 39.0459 120.662 39.0433 120.609 39.065L118.764 39.8185C118.595 39.8877 118.431 39.7089 118.515 39.5463L119.425 37.7734C119.451 37.7223 119.453 37.6622 119.432 37.609L118.678 35.7642Z" fill="#F52079" fill-opacity="0.5"/>
<path d="M76.1926 20.3189C76.1234 20.1496 76.3022 19.9857 76.4648 20.0692L77.7815 20.745C77.8327 20.7712 77.8927 20.7738 77.9459 20.7521L79.316 20.1925C79.4853 20.1233 79.6492 20.3021 79.5657 20.4647L78.8899 21.7814C78.8637 21.8326 78.8611 21.8926 78.8828 21.9458L79.4424 23.316C79.5116 23.4852 79.3328 23.6491 79.1702 23.5657L77.8535 22.8898C77.8023 22.8636 77.7423 22.861 77.6891 22.8827L76.319 23.4424C76.1497 23.5115 75.9858 23.3328 76.0693 23.1701L76.7451 21.8534C76.7713 21.8023 76.7739 21.7422 76.7522 21.689L76.1926 20.3189Z" fill="#F52079" fill-opacity="0.5"/>
<path d="M37.1688 27.7373C37.1381 27.662 37.2175 27.5892 37.2898 27.6263L38.0777 28.0307C38.1005 28.0424 38.1272 28.0435 38.1508 28.0339L38.9707 27.699C39.0459 27.6683 39.1188 27.7477 39.0817 27.82L38.6773 28.6079C38.6656 28.6307 38.6644 28.6573 38.6741 28.681L39.009 29.5009C39.0397 29.5761 38.9603 29.649 38.888 29.6119L38.1001 29.2075C38.0773 29.1958 38.0506 29.1946 38.027 29.2043L37.2071 29.5392C37.1318 29.5699 37.059 29.4905 37.0961 29.4182L37.5005 28.6303C37.5122 28.6075 37.5133 28.5808 37.5037 28.5572L37.1688 27.7373Z" fill="white" fill-opacity="0.5"/>
<path d="M28.1903 27.2285C28.1595 27.1533 28.239 27.0804 28.3113 27.1175L29.0992 27.5219C29.1219 27.5336 29.1486 27.5347 29.1723 27.5251L29.9922 27.1902C30.0674 27.1595 30.1403 27.2389 30.1032 27.3112L29.6988 28.0991C29.6871 28.1219 29.6859 28.1486 29.6956 28.1722L30.0305 28.9921C30.0612 29.0673 29.9818 29.1402 29.9095 29.1031L29.1215 28.6987C29.0988 28.687 29.0721 28.6859 29.0485 28.6955L28.2286 29.0304C28.1533 29.0611 28.0805 28.9817 28.1176 28.9094L28.522 28.1215C28.5337 28.0987 28.5348 28.072 28.5252 28.0484L28.1903 27.2285Z" fill="white" fill-opacity="0.5"/>
<path d="M58.1903 20.2285C58.1595 20.1533 58.239 20.0804 58.3113 20.1175L59.0992 20.5219C59.1219 20.5336 59.1486 20.5347 59.1723 20.5251L59.9922 20.1902C60.0674 20.1595 60.1403 20.2389 60.1032 20.3112L59.6988 21.0991C59.6871 21.1219 59.6859 21.1486 59.6956 21.1722L60.0305 21.9921C60.0612 22.0673 59.9818 22.1402 59.9095 22.1031L59.1215 21.6987C59.0988 21.687 59.0721 21.6859 59.0485 21.6955L58.2286 22.0304C58.1533 22.0611 58.0805 21.9817 58.1176 21.9094L58.522 21.1215C58.5337 21.0987 58.5348 21.072 58.5252 21.0484L58.1903 20.2285Z" fill="white" fill-opacity="0.5"/>
<path d="M101.19 33.2285C101.16 33.1533 101.239 33.0804 101.311 33.1175L102.099 33.5219C102.122 33.5336 102.149 33.5347 102.172 33.5251L102.992 33.1902C103.067 33.1595 103.14 33.2389 103.103 33.3112L102.699 34.0991C102.687 34.1219 102.686 34.1486 102.696 34.1722L103.03 34.9921C103.061 35.0673 102.982 35.1402 102.909 35.1031L102.122 34.6987C102.099 34.687 102.072 34.6859 102.048 34.6955L101.229 35.0304C101.153 35.0611 101.08 34.9817 101.118 34.9094L101.522 34.1215C101.534 34.0987 101.535 34.072 101.525 34.0484L101.19 33.2285Z" fill="white" fill-opacity="0.5"/>
<path d="M129.19 51.2285C129.16 51.1533 129.239 51.0804 129.311 51.1175L130.099 51.5219C130.122 51.5336 130.149 51.5347 130.172 51.5251L130.992 51.1902C131.067 51.1595 131.14 51.2389 131.103 51.3112L130.699 52.0991C130.687 52.1219 130.686 52.1486 130.696 52.1722L131.03 52.9921C131.061 53.0673 130.982 53.1402 130.909 53.1031L130.122 52.6987C130.099 52.687 130.072 52.6859 130.048 52.6955L129.229 53.0304C129.153 53.0611 129.08 52.9817 129.118 52.9094L129.522 52.1215C129.534 52.0987 129.535 52.072 129.525 52.0484L129.19 51.2285Z" fill="white" fill-opacity="0.25"/>
<path d="M89.1903 9.22848C89.1595 9.15325 89.239 9.0804 89.3113 9.1175L90.0992 9.52193C90.1219 9.53359 90.1486 9.53475 90.1723 9.52509L90.9922 9.19019C91.0674 9.15946 91.1403 9.23891 91.1032 9.3112L90.6988 10.0991C90.6871 10.1219 90.6859 10.1486 90.6956 10.1722L91.0305 10.9921C91.0612 11.0673 90.9818 11.1402 90.9095 11.1031L90.1215 10.6987C90.0988 10.687 90.0721 10.6859 90.0485 10.6955L89.2286 11.0304C89.1533 11.0611 89.0805 10.9817 89.1176 10.9094L89.522 10.1215C89.5337 10.0987 89.5348 10.072 89.5252 10.0484L89.1903 9.22848Z" fill="white" fill-opacity="0.25"/>
<path d="M111.19 29.2285C111.16 29.1533 111.239 29.0804 111.311 29.1175L112.099 29.5219C112.122 29.5336 112.149 29.5347 112.172 29.5251L112.992 29.1902C113.067 29.1595 113.14 29.2389 113.103 29.3112L112.699 30.0991C112.687 30.1219 112.686 30.1486 112.696 30.1722L113.03 30.9921C113.061 31.0673 112.982 31.1402 112.909 31.1031L112.122 30.6987C112.099 30.687 112.072 30.6859 112.048 30.6955L111.229 31.0304C111.153 31.0611 111.08 30.9817 111.118 30.9094L111.522 30.1215C111.534 30.0987 111.535 30.072 111.525 30.0484L111.19 29.2285Z" fill="white" fill-opacity="0.25"/>
<path d="M6.19027 57.2285C6.15954 57.1533 6.23898 57.0804 6.31128 57.1175L7.09922 57.5219C7.12195 57.5336 7.14864 57.5347 7.17229 57.5251L7.9922 57.1902C8.06743 57.1595 8.14028 57.2389 8.10318 57.3112L7.69875 58.0991C7.68709 58.1219 7.68593 58.1486 7.69559 58.1722L8.03049 58.9921C8.06122 59.0673 7.98178 59.1402 7.90948 59.1031L7.12154 58.6987C7.09881 58.687 7.07212 58.6859 7.04847 58.6955L6.22856 59.0304C6.15333 59.0611 6.08048 58.9817 6.11758 58.9094L6.52201 58.1215C6.53367 58.0987 6.53483 58.072 6.52517 58.0484L6.19027 57.2285Z" fill="white" fill-opacity="0.25"/>
<path d="M18.1903 71.2285C18.1595 71.1533 18.239 71.0804 18.3113 71.1175L19.0992 71.5219C19.1219 71.5336 19.1486 71.5347 19.1723 71.5251L19.9922 71.1902C20.0674 71.1595 20.1403 71.2389 20.1032 71.3112L19.6988 72.0991C19.6871 72.1219 19.6859 72.1486 19.6956 72.1722L20.0305 72.9921C20.0612 73.0673 19.9818 73.1402 19.9095 73.1031L19.1215 72.6987C19.0988 72.687 19.0721 72.6859 19.0485 72.6955L18.2286 73.0304C18.1533 73.0611 18.0805 72.9817 18.1176 72.9094L18.522 72.1215C18.5337 72.0987 18.5348 72.072 18.5252 72.0484L18.1903 71.2285Z" fill="white" fill-opacity="0.25"/>
<path d="M94.5842 27.4201C94.5381 27.3073 94.6573 27.198 94.7657 27.2536L95.9477 27.8603C95.9817 27.8778 96.0218 27.8795 96.0573 27.865L97.2871 27.3627C97.4 27.3166 97.5093 27.4358 97.4536 27.5442L96.847 28.7261C96.8295 28.7602 96.8277 28.8002 96.8422 28.8357L97.3446 30.0656C97.3907 30.1784 97.2715 30.2877 97.163 30.232L95.9811 29.6254C95.947 29.6079 95.907 29.6062 95.8715 29.6207L94.6417 30.123C94.5288 30.1691 94.4195 30.0499 94.4752 29.9415L95.0818 28.7596C95.0993 28.7255 95.1011 28.6855 95.0866 28.65L94.5842 27.4201Z" fill="white"/>
<path d="M17.7854 38.843C17.7393 38.7301 17.8585 38.6208 17.9669 38.6765L19.1488 39.2831C19.1829 39.3006 19.223 39.3024 19.2584 39.2879L20.4883 38.7855C20.6011 38.7394 20.7104 38.8586 20.6548 38.967L20.0481 40.149C20.0306 40.183 20.0289 40.2231 20.0434 40.2586L20.5457 41.4884C20.5918 41.6013 20.4727 41.7106 20.3642 41.6549L19.1823 41.0483C19.1482 41.0308 19.1082 41.029 19.0727 41.0435L17.8428 41.5459C17.73 41.592 17.6207 41.4728 17.6764 41.3643L18.283 40.1824C18.3005 40.1483 18.3022 40.1083 18.2877 40.0728L17.7854 38.843Z" fill="white"/>
<path d="M66.4807 11.1403C66.4346 11.0275 66.5538 10.9182 66.6622 10.9739L67.8441 11.5805C67.8782 11.598 67.9183 11.5997 67.9537 11.5852L69.1836 11.0829C69.2965 11.0368 69.4057 11.156 69.3501 11.2644L68.7434 12.4463C68.7259 12.4804 68.7242 12.5204 68.7387 12.5559L69.241 13.7858C69.2871 13.8986 69.168 14.0079 69.0595 13.9523L67.8776 13.3456C67.8435 13.3281 67.8035 13.3264 67.768 13.3409L66.5382 13.8432C66.4253 13.8893 66.316 13.7702 66.3717 13.6617L66.9783 12.4798C66.9958 12.4457 66.9976 12.4057 66.9831 12.3702L66.4807 11.1403Z" fill="white" fill-opacity="0.5"/>
<defs>
<filter id="filter0_d_1064_21085" x="21" y="78" width="97" height="35" filterUnits="userSpaceOnUse" color-interpolation-filters="sRGB">
<feFlood flood-opacity="0" result="BackgroundImageFix"/>
<feColorMatrix in="SourceAlpha" type="matrix" values="0 0 0 0 0 0 0 0 0 0 0 0 0 0 0 0 0 0 127 0" result="hardAlpha"/>
<feOffset dy="25"/>
<feGaussianBlur stdDeviation="2"/>
<feComposite in2="hardAlpha" operator="out"/>
<feColorMatrix type="matrix" values="0 0 0 0 0 0 0 0 0 0 0 0 0 0 0 0 0 0 0.25 0"/>
<feBlend mode="normal" in2="BackgroundImageFix" result="effect1_dropShadow_1064_21085"/>
<feBlend mode="normal" in="SourceGraphic" in2="effect1_dropShadow_1064_21085" result="shape"/>
</filter>
<filter id="filter1_d_1064_21085" x="23.1705" y="40" width="92.3874" height="62.6589" filterUnits="userSpaceOnUse" color-interpolation-filters="sRGB">
<feFlood flood-opacity="0" result="BackgroundImageFix"/>
<feColorMatrix in="SourceAlpha" type="matrix" values="0 0 0 0 0 0 0 0 0 0 0 0 0 0 0 0 0 0 127 0" result="hardAlpha"/>
<feOffset dy="1.82946"/>
<feGaussianBlur stdDeviation="0.914729"/>
<feComposite in2="hardAlpha" operator="out"/>
<feColorMatrix type="matrix" values="0 0 0 0 0 0 0 0 0 0 0 0 0 0 0 0 0 0 0.25 0"/>
<feBlend mode="normal" in2="BackgroundImageFix" result="effect1_dropShadow_1064_21085"/>
<feBlend mode="normal" in="SourceGraphic" in2="effect1_dropShadow_1064_21085" result="shape"/>
</filter>
<filter id="filter2_d_1064_21085" x="26.1773" y="54.9865" width="24.6318" height="24.6323" filterUnits="userSpaceOnUse" color-interpolation-filters="sRGB">
<feFlood flood-opacity="0" result="BackgroundImageFix"/>
<feColorMatrix in="SourceAlpha" type="matrix" values="0 0 0 0 0 0 0 0 0 0 0 0 0 0 0 0 0 0 127 0" result="hardAlpha"/>
<feOffset dy="1.00457"/>
<feGaussianBlur stdDeviation="0.83714"/>
<feComposite in2="hardAlpha" operator="out"/>
<feColorMatrix type="matrix" values="0 0 0 0 0 0 0 0 0 0 0 0 0 0 0 0 0 0 0.2 0"/>
<feBlend mode="normal" in2="BackgroundImageFix" result="effect1_dropShadow_1064_21085"/>
<feBlend mode="normal" in="SourceGraphic" in2="effect1_dropShadow_1064_21085" result="shape"/>
</filter>
<filter id="filter3_d_1064_21085" x="35.6451" y="71.5005" width="3.36615" height="2.83392" filterUnits="userSpaceOnUse" color-interpolation-filters="sRGB">
<feFlood flood-opacity="0" result="BackgroundImageFix"/>
<feColorMatrix in="SourceAlpha" type="matrix" values="0 0 0 0 0 0 0 0 0 0 0 0 0 0 0 0 0 0 127 0" result="hardAlpha"/>
<feOffset dy="0.257294"/>
<feGaussianBlur stdDeviation="0.128647"/>
<feComposite in2="hardAlpha" operator="out"/>
<feColorMatrix type="matrix" values="0 0 0 0 0 0 0 0 0 0 0 0 0 0 0 0 0 0 0.25 0"/>
<feBlend mode="normal" in2="BackgroundImageFix" result="effect1_dropShadow_1064_21085"/>
<feBlend mode="normal" in="SourceGraphic" in2="effect1_dropShadow_1064_21085" result="shape"/>
</filter>
<filter id="filter4_d_1064_21085" x="39.3384" y="71.5005" width="1.71576" height="1.71527" filterUnits="userSpaceOnUse" color-interpolation-filters="sRGB">
<feFlood flood-opacity="0" result="BackgroundImageFix"/>
<feColorMatrix in="SourceAlpha" type="matrix" values="0 0 0 0 0 0 0 0 0 0 0 0 0 0 0 0 0 0 127 0" result="hardAlpha"/>
<feOffset dy="0.257294"/>
<feGaussianBlur stdDeviation="0.128647"/>
<feComposite in2="hardAlpha" operator="out"/>
<feColorMatrix type="matrix" values="0 0 0 0 0 0 0 0 0 0 0 0 0 0 0 0 0 0 0.25 0"/>
<feBlend mode="normal" in2="BackgroundImageFix" result="effect1_dropShadow_1064_21085"/>
<feBlend mode="normal" in="SourceGraphic" in2="effect1_dropShadow_1064_21085" result="shape"/>
</filter>
<filter id="filter5_d_1064_21085" x="39.3384" y="72.6187" width="1.71576" height="1.71527" filterUnits="userSpaceOnUse" color-interpolation-filters="sRGB">
<feFlood flood-opacity="0" result="BackgroundImageFix"/>
<feColorMatrix in="SourceAlpha" type="matrix" values="0 0 0 0 0 0 0 0 0 0 0 0 0 0 0 0 0 0 127 0" result="hardAlpha"/>
<feOffset dy="0.257294"/>
<feGaussianBlur stdDeviation="0.128647"/>
<feComposite in2="hardAlpha" operator="out"/>
<feColorMatrix type="matrix" values="0 0 0 0 0 0 0 0 0 0 0 0 0 0 0 0 0 0 0.25 0"/>
<feBlend mode="normal" in2="BackgroundImageFix" result="effect1_dropShadow_1064_21085"/>
<feBlend mode="normal" in="SourceGraphic" in2="effect1_dropShadow_1064_21085" result="shape"/>
</filter>
<filter id="filter6_f_1064_21085" x="33.1452" y="67.4757" width="9.80145" height="5.59882" filterUnits="userSpaceOnUse" color-interpolation-filters="sRGB">
<feFlood flood-opacity="0" result="BackgroundImageFix"/>
<feBlend mode="normal" in="SourceGraphic" in2="BackgroundImageFix" result="shape"/>
<feGaussianBlur stdDeviation="0.643234" result="effect1_foregroundBlur_1064_21085"/>
</filter>
<filter id="filter7_f_1064_21085" x="35.2779" y="62.9395" width="2.53021" height="3.26654" filterUnits="userSpaceOnUse" color-interpolation-filters="sRGB">
<feFlood flood-opacity="0" result="BackgroundImageFix"/>
<feBlend mode="normal" in="SourceGraphic" in2="BackgroundImageFix" result="shape"/>
<feGaussianBlur stdDeviation="0.128647" result="effect1_foregroundBlur_1064_21085"/>
</filter>
<filter id="filter8_bii_1064_21085" x="18.6884" y="33.6884" width="101.352" height="18.5691" filterUnits="userSpaceOnUse" color-interpolation-filters="sRGB">
<feFlood flood-opacity="0" result="BackgroundImageFix"/>
<feGaussianBlur in="BackgroundImage" stdDeviation="3.15581"/>
<feComposite in2="SourceAlpha" operator="in" result="effect1_backgroundBlur_1064_21085"/>
<feBlend mode="normal" in="SourceGraphic" in2="effect1_backgroundBlur_1064_21085" result="shape"/>
<feColorMatrix in="SourceAlpha" type="matrix" values="0 0 0 0 0 0 0 0 0 0 0 0 0 0 0 0 0 0 127 0" result="hardAlpha"/>
<feOffset dx="-3.15581" dy="3.15581"/>
<feGaussianBlur stdDeviation="1.57791"/>
<feComposite in2="hardAlpha" operator="arithmetic" k2="-1" k3="1"/>
<feColorMatrix type="matrix" values="0 0 0 0 1 0 0 0 0 1 0 0 0 0 1 0 0 0 0.1 0"/>
<feBlend mode="normal" in2="shape" result="effect2_innerShadow_1064_21085"/>
<feColorMatrix in="SourceAlpha" type="matrix" values="0 0 0 0 0 0 0 0 0 0 0 0 0 0 0 0 0 0 127 0" result="hardAlpha"/>
<feOffset dx="3.15581" dy="-3.15581"/>
<feGaussianBlur stdDeviation="1.57791"/>
<feComposite in2="hardAlpha" operator="arithmetic" k2="-1" k3="1"/>
<feColorMatrix type="matrix" values="0 0 0 0 0.573726 0 0 0 0 0.107294 0 0 0 0 0.427686 0 0 0 0.1 0"/>
<feBlend mode="normal" in2="effect2_innerShadow_1064_21085" result="effect3_innerShadow_1064_21085"/>
</filter>
<filter id="filter9_bii_1064_21085" x="18.6884" y="41.0062" width="101.352" height="18.5691" filterUnits="userSpaceOnUse" color-interpolation-filters="sRGB">
<feFlood flood-opacity="0" result="BackgroundImageFix"/>
<feGaussianBlur in="BackgroundImage" stdDeviation="3.15581"/>
<feComposite in2="SourceAlpha" operator="in" result="effect1_backgroundBlur_1064_21085"/>
<feBlend mode="normal" in="SourceGraphic" in2="effect1_backgroundBlur_1064_21085" result="shape"/>
<feColorMatrix in="SourceAlpha" type="matrix" values="0 0 0 0 0 0 0 0 0 0 0 0 0 0 0 0 0 0 127 0" result="hardAlpha"/>
<feOffset dx="-3.15581" dy="3.15581"/>
<feGaussianBlur stdDeviation="1.57791"/>
<feComposite in2="hardAlpha" operator="arithmetic" k2="-1" k3="1"/>
<feColorMatrix type="matrix" values="0 0 0 0 1 0 0 0 0 1 0 0 0 0 1 0 0 0 0.1 0"/>
<feBlend mode="normal" in2="shape" result="effect2_innerShadow_1064_21085"/>
<feColorMatrix in="SourceAlpha" type="matrix" values="0 0 0 0 0 0 0 0 0 0 0 0 0 0 0 0 0 0 127 0" result="hardAlpha"/>
<feOffset dx="3.15581" dy="-3.15581"/>
<feGaussianBlur stdDeviation="1.57791"/>
<feComposite in2="hardAlpha" operator="arithmetic" k2="-1" k3="1"/>
<feColorMatrix type="matrix" values="0 0 0 0 0.599059 0 0 0 0 0.105804 0 0 0 0 0.417255 0 0 0 0.1 0"/>
<feBlend mode="normal" in2="effect2_innerShadow_1064_21085" result="effect3_innerShadow_1064_21085"/>
</filter>
<radialGradient id="paint0_radial_1064_21085" cx="0" cy="0" r="1" gradientUnits="userSpaceOnUse" gradientTransform="translate(40.5233 84) scale(62.6105 867.167)">
<stop stop-color="#00041B" stop-opacity="0.57"/>
<stop offset="0.328125" stop-color="#00041B" stop-opacity="0.37"/>
<stop offset="0.640625" stop-color="#00041B" stop-opacity="0.33"/>
<stop offset="1" stop-color="#00041B" stop-opacity="0.71"/>
</radialGradient>
<linearGradient id="paint1_linear_1064_21085" x1="23.8566" y1="40" x2="113.729" y2="40" gradientUnits="userSpaceOnUse">
<stop stop-color="#9628A2"/>
<stop offset="1" stop-color="#F52079"/>
</linearGradient>
<radialGradient id="paint2_radial_1064_21085" cx="0" cy="0" r="1" gradientUnits="userSpaceOnUse" gradientTransform="translate(39.9548 74.6135) rotate(-79.4365) scale(18.0807)">
<stop offset="0.296875" stop-color="#202B95"/>
<stop offset="1" stop-color="#DA25B2"/>
</radialGradient>
<radialGradient id="paint3_radial_1064_21085" cx="0" cy="0" r="1" gradientUnits="userSpaceOnUse" gradientTransform="translate(39.658 74.9206) rotate(-79.4365) scale(18.0807)">
<stop stop-color="#1F1F30"/>
<stop offset="1" stop-color="#17175E"/>
</radialGradient>
<linearGradient id="paint4_linear_1064_21085" x1="41.7355" y1="70.4236" x2="45.0494" y2="73.2207" gradientUnits="userSpaceOnUse">
<stop stop-color="#C3C6C7"/>
<stop offset="1" stop-color="white"/>
</linearGradient>
<linearGradient id="paint5_linear_1064_21085" x1="44.2582" y1="73.4346" x2="45.3679" y2="73.9352" gradientUnits="userSpaceOnUse">
<stop offset="0.0833333" stop-color="#B0BDC4"/>
<stop offset="1" stop-color="#C7D2D7" stop-opacity="0"/>
</linearGradient>
<linearGradient id="paint6_linear_1064_21085" x1="44.1682" y1="72.8253" x2="45.6579" y2="72.8101" gradientUnits="userSpaceOnUse">
<stop stop-color="#BEBEBE"/>
<stop offset="1" stop-color="#C7D2D7" stop-opacity="0"/>
</linearGradient>
<linearGradient id="paint7_linear_1064_21085" x1="43.9552" y1="73.8439" x2="44.7" y2="74.7147" gradientUnits="userSpaceOnUse">
<stop offset="0.197917" stop-color="#B8B8B8"/>
<stop offset="1" stop-color="#C7D2D7" stop-opacity="0"/>
</linearGradient>
<linearGradient id="paint8_linear_1064_21085" x1="37.3465" y1="68.4331" x2="33.1205" y2="71.9124" gradientUnits="userSpaceOnUse">
<stop stop-color="#959797"/>
<stop offset="1" stop-color="white"/>
</linearGradient>
<linearGradient id="paint9_linear_1064_21085" x1="32.7243" y1="73.4346" x2="31.6145" y2="73.9352" gradientUnits="userSpaceOnUse">
<stop offset="0.0833333" stop-color="#B0BDC4"/>
<stop offset="1" stop-color="#C7D2D7" stop-opacity="0"/>
</linearGradient>
<linearGradient id="paint10_linear_1064_21085" x1="32.8142" y1="72.8253" x2="31.3245" y2="72.8101" gradientUnits="userSpaceOnUse">
<stop stop-color="#BEBEBE"/>
<stop offset="1" stop-color="#C7D2D7" stop-opacity="0"/>
</linearGradient>
<linearGradient id="paint11_linear_1064_21085" x1="33.0273" y1="73.8439" x2="32.2824" y2="74.7147" gradientUnits="userSpaceOnUse">
<stop offset="0.197917" stop-color="#B8B8B8"/>
<stop offset="1" stop-color="#C7D2D7" stop-opacity="0"/>
</linearGradient>
<linearGradient id="paint12_linear_1064_21085" x1="38.3229" y1="68.7622" x2="38.3229" y2="79.6013" gradientUnits="userSpaceOnUse">
<stop stop-color="#E3E9EB"/>
<stop offset="0.56737" stop-color="white"/>
</linearGradient>
<linearGradient id="paint13_linear_1064_21085" x1="37.3282" y1="69.2264" x2="37.3282" y2="73.6267" gradientUnits="userSpaceOnUse">
<stop stop-color="#00CC9E"/>
<stop offset="1" stop-color="#4048FF"/>
</linearGradient>
<radialGradient id="paint14_radial_1064_21085" cx="0" cy="0" r="1" gradientUnits="userSpaceOnUse" gradientTransform="translate(40.1966 72.1009) rotate(90) scale(0.593831)">
<stop stop-color="#E0E1FF"/>
<stop offset="1" stop-color="#4048FF"/>
</radialGradient>
<radialGradient id="paint15_radial_1064_21085" cx="0" cy="0" r="1" gradientUnits="userSpaceOnUse" gradientTransform="translate(40.1966 73.219) rotate(90) scale(0.593831)">
<stop stop-color="#F52079"/>
<stop offset="0.0001" stop-color="white"/>
<stop offset="1" stop-color="#F52079"/>
</radialGradient>
<linearGradient id="paint16_linear_1064_21085" x1="38.4576" y1="68.8247" x2="38.4576" y2="79.6638" gradientUnits="userSpaceOnUse">
<stop stop-color="#E3E9EB"/>
<stop offset="0.56737" stop-color="white"/>
</linearGradient>
<linearGradient id="paint17_linear_1064_21085" x1="38.0457" y1="68.7622" x2="38.0457" y2="71.7883" gradientUnits="userSpaceOnUse">
<stop stop-color="#676767"/>
<stop offset="1" stop-color="#676767" stop-opacity="0"/>
</linearGradient>
<radialGradient id="paint18_radial_1064_21085" cx="0" cy="0" r="1" gradientUnits="userSpaceOnUse" gradientTransform="translate(40.4889 63.528) rotate(125.631) scale(7.18321)">
<stop offset="0.166667" stop-color="white"/>
<stop offset="1" stop-color="#CDD0D1"/>
</radialGradient>
<linearGradient id="paint19_linear_1064_21085" x1="33.5503" y1="65.8065" x2="42.0081" y2="61.7747" gradientUnits="userSpaceOnUse">
<stop stop-color="#F1F1F1"/>
<stop offset="0.519247" stop-color="#ADADAD"/>
<stop offset="1"/>
</linearGradient>
<radialGradient id="paint20_radial_1064_21085" cx="0" cy="0" r="1" gradientUnits="userSpaceOnUse" gradientTransform="translate(35.8064 65.9445) rotate(0.304761) scale(11.2224)">
<stop offset="0.180591" stop-color="white"/>
<stop offset="0.9385" stop-color="#858585"/>
</radialGradient>
<linearGradient id="paint21_linear_1064_21085" x1="35.1103" y1="65.6375" x2="36.8093" y2="65.5298" gradientUnits="userSpaceOnUse">
<stop stop-color="white"/>
<stop offset="1" stop-color="white" stop-opacity="0"/>
</linearGradient>
<linearGradient id="paint22_linear_1064_21085" x1="23.8566" y1="40" x2="113.729" y2="40" gradientUnits="userSpaceOnUse">
<stop stop-color="#8C28A6"/>
<stop offset="1" stop-color="#F52079"/>
</linearGradient>
<linearGradient id="paint23_linear_1064_21085" x1="25" y1="50.0621" x2="113.043" y2="50.7481" gradientUnits="userSpaceOnUse">
<stop offset="0.0110619" stop-color="#9F279E"/>
<stop offset="1" stop-color="#F3207A"/>
</linearGradient>
<linearGradient id="paint24_linear_1064_21085" x1="25" y1="50.0621" x2="113.043" y2="50.7481" gradientUnits="userSpaceOnUse">
<stop offset="0.0110619" stop-color="#9F279E"/>
<stop offset="1" stop-color="#F3207A"/>
</linearGradient>
</defs>
</svg>
