<svg width="96" height="96" viewBox="0 0 96 96" fill="none" xmlns="http://www.w3.org/2000/svg">
<circle cx="48" cy="48" r="48" fill="#1F2337"/>
<rect x="16.0449" y="27.0957" width="60.0723" height="39.3902" rx="5.57233" fill="white"/>
<rect x="22.3907" y="36.9761" width="16.8691" height="19.6291" rx="0.601976" fill="#F6F6FF" stroke="#D6D6E8" stroke-width="0.796047"/>
<path d="M34.14 43.4778C34.14 45.308 32.6563 46.7916 30.8262 46.7916C28.9961 46.7916 27.5125 45.308 27.5125 43.4778C27.5125 41.6477 28.9961 40.1641 30.8262 40.1641C32.6563 40.1641 34.14 41.6477 34.14 43.4778Z" fill="url(#paint0_linear)"/>
<path d="M26.5708 50.7039C26.5708 48.9169 28.0195 47.4682 29.8066 47.4682H31.8442C33.6313 47.4682 35.08 48.9169 35.08 50.7039V54.4858H26.5708V50.7039Z" fill="url(#paint1_linear)"/>
<rect x="43.3113" y="38.5391" width="18.2377" height="2.70415" rx="1.35207" fill="#47526A"/>
<rect x="43.3113" y="45.4395" width="27.0375" height="2.70415" rx="1.35207" fill="#47526A"/>
<rect x="43.3113" y="52.3379" width="27.0375" height="2.70415" rx="1.35207" fill="#47526A"/>
<path d="M67.4337 65.6761C75.5358 65.6761 82.1038 59.1081 82.1038 51.006C82.1038 42.9039 75.5358 36.3359 67.4337 36.3359C59.3317 36.3359 52.7637 42.9039 52.7637 51.006C52.7637 59.1081 59.3317 65.6761 67.4337 65.6761Z" fill="url(#paint2_linear)"/>
<path fill-rule="evenodd" clip-rule="evenodd" d="M54.7134 38.2845C61.7384 31.2593 73.1284 31.2593 80.1536 38.2845C87.1787 45.3096 87.1787 56.6995 80.1537 63.7248C73.7247 70.1537 63.6408 70.698 56.5914 65.3601L53.8225 68.129L50.3092 64.6156L53.0781 61.8467C47.7402 54.7973 48.2844 44.7135 54.7134 38.2845ZM82.0999 51.005C82.0999 59.1071 75.5319 65.6751 67.4298 65.6751C59.3278 65.6751 52.7598 59.1071 52.7598 51.005C52.7598 42.903 59.3278 36.335 67.4298 36.335C75.5319 36.335 82.0999 42.903 82.0999 51.005Z" fill="#FFA318"/>
<path d="M57.513 42.3765C63.242 36.6475 72.5306 36.6475 78.2596 42.3765C79.844 43.961 80.9882 45.8185 81.6962 47.7968C81.1174 45.148 79.8025 42.6278 77.743 40.5683C72.0139 34.8392 62.7253 34.8392 56.9963 40.5683C52.8517 44.7129 51.7076 50.7197 53.5597 55.8947C52.5285 51.1751 53.8434 46.046 57.513 42.3765V42.3765Z" fill="#00A7E0"/>
<path d="M35.4465 82.9942C33.7617 81.3094 33.1172 79.1971 34.0141 78.3001L49.6745 63.9221C50.5715 63.025 52.0426 63.0284 53.7273 64.7132C55.4121 66.398 55.4154 67.8692 54.5185 68.7661L40.1406 84.4266C39.2436 85.3235 37.1313 84.679 35.4465 82.9942V82.9942Z" fill="#FFA318"/>
<path d="M37.1582 75.4161L43.0273 81.2852L50.1074 73.5735L44.8698 68.3359L37.1582 75.4161Z" fill="#5BC0A4"/>
<defs>
<linearGradient id="paint0_linear" x1="30.8254" y1="47.4682" x2="38.3843" y2="42.4687" gradientUnits="userSpaceOnUse">
<stop stop-color="#47526A"/>
<stop offset="1" stop-color="#ADADC8"/>
</linearGradient>
<linearGradient id="paint1_linear" x1="30.8254" y1="47.4682" x2="38.3843" y2="42.4687" gradientUnits="userSpaceOnUse">
<stop stop-color="#47526A"/>
<stop offset="1" stop-color="#ADADC8"/>
</linearGradient>
<linearGradient id="paint2_linear" x1="67.4337" y1="36.3359" x2="67.4337" y2="65.6761" gradientUnits="userSpaceOnUse">
<stop stop-color="#70C4EA"/>
<stop offset="1" stop-color="#70C4EA" stop-opacity="0"/>
</linearGradient>
</defs>
</svg>
