<svg width="72" height="72" viewBox="0 0 72 72" fill="none" xmlns="http://www.w3.org/2000/svg">
<g style="mix-blend-mode:screen">
<path fill-rule="evenodd" clip-rule="evenodd" d="M30.5119 51.3416C33.5776 49.513 38.204 53.6326 37.4794 56.0438C42.3455 58.5556 41.2695 66.4639 34.2849 65.254C35.4693 70.679 24.33 70.9835 22.9993 66.6953C20.2034 69.4238 14.247 66.1451 15.4991 62.4914C11.5947 62.3775 9.79779 57.0475 11.6166 56.0265C8.1332 55.0722 7.80941 46.5813 15.482 48.7201C17.2079 46.2829 21.4071 46.0676 23.2756 50.2256C24.9125 48.7736 29.9482 49.0798 30.5119 51.3416Z" fill="#DADBF0"/>
<path fill-rule="evenodd" clip-rule="evenodd" d="M40.3796 59.8918C40.9375 62.8685 38.9027 66.0543 34.2849 65.2544C35.4693 70.6794 24.3301 70.9839 22.9994 66.6957C20.2035 69.4242 14.247 66.1455 15.4992 62.4918C11.5947 62.3779 9.79784 57.0479 11.6166 56.0269C8.73035 55.2362 8.01355 49.2711 12.2171 48.4663C7.91749 49.9541 10.2389 55.152 12.9702 55.2491C11.271 56.2028 11.9237 62.394 16.707 61.775C15.5373 65.1879 20.9322 68.6701 23.901 65.4674C25.1439 69.4732 34.7931 68.8854 33.6865 63.8178C38.9992 65.1476 40.0689 62.2772 40.3796 59.8918Z" fill="#C8D0E8"/>
<g opacity="0.5">
<path opacity="0.5" fill-rule="evenodd" clip-rule="evenodd" d="M28.916 48.8083C31.4662 47.0476 35.9574 49.8447 35.463 51.9747C38.4826 53.4136 38.829 57.88 32.7251 57.2344C33.6215 60.3768 30.0939 60.5773 27.9005 59.3736C27.1591 60.3604 25.0106 60.4686 24.0877 59.378C22.3357 60.7931 16.4749 59.3058 17.9507 56.3337C14.8116 56.1132 14.4992 53.6151 16.0156 52.626C13.1231 52.1269 11.4824 46.3206 18.5792 47.1108C19.9376 44.9006 23.3231 45.1767 24.7157 47.4587C26.0504 46.1068 28.3051 46.8816 28.916 48.8083Z" fill="#DADBF0"/>
<path fill-rule="evenodd" clip-rule="evenodd" d="M37.3335 53.8594C38.2539 55.8125 36.6917 57.8823 32.7255 57.2349C33.6219 60.3772 30.0943 60.5777 27.9009 59.3741C27.1596 60.3608 25.011 60.4691 24.0882 59.3785C22.3361 60.7936 16.4753 59.3063 17.9512 56.3341C14.812 56.1136 14.4996 53.6156 16.0161 52.6264C13.5016 52.1929 11.9346 47.7496 16.2288 47.1139C12.9964 47.9512 13.749 50.7692 16.9793 52.4777C15.1425 53.8648 17.905 56.4059 19.2057 55.2599C17.5441 58.2165 22.6868 59.5292 24.0436 57.6798C25.326 59.47 27.8925 59.6768 28.1261 57.8271C30.8627 59.5265 32.7168 58.5889 32.2443 56.2465C35.1986 56.6891 37.6807 56.6862 37.3335 53.8594Z" fill="#C8D0E8"/>
</g>
<g opacity="0.5">
<path fill-rule="evenodd" clip-rule="evenodd" d="M42.081 30.9277C40.5628 33.9383 27.4338 49.4286 30.0714 52.0062C31.4863 53.3885 30.863 55.2804 26.7478 54.8546C25.4864 55.8141 20.3718 56.1022 21.1537 52.9769C17.9207 51.518 19.818 50.1226 21.7818 49.6818C22.3474 49.5548 23.0096 49.5354 23.6447 49.1949C27.013 47.3891 38.9211 33.8317 42.081 30.9277Z" fill="#DADBF0"/>
<path fill-rule="evenodd" clip-rule="evenodd" d="M34.291 39.8373L34.2816 39.8556C32.3234 42.0776 27.5261 46.7833 23.8817 49.425C23.3136 49.8369 22.7875 50.1246 22.1408 50.2502C19.5128 50.7608 20.7184 52.442 22.3374 52.3897C21.3025 54.1559 24.8666 55.7958 27.0339 54.5856C29.6784 55.6281 30.5225 54.1457 30.6355 52.7445C31.8583 54.6394 30.49 56.6975 27.2437 55.2754C25.9823 56.235 20.371 56.1024 21.1529 52.9771C17.9199 51.5182 19.8179 48.8572 21.5326 49.4719C22.1671 49.6994 23.199 49.3407 23.9403 48.9163C27.2556 47.0198 31.2217 42.6581 34.291 39.8373Z" fill="#C8D0E8"/>
</g>
</g>
<path fill-rule="evenodd" clip-rule="evenodd" d="M30.1101 46.2488C30.1193 45.0836 30.5828 40.9086 30.9513 39.8812L29.999 40.7749C30.7469 36.2967 31.8928 35.2644 35.2464 32.8652L40.8635 36.5324C39.5047 40.5136 39.09 41.995 35.0433 44.2973L35.5543 43.0953C34.7167 43.7952 31.4025 45.6932 30.1101 46.2488Z" fill="url(#paint0_linear)"/>
<path fill-rule="evenodd" clip-rule="evenodd" d="M32.1914 43.1897C32.198 42.367 32.5252 39.4197 32.7852 38.6943L32.113 39.3255C32.6411 36.1639 33.4497 35.4353 35.8172 33.7414L39.7826 36.3303C38.8235 39.1407 38.531 40.1867 35.674 41.8121L36.0346 40.9635C35.4432 41.4572 33.1035 42.7974 32.1914 43.1897Z" fill="#FF5959"/>
<path fill-rule="evenodd" clip-rule="evenodd" d="M33.6969 40.9816C33.7016 40.3794 33.9412 38.2224 34.1317 37.6916L33.6393 38.1535C34.0257 35.8396 34.6177 35.3063 36.3503 34.0666L39.2527 35.9614C38.5507 38.0183 38.3365 38.7839 36.2456 39.9735L36.5098 39.3522C36.077 39.7137 34.3644 40.6947 33.6969 40.9816Z" fill="#FFDDD2"/>
<path fill-rule="evenodd" clip-rule="evenodd" d="M41.2282 39.0581C42.5723 37.9728 43.7131 36.9524 45.0473 35.8826L35.6615 29.6943C35.6165 29.2712 34.8873 29.226 35.0029 28.8818C34.4288 30.4558 33.8458 31.9365 33.3495 33.5666C33.1228 34.117 33.1652 34.8334 33.5316 35.6414C34.0441 36.7794 34.9914 37.68 35.9852 38.3205C37.4844 39.2868 39.5842 40.255 41.2282 39.0581Z" fill="url(#paint1_linear)"/>
<path fill-rule="evenodd" clip-rule="evenodd" d="M37.7251 31.0549L35.6615 29.6943C35.6165 29.2712 34.8873 29.226 35.0029 28.8818C34.4288 30.4558 33.8458 31.9365 33.3495 33.5666C33.1228 34.117 33.1652 34.8334 33.5316 35.6414C34.0276 36.7428 34.9764 37.6704 35.9853 38.3205C37.4374 39.2564 39.4531 40.1941 41.0721 39.1644C39.2096 39.9076 36.3038 37.9897 35.551 36.9617C36.2477 34.9433 36.9658 32.9724 37.7251 31.0549Z" fill="url(#paint2_linear)"/>
<path fill-rule="evenodd" clip-rule="evenodd" d="M44.7715 32.5855C43.6684 30.1587 40.5962 27.9817 37.9084 27.7257C35.2208 27.4698 33.9361 29.2299 35.0395 31.6571C36.1415 34.0858 39.215 36.2609 41.9023 36.5166C44.5901 36.7727 45.8746 35.0125 44.7715 32.5855Z" fill="#0A3C5F"/>
<path d="M42.5294 13.5546C44.1937 11.6705 46.0825 9.97688 47.9598 8.66736C48.3881 8.37021 48.808 8.0849 49.2368 7.82796C51.9735 6.18846 54.1032 5.23715 55.7259 4.87302C57.3457 4.50954 58.3641 4.74863 59.0121 5.34904C59.6863 5.97369 60.094 7.10633 60.1989 8.83801C60.3027 10.5519 60.1045 12.7514 59.674 15.3913C59.5491 16.0372 59.3978 16.679 59.223 17.316C58.5892 19.625 57.6542 21.9284 56.4829 24.0673C53.8203 28.9279 49.2017 34.1241 44.7563 36.8904L44.7561 36.8906C44.3083 37.1695 43.6757 37.5635 43.1516 37.8217L43.1515 37.8217C42.5027 38.1414 41.9295 38.2455 41.1487 38.1992C39.8475 38.1165 38.4222 37.5521 37.1795 36.6658C35.9375 35.78 34.918 34.6013 34.3952 33.3345C34.1861 32.8186 34.1238 32.4227 34.1092 31.9934C34.0933 31.5204 34.1404 31.011 34.2534 30.3599L34.2541 30.3559C35.1811 24.7421 38.7136 17.8762 42.5294 13.5546ZM42.5294 13.5546L42.1547 13.2236M42.5294 13.5546L42.1547 13.2236M42.1547 13.2236C43.8435 11.3116 45.762 9.59073 47.6744 8.25685M42.1547 13.2236C38.2859 17.6052 34.7052 24.5552 33.7608 30.2744L47.6744 8.25685M47.6744 8.25685C48.1041 7.95869 48.5356 7.66521 48.9798 7.39907C59.9901 0.803088 61.8996 4.85693 60.1663 15.479L47.6744 8.25685Z" fill="#DADBF0" stroke="#4048FF"/>
<path fill-rule="evenodd" clip-rule="evenodd" d="M49.2817 6.87836C47.7851 7.70155 46.1438 8.93437 44.918 10.0219C43.9019 10.9235 42.9393 11.9025 42.0688 12.9477C38.7379 16.9454 35.8591 22.8418 35.1862 27.8152C35.0961 28.4404 35.064 28.9512 35.0996 29.4394C35.2608 31.645 37.4017 33.7007 39.1903 34.7601C40.3187 35.4285 41.5442 35.8736 42.6903 35.9846C43.5263 36.062 43.8743 36.0558 44.8688 35.6691C42.1169 36.2455 38.8105 34.0127 37.2682 31.8977C39.4056 24.0999 42.7822 17.1129 48.3617 12.6912C48.8833 13.3145 53.7276 17.7733 57.6509 16.5403L49.4009 7.01601C49.6244 6.87785 49.85 6.74384 50.0797 6.61768C51.746 5.70133 53.1991 5.02695 54.4596 4.57888C53.025 5.00504 51.3119 5.76177 49.2817 6.87836Z" fill="#C2BEDB"/>
<path fill-rule="evenodd" clip-rule="evenodd" d="M60.6686 13.9879C61.1107 10.8441 61.2759 6.87909 60.2514 3.85745C60.231 3.79837 60.2072 3.7289 60.1833 3.65944C60.1657 3.60828 60.1197 3.46321 60.0219 3.39655C59.9299 3.33344 59.7867 3.34687 59.7227 3.34816C56.3594 3.41701 52.4253 4.9745 49.5952 6.62448C49.4152 6.72947 49.2425 6.84304 49.1111 6.96029C48.3155 7.64628 48.1483 8.6789 48.3477 9.68557C48.5394 10.6549 49.0655 11.594 49.6342 12.3376C49.7113 12.444 49.7922 12.5499 49.8763 12.6547C51.4535 14.6172 54.2245 16.2317 56.5409 16.5387C57.392 16.6517 58.2763 16.6148 59.0268 16.3103C59.3961 16.1604 59.7339 15.9422 60.014 15.6313C60.1947 15.4311 60.3493 15.1992 60.4438 14.9651C60.5691 14.6556 60.6231 14.3119 60.6686 13.9879Z" fill="url(#paint3_linear)"/>
<path fill-rule="evenodd" clip-rule="evenodd" d="M60.0531 3.42188C60.0434 3.41254 60.0329 3.40392 60.0219 3.39655C59.9299 3.33344 59.7867 3.34687 59.7227 3.34816C56.3594 3.41701 52.4253 4.9745 49.5952 6.62448C49.4152 6.72947 49.2425 6.84304 49.1111 6.96029C48.3155 7.64628 48.1483 8.6789 48.3477 9.68557C48.3504 9.69949 48.3529 9.71309 48.3558 9.72695L48.3582 9.73773L48.3657 9.77208L48.3673 9.77962C48.3735 9.80811 48.38 9.8364 48.3868 9.86486L48.3885 9.87149C48.3918 9.88476 48.395 9.8978 48.3982 9.91122L48.3986 9.91284C48.4024 9.92759 48.4062 9.9421 48.41 9.9567L48.4101 9.95754C48.4176 9.98596 48.4255 10.0146 48.4334 10.0432L48.4358 10.0512C48.4478 10.094 48.4607 10.1368 48.4739 10.1793L48.4758 10.1851C48.4799 10.1987 48.4842 10.2119 48.4887 10.2255L48.4889 10.2268C48.5033 10.2712 48.5183 10.3154 48.5337 10.3594L48.534 10.3603C48.5496 10.4045 48.5655 10.448 48.5821 10.4917L48.5828 10.4933C48.5938 10.5222 48.605 10.551 48.6163 10.5797L48.6173 10.5819L48.6335 10.6218L48.6351 10.6261C48.6703 10.7122 48.7072 10.797 48.7462 10.8816L48.7483 10.8867L48.7648 10.9225L48.7682 10.9294C48.7807 10.9559 48.7931 10.9819 48.8061 11.0082L48.8108 11.018L48.8256 11.0479L48.8304 11.0575C48.8436 11.084 48.8569 11.1102 48.8703 11.1364L48.8731 11.1421L48.8907 11.176L48.8947 11.1836L48.9095 11.2124L48.9162 11.2245L48.9351 11.2599L48.941 11.271L48.9551 11.2974L48.9628 11.3113L48.9806 11.3434L48.9821 11.3462L49.0042 11.3855L49.0075 11.3914L49.0259 11.4239L49.0302 11.4313L49.0478 11.4619L49.0532 11.4711L49.0726 11.5036L49.0844 11.5238L49.0937 11.5396L49.1048 11.5582L49.1183 11.5809L49.1247 11.5913L49.1445 11.624L49.1519 11.6359L49.1677 11.6615L49.1776 11.6772L49.1887 11.6956L49.2009 11.715L49.2125 11.7335L49.2212 11.7474L49.2402 11.777C49.3666 11.9735 49.4994 12.161 49.6345 12.3377C49.7116 12.4441 49.7925 12.55 49.8766 12.6548C51.4537 14.6176 54.2248 16.2318 56.5411 16.5389C57.3739 16.6495 58.3342 16.6242 59.1267 16.2685C57.9033 16.5087 53.238 16.7269 49.9442 11.0132C52.7908 8.1142 56.0526 5.64371 60.0531 3.42188Z" fill="#1E2136"/>
<path fill-rule="evenodd" clip-rule="evenodd" d="M50.4899 17.1313C52.7403 18.6905 53.3303 21.7385 51.8059 23.939C50.2811 26.1394 47.2214 26.6561 44.9708 25.0966C42.7191 23.5362 42.1274 20.4897 43.6521 18.2893C45.1769 16.089 48.2378 15.5708 50.4899 17.1313Z" fill="#B5B0D2"/>
<path fill-rule="evenodd" clip-rule="evenodd" d="M45.9035 23.7493C44.4449 22.7386 44.0801 20.7405 45.0894 19.2843C46.0986 17.828 48.0985 17.4656 49.5569 18.4763C51.0142 19.4859 51.3778 21.486 50.3686 22.9421C49.3597 24.3985 47.3606 24.7588 45.9035 23.7493ZM50.378 17.2918C48.2652 15.8278 45.3661 16.3506 43.903 18.462C42.441 20.572 42.9689 23.4716 45.0817 24.9356C47.1932 26.3986 50.0936 25.8742 51.5551 23.7642C53.0182 21.6526 52.4894 18.7547 50.378 17.2918Z" fill="#EAE7F4"/>
<path fill-rule="evenodd" clip-rule="evenodd" d="M45.9041 23.75C47.3567 24.7565 49.364 24.3939 50.3693 22.9428C51.376 21.4902 51.0103 19.4836 49.5576 18.477C48.1039 17.4697 46.0967 17.8321 45.09 19.285C44.0845 20.7358 44.4503 22.7426 45.9041 23.75Z" fill="url(#paint4_linear)"/>
<path fill-rule="evenodd" clip-rule="evenodd" d="M49.5576 18.4771C51.0149 19.4867 51.3785 21.4868 50.3693 22.9429C50.2549 23.1083 50.1277 23.2591 49.9891 23.3971C50.6088 22.0128 50.1765 20.3412 48.8859 19.4468C47.594 18.5516 45.8764 18.7338 44.7999 19.8017C44.8786 19.6223 44.9756 19.4502 45.0899 19.285C46.0993 17.8288 48.0991 17.4664 49.5576 18.4771Z" fill="#0A3C5F"/>
<path fill-rule="evenodd" clip-rule="evenodd" d="M49.6846 18.2926C49.8391 18.3997 50.0507 18.362 50.1577 18.2077C50.266 18.0514 50.2267 17.8402 50.0721 17.7332C49.9164 17.6252 49.7048 17.6626 49.5965 17.819C49.4893 17.9736 49.5286 18.1847 49.6846 18.2926Z" fill="#1466A0"/>
<path fill-rule="evenodd" clip-rule="evenodd" d="M45.3869 24.4965C45.5412 24.6035 45.754 24.5644 45.8612 24.4099C45.9681 24.2555 45.9302 24.0423 45.7757 23.9353C45.6199 23.8274 45.4071 23.8665 45.3001 24.0213C45.1928 24.1754 45.2308 24.3884 45.3869 24.4965Z" fill="#1466A0"/>
<path fill-rule="evenodd" clip-rule="evenodd" d="M51.1139 23.4606C51.0068 23.615 50.794 23.6544 50.6383 23.5465C50.4836 23.4394 50.4441 23.2254 50.5511 23.0707C50.658 22.9163 50.8736 22.8764 51.0281 22.9834C51.1843 23.0913 51.2209 23.3062 51.1139 23.4606Z" fill="#1466A0"/>
<path fill-rule="evenodd" clip-rule="evenodd" d="M44.9046 19.1577C44.7976 19.3122 44.5834 19.3505 44.4291 19.2435C44.2731 19.1355 44.2352 18.9226 44.3421 18.768C44.4489 18.6133 44.663 18.5724 44.819 18.6806C44.9735 18.7876 45.0119 19.0035 44.9046 19.1577Z" fill="#1466A0"/>
<path fill-rule="evenodd" clip-rule="evenodd" d="M51.78 20.3803C51.8137 20.5666 51.6907 20.744 51.5056 20.776C51.3208 20.8112 51.142 20.6872 51.1081 20.5008C51.0745 20.3169 51.1977 20.1396 51.3826 20.1046C51.5678 20.0728 51.7464 20.1967 51.78 20.3803Z" fill="#1466A0"/>
<path fill-rule="evenodd" clip-rule="evenodd" d="M44.3505 21.7261C44.3827 21.9115 44.2609 22.0873 44.076 22.122C43.8896 22.1558 43.7107 22.032 43.6785 21.8467C43.6448 21.6604 43.7665 21.4846 43.9529 21.4507C44.1376 21.4155 44.3166 21.5397 44.3505 21.7261Z" fill="#1466A0"/>
<path fill-rule="evenodd" clip-rule="evenodd" d="M48.4654 25.1633C48.2804 25.1984 48.1018 25.0744 48.0676 24.8879C48.0353 24.7025 48.1571 24.5268 48.342 24.4919C48.5287 24.4582 48.7074 24.5821 48.7396 24.7672C48.7733 24.9535 48.6518 25.1294 48.4654 25.1633Z" fill="#1466A0"/>
<path fill-rule="evenodd" clip-rule="evenodd" d="M47.1155 17.7348C46.929 17.7688 46.7501 17.6447 46.7179 17.4594C46.683 17.2749 46.8062 17.0975 46.9923 17.0634C47.1759 17.0303 47.355 17.1545 47.39 17.339C47.4223 17.5243 47.2991 17.702 47.1155 17.7348Z" fill="#1466A0"/>
<path fill-rule="evenodd" clip-rule="evenodd" d="M45.364 35.1335L45.5386 35.0416L45.3492 35.1409L45.364 35.1335Z" fill="#828388"/>
<path fill-rule="evenodd" clip-rule="evenodd" d="M50.2495 31.2456L48.3788 31.0925C46.307 38.8344 43.5527 42.3051 39.8691 47.8351L41.7419 47.9852L41.7402 47.9835C43.7677 45.5679 46.2538 43.1944 47.8976 40.5559C48.6307 39.38 49.2099 38.1423 49.6125 36.7444C50.1283 34.9547 50.2986 33.1708 50.2495 31.2456Z" fill="url(#paint5_linear)"/>
<path fill-rule="evenodd" clip-rule="evenodd" d="M48.3799 31.092L42.7078 36.3611C42.332 39.7405 41.4789 43.5029 39.8703 47.8346C44.2211 42.6527 48.599 39.5826 48.3799 31.092Z" fill="#1E2136"/>
<path fill-rule="evenodd" clip-rule="evenodd" d="M37.3579 22.3117L38.1585 24.0095C31.6375 28.6687 29.3555 32.4665 25.4722 37.8581L24.6736 36.1572L24.676 36.1584C26.2254 33.411 27.5742 30.2501 29.4672 27.784C30.3109 26.685 31.2662 25.7079 32.4333 24.8398C33.9278 23.7279 35.538 22.9417 37.3579 22.3117Z" fill="url(#paint6_linear)"/>
<path fill-rule="evenodd" clip-rule="evenodd" d="M38.1596 24.0091L35.2185 31.1706C32.1864 32.7095 28.9635 34.83 25.4733 37.8576C28.7962 31.9636 30.1327 26.7865 38.1596 24.0091Z" fill="#1E2136"/>
<g style="mix-blend-mode:soft-light">
<path d="M49.7834 21.4791L46.8605 19.5825C47.3984 19.2885 48.1198 19.2656 48.6936 19.6379C49.05 19.8691 49.286 20.221 49.4076 20.5922L49.8712 20.893C49.802 20.2635 49.4525 19.7001 48.8901 19.3351C48.0113 18.7648 46.8831 18.8956 46.1577 19.6233L46.1764 19.6354L47.4852 20.4846L47.2049 20.9166L45.8474 20.0357L45.6338 20.3648L46.9913 21.2457L46.0704 22.6649L46.3995 22.8784L47.3204 21.4592L47.5878 21.6327L46.6669 23.0519L47.0166 23.2788L47.9375 21.8596L48.8477 22.4503L48.9002 22.4843L49.1723 22.6609C49.2775 22.5537 49.3756 22.4315 49.4591 22.3025C49.6248 22.0464 49.7314 21.7668 49.7834 21.4791ZM47.8014 21.3036L47.534 21.1301L47.8142 20.6982L48.0816 20.8717L47.8014 21.3036ZM48.151 21.5305L48.4313 21.0986L49.335 21.685C49.3034 21.8106 49.2221 21.9777 49.1333 22.1149C49.125 22.1277 49.1222 22.1315 49.1085 22.1518L48.151 21.5305Z" fill="white"/>
<path d="M49.7834 21.4791L46.8605 19.5825C47.3984 19.2885 48.1198 19.2656 48.6936 19.6379C49.05 19.8691 49.286 20.221 49.4076 20.5922L49.8712 20.893C49.802 20.2635 49.4525 19.7001 48.8901 19.3351C48.0113 18.7648 46.8831 18.8956 46.1577 19.6233L46.1764 19.6354L47.4852 20.4846L47.2049 20.9166L45.8474 20.0357L45.6338 20.3648L46.9913 21.2457L46.0704 22.6649L46.3995 22.8784L47.3204 21.4592L47.5878 21.6327L46.6669 23.0519L47.0166 23.2788L47.9375 21.8596L48.8477 22.4503L48.9002 22.4843L49.1723 22.6609C49.2775 22.5537 49.3756 22.4315 49.4591 22.3025C49.6248 22.0464 49.7314 21.7668 49.7834 21.4791ZM47.8014 21.3036L47.534 21.1301L47.8142 20.6982L48.0816 20.8717L47.8014 21.3036ZM48.151 21.5305L48.4313 21.0986L49.335 21.685C49.3034 21.8106 49.2221 21.9777 49.1333 22.1149C49.125 22.1277 49.1222 22.1315 49.1085 22.1518L48.151 21.5305Z" fill="white"/>
<path d="M49.3134 18.6254C47.9339 17.7302 46.0833 18.1243 45.1881 19.5038C44.2929 20.8834 44.6869 22.734 46.0665 23.6292C47.4461 24.5244 49.2967 24.1303 50.1919 22.7507C51.0871 21.3712 50.693 19.5206 49.3134 18.6254ZM46.2933 23.2797C45.1064 22.5096 44.7674 20.9175 45.5376 19.7306C46.3077 18.5438 47.8998 18.2047 49.0867 18.9749C50.2735 19.745 50.6125 21.3371 49.8424 22.524C49.0723 23.7108 47.4801 24.0499 46.2933 23.2797Z" fill="white"/>
</g>
<g style="mix-blend-mode:soft-light">
<path d="M49.7916 21.464L46.8562 19.5593C47.3964 19.264 48.1209 19.241 48.6971 19.6149C49.055 19.8471 49.2921 20.2005 49.4142 20.5733L49.8797 20.8754C49.8102 20.2432 49.4593 19.6774 48.8944 19.3108C48.0119 18.7382 46.8788 18.8695 46.1504 19.6002L46.1691 19.6124L47.4835 20.4653L47.202 20.8991L45.8388 20.0145L45.6243 20.3449L46.9876 21.2296L46.0628 22.6548L46.3933 22.8693L47.3181 21.444L47.5866 21.6183L46.6618 23.0435L47.0129 23.2714L47.9378 21.8461L48.8519 22.4393L48.9046 22.4735L49.1779 22.6508C49.2835 22.5432 49.382 22.4205 49.4659 22.2909C49.6323 22.0337 49.7393 21.753 49.7916 21.464ZM47.8011 21.2878L47.5325 21.1135L47.814 20.6798L48.0825 20.854L47.8011 21.2878ZM48.1522 21.5156L48.4337 21.0819L49.3413 21.6708C49.3095 21.7969 49.2278 21.9647 49.1387 22.1025C49.1304 22.1154 49.1275 22.1191 49.1138 22.1396L48.1522 21.5156Z" fill="white"/>
<path d="M49.7916 21.464L46.8562 19.5593C47.3964 19.264 48.1209 19.241 48.6971 19.6149C49.055 19.8471 49.2921 20.2005 49.4142 20.5733L49.8797 20.8754C49.8102 20.2432 49.4593 19.6774 48.8944 19.3108C48.0119 18.7382 46.8788 18.8695 46.1504 19.6002L46.1691 19.6124L47.4835 20.4653L47.202 20.8991L45.8388 20.0145L45.6243 20.3449L46.9876 21.2296L46.0628 22.6548L46.3933 22.8693L47.3181 21.444L47.5866 21.6183L46.6618 23.0435L47.0129 23.2714L47.9378 21.8461L48.8519 22.4393L48.9046 22.4735L49.1779 22.6508C49.2835 22.5432 49.382 22.4205 49.4659 22.2909C49.6323 22.0337 49.7393 21.753 49.7916 21.464ZM47.8011 21.2878L47.5325 21.1135L47.814 20.6798L48.0825 20.854L47.8011 21.2878ZM48.1522 21.5156L48.4337 21.0819L49.3413 21.6708C49.3095 21.7969 49.2278 21.9647 49.1387 22.1025C49.1304 22.1154 49.1275 22.1191 49.1138 22.1396L48.1522 21.5156Z" fill="white"/>
<path d="M49.3202 18.5972C47.9348 17.6982 46.0762 18.0939 45.1773 19.4793C44.2783 20.8648 44.674 22.7233 46.0594 23.6223C47.4449 24.5214 49.3034 24.1256 50.2024 22.7401C51.1014 21.3547 50.7056 19.4962 49.3202 18.5972ZM46.2872 23.2714C45.0953 22.4979 44.7548 20.899 45.5282 19.7071C46.3016 18.5152 47.9005 18.1747 49.0925 18.9481C50.2844 19.7216 50.6248 21.3205 49.8514 22.5124C49.078 23.7043 47.4791 24.0448 46.2872 23.2714Z" fill="white"/>
</g>
<g style="mix-blend-mode:soft-light">
<path d="M49.33 18.6021C47.9445 17.7031 46.086 18.0988 45.187 19.4842C44.288 20.8697 44.6837 22.7282 46.0692 23.6272C47.4547 24.5262 49.3132 24.1304 50.2122 22.745C51.1112 21.3596 50.7154 19.5011 49.33 18.6021ZM46.2969 23.2762C45.105 22.5028 44.7646 20.9039 45.538 19.712C46.3114 18.5201 47.9103 18.1796 49.1022 18.953C50.2941 19.7264 50.6346 21.3254 49.8612 22.5172C49.0878 23.7092 47.4889 24.0497 46.2969 23.2762Z" fill="white"/>
</g>
<circle cx="16.2097" cy="42.088" r="1.05689" transform="rotate(15.4975 16.2097 42.088)" fill="#4048FF"/>
<circle cx="8.29392" cy="39.224" r="1.65458" transform="rotate(15.4975 8.29392 39.224)" fill="#FB6C77"/>
<circle cx="11.829" cy="42.5061" r="1.70917" transform="rotate(15.4975 11.829 42.5061)" fill="#4048FF"/>
<path d="M11.6268 43.1955L11.4876 43.2444C11.428 43.2654 11.3621 43.2338 11.3411 43.1743L11.1513 42.6347C11.1303 42.5751 11.1619 42.5091 11.2215 42.4882L11.3607 42.4392C11.4202 42.4182 11.4862 42.4498 11.5072 42.5094L11.697 43.049C11.7179 43.1086 11.6865 43.1745 11.6268 43.1955Z" fill="white"/>
<path d="M12.3758 42.2036C12.4113 42.1712 12.4263 42.1193 12.4093 42.0713C12.3868 42.0072 12.3158 41.9732 12.252 41.9958L11.9208 42.1122C11.919 42.087 11.9411 41.9679 11.9461 41.9259C11.9505 41.8898 11.9424 41.8523 11.9302 41.8181C11.915 41.7751 11.8906 41.7351 11.8591 41.7018C11.816 41.6563 11.7563 41.6138 11.6932 41.6498C11.6371 41.6819 11.6211 41.7609 11.6622 41.8111C11.6622 41.8111 11.6914 41.849 11.6943 41.8654C11.6982 41.8864 11.6819 41.9287 11.6636 41.9834C11.6268 42.0926 11.5797 42.2378 11.571 42.2881C11.5611 42.3461 11.5622 42.3877 11.5729 42.4315C11.5731 42.4403 11.5747 42.4491 11.5778 42.4579L11.7508 42.9499C11.7669 42.9952 11.8169 43.0193 11.8623 43.0033L12.4444 42.8001C12.5039 42.7793 12.5352 42.7136 12.5145 42.6542C12.5058 42.63 12.49 42.6106 12.4701 42.5973C12.5048 42.5674 12.5196 42.5182 12.5036 42.4728C12.494 42.4456 12.475 42.4244 12.4516 42.4112C12.4824 42.3786 12.4946 42.3303 12.4789 42.2852C12.4625 42.2391 12.4215 42.2088 12.3758 42.2036Z" fill="white"/>
<circle cx="14.1379" cy="49.0238" r="1.39194" transform="rotate(15.4975 14.1379 49.0238)" fill="#4048FF"/>
<path d="M13.9736 49.5857L13.8602 49.6256C13.8117 49.6427 13.758 49.6169 13.7409 49.5684L13.5863 49.129C13.5693 49.0805 13.595 49.0268 13.6435 49.0097L13.7568 48.9698C13.8054 48.9527 13.8591 48.9785 13.8761 49.027L14.0307 49.4664C14.0478 49.5149 14.0222 49.5686 13.9736 49.5857Z" fill="white"/>
<path d="M14.5831 48.7776C14.6121 48.7512 14.6243 48.7089 14.6105 48.6698C14.5921 48.6176 14.5343 48.59 14.4823 48.6083L14.2126 48.7032C14.2112 48.6827 14.2292 48.5857 14.2333 48.5515C14.2368 48.5221 14.2302 48.4915 14.2203 48.4637C14.2079 48.4286 14.1881 48.3961 14.1624 48.3689C14.1273 48.3318 14.0787 48.2972 14.0273 48.3266C13.9816 48.3527 13.9685 48.4171 14.002 48.458C14.002 48.458 14.0258 48.4888 14.0281 48.5022C14.0313 48.5193 14.018 48.5537 14.0031 48.5982C13.9732 48.6872 13.9348 48.8055 13.9278 48.8464C13.9197 48.8936 13.9206 48.9275 13.9293 48.9632C13.9295 48.9703 13.9307 48.9776 13.9333 48.9847L14.0742 49.3854C14.0873 49.4223 14.128 49.4419 14.1649 49.4289L14.639 49.2634C14.6875 49.2464 14.713 49.193 14.6961 49.1446C14.6891 49.1249 14.6762 49.1091 14.66 49.0983C14.6883 49.0739 14.7003 49.0338 14.6872 48.9968C14.6794 48.9747 14.6639 48.9574 14.6449 48.9467C14.67 48.9201 14.68 48.8807 14.6671 48.844C14.6538 48.8065 14.6204 48.7818 14.5831 48.7776Z" fill="white"/>
<circle cx="23.499" cy="50.175" r="2.07176" transform="rotate(15.4975 23.499 50.175)" fill="#4048FF"/>
<path d="M23.255 51.0094L23.0862 51.0688C23.014 51.0942 22.9341 51.0559 22.9087 50.9837L22.6786 50.3296C22.6532 50.2574 22.6915 50.1775 22.7637 50.1521L22.9324 50.0927C23.0046 50.0673 23.0845 50.1056 23.11 50.1778L23.34 50.8319C23.3654 50.9041 23.3273 50.984 23.255 51.0094Z" fill="white"/>
<path d="M24.1616 49.8079C24.2047 49.7686 24.2229 49.7058 24.2022 49.6475C24.1749 49.5699 24.089 49.5287 24.0115 49.556L23.6101 49.6972C23.608 49.6666 23.6347 49.5223 23.6408 49.4714C23.6462 49.4276 23.6363 49.3821 23.6215 49.3407C23.6031 49.2885 23.5735 49.2401 23.5353 49.1997C23.4831 49.1445 23.4107 49.093 23.3343 49.1367C23.2662 49.1755 23.2468 49.2713 23.2967 49.3322C23.2967 49.3322 23.332 49.3781 23.3355 49.398C23.3402 49.4235 23.3205 49.4747 23.2983 49.541C23.2537 49.6734 23.1966 49.8494 23.1861 49.9104C23.1742 49.9807 23.1754 50.0311 23.1885 50.0841C23.1887 50.0948 23.1906 50.1056 23.1944 50.1162L23.4041 50.7126C23.4236 50.7675 23.4842 50.7967 23.5391 50.7773L24.2448 50.531C24.3168 50.5057 24.3549 50.4262 24.3297 50.3541C24.3193 50.3248 24.3001 50.3013 24.276 50.2852C24.318 50.249 24.3359 50.1893 24.3165 50.1342C24.3049 50.1013 24.2818 50.0755 24.2535 50.0596C24.2908 50.02 24.3057 49.9615 24.2866 49.9068C24.2667 49.8509 24.217 49.8142 24.1616 49.8079Z" fill="white"/>
<circle cx="17.9612" cy="45.7829" r="0.86062" transform="rotate(15.4975 17.9612 45.7829)" fill="#4048FF"/>
<path d="M17.8607 46.1298L17.7906 46.1544C17.7606 46.165 17.7274 46.1491 17.7169 46.1191L17.6213 45.8474C17.6107 45.8174 17.6266 45.7842 17.6566 45.7736L17.7267 45.749C17.7567 45.7384 17.7899 45.7543 17.8005 45.7843L17.8961 46.056C17.9066 46.086 17.8908 46.1192 17.8607 46.1298Z" fill="white"/>
<path d="M18.238 45.6311C18.2559 45.6148 18.2634 45.5887 18.2549 45.5645C18.2435 45.5323 18.2078 45.5152 18.1756 45.5265L18.0089 45.5852C18.008 45.5725 18.0191 45.5125 18.0216 45.4914C18.0239 45.4732 18.0198 45.4543 18.0136 45.4371C18.006 45.4154 17.9937 45.3953 17.9778 45.3785C17.9561 45.3556 17.9261 45.3342 17.8943 45.3523C17.866 45.3685 17.858 45.4083 17.8787 45.4336C17.8787 45.4336 17.8934 45.4526 17.8948 45.4609C17.8968 45.4715 17.8886 45.4927 17.8794 45.5203C17.8608 45.5753 17.8371 45.6484 17.8328 45.6737C17.8278 45.7029 17.8283 45.7239 17.8337 45.7459C17.8338 45.7503 17.8346 45.7548 17.8362 45.7592L17.9233 46.007C17.9314 46.0298 17.9566 46.0419 17.9794 46.0339L18.2725 45.9316C18.3025 45.921 18.3183 45.888 18.3078 45.8581C18.3035 45.8459 18.2955 45.8361 18.2855 45.8294C18.303 45.8144 18.3104 45.7896 18.3023 45.7667C18.2975 45.753 18.2879 45.7423 18.2762 45.7357C18.2917 45.7193 18.2978 45.6949 18.2899 45.6722C18.2816 45.649 18.261 45.6338 18.238 45.6311Z" fill="white"/>
<circle cx="12.1339" cy="36.3102" r="1.07558" transform="rotate(15.4975 12.1339 36.3102)" fill="#4048FF"/>
<path d="M12.0061 36.743L11.9185 36.7738C11.8811 36.787 11.8396 36.7671 11.8264 36.7296L11.7069 36.39C11.6937 36.3525 11.7136 36.311 11.7511 36.2978L11.8387 36.267C11.8762 36.2538 11.9177 36.2737 11.9309 36.3112L12.0503 36.6508C12.0635 36.6882 12.0437 36.7298 12.0061 36.743Z" fill="white"/>
<path d="M12.477 36.1194C12.4993 36.0991 12.5088 36.0664 12.4981 36.0362C12.4839 35.9959 12.4392 35.9745 12.399 35.9887L12.1907 36.062C12.1895 36.0461 12.2034 35.9712 12.2066 35.9447C12.2094 35.922 12.2042 35.8984 12.1966 35.8769C12.187 35.8498 12.1717 35.8247 12.1518 35.8037C12.1247 35.775 12.0871 35.7483 12.0474 35.771C12.0121 35.7911 12.002 35.8409 12.0279 35.8725C12.0279 35.8725 12.0463 35.8963 12.0481 35.9067C12.0505 35.9199 12.0403 35.9465 12.0288 35.9809C12.0056 36.0496 11.976 36.141 11.9705 36.1727C11.9643 36.2091 11.965 36.2353 11.9717 36.2629C11.9718 36.2684 11.9728 36.274 11.9748 36.2795L12.0837 36.5891C12.0938 36.6176 12.1253 36.6328 12.1538 36.6227L12.5201 36.4949C12.5576 36.4817 12.5773 36.4404 12.5642 36.403C12.5588 36.3878 12.5488 36.3756 12.5363 36.3672C12.5582 36.3484 12.5675 36.3175 12.5574 36.2889C12.5513 36.2718 12.5394 36.2584 12.5247 36.2501C12.5441 36.2296 12.5518 36.1992 12.5418 36.1708C12.5315 36.1418 12.5057 36.1227 12.477 36.1194Z" fill="white"/>
<path d="M16.0845 42.5147L15.9984 42.545C15.9616 42.558 15.9208 42.5384 15.9078 42.5016L15.7904 42.1679C15.7775 42.1311 15.797 42.0903 15.8338 42.0774L15.9199 42.0471C15.9567 42.0341 15.9975 42.0537 16.0105 42.0905L16.1279 42.4242C16.1408 42.461 16.1214 42.5018 16.0845 42.5147Z" fill="white"/>
<path d="M16.5476 41.9012C16.5696 41.8812 16.5788 41.8491 16.5683 41.8194C16.5544 41.7798 16.5105 41.7588 16.471 41.7727L16.2663 41.8448C16.2652 41.8292 16.2788 41.7555 16.2819 41.7296C16.2846 41.7072 16.2796 41.684 16.2721 41.6629C16.2627 41.6363 16.2476 41.6116 16.2281 41.591C16.2014 41.5628 16.1645 41.5365 16.1255 41.5588C16.0908 41.5786 16.0809 41.6275 16.1064 41.6586C16.1064 41.6586 16.1244 41.682 16.1262 41.6922C16.1286 41.7051 16.1185 41.7313 16.1072 41.7651C16.0845 41.8326 16.0553 41.9224 16.05 41.9535C16.0439 41.9894 16.0445 42.0151 16.0511 42.0422C16.0513 42.0476 16.0522 42.0531 16.0542 42.0585L16.1611 42.3628C16.1711 42.3908 16.202 42.4057 16.23 42.3958L16.59 42.2702C16.6268 42.2572 16.6462 42.2167 16.6333 42.1799C16.628 42.1649 16.6182 42.153 16.6059 42.1447C16.6274 42.1263 16.6365 42.0958 16.6266 42.0677C16.6207 42.0509 16.6089 42.0378 16.5945 42.0296C16.6135 42.0095 16.6211 41.9796 16.6113 41.9517C16.6012 41.9232 16.5759 41.9045 16.5476 41.9012Z" fill="white"/>
<path d="M7.88144 38.7555C8.12115 38.6926 8.26865 38.8768 8.31913 38.955C8.35496 38.869 8.46769 38.6618 8.71457 38.6815C9.07188 38.71 9.15883 39.1537 8.86308 39.5008C8.57316 39.8409 8.40417 39.9199 8.40417 39.9199C8.40417 39.9199 8.22525 39.8717 7.87981 39.5881C7.5273 39.2987 7.5348 38.8467 7.88144 38.7555Z" fill="white"/>
<circle cx="21.6209" cy="43.4142" r="1.65458" transform="rotate(58.9755 21.6209 43.4142)" fill="#FB6C77"/>
<path d="M21.5831 42.7591C21.8004 42.8784 21.7807 43.1135 21.7635 43.205C21.8486 43.1673 22.073 43.0945 22.2386 43.2787C22.4783 43.5452 22.2361 43.927 21.7826 43.9753C21.3382 44.0226 21.1612 43.9637 21.1612 43.9637C21.1612 43.9637 21.0646 43.8056 21.0091 43.3621C20.9524 42.9096 21.2689 42.5867 21.5831 42.7591Z" fill="white"/>
<circle cx="8.97759" cy="46.2124" r="0.737557" transform="rotate(58.9755 8.97759 46.2124)" fill="#FB6C77"/>
<path d="M8.96052 45.9199C9.05737 45.973 9.04857 46.0778 9.04091 46.1186C9.07887 46.1018 9.17889 46.0694 9.2527 46.1515C9.35956 46.2703 9.25158 46.4405 9.04946 46.462C8.85136 46.4831 8.77246 46.4568 8.77246 46.4568C8.77246 46.4568 8.72937 46.3864 8.70462 46.1887C8.67936 45.9869 8.82044 45.843 8.96052 45.9199Z" fill="white"/>
<circle cx="24.064" cy="40.5932" r="0.737557" transform="rotate(58.9755 24.064 40.5932)" fill="#FB6C77"/>
<path d="M24.0469 40.3007C24.1438 40.3539 24.135 40.4587 24.1273 40.4995C24.1653 40.4827 24.2653 40.4502 24.3391 40.5323C24.446 40.6511 24.338 40.8213 24.1359 40.8429C23.9378 40.864 23.8589 40.8377 23.8589 40.8377C23.8589 40.8377 23.8158 40.7672 23.791 40.5695C23.7658 40.3678 23.9069 40.2239 24.0469 40.3007Z" fill="white"/>
<g filter="url(#filter0_f)">
<circle cx="17.7331" cy="38.2496" r="0.734717" transform="rotate(31.0419 17.7331 38.2496)" fill="#FB6C77"/>
<path d="M17.5812 38.0005C17.6912 38.002 17.7324 38.0984 17.7447 38.1379C17.7702 38.1054 17.8431 38.0301 17.9464 38.0679C18.0959 38.1226 18.0803 38.3228 17.9124 38.4361C17.7479 38.5471 17.6662 38.5608 17.6662 38.5608C17.6662 38.5608 17.5954 38.5189 17.4814 38.3564C17.365 38.1907 17.422 37.9982 17.5812 38.0005Z" fill="white"/>
</g>
<circle cx="42.3962" cy="55.0704" r="1.05689" transform="rotate(15.4975 42.3962 55.0704)" fill="#4048FF"/>
<circle cx="34.4804" cy="52.2064" r="1.65458" transform="rotate(15.4975 34.4804 52.2064)" fill="#FB6C77"/>
<circle cx="38.0155" cy="55.4885" r="1.70917" transform="rotate(15.4975 38.0155 55.4885)" fill="#4048FF"/>
<path d="M37.8133 56.1779L37.6741 56.2269C37.6146 56.2478 37.5486 56.2162 37.5276 56.1567L37.3378 55.6171C37.3169 55.5575 37.3484 55.4916 37.408 55.4706L37.5472 55.4216C37.6068 55.4007 37.6727 55.4323 37.6937 55.4918L37.8835 56.0314C37.9045 56.091 37.873 56.1569 37.8133 56.1779Z" fill="white"/>
<path d="M38.5623 55.186C38.5979 55.1536 38.6128 55.1017 38.5958 55.0537C38.5733 54.9896 38.5024 54.9556 38.4385 54.9782L38.1073 55.0947C38.1056 55.0695 38.1276 54.9504 38.1327 54.9083C38.1371 54.8722 38.1289 54.8347 38.1167 54.8005C38.1016 54.7575 38.0772 54.7175 38.0456 54.6842C38.0025 54.6387 37.9428 54.5962 37.8797 54.6322C37.8236 54.6643 37.8076 54.7433 37.8487 54.7936C37.8487 54.7936 37.8779 54.8314 37.8808 54.8479C37.8847 54.8688 37.8684 54.9111 37.8501 54.9658C37.8133 55.075 37.7662 55.2202 37.7575 55.2705C37.7477 55.3285 37.7487 55.3701 37.7595 55.4139C37.7596 55.4227 37.7612 55.4316 37.7643 55.4403L37.9373 55.9323C37.9534 55.9776 38.0035 56.0017 38.0488 55.9857L38.6309 55.7826C38.6904 55.7617 38.7217 55.696 38.701 55.6366C38.6924 55.6124 38.6765 55.5931 38.6567 55.5798C38.6914 55.5499 38.7061 55.5006 38.6901 55.4552C38.6805 55.428 38.6615 55.4068 38.6381 55.3936C38.6689 55.361 38.6812 55.3127 38.6654 55.2676C38.649 55.2215 38.608 55.1912 38.5623 55.186Z" fill="white"/>
<circle cx="40.3244" cy="62.0062" r="1.39194" transform="rotate(15.4975 40.3244 62.0062)" fill="#4048FF"/>
<path d="M40.1601 62.5672L40.0467 62.607C39.9982 62.6241 39.9445 62.5984 39.9274 62.5499L39.7729 62.1104C39.7558 62.0619 39.7815 62.0082 39.83 61.9911L39.9434 61.9513C39.9919 61.9342 40.0456 61.9599 40.0627 62.0084L40.2173 62.4479C40.2343 62.4964 40.2087 62.5501 40.1601 62.5672Z" fill="white"/>
<path d="M40.7697 61.76C40.7986 61.7336 40.8108 61.6914 40.797 61.6523C40.7786 61.6001 40.7209 61.5724 40.6688 61.5908L40.3992 61.6856C40.3977 61.6651 40.4157 61.5681 40.4198 61.5339C40.4234 61.5045 40.4167 61.4739 40.4068 61.4461C40.3945 61.411 40.3746 61.3785 40.3489 61.3514C40.3138 61.3143 40.2652 61.2797 40.2138 61.309C40.1681 61.3351 40.155 61.3995 40.1886 61.4404C40.1886 61.4404 40.2123 61.4712 40.2147 61.4846C40.2178 61.5017 40.2046 61.5361 40.1897 61.5807C40.1597 61.6696 40.1213 61.7879 40.1143 61.8289C40.1062 61.8761 40.1071 61.9099 40.1159 61.9456C40.116 61.9528 40.1173 61.96 40.1198 61.9671L40.2607 62.3678C40.2738 62.4047 40.3146 62.4243 40.3515 62.4113L40.8256 62.2458C40.874 62.2288 40.8995 62.1754 40.8826 62.127C40.8756 62.1073 40.8627 62.0915 40.8465 62.0807C40.8748 62.0563 40.8868 62.0162 40.8738 61.9792C40.8659 61.9571 40.8504 61.9398 40.8314 61.9291C40.8565 61.9025 40.8665 61.8632 40.8536 61.8264C40.8403 61.7889 40.8069 61.7642 40.7697 61.76Z" fill="white"/>
<circle cx="49.6855" cy="63.1574" r="2.07176" transform="rotate(15.4975 49.6855 63.1574)" fill="#4048FF"/>
<path d="M49.4415 63.9919L49.2728 64.0512C49.2006 64.0766 49.1206 64.0383 49.0952 63.9661L48.8651 63.312C48.8397 63.2398 48.878 63.1599 48.9502 63.1345L49.1189 63.0751C49.1911 63.0497 49.2711 63.088 49.2965 63.1602L49.5266 63.8143C49.552 63.8865 49.5138 63.9664 49.4415 63.9919Z" fill="white"/>
<path d="M50.3481 62.7903C50.3912 62.7511 50.4094 62.6882 50.3888 62.63C50.3614 62.5523 50.2755 62.5111 50.198 62.5384L49.7967 62.6796C49.7945 62.6491 49.8212 62.5047 49.8273 62.4538C49.8327 62.41 49.8228 62.3646 49.808 62.3231C49.7897 62.2709 49.7601 62.2225 49.7218 62.1821C49.6696 62.1269 49.5973 62.0754 49.5208 62.1191C49.4528 62.1579 49.4333 62.2538 49.4832 62.3146C49.4832 62.3146 49.5186 62.3605 49.522 62.3805C49.5268 62.4059 49.507 62.4571 49.4849 62.5234C49.4403 62.6558 49.3831 62.8318 49.3727 62.8928C49.3607 62.9631 49.3619 63.0135 49.375 63.0666C49.3752 63.0772 49.3771 63.088 49.3809 63.0986L49.5906 63.695C49.6101 63.7499 49.6707 63.7791 49.7257 63.7597L50.4313 63.5135C50.5034 63.4882 50.5414 63.4086 50.5162 63.3365C50.5058 63.3072 50.4866 63.2838 50.4625 63.2676C50.5046 63.2314 50.5224 63.1717 50.5031 63.1166C50.4914 63.0837 50.4683 63.058 50.44 63.042C50.4774 63.0024 50.4922 62.9439 50.4731 62.8892C50.4532 62.8334 50.4035 62.7966 50.3481 62.7903Z" fill="white"/>
<circle cx="44.1477" cy="58.7653" r="0.86062" transform="rotate(15.4975 44.1477 58.7653)" fill="#4048FF"/>
<path d="M44.0468 59.1122L43.9767 59.1369C43.9467 59.1474 43.9135 59.1315 43.9029 59.1015L43.8073 58.8298C43.7968 58.7998 43.8127 58.7666 43.8427 58.756L43.9128 58.7314C43.9427 58.7208 43.976 58.7367 43.9865 58.7667L44.0821 59.0384C44.0927 59.0684 44.0768 59.1016 44.0468 59.1122Z" fill="white"/>
<path d="M44.424 58.6136C44.4419 58.5973 44.4495 58.5711 44.4409 58.547C44.4296 58.5147 44.3938 58.4976 44.3617 58.5089L44.1949 58.5676C44.194 58.5549 44.2051 58.4949 44.2077 58.4738C44.2099 58.4556 44.2058 58.4367 44.1997 58.4195C44.192 58.3978 44.1797 58.3777 44.1639 58.3609C44.1422 58.338 44.1121 58.3166 44.0803 58.3347C44.0521 58.3509 44.044 58.3907 44.0647 58.416C44.0647 58.416 44.0794 58.435 44.0809 58.4433C44.0828 58.4539 44.0746 58.4752 44.0654 58.5027C44.0469 58.5577 44.0232 58.6308 44.0188 58.6562C44.0138 58.6853 44.0143 58.7063 44.0198 58.7283C44.0199 58.7328 44.0206 58.7372 44.0222 58.7416L44.1093 58.9894C44.1174 59.0122 44.1426 59.0243 44.1654 59.0163L44.4586 58.914C44.4885 58.9035 44.5043 58.8704 44.4938 58.8405C44.4895 58.8283 44.4815 58.8186 44.4715 58.8119C44.489 58.7968 44.4964 58.772 44.4884 58.7491C44.4835 58.7354 44.474 58.7248 44.4622 58.7181C44.4777 58.7017 44.4839 58.6774 44.4759 58.6547C44.4677 58.6315 44.447 58.6162 44.424 58.6136Z" fill="white"/>
<circle cx="38.3204" cy="49.2926" r="1.07558" transform="rotate(15.4975 38.3204 49.2926)" fill="#4048FF"/>
<path d="M38.1927 49.7254L38.1051 49.7562C38.0676 49.7694 38.0261 49.7495 38.0129 49.712L37.8934 49.3724C37.8802 49.335 37.9001 49.2934 37.9376 49.2802L38.0252 49.2494C38.0627 49.2362 38.1042 49.2561 38.1174 49.2936L38.2368 49.6332C38.25 49.6707 38.2302 49.7122 38.1927 49.7254Z" fill="white"/>
<path d="M38.6635 49.1019C38.6859 49.0815 38.6953 49.0488 38.6846 49.0186C38.6704 48.9783 38.6258 48.9569 38.5856 48.9711L38.3772 49.0444C38.3761 49.0285 38.3899 48.9536 38.3931 48.9271C38.3959 48.9044 38.3908 48.8808 38.3831 48.8593C38.3735 48.8322 38.3582 48.8071 38.3383 48.7861C38.3112 48.7574 38.2737 48.7307 38.234 48.7534C38.1986 48.7736 38.1885 48.8233 38.2144 48.8549C38.2144 48.8549 38.2328 48.8787 38.2346 48.8891C38.2371 48.9023 38.2268 48.9289 38.2153 48.9633C38.1921 49.032 38.1625 49.1234 38.1571 49.1551C38.1508 49.1916 38.1515 49.2177 38.1583 49.2453C38.1584 49.2508 38.1593 49.2564 38.1613 49.2619L38.2702 49.5715C38.2803 49.6001 38.3118 49.6152 38.3403 49.6052L38.7067 49.4773C38.7441 49.4642 38.7638 49.4229 38.7508 49.3854C38.7453 49.3702 38.7354 49.358 38.7229 49.3497C38.7447 49.3309 38.754 49.2999 38.7439 49.2713C38.7379 49.2542 38.7259 49.2408 38.7112 49.2325C38.7306 49.212 38.7383 49.1816 38.7284 49.1532C38.7181 49.1242 38.6922 49.1051 38.6635 49.1019Z" fill="white"/>
<path d="M42.271 55.4962L42.1849 55.5265C42.1481 55.5394 42.1073 55.5199 42.0943 55.4831L41.977 55.1494C41.964 55.1126 41.9835 55.0718 42.0204 55.0588L42.1064 55.0285C42.1433 55.0156 42.1841 55.0351 42.197 55.0719L42.3144 55.4056C42.3274 55.4424 42.3079 55.4832 42.271 55.4962Z" fill="white"/>
<path d="M42.7341 54.8827C42.7561 54.8627 42.7654 54.8306 42.7548 54.8009C42.7409 54.7613 42.6971 54.7403 42.6576 54.7542L42.4528 54.8262C42.4517 54.8106 42.4653 54.737 42.4684 54.711C42.4712 54.6887 42.4661 54.6655 42.4586 54.6443C42.4492 54.6177 42.4341 54.593 42.4146 54.5724C42.388 54.5443 42.3511 54.518 42.3121 54.5403C42.2774 54.5601 42.2674 54.609 42.2929 54.64C42.2929 54.64 42.3109 54.6634 42.3127 54.6736C42.3151 54.6866 42.305 54.7127 42.2937 54.7465C42.271 54.8141 42.2418 54.9039 42.2365 54.935C42.2304 54.9708 42.231 54.9965 42.2377 55.0236C42.2378 55.0291 42.2387 55.0345 42.2407 55.0399L42.3477 55.3442C42.3576 55.3722 42.3885 55.3871 42.4166 55.3772L42.7766 55.2516C42.8133 55.2387 42.8327 55.1981 42.8199 55.1613C42.8145 55.1464 42.8048 55.1344 42.7925 55.1262C42.8139 55.1077 42.823 55.0773 42.8132 55.0492C42.8072 55.0324 42.7954 55.0192 42.781 55.0111C42.8001 54.9909 42.8076 54.961 42.7979 54.9331C42.7877 54.9047 42.7624 54.8859 42.7341 54.8827Z" fill="white"/>
<path d="M34.068 51.738C34.3077 51.675 34.4552 51.8592 34.5057 51.9374C34.5415 51.8515 34.6542 51.6442 34.9011 51.664C35.2584 51.6924 35.3454 52.1361 35.0496 52.4832C34.7597 52.8233 34.5907 52.9023 34.5907 52.9023C34.5907 52.9023 34.4118 52.8541 34.0663 52.5705C33.7138 52.2811 33.7213 51.8291 34.068 51.738Z" fill="white"/>
<circle cx="47.8075" cy="56.3976" r="1.65458" transform="rotate(58.9755 47.8075 56.3976)" fill="#FB6C77"/>
<path d="M47.7696 55.7425C47.9869 55.8618 47.9672 56.0969 47.95 56.1884C48.0351 56.1507 48.2595 56.0779 48.4251 56.2621C48.6648 56.5286 48.4226 56.9104 47.9692 56.9587C47.5248 57.006 47.3478 56.9471 47.3478 56.9471C47.3478 56.9471 47.2511 56.789 47.1956 56.3455C47.1389 55.893 47.4554 55.5701 47.7696 55.7425Z" fill="white"/>
<circle cx="35.1636" cy="59.1948" r="0.737557" transform="rotate(58.9755 35.1636 59.1948)" fill="#FB6C77"/>
<path d="M35.1466 58.9023C35.2434 58.9554 35.2346 59.0603 35.2269 59.1011C35.2649 59.0842 35.3649 59.0518 35.4387 59.1339C35.5456 59.2527 35.4376 59.4229 35.2355 59.4444C35.0374 59.4655 34.9585 59.4393 34.9585 59.4393C34.9585 59.4393 34.9154 59.3688 34.8907 59.1711C34.8654 58.9694 35.0065 58.8254 35.1466 58.9023Z" fill="white"/>
<circle cx="50.2505" cy="53.5747" r="0.737557" transform="rotate(58.9755 50.2505 53.5747)" fill="#FB6C77"/>
<path d="M50.2335 53.2822C50.3303 53.3353 50.3215 53.4402 50.3139 53.4809C50.3518 53.4641 50.4518 53.4317 50.5256 53.5138C50.6325 53.6326 50.5245 53.8028 50.3224 53.8243C50.1243 53.8454 50.0454 53.8191 50.0454 53.8191C50.0454 53.8191 50.0023 53.7487 49.9776 53.551C49.9523 53.3492 50.0934 53.2053 50.2335 53.2822Z" fill="white"/>
<g filter="url(#filter1_f)">
<circle cx="43.9196" cy="51.232" r="0.734717" transform="rotate(31.0419 43.9196 51.232)" fill="#FB6C77"/>
<path d="M43.7677 50.9829C43.8777 50.9845 43.9189 51.0808 43.9312 51.1203C43.9568 51.0878 44.0296 51.0126 44.1329 51.0504C44.2824 51.1051 44.2668 51.3052 44.099 51.4185C43.9344 51.5295 43.8527 51.5432 43.8527 51.5432C43.8527 51.5432 43.7819 51.5013 43.6679 51.3389C43.5515 51.1731 43.6085 50.9806 43.7677 50.9829Z" fill="white"/>
</g>
<defs>
<filter id="filter0_f" x="16.6232" y="37.1398" width="2.2195" height="2.2195" filterUnits="userSpaceOnUse" color-interpolation-filters="sRGB">
<feFlood flood-opacity="0" result="BackgroundImageFix"/>
<feBlend mode="normal" in="SourceGraphic" in2="BackgroundImageFix" result="shape"/>
<feGaussianBlur stdDeviation="0.0506904" result="effect1_foregroundBlur"/>
</filter>
<filter id="filter1_f" x="42.8098" y="50.1223" width="2.2195" height="2.2195" filterUnits="userSpaceOnUse" color-interpolation-filters="sRGB">
<feFlood flood-opacity="0" result="BackgroundImageFix"/>
<feBlend mode="normal" in="SourceGraphic" in2="BackgroundImageFix" result="shape"/>
<feGaussianBlur stdDeviation="0.0506904" result="effect1_foregroundBlur"/>
</filter>
<linearGradient id="paint0_linear" x1="37.7464" y1="34.3141" x2="24.1431" y2="53.9293" gradientUnits="userSpaceOnUse">
<stop stop-color="#DB2026"/>
<stop offset="0.505208" stop-color="#4080FF"/>
<stop offset="1" stop-color="#DB2026" stop-opacity="0"/>
</linearGradient>
<linearGradient id="paint1_linear" x1="19.2602" y1="39.4819" x2="48.4353" y2="38.9954" gradientUnits="userSpaceOnUse">
<stop stop-color="#0B1D69"/>
<stop offset="1" stop-color="#4080FF"/>
</linearGradient>
<linearGradient id="paint2_linear" x1="32.9737" y1="32.3832" x2="45.9367" y2="37.9883" gradientUnits="userSpaceOnUse">
<stop stop-color="#0B1D69"/>
<stop offset="1" stop-color="#4080FF"/>
</linearGradient>
<linearGradient id="paint3_linear" x1="49.6503" y1="5.76997" x2="66.8728" y2="13.8229" gradientUnits="userSpaceOnUse">
<stop stop-color="#0B1D69"/>
<stop offset="1" stop-color="#4080FF"/>
</linearGradient>
<linearGradient id="paint4_linear" x1="44.8669" y1="19.6489" x2="52.7832" y2="23.3606" gradientUnits="userSpaceOnUse">
<stop stop-color="#0B1D69"/>
<stop offset="1" stop-color="#4080FF"/>
</linearGradient>
<linearGradient id="paint5_linear" x1="43.6208" y1="39.302" x2="48.8046" y2="42.1743" gradientUnits="userSpaceOnUse">
<stop stop-color="#0B1D69"/>
<stop offset="1" stop-color="#4080FF"/>
</linearGradient>
<linearGradient id="paint6_linear" x1="28.5529" y1="29.017" x2="35.5081" y2="32.8102" gradientUnits="userSpaceOnUse">
<stop stop-color="#0B1D69"/>
<stop offset="1" stop-color="#4080FF"/>
</linearGradient>
</defs>
</svg>
