<svg width="16" height="16" viewBox="0 0 16 16" fill="none" xmlns="http://www.w3.org/2000/svg">
<path fill-rule="evenodd" clip-rule="evenodd" d="M10.9584 9.75324C10.964 9.8289 11.01 9.95061 11.1679 10.121C11.3488 10.3006 11.4761 10.3417 11.5537 10.3417C11.6256 10.3417 11.737 10.3061 11.8885 10.1329L11.8963 10.124L15.4982 6.56219C15.6309 6.40613 15.6709 6.28181 15.6709 6.18443C15.6709 6.08701 15.6309 5.96264 15.498 5.80648C15.3376 5.64878 15.2183 5.61006 15.1366 5.61006C15.0535 5.61006 14.9315 5.65013 14.7669 5.81472L14.5361 6.04549L10.4557 1.96512L10.7183 1.7354C10.8946 1.58112 10.9271 1.47294 10.9271 1.41055C10.9271 1.34477 10.8912 1.22809 10.71 1.05816L10.6982 1.04713L10.6876 1.03498C10.5333 0.858663 10.4251 0.826172 10.3627 0.826172C10.2969 0.826172 10.1802 0.86203 10.0103 1.04328L10.0048 1.04914L6.39823 4.53552C6.23518 4.69918 6.19542 4.82062 6.19542 4.90339C6.19542 4.98647 6.23548 5.10851 6.40007 5.2731C6.54599 5.41902 6.66118 5.45774 6.74977 5.45774C6.84338 5.45774 6.97675 5.41455 7.15536 5.25826L7.38515 5.0572L9.03475 6.7068L6.18327 9.51075L5.95555 9.3134C5.79527 9.17449 5.66805 9.13293 5.56881 9.13293C5.47141 9.13293 5.34706 9.17296 5.19096 9.30577L1.03571 13.501C0.87112 13.6656 0.831055 13.7876 0.831055 13.8707C0.831055 13.9538 0.87112 14.0758 1.03571 14.2404L1.04891 14.2536L2.12925 15.614C2.30552 15.7864 2.42995 15.8262 2.50632 15.8262C2.57827 15.8262 2.68964 15.7906 2.84118 15.6174L2.84833 15.6092L7.05944 11.3981C7.15824 11.2993 7.20404 11.1888 7.20404 11.0484C7.20404 10.9079 7.15824 10.7975 7.05944 10.6987L6.83059 10.4698L9.65018 7.60247L11.3147 9.26694L11.0839 9.49771C10.9725 9.60911 10.9538 9.69099 10.9584 9.75324ZM10.6985 7.01175L9.53949 5.81275L8.1097 4.38297L9.77352 2.71915L13.7954 6.7862L12.1341 8.44744L10.6985 7.01175Z" fill="#ADADC8"/>
</svg>
