<svg width="16" height="16" viewBox="0 0 16 16" fill="none" xmlns="http://www.w3.org/2000/svg">
<path fill-rule="evenodd" clip-rule="evenodd" d="M10.9066 9.83723C10.9122 9.91288 10.9582 10.0346 11.1162 10.205C11.297 10.3846 11.4243 10.4257 11.5019 10.4257C11.5739 10.4257 11.6852 10.3901 11.8368 10.2169L11.8445 10.208L15.4464 6.64617C15.5791 6.49011 15.6192 6.36579 15.6192 6.26841C15.6192 6.171 15.5791 6.04662 15.4462 5.89047C15.2858 5.73277 15.1665 5.69405 15.0848 5.69405C15.0018 5.69405 14.8797 5.73411 14.7151 5.8987L14.4843 6.12947L10.404 2.0491L10.6665 1.81938C10.8428 1.66511 10.8753 1.55693 10.8753 1.49453C10.8753 1.42875 10.8395 1.31207 10.6582 1.14215L10.6464 1.13111L10.6358 1.11897C10.4815 0.942648 10.3733 0.910156 10.3109 0.910156C10.2452 0.910156 10.1285 0.946014 9.95856 1.12727L9.95307 1.13312L6.34647 4.6195C6.18342 4.78316 6.14366 4.90461 6.14366 4.98737C6.14366 5.07045 6.18372 5.1925 6.34831 5.35709C6.49423 5.503 6.60942 5.54173 6.69801 5.54173C6.79163 5.54173 6.92499 5.49854 7.10361 5.34225L7.33339 5.14119L8.98299 6.79079L6.13151 9.59474L5.9038 9.39739C5.74351 9.25847 5.61629 9.21691 5.51705 9.21691C5.41965 9.21691 5.29531 9.25695 5.1392 9.38975L0.983955 13.585C0.819362 13.7495 0.779297 13.8716 0.779297 13.9547C0.779297 14.0377 0.819362 14.1598 0.983952 14.3244L0.99715 14.3376L2.07749 15.698C2.25376 15.8704 2.37819 15.9102 2.45456 15.9102C2.52651 15.9102 2.63788 15.8745 2.78942 15.7013L2.79658 15.6932L7.00768 11.4821C7.10648 11.3833 7.15228 11.2728 7.15228 11.1324C7.15228 10.9919 7.10648 10.8815 7.00768 10.7827L6.77884 10.5538L9.59842 7.68645L11.2629 9.35092L11.0321 9.58169C10.9207 9.6931 10.902 9.77497 10.9066 9.83723ZM10.6468 7.09573L9.48773 5.89673L8.05795 4.46695L9.72176 2.80313L13.7436 6.87019L12.0824 8.53143L10.6468 7.09573Z" fill="#323754"/>
</svg>
