<svg width="127" height="52" viewBox="0 0 127 52" fill="none" xmlns="http://www.w3.org/2000/svg">
<g filter="url(#filter0_d_12497_86773)">
<path d="M6.62109 23.9123C6.62109 12.9455 15.5114 4.05518 26.4782 4.05518H100.564C111.531 4.05518 120.422 12.9455 120.422 23.9123C120.422 34.8791 111.531 43.7695 100.564 43.7695H26.4783C15.5115 43.7695 6.62109 34.8791 6.62109 23.9123Z" fill="#4048FF"/>
<path fill-rule="evenodd" clip-rule="evenodd" d="M26.2227 31.7692V22.1665H27.3425V31.7692H26.2227Z" fill="white"/>
<path fill-rule="evenodd" clip-rule="evenodd" d="M26.2227 18.4067V16.0552H27.3425V18.4067H26.2227Z" fill="white"/>
<path fill-rule="evenodd" clip-rule="evenodd" d="M26.7838 21.4243C27.3597 21.4243 27.8266 20.9574 27.8266 20.3814C27.8266 19.8055 27.3597 19.3386 26.7838 19.3386C26.2078 19.3386 25.741 19.8055 25.741 20.3814C25.741 20.9574 26.2078 21.4243 26.7838 21.4243ZM26.7838 22.5441C27.9782 22.5441 28.9465 21.5759 28.9465 20.3814C28.9465 19.187 27.9782 18.2188 26.7838 18.2188C25.5894 18.2188 24.6211 19.187 24.6211 20.3814C24.6211 21.5759 25.5894 22.5441 26.7838 22.5441Z" fill="white"/>
<path fill-rule="evenodd" clip-rule="evenodd" d="M31.6152 24.8639V16.0552H32.7351V24.8639H31.6152Z" fill="white"/>
<path fill-rule="evenodd" clip-rule="evenodd" d="M31.6152 31.7688V28.3667H32.7351V31.7688H31.6152Z" fill="white"/>
<path fill-rule="evenodd" clip-rule="evenodd" d="M32.1764 27.6567C32.7523 27.6567 33.2192 27.1898 33.2192 26.6139C33.2192 26.0379 32.7523 25.571 32.1764 25.571C31.6004 25.571 31.1335 26.0379 31.1335 26.6139C31.1335 27.1898 31.6004 27.6567 32.1764 27.6567ZM32.1764 28.7765C33.3708 28.7765 34.339 27.8083 34.339 26.6139C34.339 25.4194 33.3708 24.4512 32.1764 24.4512C30.9819 24.4512 30.0137 25.4194 30.0137 26.6139C30.0137 27.8083 30.9819 28.7765 32.1764 28.7765Z" fill="white"/>
<path fill-rule="evenodd" clip-rule="evenodd" d="M37.0068 31.7692V22.1665H38.1267V31.7692H37.0068Z" fill="white"/>
<path fill-rule="evenodd" clip-rule="evenodd" d="M37.0068 18.4067V16.0552H38.1267V18.4067H37.0068Z" fill="white"/>
<path fill-rule="evenodd" clip-rule="evenodd" d="M37.567 21.4243C38.1429 21.4243 38.6098 20.9574 38.6098 20.3814C38.6098 19.8055 38.1429 19.3386 37.567 19.3386C36.991 19.3386 36.5242 19.8055 36.5242 20.3814C36.5242 20.9574 36.991 21.4243 37.567 21.4243ZM37.567 22.5441C38.7614 22.5441 39.7297 21.5759 39.7297 20.3814C39.7297 19.187 38.7614 18.2188 37.567 18.2188C36.3726 18.2188 35.4043 19.187 35.4043 20.3814C35.4043 21.5759 36.3726 22.5441 37.567 22.5441Z" fill="white"/>
<path d="M58.5315 17.8872V29.0552H64.4515V27.2792H60.7715V17.8872H58.5315ZM69.8432 21.8872C70.9952 21.8872 71.9232 22.6232 71.9552 23.7912H67.7472C67.9232 22.5752 68.7712 21.8872 69.8432 21.8872ZM74.0512 26.2712H71.6352C71.3472 26.8632 70.8192 27.3432 69.8592 27.3432C68.7392 27.3432 67.8432 26.6072 67.7312 25.2952H74.2112C74.2592 25.0072 74.2752 24.7192 74.2752 24.4312C74.2752 21.7912 72.4672 20.0472 69.9072 20.0472C67.2832 20.0472 65.4592 21.8232 65.4592 24.6232C65.4592 27.4072 67.3312 29.1992 69.9072 29.1992C72.0992 29.1992 73.5712 27.9032 74.0512 26.2712ZM82.9502 26.5272C82.8862 23.2792 77.9742 24.2872 77.9742 22.6712C77.9742 22.1592 78.4062 21.8232 79.2382 21.8232C80.1182 21.8232 80.6622 22.2872 80.7262 22.9752H82.8702C82.7422 21.2152 81.4462 20.0472 79.3022 20.0472C77.1102 20.0472 75.7982 21.2312 75.7982 22.7032C75.7982 25.9512 80.8062 24.9432 80.8062 26.5272C80.8062 27.0392 80.3262 27.4392 79.4462 27.4392C78.5502 27.4392 77.9262 26.9272 77.8462 26.2552H75.5902C75.6862 27.9032 77.2382 29.1992 79.4622 29.1992C81.6222 29.1992 82.9502 28.0472 82.9502 26.5272ZM91.829 26.5272C91.765 23.2792 86.853 24.2872 86.853 22.6712C86.853 22.1592 87.285 21.8232 88.117 21.8232C88.997 21.8232 89.541 22.2872 89.605 22.9752H91.749C91.621 21.2152 90.325 20.0472 88.181 20.0472C85.989 20.0472 84.677 21.2312 84.677 22.7032C84.677 25.9512 89.685 24.9432 89.685 26.5272C89.685 27.0392 89.205 27.4392 88.325 27.4392C87.429 27.4392 86.805 26.9272 86.725 26.2552H84.469C84.565 27.9032 86.117 29.1992 88.341 29.1992C90.501 29.1992 91.829 28.0472 91.829 26.5272Z" fill="white"/>
</g>
<defs>
<filter id="filter0_d_12497_86773" x="0.621094" y="0.0551758" width="125.801" height="51.7144" filterUnits="userSpaceOnUse" color-interpolation-filters="sRGB">
<feFlood flood-opacity="0" result="BackgroundImageFix"/>
<feColorMatrix in="SourceAlpha" type="matrix" values="0 0 0 0 0 0 0 0 0 0 0 0 0 0 0 0 0 0 127 0" result="hardAlpha"/>
<feOffset dy="2"/>
<feGaussianBlur stdDeviation="3"/>
<feColorMatrix type="matrix" values="0 0 0 0 0.194757 0 0 0 0 0.217159 0 0 0 0 0.329167 0 0 0 0.4 0"/>
<feBlend mode="normal" in2="BackgroundImageFix" result="effect1_dropShadow_12497_86773"/>
<feBlend mode="normal" in="SourceGraphic" in2="effect1_dropShadow_12497_86773" result="shape"/>
</filter>
</defs>
</svg>
