<svg width="98" height="99" viewBox="0 0 98 99" fill="none" xmlns="http://www.w3.org/2000/svg">
<circle cx="48.8224" cy="49.1844" r="46.318" stroke="#00CC9E" stroke-width="5"/>
<path fill-rule="evenodd" clip-rule="evenodd" d="M48.8208 24.9075C48.0102 24.9075 47.2104 25.094 46.4834 25.4526L26.6958 35.219L26.6922 35.2208C25.5163 35.7978 24.5249 36.6918 23.8298 37.8021C23.1341 38.9135 22.7629 40.1973 22.7583 41.5085V62.4301C22.7583 66.3434 25.9629 69.4613 29.8485 69.4613H67.7977C71.6832 69.4613 74.8878 66.3434 74.8878 62.4301L74.8879 41.5173L74.8878 41.5073C74.8826 40.1953 74.5104 38.911 73.8133 37.7995C73.1172 36.6896 72.1249 35.7963 70.9482 35.2202L70.9433 35.2178L51.1582 25.4526C50.4312 25.094 49.6314 24.9075 48.8208 24.9075ZM42.5097 48.5315L45.3156 46.3491C46.2317 45.6366 47.3592 45.2498 48.5197 45.2498C49.6803 45.2498 50.8077 45.6366 51.7238 46.3491L54.5473 48.5453L67.2133 38.9527L48.6955 29.9367L30.0659 39.1315L42.5097 48.5315ZM38.4225 51.7103L27.7583 43.6546V62.4301C27.7583 63.5215 28.6635 64.4613 29.8485 64.4613H67.7977C68.9826 64.4613 69.8878 63.5215 69.8878 62.4301V43.1992L58.6329 51.7231L66.3666 57.7384C67.4564 58.5861 67.6527 60.1568 66.805 61.2467C65.9573 62.3365 64.3866 62.5328 63.2968 61.6851L48.654 50.2958C48.6156 50.266 48.5684 50.2498 48.5197 50.2498C48.4711 50.2498 48.4238 50.266 48.3854 50.2958L33.7415 61.6852C32.6516 62.5329 31.0809 62.3365 30.2333 61.2466C29.3856 60.1567 29.582 58.586 30.6718 57.7384L38.4225 51.7103Z" fill="#00CC9E"/>
</svg>
