<svg width="263" height="261" viewBox="0 0 263 261" fill="none" xmlns="http://www.w3.org/2000/svg">
<g clip-path="url(#clip0)">
<path d="M262.892 72.4916H34.0817V260.612H262.892V72.4916Z" fill="white"/>
<path d="M254.582 38.1915H42.3917C37.8017 38.1915 34.0817 41.9115 34.0817 46.5015V72.4915H262.892V46.5015C262.892 41.9115 259.172 38.1915 254.582 38.1915Z" fill="#1F2337"/>
<path d="M196.582 63.2816H195.952C192.362 63.2816 189.422 60.3416 189.422 56.7516V56.1216C189.422 52.5316 192.362 49.5916 195.952 49.5916H196.582C200.172 49.5916 203.112 52.5316 203.112 56.1216V56.7516C203.112 60.3516 200.172 63.2816 196.582 63.2816Z" fill="#A333B7"/>
<path d="M217.892 63.2816H217.262C213.672 63.2816 210.732 60.3416 210.732 56.7516V56.1216C210.732 52.5316 213.672 49.5916 217.262 49.5916H217.892C221.482 49.5916 224.422 52.5316 224.422 56.1216V56.7516C224.422 60.3516 221.492 63.2816 217.892 63.2816Z" fill="#6EAA6F"/>
<path d="M239.212 63.2816H238.582C234.992 63.2816 232.052 60.3416 232.052 56.7516V56.1216C232.052 52.5316 234.992 49.5916 238.582 49.5916H239.212C242.802 49.5916 245.742 52.5316 245.742 56.1216V56.7516C245.742 60.3516 242.802 63.2816 239.212 63.2816Z" fill="#5045F4"/>
<path d="M172.862 63.2816H78.4117C74.8217 63.2816 71.8817 60.3416 71.8817 56.7516V56.1216C71.8817 52.5316 74.8217 49.5916 78.4117 49.5916H172.862C176.452 49.5916 179.392 52.5316 179.392 56.1216V56.7516C179.392 60.3516 176.452 63.2816 172.862 63.2816Z" fill="white"/>
<path opacity="0.17" d="M57.1117 65.7816H45.2217C43.1017 65.7816 41.3917 64.0616 41.3917 61.9516V50.9316C41.3917 48.8116 43.1117 47.1016 45.2217 47.1016H57.1117C59.2317 47.1016 60.9417 48.8216 60.9417 50.9316V61.9516C60.9417 64.0616 59.2317 65.7816 57.1117 65.7816Z" fill="white"/>
<path d="M246.672 52.4517H17.8617V240.572H246.672V52.4517Z" fill="#EDEEF0"/>
<path d="M238.362 18.1516H26.1717C21.5817 18.1516 17.8617 21.8716 17.8617 26.4616V52.4516H246.672V26.4616C246.672 21.8716 242.952 18.1516 238.362 18.1516Z" fill="#242B35"/>
<path d="M180.362 43.2416H179.732C176.142 43.2416 173.202 40.3016 173.202 36.7116V36.0816C173.202 32.4916 176.142 29.5516 179.732 29.5516H180.362C183.952 29.5516 186.892 32.4916 186.892 36.0816V36.7116C186.892 40.3116 183.952 43.2416 180.362 43.2416Z" fill="#A333B7"/>
<path d="M201.672 43.2416H201.042C197.452 43.2416 194.512 40.3016 194.512 36.7116V36.0816C194.512 32.4916 197.452 29.5516 201.042 29.5516H201.672C205.262 29.5516 208.202 32.4916 208.202 36.0816V36.7116C208.202 40.3116 205.262 43.2416 201.672 43.2416Z" fill="#6EAA6F"/>
<path d="M222.992 43.2416H222.362C218.772 43.2416 215.832 40.3016 215.832 36.7116V36.0816C215.832 32.4916 218.772 29.5516 222.362 29.5516H222.992C226.582 29.5516 229.522 32.4916 229.522 36.0816V36.7116C229.522 40.3116 226.582 43.2416 222.992 43.2416Z" fill="#5045F4"/>
<path d="M156.632 43.2416H62.1817C58.5917 43.2416 55.6517 40.3016 55.6517 36.7116V36.0816C55.6517 32.4916 58.5917 29.5516 62.1817 29.5516H156.632C160.222 29.5516 163.162 32.4916 163.162 36.0816V36.7116C163.162 40.3116 160.232 43.2416 156.632 43.2416Z" fill="white"/>
<path opacity="0.17" d="M40.8917 45.7416H29.0017C26.8817 45.7416 25.1717 44.0216 25.1717 41.9116V30.8916C25.1717 28.7716 26.8917 27.0616 29.0017 27.0616H40.8917C43.0117 27.0616 44.7217 28.7816 44.7217 30.8916V41.9116C44.7217 44.0216 43.0017 45.7416 40.8917 45.7416Z" fill="white"/>
<path d="M229.622 34.3916H0.811737V222.512H229.622V34.3916Z" fill="white"/>
<path d="M95.9617 172.232L70.5417 183.022C54.2517 189.942 35.3617 182.312 28.4517 166.012C21.5417 149.722 29.1717 130.832 45.4617 123.922L70.8817 113.132C87.1717 106.212 106.062 113.842 112.972 130.142C119.892 146.432 112.262 165.312 95.9617 172.232ZM52.4617 140.412C45.2617 143.462 41.8917 151.812 44.9517 159.002C48.0017 166.202 56.3517 169.572 63.5417 166.512L88.9617 155.722C96.1617 152.672 99.5317 144.322 96.4717 137.132C93.4217 129.932 85.0717 126.562 77.8817 129.622L52.4617 140.412Z" fill="#F52079"/>
<path d="M184.412 134.692L158.992 145.482C142.702 152.392 123.812 144.772 116.902 128.472C109.982 112.182 117.622 93.2915 133.912 86.3815L159.332 75.5915C175.622 68.6715 194.512 76.3115 201.422 92.6015C208.332 108.902 200.702 127.782 184.412 134.692ZM140.912 102.882C133.712 105.942 130.342 114.282 133.402 121.472C136.452 128.672 144.802 132.042 151.992 128.982L177.412 118.192C184.612 115.142 187.982 106.792 184.922 99.6015C181.872 92.4015 173.522 89.0315 166.332 92.0915L140.912 102.882Z" fill="#5045F4"/>
<path d="M148.582 124.761L92.2117 148.681C87.6517 150.611 82.3917 148.491 80.4617 143.931C78.5317 139.371 80.6517 134.111 85.2117 132.181L141.592 108.251C146.152 106.321 151.412 108.441 153.342 113.001C155.262 117.561 153.142 122.821 148.582 124.761Z" fill="#4F2674"/>
<path opacity="0.17" d="M144.312 123.192L124.362 131.752C120.782 133.292 116.602 131.622 115.062 128.042L114.792 127.412C113.252 123.832 114.922 119.652 118.502 118.112L138.452 109.552C142.032 108.012 146.212 109.682 147.752 113.262L148.022 113.892C149.562 117.472 147.892 121.662 144.312 123.192Z" fill="white"/>
<path opacity="0.17" d="M108.652 138.302L98.4117 142.692C94.8317 144.232 90.6517 142.562 89.1117 138.982L88.8417 138.352C87.3017 134.772 88.9717 130.592 92.5517 129.052L102.792 124.662C106.372 123.122 110.552 124.792 112.092 128.372L112.362 129.002C113.902 132.582 112.232 136.762 108.652 138.302Z" fill="white"/>
<path opacity="0.17" d="M62.3817 133.232L48.6317 139.132C45.0517 140.672 40.8717 139.002 39.3317 135.422L39.0617 134.792C37.5217 131.212 39.1917 127.032 42.7717 125.492L56.5217 119.592C60.1017 118.052 64.2817 119.722 65.8217 123.302L66.0917 123.932C67.6317 127.502 65.9617 131.692 62.3817 133.232Z" fill="white"/>
<path opacity="0.17" d="M189.002 132.342L175.252 138.242C171.672 139.782 167.492 138.112 165.952 134.532L165.682 133.902C164.142 130.322 165.812 126.142 169.392 124.602L183.142 118.702C186.722 117.162 190.902 118.832 192.442 122.412L192.712 123.042C194.252 126.622 192.582 130.802 189.002 132.342Z" fill="white"/>
<path opacity="0.17" d="M189.002 92.7116L188.372 92.9815C184.792 94.5215 180.612 92.8516 179.072 89.2716L178.812 88.6416C177.272 85.0616 178.942 80.8815 182.522 79.3415L183.152 79.0716C186.732 77.5316 190.912 79.2016 192.452 82.7816L192.722 83.4115C194.252 86.9915 192.582 91.1816 189.002 92.7116Z" fill="white"/>
<path opacity="0.17" d="M92.6017 173.331L65.1717 185.111C61.5917 186.651 57.4117 184.981 55.8717 181.401L55.6017 180.771C54.0617 177.191 55.7317 173.011 59.3117 171.471L86.7417 159.691C90.3217 158.151 94.5017 159.821 96.0417 163.401L96.3117 164.031C97.8517 167.611 96.1817 171.791 92.6017 173.331Z" fill="white"/>
<path d="M221.312 0.0915527H9.12174C4.53174 0.0915527 0.811737 3.81155 0.811737 8.40155V34.3916H229.622V8.40155C229.622 3.81155 225.902 0.0915527 221.312 0.0915527Z" fill="#1F2337"/>
<path d="M139.582 25.1916H45.1417C41.5517 25.1916 38.6117 22.2516 38.6117 18.6616V18.0316C38.6117 14.4416 41.5517 11.5016 45.1417 11.5016H139.592C143.182 11.5016 146.122 14.4416 146.122 18.0316V18.6616C146.112 22.2516 143.182 25.1916 139.582 25.1916Z" fill="white"/>
<path opacity="0.17" d="M23.8417 27.6816H11.9517C9.83174 27.6816 8.12173 25.9616 8.12173 23.8516V12.8316C8.12173 10.7116 9.84174 9.00159 11.9517 9.00159H23.8417C25.9617 9.00159 27.6717 10.7216 27.6717 12.8316V23.8516C27.6717 25.9716 25.9517 27.6816 23.8417 27.6816Z" fill="white"/>
</g>
<defs>
<clipPath id="clip0">
<rect width="262.08" height="260.52" fill="white" transform="translate(0.811737 0.0915527)"/>
</clipPath>
</defs>
</svg>
