<svg width="15" height="15" viewBox="0 0 15 15" fill="none" xmlns="http://www.w3.org/2000/svg">
<path fill-rule="evenodd" clip-rule="evenodd" d="M14.9879 7.53887C14.9879 6.30251 14.1572 5.33434 12.7834 5.33434H10.5252L10.5456 5.27869C10.566 5.22354 10.6234 5.07224 10.6792 4.92512L10.6795 4.92443C10.729 4.79401 10.7772 4.66702 10.7971 4.61338C10.9369 4.23836 11.0388 3.93619 11.1213 3.63694C11.246 3.18465 11.3137 2.77716 11.3137 2.39496C11.3137 1.31327 10.6463 0.641417 9.65901 0.353922C9.2137 0.224253 8.82608 0.190362 8.3743 0.19043H8.02194L7.80132 0.465176C7.55211 0.775523 7.06265 1.33483 6.49835 1.97966L6.49827 1.97975L6.49825 1.97978L6.49824 1.97978C5.45741 3.16914 4.162 4.6494 3.64989 5.39508C3.51696 5.35556 3.37615 5.33434 3.23039 5.33434H1.7607C0.949017 5.33434 0.291016 5.99234 0.291016 6.80402V13.4176C0.291016 14.2293 0.949017 14.8873 1.7607 14.8873H3.23039C3.73512 14.8873 4.18042 14.6329 4.44504 14.2453C4.66805 14.3895 4.91689 14.51 5.18737 14.6067C5.80634 14.8282 6.42024 14.8962 6.92989 14.8869L12.0485 14.8873C14.0731 14.8873 14.9879 11.9065 14.9879 7.53887ZM5.6824 13.2239C5.03787 12.9933 4.70589 12.6186 4.70008 11.9664V6.80402L4.70004 6.79389C4.70139 6.62192 4.73416 6.46869 4.80414 6.30531C4.93254 6.0055 6.09762 4.67627 7.2019 3.41641C7.77183 2.76619 8.32556 2.13444 8.71222 1.67223C8.89698 1.68608 9.07113 1.71448 9.24805 1.76599C9.66915 1.88861 9.84391 2.06456 9.84391 2.39595C9.84391 2.62859 9.79683 2.91204 9.7044 3.24735C9.63532 3.49791 9.54586 3.76303 9.41985 4.10127C9.40211 4.14889 9.35806 4.265 9.31104 4.38893L9.30988 4.39199L9.30987 4.39201L9.30982 4.39214C9.25201 4.54451 9.19002 4.70788 9.16709 4.7699C9.07153 5.02829 9.00858 5.21853 8.96552 5.3914C8.78245 6.12628 8.9661 6.80501 9.84391 6.80501H12.7833C13.2912 6.80501 13.5181 7.06948 13.5181 7.53986C13.5181 11.0603 12.7944 13.4186 12.0484 13.4186H6.90453L6.87739 13.4191C6.55576 13.4248 6.10401 13.3748 5.6824 13.2239ZM1.7607 13.4176V6.80402H3.23039V13.4176H1.7607Z" fill="#6C768C"/>
</svg>
