<svg width="21" height="22" viewBox="0 0 21 22" fill="none" xmlns="http://www.w3.org/2000/svg">
<path fill-rule="evenodd" clip-rule="evenodd" d="M20.5533 10.7245C20.5533 8.99264 19.432 7.63644 17.5776 7.63644H14.5295L14.5571 7.55849C14.5846 7.48113 14.6623 7.26866 14.7378 7.06229L14.7378 7.06227C14.8046 6.87958 14.8696 6.70168 14.8966 6.62654C15.0852 6.10121 15.2228 5.67794 15.3342 5.25875C15.5025 4.62518 15.5938 4.05438 15.5938 3.51899C15.5938 2.00377 14.693 1.06265 13.3603 0.659928C12.7593 0.478289 12.2361 0.430815 11.6262 0.430908H11.1506L10.8528 0.815772C10.5164 1.25053 9.85571 2.03407 9.09395 2.93741L9.09392 2.93744L9.09386 2.93751C7.68946 4.60295 5.94171 6.67555 5.24998 7.72041C5.07016 7.66479 4.87964 7.63492 4.68241 7.63492H2.69863C1.60301 7.63492 0.714844 8.55664 0.714844 9.69364V18.9579C0.714844 20.0949 1.60301 21.0166 2.69863 21.0166H4.68241C5.36337 21.0166 5.96419 20.6606 6.32144 20.118C6.62274 20.3205 6.95899 20.4894 7.32453 20.6251C8.16002 20.9353 8.98865 21.0306 9.67658 21.0175L16.5857 21.0181C19.3185 21.0181 20.5533 16.8426 20.5533 10.7245ZM6.66778 9.69499C6.66778 9.44774 6.71185 9.2288 6.80834 8.99501C6.98166 8.57505 8.55429 6.71307 10.0448 4.94827L10.045 4.94809L10.0453 4.94778C10.8144 4.03712 11.5616 3.15238 12.0835 2.50504C12.3329 2.52445 12.5679 2.56422 12.8067 2.63639C13.3751 2.80815 13.611 3.05461 13.611 3.51882C13.611 3.8447 13.5475 4.24176 13.4227 4.71145C13.3295 5.06243 13.2087 5.43382 13.0386 5.90762C13.0145 5.97477 12.9544 6.13912 12.8905 6.31402L12.8902 6.31482C12.8121 6.52832 12.7284 6.75732 12.6974 6.84423C12.5685 7.20617 12.4835 7.47267 12.4254 7.71482C12.1783 8.74423 12.4262 9.69499 13.611 9.69499H17.5786C18.2642 9.69499 18.5705 10.0654 18.5705 10.7244C18.5705 15.6558 17.5936 18.9592 16.5867 18.9592H9.64345L9.60682 18.9599C9.17267 18.968 8.56291 18.8979 7.99381 18.6866C7.11608 18.3606 6.66778 17.8292 6.66778 16.9005V9.69499ZM2.69892 18.9596V9.69538H4.68271V18.9596H2.69892Z" fill="#75758F"/>
</svg>
