<svg width="19" height="18" viewBox="0 0 19 18" fill="none" xmlns="http://www.w3.org/2000/svg">
<path fill-rule="evenodd" clip-rule="evenodd" d="M18.8052 8.98674C18.8052 7.47523 17.7878 6.2916 16.1052 6.2916H13.3395L13.3645 6.22357C13.3895 6.15608 13.4599 5.97079 13.5283 5.79076L13.5285 5.79032L13.5289 5.78935C13.5893 5.6303 13.6481 5.47563 13.6725 5.4102C13.8437 4.95171 13.9685 4.5823 14.0696 4.21645C14.2223 3.66351 14.3052 3.16533 14.3052 2.69807C14.3052 1.37565 13.4879 0.554283 12.2786 0.202808C11.7332 0.0442811 11.2585 0.00284779 10.7052 0.00292981H10.2736L10.0034 0.338822C9.6982 0.718235 9.09873 1.40201 8.4076 2.19035L8.40757 2.19039L8.40748 2.19049L8.40747 2.1905L8.40744 2.19053C7.13272 3.64453 5.54624 5.45413 4.919 6.36577C4.75618 6.31745 4.58372 6.2915 4.40518 6.2915H2.60518C1.61106 6.2915 0.805176 7.09594 0.805176 8.08827V16.1737C0.805176 17.166 1.61106 17.9705 2.60518 17.9705H4.40518C5.02332 17.9705 5.56868 17.6594 5.89278 17.1856C6.16592 17.362 6.4707 17.5092 6.80198 17.6275C7.56007 17.8983 8.31193 17.9814 8.93613 17.97L15.2052 17.9706C17.6848 17.9706 18.8052 14.3263 18.8052 8.98674ZM7.40799 15.937C6.62558 15.6575 6.21923 15.205 6.20518 14.4206V8.08827L6.20501 8.06303C6.20817 7.85801 6.24839 7.67427 6.33234 7.47861C6.48961 7.11209 7.91654 5.48704 9.26901 3.9468L9.26911 3.94669C9.96709 3.1518 10.6452 2.3795 11.1188 1.81445C11.3451 1.8314 11.5583 1.86611 11.775 1.92909C12.2908 2.079 12.5048 2.2941 12.5048 2.69924C12.5048 2.98365 12.4472 3.33019 12.3339 3.74011C12.2493 4.04643 12.1398 4.37056 11.9854 4.78408C11.9635 4.84277 11.9089 4.98657 11.8508 5.13947L11.8505 5.14025C11.7797 5.32636 11.7039 5.52576 11.6759 5.60151C11.5588 5.91739 11.4817 6.14998 11.429 6.36132C11.2048 7.25974 11.4297 8.08953 12.5048 8.08953H16.1048C16.7269 8.08953 17.0048 8.41285 17.0048 8.98791C17.0048 13.2918 16.1184 16.175 15.2048 16.175H8.90481L8.87156 16.1755C8.47764 16.1826 7.92437 16.1214 7.40799 15.937ZM2.60445 16.1736V8.08813H4.40445V16.1736H2.60445Z" fill="#323754"/>
</svg>
