<svg width="19" height="19" viewBox="0 0 19 19" fill="none" xmlns="http://www.w3.org/2000/svg">
<path fill-rule="evenodd" clip-rule="evenodd" d="M18.8369 9.30445C18.8369 7.79026 17.8196 6.60452 16.1369 6.60452H13.3712L13.3962 6.53637C13.4213 6.46872 13.4918 6.28291 13.5602 6.10246C13.6208 5.94276 13.6798 5.78725 13.7043 5.72156C13.8754 5.26226 14.0003 4.89219 14.1013 4.52569C14.254 3.97176 14.3369 3.4727 14.3369 3.00462C14.3369 1.67985 13.5196 0.857019 12.3104 0.50492C11.765 0.346112 11.2903 0.304605 10.7369 0.304688H10.3054L10.0352 0.641175C9.72995 1.02128 9.13043 1.70634 8.43925 2.49613L8.43924 2.49615C7.16458 3.95266 5.57818 5.76539 4.95088 6.67869C4.78802 6.63026 4.6155 6.60425 4.4369 6.60425H2.63691C1.6428 6.60425 0.836914 7.41011 0.836914 8.4042V16.504C0.836914 17.4981 1.6428 18.3039 2.63691 18.3039H4.4369C5.055 18.3039 5.60033 17.9924 5.92443 17.5178C6.19761 17.6945 6.50243 17.842 6.83376 17.9606C7.59184 18.2318 8.34371 18.3151 8.96791 18.3037L15.2369 18.3042C17.7165 18.3042 18.8369 14.6535 18.8369 9.30445ZM7.43989 16.2665C6.6534 15.9851 6.2469 15.5285 6.2369 14.7351V8.4042L6.23681 8.38628C6.23908 8.17778 6.27925 7.99157 6.36425 7.79311C6.52151 7.42594 7.94843 5.79802 9.30089 4.25505L9.3009 4.25503C9.99892 3.45869 10.6771 2.68498 11.1507 2.1189C11.3769 2.13587 11.5902 2.17064 11.8069 2.23374C12.3227 2.38391 12.5367 2.59939 12.5367 3.00526C12.5367 3.29017 12.479 3.63732 12.3658 4.04797C12.2812 4.35484 12.1717 4.67954 12.0173 5.0938C11.9954 5.15251 11.9409 5.29624 11.8829 5.44918L11.8827 5.44977L11.8825 5.45016C11.8117 5.63672 11.7358 5.83674 11.7078 5.91267C11.5907 6.22912 11.5136 6.46212 11.4609 6.67384C11.2367 7.57385 11.4616 8.40511 12.5367 8.40511H16.1367C16.7588 8.40511 17.0367 8.729 17.0367 9.30509C17.0367 13.6166 16.1503 16.5049 15.2367 16.5049H8.9367L8.90346 16.5054C8.50954 16.5125 7.95626 16.4512 7.43989 16.2665ZM2.63628 16.5038V8.40405H4.43628V16.5038H2.63628Z" fill="#1F2337"/>
</svg>
