<svg width="32" height="32" viewBox="0 0 32 32" fill="none" xmlns="http://www.w3.org/2000/svg">
<circle cx="15.9321" cy="15.6699" r="15.4702" fill="#F6F6FF"/>
<path d="M7.88818 15.0499C8.16818 13.5799 9.54818 12.5699 11.0482 12.5699H13.9782C14.4982 12.5699 14.9282 12.1399 14.9282 11.6199C14.9282 11.0999 14.4982 10.6699 13.9782 10.6699H11.1482C8.53818 10.6699 6.20818 12.5799 5.95818 15.1799C5.88904 15.8742 5.9661 16.5752 6.18439 17.2378C6.40268 17.9004 6.75736 18.51 7.22558 19.0272C7.6938 19.5444 8.26517 19.9578 8.90289 20.2407C9.54061 20.5237 10.2305 20.6699 10.9282 20.6699H13.9782C14.4982 20.6699 14.9282 20.2399 14.9282 19.7199C14.9282 19.1999 14.4982 18.7699 13.9782 18.7699H10.9282C10.4689 18.7685 10.0155 18.6654 9.60082 18.4679C9.1861 18.2704 8.82027 17.9836 8.52961 17.6279C8.23895 17.2722 8.03069 16.8566 7.91978 16.4108C7.80888 15.9651 7.79809 15.5003 7.88818 15.0499ZM12.9282 16.6699H18.9282C19.4782 16.6699 19.9282 16.2199 19.9282 15.6699C19.9282 15.1199 19.4782 14.6699 18.9282 14.6699H12.9282C12.3782 14.6699 11.9282 15.1199 11.9282 15.6699C11.9282 16.2199 12.3782 16.6699 12.9282 16.6699ZM20.7082 10.6699H17.8782C17.3582 10.6699 16.9282 11.0999 16.9282 11.6199C16.9282 12.1399 17.3582 12.5699 17.8782 12.5699H20.8082C22.3082 12.5699 23.6882 13.5799 23.9682 15.0499C24.0583 15.5003 24.0475 15.9651 23.9366 16.4108C23.8257 16.8566 23.6174 17.2722 23.3268 17.6279C23.0361 17.9836 22.6703 18.2704 22.2555 18.4679C21.8408 18.6654 21.3875 18.7685 20.9282 18.7699H17.8782C17.3582 18.7699 16.9282 19.1999 16.9282 19.7199C16.9282 20.2399 17.3582 20.6699 17.8782 20.6699H20.9282C23.8482 20.6699 26.1882 18.1599 25.9082 15.1799C25.6582 12.5799 23.3182 10.6699 20.7082 10.6699Z" fill="#1F2337"/>
</svg>
