<svg width="12" height="13" viewBox="0 0 12 13" fill="none" xmlns="http://www.w3.org/2000/svg">
<path d="M0 1.73354C0 1.32949 0.135139 0.996157 0.405405 0.733539C0.675672 0.470909 1.02703 0.3396 1.45946 0.3396C1.88417 0.3396 2.2278 0.468884 2.49035 0.727478C2.76061 0.994145 2.89575 1.34161 2.89575 1.7699C2.89575 2.15778 2.76448 2.48101 2.50193 2.7396C2.23166 3.00627 1.87645 3.1396 1.43629 3.1396H1.42471C0.999996 3.1396 0.656375 3.00627 0.393822 2.7396C0.13127 2.47293 0 2.13758 0 1.73354ZM0.150579 12.3396V4.24263H2.72201V12.3396H0.150579ZM4.14672 12.3396H6.71815V7.81839C6.71815 7.53555 6.74904 7.31737 6.81081 7.16384C6.91892 6.88909 7.08301 6.65676 7.30309 6.46687C7.52317 6.27697 7.79922 6.18202 8.13128 6.18202C8.99614 6.18202 9.42857 6.79212 9.42857 8.01233V12.3396H12V7.69718C12 6.50121 11.7297 5.59415 11.1892 4.97596C10.6486 4.35778 9.93437 4.04869 9.04633 4.04869C8.05019 4.04869 7.27413 4.49718 6.71815 5.39415V5.41839H6.70656L6.71815 5.39415V4.24263H4.14672C4.16216 4.50121 4.16988 5.30525 4.16988 6.65475C4.16988 8.00424 4.16216 9.89919 4.14672 12.3396Z" fill="#7277F7"/>
</svg>
