<svg width="24" height="23" viewBox="0 0 24 23" fill="none" xmlns="http://www.w3.org/2000/svg">
<circle cx="12.4805" cy="11.5" r="11.5" fill="#C4C4C4"/>
<path d="M6.24609 6.66117C6.24609 6.25658 6.38625 5.9228 6.66655 5.65982C6.94684 5.39684 7.31124 5.26535 7.75972 5.26535C8.2002 5.26535 8.55657 5.39481 8.82887 5.65375C9.10917 5.92078 9.24932 6.26872 9.24932 6.69759C9.24932 7.08599 9.11318 7.40965 8.84088 7.66859C8.56058 7.93562 8.19218 8.06913 7.73569 8.06913H7.72368C7.2832 8.06913 6.92683 7.93562 6.65453 7.66859C6.38224 7.40157 6.24609 7.06576 6.24609 6.66117ZM6.40226 17.2816V9.17366H9.06913V17.2816H6.40226ZM10.5467 17.2816H13.2136V12.7542C13.2136 12.471 13.2456 12.2526 13.3097 12.0988C13.4218 11.8237 13.592 11.5911 13.8202 11.4009C14.0485 11.2107 14.3348 11.1157 14.6792 11.1157C15.5761 11.1157 16.0246 11.7266 16.0246 12.9484V17.2816H18.6915V12.6329C18.6915 11.4353 18.4112 10.527 17.8506 9.90798C17.29 9.28896 16.5492 8.97945 15.6282 8.97945C14.5951 8.97945 13.7902 9.42855 13.2136 10.3267V10.351H13.2016L13.2136 10.3267V9.17366H10.5467C10.5627 9.43259 10.5707 10.2377 10.5707 11.589C10.5707 12.9404 10.5627 14.8379 10.5467 17.2816Z" fill="white"/>
</svg>
