<svg width="41" height="35" viewBox="0 0 41 35" fill="none" xmlns="http://www.w3.org/2000/svg">
<circle cx="17.5" cy="17.5" r="16.5" fill="white" stroke="#00CC9E" stroke-width="2"/>
<path d="M9 9.12408C9 8.50839 9.21328 8.00046 9.63982 7.60028C10.0664 7.20009 10.6209 7 11.3033 7C11.9736 7 12.5159 7.197 12.9303 7.59105C13.3568 7.99739 13.5701 8.52686 13.5701 9.17949C13.5701 9.77054 13.363 10.2631 12.9486 10.6571C12.5221 11.0635 11.9614 11.2666 11.2668 11.2666H11.2485C10.5782 11.2666 10.0359 11.0635 9.62154 10.6571C9.20717 10.2508 9 9.73975 9 9.12408ZM9.23765 25.2856V12.9474H13.2959V25.2856H9.23765ZM15.5444 25.2856H19.6027V18.3961C19.6027 17.9652 19.6514 17.6327 19.7489 17.3988C19.9195 16.9801 20.1785 16.6261 20.5259 16.3367C20.8732 16.0473 21.3089 15.9027 21.8329 15.9027C23.1979 15.9027 23.8803 16.8323 23.8803 18.6917V25.2856H27.9386V18.2114C27.9386 16.389 27.5121 15.0069 26.659 14.0649C25.8059 13.1229 24.6786 12.6519 23.2771 12.6519C21.705 12.6519 20.4802 13.3353 19.6027 14.7021V14.739H19.5844L19.6027 14.7021V12.9474H15.5444C15.5688 13.3414 15.581 14.5666 15.581 16.623C15.581 18.6794 15.5688 21.5669 15.5444 25.2856Z" fill="#00CC9E"/>
<path d="M35.012 19.6912C34.9918 19.7112 34.9727 19.7319 34.9545 19.7532C34.9357 19.7741 34.9176 19.7955 34.9001 19.8174L34.9 19.8173L34.8943 19.8247L29.1758 27.1107L26.1165 24.0528C25.9009 23.8253 25.6425 23.6425 25.356 23.5149C25.0634 23.3845 24.7476 23.3144 24.4273 23.3087C24.1071 23.3031 23.7889 23.362 23.4919 23.482C23.1949 23.6019 22.9251 23.7805 22.6986 24.007C22.4721 24.2335 22.2936 24.5033 22.1736 24.8003C22.0536 25.0973 21.9947 25.4154 22.0004 25.7357C22.006 26.056 22.0761 26.3718 22.2065 26.6644C22.3341 26.9509 22.517 27.2093 22.7445 27.4249L27.6189 32.3012L27.619 32.3013C27.8458 32.528 28.1159 32.7068 28.4133 32.8268C28.7107 32.9467 29.0293 33.0055 29.3499 32.9996C29.6706 32.9937 29.9867 32.9231 30.2795 32.7922C30.5722 32.6613 30.8356 32.4727 31.0538 32.2377C31.0705 32.2197 31.0865 32.2011 31.1018 32.182L38.4516 22.9947C38.8626 22.5452 39.0865 21.9548 39.0761 21.3446C39.0654 20.718 38.8086 20.1207 38.361 19.682C37.9135 19.2433 37.3113 18.9983 36.6846 19C36.0579 19.0017 35.4571 19.25 35.012 19.6912Z" fill="#00CC9E" stroke="white" stroke-width="2" stroke-linejoin="round"/>
</svg>
