<svg width="30" height="30" viewBox="0 0 30 30" fill="none" xmlns="http://www.w3.org/2000/svg">
<circle cx="15" cy="15" r="15" fill="#0A66C2"/>
<path d="M6.86719 8.68844C6.86719 8.1607 7.05 7.72533 7.4156 7.38233C7.78121 7.0393 8.25651 6.8678 8.84148 6.8678C9.41602 6.8678 9.88085 7.03666 10.236 7.37441C10.6016 7.72271 10.7844 8.17654 10.7844 8.73593C10.7844 9.24254 10.6069 9.66471 10.2517 10.0025C9.88609 10.3508 9.40557 10.5249 8.81014 10.5249H8.79448C8.21994 10.5249 7.7551 10.3508 7.39993 10.0025C7.04476 9.65417 6.86719 9.21615 6.86719 8.68844ZM7.07088 22.5411V11.9656H10.5494V22.5411H7.07088ZM12.4767 22.5411H15.9552V16.6359C15.9552 16.2665 15.997 15.9815 16.0806 15.781C16.2268 15.4222 16.4488 15.1187 16.7465 14.8707C17.0442 14.6227 17.4176 14.4987 17.8668 14.4987C19.0368 14.4987 19.6218 15.2955 19.6218 16.8892V22.5411H23.1003V16.4776C23.1003 14.9155 22.7347 13.7308 22.0034 12.9234C21.2722 12.116 20.306 11.7123 19.1047 11.7123C17.7571 11.7123 16.7073 12.2981 15.9552 13.4696V13.5013H15.9395L15.9552 13.4696V11.9656H12.4767C12.4976 12.3033 12.508 13.3535 12.508 15.1161C12.508 16.8787 12.4976 19.3537 12.4767 22.5411Z" fill="white"/>
</svg>
