<svg width="49" height="49" viewBox="0 0 49 49" fill="none" xmlns="http://www.w3.org/2000/svg">
<circle cx="24.2407" cy="24.2339" r="24" fill="#0E76A8"/>
<path d="M11.2295 14.1354C11.2295 13.2911 11.522 12.5945 12.107 12.0457C12.6919 11.4968 13.4524 11.2224 14.3884 11.2224C15.3076 11.2224 16.0514 11.4926 16.6196 12.033C17.2046 12.5903 17.4971 13.3164 17.4971 14.2114C17.4971 15.022 17.213 15.6975 16.6447 16.2379C16.0597 16.7952 15.2909 17.0738 14.3382 17.0738H14.3132C13.3939 17.0738 12.6502 16.7952 12.0819 16.2379C11.5136 15.6806 11.2295 14.9798 11.2295 14.1354ZM11.5554 36.2997V19.3789H17.121V36.2997H11.5554ZM20.2047 36.2997H25.7703V26.8514C25.7703 26.2603 25.8372 25.8044 25.9709 25.4836C26.2049 24.9094 26.56 24.4239 27.0364 24.027C27.5127 23.6302 28.1102 23.4318 28.8289 23.4318C30.7009 23.4318 31.6368 24.7067 31.6368 27.2567V36.2997H37.2024V26.5981C37.2024 24.0988 36.6175 22.2032 35.4475 20.9114C34.2775 19.6195 32.7316 18.9736 30.8095 18.9736C28.6534 18.9736 26.9737 19.9108 25.7703 21.7853V21.8359H25.7453L25.7703 21.7853V19.3789H20.2047C20.2381 19.9193 20.2548 21.5995 20.2548 24.4197C20.2548 27.2398 20.2381 31.1998 20.2047 36.2997Z" fill="white"/>
</svg>
