<svg width="110" height="91" viewBox="0 0 110 91" fill="none" xmlns="http://www.w3.org/2000/svg">
<path fill-rule="evenodd" clip-rule="evenodd" d="M47.0391 20.3394L57.6543 9.72415C61.2311 6.14734 67.0302 6.14734 70.607 9.72415L71.2171 10.3342C74.7939 13.911 74.7939 19.7102 71.2171 23.287L52.9533 41.5508C49.3765 45.1276 43.5774 45.1276 40.0006 41.5508L39.3905 40.9407C38.4273 39.9774 37.7234 38.853 37.279 37.6542C35.6946 39.1342 34.1182 40.6305 32.6465 42.1034C33.2991 43.2312 34.1079 44.2933 35.0729 45.2583L35.683 45.8684C41.6443 51.8297 51.3096 51.8297 57.2709 45.8684L75.5347 27.6046C81.4961 21.6432 81.4961 11.978 75.5347 6.01664L74.9246 5.40656C68.9633 -0.554789 59.298 -0.554792 53.3367 5.40656L35.2908 23.4525C39.2497 20.388 43.474 19.2533 47.0391 20.3394Z" fill="url(#paint0_linear)"/>
<path fill-rule="evenodd" clip-rule="evenodd" d="M42.9905 54.5834L32.3752 65.1987C28.7983 68.7755 22.9992 68.7755 19.4224 65.1987L18.8123 64.5886C15.2355 61.0118 15.2355 55.2127 18.8123 51.6359L37.0761 33.3721C40.6529 29.7953 46.452 29.7953 50.0289 33.3721L50.6389 33.9822C51.553 34.8962 52.2335 35.9555 52.6804 37.0856C53.5422 36.1797 54.4074 35.2736 55.2618 34.379C55.8953 33.7155 56.5229 33.0584 57.1387 32.4121C56.5319 31.4356 55.8045 30.5126 54.9565 29.6646L54.3464 29.0545C48.3851 23.0931 38.7198 23.0931 32.7585 29.0545L14.4947 47.3183C8.53337 53.2796 8.53337 62.9449 14.4947 68.9062L15.1048 69.5163C21.0661 75.4776 30.7314 75.4776 36.6927 69.5163L54.7372 51.4718C50.7787 54.5353 46.5551 55.6695 42.9905 54.5834Z" fill="url(#paint1_linear)"/>
<circle cx="75.3439" cy="33.9454" r="13.8757" fill="white" stroke="#00CC9E" stroke-width="2.39524"/>
<g opacity="0.5" filter="url(#filter0_f)">
<ellipse cx="55.0126" cy="84.5808" rx="52.1083" ry="3.48804" fill="url(#paint2_radial)"/>
</g>
<g style="mix-blend-mode:multiply">
<path d="M57.6548 9.70646L47.0396 20.3216C43.4751 19.2355 39.2515 20.3697 35.293 23.4331L47.1835 11.5425C53.7329 8.34817 59.175 7.32484 62.2074 7.22705C60.539 7.58378 58.951 8.41026 57.6548 9.70646Z" fill="url(#paint3_linear)"/>
</g>
<g style="mix-blend-mode:multiply">
<path d="M32.3784 65.1949L42.9936 54.5797C46.5582 55.6658 50.7817 54.5316 54.7402 51.4683L42.8497 63.3588C36.3003 66.5532 30.8582 67.5765 27.8258 67.6743C29.4942 67.3176 31.0822 66.4911 32.3784 65.1949Z" fill="url(#paint4_linear)"/>
</g>
<path fill-rule="evenodd" clip-rule="evenodd" d="M73.8817 33.9464C73.8817 33.5575 74.0362 33.1846 74.3112 32.9096C74.5862 32.6346 74.9591 32.4801 75.348 32.4801H81.2129C81.6018 32.4801 81.9747 32.6346 82.2497 32.9096C82.5247 33.1846 82.6791 33.5575 82.6791 33.9464C82.6791 34.3352 82.5247 34.7082 82.2497 34.9832C81.9747 35.2581 81.6018 35.4126 81.2129 35.4126H76.8142V39.8113C76.8142 40.2002 76.6597 40.5731 76.3848 40.8481C76.1098 41.1231 75.7368 41.2776 75.348 41.2776C74.9591 41.2776 74.5862 41.1231 74.3112 40.8481C74.0362 40.5731 73.8817 40.2002 73.8817 39.8113V33.9464Z" fill="#00CC9E"/>
<path fill-rule="evenodd" clip-rule="evenodd" d="M76.8062 33.9445C76.8062 34.3333 76.6517 34.7063 76.3768 34.9812C76.1018 35.2562 75.7288 35.4107 75.34 35.4107L69.475 35.4107C69.0862 35.4107 68.7132 35.2562 68.4382 34.9812C68.1633 34.7063 68.0088 34.3333 68.0088 33.9445C68.0088 33.5556 68.1633 33.1826 68.4382 32.9077C68.7132 32.6327 69.0862 32.4782 69.475 32.4782L73.8737 32.4782L73.8737 28.0795C73.8737 27.6906 74.0282 27.3177 74.3032 27.0427C74.5782 26.7678 74.9511 26.6133 75.34 26.6133C75.7288 26.6133 76.1018 26.7678 76.3768 27.0427C76.6517 27.3177 76.8062 27.6906 76.8062 28.0795L76.8062 33.9445Z" fill="#00CC9E"/>
<defs>
<filter id="filter0_f" x="0.868965" y="79.0574" width="108.287" height="11.0467" filterUnits="userSpaceOnUse" color-interpolation-filters="sRGB">
<feFlood flood-opacity="0" result="BackgroundImageFix"/>
<feBlend mode="normal" in="SourceGraphic" in2="BackgroundImageFix" result="shape"/>
<feGaussianBlur stdDeviation="1.01767" result="effect1_foregroundBlur"/>
</filter>
<linearGradient id="paint0_linear" x1="57.8157" y1="-3.09521" x2="40.6889" y2="43.8088" gradientUnits="userSpaceOnUse">
<stop stop-color="white"/>
<stop offset="1" stop-color="#D6D6E8"/>
</linearGradient>
<linearGradient id="paint1_linear" x1="49.7998" y1="50.6965" x2="9.31178" y2="70.3897" gradientUnits="userSpaceOnUse">
<stop stop-color="white"/>
<stop offset="1" stop-color="#D6D6E8"/>
</linearGradient>
<radialGradient id="paint2_radial" cx="0" cy="0" r="1" gradientUnits="userSpaceOnUse" gradientTransform="translate(55.0126 84.5808) rotate(90) scale(3.48804 52.1083)">
<stop stop-color="#1F2337"/>
<stop offset="1" stop-color="#1F2337" stop-opacity="0"/>
</radialGradient>
<linearGradient id="paint3_linear" x1="70.5746" y1="16.0736" x2="42.6774" y2="14.4406" gradientUnits="userSpaceOnUse">
<stop stop-color="#ADADC8"/>
<stop offset="1" stop-color="#4048FF" stop-opacity="0"/>
</linearGradient>
<linearGradient id="paint4_linear" x1="19.4586" y1="58.8278" x2="47.3558" y2="60.4608" gradientUnits="userSpaceOnUse">
<stop stop-color="#ADADC8"/>
<stop offset="1" stop-color="#4048FF" stop-opacity="0"/>
</linearGradient>
</defs>
</svg>
