<svg width="24" height="24" viewBox="0 0 24 24" fill="none" xmlns="http://www.w3.org/2000/svg">
<circle cx="12.083" cy="12.001" r="11.5" fill="#0A66C2"/>
<path d="M5.84851 7.16242C5.84851 6.75783 5.98867 6.42405 6.26896 6.16107C6.54926 5.89809 6.91366 5.7666 7.36214 5.7666C7.80261 5.7666 8.15899 5.89606 8.43129 6.155C8.71158 6.42203 8.85174 6.76997 8.85174 7.19884C8.85174 7.58724 8.71559 7.9109 8.4433 8.16985C8.163 8.43687 7.7946 8.57039 7.33811 8.57039H7.3261C6.88562 8.57039 6.52925 8.43687 6.25695 8.16985C5.98465 7.90282 5.84851 7.56701 5.84851 7.16242ZM6.00468 17.7828V9.67491H8.67154V17.7828H6.00468ZM10.1491 17.7828H12.816V13.2555C12.816 12.9723 12.848 12.7538 12.9121 12.6001C13.0242 12.3249 13.1944 12.0923 13.4226 11.9022C13.6509 11.712 13.9372 11.6169 14.2816 11.6169C15.1785 11.6169 15.627 12.2278 15.627 13.4497V17.7828H18.2939V13.1341C18.2939 11.9365 18.0136 11.0282 17.453 10.4092C16.8924 9.79021 16.1516 9.48071 15.2306 9.48071C14.1975 9.48071 13.3926 9.9298 12.816 10.828V10.8523H12.804L12.816 10.828V9.67491H10.1491C10.1651 9.93384 10.1732 10.739 10.1732 12.0903C10.1732 13.4416 10.1651 15.3391 10.1491 17.7828Z" fill="white"/>
</svg>
