<svg width="13" height="13" viewBox="0 0 13 13" fill="none" xmlns="http://www.w3.org/2000/svg">
<path fill-rule="evenodd" clip-rule="evenodd" d="M0.888672 10.7051C0.888672 11.0734 1.03498 11.4267 1.29541 11.6871C1.55583 11.9475 1.90905 12.0938 2.27735 12.0938H9.68365C10.0519 12.0938 10.4052 11.9475 10.6656 11.6871C10.926 11.4267 11.0723 11.0734 11.0723 10.7051V7.00199C11.0723 6.87923 11.0236 6.76149 10.9367 6.67468C10.8499 6.58787 10.7322 6.5391 10.6094 6.5391C10.4867 6.5391 10.3689 6.58787 10.2821 6.67468C10.1953 6.76149 10.1465 6.87923 10.1465 7.00199V10.7051C10.1465 10.8279 10.0978 10.9456 10.011 11.0325C9.92415 11.1193 9.80641 11.168 9.68365 11.168H2.27735C2.15458 11.168 2.03685 11.1193 1.95004 11.0325C1.86323 10.9456 1.81446 10.8279 1.81446 10.7051V3.29885C1.81446 3.17608 1.86323 3.05834 1.95004 2.97153C2.03685 2.88472 2.15458 2.83595 2.27735 2.83595H5.9805C6.10327 2.83595 6.221 2.78718 6.30781 2.70038C6.39462 2.61357 6.44339 2.49583 6.44339 2.37306C6.44339 2.25029 6.39462 2.13255 6.30781 2.04575C6.221 1.95894 6.10327 1.91017 5.9805 1.91017H2.27735C1.90905 1.91017 1.55583 2.05647 1.29541 2.3169C1.03498 2.57733 0.888672 2.93055 0.888672 3.29885V10.7051ZM7.36918 0.521487C7.36918 0.39872 7.41795 0.280981 7.50476 0.194172C7.59157 0.107363 7.7093 0.0585938 7.83207 0.0585938H12.461C12.5838 0.0585938 12.7015 0.107363 12.7883 0.194172C12.8751 0.280981 12.9239 0.39872 12.9239 0.521487V5.15042C12.9239 5.27319 12.8751 5.39093 12.7883 5.47774C12.7015 5.56454 12.5838 5.61331 12.461 5.61331C12.3382 5.61331 12.2205 5.56454 12.1337 5.47774C12.0469 5.39093 11.9981 5.27319 11.9981 5.15042V0.98438H7.83207C7.7093 0.98438 7.59157 0.935611 7.50476 0.848802C7.41795 0.761993 7.36918 0.644254 7.36918 0.521487Z" fill="#4048FF"/>
<path fill-rule="evenodd" clip-rule="evenodd" d="M12.7886 0.19361C12.8317 0.236608 12.8659 0.287689 12.8892 0.343926C12.9125 0.400163 12.9246 0.460452 12.9246 0.521338C12.9246 0.582225 12.9125 0.642513 12.8892 0.69875C12.8659 0.754987 12.8317 0.806068 12.7886 0.849067L5.38227 8.25536C5.33923 8.2984 5.28814 8.33254 5.23191 8.35583C5.17568 8.37912 5.11541 8.39111 5.05454 8.39111C4.99368 8.39111 4.93341 8.37912 4.87718 8.35583C4.82095 8.33254 4.76985 8.2984 4.72681 8.25536C4.68378 8.21232 4.64964 8.16123 4.62634 8.105C4.60305 8.04877 4.59106 7.9885 4.59106 7.92763C4.59106 7.86677 4.60305 7.8065 4.62634 7.75027C4.64964 7.69403 4.68378 7.64294 4.72681 7.5999L12.1331 0.19361C12.1761 0.150502 12.2272 0.116301 12.2834 0.0929649C12.3397 0.0696291 12.3999 0.0576172 12.4608 0.0576172C12.5217 0.0576172 12.582 0.0696291 12.6382 0.0929649C12.6945 0.116301 12.7456 0.150502 12.7886 0.19361Z" fill="#4048FF"/>
</svg>
