<svg width="16" height="23" viewBox="0 0 16 23" fill="none" xmlns="http://www.w3.org/2000/svg">
<path d="M7.64962 20.5273C7.52532 20.3782 7.38827 20.2119 7.24071 20.0301C6.54237 19.1697 5.61289 17.9661 4.68539 16.5914C3.75597 15.2139 2.84089 13.6827 2.16121 12.1655C1.47565 10.6352 1.06323 9.19267 1.06323 7.97256C1.06323 4.33065 4.00772 1.38617 7.64962 1.38617C11.2915 1.38617 14.236 4.33065 14.236 7.97256C14.236 9.19267 13.8236 10.6352 13.138 12.1655C12.4584 13.6827 11.5433 15.2139 10.6139 16.5914C9.68636 17.9661 8.75688 19.1697 8.05854 20.0301C7.91097 20.2119 7.77392 20.3782 7.64962 20.5273ZM3.9402 7.97256C3.9402 10.0204 5.60174 11.682 7.64962 11.682C9.69751 11.682 11.359 10.0204 11.359 7.97256C11.359 5.92467 9.69751 4.26313 7.64962 4.26313C5.60174 4.26313 3.9402 5.92467 3.9402 7.97256Z" stroke="#ADADC8" stroke-width="2"/>
</svg>
