<svg width="19" height="19" viewBox="0 0 19 19" fill="none" xmlns="http://www.w3.org/2000/svg">
<path d="M9.52857 14.3584C9.44632 14.2603 9.35268 14.1472 9.25003 14.0207C8.85641 13.5357 8.3324 12.8572 7.80938 12.082C7.28541 11.3054 6.7686 10.4408 6.3843 9.583C5.99708 8.71865 5.76123 7.89787 5.76123 7.19891C5.76123 5.11582 7.44549 3.43157 9.52857 3.43157C11.6117 3.43157 13.2959 5.11582 13.2959 7.19891C13.2959 7.89787 13.0601 8.71865 12.6728 9.583C12.2886 10.4408 11.7717 11.3054 11.2478 12.082C10.7247 12.8572 10.2007 13.5357 9.80712 14.0207C9.70447 14.1472 9.61083 14.2603 9.52857 14.3584ZM7.50452 7.19891C7.50452 8.31633 8.41116 9.22296 9.52857 9.22296C10.646 9.22296 11.5526 8.31633 11.5526 7.19891C11.5526 6.08149 10.646 5.17486 9.52857 5.17486C8.41116 5.17486 7.50452 6.08149 7.50452 7.19891Z" stroke="#ADADC8"/>
</svg>
