<svg width="188" height="61" viewBox="0 0 188 61" fill="none" xmlns="http://www.w3.org/2000/svg">
<path d="M16.2339 23.8727H16.107C18.7038 18.7682 24.0066 15.2704 30.1263 15.2704C34.074 15.2704 37.6809 16.7251 40.4413 19.1279H40.5378H46.8034C43.0938 13.9217 37.0065 10.5256 30.1263 10.5256C19.6268 10.5256 10.9752 18.4326 9.79946 28.6175L23.0102 28.6165V33.3602H9.79736L9.80261 33.3969C9.99454 35.033 10.3794 36.6094 10.9332 38.105H23.0081V50.1799C24.5131 50.7378 26.1042 51.1249 27.7518 51.3157V38.106H32.4956V51.3168C34.1443 51.1259 35.7343 50.7399 37.2393 50.1809V38.105H49.3142C50.1365 35.8889 50.5854 33.4913 50.5854 30.9889C50.5854 28.4864 50.1365 26.0888 49.3142 23.8727H46.5045H16.2339ZM32.4966 33.3613H27.7529V28.6175H32.4966V33.3613ZM45.6654 33.3613H37.2414V28.6175H45.6654C45.7829 29.3915 45.8437 30.1834 45.8437 30.9899C45.8437 31.7954 45.7829 32.5872 45.6654 33.3613Z" fill="#1F2337"/>
<path d="M30.1094 0.98877C13.5404 0.98877 0.109375 14.4208 0.109375 30.9888C0.109375 47.5567 13.5404 60.9888 30.1094 60.9888C46.6784 60.9888 60.1094 47.5567 60.1094 30.9888C60.1094 14.4208 46.6784 0.98877 30.1094 0.98877ZM30.1094 56.2366C16.1655 56.2366 4.86151 44.9326 4.86151 30.9888C4.86151 17.0449 16.1655 5.7409 30.1094 5.7409C44.0532 5.7409 55.3572 17.0449 55.3572 30.9888C55.3572 44.9326 44.0532 56.2366 30.1094 56.2366Z" fill="#1F2337"/>
<path d="M87.4488 27.2023C80.8078 25.5012 79.1612 24.6778 79.1612 22.1534V22.0433C79.1612 20.1774 80.8623 18.6965 84.101 18.6965C87.3387 18.6965 90.6865 20.1229 94.0899 22.4827L98.4802 16.1175C94.5839 12.9889 89.8086 11.2322 84.2112 11.2322C76.363 11.2322 70.7655 15.8427 70.7655 22.8131V22.9222C70.7655 30.5512 75.7599 32.6918 83.498 34.6667C89.9188 36.3133 91.2361 37.4114 91.2361 39.5509V39.6611C91.2361 41.9108 89.151 43.2836 85.6931 43.2836C81.3028 43.2836 77.6803 41.4724 74.2234 38.6175L69.229 44.5999C73.8395 48.7154 79.7118 50.7469 85.5285 50.7469C93.8151 50.7469 99.6328 46.4657 99.6328 38.8378V38.7276C99.6317 32.0321 95.2414 29.2328 87.4488 27.2023Z" fill="#1F2337"/>
<path d="M161.571 11.781V19.5736H170.291V50.1977H178.743V19.5736H187.463V11.781H161.571Z" fill="#1F2337"/>
<path d="M134.357 19.5736H143.077V50.1977H151.529V19.5736H160.249V11.781H134.357V19.5736Z" fill="#1F2337"/>
<path d="M123.867 21.2506C121.763 20.1829 119.385 19.5798 116.867 19.5798C108.309 19.5798 101.346 26.5428 101.346 35.1011C101.346 43.6593 108.309 50.6223 116.867 50.6223C119.385 50.6223 121.762 50.0193 123.867 48.9516V50.6223H132.389V19.5798H123.867V21.2506ZM116.867 42.1019C113.008 42.1019 109.868 38.9617 109.868 35.1021C109.868 31.2415 113.008 28.1024 116.867 28.1024C120.727 28.1024 123.867 31.2425 123.867 35.1021C123.867 38.9617 120.726 42.1019 116.867 42.1019Z" fill="#1F2337"/>
</svg>
