<svg width="292" height="292" viewBox="0 0 292 292" fill="none" xmlns="http://www.w3.org/2000/svg">
<g filter="url(#filter0_d)">
<rect x="2.5094" y="0.16272" width="287.39" height="287.39" rx="143.695" fill="white"/>
</g>
<path d="M194.421 58H113.327C104.943 58 98.1221 64.7816 98.1221 73.1172V110.406C98.1221 113.189 100.391 115.445 103.19 115.445C105.99 115.445 108.259 113.189 108.259 110.406V73.1172C108.259 70.3386 110.532 68.0781 113.327 68.0781H194.421C197.216 68.0781 199.489 70.3386 199.489 73.1172V214.883C199.489 217.661 197.216 219.922 194.421 219.922H113.327C110.532 219.922 108.259 217.661 108.259 214.883V177.594C108.259 174.811 105.99 172.555 103.19 172.555C100.391 172.555 98.1221 174.811 98.1221 177.594V214.883C98.1221 223.218 104.943 230 113.327 230H194.421C202.805 230 209.626 223.218 209.626 214.883V73.1172C209.626 64.7816 202.805 58 194.421 58Z" fill="#4048FF"/>
<path d="M169.465 139.882L148.712 125.335C146.424 123.731 143.262 124.276 141.649 126.55C140.036 128.825 140.583 131.969 142.871 133.572L150.559 138.961H72.4424C69.6433 138.961 67.374 141.217 67.374 144C67.374 146.783 69.6433 149.039 72.4424 149.039H150.559L142.871 154.428C140.583 156.032 140.036 159.176 141.649 161.45C143.263 163.726 146.425 164.268 148.712 162.665L169.465 148.119C172.321 146.117 172.314 141.878 169.465 139.882Z" fill="#4048FF"/>
<defs>
<filter id="filter0_d" x="0.509399" y="0.16272" width="291.39" height="291.39" filterUnits="userSpaceOnUse" color-interpolation-filters="sRGB">
<feFlood flood-opacity="0" result="BackgroundImageFix"/>
<feColorMatrix in="SourceAlpha" type="matrix" values="0 0 0 0 0 0 0 0 0 0 0 0 0 0 0 0 0 0 127 0"/>
<feOffset dy="2"/>
<feGaussianBlur stdDeviation="1"/>
<feColorMatrix type="matrix" values="0 0 0 0 0 0 0 0 0 0 0 0 0 0 0 0 0 0 0.2 0"/>
<feBlend mode="normal" in2="BackgroundImageFix" result="effect1_dropShadow"/>
<feBlend mode="normal" in="SourceGraphic" in2="effect1_dropShadow" result="shape"/>
</filter>
</defs>
</svg>
