<svg width="288" height="288" viewBox="0 0 288 288" fill="none" xmlns="http://www.w3.org/2000/svg">
<rect x="0.509399" y="0.16272" width="287.39" height="287.39" rx="143.695" fill="white"/>
<path d="M192.421 58H111.327C102.943 58 96.1221 64.7816 96.1221 73.1172V110.406C96.1221 113.189 98.3913 115.445 101.19 115.445C103.99 115.445 106.259 113.189 106.259 110.406V73.1172C106.259 70.3386 108.532 68.0781 111.327 68.0781H192.421C195.216 68.0781 197.489 70.3386 197.489 73.1172V214.883C197.489 217.661 195.216 219.922 192.421 219.922H111.327C108.532 219.922 106.259 217.661 106.259 214.883V177.594C106.259 174.811 103.99 172.555 101.19 172.555C98.3913 172.555 96.1221 174.811 96.1221 177.594V214.883C96.1221 223.218 102.943 230 111.327 230H192.421C200.805 230 207.626 223.218 207.626 214.883V73.1172C207.626 64.7816 200.805 58 192.421 58Z" fill="#4048FF"/>
<path d="M167.465 139.882L146.712 125.335C144.424 123.731 141.262 124.276 139.649 126.55C138.036 128.825 138.583 131.969 140.871 133.572L148.559 138.961H70.4424C67.6433 138.961 65.374 141.217 65.374 144C65.374 146.783 67.6433 149.039 70.4424 149.039H148.559L140.871 154.428C138.583 156.032 138.036 159.176 139.649 161.45C141.263 163.726 144.425 164.268 146.712 162.665L167.465 148.119C170.321 146.117 170.314 141.878 167.465 139.882Z" fill="#4048FF"/>
</svg>
