<svg width="295" height="296" viewBox="0 0 295 296" fill="none" xmlns="http://www.w3.org/2000/svg">
<g filter="url(#filter0_d)">
<rect x="2.76998" y="1.4233" width="288.869" height="288.869" rx="144.434" fill="#F6F6FF" stroke="white" stroke-width="1.47884"/>
</g>
<path d="M195.421 60H114.327C105.943 60 99.1221 66.7816 99.1221 75.1172V112.406C99.1221 115.189 101.391 117.445 104.19 117.445C106.99 117.445 109.259 115.189 109.259 112.406V75.1172C109.259 72.3386 111.532 70.0781 114.327 70.0781H195.421C198.216 70.0781 200.489 72.3386 200.489 75.1172V216.883C200.489 219.661 198.216 221.922 195.421 221.922H114.327C111.532 221.922 109.259 219.661 109.259 216.883V179.594C109.259 176.811 106.99 174.555 104.19 174.555C101.391 174.555 99.1221 176.811 99.1221 179.594V216.883C99.1221 225.218 105.943 232 114.327 232H195.421C203.805 232 210.626 225.218 210.626 216.883V75.1172C210.626 66.7816 203.805 60 195.421 60Z" fill="#4048FF"/>
<path d="M170.465 141.882L149.712 127.335C147.424 125.731 144.262 126.276 142.649 128.55C141.036 130.825 141.583 133.969 143.871 135.572L151.559 140.961H73.4424C70.6433 140.961 68.374 143.217 68.374 146C68.374 148.783 70.6433 151.039 73.4424 151.039H151.559L143.871 156.428C141.583 158.032 141.036 161.176 142.649 163.45C144.263 165.726 147.425 166.268 149.712 164.665L170.465 150.119C173.321 148.117 173.314 143.878 170.465 141.882Z" fill="#4048FF"/>
<defs>
<filter id="filter0_d" x="0.0305176" y="0.683868" width="294.348" height="294.348" filterUnits="userSpaceOnUse" color-interpolation-filters="sRGB">
<feFlood flood-opacity="0" result="BackgroundImageFix"/>
<feColorMatrix in="SourceAlpha" type="matrix" values="0 0 0 0 0 0 0 0 0 0 0 0 0 0 0 0 0 0 127 0"/>
<feOffset dy="2"/>
<feGaussianBlur stdDeviation="1"/>
<feColorMatrix type="matrix" values="0 0 0 0 0 0 0 0 0 0 0 0 0 0 0 0 0 0 0.2 0"/>
<feBlend mode="normal" in2="BackgroundImageFix" result="effect1_dropShadow"/>
<feBlend mode="normal" in="SourceGraphic" in2="effect1_dropShadow" result="shape"/>
</filter>
</defs>
</svg>
