<svg width="111" height="110" viewBox="0 0 111 110" fill="none" xmlns="http://www.w3.org/2000/svg">
<circle cx="55.5011" cy="55.2055" r="52.1625" stroke="#D6D6E8" stroke-width="5"/>
<path d="M100.143 82.186C104.925 74.2738 107.518 65.2328 107.657 55.9889C107.796 46.7449 105.475 37.6301 100.933 29.5778C96.3912 21.5255 89.7906 14.8251 81.8074 10.1626C73.8243 5.50003 64.7454 3.04297 55.5004 3.04297" stroke="#D6D6E8" stroke-width="5"/>
<circle cx="55.5" cy="55.207" r="48" fill="#1F2337"/>
<g clip-path="url(#clip0_4719_47109)">
<path d="M60.0312 75.0623H40.9375V33.9374H60.0312C60.842 33.9374 61.4999 33.2794 61.4999 32.4687C61.4999 31.658 60.8419 31 60.0312 31H39.4687C38.658 31 38 31.6579 38 32.4687V76.531C38 77.3418 38.658 77.9997 39.4687 77.9997H60.0311C60.8419 77.9997 61.4998 77.3417 61.4998 76.531C61.4999 75.7203 60.8419 75.0623 60.0312 75.0623Z" fill="#D6D6E8"/>
<path d="M84.5738 53.476L74.4395 43.1963C73.8652 42.6161 72.9355 42.6176 72.3627 43.1963C71.7884 43.775 71.7884 44.7149 72.3627 45.2936L80.0002 53.0413H49.7544C48.9436 53.0413 48.2856 53.7052 48.2856 54.5248C48.2856 55.3443 48.9437 56.0082 49.7544 56.0082H80.0002L72.3627 63.7559C71.7884 64.336 71.7884 65.2745 72.3627 65.8532C72.937 66.4334 73.8667 66.4334 74.4395 65.8532L84.5724 55.5735C85.1394 55.0021 85.1452 54.0459 84.5738 53.476Z" fill="#D6D6E8"/>
</g>
<defs>
<clipPath id="clip0_4719_47109">
<rect width="47" height="47" fill="white" transform="translate(38 31)"/>
</clipPath>
</defs>
</svg>
