<svg width="188" height="61" viewBox="0 0 188 61" fill="none" xmlns="http://www.w3.org/2000/svg">
<path d="M16.2121 23.0873H16.0852C18.6821 17.9828 23.9848 14.485 30.1046 14.485C34.0523 14.485 37.6591 15.9397 40.4196 18.3425H40.5161H46.7817C43.072 13.1363 36.9848 9.74023 30.1046 9.74023C19.605 9.74023 10.9534 17.6472 9.77773 27.8321L22.9885 27.8311V32.5748H9.77563L9.78088 32.6115C9.97281 34.2476 10.3577 35.824 10.9115 37.3196H22.9864V49.3945C24.4914 49.9524 26.0824 50.3395 27.7301 50.5303V37.3206H32.4739V50.5314C34.1226 50.3405 35.7126 49.9545 37.2176 49.3955V37.3196H49.2925C50.1147 35.1035 50.5636 32.7059 50.5636 30.2035C50.5636 27.701 50.1147 25.3034 49.2925 23.0873H46.4827H16.2121ZM32.4749 32.5759H27.7312V27.8321H32.4749V32.5759ZM45.6437 32.5759H37.2197V27.8321H45.6437C45.7612 28.6061 45.822 29.398 45.822 30.2045C45.822 31.01 45.7612 31.8018 45.6437 32.5759Z" fill="white"/>
<path d="M30.0876 0.203613C13.5186 0.203613 0.0876465 13.6356 0.0876465 30.2036C0.0876465 46.7716 13.5186 60.2036 30.0876 60.2036C46.6567 60.2036 60.0876 46.7716 60.0876 30.2036C60.0876 13.6356 46.6567 0.203613 30.0876 0.203613ZM30.0876 55.4515C16.1438 55.4515 4.83978 44.1475 4.83978 30.2036C4.83978 16.2598 16.1438 4.95575 30.0876 4.95575C44.0315 4.95575 55.3355 16.2598 55.3355 30.2036C55.3355 44.1475 44.0315 55.4515 30.0876 55.4515Z" fill="white"/>
<path d="M87.4269 26.4174C80.7858 24.7163 79.1392 23.8929 79.1392 21.3685V21.2583C79.1392 19.3925 80.8404 17.9116 84.0791 17.9116C87.3167 17.9116 90.6645 19.338 94.0679 21.6978L98.4582 15.3326C94.5619 12.204 89.7867 10.4473 84.1892 10.4473C76.341 10.4473 70.7435 15.0578 70.7435 22.0282V22.1372C70.7435 29.7662 75.7379 31.9069 83.476 33.8818C89.8968 35.5284 91.2141 36.6265 91.2141 38.766V38.8762C91.2141 41.1258 89.1291 42.4987 85.6712 42.4987C81.2809 42.4987 77.6583 40.6874 74.2014 37.8326L69.207 43.815C73.8176 47.9305 79.6898 49.962 85.5065 49.962C93.7931 49.962 99.6108 45.6808 99.6108 38.0528V37.9427C99.6098 31.2472 95.2195 28.4479 87.4269 26.4174Z" fill="white"/>
<path d="M161.55 10.9961V18.7887H170.27V49.4127H178.722V18.7887H187.442V10.9961H161.55Z" fill="white"/>
<path d="M134.335 18.7887H143.055V49.4127H151.507V18.7887H160.227V10.9961H134.335V18.7887Z" fill="white"/>
<path d="M123.845 20.4652C121.742 19.3975 119.363 18.7944 116.846 18.7944C108.287 18.7944 101.324 25.7574 101.324 34.3157C101.324 42.8739 108.287 49.8369 116.846 49.8369C119.363 49.8369 121.74 49.2339 123.845 48.1662V49.8369H132.367V18.7944H123.845V20.4652ZM116.846 41.3165C112.986 41.3165 109.846 38.1763 109.846 34.3167C109.846 30.4561 112.986 27.317 116.846 27.317C120.705 27.317 123.845 30.4571 123.845 34.3167C123.845 38.1763 120.704 41.3165 116.846 41.3165Z" fill="white"/>
</svg>
