<svg width="205" height="118" viewBox="0 0 205 118" fill="none" xmlns="http://www.w3.org/2000/svg">
<path d="M17.3721 91.582C17.3721 88.2122 20.1038 85.4805 23.4736 85.4805H194.269C197.639 85.4805 200.371 88.2122 200.371 91.582V92.8558C200.371 95.5221 198.209 97.6835 195.543 97.6835H195.078C192.669 97.6835 190.715 99.6369 190.715 102.047C190.715 104.456 188.762 106.409 186.352 106.409H167.859C164.888 106.409 162.479 108.818 162.479 111.789C162.479 114.76 160.071 117.169 157.1 117.169H59.7189C56.7479 117.169 54.3394 114.76 54.3394 111.789C54.3394 108.818 51.9309 106.409 48.9599 106.409H31.8571C29.4475 106.409 27.4941 104.456 27.4941 102.047C27.4941 99.6369 25.5408 97.6835 23.1312 97.6835H22.4331C19.638 97.6835 17.3721 95.4176 17.3721 92.6225V91.582Z" fill="url(#paint0_linear)"/>
<path d="M7.72875 51.0166C6.49318 38.7837 12.9516 31.238 22.0992 27.1595C36.7457 20.6305 42.8726 23.6131 65.7883 14.761C93.8696 3.9136 104.894 41.0178 90.9536 55.0077C77.0133 68.9977 56.9861 59.8806 42.208 66.04C27.4299 72.1994 9.27321 66.3079 7.72875 51.0166Z" fill="#C5C7FF"/>
<rect x="13.6182" y="44.8652" width="74.0238" height="17.0613" rx="8.53065" transform="rotate(-13.3786 13.6182 44.8652)" fill="white"/>
<circle cx="24.0419" cy="51.2089" r="6.01663" transform="rotate(-21.1006 24.0419 51.2089)" fill="#FFA318"/>
<path d="M23.9944 47.8494C22.9707 48.2444 22.4624 49.3915 22.8574 50.4152C22.9414 50.633 23.0691 50.834 23.2184 51.0266L21.8139 54.1962L22.2342 55.2852L23.3232 54.865L23.0711 54.2116L23.7245 53.9594L23.4724 53.306L24.1258 53.0538L24.7278 51.6955C24.949 51.6851 25.1836 51.6447 25.4232 51.5522C26.4469 51.1572 26.9552 50.0101 26.5602 48.9864C26.1652 47.9627 25.0181 47.4543 23.9944 47.8494ZM25.2954 49.5996C24.9251 49.7425 24.5327 49.5686 24.3898 49.1983C24.2469 48.828 24.4208 48.4356 24.7911 48.2927C25.1614 48.1498 25.5538 48.3237 25.6967 48.694C25.8395 49.0643 25.6657 49.4567 25.2954 49.5996Z" fill="white"/>
<circle cx="36.698" cy="48.0035" r="1.42639" transform="rotate(-10.277 36.698 48.0035)" fill="#1F2337"/>
<circle cx="42.5984" cy="46.6256" r="1.42639" transform="rotate(-10.277 42.5984 46.6256)" fill="#1F2337"/>
<circle cx="48.4969" cy="45.2477" r="1.42639" transform="rotate(-10.277 48.4969 45.2477)" fill="#1F2337"/>
<circle cx="54.4002" cy="43.8688" r="1.42639" transform="rotate(-10.277 54.4002 43.8688)" fill="#1F2337"/>
<circle cx="60.2986" cy="42.4918" r="1.42639" transform="rotate(-10.277 60.2986 42.4918)" fill="#1F2337"/>
<path d="M71.2985 34.3757L72.1955 34.226L72.1102 33.3206L71.9889 32.0322C73.4059 31.588 74.5464 30.7576 75.3555 29.5286C76.3412 28.0543 76.6288 26.311 76.307 24.3828C75.9276 22.1094 74.9986 20.3294 73.3985 19.2391C71.8505 18.1527 70.0044 17.8258 67.9506 18.1685C66.3823 18.4303 65.0491 18.9957 64.0151 19.9152C63.0068 20.7896 62.3167 21.8701 61.965 23.1403L61.9649 23.1403L61.9615 23.1533C61.6361 24.3946 61.6252 25.6949 61.9065 27.0391L62.0986 27.9568L63.0235 27.8025L63.9747 27.6437L64.0771 28.178L65.2723 34.4148L65.4518 35.3514L66.3925 35.1945L71.2985 34.3757ZM65.5042 39.9689C65.6958 41.1166 66.2358 42.0694 67.1433 42.748C68.0744 43.4444 69.1808 43.6549 70.3698 43.4565C71.5475 43.2599 72.5145 42.6998 73.1663 41.7429C73.8043 40.8063 74.0056 39.7299 73.8141 38.5821C73.6207 37.4234 73.0845 36.4598 72.1763 35.778C71.2489 35.064 70.1486 34.8335 68.9637 35.0312C67.7678 35.2308 66.7908 35.8042 66.1427 36.7849C65.5051 37.7246 65.3109 38.8101 65.5042 39.9689Z" fill="#F52079" stroke="white" stroke-width="1.95373"/>
<path d="M61.2034 62.2783C63.7281 50.3715 81.353 50.0059 89.8499 51.3115C91.5979 69.2762 73.2609 83.1674 63.8739 87.8674C61.9317 84.2989 58.6787 74.1851 61.2034 62.2783Z" fill="#202438"/>
<path fill-rule="evenodd" clip-rule="evenodd" d="M85.7127 53.8671C80.5845 55.4241 77.0632 56.4933 76.3831 61.5939C74.781 73.6102 74.6719 80.9152 75.922 85.481H108.779C108.975 85.0537 109.206 84.5634 109.462 84.0189C113.219 76.0465 122.45 56.4584 107.348 53.1669C96.6318 50.8313 95.7948 50.7649 95.0857 50.7087C94.9034 50.6942 94.7295 50.6804 94.3984 50.6289C91.2072 52.1987 88.2615 53.0932 85.7127 53.8671Z" fill="url(#paint1_linear)"/>
<path d="M89.9959 49.071C88.5554 43.0538 93.8343 37.5689 99.9022 38.7782L103.879 39.5708C108.485 40.4886 111.468 44.974 110.534 49.5763L108.945 57.3999C108.094 61.5961 104.248 64.4993 99.9787 64.1688L99.6464 64.1431C95.9769 63.859 92.9093 61.2408 92.0525 57.6614L89.9959 49.071Z" fill="url(#paint2_linear)"/>
<path d="M108.818 43.0674C109.286 41.8561 113.183 43.6506 113.183 46.4005C112.203 47.5937 112.879 45.7004 111.876 44.933C110.236 43.678 108.419 44.097 108.818 43.0674Z" fill="#FFC9C9"/>
<path d="M96.2013 55.6334C95.4857 56.2249 94.2606 57.7205 95.0846 58.9712C96.1147 60.5346 97.4758 58.2755 96.2013 55.6334Z" fill="#F6F6FF"/>
<path d="M95.2955 68.3536C94.9477 68.8423 94.4328 69.9807 95.1561 70.6237C96.0604 71.4275 96.5325 69.7899 95.2955 68.3536Z" fill="#F6F6FF"/>
<path d="M104.529 75.3374C104.87 75.8044 105.38 76.8955 104.69 77.5237C103.828 78.3089 103.354 76.736 104.529 75.3374Z" fill="#F6F6FF"/>
<path d="M113.996 56.2689C115.819 55.4939 114.74 50.1526 113.087 47.0563C113.087 46.3914 112.631 46.2812 110.808 51.1593C108.529 57.2569 111.717 57.2377 113.996 56.2689Z" fill="#FFC9C9"/>
<path d="M88.6915 40.7502C90.2023 35.4922 96.3719 34.4296 99.2678 34.5555C112.817 35.1445 112.11 39.9394 112.11 41.8936C112.11 47.2876 114.455 48.9929 113.087 51.9239C111.782 54.7218 111.758 58.2264 112.11 58.7301C109.995 58.0653 110.121 56.8918 110.448 56.3882C109.119 57.2947 109.894 58.8812 110.448 59.5611C108.963 59.5359 105.326 59.0625 102.667 57.3703C100.008 55.678 99.7965 52.2835 100.023 50.7978C98.8748 51.523 99.5447 54.0714 100.023 55.255C95.9739 54.1067 95.4652 49.8912 95.717 47.9271L90.9987 53.9403L89.5353 50.7978C91.1973 51.2763 87.1806 46.0082 88.6915 40.7502Z" fill="#1F2337"/>
<path d="M87.5013 44.2523L86.9399 55.6264C86.8277 57.0832 86.9963 60.0565 88.5684 60.296C90.5334 60.5953 92.2916 59.6566 92.2916 54.9453C92.2916 52.331 92.4238 49.1311 96.2502 48.8209C97.6807 48.7049 97.2658 47.5865 95.6988 47.4248C92.8171 47.1274 91.2177 49.8431 90.8694 48.2929C92.0462 47.6277 92.7913 46.6959 93.6775 46.358C96.4281 45.309 97.1463 46.5855 97.5846 45.6548C98.1515 44.451 95.2816 44.2946 93.6775 44.826C91.7649 45.4596 89.8022 47.0002 90.2521 46.494C91.0794 45.5633 91.281 44.2523 93.3654 43.6708C94.1283 43.6708 96.1367 43.6631 96.007 42.8904C95.902 42.2644 95.4864 42.3192 93.9431 42.2142C90.2521 41.9631 88.7591 46.001 89.0175 44.2523C89.4226 41.511 92.6108 40.9598 93.6775 40.7802C94.5309 40.6365 94.4449 40.2014 94.2951 40.0019C89.8485 39.0919 87.9131 42.4564 87.5013 44.2523Z" fill="#FFC9C9"/>
<path d="M109.112 45.0848C109.564 43.9323 113.58 45.1667 113.588 47.7868C112.937 48.6338 113.334 47.747 112.355 47.0123C110.755 45.811 108.728 46.0644 109.112 45.0848Z" fill="#FFC9C9"/>
<path d="M110.804 39.5986C111.499 39.0706 113.463 41.2871 112.507 42.8676C111.804 43.1384 112.369 42.7503 112.049 41.949C111.527 40.6387 110.213 40.0474 110.804 39.5986Z" fill="#FFC9C9"/>
<path d="M109.657 41.1517C110.47 40.2176 113.839 42.7278 112.968 45.199C112.07 45.7783 112.742 45.0762 112.067 44.0557C110.962 42.3872 108.967 41.9457 109.657 41.1517Z" fill="#FFC9C9"/>
<path d="M78.0404 57.6554C79.8295 56.6759 82.8054 61.0294 84.1669 62.8795C78.9159 74.0891 67.7137 95.4145 64.9132 91.0395C61.4125 85.5708 75.804 58.8797 78.0404 57.6554Z" fill="url(#paint3_linear)"/>
<path d="M72.9207 92.4883C50.1376 95.943 79.552 68.5754 87.1319 58.5264C87.1319 58.5264 87.2766 59.4488 88.2936 60.05C89.3105 60.6513 90.5254 60.05 90.5254 60.05C87.1306 72.3662 79.7012 91.4602 72.9207 92.4883Z" fill="#4048FF"/>
<path d="M113.922 71.3744L113.039 60.7607L114.695 59.9521C119.845 70.2625 128.865 90.6002 123.744 89.4681C118.623 88.336 115.063 76.9339 113.922 71.3744Z" fill="#161CA7"/>
<path d="M124.799 89.8161C142.509 93.3258 120.864 64.3896 114.972 54.1807C114.972 54.1807 114.303 55.523 113.704 56.0052C113.104 56.4873 111.901 56.6499 111.901 56.6499C114.54 69.162 119.528 88.7716 124.799 89.8161Z" fill="#4048FF"/>
<g style="mix-blend-mode:multiply">
<path d="M103.03 60.217C102.7 58.8843 102.818 58.0841 103.222 57.6797L104.712 58.5169V60.7211L101.635 61.713L103.03 60.217Z" fill="url(#paint4_linear)"/>
</g>
<path d="M133.369 98.0719C132.803 97.8039 132.903 96.9697 133.517 96.8433L153.016 92.8235C153.135 92.7991 153.258 92.8081 153.371 92.8497L163.261 96.4617C163.875 96.6862 163.814 97.5748 163.174 97.7124L142.373 102.187C142.233 102.218 142.086 102.201 141.957 102.139L133.369 98.0719Z" fill="#616186"/>
<path d="M142.371 89.3925C142.371 88.3505 143.076 87.4407 144.086 87.181L151.766 85.2047C153.211 84.8329 154.618 85.9241 154.618 87.4162V94.7995C154.618 95.9061 153.825 96.8535 152.735 97.0476L145.055 98.4158C143.656 98.6651 142.371 97.589 142.371 96.1676V89.3925Z" fill="#75758F"/>
<path d="M92.9141 59.7188L93.3264 60.4122C96.2502 64.8501 101.875 64.4026 102.984 63.7734L98.7926 69.6045L93.3264 60.4122C93.1821 60.1931 93.0444 59.9622 92.9141 59.7188Z" fill="#F79797"/>
<path d="M99.6198 100.175L90.8438 95.7312C90.2721 95.4417 90.4167 94.5876 91.0518 94.5025L123.661 90.1302C123.768 90.1159 123.876 90.1283 123.977 90.1663L133.194 93.6362C133.82 93.8717 133.729 94.7841 133.069 94.8908L100.019 100.237C99.8826 100.259 99.7429 100.237 99.6198 100.175Z" fill="url(#paint5_linear)"/>
<path d="M102.156 93.9179L114.732 91.9902" stroke="#9898B3" stroke-width="0.652436" stroke-linecap="round"/>
<path d="M95.6465 96.2562L97.9165 95.8994" stroke="#9898B3" stroke-width="0.652436" stroke-linecap="round"/>
<path d="M99.2969 95.6458L101.567 95.2891" stroke="#9898B3" stroke-width="0.652436" stroke-linecap="round"/>
<path d="M102.949 95.0345L105.219 94.6777" stroke="#9898B3" stroke-width="0.652436" stroke-linecap="round"/>
<path d="M106.599 94.4231L108.869 94.0664" stroke="#9898B3" stroke-width="0.652436" stroke-linecap="round"/>
<path d="M110.253 93.8118L112.523 93.4551" stroke="#9898B3" stroke-width="0.652436" stroke-linecap="round"/>
<path d="M113.903 93.2015L116.173 92.8447" stroke="#9898B3" stroke-width="0.652436" stroke-linecap="round"/>
<path d="M117.552 92.5911L119.822 92.2344" stroke="#9898B3" stroke-width="0.652436" stroke-linecap="round"/>
<path d="M121.204 91.9788L123.474 91.6221" stroke="#9898B3" stroke-width="0.652436" stroke-linecap="round"/>
<path d="M97.918 96.8665L100.188 96.5098" stroke="#9898B3" stroke-width="0.652436" stroke-linecap="round"/>
<path d="M101.568 96.2562L103.838 95.8994" stroke="#9898B3" stroke-width="0.652436" stroke-linecap="round"/>
<path d="M105.221 95.6448L107.491 95.2881" stroke="#9898B3" stroke-width="0.652436" stroke-linecap="round"/>
<path d="M108.87 95.0335L111.14 94.6768" stroke="#9898B3" stroke-width="0.652436" stroke-linecap="round"/>
<path d="M112.524 94.4222L114.794 94.0654" stroke="#9898B3" stroke-width="0.652436" stroke-linecap="round"/>
<path d="M116.175 93.8118L118.445 93.4551" stroke="#9898B3" stroke-width="0.652436" stroke-linecap="round"/>
<path d="M119.823 93.2015L122.093 92.8447" stroke="#9898B3" stroke-width="0.652436" stroke-linecap="round"/>
<path d="M123.476 92.5892L125.746 92.2324" stroke="#9898B3" stroke-width="0.652436" stroke-linecap="round"/>
<path d="M98.3184 97.9612L100.588 97.6045" stroke="#9898B3" stroke-width="0.652436" stroke-linecap="round"/>
<path d="M101.969 97.3509L104.239 96.9941" stroke="#9898B3" stroke-width="0.652436" stroke-linecap="round"/>
<path d="M105.621 96.7396L107.891 96.3828" stroke="#9898B3" stroke-width="0.652436" stroke-linecap="round"/>
<path d="M109.271 96.1282L111.54 95.7715" stroke="#9898B3" stroke-width="0.652436" stroke-linecap="round"/>
<path d="M112.925 95.5169L115.195 95.1602" stroke="#9898B3" stroke-width="0.652436" stroke-linecap="round"/>
<path d="M116.575 94.9065L118.845 94.5498" stroke="#9898B3" stroke-width="0.652436" stroke-linecap="round"/>
<path d="M120.224 94.2962L122.494 93.9395" stroke="#9898B3" stroke-width="0.652436" stroke-linecap="round"/>
<path d="M123.876 93.6839L126.146 93.3271" stroke="#9898B3" stroke-width="0.652436" stroke-linecap="round"/>
<path d="M101.801 98.5511L104.071 98.1943" stroke="#9898B3" stroke-width="0.652436" stroke-linecap="round"/>
<path d="M105.451 97.9407L107.721 97.584" stroke="#9898B3" stroke-width="0.652436" stroke-linecap="round"/>
<path d="M109.104 97.3294L111.373 96.9727" stroke="#9898B3" stroke-width="0.652436" stroke-linecap="round"/>
<path d="M112.753 96.7181L115.023 96.3613" stroke="#9898B3" stroke-width="0.652436" stroke-linecap="round"/>
<path d="M116.407 96.1067L118.677 95.75" stroke="#9898B3" stroke-width="0.652436" stroke-linecap="round"/>
<path d="M120.058 95.4954L122.328 95.1387" stroke="#9898B3" stroke-width="0.652436" stroke-linecap="round"/>
<path d="M123.706 94.886L125.976 94.5293" stroke="#9898B3" stroke-width="0.652436" stroke-linecap="round"/>
<path d="M127.358 94.2737L129.628 93.917" stroke="#9898B3" stroke-width="0.652436" stroke-linecap="round"/>
<path d="M123.914 56.4516C123.914 55.7794 124.425 55.2171 125.094 55.1527L171.6 50.6733C172.383 50.5979 173.054 51.2262 173.03 52.0118L172.021 85.1674C172.002 85.7906 171.545 86.3133 170.93 86.4151L125.432 93.9421C124.637 94.0736 123.914 93.4604 123.914 92.6547V56.4516Z" fill="#75758F"/>
<path d="M125.195 58.2604V91.2506C125.195 92.0553 125.917 92.6682 126.711 92.5384L171.143 85.2753C171.759 85.1746 172.217 84.6518 172.237 84.028L173.174 53.8172C173.199 53.03 172.525 52.4007 171.742 52.4782L126.372 56.9619C125.704 57.0279 125.195 57.5895 125.195 58.2604Z" fill="url(#paint6_linear)"/>
<path d="M146.209 67.7793L143.108 81.3344L147.829 69.4723C147.994 69.0568 148.361 68.7549 148.8 68.6724L154.999 67.5079C155.673 67.3813 156.33 67.7981 156.503 68.4619L159.223 78.922L157.444 66.512C157.341 65.7912 156.668 65.2944 155.949 65.4083L147.277 66.7815C146.751 66.8649 146.328 67.2599 146.209 67.7793Z" fill="#75758F"/>
<path fill-rule="evenodd" clip-rule="evenodd" d="M110.216 88.1266C110.216 88.8027 108.411 89.3508 106.183 89.3508C106.111 89.3508 106.04 89.3502 105.969 89.3491C105.969 89.3497 105.969 89.3504 105.969 89.351C105.969 89.6415 105.193 89.877 104.236 89.877C103.278 89.877 102.503 89.6415 102.503 89.351C102.503 89.1835 102.761 89.0343 103.163 88.9379C102.532 88.7219 102.15 88.4378 102.15 88.1266C102.15 87.4505 103.955 86.9023 106.183 86.9023C108.411 86.9023 110.216 87.4505 110.216 88.1266ZM92.8275 90.8995C96.2434 90.8995 99.0125 90.059 99.0125 89.0222C99.0125 87.9854 96.2434 87.1449 92.8275 87.1449C89.4116 87.1449 86.6425 87.9854 86.6425 89.0222C86.6425 89.1411 86.6789 89.2575 86.7486 89.3703C84.8681 89.4742 83.4424 89.9739 83.4424 90.5747C83.4424 91.2508 85.2482 91.7989 87.4758 91.7989C89.3918 91.7989 90.9958 91.3934 91.4071 90.8498C91.8632 90.8823 92.3387 90.8995 92.8275 90.8995Z" fill="url(#paint7_linear)"/>
<path d="M93.8282 87.6402C93.5973 86.8793 93.0131 85.5368 92.5239 86.2542C92.0346 86.9717 93.1895 87.4772 93.8282 87.6402Z" fill="#F6F6FF"/>
<path d="M93.6645 85.9322C93.8689 85.5497 94.1614 84.8067 93.696 84.8947C93.2306 84.9827 93.4811 85.6231 93.6645 85.9322Z" fill="#F6F6FF"/>
<path d="M94.1212 86.6634C94.9926 86.4118 96.5327 85.7665 95.7221 85.1974C94.9114 84.6283 94.317 85.9376 94.1212 86.6634Z" fill="#F6F6FF"/>
<path d="M195.152 29.9794C190.135 21.4742 180.837 16.7039 173.331 15.4503C154.567 13.0313 140.952 33.9736 152.956 48.7695C162.564 60.6118 152.253 42.8296 176.721 52.9989C193.451 59.9523 202.643 42.6799 195.152 29.9794Z" fill="#F52079" stroke="#F6F6FF" stroke-width="0.787147"/>
<path d="M172.83 29.1518C173.314 27.7143 174.783 26.9853 176.221 27.4694C177.658 27.9535 178.387 29.4229 177.903 30.8604L177.334 32.5515L179.025 33.121L179.594 31.4299C180.391 29.0624 179.158 26.5757 176.79 25.7783C174.423 24.981 171.936 26.2147 171.139 28.5822L170.569 30.2733L172.26 30.8429L172.83 29.1518Z" fill="#F6F6FF"/>
<path d="M179.028 33.1209L170.573 30.2732C169.135 29.7891 167.666 30.5182 167.182 31.9556L165.188 37.8744C164.704 39.3119 165.433 40.7813 166.871 41.2654L175.326 44.1131C176.764 44.5972 178.233 43.8681 178.717 42.4307L180.711 36.5119C181.195 35.0744 180.466 33.605 179.028 33.1209ZM173.767 37.5625L173.368 38.7462C173.197 39.2536 172.745 39.4779 172.238 39.307C171.73 39.1362 171.506 38.684 171.677 38.1767L172.076 36.9929C171.907 36.6538 171.852 36.2587 171.966 35.9205C172.194 35.244 172.985 34.8515 173.661 35.0793C174.338 35.3071 174.73 36.0983 174.503 36.7748C174.389 37.113 174.106 37.3942 173.767 37.5625Z" fill="#F6F6FF"/>
<path d="M161.797 28.7133L160.996 35.4754L158.276 35.3037L158.333 28.4946L161.797 28.7133ZM159.375 39.5268C158.822 39.4918 158.387 39.3159 158.072 38.9989C157.756 38.682 157.613 38.2992 157.641 37.8507C157.67 37.3926 157.861 37.0261 158.214 36.7514C158.567 36.4671 159.02 36.3424 159.574 36.3773C160.118 36.4117 160.547 36.5921 160.862 36.9186C161.177 37.2355 161.321 37.623 161.292 38.0811C161.263 38.5297 161.073 38.8914 160.72 39.1661C160.368 39.4409 159.919 39.5611 159.375 39.5268Z" fill="#F6F6FF"/>
<path d="M190.392 40.0498L185.638 44.9252L183.586 43.1323L187.778 37.7662L190.392 40.0498ZM181.885 47.1509C181.467 46.786 181.23 46.3819 181.173 45.9384C181.116 45.495 181.235 45.104 181.531 44.7655C181.833 44.4198 182.207 44.2454 182.654 44.2423C183.108 44.232 183.543 44.4093 183.961 44.7742C184.372 45.1328 184.602 45.5374 184.653 45.988C184.71 46.4315 184.588 46.826 184.286 47.1718C183.99 47.5103 183.619 47.681 183.172 47.6841C182.724 47.6872 182.296 47.5095 181.885 47.1509Z" fill="#F6F6FF"/>
<defs>
<linearGradient id="paint0_linear" x1="108.871" y1="80.1737" x2="108.871" y2="169.447" gradientUnits="userSpaceOnUse">
<stop offset="0.09375" stop-color="#1F2337"/>
<stop offset="1" stop-color="#75758F"/>
</linearGradient>
<linearGradient id="paint1_linear" x1="94.9095" y1="50.098" x2="94.9095" y2="96.572" gradientUnits="userSpaceOnUse">
<stop stop-color="#4048FF"/>
<stop offset="1" stop-color="#00057A"/>
</linearGradient>
<linearGradient id="paint2_linear" x1="99.5697" y1="56.7095" x2="81.3433" y2="57.0764" gradientUnits="userSpaceOnUse">
<stop stop-color="#FFC9C9"/>
<stop offset="1" stop-color="#E39F9F"/>
</linearGradient>
<linearGradient id="paint3_linear" x1="74.267" y1="57.5137" x2="74.267" y2="91.6224" gradientUnits="userSpaceOnUse">
<stop stop-color="#4048FF"/>
<stop offset="1" stop-color="#0009DB"/>
</linearGradient>
<linearGradient id="paint4_linear" x1="102.296" y1="60.2803" x2="104.169" y2="60.7211" gradientUnits="userSpaceOnUse">
<stop stop-color="#F7BCBC"/>
<stop offset="1" stop-color="#F7BCBC" stop-opacity="0"/>
</linearGradient>
<linearGradient id="paint5_linear" x1="112.228" y1="90.1084" x2="119.744" y2="101.571" gradientUnits="userSpaceOnUse">
<stop stop-color="#75758F"/>
<stop offset="1" stop-color="#575777"/>
</linearGradient>
<linearGradient id="paint6_linear" x1="149.208" y1="52.332" x2="149.208" y2="89.9811" gradientUnits="userSpaceOnUse">
<stop stop-color="#75758F"/>
<stop offset="1" stop-color="#47526A"/>
</linearGradient>
<linearGradient id="paint7_linear" x1="96.8294" y1="86.9023" x2="96.8294" y2="97.8228" gradientUnits="userSpaceOnUse">
<stop stop-color="white"/>
<stop offset="1" stop-color="#4048FF"/>
</linearGradient>
</defs>
</svg>
