<svg width="99" height="98" viewBox="0 0 99 98" fill="none" xmlns="http://www.w3.org/2000/svg">
<circle cx="49.815" cy="49.066" r="46.318" stroke="#FFA318" stroke-width="5"/>
<path d="M49.4471 62.8892C48.0923 62.8892 46.9349 63.3194 45.9769 64.1777C45.0196 65.0352 44.5381 66.0737 44.5381 67.2981C44.5381 68.6778 45.0224 69.7605 45.9897 70.5482C46.9598 71.336 48.0895 71.7335 49.3808 71.7335C50.6936 71.7335 51.8389 71.3417 52.819 70.5646C53.7984 69.784 54.2877 68.6963 54.2877 67.2974C54.2877 66.073 53.8197 65.0345 52.8831 64.177C51.9465 63.3201 50.8025 62.8892 49.4449 62.8892" fill="#FFA318"/>
<path d="M63.286 32.5366C62.0395 30.6448 60.2581 29.1319 57.9881 28.0357C55.7309 26.9495 53.1019 26.3989 50.1716 26.3989C47.0169 26.3989 44.2091 27.0585 41.8301 28.3598C39.4483 29.6633 37.6077 31.3357 36.3598 33.3301C35.1062 35.3344 34.4688 37.3501 34.4688 39.3231C34.4688 40.3752 34.9075 41.3574 35.7679 42.2406C36.6326 43.1295 37.7082 43.579 38.9646 43.579C41.1086 43.579 42.5694 42.3211 43.3131 39.8538C43.9904 37.8131 44.8259 36.2568 45.7918 35.2254C46.7006 34.2539 48.175 33.761 50.1716 33.761C51.8938 33.761 53.2529 34.2439 54.3312 35.239C55.3932 36.2205 55.9103 37.39 55.9103 38.8146C55.9103 39.534 55.7423 40.18 55.4053 40.7911C55.0471 41.4322 54.6005 42.0212 54.0784 42.5455C53.5264 43.0982 52.6154 43.928 51.3703 45.0192C49.9201 46.2906 48.7499 47.4039 47.898 48.3284C47.0076 49.2893 46.2861 50.419 45.7469 51.6847C45.2084 52.9589 44.9349 54.4796 44.9349 56.2069C44.9349 57.6806 45.3459 58.8217 46.1579 59.5988C46.9613 60.368 47.9621 60.7598 49.1338 60.7598C51.3739 60.7598 52.7813 59.5354 53.2001 57.2447C53.4124 56.2924 53.5734 55.6271 53.6802 55.2489C53.7771 54.9049 53.9174 54.5516 54.0976 54.199C54.2728 53.8557 54.5499 53.4668 54.9238 53.0415C55.3135 52.5921 55.8398 52.065 56.4852 51.476C58.8991 49.3178 60.6021 47.7565 61.5466 46.8319C62.521 45.8796 63.3707 44.7336 64.0723 43.4287C64.7945 42.0932 65.1607 40.5198 65.1607 38.7569C65.1621 36.5268 64.5289 34.432 63.2824 32.5337" fill="#FFA318"/>
</svg>
