<svg width="138" height="139" viewBox="0 0 138 139" fill="none" xmlns="http://www.w3.org/2000/svg">
<path d="M137.795 69.242C137.795 107.293 106.948 138.139 68.8974 138.139C30.8464 138.139 0 107.293 0 69.242C0 31.191 30.8464 0.344604 68.8974 0.344604C106.948 0.344604 137.795 31.191 137.795 69.242Z" fill="#FFC1DB"/>
<path d="M24.0328 44.119C23.5168 38.1144 26.7374 34.4634 31.2507 32.5314C38.477 29.4386 41.4581 30.9453 52.7544 26.7745C66.597 21.6635 71.7286 39.9298 64.7937 46.6845C57.8589 53.4391 48.1099 48.824 40.8218 51.7347C33.5336 54.6454 24.6778 51.6249 24.0328 44.119Z" fill="#C5C7FF"/>
<rect x="26.9639" y="41.1479" width="36.2846" height="8.36302" rx="1.53411" transform="rotate(-12.5228 26.9639 41.1479)" fill="white"/>
<circle cx="32.0263" cy="44.3332" r="2.9492" transform="rotate(-20.2448 32.0263 44.3332)" fill="#FFA318"/>
<path d="M32.0269 42.6859C31.5222 42.872 31.2647 43.4305 31.4508 43.9351C31.4904 44.0425 31.5515 44.1419 31.6233 44.2374L30.9117 45.7806L31.1097 46.3174L31.6466 46.1194L31.5278 45.7973L31.8499 45.6785L31.7311 45.3564L32.0532 45.2376L32.3582 44.5763C32.4667 44.5728 32.582 44.5547 32.7001 44.5112C33.2047 44.325 33.4622 43.7665 33.2761 43.2619C33.09 42.7573 32.5315 42.4997 32.0269 42.6859ZM32.6517 43.5532C32.4692 43.6205 32.2781 43.5324 32.2108 43.3499C32.1435 43.1673 32.2316 42.9763 32.4141 42.909C32.5966 42.8417 32.7877 42.9298 32.855 43.1123C32.9223 43.2948 32.8342 43.4859 32.6517 43.5532Z" fill="white"/>
<circle cx="38.2534" cy="42.8549" r="0.699183" transform="rotate(-9.42119 38.2534 42.8549)" fill="#1F2337"/>
<circle cx="41.1548" cy="42.2222" r="0.699183" transform="rotate(-9.42119 41.1548 42.2222)" fill="#1F2337"/>
<circle cx="44.0569" cy="41.5904" r="0.699183" transform="rotate(-9.42119 44.0569 41.5904)" fill="#1F2337"/>
<circle cx="46.9583" cy="40.9578" r="0.699183" transform="rotate(-9.42119 46.9583 40.9578)" fill="#1F2337"/>
<circle cx="49.8601" cy="40.3259" r="0.699183" transform="rotate(-9.42119 49.8601 40.3259)" fill="#1F2337"/>
<path d="M55.2582 36.0895L55.3825 36.0706L55.3726 35.9453L55.2997 35.024C56.0569 34.8641 56.6441 34.4867 57.0501 33.889C57.4857 33.2586 57.6309 32.4982 57.4978 31.6198C57.3374 30.5615 56.9272 29.7811 56.25 29.3057C55.5849 28.8231 54.777 28.659 53.839 28.8012C53.1154 28.9109 52.5224 29.1582 52.0688 29.5503C51.6177 29.9292 51.3096 30.3968 51.1472 30.951L51.1472 30.951L51.1467 30.9527C50.9939 31.502 50.9786 32.0849 51.0977 32.6993L51.1223 32.8267L51.2506 32.8072L53.8209 32.4176L53.9545 32.3974L53.9343 32.2638C53.9074 32.0862 53.9221 31.9542 53.9643 31.8581C54.0064 31.7663 54.0782 31.7106 54.2016 31.6919C54.2897 31.6785 54.3557 31.7015 54.4148 31.7641L54.4143 31.7645L54.4242 31.7731C54.4879 31.8287 54.541 31.9277 54.5662 32.0938C54.5842 32.2126 54.5711 32.3116 54.5332 32.3958C54.4951 32.4804 54.4279 32.5594 54.3226 32.631L54.3226 32.631L54.3212 32.632C54.1112 32.7788 53.7759 32.8935 53.3001 32.9656L52.267 33.1221L52.1302 33.1429L52.1542 33.2792L52.6943 36.3447L52.7172 36.4746L52.8476 36.4549L55.2582 36.0895ZM53.4218 40.2302C53.7877 40.5125 54.2303 40.6101 54.7365 40.5333C55.2353 40.4577 55.6246 40.2336 55.8901 39.8561C56.1536 39.4814 56.2456 39.0464 56.172 38.5609C56.0971 38.0669 55.8804 37.6738 55.5176 37.3935C55.1511 37.1018 54.7118 36.9976 54.2121 37.0734C53.7049 37.1502 53.3118 37.3801 53.0478 37.7678C52.7843 38.143 52.6938 38.5827 52.7687 39.0767C52.8423 39.5623 53.059 39.9504 53.4218 40.2302Z" fill="#F52079" stroke="white" stroke-width="0.270229"/>
<path d="M20.0886 57.7659C19.7662 55.8097 21.2754 54.0315 23.2579 54.0315H36.5125C37.8837 54.0315 39.1037 54.9019 39.5498 56.1985L52.932 95.0911C53.6495 97.1766 52.1001 99.3482 49.8947 99.3482H29.668C28.0956 99.3482 26.7544 98.21 26.4987 96.6585L20.0886 57.7659Z" fill="url(#paint0_linear_10615:65382)"/>
<g filter="url(#filter0_d_10615:65382)">
<path d="M58.5135 76.0174C58.5135 76.0174 66.3325 76.938 69.6642 74.5495C72.996 72.1609 71.255 66.7614 68.1811 62.7844" stroke="url(#paint1_linear_10615:65382)" stroke-width="5.92995" stroke-linecap="round"/>
<path d="M68.9871 72.413C69.6685 72.6083 70.5009 72.8161 71.8908 74.1552" stroke="#C7D2D7" stroke-opacity="0.3" stroke-width="1.40013" stroke-linecap="round"/>
<path d="M67.7332 73.7285C68.2015 73.9521 68.7865 74.2008 69.3473 75.4012" stroke="#C7D2D7" stroke-opacity="0.3" stroke-width="1.40013" stroke-linecap="round"/>
<path d="M69.7837 70.5688C70.2846 70.4335 70.8906 70.2412 72.0979 70.7868" stroke="#C7D2D7" stroke-opacity="0.3" stroke-width="1.40013" stroke-linecap="round"/>
</g>
<g filter="url(#filter1_d_10615:65382)">
<path d="M46.148 67.9285C42.7735 67.9285 39.8047 70.1847 39.1955 73.5038C37.8221 80.9861 36.9758 90.7674 38.7783 93.7835C40.7573 97.095 45.1888 98.1019 48.0145 98.2468V98.2538C48.2083 98.263 48.4202 98.2673 48.6474 98.2656C48.8745 98.2673 49.0865 98.263 49.2802 98.2538V98.2468C52.1059 98.1019 56.5374 97.095 58.5164 93.7835C60.3189 90.7674 59.4727 80.9861 58.0992 73.5038C57.49 70.1847 54.5212 67.9285 51.1467 67.9285H46.148Z" fill="url(#paint2_linear_10615:65382)"/>
<path d="M55.0715 99.2537L51.8539 96.6836L56.9942 90.2485L60.2117 92.8187L55.0715 99.2537ZM62.9699 109.34C61.826 111.306 59.3051 111.972 57.3394 110.828C55.3738 109.684 54.7076 107.163 55.8516 105.198L62.9699 109.34ZM60.2117 92.8187C61.9328 94.1934 63.7033 96.4055 64.5015 99.3071C65.3352 102.338 65.0192 105.819 62.9699 109.34L55.8516 105.198C56.8265 103.522 56.7869 102.315 56.5605 101.492C56.2986 100.54 55.6724 99.7337 55.0715 99.2537L60.2117 92.8187Z" fill="white"/>
<path d="M44.1264 98.6668L40.9089 96.0967L46.0491 89.6616L49.2666 92.2317L44.1264 98.6668ZM52.3673 110.858C51.2237 112.824 48.703 113.49 46.7371 112.347C44.7712 111.203 44.1045 108.683 45.248 106.717L52.3673 110.858ZM49.2666 92.2317C51.2053 93.7803 53.2018 96.2749 54.1018 99.5369C55.0374 102.928 54.6988 106.849 52.3673 110.858L45.248 106.717C46.5037 104.558 46.4893 102.912 46.1624 101.727C45.7998 100.413 44.9471 99.3223 44.1264 98.6668L49.2666 92.2317Z" fill="white"/>
<g filter="url(#filter2_d_10615:65382)">
<rect x="46.9177" y="75.9175" width="6.83591" height="5.43579" rx="0.741244" fill="url(#paint3_linear_10615:65382)"/>
<rect x="46.7942" y="75.7939" width="7.083" height="5.68287" rx="0.864784" stroke="#EFF2F3" stroke-width="0.247081"/>
</g>
<path d="M41.5261 95.4667C44.6639 97.0714 52.4268 98.768 58.3765 92.7169" stroke="#C7D2D7" stroke-opacity="0.3" stroke-width="1.40013" stroke-linecap="round"/>
<path d="M62.2161 98.266C61.3957 98.7986 60.4264 99.4648 57.7474 100.075" stroke="#C7D2D7" stroke-opacity="0.3" stroke-width="1.40013" stroke-linecap="round"/>
<path d="M52.5459 102.009C51.6243 102.337 50.5269 102.76 47.7792 102.732" stroke="#C7D2D7" stroke-opacity="0.3" stroke-width="1.40013" stroke-linecap="round"/>
<path d="M60.7114 101.789C60.2487 101.889 59.6957 102.023 58.3786 101.839" stroke="#C7D2D7" stroke-opacity="0.3" stroke-width="1.40013" stroke-linecap="round"/>
<path d="M50.2124 105.304C49.7391 105.294 49.1699 105.297 47.9315 104.812" stroke="#C7D2D7" stroke-opacity="0.3" stroke-width="1.40013" stroke-linecap="round"/>
<path d="M49.4387 78.2148H49.4305C49.5977 77.8861 49.9392 77.6608 50.3333 77.6608C50.5875 77.6608 50.8198 77.7545 50.9976 77.9092H51.0038H51.4073C51.1684 77.574 50.7764 77.3553 50.3333 77.3553C49.6572 77.3553 49.1 77.8644 49.0243 78.5203L49.8751 78.5203V78.8258H49.0242L49.0245 78.8281C49.0369 78.9335 49.0617 79.035 49.0973 79.1313H49.8749V79.9089C49.9718 79.9449 50.0743 79.9698 50.1804 79.9821V79.1314H50.4859V79.9821C50.5921 79.9698 50.6945 79.945 50.7914 79.909V79.1313H51.569C51.6219 78.9886 51.6508 78.8342 51.6508 78.6731C51.6508 78.5119 51.6219 78.3575 51.569 78.2148H51.388H49.4387ZM50.486 78.8258H50.1805V78.5203H50.486V78.8258ZM51.334 78.8258H50.7915V78.5203H51.334C51.3416 78.5702 51.3455 78.6212 51.3455 78.6731C51.3455 78.725 51.3416 78.776 51.334 78.8258Z" fill="#9FF9FF"/>
<path d="M50.3321 76.7411C49.2651 76.7411 48.4001 77.6061 48.4001 78.673C48.4001 79.74 49.2651 80.605 50.3321 80.605C51.3991 80.605 52.264 79.74 52.264 78.673C52.264 77.6061 51.3991 76.7411 50.3321 76.7411ZM50.3321 80.299C49.4341 80.299 48.7062 79.571 48.7062 78.673C48.7062 77.7751 49.4341 77.0471 50.3321 77.0471C51.2301 77.0471 51.958 77.7751 51.958 78.673C51.958 79.571 51.2301 80.299 50.3321 80.299Z" fill="#9FF9FF"/>
<g filter="url(#filter3_d_10615:65382)">
<ellipse cx="56.6824" cy="77.0845" rx="0.752249" ry="1.14056" transform="rotate(-2.65315 56.6824 77.0845)" fill="url(#paint4_radial_10615:65382)"/>
<path d="M56.7409 78.3472C57.0032 78.3351 57.2174 78.1637 57.3573 77.9287C57.4977 77.6926 57.5728 77.3793 57.5573 77.044C57.5417 76.7086 57.438 76.4036 57.2763 76.1815C57.1153 75.9604 56.8861 75.8096 56.6239 75.8218C56.3617 75.8339 56.1474 76.0053 56.0076 76.2403C55.8671 76.4764 55.792 76.7897 55.8076 77.125C55.8231 77.4604 55.9268 77.7654 56.0885 77.9875C56.2495 78.2086 56.4787 78.3594 56.7409 78.3472Z" stroke="#EFF2F3" stroke-width="0.247081"/>
</g>
<g filter="url(#filter4_d_10615:65382)">
<ellipse cx="56.8272" cy="80.2111" rx="0.752249" ry="1.14056" transform="rotate(-2.65315 56.8272 80.2111)" fill="url(#paint5_radial_10615:65382)"/>
<path d="M56.8857 81.4738C57.1479 81.4617 57.3622 81.2903 57.502 81.0553C57.6425 80.8192 57.7176 80.5059 57.702 80.1705C57.6865 79.8352 57.5828 79.5302 57.4211 79.3081C57.2601 79.087 57.0309 78.9362 56.7687 78.9483C56.5064 78.9605 56.2922 79.1319 56.1523 79.3669C56.0119 79.6029 55.9368 79.9163 55.9523 80.2516C55.9679 80.5869 56.0716 80.892 56.2333 81.1141C56.3943 81.3351 56.6235 81.486 56.8857 81.4738Z" stroke="#EFF2F3" stroke-width="0.247081"/>
</g>
</g>
<path d="M71.1428 65.6858C72.5088 65.4247 73.2766 63.9804 72.7223 62.7146L71.6717 60.3155C71.543 60.0215 71.3551 59.7684 71.1269 59.5654C68.9574 53.3696 66.7115 51.8961 65.0395 52.0541C63.3707 52.6625 64.9314 54.3893 64.9418 56.5386C64.9423 56.6433 64.9428 56.7466 64.943 56.8481C64.5504 55.6822 63.7088 55.6165 63.2558 56.2067C62.8286 56.7632 63.584 58.4019 64.5594 59.9597C64.7136 60.162 64.924 60.4187 65.1761 60.694C64.9529 61.0478 64.8323 61.4676 64.8479 61.909L64.9331 64.3233C64.98 65.6514 66.2168 66.6271 67.5343 66.3754L71.1428 65.6858Z" fill="#282522"/>
<g filter="url(#filter5_d_10615:65382)">
<path d="M54.813 77.1895C62.9185 75.9436 68.4793 68.3629 67.2334 60.2574C65.9875 52.1519 58.4068 46.5911 50.3013 47.837C42.1958 49.0828 36.635 56.6636 37.8809 64.7691C39.1268 72.8746 46.7075 78.4354 54.813 77.1895Z" fill="url(#paint6_radial_10615:65382)"/>
<path d="M49.5006 71.4239C48.9999 71.4239 48.4348 71.1613 48.4256 70.7133C48.1364 56.6509 71.3589 57.2321 63.7755 71.424C63.6512 71.7714 63.3358 72.0617 62.9219 72.2022L49.5006 71.4239Z" fill="url(#paint7_linear_10615:65382)"/>
<path d="M49.5005 71.3366L49.5005 71.3365L49.4952 71.3365C49.2588 71.3365 49.0096 71.2741 48.8215 71.1625C48.6342 71.0513 48.5186 70.8993 48.5148 70.7169C48.3714 63.7439 54.0547 60.4005 58.8383 60.5608C61.2298 60.6408 63.3758 61.5958 64.4596 63.3893C65.5427 65.1816 65.5849 67.8445 63.6959 71.3797L63.6951 71.3793L63.691 71.3906C63.578 71.7068 63.29 71.9782 62.904 72.1139L49.5005 71.3366Z" stroke="#BC4924" stroke-opacity="0.2" stroke-width="0.176736"/>
<g style="mix-blend-mode:multiply">
<path d="M64.8475 65.8236C64.6274 63.3487 63.1091 61.5217 60.6892 61.2693C62.2668 62.0459 59.6036 65.251 59.1395 67.7708C58.5883 70.7477 62.7185 69.952 61.8956 70.894C61.6337 71.1903 61.3008 71.3695 60.9986 71.3719L51.8931 70.9787C51.9555 71.2516 52.2112 71.6368 52.5349 71.6322L62.5301 71.806C62.8323 71.8035 63.1652 71.6243 63.4271 71.328C64.2568 69.2949 64.8642 68.4692 64.8475 65.8236Z" fill="url(#paint8_radial_10615:65382)"/>
</g>
<path d="M63.5211 68.7715C63.8451 69.6696 62.6187 70.9045 61.3691 70.9045" stroke="white" stroke-width="1.32552" stroke-linecap="round"/>
<path d="M51.7131 65.8827C51.87 64.9494 52.9032 63.072 55.7807 63.0285" stroke="white" stroke-width="1.67899" stroke-linecap="round"/>
</g>
<g filter="url(#filter6_d_10615:65382)">
<path d="M39.7706 75.4966C39.7706 75.4966 32.5452 72.3696 30.8617 68.6318C29.1782 64.8939 33.3935 61.0969 38.0479 59.1991" stroke="url(#paint9_linear_10615:65382)" stroke-width="5.92995" stroke-linecap="round"/>
<path d="M32.5195 67.1234C31.8321 66.9505 31.0078 66.7126 29.1336 67.1735" stroke="#C7D2D7" stroke-opacity="0.3" stroke-width="1.40013" stroke-linecap="round"/>
<path d="M32.9441 68.8906C32.4268 68.8489 31.796 68.7706 30.7086 69.5275" stroke="#C7D2D7" stroke-opacity="0.3" stroke-width="1.40013" stroke-linecap="round"/>
<path d="M32.7559 65.1286C32.3905 64.7601 31.9628 64.2898 30.6447 64.1559" stroke="#C7D2D7" stroke-opacity="0.3" stroke-width="1.40013" stroke-linecap="round"/>
</g>
<path d="M36.8914 61.853C37.5148 63.2329 39.2391 63.6789 40.4385 62.7704L42.7117 61.0486C42.9902 60.8376 43.2104 60.5744 43.3674 60.2812C46.1763 60.0266 50.5556 58.1492 50.344 54.7806C50.1506 51.7014 47.2737 52.4065 45.0007 52.9636C44.89 52.9907 44.7807 53.0175 44.6733 53.0434C45.8079 52.3315 45.6638 51.4238 44.9238 51.0941C44.2259 50.7832 42.6829 51.9994 41.2814 53.4278C41.1063 53.6425 40.888 53.9305 40.6606 54.2674C40.2293 54.1209 39.7542 54.0999 39.2908 54.2286L36.7563 54.9322C35.362 55.3192 34.6431 56.8766 35.2445 58.2076L36.8914 61.853Z" fill="#282522"/>
<g filter="url(#filter7_d_10615:65382)">
<ellipse cx="69.4893" cy="103.221" rx="51.4893" ry="16.5399" fill="url(#paint10_linear_10615:65382)"/>
</g>
<path d="M79.5843 100.3C79.4254 100.225 79.4535 99.9908 79.6257 99.9553L96.5831 96.4596C96.6164 96.4527 96.6509 96.4552 96.6828 96.4669L105.94 99.8482C106.113 99.9112 106.096 100.161 105.916 100.199L87.7232 104.113C87.6838 104.122 87.6427 104.117 87.6063 104.1L79.5843 100.3Z" fill="#616186"/>
<path d="M87.8374 92.7501C87.8374 92.4577 88.0354 92.2024 88.3186 92.1295L96.9887 89.8985C97.3943 89.7941 97.7893 90.1004 97.7893 90.5191V99.1029C97.7893 99.4134 97.5666 99.6793 97.2608 99.7338L88.5907 101.278C88.1979 101.348 87.8374 101.046 87.8374 100.647V92.7501Z" fill="#75758F"/>
<path d="M51.9643 101.695L43.735 97.5278C43.5745 97.4466 43.6151 97.2069 43.7933 97.183L71.4855 93.47C71.5155 93.466 71.546 93.4695 71.5743 93.4801L80.3655 96.7898C80.5411 96.8559 80.5155 97.1119 80.3303 97.1419L52.0763 101.712C52.0381 101.718 51.9989 101.712 51.9643 101.695Z" fill="url(#paint11_linear_10615:65382)"/>
<path d="M53.9272 96.5598L64.1459 94.9935" stroke="#9898B3" stroke-width="0.183103" stroke-linecap="round"/>
<path d="M48.634 98.4596L50.4786 98.1697" stroke="#9898B3" stroke-width="0.183103" stroke-linecap="round"/>
<path d="M51.6018 97.964L53.4463 97.6741" stroke="#9898B3" stroke-width="0.183103" stroke-linecap="round"/>
<path d="M54.5664 97.4664L56.4109 97.1765" stroke="#9898B3" stroke-width="0.183103" stroke-linecap="round"/>
<path d="M57.5342 96.9699L59.3787 96.6801" stroke="#9898B3" stroke-width="0.183103" stroke-linecap="round"/>
<path d="M60.5034 96.4728L62.348 96.1829" stroke="#9898B3" stroke-width="0.183103" stroke-linecap="round"/>
<path d="M63.47 95.977L65.3145 95.6871" stroke="#9898B3" stroke-width="0.183103" stroke-linecap="round"/>
<path d="M66.4329 95.4805L68.2774 95.1906" stroke="#9898B3" stroke-width="0.183103" stroke-linecap="round"/>
<path d="M69.4026 94.9835L71.2471 94.6936" stroke="#9898B3" stroke-width="0.183103" stroke-linecap="round"/>
<path d="M50.4819 98.9564L52.3265 98.6665" stroke="#9898B3" stroke-width="0.183103" stroke-linecap="round"/>
<path d="M53.4497 98.4607L55.2942 98.1709" stroke="#9898B3" stroke-width="0.183103" stroke-linecap="round"/>
<path d="M56.4143 97.9632L58.2588 97.6733" stroke="#9898B3" stroke-width="0.183103" stroke-linecap="round"/>
<path d="M59.3821 97.4667L61.2266 97.1768" stroke="#9898B3" stroke-width="0.183103" stroke-linecap="round"/>
<path d="M62.3516 96.9697L64.1961 96.6798" stroke="#9898B3" stroke-width="0.183103" stroke-linecap="round"/>
<path d="M65.3179 96.4731L67.1624 96.1832" stroke="#9898B3" stroke-width="0.183103" stroke-linecap="round"/>
<path d="M68.2808 95.9773L70.1253 95.6874" stroke="#9898B3" stroke-width="0.183103" stroke-linecap="round"/>
<path d="M71.2505 95.4803L73.095 95.1904" stroke="#9898B3" stroke-width="0.183103" stroke-linecap="round"/>
<path d="M50.8069 99.8456L52.6514 99.5558" stroke="#9898B3" stroke-width="0.183103" stroke-linecap="round"/>
<path d="M53.7747 99.35L55.6192 99.0601" stroke="#9898B3" stroke-width="0.183103" stroke-linecap="round"/>
<path d="M56.7393 98.8524L58.5838 98.5625" stroke="#9898B3" stroke-width="0.183103" stroke-linecap="round"/>
<path d="M59.707 98.3559L61.5516 98.0661" stroke="#9898B3" stroke-width="0.183103" stroke-linecap="round"/>
<path d="M62.6763 97.8588L64.5208 97.5689" stroke="#9898B3" stroke-width="0.183103" stroke-linecap="round"/>
<path d="M65.6428 97.3623L67.4874 97.0724" stroke="#9898B3" stroke-width="0.183103" stroke-linecap="round"/>
<path d="M68.6055 96.8665L70.45 96.5766" stroke="#9898B3" stroke-width="0.183103" stroke-linecap="round"/>
<path d="M71.5754 96.3695L73.42 96.0796" stroke="#9898B3" stroke-width="0.183103" stroke-linecap="round"/>
<path d="M53.6387 100.326L55.4832 100.036" stroke="#9898B3" stroke-width="0.183103" stroke-linecap="round"/>
<path d="M56.6067 99.83L58.4512 99.5401" stroke="#9898B3" stroke-width="0.183103" stroke-linecap="round"/>
<path d="M59.5713 99.3325L61.4158 99.0426" stroke="#9898B3" stroke-width="0.183103" stroke-linecap="round"/>
<path d="M62.5393 98.836L64.3838 98.5461" stroke="#9898B3" stroke-width="0.183103" stroke-linecap="round"/>
<path d="M65.5083 98.3388L67.3528 98.049" stroke="#9898B3" stroke-width="0.183103" stroke-linecap="round"/>
<path d="M68.4749 97.843L70.3194 97.5532" stroke="#9898B3" stroke-width="0.183103" stroke-linecap="round"/>
<path d="M71.4377 97.3466L73.2823 97.0567" stroke="#9898B3" stroke-width="0.183103" stroke-linecap="round"/>
<path d="M74.4072 96.8495L76.2518 96.5597" stroke="#9898B3" stroke-width="0.183103" stroke-linecap="round"/>
<path d="M72.8379 66.294C72.8379 66.1054 72.9812 65.9476 73.169 65.9295L112.371 62.1536C112.591 62.1325 112.779 62.3088 112.772 62.5293L111.911 90.829C111.906 91.0039 111.778 91.1506 111.605 91.1792L73.2639 97.5222C73.0408 97.5591 72.8379 97.387 72.8379 97.1609V66.294Z" fill="#75758F"/>
<path d="M73.8794 67.7662V96.0191C73.8794 96.245 74.0818 96.417 74.3047 96.3805L111.78 90.2547C111.953 90.2264 112.081 90.0797 112.087 89.9046L112.891 63.9946C112.898 63.7737 112.709 63.5971 112.489 63.6188L74.2096 67.4018C74.0222 67.4203 73.8794 67.5779 73.8794 67.7662Z" fill="url(#paint12_linear_10615:65382)"/>
<path d="M91.0584 75.6724L88.4341 87.1444L92.4112 77.1505C92.4576 77.0339 92.5605 76.9492 92.6838 76.926L98.7328 75.7896C98.922 75.7541 99.1064 75.8711 99.1549 76.0573L101.528 85.1841L99.9833 74.4027C99.9543 74.2004 99.7653 74.061 99.5635 74.0929L91.3581 75.3924C91.2104 75.4158 91.0918 75.5266 91.0584 75.6724Z" fill="#75758F"/>
<g filter="url(#filter8_d_10615:65382)">
<path d="M107.894 34.3423L110.264 42.345L115.584 42.9955L115.125 48.3893L124.08 52.8833L114.964 56.1442L116.312 62.6405L109.855 61.981L105.886 69.5855L102.19 63.1686L90.5271 70.5321L95.5549 59.1514L88.6632 57.0842L93.0543 51.809L88.999 46.6186L95.8584 44.577L94.2685 36.9557L102.655 40.8394L107.894 34.3423Z" fill="#F52079"/>
</g>
<path d="M103.189 50.2093C103.189 49.4549 103.765 48.878 104.52 48.878C105.274 48.878 105.851 49.4549 105.851 50.2093V51.0968H106.739V50.2093C106.739 48.9668 105.762 47.9905 104.52 47.9905C103.277 47.9905 102.301 48.9668 102.301 50.2093V51.0968H103.189V50.2093Z" fill="#F6F6FF"/>
<path d="M106.741 51.0959H102.303C101.549 51.0959 100.972 51.6728 100.972 52.4272V55.5336C100.972 56.2879 101.549 56.8648 102.303 56.8648H106.741C107.495 56.8648 108.072 56.2879 108.072 55.5336V52.4272C108.072 51.6728 107.495 51.0959 106.741 51.0959ZM104.966 54.0248V54.646C104.966 54.9123 104.788 55.0898 104.522 55.0898C104.256 55.0898 104.078 54.9123 104.078 54.646V54.0248C103.945 53.8916 103.856 53.7141 103.856 53.5366C103.856 53.1816 104.167 52.871 104.522 52.871C104.877 52.871 105.188 53.1816 105.188 53.5366C105.188 53.7141 105.099 53.8916 104.966 54.0248Z" fill="#F6F6FF"/>
<path d="M97.9164 51.7544L98.6124 55.0688L97.3031 55.4196L96.2487 52.2012L97.9164 51.7544ZM98.4914 57.2358C98.2249 57.3072 97.9922 57.2932 97.7933 57.1939C97.5943 57.0946 97.4659 56.9369 97.408 56.721C97.349 56.5005 97.3807 56.2975 97.5034 56.112C97.6248 55.9219 97.8187 55.7911 98.0852 55.7197C98.347 55.6496 98.5781 55.6664 98.7782 55.7704C98.9772 55.8697 99.1062 56.0296 99.1653 56.2501C99.2232 56.4661 99.1908 56.6668 99.0681 56.8523C98.9455 57.0378 98.7533 57.1656 98.4914 57.2358Z" fill="#F6F6FF"/>
<path d="M113.194 52.5591L111.727 55.6117L110.475 55.0925L111.599 51.8977L113.194 52.5591ZM110.311 57.2567C110.057 57.151 109.88 56.9982 109.783 56.7982C109.686 56.5982 109.68 56.395 109.766 56.1885C109.853 55.9776 110.002 55.836 110.212 55.7636C110.424 55.6867 110.658 55.7012 110.913 55.8068C111.163 55.9107 111.336 56.0648 111.431 56.2691C111.529 56.4691 111.534 56.6745 111.446 56.8854C111.361 57.0919 111.213 57.2314 111.002 57.3038C110.792 57.3762 110.562 57.3605 110.311 57.2567Z" fill="#F6F6FF"/>
<defs>
<filter id="filter0_d_10615:65382" x="53.9748" y="58.6764" width="27.383" height="28.397" filterUnits="userSpaceOnUse" color-interpolation-filters="sRGB">
<feFlood flood-opacity="0" result="BackgroundImageFix"/>
<feColorMatrix in="SourceAlpha" type="matrix" values="0 0 0 0 0 0 0 0 0 0 0 0 0 0 0 0 0 0 127 0" result="hardAlpha"/>
<feOffset dy="0.329442"/>
<feGaussianBlur stdDeviation="0.164721"/>
<feComposite in2="hardAlpha" operator="out"/>
<feColorMatrix type="matrix" values="0 0 0 0 0 0 0 0 0 0 0 0 0 0 0 0 0 0 0.25 0"/>
<feBlend mode="normal" in2="BackgroundImageFix" result="effect1_dropShadow_10615:65382"/>
<feBlend mode="normal" in="SourceGraphic" in2="effect1_dropShadow_10615:65382" result="shape"/>
</filter>
<filter id="filter1_d_10615:65382" x="37.3639" y="67.9008" width="33.0266" height="46.5336" filterUnits="userSpaceOnUse" color-interpolation-filters="sRGB">
<feFlood flood-opacity="0" result="BackgroundImageFix"/>
<feColorMatrix in="SourceAlpha" type="matrix" values="0 0 0 0 0 0 0 0 0 0 0 0 0 0 0 0 0 0 127 0" result="hardAlpha"/>
<feOffset dy="0.329442"/>
<feGaussianBlur stdDeviation="0.164721"/>
<feComposite in2="hardAlpha" operator="out"/>
<feColorMatrix type="matrix" values="0 0 0 0 0 0 0 0 0 0 0 0 0 0 0 0 0 0 0.25 0"/>
<feBlend mode="normal" in2="BackgroundImageFix" result="effect1_dropShadow_10615:65382"/>
<feBlend mode="normal" in="SourceGraphic" in2="effect1_dropShadow_10615:65382" result="shape"/>
</filter>
<filter id="filter2_d_10615:65382" x="46.3412" y="75.6704" width="7.98896" height="6.58881" filterUnits="userSpaceOnUse" color-interpolation-filters="sRGB">
<feFlood flood-opacity="0" result="BackgroundImageFix"/>
<feColorMatrix in="SourceAlpha" type="matrix" values="0 0 0 0 0 0 0 0 0 0 0 0 0 0 0 0 0 0 127 0" result="hardAlpha"/>
<feOffset dy="0.329442"/>
<feGaussianBlur stdDeviation="0.164721"/>
<feComposite in2="hardAlpha" operator="out"/>
<feColorMatrix type="matrix" values="0 0 0 0 0 0 0 0 0 0 0 0 0 0 0 0 0 0 0.25 0"/>
<feBlend mode="normal" in2="BackgroundImageFix" result="effect1_dropShadow_10615:65382"/>
<feBlend mode="normal" in="SourceGraphic" in2="effect1_dropShadow_10615:65382" result="shape"/>
</filter>
<filter id="filter3_d_10615:65382" x="55.3527" y="75.6975" width="2.65962" height="3.43284" filterUnits="userSpaceOnUse" color-interpolation-filters="sRGB">
<feFlood flood-opacity="0" result="BackgroundImageFix"/>
<feColorMatrix in="SourceAlpha" type="matrix" values="0 0 0 0 0 0 0 0 0 0 0 0 0 0 0 0 0 0 127 0" result="hardAlpha"/>
<feOffset dy="0.329442"/>
<feGaussianBlur stdDeviation="0.164721"/>
<feComposite in2="hardAlpha" operator="out"/>
<feColorMatrix type="matrix" values="0 0 0 0 0 0 0 0 0 0 0 0 0 0 0 0 0 0 0.25 0"/>
<feBlend mode="normal" in2="BackgroundImageFix" result="effect1_dropShadow_10615:65382"/>
<feBlend mode="normal" in="SourceGraphic" in2="effect1_dropShadow_10615:65382" result="shape"/>
</filter>
<filter id="filter4_d_10615:65382" x="55.4975" y="78.8241" width="2.65962" height="3.43284" filterUnits="userSpaceOnUse" color-interpolation-filters="sRGB">
<feFlood flood-opacity="0" result="BackgroundImageFix"/>
<feColorMatrix in="SourceAlpha" type="matrix" values="0 0 0 0 0 0 0 0 0 0 0 0 0 0 0 0 0 0 127 0" result="hardAlpha"/>
<feOffset dy="0.329442"/>
<feGaussianBlur stdDeviation="0.164721"/>
<feComposite in2="hardAlpha" operator="out"/>
<feColorMatrix type="matrix" values="0 0 0 0 0 0 0 0 0 0 0 0 0 0 0 0 0 0 0.25 0"/>
<feBlend mode="normal" in2="BackgroundImageFix" result="effect1_dropShadow_10615:65382"/>
<feBlend mode="normal" in="SourceGraphic" in2="effect1_dropShadow_10615:65382" result="shape"/>
</filter>
<filter id="filter5_d_10615:65382" x="35.2956" y="45.581" width="34.5231" height="34.5232" filterUnits="userSpaceOnUse" color-interpolation-filters="sRGB">
<feFlood flood-opacity="0" result="BackgroundImageFix"/>
<feColorMatrix in="SourceAlpha" type="matrix" values="0 0 0 0 0 0 0 0 0 0 0 0 0 0 0 0 0 0 127 0" result="hardAlpha"/>
<feOffset dy="0.329442"/>
<feGaussianBlur stdDeviation="0.164721"/>
<feComposite in2="hardAlpha" operator="out"/>
<feColorMatrix type="matrix" values="0 0 0 0 0 0 0 0 0 0 0 0 0 0 0 0 0 0 0.25 0"/>
<feBlend mode="normal" in2="BackgroundImageFix" result="effect1_dropShadow_10615:65382"/>
<feBlend mode="normal" in="SourceGraphic" in2="effect1_dropShadow_10615:65382" result="shape"/>
</filter>
<filter id="filter6_d_10615:65382" x="21.0068" y="52.7026" width="25.1776" height="31.0552" filterUnits="userSpaceOnUse" color-interpolation-filters="sRGB">
<feFlood flood-opacity="0" result="BackgroundImageFix"/>
<feColorMatrix in="SourceAlpha" type="matrix" values="0 0 0 0 0 0 0 0 0 0 0 0 0 0 0 0 0 0 127 0" result="hardAlpha"/>
<feOffset dy="0.329442"/>
<feGaussianBlur stdDeviation="1.48794"/>
<feComposite in2="hardAlpha" operator="out"/>
<feColorMatrix type="matrix" values="0 0 0 0 0 0 0 0 0 0 0 0 0 0 0 0 0 0 0.25 0"/>
<feBlend mode="normal" in2="BackgroundImageFix" result="effect1_dropShadow_10615:65382"/>
<feBlend mode="normal" in="SourceGraphic" in2="effect1_dropShadow_10615:65382" result="shape"/>
</filter>
<filter id="filter7_d_10615:65382" x="15.0241" y="84.0346" width="108.93" height="39.0315" filterUnits="userSpaceOnUse" color-interpolation-filters="sRGB">
<feFlood flood-opacity="0" result="BackgroundImageFix"/>
<feColorMatrix in="SourceAlpha" type="matrix" values="0 0 0 0 0 0 0 0 0 0 0 0 0 0 0 0 0 0 127 0" result="hardAlpha"/>
<feOffset dy="0.329442"/>
<feGaussianBlur stdDeviation="1.48794"/>
<feComposite in2="hardAlpha" operator="out"/>
<feColorMatrix type="matrix" values="0 0 0 0 0 0 0 0 0 0 0 0 0 0 0 0 0 0 0.25 0"/>
<feBlend mode="normal" in2="BackgroundImageFix" result="effect1_dropShadow_10615:65382"/>
<feBlend mode="normal" in="SourceGraphic" in2="effect1_dropShadow_10615:65382" result="shape"/>
</filter>
<filter id="filter8_d_10615:65382" x="88.6633" y="34.3423" width="35.4163" height="37.0133" filterUnits="userSpaceOnUse" color-interpolation-filters="sRGB">
<feFlood flood-opacity="0" result="BackgroundImageFix"/>
<feColorMatrix in="SourceAlpha" type="matrix" values="0 0 0 0 0 0 0 0 0 0 0 0 0 0 0 0 0 0 127 0" result="hardAlpha"/>
<feOffset dy="0.823604"/>
<feComposite in2="hardAlpha" operator="out"/>
<feColorMatrix type="matrix" values="0 0 0 0 1 0 0 0 0 1 0 0 0 0 1 0 0 0 1 0"/>
<feBlend mode="normal" in2="BackgroundImageFix" result="effect1_dropShadow_10615:65382"/>
<feBlend mode="normal" in="SourceGraphic" in2="effect1_dropShadow_10615:65382" result="shape"/>
</filter>
<linearGradient id="paint0_linear_10615:65382" x1="24.2454" y1="73.2758" x2="66.2974" y2="65.1486" gradientUnits="userSpaceOnUse">
<stop stop-color="white"/>
<stop offset="1" stop-color="#445987"/>
</linearGradient>
<linearGradient id="paint1_linear_10615:65382" x1="62.6455" y1="79.4096" x2="71.6561" y2="68.3576" gradientUnits="userSpaceOnUse">
<stop stop-color="#EFF2F3"/>
<stop offset="1" stop-color="white"/>
</linearGradient>
<linearGradient id="paint2_linear_10615:65382" x1="48.6474" y1="67.9285" x2="48.6474" y2="98.266" gradientUnits="userSpaceOnUse">
<stop stop-color="#E3E9EB"/>
<stop offset="0.56737" stop-color="white"/>
</linearGradient>
<linearGradient id="paint3_linear_10615:65382" x1="50.3357" y1="68.9811" x2="50.3357" y2="81.3533" gradientUnits="userSpaceOnUse">
<stop stop-color="#50D5FF"/>
<stop offset="1" stop-color="#2C3585"/>
</linearGradient>
<radialGradient id="paint4_radial_10615:65382" cx="0" cy="0" r="1" gradientUnits="userSpaceOnUse" gradientTransform="translate(56.6824 77.0845) rotate(90) scale(1.66207 1.09621)">
<stop stop-color="#51E0FF"/>
<stop offset="1" stop-color="#4E7CB4"/>
</radialGradient>
<radialGradient id="paint5_radial_10615:65382" cx="0" cy="0" r="1" gradientUnits="userSpaceOnUse" gradientTransform="translate(56.8272 80.2111) rotate(90) scale(1.66207 1.09621)">
<stop stop-color="#FFB3B3"/>
<stop offset="1" stop-color="#F20000"/>
</radialGradient>
<radialGradient id="paint6_radial_10615:65382" cx="0" cy="0" r="1" gradientUnits="userSpaceOnUse" gradientTransform="translate(60.3863 81.4613) rotate(-8.73846) scale(24.8246)">
<stop offset="0.381" stop-color="#BFCCD1"/>
<stop offset="0.7578" stop-color="white"/>
</radialGradient>
<linearGradient id="paint7_linear_10615:65382" x1="44.5776" y1="73.3654" x2="63.7606" y2="58.6723" gradientUnits="userSpaceOnUse">
<stop stop-color="#FFF668"/>
<stop offset="0.519247" stop-color="#FF9C4C"/>
<stop offset="1" stop-color="#880000"/>
</linearGradient>
<radialGradient id="paint8_radial_10615:65382" cx="0" cy="0" r="1" gradientUnits="userSpaceOnUse" gradientTransform="translate(52.2163 70.902) rotate(0.406974) scale(21.0627 26.6459)">
<stop offset="0.180591" stop-color="white"/>
<stop offset="0.9385" stop-color="#880000"/>
</radialGradient>
<linearGradient id="paint9_linear_10615:65382" x1="34.4943" y1="76.3576" x2="32.2456" y2="62.2763" gradientUnits="userSpaceOnUse">
<stop stop-color="#EFF2F3"/>
<stop offset="1" stop-color="white"/>
</linearGradient>
<linearGradient id="paint10_linear_10615:65382" x1="69.4893" y1="86.6811" x2="101.372" y2="110.841" gradientUnits="userSpaceOnUse">
<stop stop-color="#F7F9FA"/>
<stop offset="1" stop-color="#DBEBF3"/>
</linearGradient>
<linearGradient id="paint11_linear_10615:65382" x1="62.1089" y1="93.4639" x2="68.2165" y2="102.778" gradientUnits="userSpaceOnUse">
<stop stop-color="#75758F"/>
<stop offset="1" stop-color="#575777"/>
</linearGradient>
<linearGradient id="paint12_linear_10615:65382" x1="93.3915" y1="63.5778" x2="93.3915" y2="94.1708" gradientUnits="userSpaceOnUse">
<stop stop-color="#75758F"/>
<stop offset="1" stop-color="#47526A"/>
</linearGradient>
</defs>
</svg>
