<svg width="21" height="21" viewBox="0 0 21 21" fill="none" xmlns="http://www.w3.org/2000/svg">
<path d="M19.7394 17.0184L15.238 12.5166C14.5672 13.5597 13.6796 14.4469 12.6365 15.1177L17.1383 19.6195C17.857 20.338 19.0222 20.338 19.7394 19.6195C20.4581 18.9022 20.4581 17.7369 19.7394 17.0184Z" fill="white"/>
<path d="M15.3731 7.8952C15.3731 3.8318 12.0786 0.537109 8.01507 0.537109C3.95167 0.537109 0.656982 3.8318 0.656982 7.8952C0.656982 11.9586 3.95167 15.2531 8.01507 15.2531C12.0786 15.2531 15.3731 11.9586 15.3731 7.8952ZM8.01507 13.4136C4.97195 13.4136 2.49656 10.9384 2.49656 7.89524C2.49656 4.85212 4.97195 2.37672 8.01507 2.37672C11.0581 2.37672 13.5337 4.85212 13.5337 7.89524C13.5337 10.9384 11.0581 13.4136 8.01507 13.4136Z" fill="white"/>
<path d="M3.7229 7.8947H4.94909C4.94909 6.20423 6.32459 4.82885 8.01502 4.82885V3.60254C5.64865 3.60254 3.7229 5.52829 3.7229 7.8947Z" fill="white"/>
</svg>
