<svg width="22" height="22" viewBox="0 0 22 22" fill="none" xmlns="http://www.w3.org/2000/svg">
<path d="M20.6095 17.8189L15.8934 13.1025C15.1908 14.1954 14.2608 15.1249 13.168 15.8276L17.8844 20.544C18.6373 21.2967 19.8581 21.2967 20.6094 20.544C21.3624 19.7924 21.3624 18.5717 20.6095 17.8189Z" fill="#47526A"/>
<path d="M16.0347 8.26053C16.0347 4.00347 12.5831 0.551758 8.32596 0.551758C4.0689 0.551758 0.617188 4.00347 0.617188 8.26053C0.617188 12.5176 4.0689 15.9691 8.32596 15.9691C12.5831 15.9691 16.0347 12.5176 16.0347 8.26053ZM8.32596 14.0419C5.13781 14.0419 2.54443 11.4487 2.54443 8.26058C2.54443 5.07242 5.13781 2.47905 8.32596 2.47905C11.514 2.47905 14.1076 5.07242 14.1076 8.26058C14.1076 11.4487 11.514 14.0419 8.32596 14.0419Z" fill="#47526A"/>
<path d="M3.8291 8.2604H5.11374C5.11374 6.48936 6.55479 5.04843 8.32579 5.04843V3.76367C5.84663 3.76367 3.8291 5.7812 3.8291 8.2604Z" fill="#47526A"/>
</svg>
