<svg width="53" height="46" viewBox="0 0 53 46" fill="none" xmlns="http://www.w3.org/2000/svg">
<path d="M47.9166 13.0649L28.123 3.2955C27.74 3.10657 27.3187 3.0083 26.8916 3.0083C26.4645 3.0083 26.0432 3.10657 25.6602 3.2955L5.8666 13.0649C5.10778 13.4367 4.46804 14.0133 4.01964 14.7295C3.57125 15.4457 3.33206 16.2731 3.3291 17.1181V38.0309C3.3291 40.5333 5.38402 42.5622 7.91926 42.5622H45.8685C48.4037 42.5622 50.4586 40.5333 50.4586 38.0309V17.1181C50.4553 16.2726 50.2154 15.4449 49.7662 14.7286C49.3169 14.0123 48.6763 13.436 47.9166 13.0649V13.0649Z" stroke="#00CC9E" stroke-width="5" stroke-linecap="round" stroke-linejoin="round"/>
<path d="M43.2061 35.3126L28.5633 23.9233C28.0861 23.5521 27.4987 23.3506 26.8941 23.3506C26.2895 23.3506 25.7022 23.5521 25.2249 23.9233L10.5811 35.3126" stroke="#00CC9E" stroke-width="5" stroke-linecap="round" stroke-linejoin="round"/>
<path d="M33.2373 27.043L48.6436 15.375" stroke="#00CC9E" stroke-width="5" stroke-linecap="round" stroke-linejoin="round"/>
<path d="M5.14355 15.375L20.8896 27.2695" stroke="#00CC9E" stroke-width="5" stroke-linecap="round" stroke-linejoin="round"/>
</svg>
