<svg width="99" height="98" viewBox="0 0 99 98" fill="none" xmlns="http://www.w3.org/2000/svg">
<path d="M70.5768 39.1884L50.7831 29.419C50.4001 29.2301 49.9788 29.1318 49.5518 29.1318C49.1247 29.1318 48.7034 29.2301 48.3204 29.419L28.5268 39.1884C27.7679 39.5602 27.1282 40.1368 26.6798 40.853C26.2314 41.5693 25.9922 42.3966 25.9893 43.2416V64.1545C25.9893 66.6568 28.0442 68.6857 30.5794 68.6857H68.5286C71.0639 68.6857 73.1188 66.6568 73.1188 64.1545V43.2416C73.1154 42.3961 72.8756 41.5684 72.4263 40.8522C71.9771 40.1359 71.3364 39.5596 70.5768 39.1884V39.1884Z" stroke="#00CC9E" stroke-width="5" stroke-linecap="round" stroke-linejoin="round"/>
<path d="M65.5625 61.4362L50.9198 50.0469C50.4425 49.6757 49.8552 49.4741 49.2506 49.4741C48.646 49.4741 48.0586 49.6757 47.5814 50.0469L32.9375 61.4362" stroke="#00CC9E" stroke-width="5" stroke-linecap="round" stroke-linejoin="round"/>
<path d="M55.5938 53.1665L71 41.4985" stroke="#00CC9E" stroke-width="5" stroke-linecap="round" stroke-linejoin="round"/>
<path d="M27.5 41.4985L43.2461 53.3931" stroke="#00CC9E" stroke-width="5" stroke-linecap="round" stroke-linejoin="round"/>
<circle cx="49.5533" cy="48.9088" r="46.318" stroke="#00CC9E" stroke-width="5"/>
</svg>
