<svg width="479" height="275" viewBox="0 0 479 275" fill="none" xmlns="http://www.w3.org/2000/svg">
<path fill-rule="evenodd" clip-rule="evenodd" d="M245.496 71.311C241.521 71.311 238.299 74.533 238.299 78.5076V88.9193C234.366 90.0213 230.639 91.6174 227.189 93.6365L220.333 86.7809C217.523 83.9704 212.966 83.9704 210.156 86.7809L202.184 94.7524C199.374 97.5628 199.374 102.119 202.184 104.93L209.347 112.093C207.699 115.142 206.375 118.393 205.421 121.798H195.484C191.509 121.798 188.287 125.02 188.287 128.994V140.268C188.287 144.242 191.509 147.464 195.484 147.464H205.421C206.314 150.654 207.532 153.707 209.038 156.587L202.184 163.44C199.374 166.25 199.374 170.807 202.184 173.617L210.156 181.589C212.966 184.399 217.523 184.399 220.333 181.589L226.629 175.293C230.234 177.47 234.152 179.181 238.299 180.343V189.683C238.299 193.657 241.521 196.879 245.496 196.879H256.769C260.744 196.879 263.966 193.657 263.966 189.683V180.343C268.113 179.181 272.031 177.47 275.636 175.293L281.932 181.589C284.742 184.399 289.299 184.399 292.109 181.589L300.081 173.617C302.891 170.807 302.891 166.25 300.081 163.44L293.228 156.587C294.733 153.707 295.951 150.654 296.844 147.464H306.274C310.248 147.464 313.47 144.242 313.47 140.268V128.994C313.47 125.02 310.248 121.798 306.274 121.798H296.844C295.89 118.393 294.566 115.142 292.918 112.093L300.081 104.93C302.891 102.119 302.891 97.5628 300.081 94.7524L292.109 86.7809C289.299 83.9704 284.742 83.9704 281.932 86.7809L275.076 93.6366C271.627 91.6175 267.9 90.0213 263.966 88.9193V78.5076C263.966 74.533 260.744 71.311 256.769 71.311H245.496ZM250.879 154.319C262.048 154.319 271.102 145.264 271.102 134.095C271.102 122.926 262.048 113.872 250.879 113.872C239.71 113.872 230.655 122.926 230.655 134.095C230.655 145.264 239.71 154.319 250.879 154.319Z" fill="white"/>
<path fill-rule="evenodd" clip-rule="evenodd" d="M339.008 123.589C337.045 123.589 335.455 125.18 335.455 127.142V132.282C333.513 132.826 331.673 133.614 329.97 134.611L326.585 131.227C325.198 129.839 322.948 129.839 321.561 131.227L317.625 135.162C316.238 136.549 316.238 138.799 317.625 140.186L321.162 143.723C320.348 145.228 319.694 146.833 319.223 148.514H314.317C312.355 148.514 310.765 150.104 310.765 152.067V157.632C310.765 159.594 312.355 161.185 314.317 161.185H319.223C319.664 162.759 320.266 164.267 321.009 165.688L317.625 169.072C316.238 170.459 316.238 172.709 317.625 174.096L321.561 178.031C322.948 179.419 325.198 179.419 326.585 178.031L329.693 174.923C331.473 175.998 333.407 176.843 335.455 177.416V182.027C335.455 183.989 337.045 185.58 339.008 185.58H344.573C346.535 185.58 348.126 183.989 348.126 182.027V177.416C350.173 176.843 352.107 175.998 353.887 174.923L356.995 178.031C358.383 179.419 360.632 179.419 362.02 178.031L365.955 174.096C367.343 172.709 367.343 170.459 365.955 169.072L362.572 165.688C363.315 164.267 363.916 162.759 364.357 161.185H369.012C370.975 161.185 372.565 159.594 372.565 157.632V152.067C372.565 150.104 370.975 148.514 369.012 148.514H364.357C363.886 146.833 363.233 145.228 362.419 143.723L365.955 140.186C367.343 138.799 367.343 136.549 365.955 135.162L362.02 131.227C360.632 129.839 358.383 129.839 356.995 131.227L353.611 134.611C351.908 133.614 350.068 132.826 348.126 132.282V127.142C348.126 125.18 346.535 123.589 344.573 123.589H339.008ZM341.665 164.569C347.179 164.569 351.649 160.099 351.649 154.585C351.649 149.071 347.179 144.601 341.665 144.601C336.151 144.601 331.681 149.071 331.681 154.585C331.681 160.099 336.151 164.569 341.665 164.569Z" fill="white"/>
<path fill-rule="evenodd" clip-rule="evenodd" d="M338.552 54.0875C336.378 53.6784 334.284 55.1092 333.875 57.2832L332.803 62.978C330.538 63.176 328.335 63.6654 326.241 64.4148L323.197 59.9594C321.949 58.1329 319.456 57.664 317.63 58.9119L312.449 62.4517C310.623 63.6997 310.154 66.1921 311.402 68.0185L314.582 72.6736C313.367 74.1719 312.308 75.8135 311.436 77.5778L306.001 76.5551C303.827 76.1461 301.733 77.5768 301.324 79.7508L300.163 85.9171C299.754 88.091 301.185 90.185 303.359 90.594L308.794 91.6167C308.955 93.453 309.307 95.2485 309.834 96.9785L305.38 100.022C303.554 101.27 303.085 103.762 304.333 105.589L307.872 110.769C309.12 112.596 311.613 113.065 313.439 111.817L317.531 109.021C319.279 110.583 321.245 111.922 323.394 112.984L322.433 118.093C322.024 120.267 323.455 122.361 325.629 122.77L331.795 123.93C333.969 124.339 336.063 122.908 336.472 120.734L337.433 115.626C339.821 115.417 342.14 114.884 344.336 114.064L347.132 118.156C348.38 119.983 350.872 120.452 352.699 119.204L357.879 115.664C359.706 114.416 360.175 111.923 358.927 110.097L355.883 105.643C357.003 104.223 357.984 102.678 358.8 101.026L363.958 101.996C366.132 102.405 368.226 100.975 368.635 98.8006L369.795 92.6344C370.204 90.4604 368.774 88.3664 366.6 87.9574L361.442 86.9869C361.271 85.0262 360.881 83.1121 360.293 81.2745L364.948 78.0938C366.775 76.8458 367.244 74.3534 365.996 72.527L362.456 67.3464C361.208 65.5199 358.716 65.0509 356.889 66.2989L352.434 69.3432C350.755 67.8838 348.88 66.6272 346.842 65.6196L347.914 59.9247C348.323 57.7507 346.892 55.6568 344.718 55.2477L338.552 54.0875ZM331.217 109.27C342.422 111.378 353.214 104.004 355.322 92.7997C357.43 81.5953 350.056 70.8033 338.852 68.6951C327.647 66.5869 316.855 73.9608 314.747 85.1652C312.639 96.3696 320.013 107.162 331.217 109.27Z" fill="white"/>
<path opacity="0.5" fill-rule="evenodd" clip-rule="evenodd" d="M341.526 242.957C324.668 244.807 301.396 245.951 275.694 245.951C258.827 245.951 243.006 245.458 229.358 244.597C209.383 247.635 168.671 249.716 121.697 249.716C54.9894 249.716 0.912598 245.52 0.912598 240.344C0.912598 235.167 54.9894 230.971 121.697 230.971C145.863 230.971 168.372 231.521 187.253 232.47C199.571 228.397 234.513 225.459 275.694 225.459C316.023 225.459 350.368 228.277 363.342 232.219C375.16 231.325 389.477 230.802 404.905 230.802C445.46 230.802 478.337 234.417 478.337 238.876C478.337 243.335 445.46 246.95 404.905 246.95C377.888 246.95 354.278 245.346 341.526 242.957Z" fill="#161C3D"/>
<path d="M37.9908 131.817C35.8216 133.255 32.8962 134.246 30.8676 134.816C32.762 138.762 35.5982 142.935 39.6283 147.316L40.271 150.723L45.9194 146.494C45.9188 146.497 38.9552 140.697 37.9908 131.817Z" fill="url(#paint0_linear)"/>
<path d="M32.8507 150.766L28.8449 153.482C21.9736 158.143 18.9486 165.675 22.0902 170.308L25.8244 175.817C28.9659 180.45 37.0835 180.428 43.9565 175.771L47.9623 173.054C48.2283 172.875 48.4887 172.69 48.7457 172.499L163.996 86.8699L155.86 74.8693L33.6567 150.244C33.3867 150.411 33.1167 150.587 32.8507 150.766ZM36.9463 156.129C42.1209 152.622 48.0038 152.27 50.0894 155.343C52.1745 158.418 49.6701 163.754 44.4956 167.261C39.3211 170.769 33.4382 171.12 31.3525 168.047C29.2696 164.973 31.7741 159.637 36.9463 156.129Z" fill="#75758F"/>
<path d="M192.329 41.3086L169.093 57.0638C167.439 58.1847 166.399 60.011 166.276 62.0077L165.657 72.2366C165.48 75.1569 167.291 77.8284 170.069 78.7455L179.799 81.9551C181.698 82.5815 183.778 82.2911 185.435 81.1685L208.671 65.4133C212.175 63.037 216.917 65.8735 216.38 70.0754C215.095 80.1231 209.528 89.7231 200.283 95.9925C183.572 107.323 163.24 102.088 152.343 86.0142C141.445 69.9405 144.105 49.116 160.815 37.7855C170.061 31.5161 181.039 29.8992 190.851 32.4248C194.952 33.4767 195.833 38.9322 192.329 41.3086Z" fill="#75758F"/>
<path d="M193.813 43.4973L170.577 59.2525C168.923 60.3734 167.883 62.1998 167.76 64.1964L167.141 74.4254C166.964 77.3456 168.775 80.0171 171.553 80.9342L181.283 84.1438C183.182 84.7702 185.262 84.4798 186.919 83.3572L210.155 67.6021C213.659 65.2257 218.401 68.0623 217.864 72.2641C216.579 82.3118 211.012 91.9118 201.767 98.1813C185.056 109.512 164.724 104.277 153.827 88.203C142.929 72.1293 145.589 51.3047 162.299 39.9743C171.547 33.7053 182.525 32.0863 192.335 34.6113C196.438 35.6682 197.319 41.1215 193.813 43.4973Z" fill="#ADADC8"/>
<path d="M34.0344 152.513L30.0285 155.229C23.1573 159.889 20.1323 167.421 23.2738 172.055L27.008 177.563C30.1496 182.197 38.2672 182.175 45.1401 177.517L49.1482 174.802C49.4142 174.622 49.6746 174.437 49.9316 174.246L165.181 88.6195L157.045 76.6189L34.8426 151.991C34.5698 152.16 34.3004 152.333 34.0344 152.513ZM38.1322 157.877C43.3067 154.369 49.1896 154.018 51.2753 157.09C53.3604 160.166 50.856 165.501 45.6815 169.009C40.507 172.516 34.624 172.868 32.5384 169.795C30.4533 166.719 32.9577 161.384 38.1322 157.877Z" fill="#ADADC8"/>
<path d="M43.6043 241.19C43.6207 241.094 43.6257 240.996 43.6165 240.896C42.9698 234.943 36.2756 230.355 36.2756 230.355L33.3922 230.181C31.0434 235.018 30.8189 238.155 30.8867 239.578C30.8896 239.619 30.8958 239.658 30.8992 239.696C33.2212 240.233 38.0464 241.048 43.6043 241.19Z" fill="url(#paint1_linear)"/>
<path d="M30.8963 239.693C30.9598 240.172 31.2508 240.581 31.6735 240.733C34.9224 241.905 40.3214 242.083 42.5964 242.106C43.098 242.109 43.5232 241.704 43.6035 241.193C38.046 241.048 33.2207 240.233 30.8963 239.693Z" fill="url(#paint2_linear)"/>
<path d="M32.8369 225.77L33.2296 231.754C33.2581 232.194 33.5408 232.558 33.9313 232.651C34.4116 232.764 35.0968 232.886 35.8081 232.884C36.4442 232.88 36.9657 232.306 36.9524 231.614L36.8356 226.333L32.8365 225.773L32.8369 225.77Z" fill="url(#paint3_linear)"/>
<path d="M68.0169 242.811C64.8784 242.282 63.3022 241.684 62.5079 241.221C62.4612 241.534 62.4194 241.853 62.3846 242.185C62.3465 242.54 62.5689 242.858 62.891 242.9L80.2035 245.211C80.7561 245.285 81.1674 244.69 80.9992 244.15C78.7016 244.02 72.865 243.629 68.0169 242.811Z" fill="url(#paint4_linear)"/>
<path d="M81.1111 244.165C81.0972 244.119 81.0836 244.071 81.0611 244.024C79.8315 241.676 76.5356 236.881 69.1088 233.961L65.4363 233.328C65.4363 233.328 63.3943 235.953 62.623 241.234C63.4173 241.696 64.9936 242.294 68.1321 242.824C72.9826 243.645 78.8192 244.035 81.1111 244.165Z" fill="url(#paint5_linear)"/>
<path d="M65.5355 227.645C65.5367 227.927 65.4588 232.173 65.428 233.823C65.4198 234.214 65.6569 234.552 66.0038 234.644C66.6225 234.806 67.6291 235.016 68.5426 234.958C69.0348 234.926 69.4462 234.516 69.5215 233.978L70.4396 227.42L65.5355 227.645Z" fill="url(#paint6_linear)"/>
<path d="M64.1609 151.298C64.1609 151.298 75.6692 183.517 71.5498 227.229C71.4386 228.003 70.8009 228.599 70.0186 228.652C68.8669 228.731 67.1827 228.78 65.8274 228.553C65.1044 228.431 64.5706 227.808 64.5486 227.073C64.326 219.584 55.2303 177.083 52.088 169.823C52.088 169.823 39.5114 208.07 37.7055 227.229C37.6593 227.705 37.2571 228.069 36.777 228.057C36.0511 228.04 34.9009 227.943 33.468 227.585C32.9242 227.448 32.5383 226.97 32.5355 226.41C32.5142 220.095 31.3834 189.579 35.3184 163.068C35.5394 161.573 42.0394 144.823 42.0394 144.823L61.0413 151.298L64.1609 151.298Z" fill="url(#paint7_linear)"/>
<path d="M85.2828 112.209C84.2865 110.095 83.4934 107.895 82.9211 105.686C82.1199 102.599 73.7706 99.0309 74.1072 95.8409C64.4054 92.372 59.5819 92.9833 49.876 93.2084C47.7253 93.2598 45.5971 93.553 43.8517 94.8111C36.9383 99.8036 20.9555 114.175 30.8667 134.819C32.8953 134.248 35.8243 133.256 37.99 131.82C37.4766 127.081 38.6716 121.466 43.5444 115.387C43.5277 115.956 43.5375 116.526 43.5772 117.094C44.695 132.342 42.1372 144.207 41.4811 146.925C41.3908 147.294 41.5357 147.679 41.8444 147.897C47.1796 151.658 58.8587 152.94 62.8022 153.275C63.5259 153.337 64.1502 152.797 64.218 152.074C65.5598 138.088 80.4319 118.084 84.2879 113.105C84.5672 112.749 84.9044 112.448 85.2828 112.209Z" fill="#F52079"/>
<path d="M63.1522 82.5937L59.5562 93.0806C59.3839 93.5832 59.6206 94.1297 60.0995 94.3524C61.9484 95.213 66.5678 96.9458 70.8701 95.2185L70.031 83.8784L63.1522 82.5937Z" fill="url(#paint8_linear)"/>
<path d="M73.863 71.1616C73.9844 71.3469 77.4455 85.5946 77.4455 85.5946L69.2675 87.3987L63.979 74.3809C63.9818 74.3815 71.8179 68.0629 73.863 71.1616Z" fill="url(#paint9_linear)"/>
<path d="M67.1551 75.4611C66.9435 75.7684 66.8876 76.1538 66.9979 76.5108L69.2124 83.4806C69.2465 83.5861 69.2937 83.6859 69.3548 83.7772C69.695 84.2861 70.9059 85.8195 72.4385 84.4873C73.7442 83.3525 74.962 82.3267 76.0712 82.0461C76.7182 81.8834 77.3722 82.2894 77.528 82.9407C77.849 84.278 78.4372 86.9931 78.6253 89.4774C78.6727 90.1 78.2263 90.6499 77.6098 90.746C75.9823 90.9953 72.7846 91.3894 70.0962 91.1303C69.6544 91.0877 69.2717 90.8079 69.1001 90.398C68.3425 88.5969 66.1997 83.5552 65.3747 82.2255C64.6102 80.9898 62.6694 80.9286 61.7796 80.9688C61.4418 80.9862 61.114 80.8612 60.8747 80.6243C60.1508 79.9152 58.9751 78.2956 60.8342 76.4707C61.2964 76.0161 61.2942 75.2654 60.8478 74.7933C60.0497 73.9484 59.3025 72.5397 60.7259 70.8833C62.1658 69.2072 63.9715 69.452 65.1389 69.8852C65.6551 70.0755 66.2604 69.9265 66.5825 69.4771C66.7244 69.2774 66.9506 69.1331 67.2993 69.1449C67.959 69.1654 68.5094 68.6874 68.5355 68.029C68.5795 66.8963 69.0716 65.5302 71.0246 64.9918C74.6026 64.0026 76.7047 67.4958 76.8421 70.0567C76.9795 72.6176 73.038 73.4705 70.745 73.2253C69.055 73.0404 67.7373 74.6126 67.1551 75.4611Z" fill="#4048FF"/>
<path d="M66.2153 84.7848C66.2153 84.7848 65.7849 80.332 63.9453 80.0556C62.1085 79.7797 60.2623 81.2385 62.0183 83.7872C64.2029 86.9573 66.2153 84.7848 66.2153 84.7848Z" fill="url(#paint10_linear)"/>
<path d="M43.2036 114.184C42.3703 107.12 45.0921 99.4736 45.119 99.3973L45.7555 99.6279C45.7286 99.7042 43.0593 107.203 43.8753 114.104L43.2036 114.184Z" fill="#AC0048"/>
<path d="M49.7117 170.047C49.5647 170.074 49.4109 170 49.3438 169.858C48.0931 167.165 42.0368 165.067 41.9774 165.046C41.7996 164.985 41.7058 164.792 41.7672 164.617C41.8281 164.439 42.0184 164.346 42.1962 164.407C42.4552 164.497 48.5866 166.622 49.9577 169.573C50.0356 169.742 49.9614 169.943 49.795 170.023C49.7677 170.034 49.74 170.042 49.7117 170.047Z" fill="url(#paint11_linear)"/>
<path d="M111.161 118.922C98.4271 117.853 92.2534 108.196 87.3954 102.074C80.9845 93.9915 70.865 95.3207 70.865 95.3207L78.7386 113.6C88.4897 128.414 101.985 128.836 111.01 126.923C111.871 123.854 111.657 121.065 111.161 118.922Z" fill="#F52079"/>
<path d="M130.644 112.637L125.582 116.911C119.985 118.73 115.239 119.265 111.161 118.922C111.658 121.063 111.871 123.854 111.01 126.923C116.754 125.706 120.69 123.543 120.69 123.543C131.232 120.226 130.644 112.637 130.644 112.637Z" fill="url(#paint12_linear)"/>
<path d="M417.986 85.0403C417.986 85.0403 417.216 86.5627 422.229 88.9434C425.024 90.2687 430.463 92.2309 431.181 97.9598C431.552 100.917 433.764 103.285 436.743 103.737C444.165 104.862 455.599 108.671 457.431 121.406C458.827 131.126 453.814 134.814 448.552 136.091C444.686 137.028 442.119 140.743 442.901 144.6C443.649 148.3 442.533 152.577 436.05 155.958C421.523 163.537 407.015 138.007 407.015 138.007L404.042 93.4319L417.986 85.0403Z" fill="url(#paint13_linear)"/>
<path d="M446.751 130.395C446.579 130.395 446.426 130.337 446.325 130.198C446.3 130.164 446.306 130.116 446.343 130.091C446.377 130.067 446.426 130.073 446.451 130.11C446.65 130.383 447.116 130.189 447.359 130.031C450.709 127.875 452.494 123.419 451.7 119.198C451.224 116.672 449.96 114.491 448.135 113.063C446.837 112.047 445.288 111.422 443.815 110.873C441.318 109.939 438.741 109.117 436.161 108.429C435.949 108.371 435.734 108.316 435.522 108.259C434.004 107.858 432.436 107.446 431.009 106.742C429.169 105.829 427.822 104.501 427.224 103C426.852 102.069 426.745 101.047 426.644 100.058C426.521 98.8723 426.395 97.6441 425.8 96.6069C425.779 96.5705 425.791 96.525 425.831 96.5037C425.868 96.4825 425.914 96.4946 425.935 96.5341C426.546 97.5986 426.674 98.845 426.797 100.046C426.898 101.026 427.003 102.035 427.368 102.948C427.954 104.416 429.27 105.717 431.077 106.612C432.488 107.309 434.05 107.722 435.559 108.119C435.774 108.174 435.986 108.231 436.197 108.289C438.784 108.98 441.364 109.805 443.867 110.739C445.352 111.294 446.914 111.922 448.23 112.953C450.083 114.406 451.372 116.617 451.853 119.18C452.657 123.459 450.844 127.978 447.445 130.167C447.224 130.298 446.972 130.395 446.751 130.395Z" fill="#BDD0FB"/>
<path d="M447.623 126.373C447.607 126.373 447.592 126.37 447.58 126.361C447.543 126.337 447.534 126.291 447.558 126.255C448.853 124.341 449.525 122.337 449.506 120.459C449.485 118.27 448.457 116.235 446.828 115.149C446.791 115.125 446.782 115.079 446.807 115.043C446.831 115.009 446.877 114.997 446.914 115.022C448.586 116.135 449.638 118.218 449.66 120.456C449.678 122.367 448.997 124.402 447.687 126.34C447.672 126.361 447.647 126.373 447.623 126.373Z" fill="#BDD0FB"/>
<path d="M374.911 83.5304L374.911 81.9349L371.593 73.4219C371.25 72.1643 370.331 71.1506 369.116 70.6816L361.488 67.7413C361.488 67.7413 370.602 80.8974 371.077 82.2489C371.554 83.5984 373.472 85.6198 373.472 85.6198L374.911 83.5304Z" fill="url(#paint14_linear)"/>
<path d="M374.949 81.8592C374.949 81.8592 378.444 96.2938 406.097 107.04C406.097 107.04 404.6 115.2 401.691 115.743C401.691 115.743 372.669 100.414 370.847 81.8591L374.949 81.8592Z" fill="url(#paint15_linear)"/>
<path d="M446.63 231.322L447.124 235.341C447.639 237.251 450.124 242.061 453.318 241.749C455.281 241.555 455.518 235.884 455.244 235.034C454.744 233.485 453.833 231.155 452.517 229.785H448.007C447.176 229.785 446.528 230.503 446.63 231.322Z" fill="#F52079"/>
<path d="M411.571 184.575L410.81 188.999C410.81 188.999 413.359 214.52 413.813 224.728C413.884 226.33 413.467 227.91 412.617 229.274L408.184 236.389L419.446 229.82L419.67 228.462L417.826 225.957L420.241 197.367C420.382 195.687 420.032 194.004 419.231 192.514L416.903 188.187L411.571 184.575Z" fill="url(#paint16_linear)"/>
<path d="M407.152 236.623H410.748C411.42 236.623 412.055 236.317 412.466 235.792C413.586 234.351 415.908 231.543 417.019 231.47C418.513 231.37 418.323 236.623 418.323 236.623H419.16L420.222 230.096C420.489 228.456 419.663 226.827 418.172 226.06C418.172 226.06 417.832 228.556 415.979 229.663C414.126 230.767 408.441 234.724 408.441 234.724C408.441 234.724 407.744 234.627 406.98 234.764C405.839 234.964 405.999 236.623 407.152 236.623Z" fill="#F52079"/>
<path d="M427 186.677C427 186.677 441.931 214.675 444.306 221.068C446.681 227.461 447.512 232.793 447.543 233.299C447.592 234.088 448.586 234.846 451.322 234.846C452.734 234.846 453.427 234.285 453.764 233.745C454.053 233.284 454.068 232.705 453.826 232.217C452.961 230.488 450.221 224.965 449.205 222.463C447.994 219.473 445.386 205.923 443.956 201.21C442.527 196.497 440.91 191.387 434.685 186.68C434.682 186.677 430.408 182.537 427 186.677Z" fill="url(#paint17_linear)"/>
<path d="M417.566 140.797C415.378 131.638 417.578 124.736 419.888 120.481C421.732 117.087 420.434 112.89 416.98 111.113C411.577 108.335 406.098 107.037 406.098 107.037C406.098 107.037 395.394 114.773 396.664 120.827C397.409 124.375 404.186 142.083 404.186 142.083C404.186 142.083 410.454 145.019 417.566 140.797Z" fill="#F52079"/>
<path d="M426.104 148.785C424.536 144.118 417.562 140.797 417.562 140.797C410.454 145.018 404.183 142.086 404.183 142.086C404.183 142.086 402.778 147.399 403.747 152.333C404.717 157.271 410.807 188.996 410.807 188.996C420.4 190.919 435.154 187.065 435.154 187.065C429.046 176.344 427.671 153.453 426.104 148.785Z" fill="url(#paint18_linear)"/>
<path d="M413.095 96.3766L416.228 110.282C416.528 111.507 415.399 111.307 414.145 111.073C412.092 110.691 409.451 109.903 408.564 108.326C408.475 108.165 408.429 107.983 408.405 107.801L407.058 98.1599C406.95 97.3956 407.371 96.6526 408.082 96.3402L410.678 95.2029C411.681 94.7632 412.838 95.3273 413.095 96.3766Z" fill="url(#paint19_linear)"/>
<path d="M409.42 83.1379C409.42 83.1379 405.711 84.6846 403.189 89.9829C400.667 95.2811 402.551 97.7255 404.916 98.0621C407.282 98.3988 410.819 98.3472 414.562 94.9232C418.302 91.5023 414.243 81.3031 409.42 83.1379Z" fill="url(#paint20_linear)"/>
<path d="M412.046 92.0967C412.046 92.0967 414.844 84.345 407.892 84.254L406.257 85.3852C406.257 85.3852 403.707 81.0878 407.892 79.0377C412.08 76.9875 416.979 78.6798 418.759 84.257C420.541 89.8312 420.845 93.5645 417.881 96.2334C414.918 98.9022 413.697 95.8755 413.697 95.8755C413.697 95.8755 415.31 93.3795 414.654 92.0451C413.997 90.7107 412.482 92.3211 412.482 92.3211L412.046 92.0967Z" fill="url(#paint21_linear)"/>
<path d="M412.826 92.9612C412.826 92.9612 414.24 88.9671 416.127 90.5593C418.014 92.1484 414.593 94.2471 413.252 94.9264L412.826 92.9612Z" fill="url(#paint22_linear)"/>
<path d="M372.443 102.979C372.443 102.979 393.639 121.213 417.203 112.96C419.249 112.797 421.047 114.294 421.207 116.319L421.292 117.414C421.523 120.344 419.104 122.817 416.134 122.668C405.493 122.134 390.752 129.266 370.087 108.221L372.443 102.979Z" fill="url(#paint23_linear)"/>
<path d="M369.997 108.199C369.997 108.199 368.414 103.592 368.015 100.711C367.617 97.8302 369.083 91.3674 370.341 89.5508C371.599 87.7342 371.811 92.1893 372.378 94.2819C372.946 96.3745 371.985 99.3648 371.985 99.3648L372.565 103.28L369.997 108.199Z" fill="url(#paint24_linear)"/>
<defs>
<linearGradient id="paint0_linear" x1="70.7522" y1="89.4439" x2="54.6822" y2="114.877" gradientUnits="userSpaceOnUse">
<stop stop-color="#FF928E"/>
<stop offset="1" stop-color="#CE8A89"/>
</linearGradient>
<linearGradient id="paint1_linear" x1="41.9527" y1="206.094" x2="40.3587" y2="217.479" gradientUnits="userSpaceOnUse">
<stop stop-color="#09005D"/>
<stop offset="1" stop-color="#1A0F91"/>
</linearGradient>
<linearGradient id="paint2_linear" x1="38.8372" y1="217.931" x2="42.1732" y2="170.61" gradientUnits="userSpaceOnUse">
<stop stop-color="#09005D"/>
<stop offset="1" stop-color="#1A0F91"/>
</linearGradient>
<linearGradient id="paint3_linear" x1="37.0019" y1="220.645" x2="31.5371" y2="241.766" gradientUnits="userSpaceOnUse">
<stop stop-color="#B5403B"/>
<stop offset="1" stop-color="#D9817E"/>
</linearGradient>
<linearGradient id="paint4_linear" x1="73.4071" y1="219.19" x2="76.743" y2="171.869" gradientUnits="userSpaceOnUse">
<stop stop-color="#09005D"/>
<stop offset="1" stop-color="#1A0F91"/>
</linearGradient>
<linearGradient id="paint5_linear" x1="76.5966" y1="208.926" x2="75.0027" y2="220.311" gradientUnits="userSpaceOnUse">
<stop stop-color="#09005D"/>
<stop offset="1" stop-color="#1A0F91"/>
</linearGradient>
<linearGradient id="paint6_linear" x1="68.9234" y1="225.437" x2="63.4586" y2="246.558" gradientUnits="userSpaceOnUse">
<stop stop-color="#BB6C69"/>
<stop offset="1" stop-color="#ED6C69"/>
</linearGradient>
<linearGradient id="paint7_linear" x1="-15.54" y1="300.302" x2="100.645" y2="102.369" gradientUnits="userSpaceOnUse">
<stop stop-color="#4042E2"/>
<stop offset="1" stop-color="#4F52FF"/>
</linearGradient>
<linearGradient id="paint8_linear" x1="70.8591" y1="81.1427" x2="52.1878" y2="118.818" gradientUnits="userSpaceOnUse">
<stop stop-color="#B76360"/>
<stop offset="1" stop-color="#CD9997"/>
</linearGradient>
<linearGradient id="paint9_linear" x1="119.957" y1="50.5277" x2="97.9494" y2="63.6247" gradientUnits="userSpaceOnUse">
<stop stop-color="#E38582"/>
<stop offset="1" stop-color="#E88D8B"/>
</linearGradient>
<linearGradient id="paint10_linear" x1="60.2905" y1="101.336" x2="63.9355" y2="82.3515" gradientUnits="userSpaceOnUse">
<stop stop-color="#BD524E"/>
<stop offset="1" stop-color="#E89290"/>
</linearGradient>
<linearGradient id="paint11_linear" x1="40.2955" y1="183.465" x2="35.8828" y2="196.326" gradientUnits="userSpaceOnUse">
<stop stop-color="#4042E2"/>
<stop offset="1" stop-color="#4F52FF"/>
</linearGradient>
<linearGradient id="paint12_linear" x1="106.888" y1="112.705" x2="154.737" y2="100.066" gradientUnits="userSpaceOnUse">
<stop stop-color="#D07E7B"/>
<stop offset="0.607737" stop-color="#E69D9B"/>
</linearGradient>
<linearGradient id="paint13_linear" x1="418.43" y1="84.3455" x2="433.448" y2="134.381" gradientUnits="userSpaceOnUse">
<stop stop-color="#09005D"/>
<stop offset="1" stop-color="#1A0F91"/>
</linearGradient>
<linearGradient id="paint14_linear" x1="366.546" y1="75.1881" x2="430.314" y2="103.653" gradientUnits="userSpaceOnUse">
<stop stop-color="#FF928E"/>
<stop offset="1" stop-color="#FEB3B1"/>
</linearGradient>
<linearGradient id="paint15_linear" x1="378.329" y1="63.6025" x2="406.336" y2="127.574" gradientUnits="userSpaceOnUse">
<stop stop-color="#FF928E"/>
<stop offset="1" stop-color="#FEB3B1"/>
</linearGradient>
<linearGradient id="paint16_linear" x1="435.428" y1="166.373" x2="427.198" y2="183.633" gradientUnits="userSpaceOnUse">
<stop stop-color="#FF928E"/>
<stop offset="1" stop-color="#FEB3B1"/>
</linearGradient>
<linearGradient id="paint17_linear" x1="461.431" y1="159.372" x2="452.407" y2="181.685" gradientUnits="userSpaceOnUse">
<stop stop-color="#FF928E"/>
<stop offset="1" stop-color="#FEB3B1"/>
</linearGradient>
<linearGradient id="paint18_linear" x1="419.28" y1="140.797" x2="419.28" y2="189.534" gradientUnits="userSpaceOnUse">
<stop stop-color="#4048FF"/>
<stop offset="1" stop-color="#F52079"/>
</linearGradient>
<linearGradient id="paint19_linear" x1="408.772" y1="125.124" x2="411.07" y2="108.121" gradientUnits="userSpaceOnUse">
<stop stop-color="#FF928E"/>
<stop offset="1" stop-color="#FEB3B1"/>
</linearGradient>
<linearGradient id="paint20_linear" x1="402.841" y1="103.211" x2="422.988" y2="66.9396" gradientUnits="userSpaceOnUse">
<stop stop-color="#FF928E"/>
<stop offset="1" stop-color="#FEB3B1"/>
</linearGradient>
<linearGradient id="paint21_linear" x1="412.812" y1="86.0308" x2="427.831" y2="136.067" gradientUnits="userSpaceOnUse">
<stop stop-color="#09005D"/>
<stop offset="1" stop-color="#1A0F91"/>
</linearGradient>
<linearGradient id="paint22_linear" x1="407.206" y1="105.635" x2="427.352" y2="69.3643" gradientUnits="userSpaceOnUse">
<stop stop-color="#FF928E"/>
<stop offset="1" stop-color="#FEB3B1"/>
</linearGradient>
<linearGradient id="paint23_linear" x1="399.509" y1="80.0123" x2="397.2" y2="95.0033" gradientUnits="userSpaceOnUse">
<stop stop-color="#FF928E"/>
<stop offset="1" stop-color="#FEB3B1"/>
</linearGradient>
<linearGradient id="paint24_linear" x1="381.686" y1="67.6266" x2="377.278" y2="80.1941" gradientUnits="userSpaceOnUse">
<stop stop-color="#FF928E"/>
<stop offset="1" stop-color="#FEB3B1"/>
</linearGradient>
</defs>
</svg>
