<svg width="72" height="73" viewBox="0 0 72 73" fill="none" xmlns="http://www.w3.org/2000/svg">
<g clip-path="url(#clip0)">
<path d="M35.7451 0.0976562C16.1389 0.0976562 0.245117 16.2153 0.245117 36.0977C0.245117 55.9801 16.1389 72.0977 35.7451 72.0977C55.3514 72.0977 71.2451 55.9801 71.2451 36.0977C71.2451 16.2153 55.3514 0.0976562 35.7451 0.0976562Z" fill="#40B3E0"/>
<path d="M53.0188 20.8053L46.6779 53.2247C46.6779 53.2247 45.7912 55.473 43.3526 54.3938L28.7205 43.0178L23.3999 40.4101L14.4434 37.3523C14.4434 37.3523 13.0688 36.8579 12.9357 35.7787C12.8026 34.6996 14.4877 34.1151 14.4877 34.1151L50.092 19.9514C50.092 19.9514 53.0185 18.6475 53.0185 20.8058" fill="white"/>
<path d="M27.5961 52.8603C27.5961 52.8603 27.169 52.8198 26.6365 51.111C26.1048 49.4024 23.3999 40.4097 23.3999 40.4097L44.9046 26.5609C44.9046 26.5609 46.1462 25.7965 46.1019 26.5609C46.1019 26.5609 46.3235 26.6959 45.6581 27.3254C44.9933 27.9551 28.7651 42.748 28.7651 42.748" fill="#D2E5F1"/>
<path d="M34.3309 47.3807L28.5436 52.7318C28.5436 52.7318 28.091 53.08 27.5962 52.8617L28.7045 42.9224" fill="#B5CFE4"/>
</g>
<defs>
<clipPath id="clip0">
<rect width="71" height="72" fill="white" transform="translate(0.245117 0.0976562)"/>
</clipPath>
</defs>
</svg>
