<svg width="40" height="40" viewBox="0 0 40 40" fill="none" xmlns="http://www.w3.org/2000/svg">
<path d="M13.3329 17.9321H12.3662C11.047 17.8844 9.73215 18.1083 8.50314 18.59C7.27413 19.0717 6.15723 19.8008 5.22174 20.7321L4.95508 21.0432V30.2432H9.48841V25.021L10.0995 24.3321L10.3773 24.0098C11.8239 22.5237 13.6248 21.4302 15.6106 20.8321C14.6164 20.0755 13.8323 19.0772 13.3329 17.9321V17.9321Z" fill="#323754"/>
<path d="M34.8219 20.7008C33.8864 19.7695 32.7695 19.0404 31.5405 18.5587C30.3115 18.0771 28.9966 17.8531 27.6775 17.9008C27.2729 17.902 26.8686 17.9242 26.4664 17.9675C25.9576 19.0418 25.1949 19.9761 24.2441 20.6897C26.3641 21.2762 28.2846 22.4285 29.7997 24.023L30.0775 24.3341L30.6775 25.023V30.2564H35.0552V21.0119L34.8219 20.7008Z" fill="#323754"/>
<path d="M12.3338 15.7671H12.6783C12.5182 14.3929 12.7594 13.0018 13.3725 11.7616C13.9857 10.5215 14.9447 9.48532 16.1338 8.77821C15.7028 8.11971 15.1081 7.58444 14.4081 7.22482C13.708 6.8652 12.9265 6.69355 12.1402 6.72669C11.3539 6.75982 10.5896 6.99661 9.92231 7.41385C9.25498 7.8311 8.70746 8.4145 8.33335 9.10693C7.95924 9.79936 7.77137 10.5771 7.78814 11.3639C7.80491 12.1508 8.02575 12.9198 8.42902 13.5957C8.83229 14.2715 9.40417 14.8311 10.0887 15.2195C10.7732 15.6079 11.5468 15.8119 12.3338 15.8115V15.7671Z" fill="#323754"/>
<path d="M20.1231 22.5568C18.672 22.4982 17.2241 22.7338 15.8665 23.2494C14.5088 23.7649 13.2695 24.5498 12.2231 25.5568L11.9453 25.8679V32.9013C11.9496 33.1304 11.9991 33.3564 12.0908 33.5664C12.1825 33.7764 12.3146 33.9662 12.4797 34.1251C12.6448 34.284 12.8396 34.4088 13.0529 34.4924C13.2663 34.5761 13.494 34.6168 13.7231 34.6124H26.4898C26.7189 34.6168 26.9466 34.5761 27.1599 34.4924C27.3733 34.4088 27.568 34.284 27.7331 34.1251C27.8982 33.9662 28.0304 33.7764 28.1221 33.5664C28.2138 33.3564 28.2632 33.1304 28.2675 32.9013V25.8902L28.0009 25.5568C26.9612 24.5467 25.7262 23.7596 24.3716 23.2438C23.017 22.7279 21.5713 22.4941 20.1231 22.5568V22.5568Z" fill="#323754"/>
<path d="M19.8539 19.9128C20.785 19.9074 21.6958 19.6398 22.4819 19.1407C23.2679 18.6415 23.8975 17.931 24.2983 17.0905C23.6143 17.0327 22.956 16.8031 22.3844 16.423C21.8128 16.043 21.3464 15.5248 21.0283 14.9164C20.7103 14.3081 20.551 13.6294 20.5652 12.9431C20.5794 12.2568 20.7666 11.5852 21.1094 10.9905L21.4983 10.3128C20.972 10.1157 20.4158 10.0105 19.8539 10.0016C19.1826 9.96987 18.5119 10.0746 17.8823 10.3096C17.2527 10.5446 16.6774 10.9049 16.1911 11.3687C15.7048 11.8325 15.3177 12.3902 15.0532 13.008C14.7887 13.6257 14.6523 14.2908 14.6523 14.9628C14.6523 15.6348 14.7887 16.2998 15.0532 16.9176C15.3177 17.5353 15.7048 18.093 16.1911 18.5568C16.6774 19.0206 17.2527 19.3809 17.8823 19.6159C18.5119 19.8509 19.1826 19.9556 19.8539 19.9239V19.9128Z" fill="#323754"/>
<path d="M28.3013 4.98652L23.4182 13.404C23.3046 13.5707 23.2394 13.7657 23.2298 13.9672C23.2202 14.1688 23.2665 14.3691 23.3638 14.5459C23.461 14.7227 23.6053 14.8691 23.7807 14.9689C23.956 15.0687 24.1556 15.118 24.3573 15.1114H34.1321C34.3338 15.118 34.5333 15.0687 34.7087 14.9689C34.884 14.8691 35.0283 14.7227 35.1256 14.5459C35.2228 14.3691 35.2692 14.1688 35.2596 13.9672C35.25 13.7657 35.1848 13.5707 35.0712 13.404L30.188 4.98652C30.0917 4.8218 29.954 4.68517 29.7885 4.59022C29.623 4.49527 29.4355 4.44531 29.2447 4.44531C29.0539 4.44531 28.8664 4.49527 28.7009 4.59022C28.5354 4.68517 28.3976 4.8218 28.3013 4.98652V4.98652Z" fill="#323754"/>
</svg>
