<svg width="15" height="15" viewBox="0 0 15 15" fill="none" xmlns="http://www.w3.org/2000/svg">
<path d="M1.98698 14.9219C1.98698 14.9219 0.820312 14.9219 0.820312 13.7552C0.820312 12.5885 1.98698 9.08854 7.82031 9.08854C13.6536 9.08854 14.8203 12.5885 14.8203 13.7552C14.8203 14.9219 13.6536 14.9219 13.6536 14.9219H1.98698ZM7.82031 7.92188C8.74857 7.92188 9.63881 7.55313 10.2952 6.89675C10.9516 6.24037 11.3203 5.35013 11.3203 4.42188C11.3203 3.49362 10.9516 2.60338 10.2952 1.947C9.63881 1.29062 8.74857 0.921875 7.82031 0.921875C6.89205 0.921875 6.00182 1.29062 5.34544 1.947C4.68906 2.60338 4.32031 3.49362 4.32031 4.42188C4.32031 5.35013 4.68906 6.24037 5.34544 6.89675C6.00182 7.55313 6.89205 7.92187 7.82031 7.92188Z" fill="#323754"/>
</svg>
