<svg width="53" height="32" viewBox="0 0 53 32" fill="none" xmlns="http://www.w3.org/2000/svg">
<rect width="52.1636" height="31.1426" rx="10" fill="#F6F6FF"/>
<path d="M12.8232 10.3359L15.5625 18.0703L18.2871 10.3359H21.1729V21H18.9683V18.085L19.188 13.0532L16.3096 21H14.8008L11.9297 13.0605L12.1494 18.085V21H9.95215V10.3359H12.8232ZM29.2441 18.8027H25.3916L24.6592 21H22.3228L26.2925 10.3359H28.3286L32.3203 21H29.9839L29.2441 18.8027ZM25.9849 17.0229H28.6509L27.3105 13.0312L25.9849 17.0229ZM37.1323 14.0127L39.1318 10.3359H41.6587L38.5532 15.624L41.7393 21H39.1831L37.1323 17.2646L35.0815 21H32.5254L35.7114 15.624L32.606 10.3359H35.1328L37.1323 14.0127Z" fill="#ADADC8"/>
</svg>
