<svg width="18" height="16" viewBox="0 0 18 16" fill="none" xmlns="http://www.w3.org/2000/svg">
<path d="M13.6787 1.875V2.87109C15.3266 2.87109 16.667 4.21154 16.667 5.85938H17.6631C17.6631 3.66242 15.8757 1.875 13.6787 1.875Z" fill="#323754"/>
<path d="M14.6748 5.85938H15.6709C15.6709 4.76065 14.7774 3.86719 13.6787 3.86719V4.86328C14.2278 4.86328 14.6748 5.31026 14.6748 5.85938Z" fill="#323754"/>
<path d="M13.6787 11.8359V12.832C15.8757 12.832 17.6631 11.0446 17.6631 8.84766H16.667C16.667 10.4955 15.3266 11.8359 13.6787 11.8359Z" fill="#323754"/>
<path d="M13.6787 10.8398C14.7774 10.8398 15.6709 9.94638 15.6709 8.84766H14.6748C14.6748 9.39677 14.2278 9.84375 13.6787 9.84375V10.8398Z" fill="#323754"/>
<path d="M3.73667 11.7773C3.6851 12.0376 3.65137 12.3015 3.65137 12.5687V15.8202H6.63965V14.8241H5.64355V13.828H6.1416C6.9655 13.828 7.63574 13.1577 7.63574 12.3338V11.8358H6.63965V12.3338C6.63965 12.6086 6.41639 12.8319 6.1416 12.8319H5.64355V12.7463C5.64355 12.4345 5.70734 12.1293 5.80515 11.8358H4.34445C4.1372 11.8358 3.93764 11.8035 3.73667 11.7773Z" fill="#323754"/>
<path d="M0.666559 7.5106C0.747774 9.34617 2.39757 10.8398 4.3445 10.8398H4.64751V3.86719H4.14947C2.16532 3.86719 0.578803 5.51685 0.666559 7.5106Z" fill="#323754"/>
<path d="M11.6865 13.8281H12.6826V0.878906H11.6865C11.6865 2.52674 10.3129 3.86718 8.66503 3.86718H5.64355V10.8398H8.66503C10.3129 10.8398 11.6865 12.1802 11.6865 13.8281Z" fill="#323754"/>
<path d="M13.6787 8.75597C14.2572 8.54968 14.6748 8.00203 14.6748 7.35357C14.6748 6.70512 14.2572 6.15746 13.6787 5.95117V8.75597Z" fill="#323754"/>
</svg>
