<svg width="61" height="61" viewBox="0 0 61 61" fill="none" xmlns="http://www.w3.org/2000/svg">
<path fill-rule="evenodd" clip-rule="evenodd" d="M0.732422 30.3398C0.732422 13.7713 14.1639 0.339844 30.7324 0.339844C47.301 0.339844 60.7324 13.7713 60.7324 30.3398C60.7324 46.9084 47.301 60.3398 30.7324 60.3398C14.1639 60.3398 0.732422 46.9084 0.732422 30.3398Z" fill="white"/>
<path fill-rule="evenodd" clip-rule="evenodd" d="M30.7324 12.3398C20.7913 12.3398 12.7324 19.8017 12.7324 29.0065C12.7324 34.2515 15.3499 38.93 19.4405 41.9851V48.3398L25.5693 44.9762C27.205 45.4288 28.9378 45.6732 30.7324 45.6732C40.6736 45.6732 48.7324 38.2113 48.7324 29.0065C48.7324 19.8017 40.6736 12.3398 30.7324 12.3398ZM32.0482 34.3398L27.5362 29.659L18.7324 34.3398L28.4166 24.3398L33.0386 29.0207L41.7324 24.3398L32.0482 34.3398Z" fill="#0084FF"/>
</svg>
