<svg width="45" height="40" viewBox="0 0 45 40" fill="none" xmlns="http://www.w3.org/2000/svg">
<path d="M15.0002 17.9321H13.9127C12.4286 17.8844 10.9494 18.1083 9.56676 18.59C8.18413 19.0717 6.92762 19.8008 5.87519 20.7321L5.5752 21.0432V30.2432H10.6752V25.021L11.3627 24.3321L11.6752 24.0098C13.3026 22.5237 15.3287 21.4302 17.5627 20.8321C16.4442 20.0755 15.562 19.0772 15.0002 17.9321V17.9321Z" fill="#323754"/>
<path d="M39.1754 20.7008C38.123 19.7695 36.8665 19.0404 35.4838 18.5587C34.1012 18.0771 32.6219 17.8531 31.1379 17.9008C30.6827 17.902 30.2279 17.9242 29.7754 17.9675C29.203 19.0418 28.345 19.9761 27.2754 20.6897C29.6604 21.2762 31.8209 22.4285 33.5254 24.023L33.8379 24.3341L34.5129 25.023V30.2564H39.4379V21.0119L39.1754 20.7008Z" fill="#323754"/>
<path d="M13.8748 15.7671H14.2623C14.0823 14.3929 14.3536 13.0018 15.0434 11.7616C15.7332 10.5215 16.8121 9.48532 18.1498 8.77821C17.6649 8.11971 16.9959 7.58444 16.2083 7.22482C15.4208 6.8652 14.5416 6.69355 13.657 6.72669C12.7724 6.75982 11.9126 6.99661 11.1619 7.41385C10.4111 7.8311 9.79516 8.4145 9.37428 9.10693C8.95341 9.79936 8.74206 10.5771 8.76093 11.3639C8.77979 12.1508 9.02823 12.9198 9.48191 13.5957C9.93559 14.2715 10.579 14.8311 11.349 15.2195C12.1191 15.6079 12.9894 15.8119 13.8748 15.8115V15.7671Z" fill="#323754"/>
<path d="M22.6375 22.5568C21.0051 22.4982 19.3762 22.7338 17.8488 23.2494C16.3214 23.7649 14.9272 24.5498 13.75 25.5568L13.4375 25.8679V32.9013C13.4424 33.1304 13.498 33.3564 13.6011 33.5664C13.7043 33.7764 13.853 33.9662 14.0387 34.1251C14.2244 34.284 14.4436 34.4088 14.6836 34.4924C14.9236 34.5761 15.1798 34.6168 15.4375 34.6124H29.8C30.0577 34.6168 30.3139 34.5761 30.5539 34.4924C30.7939 34.4088 31.0131 34.284 31.1988 34.1251C31.3845 33.9662 31.5332 33.7764 31.6364 33.5664C31.7395 33.3564 31.7951 33.1304 31.8 32.9013V25.8902L31.5 25.5568C30.3304 24.5467 28.941 23.7596 27.4171 23.2438C25.8931 22.7279 24.2667 22.4941 22.6375 22.5568V22.5568Z" fill="#323754"/>
<path d="M33.9024 14.5701L28.2207 6.15265C28.0885 5.9859 28.0126 5.79095 28.0014 5.5894C27.9903 5.38785 28.0442 5.18758 28.1574 5.01079C28.2705 4.83399 28.4384 4.68757 28.6424 4.58775C28.8465 4.48793 29.0787 4.43861 29.3133 4.44525H40.6867C40.9213 4.43861 41.1535 4.48793 41.3576 4.58775C41.5616 4.68757 41.7295 4.83399 41.8426 5.01079C41.9558 5.18758 42.0097 5.38785 41.9986 5.5894C41.9874 5.79095 41.9115 5.9859 41.7793 6.15265L36.0976 14.5701C35.9856 14.7348 35.8253 14.8715 35.6327 14.9664C35.4401 15.0614 35.222 15.1113 35 15.1113C34.778 15.1113 34.5599 15.0614 34.3673 14.9664C34.1747 14.8715 34.0144 14.7348 33.9024 14.5701V14.5701Z" fill="#323754"/>
<path d="M28.18 14.7462C28.18 17.4905 25.6773 19.7151 22.59 19.7151C19.5027 19.7151 17 17.4905 17 14.7462C17 12.002 19.5027 9.77734 22.59 9.77734C25.6773 9.77734 28.18 12.002 28.18 14.7462Z" fill="#323754"/>
</svg>
