<svg width="49" height="49" viewBox="0 0 49 49" fill="none" xmlns="http://www.w3.org/2000/svg">
<circle cx="24.8052" cy="24.2129" r="24" fill="white"/>
<path d="M24.0098 18.2578H18.7598C18.3619 18.2578 17.9804 18.4158 17.6991 18.6972C17.4178 18.9785 17.2598 19.36 17.2598 19.7578V30.2578C17.2598 30.6556 17.4178 31.0372 17.6991 31.3185C17.9804 31.5998 18.3619 31.7578 18.7598 31.7578H29.2598C29.6576 31.7578 30.0391 31.5998 30.3204 31.3185C30.6017 31.0372 30.7598 30.6556 30.7598 30.2578V25.0078" stroke="#4048FF" stroke-width="2" stroke-linecap="round" stroke-linejoin="round"/>
<path d="M29.6348 17.133C29.9331 16.8346 30.3378 16.667 30.7598 16.667C31.1817 16.667 31.5864 16.8346 31.8848 17.133C32.1831 17.4314 32.3508 17.836 32.3508 18.258C32.3508 18.6799 32.1831 19.0846 31.8848 19.383L24.7598 26.508L21.7598 27.258L22.5098 24.258L29.6348 17.133Z" stroke="#4048FF" stroke-width="2" stroke-linecap="round" stroke-linejoin="round"/>
</svg>
