<svg width="53" height="53" viewBox="0 0 53 53" fill="none" xmlns="http://www.w3.org/2000/svg">
<g filter="url(#filter0_d)">
<rect x="2.56152" y="0.106689" width="48" height="48" rx="24" fill="white"/>
</g>
<path d="M22.9756 32.1065L32.2686 22.8135L27.8546 18.3995L18.5616 27.6925C18.4336 27.8206 18.3427 27.981 18.2986 28.1565L17.2686 33.3995L22.5106 32.3695C22.6866 32.3255 22.8476 32.2345 22.9756 32.1065ZM35.2686 19.8135C35.6435 19.4385 35.8541 18.9299 35.8541 18.3995C35.8541 17.8692 35.6435 17.3606 35.2686 16.9855L33.6826 15.3995C33.3075 15.0246 32.7989 14.814 32.2686 14.814C31.7382 14.814 31.2296 15.0246 30.8546 15.3995L29.2686 16.9855L33.6826 21.3995L35.2686 19.8135Z" fill="#4048FF"/>
<defs>
<filter id="filter0_d" x="0.561523" y="0.106689" width="52" height="52" filterUnits="userSpaceOnUse" color-interpolation-filters="sRGB">
<feFlood flood-opacity="0" result="BackgroundImageFix"/>
<feColorMatrix in="SourceAlpha" type="matrix" values="0 0 0 0 0 0 0 0 0 0 0 0 0 0 0 0 0 0 127 0"/>
<feOffset dy="2"/>
<feGaussianBlur stdDeviation="1"/>
<feColorMatrix type="matrix" values="0 0 0 0 0 0 0 0 0 0 0 0 0 0 0 0 0 0 0.15 0"/>
<feBlend mode="normal" in2="BackgroundImageFix" result="effect1_dropShadow"/>
<feBlend mode="normal" in="SourceGraphic" in2="effect1_dropShadow" result="shape"/>
</filter>
</defs>
</svg>
