<svg width="166" height="158" viewBox="0 0 166 158" fill="none" xmlns="http://www.w3.org/2000/svg">
<g filter="url(#filter0_f)">
<circle cx="69.0409" cy="35.382" r="23.5214" fill="url(#paint0_radial)"/>
</g>
<g filter="url(#filter1_f)">
<circle cx="108.79" cy="62.0232" r="23.5214" fill="url(#paint1_radial)"/>
</g>
<g filter="url(#filter2_f)">
<circle cx="45.6947" cy="62.0232" r="23.5214" fill="url(#paint2_radial)"/>
</g>
<g filter="url(#filter3_f)">
<circle cx="34.6537" cy="103.366" r="23.5214" fill="url(#paint3_radial)"/>
</g>
<g filter="url(#filter4_f)">
<circle cx="130.561" cy="102.036" r="23.5214" fill="url(#paint4_radial)"/>
</g>
<g filter="url(#filter5_d)">
<path d="M102.64 55.7866C102.64 65.0495 95.1312 72.5586 85.8682 72.5586C76.6053 72.5586 69.0962 65.0495 69.0962 55.7866C69.0962 46.5236 76.6053 39.0145 85.8682 39.0145C95.1312 39.0145 102.64 46.5236 102.64 55.7866Z" fill="#FFBE5E"/>
<g filter="url(#filter6_i)">
<path d="M79.2321 52.3831H79.1714C80.4133 49.9419 82.9494 48.2691 85.8762 48.2691C87.7641 48.2691 89.4891 48.9648 90.8093 50.1139H90.8554H93.852C92.0778 47.624 89.1666 45.9999 85.8762 45.9999C80.8547 45.9999 76.7171 49.7814 76.1548 54.6523L82.4729 54.6518V56.9205H76.1538L76.1563 56.9381C76.2481 57.7206 76.4322 58.4745 76.697 59.1897H82.4719V64.9645C83.1916 65.2314 83.9525 65.4165 84.7405 65.5078V59.1902H87.0092V65.5083C87.7977 65.417 88.5582 65.2324 89.2779 64.965V59.1897H95.0528C95.446 58.1299 95.6607 56.9832 95.6607 55.7864C95.6607 54.5896 95.446 53.443 95.0528 52.3831H93.709H79.2321ZM87.0097 56.921H84.7411V54.6523H87.0097V56.921ZM93.3077 56.921H89.2789V54.6523H93.3077C93.3639 55.0225 93.393 55.4012 93.393 55.7869C93.393 56.1721 93.3639 56.5508 93.3077 56.921Z" fill="#F4A837"/>
<path d="M85.868 41.439C77.9439 41.439 71.5205 47.8628 71.5205 55.7865C71.5205 63.7101 77.9439 70.134 85.868 70.134C93.7922 70.134 100.216 63.7101 100.216 55.7865C100.216 47.8628 93.7922 41.439 85.868 41.439ZM85.868 67.8613C79.1994 67.8613 73.7932 62.4551 73.7932 55.7865C73.7932 49.1178 79.1994 43.7117 85.868 43.7117C92.5367 43.7117 97.9428 49.1178 97.9428 55.7865C97.9428 62.4551 92.5367 67.8613 85.868 67.8613Z" fill="#F4A837"/>
</g>
<path fill-rule="evenodd" clip-rule="evenodd" d="M85.2681 40.2804C85.2681 39.9274 85.5542 39.6414 85.9071 39.6414C90.0772 39.6414 93.8853 41.1981 96.7795 43.7611C97.0437 43.9951 97.0682 44.3989 96.8343 44.6631C96.6003 44.9273 96.1964 44.9518 95.9322 44.7179C93.2627 42.3538 89.7532 40.9194 85.9071 40.9194C85.5542 40.9194 85.2681 40.6333 85.2681 40.2804Z" fill="white"/>
<path fill-rule="evenodd" clip-rule="evenodd" d="M85.2681 71.2547C85.2681 71.6076 85.5542 71.8937 85.9071 71.8937C87.4593 71.8937 88.9621 71.6779 90.3868 71.2744C90.7264 71.1782 90.9237 70.825 90.8275 70.4855C90.7313 70.1459 90.3781 69.9486 90.0385 70.0448C88.7261 70.4165 87.3403 70.6157 85.9071 70.6157C85.5542 70.6157 85.2681 70.9018 85.2681 71.2547Z" fill="white"/>
<g style="mix-blend-mode:overlay">
<path d="M71.7031 46.8812C73.3138 44.3156 75.5998 42.2169 78.3119 40.8345L80.3986 42.5392C77.5835 43.7135 75.2227 45.7589 73.6529 48.3386L71.7031 46.8812Z" fill="url(#paint5_linear)"/>
<path d="M94.7018 64.0721C96.5091 62.1568 97.6969 59.6506 97.9448 56.8738L95.6816 55.0249C95.701 55.2763 95.7108 55.5303 95.7108 55.7866C95.7108 56.9834 95.4962 58.13 95.1029 59.1899H89.3281V60.0554L94.7018 64.0721Z" fill="url(#paint6_linear)"/>
<path d="M96.5323 65.4403C98.2615 63.5402 99.4874 61.174 99.9994 58.5524L102.078 60.2508C101.391 62.7459 100.142 65.0081 98.4752 66.8926L96.5323 65.4403Z" fill="url(#paint7_linear)"/>
<path d="M85.135 56.9212L84.7912 56.6642V54.6525H87.0599V56.9212H85.135Z" fill="url(#paint8_linear)"/>
<path d="M82.523 54.9687L82.0992 54.652L82.523 54.652V54.9687Z" fill="url(#paint9_linear)"/>
<path d="M77.3371 51.0924L75.4834 49.7069C77.0106 47.0915 79.4928 45.102 82.4519 44.2167L84.7242 46.0731C81.5328 46.464 78.8164 48.3911 77.3371 51.0924Z" fill="url(#paint10_linear)"/>
<path d="M87.6575 48.4695C87.1017 48.3385 86.5221 48.2692 85.9263 48.2692C82.9995 48.2692 80.4635 49.942 79.2215 52.3833H92.4481L87.6575 48.4695Z" fill="url(#paint11_linear)"/>
<path d="M89.3291 56.9212H93.3579C93.414 56.551 93.4431 56.1723 93.4431 55.7871C93.4431 55.4013 93.414 55.0226 93.3579 54.6525H89.3291V56.9212Z" fill="url(#paint12_linear)"/>
</g>
<g style="mix-blend-mode:overlay">
<path fill-rule="evenodd" clip-rule="evenodd" d="M73.2753 44.7655C72.6981 45.4271 72.172 46.1344 71.7031 46.8812L73.6529 48.3386C74.1067 47.5929 74.6267 46.8917 75.2046 46.2434L73.2753 44.7655ZM77.0148 47.63C76.4338 48.2638 75.9197 48.9598 75.4834 49.7069L77.3371 51.0925C77.7491 50.34 78.2572 49.6477 78.8448 49.0318L77.0148 47.63ZM80.66 50.4223C80.0807 50.991 79.5932 51.6528 79.2215 52.3833H83.22L80.66 50.4223ZM86.1823 54.6525H84.7912V56.6642L85.135 56.9212H87.0599V55.3248L86.1823 54.6525ZM92.1056 59.1899H89.3281V60.0554L94.7018 64.0721C95.2272 63.5153 95.7003 62.9086 96.1131 62.2597L92.1056 59.1899ZM99.8452 65.1186L97.9233 63.6464C97.5068 64.2812 97.0413 64.881 96.5323 65.4404L98.4752 66.8927C98.9699 66.3333 99.4278 65.7407 99.8452 65.1186ZM82.523 54.9688L82.0992 54.6521L82.523 54.652V54.9688Z" fill="url(#paint13_linear)"/>
</g>
</g>
<g filter="url(#filter7_d)">
<path d="M60.8704 62.6906C60.2773 71.9345 52.3027 78.9473 43.0588 78.3541C33.8149 77.761 26.8021 69.7865 27.3952 60.5425C27.9884 51.2986 35.9629 44.2858 45.2068 44.8789C54.4508 45.4721 61.4636 53.4466 60.8704 62.6906Z" fill="#FFBE5E"/>
<g filter="url(#filter8_i)">
<path d="M37.7286 57.7952L37.6681 57.7913C39.0638 55.4346 41.7017 53.9276 44.6225 54.115C46.5066 54.2359 48.1835 55.0407 49.4274 56.272L49.4734 56.2749L52.4638 56.4668C50.8528 53.8684 48.0515 52.0612 44.7678 51.8505C39.7567 51.5289 35.3854 55.0377 34.5124 59.8627L40.8175 60.2667L40.6722 62.5308L34.3661 62.1261L34.3675 62.1438C34.409 62.9306 34.5444 63.6947 34.7629 64.4255L40.5259 64.7953L40.1561 70.5582C40.8573 70.8706 41.6048 71.104 42.3853 71.2456L42.7899 64.941L45.0539 65.0863L44.6494 71.3914C45.4421 71.3508 46.2127 71.2153 46.9482 70.9946L47.318 65.2311L53.081 65.6009C53.5413 64.5684 53.8289 63.4378 53.9056 62.2435C53.9822 61.0492 53.8414 59.8911 53.5168 58.8083L52.1758 58.7222L37.7286 57.7952ZM45.1997 62.8218L42.9357 62.6765L43.081 60.4125L45.345 60.5578L45.1997 62.8218ZM51.4848 63.2251L47.4643 62.9671L47.6096 60.7031L51.6301 60.9611C51.6624 61.3341 51.6672 61.7139 51.6425 62.0988C51.6178 62.4832 51.5646 62.8593 51.4848 63.2251Z" fill="#F4A837"/>
<path d="M45.052 47.2984C37.1441 46.791 30.3225 52.7903 29.8151 60.6977C29.3077 68.6051 35.3066 75.4271 43.2144 75.9345C51.1223 76.442 57.9439 70.4426 58.4513 62.5352C58.9587 54.6278 52.9598 47.8058 45.052 47.2984ZM43.36 73.6665C36.705 73.2394 31.6561 67.4982 32.0832 60.8432C32.5102 54.1883 38.2515 49.1394 44.9064 49.5664C51.5614 49.9935 56.6103 55.7347 56.1832 62.3897C55.7562 69.0446 50.0149 74.0935 43.36 73.6665Z" fill="#F4A837"/>
</g>
<path fill-rule="evenodd" clip-rule="evenodd" d="M44.527 46.1038C44.5496 45.7516 44.8534 45.4844 45.2056 45.507C49.3671 45.774 53.0677 47.5714 55.7919 50.3145C56.0406 50.5649 56.0392 50.9695 55.7887 51.2182C55.5383 51.4669 55.1338 51.4655 54.8851 51.215C52.3724 48.6849 48.9619 47.0286 45.1237 46.7824C44.7715 46.7598 44.5044 46.4559 44.527 46.1038Z" fill="white"/>
<path fill-rule="evenodd" clip-rule="evenodd" d="M42.5438 77.0143C42.5212 77.3665 42.7884 77.6703 43.1406 77.6929C44.6896 77.7923 46.2032 77.6732 47.6508 77.3618C47.9958 77.2875 48.2154 76.9477 48.1411 76.6027C48.0669 76.2576 47.727 76.0381 47.382 76.1124C46.0484 76.3993 44.6528 76.5093 43.2225 76.4175C42.8703 76.3949 42.5664 76.6621 42.5438 77.0143Z" fill="white"/>
<g style="mix-blend-mode:overlay">
<path d="M30.5674 51.8224C32.339 49.3652 34.7547 47.4172 37.5498 46.2113L39.523 48.0461C36.6386 49.0377 34.1516 50.9278 32.4198 53.4016L30.5674 51.8224Z" fill="url(#paint14_linear)"/>
<path d="M52.418 70.4507C54.3443 68.6551 55.6901 66.2301 56.1153 63.4749L53.9752 61.4849C53.9784 61.737 53.972 61.9911 53.9555 62.2468C53.8789 63.4412 53.5913 64.5717 53.1309 65.6042L47.368 65.2344L47.3125 66.0982L52.418 70.4507Z" fill="url(#paint15_linear)"/>
<path d="M54.1571 71.9334C56.0044 70.1479 57.3794 67.8651 58.0582 65.2816L60.0241 67.1097C59.1785 69.5556 57.7869 71.7332 56.0031 73.5071L54.1571 71.9334Z" fill="url(#paint16_linear)"/>
<path d="M43.3288 62.7019L43.0021 62.4234L43.1309 60.4158L45.395 60.5611L45.2497 62.8252L43.3288 62.7019Z" fill="url(#paint17_linear)"/>
<path d="M40.8471 60.5862L40.4446 60.243L40.8674 60.2701L40.8471 60.5862Z" fill="url(#paint18_linear)"/>
<path d="M35.9201 56.3857L34.159 54.8843C35.8505 52.3721 38.455 50.5456 41.4647 49.8517L43.6135 51.8498C40.4036 52.0355 37.5694 53.7847 35.9201 56.3857Z" fill="url(#paint19_linear)"/>
<path d="M46.3873 54.4291C45.8411 54.2628 45.2671 54.1565 44.6724 54.1184C41.7517 53.931 39.1137 55.4379 37.718 57.7946L50.9175 58.6416L46.3873 54.4291Z" fill="url(#paint20_linear)"/>
<path d="M47.5142 62.9705L51.5348 63.2284C51.6145 62.8626 51.6678 62.4866 51.6925 62.1021C51.7172 61.7172 51.7124 61.3374 51.68 60.9644L47.6595 60.7064L47.5142 62.9705Z" fill="url(#paint21_linear)"/>
</g>
<g style="mix-blend-mode:overlay">
<path fill-rule="evenodd" clip-rule="evenodd" d="M32.2716 49.8114C31.6532 50.4346 31.0829 51.1068 30.5672 51.8221L32.4196 53.4014C32.9203 52.6862 33.484 52.0198 34.1023 51.4098L32.2716 49.8114ZM35.8199 52.9095C35.1996 53.5048 34.6419 54.1664 34.1588 54.884L35.9199 56.3855C36.3793 55.6609 36.9306 55.0025 37.5564 54.4256L35.8199 52.9095ZM39.2789 55.9295C38.6644 56.4599 38.1355 57.0891 37.7178 57.7943L41.7081 58.0504L39.2789 55.9295ZM44.519 60.5046L43.1307 60.4155L43.0019 62.4231L43.3286 62.7016L45.2495 62.8249L45.3517 61.2317L44.519 60.5046ZM50.1396 65.412L47.3677 65.2342L47.3123 66.0979L52.4178 70.4505C52.9778 69.9284 53.4887 69.3532 53.9423 68.7321L50.1396 65.412ZM57.4836 71.8241L55.6599 70.2318C55.2037 70.8387 54.7007 71.4075 54.1569 71.9331L56.0029 73.5069C56.5323 72.9803 57.0272 72.4182 57.4836 71.8241ZM40.8469 60.5859L40.4443 60.2427L40.8672 60.2698L40.8469 60.5859Z" fill="url(#paint22_linear)"/>
</g>
</g>
<g filter="url(#filter9_d)">
<path d="M126.863 64.2724C126.863 73.5353 119.354 81.0444 110.091 81.0444C100.828 81.0444 93.3188 73.5353 93.3188 64.2724C93.3188 55.0095 100.828 47.5004 110.091 47.5004C119.354 47.5004 126.863 55.0095 126.863 64.2724Z" fill="#FFBE5E"/>
<g filter="url(#filter10_i)">
<path d="M103.455 60.869H103.394C104.636 58.4277 107.172 56.7549 110.099 56.7549C111.987 56.7549 113.712 57.4506 115.032 58.5998H115.078H118.075C116.3 56.1099 113.389 54.4857 110.099 54.4857C105.077 54.4857 100.94 58.2672 100.377 63.1382L106.696 63.1377V65.4064H100.376L100.379 65.4239C100.471 66.2064 100.655 66.9603 100.92 67.6756H106.695V73.4504C107.414 73.7172 108.175 73.9023 108.963 73.9936V67.6761H111.232V73.9941C112.02 73.9028 112.781 73.7182 113.501 73.4509V67.6756H119.275C119.669 66.6157 119.883 65.4691 119.883 64.2723C119.883 63.0755 119.669 61.9288 119.275 60.869H117.932H103.455ZM111.232 65.4069H108.964V63.1382H111.232V65.4069ZM117.53 65.4069H113.502V63.1382H117.53C117.587 63.5083 117.616 63.887 117.616 64.2728C117.616 64.658 117.587 65.0367 117.53 65.4069Z" fill="#F4A837"/>
<path d="M110.091 49.9248C102.167 49.9248 95.7437 56.3487 95.7437 64.2723C95.7437 72.196 102.167 78.6198 110.091 78.6198C118.015 78.6198 124.439 72.196 124.439 64.2723C124.439 56.3487 118.015 49.9248 110.091 49.9248ZM110.091 76.3471C103.423 76.3471 98.0164 70.941 98.0164 64.2723C98.0164 57.6037 103.423 52.1975 110.091 52.1975C116.76 52.1975 122.166 57.6037 122.166 64.2723C122.166 70.941 116.76 76.3471 110.091 76.3471Z" fill="#F4A837"/>
</g>
<path fill-rule="evenodd" clip-rule="evenodd" d="M109.491 48.7662C109.491 48.4133 109.777 48.1272 110.13 48.1272C114.3 48.1272 118.108 49.6839 121.002 52.247C121.266 52.4809 121.291 52.8848 121.057 53.149C120.823 53.4132 120.419 53.4377 120.155 53.2037C117.485 50.8397 113.976 49.4052 110.13 49.4052C109.777 49.4052 109.491 49.1191 109.491 48.7662Z" fill="white"/>
<path fill-rule="evenodd" clip-rule="evenodd" d="M109.491 79.7405C109.491 80.0934 109.777 80.3795 110.13 80.3795C111.682 80.3795 113.185 80.1638 114.609 79.7603C114.949 79.6641 115.146 79.3109 115.05 78.9713C114.954 78.6318 114.601 78.4345 114.261 78.5306C112.949 78.9024 111.563 79.1015 110.13 79.1015C109.777 79.1015 109.491 79.3876 109.491 79.7405Z" fill="white"/>
<g style="mix-blend-mode:overlay">
<path d="M95.9258 55.367C97.5365 52.8014 99.8225 50.7027 102.535 49.3203L104.621 51.025C101.806 52.1993 99.4454 54.2447 97.8755 56.8244L95.9258 55.367Z" fill="url(#paint23_linear)"/>
<path d="M118.924 72.5579C120.732 70.6426 121.92 68.1364 122.167 65.3596L119.904 63.5108C119.924 63.7621 119.933 64.0161 119.933 64.2724C119.933 65.4692 119.719 66.6158 119.326 67.6757H113.551V68.5412L118.924 72.5579Z" fill="url(#paint24_linear)"/>
<path d="M120.755 73.9262C122.484 72.0261 123.71 69.6598 124.222 67.0382L126.301 68.7366C125.614 71.2317 124.364 73.4939 122.698 75.3785L120.755 73.9262Z" fill="url(#paint25_linear)"/>
<path d="M109.358 65.407L109.014 65.15V63.1383H111.283V65.407H109.358Z" fill="url(#paint26_linear)"/>
<path d="M106.746 63.4546L106.322 63.1378L106.746 63.1378V63.4546Z" fill="url(#paint27_linear)"/>
<path d="M101.56 59.5782L99.7061 58.1927C101.233 55.5773 103.715 53.5878 106.675 52.7025L108.947 54.5589C105.755 54.9498 103.039 56.8769 101.56 59.5782Z" fill="url(#paint28_linear)"/>
<path d="M111.88 56.9553C111.324 56.8244 110.745 56.7551 110.149 56.7551C107.222 56.7551 104.686 58.4279 103.444 60.8691H116.671L111.88 56.9553Z" fill="url(#paint29_linear)"/>
<path d="M113.552 65.407H117.581C117.637 65.0368 117.666 64.6581 117.666 64.2729C117.666 63.8872 117.637 63.5085 117.581 63.1383H113.552V65.407Z" fill="url(#paint30_linear)"/>
</g>
<g style="mix-blend-mode:overlay">
<path fill-rule="evenodd" clip-rule="evenodd" d="M97.498 53.2513C96.9208 53.9129 96.3947 54.6202 95.9258 55.3671L97.8755 56.8245C98.3294 56.0787 98.8493 55.3776 99.4273 54.7292L97.498 53.2513ZM101.237 56.1159C100.656 56.7497 100.142 57.4457 99.7061 58.1928L101.56 59.5783C101.972 58.8259 102.48 58.1335 103.067 57.5177L101.237 56.1159ZM104.883 58.9082C104.303 59.4769 103.816 60.1386 103.444 60.8692H107.443L104.883 58.9082ZM110.405 63.1384H109.014V65.1501L109.358 65.4071H111.283V63.8106L110.405 63.1384ZM116.328 67.6758H113.551V68.5413L118.924 72.558C119.45 72.0012 119.923 71.3944 120.336 70.7456L116.328 67.6758ZM124.068 73.6044L122.146 72.1322C121.729 72.767 121.264 73.3668 120.755 73.9262L122.698 75.3786C123.193 74.8192 123.65 74.2265 124.068 73.6044ZM106.746 63.4547L106.322 63.1379L106.746 63.1379V63.4547Z" fill="url(#paint31_linear)"/>
</g>
</g>
<g filter="url(#filter11_d)">
<path d="M134.89 111.6C130.348 119.672 120.121 122.534 112.048 117.992C103.976 113.449 101.114 103.223 105.656 95.1501C110.199 87.0774 120.425 84.2155 128.498 88.7579C136.571 93.3003 139.432 103.527 134.89 111.6Z" fill="#FFBE5E"/>
<g filter="url(#filter12_i)">
<path d="M116.158 97.1545L116.106 97.1247C118.385 95.6062 121.416 95.392 123.966 96.8272C125.612 97.753 126.774 99.2052 127.361 100.854L127.401 100.877L130.013 102.346C129.687 99.3062 127.947 96.4632 125.079 94.8496C120.703 92.3872 115.242 93.6537 112.364 97.6231L117.87 100.721L116.758 102.698L111.251 99.5993L111.244 99.6159C110.941 100.343 110.731 101.09 110.611 101.843L115.644 104.675L112.812 109.708C113.309 110.294 113.881 110.828 114.523 111.294L117.621 105.788L119.598 106.901L116.5 112.407C117.232 112.714 117.985 112.926 118.744 113.046L121.576 108.013L126.608 110.845C127.471 110.114 128.22 109.22 128.807 108.177C129.394 107.134 129.769 106.029 129.946 104.913L128.775 104.254L116.158 97.1545ZM120.711 104.923L118.734 103.811L119.847 101.834L121.824 102.946L120.711 104.923ZM126.2 108.012L122.689 106.036L123.802 104.059L127.313 106.035C127.18 106.385 127.02 106.729 126.831 107.065C126.642 107.401 126.431 107.717 126.2 108.012Z" fill="#F4A837"/>
<path d="M127.309 90.8707C120.403 86.9849 111.655 89.4334 107.769 96.3389C103.883 103.244 106.331 111.993 113.237 115.879C120.143 119.765 128.891 117.316 132.777 110.41C136.662 103.505 134.215 94.7566 127.309 90.8707ZM114.352 113.898C108.54 110.628 106.479 103.265 109.75 97.4534C113.02 91.6416 120.382 89.5812 126.194 92.8514C132.006 96.1216 134.066 103.484 130.796 109.296C127.526 115.108 120.163 117.168 114.352 113.898Z" fill="#F4A837"/>
</g>
<path fill-rule="evenodd" clip-rule="evenodd" d="M127.354 89.5669C127.527 89.2593 127.917 89.1503 128.224 89.3234C131.859 91.3683 134.414 94.5924 135.68 98.2454C135.795 98.5789 135.618 98.9429 135.285 99.0584C134.951 99.1739 134.587 98.9972 134.472 98.6638C133.305 95.2944 130.95 92.3232 127.598 90.4371C127.29 90.2641 127.181 89.8745 127.354 89.5669Z" fill="white"/>
<path fill-rule="evenodd" clip-rule="evenodd" d="M112.165 116.561C111.992 116.869 112.101 117.258 112.408 117.431C113.761 118.193 115.177 118.742 116.616 119.089C116.959 119.171 117.305 118.96 117.387 118.617C117.47 118.274 117.259 117.929 116.916 117.846C115.59 117.526 114.284 117.02 113.035 116.318C112.728 116.145 112.338 116.254 112.165 116.561Z" fill="white"/>
<g style="mix-blend-mode:overlay">
<path d="M112.295 88.6673C114.956 87.2212 117.978 86.5133 121.019 86.6384L122.002 89.1474C118.973 88.7903 115.912 89.4152 113.279 90.8936L112.295 88.6673Z" fill="url(#paint32_linear)"/>
<path d="M123.908 114.927C126.422 114.145 128.686 112.543 130.264 110.244L129.198 107.523C129.092 107.752 128.976 107.978 128.85 108.201C128.264 109.244 127.514 110.138 126.652 110.869L121.619 108.037L121.194 108.792L123.908 114.927Z" fill="url(#paint33_linear)"/>
<path d="M124.832 117.018C127.271 116.21 129.5 114.749 131.232 112.715L132.211 115.215C130.388 117.052 128.19 118.411 125.813 119.236L124.832 117.018Z" fill="url(#paint34_linear)"/>
<path d="M119.077 104.004L118.903 103.611L119.89 101.858L121.867 102.971L120.755 104.948L119.077 104.004Z" fill="url(#paint35_linear)"/>
<path d="M117.758 101.022L117.544 100.538L117.913 100.746L117.758 101.022Z" fill="url(#paint36_linear)"/>
<path d="M115.139 95.1002L114.203 92.9837C116.817 91.4533 119.956 90.9367 122.969 91.6162L124.039 94.3484C121.066 93.124 117.753 93.4715 115.139 95.1002Z" fill="url(#paint37_linear)"/>
<path d="M125.42 97.8753C125 97.4886 124.529 97.144 124.009 96.8518C121.459 95.4166 118.428 95.6308 116.149 97.1493L127.676 103.635L125.42 97.8753Z" fill="url(#paint38_linear)"/>
<path d="M122.732 106.061L126.243 108.036C126.474 107.741 126.685 107.426 126.874 107.09C127.063 106.754 127.223 106.409 127.356 106.059L123.845 104.084L122.732 106.061Z" fill="url(#paint39_linear)"/>
</g>
<g style="mix-blend-mode:overlay">
<path fill-rule="evenodd" clip-rule="evenodd" d="M114.703 87.5945C113.875 87.888 113.07 88.2464 112.295 88.6674L113.28 90.8936C114.041 90.4662 114.838 90.1102 115.659 89.8285L114.703 87.5945ZM116.557 91.9247C115.74 92.1921 114.95 92.5466 114.204 92.9838L115.14 95.1003C115.868 94.6466 116.65 94.2923 117.464 94.0437L116.557 91.9247ZM118.364 96.1457C117.581 96.3573 116.831 96.6949 116.149 97.1494L119.634 99.1102L118.364 96.1457ZM121.103 102.54L119.89 101.858L118.904 103.611L119.078 104.004L120.755 104.948L121.538 103.557L121.103 102.54ZM124.04 109.4L121.619 108.037L121.195 108.792L123.908 114.928C124.639 114.7 125.349 114.403 126.027 114.04L124.04 109.4ZM127.878 118.362L126.925 116.136C126.25 116.485 125.551 116.78 124.833 117.018L125.814 119.236C126.519 118.991 127.209 118.699 127.878 118.362ZM117.759 101.022L117.545 100.538L117.914 100.746L117.759 101.022Z" fill="url(#paint40_linear)"/>
</g>
</g>
<g filter="url(#filter13_d)">
<path d="M55.9256 98.7759C58.323 107.723 53.0133 116.92 44.066 119.317C35.1187 121.715 25.9219 116.405 23.5245 107.458C21.1271 98.5104 26.4368 89.3137 35.3841 86.9163C44.3314 84.5189 53.5282 89.8286 55.9256 98.7759Z" fill="#FFBE5E"/>
<g filter="url(#filter14_i)">
<path d="M32.4341 101.547L32.3755 101.563C32.9432 98.8831 34.9599 96.6109 37.787 95.8534C39.6106 95.3648 41.4569 95.5903 43.0295 96.3586L43.0741 96.3467L45.9685 95.5711C43.6104 93.6252 40.378 92.8099 37.1997 93.6615C32.3493 94.9612 29.3314 99.6847 30.049 104.535L36.1516 102.9L36.7388 105.091L30.6351 106.726L30.642 106.743C30.9332 107.475 31.3061 108.155 31.7471 108.778L37.3251 107.283L38.8198 112.861C39.5841 112.933 40.367 112.914 41.1518 112.799L39.5167 106.696L41.7081 106.109L43.3433 112.212C44.0813 111.92 44.768 111.545 45.3941 111.1L43.8993 105.521L49.4774 104.027C49.5829 102.901 49.4935 101.738 49.1837 100.582C48.874 99.4262 48.3698 98.3742 47.7157 97.4522L46.4177 97.8L32.4341 101.547ZM41.1212 103.917L38.9298 104.504L38.3427 102.313L40.534 101.726L41.1212 103.917ZM47.2046 102.287L43.3131 103.33L42.7259 101.138L46.6174 100.096C46.7675 100.439 46.8936 100.797 46.9934 101.17C47.0931 101.542 47.1631 101.915 47.2046 102.287Z" fill="#F4A837"/>
<path d="M36.0115 89.258C28.3573 91.3089 23.8155 99.1764 25.8662 106.83C27.917 114.484 35.7842 119.026 43.4383 116.975C51.0924 114.924 55.6343 107.057 53.5835 99.4032C51.5327 91.7496 43.6656 87.2071 36.0115 89.258ZM42.8501 114.78C36.4086 116.506 29.7875 112.683 28.0615 106.242C26.3355 99.8004 30.1583 93.1793 36.5997 91.4533C43.0411 89.7273 49.6623 93.55 51.3882 99.9915C53.1142 106.433 49.2915 113.054 42.8501 114.78Z" fill="#F4A837"/>
</g>
<path fill-rule="evenodd" clip-rule="evenodd" d="M35.1322 88.2942C35.0408 87.9533 35.2431 87.603 35.584 87.5116C39.6121 86.4323 43.6933 86.9504 47.1523 88.677C47.468 88.8346 47.5962 89.2184 47.4386 89.5341C47.281 89.8499 46.8972 89.9781 46.5815 89.8204C43.3911 88.2279 39.6298 87.7506 35.9148 88.7461C35.5739 88.8374 35.2235 88.6351 35.1322 88.2942Z" fill="white"/>
<path fill-rule="evenodd" clip-rule="evenodd" d="M43.1491 118.213C43.2404 118.554 43.5908 118.756 43.9317 118.665C45.431 118.263 46.8268 117.666 48.0985 116.907C48.4016 116.727 48.5008 116.334 48.32 116.031C48.1392 115.728 47.747 115.629 47.4439 115.81C46.2723 116.509 44.9854 117.06 43.6009 117.43C43.26 117.522 43.0577 117.872 43.1491 118.213Z" fill="white"/>
<g style="mix-blend-mode:overlay">
<path d="M23.7379 98.1811C24.6296 95.286 26.2946 92.6672 28.5564 90.63L31.0132 91.7366C28.598 93.5994 26.8471 96.1861 25.9984 99.0842L23.7379 98.1811Z" fill="url(#paint41_linear)"/>
<path d="M50.4022 108.834C51.6522 106.516 52.1509 103.788 51.6716 101.041L49.0071 99.8413C49.0908 100.079 49.1661 100.322 49.2324 100.569C49.5421 101.725 49.6316 102.889 49.526 104.014L43.948 105.509L44.172 106.345L50.4022 108.834Z" fill="url(#paint42_linear)"/>
<path d="M52.5244 109.682C53.7029 107.399 54.2746 104.796 54.0906 102.131L56.5383 103.233C56.5203 105.821 55.8991 108.33 54.7771 110.582L52.5244 109.682Z" fill="url(#paint43_linear)"/>
<path d="M39.3106 104.403L38.912 104.243L38.3913 102.3L40.5827 101.713L41.1699 103.904L39.3106 104.403Z" fill="url(#paint44_linear)"/>
<path d="M36.2823 103.193L35.791 102.996L36.2003 102.887L36.2823 103.193Z" fill="url(#paint45_linear)"/>
<path d="M30.2698 100.791L28.1207 99.9321C28.9189 97.0106 30.8016 94.4464 33.4307 92.8254L36.1061 94.0305C33.1246 95.234 30.9996 97.7985 30.2698 100.791Z" fill="url(#paint46_linear)"/>
<path d="M39.5597 95.586C38.9889 95.6034 38.4112 95.6864 37.8356 95.8407C35.0085 96.5982 32.9919 98.8703 32.4241 101.55L45.2001 98.1265L39.5597 95.586Z" fill="url(#paint47_linear)"/>
<path d="M43.3617 103.317L47.2533 102.274C47.2117 101.902 47.1418 101.529 47.0421 101.157C46.9423 100.784 46.8161 100.426 46.6661 100.083L42.7745 101.126L43.3617 103.317Z" fill="url(#paint48_linear)"/>
</g>
<g style="mix-blend-mode:overlay">
<path fill-rule="evenodd" clip-rule="evenodd" d="M24.709 95.7304C24.3227 96.5188 23.9976 97.3382 23.738 98.181L25.9986 99.0841C26.2439 98.2462 26.5647 97.4344 26.9551 96.6586L24.709 95.7304ZM29.0625 97.5295C28.6654 98.292 28.3489 99.0974 28.1209 99.932L30.27 100.791C30.4732 99.9571 30.7848 99.1568 31.1929 98.4099L29.0625 97.5295ZM33.3062 99.2832C32.8939 99.9824 32.5942 100.748 32.4243 101.55L36.2865 100.515L33.3062 99.2832ZM39.7352 101.94L38.3915 102.3L38.9121 104.243L39.3108 104.402L41.1701 103.904L40.7569 102.362L39.7352 101.94ZM46.6311 104.79L43.9481 105.509L44.1721 106.345L50.4023 108.834C50.7658 108.16 51.0657 107.451 51.2965 106.718L46.6311 104.79ZM55.6413 108.513L53.4039 107.589C53.1659 108.31 52.8715 109.009 52.5246 109.681L54.7772 110.581C55.1103 109.913 55.3992 109.222 55.6413 108.513ZM36.2824 103.193L35.7911 102.996L36.2004 102.887L36.2824 103.193Z" fill="url(#paint49_linear)"/>
</g>
</g>
<g filter="url(#filter15_d)">
<path d="M86.0735 30.4667C88.471 39.414 83.1612 48.6107 74.2139 51.0081C65.2666 53.4056 56.0699 48.0958 53.6725 39.1485C51.275 30.2012 56.5848 21.0045 65.5321 18.6071C74.4794 16.2097 83.6761 21.5194 86.0735 30.4667Z" fill="#FFBE5E"/>
<g filter="url(#filter16_i)">
<path d="M62.582 33.2379L62.5234 33.2536C63.0912 30.5741 65.1079 28.302 67.9349 27.5444C69.7586 27.0558 71.6048 27.2813 73.1775 28.0496L73.222 28.0377L76.1164 27.2621C73.7583 25.3163 70.5259 24.5009 67.3476 25.3526C62.4973 26.6522 59.4794 31.3758 60.1969 36.2263L66.2996 34.5905L66.8867 36.7819L60.783 38.4174L60.79 38.4337C61.0812 39.1658 61.4541 39.8464 61.895 40.4687L67.4731 38.9741L68.9677 44.5521C69.732 44.6236 70.5149 44.6054 71.2997 44.4897L69.6646 38.3874L71.856 37.8002L73.4912 43.903C74.2292 43.6107 74.916 43.2356 75.542 42.7911L74.0473 37.2125L79.6253 35.7179C79.7308 34.5924 79.6414 33.4292 79.3317 32.2732C79.0219 31.1172 78.5178 30.0652 77.8636 29.1432L76.5657 29.491L62.582 33.2379ZM71.2692 35.6082L69.0778 36.1954L68.4906 34.004L70.682 33.4168L71.2692 35.6082ZM77.3526 33.9782L73.4611 35.0209L72.8739 32.8295L76.7654 31.7868C76.9154 32.1298 77.0416 32.488 77.1414 32.8606C77.2411 33.2327 77.311 33.6061 77.3526 33.9782Z" fill="#F4A837"/>
<path d="M66.1594 20.9492C58.5053 23.0001 53.9634 30.8676 56.0142 38.5212C58.065 46.1749 65.9321 50.7174 73.5862 48.6665C81.2404 46.6155 85.7822 38.7481 83.7315 31.0944C81.6807 23.4408 73.8135 18.8983 66.1594 20.9492ZM72.998 46.4712C66.5566 48.1972 59.9354 44.3744 58.2095 37.933C56.4835 31.4916 60.3062 24.8704 66.7476 23.1445C73.1891 21.4185 79.8102 25.2412 81.5362 31.6826C83.2622 38.1241 79.4394 44.7452 72.998 46.4712Z" fill="#F4A837"/>
</g>
<path fill-rule="evenodd" clip-rule="evenodd" d="M65.2801 19.9854C65.1888 19.6445 65.3911 19.2941 65.732 19.2028C69.76 18.1235 73.8412 18.6415 77.3002 20.3682C77.616 20.5258 77.7442 20.9095 77.5866 21.2253C77.4289 21.541 77.0452 21.6692 76.7294 21.5116C73.539 19.919 69.7778 19.4418 66.0627 20.4372C65.7219 20.5286 65.3715 20.3263 65.2801 19.9854Z" fill="white"/>
<path fill-rule="evenodd" clip-rule="evenodd" d="M73.297 49.904C73.3884 50.2449 73.7387 50.4472 74.0796 50.3559C75.5789 49.9541 76.9748 49.3568 78.2465 48.5982C78.5496 48.4175 78.6487 48.0252 78.4679 47.7221C78.2872 47.419 77.8949 47.3199 77.5918 47.5007C76.4203 48.1994 75.1333 48.7504 73.7489 49.1214C73.408 49.2127 73.2057 49.5631 73.297 49.904Z" fill="white"/>
<g style="mix-blend-mode:overlay">
<path d="M53.8858 29.872C54.7776 26.977 56.4425 24.3582 58.7044 22.3209L61.1612 23.4275C58.746 25.2903 56.995 27.877 56.1463 30.7751L53.8858 29.872Z" fill="url(#paint50_linear)"/>
<path d="M80.5501 40.5247C81.8002 38.2069 82.2989 35.4786 81.8196 32.7323L79.155 31.5322C79.2388 31.77 79.314 32.0128 79.3803 32.2603C79.6901 33.4164 79.7795 34.5795 79.674 35.705L74.0959 37.1996L74.3199 38.0357L80.5501 40.5247Z" fill="url(#paint51_linear)"/>
<path d="M82.6724 41.3725C83.8509 39.0896 84.4226 36.4867 84.2386 33.8219L86.6863 34.9244C86.6682 37.5124 86.047 40.0208 84.925 42.2725L82.6724 41.3725Z" fill="url(#paint52_linear)"/>
<path d="M69.4586 36.0935L69.0599 35.9342L68.5392 33.9911L70.7307 33.4039L71.3178 35.5953L69.4586 36.0935Z" fill="url(#paint53_linear)"/>
<path d="M66.4302 34.8836L65.9389 34.6874L66.3482 34.5777L66.4302 34.8836Z" fill="url(#paint54_linear)"/>
<path d="M60.4177 32.4816L58.2686 31.623C59.0668 28.7015 60.9496 26.1373 63.5787 24.5164L66.2541 25.7214C63.2725 26.9249 61.1475 29.4894 60.4177 32.4816Z" fill="url(#paint55_linear)"/>
<path d="M69.7076 27.2769C69.1369 27.2943 68.5591 27.3774 67.9836 27.5316C65.1565 28.2891 63.1398 30.5613 62.5721 33.2408L75.348 29.8175L69.7076 27.2769Z" fill="url(#paint56_linear)"/>
<path d="M73.5097 35.008L77.4012 33.9653C77.3597 33.5932 77.2898 33.2198 77.19 32.8477C77.0902 32.4752 76.9641 32.1169 76.814 31.7739L72.9225 32.8166L73.5097 35.008Z" fill="url(#paint57_linear)"/>
</g>
<g style="mix-blend-mode:overlay">
<path fill-rule="evenodd" clip-rule="evenodd" d="M54.8565 27.4215C54.4702 28.2099 54.1451 29.0292 53.8855 29.872L56.146 30.7751C56.3914 29.9373 56.7121 29.1255 57.1026 28.3496L54.8565 27.4215ZM59.2099 29.2205C58.8128 29.9831 58.4963 30.7885 58.2683 31.623L60.4174 32.4816C60.6207 31.6481 60.9322 30.8478 61.3404 30.1009L59.2099 29.2205ZM63.4536 30.9742C63.0413 31.6735 62.7417 32.4389 62.5717 33.2407L66.434 32.2059L63.4536 30.9742ZM69.8827 33.631L68.5389 33.9911L69.0596 35.9342L69.4582 36.0935L71.3175 35.5953L70.9043 34.0532L69.8827 33.631ZM76.7785 36.4807L74.0956 37.1996L74.3196 38.0356L80.5498 40.5247C80.9132 39.8508 81.2131 39.1423 81.444 38.4087L76.7785 36.4807ZM85.7888 40.2042L83.5513 39.2796C83.3134 40.0006 83.019 40.7004 82.6721 41.3725L84.9247 42.2725C85.2577 41.6041 85.5467 40.9132 85.7888 40.2042ZM66.4299 34.8836L65.9386 34.6873L66.3479 34.5776L66.4299 34.8836Z" fill="url(#paint58_linear)"/>
</g>
</g>
<g filter="url(#filter17_dii)">
<rect x="45.5195" y="55.0338" width="70.5234" height="70.5234" rx="12.8874" fill="#FF0000"/>
</g>
<path d="M57.1763 61.3622V61.3622C53.7539 61.3622 50.9795 64.1366 50.9795 67.559V67.559" stroke="white" stroke-width="4.41854" stroke-linecap="round"/>
<g style="mix-blend-mode:overlay">
<path fill-rule="evenodd" clip-rule="evenodd" d="M48.9829 67.4882C48.9829 63.0365 52.5918 59.4276 57.0435 59.4276H71.675C72.7434 59.4276 73.6095 60.2937 73.6095 61.3622C73.6095 62.4306 72.7434 63.2967 71.675 63.2967H57.0435C54.7286 63.2967 52.852 65.1733 52.852 67.4882V82.1197C52.852 83.1881 51.9859 84.0542 50.9175 84.0542C49.849 84.0542 48.9829 83.1881 48.9829 82.1197V67.4882Z" fill="url(#paint59_linear)"/>
</g>
<g style="mix-blend-mode:overlay">
<path fill-rule="evenodd" clip-rule="evenodd" d="M112.336 113.978C112.336 118.43 108.727 122.039 104.275 122.039H89.6438C88.5754 122.039 87.7093 121.173 87.7093 120.104C87.7093 119.036 88.5754 118.17 89.6438 118.17H104.275C106.59 118.17 108.467 116.293 108.467 113.978V99.3469C108.467 98.2784 109.333 97.4123 110.401 97.4123C111.47 97.4123 112.336 98.2784 112.336 99.3469V113.978Z" fill="url(#paint60_linear)"/>
</g>
<g style="mix-blend-mode:overlay">
<path fill-rule="evenodd" clip-rule="evenodd" d="M48.9829 107.509C48.9829 115.842 54.1602 122.212 62.4931 122.212L107.826 122.212C109.826 122.212 111.447 120.59 111.447 118.591C111.447 116.591 113.447 71.8898 111.447 71.8898L99.3048 79.7357C94.9716 79.7357 91.4589 76.223 91.4589 71.8898L56.2252 79.7357C56.2252 77.7358 54.604 76.1145 52.6041 76.1145C50.6042 76.1145 48.9829 77.7358 48.9829 79.7357V107.509Z" fill="url(#paint61_linear)"/>
</g>
<path fill-rule="evenodd" clip-rule="evenodd" d="M97.214 75.977C99.0372 76.4773 100.473 77.9514 100.96 79.8235C101.846 83.2163 101.846 90.2954 101.846 90.2954C101.846 90.2954 101.846 97.3744 100.96 100.767C100.473 102.639 99.0372 104.114 97.214 104.614C93.9099 105.523 80.6595 105.523 80.6595 105.523C80.6595 105.523 67.4091 105.523 64.1048 104.614C62.2815 104.114 60.8457 102.639 60.3584 100.767C59.4731 97.3744 59.4731 90.2954 59.4731 90.2954C59.4731 90.2954 59.4731 83.2163 60.3584 79.8235C60.8457 77.9514 62.2815 76.4773 64.1048 75.977C67.4091 75.0677 80.6595 75.0677 80.6595 75.0677C80.6595 75.0677 93.9099 75.0677 97.214 75.977ZM76.6883 84.3322V97.5736L87.2815 90.9531L76.6883 84.3322Z" fill="url(#paint62_radial)"/>
<g style="mix-blend-mode:hard-light">
<path fill-rule="evenodd" clip-rule="evenodd" d="M49.105 66.9641C49.105 62.5123 52.7138 58.9034 57.1656 58.9034H71.7971C72.8655 58.9034 73.7316 59.7696 73.7316 60.838C73.7316 61.9064 72.8655 62.7725 71.7971 62.7725H57.1656C54.8507 62.7725 52.9741 64.6491 52.9741 66.9641V81.5955C52.9741 82.6639 52.1079 83.5301 51.0395 83.5301C49.9711 83.5301 49.105 82.6639 49.105 81.5955V66.9641Z" fill="url(#paint63_linear)"/>
</g>
<g style="mix-blend-mode:hard-light">
<path fill-rule="evenodd" clip-rule="evenodd" d="M49.1052 106.985C48.5579 118.066 51.605 121.687 59.938 121.687L107.948 121.688C109.948 121.688 111.569 120.066 111.569 118.066C111.569 116.066 113.569 71.3657 111.569 71.3657L99.4271 79.2115C95.0939 79.2115 91.5812 75.6988 91.5812 71.3657L56.3476 79.2115C56.3476 77.2116 54.7263 75.5904 52.7264 75.5904C50.7265 75.5904 49.1052 77.2116 49.1052 79.2115V106.985Z" fill="url(#paint64_linear)"/>
</g>
<defs>
<filter id="filter0_f" x="34.4732" y="0.814241" width="69.1355" height="69.1355" filterUnits="userSpaceOnUse" color-interpolation-filters="sRGB">
<feFlood flood-opacity="0" result="BackgroundImageFix"/>
<feBlend mode="normal" in="SourceGraphic" in2="BackgroundImageFix" result="shape"/>
<feGaussianBlur stdDeviation="5.52318" result="effect1_foregroundBlur"/>
</filter>
<filter id="filter1_f" x="74.2222" y="27.4555" width="69.1355" height="69.1355" filterUnits="userSpaceOnUse" color-interpolation-filters="sRGB">
<feFlood flood-opacity="0" result="BackgroundImageFix"/>
<feBlend mode="normal" in="SourceGraphic" in2="BackgroundImageFix" result="shape"/>
<feGaussianBlur stdDeviation="5.52318" result="effect1_foregroundBlur"/>
</filter>
<filter id="filter2_f" x="11.127" y="27.4555" width="69.1355" height="69.1355" filterUnits="userSpaceOnUse" color-interpolation-filters="sRGB">
<feFlood flood-opacity="0" result="BackgroundImageFix"/>
<feBlend mode="normal" in="SourceGraphic" in2="BackgroundImageFix" result="shape"/>
<feGaussianBlur stdDeviation="5.52318" result="effect1_foregroundBlur"/>
</filter>
<filter id="filter3_f" x="0.0859699" y="68.7979" width="69.1355" height="69.1355" filterUnits="userSpaceOnUse" color-interpolation-filters="sRGB">
<feFlood flood-opacity="0" result="BackgroundImageFix"/>
<feBlend mode="normal" in="SourceGraphic" in2="BackgroundImageFix" result="shape"/>
<feGaussianBlur stdDeviation="5.52318" result="effect1_foregroundBlur"/>
</filter>
<filter id="filter4_f" x="95.9937" y="67.4679" width="69.1355" height="69.1355" filterUnits="userSpaceOnUse" color-interpolation-filters="sRGB">
<feFlood flood-opacity="0" result="BackgroundImageFix"/>
<feBlend mode="normal" in="SourceGraphic" in2="BackgroundImageFix" result="shape"/>
<feGaussianBlur stdDeviation="5.52318" result="effect1_foregroundBlur"/>
</filter>
<filter id="filter5_d" x="61.732" y="39.0145" width="48.2725" height="48.2725" filterUnits="userSpaceOnUse" color-interpolation-filters="sRGB">
<feFlood flood-opacity="0" result="BackgroundImageFix"/>
<feColorMatrix in="SourceAlpha" type="matrix" values="0 0 0 0 0 0 0 0 0 0 0 0 0 0 0 0 0 0 127 0" result="hardAlpha"/>
<feOffset dy="7.36424"/>
<feGaussianBlur stdDeviation="3.68212"/>
<feColorMatrix type="matrix" values="0 0 0 0 0 0 0 0 0 0 0 0 0 0 0 0 0 0 0.25 0"/>
<feBlend mode="normal" in2="BackgroundImageFix" result="effect1_dropShadow"/>
<feBlend mode="normal" in="SourceGraphic" in2="effect1_dropShadow" result="shape"/>
</filter>
<filter id="filter6_i" x="71.5205" y="41.439" width="28.695" height="29.7375" filterUnits="userSpaceOnUse" color-interpolation-filters="sRGB">
<feFlood flood-opacity="0" result="BackgroundImageFix"/>
<feBlend mode="normal" in="SourceGraphic" in2="BackgroundImageFix" result="shape"/>
<feColorMatrix in="SourceAlpha" type="matrix" values="0 0 0 0 0 0 0 0 0 0 0 0 0 0 0 0 0 0 127 0" result="hardAlpha"/>
<feOffset dy="1.04249"/>
<feGaussianBlur stdDeviation="2.08497"/>
<feComposite in2="hardAlpha" operator="arithmetic" k2="-1" k3="1"/>
<feColorMatrix type="matrix" values="0 0 0 0 0.320833 0 0 0 0 0 0 0 0 0 0 0 0 0 0.25 0"/>
<feBlend mode="normal" in2="shape" result="effect1_innerShadow"/>
</filter>
<filter id="filter7_d" x="18.9571" y="43.8049" width="50.3517" height="50.3517" filterUnits="userSpaceOnUse" color-interpolation-filters="sRGB">
<feFlood flood-opacity="0" result="BackgroundImageFix"/>
<feColorMatrix in="SourceAlpha" type="matrix" values="0 0 0 0 0 0 0 0 0 0 0 0 0 0 0 0 0 0 127 0" result="hardAlpha"/>
<feOffset dy="7.36424"/>
<feGaussianBlur stdDeviation="3.68212"/>
<feColorMatrix type="matrix" values="0 0 0 0 0 0 0 0 0 0 0 0 0 0 0 0 0 0 0.25 0"/>
<feBlend mode="normal" in2="BackgroundImageFix" result="effect1_dropShadow"/>
<feBlend mode="normal" in="SourceGraphic" in2="effect1_dropShadow" result="shape"/>
</filter>
<filter id="filter8_i" x="28.8965" y="46.3796" width="30.4736" height="31.5161" filterUnits="userSpaceOnUse" color-interpolation-filters="sRGB">
<feFlood flood-opacity="0" result="BackgroundImageFix"/>
<feBlend mode="normal" in="SourceGraphic" in2="BackgroundImageFix" result="shape"/>
<feColorMatrix in="SourceAlpha" type="matrix" values="0 0 0 0 0 0 0 0 0 0 0 0 0 0 0 0 0 0 127 0" result="hardAlpha"/>
<feOffset dy="1.04249"/>
<feGaussianBlur stdDeviation="2.08497"/>
<feComposite in2="hardAlpha" operator="arithmetic" k2="-1" k3="1"/>
<feColorMatrix type="matrix" values="0 0 0 0 0.320833 0 0 0 0 0 0 0 0 0 0 0 0 0 0.25 0"/>
<feBlend mode="normal" in2="shape" result="effect1_innerShadow"/>
</filter>
<filter id="filter9_d" x="85.9546" y="47.5004" width="48.2725" height="48.2725" filterUnits="userSpaceOnUse" color-interpolation-filters="sRGB">
<feFlood flood-opacity="0" result="BackgroundImageFix"/>
<feColorMatrix in="SourceAlpha" type="matrix" values="0 0 0 0 0 0 0 0 0 0 0 0 0 0 0 0 0 0 127 0" result="hardAlpha"/>
<feOffset dy="7.36424"/>
<feGaussianBlur stdDeviation="3.68212"/>
<feColorMatrix type="matrix" values="0 0 0 0 0 0 0 0 0 0 0 0 0 0 0 0 0 0 0.25 0"/>
<feBlend mode="normal" in2="BackgroundImageFix" result="effect1_dropShadow"/>
<feBlend mode="normal" in="SourceGraphic" in2="effect1_dropShadow" result="shape"/>
</filter>
<filter id="filter10_i" x="95.7437" y="49.9248" width="28.695" height="29.7375" filterUnits="userSpaceOnUse" color-interpolation-filters="sRGB">
<feFlood flood-opacity="0" result="BackgroundImageFix"/>
<feBlend mode="normal" in="SourceGraphic" in2="BackgroundImageFix" result="shape"/>
<feColorMatrix in="SourceAlpha" type="matrix" values="0 0 0 0 0 0 0 0 0 0 0 0 0 0 0 0 0 0 127 0" result="hardAlpha"/>
<feOffset dy="1.04249"/>
<feGaussianBlur stdDeviation="2.08497"/>
<feComposite in2="hardAlpha" operator="arithmetic" k2="-1" k3="1"/>
<feColorMatrix type="matrix" values="0 0 0 0 0.320833 0 0 0 0 0 0 0 0 0 0 0 0 0 0.25 0"/>
<feBlend mode="normal" in2="shape" result="effect1_innerShadow"/>
</filter>
<filter id="filter11_d" x="90.0674" y="80.5332" width="60.4118" height="60.4118" filterUnits="userSpaceOnUse" color-interpolation-filters="sRGB">
<feFlood flood-opacity="0" result="BackgroundImageFix"/>
<feColorMatrix in="SourceAlpha" type="matrix" values="0 0 0 0 0 0 0 0 0 0 0 0 0 0 0 0 0 0 127 0" result="hardAlpha"/>
<feOffset dy="7.36424"/>
<feGaussianBlur stdDeviation="3.68212"/>
<feColorMatrix type="matrix" values="0 0 0 0 0 0 0 0 0 0 0 0 0 0 0 0 0 0 0.25 0"/>
<feBlend mode="normal" in2="BackgroundImageFix" result="effect1_dropShadow"/>
<feBlend mode="normal" in="SourceGraphic" in2="effect1_dropShadow" result="shape"/>
</filter>
<filter id="filter12_i" x="100.733" y="83.835" width="39.0795" height="40.122" filterUnits="userSpaceOnUse" color-interpolation-filters="sRGB">
<feFlood flood-opacity="0" result="BackgroundImageFix"/>
<feBlend mode="normal" in="SourceGraphic" in2="BackgroundImageFix" result="shape"/>
<feColorMatrix in="SourceAlpha" type="matrix" values="0 0 0 0 0 0 0 0 0 0 0 0 0 0 0 0 0 0 127 0" result="hardAlpha"/>
<feOffset dy="1.04249"/>
<feGaussianBlur stdDeviation="2.08497"/>
<feComposite in2="hardAlpha" operator="arithmetic" k2="-1" k3="1"/>
<feColorMatrix type="matrix" values="0 0 0 0 0.320833 0 0 0 0 0 0 0 0 0 0 0 0 0 0.25 0"/>
<feBlend mode="normal" in2="shape" result="effect1_innerShadow"/>
</filter>
<filter id="filter13_d" x="11.8194" y="82.5753" width="55.8114" height="55.8114" filterUnits="userSpaceOnUse" color-interpolation-filters="sRGB">
<feFlood flood-opacity="0" result="BackgroundImageFix"/>
<feColorMatrix in="SourceAlpha" type="matrix" values="0 0 0 0 0 0 0 0 0 0 0 0 0 0 0 0 0 0 127 0" result="hardAlpha"/>
<feOffset dy="7.36424"/>
<feGaussianBlur stdDeviation="3.68212"/>
<feColorMatrix type="matrix" values="0 0 0 0 0 0 0 0 0 0 0 0 0 0 0 0 0 0 0.25 0"/>
<feBlend mode="normal" in2="BackgroundImageFix" result="effect1_dropShadow"/>
<feBlend mode="normal" in="SourceGraphic" in2="effect1_dropShadow" result="shape"/>
</filter>
<filter id="filter14_i" x="22.1528" y="85.5446" width="35.1441" height="36.1866" filterUnits="userSpaceOnUse" color-interpolation-filters="sRGB">
<feFlood flood-opacity="0" result="BackgroundImageFix"/>
<feBlend mode="normal" in="SourceGraphic" in2="BackgroundImageFix" result="shape"/>
<feColorMatrix in="SourceAlpha" type="matrix" values="0 0 0 0 0 0 0 0 0 0 0 0 0 0 0 0 0 0 127 0" result="hardAlpha"/>
<feOffset dy="1.04249"/>
<feGaussianBlur stdDeviation="2.08497"/>
<feComposite in2="hardAlpha" operator="arithmetic" k2="-1" k3="1"/>
<feColorMatrix type="matrix" values="0 0 0 0 0.320833 0 0 0 0 0 0 0 0 0 0 0 0 0 0.25 0"/>
<feBlend mode="normal" in2="shape" result="effect1_innerShadow"/>
</filter>
<filter id="filter15_d" x="41.9673" y="14.2661" width="55.8114" height="55.8114" filterUnits="userSpaceOnUse" color-interpolation-filters="sRGB">
<feFlood flood-opacity="0" result="BackgroundImageFix"/>
<feColorMatrix in="SourceAlpha" type="matrix" values="0 0 0 0 0 0 0 0 0 0 0 0 0 0 0 0 0 0 127 0" result="hardAlpha"/>
<feOffset dy="7.36424"/>
<feGaussianBlur stdDeviation="3.68212"/>
<feColorMatrix type="matrix" values="0 0 0 0 0 0 0 0 0 0 0 0 0 0 0 0 0 0 0.25 0"/>
<feBlend mode="normal" in2="BackgroundImageFix" result="effect1_dropShadow"/>
<feBlend mode="normal" in="SourceGraphic" in2="effect1_dropShadow" result="shape"/>
</filter>
<filter id="filter16_i" x="52.3008" y="17.2357" width="35.1441" height="36.1866" filterUnits="userSpaceOnUse" color-interpolation-filters="sRGB">
<feFlood flood-opacity="0" result="BackgroundImageFix"/>
<feBlend mode="normal" in="SourceGraphic" in2="BackgroundImageFix" result="shape"/>
<feColorMatrix in="SourceAlpha" type="matrix" values="0 0 0 0 0 0 0 0 0 0 0 0 0 0 0 0 0 0 127 0" result="hardAlpha"/>
<feOffset dy="1.04249"/>
<feGaussianBlur stdDeviation="2.08497"/>
<feComposite in2="hardAlpha" operator="arithmetic" k2="-1" k3="1"/>
<feColorMatrix type="matrix" values="0 0 0 0 0.320833 0 0 0 0 0 0 0 0 0 0 0 0 0 0.25 0"/>
<feBlend mode="normal" in2="shape" result="effect1_innerShadow"/>
</filter>
<filter id="filter17_dii" x="23.8552" y="44.2937" width="113.477" height="113.477" filterUnits="userSpaceOnUse" color-interpolation-filters="sRGB">
<feFlood flood-opacity="0" result="BackgroundImageFix"/>
<feColorMatrix in="SourceAlpha" type="matrix" values="0 0 0 0 0 0 0 0 0 0 0 0 0 0 0 0 0 0 127 0" result="hardAlpha"/>
<feOffset dx="-0.187412" dy="10.7368"/>
<feGaussianBlur stdDeviation="10.7385"/>
<feColorMatrix type="matrix" values="0 0 0 0 0.776471 0 0 0 0 0 0 0 0 0 0 0 0 0 0.3975 0"/>
<feBlend mode="normal" in2="BackgroundImageFix" result="effect1_dropShadow"/>
<feBlend mode="normal" in="SourceGraphic" in2="effect1_dropShadow" result="shape"/>
<feColorMatrix in="SourceAlpha" type="matrix" values="0 0 0 0 0 0 0 0 0 0 0 0 0 0 0 0 0 0 127 0" result="hardAlpha"/>
<feOffset dx="-0.0770471" dy="4.41402"/>
<feGaussianBlur stdDeviation="2.20735"/>
<feComposite in2="hardAlpha" operator="arithmetic" k2="-1" k3="1"/>
<feColorMatrix type="matrix" values="0 0 0 0 0.776471 0 0 0 0 0 0 0 0 0 0 0 0 0 1 0"/>
<feBlend mode="normal" in2="shape" result="effect2_innerShadow"/>
<feColorMatrix in="SourceAlpha" type="matrix" values="0 0 0 0 0 0 0 0 0 0 0 0 0 0 0 0 0 0 127 0" result="hardAlpha"/>
<feOffset dx="0.0770471" dy="-4.41402"/>
<feGaussianBlur stdDeviation="2.20735"/>
<feComposite in2="hardAlpha" operator="arithmetic" k2="-1" k3="1"/>
<feColorMatrix type="matrix" values="0 0 0 0 0.775 0 0 0 0 0 0 0 0 0 0 0 0 0 1 0"/>
<feBlend mode="normal" in2="effect2_innerShadow" result="effect3_innerShadow"/>
</filter>
<radialGradient id="paint0_radial" cx="0" cy="0" r="1" gradientUnits="userSpaceOnUse" gradientTransform="translate(69.0409 35.382) rotate(90) scale(23.5214)">
<stop stop-color="#FFCE84"/>
<stop offset="1" stop-color="#FFCE84" stop-opacity="0"/>
</radialGradient>
<radialGradient id="paint1_radial" cx="0" cy="0" r="1" gradientUnits="userSpaceOnUse" gradientTransform="translate(108.79 62.0232) rotate(90) scale(23.5214)">
<stop stop-color="#FFCE84"/>
<stop offset="1" stop-color="#FFCE84" stop-opacity="0"/>
</radialGradient>
<radialGradient id="paint2_radial" cx="0" cy="0" r="1" gradientUnits="userSpaceOnUse" gradientTransform="translate(45.6947 62.0232) rotate(90) scale(23.5214)">
<stop stop-color="#FFCE84"/>
<stop offset="1" stop-color="#FFCE84" stop-opacity="0"/>
</radialGradient>
<radialGradient id="paint3_radial" cx="0" cy="0" r="1" gradientUnits="userSpaceOnUse" gradientTransform="translate(34.6537 103.366) rotate(90) scale(23.5214)">
<stop stop-color="#FFCE84"/>
<stop offset="1" stop-color="#FFCE84" stop-opacity="0"/>
</radialGradient>
<radialGradient id="paint4_radial" cx="0" cy="0" r="1" gradientUnits="userSpaceOnUse" gradientTransform="translate(130.561 102.036) rotate(90) scale(23.5214)">
<stop stop-color="#FFCE84"/>
<stop offset="1" stop-color="#FFCE84" stop-opacity="0"/>
</radialGradient>
<linearGradient id="paint5_linear" x1="97.8343" y1="40.3704" x2="87.3778" y2="67.8625" gradientUnits="userSpaceOnUse">
<stop stop-color="white"/>
<stop offset="1" stop-color="white" stop-opacity="0"/>
</linearGradient>
<linearGradient id="paint6_linear" x1="97.8343" y1="40.3704" x2="87.3778" y2="67.8625" gradientUnits="userSpaceOnUse">
<stop stop-color="white"/>
<stop offset="1" stop-color="white" stop-opacity="0"/>
</linearGradient>
<linearGradient id="paint7_linear" x1="97.8343" y1="40.3704" x2="87.3778" y2="67.8625" gradientUnits="userSpaceOnUse">
<stop stop-color="white"/>
<stop offset="1" stop-color="white" stop-opacity="0"/>
</linearGradient>
<linearGradient id="paint8_linear" x1="97.8343" y1="40.3704" x2="87.3778" y2="67.8625" gradientUnits="userSpaceOnUse">
<stop stop-color="white"/>
<stop offset="1" stop-color="white" stop-opacity="0"/>
</linearGradient>
<linearGradient id="paint9_linear" x1="97.8343" y1="40.3704" x2="87.3778" y2="67.8625" gradientUnits="userSpaceOnUse">
<stop stop-color="white"/>
<stop offset="1" stop-color="white" stop-opacity="0"/>
</linearGradient>
<linearGradient id="paint10_linear" x1="97.8343" y1="40.3704" x2="87.3778" y2="67.8625" gradientUnits="userSpaceOnUse">
<stop stop-color="white"/>
<stop offset="1" stop-color="white" stop-opacity="0"/>
</linearGradient>
<linearGradient id="paint11_linear" x1="97.8343" y1="40.3704" x2="87.3778" y2="67.8625" gradientUnits="userSpaceOnUse">
<stop stop-color="white"/>
<stop offset="1" stop-color="white" stop-opacity="0"/>
</linearGradient>
<linearGradient id="paint12_linear" x1="97.8343" y1="40.3704" x2="87.3778" y2="67.8625" gradientUnits="userSpaceOnUse">
<stop stop-color="white"/>
<stop offset="1" stop-color="white" stop-opacity="0"/>
</linearGradient>
<linearGradient id="paint13_linear" x1="97.8343" y1="40.3704" x2="87.3778" y2="67.8626" gradientUnits="userSpaceOnUse">
<stop stop-color="white"/>
<stop offset="1" stop-color="white" stop-opacity="0"/>
</linearGradient>
<linearGradient id="paint14_linear" x1="57.0618" y1="46.9983" x2="44.8664" y2="73.7644" gradientUnits="userSpaceOnUse">
<stop stop-color="white"/>
<stop offset="1" stop-color="white" stop-opacity="0"/>
</linearGradient>
<linearGradient id="paint15_linear" x1="57.0618" y1="46.9983" x2="44.8664" y2="73.7644" gradientUnits="userSpaceOnUse">
<stop stop-color="white"/>
<stop offset="1" stop-color="white" stop-opacity="0"/>
</linearGradient>
<linearGradient id="paint16_linear" x1="57.0618" y1="46.9983" x2="44.8664" y2="73.7644" gradientUnits="userSpaceOnUse">
<stop stop-color="white"/>
<stop offset="1" stop-color="white" stop-opacity="0"/>
</linearGradient>
<linearGradient id="paint17_linear" x1="57.0618" y1="46.9983" x2="44.8664" y2="73.7644" gradientUnits="userSpaceOnUse">
<stop stop-color="white"/>
<stop offset="1" stop-color="white" stop-opacity="0"/>
</linearGradient>
<linearGradient id="paint18_linear" x1="57.0618" y1="46.9983" x2="44.8664" y2="73.7644" gradientUnits="userSpaceOnUse">
<stop stop-color="white"/>
<stop offset="1" stop-color="white" stop-opacity="0"/>
</linearGradient>
<linearGradient id="paint19_linear" x1="57.0618" y1="46.9983" x2="44.8664" y2="73.7644" gradientUnits="userSpaceOnUse">
<stop stop-color="white"/>
<stop offset="1" stop-color="white" stop-opacity="0"/>
</linearGradient>
<linearGradient id="paint20_linear" x1="57.0618" y1="46.9983" x2="44.8664" y2="73.7644" gradientUnits="userSpaceOnUse">
<stop stop-color="white"/>
<stop offset="1" stop-color="white" stop-opacity="0"/>
</linearGradient>
<linearGradient id="paint21_linear" x1="57.0618" y1="46.9983" x2="44.8664" y2="73.7644" gradientUnits="userSpaceOnUse">
<stop stop-color="white"/>
<stop offset="1" stop-color="white" stop-opacity="0"/>
</linearGradient>
<linearGradient id="paint22_linear" x1="57.0616" y1="46.998" x2="44.8661" y2="73.7641" gradientUnits="userSpaceOnUse">
<stop stop-color="white"/>
<stop offset="1" stop-color="white" stop-opacity="0"/>
</linearGradient>
<linearGradient id="paint23_linear" x1="122.057" y1="48.8562" x2="111.6" y2="76.3484" gradientUnits="userSpaceOnUse">
<stop stop-color="white"/>
<stop offset="1" stop-color="white" stop-opacity="0"/>
</linearGradient>
<linearGradient id="paint24_linear" x1="122.057" y1="48.8562" x2="111.6" y2="76.3484" gradientUnits="userSpaceOnUse">
<stop stop-color="white"/>
<stop offset="1" stop-color="white" stop-opacity="0"/>
</linearGradient>
<linearGradient id="paint25_linear" x1="122.057" y1="48.8562" x2="111.6" y2="76.3484" gradientUnits="userSpaceOnUse">
<stop stop-color="white"/>
<stop offset="1" stop-color="white" stop-opacity="0"/>
</linearGradient>
<linearGradient id="paint26_linear" x1="122.057" y1="48.8562" x2="111.6" y2="76.3484" gradientUnits="userSpaceOnUse">
<stop stop-color="white"/>
<stop offset="1" stop-color="white" stop-opacity="0"/>
</linearGradient>
<linearGradient id="paint27_linear" x1="122.057" y1="48.8562" x2="111.6" y2="76.3484" gradientUnits="userSpaceOnUse">
<stop stop-color="white"/>
<stop offset="1" stop-color="white" stop-opacity="0"/>
</linearGradient>
<linearGradient id="paint28_linear" x1="122.057" y1="48.8562" x2="111.6" y2="76.3484" gradientUnits="userSpaceOnUse">
<stop stop-color="white"/>
<stop offset="1" stop-color="white" stop-opacity="0"/>
</linearGradient>
<linearGradient id="paint29_linear" x1="122.057" y1="48.8562" x2="111.6" y2="76.3484" gradientUnits="userSpaceOnUse">
<stop stop-color="white"/>
<stop offset="1" stop-color="white" stop-opacity="0"/>
</linearGradient>
<linearGradient id="paint30_linear" x1="122.057" y1="48.8562" x2="111.6" y2="76.3484" gradientUnits="userSpaceOnUse">
<stop stop-color="white"/>
<stop offset="1" stop-color="white" stop-opacity="0"/>
</linearGradient>
<linearGradient id="paint31_linear" x1="122.057" y1="48.8563" x2="111.6" y2="76.3485" gradientUnits="userSpaceOnUse">
<stop stop-color="white"/>
<stop offset="1" stop-color="white" stop-opacity="0"/>
</linearGradient>
<linearGradient id="paint32_linear" x1="138.261" y1="95.8074" x2="115.666" y2="114.639" gradientUnits="userSpaceOnUse">
<stop stop-color="white"/>
<stop offset="1" stop-color="white" stop-opacity="0"/>
</linearGradient>
<linearGradient id="paint33_linear" x1="138.261" y1="95.8074" x2="115.666" y2="114.639" gradientUnits="userSpaceOnUse">
<stop stop-color="white"/>
<stop offset="1" stop-color="white" stop-opacity="0"/>
</linearGradient>
<linearGradient id="paint34_linear" x1="138.261" y1="95.8074" x2="115.666" y2="114.639" gradientUnits="userSpaceOnUse">
<stop stop-color="white"/>
<stop offset="1" stop-color="white" stop-opacity="0"/>
</linearGradient>
<linearGradient id="paint35_linear" x1="138.261" y1="95.8074" x2="115.666" y2="114.639" gradientUnits="userSpaceOnUse">
<stop stop-color="white"/>
<stop offset="1" stop-color="white" stop-opacity="0"/>
</linearGradient>
<linearGradient id="paint36_linear" x1="138.261" y1="95.8074" x2="115.666" y2="114.639" gradientUnits="userSpaceOnUse">
<stop stop-color="white"/>
<stop offset="1" stop-color="white" stop-opacity="0"/>
</linearGradient>
<linearGradient id="paint37_linear" x1="138.261" y1="95.8074" x2="115.666" y2="114.639" gradientUnits="userSpaceOnUse">
<stop stop-color="white"/>
<stop offset="1" stop-color="white" stop-opacity="0"/>
</linearGradient>
<linearGradient id="paint38_linear" x1="138.261" y1="95.8074" x2="115.666" y2="114.639" gradientUnits="userSpaceOnUse">
<stop stop-color="white"/>
<stop offset="1" stop-color="white" stop-opacity="0"/>
</linearGradient>
<linearGradient id="paint39_linear" x1="138.261" y1="95.8074" x2="115.666" y2="114.639" gradientUnits="userSpaceOnUse">
<stop stop-color="white"/>
<stop offset="1" stop-color="white" stop-opacity="0"/>
</linearGradient>
<linearGradient id="paint40_linear" x1="138.261" y1="95.8074" x2="115.667" y2="114.639" gradientUnits="userSpaceOnUse">
<stop stop-color="white"/>
<stop offset="1" stop-color="white" stop-opacity="0"/>
</linearGradient>
<linearGradient id="paint41_linear" x1="47.2935" y1="85.1289" x2="44.3088" y2="114.391" gradientUnits="userSpaceOnUse">
<stop stop-color="white"/>
<stop offset="1" stop-color="white" stop-opacity="0"/>
</linearGradient>
<linearGradient id="paint42_linear" x1="47.2935" y1="85.1289" x2="44.3088" y2="114.391" gradientUnits="userSpaceOnUse">
<stop stop-color="white"/>
<stop offset="1" stop-color="white" stop-opacity="0"/>
</linearGradient>
<linearGradient id="paint43_linear" x1="47.2935" y1="85.1289" x2="44.3088" y2="114.391" gradientUnits="userSpaceOnUse">
<stop stop-color="white"/>
<stop offset="1" stop-color="white" stop-opacity="0"/>
</linearGradient>
<linearGradient id="paint44_linear" x1="47.2935" y1="85.1289" x2="44.3088" y2="114.391" gradientUnits="userSpaceOnUse">
<stop stop-color="white"/>
<stop offset="1" stop-color="white" stop-opacity="0"/>
</linearGradient>
<linearGradient id="paint45_linear" x1="47.2935" y1="85.1289" x2="44.3088" y2="114.391" gradientUnits="userSpaceOnUse">
<stop stop-color="white"/>
<stop offset="1" stop-color="white" stop-opacity="0"/>
</linearGradient>
<linearGradient id="paint46_linear" x1="47.2935" y1="85.1289" x2="44.3088" y2="114.391" gradientUnits="userSpaceOnUse">
<stop stop-color="white"/>
<stop offset="1" stop-color="white" stop-opacity="0"/>
</linearGradient>
<linearGradient id="paint47_linear" x1="47.2935" y1="85.1289" x2="44.3088" y2="114.391" gradientUnits="userSpaceOnUse">
<stop stop-color="white"/>
<stop offset="1" stop-color="white" stop-opacity="0"/>
</linearGradient>
<linearGradient id="paint48_linear" x1="47.2935" y1="85.1289" x2="44.3088" y2="114.391" gradientUnits="userSpaceOnUse">
<stop stop-color="white"/>
<stop offset="1" stop-color="white" stop-opacity="0"/>
</linearGradient>
<linearGradient id="paint49_linear" x1="47.2936" y1="85.1288" x2="44.309" y2="114.391" gradientUnits="userSpaceOnUse">
<stop stop-color="white"/>
<stop offset="1" stop-color="white" stop-opacity="0"/>
</linearGradient>
<linearGradient id="paint50_linear" x1="77.4414" y1="16.8198" x2="74.4568" y2="46.0816" gradientUnits="userSpaceOnUse">
<stop stop-color="white"/>
<stop offset="1" stop-color="white" stop-opacity="0"/>
</linearGradient>
<linearGradient id="paint51_linear" x1="77.4414" y1="16.8198" x2="74.4568" y2="46.0816" gradientUnits="userSpaceOnUse">
<stop stop-color="white"/>
<stop offset="1" stop-color="white" stop-opacity="0"/>
</linearGradient>
<linearGradient id="paint52_linear" x1="77.4414" y1="16.8198" x2="74.4568" y2="46.0816" gradientUnits="userSpaceOnUse">
<stop stop-color="white"/>
<stop offset="1" stop-color="white" stop-opacity="0"/>
</linearGradient>
<linearGradient id="paint53_linear" x1="77.4414" y1="16.8198" x2="74.4568" y2="46.0816" gradientUnits="userSpaceOnUse">
<stop stop-color="white"/>
<stop offset="1" stop-color="white" stop-opacity="0"/>
</linearGradient>
<linearGradient id="paint54_linear" x1="77.4414" y1="16.8198" x2="74.4568" y2="46.0816" gradientUnits="userSpaceOnUse">
<stop stop-color="white"/>
<stop offset="1" stop-color="white" stop-opacity="0"/>
</linearGradient>
<linearGradient id="paint55_linear" x1="77.4414" y1="16.8198" x2="74.4568" y2="46.0816" gradientUnits="userSpaceOnUse">
<stop stop-color="white"/>
<stop offset="1" stop-color="white" stop-opacity="0"/>
</linearGradient>
<linearGradient id="paint56_linear" x1="77.4414" y1="16.8198" x2="74.4568" y2="46.0816" gradientUnits="userSpaceOnUse">
<stop stop-color="white"/>
<stop offset="1" stop-color="white" stop-opacity="0"/>
</linearGradient>
<linearGradient id="paint57_linear" x1="77.4414" y1="16.8198" x2="74.4568" y2="46.0816" gradientUnits="userSpaceOnUse">
<stop stop-color="white"/>
<stop offset="1" stop-color="white" stop-opacity="0"/>
</linearGradient>
<linearGradient id="paint58_linear" x1="77.4411" y1="16.8198" x2="74.4565" y2="46.0816" gradientUnits="userSpaceOnUse">
<stop stop-color="white"/>
<stop offset="1" stop-color="white" stop-opacity="0"/>
</linearGradient>
<linearGradient id="paint59_linear" x1="46.7728" y1="55.6686" x2="61.2962" y2="73.403" gradientUnits="userSpaceOnUse">
<stop stop-color="white"/>
<stop offset="1" stop-color="white" stop-opacity="0"/>
</linearGradient>
<linearGradient id="paint60_linear" x1="114.546" y1="125.798" x2="101.279" y2="111.262" gradientUnits="userSpaceOnUse">
<stop stop-color="white"/>
<stop offset="1" stop-color="white" stop-opacity="0"/>
</linearGradient>
<linearGradient id="paint61_linear" x1="44.846" y1="129.248" x2="72.0315" y2="96.0519" gradientUnits="userSpaceOnUse">
<stop stop-color="white"/>
<stop offset="1" stop-color="white" stop-opacity="0"/>
</linearGradient>
<radialGradient id="paint62_radial" cx="0" cy="0" r="1" gradientUnits="userSpaceOnUse" gradientTransform="translate(82.0419 94.2971) rotate(90) scale(37.5128 52.1917)">
<stop stop-color="white"/>
<stop offset="1" stop-color="white" stop-opacity="0"/>
</radialGradient>
<linearGradient id="paint63_linear" x1="46.8949" y1="55.1444" x2="61.4183" y2="72.8789" gradientUnits="userSpaceOnUse">
<stop stop-color="white"/>
<stop offset="1" stop-color="white" stop-opacity="0"/>
</linearGradient>
<linearGradient id="paint64_linear" x1="44.9683" y1="128.724" x2="72.1538" y2="95.5277" gradientUnits="userSpaceOnUse">
<stop stop-color="#FFAFAF"/>
<stop offset="1" stop-color="white" stop-opacity="0"/>
</linearGradient>
</defs>
</svg>
