<svg width="41" height="41" viewBox="0 0 41 41" fill="none" xmlns="http://www.w3.org/2000/svg">
<circle cx="20.5127" cy="20.7642" r="20" fill="#F6F6FF"/>
<circle cx="20.5123" cy="20.7642" r="18.8804" stroke="#162746" stroke-linecap="round" stroke-dasharray="3 5"/>
<circle cx="20.5118" cy="20.7643" r="15.9454" stroke="#162746" stroke-linecap="round" stroke-dasharray="1 5"/>
<path d="M31.2986 18.4495C31.1405 17.7867 30.9285 16.9466 30.6702 16.6266H30.1259H29.2553H28.5308H25.047H12.4344C13.6733 13.7469 16.8512 12.017 20.4827 12.017C22.6663 12.017 24.6853 12.467 26.218 13.7469H29.0817C28.543 13.267 27.904 12.5331 27.1774 12.0284C25.3089 10.7296 22.9311 10.0234 20.4827 10.0234C18.0341 10.0234 15.6565 10.7432 13.7877 12.0416C11.8887 13.3613 10.5853 15.2548 10.1175 17.3248L9.84712 18.5464H17.544V21.1062H9.38477V23.026H17.544V31.5051H19.4638V23.026H21.2236V31.5051H23.19V23.026H29.5133H31.4318H31.504C31.7366 21.4261 31.6715 20.0096 31.2986 18.4495ZM21.2236 21.1062H19.4638V18.5464H21.2236V21.1062ZM23.19 21.1062V18.5464H29.2639C29.3037 18.5464 29.3421 18.8018 29.3765 18.9449C29.5523 19.6807 29.6496 20.4662 29.6699 21.1062H23.19Z" fill="#162746"/>
</svg>
