<svg width="138" height="138" viewBox="0 0 138 138" fill="none" xmlns="http://www.w3.org/2000/svg">
<path d="M137.79 68.895C137.79 106.945 106.945 137.79 68.895 137.79C30.8453 137.79 0 106.945 0 68.895C0 30.8453 30.8453 0 68.895 0C106.945 0 137.79 30.8453 137.79 68.895Z" fill="#9495FF"/>
<g filter="url(#filter0_f_381_10375)">
<path d="M74.3097 117.625C74.3097 118.863 62.5232 119.866 47.9839 119.866C33.4446 119.866 21.6582 118.863 21.6582 117.625C21.6582 116.388 33.4446 115.385 47.9839 115.385C62.5232 115.385 74.3097 116.388 74.3097 117.625Z" fill="url(#paint0_radial_381_10375)" fill-opacity="0.5"/>
</g>
<g filter="url(#filter1_f_381_10375)">
<path d="M119.493 63.1072C119.493 64.3446 107.706 65.3477 93.167 65.3477C78.6277 65.3477 66.8413 64.3446 66.8413 63.1072C66.8413 61.8698 78.6277 60.8667 93.167 60.8667C107.706 60.8667 119.493 61.8698 119.493 63.1072Z" fill="url(#paint1_radial_381_10375)" fill-opacity="0.2"/>
</g>
<circle cx="92.9934" cy="43.6895" r="30.9934" fill="url(#paint2_radial_381_10375)"/>
<path d="M82.402 13.0288C82.4443 12.9145 82.606 12.9145 82.6483 13.0288L83.1093 14.2748C83.1226 14.3107 83.151 14.3391 83.1869 14.3524L84.4329 14.8134C84.5472 14.8557 84.5472 15.0174 84.4329 15.0597L83.1869 15.5207C83.151 15.534 83.1226 15.5624 83.1093 15.5983L82.6483 16.8442C82.606 16.9585 82.4443 16.9585 82.402 16.8442L81.941 15.5983C81.9277 15.5624 81.8993 15.534 81.8634 15.5207L80.6175 15.0597C80.5031 15.0174 80.5031 14.8557 80.6175 14.8134L81.8634 14.3524C81.8993 14.3391 81.9277 14.3107 81.941 14.2748L82.402 13.0288Z" fill="#00B7FA"/>
<path d="M118.188 58.7519C118.251 58.5804 118.494 58.5804 118.557 58.7519L119.249 60.6208C119.269 60.6747 119.311 60.7172 119.365 60.7371L121.234 61.4287C121.405 61.4922 121.405 61.7347 121.234 61.7981L119.365 62.4897C119.311 62.5096 119.269 62.5521 119.249 62.6061L118.557 64.475C118.494 64.6464 118.251 64.6464 118.188 64.475L117.496 62.6061C117.476 62.5521 117.434 62.5096 117.38 62.4897L115.511 61.7981C115.339 61.7347 115.339 61.4922 115.511 61.4287L117.38 60.7371C117.434 60.7172 117.476 60.6747 117.496 60.6208L118.188 58.7519Z" fill="#00B7FA"/>
<path d="M76.8414 9.9306C76.8696 9.85439 76.9774 9.85439 77.0056 9.9306L77.3129 10.7612C77.3218 10.7852 77.3407 10.8041 77.3646 10.8129L78.1953 11.1203C78.2715 11.1485 78.2715 11.2563 78.1953 11.2845L77.3646 11.5919C77.3407 11.6007 77.3218 11.6196 77.3129 11.6436L77.0056 12.4742C76.9774 12.5504 76.8696 12.5504 76.8414 12.4742L76.534 11.6436C76.5251 11.6196 76.5063 11.6007 76.4823 11.5919L75.6517 11.2845C75.5755 11.2563 75.5755 11.1485 75.6517 11.1203L76.4823 10.8129C76.5063 10.8041 76.5251 10.7852 76.534 10.7612L76.8414 9.9306Z" fill="white" fill-opacity="0.5"/>
<path d="M119.37 48.5032C119.412 48.3889 119.574 48.3889 119.616 48.5032L120.077 49.7491C120.09 49.7851 120.119 49.8134 120.155 49.8267L121.401 50.2878C121.515 50.3301 121.515 50.4917 121.401 50.534L120.155 50.9951C120.119 51.0084 120.09 51.0367 120.077 51.0727L119.616 52.3186C119.574 52.4329 119.412 52.4329 119.37 52.3186L118.909 51.0727C118.895 51.0367 118.867 51.0084 118.831 50.9951L117.585 50.534C117.471 50.4917 117.471 50.3301 117.585 50.2878L118.831 49.8267C118.867 49.8134 118.895 49.7851 118.909 49.7491L119.37 48.5032Z" fill="white"/>
<path d="M73.4401 20.4971C73.4824 20.3828 73.6441 20.3828 73.6864 20.4971L74.1474 21.743C74.1607 21.779 74.1891 21.8073 74.225 21.8206L75.4709 22.2817C75.5853 22.324 75.5853 22.4856 75.4709 22.5279L74.225 22.989C74.1891 23.0023 74.1607 23.0306 74.1474 23.0666L73.6864 24.3125C73.6441 24.4268 73.4824 24.4268 73.4401 24.3125L72.9791 23.0666C72.9658 23.0306 72.9374 23.0023 72.9015 22.989L71.6555 22.5279C71.5412 22.4856 71.5412 22.324 71.6555 22.2817L72.9015 21.8206C72.9374 21.8073 72.9658 21.779 72.9791 21.743L73.4401 20.4971Z" fill="white"/>
<path d="M109.661 17.5098C109.703 17.3955 109.865 17.3955 109.907 17.5098L110.368 18.7557C110.381 18.7917 110.41 18.82 110.446 18.8333L111.692 19.2943C111.806 19.3366 111.806 19.4983 111.692 19.5406L110.446 20.0017C110.41 20.015 110.381 20.0433 110.368 20.0792L109.907 21.3252C109.865 21.4395 109.703 21.4395 109.661 21.3252L109.2 20.0792C109.186 20.0433 109.158 20.015 109.122 20.0017L107.876 19.5406C107.762 19.4983 107.762 19.3366 107.876 19.2943L109.122 18.8333C109.158 18.82 109.186 18.7917 109.2 18.7557L109.661 17.5098Z" fill="white" fill-opacity="0.5"/>
<g filter="url(#filter2_d_381_10375)">
<path d="M51.3103 68.4603C51.3103 68.4603 55.2677 74.9991 59.0843 76.1271C62.9009 77.2551 65.9991 72.7015 67.2127 67.9751" stroke="url(#paint3_linear_381_10375)" stroke-width="5.55671" stroke-linecap="round"/>
<path d="M60.3173 74.3342C60.574 74.9727 60.9111 75.7343 60.7142 77.5976" stroke="#C7D2D7" stroke-opacity="0.3" stroke-width="1.312" stroke-linecap="round"/>
<path d="M58.5618 74.1582C58.6698 74.6503 58.8281 75.2468 58.243 76.3921" stroke="#C7D2D7" stroke-opacity="0.3" stroke-width="1.312" stroke-linecap="round"/>
<path d="M62.205 73.8447C62.6075 74.1478 63.1161 74.4973 63.418 75.7475" stroke="#C7D2D7" stroke-opacity="0.3" stroke-width="1.312" stroke-linecap="round"/>
</g>
<g filter="url(#filter3_d_381_10375)">
<g filter="url(#filter4_d_381_10375)">
<path d="M46.9723 64.2046C50.3473 63.8255 53.577 65.812 54.5697 69.1566C56.8076 76.6964 58.7838 86.6594 57.3295 89.9635C55.7328 93.591 51.417 95.1243 48.6076 95.5907L48.6085 95.5979C48.4157 95.6292 48.2043 95.6574 47.9769 95.6812C47.7499 95.7084 47.5374 95.7278 47.3426 95.7401L47.3418 95.7329C44.499 95.9014 39.9506 95.3638 37.5889 92.181C35.4378 89.2819 35.1543 79.1288 35.6635 71.2803C35.8895 67.7989 38.598 65.1453 41.973 64.7662L46.9723 64.2046Z" fill="url(#paint4_linear_381_10375)"/>
<g filter="url(#filter5_d_381_10375)">
<rect x="38.4026" y="73.5063" width="6.94353" height="5.59924" rx="0.803635" transform="rotate(-6.40923 38.4026 73.5063)" fill="url(#paint5_linear_381_10375)"/>
<rect x="38.2546" y="73.3882" width="7.21141" height="5.86712" rx="0.937574" transform="rotate(-6.40923 38.2546 73.3882)" stroke="#EFF2F3" stroke-width="0.267878"/>
</g>
<path d="M41.1913 75.5294L41.183 75.5304C41.3158 75.1731 41.6386 74.9023 42.0411 74.8571C42.3008 74.8279 42.5488 74.8976 42.7483 75.0363L42.7546 75.0356L43.1668 74.9893C42.884 74.672 42.4584 74.4921 42.0058 74.5429C41.3152 74.6205 40.8049 75.208 40.8034 75.8912L41.6723 75.7935L41.7076 76.1076L40.8385 76.2052L40.8391 76.2076C40.8639 76.3146 40.901 76.4161 40.9485 76.5111L41.7428 76.4218L41.8326 77.2214C41.9357 77.2473 42.0433 77.2611 42.1531 77.2616L42.0548 76.3869L42.3668 76.3518L42.4651 77.2266C42.5721 77.2018 42.6738 77.1645 42.7687 77.1164L42.6788 76.3167L43.4731 76.2275C43.5107 76.0746 43.5224 75.9126 43.5038 75.7468C43.4852 75.5811 43.4378 75.4257 43.3672 75.285L43.1824 75.3058L41.1913 75.5294ZM42.3316 76.0376L42.0196 76.0726L41.9843 75.7585L42.2963 75.7235L42.3316 76.0376ZM43.1978 75.9403L42.6437 76.0025L42.6084 75.6884L43.1625 75.6262C43.176 75.6765 43.1859 75.7285 43.1919 75.7819C43.1979 75.8353 43.1998 75.8882 43.1978 75.9403Z" fill="#9FF9FF"/>
<path d="M41.9338 73.9114C40.8439 74.0338 40.0604 75.0225 40.1836 76.1197C40.3069 77.2168 41.2902 78.0071 42.3801 77.8847C43.4699 77.7622 44.2535 76.7735 44.1302 75.6764C44.007 74.5792 43.0236 73.789 41.9338 73.9114ZM42.3447 77.57C41.4275 77.673 40.5999 77.008 40.4962 76.0846C40.3925 75.1612 41.0519 74.3291 41.9691 74.2261C42.8863 74.1231 43.7139 74.7881 43.8176 75.7115C43.9214 76.6348 43.2619 77.4669 42.3447 77.57Z" fill="#9FF9FF"/>
<g filter="url(#filter6_d_381_10375)">
<ellipse cx="50.011" cy="73.3899" rx="1.14788" ry="1.18022" transform="rotate(-6.40923 50.011 73.3899)" fill="url(#paint6_radial_381_10375)"/>
<path d="M50.1577 74.6959C50.8646 74.6164 51.3654 73.9646 51.2848 73.2468C51.2042 72.5291 50.5712 72.0046 49.8643 72.084C49.1573 72.1634 48.6565 72.8153 48.7372 73.533C48.8178 74.2507 49.4507 74.7753 50.1577 74.6959Z" stroke="#EFF2F3" stroke-width="0.267878"/>
</g>
<g filter="url(#filter7_d_381_10375)">
<ellipse cx="50.3726" cy="76.6084" rx="1.14788" ry="1.18022" transform="rotate(-6.40923 50.3726 76.6084)" fill="url(#paint7_radial_381_10375)"/>
<path d="M50.5193 77.9144C51.2263 77.8349 51.727 77.1831 51.6464 76.4653C51.5658 75.7476 50.9329 75.2231 50.2259 75.3025C49.5189 75.3819 49.0182 76.0338 49.0988 76.7515C49.1794 77.4693 49.8123 77.9938 50.5193 77.9144Z" stroke="#EFF2F3" stroke-width="0.267878"/>
</g>
<path d="M48.5521 90.9337L48.6086 86.4695L57.5371 86.5825L57.4806 91.0467L48.5521 90.9337ZM58.6364 106.26C58.9117 108.71 57.1484 110.92 54.6981 111.195C52.2477 111.47 50.0382 109.707 49.7629 107.257L58.6364 106.26ZM57.4806 91.0467C57.4254 95.409 58.2546 102.861 58.6364 106.26L49.7629 107.257C49.4047 104.068 48.4882 95.9796 48.5521 90.9337L57.4806 91.0467Z" fill="white"/>
<path d="M46.458 95.3347L47.705 91.0477L39.1311 88.5537L37.8841 92.8407L46.458 95.3347ZM34.8068 107.281C34.3199 109.698 35.8846 112.053 38.3018 112.54C40.719 113.027 43.0733 111.462 43.5602 109.045L34.8068 107.281ZM37.8841 92.8407C37.5732 93.9096 36.7784 97.68 36.1201 100.857C35.7762 102.517 35.4479 104.123 35.2058 105.313C35.0847 105.908 34.9851 106.399 34.9157 106.743C34.8809 106.914 34.8538 107.049 34.8353 107.14C34.826 107.186 34.8189 107.221 34.8142 107.245C34.8118 107.257 34.8099 107.266 34.8087 107.272C34.8081 107.275 34.8076 107.277 34.8073 107.279C34.8072 107.28 34.807 107.28 34.807 107.281C34.8069 107.281 34.8069 107.281 34.8069 107.281C34.8068 107.281 34.8068 107.281 39.1835 108.163C43.5602 109.045 43.5602 109.045 43.5603 109.045C43.5603 109.045 43.5603 109.044 43.5603 109.044C43.5604 109.044 43.5605 109.043 43.5607 109.043C43.5609 109.041 43.5614 109.039 43.562 109.036C43.5631 109.03 43.5649 109.022 43.5672 109.01C43.5719 108.987 43.5789 108.952 43.588 108.907C43.6063 108.817 43.6332 108.683 43.6676 108.513C43.7365 108.173 43.8355 107.684 43.9558 107.093C44.1966 105.909 44.5226 104.315 44.8637 102.669C45.2052 101.02 45.56 99.3292 45.859 97.9496C46.0087 97.2589 46.1421 96.6573 46.2513 96.1832C46.306 95.946 46.3526 95.7499 46.3906 95.5957C46.4095 95.519 46.4251 95.4577 46.4376 95.4103C46.4437 95.387 46.4486 95.3688 46.4523 95.3553C46.4541 95.3486 46.4555 95.3436 46.4565 95.34C46.4576 95.3364 46.458 95.3347 46.458 95.3347L37.8841 92.8407Z" fill="white"/>
<path d="M56.1148 91.1631C53.5174 93.6302 46.466 97.4678 39.0394 93.0812" stroke="#C7D2D7" stroke-opacity="0.3" stroke-width="1.51798" stroke-linecap="round"/>
<path d="M56.2137 96.6614C55.3016 97.0368 54.2168 97.5178 51.4521 97.5985" stroke="#C7D2D7" stroke-opacity="0.3" stroke-width="1.51798" stroke-linecap="round"/>
<path d="M39.2111 96.9731C40.1237 97.359 41.209 97.8525 43.9739 97.9648" stroke="#C7D2D7" stroke-opacity="0.3" stroke-width="1.51798" stroke-linecap="round"/>
<path d="M54.1237 100.389C53.659 100.495 53.1039 100.637 51.7758 100.455" stroke="#C7D2D7" stroke-opacity="0.3" stroke-width="1.51798" stroke-linecap="round"/>
<path d="M39.6119 100.036C40.0674 100.183 40.6105 100.374 41.9475 100.31" stroke="#C7D2D7" stroke-opacity="0.3" stroke-width="1.51798" stroke-linecap="round"/>
</g>
<g filter="url(#filter8_d_381_10375)">
<path d="M36.2413 69.2926C32.6409 71.1173 29.9894 75.2916 29.4254 78.7873C29.0115 81.3524 29.1966 85.2095 31.8194 88.4873" stroke="url(#paint8_linear_381_10375)" stroke-width="6.42908" stroke-linecap="round"/>
<path d="M31.4357 78.8503C30.7012 78.8341 29.8119 78.8453 28.0734 77.8617" stroke="#C7D2D7" stroke-opacity="0.3" stroke-width="1.51798" stroke-linecap="round"/>
<path d="M31.9403 76.2273C31.4886 76.227 30.9297 76.2532 30.2281 75.4397" stroke="#C7D2D7" stroke-opacity="0.3" stroke-width="1.51798" stroke-linecap="round"/>
<path d="M30.772 81.0759C30.3912 81.2418 29.9341 81.4647 28.9086 81.182" stroke="#C7D2D7" stroke-opacity="0.3" stroke-width="1.51798" stroke-linecap="round"/>
</g>
<path d="M28.8013 86.8609C27.5966 87.6481 27.4299 89.3325 28.4583 90.3259L30.4075 92.2088C30.6463 92.4395 30.9258 92.6078 31.224 92.7124C35.7377 97.7889 35.0237 100.789 37.292 99.827C38.6498 98.5882 39.042 96.3834 38.3343 93.1763C38.2927 93.0763 38.2516 92.9776 38.2115 92.8805C39.0459 93.8419 39.8771 93.5738 40.0786 92.8307C40.2685 92.13 38.9009 90.8588 37.3546 89.7516C37.1275 89.6185 36.8251 89.4557 36.4755 89.2914C36.55 88.865 36.5003 88.4157 36.3117 87.9994L35.2805 85.7223C34.7131 84.4695 33.1456 84.0222 31.9836 84.7815L28.8013 86.8609Z" fill="#282522"/>
<g filter="url(#filter9_d_381_10375)">
<path d="M41.9802 67.9536C33.5014 67.6087 26.9075 60.4557 27.2524 51.9769C27.5973 43.4981 34.7503 36.9042 43.2291 37.2491C51.7079 37.594 58.3018 44.747 57.9569 53.2258C57.612 61.7046 50.459 68.2985 41.9802 67.9536Z" fill="url(#paint9_radial_381_10375)"/>
<path d="M32.4788 53.8931C32.7136 55.9837 33.4067 57.0531 35.2448 57.453L50.8574 55.6993C52.5611 54.9014 52.9996 53.705 52.7647 51.6144C51.9299 44.1823 47.0842 41.9815 41.4824 42.6108C35.8806 43.2401 31.6374 46.4031 32.4788 53.8931Z" fill="url(#paint10_linear_381_10375)" stroke="#AE6666" stroke-opacity="0.5" stroke-width="0.267878"/>
<g style="mix-blend-mode:multiply">
<path d="M32.9934 49.4084C34.0745 46.0192 35.8534 43.8749 40.9432 42.915C38.3344 44.1621 40.4282 46.9264 40.5094 50.0155C40.6097 53.6648 34.9931 55.007 36.0176 56.0505C36.3444 56.3782 36.8094 56.5465 37.2714 56.4977L51.1393 55.0072C50.9757 55.3611 50.9586 55.499 50.4643 55.5487L35.608 57.2175C35.146 57.2663 34.0119 57.0953 33.1535 55.7472C32.5827 54.8506 32.7364 50.2139 32.9934 49.4084Z" fill="url(#paint11_radial_381_10375)"/>
</g>
<path d="M34.9275 53.4637C34.7227 54.6432 36.1602 56.072 37.4452 55.9277" stroke="white" stroke-width="1.43709" stroke-linecap="round"/>
<path d="M49.6083 48.7688C49.2197 47.2273 47.4647 44.2357 43.5536 44.6012" stroke="white" stroke-width="1.82032" stroke-linecap="round"/>
</g>
<path fill-rule="evenodd" clip-rule="evenodd" d="M58.238 102.992C56.3415 103.478 53.2319 104.256 49.9955 103.801C49.4241 103.721 48.9062 104.208 49.0035 104.777L50.2499 112.063C50.2622 112.135 50.2837 112.204 50.3145 112.269L50.2391 112.276C50.2749 112.794 50.437 114.391 50.5568 115.572C50.6035 116.031 50.6437 116.427 50.6675 116.672C50.8043 118.076 55.1127 117.656 55.8202 116.878C56.455 117.515 57.8799 117.381 58.5182 117.322C58.6065 117.313 58.6797 117.306 58.7337 117.303C62.4423 117.082 64.0677 116.346 64.2885 115.933C64.2885 115.933 64.7157 115.723 64.5753 114.282C64.3694 112.169 61.5819 112.026 59.0125 111.971L59.2109 103.773C59.2236 103.25 58.7443 102.862 58.238 102.992Z" fill="#282522"/>
<path d="M57.9931 115.123C61.1555 115.771 63.5572 114.795 64.3343 114.32C64.1046 111.963 60.3481 112.104 58.8222 112.252C56.16 112.512 56.8624 112.656 56.1798 113.486C55.25 114.617 54.8308 114.474 57.9931 115.123Z" fill="url(#paint12_linear_381_10375)"/>
<path fill-rule="evenodd" clip-rule="evenodd" d="M35.6947 102.987C37.5359 103.586 40.4951 104.432 43.8065 104.263C44.3687 104.234 44.8248 104.747 44.6909 105.294L43.0111 112.152C42.9899 112.238 42.9552 112.321 42.9074 112.394C42.7857 113.103 42.4963 114.683 42.2801 115.509C42.0616 116.344 41.8696 116.83 41.1831 116.997C40.5062 118.351 38.7437 119.179 35.2307 118.424C31.7517 117.675 31.7607 117.007 31.7652 116.669C31.7652 116.665 31.7653 116.662 31.7653 116.659C31.7103 116.932 31.6933 117.016 32.0661 115.163C32.281 114.095 33.1465 113.07 34.342 112.331C34.1755 112.179 34.0918 111.953 34.1073 111.721L34.643 103.695C34.678 103.172 35.1957 102.825 35.6947 102.987Z" fill="#282522"/>
<path d="M39.2273 115.999C37.1404 116.534 33.0471 115.154 32.6187 114.669C32.4801 113.707 34.229 112.365 35.3834 112.215C37.1056 111.99 39.3046 112.667 39.747 113.415C39.9132 113.696 41.3142 115.463 39.2273 115.999Z" fill="url(#paint13_linear_381_10375)"/>
</g>
<path d="M67.2968 72.3992C68.4939 73.3568 70.2541 72.9656 70.9178 71.5945L72.1756 68.9958C72.3297 68.6773 72.4072 68.3386 72.4139 68.002C74.8299 66.4799 75.6853 65.5296 73.9445 62.5889C72.3533 59.901 72.3134 59.103 70.5198 60.6512C70.4325 60.7266 69.0842 61.6997 68.9992 61.7725C69.6949 60.6084 67.8918 58.7693 67.2158 59.2211C66.5398 59.673 66.935 60.5669 67.0413 61.7862C66.9442 63.3823 67.2558 63.4155 67.2057 63.824C66.7494 63.8903 66.3112 64.0899 65.9525 64.4192L63.9905 66.2199C62.9112 67.2105 62.9795 68.9458 64.1342 69.8694L67.2968 72.3992Z" fill="#282522"/>
<path d="M99.1294 52.9277C98.9542 52.7351 98.7625 52.6028 98.5555 52.5301C98.3486 52.4575 98.1354 52.432 97.9152 52.4531C97.6896 52.4748 97.4788 52.5375 97.2822 52.6429C97.0856 52.7482 96.9168 52.9103 96.7751 53.1299C96.6333 53.3496 96.5315 53.6255 96.4715 53.9582C96.4108 54.2903 96.4 54.6912 96.4391 55.1617C96.489 55.6189 96.574 56.0046 96.6934 56.3194C96.8127 56.6342 96.9599 56.8862 97.1355 57.0761C97.3111 57.2659 97.502 57.3976 97.7093 57.4736C97.9165 57.5496 98.1299 57.5765 98.3501 57.5553C98.5756 57.5337 98.7863 57.4689 98.9826 57.3609C99.1789 57.2529 99.3477 57.0901 99.4898 56.8738C99.6318 56.6575 99.7336 56.381 99.7933 56.0456C99.853 55.7102 99.8644 55.3079 99.8253 54.8374C99.7754 54.3802 99.6905 53.9958 99.5715 53.6844C99.4524 53.3729 99.3052 53.1202 99.1294 52.9277Z" fill="white"/>
<path d="M110.625 47.1043L109.018 30.3561C108.969 29.8433 108.871 29.4697 108.535 29.1919L99.9984 22.1509C99.7423 21.9397 99.4055 21.8362 99.0742 21.868L79.6486 23.732C78.8547 23.8081 78.0588 24.5033 78.1879 25.8486L80.5048 49.9944L110.625 47.1043ZM95.5142 44.5012C95.5497 44.8706 95.2793 45.1992 94.9091 45.2347C94.539 45.2703 94.211 44.9991 94.1755 44.6296L93.9829 42.6216C93.9474 42.2521 94.2178 41.9236 94.588 41.888C94.9581 41.8525 95.2861 42.1237 95.3216 42.4932L95.5142 44.5012ZM98.9673 24.1689C98.9379 23.8623 99.2933 23.6735 99.531 23.8696L106.936 29.9782C107.174 30.1743 107.056 30.5591 106.75 30.5886L99.6487 31.2699L98.9673 24.1689ZM99.6216 38.0275L99.3647 35.3502C99.3293 34.9814 99.0006 34.7096 98.6311 34.7451C98.261 34.7806 97.933 34.5094 97.8976 34.14C97.8621 33.7705 98.1325 33.4419 98.5027 33.4064C99.6098 33.3002 100.597 34.1146 100.703 35.2217L100.96 37.8991C101.031 38.6374 101.689 39.1802 102.427 39.1093C102.798 39.0738 103.126 39.345 103.161 39.7144C103.196 40.0839 102.926 40.4125 102.556 40.448C101.818 40.5188 101.275 41.1769 101.346 41.9151L101.603 44.5925C101.709 45.6996 100.894 46.687 99.7872 46.7932C99.417 46.8287 99.0891 46.5575 99.0536 46.1881C99.0181 45.8186 99.2886 45.49 99.6587 45.4545C100.028 45.4191 100.299 45.0897 100.264 44.7209L100.007 42.0436C99.9299 41.2404 100.224 40.492 100.739 39.9468C100.13 39.5095 99.6987 38.8308 99.6216 38.0275ZM94.1384 37.2027C94.6926 37.1495 95.1856 37.5561 95.2388 38.1103C95.2919 38.6645 94.8853 39.1575 94.3311 39.2107C93.7769 39.2639 93.2839 38.8572 93.2307 38.303C93.1776 37.7488 93.5842 37.2558 94.1384 37.2027ZM86.3632 40.6507C87.1015 40.5799 87.6443 39.9219 87.5735 39.1836L87.3166 36.5062C87.2103 35.3991 88.0248 34.4118 89.1319 34.3055C89.5021 34.27 89.83 34.5412 89.8655 34.9107C89.9009 35.2801 89.6305 35.6087 89.2604 35.6442C88.8909 35.6797 88.6199 36.009 88.6552 36.3778L88.9121 39.0551C88.9892 39.8583 88.6949 40.6067 88.1798 41.1519C88.7892 41.5893 89.2204 42.268 89.2975 43.0712L89.5544 45.7485C89.5898 46.1173 89.9185 46.3891 90.288 46.3537C90.6581 46.3181 90.9861 46.5893 91.0215 46.9588C91.057 47.3282 90.7866 47.6568 90.4164 47.6923C89.3093 47.7986 88.3219 46.9841 88.2157 45.877L87.9588 43.1996C87.888 42.4613 87.23 41.9186 86.4917 41.9894C86.1215 42.0249 85.7936 41.7538 85.7581 41.3843C85.7227 41.0148 85.9931 40.6862 86.3632 40.6507Z" fill="white"/>
<path d="M80.6332 51.333L81.5966 61.3731C81.6614 62.0485 82.5417 62.6334 83.3736 62.5536L110.197 59.9799C111.029 59.9 111.782 59.1583 111.717 58.483L110.754 48.4429L80.6332 51.333ZM89.0233 57.6653C89.0537 57.9826 89.0211 58.2552 88.9261 58.4825C88.831 58.7099 88.6924 58.8988 88.5096 59.0487C88.3267 59.1987 88.1113 59.3119 87.8632 59.3877C87.6152 59.4635 87.3566 59.5147 87.0882 59.5404C86.9544 59.5533 86.795 59.5544 86.613 59.5441C86.431 59.5339 86.2402 59.5097 86.0425 59.4699C85.8448 59.4301 85.6538 59.3822 85.4701 59.3262C85.2864 59.2702 85.1292 59.2022 84.9979 59.1222L85.3934 58.3365C85.4583 58.3728 85.5497 58.4093 85.6671 58.444C85.7846 58.4786 85.9126 58.5096 86.0502 58.5362C86.1879 58.5629 86.3318 58.5842 86.4813 58.6009C86.6309 58.6177 86.7695 58.6192 86.8973 58.607C87.2206 58.5759 87.4723 58.4883 87.6524 58.3454C87.8326 58.2024 87.9139 57.9798 87.898 57.6801L87.4027 52.5188L88.5192 52.4117L89.0233 57.6653ZM94.3829 57.6455C94.3044 57.8841 94.1819 58.0992 94.0151 58.2901C93.8483 58.4811 93.6368 58.6419 93.3777 58.7714C93.1185 58.901 92.8196 58.9817 92.4776 59.0145C92.331 59.0286 92.1796 59.035 92.0223 59.0352C91.8649 59.0355 91.7057 59.0237 91.5436 59.0028C91.3814 58.9812 91.2253 58.9455 91.0759 58.895C90.9265 58.8445 90.7959 58.7787 90.6827 58.697L90.7993 57.8914C90.8896 57.9321 91.002 57.9693 91.1375 58.0022C91.2731 58.0351 91.4124 58.065 91.5567 58.091C91.7011 58.117 91.8441 58.1357 91.987 58.147C92.1299 58.1582 92.2616 58.1578 92.3841 58.146C92.7563 58.1103 93.0331 57.9959 93.2145 57.8029C93.3959 57.6098 93.4702 57.3426 93.4375 57.0013C93.4176 56.7938 93.331 56.6238 93.1764 56.4907C93.0218 56.3576 92.8337 56.2419 92.6121 56.1429C92.3905 56.0439 92.1515 55.9473 91.8958 55.8516C91.64 55.7559 91.3983 55.6372 91.1693 55.4964C90.9403 55.3556 90.7453 55.1818 90.5837 54.9757C90.422 54.7696 90.3261 54.5019 90.2945 54.1726C90.2659 53.8741 90.2953 53.6031 90.3828 53.3609C90.4704 53.1188 90.5993 52.9072 90.7699 52.728C90.9405 52.5488 91.1455 52.4042 91.3843 52.2948C91.623 52.1855 91.88 52.1182 92.1545 52.0919C92.4349 52.065 92.7212 52.0639 93.0126 52.0879C93.3041 52.112 93.5438 52.1741 93.7322 52.2729C93.703 52.3554 93.6692 52.4464 93.6294 52.5462C93.5897 52.6459 93.5519 52.738 93.5177 52.8244C93.4834 52.9108 93.4532 52.9832 93.4277 53.0411C93.4021 53.0989 93.387 53.1314 93.3816 53.138C93.343 53.1235 93.2999 53.1033 93.2508 53.077C93.2016 53.0506 93.1338 53.0267 93.0452 53.0042C92.9565 52.9816 92.8421 52.9716 92.7003 52.9724C92.5585 52.9732 92.3788 52.9938 92.1611 53.0336C92.0398 53.0581 91.9279 53.1032 91.8231 53.1721C91.7182 53.2409 91.628 53.3212 91.5505 53.4151C91.4731 53.509 91.4153 53.6111 91.3767 53.7229C91.3382 53.8347 91.3239 53.9394 91.3332 54.0364C91.3566 54.2801 91.4451 54.4702 91.6 54.6066C91.755 54.7431 91.9415 54.8569 92.1592 54.9502C92.3769 55.0434 92.6137 55.1315 92.8682 55.2145C93.1227 55.2975 93.3621 55.4062 93.5875 55.5379C93.813 55.6696 94.006 55.8443 94.1685 56.0591C94.331 56.2738 94.4288 56.5617 94.4634 56.9218C94.4895 57.1658 94.4613 57.407 94.3829 57.6455ZM100.871 56.2515C100.769 56.6983 100.605 57.0775 100.38 57.3883C100.154 57.699 99.879 57.9443 99.5544 58.1234C99.2298 58.3025 98.866 58.411 98.4637 58.4496C98.0614 58.4882 97.6836 58.4508 97.3309 58.3367C96.9781 58.2226 96.6615 58.0348 96.381 57.772C96.1004 57.5091 95.8671 57.1687 95.6823 56.7494C95.4975 56.3301 95.3779 55.8363 95.3235 55.2694C95.2691 54.7024 95.2928 54.1962 95.3948 53.7528C95.4968 53.3093 95.6612 52.9315 95.8867 52.6207C96.1122 52.31 96.3871 52.0634 96.7114 51.8809C97.0357 51.6985 97.3994 51.5886 97.8017 51.55C98.204 51.5114 98.5819 51.5502 98.935 51.6676C99.288 51.785 99.6048 51.9742 99.8853 52.237C100.166 52.4999 100.399 52.8389 100.584 53.2549C100.768 53.6709 100.888 54.1633 100.942 54.7303C100.996 55.2972 100.973 55.8047 100.871 56.2515ZM107.693 57.5181L106.576 57.6252L103.486 53.2304L103.932 57.879L102.815 57.9861L102.168 51.2418L103.285 51.1347L106.375 55.5295L105.929 50.881L107.046 50.7738L107.693 57.5181Z" fill="white"/>
<defs>
<filter id="filter0_f_381_10375" x="21.1988" y="114.926" width="53.5702" height="5.39967" filterUnits="userSpaceOnUse" color-interpolation-filters="sRGB">
<feFlood flood-opacity="0" result="BackgroundImageFix"/>
<feBlend mode="normal" in="SourceGraphic" in2="BackgroundImageFix" result="shape"/>
<feGaussianBlur stdDeviation="0.229679" result="effect1_foregroundBlur_381_10375"/>
</filter>
<filter id="filter1_f_381_10375" x="66.382" y="60.4073" width="53.5702" height="5.39967" filterUnits="userSpaceOnUse" color-interpolation-filters="sRGB">
<feFlood flood-opacity="0" result="BackgroundImageFix"/>
<feBlend mode="normal" in="SourceGraphic" in2="BackgroundImageFix" result="shape"/>
<feGaussianBlur stdDeviation="0.229679" result="effect1_foregroundBlur_381_10375"/>
</filter>
<filter id="filter2_d_381_10375" x="47.8353" y="65.196" width="23.1857" height="16.7473" filterUnits="userSpaceOnUse" color-interpolation-filters="sRGB">
<feFlood flood-opacity="0" result="BackgroundImageFix"/>
<feColorMatrix in="SourceAlpha" type="matrix" values="0 0 0 0 0 0 0 0 0 0 0 0 0 0 0 0 0 0 127 0" result="hardAlpha"/>
<feOffset dy="0.308706"/>
<feGaussianBlur stdDeviation="0.154353"/>
<feComposite in2="hardAlpha" operator="out"/>
<feColorMatrix type="matrix" values="0 0 0 0 0 0 0 0 0 0 0 0 0 0 0 0 0 0 0.25 0"/>
<feBlend mode="normal" in2="BackgroundImageFix" result="effect1_dropShadow_381_10375"/>
<feBlend mode="normal" in="SourceGraphic" in2="effect1_dropShadow_381_10375" result="shape"/>
</filter>
<filter id="filter3_d_381_10375" x="21.0202" y="33.2341" width="45.2043" height="89.9354" filterUnits="userSpaceOnUse" color-interpolation-filters="sRGB">
<feFlood flood-opacity="0" result="BackgroundImageFix"/>
<feColorMatrix in="SourceAlpha" type="matrix" values="0 0 0 0 0 0 0 0 0 0 0 0 0 0 0 0 0 0 127 0" result="hardAlpha"/>
<feOffset dy="1.62091"/>
<feGaussianBlur stdDeviation="0.810454"/>
<feComposite in2="hardAlpha" operator="out"/>
<feColorMatrix type="matrix" values="0 0 0 0 0 0 0 0 0 0 0 0 0 0 0 0 0 0 0.25 0"/>
<feBlend mode="normal" in2="BackgroundImageFix" result="effect1_dropShadow_381_10375"/>
<feBlend mode="normal" in="SourceGraphic" in2="effect1_dropShadow_381_10375" result="shape"/>
</filter>
<filter id="filter4_d_381_10375" x="29.8441" y="63.2014" width="31.2189" height="50.719" filterUnits="userSpaceOnUse" color-interpolation-filters="sRGB">
<feFlood flood-opacity="0" result="BackgroundImageFix"/>
<feColorMatrix in="SourceAlpha" type="matrix" values="0 0 0 0 0 0 0 0 0 0 0 0 0 0 0 0 0 0 127 0" result="hardAlpha"/>
<feOffset dy="0.357171"/>
<feGaussianBlur stdDeviation="0.178586"/>
<feComposite in2="hardAlpha" operator="out"/>
<feColorMatrix type="matrix" values="0 0 0 0 0 0 0 0 0 0 0 0 0 0 0 0 0 0 0.25 0"/>
<feBlend mode="normal" in2="BackgroundImageFix" result="effect1_dropShadow_381_10375"/>
<feBlend mode="normal" in="SourceGraphic" in2="effect1_dropShadow_381_10375" result="shape"/>
</filter>
<filter id="filter5_d_381_10375" x="37.8622" y="72.5479" width="8.60607" height="7.4204" filterUnits="userSpaceOnUse" color-interpolation-filters="sRGB">
<feFlood flood-opacity="0" result="BackgroundImageFix"/>
<feColorMatrix in="SourceAlpha" type="matrix" values="0 0 0 0 0 0 0 0 0 0 0 0 0 0 0 0 0 0 127 0" result="hardAlpha"/>
<feOffset dy="0.357171"/>
<feGaussianBlur stdDeviation="0.178586"/>
<feComposite in2="hardAlpha" operator="out"/>
<feColorMatrix type="matrix" values="0 0 0 0 0 0 0 0 0 0 0 0 0 0 0 0 0 0 0.25 0"/>
<feBlend mode="normal" in2="BackgroundImageFix" result="effect1_dropShadow_381_10375"/>
<feBlend mode="normal" in="SourceGraphic" in2="effect1_dropShadow_381_10375" result="shape"/>
</filter>
<filter id="filter6_d_381_10375" x="48.2376" y="71.9421" width="3.54686" height="3.61009" filterUnits="userSpaceOnUse" color-interpolation-filters="sRGB">
<feFlood flood-opacity="0" result="BackgroundImageFix"/>
<feColorMatrix in="SourceAlpha" type="matrix" values="0 0 0 0 0 0 0 0 0 0 0 0 0 0 0 0 0 0 127 0" result="hardAlpha"/>
<feOffset dy="0.357171"/>
<feGaussianBlur stdDeviation="0.178586"/>
<feComposite in2="hardAlpha" operator="out"/>
<feColorMatrix type="matrix" values="0 0 0 0 0 0 0 0 0 0 0 0 0 0 0 0 0 0 0.25 0"/>
<feBlend mode="normal" in2="BackgroundImageFix" result="effect1_dropShadow_381_10375"/>
<feBlend mode="normal" in="SourceGraphic" in2="effect1_dropShadow_381_10375" result="shape"/>
</filter>
<filter id="filter7_d_381_10375" x="48.5992" y="75.1606" width="3.54686" height="3.61009" filterUnits="userSpaceOnUse" color-interpolation-filters="sRGB">
<feFlood flood-opacity="0" result="BackgroundImageFix"/>
<feColorMatrix in="SourceAlpha" type="matrix" values="0 0 0 0 0 0 0 0 0 0 0 0 0 0 0 0 0 0 127 0" result="hardAlpha"/>
<feOffset dy="0.357171"/>
<feGaussianBlur stdDeviation="0.178586"/>
<feComposite in2="hardAlpha" operator="out"/>
<feColorMatrix type="matrix" values="0 0 0 0 0 0 0 0 0 0 0 0 0 0 0 0 0 0 0.25 0"/>
<feBlend mode="normal" in2="BackgroundImageFix" result="effect1_dropShadow_381_10375"/>
<feBlend mode="normal" in="SourceGraphic" in2="effect1_dropShadow_381_10375" result="shape"/>
</filter>
<filter id="filter8_d_381_10375" x="22.2839" y="65.5327" width="22.5004" height="27.7554" filterUnits="userSpaceOnUse" color-interpolation-filters="sRGB">
<feFlood flood-opacity="0" result="BackgroundImageFix"/>
<feColorMatrix in="SourceAlpha" type="matrix" values="0 0 0 0 0 0 0 0 0 0 0 0 0 0 0 0 0 0 127 0" result="hardAlpha"/>
<feOffset dy="0.357171"/>
<feGaussianBlur stdDeviation="0.178586"/>
<feComposite in2="hardAlpha" operator="out"/>
<feColorMatrix type="matrix" values="0 0 0 0 0 0 0 0 0 0 0 0 0 0 0 0 0 0 0.25 0"/>
<feBlend mode="normal" in2="BackgroundImageFix" result="effect1_dropShadow_381_10375"/>
<feBlend mode="normal" in="SourceGraphic" in2="effect1_dropShadow_381_10375" result="shape"/>
</filter>
<filter id="filter9_d_381_10375" x="22.8801" y="33.2341" width="39.4488" height="39.4487" filterUnits="userSpaceOnUse" color-interpolation-filters="sRGB">
<feFlood flood-opacity="0" result="BackgroundImageFix"/>
<feColorMatrix in="SourceAlpha" type="matrix" values="0 0 0 0 0 0 0 0 0 0 0 0 0 0 0 0 0 0 127 0" result="hardAlpha"/>
<feOffset dy="0.357171"/>
<feGaussianBlur stdDeviation="0.178586"/>
<feComposite in2="hardAlpha" operator="out"/>
<feColorMatrix type="matrix" values="0 0 0 0 0 0 0 0 0 0 0 0 0 0 0 0 0 0 0.25 0"/>
<feBlend mode="normal" in2="BackgroundImageFix" result="effect1_dropShadow_381_10375"/>
<feBlend mode="normal" in="SourceGraphic" in2="effect1_dropShadow_381_10375" result="shape"/>
</filter>
<radialGradient id="paint0_radial_381_10375" cx="0" cy="0" r="1" gradientUnits="userSpaceOnUse" gradientTransform="translate(47.9839 117.625) rotate(90) scale(2.24049 26.3257)">
<stop stop-color="#021B51"/>
<stop offset="1" stop-color="#75758F" stop-opacity="0"/>
</radialGradient>
<radialGradient id="paint1_radial_381_10375" cx="0" cy="0" r="1" gradientUnits="userSpaceOnUse" gradientTransform="translate(93.167 63.1072) rotate(90) scale(2.24049 26.3257)">
<stop stop-color="#021B51"/>
<stop offset="1" stop-color="#75758F" stop-opacity="0"/>
</radialGradient>
<radialGradient id="paint2_radial_381_10375" cx="0" cy="0" r="1" gradientUnits="userSpaceOnUse" gradientTransform="translate(92.9934 43.6895) rotate(90) scale(30.9934)">
<stop stop-color="#00B7FA"/>
<stop offset="0.994792" stop-color="#00A1E3" stop-opacity="0"/>
</radialGradient>
<linearGradient id="paint3_linear_381_10375" x1="51.1757" y1="73.6485" x2="65.0155" y2="73.9606" gradientUnits="userSpaceOnUse">
<stop stop-color="#EFF2F3"/>
<stop offset="1" stop-color="white"/>
</linearGradient>
<linearGradient id="paint4_linear_381_10375" x1="44.4726" y1="64.4854" x2="47.9769" y2="95.6816" gradientUnits="userSpaceOnUse">
<stop stop-color="#E3E9EB"/>
<stop offset="0.56737" stop-color="white"/>
</linearGradient>
<linearGradient id="paint5_linear_381_10375" x1="41.8744" y1="66.3614" x2="41.8744" y2="79.1056" gradientUnits="userSpaceOnUse">
<stop stop-color="#50D5FF"/>
<stop offset="1" stop-color="#2C3585"/>
</linearGradient>
<radialGradient id="paint6_radial_381_10375" cx="0" cy="0" r="1" gradientUnits="userSpaceOnUse" gradientTransform="translate(50.011 73.3899) rotate(90) scale(1.71986 1.67273)">
<stop stop-color="#51E0FF"/>
<stop offset="1" stop-color="#4E7CB4"/>
</radialGradient>
<radialGradient id="paint7_radial_381_10375" cx="0" cy="0" r="1" gradientUnits="userSpaceOnUse" gradientTransform="translate(50.3726 76.6084) rotate(90) scale(1.71986 1.67273)">
<stop stop-color="#FFB3B3"/>
<stop offset="1" stop-color="#F20000"/>
</radialGradient>
<linearGradient id="paint8_linear_381_10375" x1="30.8817" y1="70.6629" x2="34.5855" y2="84.946" gradientUnits="userSpaceOnUse">
<stop stop-color="#EFF2F3"/>
<stop offset="1" stop-color="white"/>
</linearGradient>
<radialGradient id="paint9_radial_381_10375" cx="0" cy="0" r="1" gradientUnits="userSpaceOnUse" gradientTransform="translate(36.7426 72.99) rotate(-177.671) scale(25.6878)">
<stop offset="0.381" stop-color="#BFCCD1"/>
<stop offset="0.7578" stop-color="white"/>
</radialGradient>
<linearGradient id="paint10_linear_381_10375" x1="57.2844" y1="53.2743" x2="31.6385" y2="44.4048" gradientUnits="userSpaceOnUse">
<stop stop-color="#FFF668"/>
<stop offset="0.519247" stop-color="#FF9C4C"/>
<stop offset="1" stop-color="#880000"/>
</linearGradient>
<radialGradient id="paint11_radial_381_10375" cx="0" cy="0" r="1" gradientUnits="userSpaceOnUse" gradientTransform="translate(50.8327 54.4008) rotate(173.286) scale(32.5025)">
<stop offset="0.180591" stop-color="white"/>
<stop offset="0.9385" stop-color="#880000"/>
</radialGradient>
<linearGradient id="paint12_linear_381_10375" x1="59.6664" y1="110.15" x2="58.4562" y2="114.272" gradientUnits="userSpaceOnUse">
<stop stop-color="#504A44"/>
<stop offset="1" stop-color="#504A44" stop-opacity="0"/>
</linearGradient>
<linearGradient id="paint13_linear_381_10375" x1="36.3332" y1="110.934" x2="37.7025" y2="114.537" gradientUnits="userSpaceOnUse">
<stop stop-color="#504A44"/>
<stop offset="1" stop-color="#504A44" stop-opacity="0"/>
</linearGradient>
</defs>
</svg>
