<svg width="127" height="53" viewBox="0 0 127 53" fill="none" xmlns="http://www.w3.org/2000/svg">
<g filter="url(#filter0_d_12441_67300)">
<path d="M6.40137 24.4323C6.40137 13.4655 15.2917 4.5752 26.2585 4.5752H100.345C111.311 4.5752 120.202 13.4655 120.202 24.4323V24.4323C120.202 35.3991 111.311 44.2895 100.345 44.2895H26.2585C15.2917 44.2895 6.40137 35.3991 6.40137 24.4323V24.4323Z" fill="white"/>
<path fill-rule="evenodd" clip-rule="evenodd" d="M26.0029 32.2892V22.6865H27.1228V32.2892H26.0029Z" fill="#4048FF"/>
<path fill-rule="evenodd" clip-rule="evenodd" d="M26.0029 18.9268V16.5752H27.1228V18.9268H26.0029Z" fill="#4048FF"/>
<path fill-rule="evenodd" clip-rule="evenodd" d="M26.5641 21.9443C27.14 21.9443 27.6069 21.4774 27.6069 20.9015C27.6069 20.3255 27.14 19.8586 26.5641 19.8586C25.9881 19.8586 25.5212 20.3255 25.5212 20.9015C25.5212 21.4774 25.9881 21.9443 26.5641 21.9443ZM26.5641 23.0641C27.7585 23.0641 28.7267 22.0959 28.7267 20.9015C28.7267 19.707 27.7585 18.7388 26.5641 18.7388C25.3696 18.7388 24.4014 19.707 24.4014 20.9015C24.4014 22.0959 25.3696 23.0641 26.5641 23.0641Z" fill="#4048FF"/>
<path fill-rule="evenodd" clip-rule="evenodd" d="M31.3952 25.3839V16.5752H32.5151V25.3839H31.3952Z" fill="#4048FF"/>
<path fill-rule="evenodd" clip-rule="evenodd" d="M31.3952 32.2889V28.8867H32.5151V32.2889H31.3952Z" fill="#4048FF"/>
<path fill-rule="evenodd" clip-rule="evenodd" d="M31.9563 28.1767C32.5323 28.1767 32.9991 27.7098 32.9991 27.1339C32.9991 26.5579 32.5323 26.0911 31.9563 26.0911C31.3804 26.0911 30.9135 26.5579 30.9135 27.1339C30.9135 27.7098 31.3804 28.1767 31.9563 28.1767ZM31.9563 29.2966C33.1507 29.2966 34.119 28.3283 34.119 27.1339C34.119 25.9395 33.1507 24.9712 31.9563 24.9712C30.7619 24.9712 29.7936 25.9395 29.7936 27.1339C29.7936 28.3283 30.7619 29.2966 31.9563 29.2966Z" fill="#4048FF"/>
<path fill-rule="evenodd" clip-rule="evenodd" d="M36.7874 32.2893V22.6865H37.9073V32.2893H36.7874Z" fill="#4048FF"/>
<path fill-rule="evenodd" clip-rule="evenodd" d="M36.7874 18.9268V16.5752H37.9073V18.9268H36.7874Z" fill="#4048FF"/>
<path fill-rule="evenodd" clip-rule="evenodd" d="M37.3469 21.9443C37.9229 21.9443 38.3898 21.4774 38.3898 20.9015C38.3898 20.3255 37.9229 19.8586 37.3469 19.8586C36.771 19.8586 36.3041 20.3255 36.3041 20.9015C36.3041 21.4774 36.771 21.9443 37.3469 21.9443ZM37.3469 23.0641C38.5414 23.0641 39.5096 22.0959 39.5096 20.9015C39.5096 19.707 38.5414 18.7388 37.3469 18.7388C36.1525 18.7388 35.1843 19.707 35.1843 20.9015C35.1843 22.0959 36.1525 23.0641 37.3469 23.0641Z" fill="#4048FF"/>
<path d="M67.347 18.4072V29.5752H65.107V22.3112L62.115 29.5752H60.419L57.411 22.3112V29.5752H55.171V18.4072H57.715L61.267 26.7112L64.819 18.4072H67.347ZM73.6576 29.7192C72.8043 29.7192 72.0363 29.5325 71.3536 29.1592C70.6709 28.7752 70.1323 28.2365 69.7376 27.5432C69.3536 26.8499 69.1616 26.0499 69.1616 25.1432C69.1616 24.2365 69.3589 23.4365 69.7536 22.7432C70.1589 22.0499 70.7083 21.5165 71.4016 21.1432C72.0949 20.7592 72.8683 20.5672 73.7216 20.5672C74.5749 20.5672 75.3483 20.7592 76.0416 21.1432C76.7349 21.5165 77.2789 22.0499 77.6736 22.7432C78.0789 23.4365 78.2816 24.2365 78.2816 25.1432C78.2816 26.0499 78.0736 26.8499 77.6576 27.5432C77.2523 28.2365 76.6976 28.7752 75.9936 29.1592C75.3003 29.5325 74.5216 29.7192 73.6576 29.7192ZM73.6576 27.7672C74.0629 27.7672 74.4416 27.6712 74.7936 27.4792C75.1563 27.2765 75.4443 26.9779 75.6576 26.5832C75.8709 26.1885 75.9776 25.7085 75.9776 25.1432C75.9776 24.3005 75.7536 23.6552 75.3056 23.2072C74.8683 22.7485 74.3296 22.5192 73.6896 22.5192C73.0496 22.5192 72.5109 22.7485 72.0736 23.2072C71.6469 23.6552 71.4336 24.3005 71.4336 25.1432C71.4336 25.9859 71.6416 26.6365 72.0576 27.0952C72.4843 27.5432 73.0176 27.7672 73.6576 27.7672ZM82.3247 22.0872C82.6127 21.6179 82.9861 21.2499 83.4447 20.9832C83.9141 20.7165 84.4474 20.5832 85.0447 20.5832V22.9352H84.4527C83.7487 22.9352 83.2154 23.1005 82.8527 23.4312C82.5007 23.7619 82.3247 24.3379 82.3247 25.1592V29.5752H80.0847V20.7112H82.3247V22.0872ZM94.9535 24.9512C94.9535 25.2712 94.9321 25.5592 94.8895 25.8152H88.4095C88.4628 26.4552 88.6868 26.9565 89.0815 27.3192C89.4761 27.6819 89.9615 27.8632 90.5375 27.8632C91.3695 27.8632 91.9615 27.5059 92.3135 26.7912H94.7295C94.4735 27.6445 93.9828 28.3485 93.2575 28.9032C92.5321 29.4472 91.6415 29.7192 90.5855 29.7192C89.7321 29.7192 88.9641 29.5325 88.2815 29.1592C87.6095 28.7752 87.0815 28.2365 86.6975 27.5432C86.3241 26.8499 86.1375 26.0499 86.1375 25.1432C86.1375 24.2259 86.3241 23.4205 86.6975 22.7272C87.0708 22.0339 87.5935 21.5005 88.2655 21.1272C88.9375 20.7539 89.7108 20.5672 90.5855 20.5672C91.4281 20.5672 92.1801 20.7485 92.8415 21.1112C93.5135 21.4739 94.0308 21.9912 94.3935 22.6632C94.7668 23.3245 94.9535 24.0872 94.9535 24.9512ZM92.6335 24.3112C92.6228 23.7352 92.4148 23.2765 92.0095 22.9352C91.6041 22.5832 91.1081 22.4072 90.5215 22.4072C89.9668 22.4072 89.4975 22.5779 89.1135 22.9192C88.7401 23.2499 88.5108 23.7139 88.4255 24.3112H92.6335Z" fill="#4048FF"/>
</g>
<defs>
<filter id="filter0_d_12441_67300" x="0.401367" y="0.575195" width="125.8" height="51.7144" filterUnits="userSpaceOnUse" color-interpolation-filters="sRGB">
<feFlood flood-opacity="0" result="BackgroundImageFix"/>
<feColorMatrix in="SourceAlpha" type="matrix" values="0 0 0 0 0 0 0 0 0 0 0 0 0 0 0 0 0 0 127 0" result="hardAlpha"/>
<feOffset dy="2"/>
<feGaussianBlur stdDeviation="3"/>
<feColorMatrix type="matrix" values="0 0 0 0 0.194757 0 0 0 0 0.217159 0 0 0 0 0.329167 0 0 0 0.4 0"/>
<feBlend mode="normal" in2="BackgroundImageFix" result="effect1_dropShadow_12441_67300"/>
<feBlend mode="normal" in="SourceGraphic" in2="effect1_dropShadow_12441_67300" result="shape"/>
</filter>
</defs>
</svg>
