<svg width="25" height="25" viewBox="0 0 25 25" fill="none" xmlns="http://www.w3.org/2000/svg">
<path fill-rule="evenodd" clip-rule="evenodd" d="M3.22314 19.8625C3.22314 20.4133 3.44196 20.9416 3.83144 21.331C4.22093 21.7205 4.74918 21.9393 5.3 21.9393H16.3765C16.9274 21.9393 17.4556 21.7205 17.8451 21.331C18.2346 20.9416 18.4534 20.4133 18.4534 19.8625V14.3242C18.4534 14.1406 18.3805 13.9645 18.2506 13.8347C18.1208 13.7049 17.9447 13.6319 17.7611 13.6319C17.5775 13.6319 17.4014 13.7049 17.2716 13.8347C17.1418 13.9645 17.0688 14.1406 17.0688 14.3242V19.8625C17.0688 20.0461 16.9959 20.2222 16.8661 20.352C16.7362 20.4818 16.5602 20.5548 16.3765 20.5548H5.3C5.11639 20.5548 4.94031 20.4818 4.81048 20.352C4.68065 20.2222 4.60771 20.0461 4.60771 19.8625V8.78593C4.60771 8.60233 4.68065 8.42624 4.81048 8.29641C4.94031 8.16658 5.11639 8.09365 5.3 8.09365H10.8383C11.0219 8.09365 11.198 8.02071 11.3278 7.89088C11.4576 7.76105 11.5306 7.58497 11.5306 7.40136C11.5306 7.21776 11.4576 7.04167 11.3278 6.91184C11.198 6.78202 11.0219 6.70908 10.8383 6.70908H5.3C4.74918 6.70908 4.22093 6.92789 3.83144 7.31737C3.44196 7.70686 3.22314 8.23512 3.22314 8.78593V19.8625ZM12.9151 4.63223C12.9151 4.44862 12.9881 4.27254 13.1179 4.14271C13.2477 4.01288 13.4238 3.93994 13.6074 3.93994H20.5303C20.7139 3.93994 20.8899 4.01288 21.0198 4.14271C21.1496 4.27254 21.2225 4.44862 21.2225 4.63223V11.5551C21.2225 11.7387 21.1496 11.9148 21.0198 12.0446C20.8899 12.1744 20.7139 12.2474 20.5303 12.2474C20.3466 12.2474 20.1706 12.1744 20.0407 12.0446C19.9109 11.9148 19.838 11.7387 19.838 11.5551V5.32451H13.6074C13.4238 5.32451 13.2477 5.25157 13.1179 5.12174C12.9881 4.99192 12.9151 4.81583 12.9151 4.63223Z" fill="#4048FF"/>
<path fill-rule="evenodd" clip-rule="evenodd" d="M21.0201 4.14235C21.0846 4.20666 21.1357 4.28305 21.1706 4.36716C21.2055 4.45126 21.2235 4.54143 21.2235 4.63249C21.2235 4.72355 21.2055 4.81371 21.1706 4.89782C21.1357 4.98192 21.0846 5.05832 21.0201 5.12262L9.94355 16.1992C9.87918 16.2635 9.80277 16.3146 9.71867 16.3494C9.63458 16.3843 9.54444 16.4022 9.45341 16.4022C9.36239 16.4022 9.27225 16.3843 9.18815 16.3494C9.10405 16.3146 9.02764 16.2635 8.96328 16.1992C8.89891 16.1348 8.84785 16.0584 8.81302 15.9743C8.77818 15.8902 8.76025 15.8001 8.76025 15.709C8.76025 15.618 8.77818 15.5279 8.81302 15.4438C8.84785 15.3597 8.89891 15.2833 8.96328 15.2189L20.0398 4.14235C20.1041 4.07788 20.1805 4.02673 20.2646 3.99183C20.3487 3.95693 20.4389 3.93896 20.53 3.93896C20.621 3.93896 20.7112 3.95693 20.7953 3.99183C20.8794 4.02673 20.9558 4.07788 21.0201 4.14235V4.14235Z" fill="#4048FF"/>
</svg>
