<svg width="17" height="13" viewBox="0 0 17 13" fill="none" xmlns="http://www.w3.org/2000/svg">
<path fill-rule="evenodd" clip-rule="evenodd" d="M8.77932 0.638672C10.7836 0.638672 12.7002 1.68996 14.4863 3.41723C15.0957 4.0065 15.6469 4.6356 16.1322 5.26497C16.4251 5.64475 16.633 5.94351 16.7468 6.12149L17 6.51742L16.7468 6.91335C16.633 7.09134 16.4251 7.39009 16.1322 7.76987C15.6469 8.39924 15.0957 9.02835 14.4863 9.61762C12.7002 11.3449 10.7836 12.3962 8.77932 12.3962C6.77499 12.3962 4.85843 11.3449 3.07231 9.61762C2.46296 9.02835 1.91169 8.39924 1.4264 7.76987C1.13357 7.39009 0.925655 7.09134 0.811821 6.91335L0.558594 6.51742L0.811821 6.12149C0.925655 5.94351 1.13357 5.64475 1.4264 5.26497C1.91169 4.6356 2.46296 4.0065 3.07231 3.41723C4.85843 1.68996 6.77499 0.638672 8.77932 0.638672ZM14.9686 6.16201C14.5243 5.58578 14.0191 5.00928 13.4649 4.47332C11.9265 2.98565 10.3264 2.10797 8.77953 2.10797C7.23263 2.10797 5.63256 2.98565 4.0942 4.47332C3.53998 5.00928 3.03481 5.58578 2.59049 6.16201C2.49453 6.28646 2.40585 6.40521 2.32478 6.51703C2.40585 6.62886 2.49453 6.7476 2.59049 6.87205C3.03481 7.44829 3.53998 8.02478 4.0942 8.56074C5.63256 10.0484 7.23263 10.9261 8.77953 10.9261C10.3264 10.9261 11.9265 10.0484 13.4649 8.56074C14.0191 8.02478 14.5243 7.44829 14.9686 6.87205C15.0645 6.7476 15.1532 6.62886 15.2343 6.51703C15.1532 6.40521 15.0645 6.28646 14.9686 6.16201ZM5.84041 6.51703C5.84041 8.14041 7.15641 9.45641 8.77979 9.45641C10.4032 9.45641 11.7192 8.14041 11.7192 6.51703C11.7192 4.89366 10.4032 3.57766 8.77979 3.57766C7.15641 3.57766 5.84041 4.89366 5.84041 6.51703ZM10.2495 6.51703C10.2495 7.32872 9.59147 7.98672 8.77979 7.98672C7.9681 7.98672 7.3101 7.32872 7.3101 6.51703C7.3101 5.70535 7.9681 5.04735 8.77979 5.04735C9.59147 5.04735 10.2495 5.70535 10.2495 6.51703Z" fill="#6C768C"/>
</svg>
