<svg width="24" height="24" viewBox="0 0 24 24" fill="none" xmlns="http://www.w3.org/2000/svg">
<path d="M11.4463 9.83216L11.7998 10.1857L12.1534 9.83216L20.5276 1.45788C20.9999 0.985663 21.7655 0.985664 22.2377 1.45788C22.7099 1.93009 22.7099 2.6957 22.2377 3.16791L13.8634 11.5422L13.5098 11.8958L13.8634 12.2493L22.2377 20.6236C22.7099 21.0958 22.7099 21.8614 22.2377 22.3336C21.7655 22.8058 20.9999 22.8058 20.5276 22.3336L12.1534 13.9593L11.7998 13.6058L11.4463 13.9593L3.07197 22.3336C2.59975 22.8058 1.83414 22.8058 1.36193 22.3336C0.889716 21.8614 0.889715 21.0958 1.36193 20.6236L9.73622 12.2493L10.0898 11.8958L9.73622 11.5422L1.36193 3.16791C0.889716 2.6957 0.889716 1.93009 1.36193 1.45788C1.83414 0.985663 2.59975 0.985663 3.07196 1.45788L11.4463 9.83216Z" fill="#5F5F5F" stroke="black"/>
</svg>
