<svg width="491" height="227" viewBox="0 0 491 227" fill="none" xmlns="http://www.w3.org/2000/svg">
<path d="M444.278 76.147C438.656 74.8495 435.268 79.7512 434.276 82.3643C426.275 91.8794 430.942 125.254 434.276 140.753C435.989 142.375 441.629 145.456 450.496 144.807C461.579 143.996 455.091 92.0957 455.091 85.6081C455.091 79.1205 451.307 77.7689 444.278 76.147Z" fill="url(#paint0_linear_8336_60583)"/>
<path fill-rule="evenodd" clip-rule="evenodd" d="M381.984 23.2794C385.022 23.2998 386.692 25.7048 386.672 28.7423C386.459 60.3966 406.026 76.0289 414.422 79.6947C417.205 80.9102 418.477 84.1522 417.261 86.936C416.046 89.7198 412.804 90.9911 410.02 89.7757C398.042 84.5459 378.535 67.3767 378.781 30.8508C378.801 27.8133 378.947 23.259 381.984 23.2794Z" fill="#CFD9DC"/>
<path fill-rule="evenodd" clip-rule="evenodd" d="M257.943 23.3884C253.968 23.3884 250.746 26.6104 250.746 30.585V40.9967C246.812 42.0987 243.085 43.6948 239.636 45.7139L232.78 38.8583C229.97 36.0478 225.413 36.0478 222.603 38.8583L214.631 46.8298C211.821 49.6402 211.821 54.1969 214.631 57.0073L221.794 64.1702C220.146 67.2197 218.822 70.4701 217.868 73.8752H207.93C203.956 73.8752 200.734 77.0972 200.734 81.0718V92.3452C200.734 96.3198 203.956 99.5418 207.93 99.5418H217.868C218.761 102.731 219.979 105.784 221.484 108.664L214.631 115.517C211.821 118.328 211.821 122.884 214.631 125.695L222.603 133.666C225.413 136.477 229.97 136.477 232.78 133.666L239.076 127.37C242.681 129.547 246.599 131.258 250.746 132.42V141.76C250.746 145.735 253.968 148.957 257.943 148.957H269.216C273.191 148.957 276.413 145.735 276.413 141.76V132.42C280.56 131.258 284.478 129.547 288.083 127.37L294.379 133.666C297.189 136.477 301.746 136.477 304.556 133.666L312.528 125.695C315.338 122.884 315.338 118.328 312.528 115.517L305.674 108.664C307.18 105.784 308.398 102.731 309.291 99.5418H318.721C322.695 99.5418 325.917 96.3198 325.917 92.3452V81.0718C325.917 77.0972 322.695 73.8752 318.721 73.8752H309.291C308.337 70.4701 307.013 67.2197 305.365 64.1702L312.528 57.0073C315.338 54.1969 315.338 49.6402 312.528 46.8298L304.556 38.8583C301.746 36.0478 297.189 36.0478 294.379 38.8583L287.523 45.714C284.073 43.6949 280.346 42.0987 276.413 40.9967V30.585C276.413 26.6104 273.191 23.3884 269.216 23.3884H257.943ZM263.326 106.396C274.495 106.396 283.549 97.3417 283.549 86.1726C283.549 75.0035 274.495 65.9492 263.326 65.9492C252.156 65.9492 243.102 75.0035 243.102 86.1726C243.102 97.3417 252.156 106.396 263.326 106.396Z" fill="url(#paint1_linear_8336_60583)"/>
<path fill-rule="evenodd" clip-rule="evenodd" d="M351.455 75.6667C349.493 75.6667 347.902 77.2574 347.902 79.2196V84.3596C345.96 84.9037 344.12 85.6916 342.417 86.6884L339.033 83.3039C337.645 81.9165 335.396 81.9165 334.008 83.3039L330.073 87.2393C328.685 88.6268 328.685 90.8763 330.073 92.2637L333.609 95.7999C332.795 97.3054 332.141 98.91 331.67 100.591H326.765C324.803 100.591 323.212 102.182 323.212 104.144V109.709C323.212 111.672 324.803 113.262 326.765 113.262H331.67C332.112 114.837 332.713 116.344 333.456 117.766L330.073 121.149C328.685 122.536 328.685 124.786 330.073 126.173L334.008 130.109C335.396 131.496 337.645 131.496 339.033 130.109L342.141 127.001C343.92 128.075 345.855 128.92 347.902 129.494V134.105C347.902 136.067 349.493 137.657 351.455 137.657H357.02C358.982 137.657 360.573 136.067 360.573 134.105V129.494C362.621 128.92 364.555 128.075 366.334 127.001L369.442 130.109C370.83 131.496 373.079 131.496 374.467 130.109L378.402 126.173C379.79 124.786 379.79 122.536 378.402 121.149L375.019 117.766C375.762 116.344 376.363 114.837 376.805 113.262H381.46C383.422 113.262 385.012 111.672 385.012 109.709V104.144C385.012 102.182 383.422 100.591 381.46 100.591H376.805C376.334 98.91 375.68 97.3054 374.866 95.7999L378.402 92.2637C379.79 90.8763 379.79 88.6268 378.402 87.2393L374.467 83.3039C373.079 81.9165 370.83 81.9165 369.443 83.3039L366.058 86.6885C364.355 85.6917 362.515 84.9037 360.573 84.3596V79.2196C360.573 77.2574 358.982 75.6667 357.02 75.6667H351.455ZM354.112 116.646C359.626 116.646 364.096 112.176 364.096 106.662C364.096 101.148 359.626 96.6784 354.112 96.6784C348.598 96.6784 344.128 101.148 344.128 106.662C344.128 112.176 348.598 116.646 354.112 116.646Z" fill="#ACACCB"/>
<path fill-rule="evenodd" clip-rule="evenodd" d="M351 6.16487C348.826 5.75582 346.732 7.18656 346.323 9.36055L345.251 15.0554C342.986 15.2534 340.783 15.7428 338.689 16.4922L335.644 12.0368C334.396 10.2103 331.904 9.74134 330.077 10.9893L324.897 14.5291C323.07 15.7771 322.601 18.2695 323.849 20.0959L327.03 24.751C325.815 26.2493 324.756 27.8909 323.884 29.6552L318.448 28.6325C316.274 28.2235 314.18 29.6542 313.771 31.8282L312.611 37.9944C312.202 40.1684 313.633 42.2624 315.807 42.6714L321.242 43.6941C321.403 45.5304 321.755 47.3259 322.282 49.0559L317.828 52.0991C316.001 53.3471 315.532 55.8395 316.78 57.6659L320.32 62.8465C321.568 64.673 324.06 65.142 325.887 63.8939L329.979 61.0982C331.726 62.6599 333.693 63.9991 335.842 65.0615L334.881 70.17C334.472 72.344 335.902 74.438 338.076 74.847L344.243 76.0073C346.417 76.4163 348.511 74.9856 348.92 72.8116L349.881 67.703C352.269 67.4943 354.588 66.9616 356.784 66.1418L359.579 70.2335C360.827 72.06 363.32 72.5289 365.146 71.2809L370.327 67.7412C372.153 66.4932 372.622 64.0008 371.374 62.1744L368.331 57.7205C369.451 56.3003 370.431 54.7556 371.248 53.1032L376.406 54.0736C378.58 54.4827 380.674 53.052 381.083 50.878L382.243 44.7117C382.652 42.5378 381.221 40.4438 379.047 40.0348L373.89 39.0643C373.718 37.1036 373.329 35.1895 372.741 33.3519L377.396 30.1712C379.222 28.9232 379.691 26.4308 378.443 24.6044L374.904 19.4238C373.656 17.5973 371.163 17.1283 369.337 18.3763L364.881 21.4206C363.202 19.9612 361.328 18.7046 359.29 17.697L360.361 12.0021C360.771 9.8281 359.34 7.73415 357.166 7.3251L351 6.16487ZM343.665 61.3472C354.869 63.4554 365.661 56.0815 367.77 44.8771C369.878 33.6727 362.504 22.8807 351.299 20.7725C340.095 18.6643 329.303 26.0382 327.195 37.2426C325.087 48.447 332.461 59.239 343.665 61.3472Z" fill="url(#paint2_linear_8336_60583)"/>
<path opacity="0.5" fill-rule="evenodd" clip-rule="evenodd" d="M353.973 199.359C337.115 201.209 313.843 202.353 288.141 202.353C271.273 202.353 255.453 201.86 241.805 200.999C221.829 204.037 181.118 206.118 134.143 206.118C67.4362 206.118 13.3594 201.922 13.3594 196.745C13.3594 191.569 67.4362 187.373 134.143 187.373C158.31 187.373 180.819 187.923 199.7 188.872C212.018 184.799 246.96 181.861 288.141 181.861C328.47 181.861 362.815 184.678 375.789 188.621C387.607 187.727 401.923 187.204 417.351 187.204C457.907 187.204 490.784 190.819 490.784 195.278C490.784 199.737 457.907 203.352 417.351 203.352C390.334 203.352 366.725 201.748 353.973 199.359Z" fill="#161C3D"/>
<path d="M412.542 95.3003C412.573 82.2091 416.684 84.2459 421.841 85.706C431.412 85.4163 435.505 87.9767 439.382 98.2072C446.551 117.124 444.266 141.76 445.688 155.469C447.111 169.178 454.752 178.592 448.595 177.444C443.669 176.525 434.465 177.302 426.678 152.912C418.22 159.358 418.439 180.309 411.946 178.031C403.829 175.183 404.899 164.776 405.374 157.967C405.849 151.158 409.059 137.391 408.687 135.185C405.374 115.55 411.612 110.118 412.542 95.3003Z" fill="url(#paint3_radial_8336_60583)"/>
<path d="M382.562 20.3652C385.548 23.0567 386.891 25.8173 386.383 27.6572C383.754 30.0228 379.407 29.3019 377.988 28.7762C376.569 28.2505 372.941 27.9877 372.941 25.3592C372.941 24.4761 373.993 24.2378 374.571 23.9924C373.012 23.7121 369.862 22.1315 369.735 18.0521C369.578 12.9529 378.83 17.0007 382.562 20.3652Z" fill="black"/>
<path d="M386.203 59.6101C386.204 63.2279 387.6 66.0224 388.165 67.9695C386.281 69.1629 381.605 75.5512 379.042 69.9737C373.39 63.5515 376.405 61.8713 373.39 57.349C370.375 52.8267 375.462 51.5077 379.042 50.3771C382.622 49.2466 386.203 55.0878 386.203 59.6101Z" fill="black"/>
<path fill-rule="evenodd" clip-rule="evenodd" d="M383.849 69.0311C386.417 67.7072 387.165 66.3275 388.422 69.0311C392.903 78.6646 404.733 88.3204 412.148 90.3309C419.81 92.4085 427.842 91.9002 432.091 89.9004C434.702 88.672 437.478 90.8164 438.645 93.5646C439.812 96.3129 438.642 99.5367 436.031 100.765C429.992 103.607 420.227 105.655 409.95 102.868C399.426 100.014 390.741 90.5893 383.347 74.6926C382.089 71.989 381.281 70.3551 383.849 69.0311Z" fill="white"/>
<path d="M439.036 97.0552C431.538 107.184 415.76 105.028 411.329 103.233L408.118 118.319C424.346 125.146 435.491 106.988 439.036 97.0552Z" fill="url(#paint4_linear_8336_60583)"/>
<path d="M448.941 167.305C445.36 173.084 437.11 171.488 435.384 171.226C435.886 173.299 443.793 181.229 446.122 184.579C441.914 186.4 434.573 187.1 434.573 191.595C441.796 194.044 453.6 189 456.243 186.383L448.941 167.305Z" fill="black"/>
<path d="M418.996 166.702C414.849 169.091 407.953 166.609 405.023 165.069C403.84 171.003 404.843 183.774 403.446 184.675C401.699 185.802 379.671 188.337 392.911 190.872C406.151 193.408 413.08 190.534 413.756 190.478C414.297 190.433 417.475 174.609 418.996 166.702Z" fill="black"/>
<path d="M421.914 149.641C417.179 149.187 412.495 143.587 410.82 141.074C408.829 154.943 422.952 156.623 422.821 156.874C424.17 154.216 426.171 152.678 426.858 152.547C425.642 149.467 426.648 150.095 421.914 149.641Z" fill="url(#paint5_linear_8336_60583)"/>
<g style="mix-blend-mode:multiply">
<path d="M413.897 158.954C412.139 157.422 419.427 157.205 422.191 157.04C422.191 157.04 418.999 162.782 418.431 165.334C417.864 167.885 413.03 166.411 412.691 165.334C412.351 164.256 414.269 164.57 415.88 163.845C420.914 161.579 416.094 160.868 413.897 158.954Z" fill="url(#paint6_linear_8336_60583)"/>
</g>
<ellipse cx="418.409" cy="116.244" rx="1.52291" ry="2.24957" fill="#CE0C22"/>
<ellipse cx="419.245" cy="109.755" rx="1.52291" ry="2.24957" transform="rotate(8.50303 419.245 109.755)" fill="#40BAC5"/>
<path d="M411.195 88.2133C424.027 95.1464 440.05 90.3641 446.983 77.5317C453.916 64.6993 449.134 48.6762 436.302 41.7431C423.469 34.8101 407.446 39.5924 400.513 52.4248C393.58 65.2572 398.362 81.2803 411.195 88.2133Z" fill="url(#paint7_radial_8336_60583)"/>
<path d="M403.341 68.0013C402.091 67.6859 401.163 66.6245 401.039 65.3365C400.608 61.0216 401.825 54.695 404.212 51.462C413.366 39.0376 434.462 47.5135 432.138 60.9264C431.06 67.1078 426.615 70.8899 424.621 72.3944C423.984 72.8705 423.151 73.041 422.378 72.8432L403.341 68.0013Z" fill="url(#paint8_linear_8336_60583)"/>
<g style="mix-blend-mode:multiply">
<path d="M432.285 60.9859C433.469 54.2014 428.641 48.6914 422.416 46.5088C426.543 49.2787 415.557 53.8697 414.651 59.1033C413.573 65.2846 422.791 68.9644 420.789 70.4843C420.152 70.9604 419.319 71.1309 418.545 70.9331L401.564 66.6212C401.959 67.3348 402.651 67.8688 403.479 68.0763L422.516 72.9182C423.29 73.116 424.122 72.9455 424.76 72.4694C426.761 70.9494 431.213 67.1911 432.285 60.9859Z" fill="url(#paint9_radial_8336_60583)"/>
</g>
<path d="M412.245 47.6764C413.81 47.2613 415.46 48.1329 415.884 49.6825C416.075 50.366 416.003 51.1279 415.32 51.7995C413.383 53.7548 410.718 52.8352 407.162 59.4185C405.68 62.1602 406.801 64.0864 404.996 63.8716C403.097 63.646 402.215 58.9071 405.4 53.1234C407.372 49.5465 410.298 48.2055 412.245 47.6764Z" fill="white"/>
<path d="M386.103 72.7303C384.44 71.4075 387.738 69.5297 388.976 69.141C401.498 96.0701 427.161 91.7394 429.969 91.5648C432.776 91.3903 438.088 95.1083 432.998 93.1194C427.908 91.1305 418.167 94.3194 415.888 96.0171C413.61 97.7147 412.573 97.0911 409.96 92.0247C407.347 86.9583 403.231 93.38 399.074 91.109C396.598 89.7562 399.142 88.0211 398.132 84.4039C397.122 80.7867 394.087 84.5213 392.288 83.4664C389.801 82.0076 392.099 81.2106 392.02 77.261C391.942 73.3114 388.182 74.3839 386.103 72.7303Z" fill="url(#paint10_linear_8336_60583)"/>
<path d="M440.534 149.069C441.033 146.394 432.464 149.201 428.118 150.94C424.417 152.264 431.209 163.15 434.698 168.569C435.775 168.833 437.96 169.487 441.044 168.852C444.899 168.059 439.627 166.188 433.958 162.617C428.29 159.046 436.736 161.03 439.287 159.159C441.838 157.288 432.314 157.912 431.634 154.341C430.954 150.77 439.91 152.414 440.534 149.069Z" fill="#D2DBDE"/>
<path d="M413.292 105.957H410.681C410.681 107.012 410.116 108.724 409.442 111.65C408.88 114.093 408.565 116.294 408.265 118.253H411.98C412.964 118.253 413.802 117.537 413.956 116.565L415.267 108.27C415.459 107.056 414.521 105.957 413.292 105.957Z" fill="#2E3D6D"/>
<path fill-rule="evenodd" clip-rule="evenodd" d="M347.481 51.3509C353.165 51.3509 357.772 46.7435 357.772 41.0601C357.772 35.3766 353.165 30.7693 347.481 30.7693C341.798 30.7693 337.19 35.3766 337.19 41.0601C337.19 46.7435 341.798 51.3509 347.481 51.3509ZM347.481 45.9659C350.191 45.9659 352.387 43.7695 352.387 41.0601C352.387 38.3506 350.191 36.1542 347.481 36.1542C344.772 36.1542 342.575 38.3506 342.575 41.0601C342.575 43.7695 344.772 45.9659 347.481 45.9659Z" fill="#A7A7C8"/>
<g style="mix-blend-mode:multiply" filter="url(#filter0_f_8336_60583)">
<path d="M84.1772 118.985C81.5984 116.331 89.2648 109.253 92.8992 104.671C87.2117 102.965 76.1974 112.975 75.3633 114.34C74.5291 115.705 76.5954 119.206 77.7328 120.786L84.1772 118.985Z" fill="url(#paint11_linear_8336_60583)"/>
</g>
<circle cx="263.327" cy="85.836" r="28.2311" stroke="#C7CFD2" stroke-width="2"/>
<circle cx="263.326" cy="85.6915" r="25.9398" stroke="#FDFDFD" stroke-width="2"/>
<path fill-rule="evenodd" clip-rule="evenodd" d="M116.322 98.9168C118.995 98.2207 121.725 99.8226 122.421 102.495C123.158 105.322 124.574 112.664 123.588 118.443C123.37 119.715 123.088 120.989 122.851 122.055C122.788 122.342 122.727 122.613 122.673 122.866C122.615 123.13 122.564 123.375 122.518 123.601C122.909 124.854 124.018 124.716 125.02 124.188C127.077 123.104 130.616 122.59 131.704 121.711C133.851 119.975 135.854 119.81 137.59 121.958C139.326 124.105 138.571 125.179 136.424 126.915C134.916 128.135 132.443 129.882 129.722 131.316C127.223 132.633 123.574 134.204 120.039 133.962C117.941 133.818 115.516 133.09 113.849 130.92C112.307 128.914 112.172 126.619 112.231 125.156C112.292 123.636 112.619 122.039 112.9 120.746C112.975 120.401 113.048 120.069 113.12 119.744C113.348 118.715 113.559 117.765 113.73 116.76C114.347 113.147 113.393 107.506 112.744 105.016C112.048 102.344 113.65 99.613 116.322 98.9168ZM122.226 125.81C122.226 125.81 122.223 125.797 122.222 125.767C122.226 125.795 122.226 125.81 122.226 125.81Z" fill="#C0CDD2"/>
<path d="M75.3062 117.2C77.7058 108.779 89.6595 99.0432 95.3365 95.228C105.073 93.9476 118.202 93.7465 118.578 102.688C119.048 113.865 108.32 124.066 116.606 139.489C121.843 149.239 123.668 155.759 121.975 178.601C121.545 184.406 111.531 180.93 111.589 176.043C111.82 156.373 97.5822 136.644 96.1476 150.198C95.3355 157.871 89.7853 177.831 75.7544 178.75C64.5296 179.485 63.048 180.461 65.4547 177.66C87.026 157.356 72.3068 127.727 75.3062 117.2Z" fill="url(#paint12_radial_8336_60583)"/>
<path d="M109.803 139.692C106.305 141.967 100.539 144.333 98.0928 145.231C104.102 144.594 109.373 157.947 111.258 164.703C112.483 163.593 115.426 161.273 117.391 160.867C119.847 160.359 118.54 157.683 112.635 156.939C106.73 156.195 111.669 152.839 114.201 152.605C116.733 152.372 116.154 149.552 109.302 149.751C103.82 149.91 104.536 147.833 105.579 146.774C110.162 144.41 110.304 141.068 109.803 139.692Z" fill="#C0CDD2"/>
<path d="M116.389 103.233C102.022 100.717 92.4147 87.031 94.9303 72.6641C97.446 58.2971 111.132 48.6898 125.499 51.2055C139.866 53.7211 149.473 67.4072 146.958 81.7742C144.442 96.1411 130.756 105.748 116.389 103.233Z" fill="url(#paint13_radial_8336_60583)"/>
<path d="M135.082 92.2425C136.258 92.7703 137.644 92.5124 138.54 91.579C141.553 88.4603 144.521 82.7418 144.652 78.7252C145.172 63.3015 123.365 56.8734 116.873 68.8384C113.887 74.357 115.029 80.0802 115.661 82.4966C115.866 83.2653 116.413 83.9153 117.143 84.2397L135.082 92.2425Z" fill="url(#paint14_linear_8336_60583)"/>
<g style="mix-blend-mode:multiply">
<path d="M116.721 68.7945C119.998 62.737 127.202 61.4066 133.44 63.5534C128.485 63.1683 134.258 73.581 131.724 78.2495C128.738 83.7681 119.224 80.9403 119.852 83.3739C120.057 84.1427 120.605 84.7926 121.335 85.117L137.332 92.2617C136.58 92.5768 135.706 92.5667 134.927 92.2159L116.989 84.213C116.259 83.8887 115.711 83.2387 115.506 82.47C114.878 80.0363 113.715 74.3274 116.721 68.7945Z" fill="url(#paint15_radial_8336_60583)"/>
</g>
<path d="M140.696 70.7752C139.726 69.4792 137.89 69.14 136.597 70.0933C136.024 70.5112 135.608 71.1532 135.727 72.1036C136.035 74.8386 138.696 75.7693 137.405 83.1399C136.868 86.2095 134.794 87.0261 136.344 87.9766C137.974 88.977 141.604 85.8054 142.69 79.2929C143.36 75.2634 141.896 72.3973 140.696 70.7752Z" fill="white"/>
<path d="M123.769 167.604C123.9 166.361 112.053 165.336 110.152 166.163C107.999 171.336 111.554 191.946 113.668 192.207C116.311 192.533 130.844 192.801 134.512 190.362C138.18 187.923 125.724 185.403 124.377 185.827C123.3 186.166 123.846 172.604 123.769 167.604Z" fill="black"/>
<path d="M80.573 170.891C75.883 168.325 74.9607 163.844 75.1712 162.22C70.0433 168.215 68.4189 171.612 65.6027 175.041C62.0524 179.364 60.68 185.698 61.3222 188.472C61.8646 190.814 86.7568 194.445 83.5707 190.827C80.3845 187.209 73.9026 183.211 75.9387 182.468C77.5675 181.874 85.1321 177.178 88.3018 172.76C86.3984 172.559 85.263 173.456 80.573 170.891Z" fill="black"/>
<path d="M191.519 88.6208L170.641 95.0309C169.155 95.4868 167.965 96.6075 167.418 98.0644L164.621 105.53C163.822 107.661 164.559 110.062 166.416 111.378L172.919 115.987C174.188 116.886 175.801 117.146 177.289 116.689L198.168 110.279C201.316 109.312 204.195 112.504 202.836 115.507C199.585 122.685 193.253 128.553 184.946 131.104C169.931 135.714 156.007 127.178 151.573 112.735C147.139 98.2929 153.874 83.4138 168.888 78.8039C177.197 76.2538 185.731 77.5569 192.45 81.6752C195.259 83.398 194.669 87.6548 191.519 88.6208Z" fill="#ADADC8"/>
<path fill-rule="evenodd" clip-rule="evenodd" d="M194.072 86.1229C193.968 85.0145 193.389 83.9434 192.283 83.2651C185.564 79.1468 177.03 77.8437 168.721 80.3938C158.094 83.6566 151.615 92.0641 150.308 101.82C151.109 91.414 157.699 82.2811 168.884 78.847C177.193 76.2968 185.727 77.6 192.446 81.7182C194.071 82.7145 194.558 84.5582 194.072 86.1229ZM164.304 107.587C163.768 109.593 164.527 111.747 166.249 112.968L172.752 117.577C174.021 118.476 175.634 118.735 177.122 118.279L198.001 111.869C200.457 111.115 202.748 112.891 202.993 115.134C203.925 112.262 201.167 109.4 198.164 110.322L177.285 116.732C175.797 117.189 174.183 116.929 172.915 116.03L166.411 111.421C165.129 110.512 164.381 109.085 164.304 107.587Z" fill="#DBDBFF"/>
<path d="M45.9564 133.69L42.3365 134.802C36.127 136.709 32.1346 141.648 33.42 145.835L34.9477 150.812C36.2331 154.999 42.3093 156.847 48.5195 154.942L52.1409 153.832C52.3811 153.759 52.6184 153.68 52.8544 153.596L158.718 116.025L155.389 105.181L46.6806 133.486C46.438 133.549 46.1966 133.617 45.9564 133.69ZM47.7893 138.643C52.4649 137.208 56.9456 138.297 57.7997 141.074C58.6529 143.853 55.5543 147.268 50.8787 148.703C46.203 150.138 41.7223 149.049 40.8683 146.272C40.0151 143.493 43.1136 140.078 47.7893 138.643Z" fill="#ADADC8"/>
<path d="M42.7541 134.846L46.3741 133.734C46.6142 133.661 46.8556 133.593 47.0983 133.53L150.984 106.304L150.9 107.098L47.0142 134.324C46.7715 134.388 46.5301 134.456 46.29 134.529L42.6701 135.64C37.7314 137.157 34.1952 140.592 33.6013 144.04C33.7441 140.336 37.436 136.479 42.7541 134.846Z" fill="#DBDBFF"/>
<path d="M41.1447 145.39C41.0186 145.975 41.0314 146.555 41.2018 147.11C42.0559 149.888 46.5366 150.976 51.2122 149.541C55.3791 148.263 58.2934 145.411 58.2745 142.839C57.7696 145.182 55.0379 147.599 51.2963 148.747C46.6206 150.182 42.14 149.093 41.2859 146.316C41.1931 146.014 41.147 145.704 41.1447 145.39Z" fill="#DBDBFF"/>
<path d="M97.5799 108.685L94.6379 112.951C93.8693 114.065 94.4068 115.605 95.7018 116L102.954 118.208C103.827 118.473 104.769 118.114 105.244 117.335L107.866 113.032C108.496 112 108.072 110.65 106.966 110.162L101.261 107.644C99.943 107.062 98.3978 107.499 97.5799 108.685Z" fill="#2E3D6D"/>
<path d="M88.1624 144.053C91.5753 142.356 82.6341 143.039 77.7369 143.593C78.9016 153.418 76.3917 160.354 74.9912 162.594C75.0763 164.104 76.6292 167.6 82.16 169.508C89.0735 171.893 79.478 160.129 78.472 154.878C77.466 149.627 79.5612 156.739 85.9966 158.431C92.432 160.122 82.1571 149.572 79.3086 146.974C76.4601 144.376 83.8962 146.174 88.1624 144.053Z" fill="#C0CDD2"/>
<path d="M142.061 111.407C145.988 111.618 144.744 117.823 142.692 121.25C142.472 122.021 139.242 124.605 135.592 125.97C131.03 127.678 135.942 121.043 136.455 117.816C136.968 114.59 137.152 111.143 142.061 111.407Z" fill="black"/>
<path fill-rule="evenodd" clip-rule="evenodd" d="M107.176 95.19C107.306 95.2986 107.432 95.4032 107.553 95.5029C109.752 97.3141 110.068 100.57 108.258 102.775C106.449 104.98 103.2 105.299 101.001 103.488C98.5647 101.481 97.974 101.145 97.195 101.071C96.3315 100.989 94.1249 101.243 88.9149 104.494C85.4881 106.633 83.0429 108.159 81.244 109.378C79.3909 110.633 78.5991 111.318 78.2455 111.716C78.2263 111.737 78.21 111.756 78.1963 111.773C78.1749 112.074 78.2058 112.625 78.3585 114.179C78.4951 115.569 79.246 117.555 80.6485 120.28C81.256 121.461 81.9154 122.652 82.6099 123.907C82.6809 124.035 82.7522 124.164 82.8239 124.294C83.5769 125.655 84.3711 127.101 85.0658 128.513C86.3245 131.071 85.2743 134.17 82.7202 135.433C80.166 136.697 77.0751 135.647 75.8165 133.088C75.2459 131.928 74.5659 130.686 73.8043 129.309C73.732 129.178 73.6589 129.046 73.5852 128.913C72.903 127.681 72.1665 126.351 71.483 125.022C70.0315 122.202 68.4409 118.704 68.0967 115.2C68.0883 115.116 68.0797 115.029 68.0709 114.941C67.9419 113.646 67.7739 111.96 67.9786 110.366C68.2479 108.27 69.0964 106.479 70.5495 104.845C71.8165 103.42 73.5308 102.135 75.4743 100.818C77.4529 99.4781 80.0634 97.8492 83.3737 95.7836L83.4699 95.7236C89.1124 92.2028 93.7861 90.369 98.1708 90.7831C102.353 91.1781 105.271 93.6057 107.176 95.19Z" fill="url(#paint16_linear_8336_60583)"/>
<path d="M82.9576 123.441C79.1945 121.637 73.9919 124.72 71.861 126.487C69.4191 133.169 74.6316 145.405 81.4843 141.563C86.3929 138.811 83.0139 132.708 86.1313 131.907C89.0162 131.166 88.8337 130.674 88.9496 128.591C89.0654 126.507 87.6615 125.695 82.9576 123.441Z" fill="black"/>
<defs>
<filter id="filter0_f_8336_60583" x="74.1699" y="103.476" width="19.7295" height="18.3096" filterUnits="userSpaceOnUse" color-interpolation-filters="sRGB">
<feFlood flood-opacity="0" result="BackgroundImageFix"/>
<feBlend mode="normal" in="SourceGraphic" in2="BackgroundImageFix" result="shape"/>
<feGaussianBlur stdDeviation="0.5" result="effect1_foregroundBlur_8336_60583"/>
</filter>
<linearGradient id="paint0_linear_8336_60583" x1="452.388" y1="90.4738" x2="429.858" y2="91.0144" gradientUnits="userSpaceOnUse">
<stop stop-color="white"/>
<stop offset="1" stop-color="#CED8DB"/>
</linearGradient>
<linearGradient id="paint1_linear_8336_60583" x1="263.326" y1="23.3884" x2="263.326" y2="148.957" gradientUnits="userSpaceOnUse">
<stop stop-color="white"/>
<stop offset="1" stop-color="#ACACCB"/>
</linearGradient>
<linearGradient id="paint2_linear_8336_60583" x1="353.944" y1="6.71886" x2="341.021" y2="75.401" gradientUnits="userSpaceOnUse">
<stop stop-color="white"/>
<stop offset="1" stop-color="#9A9AC0"/>
</linearGradient>
<radialGradient id="paint3_radial_8336_60583" cx="0" cy="0" r="1" gradientUnits="userSpaceOnUse" gradientTransform="translate(415.626 86.8689) rotate(67.4621) scale(110.945 58.6112)">
<stop offset="0.0190804" stop-color="#C0CDD2"/>
<stop offset="0.367335" stop-color="white"/>
<stop offset="1" stop-color="#BFCCD1"/>
</radialGradient>
<linearGradient id="paint4_linear_8336_60583" x1="423.577" y1="97.0552" x2="423.577" y2="119.817" gradientUnits="userSpaceOnUse">
<stop stop-color="#C1CED2"/>
<stop offset="1" stop-color="#C1CED2" stop-opacity="0"/>
</linearGradient>
<linearGradient id="paint5_linear_8336_60583" x1="418.743" y1="141.074" x2="418.743" y2="156.874" gradientUnits="userSpaceOnUse">
<stop stop-color="#D1DADE"/>
<stop offset="1" stop-color="#C0CDD2" stop-opacity="0"/>
</linearGradient>
<linearGradient id="paint6_linear_8336_60583" x1="403.972" y1="157.04" x2="417.421" y2="166.747" gradientUnits="userSpaceOnUse">
<stop stop-color="#C0CDD2"/>
<stop offset="1" stop-color="#C0CDD2" stop-opacity="0"/>
</linearGradient>
<radialGradient id="paint7_radial_8336_60583" cx="0" cy="0" r="1" gradientUnits="userSpaceOnUse" gradientTransform="translate(414.514 100.254) rotate(28.3814) scale(44.1525)">
<stop offset="0.381" stop-color="#BFCCD1"/>
<stop offset="0.7578" stop-color="white"/>
</radialGradient>
<linearGradient id="paint8_linear_8336_60583" x1="403.703" y1="52.2228" x2="430.096" y2="66.4824" gradientUnits="userSpaceOnUse">
<stop stop-color="#FFF668"/>
<stop offset="0.29" stop-color="#FF9C4C"/>
<stop offset="1" stop-color="#880000"/>
</linearGradient>
<radialGradient id="paint9_radial_8336_60583" cx="0" cy="0" r="1" gradientUnits="userSpaceOnUse" gradientTransform="translate(412.53 62.6199) rotate(28.3814) scale(23.6114)">
<stop stop-color="white"/>
<stop offset="0.9385" stop-color="#880000"/>
</radialGradient>
<linearGradient id="paint10_linear_8336_60583" x1="411.209" y1="71.0112" x2="398.894" y2="98.2596" gradientUnits="userSpaceOnUse">
<stop stop-color="#D4DDE0"/>
<stop offset="1" stop-color="#D4DDE0" stop-opacity="0"/>
</linearGradient>
<linearGradient id="paint11_linear_8336_60583" x1="84.0346" y1="104.476" x2="84.0346" y2="120.786" gradientUnits="userSpaceOnUse">
<stop stop-color="#C0CDD2"/>
<stop offset="1" stop-color="#C0CDD2" stop-opacity="0"/>
</linearGradient>
<radialGradient id="paint12_radial_8336_60583" cx="0" cy="0" r="1" gradientUnits="userSpaceOnUse" gradientTransform="translate(118.099 113.143) rotate(130.827) scale(69.0093 45.8081)">
<stop stop-color="white"/>
<stop offset="1" stop-color="#C0CDD2"/>
</radialGradient>
<radialGradient id="paint13_radial_8336_60583" cx="0" cy="0" r="1" gradientUnits="userSpaceOnUse" gradientTransform="translate(106.32 110.622) rotate(-170.068) scale(44.1525)">
<stop offset="0.381" stop-color="#BFCCD1"/>
<stop offset="0.7578" stop-color="white"/>
</radialGradient>
<linearGradient id="paint14_linear_8336_60583" x1="144.579" y1="79.6377" x2="115.03" y2="74.4636" gradientUnits="userSpaceOnUse">
<stop stop-color="#FFF668"/>
<stop offset="0.29" stop-color="#FF9C4C"/>
<stop offset="1" stop-color="#880000"/>
</linearGradient>
<radialGradient id="paint15_radial_8336_60583" cx="0" cy="0" r="1" gradientUnits="userSpaceOnUse" gradientTransform="translate(131.209 82.3238) rotate(-170.068) scale(23.6113)">
<stop stop-color="white"/>
<stop offset="0.9385" stop-color="#880000"/>
</radialGradient>
<linearGradient id="paint16_linear_8336_60583" x1="118.777" y1="106.935" x2="78.1539" y2="114.49" gradientUnits="userSpaceOnUse">
<stop stop-color="white"/>
<stop offset="1" stop-color="#C0CDD2"/>
</linearGradient>
</defs>
</svg>
