<svg width="24" height="24" viewBox="0 0 24 24" fill="none" xmlns="http://www.w3.org/2000/svg">
<path d="M7.91104 8.79248C8.12311 8.79248 8.32649 8.87672 8.47644 9.02668C8.62639 9.17663 8.71064 9.38001 8.71064 9.59207V19.1872C8.71064 19.3993 8.62639 19.6026 8.47644 19.7526C8.32649 19.9025 8.12311 19.9868 7.91104 19.9868C7.69898 19.9868 7.4956 19.9025 7.34565 19.7526C7.19569 19.6026 7.11145 19.3993 7.11145 19.1872V9.59207C7.11145 9.38001 7.19569 9.17663 7.34565 9.02668C7.4956 8.87672 7.69898 8.79248 7.91104 8.79248ZM11.909 8.79248C12.1211 8.79248 12.3245 8.87672 12.4744 9.02668C12.6244 9.17663 12.7086 9.38001 12.7086 9.59207V19.1872C12.7086 19.3993 12.6244 19.6026 12.4744 19.7526C12.3245 19.9025 12.1211 19.9868 11.909 19.9868C11.6969 19.9868 11.4936 19.9025 11.3436 19.7526C11.1937 19.6026 11.1094 19.3993 11.1094 19.1872V9.59207C11.1094 9.38001 11.1937 9.17663 11.3436 9.02668C11.4936 8.87672 11.6969 8.79248 11.909 8.79248ZM16.7066 9.59207C16.7066 9.38001 16.6223 9.17663 16.4724 9.02668C16.3224 8.87672 16.119 8.79248 15.907 8.79248C15.6949 8.79248 15.4915 8.87672 15.3416 9.02668C15.1916 9.17663 15.1074 9.38001 15.1074 9.59207V19.1872C15.1074 19.3993 15.1916 19.6026 15.3416 19.7526C15.4915 19.9025 15.6949 19.9868 15.907 19.9868C16.119 19.9868 16.3224 19.9025 16.4724 19.7526C16.6223 19.6026 16.7066 19.3993 16.7066 19.1872V9.59207Z" fill="#ADADC8"/>
<path d="M19.9046 5.89681H19.4046V6.39681V20.7895C19.4046 21.5051 19.1203 22.1915 18.6142 22.6975C18.1082 23.2036 17.4218 23.4879 16.7062 23.4879H7.11107C6.39542 23.4879 5.70907 23.2036 5.20303 22.6975C4.69699 22.1915 4.4127 21.5051 4.4127 20.7895V6.39681V5.89681H3.9127H3.1131C2.82158 5.89681 2.542 5.781 2.33586 5.57486C2.12972 5.36873 2.01392 5.08914 2.01392 4.79762V3.19843C2.01392 2.90691 2.12972 2.62733 2.33586 2.42119C2.542 2.21505 2.82158 2.09925 3.1131 2.09925H8.71026H9.21026V1.59925C9.21026 1.30773 9.32606 1.02814 9.5322 0.822005C9.73834 0.615868 10.0179 0.500061 10.3094 0.500061H13.5078C13.7993 0.500061 14.0789 0.615868 14.2851 0.822005C14.4912 1.02814 14.607 1.30773 14.607 1.59925V2.09925H15.107H20.7042C20.9957 2.09925 21.2753 2.21505 21.4814 2.42119C21.6875 2.62733 21.8033 2.90691 21.8033 3.19843V4.79762C21.8033 5.08914 21.6875 5.36873 21.4814 5.57486C21.2753 5.781 20.9957 5.89681 20.7042 5.89681H19.9046ZM5.70059 5.89681H5.58255L5.47698 5.94959L5.28828 6.04395L5.01188 6.18214V6.49116V20.7895C5.01188 21.3462 5.23305 21.8802 5.62672 22.2738C6.02039 22.6675 6.55433 22.8887 7.11107 22.8887H16.7062C17.2629 22.8887 17.7969 22.6675 18.1905 22.2738C18.5842 21.8802 18.8054 21.3462 18.8054 20.7895V6.49116V6.18214L18.529 6.04395L18.3403 5.94959L18.2347 5.89681H18.1167H5.70059ZM2.6131 4.79762V5.29762H3.1131H20.7042H21.2042V4.79762V3.19843V2.69843H20.7042H3.1131H2.6131V3.19843V4.79762Z" fill="#ADADC8" stroke="#75758F"/>
</svg>
