<svg width="77" height="52" viewBox="0 0 77 52" fill="none" xmlns="http://www.w3.org/2000/svg">
<g opacity="0.8">
<path opacity="0.95" d="M77 41.3334C77 46.8562 72.5228 51.3334 67 51.3334L0 51.3334V4.19617e-05L77 4.19617e-05V41.3334Z" fill="#1F2337"/>
</g>
<path d="M38.5001 28.8229L42.5197 24.6147M38.5001 28.8229V16.1984V28.8229ZM38.5001 28.8229L34.4805 24.6147L38.5001 28.8229Z" stroke="#EBEAF3" stroke-width="3.13725" stroke-linecap="round" stroke-linejoin="round"/>
<path d="M28.4509 30.9268L29.075 33.5411C29.1837 33.9963 29.4345 34.4005 29.7878 34.6892C30.141 34.978 30.5763 35.1349 31.0245 35.135H45.9754C46.4236 35.1349 46.8589 34.978 47.2121 34.6892C47.5653 34.4005 47.8162 33.9963 47.9249 33.5411L48.549 30.9268" stroke="#EBEAF3" stroke-width="3.13725" stroke-linecap="round" stroke-linejoin="round"/>
</svg>
