<svg width="18" height="22" viewBox="0 0 18 22" fill="none" xmlns="http://www.w3.org/2000/svg">
<path fill-rule="evenodd" clip-rule="evenodd" d="M4.5 14.8909H13.5C13.7984 14.8909 14.0845 15.003 14.2955 15.2024C14.5065 15.4019 14.625 15.6725 14.625 15.9545C14.625 16.2366 14.5065 16.5072 14.2955 16.7066C14.0845 16.9061 13.7984 17.0182 13.5 17.0182H3.375C3.07663 17.0182 2.79048 16.9061 2.5795 16.7066C2.36853 16.5072 2.25 16.2366 2.25 15.9545V2.12727H1.125C0.826631 2.12727 0.540484 2.01521 0.329505 1.81574C0.118527 1.61627 0 1.34573 0 1.06364C0 0.781542 0.118527 0.511002 0.329505 0.311532C0.540484 0.112061 0.826631 0 1.125 0H3.375C3.67337 0 3.95952 0.112061 4.1705 0.311532C4.38147 0.511002 4.5 0.781542 4.5 1.06364V10.6364H14.3719L15.75 5.31818V3.19197C17.0381 3.19197 18 4.14286 18 5.31818C18 5.47347 17.9809 5.6277 17.9438 5.7798L16.6489 11.098C16.4126 12.0712 15.4654 12.7636 14.3719 12.7636H4.58212L4.5 12.7626V14.8909ZM3.9375 21.2727C3.48995 21.2727 3.06072 21.1046 2.74426 20.8054C2.42779 20.5062 2.25 20.1004 2.25 19.6773C2.25 19.2541 2.42779 18.8483 2.74426 18.5491C3.06072 18.2499 3.48995 18.0818 3.9375 18.0818C4.38505 18.0818 4.81428 18.2499 5.13074 18.5491C5.44721 18.8483 5.625 19.2541 5.625 19.6773C5.625 20.1004 5.44721 20.5062 5.13074 20.8054C4.81428 21.1046 4.38505 21.2727 3.9375 21.2727ZM14.0625 21.2727C13.6149 21.2727 13.1857 21.1046 12.8693 20.8054C12.5528 20.5062 12.375 20.1004 12.375 19.6773C12.375 19.2541 12.5528 18.8483 12.8693 18.5491C13.1857 18.2499 13.6149 18.0818 14.0625 18.0818C14.5101 18.0818 14.9393 18.2499 15.2557 18.5491C15.5722 18.8483 15.75 19.2541 15.75 19.6773C15.75 20.1004 15.5722 20.5062 15.2557 20.8054C14.9393 21.1046 14.5101 21.2727 14.0625 21.2727ZM11.25 3.19091H12.375C12.6734 3.19091 12.9595 3.30297 13.1705 3.50244C13.3815 3.70191 13.5 3.97245 13.5 4.25455C13.5 4.53664 13.3815 4.80718 13.1705 5.00665C12.9595 5.20612 12.6734 5.31818 12.375 5.31818H11.25V6.38182C11.25 6.66391 11.1315 6.93445 10.9205 7.13392C10.7095 7.33339 10.4234 7.44545 10.125 7.44545C9.82663 7.44545 9.54048 7.33339 9.3295 7.13392C9.11853 6.93445 9 6.66391 9 6.38182V5.31818H7.875C7.57663 5.31818 7.29048 5.20612 7.0795 5.00665C6.86853 4.80718 6.75 4.53664 6.75 4.25455C6.75 3.97245 6.86853 3.70191 7.0795 3.50244C7.29048 3.30297 7.57663 3.19091 7.875 3.19091H9V2.12727C9 1.84518 9.11853 1.57464 9.3295 1.37517C9.54048 1.1757 9.82663 1.06364 10.125 1.06364C10.4234 1.06364 10.7095 1.1757 10.9205 1.37517C11.1315 1.57464 11.25 1.84518 11.25 2.12727V3.19091Z" fill="#FFA318"/>
</svg>
