<svg width="40" height="41" viewBox="0 0 40 41" fill="none" xmlns="http://www.w3.org/2000/svg">
<path d="M19.6966 40.1964C8.81792 40.1964 0 31.3785 0 20.4998C0 9.62114 8.81792 0.803223 19.6966 0.803223C30.5753 0.803223 39.3932 9.62114 39.3932 20.4998C39.3932 31.3785 30.5753 40.1964 19.6966 40.1964ZM14.9152 18.5351L19.6966 13.7537L24.4804 18.5375L27.2625 15.7554L19.6966 8.18944L12.1331 15.7529L14.9152 18.5351ZM7.38622 20.4998L10.1684 23.282L12.9505 20.4998L10.1684 17.7177L7.38622 20.4998ZM14.9152 22.4645L12.1294 25.243L12.1331 25.2467L19.6966 32.8102L27.2625 25.2442V25.243L24.4804 22.4609L19.6966 27.2459L14.9152 22.4645ZM26.4427 20.4998L29.2248 23.282L32.007 20.4998L29.2248 17.7177L26.4427 20.4998ZM22.5181 20.4973H22.5194L19.6966 17.6758L17.61 19.7612L17.3699 20.0012L16.8763 20.4961L16.8714 20.4998L16.8763 20.5035L19.6954 23.3238L22.5194 20.501L22.5206 20.4998L22.5181 20.4986V20.4973Z" fill="#4048FF"/>
</svg>
