<svg width="98" height="99" viewBox="0 0 98 99" fill="none" xmlns="http://www.w3.org/2000/svg">
<path d="M36.3247 24.4365V30.7412H30.0201V37.0458H42.6294V24.4365H36.3247ZM60.7867 24.6257C59.6516 24.6555 58.5266 24.8465 57.4453 25.1931C55.743 25.8235 54.1038 26.7692 52.7168 28.1563L49.9427 30.9303C49.5436 31.1833 49.2065 31.5228 48.9563 31.9236C48.7062 32.3244 48.5493 32.7764 48.4973 33.246C48.4453 33.7157 48.4996 34.191 48.6561 34.6369C48.8126 35.0827 49.0674 35.4876 49.4015 35.8218C49.7356 36.1559 50.1405 36.4106 50.5864 36.5671C51.0322 36.7236 51.5076 36.7779 51.9772 36.7259C52.4468 36.674 52.8988 36.5171 53.2996 36.2669C53.7005 36.0167 54.04 35.6796 54.2929 35.2805L57.067 32.5065C57.7605 31.813 58.5801 31.4347 59.4627 31.1194C61.6694 30.3629 64.3804 30.6781 66.1457 32.5065C68.6045 34.9653 68.6045 39.0633 66.1457 41.5851L56.6887 51.0421C56.2896 51.2951 55.9525 51.6346 55.7023 52.0354C55.4521 52.4362 55.2952 52.8882 55.2433 53.3578C55.1913 53.8275 55.2456 54.3028 55.4021 54.7487C55.5586 55.1945 55.8133 55.5995 56.1474 55.9336C56.4816 56.2677 56.8865 56.5224 57.3324 56.6789C57.7782 56.8354 58.2535 56.8897 58.7232 56.8377C59.1928 56.7858 59.6448 56.6289 60.0456 56.3787C60.4464 56.1285 60.7859 55.7914 61.0389 55.3923L70.4959 45.9353C72.0895 44.3551 73.2277 42.3744 73.7905 40.2018C74.3533 38.0292 74.32 35.745 73.6941 33.5897C73.0682 31.4345 71.8728 29.4878 70.2337 27.9547C68.5947 26.4215 66.5726 25.3586 64.3804 24.8778C63.2455 24.6257 61.9846 24.6257 60.8498 24.6887L60.7867 24.6257ZM38.1531 42.9722C37.6753 43.2023 37.2633 43.5493 36.9552 43.9809L27.4982 53.4379C26.3297 54.5982 25.4023 55.9782 24.7695 57.4985C24.1366 59.0187 23.8108 60.6492 23.8108 62.2959C23.8108 63.9426 24.1366 65.5731 24.7695 67.0933C25.4023 68.6136 26.3297 69.9936 27.4982 71.1539C31.0288 74.6845 36.0725 75.6932 40.4858 74.1171C42.188 73.4866 43.8272 72.5409 45.2143 71.1539L47.9883 68.3799C48.3874 68.1269 48.7245 67.7874 48.9747 67.3866C49.2249 66.9857 49.3818 66.5338 49.4337 66.0641C49.4857 65.5945 49.4314 65.1192 49.2749 64.6733C49.1184 64.2275 48.8637 63.8225 48.5296 63.4884C48.1954 63.1543 47.7905 62.8996 47.3446 62.743C46.8988 62.5865 46.4235 62.5323 45.9538 62.5842C45.4842 62.6362 45.0322 62.7931 44.6314 63.0433C44.2305 63.2935 43.8911 63.6306 43.6381 64.0297L40.8641 66.8037C40.1705 67.4972 39.3509 67.8755 38.4683 68.1907C36.2617 68.9473 33.5507 68.632 31.7854 66.8037C29.3266 64.3449 29.3266 60.2469 31.7854 57.725L41.2423 48.2681C41.7001 47.7914 41.9965 47.1829 42.0896 46.5286C42.1827 45.8743 42.0678 45.2073 41.7612 44.6218C41.4545 44.0364 40.9716 43.5621 40.3807 43.2661C39.7898 42.9701 39.1208 42.8672 38.4683 42.9722C38.3423 42.9646 38.216 42.9646 38.09 42.9722H38.1531ZM55.3017 62.2644V74.8736H61.6063V68.569H67.911V62.2644H55.3017Z" fill="#4048FF"/>
<circle cx="49.0001" cy="49.6551" r="46.318" stroke="#4048FF" stroke-width="5"/>
</svg>
