<svg width="188" height="188" viewBox="0 0 188 188" fill="none" xmlns="http://www.w3.org/2000/svg">
<rect x="0.0378418" y="0.115173" width="187.395" height="187.395" rx="93.6976" fill="url(#paint0_radial)"/>
<mask id="mask0" mask-type="alpha" maskUnits="userSpaceOnUse" x="0" y="0" width="188" height="188">
<rect x="0.0378418" y="0.115173" width="187.395" height="187.395" rx="93.6976" fill="#75758F"/>
</mask>
<g mask="url(#mask0)">
<path d="M71.6187 134.647C68.0303 134.741 67.448 136.811 67.6054 137.834C83.462 138.975 115.246 140.572 115.529 137.834C115.813 135.095 113.444 134.568 112.224 134.647H90.0329C85.39 134.607 75.2071 134.552 71.6187 134.647Z" fill="black"/>
<path d="M62.5188 140.078C73.2282 138.395 73.6744 122.739 72.5588 115.122L91.4913 103.456V186.836H27.4267C24.9406 159.68 29.1478 151.648 32.112 146.771C35.0762 141.895 49.1321 142.182 62.5188 140.078Z" fill="url(#paint1_linear)"/>
<path d="M120.464 140.078C109.754 138.395 109.308 122.739 110.424 115.122L91.4913 103.456V186.836H155.556C158.042 159.68 153.835 151.648 150.871 146.771C147.907 141.895 133.851 142.182 120.464 140.078Z" fill="url(#paint2_linear)"/>
<path fill-rule="evenodd" clip-rule="evenodd" d="M91.502 166.423C76.4092 160.477 69.3747 143.984 67.744 136.478C65.6087 139.272 59.1077 139.905 46.355 141.147C43.7986 141.395 40.9909 141.669 37.9169 141.989C23.1897 143.522 20.4401 161.316 20.9061 170.021V187.51L91.4915 187.511H162.098V170.021C162.564 161.316 159.814 143.522 145.087 141.989C142.013 141.669 139.205 141.395 136.649 141.147C123.896 139.905 117.395 139.272 115.26 136.478C113.629 143.984 106.595 160.477 91.502 166.423Z" fill="black"/>
<path fill-rule="evenodd" clip-rule="evenodd" d="M57.1594 57.794C55.1635 40.0119 69.0784 24.4478 86.9721 24.4478H96.0104C113.904 24.4478 127.819 40.0119 125.823 57.794L124.243 71.8756C125.315 71.0524 126.96 70.7235 128.727 72.9065C131.767 76.6612 125.905 102.078 121.345 99.1894C121.288 99.1532 121.233 99.1136 121.179 99.0707C119.983 107.626 115.151 115.266 107.903 120.012L97.5171 126.813C93.8573 129.209 89.1253 129.209 85.4654 126.813L75.08 120.012C67.8312 115.266 62.9999 107.626 61.8035 99.0707C61.7498 99.1136 61.6944 99.1532 61.6372 99.1894C57.0777 102.078 51.2155 76.6612 54.2551 72.9065C56.0223 70.7235 57.6673 71.0524 58.7399 71.8756L57.1594 57.794Z" fill="#F6F6FF"/>
<path d="M62.7154 25.1417C63.6688 22.9981 64.9866 20.5441 65.8276 20.6282C66.9398 20.7394 67.4959 21.8794 67.6349 22.4355L71.1106 20.6282V22.2881C72.1207 22.0743 73.1516 21.8875 74.1897 21.7248C78.622 19.6471 85.2186 17.1008 90.0181 17.0135C94.2641 16.9363 101.659 18.3592 109.059 19.783C114.985 20.9233 120.914 22.0641 125.232 22.4355C127.018 22.5892 128.355 22.3367 129.363 22.1465C130.513 21.9293 131.234 21.7931 131.704 22.4355C131.62 23.3567 131.996 24.6852 132.42 26.1859C133.404 29.6677 134.651 34.0767 131.031 36.4771C130.787 36.6386 131.104 36.8526 131.607 37.1924C133.258 38.3068 136.914 40.7743 129.362 47.1821C129.03 47.4639 128.706 47.7792 128.39 48.1182C129.427 60.3911 126.283 68.4925 125.32 70.9748C125.273 71.0957 125.232 71.2036 125.196 71.2977C124.825 71.5587 124.444 71.6702 124.014 71.7957C122.574 72.2167 120.591 72.796 116.671 79.6944L119.225 70.514C121.289 66.5389 119.946 59.3999 118.661 52.5615C118.552 51.9826 118.443 51.4059 118.337 50.8334C114.404 46.132 104.719 38.5659 91.8254 39.8137C91.5969 39.8358 91.3696 39.8588 91.1435 39.8825V39.9013C91.1266 39.8972 91.1068 39.893 91.0843 39.8888C91.0465 39.8928 91.0086 39.8968 90.9708 39.9008C90.9702 39.901 90.9696 39.9011 90.969 39.9013C82.8341 40.773 76.3319 42.6714 71.7366 44.0133C68.2235 45.0391 65.8248 45.7395 64.6631 45.4069C64.3768 47.6421 63.9181 50.082 63.4519 52.5615C62.1662 59.3999 60.8239 66.5389 62.8871 70.514L65.4415 79.6944C61.5215 72.796 59.5389 72.2167 58.0984 71.7957C57.6686 71.6702 57.2871 71.5587 56.9168 71.2977C56.8809 71.2036 56.8392 71.096 56.7923 70.9751C55.414 67.4227 49.571 52.3631 57.9011 30.0383C58.6591 28.0067 60.3936 26.4029 62.7154 25.1417Z" fill="black"/>
</g>
<defs>
<radialGradient id="paint0_radial" cx="0" cy="0" r="1" gradientUnits="userSpaceOnUse" gradientTransform="translate(108.819 179.63) rotate(-79.4365) scale(186.594)">
<stop stop-color="#75758F"/>
<stop offset="1" stop-color="#ADADC8"/>
</radialGradient>
<linearGradient id="paint1_linear" x1="98.2975" y1="152.546" x2="93.4554" y2="72.3479" gradientUnits="userSpaceOnUse">
<stop stop-color="#F6F6FF"/>
<stop offset="0.682292" stop-color="#ADADC8"/>
</linearGradient>
<linearGradient id="paint2_linear" x1="98.2975" y1="152.546" x2="93.4554" y2="72.3479" gradientUnits="userSpaceOnUse">
<stop stop-color="#F6F6FF"/>
<stop offset="0.682292" stop-color="#ADADC8"/>
</linearGradient>
</defs>
</svg>
