<svg width="31" height="32" viewBox="0 0 31 32" fill="none" xmlns="http://www.w3.org/2000/svg">
<circle cx="15.4965" cy="15.6699" r="15.4702" fill="#F6F6FF"/>
<path d="M17.5963 11.9649H20.4663C21.9263 11.9649 23.2663 12.9449 23.5463 14.3849C23.8563 16.0249 22.8063 17.4949 21.3263 17.8649L22.8563 19.3949C24.6263 18.4849 25.8063 16.5749 25.5563 14.3849C25.2763 11.8249 22.9663 9.96488 20.3863 9.96488H17.5963C17.0463 9.96488 16.5963 10.4149 16.5963 10.9649C16.5963 11.5149 17.0463 11.9649 17.5963 11.9649ZM7.10632 6.47488C6.91934 6.2879 6.66574 6.18286 6.40132 6.18286C6.13689 6.18286 5.88329 6.2879 5.69632 6.47488C5.50934 6.66186 5.4043 6.91546 5.4043 7.17988C5.4043 7.44431 5.50934 7.6979 5.69632 7.88488L8.33632 10.5249C6.56632 11.4349 5.38632 13.3449 5.63632 15.5349C5.91632 18.1049 8.22632 19.9649 10.8063 19.9649H13.5963C14.1463 19.9649 14.5963 19.5149 14.5963 18.9649C14.5963 18.4149 14.1463 17.9649 13.5963 17.9649H10.7263C9.26632 17.9649 7.92632 16.9849 7.64632 15.5449C7.33632 13.9049 8.39632 12.4349 9.86632 12.0649L11.9863 14.1849C11.7563 14.3749 11.5963 14.6449 11.5963 14.9649C11.5963 15.5149 12.0463 15.9649 12.5963 15.9649H13.7663L22.6663 24.8649C22.8533 25.0519 23.1069 25.1569 23.3713 25.1569C23.6357 25.1569 23.8893 25.0519 24.0763 24.8649C24.2633 24.6779 24.3683 24.4243 24.3683 24.1599C24.3683 23.8955 24.2633 23.6419 24.0763 23.4549L7.10632 6.47488ZM17.5963 13.9649L19.3063 15.6749C19.4459 15.5344 19.5407 15.3559 19.579 15.1616C19.6172 14.9673 19.5971 14.7661 19.5212 14.5833C19.4453 14.4004 19.3169 14.2441 19.1524 14.1341C18.9878 14.024 18.7943 13.9652 18.5963 13.9649H17.5963Z" fill="#1F2337"/>
</svg>
