<svg width="74" height="74" viewBox="0 0 74 74" fill="none" xmlns="http://www.w3.org/2000/svg">
<circle cx="37" cy="37" r="36.5" fill="#4048FF"/>
<path d="M8.46289 46.5056C8.46289 45.7929 9.04066 45.2151 9.75337 45.2151H65.0595C65.7722 45.2151 66.35 45.7929 66.35 46.5056C66.35 47.2183 65.7722 47.7961 65.0595 47.7961H64.2185C63.7088 47.7961 63.2957 48.2092 63.2957 48.7188C63.2957 49.2285 62.8826 49.6416 62.3729 49.6416H55.5017C54.8733 49.6416 54.3639 50.151 54.3639 50.7794C54.3639 51.4078 53.8545 51.9172 53.2261 51.9172H21.2943C20.666 51.9172 20.1566 51.4078 20.1566 50.7794C20.1566 50.151 19.6472 49.6416 19.0188 49.6416H12.5875C12.0779 49.6416 11.6647 49.2285 11.6647 48.7188C11.6647 48.2092 11.2516 47.7961 10.742 47.7961H9.75337C9.04066 47.7961 8.46289 47.2183 8.46289 46.5056Z" fill="#1F2337" fill-opacity="0.8"/>
<path d="M17.8271 45.2737H17.8289V44.0301C17.8289 43.3605 15.3637 42.8177 12.3227 42.8177C9.28162 42.8177 6.81641 43.3605 6.81641 44.0301V45.2737H6.8182C6.89356 45.9288 9.32914 46.4548 12.3227 46.4548C15.3162 46.4548 17.7518 45.9288 17.8271 45.2737Z" fill="#FFA318"/>
<path d="M6.82555 44.03H6.81641V45.2737H6.8182C6.89356 45.9288 9.32914 46.4547 12.3227 46.4547C15.3162 46.4547 17.7518 45.9288 17.8271 45.2737H17.8289V44.03H17.8198C17.6543 44.6669 15.2565 45.1721 12.3227 45.1721C9.38879 45.1721 6.99099 44.6669 6.82555 44.03Z" fill="url(#paint0_linear_10222_81331)"/>
<path fill-rule="evenodd" clip-rule="evenodd" d="M7.01953 44.2924V45.5751C7.08986 45.6294 7.17692 45.6821 7.27939 45.7329V44.4502C7.17691 44.3994 7.08986 44.3467 7.01953 44.2924ZM7.5625 44.5717V45.8544C7.6434 45.8847 7.73014 45.9142 7.82236 45.9428V44.6601C7.73014 44.6315 7.6434 44.602 7.5625 44.5717ZM8.11133 44.7421V46.0248C8.19462 46.0464 8.2813 46.0674 8.37119 46.0877V44.805C8.2813 44.7847 8.19462 44.7637 8.11133 44.7421ZM8.65625 44.865V46.1477C8.74059 46.1642 8.82725 46.1802 8.91611 46.1956V44.9129C8.82725 44.8975 8.74059 44.8815 8.65625 44.865ZM9.19922 44.9587V46.2414C9.28415 46.2542 9.3708 46.2666 9.45908 46.2784V44.9957C9.3708 44.9839 9.28415 44.9716 9.19922 44.9587ZM9.75 45.032V46.3147C9.83532 46.3246 9.92196 46.334 10.0099 46.343V45.0603C9.92196 45.0514 9.83532 45.0419 9.75 45.032ZM10.293 45.087V46.3696C10.3786 46.3771 10.4652 46.3841 10.5528 46.3906V45.1079C10.4652 45.1014 10.3786 45.0944 10.293 45.087ZM10.8379 45.1272V46.4099C10.9237 46.4151 11.0103 46.4199 11.0977 46.4243V45.1416C11.0103 45.1373 10.9237 45.1325 10.8379 45.1272ZM11.3865 45.1542V46.4368C11.4725 46.44 11.5591 46.4428 11.6464 46.4451V45.1625C11.5591 45.1602 11.4725 45.1574 11.3865 45.1542ZM11.9316 45.1684V46.4511C12.0177 46.4524 12.1044 46.4533 12.1915 46.4537V45.171C12.1044 45.1706 12.0177 45.1697 11.9316 45.1684ZM12.4727 45.1708V46.4535C12.5598 46.453 12.6464 46.452 12.7325 46.4506V45.1679C12.6464 45.1693 12.5598 45.1703 12.4727 45.1708ZM13.0237 45.1614V46.444C13.1109 46.4416 13.1976 46.4386 13.2835 46.4353V45.1526C13.1976 45.156 13.1109 45.1589 13.0237 45.1614ZM13.5681 45.1398V46.4224C13.6556 46.418 13.7422 46.413 13.828 46.4076V45.125C13.7422 45.1304 13.6556 45.1353 13.5681 45.1398ZM14.1114 45.1053V46.388C14.199 46.3813 14.2857 46.3742 14.3713 46.3666V45.084C14.2857 45.0915 14.199 45.0987 14.1114 45.1053ZM14.6602 45.0562V46.3388C14.7481 46.3297 14.8347 46.3201 14.92 46.31V45.0273C14.8347 45.0374 14.7481 45.047 14.6602 45.0562ZM15.2053 44.9911V46.2737C15.2936 46.2617 15.3803 46.2492 15.4652 46.2361V44.9534C15.3803 44.9665 15.2936 44.979 15.2053 44.9911ZM15.748 44.9069V46.1895C15.837 46.1739 15.9236 46.1577 16.0079 46.1409V44.8582C15.9236 44.875 15.837 44.8912 15.748 44.9069ZM16.2988 44.7958V46.0785C16.3888 46.0578 16.4755 46.0363 16.5587 46.0142V44.7315C16.4755 44.7536 16.3888 44.7751 16.2988 44.7958ZM16.8418 44.6493V45.932C16.9343 45.9027 17.021 45.8724 17.1017 45.8412V44.5585C17.021 44.5897 16.9343 44.62 16.8418 44.6493ZM17.3848 44.4327V45.7155C17.4893 45.6613 17.5764 45.6052 17.6446 45.5473V44.2708H17.6373C17.5702 44.3264 17.4856 44.3805 17.3848 44.4327Z" fill="#FF9211"/>
<g style="mix-blend-mode:multiply">
<path fill-rule="evenodd" clip-rule="evenodd" d="M16.9378 44.1353C16.9684 44.0914 16.9842 44.0466 16.9842 44.001C16.9842 43.4781 14.9031 43.0542 12.3359 43.0542C9.76864 43.0542 7.6875 43.4781 7.6875 44.001C7.6875 44.0466 7.70331 44.0914 7.73388 44.1353C8.05402 43.6759 9.99242 43.3227 12.3359 43.3227C14.6793 43.3227 16.6177 43.6759 16.9378 44.1353Z" fill="#FFC177"/>
</g>
<path d="M16.9205 44.0021C16.9205 44.0454 16.8992 44.0944 16.8442 44.1491C16.7891 44.204 16.7046 44.2599 16.5902 44.315C16.3616 44.425 16.027 44.5258 15.6085 44.611C14.7724 44.7813 13.6147 44.8871 12.3339 44.8871C11.0531 44.8871 9.89538 44.7813 9.05935 44.611C8.64082 44.5258 8.30617 44.425 8.07764 44.315C7.96324 44.2599 7.87869 44.204 7.82357 44.1491C7.7686 44.0944 7.74732 44.0454 7.74732 44.0021C7.74732 43.9588 7.7686 43.9098 7.82357 43.8551C7.87869 43.8002 7.96324 43.7443 8.07764 43.6892C8.30617 43.5792 8.64082 43.4784 9.05935 43.3931C9.89538 43.2229 11.0531 43.1171 12.3339 43.1171C13.6147 43.1171 14.7724 43.2229 15.6085 43.3931C16.027 43.4784 16.3616 43.5792 16.5902 43.6892C16.7046 43.7443 16.7891 43.8002 16.8442 43.8551C16.8992 43.9098 16.9205 43.9588 16.9205 44.0021Z" stroke="#FFC177" stroke-width="0.123552"/>
<g style="mix-blend-mode:multiply" opacity="0.5">
<ellipse cx="12.3461" cy="44.0023" rx="5.50627" ry="1.21234" fill="#FF981D"/>
</g>
<path d="M18.4404 43.7681H18.4422V42.5245C18.4422 41.8549 15.977 41.3121 12.9359 41.3121C9.8949 41.3121 7.42969 41.8549 7.42969 42.5245V43.7681H7.43148C7.50684 44.4232 9.94242 44.9492 12.9359 44.9492C15.9295 44.9492 18.3651 44.4232 18.4404 43.7681Z" fill="#FFA318"/>
<path d="M7.44079 42.5247H7.43164V43.7683H7.43343C7.50879 44.4234 9.94437 44.9494 12.9379 44.9494C15.9314 44.9494 18.367 44.4234 18.4424 43.7683H18.4442V42.5247H18.435C18.2696 43.1615 15.8718 43.6667 12.9379 43.6667C10.004 43.6667 7.60622 43.1615 7.44079 42.5247Z" fill="url(#paint1_linear_10222_81331)"/>
<path fill-rule="evenodd" clip-rule="evenodd" d="M7.64844 42.787V44.0697C7.71877 44.124 7.80582 44.1767 7.9083 44.2275V42.9448C7.80582 42.8939 7.71876 42.8412 7.64844 42.787ZM8.19141 43.0662V44.3489C8.27231 44.3793 8.35904 44.4088 8.45127 44.4374V43.1547C8.35904 43.1261 8.27231 43.0966 8.19141 43.0662ZM8.74023 43.2367V44.5194C8.82353 44.541 8.91021 44.562 9.00009 44.5823V43.2996C8.9102 43.2793 8.82353 43.2583 8.74023 43.2367ZM9.28516 43.3596V44.6423C9.36949 44.6588 9.45615 44.6748 9.54502 44.6901V43.4075C9.45615 43.3921 9.36949 43.3761 9.28516 43.3596ZM9.82812 43.4533V44.736C9.91306 44.7488 9.99971 44.7612 10.088 44.773V43.4903C9.99971 43.4785 9.91306 43.4662 9.82812 43.4533ZM10.3789 43.5266V44.8093C10.4642 44.8192 10.5509 44.8286 10.6388 44.8376V43.5549C10.5509 43.546 10.4642 43.5365 10.3789 43.5266ZM10.9219 43.5816V44.8642C11.0075 44.8717 11.0941 44.8787 11.1817 44.8852V43.6025C11.0941 43.596 11.0075 43.589 10.9219 43.5816ZM11.4668 43.6218V44.9045C11.5526 44.9097 11.6392 44.9145 11.7267 44.9189V43.6362C11.6392 43.6318 11.5526 43.627 11.4668 43.6218ZM12.0154 43.6487V44.9314C12.1014 44.9346 12.188 44.9374 12.2753 44.9397V43.6571C12.188 43.6547 12.1014 43.652 12.0154 43.6487ZM12.5605 43.663V44.9457C12.6466 44.947 12.7333 44.9478 12.8204 44.9483V43.6656C12.7333 43.6652 12.6466 43.6643 12.5605 43.663ZM13.1016 43.6654V44.9481C13.1887 44.9475 13.2753 44.9466 13.3614 44.9451V43.6625C13.2753 43.6639 13.1887 43.6649 13.1016 43.6654ZM13.6526 43.656V44.9386C13.7398 44.9361 13.8265 44.9332 13.9124 44.9299V43.6472C13.8265 43.6506 13.7398 43.6535 13.6526 43.656ZM14.1953 43.6345V44.9171C14.2827 44.9126 14.3694 44.9077 14.4552 44.9023V43.6197C14.3694 43.625 14.2827 43.63 14.1953 43.6345ZM14.7383 43.6001V44.8827C14.8259 44.8761 14.9126 44.869 14.9981 44.8614V43.5787C14.9126 43.5863 14.8259 43.5934 14.7383 43.6001ZM15.2891 43.5508V44.8334C15.377 44.8243 15.4636 44.8147 15.5489 44.8046V43.5219C15.4636 43.532 15.377 43.5416 15.2891 43.5508ZM15.832 43.4859V44.7686C15.9203 44.7566 16.007 44.7441 16.0919 44.731V43.4483C16.007 43.4614 15.9203 43.4739 15.832 43.4859ZM16.377 43.4014V44.6841C16.4659 44.6685 16.5525 44.6523 16.6368 44.6355V43.3528C16.5525 43.3696 16.4659 43.3858 16.377 43.4014ZM16.9277 43.2904V44.5731C17.0177 44.5523 17.1044 44.5309 17.1876 44.5088V43.2261C17.1044 43.2482 17.0177 43.2697 16.9277 43.2904ZM17.4707 43.1439V44.4266C17.5632 44.3973 17.6499 44.367 17.7306 44.3358V43.0531C17.6499 43.0843 17.5632 43.1146 17.4707 43.1439ZM18.0137 42.9273V44.21C18.1182 44.1559 18.2053 44.0997 18.2735 44.0419V42.7642H18.2676C18.2003 42.8202 18.1152 42.8747 18.0137 42.9273Z" fill="#FF9211"/>
<g style="mix-blend-mode:multiply">
<path fill-rule="evenodd" clip-rule="evenodd" d="M17.5533 42.6312C17.5837 42.5874 17.5994 42.5427 17.5994 42.4972C17.5994 41.9743 15.5183 41.5504 12.9511 41.5504C10.3839 41.5504 8.30273 41.9743 8.30273 42.4972C8.30273 42.5427 8.31848 42.5874 8.34892 42.6312C8.66845 42.1717 10.6072 41.8184 12.9511 41.8184C15.295 41.8184 17.2337 42.1717 17.5533 42.6312Z" fill="#FFC177"/>
</g>
<path d="M17.5357 42.4966C17.5357 42.5399 17.5144 42.5889 17.4595 42.6436C17.4044 42.6985 17.3198 42.7544 17.2054 42.8095C16.9769 42.9195 16.6422 43.0203 16.2237 43.1055C15.3877 43.2758 14.2299 43.3816 12.9491 43.3816C11.6684 43.3816 10.5106 43.2758 9.67458 43.1055C9.25606 43.0203 8.9214 42.9195 8.69287 42.8095C8.57847 42.7544 8.49392 42.6985 8.4388 42.6436C8.38383 42.5889 8.36256 42.5399 8.36256 42.4966C8.36256 42.4533 8.38383 42.4043 8.4388 42.3496C8.49392 42.2947 8.57847 42.2388 8.69287 42.1837C8.9214 42.0737 9.25606 41.9729 9.67458 41.8876C10.5106 41.7174 11.6684 41.6116 12.9491 41.6116C14.2299 41.6116 15.3877 41.7174 16.2237 41.8876C16.6422 41.9729 16.9769 42.0737 17.2054 42.1837C17.3198 42.2388 17.4044 42.2947 17.4595 42.3496C17.5144 42.4043 17.5357 42.4533 17.5357 42.4966Z" stroke="#FFC177" stroke-width="0.123552"/>
<g style="mix-blend-mode:multiply" opacity="0.5">
<ellipse cx="12.9574" cy="42.4979" rx="5.50627" ry="1.21234" fill="#FF981D"/>
</g>
<path d="M17.9912 42.3149H17.993V41.0712C17.993 40.4017 15.5278 39.8589 12.4867 39.8589C9.44568 39.8589 6.98047 40.4017 6.98047 41.0712V42.3149H6.98226C7.05762 42.97 9.4932 43.4959 12.4867 43.4959C15.4803 43.4959 17.9158 42.97 17.9912 42.3149Z" fill="#FFA318"/>
<path d="M6.98962 41.0713H6.98047V42.3149H6.98226C7.05762 42.9701 9.4932 43.496 12.4867 43.496C15.4803 43.496 17.9158 42.9701 17.9912 42.3149H17.993V41.0713H17.9838C17.8184 41.7081 15.4206 42.2133 12.4867 42.2133C9.55285 42.2133 7.15505 41.7081 6.98962 41.0713Z" fill="url(#paint2_linear_10222_81331)"/>
<path fill-rule="evenodd" clip-rule="evenodd" d="M7.1875 41.3321V42.6148C7.25772 42.6692 7.34478 42.7221 7.44736 42.7731V41.4904C7.34478 41.4394 7.25772 41.3865 7.1875 41.3321ZM7.73816 41.615V42.8977C7.8191 42.9279 7.90583 42.9573 7.99802 42.9857V41.703C7.90583 41.6746 7.8191 41.6452 7.73816 41.615ZM8.28141 41.7833V43.066C8.3647 43.0876 8.45138 43.1086 8.54126 43.1289V41.8462C8.45138 41.8259 8.3647 41.8049 8.28141 41.7833ZM8.82422 41.9058V43.1885C8.90855 43.205 8.99521 43.221 9.08408 43.2364V41.9537C8.99521 41.9383 8.90855 41.9223 8.82422 41.9058ZM9.375 42.0007V43.2834C9.45994 43.2962 9.54659 43.3086 9.63486 43.3203V42.0377C9.54659 42.0259 9.45994 42.0136 9.375 42.0007ZM9.91797 42.073V43.3556C10.0033 43.3655 10.0899 43.375 10.1778 43.3839V42.1013C10.0899 42.0923 10.0033 42.0829 9.91797 42.073ZM10.4609 42.128V43.4106C10.5465 43.4181 10.6332 43.4251 10.7208 43.4316V42.1489C10.6332 42.1424 10.5465 42.1354 10.4609 42.128ZM11.0059 42.1682V43.4509C11.0917 43.4562 11.1783 43.461 11.2657 43.4653V42.1827C11.1783 42.1783 11.0917 42.1735 11.0059 42.1682ZM11.5566 42.1953V43.478C11.6426 43.4812 11.7292 43.484 11.8165 43.4863V42.2036C11.7292 42.2013 11.6426 42.1985 11.5566 42.1953ZM12.0996 42.2096V43.4922C12.1857 43.4935 12.2723 43.4944 12.3595 43.4948V42.2122C12.2723 42.2117 12.1857 42.2109 12.0996 42.2096ZM12.6406 42.212V43.4947C12.7278 43.4941 12.8144 43.4931 12.9005 43.4917V42.2091C12.8144 42.2105 12.7278 42.2115 12.6406 42.212ZM13.1934 42.2025V43.4852C13.2806 43.4827 13.3673 43.4798 13.4532 43.4764V42.1938C13.3673 42.1971 13.2806 42.2001 13.1934 42.2025ZM13.7344 42.1811V43.4638C13.8218 43.4593 13.9084 43.4544 13.9942 43.449V42.1664C13.9084 42.1717 13.8218 42.1766 13.7344 42.1811ZM14.2773 42.1468V43.4294C14.365 43.4228 14.4516 43.4157 14.5372 43.4081V42.1254C14.4516 42.133 14.365 42.1401 14.2773 42.1468ZM14.8281 42.0975V43.3802C14.916 43.3711 15.0027 43.3615 15.088 43.3514V42.0687C15.0027 42.0788 14.916 42.0884 14.8281 42.0975ZM15.3711 42.0328V43.3154C15.4594 43.3034 15.546 43.2909 15.631 43.2779V41.9952C15.546 42.0082 15.4594 42.0208 15.3711 42.0328ZM15.916 41.9484V43.231C16.0049 43.2154 16.0916 43.1992 16.1759 43.1824V41.8998C16.0916 41.9165 16.0049 41.9327 15.916 41.9484ZM16.4668 41.8374V43.1201C16.5568 43.0994 16.6435 43.0779 16.7267 43.0558V41.7731C16.6435 41.7953 16.5568 41.8167 16.4668 41.8374ZM17.0098 41.6911V42.9738C17.1022 42.9445 17.189 42.9142 17.2696 42.8831V41.6004C17.189 41.6315 17.1022 41.6618 17.0098 41.6911ZM17.5527 41.4749V42.7576C17.6571 42.7037 17.7442 42.6477 17.8126 42.5901V41.3108H17.8085C17.7408 41.3672 17.6551 41.422 17.5527 41.4749Z" fill="#FF9211"/>
<g style="mix-blend-mode:multiply">
<path fill-rule="evenodd" clip-rule="evenodd" d="M17.1019 41.1764C17.1324 41.1326 17.1483 41.0877 17.1483 41.0421C17.1483 40.5192 15.0671 40.0953 12.4999 40.0953C9.9327 40.0953 7.85156 40.5192 7.85156 41.0421C7.85156 41.0877 7.86739 41.1326 7.89798 41.1764C8.2182 40.7171 10.1566 40.364 12.4999 40.364C14.8433 40.364 16.7816 40.7171 17.1019 41.1764Z" fill="#FFC177"/>
</g>
<path d="M17.0845 41.0433C17.0845 41.0867 17.0633 41.1357 17.0083 41.1904C16.9532 41.2452 16.8686 41.3011 16.7542 41.3562C16.5257 41.4663 16.191 41.567 15.7725 41.6523C14.9365 41.8226 13.7787 41.9284 12.498 41.9284C11.2172 41.9284 10.0594 41.8226 9.22341 41.6523C8.80488 41.567 8.47023 41.4663 8.2417 41.3562C8.1273 41.3011 8.04275 41.2452 7.98763 41.1904C7.93266 41.1357 7.91139 41.0867 7.91139 41.0433C7.91139 41 7.93266 40.951 7.98763 40.8963C8.04275 40.8415 8.1273 40.7856 8.2417 40.7305C8.47023 40.6204 8.80488 40.5196 9.22341 40.4344C10.0594 40.2641 11.2172 40.1583 12.498 40.1583C13.7787 40.1583 14.9365 40.2641 15.7725 40.4344C16.191 40.5196 16.5257 40.6204 16.7542 40.7305C16.8686 40.7856 16.9532 40.8415 17.0083 40.8963C17.0633 40.951 17.0845 41 17.0845 41.0433Z" stroke="#FFC177" stroke-width="0.123552"/>
<g style="mix-blend-mode:multiply" opacity="0.5">
<ellipse cx="12.5004" cy="41.041" rx="5.50627" ry="1.21234" fill="#FF981D"/>
</g>
<path d="M18.6045 40.8076H18.6063V39.564C18.6063 38.8945 16.1411 38.3517 13.1 38.3517C10.059 38.3517 7.59375 38.8945 7.59375 39.564V40.8076H7.59554C7.6709 41.4628 10.1065 41.9887 13.1 41.9887C16.0935 41.9887 18.5291 41.4628 18.6045 40.8076Z" fill="#FFA318"/>
<path d="M7.6029 39.5647H7.59375V40.8083H7.59554C7.6709 41.4635 10.1065 41.9894 13.1 41.9894C16.0935 41.9894 18.5291 41.4635 18.6045 40.8083H18.6063V39.5647H18.5971C18.4317 40.2015 16.0339 40.7067 13.1 40.7067C10.1661 40.7067 7.76833 40.2015 7.6029 39.5647Z" fill="url(#paint3_linear_10222_81331)"/>
<path fill-rule="evenodd" clip-rule="evenodd" d="M7.80273 39.8264V41.1091C7.87296 41.1635 7.96002 41.2164 8.06259 41.2674V39.9847C7.96001 39.9337 7.87296 39.8808 7.80273 39.8264ZM8.3457 40.1064V41.3891C8.42659 41.4195 8.51333 41.4491 8.60556 41.4777V40.195C8.51333 40.1664 8.42659 40.1368 8.3457 40.1064ZM8.89453 40.277V41.5597C8.97782 41.5814 9.0645 41.6024 9.15439 41.6228V40.3401C9.0645 40.3197 8.97782 40.2987 8.89453 40.277ZM9.43945 40.4001V41.6828C9.52379 41.6993 9.61045 41.7153 9.69931 41.7307V40.448C9.61045 40.4326 9.52379 40.4167 9.43945 40.4001ZM9.98242 40.4939V41.7766C10.0674 41.7894 10.154 41.8018 10.2423 41.8136V40.5309C10.154 40.5191 10.0674 40.5068 9.98242 40.4939ZM10.5332 40.5673V41.85C10.6185 41.8599 10.7052 41.8693 10.7931 41.8783V40.5956C10.7052 40.5866 10.6185 40.5772 10.5332 40.5673ZM11.0762 40.6223V41.905C11.1618 41.9124 11.2484 41.9194 11.336 41.9259V40.6433C11.2484 40.6367 11.1618 40.6297 11.0762 40.6223ZM11.6211 40.6626V41.9452C11.7069 41.9505 11.7935 41.9553 11.881 41.9597V40.677C11.7935 40.6726 11.7069 40.6678 11.6211 40.6626ZM12.1697 40.6896V41.9722C12.2557 41.9755 12.3423 41.9782 12.4296 41.9806V40.6979C12.3423 40.6956 12.2557 40.6928 12.1697 40.6896ZM12.7148 40.7039V41.9865C12.8009 41.9879 12.8876 41.9887 12.9747 41.9892V40.7065C12.8876 40.7061 12.8009 40.7052 12.7148 40.7039ZM13.2559 40.7063V41.989C13.343 41.9885 13.4296 41.9875 13.5157 41.9861V40.7034C13.4296 40.7048 13.343 40.7058 13.2559 40.7063ZM13.8069 40.6969V41.9796C13.8941 41.9771 13.9808 41.9742 14.0667 41.9708V40.6882C13.9808 40.6915 13.8941 40.6944 13.8069 40.6969ZM14.3496 40.6754V41.9581C14.437 41.9536 14.5237 41.9487 14.6095 41.9433V40.6607C14.5237 40.6661 14.437 40.671 14.3496 40.6754ZM14.8926 40.6411V41.9238C14.9802 41.9171 15.0669 41.91 15.1524 41.9024V40.6198C15.0669 40.6274 14.9802 40.6345 14.8926 40.6411ZM15.4375 40.5925V41.8751C15.5254 41.866 15.6121 41.8565 15.6974 41.8464V40.5637C15.6121 40.5738 15.5254 40.5834 15.4375 40.5925ZM15.9863 40.5271V41.8098C16.0746 41.7978 16.1613 41.7852 16.2462 41.7722V40.4895C16.1613 40.5026 16.0746 40.5151 15.9863 40.5271ZM16.5312 40.4427V41.7254C16.6202 41.7097 16.7068 41.6935 16.7911 41.6768V40.3941C16.7068 40.4109 16.6202 40.4271 16.5312 40.4427ZM17.0742 40.3336V41.6162C17.1642 41.5956 17.2509 41.5742 17.3341 41.5522V40.2695C17.2509 40.2916 17.1642 40.3129 17.0742 40.3336ZM17.625 40.1854V41.4681C17.7175 41.4388 17.8042 41.4086 17.8849 41.3775V40.0948C17.8042 40.1259 17.7175 40.1561 17.625 40.1854ZM18.168 39.9692V41.2519C18.2723 41.198 18.3595 41.1421 18.4278 41.0844V39.8055H18.4233C18.3556 39.8618 18.27 39.9165 18.168 39.9692Z" fill="#FF9211"/>
<g style="mix-blend-mode:multiply">
<path fill-rule="evenodd" clip-rule="evenodd" d="M17.7212 39.671C17.7517 39.6272 17.7674 39.5825 17.7674 39.537C17.7674 39.0141 15.6863 38.5902 13.1191 38.5902C10.5518 38.5902 8.4707 39.0141 8.4707 39.537C8.4707 39.5825 8.48644 39.6272 8.51687 39.671C8.83635 39.2115 10.7751 38.8581 13.1191 38.8581C15.463 38.8581 17.4018 39.2115 17.7212 39.671Z" fill="#FFC177"/>
</g>
<path d="M17.6978 39.5368C17.6978 39.5801 17.6765 39.6291 17.6216 39.6838C17.5665 39.7386 17.4819 39.7945 17.3675 39.8496C17.139 39.9597 16.8043 40.0604 16.3858 40.1457C15.5498 40.316 14.392 40.4218 13.1112 40.4218C11.8305 40.4218 10.6727 40.316 9.83669 40.1457C9.41817 40.0604 9.08351 39.9597 8.85498 39.8496C8.74058 39.7945 8.65603 39.7386 8.60091 39.6838C8.54594 39.6291 8.52467 39.5801 8.52467 39.5368C8.52467 39.4934 8.54594 39.4444 8.60091 39.3897C8.65603 39.3349 8.74058 39.279 8.85498 39.2239C9.08351 39.1138 9.41817 39.0131 9.83669 38.9278C10.6727 38.7575 11.8305 38.6517 13.1112 38.6517C14.392 38.6517 15.5498 38.7575 16.3858 38.9278C16.8043 39.0131 17.139 39.1138 17.3675 39.2239C17.4819 39.279 17.5665 39.3349 17.6216 39.3897C17.6765 39.4444 17.6978 39.4934 17.6978 39.5368Z" stroke="#FFC177" stroke-width="0.123552"/>
<g style="mix-blend-mode:multiply" opacity="0.5">
<ellipse cx="13.1195" cy="39.5366" rx="5.50627" ry="1.21234" fill="#FF981D"/>
</g>
<path d="M23.5922 47.6167H23.5942V46.2301C23.5942 45.4837 20.8457 44.8785 17.4553 44.8785C14.0648 44.8785 11.3164 45.4837 11.3164 46.2301V47.6167H11.3184C11.4024 48.3471 14.1178 48.9334 17.4553 48.9334C20.7927 48.9334 23.5082 48.3471 23.5922 47.6167Z" fill="#FFA318"/>
<path d="M11.3266 46.2299H11.3164V47.6164H11.3184C11.4024 48.3468 14.1178 48.9331 17.4553 48.9331C20.7927 48.9331 23.5082 48.3468 23.5922 47.6164H23.5942V46.2299H23.584C23.3995 46.9399 20.7262 47.5031 17.4553 47.5031C14.1843 47.5031 11.511 46.9399 11.3266 46.2299Z" fill="url(#paint4_linear_10222_81331)"/>
<path fill-rule="evenodd" clip-rule="evenodd" d="M11.5488 46.5178V47.9479C11.6271 48.0086 11.7242 48.0676 11.8385 48.1245V46.6945C11.7241 46.6375 11.6271 46.5785 11.5488 46.5178ZM12.1602 46.8324V48.2625C12.2504 48.2963 12.3471 48.3291 12.4499 48.3609V46.9309C12.3471 46.899 12.2504 46.8662 12.1602 46.8324ZM12.7637 47.0199V48.45C12.8565 48.4742 12.9532 48.4976 13.0534 48.5203V47.0903C12.9532 47.0676 12.8565 47.0441 12.7637 47.0199ZM13.377 47.1584V48.5885C13.471 48.6069 13.5676 48.6247 13.6667 48.6418V47.2118C13.5676 47.1946 13.471 47.1768 13.377 47.1584ZM13.9805 47.2626V48.6926C14.0752 48.707 14.1718 48.7207 14.2702 48.7339V47.3039C14.1718 47.2907 14.0752 47.2769 13.9805 47.2626ZM14.5918 47.344V48.7741C14.6869 48.7851 14.7835 48.7957 14.8815 48.8057V47.3756C14.7835 47.3656 14.6869 47.3551 14.5918 47.344ZM15.1953 47.4053V48.8353C15.2907 48.8436 15.3873 48.8514 15.485 48.8587V47.4287C15.3873 47.4214 15.2907 47.4136 15.1953 47.4053ZM15.8066 47.4505V48.8805C15.9023 48.8864 15.9989 48.8917 16.0964 48.8966V47.4666C15.9989 47.4617 15.9023 47.4564 15.8066 47.4505ZM16.4121 47.4804V48.9104C16.5079 48.914 16.6045 48.9171 16.7018 48.9197V47.4897C16.6045 47.4871 16.5079 47.484 16.4121 47.4804ZM17.0234 47.4965V48.9265C17.1194 48.928 17.216 48.929 17.3132 48.9295V47.4994C17.216 47.499 17.1194 47.498 17.0234 47.4965ZM17.6348 47.4992V48.9293C17.7319 48.9286 17.8285 48.9275 17.9245 48.9259V47.4959C17.8285 47.4975 17.7319 47.4986 17.6348 47.4992ZM18.2402 47.4888V48.9189C18.3375 48.9161 18.4341 48.9129 18.5299 48.9092V47.4792C18.4341 47.4829 18.3375 47.4861 18.2402 47.4888ZM18.8496 47.4648V48.8948C18.9471 48.8898 19.0437 48.8843 19.1393 48.8783V47.4483C19.0437 47.4543 18.9471 47.4598 18.8496 47.4648ZM19.4551 47.4265V48.8565C19.5528 48.8491 19.6494 48.8411 19.7448 48.8327V47.4027C19.6494 47.4111 19.5528 47.419 19.4551 47.4265ZM20.0664 47.3718V48.8018C20.1644 48.7917 20.261 48.781 20.3561 48.7697V47.3397C20.261 47.3509 20.1644 47.3616 20.0664 47.3718ZM20.6699 47.2999V48.7299C20.7684 48.7166 20.865 48.7026 20.9596 48.6881V47.2581C20.865 47.2726 20.7684 47.2865 20.6699 47.2999ZM21.2832 47.2049V48.6349C21.3823 48.6175 21.4789 48.5994 21.5729 48.5807V47.1507C21.4789 47.1694 21.3823 47.1875 21.2832 47.2049ZM21.8867 47.0835V48.5136C21.987 48.4906 22.0837 48.4667 22.1764 48.4422V47.0121C22.0837 47.0367 21.987 47.0605 21.8867 47.0835ZM22.498 46.9192V48.3492C22.6011 48.3166 22.6978 48.283 22.7878 48.2483V46.8183C22.6978 46.8529 22.6011 46.8866 22.498 46.9192ZM23.1035 46.6785V48.1086C23.2197 48.0487 23.3169 47.9865 23.3932 47.9225V46.4952H23.3898C23.314 46.5583 23.218 46.6195 23.1035 46.6785Z" fill="#FF9211"/>
<g style="mix-blend-mode:multiply">
<path fill-rule="evenodd" clip-rule="evenodd" d="M22.6002 46.3497C22.6343 46.3008 22.6519 46.2508 22.6519 46.2C22.6519 45.617 20.3317 45.1444 17.4695 45.1444C14.6074 45.1444 12.2871 45.617 12.2871 46.2C12.2871 46.2508 12.3047 46.3008 12.3388 46.3497C12.6958 45.8376 14.8569 45.4438 17.4695 45.4438C20.0822 45.4438 22.2433 45.8376 22.6002 46.3497Z" fill="#FFC177"/>
</g>
<path d="M22.585 46.1983C22.585 46.2466 22.5613 46.3012 22.5 46.3622C22.4386 46.4233 22.3443 46.4857 22.2167 46.5471C21.962 46.6698 21.5889 46.7821 21.1222 46.8772C20.1902 47.067 18.8994 47.185 17.4715 47.185C16.0436 47.185 14.7528 47.067 13.8207 46.8772C13.3541 46.7821 12.981 46.6698 12.7262 46.5471C12.5987 46.4857 12.5044 46.4233 12.4429 46.3622C12.3817 46.3012 12.3579 46.2466 12.3579 46.1983C12.3579 46.15 12.3817 46.0953 12.4429 46.0343C12.5044 45.9732 12.5987 45.9109 12.7262 45.8494C12.981 45.7268 13.3541 45.6144 13.8207 45.5194C14.7528 45.3295 16.0436 45.2116 17.4715 45.2116C18.8994 45.2116 20.1902 45.3295 21.1222 45.5194C21.5889 45.6144 21.962 45.7268 22.2167 45.8494C22.3443 45.9109 22.4386 45.9732 22.5 46.0343C22.5613 46.0953 22.585 46.15 22.585 46.1983Z" stroke="#FFC177" stroke-width="0.137747"/>
<g style="mix-blend-mode:multiply" opacity="0.5">
<ellipse cx="17.4768" cy="46.2004" rx="6.13889" ry="1.35162" fill="#FF981D"/>
</g>
<path d="M24.2875 45.9402H24.2895V44.5536C24.2895 43.8072 21.541 43.202 18.1506 43.202C14.7602 43.202 12.0117 43.8072 12.0117 44.5536V45.9402H12.0137C12.0977 46.6706 14.8131 47.2569 18.1506 47.2569C21.4881 47.2569 24.2035 46.6706 24.2875 45.9402Z" fill="#FFA318"/>
<path d="M12.0219 44.5533H12.0117V45.9399H12.0137C12.0977 46.6703 14.8131 47.2566 18.1506 47.2566C21.4881 47.2566 24.2035 46.6703 24.2875 45.9399H24.2895V44.5533H24.2793C24.0948 45.2633 21.4216 45.8266 18.1506 45.8266C14.8796 45.8266 12.2064 45.2633 12.0219 44.5533Z" fill="url(#paint5_linear_10222_81331)"/>
<path fill-rule="evenodd" clip-rule="evenodd" d="M12.2422 44.8425V46.2726C12.3203 46.3335 12.4174 46.3927 12.5319 46.4498V45.0197C12.4174 44.9626 12.3203 44.9034 12.2422 44.8425ZM12.8535 45.1579V46.588C12.9437 46.6218 13.0404 46.6547 13.1432 46.6865V45.2565C13.0404 45.2246 12.9437 45.1917 12.8535 45.1579ZM13.457 45.3456V46.7756C13.5498 46.7999 13.6465 46.8234 13.7467 46.8461V45.416C13.6465 45.3933 13.5498 45.3698 13.457 45.3456ZM14.0703 45.4842V46.9143C14.1643 46.9327 14.261 46.9505 14.36 46.9677V45.5376C14.261 45.5205 14.1643 45.5027 14.0703 45.4842ZM14.6738 45.5885V47.0185C14.7685 47.0329 14.8651 47.0467 14.9635 47.0598V45.6298C14.8651 45.6166 14.7685 45.6028 14.6738 45.5885ZM15.2852 45.67V47.1001C15.3803 47.1111 15.4769 47.1217 15.5749 47.1317V45.7016C15.4769 45.6916 15.3803 45.6811 15.2852 45.67ZM15.8887 45.7313V47.1613C15.9841 47.1697 16.0807 47.1775 16.1784 47.1848V45.7547C16.0807 45.7474 15.9841 45.7396 15.8887 45.7313ZM16.5 45.7766V47.2066C16.5957 47.2125 16.6922 47.2179 16.7897 47.2227V45.7927C16.6922 45.7878 16.5957 45.7825 16.5 45.7766ZM17.1054 45.8065V47.2365C17.2012 47.2401 17.2978 47.2433 17.3951 47.2459V45.8159C17.2978 45.8132 17.2012 45.8101 17.1054 45.8065ZM17.7166 45.8227V47.2527C17.8125 47.2542 17.9091 47.2552 18.0063 47.2557V45.8256C17.9091 45.8251 17.8125 45.8242 17.7166 45.8227ZM18.3281 45.8254V47.2555C18.4253 47.2549 18.5219 47.2538 18.6178 47.2522V45.8221C18.5219 45.8237 18.4253 45.8248 18.3281 45.8254ZM18.9336 45.8151V47.2451C19.0309 47.2424 19.1275 47.2392 19.2233 47.2355V45.8054C19.1275 45.8092 19.0309 45.8124 18.9336 45.8151ZM19.543 45.7911V47.2211C19.6405 47.2161 19.737 47.2107 19.8327 47.2047V45.7746C19.737 45.7806 19.6405 45.7861 19.543 45.7911ZM20.1484 45.7528V47.1828C20.2461 47.1754 20.3427 47.1675 20.4382 47.1591V45.729C20.3427 45.7375 20.2461 45.7454 20.1484 45.7528ZM20.76 45.6982V47.1282C20.858 47.1181 20.9546 47.1074 21.0497 47.0961V45.6661C20.9546 45.6773 20.858 45.688 20.76 45.6982ZM21.3652 45.6261V47.0561C21.4637 47.0428 21.5603 47.0288 21.6549 47.0143V45.5843C21.5603 45.5988 21.4637 45.6127 21.3652 45.6261ZM21.9766 45.5315V46.9615C22.0757 46.9441 22.1723 46.926 22.2663 46.9073V45.4773C22.1723 45.496 22.0757 45.514 21.9766 45.5315ZM22.582 45.4097V46.8398C22.6823 46.8168 22.779 46.793 22.8717 46.7684V45.3384C22.779 45.3629 22.6823 45.3867 22.582 45.4097ZM23.1914 45.246V46.6761C23.2945 46.6435 23.3912 46.6099 23.4811 46.5753V45.1452C23.3912 45.1798 23.2945 45.2134 23.1914 45.246ZM23.8027 45.0027V46.4328C23.9192 46.3725 24.0164 46.3099 24.0924 46.2454V44.8207H24.0861C24.011 44.8832 23.916 44.944 23.8027 45.0027Z" fill="#FF9211"/>
<g style="mix-blend-mode:multiply">
<path fill-rule="evenodd" clip-rule="evenodd" d="M23.2977 44.6752C23.3316 44.6264 23.3492 44.5765 23.3492 44.5258C23.3492 43.9428 21.029 43.4702 18.1668 43.4702C15.3046 43.4702 12.9844 43.9428 12.9844 44.5258C12.9844 44.5765 13.0019 44.6264 13.0359 44.6752C13.3922 44.1629 15.5536 43.769 18.1668 43.769C20.78 43.769 22.9414 44.1629 23.2977 44.6752Z" fill="#FFC177"/>
</g>
<path d="M23.2784 44.5225C23.2784 44.5708 23.2547 44.6254 23.1934 44.6864C23.1319 44.7476 23.0377 44.8099 22.9101 44.8713C22.6553 44.994 22.2822 45.1063 21.8156 45.2014C20.8835 45.3912 19.5927 45.5092 18.1648 45.5092C16.7369 45.5092 15.4462 45.3912 14.5141 45.2014C14.0474 45.1063 13.6743 44.994 13.4196 44.8713C13.292 44.8099 13.1978 44.7476 13.1363 44.6864C13.075 44.6254 13.0513 44.5708 13.0513 44.5225C13.0513 44.4742 13.075 44.4196 13.1363 44.3586C13.1978 44.2974 13.292 44.2351 13.4196 44.1737C13.6743 44.051 14.0474 43.9386 14.5141 43.8436C15.4462 43.6537 16.7369 43.5358 18.1648 43.5358C19.5927 43.5358 20.8835 43.6537 21.8156 43.8436C22.2822 43.9386 22.6553 44.051 22.9101 44.1737C23.0377 44.2351 23.1319 44.2974 23.1934 44.3586C23.2547 44.4196 23.2784 44.4742 23.2784 44.5225Z" stroke="#FFC177" stroke-width="0.137747"/>
<g style="mix-blend-mode:multiply" opacity="0.5">
<ellipse cx="18.1623" cy="44.5231" rx="6.13889" ry="1.35162" fill="#FF981D"/>
</g>
<path d="M23.7738 44.3175H23.7758V42.931C23.7758 42.1845 21.0274 41.5793 17.6369 41.5793C14.2465 41.5793 11.498 42.1845 11.498 42.931V44.3175H11.5C11.5841 45.0479 14.2995 45.6342 17.6369 45.6342C20.9744 45.6342 23.6898 45.0479 23.7738 44.3175Z" fill="#FFA318"/>
<path d="M11.5082 42.931H11.498V44.3176H11.5C11.5841 45.048 14.2995 45.6343 17.6369 45.6343C20.9744 45.6343 23.6898 45.048 23.7738 44.3176H23.7758V42.931H23.7656C23.5812 43.641 20.9079 44.2043 17.6369 44.2043C14.366 44.2043 11.6927 43.641 11.5082 42.931Z" fill="url(#paint6_linear_10222_81331)"/>
<path fill-rule="evenodd" clip-rule="evenodd" d="M11.7324 43.2252V44.6553C11.811 44.7155 11.908 44.774 12.0221 44.8304V43.4003C11.908 43.3439 11.811 43.2854 11.7324 43.2252ZM12.3379 43.5354V44.9654C12.4281 44.9992 12.5248 45.0321 12.6276 45.0639V43.6338C12.5248 43.602 12.4281 43.5692 12.3379 43.5354ZM12.9492 43.7249V45.1549C13.0421 45.179 13.1387 45.2024 13.2389 45.225V43.795C13.1387 43.7724 13.0421 43.749 12.9492 43.7249ZM13.5605 43.8625V45.2926C13.6546 45.3109 13.7512 45.3287 13.8503 45.3458V43.9157C13.7512 43.8986 13.6546 43.8809 13.5605 43.8625ZM14.1641 43.9664V45.3964C14.2588 45.4107 14.3554 45.4245 14.4538 45.4376V44.0076C14.3554 43.9944 14.2588 43.9807 14.1641 43.9664ZM14.7754 44.0477V45.4777C14.8705 45.4887 14.9671 45.4992 15.0651 45.5092V44.0792C14.9671 44.0692 14.8705 44.0587 14.7754 44.0477ZM15.3809 44.1089V45.5389C15.4763 45.5472 15.5729 45.555 15.6706 45.5622V44.1322C15.5729 44.1249 15.4763 44.1172 15.3809 44.1089ZM15.9902 44.1538V45.5838C16.0859 45.5897 16.1825 45.595 16.2799 45.5998V44.1698C16.1825 44.165 16.0859 44.1596 15.9902 44.1538ZM16.5957 44.1835V45.6135C16.6915 45.6171 16.7881 45.6202 16.8854 45.6228V44.1928C16.7881 44.1902 16.6915 44.1871 16.5957 44.1835ZM17.207 44.1995V45.6296C17.303 45.631 17.3996 45.632 17.4967 45.6324V44.2024C17.3996 44.2019 17.303 44.201 17.207 44.1995ZM17.8125 44.2022V45.6322C17.9097 45.6316 18.0062 45.6305 18.1022 45.6289V44.1988C18.0062 44.2004 17.9097 44.2015 17.8125 44.2022ZM18.4238 44.1916V45.6217C18.5211 45.6189 18.6177 45.6156 18.7135 45.6119V44.1819C18.6177 44.1856 18.5211 44.1889 18.4238 44.1916ZM19.0352 44.1673V45.5973C19.1326 45.5923 19.2292 45.5868 19.3249 45.5808V44.1507C19.2292 44.1568 19.1326 44.1623 19.0352 44.1673ZM19.6387 44.1289V45.559C19.7364 45.5515 19.833 45.5436 19.9284 45.5351V44.1051C19.833 44.1136 19.7364 44.1215 19.6387 44.1289ZM20.25 44.0741V45.5042C20.348 45.494 20.4446 45.4832 20.5397 45.472V44.0419C20.4446 44.0532 20.348 44.0639 20.25 44.0741ZM20.8555 44.0018V45.4318C20.9539 45.4184 21.0505 45.4044 21.1452 45.3899V43.9598C21.0505 43.9744 20.9539 43.9884 20.8555 44.0018ZM21.4668 43.9068V45.3369C21.5659 45.3194 21.6625 45.3012 21.7565 45.2825V43.8524C21.6625 43.8712 21.5659 43.8893 21.4668 43.9068ZM22.0723 43.7847V45.2147C22.1726 45.1916 22.2692 45.1677 22.362 45.1431V43.713C22.2692 43.7376 22.1726 43.7616 22.0723 43.7847ZM22.6816 43.6203V45.0503C22.7847 45.0176 22.8815 44.9838 22.9714 44.949V43.5189C22.8815 43.5537 22.7847 43.5875 22.6816 43.6203ZM23.2871 43.3784V44.8085C23.4037 44.748 23.5009 44.6852 23.5768 44.6205V43.1964H23.5697C23.4948 43.259 23.4001 43.3198 23.2871 43.3784Z" fill="#FF9211"/>
<g style="mix-blend-mode:multiply">
<path fill-rule="evenodd" clip-rule="evenodd" d="M22.7909 43.0475C22.8242 42.9992 22.8414 42.9498 22.8414 42.8996C22.8414 42.3166 20.5211 41.844 17.659 41.844C14.7968 41.844 12.4766 42.3166 12.4766 42.8996C12.4766 42.9507 12.4945 43.0011 12.529 43.0503C12.8823 42.5374 15.0453 42.1427 17.6609 42.1427C20.2718 42.1427 22.4317 42.536 22.7909 43.0475Z" fill="#FFC177"/>
</g>
<path d="M22.7647 42.8996C22.7647 42.9478 22.741 43.0025 22.6797 43.0635C22.6182 43.1246 22.524 43.187 22.3964 43.2484C22.1416 43.3711 21.7685 43.4834 21.3019 43.5785C20.3698 43.7683 19.0791 43.8862 17.6512 43.8862C16.2233 43.8862 14.9325 43.7683 14.0004 43.5785C13.5338 43.4834 13.1607 43.3711 12.9059 43.2484C12.7783 43.187 12.6841 43.1246 12.6226 43.0635C12.5613 43.0025 12.5376 42.9478 12.5376 42.8996C12.5376 42.8513 12.5613 42.7966 12.6226 42.7356C12.6841 42.6745 12.7783 42.6122 12.9059 42.5507C13.1607 42.428 13.5338 42.3157 14.0004 42.2206C14.9325 42.0308 16.2233 41.9129 17.6512 41.9129C19.0791 41.9129 20.3698 42.0308 21.3019 42.2206C21.7685 42.3157 22.1416 42.428 22.3964 42.5507C22.524 42.6122 22.6182 42.6745 22.6797 42.7356C22.741 42.7966 22.7647 42.8513 22.7647 42.8996Z" stroke="#FFC177" stroke-width="0.137747"/>
<g style="mix-blend-mode:multiply" opacity="0.5">
<ellipse cx="17.6545" cy="42.8995" rx="6.13889" ry="1.35162" fill="#FF981D"/>
</g>
<path d="M24.4574 42.6374H24.4594V41.2509C24.4594 40.5044 21.711 39.8993 18.3205 39.8993C14.9301 39.8993 12.1816 40.5044 12.1816 41.2509V42.6374H12.1836C12.2677 43.3678 14.9831 43.9542 18.3205 43.9542C21.658 43.9542 24.3734 43.3678 24.4574 42.6374Z" fill="#FFA318"/>
<path d="M12.1918 41.2512H12.1816V42.6377H12.1836C12.2677 43.3681 14.9831 43.9545 18.3205 43.9545C21.658 43.9545 24.3734 43.3681 24.4574 42.6377H24.4594V41.2512H24.4492C24.2648 41.9612 21.5915 42.5245 18.3205 42.5245C15.0496 42.5245 12.3763 41.9612 12.1918 41.2512Z" fill="url(#paint7_linear_10222_81331)"/>
<path fill-rule="evenodd" clip-rule="evenodd" d="M12.418 41.5432V42.9733C12.4963 43.0338 12.5934 43.0927 12.7077 43.1494V41.7193C12.5934 41.6626 12.4963 41.6038 12.418 41.5432ZM13.0291 41.857V43.2871C13.1194 43.3208 13.2161 43.3536 13.3188 43.3854V41.9553C13.2161 41.9235 13.1194 41.8907 13.0291 41.857ZM13.6329 42.0443V43.4744C13.7257 43.4986 13.8224 43.522 13.9226 43.5447V42.1146C13.8224 42.0919 13.7257 42.0685 13.6329 42.0443ZM14.2461 42.1827V43.6128C14.3401 43.6312 14.4367 43.6489 14.5358 43.666V42.236C14.4367 42.2189 14.3401 42.2011 14.2461 42.1827ZM14.8496 42.2868V43.7168C14.9443 43.7311 15.0409 43.7449 15.1393 43.7581V42.328C15.0409 42.3149 14.9443 42.3011 14.8496 42.2868ZM15.4609 42.3682V43.7982C15.5561 43.8093 15.6527 43.8198 15.7507 43.8298V42.3997C15.6527 42.3898 15.5561 42.3792 15.4609 42.3682ZM16.0645 42.4293V43.8594C16.1599 43.8677 16.2565 43.8755 16.3542 43.8828V42.4527C16.2565 42.4454 16.1599 42.4376 16.0645 42.4293ZM16.6758 42.4745V43.9046C16.7714 43.9104 16.868 43.9158 16.9655 43.9206V42.4906C16.868 42.4857 16.7714 42.4804 16.6758 42.4745ZM17.2891 42.5046V43.9347C17.3849 43.9382 17.4815 43.9413 17.5788 43.9439V42.5139C17.4815 42.5113 17.3849 42.5082 17.2891 42.5046ZM17.8924 42.5204V43.9505C17.9884 43.9519 18.085 43.9529 18.1821 43.9534V42.5234C18.085 42.5229 17.9884 42.5219 17.8924 42.5204ZM18.5039 42.5231V43.9531C18.6011 43.9525 18.6976 43.9514 18.7936 43.9498V42.5198C18.6976 42.5214 18.6011 42.5225 18.5039 42.5231ZM19.1094 42.5127V43.9427C19.2067 43.94 19.3033 43.9367 19.3991 43.933V42.503C19.3033 42.5067 19.2067 42.51 19.1094 42.5127ZM19.7188 42.4886V43.9186C19.8162 43.9136 19.9128 43.9081 20.0085 43.9021V42.4721C19.9128 42.4781 19.8162 42.4836 19.7188 42.4886ZM20.3242 42.4502V43.8802C20.4219 43.8728 20.5185 43.8649 20.6139 43.8564V42.4264C20.5185 42.4348 20.4219 42.4428 20.3242 42.4502ZM20.9355 42.3955V43.8255C21.0336 43.8154 21.1302 43.8046 21.2253 43.7934V42.3633C21.1302 42.3746 21.0336 42.3853 20.9355 42.3955ZM21.5391 42.3235V43.7536C21.6375 43.7402 21.7341 43.7262 21.8288 43.7117V42.2817C21.7341 42.2962 21.6375 42.3102 21.5391 42.3235ZM22.1523 42.2285V43.6585C22.2515 43.6411 22.3481 43.623 22.4421 43.6042V42.1742C22.3481 42.1929 22.2515 42.211 22.1523 42.2285ZM22.7637 42.1052V43.5352C22.864 43.5121 22.9606 43.4882 23.0534 43.4635V42.0335C22.9606 42.0581 22.864 42.082 22.7637 42.1052ZM23.3672 41.9425V43.3725C23.4703 43.3399 23.567 43.3062 23.6569 43.2715V41.8414C23.567 41.8761 23.4703 41.9098 23.3672 41.9425ZM23.9785 41.6984V43.1285C24.0953 43.0677 24.1924 43.0047 24.2682 42.9398V41.5186H24.2577C24.1835 41.5803 24.0899 41.6404 23.9785 41.6984Z" fill="#FF9211"/>
<g style="mix-blend-mode:multiply">
<path fill-rule="evenodd" clip-rule="evenodd" d="M23.4645 41.3708C23.4992 41.3215 23.5172 41.271 23.5172 41.2197C23.5172 40.6368 21.1969 40.1642 18.3348 40.1642C15.4726 40.1642 13.1523 40.6368 13.1523 41.2197C13.1523 41.2701 13.1696 41.3196 13.2031 41.368C13.5628 40.8566 15.7224 40.4635 18.3328 40.4635C20.9479 40.4635 23.1107 40.858 23.4645 41.3708Z" fill="#FFC177"/>
</g>
<path d="M23.4483 41.2197C23.4483 41.268 23.4246 41.3227 23.3633 41.3837C23.3018 41.4448 23.2076 41.5071 23.08 41.5686C22.8252 41.6913 22.4521 41.8036 21.9855 41.8987C21.0534 42.0885 19.7627 42.2064 18.3348 42.2064C16.9069 42.2064 15.6161 42.0885 14.684 41.8987C14.2174 41.8036 13.8443 41.6913 13.5895 41.5686C13.4619 41.5071 13.3677 41.4448 13.3062 41.3837C13.2449 41.3227 13.2212 41.268 13.2212 41.2197C13.2212 41.1715 13.2449 41.1168 13.3062 41.0558C13.3677 40.9947 13.4619 40.9323 13.5895 40.8709C13.8443 40.7482 14.2174 40.6359 14.684 40.5408C15.6161 40.351 16.9069 40.2331 18.3348 40.2331C19.7627 40.2331 21.0534 40.351 21.9855 40.5408C22.4521 40.6359 22.8252 40.7482 23.08 40.8709C23.2076 40.9323 23.3018 40.9947 23.3633 41.0558C23.4246 41.1168 23.4483 41.1715 23.4483 41.2197Z" stroke="#FFC177" stroke-width="0.137747"/>
<g style="mix-blend-mode:multiply" opacity="0.5">
<ellipse cx="18.3401" cy="41.2216" rx="6.13889" ry="1.35162" fill="#FF981D"/>
</g>
<path d="M66.1527 47.6159H66.1547V46.2294C66.1547 45.483 63.4063 44.8778 60.0158 44.8778C56.6254 44.8778 53.877 45.483 53.877 46.2294V47.6159H53.8789C53.963 48.3463 56.6784 48.9327 60.0158 48.9327C63.3533 48.9327 66.0687 48.3463 66.1527 47.6159Z" fill="#FFA318"/>
<path d="M53.8872 46.2297H53.877V47.6163H53.8789C53.963 48.3467 56.6784 48.933 60.0158 48.933C63.3533 48.933 66.0687 48.3467 66.1527 47.6163H66.1547V46.2297H66.1445C65.9601 46.9397 63.2868 47.503 60.0158 47.503C56.7449 47.503 54.0716 46.9397 53.8872 46.2297Z" fill="url(#paint8_linear_10222_81331)"/>
<path fill-rule="evenodd" clip-rule="evenodd" d="M54.1113 46.5177V47.9478C54.1896 48.0086 54.2867 48.0676 54.401 48.1245V46.6944C54.2866 46.6375 54.1896 46.5785 54.1113 46.5177ZM54.7225 46.8323V48.2624C54.8127 48.2962 54.9094 48.329 55.0122 48.3608V46.9307C54.9094 46.8989 54.8127 46.8661 54.7225 46.8323ZM55.3281 47.0203V48.4504C55.421 48.4746 55.5176 48.498 55.6178 48.5207V47.0907C55.5176 47.068 55.421 47.0445 55.3281 47.0203ZM55.9395 47.1584V48.5884C56.0335 48.6068 56.1301 48.6246 56.2292 48.6417V47.2117C56.1301 47.1946 56.0335 47.1768 55.9395 47.1584ZM56.543 47.2625V48.6926C56.6377 48.7069 56.7343 48.7207 56.8327 48.7338V47.3038C56.7343 47.2906 56.6377 47.2769 56.543 47.2625ZM57.1543 47.344V48.774C57.2494 48.7851 57.346 48.7956 57.444 48.8056V47.3756C57.346 47.3656 57.2494 47.3551 57.1543 47.344ZM57.7597 47.4054V48.8354C57.8552 48.8437 57.9518 48.8515 58.0495 48.8588V47.4288C57.9518 47.4215 57.8552 47.4137 57.7597 47.4054ZM58.3709 47.4505V48.8806C58.4665 48.8864 58.5631 48.8918 58.6606 48.8966V47.4666C58.5631 47.4617 58.4665 47.4564 58.3709 47.4505ZM58.9746 47.4803V48.9103C59.0705 48.9139 59.1671 48.9171 59.2644 48.9197V47.4897C59.1671 47.487 59.0705 47.4839 58.9746 47.4803ZM59.5858 47.4964V48.9265C59.6818 48.9279 59.7784 48.9289 59.8755 48.9294V47.4994C59.7784 47.4989 59.6818 47.4979 59.5858 47.4964ZM60.1973 47.4992V48.9292C60.2944 48.9286 60.391 48.9275 60.487 48.9259V47.4958C60.391 47.4974 60.2944 47.4986 60.1973 47.4992ZM60.8027 47.4888V48.9188C60.9 48.9161 60.9966 48.9129 61.0924 48.9091V47.4791C60.9966 47.4828 60.9 47.4861 60.8027 47.4888ZM61.4141 47.4646V48.8947C61.5115 48.8897 61.6081 48.8842 61.7038 48.8782V47.4481C61.6081 47.4541 61.5115 47.4596 61.4141 47.4646ZM62.0176 47.4264V48.8564C62.1153 48.849 62.2119 48.8411 62.3073 48.8326V47.4026C62.2119 47.4111 62.1153 47.419 62.0176 47.4264ZM62.6289 47.3717V48.8018C62.7269 48.7916 62.8235 48.7809 62.9186 48.7697V47.3396C62.8235 47.3509 62.7269 47.3616 62.6289 47.3717ZM63.2342 47.2996V48.7296C63.3327 48.7163 63.4293 48.7023 63.5239 48.6878V47.2577C63.4293 47.2723 63.3327 47.2862 63.2342 47.2996ZM63.8457 47.2048V48.6349C63.9448 48.6175 64.0414 48.5994 64.1354 48.5807V47.1506C64.0414 47.1693 63.9448 47.1874 63.8457 47.2048ZM64.4512 47.083V48.5131C64.5515 48.49 64.6481 48.4662 64.7409 48.4416V47.0116C64.6481 47.0361 64.5515 47.06 64.4512 47.083ZM65.0605 46.9191V48.3492C65.1636 48.3166 65.2603 48.2829 65.3503 48.2483V46.8182C65.2603 46.8528 65.1636 46.8865 65.0605 46.9191ZM65.6719 46.6754V48.1055C65.7885 48.045 65.8856 47.9822 65.9616 47.9175V46.4939H65.9539C65.8791 46.5563 65.7846 46.6169 65.6719 46.6754Z" fill="#FF9211"/>
<g style="mix-blend-mode:multiply">
<path fill-rule="evenodd" clip-rule="evenodd" d="M65.159 46.3491C65.193 46.3003 65.2105 46.2504 65.2105 46.1997C65.2105 45.6168 62.8903 45.1442 60.0281 45.1442C57.1659 45.1442 54.8457 45.6168 54.8457 46.1997C54.8457 46.2504 54.8633 46.3003 54.8972 46.3491C55.2535 45.8369 57.4149 45.443 60.0281 45.443C62.6413 45.443 64.8027 45.8369 65.159 46.3491Z" fill="#FFC177"/>
</g>
<path d="M65.1436 46.1981C65.1436 46.2464 65.1199 46.3011 65.0586 46.3621C64.9972 46.4232 64.9029 46.4855 64.7753 46.547C64.5206 46.6697 64.1475 46.782 63.6808 46.877C62.7488 47.0669 61.458 47.1848 60.0301 47.1848C58.6022 47.1848 57.3114 47.0669 56.3793 46.877C55.9127 46.782 55.5396 46.6697 55.2848 46.547C55.1572 46.4855 55.063 46.4232 55.0015 46.3621C54.9402 46.3011 54.9165 46.2464 54.9165 46.1981C54.9165 46.1499 54.9402 46.0952 55.0015 46.0342C55.063 45.9731 55.1572 45.9107 55.2848 45.8493C55.5396 45.7266 55.9127 45.6143 56.3793 45.5192C57.3114 45.3294 58.6022 45.2115 60.0301 45.2115C61.458 45.2115 62.7488 45.3294 63.6808 45.5192C64.1475 45.6143 64.5206 45.7266 64.7753 45.8493C64.9029 45.9107 64.9972 45.9731 65.0586 46.0342C65.1199 46.0952 65.1436 46.1499 65.1436 46.1981Z" stroke="#FFC177" stroke-width="0.137747"/>
<g style="mix-blend-mode:multiply" opacity="0.5">
<ellipse cx="60.0354" cy="46.1992" rx="6.13889" ry="1.35162" fill="#FF981D"/>
</g>
<path d="M66.8363 45.9391H66.8383V44.5525C66.8383 43.8061 64.0899 43.2009 60.6994 43.2009C57.309 43.2009 54.5605 43.8061 54.5605 44.5525V45.9391H54.5625C54.6466 46.6695 57.362 47.2558 60.6994 47.2558C64.0369 47.2558 66.7523 46.6695 66.8363 45.9391Z" fill="#FFA318"/>
<path d="M54.5707 44.5529H54.5605V45.9394H54.5625C54.6466 46.6698 57.362 47.2561 60.6994 47.2561C64.0369 47.2561 66.7523 46.6698 66.8363 45.9394H66.8383V44.5529H66.8281C66.6437 45.2629 63.9704 45.8261 60.6994 45.8261C57.4285 45.8261 54.7552 45.2629 54.5707 44.5529Z" fill="url(#paint9_linear_10222_81331)"/>
<path fill-rule="evenodd" clip-rule="evenodd" d="M54.7871 44.8416V46.2717C54.8652 46.3328 54.9622 46.3922 55.0768 46.4495V45.0194C54.9622 44.9621 54.8651 44.9027 54.7871 44.8416ZM55.3983 45.1578V46.5879C55.4885 46.6217 55.5852 46.6546 55.688 46.6865V45.2565C55.5852 45.2246 55.4885 45.1917 55.3983 45.1578ZM56.0039 45.3463V46.7763C56.0967 46.8005 56.1934 46.824 56.2936 46.8468V45.4167C56.1934 45.394 56.0967 45.3705 56.0039 45.3463ZM56.6152 45.4845V46.9146C56.7093 46.933 56.8059 46.9508 56.9049 46.968V45.538C56.8059 45.5208 56.7093 45.503 56.6152 45.4845ZM57.2188 45.5889V47.0189C57.3134 47.0333 57.41 47.0471 57.5085 47.0603V45.6302C57.41 45.617 57.3134 45.6032 57.2188 45.5889ZM57.8301 45.6705V47.1005C57.9252 47.1116 58.0218 47.1221 58.1198 47.1321V45.7021C58.0218 45.6921 57.9252 45.6816 57.8301 45.6705ZM58.4336 45.7318V47.1618C58.529 47.1702 58.6256 47.178 58.7233 47.1853V45.7553C58.6256 45.748 58.529 45.7401 58.4336 45.7318ZM59.0449 45.7771V47.2072C59.1406 47.213 59.2372 47.2184 59.3346 47.2233V45.7932C59.2372 45.7884 59.1406 45.783 59.0449 45.7771ZM59.6504 45.8071V47.2371C59.7463 47.2407 59.8428 47.2439 59.9401 47.2465V45.8165C59.8428 45.8139 59.7463 45.8107 59.6504 45.8071ZM60.2616 45.8233V47.2534C60.3576 47.2548 60.4541 47.2558 60.5513 47.2563V45.8263C60.4541 45.8258 60.3576 45.8248 60.2616 45.8233ZM60.873 45.8261V47.2562C60.9702 47.2556 61.0668 47.2545 61.1628 47.2529V45.8229C61.0668 45.8244 60.9702 45.8255 60.873 45.8261ZM61.4785 45.8158V47.2459C61.5758 47.2431 61.6724 47.2399 61.7682 47.2362V45.8062C61.6724 45.8099 61.5758 45.8131 61.4785 45.8158ZM62.0898 45.7918V47.2218C62.1873 47.2168 62.2839 47.2113 62.3796 47.2053V45.7753C62.2839 45.7813 62.1873 45.7868 62.0898 45.7918ZM62.6934 45.7536V47.1837C62.7911 47.1763 62.8877 47.1684 62.9831 47.1599V45.7299C62.8877 45.7383 62.7911 45.7462 62.6934 45.7536ZM63.3047 45.6991V47.1291C63.4027 47.119 63.4993 47.1083 63.5944 47.0971V45.667C63.4993 45.6782 63.4027 45.6889 63.3047 45.6991ZM63.91 45.6271V47.0571C64.0084 47.0438 64.105 47.0298 64.1997 47.0153V45.5853C64.105 45.5998 64.0084 45.6137 63.91 45.6271ZM64.5215 45.5325V46.9625C64.6206 46.9451 64.7172 46.9271 64.8112 46.9084V45.4783C64.7172 45.497 64.6206 45.5151 64.5215 45.5325ZM65.1249 45.4113V46.8414C65.2252 46.8184 65.3218 46.7946 65.4146 46.7701V45.3401C65.3218 45.3646 65.2252 45.3884 65.1249 45.4113ZM65.7363 45.2473V46.6774C65.8394 46.6448 65.9361 46.6113 66.026 46.5767V45.1467C65.9361 45.1812 65.8394 45.2148 65.7363 45.2473ZM66.3418 45.0074V46.4375C66.4578 46.378 66.5549 46.3162 66.6315 46.2526V44.8226H66.6314C66.5548 44.8862 66.4577 44.9479 66.3418 45.0074Z" fill="#FF9211"/>
<g style="mix-blend-mode:multiply">
<path fill-rule="evenodd" clip-rule="evenodd" d="M65.8446 44.6748C65.8785 44.626 65.8961 44.5761 65.8961 44.5254C65.8961 43.9424 63.5758 43.4698 60.7137 43.4698C57.8515 43.4698 55.5312 43.9424 55.5312 44.5254C55.5312 44.5761 55.5488 44.626 55.5828 44.6748C55.939 44.1626 58.1005 43.7686 60.7137 43.7686C63.3268 43.7686 65.4883 44.1626 65.8446 44.6748Z" fill="#FFC177"/>
</g>
<path d="M65.8272 44.5214C65.8272 44.5697 65.8035 44.6243 65.7422 44.6853C65.6807 44.7465 65.5865 44.8088 65.4589 44.8702C65.2041 44.9929 64.831 45.1053 64.3644 45.2003C63.4323 45.3901 62.1416 45.5081 60.7137 45.5081C59.2858 45.5081 57.995 45.3901 57.0629 45.2003C56.5963 45.1053 56.2232 44.9929 55.9684 44.8702C55.8408 44.8088 55.7466 44.7465 55.6851 44.6853C55.6238 44.6243 55.6001 44.5697 55.6001 44.5214C55.6001 44.4731 55.6238 44.4185 55.6851 44.3575C55.7466 44.2963 55.8408 44.234 55.9684 44.1726C56.2232 44.0499 56.5963 43.9375 57.0629 43.8425C57.995 43.6526 59.2858 43.5347 60.7137 43.5347C62.1416 43.5347 63.4323 43.6526 64.3644 43.8425C64.831 43.9375 65.2041 44.0499 65.4589 44.1726C65.5865 44.234 65.6807 44.2963 65.7422 44.3575C65.8035 44.4185 65.8272 44.4731 65.8272 44.5214Z" stroke="#FFC177" stroke-width="0.137747"/>
<g style="mix-blend-mode:multiply" opacity="0.5">
<ellipse cx="60.7209" cy="44.5219" rx="6.13889" ry="1.35162" fill="#FF981D"/>
</g>
<path d="M66.3344 44.3163H66.3364V42.9297C66.3364 42.1833 63.5879 41.5781 60.1975 41.5781C56.807 41.5781 54.0586 42.1833 54.0586 42.9297V44.3163H54.0606C54.1446 45.0467 56.86 45.633 60.1975 45.633C63.5349 45.633 66.2503 45.0467 66.3344 44.3163Z" fill="#FFA318"/>
<path d="M54.0688 42.9302H54.0586V44.3167H54.0606C54.1446 45.0471 56.86 45.6335 60.1975 45.6335C63.5349 45.6335 66.2503 45.0471 66.3344 44.3167H66.3364V42.9302H66.3262C66.1417 43.6402 63.4684 44.2034 60.1975 44.2034C56.9265 44.2034 54.2532 43.6402 54.0688 42.9302Z" fill="url(#paint10_linear_10222_81331)"/>
<path fill-rule="evenodd" clip-rule="evenodd" d="M54.2832 43.2217V44.6518C54.3616 44.7124 54.4586 44.7712 54.5729 44.8279V43.3978C54.4586 43.3411 54.3616 43.2823 54.2832 43.2217ZM54.8887 43.5334V44.9635C54.9789 44.9973 55.0756 45.0302 55.1784 45.0621V43.6321C55.0756 43.6002 54.9789 43.5673 54.8887 43.5334ZM55.5 43.7233V45.1534C55.5929 45.1775 55.6895 45.201 55.7897 45.2236V43.7936C55.6895 43.7709 55.5929 43.7475 55.5 43.7233ZM56.1035 43.8597V45.2897C56.1975 45.3082 56.2942 45.326 56.3932 45.3432V43.9132C56.2942 43.896 56.1975 43.8781 56.1035 43.8597ZM56.7148 43.9653V45.3953C56.8095 45.4097 56.9061 45.4234 57.0046 45.4366V44.0065C56.9061 43.9934 56.8095 43.9796 56.7148 43.9653ZM57.3262 44.0467V45.4767C57.4213 45.4878 57.5179 45.4983 57.6159 45.5083V44.0782C57.5179 44.0683 57.4213 44.0577 57.3262 44.0467ZM57.9316 44.108V45.538C58.027 45.5464 58.1236 45.5541 58.2213 45.5614V44.1314C58.1236 44.1241 58.027 44.1163 57.9316 44.108ZM58.5428 44.1531V45.5832C58.6384 45.589 58.735 45.5944 58.8325 45.5992V44.1692C58.735 44.1643 58.6384 44.159 58.5428 44.1531ZM59.1465 44.1829V45.6129C59.2423 45.6165 59.3389 45.6196 59.4362 45.6222V44.1922C59.3389 44.1896 59.2423 44.1865 59.1465 44.1829ZM59.7577 44.1989V45.629C59.8537 45.6304 59.9502 45.6314 60.0474 45.6319V44.2019C59.9502 44.2014 59.8537 44.2004 59.7577 44.1989ZM60.3633 44.2017V45.6317C60.4604 45.6311 60.557 45.63 60.653 45.6284V44.1984C60.557 44.2 60.4604 44.2011 60.3633 44.2017ZM60.9746 44.1912V45.6212C61.0719 45.6185 61.1685 45.6153 61.2643 45.6115V44.1815C61.1685 44.1852 61.0719 44.1885 60.9746 44.1912ZM61.5781 44.1674V45.5974C61.6756 45.5925 61.7722 45.587 61.8678 45.581V44.151C61.7722 44.1569 61.6756 44.1624 61.5781 44.1674ZM62.1895 44.1287V45.5588C62.2872 45.5513 62.3838 45.5434 62.4792 45.5349V44.1049C62.3838 44.1134 62.2872 44.1213 62.1895 44.1287ZM62.8008 44.074V45.504C62.8988 45.4939 62.9954 45.4832 63.0905 45.4719V44.0419C62.9954 44.0531 62.8988 44.0638 62.8008 44.074ZM63.4061 44.0018V45.4318C63.5045 45.4185 63.6011 45.4045 63.6958 45.39V43.9599C63.6011 43.9745 63.5045 43.9884 63.4061 44.0018ZM64.0176 43.907V45.337C64.1167 45.3196 64.2133 45.3015 64.3073 45.2827V43.8527C64.2133 43.8714 64.1167 43.8895 64.0176 43.907ZM64.623 43.7851V45.2151C64.7234 45.192 64.82 45.1682 64.9128 45.1436V43.7135C64.82 43.7381 64.7234 43.762 64.623 43.7851ZM65.2324 43.621V45.051C65.3355 45.0184 65.4322 44.9847 65.5221 44.95V43.5199C65.4322 43.5546 65.3355 43.5883 65.2324 43.621ZM65.8379 43.3799V44.81C65.9542 44.7499 66.0514 44.6875 66.1276 44.6233V43.1963H66.1239C66.0483 43.2594 65.9524 43.3208 65.8379 43.3799Z" fill="#FF9211"/>
<g style="mix-blend-mode:multiply">
<path fill-rule="evenodd" clip-rule="evenodd" d="M65.3428 43.048C65.3766 42.9993 65.3941 42.9496 65.3941 42.8989C65.3941 42.316 63.0739 41.8434 60.2117 41.8434C57.3495 41.8434 55.0293 42.316 55.0293 42.8989C55.0293 42.9496 55.0468 42.9993 55.0806 43.048C55.4362 42.5357 57.598 42.1416 60.2117 42.1416C62.8254 42.1416 64.9872 42.5357 65.3428 43.048Z" fill="#FFC177"/>
</g>
<path d="M65.3272 42.8987C65.3272 42.947 65.3035 43.0016 65.2422 43.0626C65.1807 43.1238 65.0865 43.1861 64.9589 43.2475C64.7041 43.3702 64.331 43.4826 63.8644 43.5776C62.9323 43.7675 61.6416 43.8854 60.2137 43.8854C58.7858 43.8854 57.495 43.7675 56.5629 43.5776C56.0963 43.4826 55.7232 43.3702 55.4684 43.2475C55.3408 43.1861 55.2466 43.1238 55.1851 43.0626C55.1238 43.0016 55.1001 42.947 55.1001 42.8987C55.1001 42.8504 55.1238 42.7958 55.1851 42.7348C55.2466 42.6736 55.3408 42.6113 55.4684 42.5499C55.7232 42.4272 56.0963 42.3148 56.5629 42.2198C57.495 42.0299 58.7858 41.912 60.2137 41.912C61.6416 41.912 62.9323 42.0299 63.8644 42.2198C64.331 42.3148 64.7041 42.4272 64.9589 42.5499C65.0865 42.6113 65.1807 42.6736 65.2422 42.7348C65.3035 42.7958 65.3272 42.8504 65.3272 42.8987Z" stroke="#FFC177" stroke-width="0.137747"/>
<g style="mix-blend-mode:multiply" opacity="0.5">
<ellipse cx="60.2112" cy="42.8983" rx="6.13889" ry="1.35162" fill="#FF981D"/>
</g>
<path d="M67.0219 42.6368H67.0239V41.2503C67.0239 40.5038 64.2754 39.8987 60.885 39.8987C57.4945 39.8987 54.7461 40.5038 54.7461 41.2503V42.6368H54.7481C54.8321 43.3672 57.5475 43.9536 60.885 43.9536C64.2224 43.9536 66.9378 43.3672 67.0219 42.6368Z" fill="#FFA318"/>
<path d="M54.7563 41.2494H54.7461V42.6359H54.7481C54.8321 43.3663 57.5475 43.9527 60.885 43.9527C64.2224 43.9527 66.9378 43.3663 67.0219 42.6359H67.0239V41.2494H67.0137C66.8292 41.9594 64.1559 42.5226 60.885 42.5226C57.614 42.5226 54.9407 41.9594 54.7563 41.2494Z" fill="url(#paint11_linear_10222_81331)"/>
<path fill-rule="evenodd" clip-rule="evenodd" d="M54.9746 41.5446V42.9746C55.0532 43.0348 55.1502 43.0933 55.2643 43.1497V41.7196C55.1502 41.6632 55.0532 41.6047 54.9746 41.5446ZM55.5801 41.8547V43.2848C55.6703 43.3185 55.767 43.3514 55.8698 43.3832V41.9531C55.767 41.9213 55.6703 41.8885 55.5801 41.8547ZM56.1914 42.0442V43.4742C56.2843 43.4983 56.3809 43.5217 56.4811 43.5443V42.1143C56.3809 42.0917 56.2843 42.0683 56.1914 42.0442ZM56.8027 42.1818V43.6119C56.8968 43.6302 56.9934 43.648 57.0924 43.6651V42.235C56.9934 42.2179 56.8968 42.2002 56.8027 42.1818ZM57.4062 42.2857V43.7157C57.5009 43.7301 57.5975 43.7438 57.696 43.7569V42.3269C57.5975 42.3137 57.5009 42.3 57.4062 42.2857ZM58.0176 42.367V43.797C58.1127 43.8081 58.2093 43.8186 58.3073 43.8285V42.3985C58.2093 42.3885 58.1127 42.378 58.0176 42.367ZM58.6211 42.428V43.858C58.7165 43.8663 58.8131 43.8741 58.9108 43.8814V42.4514C58.8131 42.4441 58.7165 42.4363 58.6211 42.428ZM59.2342 42.4732V43.9032C59.3298 43.9091 59.4264 43.9144 59.5239 43.9192V42.4892C59.4264 42.4844 59.3298 42.479 59.2342 42.4732ZM59.8379 42.5028V43.9329C59.9338 43.9364 60.0303 43.9396 60.1276 43.9422V42.5121C60.0303 42.5095 59.9338 42.5064 59.8379 42.5028ZM60.4491 42.5188V43.9489C60.5451 43.9503 60.6416 43.9513 60.7388 43.9517V42.5217C60.6416 42.5212 60.5451 42.5203 60.4491 42.5188ZM61.0547 42.5215V43.9515C61.1518 43.9509 61.2484 43.9498 61.3444 43.9482V42.5182C61.2484 42.5197 61.1518 42.5209 61.0547 42.5215ZM61.666 42.5109V43.941C61.7633 43.9382 61.8599 43.9349 61.9557 43.9312V42.5012C61.8599 42.5049 61.7633 42.5082 61.666 42.5109ZM62.2773 42.4866V43.9167C62.3748 43.9116 62.4714 43.9061 62.5671 43.9001V42.4701C62.4714 42.4761 62.3748 42.4816 62.2773 42.4866ZM62.8809 42.4483V43.8783C62.9786 43.8709 63.0752 43.8629 63.1706 43.8544V42.4244C63.0752 42.4329 62.9786 42.4408 62.8809 42.4483ZM63.4922 42.3934V43.8235C63.5902 43.8133 63.6868 43.8025 63.7819 43.7913V42.3612C63.6868 42.3725 63.5902 42.3832 63.4922 42.3934ZM64.0975 42.3211V43.7511C64.1959 43.7377 64.2925 43.7238 64.3872 43.7092V42.2791C64.2925 42.2937 64.1959 42.3077 64.0975 42.3211ZM64.709 42.2261V43.6562C64.8081 43.6387 64.9047 43.6206 64.9987 43.6018V42.1717C64.9047 42.1905 64.8081 42.2086 64.709 42.2261ZM65.3145 42.104V43.534C65.4148 43.5109 65.5114 43.487 65.6042 43.4624V42.0323C65.5114 42.057 65.4148 42.0809 65.3145 42.104ZM65.9238 41.9396V43.3696C66.0269 43.3369 66.1236 43.3031 66.2135 43.2683V41.8383C66.1236 41.873 66.0269 41.9068 65.9238 41.9396ZM66.5293 41.6977V43.1278C66.6459 43.0673 66.7431 43.0045 66.819 42.9398V41.5173H66.8099C66.7354 41.5793 66.6413 41.6396 66.5293 41.6977Z" fill="#FF9211"/>
<g style="mix-blend-mode:multiply">
<path fill-rule="evenodd" clip-rule="evenodd" d="M66.0321 41.3682C66.066 41.3194 66.0836 41.2695 66.0836 41.2188C66.0836 40.6358 63.7633 40.1632 60.9012 40.1632C58.039 40.1632 55.7188 40.6358 55.7188 41.2188C55.7188 41.2695 55.7363 41.3194 55.7703 41.3682C56.1265 40.8559 58.288 40.462 60.9012 40.462C63.5143 40.462 65.6758 40.8559 66.0321 41.3682Z" fill="#FFC177"/>
</g>
<path d="M66.0127 41.2178C66.0127 41.2661 65.989 41.3207 65.9277 41.3817C65.8663 41.4429 65.772 41.5052 65.6445 41.5666C65.3897 41.6893 65.0166 41.8017 64.55 41.8967C63.6179 42.0866 62.3271 42.2045 60.8992 42.2045C59.4713 42.2045 58.1805 42.0866 57.2484 41.8967C56.7818 41.8017 56.4087 41.6893 56.1539 41.5666C56.0264 41.5052 55.9321 41.4429 55.8707 41.3817C55.8094 41.3207 55.7857 41.2661 55.7857 41.2178C55.7857 41.1695 55.8094 41.1149 55.8707 41.0539C55.9321 40.9927 56.0264 40.9304 56.1539 40.869C56.4087 40.7463 56.7818 40.6339 57.2484 40.5389C58.1805 40.349 59.4713 40.2311 60.8992 40.2311C62.3271 40.2311 63.6179 40.349 64.55 40.5389C65.0166 40.6339 65.3897 40.7463 65.6445 40.869C65.772 40.9304 65.8663 40.9927 65.9277 41.0539C65.989 41.1149 66.0127 41.1695 66.0127 41.2178Z" stroke="#FFC177" stroke-width="0.137747"/>
<g style="mix-blend-mode:multiply" opacity="0.5">
<ellipse cx="60.8987" cy="41.2204" rx="6.13889" ry="1.35162" fill="#FF981D"/>
</g>
<path d="M19.4715 24.1341C19.3927 21.4637 21.5193 19.2479 24.1906 19.2167L52.3496 18.8886C55.0094 18.8576 57.1821 21.0052 57.1821 23.6651V43.5092C57.1821 46.1474 55.0434 48.2861 52.4053 48.2861H24.8218C22.2385 48.2861 20.1232 46.2323 20.0471 43.6501L19.4715 24.1341Z" fill="#1F2337"/>
<rect x="18.9355" y="19.417" width="36.9983" height="29.4538" rx="4.77683" fill="url(#paint12_linear_10222_81331)"/>
<rect x="18.9355" y="19.417" width="36.9983" height="29.4538" rx="4.77683" fill="url(#paint13_radial_10222_81331)" fill-opacity="0.5"/>
<rect x="20.3867" y="21.427" width="34.471" height="25.4213" rx="4.77683" stroke="url(#paint14_linear_10222_81331)" stroke-width="1.52916" stroke-miterlimit="16" stroke-linecap="round" stroke-dasharray="4.59 4.59"/>
<g filter="url(#filter0_d_10222_81331)">
<path d="M45.5332 32.8246C45.5332 30.5837 47.3498 28.7671 49.5907 28.7671H55.2632C56.0326 28.7671 56.6564 29.3909 56.6564 30.1603V35.4888C56.6564 36.2583 56.0326 36.8821 55.2632 36.8821H49.5907C47.3498 36.8821 45.5332 35.0655 45.5332 32.8246Z" fill="#FF9211"/>
</g>
<ellipse cx="49.0466" cy="32.824" rx="1.31247" ry="1.14819" transform="rotate(-90 49.0466 32.824)" fill="#1F2337"/>
<path d="M52.4583 31.3669L50.2683 32.2723C49.7763 32.4757 49.7763 33.1725 50.2683 33.3759L52.4583 34.2814C52.8514 34.4439 53.2836 34.155 53.2836 33.7296V31.9187C53.2836 31.4934 52.8514 31.2044 52.4583 31.3669Z" fill="#1F2337"/>
<path d="M57.2054 28.196L55.9043 28.7909V36.8594L57.2054 36.2831V28.196Z" fill="#D17B14"/>
<g style="mix-blend-mode:lighten">
<path d="M55.5381 29.2966H48.6604C47.741 29.4211 46.2434 30.3003 45.9492 32.8221" stroke="#FFECBC" stroke-width="0.688805" stroke-linecap="round" stroke-linejoin="round"/>
</g>
<path fill-rule="evenodd" clip-rule="evenodd" d="M49.8415 32.2175L49.8953 32.214L49.9694 32.395L51.9495 31.6013L52.6666 31.3049C52.9901 31.1712 53.3452 31.4043 53.3541 31.7514L53.5533 31.9494V31.7647C53.5533 31.2685 53.0492 30.9313 52.5906 31.1209L50.1208 32.142C50.0931 32.1534 50.0668 32.1662 50.0418 32.1802C49.8442 31.7126 49.4254 31.39 48.9407 31.39C48.2708 31.39 47.7268 32.0062 47.7188 32.7697C47.7797 32.7107 47.8549 32.6391 47.9352 32.5634C48.0262 31.9917 48.4603 31.589 48.9407 31.589C49.3168 31.589 49.6645 31.8359 49.8415 32.2175Z" fill="#FFECBC"/>
<defs>
<filter id="filter0_d_10222_81331" x="44.7371" y="28.7671" width="12.7156" height="9.70727" filterUnits="userSpaceOnUse" color-interpolation-filters="sRGB">
<feFlood flood-opacity="0" result="BackgroundImageFix"/>
<feColorMatrix in="SourceAlpha" type="matrix" values="0 0 0 0 0 0 0 0 0 0 0 0 0 0 0 0 0 0 127 0" result="hardAlpha"/>
<feOffset dy="0.796138"/>
<feGaussianBlur stdDeviation="0.398069"/>
<feColorMatrix type="matrix" values="0 0 0 0 0 0 0 0 0 0 0 0 0 0 0 0 0 0 0.5 0"/>
<feBlend mode="normal" in2="BackgroundImageFix" result="effect1_dropShadow_10222_81331"/>
<feBlend mode="normal" in="SourceGraphic" in2="effect1_dropShadow_10222_81331" result="shape"/>
</filter>
<linearGradient id="paint0_linear_10222_81331" x1="7.99547" y1="45.2424" x2="17.8289" y2="44.7713" gradientUnits="userSpaceOnUse">
<stop stop-color="#FF9211"/>
<stop offset="0.53395" stop-color="#FFC581"/>
<stop offset="1" stop-color="#FF9211"/>
</linearGradient>
<linearGradient id="paint1_linear_10222_81331" x1="8.6107" y1="43.737" x2="18.4442" y2="43.266" gradientUnits="userSpaceOnUse">
<stop stop-color="#FF9211"/>
<stop offset="0.53395" stop-color="#FFC581"/>
<stop offset="1" stop-color="#FF9211"/>
</linearGradient>
<linearGradient id="paint2_linear_10222_81331" x1="8.15953" y1="42.2836" x2="17.993" y2="41.8126" gradientUnits="userSpaceOnUse">
<stop stop-color="#FF9211"/>
<stop offset="0.53395" stop-color="#FFC581"/>
<stop offset="1" stop-color="#FF9211"/>
</linearGradient>
<linearGradient id="paint3_linear_10222_81331" x1="8.77281" y1="40.777" x2="18.6063" y2="40.306" gradientUnits="userSpaceOnUse">
<stop stop-color="#FF9211"/>
<stop offset="0.53395" stop-color="#FFC581"/>
<stop offset="1" stop-color="#FF9211"/>
</linearGradient>
<linearGradient id="paint4_linear_10222_81331" x1="12.6309" y1="47.5815" x2="23.5942" y2="47.0563" gradientUnits="userSpaceOnUse">
<stop stop-color="#FF9211"/>
<stop offset="0.53395" stop-color="#FFC581"/>
<stop offset="1" stop-color="#FF9211"/>
</linearGradient>
<linearGradient id="paint5_linear_10222_81331" x1="13.3262" y1="45.905" x2="24.2895" y2="45.3798" gradientUnits="userSpaceOnUse">
<stop stop-color="#FF9211"/>
<stop offset="0.53395" stop-color="#FFC581"/>
<stop offset="1" stop-color="#FF9211"/>
</linearGradient>
<linearGradient id="paint6_linear_10222_81331" x1="12.8126" y1="44.2827" x2="23.7758" y2="43.7575" gradientUnits="userSpaceOnUse">
<stop stop-color="#FF9211"/>
<stop offset="0.53395" stop-color="#FFC581"/>
<stop offset="1" stop-color="#FF9211"/>
</linearGradient>
<linearGradient id="paint7_linear_10222_81331" x1="13.4962" y1="42.6029" x2="24.4594" y2="42.0777" gradientUnits="userSpaceOnUse">
<stop stop-color="#FF9211"/>
<stop offset="0.53395" stop-color="#FFC581"/>
<stop offset="1" stop-color="#FF9211"/>
</linearGradient>
<linearGradient id="paint8_linear_10222_81331" x1="55.1915" y1="47.5814" x2="66.1547" y2="47.0562" gradientUnits="userSpaceOnUse">
<stop stop-color="#FF9211"/>
<stop offset="0.53395" stop-color="#FFC581"/>
<stop offset="1" stop-color="#FF9211"/>
</linearGradient>
<linearGradient id="paint9_linear_10222_81331" x1="55.8751" y1="45.9045" x2="66.8383" y2="45.3793" gradientUnits="userSpaceOnUse">
<stop stop-color="#FF9211"/>
<stop offset="0.53395" stop-color="#FFC581"/>
<stop offset="1" stop-color="#FF9211"/>
</linearGradient>
<linearGradient id="paint10_linear_10222_81331" x1="55.3731" y1="44.2818" x2="66.3364" y2="43.7566" gradientUnits="userSpaceOnUse">
<stop stop-color="#FF9211"/>
<stop offset="0.53395" stop-color="#FFC581"/>
<stop offset="1" stop-color="#FF9211"/>
</linearGradient>
<linearGradient id="paint11_linear_10222_81331" x1="56.0606" y1="42.601" x2="67.0239" y2="42.0759" gradientUnits="userSpaceOnUse">
<stop stop-color="#FF9211"/>
<stop offset="0.53395" stop-color="#FFC581"/>
<stop offset="1" stop-color="#FF9211"/>
</linearGradient>
<linearGradient id="paint12_linear_10222_81331" x1="37.4347" y1="67.1254" x2="37.6204" y2="12.1282" gradientUnits="userSpaceOnUse">
<stop stop-color="#47526A"/>
<stop offset="0.0001" stop-color="#4048FF"/>
<stop offset="1" stop-color="#F52079"/>
</linearGradient>
<radialGradient id="paint13_radial_10222_81331" cx="0" cy="0" r="1" gradientUnits="userSpaceOnUse" gradientTransform="translate(37.4347 16.1815) rotate(90) scale(17.9624 22.5634)">
<stop stop-color="#FFA318"/>
<stop offset="1" stop-color="#FFA318" stop-opacity="0"/>
</radialGradient>
<linearGradient id="paint14_linear_10222_81331" x1="37.6222" y1="13.3094" x2="37.6222" y2="64.4693" gradientUnits="userSpaceOnUse">
<stop stop-color="#F6F6FF"/>
<stop offset="1" stop-color="#F6F6FF" stop-opacity="0"/>
</linearGradient>
</defs>
</svg>
