<svg width="33" height="33" viewBox="0 0 33 33" fill="none" xmlns="http://www.w3.org/2000/svg">
<circle cx="16.3428" cy="16.542" r="16" fill="#47526A"/>
<path d="M12.3512 18.782C14.1444 18.782 15.5969 16.2129 15.5969 14.3015C15.5969 12.39 14.1444 10.8418 12.3512 10.8418C10.558 10.8418 9.10557 12.39 9.10557 14.3015C9.10557 16.2129 10.558 18.782 12.3512 18.782ZM12.3512 18.782C10.1847 18.782 6.92383 19.941 6.92383 22.2417V23.9715H17.6451V22.2417C17.6451 19.941 14.5177 18.782 12.3512 18.782Z" fill="white"/>
<path fill-rule="evenodd" clip-rule="evenodd" d="M23.0777 11.1582C22.5504 11.1582 22.123 11.5857 22.123 12.113V14.3461H19.8894C19.362 14.3461 18.9346 14.7736 18.9346 15.3009C18.9346 15.8283 19.362 16.2557 19.8894 16.2557H22.123V18.4891C22.123 19.0164 22.5504 19.4439 23.0777 19.4439C23.6051 19.4439 24.0325 19.0164 24.0325 18.4891V16.2557H26.2655C26.7928 16.2557 27.2203 15.8283 27.2203 15.3009C27.2203 14.7736 26.7928 14.3461 26.2655 14.3461H24.0325V12.113C24.0325 11.5857 23.6051 11.1582 23.0777 11.1582Z" fill="white"/>
</svg>
