<svg width="20" height="21" viewBox="0 0 20 21" fill="none" xmlns="http://www.w3.org/2000/svg">
<path fill-rule="evenodd" clip-rule="evenodd" d="M6.82008 6.76251L6.61485 11.8846C6.54886 13.5316 5.9337 15.0588 4.92812 16.2647H15.5854C14.5798 15.0588 13.9646 13.5316 13.8986 11.8846L13.6934 6.76251C13.6426 5.48672 12.5918 4.47526 11.3101 4.47526H9.20337C7.9217 4.47526 6.87089 5.48672 6.82008 6.76251ZM18.6949 16.2647C18.7311 16.2841 18.7675 16.303 18.8043 16.3215C18.9363 16.3881 19.0718 16.4494 19.2104 16.5052C19.2597 16.525 19.3094 16.5442 19.3594 16.5626C19.5801 16.6438 19.7371 16.8478 19.7371 17.0828V17.7384C19.7371 18.0291 19.5013 18.2647 19.2104 18.2647H1.30306C1.01217 18.2647 0.776367 18.0291 0.776367 17.7384V17.0828C0.776367 16.8478 0.933393 16.6438 1.15407 16.5626C1.20413 16.5442 1.25379 16.525 1.30306 16.5052C1.44169 16.4494 1.57715 16.3881 1.70922 16.3215C1.74594 16.303 1.7824 16.284 1.8186 16.2647C3.45238 15.3927 4.54016 13.7086 4.61646 11.8045L4.82168 6.68244C4.91529 4.33227 6.84974 2.47526 9.20337 2.47526V1.42263C9.20337 0.841315 9.67503 0.369995 10.2567 0.369995C10.8385 0.369995 11.3101 0.841315 11.3101 1.42263V2.47526C13.6638 2.47526 15.5982 4.33227 15.6918 6.68244L15.897 11.8045C15.9733 13.7086 17.0611 15.3927 18.6949 16.2647ZM12.1318 18.9133H8.15212C8.15212 19.4227 8.34385 19.8872 8.65865 20.239C8.66641 20.2476 8.67425 20.2562 8.68217 20.2647C9.04589 20.6565 9.56507 20.9018 10.142 20.9018C10.7188 20.9018 11.238 20.6565 11.6017 20.2647C11.6097 20.2562 11.6175 20.2476 11.6253 20.239C11.9401 19.8872 12.1318 19.4227 12.1318 18.9133Z" fill="white"/>
</svg>
