<svg width="20" height="21" viewBox="0 0 20 21" fill="none" xmlns="http://www.w3.org/2000/svg">
<path fill-rule="evenodd" clip-rule="evenodd" d="M6.39426 7.03107L6.18904 12.1531L4.19064 12.0731L4.39587 6.951C4.48948 4.60082 6.42392 2.74381 8.77756 2.74381V1.69118C8.77756 1.10987 9.24921 0.63855 9.83094 0.63855C10.4127 0.63855 10.8843 1.10987 10.8843 1.69118V2.74381C13.2379 2.74381 15.1724 4.60082 15.266 6.951L15.4712 12.0731C15.5475 13.9771 16.6353 15.6613 18.2691 16.5333C18.3053 16.5526 18.3417 16.5715 18.3785 16.59C18.5105 16.6566 18.646 16.718 18.7846 16.7738C18.8339 16.7936 18.8836 16.8127 18.9336 16.8311C19.1543 16.9124 19.3113 17.1164 19.3113 17.3514V18.007C19.3113 18.2976 19.0755 18.5333 18.7846 18.5333H0.877243C0.586362 18.5333 0.350555 18.2976 0.350555 18.007V17.3514C0.350555 17.1164 0.507581 16.9124 0.728262 16.8311C0.778315 16.8127 0.827979 16.7936 0.877243 16.7738C1.01588 16.718 1.15134 16.6566 1.28341 16.59C1.32013 16.5715 1.35659 16.5526 1.39279 16.5333C3.02657 15.6613 4.11435 13.9771 4.19064 12.0731L6.18904 12.1531C6.12305 13.8001 5.50789 15.3274 4.50231 16.5333H15.1596C14.154 15.3274 13.5388 13.8001 13.4728 12.1531L13.2676 7.03107C13.2168 5.75528 12.166 4.74381 10.8843 4.74381H8.77756C7.49589 4.74381 6.44508 5.75528 6.39426 7.03107ZM10.3994 20.5333C10.6349 20.4425 10.8432 20.2969 11.0088 20.1122C11.2588 19.8329 11.411 19.4641 11.411 19.0596H8.25087C8.25087 19.4641 8.40312 19.8329 8.65309 20.1122C8.81867 20.2969 9.02696 20.4425 9.26248 20.5333C9.27631 20.5386 9.29023 20.5438 9.30425 20.5487C9.46897 20.6069 9.64623 20.6385 9.83094 20.6385C10.0156 20.6385 10.1929 20.6069 10.3576 20.5487C10.3716 20.5438 10.3856 20.5386 10.3994 20.5333Z" fill="white"/>
</svg>
