<svg width="74" height="74" viewBox="0 0 74 74" fill="none" xmlns="http://www.w3.org/2000/svg">
<circle cx="37" cy="36.531" r="36.5" fill="#4048FF"/>
<path d="M53.8861 23.0634L61.173 15.846C61.4825 15.5396 61.9942 15.59 62.2379 15.9508L63.9189 18.4395C64.1504 18.7823 64.0331 19.2501 63.6672 19.4431L54.6993 24.1719C54.5478 24.2517 54.3722 24.2728 54.2061 24.2312C54.0401 24.1896 53.8952 24.0881 53.7994 23.9462C53.7087 23.812 53.6677 23.6503 53.6835 23.4892C53.6994 23.328 53.771 23.1774 53.8861 23.0634ZM55.0912 29.2614C55.1185 29.3949 55.1941 29.5136 55.3036 29.5948C55.4131 29.6759 55.5486 29.7138 55.6843 29.7011L63.7164 28.9512C63.7938 28.944 63.8687 28.9206 63.9364 28.8825C64.0041 28.8443 64.063 28.7924 64.1092 28.73C64.1555 28.6676 64.1881 28.5961 64.2049 28.5203C64.2217 28.4444 64.2223 28.3659 64.2067 28.2898L63.7275 25.9486C63.658 25.6092 63.2971 25.4165 62.9764 25.5478L55.4235 28.6387C55.3042 28.6875 55.2058 28.7765 55.1451 28.8902C55.0844 29.0039 55.0653 29.1352 55.0912 29.2614ZM49.094 20.7382C49.2077 20.8132 49.3451 20.8437 49.4799 20.8237C49.6147 20.8036 49.7373 20.7346 49.8243 20.6297L54.9736 14.4199C55.0232 14.3601 55.0596 14.2906 55.0805 14.2157C55.1014 14.1409 55.1063 14.0625 55.0949 13.9857C55.0834 13.9089 55.056 13.8353 55.0142 13.7698C54.9725 13.7043 54.9174 13.6483 54.8526 13.6055L52.8584 12.2889C52.5692 12.0981 52.1777 12.217 52.0438 12.5366L48.8887 20.0629C48.8389 20.1818 48.8321 20.3143 48.8696 20.4376C48.9071 20.5609 48.9865 20.6672 49.094 20.7382Z" fill="#FFA318"/>
<path d="M37.0637 58.3653L35.5125 59.2725C34.2515 60.0099 32.6315 59.5855 31.8941 58.3245L27.7811 51.2913C27.0437 50.0303 27.4681 48.4104 28.7291 47.673L30.2804 46.7657C31.5413 46.0283 33.1613 46.4527 33.8987 47.7137L38.0117 54.7469C38.7492 56.0079 38.3247 57.6279 37.0637 58.3653Z" fill="#CE7C00"/>
<path d="M27.5556 51.4623L42.5862 43.2791L32.3112 27.1912L18.7244 37.2852C18.6368 37.3412 14.9645 40.7012 18.9974 47.0159C23.0304 53.3305 27.5556 51.4623 27.5556 51.4623Z" fill="#FFA318"/>
<path d="M51.0505 26.5789C55.5463 33.618 58.27 41.2438 56.3892 42.445C54.5083 43.6462 48.7352 37.9682 44.2394 30.9289C39.7436 23.8897 37.02 16.2641 38.9008 15.0628C40.7815 13.8615 46.5548 19.5397 51.0505 26.5789Z" fill="#1F2337"/>
<path d="M48.9326 36.3451C50.4907 35.3499 50.0443 31.8666 47.9355 28.5649C45.8267 25.2632 42.854 23.3935 41.2959 24.3887C39.7377 25.3839 40.1841 28.8672 42.293 32.1689C44.4018 35.4705 47.3745 37.3403 48.9326 36.3451Z" fill="#ADADC8"/>
<path d="M56.3056 42.498C54.6627 43.5473 49.0825 37.746 44.5867 30.7068C40.091 23.6675 37.1743 16.1651 38.8172 15.1158C38.9118 15.0554 39.0179 15.0155 39.1339 14.9935C38.3588 14.9757 37.5995 15.3799 37.1502 16.2392C35.17 20.026 30.1165 28.4276 30.1165 28.4276C30.1165 28.4276 27.6089 31.8041 32.0171 38.7062C36.4254 45.6082 40.6813 44.7445 40.6813 44.7445C40.6813 44.7445 50.3494 43.7568 54.5973 43.554C55.603 43.5059 56.3034 42.9475 56.5944 42.1942C56.5172 42.3213 56.4216 42.4239 56.3056 42.498Z" fill="#F6F6FF"/>
<path d="M21.0057 41.7103C20.7759 41.7106 20.5498 41.6529 20.3483 41.5425C20.1467 41.4322 19.9763 41.2728 19.8527 41.0791C19.4465 40.443 19.6328 39.5981 20.2689 39.1918L25.8878 35.6032C26.5238 35.197 27.3689 35.3832 27.7751 36.0193C28.1814 36.6554 27.9951 37.5004 27.359 37.9066L21.74 41.4953C21.5209 41.6357 21.266 41.7103 21.0057 41.7103Z" fill="#FFE7C2"/>
</svg>
