<svg width="74" height="74" viewBox="0 0 74 74" fill="none" xmlns="http://www.w3.org/2000/svg">
<circle cx="37" cy="37" r="36.5" fill="white"/>
<path d="M58.6821 19.4644L43.525 27.9699L35.4817 37.7457V66.4392L58.6821 53.4047V19.4644Z" fill="#FF7AA2"/>
<path d="M17.1162 27.4426L26.2942 32.5951L35.4722 37.7475V66.4414L17.1162 56.1365V27.4426Z" fill="#D30033"/>
<rect width="17.5767" height="21.19" transform="matrix(0.871806 -0.489852 0.871806 0.489852 24.8845 17.6912)" fill="#FFD0D0"/>
<path d="M31.7541 21.6323L36.4957 12.8437L40.1002 14.869L35.4439 23.6393L31.7541 21.6323Z" fill="#FF406E"/>
<path d="M17.1128 27.4274L24.9101 17.6255L43.3946 28.0974L35.5906 38.2606L17.1128 27.4274Z" fill="#FF406E"/>
<ellipse cx="3.40208" cy="3.40208" rx="3.40208" ry="3.40208" transform="matrix(0.984651 -0.232066 -0.285909 0.945972 26.3975 24.428)" fill="#D30033"/>
<rect width="8.24429" height="3.90791" transform="matrix(0.733302 -0.679903 0.699476 0.714656 22.9958 26.8882)" fill="#D30033"/>
<ellipse cx="3.40208" cy="3.40208" rx="3.40208" ry="3.40208" transform="matrix(0.984651 -0.232066 -0.285909 0.945972 23.6636 21.6348)" fill="#FFD0D0"/>
<ellipse cx="2.31451" cy="2.31451" rx="2.31451" ry="2.31451" transform="matrix(0.984651 -0.232066 -0.285909 0.945972 23.5278 21.6809)" fill="#D30033"/>
<path d="M46.2092 14.8379V9.69341L48.0517 8.65527V16.2564L46.2092 14.8379Z" fill="#D30033"/>
<path d="M36.5518 12.9175L46.5605 7.29376L50.165 9.3191L40.1563 14.9428L36.5518 12.9175Z" fill="#FFD0D0"/>
<path d="M48.0437 12.5261L41.0513 16.5413L38.014 22.3446L35.4446 23.6342L39.9996 15.0041L50.0888 9.27856V15.0062L48.0437 16.2747V12.5261Z" fill="#FF7AA2"/>
</svg>
