<svg width="19" height="21" viewBox="0 0 19 21" fill="none" xmlns="http://www.w3.org/2000/svg">
<path fill-rule="evenodd" clip-rule="evenodd" d="M6.08176 7.03107L5.87654 12.1531L3.87814 12.0731L4.08337 6.951C4.17698 4.60082 6.11142 2.74381 8.46506 2.74381V1.69118C8.46506 1.10987 8.93671 0.63855 9.51844 0.63855C10.1002 0.63855 10.5718 1.10987 10.5718 1.69118V2.74381C12.9254 2.74381 14.8599 4.60082 14.9535 6.951L15.1587 12.0731C15.235 13.9771 16.3228 15.6613 17.9566 16.5333C17.9928 16.5526 18.0292 16.5715 18.066 16.59C18.198 16.6566 18.3335 16.718 18.4721 16.7738C18.5214 16.7936 18.5711 16.8127 18.6211 16.8311C18.8418 16.9124 18.9988 17.1164 18.9988 17.3514V18.007C18.9988 18.2976 18.763 18.5333 18.4721 18.5333H0.564743C0.273862 18.5333 0.0380554 18.2976 0.0380554 18.007V17.3514C0.0380554 17.1164 0.195081 16.9124 0.415762 16.8311C0.465815 16.8127 0.515479 16.7936 0.564743 16.7738C0.703375 16.718 0.838843 16.6566 0.970911 16.59C1.00763 16.5715 1.04409 16.5526 1.08029 16.5333C2.71407 15.6613 3.80185 13.9771 3.87814 12.0731L5.87654 12.1531C5.81055 13.8001 5.19539 15.3274 4.18981 16.5333H14.8471C13.8415 15.3274 13.2263 13.8001 13.1603 12.1531L12.9551 7.03107C12.9043 5.75528 11.8535 4.74381 10.5718 4.74381H8.46506C7.18339 4.74381 6.13258 5.75528 6.08176 7.03107ZM10.0869 20.5333C10.3224 20.4425 10.5307 20.2969 10.6963 20.1122C10.9463 19.8329 11.0985 19.4641 11.0985 19.0596H7.93837C7.93837 19.4641 8.09062 19.8329 8.34059 20.1122C8.50617 20.2969 8.71446 20.4425 8.94998 20.5333C8.96381 20.5386 8.97773 20.5438 8.99175 20.5487C9.15647 20.6069 9.33373 20.6385 9.51844 20.6385C9.70315 20.6385 9.8804 20.6069 10.0451 20.5487C10.0591 20.5438 10.0731 20.5386 10.0869 20.5333Z" fill="white"/>
<path fill-rule="evenodd" clip-rule="evenodd" d="M17.75 8.42825C17.75 10.4252 16.1312 12.044 14.1342 12.044C12.1373 12.044 10.5185 10.4252 10.5185 8.42825C10.5185 6.43133 12.1373 4.8125 14.1342 4.8125C16.1312 4.8125 17.75 6.43133 17.75 8.42825ZM14.1342 10.4714C15.2627 10.4714 16.1774 9.55666 16.1774 8.42825C16.1774 7.29985 15.2627 6.38509 14.1342 6.38509C13.0058 6.38509 12.0911 7.29985 12.0911 8.42825C12.0911 9.55666 13.0058 10.4714 14.1342 10.4714Z" fill="white"/>
<path d="M16.1774 8.42829C16.1774 9.5567 15.2627 10.4715 14.1343 10.4715C13.0058 10.4715 12.0911 9.5567 12.0911 8.42829C12.0911 7.29989 13.0058 6.38513 14.1343 6.38513C15.2627 6.38513 16.1774 7.29989 16.1774 8.42829Z" fill="#F52079"/>
</svg>
