<svg width="45" height="45" viewBox="0 0 45 45" fill="none" xmlns="http://www.w3.org/2000/svg">
<rect x="0.400391" y="0.796509" width="44.1498" height="44.1498" rx="22.0749" fill="#F7931A"/>
<path d="M28.4169 24.6934C29.9837 24.4397 31.2344 23.4928 31.6915 21.396C32.3292 18.5297 30.345 16.8604 27.4028 15.6241L28.6455 11.7722L26.2916 11.0128L25.0834 14.7575C24.4718 14.5602 23.8405 14.3737 23.2086 14.1861L24.4265 10.4111L22.0726 9.6516L20.8298 13.5035C19.9559 13.2507 18.952 12.9122 16.1071 11.9798L15.2983 14.4867C17.1669 15.0536 18.181 15.2488 18.0202 16.5122L14.6176 27.059C14.1705 27.9585 13.4576 27.5785 11.783 27.0057L10.4071 29.6501C14.6991 31.0348 15.1256 31.1895 15.1256 31.1895L14.0614 34.488L16.4154 35.2475L17.4648 31.9947C18.1016 32.2173 18.728 32.4194 19.3248 32.612L18.2801 35.85L20.6341 36.6094L21.6983 33.3109C25.7109 34.3689 28.6679 34.2261 30.2179 30.625C31.4542 27.7334 30.4778 25.9496 28.4182 24.6947L28.4169 24.6934ZM22.3665 16.953C23.696 17.3819 27.9869 18.3104 27.0942 21.0773C26.2411 23.7216 22.1821 22.0744 20.8526 21.6455L22.3665 16.953ZM18.4265 29.1653L20.0934 23.9987C21.6829 24.5115 26.6937 25.6388 25.7174 28.6649C24.7754 31.5847 20.0162 29.6773 18.4267 29.1645L18.4265 29.1653Z" fill="white"/>
</svg>
