<svg width="45" height="45" viewBox="0 0 45 45" fill="none" xmlns="http://www.w3.org/2000/svg">
<g clip-path="url(#clip0_10222_81202)">
<path d="M22.2858 0.796509C10.0941 0.796509 0.210938 10.6797 0.210938 22.8714C0.210938 35.0631 10.0941 44.9463 22.2858 44.9463C34.4776 44.9463 44.3607 35.0631 44.3607 22.8714C44.3607 10.6797 34.4776 0.796509 22.2858 0.796509Z" fill="#40B3E0"/>
<path d="M33.0269 13.4946L29.0839 33.3739C29.0839 33.3739 28.5326 34.7526 27.0161 34.0909L17.9175 27.1152L14.609 25.5161L9.03956 23.6412C9.03956 23.6412 8.18485 23.338 8.10207 22.6762C8.01929 22.0145 9.06716 21.6561 9.06716 21.6561L31.2069 12.971C31.2069 12.971 33.0267 12.1715 33.0267 13.495" fill="white"/>
<path d="M17.2187 33.1502C17.2187 33.1502 16.9531 33.1254 16.622 32.0775C16.2914 31.0298 14.6094 25.5156 14.6094 25.5156L27.9816 17.0236C27.9816 17.0236 28.7537 16.5549 28.7261 17.0236C28.7261 17.0236 28.8639 17.1064 28.4502 17.4924C28.0368 17.8785 17.9456 26.9494 17.9456 26.9494" fill="#D2E5F1"/>
<path d="M21.4066 29.7897L17.8079 33.071C17.8079 33.071 17.5264 33.2845 17.2188 33.1507L17.9079 27.0559" fill="#B5CFE4"/>
</g>
<defs>
<clipPath id="clip0_10222_81202">
<rect width="44.1498" height="44.1498" fill="white" transform="translate(0.210938 0.796509)"/>
</clipPath>
</defs>
</svg>
