<svg width="53" height="27" viewBox="0 0 53 27" fill="none" xmlns="http://www.w3.org/2000/svg">
<path d="M12.2527 15.9386C13.6585 15.9386 14.7982 14.799 14.7982 13.3932C14.7982 11.9874 13.6585 10.8477 12.2527 10.8477C10.8469 10.8477 9.70728 11.9874 9.70728 13.3932C9.70728 14.799 10.8469 15.9386 12.2527 15.9386Z" fill="#75758F"/>
<path d="M21.7573 13.1762C21.0088 11.2402 19.7095 9.56588 18.0198 8.36027C16.3301 7.15466 14.3242 6.47058 12.25 6.39258C10.1758 6.47058 8.1699 7.15466 6.48024 8.36027C4.79057 9.56588 3.49121 11.2402 2.74275 13.1762C2.6922 13.316 2.6922 13.4691 2.74275 13.6089C3.49121 15.545 4.79057 17.2193 6.48024 18.4249C8.1699 19.6305 10.1758 20.3146 12.25 20.3926C14.3242 20.3146 16.3301 19.6305 18.0198 18.4249C19.7095 17.2193 21.0088 15.545 21.7573 13.6089C21.8078 13.4691 21.8078 13.316 21.7573 13.1762ZM12.25 17.5289C11.4319 17.5289 10.6322 17.2863 9.95198 16.8318C9.27176 16.3773 8.74159 15.7313 8.42852 14.9755C8.11544 14.2197 8.03353 13.388 8.19313 12.5856C8.35274 11.7832 8.74669 11.0462 9.32517 10.4677C9.90365 9.88925 10.6407 9.4953 11.4431 9.33569C12.2454 9.17609 13.0771 9.25801 13.8329 9.57108C14.5888 9.88415 15.2348 10.4143 15.6893 11.0945C16.1438 11.7748 16.3864 12.5745 16.3864 13.3926C16.3847 14.4891 15.9484 15.5402 15.173 16.3156C14.3977 17.0909 13.3465 17.5273 12.25 17.5289Z" fill="#75758F"/>
<path d="M28.79 17.2726V16.0246C30.77 14.3446 32.846 12.7966 32.846 11.1886C32.846 10.4086 32.498 9.88058 31.67 9.88058C30.866 9.88058 30.422 10.4566 30.41 11.3806H28.778C28.838 9.37658 30.122 8.45258 31.694 8.45258C33.578 8.45258 34.526 9.56858 34.526 11.0926C34.526 13.1206 32.57 14.7046 31.178 15.8806H34.718V17.2726H28.79ZM36.8326 8.62058H42.2566V10.0966H38.3686V12.1486C38.6926 11.7526 39.3526 11.4406 40.0846 11.4406C42.1246 11.4406 42.8206 12.9766 42.8206 14.3326C42.8206 16.1206 41.7886 17.3926 39.7966 17.3926C37.9126 17.3926 36.8326 16.3486 36.6886 14.9206H38.3206C38.4646 15.5326 38.9566 15.9766 39.7726 15.9766C40.7566 15.9766 41.2006 15.2806 41.2006 14.3566C41.2006 13.3726 40.7086 12.8326 39.7606 12.8326C39.0646 12.8326 38.6206 13.2166 38.4406 13.7566H36.8326V8.62058ZM49.6193 17.3926L46.5713 13.6606V17.3926H44.8913V9.01658H46.5713V12.7726L49.6193 9.01658H51.6473L48.1913 13.1686L51.7433 17.3926H49.6193Z" fill="#75758F"/>
</svg>
