<svg width="27" height="28" viewBox="0 0 27 28" fill="none" xmlns="http://www.w3.org/2000/svg">
<path d="M14.8235 0H11.5294V16.4706H14.8235V0ZM20.6871 4.01882L18.2988 6.40706C21.1482 8.13647 23.0588 11.2494 23.0588 14.8235C23.0588 20.2753 18.6282 24.7059 13.1765 24.7059C7.72471 24.7059 3.29412 20.2753 3.29412 14.8235C3.29412 11.2494 5.20471 8.13647 8.03765 6.39059L5.66588 4.01882C2.24 6.39059 0 10.3435 0 14.8235C0 22.1035 5.89647 28 13.1765 28C20.4565 28 26.3529 22.1035 26.3529 14.8235C26.3529 10.3435 24.1129 6.39059 20.6871 4.01882Z" fill="url(#paint0_linear_12313_17368)"/>
<defs>
<linearGradient id="paint0_linear_12313_17368" x1="13.1765" y1="0" x2="13.1765" y2="28" gradientUnits="userSpaceOnUse">
<stop stop-color="#00CC9E"/>
<stop offset="1" stop-color="#09B191"/>
</linearGradient>
</defs>
</svg>
