<svg width="58" height="50" viewBox="0 0 58 50" fill="none" xmlns="http://www.w3.org/2000/svg">
<rect y="2" width="48" height="48" rx="24" fill="url(#paint0_linear_10466_9219)"/>
<path fill-rule="evenodd" clip-rule="evenodd" d="M23.6698 14.9996C20.6821 14.9996 20.3072 15.0127 19.1338 15.0661C17.9626 15.1197 17.1632 15.3051 16.4637 15.5772C15.7402 15.8582 15.1264 16.234 14.515 16.8457C13.903 17.4572 13.5272 18.071 13.2453 18.7943C12.9725 19.494 12.7869 20.2936 12.7342 21.4643C12.6817 22.6377 12.6679 23.0129 12.6679 26.0006C12.6679 28.9883 12.6812 29.3621 12.7344 30.5355C12.7883 31.7067 12.9737 32.5061 13.2455 33.2056C13.5267 33.9291 13.9026 34.5429 14.5143 35.1543C15.1255 35.7663 15.7393 36.1431 16.4624 36.424C17.1623 36.6961 17.9619 36.8815 19.1328 36.9351C20.3063 36.9885 20.681 37.0016 23.6685 37.0016C26.6564 37.0016 27.0302 36.9885 28.2036 36.9351C29.3748 36.8815 30.1751 36.6961 30.875 36.424C31.5983 36.1431 32.2112 35.7663 32.8224 35.1543C33.4343 34.5429 33.8102 33.9291 34.0921 33.2058C34.3626 32.5061 34.5482 31.7064 34.6032 30.5358C34.6559 29.3623 34.6697 28.9883 34.6697 26.0006C34.6697 23.0129 34.6559 22.638 34.6032 21.4645C34.5482 20.2934 34.3626 19.494 34.0921 18.7945C33.8102 18.071 33.4343 17.4572 32.8224 16.8457C32.2105 16.2338 31.5986 15.8579 30.8743 15.5772C30.173 15.3051 29.3731 15.1197 28.202 15.0661C27.0286 15.0127 26.655 14.9996 23.6664 14.9996H23.6698ZM22.6817 16.9836C22.9746 16.9831 23.3014 16.9836 23.6686 16.9836C26.6058 16.9836 26.954 16.9941 28.1139 17.0469C29.1865 17.0959 29.7686 17.2751 30.1564 17.4257C30.6698 17.6251 31.0358 17.8634 31.4206 18.2485C31.8056 18.6335 32.044 19.0002 32.2438 19.5136C32.3944 19.9009 32.5738 20.4831 32.6227 21.5556C32.6754 22.7153 32.6868 23.0637 32.6868 25.9996C32.6868 28.9355 32.6754 29.2838 32.6227 30.4435C32.5736 31.5161 32.3944 32.0982 32.2438 32.4856C32.0444 32.999 31.8056 33.3645 31.4206 33.7493C31.0355 34.1343 30.67 34.3727 30.1564 34.5721C29.7691 34.7234 29.1865 34.9021 28.1139 34.9512C26.9542 35.0039 26.6058 35.0153 23.6686 35.0153C20.7311 35.0153 20.3829 35.0039 19.2232 34.9512C18.1507 34.9017 17.5685 34.7224 17.1805 34.5719C16.6671 34.3725 16.3004 34.1341 15.9154 33.7491C15.5304 33.364 15.292 32.9983 15.0922 32.4847C14.9416 32.0973 14.7621 31.5152 14.7133 30.4426C14.6606 29.2829 14.65 28.9346 14.65 25.9968C14.65 23.0591 14.6606 22.7126 14.7133 21.5529C14.7624 20.4803 14.9416 19.8982 15.0922 19.5104C15.2915 18.997 15.5304 18.6303 15.9154 18.2453C16.3004 17.8602 16.6671 17.6219 17.1805 17.422C17.5683 17.2708 18.1507 17.092 19.2232 17.0427C20.2381 16.9969 20.6314 16.9831 22.6817 16.9808V16.9836ZM29.5446 18.8082C28.8158 18.8082 28.2245 19.3988 28.2245 20.1278C28.2245 20.8567 28.8158 21.448 29.5446 21.448C30.2735 21.448 30.8648 20.8567 30.8648 20.1278C30.8648 19.399 30.2735 18.8077 29.5446 18.8077V18.8082ZM23.6728 20.3527C20.5529 20.3527 18.0233 22.8822 18.0233 26.0022C18.0233 29.1221 20.5529 31.6505 23.6728 31.6505C26.7927 31.6505 29.3213 29.1221 29.3213 26.0022C29.3213 22.8822 26.7925 20.3527 23.6726 20.3527H23.6728ZM23.6708 22.3332C25.6959 22.3332 27.3377 23.9748 27.3377 26.0002C27.3377 28.0253 25.6959 29.6672 23.6708 29.6672C21.6454 29.6672 20.0038 28.0253 20.0038 26.0002C20.0038 23.9748 21.6454 22.3332 23.6708 22.3332Z" fill="white"/>
<circle cx="45.6" cy="11.6" r="10.6" fill="#F52079" stroke="white" stroke-width="2"/>
<path d="M50.6829 7.44998C50.927 7.2059 50.927 6.81017 50.6829 6.56609L50.4338 6.31694C50.1897 6.07286 49.7939 6.07286 49.5499 6.31694L45.4998 10.367L41.4498 6.31694C41.2057 6.07286 40.81 6.07286 40.5659 6.31694L40.3168 6.56609C40.0727 6.81017 40.0727 7.2059 40.3168 7.44998L44.3668 11.5L40.3168 15.55C40.0727 15.7941 40.0727 16.1898 40.3168 16.4339L40.5659 16.6831C40.81 16.9271 41.2057 16.9271 41.4498 16.6831L45.4998 12.633L49.5499 16.6831C49.7939 16.9271 50.1897 16.9271 50.4338 16.6831L50.6829 16.4339C50.927 16.1898 50.927 15.7941 50.6829 15.55L46.6329 11.5L50.6829 7.44998Z" fill="white"/>
<defs>
<linearGradient id="paint0_linear_10466_9219" x1="24" y1="72.1275" x2="24" y2="-19.6766" gradientUnits="userSpaceOnUse">
<stop stop-color="#E09B3D"/>
<stop offset="0.3" stop-color="#C74C4D"/>
<stop offset="0.6" stop-color="#C21975"/>
<stop offset="1" stop-color="#7024C4"/>
</linearGradient>
</defs>
</svg>
