<svg width="58" height="50" viewBox="0 0 58 50" fill="none" xmlns="http://www.w3.org/2000/svg">
<circle cx="24" cy="26" r="24" fill="#0E76A8"/>
<path d="M10.9886 15.9015C10.9886 15.0572 11.2811 14.3606 11.866 13.8118C12.451 13.2629 13.2115 12.9885 14.1474 12.9885C15.0667 12.9885 15.8104 13.2587 16.3787 13.7991C16.9637 14.3564 17.2562 15.0825 17.2562 15.9775C17.2562 16.7881 16.972 17.4636 16.4038 18.004C15.8188 18.5613 15.05 18.8399 14.0973 18.8399H14.0722C13.153 18.8399 12.4092 18.5613 11.8409 18.004C11.2727 17.4467 10.9886 16.7459 10.9886 15.9015ZM11.3145 38.0659V21.145H16.8801V38.0659H11.3145ZM19.9638 38.0659H25.5294V28.6175C25.5294 28.0265 25.5963 27.5705 25.73 27.2497C25.9639 26.6755 26.3191 26.19 26.7954 25.7932C27.2718 25.3963 27.8693 25.1979 28.588 25.1979C30.4599 25.1979 31.3959 26.4729 31.3959 29.0228V38.0659H36.9615V28.3642C36.9615 25.8649 36.3765 23.9694 35.2066 22.6775C34.0366 21.3856 32.4906 20.7397 30.5685 20.7397C28.4125 20.7397 26.7328 21.6769 25.5294 23.5514V23.6021H25.5043L25.5294 23.5514V21.145H19.9638C19.9972 21.6854 20.0139 23.3656 20.0139 26.1858C20.0139 29.0059 19.9972 32.9659 19.9638 38.0659Z" fill="white"/>
<circle cx="45.6" cy="11.6" r="10.6" fill="#F52079" stroke="white" stroke-width="2"/>
<path d="M50.6829 7.44998C50.927 7.2059 50.927 6.81017 50.6829 6.56609L50.4338 6.31694C50.1897 6.07286 49.7939 6.07286 49.5499 6.31694L45.4998 10.367L41.4498 6.31694C41.2057 6.07286 40.81 6.07286 40.5659 6.31694L40.3168 6.56609C40.0727 6.81017 40.0727 7.2059 40.3168 7.44998L44.3668 11.5L40.3168 15.55C40.0727 15.7941 40.0727 16.1898 40.3168 16.4339L40.5659 16.6831C40.81 16.9271 41.2057 16.9271 41.4498 16.6831L45.4998 12.633L49.5499 16.6831C49.7939 16.9271 50.1897 16.9271 50.4338 16.6831L50.6829 16.4339C50.927 16.1898 50.927 15.7941 50.6829 15.55L46.6329 11.5L50.6829 7.44998Z" fill="white"/>
</svg>
