<svg width="58" height="50" viewBox="0 0 58 50" fill="none" xmlns="http://www.w3.org/2000/svg">
<circle cx="24" cy="26" r="24" fill="black"/>
<path d="M24.2182 12.3429C25.6604 12.3207 27.0944 12.3338 28.5267 12.3207C28.6134 13.9977 29.2201 15.706 30.4548 16.8916C31.6871 18.1069 33.4301 18.6631 35.1261 18.8513V23.2628C33.5367 23.2111 31.94 22.8824 30.4978 22.2021C29.8697 21.9194 29.2845 21.5554 28.7118 21.1832C28.7043 24.3844 28.725 27.5815 28.6911 30.7696C28.6052 32.3012 28.0969 33.8254 27.201 35.0875C25.7596 37.1885 23.2579 38.5582 20.6884 38.6009C19.1123 38.6905 17.5379 38.2632 16.1948 37.4761C13.9691 36.1713 12.403 33.7827 12.1749 31.2191C12.1461 30.6761 12.1417 30.1322 12.1616 29.5889C12.36 27.5043 13.3972 25.5101 15.0072 24.1535C16.8321 22.5735 19.3883 21.8208 21.7818 22.2662C21.8041 23.889 21.7388 25.5101 21.7388 27.1329C20.6454 26.7812 19.3677 26.8798 18.4123 27.5396C17.7133 27.9974 17.185 28.671 16.9089 29.4566C16.6808 30.012 16.7461 30.6291 16.7593 31.2191C17.0213 33.0169 18.7602 34.5279 20.6165 34.3644C21.8471 34.3513 23.0265 33.6413 23.6678 32.6019C23.8753 32.2379 24.1075 31.8657 24.1199 31.4376C24.2282 29.4779 24.1852 27.5265 24.1984 25.5668C24.2075 21.1503 24.1852 16.7462 24.2191 12.3437L24.2182 12.3429Z" fill="#17FFFF"/>
<g filter="url(#filter0_d_10466_9194)">
<path d="M24.943 13.4095C26.3852 13.3873 27.8192 13.4005 29.2514 13.3873C29.3382 15.0644 29.9449 16.7726 31.1796 17.9583C32.4119 19.1735 34.1549 19.7298 35.8508 19.918V24.3295C34.2615 24.2777 32.6648 23.9491 31.2226 23.2687C30.5945 22.9861 30.0093 22.6221 29.4366 22.2498C29.4291 25.4511 29.4498 28.6482 29.4159 31.8363C29.33 33.3678 28.8217 34.892 27.9258 36.1541C26.4844 38.2551 23.9827 39.6249 21.4132 39.6676C19.8371 39.7571 18.2627 39.3299 16.9196 38.5427C14.6939 37.2379 13.1278 34.8493 12.8997 32.2857C12.8709 31.7428 12.8665 31.1988 12.8864 30.6555C13.0848 28.5709 14.122 26.5768 15.732 25.2202C17.5568 23.6401 20.1131 22.8875 22.5066 23.3328C22.5289 24.9556 22.4636 26.5768 22.4636 28.1996C21.3702 27.8479 20.0925 27.9465 19.1371 28.6063C18.4381 29.0641 17.9098 29.7376 17.6337 30.5232C17.4056 31.0787 17.4709 31.6958 17.4841 32.2857C17.7461 34.0835 19.485 35.5946 21.3413 35.4311C22.5719 35.4179 23.7513 34.708 24.3926 33.6686C24.6001 33.3046 24.8323 32.9324 24.8447 32.5043C24.953 30.5446 24.91 28.5931 24.9232 26.6335C24.9323 22.217 24.91 17.8128 24.9439 13.4103L24.943 13.4095Z" fill="white"/>
</g>
<circle cx="45.6" cy="11.6" r="10.6" fill="#F52079" stroke="white" stroke-width="2"/>
<path d="M50.6829 7.44998C50.927 7.2059 50.927 6.81017 50.6829 6.56609L50.4338 6.31694C50.1897 6.07286 49.7939 6.07286 49.5499 6.31694L45.4998 10.367L41.4498 6.31694C41.2057 6.07286 40.81 6.07286 40.5659 6.31694L40.3168 6.56609C40.0727 6.81017 40.0727 7.2059 40.3168 7.44998L44.3668 11.5L40.3168 15.55C40.0727 15.7941 40.0727 16.1898 40.3168 16.4339L40.5659 16.6831C40.81 16.9271 41.2057 16.9271 41.4498 16.6831L45.4998 12.633L49.5499 16.6831C49.7939 16.9271 50.1897 16.9271 50.4338 16.6831L50.6829 16.4339C50.927 16.1898 50.927 15.7941 50.6829 15.55L46.6329 11.5L50.6829 7.44998Z" fill="white"/>
<defs>
<filter id="filter0_d_10466_9194" x="12.8742" y="13.3873" width="23.7906" height="27.2077" filterUnits="userSpaceOnUse" color-interpolation-filters="sRGB">
<feFlood flood-opacity="0" result="BackgroundImageFix"/>
<feColorMatrix in="SourceAlpha" type="matrix" values="0 0 0 0 0 0 0 0 0 0 0 0 0 0 0 0 0 0 127 0" result="hardAlpha"/>
<feOffset dx="0.813967" dy="0.915713"/>
<feColorMatrix type="matrix" values="0 0 0 0 1 0 0 0 0 0 0 0 0 0 0.290196 0 0 0 1 0"/>
<feBlend mode="normal" in2="BackgroundImageFix" result="effect1_dropShadow_10466_9194"/>
<feBlend mode="normal" in="SourceGraphic" in2="effect1_dropShadow_10466_9194" result="shape"/>
</filter>
</defs>
</svg>
