<svg width="58" height="50" viewBox="0 0 58 50" fill="none" xmlns="http://www.w3.org/2000/svg">
<rect y="2" width="48" height="48" rx="24" fill="#1967FF"/>
<path fill-rule="evenodd" clip-rule="evenodd" d="M26.0174 35.8772V25.8131H28.7955L29.1637 22.3449H26.0174L26.0221 20.6091C26.0221 19.7045 26.1081 19.2199 27.4073 19.2199H29.144V15.7513H26.3655C23.028 15.7513 21.8533 17.4337 21.8533 20.2631V22.3453H19.773V25.8135H21.8533V35.8772H26.0174Z" fill="white"/>
<circle cx="45.6" cy="11.6" r="10.6" fill="#F52079" stroke="white" stroke-width="2"/>
<path d="M50.6829 7.44998C50.927 7.2059 50.927 6.81017 50.6829 6.56609L50.4338 6.31694C50.1897 6.07286 49.7939 6.07286 49.5499 6.31694L45.4998 10.367L41.4498 6.31694C41.2057 6.07286 40.81 6.07286 40.5659 6.31694L40.3168 6.56609C40.0727 6.81017 40.0727 7.2059 40.3168 7.44998L44.3668 11.5L40.3168 15.55C40.0727 15.7941 40.0727 16.1898 40.3168 16.4339L40.5659 16.6831C40.81 16.9271 41.2057 16.9271 41.4498 16.6831L45.4998 12.633L49.5499 16.6831C49.7939 16.9271 50.1897 16.9271 50.4338 16.6831L50.6829 16.4339C50.927 16.1898 50.927 15.7941 50.6829 15.55L46.6329 11.5L50.6829 7.44998Z" fill="white"/>
</svg>
