<svg width="58" height="50" viewBox="0 0 58 50" fill="none" xmlns="http://www.w3.org/2000/svg">
<rect y="2" width="48" height="48" rx="24" fill="#FF0000"/>
<path fill-rule="evenodd" clip-rule="evenodd" d="M34.8487 20.4075C34.5884 19.4076 33.8215 18.6203 32.8477 18.353C31.0829 17.8674 24.0057 17.8674 24.0057 17.8674C24.0057 17.8674 16.9284 17.8674 15.1635 18.353C14.1897 18.6203 13.4228 19.4076 13.1626 20.4075C12.6897 22.2197 12.6897 26.0007 12.6897 26.0007C12.6897 26.0007 12.6897 29.7817 13.1626 31.594C13.4228 32.5939 14.1897 33.3812 15.1635 33.6486C16.9284 34.1341 24.0057 34.1341 24.0057 34.1341C24.0057 34.1341 31.0829 34.1341 32.8477 33.6486C33.8215 33.3812 34.5884 32.5939 34.8487 31.594C35.3216 29.7817 35.3216 26.0007 35.3216 26.0007C35.3216 26.0007 35.3216 22.2197 34.8487 20.4075Z" fill="white"/>
<path fill-rule="evenodd" clip-rule="evenodd" d="M21.885 29.8891V22.8167L27.543 26.353L21.885 29.8891Z" fill="#FF0000"/>
<circle cx="45.6" cy="11.6" r="10.6" fill="#F52079" stroke="white" stroke-width="2"/>
<path d="M50.6829 7.44998C50.927 7.2059 50.927 6.81017 50.6829 6.56609L50.4338 6.31694C50.1897 6.07286 49.7939 6.07286 49.5499 6.31694L45.4998 10.367L41.4498 6.31694C41.2057 6.07286 40.81 6.07286 40.5659 6.31694L40.3168 6.56609C40.0727 6.81017 40.0727 7.2059 40.3168 7.44998L44.3668 11.5L40.3168 15.55C40.0727 15.7941 40.0727 16.1898 40.3168 16.4339L40.5659 16.6831C40.81 16.9271 41.2057 16.9271 41.4498 16.6831L45.4998 12.633L49.5499 16.6831C49.7939 16.9271 50.1897 16.9271 50.4338 16.6831L50.6829 16.4339C50.927 16.1898 50.927 15.7941 50.6829 15.55L46.6329 11.5L50.6829 7.44998Z" fill="white"/>
</svg>
