<svg width="53" height="53" viewBox="0 0 53 53" fill="none" xmlns="http://www.w3.org/2000/svg">
<g filter="url(#filter0_d)">
<rect x="2.50293" y="0.538086" width="48" height="48" rx="24" fill="white"/>
</g>
<path fill-rule="evenodd" clip-rule="evenodd" d="M22.0029 28.7923H31.0029C31.3013 28.7923 31.5874 28.9043 31.7984 29.1038C32.0094 29.3033 32.1279 29.5738 32.1279 29.8559C32.1279 30.138 32.0094 30.4085 31.7984 30.608C31.5874 30.8075 31.3013 30.9195 31.0029 30.9195H20.8779C20.5796 30.9195 20.2934 30.8075 20.0824 30.608C19.8715 30.4085 19.7529 30.138 19.7529 29.8559V16.0286H18.6279C18.3296 16.0286 18.0434 15.9166 17.8324 15.7171C17.6215 15.5176 17.5029 15.2471 17.5029 14.965C17.5029 14.6829 17.6215 14.4124 17.8324 14.2129C18.0434 14.0134 18.3296 13.9014 18.6279 13.9014H20.8779C21.1763 13.9014 21.4624 14.0134 21.6734 14.2129C21.8844 14.4124 22.0029 14.6829 22.0029 14.965V24.5377H31.8748L33.2529 19.2195V17.0933C34.5411 17.0933 35.5029 18.0442 35.5029 19.2195C35.5029 19.3748 35.4838 19.5291 35.4467 19.6812L34.1518 24.9993C33.9156 25.9726 32.9683 26.665 31.8748 26.665H22.0851L22.0029 26.6639V28.7923ZM21.4404 35.1741C20.9929 35.1741 20.5637 35.006 20.2472 34.7068C19.9307 34.4076 19.7529 34.0018 19.7529 33.5786C19.7529 33.1555 19.9307 32.7497 20.2472 32.4505C20.5637 32.1513 20.9929 31.9832 21.4404 31.9832C21.888 31.9832 22.3172 32.1513 22.6337 32.4505C22.9501 32.7497 23.1279 33.1555 23.1279 33.5786C23.1279 34.0018 22.9501 34.4076 22.6337 34.7068C22.3172 35.006 21.888 35.1741 21.4404 35.1741ZM31.5654 35.1741C31.1179 35.1741 30.6887 35.006 30.3722 34.7068C30.0557 34.4076 29.8779 34.0018 29.8779 33.5786C29.8779 33.1555 30.0557 32.7497 30.3722 32.4505C30.6887 32.1513 31.1179 31.9832 31.5654 31.9832C32.013 31.9832 32.4422 32.1513 32.7587 32.4505C33.0751 32.7497 33.2529 33.1555 33.2529 33.5786C33.2529 34.0018 33.0751 34.4076 32.7587 34.7068C32.4422 35.006 32.013 35.1741 31.5654 35.1741ZM28.7529 17.0923H29.8779C30.1763 17.0923 30.4624 17.2043 30.6734 17.4038C30.8844 17.6033 31.0029 17.8738 31.0029 18.1559C31.0029 18.438 30.8844 18.7085 30.6734 18.908C30.4624 19.1075 30.1763 19.2195 29.8779 19.2195H28.7529V20.2832C28.7529 20.5653 28.6344 20.8358 28.4234 21.0353C28.2124 21.2348 27.9263 21.3468 27.6279 21.3468C27.3296 21.3468 27.0434 21.2348 26.8324 21.0353C26.6215 20.8358 26.5029 20.5653 26.5029 20.2832V19.2195H25.3779C25.0796 19.2195 24.7934 19.1075 24.5824 18.908C24.3715 18.7085 24.2529 18.438 24.2529 18.1559C24.2529 17.8738 24.3715 17.6033 24.5824 17.4038C24.7934 17.2043 25.0796 17.0923 25.3779 17.0923H26.5029V16.0286C26.5029 15.7465 26.6215 15.476 26.8324 15.2765C27.0434 15.0771 27.3296 14.965 27.6279 14.965C27.9263 14.965 28.2124 15.0771 28.4234 15.2765C28.6344 15.476 28.7529 15.7465 28.7529 16.0286V17.0923Z" fill="#FFA318"/>
<defs>
<filter id="filter0_d" x="0.50293" y="0.538086" width="52" height="52" filterUnits="userSpaceOnUse" color-interpolation-filters="sRGB">
<feFlood flood-opacity="0" result="BackgroundImageFix"/>
<feColorMatrix in="SourceAlpha" type="matrix" values="0 0 0 0 0 0 0 0 0 0 0 0 0 0 0 0 0 0 127 0"/>
<feOffset dy="2"/>
<feGaussianBlur stdDeviation="1"/>
<feColorMatrix type="matrix" values="0 0 0 0 0 0 0 0 0 0 0 0 0 0 0 0 0 0 0.15 0"/>
<feBlend mode="normal" in2="BackgroundImageFix" result="effect1_dropShadow"/>
<feBlend mode="normal" in="SourceGraphic" in2="effect1_dropShadow" result="shape"/>
</filter>
</defs>
</svg>
