<svg width="21" height="22" viewBox="0 0 21 22" fill="none" xmlns="http://www.w3.org/2000/svg">
<mask id="path-1-outside-1" maskUnits="userSpaceOnUse" x="-0.639648" y="0.0578613" width="22" height="22" fill="black">
<rect fill="white" x="-0.639648" y="0.0578613" width="22" height="22"/>
<path fill-rule="evenodd" clip-rule="evenodd" d="M11.4067 3.08986C11.0991 2.04605 9.62156 2.04605 9.31404 3.08986L9.19653 3.48864C9.0977 3.82359 8.9252 4.1322 8.69166 4.39185C8.45812 4.6515 8.16945 4.85562 7.84681 4.98925C7.52416 5.12289 7.1757 5.18266 6.82697 5.16418C6.47823 5.14571 6.13804 5.04946 5.83132 4.88248L5.4663 4.68246C4.51124 4.16368 3.46617 5.2075 3.9862 6.16381L4.18497 6.52883C4.35195 6.83555 4.4482 7.17574 4.46667 7.52448C4.48515 7.87321 4.42538 8.22167 4.29174 8.54432C4.15811 8.86696 3.95399 9.15563 3.69434 9.38917C3.43469 9.62271 3.12608 9.79521 2.79113 9.89404L2.39235 10.0115C1.34854 10.3191 1.34854 11.7967 2.39235 12.1042L2.79113 12.2217C3.12626 12.3205 3.43503 12.493 3.69481 12.7266C3.95459 12.9603 4.15879 13.2491 4.29245 13.5719C4.4261 13.8947 4.48582 14.2433 4.46722 14.5922C4.44862 14.9411 4.35218 15.2814 4.18497 15.5881L3.98495 15.9519C3.46617 16.907 4.50999 17.952 5.4663 17.432L5.83132 17.2332C6.13812 17.0663 6.47839 16.9701 6.8272 16.9517C7.17601 16.9333 7.52451 16.9932 7.84718 17.1269C8.16984 17.2607 8.45849 17.465 8.69197 17.7247C8.92545 17.9845 9.09785 18.2933 9.19653 18.6283L9.31404 19.0259C9.62156 20.0697 11.0991 20.0697 11.4067 19.0259L11.5242 18.6271C11.623 18.292 11.7955 17.9832 12.0291 17.7234C12.2627 17.4636 12.5515 17.2594 12.8744 17.1258C13.1972 16.9921 13.5458 16.9324 13.8947 16.951C14.2436 16.9696 14.5839 17.066 14.8906 17.2332L15.2544 17.4333C16.2095 17.952 17.2545 16.9082 16.7345 15.9519L16.5357 15.5881C16.3685 15.2813 16.2721 14.9409 16.2536 14.592C16.2351 14.243 16.2949 13.8943 16.4287 13.5715C16.5625 13.2487 16.7668 12.9599 17.0268 12.7263C17.2867 12.4927 17.5956 12.3203 17.9308 12.2217L18.3284 12.1042C19.3722 11.7967 19.3722 10.3191 18.3284 10.0115L17.9296 9.89404C17.5946 9.79521 17.286 9.62271 17.0264 9.38917C16.7667 9.15563 16.5626 8.86696 16.429 8.54432C16.2953 8.22167 16.2356 7.87321 16.254 7.52448C16.2725 7.17574 16.3688 6.83555 16.5357 6.52883L16.7358 6.16381C17.2545 5.20875 16.2107 4.16368 15.2544 4.68371L14.8906 4.88248C14.5838 5.04993 14.2434 5.14656 13.8944 5.16528C13.5453 5.184 13.1965 5.12433 12.8736 4.99066C12.5506 4.85699 12.2617 4.6527 12.0279 4.39279C11.7942 4.13288 11.6217 3.82394 11.5229 3.48864L11.4054 3.08986H11.4067ZM8.11521 2.73609C8.774 0.498451 11.9467 0.498451 12.6055 2.73609L12.723 3.13487C12.769 3.29107 12.8494 3.43499 12.9582 3.55609C13.0671 3.67719 13.2017 3.77239 13.3521 3.83473C13.5025 3.89706 13.665 3.92493 13.8276 3.91631C13.9902 3.90769 14.1488 3.86279 14.2918 3.78491L14.6569 3.58489C16.707 2.46982 18.9496 4.71121 17.8321 6.76134L17.6333 7.12637C17.5554 7.26937 17.5105 7.42798 17.5019 7.59059C17.4933 7.75319 17.5212 7.91567 17.5835 8.0661C17.6458 8.21653 17.741 8.35111 17.8621 8.45997C17.9832 8.56883 18.1271 8.64921 18.2833 8.69521L18.6821 8.81272C20.9198 9.47151 20.9198 12.6442 18.6821 13.303L18.2833 13.4205C18.1271 13.4665 17.9832 13.5469 17.8621 13.6558C17.741 13.7646 17.6458 13.8992 17.5835 14.0496C17.5212 14.2001 17.4933 14.3625 17.5019 14.5251C17.5105 14.6877 17.5554 14.8464 17.6333 14.9894L17.8333 15.3544C18.9496 17.4045 16.7057 19.6472 14.6569 18.5296L14.2918 18.3308C14.1488 18.2529 13.9902 18.208 13.8276 18.1994C13.665 18.1908 13.5025 18.2187 13.3521 18.281C13.2017 18.3433 13.0671 18.4385 12.9582 18.5596C12.8494 18.6807 12.769 18.8247 12.723 18.9809L12.6055 19.3796C11.9467 21.6173 8.774 21.6173 8.11521 19.3796L7.9977 18.9809C7.9517 18.8247 7.87132 18.6807 7.76246 18.5596C7.6536 18.4385 7.51902 18.3433 7.36859 18.281C7.21816 18.2187 7.05568 18.1908 6.89308 18.1994C6.73047 18.208 6.57186 18.2529 6.42886 18.3308L6.06383 18.5308C4.01371 19.6472 1.77231 17.4033 2.88863 15.3544L3.0874 14.9894C3.16528 14.8464 3.21018 14.6877 3.2188 14.5251C3.22742 14.3625 3.19955 14.2001 3.13722 14.0496C3.07488 13.8992 2.97968 13.7646 2.85858 13.6558C2.73748 13.5469 2.59356 13.4665 2.43736 13.4205L2.03858 13.303C-0.199058 12.6442 -0.199058 9.47151 2.03858 8.81272L2.43736 8.69521C2.59356 8.64921 2.73748 8.56883 2.85858 8.45997C2.97968 8.35111 3.07488 8.21653 3.13722 8.0661C3.19955 7.91567 3.22742 7.75319 3.2188 7.59059C3.21018 7.42798 3.16528 7.26937 3.0874 7.12637L2.88738 6.76134C1.77232 4.71121 4.01496 2.46982 6.06383 3.58614L6.42886 3.78491C6.57186 3.86279 6.73047 3.90769 6.89308 3.91631C7.05568 3.92493 7.21816 3.89706 7.36859 3.83473C7.51902 3.77239 7.6536 3.67719 7.76246 3.55609C7.87132 3.43499 7.9517 3.29107 7.9977 3.13487L8.11521 2.73609Z"/>
</mask>
<path fill-rule="evenodd" clip-rule="evenodd" d="M11.4067 3.08986C11.0991 2.04605 9.62156 2.04605 9.31404 3.08986L9.19653 3.48864C9.0977 3.82359 8.9252 4.1322 8.69166 4.39185C8.45812 4.6515 8.16945 4.85562 7.84681 4.98925C7.52416 5.12289 7.1757 5.18266 6.82697 5.16418C6.47823 5.14571 6.13804 5.04946 5.83132 4.88248L5.4663 4.68246C4.51124 4.16368 3.46617 5.2075 3.9862 6.16381L4.18497 6.52883C4.35195 6.83555 4.4482 7.17574 4.46667 7.52448C4.48515 7.87321 4.42538 8.22167 4.29174 8.54432C4.15811 8.86696 3.95399 9.15563 3.69434 9.38917C3.43469 9.62271 3.12608 9.79521 2.79113 9.89404L2.39235 10.0115C1.34854 10.3191 1.34854 11.7967 2.39235 12.1042L2.79113 12.2217C3.12626 12.3205 3.43503 12.493 3.69481 12.7266C3.95459 12.9603 4.15879 13.2491 4.29245 13.5719C4.4261 13.8947 4.48582 14.2433 4.46722 14.5922C4.44862 14.9411 4.35218 15.2814 4.18497 15.5881L3.98495 15.9519C3.46617 16.907 4.50999 17.952 5.4663 17.432L5.83132 17.2332C6.13812 17.0663 6.47839 16.9701 6.8272 16.9517C7.17601 16.9333 7.52451 16.9932 7.84718 17.1269C8.16984 17.2607 8.45849 17.465 8.69197 17.7247C8.92545 17.9845 9.09785 18.2933 9.19653 18.6283L9.31404 19.0259C9.62156 20.0697 11.0991 20.0697 11.4067 19.0259L11.5242 18.6271C11.623 18.292 11.7955 17.9832 12.0291 17.7234C12.2627 17.4636 12.5515 17.2594 12.8744 17.1258C13.1972 16.9921 13.5458 16.9324 13.8947 16.951C14.2436 16.9696 14.5839 17.066 14.8906 17.2332L15.2544 17.4333C16.2095 17.952 17.2545 16.9082 16.7345 15.9519L16.5357 15.5881C16.3685 15.2813 16.2721 14.9409 16.2536 14.592C16.2351 14.243 16.2949 13.8943 16.4287 13.5715C16.5625 13.2487 16.7668 12.9599 17.0268 12.7263C17.2867 12.4927 17.5956 12.3203 17.9308 12.2217L18.3284 12.1042C19.3722 11.7967 19.3722 10.3191 18.3284 10.0115L17.9296 9.89404C17.5946 9.79521 17.286 9.62271 17.0264 9.38917C16.7667 9.15563 16.5626 8.86696 16.429 8.54432C16.2953 8.22167 16.2356 7.87321 16.254 7.52448C16.2725 7.17574 16.3688 6.83555 16.5357 6.52883L16.7358 6.16381C17.2545 5.20875 16.2107 4.16368 15.2544 4.68371L14.8906 4.88248C14.5838 5.04993 14.2434 5.14656 13.8944 5.16528C13.5453 5.184 13.1965 5.12433 12.8736 4.99066C12.5506 4.85699 12.2617 4.6527 12.0279 4.39279C11.7942 4.13288 11.6217 3.82394 11.5229 3.48864L11.4054 3.08986H11.4067ZM8.11521 2.73609C8.774 0.498451 11.9467 0.498451 12.6055 2.73609L12.723 3.13487C12.769 3.29107 12.8494 3.43499 12.9582 3.55609C13.0671 3.67719 13.2017 3.77239 13.3521 3.83473C13.5025 3.89706 13.665 3.92493 13.8276 3.91631C13.9902 3.90769 14.1488 3.86279 14.2918 3.78491L14.6569 3.58489C16.707 2.46982 18.9496 4.71121 17.8321 6.76134L17.6333 7.12637C17.5554 7.26937 17.5105 7.42798 17.5019 7.59059C17.4933 7.75319 17.5212 7.91567 17.5835 8.0661C17.6458 8.21653 17.741 8.35111 17.8621 8.45997C17.9832 8.56883 18.1271 8.64921 18.2833 8.69521L18.6821 8.81272C20.9198 9.47151 20.9198 12.6442 18.6821 13.303L18.2833 13.4205C18.1271 13.4665 17.9832 13.5469 17.8621 13.6558C17.741 13.7646 17.6458 13.8992 17.5835 14.0496C17.5212 14.2001 17.4933 14.3625 17.5019 14.5251C17.5105 14.6877 17.5554 14.8464 17.6333 14.9894L17.8333 15.3544C18.9496 17.4045 16.7057 19.6472 14.6569 18.5296L14.2918 18.3308C14.1488 18.2529 13.9902 18.208 13.8276 18.1994C13.665 18.1908 13.5025 18.2187 13.3521 18.281C13.2017 18.3433 13.0671 18.4385 12.9582 18.5596C12.8494 18.6807 12.769 18.8247 12.723 18.9809L12.6055 19.3796C11.9467 21.6173 8.774 21.6173 8.11521 19.3796L7.9977 18.9809C7.9517 18.8247 7.87132 18.6807 7.76246 18.5596C7.6536 18.4385 7.51902 18.3433 7.36859 18.281C7.21816 18.2187 7.05568 18.1908 6.89308 18.1994C6.73047 18.208 6.57186 18.2529 6.42886 18.3308L6.06383 18.5308C4.01371 19.6472 1.77231 17.4033 2.88863 15.3544L3.0874 14.9894C3.16528 14.8464 3.21018 14.6877 3.2188 14.5251C3.22742 14.3625 3.19955 14.2001 3.13722 14.0496C3.07488 13.8992 2.97968 13.7646 2.85858 13.6558C2.73748 13.5469 2.59356 13.4665 2.43736 13.4205L2.03858 13.303C-0.199058 12.6442 -0.199058 9.47151 2.03858 8.81272L2.43736 8.69521C2.59356 8.64921 2.73748 8.56883 2.85858 8.45997C2.97968 8.35111 3.07488 8.21653 3.13722 8.0661C3.19955 7.91567 3.22742 7.75319 3.2188 7.59059C3.21018 7.42798 3.16528 7.26937 3.0874 7.12637L2.88738 6.76134C1.77232 4.71121 4.01496 2.46982 6.06383 3.58614L6.42886 3.78491C6.57186 3.86279 6.73047 3.90769 6.89308 3.91631C7.05568 3.92493 7.21816 3.89706 7.36859 3.83473C7.51902 3.77239 7.6536 3.67719 7.76246 3.55609C7.87132 3.43499 7.9517 3.29107 7.9977 3.13487L8.11521 2.73609Z" fill="white"/>
<path fill-rule="evenodd" clip-rule="evenodd" d="M11.4067 3.08986C11.0991 2.04605 9.62156 2.04605 9.31404 3.08986L9.19653 3.48864C9.0977 3.82359 8.9252 4.1322 8.69166 4.39185C8.45812 4.6515 8.16945 4.85562 7.84681 4.98925C7.52416 5.12289 7.1757 5.18266 6.82697 5.16418C6.47823 5.14571 6.13804 5.04946 5.83132 4.88248L5.4663 4.68246C4.51124 4.16368 3.46617 5.2075 3.9862 6.16381L4.18497 6.52883C4.35195 6.83555 4.4482 7.17574 4.46667 7.52448C4.48515 7.87321 4.42538 8.22167 4.29174 8.54432C4.15811 8.86696 3.95399 9.15563 3.69434 9.38917C3.43469 9.62271 3.12608 9.79521 2.79113 9.89404L2.39235 10.0115C1.34854 10.3191 1.34854 11.7967 2.39235 12.1042L2.79113 12.2217C3.12626 12.3205 3.43503 12.493 3.69481 12.7266C3.95459 12.9603 4.15879 13.2491 4.29245 13.5719C4.4261 13.8947 4.48582 14.2433 4.46722 14.5922C4.44862 14.9411 4.35218 15.2814 4.18497 15.5881L3.98495 15.9519C3.46617 16.907 4.50999 17.952 5.4663 17.432L5.83132 17.2332C6.13812 17.0663 6.47839 16.9701 6.8272 16.9517C7.17601 16.9333 7.52451 16.9932 7.84718 17.1269C8.16984 17.2607 8.45849 17.465 8.69197 17.7247C8.92545 17.9845 9.09785 18.2933 9.19653 18.6283L9.31404 19.0259C9.62156 20.0697 11.0991 20.0697 11.4067 19.0259L11.5242 18.6271C11.623 18.292 11.7955 17.9832 12.0291 17.7234C12.2627 17.4636 12.5515 17.2594 12.8744 17.1258C13.1972 16.9921 13.5458 16.9324 13.8947 16.951C14.2436 16.9696 14.5839 17.066 14.8906 17.2332L15.2544 17.4333C16.2095 17.952 17.2545 16.9082 16.7345 15.9519L16.5357 15.5881C16.3685 15.2813 16.2721 14.9409 16.2536 14.592C16.2351 14.243 16.2949 13.8943 16.4287 13.5715C16.5625 13.2487 16.7668 12.9599 17.0268 12.7263C17.2867 12.4927 17.5956 12.3203 17.9308 12.2217L18.3284 12.1042C19.3722 11.7967 19.3722 10.3191 18.3284 10.0115L17.9296 9.89404C17.5946 9.79521 17.286 9.62271 17.0264 9.38917C16.7667 9.15563 16.5626 8.86696 16.429 8.54432C16.2953 8.22167 16.2356 7.87321 16.254 7.52448C16.2725 7.17574 16.3688 6.83555 16.5357 6.52883L16.7358 6.16381C17.2545 5.20875 16.2107 4.16368 15.2544 4.68371L14.8906 4.88248C14.5838 5.04993 14.2434 5.14656 13.8944 5.16528C13.5453 5.184 13.1965 5.12433 12.8736 4.99066C12.5506 4.85699 12.2617 4.6527 12.0279 4.39279C11.7942 4.13288 11.6217 3.82394 11.5229 3.48864L11.4054 3.08986H11.4067ZM8.11521 2.73609C8.774 0.498451 11.9467 0.498451 12.6055 2.73609L12.723 3.13487C12.769 3.29107 12.8494 3.43499 12.9582 3.55609C13.0671 3.67719 13.2017 3.77239 13.3521 3.83473C13.5025 3.89706 13.665 3.92493 13.8276 3.91631C13.9902 3.90769 14.1488 3.86279 14.2918 3.78491L14.6569 3.58489C16.707 2.46982 18.9496 4.71121 17.8321 6.76134L17.6333 7.12637C17.5554 7.26937 17.5105 7.42798 17.5019 7.59059C17.4933 7.75319 17.5212 7.91567 17.5835 8.0661C17.6458 8.21653 17.741 8.35111 17.8621 8.45997C17.9832 8.56883 18.1271 8.64921 18.2833 8.69521L18.6821 8.81272C20.9198 9.47151 20.9198 12.6442 18.6821 13.303L18.2833 13.4205C18.1271 13.4665 17.9832 13.5469 17.8621 13.6558C17.741 13.7646 17.6458 13.8992 17.5835 14.0496C17.5212 14.2001 17.4933 14.3625 17.5019 14.5251C17.5105 14.6877 17.5554 14.8464 17.6333 14.9894L17.8333 15.3544C18.9496 17.4045 16.7057 19.6472 14.6569 18.5296L14.2918 18.3308C14.1488 18.2529 13.9902 18.208 13.8276 18.1994C13.665 18.1908 13.5025 18.2187 13.3521 18.281C13.2017 18.3433 13.0671 18.4385 12.9582 18.5596C12.8494 18.6807 12.769 18.8247 12.723 18.9809L12.6055 19.3796C11.9467 21.6173 8.774 21.6173 8.11521 19.3796L7.9977 18.9809C7.9517 18.8247 7.87132 18.6807 7.76246 18.5596C7.6536 18.4385 7.51902 18.3433 7.36859 18.281C7.21816 18.2187 7.05568 18.1908 6.89308 18.1994C6.73047 18.208 6.57186 18.2529 6.42886 18.3308L6.06383 18.5308C4.01371 19.6472 1.77231 17.4033 2.88863 15.3544L3.0874 14.9894C3.16528 14.8464 3.21018 14.6877 3.2188 14.5251C3.22742 14.3625 3.19955 14.2001 3.13722 14.0496C3.07488 13.8992 2.97968 13.7646 2.85858 13.6558C2.73748 13.5469 2.59356 13.4665 2.43736 13.4205L2.03858 13.303C-0.199058 12.6442 -0.199058 9.47151 2.03858 8.81272L2.43736 8.69521C2.59356 8.64921 2.73748 8.56883 2.85858 8.45997C2.97968 8.35111 3.07488 8.21653 3.13722 8.0661C3.19955 7.91567 3.22742 7.75319 3.2188 7.59059C3.21018 7.42798 3.16528 7.26937 3.0874 7.12637L2.88738 6.76134C1.77232 4.71121 4.01496 2.46982 6.06383 3.58614L6.42886 3.78491C6.57186 3.86279 6.73047 3.90769 6.89308 3.91631C7.05568 3.92493 7.21816 3.89706 7.36859 3.83473C7.51902 3.77239 7.6536 3.67719 7.76246 3.55609C7.87132 3.43499 7.9517 3.29107 7.9977 3.13487L8.11521 2.73609Z" stroke="white" stroke-width="0.4" mask="url(#path-1-outside-1)"/>
<path d="M8.44587 9.14314C8.95366 8.63535 9.64237 8.35008 10.3605 8.35008C11.0786 8.35008 11.7673 8.63535 12.2751 9.14314C12.7829 9.65093 13.0682 10.3396 13.0682 11.0578C13.0682 11.7759 12.7829 12.4646 12.2751 12.9724C11.7673 13.4802 11.0786 13.7654 10.3605 13.7654C9.64237 13.7654 8.95366 13.4802 8.44587 12.9724C7.93808 12.4646 7.65281 11.7759 7.65281 11.0578C7.65281 10.3396 7.93808 9.65093 8.44587 9.14314ZM6.51922 9.46665C6.31028 9.97109 6.20273 10.5118 6.20273 11.0578C6.20273 12.1605 6.64078 13.218 7.42051 13.9977C8.20024 14.7775 9.25778 15.2155 10.3605 15.2155C11.4632 15.2155 12.5207 14.7775 13.3005 13.9977C14.0802 13.218 14.5182 12.1605 14.5182 11.0578C14.5182 10.5117 14.4107 9.97109 14.2018 9.46665C13.9928 8.96221 13.6865 8.50386 13.3005 8.11778C12.9144 7.7317 12.456 7.42544 11.9516 7.21649C11.4471 7.00754 10.9065 6.9 10.3605 6.9C9.81448 6.9 9.27383 7.00754 8.76938 7.21649C8.26494 7.42544 7.8066 7.7317 7.42051 8.11778C7.03443 8.50386 6.72817 8.96221 6.51922 9.46665Z" fill="white" stroke="white" stroke-width="0.2"/>
</svg>
