<svg width="457" height="373" viewBox="0 0 457 373" fill="none" xmlns="http://www.w3.org/2000/svg">
<path fill-rule="evenodd" clip-rule="evenodd" d="M239.536 35.7727C278.33 38.2543 315.797 3.78169 351.927 18.1272C390.363 33.3882 416.093 71.9743 429.361 111.143C442.729 150.604 443.188 195.645 424.712 232.988C407.361 268.056 368.845 284.878 334.306 303.26C304.474 319.137 273.321 332.268 239.536 331.541C206.274 330.826 178.401 312.021 147.683 299.245C105.111 281.539 48.8489 282.067 25.2893 242.434C1.35931 202.177 15.9298 149.351 32.5545 105.569C48.6029 63.3043 73.3496 17.4933 116.188 3.0477C157.508 -10.8856 196.019 32.9891 239.536 35.7727Z" fill="url(#paint0_linear_10078:39398)"/>
<mask id="mask0_10078:39398" style="mask-type:alpha" maskUnits="userSpaceOnUse" x="0" y="17" width="457" height="356">
<rect x="0.899414" y="17.6934" width="456" height="354.667" fill="#C4C4C4"/>
</mask>
<g mask="url(#mask0_10078:39398)">
<g filter="url(#filter0_d_10078:39398)">
<path d="M167.47 147.334C178.704 163.306 187.508 172.42 197.203 178.287C206.897 184.153 220.467 183.005 238.725 184.223" stroke="url(#paint1_linear_10078:39398)" stroke-width="24.9954" stroke-linecap="round"/>
<path d="M196.546 184.439C198.432 182.116 200.812 179.384 202.343 171.393" stroke="#C7D2D7" stroke-opacity="0.3" stroke-width="5.9017" stroke-linecap="round"/>
<path d="M186.241 174.023C188.582 173.385 191.481 172.729 195.04 167.67" stroke="#C7D2D7" stroke-opacity="0.3" stroke-width="5.9017" stroke-linecap="round"/>
<path d="M209.133 183.559C209.573 182.184 210.126 180.547 210.526 176.422" stroke="#C7D2D7" stroke-opacity="0.3" stroke-width="5.9017" stroke-linecap="round"/>
</g>
<path d="M131.276 124.216C144.79 124.216 155.605 135.434 155.11 148.94L152.276 226.242C151.812 238.904 141.528 248.993 128.86 249.215L72.012 250.21C59.1733 250.435 48.4609 240.455 47.7777 227.633L43.6055 149.335C42.8781 135.684 53.7513 124.216 67.4221 124.216H131.276Z" fill="url(#paint2_linear_10078:39398)" stroke="url(#paint3_linear_10078:39398)" stroke-width="4.17381"/>
<path d="M64.7206 124.216C76.5327 124.216 86.267 133.484 86.8457 145.282L90.8227 226.359C91.4232 238.6 81.6602 248.854 69.4043 248.854C58.1138 248.854 48.7572 240.099 48.0075 228.833L42.6178 147.838C41.7671 135.054 51.9077 124.216 64.7206 124.216Z" fill="url(#paint4_linear_10078:39398)" stroke="url(#paint5_linear_10078:39398)" stroke-width="4.17381"/>
<g filter="url(#filter1_d_10078:39398)">
<path d="M143.242 139.698C157.241 137.179 171.242 144.321 176.248 157.636C187.532 187.65 198.346 227.596 193.12 241.454C187.383 256.669 169.751 264.155 158.137 266.866L158.142 266.895C157.345 267.078 156.47 267.254 155.526 267.417C154.585 267.593 153.702 267.734 152.892 267.84L152.886 267.811C141.056 269.32 121.92 268.452 111.238 256.192C101.508 245.025 97.7154 203.816 97.8261 171.751C97.8752 157.527 108.506 145.95 122.505 143.431L143.242 139.698Z" fill="url(#paint6_linear_10078:39398)"/>
<g filter="url(#filter2_d_10078:39398)">
<rect width="27.4255" height="22.9125" rx="3.12443" transform="matrix(-0.984185 0.177142 0.177142 0.984185 156.484 171.755)" fill="url(#paint7_linear_10078:39398)"/>
<rect x="0.420258" y="-0.604747" width="28.467" height="23.954" rx="3.64517" transform="matrix(-0.984185 0.177142 0.177142 0.984185 157.425 171.671)" stroke="#EFF2F3" stroke-width="1.04148"/>
</g>
<path d="M141.141 184.356L141.108 184.362C141.527 182.878 142.715 181.7 144.281 181.418C145.29 181.236 146.283 181.459 147.104 181.974L147.129 181.969L148.732 181.681C147.533 180.461 145.812 179.834 144.052 180.151C141.367 180.634 139.534 183.145 139.723 185.92L143.102 185.311L143.33 186.578L139.951 187.187L139.954 187.196C140.081 187.625 140.256 188.028 140.469 188.402L143.558 187.846L144.138 191.072C144.55 191.152 144.976 191.182 145.406 191.157L144.771 187.628L145.985 187.41L146.62 190.939C147.032 190.812 147.42 190.636 147.779 190.417L147.198 187.191L150.286 186.635C150.39 186.005 150.39 185.344 150.269 184.675C150.149 184.007 149.919 183.387 149.602 182.833L148.883 182.962L141.141 184.356ZM145.757 186.142L144.543 186.36L144.315 185.093L145.529 184.875L145.757 186.142ZM149.125 185.536L146.97 185.924L146.742 184.656L148.897 184.268C148.964 184.47 149.018 184.679 149.057 184.894C149.095 185.109 149.118 185.324 149.125 185.536Z" fill="#9FF9FF"/>
<path d="M143.59 177.604C139.351 178.367 136.562 182.573 137.359 186.999C138.155 191.426 142.237 194.396 146.475 193.633C150.713 192.87 153.502 188.663 152.706 184.237C151.909 179.811 147.828 176.841 143.59 177.604ZM146.246 192.363C142.679 193.005 139.245 190.506 138.574 186.781C137.904 183.056 140.251 179.515 143.818 178.873C147.385 178.231 150.82 180.731 151.49 184.456C152.161 188.181 149.813 191.721 146.246 192.363Z" fill="#9FF9FF"/>
<g filter="url(#filter3_d_10078:39398)">
<ellipse rx="2.80411" ry="4.80758" transform="matrix(-0.984185 0.177142 0.177142 0.984185 173.08 173.764)" fill="url(#paint8_radial_10078:39398)"/>
<path d="M174.024 179.008C173.004 179.192 172.048 178.636 171.335 177.799C170.611 176.951 170.056 175.734 169.808 174.353C169.559 172.972 169.655 171.638 170.037 170.591C170.414 169.558 171.116 168.703 172.136 168.52C173.156 168.336 174.112 168.892 174.826 169.729C175.549 170.577 176.104 171.794 176.352 173.175C176.601 174.556 176.505 175.89 176.123 176.937C175.746 177.97 175.044 178.824 174.024 179.008Z" stroke="#EFF2F3" stroke-width="1.04148"/>
</g>
<g filter="url(#filter4_d_10078:39398)">
<ellipse rx="2.80411" ry="4.80758" transform="matrix(-0.984185 0.177142 0.177142 0.984185 175.418 186.748)" fill="url(#paint9_radial_10078:39398)"/>
<path d="M176.362 191.992C175.342 192.176 174.386 191.62 173.673 190.783C172.949 189.935 172.394 188.718 172.146 187.337C171.897 185.956 171.993 184.622 172.375 183.575C172.752 182.542 173.454 181.688 174.474 181.504C175.494 181.321 176.45 181.877 177.164 182.713C177.887 183.562 178.442 184.778 178.69 186.159C178.939 187.54 178.843 188.874 178.461 189.921C178.084 190.954 177.382 191.809 176.362 191.992Z" stroke="#EFF2F3" stroke-width="1.04148"/>
</g>
<path d="M162.605 254.178L159.63 237.076L193.832 231.127L196.807 248.228L162.605 254.178ZM201.701 311.503C201.237 321.078 193.098 328.465 183.523 328.001C173.947 327.536 166.561 319.398 167.025 309.823L201.701 311.503ZM196.807 248.228C199.054 261.143 202.599 292.956 201.701 311.503L167.025 309.823C167.748 294.919 164.652 265.944 162.605 254.178L196.807 248.228Z" fill="white"/>
<path d="M109.46 263.743L106.486 246.642L140.688 240.692L143.663 257.793L109.46 263.743ZM148.556 321.069C148.092 330.644 139.954 338.03 130.378 337.566C120.803 337.102 113.417 328.963 113.881 319.388L148.556 321.069ZM143.663 257.793C145.909 270.709 149.455 302.522 148.556 321.069L113.881 319.388C114.603 304.485 111.507 275.51 109.46 263.743L143.663 257.793Z" fill="white"/>
<path d="M188.354 246.684C178.14 257.47 149.673 275.12 117.527 259.432" stroke="#C7D2D7" stroke-opacity="0.3" stroke-width="5.9017" stroke-linecap="round"/>
<path d="M190.181 269.016C186.467 270.807 182.06 273.078 170.533 274.207" stroke="#C7D2D7" stroke-opacity="0.3" stroke-width="5.9017" stroke-linecap="round"/>
<path d="M140.555 281.195C136.607 282.382 131.898 283.935 120.337 283.246" stroke="#C7D2D7" stroke-opacity="0.3" stroke-width="5.9017" stroke-linecap="round"/>
<path d="M189.275 283.429C187.489 284.318 185.37 285.443 179.798 286.059" stroke="#C7D2D7" stroke-opacity="0.3" stroke-width="5.9017" stroke-linecap="round"/>
<path d="M136.319 294.064C134.382 294.54 132.067 295.173 126.496 294.551" stroke="#C7D2D7" stroke-opacity="0.3" stroke-width="5.9017" stroke-linecap="round"/>
</g>
<g filter="url(#filter5_d_10078:39398)">
<path d="M127.547 150.926C93.3815 145.675 69.9421 113.721 75.1936 79.5552C80.4451 45.3896 112.399 21.9502 146.565 27.2017C180.73 32.4532 204.17 64.4071 198.918 98.5727C193.666 132.738 161.713 156.178 127.547 150.926Z" fill="url(#paint10_radial_10078:39398)"/>
<path d="M183.575 102.135C186.624 102.345 189.494 100.636 190.723 97.8266C192.984 87.6377 190.79 72.8368 187.792 63.7967C176.073 28.4539 122.571 31.8704 117.932 63.7967C115.811 78.5153 123.04 90.3073 126.423 95.1639C127.509 96.7056 129.259 97.7027 131.147 97.8265L183.575 102.135Z" fill="url(#paint11_linear_10078:39398)"/>
<g style="mix-blend-mode:multiply">
<path d="M119.311 64.1983C121.638 48.0429 136.569 39.1844 152.199 38.8501C140.864 42.0521 162.231 60.4809 160.42 72.9379C158.299 87.6565 134.824 89.16 138.215 94.0576C139.3 95.5993 141.05 96.5964 142.939 96.7202L188.203 100.262C186.788 101.579 184.836 102.272 182.817 102.13L132.533 98.2692C130.645 98.1454 128.895 97.1483 127.809 95.6066C124.419 90.7089 117.156 78.9654 119.311 64.1983Z" fill="url(#paint12_radial_10078:39398)"/>
</g>
<path d="M167.164 49.1704C170.073 49.6025 183.197 58.1997 182.363 73.4575" stroke="white" stroke-width="7.07715" stroke-linecap="round"/>
</g>
<g filter="url(#filter6_d_10078:39398)">
<path d="M111.823 178.188C115.499 194.214 129.394 208.798 142.659 214.463C152.393 218.62 167.822 221.679 183.357 214.532" stroke="url(#paint13_linear_10078:39398)" stroke-width="24.9954" stroke-linecap="round"/>
<path d="M144.885 206.578C144.099 209.465 143.269 212.992 137.672 218.898" stroke="#C7D2D7" stroke-opacity="0.3" stroke-width="5.9017" stroke-linecap="round"/>
<path d="M135.011 202.005C134.566 203.79 134.12 206.025 130.215 208" stroke="#C7D2D7" stroke-opacity="0.3" stroke-width="5.9017" stroke-linecap="round"/>
<path d="M153.029 211.389C153.311 213.057 153.743 215.083 151.617 218.859" stroke="#C7D2D7" stroke-opacity="0.3" stroke-width="5.9017" stroke-linecap="round"/>
</g>
<path fill-rule="evenodd" clip-rule="evenodd" d="M200.794 312.147C193.141 312.541 180.66 312.15 168.65 308.786C166.582 308.207 164.463 309.719 164.463 311.866V340.702C164.463 341.037 164.514 341.369 164.62 341.68C164.543 344.423 164.436 350.7 164.621 354.019C164.806 357.346 169.626 360.487 172.013 361.642C174.477 364.645 182.754 370.605 196.152 370.42C209.55 370.235 213.362 367.648 213.593 366.378C213.593 367.456 213.593 367.787 213.593 360.487C213.593 355.674 205.49 350.428 197.3 346.486C197.342 346.369 197.377 346.248 197.405 346.125L204.236 316.12C204.716 314.008 202.957 312.035 200.794 312.147Z" fill="#282522"/>
<path d="M187.871 360.348C199.583 363.964 208.734 361.855 211.845 360.348C213.81 356.811 202.285 348.828 195.633 347.38C185.709 345.218 180.046 346.555 177.161 349.442C173.231 353.374 176.159 356.732 187.871 360.348Z" fill="url(#paint14_linear_10078:39398)"/>
<path fill-rule="evenodd" clip-rule="evenodd" d="M113.534 312.794C121.078 313.587 133.399 313.859 145.421 311.186C147.517 310.72 149.552 312.344 149.437 314.488L147.904 342.953C147.887 343.287 147.818 343.614 147.697 343.917C147.627 346.631 147.398 352.852 147.039 356.127C146.679 359.407 141.745 362.258 139.323 363.273C136.726 366.112 128.222 371.565 114.981 370.669C101.741 369.773 98.1087 367.012 97.9479 365.743C97.8905 366.809 97.8728 367.137 98.2614 359.917C98.5177 355.156 106.811 350.4 115.122 346.937C115.085 346.814 115.055 346.688 115.033 346.56L109.885 316.578C109.518 314.444 111.381 312.568 113.534 312.794Z" fill="#282522"/>
<path d="M123.708 361.149C111.932 364.102 102.994 361.528 99.9972 359.873C98.242 356.27 110.065 348.988 116.721 347.91C126.651 346.3 132.18 347.924 134.88 350.932C138.558 355.03 135.484 358.196 123.708 361.149Z" fill="url(#paint15_linear_10078:39398)"/>
<path d="M221.544 43.7047C221.816 42.9695 222.856 42.9695 223.128 43.7047L225.958 51.352C226.043 51.5831 226.225 51.7653 226.456 51.8509L234.104 54.6806C234.839 54.9526 234.839 55.9925 234.104 56.2645L226.456 59.0943C226.225 59.1798 226.043 59.362 225.958 59.5932L223.128 67.2404C222.856 67.9756 221.816 67.9756 221.544 67.2404L218.714 59.5932C218.629 59.362 218.446 59.1798 218.215 59.0943L210.568 56.2645C209.833 55.9925 209.833 54.9526 210.568 54.6806L218.215 51.8509C218.446 51.7653 218.629 51.5831 218.714 51.352L221.544 43.7047Z" fill="#FFD45E"/>
<path d="M309.746 272.911C310.018 272.176 311.058 272.176 311.33 272.911L314.16 280.558C314.245 280.79 314.427 280.972 314.659 281.057L322.306 283.887C323.041 284.159 323.041 285.199 322.306 285.471L314.659 288.301C314.427 288.386 314.245 288.569 314.16 288.8L311.33 296.447C311.058 297.182 310.018 297.182 309.746 296.447L306.916 288.8C306.831 288.569 306.649 288.386 306.417 288.301L298.77 285.471C298.035 285.199 298.035 284.159 298.77 283.887L306.417 281.057C306.649 280.972 306.831 280.79 306.916 280.558L309.746 272.911Z" fill="#FFD45E"/>
<path d="M427.688 187.109C427.96 186.373 429 186.373 429.272 187.109L431.132 192.135C431.217 192.366 431.4 192.548 431.631 192.633L436.657 194.493C437.392 194.765 437.392 195.805 436.657 196.077L431.631 197.937C431.4 198.022 431.217 198.205 431.132 198.436L429.272 203.462C429 204.197 427.96 204.197 427.688 203.462L425.828 198.436C425.743 198.205 425.56 198.022 425.329 197.937L420.303 196.077C419.568 195.805 419.568 194.765 420.303 194.493L425.329 192.633C425.56 192.548 425.743 192.366 425.828 192.135L427.688 187.109Z" fill="white"/>
<path d="M385.963 281.801C386.236 281.066 387.275 281.066 387.547 281.801L388.207 283.583C388.292 283.814 388.474 283.996 388.705 284.082L390.487 284.741C391.222 285.013 391.222 286.053 390.487 286.325L388.705 286.984C388.474 287.069 388.292 287.252 388.207 287.483L387.547 289.264C387.275 289.999 386.236 289.999 385.963 289.264L385.304 287.483C385.219 287.252 385.037 287.069 384.805 286.984L383.024 286.325C382.289 286.053 382.289 285.013 383.024 284.741L384.805 284.082C385.037 283.996 385.219 283.814 385.304 283.583L385.963 281.801Z" fill="white"/>
</g>
<g filter="url(#filter7_d_10078:39398)">
<path d="M347.443 43.8247C337.151 62.3298 293.17 83.5334 264.789 79.8397C262.133 117.917 283.708 193.427 347.443 228.519C411.177 193.427 432.752 117.917 430.097 79.8397C401.716 83.5334 357.734 62.3298 347.443 43.8247Z" fill="#00CC9E"/>
</g>
<path d="M323.173 134.308L343.528 155.902L382.353 114.714" stroke="white" stroke-width="14.2254" stroke-linecap="round" stroke-linejoin="round"/>
<g style="mix-blend-mode:multiply">
<path d="M347.442 227.824C411.177 192.732 432.752 117.222 430.097 79.1444C401.716 82.8381 357.734 61.6349 347.442 43.1299V227.824Z" fill="#00CC9E" fill-opacity="0.2"/>
</g>
<path d="M226.186 191.423C225.742 198.1 231.534 203.429 238.101 202.386L250.547 200.409C252.072 200.167 253.479 199.599 254.701 198.784C266.18 203.641 271.718 204.334 277.909 190.763C283.567 178.359 286.326 176.225 276.307 173.662C275.819 173.538 268.97 171.135 268.497 171.013C274.402 170.601 276.492 159.554 273.187 158.26C269.882 156.966 267.666 160.612 263.564 164.034C257.605 167.667 258.263 168.866 256.675 169.706C255.299 168.237 253.491 167.165 251.416 166.702L240.072 164.166C233.831 162.771 227.786 167.344 227.358 173.785L226.186 191.423Z" fill="#282522"/>
<path d="M167.169 228.832C167.706 236.078 174.742 240.927 181.643 238.808L194.722 234.793C196.325 234.301 197.751 233.478 198.941 232.415C212.018 235.894 218.077 235.798 222.671 220.269C226.871 206.075 229.513 203.362 218.353 202.129C217.809 202.069 210.082 200.527 209.555 200.467C215.84 199.127 216.41 186.935 212.66 186.045C208.911 185.156 207.082 189.411 203.192 193.713C197.338 198.524 198.227 199.713 196.647 200.857C194.945 199.486 192.839 198.609 190.539 198.426L177.959 197.422C171.038 196.87 165.234 202.705 165.751 209.693L167.169 228.832Z" fill="#322E2A"/>
<defs>
<filter id="filter0_d_10078:39398" x="148.505" y="106.028" width="112.818" height="120.063" filterUnits="userSpaceOnUse" color-interpolation-filters="sRGB">
<feFlood flood-opacity="0" result="BackgroundImageFix"/>
<feColorMatrix in="SourceAlpha" type="matrix" values="0 0 0 0 0 0 0 0 0 0 0 0 0 0 0 0 0 0 127 0" result="hardAlpha"/>
<feOffset dy="1.38863"/>
<feGaussianBlur stdDeviation="0.694317"/>
<feComposite in2="hardAlpha" operator="out"/>
<feColorMatrix type="matrix" values="0 0 0 0 0 0 0 0 0 0 0 0 0 0 0 0 0 0 0.25 0"/>
<feBlend mode="normal" in2="BackgroundImageFix" result="effect1_dropShadow_10078:39398"/>
<feBlend mode="normal" in="SourceGraphic" in2="effect1_dropShadow_10078:39398" result="shape"/>
</filter>
<filter id="filter1_d_10078:39398" x="81.6016" y="133.385" width="132.295" height="209.902" filterUnits="userSpaceOnUse" color-interpolation-filters="sRGB">
<feFlood flood-opacity="0" result="BackgroundImageFix"/>
<feColorMatrix in="SourceAlpha" type="matrix" values="0 0 0 0 0 0 0 0 0 0 0 0 0 0 0 0 0 0 127 0" result="hardAlpha"/>
<feOffset dy="1.38863"/>
<feGaussianBlur stdDeviation="0.694317"/>
<feComposite in2="hardAlpha" operator="out"/>
<feColorMatrix type="matrix" values="0 0 0 0 0 0 0 0 0 0 0 0 0 0 0 0 0 0 0.25 0"/>
<feBlend mode="normal" in2="BackgroundImageFix" result="effect1_dropShadow_10078:39398"/>
<feBlend mode="normal" in="SourceGraphic" in2="effect1_dropShadow_10078:39398" result="shape"/>
</filter>
<filter id="filter2_d_10078:39398" x="127.565" y="171.217" width="34.9042" height="31.2616" filterUnits="userSpaceOnUse" color-interpolation-filters="sRGB">
<feFlood flood-opacity="0" result="BackgroundImageFix"/>
<feColorMatrix in="SourceAlpha" type="matrix" values="0 0 0 0 0 0 0 0 0 0 0 0 0 0 0 0 0 0 127 0" result="hardAlpha"/>
<feOffset dy="1.38863"/>
<feGaussianBlur stdDeviation="0.694317"/>
<feComposite in2="hardAlpha" operator="out"/>
<feColorMatrix type="matrix" values="0 0 0 0 0 0 0 0 0 0 0 0 0 0 0 0 0 0 0.25 0"/>
<feBlend mode="normal" in2="BackgroundImageFix" result="effect1_dropShadow_10078:39398"/>
<feBlend mode="normal" in="SourceGraphic" in2="effect1_dropShadow_10078:39398" result="shape"/>
</filter>
<filter id="filter3_d_10078:39398" x="167.761" y="167.963" width="10.6386" height="14.3783" filterUnits="userSpaceOnUse" color-interpolation-filters="sRGB">
<feFlood flood-opacity="0" result="BackgroundImageFix"/>
<feColorMatrix in="SourceAlpha" type="matrix" values="0 0 0 0 0 0 0 0 0 0 0 0 0 0 0 0 0 0 127 0" result="hardAlpha"/>
<feOffset dy="1.38863"/>
<feGaussianBlur stdDeviation="0.694317"/>
<feComposite in2="hardAlpha" operator="out"/>
<feColorMatrix type="matrix" values="0 0 0 0 0 0 0 0 0 0 0 0 0 0 0 0 0 0 0.25 0"/>
<feBlend mode="normal" in2="BackgroundImageFix" result="effect1_dropShadow_10078:39398"/>
<feBlend mode="normal" in="SourceGraphic" in2="effect1_dropShadow_10078:39398" result="shape"/>
</filter>
<filter id="filter4_d_10078:39398" x="170.099" y="180.948" width="10.6386" height="14.3783" filterUnits="userSpaceOnUse" color-interpolation-filters="sRGB">
<feFlood flood-opacity="0" result="BackgroundImageFix"/>
<feColorMatrix in="SourceAlpha" type="matrix" values="0 0 0 0 0 0 0 0 0 0 0 0 0 0 0 0 0 0 127 0" result="hardAlpha"/>
<feOffset dy="1.38863"/>
<feGaussianBlur stdDeviation="0.694317"/>
<feComposite in2="hardAlpha" operator="out"/>
<feColorMatrix type="matrix" values="0 0 0 0 0 0 0 0 0 0 0 0 0 0 0 0 0 0 0.25 0"/>
<feBlend mode="normal" in2="BackgroundImageFix" result="effect1_dropShadow_10078:39398"/>
<feBlend mode="normal" in="SourceGraphic" in2="effect1_dropShadow_10078:39398" result="shape"/>
</filter>
<filter id="filter5_d_10078:39398" x="64.2969" y="17.6934" width="145.519" height="145.519" filterUnits="userSpaceOnUse" color-interpolation-filters="sRGB">
<feFlood flood-opacity="0" result="BackgroundImageFix"/>
<feColorMatrix in="SourceAlpha" type="matrix" values="0 0 0 0 0 0 0 0 0 0 0 0 0 0 0 0 0 0 127 0" result="hardAlpha"/>
<feOffset dy="1.38863"/>
<feGaussianBlur stdDeviation="0.694317"/>
<feComposite in2="hardAlpha" operator="out"/>
<feColorMatrix type="matrix" values="0 0 0 0 0 0 0 0 0 0 0 0 0 0 0 0 0 0 0.25 0"/>
<feBlend mode="normal" in2="BackgroundImageFix" result="effect1_dropShadow_10078:39398"/>
<feBlend mode="normal" in="SourceGraphic" in2="effect1_dropShadow_10078:39398" result="shape"/>
</filter>
<filter id="filter6_d_10078:39398" x="97.7715" y="164.67" width="99.9531" height="70.3993" filterUnits="userSpaceOnUse" color-interpolation-filters="sRGB">
<feFlood flood-opacity="0" result="BackgroundImageFix"/>
<feColorMatrix in="SourceAlpha" type="matrix" values="0 0 0 0 0 0 0 0 0 0 0 0 0 0 0 0 0 0 127 0" result="hardAlpha"/>
<feOffset dy="1.38863"/>
<feGaussianBlur stdDeviation="0.694317"/>
<feComposite in2="hardAlpha" operator="out"/>
<feColorMatrix type="matrix" values="0 0 0 0 0 0 0 0 0 0 0 0 0 0 0 0 0 0 0.25 0"/>
<feBlend mode="normal" in2="BackgroundImageFix" result="effect1_dropShadow_10078:39398"/>
<feBlend mode="normal" in="SourceGraphic" in2="effect1_dropShadow_10078:39398" result="shape"/>
</filter>
<filter id="filter7_d_10078:39398" x="250.348" y="35.2894" width="194.19" height="213.146" filterUnits="userSpaceOnUse" color-interpolation-filters="sRGB">
<feFlood flood-opacity="0" result="BackgroundImageFix"/>
<feColorMatrix in="SourceAlpha" type="matrix" values="0 0 0 0 0 0 0 0 0 0 0 0 0 0 0 0 0 0 127 0" result="hardAlpha"/>
<feOffset dy="5.69017"/>
<feGaussianBlur stdDeviation="7.11272"/>
<feColorMatrix type="matrix" values="0 0 0 0 0 0 0 0 0 0 0 0 0 0 0 0 0 0 0.25 0"/>
<feBlend mode="normal" in2="BackgroundImageFix" result="effect1_dropShadow_10078:39398"/>
<feBlend mode="normal" in="SourceGraphic" in2="effect1_dropShadow_10078:39398" result="shape"/>
</filter>
<linearGradient id="paint0_linear_10078:39398" x1="225.859" y1="0.321777" x2="225.859" y2="331.57" gradientUnits="userSpaceOnUse">
<stop offset="0.447917" stop-color="#C0CDD2" stop-opacity="0.67"/>
<stop offset="1" stop-color="#9FF9FF"/>
</linearGradient>
<linearGradient id="paint1_linear_10078:39398" x1="185.858" y1="134.308" x2="220.436" y2="183.472" gradientUnits="userSpaceOnUse">
<stop stop-color="#EFF2F3"/>
<stop offset="1" stop-color="white"/>
</linearGradient>
<linearGradient id="paint2_linear_10078:39398" x1="94.0729" y1="354.871" x2="92.891" y2="139.203" gradientUnits="userSpaceOnUse">
<stop stop-color="#C0CDD2"/>
<stop offset="0.936289" stop-color="white"/>
</linearGradient>
<linearGradient id="paint3_linear_10078:39398" x1="99.1598" y1="126.303" x2="99.1598" y2="246.767" gradientUnits="userSpaceOnUse">
<stop stop-color="white"/>
<stop offset="1" stop-color="#A9C6D1"/>
</linearGradient>
<linearGradient id="paint4_linear_10078:39398" x1="72.5483" y1="280.362" x2="49.9759" y2="141.091" gradientUnits="userSpaceOnUse">
<stop stop-color="#C0CDD2"/>
<stop offset="0.936289" stop-color="white"/>
</linearGradient>
<linearGradient id="paint5_linear_10078:39398" x1="63.5508" y1="126.303" x2="63.5508" y2="246.767" gradientUnits="userSpaceOnUse">
<stop stop-color="white"/>
<stop offset="1" stop-color="#A9C6D1"/>
</linearGradient>
<linearGradient id="paint6_linear_10078:39398" x1="132.874" y1="141.564" x2="155.526" y2="267.418" gradientUnits="userSpaceOnUse">
<stop stop-color="#E3E9EB"/>
<stop offset="0.56737" stop-color="white"/>
</linearGradient>
<linearGradient id="paint7_linear_10078:39398" x1="13.7128" y1="-29.2375" x2="13.7128" y2="22.9125" gradientUnits="userSpaceOnUse">
<stop stop-color="#50D5FF"/>
<stop offset="1" stop-color="#2C3585"/>
</linearGradient>
<radialGradient id="paint8_radial_10078:39398" cx="0" cy="0" r="1" gradientUnits="userSpaceOnUse" gradientTransform="translate(2.80411 4.80758) rotate(90) scale(7.0058 4.08626)">
<stop stop-color="#51E0FF"/>
<stop offset="1" stop-color="#4E7CB4"/>
</radialGradient>
<radialGradient id="paint9_radial_10078:39398" cx="0" cy="0" r="1" gradientUnits="userSpaceOnUse" gradientTransform="translate(2.80411 4.80758) rotate(90) scale(7.0058 4.08626)">
<stop stop-color="#FFB3B3"/>
<stop offset="1" stop-color="#F20000"/>
</radialGradient>
<radialGradient id="paint10_radial_10078:39398" cx="0" cy="0" r="1" gradientUnits="userSpaceOnUse" gradientTransform="translate(104.055 168.932) rotate(-171.262) scale(104.639)">
<stop offset="0.381" stop-color="#BFCCD1"/>
<stop offset="0.7578" stop-color="white"/>
</radialGradient>
<linearGradient id="paint11_linear_10078:39398" x1="190.146" y1="65.4981" x2="120.193" y2="78.192" gradientUnits="userSpaceOnUse">
<stop stop-color="#FFF668"/>
<stop offset="0.29" stop-color="#FF9C4C"/>
<stop offset="1" stop-color="#880000"/>
</linearGradient>
<radialGradient id="paint12_radial_10078:39398" cx="0" cy="0" r="1" gradientUnits="userSpaceOnUse" gradientTransform="translate(162.61 82.4215) rotate(169.715) scale(55.9574)">
<stop stop-color="white"/>
<stop offset="0.9385" stop-color="#880000"/>
</radialGradient>
<linearGradient id="paint13_linear_10078:39398" x1="111.973" y1="200.722" x2="172.077" y2="200.117" gradientUnits="userSpaceOnUse">
<stop stop-color="#EFF2F3"/>
<stop offset="1" stop-color="white"/>
</linearGradient>
<linearGradient id="paint14_linear_10078:39398" x1="196.026" y1="342.173" x2="189.934" y2="357.304" gradientUnits="userSpaceOnUse">
<stop stop-color="#504A44"/>
<stop offset="1" stop-color="#504A44" stop-opacity="0"/>
</linearGradient>
<linearGradient id="paint15_linear_10078:39398" x1="116.61" y1="342.739" x2="121.829" y2="358.028" gradientUnits="userSpaceOnUse">
<stop stop-color="#504A44"/>
<stop offset="1" stop-color="#504A44" stop-opacity="0"/>
</linearGradient>
</defs>
</svg>
