<svg width="189" height="61" viewBox="0 0 189 61" fill="none" xmlns="http://www.w3.org/2000/svg">
<rect opacity="0.5" x="0.320312" y="13.1357" width="187.361" height="46.9554" rx="23.4777" fill="#030047"/>
<g filter="url(#filter0_d)">
<path d="M77.3288 29.5287L80.0649 34.5124L74.0552 36.6134L80.0649 38.6655L77.1333 43.8446L72.2474 39.5449L73.4689 45.8966H67.7523L68.925 39.5449L64.0879 43.8934L61.0586 38.6166L67.0683 36.5156L61.1075 34.5613L63.8924 29.5287L68.9738 33.7795L67.7035 27.3301H73.5177L72.2474 33.7795L77.3288 29.5287Z" fill="#4048FF"/>
</g>
<g filter="url(#filter1_d)">
<path d="M105.458 29.5287L108.194 34.5124L102.184 36.6134L108.194 38.6655L105.262 43.8446L100.376 39.5449L101.598 45.8966H95.8812L97.0539 39.5449L92.2168 43.8934L89.1875 38.6166L95.1972 36.5156L89.2364 34.5613L92.0213 29.5287L97.1027 33.7795L95.8324 27.3301H101.647L100.376 33.7795L105.458 29.5287Z" fill="#4048FF"/>
</g>
<g filter="url(#filter2_d)">
<path d="M133.587 29.5287L136.323 34.5124L130.313 36.6134L136.323 38.6655L133.391 43.8446L128.505 39.5449L129.727 45.8966H124.01L125.183 39.5449L120.346 43.8934L117.316 38.6166L123.326 36.5156L117.365 34.5613L120.15 29.5287L125.232 33.7795L123.961 27.3301H129.776L128.505 33.7795L133.587 29.5287Z" fill="#4048FF"/>
</g>
<g filter="url(#filter3_d)">
<path d="M161.715 29.5287L164.451 34.5124L158.441 36.6134L164.451 38.6655L161.519 43.8446L156.633 39.5449L157.855 45.8966H152.138L153.311 39.5449L148.474 43.8934L145.444 38.6166L151.454 36.5156L145.493 34.5613L148.278 29.5287L153.36 33.7795L152.089 27.3301H157.903L156.633 33.7795L161.715 29.5287Z" fill="#4048FF"/>
</g>
<path d="M24.9294 28.7368L21.4535 15.7647C20.7864 13.2752 21.1356 10.6228 22.4243 8.39077C23.7129 6.15879 25.8354 4.53013 28.3249 3.86308C30.8143 3.19604 33.4668 3.54524 35.6988 4.83388C37.9308 6.12251 39.5594 8.24502 40.2265 10.7345L43.7024 23.7066C46.3371 25.0381 48.5055 27.1383 49.9205 29.7291C51.3356 32.3199 51.9306 35.2794 51.6269 38.2158C51.3232 41.1522 50.135 43.9272 48.2197 46.1736C46.3043 48.42 43.752 50.0319 40.9005 50.7959C38.049 51.56 35.0327 51.4402 32.2507 50.4525C29.4688 49.4648 27.0523 47.6556 25.3211 45.2644C23.5898 42.8733 22.6254 40.0128 22.5555 37.0615C22.4855 34.1103 23.3133 31.2073 24.9294 28.7368ZM28.8756 24.6915C30.241 23.7567 31.7559 23.0615 33.3551 22.6361C35.0001 22.1953 36.6548 22.0537 38.2628 22.1787L35.5332 11.992C35.1997 10.7473 34.3854 9.68605 33.2694 9.04173C32.1534 8.39741 30.8272 8.22281 29.5824 8.55633C28.3377 8.88986 27.2764 9.70419 26.6321 10.8202C25.9878 11.9362 25.8132 13.2624 26.1467 14.5071L28.8762 24.6938L28.8756 24.6915ZM38.3853 41.4091C39.63 41.0756 40.6913 40.2612 41.3356 39.1452C41.9799 38.0293 42.1545 36.703 41.821 35.4583C41.4875 34.2136 40.6731 33.1523 39.5571 32.508C38.4412 31.8637 37.1149 31.6891 35.8702 32.0226C34.6255 32.3561 33.5642 33.1704 32.9199 34.2864C32.2756 35.4024 32.101 36.7287 32.4345 37.9734C32.768 39.2181 33.5823 40.2794 34.6983 40.9237C35.8143 41.568 37.1406 41.7426 38.3853 41.4091Z" fill="white"/>
<path d="M31.2566 50.0403C31.5718 50.1781 31.8918 50.3047 32.2175 50.4199C34.9994 51.4074 38.0158 51.5275 40.867 50.7633C43.7189 49.9992 46.271 48.3878 48.1863 46.1412C50.1016 43.8946 51.2898 41.12 51.5937 38.1834C51.8968 35.2467 51.3019 32.2875 49.8872 29.6967C48.4717 27.1059 46.3033 25.0052 43.669 23.6744L40.1931 10.7018C39.7239 8.95097 38.7783 7.3815 37.4821 6.15542C36.9356 5.63871 36.327 5.18327 35.6652 4.80117C34.7059 4.24738 33.6701 3.86771 32.602 3.66699C32.7939 3.76131 32.9825 3.86207 33.1687 3.96928C35.4008 5.25823 37.0291 7.38069 37.6966 9.86993L41.1725 22.8425C43.8068 24.1734 45.9752 26.274 47.3907 28.8649C48.8054 31.4557 49.4003 34.4148 49.0972 37.3515C48.7933 40.2881 47.6051 43.0627 45.6898 45.3093C43.7746 47.5559 41.2224 49.1673 38.3705 49.9315C36.0368 50.557 33.5927 50.59 31.2566 50.0403Z" fill="url(#paint0_linear)"/>
<path d="M28.7165 24.7467C28.0329 25.0716 27.5785 25.7482 26.9514 26.1771L23.6164 13.6425C23.2835 12.3979 23.4576 11.0718 24.1025 9.95537C24.7466 8.83973 25.8074 8.02557 27.0528 7.69185C28.2974 7.35812 29.6235 7.53304 30.7391 8.17712C30.8407 8.23596 30.9398 8.29803 31.0366 8.36333C30.54 8.33995 30.0386 8.39235 29.5493 8.52374C28.3039 8.85747 27.2431 9.67163 26.599 10.7873C25.9541 11.9037 25.78 13.2297 26.1129 14.4744L28.7165 24.7467Z" fill="url(#paint1_linear)"/>
<path d="M37.325 31.8297C37.2282 31.7644 37.1291 31.7023 37.0275 31.6435C35.9111 30.9994 34.585 30.8245 33.3404 31.1582C32.0958 31.4919 31.0342 32.3061 30.3901 33.4217C30.112 33.9038 29.9209 34.4245 29.821 34.9614C29.6896 35.6683 29.7154 36.4019 29.9048 37.1088C30.0628 37.6997 30.3296 38.2503 30.6859 38.7339C31.0793 39.2684 31.5823 39.7214 32.1683 40.0592C32.7318 40.384 33.3493 40.5904 33.9829 40.671C34.1102 40.6871 34.2392 40.6984 34.3674 40.7048C33.7797 40.3066 33.2896 39.7859 32.9285 39.1837C32.6971 38.7992 32.519 38.3817 32.4013 37.9407C32.2127 37.237 32.1869 36.5075 32.3167 35.8046C32.4158 35.2637 32.6069 34.7389 32.8866 34.2536C33.5306 33.138 34.5923 32.3238 35.8369 31.9901C36.3262 31.8587 36.8284 31.8063 37.325 31.8297Z" fill="url(#paint2_linear)"/>
<path fill-rule="evenodd" clip-rule="evenodd" d="M19.0847 13.7091C8.61069 16.0678 0.787109 25.427 0.787109 36.6135C0.787109 49.5798 11.2984 60.0912 24.2648 60.0912H164.67C177.636 60.0912 188.148 49.5798 188.148 36.6135C188.148 23.6471 177.636 13.1357 164.67 13.1357H43.8054V14.1357H164.67C177.084 14.1357 187.148 24.1994 187.148 36.6135C187.148 49.0276 177.084 59.0912 164.67 59.0912H24.2648C11.8507 59.0912 1.78711 49.0276 1.78711 36.6135C1.78711 25.9822 9.16779 17.0747 19.0847 14.7356V13.7091Z" fill="#4048FF"/>
<defs>
<filter id="filter0_d" x="57.0586" y="27.3301" width="27.0063" height="26.5666" filterUnits="userSpaceOnUse" color-interpolation-filters="sRGB">
<feFlood flood-opacity="0" result="BackgroundImageFix"/>
<feColorMatrix in="SourceAlpha" type="matrix" values="0 0 0 0 0 0 0 0 0 0 0 0 0 0 0 0 0 0 127 0"/>
<feOffset dy="4"/>
<feGaussianBlur stdDeviation="2"/>
<feColorMatrix type="matrix" values="0 0 0 0 0 0 0 0 0 0 0 0 0 0 0 0 0 0 0.6 0"/>
<feBlend mode="normal" in2="BackgroundImageFix" result="effect1_dropShadow"/>
<feBlend mode="normal" in="SourceGraphic" in2="effect1_dropShadow" result="shape"/>
</filter>
<filter id="filter1_d" x="85.1875" y="27.3301" width="27.0063" height="26.5666" filterUnits="userSpaceOnUse" color-interpolation-filters="sRGB">
<feFlood flood-opacity="0" result="BackgroundImageFix"/>
<feColorMatrix in="SourceAlpha" type="matrix" values="0 0 0 0 0 0 0 0 0 0 0 0 0 0 0 0 0 0 127 0"/>
<feOffset dy="4"/>
<feGaussianBlur stdDeviation="2"/>
<feColorMatrix type="matrix" values="0 0 0 0 0 0 0 0 0 0 0 0 0 0 0 0 0 0 0.6 0"/>
<feBlend mode="normal" in2="BackgroundImageFix" result="effect1_dropShadow"/>
<feBlend mode="normal" in="SourceGraphic" in2="effect1_dropShadow" result="shape"/>
</filter>
<filter id="filter2_d" x="113.316" y="27.3301" width="27.0063" height="26.5666" filterUnits="userSpaceOnUse" color-interpolation-filters="sRGB">
<feFlood flood-opacity="0" result="BackgroundImageFix"/>
<feColorMatrix in="SourceAlpha" type="matrix" values="0 0 0 0 0 0 0 0 0 0 0 0 0 0 0 0 0 0 127 0"/>
<feOffset dy="4"/>
<feGaussianBlur stdDeviation="2"/>
<feColorMatrix type="matrix" values="0 0 0 0 0 0 0 0 0 0 0 0 0 0 0 0 0 0 0.6 0"/>
<feBlend mode="normal" in2="BackgroundImageFix" result="effect1_dropShadow"/>
<feBlend mode="normal" in="SourceGraphic" in2="effect1_dropShadow" result="shape"/>
</filter>
<filter id="filter3_d" x="141.444" y="27.3301" width="27.0063" height="26.5666" filterUnits="userSpaceOnUse" color-interpolation-filters="sRGB">
<feFlood flood-opacity="0" result="BackgroundImageFix"/>
<feColorMatrix in="SourceAlpha" type="matrix" values="0 0 0 0 0 0 0 0 0 0 0 0 0 0 0 0 0 0 127 0"/>
<feOffset dy="4"/>
<feGaussianBlur stdDeviation="2"/>
<feColorMatrix type="matrix" values="0 0 0 0 0 0 0 0 0 0 0 0 0 0 0 0 0 0 0.6 0"/>
<feBlend mode="normal" in2="BackgroundImageFix" result="effect1_dropShadow"/>
<feBlend mode="normal" in="SourceGraphic" in2="effect1_dropShadow" result="shape"/>
</filter>
<linearGradient id="paint0_linear" x1="37.561" y1="3.66699" x2="46.2767" y2="46.1719" gradientUnits="userSpaceOnUse">
<stop stop-color="#D6D6E8"/>
<stop offset="1" stop-color="#D6D6E8"/>
<stop offset="1" stop-color="#ADADC8"/>
</linearGradient>
<linearGradient id="paint1_linear" x1="37.561" y1="3.66699" x2="46.2767" y2="46.1719" gradientUnits="userSpaceOnUse">
<stop stop-color="#D6D6E8"/>
<stop offset="1" stop-color="#D6D6E8"/>
<stop offset="1" stop-color="#ADADC8"/>
</linearGradient>
<linearGradient id="paint2_linear" x1="37.561" y1="3.66699" x2="46.2767" y2="46.1719" gradientUnits="userSpaceOnUse">
<stop stop-color="#D6D6E8"/>
<stop offset="1" stop-color="#D6D6E8"/>
<stop offset="1" stop-color="#ADADC8"/>
</linearGradient>
</defs>
</svg>
