<svg width="71" height="71" viewBox="0 0 71 71" fill="none" xmlns="http://www.w3.org/2000/svg">
<circle cx="35.6768" cy="35.5203" r="35" fill="#F7931A"/>
<path d="M42.573 16.9006C36.0904 16.9006 30.8491 22.1419 30.8491 28.6246C30.8491 30.0039 31.1249 31.3832 31.5387 32.7625L17.0562 47.2451V54.1415H23.9526V50.0036H28.0905V45.8658H32.2284L38.4352 39.659C39.6765 40.0727 41.0558 40.3486 42.573 40.3486C49.0557 40.3486 54.297 35.1073 54.297 28.6247C54.297 22.142 49.0557 16.9006 42.573 16.9006ZM46.0213 29.3143C43.6765 29.3143 41.8834 27.5212 41.8834 25.1764C41.8834 22.8316 43.6765 21.0385 46.0213 21.0385C48.3661 21.0385 50.1592 22.8316 50.1592 25.1764C50.1592 27.5212 48.3661 29.3143 46.0213 29.3143Z" fill="white"/>
</svg>
