<svg width="33" height="33" viewBox="0 0 33 33" fill="none" xmlns="http://www.w3.org/2000/svg">
<circle cx="16.2822" cy="16.014" r="16" fill="#F6F6FF"/>
<path d="M19.3859 7.63245C16.4679 7.63245 14.1087 9.99171 14.1087 12.9097C14.1087 13.5306 14.2328 14.1514 14.4191 14.7723L7.90009 21.2913V24.3956H11.0044V22.533H12.867V20.6705H14.7295L17.5234 17.8766C18.0822 18.0629 18.703 18.187 19.3859 18.187C22.304 18.187 24.6632 15.8278 24.6632 12.9098C24.6632 9.99174 22.304 7.63245 19.3859 7.63245ZM20.9381 13.2202C19.8826 13.2202 19.0755 12.4131 19.0755 11.3576C19.0755 10.3021 19.8826 9.49502 20.9381 9.49502C21.9936 9.49502 22.8007 10.3021 22.8007 11.3576C22.8007 12.4131 21.9936 13.2202 20.9381 13.2202Z" fill="#FFA318"/>
</svg>
