<svg width="29" height="29" viewBox="0 0 29 29" fill="none" xmlns="http://www.w3.org/2000/svg">
<path d="M27.9304 3.76932C28.287 4.14209 28.287 4.74647 27.9304 5.11925L26.026 7.1102L22.3738 3.29202L24.2782 1.30106C24.6348 0.928291 25.2129 0.928291 25.5695 1.30106L27.9304 3.76932Z" fill="#F52079"/>
<path d="M24.7348 8.46013L21.0826 4.64195L8.64146 17.6486C8.54123 17.7534 8.46572 17.8811 8.42089 18.0217L6.9517 22.6296C6.83273 23.0027 7.17227 23.3577 7.52916 23.2333L11.9367 21.6974C12.0712 21.6505 12.1934 21.5715 12.2936 21.4668L24.7348 8.46013Z" fill="#F52079"/>
<path fill-rule="evenodd" clip-rule="evenodd" d="M1.44922 25.8397C1.44922 27.4212 2.67557 28.7033 4.18835 28.7033H24.2753C25.7881 28.7033 27.0144 27.4212 27.0144 25.8397V14.3851C27.0144 13.8579 26.6057 13.4306 26.1014 13.4306C25.5971 13.4306 25.1883 13.8579 25.1883 14.3851V25.8397C25.1883 26.3668 24.7796 26.7942 24.2753 26.7942H4.18835C3.68409 26.7942 3.27531 26.3668 3.27531 25.8397V4.83967C3.27531 4.31249 3.68409 3.88512 4.18835 3.88512H16.0579C16.5622 3.88512 16.971 3.45776 16.971 2.93058C16.971 2.40339 16.5622 1.97603 16.0579 1.97603H4.18835C2.67557 1.97603 1.44922 3.25812 1.44922 4.83967V25.8397Z" fill="#F52079"/>
</svg>
