<svg width="48" height="48" viewBox="0 0 48 48" fill="none" xmlns="http://www.w3.org/2000/svg">
<path d="M24 0C21.128 0 18.32 0.502 15.652 1.492L16.348 3.367C18.792 2.46 21.367 2 24 2C36.131 2 46 11.869 46 24C46 36.131 36.131 46 24 46C11.869 46 2 36.131 2 24C2 17.405 4.963 11.205 10 7.042V14H12V4H2V6H8.126C2.993 10.53 0 17.068 0 24C0 37.233 10.767 48 24 48C37.233 48 48 37.233 48 24C48 10.767 37.233 0 24 0Z" fill="#A3A3A3"/>
<path d="M18 32H16V34H32V32H30V28.586L25.414 24L30 19.414V16H32V14H16V16H18V19.414L22.586 24L18 28.586V32ZM20 18.586V16H28V18.586L24 22.586L20 18.586ZM24 25.414L28 29.414V32H20V29.414L24 25.414Z" fill="#A3A3A3"/>
<path d="M20 38H18V40H20V38Z" fill="#A3A3A3"/>
<path d="M25 38H23V40H25V38Z" fill="#A3A3A3"/>
<path d="M30 38H28V40H30V38Z" fill="#A3A3A3"/>
</svg>
