<svg width="21" height="24" viewBox="0 0 21 24" fill="none" xmlns="http://www.w3.org/2000/svg">
<path d="M1.44588 23.9368C1.22487 23.9368 1.01291 23.8491 0.856627 23.6928C0.700346 23.5365 0.612549 23.3245 0.612549 23.1035C0.612549 22.8825 0.700346 22.6705 0.856627 22.5143C1.01291 22.358 1.22487 22.2702 1.44588 22.2702H3.11255V20.6035C3.11221 19.1885 3.51219 17.8022 4.2663 16.6048C5.02041 15.4074 6.09787 14.4478 7.37422 13.8368C7.85755 13.6052 8.11255 13.2085 8.11255 12.8535V11.6868C8.11255 11.3319 7.85588 10.9352 7.37422 10.7035C6.09787 10.0925 5.02041 9.13292 4.2663 7.93555C3.51219 6.73818 3.11221 5.3519 3.11255 3.93685V2.27018H1.44588C1.22487 2.27018 1.01291 2.18239 0.856627 2.0261C0.700346 1.86982 0.612549 1.65786 0.612549 1.43685C0.612549 1.21584 0.700346 1.00387 0.856627 0.847593C1.01291 0.691313 1.22487 0.603516 1.44588 0.603516H19.7792C20.0002 0.603516 20.2122 0.691313 20.3685 0.847593C20.5247 1.00387 20.6125 1.21584 20.6125 1.43685C20.6125 1.65786 20.5247 1.86982 20.3685 2.0261C20.2122 2.18239 20.0002 2.27018 19.7792 2.27018H18.1125V3.93685C18.1129 5.3519 17.7129 6.73818 16.9588 7.93555C16.2047 9.13292 15.1272 10.0925 13.8509 10.7035C13.3675 10.9352 13.1125 11.3319 13.1125 11.6868V12.8535C13.1125 13.2085 13.3692 13.6052 13.8509 13.8368C15.1272 14.4478 16.2047 15.4074 16.9588 16.6048C17.7129 17.8022 18.1129 19.1885 18.1125 20.6035V22.2702H19.7792C20.0002 22.2702 20.2122 22.358 20.3685 22.5143C20.5247 22.6705 20.6125 22.8825 20.6125 23.1035C20.6125 23.3245 20.5247 23.5365 20.3685 23.6928C20.2122 23.8491 20.0002 23.9368 19.7792 23.9368H1.44588ZM4.77921 2.27018V3.93685C4.77921 4.83185 4.97922 5.67852 5.34088 6.43685H15.8842C16.2442 5.67852 16.4459 4.83185 16.4459 3.93685V2.27018H4.77921ZM9.77921 12.8535C9.77921 14.0219 8.98255 14.9135 8.09421 15.3402C7.10137 15.8154 6.26323 16.5618 5.67663 17.4931C5.09003 18.4245 4.77891 19.5028 4.77921 20.6035C4.77921 20.6035 6.22255 18.4385 9.77921 18.1369V12.8535ZM11.4459 12.8535V18.1369C15.0025 18.4385 16.4459 20.6035 16.4459 20.6035C16.4462 19.5028 16.1351 18.4245 15.5485 17.4931C14.9619 16.5618 14.1237 15.8154 13.1309 15.3402C12.2425 14.9135 11.4459 14.0235 11.4459 12.8552V12.8535Z" fill="#ADADC8"/>
</svg>
