<svg width="22" height="21" viewBox="0 0 22 21" fill="none" xmlns="http://www.w3.org/2000/svg">
<path d="M15.1868 17.7347L14.6102 13.1189C14.5285 12.465 14.2108 11.8636 13.7168 11.4276C13.2227 10.9917 12.5865 10.7512 11.9276 10.7515H9.94213C9.28356 10.7517 8.64771 10.9923 8.15406 11.4282C7.66041 11.8642 7.34292 12.4654 7.26126 13.1189L6.68383 17.7347C6.65214 17.9883 6.67476 18.2457 6.7502 18.4899C6.82564 18.7341 6.95216 18.9594 7.12137 19.151C7.29057 19.3425 7.49859 19.4958 7.73161 19.6008C7.96463 19.7058 8.21731 19.76 8.47288 19.7598H13.3986C13.6541 19.7598 13.9067 19.7056 14.1396 19.6005C14.3725 19.4955 14.5804 19.3421 14.7495 19.1506C14.9186 18.9591 15.0451 18.7338 15.1205 18.4897C15.1959 18.2456 15.2185 17.9882 15.1868 17.7347V17.7347Z" stroke="#7A7FFF" stroke-width="1.80166" stroke-linecap="round" stroke-linejoin="round"/>
<path d="M10.9349 7.14815C12.4275 7.14815 13.6374 5.93821 13.6374 4.44566C13.6374 2.95311 12.4275 1.74316 10.9349 1.74316C9.44237 1.74316 8.23242 2.95311 8.23242 4.44566C8.23242 5.93821 9.44237 7.14815 10.9349 7.14815Z" stroke="#7A7FFF" stroke-width="1.80166"/>
<path d="M3.7294 9.85064C4.72443 9.85064 5.53106 9.04401 5.53106 8.04898C5.53106 7.05395 4.72443 6.24731 3.7294 6.24731C2.73437 6.24731 1.92773 7.05395 1.92773 8.04898C1.92773 9.04401 2.73437 9.85064 3.7294 9.85064Z" stroke="#7A7FFF" stroke-width="1.80166"/>
<path d="M18.1415 9.85064C19.1365 9.85064 19.9432 9.04401 19.9432 8.04898C19.9432 7.05395 19.1365 6.24731 18.1415 6.24731C17.1465 6.24731 16.3398 7.05395 16.3398 8.04898C16.3398 9.04401 17.1465 9.85064 18.1415 9.85064Z" stroke="#7A7FFF" stroke-width="1.80166"/>
<path d="M3.72908 12.5532H3.45342C3.02694 12.5532 2.61426 12.7044 2.28881 12.98C1.96336 13.2557 1.74624 13.6378 1.67608 14.0585L1.37611 15.8602C1.33306 16.1183 1.34676 16.3827 1.41626 16.635C1.48575 16.8873 1.60938 17.1214 1.77853 17.3211C1.94769 17.5208 2.15831 17.6812 2.39575 17.7912C2.63319 17.9013 2.89175 17.9582 3.15345 17.9582H6.43157" stroke="#7A7FFF" stroke-width="1.80166" stroke-linecap="round" stroke-linejoin="round"/>
<path d="M18.1419 12.5532H18.4176C18.8441 12.5532 19.2568 12.7044 19.5822 12.98C19.9077 13.2557 20.1248 13.6378 20.1949 14.0585L20.4949 15.8602C20.538 16.1183 20.5243 16.3827 20.4548 16.635C20.3853 16.8873 20.2616 17.1214 20.0925 17.3211C19.9233 17.5208 19.7127 17.6812 19.4753 17.7912C19.2378 17.9013 18.9793 17.9582 18.7176 17.9582H15.4395" stroke="#7A7FFF" stroke-width="1.80166" stroke-linecap="round" stroke-linejoin="round"/>
</svg>
