<svg width="22" height="21" viewBox="0 0 22 21" fill="none" xmlns="http://www.w3.org/2000/svg">
<path d="M15.6419 17.5902L15.0653 12.9743C14.9836 12.3205 14.6659 11.7191 14.1718 11.2831C13.6778 10.8471 13.0415 10.6067 12.3826 10.6069H10.3972C9.73863 10.6071 9.10279 10.8478 8.60914 11.2837C8.11548 11.7196 7.798 12.3208 7.71634 12.9743L7.13891 17.5902C7.10721 17.8438 7.12984 18.1012 7.20528 18.3454C7.28071 18.5896 7.40724 18.8149 7.57644 19.0064C7.74565 19.198 7.95367 19.3513 8.18669 19.4563C8.41971 19.5612 8.67239 19.6154 8.92796 19.6152H13.8537C14.1092 19.6153 14.3618 19.561 14.5947 19.456C14.8276 19.351 15.0355 19.1976 15.2046 19.0061C15.3737 18.8146 15.5002 18.5893 15.5755 18.3452C15.6509 18.1011 15.6735 17.8437 15.6419 17.5902V17.5902Z" stroke="white" stroke-width="1.80166" stroke-linecap="round" stroke-linejoin="round"/>
<path d="M11.39 7.00362C12.8825 7.00362 14.0925 5.79367 14.0925 4.30113C14.0925 2.80858 12.8825 1.59863 11.39 1.59863C9.89745 1.59863 8.6875 2.80858 8.6875 4.30113C8.6875 5.79367 9.89745 7.00362 11.39 7.00362Z" stroke="white" stroke-width="1.80166"/>
<path d="M4.18448 9.70587C5.17951 9.70587 5.98614 8.89923 5.98614 7.9042C5.98614 6.90917 5.17951 6.10254 4.18448 6.10254C3.18944 6.10254 2.38281 6.90917 2.38281 7.9042C2.38281 8.89923 3.18944 9.70587 4.18448 9.70587Z" stroke="white" stroke-width="1.80166"/>
<path d="M18.5966 9.70587C19.5916 9.70587 20.3982 8.89923 20.3982 7.9042C20.3982 6.90917 19.5916 6.10254 18.5966 6.10254C17.6016 6.10254 16.7949 6.90917 16.7949 7.9042C16.7949 8.89923 17.6016 9.70587 18.5966 9.70587Z" stroke="white" stroke-width="1.80166"/>
<path d="M4.18416 12.4087H3.9085C3.48201 12.4086 3.06934 12.5599 2.74389 12.8355C2.41844 13.1112 2.20132 13.4933 2.13116 13.914L1.83118 15.7156C1.78814 15.9738 1.80184 16.2382 1.87133 16.4905C1.94083 16.7428 2.06446 16.9769 2.23361 17.1766C2.40277 17.3763 2.61339 17.5367 2.85083 17.6467C3.08827 17.7567 3.34683 17.8137 3.60853 17.8137H6.88665" stroke="white" stroke-width="1.80166" stroke-linecap="round" stroke-linejoin="round"/>
<path d="M18.597 12.4087H18.8727C19.2992 12.4086 19.7118 12.5599 20.0373 12.8355C20.3627 13.1112 20.5799 13.4933 20.65 13.914L20.95 15.7156C20.993 15.9738 20.9793 16.2382 20.9098 16.4905C20.8404 16.7428 20.7167 16.9769 20.5476 17.1766C20.3784 17.3763 20.1678 17.5367 19.9304 17.6467C19.6929 17.7567 19.4344 17.8137 19.1727 17.8137H15.8945" stroke="white" stroke-width="1.80166" stroke-linecap="round" stroke-linejoin="round"/>
</svg>
