<svg width="33" height="32" viewBox="0 0 33 32" fill="none" xmlns="http://www.w3.org/2000/svg">
<path fill-rule="evenodd" clip-rule="evenodd" d="M32.481 10.2929C32.8716 10.6834 32.8716 11.3166 32.481 11.7071L26.481 17.7071C26.2935 17.8946 26.0391 18 25.7739 18C25.5087 18 25.2544 17.8946 25.0668 17.7071L22.0668 14.7071C21.6763 14.3166 21.6763 13.6834 22.0668 13.2929C22.4573 12.9024 23.0905 12.9024 23.481 13.2929L25.7739 15.5858L31.0668 10.2929C31.4573 9.90237 32.0905 9.90237 32.481 10.2929Z" fill="white"/>
<path d="M2.77393 28C2.77393 28 0.773926 28 0.773926 26C0.773926 24 2.77393 18 12.7739 18C22.7739 18 24.7739 24 24.7739 26C24.7739 28 22.7739 28 22.7739 28H2.77393Z" fill="white"/>
<path d="M12.7739 16C16.0876 16 18.7739 13.3137 18.7739 10C18.7739 6.68629 16.0876 4 12.7739 4C9.46022 4 6.77393 6.68629 6.77393 10C6.77393 13.3137 9.46022 16 12.7739 16Z" fill="white"/>
</svg>
