<svg width="33" height="33" viewBox="0 0 33 33" fill="none" xmlns="http://www.w3.org/2000/svg">
<path fill-rule="evenodd" clip-rule="evenodd" d="M32.3197 10.3847C32.7102 10.7752 32.7102 11.4084 32.3197 11.7989L26.3197 17.7989C26.1321 17.9864 25.8778 18.0918 25.6125 18.0918C25.3473 18.0918 25.093 17.9864 24.9054 17.7989L21.9054 14.7989C21.5149 14.4084 21.5149 13.7752 21.9054 13.3847C22.296 12.9942 22.9291 12.9942 23.3197 13.3847L25.6125 15.6776L30.9054 10.3847C31.296 9.99417 31.9291 9.99417 32.3197 10.3847Z" fill="#D6D6E8"/>
<path d="M2.61255 28.0918C2.61255 28.0918 0.612549 28.0918 0.612549 26.0918C0.612549 24.0918 2.61255 18.0918 12.6125 18.0918C22.6125 18.0918 24.6125 24.0918 24.6125 26.0918C24.6125 28.0918 22.6125 28.0918 22.6125 28.0918H2.61255Z" fill="#D6D6E8"/>
<path d="M12.6125 16.0918C15.9263 16.0918 18.6125 13.4055 18.6125 10.0918C18.6125 6.77809 15.9263 4.0918 12.6125 4.0918C9.29884 4.0918 6.61255 6.77809 6.61255 10.0918C6.61255 13.4055 9.29884 16.0918 12.6125 16.0918Z" fill="#D6D6E8"/>
</svg>
