<svg width="33" height="33" viewBox="0 0 33 33" fill="none" xmlns="http://www.w3.org/2000/svg">
<path fill-rule="evenodd" clip-rule="evenodd" d="M32.1661 10.9765C32.5566 11.367 32.5566 12.0002 32.1661 12.3907L26.1661 18.3907C25.9786 18.5782 25.7242 18.6836 25.459 18.6836C25.1938 18.6836 24.9394 18.5782 24.7519 18.3907L21.7519 15.3907C21.3614 15.0002 21.3614 14.367 21.7519 13.9765C22.1424 13.586 22.7756 13.586 23.1661 13.9765L25.459 16.2694L30.7519 10.9765C31.1424 10.586 31.7756 10.586 32.1661 10.9765Z" fill="#F52079"/>
<path d="M2.45898 28.6836C2.45898 28.6836 0.458984 28.6836 0.458984 26.6836C0.458984 24.6836 2.45898 18.6836 12.459 18.6836C22.459 18.6836 24.459 24.6836 24.459 26.6836C24.459 28.6836 22.459 28.6836 22.459 28.6836H2.45898Z" fill="#F52079"/>
<path d="M12.459 16.6836C15.7727 16.6836 18.459 13.9973 18.459 10.6836C18.459 7.36989 15.7727 4.68359 12.459 4.68359C9.14528 4.68359 6.45898 7.36989 6.45898 10.6836C6.45898 13.9973 9.14528 16.6836 12.459 16.6836Z" fill="#F52079"/>
</svg>
