<svg width="54" height="54" viewBox="0 0 54 54" fill="none" xmlns="http://www.w3.org/2000/svg">
<g clip-path="url(#clip0)">
<path d="M20.5958 22.5422C22.6068 22.5422 24.237 20.912 24.237 18.901C24.237 16.89 22.6068 15.2598 20.5958 15.2598C18.5848 15.2598 16.9546 16.89 16.9546 18.901C16.9546 20.912 18.5848 22.5422 20.5958 22.5422Z" fill="#323754"/>
<path d="M50.4836 32.3018C48.7642 30.6835 46.5896 29.6214 44.2127 29.318V10.8085C44.2127 8.83613 43.4035 7.06609 42.1392 5.75121C40.8243 4.43632 39.0543 3.67773 37.0819 3.67773H7.74987C5.77754 3.67773 4.0075 4.48689 2.69261 5.75121C1.37773 7.06609 0.619141 8.83613 0.619141 10.8085V34.1224V36.297V41.0003C0.619141 42.9726 1.4283 44.7426 2.69261 46.0575C4.0075 47.3724 5.77754 48.131 7.74987 48.131H36.121C37.9922 49.6482 40.3186 50.609 42.8978 50.609C45.8815 50.609 48.5619 49.3953 50.4836 47.4735C52.4054 45.5518 53.6191 42.8714 53.6191 39.8877C53.6191 36.9039 52.4054 34.2235 50.4836 32.3018ZM3.29948 10.8085C3.29948 9.59472 3.80521 8.48212 4.61437 7.72354C5.42353 6.91438 6.53613 6.40865 7.74987 6.40865H37.0819C38.2957 6.40865 39.4083 6.91438 40.2174 7.72354C41.0266 8.5327 41.5323 9.64529 41.5323 10.859V26.6377L34.0476 19.1529C33.5419 18.6472 32.6821 18.5966 32.1258 19.1529L20.8481 30.4812L13.2117 22.7941C12.706 22.2884 11.8462 22.2378 11.2899 22.7941L3.29948 30.8857V10.8085ZM7.69929 45.5518V45.4506C6.48555 45.4506 5.37296 44.9449 4.5638 44.1357C3.80521 43.3266 3.29948 42.214 3.29948 41.0003V36.297V34.7293L12.2508 25.7274L19.8873 33.3638C20.393 33.8695 21.2527 33.8695 21.809 33.3638L33.0867 22.0356L40.4703 29.4697C40.3186 29.5203 40.1669 29.5709 40.0151 29.6214C39.8128 29.672 39.6106 29.7226 39.3577 29.8237C39.1554 29.8743 38.9531 29.9754 38.7508 30.026C38.5991 30.0766 38.498 30.1272 38.3462 30.2283C38.144 30.3294 37.9922 30.38 37.8405 30.4812C37.5877 30.6329 37.3348 30.7846 37.0819 30.9363C36.9302 31.0375 36.8291 31.088 36.6773 31.1892C36.5762 31.2398 36.5256 31.2903 36.4245 31.3409C35.9693 31.6443 35.5648 31.9983 35.2107 32.4029C33.289 34.3247 32.0752 37.005 32.0752 39.9888C32.0752 40.7474 32.1764 41.4554 32.3281 42.214C32.3787 42.4163 32.4293 42.568 32.4798 42.7703C32.6315 43.276 32.7833 43.7817 32.9856 44.2875V44.338C33.1878 44.7426 33.3901 45.1978 33.643 45.5518H7.69929ZM48.5113 45.5518C47.0447 47.0184 45.0724 47.8781 42.8472 47.8781C40.7231 47.8781 38.7508 47.0184 37.3348 45.6529C37.1325 45.4506 36.9302 45.1978 36.7279 44.9955C36.5762 44.8438 36.4245 44.6415 36.2728 44.4898C36.0705 44.2369 35.9188 43.9335 35.767 43.63C35.6659 43.4277 35.5648 43.276 35.4636 43.0737C35.3625 42.8209 35.2613 42.5174 35.2107 42.214C35.1602 42.0117 35.059 41.7588 35.0085 41.5565C34.9073 41.0508 34.8567 40.4945 34.8567 39.9382C34.8567 37.713 35.767 35.7407 37.1831 34.2741C38.5991 32.8075 40.622 31.9478 42.8472 31.9478C45.0724 31.9478 47.0447 32.8581 48.5113 34.2741C49.9779 35.7407 50.8377 37.713 50.8377 39.9382C50.8377 42.1128 49.9273 44.0852 48.5113 45.5518Z" fill="#323754"/>
<path d="M43.8086 34.4768C43.7075 34.3757 43.5558 34.2746 43.3535 34.1734C43.2017 34.1228 43.05 34.0723 42.8983 34.0723C42.8477 34.0723 42.8477 34.0723 42.8477 34.0723C42.7972 34.0723 42.7972 34.0723 42.7972 34.0723C42.6454 34.0723 42.4937 34.1228 42.342 34.1734C42.1903 34.224 42.0386 34.3251 41.8869 34.4768L38.7514 37.6123C38.2456 38.1181 38.2456 38.9778 38.7514 39.5341C39.2571 40.0398 40.1168 40.0398 40.6731 39.5341L41.4823 38.7249V44.2879C41.4823 45.0465 42.0892 45.6534 42.8477 45.6534C43.6063 45.6534 44.2132 45.0465 44.2132 44.2879V38.7249L45.0224 39.5341C45.5281 40.0398 46.3878 40.0398 46.9441 39.5341C47.4498 39.0284 47.4498 38.1686 46.9441 37.6123L43.8086 34.4768Z" fill="#323754"/>
</g>
<defs>
<clipPath id="clip0">
<rect width="53" height="53" fill="white" transform="translate(0.619141 0.642578)"/>
</clipPath>
</defs>
</svg>
