<svg width="20" height="20" viewBox="0 0 20 20" fill="none" xmlns="http://www.w3.org/2000/svg">
<path d="M8.81905 11.1809V18.8191C8.81905 19.4713 9.34778 20 10 20C10.6522 20 11.1809 19.4713 11.1809 18.8191V11.1809H18.8191C19.4713 11.1809 20 10.6522 20 10C20 9.34778 19.4713 8.81905 18.8191 8.81905H11.1809V1.18095C11.1809 0.528728 10.6522 0 10 0C9.34778 0 8.81905 0.528728 8.81905 1.18095V8.81905L1.18095 8.81905C0.528728 8.81905 0 9.34778 0 10C0 10.6522 0.528728 11.1809 1.18095 11.1809H8.81905Z" fill="#4048FF"/>
</svg>
