<svg width="477" height="356" viewBox="0 0 477 356" fill="none" xmlns="http://www.w3.org/2000/svg">
<path d="M207.497 60.4994C238.465 73.5681 219.938 109.934 207.496 120.836C191.134 143.781 162.422 140.031 166.142 161.089C177.964 228.031 117.423 292.885 55.6163 243.009C18.6618 213.188 31.7203 174.85 36.4573 162.274C53.3821 117.344 81.0965 125.148 96.5698 89.2558C117.228 41.3364 168.786 44.1635 207.497 60.4994Z" fill="url(#paint0_linear)"/>
<path d="M428.831 166.787C444.99 186.635 446.819 205.029 441.432 219.791C432.806 243.425 422.3 243.55 407.158 278.198C388.603 320.656 331.39 266.654 330.215 230.875C329.04 195.095 362.616 193.609 371.837 170.495C381.058 147.38 408.633 141.977 428.831 166.787Z" fill="url(#paint1_linear)"/>
<path d="M9.09229 297.641C9.09229 290 15.2859 283.807 22.926 283.807H443.307C450.947 283.807 457.141 290 457.141 297.641V299.654C457.141 306.182 451.849 311.474 445.321 311.474H443.393C437.93 311.474 433.501 315.903 433.501 321.366C433.501 326.83 429.072 331.258 423.609 331.258H376.565C369.829 331.258 364.368 336.719 364.368 343.455C364.368 350.191 358.908 355.652 352.172 355.652H111.799C105.063 355.652 99.6019 350.191 99.6019 343.455C99.6019 336.719 94.1412 331.258 87.4051 331.258H43.7668C38.3036 331.258 33.8748 326.83 33.8748 321.366C33.8748 315.903 29.446 311.474 23.9828 311.474H21.4836C14.64 311.474 9.09229 305.927 9.09229 299.083V297.641Z" fill="#35384D"/>
<path d="M94.8808 284.217H94.893V275.72C94.893 271.146 78.0501 267.437 57.2729 267.437C36.4957 267.437 19.6528 271.146 19.6528 275.72V284.217H19.6651C20.1799 288.693 36.8204 292.286 57.2729 292.286C77.7254 292.286 94.3659 288.693 94.8808 284.217Z" fill="#FFA318"/>
<path d="M19.7146 275.72H19.6521V284.217H19.6643C20.1792 288.693 36.8197 292.286 57.2722 292.286C77.7247 292.286 94.3652 288.693 94.8801 284.217H94.8923V275.72H94.8298C93.6995 280.071 77.3171 283.522 57.2722 283.522C37.2273 283.522 20.8449 280.071 19.7146 275.72Z" fill="url(#paint2_linear)"/>
<path fill-rule="evenodd" clip-rule="evenodd" d="M21.0964 277.523V286.287C21.5767 286.658 22.1715 287.018 22.8719 287.366V278.602C22.1715 278.255 21.5767 277.894 21.0964 277.523ZM24.8179 279.437V288.201C25.3707 288.408 25.9633 288.609 26.5933 288.805V280.041C25.9633 279.846 25.3707 279.644 24.8179 279.437ZM28.5457 280.595V289.359C29.1148 289.507 29.707 289.65 30.3212 289.789V281.026C29.707 280.887 29.1148 280.743 28.5457 280.595ZM32.271 281.436V290.2C32.8472 290.313 33.4392 290.422 34.0464 290.527V281.763C33.4392 281.658 32.8472 281.549 32.271 281.436ZM36.0017 282.08V290.844C36.582 290.931 37.174 291.016 37.7771 291.096V282.333C37.174 282.252 36.582 282.168 36.0017 282.08ZM39.7325 282.577V291.34C40.3154 291.408 40.9073 291.473 41.5079 291.534V282.77C40.9073 282.709 40.3154 282.645 39.7325 282.577ZM43.4536 282.954V291.717C44.0384 291.768 44.6303 291.816 45.229 291.861V283.097C44.6303 283.053 44.0384 283.005 43.4536 282.954ZM47.1841 283.23V291.993C47.7703 292.029 48.3622 292.062 48.9595 292.091V283.328C48.3622 283.298 47.7703 283.266 47.1841 283.23ZM50.9204 283.413V292.177C51.5076 292.199 52.0996 292.218 52.6958 292.234V283.47C52.0996 283.454 51.5076 283.435 50.9204 283.413ZM54.6401 283.511V292.275C55.2283 292.284 55.8202 292.29 56.4155 292.293V283.529C55.8202 283.526 55.2282 283.52 54.6401 283.511ZM58.3667 283.528V292.291C58.9621 292.288 59.554 292.281 60.1422 292.271V283.508C59.554 283.517 58.9621 283.524 58.3667 283.528ZM62.0989 283.464V292.227C62.6952 292.211 63.2872 292.191 63.8744 292.168V283.404C63.2872 283.427 62.6952 283.447 62.0989 283.464ZM65.8242 283.317V292.08C66.4216 292.05 67.0135 292.016 67.5996 291.979V283.216C67.0135 283.252 66.4216 283.286 65.8242 283.317ZM69.5561 283.08V291.844C70.1549 291.798 70.7468 291.749 71.3315 291.698V282.934C70.7468 282.986 70.1549 283.035 69.5561 283.08ZM73.2758 282.747V291.511C73.8765 291.449 74.4684 291.383 75.0512 291.314V282.551C74.4684 282.619 73.8765 282.685 73.2758 282.747ZM77.0106 282.302V291.065C77.6139 290.983 78.206 290.898 78.786 290.809V282.045C78.206 282.134 77.6139 282.22 77.0106 282.302ZM80.7373 281.724V290.488C81.3447 290.381 81.9368 290.27 82.5127 290.155V281.392C81.9368 281.506 81.3447 281.617 80.7373 281.724ZM84.4585 280.975V289.739C85.0732 289.597 85.6655 289.451 86.2339 289.301V280.537C85.6655 280.688 85.0732 280.834 84.4585 280.975ZM88.1892 279.971V288.735C88.8208 288.535 89.4135 288.328 89.9646 288.116V279.352C89.4135 279.564 88.8209 279.771 88.1892 279.971ZM91.9156 278.486V287.25C92.6294 286.881 93.2247 286.497 93.691 286.102V277.374H93.6486C93.1888 277.756 92.6079 278.128 91.9156 278.486Z" fill="#FF9211"/>
<g style="mix-blend-mode:multiply">
<path fill-rule="evenodd" clip-rule="evenodd" d="M88.8103 276.45C89.0209 276.149 89.1299 275.842 89.1299 275.529C89.1299 271.957 74.9111 269.06 57.3712 269.06C39.8314 269.06 25.6125 271.957 25.6125 275.529C25.6125 275.841 25.7211 276.148 25.931 276.449C28.1265 273.313 41.3658 270.901 57.3701 270.901C73.3771 270.901 86.6182 273.313 88.8103 276.45Z" fill="#FFC177"/>
</g>
<path d="M88.6834 275.529C88.6834 275.816 88.5425 276.145 88.1697 276.516C87.7958 276.888 87.2208 277.269 86.4404 277.645C84.8817 278.395 82.5975 279.083 79.7389 279.666C74.0289 280.829 66.1205 281.551 57.3712 281.551C48.6219 281.551 40.7135 280.829 35.0036 279.666C32.1449 279.083 29.8608 278.395 28.302 277.645C27.5217 277.269 26.9467 276.888 26.5728 276.516C26.2 276.145 26.0591 275.816 26.0591 275.529C26.0591 275.242 26.2 274.913 26.5728 274.542C26.9467 274.17 27.5217 273.789 28.302 273.413C29.8608 272.663 32.1449 271.975 35.0036 271.393C40.7135 270.23 48.6219 269.507 57.3712 269.507C66.1205 269.507 74.0289 270.23 79.7389 271.393C82.5975 271.975 84.8817 272.663 86.4404 273.413C87.2208 273.789 87.7958 274.17 88.1697 274.542C88.5425 274.913 88.6834 275.242 88.6834 275.529Z" stroke="#FFC177" stroke-width="0.893086"/>
<g style="mix-blend-mode:multiply" opacity="0.5">
<ellipse cx="57.3921" cy="275.53" rx="37.6201" ry="8.28298" fill="#FF981D"/>
</g>
<path d="M99.092 273.927H99.1042V265.431C99.1042 260.856 82.2613 257.148 61.4841 257.148C40.7069 257.148 23.864 260.856 23.864 265.431V273.927H23.8762C24.3911 278.403 41.0316 281.997 61.4841 281.997C81.9366 281.997 98.5771 278.403 99.092 273.927Z" fill="#FFA318"/>
<path d="M23.925 265.43H23.8625V273.927H23.8748C24.3897 278.403 41.0301 281.996 61.4826 281.996C81.9351 281.996 98.5756 278.403 99.0905 273.927H99.1027V265.43H99.0403C97.91 269.781 81.5276 273.233 61.4826 273.233C41.4377 273.233 25.0553 269.781 23.925 265.43Z" fill="url(#paint3_linear)"/>
<path fill-rule="evenodd" clip-rule="evenodd" d="M25.2917 267.22V275.984C25.7717 276.355 26.3665 276.716 27.0672 277.065V268.301C26.3665 267.952 25.7717 267.591 25.2917 267.22ZM29.0127 269.136V277.9C29.5654 278.107 30.158 278.309 30.7881 278.504V269.74C30.158 269.545 29.5654 269.343 29.0127 269.136ZM32.7475 270.296V279.06C33.3165 279.208 33.9087 279.352 34.5229 279.491V270.727C33.9087 270.588 33.3165 270.445 32.7475 270.296ZM36.4837 271.14V279.904C37.06 280.016 37.652 280.125 38.2592 280.23V271.467C37.652 271.362 37.06 271.253 36.4837 271.14ZM40.2008 271.781V280.545C40.7811 280.633 41.3731 280.717 41.9763 280.798V272.034C41.3731 271.953 40.7811 271.869 40.2008 271.781ZM43.9258 272.278V281.041C44.5087 281.109 45.1007 281.173 45.7012 281.235V272.471C45.1007 272.41 44.5087 272.345 43.9258 272.278ZM47.6609 272.656V281.42C48.2457 281.47 48.8376 281.518 49.4363 281.563V272.799C48.8376 272.755 48.2457 272.707 47.6609 272.656ZM51.3832 272.931V281.695C51.9694 281.73 52.5613 281.763 53.1586 281.793V273.029C52.5613 273 51.9694 272.967 51.3832 272.931ZM55.114 273.115V281.878C55.7012 281.9 56.2932 281.919 56.8894 281.935V273.172C56.2932 273.156 55.7012 273.137 55.114 273.115ZM58.8406 273.213V281.976C59.4288 281.985 60.0207 281.991 60.6161 281.994V273.231C60.0207 273.228 59.4288 273.222 58.8406 273.213ZM62.5699 273.229V281.993C63.1653 281.989 63.7572 281.982 64.3454 281.973V273.209C63.7572 273.219 63.1653 273.226 62.5699 273.229ZM66.3019 273.165V281.929C66.8981 281.912 67.4901 281.892 68.0773 281.869V273.106C67.4901 273.129 66.8981 273.149 66.3019 273.165ZM70.0326 273.018V281.781C70.63 281.751 71.2219 281.717 71.808 281.68V272.917C71.2219 272.954 70.63 272.987 70.0326 273.018ZM73.7482 272.783V281.546C74.347 281.501 74.939 281.452 75.5237 281.4V272.637C74.939 272.688 74.347 272.737 73.7482 272.783ZM77.479 272.449V281.212C78.0797 281.15 78.6716 281.084 79.2544 281.016V272.252C78.6716 272.321 78.0797 272.387 77.479 272.449ZM81.2042 272.005V280.768C81.8075 280.686 82.3996 280.601 82.9796 280.512V271.748C82.3996 271.837 81.8075 271.923 81.2042 272.005ZM84.9364 271.426V280.19C85.5439 280.083 86.136 279.972 86.7118 279.857V271.094C86.136 271.209 85.5439 271.319 84.9364 271.426ZM88.6617 270.676V279.44C89.2764 279.299 89.8687 279.152 90.4371 279.002V270.238C89.8687 270.389 89.2764 270.535 88.6617 270.676ZM92.3825 269.675V278.439C93.0141 278.239 93.6067 278.033 94.158 277.821V269.057C93.6067 269.269 93.0141 269.475 92.3825 269.675ZM96.1188 268.187V276.951C96.8327 276.581 97.428 276.198 97.8942 275.803V267.076H97.8504C97.3909 267.458 96.8105 267.829 96.1188 268.187Z" fill="#FF9211"/>
<g style="mix-blend-mode:multiply">
<path fill-rule="evenodd" clip-rule="evenodd" d="M93.0148 266.158C93.2257 265.857 93.3347 265.549 93.3347 265.237C93.3347 261.664 79.1159 258.768 61.5761 258.768C44.0362 258.768 29.8174 261.664 29.8174 265.237C29.8174 265.549 29.926 265.856 30.1359 266.156C32.3322 263.02 45.5711 260.609 61.5747 260.609C77.5816 260.609 90.8226 263.021 93.0148 266.158Z" fill="#FFC177"/>
</g>
<path d="M92.8882 265.237C92.8882 265.524 92.7473 265.853 92.3745 266.224C92.0006 266.596 91.4256 266.976 90.6452 267.352C89.0865 268.103 86.8024 268.791 83.9437 269.373C78.2338 270.536 70.3254 271.259 61.5761 271.259C52.8268 271.259 44.9184 270.536 39.2084 269.373C36.3498 268.791 34.0656 268.103 32.5069 267.352C31.7265 266.976 31.1515 266.596 30.7776 266.224C30.4048 265.853 30.2639 265.524 30.2639 265.237C30.2639 264.949 30.4048 264.62 30.7776 264.249C31.1515 263.877 31.7265 263.497 32.5069 263.121C34.0656 262.37 36.3498 261.682 39.2084 261.1C44.9184 259.937 52.8268 259.214 61.5761 259.214C70.3254 259.214 78.2338 259.937 83.9437 261.1C86.8024 261.682 89.0865 262.37 90.6452 263.121C91.4256 263.497 92.0006 263.877 92.3745 264.249C92.7473 264.62 92.8882 264.949 92.8882 265.237Z" stroke="#FFC177" stroke-width="0.893086"/>
<g style="mix-blend-mode:multiply" opacity="0.5">
<ellipse cx="61.6065" cy="265.246" rx="37.6201" ry="8.28298" fill="#FF981D"/>
</g>
<path d="M95.9743 263.993H95.9865V255.497C95.9865 250.922 79.1436 247.214 58.3664 247.214C37.5893 247.214 20.7463 250.922 20.7463 255.497V263.993H20.7586C21.2734 268.469 37.9139 272.063 58.3664 272.063C78.8189 272.063 95.4594 268.469 95.9743 263.993Z" fill="#FFA318"/>
<path d="M20.8103 255.497H20.7478V263.994H20.76C21.2749 268.47 37.9154 272.063 58.3679 272.063C78.8204 272.063 95.4609 268.47 95.9758 263.994H95.988V255.497H95.9255C94.7952 259.848 78.4128 263.3 58.3679 263.3C38.323 263.3 21.9406 259.848 20.8103 255.497Z" fill="url(#paint4_linear)"/>
<path fill-rule="evenodd" clip-rule="evenodd" d="M22.1865 257.29V266.054C22.6665 266.426 23.2613 266.786 23.9619 267.135V258.371C23.2613 258.023 22.6665 257.662 22.1865 257.29ZM25.9107 259.207V267.971C26.4635 268.178 27.056 268.38 27.6861 268.575V259.811C27.056 259.616 26.4635 259.415 25.9107 259.207ZM29.6414 260.366V269.13C30.2105 269.278 30.8027 269.422 31.4168 269.56V260.797C30.8027 260.658 30.2105 260.514 29.6414 260.366ZM33.3736 261.209V269.972C33.9498 270.085 34.5419 270.194 35.149 270.299V261.536C34.5419 261.431 33.9498 261.322 33.3736 261.209ZM37.0989 261.852V270.615C37.6791 270.703 38.2711 270.787 38.8743 270.868V262.104C38.2711 262.024 37.6791 261.939 37.0989 261.852ZM40.8252 262.348V271.111C41.4082 271.179 42.0001 271.244 42.6007 271.305V262.541C42.0001 262.48 41.4082 262.416 40.8252 262.348ZM44.556 262.726V271.489C45.1408 271.54 45.7327 271.588 46.3314 271.633V262.869C45.7327 262.825 45.1408 262.777 44.556 262.726ZM48.2827 263.001V271.765C48.8689 271.8 49.4608 271.833 50.0581 271.863V263.099C49.4608 263.07 48.8689 263.037 48.2827 263.001ZM52.0079 263.184V271.948C52.5952 271.97 53.1871 271.989 53.7833 272.005V263.241C53.1871 263.226 52.5952 263.206 52.0079 263.184ZM55.7288 263.282V272.046C56.317 272.055 56.9089 272.061 57.5042 272.064V263.3C56.9089 263.297 56.317 263.291 55.7288 263.282ZM59.4639 263.299V272.063C60.0593 272.059 60.6512 272.052 61.2393 272.042V263.279C60.6512 263.289 60.0593 263.295 59.4639 263.299ZM63.1958 263.235V271.999C63.7921 271.982 64.384 271.962 64.9712 271.939V263.176C64.384 263.199 63.7921 263.218 63.1958 263.235ZM66.9251 263.088V271.851C67.5225 271.821 68.1144 271.787 68.7005 271.75V262.987C68.1144 263.023 67.5225 263.057 66.9251 263.088ZM70.6477 262.852V271.615C71.2465 271.57 71.8385 271.521 72.4231 271.469V262.706C71.8385 262.758 71.2465 262.806 70.6477 262.852ZM74.3785 262.518V271.281C74.9791 271.219 75.5711 271.154 76.1539 271.085V262.321C75.5711 262.39 74.9791 262.456 74.3785 262.518ZM78.1037 262.074V270.837C78.707 270.755 79.299 270.67 79.8791 270.58V261.817C79.299 261.906 78.707 261.992 78.1037 262.074ZM81.8301 261.496V270.26C82.4375 270.153 83.0296 270.042 83.6055 269.927V261.164C83.0296 261.278 82.4375 261.389 81.8301 261.496ZM85.5608 260.745V269.509C86.1756 269.367 86.7678 269.221 87.3363 269.07V260.306C86.7678 260.457 86.1756 260.603 85.5608 260.745ZM89.2861 259.742V268.506C89.9177 268.306 90.5103 268.099 91.0615 267.887V259.123C90.5103 259.335 89.9177 259.542 89.2861 259.742ZM93.0183 258.254V267.018C93.7325 266.648 94.3278 266.263 94.7937 265.868V257.145H94.7443C94.286 257.526 93.7075 257.897 93.0183 258.254Z" fill="#FF9211"/>
<g style="mix-blend-mode:multiply">
<path fill-rule="evenodd" clip-rule="evenodd" d="M89.9037 256.223C90.1122 255.923 90.22 255.617 90.22 255.306C90.22 251.734 76.0012 248.838 58.4613 248.838C40.9215 248.838 26.7026 251.734 26.7026 255.306C26.7026 255.617 26.8105 255.923 27.0191 256.223C29.2045 253.084 42.4491 250.671 58.4614 250.671C74.4735 250.671 87.7179 253.084 89.9037 256.223Z" fill="#FFC177"/>
</g>
<path d="M89.7735 255.306C89.7735 255.593 89.6326 255.922 89.2598 256.293C88.8859 256.666 88.3109 257.046 87.5305 257.422C85.9718 258.172 83.6876 258.86 80.829 259.443C75.119 260.606 67.2106 261.328 58.4613 261.328C49.712 261.328 41.8036 260.606 36.0937 259.443C33.235 258.86 30.9508 258.172 29.3921 257.422C28.6118 257.046 28.0368 256.666 27.6629 256.293C27.2901 255.922 27.1492 255.593 27.1492 255.306C27.1492 255.019 27.2901 254.69 27.6629 254.319C28.0368 253.947 28.6118 253.566 29.3921 253.191C30.9508 252.44 33.235 251.752 36.0937 251.17C41.8036 250.007 49.712 249.284 58.4613 249.284C67.2106 249.284 75.119 250.007 80.829 251.17C83.6876 251.752 85.9718 252.44 87.5305 253.191C88.3109 253.566 88.8859 253.947 89.2598 254.319C89.6326 254.69 89.7735 255.019 89.7735 255.306Z" stroke="#FFC177" stroke-width="0.893086"/>
<g style="mix-blend-mode:multiply" opacity="0.5">
<ellipse cx="58.4768" cy="255.301" rx="37.6201" ry="8.28298" fill="#FF981D"/>
</g>
<path d="M100.191 253.704H100.203V245.207C100.203 240.633 83.3599 236.924 62.5827 236.924C41.8056 236.924 24.9626 240.633 24.9626 245.207V253.704H24.9749C25.4898 258.18 42.1302 261.773 62.5827 261.773C83.0352 261.773 99.6757 258.18 100.191 253.704Z" fill="#FFA318"/>
<path d="M25.022 245.202H24.9595V253.699H24.9717C25.4866 258.175 42.1271 261.768 62.5796 261.768C83.0321 261.768 99.6726 258.175 100.187 253.699H100.2V245.202H100.137C99.0069 249.553 82.6245 253.004 62.5796 253.004C42.5346 253.004 26.1523 249.553 25.022 245.202Z" fill="url(#paint5_linear)"/>
<path fill-rule="evenodd" clip-rule="evenodd" d="M26.394 247.007V255.771C26.8745 256.141 27.4693 256.502 28.1695 256.849V248.085C27.4693 247.738 26.8745 247.378 26.394 247.007ZM30.1098 248.917V257.681C30.6626 257.888 31.2552 258.09 31.8852 258.285V249.522C31.2552 249.326 30.6626 249.125 30.1098 248.917ZM33.8501 250.079V258.842C34.4192 258.99 35.0114 259.134 35.6256 259.273V250.509C35.0114 250.37 34.4192 250.227 33.8501 250.079ZM37.5765 250.92V259.683C38.1527 259.796 38.7448 259.905 39.352 260.01V251.247C38.7448 251.142 38.1527 251.033 37.5765 250.92ZM41.3018 251.562V260.326C41.882 260.413 42.4741 260.498 43.0772 260.578V251.815C42.4741 251.734 41.882 251.65 41.3018 251.562ZM45.0284 252.058V260.822C45.6114 260.89 46.2033 260.954 46.8039 261.015V252.252C46.2033 252.191 45.6114 252.126 45.0284 252.058ZM48.7537 252.436V261.199C49.3384 261.25 49.9304 261.298 50.5291 261.342V252.579C49.9304 252.534 49.3384 252.487 48.7537 252.436ZM52.4844 252.711V261.475C53.0706 261.511 53.6625 261.543 54.2598 261.573V252.81C53.6625 252.78 53.0706 252.747 52.4844 252.711ZM56.2152 252.895V261.658C56.8025 261.68 57.3944 261.699 57.9906 261.715V252.952C57.3944 252.936 56.8025 252.917 56.2152 252.895ZM59.932 252.992V261.756C60.5202 261.765 61.1121 261.771 61.7074 261.774V253.01C61.1121 253.007 60.5202 253.001 59.932 252.992ZM63.6682 253.009V261.773C64.2636 261.769 64.8555 261.762 65.4437 261.752V252.989C64.8555 252.999 64.2636 253.005 63.6682 253.009ZM67.3894 252.945V261.709C67.9857 261.692 68.5776 261.672 69.1648 261.649V252.886C68.5776 252.909 67.9857 252.929 67.3894 252.945ZM71.1242 252.798V261.561C71.7216 261.531 72.3135 261.497 72.8996 261.46V252.697C72.3135 252.733 71.7216 252.767 71.1242 252.798ZM74.8495 252.562V261.325C75.4483 261.28 76.0402 261.231 76.6249 261.179V252.416C76.0402 252.467 75.4483 252.516 74.8495 252.562ZM78.5817 252.227V260.991C79.1823 260.929 79.7743 260.863 80.3571 260.794V252.031C79.7743 252.1 79.1823 252.165 78.5817 252.227ZM82.3069 251.783V260.547C82.9102 260.465 83.5022 260.379 84.0823 260.29V251.526C83.5022 251.615 82.9102 251.701 82.3069 251.783ZM86.0333 251.205V259.969C86.6407 259.862 87.2328 259.751 87.8087 259.636V250.873C87.2328 250.988 86.6407 251.098 86.0333 251.205ZM89.7681 250.453V259.217C90.3829 259.075 90.9751 258.929 91.5435 258.778V250.014C90.9751 250.165 90.3829 250.311 89.7681 250.453ZM93.4907 249.45V258.214C94.1224 258.014 94.715 257.807 95.2661 257.594V248.831C94.715 249.043 94.1224 249.25 93.4907 249.45ZM97.2215 247.962V256.726C97.936 256.355 98.5313 255.97 98.9969 255.574V246.855H98.9431C98.4858 247.236 97.9088 247.605 97.2215 247.962Z" fill="#FF9211"/>
<g style="mix-blend-mode:multiply">
<path fill-rule="evenodd" clip-rule="evenodd" d="M94.1136 245.938C94.3242 245.637 94.4331 245.329 94.4331 245.016C94.4331 241.444 80.2143 238.548 62.6745 238.548C45.1346 238.548 30.9158 241.444 30.9158 245.016C30.9158 245.328 31.0238 245.634 31.2327 245.934C33.4277 242.798 46.6673 240.386 62.6719 240.386C78.6828 240.386 91.9264 242.799 94.1136 245.938Z" fill="#FFC177"/>
</g>
<path d="M93.9866 245.016C93.9866 245.304 93.8457 245.633 93.4729 246.004C93.099 246.376 92.524 246.756 91.7436 247.132C90.1849 247.883 87.9008 248.571 85.0421 249.153C79.3322 250.316 71.4238 251.039 62.6745 251.039C53.9251 251.039 46.0168 250.316 40.3068 249.153C37.4481 248.571 35.164 247.883 33.6053 247.132C32.8249 246.756 32.2499 246.376 31.876 246.004C31.5032 245.633 31.3623 245.304 31.3623 245.016C31.3623 244.729 31.5032 244.4 31.876 244.029C32.2499 243.657 32.8249 243.277 33.6053 242.901C35.164 242.15 37.4481 241.462 40.3068 240.88C46.0168 239.717 53.9251 238.994 62.6745 238.994C71.4238 238.994 79.3322 239.717 85.0421 240.88C87.9008 241.462 90.1849 242.15 91.7436 242.901C92.524 243.277 93.099 243.657 93.4729 244.029C93.8457 244.4 93.9866 244.729 93.9866 245.016Z" stroke="#FFC177" stroke-width="0.893086"/>
<g style="mix-blend-mode:multiply" opacity="0.5">
<ellipse cx="62.6941" cy="245.017" rx="37.6201" ry="8.28298" fill="#FF981D"/>
</g>
<path d="M134.237 300.218H134.25V290.745C134.25 285.645 115.472 281.511 92.3081 281.511C69.1438 281.511 50.3657 285.645 50.3657 290.745V300.218H50.3794C50.9534 305.209 69.5057 309.215 92.3081 309.215C115.11 309.215 133.663 305.209 134.237 300.218Z" fill="#FFA318"/>
<path d="M50.433 290.745H50.3633V300.218H50.3769C50.9509 305.208 69.5033 309.214 92.3056 309.214C115.108 309.214 133.66 305.208 134.234 300.218H134.248V290.745H134.178C132.918 295.596 114.654 299.444 92.3056 299.444C69.9577 299.444 51.6931 295.596 50.433 290.745Z" fill="url(#paint6_linear)"/>
<path fill-rule="evenodd" clip-rule="evenodd" d="M51.9675 292.75V302.521C52.5033 302.934 53.1664 303.335 53.9469 303.722V293.952C53.1664 293.564 52.5032 293.163 51.9675 292.75ZM56.1266 294.885V304.656C56.743 304.887 57.4036 305.111 58.106 305.328V295.558C57.4036 295.34 56.743 295.116 56.1266 294.885ZM60.2737 296.172V305.943C60.9081 306.108 61.5683 306.268 62.2531 306.423V296.652C61.5683 296.497 60.9081 296.337 60.2737 296.172ZM64.4356 297.112V306.882C65.078 307.008 65.7381 307.129 66.415 307.246V297.476C65.7381 297.359 65.078 297.237 64.4356 297.112ZM68.5868 297.827V307.598C69.2337 307.696 69.8938 307.79 70.5662 307.88V298.109C69.8938 298.019 69.2337 297.925 68.5868 297.827ZM72.7432 298.381V308.151C73.3931 308.227 74.0531 308.299 74.7226 308.367V298.597C74.0531 298.528 73.3931 298.456 72.7432 298.381ZM76.9054 298.802V308.573C77.5574 308.629 78.2174 308.683 78.8848 308.732V298.962C78.2174 298.912 77.5574 298.859 76.9054 298.802ZM81.0592 299.109V308.879C81.7128 308.919 82.3727 308.956 83.0386 308.989V299.218C82.3727 299.185 81.7128 299.149 81.0592 299.109ZM85.2159 299.313V309.084C85.8707 309.108 86.5306 309.129 87.1953 309.147V299.377C86.5306 299.359 85.8707 299.338 85.2159 299.313ZM89.3668 299.422V309.192C90.0226 309.202 90.6825 309.209 91.3462 309.212V299.442C90.6825 299.439 90.0226 299.432 89.3668 299.422ZM93.5235 299.441V309.211C94.1873 309.207 94.8472 309.199 95.5029 309.188V299.418C94.8472 299.429 94.1873 299.436 93.5235 299.441ZM97.68 299.369V309.14C98.3448 309.121 99.0047 309.099 99.6594 309.073V299.303C99.0047 299.328 98.3448 299.351 97.68 299.369ZM101.833 299.205V308.975C102.499 308.941 103.159 308.904 103.812 308.863V299.092C103.159 299.133 102.499 299.171 101.833 299.205ZM105.985 298.942V308.712C106.653 308.662 107.312 308.607 107.964 308.549V298.779C107.312 298.837 106.653 298.891 105.985 298.942ZM110.151 298.569V308.339C110.821 308.27 111.481 308.197 112.131 308.12V298.349C111.481 298.426 110.821 298.5 110.151 298.569ZM114.308 298.073V307.843C114.98 307.752 115.64 307.656 116.287 307.557V297.787C115.64 297.886 114.98 297.981 114.308 298.073ZM118.466 297.428V307.198C119.143 307.079 119.803 306.956 120.445 306.828V297.057C119.803 297.185 119.143 297.309 118.466 297.428ZM122.618 296.592V306.362C123.304 306.204 123.964 306.041 124.598 305.873V296.102C123.964 296.271 123.304 296.434 122.618 296.592ZM126.775 295.472V305.242C127.479 305.019 128.14 304.788 128.754 304.551V294.781C128.14 295.018 127.479 295.248 126.775 295.472ZM130.926 293.816V303.587C131.722 303.174 132.386 302.746 132.905 302.305V292.578H132.852C132.341 293.004 131.695 293.417 130.926 293.816Z" fill="#FF9211"/>
<g style="mix-blend-mode:multiply">
<path fill-rule="evenodd" clip-rule="evenodd" d="M127.465 291.559C127.699 291.224 127.82 290.882 127.82 290.534C127.82 286.551 111.967 283.322 92.4124 283.322C72.8574 283.322 57.0049 286.551 57.0049 290.534C57.0049 290.882 57.1262 291.225 57.3608 291.56C59.8036 288.063 74.5666 285.373 92.4136 285.373C110.258 285.373 125.019 288.062 127.465 291.559Z" fill="#FFC177"/>
</g>
<path d="M127.322 290.534C127.322 290.854 127.165 291.221 126.749 291.635C126.332 292.049 125.691 292.474 124.821 292.893C123.084 293.729 120.537 294.497 117.35 295.146C110.984 296.442 102.167 297.248 92.4124 297.248C82.6578 297.248 73.8408 296.442 67.4749 295.146C64.2878 294.497 61.7412 293.729 60.0034 292.893C59.1334 292.474 58.4923 292.049 58.0754 291.635C57.6598 291.221 57.5027 290.854 57.5027 290.534C57.5027 290.214 57.6598 289.847 58.0754 289.433C58.4923 289.018 59.1334 288.594 60.0034 288.175C61.7412 287.338 64.2878 286.571 67.4749 285.922C73.8408 284.626 82.6578 283.82 92.4124 283.82C102.167 283.82 110.984 284.626 117.35 285.922C120.537 286.571 123.084 287.338 124.821 288.175C125.691 288.594 126.332 289.018 126.749 289.433C127.165 289.847 127.322 290.214 127.322 290.534Z" stroke="#FFC177" stroke-width="0.995694"/>
<g style="mix-blend-mode:multiply" opacity="0.5">
<ellipse cx="92.4285" cy="290.536" rx="41.9424" ry="9.23462" fill="#FF981D"/>
</g>
<path d="M138.929 288.749H138.943V279.276C138.943 274.176 120.165 270.042 97.0007 270.042C73.8364 270.042 55.0583 274.176 55.0583 279.276V288.749H55.072C55.646 293.739 74.1984 297.746 97.0007 297.746C119.803 297.746 138.355 293.739 138.929 288.749Z" fill="#FFA318"/>
<path d="M55.1185 279.275H55.0488V288.748H55.0625C55.6365 293.739 74.1888 297.745 96.9912 297.745C119.793 297.745 138.346 293.739 138.92 288.748H138.934V279.275H138.864C137.604 284.126 119.339 287.975 96.9912 287.975C74.6432 287.975 56.3786 284.126 55.1185 279.275Z" fill="url(#paint7_linear)"/>
<path fill-rule="evenodd" clip-rule="evenodd" d="M56.6448 281.274V291.045C57.1799 291.459 57.843 291.862 58.6242 292.25V282.479C57.843 282.091 57.1799 281.689 56.6448 281.274ZM60.8067 283.415V293.186C61.4231 293.417 62.0837 293.641 62.7861 293.859V284.088C62.0837 283.871 61.4231 283.646 60.8067 283.415ZM64.9634 284.706V294.476C65.5978 294.641 66.2581 294.801 66.9428 294.956V285.186C66.2581 285.031 65.5978 284.871 64.9634 284.706ZM69.1102 285.642V295.412C69.7526 295.538 70.4128 295.66 71.0896 295.777V286.007C70.4128 285.889 69.7526 285.768 69.1102 285.642ZM73.2725 286.36V296.13C73.9194 296.228 74.5794 296.322 75.2519 296.412V286.642C74.5794 286.552 73.9194 286.458 73.2725 286.36ZM77.4289 286.914V296.684C78.0788 296.76 78.7388 296.831 79.4083 296.9V287.129C78.7388 287.061 78.0788 286.989 77.4289 286.914ZM81.5801 287.334V297.104C82.232 297.161 82.892 297.214 83.5595 297.264V287.494C82.892 287.444 82.232 287.391 81.5801 287.334ZM85.7379 287.641V297.412C86.3915 297.452 87.0514 297.488 87.7173 297.521V287.751C87.0514 287.718 86.3915 287.681 85.7379 287.641ZM89.8891 287.846V297.616C90.5439 297.641 91.2038 297.662 91.8685 297.68V287.909C91.2038 287.891 90.5439 287.87 89.8891 287.846ZM94.0511 287.955V297.725C94.7068 297.735 95.3667 297.742 96.0305 297.745V287.975C95.3667 287.972 94.7068 287.965 94.0511 287.955ZM98.2092 287.974V297.744C98.873 297.74 99.5329 297.732 100.189 297.721V287.951C99.5329 287.962 98.873 287.969 98.2092 287.974ZM102.366 287.902V297.673C103.03 297.654 103.69 297.632 104.345 297.606V287.836C103.69 287.861 103.03 287.884 102.366 287.902ZM106.517 287.738V297.509C107.183 297.475 107.843 297.437 108.496 297.396V287.626C107.843 287.667 107.183 287.704 106.517 287.738ZM110.675 287.475V297.245C111.342 297.194 112.002 297.14 112.654 297.082V287.312C112.002 287.37 111.342 287.424 110.675 287.475ZM114.827 287.103V296.874C115.497 296.804 116.157 296.731 116.807 296.654V286.884C116.157 286.961 115.497 287.034 114.827 287.103ZM118.993 286.606V296.377C119.666 296.285 120.326 296.19 120.973 296.09V286.32C120.326 286.419 119.666 286.515 118.993 286.606ZM123.145 285.963V295.733C123.822 295.614 124.482 295.49 125.124 295.363V285.592C124.482 285.72 123.822 285.844 123.145 285.963ZM127.301 285.126V294.896C127.987 294.739 128.647 294.575 129.281 294.407V284.637C128.647 284.805 127.987 284.968 127.301 285.126ZM131.454 284.008V293.778C132.158 293.555 132.818 293.325 133.433 293.088V283.318C132.819 283.554 132.158 283.785 131.454 284.008ZM135.61 282.351V292.122C136.406 291.71 137.07 291.282 137.589 290.841V281.117H137.534C137.023 281.541 136.378 281.953 135.61 282.351Z" fill="#FF9211"/>
<g style="mix-blend-mode:multiply">
<path fill-rule="evenodd" clip-rule="evenodd" d="M132.152 280.091C132.386 279.757 132.507 279.415 132.507 279.067C132.507 275.084 116.654 271.855 97.0991 271.855C77.5441 271.855 61.6917 275.084 61.6917 279.067C61.6917 279.415 61.8129 279.758 62.0471 280.093C64.4889 276.595 79.2524 273.906 97.1002 273.906C114.945 273.906 129.707 276.594 132.152 280.091Z" fill="#FFC177"/>
</g>
<path d="M132.009 279.067C132.009 279.387 131.852 279.754 131.436 280.168C131.019 280.583 130.378 281.007 129.508 281.426C127.77 282.263 125.224 283.03 122.037 283.679C115.671 284.976 106.854 285.781 97.0991 285.781C87.3446 285.781 78.5276 284.976 72.1616 283.679C68.9745 283.03 66.4279 282.263 64.6901 281.426C63.8201 281.007 63.1791 280.583 62.7622 280.168C62.3466 279.754 62.1895 279.387 62.1895 279.067C62.1895 278.747 62.3466 278.38 62.7622 277.967C63.1791 277.552 63.8201 277.128 64.6901 276.709C66.4279 275.872 68.9745 275.105 72.1616 274.455C78.5276 273.159 87.3446 272.353 97.0991 272.353C106.854 272.353 115.671 273.159 122.037 274.455C125.224 275.105 127.77 275.872 129.508 276.709C130.378 277.128 131.019 277.552 131.436 277.967C131.852 278.38 132.009 278.747 132.009 279.067Z" stroke="#FFC177" stroke-width="0.995694"/>
<g style="mix-blend-mode:multiply" opacity="0.5">
<ellipse cx="97.1238" cy="279.064" rx="41.9424" ry="9.23462" fill="#FF981D"/>
</g>
<path d="M135.446 277.666H135.46V268.193C135.46 263.093 116.682 258.958 93.5173 258.958C70.353 258.958 51.575 263.093 51.575 268.193V277.666H51.5886C52.1626 282.656 70.715 286.662 93.5173 286.662C116.32 286.662 134.872 282.656 135.446 277.666Z" fill="#FFA318"/>
<path d="M51.6444 268.192H51.5747V277.665H51.5883C52.1624 282.655 70.7147 286.661 93.517 286.661C116.319 286.661 134.872 282.655 135.446 277.665H135.459V268.192H135.39C134.13 273.043 115.865 276.891 93.517 276.891C71.1691 276.891 52.9045 273.043 51.6444 268.192Z" fill="url(#paint8_linear)"/>
<path fill-rule="evenodd" clip-rule="evenodd" d="M53.1804 270.196V279.967C53.7161 280.38 54.3792 280.781 55.1598 281.168V271.398C54.3792 271.01 53.7161 270.609 53.1804 270.196ZM57.3298 272.328V282.099C57.9461 282.33 58.6068 282.554 59.3091 282.772V273.001C58.6068 272.784 57.9461 272.559 57.3298 272.328ZM61.4821 273.617V283.388C62.1165 283.553 62.7768 283.713 63.4615 283.868V274.098C62.7768 273.943 62.1165 273.783 61.4821 273.617ZM65.6347 274.555V284.326C66.2771 284.452 66.9372 284.573 67.6141 284.69V274.92C66.9372 274.803 66.2771 274.681 65.6347 274.555ZM69.7967 275.273V285.044C70.4436 285.142 71.1036 285.236 71.7761 285.326V275.555C71.1036 275.465 70.4436 275.371 69.7967 275.273ZM73.9574 275.828V285.598C74.6073 285.674 75.2673 285.745 75.9368 285.814V276.043C75.2673 275.975 74.6073 275.903 73.9574 275.828ZM78.1142 276.249V286.019C78.7661 286.076 79.4261 286.129 80.0936 286.178V276.408C79.4261 276.358 78.7661 276.305 78.1142 276.249ZM82.2665 276.555V286.325C82.92 286.365 83.58 286.402 84.2459 286.435V276.665C83.58 276.632 82.92 276.595 82.2665 276.555ZM86.4232 276.76V286.53C87.078 286.554 87.7379 286.576 88.4026 286.593V276.823C87.7379 276.805 87.078 276.784 86.4232 276.76ZM90.5756 276.869V286.639C91.2313 286.649 91.8912 286.656 92.555 286.659V276.889C91.8912 276.885 91.2313 276.879 90.5756 276.869ZM94.7323 276.887V286.658C95.396 286.653 96.056 286.646 96.7117 286.635V276.865C96.056 276.876 95.396 276.883 94.7323 276.887ZM98.8901 276.816V286.586C99.5549 286.568 100.215 286.545 100.87 286.52V276.75C100.215 276.775 99.5549 276.797 98.8901 276.816ZM103.051 276.651V286.422C103.717 286.388 104.377 286.35 105.03 286.309V276.539C104.377 276.58 103.717 276.617 103.051 276.651ZM107.207 276.388V286.158C107.875 286.108 108.535 286.053 109.187 285.995V276.225C108.535 276.283 107.875 276.337 107.207 276.388ZM111.36 276.016V285.787C112.03 285.717 112.69 285.644 113.339 285.567V275.797C112.69 275.874 112.03 275.947 111.36 276.016ZM115.516 275.52V285.291C116.189 285.199 116.849 285.104 117.496 285.004V275.234C116.849 275.333 116.189 275.429 115.516 275.52ZM119.669 274.877V284.647C120.346 284.528 121.006 284.404 121.648 284.276V274.506C121.006 274.634 120.346 274.757 119.669 274.877ZM123.825 274.04V283.81C124.511 283.653 125.171 283.489 125.805 283.321V273.551C125.171 273.719 124.511 273.882 123.825 274.04ZM127.992 272.917V282.688C128.696 282.465 129.357 282.234 129.971 281.997V272.226C129.357 272.463 128.696 272.694 127.992 272.917ZM132.144 271.261V281.031C132.941 280.618 133.604 280.189 134.123 279.748V270.028H134.063C133.553 270.451 132.91 270.863 132.144 271.261Z" fill="#FF9211"/>
<g style="mix-blend-mode:multiply">
<path fill-rule="evenodd" clip-rule="evenodd" d="M128.679 269.001C128.912 268.667 129.032 268.325 129.032 267.978C129.032 263.995 113.18 260.766 93.6248 260.766C74.0698 260.766 58.2173 263.995 58.2173 267.978C58.2173 268.326 58.3382 268.668 58.5719 269.003C61.0105 265.504 75.7757 262.814 93.6261 262.814C111.473 262.814 126.236 265.503 128.679 269.001Z" fill="#FFC177"/>
</g>
<path d="M128.534 267.978C128.534 268.298 128.377 268.665 127.962 269.079C127.545 269.494 126.904 269.918 126.034 270.337C124.296 271.174 121.749 271.941 118.562 272.59C112.196 273.886 103.379 274.692 93.6248 274.692C83.8702 274.692 75.0532 273.886 68.6873 272.59C65.5002 271.941 62.9536 271.174 61.2158 270.337C60.3458 269.918 59.7047 269.494 59.2879 269.079C58.8722 268.665 58.7151 268.298 58.7151 267.978C58.7151 267.658 58.8722 267.291 59.2879 266.877C59.7047 266.463 60.3458 266.038 61.2158 265.619C62.9536 264.783 65.5002 264.016 68.6873 263.366C75.0532 262.07 83.8702 261.264 93.6248 261.264C103.379 261.264 112.196 262.07 118.562 263.366C121.749 264.016 124.296 264.783 126.034 265.619C126.904 266.038 127.545 266.463 127.962 266.877C128.377 267.291 128.534 267.658 128.534 267.978Z" stroke="#FFC177" stroke-width="0.995694"/>
<g style="mix-blend-mode:multiply" opacity="0.5">
<ellipse cx="93.6453" cy="267.983" rx="41.9424" ry="9.23462" fill="#FF981D"/>
</g>
<path d="M140.143 266.202H140.156V256.729C140.156 251.629 121.378 247.495 98.2138 247.495C75.0495 247.495 56.2715 251.629 56.2715 256.729V266.202H56.2851C56.8591 271.193 75.4115 275.199 98.2138 275.199C121.016 275.199 139.569 271.193 140.143 266.202Z" fill="#FFA318"/>
<path d="M56.3441 256.729H56.2744V266.202H56.288C56.8621 271.192 75.4144 275.198 98.2168 275.198C121.019 275.198 139.571 271.192 140.145 266.202H140.159V256.729H140.089C138.829 261.58 120.565 265.428 98.2168 265.428C75.8688 265.428 57.6042 261.58 56.3441 256.729Z" fill="url(#paint9_linear)"/>
<path fill-rule="evenodd" clip-rule="evenodd" d="M57.8701 258.717V268.488C58.4049 268.902 59.068 269.305 59.8495 269.694V259.924C59.068 259.535 58.4048 259.132 57.8701 258.717ZM62.042 260.864V270.635C62.6584 270.866 63.3191 271.09 64.0214 271.308V261.537C63.319 261.32 62.6584 261.095 62.042 260.864ZM66.1946 262.153V271.924C66.8291 272.089 67.4893 272.249 68.174 272.404V262.633C67.4893 262.478 66.8291 262.318 66.1946 262.153ZM70.3374 263.089V272.859C70.9798 272.985 71.6399 273.107 72.3168 273.224V263.454C71.6399 263.336 70.9798 263.215 70.3374 263.089ZM74.5034 263.808V273.578C75.1503 273.676 75.8104 273.77 76.4828 273.86V264.089C75.8104 264 75.1503 263.906 74.5034 263.808ZM78.6616 264.362V274.132C79.3114 274.207 79.9714 274.279 80.641 274.348V264.577C79.9714 264.509 79.3114 264.437 78.6616 264.362ZM82.8125 264.782V274.552C83.4644 274.609 84.1244 274.662 84.7919 274.712V264.942C84.1244 264.892 83.4644 264.839 82.8125 264.782ZM86.9692 265.089V274.859C87.6227 274.899 88.2826 274.936 88.9486 274.969V265.199C88.2826 265.166 87.6227 265.129 86.9692 265.089ZM91.127 265.294V275.064C91.7818 275.089 92.4417 275.11 93.1064 275.128V265.357C92.4417 265.339 91.7818 265.318 91.127 265.294ZM95.2782 265.403V275.173C95.934 275.183 96.5939 275.19 97.2576 275.193V265.423C96.5939 265.42 95.934 265.413 95.2782 265.403ZM99.4306 265.422V275.192C100.094 275.188 100.754 275.18 101.41 275.169V265.399C100.754 265.41 100.094 265.417 99.4306 265.422ZM103.593 265.35V275.121C104.258 275.102 104.918 275.08 105.572 275.054V265.284C104.918 265.31 104.258 265.332 103.593 265.35ZM107.754 265.186V274.956C108.42 274.922 109.08 274.885 109.733 274.844V265.073C109.08 265.114 108.42 265.152 107.754 265.186ZM111.9 264.923V274.694C112.568 274.643 113.228 274.589 113.88 274.531V264.76C113.228 264.818 112.568 264.873 111.9 264.923ZM116.062 264.551V274.321C116.732 274.252 117.392 274.179 118.042 274.102V264.331C117.392 264.408 116.732 264.481 116.062 264.551ZM120.211 264.056V273.827C120.884 273.735 121.544 273.64 122.19 273.541V263.77C121.544 263.869 120.884 263.965 120.211 264.056ZM124.367 263.412V273.183C125.045 273.064 125.705 272.94 126.347 272.812V263.042C125.705 263.17 125.045 263.293 124.367 263.412ZM128.534 262.574V272.344C129.219 272.186 129.879 272.023 130.513 271.855V262.085C129.879 262.253 129.219 262.416 128.534 262.574ZM132.68 261.457V271.228C133.385 271.005 134.045 270.775 134.66 270.538V260.768C134.045 261.004 133.385 261.234 132.68 261.457ZM136.843 259.799V269.57C137.639 269.157 138.302 268.729 138.822 268.289V258.562H138.77C138.258 258.987 137.612 259.4 136.843 259.799Z" fill="#FF9211"/>
<g style="mix-blend-mode:multiply">
<path fill-rule="evenodd" clip-rule="evenodd" d="M133.375 257.544C133.609 257.209 133.731 256.866 133.731 256.518C133.731 252.535 117.878 249.306 98.3233 249.306C78.7682 249.306 62.9158 252.535 62.9158 256.518C62.9158 256.865 63.0366 257.208 63.2703 257.542C65.7171 254.045 80.478 251.357 98.3217 251.357C116.169 251.357 130.933 254.047 133.375 257.544Z" fill="#FFC177"/>
</g>
<path d="M133.233 256.518C133.233 256.838 133.076 257.205 132.66 257.618C132.243 258.033 131.602 258.457 130.732 258.876C128.994 259.713 126.448 260.48 123.261 261.129C116.895 262.426 108.078 263.232 98.3233 263.232C88.5687 263.232 79.7517 262.426 73.3857 261.129C70.1987 260.48 67.6521 259.713 65.9143 258.876C65.0442 258.457 64.4032 258.033 63.9863 257.618C63.5707 257.205 63.4136 256.838 63.4136 256.518C63.4136 256.198 63.5707 255.831 63.9863 255.417C64.4032 255.002 65.0442 254.578 65.9143 254.159C67.6521 253.322 70.1987 252.555 73.3857 251.906C79.7517 250.609 88.5687 249.804 98.3233 249.804C108.078 249.804 116.895 250.609 123.261 251.906C126.448 252.555 128.994 253.322 130.732 254.159C131.602 254.578 132.243 255.002 132.66 255.417C133.076 255.831 133.233 256.198 133.233 256.518Z" stroke="#FFC177" stroke-width="0.995694"/>
<g style="mix-blend-mode:multiply" opacity="0.5">
<ellipse cx="98.3464" cy="256.514" rx="41.9424" ry="9.23462" fill="#FF981D"/>
</g>
<path d="M424.978 300.218H424.991V290.745C424.991 285.645 406.213 281.511 383.049 281.511C359.885 281.511 341.107 285.645 341.107 290.745V300.218H341.12C341.694 305.209 360.247 309.215 383.049 309.215C405.851 309.215 424.404 305.209 424.978 300.218Z" fill="#FFA318"/>
<path d="M341.176 290.745H341.107V300.218H341.12C341.694 305.208 360.247 309.214 383.049 309.214C405.851 309.214 424.404 305.208 424.978 300.218H424.991V290.745H424.922C423.662 295.596 405.397 299.444 383.049 299.444C360.701 299.444 342.437 295.596 341.176 290.745Z" fill="url(#paint10_linear)"/>
<path fill-rule="evenodd" clip-rule="evenodd" d="M342.703 292.738V302.509C343.238 302.924 343.901 303.326 344.682 303.715V293.944C343.901 293.556 343.238 293.153 342.703 292.738ZM346.868 294.882V304.653C347.484 304.883 348.145 305.108 348.847 305.325V295.555C348.145 295.337 347.484 295.113 346.868 294.882ZM351.024 296.172V305.943C351.658 306.108 352.319 306.268 353.003 306.423V296.652C352.319 296.497 351.658 296.337 351.024 296.172ZM355.176 297.11V306.88C355.819 307.006 356.479 307.128 357.156 307.245V297.474C356.479 297.357 355.819 297.236 355.176 297.11ZM359.335 297.827V307.597C359.981 307.695 360.642 307.789 361.314 307.879V298.109C360.642 298.019 359.981 297.925 359.335 297.827ZM363.49 298.38V308.151C364.14 308.226 364.8 308.298 365.469 308.367V298.596C364.8 298.528 364.14 298.456 363.49 298.38ZM367.642 298.801V308.571C368.294 308.628 368.954 308.681 369.622 308.731V298.961C368.954 298.911 368.294 298.858 367.642 298.801ZM371.804 299.109V308.879C372.458 308.919 373.118 308.955 373.784 308.988V299.218C373.118 299.185 372.458 299.149 371.804 299.109ZM375.955 299.313V309.083C376.61 309.108 377.27 309.129 377.935 309.147V299.376C377.27 299.359 376.61 299.337 375.955 299.313ZM380.113 299.422V309.192C380.769 309.202 381.429 309.209 382.093 309.212V299.442C381.429 299.439 380.769 299.432 380.113 299.422ZM384.264 299.441V309.211C384.928 309.207 385.588 309.199 386.244 309.188V299.418C385.588 299.429 384.928 299.437 384.264 299.441ZM388.427 299.369V309.14C389.091 309.121 389.751 309.099 390.406 309.073V299.303C389.751 299.329 389.091 299.351 388.427 299.369ZM392.575 299.205V308.976C393.241 308.942 393.901 308.904 394.554 308.863V299.093C393.901 299.134 393.241 299.171 392.575 299.205ZM396.731 298.942V308.713C397.399 308.662 398.059 308.608 398.711 308.55V298.779C398.059 298.837 397.399 298.892 396.731 298.942ZM400.898 298.569V308.34C401.567 308.27 402.227 308.197 402.877 308.12V298.35C402.227 298.427 401.567 298.5 400.898 298.569ZM405.05 298.074V307.844C405.723 307.753 406.383 307.658 407.029 307.558V297.788C406.383 297.887 405.723 297.983 405.05 298.074ZM409.201 297.431V307.201C409.878 307.082 410.538 306.958 411.18 306.831V297.06C410.538 297.188 409.878 297.312 409.201 297.431ZM413.363 296.593V306.363C414.049 306.206 414.709 306.042 415.343 305.874V296.104C414.709 296.272 414.049 296.435 413.363 296.593ZM417.514 295.475V305.246C418.218 305.023 418.879 304.792 419.494 304.556V294.785C418.879 295.022 418.218 295.252 417.514 295.475ZM421.672 293.818V303.589C422.468 303.177 423.132 302.749 423.651 302.308V292.578H423.603C423.091 293.005 422.443 293.419 421.672 293.818Z" fill="#FF9211"/>
<g style="mix-blend-mode:multiply">
<path fill-rule="evenodd" clip-rule="evenodd" d="M418.208 291.559C418.442 291.224 418.563 290.882 418.563 290.534C418.563 286.551 402.711 283.322 383.156 283.322C363.601 283.322 347.748 286.551 347.748 290.534C347.748 290.882 347.869 291.225 348.104 291.56C350.548 288.062 365.31 285.373 383.156 285.373C401.001 285.373 415.763 288.062 418.208 291.559Z" fill="#FFC177"/>
</g>
<path d="M418.065 290.534C418.065 290.854 417.908 291.221 417.493 291.635C417.076 292.049 416.435 292.474 415.565 292.893C413.827 293.729 411.28 294.497 408.093 295.146C401.727 296.442 392.91 297.248 383.156 297.248C373.401 297.248 364.584 296.442 358.218 295.146C355.031 294.497 352.485 293.729 350.747 292.893C349.877 292.474 349.236 292.049 348.819 291.635C348.403 291.221 348.246 290.854 348.246 290.534C348.246 290.214 348.403 289.847 348.819 289.433C349.236 289.018 349.877 288.594 350.747 288.175C352.485 287.338 355.031 286.571 358.218 285.922C364.584 284.626 373.401 283.82 383.156 283.82C392.91 283.82 401.727 284.626 408.093 285.922C411.28 286.571 413.827 287.338 415.565 288.175C416.435 288.594 417.076 289.018 417.493 289.433C417.908 289.847 418.065 290.214 418.065 290.534Z" stroke="#FFC177" stroke-width="0.995694"/>
<g style="mix-blend-mode:multiply" opacity="0.5">
<ellipse cx="383.178" cy="290.536" rx="41.9424" ry="9.23462" fill="#FF981D"/>
</g>
<path d="M429.676 288.749H429.69V279.276C429.69 274.176 410.912 270.042 387.748 270.042C364.583 270.042 345.805 274.176 345.805 279.276V288.749H345.819C346.393 293.739 364.945 297.746 387.748 297.746C410.55 297.746 429.102 293.739 429.676 288.749Z" fill="#FFA318"/>
<path d="M345.874 279.275H345.805V288.748H345.818C346.392 293.739 364.945 297.745 387.747 297.745C410.549 297.745 429.102 293.739 429.676 288.748H429.689V279.275H429.62C428.36 284.126 410.095 287.975 387.747 287.975C365.399 287.975 347.135 284.126 345.874 279.275Z" fill="url(#paint11_linear)"/>
<path fill-rule="evenodd" clip-rule="evenodd" d="M347.405 281.278V291.048C347.94 291.462 348.603 291.864 349.384 292.252V282.481C348.603 282.093 347.94 281.691 347.405 281.278ZM351.567 283.417V293.188C352.183 293.418 352.844 293.643 353.546 293.86V284.09C352.844 283.872 352.183 283.648 351.567 283.417ZM355.715 284.704V294.475C356.349 294.64 357.01 294.8 357.694 294.955V285.185C357.01 285.03 356.349 284.87 355.715 284.704ZM359.876 285.644V295.414C360.518 295.54 361.178 295.662 361.855 295.779V286.008C361.178 285.891 360.518 285.77 359.876 285.644ZM364.034 286.361V296.131C364.681 296.229 365.341 296.323 366.013 296.413V286.642C365.341 286.553 364.681 286.459 364.034 286.361ZM368.185 286.914V296.684C368.835 296.76 369.495 296.831 370.164 296.9V287.129C369.495 287.061 368.835 286.989 368.185 286.914ZM372.347 287.335V297.105C372.999 297.162 373.659 297.215 374.326 297.265V287.495C373.659 287.445 372.999 287.392 372.347 287.335ZM376.502 287.642V297.412C377.156 297.452 377.815 297.489 378.481 297.522V287.751C377.815 287.718 377.156 287.682 376.502 287.642ZM380.66 287.846V297.617C381.315 297.641 381.975 297.662 382.64 297.68V287.91C381.975 287.892 381.315 287.871 380.66 287.846ZM384.814 287.955V297.726C385.47 297.736 386.13 297.742 386.793 297.745V287.975C386.13 287.972 385.47 287.965 384.814 287.955ZM388.969 287.974V297.744C389.633 297.74 390.293 297.732 390.948 297.721V287.951C390.293 287.962 389.633 287.969 388.969 287.974ZM393.127 287.902V297.673C393.792 297.654 394.452 297.632 395.107 297.606V287.836C394.452 287.861 393.792 287.883 393.127 287.902ZM397.278 287.738V297.508C397.944 297.474 398.604 297.437 399.257 297.396V287.625C398.604 287.666 397.944 287.704 397.278 287.738ZM401.44 287.474V297.244C402.108 297.194 402.768 297.139 403.42 297.082V287.311C402.768 287.369 402.108 287.423 401.44 287.474ZM405.597 287.102V296.872C406.266 296.803 406.926 296.73 407.576 296.653V286.882C406.926 286.959 406.266 287.032 405.597 287.102ZM409.749 286.606V296.377C410.422 296.285 411.082 296.19 411.729 296.09V286.32C411.082 286.419 410.422 286.515 409.749 286.606ZM413.896 285.963V295.734C414.573 295.615 415.233 295.491 415.876 295.363V285.593C415.233 285.721 414.573 285.844 413.896 285.963ZM418.058 285.126V294.896C418.744 294.738 419.404 294.575 420.038 294.407V284.637C419.404 284.805 418.744 284.968 418.058 285.126ZM422.22 284.004V293.775C422.925 293.552 423.585 293.321 424.2 293.084V283.313C423.585 283.551 422.925 283.781 422.22 284.004ZM426.377 282.346V292.116C427.174 291.703 427.837 291.274 428.356 290.832V281.117H428.29C427.781 281.539 427.14 281.949 426.377 282.346Z" fill="#FF9211"/>
<g style="mix-blend-mode:multiply">
<path fill-rule="evenodd" clip-rule="evenodd" d="M422.892 280.093C423.126 279.758 423.247 279.415 423.247 279.067C423.247 275.084 407.395 271.855 387.84 271.855C368.285 271.855 352.432 275.084 352.432 279.067C352.432 279.415 352.553 279.757 352.787 280.091C355.232 276.594 369.994 273.906 387.839 273.906C405.687 273.906 420.45 276.595 422.892 280.093Z" fill="#FFC177"/>
</g>
<path d="M422.75 279.067C422.75 279.387 422.592 279.754 422.177 280.168C421.76 280.583 421.119 281.007 420.249 281.426C418.511 282.263 415.964 283.03 412.777 283.679C406.411 284.976 397.594 285.781 387.84 285.781C378.085 285.781 369.268 284.976 362.902 283.679C359.715 283.03 357.169 282.263 355.431 281.426C354.561 281.007 353.92 280.583 353.503 280.168C353.087 279.754 352.93 279.387 352.93 279.067C352.93 278.747 353.087 278.38 353.503 277.967C353.92 277.552 354.561 277.128 355.431 276.709C357.169 275.872 359.715 275.105 362.902 274.455C369.268 273.159 378.085 272.353 387.84 272.353C397.594 272.353 406.411 273.159 412.777 274.455C415.964 275.105 418.511 275.872 420.249 276.709C421.119 277.128 421.76 277.552 422.177 277.967C422.592 278.38 422.75 278.747 422.75 279.067Z" stroke="#FFC177" stroke-width="0.995694"/>
<g style="mix-blend-mode:multiply" opacity="0.5">
<ellipse cx="387.875" cy="279.064" rx="41.9424" ry="9.23462" fill="#FF981D"/>
</g>
<path d="M426.2 277.666H426.214V268.193C426.214 263.093 407.436 258.958 384.271 258.958C361.107 258.958 342.329 263.093 342.329 268.193V277.666H342.343C342.917 282.656 361.469 286.662 384.271 286.662C407.074 286.662 425.626 282.656 426.2 277.666Z" fill="#FFA318"/>
<path d="M342.399 268.192H342.329V277.665H342.342C342.917 282.655 361.469 286.661 384.271 286.661C407.074 286.661 425.626 282.655 426.2 277.665H426.214V268.192H426.144C424.884 273.043 406.619 276.891 384.271 276.891C361.923 276.891 343.659 273.043 342.399 268.192Z" fill="url(#paint12_linear)"/>
<path fill-rule="evenodd" clip-rule="evenodd" d="M343.933 270.194V279.964C344.469 280.378 345.132 280.779 345.913 281.167V271.396C345.132 271.009 344.469 270.607 343.933 270.194ZM348.091 272.33V282.101C348.707 282.332 349.368 282.556 350.07 282.773V273.003C349.368 272.785 348.707 272.561 348.091 272.33ZM352.243 273.619V283.389C352.878 283.554 353.538 283.714 354.223 283.869V274.099C353.538 273.944 352.878 273.784 352.243 273.619ZM356.398 274.557V284.327C357.041 284.453 357.701 284.575 358.378 284.692V274.921C357.701 274.804 357.041 274.683 356.398 274.557ZM360.552 275.273V285.044C361.199 285.142 361.859 285.236 362.532 285.326V275.555C361.859 275.465 361.199 275.371 360.552 275.273ZM364.714 275.828V285.598C365.364 285.674 366.024 285.746 366.694 285.814V276.043C366.024 275.975 365.364 275.903 364.714 275.828ZM368.871 276.249V286.019C369.523 286.076 370.183 286.129 370.85 286.178V276.408C370.183 276.359 369.523 276.305 368.871 276.249ZM373.028 276.555V286.326C373.681 286.366 374.341 286.402 375.007 286.435V276.665C374.341 276.632 373.681 276.595 373.028 276.555ZM377.185 276.76V286.53C377.84 286.555 378.5 286.576 379.165 286.594V276.823C378.5 276.806 377.84 276.784 377.185 276.76ZM381.336 276.869V286.639C381.992 286.649 382.652 286.656 383.316 286.659V276.889C382.652 276.885 381.992 276.879 381.336 276.869ZM385.493 276.887V286.658C386.157 286.653 386.817 286.646 387.472 286.635V276.865C386.817 276.876 386.157 276.883 385.493 276.887ZM389.655 276.816V286.586C390.32 286.567 390.98 286.545 391.635 286.52V276.749C390.98 276.775 390.32 276.797 389.655 276.816ZM393.808 276.651V286.422C394.474 286.388 395.134 286.35 395.787 286.309V276.539C395.134 276.58 394.474 276.617 393.808 276.651ZM397.968 276.388V286.158C398.636 286.107 399.296 286.053 399.948 285.995V276.225C399.296 276.282 398.636 276.337 397.968 276.388ZM402.115 276.016V285.787C402.785 285.717 403.445 285.644 404.095 285.567V275.797C403.445 275.874 402.785 275.947 402.115 276.016ZM406.273 275.52V285.291C406.946 285.199 407.606 285.104 408.253 285.004V275.234C407.606 275.333 406.946 275.429 406.273 275.52ZM410.43 274.876V284.646C411.107 284.527 411.767 284.403 412.409 284.275V274.505C411.767 274.633 411.107 274.756 410.43 274.876ZM414.582 274.039V283.81C415.268 283.652 415.928 283.489 416.562 283.321V273.551C415.928 273.719 415.268 273.882 414.582 274.039ZM418.748 272.917V282.688C419.453 282.464 420.114 282.234 420.728 281.997V272.226C420.114 272.463 419.453 272.694 418.748 272.917ZM422.895 271.263V281.034C423.692 280.621 424.355 280.192 424.875 279.751V270.028H424.819C424.308 270.452 423.663 270.865 422.895 271.263Z" fill="#FF9211"/>
<g style="mix-blend-mode:multiply">
<path fill-rule="evenodd" clip-rule="evenodd" d="M419.418 269.003C419.652 268.668 419.773 268.326 419.773 267.978C419.773 263.995 403.92 260.766 384.365 260.766C364.81 260.766 348.958 263.995 348.958 267.978C348.958 268.325 349.078 268.667 349.311 269.001C351.754 265.503 366.517 262.814 384.364 262.814C402.214 262.814 416.98 265.504 419.418 269.003Z" fill="#FFC177"/>
</g>
<path d="M419.275 267.978C419.275 268.298 419.118 268.665 418.702 269.079C418.285 269.494 417.644 269.918 416.774 270.337C415.036 271.174 412.49 271.941 409.303 272.59C402.937 273.886 394.12 274.692 384.365 274.692C374.611 274.692 365.794 273.886 359.428 272.59C356.241 271.941 353.694 271.174 351.956 270.337C351.086 269.918 350.445 269.494 350.028 269.079C349.613 268.665 349.456 268.298 349.456 267.978C349.456 267.658 349.613 267.291 350.028 266.877C350.445 266.463 351.086 266.038 351.956 265.619C353.694 264.783 356.241 264.016 359.428 263.366C365.794 262.07 374.611 261.264 384.365 261.264C394.12 261.264 402.937 262.07 409.303 263.366C412.49 264.016 415.036 264.783 416.774 265.619C417.644 266.038 418.285 266.463 418.702 266.877C419.118 267.291 419.275 267.658 419.275 267.978Z" stroke="#FFC177" stroke-width="0.995694"/>
<g style="mix-blend-mode:multiply" opacity="0.5">
<ellipse cx="384.391" cy="267.983" rx="41.9424" ry="9.23462" fill="#FF981D"/>
</g>
<path d="M430.889 266.202H430.903V256.729C430.903 251.629 412.125 247.495 388.96 247.495C365.796 247.495 347.018 251.629 347.018 256.729V266.202H347.032C347.606 271.193 366.158 275.199 388.96 275.199C411.763 275.199 430.315 271.193 430.889 266.202Z" fill="#FFA318"/>
<path d="M347.086 256.729H347.016V266.202H347.03C347.604 271.192 366.156 275.198 388.958 275.198C411.761 275.198 430.313 271.192 430.887 266.202H430.901V256.729H430.831C429.571 261.58 411.306 265.428 388.958 265.428C366.611 265.428 348.346 261.58 347.086 256.729Z" fill="url(#paint13_linear)"/>
<path fill-rule="evenodd" clip-rule="evenodd" d="M348.62 258.728V268.499C349.156 268.913 349.819 269.314 350.6 269.702V259.931C349.819 259.543 349.156 259.142 348.62 258.728ZM352.773 260.863V270.633C353.389 270.864 354.05 271.089 354.752 271.306V261.536C354.05 261.318 353.389 261.094 352.773 260.863ZM356.926 262.152V271.923C357.56 272.088 358.22 272.248 358.905 272.403V262.632C358.22 262.477 357.56 262.317 356.926 262.152ZM361.083 263.091V272.861C361.726 272.987 362.386 273.109 363.063 273.226V263.455C362.386 263.338 361.726 263.217 361.083 263.091ZM365.244 263.809V273.579C365.891 273.677 366.551 273.771 367.224 273.861V264.09C366.551 264 365.891 263.906 365.244 263.809ZM369.397 264.361V274.132C370.046 274.207 370.706 274.279 371.376 274.348V264.577C370.706 264.509 370.046 264.437 369.397 264.361ZM373.557 264.783V274.553C374.209 274.61 374.869 274.663 375.537 274.713V264.942C374.869 264.893 374.209 264.84 373.557 264.783ZM377.71 265.089V274.86C378.363 274.9 379.023 274.936 379.689 274.969V265.199C379.023 265.166 378.363 265.129 377.71 265.089ZM381.866 265.294V275.064C382.521 275.089 383.181 275.11 383.846 275.128V265.357C383.181 265.34 382.521 265.318 381.866 265.294ZM386.019 265.403V275.173C386.674 275.183 387.334 275.19 387.998 275.193V265.423C387.334 265.42 386.674 265.413 386.019 265.403ZM390.179 265.421V275.192C390.843 275.188 391.503 275.18 392.159 275.169V265.399C391.503 265.41 390.843 265.417 390.179 265.421ZM394.333 265.35V275.121C394.998 275.102 395.658 275.08 396.313 275.054V265.284C395.658 265.309 394.998 265.332 394.333 265.35ZM398.494 265.186V274.956C399.16 274.922 399.82 274.884 400.473 274.843V265.073C399.82 265.114 399.16 265.152 398.494 265.186ZM402.65 264.922V274.692C403.318 274.642 403.978 274.587 404.63 274.53V264.759C403.978 264.817 403.318 264.871 402.65 264.922ZM406.803 264.55V274.321C407.473 274.251 408.133 274.178 408.783 274.101V264.331C408.133 264.408 407.473 264.481 406.803 264.55ZM410.96 264.054V273.825C411.632 273.733 412.292 273.638 412.939 273.538V263.768C412.292 263.867 411.632 263.963 410.96 264.054ZM415.112 263.411V273.181C415.789 273.062 416.45 272.938 417.092 272.81V263.04C416.45 263.168 415.789 263.291 415.112 263.411ZM419.265 262.575V272.345C419.95 272.187 420.61 272.024 421.244 271.856V262.086C420.61 262.254 419.95 262.417 419.265 262.575ZM423.427 261.454V271.224C424.131 271.001 424.792 270.771 425.406 270.534V260.763C424.792 261 424.131 261.231 423.427 261.454ZM427.587 259.794V269.565C428.384 269.151 429.048 268.723 429.567 268.281V258.562H429.505C428.995 258.985 428.353 259.397 427.587 259.794Z" fill="#FF9211"/>
<g style="mix-blend-mode:multiply">
<path fill-rule="evenodd" clip-rule="evenodd" d="M424.119 257.536C424.353 257.202 424.474 256.86 424.474 256.512C424.474 252.529 408.621 249.3 389.066 249.3C369.511 249.3 353.659 252.529 353.659 256.512C353.659 256.861 353.78 257.203 354.014 257.538C356.456 254.04 371.219 251.351 389.068 251.351C406.912 251.351 421.674 254.039 424.119 257.536Z" fill="#FFC177"/>
</g>
<path d="M423.976 256.512C423.976 256.832 423.819 257.199 423.403 257.613C422.986 258.028 422.345 258.452 421.475 258.871C419.737 259.708 417.191 260.475 414.004 261.124C407.638 262.421 398.821 263.226 389.066 263.226C379.312 263.226 370.495 262.421 364.129 261.124C360.942 260.475 358.395 259.708 356.657 258.871C355.787 258.452 355.146 258.028 354.729 257.613C354.314 257.199 354.157 256.832 354.157 256.512C354.157 256.192 354.314 255.825 354.729 255.412C355.146 254.997 355.787 254.573 356.657 254.154C358.395 253.317 360.942 252.55 364.129 251.9C370.495 250.604 379.312 249.798 389.066 249.798C398.821 249.798 407.638 250.604 414.004 251.9C417.191 252.55 419.737 253.317 421.475 254.154C422.345 254.573 422.986 254.997 423.403 255.412C423.819 255.825 423.976 256.192 423.976 256.512Z" stroke="#FFC177" stroke-width="0.995694"/>
<g style="mix-blend-mode:multiply" opacity="0.5">
<ellipse cx="389.092" cy="256.514" rx="41.9424" ry="9.23462" fill="#FF981D"/>
</g>
<path d="M96.5051 141.905C95.8518 122.528 111.276 106.412 130.662 106.214L356.065 103.916C375.272 103.72 390.946 119.236 390.946 138.443V270.267C390.946 289.337 375.487 304.796 356.417 304.796H135.381C116.764 304.796 101.499 290.037 100.872 271.43L96.5051 141.905Z" fill="#1F2337"/>
<rect x="92.26" y="107.546" width="288.949" height="201.235" rx="34.529" fill="url(#paint14_linear)"/>
<rect x="92.26" y="107.546" width="288.949" height="201.235" rx="34.529" fill="url(#paint15_radial)" fill-opacity="0.5"/>
<rect x="103.599" y="121.281" width="269.212" height="173.685" rx="34.529" stroke="#F6F6FF" stroke-width="3.31933" stroke-linecap="round" stroke-dasharray="14.39 14.39"/>
<g filter="url(#filter0_d)">
<path d="M236.735 24.3896C229.587 37.2439 199.035 51.9727 179.321 49.4069C177.476 75.8572 192.463 128.309 236.735 152.686C281.008 128.309 295.995 75.8572 294.15 49.4069C274.436 51.9727 243.884 37.2439 236.735 24.3896Z" fill="#FFA318"/>
<path d="M260.293 77.818C254.31 71.889 244.679 71.9331 238.75 77.9165C237.488 79.1895 236.482 80.7149 235.602 82.3664L208.989 82.4882L202.682 88.8535L209.047 95.1609L212.832 91.3417L216.651 95.1261L220.435 91.3069L224.254 95.0913L235.66 95.0392C236.427 96.5564 237.448 98.0725 238.848 99.4601C244.832 105.389 254.463 105.345 260.392 99.3616C266.321 93.3782 266.277 83.7469 260.293 77.818ZM252.123 92.4293C249.959 90.2847 249.944 86.9899 252.088 84.8257C254.233 82.6614 257.527 82.6463 259.692 84.7909C261.856 86.9354 261.871 90.2303 259.726 92.3945C257.582 94.5588 254.287 94.5738 252.123 92.4293Z" fill="#F6F6FF"/>
<g style="mix-blend-mode:multiply">
<path d="M236.742 152.203C281.014 127.826 296.001 75.3745 294.156 48.9243C274.442 51.49 243.891 36.7615 236.742 23.9072V152.203Z" fill="#FFA318" fill-opacity="0.3"/>
</g>
</g>
<g filter="url(#filter1_d)">
<path d="M299.961 199.155C299.961 183.844 312.372 171.433 327.683 171.433H376.76C382.322 171.433 386.831 175.942 386.831 181.504V216.805C386.831 222.367 382.322 226.876 376.76 226.876H327.683C312.372 226.876 299.961 214.465 299.961 199.155Z" fill="#FF9211"/>
</g>
<circle cx="327.379" cy="199.153" r="8.96714" transform="rotate(-90 327.379 199.153)" fill="#1F2337"/>
<path d="M354.692 188.958L337.725 195.094C333.928 196.468 333.928 201.838 337.725 203.212L354.691 209.348C357.505 210.366 360.476 208.282 360.476 205.29V193.017C360.476 190.025 357.505 187.94 354.692 188.958Z" fill="#1F2337"/>
<path d="M391.138 167.544L380.977 171.608V226.734L391.138 222.796V167.544Z" fill="#D17B14"/>
<g style="mix-blend-mode:lighten">
<path d="M378.123 177.561C379.497 177.561 380.612 176.446 380.612 175.071C380.612 173.696 379.497 172.582 378.123 172.582V177.561ZM324.409 175.071V172.582C324.312 172.582 324.214 172.587 324.117 172.599L324.409 175.071ZM300.768 198.829C300.586 200.191 301.543 201.444 302.906 201.625C304.269 201.807 305.521 200.85 305.703 199.487L300.768 198.829ZM378.123 172.582H324.409V177.561H378.123V172.582ZM324.117 172.599C315.963 173.564 303.236 180.323 300.768 198.829L305.703 199.487C307.831 183.534 318.494 178.278 324.702 177.543L324.117 172.599Z" fill="#FFECBC"/>
</g>
<path fill-rule="evenodd" clip-rule="evenodd" d="M333.711 195.015C332.334 192.503 329.665 190.799 326.598 190.799C322.61 190.799 319.294 193.68 318.619 197.474C318.041 197.952 317.5 198.402 317.055 198.779C317.122 193.566 321.369 189.361 326.598 189.361C330.445 189.361 333.76 191.636 335.27 194.915C335.669 194.612 336.129 194.359 336.649 194.171L355.8 187.245C359.083 186.058 362.548 188.489 362.548 191.98V193.139L361.108 191.887C361.047 189.444 358.605 187.76 356.289 188.598L353.101 189.751L334.616 196.233L334.037 194.996L333.711 195.015Z" fill="#FFECBC"/>
<defs>
<filter id="filter0_d" x="150.397" y="0.887836" width="172.683" height="186.327" filterUnits="userSpaceOnUse" color-interpolation-filters="sRGB">
<feFlood flood-opacity="0" result="BackgroundImageFix"/>
<feColorMatrix in="SourceAlpha" type="matrix" values="0 0 0 0 0 0 0 0 0 0 0 0 0 0 0 0 0 0 127 0"/>
<feOffset dy="5.75484"/>
<feGaussianBlur stdDeviation="14.3871"/>
<feColorMatrix type="matrix" values="0 0 0 0 1 0 0 0 0 0.6 0 0 0 0 0 0 0 0 0.54 0"/>
<feBlend mode="normal" in2="BackgroundImageFix" result="effect1_dropShadow"/>
<feBlend mode="normal" in="SourceGraphic" in2="effect1_dropShadow" result="shape"/>
</filter>
<filter id="filter1_d" x="294.206" y="171.433" width="98.3799" height="66.9533" filterUnits="userSpaceOnUse" color-interpolation-filters="sRGB">
<feFlood flood-opacity="0" result="BackgroundImageFix"/>
<feColorMatrix in="SourceAlpha" type="matrix" values="0 0 0 0 0 0 0 0 0 0 0 0 0 0 0 0 0 0 127 0"/>
<feOffset dy="5.75484"/>
<feGaussianBlur stdDeviation="2.87742"/>
<feColorMatrix type="matrix" values="0 0 0 0 0 0 0 0 0 0 0 0 0 0 0 0 0 0 0.5 0"/>
<feBlend mode="normal" in2="BackgroundImageFix" result="effect1_dropShadow"/>
<feBlend mode="normal" in="SourceGraphic" in2="effect1_dropShadow" result="shape"/>
</filter>
<linearGradient id="paint0_linear" x1="63.5649" y1="95.6212" x2="132.791" y2="242.949" gradientUnits="userSpaceOnUse">
<stop stop-color="#C5C7FF"/>
<stop offset="1" stop-color="#C5C7FF" stop-opacity="0"/>
</linearGradient>
<linearGradient id="paint1_linear" x1="421.841" y1="168.99" x2="357.559" y2="214.391" gradientUnits="userSpaceOnUse">
<stop stop-color="#C5C7FF"/>
<stop offset="1" stop-color="#C5C7FF" stop-opacity="0"/>
</linearGradient>
<linearGradient id="paint2_linear" x1="27.7077" y1="284.003" x2="94.8923" y2="280.784" gradientUnits="userSpaceOnUse">
<stop stop-color="#FF9211"/>
<stop offset="0.53395" stop-color="#FFC581"/>
<stop offset="1" stop-color="#FF9211"/>
</linearGradient>
<linearGradient id="paint3_linear" x1="31.9182" y1="273.713" x2="99.1027" y2="270.495" gradientUnits="userSpaceOnUse">
<stop stop-color="#FF9211"/>
<stop offset="0.53395" stop-color="#FFC581"/>
<stop offset="1" stop-color="#FF9211"/>
</linearGradient>
<linearGradient id="paint4_linear" x1="28.8034" y1="263.78" x2="95.988" y2="260.562" gradientUnits="userSpaceOnUse">
<stop stop-color="#FF9211"/>
<stop offset="0.53395" stop-color="#FFC581"/>
<stop offset="1" stop-color="#FF9211"/>
</linearGradient>
<linearGradient id="paint5_linear" x1="33.0151" y1="253.485" x2="100.2" y2="250.266" gradientUnits="userSpaceOnUse">
<stop stop-color="#FF9211"/>
<stop offset="0.53395" stop-color="#FFC581"/>
<stop offset="1" stop-color="#FF9211"/>
</linearGradient>
<linearGradient id="paint6_linear" x1="59.3444" y1="299.98" x2="134.248" y2="296.392" gradientUnits="userSpaceOnUse">
<stop stop-color="#FF9211"/>
<stop offset="0.53395" stop-color="#FFC581"/>
<stop offset="1" stop-color="#FF9211"/>
</linearGradient>
<linearGradient id="paint7_linear" x1="64.03" y1="288.51" x2="138.934" y2="284.922" gradientUnits="userSpaceOnUse">
<stop stop-color="#FF9211"/>
<stop offset="0.53395" stop-color="#FFC581"/>
<stop offset="1" stop-color="#FF9211"/>
</linearGradient>
<linearGradient id="paint8_linear" x1="60.5559" y1="277.427" x2="135.459" y2="273.838" gradientUnits="userSpaceOnUse">
<stop stop-color="#FF9211"/>
<stop offset="0.53395" stop-color="#FFC581"/>
<stop offset="1" stop-color="#FF9211"/>
</linearGradient>
<linearGradient id="paint9_linear" x1="65.2556" y1="265.963" x2="140.159" y2="262.375" gradientUnits="userSpaceOnUse">
<stop stop-color="#FF9211"/>
<stop offset="0.53395" stop-color="#FFC581"/>
<stop offset="1" stop-color="#FF9211"/>
</linearGradient>
<linearGradient id="paint10_linear" x1="350.088" y1="299.98" x2="424.991" y2="296.392" gradientUnits="userSpaceOnUse">
<stop stop-color="#FF9211"/>
<stop offset="0.53395" stop-color="#FFC581"/>
<stop offset="1" stop-color="#FF9211"/>
</linearGradient>
<linearGradient id="paint11_linear" x1="354.786" y1="288.51" x2="429.689" y2="284.922" gradientUnits="userSpaceOnUse">
<stop stop-color="#FF9211"/>
<stop offset="0.53395" stop-color="#FFC581"/>
<stop offset="1" stop-color="#FF9211"/>
</linearGradient>
<linearGradient id="paint12_linear" x1="351.31" y1="277.427" x2="426.214" y2="273.838" gradientUnits="userSpaceOnUse">
<stop stop-color="#FF9211"/>
<stop offset="0.53395" stop-color="#FFC581"/>
<stop offset="1" stop-color="#FF9211"/>
</linearGradient>
<linearGradient id="paint13_linear" x1="355.997" y1="265.963" x2="430.901" y2="262.375" gradientUnits="userSpaceOnUse">
<stop stop-color="#FF9211"/>
<stop offset="0.53395" stop-color="#FFC581"/>
<stop offset="1" stop-color="#FF9211"/>
</linearGradient>
<linearGradient id="paint14_linear" x1="233.195" y1="338.79" x2="236.735" y2="57.7428" gradientUnits="userSpaceOnUse">
<stop stop-color="#47526A"/>
<stop offset="1" stop-color="#F52079"/>
</linearGradient>
<radialGradient id="paint15_radial" cx="0" cy="0" r="1" gradientUnits="userSpaceOnUse" gradientTransform="translate(236.735 85.4402) rotate(90) scale(122.724 176.216)">
<stop stop-color="#FFA318"/>
<stop offset="1" stop-color="#FFA318" stop-opacity="0"/>
</radialGradient>
</defs>
</svg>
