<svg width="33" height="33" viewBox="0 0 33 33" fill="none" xmlns="http://www.w3.org/2000/svg">
<path d="M6.45794 23.2175L6.45555 23.3723L6.54112 23.5014C7.637 25.1548 9.125 26.5112 10.8724 27.4497C12.6199 28.3883 14.5724 28.8799 16.5559 28.8805C18.5395 28.8812 20.4923 28.391 22.2404 27.4537C23.9885 26.5163 25.4774 25.1609 26.5744 23.5084L26.6601 23.3794L26.6578 23.2245C26.6435 22.2485 26.1424 21.4221 25.4278 20.7532C24.7152 20.0862 23.7565 19.5414 22.7281 19.1113C20.6734 18.252 18.2202 17.8011 16.5598 17.8005C14.8915 17.8 12.4379 18.2491 10.3844 19.1071C9.3566 19.5366 8.3989 20.0808 7.68709 20.7474C6.97316 21.416 6.47299 22.2419 6.45794 23.2175ZM1.06009 16.8552C1.06306 8.2993 8.00961 1.35756 16.5655 1.36053C25.1213 1.3635 32.0631 8.31005 32.0601 16.8659C32.0571 25.4218 25.1106 32.3635 16.5547 32.3605C7.99885 32.3576 1.05712 25.411 1.06009 16.8552ZM21.8623 10.4624C21.8633 7.53023 19.4963 5.16155 16.5642 5.16053C13.632 5.15952 11.2633 7.52655 11.2623 10.4587C11.2613 13.3908 13.6283 15.7595 16.5605 15.7605C19.4926 15.7615 21.8613 13.3945 21.8623 10.4624Z" fill="#00CC9E" stroke="#00CC9E"/>
</svg>
