<svg width="16" height="15" viewBox="0 0 16 15" fill="none" xmlns="http://www.w3.org/2000/svg">
<path d="M5.76074 1.41016C6.2552 1.41016 6.73855 1.55678 7.14967 1.83148C7.56079 2.10619 7.88122 2.49663 8.07044 2.95345C8.25966 3.41026 8.30917 3.91293 8.21271 4.39788C8.11624 4.88283 7.87814 5.32829 7.52851 5.67792C7.17888 6.02755 6.73342 6.26566 6.24847 6.36212C5.76352 6.45858 5.26085 6.40907 4.80404 6.21986C4.34722 6.03064 3.95677 5.7102 3.68207 5.29908C3.40737 4.88796 3.26074 4.40461 3.26074 3.91016C3.26074 3.24712 3.52414 2.61123 3.99298 2.14239C4.46182 1.67355 5.0977 1.41016 5.76074 1.41016ZM5.76074 0.410156C5.06851 0.410156 4.39182 0.615428 3.81625 1.00001C3.24068 1.3846 2.79207 1.93122 2.52717 2.57076C2.26226 3.21031 2.19295 3.91404 2.328 4.59297C2.46304 5.27191 2.79639 5.89555 3.28587 6.38503C3.77535 6.87451 4.39899 7.20786 5.07793 7.3429C5.75686 7.47795 6.46059 7.40864 7.10014 7.14373C7.73968 6.87883 8.2863 6.43022 8.67089 5.85465C9.05547 5.27908 9.26074 4.60239 9.26074 3.91016C9.26074 2.9819 8.89199 2.09166 8.23562 1.43528C7.57924 0.778905 6.689 0.410156 5.76074 0.410156Z" fill="#ADADC8"/>
<path d="M10.7607 14.4102H9.76074V11.9102C9.76074 11.2471 9.49735 10.6112 9.02851 10.1424C8.55967 9.67355 7.92378 9.41016 7.26074 9.41016H4.26074C3.5977 9.41016 2.96182 9.67355 2.49298 10.1424C2.02413 10.6112 1.76074 11.2471 1.76074 11.9102V14.4102H0.760742V11.9102C0.760742 10.9819 1.12949 10.0917 1.78587 9.43528C2.44225 8.77891 3.33248 8.41016 4.26074 8.41016H7.26074C8.189 8.41016 9.07924 8.77891 9.73562 9.43528C10.392 10.0917 10.7607 10.9819 10.7607 11.9102V14.4102Z" fill="#ADADC8"/>
<path d="M10.7607 1.41016H15.7607V2.41016H10.7607V1.41016Z" fill="#ADADC8"/>
<path d="M10.7607 3.91016H15.7607V4.91016H10.7607V3.91016Z" fill="#ADADC8"/>
<path d="M10.7607 6.41016H14.2607V7.41016H10.7607V6.41016Z" fill="#ADADC8"/>
</svg>
