<svg width="16" height="15" viewBox="0 0 16 15" fill="none" xmlns="http://www.w3.org/2000/svg">
<path d="M5.83106 1.9209C6.32551 1.9209 6.80886 2.06752 7.21998 2.34222C7.6311 2.61693 7.95154 3.00737 8.14076 3.46419C8.32997 3.92101 8.37948 4.42367 8.28302 4.90862C8.18656 5.39358 7.94845 5.83903 7.59882 6.18867C7.24919 6.5383 6.80373 6.7764 6.31878 6.87286C5.83383 6.96933 5.33116 6.91982 4.87435 6.7306C4.41753 6.54138 4.02709 6.22095 3.75238 5.80982C3.47768 5.3987 3.33106 4.91535 3.33106 4.4209C3.33106 3.75786 3.59445 3.12197 4.06329 2.65313C4.53213 2.18429 5.16802 1.9209 5.83106 1.9209ZM5.83106 0.920898C5.13882 0.920898 4.46213 1.12617 3.88656 1.51075C3.31099 1.89534 2.86238 2.44197 2.59748 3.08151C2.33257 3.72105 2.26326 4.42478 2.39831 5.10371C2.53336 5.78265 2.8667 6.40629 3.35618 6.89577C3.84567 7.38526 4.46931 7.7186 5.14824 7.85365C5.82717 7.9887 6.53091 7.91938 7.17045 7.65448C7.80999 7.38957 8.35662 6.94097 8.7412 6.36539C9.12578 5.78982 9.33106 5.11313 9.33106 4.4209C9.33106 3.49264 8.96231 2.6024 8.30593 1.94602C7.64955 1.28965 6.75931 0.920898 5.83106 0.920898Z" fill="#323754"/>
<path d="M10.8311 14.9209H9.83105V12.4209C9.83105 11.7579 9.56766 11.122 9.09882 10.6531C8.62998 10.1843 7.9941 9.9209 7.33105 9.9209H4.33105C3.66801 9.9209 3.03213 10.1843 2.56329 10.6531C2.09445 11.122 1.83105 11.7579 1.83105 12.4209V14.9209H0.831055V12.4209C0.831055 11.4926 1.1998 10.6024 1.85618 9.94602C2.51256 9.28965 3.4028 8.9209 4.33105 8.9209H7.33105C8.25931 8.9209 9.14955 9.28965 9.80593 9.94602C10.4623 10.6024 10.8311 11.4926 10.8311 12.4209V14.9209Z" fill="#323754"/>
<path d="M10.8311 1.9209H15.8311V2.9209H10.8311V1.9209Z" fill="#323754"/>
<path d="M10.8311 4.4209H15.8311V5.4209H10.8311V4.4209Z" fill="#323754"/>
<path d="M10.8311 6.9209H14.3311V7.9209H10.8311V6.9209Z" fill="#323754"/>
</svg>
