<svg width="96" height="96" viewBox="0 0 96 96" fill="none" xmlns="http://www.w3.org/2000/svg">
<circle cx="48" cy="48" r="48" fill="#1F2337"/>
<rect x="16.1562" y="28.8711" width="63.6913" height="40.9026" rx="4.85504" fill="url(#paint0_linear)"/>
<rect x="38.0361" y="21.6178" width="19.9322" height="15.5545" rx="4.85504" stroke="#F29201" stroke-width="3.88403"/>
<g filter="url(#filter0_d)">
<path d="M16.1562 37.8129C16.4591 41.9144 18.8087 45.8965 23.1655 48.2264L40.367 57.4252C44.5678 59.6717 49.7176 59.7471 53.9924 57.6247L72.5433 48.4143C76.8396 46.2812 79.2857 42.5701 79.8475 38.6501C79.0049 37.9327 77.9144 37.5 76.7233 37.5H17.8673C17.2649 37.5 16.6882 37.6107 16.1562 37.8129Z" fill="#EE8F01"/>
</g>
<path fill-rule="evenodd" clip-rule="evenodd" d="M59.6841 24.7853C58.9337 21.8477 56.2696 19.6758 53.0982 19.6758H42.8761C39.7047 19.6758 37.0406 21.8477 36.2902 24.7853H40.5014C41.0294 24.0436 41.8963 23.5598 42.8761 23.5598H53.0982C54.078 23.5598 54.9449 24.0436 55.4729 24.7853H59.6841Z" fill="#985C01"/>
<path d="M18.9745 37.5C19.2505 41.2225 21.3922 44.8366 25.3636 46.9512L41.0432 55.3C44.8723 57.3388 49.5665 57.4072 53.4631 55.481L70.3727 47.1217C74.2888 45.1858 76.5185 41.8176 77.0306 38.2598" stroke="#5F3900" stroke-width="0.485504" stroke-linecap="round" stroke-dasharray="0.97 4.86"/>
<path fill-rule="evenodd" clip-rule="evenodd" d="M53.1708 58.3089C53.2996 58.0493 53.372 57.7567 53.372 57.4472V54.1295C53.372 53.057 52.5025 52.1875 51.43 52.1875H44.251C43.1784 52.1875 42.309 53.057 42.309 54.1295V57.4472C42.309 57.6513 42.3405 57.8481 42.3989 58.0329C45.8109 59.4416 49.688 59.5378 53.1708 58.3089Z" fill="#FFC267"/>
<defs>
<filter id="filter0_d" x="12.2722" y="37.5" width="71.4593" height="29.433" filterUnits="userSpaceOnUse" color-interpolation-filters="sRGB">
<feFlood flood-opacity="0" result="BackgroundImageFix"/>
<feColorMatrix in="SourceAlpha" type="matrix" values="0 0 0 0 0 0 0 0 0 0 0 0 0 0 0 0 0 0 127 0"/>
<feOffset dy="3.88403"/>
<feGaussianBlur stdDeviation="1.94202"/>
<feColorMatrix type="matrix" values="0 0 0 0 0 0 0 0 0 0 0 0 0 0 0 0 0 0 0.25 0"/>
<feBlend mode="normal" in2="BackgroundImageFix" result="effect1_dropShadow"/>
<feBlend mode="normal" in="SourceGraphic" in2="effect1_dropShadow" result="shape"/>
</filter>
<linearGradient id="paint0_linear" x1="48.0019" y1="28.8711" x2="48.0019" y2="69.7737" gradientUnits="userSpaceOnUse">
<stop stop-color="#FF9900"/>
<stop offset="1" stop-color="#A86500"/>
</linearGradient>
</defs>
</svg>
