<svg width="17" height="19" viewBox="0 0 17 19" fill="none" xmlns="http://www.w3.org/2000/svg">
<path fill-rule="evenodd" clip-rule="evenodd" d="M5.84473 1.97068C4.83615 1.97068 4.01853 2.7883 4.01853 3.79688C4.01853 4.80545 4.83615 5.62307 5.84473 5.62307C6.85331 5.62307 7.67092 4.80545 7.67092 3.79688C7.67092 2.7883 6.85331 1.97068 5.84473 1.97068ZM2.54883 3.79688C2.54883 1.9766 4.02445 0.500977 5.84473 0.500977C7.665 0.500977 9.14063 1.9766 9.14063 3.79688C9.14063 5.61715 7.665 7.09277 5.84473 7.09277C4.02445 7.09277 2.54883 5.61715 2.54883 3.79688Z" fill="#7A7FFF" stroke="#7A7FFF" stroke-width="0.2"/>
<path fill-rule="evenodd" clip-rule="evenodd" d="M14.7991 7.98538C15.1966 8.33312 15.2368 8.93721 14.8891 9.33464L10.5544 14.7608C9.90901 15.4984 8.81042 15.6287 8.01041 15.0625L6.66731 14.1119L2.48038 18.3804C2.13011 18.7756 1.52578 18.812 1.13058 18.4618C0.735368 18.1115 0.698937 17.5072 1.04921 17.1119L5.23614 12.8435C5.88314 12.1134 6.97589 11.9874 7.77211 12.5509L9.11521 13.5015L13.4499 8.07533C13.7976 7.6779 14.4017 7.63763 14.7991 7.98538Z" fill="#7A7FFF"/>
<path d="M7.34717 10.2484H4.51918C3.7572 10.2484 3.11038 10.807 2.99941 11.5608L2.85791 12.866L1.1956 14.336C1.05873 14.457 0.844584 14.3462 0.864279 14.1646L1.17568 11.2924C1.41982 9.63389 2.84282 8.40503 4.51918 8.40503H7.34717C8.42869 8.40503 9.40425 8.9164 10.0262 9.72404C10.1111 9.83432 10.0971 9.98893 10.0019 10.0904L9.17909 10.9673C9.02041 11.1365 8.72653 11.0692 8.59012 10.8817C8.30899 10.4951 7.85364 10.2484 7.34717 10.2484Z" fill="#7A7FFF"/>
<path d="M15.4934 6.64453C15.9091 6.64453 16.2461 6.98152 16.2461 7.39722L16.2461 9.51411C16.2461 10.1847 15.4353 10.5205 14.9612 10.0463L12.8443 7.92946C12.3701 7.45529 12.7059 6.64453 13.3765 6.64453L15.4934 6.64453Z" fill="#7A7FFF"/>
</svg>
