<svg width="16" height="19" viewBox="0 0 16 19" fill="none" xmlns="http://www.w3.org/2000/svg">
<path fill-rule="evenodd" clip-rule="evenodd" d="M5.2998 1.82615C4.29123 1.82615 3.47361 2.64376 3.47361 3.65234C3.47361 4.66092 4.29123 5.47854 5.2998 5.47854C6.30838 5.47854 7.126 4.66092 7.126 3.65234C7.126 2.64376 6.30838 1.82615 5.2998 1.82615ZM2.00391 3.65234C2.00391 1.83207 3.47953 0.356445 5.2998 0.356445C7.12008 0.356445 8.5957 1.83207 8.5957 3.65234C8.5957 5.47262 7.12008 6.94824 5.2998 6.94824C3.47953 6.94824 2.00391 5.47262 2.00391 3.65234Z" fill="white" stroke="#7A7FFF" stroke-width="0.2"/>
<path fill-rule="evenodd" clip-rule="evenodd" d="M14.2542 7.84109C14.6516 8.18884 14.6919 8.79292 14.3442 9.19035L10.0095 14.6165C9.36409 15.3542 8.2655 15.4844 7.46549 14.9182L6.12239 13.9676L1.93546 18.2361C1.58519 18.6313 0.980862 18.6677 0.585654 18.3175C0.190446 17.9672 0.154016 17.3629 0.504285 16.9677L4.69122 12.6992C5.33822 11.9692 6.43097 11.8431 7.22719 12.4066L8.57029 13.3572L12.905 7.93104C13.2527 7.53361 13.8568 7.49334 14.2542 7.84109Z" fill="white"/>
<path d="M6.80225 10.1041H3.97426C3.21228 10.1041 2.56546 10.6627 2.45449 11.4166L2.31299 12.7217L0.650681 14.1917C0.513806 14.3127 0.299663 14.2019 0.319357 14.0203L0.630755 11.1481C0.874894 9.48961 2.2979 8.26074 3.97426 8.26074H6.80225C7.88377 8.26074 8.85933 8.77211 9.48127 9.57975C9.56619 9.69003 9.55218 9.84464 9.45694 9.94614L8.63417 10.8231C8.47549 10.9922 8.18161 10.9249 8.0452 10.7374C7.76407 10.3508 7.30872 10.1041 6.80225 10.1041Z" fill="white"/>
<path d="M14.9485 6.5C15.3642 6.5 15.7012 6.83699 15.7012 7.25269L15.7012 9.36958C15.7012 10.0402 14.8904 10.376 14.4162 9.90181L12.2994 7.78492C11.8252 7.31076 12.161 6.5 12.8316 6.5L14.9485 6.5Z" fill="white"/>
</svg>
