<svg width="37" height="37" viewBox="0 0 37 37" fill="none" xmlns="http://www.w3.org/2000/svg">
<circle cx="18.6152" cy="18.5195" r="17" stroke="#323754" stroke-width="2"/>
<path d="M21.9711 19.2938V21.8748H24.5506V24.4543H27.1308V27.0354H24.5506V24.4551H21.9711V27.0354H19.3893V24.4543H21.9695V21.8748H19.3893V19.2938H21.9703H21.9711ZM15.9055 19.2938C16.4188 19.2938 16.9111 19.4977 17.2741 19.8607C17.637 20.2236 17.8409 20.7159 17.8409 21.2292V25.1C17.8409 25.6133 17.637 26.1056 17.2741 26.4685C16.9111 26.8315 16.4188 27.0354 15.9055 27.0354H12.0348C11.5215 27.0354 11.0292 26.8315 10.6662 26.4685C10.3033 26.1056 10.0994 25.6133 10.0994 25.1V21.2292C10.0994 20.7159 10.3033 20.2236 10.6662 19.8607C11.0292 19.4977 11.5215 19.2938 12.0348 19.2938H15.9055ZM15.9055 20.8421H12.0348C11.9321 20.8421 11.8336 20.8829 11.7611 20.9555C11.6885 21.0281 11.6477 21.1265 11.6477 21.2292V25.1C11.6477 25.2026 11.6885 25.3011 11.7611 25.3737C11.8336 25.4463 11.9321 25.4871 12.0348 25.4871H15.9055C16.0082 25.4871 16.1067 25.4463 16.1793 25.3737C16.2518 25.3011 16.2926 25.2026 16.2926 25.1V21.2292C16.2926 21.1265 16.2518 21.0281 16.1793 20.9555C16.1067 20.8829 16.0082 20.8421 15.9055 20.8421ZM15.3249 21.8098V24.5194H12.6154V21.8098H15.3249ZM27.1308 19.2938V21.8748H24.5506V19.2938H27.1308ZM15.9055 10.0039C16.4188 10.0039 16.9111 10.2078 17.2741 10.5708C17.637 10.9337 17.8409 11.426 17.8409 11.9393V15.8101C17.8409 16.3234 17.637 16.8157 17.2741 17.1786C16.9111 17.5416 16.4188 17.7455 15.9055 17.7455H12.0348C11.5215 17.7455 11.0292 17.5416 10.6662 17.1786C10.3033 16.8157 10.0994 16.3234 10.0994 15.8101V11.9393C10.0994 11.426 10.3033 10.9337 10.6662 10.5708C11.0292 10.2078 11.5215 10.0039 12.0348 10.0039H15.9055ZM25.1954 10.0039C25.7087 10.0039 26.201 10.2078 26.564 10.5708C26.9269 10.9337 27.1308 11.426 27.1308 11.9393V15.8101C27.1308 16.3234 26.9269 16.8157 26.564 17.1786C26.201 17.5416 25.7087 17.7455 25.1954 17.7455H21.3246C20.8114 17.7455 20.3191 17.5416 19.9561 17.1786C19.5932 16.8157 19.3893 16.3234 19.3893 15.8101V11.9393C19.3893 11.426 19.5932 10.9337 19.9561 10.5708C20.3191 10.2078 20.8114 10.0039 21.3246 10.0039H25.1954ZM15.9055 11.5522H12.0348C11.9321 11.5522 11.8336 11.593 11.7611 11.6656C11.6885 11.7382 11.6477 11.8366 11.6477 11.9393V15.8101C11.6477 15.9127 11.6885 16.0112 11.7611 16.0838C11.8336 16.1564 11.9321 16.1972 12.0348 16.1972H15.9055C16.0082 16.1972 16.1067 16.1564 16.1793 16.0838C16.2518 16.0112 16.2926 15.9127 16.2926 15.8101V11.9393C16.2926 11.8366 16.2518 11.7382 16.1793 11.6656C16.1067 11.593 16.0082 11.5522 15.9055 11.5522ZM25.1954 11.5522H21.3246C21.222 11.5522 21.1235 11.593 21.0509 11.6656C20.9784 11.7382 20.9376 11.8366 20.9376 11.9393V15.8101C20.9376 15.9127 20.9784 16.0112 21.0509 16.0838C21.1235 16.1564 21.222 16.1972 21.3246 16.1972H25.1954C25.2981 16.1972 25.3966 16.1564 25.4691 16.0838C25.5417 16.0112 25.5825 15.9127 25.5825 15.8101V11.9393C25.5825 11.8366 25.5417 11.7382 25.4691 11.6656C25.3966 11.593 25.2981 11.5522 25.1954 11.5522ZM24.6148 12.5199V15.2295H21.9053V12.5199H24.6148ZM15.3226 12.5222V15.2279H12.6177V12.5222H15.3226Z" fill="#323754"/>
</svg>
