<svg width="29" height="29" viewBox="0 0 29 29" fill="none" xmlns="http://www.w3.org/2000/svg">
<path d="M14.2072 8.60843C13.5445 8.60843 13.0072 9.14681 13.0072 9.81093C13.0072 10.475 13.5445 11.0134 14.2072 11.0134C14.87 11.0134 15.4072 10.4751 15.4072 9.81093C15.4072 9.14681 14.87 8.60843 14.2072 8.60843Z" fill="#4048FF"/>
<path d="M14.2072 20.6335C14.5255 20.6335 14.8307 20.5069 15.0558 20.2813C15.2808 20.0558 15.4072 19.75 15.4072 19.431L15.4072 13.4185C15.4072 13.0996 15.2808 12.7938 15.0558 12.5683C14.8307 12.3427 14.5255 12.216 14.2072 12.216C13.889 12.216 13.5837 12.3427 13.3587 12.5683C13.1337 12.7938 13.0072 13.0996 13.0072 13.4185L13.0072 19.431C13.0072 19.75 13.1337 20.0558 13.3587 20.2813C13.5837 20.5069 13.889 20.6335 14.2072 20.6335Z" fill="#4048FF"/>
<path d="M14.207 27.6462C21.3887 27.6462 27.207 21.8127 27.207 14.6212C27.207 7.42965 21.3887 1.59619 14.207 1.59619C7.02537 1.59619 1.20703 7.42965 1.20703 14.6212C1.20703 21.8127 7.02537 27.6462 14.207 27.6462Z" stroke="#4048FF" stroke-width="2"/>
</svg>
