<svg width="16" height="16" viewBox="0 0 16 16" fill="none" xmlns="http://www.w3.org/2000/svg">
<path d="M13.913 3.18294V1.56522C13.913 0.702156 13.2109 0 12.3478 0C11.6183 0 11.0039 0.501625 10.8312 1.17806C9.17466 2.43841 7.12728 3.13044 5.04347 3.13044H3.13044C1.40431 3.13044 0 4.53475 0 6.26088C0 7.74797 1.04238 8.99613 2.43478 9.31328V14.4348C2.43478 15.2978 3.13694 16 4 16C4.86306 16 5.56522 15.2978 5.56522 14.4348V9.40625C7.46691 9.5115 9.31322 10.1887 10.8312 11.3437C11.0039 12.0201 11.6183 12.5218 12.3478 12.5218C13.2109 12.5218 13.913 11.8196 13.913 10.9565V8.29534C15.1023 8.05297 16 6.99891 16 5.73912C16 4.47934 15.1023 3.42531 13.913 3.18294ZM4.52175 14.4348C4.52175 14.7225 4.28769 14.9565 4 14.9565C3.71231 14.9565 3.47825 14.7225 3.47825 14.4348V9.39131H4.52172V14.4348H4.52175ZM4.52175 8.34781H3.13044C1.97969 8.34781 1.04347 7.41159 1.04347 6.26084C1.04347 5.11009 1.97969 4.17387 3.13044 4.17387H4.52175V8.34781ZM10.7826 10.037C9.22525 9.03588 7.41781 8.45328 5.56522 8.36084V4.16087C7.41784 4.06844 9.22525 3.48581 10.7826 2.48475V10.037ZM12.8696 10.9565C12.8696 11.2442 12.6355 11.4783 12.3478 11.4783C12.0601 11.4783 11.8261 11.2442 11.8261 10.9565V1.56522C11.8261 1.27753 12.0601 1.04347 12.3478 1.04347C12.6355 1.04347 12.8696 1.27753 12.8696 1.56522V10.9565ZM13.913 7.21459V4.26363C14.5203 4.479 14.9565 5.05894 14.9565 5.73909C14.9565 6.41925 14.5203 6.99925 13.913 7.21459Z" fill="#323754"/>
</svg>
