<svg width="19" height="19" viewBox="0 0 19 19" fill="none" xmlns="http://www.w3.org/2000/svg">
<path d="M18.0038 0.000566186L14.9807 2.40249C13.3908 1.06924 11.349 0.259384 9.13127 0.259384C4.11904 0.259384 0 4.37876 0 9.39065C0 14.4029 4.11937 18.4288 9.13127 18.4288C13.0605 18.4288 16.4371 15.9591 17.7139 12.4757L14.4423 11.6785C13.5668 13.7432 11.5379 15.1675 9.13127 15.1675C5.90968 15.1675 3.35407 12.612 3.35407 9.39026C3.35407 6.16867 5.90952 3.51997 9.13127 3.51997C10.3266 3.51997 11.4249 3.89006 12.3407 4.51386L9.34871 6.89508L18.0039 8.49982V0L18.0038 0.000566186Z" fill="#F52079"/>
</svg>
