<svg width="16" height="22" viewBox="0 0 16 22" fill="none" xmlns="http://www.w3.org/2000/svg">
<path d="M16 20.0582C16 20.6104 15.5523 21.0582 15 21.0582L1 21.0582C0.447716 21.0582 1.04759e-06 20.6104 1.07173e-06 20.0582L1.07332e-06 20.0218C2.05113e-06 19.4695 0.447717 19.0218 1 19.0218L15 19.0218C15.5523 19.0218 16 19.4695 16 20.0218L16 20.0582Z" fill="white"/>
<path fill-rule="evenodd" clip-rule="evenodd" d="M15.3125 10.1639C15.6942 9.77531 15.6942 9.15265 15.3125 8.76409C14.9211 8.36551 14.2788 8.36551 13.8873 8.76409L8.99994 13.7403L8.99994 1.9414C8.99994 1.38912 8.55222 0.941406 7.99994 0.941406C7.44765 0.941406 6.99994 1.38912 6.99994 1.94141L6.99994 13.7403L2.11254 8.7641C1.72107 8.36551 1.07879 8.36551 0.687322 8.76409C0.305701 9.15265 0.305702 9.77531 0.687322 10.1639L6.81614 16.4041C7.46645 17.0662 8.53342 17.0662 9.18373 16.4041L15.3125 10.1639Z" fill="white"/>
</svg>
