<svg width="446" height="452" viewBox="0 0 446 452" fill="none" xmlns="http://www.w3.org/2000/svg">
<mask id="mask0" mask-type="alpha" maskUnits="userSpaceOnUse" x="0" y="0" width="446" height="452">
<path d="M207.378 447.817C177.31 458.153 147.778 440.912 137.141 430.668C83.5604 398.363 54.4358 418.162 29.8519 394.523C-0.87787 364.975 15.2759 220.137 4.6387 179.952C-5.99855 139.767 3.84975 34.2352 29.8519 15.3243C55.854 -3.58651 135.663 -0.387678 190.031 1.97616C244.399 4.33999 281.856 118.646 299.783 55.3691C303.554 42.059 446.84 109.681 445.658 119.137C444.476 128.592 407.836 258.603 401.927 275.15C397.199 288.387 344.801 360.248 319.193 394.523C290.433 411.464 234.337 438.549 207.378 447.817Z" fill="black"/>
</mask>
<g mask="url(#mask0)">
<path d="M252.224 354.24H155.322C149.306 382.507 123.261 619.674 121.908 643.802H138.339L199.539 412.312C200.378 418.754 212.498 631.574 213.302 635.374L230.812 629.449L252.224 354.24Z" fill="#4048FF"/>
<path d="M290.474 292.554C265.415 273.592 241.98 248.253 222.156 221.537C206.983 201.608 213.797 191.346 229.041 185.776C238.624 186.482 246.744 189.636 254.214 198.979C275.732 225.892 285.06 241.61 301.422 268.601L290.474 292.554Z" fill="#F52079"/>
<path d="M315.019 202.969L307.453 200.017L299.537 219.754L313.873 226.073C314.712 217.196 314.953 209.069 315.019 202.969Z" fill="#E3E3E3"/>
<path d="M299.533 219.754L282.622 261.922L294.303 282.898C307.072 269.774 315.292 246.399 317.178 226.449L299.533 219.754Z" fill="#F52079"/>
<path d="M322.155 213.786L316.953 215.606C314.534 216.451 311.844 215.899 309.956 214.193C300.196 205.363 290.185 186.225 286.223 174.645L308.332 166.915C311.403 176.628 319.459 194.422 325.607 202.706C328.511 206.618 326.802 212.161 322.155 213.786Z" fill="#000342"/>
<path d="M302.786 168.854L284.025 175.414C273.663 179.037 262.269 173.736 258.575 163.575C254.881 153.414 260.286 142.239 270.648 138.616L289.408 132.057L302.786 168.854Z" fill="url(#paint0_linear)"/>
<path d="M286.68 133.969C283.084 135.896 282.958 144.688 286.301 153.883C289.643 163.079 295.414 169.809 299.438 169.06C299.441 169.07 387.829 169.349 387.829 169.349L354.952 78.9142L286.68 133.969Z" fill="#F62054"/>
<path d="M354.049 73.2688C344.152 76.7292 344.348 102.145 354.487 130.036C364.627 157.927 380.87 177.732 390.767 174.272C400.665 170.811 400.468 145.396 390.329 117.504C380.19 89.6133 363.947 69.8083 354.049 73.2688Z" fill="#000342"/>
<path d="M354.483 130.042C356.697 136.136 359.205 141.843 361.873 147.006L382.038 136.206L371.847 108.173L349.264 112.319C350.527 117.974 352.268 123.948 354.483 130.042Z" fill="url(#paint1_linear)"/>
<path d="M371.862 108.192C369.115 109.152 369.169 116.206 371.983 123.947C374.797 131.688 379.305 137.184 382.052 136.224C384.799 135.263 384.745 128.209 381.931 120.469C379.117 112.728 374.609 107.231 371.862 108.192Z" fill="#F62054"/>
<path d="M391.58 176.502C385.753 178.539 378.388 174.595 370.845 165.396C363.827 156.84 357.213 144.565 352.22 130.833C347.228 117.1 344.432 103.491 344.347 92.5113C344.255 80.7064 347.414 73.0828 353.242 71.0457C359.069 69.0086 366.433 72.9517 373.978 82.1512C380.995 90.7067 387.609 102.982 392.601 116.715C397.594 130.447 400.389 144.057 400.475 155.036C400.565 166.841 397.407 174.464 391.58 176.502ZM354.858 75.4948C347.456 78.0833 346.413 100.795 356.757 129.247C367.1 157.698 382.557 174.641 389.962 172.053C397.366 169.464 398.408 146.752 388.064 118.301C377.72 89.8491 362.263 72.9057 354.858 75.4948Z" fill="#B3EDFF"/>
<path d="M311.062 215.049L299.639 199.183L295.002 189.38L292.289 190.614L294.573 202.23L301.539 212.728L311.062 215.049ZM310.864 187.079L320.315 201.627L322.87 196.387L320.242 190.115L315.529 180.575L313.683 180.695L310.864 187.079Z" fill="#F4ACC8"/>
<path d="M246.194 306.662C246.77 286.161 250.447 240.447 251.747 211.324C252.265 199.705 244.529 189.25 233.076 186.236C203.762 178.517 169.231 175.974 144.274 186.717C137.381 189.685 133.161 196.275 133.466 204.025C135.003 243.236 155.455 306.662 155.455 306.662L143.933 380.081H259.71L246.087 306.662H246.194Z" fill="#F52079"/>
<path d="M227.582 307.681L221.625 183.56C206.464 180.434 190.481 178.858 175.499 179.826L208.838 307.78L206.139 363.026H227.182L227.582 307.681Z" fill="#E3E3E3"/>
<path d="M82.9922 213.437L75.0757 218.446C75.4737 222.07 76.0368 226.441 76.7948 231.277L91.4718 227.591L82.9922 213.437Z" fill="#F52079"/>
<path d="M110.283 299.366C114.045 270.812 119.414 226.666 135.783 195.19L172.954 215.028C163.99 245.634 149.513 285.059 135.458 310.434L110.283 299.366Z" fill="#F52079"/>
<path d="M127.244 287.319L91.4651 227.594L73.3569 231.308C77.1218 255.339 89.2415 291.087 107.743 306.745C116.689 313.734 125.944 316.428 135.454 310.432L127.244 287.319Z" fill="#F52079"/>
<path d="M206.145 363.027L205.314 380.002H229.07L227.188 363.027H206.145Z" fill="#00161D"/>
<path d="M210.255 165.184L205.213 199.06L182.566 180.391L193.604 150.845L210.255 165.184Z" fill="#F4ACC8"/>
<path d="M221.359 162.781C221.696 168.144 216.496 173.126 206.121 169.672L189.175 162.307L180.575 137.335L188.967 117.486L219.42 118.151L221.359 162.781Z" fill="#F4ACC8"/>
<path d="M217.269 136.307L224.429 149.282L218.436 150.351L217.269 136.307Z" fill="#F4ACC8"/>
<path d="M221.128 151.136H213.09C207.948 152.014 202.611 154.126 201.1 149.226C201.1 149.226 198.763 136.536 198.646 133.576L221.175 126.742L226.486 109.856L218.975 111.585L189.678 112.71C176.631 113.07 171.663 122.777 176.205 136.812L182.372 153.802C184.034 158.382 184.441 160.874 189.178 162.304L190.866 157.432C191.888 154.481 191.298 151.297 189.554 148.691C189.274 148.271 189.014 147.813 188.785 147.322C187.388 144.329 187.647 141.279 189.363 140.508C191.079 139.737 193.603 141.538 195 144.531C196.227 147.159 196.982 165.11 196.982 165.11L207.884 170.534C218.457 173.352 223.332 168.064 222.658 162.732L221.128 151.136Z" fill="#4048FF"/>
<path d="M180.857 179.588L193.332 209.16L205.226 199.058L184.611 174.95L180.857 179.588Z" fill="white"/>
<path d="M211.174 181.674L213.64 206.804L205.228 199.061L208.625 176.226L211.174 181.674Z" fill="white"/>
<path d="M82.9751 213.436C82.9751 213.436 92.8302 201.675 79.2512 200.129C42.8379 195.984 68.5225 201.085 67.2219 201.085C65.9213 201.085 54.2173 200.129 43.8139 198.534C36.9397 197.481 45.1145 210.012 57.4691 212.563C69.8238 215.114 76.976 217.346 76.976 217.346L82.9751 213.436Z" fill="#F4ACC8"/>
<path d="M134.855 148.581C134.71 148.6 134.561 148.596 134.412 148.603C134.118 148.625 133.827 148.647 133.525 148.64C133.343 148.636 133.16 148.611 132.978 148.596C132.706 148.574 132.434 148.559 132.155 148.516C131.957 148.486 131.752 148.435 131.551 148.395C131.283 148.34 131.019 148.289 130.747 148.216C130.538 148.161 130.326 148.085 130.117 148.019C129.853 147.935 129.588 147.851 129.32 147.748C129.104 147.668 128.888 147.569 128.672 147.478C128.408 147.365 128.143 147.252 127.882 147.124C127.663 147.018 127.447 146.897 127.227 146.78C126.966 146.642 126.705 146.499 126.445 146.346C126.225 146.214 126.005 146.075 125.785 145.933C125.528 145.769 125.271 145.601 125.018 145.418C124.839 145.294 124.66 145.159 124.482 145.027C124.005 144.673 123.532 144.293 123.066 143.895C122.951 143.792 122.831 143.701 122.712 143.599C122.306 143.237 121.904 142.854 121.509 142.459C121.442 142.39 121.371 142.331 121.304 142.262C120.988 141.94 120.682 141.597 120.373 141.254C120.261 141.129 120.146 141.016 120.038 140.888C119.978 140.823 119.926 140.749 119.866 140.68C119.528 140.282 119.196 139.88 118.872 139.46C118.756 139.31 118.648 139.149 118.533 138.996C118.28 138.653 118.03 138.313 117.788 137.955C117.646 137.747 117.516 137.531 117.378 137.319C117.173 137.005 116.972 136.687 116.779 136.362C116.618 136.096 116.469 135.818 116.32 135.548C116.119 135.186 115.911 134.828 115.724 134.455C115.46 133.929 115.21 133.403 114.983 132.881C114.968 132.848 114.957 132.819 114.946 132.79C114.752 132.34 114.573 131.895 114.406 131.453C114.35 131.303 114.298 131.157 114.246 131.011C114.13 130.686 114.018 130.36 113.918 130.039C113.862 129.86 113.806 129.685 113.754 129.506C113.661 129.192 113.579 128.877 113.501 128.567C113.46 128.406 113.419 128.245 113.382 128.088C113.296 127.712 113.221 127.336 113.154 126.967C113.139 126.883 113.117 126.795 113.106 126.708C113.031 126.255 112.976 125.809 112.931 125.371C112.92 125.246 112.912 125.122 112.905 124.998C112.879 124.684 112.86 124.373 112.849 124.07C112.845 123.917 112.845 123.763 112.845 123.61C112.845 123.34 112.849 123.069 112.86 122.806C112.868 122.653 112.875 122.499 112.886 122.35C112.905 122.087 112.935 121.827 112.968 121.571C112.987 121.436 113.002 121.301 113.02 121.17C113.069 120.856 113.132 120.552 113.199 120.253C113.214 120.191 113.225 120.121 113.24 120.059C113.329 119.708 113.434 119.372 113.549 119.044C113.698 118.62 113.873 118.218 114.071 117.838C114.13 117.721 114.201 117.615 114.264 117.502C114.395 117.276 114.529 117.049 114.678 116.837C114.771 116.706 114.868 116.585 114.968 116.461C115.095 116.3 115.225 116.143 115.363 115.993C115.479 115.873 115.598 115.76 115.717 115.646C115.855 115.519 115.993 115.394 116.142 115.277C116.354 115.106 116.57 114.938 116.805 114.795L113.285 116.987C113.113 117.093 112.946 117.21 112.786 117.33C112.726 117.374 112.678 117.429 112.622 117.473C112.476 117.59 112.335 117.714 112.197 117.842C112.123 117.911 112.041 117.97 111.966 118.043C111.921 118.09 111.884 118.145 111.839 118.193C111.702 118.342 111.571 118.499 111.445 118.66C111.378 118.744 111.299 118.817 111.236 118.905C111.206 118.945 111.184 118.996 111.154 119.036C111.005 119.248 110.875 119.471 110.744 119.698C110.692 119.789 110.629 119.869 110.58 119.961C110.569 119.982 110.562 120.012 110.547 120.034C110.35 120.414 110.178 120.819 110.025 121.239C110.018 121.257 110.007 121.276 110.003 121.294C109.895 121.604 109.802 121.926 109.72 122.255C109.705 122.317 109.694 122.382 109.679 122.445C109.619 122.693 109.564 122.945 109.519 123.204C109.511 123.255 109.508 123.31 109.5 123.361C109.478 123.493 109.463 123.628 109.448 123.763C109.415 124.019 109.389 124.278 109.366 124.541C109.355 124.691 109.348 124.845 109.34 124.998C109.329 125.261 109.325 125.531 109.325 125.802C109.325 125.955 109.325 126.105 109.329 126.258C109.336 126.565 109.359 126.876 109.385 127.19C109.396 127.314 109.4 127.434 109.411 127.559C109.456 127.997 109.511 128.443 109.586 128.896C109.601 128.98 109.619 129.067 109.634 129.151C109.701 129.524 109.772 129.897 109.862 130.273C109.899 130.434 109.94 130.594 109.981 130.755C110.059 131.065 110.141 131.376 110.234 131.69C110.286 131.869 110.342 132.048 110.398 132.227C110.443 132.366 110.476 132.501 110.525 132.64C110.584 132.823 110.659 133.009 110.726 133.195C110.778 133.345 110.83 133.491 110.886 133.641C111.054 134.083 111.229 134.528 111.422 134.974C111.437 135.007 111.448 135.04 111.463 135.073C111.467 135.076 111.467 135.084 111.471 135.087C111.698 135.606 111.944 136.125 112.204 136.644C112.272 136.775 112.339 136.907 112.406 137.034C112.532 137.275 112.67 137.502 112.8 137.736C112.953 138.01 113.102 138.284 113.259 138.55C113.292 138.609 113.322 138.667 113.359 138.726C113.519 138.992 113.694 139.244 113.862 139.504C114 139.716 114.13 139.935 114.272 140.143C114.298 140.18 114.32 140.223 114.346 140.26C114.562 140.574 114.79 140.877 115.013 141.18C115.129 141.334 115.237 141.495 115.352 141.648C115.363 141.666 115.378 141.685 115.389 141.699C115.698 142.105 116.022 142.492 116.347 142.872C116.402 142.938 116.458 143.011 116.514 143.076C116.518 143.08 116.518 143.08 116.522 143.084C116.626 143.204 116.738 143.314 116.842 143.434C117.151 143.781 117.46 144.125 117.781 144.454C117.788 144.461 117.792 144.464 117.799 144.472C117.859 144.534 117.922 144.585 117.982 144.643C118.38 145.042 118.783 145.425 119.192 145.79C119.226 145.82 119.259 145.856 119.293 145.885C119.375 145.959 119.46 146.017 119.542 146.086C120.008 146.488 120.481 146.864 120.958 147.219C121.047 147.285 121.133 147.365 121.222 147.431C121.312 147.496 121.405 147.548 121.494 147.613C121.751 147.792 122.005 147.96 122.265 148.128C122.485 148.271 122.701 148.41 122.921 148.541C123.182 148.695 123.442 148.837 123.703 148.98C123.923 149.096 124.139 149.217 124.359 149.323C124.623 149.451 124.884 149.564 125.148 149.677C125.364 149.769 125.58 149.867 125.796 149.948C126.065 150.05 126.329 150.134 126.594 150.218C126.802 150.284 127.014 150.36 127.223 150.415C127.495 150.488 127.759 150.539 128.028 150.594C128.229 150.634 128.43 150.685 128.627 150.715C128.903 150.755 129.175 150.773 129.447 150.795C129.629 150.81 129.816 150.835 129.998 150.839C130.296 150.846 130.587 150.821 130.877 150.802C131.026 150.791 131.179 150.795 131.324 150.78C131.76 150.729 132.185 150.645 132.598 150.528C133.291 150.331 133.928 150.05 134.501 149.692L138.021 147.5C137.448 147.858 136.811 148.139 136.118 148.337C135.712 148.446 135.287 148.527 134.855 148.581Z" fill="url(#paint2_linear)"/>
<path d="M118.713 113.955C125.169 112.128 134.298 118.338 139.107 127.832C143.912 137.319 142.582 146.502 136.123 148.329C129.672 150.155 120.535 143.938 115.73 134.451C110.921 124.954 112.262 115.781 118.713 113.955Z" fill="url(#paint3_linear)"/>
<path opacity="0.4" d="M120.564 115.903C115.735 117.799 115.198 125.963 119.376 134.103C123.551 142.247 130.876 147.326 135.71 145.43C140.539 143.533 141.076 135.369 136.898 127.23C132.723 119.09 125.398 114.011 120.564 115.903ZM135.086 127.942C138.394 134.39 137.971 140.865 134.137 142.37C130.309 143.87 124.503 139.842 121.195 133.394C117.883 126.934 118.306 120.463 122.133 118.963C125.964 117.458 131.775 121.486 135.086 127.942Z" fill="#FEFBB4"/>
<path d="M130.544 124.063L122.04 128.933C121.441 126.327 121.891 123.825 123.56 122.869C124.597 122.275 125.934 122.379 127.287 122.98L128.636 122.207C126.436 120.715 124.298 120.421 122.661 121.358C120.104 122.823 119.777 127.084 121.615 131.338L121.669 131.307L125.626 129.041L126.935 131.239L122.979 133.505L123.939 135.117L127.895 132.852L131.996 139.74L132.963 139.186L128.862 132.298L129.565 131.895L133.667 138.783L134.722 138.179L130.62 131.291L133.147 129.844L133.3 129.756L134.092 129.303C133.815 128.675 133.458 127.988 133.085 127.363C132.345 126.122 131.431 124.931 130.544 124.063ZM128.605 130.283L127.902 130.686L126.593 128.487L127.296 128.084L128.605 130.283ZM129.66 129.679L128.351 127.48L130.859 126.044C131.311 126.572 131.792 127.255 132.188 127.919C132.225 127.981 132.238 128.006 132.325 128.153L129.66 129.679Z" fill="#F4D27C"/>
<g opacity="0.5">
<path d="M179.708 91.0834C179.794 91.0941 179.882 91.092 179.969 91.0963C180.142 91.1092 180.313 91.1221 180.491 91.1178C180.598 91.1156 180.706 91.1006 180.813 91.092C180.973 91.0791 181.133 91.0705 181.298 91.0447C181.414 91.0275 181.535 90.9974 181.653 90.9737C181.811 90.9415 181.967 90.9114 182.127 90.8684C182.249 90.8361 182.374 90.791 182.497 90.7523C182.653 90.7028 182.808 90.6534 182.966 90.5932C183.093 90.5459 183.221 90.4878 183.348 90.434C183.503 90.3674 183.659 90.3007 183.813 90.2255C183.942 90.1631 184.069 90.0922 184.198 90.0234C184.352 89.9417 184.505 89.8578 184.659 89.7675C184.788 89.6901 184.918 89.6084 185.047 89.5246C185.198 89.4278 185.35 89.3289 185.499 89.2214C185.604 89.1483 185.709 89.0687 185.814 88.9913C186.095 88.7828 186.373 88.5591 186.647 88.3248C186.715 88.2646 186.786 88.2108 186.856 88.1506C187.095 87.9378 187.331 87.712 187.564 87.4798C187.603 87.4389 187.645 87.4045 187.684 87.3637C187.871 87.1745 188.051 86.9724 188.233 86.7702C188.298 86.6971 188.366 86.6305 188.43 86.5552C188.465 86.5165 188.496 86.4735 188.531 86.4327C188.73 86.1983 188.925 85.9618 189.116 85.7145C189.184 85.6264 189.248 85.5318 189.316 85.4415C189.465 85.2394 189.612 85.0394 189.754 84.8287C189.837 84.7061 189.914 84.5793 189.995 84.4546C190.116 84.2696 190.234 84.0826 190.348 83.8912C190.443 83.7343 190.53 83.5709 190.618 83.4117C190.736 83.1989 190.859 82.9882 190.969 82.7689C191.124 82.4592 191.271 82.1496 191.405 81.8422C191.414 81.8228 191.42 81.8056 191.427 81.7884C191.541 81.5239 191.646 81.2616 191.745 81.0015C191.778 80.9133 191.808 80.8273 191.839 80.7413C191.907 80.5499 191.973 80.3586 192.032 80.1694C192.065 80.064 192.098 79.9608 192.129 79.8554C192.183 79.6705 192.232 79.4856 192.278 79.3029C192.302 79.2083 192.326 79.1137 192.348 79.0212C192.398 78.7997 192.442 78.5783 192.482 78.3611C192.49 78.3117 192.503 78.2601 192.51 78.2085C192.554 77.9418 192.587 77.6795 192.613 77.4215C192.62 77.3484 192.624 77.2753 192.628 77.2022C192.644 77.0173 192.655 76.8345 192.661 76.6561C192.663 76.5658 192.663 76.4755 192.663 76.3851C192.663 76.226 192.661 76.0669 192.655 75.9121C192.65 75.8218 192.646 75.7315 192.639 75.6434C192.628 75.4885 192.611 75.3359 192.591 75.1854C192.58 75.1058 192.571 75.0263 192.56 74.9489C192.532 74.764 192.495 74.5855 192.455 74.4092C192.446 74.3726 192.44 74.3318 192.431 74.2952C192.378 74.0888 192.317 73.891 192.249 73.6975C192.161 73.4481 192.058 73.2116 191.942 72.9879C191.907 72.9191 191.865 72.8568 191.828 72.7901C191.751 72.6568 191.673 72.5235 191.585 72.3988C191.53 72.3214 191.473 72.2505 191.414 72.1774C191.339 72.0827 191.263 71.9903 191.181 71.9021C191.113 71.8312 191.043 71.7645 190.973 71.6979C190.892 71.6226 190.811 71.5495 190.723 71.4807C190.598 71.3797 190.471 71.2808 190.333 71.1969L192.405 72.487C192.506 72.5493 192.604 72.6181 192.699 72.6891C192.734 72.7149 192.762 72.7471 192.795 72.7729C192.881 72.8417 192.964 72.9148 193.045 72.9901C193.089 73.031 193.137 73.0654 193.181 73.1084C193.207 73.1363 193.229 73.1686 193.255 73.1965C193.337 73.2847 193.413 73.3771 193.488 73.4717C193.527 73.5212 193.573 73.5642 193.611 73.6158C193.628 73.6394 193.641 73.6695 193.659 73.6932C193.747 73.8179 193.823 73.9491 193.9 74.0824C193.931 74.1361 193.968 74.1834 193.996 74.2372C194.003 74.2501 194.007 74.2673 194.016 74.2802C194.132 74.5038 194.233 74.7425 194.323 74.9897C194.328 75.0005 194.334 75.0112 194.336 75.022C194.4 75.2047 194.455 75.3939 194.503 75.5875C194.512 75.624 194.518 75.6627 194.527 75.6993C194.562 75.8455 194.595 75.9938 194.621 76.1465C194.626 76.1766 194.628 76.2088 194.632 76.2389C194.645 76.3163 194.654 76.3959 194.663 76.4754C194.683 76.626 194.698 76.7786 194.711 76.9334C194.718 77.0216 194.722 77.1119 194.727 77.2022C194.733 77.357 194.735 77.5161 194.735 77.6752C194.735 77.7655 194.735 77.8537 194.733 77.944C194.729 78.1246 194.716 78.3074 194.7 78.4923C194.694 78.5654 194.692 78.6363 194.685 78.7094C194.659 78.9674 194.626 79.2298 194.582 79.4964C194.573 79.5458 194.562 79.5974 194.553 79.6469C194.514 79.8662 194.472 80.0855 194.42 80.307C194.398 80.4016 194.374 80.4962 194.349 80.5908C194.303 80.7735 194.255 80.9563 194.2 81.1412C194.17 81.2466 194.137 81.3519 194.104 81.4573C194.078 81.539 194.058 81.6185 194.029 81.7003C193.994 81.8078 193.95 81.9174 193.911 82.0271C193.88 82.1152 193.85 82.2012 193.817 82.2894C193.718 82.5495 193.615 82.8119 193.501 83.0742C193.492 83.0935 193.486 83.1129 193.477 83.1322C193.475 83.1344 193.475 83.1387 193.473 83.1408C193.339 83.4461 193.194 83.7515 193.041 84.0568C193.001 84.1342 192.962 84.2116 192.922 84.2868C192.848 84.4288 192.767 84.5621 192.69 84.6997C192.6 84.8609 192.512 85.0222 192.42 85.1791C192.4 85.2136 192.383 85.2479 192.361 85.2824C192.267 85.4393 192.164 85.5877 192.065 85.7403C191.984 85.865 191.907 85.994 191.824 86.1166C191.808 86.1381 191.795 86.1639 191.78 86.1854C191.653 86.3703 191.519 86.5488 191.387 86.7272C191.32 86.8175 191.256 86.9121 191.188 87.0024C191.181 87.0132 191.173 87.024 191.166 87.0326C190.984 87.2712 190.793 87.4991 190.603 87.7227C190.57 87.7614 190.537 87.8045 190.504 87.8432C190.502 87.8453 190.502 87.8453 190.5 87.8474C190.438 87.9184 190.372 87.9829 190.311 88.0539C190.129 88.2581 189.947 88.4602 189.759 88.6537C189.754 88.658 189.752 88.6602 189.748 88.6645C189.712 88.7011 189.675 88.7311 189.64 88.7656C189.406 88.9999 189.169 89.2257 188.928 89.4407C188.908 89.4579 188.888 89.4794 188.868 89.4966C188.82 89.5396 188.77 89.574 188.721 89.6149C188.447 89.8514 188.169 90.0728 187.888 90.2814C187.836 90.3201 187.785 90.3674 187.733 90.4061C187.68 90.4448 187.625 90.4749 187.573 90.5136C187.421 90.619 187.272 90.7179 187.119 90.8168C186.989 90.9006 186.862 90.9823 186.733 91.0597C186.579 91.15 186.426 91.2339 186.273 91.3177C186.143 91.3866 186.016 91.4575 185.887 91.5199C185.731 91.5951 185.578 91.6618 185.422 91.7284C185.295 91.7822 185.168 91.8402 185.04 91.8875C184.883 91.9477 184.727 91.9972 184.571 92.0466C184.448 92.0853 184.323 92.1305 184.201 92.1627C184.041 92.2057 183.885 92.2359 183.727 92.2681C183.609 92.2918 183.49 92.3219 183.374 92.3391C183.212 92.3627 183.052 92.3735 182.892 92.3864C182.784 92.395 182.675 92.41 182.567 92.4122C182.392 92.4165 182.221 92.4014 182.05 92.3907C181.962 92.3842 181.872 92.3864 181.787 92.3778C181.53 92.3477 181.28 92.2982 181.037 92.2294C180.629 92.1133 180.254 91.9477 179.917 91.737L177.845 90.447C178.182 90.6577 178.557 90.8232 178.965 90.9393C179.204 91.0038 179.454 91.0511 179.708 91.0834Z" fill="url(#paint4_linear)"/>
<path d="M189.209 70.7053C185.41 69.6302 180.036 73.2854 177.206 78.8736C174.378 84.4575 175.16 89.8629 178.962 90.9379C182.759 92.013 188.137 88.3535 190.966 82.7696C193.796 77.1793 193.007 71.7803 189.209 70.7053Z" fill="url(#paint5_linear)"/>
<path opacity="0.4" d="M188.119 71.8521C190.962 72.9682 191.278 77.7738 188.819 82.5646C186.361 87.3581 182.05 90.3479 179.205 89.2317C176.362 88.1156 176.046 83.31 178.505 78.5191C180.963 73.7281 185.274 70.7383 188.119 71.8521ZM179.572 78.9386C177.625 82.7338 177.873 86.5447 180.13 87.4307C182.383 88.3139 185.801 85.9425 187.748 82.1474C189.697 78.3449 189.448 74.5365 187.196 73.6532C184.941 72.7674 181.521 75.1386 179.572 78.9386Z" fill="#FEFBB4"/>
<path d="M182.244 76.6547L187.249 79.5212C187.602 77.9877 187.337 76.5147 186.354 75.952C185.744 75.6025 184.957 75.6635 184.161 76.0172L183.367 75.5626C184.662 74.6845 185.92 74.5113 186.884 75.0629C188.389 75.9248 188.581 78.4331 187.5 80.937L187.468 80.9187L185.139 79.585L184.368 80.879L186.697 82.2125L186.132 83.1615L183.803 81.8279L181.389 85.8824L180.82 85.5564L183.234 81.5019L182.82 81.2648L180.406 85.3193L179.785 84.9637L182.199 80.9092L180.712 80.0574L180.622 80.0059L180.156 79.7391C180.318 79.3694 180.528 78.9653 180.748 78.5973C181.184 77.867 181.722 77.1656 182.244 76.6547ZM183.385 80.3159L183.799 80.553L184.57 79.259L184.156 79.0219L183.385 80.3159ZM182.764 79.9603L183.535 78.6663L182.058 77.8209C181.793 78.1315 181.51 78.5334 181.276 78.9246C181.254 78.9611 181.247 78.9756 181.196 79.0621L182.764 79.9603Z" fill="#F4D27C"/>
</g>
<path d="M62.1496 53.034C62.064 53.0447 61.9764 53.0426 61.8887 53.0469C61.7155 53.0598 61.5444 53.0726 61.3669 53.0683C61.2594 53.0662 61.152 53.0511 61.0446 53.0425C60.8845 53.0296 60.7245 53.0211 60.56 52.9953C60.4438 52.9781 60.3233 52.9479 60.2049 52.9243C60.047 52.892 59.8913 52.8619 59.7313 52.8189C59.6085 52.7867 59.4835 52.7415 59.3608 52.7028C59.2051 52.6534 59.0494 52.6039 58.8916 52.5437C58.7644 52.4964 58.6373 52.4384 58.5101 52.3846C58.3544 52.318 58.1988 52.2513 58.0453 52.1761C57.9159 52.1137 57.7888 52.0427 57.6594 51.9739C57.506 51.8922 57.3525 51.8084 57.199 51.7181C57.0697 51.6407 56.9403 51.559 56.811 51.4751C56.6597 51.3784 56.5084 51.2794 56.3593 51.1719C56.2541 51.0988 56.1488 51.0193 56.0436 50.9419C55.763 50.7333 55.4845 50.5097 55.2105 50.2753C55.1425 50.2151 55.0724 50.1614 55.0022 50.1012C54.7632 49.8883 54.5264 49.6626 54.294 49.4303C54.2546 49.3895 54.2129 49.3551 54.1735 49.3142C53.9871 49.125 53.8073 48.9229 53.6253 48.7208C53.5596 48.6477 53.4916 48.581 53.428 48.5058C53.3929 48.4671 53.3623 48.4241 53.3272 48.3832C53.1277 48.1489 52.9325 47.9124 52.7418 47.6651C52.6738 47.5769 52.6102 47.4823 52.5423 47.392C52.3932 47.1899 52.2463 46.99 52.1038 46.7792C52.0205 46.6567 51.9437 46.5298 51.8626 46.4051C51.742 46.2202 51.6236 46.0331 51.5096 45.8418C51.4154 45.6848 51.3277 45.5214 51.24 45.3623C51.1216 45.1494 50.9988 44.9387 50.8892 44.7194C50.7335 44.4098 50.5866 44.1002 50.4529 43.7927C50.4441 43.7734 50.4375 43.7562 50.431 43.739C50.3169 43.4745 50.2117 43.2122 50.1131 42.952C50.0802 42.8639 50.0495 42.7779 50.0188 42.6919C49.9508 42.5005 49.885 42.3091 49.8258 42.1199C49.793 42.0146 49.7601 41.9114 49.7294 41.806C49.6746 41.6211 49.6263 41.4362 49.5803 41.2534C49.5562 41.1588 49.5321 41.0642 49.5101 40.9718C49.4597 40.7503 49.4159 40.5288 49.3764 40.3117C49.3676 40.2622 49.3545 40.2106 49.3479 40.159C49.304 39.8924 49.2711 39.6301 49.2448 39.3721C49.2383 39.299 49.2339 39.2259 49.2295 39.1528C49.2142 38.9678 49.2032 38.7851 49.1966 38.6066C49.1944 38.5163 49.1944 38.426 49.1944 38.3357C49.1944 38.1766 49.1966 38.0175 49.2032 37.8627C49.2076 37.7724 49.212 37.6821 49.2185 37.5939C49.2295 37.4391 49.247 37.2864 49.2668 37.1359C49.2777 37.0564 49.2865 36.9768 49.2975 36.8994C49.326 36.7145 49.3632 36.5361 49.4027 36.3597C49.4115 36.3232 49.418 36.2823 49.4268 36.2458C49.4794 36.0394 49.5408 35.8416 49.6088 35.6481C49.6965 35.3986 49.7995 35.1621 49.9157 34.9385C49.9508 34.8697 49.9925 34.8074 50.0297 34.7407C50.1065 34.6074 50.1854 34.4741 50.2731 34.3494C50.3279 34.272 50.3849 34.201 50.4441 34.1279C50.5186 34.0333 50.5954 33.9409 50.6765 33.8527C50.7445 33.7817 50.8146 33.7151 50.8848 33.6484C50.9659 33.5732 51.047 33.5001 51.1347 33.4313C51.2597 33.3302 51.3869 33.2313 51.525 33.1475L49.4531 34.4375C49.3523 34.4999 49.2536 34.5687 49.1593 34.6396C49.1243 34.6654 49.0958 34.6977 49.0629 34.7235C48.9774 34.7923 48.894 34.8654 48.8129 34.9407C48.7691 34.9815 48.7208 35.0159 48.677 35.0589C48.6507 35.0869 48.6288 35.1191 48.6025 35.1471C48.5213 35.2352 48.4446 35.3277 48.3701 35.4223C48.3306 35.4717 48.2846 35.5147 48.2473 35.5663C48.2297 35.59 48.2166 35.6201 48.199 35.6438C48.1114 35.7685 48.0346 35.8996 47.9579 36.0329C47.9272 36.0867 47.8899 36.134 47.8614 36.1877C47.8548 36.2006 47.8504 36.2178 47.8417 36.2307C47.7255 36.4543 47.6246 36.693 47.5347 36.9403C47.5304 36.951 47.5238 36.9618 47.5216 36.9725C47.458 37.1553 47.4032 37.3445 47.355 37.538C47.3462 37.5746 47.3396 37.6133 47.3308 37.6498C47.2958 37.796 47.2629 37.9444 47.2366 38.097C47.2322 38.1271 47.23 38.1594 47.2256 38.1895C47.2124 38.2669 47.2037 38.3465 47.1949 38.426C47.1752 38.5765 47.1598 38.7292 47.1467 38.884C47.1401 38.9721 47.1357 39.0624 47.1313 39.1528C47.1248 39.3076 47.1226 39.4667 47.1226 39.6258C47.1226 39.7161 47.1226 39.8042 47.1248 39.8945C47.1291 40.0752 47.1423 40.2579 47.1576 40.4428C47.1642 40.5159 47.1664 40.5869 47.173 40.66C47.1993 40.918 47.2322 41.1803 47.276 41.4469C47.2848 41.4964 47.2958 41.548 47.3045 41.5974C47.344 41.8168 47.3857 42.0361 47.4383 42.2575C47.4602 42.3521 47.4843 42.4467 47.5084 42.5413C47.5545 42.7241 47.6027 42.9069 47.6575 43.0918C47.6882 43.1971 47.7211 43.3025 47.754 43.4078C47.7803 43.4896 47.8 43.5691 47.8285 43.6508C47.8636 43.7583 47.9075 43.868 47.9469 43.9776C47.9776 44.0658 48.0083 44.1518 48.0412 44.2399C48.1399 44.5001 48.2429 44.7624 48.3569 45.0247C48.3657 45.0441 48.3722 45.0634 48.381 45.0828C48.3832 45.0849 48.3832 45.0892 48.3854 45.0914C48.5191 45.3967 48.6638 45.702 48.8173 46.0074C48.8568 46.0848 48.8962 46.1621 48.9357 46.2374C49.0103 46.3793 49.0914 46.5126 49.1681 46.6502C49.258 46.8115 49.3457 46.9728 49.4378 47.1297C49.4575 47.1641 49.4751 47.1985 49.497 47.2329C49.5913 47.3899 49.6943 47.5382 49.793 47.6909C49.8741 47.8156 49.9508 47.9446 50.0341 48.0672C50.0495 48.0887 50.0626 48.1145 50.078 48.136C50.2051 48.3209 50.3389 48.4993 50.4704 48.6778C50.5384 48.7681 50.602 48.8627 50.6699 48.953C50.6765 48.9638 50.6853 48.9745 50.6919 48.9831C50.8738 49.2218 51.0646 49.4497 51.2553 49.6733C51.2882 49.712 51.3211 49.755 51.354 49.7937C51.3562 49.7959 51.3562 49.7959 51.3584 49.798C51.4197 49.869 51.4855 49.9335 51.5469 50.0044C51.7289 50.2087 51.9109 50.4108 52.0994 50.6043C52.1038 50.6086 52.106 50.6108 52.1104 50.6151C52.1454 50.6516 52.1827 50.6817 52.2178 50.7161C52.4524 50.9505 52.6892 51.1762 52.9303 51.3913C52.9501 51.4085 52.9698 51.43 52.9895 51.4472C53.0378 51.4902 53.0882 51.5246 53.1364 51.5654C53.4105 51.8019 53.6889 52.0234 53.9696 52.2319C54.0222 52.2707 54.0726 52.318 54.1252 52.3567C54.1778 52.3954 54.2326 52.4255 54.2853 52.4642C54.4365 52.5695 54.5856 52.6684 54.7391 52.7673C54.8685 52.8512 54.9956 52.9329 55.125 53.0103C55.2784 53.1006 55.4319 53.1845 55.5854 53.2683C55.7147 53.3371 55.8419 53.4081 55.9713 53.4704C56.1269 53.5457 56.2804 53.6123 56.4361 53.679C56.5632 53.7327 56.6904 53.7908 56.8175 53.8381C56.9754 53.8983 57.1311 53.9478 57.2867 53.9972C57.4095 54.0359 57.5345 54.0811 57.6572 54.1133C57.8173 54.1563 57.9729 54.1864 58.1308 54.2187C58.2492 54.2423 58.3676 54.2724 58.4838 54.2896C58.646 54.3133 58.8061 54.324 58.9661 54.3369C59.0736 54.3455 59.1832 54.3606 59.2906 54.3627C59.466 54.367 59.637 54.352 59.808 54.3412C59.8957 54.3348 59.9856 54.3369 60.0711 54.3283C60.3276 54.2982 60.5776 54.2488 60.8209 54.18C61.2287 54.0639 61.6036 53.8983 61.9413 53.6876L64.0131 52.3975C63.6755 52.6082 63.3006 52.7738 62.8928 52.8899C62.6538 52.9544 62.4039 53.0017 62.1496 53.034Z" fill="url(#paint6_linear)"/>
<path d="M52.6489 32.6558C56.4484 31.5808 61.8221 35.236 64.6525 40.8242C67.4808 46.408 66.6981 51.8134 62.8964 52.8885C59.0991 53.9636 53.721 50.304 50.8928 44.7202C48.0623 39.1299 48.8516 33.7309 52.6489 32.6558Z" fill="url(#paint7_linear)"/>
<path opacity="0.4" d="M53.7391 33.8028C50.8964 34.9189 50.5805 39.7245 53.0398 44.5153C55.4971 49.3088 59.8089 52.2986 62.6537 51.1824C65.4964 50.0662 65.8123 45.2607 63.353 40.4698C60.8959 35.6788 56.5841 32.689 53.7391 33.8028ZM62.2868 40.8893C64.2335 44.6844 63.9849 48.4954 61.7279 49.3813C59.4752 50.2646 56.0573 47.8932 54.1106 44.0981C52.1612 40.2956 52.41 36.4871 54.6627 35.6039C56.9175 34.7181 60.3376 37.0893 62.2868 40.8893Z" fill="#FEFBB4"/>
<path d="M59.6218 38.6054L54.6163 41.4719C54.264 39.9384 54.5288 38.4654 55.5114 37.9027C56.1217 37.5532 56.9085 37.6142 57.7049 37.9679L58.4988 37.5132C57.204 36.6352 55.9453 36.4619 54.982 37.0136C53.477 37.8755 53.2844 40.3838 54.3662 42.8876L54.3981 42.8694L56.727 41.5357L57.4975 42.8297L55.1688 44.1632L55.7339 45.1121L58.0625 43.7786L60.4767 47.8331L61.0459 47.5071L58.6317 43.4526L59.0457 43.2155L61.4599 47.27L62.0809 46.9144L59.6667 42.8599L61.1541 42.0081L61.244 41.9566L61.71 41.6897C61.5474 41.3201 61.3373 40.9159 61.1178 40.5479C60.6821 39.8177 60.1437 39.1163 59.6218 38.6054ZM58.4807 42.2666L58.0667 42.5037L57.2962 41.2097L57.7102 40.9726L58.4807 42.2666ZM59.1016 41.911L58.3311 40.617L59.8074 39.7716C60.073 40.0822 60.3561 40.4841 60.5894 40.8753C60.6112 40.9118 60.6192 40.9262 60.67 41.0128L59.1016 41.911Z" fill="#F4D27C"/>
<g filter="url(#filter0_f)">
<path d="M79.6543 104.468C79.784 104.485 79.917 104.481 80.05 104.488C80.3127 104.508 80.5721 104.527 80.8414 104.521C81.0043 104.517 81.1672 104.494 81.3302 104.481C81.5729 104.462 81.8156 104.449 82.065 104.41C82.2412 104.384 82.4241 104.338 82.6037 104.302C82.8431 104.253 83.0791 104.208 83.3219 104.142C83.5081 104.093 83.6976 104.025 83.8838 103.966C84.1199 103.891 84.356 103.816 84.5954 103.725C84.7882 103.653 84.9811 103.565 85.1739 103.484C85.41 103.383 85.6461 103.281 85.8789 103.167C86.075 103.073 86.2679 102.965 86.4641 102.861C86.6968 102.737 86.9296 102.61 87.1623 102.473C87.3585 102.355 87.5547 102.231 87.7509 102.104C87.9803 101.958 88.2097 101.808 88.4358 101.644C88.5954 101.534 88.755 101.413 88.9146 101.296C89.3402 100.979 89.7625 100.64 90.1782 100.285C90.2812 100.193 90.3876 100.112 90.494 100.021C90.8565 99.6977 91.2156 99.3553 91.568 99.0032C91.6279 98.9412 91.6911 98.889 91.7509 98.8271C92.0336 98.5401 92.3062 98.2336 92.5822 97.9271C92.6819 97.8162 92.785 97.7151 92.8814 97.601C92.9346 97.5423 92.9812 97.4771 93.0344 97.4151C93.337 97.0597 93.6329 96.701 93.9222 96.326C94.0253 96.1923 94.1217 96.0488 94.2248 95.9118C94.4509 95.6053 94.6737 95.3021 94.8898 94.9825C95.0161 94.7966 95.1325 94.6042 95.2555 94.4151C95.4384 94.1347 95.618 93.851 95.7909 93.5607C95.9339 93.3227 96.0669 93.0749 96.1999 92.8336C96.3794 92.5107 96.5656 92.1912 96.7319 91.8586C96.968 91.389 97.1907 90.9194 97.3936 90.4531C97.4069 90.4238 97.4168 90.3977 97.4268 90.3716C97.5997 89.9705 97.7593 89.5727 97.9089 89.1781C97.9588 89.0444 98.0054 88.914 98.0519 88.7835C98.155 88.4933 98.2547 88.2031 98.3445 87.9162C98.3944 87.7564 98.4443 87.5998 98.4908 87.4401C98.574 87.1596 98.6471 86.8792 98.7169 86.602C98.7535 86.4585 98.7901 86.3151 98.8233 86.1748C98.8998 85.839 98.9663 85.5031 99.0262 85.1737C99.0395 85.0987 99.0594 85.0205 99.0694 84.9422C99.1359 84.5379 99.1858 84.14 99.2257 83.7487C99.2356 83.6379 99.2423 83.527 99.2489 83.4161C99.2722 83.1357 99.2889 82.8585 99.2988 82.5879C99.3022 82.4509 99.3021 82.3139 99.3021 82.177C99.3021 81.9357 99.2988 81.6944 99.2889 81.4596C99.2822 81.3226 99.2755 81.1857 99.2656 81.052C99.2489 80.8172 99.2223 80.5857 99.1924 80.3574C99.1758 80.2368 99.1625 80.1161 99.1459 79.9987C99.1026 79.7183 99.0461 79.4476 98.9863 79.1802C98.973 79.1248 98.963 79.0628 98.9497 79.0074C98.8699 78.6944 98.7768 78.3944 98.6737 78.1009C98.5407 77.7226 98.3844 77.3639 98.2082 77.0248C98.155 76.9204 98.0918 76.8259 98.0353 76.7248C97.9189 76.5226 97.7992 76.3204 97.6662 76.1313C97.5831 76.0139 97.4966 75.9063 97.4069 75.7954C97.2938 75.652 97.1774 75.5117 97.0544 75.378C96.9513 75.2704 96.8449 75.1693 96.7385 75.0683C96.6155 74.9541 96.4925 74.8433 96.3595 74.7389C96.1699 74.5856 95.9771 74.4356 95.7676 74.3085L98.9098 76.265C99.0627 76.3596 99.2124 76.4639 99.3553 76.5715C99.4085 76.6107 99.4518 76.6596 99.5017 76.6987C99.6313 76.803 99.7577 76.9139 99.8807 77.028C99.9472 77.09 100.02 77.1422 100.087 77.2074C100.127 77.2498 100.16 77.2987 100.2 77.3411C100.323 77.4748 100.439 77.615 100.552 77.7585C100.612 77.8335 100.682 77.8987 100.739 77.977C100.765 78.0128 100.785 78.0585 100.812 78.0944C100.945 78.2835 101.061 78.4824 101.177 78.6846C101.224 78.7661 101.281 78.8378 101.324 78.9194C101.334 78.9389 101.34 78.965 101.354 78.9846C101.53 79.3237 101.683 79.6857 101.819 80.0607C101.826 80.077 101.836 80.0933 101.839 80.1096C101.936 80.3868 102.019 80.6737 102.092 80.9672C102.105 81.0226 102.115 81.0813 102.128 81.1368C102.182 81.3585 102.232 81.5835 102.271 81.815C102.278 81.8607 102.281 81.9096 102.288 81.9553C102.308 82.0726 102.321 82.1933 102.335 82.3139C102.365 82.5422 102.388 82.7737 102.408 83.0085C102.418 83.1422 102.424 83.2792 102.431 83.4161C102.441 83.6509 102.444 83.8922 102.444 84.1335C102.444 84.2705 102.444 84.4042 102.441 84.5411C102.434 84.815 102.414 85.0922 102.391 85.3727C102.381 85.4835 102.378 85.5911 102.368 85.702C102.328 86.0933 102.278 86.4911 102.212 86.8955C102.198 86.9705 102.182 87.0487 102.168 87.1237C102.108 87.4564 102.045 87.789 101.966 88.1248C101.932 88.2683 101.896 88.4118 101.859 88.5553C101.789 88.8325 101.716 89.1096 101.633 89.3901C101.586 89.5499 101.537 89.7096 101.487 89.8694C101.447 89.9933 101.417 90.114 101.374 90.2379C101.32 90.4009 101.254 90.5672 101.194 90.7336C101.148 90.8672 101.101 90.9977 101.051 91.1314C100.902 91.5259 100.745 91.9238 100.572 92.3216C100.559 92.351 100.549 92.3803 100.536 92.4097C100.532 92.4129 100.532 92.4194 100.529 92.4227C100.326 92.8857 100.107 93.3488 99.8741 93.8118C99.8142 93.9292 99.7544 94.0466 99.6945 94.1607C99.5814 94.376 99.4584 94.5781 99.342 94.7868C99.2057 95.0314 99.0727 95.276 98.9331 95.514C98.9031 95.5662 98.8765 95.6184 98.8433 95.6705C98.7003 95.9086 98.544 96.1336 98.3944 96.3651C98.2714 96.5542 98.155 96.7499 98.0286 96.9358C98.0054 96.9684 97.9854 97.0075 97.9621 97.0401C97.7693 97.3205 97.5665 97.5912 97.367 97.8619C97.2639 97.9988 97.1675 98.1423 97.0644 98.2792C97.0544 98.2955 97.0411 98.3118 97.0311 98.3249C96.7551 98.6869 96.4659 99.0325 96.1766 99.3716C96.1267 99.4303 96.0768 99.4956 96.027 99.5543C96.0236 99.5575 96.0236 99.5575 96.0203 99.5608C95.9272 99.6684 95.8275 99.7662 95.7344 99.8738C95.4584 100.184 95.1824 100.49 94.8964 100.784C94.8898 100.79 94.8865 100.793 94.8798 100.8C94.8266 100.855 94.7701 100.901 94.7169 100.953C94.3611 101.309 94.002 101.651 93.6362 101.977C93.6063 102.003 93.5764 102.036 93.5465 102.062C93.4733 102.127 93.3968 102.179 93.3237 102.241C92.908 102.6 92.4858 102.936 92.0602 103.252C91.9803 103.311 91.9039 103.383 91.8241 103.441C91.7443 103.5 91.6611 103.546 91.5813 103.604C91.3519 103.764 91.1258 103.914 90.8931 104.064C90.6969 104.191 90.504 104.315 90.3078 104.433C90.0751 104.569 89.8423 104.697 89.6096 104.824C89.4134 104.928 89.2205 105.036 89.0244 105.13C88.7883 105.244 88.5555 105.346 88.3195 105.447C88.1266 105.528 87.9337 105.616 87.7409 105.688C87.5015 105.779 87.2654 105.854 87.0293 105.929C86.8431 105.988 86.6536 106.056 86.4674 106.105C86.2247 106.171 85.9886 106.216 85.7492 106.265C85.5696 106.301 85.3901 106.347 85.2138 106.373C84.9678 106.409 84.7251 106.425 84.4823 106.445C84.3194 106.458 84.1531 106.48 83.9902 106.484C83.7242 106.49 83.4649 106.467 83.2055 106.451C83.0725 106.441 82.9362 106.444 82.8065 106.431C82.4175 106.386 82.0384 106.311 81.6693 106.206C81.0509 106.03 80.4823 105.779 79.9702 105.46L76.828 103.503C77.3401 103.823 77.9087 104.074 78.5271 104.25C78.8896 104.348 79.2686 104.419 79.6543 104.468Z" fill="url(#paint8_linear)"/>
<path d="M94.0684 73.5606C88.306 71.9302 80.1563 77.4737 75.8636 85.9487C71.5743 94.4172 72.7614 102.615 78.527 104.246C84.286 105.876 92.4424 100.326 96.7317 91.8574C101.024 83.3791 99.8274 75.191 94.0684 73.5606Z" fill="url(#paint9_linear)"/>
<path opacity="0.4" d="M92.4106 75.3019C96.7218 76.9946 97.2009 84.2827 93.4711 91.5486C89.7444 98.8184 83.2051 103.353 78.8906 101.66C74.5794 99.9671 74.1003 92.679 77.8301 85.4131C81.5566 78.1471 88.0959 73.6127 92.4106 75.3019ZM79.4471 86.0493C76.4947 91.8051 76.8718 97.5848 80.2947 98.9284C83.7112 100.268 88.8948 96.6715 91.8472 90.9157C94.8036 85.1489 94.4264 79.373 91.0098 78.0335C87.5902 76.6901 82.4033 80.2863 79.4471 86.0493Z" fill="#FEFBB4"/>
<path d="M91.581 87.1102L83.8297 83.0433C85.5705 81.3793 87.7216 80.5452 89.2432 81.3435C90.1883 81.8394 90.7326 82.8849 90.8988 84.1749L92.1283 84.82C92.2571 82.482 91.486 80.7494 89.9942 79.9667C87.6636 78.7439 84.2059 80.4915 81.7658 83.8505L81.8153 83.8764L85.4216 85.7686L84.3285 87.7724L80.7225 85.8804L79.9208 87.3499L83.5268 89.2418L80.1017 95.5205L80.9831 95.9829L84.4083 89.7043L85.0494 90.0407L81.6242 96.3193L82.5858 96.8238L86.011 90.5452L88.3144 91.7538L88.4536 91.8268L89.1752 92.2054C89.5331 91.7059 89.8988 91.1187 90.2094 90.5483C90.8256 89.4165 91.3223 88.1772 91.581 87.1102ZM85.851 88.5712L85.2099 88.2349L86.3031 86.2311L86.9442 86.5674L85.851 88.5712ZM86.8126 89.0758L87.9058 87.0719L90.1919 88.2714C89.9935 88.8546 89.6887 89.5325 89.3586 90.1387C89.3277 90.1954 89.3151 90.2169 89.2413 90.35L86.8126 89.0758Z" fill="#F4D27C"/>
</g>
<g opacity="0.5" filter="url(#filter1_f)">
<path d="M213.43 53.6481C213.354 53.6577 213.276 53.6558 213.197 53.6597C213.043 53.6712 212.89 53.6827 212.732 53.6789C212.636 53.6769 212.54 53.6635 212.444 53.6558C212.301 53.6443 212.158 53.6366 212.011 53.6136C211.908 53.5982 211.8 53.5714 211.694 53.5503C211.553 53.5215 211.414 53.4946 211.272 53.4562C211.162 53.4274 211.05 53.3871 210.941 53.3526C210.802 53.3084 210.663 53.2643 210.522 53.2105C210.409 53.1683 210.295 53.1165 210.181 53.0685C210.043 53.009 209.904 52.9495 209.767 52.8823C209.651 52.8267 209.538 52.7633 209.422 52.7019C209.285 52.629 209.148 52.5541 209.011 52.4735C208.896 52.4044 208.78 52.3315 208.665 52.2566C208.53 52.1702 208.395 52.0819 208.262 51.986C208.168 51.9207 208.074 51.8497 207.98 51.7806C207.729 51.5944 207.481 51.3948 207.236 51.1856C207.175 51.1319 207.113 51.0839 207.05 51.0301C206.837 50.8401 206.625 50.6386 206.418 50.4313C206.383 50.3948 206.345 50.3641 206.31 50.3276C206.144 50.1587 205.983 49.9783 205.821 49.7979C205.762 49.7327 205.702 49.6732 205.645 49.606C205.614 49.5714 205.586 49.533 205.555 49.4966C205.377 49.2874 205.203 49.0762 205.032 48.8555C204.972 48.7768 204.915 48.6924 204.854 48.6118C204.721 48.4313 204.59 48.2528 204.463 48.0647C204.388 47.9553 204.32 47.8421 204.247 47.7308C204.14 47.5657 204.034 47.3987 203.932 47.2279C203.848 47.0878 203.77 46.9419 203.692 46.7999C203.586 46.6099 203.476 46.4218 203.378 46.226C203.24 45.9496 203.108 45.6732 202.989 45.3987C202.981 45.3815 202.975 45.3661 202.969 45.3508C202.868 45.1147 202.774 44.8805 202.686 44.6483C202.656 44.5696 202.629 44.4928 202.601 44.416C202.541 44.2452 202.482 44.0744 202.429 43.9055C202.4 43.8114 202.371 43.7193 202.343 43.6253C202.294 43.4602 202.251 43.2951 202.21 43.132C202.189 43.0475 202.167 42.9631 202.147 42.8805C202.102 42.6828 202.063 42.4852 202.028 42.2913C202.02 42.2472 202.008 42.2011 202.003 42.155C201.963 41.917 201.934 41.6829 201.911 41.4525C201.905 41.3873 201.901 41.322 201.897 41.2568C201.883 41.0917 201.873 40.9286 201.868 40.7692C201.866 40.6886 201.866 40.608 201.866 40.5274C201.866 40.3854 201.868 40.2433 201.873 40.1051C201.877 40.0245 201.881 39.9439 201.887 39.8652C201.897 39.727 201.913 39.5908 201.93 39.4564C201.94 39.3854 201.948 39.3144 201.958 39.2453C201.983 39.0802 202.016 38.9209 202.052 38.7635C202.059 38.7309 202.065 38.6944 202.073 38.6618C202.12 38.4775 202.175 38.301 202.236 38.1282C202.314 37.9056 202.406 37.6944 202.51 37.4948C202.541 37.4334 202.578 37.3777 202.611 37.3182C202.68 37.1992 202.75 37.0802 202.829 36.9689C202.877 36.8998 202.928 36.8365 202.981 36.7712C203.048 36.6868 203.116 36.6042 203.189 36.5255C203.249 36.4622 203.312 36.4027 203.375 36.3432C203.447 36.276 203.519 36.2108 203.598 36.1494C203.709 36.0591 203.823 35.9709 203.946 35.896L202.097 37.0476C202.007 37.1033 201.918 37.1647 201.834 37.228C201.803 37.2511 201.778 37.2799 201.748 37.3029C201.672 37.3643 201.597 37.4296 201.525 37.4967C201.486 37.5332 201.443 37.5639 201.404 37.6023C201.38 37.6273 201.361 37.656 201.337 37.681C201.265 37.7597 201.196 37.8422 201.13 37.9267C201.094 37.9708 201.053 38.0092 201.02 38.0553C201.004 38.0764 200.993 38.1033 200.977 38.1244C200.899 38.2357 200.83 38.3528 200.762 38.4718C200.734 38.5198 200.701 38.562 200.676 38.61C200.67 38.6215 200.666 38.6368 200.658 38.6484C200.554 38.848 200.464 39.061 200.384 39.2817C200.38 39.2913 200.374 39.3009 200.372 39.3105C200.316 39.4737 200.267 39.6426 200.224 39.8153C200.216 39.848 200.21 39.8825 200.202 39.9151C200.171 40.0456 200.141 40.1781 200.118 40.3144C200.114 40.3412 200.112 40.37 200.108 40.3969C200.096 40.466 200.089 40.537 200.081 40.608C200.063 40.7424 200.049 40.8786 200.038 41.0168C200.032 41.0955 200.028 41.1761 200.024 41.2568C200.018 41.395 200.016 41.537 200.016 41.679C200.016 41.7596 200.016 41.8383 200.018 41.9189C200.022 42.0802 200.034 42.2433 200.047 42.4084C200.053 42.4736 200.055 42.537 200.061 42.6022C200.085 42.8326 200.114 43.0667 200.153 43.3047C200.161 43.3489 200.171 43.3949 200.179 43.4391C200.214 43.6348 200.251 43.8306 200.298 44.0283C200.318 44.1128 200.339 44.1972 200.361 44.2817C200.402 44.4448 200.445 44.608 200.494 44.773C200.521 44.8671 200.55 44.9611 200.58 45.0552C200.603 45.1281 200.621 45.1991 200.646 45.2721C200.678 45.368 200.717 45.4659 200.752 45.5638C200.779 45.6425 200.807 45.7193 200.836 45.798C200.924 46.0302 201.016 46.2644 201.118 46.4985C201.126 46.5158 201.132 46.5331 201.14 46.5504C201.141 46.5523 201.141 46.5561 201.143 46.558C201.263 46.8306 201.392 47.1031 201.529 47.3757C201.564 47.4448 201.599 47.5139 201.635 47.581C201.701 47.7077 201.774 47.8267 201.842 47.9496C201.922 48.0935 202.001 48.2375 202.083 48.3776C202.1 48.4083 202.116 48.439 202.136 48.4697C202.22 48.6098 202.312 48.7423 202.4 48.8785C202.472 48.9899 202.541 49.105 202.615 49.2144C202.629 49.2336 202.641 49.2566 202.654 49.2758C202.768 49.4409 202.887 49.6002 203.005 49.7595C203.065 49.8401 203.122 49.9246 203.183 50.0052C203.189 50.0148 203.196 50.0244 203.202 50.0321C203.365 50.2451 203.535 50.4486 203.705 50.6482C203.735 50.6827 203.764 50.7211 203.793 50.7557C203.795 50.7576 203.795 50.7576 203.797 50.7595C203.852 50.8228 203.911 50.8804 203.966 50.9438C204.128 51.1261 204.291 51.3065 204.459 51.4793C204.463 51.4831 204.465 51.485 204.469 51.4889C204.5 51.5215 204.533 51.5484 204.564 51.5791C204.774 51.7883 204.985 51.9898 205.201 52.1818C205.218 52.1971 205.236 52.2163 205.253 52.2317C205.296 52.27 205.341 52.3008 205.385 52.3372C205.629 52.5483 205.878 52.746 206.128 52.9322C206.175 52.9668 206.22 53.009 206.267 53.0435C206.314 53.0781 206.363 53.105 206.41 53.1395C206.545 53.2336 206.678 53.3219 206.815 53.4101C206.931 53.485 207.044 53.5579 207.16 53.627C207.297 53.7076 207.434 53.7825 207.571 53.8573C207.686 53.9188 207.8 53.9821 207.915 54.0378C208.054 54.1049 208.191 54.1645 208.33 54.224C208.444 54.2719 208.557 54.3238 208.671 54.366C208.811 54.4197 208.95 54.4639 209.089 54.508C209.199 54.5426 209.311 54.5829 209.42 54.6117C209.563 54.65 209.702 54.6769 209.843 54.7057C209.949 54.7268 210.054 54.7537 210.158 54.769C210.303 54.7902 210.446 54.7998 210.589 54.8113C210.684 54.819 210.782 54.8324 210.878 54.8343C211.035 54.8381 211.187 54.8247 211.34 54.8151C211.418 54.8093 211.499 54.8113 211.575 54.8036C211.804 54.7767 212.027 54.7326 212.244 54.6712C212.608 54.5675 212.943 54.4197 213.244 54.2316L215.094 53.08C214.792 53.2681 214.458 53.4159 214.094 53.5195C213.88 53.5771 213.657 53.6194 213.43 53.6481Z" fill="url(#paint10_linear)"/>
<path d="M204.955 35.4608C208.347 34.5011 213.144 37.764 215.67 42.7524C218.195 47.737 217.496 52.5623 214.103 53.5219C210.713 54.4816 205.912 51.2149 203.387 46.2303C200.861 41.24 201.565 36.4205 204.955 35.4608Z" fill="url(#paint11_linear)"/>
<path opacity="0.4" d="M205.925 36.4873C203.387 37.4836 203.105 41.7734 205.3 46.0501C207.494 50.3291 211.343 52.998 213.882 52.0016C216.42 51.0052 216.702 46.7154 214.507 42.4387C212.313 38.162 208.464 35.493 205.925 36.4873ZM213.555 42.8132C215.293 46.201 215.071 49.603 213.056 50.3938C211.045 51.1823 207.994 49.0654 206.256 45.6776C204.516 42.2832 204.738 38.8835 206.749 38.0951C208.762 37.3044 211.815 39.4211 213.555 42.8132Z" fill="#FEFBB4"/>
<path d="M206.401 43.4389L210.964 41.0447C209.939 40.0652 208.673 39.5743 207.778 40.0442C207.221 40.3362 206.901 40.9517 206.803 41.711L206.079 42.0908C206.004 40.7146 206.458 39.6946 207.336 39.2338C208.707 38.5139 210.742 39.5425 212.178 41.5197L212.149 41.535L210.027 42.649L210.67 43.8285L212.792 42.7146L213.264 43.5796L211.142 44.6934L213.157 48.3893L212.638 48.6615L210.623 44.9657L210.246 45.1637L212.261 48.8595L211.695 49.1566L209.68 45.4608L208.324 46.1723L208.242 46.2153L207.817 46.4382C207.607 46.1441 207.391 45.7985 207.209 45.4627C206.846 44.7965 206.554 44.067 206.401 43.4389ZM209.774 44.2988L210.151 44.1007L209.508 42.9212L209.13 43.1193L209.774 44.2988ZM209.208 44.5958L208.565 43.4163L207.219 44.1224C207.336 44.4657 207.515 44.8648 207.709 45.2216C207.727 45.2549 207.735 45.2676 207.778 45.346L209.208 44.5958Z" fill="#F4D27C"/>
</g>
<g opacity="0.5" filter="url(#filter2_f)">
<path d="M44.6169 130.524C44.6676 130.467 44.7096 130.402 44.7564 130.34C44.8523 130.221 44.9471 130.103 45.0322 129.972C45.084 129.893 45.1261 129.807 45.1731 129.725C45.2429 129.602 45.316 129.481 45.3783 129.349C45.4231 129.256 45.4603 129.153 45.5014 129.055C45.5555 128.925 45.6102 128.797 45.6573 128.659C45.694 128.554 45.722 128.44 45.7538 128.332C45.7939 128.194 45.834 128.056 45.867 127.912C45.8945 127.796 45.9139 127.674 45.9365 127.555C45.9635 127.409 45.9906 127.262 46.0101 127.113C46.0273 126.988 46.0369 126.861 46.0492 126.732C46.0638 126.58 46.0768 126.427 46.0849 126.27C46.0907 126.138 46.0933 126.003 46.0943 125.867C46.0964 125.709 46.0969 125.55 46.0898 125.388C46.0869 125.275 46.0791 125.159 46.0729 125.044C46.0549 124.737 46.0244 124.423 45.9836 124.107C45.9719 124.028 45.9661 123.95 45.9555 123.869C45.9135 123.59 45.8607 123.305 45.8008 123.021C45.7895 122.972 45.7842 122.924 45.773 122.875C45.7227 122.646 45.6593 122.415 45.5971 122.182C45.5746 122.098 45.558 122.015 45.5327 121.931C45.5209 121.887 45.5037 121.843 45.4903 121.797C45.4124 121.535 45.3307 121.276 45.2387 121.014C45.2058 120.921 45.166 120.828 45.1315 120.733C45.0529 120.524 44.9749 120.318 44.8865 120.11C44.8353 119.988 44.7776 119.869 44.7237 119.748C44.6439 119.569 44.5614 119.39 44.4735 119.212C44.4017 119.065 44.3219 118.92 44.2452 118.777C44.1432 118.585 44.045 118.391 43.9338 118.202C43.7772 117.935 43.6163 117.674 43.4504 117.424C43.4401 117.408 43.4304 117.395 43.4207 117.381C43.2775 117.167 43.1316 116.96 42.984 116.759C42.9337 116.691 42.884 116.626 42.8343 116.561C42.7235 116.416 42.6115 116.273 42.498 116.136C42.4347 116.06 42.373 115.985 42.3087 115.91C42.1962 115.778 42.0804 115.651 41.9652 115.527C41.9057 115.462 41.8462 115.398 41.7872 115.336C41.6449 115.189 41.4993 115.047 41.3548 114.91C41.3218 114.879 41.2893 114.844 41.2536 114.813C41.0739 114.649 40.892 114.495 40.7101 114.347C40.6581 114.306 40.605 114.266 40.5519 114.227C40.4198 114.124 40.2871 114.025 40.1555 113.931C40.0884 113.885 40.0201 113.84 39.9518 113.795C39.8316 113.716 39.7102 113.638 39.59 113.566C39.5195 113.524 39.4491 113.482 39.3792 113.443C39.2567 113.374 39.1326 113.311 39.009 113.251C38.9435 113.219 38.879 113.186 38.815 113.155C38.6611 113.084 38.5076 113.022 38.3548 112.963C38.3228 112.952 38.2886 112.936 38.2566 112.924C38.0744 112.86 37.8944 112.806 37.7143 112.759C37.4822 112.699 37.2522 112.656 37.0254 112.629C36.9559 112.621 36.8881 112.62 36.8191 112.614C36.6802 112.603 36.5402 112.594 36.4023 112.596C36.3165 112.597 36.2346 112.604 36.1499 112.61C36.0413 112.617 35.9332 112.627 35.8262 112.642C35.7388 112.656 35.6535 112.674 35.5682 112.692C35.471 112.714 35.3754 112.736 35.2798 112.766C35.1412 112.806 35.0032 112.85 34.8711 112.908L36.8768 112.044C36.9741 112.002 37.0752 111.964 37.1757 111.931C37.2127 111.918 37.2512 111.914 37.2871 111.902C37.3816 111.875 37.4783 111.85 37.5755 111.829C37.6282 111.817 37.6782 111.799 37.7325 111.789C37.7668 111.784 37.802 111.784 37.8362 111.778C37.9432 111.763 38.0513 111.754 38.1599 111.746C38.2169 111.742 38.2723 111.73 38.3298 111.729C38.3564 111.728 38.3857 111.733 38.4123 111.732C38.5502 111.731 38.6875 111.74 38.8264 111.751C38.8823 111.755 38.9366 111.751 38.9914 111.757C39.0045 111.759 39.0196 111.764 39.0337 111.764C39.2606 111.791 39.4911 111.837 39.7227 111.894C39.733 111.896 39.7444 111.897 39.7536 111.901C39.9234 111.945 40.0937 112 40.2639 112.061C40.2959 112.073 40.3284 112.087 40.3604 112.099C40.4884 112.146 40.6169 112.196 40.7453 112.253C40.7703 112.265 40.7957 112.279 40.8207 112.291C40.8857 112.32 40.9502 112.353 41.0147 112.386C41.1383 112.447 41.2613 112.512 41.3849 112.579C41.4548 112.618 41.5252 112.66 41.5956 112.702C41.7159 112.774 41.8373 112.851 41.9575 112.931C42.0258 112.975 42.0924 113.019 42.1596 113.066C42.2939 113.159 42.4255 113.259 42.5576 113.362C42.6096 113.404 42.6621 113.44 42.7141 113.482C42.896 113.629 43.0779 113.783 43.2576 113.948C43.2907 113.979 43.3242 114.013 43.3572 114.044C43.5034 114.181 43.6484 114.321 43.7896 114.469C43.8502 114.532 43.9097 114.597 43.9692 114.661C44.0845 114.786 44.1986 114.912 44.3111 115.043C44.3755 115.118 44.4387 115.195 44.502 115.271C44.5507 115.331 44.601 115.384 44.6486 115.446C44.7124 115.525 44.7734 115.611 44.8367 115.694C44.8881 115.761 44.9378 115.826 44.9881 115.894C45.1356 116.095 45.2826 116.3 45.4242 116.513C45.4345 116.529 45.4458 116.544 45.4561 116.56C45.4566 116.562 45.4599 116.565 45.4604 116.567C45.6246 116.816 45.7834 117.073 45.9378 117.337C45.9767 117.404 46.0156 117.471 46.0528 117.537C46.123 117.662 46.1834 117.787 46.2493 117.912C46.3264 118.057 46.4047 118.201 46.4775 118.346C46.4937 118.378 46.511 118.407 46.5261 118.441C46.5978 118.587 46.6587 118.736 46.725 118.884C46.7789 119.005 46.8382 119.124 46.8894 119.246C46.898 119.268 46.911 119.29 46.9196 119.312C46.9961 119.497 47.0645 119.683 47.1339 119.867C47.1684 119.961 47.2083 120.054 47.2427 120.149C47.2476 120.159 47.2513 120.171 47.2546 120.18C47.3444 120.431 47.4218 120.683 47.4959 120.933C47.5088 120.976 47.525 121.021 47.5379 121.064C47.5384 121.067 47.5384 121.067 47.5389 121.07C47.562 121.15 47.5781 121.229 47.6012 121.309C47.665 121.543 47.7273 121.776 47.7797 122.009C47.7808 122.015 47.7814 122.017 47.7824 122.023C47.7926 122.066 47.7968 122.108 47.8054 122.151C47.8658 122.438 47.9187 122.723 47.9612 123.005C47.9644 123.028 47.9708 123.053 47.974 123.076C47.9825 123.132 47.9834 123.186 47.9903 123.241C48.0328 123.558 48.0616 123.871 48.0797 124.178C48.0828 124.236 48.0934 124.296 48.0965 124.354C48.0996 124.411 48.0951 124.466 48.0982 124.523C48.1025 124.686 48.1031 124.843 48.1016 125.004C48.1006 125.14 48.0991 125.273 48.0932 125.406C48.0852 125.562 48.0722 125.715 48.0592 125.869C48.0469 125.997 48.0373 126.125 48.0201 126.25C47.9995 126.4 47.9735 126.545 47.9465 126.691C47.9239 126.81 47.9045 126.932 47.877 127.048C47.844 127.192 47.8039 127.33 47.7639 127.468C47.732 127.576 47.704 127.69 47.6673 127.795C47.6202 127.933 47.5655 128.061 47.5114 128.192C47.4704 128.289 47.4342 128.391 47.3894 128.484C47.3266 128.613 47.2551 128.735 47.1852 128.858C47.1383 128.94 47.0952 129.027 47.0433 129.106C46.9593 129.236 46.8629 129.353 46.7697 129.472C46.7212 129.532 46.6781 129.599 46.6291 129.657C46.4787 129.828 46.317 129.985 46.144 130.128C45.8534 130.367 45.5418 130.557 45.2145 130.697L43.2089 131.562C43.5361 131.421 43.8477 131.231 44.1383 130.992C44.3059 130.851 44.466 130.693 44.6169 130.524Z" fill="url(#paint12_linear)"/>
<path d="M33.9317 113.482C31.2291 115.71 31.3188 121.434 34.1345 126.271C36.9481 131.105 41.423 133.225 44.1266 130.996C46.8281 128.77 46.7373 123.04 43.9238 118.207C41.1064 113.369 36.6331 111.257 33.9317 113.482Z" fill="url(#paint13_linear)"/>
<path opacity="0.4" d="M34.2533 114.846C36.5109 113.335 40.3002 115.495 42.6979 119.666C45.0986 123.837 45.2136 128.458 42.9548 129.971C40.6972 131.482 36.9079 129.322 34.5101 125.151C32.1112 120.981 31.9963 116.36 34.2533 114.846ZM35.3576 124.584C37.2577 127.887 40.2618 129.602 42.0541 128.402C43.8422 127.204 43.75 123.54 41.8499 120.237C39.9456 116.928 36.9433 115.215 35.1552 116.413C33.3641 117.612 33.4551 121.277 35.3576 124.584Z" fill="#FEFBB4"/>
<path d="M39.8781 119.117L35.309 121.498C35.0506 120.118 35.3405 118.813 36.2374 118.346C36.7945 118.056 37.4941 118.138 38.1915 118.481L38.9163 118.103C37.7933 117.275 36.6769 117.076 35.7976 117.534C34.4238 118.25 34.1606 120.481 35.0343 122.752L35.0634 122.737L37.1893 121.629L37.8294 122.81L35.7037 123.918L36.1731 124.784L38.2988 123.676L40.3044 127.378L40.824 127.107L38.8184 123.406L39.1963 123.209L41.2019 126.91L41.7687 126.614L39.7631 122.913L41.1209 122.206L41.203 122.163L41.6283 121.941C41.4968 121.606 41.3241 121.238 41.1417 120.902C40.7797 120.235 40.325 119.591 39.8781 119.117ZM38.7269 122.342L38.349 122.539L37.7089 121.358L38.0868 121.161L38.7269 122.342ZM39.2937 122.047L38.6536 120.866L40.0012 120.164C40.2268 120.45 40.4647 120.818 40.6585 121.175C40.6766 121.209 40.6832 121.222 40.7253 121.301L39.2937 122.047Z" fill="#F4D27C"/>
</g>
<path d="M138.691 84.3989C138.811 84.2862 138.914 84.1546 139.027 84.0309C139.256 83.7919 139.482 83.556 139.691 83.2897C139.817 83.1292 139.924 82.953 140.041 82.7847C140.215 82.5337 140.396 82.288 140.555 82.0151C140.669 81.8234 140.769 81.6097 140.876 81.407C141.018 81.1359 141.16 80.8706 141.288 80.5833C141.387 80.3638 141.47 80.1254 141.559 79.8981C141.672 79.6094 141.784 79.3207 141.883 79.0157C141.965 78.7716 142.03 78.5144 142.102 78.2624C142.188 77.9529 142.274 77.6434 142.345 77.3267C142.406 77.0611 142.452 76.7883 142.503 76.5149C142.564 76.1904 142.621 75.8633 142.669 75.5284C142.707 75.2446 142.739 74.9555 142.767 74.6639C142.802 74.3244 142.834 73.9823 142.85 73.6331C142.865 73.3899 142.871 73.1389 142.88 72.8906C142.901 72.2256 142.896 71.5458 142.869 70.8593C142.859 70.6865 142.862 70.5183 142.855 70.3424C142.819 69.7335 142.76 69.1122 142.686 68.4896C142.671 68.3821 142.669 68.2793 142.654 68.1718C142.591 67.6689 142.499 67.1601 142.41 66.648C142.378 66.4629 142.359 66.2823 142.32 66.0978C142.304 65.9994 142.275 65.9023 142.255 65.8013C142.138 65.2244 142.013 64.6514 141.866 64.0718C141.813 63.8652 141.745 63.6573 141.689 63.4481C141.561 62.9844 141.433 62.5265 141.283 62.062C141.197 61.7913 141.096 61.525 141.003 61.2548C140.866 60.8538 140.724 60.4535 140.569 60.0543C140.443 59.7258 140.299 59.3992 140.162 59.0778C139.98 58.6462 139.806 58.2108 139.604 57.7843C139.319 57.1808 139.023 56.5903 138.715 56.0217C138.696 55.9853 138.678 55.9549 138.659 55.9244C138.393 55.4368 138.119 54.9647 137.841 54.5049C137.746 54.3499 137.652 54.2007 137.557 54.0516C137.347 53.7201 137.134 53.3919 136.916 53.076C136.795 52.9002 136.677 52.727 136.553 52.5544C136.337 52.2501 136.113 51.9554 135.889 51.6666C135.773 51.5167 135.658 51.3668 135.543 51.2227C135.266 50.8807 134.98 50.5483 134.696 50.2275C134.631 50.1548 134.568 50.073 134.497 50.0009C134.142 49.6139 133.781 49.2482 133.419 48.8974C133.315 48.7993 133.208 48.7044 133.102 48.6095C132.838 48.3632 132.572 48.126 132.307 47.9004C132.171 47.7879 132.033 47.6787 131.895 47.5694C131.652 47.3769 131.406 47.1877 131.162 47.01C131.018 46.9072 130.875 46.8044 130.732 46.7074C130.482 46.5363 130.228 46.3774 129.974 46.2243C129.839 46.1442 129.707 46.0608 129.575 45.9833C129.258 45.8015 128.94 45.6404 128.623 45.4851C128.556 45.4538 128.486 45.414 128.419 45.3827C128.04 45.2103 127.664 45.0613 127.285 44.9271C126.798 44.7543 126.312 44.6196 125.829 44.52C125.682 44.4883 125.536 44.4741 125.389 44.4483C125.093 44.3998 124.793 44.3546 124.497 44.3326C124.312 44.3196 124.134 44.3175 123.951 44.3161C123.716 44.3113 123.482 44.3122 123.249 44.3249C123.058 44.3389 122.872 44.3615 122.685 44.384C122.472 44.4122 122.262 44.443 122.051 44.4887C121.745 44.5502 121.44 44.6175 121.145 44.7191L125.623 43.2337C125.841 43.1609 126.065 43.0991 126.288 43.0463C126.37 43.0259 126.453 43.0231 126.533 43.0059C126.741 42.9634 126.954 42.9294 127.167 42.9012C127.282 42.8861 127.393 42.8568 127.512 42.8444C127.587 42.8395 127.663 42.8463 127.737 42.8414C127.97 42.8288 128.204 42.8279 128.439 42.8327C128.562 42.8345 128.684 42.8189 128.808 42.8265C128.865 42.8293 128.927 42.8464 128.984 42.8492C129.281 42.8712 129.574 42.917 129.871 42.9655C129.99 42.9854 130.108 42.9878 130.224 43.0109C130.252 43.0169 130.284 43.0312 130.314 43.0339C130.797 43.1336 131.283 43.2741 131.77 43.4411C131.792 43.4476 131.816 43.451 131.835 43.4608C132.192 43.5884 132.547 43.7367 132.901 43.8999C132.968 43.9312 133.035 43.9684 133.101 43.9997C133.367 44.125 133.634 44.2562 133.899 44.4022C133.95 44.4321 134.002 44.4679 134.054 44.4979C134.188 44.5722 134.32 44.6556 134.452 44.7389C134.706 44.892 134.958 45.0541 135.211 45.2221C135.354 45.319 135.497 45.4218 135.64 45.5246C135.885 45.7023 136.131 45.8915 136.374 46.084C136.512 46.1933 136.647 46.2999 136.782 46.4124C137.053 46.6374 137.317 46.8778 137.581 47.1241C137.684 47.2222 137.79 47.3113 137.894 47.4094C138.257 47.7602 138.618 48.1259 138.972 48.5129C139.037 48.5857 139.103 48.6642 139.168 48.7369C139.456 49.0603 139.74 49.3868 140.015 49.7321C140.133 49.8788 140.249 50.0287 140.364 50.1786C140.588 50.4674 140.809 50.7595 141.025 51.0638C141.149 51.2363 141.271 51.4122 141.392 51.588C141.485 51.7255 141.583 51.8508 141.673 51.9915C141.795 52.1732 141.91 52.3703 142.029 52.561C142.127 52.7127 142.221 52.8619 142.316 53.0169C142.595 53.4767 142.871 53.9456 143.134 54.4306C143.153 54.4669 143.175 54.4999 143.194 54.5362C143.194 54.5421 143.201 54.5473 143.202 54.5531C143.506 55.1191 143.798 55.7012 144.079 56.2963C144.15 56.4479 144.22 56.5996 144.288 56.7487C144.414 57.0299 144.52 57.3105 144.638 57.5898C144.775 57.917 144.916 58.2411 145.044 58.5663C145.073 58.637 145.104 58.7044 145.13 58.7782C145.256 59.1067 145.358 59.4377 145.472 59.7675C145.565 60.0376 145.669 60.3065 145.756 60.5773C145.77 60.6258 145.794 60.6764 145.808 60.725C145.937 61.1356 146.048 61.5482 146.162 61.9575C146.217 62.1667 146.285 62.3746 146.341 62.5838C146.349 62.6064 146.355 62.6323 146.36 62.6524C146.505 63.2087 146.623 63.7649 146.734 64.3159C146.753 64.411 146.779 64.5114 146.799 64.6066C146.799 64.6124 146.799 64.6124 146.8 64.6182C146.834 64.7943 146.853 64.9691 146.887 65.1452C146.979 65.6598 147.068 66.1719 147.136 66.6832C147.137 66.6949 147.138 66.7007 147.139 66.7123C147.152 66.8081 147.153 66.8993 147.164 66.9925C147.238 67.621 147.297 68.2422 147.334 68.857C147.336 68.9068 147.345 68.9618 147.347 69.0116C147.355 69.1346 147.346 69.2503 147.35 69.3707C147.38 70.0597 147.382 70.737 147.361 71.402C147.357 71.5261 147.368 71.6575 147.364 71.7817C147.359 71.9059 147.339 72.0229 147.335 72.1471C147.313 72.4969 147.283 72.8358 147.249 73.1811C147.221 73.4727 147.192 73.7585 147.153 74.0423C147.106 74.3772 147.048 74.7043 146.991 75.0314C146.94 75.3049 146.894 75.5777 146.833 75.8433C146.76 76.1632 146.676 76.4695 146.59 76.779C146.518 77.031 146.453 77.2882 146.371 77.5323C146.272 77.8373 146.16 78.126 146.047 78.4146C145.957 78.642 145.875 78.8803 145.776 79.0999C145.648 79.3872 145.506 79.6525 145.364 79.9236C145.257 80.1263 145.16 80.3368 145.046 80.5284C144.886 80.7956 144.708 81.0439 144.534 81.2948C144.418 81.4632 144.308 81.6425 144.181 81.8031C143.976 82.0662 143.746 82.2994 143.522 82.5378C143.406 82.6589 143.301 82.7937 143.184 82.909C142.828 83.2497 142.45 83.5574 142.05 83.8319C141.38 84.291 140.673 84.6419 139.942 84.8834L135.464 86.3688C136.194 86.1273 136.901 85.7764 137.572 85.3173C137.96 85.044 138.334 84.7338 138.691 84.3989Z" fill="url(#paint14_linear)"/>
<path d="M119.037 45.7748C112.797 50.0604 111.883 62.3832 117.002 73.3053C122.116 84.2189 131.326 89.6077 137.569 85.3189C143.807 81.0365 144.719 68.7021 139.604 57.7884C134.483 46.8637 125.275 41.4924 119.037 45.7748Z" fill="url(#paint15_linear)"/>
<path opacity="0.4" d="M119.458 48.764C124.603 45.9349 132.332 51.2843 136.68 60.6961C141.035 70.1081 140.389 80.0647 135.241 82.8968C130.096 85.726 122.367 80.3766 118.019 70.9648C113.667 61.556 114.313 51.5994 119.458 48.764ZM119.95 69.9047C123.396 77.3583 129.523 81.6033 133.608 79.3568C137.683 77.1132 138.193 69.2192 134.747 61.7656C131.292 54.2992 125.169 50.0574 121.094 52.301C117.012 54.5445 116.499 62.4416 119.95 69.9047Z" fill="#FEFBB4"/>
<path d="M130.716 58.9879L120.433 63.2581C120.145 60.2431 121.02 57.4924 123.038 56.6541C124.292 56.1335 125.78 56.4399 127.213 57.3077L128.844 56.6304C126.59 54.6405 124.229 54.006 122.25 54.8278C119.158 56.1117 118.161 60.8578 119.6 65.9028L119.666 65.8756L124.45 63.8888L125.598 66.547L120.814 68.5336L121.656 70.4829L126.439 68.4964L130.036 76.8254L131.205 76.3398L127.609 68.0108L128.459 67.6576L132.056 75.9866L133.331 75.4569L129.735 67.1279L132.791 65.8589L132.975 65.7822L133.932 65.3847C133.715 64.6393 133.414 63.8164 133.087 63.0603C132.438 61.56 131.585 60.0899 130.716 58.9879ZM127.618 65.7083L126.767 66.0614L125.619 63.4032L126.47 63.0501L127.618 65.7083ZM128.893 65.1785L127.745 62.5203L130.778 61.2609C131.208 61.9185 131.648 62.7547 131.996 63.5583C132.028 63.6334 132.04 63.6629 132.115 63.8406L128.893 65.1785Z" fill="#F4D27C"/>
<g opacity="0.5">
<path d="M24.1276 78.1062C24.1981 78.0399 24.2586 77.9625 24.325 77.8896C24.4599 77.7489 24.5933 77.6101 24.7159 77.4534C24.7904 77.3589 24.8534 77.2552 24.9222 77.1561C25.0245 77.0084 25.1308 76.8638 25.2246 76.7031C25.2919 76.5903 25.3507 76.4645 25.4137 76.3452C25.4971 76.1857 25.5809 76.0295 25.6561 75.8604C25.7145 75.7312 25.7629 75.5909 25.8155 75.4571C25.8819 75.2871 25.9482 75.1172 26.0064 74.9377C26.0544 74.794 26.0928 74.6426 26.1349 74.4943C26.1858 74.3121 26.2367 74.13 26.2783 73.9436C26.3143 73.7872 26.341 73.6266 26.3712 73.4657C26.4069 73.2747 26.4408 73.0822 26.4688 72.8851C26.4913 72.718 26.5099 72.5479 26.5265 72.3762C26.5472 72.1764 26.5659 71.9751 26.5754 71.7695C26.5845 71.6264 26.5879 71.4786 26.5932 71.3325C26.6053 70.9411 26.6024 70.5409 26.5867 70.1368C26.5809 70.0351 26.5825 69.9362 26.5783 69.8326C26.5569 69.4742 26.5224 69.1085 26.479 68.742C26.4703 68.6788 26.469 68.6182 26.4604 68.555C26.4228 68.259 26.369 67.9595 26.3167 67.6581C26.2978 67.5491 26.2862 67.4428 26.2637 67.3342C26.2539 67.2763 26.2371 67.2191 26.2253 67.1597C26.1565 66.8201 26.0826 66.4828 25.996 66.1417C25.965 66.0201 25.9252 65.8977 25.8923 65.7746C25.8166 65.5017 25.7413 65.2321 25.6532 64.9588C25.6022 64.7994 25.5427 64.6427 25.4883 64.4837C25.4078 64.2476 25.3238 64.012 25.2328 63.777C25.1587 63.5837 25.0741 63.3914 24.9934 63.2022C24.8862 62.9482 24.784 62.6919 24.6647 62.4409C24.497 62.0857 24.323 61.7381 24.1416 61.4034C24.1304 61.382 24.1196 61.3641 24.1088 61.3462C23.952 61.0592 23.7909 60.7813 23.6271 60.5107C23.5712 60.4194 23.5157 60.3316 23.4601 60.2438C23.3364 60.0487 23.211 59.8555 23.0829 59.6696C23.0115 59.5661 22.9421 59.4641 22.8691 59.3626C22.7418 59.1834 22.6098 59.01 22.4781 58.84C22.4101 58.7518 22.3422 58.6636 22.2746 58.5788C22.1113 58.3774 21.9432 58.1818 21.7759 57.993C21.7377 57.9502 21.7006 57.902 21.6589 57.8596C21.4502 57.6318 21.2376 57.4165 21.0241 57.21C20.963 57.1523 20.9004 57.0964 20.8377 57.0406C20.6823 56.8956 20.5256 56.756 20.3698 56.6232C20.2901 56.557 20.2088 56.4927 20.1275 56.4284C19.9844 56.3151 19.8396 56.2037 19.6957 56.0992C19.6113 56.0387 19.5269 55.9781 19.4429 55.9211C19.2958 55.8203 19.146 55.7268 18.9965 55.6367C18.9171 55.5895 18.8393 55.5405 18.7618 55.4948C18.5751 55.3878 18.388 55.293 18.2013 55.2016C18.1621 55.1831 18.1207 55.1597 18.0816 55.1413C17.8584 55.0399 17.6367 54.9521 17.4141 54.8731C17.1273 54.7714 16.8411 54.6922 16.5571 54.6335C16.4702 54.6149 16.3845 54.6065 16.298 54.5913C16.1234 54.5628 15.9472 54.5362 15.7726 54.5232C15.6639 54.5156 15.5594 54.5144 15.4515 54.5135C15.3133 54.5107 15.1755 54.5112 15.0384 54.5187C14.9261 54.527 14.8162 54.5402 14.7063 54.5535C14.5808 54.5701 14.4572 54.5882 14.3329 54.6151C14.153 54.6513 13.9734 54.6909 13.7996 54.7507L16.4358 53.8764C16.5637 53.8336 16.6959 53.7972 16.8268 53.7661C16.875 53.7541 16.9243 53.7524 16.971 53.7423C17.0938 53.7173 17.2189 53.6973 17.3444 53.6807C17.4124 53.6718 17.4777 53.6546 17.5476 53.6473C17.5915 53.6444 17.6361 53.6484 17.68 53.6455C17.8171 53.6381 17.9549 53.6375 18.0931 53.6404C18.1657 53.6415 18.2372 53.6322 18.3102 53.6367C18.3439 53.6384 18.3804 53.6484 18.4141 53.6501C18.5888 53.663 18.7615 53.69 18.9361 53.7185C19.0063 53.7302 19.0754 53.7317 19.144 53.7453C19.1603 53.7488 19.1789 53.7572 19.1968 53.7588C19.4807 53.8175 19.7673 53.9002 20.0538 53.9985C20.0666 54.0023 20.081 54.0043 20.0922 54.0101C20.3019 54.0852 20.5112 54.1725 20.7197 54.2685C20.7588 54.287 20.7983 54.3088 20.8374 54.3273C20.994 54.401 21.1509 54.4782 21.307 54.5642C21.3372 54.5818 21.3678 54.6029 21.398 54.6205C21.477 54.6642 21.5548 54.7133 21.6326 54.7624C21.7821 54.8525 21.9304 54.9479 22.0791 55.0468C22.1631 55.1038 22.2474 55.1643 22.3318 55.2249C22.4758 55.3294 22.6205 55.4408 22.7637 55.5541C22.845 55.6184 22.9243 55.6812 23.004 55.7474C23.1634 55.8798 23.3184 56.0213 23.4739 56.1663C23.535 56.224 23.5973 56.2765 23.6584 56.3342C23.8718 56.5407 24.0844 56.756 24.2931 56.9838C24.3313 57.0266 24.3699 57.0728 24.4082 57.1156C24.5774 57.3059 24.7451 57.4981 24.9069 57.7014C24.9764 57.7877 25.0444 57.876 25.1123 57.9642C25.244 58.1342 25.3741 58.3061 25.5014 58.4852C25.5744 58.5868 25.6458 58.6903 25.7171 58.7937C25.7719 58.8747 25.8294 58.9484 25.8827 59.0313C25.9544 59.1382 26.0219 59.2542 26.0924 59.3664C26.1499 59.4558 26.2054 59.5436 26.2613 59.6348C26.4252 59.9055 26.5878 60.1814 26.7427 60.4669C26.7538 60.4883 26.7666 60.5077 26.7777 60.5291C26.7781 60.5325 26.782 60.5356 26.7823 60.539C26.9618 60.8722 27.1335 61.2148 27.2989 61.565C27.3405 61.6543 27.382 61.7436 27.4216 61.8313C27.4962 61.9969 27.5584 62.162 27.6276 62.3264C27.7087 62.519 27.7913 62.7097 27.867 62.9012C27.8839 62.9428 27.9024 62.9825 27.9177 63.0259C27.9918 63.2193 28.0519 63.4141 28.119 63.6082C28.1735 63.7672 28.2349 63.9255 28.2859 64.0848C28.2943 64.1134 28.3081 64.1432 28.3165 64.1718C28.3924 64.4135 28.4577 64.6563 28.5246 64.8972C28.5575 65.0204 28.5973 65.1427 28.6302 65.2659C28.6352 65.2792 28.6386 65.2945 28.6417 65.3063C28.7268 65.6337 28.7961 65.9611 28.8614 66.2854C28.8729 66.3414 28.8881 66.4005 28.8995 66.4565C28.8999 66.4599 28.8999 66.4599 28.9003 66.4633C28.9204 66.567 28.9316 66.6698 28.9517 66.7735C29.0059 67.0764 29.0582 67.3778 29.0981 67.6788C29.0988 67.6857 29.0992 67.6891 29.0999 67.6959C29.1079 67.7523 29.1084 67.806 29.1144 67.8609C29.1582 68.2308 29.1927 68.5964 29.2145 68.9583C29.2159 68.9876 29.2212 69.02 29.2226 69.0493C29.227 69.1217 29.222 69.1898 29.2244 69.2606C29.2421 69.6662 29.2431 70.0649 29.2309 70.4562C29.2282 70.5293 29.2349 70.6067 29.2322 70.6798C29.2296 70.7529 29.2177 70.8217 29.215 70.8948C29.2021 71.1008 29.1849 71.3002 29.1646 71.5035C29.148 71.6751 29.1309 71.8433 29.1085 72.0104C29.0804 72.2075 29.0466 72.4 29.0128 72.5926C28.9826 72.7535 28.9558 72.9141 28.9198 73.0704C28.8767 73.2587 28.8274 73.439 28.7765 73.6212C28.7343 73.7695 28.696 73.9209 28.648 74.0646C28.5898 74.2441 28.5234 74.414 28.4571 74.5839C28.4045 74.7177 28.3561 74.858 28.2977 74.9872C28.2224 75.1564 28.1387 75.3125 28.0553 75.4721C27.9923 75.5914 27.935 75.7153 27.8678 75.8281C27.7735 75.9853 27.6692 76.1315 27.5669 76.2792C27.4981 76.3783 27.4336 76.4839 27.359 76.5784C27.238 76.7332 27.1027 76.8705 26.9712 77.0108C26.903 77.0821 26.8409 77.1614 26.7723 77.2293C26.5625 77.4298 26.34 77.6109 26.1048 77.7725C25.71 78.0428 25.294 78.2493 24.864 78.3914L22.2278 79.2658C22.6579 79.1236 23.0738 78.9171 23.4687 78.6468C23.6969 78.486 23.9174 78.3034 24.1276 78.1062Z" fill="url(#paint16_linear)"/>
<path d="M12.5511 55.3764C8.87811 57.8989 8.34046 65.1521 11.3531 71.5809C14.3634 78.0047 19.7845 81.1765 23.459 78.6521C27.1304 76.1315 27.6673 68.8715 24.657 62.4477C21.6424 56.0174 16.2224 52.8558 12.5511 55.3764Z" fill="url(#paint17_linear)"/>
<path opacity="0.4" d="M12.8078 57.1359C15.8364 55.4707 20.3853 58.6193 22.9448 64.1591C25.5081 69.699 25.1279 75.5595 22.0977 77.2265C19.0692 78.8917 14.5202 75.7431 11.9607 70.2033C9.39954 64.6652 9.77974 58.8048 12.8078 57.1359ZM13.0974 69.5793C15.126 73.9665 18.7321 76.4651 21.1365 75.1428C23.5353 73.8222 23.8355 69.1758 21.8069 64.7886C19.7736 60.3939 16.1697 57.8972 13.7708 59.2178C11.3681 60.5383 11.0663 65.1865 13.0974 69.5793Z" fill="#FEFBB4"/>
<path d="M19.4397 63.1526L13.3874 65.666C13.2175 63.8913 13.7326 62.2723 14.9207 61.7789C15.6586 61.4724 16.5345 61.6528 17.378 62.1636L18.338 61.7649C17.0113 60.5937 15.6213 60.2202 14.4565 60.7039C12.6367 61.4596 12.05 64.2532 12.8972 67.2226L12.9358 67.2066L15.7517 66.0372L16.4273 67.6018L13.6116 68.7711L14.1071 69.9185L16.9227 68.7492L19.0395 73.6517L19.7278 73.3659L17.611 68.4634L18.1115 68.2555L20.2284 73.158L20.9792 72.8462L18.8624 67.9437L20.661 67.1968L20.7696 67.1517L21.3331 66.9177C21.2048 66.4789 21.0281 65.9946 20.8355 65.5495C20.4533 64.6665 19.9513 63.8012 19.4397 63.1526ZM17.6161 67.1082L17.1156 67.316L16.44 65.7514L16.9405 65.5435L17.6161 67.1082ZM18.367 66.7963L17.6914 65.2317L19.4764 64.4904C19.7293 64.8775 19.9884 65.3697 20.193 65.8427C20.2122 65.8869 20.219 65.9042 20.2633 66.0088L18.367 66.7963Z" fill="#F4D27C"/>
</g>
</g>
<defs>
<filter id="filter0_f" x="62.9536" y="62.9426" width="49.8244" height="53.8757" filterUnits="userSpaceOnUse" color-interpolation-filters="sRGB">
<feFlood flood-opacity="0" result="BackgroundImageFix"/>
<feBlend mode="normal" in="SourceGraphic" in2="BackgroundImageFix" result="shape"/>
<feGaussianBlur stdDeviation="5.16676" result="effect1_foregroundBlur"/>
</filter>
<filter id="filter1_f" x="189.683" y="24.9598" width="37.8376" height="40.2087" filterUnits="userSpaceOnUse" color-interpolation-filters="sRGB">
<feFlood flood-opacity="0" result="BackgroundImageFix"/>
<feBlend mode="normal" in="SourceGraphic" in2="BackgroundImageFix" result="shape"/>
<feGaussianBlur stdDeviation="5.16676" result="effect1_foregroundBlur"/>
</filter>
<filter id="filter2_f" x="21.6289" y="101.395" width="36.8069" height="40.8206" filterUnits="userSpaceOnUse" color-interpolation-filters="sRGB">
<feFlood flood-opacity="0" result="BackgroundImageFix"/>
<feBlend mode="normal" in="SourceGraphic" in2="BackgroundImageFix" result="shape"/>
<feGaussianBlur stdDeviation="5.16676" result="effect1_foregroundBlur"/>
</filter>
<linearGradient id="paint0_linear" x1="277.588" y1="43.0716" x2="327.919" y2="67.42" gradientUnits="userSpaceOnUse">
<stop stop-color="#4080FF"/>
<stop offset="1" stop-color="#1F2337"/>
</linearGradient>
<linearGradient id="paint1_linear" x1="363.837" y1="30.5135" x2="402.501" y2="45.9945" gradientUnits="userSpaceOnUse">
<stop stop-color="#4080FF"/>
<stop offset="1" stop-color="#1F2337"/>
</linearGradient>
<linearGradient id="paint2_linear" x1="110.544" y1="143.103" x2="135.735" y2="124.263" gradientUnits="userSpaceOnUse">
<stop offset="0.074" stop-color="#FFF5B7"/>
<stop offset="0.228" stop-color="#E79127"/>
<stop offset="0.2507" stop-color="#D58326"/>
<stop offset="0.2976" stop-color="#B66A25"/>
<stop offset="0.3491" stop-color="#9D5524"/>
<stop offset="0.4061" stop-color="#894623"/>
<stop offset="0.4716" stop-color="#7B3A22"/>
<stop offset="0.5528" stop-color="#733422"/>
<stop offset="0.6982" stop-color="#713222"/>
<stop offset="0.7307" stop-color="#743422"/>
<stop offset="0.7531" stop-color="#7D3C23"/>
<stop offset="0.7725" stop-color="#8C4823"/>
<stop offset="0.7902" stop-color="#A25924"/>
<stop offset="0.8067" stop-color="#BE7025"/>
<stop offset="0.8221" stop-color="#E08B27"/>
<stop offset="0.8249" stop-color="#E79127"/>
<stop offset="0.8485" stop-color="#ECA443"/>
<stop offset="0.8993" stop-color="#F8D68A"/>
<stop offset="0.9294" stop-color="#FFF5B7"/>
</linearGradient>
<linearGradient id="paint3_linear" x1="111.849" y1="118.234" x2="147.019" y2="148.542" gradientUnits="userSpaceOnUse">
<stop stop-color="#DD8E19"/>
<stop offset="1" stop-color="#FFEDA5"/>
</linearGradient>
<linearGradient id="paint4_linear" x1="194.018" y1="87.8586" x2="179.19" y2="76.7698" gradientUnits="userSpaceOnUse">
<stop offset="0.074" stop-color="#FFF5B7"/>
<stop offset="0.228" stop-color="#E79127"/>
<stop offset="0.2507" stop-color="#D58326"/>
<stop offset="0.2976" stop-color="#B66A25"/>
<stop offset="0.3491" stop-color="#9D5524"/>
<stop offset="0.4061" stop-color="#894623"/>
<stop offset="0.4716" stop-color="#7B3A22"/>
<stop offset="0.5528" stop-color="#733422"/>
<stop offset="0.6982" stop-color="#713222"/>
<stop offset="0.7307" stop-color="#743422"/>
<stop offset="0.7531" stop-color="#7D3C23"/>
<stop offset="0.7725" stop-color="#8C4823"/>
<stop offset="0.7902" stop-color="#A25924"/>
<stop offset="0.8067" stop-color="#BE7025"/>
<stop offset="0.8221" stop-color="#E08B27"/>
<stop offset="0.8249" stop-color="#E79127"/>
<stop offset="0.8485" stop-color="#ECA443"/>
<stop offset="0.8993" stop-color="#F8D68A"/>
<stop offset="0.9294" stop-color="#FFF5B7"/>
</linearGradient>
<linearGradient id="paint5_linear" x1="193.25" y1="73.224" x2="172.549" y2="91.0635" gradientUnits="userSpaceOnUse">
<stop stop-color="#DD8E19"/>
<stop offset="1" stop-color="#FFEDA5"/>
</linearGradient>
<linearGradient id="paint6_linear" x1="47.84" y1="49.8092" x2="62.6674" y2="38.7204" gradientUnits="userSpaceOnUse">
<stop offset="0.074" stop-color="#FFF5B7"/>
<stop offset="0.228" stop-color="#E79127"/>
<stop offset="0.2507" stop-color="#D58326"/>
<stop offset="0.2976" stop-color="#B66A25"/>
<stop offset="0.3491" stop-color="#9D5524"/>
<stop offset="0.4061" stop-color="#894623"/>
<stop offset="0.4716" stop-color="#7B3A22"/>
<stop offset="0.5528" stop-color="#733422"/>
<stop offset="0.6982" stop-color="#713222"/>
<stop offset="0.7307" stop-color="#743422"/>
<stop offset="0.7531" stop-color="#7D3C23"/>
<stop offset="0.7725" stop-color="#8C4823"/>
<stop offset="0.7902" stop-color="#A25924"/>
<stop offset="0.8067" stop-color="#BE7025"/>
<stop offset="0.8221" stop-color="#E08B27"/>
<stop offset="0.8249" stop-color="#E79127"/>
<stop offset="0.8485" stop-color="#ECA443"/>
<stop offset="0.8993" stop-color="#F8D68A"/>
<stop offset="0.9294" stop-color="#FFF5B7"/>
</linearGradient>
<linearGradient id="paint7_linear" x1="48.6088" y1="35.1745" x2="69.3096" y2="53.0141" gradientUnits="userSpaceOnUse">
<stop stop-color="#DD8E19"/>
<stop offset="1" stop-color="#FFEDA5"/>
</linearGradient>
<linearGradient id="paint8_linear" x1="101.356" y1="99.5777" x2="78.8689" y2="82.7603" gradientUnits="userSpaceOnUse">
<stop offset="0.074" stop-color="#FFF5B7"/>
<stop offset="0.228" stop-color="#E79127"/>
<stop offset="0.2507" stop-color="#D58326"/>
<stop offset="0.2976" stop-color="#B66A25"/>
<stop offset="0.3491" stop-color="#9D5524"/>
<stop offset="0.4061" stop-color="#894623"/>
<stop offset="0.4716" stop-color="#7B3A22"/>
<stop offset="0.5528" stop-color="#733422"/>
<stop offset="0.6982" stop-color="#713222"/>
<stop offset="0.7307" stop-color="#743422"/>
<stop offset="0.7531" stop-color="#7D3C23"/>
<stop offset="0.7725" stop-color="#8C4823"/>
<stop offset="0.7902" stop-color="#A25924"/>
<stop offset="0.8067" stop-color="#BE7025"/>
<stop offset="0.8221" stop-color="#E08B27"/>
<stop offset="0.8249" stop-color="#E79127"/>
<stop offset="0.8485" stop-color="#ECA443"/>
<stop offset="0.8993" stop-color="#F8D68A"/>
<stop offset="0.9294" stop-color="#FFF5B7"/>
</linearGradient>
<linearGradient id="paint9_linear" x1="100.196" y1="77.3804" x2="68.8007" y2="104.436" gradientUnits="userSpaceOnUse">
<stop stop-color="#DD8E19"/>
<stop offset="1" stop-color="#FFEDA5"/>
</linearGradient>
<linearGradient id="paint10_linear" x1="200.657" y1="50.7695" x2="213.893" y2="40.8708" gradientUnits="userSpaceOnUse">
<stop offset="0.074" stop-color="#FFF5B7"/>
<stop offset="0.228" stop-color="#E79127"/>
<stop offset="0.2507" stop-color="#D58326"/>
<stop offset="0.2976" stop-color="#B66A25"/>
<stop offset="0.3491" stop-color="#9D5524"/>
<stop offset="0.4061" stop-color="#894623"/>
<stop offset="0.4716" stop-color="#7B3A22"/>
<stop offset="0.5528" stop-color="#733422"/>
<stop offset="0.6982" stop-color="#713222"/>
<stop offset="0.7307" stop-color="#743422"/>
<stop offset="0.7531" stop-color="#7D3C23"/>
<stop offset="0.7725" stop-color="#8C4823"/>
<stop offset="0.7902" stop-color="#A25924"/>
<stop offset="0.8067" stop-color="#BE7025"/>
<stop offset="0.8221" stop-color="#E08B27"/>
<stop offset="0.8249" stop-color="#E79127"/>
<stop offset="0.8485" stop-color="#ECA443"/>
<stop offset="0.8993" stop-color="#F8D68A"/>
<stop offset="0.9294" stop-color="#FFF5B7"/>
</linearGradient>
<linearGradient id="paint11_linear" x1="201.348" y1="37.7091" x2="219.827" y2="53.634" gradientUnits="userSpaceOnUse">
<stop stop-color="#DD8E19"/>
<stop offset="1" stop-color="#FFEDA5"/>
</linearGradient>
<linearGradient id="paint12_linear" x1="49.2975" y1="118.518" x2="33.7181" y2="124.261" gradientUnits="userSpaceOnUse">
<stop offset="0.074" stop-color="#FFF5B7"/>
<stop offset="0.228" stop-color="#E79127"/>
<stop offset="0.2507" stop-color="#D58326"/>
<stop offset="0.2976" stop-color="#B66A25"/>
<stop offset="0.3491" stop-color="#9D5524"/>
<stop offset="0.4061" stop-color="#894623"/>
<stop offset="0.4716" stop-color="#7B3A22"/>
<stop offset="0.5528" stop-color="#733422"/>
<stop offset="0.6982" stop-color="#713222"/>
<stop offset="0.7307" stop-color="#743422"/>
<stop offset="0.7531" stop-color="#7D3C23"/>
<stop offset="0.7725" stop-color="#8C4823"/>
<stop offset="0.7902" stop-color="#A25924"/>
<stop offset="0.8067" stop-color="#BE7025"/>
<stop offset="0.8221" stop-color="#E08B27"/>
<stop offset="0.8249" stop-color="#E79127"/>
<stop offset="0.8485" stop-color="#ECA443"/>
<stop offset="0.8993" stop-color="#F8D68A"/>
<stop offset="0.9294" stop-color="#FFF5B7"/>
</linearGradient>
<linearGradient id="paint13_linear" x1="37.845" y1="111.798" x2="40.4576" y2="135.783" gradientUnits="userSpaceOnUse">
<stop stop-color="#DD8E19"/>
<stop offset="1" stop-color="#FFEDA5"/>
</linearGradient>
<linearGradient id="paint14_linear" x1="151.073" y1="59.4589" x2="116.446" y2="68.8143" gradientUnits="userSpaceOnUse">
<stop offset="0.074" stop-color="#FFF5B7"/>
<stop offset="0.228" stop-color="#E79127"/>
<stop offset="0.2507" stop-color="#D58326"/>
<stop offset="0.2976" stop-color="#B66A25"/>
<stop offset="0.3491" stop-color="#9D5524"/>
<stop offset="0.4061" stop-color="#894623"/>
<stop offset="0.4716" stop-color="#7B3A22"/>
<stop offset="0.5528" stop-color="#733422"/>
<stop offset="0.6982" stop-color="#713222"/>
<stop offset="0.7307" stop-color="#743422"/>
<stop offset="0.7531" stop-color="#7D3C23"/>
<stop offset="0.7725" stop-color="#8C4823"/>
<stop offset="0.7902" stop-color="#A25924"/>
<stop offset="0.8067" stop-color="#BE7025"/>
<stop offset="0.8221" stop-color="#E08B27"/>
<stop offset="0.8249" stop-color="#E79127"/>
<stop offset="0.8485" stop-color="#ECA443"/>
<stop offset="0.8993" stop-color="#F8D68A"/>
<stop offset="0.9294" stop-color="#FFF5B7"/>
</linearGradient>
<linearGradient id="paint15_linear" x1="127.775" y1="42.8819" x2="128.933" y2="94.9237" gradientUnits="userSpaceOnUse">
<stop stop-color="#DD8E19"/>
<stop offset="1" stop-color="#FFEDA5"/>
</linearGradient>
<linearGradient id="paint16_linear" x1="31.4157" y1="63.4266" x2="11.0339" y2="68.9331" gradientUnits="userSpaceOnUse">
<stop offset="0.074" stop-color="#FFF5B7"/>
<stop offset="0.228" stop-color="#E79127"/>
<stop offset="0.2507" stop-color="#D58326"/>
<stop offset="0.2976" stop-color="#B66A25"/>
<stop offset="0.3491" stop-color="#9D5524"/>
<stop offset="0.4061" stop-color="#894623"/>
<stop offset="0.4716" stop-color="#7B3A22"/>
<stop offset="0.5528" stop-color="#733422"/>
<stop offset="0.6982" stop-color="#713222"/>
<stop offset="0.7307" stop-color="#743422"/>
<stop offset="0.7531" stop-color="#7D3C23"/>
<stop offset="0.7725" stop-color="#8C4823"/>
<stop offset="0.7902" stop-color="#A25924"/>
<stop offset="0.8067" stop-color="#BE7025"/>
<stop offset="0.8221" stop-color="#E08B27"/>
<stop offset="0.8249" stop-color="#E79127"/>
<stop offset="0.8485" stop-color="#ECA443"/>
<stop offset="0.8993" stop-color="#F8D68A"/>
<stop offset="0.9294" stop-color="#FFF5B7"/>
</linearGradient>
<linearGradient id="paint17_linear" x1="17.6943" y1="53.6737" x2="18.3759" y2="84.3055" gradientUnits="userSpaceOnUse">
<stop stop-color="#DD8E19"/>
<stop offset="1" stop-color="#FFEDA5"/>
</linearGradient>
</defs>
</svg>
