<svg width="23" height="23" viewBox="0 0 23 23" fill="none" xmlns="http://www.w3.org/2000/svg">
<path d="M22.4685 2.62594C22.8179 2.27659 22.8179 1.71019 22.4685 1.36084L21.3697 0.26201C21.0204 -0.0873363 20.454 -0.087336 20.1046 0.26201L11.9978 8.3688C11.6485 8.71815 11.0821 8.71815 10.7327 8.3688L2.62594 0.26201C2.27659 -0.0873358 1.71019 -0.087336 1.36084 0.26201L0.26201 1.36084C-0.0873363 1.71019 -0.087336 2.27659 0.26201 2.62594L8.3688 10.7327C8.71815 11.0821 8.71815 11.6485 8.3688 11.9978L0.26201 20.1046C-0.0873358 20.454 -0.087336 21.0204 0.26201 21.3697L1.36084 22.4685C1.71019 22.8179 2.27659 22.8179 2.62594 22.4685L10.7327 14.3618C11.0821 14.0124 11.6485 14.0124 11.9978 14.3618L20.1046 22.4685C20.454 22.8179 21.0204 22.8179 21.3697 22.4685L22.4685 21.3697C22.8179 21.0204 22.8179 20.454 22.4685 20.1046L14.3618 11.9978C14.0124 11.6485 14.0124 11.0821 14.3618 10.7327L22.4685 2.62594Z" fill="#F52079"/>
</svg>
