<svg width="21" height="21" viewBox="0 0 21 21" fill="none" xmlns="http://www.w3.org/2000/svg">
<path d="M15.25 16.0427C15.25 16.3941 14.9651 16.679 14.6136 16.679L5.88637 16.679C5.53491 16.679 5.25 16.3941 5.25 16.0427C5.25 15.6912 5.53491 15.4063 5.88637 15.4063L14.6136 15.4063C14.9651 15.4063 15.25 15.6912 15.25 16.0427Z" fill="white"/>
<path fill-rule="evenodd" clip-rule="evenodd" d="M14.8203 9.87012C15.0589 9.62727 15.0589 9.23811 14.8203 8.99526C14.5757 8.74614 14.1742 8.74614 13.9296 8.99526L10.875 12.1054L10.875 4.73108C10.875 4.3859 10.5951 4.10608 10.25 4.10608C9.90478 4.10608 9.62496 4.3859 9.62496 4.73108L9.62496 12.1054L6.57034 8.99526C6.32567 8.74614 5.92425 8.74614 5.67958 8.99526C5.44106 9.23811 5.44106 9.62727 5.67958 9.87012L9.51009 13.7703C9.91653 14.1841 10.5834 14.1841 10.9898 13.7703L14.8203 9.87012Z" fill="white"/>
</svg>
