<svg width="424" height="58" viewBox="0 0 424 58" fill="none" xmlns="http://www.w3.org/2000/svg">
<rect x="1.26318" y="1.44141" width="422.03" height="56" rx="28" fill="#4048FF"/>
<path d="M77.9702 31.1739V36.0249H74.9282V22.9119H79.1942C80.1422 22.9119 80.9492 23.0109 81.6152 23.2089C82.2872 23.4009 82.8332 23.6709 83.2532 24.0189C83.6792 24.3669 83.9882 24.7779 84.1802 25.2519C84.3722 25.7259 84.4682 26.2419 84.4682 26.7999C84.4682 27.2259 84.4112 27.6279 84.2972 28.0059C84.1832 28.3839 84.0122 28.7349 83.7842 29.0589C83.5622 29.3769 83.2862 29.6619 82.9562 29.9139C82.6322 30.1659 82.2572 30.3729 81.8312 30.5349C82.0352 30.6369 82.2242 30.7629 82.3982 30.9129C82.5782 31.0629 82.7342 31.2459 82.8662 31.4619L85.6562 36.0249H82.9022C82.3922 36.0249 82.0262 35.8329 81.8042 35.4489L79.6262 31.6419C79.5302 31.4739 79.4162 31.3539 79.2842 31.2819C79.1582 31.2099 78.9782 31.1739 78.7442 31.1739H77.9702ZM77.9702 29.0769H79.1942C79.6082 29.0769 79.9592 29.0259 80.2472 28.9239C80.5412 28.8159 80.7812 28.6689 80.9672 28.4829C81.1532 28.2969 81.2882 28.0809 81.3722 27.8349C81.4562 27.5829 81.4982 27.3129 81.4982 27.0249C81.4982 26.4489 81.3092 25.9989 80.9312 25.6749C80.5592 25.3509 79.9802 25.1889 79.1942 25.1889H77.9702V29.0769ZM91.4349 26.5479C92.0529 26.5479 92.6169 26.6439 93.1269 26.8359C93.6429 27.0279 94.0839 27.3069 94.4499 27.6729C94.8219 28.0389 95.1099 28.4889 95.3139 29.0229C95.5239 29.5509 95.6289 30.1509 95.6289 30.8229C95.6289 31.0329 95.6199 31.2039 95.6019 31.3359C95.5839 31.4679 95.5509 31.5729 95.5029 31.6509C95.4549 31.7289 95.3889 31.7829 95.3049 31.8129C95.2269 31.8429 95.1249 31.8579 94.9989 31.8579H89.6169C89.7069 32.6379 89.9439 33.2049 90.3279 33.5589C90.7119 33.9069 91.2069 34.0809 91.8129 34.0809C92.1369 34.0809 92.4159 34.0419 92.6499 33.9639C92.8839 33.8859 93.0909 33.7989 93.2709 33.7029C93.4569 33.6069 93.6249 33.5199 93.7749 33.4419C93.9309 33.3639 94.0929 33.3249 94.2609 33.3249C94.4829 33.3249 94.6509 33.4059 94.7649 33.5679L95.5749 34.5669C95.2869 34.8969 94.9749 35.1669 94.6389 35.3769C94.3089 35.5809 93.9669 35.7429 93.6129 35.8629C93.2649 35.9769 92.9139 36.0549 92.5599 36.0969C92.2119 36.1449 91.8789 36.1689 91.5609 36.1689C90.9069 36.1689 90.2919 36.0639 89.7159 35.8539C89.1459 35.6379 88.6449 35.3199 88.2129 34.8999C87.7869 34.4799 87.4479 33.9579 87.1959 33.3339C86.9499 32.7099 86.8269 31.9839 86.8269 31.1559C86.8269 30.5319 86.9319 29.9409 87.1419 29.3829C87.3579 28.8249 87.6639 28.3359 88.0599 27.9159C88.4619 27.4959 88.9449 27.1629 89.5089 26.9169C90.0789 26.6709 90.7209 26.5479 91.4349 26.5479ZM91.4889 28.4739C90.9549 28.4739 90.5379 28.6269 90.2379 28.9329C89.9379 29.2329 89.7399 29.6679 89.6439 30.2379H93.1269C93.1269 30.0159 93.0969 29.7999 93.0369 29.5899C92.9829 29.3799 92.8899 29.1939 92.7579 29.0319C92.6319 28.8639 92.4639 28.7289 92.2539 28.6269C92.0439 28.5249 91.7889 28.4739 91.4889 28.4739ZM95.0709 22.7679L92.7309 25.1349C92.5929 25.2729 92.4609 25.3719 92.3349 25.4319C92.2089 25.4859 92.0409 25.5129 91.8309 25.5129H90.1569L91.3809 23.3079C91.4829 23.1339 91.6029 23.0019 91.7409 22.9119C91.8789 22.8159 92.0889 22.7679 92.3709 22.7679H95.0709ZM100.65 26.6919V36.0249H97.86V26.6919H100.65ZM100.974 24.1359C100.974 24.3579 100.929 24.5679 100.839 24.7659C100.749 24.9579 100.626 25.1289 100.47 25.2789C100.314 25.4229 100.131 25.5399 99.921 25.6299C99.717 25.7139 99.498 25.7559 99.264 25.7559C99.036 25.7559 98.823 25.7139 98.625 25.6299C98.427 25.5399 98.25 25.4229 98.094 25.2789C97.944 25.1289 97.824 24.9579 97.734 24.7659C97.65 24.5679 97.608 24.3579 97.608 24.1359C97.608 23.9079 97.65 23.6949 97.734 23.4969C97.824 23.2989 97.944 23.1249 98.094 22.9749C98.25 22.8249 98.427 22.7079 98.625 22.6239C98.823 22.5399 99.036 22.4979 99.264 22.4979C99.498 22.4979 99.717 22.5399 99.921 22.6239C100.131 22.7079 100.314 22.8249 100.47 22.9749C100.626 23.1249 100.749 23.2989 100.839 23.4969C100.929 23.6949 100.974 23.9079 100.974 24.1359ZM103.443 36.0249V26.6919H105.171C105.345 26.6919 105.489 26.7309 105.603 26.8089C105.723 26.8869 105.807 27.0039 105.855 27.1599L106.017 27.6999C106.197 27.5319 106.383 27.3759 106.575 27.2319C106.767 27.0879 106.971 26.9679 107.187 26.8719C107.409 26.7699 107.646 26.6919 107.898 26.6379C108.156 26.5779 108.435 26.5479 108.735 26.5479C109.245 26.5479 109.695 26.6379 110.085 26.8179C110.481 26.9919 110.814 27.2379 111.084 27.5559C111.354 27.8679 111.558 28.2429 111.696 28.6809C111.834 29.1129 111.903 29.5839 111.903 30.0939V36.0249H109.113V30.0939C109.113 29.6379 109.008 29.2839 108.798 29.0319C108.588 28.7739 108.279 28.6449 107.871 28.6449C107.565 28.6449 107.277 28.7109 107.007 28.8429C106.737 28.9749 106.479 29.1519 106.233 29.3739V36.0249H103.443ZM117.304 26.6919V36.0249H114.514V26.6919H117.304ZM117.628 24.1359C117.628 24.3579 117.583 24.5679 117.493 24.7659C117.403 24.9579 117.28 25.1289 117.124 25.2789C116.968 25.4229 116.785 25.5399 116.575 25.6299C116.371 25.7139 116.152 25.7559 115.918 25.7559C115.69 25.7559 115.477 25.7139 115.279 25.6299C115.081 25.5399 114.904 25.4229 114.748 25.2789C114.598 25.1289 114.478 24.9579 114.388 24.7659C114.304 24.5679 114.262 24.3579 114.262 24.1359C114.262 23.9079 114.304 23.6949 114.388 23.4969C114.478 23.2989 114.598 23.1249 114.748 22.9749C114.904 22.8249 115.081 22.7079 115.279 22.6239C115.477 22.5399 115.69 22.4979 115.918 22.4979C116.152 22.4979 116.371 22.5399 116.575 22.6239C116.785 22.7079 116.968 22.8249 117.124 22.9749C117.28 23.1249 117.403 23.2989 117.493 23.4969C117.583 23.6949 117.628 23.9079 117.628 24.1359ZM123.373 36.1689C122.929 36.1689 122.536 36.1059 122.194 35.9799C121.858 35.8479 121.573 35.6649 121.339 35.4309C121.111 35.1909 120.937 34.9029 120.817 34.5669C120.697 34.2309 120.637 33.8559 120.637 33.4419V28.6179H119.845C119.701 28.6179 119.578 28.5729 119.476 28.4829C119.374 28.3869 119.323 28.2489 119.323 28.0689V26.9799L120.808 26.6919L121.357 24.4149C121.429 24.1269 121.633 23.9829 121.969 23.9829H123.427V26.7099H125.695V28.6179H123.427V33.2529C123.427 33.4689 123.478 33.6489 123.58 33.7929C123.688 33.9309 123.841 33.9999 124.039 33.9999C124.141 33.9999 124.225 33.9909 124.291 33.9729C124.363 33.9489 124.423 33.9249 124.471 33.9009C124.525 33.8709 124.573 33.8469 124.615 33.8289C124.663 33.8049 124.717 33.7929 124.777 33.7929C124.861 33.7929 124.927 33.8139 124.975 33.8559C125.029 33.8919 125.083 33.9519 125.137 34.0359L125.983 35.3589C125.623 35.6289 125.218 35.8329 124.768 35.9709C124.318 36.1029 123.853 36.1689 123.373 36.1689ZM130.724 26.6919V36.0249H127.934V26.6919H130.724ZM131.048 24.1359C131.048 24.3579 131.003 24.5679 130.913 24.7659C130.823 24.9579 130.7 25.1289 130.544 25.2789C130.388 25.4229 130.205 25.5399 129.995 25.6299C129.791 25.7139 129.572 25.7559 129.338 25.7559C129.11 25.7559 128.897 25.7139 128.699 25.6299C128.501 25.5399 128.324 25.4229 128.168 25.2789C128.018 25.1289 127.898 24.9579 127.808 24.7659C127.724 24.5679 127.682 24.3579 127.682 24.1359C127.682 23.9079 127.724 23.6949 127.808 23.4969C127.898 23.2989 128.018 23.1249 128.168 22.9749C128.324 22.8249 128.501 22.7079 128.699 22.6239C128.897 22.5399 129.11 22.4979 129.338 22.4979C129.572 22.4979 129.791 22.5399 129.995 22.6239C130.205 22.7079 130.388 22.8249 130.544 22.9749C130.7 23.1249 130.823 23.2989 130.913 23.4969C131.003 23.6949 131.048 23.9079 131.048 24.1359ZM139.961 36.0249C139.697 36.0249 139.496 35.9889 139.358 35.9169C139.226 35.8449 139.115 35.6949 139.025 35.4669L138.827 34.9539C138.593 35.1519 138.368 35.3259 138.152 35.4759C137.936 35.6259 137.711 35.7549 137.477 35.8629C137.249 35.9649 137.003 36.0399 136.739 36.0879C136.481 36.1419 136.193 36.1689 135.875 36.1689C135.449 36.1689 135.062 36.1149 134.714 36.0069C134.366 35.8929 134.069 35.7279 133.823 35.5119C133.583 35.2959 133.397 35.0289 133.265 34.7109C133.133 34.3869 133.067 34.0149 133.067 33.5949C133.067 33.2649 133.151 32.9259 133.319 32.5779C133.487 32.2299 133.778 31.9149 134.192 31.6329C134.606 31.3449 135.164 31.1049 135.866 30.9129C136.568 30.7209 137.453 30.6129 138.521 30.5889V30.1929C138.521 29.6469 138.407 29.2539 138.179 29.0139C137.957 28.7679 137.639 28.6449 137.225 28.6449C136.895 28.6449 136.625 28.6809 136.415 28.7529C136.205 28.8249 136.016 28.9059 135.848 28.9959C135.686 29.0859 135.527 29.1669 135.371 29.2389C135.215 29.3109 135.029 29.3469 134.813 29.3469C134.621 29.3469 134.456 29.3019 134.318 29.2119C134.186 29.1159 134.081 28.9989 134.003 28.8609L133.499 27.9879C134.063 27.4899 134.687 27.1209 135.371 26.8809C136.061 26.6349 136.799 26.5119 137.585 26.5119C138.149 26.5119 138.656 26.6049 139.106 26.7909C139.562 26.9709 139.946 27.2259 140.258 27.5559C140.576 27.8799 140.819 28.2669 140.987 28.7169C141.155 29.1669 141.239 29.6589 141.239 30.1929V36.0249H139.961ZM136.757 34.3239C137.117 34.3239 137.432 34.2609 137.702 34.1349C137.972 34.0089 138.245 33.8049 138.521 33.5229V32.2269C137.963 32.2509 137.504 32.2989 137.144 32.3709C136.784 32.4429 136.499 32.5329 136.289 32.6409C136.079 32.7489 135.932 32.8719 135.848 33.0099C135.77 33.1479 135.731 33.2979 135.731 33.4599C135.731 33.7779 135.818 34.0029 135.992 34.1349C136.166 34.2609 136.421 34.3239 136.757 34.3239ZM146.64 22.5519V36.0249H143.85V22.5519H146.64ZM152.313 26.6919V36.0249H149.523V26.6919H152.313ZM152.637 24.1359C152.637 24.3579 152.592 24.5679 152.502 24.7659C152.412 24.9579 152.289 25.1289 152.133 25.2789C151.977 25.4229 151.794 25.5399 151.584 25.6299C151.38 25.7139 151.161 25.7559 150.927 25.7559C150.699 25.7559 150.486 25.7139 150.288 25.6299C150.09 25.5399 149.913 25.4229 149.757 25.2789C149.607 25.1289 149.487 24.9579 149.397 24.7659C149.313 24.5679 149.271 24.3579 149.271 24.1359C149.271 23.9079 149.313 23.6949 149.397 23.4969C149.487 23.2989 149.607 23.1249 149.757 22.9749C149.913 22.8249 150.09 22.7079 150.288 22.6239C150.486 22.5399 150.699 22.4979 150.927 22.4979C151.161 22.4979 151.38 22.5399 151.584 22.6239C151.794 22.7079 151.977 22.8249 152.133 22.9749C152.289 23.1249 152.412 23.2989 152.502 23.4969C152.592 23.6949 152.637 23.9079 152.637 24.1359ZM160.812 28.7349C160.74 28.8489 160.662 28.9299 160.578 28.9779C160.5 29.0259 160.398 29.0499 160.272 29.0499C160.14 29.0499 160.008 29.0229 159.876 28.9689C159.744 28.9089 159.6 28.8459 159.444 28.7799C159.294 28.7139 159.123 28.6539 158.931 28.5999C158.739 28.5399 158.52 28.5099 158.274 28.5099C157.92 28.5099 157.647 28.5789 157.455 28.7169C157.269 28.8489 157.176 29.0349 157.176 29.2749C157.176 29.4489 157.236 29.5929 157.356 29.7069C157.482 29.8209 157.647 29.9229 157.851 30.0129C158.055 30.0969 158.286 30.1779 158.544 30.2559C158.802 30.3339 159.066 30.4209 159.336 30.5169C159.606 30.6129 159.87 30.7269 160.128 30.8589C160.386 30.9849 160.617 31.1439 160.821 31.3359C161.025 31.5219 161.187 31.7499 161.307 32.0199C161.433 32.2899 161.496 32.6139 161.496 32.9919C161.496 33.4539 161.412 33.8799 161.244 34.2699C161.076 34.6599 160.824 34.9959 160.488 35.2779C160.158 35.5599 159.747 35.7789 159.255 35.9349C158.769 36.0909 158.208 36.1689 157.572 36.1689C157.254 36.1689 156.936 36.1389 156.618 36.0789C156.3 36.0189 155.991 35.9379 155.691 35.8359C155.397 35.7339 155.124 35.6139 154.872 35.4759C154.62 35.3319 154.404 35.1789 154.224 35.0169L154.872 33.9909C154.95 33.8709 155.043 33.7779 155.151 33.7119C155.259 33.6399 155.4 33.6039 155.574 33.6039C155.736 33.6039 155.88 33.6399 156.006 33.7119C156.138 33.7839 156.279 33.8619 156.429 33.9459C156.579 34.0299 156.753 34.1079 156.951 34.1799C157.155 34.2519 157.41 34.2879 157.716 34.2879C157.932 34.2879 158.115 34.2669 158.265 34.2249C158.415 34.1769 158.535 34.1139 158.625 34.0359C158.715 33.9579 158.781 33.8709 158.823 33.7749C158.865 33.6789 158.886 33.5799 158.886 33.4779C158.886 33.2919 158.823 33.1389 158.697 33.0189C158.571 32.8989 158.406 32.7969 158.202 32.7129C157.998 32.6229 157.764 32.5419 157.5 32.4699C157.242 32.3919 156.978 32.3049 156.708 32.2089C156.438 32.1129 156.171 31.9989 155.907 31.8669C155.649 31.7289 155.418 31.5579 155.214 31.3539C155.01 31.1439 154.845 30.8889 154.719 30.5889C154.593 30.2889 154.53 29.9259 154.53 29.4999C154.53 29.1039 154.605 28.7289 154.755 28.3749C154.911 28.0149 155.142 27.6999 155.448 27.4299C155.754 27.1599 156.138 26.9469 156.6 26.7909C157.062 26.6289 157.602 26.5479 158.22 26.5479C158.556 26.5479 158.88 26.5779 159.192 26.6379C159.51 26.6979 159.807 26.7819 160.083 26.8899C160.359 26.9979 160.611 27.1269 160.839 27.2769C161.067 27.4209 161.268 27.5799 161.442 27.7539L160.812 28.7349ZM167.569 26.5479C168.187 26.5479 168.751 26.6439 169.261 26.8359C169.777 27.0279 170.218 27.3069 170.584 27.6729C170.956 28.0389 171.244 28.4889 171.448 29.0229C171.658 29.5509 171.763 30.1509 171.763 30.8229C171.763 31.0329 171.754 31.2039 171.736 31.3359C171.718 31.4679 171.685 31.5729 171.637 31.6509C171.589 31.7289 171.523 31.7829 171.439 31.8129C171.361 31.8429 171.259 31.8579 171.133 31.8579H165.751C165.841 32.6379 166.078 33.2049 166.462 33.5589C166.846 33.9069 167.341 34.0809 167.947 34.0809C168.271 34.0809 168.55 34.0419 168.784 33.9639C169.018 33.8859 169.225 33.7989 169.405 33.7029C169.591 33.6069 169.759 33.5199 169.909 33.4419C170.065 33.3639 170.227 33.3249 170.395 33.3249C170.617 33.3249 170.785 33.4059 170.899 33.5679L171.709 34.5669C171.421 34.8969 171.109 35.1669 170.773 35.3769C170.443 35.5809 170.101 35.7429 169.747 35.8629C169.399 35.9769 169.048 36.0549 168.694 36.0969C168.346 36.1449 168.013 36.1689 167.695 36.1689C167.041 36.1689 166.426 36.0639 165.85 35.8539C165.28 35.6379 164.779 35.3199 164.347 34.8999C163.921 34.4799 163.582 33.9579 163.33 33.3339C163.084 32.7099 162.961 31.9839 162.961 31.1559C162.961 30.5319 163.066 29.9409 163.276 29.3829C163.492 28.8249 163.798 28.3359 164.194 27.9159C164.596 27.4959 165.079 27.1629 165.643 26.9169C166.213 26.6709 166.855 26.5479 167.569 26.5479ZM167.623 28.4739C167.089 28.4739 166.672 28.6269 166.372 28.9329C166.072 29.2329 165.874 29.6679 165.778 30.2379H169.261C169.261 30.0159 169.231 29.7999 169.171 29.5899C169.117 29.3799 169.024 29.1939 168.892 29.0319C168.766 28.8639 168.598 28.7289 168.388 28.6269C168.178 28.5249 167.923 28.4739 167.623 28.4739ZM180.87 27.8079C180.87 27.9999 180.834 28.1829 180.762 28.3569C180.69 28.5309 180.606 28.6809 180.51 28.8069L176.613 33.9549H180.78V36.0249H173.4V34.8909C173.4 34.7769 173.43 34.6359 173.49 34.4679C173.556 34.2939 173.646 34.1289 173.76 33.9729L177.693 28.7619H173.652V26.6919H180.87V27.8079ZM192.209 36.0249H189.671L186.053 26.6919H188.375C188.573 26.6919 188.738 26.7399 188.87 26.8359C189.008 26.9259 189.101 27.0399 189.149 27.1779L190.445 31.3629C190.547 31.7049 190.643 32.0379 190.733 32.3619C190.829 32.6859 190.91 33.0099 190.976 33.3339C191.042 33.0099 191.123 32.6859 191.219 32.3619C191.315 32.0379 191.417 31.7049 191.525 31.3629L192.875 27.1779C192.923 27.0399 193.013 26.9259 193.145 26.8359C193.277 26.7399 193.433 26.6919 193.613 26.6919H195.827L192.209 36.0249ZM201.339 26.5479C202.047 26.5479 202.692 26.6589 203.274 26.8809C203.856 27.1029 204.354 27.4209 204.768 27.8349C205.188 28.2489 205.512 28.7529 205.74 29.3469C205.974 29.9349 206.091 30.5979 206.091 31.3359C206.091 32.0799 205.974 32.7519 205.74 33.3519C205.512 33.9459 205.188 34.4529 204.768 34.8729C204.354 35.2869 203.856 35.6079 203.274 35.8359C202.692 36.0579 202.047 36.1689 201.339 36.1689C200.625 36.1689 199.974 36.0579 199.386 35.8359C198.804 35.6079 198.3 35.2869 197.874 34.8729C197.454 34.4529 197.127 33.9459 196.893 33.3519C196.665 32.7519 196.551 32.0799 196.551 31.3359C196.551 30.5979 196.665 29.9349 196.893 29.3469C197.127 28.7529 197.454 28.2489 197.874 27.8349C198.3 27.4209 198.804 27.1029 199.386 26.8809C199.974 26.6589 200.625 26.5479 201.339 26.5479ZM201.339 34.0989C201.981 34.0989 202.452 33.8739 202.752 33.4239C203.058 32.9679 203.211 32.2779 203.211 31.3539C203.211 30.4299 203.058 29.7429 202.752 29.2929C202.452 28.8429 201.981 28.6179 201.339 28.6179C200.679 28.6179 200.196 28.8429 199.89 29.2929C199.584 29.7429 199.431 30.4299 199.431 31.3539C199.431 32.2779 199.584 32.9679 199.89 33.4239C200.196 33.8739 200.679 34.0989 201.339 34.0989ZM211.438 36.1689C210.994 36.1689 210.601 36.1059 210.259 35.9799C209.923 35.8479 209.638 35.6649 209.404 35.4309C209.176 35.1909 209.002 34.9029 208.882 34.5669C208.762 34.2309 208.702 33.8559 208.702 33.4419V28.6179H207.91C207.766 28.6179 207.643 28.5729 207.541 28.4829C207.439 28.3869 207.388 28.2489 207.388 28.0689V26.9799L208.873 26.6919L209.422 24.4149C209.494 24.1269 209.698 23.9829 210.034 23.9829H211.492V26.7099H213.76V28.6179H211.492V33.2529C211.492 33.4689 211.543 33.6489 211.645 33.7929C211.753 33.9309 211.906 33.9999 212.104 33.9999C212.206 33.9999 212.29 33.9909 212.356 33.9729C212.428 33.9489 212.488 33.9249 212.536 33.9009C212.59 33.8709 212.638 33.8469 212.68 33.8289C212.728 33.8049 212.782 33.7929 212.842 33.7929C212.926 33.7929 212.992 33.8139 213.04 33.8559C213.094 33.8919 213.148 33.9519 213.202 34.0359L214.048 35.3589C213.688 35.6289 213.283 35.8329 212.833 35.9709C212.383 36.1029 211.918 36.1689 211.438 36.1689ZM215.909 36.0249V26.6919H217.565C217.703 26.6919 217.817 26.7039 217.907 26.7279C218.003 26.7519 218.081 26.7909 218.141 26.8449C218.207 26.8929 218.255 26.9589 218.285 27.0429C218.321 27.1269 218.351 27.2289 218.375 27.3489L218.528 28.2219C218.87 27.6939 219.254 27.2769 219.68 26.9709C220.106 26.6649 220.571 26.5119 221.075 26.5119C221.501 26.5119 221.843 26.6139 222.101 26.8179L221.741 28.8699C221.717 28.9959 221.669 29.0859 221.597 29.1399C221.525 29.1879 221.429 29.2119 221.309 29.2119C221.207 29.2119 221.087 29.1999 220.949 29.1759C220.811 29.1459 220.637 29.1309 220.427 29.1309C219.695 29.1309 219.119 29.5209 218.699 30.3009V36.0249H215.909ZM227.881 26.5479C228.499 26.5479 229.063 26.6439 229.573 26.8359C230.089 27.0279 230.53 27.3069 230.896 27.6729C231.268 28.0389 231.556 28.4889 231.76 29.0229C231.97 29.5509 232.075 30.1509 232.075 30.8229C232.075 31.0329 232.066 31.2039 232.048 31.3359C232.03 31.4679 231.997 31.5729 231.949 31.6509C231.901 31.7289 231.835 31.7829 231.751 31.8129C231.673 31.8429 231.571 31.8579 231.445 31.8579H226.063C226.153 32.6379 226.39 33.2049 226.774 33.5589C227.158 33.9069 227.653 34.0809 228.259 34.0809C228.583 34.0809 228.862 34.0419 229.096 33.9639C229.33 33.8859 229.537 33.7989 229.717 33.7029C229.903 33.6069 230.071 33.5199 230.221 33.4419C230.377 33.3639 230.539 33.3249 230.707 33.3249C230.929 33.3249 231.097 33.4059 231.211 33.5679L232.021 34.5669C231.733 34.8969 231.421 35.1669 231.085 35.3769C230.755 35.5809 230.413 35.7429 230.059 35.8629C229.711 35.9769 229.36 36.0549 229.006 36.0969C228.658 36.1449 228.325 36.1689 228.007 36.1689C227.353 36.1689 226.738 36.0639 226.162 35.8539C225.592 35.6379 225.091 35.3199 224.659 34.8999C224.233 34.4799 223.894 33.9579 223.642 33.3339C223.396 32.7099 223.273 31.9839 223.273 31.1559C223.273 30.5319 223.378 29.9409 223.588 29.3829C223.804 28.8249 224.11 28.3359 224.506 27.9159C224.908 27.4959 225.391 27.1629 225.955 26.9169C226.525 26.6709 227.167 26.5479 227.881 26.5479ZM227.935 28.4739C227.401 28.4739 226.984 28.6269 226.684 28.9329C226.384 29.2329 226.186 29.6679 226.09 30.2379H229.573C229.573 30.0159 229.543 29.7999 229.483 29.5899C229.429 29.3799 229.336 29.1939 229.204 29.0319C229.078 28.8639 228.91 28.7289 228.7 28.6269C228.49 28.5249 228.235 28.4739 227.935 28.4739ZM238.236 36.0249V26.6919H239.964C240.138 26.6919 240.282 26.7309 240.396 26.8089C240.516 26.8869 240.6 27.0039 240.648 27.1599L240.801 27.6639C240.957 27.5019 241.119 27.3549 241.287 27.2229C241.455 27.0849 241.635 26.9679 241.827 26.8719C242.025 26.7699 242.235 26.6919 242.457 26.6379C242.685 26.5779 242.934 26.5479 243.204 26.5479C243.768 26.5479 244.233 26.6949 244.599 26.9889C244.971 27.2769 245.253 27.6639 245.445 28.1499C245.601 27.8619 245.79 27.6159 246.012 27.4119C246.24 27.2079 246.483 27.0429 246.741 26.9169C247.005 26.7909 247.281 26.6979 247.569 26.6379C247.863 26.5779 248.154 26.5479 248.442 26.5479C248.976 26.5479 249.45 26.6289 249.864 26.7909C250.278 26.9469 250.623 27.1779 250.899 27.4839C251.181 27.7839 251.394 28.1559 251.538 28.5999C251.682 29.0379 251.754 29.5359 251.754 30.0939V36.0249H248.964V30.0939C248.964 29.1279 248.55 28.6449 247.722 28.6449C247.344 28.6449 247.029 28.7709 246.777 29.0229C246.531 29.2689 246.408 29.6259 246.408 30.0939V36.0249H243.618V30.0939C243.618 29.5599 243.513 29.1849 243.303 28.9689C243.093 28.7529 242.784 28.6449 242.376 28.6449C242.124 28.6449 241.884 28.7019 241.656 28.8159C241.434 28.9299 241.224 29.0829 241.026 29.2749V36.0249H238.236ZM258.438 26.5479C259.146 26.5479 259.791 26.6589 260.373 26.8809C260.955 27.1029 261.453 27.4209 261.867 27.8349C262.287 28.2489 262.611 28.7529 262.839 29.3469C263.073 29.9349 263.19 30.5979 263.19 31.3359C263.19 32.0799 263.073 32.7519 262.839 33.3519C262.611 33.9459 262.287 34.4529 261.867 34.8729C261.453 35.2869 260.955 35.6079 260.373 35.8359C259.791 36.0579 259.146 36.1689 258.438 36.1689C257.724 36.1689 257.073 36.0579 256.485 35.8359C255.903 35.6079 255.399 35.2869 254.973 34.8729C254.553 34.4529 254.226 33.9459 253.992 33.3519C253.764 32.7519 253.65 32.0799 253.65 31.3359C253.65 30.5979 253.764 29.9349 253.992 29.3469C254.226 28.7529 254.553 28.2489 254.973 27.8349C255.399 27.4209 255.903 27.1029 256.485 26.8809C257.073 26.6589 257.724 26.5479 258.438 26.5479ZM258.438 34.0989C259.08 34.0989 259.551 33.8739 259.851 33.4239C260.157 32.9679 260.31 32.2779 260.31 31.3539C260.31 30.4299 260.157 29.7429 259.851 29.2929C259.551 28.8429 259.08 28.6179 258.438 28.6179C257.778 28.6179 257.295 28.8429 256.989 29.2929C256.683 29.7429 256.53 30.4299 256.53 31.3539C256.53 32.2779 256.683 32.9679 256.989 33.4239C257.295 33.8739 257.778 34.0989 258.438 34.0989ZM268.537 36.1689C268.093 36.1689 267.7 36.1059 267.358 35.9799C267.022 35.8479 266.737 35.6649 266.503 35.4309C266.275 35.1909 266.101 34.9029 265.981 34.5669C265.861 34.2309 265.801 33.8559 265.801 33.4419V28.6179H265.009C264.865 28.6179 264.742 28.5729 264.64 28.4829C264.538 28.3869 264.487 28.2489 264.487 28.0689V26.9799L265.972 26.6919L266.521 24.4149C266.593 24.1269 266.797 23.9829 267.133 23.9829H268.591V26.7099H270.859V28.6179H268.591V33.2529C268.591 33.4689 268.642 33.6489 268.744 33.7929C268.852 33.9309 269.005 33.9999 269.203 33.9999C269.305 33.9999 269.389 33.9909 269.455 33.9729C269.527 33.9489 269.587 33.9249 269.635 33.9009C269.689 33.8709 269.737 33.8469 269.779 33.8289C269.827 33.8049 269.881 33.7929 269.941 33.7929C270.025 33.7929 270.091 33.8139 270.139 33.8559C270.193 33.8919 270.247 33.9519 270.301 34.0359L271.147 35.3589C270.787 35.6289 270.382 35.8329 269.932 35.9709C269.482 36.1029 269.017 36.1689 268.537 36.1689ZM283.581 36.0249C283.407 36.0249 283.26 35.9859 283.14 35.9079C283.026 35.8299 282.945 35.7129 282.897 35.5569L282.681 34.8459C282.495 35.0439 282.3 35.2239 282.096 35.3859C281.892 35.5479 281.67 35.6889 281.43 35.8089C281.196 35.9229 280.941 36.0099 280.665 36.0699C280.395 36.1359 280.101 36.1689 279.783 36.1689C279.297 36.1689 278.847 36.0609 278.433 35.8449C278.019 35.6289 277.662 35.3169 277.362 34.9089C277.062 34.5009 276.825 34.0029 276.651 33.4149C276.483 32.8209 276.399 32.1459 276.399 31.3899C276.399 30.6939 276.495 30.0489 276.687 29.4549C276.879 28.8549 277.149 28.3389 277.497 27.9069C277.851 27.4689 278.274 27.1269 278.766 26.8809C279.258 26.6349 279.801 26.5119 280.395 26.5119C280.875 26.5119 281.28 26.5839 281.61 26.7279C281.946 26.8659 282.249 27.0489 282.519 27.2769V22.5519H285.309V36.0249H283.581ZM280.755 34.0269C280.959 34.0269 281.142 34.0089 281.304 33.9729C281.472 33.9309 281.625 33.8739 281.763 33.8019C281.901 33.7299 282.03 33.6399 282.15 33.5319C282.276 33.4239 282.399 33.2979 282.519 33.1539V29.1939C282.303 28.9599 282.072 28.7979 281.826 28.7079C281.586 28.6119 281.331 28.5639 281.061 28.5639C280.803 28.5639 280.566 28.6149 280.35 28.7169C280.134 28.8189 279.945 28.9839 279.783 29.2119C279.627 29.4339 279.504 29.7249 279.414 30.0849C279.324 30.4449 279.279 30.8799 279.279 31.3899C279.279 31.8819 279.315 32.2959 279.387 32.6319C279.459 32.9679 279.558 33.2409 279.684 33.4509C279.816 33.6549 279.972 33.8019 280.152 33.8919C280.332 33.9819 280.533 34.0269 280.755 34.0269ZM292.006 26.5479C292.624 26.5479 293.188 26.6439 293.698 26.8359C294.214 27.0279 294.655 27.3069 295.021 27.6729C295.393 28.0389 295.681 28.4889 295.885 29.0229C296.095 29.5509 296.2 30.1509 296.2 30.8229C296.2 31.0329 296.191 31.2039 296.173 31.3359C296.155 31.4679 296.122 31.5729 296.074 31.6509C296.026 31.7289 295.96 31.7829 295.876 31.8129C295.798 31.8429 295.696 31.8579 295.57 31.8579H290.188C290.278 32.6379 290.515 33.2049 290.899 33.5589C291.283 33.9069 291.778 34.0809 292.384 34.0809C292.708 34.0809 292.987 34.0419 293.221 33.9639C293.455 33.8859 293.662 33.7989 293.842 33.7029C294.028 33.6069 294.196 33.5199 294.346 33.4419C294.502 33.3639 294.664 33.3249 294.832 33.3249C295.054 33.3249 295.222 33.4059 295.336 33.5679L296.146 34.5669C295.858 34.8969 295.546 35.1669 295.21 35.3769C294.88 35.5809 294.538 35.7429 294.184 35.8629C293.836 35.9769 293.485 36.0549 293.131 36.0969C292.783 36.1449 292.45 36.1689 292.132 36.1689C291.478 36.1689 290.863 36.0639 290.287 35.8539C289.717 35.6379 289.216 35.3199 288.784 34.8999C288.358 34.4799 288.019 33.9579 287.767 33.3339C287.521 32.7099 287.398 31.9839 287.398 31.1559C287.398 30.5319 287.503 29.9409 287.713 29.3829C287.929 28.8249 288.235 28.3359 288.631 27.9159C289.033 27.4959 289.516 27.1629 290.08 26.9169C290.65 26.6709 291.292 26.5479 292.006 26.5479ZM292.06 28.4739C291.526 28.4739 291.109 28.6269 290.809 28.9329C290.509 29.2329 290.311 29.6679 290.215 30.2379H293.698C293.698 30.0159 293.668 29.7999 293.608 29.5899C293.554 29.3799 293.461 29.1939 293.329 29.0319C293.203 28.8639 293.035 28.7289 292.825 28.6269C292.615 28.5249 292.36 28.4739 292.06 28.4739ZM302.362 38.9859V26.6919H304.09C304.264 26.6919 304.408 26.7309 304.522 26.8089C304.642 26.8869 304.726 27.0039 304.774 27.1599L304.981 27.8439C305.161 27.6459 305.353 27.4659 305.557 27.3039C305.767 27.1419 305.989 27.0039 306.223 26.8899C306.463 26.7699 306.718 26.6769 306.988 26.6109C307.264 26.5449 307.564 26.5119 307.888 26.5119C308.374 26.5119 308.824 26.6199 309.238 26.8359C309.652 27.0519 310.009 27.3639 310.309 27.7719C310.609 28.1799 310.843 28.6809 311.011 29.2749C311.185 29.8629 311.272 30.5319 311.272 31.2819C311.272 31.9839 311.173 32.6319 310.975 33.2259C310.783 33.8199 310.51 34.3359 310.156 34.7739C309.808 35.2119 309.388 35.5539 308.896 35.7999C308.41 36.0459 307.87 36.1689 307.276 36.1689C306.79 36.1689 306.382 36.0999 306.052 35.9619C305.722 35.8239 305.422 35.6379 305.152 35.4039V38.9859H302.362ZM306.916 28.6449C306.712 28.6449 306.526 28.6659 306.358 28.7079C306.196 28.7439 306.043 28.7979 305.899 28.8699C305.761 28.9419 305.632 29.0349 305.512 29.1489C305.392 29.2569 305.272 29.3829 305.152 29.5269V33.4869C305.362 33.7209 305.59 33.8859 305.836 33.9819C306.082 34.0719 306.34 34.1169 306.61 34.1169C306.868 34.1169 307.105 34.0659 307.321 33.9639C307.537 33.8619 307.723 33.6999 307.879 33.4779C308.041 33.2499 308.167 32.9559 308.257 32.5959C308.347 32.2359 308.392 31.7979 308.392 31.2819C308.392 30.7899 308.356 30.3759 308.284 30.0399C308.212 29.7039 308.11 29.4339 307.978 29.2299C307.852 29.0199 307.699 28.8699 307.519 28.7799C307.339 28.6899 307.138 28.6449 306.916 28.6449ZM319.752 36.0249C319.488 36.0249 319.287 35.9889 319.149 35.9169C319.017 35.8449 318.906 35.6949 318.816 35.4669L318.618 34.9539C318.384 35.1519 318.159 35.3259 317.943 35.4759C317.727 35.6259 317.502 35.7549 317.268 35.8629C317.04 35.9649 316.794 36.0399 316.53 36.0879C316.272 36.1419 315.984 36.1689 315.666 36.1689C315.24 36.1689 314.853 36.1149 314.505 36.0069C314.157 35.8929 313.86 35.7279 313.614 35.5119C313.374 35.2959 313.188 35.0289 313.056 34.7109C312.924 34.3869 312.858 34.0149 312.858 33.5949C312.858 33.2649 312.942 32.9259 313.11 32.5779C313.278 32.2299 313.569 31.9149 313.983 31.6329C314.397 31.3449 314.955 31.1049 315.657 30.9129C316.359 30.7209 317.244 30.6129 318.312 30.5889V30.1929C318.312 29.6469 318.198 29.2539 317.97 29.0139C317.748 28.7679 317.43 28.6449 317.016 28.6449C316.686 28.6449 316.416 28.6809 316.206 28.7529C315.996 28.8249 315.807 28.9059 315.639 28.9959C315.477 29.0859 315.318 29.1669 315.162 29.2389C315.006 29.3109 314.82 29.3469 314.604 29.3469C314.412 29.3469 314.247 29.3019 314.109 29.2119C313.977 29.1159 313.872 28.9989 313.794 28.8609L313.29 27.9879C313.854 27.4899 314.478 27.1209 315.162 26.8809C315.852 26.6349 316.59 26.5119 317.376 26.5119C317.94 26.5119 318.447 26.6049 318.897 26.7909C319.353 26.9709 319.737 27.2259 320.049 27.5559C320.367 27.8799 320.61 28.2669 320.778 28.7169C320.946 29.1669 321.03 29.6589 321.03 30.1929V36.0249H319.752ZM316.548 34.3239C316.908 34.3239 317.223 34.2609 317.493 34.1349C317.763 34.0089 318.036 33.8049 318.312 33.5229V32.2269C317.754 32.2509 317.295 32.2989 316.935 32.3709C316.575 32.4429 316.29 32.5329 316.08 32.6409C315.87 32.7489 315.723 32.8719 315.639 33.0099C315.561 33.1479 315.522 33.2979 315.522 33.4599C315.522 33.7779 315.609 34.0029 315.783 34.1349C315.957 34.2609 316.212 34.3239 316.548 34.3239ZM329.257 28.7349C329.185 28.8489 329.107 28.9299 329.023 28.9779C328.945 29.0259 328.843 29.0499 328.717 29.0499C328.585 29.0499 328.453 29.0229 328.321 28.9689C328.189 28.9089 328.045 28.8459 327.889 28.7799C327.739 28.7139 327.568 28.6539 327.376 28.5999C327.184 28.5399 326.965 28.5099 326.719 28.5099C326.365 28.5099 326.092 28.5789 325.9 28.7169C325.714 28.8489 325.621 29.0349 325.621 29.2749C325.621 29.4489 325.681 29.5929 325.801 29.7069C325.927 29.8209 326.092 29.9229 326.296 30.0129C326.5 30.0969 326.731 30.1779 326.989 30.2559C327.247 30.3339 327.511 30.4209 327.781 30.5169C328.051 30.6129 328.315 30.7269 328.573 30.8589C328.831 30.9849 329.062 31.1439 329.266 31.3359C329.47 31.5219 329.632 31.7499 329.752 32.0199C329.878 32.2899 329.941 32.6139 329.941 32.9919C329.941 33.4539 329.857 33.8799 329.689 34.2699C329.521 34.6599 329.269 34.9959 328.933 35.2779C328.603 35.5599 328.192 35.7789 327.7 35.9349C327.214 36.0909 326.653 36.1689 326.017 36.1689C325.699 36.1689 325.381 36.1389 325.063 36.0789C324.745 36.0189 324.436 35.9379 324.136 35.8359C323.842 35.7339 323.569 35.6139 323.317 35.4759C323.065 35.3319 322.849 35.1789 322.669 35.0169L323.317 33.9909C323.395 33.8709 323.488 33.7779 323.596 33.7119C323.704 33.6399 323.845 33.6039 324.019 33.6039C324.181 33.6039 324.325 33.6399 324.451 33.7119C324.583 33.7839 324.724 33.8619 324.874 33.9459C325.024 34.0299 325.198 34.1079 325.396 34.1799C325.6 34.2519 325.855 34.2879 326.161 34.2879C326.377 34.2879 326.56 34.2669 326.71 34.2249C326.86 34.1769 326.98 34.1139 327.07 34.0359C327.16 33.9579 327.226 33.8709 327.268 33.7749C327.31 33.6789 327.331 33.5799 327.331 33.4779C327.331 33.2919 327.268 33.1389 327.142 33.0189C327.016 32.8989 326.851 32.7969 326.647 32.7129C326.443 32.6229 326.209 32.5419 325.945 32.4699C325.687 32.3919 325.423 32.3049 325.153 32.2089C324.883 32.1129 324.616 31.9989 324.352 31.8669C324.094 31.7289 323.863 31.5579 323.659 31.3539C323.455 31.1439 323.29 30.8889 323.164 30.5889C323.038 30.2889 322.975 29.9259 322.975 29.4999C322.975 29.1039 323.05 28.7289 323.2 28.3749C323.356 28.0149 323.587 27.6999 323.893 27.4299C324.199 27.1599 324.583 26.9469 325.045 26.7909C325.507 26.6289 326.047 26.5479 326.665 26.5479C327.001 26.5479 327.325 26.5779 327.637 26.6379C327.955 26.6979 328.252 26.7819 328.528 26.8899C328.804 26.9979 329.056 27.1269 329.284 27.2769C329.512 27.4209 329.713 27.5799 329.887 27.7539L329.257 28.7349ZM337.725 28.7349C337.653 28.8489 337.575 28.9299 337.491 28.9779C337.413 29.0259 337.311 29.0499 337.185 29.0499C337.053 29.0499 336.921 29.0229 336.789 28.9689C336.657 28.9089 336.513 28.8459 336.357 28.7799C336.207 28.7139 336.036 28.6539 335.844 28.5999C335.652 28.5399 335.433 28.5099 335.187 28.5099C334.833 28.5099 334.56 28.5789 334.368 28.7169C334.182 28.8489 334.089 29.0349 334.089 29.2749C334.089 29.4489 334.149 29.5929 334.269 29.7069C334.395 29.8209 334.56 29.9229 334.764 30.0129C334.968 30.0969 335.199 30.1779 335.457 30.2559C335.715 30.3339 335.979 30.4209 336.249 30.5169C336.519 30.6129 336.783 30.7269 337.041 30.8589C337.299 30.9849 337.53 31.1439 337.734 31.3359C337.938 31.5219 338.1 31.7499 338.22 32.0199C338.346 32.2899 338.409 32.6139 338.409 32.9919C338.409 33.4539 338.325 33.8799 338.157 34.2699C337.989 34.6599 337.737 34.9959 337.401 35.2779C337.071 35.5599 336.66 35.7789 336.168 35.9349C335.682 36.0909 335.121 36.1689 334.485 36.1689C334.167 36.1689 333.849 36.1389 333.531 36.0789C333.213 36.0189 332.904 35.9379 332.604 35.8359C332.31 35.7339 332.037 35.6139 331.785 35.4759C331.533 35.3319 331.317 35.1789 331.137 35.0169L331.785 33.9909C331.863 33.8709 331.956 33.7779 332.064 33.7119C332.172 33.6399 332.313 33.6039 332.487 33.6039C332.649 33.6039 332.793 33.6399 332.919 33.7119C333.051 33.7839 333.192 33.8619 333.342 33.9459C333.492 34.0299 333.666 34.1079 333.864 34.1799C334.068 34.2519 334.323 34.2879 334.629 34.2879C334.845 34.2879 335.028 34.2669 335.178 34.2249C335.328 34.1769 335.448 34.1139 335.538 34.0359C335.628 33.9579 335.694 33.8709 335.736 33.7749C335.778 33.6789 335.799 33.5799 335.799 33.4779C335.799 33.2919 335.736 33.1389 335.61 33.0189C335.484 32.8989 335.319 32.7969 335.115 32.7129C334.911 32.6229 334.677 32.5419 334.413 32.4699C334.155 32.3919 333.891 32.3049 333.621 32.2089C333.351 32.1129 333.084 31.9989 332.82 31.8669C332.562 31.7289 332.331 31.5579 332.127 31.3539C331.923 31.1439 331.758 30.8889 331.632 30.5889C331.506 30.2889 331.443 29.9259 331.443 29.4999C331.443 29.1039 331.518 28.7289 331.668 28.3749C331.824 28.0149 332.055 27.6999 332.361 27.4299C332.667 27.1599 333.051 26.9469 333.513 26.7909C333.975 26.6289 334.515 26.5479 335.133 26.5479C335.469 26.5479 335.793 26.5779 336.105 26.6379C336.423 26.6979 336.72 26.7819 336.996 26.8899C337.272 26.9979 337.524 27.1269 337.752 27.2769C337.98 27.4209 338.181 27.5799 338.355 27.7539L337.725 28.7349ZM344.483 26.5479C345.101 26.5479 345.665 26.6439 346.175 26.8359C346.691 27.0279 347.132 27.3069 347.498 27.6729C347.87 28.0389 348.158 28.4889 348.362 29.0229C348.572 29.5509 348.677 30.1509 348.677 30.8229C348.677 31.0329 348.668 31.2039 348.65 31.3359C348.632 31.4679 348.599 31.5729 348.551 31.6509C348.503 31.7289 348.437 31.7829 348.353 31.8129C348.275 31.8429 348.173 31.8579 348.047 31.8579H342.665C342.755 32.6379 342.992 33.2049 343.376 33.5589C343.76 33.9069 344.255 34.0809 344.861 34.0809C345.185 34.0809 345.464 34.0419 345.698 33.9639C345.932 33.8859 346.139 33.7989 346.319 33.7029C346.505 33.6069 346.673 33.5199 346.823 33.4419C346.979 33.3639 347.141 33.3249 347.309 33.3249C347.531 33.3249 347.699 33.4059 347.813 33.5679L348.623 34.5669C348.335 34.8969 348.023 35.1669 347.687 35.3769C347.357 35.5809 347.015 35.7429 346.661 35.8629C346.313 35.9769 345.962 36.0549 345.608 36.0969C345.26 36.1449 344.927 36.1689 344.609 36.1689C343.955 36.1689 343.34 36.0639 342.764 35.8539C342.194 35.6379 341.693 35.3199 341.261 34.8999C340.835 34.4799 340.496 33.9579 340.244 33.3339C339.998 32.7099 339.875 31.9839 339.875 31.1559C339.875 30.5319 339.98 29.9409 340.19 29.3829C340.406 28.8249 340.712 28.3359 341.108 27.9159C341.51 27.4959 341.993 27.1629 342.557 26.9169C343.127 26.6709 343.769 26.5479 344.483 26.5479ZM344.537 28.4739C344.003 28.4739 343.586 28.6269 343.286 28.9329C342.986 29.2329 342.788 29.6679 342.692 30.2379H346.175C346.175 30.0159 346.145 29.7999 346.085 29.5899C346.031 29.3799 345.938 29.1939 345.806 29.0319C345.68 28.8639 345.512 28.7289 345.302 28.6269C345.092 28.5249 344.837 28.4739 344.537 28.4739Z" fill="white"/>
</svg>
