<svg width="43" height="41" viewBox="0 0 43 41" fill="none" xmlns="http://www.w3.org/2000/svg">
<path d="M7.90234 20.4542C7.90234 20.0178 8.25612 19.6641 8.69252 19.6641H18.1747C18.6111 19.6641 18.9648 20.0178 18.9648 20.4542V20.4542C18.9648 20.8906 18.6111 21.2444 18.1747 21.2444H8.69252C8.25612 21.2444 7.90234 20.8906 7.90234 20.4542V20.4542Z" fill="#323754"/>
<path d="M8.69141 17.296C8.69141 16.8596 9.04518 16.5059 9.48158 16.5059H18.9637C19.4001 16.5059 19.7539 16.8596 19.7539 17.296V17.296C19.7539 17.7324 19.4001 18.0862 18.9637 18.0862H9.48158C9.04518 18.0862 8.69141 17.7324 8.69141 17.296V17.296Z" fill="#323754"/>
<path d="M24.4961 20.4542C24.4961 20.0178 24.8499 19.6641 25.2863 19.6641H34.7684C35.2048 19.6641 35.5586 20.0178 35.5586 20.4542V20.4542C35.5586 20.8906 35.2048 21.2444 34.7684 21.2444H25.2863C24.8499 21.2444 24.4961 20.8906 24.4961 20.4542V20.4542Z" fill="#323754"/>
<path d="M23.7051 23.6183C23.7051 23.1819 24.0589 22.8281 24.4953 22.8281H33.9774C34.4138 22.8281 34.7676 23.1819 34.7676 23.6183V23.6183C34.7676 24.0547 34.4138 24.4085 33.9774 24.4085H24.4953C24.0589 24.4085 23.7051 24.0547 23.7051 23.6183V23.6183Z" fill="#323754"/>
<path d="M9.48242 14.1339C9.48242 13.6975 9.8362 13.3438 10.2726 13.3438H19.7547C20.1911 13.3438 20.5449 13.6975 20.5449 14.1339V14.1339C20.5449 14.5703 20.1911 14.9241 19.7547 14.9241H10.2726C9.8362 14.9241 9.48242 14.5703 9.48242 14.1339V14.1339Z" fill="#323754"/>
<path d="M23.7051 17.296C23.7051 16.8596 24.0589 16.5059 24.4953 16.5059H33.9774C34.4138 16.5059 34.7676 16.8596 34.7676 17.296V17.296C34.7676 17.7324 34.4138 18.0862 33.9774 18.0862H24.4953C24.0589 18.0862 23.7051 17.7324 23.7051 17.296V17.296Z" fill="#323754"/>
<path d="M0 29.1479C0 27.8387 1.06132 26.7773 2.37053 26.7773V26.7773C3.67974 26.7773 4.74107 27.8387 4.74107 29.1479V38.63C4.74107 39.9392 3.67974 41.0005 2.37053 41.0005V41.0005C1.06132 41.0005 0 39.9392 0 38.63V29.1479Z" fill="#323754"/>
<path d="M8.69141 23.6183C8.69141 23.1819 9.04518 22.8281 9.48158 22.8281H18.9637C19.4001 22.8281 19.7539 23.1819 19.7539 23.6183V23.6183C19.7539 24.0547 19.4001 24.4085 18.9637 24.4085H9.48158C9.04518 24.4085 8.69141 24.0547 8.69141 23.6183V23.6183Z" fill="#323754"/>
<path d="M8.69141 7.81166C8.69141 7.37526 9.04518 7.02148 9.48158 7.02148H18.9637C19.4001 7.02148 19.7539 7.37526 19.7539 7.81166V7.81166C19.7539 8.24807 19.4001 8.60184 18.9637 8.60184H9.48158C9.04518 8.60184 8.69141 8.24807 8.69141 7.81166V7.81166Z" fill="#323754"/>
<path d="M7.90234 10.9757C7.90234 10.5393 8.25612 10.1855 8.69252 10.1855H18.1747C18.6111 10.1855 18.9648 10.5393 18.9648 10.9757V10.9757C18.9648 11.4121 18.6111 11.7659 18.1747 11.7659H8.69252C8.25612 11.7659 7.90234 11.4121 7.90234 10.9757V10.9757Z" fill="#323754"/>
<path d="M41 7C41 10.866 37.866 14 34 14C30.134 14 27 10.866 27 7C27 3.13401 30.134 0 34 0C37.866 0 41 3.13401 41 7Z" fill="#323754"/>
<path d="M6.32227 34.624C6.32227 35.982 7.96408 36.662 8.9243 35.7018V35.7018C9.07245 35.5537 9.27347 35.4703 9.48298 35.4703H29.4398C30.6185 35.4703 31.749 35.0021 32.5826 34.1685L42.5123 24.2389C43.1289 23.6222 43.1289 22.6223 42.5123 22.0057V22.0057C41.8953 21.3887 40.8949 21.3887 40.2779 22.0057L33.2728 29.0584C32.7126 29.6225 32.403 30.7293 31.608 30.7293V30.7293H21.3356C20.8992 30.7293 20.5455 30.3755 20.5455 29.9391V29.9391C20.5455 29.5027 20.8992 29.1489 21.3356 29.1489H28.4472C29.7565 29.1489 30.8178 28.0876 30.8178 26.7784V26.7784C30.8178 26.342 30.464 25.9882 30.0276 25.9882H11.6512C10.4724 25.9882 9.34189 26.4565 8.50837 27.29L7.23641 28.562C6.65109 29.1473 6.32227 29.9411 6.32227 30.7689V34.624Z" fill="#323754"/>
<path d="M30.578 5.27205H30.5469C31.1836 4.02067 32.4837 3.16319 33.9841 3.16319C34.9519 3.16319 35.8362 3.51981 36.513 4.10886H36.5366H38.0728C37.1633 2.83254 35.6709 2 33.9841 2C31.4099 2 29.2888 3.93839 29.0005 6.43525L32.2394 6.43499V7.59792H29L29.0013 7.60692C29.0483 8.00802 29.1427 8.39447 29.2785 8.76111H32.2389V11.7213C32.6079 11.8581 32.9979 11.9529 33.4019 11.9997V8.76137H34.5649V12C34.9691 11.9532 35.359 11.8586 35.728 11.7215V8.76111H38.6884C38.8899 8.21783 39 7.63006 39 7.01658C39 6.40311 38.8899 5.81534 38.6884 5.27205H37.9995H30.578V5.27205ZM34.5652 7.59818H33.4022V6.43525H34.5652V7.59818ZM37.7938 7.59818H35.7285V6.43525H37.7938C37.8226 6.625 37.8375 6.81912 37.8375 7.01684C37.8375 7.21431 37.8226 7.40843 37.7938 7.59818Z" fill="white"/>
</svg>
