<svg width="63" height="65" viewBox="0 0 63 65" fill="none" xmlns="http://www.w3.org/2000/svg">
<circle cx="31.6154" cy="32.2111" r="31.3625" fill="url(#paint0_linear)"/>
<mask id="mask0" mask-type="alpha" maskUnits="userSpaceOnUse" x="3" y="0" width="55" height="65">
<path d="M57.7057 38.2973C57.7057 52.609 45.6544 64.2109 30.7884 64.2109C15.9224 64.2109 3.87109 52.609 3.87109 38.2973C3.87109 23.9856 36.6293 15.0377 43.2942 0.210938C54.0774 7.39967 51.3816 11.8927 57.7057 38.2973Z" fill="url(#paint1_linear)"/>
</mask>
<g mask="url(#mask0)">
<mask id="mask1" mask-type="alpha" maskUnits="userSpaceOnUse" x="4" y="0" width="54" height="69">
<rect x="4.10547" y="0.336914" width="53.3123" height="67.9549" fill="#C4C4C4"/>
</mask>
<g mask="url(#mask1)">
<g style="mix-blend-mode:screen">
<path fill-rule="evenodd" clip-rule="evenodd" d="M27.7902 50.2848C30.4395 47.5381 36.3447 50.3843 36.2672 53.0447C41.9734 54.1874 43.058 62.5362 35.5316 63.3303C38.255 68.5005 26.871 72.0374 24.3122 68.065C22.1902 71.648 15.1488 70.0418 15.425 65.9658C11.3736 66.9813 8.04596 62.0852 9.63541 60.5207C5.78457 60.5601 3.09725 52.0248 11.5895 51.9754C12.6907 48.9984 16.9543 47.5629 20.0308 51.2472C21.3134 49.2973 26.5828 48.1494 27.7902 50.2848Z" fill="#DADBF0"/>
<path fill-rule="evenodd" clip-rule="evenodd" d="M40.349 56.0898C41.7497 58.9572 40.537 62.7897 35.5572 63.3155C38.2827 68.4928 26.8898 72.0347 24.329 68.0568C22.2053 71.6448 15.1583 70.0363 15.4348 65.9547C11.3802 66.9716 8.04998 62.0687 9.64068 60.502C6.44745 60.5347 4.05386 54.672 8.1617 52.6334C4.14438 55.395 7.97844 60.0113 10.8195 59.3176C9.33341 60.7812 11.7237 66.8925 16.4803 64.8747C16.2221 68.6874 22.7468 70.6659 24.9172 66.5451C27.3092 70.2612 37.0882 66.8633 34.542 62.0271C40.3849 61.839 40.6907 58.6075 40.349 56.0898Z" fill="#C8D0E8"/>
<path fill-rule="evenodd" clip-rule="evenodd" d="M27.0866 48.0084C29.224 45.4801 34.6235 47.0215 34.705 49.3294C38.2128 49.9169 39.8076 54.3557 33.3443 55.4683C35.1384 58.4021 31.5621 59.628 28.9702 59.0402C28.4804 60.2579 26.2983 60.9904 25.0459 60.1494C23.6344 62.0952 17.188 62.2819 17.8834 58.8336C14.5903 59.5191 13.5761 57.0708 14.8631 55.6262C11.7467 55.957 8.44778 50.5314 15.9734 49.2783C16.7592 46.6384 20.3214 45.9381 22.3879 47.8538C23.3872 46.0931 25.9234 46.2273 27.0866 48.0084Z" fill="#DADBF0"/>
<path fill-rule="evenodd" clip-rule="evenodd" d="M37.1676 50.6889C38.6576 52.4089 37.6225 54.9675 33.3571 55.4592C35.1523 58.3959 31.574 59.6229 28.9806 59.0346C28.4906 60.2534 26.3073 60.9867 25.0541 60.1449C23.6418 62.0926 17.1918 62.2794 17.8876 58.8278C14.5927 59.5139 13.578 57.0633 14.8657 55.6172C12.1552 55.9055 9.30834 51.8398 13.5557 49.9478C10.4582 51.737 12.0152 54.3854 15.8167 55.1866C14.3093 57.1304 17.8599 58.9142 18.882 57.3712C17.9905 60.8607 23.6523 60.7046 24.537 58.4298C26.3547 59.8789 29.0559 59.345 28.7834 57.3956C32.0739 58.3307 33.7237 56.8391 32.5873 54.5933C35.7534 54.1867 38.3095 53.4639 37.1676 50.6889Z" fill="#C8D0E8"/>
<path fill-rule="evenodd" clip-rule="evenodd" d="M35.3925 26.099C34.6711 29.5778 25.5271 49.0066 28.932 50.8525C30.7583 51.8423 30.6428 53.9333 26.3215 54.6867C25.2973 56.0192 20.1517 57.7814 20.0893 54.3985C16.3846 53.8543 17.9383 51.8986 19.823 50.8883C20.3658 50.5973 21.0369 50.3872 21.5919 49.8604C24.5353 47.0669 32.9645 29.9424 35.3925 26.099Z" fill="#DADBF0"/>
<path fill-rule="evenodd" clip-rule="evenodd" d="M29.9314 37.3153L29.9269 37.3365C28.5336 40.1493 24.9164 46.2936 21.9103 50.0169C21.4418 50.5974 20.982 51.0402 20.3536 51.3536C17.8005 52.6274 19.5014 53.9815 21.1469 53.4621C20.5743 55.5477 24.682 56.1805 26.5694 54.3314C29.5692 54.6245 30.0246 52.8812 29.753 51.4306C31.5308 52.996 30.697 55.4731 26.9753 54.9691C25.9474 56.3036 20.1575 57.786 20.095 54.3979C16.3767 53.8528 17.5868 50.613 19.5148 50.7412C20.2283 50.7885 21.1871 50.1283 21.8297 49.4852C24.7044 46.6108 27.5646 41.0542 29.9314 37.3153Z" fill="#C8D0E8"/>
</g>
<path fill-rule="evenodd" clip-rule="evenodd" d="M29.2166 41.0573C28.9707 40.1273 28.437 36.6976 28.5109 35.7958L27.937 36.7235C27.5667 32.9878 28.2666 31.9058 30.4503 29.2345L35.7785 30.8804C35.5479 34.359 35.5354 35.6327 32.7716 38.3841L32.9225 37.311C32.3991 38.0584 30.1382 40.3216 29.2166 41.0573Z" fill="url(#paint2_linear)"/>
<path fill-rule="evenodd" clip-rule="evenodd" d="M30.2243 38.1559C30.0508 37.4994 29.674 35.0782 29.726 34.4415L29.321 35.0966C29.0597 32.4592 29.5535 31.6956 31.095 29.8096L34.8565 30.9716C34.6938 33.4271 34.6853 34.3264 32.7341 36.2688L32.8404 35.5113C32.4707 36.0386 30.8748 37.6366 30.2243 38.1559Z" fill="#FF5959"/>
<path fill-rule="evenodd" clip-rule="evenodd" d="M30.955 36.0596C30.8279 35.5789 30.5522 33.807 30.5905 33.341L30.2938 33.8206C30.1024 31.8903 30.464 31.3313 31.5921 29.9511L34.3452 30.8014C34.2261 32.5986 34.2197 33.2569 32.7917 34.6786L32.8698 34.1239C32.5993 34.5099 31.431 35.6796 30.955 36.0596Z" fill="#FFDDD2"/>
<path fill-rule="evenodd" clip-rule="evenodd" d="M36.6139 32.8467C37.4662 31.6722 38.1678 30.5959 39.0153 29.4359L30.0596 26.6257C29.9308 26.2975 29.3301 26.4276 29.3486 26.126C29.227 27.5159 29.0777 28.8332 29.0314 30.2503C28.9678 30.7422 29.1586 31.3056 29.6318 31.8684C30.2954 32.6618 31.2596 33.1663 32.2047 33.452C33.6303 33.8831 35.543 34.1789 36.6139 32.8467Z" fill="url(#paint3_linear)"/>
<path fill-rule="evenodd" clip-rule="evenodd" d="M32.026 27.2426L30.0582 26.6253C29.9294 26.2973 29.3291 26.4274 29.3477 26.126C29.226 27.5146 29.0769 28.8307 29.0306 30.2464C28.9671 30.7379 29.1577 31.3008 29.6307 31.863C30.2726 32.6302 31.2432 33.1553 32.2019 33.4451C33.582 33.8622 35.4188 34.1525 36.5053 32.9608C35.1591 33.979 32.3877 33.1082 31.5539 32.4581C31.6778 30.6864 31.8294 28.9478 32.026 27.2426Z" fill="url(#paint4_linear)"/>
<path fill-rule="evenodd" clip-rule="evenodd" d="M38.0526 26.8842C36.6287 25.1936 33.6634 24.1522 31.4291 24.5604C29.195 24.9686 28.538 26.6702 29.9622 28.361C31.3856 30.0533 34.3515 31.0929 36.5854 30.6846C38.8197 30.2765 39.4765 28.5748 38.0526 26.8842Z" fill="#0A3C5F"/>
<path fill-rule="evenodd" clip-rule="evenodd" d="M46.2896 16.4182C46.7322 14.5821 46.9446 12.669 46.9117 10.8092C46.9024 10.2935 46.8729 9.77815 46.8207 9.26436C45.7292 1.07733 43.263 -1.54961 36.0215 5.45686C35.7295 5.73954 35.4538 6.03999 35.1806 6.34355C33.9667 7.69962 32.838 9.34294 31.9369 11.0831C29.873 15.0706 28.6368 20.9009 29.2156 25.3111C29.279 25.8292 29.3643 26.243 29.4992 26.6235C29.624 26.9755 29.7877 27.298 30.1092 27.68C31.6504 29.4891 34.7461 30.5287 37.0418 30.114C37.7376 29.9857 38.2377 29.7716 38.7398 29.3612C39.1157 29.054 39.5427 28.6254 39.8311 28.3362C42.7861 25.3756 45.2861 20.5789 46.2896 16.4182Z" fill="#DADBF0"/>
<path fill-rule="evenodd" clip-rule="evenodd" d="M36.0145 5.44928C34.9881 6.44292 33.9342 7.7952 33.1835 8.93788C32.561 9.88511 31.9987 10.8819 31.5248 11.9104C29.7112 15.8448 28.6746 21.1875 29.214 25.2966C29.2773 25.8144 29.3626 26.2281 29.4973 26.6084C30.1067 28.3267 32.2779 29.4777 33.9488 29.9157C35.0029 30.1922 36.0866 30.2689 37.0338 30.0978C37.724 29.9703 38.0029 29.8865 38.7198 29.3538C36.6287 30.4352 33.4804 29.4071 31.7784 28.0734C31.8044 21.3858 33.0049 15.0628 36.5372 10.2821C37.0929 10.66 41.9638 13.111 44.8555 11.2422L36.1404 5.53183C36.2903 5.37132 36.4429 5.21364 36.6005 5.06128C37.7433 3.95513 38.767 3.08973 39.6848 2.44796C38.622 3.1117 37.4068 4.10145 36.0145 5.44928Z" fill="#C2BEDB"/>
<path fill-rule="evenodd" clip-rule="evenodd" d="M46.7216 8.5822C46.3927 5.97381 45.6607 2.77302 44.1722 0.59488C44.1428 0.552386 44.1083 0.502374 44.0739 0.452359C44.0485 0.41554 43.9796 0.310255 43.8859 0.279263C43.7977 0.249788 43.6848 0.293 43.6333 0.308567C40.928 1.12676 38.0858 3.26215 36.157 5.22077C36.0343 5.34538 35.9195 5.47516 35.8387 5.59853C35.345 6.32637 35.4353 7.18811 35.8163 7.94599C36.1831 8.67582 36.8136 9.30563 37.436 9.76977C37.5216 9.83717 37.6102 9.90328 37.7011 9.9678C39.4053 11.1756 41.9992 11.8347 43.9398 11.554C44.653 11.4509 45.3602 11.2209 45.9007 10.8076C46.1667 10.6042 46.3923 10.3535 46.551 10.0419C46.6534 9.84111 46.7278 9.62107 46.7532 9.41285C46.7869 9.13746 46.7555 8.85105 46.7216 8.5822Z" fill="url(#paint5_linear)"/>
<path fill-rule="evenodd" clip-rule="evenodd" d="M43.9146 0.29213C43.9048 0.286881 43.8944 0.282378 43.8839 0.279003C43.7957 0.249533 43.6828 0.292738 43.6313 0.308302C40.9264 1.12636 38.0848 3.2614 36.1562 5.21969C36.0336 5.34428 35.9188 5.47404 35.838 5.5974C35.3444 6.32512 35.4347 7.18672 35.8156 7.94447C35.8209 7.95496 35.8259 7.96524 35.8313 7.97563L35.8355 7.98369L35.8491 8.00938L35.852 8.01505C35.8632 8.03637 35.8747 8.05745 35.8864 8.0786L35.8892 8.08352C35.8948 8.09336 35.9002 8.10303 35.9057 8.11301L35.9064 8.1142C35.9127 8.1251 35.9189 8.13583 35.9253 8.14659L35.9255 8.14724C35.9377 8.16822 35.9504 8.18931 35.963 8.21025L35.9667 8.21613C35.9858 8.24757 36.0055 8.27874 36.0255 8.30966L36.0283 8.31387C36.0346 8.32375 36.0409 8.33335 36.0475 8.34316L36.048 8.34415C36.0693 8.37631 36.0911 8.40813 36.1132 8.43975L36.1136 8.44043C36.1358 8.47209 36.1582 8.5032 36.1812 8.53431L36.1821 8.5354C36.1973 8.55598 36.2126 8.57642 36.2281 8.59676L36.2293 8.59823L36.2512 8.62644L36.2534 8.62948C36.3007 8.69014 36.349 8.74946 36.399 8.80805L36.4018 8.81167L36.423 8.8365L36.4273 8.84122C36.4432 8.85948 36.4588 8.8774 36.4751 8.89546L36.481 8.9022L36.4995 8.92272L36.5055 8.92932C36.522 8.94745 36.5384 8.96527 36.555 8.98313L36.5585 8.98706L36.5801 9.01011L36.585 9.01528L36.6033 9.03488L36.6114 9.04302L36.6344 9.067L36.6416 9.0745L36.6588 9.09235L36.668 9.10166L36.6894 9.12321L36.6913 9.12513L36.7177 9.15144L36.7216 9.15548L36.7436 9.17717L36.7487 9.1821L36.7696 9.20249L36.776 9.20862L36.7988 9.23021L36.8127 9.24362L36.8237 9.25409L36.8368 9.26641L36.8526 9.28147L36.86 9.28828L36.8832 9.30984L36.8918 9.31768L36.9101 9.33452L36.9216 9.34482L36.9346 9.35697L36.9487 9.3697L36.9621 9.38181L36.9722 9.39088L36.994 9.41022C37.1392 9.5383 37.2875 9.65773 37.4353 9.76801C37.5209 9.8354 37.6095 9.90151 37.7004 9.96601C39.4042 11.1738 41.9977 11.8326 43.938 11.552C44.6356 11.4513 45.4067 11.2132 45.97 10.7496C45.033 11.2188 41.3078 12.4514 37.3966 8.64122C39.0659 5.68287 41.1644 2.97215 43.9146 0.29213Z" fill="#1E2136"/>
<path fill-rule="evenodd" clip-rule="evenodd" d="M39.2403 13.3263C41.3999 14.0586 42.5411 16.3566 41.7876 18.4593C41.0338 20.5618 38.6717 21.6701 36.5118 20.9375C34.3507 20.2045 33.2085 17.9081 33.9624 15.8055C34.7162 13.7029 37.0789 12.5932 39.2403 13.3263Z" fill="#B5B0D2"/>
<path fill-rule="evenodd" clip-rule="evenodd" d="M36.9723 19.6505C35.5726 19.1758 34.8424 17.6645 35.3413 16.2731C35.8402 14.8816 37.3786 14.1377 38.7781 14.6124C40.1765 15.0865 40.9062 16.5997 40.4073 17.991C39.9087 19.3825 38.3705 20.1246 36.9723 19.6505ZM39.1841 13.4806C37.1566 12.793 34.9261 13.8695 34.2028 15.8868C33.4801 17.9028 34.5386 20.0963 36.5661 20.7839C38.5923 21.471 40.8235 20.393 41.5459 18.3771C42.2691 16.3596 41.2102 14.1677 39.1841 13.4806Z" fill="#EAE7F4"/>
<path fill-rule="evenodd" clip-rule="evenodd" d="M36.9729 19.6507C38.3668 20.1234 39.9111 19.3776 40.4079 17.9912C40.9056 16.6032 40.1728 15.0854 38.7787 14.6126C37.3838 14.1395 35.8395 14.8851 35.3419 16.2733C34.8448 17.6595 35.5778 19.1775 36.9729 19.6507Z" fill="url(#paint6_linear)"/>
<path fill-rule="evenodd" clip-rule="evenodd" d="M38.7746 14.6145C40.1757 15.0898 40.9068 16.6068 40.407 18.0017C40.3503 18.16 40.2802 18.3097 40.198 18.4517C40.398 17.203 39.6828 15.9645 38.4419 15.5433C37.1997 15.1218 35.8478 15.6592 35.2086 16.7588C35.2332 16.5973 35.2742 16.4376 35.3308 16.2793C35.8309 14.8844 37.3721 14.1386 38.7746 14.6145Z" fill="#0A3C5F"/>
<path fill-rule="evenodd" clip-rule="evenodd" d="M38.826 14.4562C38.9742 14.5066 39.1371 14.4284 39.1901 14.2809C39.2435 14.1316 39.1658 13.972 39.0175 13.9218C38.868 13.871 38.705 13.949 38.6516 14.0984C38.5985 14.2461 38.6763 14.4057 38.826 14.4562Z" fill="#1466A0"/>
<path fill-rule="evenodd" clip-rule="evenodd" d="M36.7344 20.3436C36.8825 20.394 37.0461 20.3144 37.0991 20.1667C37.1519 20.0192 37.0748 19.8577 36.9266 19.8075C36.7771 19.7568 36.6135 19.8364 36.5607 19.9842C36.5075 20.1316 36.5847 20.2929 36.7344 20.3436Z" fill="#1466A0"/>
<path fill-rule="evenodd" clip-rule="evenodd" d="M41.1453 18.2508C41.0923 18.3984 40.9288 18.4782 40.7793 18.4275C40.6309 18.3773 40.5524 18.2155 40.6052 18.0677C40.658 17.9202 40.8237 17.8394 40.9719 17.8896C41.1217 17.9402 41.1981 18.1033 41.1453 18.2508Z" fill="#1466A0"/>
<path fill-rule="evenodd" clip-rule="evenodd" d="M35.146 16.1971C35.0931 16.3447 34.9282 16.424 34.7801 16.3736C34.6305 16.3229 34.5534 16.1617 34.6062 16.014C34.6589 15.8664 34.8231 15.785 34.9728 15.8359C35.1211 15.8861 35.1991 16.0496 35.146 16.1971Z" fill="#1466A0"/>
<path fill-rule="evenodd" clip-rule="evenodd" d="M40.9939 15.6517C41.0617 15.7927 41.0009 15.9622 40.8582 16.0299C40.7164 16.1 40.5448 16.0417 40.4768 15.9007C40.4096 15.7616 40.4706 15.5921 40.6125 15.5222C40.7553 15.4547 40.9268 15.5129 40.9939 15.6517Z" fill="#1466A0"/>
<path fill-rule="evenodd" clip-rule="evenodd" d="M35.2748 18.3623C35.3412 18.503 35.281 18.6709 35.139 18.7406C34.9956 18.81 34.824 18.7519 34.7576 18.6114C34.6898 18.4704 34.7499 18.3024 34.8932 18.233C35.0349 18.1629 35.2068 18.2213 35.2748 18.3623Z" fill="#1466A0"/>
<path fill-rule="evenodd" clip-rule="evenodd" d="M39.3814 20.1934C39.2395 20.2634 39.068 20.2052 38.9998 20.0641C38.9332 19.9235 38.9935 19.7556 39.1354 19.6857C39.279 19.6164 39.4505 19.6746 39.5169 19.815C39.5847 19.9559 39.5248 20.1239 39.3814 20.1934Z" fill="#1466A0"/>
<path fill-rule="evenodd" clip-rule="evenodd" d="M36.6151 14.5771C36.4717 14.6467 36.2999 14.5883 36.2335 14.4479C36.1651 14.3086 36.2261 14.139 36.3692 14.0695C36.5105 14.0013 36.6823 14.0597 36.7508 14.1989C36.8173 14.3394 36.7564 14.5092 36.6151 14.5771Z" fill="#1466A0"/>
<path fill-rule="evenodd" clip-rule="evenodd" d="M39.1086 28.8169L39.2307 28.7031L39.0982 28.8262L39.1086 28.8169Z" fill="#828388"/>
<path fill-rule="evenodd" clip-rule="evenodd" d="M42.2278 24.6321L40.6953 24.9331C40.7103 31.5518 39.254 34.9313 37.4986 40.1568L39.0321 39.853L39.0303 39.852C40.1326 37.4749 41.6114 35.0276 42.3578 32.5601C42.6909 31.4602 42.8872 30.346 42.9074 29.1446C42.9334 27.6062 42.6838 26.1505 42.2278 24.6321Z" fill="url(#paint7_linear)"/>
<path fill-rule="evenodd" clip-rule="evenodd" d="M40.6743 24.9197L37.2647 30.3887C37.6954 33.159 37.8261 36.3416 37.474 40.1473C39.8422 35.0463 42.6898 31.6174 40.6743 24.9197Z" fill="#1E2136"/>
<path fill-rule="evenodd" clip-rule="evenodd" d="M29.7527 20.353L30.7638 21.5215C26.5372 26.6989 25.528 30.2333 23.5785 35.3966L22.5683 34.2252L22.5706 34.2256C23.2191 31.6917 23.617 28.8744 24.6024 26.4863C25.0417 25.422 25.597 24.4295 26.3461 23.4757C27.3051 22.254 28.4277 21.2651 29.7527 20.353Z" fill="url(#paint8_linear)"/>
<path fill-rule="evenodd" clip-rule="evenodd" d="M30.778 21.5282L29.9691 27.8848C27.8683 29.7934 25.7403 32.2072 23.5945 35.4024C24.9847 29.9668 24.9355 25.5501 30.778 21.5282Z" fill="#1E2136"/>
<g style="mix-blend-mode:soft-light">
<path d="M39.6458 16.9303L36.8563 16.0788C37.229 15.7205 37.8101 15.5375 38.3577 15.7046C38.6978 15.8084 38.9665 16.0364 39.1465 16.3058L39.5889 16.4409C39.395 15.9526 38.9878 15.5811 38.451 15.4173C37.6123 15.1613 36.7243 15.5236 36.2942 16.272L36.312 16.2775L37.5611 16.6587L37.4279 17.0686L36.1323 16.6732L36.0308 16.9855L37.3264 17.381L36.8886 18.7279L37.2027 18.8237L37.6404 17.4768L37.8956 17.5547L37.4579 18.9016L37.7916 19.0035L38.2293 17.6566L39.0981 17.9218L39.1482 17.9371L39.4079 18.0163C39.4699 17.9065 39.5228 17.7862 39.5625 17.6638C39.641 17.4208 39.6665 17.1726 39.6458 16.9303ZM37.9971 17.2424L37.742 17.1645L37.8752 16.7546L38.1304 16.8325L37.9971 17.2424ZM38.3308 17.3443L38.4641 16.9343L39.3266 17.1976C39.3284 17.3054 39.2988 17.4578 39.2567 17.588C39.2528 17.6001 39.2513 17.6038 39.2447 17.6232L38.3308 17.3443Z" fill="white"/>
<path d="M39.6458 16.9303L36.8563 16.0788C37.229 15.7205 37.8101 15.5375 38.3577 15.7046C38.6978 15.8084 38.9665 16.0364 39.1465 16.3058L39.5889 16.4409C39.395 15.9526 38.9878 15.5811 38.451 15.4173C37.6123 15.1613 36.7243 15.5236 36.2942 16.272L36.312 16.2775L37.5611 16.6587L37.4279 17.0686L36.1323 16.6732L36.0308 16.9855L37.3264 17.381L36.8886 18.7279L37.2027 18.8237L37.6404 17.4768L37.8956 17.5547L37.4579 18.9016L37.7916 19.0035L38.2293 17.6566L39.0981 17.9218L39.1482 17.9371L39.4079 18.0163C39.4699 17.9065 39.5228 17.7862 39.5625 17.6638C39.641 17.4208 39.6665 17.1726 39.6458 16.9303ZM37.9971 17.2424L37.742 17.1645L37.8752 16.7546L38.1304 16.8325L37.9971 17.2424ZM38.3308 17.3443L38.4641 16.9343L39.3266 17.1976C39.3284 17.3054 39.2988 17.4578 39.2567 17.588C39.2528 17.6001 39.2513 17.6038 39.2447 17.6232L38.3308 17.3443Z" fill="white"/>
<path d="M38.638 14.7513C37.3212 14.3494 35.9038 15.0877 35.4783 16.397C35.0527 17.7064 35.7778 19.0986 37.0945 19.5005C38.4112 19.9024 39.8287 19.1642 40.2542 17.8548C40.6797 16.5455 39.9547 15.1533 38.638 14.7513ZM37.2023 19.1688C36.0695 18.823 35.4458 17.6253 35.8119 16.4988C36.1779 15.3724 37.3974 14.7373 38.5302 15.083C39.6629 15.4288 40.2867 16.6265 39.9206 17.753C39.5545 18.8795 38.3351 19.5146 37.2023 19.1688Z" fill="white"/>
</g>
<g style="mix-blend-mode:soft-light">
<path d="M39.637 16.9254L36.8475 16.074C37.2202 15.7157 37.8013 15.5326 38.3489 15.6997C38.689 15.8036 38.9577 16.0315 39.1377 16.301L39.5801 16.436C39.3862 15.9477 38.979 15.5762 38.4422 15.4124C37.6035 15.1564 36.7155 15.5187 36.2854 16.2671L36.3032 16.2726L37.5523 16.6539L37.4191 17.0638L36.1235 16.6683L36.022 16.9806L37.3176 17.3761L36.8798 18.723L37.1939 18.8189L37.6317 17.472L37.8868 17.5499L37.4491 18.8967L37.7828 18.9986L38.2205 17.6517L39.0893 17.9169L39.1394 17.9322L39.3991 18.0114C39.4611 17.9016 39.514 17.7814 39.5537 17.6589C39.6322 17.416 39.6577 17.1678 39.637 16.9254ZM37.9883 17.2375L37.7332 17.1596L37.8664 16.7497L38.1216 16.8276L37.9883 17.2375ZM38.322 17.3394L38.4553 16.9295L39.3178 17.1927C39.3196 17.3006 39.29 17.4529 39.2479 17.5831C39.244 17.5953 39.2425 17.5989 39.2359 17.6183L38.322 17.3394Z" fill="white"/>
<path d="M39.637 16.9254L36.8475 16.074C37.2202 15.7157 37.8013 15.5326 38.3489 15.6997C38.689 15.8036 38.9577 16.0315 39.1377 16.301L39.5801 16.436C39.3862 15.9477 38.979 15.5762 38.4422 15.4124C37.6035 15.1564 36.7155 15.5187 36.2854 16.2671L36.3032 16.2726L37.5523 16.6539L37.4191 17.0638L36.1235 16.6683L36.022 16.9806L37.3176 17.3761L36.8798 18.723L37.1939 18.8189L37.6317 17.472L37.8868 17.5499L37.4491 18.8967L37.7828 18.9986L38.2205 17.6517L39.0893 17.9169L39.1394 17.9322L39.3991 18.0114C39.4611 17.9016 39.514 17.7814 39.5537 17.6589C39.6322 17.416 39.6577 17.1678 39.637 16.9254ZM37.9883 17.2375L37.7332 17.1596L37.8664 16.7497L38.1216 16.8276L37.9883 17.2375ZM38.322 17.3394L38.4553 16.9295L39.3178 17.1927C39.3196 17.3006 39.29 17.4529 39.2479 17.5831C39.244 17.5953 39.2425 17.5989 39.2359 17.6183L38.322 17.3394Z" fill="white"/>
<path d="M38.6301 14.7465C37.3134 14.3446 35.896 15.0828 35.4705 16.3921C35.0449 17.7015 35.77 19.0937 37.0867 19.4956C38.4034 19.8976 39.8208 19.1593 40.2464 17.8499C40.6719 16.5406 39.9469 15.1484 38.6301 14.7465ZM37.1945 19.1639C36.0617 18.8182 35.438 17.6204 35.804 16.4939C36.1701 15.3675 37.3895 14.7324 38.5223 15.0782C39.6551 15.4239 40.2789 16.6217 39.9128 17.7481C39.5467 18.8746 38.3273 19.5097 37.1945 19.1639Z" fill="white"/>
</g>
<g style="mix-blend-mode:soft-light">
<path d="M39.6478 16.9274L36.8582 16.0759C37.2309 15.7176 37.812 15.5345 38.3596 15.7017C38.6997 15.8055 38.9685 16.0334 39.1484 16.3029L39.5909 16.438C39.397 15.9497 38.9898 15.5782 38.453 15.4143C37.6143 15.1583 36.7263 15.5207 36.2961 16.2691L36.314 16.2745L37.563 16.6558L37.4298 17.0657L36.1343 16.6703L36.0328 16.9826L37.3283 17.378L36.8906 18.7249L37.2047 18.8208L37.6424 17.4739L37.8976 17.5518L37.4599 18.8987L37.7936 19.0006L38.2313 17.6537L39.1 17.9188L39.1501 17.9341L39.4098 18.0134C39.4718 17.9036 39.5248 17.7833 39.5644 17.6609C39.643 17.4179 39.6684 17.1697 39.6478 16.9274ZM37.9991 17.2395L37.7439 17.1616L37.8771 16.7517L38.1323 16.8296L37.9991 17.2395ZM38.3328 17.3413L38.466 16.9314L39.3285 17.1947C39.3303 17.3025 39.3008 17.4549 39.2587 17.585C39.2547 17.5972 39.2533 17.6009 39.2466 17.6203L38.3328 17.3413Z" fill="white"/>
<path d="M39.6478 16.9274L36.8582 16.0759C37.2309 15.7176 37.812 15.5345 38.3596 15.7017C38.6997 15.8055 38.9685 16.0334 39.1484 16.3029L39.5909 16.438C39.397 15.9497 38.9898 15.5782 38.453 15.4143C37.6143 15.1583 36.7263 15.5207 36.2961 16.2691L36.314 16.2745L37.563 16.6558L37.4298 17.0657L36.1343 16.6703L36.0328 16.9826L37.3283 17.378L36.8906 18.7249L37.2047 18.8208L37.6424 17.4739L37.8976 17.5518L37.4599 18.8987L37.7936 19.0006L38.2313 17.6537L39.1 17.9188L39.1501 17.9341L39.4098 18.0134C39.4718 17.9036 39.5248 17.7833 39.5644 17.6609C39.643 17.4179 39.6684 17.1697 39.6478 16.9274ZM37.9991 17.2395L37.7439 17.1616L37.8771 16.7517L38.1323 16.8296L37.9991 17.2395ZM38.3328 17.3413L38.466 16.9314L39.3285 17.1947C39.3303 17.3025 39.3008 17.4549 39.2587 17.585C39.2547 17.5972 39.2533 17.6009 39.2466 17.6203L38.3328 17.3413Z" fill="white"/>
<path d="M38.6399 14.7484C37.3232 14.3465 35.9058 15.0847 35.4802 16.3941C35.0547 17.7034 35.7797 19.0957 37.0965 19.4976C38.4132 19.8995 39.8306 19.1612 40.2561 17.8519C40.6817 16.5425 39.9566 15.1503 38.6399 14.7484ZM37.2043 19.1659C36.0715 18.8201 35.4477 17.6224 35.8138 16.4959C36.1799 15.3695 37.3993 14.7343 38.5321 15.0801C39.6649 15.4259 40.2886 16.6236 39.9226 17.75C39.5565 18.8765 38.337 19.5117 37.2043 19.1659Z" fill="white"/>
</g>
<circle cx="25.9098" cy="47.4117" r="1.39414" fill="#4048FF"/>
<circle cx="14.8378" cy="46.5614" r="2.18254" fill="#FB6C77"/>
<circle cx="20.4889" cy="49.486" r="2.25455" fill="#4048FF"/>
<path d="M20.4763 45.8754L20.318 45.9841C20.2503 46.0307 20.1557 46.0136 20.1079 45.946L19.6752 45.3344C19.6274 45.2669 19.6437 45.1735 19.7114 45.1269L19.8697 45.0182C19.9375 44.9717 20.0321 44.9888 20.0799 45.0563L20.5126 45.668C20.5604 45.7355 20.5442 45.8289 20.4763 45.8754Z" fill="white"/>
<path d="M21.074 44.3766C21.1073 44.3239 21.1077 44.2538 21.069 44.1994C21.0176 44.1268 20.9159 44.1083 20.8433 44.1583L20.4667 44.417C20.4555 44.386 20.4407 44.2292 20.432 44.1749C20.4247 44.1281 20.401 44.0839 20.3734 44.0452C20.3388 43.9964 20.2937 43.9547 20.242 43.9237C20.1712 43.8812 20.0807 43.8483 20.0139 43.9149C19.9545 43.9742 19.9625 44.0787 20.0324 44.1277C20.0324 44.1277 20.0828 44.1651 20.0923 44.1848C20.1047 44.2098 20.0993 44.2683 20.0957 44.343C20.0883 44.4924 20.0807 44.6905 20.0878 44.7564C20.0961 44.8325 20.1122 44.8842 20.1415 44.9354C20.1449 44.9464 20.15 44.957 20.1571 44.9669L20.5516 45.5246C20.5881 45.5759 20.6599 45.5891 20.7114 45.5536L21.374 45.1009C21.4416 45.0545 21.4578 44.9616 21.4103 44.8941C21.3908 44.8668 21.3638 44.8479 21.334 44.838C21.3671 44.7887 21.3681 44.722 21.3317 44.6705C21.3098 44.6397 21.2782 44.6196 21.244 44.611C21.2712 44.5596 21.2694 44.4949 21.2334 44.4438C21.1962 44.3916 21.1336 44.3676 21.074 44.3766Z" fill="white"/>
<circle cx="25.7228" cy="56.9582" r="1.8361" fill="#4048FF"/>
<path d="M25.7114 53.0403L25.5825 53.1289C25.5274 53.1668 25.4503 53.1528 25.4114 53.0978L25.059 52.5997C25.0201 52.5447 25.0334 52.4687 25.0885 52.4308L25.2174 52.3422C25.2726 52.3043 25.3496 52.3183 25.3885 52.3733L25.741 52.8714C25.7799 52.9264 25.7667 53.0024 25.7114 53.0403Z" fill="white"/>
<path d="M26.1991 51.8202C26.2262 51.7773 26.2265 51.7202 26.195 51.6759C26.1532 51.6167 26.0703 51.6017 26.0112 51.6424L25.7045 51.853C25.6953 51.8278 25.6833 51.7002 25.6763 51.6559C25.6703 51.6178 25.651 51.5818 25.6285 51.5503C25.6004 51.5105 25.5636 51.4765 25.5215 51.4513C25.4639 51.4167 25.3901 51.3899 25.3357 51.4442C25.2873 51.4924 25.2939 51.5776 25.3508 51.6174C25.3508 51.6174 25.3919 51.648 25.3996 51.664C25.4097 51.6843 25.4053 51.7319 25.4024 51.7928C25.3964 51.9145 25.3902 52.0758 25.3959 52.1295C25.4027 52.1914 25.4158 52.2336 25.4397 52.2752C25.4424 52.2842 25.4466 52.2928 25.4524 52.3009L25.7736 52.7551C25.8034 52.7969 25.8618 52.8076 25.9038 52.7787L26.4434 52.41C26.4985 52.3722 26.5116 52.2966 26.473 52.2416C26.4571 52.2194 26.4351 52.204 26.4108 52.1959C26.4378 52.1558 26.4386 52.1014 26.409 52.0595C26.3911 52.0344 26.3654 52.018 26.3375 52.0111C26.3597 51.9692 26.3582 51.9165 26.3289 51.8749C26.2986 51.8324 26.2476 51.8128 26.1991 51.8202Z" fill="white"/>
<circle cx="38.0278" cy="55.1225" r="2.73284" fill="#4048FF"/>
<path d="M38.0125 51.6081L37.8206 51.7398C37.7385 51.7963 37.6239 51.7755 37.5659 51.6936L37.0414 50.9522C36.9835 50.8704 37.0032 50.7572 37.0853 50.7007L37.2772 50.569C37.3593 50.5125 37.474 50.5333 37.5319 50.6152L38.0564 51.3566C38.1144 51.4384 38.0948 51.5516 38.0125 51.6081Z" fill="white"/>
<path d="M38.7381 49.7918C38.7785 49.728 38.7789 49.643 38.7321 49.5771C38.6698 49.489 38.5465 49.4667 38.4585 49.5273L38.002 49.8408C37.9884 49.8032 37.9705 49.6132 37.96 49.5473C37.9511 49.4907 37.9224 49.4371 37.8889 49.3901C37.847 49.331 37.7923 49.2804 37.7296 49.2428C37.6439 49.1914 37.5341 49.1514 37.4531 49.2322C37.3811 49.3041 37.3908 49.4308 37.4756 49.4901C37.4756 49.4901 37.5367 49.5355 37.5482 49.5594C37.5632 49.5896 37.5566 49.6605 37.5523 49.7511C37.5433 49.9322 37.5342 50.1723 37.5427 50.2523C37.5527 50.3444 37.5723 50.4071 37.6078 50.4692C37.6119 50.4825 37.6181 50.4953 37.6267 50.5073L38.1049 51.1834C38.1492 51.2456 38.2362 51.2615 38.2986 51.2186L39.1018 50.6698C39.1838 50.6136 39.2033 50.5009 39.1458 50.4192C39.1221 50.386 39.0895 50.3631 39.0533 50.3511C39.0935 50.2914 39.0947 50.2105 39.0505 50.1481C39.024 50.1108 38.9857 50.0864 38.9442 50.076C38.9772 50.0137 38.975 49.9353 38.9313 49.8733C38.8863 49.81 38.8103 49.7809 38.7381 49.7918Z" fill="white"/>
<circle cx="29.4389" cy="51.4897" r="1.13524" fill="#4048FF"/>
<path d="M29.4307 47.38L29.351 47.4348C29.3169 47.4582 29.2693 47.4496 29.2452 47.4156L29.0273 47.1076C29.0032 47.0736 29.0115 47.0266 29.0456 47.0031L29.1253 46.9484C29.1594 46.925 29.207 46.9336 29.2311 46.9676L29.449 47.2756C29.473 47.3096 29.4649 47.3566 29.4307 47.38Z" fill="white"/>
<path d="M29.7345 46.6255C29.7513 46.5989 29.7515 46.5636 29.732 46.5362C29.7061 46.4997 29.6549 46.4904 29.6184 46.5156L29.4287 46.6458C29.4231 46.6302 29.4156 46.5513 29.4113 46.5239C29.4076 46.5003 29.3957 46.4781 29.3817 46.4586C29.3644 46.434 29.3416 46.413 29.3156 46.3974C29.28 46.376 29.2344 46.3594 29.2007 46.393C29.1708 46.4228 29.1748 46.4755 29.2101 46.5001C29.2101 46.5001 29.2354 46.519 29.2402 46.5289C29.2465 46.5414 29.2437 46.5709 29.2419 46.6086C29.2382 46.6838 29.2344 46.7835 29.238 46.8167C29.2421 46.855 29.2503 46.8811 29.265 46.9068C29.2667 46.9124 29.2693 46.9177 29.2729 46.9227L29.4715 47.2035C29.4899 47.2294 29.526 47.236 29.552 47.2181L29.8856 46.9902C29.9196 46.9668 29.9278 46.92 29.9039 46.8861C29.894 46.8723 29.8805 46.8628 29.8654 46.8578C29.8821 46.833 29.8826 46.7994 29.8643 46.7735C29.8533 46.7579 29.8373 46.7478 29.8201 46.7435C29.8338 46.7176 29.8329 46.685 29.8148 46.6593C29.7961 46.633 29.7645 46.6209 29.7345 46.6255Z" fill="white"/>
<circle cx="18.6922" cy="41.5038" r="1.4188" fill="#4048FF"/>
<path d="M18.6833 37.6881L18.5837 37.7565C18.541 37.7858 18.4815 37.775 18.4514 37.7325L18.1791 37.3476C18.1491 37.3051 18.1593 37.2464 18.202 37.2171L18.3016 37.1486C18.3442 37.1194 18.4037 37.1301 18.4338 37.1726L18.7061 37.5575C18.7362 37.6 18.726 37.6588 18.6833 37.6881Z" fill="white"/>
<path d="M19.0591 36.7454C19.0801 36.7122 19.0803 36.6681 19.056 36.6339C19.0237 36.5882 18.9597 36.5766 18.914 36.608L18.677 36.7708C18.6699 36.7513 18.6606 36.6527 18.6552 36.6185C18.6505 36.589 18.6356 36.5612 18.6182 36.5368C18.5965 36.5061 18.5681 36.4799 18.5355 36.4604C18.491 36.4337 18.434 36.4129 18.392 36.4549C18.3546 36.4922 18.3597 36.5579 18.4037 36.5887C18.4037 36.5887 18.4354 36.6123 18.4414 36.6247C18.4492 36.6404 18.4458 36.6772 18.4435 36.7243C18.4389 36.8183 18.4341 36.9429 18.4385 36.9844C18.4437 37.0323 18.4539 37.0648 18.4723 37.0971C18.4744 37.104 18.4777 37.1106 18.4822 37.1168L18.7304 37.4678C18.7534 37.5001 18.7986 37.5084 18.831 37.4861L19.2479 37.2012C19.2905 37.172 19.3007 37.1135 19.2708 37.0711C19.2585 37.0539 19.2415 37.042 19.2228 37.0357C19.2436 37.0047 19.2442 36.9628 19.2213 36.9303C19.2076 36.911 19.1877 36.8983 19.1661 36.8929C19.1833 36.8606 19.1821 36.8199 19.1594 36.7877C19.136 36.7548 19.0966 36.7397 19.0591 36.7454Z" fill="white"/>
<path d="M25.9013 43.481L25.8034 43.5482C25.7615 43.577 25.703 43.5664 25.6735 43.5246L25.4059 43.1464C25.3763 43.1047 25.3864 43.0469 25.4283 43.0181L25.5262 42.9509C25.5681 42.9221 25.6266 42.9327 25.6561 42.9745L25.9237 43.3527C25.9532 43.3944 25.9432 43.4522 25.9013 43.481Z" fill="white"/>
<path d="M26.2718 42.5549C26.2924 42.5223 26.2926 42.4789 26.2687 42.4453C26.237 42.4004 26.1741 42.389 26.1291 42.4199L25.8963 42.5798C25.8893 42.5607 25.8802 42.4637 25.8748 42.4301C25.8703 42.4012 25.8557 42.3739 25.8386 42.3499C25.8172 42.3197 25.7893 42.2939 25.7573 42.2748C25.7136 42.2485 25.6576 42.2282 25.6163 42.2694C25.5795 42.306 25.5845 42.3707 25.6277 42.4009C25.6277 42.4009 25.6589 42.4241 25.6647 42.4363C25.6724 42.4517 25.6691 42.4879 25.6669 42.5341C25.6623 42.6265 25.6576 42.7489 25.662 42.7897C25.6671 42.8367 25.6771 42.8687 25.6952 42.9004C25.6973 42.9072 25.7004 42.9137 25.7048 42.9199L25.9488 43.2647C25.9713 43.2965 26.0157 43.3046 26.0476 43.2827L26.4573 43.0027C26.4992 42.9741 26.5091 42.9166 26.4798 42.8749C26.4677 42.858 26.451 42.8463 26.4326 42.8402C26.4531 42.8097 26.4537 42.7684 26.4312 42.7366C26.4176 42.7175 26.3981 42.7051 26.3769 42.6998C26.3938 42.668 26.3927 42.628 26.3704 42.5964C26.3474 42.5641 26.3086 42.5493 26.2718 42.5549Z" fill="white"/>
<path d="M14.1498 41.6268C14.4323 41.4652 14.6847 41.6441 14.7764 41.7243C14.7916 41.6046 14.8619 41.3068 15.1826 41.2459C15.6468 41.1577 15.9137 41.6817 15.6601 42.2174C15.4115 42.7425 15.2245 42.8997 15.2245 42.8997C15.2245 42.8997 14.9801 42.9014 14.4411 42.6669C13.8911 42.4276 13.7413 41.8606 14.1498 41.6268Z" fill="white"/>
<circle cx="33.2548" cy="47.19" r="2.18254" transform="rotate(43.4779 33.2548 47.19)" fill="#FB6C77"/>
<path d="M32.9761 41.8835C33.2942 41.957 33.3519 42.2574 33.3622 42.3776C33.4572 42.301 33.7169 42.1323 33.9921 42.3048C34.3906 42.5543 34.217 43.115 33.6576 43.3326C33.1092 43.5458 32.8635 43.5337 32.8635 43.5337C32.8635 43.5337 32.685 43.3699 32.4584 42.8354C32.2272 42.2902 32.516 41.7773 32.9761 41.8835Z" fill="white"/>
<circle cx="18.1703" cy="55.2016" r="0.972906" transform="rotate(43.4779 18.1703 55.2016)" fill="#FB6C77"/>
<path d="M18.0437 50.198C18.1855 50.2308 18.2112 50.3647 18.2158 50.4183C18.2581 50.3841 18.3739 50.3089 18.4966 50.3858C18.6742 50.4971 18.5968 50.747 18.3475 50.844C18.103 50.939 17.9935 50.9336 17.9935 50.9336C17.9935 50.9336 17.9139 50.8606 17.8129 50.6224C17.7098 50.3793 17.8386 50.1507 18.0437 50.198Z" fill="white"/>
<circle cx="35.3705" cy="42.7416" r="0.972906" transform="rotate(43.4779 35.3705 42.7416)" fill="#FB6C77"/>
<path d="M35.2439 37.9597C35.3857 37.9925 35.4114 38.1264 35.416 38.18C35.4583 38.1458 35.5741 38.0706 35.6968 38.1475C35.8744 38.2588 35.797 38.5087 35.5477 38.6057C35.3032 38.7008 35.1937 38.6953 35.1937 38.6953C35.1937 38.6953 35.1141 38.6223 35.0131 38.3841C34.91 38.141 35.0388 37.9124 35.2439 37.9597Z" fill="white"/>
<g filter="url(#filter0_f)">
<circle cx="26.4953" cy="41.9952" r="0.969161" transform="rotate(15.5444 26.4953 41.9952)" fill="#FB6C77"/>
<path d="M26.218 37.3267C26.3583 37.2899 26.4441 37.3959 26.4733 37.4409C26.4945 37.3913 26.561 37.2716 26.7053 37.2825C26.9141 37.2983 26.9636 37.554 26.7898 37.7547C26.6194 37.9514 26.5204 37.9973 26.5204 37.9973C26.5204 37.9973 26.4159 37.9698 26.2148 37.8068C26.0095 37.6406 26.0152 37.3798 26.218 37.3267Z" fill="white"/>
</g>
</g>
</g>
<defs>
<filter id="filter0_f" x="25.0996" y="37.0801" width="2.79111" height="6.31065" filterUnits="userSpaceOnUse" color-interpolation-filters="sRGB">
<feFlood flood-opacity="0" result="BackgroundImageFix"/>
<feBlend mode="normal" in="SourceGraphic" in2="BackgroundImageFix" result="shape"/>
<feGaussianBlur stdDeviation="0.101062" result="effect1_foregroundBlur"/>
</filter>
<linearGradient id="paint0_linear" x1="57.7454" y1="-4.31425" x2="-23.3808" y2="19.0978" gradientUnits="userSpaceOnUse">
<stop stop-color="#162746"/>
<stop offset="0.927083" stop-color="#4048FF"/>
</linearGradient>
<linearGradient id="paint1_linear" x1="52.8923" y1="13.4775" x2="2.58634" y2="74.2508" gradientUnits="userSpaceOnUse">
<stop stop-color="#FF5562"/>
<stop offset="0.927083" stop-color="#4080FF"/>
</linearGradient>
<linearGradient id="paint2_linear" x1="32.7818" y1="29.8211" x2="26.388" y2="48.6341" gradientUnits="userSpaceOnUse">
<stop stop-color="#DB2026"/>
<stop offset="0.505208" stop-color="#4080FF"/>
<stop offset="1" stop-color="#DB2026" stop-opacity="0"/>
</linearGradient>
<linearGradient id="paint3_linear" x1="18.9062" y1="38.1941" x2="42.4908" y2="31.3278" gradientUnits="userSpaceOnUse">
<stop stop-color="#0B1D69"/>
<stop offset="1" stop-color="#4080FF"/>
</linearGradient>
<linearGradient id="paint4_linear" x1="28.4681" y1="29.3863" x2="40.1596" y2="31.1058" gradientUnits="userSpaceOnUse">
<stop stop-color="#0B1D69"/>
<stop offset="1" stop-color="#4080FF"/>
</linearGradient>
<linearGradient id="paint5_linear" x1="36.015" y1="4.52654" x2="51.6596" y2="7.29335" gradientUnits="userSpaceOnUse">
<stop stop-color="#0B1D69"/>
<stop offset="1" stop-color="#4080FF"/>
</linearGradient>
<linearGradient id="paint6_linear" x1="35.2408" y1="16.6144" x2="42.4294" y2="17.8966" gradientUnits="userSpaceOnUse">
<stop stop-color="#0B1D69"/>
<stop offset="1" stop-color="#4080FF"/>
</linearGradient>
<linearGradient id="paint7_linear" x1="38.6586" y1="32.5301" x2="43.4183" y2="33.7084" gradientUnits="userSpaceOnUse">
<stop stop-color="#0B1D69"/>
<stop offset="1" stop-color="#4080FF"/>
</linearGradient>
<linearGradient id="paint8_linear" x1="24.1355" y1="27.673" x2="30.5205" y2="29.211" gradientUnits="userSpaceOnUse">
<stop stop-color="#0B1D69"/>
<stop offset="1" stop-color="#4080FF"/>
</linearGradient>
</defs>
</svg>
