<svg width="24" height="23" viewBox="0 0 24 23" fill="none" xmlns="http://www.w3.org/2000/svg">
<path d="M11.9708 14.0378C12.5557 14.0378 13.1166 13.8166 13.5301 13.4228C13.9437 13.029 14.176 12.4948 14.176 11.9379C14.176 11.3809 13.9437 10.8468 13.5301 10.453C13.1166 10.0591 12.5557 9.83789 11.9708 9.83789C11.386 9.83789 10.8251 10.0591 10.4115 10.453C9.99796 10.8468 9.76562 11.3809 9.76562 11.9379C9.76562 12.4948 9.99796 13.029 10.4115 13.4228C10.8251 13.8166 11.386 14.0378 11.9708 14.0378Z" stroke="#4048FF" stroke-width="1.5" stroke-linecap="round" stroke-linejoin="round"/>
<path d="M22.9999 2.04999V6.77179C22.9999 6.91186 22.9414 7.0462 22.8374 7.14525C22.7334 7.24429 22.5923 7.29994 22.4453 7.29994C22.2247 7.29994 22.0263 7.17499 21.9314 6.98494C21.0352 5.19324 19.6241 3.68009 17.8617 2.62083C16.0994 1.56157 14.0579 0.999588 11.9738 1C6.25573 1 1.55423 5.14431 1.00293 10.4499" stroke="#4048FF" stroke-width="1.5" stroke-linecap="round" stroke-linejoin="round"/>
<path d="M5.35535 16.1201V8.76386C5.35535 8.59677 5.42505 8.43653 5.54911 8.31839C5.67318 8.20024 5.84145 8.13386 6.01691 8.13386H7.31026C7.42085 8.1338 7.52966 8.10734 7.62674 8.0569C7.72382 8.00646 7.80607 7.93364 7.86597 7.84512L9.46034 5.48894C9.52024 5.40042 9.60249 5.3276 9.69957 5.27716C9.79665 5.22672 9.90546 5.20026 10.016 5.2002H13.9259C14.0365 5.20026 14.1453 5.22672 14.2424 5.27716C14.3394 5.3276 14.4217 5.40042 14.4816 5.48894L16.076 7.84512C16.1359 7.93364 16.2181 8.00646 16.3152 8.0569C16.4123 8.10734 16.5211 8.1338 16.6317 8.13386H17.925C18.1005 8.13386 18.2687 8.20024 18.3928 8.31839C18.5169 8.43653 18.5866 8.59677 18.5866 8.76386V16.1201C18.5866 16.2028 18.5695 16.2847 18.5362 16.3612C18.503 16.4376 18.4542 16.5071 18.3928 16.5656C18.3314 16.6241 18.2585 16.6705 18.1782 16.7021C18.0979 16.7338 18.0119 16.7501 17.925 16.7501H6.01691C5.93003 16.7501 5.844 16.7338 5.76374 16.7021C5.68348 16.6705 5.61055 16.6241 5.54911 16.5656C5.48768 16.5071 5.43895 16.4376 5.40571 16.3612C5.37246 16.2847 5.35535 16.2028 5.35535 16.1201V16.1201Z" stroke="#4048FF" stroke-width="1.5" stroke-linecap="round" stroke-linejoin="round"/>
<path d="M1 20.9497V16.2279C1 15.936 1.24919 15.6998 1.55571 15.6998C1.77623 15.6998 1.9747 15.8247 2.06953 16.0148C2.9657 17.8063 4.37661 19.3194 6.13876 20.3786C7.90091 21.4378 9.94218 21.9999 12.026 21.9997C17.7441 21.9997 22.4456 17.8554 22.998 12.5498" stroke="#4048FF" stroke-width="1.5" stroke-linecap="round" stroke-linejoin="round"/>
</svg>
