<svg width="18" height="20" viewBox="0 0 18 20" fill="none" xmlns="http://www.w3.org/2000/svg">
<path d="M0.714286 20C0.524845 20 0.343164 19.9247 0.20921 19.7908C0.075255 19.6568 0 19.4752 0 19.2857C0 19.0963 0.075255 18.9146 0.20921 18.7806C0.343164 18.6467 0.524845 18.5714 0.714286 18.5714H2.14286V17.1429C2.14256 15.93 2.48541 14.7417 3.13179 13.7154C3.77816 12.6891 4.7017 11.8666 5.79571 11.3429C6.21 11.1443 6.42857 10.8043 6.42857 10.5V9.5C6.42857 9.19571 6.20857 8.85571 5.79571 8.65714C4.7017 8.13344 3.77816 7.31092 3.13179 6.2846C2.48541 5.25829 2.14256 4.07004 2.14286 2.85714V1.42857H0.714286C0.524845 1.42857 0.343164 1.35332 0.20921 1.21936C0.075255 1.08541 0 0.903726 0 0.714286C0 0.524845 0.075255 0.343164 0.20921 0.209209C0.343164 0.0752549 0.524845 0 0.714286 0H16.4286C16.618 0 16.7997 0.0752549 16.9336 0.209209C17.0676 0.343164 17.1429 0.524845 17.1429 0.714286C17.1429 0.903726 17.0676 1.08541 16.9336 1.21936C16.7997 1.35332 16.618 1.42857 16.4286 1.42857H15V2.85714C15.0003 4.07004 14.6574 5.25829 14.0111 6.2846C13.3647 7.31092 12.4412 8.13344 11.3471 8.65714C10.9329 8.85571 10.7143 9.19571 10.7143 9.5V10.5C10.7143 10.8043 10.9343 11.1443 11.3471 11.3429C12.4412 11.8666 13.3647 12.6891 14.0111 13.7154C14.6574 14.7417 15.0003 15.93 15 17.1429V18.5714H16.4286C16.618 18.5714 16.7997 18.6467 16.9336 18.7806C17.0676 18.9146 17.1429 19.0963 17.1429 19.2857C17.1429 19.4752 17.0676 19.6568 16.9336 19.7908C16.7997 19.9247 16.618 20 16.4286 20H0.714286ZM3.57143 1.42857V2.85714C3.57143 3.62429 3.74286 4.35 4.05286 5H13.09C13.3986 4.35 13.5714 3.62429 13.5714 2.85714V1.42857H3.57143ZM7.85714 10.5C7.85714 11.5014 7.17428 12.2657 6.41286 12.6314C5.56185 13.0387 4.84344 13.6785 4.34064 14.4768C3.83784 15.2751 3.57117 16.1994 3.57143 17.1429C3.57143 17.1429 4.80857 15.2871 7.85714 15.0286V10.5ZM9.28571 10.5V15.0286C12.3343 15.2871 13.5714 17.1429 13.5714 17.1429C13.5717 16.1994 13.305 15.2751 12.8022 14.4768C12.2994 13.6785 11.581 13.0387 10.73 12.6314C9.96857 12.2657 9.28571 11.5029 9.28571 10.5014V10.5Z" fill="white"/>
</svg>
