<svg width="135" height="139" viewBox="0 0 135 139" fill="none" xmlns="http://www.w3.org/2000/svg">
<g filter="url(#filter0_d)">
<rect x="9.45996" y="5.16284" width="115.793" height="120" rx="57.8964" fill="white"/>
<rect x="7.45996" y="3.16284" width="119.793" height="124" rx="59.8964" stroke="white" stroke-width="4"/>
</g>
<path d="M42.4977 52.4144H42.2703C46.9221 43.2705 56.4211 37.0048 67.3836 37.0048C74.4552 37.0048 80.9162 39.6107 85.8611 43.9149H86.034H97.2576C90.6125 34.5888 79.7082 28.5054 67.3836 28.5054C48.5754 28.5054 33.0776 42.6693 30.9715 60.9138L54.6363 60.9119V69.4095H30.9678L30.9772 69.4753C31.321 72.4061 32.0105 75.2299 33.0025 77.909H54.6325V99.5391C57.3285 100.539 60.1786 101.232 63.1301 101.574V77.9109H71.6277V101.576C74.5811 101.234 77.4293 100.542 80.1253 99.5409V77.909H101.755C103.228 73.9392 104.032 69.6444 104.032 65.1617C104.032 60.679 103.228 56.3842 101.755 52.4144H96.7222H42.4977ZM71.6296 69.4114H63.132V60.9138H71.6296V69.4114ZM95.2192 69.4114H80.129V60.9138H95.2192C95.4296 62.3003 95.5386 63.7188 95.5386 65.1636C95.5386 66.6064 95.4296 68.0249 95.2192 69.4114Z" fill="#1F2337"/>
<path d="M67.355 11.4226C37.6745 11.4226 13.6152 35.4838 13.6152 65.1624C13.6152 94.841 37.6745 118.902 67.355 118.902C97.0355 118.902 121.095 94.841 121.095 65.1624C121.095 35.4838 97.0355 11.4226 67.355 11.4226ZM67.355 110.39C42.377 110.39 22.1279 90.1404 22.1279 65.1624C22.1279 40.1844 42.377 19.9352 67.355 19.9352C92.333 19.9352 112.582 40.1844 112.582 65.1624C112.582 90.1404 92.333 110.39 67.355 110.39Z" fill="#1F2337"/>
<defs>
<filter id="filter0_d" x="0.459961" y="0.162842" width="133.793" height="138" filterUnits="userSpaceOnUse" color-interpolation-filters="sRGB">
<feFlood flood-opacity="0" result="BackgroundImageFix"/>
<feColorMatrix in="SourceAlpha" type="matrix" values="0 0 0 0 0 0 0 0 0 0 0 0 0 0 0 0 0 0 127 0"/>
<feOffset dy="4"/>
<feGaussianBlur stdDeviation="2.5"/>
<feColorMatrix type="matrix" values="0 0 0 0 0 0 0 0 0 0 0 0 0 0 0 0 0 0 0.4 0"/>
<feBlend mode="normal" in2="BackgroundImageFix" result="effect1_dropShadow"/>
<feBlend mode="normal" in="SourceGraphic" in2="effect1_dropShadow" result="shape"/>
</filter>
</defs>
</svg>
