<svg width="156" height="51" viewBox="0 0 156 51" fill="none" xmlns="http://www.w3.org/2000/svg">
<path d="M14.0183 19.7995H13.9133C16.0621 15.5756 20.4501 12.6812 25.5141 12.6812C28.7807 12.6812 31.7653 13.885 34.0496 15.8732H34.1294H39.3141C36.2444 11.5651 31.2073 8.75497 25.5141 8.75497C16.8258 8.75497 9.66677 15.2978 8.69389 23.7257L19.6256 23.7249V27.6502H8.69215L8.69649 27.6806C8.85531 29.0345 9.17382 30.3389 9.63206 31.5765H19.6238V41.5683C20.8692 42.03 22.1858 42.3502 23.5492 42.5082V31.5773H27.4746V42.509C28.8389 42.3511 30.1546 42.0317 31.4 41.5691V31.5765H41.3917C42.0722 29.7427 42.4436 27.7587 42.4436 25.688C42.4436 23.6172 42.0722 21.6333 41.3917 19.7995H39.0667H14.0183ZM27.4755 27.6511H23.5501V23.7257H27.4755V27.6511ZM38.3724 27.6511H31.4017V23.7257H38.3724C38.4696 24.3662 38.52 25.0215 38.52 25.6888C38.52 26.3554 38.4696 27.0106 38.3724 27.6511Z" fill="white"/>
<path d="M25.5003 0.863434C11.7897 0.863434 0.675781 11.9782 0.675781 25.688C0.675781 39.3977 11.7897 50.5125 25.5003 50.5125C39.2109 50.5125 50.3249 39.3977 50.3249 25.688C50.3249 11.9782 39.2109 0.863434 25.5003 0.863434ZM25.5003 46.5802C13.962 46.5802 4.6081 37.2263 4.6081 25.688C4.6081 14.1496 13.962 4.79575 25.5003 4.79575C37.0386 4.79575 46.3925 14.1496 46.3925 25.688C46.3925 37.2263 37.0386 46.5802 25.5003 46.5802Z" fill="white"/>
<path d="M72.9477 22.5549C67.4524 21.1472 66.0898 20.466 66.0898 18.377V18.2859C66.0898 16.7419 67.4975 15.5165 70.1775 15.5165C72.8566 15.5165 75.6268 16.6968 78.4431 18.6495L82.076 13.3824C78.8518 10.7936 74.9004 9.33987 70.2686 9.33987C63.7743 9.33987 59.1425 13.155 59.1425 18.9229V19.0131C59.1425 25.326 63.2753 27.0974 69.6785 28.7316C74.9916 30.0941 76.0816 31.0028 76.0816 32.7732V32.8643C76.0816 34.7259 74.3563 35.862 71.4949 35.862C67.862 35.862 64.8644 34.3632 62.0039 32.0008L57.8711 36.9511C61.6862 40.3567 66.5454 42.0377 71.3587 42.0377C78.2157 42.0377 83.0298 38.4951 83.0298 32.1831V32.0919C83.0289 26.5515 79.396 24.2351 72.9477 22.5549Z" fill="white"/>
<path d="M134.283 9.79373V16.242H141.499V41.5829H148.493V16.242H155.708V9.79373H134.283Z" fill="white"/>
<path d="M111.764 16.242H118.979V41.5829H125.973V16.242H133.189V9.79373H111.764V16.242Z" fill="white"/>
<path d="M103.084 17.6297C101.343 16.7462 99.3742 16.2472 97.2914 16.2472C90.2095 16.2472 84.4478 22.009 84.4478 29.0908C84.4478 36.1726 90.2095 41.9344 97.2914 41.9344C99.3742 41.9344 101.342 41.4354 103.084 40.5519V41.9344H110.135V16.2472H103.084V17.6297ZM97.2914 34.8839C94.0976 34.8839 91.4992 32.2855 91.4992 29.0917C91.4992 25.8971 94.0976 23.2995 97.2914 23.2995C100.485 23.2995 103.084 25.8979 103.084 29.0917C103.084 32.2855 100.484 34.8839 97.2914 34.8839Z" fill="white"/>
</svg>
