<svg width="51" height="51" viewBox="0 0 51 51" fill="none" xmlns="http://www.w3.org/2000/svg">
<circle cx="25.2405" cy="25.4546" r="25" fill="#4048FF"/>
<path d="M42.4206 21.7678C42.1688 20.7121 41.8312 19.374 41.4196 18.8644H40.5528H39.1661H38.0123H32.4635H12.3748C14.3481 14.2778 19.4097 11.5225 25.1937 11.5225C28.6716 11.5225 31.8874 12.2393 34.3285 14.2778H38.8896C38.0317 13.5134 37.0139 12.3445 35.8566 11.5406C32.8806 9.47203 29.0933 8.34729 25.1937 8.34729C21.2938 8.34729 17.5067 9.49369 14.5303 11.5617C11.5057 13.6637 9.42969 16.6794 8.68462 19.9764L8.25399 21.9222H20.513V25.9992H7.51758V29.0569H20.513V42.562H23.5708V29.0569H26.3737V42.562H29.5058V29.0569H39.5771H42.6328H42.7477C43.1182 26.5088 43.0145 24.2527 42.4206 21.7678ZM26.3737 25.9992H23.5708V21.9222H26.3737V25.9992ZM29.5058 25.9992V21.9222H39.1798C39.2433 21.9222 39.3044 22.3289 39.3592 22.5569C39.6393 23.7288 39.7942 24.9799 39.8266 25.9992H29.5058Z" fill="white"/>
</svg>
