<svg width="189" height="61" viewBox="0 0 189 61" fill="none" xmlns="http://www.w3.org/2000/svg">
<path d="M17.0713 23.7943H16.9444C19.5412 18.6898 24.844 15.1921 30.9637 15.1921C34.9114 15.1921 38.5183 16.6467 41.2787 19.0496H41.3752H47.6408C43.9312 13.8433 37.8439 10.4473 30.9637 10.4473C20.4642 10.4473 11.8126 18.3542 10.6369 28.5391L23.8476 28.5381V33.2818H10.6348L10.64 33.3185C10.8319 34.9547 11.2169 36.531 11.7706 38.0266H23.8455V50.1015C25.3505 50.6595 26.9416 51.0465 28.5892 51.2374V38.0277H33.333V51.2384C34.9817 51.0475 36.5717 50.6616 38.0767 50.1026V38.0266H50.1516C50.9739 35.8105 51.4228 33.4129 51.4228 30.9105C51.4228 28.408 50.9739 26.0105 50.1516 23.7943H47.3419H17.0713ZM33.334 33.2829H28.5903V28.5391H33.334V33.2829ZM46.5028 33.2829H38.0788V28.5391H46.5028C46.6203 29.3132 46.6811 30.105 46.6811 30.9115C46.6811 31.717 46.6203 32.5089 46.5028 33.2829Z" fill="white"/>
<path d="M30.9473 0.910156C14.3783 0.910156 0.947266 14.3422 0.947266 30.9102C0.947266 47.4781 14.3783 60.9102 30.9473 60.9102C47.5163 60.9102 60.9473 47.4781 60.9473 30.9102C60.9473 14.3422 47.5163 0.910156 30.9473 0.910156ZM30.9473 56.158C17.0034 56.158 5.6994 44.854 5.6994 30.9102C5.6994 16.9663 17.0034 5.66229 30.9473 5.66229C44.8911 5.66229 56.1951 16.9663 56.1951 30.9102C56.1951 44.854 44.8911 56.158 30.9473 56.158Z" fill="white"/>
<path d="M88.2862 27.1235C81.6452 25.4223 79.9986 24.599 79.9986 22.0745V21.9644C79.9986 20.0986 81.6997 18.6177 84.9384 18.6177C88.1761 18.6177 91.5239 20.044 94.9273 22.4038L99.3176 16.0387C95.4213 12.9101 90.646 11.1533 85.0486 11.1533C77.2004 11.1533 71.6029 15.7639 71.6029 22.7342V22.8433C71.6029 30.4723 76.5973 32.6129 84.3354 34.5878C90.7562 36.2344 92.0735 37.3325 92.0735 39.4721V39.5822C92.0735 41.8319 89.9884 43.2048 86.5305 43.2048C82.1402 43.2048 78.5177 41.3935 75.0608 38.5387L70.0664 44.521C74.6769 48.6365 80.5492 50.6681 86.3659 50.6681C94.6525 50.6681 100.47 46.3869 100.47 38.7589V38.6488C100.469 31.9532 96.0788 29.1539 88.2862 27.1235Z" fill="white"/>
<path d="M162.41 11.7021V19.4948H171.13V50.1188H179.582V19.4948H188.302V11.7021H162.41Z" fill="white"/>
<path d="M135.195 19.4948H143.915V50.1188H152.367V19.4948H161.087V11.7021H135.195V19.4948Z" fill="white"/>
<path d="M124.705 21.1717C122.601 20.104 120.222 19.501 117.705 19.501C109.147 19.501 102.184 26.464 102.184 35.0222C102.184 43.5805 109.147 50.5435 117.705 50.5435C120.222 50.5435 122.6 49.9404 124.705 48.8727V50.5435H133.226V19.501H124.705V21.1717ZM117.705 42.023C113.845 42.023 110.705 38.8829 110.705 35.0233C110.705 31.1626 113.845 28.0236 117.705 28.0236C121.564 28.0236 124.705 31.1637 124.705 35.0233C124.705 38.8829 121.563 42.023 117.705 42.023Z" fill="white"/>
</svg>
