<svg width="188" height="61" viewBox="0 0 188 61" fill="none" xmlns="http://www.w3.org/2000/svg">
<path d="M16.2339 23.6745H16.107C18.7038 18.5699 24.0066 15.0722 30.1263 15.0722C34.074 15.0722 37.6809 16.5269 40.4413 18.9297H40.5378H46.8034C43.0938 13.7234 37.0065 10.3274 30.1263 10.3274C19.6268 10.3274 10.9752 18.2343 9.79946 28.4193L23.0102 28.4182V33.162H9.79736L9.80261 33.1987C9.99454 34.8348 10.3794 36.4112 10.9332 37.9067H23.0081V49.9816C24.5131 50.5396 26.1042 50.9266 27.7518 51.1175V37.9078H32.4956V51.1185C34.1443 50.9277 35.7343 50.5417 37.2393 49.9827V37.9067H49.3142C50.1365 35.6906 50.5854 33.2931 50.5854 30.7906C50.5854 28.2882 50.1365 25.8906 49.3142 23.6745H46.5045H16.2339ZM32.4966 33.163H27.7529V28.4193H32.4966V33.163ZM45.6654 33.163H37.2414V28.4193H45.6654C45.7829 29.1933 45.8437 29.9851 45.8437 30.7917C45.8437 31.5971 45.7829 32.389 45.6654 33.163Z" fill="white"/>
<path d="M30.1094 0.790527C13.5404 0.790527 0.109375 14.2226 0.109375 30.7905C0.109375 47.3585 13.5404 60.7905 30.1094 60.7905C46.6784 60.7905 60.1094 47.3585 60.1094 30.7905C60.1094 14.2226 46.6784 0.790527 30.1094 0.790527ZM30.1094 56.0384C16.1655 56.0384 4.86151 44.7344 4.86151 30.7905C4.86151 16.8467 16.1655 5.54266 30.1094 5.54266C44.0532 5.54266 55.3572 16.8467 55.3572 30.7905C55.3572 44.7344 44.0532 56.0384 30.1094 56.0384Z" fill="white"/>
<path d="M87.4488 27.0042C80.8078 25.303 79.1612 24.4797 79.1612 21.9553V21.8451C79.1612 19.9793 80.8623 18.4984 84.101 18.4984C87.3387 18.4984 90.6865 19.9248 94.0899 22.2846L98.4802 15.9194C94.5839 12.7908 89.8086 11.0341 84.2112 11.0341C76.363 11.0341 70.7655 15.6446 70.7655 22.615V22.724C70.7655 30.353 75.7599 32.4936 83.498 34.4685C89.9188 36.1152 91.2361 37.2133 91.2361 39.3528V39.4629C91.2361 41.7126 89.151 43.0855 85.6931 43.0855C81.3028 43.0855 77.6803 41.2742 74.2234 38.4194L69.229 44.4018C73.8395 48.5173 79.7118 50.5488 85.5285 50.5488C93.8151 50.5488 99.6328 46.2676 99.6328 38.6396V38.5295C99.6317 31.8339 95.2414 29.0347 87.4488 27.0042Z" fill="white"/>
<path d="M161.571 11.5828V19.3754H170.291V49.9994H178.743V19.3754H187.463V11.5828H161.571Z" fill="white"/>
<path d="M134.357 19.3754H143.077V49.9994H151.529V19.3754H160.249V11.5828H134.357V19.3754Z" fill="white"/>
<path d="M123.867 21.0523C121.763 19.9847 119.385 19.3816 116.867 19.3816C108.309 19.3816 101.346 26.3446 101.346 34.9028C101.346 43.4611 108.309 50.4241 116.867 50.4241C119.385 50.4241 121.762 49.821 123.867 48.7534V50.4241H132.389V19.3816H123.867V21.0523ZM116.867 41.9036C113.008 41.9036 109.868 38.7635 109.868 34.9039C109.868 31.0432 113.008 27.9042 116.867 27.9042C120.727 27.9042 123.867 31.0443 123.867 34.9039C123.867 38.7635 120.726 41.9036 116.867 41.9036Z" fill="white"/>
</svg>
