<svg width="126" height="41" viewBox="0 0 126 41" fill="none" xmlns="http://www.w3.org/2000/svg">
<path d="M10.8633 16.0992H10.7787C12.5099 12.6962 16.0451 10.3644 20.1249 10.3644C22.7567 10.3644 25.1613 11.3342 27.0016 12.936H27.0659H31.2429C28.7699 9.46519 24.7117 7.20117 20.1249 7.20117C13.1252 7.20117 7.35747 12.4725 6.57366 19.2624L15.3808 19.2617V22.4242H6.57227L6.57576 22.4487C6.70372 23.5394 6.96032 24.5903 7.3295 25.5874H15.3794V33.6373C16.3828 34.0093 17.4435 34.2673 18.5419 34.3946V25.5881H21.7044V34.3953C22.8036 34.268 23.8636 34.0107 24.8669 33.638V25.5874H32.9168C33.465 24.11 33.7643 22.5116 33.7643 20.8433C33.7643 19.175 33.465 17.5766 32.9168 16.0992H31.0437H10.8633ZM21.7051 22.4249H18.5426V19.2624H21.7051V22.4249ZM30.4843 22.4249H24.8683V19.2624H30.4843C30.5626 19.7784 30.6032 20.3063 30.6032 20.844C30.6032 21.381 30.5626 21.9089 30.4843 22.4249Z" fill="#1F2337"/>
<path d="M20.1133 0.84375C9.06727 0.84375 0.113281 9.79844 0.113281 20.8437C0.113281 31.8891 9.06727 40.8438 20.1133 40.8438C31.1593 40.8438 40.1133 31.8891 40.1133 20.8437C40.1133 9.79844 31.1593 0.84375 20.1133 0.84375ZM20.1133 37.6757C10.8174 37.6757 3.28137 30.1396 3.28137 20.8437C3.28137 11.5478 10.8174 4.01184 20.1133 4.01184C29.4092 4.01184 36.9452 11.5478 36.9452 20.8437C36.9452 30.1396 29.4092 37.6757 20.1133 37.6757Z" fill="#1F2337"/>
<path d="M58.3399 18.3196C53.9126 17.1855 52.8148 16.6366 52.8148 14.9537V14.8802C52.8148 13.6364 53.9489 12.6491 56.1081 12.6491C58.2665 12.6491 60.4983 13.6 62.7673 15.1732L65.6941 10.9297C63.0966 8.84402 59.9131 7.67285 56.1815 7.67285C50.9493 7.67285 47.2177 10.7465 47.2177 15.3935V15.4662C47.2177 20.5522 50.5473 21.9792 55.706 23.2958C59.9865 24.3936 60.8647 25.1257 60.8647 26.552V26.6254C60.8647 28.1252 59.4747 29.0405 57.1694 29.0405C54.2426 29.0405 51.8275 27.833 49.523 25.9297L46.1934 29.918C49.2671 32.6617 53.1819 34.016 57.0597 34.016C62.5841 34.016 66.4626 31.1619 66.4626 26.0766V26.0032C66.4619 21.5394 63.535 19.6733 58.3399 18.3196Z" fill="#1F2337"/>
<path d="M107.754 8.03906V13.2341H113.567V33.6502H119.202V13.2341H125.015V8.03906H107.754Z" fill="#1F2337"/>
<path d="M89.6113 13.2341H95.4245V33.6502H101.059V13.2341H106.873V8.03906H89.6113V13.2341Z" fill="#1F2337"/>
<path d="M82.6195 14.3511C81.2168 13.6393 79.6311 13.2373 77.953 13.2373C72.2475 13.2373 67.6055 17.8793 67.6055 23.5848C67.6055 29.2903 72.2475 33.9323 77.953 33.9323C79.6311 33.9323 81.2162 33.5303 82.6195 32.8185V33.9323H88.3005V13.2373H82.6195V14.3511ZM77.953 28.252C75.3799 28.252 73.2865 26.1586 73.2865 23.5855C73.2865 21.0117 75.3799 18.919 77.953 18.919C80.526 18.919 82.6195 21.0124 82.6195 23.5855C82.6195 26.1586 80.5253 28.252 77.953 28.252Z" fill="#1F2337"/>
</svg>
