<svg width="19" height="18" viewBox="0 0 19 18" fill="none" xmlns="http://www.w3.org/2000/svg">
<path d="M4.96611 6.86545H4.92804C5.70709 5.33409 7.29792 4.28477 9.13385 4.28477C10.3182 4.28477 11.4002 4.72117 12.2283 5.44202H12.2573H14.137C13.0241 3.88014 11.1979 2.86133 9.13385 2.86133C5.98398 2.86133 3.3885 5.23341 3.03579 8.28889L6.99901 8.28858V9.7117H3.03516L3.03673 9.72271C3.09431 10.2136 3.20978 10.6865 3.37591 11.1351H6.99838V14.7576C7.44989 14.925 7.9272 15.0411 8.4215 15.0984V11.1355H9.84462V15.0987C10.3392 15.0414 10.8162 14.9256 11.2677 14.7579V11.1351H14.8902C15.1369 10.4703 15.2716 9.75103 15.2716 9.00029C15.2716 8.24956 15.1369 7.53029 14.8902 6.86545H14.0473H4.96611ZM9.84494 9.71201H8.42182V8.28889H9.84494V9.71201ZM13.7956 9.71201H11.2684V8.28889H13.7956C13.8308 8.5211 13.8491 8.75865 13.8491 9.00061C13.8491 9.24225 13.8308 9.47981 13.7956 9.71201Z" fill="#75758F"/>
<path d="M9.12891 0C4.1582 0 0.128906 4.02961 0.128906 9C0.128906 13.9704 4.1582 18 9.12891 18C14.0996 18 18.1289 13.9704 18.1289 9C18.1289 4.02961 14.0996 0 9.12891 0ZM9.12891 16.5744C4.94575 16.5744 1.55455 13.1832 1.55455 9C1.55455 4.81684 4.94575 1.42564 9.12891 1.42564C13.3121 1.42564 16.7033 4.81684 16.7033 9C16.7033 13.1832 13.3121 16.5744 9.12891 16.5744Z" fill="#75758F"/>
</svg>
