<svg width="24" height="24" viewBox="0 0 24 24" fill="none" xmlns="http://www.w3.org/2000/svg">
<path d="M3.47267 23.7861H21.3616C22.0393 23.7861 22.6894 23.5168 23.1686 23.0376C23.6479 22.5583 23.9171 21.9083 23.9171 21.2305V7.17496L17.5282 0.786072H3.47267C2.79489 0.786072 2.14488 1.05532 1.66562 1.53458C1.18636 2.01384 0.917114 2.66385 0.917114 3.34163V21.2305C0.917114 21.9083 1.18636 22.5583 1.66562 23.0376C2.14488 23.5168 2.79489 23.7861 3.47267 23.7861ZM6.02823 3.34163H11.1393V5.89718H13.6949V3.34163H16.2504V8.45274H6.02823V3.34163ZM6.02823 13.5638H18.806V21.2305H6.02823V13.5638Z" fill="#F6F6FF"/>
</svg>
