<svg width="41" height="73" viewBox="0 0 41 73" fill="none" xmlns="http://www.w3.org/2000/svg">
<path d="M32.8944 40.5244L28.1784 35.808C27.4757 36.9008 26.5457 37.8303 25.4529 38.533L30.1693 43.2494C30.9222 44.0022 32.143 44.0022 32.8943 43.2494C33.6473 42.4979 33.6473 41.2771 32.8944 40.5244Z" fill="#4048FF"/>
<path d="M28.3198 30.966C28.3198 26.7089 24.8683 23.2572 20.6111 23.2572C16.3541 23.2572 12.9023 26.7089 12.9023 30.966C12.9023 35.223 16.3541 38.6746 20.6111 38.6746C24.8683 38.6746 28.3198 35.223 28.3198 30.966ZM20.6111 36.7473C17.423 36.7473 14.8296 34.1542 14.8296 30.966C14.8296 27.7779 17.423 25.1845 20.6111 25.1845C23.7992 25.1845 26.3928 27.7779 26.3928 30.966C26.3928 34.1542 23.7992 36.7473 20.6111 36.7473Z" fill="#4048FF"/>
<path d="M16.1145 30.966H17.3991C17.3991 29.1949 18.8402 27.754 20.6112 27.754V26.4692C18.132 26.4692 16.1145 28.4868 16.1145 30.966Z" fill="#4048FF"/>
</svg>
