<svg width="23" height="23" viewBox="0 0 23 23" fill="none" xmlns="http://www.w3.org/2000/svg">
<path fill-rule="evenodd" clip-rule="evenodd" d="M10.3947 2C8.16831 2 6.03308 2.88444 4.45876 4.45876C2.88444 6.03308 2 8.16831 2 10.3947C2 12.6212 2.88444 14.7564 4.45876 16.3307C6.03308 17.905 8.16831 18.7895 10.3947 18.7895C12.6212 18.7895 14.7564 17.905 16.3307 16.3307C17.905 14.7564 18.7895 12.6212 18.7895 10.3947C18.7895 8.16831 17.905 6.03308 16.3307 4.45876C14.7564 2.88444 12.6212 2 10.3947 2ZM3.04455 3.04455C4.99394 1.09516 7.63788 0 10.3947 0C13.1516 0 15.7955 1.09516 17.7449 3.04455C19.6943 4.99394 20.7895 7.63788 20.7895 10.3947C20.7895 12.8144 19.9458 15.1471 18.4214 16.9996L22.7077 21.2935L21.2923 22.7065L17.0079 18.4145C15.1541 19.9433 12.8181 20.7895 10.3947 20.7895C7.63788 20.7895 4.99394 19.6943 3.04455 17.7449C1.09516 15.7955 0 13.1516 0 10.3947C0 7.63788 1.09516 4.99394 3.04455 3.04455Z" fill="#4048FF"/>
<path fill-rule="evenodd" clip-rule="evenodd" d="M11.3948 6.52637V9.39479H14.2632V11.3948H11.3948V14.2632H9.39479V11.3948H6.52637C5.97408 11.3948 5.52637 10.9471 5.52637 10.3948C5.52637 9.8425 5.97408 9.39479 6.52637 9.39479H9.39479V6.52637H11.3948Z" fill="#4048FF"/>
</svg>
