<svg width="146" height="53" viewBox="0 0 146 53" fill="none" xmlns="http://www.w3.org/2000/svg">
<g filter="url(#filter0_d)">
<rect x="2.82031" y="0.46875" width="140.647" height="48" rx="22.1827" fill="white"/>
</g>
<path d="M32.8237 25.9488V30.4688H30.6717V18.9007H34.1997C34.9891 18.9007 35.6637 18.9834 36.2237 19.1487C36.7891 19.3087 37.2504 19.5354 37.6077 19.8287C37.9704 20.1221 38.2344 20.4741 38.3997 20.8847C38.5704 21.2901 38.6557 21.7381 38.6557 22.2287C38.6557 22.6181 38.5971 22.9861 38.4797 23.3327C38.3677 23.6794 38.2024 23.9941 37.9837 24.2767C37.7704 24.5594 37.5037 24.8074 37.1837 25.0207C36.8691 25.2341 36.5091 25.4047 36.1037 25.5327C36.3757 25.6874 36.6104 25.9087 36.8077 26.1967L39.7037 30.4688H37.7677C37.5811 30.4688 37.4211 30.4314 37.2877 30.3567C37.1597 30.2821 37.0504 30.1754 36.9597 30.0367L34.5277 26.3327C34.4371 26.1941 34.3357 26.0954 34.2237 26.0367C34.1171 25.9781 33.9571 25.9488 33.7437 25.9488H32.8237ZM32.8237 24.4047H34.1677C34.5731 24.4047 34.9251 24.3541 35.2237 24.2527C35.5277 24.1514 35.7757 24.0127 35.9677 23.8367C36.1651 23.6554 36.3117 23.4421 36.4077 23.1967C36.5037 22.9514 36.5517 22.6821 36.5517 22.3888C36.5517 21.8021 36.3571 21.3514 35.9677 21.0367C35.5837 20.7221 34.9944 20.5647 34.1997 20.5647H32.8237V24.4047ZM44.8441 22.1327C45.3615 22.1327 45.8361 22.2154 46.2681 22.3807C46.7055 22.5461 47.0815 22.7887 47.3961 23.1087C47.7108 23.4234 47.9561 23.8127 48.1321 24.2767C48.3081 24.7354 48.3961 25.2607 48.3961 25.8527C48.3961 26.0021 48.3881 26.1274 48.3721 26.2287C48.3615 26.3247 48.3375 26.4021 48.3001 26.4607C48.2681 26.5141 48.2228 26.5541 48.1641 26.5807C48.1055 26.6021 48.0308 26.6127 47.9401 26.6127H42.8681C42.9268 27.4554 43.1535 28.0741 43.5481 28.4688C43.9428 28.8634 44.4655 29.0607 45.1161 29.0607C45.4361 29.0607 45.7108 29.0234 45.9401 28.9487C46.1748 28.8741 46.3775 28.7914 46.5481 28.7007C46.7241 28.6101 46.8761 28.5274 47.0041 28.4527C47.1375 28.3781 47.2655 28.3407 47.3881 28.3407C47.4681 28.3407 47.5375 28.3567 47.5961 28.3887C47.6548 28.4207 47.7055 28.4661 47.7481 28.5247L48.3241 29.2447C48.1055 29.5007 47.8601 29.7167 47.5881 29.8927C47.3161 30.0634 47.0308 30.2021 46.7321 30.3087C46.4388 30.4101 46.1375 30.4821 45.8281 30.5248C45.5241 30.5674 45.2281 30.5888 44.9401 30.5888C44.3695 30.5888 43.8388 30.4954 43.3481 30.3087C42.8575 30.1167 42.4308 29.8367 42.0681 29.4688C41.7055 29.0954 41.4201 28.6367 41.2121 28.0927C41.0041 27.5434 40.9001 26.9087 40.9001 26.1887C40.9001 25.6287 40.9908 25.1034 41.1721 24.6127C41.3535 24.1167 41.6121 23.6874 41.9481 23.3247C42.2895 22.9567 42.7028 22.6661 43.1881 22.4527C43.6788 22.2394 44.2308 22.1327 44.8441 22.1327ZM44.8841 23.5487C44.3081 23.5487 43.8575 23.7114 43.5321 24.0367C43.2068 24.3621 42.9988 24.8234 42.9081 25.4207H46.6201C46.6201 25.1647 46.5855 24.9247 46.5161 24.7007C46.4468 24.4714 46.3401 24.2714 46.1961 24.1007C46.0521 23.9301 45.8708 23.7967 45.6521 23.7007C45.4335 23.5994 45.1775 23.5487 44.8841 23.5487ZM56.247 23.9967C56.1883 24.0714 56.1297 24.1301 56.071 24.1727C56.0177 24.2154 55.9377 24.2367 55.831 24.2367C55.7297 24.2367 55.631 24.2074 55.535 24.1487C55.439 24.0847 55.3243 24.0154 55.191 23.9407C55.0577 23.8607 54.8977 23.7914 54.711 23.7327C54.5297 23.6687 54.303 23.6367 54.031 23.6367C53.6843 23.6367 53.3803 23.7007 53.119 23.8287C52.8577 23.9514 52.639 24.1301 52.463 24.3647C52.2923 24.5994 52.1643 24.8847 52.079 25.2207C51.9937 25.5514 51.951 25.9274 51.951 26.3487C51.951 26.7861 51.9963 27.1754 52.087 27.5167C52.183 27.8581 52.319 28.1461 52.495 28.3807C52.671 28.6101 52.8843 28.7861 53.135 28.9087C53.3857 29.0261 53.6683 29.0847 53.983 29.0847C54.2977 29.0847 54.551 29.0474 54.743 28.9727C54.9403 28.8927 55.1057 28.8074 55.239 28.7167C55.3723 28.6207 55.487 28.5354 55.583 28.4607C55.6843 28.3807 55.7963 28.3407 55.919 28.3407C56.079 28.3407 56.199 28.4021 56.279 28.5247L56.847 29.2447C56.6283 29.5007 56.391 29.7167 56.135 29.8927C55.879 30.0634 55.6123 30.2021 55.335 30.3087C55.063 30.4101 54.7803 30.4821 54.487 30.5248C54.1937 30.5674 53.903 30.5888 53.615 30.5888C53.1083 30.5888 52.631 30.4954 52.183 30.3087C51.735 30.1167 51.343 29.8394 51.007 29.4767C50.6763 29.1141 50.4123 28.6714 50.215 28.1487C50.023 27.6207 49.927 27.0207 49.927 26.3487C49.927 25.7461 50.0123 25.1887 50.183 24.6767C50.359 24.1594 50.615 23.7141 50.951 23.3407C51.287 22.9621 51.703 22.6661 52.199 22.4527C52.695 22.2394 53.2657 22.1327 53.911 22.1327C54.5243 22.1327 55.0603 22.2314 55.519 22.4288C55.983 22.6261 56.399 22.9087 56.767 23.2767L56.247 23.9967ZM58.584 30.4688V18.5807H60.56V23.1487C60.88 22.8447 61.232 22.5994 61.616 22.4127C62 22.2261 62.4507 22.1327 62.968 22.1327C63.416 22.1327 63.8133 22.2101 64.16 22.3647C64.5067 22.5141 64.7947 22.7274 65.024 23.0047C65.2587 23.2767 65.4347 23.6047 65.552 23.9887C65.6747 24.3674 65.736 24.7861 65.736 25.2447V30.4688H63.76V25.2447C63.76 24.7434 63.6427 24.3567 63.408 24.0847C63.1787 23.8074 62.832 23.6687 62.368 23.6687C62.0267 23.6687 61.7067 23.7461 61.408 23.9007C61.1093 24.0554 60.8267 24.2661 60.56 24.5327V30.4688H58.584ZM71.5497 22.1327C72.0671 22.1327 72.5417 22.2154 72.9737 22.3807C73.4111 22.5461 73.7871 22.7887 74.1017 23.1087C74.4164 23.4234 74.6617 23.8127 74.8377 24.2767C75.0137 24.7354 75.1017 25.2607 75.1017 25.8527C75.1017 26.0021 75.0937 26.1274 75.0777 26.2287C75.0671 26.3247 75.0431 26.4021 75.0057 26.4607C74.9737 26.5141 74.9284 26.5541 74.8697 26.5807C74.8111 26.6021 74.7364 26.6127 74.6457 26.6127H69.5737C69.6324 27.4554 69.8591 28.0741 70.2537 28.4688C70.6484 28.8634 71.1711 29.0607 71.8217 29.0607C72.1417 29.0607 72.4164 29.0234 72.6457 28.9487C72.8804 28.8741 73.0831 28.7914 73.2537 28.7007C73.4297 28.6101 73.5817 28.5274 73.7097 28.4527C73.8431 28.3781 73.9711 28.3407 74.0937 28.3407C74.1737 28.3407 74.2431 28.3567 74.3017 28.3887C74.3604 28.4207 74.4111 28.4661 74.4537 28.5247L75.0297 29.2447C74.8111 29.5007 74.5657 29.7167 74.2937 29.8927C74.0217 30.0634 73.7364 30.2021 73.4377 30.3087C73.1444 30.4101 72.8431 30.4821 72.5337 30.5248C72.2297 30.5674 71.9337 30.5888 71.6457 30.5888C71.0751 30.5888 70.5444 30.4954 70.0537 30.3087C69.5631 30.1167 69.1364 29.8367 68.7737 29.4688C68.4111 29.0954 68.1257 28.6367 67.9177 28.0927C67.7097 27.5434 67.6057 26.9087 67.6057 26.1887C67.6057 25.6287 67.6964 25.1034 67.8777 24.6127C68.0591 24.1167 68.3177 23.6874 68.6537 23.3247C68.9951 22.9567 69.4084 22.6661 69.8937 22.4527C70.3844 22.2394 70.9364 22.1327 71.5497 22.1327ZM71.5897 23.5487C71.0137 23.5487 70.5631 23.7114 70.2377 24.0367C69.9124 24.3621 69.7044 24.8234 69.6137 25.4207H73.3257C73.3257 25.1647 73.2911 24.9247 73.2217 24.7007C73.1524 24.4714 73.0457 24.2714 72.9017 24.1007C72.7577 23.9301 72.5764 23.7967 72.3577 23.7007C72.1391 23.5994 71.8831 23.5487 71.5897 23.5487ZM77.1846 30.4688V22.2607H78.3446C78.5473 22.2607 78.6886 22.2981 78.7686 22.3727C78.8486 22.4474 78.902 22.5754 78.9286 22.7567L79.0486 23.7487C79.342 23.2421 79.686 22.8421 80.0806 22.5487C80.4753 22.2554 80.918 22.1087 81.4086 22.1087C81.814 22.1087 82.15 22.2021 82.4166 22.3888L82.1606 23.8687C82.1446 23.9647 82.11 24.0341 82.0566 24.0767C82.0033 24.1141 81.9313 24.1327 81.8406 24.1327C81.7606 24.1327 81.6513 24.1141 81.5126 24.0767C81.374 24.0394 81.19 24.0207 80.9606 24.0207C80.55 24.0207 80.198 24.1354 79.9046 24.3647C79.6113 24.5887 79.3633 24.9194 79.1606 25.3567V30.4688H77.1846ZM89.9639 23.9967C89.9052 24.0714 89.8465 24.1301 89.7879 24.1727C89.7345 24.2154 89.6545 24.2367 89.5479 24.2367C89.4465 24.2367 89.3479 24.2074 89.2519 24.1487C89.1559 24.0847 89.0412 24.0154 88.9079 23.9407C88.7745 23.8607 88.6145 23.7914 88.4279 23.7327C88.2465 23.6687 88.0199 23.6367 87.7479 23.6367C87.4012 23.6367 87.0972 23.7007 86.8359 23.8287C86.5745 23.9514 86.3559 24.1301 86.1799 24.3647C86.0092 24.5994 85.8812 24.8847 85.7959 25.2207C85.7105 25.5514 85.6679 25.9274 85.6679 26.3487C85.6679 26.7861 85.7132 27.1754 85.8039 27.5167C85.8999 27.8581 86.0359 28.1461 86.2119 28.3807C86.3879 28.6101 86.6012 28.7861 86.8519 28.9087C87.1025 29.0261 87.3852 29.0847 87.6999 29.0847C88.0145 29.0847 88.2679 29.0474 88.4599 28.9727C88.6572 28.8927 88.8225 28.8074 88.9559 28.7167C89.0892 28.6207 89.2039 28.5354 89.2999 28.4607C89.4012 28.3807 89.5132 28.3407 89.6359 28.3407C89.7959 28.3407 89.9159 28.4021 89.9959 28.5247L90.5639 29.2447C90.3452 29.5007 90.1079 29.7167 89.8519 29.8927C89.5959 30.0634 89.3292 30.2021 89.0519 30.3087C88.7799 30.4101 88.4972 30.4821 88.2039 30.5248C87.9105 30.5674 87.6199 30.5888 87.3319 30.5888C86.8252 30.5888 86.3479 30.4954 85.8999 30.3087C85.4519 30.1167 85.0599 29.8394 84.7239 29.4767C84.3932 29.1141 84.1292 28.6714 83.9319 28.1487C83.7399 27.6207 83.6439 27.0207 83.6439 26.3487C83.6439 25.7461 83.7292 25.1887 83.8999 24.6767C84.0759 24.1594 84.3319 23.7141 84.6679 23.3407C85.0039 22.9621 85.4199 22.6661 85.9159 22.4527C86.4119 22.2394 86.9825 22.1327 87.6279 22.1327C88.2412 22.1327 88.7772 22.2314 89.2359 22.4288C89.6999 22.6261 90.1159 22.9087 90.4839 23.2767L89.9639 23.9967ZM92.3009 30.4688V18.5807H94.2769V23.1487C94.5969 22.8447 94.9489 22.5994 95.3329 22.4127C95.7169 22.2261 96.1675 22.1327 96.6849 22.1327C97.1329 22.1327 97.5302 22.2101 97.8769 22.3647C98.2235 22.5141 98.5115 22.7274 98.7409 23.0047C98.9755 23.2767 99.1515 23.6047 99.2689 23.9887C99.3915 24.3674 99.4529 24.7861 99.4529 25.2447V30.4688H97.4769V25.2447C97.4769 24.7434 97.3595 24.3567 97.1249 24.0847C96.8955 23.8074 96.5489 23.6687 96.0849 23.6687C95.7435 23.6687 95.4235 23.7461 95.1249 23.9007C94.8262 24.0554 94.5435 24.2661 94.2769 24.5327V30.4688H92.3009ZM105.267 22.1327C105.784 22.1327 106.259 22.2154 106.691 22.3807C107.128 22.5461 107.504 22.7887 107.819 23.1087C108.133 23.4234 108.379 23.8127 108.555 24.2767C108.731 24.7354 108.819 25.2607 108.819 25.8527C108.819 26.0021 108.811 26.1274 108.795 26.2287C108.784 26.3247 108.76 26.4021 108.723 26.4607C108.691 26.5141 108.645 26.5541 108.587 26.5807C108.528 26.6021 108.453 26.6127 108.363 26.6127H103.291C103.349 27.4554 103.576 28.0741 103.971 28.4688C104.365 28.8634 104.888 29.0607 105.539 29.0607C105.859 29.0607 106.133 29.0234 106.363 28.9487C106.597 28.8741 106.8 28.7914 106.971 28.7007C107.147 28.6101 107.299 28.5274 107.427 28.4527C107.56 28.3781 107.688 28.3407 107.811 28.3407C107.891 28.3407 107.96 28.3567 108.019 28.3887C108.077 28.4207 108.128 28.4661 108.171 28.5247L108.747 29.2447C108.528 29.5007 108.283 29.7167 108.011 29.8927C107.739 30.0634 107.453 30.2021 107.155 30.3087C106.861 30.4101 106.56 30.4821 106.251 30.5248C105.947 30.5674 105.651 30.5888 105.363 30.5888C104.792 30.5888 104.261 30.4954 103.771 30.3087C103.28 30.1167 102.853 29.8367 102.491 29.4688C102.128 29.0954 101.843 28.6367 101.635 28.0927C101.427 27.5434 101.323 26.9087 101.323 26.1887C101.323 25.6287 101.413 25.1034 101.595 24.6127C101.776 24.1167 102.035 23.6874 102.371 23.3247C102.712 22.9567 103.125 22.6661 103.611 22.4527C104.101 22.2394 104.653 22.1327 105.267 22.1327ZM105.307 23.5487C104.731 23.5487 104.28 23.7114 103.955 24.0367C103.629 24.3621 103.421 24.8234 103.331 25.4207H107.043C107.043 25.1647 107.008 24.9247 106.939 24.7007C106.869 24.4714 106.763 24.2714 106.619 24.1007C106.475 23.9301 106.293 23.7967 106.075 23.7007C105.856 23.5994 105.6 23.5487 105.307 23.5487ZM110.901 30.4688V22.2607H112.061C112.264 22.2607 112.405 22.2981 112.485 22.3727C112.565 22.4474 112.619 22.5754 112.645 22.7567L112.765 23.7487C113.059 23.2421 113.403 22.8421 113.797 22.5487C114.192 22.2554 114.635 22.1087 115.125 22.1087C115.531 22.1087 115.867 22.2021 116.133 22.3888L115.877 23.8687C115.861 23.9647 115.827 24.0341 115.773 24.0767C115.72 24.1141 115.648 24.1327 115.557 24.1327C115.477 24.1327 115.368 24.1141 115.229 24.0767C115.091 24.0394 114.907 24.0207 114.677 24.0207C114.267 24.0207 113.915 24.1354 113.621 24.3647C113.328 24.5887 113.08 24.9194 112.877 25.3567V30.4688H110.901Z" fill="#4048FF"/>
<defs>
<filter id="filter0_d" x="0.820312" y="0.46875" width="144.647" height="52" filterUnits="userSpaceOnUse" color-interpolation-filters="sRGB">
<feFlood flood-opacity="0" result="BackgroundImageFix"/>
<feColorMatrix in="SourceAlpha" type="matrix" values="0 0 0 0 0 0 0 0 0 0 0 0 0 0 0 0 0 0 127 0"/>
<feOffset dy="2"/>
<feGaussianBlur stdDeviation="1"/>
<feColorMatrix type="matrix" values="0 0 0 0 0 0 0 0 0 0 0 0 0 0 0 0 0 0 0.15 0"/>
<feBlend mode="normal" in2="BackgroundImageFix" result="effect1_dropShadow"/>
<feBlend mode="normal" in="SourceGraphic" in2="effect1_dropShadow" result="shape"/>
</filter>
</defs>
</svg>
