<svg width="21" height="22" viewBox="0 0 21 22" fill="none" xmlns="http://www.w3.org/2000/svg">
<path d="M20.0177 18.0737L15.3016 13.3573C14.599 14.4501 13.669 15.3796 12.5762 16.0823L17.2926 20.7987C18.0455 21.5515 19.2663 21.5515 20.0176 20.7987C20.7706 20.0472 20.7706 18.8264 20.0177 18.0737Z" fill="#8B93A5"/>
<path d="M15.4429 8.51529C15.4429 4.25823 11.9913 0.806519 7.73417 0.806519C3.47711 0.806519 0.0253906 4.25823 0.0253906 8.51529C0.0253906 12.7724 3.47711 16.2239 7.73417 16.2239C11.9913 16.2239 15.4429 12.7724 15.4429 8.51529ZM7.73417 14.2967C4.54601 14.2967 1.95264 11.7035 1.95264 8.51534C1.95264 5.32718 4.54601 2.73381 7.73417 2.73381C10.9222 2.73381 13.5158 5.32718 13.5158 8.51534C13.5158 11.7035 10.9222 14.2967 7.73417 14.2967Z" fill="#8B93A5"/>
<path d="M3.23828 8.51531H4.52291C4.52291 6.74427 5.96397 5.30335 7.73496 5.30335V4.01859C5.25581 4.01859 3.23828 6.03611 3.23828 8.51531Z" fill="#8B93A5"/>
</svg>
