<svg width="23" height="23" viewBox="0 0 23 23" fill="none" xmlns="http://www.w3.org/2000/svg">
<path d="M22 22L17.0418 17.0329L22 22ZM19.7895 10.3947C19.7895 12.8864 18.7997 15.276 17.0378 17.0378C15.276 18.7997 12.8864 19.7895 10.3947 19.7895C7.9031 19.7895 5.51351 18.7997 3.75165 17.0378C1.9898 15.276 1 12.8864 1 10.3947C1 7.9031 1.9898 5.51351 3.75165 3.75165C5.51351 1.9898 7.9031 1 10.3947 1C12.8864 1 15.276 1.9898 17.0378 3.75165C18.7997 5.51351 19.7895 7.9031 19.7895 10.3947V10.3947Z" stroke="#4048FF" stroke-width="2" stroke-linecap="round"/>
<path d="M13.1579 10.3965H7.63159" stroke="#4048FF" stroke-width="2" stroke-linecap="round"/>
</svg>
