<svg width="22" height="22" viewBox="0 0 22 22" fill="none" xmlns="http://www.w3.org/2000/svg">
<path d="M20.775 18.1197L16.059 13.4033C15.3563 14.4962 14.4263 15.4256 13.3335 16.1284L18.0499 20.8448C18.8028 21.5975 20.0236 21.5975 20.7749 20.8448C21.5279 20.0932 21.5279 18.8724 20.775 18.1197Z" fill="#47526A"/>
<path d="M16.2004 8.56131C16.2004 4.30426 12.7489 0.852539 8.49173 0.852539C4.23467 0.852539 0.782959 4.30426 0.782959 8.56131C0.782959 12.8184 4.23467 16.2699 8.49173 16.2699C12.7489 16.2699 16.2004 12.8184 16.2004 8.56131ZM8.49173 14.3427C5.30358 14.3427 2.71021 11.7495 2.71021 8.56136C2.71021 5.3732 5.30358 2.77983 8.49173 2.77983C11.6798 2.77983 14.2734 5.3732 14.2734 8.56136C14.2734 11.7495 11.6798 14.3427 8.49173 14.3427Z" fill="#47526A"/>
<path d="M3.99512 8.56118H5.27975C5.27975 6.79014 6.7208 5.34921 8.4918 5.34921V4.06445C6.01265 4.06445 3.99512 6.08198 3.99512 8.56118Z" fill="#47526A"/>
</svg>
