<svg width="41" height="41" viewBox="0 0 41 41" fill="none" xmlns="http://www.w3.org/2000/svg">
<circle cx="20.3525" cy="20.9131" r="20" fill="#FFA318"/>
<path d="M24.2323 10.4365C20.5848 10.4365 17.6357 13.3856 17.6357 17.0331C17.6357 17.8092 17.7909 18.5853 18.0237 19.3613L9.875 27.5101V31.3905H13.7554V29.0623H16.0836V26.734H18.4118L21.9041 23.2417C22.6026 23.4745 23.3787 23.6298 24.2323 23.6298C27.8799 23.6298 30.8289 20.6807 30.8289 17.0332C30.8289 13.3856 27.8799 10.4365 24.2323 10.4365ZM26.1725 17.4212C24.8532 17.4212 23.8443 16.4123 23.8443 15.093C23.8443 13.7736 24.8532 12.7647 26.1725 12.7647C27.4919 12.7647 28.5007 13.7736 28.5007 15.093C28.5007 16.4123 27.4919 17.4212 26.1725 17.4212Z" fill="white"/>
</svg>
