<svg width="105" height="112" viewBox="0 0 105 112" fill="none" xmlns="http://www.w3.org/2000/svg">
<circle cx="52.6821" cy="50.8164" r="48" fill="#1F2337"/>
<g filter="url(#filter0_d)">
<path d="M52.6809 19.6172C49.1909 25.8925 34.2761 33.083 24.6517 31.8304C23.7511 44.7432 31.0675 70.3497 52.6809 82.25C74.2943 70.3497 81.6107 44.7432 80.7102 31.8304C71.0858 33.083 56.1708 25.8925 52.6809 19.6172Z" fill="#FFA318"/>
<path opacity="0.5" d="M48.8301 42.4957C48.8301 40.086 50.6729 38.2432 53.0826 38.2432C55.4924 38.2432 57.3351 40.086 57.3351 42.4957V45.3307H60.1701V42.4957C60.1701 38.5267 57.0516 35.4082 53.0826 35.4082C49.1136 35.4082 45.9951 38.5267 45.9951 42.4957V45.3307H48.8301V42.4957ZM55.2089 53.127C55.2089 51.993 54.2166 51.0007 53.0826 51.0007C51.9486 51.0007 50.9564 51.993 50.9564 53.127C50.9564 53.694 51.2399 54.261 51.6651 54.6862V56.6707C51.6651 57.5212 52.2321 58.0882 53.0826 58.0882C53.9331 58.0882 54.5001 57.5212 54.5001 56.6707V54.6862C54.9254 54.261 55.2089 53.694 55.2089 53.127Z" fill="url(#paint0_linear)"/>
<path d="M60.1692 45.3301H45.9942C43.5844 45.3301 41.7417 47.1728 41.7417 49.5826V59.5051C41.7417 61.9148 43.5844 63.7576 45.9942 63.7576H60.1692C62.5789 63.7576 64.4217 61.9148 64.4217 59.5051V49.5826C64.4217 47.1728 62.5789 45.3301 60.1692 45.3301ZM54.4992 54.6856V56.6701C54.4992 57.5206 53.9322 58.0876 53.0817 58.0876C52.2312 58.0876 51.6642 57.5206 51.6642 56.6701V54.6856C51.2389 54.2603 50.9554 53.6933 50.9554 53.1263C50.9554 51.9923 51.9477 51.0001 53.0817 51.0001C54.2157 51.0001 55.2079 51.9923 55.2079 53.1263C55.2079 53.6933 54.9244 54.2603 54.4992 54.6856Z" fill="white"/>
<g style="mix-blend-mode:multiply">
<path d="M52.6841 82.0145C74.2974 70.1141 81.6139 44.5077 80.7134 31.5949C71.089 32.8475 56.1742 25.6572 52.6841 19.3818V82.0145Z" fill="#FFA318" fill-opacity="0.3"/>
</g>
</g>
<g filter="url(#filter1_d)">
<path fill-rule="evenodd" clip-rule="evenodd" d="M52.6831 93.8642C76.4577 93.8642 95.7309 74.591 95.7309 50.8164C95.7309 27.0417 76.4577 7.76855 52.6831 7.76855C28.9084 7.76855 9.63525 27.0417 9.63525 50.8164C9.63525 74.591 28.9084 93.8642 52.6831 93.8642ZM52.6831 94.8642C77.01 94.8642 96.7309 75.1433 96.7309 50.8164C96.7309 26.4894 77.01 6.76855 52.6831 6.76855C28.3561 6.76855 8.63525 26.4894 8.63525 50.8164C8.63525 75.1433 28.3561 94.8642 52.6831 94.8642Z" fill="#FFA318"/>
<path fill-rule="evenodd" clip-rule="evenodd" d="M94.6223 52.3179C94.6282 52.1516 94.6331 51.985 94.637 51.8181C94.6448 51.4851 94.6487 51.1512 94.6487 50.8163C94.6487 50.4814 94.6448 50.1474 94.637 49.8144C94.6331 49.6476 94.6282 49.481 94.6223 49.3146C94.6165 49.1479 94.6096 48.9813 94.6018 48.815C94.0552 48.8341 93.6244 49.2896 93.6372 49.8379C93.6449 50.1631 93.6487 50.4892 93.6487 50.8163C93.6487 51.1434 93.6449 51.4695 93.6372 51.7947C93.6244 52.3429 94.0552 52.7984 94.6018 52.8175C94.6096 52.6512 94.6165 52.4847 94.6223 52.3179ZM89.9921 70.0486C89.5094 69.7918 88.9086 69.9705 88.6454 70.4515C88.3329 71.0225 88.0073 71.5853 87.6689 72.1393C87.383 72.6073 87.5276 73.2173 87.9909 73.5077C88.0811 73.3676 88.1705 73.227 88.2591 73.0858C88.3476 72.9446 88.4354 72.8029 88.5223 72.6606C88.869 72.093 89.2026 71.5165 89.5226 70.9316C89.6026 70.7854 89.6817 70.6387 89.76 70.4915C89.8382 70.3444 89.9156 70.1968 89.9921 70.0486ZM75.3744 86.1242C75.084 85.6609 74.474 85.5163 74.006 85.8022C73.452 86.1406 72.8892 86.4662 72.3182 86.7787C71.8372 87.0419 71.6585 87.6427 71.9153 88.1254C72.0635 88.0489 72.2111 87.9715 72.3582 87.8933C72.5054 87.815 72.6521 87.7359 72.7983 87.6559C73.3832 87.3359 73.9597 87.0023 74.5273 86.6556C74.6696 86.5687 74.8113 86.4809 74.9525 86.3924C75.0937 86.3038 75.2343 86.2144 75.3744 86.1242ZM54.6842 92.7351C54.6651 92.1885 54.2096 91.7577 53.6614 91.7705C53.3362 91.7782 53.0101 91.782 52.683 91.782C52.3559 91.782 52.0298 91.7782 51.7046 91.7705C51.1563 91.7577 50.7008 92.1885 50.6818 92.7351C50.848 92.7429 51.0146 92.7498 51.1813 92.7556C51.3477 92.7615 51.5143 92.7664 51.6811 92.7703C52.0141 92.7781 52.3481 92.782 52.683 92.782C53.0179 92.782 53.3518 92.7781 53.6848 92.7703C53.8517 92.7664 54.0183 92.7615 54.1846 92.7556C54.3514 92.7498 54.5179 92.7429 54.6842 92.7351ZM33.4506 88.1254C33.7075 87.6427 33.5287 87.0419 33.0477 86.7787C32.4768 86.4662 31.914 86.1406 31.3599 85.8022C30.892 85.5163 30.282 85.6609 29.9915 86.1242C30.1316 86.2144 30.2723 86.3038 30.4135 86.3924C30.5547 86.4809 30.6964 86.5687 30.8387 86.6556C31.4063 87.0023 31.9828 87.3359 32.5677 87.6559C32.7139 87.7359 32.8606 87.815 33.0078 87.8933C33.1549 87.9715 33.3025 88.0489 33.4506 88.1254ZM17.3751 73.5077C17.8384 73.2173 17.9829 72.6073 17.6971 72.1393C17.3587 71.5853 17.033 71.0225 16.7206 70.4515C16.4574 69.9705 15.8566 69.7918 15.3738 70.0486C15.4504 70.1968 15.5277 70.3444 15.606 70.4915C15.6842 70.6387 15.7634 70.7854 15.8433 70.9316C16.1634 71.5165 16.497 72.093 16.8437 72.6606C16.9306 72.8029 17.0183 72.9446 17.1069 73.0858C17.1955 73.227 17.2849 73.3676 17.3751 73.5077ZM10.7642 52.8175C11.3107 52.7984 11.7416 52.3429 11.7287 51.7947C11.7211 51.4695 11.7173 51.1434 11.7173 50.8163C11.7173 50.4892 11.7211 50.1631 11.7287 49.8379C11.7416 49.2896 11.3107 48.8341 10.7642 48.8151C10.7564 48.9813 10.7495 49.1479 10.7437 49.3146C10.7378 49.481 10.7329 49.6476 10.729 49.8144C10.7212 50.1474 10.7173 50.4814 10.7173 50.8163C10.7173 51.1512 10.7212 51.4851 10.729 51.8181C10.7329 51.985 10.7378 52.1516 10.7437 52.3179C10.7495 52.4847 10.7564 52.6512 10.7642 52.8175ZM15.3738 31.5839C15.8566 31.8408 16.4574 31.662 16.7206 31.181C17.033 30.6101 17.3587 30.0473 17.6971 29.4932C17.9829 29.0253 17.8384 28.4153 17.3751 28.1248C17.2849 28.2649 17.1955 28.4056 17.1069 28.5468C17.0183 28.688 16.9306 28.8297 16.8437 28.972C16.497 29.5396 16.1634 30.1161 15.8433 30.701C15.7634 30.8472 15.6842 30.9939 15.606 31.1411C15.5277 31.2882 15.4504 31.4358 15.3738 31.5839ZM29.9915 15.5084C30.282 15.9717 30.892 16.1162 31.3599 15.8304C31.914 15.492 32.4768 15.1663 33.0477 14.8539C33.5287 14.5907 33.7075 13.9899 33.4506 13.5071C33.3025 13.5837 33.1549 13.661 33.0078 13.7393C32.8606 13.8175 32.7139 13.8967 32.5677 13.9766C31.9828 14.2967 31.4063 14.6303 30.8387 14.977C30.6964 15.0639 30.5547 15.1516 30.4135 15.2402C30.2723 15.3288 30.1316 15.4182 29.9915 15.5084ZM50.6817 8.89746C50.7008 9.44404 51.1563 9.87488 51.7046 9.86204C52.0298 9.85442 52.3559 9.85059 52.683 9.85059C53.0101 9.85059 53.3362 9.85442 53.6614 9.86204C54.2096 9.87488 54.6651 9.44404 54.6842 8.89746C54.5179 8.88966 54.3514 8.88282 54.1846 8.87695C54.0183 8.8711 53.8517 8.86622 53.6848 8.86231C53.3518 8.85451 53.0179 8.85059 52.683 8.85059C52.3481 8.85059 52.0141 8.85451 51.6811 8.86231C51.5143 8.86622 51.3477 8.8711 51.1813 8.87695C51.0146 8.88282 50.848 8.88966 50.6817 8.89746ZM71.9153 13.5071C71.6585 13.9899 71.8372 14.5907 72.3182 14.8539C72.8892 15.1663 73.452 15.492 74.006 15.8304C74.474 16.1162 75.084 15.9717 75.3744 15.5084C75.2343 15.4182 75.0937 15.3288 74.9525 15.2402C74.8113 15.1516 74.6696 15.0639 74.5273 14.977C73.9597 14.6303 73.3832 14.2967 72.7983 13.9766C72.6521 13.8967 72.5054 13.8175 72.3582 13.7393C72.2111 13.661 72.0635 13.5837 71.9153 13.5071ZM87.9909 28.1248C87.5275 28.4153 87.383 29.0253 87.6689 29.4932C88.0073 30.0473 88.3329 30.6101 88.6454 31.181C88.9086 31.662 89.5094 31.8408 89.9921 31.5839C89.9156 31.4358 89.8382 31.2882 89.76 31.1411C89.6817 30.9939 89.6026 30.8472 89.5226 30.701C89.2026 30.1161 88.869 29.5396 88.5223 28.972C88.4354 28.8297 88.3476 28.688 88.2591 28.5468C88.1705 28.4056 88.0811 28.2649 87.9909 28.1248Z" fill="#FFA318"/>
</g>
<defs>
<filter id="filter0_d" x="0.401068" y="0.0398002" width="104.563" height="111.223" filterUnits="userSpaceOnUse" color-interpolation-filters="sRGB">
<feFlood flood-opacity="0" result="BackgroundImageFix"/>
<feColorMatrix in="SourceAlpha" type="matrix" values="0 0 0 0 0 0 0 0 0 0 0 0 0 0 0 0 0 0 127 0"/>
<feOffset dy="4.83551"/>
<feGaussianBlur stdDeviation="12.0888"/>
<feColorMatrix type="matrix" values="0 0 0 0 1 0 0 0 0 0.6 0 0 0 0 0 0 0 0 0.54 0"/>
<feBlend mode="normal" in2="BackgroundImageFix" result="effect1_dropShadow"/>
<feBlend mode="normal" in="SourceGraphic" in2="effect1_dropShadow" result="shape"/>
</filter>
<filter id="filter1_d" x="6.63525" y="4.76855" width="92.0956" height="92.0956" filterUnits="userSpaceOnUse" color-interpolation-filters="sRGB">
<feFlood flood-opacity="0" result="BackgroundImageFix"/>
<feColorMatrix in="SourceAlpha" type="matrix" values="0 0 0 0 0 0 0 0 0 0 0 0 0 0 0 0 0 0 127 0"/>
<feOffset/>
<feGaussianBlur stdDeviation="1"/>
<feColorMatrix type="matrix" values="0 0 0 0 1 0 0 0 0 0.784271 0 0 0 0 0.458333 0 0 0 1 0"/>
<feBlend mode="normal" in2="BackgroundImageFix" result="effect1_dropShadow"/>
<feBlend mode="normal" in="SourceGraphic" in2="effect1_dropShadow" result="shape"/>
</filter>
<linearGradient id="paint0_linear" x1="53.0826" y1="56.7583" x2="55.7173" y2="13.6982" gradientUnits="userSpaceOnUse">
<stop stop-color="#111214"/>
<stop offset="1" stop-color="#D6D6E8"/>
</linearGradient>
</defs>
</svg>
