<svg width="13" height="16" viewBox="0 0 13 16" fill="none" xmlns="http://www.w3.org/2000/svg">
<path d="M6.32096 8.84733L6.31746 9.14681C6.1412 9.14475 5.96854 9.19674 5.82272 9.29578C5.6769 9.39481 5.56492 9.53615 5.50185 9.70075C5.43879 9.86535 5.42766 10.0453 5.46997 10.2164C5.51228 10.3876 5.606 10.5416 5.73852 10.6579L5.84051 10.7473V11.9671C5.84051 12.0946 5.89113 12.2168 5.98123 12.3069C6.07133 12.397 6.19354 12.4476 6.32096 12.4476C6.44838 12.4476 6.57059 12.397 6.66069 12.3069C6.75079 12.2168 6.80141 12.0946 6.80141 11.9671V10.7473L6.9034 10.6579C7.03591 10.5416 7.12963 10.3876 7.17195 10.2164C7.21426 10.0453 7.20313 9.86535 7.14007 9.70075C7.077 9.53615 6.96502 9.39481 6.8192 9.29578C6.67338 9.19674 6.50072 9.14475 6.32446 9.14681L6.32096 8.84733Z" fill="#ADADC8"/>
<path fill-rule="evenodd" clip-rule="evenodd" d="M9.92121 4.16763V6.02703H10.2207C10.7618 6.02703 11.2808 6.242 11.6635 6.62464C12.0461 7.00728 12.2611 7.52625 12.2611 8.06738V13.527C12.2611 14.0682 12.0461 14.5871 11.6635 14.9698C11.2808 15.3524 10.7618 15.5674 10.2207 15.5674H2.42121C1.88007 15.5674 1.3611 15.3524 0.978464 14.9698C0.595824 14.5871 0.380859 14.0682 0.380859 13.527V8.06738C0.380859 7.52625 0.595824 7.00728 0.978464 6.62464C1.3611 6.242 1.88007 6.02703 2.42121 6.02703H2.72071V4.16763C2.72071 3.21279 3.10002 2.29705 3.7752 1.62187C4.45038 0.946694 5.36611 0.567383 6.32096 0.567383C7.2758 0.567383 8.19154 0.946694 8.86672 1.62187C9.5419 2.29705 9.92121 3.21279 9.92121 4.16763ZM3.68161 6.02703H8.96031V4.16763C8.96031 3.46763 8.68224 2.7963 8.18726 2.30133C7.69229 1.80636 7.02096 1.52828 6.32096 1.52828C5.62096 1.52828 4.94963 1.80636 4.45466 2.30133C3.95968 2.7963 3.68161 3.46763 3.68161 4.16763V6.02703ZM10.984 14.2903C11.1864 14.0879 11.3002 13.8133 11.3002 13.527V8.06738C11.3002 7.7811 11.1864 7.50653 10.984 7.3041C10.7816 7.10166 10.507 6.98793 10.2207 6.98793H2.42121C2.13492 6.98793 1.86036 7.10166 1.65792 7.3041C1.45549 7.50653 1.34176 7.78109 1.34176 8.06738V13.527C1.34176 13.8133 1.45549 14.0879 1.65792 14.2903C1.86036 14.4928 2.13492 14.6065 2.42121 14.6065H10.2207C10.507 14.6065 10.7816 14.4928 10.984 14.2903Z" fill="#ADADC8"/>
</svg>
