<svg width="13" height="16" viewBox="0 0 13 16" fill="none" xmlns="http://www.w3.org/2000/svg">
<path d="M6.19889 9.19011L6.19539 9.48959C6.01913 9.48753 5.84647 9.53951 5.70065 9.63855C5.55483 9.73759 5.44285 9.87892 5.37978 10.0435C5.31671 10.2081 5.30559 10.3881 5.3479 10.5592C5.39021 10.7303 5.48393 10.8844 5.61645 11.0006L5.71844 11.0901V12.3099C5.71844 12.4373 5.76906 12.5595 5.85916 12.6496C5.94926 12.7397 6.07147 12.7904 6.19889 12.7904C6.32631 12.7904 6.44852 12.7397 6.53862 12.6496C6.62872 12.5595 6.67934 12.4373 6.67934 12.3099V11.0901L6.78133 11.0006C6.91384 10.8844 7.00756 10.7303 7.04988 10.5592C7.09219 10.3881 7.08106 10.2081 7.018 10.0435C6.95493 9.87892 6.84295 9.73759 6.69713 9.63855C6.55131 9.53951 6.37865 9.48753 6.20239 9.48959L6.19889 9.19011Z" fill="#323754"/>
<path fill-rule="evenodd" clip-rule="evenodd" d="M9.79914 4.51041V6.36981H10.0986C10.6398 6.36981 11.1587 6.58477 11.5414 6.96741C11.924 7.35005 12.139 7.86902 12.139 8.41016V13.8698C12.139 14.4109 11.924 14.9299 11.5414 15.3126C11.1587 15.6952 10.6398 15.9102 10.0986 15.9102H2.29914C1.758 15.9102 1.23903 15.6952 0.856394 15.3126C0.473754 14.9299 0.258789 14.4109 0.258789 13.8698V8.41016C0.258789 7.86902 0.473754 7.35005 0.856394 6.96741C1.23903 6.58477 1.758 6.36981 2.29914 6.36981H2.59864V4.51041C2.59864 3.55556 2.97795 2.63982 3.65313 1.96465C4.32831 1.28947 5.24404 0.910156 6.19889 0.910156C7.15373 0.910156 8.06947 1.28947 8.74465 1.96465C9.41983 2.63982 9.79914 3.55556 9.79914 4.51041ZM3.55954 6.36981H8.83824V4.51041C8.83824 3.81041 8.56017 3.13908 8.06519 2.6441C7.57022 2.14913 6.89889 1.87105 6.19889 1.87105C5.49889 1.87105 4.82756 2.14913 4.33259 2.6441C3.83761 3.13908 3.55954 3.81041 3.55954 4.51041V6.36981ZM10.8619 14.6331C11.0644 14.4307 11.1781 14.1561 11.1781 13.8698V8.41016C11.1781 8.12387 11.0644 7.84931 10.8619 7.64687C10.6595 7.44443 10.3849 7.33071 10.0986 7.33071H2.29914C2.01285 7.33071 1.73829 7.44443 1.53585 7.64687C1.33342 7.84931 1.21969 8.12387 1.21969 8.41016V13.8698C1.21969 14.1561 1.33342 14.4307 1.53585 14.6331C1.73829 14.8355 2.01285 14.9493 2.29914 14.9493H10.0986C10.3849 14.9493 10.6595 14.8355 10.8619 14.6331Z" fill="#323754"/>
</svg>
