<svg width="33" height="12" viewBox="0 0 33 12" fill="none" xmlns="http://www.w3.org/2000/svg">
<path d="M3.50586 0.813232L6.24512 8.54761L8.96973 0.813232H11.8555V11.4773H9.65088V8.56226L9.87061 3.53052L6.99219 11.4773H5.4834L2.6123 3.53784L2.83203 8.56226V11.4773H0.634766V0.813232H3.50586ZM19.9268 9.28003H16.0742L15.3418 11.4773H13.0054L16.9751 0.813232H19.0112L23.0029 11.4773H20.6665L19.9268 9.28003ZM16.6675 7.50024H19.3335L17.9932 3.50854L16.6675 7.50024ZM27.8149 4.48999L29.8145 0.813232H32.3413L29.2358 6.10132L32.4219 11.4773H29.8657L27.8149 7.74194L25.7642 11.4773H23.208L26.394 6.10132L23.2886 0.813232H25.8154L27.8149 4.48999Z" fill="#ADADC8"/>
</svg>
