<svg width="22" height="21" viewBox="0 0 22 21" fill="none" xmlns="http://www.w3.org/2000/svg">
<path d="M20.5477 17.6239L15.8317 12.9075C15.129 14.0003 14.199 14.9298 13.1062 15.6325L17.8226 20.3489C18.5755 21.1017 19.7963 21.1017 20.5476 20.3489C21.3006 19.5974 21.3006 18.3766 20.5477 17.6239Z" fill="#ADADC8"/>
<path d="M15.9731 8.06546C15.9731 3.80841 12.5216 0.356689 8.26444 0.356689C4.00738 0.356689 0.555664 3.80841 0.555664 8.06546C0.555664 12.3225 4.00738 15.7741 8.26444 15.7741C12.5216 15.7741 15.9731 12.3225 15.9731 8.06546ZM8.26444 13.8468C5.07628 13.8468 2.48291 11.2537 2.48291 8.06551C2.48291 4.87735 5.07628 2.28398 8.26444 2.28398C11.4525 2.28398 14.0461 4.87735 14.0461 8.06551C14.0461 11.2537 11.4525 13.8468 8.26444 13.8468Z" fill="#ADADC8"/>
<path d="M3.76782 8.06545H5.05246C5.05246 6.29441 6.49351 4.85349 8.26451 4.85349V3.56873C5.78535 3.56873 3.76782 5.58626 3.76782 8.06545Z" fill="#ADADC8"/>
</svg>
