<svg width="21" height="22" viewBox="0 0 21 22" fill="none" xmlns="http://www.w3.org/2000/svg">
<path d="M20.2201 18.0914L15.504 13.375C14.8013 14.4678 13.8714 15.3973 12.7786 16.1L17.495 20.8164C18.2479 21.5692 19.4687 21.5692 20.22 20.8164C20.973 20.0649 20.973 18.8441 20.2201 18.0914Z" fill="#4048FF"/>
<path d="M15.6455 8.53299C15.6455 4.27594 12.1939 0.824219 7.9368 0.824219C3.67974 0.824219 0.228027 4.27594 0.228027 8.53299C0.228027 12.7901 3.67974 16.2416 7.9368 16.2416C12.1939 16.2416 15.6455 12.7901 15.6455 8.53299ZM7.9368 14.3144C4.74865 14.3144 2.15527 11.7212 2.15527 8.53304C2.15527 5.34488 4.74865 2.75151 7.9368 2.75151C11.1249 2.75151 13.7185 5.34488 13.7185 8.53304C13.7185 11.7212 11.1249 14.3144 7.9368 14.3144Z" fill="#4048FF"/>
<path d="M3.44019 8.53188H4.72482C4.72482 6.76084 6.16587 5.31992 7.93687 5.31992V4.03516C5.45772 4.03516 3.44019 6.05269 3.44019 8.53188Z" fill="#4048FF"/>
</svg>
