<svg width="201" height="171" viewBox="0 0 201 171" fill="none" xmlns="http://www.w3.org/2000/svg">
<rect x="24.02" y="2.68555" width="118.987" height="41.4086" rx="14.5" fill="#4048FF" stroke="#1D224F" stroke-width="5"/>
<rect x="24.02" y="44.1035" width="118.987" height="41.4086" rx="14.5" fill="#4048FF" stroke="#1D224F" stroke-width="5"/>
<rect x="24.02" y="85.5215" width="118.987" height="41.4086" rx="14.5" fill="#4048FF" stroke="#1D224F" stroke-width="5"/>
<rect x="24.02" y="127.057" width="118.987" height="41.4086" rx="14.5" fill="#4048FF" stroke="#1D224F" stroke-width="5"/>
<path d="M144.285 75.1458C156.153 75.1458 165.774 63.3871 165.774 48.882C165.774 34.3769 156.153 22.6182 144.285 22.6182" stroke="url(#paint0_radial)" stroke-width="5"/>
<path d="M144.285 148.791C156.153 148.791 165.774 137.033 165.774 122.527C165.774 108.022 156.153 96.2637 144.285 96.2637" stroke="#4048FF" stroke-width="5"/>
<path d="M144.285 111.957C156.153 111.957 165.774 100.198 165.774 85.693C165.774 71.1879 156.153 59.4292 144.285 59.4292" stroke="#4048FF" stroke-width="5"/>
<path d="M24.8091 75.1458C12.9409 75.1458 3.31982 63.3871 3.31982 48.882C3.31982 34.3769 12.9409 22.6182 24.8091 22.6182" stroke="#4048FF" stroke-width="5"/>
<path d="M24.8091 148.791C12.9409 148.791 3.31982 137.033 3.31982 122.527C3.31982 108.022 12.9409 96.2637 24.8091 96.2637" stroke="#4048FF" stroke-width="5"/>
<path d="M24.8091 111.957C12.9409 111.957 3.31982 100.198 3.31982 85.693C3.31982 71.1879 12.9409 59.4292 24.8091 59.4292" stroke="#4048FF" stroke-width="5"/>
<circle cx="45.3877" cy="22.6182" r="5.45269" fill="#F52079"/>
<circle cx="45.3877" cy="64.8819" r="5.45269" fill="#F52079"/>
<circle cx="45.3877" cy="107.146" r="5.45269" fill="white"/>
<circle cx="45.3877" cy="149.409" r="5.45269" fill="white"/>
<circle cx="61.4649" cy="22.6182" r="5.45269" fill="#F52079"/>
<circle cx="61.4649" cy="64.8819" r="5.45269" fill="#F52079"/>
<circle cx="61.4649" cy="107.146" r="5.45269" fill="white"/>
<circle cx="61.4649" cy="149.409" r="5.45269" fill="white"/>
<circle cx="107.876" cy="22.6182" r="5.45269" fill="#F52079"/>
<circle cx="107.876" cy="64.8819" r="5.45269" fill="#F52079"/>
<circle cx="107.876" cy="107.146" r="5.45269" fill="white"/>
<circle cx="107.876" cy="149.409" r="5.45269" fill="white"/>
<circle cx="123.953" cy="22.6182" r="5.45269" fill="#F52079"/>
<circle cx="123.953" cy="64.8819" r="5.45269" fill="#F52079"/>
<circle cx="123.953" cy="107.146" r="5.45269" fill="white"/>
<circle cx="123.953" cy="149.409" r="5.45269" fill="white"/>
<path d="M168.154 26.4791L171.393 18.7573" stroke="#FF9211" stroke-width="5" stroke-linecap="round"/>
<path d="M178.592 31.3982L190.957 26.269" stroke="white" stroke-width="5" stroke-linecap="round"/>
<path d="M174.151 44.8072L178.592 48.3813" stroke="#FF9211" stroke-width="5" stroke-linecap="round"/>
<path d="M189.228 43.2862L198.062 45.8506" stroke="#FF9211" stroke-width="5" stroke-linecap="round"/>
<circle cx="164.449" cy="36.2791" r="5.32448" fill="white"/>
<path d="M189.327 7.87232L184.774 14.3813" stroke="white" stroke-width="5" stroke-linecap="round" stroke-linejoin="round"/>
<rect x="77.2153" y="24.4673" width="12.5956" height="3.60358" rx="1.80179" fill="#F52079"/>
<rect x="77.2153" y="66.731" width="12.5956" height="3.60358" rx="1.80179" fill="#F52079"/>
<rect x="77.2153" y="108.995" width="12.5956" height="3.60358" rx="1.80179" fill="white"/>
<rect x="77.2153" y="151.258" width="12.5956" height="3.60358" rx="1.80179" fill="white"/>
<defs>
<radialGradient id="paint0_radial" cx="0" cy="0" r="1" gradientUnits="userSpaceOnUse" gradientTransform="translate(163.734 36.6631) rotate(107.558) scale(28.8573 11.8056)">
<stop stop-color="white"/>
<stop offset="1" stop-color="#4048FF"/>
</radialGradient>
</defs>
</svg>
