<svg width="22" height="21" viewBox="0 0 22 21" fill="none" xmlns="http://www.w3.org/2000/svg">
<mask id="path-1-outside-1" maskUnits="userSpaceOnUse" x="0" y="-0.518555" width="22" height="22" fill="black">
<rect fill="white" y="-0.518555" width="22" height="22"/>
<path fill-rule="evenodd" clip-rule="evenodd" d="M12.0463 2.51345C11.7388 1.46963 10.2612 1.46963 9.95368 2.51345L9.83618 2.91222C9.73735 3.24718 9.56485 3.55578 9.33131 3.81543C9.09777 4.07508 8.8091 4.2792 8.48646 4.41284C8.16381 4.54647 7.81535 4.60624 7.46662 4.58777C7.11788 4.56929 6.77769 4.47304 6.47097 4.30606L6.10594 4.10605C5.15088 3.58726 4.10582 4.63108 4.62585 5.58739L4.82461 5.95241C4.99159 6.25913 5.08785 6.59932 5.10632 6.94806C5.1248 7.2968 5.06503 7.64525 4.93139 7.9679C4.79775 8.29055 4.59363 8.57921 4.33398 8.81275C4.07433 9.0463 3.76573 9.2188 3.43078 9.31762L3.032 9.43513C1.98819 9.74265 1.98819 11.2202 3.032 11.5278L3.43078 11.6453C3.7659 11.7441 4.07468 11.9166 4.33446 12.1502C4.59424 12.3838 4.79844 12.6726 4.9321 12.9954C5.06575 13.3183 5.12547 13.6669 5.10687 14.0158C5.08827 14.3647 4.99183 14.705 4.82461 15.0117L4.6246 15.3755C4.10582 16.3306 5.14963 17.3756 6.10594 16.8556L6.47097 16.6568C6.77777 16.4899 7.11804 16.3937 7.46685 16.3753C7.81566 16.3569 8.16416 16.4167 8.48682 16.5505C8.80949 16.6843 9.09813 16.8885 9.33162 17.1483C9.5651 17.4081 9.73749 17.7169 9.83618 18.0519L9.95368 18.4494C10.2612 19.4933 11.7388 19.4933 12.0463 18.4494L12.1638 18.0507C12.2626 17.7155 12.4351 17.4068 12.6688 17.147C12.9024 16.8872 13.1912 16.683 13.514 16.5494C13.8368 16.4157 14.1854 16.356 14.5343 16.3746C14.8832 16.3932 15.2235 16.4896 15.5303 16.6568L15.8941 16.8568C16.8491 17.3756 17.8942 16.3318 17.3741 15.3755L17.1754 15.0117C17.0082 14.7049 16.9118 14.3645 16.8933 14.0155C16.8748 13.6666 16.9346 13.3179 17.0684 12.9951C17.2021 12.6723 17.4065 12.3835 17.6664 12.1499C17.9263 11.9163 18.2352 11.7439 18.5705 11.6453L18.968 11.5278C20.0118 11.2202 20.0118 9.74265 18.968 9.43513L18.5692 9.31762C18.2343 9.2188 17.9257 9.0463 17.666 8.81275C17.4064 8.57921 17.2022 8.29055 17.0686 7.9679C16.935 7.64525 16.8752 7.2968 16.8937 6.94806C16.9122 6.59932 17.0084 6.25913 17.1754 5.95241L17.3754 5.58739C17.8942 4.63233 16.8504 3.58726 15.8941 4.1073L15.5303 4.30606C15.2235 4.47351 14.8831 4.57014 14.534 4.58886C14.185 4.60758 13.8362 4.54792 13.5132 4.41425C13.1902 4.28058 12.9013 4.07629 12.6676 3.81638C12.4339 3.55647 12.2613 3.24752 12.1626 2.91222L12.0451 2.51345H12.0463ZM8.75486 2.15968C9.41365 -0.0779647 12.5863 -0.0779647 13.2451 2.15968L13.3626 2.55845C13.4087 2.71465 13.489 2.85857 13.5979 2.97967C13.7067 3.10077 13.8413 3.19598 13.9918 3.25831C14.1422 3.32064 14.3047 3.34852 14.4673 3.3399C14.6299 3.33128 14.7885 3.28638 14.9315 3.20849L15.2965 3.00848C17.3466 1.89341 19.5893 4.1348 18.4717 6.18493L18.273 6.54995C18.1951 6.69295 18.1502 6.85157 18.1416 7.01417C18.1329 7.17678 18.1608 7.33925 18.2231 7.48969C18.2855 7.64012 18.3807 7.7747 18.5018 7.88355C18.6229 7.99241 18.7668 8.07279 18.923 8.1188L19.3218 8.23631C21.5594 8.8951 21.5594 12.0678 19.3218 12.7266L18.923 12.8441C18.7668 12.8901 18.6229 12.9705 18.5018 13.0793C18.3807 13.1882 18.2855 13.3228 18.2231 13.4732C18.1608 13.6236 18.1329 13.7861 18.1416 13.9487C18.1502 14.1113 18.1951 14.2699 18.273 14.4129L18.473 14.778C19.5893 16.8281 17.3454 19.0707 15.2965 17.9532L14.9315 17.7544C14.7885 17.6765 14.6299 17.6316 14.4673 17.623C14.3047 17.6144 14.1422 17.6423 13.9918 17.7046C13.8413 17.7669 13.7067 17.8621 13.5979 17.9832C13.489 18.1043 13.4087 18.2482 13.3626 18.4044L13.2451 18.8032C12.5863 21.0409 9.41365 21.0409 8.75486 18.8032L8.63735 18.4044C8.59135 18.2482 8.51097 18.1043 8.40211 17.9832C8.29325 17.8621 8.15867 17.7669 8.00824 17.7046C7.85781 17.6423 7.69533 17.6144 7.53273 17.623C7.37012 17.6316 7.2115 17.6765 7.0685 17.7544L6.70348 17.9544C4.65335 19.0707 2.41196 16.8268 3.52828 14.778L3.72705 14.4129C3.80493 14.2699 3.84983 14.1113 3.85845 13.9487C3.86707 13.7861 3.83919 13.6236 3.77686 13.4732C3.71453 13.3228 3.61933 13.1882 3.49823 13.0793C3.37713 12.9705 3.2332 12.8901 3.077 12.8441L2.67823 12.7266C0.44059 12.0678 0.44059 8.8951 2.67823 8.23631L3.077 8.1188C3.2332 8.07279 3.37713 7.99241 3.49823 7.88355C3.61933 7.7747 3.71453 7.64012 3.77686 7.48969C3.83919 7.33925 3.86707 7.17678 3.85845 7.01417C3.84983 6.85157 3.80493 6.69295 3.72705 6.54995L3.52703 6.18493C2.41196 4.1348 4.6546 1.89341 6.70348 3.00973L7.0685 3.20849C7.2115 3.28638 7.37012 3.33128 7.53273 3.3399C7.69533 3.34852 7.85781 3.32064 8.00824 3.25831C8.15867 3.19598 8.29325 3.10077 8.40211 2.97967C8.51097 2.85857 8.59135 2.71465 8.63735 2.55845L8.75486 2.15968Z"/>
</mask>
<path fill-rule="evenodd" clip-rule="evenodd" d="M12.0463 2.51345C11.7388 1.46963 10.2612 1.46963 9.95368 2.51345L9.83618 2.91222C9.73735 3.24718 9.56485 3.55578 9.33131 3.81543C9.09777 4.07508 8.8091 4.2792 8.48646 4.41284C8.16381 4.54647 7.81535 4.60624 7.46662 4.58777C7.11788 4.56929 6.77769 4.47304 6.47097 4.30606L6.10594 4.10605C5.15088 3.58726 4.10582 4.63108 4.62585 5.58739L4.82461 5.95241C4.99159 6.25913 5.08785 6.59932 5.10632 6.94806C5.1248 7.2968 5.06503 7.64525 4.93139 7.9679C4.79775 8.29055 4.59363 8.57921 4.33398 8.81275C4.07433 9.0463 3.76573 9.2188 3.43078 9.31762L3.032 9.43513C1.98819 9.74265 1.98819 11.2202 3.032 11.5278L3.43078 11.6453C3.7659 11.7441 4.07468 11.9166 4.33446 12.1502C4.59424 12.3838 4.79844 12.6726 4.9321 12.9954C5.06575 13.3183 5.12547 13.6669 5.10687 14.0158C5.08827 14.3647 4.99183 14.705 4.82461 15.0117L4.6246 15.3755C4.10582 16.3306 5.14963 17.3756 6.10594 16.8556L6.47097 16.6568C6.77777 16.4899 7.11804 16.3937 7.46685 16.3753C7.81566 16.3569 8.16416 16.4167 8.48682 16.5505C8.80949 16.6843 9.09813 16.8885 9.33162 17.1483C9.5651 17.4081 9.73749 17.7169 9.83618 18.0519L9.95368 18.4494C10.2612 19.4933 11.7388 19.4933 12.0463 18.4494L12.1638 18.0507C12.2626 17.7155 12.4351 17.4068 12.6688 17.147C12.9024 16.8872 13.1912 16.683 13.514 16.5494C13.8368 16.4157 14.1854 16.356 14.5343 16.3746C14.8832 16.3932 15.2235 16.4896 15.5303 16.6568L15.8941 16.8568C16.8491 17.3756 17.8942 16.3318 17.3741 15.3755L17.1754 15.0117C17.0082 14.7049 16.9118 14.3645 16.8933 14.0155C16.8748 13.6666 16.9346 13.3179 17.0684 12.9951C17.2021 12.6723 17.4065 12.3835 17.6664 12.1499C17.9263 11.9163 18.2352 11.7439 18.5705 11.6453L18.968 11.5278C20.0118 11.2202 20.0118 9.74265 18.968 9.43513L18.5692 9.31762C18.2343 9.2188 17.9257 9.0463 17.666 8.81275C17.4064 8.57921 17.2022 8.29055 17.0686 7.9679C16.935 7.64525 16.8752 7.2968 16.8937 6.94806C16.9122 6.59932 17.0084 6.25913 17.1754 5.95241L17.3754 5.58739C17.8942 4.63233 16.8504 3.58726 15.8941 4.1073L15.5303 4.30606C15.2235 4.47351 14.8831 4.57014 14.534 4.58886C14.185 4.60758 13.8362 4.54792 13.5132 4.41425C13.1902 4.28058 12.9013 4.07629 12.6676 3.81638C12.4339 3.55647 12.2613 3.24752 12.1626 2.91222L12.0451 2.51345H12.0463ZM8.75486 2.15968C9.41365 -0.0779647 12.5863 -0.0779647 13.2451 2.15968L13.3626 2.55845C13.4087 2.71465 13.489 2.85857 13.5979 2.97967C13.7067 3.10077 13.8413 3.19598 13.9918 3.25831C14.1422 3.32064 14.3047 3.34852 14.4673 3.3399C14.6299 3.33128 14.7885 3.28638 14.9315 3.20849L15.2965 3.00848C17.3466 1.89341 19.5893 4.1348 18.4717 6.18493L18.273 6.54995C18.1951 6.69295 18.1502 6.85157 18.1416 7.01417C18.1329 7.17678 18.1608 7.33925 18.2231 7.48969C18.2855 7.64012 18.3807 7.7747 18.5018 7.88355C18.6229 7.99241 18.7668 8.07279 18.923 8.1188L19.3218 8.23631C21.5594 8.8951 21.5594 12.0678 19.3218 12.7266L18.923 12.8441C18.7668 12.8901 18.6229 12.9705 18.5018 13.0793C18.3807 13.1882 18.2855 13.3228 18.2231 13.4732C18.1608 13.6236 18.1329 13.7861 18.1416 13.9487C18.1502 14.1113 18.1951 14.2699 18.273 14.4129L18.473 14.778C19.5893 16.8281 17.3454 19.0707 15.2965 17.9532L14.9315 17.7544C14.7885 17.6765 14.6299 17.6316 14.4673 17.623C14.3047 17.6144 14.1422 17.6423 13.9918 17.7046C13.8413 17.7669 13.7067 17.8621 13.5979 17.9832C13.489 18.1043 13.4087 18.2482 13.3626 18.4044L13.2451 18.8032C12.5863 21.0409 9.41365 21.0409 8.75486 18.8032L8.63735 18.4044C8.59135 18.2482 8.51097 18.1043 8.40211 17.9832C8.29325 17.8621 8.15867 17.7669 8.00824 17.7046C7.85781 17.6423 7.69533 17.6144 7.53273 17.623C7.37012 17.6316 7.2115 17.6765 7.0685 17.7544L6.70348 17.9544C4.65335 19.0707 2.41196 16.8268 3.52828 14.778L3.72705 14.4129C3.80493 14.2699 3.84983 14.1113 3.85845 13.9487C3.86707 13.7861 3.83919 13.6236 3.77686 13.4732C3.71453 13.3228 3.61933 13.1882 3.49823 13.0793C3.37713 12.9705 3.2332 12.8901 3.077 12.8441L2.67823 12.7266C0.44059 12.0678 0.44059 8.8951 2.67823 8.23631L3.077 8.1188C3.2332 8.07279 3.37713 7.99241 3.49823 7.88355C3.61933 7.7747 3.71453 7.64012 3.77686 7.48969C3.83919 7.33925 3.86707 7.17678 3.85845 7.01417C3.84983 6.85157 3.80493 6.69295 3.72705 6.54995L3.52703 6.18493C2.41196 4.1348 4.6546 1.89341 6.70348 3.00973L7.0685 3.20849C7.2115 3.28638 7.37012 3.33128 7.53273 3.3399C7.69533 3.34852 7.85781 3.32064 8.00824 3.25831C8.15867 3.19598 8.29325 3.10077 8.40211 2.97967C8.51097 2.85857 8.59135 2.71465 8.63735 2.55845L8.75486 2.15968Z" fill="white"/>
<path fill-rule="evenodd" clip-rule="evenodd" d="M12.0463 2.51345C11.7388 1.46963 10.2612 1.46963 9.95368 2.51345L9.83618 2.91222C9.73735 3.24718 9.56485 3.55578 9.33131 3.81543C9.09777 4.07508 8.8091 4.2792 8.48646 4.41284C8.16381 4.54647 7.81535 4.60624 7.46662 4.58777C7.11788 4.56929 6.77769 4.47304 6.47097 4.30606L6.10594 4.10605C5.15088 3.58726 4.10582 4.63108 4.62585 5.58739L4.82461 5.95241C4.99159 6.25913 5.08785 6.59932 5.10632 6.94806C5.1248 7.2968 5.06503 7.64525 4.93139 7.9679C4.79775 8.29055 4.59363 8.57921 4.33398 8.81275C4.07433 9.0463 3.76573 9.2188 3.43078 9.31762L3.032 9.43513C1.98819 9.74265 1.98819 11.2202 3.032 11.5278L3.43078 11.6453C3.7659 11.7441 4.07468 11.9166 4.33446 12.1502C4.59424 12.3838 4.79844 12.6726 4.9321 12.9954C5.06575 13.3183 5.12547 13.6669 5.10687 14.0158C5.08827 14.3647 4.99183 14.705 4.82461 15.0117L4.6246 15.3755C4.10582 16.3306 5.14963 17.3756 6.10594 16.8556L6.47097 16.6568C6.77777 16.4899 7.11804 16.3937 7.46685 16.3753C7.81566 16.3569 8.16416 16.4167 8.48682 16.5505C8.80949 16.6843 9.09813 16.8885 9.33162 17.1483C9.5651 17.4081 9.73749 17.7169 9.83618 18.0519L9.95368 18.4494C10.2612 19.4933 11.7388 19.4933 12.0463 18.4494L12.1638 18.0507C12.2626 17.7155 12.4351 17.4068 12.6688 17.147C12.9024 16.8872 13.1912 16.683 13.514 16.5494C13.8368 16.4157 14.1854 16.356 14.5343 16.3746C14.8832 16.3932 15.2235 16.4896 15.5303 16.6568L15.8941 16.8568C16.8491 17.3756 17.8942 16.3318 17.3741 15.3755L17.1754 15.0117C17.0082 14.7049 16.9118 14.3645 16.8933 14.0155C16.8748 13.6666 16.9346 13.3179 17.0684 12.9951C17.2021 12.6723 17.4065 12.3835 17.6664 12.1499C17.9263 11.9163 18.2352 11.7439 18.5705 11.6453L18.968 11.5278C20.0118 11.2202 20.0118 9.74265 18.968 9.43513L18.5692 9.31762C18.2343 9.2188 17.9257 9.0463 17.666 8.81275C17.4064 8.57921 17.2022 8.29055 17.0686 7.9679C16.935 7.64525 16.8752 7.2968 16.8937 6.94806C16.9122 6.59932 17.0084 6.25913 17.1754 5.95241L17.3754 5.58739C17.8942 4.63233 16.8504 3.58726 15.8941 4.1073L15.5303 4.30606C15.2235 4.47351 14.8831 4.57014 14.534 4.58886C14.185 4.60758 13.8362 4.54792 13.5132 4.41425C13.1902 4.28058 12.9013 4.07629 12.6676 3.81638C12.4339 3.55647 12.2613 3.24752 12.1626 2.91222L12.0451 2.51345H12.0463ZM8.75486 2.15968C9.41365 -0.0779647 12.5863 -0.0779647 13.2451 2.15968L13.3626 2.55845C13.4087 2.71465 13.489 2.85857 13.5979 2.97967C13.7067 3.10077 13.8413 3.19598 13.9918 3.25831C14.1422 3.32064 14.3047 3.34852 14.4673 3.3399C14.6299 3.33128 14.7885 3.28638 14.9315 3.20849L15.2965 3.00848C17.3466 1.89341 19.5893 4.1348 18.4717 6.18493L18.273 6.54995C18.1951 6.69295 18.1502 6.85157 18.1416 7.01417C18.1329 7.17678 18.1608 7.33925 18.2231 7.48969C18.2855 7.64012 18.3807 7.7747 18.5018 7.88355C18.6229 7.99241 18.7668 8.07279 18.923 8.1188L19.3218 8.23631C21.5594 8.8951 21.5594 12.0678 19.3218 12.7266L18.923 12.8441C18.7668 12.8901 18.6229 12.9705 18.5018 13.0793C18.3807 13.1882 18.2855 13.3228 18.2231 13.4732C18.1608 13.6236 18.1329 13.7861 18.1416 13.9487C18.1502 14.1113 18.1951 14.2699 18.273 14.4129L18.473 14.778C19.5893 16.8281 17.3454 19.0707 15.2965 17.9532L14.9315 17.7544C14.7885 17.6765 14.6299 17.6316 14.4673 17.623C14.3047 17.6144 14.1422 17.6423 13.9918 17.7046C13.8413 17.7669 13.7067 17.8621 13.5979 17.9832C13.489 18.1043 13.4087 18.2482 13.3626 18.4044L13.2451 18.8032C12.5863 21.0409 9.41365 21.0409 8.75486 18.8032L8.63735 18.4044C8.59135 18.2482 8.51097 18.1043 8.40211 17.9832C8.29325 17.8621 8.15867 17.7669 8.00824 17.7046C7.85781 17.6423 7.69533 17.6144 7.53273 17.623C7.37012 17.6316 7.2115 17.6765 7.0685 17.7544L6.70348 17.9544C4.65335 19.0707 2.41196 16.8268 3.52828 14.778L3.72705 14.4129C3.80493 14.2699 3.84983 14.1113 3.85845 13.9487C3.86707 13.7861 3.83919 13.6236 3.77686 13.4732C3.71453 13.3228 3.61933 13.1882 3.49823 13.0793C3.37713 12.9705 3.2332 12.8901 3.077 12.8441L2.67823 12.7266C0.44059 12.0678 0.44059 8.8951 2.67823 8.23631L3.077 8.1188C3.2332 8.07279 3.37713 7.99241 3.49823 7.88355C3.61933 7.7747 3.71453 7.64012 3.77686 7.48969C3.83919 7.33925 3.86707 7.17678 3.85845 7.01417C3.84983 6.85157 3.80493 6.69295 3.72705 6.54995L3.52703 6.18493C2.41196 4.1348 4.6546 1.89341 6.70348 3.00973L7.0685 3.20849C7.2115 3.28638 7.37012 3.33128 7.53273 3.3399C7.69533 3.34852 7.85781 3.32064 8.00824 3.25831C8.15867 3.19598 8.29325 3.10077 8.40211 2.97967C8.51097 2.85857 8.59135 2.71465 8.63735 2.55845L8.75486 2.15968Z" stroke="white" stroke-width="0.4" mask="url(#path-1-outside-1)"/>
<path d="M9.08552 8.56697C9.59331 8.05918 10.282 7.77391 11.0001 7.77391C11.7183 7.77391 12.407 8.05918 12.9148 8.56697C13.4225 9.07475 13.7078 9.76346 13.7078 10.4816C13.7078 11.1997 13.4225 11.8884 12.9148 12.3962C12.407 12.904 11.7183 13.1893 11.0001 13.1893C10.282 13.1893 9.59331 12.904 9.08552 12.3962C8.57773 11.8884 8.29246 11.1997 8.29246 10.4816C8.29246 9.76346 8.57773 9.07475 9.08552 8.56697ZM7.15887 8.89048C6.94993 9.39492 6.84238 9.93558 6.84238 10.4816C6.84238 11.5843 7.28043 12.6418 8.06016 13.4216C8.83989 14.2013 9.89743 14.6393 11.0001 14.6393C12.1028 14.6393 13.1604 14.2013 13.9401 13.4216C14.7198 12.6418 15.1579 11.5843 15.1579 10.4816C15.1579 9.93558 15.0503 9.39492 14.8414 8.89048C14.6325 8.38604 14.3262 7.92769 13.9401 7.54161C13.554 7.15552 13.0957 6.84927 12.5912 6.64032C12.0868 6.43137 11.5461 6.32383 11.0001 6.32383C10.4541 6.32383 9.91347 6.43137 9.40903 6.64032C8.90459 6.84927 8.44624 7.15552 8.06016 7.54161C7.67408 7.92769 7.36782 8.38604 7.15887 8.89048Z" fill="white" stroke="white" stroke-width="0.2"/>
</svg>
