<svg width="30" height="25" viewBox="0 0 30 25" fill="none" xmlns="http://www.w3.org/2000/svg">
<path fill-rule="evenodd" clip-rule="evenodd" d="M14.5917 7.29893L14.6547 8.33699L13.6055 8.20988C9.78632 7.72263 6.4498 6.07019 3.61691 3.29495L2.23194 1.91792L1.8752 2.93481C1.11977 5.20161 1.60241 7.59552 3.17624 9.20558C4.01561 10.0954 3.82675 10.2225 2.37883 9.69284C1.8752 9.52336 1.43453 9.39625 1.39256 9.4598C1.24567 9.6081 1.7493 11.5359 2.148 12.2986C2.69359 13.3579 3.80577 14.3959 5.02286 15.0103L6.0511 15.4975L4.834 15.5187C3.65888 15.5187 3.61691 15.5399 3.74281 15.9848C4.1625 17.3618 5.82027 18.8236 7.66689 19.4591L8.96793 19.904L7.83477 20.582C6.15602 21.5565 4.18349 22.1073 2.21095 22.1497C1.26666 22.1708 0.490234 22.2556 0.490234 22.3191C0.490234 22.531 3.05033 23.7173 4.54022 24.1834C9.00989 25.5604 14.3189 24.9673 18.306 22.6157C21.1389 20.9421 23.9718 17.616 25.2938 14.3959C26.0072 12.6799 26.7207 9.54454 26.7207 8.0404C26.7207 7.06589 26.7837 6.93878 27.9588 5.7736C28.6513 5.09568 29.3018 4.3542 29.4277 4.14235C29.6375 3.73984 29.6166 3.73984 28.5464 4.09998C26.7627 4.73553 26.5109 4.65079 27.3922 3.69747C28.0427 3.01955 28.8192 1.79081 28.8192 1.43067C28.8192 1.36711 28.5044 1.47304 28.1477 1.6637C27.7699 1.87555 26.9306 2.19333 26.301 2.38399L25.1679 2.74414L24.1396 2.04503C23.5731 1.6637 22.7756 1.24 22.356 1.11289C21.2858 0.8163 19.649 0.85867 18.6837 1.19763C16.0606 2.15096 14.4029 4.60842 14.5917 7.29893Z" fill="white"/>
</svg>
