<svg width="15" height="13" viewBox="0 0 15 13" fill="none" xmlns="http://www.w3.org/2000/svg">
<path fill-rule="evenodd" clip-rule="evenodd" d="M7.52341 3.42266L7.55489 3.94169L7.03028 3.87814C5.1207 3.63451 3.45244 2.80829 2.03599 1.42067L1.34351 0.732155L1.16514 1.2406C0.787422 2.374 1.02874 3.57095 1.81566 4.37598C2.23534 4.82087 2.14091 4.88443 1.41695 4.61961C1.16514 4.53487 0.944805 4.47132 0.92382 4.50309C0.850375 4.57724 1.10219 5.54116 1.30154 5.92249C1.57434 6.45212 2.13042 6.97115 2.73897 7.27834L3.25309 7.52196L2.64454 7.53256C2.05698 7.53256 2.03599 7.54315 2.09895 7.76559C2.30879 8.45411 3.13767 9.18499 4.06099 9.50277L4.7115 9.72521L4.14492 10.0642C3.30555 10.5514 2.31928 10.8268 1.33302 10.848C0.860867 10.8586 0.472656 10.901 0.472656 10.9328C0.472656 11.0387 1.7527 11.6319 2.49765 11.8649C4.73249 12.5534 7.38701 12.2568 9.38053 11.0811C10.797 10.2442 12.2134 8.58122 12.8744 6.97115C13.2312 6.11316 13.5879 4.54546 13.5879 3.7934C13.5879 3.30614 13.6194 3.24258 14.2069 2.65999C14.5532 2.32103 14.8784 1.9503 14.9414 1.84437C15.0463 1.64311 15.0358 1.64311 14.5007 1.82318C13.6089 2.14096 13.483 2.09859 13.9236 1.62193C14.2489 1.28297 14.6371 0.6686 14.6371 0.488527C14.6371 0.456749 14.4797 0.509712 14.3014 0.605044C14.1125 0.71097 13.6928 0.869858 13.3781 0.96519L12.8115 1.14526L12.2974 0.79571C12.0141 0.605044 11.6154 0.393194 11.4055 0.329639C10.8704 0.181343 10.052 0.202528 9.56939 0.372009C8.25786 0.848673 7.42898 2.07741 7.52341 3.42266Z" fill="#000008"/>
</svg>
