<svg width="19" height="18" viewBox="0 0 19 18" fill="none" xmlns="http://www.w3.org/2000/svg">
<path fill-rule="evenodd" clip-rule="evenodd" d="M11.2981 4.35705C11.2462 4.1137 11.2188 3.86125 11.2188 3.60241C11.2188 1.61447 12.8306 0.00292969 14.8187 0.00292969C16.8069 0.00292969 18.4186 1.61447 18.4186 3.60241C18.4186 5.59035 16.8069 7.2019 14.8187 7.2019C13.7354 7.2019 12.7639 6.72344 12.1039 5.96635L7.53912 8.24851C7.59092 8.4916 7.61818 8.74377 7.61818 9.00232C7.61818 9.2609 7.59091 9.51311 7.53909 9.75624L12.1033 12.0381C12.7632 11.2805 13.735 10.8018 14.8187 10.8018C16.8069 10.8018 18.4186 12.4133 18.4186 14.4012C18.4186 16.3892 16.8069 18.0007 14.8187 18.0007C12.8306 18.0007 11.2188 16.3892 11.2188 14.4012C11.2188 14.1428 11.2461 13.8906 11.2979 13.6476L6.73358 11.3657C6.07363 12.1231 5.10188 12.6018 4.01832 12.6018C2.03017 12.6018 0.418457 10.9903 0.418457 9.00232C0.418457 7.01438 2.03017 5.40283 4.01832 5.40283C5.10192 5.40283 6.0737 5.88156 6.73366 6.63902L11.2981 4.35705ZM14.8303 5.42128C15.8449 5.42128 16.6674 4.59889 16.6674 3.58442C16.6674 2.56995 15.8449 1.74756 14.8303 1.74756C13.8157 1.74756 12.9933 2.56995 12.9933 3.58442C12.9933 4.59889 13.8157 5.42128 14.8303 5.42128ZM16.6371 14.4409C16.6371 15.4553 15.8146 16.2777 14.8001 16.2777C13.7855 16.2777 12.963 15.4553 12.963 14.4409C12.963 13.4264 13.7855 12.604 14.8001 12.604C15.8146 12.604 16.6371 13.4264 16.6371 14.4409ZM4.00115 10.8388C5.01573 10.8388 5.8382 10.0164 5.8382 9.0019C5.8382 7.98743 5.01573 7.16504 4.00115 7.16504C2.98657 7.16504 2.16409 7.98743 2.16409 9.0019C2.16409 10.0164 2.98657 10.8388 4.00115 10.8388Z" fill="#323754"/>
</svg>
