<svg width="22" height="23" viewBox="0 0 22 23" fill="none" xmlns="http://www.w3.org/2000/svg">
<path fill-rule="evenodd" clip-rule="evenodd" d="M13.3526 5.79071C13.2928 5.50082 13.2614 5.20005 13.2614 4.89165C13.2614 2.52891 15.107 0.613525 17.3837 0.613525C19.6603 0.613525 21.5059 2.52891 21.5059 4.89165C21.5059 7.25439 19.6603 9.16978 17.3837 9.16978C16.1439 9.16978 15.032 8.60181 14.2763 7.70293L9.0488 10.4155C9.10793 10.704 9.13904 11.0032 9.13904 11.31C9.13904 11.6181 9.10765 11.9186 9.04802 12.2083L14.2731 14.9196C15.0289 14.0185 16.1422 13.4489 17.3837 13.4489C19.6603 13.4489 21.5059 15.3643 21.5059 17.7271C21.5059 20.0898 19.6603 22.0052 17.3837 22.0052C15.107 22.0052 13.2614 20.0898 13.2614 17.7271C13.2614 17.4204 13.2925 17.1213 13.3516 16.8329L8.12463 14.1207C7.36894 15.0199 6.2568 15.5881 5.01679 15.5881C2.74013 15.5881 0.894531 13.6727 0.894531 11.31C0.894531 8.94724 2.74013 7.03186 5.01679 7.03186C6.25815 7.03186 7.37136 7.60131 8.1271 8.50224L13.3526 5.79071ZM17.3973 7.054C18.5591 7.054 19.501 6.07656 19.501 4.87082C19.501 3.66508 18.5591 2.68764 17.3973 2.68764C16.2355 2.68764 15.2937 3.66508 15.2937 4.87082C15.2937 6.07656 16.2355 7.054 17.3973 7.054ZM19.466 17.7764C19.466 18.9821 18.5242 19.9595 17.3624 19.9595C16.2006 19.9595 15.2587 18.9821 15.2587 17.7764C15.2587 16.5706 16.2006 15.5932 17.3624 15.5932C18.5242 15.5932 19.466 16.5706 19.466 17.7764ZM4.99717 13.4917C6.15898 13.4917 7.10081 12.5142 7.10081 11.3085C7.10081 10.1028 6.15898 9.12532 4.99717 9.12532C3.83537 9.12532 2.89354 10.1028 2.89354 11.3085C2.89354 12.5142 3.83537 13.4917 4.99717 13.4917Z" fill="#75758F"/>
</svg>
