<svg width="36" height="30" viewBox="0 0 36 30" fill="none" xmlns="http://www.w3.org/2000/svg">
<path d="M21.2971 5.27345C18.1663 6.57725 11.9049 9.27339 2.52069 13.3619C0.999583 13.9655 0.198789 14.561 0.126355 15.1405C0.00563293 16.1184 1.23298 16.5047 2.90297 17.0318L3.60719 17.2532C5.24902 17.7884 7.46228 18.4121 8.60915 18.4362C9.65541 18.4604 10.8184 18.0338 12.102 17.1485C20.8705 11.2291 25.3976 8.2392 25.6793 8.17481C25.8805 8.12652 26.1622 8.07019 26.3473 8.2392C26.5364 8.40419 26.5163 8.72209 26.4962 8.8066C26.3755 9.3257 21.5587 13.8005 19.0677 16.1184C18.2911 16.8427 17.7398 17.3538 17.6271 17.4704C17.379 17.724 17.1268 17.9735 16.8706 18.2189C15.3414 19.6917 14.1986 20.7943 16.931 22.5971C18.2468 23.4663 19.3011 24.1786 20.3514 24.8949C21.4943 25.6756 22.6371 26.4522 24.118 27.426C24.4922 27.6675 24.8544 27.929 25.2045 28.1785C26.5364 29.1282 27.7396 29.9813 29.2165 29.8445C30.0776 29.764 30.967 28.9592 31.4177 26.5448C32.484 20.8426 34.5806 8.49272 35.0635 3.40225C35.0929 2.97909 35.0754 2.55396 35.0112 2.13466C34.9733 1.79632 34.8095 1.48461 34.5524 1.26144C34.1863 1.00868 33.7498 0.877736 33.305 0.887198C32.0977 0.907318 30.2346 1.5552 21.2971 5.27345Z" fill="white"/>
</svg>
