<svg width="33" height="33" viewBox="0 0 33 33" fill="none" xmlns="http://www.w3.org/2000/svg">
<path fill-rule="evenodd" clip-rule="evenodd" d="M19.1148 10.114C19.0456 9.7895 19.0092 9.45281 19.0092 9.10762C19.0092 6.45665 21.1582 4.30762 23.8092 4.30762C26.4601 4.30762 28.6092 6.45665 28.6092 9.10762C28.6092 11.7586 26.4601 13.9076 23.8092 13.9076C22.3647 13.9076 21.0693 13.2696 20.1894 12.26L14.1035 15.303C14.1725 15.627 14.2088 15.9631 14.2088 16.3076C14.2088 16.6524 14.1724 16.9887 14.1033 17.3129L20.1889 20.3556C21.0688 19.3457 22.3645 18.7075 23.8092 18.7075C26.4601 18.7075 28.6092 20.8565 28.6092 23.5075C28.6092 26.1585 26.4601 28.3075 23.8092 28.3075C21.1582 28.3075 19.0092 26.1585 19.0092 23.5075C19.0092 23.1626 19.0455 22.8261 19.1147 22.5018L13.0293 19.4592C12.1494 20.4693 10.8536 21.1076 9.40877 21.1076C6.7578 21.1076 4.60876 18.9586 4.60876 16.3076C4.60876 13.6567 6.7578 11.5076 9.40877 11.5076C10.8538 11.5076 12.1498 12.1462 13.0298 13.1566L19.1148 10.114ZM23.8244 11.5341C25.1773 11.5341 26.2739 10.4374 26.2739 9.08459C26.2739 7.73176 25.1773 6.63509 23.8244 6.63509C22.4716 6.63509 21.3749 7.73176 21.3749 9.08459C21.3749 10.4374 22.4716 11.5341 23.8244 11.5341ZM26.2349 23.5612C26.2349 24.914 25.1382 26.0107 23.7854 26.0107C22.4325 26.0107 21.3359 24.914 21.3359 23.5612C21.3359 22.2083 22.4325 21.1117 23.7854 21.1117C25.1382 21.1117 26.2349 22.2083 26.2349 23.5612ZM9.38655 18.7572C10.7394 18.7572 11.8361 17.6605 11.8361 16.3077C11.8361 14.9548 10.7394 13.8582 9.38655 13.8582C8.03373 13.8582 6.93705 14.9548 6.93705 16.3077C6.93705 17.6605 8.03373 18.7572 9.38655 18.7572Z" fill="#4048FF"/>
</svg>
