<svg width="15" height="15" viewBox="0 0 15 15" fill="none" xmlns="http://www.w3.org/2000/svg">
<path fill-rule="evenodd" clip-rule="evenodd" d="M9.16217 3.73452C9.11975 3.53574 9.09742 3.32952 9.09742 3.11809C9.09742 1.49471 10.4134 0.178711 12.0368 0.178711C13.6602 0.178711 14.9762 1.49471 14.9762 3.11809C14.9762 4.74146 13.6602 6.05746 12.0368 6.05746C11.1523 6.05746 10.3591 5.66681 9.82024 5.04864L6.09357 6.91197C6.13582 7.11036 6.15805 7.31616 6.15805 7.52715C6.15805 7.73834 6.13577 7.94433 6.09345 8.1429L9.81985 10.0061C10.3587 9.38767 11.1521 8.99684 12.0368 8.99684C13.6602 8.99684 14.9762 10.3128 14.9762 11.9362C14.9762 13.5596 13.6602 14.8756 12.0368 14.8756C10.4134 14.8756 9.09742 13.5596 9.09742 11.9362C9.09742 11.725 9.1197 11.519 9.16204 11.3204L5.43569 9.45718C4.89682 10.0757 4.10339 10.4665 3.21867 10.4665C1.5953 10.4665 0.279297 9.15052 0.279297 7.52715C0.279297 5.90378 1.5953 4.58777 3.21867 4.58777C4.1036 4.58777 4.8972 4.97883 5.43607 5.59756L9.16217 3.73452ZM12.0462 4.604C12.8747 4.604 13.5462 3.93243 13.5462 3.104C13.5462 2.27557 12.8747 1.604 12.0462 1.604C11.2178 1.604 10.5462 2.27557 10.5462 3.104C10.5462 3.93243 11.2178 4.604 12.0462 4.604ZM13.5227 11.969C13.5227 12.7974 12.8511 13.469 12.0227 13.469C11.1942 13.469 10.5227 12.7974 10.5227 11.969C10.5227 11.1405 11.1942 10.469 12.0227 10.469C12.8511 10.469 13.5227 11.1405 13.5227 11.969ZM3.20489 9.02715C4.03332 9.02715 4.70489 8.35558 4.70489 7.52715C4.70489 6.69872 4.03332 6.02715 3.20489 6.02715C2.37646 6.02715 1.70489 6.69872 1.70489 7.52715C1.70489 8.35558 2.37646 9.02715 3.20489 9.02715Z" fill="#6C768C"/>
</svg>
