<svg width="19" height="19" viewBox="0 0 19 19" fill="none" xmlns="http://www.w3.org/2000/svg">
<path fill-rule="evenodd" clip-rule="evenodd" d="M11.357 4.65938C11.3051 4.41599 11.2777 4.16348 11.2777 3.90459C11.2777 1.91642 12.8895 0.304688 14.8776 0.304688C16.8658 0.304688 18.4775 1.91642 18.4775 3.90459C18.4775 5.89277 16.8658 7.5045 14.8776 7.5045C13.7943 7.5045 12.8228 7.02601 12.1629 6.26885L7.59822 8.5512C7.65002 8.7943 7.67728 9.04649 7.67728 9.30504C7.67728 9.56373 7.64999 9.81605 7.59814 10.0593L12.1621 12.3413C12.8221 11.5836 13.7939 11.1047 14.8776 11.1047C16.8658 11.1047 18.4775 12.7165 18.4775 14.7046C18.4775 16.6928 16.8658 18.3045 14.8776 18.3045C12.8895 18.3045 11.2777 16.6928 11.2777 14.7046C11.2777 14.4462 11.305 14.194 11.3567 13.951L6.79252 11.6689C6.13257 12.4263 5.16089 12.9049 4.07741 12.9049C2.08925 12.9049 0.477539 11.2932 0.477539 9.30504C0.477539 7.31687 2.08925 5.70513 4.07741 5.70513C5.16103 5.70513 6.13283 6.18393 6.79278 6.94151L11.357 4.65938ZM14.8893 5.72371C15.9039 5.72371 16.7263 4.90123 16.7263 3.88664C16.7263 2.87205 15.9039 2.04956 14.8893 2.04956C13.8747 2.04956 13.0522 2.87205 13.0522 3.88664C13.0522 4.90123 13.8747 5.72371 14.8893 5.72371ZM16.6963 14.7443C16.6963 15.7589 15.8738 16.5814 14.8592 16.5814C13.8446 16.5814 13.0222 15.7589 13.0222 14.7443C13.0222 13.7297 13.8446 12.9072 14.8592 12.9072C15.8738 12.9072 16.6963 13.7297 16.6963 14.7443ZM4.06033 11.1414C5.07491 11.1414 5.89739 10.319 5.89739 9.30436C5.89739 8.28977 5.07491 7.46729 4.06033 7.46729C3.04575 7.46729 2.22327 8.28977 2.22327 9.30436C2.22327 10.319 3.04575 11.1414 4.06033 11.1414Z" fill="#1F2337"/>
</svg>
