<svg width="58" height="62" viewBox="0 0 58 62" fill="none" xmlns="http://www.w3.org/2000/svg">
<path d="M39.2289 43.1964H27.825C27.117 46.523 24.0519 74.4342 23.8926 77.2736H25.8263L33.0286 50.0306C33.1275 50.7888 34.5538 75.8346 34.6484 76.2818L36.709 75.5846L39.2289 43.1964Z" fill="#00161D"/>
<path d="M43.7302 35.9368C40.7812 33.7052 38.0231 30.7232 35.6902 27.5791C33.9046 25.2338 34.7064 24.026 36.5004 23.3706C37.6282 23.4537 38.5839 23.8248 39.4629 24.9243C41.9953 28.0916 43.0931 29.9414 45.0186 33.1179L43.7302 35.9368Z" fill="#F62054"/>
<path d="M46.6193 25.3937L45.729 25.0463L44.7974 27.3691L46.4845 28.1128C46.5833 27.0681 46.6116 26.1116 46.6193 25.3937Z" fill="#E3E3E3"/>
<path d="M44.7964 27.3693L42.8062 32.3319L44.1808 34.8004C45.6835 33.256 46.6509 30.505 46.8729 28.1571L44.7964 27.3693Z" fill="#F62054"/>
<path d="M47.4587 26.6668L46.8464 26.8809C46.5618 26.9804 46.2451 26.9154 46.023 26.7146C44.8743 25.6755 43.6962 23.4232 43.23 22.0604L45.8318 21.1507C46.1933 22.2938 47.1413 24.3879 47.8649 25.3628C48.2066 25.8232 48.0055 26.4755 47.4587 26.6668Z" fill="#000342"/>
<path d="M45.1791 21.379L42.9712 22.151C41.7518 22.5774 40.4108 21.9536 39.9761 20.7577C39.5414 19.5619 40.1775 18.2468 41.3969 17.8205L43.6047 17.0485L45.1791 21.379Z" fill="url(#paint0_linear)"/>
<path d="M43.2836 17.2736C42.8604 17.5004 42.8455 18.5351 43.2389 19.6172C43.6322 20.6994 44.3114 21.4914 44.785 21.4033C44.7853 21.4045 55.1874 21.4373 55.1874 21.4373L51.3182 10.7944L43.2836 17.2736Z" fill="#F62054"/>
<path d="M51.2119 10.1301C50.0471 10.5373 50.0702 13.5284 51.2634 16.8108C52.4567 20.0932 54.3683 22.4239 55.533 22.0167C56.6978 21.6094 56.6748 18.6184 55.4815 15.336C54.2883 12.0536 52.3767 9.72284 51.2119 10.1301Z" fill="#000342"/>
<path d="M51.2631 16.8112C51.5237 17.5284 51.8188 18.2 52.1328 18.8077L54.5059 17.5366L53.3066 14.2375L50.6489 14.7255C50.7976 15.3909 51.0024 16.0941 51.2631 16.8112Z" fill="url(#paint1_linear)"/>
<path d="M53.3086 14.2398C52.9854 14.3528 52.9917 15.1829 53.3229 16.0939C53.6541 17.0049 54.1846 17.6517 54.5079 17.5387C54.8312 17.4257 54.8248 16.5956 54.4936 15.6846C54.1625 14.7736 53.6319 14.1267 53.3086 14.2398Z" fill="#F62054"/>
<path d="M55.6292 22.2792C54.9434 22.5189 54.0766 22.0548 53.1889 20.9722C52.363 19.9653 51.5846 18.5207 50.9971 16.9046C50.4096 15.2885 50.0805 13.6868 50.0705 12.3947C50.0597 11.0054 50.4315 10.1082 51.1173 9.8685C51.8031 9.62876 52.6698 10.0928 53.5577 11.1755C54.3835 12.1823 55.1619 13.627 55.7493 15.2431C56.3369 16.8592 56.6659 18.4609 56.676 19.753C56.6866 21.1423 56.3149 22.0394 55.6292 22.2792ZM51.3076 10.3921C50.4364 10.6967 50.3137 13.3696 51.531 16.7179C52.7482 20.0662 54.5673 22.0602 55.4387 21.7556C56.3101 21.451 56.4327 18.7781 55.2153 15.4297C53.998 12.0814 52.179 10.0874 51.3076 10.3921Z" fill="#B3EDFF"/>
<path d="M46.1532 26.8152L44.8088 24.948L44.2631 23.7943L43.9438 23.9396L44.2126 25.3066L45.0324 26.5421L46.1532 26.8152ZM46.1298 23.5235L47.2421 25.2356L47.5427 24.6189L47.2335 23.8808L46.6789 22.7581L46.4616 22.7723L46.1298 23.5235Z" fill="#F4ACC8"/>
<path d="M38.5188 37.5972C38.5866 35.1845 39.0193 29.8046 39.1723 26.3773C39.2333 25.0098 38.3229 23.7795 36.975 23.4247C33.5252 22.5163 29.4614 22.217 26.5243 23.4814C25.7131 23.8306 25.2165 24.6062 25.2523 25.5183C25.4333 30.1329 27.8402 37.5972 27.8402 37.5972L26.4842 46.2375H40.1095L38.5062 37.5972H38.5188Z" fill="#F62054"/>
<path d="M36.3283 37.717L35.6272 23.1097C33.843 22.7419 31.962 22.5563 30.1987 22.6703L34.1224 37.7287L33.8047 44.2303H36.2811L36.3283 37.717Z" fill="#E3E3E3"/>
<path d="M19.3125 26.6258L18.3809 27.2152C18.4277 27.6417 18.494 28.1562 18.5832 28.7253L20.3105 28.2915L19.3125 26.6258Z" fill="#F62054"/>
<path d="M22.5244 36.7383C22.9672 33.3779 23.599 28.1825 25.5254 24.4783L29.8999 26.8129C28.8449 30.4148 27.1412 35.0545 25.4871 38.0408L22.5244 36.7383Z" fill="#F62054"/>
<path d="M24.5204 35.3206L20.3098 28.2918L18.1787 28.7289C18.6218 31.557 20.0481 35.764 22.2255 37.6067C23.2783 38.4292 24.3675 38.7463 25.4866 38.0406L24.5204 35.3206Z" fill="#F62054"/>
<path d="M33.8058 44.2305L33.708 46.2281H36.5037L36.2822 44.2305H33.8058Z" fill="#00161D"/>
<path d="M34.2888 20.9469L33.6955 24.9337L31.0303 22.7366L32.3293 19.2595L34.2888 20.9469Z" fill="#F4ACC8"/>
<path d="M35.5955 20.6642C35.6352 21.2953 35.0232 21.8817 33.8022 21.4752L31.808 20.6085L30.7959 17.6696L31.7835 15.3337L35.3674 15.4119L35.5955 20.6642Z" fill="#F4ACC8"/>
<path d="M35.1147 17.5486L35.9574 19.0756L35.2521 19.2014L35.1147 17.5486Z" fill="#F4ACC8"/>
<path d="M35.5691 19.2938H34.6231C34.0179 19.3972 33.3899 19.6457 33.212 19.069C33.212 19.069 32.937 17.5756 32.9232 17.2273L35.5746 16.423L36.1996 14.4357L35.3156 14.6392L31.8679 14.7716C30.3324 14.814 29.7477 15.9564 30.2822 17.6081L31.008 19.6076C31.2036 20.1466 31.2515 20.4399 31.809 20.6081L32.0076 20.0348C32.1279 19.6875 32.0585 19.3128 31.8533 19.0061C31.8203 18.9567 31.7896 18.9028 31.7627 18.845C31.5984 18.4928 31.6288 18.1338 31.8308 18.043C32.0327 17.9523 32.3298 18.1643 32.4942 18.5165C32.6386 18.8258 32.7274 20.9384 32.7274 20.9384L34.0104 21.5767C35.2547 21.9084 35.8285 21.286 35.7492 20.6586L35.5691 19.2938Z" fill="#4F2674"/>
<path d="M30.8296 22.6421L32.2977 26.1223L33.6975 24.9334L31.2713 22.0963L30.8296 22.6421Z" fill="white"/>
<path d="M34.398 22.8877L34.6883 25.8451L33.6982 24.9338L34.0981 22.2465L34.398 22.8877Z" fill="white"/>
<path d="M19.3111 26.626C19.3111 26.626 20.4709 25.2419 18.8728 25.06C14.5875 24.5722 17.6102 25.1725 17.4572 25.1725C17.3041 25.1725 15.9267 25.06 14.7024 24.8723C13.8934 24.7483 14.8554 26.2231 16.3094 26.5233C17.7634 26.8235 18.6051 27.0861 18.6051 27.0861L19.3111 26.626Z" fill="#F4ACC8"/>
<path d="M25.4161 18.9935C25.399 18.9957 25.3815 18.9953 25.364 18.9961C25.3293 18.9987 25.2952 19.0013 25.2596 19.0004C25.2382 19 25.2167 18.997 25.1952 18.9953C25.1632 18.9927 25.1312 18.991 25.0983 18.9858C25.0751 18.9824 25.051 18.9763 25.0273 18.9716C24.9958 18.9652 24.9646 18.9591 24.9326 18.9505C24.9081 18.9441 24.8831 18.9351 24.8585 18.9273C24.8274 18.9174 24.7963 18.9076 24.7647 18.8955C24.7393 18.8861 24.7139 18.8744 24.6885 18.8637C24.6573 18.8504 24.6262 18.837 24.5955 18.822C24.5697 18.8095 24.5442 18.7953 24.5184 18.7816C24.4877 18.7653 24.457 18.7485 24.4263 18.7304C24.4005 18.715 24.3746 18.6986 24.3487 18.6819C24.3185 18.6625 24.2882 18.6427 24.2584 18.6212C24.2374 18.6066 24.2164 18.5907 24.1953 18.5752C24.1392 18.5335 24.0835 18.4888 24.0287 18.442C24.0151 18.4299 24.0011 18.4192 23.9871 18.4071C23.9393 18.3646 23.892 18.3194 23.8455 18.273C23.8376 18.2649 23.8293 18.258 23.8214 18.2498C23.7841 18.212 23.7482 18.1716 23.7118 18.1312C23.6986 18.1165 23.6851 18.1032 23.6723 18.0882C23.6653 18.0804 23.6592 18.0718 23.6522 18.0637C23.6123 18.0168 23.5733 17.9695 23.5351 17.9201C23.5215 17.9024 23.5088 17.8835 23.4952 17.8655C23.4654 17.8251 23.4361 17.7851 23.4076 17.743C23.3909 17.7185 23.3756 17.6931 23.3594 17.6682C23.3352 17.6312 23.3116 17.5938 23.2888 17.5555C23.2699 17.5241 23.2524 17.4915 23.2349 17.4597C23.2112 17.4171 23.1866 17.375 23.1647 17.3311C23.1336 17.2692 23.1042 17.2073 23.0775 17.1458C23.0757 17.142 23.0744 17.1385 23.0731 17.1351C23.0503 17.0822 23.0293 17.0298 23.0095 16.9777C23.003 16.9601 22.9968 16.9429 22.9907 16.9257C22.9771 16.8875 22.964 16.8492 22.9521 16.8114C22.9455 16.7903 22.939 16.7697 22.9328 16.7486C22.9219 16.7116 22.9122 16.6747 22.903 16.6381C22.8982 16.6192 22.8934 16.6003 22.889 16.5818C22.8789 16.5375 22.8701 16.4932 22.8623 16.4498C22.8605 16.4399 22.8579 16.4296 22.8566 16.4193C22.8478 16.366 22.8412 16.3135 22.836 16.262C22.8346 16.2473 22.8338 16.2327 22.8329 16.2181C22.8298 16.1811 22.8276 16.1446 22.8263 16.1089C22.8259 16.0909 22.8259 16.0728 22.8259 16.0547C22.8259 16.0229 22.8263 15.9911 22.8276 15.9602C22.8285 15.9421 22.8294 15.9241 22.8307 15.9064C22.8329 15.8755 22.8364 15.845 22.8403 15.8149C22.8425 15.799 22.8443 15.783 22.8465 15.7676C22.8522 15.7306 22.8596 15.6949 22.8675 15.6597C22.8693 15.6524 22.8706 15.6442 22.8723 15.6369C22.8829 15.5956 22.8951 15.5561 22.9087 15.5174C22.9263 15.4675 22.9469 15.4202 22.9701 15.3755C22.9771 15.3617 22.9854 15.3493 22.9929 15.336C23.0082 15.3093 23.024 15.2826 23.0415 15.2577C23.0525 15.2422 23.0639 15.228 23.0757 15.2134C23.0906 15.1945 23.106 15.176 23.1222 15.1584C23.1358 15.1442 23.1498 15.1309 23.1638 15.1176C23.1801 15.1025 23.1963 15.0879 23.2138 15.0741C23.2388 15.0539 23.2642 15.0342 23.2918 15.0174L22.8776 15.2753C22.8574 15.2878 22.8377 15.3016 22.8189 15.3157C22.8118 15.3209 22.8061 15.3274 22.7996 15.3325C22.7825 15.3463 22.7658 15.3609 22.7496 15.3759C22.7408 15.3841 22.7312 15.391 22.7224 15.3996C22.7172 15.4052 22.7128 15.4116 22.7075 15.4172C22.6913 15.4348 22.676 15.4533 22.661 15.4722C22.6532 15.4821 22.644 15.4907 22.6365 15.501C22.633 15.5058 22.6304 15.5118 22.6269 15.5165C22.6093 15.5414 22.594 15.5677 22.5786 15.5943C22.5725 15.6051 22.565 15.6145 22.5593 15.6253C22.558 15.6279 22.5572 15.6313 22.5554 15.6339C22.5322 15.6786 22.512 15.7263 22.494 15.7757C22.4932 15.7779 22.4918 15.78 22.4914 15.7822C22.4787 15.8187 22.4677 15.8566 22.4581 15.8952C22.4563 15.9026 22.455 15.9103 22.4533 15.9176C22.4463 15.9468 22.4397 15.9765 22.4344 16.007C22.4335 16.013 22.4331 16.0195 22.4322 16.0255C22.4296 16.041 22.4278 16.0569 22.4261 16.0728C22.4221 16.1029 22.4191 16.1334 22.4164 16.1644C22.4151 16.182 22.4143 16.2 22.4134 16.2181C22.4121 16.2491 22.4116 16.2809 22.4116 16.3127C22.4116 16.3307 22.4116 16.3484 22.4121 16.3664C22.4129 16.4025 22.4156 16.4391 22.4186 16.476C22.42 16.4907 22.4204 16.5048 22.4217 16.5195C22.427 16.5711 22.4335 16.6235 22.4423 16.6768C22.4441 16.6867 22.4463 16.697 22.448 16.7069C22.4559 16.7507 22.4642 16.7946 22.4747 16.8389C22.4791 16.8578 22.484 16.8767 22.4888 16.8956C22.498 16.9322 22.5076 16.9687 22.5186 17.0057C22.5247 17.0267 22.5313 17.0478 22.5379 17.0689C22.5431 17.0852 22.5471 17.1011 22.5528 17.1175C22.5598 17.1389 22.5686 17.1609 22.5764 17.1828C22.5826 17.2004 22.5887 17.2176 22.5953 17.2352C22.615 17.2873 22.6356 17.3397 22.6584 17.3922C22.6602 17.396 22.6615 17.3999 22.6632 17.4038C22.6637 17.4042 22.6637 17.4051 22.6641 17.4055C22.6909 17.4665 22.7198 17.5276 22.7505 17.5886C22.7584 17.6041 22.7663 17.6196 22.7741 17.6346C22.7891 17.663 22.8053 17.6896 22.8206 17.7172C22.8386 17.7494 22.8561 17.7816 22.8745 17.813C22.8785 17.8199 22.882 17.8268 22.8864 17.8337C22.9052 17.865 22.9258 17.8947 22.9455 17.9252C22.9618 17.9502 22.9771 17.976 22.9938 18.0005C22.9968 18.0048 22.9995 18.0099 23.0025 18.0142C23.028 18.0512 23.0547 18.0869 23.081 18.1226C23.0946 18.1406 23.1073 18.1595 23.1209 18.1776C23.1222 18.1797 23.124 18.1819 23.1253 18.1836C23.1617 18.2313 23.1998 18.2769 23.2379 18.3216C23.2445 18.3293 23.2511 18.3379 23.2577 18.3457C23.2581 18.3461 23.2581 18.3461 23.2585 18.3465C23.2708 18.3607 23.284 18.3736 23.2962 18.3878C23.3326 18.4286 23.369 18.4691 23.4067 18.5077C23.4076 18.5086 23.408 18.509 23.4089 18.5099C23.4159 18.5172 23.4234 18.5232 23.4304 18.5301C23.4773 18.577 23.5246 18.6221 23.5728 18.6651C23.5768 18.6685 23.5807 18.6728 23.5847 18.6763C23.5943 18.6849 23.6044 18.6917 23.614 18.6999C23.6688 18.7472 23.7245 18.7915 23.7806 18.8332C23.7911 18.8409 23.8012 18.8504 23.8117 18.8581C23.8223 18.8659 23.8332 18.8719 23.8437 18.8796C23.874 18.9007 23.9038 18.9204 23.9345 18.9402C23.9603 18.957 23.9858 18.9733 24.0116 18.9888C24.0423 19.0069 24.073 19.0236 24.1037 19.0404C24.1296 19.0541 24.155 19.0683 24.1808 19.0808C24.212 19.0958 24.2427 19.1092 24.2738 19.1225C24.2992 19.1332 24.3246 19.1449 24.3501 19.1543C24.3816 19.1664 24.4127 19.1762 24.4439 19.1861C24.4684 19.1939 24.4934 19.2029 24.5179 19.2093C24.5499 19.2179 24.5811 19.224 24.6126 19.2304C24.6363 19.2351 24.66 19.2412 24.6832 19.2446C24.7156 19.2493 24.7476 19.2515 24.7796 19.2541C24.8011 19.2558 24.823 19.2588 24.8445 19.2592C24.8796 19.2601 24.9138 19.2571 24.948 19.2549C24.9655 19.2536 24.9835 19.254 25.0006 19.2523C25.0519 19.2463 25.1018 19.2364 25.1505 19.2227C25.232 19.1995 25.307 19.1664 25.3745 19.1242L25.7888 18.8663C25.7212 18.9084 25.6463 18.9415 25.5647 18.9647C25.517 18.9776 25.467 18.9871 25.4161 18.9935Z" fill="url(#paint2_linear)"/>
<path d="M23.5169 14.9185C24.2766 14.7035 25.351 15.4344 25.9169 16.5517C26.4824 17.6681 26.3259 18.7489 25.5658 18.9638C24.8065 19.1788 23.7312 18.4471 23.1658 17.3306C22.5998 16.2129 22.7576 15.1334 23.5169 14.9185Z" fill="url(#paint3_linear)"/>
<path opacity="0.4" d="M23.7342 15.1478C23.1658 15.371 23.1027 16.3318 23.5944 17.2897C24.0857 18.2481 24.9478 18.8459 25.5166 18.6227C26.085 18.3996 26.1481 17.4387 25.6564 16.4809C25.1651 15.5229 24.303 14.9251 23.7342 15.1478ZM25.4432 16.5647C25.8325 17.3235 25.7828 18.0855 25.3315 18.2626C24.8811 18.4392 24.1977 17.9651 23.8085 17.2063C23.4187 16.446 23.4684 15.6846 23.9189 15.508C24.3697 15.3308 25.0535 15.805 25.4432 16.5647Z" fill="#FEFBB4"/>
<path d="M24.9087 16.108L23.9079 16.6812C23.8374 16.3746 23.8904 16.08 24.0868 15.9675C24.2089 15.8976 24.3662 15.9098 24.5254 15.9806L24.6841 15.8897C24.4253 15.7141 24.1736 15.6795 23.981 15.7898C23.6801 15.9621 23.6416 16.4636 23.8579 16.9642L23.8642 16.9606L24.3299 16.6939L24.4839 16.9526L24.0183 17.2193L24.1313 17.409L24.5969 17.1424L25.0796 17.953L25.1934 17.8878L24.7107 17.0772L24.7935 17.0298L25.2762 17.8404L25.4003 17.7693L24.9176 16.9587L25.2151 16.7884L25.233 16.7781L25.3262 16.7247C25.2937 16.6508 25.2517 16.57 25.2078 16.4964C25.1207 16.3504 25.013 16.2102 24.9087 16.108ZM24.6805 16.8401L24.5977 16.8875L24.4437 16.6287L24.5265 16.5813L24.6805 16.8401ZM24.8047 16.769L24.6506 16.5102L24.9458 16.3412C24.9989 16.4033 25.0555 16.4837 25.1021 16.5619C25.1065 16.5692 25.1081 16.5721 25.1183 16.5894L24.8047 16.769Z" fill="#F4D27C"/>
<g opacity="0.5">
<path d="M30.6944 12.2268C30.7045 12.2281 30.7148 12.2278 30.7251 12.2283C30.7455 12.2299 30.7656 12.2314 30.7865 12.2309C30.7992 12.2306 30.8118 12.2289 30.8245 12.2278C30.8433 12.2263 30.8621 12.2253 30.8815 12.2223C30.8952 12.2203 30.9094 12.2167 30.9233 12.2139C30.9419 12.2101 30.9602 12.2066 30.979 12.2015C30.9935 12.1977 31.0082 12.1924 31.0226 12.1879C31.0409 12.182 31.0593 12.1762 31.0778 12.1691C31.0928 12.1636 31.1078 12.1567 31.1227 12.1504C31.1411 12.1426 31.1594 12.1347 31.1774 12.1259C31.1927 12.1185 31.2076 12.1102 31.2229 12.1021C31.2409 12.0925 31.259 12.0826 31.277 12.072C31.2923 12.0629 31.3075 12.0532 31.3227 12.0434C31.3405 12.032 31.3583 12.0204 31.3759 12.0077C31.3882 11.9991 31.4006 11.9897 31.413 11.9806C31.446 11.9561 31.4788 11.9298 31.5111 11.9022C31.5191 11.8951 31.5273 11.8888 31.5356 11.8817C31.5637 11.8566 31.5916 11.8301 31.6189 11.8027C31.6236 11.7979 31.6285 11.7939 31.6331 11.7891C31.655 11.7668 31.6762 11.743 31.6976 11.7192C31.7053 11.7106 31.7133 11.7028 31.7208 11.6939C31.725 11.6894 31.7286 11.6843 31.7327 11.6795C31.7562 11.6519 31.7791 11.6241 31.8016 11.595C31.8096 11.5846 31.8171 11.5735 31.8251 11.5629C31.8426 11.5391 31.8599 11.5155 31.8767 11.4907C31.8865 11.4763 31.8955 11.4614 31.9051 11.4467C31.9192 11.425 31.9332 11.4029 31.9466 11.3804C31.9577 11.3619 31.968 11.3427 31.9783 11.324C31.9923 11.2989 32.0067 11.2741 32.0196 11.2483C32.0379 11.2119 32.0552 11.1755 32.071 11.1393C32.072 11.137 32.0728 11.135 32.0735 11.1329C32.087 11.1018 32.0993 11.0709 32.111 11.0403C32.1148 11.03 32.1184 11.0198 32.122 11.0097C32.13 10.9872 32.1378 10.9647 32.1448 10.9424C32.1486 10.93 32.1525 10.9179 32.1561 10.9055C32.1626 10.8837 32.1682 10.8619 32.1737 10.8404C32.1765 10.8293 32.1793 10.8182 32.1819 10.8073C32.1878 10.7812 32.193 10.7552 32.1976 10.7296C32.1987 10.7238 32.2002 10.7177 32.201 10.7116C32.2062 10.6803 32.21 10.6494 32.2131 10.619C32.2139 10.6104 32.2144 10.6018 32.2149 10.5932C32.2167 10.5715 32.218 10.5499 32.2188 10.5289C32.2191 10.5183 32.2191 10.5077 32.2191 10.4971C32.2191 10.4783 32.2188 10.4596 32.218 10.4414C32.2175 10.4308 32.217 10.4201 32.2162 10.4098C32.2149 10.3915 32.2129 10.3736 32.2105 10.3559C32.2093 10.3465 32.2082 10.3371 32.2069 10.328C32.2036 10.3063 32.1992 10.2853 32.1946 10.2645C32.1935 10.2602 32.1927 10.2554 32.1917 10.2511C32.1855 10.2268 32.1783 10.2035 32.1703 10.1808C32.16 10.1514 32.1478 10.1236 32.1342 10.0973C32.13 10.0892 32.1251 10.0818 32.1208 10.074C32.1117 10.0583 32.1024 10.0426 32.0921 10.0279C32.0857 10.0188 32.079 10.0105 32.072 10.0019C32.0632 9.99073 32.0542 9.97985 32.0446 9.96947C32.0366 9.96112 32.0284 9.95328 32.0201 9.94543C32.0106 9.93658 32.001 9.92797 31.9907 9.91988C31.976 9.90798 31.961 9.89634 31.9448 9.88647L32.1886 10.0383C32.2005 10.0456 32.2121 10.0537 32.2232 10.0621C32.2273 10.0651 32.2307 10.0689 32.2345 10.072C32.2446 10.08 32.2544 10.0887 32.264 10.0975C32.2691 10.1023 32.2748 10.1064 32.28 10.1114C32.2831 10.1147 32.2856 10.1185 32.2887 10.1218C32.2983 10.1322 32.3073 10.1431 32.3161 10.1542C32.3207 10.16 32.3261 10.1651 32.3305 10.1711C32.3326 10.1739 32.3341 10.1775 32.3362 10.1803C32.3465 10.1949 32.3556 10.2104 32.3646 10.2261C32.3682 10.2324 32.3726 10.2379 32.3759 10.2443C32.3767 10.2458 32.3772 10.2478 32.3783 10.2493C32.3919 10.2756 32.4038 10.3037 32.4144 10.3328C32.4149 10.3341 32.4157 10.3354 32.4159 10.3366C32.4234 10.3581 32.4299 10.3804 32.4355 10.4032C32.4366 10.4075 32.4373 10.412 32.4384 10.4163C32.4425 10.4335 32.4464 10.451 32.4495 10.469C32.45 10.4725 32.4502 10.4763 32.4508 10.4799C32.4523 10.489 32.4533 10.4983 32.4544 10.5077C32.4567 10.5254 32.4585 10.5434 32.4601 10.5616C32.4608 10.572 32.4613 10.5826 32.4619 10.5932C32.4626 10.6114 32.4629 10.6302 32.4629 10.6489C32.4629 10.6595 32.4629 10.6699 32.4626 10.6805C32.4621 10.7018 32.4606 10.7233 32.4588 10.745C32.458 10.7536 32.4577 10.762 32.457 10.7706C32.4539 10.801 32.45 10.8318 32.4448 10.8632C32.4438 10.869 32.4425 10.8751 32.4415 10.8809C32.4368 10.9067 32.4319 10.9325 32.4257 10.9586C32.4232 10.9697 32.4203 10.9809 32.4175 10.992C32.4121 11.0135 32.4064 11.035 32.3999 11.0568C32.3963 11.0692 32.3925 11.0816 32.3886 11.094C32.3855 11.1036 32.3832 11.113 32.3798 11.1226C32.3757 11.1352 32.3705 11.1481 32.3659 11.161C32.3623 11.1714 32.3587 11.1815 32.3548 11.1919C32.3432 11.2225 32.331 11.2534 32.3176 11.2843C32.3166 11.2865 32.3158 11.2888 32.3148 11.2911C32.3145 11.2913 32.3145 11.2919 32.3143 11.2921C32.2985 11.328 32.2815 11.364 32.2634 11.3999C32.2588 11.409 32.2542 11.4181 32.2495 11.427C32.2407 11.4437 32.2312 11.4594 32.2222 11.4756C32.2116 11.4945 32.2013 11.5135 32.1904 11.532C32.1881 11.536 32.186 11.5401 32.1835 11.5441C32.1724 11.5626 32.1602 11.5801 32.1486 11.598C32.1391 11.6127 32.13 11.6279 32.1202 11.6423C32.1184 11.6448 32.1169 11.6479 32.1151 11.6504C32.1001 11.6722 32.0844 11.6932 32.0689 11.7142C32.0609 11.7248 32.0534 11.7359 32.0454 11.7466C32.0446 11.7478 32.0436 11.7491 32.0428 11.7501C32.0214 11.7782 31.999 11.805 31.9765 11.8313C31.9727 11.8359 31.9688 11.8409 31.9649 11.8455C31.9647 11.8458 31.9647 11.8458 31.9644 11.846C31.9572 11.8544 31.9494 11.8619 31.9422 11.8703C31.9208 11.8943 31.8994 11.9181 31.8772 11.9409C31.8767 11.9414 31.8764 11.9417 31.8759 11.9422C31.8718 11.9465 31.8674 11.95 31.8633 11.9541C31.8356 11.9816 31.8078 12.0082 31.7794 12.0335C31.7771 12.0355 31.7748 12.0381 31.7724 12.0401C31.7668 12.0451 31.7608 12.0492 31.7551 12.054C31.7229 12.0818 31.6901 12.1079 31.6571 12.1324C31.6509 12.137 31.645 12.1426 31.6388 12.1471C31.6326 12.1517 31.6261 12.1552 31.6199 12.1598C31.6021 12.1722 31.5846 12.1838 31.5665 12.1955C31.5513 12.2053 31.5363 12.2149 31.5211 12.224C31.5031 12.2347 31.485 12.2445 31.4669 12.2544C31.4517 12.2625 31.4367 12.2709 31.4215 12.2782C31.4032 12.2871 31.3851 12.2949 31.3668 12.3027C31.3519 12.3091 31.3369 12.3159 31.3219 12.3215C31.3034 12.3286 31.285 12.3344 31.2667 12.3402C31.2523 12.3447 31.2376 12.3501 31.2231 12.3539C31.2043 12.3589 31.186 12.3625 31.1674 12.3663C31.1534 12.369 31.1395 12.3726 31.1258 12.3746C31.1067 12.3774 31.0879 12.3787 31.0691 12.3802C31.0564 12.3812 31.0435 12.383 31.0309 12.3832C31.0102 12.3837 30.9901 12.3819 30.97 12.3807C30.9597 12.3799 30.9491 12.3802 30.939 12.3792C30.9088 12.3756 30.8794 12.3698 30.8508 12.3617C30.8028 12.348 30.7587 12.3286 30.7189 12.3038L30.4751 12.1519C30.5148 12.1767 30.559 12.1962 30.607 12.2099C30.6351 12.2175 30.6645 12.223 30.6944 12.2268Z" fill="url(#paint4_linear)"/>
<path d="M31.8127 9.82865C31.3655 9.70214 30.7331 10.1323 30.4 10.7899C30.0672 11.4471 30.1593 12.0832 30.6067 12.2097C31.0536 12.3363 31.6865 11.9056 32.0194 11.2485C32.3525 10.5906 32.2596 9.95517 31.8127 9.82865Z" fill="url(#paint5_linear)"/>
<path opacity="0.4" d="M31.6844 9.96352C32.0189 10.0949 32.0561 10.6604 31.7667 11.2242C31.4775 11.7884 30.97 12.1402 30.6352 12.0088C30.3007 11.8775 30.2635 11.3119 30.553 10.7481C30.8421 10.1843 31.3496 9.83244 31.6844 9.96352ZM30.6784 10.7975C30.4493 11.2441 30.4786 11.6926 30.7442 11.7969C31.0093 11.9008 31.4116 11.6218 31.6407 11.1751C31.8701 10.7276 31.8408 10.2794 31.5757 10.1755C31.3103 10.0712 30.9078 10.3503 30.6784 10.7975Z" fill="#FEFBB4"/>
<path d="M30.9929 10.5289L31.5819 10.8662C31.6234 10.6858 31.5922 10.5124 31.4766 10.4462C31.4048 10.405 31.3122 10.4122 31.2185 10.4539L31.125 10.4003C31.2774 10.297 31.4255 10.2766 31.5389 10.3415C31.716 10.443 31.7387 10.7382 31.6114 11.0328L31.6076 11.0307L31.3335 10.8737L31.2429 11.026L31.5169 11.183L31.4504 11.2946L31.1764 11.1377L30.8923 11.6148L30.8253 11.5765L31.1094 11.0993L31.0607 11.0714L30.7765 11.5486L30.7035 11.5067L30.9876 11.0296L30.8125 10.9293L30.802 10.9233L30.7471 10.8919C30.7662 10.8484 30.791 10.8008 30.8168 10.7575C30.8681 10.6715 30.9314 10.589 30.9929 10.5289ZM31.1272 10.9597L31.1759 10.9876L31.2666 10.8354L31.2178 10.8075L31.1272 10.9597ZM31.0541 10.9179L31.1448 10.7656L30.971 10.6661C30.9398 10.7027 30.9064 10.75 30.879 10.796C30.8764 10.8003 30.8755 10.802 30.8695 10.8122L31.0541 10.9179Z" fill="#F4D27C"/>
</g>
<path d="M16.8603 7.74911C16.8502 7.75037 16.8399 7.75012 16.8296 7.75063C16.8092 7.75215 16.789 7.75366 16.7681 7.75316C16.7555 7.7529 16.7429 7.75113 16.7302 7.75012C16.7114 7.7486 16.6925 7.74759 16.6732 7.74455C16.6595 7.74253 16.6453 7.73899 16.6314 7.7362C16.6128 7.73241 16.5945 7.72887 16.5757 7.7238C16.5612 7.72001 16.5465 7.71469 16.5321 7.71014C16.5137 7.70432 16.4954 7.6985 16.4768 7.69142C16.4619 7.68585 16.4469 7.67902 16.4319 7.67269C16.4136 7.66485 16.3953 7.657 16.3772 7.64815C16.362 7.64081 16.3471 7.63246 16.3318 7.62436C16.3138 7.61475 16.2957 7.60488 16.2777 7.59425C16.2624 7.58514 16.2472 7.57552 16.232 7.56566C16.2142 7.55427 16.1964 7.54263 16.1788 7.52998C16.1664 7.52137 16.1541 7.51201 16.1417 7.5029C16.1087 7.47836 16.0759 7.45204 16.0436 7.42446C16.0356 7.41737 16.0274 7.41105 16.0191 7.40396C15.991 7.37891 15.9631 7.35234 15.9358 7.32502C15.9311 7.32021 15.9262 7.31616 15.9216 7.31135C15.8997 7.28908 15.8785 7.2653 15.8571 7.24151C15.8493 7.23291 15.8413 7.22507 15.8339 7.21621C15.8297 7.21165 15.8261 7.20659 15.822 7.20179C15.7985 7.1742 15.7755 7.14637 15.7531 7.11727C15.7451 7.1069 15.7376 7.09576 15.7296 7.08514C15.7121 7.06135 15.6948 7.03782 15.678 7.01302C15.6682 6.99859 15.6592 6.98367 15.6496 6.96899C15.6354 6.94723 15.6215 6.92521 15.6081 6.90269C15.597 6.88422 15.5867 6.86499 15.5764 6.84627C15.5624 6.82121 15.548 6.79642 15.5351 6.77061C15.5168 6.73417 15.4995 6.69773 15.4837 6.66155C15.4827 6.65927 15.4819 6.65725 15.4811 6.65522C15.4677 6.6241 15.4553 6.59323 15.4437 6.56261C15.4399 6.55223 15.4363 6.54211 15.4326 6.53199C15.4246 6.50947 15.4169 6.48695 15.4099 6.46468C15.4061 6.45228 15.4022 6.44014 15.3986 6.42774C15.3921 6.40598 15.3865 6.38422 15.381 6.36271C15.3782 6.35158 15.3754 6.34044 15.3728 6.32956C15.3668 6.3035 15.3617 6.27743 15.357 6.25188C15.356 6.24606 15.3545 6.23999 15.3537 6.23391C15.3485 6.20254 15.3447 6.17166 15.3416 6.1413C15.3408 6.1327 15.3403 6.12409 15.3398 6.11549C15.3379 6.09373 15.3367 6.07222 15.3359 6.05122C15.3356 6.04059 15.3356 6.02996 15.3356 6.01934C15.3356 6.00061 15.3359 5.98189 15.3367 5.96367C15.3372 5.95304 15.3377 5.94241 15.3385 5.93204C15.3398 5.91382 15.3418 5.89585 15.3441 5.87814C15.3454 5.86878 15.3465 5.85941 15.3478 5.85031C15.3511 5.82854 15.3555 5.80754 15.3601 5.78679C15.3612 5.78249 15.3619 5.77768 15.363 5.77338C15.3692 5.74909 15.3764 5.72581 15.3844 5.70304C15.3947 5.67368 15.4068 5.64585 15.4205 5.61953C15.4246 5.61144 15.4295 5.6041 15.4339 5.59625C15.443 5.58057 15.4522 5.56488 15.4626 5.5502C15.469 5.54109 15.4757 5.53274 15.4827 5.52414C15.4915 5.513 15.5005 5.50212 15.51 5.49175C15.518 5.4834 15.5263 5.47555 15.5346 5.46771C15.5441 5.45885 15.5537 5.45025 15.564 5.44215C15.5787 5.43026 15.5936 5.41862 15.6099 5.40875L15.3661 5.56058C15.3542 5.56791 15.3426 5.57601 15.3315 5.58436C15.3274 5.5874 15.324 5.59119 15.3201 5.59423C15.3101 5.60233 15.3003 5.61093 15.2907 5.61979C15.2856 5.62459 15.2799 5.62864 15.2747 5.6337C15.2716 5.63699 15.2691 5.64079 15.266 5.64408C15.2564 5.65445 15.2474 5.66533 15.2386 5.67647C15.234 5.68229 15.2285 5.68735 15.2242 5.69342C15.2221 5.6962 15.2205 5.69975 15.2185 5.70253C15.2082 5.71721 15.1991 5.73264 15.1901 5.74833C15.1865 5.75466 15.1821 5.76022 15.1787 5.76655C15.178 5.76807 15.1775 5.77009 15.1764 5.77161C15.1628 5.79793 15.1509 5.82601 15.1403 5.85511C15.1398 5.85638 15.139 5.85764 15.1388 5.85891C15.1313 5.88042 15.1248 5.90268 15.1191 5.92546C15.1181 5.92976 15.1173 5.93431 15.1163 5.93862C15.1122 5.95582 15.1083 5.97328 15.1052 5.99125C15.1047 5.99479 15.1044 5.99859 15.1039 6.00213C15.1024 6.01124 15.1013 6.0206 15.1003 6.02996C15.098 6.04768 15.0962 6.06564 15.0946 6.08386C15.0939 6.09423 15.0933 6.10486 15.0928 6.11549C15.0921 6.13371 15.0918 6.15243 15.0918 6.17116C15.0918 6.18179 15.0918 6.19216 15.0921 6.20279C15.0926 6.22404 15.0941 6.24555 15.0959 6.26731C15.0967 6.27592 15.097 6.28427 15.0977 6.29287C15.1008 6.32323 15.1047 6.35411 15.1099 6.38548C15.1109 6.3913 15.1122 6.39737 15.1132 6.40319C15.1179 6.429 15.1228 6.45481 15.129 6.48088C15.1315 6.49201 15.1344 6.50315 15.1372 6.51428C15.1426 6.53579 15.1483 6.5573 15.1548 6.57906C15.1584 6.59146 15.1622 6.60385 15.1661 6.61625C15.1692 6.62587 15.1715 6.63523 15.1749 6.64485C15.179 6.6575 15.1842 6.6704 15.1888 6.68331C15.1924 6.69368 15.196 6.7038 15.1999 6.71418C15.2115 6.7448 15.2236 6.77567 15.2371 6.80654C15.2381 6.80882 15.2389 6.81109 15.2399 6.81337C15.2402 6.81362 15.2402 6.81413 15.2404 6.81438C15.2562 6.85031 15.2732 6.88625 15.2912 6.92218C15.2959 6.93129 15.3005 6.9404 15.3052 6.94925C15.314 6.96595 15.3235 6.98164 15.3325 6.99784C15.3431 7.01681 15.3534 7.03579 15.3643 7.05426C15.3666 7.05831 15.3687 7.06236 15.3712 7.06641C15.3823 7.08488 15.3945 7.10234 15.4061 7.12031C15.4156 7.13498 15.4246 7.15016 15.4344 7.16459C15.4363 7.16712 15.4378 7.17016 15.4396 7.17269C15.4546 7.19445 15.4703 7.21545 15.4858 7.23645C15.4938 7.24708 15.5013 7.25821 15.5093 7.26884C15.51 7.27011 15.5111 7.27137 15.5119 7.27238C15.5333 7.30047 15.5557 7.32729 15.5782 7.35361C15.582 7.35816 15.5859 7.36322 15.5898 7.36778C15.59 7.36803 15.59 7.36803 15.5903 7.36828C15.5975 7.37663 15.6053 7.38423 15.6125 7.39258C15.6339 7.41662 15.6553 7.4404 15.6775 7.46317C15.678 7.46368 15.6783 7.46393 15.6788 7.46444C15.6829 7.46874 15.6873 7.47228 15.6914 7.47633C15.719 7.50391 15.7469 7.53048 15.7753 7.55579C15.7776 7.55781 15.7799 7.56034 15.7823 7.56237C15.7879 7.56743 15.7939 7.57148 15.7995 7.57628C15.8318 7.60412 15.8646 7.63018 15.8976 7.65472C15.9038 7.65928 15.9097 7.66485 15.9159 7.6694C15.9221 7.67396 15.9286 7.6775 15.9347 7.68205C15.9525 7.69445 15.9701 7.70609 15.9882 7.71773C16.0034 7.7276 16.0183 7.73721 16.0336 7.74632C16.0516 7.75695 16.0697 7.76682 16.0878 7.77669C16.103 7.78479 16.1179 7.79314 16.1332 7.80047C16.1515 7.80933 16.1695 7.81718 16.1879 7.82502C16.2028 7.83135 16.2178 7.83818 16.2328 7.84374C16.2513 7.85083 16.2697 7.85665 16.288 7.86247C16.3024 7.86702 16.3171 7.87234 16.3316 7.87613C16.3504 7.88119 16.3687 7.88474 16.3873 7.88853C16.4012 7.89132 16.4152 7.89486 16.4289 7.89688C16.4479 7.89967 16.4668 7.90093 16.4856 7.90245C16.4983 7.90346 16.5112 7.90523 16.5238 7.90549C16.5444 7.90599 16.5646 7.90422 16.5847 7.90296C16.595 7.9022 16.6056 7.90245 16.6157 7.90144C16.6458 7.89789 16.6753 7.89207 16.7039 7.88398C16.7519 7.87031 16.796 7.85083 16.8357 7.82603L17.0796 7.67421C17.0398 7.69901 16.9957 7.71849 16.9477 7.73215C16.9196 7.73975 16.8902 7.74531 16.8603 7.74911Z" fill="url(#paint6_linear)"/>
<path d="M15.742 5.35093C16.1892 5.22441 16.8216 5.65458 17.1547 6.31223C17.4875 6.96937 17.3954 7.60551 16.948 7.73203C16.5011 7.85855 15.8682 7.42787 15.5353 6.77073C15.2022 6.11283 15.2951 5.47745 15.742 5.35093Z" fill="url(#paint7_linear)"/>
<path opacity="0.4" d="M15.8703 5.4858C15.5358 5.61715 15.4986 6.18269 15.788 6.74651C16.0772 7.31063 16.5846 7.66249 16.9194 7.53112C17.254 7.39977 17.2912 6.83422 17.0017 6.27041C16.7126 5.70658 16.2051 5.35472 15.8703 5.4858ZM16.8763 6.31978C17.1054 6.76641 17.0761 7.21491 16.8105 7.31917C16.5454 7.42311 16.1431 7.14404 15.914 6.6974C15.6846 6.24991 15.7139 5.80171 15.979 5.69776C16.2444 5.59352 16.6469 5.87258 16.8763 6.31978Z" fill="#FEFBB4"/>
<path d="M16.5628 6.05115L15.9737 6.3885C15.9323 6.20803 15.9634 6.03468 16.0791 5.96845C16.1509 5.92732 16.2435 5.93451 16.3372 5.97613L16.4306 5.92262C16.2783 5.81929 16.1301 5.7989 16.0168 5.86382C15.8396 5.96526 15.817 6.26044 15.9443 6.55511L15.948 6.55296L16.2221 6.39601L16.3128 6.54829L16.0387 6.70523L16.1052 6.8169L16.3793 6.65996L16.6634 7.13712L16.7304 7.09876L16.4463 6.6216L16.495 6.5937L16.7791 7.07086L16.8522 7.02901L16.5681 6.55185L16.7431 6.4516L16.7537 6.44554L16.8085 6.41414C16.7894 6.37064 16.7647 6.32307 16.7388 6.27976C16.6876 6.19383 16.6242 6.11128 16.5628 6.05115ZM16.4285 6.48203L16.3798 6.50993L16.2891 6.35764L16.3378 6.32974L16.4285 6.48203ZM16.5016 6.44018L16.4109 6.28789L16.5846 6.1884C16.6159 6.22495 16.6492 6.27225 16.6767 6.31829C16.6792 6.32259 16.6802 6.32428 16.6862 6.33447L16.5016 6.44018Z" fill="#F4D27C"/>
<g filter="url(#filter0_f)">
<path d="M18.92 13.8025C18.9353 13.8044 18.9509 13.804 18.9666 13.8048C18.9975 13.8071 19.028 13.8094 19.0597 13.8086C19.0789 13.8083 19.098 13.8056 19.1172 13.804C19.1458 13.8017 19.1743 13.8002 19.2037 13.7956C19.2244 13.7925 19.246 13.7872 19.2671 13.7829C19.2953 13.7772 19.323 13.7718 19.3516 13.7641C19.3735 13.7584 19.3958 13.7503 19.4177 13.7434C19.4455 13.7346 19.4733 13.7258 19.5015 13.715C19.5242 13.7066 19.5469 13.6962 19.5696 13.6866C19.5974 13.6747 19.6251 13.6628 19.6525 13.6494C19.6756 13.6383 19.6983 13.6256 19.7214 13.6133C19.7488 13.5987 19.7762 13.5838 19.8036 13.5676C19.8267 13.5538 19.8498 13.5392 19.8728 13.5243C19.8998 13.507 19.9268 13.4894 19.9534 13.4702C19.9722 13.4571 19.991 13.4429 20.0098 13.4291C20.0599 13.3919 20.1096 13.352 20.1585 13.3101C20.1706 13.2994 20.1832 13.2898 20.1957 13.2791C20.2383 13.2411 20.2806 13.2008 20.3221 13.1593C20.3291 13.152 20.3365 13.1459 20.3436 13.1386C20.3769 13.1048 20.4089 13.0688 20.4414 13.0327C20.4532 13.0196 20.4653 13.0077 20.4766 12.9943C20.4829 12.9874 20.4884 12.9797 20.4946 12.9724C20.5302 12.9306 20.5651 12.8884 20.5991 12.8443C20.6112 12.8285 20.6226 12.8116 20.6347 12.7955C20.6613 12.7594 20.6876 12.7238 20.713 12.6861C20.7279 12.6643 20.7416 12.6416 20.756 12.6194C20.7776 12.5864 20.7987 12.553 20.819 12.5188C20.8359 12.4908 20.8515 12.4616 20.8672 12.4333C20.8883 12.3953 20.9102 12.3577 20.9298 12.3185C20.9576 12.2632 20.9838 12.208 21.0076 12.1531C21.0092 12.1497 21.0104 12.1466 21.0116 12.1435C21.0319 12.0963 21.0507 12.0495 21.0683 12.0031C21.0742 11.9873 21.0796 11.972 21.0851 11.9566C21.0973 11.9225 21.109 11.8883 21.1196 11.8545C21.1254 11.8357 21.1313 11.8173 21.1368 11.7985C21.1466 11.7655 21.1552 11.7325 21.1634 11.6999C21.1677 11.683 21.172 11.6661 21.1759 11.6496C21.1849 11.6101 21.1927 11.5706 21.1998 11.5318C21.2013 11.523 21.2037 11.5138 21.2049 11.5046C21.2127 11.457 21.2186 11.4101 21.2233 11.3641C21.2244 11.351 21.2252 11.338 21.226 11.325C21.2287 11.292 21.2307 11.2593 21.2319 11.2275C21.2323 11.2114 21.2323 11.1952 21.2323 11.1791C21.2323 11.1507 21.2319 11.1223 21.2307 11.0947C21.2299 11.0786 21.2291 11.0625 21.228 11.0467C21.226 11.0191 21.2229 10.9918 21.2193 10.965C21.2174 10.9508 21.2158 10.9366 21.2139 10.9228C21.2088 10.8898 21.2021 10.8579 21.1951 10.8264C21.1935 10.8199 21.1923 10.8126 21.1908 10.8061C21.1814 10.7693 21.1704 10.734 21.1583 10.6994C21.1426 10.6549 21.1243 10.6127 21.1035 10.5728C21.0973 10.5605 21.0898 10.5494 21.0832 10.5375C21.0695 10.5137 21.0554 10.4899 21.0397 10.4676C21.03 10.4538 21.0198 10.4412 21.0092 10.4281C20.9959 10.4112 20.9822 10.3947 20.9677 10.379C20.9556 10.3663 20.9431 10.3544 20.9306 10.3425C20.9161 10.3291 20.9016 10.316 20.8859 10.3038C20.8636 10.2857 20.8409 10.2681 20.8163 10.2531L21.1861 10.4834C21.2041 10.4945 21.2217 10.5068 21.2385 10.5194C21.2448 10.524 21.2499 10.5298 21.2557 10.5344C21.271 10.5467 21.2859 10.5597 21.3003 10.5732C21.3082 10.5805 21.3168 10.5866 21.3246 10.5943C21.3293 10.5993 21.3332 10.605 21.3379 10.61C21.3524 10.6257 21.3661 10.6422 21.3794 10.6591C21.3864 10.668 21.3947 10.6756 21.4013 10.6848C21.4044 10.6891 21.4068 10.6944 21.4099 10.6987C21.4256 10.7209 21.4393 10.7443 21.453 10.7681C21.4584 10.7777 21.4651 10.7862 21.4702 10.7957C21.4714 10.7981 21.4721 10.8011 21.4737 10.8034C21.4944 10.8433 21.5124 10.8859 21.5285 10.9301C21.5293 10.932 21.5304 10.9339 21.5308 10.9358C21.5422 10.9684 21.552 11.0022 21.5606 11.0368C21.5621 11.0433 21.5633 11.0502 21.5649 11.0567C21.5711 11.0828 21.577 11.1093 21.5817 11.1365C21.5825 11.1419 21.5829 11.1477 21.5837 11.153C21.586 11.1668 21.5876 11.181 21.5891 11.1952C21.5927 11.2221 21.5954 11.2494 21.5977 11.277C21.5989 11.2927 21.5997 11.3088 21.6005 11.325C21.6017 11.3526 21.6021 11.381 21.6021 11.4094C21.6021 11.4255 21.6021 11.4412 21.6017 11.4574C21.6009 11.4896 21.5985 11.5222 21.5958 11.5552C21.5946 11.5683 21.5942 11.5809 21.5931 11.594C21.5884 11.64 21.5825 11.6868 21.5747 11.7344C21.5731 11.7433 21.5711 11.7525 21.5696 11.7613C21.5625 11.8004 21.5551 11.8396 21.5457 11.8791C21.5418 11.896 21.5375 11.9129 21.5332 11.9298C21.525 11.9624 21.5164 11.995 21.5066 12.028C21.5011 12.0468 21.4952 12.0656 21.4894 12.0844C21.4847 12.099 21.4811 12.1132 21.476 12.1278C21.4698 12.147 21.462 12.1665 21.4549 12.1861C21.4494 12.2018 21.444 12.2172 21.4381 12.2329C21.4205 12.2794 21.4021 12.3262 21.3817 12.373C21.3802 12.3765 21.379 12.3799 21.3774 12.3834C21.377 12.3837 21.377 12.3845 21.3767 12.3849C21.3528 12.4394 21.327 12.4939 21.2996 12.5484C21.2925 12.5622 21.2855 12.576 21.2784 12.5894C21.2651 12.6148 21.2507 12.6386 21.237 12.6631C21.2209 12.6919 21.2053 12.7207 21.1888 12.7487C21.1853 12.7548 21.1822 12.761 21.1783 12.7671C21.1614 12.7951 21.143 12.8216 21.1254 12.8489C21.111 12.8711 21.0973 12.8941 21.0824 12.916C21.0796 12.9199 21.0773 12.9245 21.0746 12.9283C21.0519 12.9613 21.028 12.9932 21.0045 13.025C20.9924 13.0411 20.981 13.058 20.9689 13.0741C20.9677 13.076 20.9662 13.078 20.965 13.0795C20.9325 13.1221 20.8985 13.1628 20.8644 13.2027C20.8586 13.2096 20.8527 13.2173 20.8468 13.2242C20.8464 13.2246 20.8464 13.2246 20.846 13.2249C20.8351 13.2376 20.8233 13.2491 20.8124 13.2618C20.7799 13.2982 20.7474 13.3343 20.7138 13.3689C20.713 13.3696 20.7126 13.37 20.7118 13.3708C20.7056 13.3773 20.6989 13.3827 20.6926 13.3888C20.6508 13.4306 20.6085 13.4709 20.5655 13.5093C20.5619 13.5124 20.5584 13.5162 20.5549 13.5193C20.5463 13.527 20.5373 13.5331 20.5287 13.5404C20.4798 13.5826 20.4301 13.6221 20.38 13.6594C20.3706 13.6663 20.3616 13.6747 20.3522 13.6816C20.3428 13.6885 20.333 13.6939 20.3236 13.7008C20.2966 13.7196 20.27 13.7373 20.2426 13.7549C20.2195 13.7699 20.1968 13.7845 20.1738 13.7983C20.1464 13.8144 20.119 13.8294 20.0916 13.8443C20.0685 13.8566 20.0458 13.8693 20.0227 13.8804C19.9949 13.8938 19.9675 13.9057 19.9398 13.9176C19.9171 13.9272 19.8944 13.9376 19.8717 13.946C19.8435 13.9568 19.8157 13.9656 19.7879 13.9744C19.766 13.9813 19.7437 13.9894 19.7218 13.9952C19.6932 14.0028 19.6654 14.0082 19.6373 14.014C19.6161 14.0182 19.595 14.0236 19.5743 14.0266C19.5453 14.0308 19.5167 14.0328 19.4882 14.0351C19.469 14.0366 19.4494 14.0393 19.4303 14.0397C19.399 14.0404 19.3684 14.0378 19.3379 14.0358C19.3223 14.0347 19.3062 14.0351 19.291 14.0335C19.2452 14.0282 19.2006 14.0193 19.1571 14.007C19.0843 13.9863 19.0174 13.9568 18.9572 13.9192L18.5874 13.6889C18.6476 13.7265 18.7146 13.7561 18.7873 13.7768C18.83 13.7883 18.8746 13.7968 18.92 13.8025Z" fill="url(#paint8_linear)"/>
<path d="M20.6163 10.1649C19.9382 9.97301 18.9791 10.6254 18.4739 11.6228C17.9691 12.6194 18.1088 13.5842 18.7873 13.7761C19.4651 13.9679 20.425 13.3148 20.9298 12.3182C21.435 11.3204 21.2941 10.3568 20.6163 10.1649Z" fill="url(#paint9_linear)"/>
<path opacity="0.4" d="M20.4213 10.3698C20.9287 10.569 20.985 11.4267 20.5461 12.2818C20.1075 13.1374 19.3379 13.671 18.8302 13.4718C18.3228 13.2726 18.2664 12.4149 18.7054 11.5598C19.1439 10.7047 19.9135 10.171 20.4213 10.3698ZM18.8957 11.6346C18.5482 12.312 18.5926 12.9922 18.9954 13.1503C19.3975 13.308 20.0075 12.8847 20.355 12.2074C20.7029 11.5287 20.6585 10.8489 20.2564 10.6913C19.854 10.5332 19.2436 10.9564 18.8957 11.6346Z" fill="#FEFBB4"/>
<path d="M20.3234 11.7594L19.4112 11.2808C19.616 11.085 19.8692 10.9868 20.0483 11.0808C20.1595 11.1391 20.2235 11.2622 20.2431 11.414L20.3878 11.4899C20.403 11.2147 20.3122 11.0108 20.1367 10.9187C19.8624 10.7748 19.4554 10.9805 19.1683 11.3758L19.1741 11.3788L19.5985 11.6015L19.4699 11.8373L19.0455 11.6147L18.9512 11.7876L19.3755 12.0103L18.9724 12.7492L19.0762 12.8036L19.4793 12.0647L19.5547 12.1043L19.1516 12.8432L19.2648 12.9026L19.6679 12.1637L19.939 12.3059L19.9553 12.3145L20.0403 12.359C20.0824 12.3003 20.1254 12.2312 20.162 12.164C20.2345 12.0308 20.293 11.885 20.3234 11.7594ZM19.6491 11.9314L19.5736 11.8918L19.7023 11.656L19.7777 11.6955L19.6491 11.9314ZM19.7622 11.9907L19.8909 11.7549L20.1599 11.8961C20.1366 11.9647 20.1007 12.0445 20.0618 12.1158C20.0582 12.1225 20.0567 12.125 20.048 12.1407L19.7622 11.9907Z" fill="#F4D27C"/>
</g>
<g opacity="0.5" filter="url(#filter1_f)">
<path d="M34.6636 7.82129C34.6546 7.82242 34.6454 7.82219 34.6362 7.82265C34.618 7.824 34.6001 7.82536 34.5814 7.8249C34.5701 7.82468 34.5588 7.8231 34.5475 7.82219C34.5307 7.82084 34.5139 7.81994 34.4966 7.81723C34.4844 7.81542 34.4718 7.81226 34.4593 7.80977C34.4427 7.80638 34.4264 7.80322 34.4096 7.7987C34.3967 7.79532 34.3835 7.79057 34.3706 7.7865C34.3543 7.78131 34.3379 7.77611 34.3214 7.76979C34.308 7.76482 34.2946 7.75872 34.2813 7.75307C34.2649 7.74607 34.2486 7.73907 34.2325 7.73116C34.2189 7.72461 34.2055 7.71716 34.1919 7.70993C34.1758 7.70135 34.1597 7.69254 34.1435 7.68305C34.13 7.67492 34.1164 7.66634 34.1028 7.65753C34.0869 7.64736 34.071 7.63697 34.0553 7.62568C34.0443 7.618 34.0332 7.60964 34.0222 7.60151C33.9927 7.5796 33.9634 7.55611 33.9346 7.53149C33.9275 7.52516 33.9201 7.51951 33.9128 7.51319C33.8877 7.49083 33.8628 7.46711 33.8384 7.44271C33.8342 7.43842 33.8298 7.43481 33.8257 7.43052C33.8061 7.41064 33.7872 7.38941 33.7681 7.36817C33.7612 7.36049 33.7541 7.35349 33.7474 7.34559C33.7437 7.34152 33.7405 7.337 33.7368 7.33271C33.7158 7.30809 33.6953 7.28324 33.6753 7.25727C33.6681 7.248 33.6615 7.23807 33.6543 7.22858C33.6387 7.20735 33.6232 7.18634 33.6083 7.1642C33.5995 7.15133 33.5914 7.138 33.5829 7.1249C33.5703 7.10547 33.5578 7.08582 33.5458 7.06572C33.5359 7.04923 33.5267 7.03206 33.5175 7.01535C33.5051 6.99298 33.4922 6.97085 33.4807 6.94781C33.4643 6.91528 33.4489 6.88276 33.4348 6.85045C33.4339 6.84842 33.4332 6.84661 33.4325 6.84481C33.4205 6.81702 33.4095 6.78947 33.3991 6.76213C33.3957 6.75287 33.3924 6.74384 33.3892 6.7348C33.3821 6.7147 33.3752 6.6946 33.369 6.67472C33.3655 6.66365 33.362 6.65281 33.3588 6.64174C33.3531 6.62231 33.348 6.60289 33.3432 6.58369C33.3406 6.57375 33.3381 6.56381 33.3358 6.5541C33.3305 6.53083 33.3259 6.50757 33.3217 6.48475C33.3208 6.47956 33.3194 6.47414 33.3187 6.46872C33.3141 6.44071 33.3107 6.41315 33.3079 6.38604C33.3072 6.37836 33.3068 6.37068 33.3063 6.363C33.3047 6.34358 33.3035 6.32438 33.3029 6.30563C33.3026 6.29614 33.3026 6.28665 33.3026 6.27717C33.3026 6.26045 33.3029 6.24374 33.3035 6.22747C33.304 6.21799 33.3045 6.2085 33.3052 6.19924C33.3063 6.18298 33.3081 6.16694 33.3102 6.15113C33.3114 6.14277 33.3123 6.13441 33.3134 6.12628C33.3164 6.10685 33.3204 6.08811 33.3245 6.06958C33.3254 6.06574 33.3261 6.06145 33.327 6.05761C33.3326 6.03593 33.339 6.01515 33.3462 5.99482C33.3554 5.96861 33.3662 5.94377 33.3784 5.92028C33.3821 5.91305 33.3865 5.9065 33.3904 5.89949C33.3984 5.88549 33.4067 5.87149 33.4159 5.85838C33.4217 5.85025 33.4277 5.8428 33.4339 5.83512C33.4417 5.82518 33.4498 5.81547 33.4583 5.80621C33.4655 5.79875 33.4728 5.79175 33.4802 5.78475C33.4887 5.77684 33.4972 5.76916 33.5065 5.76193C33.5196 5.75132 33.5329 5.74093 33.5475 5.73212L33.3298 5.86765C33.3192 5.8742 33.3088 5.88142 33.2989 5.88888C33.2952 5.89159 33.2923 5.89498 33.2888 5.89769C33.2798 5.90492 33.2711 5.9126 33.2625 5.9205C33.2579 5.92479 33.2529 5.92841 33.2483 5.93293C33.2455 5.93586 33.2432 5.93925 33.2404 5.94219C33.2319 5.95145 33.2238 5.96116 33.216 5.9711C33.2119 5.97629 33.207 5.98081 33.2031 5.98623C33.2013 5.98872 33.1999 5.99188 33.1981 5.99436C33.1888 6.00747 33.1808 6.02124 33.1727 6.03525C33.1695 6.0409 33.1656 6.04587 33.1626 6.05151C33.1619 6.05287 33.1614 6.05467 33.1605 6.05603C33.1483 6.07952 33.1377 6.10459 33.1283 6.13057C33.1278 6.1317 33.1271 6.13283 33.1269 6.13396C33.1202 6.15316 33.1144 6.17304 33.1094 6.19337C33.1085 6.19721 33.1078 6.20127 33.1068 6.20511C33.1032 6.22047 33.0997 6.23606 33.0969 6.25209C33.0965 6.25526 33.0962 6.25865 33.0958 6.26181C33.0944 6.26994 33.0935 6.2783 33.0926 6.28665C33.0905 6.30247 33.0889 6.3185 33.0875 6.33477C33.0868 6.34403 33.0863 6.35352 33.0859 6.363C33.0852 6.37927 33.085 6.39598 33.085 6.4127C33.085 6.42218 33.085 6.43144 33.0852 6.44093C33.0857 6.45991 33.087 6.47911 33.0886 6.49853C33.0893 6.50621 33.0896 6.51367 33.0903 6.52135C33.093 6.54845 33.0965 6.57601 33.1011 6.60402C33.102 6.60921 33.1032 6.61463 33.1041 6.61983C33.1082 6.64287 33.1126 6.66591 33.1181 6.68917C33.1204 6.69911 33.123 6.70905 33.1255 6.71899C33.1303 6.73819 33.1354 6.75739 33.1412 6.77682C33.1444 6.78788 33.1478 6.79895 33.1513 6.81002C33.1541 6.8186 33.1561 6.82696 33.1591 6.83555C33.1628 6.84684 33.1674 6.85836 33.1716 6.86988C33.1748 6.87914 33.178 6.88818 33.1815 6.89744C33.1918 6.92477 33.2027 6.95233 33.2146 6.97988C33.2156 6.98192 33.2162 6.98395 33.2172 6.98598C33.2174 6.98621 33.2174 6.98666 33.2176 6.98689C33.2317 7.01896 33.2469 7.05104 33.263 7.08311C33.2671 7.09124 33.2713 7.09937 33.2754 7.10728C33.2833 7.12219 33.2918 7.13619 33.2999 7.15065C33.3093 7.16759 33.3185 7.18453 33.3282 7.20102C33.3303 7.20464 33.3321 7.20825 33.3344 7.21186C33.3443 7.22835 33.3551 7.24394 33.3655 7.25998C33.374 7.27308 33.3821 7.28663 33.3908 7.29951C33.3924 7.30176 33.3938 7.30447 33.3954 7.30673C33.4088 7.32616 33.4229 7.34491 33.4367 7.36366C33.4438 7.37314 33.4505 7.38308 33.4576 7.39257C33.4583 7.3937 33.4592 7.39483 33.4599 7.39573C33.4791 7.4208 33.4991 7.44475 33.5191 7.46824C33.5226 7.4723 33.526 7.47682 33.5295 7.48089C33.5297 7.48111 33.5297 7.48111 33.53 7.48134C33.5364 7.48879 33.5433 7.49557 33.5498 7.50302C33.5689 7.52448 33.588 7.54572 33.6078 7.56604C33.6083 7.5665 33.6085 7.56672 33.609 7.56718C33.6126 7.57102 33.6166 7.57418 33.6202 7.57779C33.6449 7.60241 33.6698 7.62613 33.6951 7.64872C33.6972 7.65052 33.6992 7.65278 33.7013 7.65459C33.7064 7.65911 33.7117 7.66272 33.7167 7.66701C33.7455 7.69186 33.7748 7.71513 33.8043 7.73704C33.8098 7.7411 33.8151 7.74607 33.8206 7.75014C33.8262 7.7542 33.8319 7.75737 33.8374 7.76143C33.8533 7.7725 33.869 7.78289 33.8851 7.79328C33.8987 7.80209 33.9121 7.81067 33.9257 7.81881C33.9418 7.82829 33.9579 7.8371 33.974 7.84591C33.9876 7.85314 34.001 7.86059 34.0146 7.86714C34.0309 7.87505 34.047 7.88205 34.0634 7.88906C34.0767 7.8947 34.0901 7.9008 34.1035 7.90577C34.1201 7.9121 34.1364 7.91729 34.1528 7.92249C34.1657 7.92655 34.1788 7.93129 34.1917 7.93468C34.2085 7.9392 34.2248 7.94236 34.2414 7.94575C34.2539 7.94824 34.2663 7.9514 34.2785 7.95321C34.2956 7.95569 34.3124 7.95682 34.3292 7.95818C34.3405 7.95908 34.352 7.96066 34.3633 7.96089C34.3817 7.96134 34.3997 7.95976 34.4176 7.95863C34.4268 7.95795 34.4363 7.95817 34.4453 7.95727C34.4722 7.95411 34.4985 7.94891 34.524 7.94168C34.5669 7.92949 34.6063 7.91209 34.6417 7.88996L34.8594 7.75443C34.8239 7.77657 34.7845 7.79396 34.7417 7.80616C34.7166 7.81293 34.6903 7.8179 34.6636 7.82129Z" fill="url(#paint10_linear)"/>
<path d="M33.6661 5.6809C34.0653 5.56796 34.6298 5.95196 34.9272 6.53902C35.2243 7.12563 35.1421 7.6935 34.7427 7.80644C34.3438 7.91938 33.7788 7.53493 33.4817 6.94832C33.1843 6.36103 33.2672 5.79384 33.6661 5.6809Z" fill="url(#paint11_linear)"/>
<path opacity="0.4" d="M33.7802 5.80157C33.4816 5.91883 33.4484 6.42368 33.7068 6.92698C33.9649 7.43056 34.4179 7.74465 34.7167 7.62738C35.0154 7.51013 35.0486 7.00528 34.7902 6.50198C34.5321 5.99866 34.0791 5.68457 33.7802 5.80157ZM34.6782 6.54605C34.8827 6.94475 34.8566 7.34511 34.6195 7.43818C34.3828 7.53097 34.0238 7.28184 33.8192 6.88314C33.6145 6.48368 33.6406 6.08358 33.8772 5.99079C34.1141 5.89773 34.4734 6.14684 34.6782 6.54605Z" fill="#FEFBB4"/>
<path d="M33.8364 6.61964L34.3733 6.33787C34.2528 6.2226 34.1038 6.16482 33.9984 6.22013C33.9329 6.25449 33.8952 6.32692 33.8837 6.41629L33.7985 6.46099C33.7896 6.29902 33.843 6.17899 33.9464 6.12476C34.1078 6.04004 34.3473 6.16109 34.5163 6.39378L34.5129 6.39557L34.2631 6.52667L34.3388 6.66548L34.5885 6.5344L34.6441 6.63619L34.3943 6.76728L34.6315 7.20222L34.5704 7.23427L34.3332 6.79932L34.2888 6.82263L34.526 7.25757L34.4594 7.29252L34.2222 6.85758L34.0627 6.94132L34.053 6.94637L34.003 6.97261C33.9783 6.938 33.9529 6.89733 33.9314 6.85781C33.8887 6.77941 33.8543 6.69356 33.8364 6.61964ZM34.2333 6.72083L34.2777 6.69753L34.202 6.55871L34.1576 6.58202L34.2333 6.72083ZM34.1667 6.75579L34.091 6.61697L33.9326 6.70008C33.9464 6.74048 33.9675 6.78744 33.9904 6.82943C33.9925 6.83336 33.9934 6.83485 33.9985 6.84407L34.1667 6.75579Z" fill="#F4D27C"/>
</g>
<g opacity="0.5" filter="url(#filter2_f)">
<path d="M14.7964 16.8685C14.8024 16.8618 14.8073 16.8542 14.8129 16.847C14.8242 16.8329 14.8353 16.819 14.8453 16.8036C14.8514 16.7943 14.8564 16.7842 14.8619 16.7745C14.8701 16.7601 14.8787 16.7459 14.8861 16.7303C14.8913 16.7193 14.8957 16.7073 14.9005 16.6957C14.9069 16.6804 14.9133 16.6653 14.9189 16.6491C14.9232 16.6367 14.9265 16.6233 14.9302 16.6106C14.935 16.5944 14.9397 16.5781 14.9436 16.5611C14.9468 16.5475 14.9491 16.5332 14.9517 16.5192C14.9549 16.5019 14.9581 16.4847 14.9604 16.4672C14.9624 16.4525 14.9636 16.4374 14.965 16.4224C14.9667 16.4044 14.9683 16.3864 14.9692 16.368C14.9699 16.3524 14.9702 16.3365 14.9703 16.3206C14.9706 16.302 14.9706 16.2832 14.9698 16.2642C14.9694 16.2509 14.9685 16.2372 14.9678 16.2237C14.9657 16.1875 14.9621 16.1506 14.9573 16.1134C14.9559 16.1041 14.9552 16.0949 14.954 16.0854C14.949 16.0525 14.9428 16.019 14.9358 15.9855C14.9344 15.9798 14.9338 15.9742 14.9325 15.9684C14.9266 15.9414 14.9191 15.9142 14.9118 15.8868C14.9091 15.8769 14.9072 15.8672 14.9042 15.8573C14.9028 15.8521 14.9008 15.8469 14.8992 15.8415C14.8901 15.8107 14.8804 15.7802 14.8696 15.7494C14.8658 15.7384 14.8611 15.7275 14.857 15.7164C14.8478 15.6918 14.8386 15.6675 14.8282 15.643C14.8221 15.6287 14.8154 15.6147 14.809 15.6004C14.7996 15.5793 14.7899 15.5582 14.7796 15.5373C14.7711 15.52 14.7617 15.5029 14.7527 15.4861C14.7407 15.4635 14.7291 15.4407 14.7161 15.4185C14.6976 15.387 14.6787 15.3563 14.6592 15.3269C14.658 15.325 14.6568 15.3235 14.6557 15.3219C14.6388 15.2966 14.6216 15.2723 14.6043 15.2486C14.5984 15.2406 14.5925 15.233 14.5867 15.2253C14.5736 15.2083 14.5604 15.1915 14.5471 15.1753C14.5396 15.1664 14.5324 15.1575 14.5248 15.1487C14.5116 15.1332 14.4979 15.1182 14.4844 15.1036C14.4774 15.096 14.4704 15.0884 14.4634 15.0811C14.4467 15.0638 14.4295 15.0471 14.4125 15.031C14.4087 15.0274 14.4048 15.0232 14.4006 15.0197C14.3795 15.0003 14.3581 14.9821 14.3367 14.9648C14.3305 14.9599 14.3243 14.9553 14.3181 14.9506C14.3025 14.9385 14.2869 14.9268 14.2714 14.9158C14.2635 14.9104 14.2555 14.9051 14.2474 14.8998C14.2333 14.8905 14.219 14.8813 14.2048 14.8728C14.1966 14.8679 14.1883 14.863 14.18 14.8584C14.1656 14.8503 14.151 14.8429 14.1365 14.8357C14.1288 14.832 14.1212 14.8281 14.1136 14.8245C14.0955 14.8161 14.0775 14.8089 14.0595 14.8019C14.0557 14.8005 14.0517 14.7987 14.0479 14.7973C14.0265 14.7897 14.0053 14.7834 13.9841 14.7779C13.9568 14.7708 13.9297 14.7658 13.903 14.7626C13.8949 14.7616 13.8869 14.7615 13.8788 14.7608C13.8624 14.7596 13.8459 14.7585 13.8297 14.7587C13.8196 14.7589 13.81 14.7596 13.8 14.7604C13.7872 14.7612 13.7745 14.7624 13.7619 14.7641C13.7516 14.7658 13.7416 14.7679 13.7315 14.77C13.7201 14.7725 13.7089 14.7752 13.6976 14.7787C13.6813 14.7835 13.6651 14.7885 13.6495 14.7954L13.8855 14.6937C13.897 14.6887 13.9089 14.6843 13.9207 14.6804C13.9251 14.6789 13.9296 14.6784 13.9338 14.6771C13.945 14.6738 13.9563 14.6709 13.9678 14.6684C13.974 14.667 13.9799 14.6649 13.9863 14.6637C13.9903 14.6631 13.9944 14.6631 13.9985 14.6625C14.011 14.6607 14.0238 14.6596 14.0365 14.6587C14.0433 14.6582 14.0498 14.6568 14.0565 14.6566C14.0597 14.6565 14.0631 14.6572 14.0663 14.657C14.0825 14.6568 14.0986 14.658 14.115 14.6592C14.1216 14.6597 14.128 14.6593 14.1344 14.66C14.1359 14.6602 14.1377 14.6608 14.1394 14.6608C14.1661 14.664 14.1932 14.6693 14.2205 14.6761C14.2217 14.6764 14.223 14.6764 14.2241 14.6769C14.2441 14.6821 14.2641 14.6885 14.2842 14.6957C14.2879 14.6971 14.2918 14.6988 14.2955 14.7002C14.3106 14.7058 14.3257 14.7116 14.3408 14.7183C14.3438 14.7197 14.3467 14.7214 14.3497 14.7228C14.3573 14.7262 14.3649 14.7301 14.3725 14.734C14.3871 14.7411 14.4015 14.7488 14.4161 14.7567C14.4243 14.7613 14.4326 14.7662 14.4409 14.7711C14.455 14.7796 14.4693 14.7888 14.4835 14.7981C14.4915 14.8034 14.4993 14.8085 14.5073 14.814C14.5231 14.8249 14.5385 14.8368 14.5541 14.8489C14.5602 14.8537 14.5664 14.8581 14.5725 14.8629C14.5939 14.8803 14.6153 14.8984 14.6365 14.9178C14.6404 14.9215 14.6443 14.9254 14.6482 14.9291C14.6654 14.9453 14.6825 14.9617 14.6991 14.9791C14.7062 14.9866 14.7132 14.9942 14.7202 15.0018C14.7338 15.0164 14.7472 15.0312 14.7605 15.0467C14.768 15.0555 14.7755 15.0645 14.7829 15.0735C14.7887 15.0805 14.7946 15.0869 14.8002 15.0941C14.8077 15.1034 14.8149 15.1136 14.8223 15.1233C14.8284 15.1311 14.8342 15.1388 14.8401 15.1468C14.8575 15.1704 14.8748 15.1946 14.8915 15.2197C14.8927 15.2216 14.894 15.2233 14.8952 15.2252C14.8953 15.2255 14.8956 15.2257 14.8957 15.2261C14.915 15.2554 14.9337 15.2856 14.9519 15.3166C14.9565 15.3245 14.961 15.3324 14.9654 15.3402C14.9737 15.3549 14.9808 15.3697 14.9885 15.3843C14.9976 15.4014 15.0068 15.4183 15.0154 15.4354C15.0173 15.4391 15.0194 15.4426 15.0211 15.4465C15.0296 15.4638 15.0367 15.4813 15.0445 15.4986C15.0509 15.5129 15.0579 15.527 15.0639 15.5413C15.0649 15.5439 15.0664 15.5465 15.0674 15.5491C15.0764 15.5708 15.0845 15.5927 15.0927 15.6144C15.0967 15.6255 15.1014 15.6365 15.1055 15.6476C15.106 15.6487 15.1065 15.6501 15.1069 15.6512C15.1174 15.6807 15.1265 15.7104 15.1353 15.7398C15.1368 15.7449 15.1387 15.7502 15.1402 15.7553C15.1403 15.7556 15.1403 15.7556 15.1403 15.7559C15.143 15.7653 15.1449 15.7747 15.1476 15.7841C15.1552 15.8117 15.1625 15.8391 15.1687 15.8665C15.1688 15.8671 15.1689 15.8675 15.169 15.8681C15.1702 15.8732 15.1707 15.8782 15.1717 15.8832C15.1788 15.917 15.185 15.9505 15.19 15.9837C15.1904 15.9864 15.1912 15.9893 15.1915 15.992C15.1925 15.9987 15.1926 16.005 15.1934 16.0115C15.1984 16.0488 15.2018 16.0856 15.204 16.1218C15.2043 16.1286 15.2056 16.1356 15.2059 16.1424C15.2063 16.1492 15.2058 16.1556 15.2061 16.1624C15.2067 16.1815 15.2067 16.2 15.2065 16.219C15.2064 16.2349 15.2062 16.2506 15.2056 16.2662C15.2046 16.2846 15.2031 16.3027 15.2016 16.3207C15.2001 16.3358 15.199 16.3508 15.1969 16.3655C15.1945 16.3833 15.1915 16.4003 15.1883 16.4175C15.1856 16.4315 15.1833 16.4458 15.1801 16.4595C15.1762 16.4765 15.1715 16.4927 15.1668 16.5089C15.1631 16.5217 15.1598 16.535 15.1554 16.5474C15.1499 16.5636 15.1435 16.5787 15.1371 16.5941C15.1323 16.6056 15.128 16.6175 15.1227 16.6284C15.1153 16.6437 15.1069 16.658 15.0987 16.6725C15.0932 16.6822 15.0881 16.6924 15.082 16.7017C15.0721 16.717 15.0608 16.7307 15.0498 16.7447C15.0441 16.7519 15.039 16.7597 15.0332 16.7665C15.0156 16.7867 14.9965 16.8052 14.9762 16.822C14.942 16.85 14.9053 16.8724 14.8668 16.889L14.6307 16.9907C14.6692 16.9742 14.7059 16.9518 14.7401 16.9237C14.7598 16.907 14.7787 16.8884 14.7964 16.8685Z" fill="url(#paint12_linear)"/>
<path d="M13.5391 14.863C13.221 15.1251 13.2316 15.7988 13.5629 16.368C13.8941 16.9369 14.4207 17.1864 14.7389 16.9241C15.0568 16.6621 15.0461 15.9878 14.715 15.419C14.3834 14.8496 13.857 14.6011 13.5391 14.863Z" fill="url(#paint13_linear)"/>
<path opacity="0.4" d="M13.5774 15.0235C13.8431 14.8457 14.289 15.1 14.5712 15.5908C14.8537 16.0816 14.8672 16.6255 14.6014 16.8036C14.3357 16.9814 13.8898 16.7271 13.6076 16.2363C13.3253 15.7456 13.3118 15.2017 13.5774 15.0235ZM13.7073 16.1696C13.9309 16.5583 14.2845 16.7601 14.4954 16.6189C14.7058 16.4779 14.695 16.0467 14.4714 15.658C14.2473 15.2686 13.8939 15.0669 13.6835 15.208C13.4727 15.349 13.4834 15.7804 13.7073 16.1696Z" fill="#FEFBB4"/>
<path d="M14.2385 15.5258L13.7007 15.806C13.6703 15.6436 13.7044 15.4901 13.81 15.4351C13.8756 15.4009 13.9579 15.4105 14.04 15.451L14.1253 15.4065C13.9931 15.309 13.8617 15.2856 13.7582 15.3395C13.5966 15.4238 13.5656 15.6863 13.6684 15.9536L13.6718 15.9518L13.922 15.8214L13.9973 15.9604L13.7472 16.0908L13.8024 16.1928L14.0526 16.0624L14.2886 16.4979L14.3498 16.4661L14.1137 16.0305L14.1582 16.0073L14.3942 16.4429L14.461 16.4081L14.2249 15.9726L14.3847 15.8893L14.3944 15.8842L14.4444 15.8582C14.4289 15.8187 14.4086 15.7754 14.3872 15.7359C14.3446 15.6574 14.291 15.5816 14.2385 15.5258ZM14.103 15.9054L14.0585 15.9286L13.9832 15.7896L14.0276 15.7664L14.103 15.9054ZM14.1697 15.8706L14.0943 15.7316L14.2529 15.649C14.2795 15.6827 14.3075 15.726 14.3303 15.768C14.3324 15.772 14.3332 15.7735 14.3382 15.7828L14.1697 15.8706Z" fill="#F4D27C"/>
</g>
<path d="M25.8674 11.4403C25.8815 11.4271 25.8936 11.4116 25.9068 11.397C25.9338 11.3689 25.9605 11.3411 25.985 11.3098C25.9999 11.2909 26.0125 11.2702 26.0263 11.2504C26.0467 11.2208 26.068 11.1919 26.0867 11.1598C26.1002 11.1372 26.1119 11.1121 26.1245 11.0882C26.1412 11.0563 26.158 11.0251 26.173 10.9913C26.1847 10.9655 26.1944 10.9374 26.2049 10.9106C26.2181 10.8767 26.2314 10.8427 26.243 10.8068C26.2526 10.7781 26.2603 10.7478 26.2687 10.7182C26.2789 10.6817 26.2891 10.6453 26.2974 10.608C26.3046 10.5768 26.3099 10.5447 26.316 10.5125C26.3231 10.4743 26.3299 10.4358 26.3355 10.3964C26.34 10.363 26.3437 10.329 26.347 10.2947C26.3512 10.2547 26.3549 10.2145 26.3568 10.1734C26.3586 10.1447 26.3593 10.1152 26.3604 10.086C26.3628 10.0077 26.3622 9.9277 26.3591 9.84691C26.3579 9.82658 26.3582 9.80679 26.3574 9.78608C26.3531 9.71442 26.3462 9.64131 26.3375 9.56804C26.3358 9.55539 26.3355 9.54328 26.3338 9.53064C26.3263 9.47146 26.3155 9.41157 26.3051 9.35131C26.3013 9.32952 26.299 9.30827 26.2945 9.28656C26.2925 9.27498 26.2892 9.26354 26.2868 9.25166C26.273 9.18377 26.2583 9.11633 26.2409 9.04812C26.2348 9.02381 26.2268 8.99934 26.2202 8.97472C26.2051 8.92015 26.19 8.86626 26.1724 8.8116C26.1622 8.77974 26.1503 8.7484 26.1394 8.71661C26.1233 8.66942 26.1066 8.6223 26.0884 8.57533C26.0735 8.53667 26.0566 8.49823 26.0405 8.4604C26.0191 8.40961 25.9986 8.35836 25.9748 8.30817C25.9412 8.23715 25.9065 8.16765 25.8702 8.10074C25.8679 8.09646 25.8658 8.09288 25.8636 8.08929C25.8323 8.03191 25.8001 7.97635 25.7673 7.92224C25.7561 7.904 25.745 7.88644 25.7339 7.86889C25.7092 7.82988 25.6841 7.79126 25.6585 7.75407C25.6442 7.73338 25.6304 7.713 25.6158 7.69269C25.5903 7.65688 25.5639 7.6222 25.5376 7.58821C25.524 7.57057 25.5104 7.55293 25.4969 7.53597C25.4642 7.49572 25.4306 7.4566 25.3972 7.41885C25.3895 7.41029 25.3821 7.40067 25.3738 7.39218C25.3321 7.34664 25.2895 7.3036 25.2469 7.26231C25.2347 7.25076 25.2221 7.2396 25.2096 7.22843C25.1785 7.19945 25.1472 7.17153 25.116 7.14498C25.1001 7.13175 25.0839 7.11889 25.0676 7.10603C25.039 7.08338 25.01 7.0611 24.9813 7.0402C24.9644 7.0281 24.9475 7.016 24.9307 7.00459C24.9013 6.98444 24.8713 6.96574 24.8415 6.94773C24.8256 6.9383 24.81 6.92849 24.7945 6.91937C24.7572 6.89797 24.7198 6.87901 24.6825 6.86074C24.6746 6.85705 24.6664 6.85237 24.6585 6.84868C24.6139 6.8284 24.5696 6.81086 24.5251 6.79507C24.4677 6.77473 24.4105 6.75888 24.3537 6.74715C24.3364 6.74342 24.3192 6.74176 24.3019 6.73871C24.267 6.73301 24.2318 6.72769 24.1969 6.72511C24.1751 6.72357 24.1543 6.72333 24.1327 6.72316C24.105 6.72259 24.0775 6.72271 24.0501 6.72419C24.0276 6.72585 24.0056 6.7285 23.9837 6.73115C23.9586 6.73447 23.9339 6.7381 23.909 6.74348C23.873 6.75071 23.8371 6.75863 23.8024 6.77059L24.3295 6.59578C24.355 6.58721 24.3815 6.57993 24.4077 6.57372C24.4173 6.57133 24.4272 6.57099 24.4365 6.56897C24.461 6.56397 24.486 6.55996 24.5111 6.55664C24.5247 6.55487 24.5378 6.55143 24.5518 6.54996C24.5605 6.54939 24.5695 6.55019 24.5782 6.54961C24.6056 6.54813 24.6332 6.54802 24.6608 6.54859C24.6754 6.5488 24.6896 6.54696 24.7042 6.54785C24.711 6.54819 24.7183 6.5502 24.725 6.55053C24.76 6.55311 24.7945 6.55851 24.8294 6.56421C24.8434 6.56655 24.8572 6.56684 24.871 6.56956C24.8742 6.57026 24.8779 6.57195 24.8815 6.57227C24.9383 6.584 24.9956 6.60053 25.0529 6.62018C25.0554 6.62095 25.0583 6.62135 25.0605 6.6225C25.1025 6.63752 25.1443 6.65497 25.186 6.67418C25.1938 6.67787 25.2017 6.68224 25.2095 6.68593C25.2408 6.70067 25.2722 6.71611 25.3034 6.73329C25.3095 6.73682 25.3156 6.74103 25.3216 6.74455C25.3374 6.7533 25.353 6.76311 25.3685 6.77292C25.3984 6.79093 25.4281 6.81001 25.4578 6.82978C25.4746 6.84119 25.4915 6.85329 25.5083 6.86539C25.5371 6.88629 25.5661 6.90857 25.5947 6.93122C25.6109 6.94408 25.6268 6.95663 25.6427 6.96987C25.6746 6.99634 25.7056 7.02464 25.7367 7.05362C25.7489 7.06517 25.7614 7.07565 25.7736 7.08719C25.8162 7.12848 25.8587 7.17152 25.9005 7.21707C25.9081 7.22563 25.9158 7.23487 25.9235 7.24343C25.9573 7.28148 25.9909 7.31991 26.0232 7.36055C26.0371 7.37781 26.0507 7.39546 26.0643 7.4131C26.0906 7.44709 26.1166 7.48145 26.1421 7.51726C26.1567 7.53757 26.1709 7.55827 26.1852 7.57896C26.1962 7.59514 26.2077 7.60988 26.2183 7.62645C26.2326 7.64782 26.2461 7.67102 26.2602 7.69346C26.2717 7.71133 26.2828 7.72888 26.294 7.74712C26.3268 7.80124 26.3593 7.85641 26.3902 7.91349C26.3925 7.91776 26.395 7.92165 26.3973 7.92593C26.3973 7.92661 26.3981 7.92722 26.3982 7.92791C26.4341 7.99452 26.4684 8.06303 26.5015 8.13305C26.5098 8.1509 26.5181 8.16875 26.526 8.18629C26.5409 8.2194 26.5534 8.25241 26.5672 8.28528C26.5834 8.3238 26.5999 8.36193 26.615 8.40021C26.6184 8.40852 26.6221 8.41646 26.6252 8.42515C26.64 8.46381 26.652 8.50276 26.6654 8.54156C26.6763 8.57336 26.6886 8.605 26.6988 8.63687C26.7005 8.64258 26.7032 8.64853 26.7049 8.65425C26.7201 8.70258 26.7332 8.75113 26.7465 8.7993C26.7531 8.82392 26.7611 8.84839 26.7676 8.873C26.7686 8.87567 26.7693 8.87872 26.7699 8.88108C26.787 8.94655 26.8008 9.012 26.8139 9.07685C26.8162 9.08805 26.8192 9.09986 26.8215 9.11106C26.8216 9.11175 26.8216 9.11174 26.8216 9.11243C26.8257 9.13315 26.8279 9.15372 26.8319 9.17444C26.8428 9.23501 26.8532 9.29527 26.8612 9.35545C26.8613 9.35682 26.8614 9.35751 26.8616 9.35888C26.8631 9.37015 26.8633 9.38089 26.8645 9.39185C26.8732 9.46581 26.8801 9.53893 26.8845 9.61127C26.8847 9.61713 26.8858 9.62361 26.8861 9.62947C26.887 9.64394 26.886 9.65756 26.8865 9.67172C26.89 9.75282 26.8902 9.83253 26.8877 9.91078C26.8872 9.92539 26.8885 9.94085 26.888 9.95547C26.8875 9.97008 26.8851 9.98385 26.8846 9.99847C26.882 10.0396 26.8786 10.0795 26.8745 10.1202C26.8712 10.1545 26.8678 10.1881 26.8633 10.2215C26.8577 10.2609 26.8509 10.2994 26.8441 10.3379C26.8381 10.3701 26.8328 10.4022 26.8256 10.4335C26.8169 10.4711 26.8071 10.5072 26.7969 10.5436C26.7885 10.5732 26.7808 10.6035 26.7712 10.6322C26.7596 10.6681 26.7463 10.7021 26.733 10.7361C26.7225 10.7628 26.7128 10.7909 26.7012 10.8167C26.6861 10.8505 26.6694 10.8817 26.6527 10.9137C26.6401 10.9375 26.6287 10.9623 26.6152 10.9848C26.5964 11.0163 26.5755 11.0455 26.555 11.075C26.5413 11.0948 26.5284 11.1159 26.5135 11.1348C26.4893 11.1658 26.4622 11.1932 26.4359 11.2213C26.4223 11.2356 26.4099 11.2514 26.3962 11.265C26.3542 11.3051 26.3097 11.3413 26.2627 11.3736C26.1838 11.4276 26.1006 11.4689 26.0146 11.4974L25.4875 11.6722C25.5735 11.6437 25.6567 11.6024 25.7356 11.5484C25.7813 11.5163 25.8254 11.4797 25.8674 11.4403Z" fill="url(#paint14_linear)"/>
<path d="M23.5541 6.89483C22.8197 7.39919 22.7122 8.8494 23.3146 10.1348C23.9165 11.4192 25.0004 12.0533 25.735 11.5486C26.4691 11.0446 26.5765 9.59305 25.9746 8.30867C25.3718 7.02298 24.2882 6.39086 23.5541 6.89483Z" fill="url(#paint15_linear)"/>
<path opacity="0.4" d="M23.6044 7.24662C24.2099 6.91368 25.1194 7.54322 25.6312 8.65086C26.1437 9.75852 26.0677 10.9303 25.4618 11.2636C24.8563 11.5965 23.9467 10.967 23.435 9.85933C22.9229 8.75206 22.9989 7.58031 23.6044 7.24662ZM23.6623 9.73457C24.0679 10.6118 24.7889 11.1113 25.2696 10.847C25.7492 10.5829 25.8092 9.6539 25.4036 8.77672C24.9971 7.89804 24.2765 7.39884 23.7969 7.66288C23.3165 7.9269 23.2561 8.85628 23.6623 9.73457Z" fill="#FEFBB4"/>
<path d="M24.9284 8.44976L23.7182 8.95229C23.6843 8.59747 23.7873 8.27375 24.0248 8.1751C24.1724 8.11383 24.3475 8.14989 24.5161 8.25202L24.7081 8.17231C24.4428 7.93813 24.1649 7.86345 23.932 7.96017C23.5682 8.11127 23.4508 8.66981 23.6202 9.26354L23.628 9.26033L24.191 9.02652L24.326 9.33936L23.7631 9.57314L23.8621 9.80255L24.4251 9.56877L24.8483 10.549L24.986 10.4918L24.5627 9.51162L24.6628 9.47006L25.086 10.4503L25.2362 10.3879L24.8129 9.40771L25.1725 9.25837L25.1943 9.24935L25.3069 9.20257C25.2813 9.11484 25.2459 9.01799 25.2074 8.92901C25.131 8.75245 25.0306 8.57944 24.9284 8.44976ZM24.5637 9.24065L24.4637 9.28221L24.3286 8.96938L24.4287 8.92781L24.5637 9.24065ZM24.7139 9.1783L24.5788 8.86547L24.9357 8.71725C24.9863 8.79464 25.0381 8.89305 25.079 8.98763C25.0828 8.99646 25.0842 8.99993 25.093 9.02084L24.7139 9.1783Z" fill="#F4D27C"/>
<g opacity="0.5">
<path d="M12.3851 10.7C12.3934 10.6922 12.4005 10.683 12.4083 10.6745C12.4242 10.6579 12.4399 10.6416 12.4543 10.6231C12.4631 10.612 12.4705 10.5998 12.4786 10.5881C12.4906 10.5708 12.5031 10.5537 12.5142 10.5348C12.5221 10.5216 12.529 10.5068 12.5364 10.4927C12.5463 10.4739 12.5561 10.4556 12.565 10.4357C12.5719 10.4205 12.5775 10.4039 12.5837 10.3882C12.5915 10.3682 12.5994 10.3482 12.6062 10.3271C12.6119 10.3102 12.6164 10.2923 12.6213 10.2749C12.6273 10.2534 12.6333 10.232 12.6382 10.2101C12.6424 10.1917 12.6456 10.1728 12.6491 10.1538C12.6533 10.1314 12.6573 10.1087 12.6606 10.0855C12.6633 10.0658 12.6655 10.0458 12.6674 10.0256C12.6698 10.0021 12.672 9.97841 12.6732 9.95422C12.6742 9.93737 12.6746 9.91999 12.6753 9.90278C12.6767 9.85672 12.6763 9.80963 12.6745 9.76208C12.6738 9.75011 12.674 9.73846 12.6735 9.72627C12.671 9.68409 12.6669 9.64106 12.6618 9.59793C12.6608 9.59049 12.6606 9.58336 12.6596 9.57592C12.6552 9.54108 12.6489 9.50583 12.6427 9.47036C12.6405 9.45754 12.6391 9.44503 12.6365 9.43225C12.6353 9.42543 12.6333 9.4187 12.632 9.41171C12.6239 9.37175 12.6152 9.33205 12.605 9.29191C12.6013 9.2776 12.5966 9.26319 12.5928 9.2487C12.5839 9.21658 12.575 9.18486 12.5646 9.15269C12.5586 9.13394 12.5516 9.11549 12.5452 9.09678C12.5358 9.069 12.5259 9.04127 12.5152 9.01362C12.5064 8.99086 12.4965 8.96824 12.487 8.94597C12.4744 8.91608 12.4623 8.88591 12.4483 8.85637C12.4286 8.81457 12.4081 8.77366 12.3867 8.73428C12.3854 8.73176 12.3842 8.72965 12.3829 8.72754C12.3644 8.69376 12.3455 8.66106 12.3262 8.62921C12.3196 8.61848 12.3131 8.60814 12.3065 8.59781C12.292 8.57485 12.2772 8.55212 12.2621 8.53023C12.2537 8.51805 12.2456 8.50605 12.237 8.4941C12.222 8.47302 12.2065 8.45261 12.191 8.43261C12.183 8.42222 12.175 8.41184 12.167 8.40186C12.1478 8.37816 12.128 8.35514 12.1083 8.33292C12.1038 8.32788 12.0995 8.32222 12.0946 8.31722C12.07 8.29041 12.045 8.26508 12.0199 8.24078C12.0127 8.23398 12.0053 8.22741 11.9979 8.22084C11.9796 8.20378 11.9612 8.18734 11.9428 8.17172C11.9335 8.16393 11.9239 8.15636 11.9143 8.14879C11.8975 8.13546 11.8805 8.12235 11.8635 8.11004C11.8536 8.10292 11.8437 8.0958 11.8338 8.08908C11.8165 8.07723 11.7988 8.06622 11.7812 8.05561C11.7719 8.05006 11.7627 8.04429 11.7536 8.03892C11.7316 8.02633 11.7096 8.01517 11.6876 8.00441C11.683 8.00224 11.6782 7.99949 11.6736 7.99732C11.6473 7.98538 11.6212 7.97505 11.595 7.96576C11.5613 7.95379 11.5276 7.94446 11.4942 7.93755C11.4839 7.93536 11.4738 7.93438 11.4637 7.93259C11.4431 7.92923 11.4224 7.9261 11.4018 7.92458C11.389 7.92367 11.3767 7.92353 11.364 7.92344C11.3478 7.9231 11.3316 7.92317 11.3154 7.92404C11.3022 7.92502 11.2893 7.92658 11.2763 7.92814C11.2616 7.93009 11.247 7.93223 11.2324 7.93539C11.2112 7.93965 11.1901 7.94431 11.1696 7.95135L11.4799 7.84846C11.4949 7.84341 11.5105 7.83913 11.5259 7.83548C11.5316 7.83407 11.5374 7.83386 11.5429 7.83268C11.5573 7.82974 11.572 7.82738 11.5868 7.82542C11.5948 7.82438 11.6025 7.82235 11.6107 7.82149C11.6159 7.82115 11.6211 7.82162 11.6263 7.82128C11.6424 7.82041 11.6587 7.82034 11.6749 7.82068C11.6835 7.82081 11.6919 7.81972 11.7005 7.82025C11.7044 7.82044 11.7087 7.82163 11.7127 7.82182C11.7333 7.82334 11.7536 7.82652 11.7741 7.82988C11.7824 7.83125 11.7905 7.83142 11.7986 7.83302C11.8005 7.83344 11.8027 7.83443 11.8048 7.83462C11.8382 7.84152 11.8719 7.85125 11.9057 7.86282C11.9072 7.86328 11.9089 7.86351 11.9102 7.86418C11.9349 7.87302 11.9595 7.8833 11.984 7.8946C11.9886 7.89677 11.9933 7.89935 11.9979 7.90152C12.0163 7.9102 12.0348 7.91928 12.0531 7.9294C12.0567 7.93147 12.0603 7.93395 12.0639 7.93603C12.0732 7.94117 12.0823 7.94695 12.0915 7.95272C12.1091 7.96332 12.1265 7.97456 12.144 7.98619C12.1539 7.99291 12.1638 8.00003 12.1738 8.00715C12.1907 8.01945 12.2077 8.03256 12.2246 8.0459C12.2341 8.05347 12.2435 8.06085 12.2529 8.06864C12.2716 8.08423 12.2899 8.10088 12.3082 8.11794C12.3153 8.12474 12.3227 8.13091 12.3299 8.1377C12.355 8.16201 12.38 8.18734 12.4046 8.21415C12.4091 8.21919 12.4136 8.22463 12.4181 8.22966C12.438 8.25206 12.4578 8.27468 12.4768 8.2986C12.485 8.30876 12.493 8.31915 12.501 8.32953C12.5165 8.34954 12.5318 8.36976 12.5468 8.39084C12.5554 8.4028 12.5638 8.41498 12.5722 8.42716C12.5786 8.43668 12.5854 8.44536 12.5916 8.45511C12.6001 8.46769 12.608 8.48135 12.6163 8.49455C12.6231 8.50507 12.6296 8.5154 12.6362 8.52614C12.6555 8.55799 12.6746 8.59047 12.6928 8.62406C12.6942 8.62658 12.6957 8.62887 12.697 8.63138C12.697 8.63179 12.6975 8.63215 12.6975 8.63255C12.7186 8.67176 12.7388 8.71208 12.7583 8.7533C12.7632 8.7638 12.7681 8.77431 12.7728 8.78463C12.7815 8.80412 12.7889 8.82355 12.797 8.8429C12.8065 8.86557 12.8163 8.88801 12.8252 8.91055C12.8272 8.91544 12.8293 8.92011 12.8311 8.92522C12.8399 8.94798 12.8469 8.97091 12.8548 8.99375C12.8612 9.01246 12.8685 9.03109 12.8745 9.04984C12.8754 9.05321 12.8771 9.05671 12.8781 9.06007C12.887 9.08852 12.8947 9.1171 12.9026 9.14545C12.9064 9.15994 12.9111 9.17434 12.915 9.18883C12.9156 9.1904 12.916 9.1922 12.9163 9.19359C12.9264 9.23212 12.9345 9.27065 12.9422 9.30881C12.9435 9.31541 12.9453 9.32236 12.9467 9.32895C12.9467 9.32936 12.9467 9.32936 12.9468 9.32976C12.9491 9.34196 12.9505 9.35406 12.9528 9.36626C12.9592 9.40191 12.9654 9.43738 12.97 9.4728C12.9701 9.47361 12.9702 9.47401 12.9703 9.47482C12.9712 9.48145 12.9713 9.48777 12.972 9.49423C12.9771 9.53776 12.9812 9.58079 12.9837 9.62338C12.9839 9.62683 12.9845 9.63064 12.9847 9.63409C12.9852 9.64261 12.9846 9.65062 12.9849 9.65896C12.987 9.70669 12.9871 9.75361 12.9857 9.79967C12.9854 9.80827 12.9861 9.81737 12.9858 9.82597C12.9855 9.83457 12.9841 9.84268 12.9838 9.85128C12.9823 9.87552 12.9803 9.89899 12.9779 9.92291C12.9759 9.94311 12.9739 9.96291 12.9713 9.98257C12.968 10.0058 12.964 10.0284 12.96 10.0511C12.9565 10.07 12.9533 10.0889 12.9491 10.1073C12.944 10.1295 12.9382 10.1507 12.9322 10.1721C12.9272 10.1896 12.9227 10.2074 12.9171 10.2243C12.9102 10.2454 12.9024 10.2654 12.8946 10.2854C12.8884 10.3012 12.8827 10.3177 12.8759 10.3329C12.867 10.3528 12.8571 10.3712 12.8473 10.39C12.8399 10.404 12.8332 10.4186 12.8253 10.4319C12.8142 10.4504 12.8019 10.4676 12.7898 10.4849C12.7818 10.4966 12.7742 10.509 12.7654 10.5202C12.7511 10.5384 12.7352 10.5545 12.7197 10.571C12.7117 10.5794 12.7044 10.5888 12.6963 10.5968C12.6716 10.6204 12.6455 10.6417 12.6178 10.6607C12.5713 10.6925 12.5224 10.7168 12.4718 10.7335L12.1615 10.8364C12.2121 10.8197 12.2611 10.7954 12.3075 10.7636C12.3344 10.7447 12.3604 10.7232 12.3851 10.7Z" fill="url(#paint16_linear)"/>
<path d="M11.0228 8.02465C10.5906 8.32152 10.5273 9.17511 10.8819 9.93169C11.2361 10.6877 11.8741 11.061 12.3065 10.7639C12.7386 10.4672 12.8018 9.61283 12.4475 8.85684C12.0928 8.10008 11.4549 7.72801 11.0228 8.02465Z" fill="url(#paint17_linear)"/>
<path opacity="0.4" d="M11.0531 8.23175C11.4095 8.03577 11.9449 8.40632 12.2461 9.05828C12.5478 9.71025 12.503 10.3999 12.1464 10.5961C11.79 10.7921 11.2546 10.4215 10.9534 9.76959C10.652 9.11784 10.6968 8.42815 11.0531 8.23175ZM11.0872 9.69615C11.3259 10.2125 11.7503 10.5065 12.0333 10.3509C12.3156 10.1955 12.3509 9.64867 12.1122 9.13236C11.8729 8.61517 11.4488 8.32134 11.1664 8.47675C10.8837 8.63216 10.8482 9.17919 11.0872 9.69615Z" fill="#FEFBB4"/>
<path d="M11.8335 8.93979L11.1212 9.23558C11.1012 9.02674 11.1618 8.8362 11.3017 8.77813C11.3885 8.74207 11.4916 8.76329 11.5909 8.82341L11.7038 8.77649C11.5477 8.63865 11.3841 8.59469 11.247 8.65162C11.0329 8.74056 10.9638 9.06932 11.0635 9.41878L11.0681 9.4169L11.3995 9.27928L11.479 9.46341L11.1476 9.60102L11.2059 9.73605L11.5373 9.59844L11.7864 10.1754L11.8674 10.1418L11.6183 9.5648L11.6772 9.54034L11.9263 10.1173L12.0147 10.0806L11.7655 9.50365L11.9772 9.41575L11.99 9.41043L12.0563 9.3829C12.0412 9.33126 12.0204 9.27426 11.9978 9.22188C11.9528 9.11796 11.8937 9.01613 11.8335 8.93979ZM11.6189 9.40531L11.56 9.42977L11.4805 9.24564L11.5394 9.22118L11.6189 9.40531ZM11.7072 9.36861L11.6277 9.18448L11.8378 9.09724C11.8676 9.14279 11.8981 9.20072 11.9221 9.25638C11.9244 9.26158 11.9252 9.26363 11.9304 9.27593L11.7072 9.36861Z" fill="#F4D27C"/>
</g>
<path d="M9.27791 53.9488C8.27854 47.3144 9.20104 44.1982 10.8154 42.037C13.1985 42.037 18.426 42.4743 20.2709 44.2234C22.1159 45.9724 23.5046 56.027 25.5753 63.2218L28.6181 74.1712L27.0655 74.6015L20.9339 63.2218L18.7745 59.0019L15.4279 53.9488C15.0212 60.7162 16.2543 61.3947 16.4094 62.9348C17.8514 77.2495 19.0327 76.7861 16.4094 77.019L9.27791 53.9488Z" fill="black"/>
<path d="M12.7735 22.0367C12.3743 21.1755 13.1679 20.7738 13.6146 20.6806C15.026 20.401 16.2378 27.727 16.1522 27.9507C16.0667 28.1744 14.0566 29.0132 12.4456 28.5658C10.8347 28.1184 11.519 27.2656 13.1727 25.2943C13.749 24.6073 13.2725 23.1133 12.7735 22.0367Z" fill="#F62054"/>
<path d="M6.84785 31.6095C8.0409 32.1295 10.4025 29.5584 13.1918 28.2855C13.7128 30.9564 10.9478 35.7445 6.84785 34.9758C3.89401 34.422 2.08045 27.5737 3.04705 26.6529C2.71564 28.1967 5.65479 31.0895 6.84785 31.6095Z" fill="#8C4739"/>
<path d="M6.84785 31.6095C8.0409 32.1295 10.4025 29.5584 13.1918 28.2855C13.7128 30.9564 10.9478 35.7445 6.84785 34.9758C3.89401 34.422 2.08045 27.5737 3.04705 26.6529C2.71564 28.1967 5.65479 31.0895 6.84785 31.6095Z" fill="url(#paint18_linear)"/>
<path d="M14.7158 26.1L14.916 27.7428L14.2518 28.0219L12.606 32.0757L13.3032 36.0072L20.1318 28.2201L17.9743 27.8897L16.6753 24.4125L14.7158 26.1Z" fill="#8C4739"/>
<path d="M14.7158 26.1L14.916 27.7428L14.2518 28.0219L12.606 32.0757L13.3032 36.0072L20.1318 28.2201L17.9743 27.8897L16.6753 24.4125L14.7158 26.1Z" fill="url(#paint19_linear)"/>
<path fill-rule="evenodd" clip-rule="evenodd" d="M15.2022 26.6284C13.9811 27.0349 13.3691 26.4484 13.4088 25.8174L13.4745 24.305L13.0461 24.2286L13.5147 23.3794L13.637 20.565L17.2209 20.4868L18.2085 22.8227V24.1063L17.1964 25.7616L15.2022 26.6284Z" fill="#8C4739"/>
<path fill-rule="evenodd" clip-rule="evenodd" d="M15.2022 26.6284C13.9811 27.0349 13.3691 26.4484 13.4088 25.8174L13.4745 24.305L13.0461 24.2286L13.5147 23.3794L13.637 20.565L17.2209 20.4868L18.2085 22.8227V24.1063L17.1964 25.7616L15.2022 26.6284Z" fill="url(#paint20_linear)"/>
<path fill-rule="evenodd" clip-rule="evenodd" d="M14.4076 27.9467C13.7748 29.154 12.7371 31.8433 13.8055 33.189C14.8578 31.8761 17.2992 29.1596 18.6472 28.796C19.3445 28.608 19.709 28.3367 19.8824 28.0783C20.3868 28.2313 20.9686 28.4658 21.716 28.8194C24.224 30.0057 21.9213 33.3015 20.0739 35.9454C19.2253 37.16 18.4728 38.2371 18.3269 38.9088C18.0838 40.0285 19.1949 41.3827 20.1584 42.5571C20.6641 43.1734 21.1291 43.7402 21.3364 44.1975C21.3364 44.1975 19.0604 44.861 17.6011 45.283C13.6219 46.4337 9.41553 44.669 9.41553 44.669C9.93501 43.2935 10.2451 42.8347 10.5594 42.3699C10.8544 41.9333 11.1532 41.4914 11.6323 40.28C12.2906 38.6154 11.5095 36.5683 10.9131 35.0053C10.6133 34.2194 10.3601 33.5559 10.3601 33.125C10.3601 31.9267 11.1232 31.0405 11.7671 30.2928C12.1733 29.821 12.532 29.4044 12.6216 28.9995C12.7688 28.334 13.4515 28.0634 14.4076 27.9467Z" fill="#4F2674"/>
<path d="M2.77321 27.5502L2.22083 23.9386C2.1659 23.5795 2.36166 23.2289 2.69621 23.0872L2.95015 22.9797C3.43041 22.7763 3.97301 23.0831 4.04623 23.5995L4.58207 27.3781C4.66123 27.9363 4.14974 28.397 3.60279 28.26L3.3654 28.2006C3.05502 28.1229 2.82159 27.8665 2.77321 27.5502Z" fill="black"/>
<path d="M2.60685 25.4241C2.14494 26.438 2.54075 27.9749 2.92567 28.9905L3.2006 28.2625C4.27288 27.7234 3.75824 27.205 3.75824 26.6873C3.75824 26.0401 4.23546 25.6247 4.45542 24.8158C4.67537 24.0069 3.18423 24.1568 2.60685 25.4241Z" fill="#8C4739"/>
<path d="M3.80784 23.6809C3.62977 23.0602 2.37367 24.519 2.4528 25.4269C2.55171 26.5618 2.97704 24.1368 3.80784 23.6809Z" fill="#8C4739"/>
<path d="M20.8345 32.2407C20.07 30.1829 20.4912 29.2777 21.9092 29.2777C22.9844 28.9405 26.2896 34.4843 24.9895 38.4033C24.2727 40.564 21.5309 43.2879 19.938 43.0649C20.7942 42.259 22.4439 39.29 22.8262 37.9318C23.304 36.2341 21.7903 34.8129 20.8345 32.2407Z" fill="#8C4739"/>
<path d="M20.8345 32.2407C20.07 30.1829 20.4912 29.2777 21.9092 29.2777C22.9844 28.9405 26.2896 34.4843 24.9895 38.4033C24.2727 40.564 21.5309 43.2879 19.938 43.0649C20.7942 42.259 22.4439 39.29 22.8262 37.9318C23.304 36.2341 21.7903 34.8129 20.8345 32.2407Z" fill="url(#paint21_linear)"/>
<path d="M18.8767 43.368C19.2667 42.3997 20.2247 42.3882 20.8844 42.5034C21.1043 43.014 21.4122 44.1437 21.5728 45.1713C21.7735 46.4558 20.4254 46.5546 20.4254 45.8629C20.4254 45.1713 19.7084 43.7633 19.2495 43.9609C18.8824 44.119 19.5076 45.1713 19.0774 45.1713C18.8575 45.0807 18.4866 44.3364 18.8767 43.368Z" fill="#8C4739"/>
<path d="M1.93713 20.7135C1.9371 20.6997 1.9372 20.6862 1.93743 20.6729C1.93743 20.6865 1.93733 20.7 1.93713 20.7135C1.93854 21.3717 2.23645 22.5664 3.43834 22.3812C2.84308 22.5639 1.68105 23.3052 1.795 24.8094C1.70005 24.1719 1.26038 22.9249 0.26123 23.0366C0.814708 22.8521 1.91646 22.1307 1.93713 20.7135Z" fill="white"/>
<ellipse rx="0.144042" ry="0.204915" transform="matrix(0.993502 -0.113812 0.118274 0.992981 2.53844 23.7161)" fill="white"/>
<path d="M13.9341 24.9519C14.2289 24.9242 14.9097 24.7911 15.2739 24.4799C15.1655 25.1368 14.7458 26.151 13.9341 24.9519Z" fill="white"/>
<path d="M13.44 21.2381C12.3115 20.1918 12.9698 19.4607 13.44 19.2259C21.8011 18.4965 17.7488 21.8669 20.0057 24.2564C22.2627 26.6459 21.8524 28.6078 21.3907 28.5826C20.9291 28.5575 20.7752 29.7648 17.441 31.0727C14.1068 32.3807 17.3641 24.357 17.1076 23.2755C16.8511 22.1939 14.8506 22.5461 13.44 21.2381Z" fill="#F62054"/>
<defs>
<filter id="filter0_f" x="16.605" y="8.56552" width="6.56296" height="7.04017" filterUnits="userSpaceOnUse" color-interpolation-filters="sRGB">
<feFlood flood-opacity="0" result="BackgroundImageFix"/>
<feBlend mode="normal" in="SourceGraphic" in2="BackgroundImageFix" result="shape"/>
<feGaussianBlur stdDeviation="0.782945" result="effect1_foregroundBlur"/>
</filter>
<filter id="filter1_f" x="31.5191" y="4.0953" width="5.15247" height="5.43155" filterUnits="userSpaceOnUse" color-interpolation-filters="sRGB">
<feFlood flood-opacity="0" result="BackgroundImageFix"/>
<feBlend mode="normal" in="SourceGraphic" in2="BackgroundImageFix" result="shape"/>
<feGaussianBlur stdDeviation="0.782945" result="effect1_foregroundBlur"/>
</filter>
<filter id="filter2_f" x="11.7412" y="13.0907" width="5.03119" height="5.50355" filterUnits="userSpaceOnUse" color-interpolation-filters="sRGB">
<feFlood flood-opacity="0" result="BackgroundImageFix"/>
<feBlend mode="normal" in="SourceGraphic" in2="BackgroundImageFix" result="shape"/>
<feGaussianBlur stdDeviation="0.782945" result="effect1_foregroundBlur"/>
</filter>
<linearGradient id="paint0_linear" x1="42.2137" y1="6.57622" x2="48.1368" y2="9.44169" gradientUnits="userSpaceOnUse">
<stop stop-color="#4080FF"/>
<stop offset="1" stop-color="#1F2337"/>
</linearGradient>
<linearGradient id="paint1_linear" x1="52.3639" y1="5.09812" x2="56.9141" y2="6.92001" gradientUnits="userSpaceOnUse">
<stop stop-color="#4080FF"/>
<stop offset="1" stop-color="#1F2337"/>
</linearGradient>
<linearGradient id="paint2_linear" x1="22.5551" y1="18.3488" x2="25.5197" y2="16.1316" gradientUnits="userSpaceOnUse">
<stop offset="0.074" stop-color="#FFF5B7"/>
<stop offset="0.228" stop-color="#E79127"/>
<stop offset="0.2507" stop-color="#D58326"/>
<stop offset="0.2976" stop-color="#B66A25"/>
<stop offset="0.3491" stop-color="#9D5524"/>
<stop offset="0.4061" stop-color="#894623"/>
<stop offset="0.4716" stop-color="#7B3A22"/>
<stop offset="0.5528" stop-color="#733422"/>
<stop offset="0.6982" stop-color="#713222"/>
<stop offset="0.7307" stop-color="#743422"/>
<stop offset="0.7531" stop-color="#7D3C23"/>
<stop offset="0.7725" stop-color="#8C4823"/>
<stop offset="0.7902" stop-color="#A25924"/>
<stop offset="0.8067" stop-color="#BE7025"/>
<stop offset="0.8221" stop-color="#E08B27"/>
<stop offset="0.8249" stop-color="#E79127"/>
<stop offset="0.8485" stop-color="#ECA443"/>
<stop offset="0.8993" stop-color="#F8D68A"/>
<stop offset="0.9294" stop-color="#FFF5B7"/>
</linearGradient>
<linearGradient id="paint3_linear" x1="22.7091" y1="15.4221" x2="26.8481" y2="18.9889" gradientUnits="userSpaceOnUse">
<stop stop-color="#DD8E19"/>
<stop offset="1" stop-color="#FFEDA5"/>
</linearGradient>
<linearGradient id="paint4_linear" x1="32.3785" y1="11.8473" x2="30.6335" y2="10.5423" gradientUnits="userSpaceOnUse">
<stop offset="0.074" stop-color="#FFF5B7"/>
<stop offset="0.228" stop-color="#E79127"/>
<stop offset="0.2507" stop-color="#D58326"/>
<stop offset="0.2976" stop-color="#B66A25"/>
<stop offset="0.3491" stop-color="#9D5524"/>
<stop offset="0.4061" stop-color="#894623"/>
<stop offset="0.4716" stop-color="#7B3A22"/>
<stop offset="0.5528" stop-color="#733422"/>
<stop offset="0.6982" stop-color="#713222"/>
<stop offset="0.7307" stop-color="#743422"/>
<stop offset="0.7531" stop-color="#7D3C23"/>
<stop offset="0.7725" stop-color="#8C4823"/>
<stop offset="0.7902" stop-color="#A25924"/>
<stop offset="0.8067" stop-color="#BE7025"/>
<stop offset="0.8221" stop-color="#E08B27"/>
<stop offset="0.8249" stop-color="#E79127"/>
<stop offset="0.8485" stop-color="#ECA443"/>
<stop offset="0.8993" stop-color="#F8D68A"/>
<stop offset="0.9294" stop-color="#FFF5B7"/>
</linearGradient>
<linearGradient id="paint5_linear" x1="32.2882" y1="10.1251" x2="29.852" y2="12.2245" gradientUnits="userSpaceOnUse">
<stop stop-color="#DD8E19"/>
<stop offset="1" stop-color="#FFEDA5"/>
</linearGradient>
<linearGradient id="paint6_linear" x1="15.1762" y1="7.3696" x2="16.9212" y2="6.0646" gradientUnits="userSpaceOnUse">
<stop offset="0.074" stop-color="#FFF5B7"/>
<stop offset="0.228" stop-color="#E79127"/>
<stop offset="0.2507" stop-color="#D58326"/>
<stop offset="0.2976" stop-color="#B66A25"/>
<stop offset="0.3491" stop-color="#9D5524"/>
<stop offset="0.4061" stop-color="#894623"/>
<stop offset="0.4716" stop-color="#7B3A22"/>
<stop offset="0.5528" stop-color="#733422"/>
<stop offset="0.6982" stop-color="#713222"/>
<stop offset="0.7307" stop-color="#743422"/>
<stop offset="0.7531" stop-color="#7D3C23"/>
<stop offset="0.7725" stop-color="#8C4823"/>
<stop offset="0.7902" stop-color="#A25924"/>
<stop offset="0.8067" stop-color="#BE7025"/>
<stop offset="0.8221" stop-color="#E08B27"/>
<stop offset="0.8249" stop-color="#E79127"/>
<stop offset="0.8485" stop-color="#ECA443"/>
<stop offset="0.8993" stop-color="#F8D68A"/>
<stop offset="0.9294" stop-color="#FFF5B7"/>
</linearGradient>
<linearGradient id="paint7_linear" x1="15.2665" y1="5.64734" x2="17.7027" y2="7.7468" gradientUnits="userSpaceOnUse">
<stop stop-color="#DD8E19"/>
<stop offset="1" stop-color="#FFEDA5"/>
</linearGradient>
<linearGradient id="paint8_linear" x1="21.474" y1="13.2269" x2="18.8276" y2="11.2478" gradientUnits="userSpaceOnUse">
<stop offset="0.074" stop-color="#FFF5B7"/>
<stop offset="0.228" stop-color="#E79127"/>
<stop offset="0.2507" stop-color="#D58326"/>
<stop offset="0.2976" stop-color="#B66A25"/>
<stop offset="0.3491" stop-color="#9D5524"/>
<stop offset="0.4061" stop-color="#894623"/>
<stop offset="0.4716" stop-color="#7B3A22"/>
<stop offset="0.5528" stop-color="#733422"/>
<stop offset="0.6982" stop-color="#713222"/>
<stop offset="0.7307" stop-color="#743422"/>
<stop offset="0.7531" stop-color="#7D3C23"/>
<stop offset="0.7725" stop-color="#8C4823"/>
<stop offset="0.7902" stop-color="#A25924"/>
<stop offset="0.8067" stop-color="#BE7025"/>
<stop offset="0.8221" stop-color="#E08B27"/>
<stop offset="0.8249" stop-color="#E79127"/>
<stop offset="0.8485" stop-color="#ECA443"/>
<stop offset="0.8993" stop-color="#F8D68A"/>
<stop offset="0.9294" stop-color="#FFF5B7"/>
</linearGradient>
<linearGradient id="paint9_linear" x1="21.3374" y1="10.6144" x2="17.6427" y2="13.7985" gradientUnits="userSpaceOnUse">
<stop stop-color="#DD8E19"/>
<stop offset="1" stop-color="#FFEDA5"/>
</linearGradient>
<linearGradient id="paint10_linear" x1="33.1603" y1="7.48251" x2="34.718" y2="6.31758" gradientUnits="userSpaceOnUse">
<stop offset="0.074" stop-color="#FFF5B7"/>
<stop offset="0.228" stop-color="#E79127"/>
<stop offset="0.2507" stop-color="#D58326"/>
<stop offset="0.2976" stop-color="#B66A25"/>
<stop offset="0.3491" stop-color="#9D5524"/>
<stop offset="0.4061" stop-color="#894623"/>
<stop offset="0.4716" stop-color="#7B3A22"/>
<stop offset="0.5528" stop-color="#733422"/>
<stop offset="0.6982" stop-color="#713222"/>
<stop offset="0.7307" stop-color="#743422"/>
<stop offset="0.7531" stop-color="#7D3C23"/>
<stop offset="0.7725" stop-color="#8C4823"/>
<stop offset="0.7902" stop-color="#A25924"/>
<stop offset="0.8067" stop-color="#BE7025"/>
<stop offset="0.8221" stop-color="#E08B27"/>
<stop offset="0.8249" stop-color="#E79127"/>
<stop offset="0.8485" stop-color="#ECA443"/>
<stop offset="0.8993" stop-color="#F8D68A"/>
<stop offset="0.9294" stop-color="#FFF5B7"/>
</linearGradient>
<linearGradient id="paint11_linear" x1="33.2417" y1="5.9455" x2="35.4164" y2="7.81963" gradientUnits="userSpaceOnUse">
<stop stop-color="#DD8E19"/>
<stop offset="1" stop-color="#FFEDA5"/>
</linearGradient>
<linearGradient id="paint12_linear" x1="15.3473" y1="15.4556" x2="13.5138" y2="16.1315" gradientUnits="userSpaceOnUse">
<stop offset="0.074" stop-color="#FFF5B7"/>
<stop offset="0.228" stop-color="#E79127"/>
<stop offset="0.2507" stop-color="#D58326"/>
<stop offset="0.2976" stop-color="#B66A25"/>
<stop offset="0.3491" stop-color="#9D5524"/>
<stop offset="0.4061" stop-color="#894623"/>
<stop offset="0.4716" stop-color="#7B3A22"/>
<stop offset="0.5528" stop-color="#733422"/>
<stop offset="0.6982" stop-color="#713222"/>
<stop offset="0.7307" stop-color="#743422"/>
<stop offset="0.7531" stop-color="#7D3C23"/>
<stop offset="0.7725" stop-color="#8C4823"/>
<stop offset="0.7902" stop-color="#A25924"/>
<stop offset="0.8067" stop-color="#BE7025"/>
<stop offset="0.8221" stop-color="#E08B27"/>
<stop offset="0.8249" stop-color="#E79127"/>
<stop offset="0.8485" stop-color="#ECA443"/>
<stop offset="0.8993" stop-color="#F8D68A"/>
<stop offset="0.9294" stop-color="#FFF5B7"/>
</linearGradient>
<linearGradient id="paint13_linear" x1="13.9996" y1="14.6648" x2="14.3071" y2="17.4874" gradientUnits="userSpaceOnUse">
<stop stop-color="#DD8E19"/>
<stop offset="1" stop-color="#FFEDA5"/>
</linearGradient>
<linearGradient id="paint14_linear" x1="27.3246" y1="8.50525" x2="23.2494" y2="9.60625" gradientUnits="userSpaceOnUse">
<stop offset="0.074" stop-color="#FFF5B7"/>
<stop offset="0.228" stop-color="#E79127"/>
<stop offset="0.2507" stop-color="#D58326"/>
<stop offset="0.2976" stop-color="#B66A25"/>
<stop offset="0.3491" stop-color="#9D5524"/>
<stop offset="0.4061" stop-color="#894623"/>
<stop offset="0.4716" stop-color="#7B3A22"/>
<stop offset="0.5528" stop-color="#733422"/>
<stop offset="0.6982" stop-color="#713222"/>
<stop offset="0.7307" stop-color="#743422"/>
<stop offset="0.7531" stop-color="#7D3C23"/>
<stop offset="0.7725" stop-color="#8C4823"/>
<stop offset="0.7902" stop-color="#A25924"/>
<stop offset="0.8067" stop-color="#BE7025"/>
<stop offset="0.8221" stop-color="#E08B27"/>
<stop offset="0.8249" stop-color="#E79127"/>
<stop offset="0.8485" stop-color="#ECA443"/>
<stop offset="0.8993" stop-color="#F8D68A"/>
<stop offset="0.9294" stop-color="#FFF5B7"/>
</linearGradient>
<linearGradient id="paint15_linear" x1="24.5824" y1="6.55438" x2="24.7187" y2="12.679" gradientUnits="userSpaceOnUse">
<stop stop-color="#DD8E19"/>
<stop offset="1" stop-color="#FFEDA5"/>
</linearGradient>
<linearGradient id="paint16_linear" x1="13.2428" y1="8.97237" x2="10.8442" y2="9.62042" gradientUnits="userSpaceOnUse">
<stop offset="0.074" stop-color="#FFF5B7"/>
<stop offset="0.228" stop-color="#E79127"/>
<stop offset="0.2507" stop-color="#D58326"/>
<stop offset="0.2976" stop-color="#B66A25"/>
<stop offset="0.3491" stop-color="#9D5524"/>
<stop offset="0.4061" stop-color="#894623"/>
<stop offset="0.4716" stop-color="#7B3A22"/>
<stop offset="0.5528" stop-color="#733422"/>
<stop offset="0.6982" stop-color="#713222"/>
<stop offset="0.7307" stop-color="#743422"/>
<stop offset="0.7531" stop-color="#7D3C23"/>
<stop offset="0.7725" stop-color="#8C4823"/>
<stop offset="0.7902" stop-color="#A25924"/>
<stop offset="0.8067" stop-color="#BE7025"/>
<stop offset="0.8221" stop-color="#E08B27"/>
<stop offset="0.8249" stop-color="#E79127"/>
<stop offset="0.8485" stop-color="#ECA443"/>
<stop offset="0.8993" stop-color="#F8D68A"/>
<stop offset="0.9294" stop-color="#FFF5B7"/>
</linearGradient>
<linearGradient id="paint17_linear" x1="11.6281" y1="7.82426" x2="11.7083" y2="11.4292" gradientUnits="userSpaceOnUse">
<stop stop-color="#DD8E19"/>
<stop offset="1" stop-color="#FFEDA5"/>
</linearGradient>
<linearGradient id="paint18_linear" x1="15.2546" y1="28.7581" x2="4.322" y2="34.8436" gradientUnits="userSpaceOnUse">
<stop stop-color="#420B00"/>
<stop offset="1" stop-color="#8C4739" stop-opacity="0"/>
</linearGradient>
<linearGradient id="paint19_linear" x1="11.1684" y1="27.3166" x2="20.6635" y2="30.0709" gradientUnits="userSpaceOnUse">
<stop stop-color="#420B00"/>
<stop offset="1" stop-color="#8C4739" stop-opacity="0"/>
</linearGradient>
<linearGradient id="paint20_linear" x1="12.06" y1="22.0587" x2="18.2806" y2="24.3454" gradientUnits="userSpaceOnUse">
<stop stop-color="#420B00"/>
<stop offset="1" stop-color="#8C4739" stop-opacity="0"/>
</linearGradient>
<linearGradient id="paint21_linear" x1="26.3098" y1="32.7231" x2="19.2049" y2="33.9527" gradientUnits="userSpaceOnUse">
<stop stop-color="#420B00"/>
<stop offset="1" stop-color="#8C4739" stop-opacity="0"/>
</linearGradient>
</defs>
</svg>
