<svg width="59" height="76" viewBox="0 0 59 76" fill="none" xmlns="http://www.w3.org/2000/svg">
<circle cx="28.145" cy="40.9199" r="24.8984" fill="url(#paint0_linear)"/>
<g style="mix-blend-mode:screen">
<path fill-rule="evenodd" clip-rule="evenodd" d="M24.4929 50.2036C27.1504 48.6184 31.1609 52.1895 30.5328 54.2797C34.751 56.4571 33.8182 63.3125 27.7636 62.2636C28.7903 66.9663 19.1341 67.2303 17.9806 63.5131C15.5569 65.8783 10.3935 63.0361 11.4789 59.8689C8.09435 59.7701 6.53669 55.1497 8.1133 54.2647C5.09371 53.4374 4.81304 46.077 11.4641 47.9311C12.9602 45.8184 16.6003 45.6317 18.2201 49.2362C19.639 47.9774 24.0043 48.2429 24.4929 50.2036Z" fill="#DADBF0"/>
<path fill-rule="evenodd" clip-rule="evenodd" d="M33.0466 57.615C33.5303 60.1954 31.7664 62.957 27.7634 62.2636C28.7901 66.9664 19.1339 67.2303 17.9804 63.5131C15.5568 65.8783 10.3933 63.0361 11.4787 59.8689C8.09417 59.7701 6.5365 55.1497 8.11311 54.2647C5.61113 53.5793 4.98976 48.4083 8.63366 47.7107C4.90649 49.0004 6.91886 53.5063 9.28645 53.5904C7.81356 54.4171 8.37936 59.7841 12.5257 59.2474C11.5118 62.206 16.1884 65.2246 18.762 62.4483C19.8394 65.9207 28.2039 65.4112 27.2446 61.0183C31.85 62.1711 32.7773 59.6828 33.0466 57.615Z" fill="#C8D0E8"/>
<path fill-rule="evenodd" clip-rule="evenodd" d="M24.4664 48.2177C26.6771 46.6914 30.5703 49.1161 30.1418 50.9625C32.7593 52.2099 33.0596 56.0816 27.7683 55.522C28.5454 58.2459 25.4874 58.4197 23.5861 57.3763C22.9434 58.2317 21.0809 58.3256 20.281 57.3802C18.7622 58.6068 13.6817 57.3176 14.961 54.7411C12.2398 54.55 11.969 52.3845 13.2835 51.5271C10.7761 51.0944 9.3539 46.0611 15.5058 46.7462C16.6833 44.8302 19.6181 45.0696 20.8253 47.0478C21.9823 45.8758 23.9368 46.5475 24.4664 48.2177Z" fill="#DADBF0"/>
<path fill-rule="evenodd" clip-rule="evenodd" d="M31.763 52.5961C32.5609 54.2892 31.2067 56.0834 27.7685 55.5222C28.5456 58.2462 25.4877 58.42 23.5863 57.3766C22.9436 58.232 21.0811 58.3258 20.2812 57.3804C18.7624 58.6071 13.6819 57.3178 14.9612 54.7414C12.24 54.5502 11.9692 52.3848 13.2838 51.5273C11.1041 51.1515 9.74567 47.2997 13.4682 46.7487C10.6662 47.4746 11.3186 49.9174 14.1187 51.3984C12.5265 52.6008 14.9212 54.8036 16.0487 53.8102C14.6084 56.3731 19.0664 57.5111 20.2425 55.9079C21.3542 57.4597 23.579 57.639 23.7815 56.0356C26.1538 57.5087 27.7609 56.6959 27.3514 54.6654C29.9124 55.0491 32.064 55.0466 31.763 52.5961Z" fill="#C8D0E8"/>
<path fill-rule="evenodd" clip-rule="evenodd" d="M35.8017 32.5953C34.4857 35.2051 23.1046 48.633 25.3911 50.8674C26.6176 52.0657 26.0772 53.7057 22.5099 53.3366C21.4165 54.1684 16.9829 54.4181 17.6607 51.7089C14.8581 50.4442 16.5028 49.2347 18.2051 48.8525C18.6954 48.7425 19.2694 48.7256 19.82 48.4304C22.7399 46.8651 33.0625 35.1127 35.8017 32.5953Z" fill="#DADBF0"/>
<path fill-rule="evenodd" clip-rule="evenodd" d="M29.0494 40.3186L29.0413 40.3344C27.3438 42.2605 23.1852 46.3398 20.026 48.6297C19.5335 48.9868 19.0775 49.2362 18.5168 49.345C16.2388 49.7877 17.2838 51.2451 18.6873 51.1997C17.7902 52.7308 20.8797 54.1523 22.7585 53.1032C25.051 54.0069 25.7826 52.7219 25.8806 51.5073C26.9406 53.1499 25.7545 54.934 22.9403 53.7013C21.8469 54.5331 16.9827 54.4181 17.6605 51.7089C14.858 50.4443 16.5032 48.1375 17.9896 48.6704C18.5397 48.8676 19.4342 48.5566 20.0767 48.1887C22.9506 46.5447 26.3888 42.7638 29.0494 40.3186Z" fill="#C8D0E8"/>
</g>
<path fill-rule="evenodd" clip-rule="evenodd" d="M27.7311 43.0964C27.7374 42.3016 28.0535 39.4539 28.3049 38.7532L27.6553 39.3627C28.1654 36.3082 28.947 35.6041 31.2345 33.9677L35.0658 36.469C34.139 39.1845 33.8561 40.195 31.0959 41.7653L31.4445 40.9455C30.8732 41.4228 28.6126 42.7174 27.7311 43.0964Z" fill="url(#paint1_linear)"/>
<path fill-rule="evenodd" clip-rule="evenodd" d="M29.1508 41.0101C29.1553 40.4489 29.3785 38.4386 29.5558 37.9438L29.0973 38.3743C29.4575 36.2179 30.009 35.7209 31.6239 34.5656L34.3286 36.3314C33.6744 38.2483 33.4749 38.9618 31.5262 40.0704L31.7721 39.4916C31.3688 39.8284 29.7729 40.7425 29.1508 41.0101Z" fill="#FF5959"/>
<path fill-rule="evenodd" clip-rule="evenodd" d="M30.1781 39.5039C30.1813 39.0931 30.3447 37.6219 30.4746 37.2598L30.1388 37.5749C30.4023 35.9966 30.8061 35.6328 31.9879 34.7873L33.9676 36.0796C33.4888 37.4826 33.3426 38.0048 31.9165 38.8162L32.0967 38.3925C31.8015 38.6391 30.6333 39.3082 30.1781 39.5039Z" fill="#FFDDD2"/>
<path fill-rule="evenodd" clip-rule="evenodd" d="M35.3145 38.1918C36.2313 37.4516 37.0094 36.7556 37.9194 36.0259L31.5176 31.8049C31.4869 31.5163 30.9895 31.4855 31.0684 31.2508C30.6767 32.3244 30.2791 33.3343 29.9406 34.4461C29.7859 34.8216 29.8149 35.3102 30.0648 35.8613C30.4143 36.6375 31.0605 37.2519 31.7384 37.6887C32.761 38.3478 34.1932 39.0082 35.3145 38.1918Z" fill="url(#paint2_linear)"/>
<path fill-rule="evenodd" clip-rule="evenodd" d="M32.9251 32.733L31.5176 31.8049C31.4869 31.5163 30.9895 31.4855 31.0684 31.2508C30.6767 32.3244 30.2791 33.3343 29.9406 34.4461C29.7859 34.8216 29.8149 35.3102 30.0648 35.8613C30.4031 36.6126 31.0503 37.2453 31.7384 37.6887C32.7289 38.3271 34.1037 38.9667 35.2081 38.2643C33.9376 38.7712 31.9557 37.4631 31.4422 36.7619C31.9174 35.3852 32.4072 34.0409 32.9251 32.733Z" fill="url(#paint3_linear)"/>
<path fill-rule="evenodd" clip-rule="evenodd" d="M37.7314 33.777C36.979 32.1217 34.8835 30.6369 33.0502 30.4622C31.217 30.2877 30.3407 31.4882 31.0933 33.1438C31.845 34.8004 33.9414 36.2839 35.7744 36.4584C37.6076 36.633 38.4838 35.4324 37.7314 33.777Z" fill="#0A3C5F"/>
<path fill-rule="evenodd" clip-rule="evenodd" d="M46.5212 27.2619C47.2635 25.8995 47.8415 24.4243 48.2151 22.9367C48.3187 22.5242 48.4062 22.1075 48.4755 21.6869C49.3767 14.9267 48.003 12.2846 40.8068 16.2423C40.5166 16.402 40.2353 16.5795 39.9555 16.76C38.7101 17.5679 37.4701 18.6235 36.388 19.8071C33.9093 22.5194 31.6852 26.8834 31.1925 30.5229C31.131 30.9494 31.1092 31.2978 31.1334 31.6308C31.1559 31.9389 31.2152 32.2322 31.3858 32.608C32.2083 34.3925 34.4178 35.9119 36.3111 36.0951C36.8854 36.1485 37.3244 36.0899 37.8072 35.8755C38.1686 35.7151 38.5962 35.4694 38.8851 35.3037C41.8434 33.6079 44.8386 30.3491 46.5212 27.2619Z" fill="#DADBF0"/>
<path fill-rule="evenodd" clip-rule="evenodd" d="M40.8071 16.2423C39.7863 16.8038 38.6668 17.6447 37.8308 18.3865C37.1376 19.0014 36.4811 19.6692 35.8873 20.3821C33.6154 23.1088 31.6518 27.1307 31.1928 30.5229C31.1314 30.9494 31.1095 31.2978 31.1337 31.6308C31.2437 33.1352 32.704 34.5374 33.924 35.26C34.6936 35.7159 35.5295 36.0195 36.3112 36.0952C36.8815 36.148 37.1188 36.1437 37.7972 35.88C35.9201 36.2731 33.6649 34.7502 32.6129 33.3076C34.0708 27.9888 36.3739 23.2231 40.1796 20.2071C40.5354 20.6323 43.8396 23.6735 46.5156 22.8325L40.8884 16.3362C41.0409 16.242 41.1948 16.1506 41.3514 16.0645C42.488 15.4395 43.4791 14.9795 44.3389 14.6739C43.3604 14.9645 42.1919 15.4807 40.8071 16.2423Z" fill="#C2BEDB"/>
<path fill-rule="evenodd" clip-rule="evenodd" d="M48.5742 21.0918C48.8757 18.9475 48.9884 16.243 48.2896 14.182C48.2757 14.1417 48.2594 14.0944 48.2432 14.047C48.2312 14.0121 48.1998 13.9131 48.1331 13.8677C48.0703 13.8246 47.9726 13.8338 47.929 13.8347C45.635 13.8816 42.9515 14.944 41.0212 16.0694C40.8984 16.141 40.7806 16.2185 40.691 16.2984C40.1483 16.7663 40.0343 17.4707 40.1703 18.1573C40.3011 18.8185 40.6599 19.459 41.0478 19.9662C41.1004 20.0388 41.1556 20.111 41.2129 20.1825C42.2887 21.5211 44.1788 22.6223 45.7587 22.8317C46.3393 22.9087 46.9424 22.8836 47.4543 22.6759C47.7062 22.5737 47.9366 22.4249 48.1277 22.2128C48.2509 22.0762 48.3564 21.9181 48.4208 21.7584C48.5063 21.5473 48.5431 21.3129 48.5742 21.0918Z" fill="url(#paint4_linear)"/>
<path fill-rule="evenodd" clip-rule="evenodd" d="M48.1543 13.8849C48.1477 13.8786 48.1406 13.8727 48.1331 13.8677C48.0703 13.8246 47.9726 13.8338 47.929 13.8347C45.635 13.8816 42.9515 14.944 41.0212 16.0694C40.8984 16.141 40.7806 16.2185 40.691 16.2984C40.1483 16.7663 40.0343 17.4707 40.1703 18.1573C40.1721 18.1668 40.1738 18.1761 40.1758 18.1855L40.1775 18.1929L40.1826 18.2163L40.1836 18.2214C40.1879 18.2409 40.1923 18.2602 40.197 18.2796L40.1981 18.2841C40.2003 18.2932 40.2025 18.3021 40.2047 18.3112L40.205 18.3123C40.2076 18.3224 40.2102 18.3323 40.2128 18.3422L40.2129 18.3428C40.218 18.3622 40.2233 18.3818 40.2288 18.4012L40.2304 18.4067C40.2386 18.4359 40.2474 18.4651 40.2564 18.4941L40.2577 18.498C40.2605 18.5073 40.2634 18.5163 40.2664 18.5256L40.2666 18.5265C40.2764 18.5568 40.2866 18.5869 40.2972 18.6169L40.2973 18.6175C40.308 18.6476 40.3188 18.6773 40.3302 18.7072L40.3306 18.7082C40.3382 18.728 40.3458 18.7476 40.3535 18.7672L40.3542 18.7686L40.3652 18.7959L40.3663 18.7988C40.3903 18.8575 40.4155 18.9154 40.4421 18.9731L40.4435 18.9766L40.4548 19.001L40.4571 19.0057C40.4656 19.0237 40.4741 19.0415 40.4829 19.0594L40.4861 19.0661L40.4962 19.0865L40.4995 19.0931C40.5085 19.1112 40.5176 19.129 40.5268 19.1469L40.5286 19.1508L40.5406 19.1739L40.5434 19.1791L40.5535 19.1987L40.5581 19.207L40.5709 19.2312L40.575 19.2387L40.5846 19.2567L40.5898 19.2662L40.602 19.2881L40.603 19.29L40.6181 19.3168L40.6203 19.3208L40.6329 19.343L40.6358 19.348L40.6478 19.3689L40.6515 19.3752L40.6647 19.3974L40.6728 19.4111L40.6791 19.4219L40.6867 19.4346L40.6959 19.4501L40.7002 19.4571L40.7138 19.4794L40.7188 19.4876L40.7296 19.505L40.7363 19.5158L40.7439 19.5283L40.7522 19.5416L40.7602 19.5542L40.7661 19.5636L40.7791 19.5838C40.8653 19.7179 40.9558 19.8458 41.048 19.9663C41.1006 20.0389 41.1558 20.1111 41.2131 20.1826C42.2888 21.5213 44.179 22.6224 45.7589 22.8318C46.3269 22.9073 46.9819 22.89 47.5225 22.6474C46.688 22.8113 43.5059 22.9601 41.2592 19.0629C43.2009 17.0855 45.4256 15.4004 48.1543 13.8849Z" fill="#1E2136"/>
<path fill-rule="evenodd" clip-rule="evenodd" d="M41.6316 23.2355C43.1665 24.299 43.569 26.378 42.5292 27.8789C41.4892 29.3797 39.4022 29.7322 37.8671 28.6685C36.3312 27.6041 35.9276 25.5262 36.9676 24.0253C38.0076 22.5245 40.0955 22.1711 41.6316 23.2355Z" fill="#B5B0D2"/>
<path fill-rule="evenodd" clip-rule="evenodd" d="M38.5033 27.7502C37.5085 27.0608 37.2596 25.698 37.948 24.7047C38.6364 23.7113 40.0005 23.4642 40.9953 24.1535C41.9892 24.8422 42.2372 26.2064 41.5489 27.1996C40.8608 28.193 39.4972 28.4388 38.5033 27.7502ZM41.5553 23.3456C40.1142 22.347 38.1368 22.7037 37.1388 24.1438C36.1416 25.583 36.5017 27.5607 37.9428 28.5593C39.383 29.5572 41.3613 29.1995 42.3582 27.7603C43.3562 26.32 42.9954 24.3435 41.5553 23.3456Z" fill="#EAE7F4"/>
<path fill-rule="evenodd" clip-rule="evenodd" d="M38.5038 27.7501C39.4946 28.4367 40.8637 28.1894 41.5494 27.1996C42.2361 26.2087 41.9866 24.8401 40.9957 24.1535C40.0042 23.4664 38.6351 23.7136 37.9485 24.7046C37.2627 25.6942 37.5122 27.063 38.5038 27.7501Z" fill="url(#paint5_linear)"/>
<path fill-rule="evenodd" clip-rule="evenodd" d="M40.9958 24.1536C41.9897 24.8422 42.2377 26.2065 41.5494 27.1997C41.4714 27.3124 41.3846 27.4153 41.2901 27.5095C41.7127 26.5652 41.4179 25.425 40.5376 24.815C39.6564 24.2044 38.4848 24.3287 37.7506 25.0571C37.8042 24.9347 37.8704 24.8173 37.9484 24.7046C38.6369 23.7114 40.0009 23.4642 40.9958 24.1536Z" fill="#0A3C5F"/>
<path fill-rule="evenodd" clip-rule="evenodd" d="M41.0823 24.0276C41.1877 24.1007 41.332 24.075 41.405 23.9697C41.4789 23.8631 41.452 23.719 41.3466 23.6461C41.2404 23.5723 41.0961 23.5979 41.0222 23.7046C40.9491 23.81 40.9759 23.954 41.0823 24.0276Z" fill="#1466A0"/>
<path fill-rule="evenodd" clip-rule="evenodd" d="M38.1512 28.2589C38.2565 28.3319 38.4016 28.3052 38.4747 28.1999C38.5477 28.0946 38.5218 27.9491 38.4164 27.8761C38.3101 27.8025 38.165 27.8292 38.092 27.9348C38.0188 28.0399 38.0448 28.1852 38.1512 28.2589Z" fill="#1466A0"/>
<path fill-rule="evenodd" clip-rule="evenodd" d="M42.0578 27.5523C41.9847 27.6576 41.8396 27.6845 41.7333 27.6109C41.6278 27.5378 41.6009 27.3919 41.6739 27.2863C41.7468 27.181 41.8938 27.1538 41.9993 27.2268C42.1058 27.3004 42.1307 27.447 42.0578 27.5523Z" fill="#1466A0"/>
<path fill-rule="evenodd" clip-rule="evenodd" d="M37.8222 24.6177C37.7492 24.7231 37.6031 24.7492 37.4978 24.6762C37.3915 24.6025 37.3656 24.4573 37.4385 24.3519C37.5114 24.2464 37.6574 24.2185 37.7638 24.2923C37.8692 24.3653 37.8954 24.5125 37.8222 24.6177Z" fill="#1466A0"/>
<path fill-rule="evenodd" clip-rule="evenodd" d="M42.5115 25.4516C42.5345 25.5787 42.4506 25.6997 42.3243 25.7216C42.1982 25.7456 42.0763 25.661 42.0532 25.5339C42.0303 25.4084 42.1143 25.2875 42.2404 25.2636C42.3667 25.242 42.4886 25.3265 42.5115 25.4516Z" fill="#1466A0"/>
<path fill-rule="evenodd" clip-rule="evenodd" d="M37.4442 26.3693C37.4662 26.4958 37.3831 26.6157 37.257 26.6393C37.1298 26.6624 37.0078 26.5779 36.9859 26.4516C36.9629 26.3245 37.0459 26.2046 37.173 26.1815C37.299 26.1574 37.4211 26.2421 37.4442 26.3693Z" fill="#1466A0"/>
<path fill-rule="evenodd" clip-rule="evenodd" d="M40.2511 28.7139C40.1249 28.7379 40.0031 28.6533 39.9798 28.5261C39.9577 28.3997 40.0409 28.2798 40.167 28.256C40.2943 28.233 40.4162 28.3175 40.4382 28.4438C40.4612 28.5708 40.3782 28.6908 40.2511 28.7139Z" fill="#1466A0"/>
<path fill-rule="evenodd" clip-rule="evenodd" d="M39.3304 23.6471C39.2032 23.6703 39.0811 23.5857 39.0592 23.4593C39.0353 23.3335 39.1194 23.2125 39.2464 23.1892C39.3716 23.1667 39.4938 23.2513 39.5176 23.3772C39.5397 23.5036 39.4556 23.6248 39.3304 23.6471Z" fill="#1466A0"/>
<path fill-rule="evenodd" clip-rule="evenodd" d="M38.1359 35.5153L38.2556 35.4523L38.1258 35.5204L38.1359 35.5153Z" fill="#828388"/>
<path fill-rule="evenodd" clip-rule="evenodd" d="M41.4682 32.8627L40.1922 32.7583C38.7791 38.0389 36.9004 40.4062 34.3879 44.1781L35.6654 44.2805L35.6642 44.2793C37.0471 42.6317 38.7428 41.0128 39.8641 39.2131C40.3641 38.411 40.7591 37.5668 41.0338 36.6133C41.3856 35.3926 41.5018 34.1758 41.4682 32.8627Z" fill="url(#paint6_linear)"/>
<path fill-rule="evenodd" clip-rule="evenodd" d="M40.1928 32.7582L36.3239 36.3522C36.0676 38.6572 35.4857 41.2234 34.3886 44.178C37.3562 40.6436 40.3423 38.5495 40.1928 32.7582Z" fill="#1E2136"/>
<path fill-rule="evenodd" clip-rule="evenodd" d="M32.6741 26.7688L33.2202 27.9269C28.7723 31.1048 27.2158 33.6952 24.5671 37.3728L24.0223 36.2126L24.024 36.2134C25.0808 34.3395 26.0008 32.1835 27.292 30.5014C27.8675 29.7517 28.5191 29.0853 29.3151 28.4932C30.3345 27.7347 31.4328 27.1985 32.6741 26.7688Z" fill="url(#paint7_linear)"/>
<path fill-rule="evenodd" clip-rule="evenodd" d="M33.2203 27.9268L31.2142 32.8115C29.1461 33.8612 26.9478 35.3075 24.5672 37.3726C26.8337 33.3524 27.7453 29.8212 33.2203 27.9268Z" fill="#1E2136"/>
<g style="mix-blend-mode:soft-light">
<path d="M41.1768 26.1862L39.1747 24.8871C39.5431 24.6857 40.0373 24.67 40.4303 24.925C40.6744 25.0834 40.8361 25.3245 40.9194 25.5787L41.237 25.7848C41.1896 25.3536 40.9502 24.9676 40.5649 24.7176C39.9629 24.327 39.1901 24.4166 38.6932 24.915L38.706 24.9233L39.6026 25.5051L39.4106 25.8009L38.4807 25.1975L38.3344 25.423L39.2643 26.0264L38.6335 26.9985L38.8589 27.1448L39.4897 26.1726L39.6729 26.2915L39.0421 27.2636L39.2816 27.419L39.9124 26.4469L40.5359 26.8515L40.5719 26.8748L40.7582 26.9958C40.8303 26.9224 40.8975 26.8387 40.9547 26.7503C41.0682 26.5748 41.1412 26.3833 41.1768 26.1862ZM39.8191 26.0661L39.636 25.9472L39.828 25.6513L40.0111 25.7702L39.8191 26.0661ZM40.0587 26.2215L40.2506 25.9256L40.8697 26.3273C40.848 26.4133 40.7923 26.5278 40.7315 26.6218C40.7258 26.6306 40.7239 26.6331 40.7145 26.6471L40.0587 26.2215Z" fill="white"/>
<path d="M41.1768 26.1862L39.1747 24.8871C39.5431 24.6857 40.0373 24.67 40.4303 24.925C40.6744 25.0834 40.8361 25.3245 40.9194 25.5787L41.237 25.7848C41.1896 25.3536 40.9502 24.9676 40.5649 24.7176C39.9629 24.327 39.1901 24.4166 38.6932 24.915L38.706 24.9233L39.6026 25.5051L39.4106 25.8009L38.4807 25.1975L38.3344 25.423L39.2643 26.0264L38.6335 26.9985L38.8589 27.1448L39.4897 26.1726L39.6729 26.2915L39.0421 27.2636L39.2816 27.419L39.9124 26.4469L40.5359 26.8515L40.5719 26.8748L40.7582 26.9958C40.8303 26.9224 40.8975 26.8387 40.9547 26.7503C41.0682 26.5748 41.1412 26.3833 41.1768 26.1862ZM39.8191 26.0661L39.636 25.9472L39.828 25.6513L40.0111 25.7702L39.8191 26.0661ZM40.0587 26.2215L40.2506 25.9256L40.8697 26.3273C40.848 26.4133 40.7923 26.5278 40.7315 26.6218C40.7258 26.6306 40.7239 26.6331 40.7145 26.6471L40.0587 26.2215Z" fill="white"/>
<path d="M40.8549 24.2311C39.9099 23.6179 38.6423 23.8878 38.0291 24.8328C37.4159 25.7778 37.6858 27.0455 38.6308 27.6587C39.5758 28.2719 40.8435 28.0019 41.4567 27.0569C42.0698 26.1119 41.7999 24.8443 40.8549 24.2311ZM38.7861 27.4193C37.9731 26.8917 37.7409 25.8011 38.2685 24.9881C38.796 24.1752 39.8866 23.9429 40.6996 24.4705C41.5125 24.998 41.7448 26.0886 41.2173 26.9016C40.6897 27.7146 39.5991 27.9468 38.7861 27.4193Z" fill="white"/>
</g>
<g style="mix-blend-mode:soft-light">
<path d="M41.172 26.1806L39.1698 24.8814C39.5382 24.68 40.0324 24.6643 40.4254 24.9194C40.6696 25.0778 40.8313 25.3188 40.9145 25.5731L41.2321 25.7791C41.1847 25.348 40.9453 24.962 40.56 24.712C39.958 24.3214 39.1852 24.4109 38.6884 24.9094L38.7012 24.9177L39.5977 25.4994L39.4057 25.7953L38.4758 25.1919L38.3295 25.4173L39.2594 26.0207L38.6286 26.9929L38.854 27.1391L39.4848 26.167L39.668 26.2858L39.0372 27.258L39.2767 27.4134L39.9075 26.4412L40.531 26.8458L40.567 26.8692L40.7534 26.9901C40.8254 26.9167 40.8926 26.833 40.9498 26.7446C41.0633 26.5692 41.1363 26.3777 41.172 26.1806ZM39.8143 26.0604L39.6311 25.9416L39.8231 25.6457L40.0063 25.7645L39.8143 26.0604ZM40.0538 26.2158L40.2458 25.92L40.8648 26.3216C40.8432 26.4077 40.7874 26.5221 40.7266 26.6161C40.721 26.6249 40.719 26.6275 40.7097 26.6414L40.0538 26.2158Z" fill="white"/>
<path d="M41.172 26.1806L39.1698 24.8814C39.5382 24.68 40.0324 24.6643 40.4254 24.9194C40.6696 25.0778 40.8313 25.3188 40.9145 25.5731L41.2321 25.7791C41.1847 25.348 40.9453 24.962 40.56 24.712C39.958 24.3214 39.1852 24.4109 38.6884 24.9094L38.7012 24.9177L39.5977 25.4994L39.4057 25.7953L38.4758 25.1919L38.3295 25.4173L39.2594 26.0207L38.6286 26.9929L38.854 27.1391L39.4848 26.167L39.668 26.2858L39.0372 27.258L39.2767 27.4134L39.9075 26.4412L40.531 26.8458L40.567 26.8692L40.7534 26.9901C40.8254 26.9167 40.8926 26.833 40.9498 26.7446C41.0633 26.5692 41.1363 26.3777 41.172 26.1806ZM39.8143 26.0604L39.6311 25.9416L39.8231 25.6457L40.0063 25.7645L39.8143 26.0604ZM40.0538 26.2158L40.2458 25.92L40.8648 26.3216C40.8432 26.4077 40.7874 26.5221 40.7266 26.6161C40.721 26.6249 40.719 26.6275 40.7097 26.6414L40.0538 26.2158Z" fill="white"/>
<path d="M40.85 24.2256C39.905 23.6124 38.6374 23.8823 38.0242 24.8273C37.411 25.7723 37.6809 27.0399 38.6259 27.6531C39.5709 28.2663 40.8386 27.9964 41.4518 27.0514C42.065 26.1064 41.795 24.8387 40.85 24.2256ZM38.7813 27.4137C37.9683 26.8862 37.7361 25.7956 38.2636 24.9826C38.7911 24.1696 39.8817 23.9374 40.6947 24.4649C41.5077 24.9925 41.7399 26.0831 41.2124 26.896C40.6848 27.709 39.5942 27.9413 38.7813 27.4137Z" fill="white"/>
</g>
<g style="mix-blend-mode:soft-light">
<path d="M41.1798 26.1842L39.1776 24.8851C39.5461 24.6837 40.0402 24.668 40.4333 24.923C40.6774 25.0814 40.8391 25.3225 40.9224 25.5767L41.2399 25.7828C41.1925 25.3516 40.9531 24.9656 40.5678 24.7156C39.9659 24.325 39.193 24.4146 38.6962 24.913L38.709 24.9213L39.6055 25.5031L39.4135 25.7989L38.4836 25.1956L38.3373 25.421L39.2672 26.0244L38.6364 26.9965L38.8618 27.1428L39.4926 26.1706L39.6758 26.2895L39.045 27.2616L39.2845 27.4171L39.9153 26.4449L40.5388 26.8495L40.5748 26.8728L40.7612 26.9938C40.8332 26.9204 40.9004 26.8367 40.9576 26.7483C41.0711 26.5728 41.1441 26.3814 41.1798 26.1842ZM39.8221 26.0641L39.6389 25.9452L39.8309 25.6493L40.0141 25.7682L39.8221 26.0641ZM40.0616 26.2195L40.2536 25.9236L40.8726 26.3253C40.851 26.4114 40.7952 26.5258 40.7344 26.6198C40.7288 26.6286 40.7268 26.6311 40.7175 26.6451L40.0616 26.2195Z" fill="white"/>
<path d="M41.1798 26.1842L39.1776 24.8851C39.5461 24.6837 40.0402 24.668 40.4333 24.923C40.6774 25.0814 40.8391 25.3225 40.9224 25.5767L41.2399 25.7828C41.1925 25.3516 40.9531 24.9656 40.5678 24.7156C39.9659 24.325 39.193 24.4146 38.6962 24.913L38.709 24.9213L39.6055 25.5031L39.4135 25.7989L38.4836 25.1956L38.3373 25.421L39.2672 26.0244L38.6364 26.9965L38.8618 27.1428L39.4926 26.1706L39.6758 26.2895L39.045 27.2616L39.2845 27.4171L39.9153 26.4449L40.5388 26.8495L40.5748 26.8728L40.7612 26.9938C40.8332 26.9204 40.9004 26.8367 40.9576 26.7483C41.0711 26.5728 41.1441 26.3814 41.1798 26.1842ZM39.8221 26.0641L39.6389 25.9452L39.8309 25.6493L40.0141 25.7682L39.8221 26.0641ZM40.0616 26.2195L40.2536 25.9236L40.8726 26.3253C40.851 26.4114 40.7952 26.5258 40.7344 26.6198C40.7288 26.6286 40.7268 26.6311 40.7175 26.6451L40.0616 26.2195Z" fill="white"/>
<path d="M40.8569 24.2291C39.9119 23.6159 38.6442 23.8858 38.031 24.8308C37.4178 25.7758 37.6877 27.0435 38.6327 27.6567C39.5777 28.2699 40.8454 27.9999 41.4586 27.0549C42.0718 26.1099 41.8018 24.8423 40.8569 24.2291ZM38.7881 27.4173C37.9751 26.8897 37.7429 25.7991 38.2704 24.9861C38.798 24.1732 39.8885 23.9409 40.7015 24.4685C41.5145 24.996 41.7467 26.0866 41.2192 26.8996C40.6917 27.7126 39.6011 27.9448 38.7881 27.4173Z" fill="white"/>
</g>
<circle cx="24.7127" cy="43.8631" r="1.13057" transform="rotate(15.4975 24.7127 43.8631)" fill="#4048FF"/>
<circle cx="16.2449" cy="40.7997" r="1.76992" transform="rotate(15.4975 16.2449 40.7997)" fill="#FB6C77"/>
<circle cx="20.0267" cy="44.3103" r="1.82832" transform="rotate(15.4975 20.0267 44.3103)" fill="#4048FF"/>
<path d="M19.8102 45.047L19.6613 45.0994C19.5975 45.1218 19.527 45.088 19.5046 45.0243L19.3015 44.4471C19.2791 44.3834 19.3129 44.3128 19.3766 44.2904L19.5255 44.238C19.5892 44.2156 19.6598 44.2494 19.6822 44.3131L19.8852 44.8903C19.9077 44.954 19.874 45.0246 19.8102 45.047Z" fill="white"/>
<path d="M20.6114 43.9868C20.6494 43.9522 20.6654 43.8967 20.6473 43.8453C20.6231 43.7767 20.5473 43.7404 20.4789 43.7645L20.1247 43.8891C20.1228 43.8622 20.1464 43.7348 20.1518 43.6898C20.1565 43.6512 20.1478 43.6111 20.1347 43.5745C20.1185 43.5284 20.0924 43.4857 20.0587 43.4501C20.0126 43.4014 19.9488 43.3559 19.8813 43.3945C19.8212 43.4287 19.8041 43.5133 19.8481 43.567C19.8481 43.567 19.8793 43.6075 19.8824 43.6251C19.8865 43.6476 19.8691 43.6928 19.8496 43.7513C19.8102 43.8681 19.7598 44.0235 19.7505 44.0773C19.74 44.1393 19.7411 44.1838 19.7526 44.2306C19.7528 44.24 19.7544 44.2495 19.7578 44.2589L19.9429 44.7852C19.9601 44.8337 20.0136 44.8594 20.0621 44.8423L20.6848 44.625C20.7484 44.6027 20.7819 44.5324 20.7597 44.4689C20.7505 44.443 20.7336 44.4223 20.7123 44.408C20.7495 44.3761 20.7652 44.3234 20.7481 44.2748C20.7378 44.2457 20.7175 44.223 20.6925 44.2089C20.7255 44.174 20.7385 44.1223 20.7217 44.0741C20.7042 44.0248 20.6603 43.9924 20.6114 43.9868Z" fill="white"/>
<circle cx="22.4965" cy="51.2826" r="1.48898" transform="rotate(15.4975 22.4965 51.2826)" fill="#4048FF"/>
<path d="M22.3202 51.8826L22.199 51.9252C22.1471 51.9435 22.0896 51.916 22.0714 51.8641L21.906 51.394C21.8878 51.3421 21.9153 51.2846 21.9672 51.2664L22.0884 51.2237C22.1403 51.2054 22.1978 51.233 22.216 51.2849L22.3814 51.7549C22.3997 51.8068 22.3722 51.8643 22.3202 51.8826Z" fill="white"/>
<path d="M22.9723 51.0189C23.0033 50.9907 23.0163 50.9455 23.0015 50.9037C22.9819 50.8478 22.9201 50.8182 22.8645 50.8379L22.576 50.9393C22.5744 50.9174 22.5936 50.8136 22.598 50.777C22.6019 50.7456 22.5948 50.7129 22.5841 50.6831C22.571 50.6456 22.5497 50.6108 22.5222 50.5818C22.4847 50.5421 22.4327 50.5051 22.3777 50.5365C22.3288 50.5644 22.3148 50.6333 22.3507 50.677C22.3507 50.677 22.3761 50.71 22.3786 50.7243C22.382 50.7426 22.3678 50.7794 22.3519 50.8271C22.3198 50.9222 22.2788 51.0488 22.2712 51.0926C22.2626 51.1431 22.2635 51.1793 22.2729 51.2174C22.2731 51.2251 22.2744 51.2328 22.2772 51.2405L22.4279 51.6691C22.4419 51.7086 22.4855 51.7296 22.525 51.7156L23.0321 51.5386C23.0839 51.5204 23.1112 51.4633 23.0931 51.4115C23.0856 51.3904 23.0718 51.3735 23.0545 51.3619C23.0848 51.3359 23.0976 51.293 23.0837 51.2534C23.0753 51.2298 23.0587 51.2113 23.0384 51.1998C23.0652 51.1714 23.0759 51.1293 23.0621 51.09C23.0479 51.0498 23.0121 51.0234 22.9723 51.0189Z" fill="white"/>
<circle cx="32.5103" cy="52.5142" r="2.21619" transform="rotate(15.4975 32.5103 52.5142)" fill="#4048FF"/>
<path d="M32.249 53.407L32.0685 53.4705C31.9913 53.4977 31.9058 53.4567 31.8786 53.3795L31.6325 52.6798C31.6053 52.6026 31.6463 52.5171 31.7235 52.4899L31.904 52.4264C31.9812 52.3992 32.0667 52.4402 32.0939 52.5174L32.34 53.2171C32.3672 53.2943 32.3264 53.3799 32.249 53.407Z" fill="white"/>
<path d="M33.2192 52.1216C33.2653 52.0797 33.2847 52.0124 33.2627 51.9501C33.2335 51.867 33.1415 51.823 33.0587 51.8522L32.6293 52.0032C32.627 51.9706 32.6556 51.8161 32.6621 51.7617C32.6678 51.7148 32.6573 51.6662 32.6415 51.6218C32.6218 51.566 32.5901 51.5142 32.5492 51.4711C32.4934 51.412 32.416 51.3569 32.3342 51.4036C32.2614 51.4452 32.2406 51.5477 32.294 51.6128C32.294 51.6128 32.3318 51.6619 32.3355 51.6832C32.3406 51.7104 32.3195 51.7652 32.2958 51.8361C32.248 51.9778 32.1869 52.1661 32.1757 52.2313C32.1629 52.3065 32.1643 52.3604 32.1782 52.4171C32.1785 52.4286 32.1805 52.4401 32.1846 52.4514L32.4089 53.0894C32.4297 53.1482 32.4946 53.1794 32.5534 53.1587L33.3082 52.8952C33.3853 52.8681 33.4259 52.783 33.399 52.7059C33.3879 52.6746 33.3673 52.6495 33.3416 52.6322C33.3866 52.5935 33.4057 52.5296 33.3849 52.4707C33.3725 52.4355 33.3478 52.408 33.3175 52.3909C33.3575 52.3486 33.3733 52.2859 33.3529 52.2275C33.3317 52.1677 33.2785 52.1284 33.2192 52.1216Z" fill="white"/>
<circle cx="26.5865" cy="47.815" r="0.920617" transform="rotate(15.4975 26.5865 47.815)" fill="#4048FF"/>
<path d="M26.4784 48.186L26.4034 48.2124C26.3713 48.2237 26.3358 48.2067 26.3245 48.1746L26.2223 47.8839C26.211 47.8519 26.228 47.8163 26.2601 47.805L26.3351 47.7787C26.3671 47.7674 26.4027 47.7844 26.414 47.8165L26.5162 48.1071C26.5275 48.1392 26.5105 48.1747 26.4784 48.186Z" fill="white"/>
<path d="M26.8819 47.6521C26.901 47.6347 26.9091 47.6068 26.8999 47.5809C26.8878 47.5464 26.8496 47.5281 26.8152 47.5402L26.6368 47.603C26.6359 47.5894 26.6477 47.5252 26.6504 47.5026C26.6528 47.4832 26.6484 47.463 26.6419 47.4445C26.6337 47.4213 26.6205 47.3998 26.6036 47.3819C26.5803 47.3574 26.5482 47.3345 26.5142 47.3539C26.484 47.3711 26.4753 47.4137 26.4975 47.4408C26.4975 47.4408 26.5132 47.4612 26.5148 47.47C26.5169 47.4813 26.5081 47.5041 26.4983 47.5335C26.4784 47.5924 26.453 47.6706 26.4484 47.6977C26.4431 47.7289 26.4436 47.7513 26.4494 47.7749C26.4495 47.7796 26.4504 47.7844 26.4521 47.7891L26.5452 48.0542C26.5539 48.0786 26.5808 48.0915 26.6053 48.0829L26.9188 47.9735C26.9508 47.9622 26.9677 47.9269 26.9566 47.8949C26.9519 47.8818 26.9434 47.8714 26.9327 47.8642C26.9514 47.8482 26.9593 47.8216 26.9507 47.7972C26.9455 47.7825 26.9353 47.7711 26.9227 47.764C26.9393 47.7464 26.9459 47.7204 26.9374 47.6961C26.9286 47.6713 26.9065 47.655 26.8819 47.6521Z" fill="white"/>
<circle cx="20.3526" cy="37.6823" r="1.15057" transform="rotate(15.4975 20.3526 37.6823)" fill="#4048FF"/>
<path d="M20.2159 38.1459L20.1222 38.1788C20.0821 38.1929 20.0377 38.1717 20.0235 38.1316L19.8958 37.7683C19.8817 37.7282 19.9029 37.6838 19.943 37.6697L20.0367 37.6368C20.0768 37.6226 20.1212 37.6439 20.1353 37.684L20.2631 38.0473C20.2772 38.0874 20.256 38.1318 20.2159 38.1459Z" fill="white"/>
<path d="M20.7194 37.4787C20.7434 37.4569 20.7534 37.422 20.742 37.3896C20.7268 37.3465 20.6791 37.3236 20.6361 37.3388L20.4132 37.4172C20.412 37.4003 20.4268 37.3201 20.4302 37.2918C20.4332 37.2675 20.4277 37.2423 20.4195 37.2192C20.4093 37.1902 20.3928 37.1634 20.3716 37.1409C20.3426 37.1103 20.3024 37.0817 20.2599 37.1059C20.2222 37.1275 20.2114 37.1807 20.2391 37.2145C20.2391 37.2145 20.2587 37.24 20.2606 37.2511C20.2633 37.2652 20.2523 37.2937 20.24 37.3305C20.2152 37.404 20.1835 37.5018 20.1777 37.5356C20.171 37.5746 20.1717 37.6026 20.179 37.6321C20.1791 37.638 20.1801 37.644 20.1823 37.6499L20.2987 37.9811C20.3095 38.0116 20.3432 38.0278 20.3737 38.0171L20.7656 37.8803C20.8056 37.8663 20.8268 37.8221 20.8128 37.782C20.807 37.7658 20.7963 37.7527 20.7829 37.7438C20.8063 37.7237 20.8162 37.6905 20.8055 37.6599C20.799 37.6416 20.7862 37.6273 20.7705 37.6185C20.7912 37.5965 20.7994 37.564 20.7888 37.5336C20.7778 37.5026 20.7502 37.4822 20.7194 37.4787Z" fill="white"/>
<path d="M24.5785 44.3187L24.4864 44.3511C24.447 44.365 24.4034 44.3441 24.3895 44.3047L24.264 43.9477C24.2501 43.9083 24.271 43.8647 24.3104 43.8508L24.4025 43.8185C24.4419 43.8046 24.4855 43.8255 24.4994 43.8649L24.6249 44.2218C24.6388 44.2612 24.618 44.3048 24.5785 44.3187Z" fill="white"/>
<path d="M25.0741 43.6631C25.0977 43.6417 25.1076 43.6073 25.0963 43.5756C25.0814 43.5332 25.0345 43.5107 24.9922 43.5256L24.7732 43.6027C24.772 43.586 24.7866 43.5072 24.7899 43.4794C24.7928 43.4555 24.7875 43.4307 24.7794 43.4081C24.7694 43.3796 24.7532 43.3532 24.7324 43.3312C24.7039 43.3011 24.6644 43.2729 24.6226 43.2968C24.5855 43.318 24.5749 43.3703 24.6021 43.4035C24.6021 43.4035 24.6214 43.4285 24.6233 43.4394C24.6259 43.4533 24.6151 43.4813 24.603 43.5174C24.5787 43.5897 24.5475 43.6857 24.5418 43.719C24.5353 43.7574 24.536 43.7849 24.5431 43.8138C24.5432 43.8196 24.5442 43.8255 24.5463 43.8313L24.6607 44.1568C24.6714 44.1867 24.7045 44.2027 24.7344 44.1921L25.1195 44.0577C25.1589 44.0439 25.1796 44.0005 25.1659 43.9612C25.1602 43.9452 25.1497 43.9324 25.1366 43.9235C25.1595 43.9038 25.1693 43.8712 25.1587 43.8412C25.1523 43.8232 25.1397 43.8091 25.1243 43.8004C25.1447 43.7788 25.1528 43.7469 25.1423 43.7171C25.1315 43.6866 25.1044 43.6665 25.0741 43.6631Z" fill="white"/>
<path d="M15.8043 40.2983C16.0607 40.2309 16.2185 40.428 16.2725 40.5117C16.3108 40.4197 16.4314 40.198 16.6955 40.2191C17.0777 40.2495 17.1707 40.7242 16.8543 41.0955C16.5442 41.4593 16.3634 41.5438 16.3634 41.5438C16.3634 41.5438 16.172 41.4923 15.8025 41.1889C15.4254 40.8793 15.4335 40.3957 15.8043 40.2983Z" fill="white"/>
<circle cx="30.5015" cy="45.2821" r="1.76992" transform="rotate(58.9755 30.5015 45.2821)" fill="#FB6C77"/>
<path d="M30.4607 44.5815C30.6931 44.709 30.672 44.9606 30.6536 45.0585C30.7447 45.0181 30.9848 44.9402 31.1619 45.1373C31.4183 45.4223 31.1592 45.8308 30.6742 45.8825C30.1988 45.9331 30.0094 45.8701 30.0094 45.8701C30.0094 45.8701 29.906 45.701 29.8467 45.2265C29.786 44.7425 30.1246 44.3971 30.4607 44.5815Z" fill="white"/>
<circle cx="16.9766" cy="48.2739" r="0.788974" transform="rotate(58.9755 16.9766 48.2739)" fill="#FB6C77"/>
<path d="M16.9579 47.9617C17.0615 48.0185 17.052 48.1307 17.0438 48.1743C17.0845 48.1563 17.1914 48.1216 17.2704 48.2094C17.3847 48.3365 17.2692 48.5186 17.053 48.5416C16.8411 48.5642 16.7567 48.5361 16.7567 48.5361C16.7567 48.5361 16.7106 48.4607 16.6841 48.2492C16.6571 48.0334 16.808 47.8795 16.9579 47.9617Z" fill="white"/>
<circle cx="33.1143" cy="42.2633" r="0.788974" transform="rotate(58.9755 33.1143 42.2633)" fill="#FB6C77"/>
<path d="M33.0955 41.951C33.1991 42.0079 33.1897 42.12 33.1815 42.1637C33.2222 42.1457 33.3291 42.111 33.4081 42.1988C33.5224 42.3259 33.4069 42.5079 33.1907 42.531C32.9788 42.5535 32.8944 42.5254 32.8944 42.5254C32.8944 42.5254 32.8483 42.4501 32.8218 42.2386C32.7948 42.0228 32.9457 41.8688 33.0955 41.951Z" fill="white"/>
<g filter="url(#filter0_f)">
<circle cx="26.3423" cy="39.7573" r="0.785937" transform="rotate(31.0419 26.3423 39.7573)" fill="#FB6C77"/>
<path d="M26.1798 39.4909C26.2975 39.4926 26.3415 39.5957 26.3547 39.6379C26.382 39.6032 26.46 39.5227 26.5705 39.5631C26.7304 39.6216 26.7137 39.8358 26.5341 39.9569C26.3582 40.0757 26.2708 40.0903 26.2708 40.0903C26.2708 40.0903 26.195 40.0455 26.073 39.8717C25.9486 39.6944 26.0095 39.4885 26.1798 39.4909Z" fill="white"/>
</g>
<defs>
<filter id="filter0_f" x="25.4548" y="38.8698" width="1.77487" height="1.77487" filterUnits="userSpaceOnUse" color-interpolation-filters="sRGB">
<feFlood flood-opacity="0" result="BackgroundImageFix"/>
<feBlend mode="normal" in="SourceGraphic" in2="BackgroundImageFix" result="shape"/>
<feGaussianBlur stdDeviation="0.0506904" result="effect1_foregroundBlur"/>
</filter>
<linearGradient id="paint0_linear" x1="14.7642" y1="76.2346" x2="85.1863" y2="49.7624" gradientUnits="userSpaceOnUse">
<stop stop-color="#162746"/>
<stop offset="0.927083" stop-color="#4048FF"/>
</linearGradient>
<linearGradient id="paint1_linear" x1="32.9397" y1="34.9559" x2="23.6611" y2="48.3351" gradientUnits="userSpaceOnUse">
<stop stop-color="#DB2026"/>
<stop offset="0.505208" stop-color="#4080FF"/>
<stop offset="1" stop-color="#DB2026" stop-opacity="0"/>
</linearGradient>
<linearGradient id="paint2_linear" x1="20.3305" y1="38.4809" x2="40.2304" y2="38.149" gradientUnits="userSpaceOnUse">
<stop stop-color="#0B1D69"/>
<stop offset="1" stop-color="#4080FF"/>
</linearGradient>
<linearGradient id="paint3_linear" x1="29.6842" y1="33.639" x2="38.5261" y2="37.4622" gradientUnits="userSpaceOnUse">
<stop stop-color="#0B1D69"/>
<stop offset="1" stop-color="#4080FF"/>
</linearGradient>
<linearGradient id="paint4_linear" x1="41.0587" y1="15.4865" x2="52.8059" y2="20.9793" gradientUnits="userSpaceOnUse">
<stop stop-color="#0B1D69"/>
<stop offset="1" stop-color="#4080FF"/>
</linearGradient>
<linearGradient id="paint5_linear" x1="37.7963" y1="24.9529" x2="43.1959" y2="27.4845" gradientUnits="userSpaceOnUse">
<stop stop-color="#0B1D69"/>
<stop offset="1" stop-color="#4080FF"/>
</linearGradient>
<linearGradient id="paint6_linear" x1="36.9469" y1="38.3578" x2="40.4827" y2="40.317" gradientUnits="userSpaceOnUse">
<stop stop-color="#0B1D69"/>
<stop offset="1" stop-color="#4080FF"/>
</linearGradient>
<linearGradient id="paint7_linear" x1="26.6683" y1="31.3424" x2="31.4124" y2="33.9297" gradientUnits="userSpaceOnUse">
<stop stop-color="#0B1D69"/>
<stop offset="1" stop-color="#4080FF"/>
</linearGradient>
</defs>
</svg>
