<svg width="96" height="98" viewBox="0 0 96 98" fill="none" xmlns="http://www.w3.org/2000/svg">
<path d="M95.1708 48.744C95.2197 38.4985 92.0875 28.5009 86.2229 20.1839C80.3583 11.867 72.0625 5.65771 62.5245 2.44604L47.6055 48.5166L95.1708 48.744Z" fill="#55ACEE"/>
<path d="M62.486 2.43218C52.9453 -0.771417 42.6547 -0.811895 33.0889 2.31655C23.5231 5.445 15.1733 11.5818 9.23626 19.8473L47.6044 48.5153L62.486 2.43218Z" fill="#FF0000"/>
<path d="M62.0969 94.723C71.6643 91.5996 80.0172 85.4672 85.9584 77.2048C91.8997 68.9424 95.1243 58.9741 95.1701 48.7287L47.6047 48.5166L62.0969 94.723Z" fill="#1877F2"/>
<path d="M8.99554 76.8582C14.8622 85.1737 23.1595 91.3808 32.6983 94.59C42.2372 97.7992 52.5278 97.8458 62.0954 94.723L47.606 48.5156L8.99554 76.8582Z" fill="#8621B0"/>
<path d="M9.23123 19.8565C3.29592 28.1233 0.0784667 38.094 0.040022 48.3395C0.00157732 58.5849 3.14411 68.5792 9.01722 76.8899L47.6055 48.516L9.23123 19.8565Z" fill="black"/>
<path fill-rule="evenodd" clip-rule="evenodd" d="M45.6211 15.327C46.402 15.5412 47.017 16.1727 47.2258 16.9745C47.605 18.4278 47.605 21.46 47.605 21.46C47.605 21.46 47.605 24.4921 47.2258 25.9454C47.017 26.7473 46.402 27.3787 45.6211 27.5931C44.2058 27.9824 38.5303 27.9824 38.5303 27.9824C38.5303 27.9824 32.8548 27.9824 31.4394 27.5931C30.6585 27.3787 30.0435 26.7473 29.8347 25.9454C29.4556 24.4921 29.4556 21.46 29.4556 21.46C29.4556 21.46 29.4556 18.4278 29.8347 16.9745C30.0435 16.1727 30.6585 15.5412 31.4394 15.327C32.8548 14.9375 38.5303 14.9375 38.5303 14.9375C38.5303 14.9375 44.2058 14.9375 45.6211 15.327ZM36.8282 18.9059L36.8282 24.5776L41.3656 21.7419L36.8282 18.9059Z" fill="white"/>
<path fill-rule="evenodd" clip-rule="evenodd" d="M71.2667 29.0135L71.3014 29.5749L70.7237 29.5062C68.6207 29.2426 66.7835 28.3489 65.2236 26.848L64.461 26.1032L64.2646 26.6532C63.8486 27.8792 64.1144 29.1739 64.981 30.0447C65.4431 30.5259 65.3392 30.5946 64.5419 30.3082C64.2646 30.2165 64.0219 30.1478 63.9988 30.1822C63.9179 30.2624 64.1952 31.305 64.4148 31.7175C64.7152 32.2904 65.3276 32.8518 65.9978 33.1841L66.564 33.4476L65.8938 33.4591C65.2467 33.4591 65.2236 33.4705 65.2929 33.7112C65.524 34.4559 66.4369 35.2465 67.4537 35.5902L68.1701 35.8308L67.5461 36.1975C66.6217 36.7245 65.5356 37.0224 64.4494 37.0454C63.9295 37.0568 63.502 37.1026 63.502 37.137C63.502 37.2516 64.9116 37.8932 65.732 38.1453C68.1932 38.8901 71.1165 38.5692 73.3119 37.2974C74.8718 36.3923 76.4317 34.5934 77.1597 32.8518C77.5525 31.9237 77.9454 30.228 77.9454 29.4145C77.9454 28.8874 77.98 28.8187 78.6271 28.1885C79.0084 27.8219 79.3666 27.4209 79.4359 27.3063C79.5515 27.0886 79.5399 27.0886 78.9506 27.2834C77.9685 27.6271 77.8298 27.5813 78.3151 27.0657C78.6733 26.699 79.1008 26.0345 79.1008 25.8397C79.1008 25.8053 78.9275 25.8626 78.7311 25.9657C78.5231 26.0803 78.0609 26.2522 77.7143 26.3553L77.0903 26.5501L76.5241 26.172C76.2122 25.9657 75.7731 25.7366 75.542 25.6678C74.9527 25.5074 74.0514 25.5303 73.5199 25.7136C72.0756 26.2292 71.1627 27.5583 71.2667 29.0135Z" fill="white"/>
<path fill-rule="evenodd" clip-rule="evenodd" d="M63.502 65.4689C63.502 69.1853 66.2011 72.2756 69.7312 72.9023L69.7312 67.5034L67.8624 67.5034L67.8624 65.4272L69.7312 65.4272L69.7312 63.7659C69.7312 61.8971 70.9353 60.8593 72.6384 60.8593C73.1778 60.8593 73.7596 60.9422 74.2991 61.025L74.2991 62.9355L73.3441 62.9355C72.4303 62.9355 72.2229 63.3921 72.2229 63.9739L72.2229 65.4272L74.2162 65.4272L73.8842 67.5034L72.2229 67.5034L72.2229 72.9023C75.753 72.2756 78.4521 69.1859 78.4521 65.4689C78.4521 61.3346 75.0883 57.9521 70.977 57.9521C66.8657 57.9521 63.502 61.3346 63.502 65.4689Z" fill="white"/>
<path fill-rule="evenodd" clip-rule="evenodd" d="M20.4592 42.999C20.7093 45.1497 21.9096 46.4318 23.9966 46.5683L23.9966 48.9871C22.7871 49.1054 21.7277 48.7098 20.4956 47.9641L20.4956 52.4882C20.4956 58.2353 14.2301 60.0313 11.7112 55.9119C10.0925 53.2611 11.0837 48.6098 16.2761 48.4233L16.2761 50.9741C15.8806 51.0377 15.4577 51.1378 15.0712 51.2696C13.9163 51.6607 13.2616 52.3927 13.4435 53.684C13.7936 56.1574 18.3313 56.8895 17.9539 52.0562L17.9539 43.0036L20.4592 43.0036L20.4592 42.999Z" fill="white"/>
<path fill-rule="evenodd" clip-rule="evenodd" d="M36.5974 69.1602C34.5674 69.1602 34.3126 69.169 33.5153 69.2053C32.7196 69.2418 32.1764 69.3677 31.7012 69.5526C31.2095 69.7435 30.7925 69.9989 30.377 70.4145C29.9613 70.83 29.7059 71.247 29.5143 71.7385C29.329 72.2139 29.2029 72.7572 29.1671 73.5526C29.1314 74.3499 29.1221 74.6049 29.1221 76.6349C29.1221 78.6649 29.1311 78.9189 29.1672 79.7162C29.2038 80.5119 29.3298 81.0551 29.5145 81.5303C29.7056 82.022 29.961 82.439 30.3766 82.8545C30.7919 83.2702 31.2089 83.5262 31.7002 83.7172C32.1758 83.902 32.7191 84.028 33.5147 84.0644C34.312 84.1007 34.5666 84.1096 36.5965 84.1096C38.6266 84.1096 38.8806 84.1007 39.6779 84.0644C40.4737 84.028 41.0175 83.902 41.493 83.7172C41.9845 83.5262 42.4009 83.2702 42.8162 82.8545C43.232 82.439 43.4874 82.022 43.6789 81.5305C43.8627 81.0551 43.9888 80.5118 44.0262 79.7163C44.062 78.919 44.0713 78.6649 44.0713 76.6349C44.0713 74.6049 44.062 74.3501 44.0262 73.5528C43.9888 72.7571 43.8627 72.2139 43.6789 71.7386C43.4874 71.247 43.232 70.83 42.8162 70.4145C42.4004 69.9987 41.9847 69.7433 41.4926 69.5526C41.0161 69.3677 40.4726 69.2418 39.6768 69.2053C38.8795 69.169 38.6257 69.1602 36.5951 69.1602L36.5974 69.1602ZM35.925 70.5078C36.124 70.5075 36.3461 70.5078 36.5956 70.5078C38.5913 70.5078 38.8279 70.515 39.616 70.5508C40.3448 70.5842 40.7403 70.7059 41.0038 70.8082C41.3526 70.9437 41.6013 71.1057 41.8627 71.3673C42.1244 71.6289 42.2863 71.8781 42.4221 72.2269C42.5244 72.49 42.6463 72.8856 42.6795 73.6144C42.7153 74.4023 42.7231 74.639 42.7231 76.6338C42.7231 78.6287 42.7153 78.8654 42.6795 79.6533C42.6462 80.3821 42.5244 80.7776 42.4221 81.0408C42.2866 81.3896 42.1244 81.638 41.8627 81.8995C41.6011 82.1611 41.3528 82.323 41.0038 82.4585C40.7406 82.5613 40.3448 82.6828 39.616 82.7161C38.828 82.7519 38.5913 82.7597 36.5956 82.7597C34.5997 82.7597 34.3631 82.7519 33.5752 82.7161C32.8464 82.6824 32.4508 82.5607 32.1872 82.4584C31.8384 82.3229 31.5892 82.1609 31.3276 81.8993C31.066 81.6377 30.904 81.3892 30.7682 81.0402C30.6659 80.777 30.544 80.3815 30.5108 79.6527C30.475 78.8647 30.4679 78.628 30.4679 76.632C30.4679 74.6359 30.475 74.4005 30.5108 73.6125C30.5442 72.8837 30.6659 72.4882 30.7682 72.2247C30.9037 71.8759 31.066 71.6267 31.3276 71.3651C31.5892 71.1035 31.8384 70.9415 32.1872 70.8057C32.4507 70.703 32.8464 70.5815 33.5752 70.548C34.2647 70.5169 34.5319 70.5075 35.925 70.506L35.925 70.5078ZM40.5885 71.7487C40.0933 71.7487 39.6916 72.15 39.6916 72.6453C39.6916 73.1405 40.0933 73.5423 40.5885 73.5423C41.0837 73.5423 41.4855 73.1405 41.4855 72.6453C41.4855 72.1501 41.0837 71.7484 40.5885 71.7484L40.5885 71.7487ZM36.5987 72.7973C34.4788 72.7973 32.7601 74.516 32.7601 76.6359C32.7601 78.7557 34.4788 80.4737 36.5987 80.4737C38.7185 80.4737 40.4366 78.7557 40.4366 76.6359C40.4366 74.516 38.7184 72.7973 36.5985 72.7973L36.5987 72.7973ZM36.597 74.1427C37.973 74.1427 39.0886 75.2581 39.0886 76.6342C39.0886 78.0102 37.973 79.1258 36.597 79.1258C35.2209 79.1258 34.1055 78.0102 34.1055 76.6342C34.1055 75.2581 35.2209 74.1427 36.597 74.1427V74.1427Z" fill="white"/>
<ellipse cx="47.6957" cy="48.375" rx="47.6957" ry="48.375" fill="url(#paint0_radial_4745_52109)"/>
<defs>
<radialGradient id="paint0_radial_4745_52109" cx="0" cy="0" r="1" gradientUnits="userSpaceOnUse" gradientTransform="translate(47.6957 48.375) rotate(90) scale(66.4966 65.5627)">
<stop offset="0.469545" stop-color="#1F2337" stop-opacity="0"/>
<stop offset="1" stop-color="#1F2337"/>
</radialGradient>
</defs>
</svg>
