<svg width="97" height="98" viewBox="0 0 97 98" fill="none" xmlns="http://www.w3.org/2000/svg">
<circle cx="48.0234" cy="48.7754" r="48" fill="#D6D6E8"/>
<path fill-rule="evenodd" clip-rule="evenodd" d="M48.0215 1.25195V49.252H0.0214844C0.0214844 22.7423 21.5118 1.25195 48.0215 1.25195Z" fill="#FF0000"/>
<path fill-rule="evenodd" clip-rule="evenodd" d="M48.0215 97.252V49.252H0.0214844C0.0214844 75.7616 21.5118 97.252 48.0215 97.252Z" fill="#1967FF"/>
<path fill-rule="evenodd" clip-rule="evenodd" d="M48.4258 1.25195V49.252H96.4258C96.4258 22.7423 74.9354 1.25195 48.4258 1.25195Z" fill="#55ACEE"/>
<path fill-rule="evenodd" clip-rule="evenodd" d="M48.4258 97.252V49.252H96.4258C96.4258 75.7616 74.9354 97.252 48.4258 97.252Z" fill="#8621B0"/>
<circle cx="48.0215" cy="48.7754" r="48" fill="url(#paint0_radial)"/>
<g opacity="0.9">
<path fill-rule="evenodd" clip-rule="evenodd" d="M37.2121 23.638C38.0957 23.8804 38.7917 24.5949 39.0278 25.5022C39.457 27.1467 39.457 30.5778 39.457 30.5778C39.457 30.5778 39.457 34.0088 39.0278 35.6533C38.7917 36.5606 38.0957 37.2751 37.2121 37.5177C35.6106 37.9583 29.1885 37.9583 29.1885 37.9583C29.1885 37.9583 22.7663 37.9583 21.1648 37.5177C20.2811 37.2751 19.5852 36.5606 19.349 35.6533C18.9199 34.0088 18.9199 30.5778 18.9199 30.5778C18.9199 30.5778 18.9199 27.1467 19.349 25.5022C19.5852 24.5949 20.2811 23.8804 21.1648 23.638C22.7663 23.1973 29.1885 23.1973 29.1885 23.1973C29.1885 23.1973 35.6106 23.1973 37.2121 23.638ZM27.2637 27.6875V34.1053L32.3979 30.8965L27.2637 27.6875Z" fill="white"/>
</g>
<path opacity="0.9" fill-rule="evenodd" clip-rule="evenodd" d="M66.286 57.1016C63.6322 57.1016 63.2992 57.1132 62.2569 57.1606C61.2166 57.2082 60.5066 57.3729 59.8853 57.6146C59.2426 57.8642 58.6974 58.198 58.1543 58.7413C57.6107 59.2845 57.2769 59.8297 57.0265 60.4721C56.7842 61.0936 56.6193 61.8039 56.5725 62.8438C56.5259 63.8861 56.5137 64.2193 56.5137 66.8731C56.5137 69.5269 56.5255 69.8589 56.5727 70.9012C56.6205 71.9415 56.7852 72.6516 57.0267 73.2729C57.2765 73.9155 57.6103 74.4607 58.1537 75.0038C58.6966 75.5474 59.2418 75.8821 59.884 76.1316C60.5058 76.3733 61.216 76.538 62.2561 76.5856C63.2984 76.633 63.6312 76.6447 66.2848 76.6447C68.9388 76.6447 69.2708 76.633 70.3131 76.5856C71.3534 76.538 72.0643 76.3733 72.686 76.1316C73.3285 75.8821 73.8728 75.5474 74.4158 75.0038C74.9593 74.4607 75.2932 73.9155 75.5436 73.2731C75.7838 72.6516 75.9487 71.9413 75.9975 70.9014C76.0443 69.8591 76.0566 69.5269 76.0566 66.8731C76.0566 64.2193 76.0443 63.8863 75.9975 62.844C75.9487 61.8037 75.7838 61.0936 75.5436 60.4723C75.2932 59.8297 74.9593 59.2845 74.4158 58.7413C73.8722 58.1978 73.3287 57.8639 72.6854 57.6146C72.0624 57.3729 71.352 57.2082 70.3117 57.1606C69.2694 57.1132 68.9376 57.1016 66.283 57.1016H66.286ZM65.4079 58.8636C65.6681 58.8632 65.9584 58.8636 66.2845 58.8636C68.8935 58.8636 69.2027 58.873 70.233 58.9198C71.1857 58.9633 71.7028 59.1225 72.0473 59.2563C72.5033 59.4334 72.8284 59.6451 73.1702 59.9871C73.5122 60.3291 73.7239 60.6548 73.9014 61.1108C74.0352 61.4549 74.1946 61.972 74.2379 62.9247C74.2847 63.9548 74.2949 64.2642 74.2949 66.872C74.2949 69.4798 74.2847 69.7892 74.2379 70.8193C74.1943 71.772 74.0352 72.2891 73.9014 72.6331C73.7243 73.0891 73.5122 73.4138 73.1702 73.7556C72.8282 74.0976 72.5035 74.3094 72.0473 74.4865C71.7032 74.6208 71.1857 74.7796 70.233 74.8232C69.2029 74.87 68.8935 74.8802 66.2845 74.8802C63.6753 74.8802 63.3661 74.87 62.336 74.8232C61.3832 74.7792 60.8662 74.62 60.5215 74.4863C60.0655 74.3091 59.7398 74.0974 59.3978 73.7554C59.0558 73.4134 58.8441 73.0885 58.6666 72.6323C58.5328 72.2883 58.3734 71.7712 58.33 70.8185C58.2832 69.7884 58.2739 69.479 58.2739 66.8695C58.2739 64.2601 58.2832 63.9523 58.33 62.9222C58.3736 61.9695 58.5328 61.4524 58.6666 61.108C58.8437 60.652 59.0558 60.3263 59.3978 59.9843C59.7398 59.6423 60.0655 59.4305 60.5215 59.253C60.866 59.1187 61.3832 58.9599 62.336 58.9161C63.2374 58.8754 63.5867 58.8632 65.4079 58.8611V58.8636ZM71.5041 60.4846C70.8568 60.4846 70.3316 61.0092 70.3316 61.6568C70.3316 62.3041 70.8568 62.8294 71.5041 62.8294C72.1515 62.8294 72.6767 62.3041 72.6767 61.6568C72.6767 61.0094 72.1515 60.4842 71.5041 60.4842V60.4846ZM66.2876 61.8564C63.5164 61.8564 61.2695 64.1032 61.2695 66.8745C61.2695 69.6457 63.5164 71.8915 66.2876 71.8915C69.0589 71.8915 71.3049 69.6457 71.3049 66.8745C71.3049 64.1032 69.0587 61.8564 66.2874 61.8564H66.2876ZM66.2856 63.6153C68.0844 63.6153 69.5428 65.0735 69.5428 66.8724C69.5428 68.6712 68.0844 70.1296 66.2856 70.1296C64.4866 70.1296 63.0284 68.6712 63.0284 66.8724C63.0284 65.0735 64.4866 63.6153 66.2856 63.6153Z" fill="white"/>
<path opacity="0.9" fill-rule="evenodd" clip-rule="evenodd" d="M66.8484 26.5352L66.8946 27.2825L66.1256 27.191C63.3266 26.8402 60.8813 25.6507 58.8052 23.653L57.7901 22.6617L57.5287 23.3937C56.975 25.0255 57.3288 26.7487 58.4822 27.9077C59.0974 28.5482 58.959 28.6397 57.8978 28.2585C57.5287 28.1365 57.2057 28.045 57.175 28.0907C57.0673 28.1975 57.4364 29.5852 57.7286 30.1342C58.1285 30.8967 58.9436 31.644 59.8356 32.0862L60.5891 32.437L59.6972 32.4523C58.8359 32.4523 58.8052 32.4675 58.8974 32.7878C59.205 33.779 60.42 34.8313 61.7733 35.2888L62.7268 35.609L61.8964 36.097C60.666 36.7985 59.2204 37.195 57.7748 37.2255C57.0827 37.2408 56.5137 37.3018 56.5137 37.3475C56.5137 37.5 58.3899 38.354 59.4818 38.6895C62.7576 39.6808 66.6485 39.2538 69.5705 37.561C71.6467 36.3563 73.7229 33.962 74.6918 31.644C75.2147 30.4087 75.7376 28.1517 75.7376 27.069C75.7376 26.3675 75.7837 26.276 76.6449 25.4372C77.1525 24.9492 77.6292 24.4155 77.7215 24.263C77.8753 23.9732 77.8599 23.9732 77.0756 24.2325C75.7683 24.69 75.5838 24.629 76.2297 23.9427C76.7065 23.4547 77.2755 22.5702 77.2755 22.311C77.2755 22.2652 77.0448 22.3415 76.7834 22.4787C76.5065 22.6312 75.8914 22.86 75.43 22.9972L74.5995 23.2565L73.8459 22.7532C73.4307 22.4787 72.8463 22.1737 72.5387 22.0822C71.7544 21.8687 70.5548 21.8992 69.8474 22.1432C67.925 22.8295 66.71 24.5985 66.8484 26.5352Z" fill="white"/>
<g opacity="0.9">
<path fill-rule="evenodd" clip-rule="evenodd" d="M30.8238 76.4793V66.8713H33.7555L34.144 63.5604H30.8238L30.8288 61.9032C30.8288 61.0397 30.9195 60.577 32.2905 60.577H34.1232V57.2656H31.1912C27.6693 57.2656 26.4297 58.8718 26.4297 61.5729V63.5608H24.2344V66.8717H26.4297V76.4793H30.8238Z" fill="white"/>
</g>
<defs>
<radialGradient id="paint0_radial" cx="0" cy="0" r="1" gradientUnits="userSpaceOnUse" gradientTransform="translate(48.0215 48.7754) rotate(90) scale(65.9811)">
<stop stop-color="#1F2337" stop-opacity="0"/>
<stop offset="1" stop-color="#1F2337"/>
</radialGradient>
</defs>
</svg>
