<svg width="25" height="25" viewBox="0 0 25 25" fill="none" xmlns="http://www.w3.org/2000/svg">
<path fill-rule="evenodd" clip-rule="evenodd" d="M20.3047 12.3699C20.3047 8.24602 16.9285 4.86987 12.8047 4.86987C10.7473 4.86987 8.84931 5.80595 7.04751 6.80695L6.71782 6.99011L5.30469 5.57698V10.8189L9.77979 10.3838L8.18129 8.39193L8.39359 8.08527C9.39497 6.63884 10.9552 5.86987 12.8047 5.86987C16.3808 5.86987 19.3047 8.79373 19.3047 12.3699C19.3047 15.946 16.3808 18.8699 12.8047 18.8699C10.078 18.8699 7.8 17.1565 6.50739 14.8699H5.5416C6.83068 17.7663 9.59261 19.8699 12.8047 19.8699C16.9285 19.8699 20.3047 16.4937 20.3047 12.3699Z" fill="white"/>
<path fill-rule="evenodd" clip-rule="evenodd" d="M14.2774 9.31714H13.2842V12.7717H11.3311V13.661H14.2773V12.9926H14.2774V9.31714Z" fill="white"/>
</svg>
