<svg width="9" height="9" viewBox="0 0 9 9" fill="none" xmlns="http://www.w3.org/2000/svg">
<path fill-rule="evenodd" clip-rule="evenodd" d="M4.84711 2.87313C4.824 2.7649 4.81185 2.65262 4.81185 2.5375C4.81185 1.65384 5.52819 0.9375 6.41185 0.9375C7.2955 0.9375 8.01185 1.65384 8.01185 2.5375C8.01185 3.42116 7.2955 4.1375 6.41185 4.1375C5.93043 4.1375 5.49867 3.92488 5.20536 3.58843L3.17664 4.60279C3.19962 4.71075 3.21172 4.82275 3.21172 4.93756C3.21172 5.05254 3.19959 5.16469 3.17654 5.2728L5.20505 6.28705C5.49837 5.95039 5.93026 5.73763 6.41185 5.73763C7.2955 5.73763 8.01185 6.45397 8.01185 7.33763C8.01185 8.22128 7.2955 8.93763 6.41185 8.93763C5.52819 8.93763 4.81185 8.22128 4.81185 7.33763C4.81185 7.22267 4.82397 7.11054 4.84701 7.00246L2.81847 5.98819C2.52515 6.32482 2.09328 6.53756 1.61172 6.53756C0.728063 6.53756 0.0117188 5.82122 0.0117188 4.93756C0.0117188 4.05391 0.728063 3.33756 1.61172 3.33756C2.09345 3.33756 2.52545 3.55046 2.81878 3.88729L4.84711 2.87313ZM6.41694 3.34607C6.86788 3.34607 7.23344 2.98051 7.23344 2.52957C7.23344 2.07863 6.86788 1.71307 6.41694 1.71307C5.966 1.71307 5.60044 2.07863 5.60044 2.52957C5.60044 2.98051 5.966 3.34607 6.41694 3.34607ZM7.22041 7.35521C7.22041 7.80615 6.85486 8.17171 6.40391 8.17171C5.95297 8.17171 5.58741 7.80615 5.58741 7.35521C5.58741 6.90427 5.95297 6.53871 6.40391 6.53871C6.85486 6.53871 7.22041 6.90427 7.22041 7.35521ZM1.60432 5.75411C2.05526 5.75411 2.42082 5.38855 2.42082 4.93761C2.42082 4.48667 2.05526 4.12111 1.60432 4.12111C1.15338 4.12111 0.787819 4.48667 0.787819 4.93761C0.787819 5.38855 1.15338 5.75411 1.60432 5.75411Z" fill="#FFA318"/>
</svg>
