<svg width="97" height="97" viewBox="0 0 97 97" fill="none" xmlns="http://www.w3.org/2000/svg">
<circle cx="48.2812" cy="48.1313" r="48" fill="#00CC9E"/>
<path fill-rule="evenodd" clip-rule="evenodd" d="M26.503 32.9351L29.8451 46.2307H39.597C40.6465 46.2307 41.4972 47.0814 41.4972 48.1308C41.4972 49.1802 40.6465 50.0309 39.597 50.0309H28.3635C27.4925 50.0309 26.733 49.4387 26.5207 48.594L22.7684 33.6666C22.7124 33.457 22.678 33.2422 22.666 33.0256C22.6651 33.0098 22.6645 32.994 22.664 32.9782C22.5752 30.068 25.6745 28.3222 28.1592 29.514L63.3878 46.4177C64.0467 46.7338 64.4659 47.3999 64.4659 48.1308C64.4659 48.8617 64.0467 49.5277 63.3878 49.8439L28.1609 66.7468C25.6965 67.9318 22.647 66.2281 22.6631 63.3762C22.6632 63.3595 22.6635 63.3428 22.6641 63.3261C22.6734 63.0336 22.7235 62.7437 22.8127 62.465L25.5949 53.2803C25.8991 52.276 26.9599 51.7084 27.9643 52.0126C28.9686 52.3169 29.5362 53.3777 29.2319 54.382L26.5257 63.3163L58.1735 48.1308L26.5156 32.9405C26.5156 32.9404 26.5157 32.9405 26.5156 32.9405C26.5109 32.9382 26.5065 32.9364 26.503 32.9351Z" fill="white"/>
<path fill-rule="evenodd" clip-rule="evenodd" d="M75.1791 53.9289C76.0291 54.6344 76.1461 55.8953 75.4406 56.7452L65.7618 68.4055C65.3987 68.843 64.8666 69.1052 64.2985 69.1267C63.7305 69.1482 63.1801 68.927 62.7849 68.5182L56.5406 62.0589C55.7729 61.2647 55.7943 59.9986 56.5884 59.2308C57.3826 58.4631 58.6487 58.4846 59.4165 59.2787L64.1095 64.1334L72.3628 54.1904C73.0683 53.3405 74.3292 53.2234 75.1791 53.9289Z" fill="white"/>
</svg>
