<svg width="29" height="29" viewBox="0 0 29 29" fill="none" xmlns="http://www.w3.org/2000/svg">
<path fill-rule="evenodd" clip-rule="evenodd" d="M19.4435 8.78133C19.702 8.5251 20.051 8.38089 20.4149 8.37989C20.7789 8.37888 21.1286 8.52116 21.3885 8.77596C21.6484 9.03076 21.7976 9.37761 21.8038 9.74152C21.81 10.1054 21.6727 10.4572 21.4217 10.7207L14.0485 19.9372C13.9218 20.0736 13.7688 20.1832 13.5988 20.2592C13.4288 20.3352 13.2452 20.3762 13.0589 20.3796C12.8727 20.3831 12.6877 20.349 12.515 20.2793C12.3423 20.2096 12.1854 20.1058 12.0537 19.9741L7.16843 15.087C7.03233 14.9601 6.92317 14.8072 6.84746 14.6373C6.77175 14.4674 6.73104 14.2839 6.72775 14.0979C6.72447 13.9119 6.75869 13.7272 6.82836 13.5547C6.89803 13.3822 7.00173 13.2255 7.13327 13.094C7.26481 12.9624 7.4215 12.8587 7.59398 12.7891C7.76647 12.7194 7.95122 12.6852 8.13722 12.6885C8.32322 12.6917 8.50665 12.7325 8.67657 12.8082C8.84649 12.8839 8.99942 12.993 9.12624 13.1291L12.9938 16.9949L19.4084 8.82196C19.4199 8.80765 19.4322 8.79408 19.4454 8.78133H19.4435Z" fill="white"/>
<circle cx="14.2656" cy="14.3799" r="13" stroke="white" stroke-width="2"/>
</svg>
