<svg width="55" height="41" viewBox="0 0 55 41" fill="none" xmlns="http://www.w3.org/2000/svg">
<path fill-rule="evenodd" clip-rule="evenodd" d="M4.79305 4.01489L8.13513 17.3105H17.8871C18.9365 17.3105 19.7872 18.1612 19.7872 19.2106C19.7872 20.26 18.9365 21.1108 17.8871 21.1108H6.65352C5.78252 21.1108 5.02305 20.5186 4.81072 19.6738L1.05845 4.7464C1.0024 4.53685 0.96808 4.32206 0.956052 4.10543C0.955176 4.08964 0.954496 4.07385 0.954014 4.05804C0.865214 1.14784 3.96451 -0.597953 6.44921 0.593832L41.6778 17.4975C42.3368 17.8137 42.756 18.4798 42.756 19.2106C42.756 19.9415 42.3368 20.6076 41.6778 20.9237L6.45092 37.8266C3.98651 39.0117 0.937048 37.3079 0.95316 34.456C0.953255 34.4393 0.953568 34.4227 0.954102 34.406C0.963465 34.1134 1.01352 33.8236 1.10277 33.5449L3.88492 24.3602C4.18915 23.3558 5.24996 22.7882 6.25431 23.0925C7.25865 23.3967 7.82621 24.4575 7.52198 25.4619L4.81569 34.3961L36.4635 19.2106L4.80569 4.02032C4.80561 4.02028 4.80577 4.02036 4.80569 4.02032C4.80095 4.01805 4.79658 4.01621 4.79305 4.01489Z" fill="white"/>
<path fill-rule="evenodd" clip-rule="evenodd" d="M53.4692 25.0087C54.3191 25.7142 54.4362 26.9751 53.7307 27.8251L44.0518 39.4854C43.6887 39.9228 43.1567 40.185 42.5886 40.2065C42.0205 40.2281 41.4701 40.0068 41.075 39.5981L34.8306 33.1387C34.0629 32.3446 34.0843 31.0784 34.8785 30.3107C35.6726 29.543 36.9388 29.5644 37.7065 30.3585L42.3996 35.2132L50.6529 25.2703C51.3584 24.4203 52.6193 24.3033 53.4692 25.0087Z" fill="white"/>
</svg>
