<svg width="29" height="29" viewBox="0 0 29 29" fill="none" xmlns="http://www.w3.org/2000/svg">
<path fill-rule="evenodd" clip-rule="evenodd" d="M19.736 8.53572C19.9945 8.27949 20.3434 8.13529 20.7074 8.13428C21.0714 8.13328 21.4211 8.27556 21.681 8.53036C21.9409 8.78515 22.0901 9.132 22.0963 9.49591C22.1025 9.85982 21.9652 10.2116 21.7141 10.4751L14.341 19.6915C14.2142 19.828 14.0613 19.9376 13.8913 20.0136C13.7212 20.0896 13.5376 20.1306 13.3514 20.134C13.1652 20.1375 12.9802 20.1033 12.8075 20.0337C12.6348 19.964 12.4779 19.8602 12.3462 19.7285L7.46091 14.8413C7.32481 14.7145 7.21565 14.5616 7.13994 14.3917C7.06423 14.2218 7.02352 14.0383 7.02024 13.8523C7.01695 13.6663 7.05117 13.4816 7.12084 13.3091C7.19051 13.1366 7.29421 12.9799 7.42575 12.8484C7.55729 12.7168 7.71398 12.6131 7.88646 12.5435C8.05895 12.4738 8.2437 12.4396 8.4297 12.4429C8.6157 12.4461 8.79913 12.4869 8.96905 12.5626C9.13897 12.6383 9.2919 12.7474 9.41872 12.8835L13.2863 16.7493L19.7009 8.57636C19.7124 8.56205 19.7247 8.54848 19.7379 8.53572H19.736Z" fill="#00CC9E"/>
<circle cx="14.5581" cy="14.1343" r="13" stroke="#00CC9E" stroke-width="2"/>
</svg>
