<svg width="29" height="29" viewBox="0 0 29 29" fill="none" xmlns="http://www.w3.org/2000/svg">
<circle cx="14.4417" cy="14.0587" r="13" stroke="#00CC9E" stroke-width="2"/>
<path fill-rule="evenodd" clip-rule="evenodd" d="M18.5629 9.60255C18.7686 9.3986 19.0463 9.28382 19.336 9.28302C19.6257 9.28222 19.9041 9.39547 20.111 9.59828C20.3178 9.80108 20.4366 10.0772 20.4415 10.3668C20.4464 10.6565 20.3372 10.9364 20.1373 11.1462L14.2687 18.482C14.1678 18.5906 14.0461 18.6778 13.9108 18.7383C13.7755 18.7988 13.6293 18.8314 13.4811 18.8342C13.3329 18.8369 13.1856 18.8097 13.0482 18.7543C12.9107 18.6988 12.7858 18.6162 12.681 18.5114L8.79258 14.6215C8.68425 14.5205 8.59736 14.3988 8.5371 14.2636C8.47684 14.1283 8.44443 13.9823 8.44182 13.8343C8.43921 13.6862 8.46644 13.5392 8.5219 13.4019C8.57735 13.2646 8.65989 13.1399 8.76459 13.0352C8.86929 12.9305 8.994 12.8479 9.13129 12.7925C9.26858 12.737 9.41563 12.7098 9.56368 12.7124C9.71172 12.715 9.85772 12.7474 9.99297 12.8077C10.1282 12.8679 10.2499 12.9548 10.3509 13.0632L13.4293 16.1401L18.5349 9.63489C18.544 9.6235 18.5539 9.6127 18.5643 9.60255H18.5629Z" fill="#00CC9E"/>
</svg>
