<svg width="22" height="20" viewBox="0 0 22 20" fill="none" xmlns="http://www.w3.org/2000/svg">
<path d="M1.75 10C1.75 5.44365 5.44365 1.75 10 1.75C11.5039 1.75 12.9118 2.15173 14.1245 2.85324C14.483 3.06065 14.9418 2.93813 15.1492 2.57958C15.3566 2.22104 15.2341 1.76224 14.8755 1.55484C13.4407 0.724814 11.7747 0.25 10 0.25C4.61522 0.25 0.25 4.61522 0.25 10C0.25 15.3848 4.61522 19.75 10 19.75C15.3848 19.75 19.75 15.3848 19.75 10C19.75 9.58579 19.4142 9.25 19 9.25C18.5858 9.25 18.25 9.58579 18.25 10C18.25 14.5563 14.5563 18.25 10 18.25C5.44365 18.25 1.75 14.5563 1.75 10Z" fill="#00CC9E"/>
<path d="M21.0303 3.03033C21.3232 2.73744 21.3232 2.26256 21.0303 1.96967C20.7374 1.67678 20.2626 1.67678 19.9697 1.96967L10 11.9393L6.03033 7.96967C5.73744 7.67678 5.26256 7.67678 4.96967 7.96967C4.67678 8.26256 4.67678 8.73744 4.96967 9.03033L9.46967 13.5303C9.76256 13.8232 10.2374 13.8232 10.5303 13.5303L21.0303 3.03033Z" fill="#00CC9E"/>
</svg>
