<svg width="53" height="53" viewBox="0 0 53 53" fill="none" xmlns="http://www.w3.org/2000/svg">
<g filter="url(#filter0_d)">
<rect x="2.68262" y="0.996094" width="48" height="48" rx="24" fill="white"/>
</g>
<path d="M23.6826 15.9961V16.9961H18.6826V18.9961H19.6826V31.9961C19.6826 32.5265 19.8933 33.0352 20.2684 33.4103C20.6435 33.7854 21.1522 33.9961 21.6826 33.9961H31.6826C32.213 33.9961 32.7218 33.7854 33.0968 33.4103C33.4719 33.0352 33.6826 32.5265 33.6826 31.9961V18.9961H34.6826V16.9961H29.6826V15.9961H23.6826ZM21.6826 18.9961H31.6826V31.9961H21.6826V18.9961ZM23.6826 20.9961V29.9961H25.6826V20.9961H23.6826ZM27.6826 20.9961V29.9961H29.6826V20.9961H27.6826Z" fill="#F52079"/>
<defs>
<filter id="filter0_d" x="0.682617" y="0.996094" width="52" height="52" filterUnits="userSpaceOnUse" color-interpolation-filters="sRGB">
<feFlood flood-opacity="0" result="BackgroundImageFix"/>
<feColorMatrix in="SourceAlpha" type="matrix" values="0 0 0 0 0 0 0 0 0 0 0 0 0 0 0 0 0 0 127 0"/>
<feOffset dy="2"/>
<feGaussianBlur stdDeviation="1"/>
<feColorMatrix type="matrix" values="0 0 0 0 0 0 0 0 0 0 0 0 0 0 0 0 0 0 0.15 0"/>
<feBlend mode="normal" in2="BackgroundImageFix" result="effect1_dropShadow"/>
<feBlend mode="normal" in="SourceGraphic" in2="effect1_dropShadow" result="shape"/>
</filter>
</defs>
</svg>
