<svg width="53" height="53" viewBox="0 0 53 53" fill="none" xmlns="http://www.w3.org/2000/svg">
<g filter="url(#filter0_d)">
<rect x="2.19434" y="0.212891" width="48" height="48" rx="24" fill="white"/>
</g>
<path d="M23.1947 21.8125C23.3539 21.8125 23.5065 21.8757 23.619 21.9882C23.7315 22.1008 23.7947 22.2534 23.7947 22.4125V29.6125C23.7947 29.7716 23.7315 29.9242 23.619 30.0368C23.5065 30.1493 23.3539 30.2125 23.1947 30.2125C23.0356 30.2125 22.883 30.1493 22.7705 30.0368C22.6579 29.9242 22.5947 29.7716 22.5947 29.6125V22.4125C22.5947 22.2534 22.6579 22.1008 22.7705 21.9882C22.883 21.8757 23.0356 21.8125 23.1947 21.8125ZM26.1947 21.8125C26.3539 21.8125 26.5065 21.8757 26.619 21.9882C26.7315 22.1008 26.7947 22.2534 26.7947 22.4125V29.6125C26.7947 29.7716 26.7315 29.9242 26.619 30.0368C26.5065 30.1493 26.3539 30.2125 26.1947 30.2125C26.0356 30.2125 25.883 30.1493 25.7705 30.0368C25.6579 29.9242 25.5947 29.7716 25.5947 29.6125V22.4125C25.5947 22.2534 25.6579 22.1008 25.7705 21.9882C25.883 21.8757 26.0356 21.8125 26.1947 21.8125ZM29.7947 22.4125C29.7947 22.2534 29.7315 22.1008 29.619 21.9882C29.5065 21.8757 29.3539 21.8125 29.1947 21.8125C29.0356 21.8125 28.883 21.8757 28.7705 21.9882C28.6579 22.1008 28.5947 22.2534 28.5947 22.4125V29.6125C28.5947 29.7716 28.6579 29.9242 28.7705 30.0368C28.883 30.1493 29.0356 30.2125 29.1947 30.2125C29.3539 30.2125 29.5065 30.1493 29.619 30.0368C29.7315 29.9242 29.7947 29.7716 29.7947 29.6125V22.4125Z" fill="#F52079"/>
<path fill-rule="evenodd" clip-rule="evenodd" d="M33.9945 18.8129C33.9945 19.1312 33.8681 19.4364 33.6431 19.6614C33.418 19.8865 33.1128 20.0129 32.7945 20.0129H32.1945V30.8129C32.1945 31.4494 31.9417 32.0599 31.4916 32.5099C31.0415 32.96 30.4311 33.2129 29.7945 33.2129H22.5945C21.958 33.2129 21.3476 32.96 20.8975 32.5099C20.4474 32.0599 20.1945 31.4494 20.1945 30.8129V20.0129H19.5945C19.2763 20.0129 18.971 19.8865 18.746 19.6614C18.521 19.4364 18.3945 19.1312 18.3945 18.8129V17.6129C18.3945 17.2946 18.521 16.9894 18.746 16.7644C18.971 16.5393 19.2763 16.4129 19.5945 16.4129H23.7945C23.7945 16.0946 23.921 15.7894 24.146 15.5644C24.371 15.3393 24.6763 15.2129 24.9945 15.2129H27.3945C27.7128 15.2129 28.018 15.3393 28.2431 15.5644C28.4681 15.7894 28.5945 16.0946 28.5945 16.4129H32.7945C33.1128 16.4129 33.418 16.5393 33.6431 16.7644C33.8681 16.9894 33.9945 17.2946 33.9945 17.6129V18.8129ZM21.5361 20.0129L21.3945 20.0837V30.8129C21.3945 31.1312 21.521 31.4364 21.746 31.6614C21.971 31.8865 22.2763 32.0129 22.5945 32.0129H29.7945C30.1128 32.0129 30.418 31.8865 30.6431 31.6614C30.8681 31.4364 30.9945 31.1312 30.9945 30.8129V20.0837L30.8529 20.0129H21.5361ZM19.5945 18.8129V17.6129H32.7945V18.8129H19.5945Z" fill="#F52079"/>
<defs>
<filter id="filter0_d" x="0.194336" y="0.212891" width="52" height="52" filterUnits="userSpaceOnUse" color-interpolation-filters="sRGB">
<feFlood flood-opacity="0" result="BackgroundImageFix"/>
<feColorMatrix in="SourceAlpha" type="matrix" values="0 0 0 0 0 0 0 0 0 0 0 0 0 0 0 0 0 0 127 0"/>
<feOffset dy="2"/>
<feGaussianBlur stdDeviation="1"/>
<feColorMatrix type="matrix" values="0 0 0 0 0 0 0 0 0 0 0 0 0 0 0 0 0 0 0.15 0"/>
<feBlend mode="normal" in2="BackgroundImageFix" result="effect1_dropShadow"/>
<feBlend mode="normal" in="SourceGraphic" in2="effect1_dropShadow" result="shape"/>
</filter>
</defs>
</svg>
