<svg width="16" height="19" viewBox="0 0 16 19" fill="none" xmlns="http://www.w3.org/2000/svg">
<path fill-rule="evenodd" clip-rule="evenodd" d="M15.9945 3.81289C15.9945 4.13115 15.8681 4.43638 15.6431 4.66142C15.418 4.88646 15.1128 5.01289 14.7945 5.01289H14.1945V15.8129C14.1945 16.4494 13.9417 17.0599 13.4916 17.5099C13.0415 17.96 12.4311 18.2129 11.7945 18.2129H4.59453C3.95801 18.2129 3.34756 17.96 2.89747 17.5099C2.44739 17.0599 2.19453 16.4494 2.19453 15.8129V5.01289H1.59453C1.27627 5.01289 0.971047 4.88646 0.746003 4.66142C0.520959 4.43638 0.394531 4.13115 0.394531 3.81289V2.61289C0.394531 2.29463 0.520959 1.98941 0.746003 1.76436C0.971047 1.53932 1.27627 1.41289 1.59453 1.41289H5.79453C5.79453 1.09463 5.92096 0.789406 6.146 0.564363C6.37105 0.339319 6.67627 0.212891 6.99453 0.212891L9.39453 0.212891C9.71279 0.212891 10.018 0.339319 10.2431 0.564363C10.4681 0.789406 10.5945 1.09463 10.5945 1.41289H14.7945C15.1128 1.41289 15.418 1.53932 15.6431 1.76436C15.8681 1.98941 15.9945 2.29463 15.9945 2.61289V3.81289ZM3.53613 5.01289L3.39453 5.08369V15.8129C3.39453 16.1312 3.52096 16.4364 3.746 16.6614C3.97105 16.8865 4.27627 17.0129 4.59453 17.0129H11.7945C12.1128 17.0129 12.418 16.8865 12.6431 16.6614C12.8681 16.4364 12.9945 16.1312 12.9945 15.8129V5.08369L12.8529 5.01289H3.53613ZM1.59453 3.81289V2.61289H14.7945V3.81289H1.59453Z" fill="#F52079"/>
</svg>
