<svg width="27" height="27" viewBox="0 0 27 27" fill="none" xmlns="http://www.w3.org/2000/svg">
<ellipse cx="13.3398" cy="13.647" rx="12.0199" ry="11.9986" stroke="#4048FF" stroke-width="2"/>
<path d="M13.2441 17.2275C12.8926 17.2275 12.5922 17.339 12.3436 17.5613C12.0952 17.7835 11.9702 18.0525 11.9702 18.3697C11.9702 18.7271 12.0959 19.0075 12.3469 19.2116C12.5987 19.4157 12.8918 19.5186 13.227 19.5186C13.5676 19.5186 13.8648 19.4172 14.1192 19.2159C14.3733 19.0136 14.5003 18.7319 14.5003 18.3695C14.5003 18.0523 14.3789 17.7833 14.1358 17.5611C13.8928 17.3392 13.5959 17.2275 13.2436 17.2275" fill="#4048FF"/>
<path d="M16.8353 9.36437C16.5118 8.8743 16.0495 8.48239 15.4604 8.19843C14.8746 7.91704 14.1924 7.77441 13.432 7.77441C12.6133 7.77441 11.8846 7.94527 11.2673 8.28238C10.6492 8.62004 10.1715 9.05328 9.84769 9.56992C9.52237 10.0891 9.35693 10.6113 9.35693 11.1224C9.35693 11.3949 9.4708 11.6494 9.69409 11.8782C9.91848 12.1085 10.1976 12.2249 10.5237 12.2249C11.08 12.2249 11.4591 11.899 11.6521 11.2599C11.8279 10.7312 12.0447 10.3281 12.2954 10.0609C12.5312 9.80923 12.9138 9.68155 13.432 9.68155C13.8789 9.68155 14.2316 9.80665 14.5114 10.0644C14.787 10.3187 14.9212 10.6216 14.9212 10.9907C14.9212 11.177 14.8776 11.3444 14.7902 11.5027C14.6972 11.6688 14.5813 11.8214 14.4458 11.9572C14.3026 12.1003 14.0661 12.3153 13.743 12.598C13.3667 12.9273 13.063 13.2157 12.8419 13.4552C12.6109 13.7041 12.4236 13.9968 12.2837 14.3246C12.144 14.6547 12.073 15.0487 12.073 15.4961C12.073 15.8779 12.1797 16.1735 12.3904 16.3748C12.5989 16.574 12.8586 16.6755 13.1626 16.6755C13.744 16.6755 14.1092 16.3584 14.2179 15.765C14.273 15.5183 14.3148 15.3459 14.3425 15.248C14.3676 15.1588 14.404 15.0673 14.4508 14.976C14.4963 14.887 14.5682 14.7863 14.6652 14.6761C14.7663 14.5597 14.9029 14.4232 15.0704 14.2706C15.6968 13.7115 16.1388 13.3071 16.3839 13.0676C16.6367 12.8209 16.8573 12.524 17.0393 12.1859C17.2268 11.84 17.3218 11.4324 17.3218 10.9757C17.3221 10.398 17.1578 9.85536 16.8343 9.36363" fill="#4048FF"/>
</svg>
