<svg width="19" height="19" viewBox="0 0 19 19" fill="none" xmlns="http://www.w3.org/2000/svg">
<path d="M3.91758 5.08399C3.50673 5.52634 3.34747 6.14756 3.54549 6.71101L3.91758 5.08399ZM3.91758 5.08399L4.75075 4.25072C4.83393 4.16753 4.93385 4.10298 5.04389 4.06134C5.15392 4.01971 5.27155 4.00195 5.38897 4.00924C5.50639 4.01653 5.62091 4.04871 5.72495 4.10363L5.95245 3.67272L5.72495 4.10363C5.82893 4.15852 5.92005 4.23488 5.99228 4.32765C5.99232 4.32771 5.99237 4.32776 5.99241 4.32782L7.35866 6.08501L7.35919 6.08569C7.51545 6.28594 7.57078 6.54784 7.50897 6.79457L7.5089 6.79486L7.09198 8.46336C7.09197 8.46338 7.09197 8.4634 7.09196 8.46342C7.09195 8.46349 7.09193 8.46355 7.09191 8.46362C7.04932 8.63388 7.05152 8.81227 7.09829 8.98143C7.14508 9.15068 7.23491 9.30493 7.35901 9.42916L7.35927 9.42942L9.23205 11.3014L9.23215 11.3015C9.35638 11.4256 9.51062 11.5154 9.67988 11.5622C9.84906 11.609 10.0275 11.6112 10.1977 11.5686C10.1978 11.5686 10.1979 11.5685 10.1979 11.5685L11.8656 11.1516L3.91758 5.08399ZM11.9503 15.115C12.5339 15.3201 13.1793 15.1419 13.6229 14.6982L14.4114 13.9098L14.4116 13.9095C14.764 13.5576 14.7281 12.9748 14.3337 12.6683L14.3337 12.6682L12.5763 11.3018L12.5762 11.3017C12.4769 11.2245 12.3613 11.1708 12.2382 11.1448C12.1151 11.1188 11.9877 11.1211 11.8657 11.1516L11.9503 15.115ZM11.9503 15.115C10.0104 14.4322 8.24918 13.3215 6.79716 11.8652L6.79608 11.8641M11.9503 15.115L6.79608 11.8641M6.79608 11.8641C5.33955 10.4122 4.22858 8.65104 3.54556 6.71121L6.79608 11.8641Z" stroke="#ADADC8"/>
</svg>
