<svg width="31" height="31" viewBox="0 0 31 31" fill="none" xmlns="http://www.w3.org/2000/svg">
<path fill-rule="evenodd" clip-rule="evenodd" d="M15.7979 30.1553C24.0821 30.1553 30.7979 23.4395 30.7979 15.1553C30.7979 6.871 24.0821 0.155273 15.7979 0.155273C7.51358 0.155273 0.797852 6.871 0.797852 15.1553C0.797852 23.4395 7.51358 30.1553 15.7979 30.1553Z" fill="white"/>
<path fill-rule="evenodd" clip-rule="evenodd" d="M13.0476 22.0303C12.5617 22.0303 12.6442 21.8468 12.4766 21.3841L11.0476 16.681L22.0476 10.1553" fill="#1F2337"/>
<path fill-rule="evenodd" clip-rule="evenodd" d="M13.0474 22.0297C13.4224 22.0297 13.5881 21.8582 13.7974 21.6547L15.7974 19.7099L13.3026 18.2056" fill="#1F2337"/>
<path fill-rule="evenodd" clip-rule="evenodd" d="M13.3025 18.2065L19.3475 22.6726C20.0373 23.0532 20.5352 22.8561 20.707 22.0321L23.1676 10.4368C23.4196 9.42674 22.7826 8.96864 22.1227 9.26824L7.67396 14.8396C6.6877 15.2352 6.69345 15.7854 7.49418 16.0306L11.2021 17.1879L19.7862 11.7723C20.1914 11.5265 20.5633 11.6587 20.2581 11.9296" fill="#1F2337"/>
</svg>
