<svg width="35" height="35" viewBox="0 0 35 35" fill="none" xmlns="http://www.w3.org/2000/svg">
<path d="M17.08 34.16C7.64672 34.16 0 26.5133 0 17.08C0 7.64672 7.64672 0 17.08 0C26.5133 0 34.16 7.64672 34.16 17.08C34.16 26.5133 26.5133 34.16 17.08 34.16ZM11.7681 19.0784L11.7903 19.0664L13.2763 23.9684C13.4676 24.4996 13.7306 24.5952 14.05 24.5508C14.3711 24.5081 14.5402 24.3356 14.7503 24.134L16.7794 22.1733L21.1348 25.398C21.9307 25.8369 22.5029 25.6098 22.701 24.6601L25.5312 11.3001C25.8437 10.0567 25.2972 9.55797 24.3322 9.95422L7.7082 16.3763C6.57409 16.8306 6.58092 17.466 7.50324 17.7478L11.7681 19.0801V19.0784Z" fill="#D6D6E8"/>
</svg>
