<svg width="20" height="17" viewBox="0 0 20 17" fill="none" xmlns="http://www.w3.org/2000/svg">
<path fill-rule="evenodd" clip-rule="evenodd" d="M7.74251 15.901C7.17557 15.901 7.27191 15.687 7.07638 15.1472L5.40918 9.66024L18.2425 2.04688" fill="white"/>
<path fill-rule="evenodd" clip-rule="evenodd" d="M7.74268 15.9009C8.18018 15.9009 8.37348 15.7008 8.61768 15.4634L10.951 13.1946L8.04047 11.4395" fill="white"/>
<path fill-rule="evenodd" clip-rule="evenodd" d="M8.04063 11.4398L15.0931 16.6502C15.8979 17.0943 16.4788 16.8644 16.6792 15.9031L19.5499 2.37512C19.8439 1.19676 19.1008 0.662307 18.3309 1.01184L1.47399 7.51178C0.323348 7.9733 0.330056 8.61524 1.26425 8.90128L5.5901 10.2514L15.6049 3.93322C16.0777 3.64652 16.5116 3.80066 16.1555 4.11673" fill="white"/>
</svg>
