<svg width="259" height="41" viewBox="0 0 259 41" fill="none" xmlns="http://www.w3.org/2000/svg">
<rect x="0.669922" y="0.413086" width="258" height="39.9283" rx="19.9642" fill="#54A9EB"/>
<path d="M25.8718 13.9321C23.8738 14.7641 19.8779 16.4847 13.8892 19.0939C12.9185 19.4791 12.4074 19.8592 12.3612 20.229C12.2841 20.853 13.0674 21.0995 14.1331 21.4359L14.5826 21.5772C15.6303 21.9187 17.0428 22.3168 17.7747 22.3322C18.4424 22.3476 19.1845 22.0754 20.0038 21.5104C25.5996 17.7328 28.4886 15.8247 28.6684 15.7836C28.7968 15.7528 28.9766 15.7169 29.0947 15.8247C29.2154 15.93 29.2026 16.1329 29.1897 16.1868C29.1127 16.5181 26.0387 19.3738 24.4491 20.853C23.9534 21.3152 23.6016 21.6414 23.5297 21.7159C23.3714 21.8777 23.2104 22.0369 23.0469 22.1935C22.071 23.1334 21.3417 23.8371 23.0854 24.9876C23.9252 25.5423 24.598 25.9968 25.2683 26.4539C25.9976 26.9521 26.7269 27.4478 27.672 28.0693C27.9108 28.2233 28.142 28.3903 28.3654 28.5495C29.2154 29.1555 29.9833 29.7 30.9257 29.6127C31.4753 29.5613 32.0428 29.0477 32.3305 27.5068C33.011 23.8679 34.349 15.9865 34.6571 12.7379C34.6759 12.4679 34.6647 12.1966 34.6237 11.929C34.5996 11.7131 34.4951 11.5141 34.331 11.3717C34.0973 11.2104 33.8188 11.1268 33.5349 11.1329C32.7645 11.1457 31.5754 11.5592 25.8718 13.9321Z" fill="white"/>
<path d="M61.8901 21.1169L63.4058 21.4998C63.0881 22.7445 62.5151 23.6951 61.687 24.3513C60.8641 25.0024 59.8563 25.3279 58.6636 25.3279C57.4292 25.3279 56.424 25.0779 55.6479 24.5779C54.8771 24.0727 54.2886 23.3435 53.8823 22.3904C53.4813 21.4373 53.2808 20.4138 53.2808 19.3201C53.2808 18.1274 53.5073 17.0883 53.9604 16.2029C54.4188 15.3123 55.0672 14.6378 55.9058 14.1794C56.7495 13.7159 57.6766 13.4841 58.687 13.4841C59.8328 13.4841 60.7964 13.7758 61.5776 14.3591C62.3589 14.9425 62.9032 15.7628 63.2104 16.8201L61.7183 17.1716C61.4526 16.3383 61.0672 15.7315 60.562 15.3513C60.0568 14.9711 59.4214 14.781 58.6558 14.781C57.7756 14.781 57.0386 14.9919 56.4448 15.4138C55.8563 15.8357 55.4422 16.4034 55.2026 17.1169C54.9631 17.8253 54.8433 18.557 54.8433 19.3123C54.8433 20.2862 54.9839 21.1378 55.2651 21.8669C55.5516 22.5909 55.9943 23.1326 56.5933 23.4919C57.1922 23.8513 57.8407 24.031 58.5386 24.031C59.3875 24.031 60.1063 23.7862 60.6948 23.2966C61.2834 22.807 61.6818 22.0805 61.8901 21.1169ZM64.5776 20.9841C64.5776 19.4477 65.0047 18.3097 65.8589 17.5701C66.5724 16.9555 67.4422 16.6482 68.4683 16.6482C69.6089 16.6482 70.5412 17.0232 71.2651 17.7732C71.9891 18.518 72.3511 19.5492 72.3511 20.8669C72.3511 21.9347 72.1896 22.7758 71.8667 23.3904C71.549 23.9998 71.0828 24.4737 70.4683 24.8123C69.8589 25.1508 69.1922 25.3201 68.4683 25.3201C67.3068 25.3201 66.3667 24.9477 65.6479 24.2029C64.9344 23.4581 64.5776 22.3852 64.5776 20.9841ZM66.0229 20.9841C66.0229 22.0466 66.2547 22.8435 66.7183 23.3748C67.1818 23.9008 67.7651 24.1638 68.4683 24.1638C69.1662 24.1638 69.7469 23.8982 70.2104 23.3669C70.674 22.8357 70.9058 22.0258 70.9058 20.9373C70.9058 19.9112 70.6714 19.1352 70.2026 18.6091C69.7391 18.0779 69.161 17.8123 68.4683 17.8123C67.7651 17.8123 67.1818 18.0753 66.7183 18.6013C66.2547 19.1274 66.0229 19.9216 66.0229 20.9841ZM74.0073 25.1326V16.8357H75.2729V18.0154C75.8823 17.1039 76.7625 16.6482 77.9136 16.6482C78.4136 16.6482 78.8719 16.7393 79.2886 16.9216C79.7104 17.0987 80.0256 17.3331 80.2339 17.6248C80.4422 17.9164 80.5881 18.2628 80.6714 18.6638C80.7235 18.9242 80.7495 19.38 80.7495 20.031V25.1326H79.3433V20.0857C79.3433 19.5128 79.2886 19.0857 79.1792 18.8044C79.0698 18.518 78.8745 18.2914 78.5933 18.1248C78.3172 17.9529 77.9917 17.8669 77.6167 17.8669C77.0177 17.8669 76.4995 18.057 76.062 18.4373C75.6297 18.8175 75.4136 19.5388 75.4136 20.6013V25.1326H74.0073ZM82.9136 25.1326V16.8357H84.1792V18.0154C84.7886 17.1039 85.6688 16.6482 86.8198 16.6482C87.3198 16.6482 87.7782 16.7393 88.1948 16.9216C88.6167 17.0987 88.9318 17.3331 89.1401 17.6248C89.3485 17.9164 89.4943 18.2628 89.5776 18.6638C89.6297 18.9242 89.6558 19.38 89.6558 20.031V25.1326H88.2495V20.0857C88.2495 19.5128 88.1948 19.0857 88.0854 18.8044C87.9761 18.518 87.7808 18.2914 87.4995 18.1248C87.2235 17.9529 86.8979 17.8669 86.5229 17.8669C85.924 17.8669 85.4058 18.057 84.9683 18.4373C84.536 18.8175 84.3198 19.5388 84.3198 20.6013V25.1326H82.9136ZM97.4995 22.4607L98.9526 22.6404C98.7235 23.4893 98.299 24.1482 97.6792 24.6169C97.0594 25.0857 96.2677 25.3201 95.3042 25.3201C94.0907 25.3201 93.1271 24.9477 92.4136 24.2029C91.7052 23.4529 91.3511 22.4034 91.3511 21.0544C91.3511 19.6586 91.7104 18.5753 92.4292 17.8044C93.1479 17.0336 94.0802 16.6482 95.2261 16.6482C96.3354 16.6482 97.2417 17.0258 97.9448 17.781C98.6479 18.5362 98.9995 19.5987 98.9995 20.9685C98.9995 21.0518 98.9969 21.1768 98.9917 21.3435H92.8042C92.8563 22.255 93.1141 22.9529 93.5776 23.4373C94.0412 23.9216 94.6193 24.1638 95.312 24.1638C95.8276 24.1638 96.2677 24.0284 96.6323 23.7576C96.9969 23.4867 97.286 23.0544 97.4995 22.4607ZM92.8823 20.1873H97.5151C97.4526 19.4893 97.2756 18.9659 96.9839 18.6169C96.536 18.0753 95.9552 17.8044 95.2417 17.8044C94.5959 17.8044 94.0516 18.0206 93.6089 18.4529C93.1714 18.8852 92.9292 19.4633 92.8823 20.1873ZM99.7886 25.1326L102.82 20.8201L100.015 16.8357H101.773L103.046 18.781C103.286 19.1508 103.479 19.4607 103.625 19.7107C103.854 19.3669 104.065 19.0623 104.257 18.7966L105.656 16.8357H107.335L104.468 20.7419L107.554 25.1326H105.828L104.125 22.5544L103.671 21.8591L101.492 25.1326H99.7886ZM108.734 15.2966V13.6794H110.14V15.2966H108.734ZM108.734 25.1326V16.8357H110.14V25.1326H108.734ZM111.765 20.9841C111.765 19.4477 112.192 18.3097 113.046 17.5701C113.76 16.9555 114.63 16.6482 115.656 16.6482C116.796 16.6482 117.729 17.0232 118.453 17.7732C119.177 18.518 119.539 19.5492 119.539 20.8669C119.539 21.9347 119.377 22.7758 119.054 23.3904C118.736 23.9998 118.27 24.4737 117.656 24.8123C117.046 25.1508 116.38 25.3201 115.656 25.3201C114.494 25.3201 113.554 24.9477 112.835 24.2029C112.122 23.4581 111.765 22.3852 111.765 20.9841ZM113.21 20.9841C113.21 22.0466 113.442 22.8435 113.906 23.3748C114.369 23.9008 114.953 24.1638 115.656 24.1638C116.354 24.1638 116.934 23.8982 117.398 23.3669C117.861 22.8357 118.093 22.0258 118.093 20.9373C118.093 19.9112 117.859 19.1352 117.39 18.6091C116.927 18.0779 116.348 17.8123 115.656 17.8123C114.953 17.8123 114.369 18.0753 113.906 18.6013C113.442 19.1274 113.21 19.9216 113.21 20.9841ZM121.195 25.1326V16.8357H122.46V18.0154C123.07 17.1039 123.95 16.6482 125.101 16.6482C125.601 16.6482 126.059 16.7393 126.476 16.9216C126.898 17.0987 127.213 17.3331 127.421 17.6248C127.63 17.9164 127.776 18.2628 127.859 18.6638C127.911 18.9242 127.937 19.38 127.937 20.031V25.1326H126.531V20.0857C126.531 19.5128 126.476 19.0857 126.367 18.8044C126.257 18.518 126.062 18.2914 125.781 18.1248C125.505 17.9529 125.179 17.8669 124.804 17.8669C124.205 17.8669 123.687 18.057 123.25 18.4373C122.817 18.8175 122.601 19.5388 122.601 20.6013V25.1326H121.195ZM139.968 24.1091C139.447 24.5518 138.945 24.8643 138.46 25.0466C137.981 25.2289 137.466 25.3201 136.914 25.3201C136.002 25.3201 135.302 25.0987 134.812 24.656C134.322 24.2081 134.078 23.6378 134.078 22.9451C134.078 22.5388 134.169 22.169 134.351 21.8357C134.539 21.4972 134.781 21.2263 135.078 21.0232C135.38 20.8201 135.718 20.6664 136.093 20.5623C136.369 20.4893 136.786 20.419 137.343 20.3513C138.479 20.2159 139.315 20.0544 139.851 19.8669C139.856 19.6742 139.859 19.5518 139.859 19.4998C139.859 18.9268 139.726 18.5232 139.46 18.2888C139.101 17.9711 138.567 17.8123 137.859 17.8123C137.197 17.8123 136.708 17.9294 136.39 18.1638C136.078 18.393 135.846 18.8018 135.695 19.3904L134.32 19.2029C134.445 18.6143 134.651 18.1404 134.937 17.781C135.223 17.4164 135.638 17.1378 136.179 16.9451C136.721 16.7472 137.348 16.6482 138.062 16.6482C138.77 16.6482 139.346 16.7315 139.789 16.8982C140.231 17.0649 140.557 17.2758 140.765 17.531C140.973 17.781 141.119 18.0987 141.203 18.4841C141.25 18.7237 141.273 19.156 141.273 19.781V21.656C141.273 22.9633 141.302 23.7914 141.359 24.1404C141.421 24.4841 141.541 24.8149 141.718 25.1326H140.25C140.104 24.8409 140.01 24.4998 139.968 24.1091ZM139.851 20.9685C139.341 21.1768 138.575 21.3539 137.554 21.4998C136.976 21.5831 136.567 21.6768 136.328 21.781C136.088 21.8852 135.903 22.0388 135.773 22.2419C135.643 22.4399 135.578 22.6612 135.578 22.906C135.578 23.281 135.718 23.5935 136 23.8435C136.286 24.0935 136.703 24.2185 137.25 24.2185C137.791 24.2185 138.273 24.1013 138.695 23.8669C139.117 23.6274 139.427 23.3018 139.625 22.8904C139.776 22.5727 139.851 22.1039 139.851 21.4841V20.9685ZM145.765 25.1326L142.609 16.8357H144.093L145.875 21.8044C146.067 22.3409 146.244 22.8982 146.406 23.4763C146.531 23.0388 146.705 22.5128 146.929 21.8982L148.773 16.8357H150.218L147.078 25.1326H145.765ZM157.14 22.4607L158.593 22.6404C158.364 23.4893 157.94 24.1482 157.32 24.6169C156.7 25.0857 155.908 25.3201 154.945 25.3201C153.731 25.3201 152.768 24.9477 152.054 24.2029C151.346 23.4529 150.992 22.4034 150.992 21.0544C150.992 19.6586 151.351 18.5753 152.07 17.8044C152.789 17.0336 153.721 16.6482 154.867 16.6482C155.976 16.6482 156.882 17.0258 157.585 17.781C158.289 18.5362 158.64 19.5987 158.64 20.9685C158.64 21.0518 158.638 21.1768 158.632 21.3435H152.445C152.497 22.255 152.755 22.9529 153.218 23.4373C153.682 23.9216 154.26 24.1638 154.953 24.1638C155.468 24.1638 155.908 24.0284 156.273 23.7576C156.638 23.4867 156.927 23.0544 157.14 22.4607ZM152.523 20.1873H157.156C157.093 19.4893 156.916 18.9659 156.625 18.6169C156.177 18.0753 155.596 17.8044 154.882 17.8044C154.236 17.8044 153.692 18.0206 153.25 18.4529C152.812 18.8852 152.57 19.4633 152.523 20.1873ZM165.781 22.0935L167.164 22.2732C167.013 23.2263 166.625 23.9737 166 24.5154C165.38 25.0518 164.617 25.3201 163.71 25.3201C162.575 25.3201 161.661 24.9503 160.968 24.2107C160.281 23.4659 159.937 22.4008 159.937 21.0154C159.937 20.1195 160.085 19.3357 160.382 18.6638C160.679 17.9919 161.13 17.4893 161.734 17.156C162.343 16.8175 163.005 16.6482 163.718 16.6482C164.619 16.6482 165.356 16.8774 165.929 17.3357C166.502 17.7888 166.869 18.4347 167.031 19.2732L165.664 19.4841C165.533 18.9268 165.302 18.5076 164.968 18.2263C164.64 17.9451 164.242 17.8044 163.773 17.8044C163.065 17.8044 162.489 18.0597 162.046 18.5701C161.604 19.0753 161.382 19.8774 161.382 20.9763C161.382 22.0909 161.596 22.9008 162.023 23.406C162.45 23.9112 163.007 24.1638 163.695 24.1638C164.247 24.1638 164.708 23.9945 165.078 23.656C165.447 23.3175 165.682 22.7966 165.781 22.0935ZM175.617 25.1326V15.031H171.843V13.6794H180.921V15.031H177.132V25.1326H175.617ZM186.203 22.4607L187.656 22.6404C187.427 23.4893 187.002 24.1482 186.382 24.6169C185.763 25.0857 184.971 25.3201 184.007 25.3201C182.794 25.3201 181.83 24.9477 181.117 24.2029C180.408 23.4529 180.054 22.4034 180.054 21.0544C180.054 19.6586 180.414 18.5753 181.132 17.8044C181.851 17.0336 182.783 16.6482 183.929 16.6482C185.039 16.6482 185.945 17.0258 186.648 17.781C187.351 18.5362 187.703 19.5987 187.703 20.9685C187.703 21.0518 187.7 21.1768 187.695 21.3435H181.507C181.559 22.255 181.817 22.9529 182.281 23.4373C182.744 23.9216 183.322 24.1638 184.015 24.1638C184.531 24.1638 184.971 24.0284 185.335 23.7576C185.7 23.4867 185.989 23.0544 186.203 22.4607ZM181.585 20.1873H186.218C186.156 19.4893 185.979 18.9659 185.687 18.6169C185.239 18.0753 184.658 17.8044 183.945 17.8044C183.299 17.8044 182.755 18.0206 182.312 18.4529C181.875 18.8852 181.632 19.4633 181.585 20.1873ZM189.398 25.1326V13.6794H190.804V25.1326H189.398ZM198.671 22.4607L200.125 22.6404C199.895 23.4893 199.471 24.1482 198.851 24.6169C198.231 25.0857 197.44 25.3201 196.476 25.3201C195.263 25.3201 194.299 24.9477 193.585 24.2029C192.877 23.4529 192.523 22.4034 192.523 21.0544C192.523 19.6586 192.882 18.5753 193.601 17.8044C194.32 17.0336 195.252 16.6482 196.398 16.6482C197.507 16.6482 198.414 17.0258 199.117 17.781C199.82 18.5362 200.171 19.5987 200.171 20.9685C200.171 21.0518 200.169 21.1768 200.164 21.3435H193.976C194.028 22.255 194.286 22.9529 194.75 23.4373C195.213 23.9216 195.791 24.1638 196.484 24.1638C197 24.1638 197.44 24.0284 197.804 23.7576C198.169 23.4867 198.458 23.0544 198.671 22.4607ZM194.054 20.1873H198.687C198.625 19.4893 198.447 18.9659 198.156 18.6169C197.708 18.0753 197.127 17.8044 196.414 17.8044C195.768 17.8044 195.223 18.0206 194.781 18.4529C194.343 18.8852 194.101 19.4633 194.054 20.1873ZM201.64 25.8201L203.007 26.0232C203.065 26.4451 203.223 26.7524 203.484 26.9451C203.833 27.2055 204.309 27.3357 204.914 27.3357C205.565 27.3357 206.067 27.2055 206.421 26.9451C206.776 26.6847 207.015 26.3201 207.14 25.8513C207.213 25.5649 207.247 24.9633 207.242 24.0466C206.627 24.7706 205.861 25.1326 204.945 25.1326C203.804 25.1326 202.921 24.7211 202.296 23.8982C201.671 23.0753 201.359 22.0883 201.359 20.9373C201.359 20.1456 201.502 19.4164 201.789 18.7498C202.075 18.0779 202.489 17.5597 203.031 17.1951C203.578 16.8305 204.218 16.6482 204.953 16.6482C205.932 16.6482 206.739 17.044 207.375 17.8357V16.8357H208.671V24.0076C208.671 25.2992 208.539 26.2133 208.273 26.7498C208.013 27.2914 207.596 27.7185 207.023 28.031C206.455 28.3435 205.755 28.4998 204.921 28.4998C203.932 28.4998 203.132 28.2758 202.523 27.8279C201.914 27.3852 201.619 26.7159 201.64 25.8201ZM202.804 20.8357C202.804 21.9242 203.02 22.7185 203.453 23.2185C203.885 23.7185 204.427 23.9685 205.078 23.9685C205.723 23.9685 206.265 23.7211 206.703 23.2263C207.14 22.7263 207.359 21.9451 207.359 20.8826C207.359 19.8669 207.132 19.1013 206.679 18.5857C206.231 18.0701 205.69 17.8123 205.054 17.8123C204.429 17.8123 203.898 18.0675 203.46 18.5779C203.023 19.0831 202.804 19.8357 202.804 20.8357ZM210.789 25.1326V16.8357H212.054V18.0935C212.377 17.505 212.674 17.1169 212.945 16.9294C213.221 16.7419 213.523 16.6482 213.851 16.6482C214.325 16.6482 214.807 16.7992 215.296 17.1013L214.812 18.406C214.468 18.2029 214.125 18.1013 213.781 18.1013C213.473 18.1013 213.197 18.1951 212.953 18.3826C212.708 18.5649 212.533 18.8201 212.429 19.1482C212.273 19.6482 212.195 20.1951 212.195 20.7888V25.1326H210.789ZM221.546 24.1091C221.026 24.5518 220.523 24.8643 220.039 25.0466C219.559 25.2289 219.044 25.3201 218.492 25.3201C217.58 25.3201 216.88 25.0987 216.39 24.656C215.901 24.2081 215.656 23.6378 215.656 22.9451C215.656 22.5388 215.747 22.169 215.929 21.8357C216.117 21.4972 216.359 21.2263 216.656 21.0232C216.958 20.8201 217.296 20.6664 217.671 20.5623C217.947 20.4893 218.364 20.419 218.921 20.3513C220.057 20.2159 220.893 20.0544 221.429 19.8669C221.434 19.6742 221.437 19.5518 221.437 19.4998C221.437 18.9268 221.304 18.5232 221.039 18.2888C220.679 17.9711 220.145 17.8123 219.437 17.8123C218.776 17.8123 218.286 17.9294 217.968 18.1638C217.656 18.393 217.424 18.8018 217.273 19.3904L215.898 19.2029C216.023 18.6143 216.229 18.1404 216.515 17.781C216.802 17.4164 217.216 17.1378 217.757 16.9451C218.299 16.7472 218.927 16.6482 219.64 16.6482C220.348 16.6482 220.924 16.7315 221.367 16.8982C221.809 17.0649 222.135 17.2758 222.343 17.531C222.552 17.781 222.697 18.0987 222.781 18.4841C222.828 18.7237 222.851 19.156 222.851 19.781V21.656C222.851 22.9633 222.88 23.7914 222.937 24.1404C223 24.4841 223.119 24.8149 223.296 25.1326H221.828C221.682 24.8409 221.588 24.4998 221.546 24.1091ZM221.429 20.9685C220.919 21.1768 220.153 21.3539 219.132 21.4998C218.554 21.5831 218.145 21.6768 217.906 21.781C217.666 21.8852 217.481 22.0388 217.351 22.2419C217.221 22.4399 217.156 22.6612 217.156 22.906C217.156 23.281 217.296 23.5935 217.578 23.8435C217.864 24.0935 218.281 24.2185 218.828 24.2185C219.369 24.2185 219.851 24.1013 220.273 23.8669C220.695 23.6274 221.005 23.3018 221.203 22.8904C221.354 22.5727 221.429 22.1039 221.429 21.4841V20.9685ZM225.039 25.1326V16.8357H226.296V17.9998C226.557 17.5935 226.903 17.268 227.335 17.0232C227.768 16.7732 228.26 16.6482 228.812 16.6482C229.427 16.6482 229.929 16.7758 230.32 17.031C230.716 17.2862 230.994 17.643 231.156 18.1013C231.812 17.1326 232.666 16.6482 233.718 16.6482C234.541 16.6482 235.174 16.8774 235.617 17.3357C236.059 17.7888 236.281 18.4893 236.281 19.4373V25.1326H234.882V19.906C234.882 19.3435 234.835 18.9399 234.742 18.6951C234.653 18.4451 234.489 18.2445 234.25 18.0935C234.01 17.9425 233.729 17.8669 233.406 17.8669C232.822 17.8669 232.338 18.0623 231.953 18.4529C231.567 18.8383 231.375 19.4581 231.375 20.3123V25.1326H229.968V19.7419C229.968 19.1169 229.854 18.6482 229.625 18.3357C229.395 18.0232 229.02 17.8669 228.5 17.8669C228.104 17.8669 227.736 17.9711 227.398 18.1794C227.065 18.3878 226.822 18.6925 226.671 19.0935C226.52 19.4945 226.445 20.0727 226.445 20.8279V25.1326H225.039Z" fill="white"/>
</svg>
