<svg width="36" height="30" viewBox="0 0 36 30" fill="none" xmlns="http://www.w3.org/2000/svg">
<path d="M21.4373 4.77595C18.3065 6.07976 12.045 8.77589 2.66088 12.8644C1.13978 13.468 0.338987 14.0635 0.266553 14.643C0.145831 15.6209 1.37318 16.0072 3.04317 16.5343L3.74739 16.7557C5.38921 17.2909 7.60248 17.9146 8.74934 17.9387C9.79561 17.9629 10.9586 17.5363 12.2422 16.651C21.0107 10.7316 25.5378 7.7417 25.8195 7.67732C26.0207 7.62903 26.3024 7.57269 26.4875 7.7417C26.6766 7.90669 26.6565 8.22459 26.6364 8.3091C26.5157 8.8282 21.6988 13.303 19.2079 15.6209C18.4313 16.3452 17.88 16.8563 17.7673 16.973C17.5192 17.2265 17.267 17.476 17.0108 17.7214C15.4816 19.1942 14.3388 20.2968 17.0711 22.0996C18.387 22.9688 19.4413 23.6811 20.4916 24.3974C21.6345 25.1781 22.7773 25.9547 24.2582 26.9285C24.6324 27.17 24.9946 27.4315 25.3447 27.681C26.6766 28.6307 27.8798 29.4838 29.3567 29.347C30.2178 29.2665 31.1072 28.4617 31.5579 26.0473C32.6242 20.3451 34.7208 7.99522 35.2037 2.90475C35.2331 2.48159 35.2156 2.05646 35.1514 1.63717C35.1135 1.29883 34.9497 0.987112 34.6926 0.76394C34.3265 0.511186 33.89 0.380239 33.4452 0.3897C32.2379 0.40982 30.3748 1.0577 21.4373 4.77595Z" fill="#ADADC8"/>
</svg>
