<svg width="24" height="24" viewBox="0 0 24 24" fill="none" xmlns="http://www.w3.org/2000/svg">
<path d="M19.0732 4.35214C19.0732 4.35215 19.0732 4.35213 19.0732 4.35214V4.35214Z" fill="white"/>
<path d="M21.5503 6.80929L11.4807 19.3963C11.3359 19.5502 11.162 19.6739 10.9691 19.7602C10.773 19.8479 10.5613 19.8951 10.3465 19.8991C10.1318 19.9031 9.91844 19.8637 9.71925 19.7833C9.52007 19.703 9.33911 19.5833 9.18725 19.4314L2.5161 12.7574L2.50847 12.7503C2.35151 12.6041 2.22562 12.4277 2.1383 12.2317C2.05098 12.0358 2.00403 11.8242 2.00025 11.6097C1.99646 11.3952 2.03592 11.1822 2.11627 10.9832C2.19662 10.7843 2.31621 10.6036 2.46791 10.4519C2.61962 10.3002 2.80032 10.1806 2.99924 10.1003C3.19816 10.0199 3.41123 9.98045 3.62574 9.98423C3.84024 9.98802 4.05179 10.035 4.24775 10.1223C4.44372 10.2096 4.61995 10.3356 4.76621 10.4926L10.2897 16.0134L19.2532 4.59294C19.2609 4.58338 19.2692 4.57431 19.278 4.56578L19.3472 4.49863C19.6369 4.24376 20.0101 4.1016 20.398 4.10053C20.8178 4.09937 21.2211 4.26346 21.5209 4.55731C21.8206 4.85116 21.9926 5.25117 21.9998 5.67086C22.0069 6.09054 21.8486 6.49618 21.5591 6.80008L21.5503 6.80929Z" fill="white"/>
</svg>
