<svg width="40" height="41" viewBox="0 0 40 41" fill="none" xmlns="http://www.w3.org/2000/svg">
<circle cx="20" cy="20.5" r="20" fill="#00CC9E"/>
<path d="M27.0732 12.8522C27.0732 12.8522 27.0732 12.8522 27.0732 12.8522V12.8522Z" fill="white"/>
<path d="M29.5503 15.3093L19.4807 27.8964C19.3359 28.0503 19.162 28.174 18.9691 28.2602C18.773 28.3479 18.5613 28.3952 18.3465 28.3991C18.1318 28.4031 17.9184 28.3638 17.7192 28.2834C17.5201 28.203 17.3391 28.0833 17.1872 27.9314L10.5161 21.2575L10.5085 21.2504C10.3515 21.1041 10.2256 20.9278 10.1383 20.7318C10.051 20.5358 10.004 20.3243 10.0002 20.1098C9.99646 19.8953 10.0359 19.6822 10.1163 19.4833C10.1966 19.2844 10.3162 19.1037 10.4679 18.952C10.6196 18.8003 10.8003 18.6807 10.9992 18.6003C11.1982 18.52 11.4112 18.4805 11.6257 18.4843C11.8402 18.4881 12.0518 18.535 12.2478 18.6223C12.4437 18.7097 12.62 18.8357 12.7662 18.9926L18.2897 24.5135L27.2532 13.093C27.2609 13.0834 27.2692 13.0744 27.278 13.0658L27.3472 12.9987C27.6369 12.7438 28.0101 12.6017 28.398 12.6006C28.8178 12.5994 29.2211 12.7635 29.5209 13.0574C29.8206 13.3512 29.9926 13.7512 29.9998 14.1709C30.0069 14.5906 29.8486 14.9962 29.5591 15.3001L29.5503 15.3093Z" fill="white"/>
</svg>
