<svg width="29" height="29" viewBox="0 0 29 29" fill="none" xmlns="http://www.w3.org/2000/svg">
<path fill-rule="evenodd" clip-rule="evenodd" d="M19.5169 8.4073C19.7754 8.15107 20.1243 8.00687 20.4883 8.00586C20.8522 8.00486 21.202 8.14714 21.4619 8.40194C21.7218 8.65674 21.8709 9.00359 21.8771 9.3675C21.8833 9.7314 21.7461 10.0831 21.495 10.3466L14.1218 19.5631C13.9951 19.6996 13.8422 19.8091 13.6722 19.8852C13.5021 19.9612 13.3185 20.0022 13.1323 20.0056C12.9461 20.0091 12.7611 19.9749 12.5884 19.9052C12.4157 19.8356 12.2588 19.7318 12.1271 19.6001L7.2418 14.7129C7.1057 14.5861 6.99654 14.4332 6.92082 14.2633C6.84511 14.0933 6.8044 13.9099 6.80112 13.7239C6.79784 13.5379 6.83205 13.3532 6.90172 13.1807C6.97139 13.0082 7.07509 12.8515 7.20663 12.72C7.33817 12.5884 7.49486 12.4847 7.66735 12.415C7.83983 12.3454 8.02459 12.3112 8.21058 12.3144C8.39658 12.3177 8.58001 12.3584 8.74993 12.4341C8.91986 12.5099 9.07279 12.619 9.1996 12.7551L13.0672 16.6209L19.4818 8.44794C19.4932 8.43363 19.5056 8.42006 19.5187 8.4073H19.5169Z" fill="#00CC9E"/>
<circle cx="14.339" cy="14.0059" r="13" stroke="#00CC9E" stroke-width="2"/>
</svg>
