<svg width="114" height="114" viewBox="0 0 114 114" fill="none" xmlns="http://www.w3.org/2000/svg">
<g clip-path="url(#clip0_6902_60229)">
<path fill-rule="evenodd" clip-rule="evenodd" d="M57.0002 0C88.4806 0 114 25.5197 114 57.0002C114 88.4806 88.4806 114 57.0002 114C25.5197 114 0 88.4806 0 57.0002C0 25.5197 25.5197 0 57.0002 0ZM68.4438 24.1592C68.5591 25.1432 68.726 26.0953 68.9435 27.0119L71.0995 27.0126C71.4996 30.4295 72.4695 33.5513 73.9945 36.1429C76.485 38.4497 79.7387 39.8721 83.6663 40.1242V43.273C84.3951 43.4248 85.154 43.5281 85.9437 43.5787V53.7324C80.866 54.2324 76.422 52.5607 71.2441 49.4468L72.0389 66.8361C72.0389 72.4442 72.0598 75.0072 69.0506 80.1659C62.0238 92.2118 49.1482 92.7091 40.9463 86.432C36.7503 84.9765 33.0567 82.1687 30.727 78.3571C23.9298 67.2366 30.057 49.1119 49.772 47.2467L49.7398 49.9262V50.6C50.8018 50.379 51.9167 50.2087 53.0894 50.0979V60.8063C48.8202 61.5098 46.1085 62.8207 44.8407 65.2455C42.3017 70.1008 43.4559 74.3174 46.1116 76.9791C51.678 77.9354 57.8764 74.0786 56.9434 62.1531V24.1589H68.4442L68.4438 24.1592Z" fill="#1A121F"/>
<path fill-rule="evenodd" clip-rule="evenodd" d="M68.4435 24.1605C69.5013 33.1914 74.9124 39.5635 83.6656 40.1254V48.6912L83.6091 48.6963V41.4202C74.8556 40.8587 69.8228 35.4728 68.7649 26.442L59.4919 26.4416V64.4358C60.8298 81.5372 47.5048 82.0454 42.4077 75.5614C48.3865 79.3005 58.0942 76.8699 56.9427 62.1543V24.1602H68.4435V24.1605ZM43.5274 87.1446C38.2883 86.0663 33.5242 82.936 30.7263 78.359C23.929 67.2385 30.0563 49.1139 49.7713 47.2486L49.7391 49.9282C31.4616 52.8393 29.6264 72.4728 34.688 80.6401C36.6398 83.7896 39.844 86.0048 43.5274 87.1446Z" fill="#26F4EE"/>
<path fill-rule="evenodd" clip-rule="evenodd" d="M71.0991 27.0124C71.7014 32.1547 73.5933 36.6291 76.7264 39.6332C72.3262 37.3572 69.6709 33.0275 68.8392 27.0117L71.0995 27.0124H71.0991ZM83.6095 43.2612C84.3554 43.4195 85.1335 43.5269 85.9433 43.5789V53.7325C80.8656 54.2326 76.4217 52.5609 71.2438 49.4469L72.0386 66.8363C72.0386 72.4444 72.0595 75.0074 69.0502 80.1661C61.7167 92.738 48.0114 92.7322 39.8984 85.5731C50.4765 91.6488 68.9435 86.8922 68.9096 66.2662V47.2869C74.0879 50.4008 78.5315 52.0725 83.6092 51.5721V43.2608L83.6095 43.2612ZM49.7395 50.6005C50.8014 50.3796 51.9163 50.2093 53.089 50.0985V60.8068C48.8199 61.5103 46.1081 62.8212 44.8403 65.246C41.2695 72.0737 45.0025 77.6394 49.944 79.3928C43.7624 79.1709 37.6286 72.8216 41.8882 64.6762C43.156 62.2518 45.4703 60.9405 49.7395 60.2371V50.6009V50.6005Z" fill="#FB2C53"/>
<path fill-rule="evenodd" clip-rule="evenodd" d="M68.7653 26.4417C69.8231 35.4726 74.856 40.8584 83.6095 41.42V51.5736C78.5318 52.0737 74.0879 50.4023 68.91 47.2884V66.2677C68.9507 91.0398 42.302 92.9246 34.6884 80.6399C29.6268 72.4726 31.4616 52.839 49.7395 49.9279V60.2379C45.4703 60.9414 43.156 62.2526 41.8882 64.677C34.0533 79.6594 61.3812 88.5733 59.4927 64.4356V26.4414L68.7657 26.4417H68.7653Z" fill="#FEFEFE"/>
</g>
<defs>
<clipPath id="clip0_6902_60229">
<rect width="114" height="114" fill="white"/>
</clipPath>
</defs>
</svg>
