<svg width="43" height="38" viewBox="0 0 43 38" fill="none" xmlns="http://www.w3.org/2000/svg">
<circle cx="17.5" cy="17.5" r="17.5" fill="black"/>
<path d="M17.6596 7.54157C18.7112 7.52539 19.7567 7.53498 20.8011 7.52539C20.8644 8.74822 21.3067 9.99382 22.2071 10.8584C23.1056 11.7445 24.3766 12.1501 25.6132 12.2873V15.5041C24.4543 15.4663 23.29 15.2267 22.2384 14.7306C21.7804 14.5245 21.3537 14.2591 20.9361 13.9876C20.9307 16.3219 20.9457 18.6531 20.921 20.9777C20.8584 22.0945 20.4877 23.2059 19.8345 24.1262C18.7835 25.6582 16.9593 26.6569 15.0857 26.6881C13.9365 26.7534 12.7884 26.4418 11.8092 25.8679C10.1863 24.9164 9.04426 23.1748 8.87794 21.3055C8.85699 20.9096 8.85377 20.513 8.86829 20.1168C9.01293 18.5968 9.76924 17.1427 10.9432 16.1535C12.2738 15.0014 14.1378 14.4526 15.883 14.7773C15.8993 15.9606 15.8517 17.1427 15.8517 18.326C15.0544 18.0695 14.1227 18.1414 13.426 18.6225C12.9164 18.9564 12.5312 19.4475 12.3298 20.0203C12.1635 20.4253 12.2111 20.8753 12.2208 21.3055C12.4118 22.6164 13.6798 23.7182 15.0333 23.5989C15.9306 23.5894 16.7906 23.0717 17.2582 22.3138C17.4095 22.0484 17.5788 21.777 17.5879 21.4648C17.6668 20.0359 17.6355 18.613 17.6451 17.184C17.6517 13.9637 17.6355 10.7523 17.6602 7.54217L17.6596 7.54157Z" fill="#17FFFF"/>
<g filter="url(#filter0_d_5005_49560)">
<path d="M18.1879 8.31891C19.2395 8.30273 20.2851 8.31232 21.3294 8.30273C21.3927 9.52557 21.835 10.7712 22.7354 11.6357C23.6339 12.5218 24.9049 12.9274 26.1415 13.0646V16.2814C24.9826 16.2436 23.8183 16.004 22.7667 15.5079C22.3087 15.3018 21.8821 15.0364 21.4644 14.765C21.459 17.0992 21.4741 19.4304 21.4494 21.7551C21.3867 22.8719 21.0161 23.9833 20.3628 24.9035C19.3118 26.4355 17.4876 27.4343 15.614 27.4654C14.4648 27.5307 13.3168 27.2192 12.3375 26.6452C10.7146 25.6938 9.57259 23.9521 9.40626 22.0828C9.38531 21.6869 9.38209 21.2903 9.39661 20.8941C9.54125 19.3741 10.2976 17.92 11.4715 16.9309C12.8021 15.7787 14.6661 15.2299 16.4113 15.5546C16.4276 16.7379 16.38 17.92 16.38 19.1033C15.5827 18.8469 14.651 18.9188 13.9544 19.3999C13.4447 19.7337 13.0595 20.2248 12.8582 20.7977C12.6918 21.2027 12.7394 21.6526 12.7491 22.0828C12.9401 23.3937 14.2081 24.4955 15.5616 24.3763C16.4589 24.3667 17.3189 23.8491 17.7865 23.0911C17.9378 22.8257 18.1071 22.5543 18.1162 22.2422C18.1951 20.8132 18.1638 19.3903 18.1734 17.9614C18.1801 14.741 18.1638 11.5297 18.1885 8.31951L18.1879 8.31891Z" fill="white"/>
</g>
<mask id="path-4-outside-1_5005_49560" maskUnits="userSpaceOnUse" x="21.3086" y="19.208" width="22" height="18" fill="black">
<rect fill="white" x="21.3086" y="19.208" width="22" height="18"/>
<path fill-rule="evenodd" clip-rule="evenodd" d="M37.0246 22.6095C37.2831 22.3532 37.632 22.209 37.996 22.208C38.3599 22.207 38.7097 22.3493 38.9696 22.6041C39.2295 22.8589 39.3786 23.2057 39.3848 23.5696C39.391 23.9336 39.2538 24.2853 39.0027 24.5488L31.6295 33.7653C31.5028 33.9018 31.3499 34.0113 31.1798 34.0873C31.0098 34.1634 30.8262 34.2043 30.64 34.2078C30.4538 34.2112 30.2688 34.1771 30.0961 34.1074C29.9234 34.0377 29.7665 33.9339 29.6348 33.8022L24.7495 28.9151C24.6134 28.7883 24.5042 28.6353 24.4285 28.4654C24.3528 28.2955 24.3121 28.1121 24.3088 27.9261C24.3055 27.7401 24.3397 27.5553 24.4094 27.3828C24.4791 27.2103 24.5828 27.0536 24.7143 26.9221C24.8459 26.7906 25.0025 26.6869 25.175 26.6172C25.3475 26.5475 25.5323 26.5133 25.7183 26.5166C25.9043 26.5199 26.0877 26.5606 26.2576 26.6363C26.4275 26.712 26.5805 26.8212 26.7073 26.9573L30.5749 30.823L36.9895 22.6501C37.0009 22.6358 37.0133 22.6222 37.0264 22.6095H37.0246Z"/>
</mask>
<path fill-rule="evenodd" clip-rule="evenodd" d="M37.0246 22.6095C37.2831 22.3532 37.632 22.209 37.996 22.208C38.3599 22.207 38.7097 22.3493 38.9696 22.6041C39.2295 22.8589 39.3786 23.2057 39.3848 23.5696C39.391 23.9336 39.2538 24.2853 39.0027 24.5488L31.6295 33.7653C31.5028 33.9018 31.3499 34.0113 31.1798 34.0873C31.0098 34.1634 30.8262 34.2043 30.64 34.2078C30.4538 34.2112 30.2688 34.1771 30.0961 34.1074C29.9234 34.0377 29.7665 33.9339 29.6348 33.8022L24.7495 28.9151C24.6134 28.7883 24.5042 28.6353 24.4285 28.4654C24.3528 28.2955 24.3121 28.1121 24.3088 27.9261C24.3055 27.7401 24.3397 27.5553 24.4094 27.3828C24.4791 27.2103 24.5828 27.0536 24.7143 26.9221C24.8459 26.7906 25.0025 26.6869 25.175 26.6172C25.3475 26.5475 25.5323 26.5133 25.7183 26.5166C25.9043 26.5199 26.0877 26.5606 26.2576 26.6363C26.4275 26.712 26.5805 26.8212 26.7073 26.9573L30.5749 30.823L36.9895 22.6501C37.0009 22.6358 37.0133 22.6222 37.0264 22.6095H37.0246Z" fill="#00CC9E"/>
<path d="M37.0246 22.6095L34.9126 20.4789C34.0491 21.3348 33.7876 22.6272 34.2504 23.7514C34.7132 24.8757 35.8088 25.6095 37.0246 25.6095V22.6095ZM39.0027 24.5488L36.8307 22.4794C36.7711 22.542 36.7141 22.6072 36.6601 22.6747L39.0027 24.5488ZM31.6295 33.7653L33.8281 35.8065C33.8781 35.7525 33.9262 35.6968 33.9721 35.6394L31.6295 33.7653ZM29.6348 33.8022L27.5131 35.9231L27.5133 35.9234L29.6348 33.8022ZM24.7495 28.9151L26.8712 26.7942C26.8461 26.7691 26.8206 26.7444 26.7947 26.7202L24.7495 28.9151ZM26.7073 26.9573L24.5125 29.0024C24.5367 29.0284 24.5614 29.054 24.5865 29.0791L26.7073 26.9573ZM30.5749 30.823L28.4541 32.9448C29.061 33.5514 29.8986 33.8691 30.7551 33.8176C31.6116 33.7661 32.4051 33.3502 32.9348 32.6752L30.5749 30.823ZM36.9895 22.6501L34.647 20.7759C34.6411 20.7832 34.6353 20.7905 34.6296 20.7979L36.9895 22.6501ZM37.0264 22.6095L39.1147 24.7633C39.9919 23.9128 40.2657 22.6152 39.8069 21.4828C39.348 20.3504 38.2483 19.6095 37.0264 19.6095V22.6095ZM39.1366 24.74C38.8353 25.0387 38.4285 25.2068 38.0043 25.208L37.9877 19.208C36.8355 19.2112 35.7309 19.6677 34.9126 20.4789L39.1366 24.74ZM38.0043 25.208C37.58 25.2092 37.1723 25.0433 36.8694 24.7463L41.0698 20.4619C40.247 19.6553 39.1399 19.2048 37.9877 19.208L38.0043 25.208ZM36.8694 24.7463C36.5664 24.4493 36.3925 24.045 36.3853 23.6208L42.3844 23.5185C42.3648 22.3665 41.8925 21.2685 41.0698 20.4619L36.8694 24.7463ZM36.3853 23.6208C36.378 23.1966 36.538 22.7866 36.8307 22.4794L41.1747 26.6182C41.9695 25.784 42.404 24.6705 42.3844 23.5185L36.3853 23.6208ZM36.6601 22.6747L29.2869 31.8912L33.9721 35.6394L41.3453 26.4229L36.6601 22.6747ZM29.431 31.7241C29.5787 31.565 29.757 31.4373 29.9552 31.3487L32.4045 36.826C32.9427 36.5853 33.4269 36.2385 33.8281 35.8065L29.431 31.7241ZM29.9552 31.3487C30.1534 31.2601 30.3674 31.2123 30.5845 31.2083L30.6955 37.2073C31.2851 37.1963 31.8663 37.0667 32.4045 36.826L29.9552 31.3487ZM30.5845 31.2083C30.8015 31.2043 31.0172 31.2441 31.2185 31.3253L28.9736 36.8895C29.5204 37.1101 30.106 37.2182 30.6955 37.2073L30.5845 31.2083ZM31.2185 31.3253C31.4198 31.4065 31.6027 31.5275 31.7562 31.681L27.5133 35.9234C27.9302 36.3403 28.4269 36.6689 28.9736 36.8895L31.2185 31.3253ZM31.7565 31.6813L26.8712 26.7942L22.6278 31.036L27.5131 35.9231L31.7565 31.6813ZM26.7947 26.7202C26.9533 26.8681 27.0805 27.0463 27.1688 27.2444L21.6882 29.6864C21.9279 30.2243 22.2735 30.7084 22.7043 31.1099L26.7947 26.7202ZM27.1688 27.2444C27.2571 27.4425 27.3045 27.6563 27.3083 27.8731L21.3093 27.979C21.3197 28.5678 21.4485 29.1485 21.6882 29.6864L27.1688 27.2444ZM27.3083 27.8731C27.3122 28.09 27.2723 28.3053 27.1911 28.5064L21.6278 26.2593C21.4072 26.8053 21.2989 27.3902 21.3093 27.979L27.3083 27.8731ZM27.1911 28.5064C27.1099 28.7074 26.989 28.8901 26.8356 29.0434L22.593 24.8008C22.1766 25.2172 21.8483 25.7132 21.6278 26.2593L27.1911 28.5064ZM26.8356 29.0434C26.6823 29.1968 26.4997 29.3176 26.2986 29.3989L24.0515 23.8355C23.5054 24.0561 23.0094 24.3844 22.593 24.8008L26.8356 29.0434ZM26.2986 29.3989C26.0975 29.4801 25.8822 29.5199 25.6654 29.5161L25.7712 23.5171C25.1824 23.5067 24.5975 23.615 24.0515 23.8355L26.2986 29.3989ZM25.6654 29.5161C25.4485 29.5123 25.2347 29.4648 25.0366 29.3766L27.4786 23.896C26.9407 23.6563 26.36 23.5274 25.7712 23.5171L25.6654 29.5161ZM25.0366 29.3766C24.8386 29.2883 24.6603 29.1611 24.5125 29.0024L28.9021 24.9121C28.5007 24.4813 28.0165 24.1357 27.4786 23.896L25.0366 29.3766ZM24.5865 29.0791L28.4541 32.9448L32.6957 28.7012L28.8281 24.8354L24.5865 29.0791ZM32.9348 32.6752L39.3494 24.5023L34.6296 20.7979L28.215 28.9708L32.9348 32.6752ZM39.332 24.5243C39.2648 24.6083 39.1922 24.6882 39.1147 24.7633L34.9381 20.4556C34.8344 20.5562 34.7371 20.6632 34.647 20.7759L39.332 24.5243ZM37.0264 19.6095H37.0246V25.6095H37.0264V19.6095Z" fill="white" mask="url(#path-4-outside-1_5005_49560)"/>
<defs>
<filter id="filter0_d_5005_49560" x="9.3877" y="8.30273" width="17.5679" height="20.0866" filterUnits="userSpaceOnUse" color-interpolation-filters="sRGB">
<feFlood flood-opacity="0" result="BackgroundImageFix"/>
<feColorMatrix in="SourceAlpha" type="matrix" values="0 0 0 0 0 0 0 0 0 0 0 0 0 0 0 0 0 0 127 0" result="hardAlpha"/>
<feOffset dx="0.813967" dy="0.915713"/>
<feColorMatrix type="matrix" values="0 0 0 0 1 0 0 0 0 0 0 0 0 0 0.290196 0 0 0 1 0"/>
<feBlend mode="normal" in2="BackgroundImageFix" result="effect1_dropShadow_5005_49560"/>
<feBlend mode="normal" in="SourceGraphic" in2="effect1_dropShadow_5005_49560" result="shape"/>
</filter>
</defs>
</svg>
