<svg width="36" height="36" viewBox="0 0 36 36" fill="none" xmlns="http://www.w3.org/2000/svg">
<circle cx="17.9996" cy="17.9996" r="17.607" fill="black"/>
<path d="M18.1597 7.98112C19.2177 7.96484 20.2697 7.97449 21.3204 7.96484C21.3841 9.19515 21.8291 10.4484 22.735 11.3182C23.639 12.2097 24.9177 12.6178 26.1619 12.7559V15.9923C24.9959 15.9543 23.8245 15.7132 22.7665 15.2141C22.3057 15.0067 21.8764 14.7397 21.4562 14.4666C21.4508 16.8151 21.4659 19.1606 21.4411 21.4994C21.378 22.623 21.0051 23.7412 20.3479 24.6671C19.2904 26.2085 17.4551 27.2133 15.5701 27.2447C14.4138 27.3104 13.2588 26.9969 12.2735 26.4195C10.6407 25.4622 9.49168 23.7099 9.32434 21.8292C9.30326 21.4309 9.30002 21.0318 9.31464 20.6332C9.46016 19.1039 10.2211 17.6409 11.4022 16.6457C12.741 15.4865 14.6163 14.9344 16.3722 15.2611C16.3886 16.4516 16.3407 17.6409 16.3407 18.8315C15.5385 18.5735 14.6012 18.6458 13.9002 19.1298C13.3874 19.4657 12.9999 19.9598 12.7973 20.5362C12.63 20.9437 12.6779 21.3964 12.6876 21.8292C12.8798 23.1481 14.1555 24.2566 15.5173 24.1367C16.4201 24.127 17.2853 23.6062 17.7558 22.8437C17.908 22.5766 18.0784 22.3036 18.0875 21.9895C18.1669 20.5518 18.1354 19.1202 18.1451 17.6825C18.1518 14.4425 18.1354 11.2115 18.1603 7.98172L18.1597 7.98112Z" fill="#17FFFF"/>
<g filter="url(#filter0_d_1826_41244)">
<path d="M18.6909 8.76432C19.7489 8.74805 20.8009 8.75769 21.8517 8.74805C21.9153 9.97835 22.3604 11.2316 23.2662 12.1014C24.1702 12.9929 25.449 13.401 26.6931 13.5391V16.7755C25.5272 16.7375 24.3558 16.4964 23.2977 15.9973C22.8369 15.7899 22.4077 15.5229 21.9875 15.2498C21.982 17.5983 21.9972 19.9438 21.9723 22.2826C21.9093 23.4062 21.5364 24.5244 20.8791 25.4503C19.8217 26.9917 17.9864 27.9965 16.1013 28.0279C14.9451 28.0936 13.79 27.7801 12.8047 27.2027C11.1719 26.2454 10.0229 24.4931 9.85559 22.6124C9.83451 22.2141 9.83127 21.815 9.84589 21.4164C9.99141 19.8871 10.7523 18.4241 11.9335 17.4289C13.2722 16.2697 15.1476 15.7176 16.9035 16.0443C16.9198 17.2348 16.8719 18.4241 16.8719 19.6147C16.0698 19.3567 15.1324 19.429 14.4315 19.913C13.9187 20.2489 13.5312 20.743 13.3286 21.3194C13.1613 21.7269 13.2092 22.1796 13.2189 22.6124C13.4111 23.9313 14.6868 25.0398 16.0486 24.9199C16.9514 24.9102 17.8166 24.3894 18.2871 23.6269C18.4393 23.3598 18.6097 23.0868 18.6188 22.7727C18.6982 21.335 18.6667 19.9034 18.6764 18.4657C18.683 15.2257 18.6667 11.9947 18.6915 8.76493L18.6909 8.76432Z" fill="white"/>
</g>
<defs>
<filter id="filter0_d_1826_41244" x="9.83691" y="8.74805" width="17.4536" height="19.9609" filterUnits="userSpaceOnUse" color-interpolation-filters="sRGB">
<feFlood flood-opacity="0" result="BackgroundImageFix"/>
<feColorMatrix in="SourceAlpha" type="matrix" values="0 0 0 0 0 0 0 0 0 0 0 0 0 0 0 0 0 0 127 0" result="hardAlpha"/>
<feOffset dx="0.597146" dy="0.67179"/>
<feColorMatrix type="matrix" values="0 0 0 0 1 0 0 0 0 0 0 0 0 0 0.290196 0 0 0 1 0"/>
<feBlend mode="normal" in2="BackgroundImageFix" result="effect1_dropShadow_1826_41244"/>
<feBlend mode="normal" in="SourceGraphic" in2="effect1_dropShadow_1826_41244" result="shape"/>
</filter>
</defs>
</svg>
