<svg width="25" height="24" viewBox="0 0 25 24" fill="none" xmlns="http://www.w3.org/2000/svg">
<circle cx="12.1384" cy="12" r="12" fill="#D6D6E8"/>
<path d="M12.2476 5.17125C12.9686 5.16016 13.6856 5.16673 14.4018 5.16016C14.4451 5.99867 14.7485 6.85279 15.3658 7.44563C15.982 8.05325 16.8535 8.33139 17.7015 8.42547V10.6312C16.9068 10.6054 16.1084 10.441 15.3873 10.1009C15.0733 9.95952 14.7807 9.77752 14.4943 9.59142C14.4906 11.192 14.5009 12.7906 14.484 14.3846C14.441 15.1504 14.1869 15.9125 13.7389 16.5436C13.0182 17.5941 11.7674 18.2789 10.4826 18.3003C9.69457 18.3451 8.90736 18.1314 8.23585 17.7379C7.123 17.0854 6.33992 15.8912 6.22586 14.6093C6.2115 14.3379 6.20929 14.0659 6.21925 13.7943C6.31843 12.752 6.83704 11.7549 7.64203 11.0766C8.55445 10.2865 9.83259 9.91022 11.0293 10.1329C11.0405 10.9443 11.0078 11.7549 11.0078 12.5663C10.4611 12.3904 9.82226 12.4397 9.34456 12.7696C8.99506 12.9985 8.73095 13.3353 8.59288 13.7281C8.47883 14.0058 8.51148 14.3144 8.51809 14.6093C8.64908 15.5083 9.51853 16.2638 10.4467 16.182C11.062 16.1754 11.6517 15.8205 11.9723 15.3008C12.0761 15.1188 12.1922 14.9327 12.1984 14.7186C12.2525 13.7388 12.231 12.7631 12.2376 11.7832C12.2422 9.57498 12.231 7.37291 12.248 5.17166L12.2476 5.17125Z" fill="#D6D6E8"/>
<path d="M12.6099 5.70445C13.331 5.69336 14.0479 5.69993 14.7641 5.69336C14.8075 6.53187 15.1108 7.386 15.7281 7.97883C16.3443 8.58646 17.2158 8.86459 18.0638 8.95867V11.1644C17.2691 11.1386 16.4707 10.9742 15.7496 10.6341C15.4356 10.4927 15.143 10.3107 14.8566 10.1246C14.8529 11.7252 14.8632 13.3238 14.8463 14.9178C14.8033 15.6836 14.5492 16.4457 14.1012 17.0768C13.3805 18.1273 12.1297 18.8121 10.8449 18.8335C10.0569 18.8783 9.26966 18.6646 8.59815 18.2711C7.48531 17.6186 6.70222 16.4244 6.58817 15.1426C6.5738 14.8711 6.5716 14.5991 6.58156 14.3275C6.68073 13.2852 7.19935 12.2881 8.00433 11.6098C8.91676 10.8198 10.1949 10.4434 11.3916 10.6661C11.4028 11.4775 11.3701 12.2881 11.3701 13.0995C10.8234 12.9236 10.1846 12.9729 9.70687 13.3028C9.35737 13.5317 9.09325 13.8685 8.95519 14.2613C8.84114 14.539 8.87378 14.8476 8.88039 15.1426C9.01139 16.0415 9.88084 16.797 10.809 16.7152C11.4243 16.7086 12.014 16.3537 12.3346 15.834C12.4384 15.652 12.5545 15.4659 12.5607 15.2518C12.6148 14.272 12.5933 13.2963 12.5999 12.3164C12.6045 10.1082 12.5933 7.90611 12.6103 5.70486L12.6099 5.70445Z" fill="white"/>
</svg>
