<svg width="41" height="41" viewBox="0 0 41 41" fill="none" xmlns="http://www.w3.org/2000/svg">
<circle cx="20.8673" cy="20.249" r="20" fill="black"/>
<path d="M21.0492 8.8681C22.251 8.84961 23.446 8.86056 24.6395 8.84961C24.7118 10.2471 25.2174 11.6707 26.2463 12.6587C27.2732 13.6714 28.7257 14.135 30.139 14.2918V17.9681C28.8146 17.9249 27.484 17.6511 26.2821 17.0841C25.7587 16.8486 25.2711 16.5452 24.7938 16.235C24.7876 18.9027 24.8048 21.567 24.7766 24.2237C24.705 25.5 24.2814 26.7702 23.5348 27.8219C22.3337 29.5728 20.2489 30.7142 18.1076 30.7498C16.7942 30.8245 15.4822 30.4684 14.363 29.8124C12.5083 28.7251 11.2031 26.7346 11.013 24.5983C10.9891 24.1458 10.9854 23.6925 11.002 23.2398C11.1673 21.5026 12.0317 19.8408 13.3733 18.7103C14.894 17.3936 17.0243 16.7664 19.0188 17.1375C19.0374 18.4898 18.983 19.8408 18.983 21.1931C18.0718 20.9001 17.007 20.9822 16.2109 21.5321C15.6284 21.9136 15.1882 22.4749 14.9581 23.1295C14.768 23.5924 14.8224 24.1066 14.8334 24.5983C15.0517 26.0964 16.5008 27.3556 18.0477 27.2194C19.0732 27.2084 20.056 26.6168 20.5905 25.7507C20.7634 25.4473 20.9569 25.1371 20.9672 24.7804C21.0574 23.1473 21.0216 21.5211 21.0327 19.888C21.0402 16.2077 21.0216 12.5375 21.0499 8.86878L21.0492 8.8681Z" fill="#17FFFF"/>
<g filter="url(#filter0_d)">
<path d="M21.6531 9.75677C22.8549 9.73828 24.0498 9.74924 25.2434 9.73828C25.3157 11.1358 25.8212 12.5593 26.8502 13.5474C27.8771 14.5601 29.3296 15.0237 30.7429 15.1805V18.8568C29.4185 18.8136 28.0879 18.5397 26.886 17.9728C26.3626 17.7372 25.875 17.4339 25.3977 17.1237C25.3915 19.7914 25.4087 22.4557 25.3805 25.1124C25.3088 26.3887 24.8853 27.6589 24.1387 28.7106C22.9375 30.4615 20.8528 31.6029 18.7115 31.6385C17.3981 31.7131 16.0861 31.3571 14.9669 30.7011C13.1121 29.6138 11.807 27.6233 11.6169 25.4869C11.593 25.0345 11.5893 24.5812 11.6059 24.1284C11.7712 22.3913 12.6355 20.7295 13.9772 19.599C15.4979 18.2823 17.6281 17.6551 19.6227 18.0262C19.6413 19.3785 19.5869 20.7295 19.5869 22.0818C18.6757 21.7887 17.6109 21.8709 16.8147 22.4207C16.2323 22.8022 15.7921 23.3635 15.562 24.0182C15.3719 24.4811 15.4263 24.9953 15.4373 25.4869C15.6556 26.9851 17.1047 28.2443 18.6516 28.1081C19.6771 28.0971 20.6599 27.5055 21.1944 26.6393C21.3672 26.336 21.5608 26.0258 21.5711 25.6691C21.6613 24.036 21.6255 22.4098 21.6365 20.7767C21.6441 17.0963 21.6255 13.4262 21.6538 9.75745L21.6531 9.75677Z" fill="white"/>
</g>
<defs>
<filter id="filter0_d" x="11.5957" y="9.73828" width="19.9612" height="22.8257" filterUnits="userSpaceOnUse" color-interpolation-filters="sRGB">
<feFlood flood-opacity="0" result="BackgroundImageFix"/>
<feColorMatrix in="SourceAlpha" type="matrix" values="0 0 0 0 0 0 0 0 0 0 0 0 0 0 0 0 0 0 127 0"/>
<feOffset dx="0.813967" dy="0.915713"/>
<feColorMatrix type="matrix" values="0 0 0 0 1 0 0 0 0 0 0 0 0 0 0.290196 0 0 0 1 0"/>
<feBlend mode="normal" in2="BackgroundImageFix" result="effect1_dropShadow"/>
<feBlend mode="normal" in="SourceGraphic" in2="effect1_dropShadow" result="shape"/>
</filter>
</defs>
</svg>
