<svg width="16" height="19" viewBox="0 0 16 19" fill="none" xmlns="http://www.w3.org/2000/svg">
<path d="M8.56638 0.578211C9.52424 0.563477 10.4766 0.572208 11.4279 0.563477C11.4855 1.6773 11.8884 2.81186 12.7085 3.59935C13.5269 4.40647 14.6846 4.77593 15.811 4.9009V7.8309C14.7554 7.79652 13.6949 7.57823 12.737 7.12637C12.3199 6.93864 11.9312 6.69688 11.5508 6.44967C11.5459 8.57581 11.5596 10.6992 11.5371 12.8166C11.48 13.8339 11.1424 14.8462 10.5474 15.6844C9.59011 17.0798 7.92854 17.9896 6.22196 18.0179C5.17517 18.0774 4.12949 17.7937 3.2375 17.2708C1.75926 16.4042 0.719067 14.8178 0.567566 13.1152C0.548483 12.7546 0.545553 12.3933 0.558784 12.0324C0.690524 10.6479 1.37941 9.32345 2.4487 8.42246C3.66071 7.37303 5.35851 6.87315 6.94817 7.16893C6.96299 8.24674 6.91963 9.32346 6.91963 10.4013C6.19341 10.1677 5.34479 10.2332 4.71024 10.6714C4.24599 10.9755 3.89515 11.4228 3.71176 11.9446C3.56026 12.3135 3.60362 12.7233 3.61241 13.1152C3.78641 14.3092 4.94133 15.3128 6.1742 15.2042C6.99154 15.1955 7.77484 14.724 8.2008 14.0336C8.33858 13.7919 8.49282 13.5446 8.50106 13.2603C8.57296 11.9588 8.54442 10.6627 8.5532 9.36111C8.55924 6.42784 8.54442 3.50275 8.56693 0.578757L8.56638 0.578211Z" fill="#7277F7"/>
</svg>
