<svg width="33" height="33" viewBox="0 0 33 33" fill="none" xmlns="http://www.w3.org/2000/svg">
<circle cx="16.5" cy="16.5" r="16.5" fill="black"/>
<path d="M16.6501 7.11096C17.6416 7.0957 18.6274 7.10474 19.6121 7.0957C19.6718 8.24866 20.0889 9.42308 20.9377 10.2382C21.7849 11.0737 22.9833 11.4561 24.1492 11.5855V14.6184C23.0566 14.5829 21.9588 14.3569 20.9673 13.8892C20.5355 13.6948 20.1332 13.4446 19.7394 13.1887C19.7343 15.3895 19.7485 17.5875 19.7252 19.7793C19.6661 20.8323 19.3167 21.8802 18.7007 22.7479C17.7098 24.1923 15.9899 25.134 14.2233 25.1634C13.1398 25.225 12.0573 24.9312 11.134 24.39C9.60385 23.493 8.52711 21.8508 8.37028 20.0883C8.35053 19.7151 8.3475 19.3411 8.36119 18.9676C8.49756 17.5344 9.21065 16.1634 10.3175 15.2308C11.5721 14.1445 13.3295 13.627 14.9751 13.9332C14.9904 15.0489 14.9455 16.1634 14.9455 17.2791C14.1938 17.0373 13.3153 17.1051 12.6585 17.5587C12.1779 17.8735 11.8148 18.3365 11.6249 18.8766C11.4681 19.2585 11.513 19.6827 11.5221 20.0883C11.7022 21.3243 12.8977 22.3632 14.1739 22.2508C15.0199 22.2417 15.8308 21.7537 16.2717 21.0391C16.4143 20.7888 16.574 20.5329 16.5825 20.2386C16.6569 18.8913 16.6274 17.5497 16.6365 16.2024C16.6427 13.1661 16.6274 10.1382 16.6507 7.11152L16.6501 7.11096Z" fill="#17FFFF"/>
<g filter="url(#filter0_d_4942_49221)">
<path d="M17.1484 7.84435C18.1399 7.8291 19.1257 7.83814 20.1104 7.8291C20.1701 8.98206 20.5871 10.1565 21.436 10.9716C22.2832 11.8071 23.4816 12.1895 24.6475 12.3189V15.3518C23.5549 15.3163 22.4571 15.0903 21.4656 14.6226C21.0338 14.4282 20.6315 14.178 20.2377 13.9221C20.2326 16.1229 20.2468 18.3209 20.2235 20.5127C20.1644 21.5657 19.815 22.6136 19.199 23.4813C18.2081 24.9257 16.4881 25.8674 14.7216 25.8968C13.6381 25.9583 12.5556 25.6646 11.6323 25.1234C10.1021 24.2264 9.0254 22.5842 8.86858 20.8217C8.84882 20.4485 8.84579 20.0745 8.85948 19.701C8.99585 18.2678 9.70894 16.8968 10.8158 15.9642C12.0704 14.8779 13.8278 14.3604 15.4733 14.6666C15.4887 15.7823 15.4438 16.8968 15.4438 18.0125C14.6921 17.7707 13.8136 17.8385 13.1568 18.2921C12.6762 18.6069 12.3131 19.0699 12.1232 19.61C11.9664 19.9919 12.0113 20.4161 12.0204 20.8217C12.2005 22.0577 13.396 23.0966 14.6722 22.9842C15.5182 22.9751 16.3291 22.4871 16.77 21.7725C16.9126 21.5222 17.0723 21.2663 17.0808 20.972C17.1552 19.6247 17.1257 18.2831 17.1348 16.9358C17.141 13.8995 17.1257 10.8716 17.149 7.84492L17.1484 7.84435Z" fill="white"/>
</g>
<defs>
<filter id="filter0_d_4942_49221" x="8.85107" y="7.8291" width="16.6104" height="18.9919" filterUnits="userSpaceOnUse" color-interpolation-filters="sRGB">
<feFlood flood-opacity="0" result="BackgroundImageFix"/>
<feColorMatrix in="SourceAlpha" type="matrix" values="0 0 0 0 0 0 0 0 0 0 0 0 0 0 0 0 0 0 127 0" result="hardAlpha"/>
<feOffset dx="0.813967" dy="0.915713"/>
<feColorMatrix type="matrix" values="0 0 0 0 1 0 0 0 0 0 0 0 0 0 0.290196 0 0 0 1 0"/>
<feBlend mode="normal" in2="BackgroundImageFix" result="effect1_dropShadow_4942_49221"/>
<feBlend mode="normal" in="SourceGraphic" in2="effect1_dropShadow_4942_49221" result="shape"/>
</filter>
</defs>
</svg>
