<svg width="79" height="41" viewBox="0 0 79 41" fill="none" xmlns="http://www.w3.org/2000/svg">
<rect y="0.23291" width="78.3673" height="40" rx="20" fill="#D8DAFF"/>
<ellipse cx="19.3198" cy="19.9468" rx="16.7378" ry="17.145" fill="white"/>
<path d="M13.3612 14.9149H8.20125V23.3389H13.3612V21.6949H10.2532V19.8469H13.0012V18.2629H10.2532V16.5589H13.3612V14.9149ZM19.5054 17.6509C19.5054 18.3109 19.1454 18.7069 18.3774 18.7069H17.1054V16.6189H18.3774C19.1454 16.6189 19.5054 17.0269 19.5054 17.6509ZM15.0534 14.9149V23.3389H17.1054V20.1589H17.5974L19.3494 23.3389H21.6654L19.7214 20.0029C21.0174 19.6189 21.5934 18.6229 21.5934 17.5669C21.5934 16.1029 20.5614 14.9149 18.4974 14.9149H15.0534ZM22.8936 19.1149C22.8936 21.6349 24.6456 23.3989 27.1296 23.3989C29.1336 23.3989 30.6456 22.2829 31.1256 20.4589H28.8696C28.5216 21.1789 27.8856 21.5389 27.1056 21.5389C25.8456 21.5389 24.9816 20.6029 24.9816 19.1149C24.9816 17.6269 25.8456 16.6909 27.1056 16.6909C27.8856 16.6909 28.5216 17.0509 28.8696 17.7709H31.1256C30.6456 15.9469 29.1336 14.8189 27.1296 14.8189C24.6456 14.8189 22.8936 16.5949 22.8936 19.1149Z" fill="#4048FF" fill-opacity="0.7"/>
<ellipse cx="57.7111" cy="19.6567" rx="17.0646" ry="17.145" fill="white"/>
<path d="M51.5912 20.4808C51.5912 21.0808 51.1952 21.3928 50.5112 21.3928H48.9992V19.5328H50.4872C51.1712 19.5328 51.5912 19.8808 51.5912 20.4808ZM51.3872 17.1568C51.3872 17.7328 51.0152 18.0328 50.3432 18.0328H48.9992V16.2688H50.3432C51.0152 16.2688 51.3872 16.5808 51.3872 17.1568ZM53.6672 20.7568C53.6672 19.7968 53.0312 18.9328 52.0472 18.7288C52.8632 18.4888 53.4752 17.8288 53.4752 16.8088C53.4752 15.4768 52.4552 14.6248 50.7392 14.6248H46.9472V23.0488H50.8712C52.6472 23.0488 53.6672 22.1488 53.6672 20.7568ZM60.3773 14.6248H55.2173V23.0488H60.3773V21.4048H57.2693V19.5568H60.0173V17.9728H57.2693V16.2688H60.3773V14.6248ZM64.1215 18.3928V16.2808H65.2375C66.0535 16.2808 66.4015 16.6888 66.4015 17.3368C66.4015 17.9848 66.0535 18.3928 65.2375 18.3928H64.1215ZM68.4895 17.3368C68.4895 15.7888 67.4575 14.6248 65.3935 14.6248H62.0695V23.0488H64.1215V20.0248H65.3935C67.5415 20.0248 68.4895 18.7288 68.4895 17.3368Z" fill="#4048FF" fill-opacity="0.7"/>
</svg>
