<svg width="15" height="15" viewBox="0 0 15 15" fill="none" xmlns="http://www.w3.org/2000/svg">
<path d="M12.0623 6.48976C11.9888 6.18176 11.8903 5.79138 11.7702 5.64269H11.5173H11.1127H10.7761H9.15718H3.29606C3.87179 4.3045 5.34857 3.50062 7.03612 3.50062C8.05085 3.50062 8.98908 3.70975 9.70131 4.3045H11.0321C10.7818 4.08147 10.4848 3.74045 10.1472 3.5059C9.27888 2.90237 8.17389 2.57422 7.03612 2.57422C5.89828 2.57422 4.79337 2.90869 3.92495 3.51207C3.04247 4.12533 2.43679 5.00519 2.21941 5.96713L2.09376 6.53482H5.67049V7.72432H1.87891V8.61645H5.67049V12.5567H6.56262V8.61645H7.38041V12.5567H8.29423V8.61645H11.2327H12.1242H12.1577C12.2658 7.87301 12.2356 7.21477 12.0623 6.48976ZM7.38041 7.72432H6.56262V6.53482H7.38041V7.72432ZM8.29423 7.72432V6.53482H11.1168C11.1353 6.53482 11.1531 6.65347 11.1691 6.72001C11.2508 7.06191 11.296 7.42694 11.3054 7.72432H8.29423Z" fill="#1F2337"/>
<path d="M7.05029 0.777344C3.19054 0.777344 0.0502933 3.91756 0.0502933 7.77735C0.0502933 11.6371 3.19054 14.7773 7.05029 14.7773C10.9101 14.7773 14.0503 11.6371 14.0503 7.77735C14.0503 3.91756 10.9101 0.777344 7.05029 0.777344ZM7.05029 13.7996C3.72961 13.7996 1.02815 11.0981 1.02815 7.77735C1.02815 4.45663 3.72969 1.75519 7.05029 1.75519C10.371 1.75519 13.0725 4.4567 13.0725 7.77735C13.0725 11.0981 10.371 13.7996 7.05029 13.7996Z" fill="#1F2337"/>
</svg>
