<svg width="12" height="11" viewBox="0 0 12 11" fill="none" xmlns="http://www.w3.org/2000/svg">
<path d="M11.0623 4.48976C10.9888 4.18176 10.8903 3.79138 10.7702 3.64269H10.5173H10.1127H9.77611H8.15718H2.29606C2.87179 2.3045 4.34857 1.50062 6.03612 1.50062C7.05085 1.50062 7.98908 1.70975 8.70131 2.3045H10.0321C9.78176 2.08147 9.48483 1.74045 9.14715 1.5059C8.27888 0.902371 7.17389 0.574219 6.03612 0.574219C4.89828 0.574219 3.79337 0.908691 2.92495 1.51207C2.04247 2.12533 1.43679 3.00519 1.21941 3.96713L1.09376 4.53482H4.67049V5.72432H0.878906V6.61645H4.67049V10.5567H5.56262V6.61645H6.38041V10.5567H7.29423V6.61645H10.2327H11.1242H11.1577C11.2658 5.87301 11.2356 5.21477 11.0623 4.48976ZM6.38041 5.72432H5.56262V4.53482H6.38041V5.72432ZM7.29423 5.72432V4.53482H10.1168C10.1353 4.53482 10.1531 4.65347 10.1691 4.72001C10.2508 5.06191 10.296 5.42694 10.3054 5.72432H7.29423Z" fill="#1F2337"/>
</svg>
