<svg width="209" height="57" viewBox="0 0 209 57" fill="none" xmlns="http://www.w3.org/2000/svg">
<g filter="url(#filter0_d)">
<rect x="4.01074" y="0.930176" width="200" height="48" rx="24" fill="white"/>
</g>
<path d="M102.657 18.4009V20.7409H97.2751V24.0619H101.757V26.4109H97.2751V31.5139H94.2151V18.4009H102.657ZM107.655 22.1809V31.5139H104.865V22.1809H107.655ZM107.979 19.6249C107.979 19.8469 107.934 20.0569 107.844 20.2549C107.754 20.4469 107.631 20.6179 107.475 20.7679C107.319 20.9119 107.136 21.0289 106.926 21.1189C106.722 21.2029 106.503 21.2449 106.269 21.2449C106.041 21.2449 105.828 21.2029 105.63 21.1189C105.432 21.0289 105.255 20.9119 105.099 20.7679C104.949 20.6179 104.829 20.4469 104.739 20.2549C104.655 20.0569 104.613 19.8469 104.613 19.6249C104.613 19.3969 104.655 19.1839 104.739 18.9859C104.829 18.7879 104.949 18.6139 105.099 18.4639C105.255 18.3139 105.432 18.1969 105.63 18.1129C105.828 18.0289 106.041 17.9869 106.269 17.9869C106.503 17.9869 106.722 18.0289 106.926 18.1129C107.136 18.1969 107.319 18.3139 107.475 18.4639C107.631 18.6139 107.754 18.7879 107.844 18.9859C107.934 19.1839 107.979 19.3969 107.979 19.6249ZM113.327 18.0409V31.5139H110.537V18.0409H113.327ZM119.396 31.6579C118.952 31.6579 118.559 31.5949 118.217 31.4689C117.881 31.3369 117.596 31.1539 117.362 30.9199C117.134 30.6799 116.96 30.3919 116.84 30.0559C116.72 29.7199 116.66 29.3449 116.66 28.9309V24.1069H115.868C115.724 24.1069 115.601 24.0619 115.499 23.9719C115.397 23.8759 115.346 23.7379 115.346 23.5579V22.4689L116.831 22.1809L117.38 19.9039C117.452 19.6159 117.656 19.4719 117.992 19.4719H119.45V22.1989H121.718V24.1069H119.45V28.7419C119.45 28.9579 119.501 29.1379 119.603 29.2819C119.711 29.4199 119.864 29.4889 120.062 29.4889C120.164 29.4889 120.248 29.4799 120.314 29.4619C120.386 29.4379 120.446 29.4139 120.494 29.3899C120.548 29.3599 120.596 29.3359 120.638 29.3179C120.686 29.2939 120.74 29.2819 120.8 29.2819C120.884 29.2819 120.95 29.3029 120.998 29.3449C121.052 29.3809 121.106 29.4409 121.16 29.5249L122.006 30.8479C121.646 31.1179 121.241 31.3219 120.791 31.4599C120.341 31.5919 119.876 31.6579 119.396 31.6579ZM123.867 31.5139V22.1809H125.523C125.661 22.1809 125.775 22.1929 125.865 22.2169C125.961 22.2409 126.039 22.2799 126.099 22.3339C126.165 22.3819 126.213 22.4479 126.243 22.5319C126.279 22.6159 126.309 22.7179 126.333 22.8379L126.486 23.7109C126.828 23.1829 127.212 22.7659 127.638 22.4599C128.064 22.1539 128.529 22.0009 129.033 22.0009C129.459 22.0009 129.801 22.1029 130.059 22.3069L129.699 24.3589C129.675 24.4849 129.627 24.5749 129.555 24.6289C129.483 24.6769 129.387 24.7009 129.267 24.7009C129.165 24.7009 129.045 24.6889 128.907 24.6649C128.769 24.6349 128.595 24.6199 128.385 24.6199C127.653 24.6199 127.077 25.0099 126.657 25.7899V31.5139H123.867ZM135.839 22.0369C136.457 22.0369 137.021 22.1329 137.531 22.3249C138.047 22.5169 138.488 22.7959 138.854 23.1619C139.226 23.5279 139.514 23.9779 139.718 24.5119C139.928 25.0399 140.033 25.6399 140.033 26.3119C140.033 26.5219 140.024 26.6929 140.006 26.8249C139.988 26.9569 139.955 27.0619 139.907 27.1399C139.859 27.2179 139.793 27.2719 139.709 27.3019C139.631 27.3319 139.529 27.3469 139.403 27.3469H134.021C134.111 28.1269 134.348 28.6939 134.732 29.0479C135.116 29.3959 135.611 29.5699 136.217 29.5699C136.541 29.5699 136.82 29.5309 137.054 29.4529C137.288 29.3749 137.495 29.2879 137.675 29.1919C137.861 29.0959 138.029 29.0089 138.179 28.9309C138.335 28.8529 138.497 28.8139 138.665 28.8139C138.887 28.8139 139.055 28.8949 139.169 29.0569L139.979 30.0559C139.691 30.3859 139.379 30.6559 139.043 30.8659C138.713 31.0699 138.371 31.2319 138.017 31.3519C137.669 31.4659 137.318 31.5439 136.964 31.5859C136.616 31.6339 136.283 31.6579 135.965 31.6579C135.311 31.6579 134.696 31.5529 134.12 31.3429C133.55 31.1269 133.049 30.8089 132.617 30.3889C132.191 29.9689 131.852 29.4469 131.6 28.8229C131.354 28.1989 131.231 27.4729 131.231 26.6449C131.231 26.0209 131.336 25.4299 131.546 24.8719C131.762 24.3139 132.068 23.8249 132.464 23.4049C132.866 22.9849 133.349 22.6519 133.913 22.4059C134.483 22.1599 135.125 22.0369 135.839 22.0369ZM135.893 23.9629C135.359 23.9629 134.942 24.1159 134.642 24.4219C134.342 24.7219 134.144 25.1569 134.048 25.7269H137.531C137.531 25.5049 137.501 25.2889 137.441 25.0789C137.387 24.8689 137.294 24.6829 137.162 24.5209C137.036 24.3529 136.868 24.2179 136.658 24.1159C136.448 24.0139 136.193 23.9629 135.893 23.9629ZM142.174 31.5139V22.1809H143.83C143.968 22.1809 144.082 22.1929 144.172 22.2169C144.268 22.2409 144.346 22.2799 144.406 22.3339C144.472 22.3819 144.52 22.4479 144.55 22.5319C144.586 22.6159 144.616 22.7179 144.64 22.8379L144.793 23.7109C145.135 23.1829 145.519 22.7659 145.945 22.4599C146.371 22.1539 146.836 22.0009 147.34 22.0009C147.766 22.0009 148.108 22.1029 148.366 22.3069L148.006 24.3589C147.982 24.4849 147.934 24.5749 147.862 24.6289C147.79 24.6769 147.694 24.7009 147.574 24.7009C147.472 24.7009 147.352 24.6889 147.214 24.6649C147.076 24.6349 146.902 24.6199 146.692 24.6199C145.96 24.6199 145.384 25.0099 144.964 25.7899V31.5139H142.174Z" fill="#4048FF"/>
<path fill-rule="evenodd" clip-rule="evenodd" d="M60.821 36.1928V22.749H62.3889V36.1928H60.821Z" fill="#4048FF"/>
<path fill-rule="evenodd" clip-rule="evenodd" d="M60.821 17.4851V14.1929H62.3889V17.4851H60.821Z" fill="#4048FF"/>
<path fill-rule="evenodd" clip-rule="evenodd" d="M61.6069 21.7094C62.4132 21.7094 63.0668 21.0557 63.0668 20.2494C63.0668 19.4431 62.4132 18.7895 61.6069 18.7895C60.8005 18.7895 60.1469 19.4431 60.1469 20.2494C60.1469 21.0557 60.8005 21.7094 61.6069 21.7094ZM61.6069 23.2772C63.279 23.2772 64.6346 21.9216 64.6346 20.2494C64.6346 18.5773 63.279 17.2217 61.6069 17.2217C59.9347 17.2217 58.5791 18.5773 58.5791 20.2494C58.5791 21.9216 59.9347 23.2772 61.6069 23.2772Z" fill="#4048FF"/>
<path fill-rule="evenodd" clip-rule="evenodd" d="M68.3701 26.5251V14.1929H69.9379V26.5251H68.3701Z" fill="#4048FF"/>
<path fill-rule="evenodd" clip-rule="evenodd" d="M68.3701 36.1917V31.4287H69.9379V36.1917H68.3701Z" fill="#4048FF"/>
<path fill-rule="evenodd" clip-rule="evenodd" d="M69.1559 30.435C69.9622 30.435 70.6159 29.7813 70.6159 28.975C70.6159 28.1687 69.9622 27.5151 69.1559 27.5151C68.3496 27.5151 67.696 28.1687 67.696 28.975C67.696 29.7813 68.3496 30.435 69.1559 30.435ZM69.1559 32.0028C70.8281 32.0028 72.1837 30.6472 72.1837 28.975C72.1837 27.3028 70.8281 25.9473 69.1559 25.9473C67.4837 25.9473 66.1282 27.3028 66.1282 28.975C66.1282 30.6472 67.4837 32.0028 69.1559 32.0028Z" fill="#4048FF"/>
<path fill-rule="evenodd" clip-rule="evenodd" d="M75.9192 36.1928V22.749H77.487V36.1928H75.9192Z" fill="#4048FF"/>
<path fill-rule="evenodd" clip-rule="evenodd" d="M75.9192 17.4851V14.1929H77.487V17.4851H75.9192Z" fill="#4048FF"/>
<path fill-rule="evenodd" clip-rule="evenodd" d="M76.7029 21.7094C77.5092 21.7094 78.1629 21.0557 78.1629 20.2494C78.1629 19.4431 77.5092 18.7895 76.7029 18.7895C75.8966 18.7895 75.243 19.4431 75.243 20.2494C75.243 21.0557 75.8966 21.7094 76.7029 21.7094ZM76.7029 23.2772C78.3751 23.2772 79.7307 21.9216 79.7307 20.2494C79.7307 18.5773 78.3751 17.2217 76.7029 17.2217C75.0307 17.2217 73.6752 18.5773 73.6752 20.2494C73.6752 21.9216 75.0307 23.2772 76.7029 23.2772Z" fill="#4048FF"/>
<defs>
<filter id="filter0_d" x="0.0107422" y="0.930176" width="208" height="56" filterUnits="userSpaceOnUse" color-interpolation-filters="sRGB">
<feFlood flood-opacity="0" result="BackgroundImageFix"/>
<feColorMatrix in="SourceAlpha" type="matrix" values="0 0 0 0 0 0 0 0 0 0 0 0 0 0 0 0 0 0 127 0"/>
<feOffset dy="4"/>
<feGaussianBlur stdDeviation="2"/>
<feColorMatrix type="matrix" values="0 0 0 0 0 0 0 0 0 0 0 0 0 0 0 0 0 0 0.25 0"/>
<feBlend mode="normal" in2="BackgroundImageFix" result="effect1_dropShadow"/>
<feBlend mode="normal" in="SourceGraphic" in2="effect1_dropShadow" result="shape"/>
</filter>
</defs>
</svg>
