<svg width="40" height="40" viewBox="0 0 40 40" fill="none" xmlns="http://www.w3.org/2000/svg">
<rect width="39.39" height="39.39" rx="19.695" fill="#FF060A"/>
<g clip-path="url(#clip0_7360_61315)">
<path d="M30.5423 16.8931C29.4461 15.8809 27.9298 14.3351 26.6944 13.2389L26.6215 13.1877C26.4998 13.0901 26.3626 13.0136 26.2157 12.9613C23.2356 12.406 9.3767 9.81473 9.10646 9.84748C9.03026 9.85798 8.95743 9.88557 8.8934 9.92818L8.82515 9.98306C8.7395 10.0696 8.67454 10.1745 8.63515 10.2897L8.6167 10.3358V10.6356C10.1773 14.9821 16.3384 29.2164 17.5513 32.5557C17.6246 32.7821 17.7634 33.2133 18.0231 33.2354H18.0812C18.2195 33.2354 18.8121 32.4515 18.8121 32.4515C18.8121 32.4515 29.3949 19.6196 30.4658 18.2527C30.6045 18.0844 30.7268 17.9032 30.831 17.7117C30.8577 17.562 30.8451 17.4079 30.7945 17.2644C30.7439 17.121 30.657 16.9931 30.5423 16.8931ZM21.5293 18.3878L26.0441 14.6436L28.6935 17.0845L21.5293 18.3878ZM19.7769 18.1429L11.997 11.7701L24.5785 14.0902L19.7769 18.1429ZM20.4788 19.8132L28.4376 18.5303L19.3346 29.4931L20.4788 19.8132ZM10.941 12.406L19.123 19.3475L17.9387 29.5005L10.941 12.406Z" fill="white"/>
</g>
<defs>
<clipPath id="clip0_7360_61315">
<rect width="22.2281" height="23.388" fill="white" transform="translate(8.6167 9.84741)"/>
</clipPath>
</defs>
</svg>
