<svg width="29" height="29" viewBox="0 0 29 29" fill="none" xmlns="http://www.w3.org/2000/svg">
<path fill-rule="evenodd" clip-rule="evenodd" d="M19.3207 8.54988C19.5792 8.29365 19.9282 8.14945 20.2921 8.14844C20.6561 8.14744 21.0058 8.28972 21.2657 8.54452C21.5256 8.79932 21.6748 9.14616 21.681 9.51007C21.6872 9.87398 21.5499 10.2257 21.2989 10.4892L13.9257 19.7057C13.7989 19.8422 13.646 19.9517 13.476 20.0278C13.306 20.1038 13.1224 20.1448 12.9361 20.1482C12.7499 20.1516 12.5649 20.1175 12.3922 20.0478C12.2195 19.9781 12.0626 19.8743 11.9309 19.7426L7.04563 14.8555C6.90953 14.7287 6.80037 14.5758 6.72466 14.4058C6.64894 14.2359 6.60823 14.0525 6.60495 13.8665C6.60167 13.6805 6.63589 13.4957 6.70556 13.3232C6.77523 13.1508 6.87892 12.9941 7.01047 12.8625C7.14201 12.731 7.29869 12.6273 7.47118 12.5576C7.64367 12.488 7.82842 12.4537 8.01442 12.457C8.20041 12.4603 8.38384 12.501 8.55377 12.5767C8.72369 12.6524 8.87662 12.7616 9.00344 12.8977L12.871 16.7634L19.2856 8.59052C19.2971 8.57621 19.3094 8.56264 19.3226 8.54988H19.3207Z" fill="#00CC9E"/>
<circle cx="14.1428" cy="14.1484" r="13" stroke="#00CC9E" stroke-width="2"/>
</svg>
