<svg width="22" height="22" viewBox="0 0 22 22" fill="none" xmlns="http://www.w3.org/2000/svg">
<path fill-rule="evenodd" clip-rule="evenodd" d="M10.8355 8.48291L10.8663 8.9903L10.3534 8.92817C8.48668 8.69001 6.85583 7.88232 5.47115 6.52581L4.79419 5.85274L4.61983 6.34978C4.25058 7.45776 4.48649 8.62788 5.25575 9.41485C5.66603 9.84976 5.57372 9.91189 4.86599 9.65302C4.61983 9.57018 4.40443 9.50805 4.38392 9.53911C4.31212 9.6116 4.55828 10.5539 4.75317 10.9267C5.01985 11.4444 5.56346 11.9518 6.15836 12.2521L6.66095 12.4903L6.06605 12.5006C5.49166 12.5006 5.47115 12.511 5.53269 12.7284C5.73783 13.4015 6.54812 14.116 7.45073 14.4267L8.08666 14.6441L7.53278 14.9755C6.71223 15.4518 5.74808 15.721 4.78394 15.7417C4.32238 15.7521 3.94287 15.7935 3.94287 15.8246C3.94287 15.9281 5.19421 16.508 5.92245 16.7358C8.10717 17.4089 10.7022 17.119 12.651 15.9696C14.0357 15.1515 15.4203 13.5258 16.0665 11.9518C16.4153 11.1131 16.764 9.58053 16.764 8.84533C16.764 8.369 16.7948 8.30687 17.3691 7.73735C17.7076 7.40599 18.0256 7.04356 18.0871 6.94001C18.1897 6.74327 18.1794 6.74327 17.6563 6.9193C16.7845 7.22995 16.6614 7.18853 17.0922 6.72256C17.4102 6.3912 17.7897 5.79061 17.7897 5.61458C17.7897 5.58351 17.6358 5.63529 17.4615 5.72848C17.2768 5.83203 16.8666 5.98735 16.5589 6.08055L16.005 6.25658L15.5024 5.91487C15.2255 5.72848 14.8357 5.52138 14.6306 5.45925C14.1075 5.31428 13.3074 5.33499 12.8356 5.50067C11.5535 5.96664 10.7432 7.16782 10.8355 8.48291Z" fill="#55ACEE"/>
</svg>
