<svg width="30" height="30" viewBox="0 0 30 30" fill="none" xmlns="http://www.w3.org/2000/svg">
<rect width="30" height="30" rx="15" fill="#55ACEE"/>
<path fill-rule="evenodd" clip-rule="evenodd" d="M15.4219 13.0752L15.4505 13.5482L14.9724 13.4903C13.2321 13.2683 11.7117 12.5153 10.4209 11.2507L9.78975 10.6232L9.6272 11.0865C9.28296 12.1195 9.50289 13.2103 10.22 13.944C10.6025 14.3495 10.5165 14.4074 9.85669 14.166C9.6272 14.0888 9.42639 14.0309 9.40727 14.0599C9.34033 14.1274 9.56982 15.0059 9.7515 15.3534C10.0001 15.8361 10.5069 16.3091 11.0615 16.5891L11.5301 16.8111L10.9755 16.8208C10.44 16.8208 10.4209 16.8304 10.4782 17.0332C10.6695 17.6606 11.4249 18.3267 12.2663 18.6163L12.8592 18.8191L12.3428 19.128C11.5779 19.5721 10.679 19.823 9.78019 19.8424C9.34989 19.852 8.99609 19.8906 8.99609 19.9196C8.99609 20.0161 10.1627 20.5567 10.8416 20.7691C12.8783 21.3966 15.2975 21.1263 17.1144 20.0547C18.4052 19.2921 19.6961 17.7765 20.2986 16.3091C20.6237 15.5272 20.9488 14.0985 20.9488 13.4131C20.9488 12.969 20.9775 12.9111 21.5129 12.3801C21.8285 12.0712 22.1249 11.7333 22.1823 11.6368C22.2779 11.4534 22.2684 11.4534 21.7807 11.6175C20.9679 11.9071 20.8532 11.8685 21.2548 11.4341C21.5512 11.1252 21.905 10.5652 21.905 10.4011C21.905 10.3722 21.7616 10.4204 21.599 10.5073C21.4269 10.6039 21.0444 10.7487 20.7575 10.8355L20.2412 10.9997L19.7726 10.6811C19.5145 10.5073 19.1511 10.3143 18.9599 10.2563C18.4722 10.1212 17.7263 10.1405 17.2865 10.2949C16.0912 10.7294 15.3358 11.8492 15.4219 13.0752Z" fill="white"/>
</svg>
