<svg width="31" height="31" viewBox="0 0 31 31" fill="none" xmlns="http://www.w3.org/2000/svg">
<path fill-rule="evenodd" clip-rule="evenodd" d="M0.796631 15.1553C0.796631 6.871 7.51236 0.155273 15.7966 0.155273C24.0809 0.155273 30.7966 6.871 30.7966 15.1553C30.7966 23.4395 24.0809 30.1553 15.7966 30.1553C7.51236 30.1553 0.796631 23.4395 0.796631 15.1553Z" fill="white"/>
<path fill-rule="evenodd" clip-rule="evenodd" d="M15.5869 13.2107L15.6184 13.7298L15.0938 13.6662C13.1842 13.4226 11.5159 12.5964 10.0995 11.2088L9.40698 10.5202L9.22862 11.0287C8.8509 12.1621 9.09222 13.359 9.87913 14.1641C10.2988 14.609 10.2044 14.6725 9.48043 14.4077C9.22862 14.323 9.00828 14.2594 8.9873 14.2912C8.91385 14.3653 9.16566 15.3292 9.36502 15.7106C9.63781 16.2402 10.1939 16.7592 10.8024 17.0664L11.3166 17.3101L10.708 17.3206C10.1205 17.3206 10.0995 17.3312 10.1624 17.5537C10.3723 18.2422 11.2011 18.9731 12.1245 19.2909L12.775 19.5133L12.2084 19.8523C11.369 20.3395 10.3828 20.6149 9.39649 20.6361C8.92434 20.6467 8.53613 20.6891 8.53613 20.7208C8.53613 20.8268 9.81618 21.42 10.5611 21.653C12.796 22.3415 15.4505 22.0449 17.444 20.8691C18.8604 20.0323 20.2769 18.3693 20.9379 16.7592C21.2946 15.9012 21.6514 14.3336 21.6514 13.5815C21.6514 13.0942 21.6828 13.0307 22.2704 12.4481C22.6167 12.1091 22.9419 11.7384 23.0049 11.6325C23.1098 11.4312 23.0993 11.4312 22.5642 11.6113C21.6724 11.929 21.5465 11.8867 21.9871 11.41C22.3124 11.0711 22.7006 10.4567 22.7006 10.2766C22.7006 10.2448 22.5432 10.2978 22.3648 10.3931C22.176 10.4991 21.7563 10.6579 21.4415 10.7533L20.875 10.9333L20.3608 10.5838C20.0775 10.3931 19.6788 10.1813 19.469 10.1177C18.9339 9.96943 18.1155 9.99061 17.6329 10.1601C16.3213 10.6368 15.4925 11.8655 15.5869 13.2107Z" fill="#1F2337"/>
</svg>
