<svg width="22" height="18" viewBox="0 0 22 18" fill="none" xmlns="http://www.w3.org/2000/svg">
<path fill-rule="evenodd" clip-rule="evenodd" d="M10.3108 4.66814L10.3568 5.42716L9.58963 5.33422C6.79713 4.97794 4.35753 3.76971 2.28617 1.74051L1.2735 0.733648L1.01266 1.47717C0.460302 3.13462 0.8132 4.885 1.96396 6.06225C2.57769 6.71284 2.4396 6.80578 1.38091 6.41853C1.01266 6.29461 0.690453 6.20166 0.659766 6.24814C0.552363 6.35657 0.920604 7.76617 1.21213 8.32381C1.61106 9.09832 2.42426 9.85734 3.31418 10.3066L4.066 10.6628L3.17608 10.6783C2.31685 10.6783 2.28617 10.6938 2.37823 11.0191C2.6851 12.026 3.89722 13.0948 5.24744 13.5595L6.19874 13.8848L5.37019 14.3805C4.14272 15.093 2.70044 15.4957 1.25816 15.5267C0.567706 15.5422 0 15.6042 0 15.6506C0 15.8055 1.8719 16.673 2.96128 17.0138C6.22942 18.0206 10.1113 17.5869 13.0266 15.8675C15.0979 14.6438 17.1693 12.2118 18.1359 9.85734C18.6576 8.60264 19.1793 6.3101 19.1793 5.2103C19.1793 4.49775 19.2253 4.40481 20.0845 3.55285C20.5908 3.05717 21.0665 2.51501 21.1586 2.36011C21.312 2.0658 21.2966 2.0658 20.5141 2.32913C19.2099 2.79384 19.0258 2.73187 19.6702 2.03482C20.1459 1.53913 20.7136 0.640707 20.7136 0.377375C20.7136 0.330904 20.4834 0.408355 20.2226 0.547766C19.9464 0.702667 19.3327 0.935019 18.8724 1.07443L18.0438 1.33776L17.292 0.826588C16.8777 0.547766 16.2947 0.237963 15.9878 0.145023C15.2053 -0.0718394 14.0085 -0.0408591 13.3027 0.206983C11.3848 0.904039 10.1727 2.70089 10.3108 4.66814Z" fill="#D6D6E8"/>
</svg>
