<svg width="27" height="27" viewBox="0 0 27 27" fill="none" xmlns="http://www.w3.org/2000/svg">
<circle cx="13.2534" cy="13.7501" r="12" stroke="#FFA318" stroke-width="2"/>
<path d="M13.158 17.3312C12.8071 17.3312 12.5072 17.4426 12.259 17.665C12.011 17.8872 11.8862 18.1562 11.8862 18.4734C11.8862 18.8309 12.0117 19.1114 12.2623 19.3155C12.5137 19.5196 12.8063 19.6226 13.1409 19.6226C13.481 19.6226 13.7777 19.5211 14.0316 19.3197C14.2854 19.1175 14.4121 18.8357 14.4121 18.4733C14.4121 18.156 14.2909 17.887 14.0482 17.6648C13.8056 17.4428 13.5092 17.3312 13.1575 17.3312" fill="#FFA318"/>
<path d="M16.7433 9.46721C16.4203 8.97709 15.9588 8.58514 15.3707 8.30114C14.7859 8.01972 14.1048 7.87708 13.3456 7.87708C12.5283 7.87708 11.8009 8.04795 11.1845 8.3851C10.5674 8.7228 10.0906 9.15609 9.76728 9.67279C9.4425 10.1921 9.27734 10.7143 9.27734 11.2255C9.27734 11.498 9.39102 11.7525 9.61394 11.9813C9.83796 12.2116 10.1166 12.3281 10.4421 12.3281C10.9976 12.3281 11.3761 12.0022 11.5687 11.3629C11.7442 10.8343 11.9607 10.431 12.2109 10.1638C12.4464 9.91213 12.8284 9.78443 13.3456 9.78443C13.7918 9.78443 14.1439 9.90955 14.4233 10.1673C14.6984 10.4216 14.8324 10.7246 14.8324 11.0937C14.8324 11.2801 14.7889 11.4475 14.7016 11.6058C14.6087 11.7719 14.493 11.9245 14.3578 12.0603C14.2148 12.2035 13.9787 12.4185 13.6562 12.7012C13.2805 13.0306 12.9773 13.319 12.7566 13.5585C12.5259 13.8075 12.339 14.1002 12.1993 14.4281C12.0598 14.7582 11.9889 15.1522 11.9889 15.5997C11.9889 15.9815 12.0954 16.2771 12.3058 16.4784C12.5139 16.6777 12.7732 16.7792 13.0767 16.7792C13.6571 16.7792 14.0217 16.462 14.1302 15.8686C14.1852 15.6218 14.2269 15.4495 14.2546 15.3515C14.2797 15.2624 14.3161 15.1708 14.3628 15.0795C14.4082 14.9905 14.4799 14.8898 14.5768 14.7796C14.6778 14.6632 14.8141 14.5266 14.9813 14.374C15.6067 13.8149 16.0479 13.4104 16.2926 13.1708C16.5451 12.9241 16.7652 12.6272 16.947 12.2891C17.1341 11.9431 17.229 11.5355 17.229 11.0788C17.2293 10.501 17.0653 9.95826 16.7423 9.46648" fill="#FFA318"/>
</svg>
