<svg width="15" height="16" viewBox="0 0 15 16" fill="none" xmlns="http://www.w3.org/2000/svg">
<path d="M7.5 8.08656e-08C6.96497 7.44855e-08 6.53125 0.433724 6.53125 0.96875L6.53125 12.1925L2.37251 8.03374C1.99419 7.65542 1.38081 7.65542 1.00249 8.03374C0.62417 8.41206 0.62417 9.02544 1.00249 9.40376L6.81499 15.2163C7.19331 15.5946 7.80669 15.5946 8.18501 15.2163L13.9975 9.40376C14.3758 9.02544 14.3758 8.41206 13.9975 8.03374C13.6192 7.65542 13.0058 7.65542 12.6275 8.03374L8.46875 12.1925L8.46875 0.96875C8.46875 0.433724 8.03503 8.72457e-08 7.5 8.08656e-08Z" fill="#212529"/>
</svg>
