<svg width="54" height="54" viewBox="0 0 54 54" fill="none" xmlns="http://www.w3.org/2000/svg">
<path d="M42.7981 0.40625C41.4131 0.40625 40.2883 1.53103 40.2883 2.91607V8.66919H34.5352C33.1483 8.66919 32.0254 9.79396 32.0254 11.179C32.0254 12.5659 33.1483 13.6906 34.5352 13.6906H40.2883V19.4456C40.2883 19.9843 40.4576 20.483 40.7452 20.8907C41.2002 21.535 41.95 21.9554 42.7981 21.9554C44.185 21.9554 45.3098 20.8324 45.3098 19.4456V13.6906H51.0647C52.4498 13.6906 53.5745 12.5659 53.5745 11.179C53.5745 9.79396 52.4498 8.66919 51.0647 8.66919H45.3098V2.91607C45.3098 1.53103 44.185 0.40625 42.7981 0.40625Z" fill="white"/>
<path fill-rule="evenodd" clip-rule="evenodd" d="M29.5716 8.59961C29.062 9.41498 28.769 10.3778 28.769 11.4079C28.769 14.3363 31.1405 16.7151 34.0744 16.7151H37.0319V19.6745C37.0319 20.2405 37.1211 20.7865 37.2867 21.2998C37.4523 21.8148 37.6944 22.2972 38.0002 22.7321C38.9575 24.0862 40.5427 24.9799 42.3373 24.9799C43.3383 24.9799 44.2756 24.7032 45.0746 24.2209V48.5511C45.0746 49.2008 44.9418 49.8196 44.7015 50.382C44.5777 50.6714 44.4249 50.9462 44.2465 51.2029C43.4056 52.4168 42.0042 53.2104 40.4153 53.2104H5.12314C2.54962 53.2104 0.463867 51.1246 0.463867 48.5511V13.2589C0.463867 10.6854 2.54962 8.59961 5.12314 8.59961H29.5716ZM28.3649 30.5164C27.9936 29.9795 27.4112 29.7101 26.8288 29.712C26.2464 29.712 25.6658 29.9795 25.2964 30.5164L17.8688 41.2801L14.995 37.1158C14.6255 36.5807 13.832 36.5807 13.4625 37.1158L7.94965 45.1021C7.76219 45.3733 7.74217 45.69 7.84409 45.9575C7.91507 46.145 8.04611 46.3088 8.21901 46.4198C8.35916 46.509 8.52842 46.5618 8.71588 46.5618H19.7416C19.7817 46.5618 19.8235 46.5618 19.8617 46.5545H35.8853C36.6151 46.5545 37.1993 46.1577 37.5088 45.6081C37.8382 45.0257 37.86 44.2686 37.4196 43.6315L28.3649 30.5164Z" fill="white"/>
</svg>
