<svg width="901" height="376" viewBox="0 0 901 376" fill="none" xmlns="http://www.w3.org/2000/svg">
<rect x="2.09814" y="2.07007" width="897" height="372" rx="28.5" fill="white" stroke="#75758F" stroke-width="3" stroke-dasharray="6 6"/>
<path d="M93.4519 49.2747C93.8679 49.2747 94.2386 49.2054 94.5639 49.0667C94.8946 48.9281 95.1719 48.7334 95.3959 48.4827C95.6253 48.2321 95.7986 47.9281 95.9159 47.5707C96.0386 47.2134 96.0999 46.8134 96.0999 46.3707V39.4427H98.2519V46.3707C98.2519 47.0587 98.1399 47.6961 97.9159 48.2827C97.6973 48.8641 97.3799 49.3681 96.9639 49.7947C96.5479 50.2161 96.0439 50.5467 95.4519 50.7867C94.8599 51.0214 94.1933 51.1387 93.4519 51.1387C92.7106 51.1387 92.0439 51.0214 91.4519 50.7867C90.8599 50.5467 90.3559 50.2161 89.9399 49.7947C89.5293 49.3681 89.2119 48.8641 88.9879 48.2827C88.7693 47.6961 88.6599 47.0587 88.6599 46.3707V39.4427H90.8119V46.3627C90.8119 46.8054 90.8706 47.2054 90.9879 47.5627C91.1106 47.9201 91.2839 48.2267 91.5079 48.4827C91.7319 48.7334 92.0066 48.9281 92.3319 49.0667C92.6626 49.2054 93.0359 49.2747 93.4519 49.2747ZM100.805 53.6907V42.8027H102.013C102.141 42.8027 102.25 42.8321 102.341 42.8907C102.431 42.9494 102.49 43.0401 102.517 43.1627L102.677 43.9227C103.007 43.5441 103.386 43.2374 103.813 43.0027C104.245 42.7681 104.749 42.6507 105.325 42.6507C105.773 42.6507 106.181 42.7441 106.549 42.9307C106.922 43.1174 107.242 43.3894 107.509 43.7467C107.781 44.0987 107.989 44.5361 108.133 45.0587C108.282 45.5761 108.357 46.1707 108.357 46.8427C108.357 47.4561 108.274 48.0241 108.109 48.5467C107.943 49.0694 107.706 49.5227 107.397 49.9067C107.093 50.2907 106.722 50.5921 106.285 50.8107C105.853 51.0241 105.367 51.1307 104.829 51.1307C104.365 51.1307 103.97 51.0614 103.645 50.9227C103.325 50.7787 103.037 50.5814 102.781 50.3307V53.6907H100.805ZM104.645 44.2107C104.234 44.2107 103.882 44.2987 103.589 44.4747C103.301 44.6454 103.031 44.8881 102.781 45.2027V48.8827C103.005 49.1601 103.247 49.3547 103.509 49.4667C103.775 49.5734 104.061 49.6267 104.365 49.6267C104.663 49.6267 104.933 49.5707 105.173 49.4587C105.418 49.3467 105.623 49.1761 105.789 48.9467C105.959 48.7174 106.09 48.4294 106.181 48.0827C106.271 47.7307 106.317 47.3174 106.317 46.8427C106.317 46.3627 106.277 45.9574 106.197 45.6267C106.122 45.2907 106.013 45.0187 105.869 44.8107C105.725 44.6027 105.549 44.4507 105.341 44.3547C105.138 44.2587 104.906 44.2107 104.645 44.2107ZM112.435 39.1227V51.0107H110.459V39.1227H112.435ZM118.659 42.6747C119.273 42.6747 119.827 42.7734 120.323 42.9707C120.825 43.1681 121.251 43.4481 121.603 43.8107C121.955 44.1734 122.227 44.6161 122.419 45.1387C122.611 45.6614 122.707 46.2454 122.707 46.8907C122.707 47.5414 122.611 48.1281 122.419 48.6507C122.227 49.1734 121.955 49.6187 121.603 49.9867C121.251 50.3547 120.825 50.6374 120.323 50.8347C119.827 51.0321 119.273 51.1307 118.659 51.1307C118.046 51.1307 117.489 51.0321 116.987 50.8347C116.486 50.6374 116.057 50.3547 115.699 49.9867C115.347 49.6187 115.073 49.1734 114.875 48.6507C114.683 48.1281 114.587 47.5414 114.587 46.8907C114.587 46.2454 114.683 45.6614 114.875 45.1387C115.073 44.6161 115.347 44.1734 115.699 43.8107C116.057 43.4481 116.486 43.1681 116.987 42.9707C117.489 42.7734 118.046 42.6747 118.659 42.6747ZM118.659 49.6107C119.342 49.6107 119.846 49.3814 120.171 48.9227C120.502 48.4641 120.667 47.7921 120.667 46.9067C120.667 46.0214 120.502 45.3467 120.171 44.8827C119.846 44.4187 119.342 44.1867 118.659 44.1867C117.966 44.1867 117.454 44.4214 117.123 44.8907C116.793 45.3547 116.627 46.0267 116.627 46.9067C116.627 47.7867 116.793 48.4587 117.123 48.9227C117.454 49.3814 117.966 49.6107 118.659 49.6107ZM131.161 51.0107H130.273C130.086 51.0107 129.94 50.9841 129.833 50.9307C129.726 50.8721 129.646 50.7574 129.593 50.5867L129.417 50.0027C129.209 50.1894 129.004 50.3547 128.801 50.4987C128.604 50.6374 128.398 50.7547 128.185 50.8507C127.972 50.9467 127.745 51.0187 127.505 51.0667C127.265 51.1147 126.998 51.1387 126.705 51.1387C126.358 51.1387 126.038 51.0934 125.745 51.0027C125.452 50.9067 125.198 50.7654 124.985 50.5787C124.777 50.3921 124.614 50.1601 124.497 49.8827C124.38 49.6054 124.321 49.2827 124.321 48.9147C124.321 48.6054 124.401 48.3014 124.561 48.0027C124.726 47.6987 124.998 47.4267 125.377 47.1867C125.756 46.9414 126.26 46.7387 126.889 46.5787C127.518 46.4187 128.3 46.3281 129.233 46.3067V45.8267C129.233 45.2774 129.116 44.8721 128.881 44.6107C128.652 44.3441 128.316 44.2107 127.873 44.2107C127.553 44.2107 127.286 44.2481 127.073 44.3227C126.86 44.3974 126.673 44.4827 126.513 44.5787C126.358 44.6694 126.214 44.7521 126.081 44.8267C125.948 44.9014 125.801 44.9387 125.641 44.9387C125.508 44.9387 125.393 44.9041 125.297 44.8347C125.201 44.7654 125.124 44.6801 125.065 44.5787L124.705 43.9467C125.649 43.0827 126.788 42.6507 128.121 42.6507C128.601 42.6507 129.028 42.7307 129.401 42.8907C129.78 43.0454 130.1 43.2641 130.361 43.5467C130.622 43.8241 130.82 44.1574 130.953 44.5467C131.092 44.9361 131.161 45.3627 131.161 45.8267V51.0107ZM127.321 49.7787C127.524 49.7787 127.71 49.7601 127.881 49.7227C128.052 49.6854 128.212 49.6294 128.361 49.5547C128.516 49.4801 128.662 49.3894 128.801 49.2827C128.945 49.1707 129.089 49.0401 129.233 48.8907V47.5067C128.657 47.5334 128.174 47.5841 127.785 47.6587C127.401 47.7281 127.092 47.8187 126.857 47.9307C126.622 48.0427 126.454 48.1734 126.353 48.3227C126.257 48.4721 126.209 48.6347 126.209 48.8107C126.209 49.1574 126.31 49.4054 126.513 49.5547C126.721 49.7041 126.99 49.7787 127.321 49.7787ZM139.36 51.0107C139.104 51.0107 138.936 50.8907 138.856 50.6507L138.696 49.8587C138.525 50.0507 138.347 50.2241 138.16 50.3787C137.973 50.5334 137.771 50.6667 137.552 50.7787C137.339 50.8907 137.107 50.9761 136.856 51.0347C136.611 51.0987 136.344 51.1307 136.056 51.1307C135.608 51.1307 135.197 51.0374 134.824 50.8507C134.451 50.6641 134.128 50.3947 133.856 50.0427C133.589 49.6854 133.381 49.2454 133.232 48.7227C133.088 48.2001 133.016 47.6027 133.016 46.9307C133.016 46.3227 133.099 45.7574 133.264 45.2347C133.429 44.7121 133.667 44.2587 133.976 43.8747C134.285 43.4907 134.656 43.1921 135.088 42.9787C135.52 42.7601 136.005 42.6507 136.544 42.6507C137.003 42.6507 137.395 42.7254 137.72 42.8747C138.045 43.0187 138.336 43.2134 138.592 43.4587V39.1227H140.568V51.0107H139.36ZM136.728 49.5627C137.139 49.5627 137.488 49.4774 137.776 49.3067C138.064 49.1361 138.336 48.8934 138.592 48.5787V44.8987C138.368 44.6267 138.123 44.4347 137.856 44.3227C137.595 44.2107 137.312 44.1547 137.008 44.1547C136.709 44.1547 136.437 44.2107 136.192 44.3227C135.952 44.4347 135.747 44.6054 135.576 44.8347C135.411 45.0587 135.283 45.3467 135.192 45.6987C135.101 46.0454 135.056 46.4561 135.056 46.9307C135.056 47.4107 135.093 47.8187 135.168 48.1547C135.248 48.4854 135.36 48.7574 135.504 48.9707C135.648 49.1787 135.824 49.3307 136.032 49.4267C136.24 49.5174 136.472 49.5627 136.728 49.5627ZM146.581 42.6747C147.098 42.6747 147.573 42.7574 148.005 42.9227C148.442 43.0881 148.818 43.3307 149.133 43.6507C149.448 43.9654 149.693 44.3547 149.869 44.8187C150.045 45.2774 150.133 45.8027 150.133 46.3947C150.133 46.5441 150.125 46.6694 150.109 46.7707C150.098 46.8667 150.074 46.9441 150.037 47.0027C150.005 47.0561 149.96 47.0961 149.901 47.1227C149.842 47.1441 149.768 47.1547 149.677 47.1547H144.605C144.664 47.9974 144.89 48.6161 145.285 49.0107C145.68 49.4054 146.202 49.6027 146.853 49.6027C147.173 49.6027 147.448 49.5654 147.677 49.4907C147.912 49.4161 148.114 49.3334 148.285 49.2427C148.461 49.1521 148.613 49.0694 148.741 48.9947C148.874 48.9201 149.002 48.8827 149.125 48.8827C149.205 48.8827 149.274 48.8987 149.333 48.9307C149.392 48.9627 149.442 49.0081 149.485 49.0667L150.061 49.7867C149.842 50.0427 149.597 50.2587 149.325 50.4347C149.053 50.6054 148.768 50.7441 148.469 50.8507C148.176 50.9521 147.874 51.0241 147.565 51.0667C147.261 51.1094 146.965 51.1307 146.677 51.1307C146.106 51.1307 145.576 51.0374 145.085 50.8507C144.594 50.6587 144.168 50.3787 143.805 50.0107C143.442 49.6374 143.157 49.1787 142.949 48.6347C142.741 48.0854 142.637 47.4507 142.637 46.7307C142.637 46.1707 142.728 45.6454 142.909 45.1547C143.09 44.6587 143.349 44.2294 143.685 43.8667C144.026 43.4987 144.44 43.2081 144.925 42.9947C145.416 42.7814 145.968 42.6747 146.581 42.6747ZM146.621 44.0907C146.045 44.0907 145.594 44.2534 145.269 44.5787C144.944 44.9041 144.736 45.3654 144.645 45.9627H148.357C148.357 45.7067 148.322 45.4667 148.253 45.2427C148.184 45.0134 148.077 44.8134 147.933 44.6427C147.789 44.4721 147.608 44.3387 147.389 44.2427C147.17 44.1414 146.914 44.0907 146.621 44.0907ZM152.216 51.0107V42.8027H153.376C153.578 42.8027 153.72 42.8401 153.8 42.9147C153.88 42.9894 153.933 43.1174 153.96 43.2987L154.08 44.2907C154.373 43.7841 154.717 43.3841 155.112 43.0907C155.506 42.7974 155.949 42.6507 156.44 42.6507C156.845 42.6507 157.181 42.7441 157.448 42.9307L157.192 44.4107C157.176 44.5067 157.141 44.5761 157.088 44.6187C157.034 44.6561 156.962 44.6747 156.872 44.6747C156.792 44.6747 156.682 44.6561 156.544 44.6187C156.405 44.5814 156.221 44.5627 155.992 44.5627C155.581 44.5627 155.229 44.6774 154.936 44.9067C154.642 45.1307 154.394 45.4614 154.192 45.8987V51.0107H152.216ZM164.609 42.8027V48.0187C164.609 48.5201 164.723 48.9094 164.953 49.1867C165.187 49.4587 165.537 49.5947 166.001 49.5947C166.342 49.5947 166.662 49.5201 166.961 49.3707C167.259 49.2161 167.542 49.0054 167.809 48.7387V42.8027H169.785V51.0107H168.577C168.321 51.0107 168.153 50.8907 168.073 50.6507L167.937 49.9947C167.766 50.1654 167.59 50.3227 167.409 50.4667C167.227 50.6054 167.033 50.7254 166.825 50.8267C166.622 50.9227 166.401 50.9974 166.161 51.0507C165.926 51.1094 165.673 51.1387 165.401 51.1387C164.953 51.1387 164.555 51.0641 164.209 50.9147C163.867 50.7601 163.579 50.5441 163.345 50.2667C163.11 49.9894 162.931 49.6614 162.809 49.2827C162.691 48.8987 162.633 48.4774 162.633 48.0187V42.8027H164.609ZM172.375 51.0107V42.8027H173.583C173.839 42.8027 174.007 42.9227 174.087 43.1627L174.223 43.8107C174.388 43.6401 174.561 43.4854 174.743 43.3467C174.929 43.2081 175.124 43.0881 175.327 42.9867C175.535 42.8854 175.756 42.8081 175.991 42.7547C176.225 42.7014 176.481 42.6747 176.759 42.6747C177.207 42.6747 177.604 42.7521 177.951 42.9067C178.297 43.0561 178.585 43.2694 178.815 43.5467C179.049 43.8187 179.225 44.1467 179.343 44.5307C179.465 44.9094 179.527 45.3281 179.527 45.7867V51.0107H177.551V45.7867C177.551 45.2854 177.433 44.8987 177.199 44.6267C176.969 44.3494 176.623 44.2107 176.159 44.2107C175.817 44.2107 175.497 44.2881 175.199 44.4427C174.9 44.5974 174.617 44.8081 174.351 45.0747V51.0107H172.375ZM185.34 42.6747C185.858 42.6747 186.332 42.7574 186.764 42.9227C187.202 43.0881 187.578 43.3307 187.892 43.6507C188.207 43.9654 188.452 44.3547 188.628 44.8187C188.804 45.2774 188.892 45.8027 188.892 46.3947C188.892 46.5441 188.884 46.6694 188.868 46.7707C188.858 46.8667 188.834 46.9441 188.796 47.0027C188.764 47.0561 188.719 47.0961 188.66 47.1227C188.602 47.1441 188.527 47.1547 188.436 47.1547H183.364C183.423 47.9974 183.65 48.6161 184.044 49.0107C184.439 49.4054 184.962 49.6027 185.612 49.6027C185.932 49.6027 186.207 49.5654 186.436 49.4907C186.671 49.4161 186.874 49.3334 187.044 49.2427C187.22 49.1521 187.372 49.0694 187.5 48.9947C187.634 48.9201 187.762 48.8827 187.884 48.8827C187.964 48.8827 188.034 48.8987 188.092 48.9307C188.151 48.9627 188.202 49.0081 188.244 49.0667L188.82 49.7867C188.602 50.0427 188.356 50.2587 188.084 50.4347C187.812 50.6054 187.527 50.7441 187.228 50.8507C186.935 50.9521 186.634 51.0241 186.324 51.0667C186.02 51.1094 185.724 51.1307 185.436 51.1307C184.866 51.1307 184.335 51.0374 183.844 50.8507C183.354 50.6587 182.927 50.3787 182.564 50.0107C182.202 49.6374 181.916 49.1787 181.708 48.6347C181.5 48.0854 181.396 47.4507 181.396 46.7307C181.396 46.1707 181.487 45.6454 181.668 45.1547C181.85 44.6587 182.108 44.2294 182.444 43.8667C182.786 43.4987 183.199 43.2081 183.684 42.9947C184.175 42.7814 184.727 42.6747 185.34 42.6747ZM185.38 44.0907C184.804 44.0907 184.354 44.2534 184.028 44.5787C183.703 44.9041 183.495 45.3654 183.404 45.9627H187.116C187.116 45.7067 187.082 45.4667 187.012 45.2427C186.943 45.0134 186.836 44.8134 186.692 44.6427C186.548 44.4721 186.367 44.3387 186.148 44.2427C185.93 44.1414 185.674 44.0907 185.38 44.0907ZM196.653 42.8027V51.0107H194.677V42.8027H196.653ZM196.949 40.4107C196.949 40.5814 196.914 40.7414 196.845 40.8907C196.776 41.0401 196.682 41.1707 196.565 41.2827C196.453 41.3947 196.32 41.4854 196.165 41.5547C196.01 41.6187 195.845 41.6507 195.669 41.6507C195.498 41.6507 195.336 41.6187 195.181 41.5547C195.032 41.4854 194.901 41.3947 194.789 41.2827C194.677 41.1707 194.586 41.0401 194.517 40.8907C194.453 40.7414 194.421 40.5814 194.421 40.4107C194.421 40.2347 194.453 40.0694 194.517 39.9147C194.586 39.7601 194.677 39.6267 194.789 39.5147C194.901 39.4027 195.032 39.3147 195.181 39.2507C195.336 39.1814 195.498 39.1467 195.669 39.1467C195.845 39.1467 196.01 39.1814 196.165 39.2507C196.32 39.3147 196.453 39.4027 196.565 39.5147C196.682 39.6267 196.776 39.7601 196.845 39.9147C196.914 40.0694 196.949 40.2347 196.949 40.4107ZM199.373 51.0107V42.8027H200.581C200.837 42.8027 201.005 42.9227 201.085 43.1627L201.213 43.7707C201.357 43.6107 201.506 43.4641 201.661 43.3307C201.821 43.1974 201.989 43.0827 202.165 42.9867C202.346 42.8907 202.538 42.8161 202.741 42.7627C202.949 42.7041 203.175 42.6747 203.421 42.6747C203.938 42.6747 204.362 42.8161 204.693 43.0987C205.029 43.3761 205.279 43.7467 205.445 44.2107C205.573 43.9387 205.733 43.7067 205.925 43.5147C206.117 43.3174 206.327 43.1574 206.557 43.0347C206.786 42.9121 207.029 42.8214 207.285 42.7627C207.546 42.7041 207.807 42.6747 208.069 42.6747C208.522 42.6747 208.925 42.7441 209.277 42.8827C209.629 43.0214 209.925 43.2241 210.165 43.4907C210.405 43.7574 210.586 44.0827 210.709 44.4667C210.837 44.8507 210.901 45.2907 210.901 45.7867V51.0107H208.925V45.7867C208.925 45.2641 208.81 44.8721 208.581 44.6107C208.351 44.3441 208.015 44.2107 207.573 44.2107C207.37 44.2107 207.181 44.2454 207.005 44.3147C206.834 44.3841 206.682 44.4854 206.549 44.6187C206.421 44.7467 206.319 44.9094 206.245 45.1067C206.17 45.3041 206.133 45.5307 206.133 45.7867V51.0107H204.149V45.7867C204.149 45.2374 204.037 44.8374 203.813 44.5867C203.594 44.3361 203.269 44.2107 202.837 44.2107C202.554 44.2107 202.287 44.2827 202.037 44.4267C201.791 44.5654 201.562 44.7574 201.349 45.0027V51.0107H199.373ZM219.753 51.0107H218.865C218.679 51.0107 218.532 50.9841 218.425 50.9307C218.319 50.8721 218.239 50.7574 218.185 50.5867L218.009 50.0027C217.801 50.1894 217.596 50.3547 217.393 50.4987C217.196 50.6374 216.991 50.7547 216.777 50.8507C216.564 50.9467 216.337 51.0187 216.097 51.0667C215.857 51.1147 215.591 51.1387 215.297 51.1387C214.951 51.1387 214.631 51.0934 214.337 51.0027C214.044 50.9067 213.791 50.7654 213.577 50.5787C213.369 50.3921 213.207 50.1601 213.089 49.8827C212.972 49.6054 212.913 49.2827 212.913 48.9147C212.913 48.6054 212.993 48.3014 213.153 48.0027C213.319 47.6987 213.591 47.4267 213.969 47.1867C214.348 46.9414 214.852 46.7387 215.481 46.5787C216.111 46.4187 216.892 46.3281 217.825 46.3067V45.8267C217.825 45.2774 217.708 44.8721 217.473 44.6107C217.244 44.3441 216.908 44.2107 216.465 44.2107C216.145 44.2107 215.879 44.2481 215.665 44.3227C215.452 44.3974 215.265 44.4827 215.105 44.5787C214.951 44.6694 214.807 44.7521 214.673 44.8267C214.54 44.9014 214.393 44.9387 214.233 44.9387C214.1 44.9387 213.985 44.9041 213.889 44.8347C213.793 44.7654 213.716 44.6801 213.657 44.5787L213.297 43.9467C214.241 43.0827 215.38 42.6507 216.713 42.6507C217.193 42.6507 217.62 42.7307 217.993 42.8907C218.372 43.0454 218.692 43.2641 218.953 43.5467C219.215 43.8241 219.412 44.1574 219.545 44.5467C219.684 44.9361 219.753 45.3627 219.753 45.8267V51.0107ZM215.913 49.7787C216.116 49.7787 216.303 49.7601 216.473 49.7227C216.644 49.6854 216.804 49.6294 216.953 49.5547C217.108 49.4801 217.255 49.3894 217.393 49.2827C217.537 49.1707 217.681 49.0401 217.825 48.8907V47.5067C217.249 47.5334 216.767 47.5841 216.377 47.6587C215.993 47.7281 215.684 47.8187 215.449 47.9307C215.215 48.0427 215.047 48.1734 214.945 48.3227C214.849 48.4721 214.801 48.6347 214.801 48.8107C214.801 49.1574 214.903 49.4054 215.105 49.5547C215.313 49.7041 215.583 49.7787 215.913 49.7787ZM225.016 42.6587C225.368 42.6587 225.699 42.6961 226.008 42.7707C226.318 42.8401 226.6 42.9441 226.856 43.0827H229.216V43.8187C229.216 43.9414 229.184 44.0374 229.12 44.1067C229.056 44.1761 228.947 44.2241 228.792 44.2507L228.056 44.3867C228.11 44.5254 228.15 44.6721 228.176 44.8267C228.208 44.9814 228.224 45.1441 228.224 45.3147C228.224 45.7201 228.142 46.0881 227.976 46.4187C227.816 46.7441 227.592 47.0214 227.304 47.2507C227.022 47.4801 226.683 47.6587 226.288 47.7867C225.899 47.9094 225.475 47.9707 225.016 47.9707C224.707 47.9707 224.406 47.9414 224.112 47.8827C223.856 48.0374 223.728 48.2107 223.728 48.4027C223.728 48.5681 223.803 48.6907 223.952 48.7707C224.107 48.8454 224.307 48.8987 224.552 48.9307C224.803 48.9627 225.086 48.9841 225.4 48.9947C225.715 49.0001 226.038 49.0161 226.368 49.0427C226.699 49.0694 227.022 49.1174 227.336 49.1867C227.651 49.2507 227.931 49.3547 228.176 49.4987C228.427 49.6427 228.627 49.8401 228.776 50.0907C228.931 50.3361 229.008 50.6534 229.008 51.0427C229.008 51.4054 228.918 51.7574 228.736 52.0987C228.56 52.4401 228.302 52.7441 227.96 53.0107C227.624 53.2774 227.211 53.4907 226.72 53.6507C226.23 53.8161 225.67 53.8987 225.04 53.8987C224.416 53.8987 223.875 53.8374 223.416 53.7147C222.958 53.5974 222.576 53.4374 222.272 53.2347C221.974 53.0374 221.75 52.8081 221.6 52.5467C221.451 52.2854 221.376 52.0134 221.376 51.7307C221.376 51.3467 221.494 51.0241 221.728 50.7627C221.963 50.5014 222.288 50.2934 222.704 50.1387C222.502 50.0267 222.339 49.8774 222.216 49.6907C222.094 49.5041 222.032 49.2614 222.032 48.9627C222.032 48.8401 222.054 48.7147 222.096 48.5867C222.139 48.4534 222.203 48.3227 222.288 48.1947C222.379 48.0667 222.491 47.9467 222.624 47.8347C222.758 47.7174 222.915 47.6134 223.096 47.5227C222.68 47.2987 222.352 47.0001 222.112 46.6267C221.878 46.2534 221.76 45.8161 221.76 45.3147C221.76 44.9094 221.84 44.5441 222 44.2187C222.166 43.8881 222.392 43.6081 222.68 43.3787C222.974 43.1441 223.318 42.9654 223.712 42.8427C224.112 42.7201 224.547 42.6587 225.016 42.6587ZM227.184 51.3787C227.184 51.2187 227.136 51.0881 227.04 50.9867C226.944 50.8854 226.814 50.8081 226.648 50.7547C226.483 50.6961 226.288 50.6534 226.064 50.6267C225.846 50.6001 225.611 50.5814 225.36 50.5707C225.115 50.5547 224.859 50.5414 224.592 50.5307C224.331 50.5147 224.078 50.4907 223.832 50.4587C223.608 50.5814 223.427 50.7281 223.288 50.8987C223.155 51.0641 223.088 51.2561 223.088 51.4747C223.088 51.6187 223.123 51.7521 223.192 51.8747C223.267 52.0027 223.382 52.1121 223.536 52.2027C223.696 52.2934 223.902 52.3627 224.152 52.4107C224.403 52.4641 224.71 52.4907 225.072 52.4907C225.44 52.4907 225.758 52.4614 226.024 52.4027C226.291 52.3494 226.51 52.2721 226.68 52.1707C226.856 52.0747 226.984 51.9574 227.064 51.8187C227.144 51.6854 227.184 51.5387 227.184 51.3787ZM225.016 46.7067C225.262 46.7067 225.475 46.6747 225.656 46.6107C225.838 46.5414 225.987 46.4481 226.104 46.3307C226.227 46.2134 226.318 46.0721 226.376 45.9067C226.44 45.7414 226.472 45.5601 226.472 45.3627C226.472 44.9574 226.35 44.6374 226.104 44.4027C225.864 44.1627 225.502 44.0427 225.016 44.0427C224.531 44.0427 224.166 44.1627 223.92 44.4027C223.68 44.6374 223.56 44.9574 223.56 45.3627C223.56 45.5547 223.59 45.7334 223.648 45.8987C223.712 46.0641 223.803 46.2081 223.92 46.3307C224.043 46.4481 224.195 46.5414 224.376 46.6107C224.563 46.6747 224.776 46.7067 225.016 46.7067ZM234.33 42.6747C234.847 42.6747 235.322 42.7574 235.754 42.9227C236.191 43.0881 236.567 43.3307 236.882 43.6507C237.196 43.9654 237.442 44.3547 237.618 44.8187C237.794 45.2774 237.882 45.8027 237.882 46.3947C237.882 46.5441 237.874 46.6694 237.858 46.7707C237.847 46.8667 237.823 46.9441 237.786 47.0027C237.754 47.0561 237.708 47.0961 237.65 47.1227C237.591 47.1441 237.516 47.1547 237.426 47.1547H232.354C232.412 47.9974 232.639 48.6161 233.034 49.0107C233.428 49.4054 233.951 49.6027 234.602 49.6027C234.922 49.6027 235.196 49.5654 235.426 49.4907C235.66 49.4161 235.863 49.3334 236.034 49.2427C236.21 49.1521 236.362 49.0694 236.49 48.9947C236.623 48.9201 236.751 48.8827 236.874 48.8827C236.954 48.8827 237.023 48.8987 237.082 48.9307C237.14 48.9627 237.191 49.0081 237.234 49.0667L237.81 49.7867C237.591 50.0427 237.346 50.2587 237.074 50.4347C236.802 50.6054 236.516 50.7441 236.218 50.8507C235.924 50.9521 235.623 51.0241 235.314 51.0667C235.01 51.1094 234.714 51.1307 234.426 51.1307C233.855 51.1307 233.324 51.0374 232.834 50.8507C232.343 50.6587 231.916 50.3787 231.554 50.0107C231.191 49.6374 230.906 49.1787 230.698 48.6347C230.49 48.0854 230.386 47.4507 230.386 46.7307C230.386 46.1707 230.476 45.6454 230.658 45.1547C230.839 44.6587 231.098 44.2294 231.434 43.8667C231.775 43.4987 232.188 43.2081 232.674 42.9947C233.164 42.7814 233.716 42.6747 234.33 42.6747ZM234.37 44.0907C233.794 44.0907 233.343 44.2534 233.018 44.5787C232.692 44.9041 232.484 45.3654 232.394 45.9627H236.106C236.106 45.7067 236.071 45.4667 236.002 45.2427C235.932 45.0134 235.826 44.8134 235.682 44.6427C235.538 44.4721 235.356 44.3387 235.138 44.2427C234.919 44.1414 234.663 44.0907 234.37 44.0907ZM249.314 51.0107C249.058 51.0107 248.89 50.8907 248.81 50.6507L248.65 49.8587C248.48 50.0507 248.301 50.2241 248.114 50.3787C247.928 50.5334 247.725 50.6667 247.506 50.7787C247.293 50.8907 247.061 50.9761 246.81 51.0347C246.565 51.0987 246.298 51.1307 246.01 51.1307C245.562 51.1307 245.152 51.0374 244.778 50.8507C244.405 50.6641 244.082 50.3947 243.81 50.0427C243.544 49.6854 243.336 49.2454 243.186 48.7227C243.042 48.2001 242.97 47.6027 242.97 46.9307C242.97 46.3227 243.053 45.7574 243.218 45.2347C243.384 44.7121 243.621 44.2587 243.93 43.8747C244.24 43.4907 244.61 43.1921 245.042 42.9787C245.474 42.7601 245.96 42.6507 246.498 42.6507C246.957 42.6507 247.349 42.7254 247.674 42.8747C248 43.0187 248.29 43.2134 248.546 43.4587V39.1227H250.522V51.0107H249.314ZM246.682 49.5627C247.093 49.5627 247.442 49.4774 247.73 49.3067C248.018 49.1361 248.29 48.8934 248.546 48.5787V44.8987C248.322 44.6267 248.077 44.4347 247.81 44.3227C247.549 44.2107 247.266 44.1547 246.962 44.1547C246.664 44.1547 246.392 44.2107 246.146 44.3227C245.906 44.4347 245.701 44.6054 245.53 44.8347C245.365 45.0587 245.237 45.3467 245.146 45.6987C245.056 46.0454 245.01 46.4561 245.01 46.9307C245.01 47.4107 245.048 47.8187 245.122 48.1547C245.202 48.4854 245.314 48.7574 245.458 48.9707C245.602 49.1787 245.778 49.3307 245.986 49.4267C246.194 49.5174 246.426 49.5627 246.682 49.5627ZM256.535 42.6747C257.053 42.6747 257.527 42.7574 257.959 42.9227C258.397 43.0881 258.773 43.3307 259.087 43.6507C259.402 43.9654 259.647 44.3547 259.823 44.8187C259.999 45.2774 260.087 45.8027 260.087 46.3947C260.087 46.5441 260.079 46.6694 260.063 46.7707C260.053 46.8667 260.029 46.9441 259.991 47.0027C259.959 47.0561 259.914 47.0961 259.855 47.1227C259.797 47.1441 259.722 47.1547 259.631 47.1547H254.559C254.618 47.9974 254.845 48.6161 255.239 49.0107C255.634 49.4054 256.157 49.6027 256.807 49.6027C257.127 49.6027 257.402 49.5654 257.631 49.4907C257.866 49.4161 258.069 49.3334 258.239 49.2427C258.415 49.1521 258.567 49.0694 258.695 48.9947C258.829 48.9201 258.957 48.8827 259.079 48.8827C259.159 48.8827 259.229 48.8987 259.287 48.9307C259.346 48.9627 259.397 49.0081 259.439 49.0667L260.015 49.7867C259.797 50.0427 259.551 50.2587 259.279 50.4347C259.007 50.6054 258.722 50.7441 258.423 50.8507C258.13 50.9521 257.829 51.0241 257.519 51.0667C257.215 51.1094 256.919 51.1307 256.631 51.1307C256.061 51.1307 255.53 51.0374 255.039 50.8507C254.549 50.6587 254.122 50.3787 253.759 50.0107C253.397 49.6374 253.111 49.1787 252.903 48.6347C252.695 48.0854 252.591 47.4507 252.591 46.7307C252.591 46.1707 252.682 45.6454 252.863 45.1547C253.045 44.6587 253.303 44.2294 253.639 43.8667C253.981 43.4987 254.394 43.2081 254.879 42.9947C255.37 42.7814 255.922 42.6747 256.535 42.6747ZM256.575 44.0907C255.999 44.0907 255.549 44.2534 255.223 44.5787C254.898 44.9041 254.69 45.3654 254.599 45.9627H258.311C258.311 45.7067 258.277 45.4667 258.207 45.2427C258.138 45.0134 258.031 44.8134 257.887 44.6427C257.743 44.4721 257.562 44.3387 257.343 44.2427C257.125 44.1414 256.869 44.0907 256.575 44.0907ZM266.096 51.0107V44.2907L265.384 44.1787C265.229 44.1521 265.104 44.0987 265.008 44.0187C264.917 43.9387 264.872 43.8267 264.872 43.6827V42.8747H266.096V42.2667C266.096 41.7974 266.165 41.3761 266.304 41.0027C266.448 40.6294 266.651 40.3121 266.912 40.0507C267.179 39.7894 267.501 39.5894 267.88 39.4507C268.259 39.3121 268.685 39.2427 269.16 39.2427C269.539 39.2427 269.891 39.2934 270.216 39.3947L270.176 40.3867C270.165 40.5414 270.093 40.6374 269.96 40.6747C269.827 40.7121 269.672 40.7307 269.496 40.7307C269.261 40.7307 269.051 40.7574 268.864 40.8107C268.683 40.8587 268.528 40.9467 268.4 41.0747C268.272 41.1974 268.173 41.3627 268.104 41.5707C268.04 41.7734 268.008 42.0267 268.008 42.3307V42.8747H270.144V44.2827H268.072V51.0107H266.096ZM275.337 42.6747C275.951 42.6747 276.505 42.7734 277.001 42.9707C277.503 43.1681 277.929 43.4481 278.281 43.8107C278.633 44.1734 278.905 44.6161 279.097 45.1387C279.289 45.6614 279.385 46.2454 279.385 46.8907C279.385 47.5414 279.289 48.1281 279.097 48.6507C278.905 49.1734 278.633 49.6187 278.281 49.9867C277.929 50.3547 277.503 50.6374 277.001 50.8347C276.505 51.0321 275.951 51.1307 275.337 51.1307C274.724 51.1307 274.167 51.0321 273.665 50.8347C273.164 50.6374 272.735 50.3547 272.377 49.9867C272.025 49.6187 271.751 49.1734 271.553 48.6507C271.361 48.1281 271.265 47.5414 271.265 46.8907C271.265 46.2454 271.361 45.6614 271.553 45.1387C271.751 44.6161 272.025 44.1734 272.377 43.8107C272.735 43.4481 273.164 43.1681 273.665 42.9707C274.167 42.7734 274.724 42.6747 275.337 42.6747ZM275.337 49.6107C276.02 49.6107 276.524 49.3814 276.849 48.9227C277.18 48.4641 277.345 47.7921 277.345 46.9067C277.345 46.0214 277.18 45.3467 276.849 44.8827C276.524 44.4187 276.02 44.1867 275.337 44.1867C274.644 44.1867 274.132 44.4214 273.801 44.8907C273.471 45.3547 273.305 46.0267 273.305 46.9067C273.305 47.7867 273.471 48.4587 273.801 48.9227C274.132 49.3814 274.644 49.6107 275.337 49.6107ZM281.407 51.0107V42.8027H282.615C282.871 42.8027 283.039 42.9227 283.119 43.1627L283.255 43.8107C283.42 43.6401 283.594 43.4854 283.775 43.3467C283.962 43.2081 284.156 43.0881 284.359 42.9867C284.567 42.8854 284.788 42.8081 285.023 42.7547C285.258 42.7014 285.514 42.6747 285.791 42.6747C286.239 42.6747 286.636 42.7521 286.983 42.9067C287.33 43.0561 287.618 43.2694 287.847 43.5467C288.082 43.8187 288.258 44.1467 288.375 44.5307C288.498 44.9094 288.559 45.3281 288.559 45.7867V51.0107H286.583V45.7867C286.583 45.2854 286.466 44.8987 286.231 44.6267C286.002 44.3494 285.655 44.2107 285.191 44.2107C284.85 44.2107 284.53 44.2881 284.231 44.4427C283.932 44.5974 283.65 44.8081 283.383 45.0747V51.0107H281.407ZM296.757 51.0107C296.501 51.0107 296.333 50.8907 296.253 50.6507L296.093 49.8587C295.922 50.0507 295.743 50.2241 295.557 50.3787C295.37 50.5334 295.167 50.6667 294.949 50.7787C294.735 50.8907 294.503 50.9761 294.253 51.0347C294.007 51.0987 293.741 51.1307 293.453 51.1307C293.005 51.1307 292.594 51.0374 292.221 50.8507C291.847 50.6641 291.525 50.3947 291.253 50.0427C290.986 49.6854 290.778 49.2454 290.629 48.7227C290.485 48.2001 290.413 47.6027 290.413 46.9307C290.413 46.3227 290.495 45.7574 290.661 45.2347C290.826 44.7121 291.063 44.2587 291.373 43.8747C291.682 43.4907 292.053 43.1921 292.485 42.9787C292.917 42.7601 293.402 42.6507 293.941 42.6507C294.399 42.6507 294.791 42.7254 295.117 42.8747C295.442 43.0187 295.733 43.2134 295.989 43.4587V39.1227H297.965V51.0107H296.757ZM294.125 49.5627C294.535 49.5627 294.885 49.4774 295.173 49.3067C295.461 49.1361 295.733 48.8934 295.989 48.5787V44.8987C295.765 44.6267 295.519 44.4347 295.253 44.3227C294.991 44.2107 294.709 44.1547 294.405 44.1547C294.106 44.1547 293.834 44.2107 293.589 44.3227C293.349 44.4347 293.143 44.6054 292.973 44.8347C292.807 45.0587 292.679 45.3467 292.589 45.6987C292.498 46.0454 292.453 46.4561 292.453 46.9307C292.453 47.4107 292.49 47.8187 292.565 48.1547C292.645 48.4854 292.757 48.7574 292.901 48.9707C293.045 49.1787 293.221 49.3307 293.429 49.4267C293.637 49.5174 293.869 49.5627 294.125 49.5627ZM305.664 45.9947C305.664 47.0934 305.797 48.1734 306.064 49.2347C306.33 50.2961 306.712 51.2934 307.208 52.2267C307.245 52.2961 307.269 52.3601 307.28 52.4187C307.296 52.4774 307.304 52.5307 307.304 52.5787C307.304 52.6854 307.277 52.7707 307.224 52.8347C307.17 52.9041 307.106 52.9601 307.032 53.0027L306.152 53.5387C305.757 52.9307 305.421 52.3201 305.144 51.7067C304.866 51.0934 304.64 50.4747 304.464 49.8507C304.288 49.2267 304.157 48.5947 304.072 47.9547C303.992 47.3147 303.952 46.6614 303.952 45.9947C303.952 45.3281 303.992 44.6747 304.072 44.0347C304.157 43.3894 304.288 42.7547 304.464 42.1307C304.64 41.5067 304.866 40.8907 305.144 40.2827C305.421 39.6694 305.757 39.0587 306.152 38.4507L307.032 38.9787C307.106 39.0214 307.17 39.0774 307.224 39.1467C307.277 39.2107 307.304 39.2934 307.304 39.3947C307.304 39.4961 307.269 39.6161 307.2 39.7547C306.709 40.6881 306.33 41.6881 306.064 42.7547C305.797 43.8161 305.664 44.8961 305.664 45.9947ZM317.7 39.4427V41.2107H314.22V51.0107H312.068V41.2107H308.572V39.4427H317.7ZM323.911 51.0107H323.023C322.836 51.0107 322.69 50.9841 322.583 50.9307C322.476 50.8721 322.396 50.7574 322.343 50.5867L322.167 50.0027C321.959 50.1894 321.754 50.3547 321.551 50.4987C321.354 50.6374 321.148 50.7547 320.935 50.8507C320.722 50.9467 320.495 51.0187 320.255 51.0667C320.015 51.1147 319.748 51.1387 319.455 51.1387C319.108 51.1387 318.788 51.0934 318.495 51.0027C318.202 50.9067 317.948 50.7654 317.735 50.5787C317.527 50.3921 317.364 50.1601 317.247 49.8827C317.13 49.6054 317.071 49.2827 317.071 48.9147C317.071 48.6054 317.151 48.3014 317.311 48.0027C317.476 47.6987 317.748 47.4267 318.127 47.1867C318.506 46.9414 319.01 46.7387 319.639 46.5787C320.268 46.4187 321.05 46.3281 321.983 46.3067V45.8267C321.983 45.2774 321.866 44.8721 321.631 44.6107C321.402 44.3441 321.066 44.2107 320.623 44.2107C320.303 44.2107 320.036 44.2481 319.823 44.3227C319.61 44.3974 319.423 44.4827 319.263 44.5787C319.108 44.6694 318.964 44.7521 318.831 44.8267C318.698 44.9014 318.551 44.9387 318.391 44.9387C318.258 44.9387 318.143 44.9041 318.047 44.8347C317.951 44.7654 317.874 44.6801 317.815 44.5787L317.455 43.9467C318.399 43.0827 319.538 42.6507 320.871 42.6507C321.351 42.6507 321.778 42.7307 322.151 42.8907C322.53 43.0454 322.85 43.2641 323.111 43.5467C323.372 43.8241 323.57 44.1574 323.703 44.5467C323.842 44.9361 323.911 45.3627 323.911 45.8267V51.0107ZM320.071 49.7787C320.274 49.7787 320.46 49.7601 320.631 49.7227C320.802 49.6854 320.962 49.6294 321.111 49.5547C321.266 49.4801 321.412 49.3894 321.551 49.2827C321.695 49.1707 321.839 49.0401 321.983 48.8907V47.5067C321.407 47.5334 320.924 47.5841 320.535 47.6587C320.151 47.7281 319.842 47.8187 319.607 47.9307C319.372 48.0427 319.204 48.1734 319.103 48.3227C319.007 48.4721 318.959 48.6347 318.959 48.8107C318.959 49.1574 319.06 49.4054 319.263 49.5547C319.471 49.7041 319.74 49.7787 320.071 49.7787ZM328.438 42.8027V51.0107H326.462V42.8027H328.438ZM328.734 40.4107C328.734 40.5814 328.699 40.7414 328.63 40.8907C328.561 41.0401 328.467 41.1707 328.35 41.2827C328.238 41.3947 328.105 41.4854 327.95 41.5547C327.795 41.6187 327.63 41.6507 327.454 41.6507C327.283 41.6507 327.121 41.6187 326.966 41.5547C326.817 41.4854 326.686 41.3947 326.574 41.2827C326.462 41.1707 326.371 41.0401 326.302 40.8907C326.238 40.7414 326.206 40.5814 326.206 40.4107C326.206 40.2347 326.238 40.0694 326.302 39.9147C326.371 39.7601 326.462 39.6267 326.574 39.5147C326.686 39.4027 326.817 39.3147 326.966 39.2507C327.121 39.1814 327.283 39.1467 327.454 39.1467C327.63 39.1467 327.795 39.1814 327.95 39.2507C328.105 39.3147 328.238 39.4027 328.35 39.5147C328.467 39.6267 328.561 39.7601 328.63 39.9147C328.699 40.0694 328.734 40.2347 328.734 40.4107ZM333.262 39.1227V51.0107H331.286V39.1227H333.262ZM338.085 39.1227V51.0107H336.109V39.1227H338.085ZM344.197 42.6747C344.715 42.6747 345.189 42.7574 345.621 42.9227C346.059 43.0881 346.435 43.3307 346.749 43.6507C347.064 43.9654 347.309 44.3547 347.485 44.8187C347.661 45.2774 347.749 45.8027 347.749 46.3947C347.749 46.5441 347.741 46.6694 347.725 46.7707C347.715 46.8667 347.691 46.9441 347.653 47.0027C347.621 47.0561 347.576 47.0961 347.517 47.1227C347.459 47.1441 347.384 47.1547 347.293 47.1547H342.221C342.28 47.9974 342.507 48.6161 342.901 49.0107C343.296 49.4054 343.819 49.6027 344.469 49.6027C344.789 49.6027 345.064 49.5654 345.293 49.4907C345.528 49.4161 345.731 49.3334 345.901 49.2427C346.077 49.1521 346.229 49.0694 346.357 48.9947C346.491 48.9201 346.619 48.8827 346.741 48.8827C346.821 48.8827 346.891 48.8987 346.949 48.9307C347.008 48.9627 347.059 49.0081 347.101 49.0667L347.677 49.7867C347.459 50.0427 347.213 50.2587 346.941 50.4347C346.669 50.6054 346.384 50.7441 346.085 50.8507C345.792 50.9521 345.491 51.0241 345.181 51.0667C344.877 51.1094 344.581 51.1307 344.293 51.1307C343.723 51.1307 343.192 51.0374 342.701 50.8507C342.211 50.6587 341.784 50.3787 341.421 50.0107C341.059 49.6374 340.773 49.1787 340.565 48.6347C340.357 48.0854 340.253 47.4507 340.253 46.7307C340.253 46.1707 340.344 45.6454 340.525 45.1547C340.707 44.6587 340.965 44.2294 341.301 43.8667C341.643 43.4987 342.056 43.2081 342.541 42.9947C343.032 42.7814 343.584 42.6747 344.197 42.6747ZM344.237 44.0907C343.661 44.0907 343.211 44.2534 342.885 44.5787C342.56 44.9041 342.352 45.3654 342.261 45.9627H345.973C345.973 45.7067 345.939 45.4667 345.869 45.2427C345.8 45.0134 345.693 44.8134 345.549 44.6427C345.405 44.4721 345.224 44.3387 345.005 44.2427C344.787 44.1414 344.531 44.0907 344.237 44.0907ZM355.51 42.8027V51.0107H353.534V42.8027H355.51ZM355.806 40.4107C355.806 40.5814 355.771 40.7414 355.702 40.8907C355.632 41.0401 355.539 41.1707 355.422 41.2827C355.31 41.3947 355.176 41.4854 355.022 41.5547C354.867 41.6187 354.702 41.6507 354.526 41.6507C354.355 41.6507 354.192 41.6187 354.038 41.5547C353.888 41.4854 353.758 41.3947 353.646 41.2827C353.534 41.1707 353.443 41.0401 353.374 40.8907C353.31 40.7414 353.278 40.5814 353.278 40.4107C353.278 40.2347 353.31 40.0694 353.374 39.9147C353.443 39.7601 353.534 39.6267 353.646 39.5147C353.758 39.4027 353.888 39.3147 354.038 39.2507C354.192 39.1814 354.355 39.1467 354.526 39.1467C354.702 39.1467 354.867 39.1814 355.022 39.2507C355.176 39.3147 355.31 39.4027 355.422 39.5147C355.539 39.6267 355.632 39.7601 355.702 39.9147C355.771 40.0694 355.806 40.2347 355.806 40.4107ZM364.006 51.0107C363.75 51.0107 363.582 50.8907 363.502 50.6507L363.342 49.8587C363.171 50.0507 362.992 50.2241 362.806 50.3787C362.619 50.5334 362.416 50.6667 362.198 50.7787C361.984 50.8907 361.752 50.9761 361.502 51.0347C361.256 51.0987 360.99 51.1307 360.702 51.1307C360.254 51.1307 359.843 51.0374 359.47 50.8507C359.096 50.6641 358.774 50.3947 358.502 50.0427C358.235 49.6854 358.027 49.2454 357.878 48.7227C357.734 48.2001 357.662 47.6027 357.662 46.9307C357.662 46.3227 357.744 45.7574 357.91 45.2347C358.075 44.7121 358.312 44.2587 358.622 43.8747C358.931 43.4907 359.302 43.1921 359.734 42.9787C360.166 42.7601 360.651 42.6507 361.19 42.6507C361.648 42.6507 362.04 42.7254 362.366 42.8747C362.691 43.0187 362.982 43.2134 363.238 43.4587V39.1227H365.214V51.0107H364.006ZM361.374 49.5627C361.784 49.5627 362.134 49.4774 362.422 49.3067C362.71 49.1361 362.982 48.8934 363.238 48.5787V44.8987C363.014 44.6267 362.768 44.4347 362.502 44.3227C362.24 44.2107 361.958 44.1547 361.654 44.1547C361.355 44.1547 361.083 44.2107 360.838 44.3227C360.598 44.4347 360.392 44.6054 360.222 44.8347C360.056 45.0587 359.928 45.3467 359.838 45.6987C359.747 46.0454 359.702 46.4561 359.702 46.9307C359.702 47.4107 359.739 47.8187 359.814 48.1547C359.894 48.4854 360.006 48.7574 360.15 48.9707C360.294 49.1787 360.47 49.3307 360.678 49.4267C360.886 49.5174 361.118 49.5627 361.374 49.5627ZM371.227 42.6747C371.744 42.6747 372.219 42.7574 372.651 42.9227C373.088 43.0881 373.464 43.3307 373.779 43.6507C374.093 43.9654 374.339 44.3547 374.515 44.8187C374.691 45.2774 374.779 45.8027 374.779 46.3947C374.779 46.5441 374.771 46.6694 374.755 46.7707C374.744 46.8667 374.72 46.9441 374.683 47.0027C374.651 47.0561 374.605 47.0961 374.547 47.1227C374.488 47.1441 374.413 47.1547 374.323 47.1547H369.251C369.309 47.9974 369.536 48.6161 369.931 49.0107C370.325 49.4054 370.848 49.6027 371.499 49.6027C371.819 49.6027 372.093 49.5654 372.323 49.4907C372.557 49.4161 372.76 49.3334 372.931 49.2427C373.107 49.1521 373.259 49.0694 373.387 48.9947C373.52 48.9201 373.648 48.8827 373.771 48.8827C373.851 48.8827 373.92 48.8987 373.979 48.9307C374.037 48.9627 374.088 49.0081 374.131 49.0667L374.707 49.7867C374.488 50.0427 374.243 50.2587 373.971 50.4347C373.699 50.6054 373.413 50.7441 373.115 50.8507C372.821 50.9521 372.52 51.0241 372.211 51.0667C371.907 51.1094 371.611 51.1307 371.323 51.1307C370.752 51.1307 370.221 51.0374 369.731 50.8507C369.24 50.6587 368.813 50.3787 368.451 50.0107C368.088 49.6374 367.803 49.1787 367.595 48.6347C367.387 48.0854 367.283 47.4507 367.283 46.7307C367.283 46.1707 367.373 45.6454 367.555 45.1547C367.736 44.6587 367.995 44.2294 368.331 43.8667C368.672 43.4987 369.085 43.2081 369.571 42.9947C370.061 42.7814 370.613 42.6747 371.227 42.6747ZM371.267 44.0907C370.691 44.0907 370.24 44.2534 369.915 44.5787C369.589 44.9041 369.381 45.3654 369.291 45.9627H373.003C373.003 45.7067 372.968 45.4667 372.899 45.2427C372.829 45.0134 372.723 44.8134 372.579 44.6427C372.435 44.4721 372.253 44.3387 372.035 44.2427C371.816 44.1414 371.56 44.0907 371.267 44.0907ZM374.043 39.3147L372.067 41.4027C371.965 41.5094 371.867 41.5841 371.771 41.6267C371.68 41.6641 371.56 41.6827 371.411 41.6827H370.227L371.363 39.7387C371.443 39.6001 371.536 39.4961 371.643 39.4267C371.749 39.3521 371.909 39.3147 372.123 39.3147H374.043ZM383.293 51.0107H382.405C382.219 51.0107 382.072 50.9841 381.965 50.9307C381.859 50.8721 381.779 50.7574 381.725 50.5867L381.549 50.0027C381.341 50.1894 381.136 50.3547 380.933 50.4987C380.736 50.6374 380.531 50.7547 380.317 50.8507C380.104 50.9467 379.877 51.0187 379.637 51.0667C379.397 51.1147 379.131 51.1387 378.837 51.1387C378.491 51.1387 378.171 51.0934 377.877 51.0027C377.584 50.9067 377.331 50.7654 377.117 50.5787C376.909 50.3921 376.747 50.1601 376.629 49.8827C376.512 49.6054 376.453 49.2827 376.453 48.9147C376.453 48.6054 376.533 48.3014 376.693 48.0027C376.859 47.6987 377.131 47.4267 377.509 47.1867C377.888 46.9414 378.392 46.7387 379.021 46.5787C379.651 46.4187 380.432 46.3281 381.365 46.3067V45.8267C381.365 45.2774 381.248 44.8721 381.013 44.6107C380.784 44.3441 380.448 44.2107 380.005 44.2107C379.685 44.2107 379.419 44.2481 379.205 44.3227C378.992 44.3974 378.805 44.4827 378.645 44.5787C378.491 44.6694 378.347 44.7521 378.213 44.8267C378.08 44.9014 377.933 44.9387 377.773 44.9387C377.64 44.9387 377.525 44.9041 377.429 44.8347C377.333 44.7654 377.256 44.6801 377.197 44.5787L376.837 43.9467C377.781 43.0827 378.92 42.6507 380.253 42.6507C380.733 42.6507 381.16 42.7307 381.533 42.8907C381.912 43.0454 382.232 43.2641 382.493 43.5467C382.755 43.8241 382.952 44.1574 383.085 44.5467C383.224 44.9361 383.293 45.3627 383.293 45.8267V51.0107ZM379.453 49.7787C379.656 49.7787 379.843 49.7601 380.013 49.7227C380.184 49.6854 380.344 49.6294 380.493 49.5547C380.648 49.4801 380.795 49.3894 380.933 49.2827C381.077 49.1707 381.221 49.0401 381.365 48.8907V47.5067C380.789 47.5334 380.307 47.5841 379.917 47.6587C379.533 47.7281 379.224 47.8187 378.989 47.9307C378.755 48.0427 378.587 48.1734 378.485 48.3227C378.389 48.4721 378.341 48.6347 378.341 48.8107C378.341 49.1574 378.443 49.4054 378.645 49.5547C378.853 49.7041 379.123 49.7787 379.453 49.7787ZM387.82 39.1227V51.0107H385.844V39.1227H387.82ZM393.932 42.6747C394.45 42.6747 394.924 42.7574 395.356 42.9227C395.794 43.0881 396.17 43.3307 396.484 43.6507C396.799 43.9654 397.044 44.3547 397.22 44.8187C397.396 45.2774 397.484 45.8027 397.484 46.3947C397.484 46.5441 397.476 46.6694 397.46 46.7707C397.45 46.8667 397.426 46.9441 397.388 47.0027C397.356 47.0561 397.311 47.0961 397.252 47.1227C397.194 47.1441 397.119 47.1547 397.028 47.1547H391.956C392.015 47.9974 392.242 48.6161 392.636 49.0107C393.031 49.4054 393.554 49.6027 394.204 49.6027C394.524 49.6027 394.799 49.5654 395.028 49.4907C395.263 49.4161 395.466 49.3334 395.636 49.2427C395.812 49.1521 395.964 49.0694 396.092 48.9947C396.226 48.9201 396.354 48.8827 396.476 48.8827C396.556 48.8827 396.626 48.8987 396.684 48.9307C396.743 48.9627 396.794 49.0081 396.836 49.0667L397.412 49.7867C397.194 50.0427 396.948 50.2587 396.676 50.4347C396.404 50.6054 396.119 50.7441 395.82 50.8507C395.527 50.9521 395.226 51.0241 394.916 51.0667C394.612 51.1094 394.316 51.1307 394.028 51.1307C393.458 51.1307 392.927 51.0374 392.436 50.8507C391.946 50.6587 391.519 50.3787 391.156 50.0107C390.794 49.6374 390.508 49.1787 390.3 48.6347C390.092 48.0854 389.988 47.4507 389.988 46.7307C389.988 46.1707 390.079 45.6454 390.26 45.1547C390.442 44.6587 390.7 44.2294 391.036 43.8667C391.378 43.4987 391.791 43.2081 392.276 42.9947C392.767 42.7814 393.319 42.6747 393.932 42.6747ZM393.972 44.0907C393.396 44.0907 392.946 44.2534 392.62 44.5787C392.295 44.9041 392.087 45.3654 391.996 45.9627H395.708C395.708 45.7067 395.674 45.4667 395.604 45.2427C395.535 45.0134 395.428 44.8134 395.284 44.6427C395.14 44.4721 394.959 44.3387 394.74 44.2427C394.522 44.1414 394.266 44.0907 393.972 44.0907ZM402.989 49.9227C402.989 49.7574 403.018 49.6001 403.077 49.4507C403.141 49.3014 403.226 49.1734 403.333 49.0667C403.445 48.9601 403.575 48.8747 403.725 48.8107C403.874 48.7467 404.034 48.7147 404.205 48.7147C404.37 48.7147 404.527 48.7467 404.677 48.8107C404.826 48.8747 404.954 48.9601 405.061 49.0667C405.167 49.1734 405.253 49.3014 405.317 49.4507C405.381 49.6001 405.413 49.7574 405.413 49.9227C405.413 50.0934 405.381 50.2534 405.317 50.4027C405.253 50.5467 405.167 50.6721 405.061 50.7787C404.954 50.8854 404.826 50.9681 404.677 51.0267C404.527 51.0907 404.37 51.1227 404.205 51.1227C404.034 51.1227 403.874 51.0907 403.725 51.0267C403.575 50.9681 403.445 50.8854 403.333 50.7787C403.226 50.6721 403.141 50.5467 403.077 50.4027C403.018 50.2534 402.989 50.0934 402.989 49.9227ZM402.989 44.2187C402.989 44.0534 403.018 43.8961 403.077 43.7467C403.141 43.5974 403.226 43.4694 403.333 43.3627C403.445 43.2561 403.575 43.1707 403.725 43.1067C403.874 43.0427 404.034 43.0107 404.205 43.0107C404.37 43.0107 404.527 43.0427 404.677 43.1067C404.826 43.1707 404.954 43.2561 405.061 43.3627C405.167 43.4694 405.253 43.5974 405.317 43.7467C405.381 43.8961 405.413 44.0534 405.413 44.2187C405.413 44.3894 405.381 44.5494 405.317 44.6987C405.253 44.8427 405.167 44.9681 405.061 45.0747C404.954 45.1814 404.826 45.2667 404.677 45.3307C404.527 45.3894 404.37 45.4187 404.205 45.4187C404.034 45.4187 403.874 45.3894 403.725 45.3307C403.575 45.2667 403.445 45.1814 403.333 45.0747C403.226 44.9681 403.141 44.8427 403.077 44.6987C403.018 44.5494 402.989 44.3894 402.989 44.2187ZM412.525 49.5307H414.869V42.7867C414.869 42.5254 414.877 42.2507 414.893 41.9627L413.229 43.3547C413.16 43.4134 413.088 43.4534 413.013 43.4747C412.944 43.4961 412.874 43.5067 412.805 43.5067C412.698 43.5067 412.6 43.4854 412.509 43.4427C412.424 43.3947 412.36 43.3414 412.317 43.2827L411.693 42.4267L415.221 39.4267H416.845V49.5307H418.925V51.0107H412.525V49.5307ZM424.374 46.3947C423.974 46.3947 423.582 46.3254 423.198 46.1867C422.814 46.0481 422.47 45.8401 422.166 45.5627C421.868 45.2801 421.628 44.9334 421.446 44.5227C421.265 44.1067 421.174 43.6214 421.174 43.0667C421.174 42.5494 421.27 42.0641 421.462 41.6107C421.654 41.1574 421.924 40.7601 422.27 40.4187C422.617 40.0774 423.033 39.8081 423.518 39.6107C424.004 39.4134 424.54 39.3147 425.126 39.3147C425.718 39.3147 426.249 39.4081 426.718 39.5947C427.193 39.7814 427.596 40.0427 427.926 40.3787C428.262 40.7147 428.518 41.1174 428.694 41.5867C428.876 42.0561 428.966 42.5707 428.966 43.1307C428.966 43.4881 428.934 43.8267 428.87 44.1467C428.812 44.4667 428.724 44.7761 428.606 45.0747C428.494 45.3681 428.358 45.6561 428.198 45.9387C428.038 46.2161 427.86 46.4961 427.662 46.7787L425.014 50.5547C424.924 50.6827 424.788 50.7921 424.606 50.8827C424.43 50.9681 424.228 51.0107 423.998 51.0107H422.182L425.774 46.5227C425.865 46.4107 425.95 46.3014 426.03 46.1947C426.11 46.0881 426.188 45.9814 426.262 45.8747C425.996 46.0454 425.702 46.1761 425.382 46.2667C425.062 46.3521 424.726 46.3947 424.374 46.3947ZM427.07 42.9307C427.07 42.6161 427.022 42.3361 426.926 42.0907C426.83 41.8401 426.694 41.6294 426.518 41.4587C426.342 41.2881 426.132 41.1574 425.886 41.0667C425.646 40.9761 425.382 40.9307 425.094 40.9307C424.796 40.9307 424.526 40.9814 424.286 41.0827C424.046 41.1787 423.841 41.3147 423.67 41.4907C423.505 41.6667 423.377 41.8774 423.286 42.1227C423.196 42.3627 423.15 42.6267 423.15 42.9147C423.15 43.5601 423.316 44.0534 423.646 44.3947C423.982 44.7307 424.457 44.8987 425.07 44.8987C425.39 44.8987 425.673 44.8481 425.918 44.7467C426.169 44.6454 426.38 44.5067 426.55 44.3307C426.721 44.1547 426.849 43.9467 426.934 43.7067C427.025 43.4667 427.07 43.2081 427.07 42.9307ZM434.711 39.3147C435.245 39.3147 435.733 39.3947 436.175 39.5547C436.618 39.7094 436.997 39.9307 437.311 40.2187C437.626 40.5067 437.871 40.8534 438.047 41.2587C438.223 41.6641 438.311 42.1147 438.311 42.6107C438.311 43.0374 438.247 43.4321 438.119 43.7947C437.997 44.1574 437.829 44.5041 437.615 44.8347C437.407 45.1654 437.162 45.4854 436.879 45.7947C436.597 46.1041 436.301 46.4187 435.991 46.7387L433.383 49.4027C433.639 49.3281 433.89 49.2721 434.135 49.2347C434.381 49.1921 434.615 49.1707 434.839 49.1707H437.807C438.021 49.1707 438.189 49.2321 438.311 49.3547C438.439 49.4721 438.503 49.6294 438.503 49.8267V51.0107H430.567V50.3547C430.567 50.2214 430.594 50.0827 430.647 49.9387C430.706 49.7947 430.797 49.6614 430.919 49.5387L434.431 46.0187C434.725 45.7201 434.986 45.4347 435.215 45.1627C435.45 44.8907 435.645 44.6214 435.799 44.3547C435.959 44.0881 436.079 43.8187 436.159 43.5467C436.245 43.2694 436.287 42.9787 436.287 42.6747C436.287 42.3974 436.247 42.1547 436.167 41.9467C436.087 41.7334 435.973 41.5547 435.823 41.4107C435.674 41.2667 435.495 41.1601 435.287 41.0907C435.085 41.0161 434.855 40.9787 434.599 40.9787C434.125 40.9787 433.733 41.0987 433.423 41.3387C433.119 41.5787 432.906 41.9014 432.783 42.3067C432.725 42.5094 432.637 42.6561 432.519 42.7467C432.402 42.8321 432.253 42.8747 432.071 42.8747C431.991 42.8747 431.903 42.8667 431.807 42.8507L430.767 42.6667C430.847 42.1121 431.002 41.6267 431.231 41.2107C431.461 40.7894 431.746 40.4401 432.087 40.1627C432.434 39.8801 432.829 39.6694 433.271 39.5307C433.719 39.3867 434.199 39.3147 434.711 39.3147ZM448.537 45.2267C448.537 46.2347 448.427 47.1121 448.209 47.8587C447.995 48.6001 447.697 49.2134 447.313 49.6987C446.934 50.1841 446.483 50.5467 445.961 50.7867C445.443 51.0214 444.883 51.1387 444.281 51.1387C443.678 51.1387 443.118 51.0214 442.601 50.7867C442.089 50.5467 441.643 50.1841 441.265 49.6987C440.886 49.2134 440.59 48.6001 440.377 47.8587C440.163 47.1121 440.057 46.2347 440.057 45.2267C440.057 44.2134 440.163 43.3361 440.377 42.5947C440.59 41.8534 440.886 41.2401 441.265 40.7547C441.643 40.2694 442.089 39.9094 442.601 39.6747C443.118 39.4347 443.678 39.3147 444.281 39.3147C444.883 39.3147 445.443 39.4347 445.961 39.6747C446.483 39.9094 446.934 40.2694 447.313 40.7547C447.697 41.2401 447.995 41.8534 448.209 42.5947C448.427 43.3361 448.537 44.2134 448.537 45.2267ZM446.497 45.2267C446.497 44.3894 446.435 43.6961 446.313 43.1467C446.19 42.5974 446.025 42.1601 445.817 41.8347C445.614 41.5094 445.379 41.2827 445.113 41.1547C444.846 41.0214 444.569 40.9547 444.281 40.9547C443.998 40.9547 443.723 41.0214 443.457 41.1547C443.195 41.2827 442.963 41.5094 442.761 41.8347C442.558 42.1601 442.395 42.5974 442.273 43.1467C442.155 43.6961 442.097 44.3894 442.097 45.2267C442.097 46.0641 442.155 46.7574 442.273 47.3067C442.395 47.8561 442.558 48.2934 442.761 48.6187C442.963 48.9441 443.195 49.1734 443.457 49.3067C443.723 49.4347 443.998 49.4987 444.281 49.4987C444.569 49.4987 444.846 49.4347 445.113 49.3067C445.379 49.1734 445.614 48.9441 445.817 48.6187C446.025 48.2934 446.19 47.8561 446.313 47.3067C446.435 46.7574 446.497 46.0641 446.497 45.2267ZM452.418 46.7787L449.722 42.8027H451.626C451.77 42.8027 451.877 42.8241 451.946 42.8667C452.015 42.9041 452.077 42.9681 452.13 43.0587L453.85 45.8027C453.877 45.7121 453.909 45.6214 453.946 45.5307C453.989 45.4401 454.039 45.3494 454.098 45.2587L455.482 43.0987C455.546 42.9974 455.613 42.9227 455.682 42.8747C455.751 42.8267 455.837 42.8027 455.938 42.8027H457.754L455.05 46.6907L457.866 51.0107H455.962C455.818 51.0107 455.701 50.9734 455.61 50.8987C455.525 50.8241 455.453 50.7387 455.394 50.6427L453.65 47.7867C453.602 47.9787 453.535 48.1387 453.45 48.2667L451.914 50.6427C451.855 50.7334 451.783 50.8187 451.698 50.8987C451.613 50.9734 451.506 51.0107 451.378 51.0107H449.61L452.418 46.7787ZM463.179 51.1387C462.581 51.1387 462.035 51.0587 461.539 50.8987C461.048 50.7387 460.627 50.5121 460.275 50.2187C459.923 49.9254 459.648 49.5707 459.451 49.1547C459.259 48.7387 459.163 48.2747 459.163 47.7627C459.163 47.0801 459.331 46.5041 459.667 46.0347C460.003 45.5601 460.525 45.2081 461.235 44.9787C460.669 44.7441 460.245 44.4107 459.963 43.9787C459.685 43.5467 459.547 43.0267 459.547 42.4187C459.547 41.9814 459.635 41.5734 459.811 41.1947C459.992 40.8161 460.243 40.4881 460.563 40.2107C460.883 39.9281 461.264 39.7094 461.707 39.5547C462.155 39.3947 462.645 39.3147 463.179 39.3147C463.712 39.3147 464.2 39.3947 464.643 39.5547C465.091 39.7094 465.475 39.9281 465.795 40.2107C466.115 40.4881 466.363 40.8161 466.539 41.1947C466.72 41.5734 466.811 41.9814 466.811 42.4187C466.811 43.0267 466.669 43.5467 466.387 43.9787C466.104 44.4107 465.683 44.7441 465.123 44.9787C465.832 45.2081 466.355 45.5601 466.691 46.0347C467.027 46.5041 467.195 47.0801 467.195 47.7627C467.195 48.2747 467.096 48.7387 466.899 49.1547C466.707 49.5707 466.435 49.9254 466.083 50.2187C465.731 50.5121 465.307 50.7387 464.811 50.8987C464.32 51.0587 463.776 51.1387 463.179 51.1387ZM463.179 49.5947C463.504 49.5947 463.789 49.5494 464.035 49.4587C464.28 49.3627 464.485 49.2321 464.651 49.0667C464.821 48.9014 464.949 48.7041 465.035 48.4747C465.12 48.2454 465.163 47.9974 465.163 47.7307C465.163 47.0961 464.987 46.6161 464.635 46.2907C464.283 45.9654 463.797 45.8027 463.179 45.8027C462.56 45.8027 462.075 45.9654 461.723 46.2907C461.371 46.6161 461.195 47.0961 461.195 47.7307C461.195 47.9974 461.237 48.2454 461.323 48.4747C461.408 48.7041 461.533 48.9014 461.699 49.0667C461.869 49.2321 462.077 49.3627 462.323 49.4587C462.568 49.5494 462.853 49.5947 463.179 49.5947ZM463.179 44.2507C463.499 44.2507 463.768 44.2001 463.987 44.0987C464.205 43.9974 464.381 43.8641 464.515 43.6987C464.648 43.5281 464.741 43.3361 464.795 43.1227C464.853 42.9041 464.883 42.6801 464.883 42.4507C464.883 42.2321 464.848 42.0241 464.779 41.8267C464.709 41.6294 464.605 41.4561 464.467 41.3067C464.328 41.1521 464.152 41.0294 463.939 40.9387C463.725 40.8481 463.472 40.8027 463.179 40.8027C462.885 40.8027 462.632 40.8481 462.419 40.9387C462.205 41.0294 462.027 41.1521 461.883 41.3067C461.744 41.4561 461.64 41.6294 461.571 41.8267C461.507 42.0241 461.475 42.2321 461.475 42.4507C461.475 42.6801 461.501 42.9041 461.555 43.1227C461.613 43.3361 461.709 43.5281 461.843 43.6987C461.976 43.8641 462.152 43.9974 462.371 44.0987C462.589 44.2001 462.859 44.2507 463.179 44.2507ZM477.18 45.2267C477.18 46.2347 477.07 47.1121 476.852 47.8587C476.638 48.6001 476.34 49.2134 475.956 49.6987C475.577 50.1841 475.126 50.5467 474.604 50.7867C474.086 51.0214 473.526 51.1387 472.924 51.1387C472.321 51.1387 471.761 51.0214 471.244 50.7867C470.732 50.5467 470.286 50.1841 469.908 49.6987C469.529 49.2134 469.233 48.6001 469.02 47.8587C468.806 47.1121 468.7 46.2347 468.7 45.2267C468.7 44.2134 468.806 43.3361 469.02 42.5947C469.233 41.8534 469.529 41.2401 469.908 40.7547C470.286 40.2694 470.732 39.9094 471.244 39.6747C471.761 39.4347 472.321 39.3147 472.924 39.3147C473.526 39.3147 474.086 39.4347 474.604 39.6747C475.126 39.9094 475.577 40.2694 475.956 40.7547C476.34 41.2401 476.638 41.8534 476.852 42.5947C477.07 43.3361 477.18 44.2134 477.18 45.2267ZM475.14 45.2267C475.14 44.3894 475.078 43.6961 474.956 43.1467C474.833 42.5974 474.668 42.1601 474.46 41.8347C474.257 41.5094 474.022 41.2827 473.756 41.1547C473.489 41.0214 473.212 40.9547 472.924 40.9547C472.641 40.9547 472.366 41.0214 472.1 41.1547C471.838 41.2827 471.606 41.5094 471.404 41.8347C471.201 42.1601 471.038 42.5974 470.916 43.1467C470.798 43.6961 470.74 44.3894 470.74 45.2267C470.74 46.0641 470.798 46.7574 470.916 47.3067C471.038 47.8561 471.201 48.2934 471.404 48.6187C471.606 48.9441 471.838 49.1734 472.1 49.3067C472.366 49.4347 472.641 49.4987 472.924 49.4987C473.212 49.4987 473.489 49.4347 473.756 49.3067C474.022 49.1734 474.257 48.9441 474.46 48.6187C474.668 48.2934 474.833 47.8561 474.956 47.3067C475.078 46.7574 475.14 46.0641 475.14 45.2267ZM486.941 45.2267C486.941 46.2347 486.832 47.1121 486.613 47.8587C486.4 48.6001 486.101 49.2134 485.717 49.6987C485.338 50.1841 484.888 50.5467 484.365 50.7867C483.848 51.0214 483.288 51.1387 482.685 51.1387C482.082 51.1387 481.522 51.0214 481.005 50.7867C480.493 50.5467 480.048 50.1841 479.669 49.6987C479.29 49.2134 478.994 48.6001 478.781 47.8587C478.568 47.1121 478.461 46.2347 478.461 45.2267C478.461 44.2134 478.568 43.3361 478.781 42.5947C478.994 41.8534 479.29 41.2401 479.669 40.7547C480.048 40.2694 480.493 39.9094 481.005 39.6747C481.522 39.4347 482.082 39.3147 482.685 39.3147C483.288 39.3147 483.848 39.4347 484.365 39.6747C484.888 39.9094 485.338 40.2694 485.717 40.7547C486.101 41.2401 486.4 41.8534 486.613 42.5947C486.832 43.3361 486.941 44.2134 486.941 45.2267ZM484.901 45.2267C484.901 44.3894 484.84 43.6961 484.717 43.1467C484.594 42.5974 484.429 42.1601 484.221 41.8347C484.018 41.5094 483.784 41.2827 483.517 41.1547C483.25 41.0214 482.973 40.9547 482.685 40.9547C482.402 40.9547 482.128 41.0214 481.861 41.1547C481.6 41.2827 481.368 41.5094 481.165 41.8347C480.962 42.1601 480.8 42.5974 480.677 43.1467C480.56 43.6961 480.501 44.3894 480.501 45.2267C480.501 46.0641 480.56 46.7574 480.677 47.3067C480.8 47.8561 480.962 48.2934 481.165 48.6187C481.368 48.9441 481.6 49.1734 481.861 49.3067C482.128 49.4347 482.402 49.4987 482.685 49.4987C482.973 49.4987 483.25 49.4347 483.517 49.3067C483.784 49.1734 484.018 48.9441 484.221 48.6187C484.429 48.2934 484.594 47.8561 484.717 47.3067C484.84 46.7574 484.901 46.0641 484.901 45.2267ZM490.062 45.9947C490.062 44.8961 489.929 43.8161 489.662 42.7547C489.396 41.6881 489.017 40.6881 488.526 39.7547C488.457 39.6161 488.422 39.4961 488.422 39.3947C488.422 39.2934 488.449 39.2107 488.502 39.1467C488.556 39.0774 488.62 39.0214 488.694 38.9787L489.574 38.4507C489.969 39.0587 490.305 39.6694 490.582 40.2827C490.86 40.8907 491.086 41.5067 491.262 42.1307C491.438 42.7547 491.566 43.3894 491.646 44.0347C491.732 44.6747 491.774 45.3281 491.774 45.9947C491.774 46.6614 491.732 47.3147 491.646 47.9547C491.566 48.5947 491.438 49.2267 491.262 49.8507C491.086 50.4747 490.86 51.0934 490.582 51.7067C490.305 52.3201 489.969 52.9307 489.574 53.5387L488.694 53.0027C488.62 52.9601 488.556 52.9041 488.502 52.8347C488.449 52.7707 488.422 52.6854 488.422 52.5787C488.422 52.5307 488.428 52.4774 488.438 52.4187C488.454 52.3601 488.481 52.2961 488.518 52.2267C489.014 51.2934 489.396 50.2961 489.662 49.2347C489.929 48.1734 490.062 47.0934 490.062 45.9947Z" fill="#75758F"/>
<path d="M74.0056 28.4259V32.2145H68.2199V37.8974H64.3628V32.2145H58.5771V28.4259H64.3628V22.7429H68.2199V28.4259H74.0056ZM57.6128 41.686C58.3803 41.6858 59.1162 41.3861 59.6587 40.8529C60.2012 40.3196 60.5059 39.5965 60.5056 38.8427C60.5054 38.0888 60.2002 37.3659 59.6574 36.8331C59.1145 36.3002 58.3783 36.001 57.6108 36.0012C57.2308 36.0013 56.8545 36.075 56.5035 36.2179C56.1525 36.3609 55.8335 36.5704 55.5649 36.8344C55.2963 37.0984 55.0832 37.4119 54.9379 37.7568C54.7926 38.1017 54.7179 38.4713 54.718 38.8446C54.7181 39.2178 54.7931 39.5874 54.9386 39.9323C55.0842 40.2771 55.2974 40.5903 55.5663 40.8542C55.8351 41.118 56.1541 41.3273 56.5053 41.47C56.8564 41.6128 57.2328 41.6862 57.6128 41.686ZM64.3628 47.8123L63.3734 46.7325C63.0117 46.3369 62.5692 46.0205 62.0748 45.8039C61.5804 45.5873 61.0451 45.4754 60.5037 45.4754C59.9623 45.4754 59.427 45.5873 58.9326 45.8039C58.4382 46.0205 57.9957 46.3369 57.634 46.7325L56.3708 48.1153L47.0056 37.8974L41.2199 44.2112V32.2145H54.7199V28.4259H41.2199C40.197 28.4259 39.2159 28.825 38.4925 29.5355C37.7692 30.246 37.3628 31.2097 37.3628 32.2145V54.9462C37.3628 55.951 37.7692 56.9147 38.4925 57.6252C39.2159 58.3357 40.197 58.7349 41.2199 58.7349H64.3628C65.3857 58.7349 66.3668 58.3357 67.0902 57.6252C67.8135 56.9147 68.2199 55.951 68.2199 54.9462V41.686H64.3628V47.8123Z" fill="#75758F"/>
</svg>
