<svg width="459" height="37" viewBox="0 0 459 37" fill="none" xmlns="http://www.w3.org/2000/svg">
<path d="M56.3162 27.2699C56.7322 27.2699 57.1029 27.2005 57.4282 27.0619C57.7589 26.9232 58.0362 26.7285 58.2602 26.4779C58.4895 26.2272 58.6629 25.9232 58.7802 25.5659C58.9029 25.2085 58.9642 24.8085 58.9642 24.3659V17.4379H61.1162V24.3659C61.1162 25.0539 61.0042 25.6912 60.7802 26.2779C60.5615 26.8592 60.2442 27.3632 59.8282 27.7899C59.4122 28.2112 58.9082 28.5419 58.3162 28.7819C57.7242 29.0165 57.0575 29.1339 56.3162 29.1339C55.5749 29.1339 54.9082 29.0165 54.3162 28.7819C53.7242 28.5419 53.2202 28.2112 52.8042 27.7899C52.3935 27.3632 52.0762 26.8592 51.8522 26.2779C51.6335 25.6912 51.5242 25.0539 51.5242 24.3659V17.4379H53.6762V24.3579C53.6762 24.8005 53.7349 25.2005 53.8522 25.5579C53.9749 25.9152 54.1482 26.2219 54.3722 26.4779C54.5962 26.7285 54.8709 26.9232 55.1962 27.0619C55.5269 27.2005 55.9002 27.2699 56.3162 27.2699ZM63.6688 31.6859V20.7979H64.8768C65.0048 20.7979 65.1141 20.8272 65.2048 20.8859C65.2955 20.9445 65.3541 21.0352 65.3808 21.1579L65.5408 21.9179C65.8715 21.5392 66.2501 21.2325 66.6768 20.9979C67.1088 20.7632 67.6128 20.6459 68.1888 20.6459C68.6368 20.6459 69.0448 20.7392 69.4128 20.9259C69.7861 21.1125 70.1061 21.3845 70.3728 21.7419C70.6448 22.0939 70.8528 22.5312 70.9968 23.0539C71.1461 23.5712 71.2208 24.1659 71.2208 24.8379C71.2208 25.4512 71.1381 26.0192 70.9728 26.5419C70.8075 27.0645 70.5701 27.5179 70.2608 27.9019C69.9568 28.2859 69.5861 28.5872 69.1488 28.8059C68.7168 29.0192 68.2315 29.1259 67.6928 29.1259C67.2288 29.1259 66.8341 29.0565 66.5088 28.9179C66.1888 28.7739 65.9008 28.5765 65.6448 28.3259V31.6859H63.6688ZM67.5088 22.2059C67.0981 22.2059 66.7461 22.2939 66.4528 22.4699C66.1648 22.6405 65.8955 22.8832 65.6448 23.1979V26.8779C65.8688 27.1552 66.1115 27.3499 66.3728 27.4619C66.6395 27.5685 66.9248 27.6219 67.2288 27.6219C67.5275 27.6219 67.7968 27.5659 68.0368 27.4539C68.2821 27.3419 68.4875 27.1712 68.6528 26.9419C68.8235 26.7125 68.9541 26.4245 69.0448 26.0779C69.1355 25.7259 69.1808 25.3125 69.1808 24.8379C69.1808 24.3579 69.1408 23.9525 69.0608 23.6219C68.9861 23.2859 68.8768 23.0139 68.7328 22.8059C68.5888 22.5979 68.4128 22.4459 68.2048 22.3499C68.0021 22.2539 67.7701 22.2059 67.5088 22.2059ZM75.2997 17.1179V29.0059H73.3237V17.1179H75.2997ZM81.5234 20.6699C82.1368 20.6699 82.6914 20.7685 83.1874 20.9659C83.6888 21.1632 84.1154 21.4432 84.4674 21.8059C84.8194 22.1685 85.0914 22.6112 85.2834 23.1339C85.4754 23.6565 85.5714 24.2405 85.5714 24.8859C85.5714 25.5365 85.4754 26.1232 85.2834 26.6459C85.0914 27.1685 84.8194 27.6139 84.4674 27.9819C84.1154 28.3499 83.6888 28.6325 83.1874 28.8299C82.6914 29.0272 82.1368 29.1259 81.5234 29.1259C80.9101 29.1259 80.3528 29.0272 79.8514 28.8299C79.3501 28.6325 78.9208 28.3499 78.5634 27.9819C78.2114 27.6139 77.9368 27.1685 77.7394 26.6459C77.5474 26.1232 77.4514 25.5365 77.4514 24.8859C77.4514 24.2405 77.5474 23.6565 77.7394 23.1339C77.9368 22.6112 78.2114 22.1685 78.5634 21.8059C78.9208 21.4432 79.3501 21.1632 79.8514 20.9659C80.3528 20.7685 80.9101 20.6699 81.5234 20.6699ZM81.5234 27.6059C82.2061 27.6059 82.7101 27.3765 83.0354 26.9179C83.3661 26.4592 83.5314 25.7872 83.5314 24.9019C83.5314 24.0165 83.3661 23.3419 83.0354 22.8779C82.7101 22.4139 82.2061 22.1819 81.5234 22.1819C80.8301 22.1819 80.3181 22.4165 79.9874 22.8859C79.6568 23.3499 79.4914 24.0219 79.4914 24.9019C79.4914 25.7819 79.6568 26.4539 79.9874 26.9179C80.3181 27.3765 80.8301 27.6059 81.5234 27.6059ZM94.0252 29.0059H93.1372C92.9505 29.0059 92.8039 28.9792 92.6972 28.9259C92.5905 28.8672 92.5105 28.7525 92.4572 28.5819L92.2812 27.9979C92.0732 28.1845 91.8679 28.3499 91.6652 28.4939C91.4679 28.6325 91.2625 28.7499 91.0492 28.8459C90.8359 28.9419 90.6092 29.0139 90.3692 29.0619C90.1292 29.1099 89.8625 29.1339 89.5692 29.1339C89.2225 29.1339 88.9025 29.0885 88.6092 28.9979C88.3159 28.9019 88.0625 28.7605 87.8492 28.5739C87.6412 28.3872 87.4785 28.1552 87.3612 27.8779C87.2439 27.6005 87.1852 27.2779 87.1852 26.9099C87.1852 26.6005 87.2652 26.2965 87.4252 25.9979C87.5905 25.6939 87.8625 25.4219 88.2412 25.1819C88.6199 24.9365 89.1239 24.7339 89.7532 24.5739C90.3825 24.4139 91.1639 24.3232 92.0972 24.3019V23.8219C92.0972 23.2725 91.9799 22.8672 91.7452 22.6059C91.5159 22.3392 91.1799 22.2059 90.7372 22.2059C90.4172 22.2059 90.1505 22.2432 89.9372 22.3179C89.7239 22.3925 89.5372 22.4779 89.3772 22.5739C89.2225 22.6645 89.0785 22.7472 88.9452 22.8219C88.8119 22.8965 88.6652 22.9339 88.5052 22.9339C88.3719 22.9339 88.2572 22.8992 88.1612 22.8299C88.0652 22.7605 87.9879 22.6752 87.9292 22.5739L87.5692 21.9419C88.5132 21.0779 89.6519 20.6459 90.9852 20.6459C91.4652 20.6459 91.8919 20.7259 92.2652 20.8859C92.6439 21.0405 92.9639 21.2592 93.2252 21.5419C93.4865 21.8192 93.6839 22.1525 93.8172 22.5419C93.9559 22.9312 94.0252 23.3579 94.0252 23.8219V29.0059ZM90.1852 27.7739C90.3879 27.7739 90.5745 27.7552 90.7452 27.7179C90.9159 27.6805 91.0759 27.6245 91.2252 27.5499C91.3799 27.4752 91.5265 27.3845 91.6652 27.2779C91.8092 27.1659 91.9532 27.0352 92.0972 26.8859V25.5019C91.5212 25.5285 91.0385 25.5792 90.6492 25.6539C90.2652 25.7232 89.9559 25.8139 89.7212 25.9259C89.4865 26.0379 89.3185 26.1685 89.2172 26.3179C89.1212 26.4672 89.0732 26.6299 89.0732 26.8059C89.0732 27.1525 89.1745 27.4005 89.3772 27.5499C89.5852 27.6992 89.8545 27.7739 90.1852 27.7739ZM102.224 29.0059C101.968 29.0059 101.8 28.8859 101.72 28.6459L101.56 27.8539C101.39 28.0459 101.211 28.2192 101.024 28.3739C100.838 28.5285 100.635 28.6619 100.416 28.7739C100.203 28.8859 99.9709 28.9712 99.7202 29.0299C99.4749 29.0939 99.2082 29.1259 98.9202 29.1259C98.4722 29.1259 98.0615 29.0325 97.6882 28.8459C97.3149 28.6592 96.9922 28.3899 96.7202 28.0379C96.4535 27.6805 96.2455 27.2405 96.0962 26.7179C95.9522 26.1952 95.8802 25.5979 95.8802 24.9259C95.8802 24.3179 95.9629 23.7525 96.1282 23.2299C96.2935 22.7072 96.5309 22.2539 96.8402 21.8699C97.1495 21.4859 97.5202 21.1872 97.9522 20.9739C98.3842 20.7552 98.8695 20.6459 99.4082 20.6459C99.8669 20.6459 100.259 20.7205 100.584 20.8699C100.91 21.0139 101.2 21.2085 101.456 21.4539V17.1179H103.432V29.0059H102.224ZM99.5922 27.5579C100.003 27.5579 100.352 27.4725 100.64 27.3019C100.928 27.1312 101.2 26.8885 101.456 26.5739V22.8939C101.232 22.6219 100.987 22.4299 100.72 22.3179C100.459 22.2059 100.176 22.1499 99.8722 22.1499C99.5735 22.1499 99.3015 22.2059 99.0562 22.3179C98.8162 22.4299 98.6109 22.6005 98.4402 22.8299C98.2749 23.0539 98.1469 23.3419 98.0562 23.6939C97.9655 24.0405 97.9202 24.4512 97.9202 24.9259C97.9202 25.4059 97.9575 25.8139 98.0322 26.1499C98.1122 26.4805 98.2242 26.7525 98.3682 26.9659C98.5122 27.1739 98.6882 27.3259 98.8962 27.4219C99.1042 27.5125 99.3362 27.5579 99.5922 27.5579ZM109.445 20.6699C109.963 20.6699 110.437 20.7525 110.869 20.9179C111.307 21.0832 111.683 21.3259 111.997 21.6459C112.312 21.9605 112.557 22.3499 112.733 22.8139C112.909 23.2725 112.997 23.7979 112.997 24.3899C112.997 24.5392 112.989 24.6645 112.973 24.7659C112.963 24.8619 112.939 24.9392 112.901 24.9979C112.869 25.0512 112.824 25.0912 112.765 25.1179C112.707 25.1392 112.632 25.1499 112.541 25.1499H107.469C107.528 25.9925 107.755 26.6112 108.149 27.0059C108.544 27.4005 109.067 27.5979 109.717 27.5979C110.037 27.5979 110.312 27.5605 110.541 27.4859C110.776 27.4112 110.979 27.3285 111.149 27.2379C111.325 27.1472 111.477 27.0645 111.605 26.9899C111.739 26.9152 111.867 26.8779 111.989 26.8779C112.069 26.8779 112.139 26.8939 112.197 26.9259C112.256 26.9579 112.307 27.0032 112.349 27.0619L112.925 27.7819C112.707 28.0379 112.461 28.2539 112.189 28.4299C111.917 28.6005 111.632 28.7392 111.333 28.8459C111.04 28.9472 110.739 29.0192 110.429 29.0619C110.125 29.1045 109.829 29.1259 109.541 29.1259C108.971 29.1259 108.44 29.0325 107.949 28.8459C107.459 28.6539 107.032 28.3739 106.669 28.0059C106.307 27.6325 106.021 27.1739 105.813 26.6299C105.605 26.0805 105.501 25.4459 105.501 24.7259C105.501 24.1659 105.592 23.6405 105.773 23.1499C105.955 22.6539 106.213 22.2245 106.549 21.8619C106.891 21.4939 107.304 21.2032 107.789 20.9899C108.28 20.7765 108.832 20.6699 109.445 20.6699ZM109.485 22.0859C108.909 22.0859 108.459 22.2485 108.133 22.5739C107.808 22.8992 107.6 23.3605 107.509 23.9579H111.221C111.221 23.7019 111.187 23.4619 111.117 23.2379C111.048 23.0085 110.941 22.8085 110.797 22.6379C110.653 22.4672 110.472 22.3339 110.253 22.2379C110.035 22.1365 109.779 22.0859 109.485 22.0859ZM115.08 29.0059V20.7979H116.24C116.443 20.7979 116.584 20.8352 116.664 20.9099C116.744 20.9845 116.797 21.1125 116.824 21.2939L116.944 22.2859C117.237 21.7792 117.581 21.3792 117.976 21.0859C118.371 20.7925 118.813 20.6459 119.304 20.6459C119.709 20.6459 120.045 20.7392 120.312 20.9259L120.056 22.4059C120.04 22.5019 120.005 22.5712 119.952 22.6139C119.899 22.6512 119.827 22.6699 119.736 22.6699C119.656 22.6699 119.547 22.6512 119.408 22.6139C119.269 22.5765 119.085 22.5579 118.856 22.5579C118.445 22.5579 118.093 22.6725 117.8 22.9019C117.507 23.1259 117.259 23.4565 117.056 23.8939V29.0059H115.08ZM127.473 20.7979V26.0139C127.473 26.5152 127.588 26.9045 127.817 27.1819C128.052 27.4539 128.401 27.5899 128.865 27.5899C129.206 27.5899 129.526 27.5152 129.825 27.3659C130.124 27.2112 130.406 27.0005 130.673 26.7339V20.7979H132.649V29.0059H131.441C131.185 29.0059 131.017 28.8859 130.937 28.6459L130.801 27.9899C130.63 28.1605 130.454 28.3179 130.273 28.4619C130.092 28.6005 129.897 28.7205 129.689 28.8219C129.486 28.9179 129.265 28.9925 129.025 29.0459C128.79 29.1045 128.537 29.1339 128.265 29.1339C127.817 29.1339 127.42 29.0592 127.073 28.9099C126.732 28.7552 126.444 28.5392 126.209 28.2619C125.974 27.9845 125.796 27.6565 125.673 27.2779C125.556 26.8939 125.497 26.4725 125.497 26.0139V20.7979H127.473ZM135.239 29.0059V20.7979H136.447C136.703 20.7979 136.871 20.9179 136.951 21.1579L137.087 21.8059C137.252 21.6352 137.425 21.4805 137.607 21.3419C137.793 21.2032 137.988 21.0832 138.191 20.9819C138.399 20.8805 138.62 20.8032 138.855 20.7499C139.089 20.6965 139.345 20.6699 139.623 20.6699C140.071 20.6699 140.468 20.7472 140.815 20.9019C141.161 21.0512 141.449 21.2645 141.679 21.5419C141.913 21.8139 142.089 22.1419 142.207 22.5259C142.329 22.9045 142.391 23.3232 142.391 23.7819V29.0059H140.415V23.7819C140.415 23.2805 140.297 22.8939 140.063 22.6219C139.833 22.3445 139.487 22.2059 139.023 22.2059C138.681 22.2059 138.361 22.2832 138.063 22.4379C137.764 22.5925 137.481 22.8032 137.215 23.0699V29.0059H135.239ZM148.205 20.6699C148.722 20.6699 149.197 20.7525 149.629 20.9179C150.066 21.0832 150.442 21.3259 150.757 21.6459C151.071 21.9605 151.317 22.3499 151.493 22.8139C151.669 23.2725 151.757 23.7979 151.757 24.3899C151.757 24.5392 151.749 24.6645 151.733 24.7659C151.722 24.8619 151.698 24.9392 151.661 24.9979C151.629 25.0512 151.583 25.0912 151.525 25.1179C151.466 25.1392 151.391 25.1499 151.301 25.1499H146.229C146.287 25.9925 146.514 26.6112 146.909 27.0059C147.303 27.4005 147.826 27.5979 148.477 27.5979C148.797 27.5979 149.071 27.5605 149.301 27.4859C149.535 27.4112 149.738 27.3285 149.909 27.2379C150.085 27.1472 150.237 27.0645 150.365 26.9899C150.498 26.9152 150.626 26.8779 150.749 26.8779C150.829 26.8779 150.898 26.8939 150.957 26.9259C151.015 26.9579 151.066 27.0032 151.109 27.0619L151.685 27.7819C151.466 28.0379 151.221 28.2539 150.949 28.4299C150.677 28.6005 150.391 28.7392 150.093 28.8459C149.799 28.9472 149.498 29.0192 149.189 29.0619C148.885 29.1045 148.589 29.1259 148.301 29.1259C147.73 29.1259 147.199 29.0325 146.709 28.8459C146.218 28.6539 145.791 28.3739 145.429 28.0059C145.066 27.6325 144.781 27.1739 144.573 26.6299C144.365 26.0805 144.261 25.4459 144.261 24.7259C144.261 24.1659 144.351 23.6405 144.533 23.1499C144.714 22.6539 144.973 22.2245 145.309 21.8619C145.65 21.4939 146.063 21.2032 146.549 20.9899C147.039 20.7765 147.591 20.6699 148.205 20.6699ZM148.245 22.0859C147.669 22.0859 147.218 22.2485 146.893 22.5739C146.567 22.8992 146.359 23.3605 146.269 23.9579H149.981C149.981 23.7019 149.946 23.4619 149.877 23.2379C149.807 23.0085 149.701 22.8085 149.557 22.6379C149.413 22.4672 149.231 22.3339 149.013 22.2379C148.794 22.1365 148.538 22.0859 148.245 22.0859ZM159.517 20.7979V29.0059H157.541V20.7979H159.517ZM159.813 18.4059C159.813 18.5765 159.779 18.7365 159.709 18.8859C159.64 19.0352 159.547 19.1659 159.429 19.2779C159.317 19.3899 159.184 19.4805 159.029 19.5499C158.875 19.6139 158.709 19.6459 158.533 19.6459C158.363 19.6459 158.2 19.6139 158.045 19.5499C157.896 19.4805 157.765 19.3899 157.653 19.2779C157.541 19.1659 157.451 19.0352 157.381 18.8859C157.317 18.7365 157.285 18.5765 157.285 18.4059C157.285 18.2299 157.317 18.0645 157.381 17.9099C157.451 17.7552 157.541 17.6219 157.653 17.5099C157.765 17.3979 157.896 17.3099 158.045 17.2459C158.2 17.1765 158.363 17.1419 158.533 17.1419C158.709 17.1419 158.875 17.1765 159.029 17.2459C159.184 17.3099 159.317 17.3979 159.429 17.5099C159.547 17.6219 159.64 17.7552 159.709 17.9099C159.779 18.0645 159.813 18.2299 159.813 18.4059ZM162.237 29.0059V20.7979H163.445C163.701 20.7979 163.869 20.9179 163.949 21.1579L164.077 21.7659C164.221 21.6059 164.37 21.4592 164.525 21.3259C164.685 21.1925 164.853 21.0779 165.029 20.9819C165.21 20.8859 165.402 20.8112 165.605 20.7579C165.813 20.6992 166.04 20.6699 166.285 20.6699C166.802 20.6699 167.226 20.8112 167.557 21.0939C167.893 21.3712 168.144 21.7419 168.309 22.2059C168.437 21.9339 168.597 21.7019 168.789 21.5099C168.981 21.3125 169.192 21.1525 169.421 21.0299C169.65 20.9072 169.893 20.8165 170.149 20.7579C170.41 20.6992 170.672 20.6699 170.933 20.6699C171.386 20.6699 171.789 20.7392 172.141 20.8779C172.493 21.0165 172.789 21.2192 173.029 21.4859C173.269 21.7525 173.45 22.0779 173.573 22.4619C173.701 22.8459 173.765 23.2859 173.765 23.7819V29.0059H171.789V23.7819C171.789 23.2592 171.674 22.8672 171.445 22.6059C171.216 22.3392 170.88 22.2059 170.437 22.2059C170.234 22.2059 170.045 22.2405 169.869 22.3099C169.698 22.3792 169.546 22.4805 169.413 22.6139C169.285 22.7419 169.184 22.9045 169.109 23.1019C169.034 23.2992 168.997 23.5259 168.997 23.7819V29.0059H167.013V23.7819C167.013 23.2325 166.901 22.8325 166.677 22.5819C166.458 22.3312 166.133 22.2059 165.701 22.2059C165.418 22.2059 165.152 22.2779 164.901 22.4219C164.656 22.5605 164.426 22.7525 164.213 22.9979V29.0059H162.237ZM182.618 29.0059H181.73C181.543 29.0059 181.396 28.9792 181.29 28.9259C181.183 28.8672 181.103 28.7525 181.05 28.5819L180.874 27.9979C180.666 28.1845 180.46 28.3499 180.258 28.4939C180.06 28.6325 179.855 28.7499 179.642 28.8459C179.428 28.9419 179.202 29.0139 178.962 29.0619C178.722 29.1099 178.455 29.1339 178.162 29.1339C177.815 29.1339 177.495 29.0885 177.202 28.9979C176.908 28.9019 176.655 28.7605 176.442 28.5739C176.234 28.3872 176.071 28.1552 175.954 27.8779C175.836 27.6005 175.778 27.2779 175.778 26.9099C175.778 26.6005 175.858 26.2965 176.018 25.9979C176.183 25.6939 176.455 25.4219 176.834 25.1819C177.212 24.9365 177.716 24.7339 178.346 24.5739C178.975 24.4139 179.756 24.3232 180.69 24.3019V23.8219C180.69 23.2725 180.572 22.8672 180.338 22.6059C180.108 22.3392 179.772 22.2059 179.33 22.2059C179.01 22.2059 178.743 22.2432 178.53 22.3179C178.316 22.3925 178.13 22.4779 177.97 22.5739C177.815 22.6645 177.671 22.7472 177.538 22.8219C177.404 22.8965 177.258 22.9339 177.098 22.9339C176.964 22.9339 176.85 22.8992 176.754 22.8299C176.658 22.7605 176.58 22.6752 176.522 22.5739L176.162 21.9419C177.106 21.0779 178.244 20.6459 179.578 20.6459C180.058 20.6459 180.484 20.7259 180.858 20.8859C181.236 21.0405 181.556 21.2592 181.818 21.5419C182.079 21.8192 182.276 22.1525 182.41 22.5419C182.548 22.9312 182.618 23.3579 182.618 23.8219V29.0059ZM178.778 27.7739C178.98 27.7739 179.167 27.7552 179.338 27.7179C179.508 27.6805 179.668 27.6245 179.818 27.5499C179.972 27.4752 180.119 27.3845 180.258 27.2779C180.402 27.1659 180.546 27.0352 180.69 26.8859V25.5019C180.114 25.5285 179.631 25.5792 179.242 25.6539C178.858 25.7232 178.548 25.8139 178.314 25.9259C178.079 26.0379 177.911 26.1685 177.81 26.3179C177.714 26.4672 177.666 26.6299 177.666 26.8059C177.666 27.1525 177.767 27.4005 177.97 27.5499C178.178 27.6992 178.447 27.7739 178.778 27.7739ZM187.881 20.6539C188.233 20.6539 188.563 20.6912 188.873 20.7659C189.182 20.8352 189.465 20.9392 189.721 21.0779H192.081V21.8139C192.081 21.9365 192.049 22.0325 191.985 22.1019C191.921 22.1712 191.811 22.2192 191.657 22.2459L190.921 22.3819C190.974 22.5205 191.014 22.6672 191.041 22.8219C191.073 22.9765 191.089 23.1392 191.089 23.3099C191.089 23.7152 191.006 24.0832 190.841 24.4139C190.681 24.7392 190.457 25.0165 190.169 25.2459C189.886 25.4752 189.547 25.6539 189.153 25.7819C188.763 25.9045 188.339 25.9659 187.881 25.9659C187.571 25.9659 187.27 25.9365 186.977 25.8779C186.721 26.0325 186.593 26.2059 186.593 26.3979C186.593 26.5632 186.667 26.6859 186.817 26.7659C186.971 26.8405 187.171 26.8939 187.417 26.9259C187.667 26.9579 187.95 26.9792 188.265 26.9899C188.579 26.9952 188.902 27.0112 189.233 27.0379C189.563 27.0645 189.886 27.1125 190.201 27.1819C190.515 27.2459 190.795 27.3499 191.041 27.4939C191.291 27.6379 191.491 27.8352 191.641 28.0859C191.795 28.3312 191.873 28.6485 191.873 29.0379C191.873 29.4005 191.782 29.7525 191.601 30.0939C191.425 30.4352 191.166 30.7392 190.825 31.0059C190.489 31.2725 190.075 31.4859 189.585 31.6459C189.094 31.8112 188.534 31.8939 187.905 31.8939C187.281 31.8939 186.739 31.8325 186.281 31.7099C185.822 31.5925 185.441 31.4325 185.137 31.2299C184.838 31.0325 184.614 30.8032 184.465 30.5419C184.315 30.2805 184.241 30.0085 184.241 29.7259C184.241 29.3419 184.358 29.0192 184.593 28.7579C184.827 28.4965 185.153 28.2885 185.569 28.1339C185.366 28.0219 185.203 27.8725 185.081 27.6859C184.958 27.4992 184.897 27.2565 184.897 26.9579C184.897 26.8352 184.918 26.7099 184.961 26.5819C185.003 26.4485 185.067 26.3179 185.153 26.1899C185.243 26.0619 185.355 25.9419 185.489 25.8299C185.622 25.7125 185.779 25.6085 185.961 25.5179C185.545 25.2939 185.217 24.9952 184.977 24.6219C184.742 24.2485 184.625 23.8112 184.625 23.3099C184.625 22.9045 184.705 22.5392 184.865 22.2139C185.03 21.8832 185.257 21.6032 185.545 21.3739C185.838 21.1392 186.182 20.9605 186.577 20.8379C186.977 20.7152 187.411 20.6539 187.881 20.6539ZM190.049 29.3739C190.049 29.2139 190.001 29.0832 189.905 28.9819C189.809 28.8805 189.678 28.8032 189.513 28.7499C189.347 28.6912 189.153 28.6485 188.929 28.6219C188.71 28.5952 188.475 28.5765 188.225 28.5659C187.979 28.5499 187.723 28.5365 187.457 28.5259C187.195 28.5099 186.942 28.4859 186.697 28.4539C186.473 28.5765 186.291 28.7232 186.153 28.8939C186.019 29.0592 185.953 29.2512 185.953 29.4699C185.953 29.6139 185.987 29.7472 186.057 29.8699C186.131 29.9979 186.246 30.1072 186.401 30.1979C186.561 30.2885 186.766 30.3579 187.017 30.4059C187.267 30.4592 187.574 30.4859 187.937 30.4859C188.305 30.4859 188.622 30.4565 188.889 30.3979C189.155 30.3445 189.374 30.2672 189.545 30.1659C189.721 30.0699 189.849 29.9525 189.929 29.8139C190.009 29.6805 190.049 29.5339 190.049 29.3739ZM187.881 24.7019C188.126 24.7019 188.339 24.6699 188.521 24.6059C188.702 24.5365 188.851 24.4432 188.969 24.3259C189.091 24.2085 189.182 24.0672 189.241 23.9019C189.305 23.7365 189.337 23.5552 189.337 23.3579C189.337 22.9525 189.214 22.6325 188.969 22.3979C188.729 22.1579 188.366 22.0379 187.881 22.0379C187.395 22.0379 187.03 22.1579 186.785 22.3979C186.545 22.6325 186.425 22.9525 186.425 23.3579C186.425 23.5499 186.454 23.7285 186.513 23.8939C186.577 24.0592 186.667 24.2032 186.785 24.3259C186.907 24.4432 187.059 24.5365 187.241 24.6059C187.427 24.6699 187.641 24.7019 187.881 24.7019ZM197.194 20.6699C197.711 20.6699 198.186 20.7525 198.618 20.9179C199.055 21.0832 199.431 21.3259 199.746 21.6459C200.061 21.9605 200.306 22.3499 200.482 22.8139C200.658 23.2725 200.746 23.7979 200.746 24.3899C200.746 24.5392 200.738 24.6645 200.722 24.7659C200.711 24.8619 200.687 24.9392 200.65 24.9979C200.618 25.0512 200.573 25.0912 200.514 25.1179C200.455 25.1392 200.381 25.1499 200.29 25.1499H195.218C195.277 25.9925 195.503 26.6112 195.898 27.0059C196.293 27.4005 196.815 27.5979 197.466 27.5979C197.786 27.5979 198.061 27.5605 198.29 27.4859C198.525 27.4112 198.727 27.3285 198.898 27.2379C199.074 27.1472 199.226 27.0645 199.354 26.9899C199.487 26.9152 199.615 26.8779 199.738 26.8779C199.818 26.8779 199.887 26.8939 199.946 26.9259C200.005 26.9579 200.055 27.0032 200.098 27.0619L200.674 27.7819C200.455 28.0379 200.21 28.2539 199.938 28.4299C199.666 28.6005 199.381 28.7392 199.082 28.8459C198.789 28.9472 198.487 29.0192 198.178 29.0619C197.874 29.1045 197.578 29.1259 197.29 29.1259C196.719 29.1259 196.189 29.0325 195.698 28.8459C195.207 28.6539 194.781 28.3739 194.418 28.0059C194.055 27.6325 193.77 27.1739 193.562 26.6299C193.354 26.0805 193.25 25.4459 193.25 24.7259C193.25 24.1659 193.341 23.6405 193.522 23.1499C193.703 22.6539 193.962 22.2245 194.298 21.8619C194.639 21.4939 195.053 21.2032 195.538 20.9899C196.029 20.7765 196.581 20.6699 197.194 20.6699ZM197.234 22.0859C196.658 22.0859 196.207 22.2485 195.882 22.5739C195.557 22.8992 195.349 23.3605 195.258 23.9579H198.97C198.97 23.7019 198.935 23.4619 198.866 23.2379C198.797 23.0085 198.69 22.8085 198.546 22.6379C198.402 22.4672 198.221 22.3339 198.002 22.2379C197.783 22.1365 197.527 22.0859 197.234 22.0859ZM212.179 29.0059C211.923 29.0059 211.755 28.8859 211.675 28.6459L211.515 27.8539C211.344 28.0459 211.165 28.2192 210.979 28.3739C210.792 28.5285 210.589 28.6619 210.371 28.7739C210.157 28.8859 209.925 28.9712 209.675 29.0299C209.429 29.0939 209.163 29.1259 208.875 29.1259C208.427 29.1259 208.016 29.0325 207.643 28.8459C207.269 28.6592 206.947 28.3899 206.675 28.0379C206.408 27.6805 206.2 27.2405 206.051 26.7179C205.907 26.1952 205.835 25.5979 205.835 24.9259C205.835 24.3179 205.917 23.7525 206.083 23.2299C206.248 22.7072 206.485 22.2539 206.795 21.8699C207.104 21.4859 207.475 21.1872 207.907 20.9739C208.339 20.7552 208.824 20.6459 209.363 20.6459C209.821 20.6459 210.213 20.7205 210.539 20.8699C210.864 21.0139 211.155 21.2085 211.411 21.4539V17.1179H213.387V29.0059H212.179ZM209.547 27.5579C209.957 27.5579 210.307 27.4725 210.595 27.3019C210.883 27.1312 211.155 26.8885 211.411 26.5739V22.8939C211.187 22.6219 210.941 22.4299 210.675 22.3179C210.413 22.2059 210.131 22.1499 209.827 22.1499C209.528 22.1499 209.256 22.2059 209.011 22.3179C208.771 22.4299 208.565 22.6005 208.395 22.8299C208.229 23.0539 208.101 23.3419 208.011 23.6939C207.92 24.0405 207.875 24.4512 207.875 24.9259C207.875 25.4059 207.912 25.8139 207.987 26.1499C208.067 26.4805 208.179 26.7525 208.323 26.9659C208.467 27.1739 208.643 27.3259 208.851 27.4219C209.059 27.5125 209.291 27.5579 209.547 27.5579ZM219.4 20.6699C219.917 20.6699 220.392 20.7525 220.824 20.9179C221.261 21.0832 221.637 21.3259 221.952 21.6459C222.266 21.9605 222.512 22.3499 222.688 22.8139C222.864 23.2725 222.952 23.7979 222.952 24.3899C222.952 24.5392 222.944 24.6645 222.928 24.7659C222.917 24.8619 222.893 24.9392 222.856 24.9979C222.824 25.0512 222.778 25.0912 222.72 25.1179C222.661 25.1392 222.586 25.1499 222.496 25.1499H217.424C217.482 25.9925 217.709 26.6112 218.104 27.0059C218.498 27.4005 219.021 27.5979 219.672 27.5979C219.992 27.5979 220.266 27.5605 220.496 27.4859C220.73 27.4112 220.933 27.3285 221.104 27.2379C221.28 27.1472 221.432 27.0645 221.56 26.9899C221.693 26.9152 221.821 26.8779 221.944 26.8779C222.024 26.8779 222.093 26.8939 222.152 26.9259C222.21 26.9579 222.261 27.0032 222.304 27.0619L222.88 27.7819C222.661 28.0379 222.416 28.2539 222.144 28.4299C221.872 28.6005 221.586 28.7392 221.288 28.8459C220.994 28.9472 220.693 29.0192 220.384 29.0619C220.08 29.1045 219.784 29.1259 219.496 29.1259C218.925 29.1259 218.394 29.0325 217.904 28.8459C217.413 28.6539 216.986 28.3739 216.624 28.0059C216.261 27.6325 215.976 27.1739 215.768 26.6299C215.56 26.0805 215.456 25.4459 215.456 24.7259C215.456 24.1659 215.546 23.6405 215.728 23.1499C215.909 22.6539 216.168 22.2245 216.504 21.8619C216.845 21.4939 217.258 21.2032 217.744 20.9899C218.234 20.7765 218.786 20.6699 219.4 20.6699ZM219.44 22.0859C218.864 22.0859 218.413 22.2485 218.088 22.5739C217.762 22.8992 217.554 23.3605 217.464 23.9579H221.176C221.176 23.7019 221.141 23.4619 221.072 23.2379C221.002 23.0085 220.896 22.8085 220.752 22.6379C220.608 22.4672 220.426 22.3339 220.208 22.2379C219.989 22.1365 219.733 22.0859 219.44 22.0859ZM228.96 29.0059V22.2859L228.248 22.1739C228.094 22.1472 227.968 22.0939 227.872 22.0139C227.782 21.9339 227.736 21.8219 227.736 21.6779V20.8699H228.96V20.2619C228.96 19.7925 229.03 19.3712 229.168 18.9979C229.312 18.6245 229.515 18.3072 229.776 18.0459C230.043 17.7845 230.366 17.5845 230.744 17.4459C231.123 17.3072 231.55 17.2379 232.024 17.2379C232.403 17.2379 232.755 17.2885 233.08 17.3899L233.04 18.3819C233.03 18.5365 232.958 18.6325 232.824 18.6699C232.691 18.7072 232.536 18.7259 232.36 18.7259C232.126 18.7259 231.915 18.7525 231.728 18.8059C231.547 18.8539 231.392 18.9419 231.264 19.0699C231.136 19.1925 231.038 19.3579 230.968 19.5659C230.904 19.7685 230.872 20.0219 230.872 20.3259V20.8699H233.008V22.2779H230.936V29.0059H228.96ZM238.202 20.6699C238.815 20.6699 239.37 20.7685 239.866 20.9659C240.367 21.1632 240.794 21.4432 241.146 21.8059C241.498 22.1685 241.77 22.6112 241.962 23.1339C242.154 23.6565 242.25 24.2405 242.25 24.8859C242.25 25.5365 242.154 26.1232 241.962 26.6459C241.77 27.1685 241.498 27.6139 241.146 27.9819C240.794 28.3499 240.367 28.6325 239.866 28.8299C239.37 29.0272 238.815 29.1259 238.202 29.1259C237.588 29.1259 237.031 29.0272 236.53 28.8299C236.028 28.6325 235.599 28.3499 235.242 27.9819C234.89 27.6139 234.615 27.1685 234.418 26.6459C234.226 26.1232 234.13 25.5365 234.13 24.8859C234.13 24.2405 234.226 23.6565 234.418 23.1339C234.615 22.6112 234.89 22.1685 235.242 21.8059C235.599 21.4432 236.028 21.1632 236.53 20.9659C237.031 20.7685 237.588 20.6699 238.202 20.6699ZM238.202 27.6059C238.884 27.6059 239.388 27.3765 239.714 26.9179C240.044 26.4592 240.21 25.7872 240.21 24.9019C240.21 24.0165 240.044 23.3419 239.714 22.8779C239.388 22.4139 238.884 22.1819 238.202 22.1819C237.508 22.1819 236.996 22.4165 236.666 22.8859C236.335 23.3499 236.17 24.0219 236.17 24.9019C236.17 25.7819 236.335 26.4539 236.666 26.9179C236.996 27.3765 237.508 27.6059 238.202 27.6059ZM244.271 29.0059V20.7979H245.479C245.735 20.7979 245.903 20.9179 245.983 21.1579L246.119 21.8059C246.285 21.6352 246.458 21.4805 246.639 21.3419C246.826 21.2032 247.021 21.0832 247.223 20.9819C247.431 20.8805 247.653 20.8032 247.887 20.7499C248.122 20.6965 248.378 20.6699 248.655 20.6699C249.103 20.6699 249.501 20.7472 249.847 20.9019C250.194 21.0512 250.482 21.2645 250.711 21.5419C250.946 21.8139 251.122 22.1419 251.239 22.5259C251.362 22.9045 251.423 23.3232 251.423 23.7819V29.0059H249.447V23.7819C249.447 23.2805 249.33 22.8939 249.095 22.6219C248.866 22.3445 248.519 22.2059 248.055 22.2059C247.714 22.2059 247.394 22.2832 247.095 22.4379C246.797 22.5925 246.514 22.8032 246.247 23.0699V29.0059H244.271ZM259.621 29.0059C259.365 29.0059 259.197 28.8859 259.117 28.6459L258.957 27.8539C258.786 28.0459 258.608 28.2192 258.421 28.3739C258.234 28.5285 258.032 28.6619 257.813 28.7739C257.6 28.8859 257.368 28.9712 257.117 29.0299C256.872 29.0939 256.605 29.1259 256.317 29.1259C255.869 29.1259 255.458 29.0325 255.085 28.8459C254.712 28.6592 254.389 28.3899 254.117 28.0379C253.85 27.6805 253.642 27.2405 253.493 26.7179C253.349 26.1952 253.277 25.5979 253.277 24.9259C253.277 24.3179 253.36 23.7525 253.525 23.2299C253.69 22.7072 253.928 22.2539 254.237 21.8699C254.546 21.4859 254.917 21.1872 255.349 20.9739C255.781 20.7552 256.266 20.6459 256.805 20.6459C257.264 20.6459 257.656 20.7205 257.981 20.8699C258.306 21.0139 258.597 21.2085 258.853 21.4539V17.1179H260.829V29.0059H259.621ZM256.989 27.5579C257.4 27.5579 257.749 27.4725 258.037 27.3019C258.325 27.1312 258.597 26.8885 258.853 26.5739V22.8939C258.629 22.6219 258.384 22.4299 258.117 22.3179C257.856 22.2059 257.573 22.1499 257.269 22.1499C256.97 22.1499 256.698 22.2059 256.453 22.3179C256.213 22.4299 256.008 22.6005 255.837 22.8299C255.672 23.0539 255.544 23.3419 255.453 23.6939C255.362 24.0405 255.317 24.4512 255.317 24.9259C255.317 25.4059 255.354 25.8139 255.429 26.1499C255.509 26.4805 255.621 26.7525 255.765 26.9659C255.909 27.1739 256.085 27.3259 256.293 27.4219C256.501 27.5125 256.733 27.5579 256.989 27.5579ZM268.528 23.9899C268.528 25.0885 268.661 26.1685 268.928 27.2299C269.194 28.2912 269.576 29.2885 270.072 30.2219C270.109 30.2912 270.133 30.3552 270.144 30.4139C270.16 30.4725 270.168 30.5259 270.168 30.5739C270.168 30.6805 270.141 30.7659 270.088 30.8299C270.034 30.8992 269.97 30.9552 269.896 30.9979L269.016 31.5339C268.621 30.9259 268.285 30.3152 268.008 29.7019C267.73 29.0885 267.504 28.4699 267.328 27.8459C267.152 27.2219 267.021 26.5899 266.936 25.9499C266.856 25.3099 266.816 24.6565 266.816 23.9899C266.816 23.3232 266.856 22.6699 266.936 22.0299C267.021 21.3845 267.152 20.7499 267.328 20.1259C267.504 19.5019 267.73 18.8859 268.008 18.2779C268.285 17.6645 268.621 17.0539 269.016 16.4459L269.896 16.9739C269.97 17.0165 270.034 17.0725 270.088 17.1419C270.141 17.2059 270.168 17.2885 270.168 17.3899C270.168 17.4912 270.133 17.6112 270.064 17.7499C269.573 18.6832 269.194 19.6832 268.928 20.7499C268.661 21.8112 268.528 22.8912 268.528 23.9899ZM280.565 17.4379V19.2059H277.085V29.0059H274.933V19.2059H271.437V17.4379H280.565ZM286.775 29.0059H285.887C285.701 29.0059 285.554 28.9792 285.447 28.9259C285.341 28.8672 285.261 28.7525 285.207 28.5819L285.031 27.9979C284.823 28.1845 284.618 28.3499 284.415 28.4939C284.218 28.6325 284.013 28.7499 283.799 28.8459C283.586 28.9419 283.359 29.0139 283.119 29.0619C282.879 29.1099 282.613 29.1339 282.319 29.1339C281.973 29.1339 281.653 29.0885 281.359 28.9979C281.066 28.9019 280.813 28.7605 280.599 28.5739C280.391 28.3872 280.229 28.1552 280.111 27.8779C279.994 27.6005 279.935 27.2779 279.935 26.9099C279.935 26.6005 280.015 26.2965 280.175 25.9979C280.341 25.6939 280.613 25.4219 280.991 25.1819C281.37 24.9365 281.874 24.7339 282.503 24.5739C283.133 24.4139 283.914 24.3232 284.847 24.3019V23.8219C284.847 23.2725 284.73 22.8672 284.495 22.6059C284.266 22.3392 283.93 22.2059 283.487 22.2059C283.167 22.2059 282.901 22.2432 282.687 22.3179C282.474 22.3925 282.287 22.4779 282.127 22.5739C281.973 22.6645 281.829 22.7472 281.695 22.8219C281.562 22.8965 281.415 22.9339 281.255 22.9339C281.122 22.9339 281.007 22.8992 280.911 22.8299C280.815 22.7605 280.738 22.6752 280.679 22.5739L280.319 21.9419C281.263 21.0779 282.402 20.6459 283.735 20.6459C284.215 20.6459 284.642 20.7259 285.015 20.8859C285.394 21.0405 285.714 21.2592 285.975 21.5419C286.237 21.8192 286.434 22.1525 286.567 22.5419C286.706 22.9312 286.775 23.3579 286.775 23.8219V29.0059ZM282.935 27.7739C283.138 27.7739 283.325 27.7552 283.495 27.7179C283.666 27.6805 283.826 27.6245 283.975 27.5499C284.13 27.4752 284.277 27.3845 284.415 27.2779C284.559 27.1659 284.703 27.0352 284.847 26.8859V25.5019C284.271 25.5285 283.789 25.5792 283.399 25.6539C283.015 25.7232 282.706 25.8139 282.471 25.9259C282.237 26.0379 282.069 26.1685 281.967 26.3179C281.871 26.4672 281.823 26.6299 281.823 26.8059C281.823 27.1525 281.925 27.4005 282.127 27.5499C282.335 27.6992 282.605 27.7739 282.935 27.7739ZM291.302 20.7979V29.0059H289.326V20.7979H291.302ZM291.598 18.4059C291.598 18.5765 291.564 18.7365 291.494 18.8859C291.425 19.0352 291.332 19.1659 291.214 19.2779C291.102 19.3899 290.969 19.4805 290.814 19.5499C290.66 19.6139 290.494 19.6459 290.318 19.6459C290.148 19.6459 289.985 19.6139 289.83 19.5499C289.681 19.4805 289.55 19.3899 289.438 19.2779C289.326 19.1659 289.236 19.0352 289.166 18.8859C289.102 18.7365 289.07 18.5765 289.07 18.4059C289.07 18.2299 289.102 18.0645 289.166 17.9099C289.236 17.7552 289.326 17.6219 289.438 17.5099C289.55 17.3979 289.681 17.3099 289.83 17.2459C289.985 17.1765 290.148 17.1419 290.318 17.1419C290.494 17.1419 290.66 17.1765 290.814 17.2459C290.969 17.3099 291.102 17.3979 291.214 17.5099C291.332 17.6219 291.425 17.7552 291.494 17.9099C291.564 18.0645 291.598 18.2299 291.598 18.4059ZM296.126 17.1179V29.0059H294.15V17.1179H296.126ZM300.95 17.1179V29.0059H298.974V17.1179H300.95ZM307.061 20.6699C307.579 20.6699 308.053 20.7525 308.485 20.9179C308.923 21.0832 309.299 21.3259 309.613 21.6459C309.928 21.9605 310.173 22.3499 310.349 22.8139C310.525 23.2725 310.613 23.7979 310.613 24.3899C310.613 24.5392 310.605 24.6645 310.589 24.7659C310.579 24.8619 310.555 24.9392 310.517 24.9979C310.485 25.0512 310.44 25.0912 310.381 25.1179C310.323 25.1392 310.248 25.1499 310.157 25.1499H305.085C305.144 25.9925 305.371 26.6112 305.765 27.0059C306.16 27.4005 306.683 27.5979 307.333 27.5979C307.653 27.5979 307.928 27.5605 308.157 27.4859C308.392 27.4112 308.595 27.3285 308.765 27.2379C308.941 27.1472 309.093 27.0645 309.221 26.9899C309.355 26.9152 309.483 26.8779 309.605 26.8779C309.685 26.8779 309.755 26.8939 309.813 26.9259C309.872 26.9579 309.923 27.0032 309.965 27.0619L310.541 27.7819C310.323 28.0379 310.077 28.2539 309.805 28.4299C309.533 28.6005 309.248 28.7392 308.949 28.8459C308.656 28.9472 308.355 29.0192 308.045 29.0619C307.741 29.1045 307.445 29.1259 307.157 29.1259C306.587 29.1259 306.056 29.0325 305.565 28.8459C305.075 28.6539 304.648 28.3739 304.285 28.0059C303.923 27.6325 303.637 27.1739 303.429 26.6299C303.221 26.0805 303.117 25.4459 303.117 24.7259C303.117 24.1659 303.208 23.6405 303.389 23.1499C303.571 22.6539 303.829 22.2245 304.165 21.8619C304.507 21.4939 304.92 21.2032 305.405 20.9899C305.896 20.7765 306.448 20.6699 307.061 20.6699ZM307.101 22.0859C306.525 22.0859 306.075 22.2485 305.749 22.5739C305.424 22.8992 305.216 23.3605 305.125 23.9579H308.837C308.837 23.7019 308.803 23.4619 308.733 23.2379C308.664 23.0085 308.557 22.8085 308.413 22.6379C308.269 22.4672 308.088 22.3339 307.869 22.2379C307.651 22.1365 307.395 22.0859 307.101 22.0859ZM318.374 20.7979V29.0059H316.398V20.7979H318.374ZM318.67 18.4059C318.67 18.5765 318.635 18.7365 318.566 18.8859C318.497 19.0352 318.403 19.1659 318.286 19.2779C318.174 19.3899 318.041 19.4805 317.886 19.5499C317.731 19.6139 317.566 19.6459 317.39 19.6459C317.219 19.6459 317.057 19.6139 316.902 19.5499C316.753 19.4805 316.622 19.3899 316.51 19.2779C316.398 19.1659 316.307 19.0352 316.238 18.8859C316.174 18.7365 316.142 18.5765 316.142 18.4059C316.142 18.2299 316.174 18.0645 316.238 17.9099C316.307 17.7552 316.398 17.6219 316.51 17.5099C316.622 17.3979 316.753 17.3099 316.902 17.2459C317.057 17.1765 317.219 17.1419 317.39 17.1419C317.566 17.1419 317.731 17.1765 317.886 17.2459C318.041 17.3099 318.174 17.3979 318.286 17.5099C318.403 17.6219 318.497 17.7552 318.566 17.9099C318.635 18.0645 318.67 18.2299 318.67 18.4059ZM326.87 29.0059C326.614 29.0059 326.446 28.8859 326.366 28.6459L326.206 27.8539C326.035 28.0459 325.856 28.2192 325.67 28.3739C325.483 28.5285 325.28 28.6619 325.062 28.7739C324.848 28.8859 324.616 28.9712 324.366 29.0299C324.12 29.0939 323.854 29.1259 323.566 29.1259C323.118 29.1259 322.707 29.0325 322.334 28.8459C321.96 28.6592 321.638 28.3899 321.366 28.0379C321.099 27.6805 320.891 27.2405 320.742 26.7179C320.598 26.1952 320.526 25.5979 320.526 24.9259C320.526 24.3179 320.608 23.7525 320.774 23.2299C320.939 22.7072 321.176 22.2539 321.486 21.8699C321.795 21.4859 322.166 21.1872 322.598 20.9739C323.03 20.7552 323.515 20.6459 324.054 20.6459C324.512 20.6459 324.904 20.7205 325.23 20.8699C325.555 21.0139 325.846 21.2085 326.102 21.4539V17.1179H328.078V29.0059H326.87ZM324.238 27.5579C324.648 27.5579 324.998 27.4725 325.286 27.3019C325.574 27.1312 325.846 26.8885 326.102 26.5739V22.8939C325.878 22.6219 325.632 22.4299 325.366 22.3179C325.104 22.2059 324.822 22.1499 324.518 22.1499C324.219 22.1499 323.947 22.2059 323.702 22.3179C323.462 22.4299 323.256 22.6005 323.086 22.8299C322.92 23.0539 322.792 23.3419 322.702 23.6939C322.611 24.0405 322.566 24.4512 322.566 24.9259C322.566 25.4059 322.603 25.8139 322.678 26.1499C322.758 26.4805 322.87 26.7525 323.014 26.9659C323.158 27.1739 323.334 27.3259 323.542 27.4219C323.75 27.5125 323.982 27.5579 324.238 27.5579ZM334.091 20.6699C334.608 20.6699 335.083 20.7525 335.515 20.9179C335.952 21.0832 336.328 21.3259 336.643 21.6459C336.957 21.9605 337.203 22.3499 337.379 22.8139C337.555 23.2725 337.643 23.7979 337.643 24.3899C337.643 24.5392 337.635 24.6645 337.619 24.7659C337.608 24.8619 337.584 24.9392 337.547 24.9979C337.515 25.0512 337.469 25.0912 337.411 25.1179C337.352 25.1392 337.277 25.1499 337.187 25.1499H332.115C332.173 25.9925 332.4 26.6112 332.795 27.0059C333.189 27.4005 333.712 27.5979 334.363 27.5979C334.683 27.5979 334.957 27.5605 335.187 27.4859C335.421 27.4112 335.624 27.3285 335.795 27.2379C335.971 27.1472 336.123 27.0645 336.251 26.9899C336.384 26.9152 336.512 26.8779 336.635 26.8779C336.715 26.8779 336.784 26.8939 336.843 26.9259C336.901 26.9579 336.952 27.0032 336.995 27.0619L337.571 27.7819C337.352 28.0379 337.107 28.2539 336.835 28.4299C336.563 28.6005 336.277 28.7392 335.979 28.8459C335.685 28.9472 335.384 29.0192 335.075 29.0619C334.771 29.1045 334.475 29.1259 334.187 29.1259C333.616 29.1259 333.085 29.0325 332.595 28.8459C332.104 28.6539 331.677 28.3739 331.315 28.0059C330.952 27.6325 330.667 27.1739 330.459 26.6299C330.251 26.0805 330.147 25.4459 330.147 24.7259C330.147 24.1659 330.237 23.6405 330.419 23.1499C330.6 22.6539 330.859 22.2245 331.195 21.8619C331.536 21.4939 331.949 21.2032 332.435 20.9899C332.925 20.7765 333.477 20.6699 334.091 20.6699ZM334.131 22.0859C333.555 22.0859 333.104 22.2485 332.779 22.5739C332.453 22.8992 332.245 23.3605 332.155 23.9579H335.867C335.867 23.7019 335.832 23.4619 335.763 23.2379C335.693 23.0085 335.587 22.8085 335.443 22.6379C335.299 22.4672 335.117 22.3339 334.899 22.2379C334.68 22.1365 334.424 22.0859 334.131 22.0859ZM336.907 17.3099L334.931 19.3979C334.829 19.5045 334.731 19.5792 334.635 19.6219C334.544 19.6592 334.424 19.6779 334.275 19.6779H333.091L334.227 17.7339C334.307 17.5952 334.4 17.4912 334.507 17.4219C334.613 17.3472 334.773 17.3099 334.987 17.3099H336.907ZM346.158 29.0059H345.27C345.083 29.0059 344.936 28.9792 344.83 28.9259C344.723 28.8672 344.643 28.7525 344.59 28.5819L344.414 27.9979C344.206 28.1845 344 28.3499 343.798 28.4939C343.6 28.6325 343.395 28.7499 343.182 28.8459C342.968 28.9419 342.742 29.0139 342.502 29.0619C342.262 29.1099 341.995 29.1339 341.702 29.1339C341.355 29.1339 341.035 29.0885 340.742 28.9979C340.448 28.9019 340.195 28.7605 339.982 28.5739C339.774 28.3872 339.611 28.1552 339.494 27.8779C339.376 27.6005 339.318 27.2779 339.318 26.9099C339.318 26.6005 339.398 26.2965 339.558 25.9979C339.723 25.6939 339.995 25.4219 340.374 25.1819C340.752 24.9365 341.256 24.7339 341.886 24.5739C342.515 24.4139 343.296 24.3232 344.23 24.3019V23.8219C344.23 23.2725 344.112 22.8672 343.878 22.6059C343.648 22.3392 343.312 22.2059 342.87 22.2059C342.55 22.2059 342.283 22.2432 342.07 22.3179C341.856 22.3925 341.67 22.4779 341.51 22.5739C341.355 22.6645 341.211 22.7472 341.078 22.8219C340.944 22.8965 340.798 22.9339 340.638 22.9339C340.504 22.9339 340.39 22.8992 340.294 22.8299C340.198 22.7605 340.12 22.6752 340.062 22.5739L339.702 21.9419C340.646 21.0779 341.784 20.6459 343.118 20.6459C343.598 20.6459 344.024 20.7259 344.398 20.8859C344.776 21.0405 345.096 21.2592 345.358 21.5419C345.619 21.8192 345.816 22.1525 345.95 22.5419C346.088 22.9312 346.158 23.3579 346.158 23.8219V29.0059ZM342.318 27.7739C342.52 27.7739 342.707 27.7552 342.878 27.7179C343.048 27.6805 343.208 27.6245 343.358 27.5499C343.512 27.4752 343.659 27.3845 343.798 27.2779C343.942 27.1659 344.086 27.0352 344.23 26.8859V25.5019C343.654 25.5285 343.171 25.5792 342.782 25.6539C342.398 25.7232 342.088 25.8139 341.854 25.9259C341.619 26.0379 341.451 26.1685 341.35 26.3179C341.254 26.4672 341.206 26.6299 341.206 26.8059C341.206 27.1525 341.307 27.4005 341.51 27.5499C341.718 27.6992 341.987 27.7739 342.318 27.7739ZM350.685 17.1179V29.0059H348.709V17.1179H350.685ZM356.796 20.6699C357.314 20.6699 357.788 20.7525 358.22 20.9179C358.658 21.0832 359.034 21.3259 359.348 21.6459C359.663 21.9605 359.908 22.3499 360.084 22.8139C360.26 23.2725 360.348 23.7979 360.348 24.3899C360.348 24.5392 360.34 24.6645 360.324 24.7659C360.314 24.8619 360.29 24.9392 360.252 24.9979C360.22 25.0512 360.175 25.0912 360.116 25.1179C360.058 25.1392 359.983 25.1499 359.892 25.1499H354.82C354.879 25.9925 355.106 26.6112 355.5 27.0059C355.895 27.4005 356.418 27.5979 357.068 27.5979C357.388 27.5979 357.663 27.5605 357.892 27.4859C358.127 27.4112 358.33 27.3285 358.5 27.2379C358.676 27.1472 358.828 27.0645 358.956 26.9899C359.09 26.9152 359.218 26.8779 359.34 26.8779C359.42 26.8779 359.49 26.8939 359.548 26.9259C359.607 26.9579 359.658 27.0032 359.7 27.0619L360.276 27.7819C360.058 28.0379 359.812 28.2539 359.54 28.4299C359.268 28.6005 358.983 28.7392 358.684 28.8459C358.391 28.9472 358.09 29.0192 357.78 29.0619C357.476 29.1045 357.18 29.1259 356.892 29.1259C356.322 29.1259 355.791 29.0325 355.3 28.8459C354.81 28.6539 354.383 28.3739 354.02 28.0059C353.658 27.6325 353.372 27.1739 353.164 26.6299C352.956 26.0805 352.852 25.4459 352.852 24.7259C352.852 24.1659 352.943 23.6405 353.124 23.1499C353.306 22.6539 353.564 22.2245 353.9 21.8619C354.242 21.4939 354.655 21.2032 355.14 20.9899C355.631 20.7765 356.183 20.6699 356.796 20.6699ZM356.836 22.0859C356.26 22.0859 355.81 22.2485 355.484 22.5739C355.159 22.8992 354.951 23.3605 354.86 23.9579H358.572C358.572 23.7019 358.538 23.4619 358.468 23.2379C358.399 23.0085 358.292 22.8085 358.148 22.6379C358.004 22.4672 357.823 22.3339 357.604 22.2379C357.386 22.1365 357.13 22.0859 356.836 22.0859ZM365.853 27.9179C365.853 27.7525 365.882 27.5952 365.941 27.4459C366.005 27.2965 366.09 27.1685 366.197 27.0619C366.309 26.9552 366.44 26.8699 366.589 26.8059C366.738 26.7419 366.898 26.7099 367.069 26.7099C367.234 26.7099 367.392 26.7419 367.541 26.8059C367.69 26.8699 367.818 26.9552 367.925 27.0619C368.032 27.1685 368.117 27.2965 368.181 27.4459C368.245 27.5952 368.277 27.7525 368.277 27.9179C368.277 28.0885 368.245 28.2485 368.181 28.3979C368.117 28.5419 368.032 28.6672 367.925 28.7739C367.818 28.8805 367.69 28.9632 367.541 29.0219C367.392 29.0859 367.234 29.1179 367.069 29.1179C366.898 29.1179 366.738 29.0859 366.589 29.0219C366.44 28.9632 366.309 28.8805 366.197 28.7739C366.09 28.6672 366.005 28.5419 365.941 28.3979C365.882 28.2485 365.853 28.0885 365.853 27.9179ZM365.853 22.2139C365.853 22.0485 365.882 21.8912 365.941 21.7419C366.005 21.5925 366.09 21.4645 366.197 21.3579C366.309 21.2512 366.44 21.1659 366.589 21.1019C366.738 21.0379 366.898 21.0059 367.069 21.0059C367.234 21.0059 367.392 21.0379 367.541 21.1019C367.69 21.1659 367.818 21.2512 367.925 21.3579C368.032 21.4645 368.117 21.5925 368.181 21.7419C368.245 21.8912 368.277 22.0485 368.277 22.2139C368.277 22.3845 368.245 22.5445 368.181 22.6939C368.117 22.8379 368.032 22.9632 367.925 23.0699C367.818 23.1765 367.69 23.2619 367.541 23.3259C367.392 23.3845 367.234 23.4139 367.069 23.4139C366.898 23.4139 366.738 23.3845 366.589 23.3259C366.44 23.2619 366.309 23.1765 366.197 23.0699C366.09 22.9632 366.005 22.8379 365.941 22.6939C365.882 22.5445 365.853 22.3845 365.853 22.2139ZM375.389 27.5259H377.733V20.7819C377.733 20.5205 377.741 20.2459 377.757 19.9579L376.093 21.3499C376.024 21.4085 375.952 21.4485 375.877 21.4699C375.808 21.4912 375.739 21.5019 375.669 21.5019C375.563 21.5019 375.464 21.4805 375.373 21.4379C375.288 21.3899 375.224 21.3365 375.181 21.2779L374.557 20.4219L378.085 17.4219H379.709V27.5259H381.789V29.0059H375.389V27.5259ZM387.238 24.3899C386.838 24.3899 386.446 24.3205 386.062 24.1819C385.678 24.0432 385.334 23.8352 385.03 23.5579C384.732 23.2752 384.492 22.9285 384.31 22.5179C384.129 22.1019 384.038 21.6165 384.038 21.0619C384.038 20.5445 384.134 20.0592 384.326 19.6059C384.518 19.1525 384.788 18.7552 385.134 18.4139C385.481 18.0725 385.897 17.8032 386.382 17.6059C386.868 17.4085 387.404 17.3099 387.99 17.3099C388.582 17.3099 389.113 17.4032 389.582 17.5899C390.057 17.7765 390.46 18.0379 390.79 18.3739C391.126 18.7099 391.382 19.1125 391.558 19.5819C391.74 20.0512 391.83 20.5659 391.83 21.1259C391.83 21.4832 391.798 21.8219 391.734 22.1419C391.676 22.4619 391.588 22.7712 391.47 23.0699C391.358 23.3632 391.222 23.6512 391.062 23.9339C390.902 24.2112 390.724 24.4912 390.526 24.7739L387.878 28.5499C387.788 28.6779 387.652 28.7872 387.47 28.8779C387.294 28.9632 387.092 29.0059 386.862 29.0059H385.046L388.638 24.5179C388.729 24.4059 388.814 24.2965 388.894 24.1899C388.974 24.0832 389.052 23.9765 389.126 23.8699C388.86 24.0405 388.566 24.1712 388.246 24.2619C387.926 24.3472 387.59 24.3899 387.238 24.3899ZM389.934 20.9259C389.934 20.6112 389.886 20.3312 389.79 20.0859C389.694 19.8352 389.558 19.6245 389.382 19.4539C389.206 19.2832 388.996 19.1525 388.75 19.0619C388.51 18.9712 388.246 18.9259 387.958 18.9259C387.66 18.9259 387.39 18.9765 387.15 19.0779C386.91 19.1739 386.705 19.3099 386.534 19.4859C386.369 19.6619 386.241 19.8725 386.15 20.1179C386.06 20.3579 386.014 20.6219 386.014 20.9099C386.014 21.5552 386.18 22.0485 386.51 22.3899C386.846 22.7259 387.321 22.8939 387.934 22.8939C388.254 22.8939 388.537 22.8432 388.782 22.7419C389.033 22.6405 389.244 22.5019 389.414 22.3259C389.585 22.1499 389.713 21.9419 389.798 21.7019C389.889 21.4619 389.934 21.2032 389.934 20.9259ZM397.576 17.3099C398.109 17.3099 398.597 17.3899 399.04 17.5499C399.482 17.7045 399.861 17.9259 400.176 18.2139C400.49 18.5019 400.736 18.8485 400.912 19.2539C401.088 19.6592 401.176 20.1099 401.176 20.6059C401.176 21.0325 401.112 21.4272 400.984 21.7899C400.861 22.1525 400.693 22.4992 400.48 22.8299C400.272 23.1605 400.026 23.4805 399.744 23.7899C399.461 24.0992 399.165 24.4139 398.856 24.7339L396.248 27.3979C396.504 27.3232 396.754 27.2672 397 27.2299C397.245 27.1872 397.48 27.1659 397.704 27.1659H400.672C400.885 27.1659 401.053 27.2272 401.176 27.3499C401.304 27.4672 401.368 27.6245 401.368 27.8219V29.0059H393.432V28.3499C393.432 28.2165 393.458 28.0779 393.512 27.9339C393.57 27.7899 393.661 27.6565 393.784 27.5339L397.296 24.0139C397.589 23.7152 397.85 23.4299 398.08 23.1579C398.314 22.8859 398.509 22.6165 398.664 22.3499C398.824 22.0832 398.944 21.8139 399.024 21.5419C399.109 21.2645 399.152 20.9739 399.152 20.6699C399.152 20.3925 399.112 20.1499 399.032 19.9419C398.952 19.7285 398.837 19.5499 398.688 19.4059C398.538 19.2619 398.36 19.1552 398.152 19.0859C397.949 19.0112 397.72 18.9739 397.464 18.9739C396.989 18.9739 396.597 19.0939 396.288 19.3339C395.984 19.5739 395.77 19.8965 395.648 20.3019C395.589 20.5045 395.501 20.6512 395.384 20.7419C395.266 20.8272 395.117 20.8699 394.936 20.8699C394.856 20.8699 394.768 20.8619 394.672 20.8459L393.632 20.6619C393.712 20.1072 393.866 19.6219 394.096 19.2059C394.325 18.7845 394.61 18.4352 394.952 18.1579C395.298 17.8752 395.693 17.6645 396.136 17.5259C396.584 17.3819 397.064 17.3099 397.576 17.3099ZM411.401 23.2219C411.401 24.2299 411.292 25.1072 411.073 25.8539C410.86 26.5952 410.561 27.2085 410.177 27.6939C409.798 28.1792 409.348 28.5419 408.825 28.7819C408.308 29.0165 407.748 29.1339 407.145 29.1339C406.542 29.1339 405.982 29.0165 405.465 28.7819C404.953 28.5419 404.508 28.1792 404.129 27.6939C403.75 27.2085 403.454 26.5952 403.241 25.8539C403.028 25.1072 402.921 24.2299 402.921 23.2219C402.921 22.2085 403.028 21.3312 403.241 20.5899C403.454 19.8485 403.75 19.2352 404.129 18.7499C404.508 18.2645 404.953 17.9045 405.465 17.6699C405.982 17.4299 406.542 17.3099 407.145 17.3099C407.748 17.3099 408.308 17.4299 408.825 17.6699C409.348 17.9045 409.798 18.2645 410.177 18.7499C410.561 19.2352 410.86 19.8485 411.073 20.5899C411.292 21.3312 411.401 22.2085 411.401 23.2219ZM409.361 23.2219C409.361 22.3845 409.3 21.6912 409.177 21.1419C409.054 20.5925 408.889 20.1552 408.681 19.8299C408.478 19.5045 408.244 19.2779 407.977 19.1499C407.71 19.0165 407.433 18.9499 407.145 18.9499C406.862 18.9499 406.588 19.0165 406.321 19.1499C406.06 19.2779 405.828 19.5045 405.625 19.8299C405.422 20.1552 405.26 20.5925 405.137 21.1419C405.02 21.6912 404.961 22.3845 404.961 23.2219C404.961 24.0592 405.02 24.7525 405.137 25.3019C405.26 25.8512 405.422 26.2885 405.625 26.6139C405.828 26.9392 406.06 27.1685 406.321 27.3019C406.588 27.4299 406.862 27.4939 407.145 27.4939C407.433 27.4939 407.71 27.4299 407.977 27.3019C408.244 27.1685 408.478 26.9392 408.681 26.6139C408.889 26.2885 409.054 25.8512 409.177 25.3019C409.3 24.7525 409.361 24.0592 409.361 23.2219ZM415.282 24.7739L412.586 20.7979H414.49C414.634 20.7979 414.741 20.8192 414.81 20.8619C414.88 20.8992 414.941 20.9632 414.994 21.0539L416.714 23.7979C416.741 23.7072 416.773 23.6165 416.81 23.5259C416.853 23.4352 416.904 23.3445 416.962 23.2539L418.346 21.0939C418.41 20.9925 418.477 20.9179 418.546 20.8699C418.616 20.8219 418.701 20.7979 418.802 20.7979H420.618L417.914 24.6859L420.73 29.0059H418.826C418.682 29.0059 418.565 28.9685 418.474 28.8939C418.389 28.8192 418.317 28.7339 418.258 28.6379L416.514 25.7819C416.466 25.9739 416.4 26.1339 416.314 26.2619L414.778 28.6379C414.72 28.7285 414.648 28.8139 414.562 28.8939C414.477 28.9685 414.37 29.0059 414.242 29.0059H412.474L415.282 24.7739ZM426.043 29.1339C425.445 29.1339 424.899 29.0539 424.403 28.8939C423.912 28.7339 423.491 28.5072 423.139 28.2139C422.787 27.9205 422.512 27.5659 422.315 27.1499C422.123 26.7339 422.027 26.2699 422.027 25.7579C422.027 25.0752 422.195 24.4992 422.531 24.0299C422.867 23.5552 423.389 23.2032 424.099 22.9739C423.533 22.7392 423.109 22.4059 422.827 21.9739C422.549 21.5419 422.411 21.0219 422.411 20.4139C422.411 19.9765 422.499 19.5685 422.675 19.1899C422.856 18.8112 423.107 18.4832 423.427 18.2059C423.747 17.9232 424.128 17.7045 424.571 17.5499C425.019 17.3899 425.509 17.3099 426.043 17.3099C426.576 17.3099 427.064 17.3899 427.507 17.5499C427.955 17.7045 428.339 17.9232 428.659 18.2059C428.979 18.4832 429.227 18.8112 429.403 19.1899C429.584 19.5685 429.675 19.9765 429.675 20.4139C429.675 21.0219 429.533 21.5419 429.251 21.9739C428.968 22.4059 428.547 22.7392 427.987 22.9739C428.696 23.2032 429.219 23.5552 429.555 24.0299C429.891 24.4992 430.059 25.0752 430.059 25.7579C430.059 26.2699 429.96 26.7339 429.763 27.1499C429.571 27.5659 429.299 27.9205 428.947 28.2139C428.595 28.5072 428.171 28.7339 427.675 28.8939C427.184 29.0539 426.64 29.1339 426.043 29.1339ZM426.043 27.5899C426.368 27.5899 426.653 27.5445 426.899 27.4539C427.144 27.3579 427.349 27.2272 427.515 27.0619C427.685 26.8965 427.813 26.6992 427.899 26.4699C427.984 26.2405 428.027 25.9925 428.027 25.7259C428.027 25.0912 427.851 24.6112 427.499 24.2859C427.147 23.9605 426.661 23.7979 426.043 23.7979C425.424 23.7979 424.939 23.9605 424.587 24.2859C424.235 24.6112 424.059 25.0912 424.059 25.7259C424.059 25.9925 424.101 26.2405 424.187 26.4699C424.272 26.6992 424.397 26.8965 424.563 27.0619C424.733 27.2272 424.941 27.3579 425.187 27.4539C425.432 27.5445 425.717 27.5899 426.043 27.5899ZM426.043 22.2459C426.363 22.2459 426.632 22.1952 426.851 22.0939C427.069 21.9925 427.245 21.8592 427.379 21.6939C427.512 21.5232 427.605 21.3312 427.659 21.1179C427.717 20.8992 427.747 20.6752 427.747 20.4459C427.747 20.2272 427.712 20.0192 427.643 19.8219C427.573 19.6245 427.469 19.4512 427.331 19.3019C427.192 19.1472 427.016 19.0245 426.803 18.9339C426.589 18.8432 426.336 18.7979 426.043 18.7979C425.749 18.7979 425.496 18.8432 425.283 18.9339C425.069 19.0245 424.891 19.1472 424.747 19.3019C424.608 19.4512 424.504 19.6245 424.435 19.8219C424.371 20.0192 424.339 20.2272 424.339 20.4459C424.339 20.6752 424.365 20.8992 424.419 21.1179C424.477 21.3312 424.573 21.5232 424.707 21.6939C424.84 21.8592 425.016 21.9925 425.235 22.0939C425.453 22.1952 425.723 22.2459 426.043 22.2459ZM440.044 23.2219C440.044 24.2299 439.935 25.1072 439.716 25.8539C439.503 26.5952 439.204 27.2085 438.82 27.6939C438.441 28.1792 437.991 28.5419 437.468 28.7819C436.951 29.0165 436.391 29.1339 435.788 29.1339C435.185 29.1339 434.625 29.0165 434.108 28.7819C433.596 28.5419 433.151 28.1792 432.772 27.6939C432.393 27.2085 432.097 26.5952 431.884 25.8539C431.671 25.1072 431.564 24.2299 431.564 23.2219C431.564 22.2085 431.671 21.3312 431.884 20.5899C432.097 19.8485 432.393 19.2352 432.772 18.7499C433.151 18.2645 433.596 17.9045 434.108 17.6699C434.625 17.4299 435.185 17.3099 435.788 17.3099C436.391 17.3099 436.951 17.4299 437.468 17.6699C437.991 17.9045 438.441 18.2645 438.82 18.7499C439.204 19.2352 439.503 19.8485 439.716 20.5899C439.935 21.3312 440.044 22.2085 440.044 23.2219ZM438.004 23.2219C438.004 22.3845 437.943 21.6912 437.82 21.1419C437.697 20.5925 437.532 20.1552 437.324 19.8299C437.121 19.5045 436.887 19.2779 436.62 19.1499C436.353 19.0165 436.076 18.9499 435.788 18.9499C435.505 18.9499 435.231 19.0165 434.964 19.1499C434.703 19.2779 434.471 19.5045 434.268 19.8299C434.065 20.1552 433.903 20.5925 433.78 21.1419C433.663 21.6912 433.604 22.3845 433.604 23.2219C433.604 24.0592 433.663 24.7525 433.78 25.3019C433.903 25.8512 434.065 26.2885 434.268 26.6139C434.471 26.9392 434.703 27.1685 434.964 27.3019C435.231 27.4299 435.505 27.4939 435.788 27.4939C436.076 27.4939 436.353 27.4299 436.62 27.3019C436.887 27.1685 437.121 26.9392 437.324 26.6139C437.532 26.2885 437.697 25.8512 437.82 25.3019C437.943 24.7525 438.004 24.0592 438.004 23.2219ZM449.805 23.2219C449.805 24.2299 449.696 25.1072 449.477 25.8539C449.264 26.5952 448.965 27.2085 448.581 27.6939C448.203 28.1792 447.752 28.5419 447.229 28.7819C446.712 29.0165 446.152 29.1339 445.549 29.1339C444.947 29.1339 444.387 29.0165 443.869 28.7819C443.357 28.5419 442.912 28.1792 442.533 27.6939C442.155 27.2085 441.859 26.5952 441.645 25.8539C441.432 25.1072 441.325 24.2299 441.325 23.2219C441.325 22.2085 441.432 21.3312 441.645 20.5899C441.859 19.8485 442.155 19.2352 442.533 18.7499C442.912 18.2645 443.357 17.9045 443.869 17.6699C444.387 17.4299 444.947 17.3099 445.549 17.3099C446.152 17.3099 446.712 17.4299 447.229 17.6699C447.752 17.9045 448.203 18.2645 448.581 18.7499C448.965 19.2352 449.264 19.8485 449.477 20.5899C449.696 21.3312 449.805 22.2085 449.805 23.2219ZM447.765 23.2219C447.765 22.3845 447.704 21.6912 447.581 21.1419C447.459 20.5925 447.293 20.1552 447.085 19.8299C446.883 19.5045 446.648 19.2779 446.381 19.1499C446.115 19.0165 445.837 18.9499 445.549 18.9499C445.267 18.9499 444.992 19.0165 444.725 19.1499C444.464 19.2779 444.232 19.5045 444.029 19.8299C443.827 20.1552 443.664 20.5925 443.541 21.1419C443.424 21.6912 443.365 22.3845 443.365 23.2219C443.365 24.0592 443.424 24.7525 443.541 25.3019C443.664 25.8512 443.827 26.2885 444.029 26.6139C444.232 26.9392 444.464 27.1685 444.725 27.3019C444.992 27.4299 445.267 27.4939 445.549 27.4939C445.837 27.4939 446.115 27.4299 446.381 27.3019C446.648 27.1685 446.883 26.9392 447.085 26.6139C447.293 26.2885 447.459 25.8512 447.581 25.3019C447.704 24.7525 447.765 24.0592 447.765 23.2219ZM452.927 23.9899C452.927 22.8912 452.793 21.8112 452.527 20.7499C452.26 19.6832 451.881 18.6832 451.391 17.7499C451.321 17.6112 451.287 17.4912 451.287 17.3899C451.287 17.2885 451.313 17.2059 451.367 17.1419C451.42 17.0725 451.484 17.0165 451.559 16.9739L452.439 16.4459C452.833 17.0539 453.169 17.6645 453.447 18.2779C453.724 18.8859 453.951 19.5019 454.127 20.1259C454.303 20.7499 454.431 21.3845 454.511 22.0299C454.596 22.6699 454.639 23.3232 454.639 23.9899C454.639 24.6565 454.596 25.3099 454.511 25.9499C454.431 26.5899 454.303 27.2219 454.127 27.8459C453.951 28.4699 453.724 29.0885 453.447 29.7019C453.169 30.3152 452.833 30.9259 452.439 31.5339L451.559 30.9979C451.484 30.9552 451.42 30.8992 451.367 30.8299C451.313 30.7659 451.287 30.6805 451.287 30.5739C451.287 30.5259 451.292 30.4725 451.303 30.4139C451.319 30.3552 451.345 30.2912 451.383 30.2219C451.879 29.2885 452.26 28.2912 452.527 27.2299C452.793 26.1685 452.927 25.0885 452.927 23.9899Z" fill="#75758F"/>
<path d="M36.8699 6.42098V10.2096H31.0842V15.8925H27.227V10.2096H21.4413V6.42098H27.227V0.738037H31.0842V6.42098H36.8699ZM20.477 19.6812C21.2445 19.6809 21.9805 19.3812 22.523 18.848C23.0655 18.3147 23.3701 17.5917 23.3699 16.8378C23.3696 16.0839 23.0645 15.3611 22.5216 14.8282C21.9787 14.2953 21.2426 13.9961 20.4751 13.9963C20.0951 13.9965 19.7188 14.0701 19.3678 14.2131C19.0167 14.356 18.6978 14.5655 18.4291 14.8295C18.1605 15.0936 17.9475 15.407 17.8022 15.7519C17.6568 16.0968 17.5821 16.4664 17.5822 16.8397C17.5824 17.213 17.6574 17.5826 17.8029 17.9274C17.9484 18.2722 18.1617 18.5855 18.4305 18.8493C18.6993 19.1132 19.0184 19.3224 19.3695 19.4652C19.7207 19.6079 20.097 19.6813 20.477 19.6812ZM27.227 25.8074L26.2377 24.7276C25.8759 24.332 25.4335 24.0156 24.939 23.799C24.4446 23.5824 23.9093 23.4705 23.368 23.4705C22.8266 23.4705 22.2913 23.5824 21.7969 23.799C21.3024 24.0156 20.86 24.332 20.4982 24.7276L19.235 26.1105L9.8699 15.8925L4.08419 22.2063V10.2096H17.5842V6.42098H4.08419C3.06121 6.42098 2.08013 6.82013 1.35678 7.53064C0.633427 8.24114 0.227051 9.20479 0.227051 10.2096V32.9414C0.227051 33.9462 0.633427 34.9098 1.35678 35.6203C2.08013 36.3308 3.06121 36.73 4.08419 36.73H27.227C28.25 36.73 29.2311 36.3308 29.9544 35.6203C30.6778 34.9098 31.0842 33.9462 31.0842 32.9414V19.6812H27.227V25.8074Z" fill="#75758F"/>
</svg>
