<svg width="23" height="20" viewBox="0 0 23 20" fill="none" xmlns="http://www.w3.org/2000/svg">
<path d="M2.71418 12.6861C2.54423 12.5161 2.31372 12.4207 2.07336 12.4207C1.83301 12.4207 1.6025 12.5161 1.43255 12.6861C1.26259 12.856 1.16711 13.0866 1.16711 13.3269V16.6082C1.16711 17.3707 1.47002 18.1019 2.00918 18.6411C2.54835 19.1803 3.27962 19.4832 4.04211 19.4832H19.7921C20.5546 19.4832 21.2859 19.1803 21.825 18.6411C22.3642 18.1019 22.6671 17.3707 22.6671 16.6082V13.3269C22.6671 13.0866 22.5716 12.856 22.4017 12.6861V12.6861C22.2317 12.5161 22.0012 12.4207 21.7609 12.4207C21.5205 12.4207 21.29 12.5161 21.12 12.6861V12.6861C20.9501 12.856 20.8546 13.0866 20.8546 13.3269V16.6082C20.8546 16.8899 20.7427 17.1602 20.5434 17.3595C20.3442 17.5587 20.0739 17.6707 19.7921 17.6707H4.04211C3.76032 17.6707 3.49007 17.5587 3.29081 17.3595C3.09156 17.1602 2.97961 16.8899 2.97961 16.6082V13.3269C2.97961 13.0866 2.88413 12.856 2.71418 12.6861Z" fill="#F6F6FF" stroke="#F6F6FF" stroke-width="0.5"/>
<path d="M15.2131 6.22455L15.213 6.2245L12.8232 3.83358V14.7706C12.8232 15.011 12.7278 15.2415 12.5578 15.4115C12.3878 15.5814 12.1573 15.6769 11.917 15.6769C11.6766 15.6769 11.4461 15.5814 11.2762 15.4115C11.1062 15.2415 11.0107 15.011 11.0107 14.7706V3.83358L8.62093 6.2245L8.62088 6.22455C8.53665 6.30877 8.43666 6.37559 8.32661 6.42118L8.23094 6.19021L8.32661 6.42118C8.21655 6.46676 8.0986 6.49022 7.97948 6.49022C7.86036 6.49022 7.74241 6.46676 7.63236 6.42118C7.52231 6.37559 7.42231 6.30877 7.33808 6.22455L7.33808 6.22455C7.25385 6.14032 7.18704 6.04032 7.14145 5.93027C7.09587 5.82022 7.0724 5.70226 7.0724 5.58314C7.0724 5.46402 7.09587 5.34607 7.14145 5.23602C7.18704 5.12597 7.25385 5.02597 7.33808 4.94174M15.2131 6.22455L7.33808 4.94174M15.2131 6.22455C15.3832 6.39466 15.6139 6.49022 15.8545 6.49022C16.0951 6.49022 16.3258 6.39466 16.4959 6.22455C16.666 6.05443 16.7616 5.82371 16.7616 5.58314C16.7616 5.34257 16.666 5.11185 16.4959 4.94174L12.5586 1.00446C12.5585 1.00441 12.5585 1.00435 12.5584 1.00429C12.4743 0.919976 12.3743 0.853079 12.2643 0.807424C12.1542 0.761737 12.0362 0.73822 11.917 0.73822C11.7978 0.73822 11.6797 0.761737 11.5696 0.807424C11.4596 0.853099 11.3596 0.920037 11.2754 1.0044C11.2754 1.00442 11.2754 1.00444 11.2754 1.00447L7.33808 4.94174M15.2131 6.22455L7.51486 5.11852L7.33808 4.94174" fill="#F6F6FF" stroke="#F6F6FF" stroke-width="0.5"/>
</svg>
