<svg width="38" height="37" viewBox="0 0 38 37" fill="none" xmlns="http://www.w3.org/2000/svg">
<path d="M37.0056 6.42586V10.2145H31.2199V15.8974H27.3628V10.2145H21.5771V6.42586H27.3628V0.74292H31.2199V6.42586H37.0056ZM20.6128 19.686C21.3803 19.6858 22.1162 19.3861 22.6587 18.8529C23.2012 18.3196 23.5059 17.5965 23.5056 16.8427C23.5054 16.0888 23.2002 15.3659 22.6574 14.8331C22.1145 14.3002 21.3783 14.001 20.6108 14.0012C20.2308 14.0013 19.8545 14.075 19.5035 14.2179C19.1525 14.3609 18.8335 14.5704 18.5649 14.8344C18.2963 15.0984 18.0832 15.4119 17.9379 15.7568C17.7926 16.1017 17.7179 16.4713 17.718 16.8446C17.7181 17.2178 17.7931 17.5874 17.9386 17.9323C18.0842 18.2771 18.2974 18.5903 18.5663 18.8542C18.8351 19.118 19.1541 19.3273 19.5053 19.47C19.8564 19.6128 20.2328 19.6862 20.6128 19.686ZM27.3628 25.8123L26.3734 24.7325C26.0117 24.3369 25.5692 24.0205 25.0748 23.8039C24.5804 23.5873 24.0451 23.4754 23.5037 23.4754C22.9623 23.4754 22.427 23.5873 21.9326 23.8039C21.4382 24.0205 20.9957 24.3369 20.634 24.7325L19.3708 26.1153L10.0056 15.8974L4.21993 22.2112V10.2145H17.7199V6.42586H4.21993C3.19696 6.42586 2.21588 6.82502 1.49252 7.53552C0.769169 8.24603 0.362793 9.20968 0.362793 10.2145V32.9462C0.362793 33.951 0.769169 34.9147 1.49252 35.6252C2.21588 36.3357 3.19696 36.7349 4.21993 36.7349H27.3628C28.3857 36.7349 29.3668 36.3357 30.0902 35.6252C30.8135 34.9147 31.2199 33.951 31.2199 32.9462V19.686H27.3628V25.8123Z" fill="#75758F"/>
</svg>
