<svg width="48" height="43" viewBox="0 0 48 43" fill="none" xmlns="http://www.w3.org/2000/svg">
<path d="M17.8504 17.5573C19.6358 17.5573 21.0832 16.11 21.0832 14.3246C21.0832 12.5392 19.6358 11.0918 17.8504 11.0918C16.065 11.0918 14.6177 12.5392 14.6177 14.3246C14.6177 16.11 16.065 17.5573 17.8504 17.5573Z" fill="#75758F"/>
<path d="M44.3854 26.2237C42.8588 24.7869 40.9282 23.844 38.8179 23.5746V7.14138C38.8179 5.3903 38.0995 3.81881 36.977 2.65143C35.8096 1.48404 34.2381 0.810547 32.487 0.810547H6.44533C4.69425 0.810547 3.12277 1.52894 1.95538 2.65143C0.787995 3.81881 0.114502 5.3903 0.114502 7.14138V27.84V29.7707V33.9464C0.114502 35.6975 0.832894 37.2689 1.95538 38.4363C3.12277 39.6037 4.69425 40.2772 6.44533 40.2772H31.634C33.2952 41.6242 35.3606 42.4773 37.6505 42.4773C40.2996 42.4773 42.6792 41.3997 44.3854 39.6935C46.0916 37.9873 47.1692 35.6077 47.1692 32.9586C47.1692 30.3095 46.0916 27.9298 44.3854 26.2237ZM2.49418 7.14138C2.49418 6.06379 2.94317 5.076 3.66156 4.40251C4.37995 3.68411 5.36774 3.23512 6.44533 3.23512H32.487C33.5646 3.23512 34.5524 3.68411 35.2708 4.40251C35.9892 5.1209 36.4382 6.10869 36.4382 7.18628V21.1949L29.7931 14.5498C29.3441 14.1008 28.5808 14.0559 28.0869 14.5498L18.0743 24.6073L11.2945 17.7826C10.8455 17.3336 10.0822 17.2887 9.5883 17.7826L2.49418 24.9665V7.14138ZM6.40043 37.9873V37.8975C5.32284 37.8975 4.33506 37.4485 3.61666 36.7301C2.94317 36.0118 2.49418 35.024 2.49418 33.9464V29.7707V28.3788L10.4414 20.3867L17.2212 27.1666C17.6702 27.6155 18.4335 27.6155 18.9274 27.1666L28.94 17.1091L35.4953 23.7093C35.3606 23.7542 35.2259 23.7991 35.0912 23.844C34.9116 23.8889 34.732 23.9338 34.5075 24.0236C34.3279 24.0685 34.1483 24.1583 33.9687 24.2032C33.834 24.2481 33.7442 24.293 33.6095 24.3828C33.4299 24.4726 33.2952 24.5175 33.1605 24.6073C32.936 24.742 32.7115 24.8767 32.487 25.0114C32.3523 25.1012 32.2626 25.1461 32.1278 25.2359C32.0381 25.2808 31.9932 25.3257 31.9034 25.3706C31.4993 25.64 31.1401 25.9543 30.8258 26.3135C29.1196 28.0196 28.042 30.3993 28.042 33.0484C28.042 33.7219 28.1318 34.3505 28.2665 35.024C28.3114 35.2036 28.3563 35.3383 28.4012 35.5179C28.5359 35.9669 28.6706 36.4159 28.8502 36.8648V36.9097C29.0298 37.2689 29.2094 37.673 29.4339 37.9873H6.40043ZM42.6343 37.9873C41.3322 39.2894 39.5812 40.0527 37.6056 40.0527C35.7198 40.0527 33.9687 39.2894 32.7115 38.0771C32.5319 37.8975 32.3523 37.673 32.1727 37.4934C32.0381 37.3587 31.9034 37.1791 31.7687 37.0444C31.5891 36.8199 31.4544 36.5506 31.3197 36.2812C31.2299 36.1016 31.1401 35.9669 31.0503 35.7873C30.9605 35.5628 30.8707 35.2934 30.8258 35.024C30.7809 34.8444 30.6911 34.6199 30.6462 34.4403C30.5564 33.9913 30.5115 33.4974 30.5115 33.0035C30.5115 31.0279 31.3197 29.2768 32.5768 27.9747C33.834 26.6727 35.63 25.9094 37.6056 25.9094C39.5812 25.9094 41.3322 26.7176 42.6343 27.9747C43.9364 29.2768 44.6997 31.0279 44.6997 33.0035C44.6997 34.9342 43.8915 36.6852 42.6343 37.9873Z" fill="#75758F"/>
<path d="M38.4593 28.1561C38.3695 28.0663 38.2348 27.9765 38.0552 27.8867C37.9205 27.8418 37.7858 27.7969 37.6511 27.7969C37.6062 27.7969 37.6062 27.7969 37.6062 27.7969C37.5613 27.7969 37.5613 27.7969 37.5613 27.7969C37.4266 27.7969 37.2919 27.8418 37.1572 27.8867C37.0225 27.9316 36.8878 28.0214 36.7531 28.1561L33.9693 30.9398C33.5203 31.3888 33.5203 32.1521 33.9693 32.646C34.4183 33.095 35.1816 33.095 35.6755 32.646L36.3939 31.9276V36.8666C36.3939 37.5401 36.9327 38.0789 37.6062 38.0789C38.2797 38.0789 38.8185 37.5401 38.8185 36.8666V31.9276L39.5369 32.646C39.9859 33.095 40.7491 33.095 41.243 32.646C41.692 32.197 41.692 31.4337 41.243 30.9398L38.4593 28.1561Z" fill="#75758F"/>
</svg>
