<svg width="65" height="64" viewBox="0 0 65 64" fill="none" xmlns="http://www.w3.org/2000/svg">
<path d="M11.3325 33.8677C11.0325 33.5676 10.6255 33.399 10.2012 33.399C9.77683 33.399 9.36986 33.5676 9.0698 33.8677C8.76974 34.1677 8.60117 34.5747 8.60117 34.999V45.499C8.60117 47.1168 9.24385 48.6684 10.3878 49.8124C11.5318 50.9563 13.0834 51.599 14.7012 51.599H50.7012C52.319 51.599 53.8705 50.9563 55.0145 49.8124C56.1585 48.6684 56.8012 47.1168 56.8012 45.499V34.999C56.8012 34.5747 56.6326 34.1677 56.3325 33.8677C56.0325 33.5676 55.6255 33.399 55.2012 33.399C54.7768 33.399 54.3699 33.5676 54.0698 33.8677C53.7697 34.1677 53.6012 34.5747 53.6012 34.999V45.499C53.6012 46.2682 53.2956 47.0058 52.7518 47.5496C52.2079 48.0935 51.4703 48.399 50.7012 48.399H14.7012C13.932 48.399 13.1944 48.0935 12.6506 47.5496C12.1067 47.0058 11.8012 46.2682 11.8012 45.499V34.999C11.8012 34.5747 11.6326 34.1677 11.3325 33.8677Z" fill="#ADADC8" stroke="#ADADC8" stroke-width="0.2"/>
<path d="M23.6302 31.9282L23.6302 31.9282C23.9302 31.6283 24.3371 31.4598 24.7614 31.4598C25.1857 31.4598 25.5926 31.6283 25.8926 31.9282L25.8926 31.9282L32.7009 38.7365L39.508 31.9295C39.5082 31.9293 39.5084 31.929 39.5086 31.9288C39.6561 31.7763 39.8324 31.6546 40.0273 31.5709C40.2225 31.4871 40.4325 31.4429 40.6449 31.4411C40.8574 31.4392 41.0681 31.4797 41.2647 31.5602C41.4613 31.6406 41.64 31.7594 41.7902 31.9096C41.9404 32.0599 42.0592 32.2385 42.1397 32.4351C42.2201 32.6318 42.2606 32.8425 42.2588 33.0549C42.2569 33.2674 42.2128 33.4773 42.1289 33.6725C42.0452 33.8675 41.9235 34.0438 41.771 34.1912C41.7708 34.1915 41.7706 34.1917 41.7704 34.1919L33.8337 42.1316L23.6302 31.9282ZM23.6302 31.9282C23.3302 32.2283 23.1617 32.6352 23.1617 33.0594C23.1617 33.4837 23.3302 33.8906 23.6302 34.1906C23.6302 34.1906 23.6302 34.1906 23.6302 34.1906L31.5681 42.1316L23.6302 31.9282ZM33.3141 42.4794C33.5085 42.3988 33.685 42.2806 33.8336 42.1316H31.5682C31.7168 42.2806 31.8933 42.3988 32.0877 42.4794C32.2821 42.5601 32.4904 42.6016 32.7009 42.6016C32.9114 42.6016 33.1197 42.5601 33.3141 42.4794Z" fill="#ADADC8" stroke="#ADADC8" stroke-width="0.2"/>
<path d="M33.8325 12.8677C33.5325 12.5676 33.1255 12.399 32.7012 12.399C32.2768 12.399 31.8699 12.5676 31.5698 12.8677C31.2697 13.1677 31.1012 13.5747 31.1012 13.999V37.999C31.1012 38.4234 31.2697 38.8303 31.5698 39.1304C31.8699 39.4305 32.2768 39.599 32.7012 39.599C33.1255 39.599 33.5325 39.4305 33.8325 39.1304C34.1326 38.8303 34.3012 38.4234 34.3012 37.999V13.999C34.3012 13.5747 34.1326 13.1677 33.8325 12.8677Z" fill="#ADADC8" stroke="#ADADC8" stroke-width="0.2"/>
</svg>
