<svg width="60" height="52" viewBox="0 0 60 52" fill="none" xmlns="http://www.w3.org/2000/svg">
<path d="M26.2287 17.1715C26.2287 19.0828 24.6563 20.6437 22.7023 20.6437C20.7482 20.6437 19.1758 19.0828 19.1758 17.1715C19.1758 15.2602 20.7482 13.6992 22.7023 13.6992C24.6563 13.6992 26.2287 15.2602 26.2287 17.1715Z" fill="#ADADC8" stroke="#ADADC8"/>
<path d="M48.3172 28.5375V28.9785L48.7548 29.0336C51.2735 29.3508 53.5797 30.4603 55.4059 32.1538C57.4376 34.1608 58.719 36.9563 58.719 40.068C58.719 43.1825 57.4354 45.9802 55.4006 47.9876C53.3657 49.9951 50.5266 51.264 47.3632 51.264C44.638 51.264 42.1733 50.2632 40.1818 48.6703L40.0449 48.5607H39.8695H8.49652C6.44809 48.5607 4.61851 47.7858 3.25888 46.4463C1.94445 45.0961 1.11133 43.2885 1.11133 41.2818V36.151V33.7787V8.34536C1.11133 6.33064 1.89422 4.52884 3.25185 3.18775C4.62063 1.89093 6.456 1.06641 8.49652 1.06641H40.932C42.9805 1.06641 44.8101 1.84131 46.1697 3.18086C47.4841 4.53107 48.3172 6.3386 48.3172 8.34536V28.5375ZM45.5022 25.9695L46.3533 26.8091V25.6135V8.40053C46.3533 6.9329 45.7333 5.59364 44.7504 4.62405C43.7677 3.65451 42.4132 3.04558 40.932 3.04558H8.49652C7.01819 3.04558 5.66616 3.65215 4.68385 4.61842C3.6913 5.53946 3.07526 6.88335 3.07526 8.34536V30.2478V31.4541L3.92864 30.6015L12.7623 21.7766C12.7626 21.7762 12.7629 21.7759 12.7632 21.7756C13.1718 21.3736 13.8084 21.4053 14.1848 21.7762C14.1849 21.7763 14.185 21.7764 14.1851 21.7766L22.6283 30.1612L22.9803 30.5107L23.3326 30.1616L35.8027 17.8043C35.8029 17.8042 35.803 17.804 35.8032 17.8039C36.2118 17.4012 36.849 17.4329 37.2255 17.8043L45.5022 25.9695ZM7.94059 46.6135V46.7471H8.44059H37.1293H38.1086L37.5342 45.9538C37.3371 45.6815 37.1729 45.35 36.9937 44.9884C36.9637 44.9278 36.9333 44.8664 36.9023 44.8043V44.7703L36.8656 44.6799C36.6531 44.1559 36.4922 43.6291 36.3247 43.0783C36.2954 42.9635 36.2663 42.863 36.2394 42.7702C36.2123 42.6767 36.1875 42.5909 36.1629 42.4945C35.9999 41.6886 35.8956 40.9557 35.8956 40.1784C35.8956 37.0639 37.1792 34.2662 39.214 32.2588L39.2259 32.2471L39.2369 32.2347C39.5928 31.8335 39.9991 31.4809 40.4573 31.1769C40.526 31.1409 40.5791 31.106 40.6157 31.0819L40.6196 31.0793C40.6616 31.0517 40.6806 31.0397 40.7058 31.0272L40.7336 31.0135L40.7594 30.9966C40.8324 30.9486 40.8931 30.9126 40.963 30.8712L40.9654 30.8698C41.0321 30.8303 41.1073 30.7857 41.1966 30.7274L42.0256 30.2367L42.0358 30.2307L42.0456 30.2242C42.0973 30.1902 42.1538 30.1613 42.2367 30.1236C42.2568 30.1144 42.2799 30.1042 42.3051 30.0929C42.3753 30.0617 42.4626 30.0228 42.5513 29.979L42.579 29.9653L42.6049 29.9483C42.7347 29.8629 42.8065 29.8277 42.9179 29.7901C43.05 29.756 43.1764 29.7093 43.2765 29.6722L43.2865 29.6685C43.4035 29.6252 43.4886 29.5943 43.5683 29.5747L43.6009 29.5666L43.6321 29.5543C43.8778 29.4574 44.0728 29.4089 44.2953 29.354L44.3138 29.3495L44.3318 29.3435L44.3328 29.3432L44.3338 29.3429L44.3347 29.3426L44.3357 29.3422L44.3367 29.3419L44.3377 29.3416L44.3387 29.3413L44.3397 29.3409L44.3406 29.3406L44.3416 29.3403L44.3426 29.34L44.3436 29.3396L44.3446 29.3393L44.3456 29.339L44.3465 29.3387L44.3475 29.3384L44.3485 29.338L44.3495 29.3377L44.3505 29.3374L44.3515 29.3371L44.3524 29.3367L44.3534 29.3364L44.3544 29.3361L44.3554 29.3358L44.3564 29.3354L44.3573 29.3351L44.3583 29.3348L44.3593 29.3345L44.3603 29.3341L44.3613 29.3338L44.3623 29.3335L44.3632 29.3332L44.3642 29.3329L44.3652 29.3325L44.3662 29.3322L44.3672 29.3319L44.3682 29.3316L44.3691 29.3312L44.3701 29.3309L44.3711 29.3306L44.3721 29.3303L44.3731 29.3299L44.3741 29.3296L44.375 29.3293L44.376 29.329L44.377 29.3287L44.378 29.3283L44.379 29.328L44.38 29.3277L44.3809 29.3274L44.3819 29.327L44.3829 29.3267L44.3839 29.3264L44.3849 29.3261L44.3859 29.3257L44.3868 29.3254L44.3878 29.3251L44.3888 29.3248L44.3898 29.3245L44.3908 29.3241L44.3918 29.3238L44.3927 29.3235L44.3937 29.3232L44.3947 29.3228L44.3957 29.3225L44.3967 29.3222L44.3977 29.3219L44.3986 29.3215L44.3996 29.3212L44.4006 29.3209L44.4016 29.3206L44.4026 29.3202L44.4036 29.3199L44.4045 29.3196L44.4055 29.3193L44.4065 29.319L44.4075 29.3186L44.4085 29.3183L44.4095 29.318L44.4104 29.3177L44.4114 29.3173L44.4124 29.317L44.4134 29.3167L44.4144 29.3164L44.4153 29.316L44.4163 29.3157L44.4173 29.3154L44.4183 29.3151L44.4193 29.3148L44.4203 29.3144L44.4212 29.3141L44.4222 29.3138L44.4232 29.3135L44.4242 29.3131L44.4252 29.3128L44.4262 29.3125L44.4271 29.3122L44.4281 29.3118L44.4291 29.3115L44.4301 29.3112L44.4311 29.3109L44.4321 29.3106L44.433 29.3102L44.434 29.3099L44.435 29.3096L44.436 29.3093L44.437 29.3089L44.438 29.3086L44.4389 29.3083L44.4399 29.308L44.4409 29.3076L44.4419 29.3073L44.4429 29.307L44.4439 29.3067L44.4448 29.3063L44.4458 29.306L44.4468 29.3057L44.4478 29.3054L44.4488 29.3051L44.4498 29.3047L44.4507 29.3044L44.4517 29.3041L44.4527 29.3038L44.4537 29.3034L44.4547 29.3031L44.4557 29.3028L44.4566 29.3025L44.4576 29.3021L44.4586 29.3018L44.4596 29.3015L44.4606 29.3012L44.4616 29.3009L44.4625 29.3005L44.4635 29.3002L44.4645 29.2999L44.4655 29.2996L44.4665 29.2992L44.4674 29.2989L44.4684 29.2986L44.4694 29.2983L44.4704 29.2979L44.4714 29.2976L44.4724 29.2973L44.4733 29.297L44.4743 29.2966L44.4753 29.2963L44.4763 29.296L44.4773 29.2957L44.4783 29.2954L44.4792 29.295L44.4802 29.2947L44.4812 29.2944L44.4822 29.2941L44.4832 29.2937L44.4842 29.2934L44.4851 29.2931L44.4861 29.2928L44.4871 29.2924L44.4881 29.2921L44.4891 29.2918L44.4901 29.2915L44.491 29.2912L44.492 29.2908L44.493 29.2905L44.494 29.2902L44.495 29.2899L44.496 29.2895L44.4969 29.2892L44.4979 29.2889L44.4989 29.2886L44.4999 29.2882L44.5009 29.2879L44.5019 29.2876L44.5028 29.2873L44.5038 29.287L44.5048 29.2866L44.5058 29.2863L44.5068 29.286L44.5078 29.2857L44.5087 29.2853L44.5097 29.285L44.5107 29.2847L44.5117 29.2844L44.5127 29.284L44.5137 29.2837L44.5146 29.2834L44.5156 29.2831L44.5166 29.2827L44.5176 29.2824L44.5186 29.2821L44.5196 29.2818L44.5205 29.2815L44.5215 29.2811L44.5225 29.2808L44.5235 29.2805L44.5245 29.2802L44.5254 29.2798L44.5264 29.2795L44.5274 29.2792L44.5284 29.2789L44.5294 29.2785L44.5304 29.2782L44.5313 29.2779L44.5323 29.2776L44.5333 29.2773L44.5343 29.2769L44.5353 29.2766L44.5363 29.2763L44.5372 29.276L44.5382 29.2756L44.5392 29.2753L44.5402 29.275L44.5412 29.2747L44.5422 29.2743L44.5431 29.274L44.5441 29.2737L44.5451 29.2734L44.5461 29.2731L44.5471 29.2727L44.5481 29.2724L44.549 29.2721L44.55 29.2718L44.551 29.2714L44.552 29.2711L44.553 29.2708L44.554 29.2705L44.5549 29.2701L44.5559 29.2698L44.5569 29.2695L44.5579 29.2692L44.5589 29.2689L44.5599 29.2685L44.5608 29.2682L44.5618 29.2679L44.5628 29.2676L44.5638 29.2672L44.5648 29.2669L44.5658 29.2666L44.5667 29.2663L44.5677 29.2659L44.5687 29.2656L44.5697 29.2653L44.5707 29.265L44.5717 29.2646L44.5726 29.2643L44.5736 29.264L44.5746 29.2637L44.5756 29.2634L44.5766 29.263L44.5775 29.2627L44.5785 29.2624L44.5795 29.2621L44.5805 29.2617L44.5815 29.2614L44.5825 29.2611L44.5834 29.2608L44.5844 29.2604L44.5854 29.2601L44.5864 29.2598L44.5874 29.2595L44.5884 29.2592L44.5893 29.2588L44.5903 29.2585L44.5913 29.2582L44.5923 29.2579L44.5933 29.2575L44.5943 29.2572L44.5952 29.2569L44.5962 29.2566L44.5972 29.2562L44.5982 29.2559L44.5992 29.2556L44.6002 29.2553L44.6011 29.2549L44.6021 29.2546L44.6031 29.2543L44.6041 29.254L44.6051 29.2537L44.6061 29.2533L44.607 29.253L44.608 29.2527L44.609 29.2524L44.61 29.252L44.611 29.2517L44.612 29.2514L44.6129 29.2511L44.6139 29.2507L44.6149 29.2504L44.6159 29.2501L44.6169 29.2498L44.6179 29.2495L44.6188 29.2491L44.6198 29.2488L44.6208 29.2485L44.6218 29.2482L44.6228 29.2478L44.6238 29.2475L44.6247 29.2472L44.6257 29.2469L44.6267 29.2465L44.6277 29.2462L44.6287 29.2459L44.6297 29.2456L44.6306 29.2453L44.6316 29.2449L44.6326 29.2446L44.6336 29.2443L44.6346 29.244L44.6355 29.2436L44.6365 29.2433L44.6375 29.243L44.6385 29.2427L44.6395 29.2423L44.6405 29.242L44.6414 29.2417L44.6424 29.2414L44.6434 29.241L44.6444 29.2407L44.6454 29.2404L44.6464 29.2401L44.6473 29.2398L44.6483 29.2394L44.6493 29.2391L44.6503 29.2388L44.6513 29.2385L44.6523 29.2381L44.6532 29.2378L44.6542 29.2375L44.6552 29.2372L44.6562 29.2368L44.6572 29.2365L44.6582 29.2362L44.6591 29.2359L44.6601 29.2356L44.6611 29.2352L44.6621 29.2349L44.6631 29.2346L44.6641 29.2343L44.665 29.2339L44.666 29.2336L44.667 29.2333L44.668 29.233L44.669 29.2326L44.67 29.2323L44.6709 29.232L44.6719 29.2317L44.6729 29.2314L44.6739 29.231L44.6749 29.2307L44.6758 29.2304L44.6768 29.2301L44.6778 29.2297L44.6788 29.2294L44.6798 29.2291L44.6808 29.2288L44.6818 29.2284L44.6827 29.2281L44.6837 29.2278L44.6847 29.2275L44.6857 29.2271L44.6867 29.2268L44.6876 29.2265L44.6886 29.2262L44.6896 29.2259L44.6906 29.2255L44.6916 29.2252L44.6926 29.2249L44.6935 29.2246L44.6945 29.2242L44.6955 29.2239L44.6965 29.2236L44.6975 29.2233L44.6985 29.2229L44.6994 29.2226L44.7004 29.2223L44.7014 29.222L44.7024 29.2217L44.7034 29.2213L44.7044 29.221L44.7053 29.2207L44.7063 29.2204L44.7073 29.22L44.7083 29.2197L44.7093 29.2194L44.7103 29.2191L44.7112 29.2187L44.7122 29.2184L44.7132 29.2181L44.7142 29.2178L44.7152 29.2175L44.7162 29.2171L44.7171 29.2168L44.7181 29.2165L44.7191 29.2162L44.7201 29.2158L44.7211 29.2155L44.7221 29.2152L44.723 29.2149L44.724 29.2145L44.725 29.2142L44.726 29.2139L44.727 29.2136L44.728 29.2132L44.7289 29.2129L44.7299 29.2126L44.7309 29.2123L44.7319 29.212L44.7329 29.2116L44.7338 29.2113L44.7348 29.211L44.7358 29.2107L44.7368 29.2103L44.7378 29.21L44.7388 29.2097L44.7397 29.2094L44.7407 29.209L44.7417 29.2087L44.7427 29.2084L44.7437 29.2081L44.7447 29.2078L44.7456 29.2074L44.7466 29.2071L44.7476 29.2068L44.7486 29.2065L44.7496 29.2061L44.7506 29.2058L44.7515 29.2055L44.7525 29.2052L44.7535 29.2048L44.7545 29.2045L44.7555 29.2042L44.7565 29.2039L44.7574 29.2036L44.7584 29.2032L44.7594 29.2029L44.7604 29.2026L44.7614 29.2023L44.7624 29.2019L44.7633 29.2016L44.7643 29.2013L44.7653 29.201L44.7663 29.2006L44.7673 29.2003L44.7683 29.2L44.7692 29.1997L44.7702 29.1993L44.7712 29.199L44.7722 29.1987L44.7732 29.1984L44.7742 29.1981L44.7751 29.1977L44.7761 29.1974L44.7771 29.1971L44.7781 29.1968L44.7791 29.1964L44.7801 29.1961L44.781 29.1958L44.782 29.1955L44.783 29.1951L44.784 29.1948L44.785 29.1945L44.7859 29.1942L44.7869 29.1939L44.7879 29.1935L44.7889 29.1932L44.7899 29.1929L44.7909 29.1926L44.7918 29.1922L44.7928 29.1919L44.7938 29.1916L44.7948 29.1913L44.7958 29.1909L44.7968 29.1906L44.7977 29.1903L44.7987 29.19L44.7997 29.1896L44.8007 29.1893L44.8017 29.189L44.8027 29.1887L44.8036 29.1884L44.8046 29.188L44.8056 29.1877L44.8066 29.1874L44.8076 29.1871L44.8086 29.1867L44.8095 29.1864L44.8105 29.1861L44.8115 29.1858L44.8125 29.1854L44.8135 29.1851L44.8145 29.1848L44.8154 29.1845L44.8164 29.1842L44.8174 29.1838L44.8184 29.1835L44.8194 29.1832L44.8204 29.1829L44.8213 29.1825L44.8223 29.1822L44.8233 29.1819L44.8243 29.1816L44.8253 29.1812L44.8263 29.1809L44.8272 29.1806L44.8282 29.1803L44.8292 29.18L44.8302 29.1796L44.8312 29.1793L44.8322 29.179L44.8331 29.1787L44.8341 29.1783L44.8351 29.178L45.61 28.9232L45.0313 28.3483L36.8665 20.2383L36.5145 19.8887L36.1622 20.2379L23.7009 32.5864C23.2662 32.9685 22.6228 32.9439 22.2693 32.5952L13.8248 24.2645L13.4727 23.9171L13.1215 24.2655L3.22312 34.0858L3.07526 34.2324V34.4407V36.151V41.2818C3.07526 42.7478 3.69371 44.0816 4.6109 45.0467L4.61646 45.0526L4.6222 45.0582C5.49323 45.9175 6.65618 46.4936 7.94059 46.6135ZM53.9219 46.603L53.9219 46.6031L53.9281 46.5968C55.5746 44.9144 56.6432 42.6409 56.6432 40.1232C56.6432 37.559 55.6368 35.2801 53.9219 33.5882L53.9219 33.5882L53.9156 33.5821C52.209 31.9566 49.9072 30.9064 47.3073 30.9064C44.7195 30.9064 42.3514 31.8933 40.6866 33.5944C39.0388 35.2781 37.9714 37.552 37.9714 40.1232C37.9714 40.7593 38.0299 41.3998 38.1492 41.988L38.1516 41.9998L38.1545 42.0115C38.1873 42.1409 38.2345 42.2806 38.2742 42.3979L38.2773 42.4073C38.3181 42.528 38.3513 42.6271 38.3737 42.7112C38.439 43.0838 38.5623 43.4435 38.6791 43.7316L38.687 43.7511L38.6965 43.7698C38.7588 43.8927 38.8207 43.9995 38.8754 44.094L38.8776 44.0978C38.9342 44.1954 38.9833 44.2805 39.0321 44.3766L39.0426 44.3975C39.2031 44.7143 39.3914 45.0858 39.6489 45.4034L39.6664 45.4249L39.6861 45.4444C39.7538 45.5112 39.8247 45.5924 39.9115 45.6923L39.9173 45.699C39.9971 45.7909 40.0917 45.8997 40.1894 45.9961C40.2889 46.0943 40.3907 46.207 40.5047 46.3335L40.5096 46.3389C40.618 46.4593 40.7382 46.5926 40.8605 46.7133L40.8605 46.7134L40.867 46.7197C42.5227 48.2947 44.826 49.2849 47.3073 49.2849C49.9002 49.2849 52.2071 48.2946 53.9219 46.603Z" fill="#ADADC8" stroke="#ADADC8"/>
<path d="M46.9055 34.308L46.7494 33.833L46.9055 34.308C47.0898 34.2474 47.1794 34.2227 47.2527 34.2227H47.2527H47.2527H47.2527H47.2527H47.2527H47.2527H47.2527H47.2527H47.2527H47.2527H47.2527H47.2527H47.2527H47.2527H47.2527H47.2527H47.2527H47.2528H47.2528H47.2528H47.2528H47.2528H47.2528H47.2528H47.2528H47.2528H47.2528H47.2528H47.2528H47.2528H47.2528H47.2528H47.2528H47.2528H47.2528H47.2529H47.2529H47.2529H47.2529H47.2529H47.2529H47.2529H47.2529H47.2529H47.2529H47.2529H47.253H47.253H47.253H47.253H47.253H47.253H47.253H47.253H47.253H47.253H47.2531H47.2531H47.2531H47.2531H47.2531H47.2531H47.2531H47.2531H47.2532H47.2532H47.2532H47.2532H47.2532H47.2532H47.2533H47.2533H47.2533H47.2533H47.2533H47.2533H47.2534H47.2534H47.2534H47.2534H47.2534H47.2534H47.2535H47.2535H47.2535H47.2535H47.2535H47.2536H47.2536H47.2536H47.2536H47.2536H47.2537H47.2537H47.2537H47.2537H47.2538H47.2538H47.2538H47.2538H47.2539H47.2539H47.2539H47.2539H47.254H47.254H47.254H47.254H47.2541H47.2541H47.2541H47.2542H47.2542H47.2542H47.2542H47.2543H47.2543H47.2543H47.2544H47.2544H47.2544H47.2545H47.2545H47.2545H47.2546H47.2546H47.2546H47.2547H47.2547H47.2547H47.2548H47.2548H47.2549H47.2549H47.2549H47.255H47.255H47.2551H47.2551H47.2551H47.2552H47.2552H47.2553H47.2553H47.2553H47.2554H47.2554H47.2555H47.2555H47.2556H47.2556H47.2557H47.2557H47.2558H47.2558H47.2559H47.2559H47.2559H47.256H47.256H47.2561H47.2562H47.2562H47.2563H47.2563H47.2564H47.2564H47.2565H47.2565H47.2566H47.2566H47.2567H47.2567H47.2568H47.2569H47.2569H47.257H47.257H47.2571H47.2572H47.2572H47.2573H47.2573H47.2574H47.2575H47.2575H47.2576H47.2577H47.2577H47.2578H47.2579H47.2579H47.258H47.2581H47.2581H47.2582H47.2583H47.2584H47.2584H47.2585H47.2586H47.2586H47.2587H47.2588H47.2589H47.2589H47.259H47.2591H47.2592H47.2593H47.2593H47.2594H47.2595H47.2596H47.2597H47.2597H47.2598H47.2599H47.26H47.2601H47.2602H47.2602H47.2603H47.2604H47.2605H47.2606H47.2607H47.2608H47.2609H47.261H47.2611H47.2611H47.2612H47.2613H47.2614H47.2615H47.2616H47.2617H47.2618H47.2619H47.262H47.2621H47.2622H47.2623H47.2624H47.2625H47.2626H47.2627H47.2628H47.2629H47.263H47.2631H47.2633H47.2634H47.2635H47.2636H47.2637H47.2638H47.2639H47.264H47.2641H47.2643H47.2644H47.2645H47.2646H47.2647H47.2648H47.265H47.2651H47.2652H47.2653H47.2654H47.2656H47.2657H47.2658H47.2659H47.2661H47.2662H47.2663H47.2664H47.2666H47.2667H47.2668H47.267H47.2671H47.2672H47.2674H47.2675H47.2676H47.2678H47.2679H47.2681H47.2682H47.2683H47.2685H47.2686H47.2688H47.2689H47.269H47.2692H47.2693H47.2695H47.2696H47.2698H47.2699H47.2701H47.2702H47.2704H47.2705H47.2707H47.2708H47.271H47.2711H47.2713H47.2715H47.2716H47.2718H47.2719H47.2721H47.2723H47.2724H47.2726H47.2728H47.2729H47.2731H47.2733H47.2734H47.2736H47.2738H47.2739H47.2741H47.2743H47.2745H47.2746H47.2748H47.275H47.2752H47.2753H47.2755H47.2757H47.2759H47.2761H47.2763H47.2764H47.2766H47.2768H47.277H47.2772H47.2774H47.2776H47.2778H47.278H47.2782H47.2783H47.2785H47.2787H47.2789H47.2791H47.2793H47.2795H47.2797H47.2799H47.2801H47.2803H47.2806H47.2808H47.281H47.2812H47.2814H47.2816H47.2818H47.282H47.2822H47.2824H47.2827H47.2829H47.2831H47.2833H47.2835H47.2838H47.284H47.2842H47.2844H47.2847H47.2849H47.2851H47.2853H47.2856H47.2858H47.286H47.2863H47.2865H47.2867H47.287H47.2872H47.2874H47.2877H47.2879H47.2882H47.2884H47.2886H47.2889H47.2891H47.2894H47.2896H47.2899H47.2901H47.2904H47.2906H47.2909H47.2911H47.2914H47.2917H47.2919H47.2922H47.2924H47.2927H47.293H47.2932H47.2935H47.2938H47.294H47.2943H47.2946H47.2948H47.2951H47.2954H47.2956H47.2959H47.2962H47.2965H47.2968H47.297H47.2973H47.2976H47.2979H47.2982H47.2985H47.2987H47.299H47.2993H47.2996H47.2999H47.3002H47.3005H47.3008H47.3011H47.3014H47.3017H47.302H47.3023H47.3026H47.3029H47.3032H47.3035H47.3038H47.3041H47.3044H47.3047H47.3051H47.3054H47.3057H47.306H47.3063H47.3066H47.307H47.3073H47.3076H47.3079H47.3083H47.3086H47.3086H47.3086H47.3086H47.3086H47.3086H47.3086H47.3086H47.3086H47.3086H47.3086H47.3086H47.3086H47.3087H47.3087H47.3087H47.3087H47.3087H47.3087H47.3087H47.3087H47.3087H47.3087H47.3087H47.3087H47.3087H47.3087H47.3087H47.3087H47.3087H47.3087H47.3087H47.3088H47.3088H47.3088H47.3088H47.3088H47.3088H47.3088H47.3088H47.3088H47.3088H47.3088H47.3088H47.3088H47.3089H47.3089H47.3089H47.3089H47.3089H47.3089H47.3089H47.3089H47.3089H47.3089H47.309H47.309H47.309H47.309H47.309H47.309H47.309H47.309H47.3091H47.3091H47.3091H47.3091H47.3091H47.3091H47.3091H47.3092H47.3092H47.3092H47.3092H47.3092H47.3092H47.3093H47.3093H47.3093H47.3093H47.3093H47.3093H47.3094H47.3094H47.3094H47.3094H47.3094H47.3095H47.3095H47.3095H47.3095H47.3095H47.3096H47.3096H47.3096H47.3096H47.3097H47.3097H47.3097H47.3097H47.3098H47.3098H47.3098H47.3098H47.3099H47.3099H47.3099H47.3099H47.31H47.31H47.31H47.3101H47.3101H47.3101H47.3101H47.3102H47.3102H47.3102H47.3103H47.3103H47.3103H47.3104H47.3104H47.3104H47.3105H47.3105H47.3105H47.3106H47.3106H47.3106H47.3107H47.3107H47.3107H47.3108H47.3108H47.3109H47.3109H47.3109H47.311H47.311H47.3111H47.3111H47.3111H47.3112H47.3112H47.3113H47.3113H47.3114H47.3114H47.3114H47.3115H47.3115H47.3116H47.3116H47.3117H47.3117H47.3118H47.3118H47.3119H47.3119H47.312H47.312H47.3121H47.3121H47.3122H47.3122H47.3123H47.3123H47.3124H47.3124H47.3125H47.3126H47.3126H47.3127H47.3127H47.3128H47.3128H47.3129H47.313H47.313H47.3131H47.3131H47.3132H47.3133H47.3133H47.3134H47.3135H47.3135H47.3136H47.3137H47.3137H47.3138H47.3139H47.3139H47.314H47.3141H47.3141H47.3142H47.3143H47.3143H47.3144H47.3145H47.3146H47.3146H47.3147H47.3148H47.3149H47.3149H47.315H47.3151H47.3152H47.3153H47.3153H47.3154H47.3155H47.3156H47.3157H47.3157H47.3158H47.3159H47.316H47.3161H47.3162H47.3163H47.3163H47.3164H47.3165H47.3166H47.3167H47.3168H47.3169H47.317H47.3171H47.3172H47.3173H47.3173H47.3174H47.3175H47.3176H47.3177H47.3178H47.3179H47.318H47.3181H47.3182H47.3183H47.3184H47.3185H47.3186H47.3188H47.3189H47.319H47.3191H47.3192H47.3193H47.3194H47.3195H47.3196H47.3197H47.3198H47.32H47.3201H47.3202H47.3203H47.3204H47.3205H47.3206H47.3208H47.3209H47.321H47.3211H47.3212H47.3214H47.3215H47.3216H47.3217H47.3219H47.322H47.3221H47.3222H47.3224H47.3225H47.3226H47.3228H47.3229H47.323H47.3232H47.3233H47.3234H47.3236H47.3237H47.3238H47.324H47.3241H47.3243H47.3244H47.3245H47.3247H47.3248H47.325H47.3251H47.3253H47.3254H47.3255H47.3257H47.3258H47.326H47.3261H47.3263H47.3265H47.3266H47.3268H47.3269H47.3271H47.3272H47.3274H47.3275H47.3277H47.3279H47.328H47.3282H47.3284H47.3285H47.3287H47.3288H47.329H47.3292H47.3294H47.3295H47.3297H47.3299H47.33H47.3302H47.3304H47.3306H47.3307H47.3309H47.3311H47.3313H47.3315H47.3316H47.3318H47.332H47.3322H47.3324H47.3326H47.3327H47.3329H47.3331H47.3333H47.3335H47.3337H47.3339H47.3341H47.3343H47.3345H47.3347H47.3349H47.3351H47.3353H47.3355H47.3357H47.3359H47.3361H47.3363H47.3365H47.3367H47.3369H47.3371H47.3373H47.3375H47.3377H47.3379H47.3382H47.3384H47.3386H47.3388H47.339H47.3392H47.3395H47.3397H47.3399H47.3401H47.3403H47.3406H47.3408H47.341H47.3413H47.3415H47.3417H47.3419H47.3422H47.3424H47.3426H47.3429H47.3431H47.3434H47.3436H47.3438H47.3441H47.3443H47.3446H47.3448H47.3451H47.3453H47.3456H47.3458H47.3461H47.3463H47.3466H47.3468H47.3471H47.3473H47.3476H47.3478H47.3481H47.3484H47.3486H47.3489H47.3491H47.3494H47.3497H47.3499H47.3502H47.3505H47.3508H47.351H47.3513H47.3516H47.3518H47.3521H47.3524H47.3527H47.353H47.3532H47.3535H47.3538H47.3541H47.3544H47.3547H47.355H47.3552H47.3555H47.3558H47.3561H47.3564H47.3567H47.357H47.3573H47.3576H47.3579H47.3582H47.3585H47.3588H47.3591H47.3594H47.3597H47.36H47.3604H47.3607H47.361H47.3613H47.3616H47.3619H47.3622H47.3626H47.3629H47.3632H47.3635H47.3639H47.3642H47.3645C47.4331 34.2227 47.5159 34.2443 47.6773 34.2968C47.8589 34.3888 47.9649 34.4656 48.02 34.52L48.3696 34.1656L48.02 34.52L51.478 37.9314C51.8591 38.353 51.8373 38.9703 51.4954 39.3169C51.0607 39.6984 50.4178 39.6736 50.0644 39.3251L49.7133 39.681L50.0644 39.3251L49.1697 38.4423L48.3185 37.6027V38.7983V44.867C48.3185 45.412 47.8777 45.8566 47.3086 45.8566C46.7395 45.8566 46.2987 45.412 46.2987 44.867V38.7983V37.6027L45.4475 38.4423L44.562 39.3159C44.1306 39.6955 43.4936 39.6743 43.1383 39.3332C42.7551 38.9082 42.7806 38.2852 43.1299 37.9405L46.5972 34.52L46.246 34.164L46.5972 34.52C46.7276 34.3913 46.8314 34.3324 46.9055 34.308Z" fill="#ADADC8" stroke="#ADADC8"/>
</svg>
