<svg width="35" height="30" viewBox="0 0 35 30" fill="none" xmlns="http://www.w3.org/2000/svg">
<path d="M21.1843 4.81593C18.0536 6.11973 11.7921 8.81587 2.40789 12.9043C0.88679 13.508 0.085996 14.1035 0.0135625 14.683C-0.10716 15.6608 1.12019 16.0471 2.79018 16.5743L3.4944 16.7956C5.13622 17.3308 7.34949 17.9546 8.49635 17.9787C9.54261 18.0029 10.7056 17.5763 11.9893 16.691C20.7577 10.7716 25.2848 7.78168 25.5665 7.71729C25.7677 7.66901 26.0494 7.61267 26.2345 7.78168C26.4237 7.94667 26.4035 8.26457 26.3834 8.34908C26.2627 8.86818 21.4459 13.343 18.9549 15.6608C18.1783 16.3852 17.627 16.8962 17.5143 17.0129C17.2662 17.2665 17.014 17.516 16.7578 17.7614C15.2286 19.2342 14.0858 20.3368 16.8182 22.1396C18.134 23.0088 19.1883 23.7211 20.2386 24.4374C21.3815 25.218 22.5243 25.9947 24.0052 26.9685C24.3794 27.21 24.7416 27.4715 25.0917 27.721C26.4237 28.6707 27.6269 29.5238 29.1037 29.387C29.9648 29.3065 30.8542 28.5017 31.3049 26.0872C32.3712 20.3851 34.4678 8.0352 34.9507 2.94473C34.9802 2.52157 34.9626 2.09644 34.8984 1.67714C34.8605 1.3388 34.6967 1.02709 34.4396 0.803918C34.0735 0.551164 33.637 0.420217 33.1922 0.429678C31.9849 0.449799 30.1218 1.09768 21.1843 4.81593Z" fill="white"/>
</svg>
