<svg width="16" height="13" viewBox="0 0 16 13" fill="none" xmlns="http://www.w3.org/2000/svg">
<path fill-rule="evenodd" clip-rule="evenodd" d="M13.4069 0.972733C13.6654 0.716503 14.0143 0.572299 14.3783 0.571294C14.7423 0.57029 15.092 0.712567 15.3519 0.967367C15.6118 1.22217 15.761 1.56902 15.7672 1.93293C15.7734 2.29683 15.6361 2.64857 15.385 2.91207L8.01185 12.1286C7.88513 12.265 7.73219 12.3746 7.56217 12.4506C7.39215 12.5266 7.20854 12.5676 7.02233 12.5711C6.83611 12.5745 6.65112 12.5404 6.4784 12.4707C6.30568 12.401 6.14879 12.2972 6.0171 12.1655L1.13181 7.27836C0.995711 7.15154 0.88655 6.99861 0.810838 6.82869C0.735127 6.65877 0.694415 6.47533 0.691134 6.28934C0.687852 6.10334 0.722067 5.91859 0.791737 5.7461C0.861408 5.57361 0.965106 5.41693 1.09665 5.28539C1.22819 5.15384 1.38487 5.05015 1.55736 4.98048C1.72985 4.91081 1.9146 4.87659 2.1006 4.87987C2.2866 4.88315 2.47003 4.92387 2.63995 4.99958C2.80987 5.07529 2.9628 5.18445 3.08962 5.32055L6.95722 9.1863L13.3718 1.01337C13.3833 0.99906 13.3956 0.985488 13.4088 0.972733H13.4069Z" fill="#00CC9E"/>
</svg>
