<svg width="40" height="40" viewBox="0 0 40 40" fill="none" xmlns="http://www.w3.org/2000/svg">
<path d="M39.1955 15.919H37.6156V15.8376H19.9631V23.6831H31.0479C29.4308 28.2502 25.0853 31.5287 19.9631 31.5287C13.4641 31.5287 8.1948 26.2594 8.1948 19.7604C8.1948 13.2613 13.4641 7.99204 19.9631 7.99204C22.9631 7.99204 25.6923 9.12376 27.7704 10.9724L33.3182 5.42458C29.8152 2.15985 25.1294 0.146484 19.9631 0.146484C9.13136 0.146484 0.349243 8.9286 0.349243 19.7604C0.349243 30.5921 9.13136 39.3743 19.9631 39.3743C30.7949 39.3743 39.577 30.5921 39.577 19.7604C39.577 18.4453 39.4417 17.1615 39.1955 15.919Z" fill="#FFC107"/>
<path d="M2.61084 10.6306L9.05498 15.3566C10.7987 11.0395 15.0215 7.99155 19.9632 7.99155C22.9632 7.99155 25.6925 9.12327 27.7706 10.9719L33.3183 5.42409C29.8153 2.15936 25.1295 0.145996 19.9632 0.145996C12.4296 0.145996 5.89617 4.39927 2.61084 10.6306Z" fill="#FF3D00"/>
<path d="M19.963 39.375C25.0293 39.375 29.6327 37.4361 33.1132 34.2832L27.0427 29.1463C25.0073 30.6942 22.5201 31.5314 19.963 31.5294C14.8615 31.5294 10.5297 28.2765 8.89786 23.7368L2.50177 28.6648C5.74787 35.0168 12.3401 39.375 19.963 39.375Z" fill="#4CAF50"/>
<path d="M39.196 15.9188H37.6161V15.8374H19.9636V23.683H31.0484C30.2748 25.8566 28.8814 27.756 27.0403 29.1464L27.0433 29.1444L33.1138 34.2813C32.6842 34.6716 39.5775 29.5671 39.5775 19.7602C39.5775 18.4451 39.4422 17.1613 39.196 15.9188Z" fill="#1976D2"/>
</svg>
