<svg width="16" height="15" viewBox="0 0 16 15" fill="none" xmlns="http://www.w3.org/2000/svg">
<path d="M9.57781 2.81412C8.19281 3.41283 5.42279 4.6509 1.27134 6.52833C0.598426 6.80551 0.244164 7.079 0.21212 7.34509C0.158714 7.79412 0.701678 7.97152 1.44046 8.21359L1.752 8.31522C2.47833 8.56099 3.45745 8.8474 3.96481 8.85849C4.42766 8.86958 4.94214 8.67371 5.51003 8.26717C9.38911 5.54896 11.3918 4.176 11.5165 4.14643C11.6055 4.12426 11.7301 4.09839 11.812 4.176C11.8956 4.25176 11.8867 4.39774 11.8778 4.43655C11.8244 4.67492 9.69352 6.72975 8.59157 7.79412C8.24799 8.12674 8.00411 8.36142 7.95426 8.415C7.8445 8.53144 7.73292 8.64602 7.61958 8.75871C6.9431 9.43503 6.43752 9.94134 7.64628 10.7692C8.22841 11.1683 8.69483 11.4954 9.15946 11.8243C9.66504 12.1828 10.1706 12.5394 10.8257 12.9866C10.9913 13.0975 11.1515 13.2176 11.3064 13.3322C11.8956 13.7683 12.4279 14.16 13.0813 14.0972C13.4622 14.0602 13.8557 13.6907 14.055 12.5819C14.5268 9.96351 15.4543 4.29241 15.6679 1.95486C15.6809 1.76055 15.6732 1.56533 15.6448 1.37279C15.628 1.21742 15.5556 1.07428 15.4418 0.9718C15.2798 0.855735 15.0867 0.795604 14.89 0.799948C14.3559 0.809188 13.5317 1.10669 9.57781 2.81412Z" fill="#8D8D8D"/>
</svg>
