<svg width="24" height="28" viewBox="0 0 24 28" fill="none" xmlns="http://www.w3.org/2000/svg">
<path d="M1.33422 27.3337C1.08163 27.3337 0.839388 27.2333 0.660782 27.0547C0.482176 26.8761 0.381836 26.6339 0.381836 26.3813C0.381836 26.1287 0.482176 25.8864 0.660782 25.7078C0.839388 25.5292 1.08163 25.4289 1.33422 25.4289H3.23898V23.5241C3.23859 21.9069 3.69571 20.3226 4.55755 18.9542C5.41939 17.5858 6.65077 16.4891 8.10945 15.7908C8.66184 15.526 8.95326 15.0727 8.95326 14.667V13.3337C8.95326 12.9279 8.65993 12.4746 8.10945 12.2099C6.65077 11.5116 5.41939 10.4149 4.55755 9.04646C3.69571 7.67804 3.23859 6.09372 3.23898 4.47652V2.57175H1.33422C1.08163 2.57175 0.839388 2.47141 0.660782 2.29281C0.482176 2.1142 0.381836 1.87196 0.381836 1.61937C0.381836 1.36679 0.482176 1.12454 0.660782 0.945938C0.839388 0.767332 1.08163 0.666992 1.33422 0.666992H22.2866C22.5392 0.666992 22.7814 0.767332 22.96 0.945938C23.1386 1.12454 23.239 1.36679 23.239 1.61937C23.239 1.87196 23.1386 2.1142 22.96 2.29281C22.7814 2.47141 22.5392 2.57175 22.2866 2.57175H20.3818V4.47652C20.3822 6.09372 19.9251 7.67804 19.0633 9.04646C18.2014 10.4149 16.97 11.5116 15.5114 12.2099C14.959 12.4746 14.6675 12.9279 14.6675 13.3337V14.667C14.6675 15.0727 14.9609 15.526 15.5114 15.7908C16.97 16.4891 18.2014 17.5858 19.0633 18.9542C19.9251 20.3226 20.3822 21.9069 20.3818 23.5241V25.4289H22.2866C22.5392 25.4289 22.7814 25.5292 22.96 25.7078C23.1386 25.8864 23.239 26.1287 23.239 26.3813C23.239 26.6339 23.1386 26.8761 22.96 27.0547C22.7814 27.2333 22.5392 27.3337 22.2866 27.3337H1.33422ZM5.14374 2.57175V4.47652C5.14374 5.49937 5.37231 6.46699 5.78565 7.33366H17.8352C18.2466 6.46699 18.4771 5.49937 18.4771 4.47652V2.57175H5.14374ZM10.858 14.667C10.858 16.0022 9.94755 17.0213 8.93231 17.5089C7.79763 18.052 6.83976 18.905 6.16936 19.9694C5.49896 21.0338 5.14339 22.2662 5.14374 23.5241C5.14374 23.5241 6.79326 21.0499 10.858 20.7051V14.667ZM12.7628 14.667V20.7051C16.8275 21.0499 18.4771 23.5241 18.4771 23.5241C18.4774 22.2662 18.1219 21.0338 17.4515 19.9694C16.7811 18.905 15.8232 18.052 14.6885 17.5089C13.6733 17.0213 12.7628 16.0041 12.7628 14.6689V14.667Z" fill="#ADADC8"/>
</svg>
