<svg width="26" height="25" viewBox="0 0 26 25" fill="none" xmlns="http://www.w3.org/2000/svg">
<path d="M0.824219 3.52795C0.824219 2.74184 1.09966 2.09331 1.65053 1.58236C2.2014 1.07139 2.91755 0.815918 3.79895 0.815918C4.66461 0.815918 5.365 1.06745 5.90014 1.57057C6.45101 2.0894 6.72645 2.76542 6.72645 3.5987C6.72645 4.35336 6.45889 4.98222 5.92375 5.48534C5.37288 6.00416 4.64887 6.26357 3.75173 6.26357H3.72812C2.86245 6.26357 2.16207 6.00416 1.62692 5.48534C1.09178 4.96651 0.824219 4.31404 0.824219 3.52795ZM1.13114 24.163V8.40962H6.37232V24.163H1.13114ZM9.27622 24.163H14.5174V15.3666C14.5174 14.8163 14.5804 14.3918 14.7063 14.0931C14.9266 13.5586 15.2611 13.1065 15.7097 12.7371C16.1582 12.3676 16.7209 12.1829 17.3977 12.1829C19.1605 12.1829 20.0419 13.3699 20.0419 15.7439V24.163H25.2831V15.1308C25.2831 12.8039 24.7322 11.0391 23.6305 9.83639C22.5287 8.63366 21.0728 8.03229 19.2628 8.03229C17.2324 8.03229 15.6506 8.90486 14.5174 10.65V10.6972H14.4938L14.5174 10.65V8.40962H9.27622C9.30769 8.91272 9.32344 10.477 9.32344 13.1026C9.32344 15.7282 9.30769 19.415 9.27622 24.163Z" fill="white"/>
</svg>
