<svg width="20" height="14" viewBox="0 0 20 14" fill="none" xmlns="http://www.w3.org/2000/svg">
<path d="M10.0027 9.54599C11.4085 9.54599 12.5482 8.40635 12.5482 7.00053C12.5482 5.59472 11.4085 4.45508 10.0027 4.45508C8.59691 4.45508 7.45728 5.59472 7.45728 7.00053C7.45728 8.40635 8.59691 9.54599 10.0027 9.54599Z" fill="#75758F"/>
<path d="M19.5073 6.78364C18.7588 4.84759 17.4595 3.1733 15.7698 1.96769C14.0801 0.762081 12.0742 0.078001 10 0C7.9258 0.078001 5.9199 0.762081 4.23024 1.96769C2.54057 3.1733 1.24121 4.84759 0.492745 6.78364C0.442197 6.92345 0.442197 7.07655 0.492745 7.21636C1.24121 9.15241 2.54057 10.8267 4.23024 12.0323C5.9199 13.2379 7.9258 13.922 10 14C12.0742 13.922 14.0801 13.2379 15.7698 12.0323C17.4595 10.8267 18.7588 9.15241 19.5073 7.21636C19.5578 7.07655 19.5578 6.92345 19.5073 6.78364ZM10 11.1364C9.18192 11.1364 8.3822 10.8938 7.70198 10.4393C7.02176 9.98475 6.49159 9.33874 6.17852 8.58292C5.86544 7.8271 5.78353 6.99541 5.94313 6.19304C6.10274 5.39066 6.49669 4.65363 7.07517 4.07515C7.65365 3.49667 8.39068 3.10272 9.19305 2.94312C9.99543 2.78351 10.8271 2.86543 11.5829 3.1785C12.3388 3.49157 12.9848 4.02174 13.4393 4.70196C13.8938 5.38218 14.1364 6.1819 14.1364 7C14.1347 8.09651 13.6984 9.14764 12.923 9.92299C12.1477 10.6983 11.0965 11.1347 10 11.1364Z" fill="#75758F"/>
</svg>
