<svg width="22" height="17" viewBox="0 0 22 17" fill="none" xmlns="http://www.w3.org/2000/svg">
<path fill-rule="evenodd" clip-rule="evenodd" d="M10.9752 0.477539C13.6153 0.477539 16.1399 1.86885 18.4927 4.15478C19.2953 4.93464 20.0215 5.76722 20.6607 6.60015C21.0464 7.10277 21.3203 7.49815 21.4703 7.7337L21.8038 8.25769L21.4703 8.78168C21.3203 9.01724 21.0464 9.41262 20.6607 9.91523C20.0215 10.7482 19.2953 11.5807 18.4927 12.3606C16.1399 14.6465 13.6153 16.0378 10.9752 16.0378C8.33498 16.0378 5.8104 14.6465 3.45765 12.3606C2.65499 11.5807 1.92884 10.7482 1.2896 9.91523C0.903861 9.41262 0.629992 9.01724 0.480045 8.78168L0.146484 8.25769L0.480045 7.7337C0.629992 7.49815 0.903861 7.10277 1.2896 6.60015C1.92884 5.76722 2.65499 4.93464 3.45765 4.15478C5.8104 1.86885 8.33498 0.477539 10.9752 0.477539ZM19.129 7.7869C18.5437 7.0243 17.8783 6.26134 17.1483 5.55203C15.1219 3.58319 13.0142 2.42164 10.9765 2.42164C8.93891 2.42164 6.83123 3.58319 4.80484 5.55203C4.07479 6.26134 3.40937 7.0243 2.8241 7.7869C2.69769 7.95161 2.58088 8.10876 2.4741 8.25675C2.58088 8.40475 2.69769 8.56189 2.8241 8.7266C3.40937 9.48921 4.07479 10.2522 4.80484 10.9615C6.83123 12.9303 8.93891 14.0919 10.9765 14.0919C13.0142 14.0919 15.1219 12.9303 17.1483 10.9615C17.8783 10.2522 18.5437 9.48921 19.129 8.7266C19.2554 8.56189 19.3722 8.40475 19.479 8.25675C19.3722 8.10876 19.2554 7.95161 19.129 7.7869ZM7.10597 8.25671C7.10597 10.4051 8.83946 12.1468 10.9778 12.1468C13.1162 12.1468 14.8497 10.4051 14.8497 8.25671C14.8497 6.10828 13.1162 4.36664 10.9778 4.36664C8.83946 4.36664 7.10597 6.10828 7.10597 8.25671ZM12.912 8.25396C12.912 9.32818 12.0452 10.199 10.9761 10.199C9.90687 10.199 9.04013 9.32818 9.04013 8.25396C9.04013 7.17975 9.90687 6.30893 10.9761 6.30893C12.0452 6.30893 12.912 7.17975 12.912 8.25396Z" fill="#75758F"/>
</svg>
