<svg width="19" height="13" viewBox="0 0 19 13" fill="none" xmlns="http://www.w3.org/2000/svg">
<path fill-rule="evenodd" clip-rule="evenodd" d="M9.04395 0.516602C11.2383 0.516602 13.3365 1.62886 15.2919 3.45631C15.9591 4.07975 16.5626 4.74534 17.0939 5.41122C17.4145 5.81302 17.6421 6.1291 17.7667 6.31741L18.0439 6.73631L17.7667 7.1552C17.6421 7.34351 17.4145 7.65959 17.0939 8.0614C16.5626 8.72727 15.9591 9.39286 15.2919 10.0163C13.3365 11.8438 11.2383 12.956 9.04395 12.956C6.84963 12.956 4.75138 11.8438 2.79594 10.0163C2.12883 9.39286 1.52531 8.72727 0.994018 8.0614C0.673421 7.65959 0.445801 7.34351 0.321177 7.1552L0.0439453 6.73631L0.321177 6.31741C0.445801 6.1291 0.673421 5.81302 0.994018 5.41122C1.52531 4.74534 2.12883 4.07975 2.79594 3.45631C4.75138 1.62886 6.84963 0.516602 9.04395 0.516602ZM15.8197 6.35948C15.3333 5.74983 14.7802 5.13989 14.1735 4.57285C12.4893 2.9989 10.7375 2.07031 9.04399 2.07031C7.35045 2.07031 5.5987 2.9989 3.91451 4.57285C3.30776 5.13989 2.7547 5.74983 2.26826 6.35948C2.16321 6.49115 2.06613 6.61678 1.97737 6.73509C2.06613 6.8534 2.16321 6.97903 2.26826 7.1107C2.7547 7.72035 3.30776 8.33029 3.91451 8.89733C5.5987 10.4713 7.35045 11.3999 9.04399 11.3999C10.7375 11.3999 12.4893 10.4713 14.1735 8.89733C14.7802 8.33029 15.3333 7.72035 15.8197 7.1107C15.9248 6.97903 16.0219 6.8534 16.1106 6.73509C16.0219 6.61678 15.9248 6.49115 15.8197 6.35948ZM5.82633 6.73558C5.82633 8.45311 7.26708 9.84544 9.04434 9.84544C10.8216 9.84544 12.2624 8.45311 12.2624 6.73558C12.2624 5.01806 10.8216 3.62573 9.04434 3.62573C7.26708 3.62573 5.82633 5.01806 5.82633 6.73558ZM10.6534 6.73413C10.6534 7.59289 9.93306 8.28905 9.04443 8.28905C8.1558 8.28905 7.43542 7.59289 7.43542 6.73413C7.43542 5.87536 8.1558 5.1792 9.04443 5.1792C9.93306 5.1792 10.6534 5.87536 10.6534 6.73413Z" fill="#323754"/>
</svg>
