<svg width="12" height="9" viewBox="0 0 12 9" fill="none" xmlns="http://www.w3.org/2000/svg">
<path fill-rule="evenodd" clip-rule="evenodd" d="M5.8318 0.9375C7.19557 0.9375 8.49964 1.65281 9.71494 2.82807C10.1296 3.22902 10.5046 3.65708 10.8348 4.08531C11.0341 4.34372 11.1756 4.547 11.253 4.6681L11.4253 4.9375L11.253 5.2069C11.1756 5.328 11.0341 5.53128 10.8348 5.78969C10.5046 6.21792 10.1296 6.64598 9.71494 7.04693C8.49964 8.22219 7.19557 8.9375 5.8318 8.9375C4.46802 8.9375 3.16396 8.22219 1.94865 7.04693C1.53404 6.64598 1.15895 6.21792 0.828753 5.78969C0.629502 5.53128 0.488036 5.328 0.410581 5.2069L0.238281 4.9375L0.410581 4.6681C0.488036 4.547 0.629502 4.34372 0.828753 4.08531C1.15895 3.65708 1.53404 3.22902 1.94865 2.82807C3.16396 1.65281 4.46802 0.9375 5.8318 0.9375ZM10.0429 4.69513C9.74055 4.30305 9.39683 3.9108 9.01973 3.54612C7.973 2.53388 6.88429 1.9367 5.83175 1.9367C4.77921 1.9367 3.6905 2.53388 2.64377 3.54612C2.26667 3.9108 1.92294 4.30305 1.62062 4.69513C1.55533 4.77981 1.49499 4.86061 1.43983 4.9367C1.49499 5.01278 1.55533 5.09358 1.62062 5.17826C1.92294 5.57034 2.26667 5.96259 2.64377 6.32727C3.6905 7.33951 4.77921 7.9367 5.83175 7.9367C6.88429 7.9367 7.973 7.33951 9.01973 6.32727C9.39683 5.96259 9.74055 5.57034 10.0429 5.17826C10.1082 5.09358 10.1685 5.01278 10.2237 4.9367C10.1685 4.86061 10.1082 4.77981 10.0429 4.69513ZM3.83193 4.93694C3.83193 6.04151 4.72736 6.93694 5.83193 6.93694C6.9365 6.93694 7.83193 6.04151 7.83193 4.93694C7.83193 3.83237 6.9365 2.93694 5.83193 2.93694C4.72736 2.93694 3.83193 3.83237 3.83193 4.93694ZM6.83217 4.93614C6.83217 5.48842 6.38445 5.93614 5.83217 5.93614C5.27989 5.93614 4.83217 5.48842 4.83217 4.93614C4.83217 4.38385 5.27989 3.93614 5.83217 3.93614C6.38445 3.93614 6.83217 4.38385 6.83217 4.93614Z" fill="#F52079"/>
</svg>
