<svg width="187" height="27" viewBox="0 0 187 27" fill="none" xmlns="http://www.w3.org/2000/svg">
<path d="M12.2527 15.9386C13.6585 15.9386 14.7982 14.799 14.7982 13.3932C14.7982 11.9874 13.6585 10.8477 12.2527 10.8477C10.8469 10.8477 9.70728 11.9874 9.70728 13.3932C9.70728 14.799 10.8469 15.9386 12.2527 15.9386Z" fill="#75758F"/>
<path d="M21.7573 13.1762C21.0088 11.2402 19.7095 9.56588 18.0198 8.36027C16.3301 7.15466 14.3242 6.47058 12.25 6.39258C10.1758 6.47058 8.1699 7.15466 6.48024 8.36027C4.79057 9.56588 3.49121 11.2402 2.74275 13.1762C2.6922 13.316 2.6922 13.4691 2.74275 13.6089C3.49121 15.545 4.79057 17.2193 6.48024 18.4249C8.1699 19.6305 10.1758 20.3146 12.25 20.3926C14.3242 20.3146 16.3301 19.6305 18.0198 18.4249C19.7095 17.2193 21.0088 15.545 21.7573 13.6089C21.8078 13.4691 21.8078 13.316 21.7573 13.1762ZM12.25 17.5289C11.4319 17.5289 10.6322 17.2863 9.95198 16.8318C9.27176 16.3773 8.74159 15.7313 8.42852 14.9755C8.11544 14.2197 8.03353 13.388 8.19313 12.5856C8.35274 11.7832 8.74669 11.0462 9.32517 10.4677C9.90365 9.88925 10.6407 9.4953 11.4431 9.33569C12.2454 9.17609 13.0771 9.25801 13.8329 9.57108C14.5888 9.88415 15.2348 10.4143 15.6893 11.0945C16.1438 11.7748 16.3864 12.5745 16.3864 13.3926C16.3847 14.4891 15.9484 15.5402 15.173 16.3156C14.3977 17.0909 13.3465 17.5273 12.25 17.5289Z" fill="#75758F"/>
<path d="M28.79 17.2726V16.0246C30.77 14.3446 32.846 12.7966 32.846 11.1886C32.846 10.4086 32.498 9.88058 31.67 9.88058C30.866 9.88058 30.422 10.4566 30.41 11.3806H28.778C28.838 9.37658 30.122 8.45258 31.694 8.45258C33.578 8.45258 34.526 9.56858 34.526 11.0926C34.526 13.1206 32.57 14.7046 31.178 15.8806H34.718V17.2726H28.79ZM36.8326 8.62058H42.2566V10.0966H38.3686V12.1486C38.6926 11.7526 39.3526 11.4406 40.0846 11.4406C42.1246 11.4406 42.8206 12.9766 42.8206 14.3326C42.8206 16.1206 41.7886 17.3926 39.7966 17.3926C37.9126 17.3926 36.8326 16.3486 36.6886 14.9206H38.3206C38.4646 15.5326 38.9566 15.9766 39.7726 15.9766C40.7566 15.9766 41.2006 15.2806 41.2006 14.3566C41.2006 13.3726 40.7086 12.8326 39.7606 12.8326C39.0646 12.8326 38.6206 13.2166 38.4406 13.7566H36.8326V8.62058ZM49.6193 17.3926L46.5713 13.6606V17.3926H44.8913V9.01658H46.5713V12.7726L49.6193 9.01658H51.6473L48.1913 13.1686L51.7433 17.3926H49.6193Z" fill="#75758F"/>
<path d="M102.25 3.39258C96.727 3.39258 92.25 7.86992 92.25 13.3926C92.25 18.9152 96.727 23.3926 102.25 23.3926C107.773 23.3926 112.25 18.9152 112.25 13.3926C112.25 7.86992 107.773 3.39258 102.25 3.39258Z" fill="#75758F"/>
<path d="M97.6248 11.0187H97.5825C98.4481 9.31716 100.216 8.15124 102.256 8.15124C103.571 8.15124 104.774 8.63614 105.694 9.43707H105.726H107.815C106.578 7.70165 104.549 6.56964 102.256 6.56964C98.7557 6.56964 95.8719 9.20529 95.4799 12.6003L99.8835 12.5999V14.1812H95.4792L95.481 14.1934C95.545 14.7388 95.6733 15.2642 95.8579 15.7628H99.8828V19.7877C100.385 19.9737 100.915 20.1027 101.464 20.1663V15.7631H103.045V20.1667C103.595 20.1031 104.125 19.9744 104.627 19.7881V15.7628H108.652C108.926 15.0241 109.075 14.2249 109.075 13.3907C109.075 12.5566 108.926 11.7574 108.652 11.0187H107.715H97.6248ZM103.046 14.1815H101.464V12.6003H103.046V14.1815ZM107.435 14.1815H104.627V12.6003H107.435C107.474 12.8583 107.495 13.1222 107.495 13.3911C107.495 13.6596 107.474 13.9235 107.435 14.1815Z" fill="white"/>
<path d="M117.846 17.3926V10.1926H116.682V8.64458H119.574V17.3926H117.846ZM122.794 17.3926V10.1926H121.63V8.64458H124.522V17.3926H122.794ZM126.685 17.2726V16.0246C128.665 14.3446 130.741 12.7966 130.741 11.1886C130.741 10.4086 130.393 9.88058 129.565 9.88058C128.761 9.88058 128.317 10.4566 128.305 11.3806H126.673C126.733 9.37658 128.017 8.45258 129.589 8.45258C131.473 8.45258 132.421 9.56858 132.421 11.0926C132.421 13.1206 130.465 14.7046 129.073 15.8806H132.613V17.2726H126.685ZM133.78 19.1206L134.584 15.5446H136.36L134.872 19.1206H133.78ZM138.891 17.3926V10.1926H137.727V8.64458H140.619V17.3926H138.891ZM142.782 17.2726V16.0246C144.762 14.3446 146.838 12.7966 146.838 11.1886C146.838 10.4086 146.49 9.88058 145.662 9.88058C144.858 9.88058 144.414 10.4566 144.402 11.3806H142.77C142.83 9.37658 144.114 8.45258 145.686 8.45258C147.57 8.45258 148.518 9.56858 148.518 11.0926C148.518 13.1206 146.562 14.7046 145.17 15.8806H148.71V17.2726H142.782ZM150.393 10.9486C150.477 9.32858 151.629 8.44058 153.309 8.44058C155.109 8.44058 156.069 9.46058 156.069 10.7566C156.069 11.8486 155.385 12.5206 154.749 12.7366V12.7846C155.637 13.0606 156.225 13.7806 156.225 14.9686C156.225 16.3966 155.217 17.4526 153.381 17.4526C151.653 17.4526 150.345 16.5886 150.273 14.7526H151.905C151.941 15.5086 152.445 16.0486 153.345 16.0486C154.185 16.0486 154.617 15.5206 154.617 14.8246C154.617 13.8406 153.993 13.4806 152.745 13.4806H152.397V12.1006H152.745C153.729 12.1006 154.449 11.8246 154.449 10.9606C154.449 10.2766 154.029 9.86858 153.261 9.86858C152.445 9.86858 152.097 10.3966 152.037 10.9486H150.393ZM157.66 19.1206L158.464 15.5446H160.24L158.752 19.1206H157.66ZM162.267 8.62058H167.691V10.0966H163.803V12.1486C164.127 11.7526 164.787 11.4406 165.519 11.4406C167.559 11.4406 168.255 12.9766 168.255 14.3326C168.255 16.1206 167.223 17.3926 165.231 17.3926C163.347 17.3926 162.267 16.3486 162.123 14.9206H163.755C163.899 15.5326 164.391 15.9766 165.207 15.9766C166.191 15.9766 166.635 15.2806 166.635 14.3566C166.635 13.3726 166.143 12.8326 165.195 12.8326C164.499 12.8326 164.055 13.2166 163.875 13.7566H162.267V8.62058ZM170.134 12.9046C170.134 10.3726 170.902 8.47658 173.374 8.47658C175.846 8.47658 176.614 10.3726 176.614 12.9046C176.614 15.4606 175.846 17.3686 173.374 17.3686C170.902 17.3686 170.134 15.4606 170.134 12.9046ZM174.958 12.9046C174.958 11.4046 174.79 10.0366 173.374 10.0366C171.958 10.0366 171.79 11.4046 171.79 12.9046C171.79 14.4646 171.958 15.8086 173.374 15.8086C174.79 15.8086 174.958 14.4646 174.958 12.9046ZM178.491 12.9046C178.491 10.3726 179.259 8.47658 181.731 8.47658C184.203 8.47658 184.971 10.3726 184.971 12.9046C184.971 15.4606 184.203 17.3686 181.731 17.3686C179.259 17.3686 178.491 15.4606 178.491 12.9046ZM183.315 12.9046C183.315 11.4046 183.147 10.0366 181.731 10.0366C180.315 10.0366 180.147 11.4046 180.147 12.9046C180.147 14.4646 180.315 15.8086 181.731 15.8086C183.147 15.8086 183.315 14.4646 183.315 12.9046Z" fill="#75758F"/>
</svg>
