<svg width="478" height="356" viewBox="0 0 478 356" fill="none" xmlns="http://www.w3.org/2000/svg">
<path d="M207.683 60.4994C238.652 73.5681 220.125 109.934 207.683 120.836C191.321 143.781 162.609 140.031 166.328 161.089C178.151 228.031 117.61 292.885 55.8026 243.009C18.8481 213.188 31.9065 174.85 36.6436 162.274C53.5684 117.344 81.2828 125.148 96.7561 89.2559C117.414 41.3364 168.973 44.1635 207.683 60.4994Z" fill="url(#paint0_linear)"/>
<path d="M429.017 166.787C445.176 186.635 447.005 205.029 441.618 219.792C432.992 243.426 422.486 243.55 407.344 278.198C388.789 320.656 331.576 266.655 330.401 230.875C329.226 195.096 362.802 193.609 372.023 170.495C381.244 147.38 408.819 141.977 429.017 166.787Z" fill="url(#paint1_linear)"/>
<path d="M9.27881 297.641C9.27881 290 15.4724 283.807 23.1126 283.807H443.494C451.134 283.807 457.327 290 457.327 297.641V299.654C457.327 306.182 452.035 311.474 445.507 311.474H443.579C438.116 311.474 433.687 315.903 433.687 321.366C433.687 326.83 429.259 331.258 423.795 331.258H376.752C370.016 331.258 364.555 336.719 364.555 343.455C364.555 350.191 359.094 355.652 352.358 355.652H111.985C105.249 355.652 99.7885 350.191 99.7885 343.455C99.7885 336.719 94.3278 331.258 87.5917 331.258H43.9533C38.4901 331.258 34.0613 326.83 34.0613 321.366C34.0613 315.903 29.6325 311.474 24.1693 311.474H21.6701C14.8266 311.474 9.27881 305.927 9.27881 299.083V297.641Z" fill="#35384D"/>
<path d="M95.0668 284.217H95.0791V275.72C95.0791 271.146 78.2361 267.437 57.459 267.437C36.6818 267.437 19.8389 271.146 19.8389 275.72V284.217H19.8511C20.366 288.693 37.0065 292.286 57.459 292.286C77.9115 292.286 94.552 288.693 95.0668 284.217Z" fill="#FFA318"/>
<path d="M19.9009 275.72H19.8384V284.217H19.8506C20.3655 288.693 37.006 292.286 57.4585 292.286C77.911 292.286 94.5515 288.693 95.0663 284.217H95.0786V275.72H95.0161C93.8858 280.071 77.5034 283.523 57.4585 283.523C37.4135 283.523 21.0312 280.071 19.9009 275.72Z" fill="url(#paint2_linear)"/>
<path fill-rule="evenodd" clip-rule="evenodd" d="M21.2827 277.523V286.287C21.763 286.658 22.3578 287.019 23.0581 287.366V278.603C22.3578 278.255 21.763 277.894 21.2827 277.523ZM25.0042 279.437V288.201C25.557 288.408 26.1496 288.61 26.7796 288.805V280.041C26.1496 279.846 25.557 279.644 25.0042 279.437ZM28.732 280.595V289.359C29.301 289.507 29.8933 289.65 30.5074 289.789V281.026C29.8933 280.887 29.301 280.743 28.732 280.595ZM32.4572 281.436V290.2C33.0334 290.313 33.6255 290.422 34.2327 290.527V281.764C33.6255 281.658 33.0334 281.549 32.4572 281.436ZM36.188 282.08V290.844C36.7683 290.931 37.3603 291.016 37.9634 291.096V282.333C37.3603 282.252 36.7683 282.168 36.188 282.08ZM39.9187 282.577V291.341C40.5017 291.408 41.0936 291.473 41.6942 291.534V282.771C41.0936 282.709 40.5017 282.645 39.9187 282.577ZM43.6399 282.954V291.718C44.2247 291.769 44.8166 291.816 45.4153 291.861V283.097C44.8166 283.053 44.2247 283.005 43.6399 282.954ZM47.3704 283.23V291.993C47.9565 292.029 48.5485 292.062 49.1458 292.092V283.328C48.5485 283.298 47.9565 283.266 47.3704 283.23ZM51.1066 283.414V292.177C51.6939 292.199 52.2858 292.218 52.8821 292.234V283.471C52.2858 283.455 51.6939 283.436 51.1066 283.414ZM54.8263 283.511V292.275C55.4145 292.284 56.0064 292.29 56.6018 292.293V283.529C56.0064 283.526 55.4145 283.52 54.8263 283.511ZM58.553 283.528V292.291C59.1484 292.288 59.7403 292.281 60.3284 292.271V283.508C59.7403 283.518 59.1484 283.524 58.553 283.528ZM62.2852 283.464V292.228C62.8815 292.211 63.4734 292.191 64.0606 292.168V283.405C63.4734 283.427 62.8815 283.447 62.2852 283.464ZM66.0105 283.317V292.08C66.6078 292.05 67.1998 292.016 67.7859 291.979V283.216C67.1998 283.253 66.6078 283.286 66.0105 283.317ZM69.7424 283.08V291.844C70.3412 291.798 70.9331 291.75 71.5178 291.698V282.934C70.9331 282.986 70.3412 283.035 69.7424 283.08ZM73.4621 282.747V291.511C74.0627 291.449 74.6547 291.383 75.2375 291.314V282.551C74.6547 282.62 74.0627 282.685 73.4621 282.747ZM77.1969 282.302V291.066C77.8002 290.984 78.3922 290.898 78.9723 290.809V282.045C78.3922 282.134 77.8002 282.22 77.1969 282.302ZM80.9236 281.724V290.488C81.531 290.381 82.1231 290.27 82.699 290.155V281.392C82.1231 281.507 81.531 281.617 80.9236 281.724ZM84.6447 280.975V289.739C85.2595 289.598 85.8517 289.451 86.4202 289.301V280.537C85.8517 280.688 85.2595 280.834 84.6447 280.975ZM88.3755 279.971V288.735C89.0071 288.535 89.5997 288.328 90.1509 288.116V279.352C89.5997 279.565 89.0071 279.771 88.3755 279.971ZM92.1019 278.487V287.25C92.8157 286.881 93.411 286.497 93.8773 286.103V277.374H93.8349C93.3751 277.757 92.7942 278.128 92.1019 278.487Z" fill="#FF9211"/>
<g style="mix-blend-mode:multiply">
<path fill-rule="evenodd" clip-rule="evenodd" d="M88.9966 276.45C89.2072 276.15 89.3162 275.842 89.3162 275.529C89.3162 271.957 75.0973 269.061 57.5575 269.061C40.0177 269.061 25.7988 271.957 25.7988 275.529C25.7988 275.841 25.9074 276.148 26.1173 276.449C28.3128 273.313 41.5521 270.901 57.5564 270.901C73.5634 270.901 86.8045 273.313 88.9966 276.45Z" fill="#FFC177"/>
</g>
<path d="M88.8696 275.529C88.8696 275.816 88.7288 276.145 88.3559 276.516C87.982 276.889 87.4071 277.269 86.6267 277.645C85.068 278.395 82.7838 279.083 79.9252 279.666C74.2152 280.829 66.3068 281.551 57.5575 281.551C48.8082 281.551 40.8998 280.829 35.1899 279.666C32.3312 279.083 30.047 278.395 28.4883 277.645C27.708 277.269 27.133 276.889 26.7591 276.516C26.3863 276.145 26.2454 275.816 26.2454 275.529C26.2454 275.242 26.3863 274.913 26.7591 274.542C27.133 274.17 27.708 273.789 28.4883 273.414C30.047 272.663 32.3312 271.975 35.1899 271.393C40.8998 270.23 48.8082 269.507 57.5575 269.507C66.3068 269.507 74.2152 270.23 79.9252 271.393C82.7838 271.975 85.068 272.663 86.6267 273.414C87.4071 273.789 87.982 274.17 88.3559 274.542C88.7288 274.913 88.8696 275.242 88.8696 275.529Z" stroke="#FFC177" stroke-width="0.893086"/>
<g style="mix-blend-mode:multiply" opacity="0.5">
<ellipse cx="57.5786" cy="275.53" rx="37.6201" ry="8.28298" fill="#FF981D"/>
</g>
<path d="M99.2783 273.927H99.2905V265.431C99.2905 260.856 82.4476 257.148 61.6704 257.148C40.8932 257.148 24.0503 260.856 24.0503 265.431V273.927H24.0625C24.5774 278.403 41.2179 281.997 61.6704 281.997C82.1229 281.997 98.7634 278.403 99.2783 273.927Z" fill="#FFA318"/>
<path d="M24.1113 265.43H24.0488V273.927H24.0611C24.5759 278.403 41.2164 281.996 61.6689 281.996C82.1214 281.996 98.7619 278.403 99.2768 273.927H99.289V265.43H99.2265C98.0962 269.781 81.7139 273.233 61.6689 273.233C41.624 273.233 25.2416 269.781 24.1113 265.43Z" fill="url(#paint3_linear)"/>
<path fill-rule="evenodd" clip-rule="evenodd" d="M25.478 267.22V275.984C25.958 276.355 26.5528 276.716 27.2534 277.065V268.301C26.5528 267.952 25.9579 267.591 25.478 267.22ZM29.1989 269.136V277.9C29.7517 278.107 30.3443 278.309 30.9744 278.504V269.74C30.3443 269.545 29.7517 269.343 29.1989 269.136ZM32.9338 270.296V279.06C33.5028 279.208 34.095 279.352 34.7092 279.491V270.727C34.095 270.588 33.5028 270.445 32.9338 270.296ZM36.67 271.14V279.904C37.2462 280.016 37.8383 280.125 38.4454 280.23V271.467C37.8383 271.362 37.2462 271.253 36.67 271.14ZM40.3871 271.781V280.545C40.9674 280.633 41.5594 280.717 42.1625 280.798V272.034C41.5594 271.953 40.9674 271.869 40.3871 271.781ZM44.1121 272.278V281.041C44.695 281.109 45.2869 281.173 45.8875 281.235V272.471C45.2869 272.41 44.695 272.345 44.1121 272.278ZM47.8472 272.656V281.42C48.4319 281.47 49.0239 281.518 49.6226 281.563V272.799C49.0239 272.755 48.4319 272.707 47.8472 272.656ZM51.5695 272.931V281.695C52.1557 281.73 52.7476 281.763 53.3449 281.793V273.029C52.7476 273 52.1557 272.967 51.5695 272.931ZM55.3002 273.115V281.878C55.8875 281.9 56.4794 281.919 57.0757 281.935V273.172C56.4794 273.156 55.8875 273.137 55.3002 273.115ZM59.0269 273.213V281.976C59.6151 281.985 60.207 281.991 60.8023 281.994V273.231C60.207 273.228 59.6151 273.222 59.0269 273.213ZM62.7562 273.229V281.993C63.3516 281.989 63.9435 281.982 64.5316 281.973V273.209C63.9435 273.219 63.3516 273.226 62.7562 273.229ZM66.4881 273.165V281.929C67.0844 281.912 67.6763 281.892 68.2635 281.869V273.106C67.6763 273.129 67.0844 273.149 66.4881 273.165ZM70.2189 273.018V281.781C70.8163 281.751 71.4082 281.717 71.9943 281.68V272.917C71.4082 272.954 70.8163 272.987 70.2189 273.018ZM73.9345 272.783V281.546C74.5333 281.501 75.1253 281.452 75.7099 281.4V272.637C75.1253 272.688 74.5333 272.737 73.9345 272.783ZM77.6653 272.449V281.212C78.2659 281.15 78.8579 281.084 79.4407 281.016V272.252C78.8579 272.321 78.2659 272.387 77.6653 272.449ZM81.3905 272.005V280.768C81.9938 280.686 82.5858 280.601 83.1659 280.512V271.748C82.5858 271.837 81.9938 271.923 81.3905 272.005ZM85.1227 271.426V280.19C85.7302 280.083 86.3222 279.972 86.8981 279.857V271.094C86.3222 271.209 85.7302 271.319 85.1227 271.426ZM88.8479 270.676V279.44C89.4627 279.299 90.0549 279.152 90.6234 279.002V270.238C90.0549 270.389 89.4627 270.535 88.8479 270.676ZM92.5688 269.675V278.439C93.2004 278.239 93.793 278.033 94.3442 277.821V269.057C93.793 269.269 93.2004 269.475 92.5688 269.675ZM96.3051 268.187V276.951C97.019 276.581 97.6143 276.198 98.0805 275.803V267.076H98.0367C97.5772 267.458 96.9968 267.829 96.3051 268.187Z" fill="#FF9211"/>
<g style="mix-blend-mode:multiply">
<path fill-rule="evenodd" clip-rule="evenodd" d="M93.2014 266.158C93.4122 265.857 93.5213 265.55 93.5213 265.237C93.5213 261.664 79.3024 258.768 61.7626 258.768C44.2228 258.768 30.0039 261.664 30.0039 265.237C30.0039 265.549 30.1125 265.856 30.3225 266.156C32.5187 263.02 45.7576 260.609 61.7613 260.609C77.7681 260.609 91.0091 263.021 93.2014 266.158Z" fill="#FFC177"/>
</g>
<path d="M93.0747 265.237C93.0747 265.524 92.9338 265.853 92.561 266.224C92.1871 266.596 91.6121 266.977 90.8318 267.352C89.2731 268.103 86.9889 268.791 84.1302 269.373C78.4203 270.536 70.5119 271.259 61.7626 271.259C53.0133 271.259 45.1049 270.536 39.3949 269.373C36.5363 268.791 34.2521 268.103 32.6934 267.352C31.913 266.977 31.338 266.596 30.9641 266.224C30.5913 265.853 30.4504 265.524 30.4504 265.237C30.4504 264.95 30.5913 264.621 30.9641 264.25C31.338 263.877 31.913 263.497 32.6934 263.121C34.2521 262.371 36.5363 261.683 39.3949 261.1C45.1049 259.937 53.0133 259.215 61.7626 259.215C70.5119 259.215 78.4203 259.937 84.1302 261.1C86.9889 261.683 89.2731 262.371 90.8318 263.121C91.6121 263.497 92.1871 263.877 92.561 264.25C92.9338 264.621 93.0747 264.95 93.0747 265.237Z" stroke="#FFC177" stroke-width="0.893086"/>
<g style="mix-blend-mode:multiply" opacity="0.5">
<ellipse cx="61.7925" cy="265.246" rx="37.6201" ry="8.28298" fill="#FF981D"/>
</g>
<path d="M96.1606 263.994H96.1728V255.497C96.1728 250.922 79.3299 247.214 58.5527 247.214C37.7755 247.214 20.9326 250.922 20.9326 255.497V263.994H20.9448C21.4597 268.47 38.1002 272.063 58.5527 272.063C79.0052 272.063 95.6457 268.47 96.1606 263.994Z" fill="#FFA318"/>
<path d="M20.9966 255.497H20.9341V263.994H20.9463C21.4612 268.47 38.1017 272.063 58.5542 272.063C79.0067 272.063 95.6472 268.47 96.162 263.994H96.1743V255.497H96.1118C94.9815 259.848 78.5991 263.3 58.5542 263.3C38.5092 263.3 22.1269 259.848 20.9966 255.497Z" fill="url(#paint4_linear)"/>
<path fill-rule="evenodd" clip-rule="evenodd" d="M22.373 257.29V266.054C22.853 266.426 23.4478 266.787 24.1485 267.135V258.371C23.4478 258.023 22.853 257.662 22.373 257.29ZM26.0972 259.207V267.971C26.65 268.178 27.2426 268.38 27.8726 268.575V259.811C27.2426 259.616 26.65 259.415 26.0972 259.207ZM29.8279 260.366V269.13C30.397 269.278 30.9892 269.422 31.6034 269.561V260.797C30.9892 260.658 30.397 260.514 29.8279 260.366ZM33.5602 261.209V269.973C34.1364 270.085 34.7284 270.194 35.3356 270.3V261.536C34.7284 261.431 34.1364 261.322 33.5602 261.209ZM37.2854 261.852V270.615C37.8657 270.703 38.4577 270.787 39.0608 270.868V262.104C38.4577 262.024 37.8657 261.939 37.2854 261.852ZM41.0118 262.348V271.112C41.5947 271.179 42.1867 271.244 42.7872 271.305V262.541C42.1867 262.48 41.5947 262.416 41.0118 262.348ZM44.7425 262.726V271.489C45.3273 271.54 45.9192 271.588 46.5179 271.633V262.869C45.9192 262.825 45.3273 262.777 44.7425 262.726ZM48.4692 263.001V271.765C49.0554 271.801 49.6473 271.833 50.2446 271.863V263.1C49.6473 263.07 49.0554 263.037 48.4692 263.001ZM52.1944 263.184V271.948C52.7817 271.97 53.3736 271.989 53.9699 272.005V263.242C53.3736 263.226 52.7817 263.207 52.1944 263.184ZM55.9153 263.282V272.046C56.5035 272.055 57.0954 272.061 57.6907 272.064V263.3C57.0954 263.297 56.5035 263.291 55.9153 263.282ZM59.6504 263.299V272.063C60.2458 272.059 60.8377 272.052 61.4258 272.042V263.279C60.8377 263.289 60.2458 263.296 59.6504 263.299ZM63.3823 263.235V271.999C63.9786 271.982 64.5705 271.962 65.1577 271.939V263.176C64.5705 263.199 63.9786 263.218 63.3823 263.235ZM67.1116 263.088V271.851C67.709 271.821 68.3009 271.787 68.887 271.75V262.987C68.3009 263.024 67.709 263.057 67.1116 263.088ZM70.8342 262.852V271.615C71.433 271.57 72.025 271.521 72.6097 271.469V262.706C72.025 262.758 71.433 262.806 70.8342 262.852ZM74.565 262.518V271.281C75.1657 271.219 75.7576 271.154 76.3404 271.085V262.321C75.7576 262.39 75.1657 262.456 74.565 262.518ZM78.2902 262.074V270.837C78.8935 270.755 79.4856 270.67 80.0656 270.58V261.817C79.4856 261.906 78.8935 261.992 78.2902 262.074ZM82.0166 261.496V270.26C82.6241 270.153 83.2161 270.042 83.792 269.927V261.164C83.2161 261.278 82.6241 261.389 82.0166 261.496ZM85.7474 260.745V269.509C86.3621 269.367 86.9544 269.221 87.5228 269.07V260.307C86.9544 260.457 86.3621 260.604 85.7474 260.745ZM89.4726 259.742V268.506C90.1042 268.306 90.6969 268.099 91.248 267.887V259.123C90.6969 259.335 90.1042 259.542 89.4726 259.742ZM93.2048 258.254V267.018C93.919 266.648 94.5144 266.264 94.9802 265.868V257.146H94.9308C94.4726 257.527 93.8941 257.897 93.2048 258.254Z" fill="#FF9211"/>
<g style="mix-blend-mode:multiply">
<path fill-rule="evenodd" clip-rule="evenodd" d="M90.0902 256.223C90.2987 255.923 90.4065 255.617 90.4065 255.306C90.4065 251.734 76.1877 248.838 58.6478 248.838C41.108 248.838 26.8892 251.734 26.8892 255.306C26.8892 255.617 26.997 255.924 27.2056 256.223C29.3911 253.084 42.6356 250.671 58.6479 250.671C74.66 250.671 87.9044 253.084 90.0902 256.223Z" fill="#FFC177"/>
</g>
<path d="M89.96 255.306C89.96 255.594 89.8191 255.922 89.4463 256.293C89.0724 256.666 88.4974 257.046 87.717 257.422C86.1583 258.172 83.8741 258.861 81.0155 259.443C75.3055 260.606 67.3971 261.328 58.6478 261.328C49.8985 261.328 41.9901 260.606 36.2802 259.443C33.4215 258.861 31.1374 258.172 29.5787 257.422C28.7983 257.046 28.2233 256.666 27.8494 256.293C27.4766 255.922 27.3357 255.594 27.3357 255.306C27.3357 255.019 27.4766 254.69 27.8494 254.319C28.2233 253.947 28.7983 253.567 29.5787 253.191C31.1374 252.44 33.4215 251.752 36.2802 251.17C41.9901 250.007 49.8985 249.284 58.6478 249.284C67.3971 249.284 75.3055 250.007 81.0155 251.17C83.8741 251.752 86.1583 252.44 87.717 253.191C88.4974 253.567 89.0724 253.947 89.4463 254.319C89.8191 254.69 89.96 255.019 89.96 255.306Z" stroke="#FFC177" stroke-width="0.893086"/>
<g style="mix-blend-mode:multiply" opacity="0.5">
<ellipse cx="58.6631" cy="255.301" rx="37.6201" ry="8.28298" fill="#FF981D"/>
</g>
<path d="M100.377 253.704H100.389V245.207C100.389 240.633 83.5462 236.924 62.769 236.924C41.9918 236.924 25.1489 240.633 25.1489 245.207V253.704H25.1612C25.676 258.18 42.3165 261.773 62.769 261.773C83.2215 261.773 99.862 258.18 100.377 253.704Z" fill="#FFA318"/>
<path d="M25.208 245.202H25.1455V253.699H25.1577C25.6726 258.174 42.3131 261.768 62.7656 261.768C83.2181 261.768 99.8586 258.174 100.373 253.699H100.386V245.202H100.323C99.1929 249.553 82.8105 253.004 62.7656 253.004C42.7207 253.004 26.3383 249.553 25.208 245.202Z" fill="url(#paint5_linear)"/>
<path fill-rule="evenodd" clip-rule="evenodd" d="M26.5801 247.007V255.771C27.0605 256.141 27.6553 256.501 28.3555 256.849V248.085C27.6553 247.738 27.0605 247.378 26.5801 247.007ZM30.2958 248.917V257.681C30.8486 257.888 31.4412 258.09 32.0713 258.285V249.521C31.4412 249.326 30.8486 249.125 30.2958 248.917ZM34.0362 250.079V258.842C34.6052 258.99 35.1974 259.134 35.8116 259.273V250.509C35.1974 250.37 34.6052 250.227 34.0362 250.079ZM37.7626 250.92V259.683C38.3388 259.796 38.9309 259.905 39.538 260.01V251.247C38.9309 251.142 38.3388 251.033 37.7626 250.92ZM41.4878 251.562V260.326C42.0681 260.413 42.6601 260.498 43.2632 260.578V251.815C42.6601 251.734 42.0681 251.65 41.4878 251.562ZM45.2145 252.058V260.822C45.7974 260.89 46.3894 260.954 46.9899 261.015V252.252C46.3894 252.191 45.7974 252.126 45.2145 252.058ZM48.9397 252.436V261.199C49.5245 261.25 50.1164 261.298 50.7151 261.342V252.579C50.1164 252.534 49.5245 252.487 48.9397 252.436ZM52.6705 252.711V261.475C53.2566 261.511 53.8486 261.543 54.4459 261.573V252.81C53.8486 252.78 53.2566 252.747 52.6705 252.711ZM56.4012 252.895V261.658C56.9885 261.68 57.5804 261.699 58.1766 261.715V252.952C57.5804 252.936 56.9885 252.917 56.4012 252.895ZM60.118 252.992V261.756C60.7062 261.765 61.2981 261.771 61.8934 261.774V253.01C61.2981 253.007 60.7062 253.001 60.118 252.992ZM63.8543 253.009V261.773C64.4497 261.769 65.0416 261.762 65.6297 261.752V252.989C65.0416 252.999 64.4497 253.005 63.8543 253.009ZM67.5754 252.945V261.709C68.1717 261.692 68.7636 261.672 69.3509 261.649V252.886C68.7636 252.909 68.1717 252.929 67.5754 252.945ZM71.3103 252.798V261.561C71.9077 261.531 72.4996 261.497 73.0857 261.46V252.697C72.4996 252.733 71.9077 252.767 71.3103 252.798ZM75.0355 252.562V261.325C75.6343 261.28 76.2262 261.231 76.8109 261.179V252.415C76.2262 252.467 75.6343 252.516 75.0355 252.562ZM78.7677 252.227V260.991C79.3684 260.929 79.9603 260.863 80.5431 260.794V252.031C79.9603 252.099 79.3684 252.165 78.7677 252.227ZM82.4929 251.783V260.546C83.0963 260.465 83.6883 260.379 84.2683 260.29V251.526C83.6883 251.615 83.0963 251.701 82.4929 251.783ZM86.2193 251.205V259.969C86.8268 259.862 87.4189 259.751 87.9947 259.636V250.873C87.4189 250.987 86.8268 251.098 86.2193 251.205ZM89.9541 250.453V259.217C90.5689 259.075 91.1612 258.929 91.7296 258.778V250.014C91.1612 250.165 90.5689 250.311 89.9541 250.453ZM93.6768 249.45V258.214C94.3084 258.014 94.9011 257.807 95.4522 257.594V248.831C94.9011 249.043 94.3084 249.25 93.6768 249.45ZM97.4075 247.962V256.726C98.122 256.355 98.7174 255.97 99.1829 255.574V246.855H99.1291C98.6718 247.236 98.0948 247.605 97.4075 247.962Z" fill="#FF9211"/>
<g style="mix-blend-mode:multiply">
<path fill-rule="evenodd" clip-rule="evenodd" d="M94.2999 245.938C94.5105 245.637 94.6194 245.329 94.6194 245.017C94.6194 241.444 80.4006 238.548 62.8607 238.548C45.3209 238.548 31.1021 241.444 31.1021 245.017C31.1021 245.328 31.2101 245.634 31.419 245.934C33.614 242.798 46.8535 240.386 62.8582 240.386C78.869 240.386 92.1127 242.799 94.2999 245.938Z" fill="#FFC177"/>
</g>
<path d="M94.1729 245.017C94.1729 245.304 94.032 245.633 93.6592 246.004C93.2853 246.376 92.7103 246.756 91.9299 247.132C90.3712 247.883 88.087 248.571 85.2284 249.153C79.5184 250.316 71.61 251.039 62.8607 251.039C54.1114 251.039 46.203 250.316 40.4931 249.153C37.6344 248.571 35.3503 247.883 33.7915 247.132C33.0112 246.756 32.4362 246.376 32.0623 246.004C31.6895 245.633 31.5486 245.304 31.5486 245.017C31.5486 244.729 31.6895 244.4 32.0623 244.029C32.4362 243.657 33.0112 243.277 33.7915 242.901C35.3503 242.15 37.6344 241.462 40.4931 240.88C46.203 239.717 54.1114 238.994 62.8607 238.994C71.61 238.994 79.5184 239.717 85.2284 240.88C88.087 241.462 90.3712 242.15 91.9299 242.901C92.7103 243.277 93.2853 243.657 93.6592 244.029C94.032 244.4 94.1729 244.729 94.1729 245.017Z" stroke="#FFC177" stroke-width="0.893086"/>
<g style="mix-blend-mode:multiply" opacity="0.5">
<ellipse cx="62.8804" cy="245.017" rx="37.6201" ry="8.28298" fill="#FF981D"/>
</g>
<path d="M134.423 300.219H134.437V290.746C134.437 285.645 115.659 281.511 92.4946 281.511C69.3303 281.511 50.5522 285.645 50.5522 290.746V300.219H50.5659C51.1399 305.209 69.6923 309.215 92.4946 309.215C115.297 309.215 133.849 305.209 134.423 300.219Z" fill="#FFA318"/>
<path d="M50.6195 290.745H50.5498V300.218H50.5634C51.1375 305.208 69.6898 309.215 92.4921 309.215C115.294 309.215 133.847 305.208 134.421 300.218H134.434V290.745H134.365C133.105 295.596 114.84 299.444 92.4921 299.444C70.1442 299.444 51.8796 295.596 50.6195 290.745Z" fill="url(#paint6_linear)"/>
<path fill-rule="evenodd" clip-rule="evenodd" d="M52.1538 292.75V302.521C52.6895 302.934 53.3527 303.335 54.1332 303.722V293.952C53.3526 293.564 52.6895 293.163 52.1538 292.75ZM56.3128 294.886V304.656C56.9293 304.887 57.5899 305.111 58.2922 305.328V295.558C57.5899 295.341 56.9293 295.116 56.3128 294.886ZM60.46 296.172V305.943C61.0944 306.108 61.7546 306.268 62.4394 306.423V296.652C61.7546 296.497 61.0944 296.337 60.46 296.172ZM64.6219 297.112V306.882C65.2643 307.008 65.9244 307.129 66.6013 307.246V297.476C65.9244 297.359 65.2643 297.237 64.6219 297.112ZM68.7731 297.828V307.598C69.42 307.696 70.08 307.79 70.7525 307.88V298.109C70.08 298.019 69.42 297.925 68.7731 297.828ZM72.9295 298.381V308.151C73.5794 308.227 74.2394 308.299 74.9089 308.367V298.597C74.2394 298.528 73.5794 298.457 72.9295 298.381ZM77.0917 298.802V308.573C77.7437 308.629 78.4036 308.683 79.0711 308.732V298.962C78.4036 298.912 77.7437 298.859 77.0917 298.802ZM81.2455 299.109V308.879C81.899 308.919 82.559 308.956 83.2249 308.989V299.218C82.559 299.185 81.899 299.149 81.2455 299.109ZM85.4022 299.313V309.084C86.057 309.108 86.7169 309.129 87.3816 309.147V299.377C86.7169 299.359 86.057 299.338 85.4022 299.313ZM89.5531 299.422V309.193C90.2089 309.203 90.8688 309.209 91.5325 309.212V299.442C90.8688 299.439 90.2089 299.432 89.5531 299.422ZM93.7098 299.441V309.211C94.3736 309.207 95.0335 309.199 95.6892 309.188V299.418C95.0335 299.429 94.3736 299.437 93.7098 299.441ZM97.8662 299.369V309.14C98.531 309.121 99.191 309.099 99.8456 309.073V299.303C99.191 299.328 98.531 299.351 97.8662 299.369ZM102.019 299.205V308.975C102.685 308.941 103.345 308.904 103.998 308.863V299.093C103.345 299.133 102.685 299.171 102.019 299.205ZM106.171 298.942V308.712C106.839 308.662 107.499 308.607 108.151 308.55V298.779C107.499 298.837 106.839 298.891 106.171 298.942ZM110.338 298.569V308.339C111.007 308.27 111.667 308.197 112.317 308.12V298.349C111.667 298.426 111.007 298.5 110.338 298.569ZM114.494 298.073V307.843C115.167 307.752 115.827 307.656 116.473 307.557V297.787C115.827 297.886 115.167 297.982 114.494 298.073ZM118.652 297.428V307.198C119.329 307.079 119.989 306.956 120.631 306.828V297.057C119.989 297.185 119.329 297.309 118.652 297.428ZM122.804 296.592V306.362C123.49 306.204 124.15 306.041 124.784 305.873V296.102C124.15 296.271 123.49 296.434 122.804 296.592ZM126.961 295.472V305.242C127.665 305.019 128.326 304.789 128.941 304.552V294.781C128.326 295.018 127.665 295.248 126.961 295.472ZM131.112 293.816V303.587C131.908 303.174 132.572 302.746 133.091 302.305V292.578H133.039C132.527 293.004 131.882 293.417 131.112 293.816Z" fill="#FF9211"/>
<g style="mix-blend-mode:multiply">
<path fill-rule="evenodd" clip-rule="evenodd" d="M127.652 291.559C127.885 291.224 128.006 290.882 128.006 290.534C128.006 286.551 112.154 283.322 92.5989 283.322C73.0439 283.322 57.1914 286.551 57.1914 290.534C57.1914 290.883 57.3128 291.225 57.5473 291.561C59.9901 288.063 74.7531 285.373 92.6001 285.373C110.444 285.373 125.205 288.062 127.652 291.559Z" fill="#FFC177"/>
</g>
<path d="M127.509 290.534C127.509 290.854 127.351 291.221 126.936 291.635C126.519 292.05 125.878 292.474 125.008 292.893C123.27 293.73 120.723 294.497 117.536 295.146C111.17 296.442 102.353 297.248 92.5989 297.248C82.8444 297.248 74.0274 296.442 67.6614 295.146C64.4743 294.497 61.9277 293.73 60.1899 292.893C59.3199 292.474 58.6788 292.05 58.262 291.635C57.8463 291.221 57.6893 290.854 57.6893 290.534C57.6893 290.214 57.8463 289.847 58.262 289.434C58.6788 289.019 59.3199 288.594 60.1899 288.175C61.9277 287.339 64.4743 286.572 67.6614 285.922C74.0274 284.626 82.8444 283.82 92.5989 283.82C102.353 283.82 111.17 284.626 117.536 285.922C120.723 286.572 123.27 287.339 125.008 288.175C125.878 288.594 126.519 289.019 126.936 289.434C127.351 289.847 127.509 290.214 127.509 290.534Z" stroke="#FFC177" stroke-width="0.995694"/>
<g style="mix-blend-mode:multiply" opacity="0.5">
<ellipse cx="92.6147" cy="290.536" rx="41.9424" ry="9.23462" fill="#FF981D"/>
</g>
<path d="M139.116 288.749H139.13V279.276C139.13 274.176 120.352 270.042 97.1875 270.042C74.0231 270.042 55.2451 274.176 55.2451 279.276V288.749H55.2587C55.8328 293.74 74.3851 297.746 97.1875 297.746C119.99 297.746 138.542 293.74 139.116 288.749Z" fill="#FFA318"/>
<path d="M55.305 279.276H55.2354V288.749H55.249C55.823 293.739 74.3754 297.745 97.1777 297.745C119.98 297.745 138.532 293.739 139.106 288.749H139.12V279.276H139.05C137.79 284.127 119.526 287.975 97.1777 287.975C74.8298 287.975 56.5652 284.127 55.305 279.276Z" fill="url(#paint7_linear)"/>
<path fill-rule="evenodd" clip-rule="evenodd" d="M56.8315 281.274V291.045C57.3667 291.459 58.0298 291.862 58.8109 292.25V282.479C58.0298 282.091 57.3667 281.689 56.8315 281.274ZM60.9935 283.416V293.186C61.6099 293.417 62.2705 293.641 62.9729 293.859V284.088C62.2705 283.871 61.6099 283.646 60.9935 283.416ZM65.1502 284.706V294.476C65.7846 294.641 66.4449 294.801 67.1296 294.956V285.186C66.4449 285.031 65.7846 284.871 65.1502 284.706ZM69.297 285.642V295.412C69.9394 295.538 70.5995 295.66 71.2764 295.777V286.007C70.5995 285.89 69.9394 285.768 69.297 285.642ZM73.4592 286.36V296.131C74.1062 296.228 74.7662 296.322 75.4386 296.412V286.642C74.7662 286.552 74.1062 286.458 73.4592 286.36ZM77.6157 286.914V296.684C78.2655 296.76 78.9255 296.832 79.5951 296.9V287.129C78.9255 287.061 78.2655 286.989 77.6157 286.914ZM81.7668 287.334V297.105C82.4188 297.161 83.0788 297.215 83.7462 297.264V287.494C83.0788 287.444 82.4188 287.391 81.7668 287.334ZM85.9247 287.641V297.412C86.5782 297.452 87.2382 297.488 87.9041 297.521V287.751C87.2382 287.718 86.5782 287.681 85.9247 287.641ZM90.0759 287.846V297.616C90.7306 297.641 91.3906 297.662 92.0553 297.68V287.909C91.3906 287.892 90.7306 287.87 90.0759 287.846ZM94.2378 287.955V297.726C94.8936 297.736 95.5535 297.742 96.2172 297.745V287.975C95.5535 287.972 94.8936 287.965 94.2378 287.955ZM98.396 287.974V297.744C99.0598 297.74 99.7197 297.732 100.375 297.721V287.951C99.7197 287.962 99.0598 287.97 98.396 287.974ZM102.552 287.902V297.673C103.217 297.654 103.877 297.632 104.532 297.606V287.836C103.877 287.862 103.217 287.884 102.552 287.902ZM106.704 287.738V297.509C107.37 297.475 108.03 297.437 108.683 297.396V287.626C108.03 287.667 107.37 287.704 106.704 287.738ZM110.861 287.475V297.245C111.529 297.195 112.189 297.14 112.841 297.082V287.312C112.189 287.37 111.529 287.424 110.861 287.475ZM115.014 287.103V296.874C115.684 296.804 116.344 296.731 116.993 296.654V286.884C116.344 286.961 115.684 287.034 115.014 287.103ZM119.18 286.606V296.377C119.853 296.285 120.513 296.19 121.16 296.09V286.32C120.513 286.419 119.853 286.515 119.18 286.606ZM123.331 285.963V295.733C124.009 295.614 124.669 295.491 125.311 295.363V285.592C124.669 285.72 124.009 285.844 123.331 285.963ZM127.488 285.126V294.896C128.173 294.739 128.834 294.576 129.467 294.407V284.637C128.834 284.805 128.173 284.968 127.488 285.126ZM131.64 284.008V293.778C132.345 293.555 133.005 293.325 133.62 293.088V283.318C133.005 283.554 132.345 283.785 131.64 284.008ZM135.797 282.351V292.122C136.593 291.71 137.256 291.282 137.776 290.841V281.117H137.721C137.21 281.541 136.565 281.953 135.797 282.351Z" fill="#FF9211"/>
<g style="mix-blend-mode:multiply">
<path fill-rule="evenodd" clip-rule="evenodd" d="M132.339 280.092C132.572 279.757 132.693 279.415 132.693 279.067C132.693 275.084 116.84 271.855 97.2854 271.855C77.7304 271.855 61.8779 275.084 61.8779 279.067C61.8779 279.416 61.9991 279.758 62.2334 280.093C64.6752 276.595 79.4387 273.906 97.2865 273.906C115.132 273.906 129.893 276.595 132.339 280.092Z" fill="#FFC177"/>
</g>
<path d="M132.195 279.067C132.195 279.388 132.038 279.754 131.622 280.168C131.205 280.583 130.564 281.007 129.694 281.426C127.957 282.263 125.41 283.03 122.223 283.679C115.857 284.976 107.04 285.781 97.2854 285.781C87.5309 285.781 78.7139 284.976 72.3479 283.679C69.1608 283.03 66.6142 282.263 64.8764 281.426C64.0064 281.007 63.3654 280.583 62.9485 280.168C62.5329 279.754 62.3758 279.388 62.3758 279.067C62.3758 278.747 62.5329 278.38 62.9485 277.967C63.3654 277.552 64.0064 277.128 64.8764 276.709C66.6142 275.872 69.1608 275.105 72.3479 274.456C78.7139 273.159 87.5309 272.353 97.2854 272.353C107.04 272.353 115.857 273.159 122.223 274.456C125.41 275.105 127.957 275.872 129.694 276.709C130.564 277.128 131.205 277.552 131.622 277.967C132.038 278.38 132.195 278.747 132.195 279.067Z" stroke="#FFC177" stroke-width="0.995694"/>
<g style="mix-blend-mode:multiply" opacity="0.5">
<ellipse cx="97.3101" cy="279.064" rx="41.9424" ry="9.23462" fill="#FF981D"/>
</g>
<path d="M135.632 277.666H135.646V268.193C135.646 263.093 116.868 258.958 93.7036 258.958C70.5393 258.958 51.7612 263.093 51.7612 268.193V277.666H51.7749C52.3489 282.656 70.9012 286.662 93.7036 286.662C116.506 286.662 135.058 282.656 135.632 277.666Z" fill="#FFA318"/>
<path d="M51.8309 268.192H51.7612V277.665H51.7749C52.3489 282.655 70.9012 286.661 93.7036 286.661C116.506 286.661 135.058 282.655 135.632 277.665H135.646V268.192H135.576C134.316 273.043 116.052 276.891 93.7036 276.891C71.3556 276.891 53.0911 273.043 51.8309 268.192Z" fill="url(#paint8_linear)"/>
<path fill-rule="evenodd" clip-rule="evenodd" d="M53.3667 270.196V279.967C53.9024 280.38 54.5655 280.781 55.3461 281.169V271.398C54.5655 271.011 53.9024 270.609 53.3667 270.196ZM57.516 272.328V282.099C58.1324 282.33 58.793 282.554 59.4954 282.772V273.001C58.793 272.784 58.1324 272.559 57.516 272.328ZM61.6684 273.618V283.388C62.3028 283.553 62.963 283.713 63.6478 283.868V274.098C62.963 273.943 62.3028 273.783 61.6684 273.618ZM65.821 274.555V284.326C66.4634 284.452 67.1235 284.573 67.8004 284.691V274.92C67.1235 274.803 66.4634 274.681 65.821 274.555ZM69.983 275.274V285.044C70.6299 285.142 71.2899 285.236 71.9624 285.326V275.555C71.2899 275.465 70.6299 275.371 69.983 275.274ZM74.1437 275.828V285.598C74.7936 285.674 75.4536 285.746 76.1231 285.814V276.043C75.4536 275.975 74.7936 275.903 74.1437 275.828ZM78.3004 276.249V286.019C78.9524 286.076 79.6123 286.129 80.2798 286.178V276.408C79.6123 276.359 78.9524 276.305 78.3004 276.249ZM82.4528 276.555V286.326C83.1063 286.366 83.7662 286.402 84.4322 286.435V276.665C83.7662 276.632 83.1063 276.595 82.4528 276.555ZM86.6095 276.76V286.53C87.2642 286.555 87.9242 286.576 88.5889 286.594V276.823C87.9242 276.805 87.2642 276.784 86.6095 276.76ZM90.7618 276.869V286.639C91.4176 286.649 92.0775 286.656 92.7412 286.659V276.889C92.0775 276.886 91.4176 276.879 90.7618 276.869ZM94.9185 276.887V286.658C95.5823 286.654 96.2422 286.646 96.8979 286.635V276.865C96.2422 276.876 95.5823 276.883 94.9185 276.887ZM99.0764 276.816V286.586C99.7412 286.568 100.401 286.546 101.056 286.52V276.75C100.401 276.775 99.7412 276.797 99.0764 276.816ZM103.237 276.652V286.422C103.903 286.388 104.563 286.35 105.217 286.309V276.539C104.563 276.58 103.903 276.617 103.237 276.652ZM107.394 276.388V286.158C108.061 286.108 108.721 286.053 109.373 285.995V276.225C108.721 276.283 108.061 276.337 107.394 276.388ZM111.546 276.016V285.787C112.216 285.717 112.876 285.644 113.526 285.567V275.797C112.876 275.874 112.216 275.947 111.546 276.016ZM115.703 275.52V285.291C116.375 285.199 117.035 285.104 117.682 285.005V275.234C117.035 275.333 116.375 275.429 115.703 275.52ZM119.855 274.877V284.647C120.533 284.528 121.193 284.404 121.835 284.276V274.506C121.193 274.634 120.533 274.758 119.855 274.877ZM124.012 274.04V283.81C124.697 283.653 125.357 283.49 125.991 283.321V273.551C125.357 273.719 124.697 273.882 124.012 274.04ZM128.178 272.917V282.688C128.882 282.465 129.543 282.234 130.157 281.997V272.227C129.543 272.464 128.882 272.694 128.178 272.917ZM132.33 271.261V281.031C133.127 280.618 133.791 280.189 134.31 279.748V270.028H134.249C133.74 270.452 133.096 270.863 132.33 271.261Z" fill="#FF9211"/>
<g style="mix-blend-mode:multiply">
<path fill-rule="evenodd" clip-rule="evenodd" d="M128.865 269.001C129.098 268.667 129.219 268.325 129.219 267.978C129.219 263.995 113.366 260.766 93.8113 260.766C74.2563 260.766 58.4038 263.995 58.4038 267.978C58.4038 268.326 58.5247 268.668 58.7584 269.003C61.197 265.504 75.9622 262.814 93.8126 262.814C111.66 262.814 126.423 265.503 128.865 269.001Z" fill="#FFC177"/>
</g>
<path d="M128.721 267.978C128.721 268.298 128.564 268.665 128.148 269.079C127.731 269.494 127.09 269.918 126.22 270.337C124.482 271.174 121.936 271.941 118.749 272.59C112.383 273.887 103.566 274.692 93.8113 274.692C84.0568 274.692 75.2398 273.887 68.8738 272.59C65.6867 271.941 63.1401 271.174 61.4023 270.337C60.5323 269.918 59.8912 269.494 59.4744 269.079C59.0587 268.665 58.9017 268.298 58.9017 267.978C58.9017 267.658 59.0587 267.291 59.4744 266.878C59.8912 266.463 60.5323 266.039 61.4023 265.62C63.1401 264.783 65.6867 264.016 68.8738 263.366C75.2398 262.07 84.0568 261.264 93.8113 261.264C103.566 261.264 112.383 262.07 118.749 263.366C121.936 264.016 124.482 264.783 126.22 265.62C127.09 266.039 127.731 266.463 128.148 266.878C128.564 267.291 128.721 267.658 128.721 267.978Z" stroke="#FFC177" stroke-width="0.995694"/>
<g style="mix-blend-mode:multiply" opacity="0.5">
<ellipse cx="93.8315" cy="267.984" rx="41.9424" ry="9.23462" fill="#FF981D"/>
</g>
<path d="M140.329 266.202H140.343V256.729C140.343 251.629 121.565 247.495 98.4003 247.495C75.236 247.495 56.458 251.629 56.458 256.729V266.202H56.4716C57.0457 271.193 75.598 275.199 98.4003 275.199C121.203 275.199 139.755 271.193 140.329 266.202Z" fill="#FFA318"/>
<path d="M56.5306 256.729H56.4609V266.202H56.4746C57.0486 271.192 75.601 275.198 98.4033 275.198C121.206 275.198 139.758 271.192 140.332 266.202H140.346V256.729H140.276C139.016 261.58 120.751 265.428 98.4033 265.428C76.0553 265.428 57.7908 261.58 56.5306 256.729Z" fill="url(#paint9_linear)"/>
<path fill-rule="evenodd" clip-rule="evenodd" d="M58.0566 258.717V268.488C58.5914 268.903 59.2545 269.306 60.036 269.695V259.924C59.2545 259.535 58.5914 259.132 58.0566 258.717ZM62.2285 260.865V270.635C62.8449 270.866 63.5056 271.09 64.2079 271.308V261.537C63.5056 261.32 62.8449 261.096 62.2285 260.865ZM66.3812 262.153V271.924C67.0156 272.089 67.6758 272.249 68.3606 272.404V262.633C67.6758 262.479 67.0156 262.319 66.3812 262.153ZM70.5239 263.089V272.859C71.1663 272.985 71.8264 273.107 72.5033 273.224V263.454C71.8264 263.337 71.1663 263.215 70.5239 263.089ZM74.6899 263.808V273.578C75.3369 273.676 75.9969 273.77 76.6693 273.86V264.09C75.9969 264 75.3369 263.906 74.6899 263.808ZM78.8481 264.362V274.132C79.498 274.208 80.158 274.28 80.8275 274.348V264.577C80.158 264.509 79.498 264.437 78.8481 264.362ZM82.999 264.782V274.553C83.6509 274.609 84.3109 274.663 84.9784 274.712V264.942C84.3109 264.892 83.6509 264.839 82.999 264.782ZM87.1557 265.089V274.86C87.8092 274.9 88.4691 274.936 89.1351 274.969V265.199C88.4691 265.166 87.8092 265.129 87.1557 265.089ZM91.3136 265.294V275.064C91.9683 275.089 92.6282 275.11 93.293 275.128V265.358C92.6282 265.34 91.9683 265.319 91.3136 265.294ZM95.4647 265.403V275.174C96.1205 275.184 96.7804 275.19 97.4441 275.194V265.423C96.7804 265.42 96.1205 265.413 95.4647 265.403ZM99.6171 265.422V275.192C100.281 275.188 100.941 275.181 101.596 275.17V265.399C100.941 265.41 100.281 265.418 99.6171 265.422ZM103.779 265.351V275.121C104.444 275.102 105.104 275.08 105.759 275.055V265.284C105.104 265.31 104.444 265.332 103.779 265.351ZM107.94 265.186V274.957C108.606 274.922 109.266 274.885 109.919 274.844V265.074C109.266 265.115 108.606 265.152 107.94 265.186ZM112.087 264.924V274.694C112.755 274.643 113.414 274.589 114.066 274.531V264.761C113.414 264.819 112.755 264.873 112.087 264.924ZM116.249 264.551V274.322C116.919 274.252 117.579 274.179 118.228 274.102V264.332C117.579 264.409 116.919 264.482 116.249 264.551ZM120.397 264.057V273.827C121.07 273.736 121.73 273.64 122.377 273.541V263.77C121.73 263.87 121.07 263.965 120.397 264.057ZM124.554 263.413V273.183C125.231 273.064 125.891 272.94 126.533 272.813V263.042C125.891 263.17 125.231 263.294 124.554 263.413ZM128.72 262.574V272.344C129.406 272.187 130.066 272.024 130.7 271.856V262.085C130.066 262.253 129.406 262.416 128.72 262.574ZM132.867 261.458V271.228C133.571 271.005 134.232 270.775 134.846 270.538V260.768C134.232 261.005 133.571 261.235 132.867 261.458ZM137.029 259.799V269.57C137.825 269.158 138.489 268.73 139.009 268.289V258.562H138.956C138.445 258.987 137.799 259.401 137.029 259.799Z" fill="#FF9211"/>
<g style="mix-blend-mode:multiply">
<path fill-rule="evenodd" clip-rule="evenodd" d="M133.561 257.544C133.796 257.209 133.917 256.866 133.917 256.518C133.917 252.535 118.065 249.306 98.5095 249.306C78.9545 249.306 63.1021 252.535 63.1021 256.518C63.1021 256.866 63.2229 257.208 63.4566 257.542C65.9033 254.046 80.6642 251.357 98.508 251.357C116.356 251.357 131.119 254.047 133.561 257.544Z" fill="#FFC177"/>
</g>
<path d="M133.419 256.518C133.419 256.838 133.262 257.205 132.846 257.618C132.43 258.033 131.789 258.457 130.919 258.876C129.181 259.713 126.634 260.48 123.447 261.129C117.081 262.426 108.264 263.232 98.5095 263.232C88.755 263.232 79.938 262.426 73.572 261.129C70.3849 260.48 67.8383 259.713 66.1005 258.876C65.2305 258.457 64.5895 258.033 64.1726 257.618C63.757 257.205 63.5999 256.838 63.5999 256.518C63.5999 256.198 63.757 255.831 64.1726 255.417C64.5895 255.002 65.2305 254.578 66.1005 254.159C67.8383 253.322 70.3849 252.555 73.572 251.906C79.938 250.609 88.755 249.804 98.5095 249.804C108.264 249.804 117.081 250.609 123.447 251.906C126.634 252.555 129.181 253.322 130.919 254.159C131.789 254.578 132.43 255.002 132.846 255.417C133.262 255.831 133.419 256.198 133.419 256.518Z" stroke="#FFC177" stroke-width="0.995694"/>
<g style="mix-blend-mode:multiply" opacity="0.5">
<ellipse cx="98.5327" cy="256.514" rx="41.9424" ry="9.23462" fill="#FF981D"/>
</g>
<path d="M425.165 300.219H425.178V290.746C425.178 285.645 406.4 281.511 383.236 281.511C360.071 281.511 341.293 285.645 341.293 290.746V300.219H341.307C341.881 305.209 360.433 309.215 383.236 309.215C406.038 309.215 424.59 305.209 425.165 300.219Z" fill="#FFA318"/>
<path d="M341.363 290.745H341.293V300.218H341.307C341.881 305.208 360.433 309.215 383.236 309.215C406.038 309.215 424.59 305.208 425.165 300.218H425.178V290.745H425.108C423.848 295.596 405.584 299.444 383.236 299.444C360.888 299.444 342.623 295.596 341.363 290.745Z" fill="url(#paint10_linear)"/>
<path fill-rule="evenodd" clip-rule="evenodd" d="M342.89 292.738V302.509C343.425 302.924 344.088 303.326 344.869 303.715V293.944C344.088 293.556 343.425 293.153 342.89 292.738ZM347.054 294.882V304.653C347.671 304.884 348.331 305.108 349.034 305.326V295.555C348.331 295.337 347.671 295.113 347.054 294.882ZM351.211 296.172V305.943C351.845 306.108 352.505 306.268 353.19 306.423V296.652C352.505 296.497 351.845 296.337 351.211 296.172ZM355.363 297.11V306.88C356.006 307.006 356.666 307.128 357.343 307.245V297.474C356.666 297.357 356.006 297.236 355.363 297.11ZM359.521 297.827V307.598C360.168 307.695 360.828 307.789 361.501 307.879V298.109C360.828 298.019 360.168 297.925 359.521 297.827ZM363.677 298.381V308.151C364.326 308.226 364.986 308.298 365.656 308.367V298.596C364.986 298.528 364.326 298.456 363.677 298.381ZM367.829 298.801V308.572C368.481 308.628 369.141 308.682 369.808 308.731V298.961C369.141 298.911 368.481 298.858 367.829 298.801ZM371.991 299.109V308.879C372.645 308.919 373.305 308.955 373.971 308.989V299.218C373.305 299.185 372.645 299.149 371.991 299.109ZM376.142 299.313V309.083C376.797 309.108 377.457 309.129 378.121 309.147V299.376C377.457 299.359 376.797 299.337 376.142 299.313ZM380.3 299.422V309.192C380.956 309.202 381.616 309.209 382.279 309.212V299.442C381.616 299.439 380.956 299.432 380.3 299.422ZM384.451 299.441V309.211C385.115 309.207 385.775 309.199 386.43 309.189V299.418C385.775 299.429 385.115 299.437 384.451 299.441ZM388.613 299.369V309.14C389.278 309.121 389.938 309.099 390.593 309.073V299.303C389.938 299.329 389.278 299.351 388.613 299.369ZM392.762 299.206V308.976C393.428 308.942 394.088 308.904 394.741 308.863V299.093C394.088 299.134 393.428 299.171 392.762 299.206ZM396.918 298.942V308.713C397.586 308.662 398.246 308.608 398.897 308.55V298.78C398.246 298.837 397.586 298.892 396.918 298.942ZM401.084 298.569V308.34C401.754 308.27 402.414 308.197 403.064 308.12V298.35C402.414 298.427 401.754 298.5 401.084 298.569ZM405.237 298.074V307.845C405.909 307.753 406.569 307.658 407.216 307.558V297.788C406.569 297.887 405.909 297.983 405.237 298.074ZM409.388 297.431V307.201C410.065 307.082 410.725 306.959 411.367 306.831V297.06C410.725 297.188 410.065 297.312 409.388 297.431ZM413.55 296.593V306.363C414.235 306.206 414.896 306.042 415.529 305.874V296.104C414.896 296.272 414.235 296.435 413.55 296.593ZM417.701 295.475V305.246C418.405 305.023 419.066 304.793 419.68 304.556V294.785C419.066 295.022 418.405 295.252 417.701 295.475ZM421.859 293.818V303.589C422.655 303.177 423.319 302.749 423.838 302.308V292.578H423.79C423.277 293.005 422.63 293.419 421.859 293.818Z" fill="#FF9211"/>
<g style="mix-blend-mode:multiply">
<path fill-rule="evenodd" clip-rule="evenodd" d="M418.395 291.56C418.629 291.225 418.75 290.882 418.75 290.534C418.75 286.551 402.898 283.322 383.343 283.322C363.788 283.322 347.935 286.551 347.935 290.534C347.935 290.882 348.056 291.225 348.291 291.56C350.735 288.063 365.497 285.373 383.343 285.373C401.188 285.373 415.95 288.062 418.395 291.56Z" fill="#FFC177"/>
</g>
<path d="M418.252 290.534C418.252 290.854 418.095 291.221 417.679 291.635C417.263 292.05 416.622 292.474 415.752 292.893C414.014 293.73 411.467 294.497 408.28 295.146C401.914 296.442 393.097 297.248 383.343 297.248C373.588 297.248 364.771 296.442 358.405 295.146C355.218 294.497 352.671 293.73 350.934 292.893C350.064 292.474 349.422 292.05 349.006 291.635C348.59 291.221 348.433 290.854 348.433 290.534C348.433 290.214 348.59 289.847 349.006 289.434C349.422 289.019 350.064 288.594 350.934 288.175C352.671 287.339 355.218 286.572 358.405 285.922C364.771 284.626 373.588 283.82 383.343 283.82C393.097 283.82 401.914 284.626 408.28 285.922C411.467 286.572 414.014 287.339 415.752 288.175C416.622 288.594 417.263 289.019 417.679 289.434C418.095 289.847 418.252 290.214 418.252 290.534Z" stroke="#FFC177" stroke-width="0.995694"/>
<g style="mix-blend-mode:multiply" opacity="0.5">
<ellipse cx="383.365" cy="290.536" rx="41.9424" ry="9.23462" fill="#FF981D"/>
</g>
<path d="M429.863 288.749H429.877V279.276C429.877 274.176 411.099 270.042 387.935 270.042C364.77 270.042 345.992 274.176 345.992 279.276V288.749H346.006C346.58 293.74 365.132 297.746 387.935 297.746C410.737 297.746 429.289 293.74 429.863 288.749Z" fill="#FFA318"/>
<path d="M346.061 279.276H345.992V288.749H346.005C346.579 293.739 365.132 297.745 387.934 297.745C410.736 297.745 429.289 293.739 429.863 288.749H429.876V279.276H429.807C428.547 284.127 410.282 287.975 387.934 287.975C365.586 287.975 347.322 284.127 346.061 279.276Z" fill="url(#paint11_linear)"/>
<path fill-rule="evenodd" clip-rule="evenodd" d="M347.592 281.278V291.048C348.127 291.462 348.79 291.864 349.571 292.252V282.481C348.79 282.093 348.127 281.691 347.592 281.278ZM351.754 283.417V293.188C352.37 293.418 353.031 293.643 353.733 293.86V284.09C353.031 283.872 352.37 283.648 351.754 283.417ZM355.902 284.705V294.475C356.536 294.64 357.197 294.8 357.881 294.955V285.185C357.197 285.03 356.536 284.87 355.902 284.705ZM360.063 285.644V295.414C360.705 295.54 361.365 295.662 362.042 295.779V286.008C361.365 285.891 360.705 285.77 360.063 285.644ZM364.221 286.361V296.131C364.868 296.229 365.528 296.323 366.2 296.413V286.643C365.528 286.553 364.868 286.459 364.221 286.361ZM368.372 286.914V296.684C369.022 296.76 369.682 296.832 370.351 296.9V287.129C369.682 287.061 369.022 286.989 368.372 286.914ZM372.534 287.335V297.106C373.186 297.162 373.846 297.215 374.513 297.265V287.495C373.846 287.445 373.186 287.392 372.534 287.335ZM376.689 287.642V297.412C377.343 297.452 378.002 297.489 378.668 297.522V287.751C378.002 287.718 377.343 287.682 376.689 287.642ZM380.847 287.846V297.617C381.502 297.641 382.162 297.662 382.827 297.68V287.91C382.162 287.892 381.502 287.871 380.847 287.846ZM385.001 287.955V297.726C385.657 297.736 386.317 297.742 386.98 297.746V287.975C386.317 287.972 385.657 287.965 385.001 287.955ZM389.156 287.974V297.744C389.82 297.74 390.48 297.732 391.135 297.721V287.951C390.48 287.962 389.82 287.97 389.156 287.974ZM393.314 287.902V297.673C393.979 297.654 394.639 297.632 395.294 297.606V287.836C394.639 287.861 393.979 287.884 393.314 287.902ZM397.465 287.738V297.508C398.131 297.474 398.791 297.437 399.444 297.396V287.625C398.791 287.666 398.131 287.704 397.465 287.738ZM401.627 287.474V297.245C402.295 297.194 402.955 297.139 403.607 297.082V287.311C402.955 287.369 402.295 287.423 401.627 287.474ZM405.784 287.102V296.872C406.453 296.803 407.113 296.73 407.763 296.653V286.882C407.113 286.959 406.453 287.033 405.784 287.102ZM409.936 286.606V296.377C410.609 296.285 411.269 296.19 411.916 296.09V286.32C411.269 286.419 410.609 286.515 409.936 286.606ZM414.083 285.964V295.734C414.76 295.615 415.42 295.491 416.063 295.363V285.593C415.42 285.721 414.76 285.844 414.083 285.964ZM418.245 285.126V294.896C418.931 294.738 419.591 294.575 420.225 294.407V284.637C419.591 284.805 418.931 284.968 418.245 285.126ZM422.407 284.004V293.775C423.112 293.552 423.772 293.321 424.387 293.084V283.314C423.772 283.551 423.112 283.781 422.407 284.004ZM426.564 282.346V292.116C427.361 291.703 428.024 291.274 428.543 290.832V281.117H428.477C427.968 281.539 427.327 281.95 426.564 282.346Z" fill="#FF9211"/>
<g style="mix-blend-mode:multiply">
<path fill-rule="evenodd" clip-rule="evenodd" d="M423.079 280.093C423.313 279.758 423.434 279.416 423.434 279.067C423.434 275.084 407.582 271.855 388.027 271.855C368.472 271.855 352.619 275.084 352.619 279.067C352.619 279.415 352.74 279.757 352.973 280.092C355.419 276.594 370.18 273.906 388.025 273.906C405.873 273.906 420.637 276.595 423.079 280.093Z" fill="#FFC177"/>
</g>
<path d="M422.936 279.067C422.936 279.388 422.779 279.754 422.364 280.168C421.947 280.583 421.306 281.007 420.436 281.426C418.698 282.263 416.151 283.03 412.964 283.679C406.598 284.976 397.781 285.781 388.027 285.781C378.272 285.781 369.455 284.976 363.089 283.679C359.902 283.03 357.355 282.263 355.618 281.426C354.748 281.007 354.107 280.583 353.69 280.168C353.274 279.754 353.117 279.388 353.117 279.067C353.117 278.747 353.274 278.38 353.69 277.967C354.107 277.552 354.748 277.128 355.618 276.709C357.355 275.872 359.902 275.105 363.089 274.456C369.455 273.159 378.272 272.353 388.027 272.353C397.781 272.353 406.598 273.159 412.964 274.456C416.151 275.105 418.698 275.872 420.436 276.709C421.306 277.128 421.947 277.552 422.364 277.967C422.779 278.38 422.936 278.747 422.936 279.067Z" stroke="#FFC177" stroke-width="0.995694"/>
<g style="mix-blend-mode:multiply" opacity="0.5">
<ellipse cx="388.062" cy="279.064" rx="41.9424" ry="9.23462" fill="#FF981D"/>
</g>
<path d="M426.387 277.666H426.401V268.193C426.401 263.093 407.623 258.958 384.458 258.958C361.294 258.958 342.516 263.093 342.516 268.193V277.666H342.53C343.104 282.656 361.656 286.662 384.458 286.662C407.261 286.662 425.813 282.656 426.387 277.666Z" fill="#FFA318"/>
<path d="M342.585 268.192H342.516V277.665H342.529C343.103 282.655 361.656 286.661 384.458 286.661C407.26 286.661 425.813 282.655 426.387 277.665H426.4V268.192H426.331C425.07 273.043 406.806 276.891 384.458 276.891C362.11 276.891 343.845 273.043 342.585 268.192Z" fill="url(#paint12_linear)"/>
<path fill-rule="evenodd" clip-rule="evenodd" d="M344.12 270.194V279.964C344.655 280.378 345.318 280.78 346.099 281.167V271.396C345.318 271.009 344.655 270.607 344.12 270.194ZM348.277 272.33V282.101C348.894 282.332 349.554 282.556 350.257 282.773V273.003C349.554 272.785 348.894 272.561 348.277 272.33ZM352.43 273.619V283.389C353.064 283.555 353.724 283.715 354.409 283.869V274.099C353.724 273.944 353.064 273.784 352.43 273.619ZM356.585 274.557V284.327C357.227 284.453 357.888 284.575 358.564 284.692V274.922C357.888 274.804 357.227 274.683 356.585 274.557ZM360.739 275.274V285.044C361.386 285.142 362.046 285.236 362.718 285.326V275.555C362.046 275.465 361.386 275.371 360.739 275.274ZM364.901 275.828V285.598C365.551 285.674 366.211 285.746 366.88 285.814V276.043C366.211 275.975 365.551 275.903 364.901 275.828ZM369.057 276.249V286.019C369.709 286.076 370.369 286.129 371.037 286.179V276.408C370.369 276.359 369.709 276.305 369.057 276.249ZM373.214 276.556V286.326C373.868 286.366 374.528 286.402 375.194 286.435V276.665C374.528 276.632 373.868 276.596 373.214 276.556ZM377.372 276.76V286.53C378.027 286.555 378.687 286.576 379.351 286.594V276.823C378.687 276.806 378.027 276.784 377.372 276.76ZM381.523 276.869V286.639C382.179 286.649 382.839 286.656 383.502 286.659V276.889C382.839 276.886 382.179 276.879 381.523 276.869ZM385.68 276.887V286.658C386.343 286.653 387.003 286.646 387.659 286.635V276.865C387.003 276.876 386.343 276.883 385.68 276.887ZM389.842 276.816V286.586C390.507 286.567 391.167 286.545 391.821 286.52V276.749C391.167 276.775 390.507 276.797 389.842 276.816ZM393.994 276.652V286.422C394.66 286.388 395.32 286.35 395.974 286.309V276.539C395.32 276.58 394.66 276.617 393.994 276.652ZM398.155 276.388V286.158C398.823 286.107 399.483 286.053 400.134 285.995V276.225C399.483 276.283 398.823 276.337 398.155 276.388ZM402.302 276.016V285.787C402.971 285.717 403.631 285.644 404.281 285.567V275.797C403.631 275.874 402.971 275.947 402.302 276.016ZM406.46 275.52V285.291C407.132 285.199 407.792 285.104 408.439 285.004V275.234C407.792 275.333 407.132 275.429 406.46 275.52ZM410.616 274.876V284.646C411.294 284.527 411.954 284.403 412.596 284.275V274.505C411.954 274.633 411.294 274.757 410.616 274.876ZM414.769 274.04V283.81C415.454 283.652 416.114 283.489 416.748 283.321V273.551C416.114 273.719 415.454 273.882 414.769 274.04ZM418.935 272.917V282.688C419.639 282.464 420.3 282.234 420.914 281.997V272.226C420.3 272.463 419.639 272.694 418.935 272.917ZM423.082 271.263V281.034C423.878 280.621 424.542 280.193 425.061 279.752V270.028H425.005C424.494 270.452 423.85 270.865 423.082 271.263Z" fill="#FF9211"/>
<g style="mix-blend-mode:multiply">
<path fill-rule="evenodd" clip-rule="evenodd" d="M419.605 269.003C419.839 268.668 419.96 268.326 419.96 267.978C419.96 263.995 404.107 260.766 384.552 260.766C364.997 260.766 349.145 263.995 349.145 267.978C349.145 268.325 349.265 268.667 349.498 269.001C351.941 265.503 366.704 262.814 384.55 262.814C402.401 262.814 417.167 265.504 419.605 269.003Z" fill="#FFC177"/>
</g>
<path d="M419.462 267.978C419.462 268.298 419.305 268.665 418.889 269.079C418.472 269.494 417.831 269.918 416.961 270.337C415.223 271.174 412.677 271.941 409.49 272.59C403.124 273.887 394.307 274.692 384.552 274.692C374.797 274.692 365.98 273.887 359.615 272.59C356.427 271.941 353.881 271.174 352.143 270.337C351.273 269.918 350.632 269.494 350.215 269.079C349.799 268.665 349.642 268.298 349.642 267.978C349.642 267.658 349.799 267.291 350.215 266.878C350.632 266.463 351.273 266.039 352.143 265.62C353.881 264.783 356.427 264.016 359.615 263.366C365.98 262.07 374.797 261.264 384.552 261.264C394.307 261.264 403.124 262.07 409.49 263.366C412.677 264.016 415.223 264.783 416.961 265.62C417.831 266.039 418.472 266.463 418.889 266.878C419.305 267.291 419.462 267.658 419.462 267.978Z" stroke="#FFC177" stroke-width="0.995694"/>
<g style="mix-blend-mode:multiply" opacity="0.5">
<ellipse cx="384.578" cy="267.984" rx="41.9424" ry="9.23462" fill="#FF981D"/>
</g>
<path d="M431.076 266.202H431.089V256.729C431.089 251.629 412.311 247.495 389.147 247.495C365.983 247.495 347.205 251.629 347.205 256.729V266.202H347.218C347.792 271.193 366.345 275.199 389.147 275.199C411.949 275.199 430.502 271.193 431.076 266.202Z" fill="#FFA318"/>
<path d="M347.272 256.729H347.203V266.202H347.216C347.79 271.192 366.343 275.198 389.145 275.198C411.947 275.198 430.5 271.192 431.074 266.202H431.087V256.729H431.018C429.757 261.58 411.493 265.428 389.145 265.428C366.797 265.428 348.532 261.58 347.272 256.729Z" fill="url(#paint13_linear)"/>
<path fill-rule="evenodd" clip-rule="evenodd" d="M348.807 258.729V268.499C349.342 268.913 350.005 269.314 350.786 269.702V259.931C350.005 259.544 349.342 259.142 348.807 258.729ZM352.959 260.863V270.634C353.576 270.865 354.236 271.089 354.939 271.307V261.536C354.236 261.318 353.576 261.094 352.959 260.863ZM357.112 262.152V271.923C357.746 272.088 358.406 272.248 359.091 272.403V262.632C358.406 262.478 357.746 262.317 357.112 262.152ZM361.27 263.091V272.862C361.912 272.987 362.572 273.109 363.249 273.226V263.456C362.572 263.339 361.912 263.217 361.27 263.091ZM365.43 263.809V273.579C366.077 273.677 366.737 273.771 367.41 273.861V264.09C366.737 264.001 366.077 263.907 365.43 263.809ZM369.583 264.362V274.132C370.233 274.208 370.893 274.28 371.562 274.348V264.577C370.893 264.509 370.233 264.437 369.583 264.362ZM373.744 264.783V274.554C374.396 274.61 375.055 274.663 375.723 274.713V264.943C375.055 264.893 374.396 264.84 373.744 264.783ZM377.896 265.09V274.86C378.549 274.9 379.209 274.937 379.875 274.97V265.199C379.209 265.166 378.549 265.13 377.896 265.09ZM382.053 265.294V275.064C382.707 275.089 383.367 275.11 384.032 275.128V265.358C383.367 265.34 382.707 265.319 382.053 265.294ZM386.205 265.403V275.174C386.861 275.184 387.521 275.19 388.184 275.194V265.423C387.521 265.42 386.861 265.413 386.205 265.403ZM390.366 265.422V275.192C391.03 275.188 391.689 275.18 392.345 275.169V265.399C391.689 265.41 391.03 265.418 390.366 265.422ZM394.52 265.351V275.121C395.184 275.102 395.844 275.08 396.499 275.054V265.284C395.844 265.31 395.184 265.332 394.52 265.351ZM398.68 265.186V274.956C399.346 274.922 400.006 274.885 400.66 274.844V265.073C400.006 265.114 399.346 265.152 398.68 265.186ZM402.837 264.922V274.693C403.504 274.642 404.164 274.588 404.816 274.53V264.759C404.164 264.817 403.504 264.872 402.837 264.922ZM406.989 264.551V274.321C407.659 274.252 408.319 274.178 408.969 274.101V264.331C408.319 264.408 407.659 264.481 406.989 264.551ZM411.146 264.055V273.825C411.818 273.734 412.478 273.638 413.125 273.539V263.768C412.478 263.868 411.818 263.963 411.146 264.055ZM415.298 263.411V273.181C415.976 273.062 416.636 272.939 417.278 272.811V263.04C416.636 263.168 415.976 263.292 415.298 263.411ZM419.451 262.575V272.345C420.136 272.188 420.796 272.025 421.43 271.857V262.086C420.796 262.254 420.136 262.417 419.451 262.575ZM423.613 261.454V271.225C424.317 271.001 424.978 270.771 425.592 270.534V260.764C424.978 261.001 424.317 261.231 423.613 261.454ZM427.773 259.795V269.565C428.57 269.152 429.234 268.723 429.753 268.281V258.562H429.691C429.182 258.986 428.539 259.397 427.773 259.795Z" fill="#FF9211"/>
<g style="mix-blend-mode:multiply">
<path fill-rule="evenodd" clip-rule="evenodd" d="M424.306 257.536C424.539 257.202 424.66 256.86 424.66 256.512C424.66 252.529 408.808 249.301 389.253 249.301C369.698 249.301 353.845 252.529 353.845 256.512C353.845 256.861 353.967 257.203 354.201 257.539C356.642 254.041 371.406 251.351 389.254 251.351C407.099 251.351 421.86 254.039 424.306 257.536Z" fill="#FFC177"/>
</g>
<path d="M424.162 256.512C424.162 256.833 424.005 257.199 423.59 257.613C423.173 258.028 422.532 258.452 421.662 258.871C419.924 259.708 417.377 260.475 414.19 261.124C407.824 262.421 399.007 263.226 389.253 263.226C379.498 263.226 370.681 262.421 364.315 261.124C361.128 260.475 358.582 259.708 356.844 258.871C355.974 258.452 355.333 258.028 354.916 257.613C354.5 257.199 354.343 256.833 354.343 256.512C354.343 256.192 354.5 255.826 354.916 255.412C355.333 254.997 355.974 254.573 356.844 254.154C358.582 253.317 361.128 252.55 364.315 251.901C370.681 250.604 379.498 249.798 389.253 249.798C399.007 249.798 407.824 250.604 414.19 251.901C417.377 252.55 419.924 253.317 421.662 254.154C422.532 254.573 423.173 254.997 423.59 255.412C424.005 255.826 424.162 256.192 424.162 256.512Z" stroke="#FFC177" stroke-width="0.995694"/>
<g style="mix-blend-mode:multiply" opacity="0.5">
<ellipse cx="389.279" cy="256.514" rx="41.9424" ry="9.23462" fill="#FF981D"/>
</g>
<path d="M96.6911 141.905C96.0379 122.528 111.462 106.412 130.849 106.214L356.251 103.916C375.458 103.72 391.132 119.236 391.132 138.443V270.267C391.132 289.337 375.673 304.796 356.603 304.796H135.567C116.95 304.796 101.685 290.037 101.058 271.43L96.6911 141.905Z" fill="#1F2337"/>
<rect x="92.4463" y="107.546" width="288.949" height="201.235" rx="34.529" fill="url(#paint14_linear)"/>
<rect x="92.4463" y="107.546" width="288.949" height="201.235" rx="34.529" fill="url(#paint15_radial)" fill-opacity="0.5"/>
<rect x="103.786" y="121.281" width="269.212" height="173.685" rx="34.529" stroke="#F6F6FF" stroke-width="3.31933" stroke-linecap="round" stroke-dasharray="14.39 14.39"/>
<g filter="url(#filter0_d)">
<path d="M236.922 24.3896C229.773 37.2439 199.222 51.9727 179.507 49.4069C177.662 75.8572 192.649 128.309 236.922 152.686C281.194 128.309 296.181 75.8572 294.336 49.4069C274.622 51.9727 244.07 37.2439 236.922 24.3896Z" fill="#FFA318"/>
<path d="M260.48 77.818C254.497 71.8891 244.865 71.9331 238.936 77.9165C237.675 79.1896 236.668 80.7149 235.788 82.3664L209.176 82.4882L202.868 88.8535L209.234 95.1609L213.018 91.3417L216.837 95.1261L220.622 91.3069L224.441 95.0914L235.846 95.0392C236.614 96.5565 237.635 98.0725 239.035 99.4601C245.018 105.389 254.65 105.345 260.578 99.3616C266.507 93.3782 266.463 83.747 260.48 77.818ZM252.309 92.4293C250.145 90.2848 250.13 86.9899 252.275 84.8257C254.419 82.6614 257.714 82.6464 259.878 84.7909C262.042 86.9355 262.058 90.2303 259.913 92.3945C257.768 94.5588 254.474 94.5739 252.309 92.4293Z" fill="#F6F6FF"/>
<g style="mix-blend-mode:multiply">
<path d="M236.928 152.203C281.201 127.826 296.188 75.3746 294.343 48.9243C274.628 51.4901 244.077 36.7615 236.928 23.9072V152.203Z" fill="#FFA318" fill-opacity="0.3"/>
</g>
</g>
<g filter="url(#filter1_d)">
<path d="M300.147 199.155C300.147 183.844 312.559 171.433 327.869 171.433H376.947C382.509 171.433 387.018 175.942 387.018 181.504V216.805C387.018 222.368 382.509 226.876 376.947 226.876H327.869C312.559 226.876 300.147 214.465 300.147 199.155Z" fill="#FF9211"/>
</g>
<circle cx="327.565" cy="199.153" r="8.96714" transform="rotate(-90 327.565 199.153)" fill="#1F2337"/>
<path d="M354.878 188.958L337.912 195.094C334.114 196.468 334.114 201.839 337.912 203.212L354.878 209.349C357.691 210.366 360.662 208.282 360.662 205.29V193.017C360.662 190.025 357.692 187.941 354.878 188.958Z" fill="#1F2337"/>
<path d="M391.324 167.544L381.163 171.608V226.734L391.324 222.796V167.544Z" fill="#D17B14"/>
<g style="mix-blend-mode:lighten">
<path d="M378.309 177.561C379.684 177.561 380.799 176.446 380.799 175.071C380.799 173.696 379.684 172.582 378.309 172.582V177.561ZM324.596 175.071V172.582C324.498 172.582 324.4 172.587 324.303 172.599L324.596 175.071ZM300.954 198.829C300.772 200.191 301.73 201.444 303.093 201.625C304.456 201.807 305.708 200.85 305.89 199.487L300.954 198.829ZM378.309 172.582H324.596V177.561H378.309V172.582ZM324.303 172.599C316.15 173.564 303.422 180.323 300.954 198.829L305.89 199.487C308.017 183.534 318.681 178.278 324.889 177.543L324.303 172.599Z" fill="#FFECBC"/>
</g>
<path fill-rule="evenodd" clip-rule="evenodd" d="M333.897 195.015C332.52 192.503 329.851 190.799 326.785 190.799C322.796 190.799 319.481 193.68 318.805 197.474C318.227 197.952 317.687 198.402 317.242 198.779C317.309 193.566 321.556 189.361 326.785 189.361C330.631 189.361 333.946 191.636 335.457 194.915C335.855 194.612 336.315 194.359 336.836 194.171L355.987 187.245C359.269 186.058 362.735 188.489 362.735 191.98V193.139L361.295 191.887C361.234 189.444 358.791 187.76 356.476 188.598L353.288 189.751L334.803 196.233L334.224 194.996L333.897 195.015Z" fill="#FFECBC"/>
<defs>
<filter id="filter0_d" x="150.583" y="0.887867" width="172.684" height="186.327" filterUnits="userSpaceOnUse" color-interpolation-filters="sRGB">
<feFlood flood-opacity="0" result="BackgroundImageFix"/>
<feColorMatrix in="SourceAlpha" type="matrix" values="0 0 0 0 0 0 0 0 0 0 0 0 0 0 0 0 0 0 127 0"/>
<feOffset dy="5.75484"/>
<feGaussianBlur stdDeviation="14.3871"/>
<feColorMatrix type="matrix" values="0 0 0 0 1 0 0 0 0 0.6 0 0 0 0 0 0 0 0 0.54 0"/>
<feBlend mode="normal" in2="BackgroundImageFix" result="effect1_dropShadow"/>
<feBlend mode="normal" in="SourceGraphic" in2="effect1_dropShadow" result="shape"/>
</filter>
<filter id="filter1_d" x="294.393" y="171.433" width="98.3799" height="66.9533" filterUnits="userSpaceOnUse" color-interpolation-filters="sRGB">
<feFlood flood-opacity="0" result="BackgroundImageFix"/>
<feColorMatrix in="SourceAlpha" type="matrix" values="0 0 0 0 0 0 0 0 0 0 0 0 0 0 0 0 0 0 127 0"/>
<feOffset dy="5.75484"/>
<feGaussianBlur stdDeviation="2.87742"/>
<feColorMatrix type="matrix" values="0 0 0 0 0 0 0 0 0 0 0 0 0 0 0 0 0 0 0.5 0"/>
<feBlend mode="normal" in2="BackgroundImageFix" result="effect1_dropShadow"/>
<feBlend mode="normal" in="SourceGraphic" in2="effect1_dropShadow" result="shape"/>
</filter>
<linearGradient id="paint0_linear" x1="63.7511" y1="95.6212" x2="132.977" y2="242.949" gradientUnits="userSpaceOnUse">
<stop stop-color="#C5C7FF"/>
<stop offset="1" stop-color="#C5C7FF" stop-opacity="0"/>
</linearGradient>
<linearGradient id="paint1_linear" x1="422.027" y1="168.99" x2="357.746" y2="214.391" gradientUnits="userSpaceOnUse">
<stop stop-color="#C5C7FF"/>
<stop offset="1" stop-color="#C5C7FF" stop-opacity="0"/>
</linearGradient>
<linearGradient id="paint2_linear" x1="27.894" y1="284.003" x2="95.0786" y2="280.785" gradientUnits="userSpaceOnUse">
<stop stop-color="#FF9211"/>
<stop offset="0.53395" stop-color="#FFC581"/>
<stop offset="1" stop-color="#FF9211"/>
</linearGradient>
<linearGradient id="paint3_linear" x1="32.1045" y1="273.713" x2="99.289" y2="270.495" gradientUnits="userSpaceOnUse">
<stop stop-color="#FF9211"/>
<stop offset="0.53395" stop-color="#FFC581"/>
<stop offset="1" stop-color="#FF9211"/>
</linearGradient>
<linearGradient id="paint4_linear" x1="28.9897" y1="263.78" x2="96.1743" y2="260.562" gradientUnits="userSpaceOnUse">
<stop stop-color="#FF9211"/>
<stop offset="0.53395" stop-color="#FFC581"/>
<stop offset="1" stop-color="#FF9211"/>
</linearGradient>
<linearGradient id="paint5_linear" x1="33.2011" y1="253.485" x2="100.386" y2="250.266" gradientUnits="userSpaceOnUse">
<stop stop-color="#FF9211"/>
<stop offset="0.53395" stop-color="#FFC581"/>
<stop offset="1" stop-color="#FF9211"/>
</linearGradient>
<linearGradient id="paint6_linear" x1="59.531" y1="299.98" x2="134.434" y2="296.392" gradientUnits="userSpaceOnUse">
<stop stop-color="#FF9211"/>
<stop offset="0.53395" stop-color="#FFC581"/>
<stop offset="1" stop-color="#FF9211"/>
</linearGradient>
<linearGradient id="paint7_linear" x1="64.2165" y1="288.51" x2="139.12" y2="284.922" gradientUnits="userSpaceOnUse">
<stop stop-color="#FF9211"/>
<stop offset="0.53395" stop-color="#FFC581"/>
<stop offset="1" stop-color="#FF9211"/>
</linearGradient>
<linearGradient id="paint8_linear" x1="60.7424" y1="277.427" x2="135.646" y2="273.839" gradientUnits="userSpaceOnUse">
<stop stop-color="#FF9211"/>
<stop offset="0.53395" stop-color="#FFC581"/>
<stop offset="1" stop-color="#FF9211"/>
</linearGradient>
<linearGradient id="paint9_linear" x1="65.4421" y1="265.964" x2="140.346" y2="262.376" gradientUnits="userSpaceOnUse">
<stop stop-color="#FF9211"/>
<stop offset="0.53395" stop-color="#FFC581"/>
<stop offset="1" stop-color="#FF9211"/>
</linearGradient>
<linearGradient id="paint10_linear" x1="350.275" y1="299.98" x2="425.178" y2="296.392" gradientUnits="userSpaceOnUse">
<stop stop-color="#FF9211"/>
<stop offset="0.53395" stop-color="#FFC581"/>
<stop offset="1" stop-color="#FF9211"/>
</linearGradient>
<linearGradient id="paint11_linear" x1="354.973" y1="288.51" x2="429.876" y2="284.922" gradientUnits="userSpaceOnUse">
<stop stop-color="#FF9211"/>
<stop offset="0.53395" stop-color="#FFC581"/>
<stop offset="1" stop-color="#FF9211"/>
</linearGradient>
<linearGradient id="paint12_linear" x1="351.497" y1="277.427" x2="426.4" y2="273.839" gradientUnits="userSpaceOnUse">
<stop stop-color="#FF9211"/>
<stop offset="0.53395" stop-color="#FFC581"/>
<stop offset="1" stop-color="#FF9211"/>
</linearGradient>
<linearGradient id="paint13_linear" x1="356.184" y1="265.964" x2="431.087" y2="262.376" gradientUnits="userSpaceOnUse">
<stop stop-color="#FF9211"/>
<stop offset="0.53395" stop-color="#FFC581"/>
<stop offset="1" stop-color="#FF9211"/>
</linearGradient>
<linearGradient id="paint14_linear" x1="233.382" y1="338.79" x2="236.921" y2="57.7428" gradientUnits="userSpaceOnUse">
<stop stop-color="#47526A"/>
<stop offset="1" stop-color="#F52079"/>
</linearGradient>
<radialGradient id="paint15_radial" cx="0" cy="0" r="1" gradientUnits="userSpaceOnUse" gradientTransform="translate(236.921 85.4402) rotate(90) scale(122.724 176.216)">
<stop stop-color="#FFA318"/>
<stop offset="1" stop-color="#FFA318" stop-opacity="0"/>
</radialGradient>
</defs>
</svg>
