<svg width="37" height="37" viewBox="0 0 37 37" fill="none" xmlns="http://www.w3.org/2000/svg">
<path fill-rule="evenodd" clip-rule="evenodd" d="M4.34131 12.0397H22.6436C23.4204 12.0397 24.165 12.3483 24.7144 12.8971C25.2637 13.4479 25.5723 14.192 25.5723 14.9694V26.6823C25.5723 27.4596 25.2637 28.2037 24.7144 28.7526C24.165 29.3014 23.4204 29.61 22.6436 29.61H5.07324C4.29688 29.61 3.55176 29.3014 3.00293 28.7526C2.45361 28.2037 2.14502 27.4596 2.14502 26.6823V12.0397C2.14502 10.4303 3.44971 8.92639 5.04395 8.69788L19.7461 6.59827C21.3389 6.37171 22.6436 7.50061 22.6436 9.11194V11.3092H20.4473C20.7321 10.0345 19.6709 8.86114 18.3741 9.01684L5.55186 10.5563C4.81509 10.6448 4.28026 11.3001 4.34131 12.0397ZM6.23193 14.6217C5.12744 14.6217 4.23193 15.5162 4.23193 16.6217V25.3912C4.23193 26.4948 5.12744 27.3912 6.23193 27.3912H21.4854C22.5898 27.3912 23.4854 26.4948 23.4854 25.3912V16.6217C23.4854 15.9459 23.1514 15.3502 22.6401 14.9869C22.314 14.7565 21.9155 14.6217 21.4854 14.6217H6.23193Z" fill="#F8F8FA"/>
<circle cx="19.5242" cy="20.7083" r="1.53542" fill="#F8F8FA"/>
<path d="M27.6077 20.0734C27.6131 20.0717 27.6186 20.07 27.6241 20.0683C30.0438 19.3146 31.3945 16.7421 30.6408 14.3223C29.8935 11.923 27.358 10.5749 24.9563 11.2869C24.7382 10.6034 24.531 9.95814 24.3453 9.38217C27.8064 8.33077 31.4729 10.2683 32.5504 13.7276C33.6325 17.2019 31.6932 20.8957 28.2188 21.9778C27.8798 22.0834 27.5388 22.1602 27.1982 22.2097C27.5497 21.6655 27.7416 20.9624 27.6077 20.0734Z" fill="#F8F8FA"/>
</svg>
