<svg width="33" height="24" viewBox="0 0 33 24" fill="none" xmlns="http://www.w3.org/2000/svg">
<path fill-rule="evenodd" clip-rule="evenodd" d="M2.45935 6.31482H20.7616C21.5385 6.31482 22.2831 6.62342 22.8324 7.17224C23.3817 7.72303 23.6903 8.46717 23.6903 9.24451V20.9574C23.6903 21.7347 23.3817 22.4789 22.8324 23.0277C22.2831 23.5765 21.5385 23.8851 20.7616 23.8851H3.19128C2.41492 23.8851 1.6698 23.5765 1.12097 23.0277C0.571655 22.4789 0.263062 21.7347 0.263062 20.9574V6.31482C0.263062 4.70545 1.56775 3.20154 3.16199 2.97303L17.8641 0.873416C19.4569 0.646853 20.7616 1.77576 20.7616 3.38709V5.58435H18.5653C18.8501 4.30965 17.789 3.13629 16.4922 3.29199L3.6699 4.83145C2.93313 4.91991 2.3983 5.57528 2.45935 6.31482ZM4.34998 8.89685C3.24548 8.89685 2.34998 9.79138 2.34998 10.8969V19.6664C2.34998 20.7699 3.24548 21.6664 4.34998 21.6664H19.6034C20.7079 21.6664 21.6034 20.7699 21.6034 19.6664V10.8969C21.6034 10.2211 21.2694 9.62537 20.7582 9.26209C20.432 9.03162 20.0336 8.89685 19.6034 8.89685H4.34998Z" fill="#F6F6FF"/>
<circle cx="17.6422" cy="14.9834" r="1.53542" fill="#F6F6FF"/>
<path d="M25.7256 14.3488C25.7311 14.3471 25.7365 14.3454 25.742 14.3437C28.1618 13.59 29.5124 11.0175 28.7587 8.59772C28.0115 6.19843 25.4759 4.85025 23.0742 5.56231C22.8561 4.87882 22.6489 4.23354 22.4632 3.65756C25.9244 2.60617 29.5908 4.54367 30.6683 8.00298C31.7504 11.4773 29.8111 15.1711 26.3367 16.2532C25.9978 16.3588 25.6567 16.4356 25.3161 16.485C25.6676 15.9408 25.8596 15.2378 25.7256 14.3488Z" fill="#F6F6FF"/>
</svg>
