<svg width="1084" height="159" viewBox="0 0 1084 159" fill="none" xmlns="http://www.w3.org/2000/svg">
<path d="M20.064 158.5H1063.86C1074.91 158.5 1083.86 149.546 1083.86 138.5V0.572266L1027.08 16.3647L971.555 62.4222L901.948 86.2459C901.479 86.4064 900.968 86.3871 900.512 86.1917L845.102 62.4222L785.174 83.696L723.533 62.6629C723.078 62.5077 722.583 62.5215 722.137 62.7019L670.266 83.696L610.338 86.4953L556.208 112.566C546.194 117.39 534.858 118.738 523.992 116.4L484.028 107.8C483.933 107.779 483.839 107.752 483.748 107.718L419.559 83.696L362.153 57.0102C361.889 56.8874 361.601 56.8238 361.31 56.8238H307.216C306.635 56.8238 306.082 57.0767 305.703 57.5168L262.915 107.076C262.535 107.516 261.983 107.769 261.401 107.769H195.535C195.341 107.769 195.147 107.741 194.961 107.685L124.318 86.4953L55.5934 107.769L2.85947 84.9079C1.53881 84.3353 0.0639648 85.3034 0.0639648 86.7429V138.5C0.0639648 149.546 9.01829 158.5 20.064 158.5Z" fill="url(#paint0_linear)" fill-opacity="0.3"/>
<defs>
<linearGradient id="paint0_linear" x1="531.869" y1="15.3955" x2="531.869" y2="180.262" gradientUnits="userSpaceOnUse">
<stop stop-color="#4048FF"/>
<stop offset="1" stop-color="white"/>
</linearGradient>
</defs>
</svg>
