<svg width="110" height="101" viewBox="0 0 110 101" fill="none" xmlns="http://www.w3.org/2000/svg">
<circle cx="55.0205" cy="50.4307" r="50" fill="#FFDFAE"/>
<path d="M0.931641 78.9074C0.931641 77.0628 2.42702 75.5674 4.27167 75.5674H105.769C107.613 75.5674 109.109 77.0628 109.109 78.9074V79.3936C109.109 80.9697 107.831 82.2474 106.255 82.2474H105.789C104.47 82.2474 103.401 83.3167 103.401 84.6358C103.401 85.9548 102.332 87.0241 101.013 87.0241H89.6545C88.0281 87.0241 86.7097 88.3425 86.7097 89.9689C86.7097 91.5953 85.3912 92.9137 83.7649 92.9137H25.7291C24.1028 92.9137 22.7843 91.5953 22.7843 89.9689C22.7843 88.3425 21.4659 87.0241 19.8395 87.0241H9.30348C7.98444 87.0241 6.91515 85.9548 6.91515 84.6358C6.91515 83.3167 5.84585 82.2474 4.52682 82.2474H3.92339C2.27109 82.2474 0.931641 80.908 0.931641 79.2557V78.9074Z" fill="#35384D"/>
<path d="M21.6455 75.6646H21.6485V73.6131C21.6485 72.5086 17.5819 71.6133 12.5654 71.6133C7.54898 71.6133 3.48242 72.5086 3.48242 73.6131V75.6646H3.48537C3.60969 76.7453 7.62738 77.6128 12.5654 77.6128C17.5035 77.6128 21.5212 76.7453 21.6455 75.6646Z" fill="#FFA318"/>
<path d="M3.49751 73.6133H3.48242V75.6648H3.48537C3.60969 76.7454 7.62738 77.613 12.5654 77.613C17.5035 77.613 21.5212 76.7454 21.6455 75.6648H21.6485V73.6133H21.6334C21.3605 74.6638 17.4051 75.4972 12.5654 75.4972C7.72578 75.4972 3.77041 74.6638 3.49751 73.6133Z" fill="url(#paint0_linear)"/>
<path fill-rule="evenodd" clip-rule="evenodd" d="M3.82812 74.0451V76.161C3.94397 76.2508 4.08758 76.338 4.25678 76.4221V74.3062C4.08758 74.2221 3.94397 74.1348 3.82812 74.0451ZM4.72944 74.509V76.625C4.86291 76.675 5.00598 76.7236 5.15809 76.7707V74.6548C5.00598 74.6077 4.86291 74.5591 4.72944 74.509ZM5.62901 74.7884V76.9043C5.76639 76.94 5.90938 76.9747 6.05766 77.0082V74.8924C5.90938 74.8588 5.76639 74.8241 5.62901 74.7884ZM6.52857 74.9915V77.1074C6.66769 77.1347 6.81065 77.161 6.95723 77.1864V75.0705C6.81065 75.0451 6.66769 75.0188 6.52857 74.9915ZM7.429 75.1469V77.2628C7.5691 77.284 7.71204 77.3043 7.85766 77.3238V75.2079C7.71204 75.1885 7.5691 75.1681 7.429 75.1469ZM8.32857 75.2667V77.3826C8.46931 77.399 8.61224 77.4146 8.75723 77.4293V75.3135C8.61224 75.2987 8.46931 75.2831 8.32857 75.2667ZM9.22814 75.3579V77.4738C9.36933 77.4861 9.51225 77.4976 9.6568 77.5084V75.3925C9.51225 75.3817 9.36933 75.3702 9.22814 75.3579ZM10.1303 75.4246V77.5404C10.2718 77.5491 10.4147 77.557 10.5589 77.5641V75.4483C10.4147 75.4411 10.2718 75.4332 10.1303 75.4246ZM11.029 75.4688V77.5846C11.1708 77.5899 11.3137 77.5945 11.4577 77.5984V75.4825C11.3137 75.4787 11.1708 75.4741 11.029 75.4688ZM11.9294 75.4925V77.6083C12.0714 77.6105 12.2143 77.6119 12.3581 77.6126V75.4968C12.2143 75.4961 12.0714 75.4946 11.9294 75.4925ZM12.8281 75.4965V77.6123C12.9719 77.6114 13.1148 77.6098 13.2568 77.6075V75.4916C13.1148 75.494 12.9719 75.4956 12.8281 75.4965ZM13.7294 75.4811V77.5969C13.8734 77.5929 14.0163 77.5881 14.1581 77.5825V75.4667C14.0163 75.4722 13.8734 75.477 13.7294 75.4811ZM14.629 75.4455V77.5614C14.7732 77.554 14.9161 77.5459 15.0576 77.537V75.4211C14.9161 75.43 14.7732 75.4381 14.629 75.4455ZM15.5286 75.3885V77.5044C15.6731 77.4934 15.8161 77.4817 15.9572 77.4691V75.3533C15.8161 75.3658 15.6731 75.3776 15.5286 75.3885ZM16.4298 75.3079V77.4237C16.5749 77.4087 16.7178 77.3929 16.8585 77.3762V75.2604C16.7178 75.277 16.5749 75.2928 16.4298 75.3079ZM17.3286 75.2007V77.3166C17.4742 77.2968 17.6172 77.2761 17.7572 77.2546V75.1387C17.6172 75.1603 17.4742 75.1809 17.3286 75.2007ZM18.229 75.0612V77.177C18.3756 77.1513 18.5186 77.1245 18.6576 77.0968V74.9809C18.5186 75.0086 18.3756 75.0354 18.229 75.0612ZM19.1303 74.8797V76.9956C19.2787 76.9615 19.4217 76.9261 19.5589 76.8897V74.7738C19.4217 74.8102 19.2787 74.8456 19.1303 74.8797ZM20.0298 74.6375V76.7534C20.1824 76.7051 20.3254 76.6552 20.4585 76.6039V74.488C20.3254 74.5393 20.1824 74.5892 20.0298 74.6375ZM20.9294 74.279V76.3949C21.1018 76.3056 21.2455 76.213 21.3581 76.1176V74.0107H21.3473C21.2364 74.1029 21.0963 74.1925 20.9294 74.279Z" fill="#FF9211"/>
<g style="mix-blend-mode:multiply">
<path fill-rule="evenodd" clip-rule="evenodd" d="M20.1788 73.7896C20.2294 73.7171 20.2556 73.643 20.2556 73.5677C20.2556 72.7051 16.8226 72.0059 12.5878 72.0059C8.35293 72.0059 4.91992 72.7051 4.91992 73.5677C4.91992 73.6432 4.94626 73.7175 4.99718 73.7902C5.52619 73.0328 8.72326 72.4503 12.5882 72.4503C16.4521 72.4503 19.6484 73.0324 20.1788 73.7896Z" fill="#FFC177"/>
</g>
<path d="M20.1602 73.5677C20.1602 73.6414 20.124 73.7238 20.0325 73.8148C19.9409 73.9061 19.8007 73.9986 19.6116 74.0897C19.234 74.2715 18.6813 74.4379 17.9907 74.5786C16.611 74.8596 14.7008 75.0341 12.5878 75.0341C10.4747 75.0341 8.56446 74.8596 7.18481 74.5786C6.4942 74.4379 5.94155 74.2715 5.56387 74.0897C5.37481 73.9986 5.23462 73.9061 5.14297 73.8148C5.05156 73.7238 5.01527 73.6414 5.01527 73.5677C5.01527 73.4939 5.05156 73.4115 5.14297 73.3205C5.23462 73.2293 5.37481 73.1367 5.56387 73.0456C5.94155 72.8638 6.4942 72.6974 7.18481 72.5567C8.56446 72.2757 10.4747 72.1012 12.5878 72.1012C14.7008 72.1012 16.611 72.2757 17.9907 72.5567C18.6813 72.6974 19.234 72.8638 19.6116 73.0456C19.8007 73.1367 19.9409 73.2293 20.0325 73.3205C20.124 73.4115 20.1602 73.4939 20.1602 73.5677Z" stroke="#FFC177" stroke-width="0.190697"/>
<g style="mix-blend-mode:multiply" opacity="0.5">
<ellipse cx="12.5918" cy="73.5672" rx="9.08302" ry="1.99985" fill="#FF981D"/>
</g>
<path d="M22.6621 73.1812H22.6651V71.1297C22.6651 70.0252 18.5985 69.1299 13.582 69.1299C8.56559 69.1299 4.49902 70.0252 4.49902 71.1297V73.1812H4.50198C4.62629 74.2619 8.64398 75.1294 13.582 75.1294C18.5201 75.1294 22.5378 74.2619 22.6621 73.1812Z" fill="#FFA318"/>
<path d="M4.51411 71.1289H4.49902V73.1804H4.50198C4.62629 74.2611 8.64398 75.1286 13.582 75.1286C18.5201 75.1286 22.5378 74.2611 22.6621 73.1804H22.6651V71.1289H22.65C22.3771 72.1794 18.4217 73.0128 13.582 73.0128C8.74238 73.0128 4.78701 72.1794 4.51411 71.1289Z" fill="url(#paint1_linear)"/>
<path fill-rule="evenodd" clip-rule="evenodd" d="M4.84375 71.5627V73.6786C4.95959 73.7684 5.1032 73.8556 5.27241 73.9398V71.8238C5.1032 71.7397 4.95959 71.6525 4.84375 71.5627ZM5.74511 72.0267V74.1426C5.87858 74.1926 6.02165 74.2412 6.17376 74.2884V72.1725C6.02165 72.1253 5.87858 72.0767 5.74511 72.0267ZM6.64554 72.3063V74.4221C6.78292 74.4579 6.92591 74.4926 7.07419 74.5261V72.4102C6.92591 72.3767 6.78292 72.342 6.64554 72.3063ZM7.54682 72.5097V74.6256C7.68595 74.6528 7.8289 74.6791 7.97548 74.7045V72.5886C7.8289 72.5633 7.68595 72.5369 7.54682 72.5097ZM8.44381 72.6644V74.7803C8.58391 74.8015 8.72685 74.8219 8.87247 74.8413V72.7255C8.72685 72.706 8.58391 72.6856 8.44381 72.6644ZM9.34424 72.7844V74.9003C9.48498 74.9166 9.62791 74.9322 9.7729 74.947V72.8311C9.62791 72.8164 9.48498 72.8008 9.34424 72.7844ZM10.2447 72.8756V74.9915C10.3859 75.0038 10.5288 75.0153 10.6733 75.0261V72.9102C10.5288 72.8995 10.3859 72.8879 10.2447 72.8756ZM11.146 72.9422V75.0581C11.2875 75.0667 11.4304 75.0746 11.5746 75.0818V72.9659C11.4304 72.9588 11.2875 72.9509 11.146 72.9422ZM12.0455 72.9864V75.1023C12.1873 75.1076 12.3302 75.1122 12.4742 75.1161V73.0002C12.3302 72.9964 12.1873 72.9918 12.0455 72.9864ZM12.9442 73.0101V75.1259C13.0862 75.1281 13.2292 75.1296 13.3729 75.1303V73.0144C13.2292 73.0137 13.0862 73.0123 12.9442 73.0101ZM13.8464 73.0141V75.13C13.9901 75.1291 14.133 75.1274 14.275 75.1251V73.0092C14.133 73.0116 13.9901 73.0132 13.8464 73.0141ZM14.746 72.9987V75.1145C14.8899 75.1105 15.0328 75.1057 15.1746 75.1002V72.9843C15.0328 72.9898 14.8899 72.9946 14.746 72.9987ZM15.6455 72.9631V75.079C15.7898 75.0716 15.9327 75.0635 16.0742 75.0546V72.9387C15.9327 72.9476 15.7898 72.9557 15.6455 72.9631ZM16.5442 72.9062V75.022C16.6888 75.0111 16.8317 74.9993 16.9729 74.9868V72.8709C16.8317 72.8834 16.6888 72.8952 16.5442 72.9062ZM17.4455 72.8255V74.9414C17.5905 74.9264 17.7335 74.9105 17.8742 74.8939V72.778C17.7335 72.7946 17.5905 72.8105 17.4455 72.8255ZM18.3451 72.7182V74.8341C18.4908 74.8143 18.6337 74.7936 18.7737 74.7721V72.6563C18.6337 72.6778 18.4908 72.6984 18.3451 72.7182ZM19.2455 72.5787V74.6945C19.3922 74.6688 19.5351 74.642 19.6742 74.6143V72.4984C19.5351 72.5261 19.3922 72.5529 19.2455 72.5787ZM20.1459 72.3974V74.5133C20.2944 74.4791 20.4374 74.4438 20.5746 74.4074V72.2915C20.4374 72.3279 20.2944 72.3632 20.1459 72.3974ZM21.0447 72.1554V74.2713C21.1972 74.223 21.3402 74.1732 21.4733 74.1219V72.006C21.3402 72.0573 21.1972 72.1071 21.0447 72.1554ZM21.9459 71.7962V73.9121C22.1184 73.8227 22.2621 73.73 22.3746 73.6345V71.5283H22.363C22.2523 71.6204 22.1125 71.7099 21.9459 71.7962Z" fill="#FF9211"/>
<g style="mix-blend-mode:multiply">
<path fill-rule="evenodd" clip-rule="evenodd" d="M21.1948 71.3056C21.2452 71.2333 21.2712 71.1594 21.2712 71.0843C21.2712 70.2217 17.8382 69.5225 13.6034 69.5225C9.36855 69.5225 5.93555 70.2217 5.93555 71.0843C5.93555 71.1596 5.96176 71.2337 6.01242 71.3063C6.54013 70.5485 9.73788 69.9658 13.6039 69.9658C17.4687 69.9658 20.6657 70.5482 21.1948 71.3056Z" fill="#FFC177"/>
</g>
<path d="M21.1759 71.0843C21.1759 71.158 21.1396 71.2404 21.0482 71.3314C20.9565 71.4227 20.8163 71.5152 20.6273 71.6063C20.2496 71.7882 19.6969 71.9545 19.0063 72.0952C17.6267 72.3762 15.7164 72.5507 13.6034 72.5507C11.4904 72.5507 9.58009 72.3762 8.20043 72.0952C7.50982 71.9545 6.95718 71.7882 6.57949 71.6063C6.39043 71.5152 6.25024 71.4227 6.15859 71.3314C6.06718 71.2404 6.0309 71.158 6.0309 71.0843C6.0309 71.0105 6.06718 70.9281 6.15859 70.8371C6.25024 70.7459 6.39043 70.6533 6.57949 70.5622C6.95718 70.3804 7.50982 70.214 8.20043 70.0733C9.58009 69.7923 11.4904 69.6178 13.6034 69.6178C15.7164 69.6178 17.6267 69.7923 19.0063 70.0733C19.6969 70.214 20.2496 70.3804 20.6273 70.5622C20.8163 70.6533 20.9565 70.7459 21.0482 70.8371C21.1396 70.9281 21.1759 71.0105 21.1759 71.0843Z" stroke="#FFC177" stroke-width="0.190697"/>
<g style="mix-blend-mode:multiply" opacity="0.5">
<ellipse cx="13.6113" cy="71.0838" rx="9.08302" ry="1.99985" fill="#FF981D"/>
</g>
<path d="M21.9101 70.7808H21.9131V68.7293C21.9131 67.6249 17.8465 66.7295 12.8301 66.7295C7.81363 66.7295 3.74707 67.6249 3.74707 68.7293V70.7808H3.75002C3.87433 71.8615 7.89202 72.729 12.8301 72.729C17.7681 72.729 21.7858 71.8615 21.9101 70.7808Z" fill="#FFA318"/>
<path d="M3.76216 68.7295H3.74707V70.781H3.75002C3.87433 71.8617 7.89202 72.7292 12.8301 72.7292C17.7681 72.7292 21.7858 71.8617 21.9101 70.781H21.9131V68.7295H21.898C21.6251 69.78 17.6697 70.6134 12.8301 70.6134C7.99042 70.6134 4.03506 69.78 3.76216 68.7295Z" fill="url(#paint2_linear)"/>
<path fill-rule="evenodd" clip-rule="evenodd" d="M4.09277 69.1633V71.2793C4.20869 71.3689 4.3523 71.456 4.52143 71.54V69.4241C4.3523 69.34 4.20869 69.253 4.09277 69.1633ZM4.99272 69.6262V71.7421C5.12619 71.7922 5.26926 71.8408 5.42137 71.8879V69.772C5.26926 69.7249 5.12619 69.6763 4.99272 69.6262ZM5.89228 69.9056V72.0215C6.02967 72.0572 6.17266 72.0919 6.32094 72.1254V70.0095C6.17266 69.976 6.02967 69.9413 5.89228 69.9056ZM6.79357 70.109V72.2249C6.93269 72.2522 7.07565 72.2785 7.22223 72.3039V70.188C7.07565 70.1626 6.93269 70.1363 6.79357 70.109ZM7.694 70.2644V72.3802C7.8341 72.4014 7.97704 72.4218 8.12266 72.4412V70.3253C7.97704 70.3059 7.8341 70.2855 7.694 70.2644ZM8.59185 70.3839V72.4998C8.73259 72.5162 8.87551 72.5318 9.02051 72.5465V70.4307C8.87551 70.4159 8.73259 70.4003 8.59185 70.3839ZM9.49314 70.4752V72.5911C9.63433 72.6034 9.77725 72.6149 9.9218 72.6257V70.5098C9.77725 70.4991 9.63433 70.4875 9.49314 70.4752ZM10.3927 70.5417V72.6576C10.5342 72.6662 10.6771 72.6741 10.8214 72.6813V70.5654C10.6771 70.5583 10.5342 70.5503 10.3927 70.5417ZM11.2931 70.586V72.7018C11.4349 72.7072 11.5778 72.7118 11.7218 72.7156V70.5998C11.5778 70.5959 11.4349 70.5913 11.2931 70.586ZM12.1927 70.6096V72.7255C12.3347 72.7277 12.4776 72.7291 12.6214 72.7298V70.614C12.4776 70.6133 12.3347 70.6118 12.1927 70.6096ZM13.0931 70.6137V72.7295C13.2369 72.7286 13.3798 72.727 13.5218 72.7246V70.6088C13.3798 70.6111 13.2369 70.6128 13.0931 70.6137ZM13.9936 70.5982V72.7141C14.1375 72.71 14.2804 72.7052 14.4222 72.6997V70.5838C14.2804 70.5894 14.1375 70.5942 13.9936 70.5982ZM14.8931 70.5626V72.6785C15.0374 72.6711 15.1803 72.663 15.3218 72.6541V70.5383C15.1803 70.5471 15.0374 70.5553 14.8931 70.5626ZM15.7936 70.5056V72.6214C15.9381 72.6105 16.0811 72.5987 16.2222 72.5862V70.4703C16.0811 70.4828 15.9381 70.4946 15.7936 70.5056ZM16.6931 70.4251V72.5409C16.8382 72.5259 16.9811 72.5101 17.1218 72.4934V70.3775C16.9811 70.3942 16.8382 70.41 16.6931 70.4251ZM17.5927 70.3178V72.4336C17.7384 72.4139 17.8813 72.3932 18.0214 72.3717V70.2558C17.8813 70.2773 17.7384 70.298 17.5927 70.3178ZM18.494 70.178V72.2939C18.6406 72.2681 18.7836 72.2414 18.9226 72.2137V70.0978C18.7836 70.1255 18.6406 70.1523 18.494 70.178ZM19.3936 69.9969V72.1128C19.542 72.0786 19.685 72.0433 19.8222 72.0069V69.891C19.685 69.9274 19.542 69.9628 19.3936 69.9969ZM20.2931 69.7547V71.8706C20.4456 71.8223 20.5887 71.7724 20.7218 71.7211V69.6052C20.5887 69.6565 20.4456 69.7064 20.2931 69.7547ZM21.1944 69.3953V71.5112C21.3669 71.4218 21.5106 71.3289 21.6231 71.2334V69.1279H21.6105C21.5 69.2198 21.3606 69.3091 21.1944 69.3953Z" fill="#FF9211"/>
<g style="mix-blend-mode:multiply">
<path fill-rule="evenodd" clip-rule="evenodd" d="M20.4435 68.9056C20.4941 68.8332 20.5202 68.7592 20.5202 68.6839C20.5202 67.8213 17.0872 67.1221 12.8524 67.1221C8.61758 67.1221 5.18457 67.8213 5.18457 68.6839C5.18457 68.7591 5.2107 68.8331 5.2612 68.9055C5.78987 68.148 8.98712 67.5655 12.8523 67.5655C16.7177 67.5655 19.9151 68.1481 20.4435 68.9056Z" fill="#FFC177"/>
</g>
<path d="M20.4249 68.6839C20.4249 68.7577 20.3886 68.8401 20.2972 68.931C20.2055 69.0223 20.0653 69.1148 19.8763 69.2059C19.4986 69.3878 18.946 69.5541 18.2553 69.6948C16.8757 69.9758 14.9654 70.1503 12.8524 70.1503C10.7394 70.1503 8.82911 69.9758 7.44946 69.6948C6.75884 69.5541 6.2062 69.3878 5.82852 69.2059C5.63946 69.1148 5.49926 69.0223 5.40762 68.931C5.3162 68.8401 5.27992 68.7577 5.27992 68.6839C5.27992 68.6101 5.3162 68.5277 5.40762 68.4367C5.49926 68.3455 5.63946 68.2529 5.82852 68.1619C6.2062 67.98 6.75884 67.8136 7.44946 67.6729C8.82911 67.3919 10.7394 67.2174 12.8524 67.2174C14.9654 67.2174 16.8757 67.3919 18.2553 67.6729C18.946 67.8136 19.4986 67.98 19.8763 68.1619C20.0653 68.2529 20.2055 68.3455 20.2972 68.4367C20.3886 68.5277 20.4249 68.6101 20.4249 68.6839Z" stroke="#FFC177" stroke-width="0.190697"/>
<g style="mix-blend-mode:multiply" opacity="0.5">
<ellipse cx="12.8565" cy="68.6834" rx="9.08302" ry="1.99985" fill="#FF981D"/>
</g>
<path d="M22.9287 68.2974H22.9317V66.2459C22.9317 65.1415 18.8651 64.2461 13.8486 64.2461C8.83219 64.2461 4.76562 65.1415 4.76562 66.2459V68.2974H4.76858C4.89289 69.3781 8.91058 70.2457 13.8486 70.2457C18.7867 70.2457 22.8044 69.3781 22.9287 68.2974Z" fill="#FFA318"/>
<path d="M4.77876 66.2461H4.76367V68.2976H4.76662C4.89094 69.3783 8.90863 70.2458 13.8467 70.2458C18.7847 70.2458 22.8024 69.3783 22.9268 68.2976H22.9297V66.2461H22.9146C22.6417 67.2966 18.6863 68.13 13.8467 68.13C9.00703 68.13 5.05166 67.2966 4.77876 66.2461Z" fill="url(#paint3_linear)"/>
<path fill-rule="evenodd" clip-rule="evenodd" d="M5.10938 66.6777V68.7936C5.2252 68.8834 5.36882 68.9706 5.53803 69.0548V66.9389C5.36881 66.8547 5.2252 66.7675 5.10938 66.6777ZM6.00839 67.1409V69.2568C6.14184 69.3069 6.28492 69.3556 6.43704 69.4027V67.2868C6.28492 67.2397 6.14184 67.191 6.00839 67.1409ZM6.90967 67.421V69.5369C7.04706 69.5726 7.19004 69.6073 7.33833 69.6409V67.525C7.19004 67.4914 7.04706 67.4567 6.90967 67.421ZM7.8101 67.6243V69.7402C7.94922 69.7675 8.09217 69.7938 8.23876 69.8192V67.7033C8.09217 67.678 7.94922 67.6516 7.8101 67.6243ZM8.70967 67.7796V69.8955C8.84977 69.9167 8.99271 69.937 9.13833 69.9565V67.8406C8.99271 67.8212 8.84977 67.8008 8.70967 67.7796ZM9.60924 67.8995V70.0153C9.74998 70.0317 9.8929 70.0473 10.0379 70.0621V67.9462C9.8929 67.9314 9.74998 67.9158 9.60924 67.8995ZM10.5105 67.9908V70.1067C10.6517 70.119 10.7946 70.1305 10.9392 70.1412V68.0254C10.7946 68.0146 10.6517 68.0031 10.5105 67.9908ZM11.4101 68.0573V70.1731C11.5516 70.1818 11.6945 70.1897 11.8388 70.1969V68.081C11.6945 68.0739 11.5516 68.0659 11.4101 68.0573ZM12.3097 68.1016V70.2174C12.4515 70.2227 12.5944 70.2273 12.7383 70.2312V68.1153C12.5944 68.1115 12.4515 68.1069 12.3097 68.1016ZM13.2092 68.1252V70.2411C13.3512 70.2433 13.4942 70.2447 13.6379 70.2454V68.1296C13.4942 68.1289 13.3512 68.1274 13.2092 68.1252ZM14.1105 68.1293V70.2451C14.2543 70.2442 14.3972 70.2426 14.5392 70.2403V68.1244C14.3972 68.1268 14.2543 68.1284 14.1105 68.1293ZM15.0092 68.1139V70.2298C15.1532 70.2257 15.2961 70.2209 15.4379 70.2154V68.0996C15.2961 68.1051 15.1532 68.1099 15.0092 68.1139ZM15.9097 68.0784V70.1942C16.0539 70.1869 16.1968 70.1787 16.3383 70.1699V68.054C16.1968 68.0629 16.0539 68.071 15.9097 68.0784ZM16.8101 68.0213V70.1372C16.9547 70.1262 17.0976 70.1145 17.2387 70.102V67.9861C17.0976 67.9986 16.9547 68.0104 16.8101 68.0213ZM17.7097 67.9409V70.0567C17.8547 70.0417 17.9976 70.0259 18.1383 70.0092V67.8934C17.9976 67.91 17.8547 67.9259 17.7097 67.9409ZM18.6092 67.8336V69.9495C18.7549 69.9297 18.8978 69.9091 19.0379 69.8876V67.7717C18.8978 67.7932 18.7549 67.8139 18.6092 67.8336ZM19.5105 67.694V69.8099C19.6572 69.7841 19.8001 69.7573 19.9392 69.7296V67.6137C19.8001 67.6414 19.6572 67.6682 19.5105 67.694ZM20.4101 67.5129V69.6288C20.5585 69.5947 20.7015 69.5594 20.8387 69.523V67.4071C20.7015 67.4435 20.5585 67.4788 20.4101 67.5129ZM21.3097 67.2708V69.3867C21.4621 69.3385 21.6052 69.2887 21.7383 69.2374V67.1215C21.6052 67.1727 21.4621 67.2226 21.3097 67.2708ZM22.2092 66.9127V69.0286C22.3815 68.9395 22.5252 68.8471 22.6379 68.7519V66.6436H22.6288C22.5175 66.7361 22.3769 66.826 22.2092 66.9127Z" fill="#FF9211"/>
<g style="mix-blend-mode:multiply">
<path fill-rule="evenodd" clip-rule="evenodd" d="M21.4596 66.4221C21.5105 66.3494 21.5368 66.2751 21.5368 66.1995C21.5368 65.3369 18.1038 64.6377 13.869 64.6377C9.63418 64.6377 6.20117 65.3369 6.20117 66.1995C6.20117 66.275 6.22747 66.3492 6.2783 66.4219C6.80869 65.6647 10.005 65.0826 13.8689 65.0826C17.733 65.0826 20.9296 65.6648 21.4596 66.4221Z" fill="#FFC177"/>
</g>
<path d="M21.4415 66.1995C21.4415 66.2733 21.4052 66.3557 21.3138 66.4467C21.2221 66.5379 21.082 66.6305 20.8929 66.7215C20.5152 66.9034 19.9626 67.0698 19.2719 67.2104C17.8923 67.4914 15.982 67.6659 13.869 67.6659C11.756 67.6659 9.84571 67.4914 8.46606 67.2104C7.77545 67.0698 7.2228 66.9034 6.84512 66.7215C6.65606 66.6305 6.51587 66.5379 6.42422 66.4467C6.33281 66.3557 6.29652 66.2733 6.29652 66.1995C6.29652 66.1257 6.33281 66.0433 6.42422 65.9523C6.51587 65.8611 6.65606 65.7685 6.84512 65.6775C7.2228 65.4956 7.77545 65.3292 8.46606 65.1886C9.84571 64.9076 11.756 64.733 13.869 64.733C15.982 64.733 17.8923 64.9076 19.2719 65.1886C19.9626 65.3292 20.5152 65.4956 20.8929 65.6775C21.082 65.7685 21.2221 65.8611 21.3138 65.9523C21.4052 66.0433 21.4415 66.1257 21.4415 66.1995Z" stroke="#FFC177" stroke-width="0.190697"/>
<g style="mix-blend-mode:multiply" opacity="0.5">
<ellipse cx="13.8731" cy="66.2" rx="9.08302" ry="1.99985" fill="#FF981D"/>
</g>
<path d="M31.1424 79.5285H31.1457V77.2413C31.1457 76.01 26.612 75.0117 21.0192 75.0117C15.4264 75.0117 10.8926 76.01 10.8926 77.2413V79.5285H10.8959C11.0345 80.7333 15.5138 81.7006 21.0192 81.7006C26.5246 81.7006 31.0039 80.7333 31.1424 79.5285Z" fill="#FFA318"/>
<path d="M10.9084 77.2412H10.8916V79.5284H10.8949C11.0335 80.7332 15.5128 81.7005 21.0182 81.7005C26.5236 81.7005 31.0029 80.7332 31.1415 79.5284H31.1448V77.2412H31.1279C30.8237 78.4124 26.4139 79.3415 21.0182 79.3415C15.6225 79.3415 11.2127 78.4124 10.9084 77.2412Z" fill="url(#paint4_linear)"/>
<path fill-rule="evenodd" clip-rule="evenodd" d="M11.2773 77.7235V80.0825C11.4065 80.1826 11.5666 80.2797 11.7553 80.3734V78.0144C11.5666 77.9207 11.4065 77.8235 11.2773 77.7235ZM12.2811 78.24V80.5991C12.4299 80.6548 12.5894 80.709 12.759 80.7616V78.4026C12.5894 78.35 12.4299 78.2958 12.2811 78.24ZM13.2847 78.5517V80.9107C13.4379 80.9506 13.5973 80.9892 13.7626 81.0266V78.6676C13.5973 78.6302 13.4379 78.5916 13.2847 78.5517ZM14.2875 78.7781V81.1371C14.4426 81.1675 14.6019 81.1969 14.7654 81.2252V78.8662C14.6019 78.8379 14.4426 78.8085 14.2875 78.7781ZM15.2911 78.9513V81.3103C15.4473 81.3339 15.6066 81.3566 15.769 81.3783V79.0194C15.6066 78.9976 15.4473 78.975 15.2911 78.9513ZM16.2947 79.085V81.444C16.4516 81.4622 16.611 81.4796 16.7726 81.4961V79.1371C16.611 79.1206 16.4516 79.1033 16.2947 79.085ZM17.2975 79.1866V81.5456C17.4549 81.5593 17.6142 81.5721 17.7754 81.5841V79.2252C17.6142 79.2132 17.4549 79.2003 17.2975 79.1866ZM18.302 79.2608V81.6198C18.4598 81.6294 18.6191 81.6383 18.7799 81.6463V79.2873C18.6191 79.2793 18.4598 79.2705 18.302 79.2608ZM19.3047 79.3102V81.6691C19.4628 81.6751 19.6222 81.6802 19.7826 81.6845V79.3255C19.6222 79.3212 19.4628 79.3161 19.3047 79.3102ZM20.3084 79.3366V81.6955C20.4667 81.6979 20.626 81.6996 20.7863 81.7004V79.3414C20.626 79.3406 20.4667 79.339 20.3084 79.3366ZM21.312 79.3411V81.7C21.4723 81.699 21.6316 81.6972 21.7899 81.6946V79.3356C21.6316 79.3382 21.4723 79.3401 21.312 79.3411ZM22.3156 79.3239V81.6828C22.4761 81.6783 22.6355 81.673 22.7935 81.6668V79.3079C22.6355 79.314 22.4761 79.3194 22.3156 79.3239ZM23.3184 79.2842V81.6432C23.4792 81.635 23.6385 81.6259 23.7963 81.616V79.2571C23.6385 79.267 23.4792 79.276 23.3184 79.2842ZM24.322 79.2207V81.5796C24.4832 81.5674 24.6426 81.5543 24.7999 81.5403V79.1814C24.6426 79.1953 24.4832 79.2084 24.322 79.2207ZM25.3257 79.1309V81.4898C25.4873 81.4731 25.6467 81.4554 25.8036 81.4368V79.0779C25.6467 79.0964 25.4873 79.1141 25.3257 79.1309ZM26.3293 79.0112V81.3701C26.4917 81.3481 26.651 81.325 26.8072 81.301V78.9421C26.6511 78.966 26.4917 78.9891 26.3293 79.0112ZM27.3329 78.8556V81.2146C27.4964 81.1858 27.6558 81.156 27.8108 81.1251V78.7661C27.6558 78.797 27.4964 78.8268 27.3329 78.8556ZM28.3357 78.6537V81.0127C28.5012 80.9746 28.6606 80.9353 28.8136 80.8947V78.5357C28.6606 78.5763 28.5012 78.6157 28.3357 78.6537ZM29.3393 78.3835V80.7425C29.5093 80.6887 29.6689 80.6331 29.8172 80.5759V78.2169C29.6689 78.2741 29.5093 78.3297 29.3393 78.3835ZM30.3421 77.984V80.3431C30.5342 80.2436 30.6945 80.1404 30.82 80.0341V77.6846H30.8086C30.6848 77.7875 30.5285 77.8875 30.3421 77.984Z" fill="#FF9211"/>
<g style="mix-blend-mode:multiply">
<path fill-rule="evenodd" clip-rule="evenodd" d="M29.5052 77.4378C29.5616 77.357 29.5908 77.2744 29.5908 77.1905C29.5908 76.2288 25.7633 75.4492 21.042 75.4492C16.3206 75.4492 12.4932 76.2288 12.4932 77.1905C12.4932 77.2746 12.5225 77.3574 12.5792 77.4384C13.1688 76.5939 16.7333 75.9445 21.0424 75.9445C25.3504 75.9445 28.9142 76.5936 29.5052 77.4378Z" fill="#FFC177"/>
</g>
<path d="M29.4845 77.1905C29.4845 77.2727 29.444 77.3646 29.3421 77.466C29.2399 77.5677 29.0836 77.6709 28.8728 77.7724C28.4518 77.9752 27.8356 78.1607 27.0657 78.3175C25.5275 78.6308 23.3977 78.8254 21.042 78.8254C18.6862 78.8254 16.5564 78.6308 15.0183 78.3175C14.2483 78.1607 13.6322 77.9752 13.2111 77.7724C13.0003 77.6709 12.844 77.5677 12.7418 77.466C12.6399 77.3646 12.5995 77.2727 12.5995 77.1905C12.5995 77.1082 12.6399 77.0163 12.7418 76.9149C12.844 76.8132 13.0003 76.71 13.2111 76.6085C13.6322 76.4057 14.2483 76.2202 15.0183 76.0634C16.5564 75.7501 18.6862 75.5555 21.042 75.5555C23.3977 75.5555 25.5275 75.7501 27.0657 76.0634C27.8356 76.2202 28.4518 76.4057 28.8728 76.6085C29.0836 76.71 29.2399 76.8132 29.3421 76.9149C29.444 77.0163 29.4845 77.1082 29.4845 77.1905Z" stroke="#FFC177" stroke-width="0.212606"/>
<g style="mix-blend-mode:multiply" opacity="0.5">
<ellipse cx="21.0494" cy="77.1896" rx="10.1266" ry="2.22961" fill="#FF981D"/>
</g>
<path d="M32.2772 76.759H32.2805V74.4718C32.2805 73.2404 27.7467 72.2422 22.1539 72.2422C16.5611 72.2422 12.0273 73.2404 12.0273 74.4718V76.759H12.0306C12.1692 77.9638 16.6485 78.931 22.1539 78.931C27.6593 78.931 32.1386 77.9638 32.2772 76.759Z" fill="#FFA318"/>
<path d="M12.0442 74.4717H12.0273V76.7589H12.0306C12.1692 77.9637 16.6485 78.9309 22.1539 78.9309C27.6593 78.9309 32.1386 77.9637 32.2772 76.7589H32.2805V74.4717H32.2637C31.9594 75.6429 27.5496 76.572 22.1539 76.572C16.7582 76.572 12.3484 75.6429 12.0442 74.4717Z" fill="url(#paint5_linear)"/>
<path fill-rule="evenodd" clip-rule="evenodd" d="M12.4131 74.9553V77.3144C12.5423 77.4143 12.7024 77.5114 12.891 77.6051V75.2461C12.7024 75.1524 12.5423 75.0553 12.4131 74.9553ZM13.4163 75.4714V77.8305C13.5651 77.8862 13.7246 77.9405 13.8942 77.993V75.634C13.7246 75.5814 13.5651 75.5272 13.4163 75.4714ZM14.4199 75.7831V78.1421C14.5731 78.182 14.7325 78.2206 14.8978 78.258V75.899C14.7325 75.8616 14.5731 75.823 14.4199 75.7831ZM15.4235 76.0097V78.3687C15.5786 78.3991 15.738 78.4285 15.9014 78.4567V76.0978C15.738 76.0695 15.5786 76.0401 15.4235 76.0097ZM16.428 76.183V78.542C16.5842 78.5656 16.7436 78.5883 16.9059 78.61V76.251C16.7436 76.2293 16.5842 76.2066 16.428 76.183ZM17.4299 76.3164V78.6754C17.5868 78.6936 17.7462 78.711 17.9078 78.7275V76.3685C17.7462 76.3521 17.5868 76.3347 17.4299 76.3164ZM18.4327 76.418V78.777C18.5901 78.7907 18.7494 78.8036 18.9106 78.8155V76.4566C18.7494 76.4446 18.5901 76.4317 18.4327 76.418ZM19.4363 76.4922V78.8511C19.5941 78.8608 19.7534 78.8696 19.9142 78.8776V76.5187C19.7534 76.5107 19.5941 76.5018 19.4363 76.4922ZM20.4417 76.5417V78.9006C20.5998 78.9065 20.7591 78.9117 20.9196 78.9159V76.557C20.7591 76.5527 20.5998 76.5476 20.4417 76.5417ZM21.4444 76.568V78.927C21.6028 78.9294 21.7621 78.931 21.9223 78.9318V76.5728C21.7621 76.572 21.6028 76.5704 21.4444 76.568ZM22.4489 76.5725V78.9314C22.6092 78.9304 22.7685 78.9286 22.9268 78.9259V76.567C22.7685 76.5696 22.6092 76.5715 22.4489 76.5725ZM23.4517 76.5553V78.9142C23.6122 78.9097 23.7715 78.9043 23.9296 78.8982V76.5392C23.7715 76.5454 23.6122 76.5507 23.4517 76.5553ZM24.4536 76.5157V78.8746C24.6144 78.8664 24.7738 78.8573 24.9315 78.8474V76.4885C24.7738 76.4984 24.6144 76.5074 24.4536 76.5157ZM25.4581 76.452V78.811C25.6193 78.7987 25.7786 78.7856 25.936 78.7716V76.4127C25.7786 76.4267 25.6193 76.4398 25.4581 76.452ZM26.4609 76.3623V78.7212C26.6226 78.7045 26.7819 78.6868 26.9388 78.6683V76.3093C26.7819 76.3278 26.6226 76.3455 26.4609 76.3623ZM27.4636 76.2427V78.6017C27.626 78.5796 27.7854 78.5566 27.9415 78.5326V76.1736C27.7854 76.1976 27.626 76.2206 27.4636 76.2427ZM28.4681 76.087V78.446C28.6316 78.4172 28.791 78.3874 28.946 78.3565V75.9975C28.791 76.0284 28.6316 76.0582 28.4681 76.087ZM29.4709 75.8851V78.2441C29.6364 78.2061 29.7958 78.1667 29.9488 78.1261V75.7671C29.7958 75.8077 29.6364 75.8471 29.4709 75.8851ZM30.4754 75.6147V77.9737C30.6454 77.9198 30.8049 77.8642 30.9533 77.807V75.448C30.8049 75.5052 30.6454 75.5608 30.4754 75.6147ZM31.4782 75.215V77.574C31.6703 77.4744 31.8306 77.3712 31.9561 77.2648V74.916H31.9438C31.8202 75.0188 31.6641 75.1186 31.4782 75.215Z" fill="#FF9211"/>
<g style="mix-blend-mode:multiply">
<path fill-rule="evenodd" clip-rule="evenodd" d="M30.6426 74.6676C30.6992 74.5867 30.7285 74.504 30.7285 74.4199C30.7285 73.4583 26.901 72.6787 22.1797 72.6787C17.4583 72.6787 13.6309 73.4583 13.6309 74.4199C13.6309 74.5039 13.66 74.5864 13.7164 74.6672C14.3067 73.8228 17.8708 73.1736 22.1793 73.1736C26.4887 73.1736 30.0533 73.8231 30.6426 74.6676Z" fill="#FFC177"/>
</g>
<path d="M30.6222 74.4199C30.6222 74.5022 30.5817 74.5941 30.4798 74.6955C30.3776 74.7972 30.2213 74.9004 30.0105 75.0019C29.5895 75.2047 28.9733 75.3902 28.2034 75.547C26.6652 75.8603 24.5354 76.0549 22.1797 76.0549C19.8239 76.0549 17.6941 75.8603 16.156 75.547C15.386 75.3902 14.7699 75.2047 14.3488 75.0019C14.138 74.9004 13.9817 74.7972 13.8795 74.6955C13.7776 74.5941 13.7372 74.5022 13.7372 74.4199C13.7372 74.3377 13.7776 74.2458 13.8795 74.1444C13.9817 74.0427 14.138 73.9395 14.3488 73.838C14.7699 73.6352 15.386 73.4497 16.156 73.2929C17.6941 72.9796 19.8239 72.785 22.1797 72.785C24.5354 72.785 26.6652 72.9796 28.2034 73.2929C28.9733 73.4497 29.5895 73.6352 30.0105 73.838C30.2213 73.9395 30.3776 74.0427 30.4798 74.1444C30.5817 74.2458 30.6222 74.3377 30.6222 74.4199Z" stroke="#FFC177" stroke-width="0.212606"/>
<g style="mix-blend-mode:multiply" opacity="0.5">
<ellipse cx="22.1852" cy="74.421" rx="10.1266" ry="2.22961" fill="#FF981D"/>
</g>
<path d="M31.4364 74.0842H31.4397V71.797C31.4397 70.5656 26.9059 69.5674 21.3131 69.5674C15.7203 69.5674 11.1865 70.5656 11.1865 71.797V74.0842H11.1898C11.3284 75.289 15.8077 76.2562 21.3131 76.2562C26.8185 76.2562 31.2978 75.289 31.4364 74.0842Z" fill="#FFA318"/>
<path d="M11.2043 71.7969H11.1875V74.0841H11.1908C11.3294 75.2889 15.8087 76.2561 21.3141 76.2561C26.8195 76.2561 31.2988 75.2889 31.4374 74.0841H31.4407V71.7969H31.4238C31.1196 72.9681 26.7098 73.8972 21.3141 73.8972C15.9184 73.8972 11.5086 72.9681 11.2043 71.7969Z" fill="url(#paint6_linear)"/>
<path fill-rule="evenodd" clip-rule="evenodd" d="M11.5732 72.2809V74.64C11.7025 74.7399 11.8626 74.837 12.0511 74.9307V72.5716C11.8626 72.478 11.7025 72.3809 11.5732 72.2809ZM12.576 72.7968V75.1558C12.7248 75.2116 12.8844 75.2658 13.0539 75.3183V72.9593C12.8844 72.9068 12.7248 72.8526 12.576 72.7968ZM13.5797 73.1085V75.4675C13.7328 75.5073 13.8923 75.546 14.0576 75.5834V73.2244C13.8922 73.187 13.7328 73.1483 13.5797 73.1085ZM14.5824 73.3349V75.6939C14.7375 75.7243 14.8969 75.7536 15.0603 75.7819V73.423C14.8969 73.3947 14.7375 73.3653 14.5824 73.3349ZM15.5861 73.5081V75.8671C15.7423 75.8907 15.9016 75.9134 16.064 75.9351V73.5761C15.9016 73.5544 15.7423 73.5317 15.5861 73.5081ZM16.5897 73.6418V76.0007C16.7466 76.019 16.9059 76.0364 17.0676 76.0528V73.6939C16.9059 73.6774 16.7466 73.66 16.5897 73.6418ZM17.5933 73.7435V76.1024C17.7507 76.1161 17.9101 76.129 18.0712 76.141V73.782C17.9101 73.77 17.7507 73.7572 17.5933 73.7435ZM18.597 73.8176V76.1765C18.7547 76.1862 18.9141 76.195 19.0749 76.203V73.8441C18.9141 73.8361 18.7547 73.8272 18.597 73.8176ZM19.6006 73.867V76.2259C19.7587 76.2319 19.918 76.237 20.0785 76.2413V73.8823C19.918 73.878 19.7587 73.8729 19.6006 73.867ZM20.6042 73.8934V76.2523C20.7625 76.2547 20.9219 76.2563 21.0821 76.2571V73.8982C20.9219 73.8974 20.7625 73.8958 20.6042 73.8934ZM21.6078 73.8978V76.2568C21.7681 76.2558 21.9274 76.2539 22.0857 76.2513V73.8924C21.9274 73.895 21.7681 73.8968 21.6078 73.8978ZM22.6106 73.8806V76.2396C22.7711 76.2351 22.9305 76.2297 23.0885 76.2236V73.8646C22.9305 73.8708 22.7711 73.8761 22.6106 73.8806ZM23.6151 73.8409V76.1999C23.7759 76.1916 23.9352 76.1826 24.093 76.1727V73.8137C23.9352 73.8236 23.7759 73.8327 23.6151 73.8409ZM24.6179 73.7774V76.1363C24.7791 76.1241 24.9384 76.111 25.0958 76.097V73.738C24.9384 73.752 24.7791 73.7651 24.6179 73.7774ZM25.6206 73.6876V76.0466C25.7823 76.0298 25.9417 76.0122 26.0985 75.9936V73.6346C25.9417 73.6532 25.7823 73.6709 25.6206 73.6876ZM26.6243 73.5679V75.9269C26.7867 75.9048 26.946 75.8818 27.1022 75.8578V73.4988C26.946 73.5228 26.7867 73.5459 26.6243 73.5679ZM27.6279 73.4123V75.7713C27.7914 75.7426 27.9508 75.7127 28.1058 75.6818V73.3229C27.9508 73.3537 27.7914 73.3836 27.6279 73.4123ZM28.6324 73.2101V75.5691C28.7979 75.531 28.9573 75.4916 29.1103 75.451V73.092C28.9573 73.1326 28.7979 73.172 28.6324 73.2101ZM29.6352 72.94V75.299C29.8052 75.2451 29.9647 75.1895 30.1131 75.1324V72.7733C29.9647 72.8305 29.8052 72.8861 29.6352 72.94ZM30.6388 72.5399V74.8989C30.831 74.7993 30.9913 74.6959 31.1167 74.5894V72.2422H31.1026C30.9793 72.3445 30.8239 72.4439 30.6388 72.5399Z" fill="#FF9211"/>
<g style="mix-blend-mode:multiply">
<path fill-rule="evenodd" clip-rule="evenodd" d="M29.8002 71.9943C29.8565 71.9136 29.8857 71.831 29.8857 71.7471C29.8857 70.7854 26.0583 70.0059 21.3369 70.0059C16.6155 70.0059 12.7881 70.7854 12.7881 71.7471C12.7881 71.8312 12.8174 71.9139 12.874 71.9948C13.4633 71.1503 17.0279 70.5008 21.3373 70.5008C25.6457 70.5008 29.2097 71.15 29.8002 71.9943Z" fill="#FFC177"/>
</g>
<path d="M29.7794 71.7471C29.7794 71.8294 29.7389 71.9212 29.637 72.0227C29.5348 72.1244 29.3785 72.2276 29.1678 72.3291C28.7467 72.5319 28.1305 72.7173 27.3606 72.8742C25.8224 73.1875 23.6927 73.382 21.3369 73.382C18.9811 73.382 16.8514 73.1875 15.3132 72.8742C14.5432 72.7173 13.9271 72.5319 13.506 72.3291C13.2952 72.2276 13.1389 72.1244 13.0368 72.0227C12.9348 71.9212 12.8944 71.8294 12.8944 71.7471C12.8944 71.6648 12.9348 71.573 13.0368 71.4715C13.1389 71.3698 13.2952 71.2666 13.506 71.1651C13.9271 70.9623 14.5432 70.7768 15.3132 70.62C16.8514 70.3067 18.9811 70.1122 21.3369 70.1122C23.6927 70.1122 25.8224 70.3067 27.3606 70.62C28.1305 70.7768 28.7467 70.9623 29.1678 71.1651C29.3785 71.2666 29.5348 71.3698 29.637 71.4715C29.7389 71.573 29.7794 71.6648 29.7794 71.7471Z" stroke="#FFC177" stroke-width="0.212606"/>
<g style="mix-blend-mode:multiply" opacity="0.5">
<ellipse cx="21.3434" cy="71.7462" rx="10.1266" ry="2.22961" fill="#FF981D"/>
</g>
<path d="M32.5702 71.3146H32.5735V69.0274C32.5735 67.7961 28.0397 66.7979 22.4469 66.7979C16.8541 66.7979 12.3203 67.7961 12.3203 69.0274V71.3146H12.3236C12.4622 72.5195 16.9415 73.4867 22.4469 73.4867C27.9523 73.4867 32.4316 72.5195 32.5702 71.3146Z" fill="#FFA318"/>
<path d="M12.3362 69.0264H12.3193V71.3136H12.3226C12.4612 72.5184 16.9405 73.4856 22.4459 73.4856C27.9513 73.4856 32.4306 72.5184 32.5692 71.3136H32.5725V69.0264H32.5557C32.2514 70.1976 27.8416 71.1267 22.4459 71.1267C17.0502 71.1267 12.6404 70.1976 12.3362 69.0264Z" fill="url(#paint7_linear)"/>
<path fill-rule="evenodd" clip-rule="evenodd" d="M12.7051 69.5095V71.8686C12.8343 71.9685 12.9944 72.0655 13.183 72.1592V69.8002C12.9944 69.7065 12.8343 69.6094 12.7051 69.5095ZM13.7087 70.0256V72.3846C13.8575 72.4404 14.017 72.4946 14.1866 72.5471V70.1881C14.017 70.1356 13.8575 70.0814 13.7087 70.0256ZM14.7123 70.3372V72.6962C14.8655 72.736 15.0249 72.7747 15.1902 72.8121V70.4531C15.0249 70.4157 14.8655 70.377 14.7123 70.3372ZM15.7151 70.5636V72.9226C15.8702 72.953 16.0295 72.9823 16.193 73.0106V70.6516C16.0295 70.6233 15.8702 70.594 15.7151 70.5636ZM16.7187 70.7367V73.0957C16.8749 73.1193 17.0343 73.142 17.1966 73.1637V70.8047C17.0343 70.783 16.8749 70.7604 16.7187 70.7367ZM17.7215 70.8703V73.2293C17.8784 73.2475 18.0377 73.2649 18.1994 73.2813V70.9224C18.0377 70.9059 17.8784 70.8885 17.7215 70.8703ZM18.726 70.972V73.331C18.8834 73.3447 19.0427 73.3576 19.2039 73.3695V71.0106C19.0427 70.9986 18.8834 70.9857 18.726 70.972ZM19.7287 71.0461V73.4051C19.8865 73.4147 20.0458 73.4235 20.2066 73.4315V71.0726C20.0458 71.0646 19.8865 71.0558 19.7287 71.0461ZM20.7332 71.0955V73.4545C20.8913 73.4604 21.0506 73.4655 21.2111 73.4698V71.1109C21.0506 71.1066 20.8913 71.1014 20.7332 71.0955ZM21.736 71.1219V73.4808C21.8943 73.4832 22.0536 73.4848 22.2139 73.4856V71.1267C22.0536 71.1259 21.8943 71.1243 21.736 71.1219ZM22.7396 71.1263V73.4853C22.8999 73.4843 23.0592 73.4825 23.2175 73.4798V71.1209C23.0592 71.1235 22.8999 71.1253 22.7396 71.1263ZM23.7432 71.1091V73.4681C23.9038 73.4635 24.0631 73.4582 24.2212 73.452V71.0931C24.0631 71.0992 23.9038 71.1046 23.7432 71.1091ZM24.746 71.0695V73.4284C24.9068 73.4202 25.0662 73.4111 25.2239 73.4012V71.0423C25.0662 71.0522 24.9068 71.0612 24.746 71.0695ZM25.7505 71.0058V73.3648C25.9117 73.3525 26.071 73.3394 26.2284 73.3254V70.9665C26.071 70.9804 25.9117 70.9936 25.7505 71.0058ZM26.7524 70.9161V73.2751C26.9141 73.2583 27.0734 73.2407 27.2303 73.2221V70.8632C27.0734 70.8817 26.9141 70.8994 26.7524 70.9161ZM27.7569 70.7963V73.1553C27.9193 73.1332 28.0787 73.1102 28.2348 73.0862V70.7272C28.0787 70.7512 27.9193 70.7742 27.7569 70.7963ZM28.7597 70.6409V72.9998C28.9232 72.9711 29.0826 72.9412 29.2376 72.9104V70.5514C29.0826 70.5823 28.9232 70.6121 28.7597 70.6409ZM29.7624 70.439V72.798C29.9279 72.7599 30.0873 72.7206 30.2403 72.68V70.321C30.0873 70.3616 29.9279 70.4009 29.7624 70.439ZM30.7669 70.1685V72.5275C30.937 72.4737 31.0965 72.4181 31.2448 72.3609V70.0019C31.0965 70.059 30.937 70.1147 30.7669 70.1685ZM31.7714 69.768V72.127C31.9637 72.0272 32.124 71.9238 32.2493 71.8172V69.4707H32.2343C32.1113 69.5729 31.9562 69.6721 31.7714 69.768Z" fill="#FF9211"/>
<g style="mix-blend-mode:multiply">
<path fill-rule="evenodd" clip-rule="evenodd" d="M30.9337 69.2232C30.9902 69.1423 31.0195 69.0597 31.0195 68.9756C31.0195 68.014 27.192 67.2344 22.4707 67.2344C17.7493 67.2344 13.9219 68.014 13.9219 68.9756C13.9219 69.0597 13.9512 69.1425 14.0078 69.2234C14.5979 68.379 18.1621 67.7298 22.4709 67.7298C26.7792 67.7298 30.3431 68.3789 30.9337 69.2232Z" fill="#FFC177"/>
</g>
<path d="M30.9132 68.9756C30.9132 69.0579 30.8727 69.1497 30.7708 69.2512C30.6686 69.3529 30.5123 69.4561 30.3015 69.5576C29.8805 69.7604 29.2643 69.9459 28.4944 70.1027C26.9562 70.416 24.8265 70.6105 22.4707 70.6105C20.1149 70.6105 17.9851 70.416 16.447 70.1027C15.677 69.9459 15.0609 69.7604 14.6398 69.5576C14.429 69.4561 14.2727 69.3529 14.1705 69.2512C14.0686 69.1497 14.0282 69.0579 14.0282 68.9756C14.0282 68.8933 14.0686 68.8015 14.1705 68.7C14.2727 68.5983 14.429 68.4951 14.6398 68.3936C15.0609 68.1908 15.677 68.0054 16.447 67.8485C17.9851 67.5352 20.1149 67.3407 22.4707 67.3407C24.8265 67.3407 26.9562 67.5352 28.4944 67.8485C29.2643 68.0054 29.8805 68.1908 30.3015 68.3936C30.5123 68.4951 30.6686 68.5983 30.7708 68.7C30.8727 68.8015 30.9132 68.8933 30.9132 68.9756Z" stroke="#FFC177" stroke-width="0.212606"/>
<g style="mix-blend-mode:multiply" opacity="0.5">
<ellipse cx="22.4781" cy="68.9767" rx="10.1266" ry="2.22961" fill="#FF981D"/>
</g>
<path d="M101.341 79.5285H101.344V77.2413C101.344 76.01 96.8102 75.0117 91.2174 75.0117C85.6246 75.0117 81.0908 76.01 81.0908 77.2413V79.5285H81.0941C81.2327 80.7333 85.712 81.7006 91.2174 81.7006C96.7228 81.7006 101.202 80.7333 101.341 79.5285Z" fill="#FFA318"/>
<path d="M81.1067 77.2412H81.0898V79.5284H81.0931C81.2317 80.7332 85.711 81.7005 91.2164 81.7005C96.7218 81.7005 101.201 80.7332 101.34 79.5284H101.343V77.2412H101.326C101.022 78.4124 96.6121 79.3415 91.2164 79.3415C85.8207 79.3415 81.4109 78.4124 81.1067 77.2412Z" fill="url(#paint8_linear)"/>
<path fill-rule="evenodd" clip-rule="evenodd" d="M81.4756 77.7227V80.0817C81.6048 80.1817 81.7649 80.2789 81.9535 80.3726V78.0136C81.7649 77.9198 81.6048 77.8227 81.4756 77.7227ZM82.4792 78.2392V80.5982C82.628 80.654 82.7875 80.7082 82.9571 80.7607V78.4017C82.7875 78.3492 82.628 78.295 82.4792 78.2392ZM83.4837 78.5511V80.9101C83.6369 80.9499 83.7963 80.9886 83.9616 81.0259V78.6669C83.7963 78.6296 83.6369 78.5909 83.4837 78.5511ZM84.4865 78.7774V81.1364C84.6416 81.1668 84.801 81.1962 84.9644 81.2245V78.8655C84.801 78.8372 84.6416 78.8078 84.4865 78.7774ZM85.4901 78.9506V81.3096C85.6463 81.3332 85.8057 81.3559 85.968 81.3776V79.0186C85.8057 78.9969 85.6463 78.9742 85.4901 78.9506ZM86.4937 79.0843V81.4432C86.6507 81.4615 86.81 81.4788 86.9717 81.4953V79.1363C86.81 79.1199 86.6507 79.1025 86.4937 79.0843ZM87.4974 79.1859V81.5449C87.6548 81.5586 87.8141 81.5714 87.9753 81.5834V79.2244C87.8141 79.2125 87.6548 79.1996 87.4974 79.1859ZM88.501 79.26V81.619C88.6588 81.6286 88.8181 81.6375 88.9789 81.6454V79.2865C88.8181 79.2785 88.6588 79.2697 88.501 79.26ZM89.5046 79.3094V81.6683C89.6627 81.6743 89.8221 81.6794 89.9825 81.6837V79.3247C89.8221 79.3204 89.6627 79.3153 89.5046 79.3094ZM90.5074 79.3357V81.6947C90.6657 81.6971 90.8251 81.6987 90.9853 81.6995V79.3406C90.8251 79.3398 90.6657 79.3381 90.5074 79.3357ZM91.5119 79.3402V81.6991C91.6722 81.6981 91.8315 81.6963 91.9898 81.6937V79.3347C91.8315 79.3374 91.6722 79.3392 91.5119 79.3402ZM92.5155 79.323V81.6819C92.676 81.6774 92.8354 81.672 92.9934 81.6659V79.3069C92.8354 79.3131 92.676 79.3184 92.5155 79.323ZM93.5192 79.2832V81.6422C93.68 81.634 93.8393 81.6249 93.9971 81.615V79.256C93.8393 79.2659 93.68 79.275 93.5192 79.2832ZM94.5211 79.2197V81.5787C94.6822 81.5665 94.8416 81.5533 94.999 81.5394V79.1804C94.8416 79.1944 94.6822 79.2075 94.5211 79.2197ZM95.5264 79.1297V81.4887C95.6881 81.4719 95.8474 81.4542 96.0043 81.4357V79.0767C95.8475 79.0953 95.6881 79.113 95.5264 79.1297ZM96.5292 79.0101V81.369C96.6916 81.347 96.8509 81.3239 97.0071 81.2999V78.9409C96.8509 78.9649 96.6916 78.988 96.5292 79.0101ZM97.5311 78.8547V81.2137C97.6946 81.185 97.854 81.1551 98.009 81.1242V78.7652C97.854 78.7961 97.6946 78.826 97.5311 78.8547ZM98.5339 78.6529V81.0119C98.6993 80.9738 98.8588 80.9344 99.0118 80.8939V78.5349C98.8588 78.5754 98.6993 78.6148 98.5339 78.6529ZM99.5384 78.3824V80.7414C99.7084 80.6875 99.8679 80.6319 100.016 80.5747V78.2157C99.8679 78.2729 99.7084 78.3285 99.5384 78.3824ZM100.541 77.9827V80.3418C100.733 80.2422 100.894 80.1389 101.019 80.0325V77.6846H101.006C100.882 77.787 100.727 77.8866 100.541 77.9827Z" fill="#FF9211"/>
<g style="mix-blend-mode:multiply">
<path fill-rule="evenodd" clip-rule="evenodd" d="M99.7034 77.4379C99.7598 77.3571 99.789 77.2744 99.789 77.1905C99.789 76.2288 95.9616 75.4492 91.2402 75.4492C86.5188 75.4492 82.6914 76.2288 82.6914 77.1905C82.6914 77.2746 82.7207 77.3574 82.7774 77.4384C83.3672 76.5939 86.9316 75.9445 91.2406 75.9445C95.5487 75.9445 99.1125 76.5936 99.7034 77.4379Z" fill="#FFC177"/>
</g>
<path d="M99.6827 77.1905C99.6827 77.2727 99.6422 77.3646 99.5403 77.466C99.4382 77.5677 99.2819 77.6709 99.0711 77.7724C98.65 77.9752 98.0339 78.1607 97.2639 78.3175C95.7257 78.6308 93.596 78.8254 91.2402 78.8254C88.8844 78.8254 86.7547 78.6308 85.2165 78.3175C84.4466 78.1607 83.8304 77.9752 83.4093 77.7724C83.1986 77.6709 83.0423 77.5677 82.9401 77.466C82.8382 77.3646 82.7977 77.2727 82.7977 77.1905C82.7977 77.1082 82.8382 77.0163 82.9401 76.9149C83.0423 76.8132 83.1986 76.71 83.4093 76.6085C83.8304 76.4057 84.4466 76.2202 85.2165 76.0634C86.7547 75.7501 88.8844 75.5555 91.2402 75.5555C93.596 75.5555 95.7257 75.7501 97.2639 76.0634C98.0339 76.2202 98.65 76.4057 99.0711 76.6085C99.2819 76.71 99.4382 76.8132 99.5403 76.9149C99.6422 77.0163 99.6827 77.1082 99.6827 77.1905Z" stroke="#FFC177" stroke-width="0.212606"/>
<g style="mix-blend-mode:multiply" opacity="0.5">
<ellipse cx="91.2477" cy="77.1896" rx="10.1266" ry="2.22961" fill="#FF981D"/>
</g>
<path d="M102.474 76.759H102.478V74.4718C102.478 73.2404 97.944 72.2422 92.3512 72.2422C86.7584 72.2422 82.2246 73.2404 82.2246 74.4718V76.759H82.2279C82.3665 77.9638 86.8458 78.931 92.3512 78.931C97.8566 78.931 102.336 77.9638 102.474 76.759Z" fill="#FFA318"/>
<path d="M82.2405 74.4717H82.2236V76.7589H82.2269C82.3655 77.9637 86.8448 78.9309 92.3502 78.9309C97.8556 78.9309 102.335 77.9637 102.474 76.7589H102.477V74.4717H102.46C102.156 75.6429 97.7459 76.572 92.3502 76.572C86.9545 76.572 82.5447 75.6429 82.2405 74.4717Z" fill="url(#paint9_linear)"/>
<path fill-rule="evenodd" clip-rule="evenodd" d="M82.6094 74.9543V77.3134C82.7386 77.4134 82.8987 77.5105 83.0873 77.6042V75.2451C82.8987 75.1514 82.7386 75.0543 82.6094 74.9543ZM83.6127 75.4706V77.8296C83.7615 77.8854 83.921 77.9396 84.0906 77.9921V75.6331C83.921 75.5806 83.7615 75.5264 83.6127 75.4706ZM84.6163 75.7822V78.1412C84.7695 78.1811 84.9289 78.2198 85.0943 78.2571V75.8982C84.9289 75.8608 84.7695 75.8221 84.6163 75.7822ZM85.6191 76.0087V78.3677C85.7742 78.3981 85.9336 78.4274 86.097 78.4557V76.0967C85.9336 76.0685 85.7742 76.0391 85.6191 76.0087ZM86.6219 76.1817V78.5407C86.7781 78.5644 86.9374 78.587 87.0998 78.6088V76.2498C86.9374 76.2281 86.7781 76.2054 86.6219 76.1817ZM87.6255 76.3155V78.6744C87.7824 78.6927 87.9418 78.7101 88.1034 78.7265V76.3676C87.9418 76.3511 87.7824 76.3337 87.6255 76.3155ZM88.6291 76.4172V78.7761C88.7866 78.7898 88.9459 78.8027 89.1071 78.8147V76.4557C88.9459 76.4437 88.7866 76.4309 88.6291 76.4172ZM89.6328 76.4913V78.8503C89.7906 78.8599 89.9499 78.8688 90.1107 78.8768V76.5178C89.9499 76.5098 89.7906 76.501 89.6328 76.4913ZM90.6355 76.5407V78.8996C90.7936 78.9056 90.953 78.9107 91.1135 78.915V76.5561C90.953 76.5518 90.7936 76.5466 90.6355 76.5407ZM91.64 76.5671V78.9261C91.7984 78.9285 91.9577 78.9301 92.1179 78.9309V76.572C91.9577 76.5712 91.7984 76.5695 91.64 76.5671ZM92.6428 76.5716V78.9306C92.8031 78.9296 92.9624 78.9278 93.1207 78.9251V76.5662C92.9624 76.5688 92.8031 76.5706 92.6428 76.5716ZM93.6456 76.5545V78.9134C93.8061 78.9089 93.9654 78.9036 94.1235 78.8974V76.5385C93.9654 76.5446 93.8061 76.55 93.6456 76.5545ZM94.6501 76.5148V78.8737C94.8109 78.8655 94.9702 78.8565 95.128 78.8466V76.4876C94.9702 76.4975 94.8109 76.5066 94.6501 76.5148ZM95.6528 76.4513V78.8102C95.814 78.798 95.9734 78.7849 96.1307 78.7709V76.412C95.9734 76.4259 95.814 76.439 95.6528 76.4513ZM96.6573 76.3614V78.7204C96.819 78.7036 96.9784 78.6859 97.1352 78.6674V76.3084C96.9784 76.327 96.819 76.3447 96.6573 76.3614ZM97.6601 76.2418V78.6008C97.8225 78.5787 97.9819 78.5557 98.138 78.5317V76.1727C97.9819 76.1967 97.8225 76.2198 97.6601 76.2418ZM98.6646 76.0861V78.4451C98.8281 78.4164 98.9875 78.3865 99.1425 78.3556V75.9967C98.9875 76.0275 98.8281 76.0574 98.6646 76.0861ZM99.6674 75.8843V78.2433C99.8328 78.2052 99.9923 78.1658 100.145 78.1253V75.7663C99.9923 75.8068 99.8328 75.8462 99.6674 75.8843ZM100.672 75.6138V77.9728C100.842 77.9189 101.001 77.8633 101.15 77.8062V75.4471C101.001 75.5043 100.842 75.5599 100.672 75.6138ZM101.675 75.2141V77.5732C101.867 77.4736 102.027 77.3703 102.153 77.2639V74.916H102.139C102.016 75.0185 101.86 75.118 101.675 75.2141Z" fill="#FF9211"/>
<g style="mix-blend-mode:multiply">
<path fill-rule="evenodd" clip-rule="evenodd" d="M100.836 74.6684C100.893 74.5873 100.923 74.5043 100.923 74.4199C100.923 73.4583 97.0954 72.6787 92.374 72.6787C87.6526 72.6787 83.8252 73.4583 83.8252 74.4199C83.8252 74.5039 83.8544 74.5865 83.9108 74.6673C84.5027 73.8233 88.066 73.1745 92.3732 73.1745C96.6824 73.1745 100.247 73.8239 100.836 74.6684Z" fill="#FFC177"/>
</g>
<path d="M100.816 74.4199C100.816 74.5022 100.776 74.5941 100.674 74.6955C100.572 74.7972 100.416 74.9004 100.205 75.0019C99.7838 75.2047 99.1677 75.3902 98.3977 75.547C96.8595 75.8603 94.7298 76.0549 92.374 76.0549C90.0182 76.0549 87.8885 75.8603 86.3503 75.547C85.5803 75.3902 84.9642 75.2047 84.5431 75.0019C84.3323 74.9004 84.176 74.7972 84.0739 74.6955C83.972 74.5941 83.9315 74.5022 83.9315 74.4199C83.9315 74.3377 83.972 74.2458 84.0739 74.1444C84.176 74.0427 84.3323 73.9395 84.5431 73.838C84.9642 73.6352 85.5803 73.4497 86.3503 73.2929C87.8885 72.9796 90.0182 72.785 92.374 72.785C94.7298 72.785 96.8595 72.9796 98.3977 73.2929C99.1677 73.4497 99.7838 73.6352 100.205 73.838C100.416 73.9395 100.572 74.0427 100.674 74.1444C100.776 74.2458 100.816 74.3377 100.816 74.4199Z" stroke="#FFC177" stroke-width="0.212606"/>
<g style="mix-blend-mode:multiply" opacity="0.5">
<ellipse cx="92.3834" cy="74.421" rx="10.1266" ry="2.22961" fill="#FF981D"/>
</g>
<path d="M101.636 74.0842H101.639V71.797C101.639 70.5656 97.1051 69.5674 91.5123 69.5674C85.9195 69.5674 81.3857 70.5656 81.3857 71.797V74.0842H81.389C81.5276 75.289 86.0069 76.2562 91.5123 76.2562C97.0177 76.2562 101.497 75.289 101.636 74.0842Z" fill="#FFA318"/>
<path d="M81.4016 71.7969H81.3848V74.0841H81.3881C81.5267 75.2889 86.0059 76.2561 91.5113 76.2561C97.0168 76.2561 101.496 75.2889 101.635 74.0841H101.638V71.7969H101.621C101.317 72.9681 96.907 73.8972 91.5113 73.8972C86.1156 73.8972 81.7058 72.9681 81.4016 71.7969Z" fill="url(#paint10_linear)"/>
<path fill-rule="evenodd" clip-rule="evenodd" d="M81.7705 72.2809V74.64C81.8998 74.7399 82.0599 74.837 82.2484 74.9306V72.5716C82.0599 72.4779 81.8997 72.3809 81.7705 72.2809ZM82.7742 72.7971V75.1561C82.923 75.2119 83.0825 75.2661 83.2521 75.3186V72.9596C83.0825 72.9071 82.923 72.8529 82.7742 72.7971ZM83.777 73.1085V75.4675C83.9302 75.5073 84.0896 75.546 84.2549 75.5834V73.2244C84.0896 73.187 83.9302 73.1483 83.777 73.1085ZM84.7815 73.3352V75.6942C84.9366 75.7246 85.096 75.754 85.2594 75.7822V73.4233C85.096 73.395 84.9366 73.3656 84.7815 73.3352ZM85.7842 73.5082V75.8672C85.9404 75.8908 86.0998 75.9135 86.2621 75.9352V73.5762C86.0998 73.5545 85.9404 73.5318 85.7842 73.5082ZM86.787 73.6418V76.0007C86.9439 76.019 87.1033 76.0364 87.2649 76.0528V73.6939C87.1033 73.6774 86.9439 73.66 86.787 73.6418ZM87.7906 73.7435V76.1024C87.948 76.1161 88.1074 76.129 88.2685 76.141V73.782C88.1074 73.77 87.948 73.7572 87.7906 73.7435ZM88.7951 73.8176V76.1766C88.9529 76.1862 89.1122 76.1951 89.273 76.2031V73.8441C89.1122 73.8361 88.9529 73.8273 88.7951 73.8176ZM89.7988 73.867V76.226C89.9568 76.2319 90.1162 76.237 90.2767 76.2413V73.8823C90.1162 73.8781 89.9568 73.8729 89.7988 73.867ZM90.8007 73.8933V76.2523C90.959 76.2547 91.1183 76.2563 91.2786 76.2571V73.8982C91.1183 73.8974 90.959 73.8958 90.8007 73.8933ZM91.8052 73.8978V76.2568C91.9654 76.2558 92.1247 76.2539 92.2831 76.2513V73.8924C92.1248 73.895 91.9654 73.8968 91.8052 73.8978ZM92.8079 73.8806V76.2396C92.9684 76.2351 93.1278 76.2297 93.2858 76.2236V73.8646C93.1278 73.8708 92.9684 73.8761 92.8079 73.8806ZM93.8124 73.8409V76.1999C93.9732 76.1916 94.1326 76.1826 94.2903 76.1727V73.8137C94.1326 73.8236 93.9732 73.8327 93.8124 73.8409ZM94.8152 73.7774V76.1363C94.9764 76.1241 95.1357 76.111 95.2931 76.097V73.738C95.1357 73.752 94.9764 73.7651 94.8152 73.7774ZM95.818 73.6876V76.0466C95.9796 76.0298 96.139 76.0122 96.2959 75.9936V73.6346C96.139 73.6532 95.9796 73.6709 95.818 73.6876ZM96.8216 73.5679V75.9269C96.984 75.9048 97.1433 75.8818 97.2995 75.8578V73.4988C97.1433 73.5228 96.984 73.5459 96.8216 73.5679ZM97.8252 73.4123V75.7713C97.9887 75.7426 98.1481 75.7127 98.3031 75.6818V73.3229C98.1481 73.3537 97.9887 73.3836 97.8252 73.4123ZM98.8297 73.2101V75.5691C98.9952 75.531 99.1546 75.4916 99.3076 75.451V73.092C99.1546 73.1326 98.9952 73.172 98.8297 73.2101ZM99.8325 72.94V75.299C100.003 75.2451 100.162 75.1895 100.31 75.1324V72.7733C100.162 72.8305 100.003 72.8861 99.8325 72.94ZM100.836 72.5399V74.8989C101.028 74.7993 101.189 74.6959 101.314 74.5894V72.2422H101.3C101.177 72.3445 101.021 72.4439 100.836 72.5399Z" fill="#FF9211"/>
<g style="mix-blend-mode:multiply">
<path fill-rule="evenodd" clip-rule="evenodd" d="M99.9997 71.9939C100.056 71.9133 100.085 71.8309 100.085 71.7471C100.085 70.7854 96.2575 70.0059 91.5361 70.0059C86.8147 70.0059 82.9873 70.7854 82.9873 71.7471C82.9873 71.831 83.0165 71.9136 83.0728 71.9944C83.6614 71.1496 87.2264 70.5 91.5364 70.5C95.8456 70.5 99.4102 71.1494 99.9997 71.9939Z" fill="#FFC177"/>
</g>
<path d="M99.9786 71.7471C99.9786 71.8294 99.9381 71.9212 99.8362 72.0227C99.7341 72.1244 99.5778 72.2276 99.367 72.3291C98.9459 72.5319 98.3298 72.7173 97.5598 72.8742C96.0216 73.1875 93.8919 73.382 91.5361 73.382C89.1803 73.382 87.0506 73.1875 85.5124 72.8742C84.7424 72.7173 84.1263 72.5319 83.7052 72.3291C83.4945 72.2276 83.3382 72.1244 83.236 72.0227C83.1341 71.9212 83.0936 71.8294 83.0936 71.7471C83.0936 71.6648 83.1341 71.573 83.236 71.4715C83.3382 71.3698 83.4945 71.2666 83.7052 71.1651C84.1263 70.9623 84.7424 70.7768 85.5124 70.62C87.0506 70.3067 89.1803 70.1122 91.5361 70.1122C93.8919 70.1122 96.0216 70.3067 97.5598 70.62C98.3298 70.7768 98.9459 70.9623 99.367 71.1651C99.5778 71.2666 99.7341 71.3698 99.8362 71.4715C99.9381 71.573 99.9786 71.6648 99.9786 71.7471Z" stroke="#FFC177" stroke-width="0.212606"/>
<g style="mix-blend-mode:multiply" opacity="0.5">
<ellipse cx="91.5416" cy="71.7462" rx="10.1266" ry="2.22961" fill="#FF981D"/>
</g>
<path d="M102.768 71.3146H102.772V69.0274C102.772 67.7961 98.2379 66.7979 92.6451 66.7979C87.0523 66.7979 82.5186 67.7961 82.5186 69.0274V71.3146H82.5218C82.6604 72.5195 87.1397 73.4867 92.6451 73.4867C98.1505 73.4867 102.63 72.5195 102.768 71.3146Z" fill="#FFA318"/>
<path d="M82.5354 69.0273H82.5186V71.3145H82.5218C82.6604 72.5194 87.1397 73.4866 92.6451 73.4866C98.1505 73.4866 102.63 72.5194 102.768 71.3145H102.772V69.0273H102.755C102.451 70.1985 98.0408 71.1277 92.6451 71.1277C87.2494 71.1277 82.8396 70.1985 82.5354 69.0273Z" fill="url(#paint11_linear)"/>
<path fill-rule="evenodd" clip-rule="evenodd" d="M82.9043 69.5095V71.8685C83.0335 71.9685 83.1936 72.0655 83.3822 72.1592V69.8002C83.1936 69.7065 83.0335 69.6094 82.9043 69.5095ZM83.9088 70.026V72.385C84.0576 72.4407 84.2171 72.4949 84.3867 72.5474V70.1884C84.2171 70.1359 84.0576 70.0817 83.9088 70.026ZM84.9107 70.337V72.696C85.0639 72.7358 85.2233 72.7745 85.3886 72.8119V70.4529C85.2233 70.4155 85.0639 70.3768 84.9107 70.337ZM85.9143 70.5636V72.9226C86.0694 72.953 86.2288 72.9823 86.3922 73.0106V70.6516C86.2288 70.6233 86.0694 70.594 85.9143 70.5636ZM86.918 70.7367V73.0957C87.0742 73.1193 87.2335 73.142 87.3959 73.1637V70.8047C87.2335 70.783 87.0742 70.7604 86.918 70.7367ZM87.9216 70.8704V73.2294C88.0785 73.2476 88.2378 73.265 88.3995 73.2814V70.9225C88.2378 70.906 88.0785 70.8886 87.9216 70.8704ZM88.9244 70.972V73.3309C89.0818 73.3446 89.2411 73.3575 89.4023 73.3695V71.0105C89.2411 70.9985 89.0818 70.9857 88.9244 70.972ZM89.928 71.0461V73.4051C90.0858 73.4147 90.2451 73.4235 90.4059 73.4315V71.0726C90.2451 71.0646 90.0858 71.0558 89.928 71.0461ZM90.9316 71.0955V73.4544C91.0897 73.4604 91.249 73.4655 91.4095 73.4698V71.1108C91.249 71.1065 91.0897 71.1014 90.9316 71.0955ZM91.9353 71.1219V73.4808C92.0936 73.4832 92.2529 73.4848 92.4132 73.4856V71.1267C92.2529 71.1259 92.0936 71.1243 91.9353 71.1219ZM92.9389 71.1263V73.4853C93.0991 73.4843 93.2585 73.4825 93.4168 73.4798V71.1209C93.2585 71.1235 93.0991 71.1253 92.9389 71.1263ZM93.9417 71.1091V73.4681C94.1022 73.4636 94.2615 73.4582 94.4196 73.4521V71.0931C94.2615 71.0993 94.1022 71.1046 93.9417 71.1091ZM94.9461 71.0694V73.4284C95.1069 73.4202 95.2663 73.4111 95.424 73.4012V71.0422C95.2663 71.0521 95.1069 71.0612 94.9461 71.0694ZM95.9489 71.0059V73.3648C96.1101 73.3526 96.2694 73.3395 96.4268 73.3255V70.9666C96.2694 70.9805 96.1101 70.9936 95.9489 71.0059ZM96.9534 70.916V73.2749C97.1151 73.2582 97.2744 73.2405 97.4313 73.2219V70.863C97.2744 70.8815 97.1151 70.8992 96.9534 70.916ZM97.9562 70.7963V73.1553C98.1186 73.1332 98.2779 73.1102 98.4341 73.0862V70.7272C98.2779 70.7512 98.1186 70.7742 97.9562 70.7963ZM98.9598 70.6407V72.9997C99.1233 72.9709 99.2827 72.9411 99.4377 72.9102V70.5512C99.2827 70.5821 99.1233 70.6119 98.9598 70.6407ZM99.9626 70.4388V72.7978C100.128 72.7597 100.287 72.7203 100.44 72.6798V70.3208C100.287 70.3613 100.128 70.4007 99.9626 70.4388ZM100.967 70.1682V72.5273C101.137 72.4734 101.297 72.4178 101.445 72.3605V70.0015C101.297 70.0587 101.137 70.1144 100.967 70.1682ZM101.97 69.7684V72.1274C102.162 72.0278 102.322 71.9244 102.448 71.8179V69.4707H102.434C102.31 69.573 102.155 69.6724 101.97 69.7684Z" fill="#FF9211"/>
<g style="mix-blend-mode:multiply">
<path fill-rule="evenodd" clip-rule="evenodd" d="M101.132 69.2231C101.188 69.1423 101.218 69.0596 101.218 68.9756C101.218 68.014 97.3903 67.2344 92.6689 67.2344C87.9475 67.2344 84.1201 68.014 84.1201 68.9756C84.1201 69.0598 84.1494 69.1425 84.2061 69.2235C84.7961 68.379 88.3603 67.7298 92.6692 67.7298C96.9774 67.7298 100.541 68.3789 101.132 69.2231Z" fill="#FFC177"/>
</g>
<path d="M101.111 68.9756C101.111 69.0579 101.071 69.1497 100.969 69.2512C100.867 69.3529 100.711 69.4561 100.5 69.5576C100.079 69.7604 99.4626 69.9459 98.6926 70.1027C97.1545 70.416 95.0247 70.6105 92.6689 70.6105C90.3131 70.6105 88.1834 70.416 86.6452 70.1027C85.8753 69.9459 85.2591 69.7604 84.838 69.5576C84.6273 69.4561 84.471 69.3529 84.3688 69.2512C84.2669 69.1497 84.2264 69.0579 84.2264 68.9756C84.2264 68.8933 84.2669 68.8015 84.3688 68.7C84.471 68.5983 84.6273 68.4951 84.838 68.3936C85.2591 68.1908 85.8753 68.0054 86.6452 67.8485C88.1834 67.5352 90.3131 67.3407 92.6689 67.3407C95.0247 67.3407 97.1545 67.5352 98.6926 67.8485C99.4626 68.0054 100.079 68.1908 100.5 68.3936C100.711 68.4951 100.867 68.5983 100.969 68.7C101.071 68.8015 101.111 68.8933 101.111 68.9756Z" stroke="#FFC177" stroke-width="0.212606"/>
<g style="mix-blend-mode:multiply" opacity="0.5">
<ellipse cx="92.6764" cy="68.9767" rx="10.1266" ry="2.22961" fill="#FF981D"/>
</g>
<path d="M22.0053 40.3205C21.8658 36.1831 25.1593 32.7418 29.2988 32.6996L85.6806 32.1248C89.7817 32.0829 93.1286 35.3959 93.1286 39.4972V73.2624C93.1286 77.3343 89.8277 80.6352 85.7558 80.6352H30.4929C26.5177 80.6352 23.2582 77.4838 23.1243 73.5108L22.0053 40.3205Z" fill="#1F2337"/>
<rect x="21.0127" y="33.0088" width="69.7641" height="48.5864" rx="7.37283" fill="url(#paint12_linear)"/>
<rect x="21.0127" y="33.0088" width="69.7641" height="48.5864" rx="7.37283" fill="url(#paint13_radial)" fill-opacity="0.5"/>
<rect x="23.75" y="36.3262" width="64.9986" height="41.9345" rx="7.37283" stroke="#F6F6FF" stroke-width="0.708761" stroke-linecap="round" stroke-dasharray="3.07 3.07"/>
<g filter="url(#filter0_d)">
<path d="M55.8944 12.9336C54.1684 16.0372 46.7921 19.5933 42.0322 18.9738C41.5869 25.36 45.2052 38.024 55.8944 43.9094C66.5836 38.024 70.2021 25.36 69.7567 18.9738C64.9968 19.5933 57.6204 16.0372 55.8944 12.9336Z" fill="#FFA318"/>
<path d="M61.5809 25.8328C60.1362 24.4013 57.8109 24.412 56.3794 25.8566C56.0748 26.164 55.8317 26.5322 55.6193 26.931L49.194 26.9604L47.6711 28.4972L49.208 30.0201L50.1217 29.098L51.0438 30.0117L51.9575 29.0896L52.8796 30.0033L55.6333 29.9907C55.8186 30.357 56.0651 30.7231 56.4032 31.0581C57.8478 32.4896 60.1732 32.4789 61.6046 31.0343C63.0361 29.5897 63.0255 27.2643 61.5809 25.8328ZM59.6082 29.3606C59.0856 28.8428 59.082 28.0473 59.5998 27.5247C60.1175 27.0022 60.9131 26.9986 61.4356 27.5164C61.9581 28.0341 61.9618 28.8296 61.444 29.3522C60.9262 29.8747 60.1307 29.8784 59.6082 29.3606Z" fill="#F6F6FF"/>
<g style="mix-blend-mode:multiply">
<path d="M55.8945 43.7922C66.5837 37.9067 70.2021 25.2427 69.7568 18.8565C64.9969 19.476 57.6206 15.9199 55.8945 12.8164V43.7922Z" fill="#FFA318" fill-opacity="0.3"/>
</g>
</g>
<g filter="url(#filter1_d)">
<path d="M71.1602 55.1287C71.1602 51.4322 74.1568 48.4355 77.8533 48.4355H89.9837C91.1714 48.4355 92.1341 49.3983 92.1341 50.586V59.6715C92.1341 60.8591 91.1714 61.8219 89.9837 61.8219H77.8533C74.1568 61.8219 71.1602 58.8252 71.1602 55.1287Z" fill="#FF9211"/>
</g>
<circle cx="77.7822" cy="55.1289" r="2.16503" transform="rotate(-90 77.7822 55.1289)" fill="#1F2337"/>
<path d="M84.5395 52.6088L79.9685 54.262C79.1576 54.5553 79.1576 55.702 79.9685 55.9953L84.5395 57.6486C85.1403 57.8659 85.7746 57.4209 85.7746 56.782V53.4755C85.7746 52.8366 85.1403 52.3915 84.5395 52.6088Z" fill="#1F2337"/>
<path d="M93.173 47.4971L90.7197 48.4784V61.788L93.173 60.8373V47.4971Z" fill="#D17B14"/>
<g style="mix-blend-mode:lighten">
<path d="M90.03 49.845C90.3236 49.845 90.5616 49.6071 90.5616 49.3135C90.5616 49.0199 90.3236 48.7819 90.03 48.7819V49.845ZM77.0615 49.3135V48.7819C77.0406 48.7819 77.0197 48.7831 76.999 48.7856L77.0615 49.3135ZM71.4223 55.0587C71.3835 55.3497 71.5879 55.617 71.8789 55.6559C72.1699 55.6947 72.4373 55.4902 72.4761 55.1992L71.4223 55.0587ZM90.03 48.7819H77.0615V49.845H90.03V48.7819ZM76.999 48.7856C75.0575 49.0154 72.0135 50.6263 71.4223 55.0587L72.4761 55.1992C72.9946 51.312 75.598 50.022 77.124 49.8414L76.999 48.7856Z" fill="#FFECBC"/>
</g>
<path fill-rule="evenodd" clip-rule="evenodd" d="M79.3514 54.1257L79.3862 54.1237L79.5259 54.4223L81.9934 53.5571L84.9124 52.5014C85.413 52.3203 85.9416 52.6912 85.9416 53.2236V53.3897L86.2488 53.6569V53.2236C86.2488 52.4782 85.5088 51.959 84.8079 52.2125L79.7094 54.0564C79.6956 54.0614 79.682 54.0666 79.6687 54.072C79.2972 53.298 78.5061 52.7637 77.5902 52.7637C76.3279 52.7637 75.3027 53.7786 75.2861 55.0369C75.3814 54.9562 75.4948 54.8616 75.6166 54.7608C75.7643 53.8037 76.5917 53.0709 77.5902 53.0709C78.3524 53.0709 79.0148 53.4979 79.3514 54.1257Z" fill="#FFECBC"/>
<defs>
<filter id="filter0_d" x="35.8521" y="7.90118" width="40.0849" height="43.3811" filterUnits="userSpaceOnUse" color-interpolation-filters="sRGB">
<feFlood flood-opacity="0" result="BackgroundImageFix"/>
<feColorMatrix in="SourceAlpha" type="matrix" values="0 0 0 0 0 0 0 0 0 0 0 0 0 0 0 0 0 0 127 0"/>
<feOffset dy="1.22881"/>
<feGaussianBlur stdDeviation="3.07201"/>
<feColorMatrix type="matrix" values="0 0 0 0 1 0 0 0 0 0.6 0 0 0 0 0 0 0 0 0.54 0"/>
<feBlend mode="normal" in2="BackgroundImageFix" result="effect1_dropShadow"/>
<feBlend mode="normal" in="SourceGraphic" in2="effect1_dropShadow" result="shape"/>
</filter>
<filter id="filter1_d" x="69.9314" y="48.4355" width="23.4316" height="15.8439" filterUnits="userSpaceOnUse" color-interpolation-filters="sRGB">
<feFlood flood-opacity="0" result="BackgroundImageFix"/>
<feColorMatrix in="SourceAlpha" type="matrix" values="0 0 0 0 0 0 0 0 0 0 0 0 0 0 0 0 0 0 127 0"/>
<feOffset dy="1.22881"/>
<feGaussianBlur stdDeviation="0.614403"/>
<feColorMatrix type="matrix" values="0 0 0 0 0 0 0 0 0 0 0 0 0 0 0 0 0 0 0.5 0"/>
<feBlend mode="normal" in2="BackgroundImageFix" result="effect1_dropShadow"/>
<feBlend mode="normal" in="SourceGraphic" in2="effect1_dropShadow" result="shape"/>
</filter>
<linearGradient id="paint0_linear" x1="5.42738" y1="75.6131" x2="21.6485" y2="74.8361" gradientUnits="userSpaceOnUse">
<stop stop-color="#FF9211"/>
<stop offset="0.53395" stop-color="#FFC581"/>
<stop offset="1" stop-color="#FF9211"/>
</linearGradient>
<linearGradient id="paint1_linear" x1="6.44398" y1="73.1288" x2="22.6651" y2="72.3517" gradientUnits="userSpaceOnUse">
<stop stop-color="#FF9211"/>
<stop offset="0.53395" stop-color="#FFC581"/>
<stop offset="1" stop-color="#FF9211"/>
</linearGradient>
<linearGradient id="paint2_linear" x1="5.69203" y1="70.7294" x2="21.9131" y2="69.9523" gradientUnits="userSpaceOnUse">
<stop stop-color="#FF9211"/>
<stop offset="0.53395" stop-color="#FFC581"/>
<stop offset="1" stop-color="#FF9211"/>
</linearGradient>
<linearGradient id="paint3_linear" x1="6.70863" y1="68.246" x2="22.9297" y2="67.4689" gradientUnits="userSpaceOnUse">
<stop stop-color="#FF9211"/>
<stop offset="0.53395" stop-color="#FFC581"/>
<stop offset="1" stop-color="#FF9211"/>
</linearGradient>
<linearGradient id="paint4_linear" x1="13.06" y1="79.4708" x2="31.1448" y2="78.6045" gradientUnits="userSpaceOnUse">
<stop stop-color="#FF9211"/>
<stop offset="0.53395" stop-color="#FFC581"/>
<stop offset="1" stop-color="#FF9211"/>
</linearGradient>
<linearGradient id="paint5_linear" x1="14.1958" y1="76.7013" x2="32.2805" y2="75.835" gradientUnits="userSpaceOnUse">
<stop stop-color="#FF9211"/>
<stop offset="0.53395" stop-color="#FFC581"/>
<stop offset="1" stop-color="#FF9211"/>
</linearGradient>
<linearGradient id="paint6_linear" x1="13.3559" y1="74.0265" x2="31.4407" y2="73.1602" gradientUnits="userSpaceOnUse">
<stop stop-color="#FF9211"/>
<stop offset="0.53395" stop-color="#FFC581"/>
<stop offset="1" stop-color="#FF9211"/>
</linearGradient>
<linearGradient id="paint7_linear" x1="14.4878" y1="71.256" x2="32.5725" y2="70.3897" gradientUnits="userSpaceOnUse">
<stop stop-color="#FF9211"/>
<stop offset="0.53395" stop-color="#FFC581"/>
<stop offset="1" stop-color="#FF9211"/>
</linearGradient>
<linearGradient id="paint8_linear" x1="83.2583" y1="79.4708" x2="101.343" y2="78.6045" gradientUnits="userSpaceOnUse">
<stop stop-color="#FF9211"/>
<stop offset="0.53395" stop-color="#FFC581"/>
<stop offset="1" stop-color="#FF9211"/>
</linearGradient>
<linearGradient id="paint9_linear" x1="84.392" y1="76.7013" x2="102.477" y2="75.835" gradientUnits="userSpaceOnUse">
<stop stop-color="#FF9211"/>
<stop offset="0.53395" stop-color="#FFC581"/>
<stop offset="1" stop-color="#FF9211"/>
</linearGradient>
<linearGradient id="paint10_linear" x1="83.5532" y1="74.0265" x2="101.638" y2="73.1602" gradientUnits="userSpaceOnUse">
<stop stop-color="#FF9211"/>
<stop offset="0.53395" stop-color="#FFC581"/>
<stop offset="1" stop-color="#FF9211"/>
</linearGradient>
<linearGradient id="paint11_linear" x1="84.687" y1="71.257" x2="102.772" y2="70.3907" gradientUnits="userSpaceOnUse">
<stop stop-color="#FF9211"/>
<stop offset="0.53395" stop-color="#FFC581"/>
<stop offset="1" stop-color="#FF9211"/>
</linearGradient>
<linearGradient id="paint12_linear" x1="55.0402" y1="88.8405" x2="55.8947" y2="20.9843" gradientUnits="userSpaceOnUse">
<stop stop-color="#47526A"/>
<stop offset="1" stop-color="#F52079"/>
</linearGradient>
<radialGradient id="paint13_radial" cx="0" cy="0" r="1" gradientUnits="userSpaceOnUse" gradientTransform="translate(55.8947 27.6715) rotate(90) scale(29.6305 42.5457)">
<stop stop-color="#FFA318"/>
<stop offset="1" stop-color="#FFA318" stop-opacity="0"/>
</radialGradient>
</defs>
</svg>
