<svg width="23" height="21" viewBox="0 0 23 21" fill="none" xmlns="http://www.w3.org/2000/svg">
<path d="M15.0153 12.2089C15.0153 11.8787 15.1134 11.5559 15.2972 11.2813C15.481 11.0068 15.7423 10.7928 16.0479 10.6664C16.3535 10.5401 16.6899 10.507 17.0143 10.5714C17.3388 10.6359 17.6369 10.7949 17.8708 11.0284C18.1047 11.2618 18.264 11.5593 18.3286 11.8832C18.3931 12.207 18.36 12.5427 18.2334 12.8478C18.1068 13.1529 17.8924 13.4136 17.6173 13.5971C17.3422 13.7805 17.0188 13.8784 16.688 13.8784C16.2444 13.8784 15.8189 13.7025 15.5052 13.3894C15.1915 13.0763 15.0153 12.6517 15.0153 12.2089ZM22.5424 7.20026V18.0523C22.5418 18.6056 22.3213 19.1361 21.9294 19.5273C21.5374 19.9186 21.0059 20.1386 20.4516 20.1393H3.72463C2.94855 20.1384 2.2045 19.8303 1.65573 19.2826C1.10696 18.7348 0.798278 17.9922 0.79742 17.2175V4.29806C0.794843 3.85793 0.879473 3.42162 1.04644 3.01425C1.21341 2.60688 1.45942 2.23647 1.77032 1.92434C2.08123 1.61221 2.45089 1.3645 2.85805 1.19548C3.26521 1.02646 3.70183 0.939446 4.14281 0.939453H17.9425C18.2752 0.939453 18.5943 1.07138 18.8296 1.3062C19.0649 1.54103 19.197 1.85952 19.197 2.19161C19.197 2.52371 19.0649 2.8422 18.8296 3.07703C18.5943 3.31185 18.2752 3.44377 17.9425 3.44377H4.14281C3.92163 3.44377 3.70945 3.53122 3.55271 3.68698C3.39597 3.84274 3.30743 4.05413 3.30646 4.2749V4.28481C3.30656 4.29316 3.30667 4.30171 3.30698 4.31027C3.32368 4.53184 3.42483 4.73859 3.58963 4.88797C3.75442 5.03736 3.97032 5.11801 4.19288 5.11332H20.4516C21.0059 5.11393 21.5374 5.334 21.9294 5.72524C22.3213 6.11649 22.5418 6.64695 22.5424 7.20026ZM20.0334 7.61764H4.19299C3.89383 7.61798 3.59587 7.57986 3.30646 7.50422V17.2175C3.30657 17.3282 3.35066 17.4343 3.42906 17.5126C3.50746 17.5908 3.61376 17.6348 3.72463 17.6349H20.0334V7.61764Z" fill="#75758F"/>
</svg>
