<svg width="37" height="38" viewBox="0 0 37 38" fill="none" xmlns="http://www.w3.org/2000/svg">
<path d="M18.5303 36.6944C27.9405 36.6944 35.5303 28.8958 35.5303 19.3242C35.5303 9.75265 27.9405 1.9541 18.5303 1.9541C9.12 1.9541 1.53027 9.75265 1.53027 19.3242C1.53027 28.8958 9.12 36.6944 18.5303 36.6944Z" stroke="#323754" stroke-width="2"/>
<path fill-rule="evenodd" clip-rule="evenodd" d="M11.1118 15.0258H23.4933C24.0189 15.0258 24.5226 15.245 24.8942 15.635C25.2658 16.0263 25.4746 16.555 25.4746 17.1073V25.4292C25.4746 25.9815 25.2658 26.5102 24.8942 26.9001C24.5226 27.29 24.0189 27.5093 23.4933 27.5093H11.6069C11.0817 27.5093 10.5776 27.29 10.2064 26.9001C9.83474 26.5102 9.62598 25.9815 9.62598 25.4292V15.0258C9.62598 13.8823 10.5086 12.8138 11.5871 12.6515L21.5332 11.1597C22.6107 10.9987 23.4933 11.8008 23.4933 12.9457V14.5068H22.0075C22.2006 13.5994 21.4407 12.7727 20.5203 12.8888L11.9746 13.9663C11.4502 14.0324 11.0704 14.4989 11.1118 15.0258ZM12.3908 16.529C11.6436 16.529 11.0378 17.1645 11.0378 17.95V24.5119C11.0378 25.2959 11.6436 25.9329 12.3908 25.9329H22.7098C23.457 25.9329 24.0628 25.2959 24.0628 24.5119V17.95C24.0628 17.4698 23.8368 17.0466 23.491 16.7885C23.2703 16.6247 23.0008 16.529 22.7098 16.529H12.3908Z" fill="#323754"/>
<ellipse cx="21.383" cy="21.1847" rx="1.03872" ry="1.0909" fill="#323754"/>
<path d="M26.8515 20.7336C26.8552 20.7324 26.8589 20.7312 26.8626 20.73C28.4996 20.1945 29.4133 18.3668 28.9035 16.6475C28.3979 14.9429 26.6826 13.985 25.0579 14.4909C24.9103 14.0053 24.7702 13.5468 24.6445 13.1376C26.986 12.3906 29.4664 13.7672 30.1953 16.225C30.9273 18.6935 29.6154 21.3179 27.265 22.0867C27.0357 22.1617 26.8049 22.2163 26.5745 22.2514C26.8123 21.8648 26.9422 21.3652 26.8515 20.7336Z" fill="#323754"/>
</svg>
