<svg width="25" height="25" viewBox="0 0 25 25" fill="none" xmlns="http://www.w3.org/2000/svg">
<path d="M14.5156 15.5353C14.5156 16.7947 15.5383 17.8223 16.8016 17.8223H20.6726V20.0063C20.6726 20.3966 20.3575 20.7103 19.9736 20.7103H3.85658C3.47205 20.7103 3.15658 20.396 3.15658 20.0063V8.26128C3.15658 7.87595 3.46965 7.56228 3.85658 7.56228H19.9736C20.3599 7.56228 20.6726 7.87535 20.6726 8.26128V10.4513H16.8016C15.5394 10.4513 14.5156 11.4747 14.5156 12.7363V15.5353Z" stroke="white" stroke-width="1.2"/>
<path d="M21.1935 11.9723H16.8016C16.3786 11.9723 16.0396 12.3163 16.0396 12.7373V15.5363C16.0396 15.9583 16.3786 16.2983 16.8016 16.2983H21.1935C21.6155 16.2983 21.9566 15.9583 21.9566 15.5363V12.7373C21.9566 12.3163 21.6155 11.9723 21.1935 11.9723ZM18.3146 15.2353C17.7086 15.2353 17.2146 14.7443 17.2146 14.1353C17.2146 13.5283 17.7076 13.0353 18.3146 13.0353C18.9216 13.0353 19.4146 13.5273 19.4146 14.1353C19.4146 14.7433 18.9216 15.2353 18.3146 15.2353Z" fill="white"/>
<path d="M17.7096 4.58132C17.4186 3.70132 16.4696 3.22432 15.5896 3.51432L8.9856 5.69632H18.0776L17.7096 4.58132Z" fill="white"/>
</svg>
