<svg width="465" height="283" viewBox="0 0 465 283" fill="none" xmlns="http://www.w3.org/2000/svg">
<path d="M437.655 282.367C412.507 282.367 71.7732 282.91 56.9452 282.24C56.9452 282.24 31.007 282.575 23.6315 282.24C23.4909 281.914 -31.8952 170.272 76.9825 125.599C116.216 109.501 74.8388 84.0967 102.074 56.2655C133.373 24.2842 167.528 59.6627 202.332 45.1618C208.482 42.6017 214.652 38.4816 220.829 32.1592C224.305 28.6028 228.116 25.494 232.196 22.8084C232.821 22.3945 233.453 21.9919 234.092 21.6005C236.535 20.1004 239.067 18.7426 241.675 17.5216C243.428 16.7032 245.213 15.9447 247.031 15.2499H247.033C249.919 14.145 252.883 13.1917 255.909 12.3864C260.208 11.2403 264.636 10.3901 269.15 9.81326C271.12 9.56044 273.104 9.36192 275.103 9.2121C313.99 6.31493 342.361 16.4017 365.846 39.3263C379.289 52.4469 390.673 76.4764 382.666 115.084C377.584 139.589 422.081 152.221 437.4 176.806C476.348 239.316 438.009 281.552 437.655 282.367Z" fill="#EBF3FA"/>
<path d="M227.563 167.577L218.507 275.191C218.507 275.191 217.559 281.713 222.414 281.725C230.397 281.743 262.147 281.725 262.147 281.725C262.147 281.725 256.14 280.367 256.213 277.312C256.299 273.711 266.797 166.559 266.797 166.559L227.563 167.577Z" fill="#798EE8"/>
<path d="M265.134 279.77C263.564 279.775 232.827 279.826 225.052 279.727C221.664 279.685 221.07 276.717 221.042 274.796C221.027 273.874 221.145 273.194 221.145 273.194L221.381 270.396L221.981 263.267L222.511 256.969L223.191 248.874L223.765 242.043L230.2 165.576L269.433 164.559C269.433 164.559 265.011 209.4 261.883 242.043C261.535 245.68 261.201 249.167 260.894 252.422C260.794 253.461 260.699 254.476 260.605 255.467C260.315 258.555 260.051 261.39 259.82 263.894C259.698 265.214 259.586 266.441 259.485 267.563C259.085 271.964 258.851 274.777 258.849 275.311C258.848 275.621 258.874 275.912 258.926 276.181C259.571 279.614 264.546 279.77 265.134 279.77Z" fill="#AEC3FF"/>
<path d="M132.284 108.973L154.343 197.525L157.364 209.651L167.637 250.897H358.508L320.64 108.973H132.284Z" fill="#8C9DF4"/>
<path d="M132.284 108.971L129.228 109.989L163.574 253.977L167.639 250.897L132.284 108.971Z" fill="#798EE8"/>
<path d="M163.574 253.978H353.268L358.508 250.897H167.639L163.574 253.978Z" fill="#849DEF"/>
<path d="M230.189 281.72H271.261V279.768H230.189V281.72Z" fill="#AEC3FF"/>
<path d="M260.821 253.978L260.607 255.468L221.981 263.266L222.511 256.968L222.764 253.978H260.821Z" fill="#8C9DF4"/>
<path opacity="0.5" d="M265.134 279.769C263.564 279.775 232.827 279.825 225.052 279.726C221.664 279.685 221.07 276.717 221.042 274.795L259.487 267.566C259.087 271.967 258.853 274.78 258.851 275.314C258.85 275.625 258.876 275.915 258.928 276.185C259.571 279.614 264.546 279.769 265.134 279.769Z" fill="#8C9DF4"/>
<path d="M132.284 108.971H320.641L351.202 223.034H160.698L132.284 108.971Z" fill="#8C9DF4"/>
<path d="M342.317 218.091H165.96L159.658 193L157.218 183.293L156.225 179.334L149.747 153.548L149.413 152.205L145.988 138.577L144.455 132.478L143.149 127.275L142.083 123.033L140.085 115.082H313.904L316.096 123.033L317.266 127.275L318.701 132.478L320.382 138.577L331.466 178.754V178.756L332.403 182.159L332.841 183.739L340.492 211.477L342.317 218.091Z" fill="#505ABA"/>
<path d="M256.012 183.884C255.887 183.616 255.731 183.371 255.55 183.15L255.548 183.148C255.413 182.983 255.263 182.831 255.098 182.693L254.42 182.005L254.242 182.136C250.767 180.436 243.591 182.238 236.333 186.976C227.56 192.699 221.929 200.581 223.553 204.771L223.306 204.952L224.282 205.924C224.329 205.973 224.378 206.022 224.426 206.069L224.455 206.097L224.462 206.102C224.709 206.329 224.992 206.524 225.305 206.688L225.311 206.692C228.742 208.488 235.994 206.7 243.332 201.913C252.267 196.079 257.946 188.009 256.012 183.884Z" fill="#FFA412"/>
<path d="M235.287 185.932C244.224 180.101 253.035 178.717 254.969 182.842C256.901 186.966 251.223 195.038 242.286 200.868C233.35 206.7 224.537 208.082 222.605 203.958C220.673 199.834 226.351 191.762 235.287 185.932Z" fill="#FFB93E"/>
<path d="M228.871 204.576C228.146 204.576 227.486 204.495 226.904 204.327C225.789 204.006 225.017 203.388 224.604 202.495C223.799 200.739 224.544 198.132 226.707 195.154C228.819 192.244 232.042 189.294 235.782 186.844C241.527 183.084 247.37 181.269 250.668 182.217C251.783 182.537 252.555 183.155 252.967 184.048C253.773 185.805 253.027 188.412 250.865 191.39C248.753 194.3 245.53 197.25 241.79 199.699C237.06 202.797 232.259 204.576 228.871 204.576ZM248.725 182.625C245.485 182.625 240.725 184.393 236.144 187.391C232.467 189.798 229.306 192.689 227.239 195.538C225.253 198.276 224.509 200.712 225.202 202.222C225.53 202.935 226.164 203.432 227.085 203.697C227.603 203.845 228.195 203.918 228.851 203.918C232.091 203.918 236.85 202.151 241.432 199.152C245.108 196.746 248.27 193.854 250.337 191.006C252.323 188.268 253.067 185.831 252.373 184.322C252.046 183.608 251.412 183.112 250.49 182.846C249.973 182.698 249.379 182.625 248.725 182.625Z" fill="#FFA412"/>
<path d="M235.186 195.525C235.462 195.403 235.707 195.27 235.923 195.126C236.138 194.982 236.337 194.813 236.519 194.62C236.7 194.427 236.873 194.205 237.036 193.956C237.199 193.705 237.362 193.416 237.525 193.085C237.813 192.515 238.108 191.982 238.411 191.487C238.715 190.993 239.052 190.534 239.427 190.111C239.802 189.687 240.229 189.3 240.709 188.946C241.19 188.592 241.752 188.274 242.395 187.991C242.953 187.745 243.456 187.588 243.903 187.519C244.349 187.45 244.732 187.463 245.05 187.558C245.369 187.654 245.616 187.826 245.798 188.075C245.978 188.324 246.077 188.648 246.096 189.047L248.204 188.122L248.093 189.257L245.955 190.195C245.837 190.637 245.641 191.075 245.365 191.513C245.09 191.952 244.747 192.371 244.338 192.772C243.928 193.175 243.452 193.553 242.912 193.911C242.371 194.268 241.773 194.59 241.115 194.879L241.314 192.83C242.103 192.484 242.702 192.109 243.116 191.703C243.529 191.296 243.755 190.897 243.793 190.506C243.814 190.292 243.787 190.129 243.712 190.015C243.639 189.901 243.529 189.828 243.384 189.796C243.24 189.764 243.064 189.772 242.86 189.817C242.654 189.862 242.431 189.937 242.187 190.043C241.943 190.15 241.722 190.27 241.52 190.405C241.318 190.538 241.128 190.701 240.95 190.89C240.772 191.079 240.6 191.302 240.433 191.558C240.266 191.815 240.09 192.12 239.906 192.472C239.607 193.044 239.303 193.575 238.998 194.07C238.692 194.564 238.349 195.023 237.973 195.446C237.596 195.87 237.165 196.259 236.685 196.613C236.204 196.967 235.645 197.283 235.008 197.563C234.431 197.815 233.918 197.976 233.472 198.044C233.026 198.111 232.645 198.094 232.334 197.997C232.023 197.9 231.781 197.72 231.613 197.461C231.442 197.203 231.349 196.875 231.332 196.474L229.372 197.336L229.48 196.208L231.431 195.353C231.528 194.935 231.693 194.499 231.926 194.045C232.158 193.592 232.475 193.143 232.872 192.697C233.271 192.251 233.76 191.819 234.341 191.399C234.922 190.982 235.608 190.6 236.395 190.253L236.196 192.302C235.73 192.506 235.336 192.721 235.016 192.946C234.695 193.171 234.435 193.397 234.232 193.626C234.032 193.854 233.884 194.079 233.79 194.298C233.696 194.517 233.64 194.725 233.622 194.918C233.601 195.141 233.623 195.317 233.693 195.446C233.762 195.577 233.867 195.665 234.006 195.712C234.144 195.759 234.317 195.767 234.517 195.731C234.721 195.703 234.944 195.632 235.186 195.525Z" fill="#FFA412"/>
<path d="M318.536 260.686C318.433 260.416 318.3 260.167 318.139 259.939L318.137 259.937C318.017 259.766 317.882 259.609 317.732 259.461L317.123 258.742L316.94 258.856C313.685 256.95 306.573 258.178 299.166 262.254C290.214 267.181 284.16 274.436 285.434 278.629L285.179 278.788L286.056 279.805C286.097 279.856 286.14 279.906 286.185 279.955L286.21 279.983L286.217 279.989C286.44 280.226 286.701 280.438 286.995 280.622L286.999 280.625C290.203 282.624 297.389 281.414 304.877 277.292C314.001 272.273 320.114 264.838 318.536 260.686Z" fill="#FFA412"/>
<path d="M298.229 261.164C307.347 256.145 316.019 255.442 317.597 259.594C319.175 263.748 313.063 271.183 303.944 276.2C294.826 281.219 286.154 281.921 284.576 277.769C282.996 273.618 289.111 266.183 298.229 261.164Z" fill="#FFB93E"/>
<path d="M290.625 278.827C289.92 278.775 289.283 278.648 288.73 278.442C287.67 278.048 286.963 277.393 286.63 276.492C285.974 274.726 286.89 272.245 289.21 269.505C291.477 266.829 294.828 264.194 298.645 262.087C304.508 258.849 310.325 257.51 313.462 258.675C314.522 259.068 315.229 259.725 315.564 260.624C316.22 262.39 315.304 264.873 312.982 267.611C310.716 270.288 307.364 272.923 303.547 275.03C298.718 277.696 293.919 279.075 290.625 278.827ZM311.539 258.929C308.387 258.693 303.628 260.064 298.952 262.647C295.201 264.718 291.914 267.301 289.697 269.919C287.565 272.438 286.663 274.752 287.227 276.271C287.493 276.988 288.074 277.518 288.951 277.844C289.442 278.026 290.014 278.14 290.651 278.187C293.803 278.425 298.562 277.052 303.238 274.471C306.989 272.4 310.276 269.818 312.495 267.199C314.627 264.681 315.528 262.366 314.964 260.847C314.698 260.13 314.117 259.6 313.24 259.274C312.748 259.09 312.176 258.976 311.539 258.929Z" fill="#FFA412"/>
<path d="M251.107 209.168C251.234 208.898 251.39 208.651 251.573 208.426L251.575 208.424C251.712 208.258 251.864 208.104 252.029 207.964L252.714 207.269L252.894 207.402C256.402 205.684 263.648 207.505 270.977 212.286C279.835 218.065 285.522 226.025 283.881 230.253L284.13 230.437L283.144 231.418C283.097 231.467 283.049 231.516 282.998 231.562L282.97 231.591L282.961 231.596C282.711 231.825 282.427 232.021 282.108 232.188L282.102 232.192C278.639 234.006 271.316 232.199 263.907 227.366C254.888 221.481 249.154 213.333 251.107 209.168Z" fill="#FFA412"/>
<path d="M272.032 211.236C263.008 205.348 254.112 203.95 252.16 208.115C250.209 212.281 255.941 220.429 264.966 226.317C273.989 232.205 282.886 233.602 284.838 229.437C286.789 225.272 281.055 217.124 272.032 211.236Z" fill="#FFB93E"/>
<path d="M265.466 225.137C261.688 222.665 258.435 219.685 256.303 216.747C254.12 213.739 253.367 211.106 254.18 209.335C254.594 208.432 255.375 207.808 256.5 207.484C259.83 206.525 265.728 208.359 271.53 212.155C275.308 214.627 278.561 217.607 280.693 220.545C282.876 223.553 283.63 226.186 282.816 227.957C282.402 228.86 281.621 229.484 280.496 229.808C279.91 229.976 279.243 230.059 278.51 230.059C275.09 230.06 270.244 228.264 265.466 225.137ZM256.683 208.121C255.752 208.389 255.111 208.891 254.781 209.612C254.082 211.136 254.832 213.595 256.837 216.361C258.923 219.236 262.116 222.157 265.828 224.586C270.454 227.613 275.259 229.399 278.531 229.399C279.192 229.399 279.79 229.326 280.313 229.176C281.244 228.909 281.885 228.407 282.215 227.686C282.914 226.161 282.164 223.702 280.159 220.936C278.074 218.062 274.88 215.14 271.168 212.711C266.542 209.685 261.737 207.898 258.465 207.898C257.804 207.898 257.204 207.971 256.683 208.121Z" fill="#FFA412"/>
<path d="M272.806 221.135C273.008 221.169 273.181 221.163 273.323 221.116C273.466 221.07 273.571 220.98 273.64 220.847C273.709 220.716 273.734 220.538 273.711 220.313C273.692 220.118 273.636 219.908 273.541 219.686C273.447 219.465 273.297 219.238 273.095 219.006C272.892 218.775 272.628 218.545 272.304 218.32C271.98 218.094 271.582 217.877 271.112 217.671L270.912 215.601C271.708 215.951 272.399 216.337 272.986 216.758C273.572 217.18 274.067 217.618 274.47 218.068C274.873 218.519 275.191 218.972 275.426 219.431C275.66 219.888 275.827 220.328 275.926 220.749L277.895 221.615L278.006 222.753L276.027 221.884C276.009 222.287 275.915 222.62 275.742 222.881C275.57 223.141 275.328 223.321 275.013 223.42C274.699 223.519 274.316 223.536 273.867 223.469C273.415 223.401 272.898 223.238 272.315 222.984C271.672 222.701 271.106 222.381 270.621 222.025C270.136 221.667 269.703 221.276 269.321 220.847C268.94 220.418 268.595 219.955 268.286 219.457C267.977 218.959 267.672 218.42 267.368 217.845C267.181 217.489 267.005 217.182 266.836 216.921C266.667 216.663 266.493 216.438 266.313 216.247C266.133 216.056 265.94 215.893 265.736 215.758C265.534 215.624 265.309 215.502 265.063 215.395C264.818 215.286 264.591 215.212 264.383 215.165C264.175 215.12 263.999 215.112 263.853 215.144C263.707 215.176 263.596 215.249 263.523 215.365C263.448 215.481 263.422 215.646 263.442 215.861C263.482 216.258 263.708 216.661 264.126 217.069C264.544 217.479 265.151 217.858 265.946 218.208L266.146 220.277C265.483 219.987 264.88 219.661 264.332 219.3C263.787 218.938 263.307 218.556 262.893 218.15C262.479 217.744 262.134 217.32 261.855 216.878C261.578 216.436 261.379 215.993 261.259 215.547L259.101 214.599L258.99 213.453L261.119 214.388C261.136 213.985 261.237 213.657 261.419 213.406C261.6 213.155 261.851 212.981 262.174 212.884C262.496 212.786 262.88 212.773 263.332 212.844C263.783 212.914 264.291 213.073 264.853 213.32C265.504 213.605 266.071 213.927 266.557 214.285C267.042 214.642 267.473 215.034 267.852 215.461C268.23 215.888 268.571 216.35 268.877 216.85C269.182 217.35 269.48 217.888 269.77 218.463C269.935 218.796 270.1 219.088 270.265 219.341C270.43 219.594 270.604 219.817 270.788 220.013C270.972 220.208 271.172 220.379 271.389 220.525C271.607 220.671 271.854 220.804 272.133 220.927C272.379 221.03 272.604 221.101 272.806 221.135Z" fill="#FFA412"/>
<path d="M231.214 278.177V280.737C231.214 280.94 231.139 281.131 231.012 281.288C230.879 281.453 230.686 281.584 230.461 281.657C230.392 281.681 230.32 281.698 230.245 281.709C230.178 281.721 230.109 281.724 230.037 281.724H181.442C180.856 281.724 180.365 281.359 180.278 280.885C180.275 280.854 180.269 280.822 180.267 280.788C180.267 280.771 180.265 280.754 180.265 280.737V278.177C180.265 278.161 180.267 278.144 180.267 278.127C180.269 278.093 180.273 278.061 180.278 278.029C180.365 277.556 180.856 277.19 181.442 277.19H230.039C230.11 277.19 230.18 277.194 230.247 277.205C230.322 277.217 230.393 277.235 230.463 277.258C230.688 277.331 230.881 277.462 231.014 277.627C231.141 277.784 231.214 277.975 231.214 278.177Z" fill="#FFB93E"/>
<path d="M207.352 281.724H181.314C180.833 281.724 180.426 281.414 180.304 280.994C180.293 280.958 180.282 280.923 180.276 280.885C180.272 280.854 180.267 280.822 180.265 280.788C180.265 280.771 180.263 280.754 180.263 280.737V278.177C180.263 278.161 180.265 278.144 180.265 278.127C180.267 278.093 180.27 278.061 180.276 278.029C180.284 277.992 180.293 277.956 180.304 277.921C180.426 277.501 180.833 277.19 181.314 277.19H204.153C204.518 278.528 205.367 280.372 207.352 281.724Z" fill="#FFA412"/>
<path d="M225.301 277.192H224.749V281.726H225.301V277.192Z" fill="#FFA412"/>
<path d="M223.431 277.192H222.879V281.726H223.431V277.192Z" fill="#FFA412"/>
<path d="M221.188 277.192H220.636V281.726H221.188V277.192Z" fill="#FFA412"/>
<path d="M217.752 277.192H217.199V281.726H217.752V277.192Z" fill="#FFA412"/>
<path d="M214.118 277.192H213.565V281.726H214.118V277.192Z" fill="#FFA412"/>
<path d="M208.547 277.192H207.994V281.726H208.547V277.192Z" fill="#FFA412"/>
<path d="M203.33 277.192H202.778V281.726H203.33V277.192Z" fill="#FFA412"/>
<path d="M198.674 277.193H198.121V281.727H198.674V277.193Z" fill="#FFA412"/>
<path d="M227.08 277.192H226.527V281.726H227.08V277.192Z" fill="#FFA412"/>
<path d="M228.257 277.192H227.704V281.726H228.257V277.192Z" fill="#FFA412"/>
<path d="M229.392 277.192H228.839V281.726H229.392V277.192Z" fill="#FFA412"/>
<path d="M230.245 277.207V281.709C230.177 281.721 230.108 281.724 230.037 281.724H229.692V277.19H230.037C230.108 277.192 230.177 277.196 230.245 277.207Z" fill="#FFA412"/>
<path d="M231.013 277.627V281.29C230.88 281.457 230.687 281.586 230.46 281.659V277.258C230.685 277.331 230.878 277.462 231.013 277.627Z" fill="#FFA412"/>
<path d="M226.017 273.646V276.206C226.017 276.41 225.942 276.601 225.817 276.758C225.783 276.799 225.746 276.839 225.706 276.874C225.585 276.983 225.435 277.071 225.264 277.125C225.197 277.148 225.124 277.165 225.049 277.176C224.981 277.187 224.912 277.193 224.842 277.193H176.245C175.659 277.193 175.17 276.826 175.082 276.352C175.078 276.32 175.072 276.288 175.07 276.256C175.069 276.239 175.069 276.222 175.069 276.204V273.644C175.069 273.627 175.069 273.608 175.07 273.593C175.072 273.561 175.076 273.529 175.082 273.498C175.168 273.024 175.659 272.657 176.245 272.657H224.844C224.874 272.657 224.906 272.659 224.936 272.66C224.947 272.66 224.959 272.662 224.97 272.664C224.972 272.662 224.974 272.662 224.975 272.664C224.989 272.664 225.004 272.666 225.02 272.668C225.032 272.67 225.041 272.672 225.05 272.672C225.125 272.683 225.198 272.7 225.266 272.722C225.307 272.735 225.347 272.75 225.384 272.767H225.386C225.412 272.778 225.438 272.792 225.463 272.803C225.476 272.81 225.491 272.82 225.506 272.827C225.519 272.835 225.534 272.842 225.545 272.851C225.598 272.881 225.644 272.917 225.688 272.956C225.703 272.968 225.716 272.983 225.729 272.994C225.738 273.001 225.746 273.009 225.753 273.016C225.757 273.02 225.763 273.026 225.766 273.029L225.778 273.041C225.793 273.056 225.807 273.072 225.821 273.091C225.942 273.252 226.017 273.44 226.017 273.646Z" fill="#FFB93E"/>
<path d="M202.154 277.193H176.118C175.636 277.193 175.23 276.88 175.11 276.46C175.099 276.425 175.089 276.389 175.082 276.352C175.078 276.32 175.072 276.288 175.07 276.256C175.069 276.239 175.069 276.222 175.069 276.204V273.644C175.069 273.627 175.069 273.608 175.07 273.593C175.072 273.561 175.076 273.529 175.082 273.498C175.089 273.46 175.099 273.425 175.11 273.389C175.23 272.969 175.636 272.657 176.118 272.657H198.957C198.966 272.694 198.977 272.732 198.989 272.769C199.371 274.093 200.225 275.876 202.154 277.193Z" fill="#FFA412"/>
<path d="M220.105 272.657H219.552V277.191H220.105V272.657Z" fill="#FFA412"/>
<path d="M218.235 272.657H217.682V277.191H218.235V272.657Z" fill="#FFA412"/>
<path d="M215.994 272.657H215.441V277.191H215.994V272.657Z" fill="#FFA412"/>
<path d="M212.557 272.657H212.005V277.191H212.557V272.657Z" fill="#FFA412"/>
<path d="M208.922 272.657H208.369V277.191H208.922V272.657Z" fill="#FFA412"/>
<path d="M203.351 272.657H202.798V277.191H203.351V272.657Z" fill="#FFA412"/>
<path d="M198.136 272.657H197.583V277.191H198.136V272.657Z" fill="#FFA412"/>
<path d="M193.478 272.657H192.925V277.191H193.478V272.657Z" fill="#FFA412"/>
<path d="M221.885 272.657H221.333V277.191H221.885V272.657Z" fill="#FFA412"/>
<path d="M223.06 272.657H222.508V277.191H223.06V272.657Z" fill="#FFA412"/>
<path d="M224.196 272.657H223.643V277.191H224.196V272.657Z" fill="#FFA412"/>
<path d="M225.049 272.674V277.176C224.981 277.187 224.912 277.191 224.841 277.191H224.496V272.657H224.841C224.914 272.657 224.981 272.662 225.049 272.674Z" fill="#FFA412"/>
<path d="M225.817 273.093V276.756C225.684 276.921 225.491 277.052 225.266 277.125V272.724C225.491 272.797 225.682 272.928 225.817 273.093Z" fill="#FFA412"/>
<path d="M228.528 269.222V271.784C228.528 271.988 228.453 272.177 228.326 272.334C228.193 272.499 228.002 272.63 227.775 272.703C227.706 272.726 227.635 272.743 227.56 272.756C227.492 272.765 227.423 272.771 227.353 272.771H178.754C178.56 272.771 178.376 272.729 178.213 272.658C177.891 272.518 177.655 272.254 177.593 271.941C177.589 271.92 177.587 271.898 177.583 271.877C177.581 271.864 177.58 271.849 177.58 271.832C177.578 271.816 177.578 271.799 177.578 271.782V269.22C177.578 269.203 177.578 269.186 177.58 269.169C177.581 269.137 177.583 269.104 177.591 269.074C177.677 268.598 178.168 268.233 178.754 268.233H227.353C227.423 268.233 227.494 268.237 227.56 268.248C227.635 268.259 227.708 268.276 227.775 268.298C228.002 268.373 228.193 268.503 228.326 268.669C228.453 268.828 228.528 269.018 228.528 269.222Z" fill="#FFB93E"/>
<path d="M204.665 272.769H178.629C178.455 272.769 178.29 272.728 178.145 272.656C177.857 272.516 177.645 272.252 177.593 271.939C177.589 271.919 177.587 271.896 177.583 271.875C177.581 271.862 177.58 271.847 177.58 271.831C177.578 271.814 177.578 271.797 177.578 271.78V269.218C177.578 269.201 177.578 269.184 177.58 269.167C177.581 269.136 177.583 269.102 177.591 269.072C177.598 269.036 177.608 269.001 177.619 268.967C177.737 268.546 178.145 268.233 178.629 268.233H201.468C201.824 269.531 202.637 271.314 204.505 272.655C204.558 272.694 204.61 272.733 204.665 272.769Z" fill="#FFA412"/>
<path d="M222.616 268.235H222.063V272.769H222.616V268.235Z" fill="#FFA412"/>
<path d="M220.746 268.235H220.193V272.769H220.746V268.235Z" fill="#FFA412"/>
<path d="M218.505 268.235H217.952V272.769H218.505V268.235Z" fill="#FFA412"/>
<path d="M215.068 268.235H214.516V272.769H215.068V268.235Z" fill="#FFA412"/>
<path d="M211.433 268.235H210.88V272.769H211.433V268.235Z" fill="#FFA412"/>
<path d="M205.862 268.235H205.309V272.769H205.862V268.235Z" fill="#FFA412"/>
<path d="M200.647 268.235H200.094V272.769H200.647V268.235Z" fill="#FFA412"/>
<path d="M195.989 268.235H195.436V272.769H195.989V268.235Z" fill="#FFA412"/>
<path d="M224.395 268.235H223.842V272.769H224.395V268.235Z" fill="#FFA412"/>
<path d="M225.571 268.235H225.019V272.769H225.571V268.235Z" fill="#FFA412"/>
<path d="M226.707 268.235H226.154V272.769H226.707V268.235Z" fill="#FFA412"/>
<path d="M227.56 268.252V272.754C227.492 272.763 227.423 272.769 227.352 272.769H227.007V268.235H227.352C227.425 268.235 227.492 268.24 227.56 268.252Z" fill="#FFA412"/>
<path d="M228.328 268.671V272.334C228.193 272.501 228.002 272.63 227.775 272.703V268.302C228.002 268.375 228.193 268.504 228.328 268.671Z" fill="#FFA412"/>
<path d="M229.692 264.688V267.248C229.692 267.452 229.617 267.641 229.49 267.799C229.473 267.819 229.454 267.84 229.437 267.859C229.345 267.958 229.231 268.04 229.102 268.102C229.049 268.126 228.995 268.149 228.939 268.168C228.869 268.19 228.798 268.207 228.723 268.218C228.689 268.222 228.656 268.228 228.622 268.229C228.588 268.231 228.551 268.233 228.515 268.233H179.92C179.332 268.233 178.843 267.866 178.756 267.392C178.753 267.36 178.747 267.329 178.745 267.297V264.634C178.775 264.152 179.219 263.761 179.781 263.705C179.826 263.701 179.873 263.697 179.922 263.697H228.519C228.555 263.697 228.59 263.699 228.626 263.703C228.661 263.707 228.695 263.708 228.727 263.714C228.802 263.725 228.873 263.742 228.942 263.765C229.167 263.838 229.36 263.969 229.493 264.134C229.619 264.295 229.692 264.484 229.692 264.688Z" fill="#FFB93E"/>
<path d="M205.83 268.236H179.795C179.313 268.236 178.904 267.923 178.785 267.504C178.773 267.468 178.762 267.433 178.756 267.395C178.753 267.363 178.747 267.331 178.745 267.3V264.637C178.773 264.157 179.169 263.764 179.669 263.708C179.71 263.704 179.751 263.7 179.793 263.7H202.631C202.631 263.704 202.633 263.706 202.633 263.708C203.001 265.043 203.849 266.886 205.83 268.236Z" fill="#FFA412"/>
<path d="M223.78 263.701H223.227V268.235H223.78V263.701Z" fill="#FFA412"/>
<path d="M221.91 263.701H221.357V268.235H221.91V263.701Z" fill="#FFA412"/>
<path d="M219.669 263.701H219.116V268.235H219.669V263.701Z" fill="#FFA412"/>
<path d="M216.232 263.701H215.679V268.235H216.232V263.701Z" fill="#FFA412"/>
<path d="M212.597 263.701H212.044V268.235H212.597V263.701Z" fill="#FFA412"/>
<path d="M207.026 263.701H206.473V268.235H207.026V263.701Z" fill="#FFA412"/>
<path d="M201.811 263.701H201.258V268.235H201.811V263.701Z" fill="#FFA412"/>
<path d="M197.152 263.702H196.599V268.236H197.152V263.702Z" fill="#FFA412"/>
<path d="M225.56 263.701H225.007V268.235H225.56V263.701Z" fill="#FFA412"/>
<path d="M226.735 263.701H226.182V268.235H226.735V263.701Z" fill="#FFA412"/>
<path d="M227.871 263.701H227.318V268.235H227.871V263.701Z" fill="#FFA412"/>
<path d="M228.725 263.716V268.218C228.658 268.229 228.588 268.233 228.517 268.233H228.172V263.699H228.517C228.588 263.701 228.658 263.707 228.725 263.716Z" fill="#FFA412"/>
<path d="M229.492 264.138V267.801C229.358 267.967 229.165 268.097 228.939 268.17V263.769C229.165 263.84 229.357 263.971 229.492 264.138Z" fill="#FFA412"/>
<path d="M226.119 260.163V262.723C226.119 262.927 226.046 263.116 225.919 263.273C225.786 263.44 225.593 263.571 225.366 263.644C225.297 263.667 225.225 263.684 225.152 263.695C225.13 263.699 225.107 263.702 225.085 263.704H225.076C225.064 263.706 225.051 263.708 225.04 263.708C225.029 263.71 225.019 263.71 225.008 263.712C224.987 263.712 224.967 263.714 224.946 263.714H176.349C175.721 263.714 175.206 263.296 175.174 262.777C175.172 262.76 175.172 262.743 175.172 262.725V260.165C175.172 260.148 175.172 260.129 175.174 260.112C175.174 260.099 175.176 260.084 175.178 260.071C175.225 259.653 175.586 259.307 176.061 259.208C176.072 259.204 176.083 259.202 176.096 259.2C176.179 259.185 176.263 259.176 176.351 259.176H224.948C224.986 259.176 225.017 259.178 225.053 259.18C225.068 259.181 225.083 259.183 225.098 259.183C225.1 259.183 225.1 259.183 225.1 259.183H225.102C225.12 259.185 225.137 259.187 225.156 259.191C225.229 259.202 225.302 259.219 225.37 259.241C225.596 259.314 225.789 259.444 225.923 259.612C226.048 259.769 226.119 259.957 226.119 260.163Z" fill="#FFB93E"/>
<path d="M202.257 263.709H176.221C175.661 263.709 175.202 263.291 175.172 262.772C175.17 262.755 175.17 262.739 175.17 262.72V260.16C175.17 260.143 175.17 260.124 175.172 260.107C175.172 260.094 175.174 260.079 175.175 260.066C175.219 259.639 175.554 259.289 175.991 259.197C176.004 259.193 176.019 259.19 176.036 259.188C176.095 259.177 176.159 259.171 176.223 259.171H199.06C199.064 259.182 199.065 259.191 199.069 259.205C199.438 260.534 200.289 262.356 202.247 263.699C202.249 263.703 202.253 263.705 202.257 263.709Z" fill="#FFA412"/>
<path d="M220.207 259.175H219.654V263.709H220.207V259.175Z" fill="#FFA412"/>
<path d="M218.338 259.175H217.785V263.709H218.338V259.175Z" fill="#FFA412"/>
<path d="M216.095 259.175H215.542V263.709H216.095V259.175Z" fill="#FFA412"/>
<path d="M212.658 259.175H212.106V263.709H212.658V259.175Z" fill="#FFA412"/>
<path d="M209.025 259.175H208.472V263.709H209.025V259.175Z" fill="#FFA412"/>
<path d="M203.454 259.175H202.901V263.709H203.454V259.175Z" fill="#FFA412"/>
<path d="M198.237 259.175H197.684V263.709H198.237V259.175Z" fill="#FFA412"/>
<path d="M193.579 259.176H193.026V263.71H193.579V259.176Z" fill="#FFA412"/>
<path d="M221.987 259.175H221.434V263.709H221.987V259.175Z" fill="#FFA412"/>
<path d="M223.162 259.175H222.609V263.709H223.162V259.175Z" fill="#FFA412"/>
<path d="M224.297 259.175H223.744V263.709H224.297V259.175Z" fill="#FFA412"/>
<path d="M225.152 259.19V263.692C225.084 263.701 225.015 263.707 224.944 263.707H224.599V259.173H224.944C225.015 259.175 225.084 259.18 225.152 259.19Z" fill="#FFA412"/>
<path d="M225.918 259.609V263.272C225.785 263.439 225.592 263.568 225.367 263.641V259.24C225.592 259.313 225.785 259.444 225.918 259.609Z" fill="#FFA412"/>
<path d="M226.017 255.659V258.219C226.017 258.423 225.942 258.613 225.817 258.77C225.783 258.811 225.746 258.85 225.706 258.888C225.585 258.996 225.435 259.084 225.264 259.139C225.21 259.157 225.154 259.171 225.097 259.182H225.095C225.094 259.182 225.094 259.182 225.094 259.182C225.079 259.186 225.064 259.187 225.049 259.189C224.981 259.201 224.912 259.206 224.842 259.206H176.245C176.195 259.206 176.144 259.202 176.094 259.197C176.075 259.195 176.054 259.193 176.036 259.189C175.541 259.113 175.151 258.775 175.08 258.354C175.076 258.326 175.072 258.298 175.07 258.27C175.069 258.251 175.069 258.234 175.069 258.217V255.657C175.069 255.639 175.069 255.622 175.07 255.605C175.072 255.573 175.076 255.541 175.082 255.509C175.168 255.036 175.659 254.668 176.245 254.668H224.844C224.874 254.668 224.906 254.67 224.936 254.672C224.94 254.672 224.946 254.674 224.947 254.674C224.957 254.676 224.966 254.676 224.975 254.676C224.989 254.678 225.004 254.68 225.02 254.682C225.032 254.682 225.041 254.683 225.05 254.687C225.125 254.698 225.198 254.715 225.266 254.738C225.307 254.751 225.347 254.766 225.384 254.783H225.386C225.538 254.85 225.669 254.944 225.774 255.056C225.789 255.073 225.804 255.09 225.817 255.107C225.942 255.264 226.017 255.455 226.017 255.659Z" fill="#FFB93E"/>
<path d="M202.154 259.207H176.118C176.099 259.207 176.077 259.205 176.058 259.205C176.036 259.203 176.013 259.201 175.991 259.199C175.52 259.143 175.144 258.795 175.08 258.357C175.076 258.328 175.072 258.3 175.07 258.272C175.069 258.254 175.069 258.237 175.069 258.22V255.66C175.069 255.641 175.069 255.624 175.07 255.607C175.072 255.575 175.076 255.544 175.082 255.512C175.089 255.474 175.099 255.439 175.11 255.403C175.23 254.984 175.636 254.671 176.118 254.671H198.957C198.966 254.708 198.977 254.746 198.989 254.783C199.367 256.098 200.212 257.86 202.107 259.173C202.122 259.186 202.139 259.196 202.154 259.207Z" fill="#FFA412"/>
<path d="M220.105 254.672H219.552V259.206H220.105V254.672Z" fill="#FFA412"/>
<path d="M218.235 254.672H217.682V259.206H218.235V254.672Z" fill="#FFA412"/>
<path d="M215.994 254.672H215.441V259.206H215.994V254.672Z" fill="#FFA412"/>
<path d="M212.557 254.672H212.005V259.206H212.557V254.672Z" fill="#FFA412"/>
<path d="M208.922 254.672H208.369V259.206H208.922V254.672Z" fill="#FFA412"/>
<path d="M203.351 254.672H202.798V259.206H203.351V254.672Z" fill="#FFA412"/>
<path d="M198.136 254.672H197.583V259.206H198.136V254.672Z" fill="#FFA412"/>
<path d="M193.478 254.672H192.925V259.206H193.478V254.672Z" fill="#FFA412"/>
<path d="M221.885 254.672H221.333V259.206H221.885V254.672Z" fill="#FFA412"/>
<path d="M223.06 254.672H222.508V259.206H223.06V254.672Z" fill="#FFA412"/>
<path d="M224.196 254.672H223.643V259.206H224.196V254.672Z" fill="#FFA412"/>
<path d="M225.049 254.687V259.191C224.981 259.201 224.912 259.206 224.841 259.206H224.496V254.672H224.841C224.914 254.672 224.981 254.678 225.049 254.687Z" fill="#FFA412"/>
<path d="M225.817 255.109V258.772C225.684 258.939 225.491 259.068 225.266 259.141V254.74C225.491 254.811 225.682 254.942 225.817 255.109Z" fill="#FFA412"/>
<path d="M228.528 251.236V253.796C228.528 254 228.453 254.191 228.326 254.349C228.193 254.513 228.002 254.644 227.775 254.717C227.706 254.74 227.635 254.757 227.56 254.768C227.492 254.779 227.423 254.785 227.353 254.785H178.754C178.56 254.785 178.376 254.744 178.213 254.672C177.891 254.532 177.655 254.268 177.593 253.957C177.589 253.937 177.587 253.914 177.583 253.893C177.581 253.878 177.58 253.865 177.58 253.85C177.578 253.833 177.578 253.817 177.578 253.798V251.238C177.578 251.221 177.578 251.202 177.58 251.185C177.581 251.154 177.583 251.122 177.591 251.09C177.677 250.616 178.168 250.249 178.754 250.249H227.353C227.423 250.249 227.494 250.255 227.56 250.266C227.635 250.277 227.708 250.294 227.775 250.316C228.002 250.389 228.193 250.519 228.326 250.687C228.453 250.845 228.528 251.032 228.528 251.236Z" fill="#FFB93E"/>
<path d="M204.665 254.785H178.629C178.455 254.785 178.29 254.744 178.145 254.672C177.857 254.532 177.645 254.268 177.593 253.957C177.589 253.937 177.587 253.914 177.583 253.893C177.581 253.878 177.58 253.865 177.58 253.85C177.578 253.833 177.578 253.817 177.578 253.798V251.238C177.578 251.221 177.578 251.202 177.58 251.185C177.581 251.154 177.583 251.122 177.591 251.09C177.598 251.054 177.608 251.019 177.619 250.985C177.737 250.564 178.145 250.249 178.629 250.249H201.468C201.824 251.547 202.637 253.33 204.505 254.672C204.558 254.71 204.61 254.746 204.665 254.785Z" fill="#FFA412"/>
<path d="M222.616 250.249H222.063V254.783H222.616V250.249Z" fill="#FFA412"/>
<path d="M220.746 250.249H220.193V254.783H220.746V250.249Z" fill="#FFA412"/>
<path d="M218.505 250.249H217.952V254.783H218.505V250.249Z" fill="#FFA412"/>
<path d="M215.068 250.249H214.516V254.783H215.068V250.249Z" fill="#FFA412"/>
<path d="M211.433 250.249H210.88V254.783H211.433V250.249Z" fill="#FFA412"/>
<path d="M205.862 250.249H205.309V254.783H205.862V250.249Z" fill="#FFA412"/>
<path d="M200.647 250.249H200.094V254.783H200.647V250.249Z" fill="#FFA412"/>
<path d="M195.989 250.249H195.436V254.783H195.989V250.249Z" fill="#FFA412"/>
<path d="M224.395 250.249H223.842V254.783H224.395V250.249Z" fill="#FFA412"/>
<path d="M225.571 250.249H225.019V254.783H225.571V250.249Z" fill="#FFA412"/>
<path d="M226.707 250.249H226.154V254.783H226.707V250.249Z" fill="#FFA412"/>
<path d="M227.56 250.266V254.768C227.492 254.777 227.423 254.783 227.352 254.783H227.007V250.249H227.352C227.425 250.249 227.492 250.255 227.56 250.266Z" fill="#FFA412"/>
<path d="M228.328 250.685V254.348C228.193 254.515 228.002 254.644 227.775 254.717V250.316C228.002 250.389 228.193 250.521 228.328 250.685Z" fill="#FFA412"/>
<path d="M232.499 246.702V249.264C232.499 249.466 232.424 249.655 232.299 249.812L232.297 249.814C232.28 249.835 232.261 249.855 232.244 249.874C232.169 249.953 232.083 250.022 231.984 250.076C231.935 250.105 231.884 250.129 231.828 250.151C231.826 250.151 231.826 250.153 231.826 250.153C231.8 250.164 231.774 250.174 231.744 250.183C231.675 250.206 231.603 250.223 231.528 250.234C231.461 250.245 231.392 250.249 231.322 250.249H182.727C182.141 250.249 181.651 249.884 181.563 249.41C181.558 249.378 181.554 249.346 181.552 249.312C181.55 249.295 181.55 249.279 181.55 249.262V246.7C181.55 246.683 181.55 246.666 181.552 246.649C181.58 246.17 182.024 245.777 182.588 245.72C182.633 245.715 182.68 245.713 182.727 245.713H231.326C231.395 245.713 231.467 245.719 231.532 245.728C231.607 245.741 231.68 245.756 231.748 245.78C231.944 245.844 232.115 245.953 232.246 246.087C232.265 246.108 232.284 246.127 232.299 246.147L232.3 246.149C232.426 246.31 232.499 246.498 232.499 246.702Z" fill="#FFB93E"/>
<path d="M208.637 250.249H182.602C182.118 250.249 181.711 249.936 181.592 249.515C181.58 249.481 181.571 249.445 181.563 249.41C181.558 249.378 181.554 249.346 181.552 249.312C181.55 249.295 181.55 249.279 181.55 249.262V246.7C181.55 246.683 181.55 246.666 181.552 246.649C181.578 246.17 181.974 245.777 182.474 245.72C182.515 245.715 182.557 245.713 182.6 245.713H205.438C205.438 245.715 205.44 245.717 205.44 245.72C205.806 247.058 206.656 248.898 208.637 250.249Z" fill="#FFA412"/>
<path d="M226.587 245.715H226.034V250.249H226.587V245.715Z" fill="#FFA412"/>
<path d="M224.717 245.715H224.164V250.249H224.717V245.715Z" fill="#FFA412"/>
<path d="M222.476 245.715H221.923V250.249H222.476V245.715Z" fill="#FFA412"/>
<path d="M219.039 245.715H218.486V250.249H219.039V245.715Z" fill="#FFA412"/>
<path d="M215.406 245.715H214.853V250.249H215.406V245.715Z" fill="#FFA412"/>
<path d="M209.835 245.715H209.282V250.249H209.835V245.715Z" fill="#FFA412"/>
<path d="M204.618 245.715H204.065V250.249H204.618V245.715Z" fill="#FFA412"/>
<path d="M199.959 245.715H199.406V250.249H199.959V245.715Z" fill="#FFA412"/>
<path d="M228.367 245.715H227.814V250.249H228.367V245.715Z" fill="#FFA412"/>
<path d="M229.542 245.715H228.989V250.249H229.542V245.715Z" fill="#FFA412"/>
<path d="M230.678 245.715H230.125V250.249H230.678V245.715Z" fill="#FFA412"/>
<path d="M231.532 245.732V250.234C231.465 250.245 231.395 250.249 231.324 250.249H230.979V245.715H231.324C231.395 245.715 231.465 245.72 231.532 245.732Z" fill="#FFA412"/>
<path d="M232.299 246.151V249.814C232.166 249.979 231.972 250.11 231.748 250.183V245.782C231.972 245.855 232.166 245.984 232.299 246.151Z" fill="#FFA412"/>
<path d="M226.119 242.175V244.735C226.119 244.94 226.046 245.129 225.919 245.286C225.786 245.453 225.593 245.584 225.366 245.657C225.296 245.679 225.225 245.696 225.152 245.707C225.13 245.711 225.107 245.713 225.085 245.717H225.075C225.06 245.721 225.045 245.72 225.03 245.72C225.021 245.72 225.012 245.722 225.002 245.722C224.982 245.722 224.965 245.724 224.944 245.724H176.349C175.927 245.724 175.554 245.537 175.348 245.254C175.247 245.117 175.185 244.958 175.174 244.788C175.172 244.769 175.172 244.752 175.172 244.735V242.175C175.172 242.157 175.172 242.14 175.174 242.123C175.2 241.703 175.545 241.349 176.008 241.231C176.117 241.203 176.231 241.187 176.349 241.187H224.946C224.967 241.187 224.987 241.188 225.008 241.188C225.019 241.188 225.029 241.19 225.038 241.192C225.077 241.194 225.115 241.198 225.154 241.205C225.227 241.216 225.3 241.233 225.368 241.256C225.403 241.267 225.435 241.278 225.467 241.293H225.469C225.598 241.346 225.712 241.419 225.81 241.507C225.812 241.509 225.814 241.511 225.814 241.512C225.817 241.516 225.823 241.52 225.827 241.524C225.86 241.554 225.89 241.587 225.919 241.623C226.048 241.782 226.119 241.971 226.119 242.175Z" fill="#FFB93E"/>
<path d="M202.257 245.722H176.221C175.856 245.722 175.53 245.543 175.344 245.275C175.245 245.132 175.181 244.966 175.172 244.786C175.17 244.767 175.17 244.75 175.17 244.734V242.173C175.17 242.155 175.17 242.138 175.172 242.121C175.198 241.67 175.548 241.295 176.007 241.207C176.075 241.194 176.148 241.187 176.219 241.187H199.056C199.065 241.222 199.077 241.256 199.086 241.291C199.465 242.614 200.319 244.396 202.242 245.715C202.249 245.717 202.253 245.72 202.257 245.722Z" fill="#FFA412"/>
<path d="M220.207 241.188H219.654V245.722H220.207V241.188Z" fill="#FFA412"/>
<path d="M218.338 241.188H217.785V245.722H218.338V241.188Z" fill="#FFA412"/>
<path d="M216.095 241.188H215.542V245.722H216.095V241.188Z" fill="#FFA412"/>
<path d="M212.658 241.188H212.106V245.722H212.658V241.188Z" fill="#FFA412"/>
<path d="M209.025 241.188H208.472V245.722H209.025V241.188Z" fill="#FFA412"/>
<path d="M203.454 241.188H202.901V245.722H203.454V241.188Z" fill="#FFA412"/>
<path d="M198.237 241.188H197.684V245.722H198.237V241.188Z" fill="#FFA412"/>
<path d="M193.579 241.188H193.026V245.722H193.579V241.188Z" fill="#FFA412"/>
<path d="M221.987 241.188H221.434V245.722H221.987V241.188Z" fill="#FFA412"/>
<path d="M223.162 241.188H222.609V245.722H223.162V241.188Z" fill="#FFA412"/>
<path d="M224.297 241.188H223.744V245.722H224.297V241.188Z" fill="#FFA412"/>
<path d="M225.152 241.203V245.707C225.084 245.717 225.015 245.722 224.944 245.722H224.599V241.188H224.944C225.015 241.188 225.084 241.194 225.152 241.203Z" fill="#FFA412"/>
<path d="M225.918 241.625V245.288C225.785 245.455 225.592 245.584 225.367 245.657V241.256C225.592 241.329 225.785 241.458 225.918 241.625Z" fill="#FFA412"/>
<path d="M229.692 237.746V240.306C229.692 240.51 229.617 240.7 229.49 240.857C229.357 241.024 229.164 241.153 228.937 241.226C228.868 241.248 228.796 241.265 228.721 241.276C228.654 241.288 228.585 241.291 228.513 241.291H179.92C179.731 241.291 179.553 241.254 179.395 241.186C179.041 241.038 178.788 240.741 178.749 240.396C178.747 240.383 178.747 240.37 178.745 240.355C178.745 240.338 178.743 240.321 178.743 240.304V237.744C178.743 237.727 178.743 237.711 178.745 237.694C178.775 237.212 179.217 236.821 179.781 236.765C179.826 236.759 179.873 236.757 179.92 236.757H228.517C228.588 236.757 228.658 236.763 228.725 236.772C228.8 236.784 228.871 236.8 228.941 236.823C229.166 236.896 229.359 237.027 229.493 237.192C229.619 237.353 229.692 237.542 229.692 237.746Z" fill="#FFB93E"/>
<path d="M205.83 241.294H179.795C179.626 241.294 179.467 241.256 179.326 241.189C179.009 241.041 178.785 240.743 178.749 240.399C178.747 240.385 178.747 240.372 178.745 240.357C178.745 240.341 178.743 240.324 178.743 240.307V237.747C178.743 237.73 178.743 237.713 178.745 237.696C178.771 237.217 179.167 236.823 179.669 236.767C179.708 236.762 179.751 236.76 179.793 236.76H202.631C202.631 236.762 202.633 236.765 202.633 236.767C202.989 238.067 203.806 239.85 205.678 241.189C205.729 241.224 205.778 241.26 205.83 241.294Z" fill="#FFA412"/>
<path d="M223.78 236.759H223.227V241.293H223.78V236.759Z" fill="#FFA412"/>
<path d="M221.91 236.759H221.357V241.293H221.91V236.759Z" fill="#FFA412"/>
<path d="M219.669 236.759H219.116V241.293H219.669V236.759Z" fill="#FFA412"/>
<path d="M216.232 236.759H215.679V241.293H216.232V236.759Z" fill="#FFA412"/>
<path d="M212.597 236.759H212.044V241.293H212.597V236.759Z" fill="#FFA412"/>
<path d="M207.026 236.759H206.473V241.293H207.026V236.759Z" fill="#FFA412"/>
<path d="M201.811 236.759H201.258V241.293H201.811V236.759Z" fill="#FFA412"/>
<path d="M197.152 236.76H196.599V241.294H197.152V236.76Z" fill="#FFA412"/>
<path d="M225.56 236.759H225.007V241.293H225.56V236.759Z" fill="#FFA412"/>
<path d="M226.735 236.759H226.182V241.293H226.735V236.759Z" fill="#FFA412"/>
<path d="M227.871 236.759H227.318V241.293H227.871V236.759Z" fill="#FFA412"/>
<path d="M228.725 236.774V241.276C228.658 241.288 228.588 241.291 228.517 241.291H228.172V236.757H228.517C228.588 236.759 228.658 236.765 228.725 236.774Z" fill="#FFA412"/>
<path d="M229.492 237.194V240.857C229.358 241.023 229.165 241.153 228.939 241.226V236.825C229.165 236.898 229.357 237.029 229.492 237.194Z" fill="#FFA412"/>
<path d="M231.214 233.218V235.778C231.214 235.982 231.139 236.171 231.011 236.329C230.878 236.495 230.685 236.624 230.458 236.698C230.389 236.72 230.318 236.737 230.243 236.748C230.22 236.752 230.198 236.754 230.176 236.757C230.162 236.757 230.149 236.759 230.136 236.761C230.123 236.763 230.112 236.763 230.097 236.763C230.076 236.765 230.056 236.765 230.035 236.765H181.442C180.816 236.765 180.299 236.347 180.267 235.829C180.267 235.812 180.265 235.795 180.265 235.778V233.218C180.265 233.201 180.265 233.184 180.267 233.167C180.299 232.649 180.814 232.231 181.442 232.231H230.039C230.11 232.231 230.177 232.237 230.247 232.246C230.322 232.257 230.393 232.274 230.462 232.296C230.687 232.37 230.88 232.501 231.015 232.665C231.141 232.825 231.214 233.014 231.214 233.218Z" fill="#FFB93E"/>
<path d="M207.35 236.768H181.314C180.756 236.768 180.295 236.35 180.267 235.831C180.267 235.815 180.265 235.798 180.265 235.781V233.221C180.265 233.204 180.265 233.187 180.267 233.17C180.295 232.652 180.756 232.234 181.314 232.234H204.153C204.517 233.567 205.365 235.408 207.34 236.76C207.342 236.762 207.346 236.766 207.35 236.768Z" fill="#FFA412"/>
<path d="M225.302 232.231H224.749V236.765H225.302V232.231Z" fill="#FFA412"/>
<path d="M223.431 232.231H222.879V236.765H223.431V232.231Z" fill="#FFA412"/>
<path d="M221.188 232.231H220.636V236.765H221.188V232.231Z" fill="#FFA412"/>
<path d="M217.752 232.231H217.199V236.765H217.752V232.231Z" fill="#FFA412"/>
<path d="M214.118 232.231H213.565V236.765H214.118V232.231Z" fill="#FFA412"/>
<path d="M208.547 232.231H207.995V236.765H208.547V232.231Z" fill="#FFA412"/>
<path d="M203.33 232.231H202.778V236.765H203.33V232.231Z" fill="#FFA412"/>
<path d="M198.674 232.231H198.121V236.765H198.674V232.231Z" fill="#FFA412"/>
<path d="M227.08 232.231H226.527V236.765H227.08V232.231Z" fill="#FFA412"/>
<path d="M228.257 232.231H227.704V236.765H228.257V232.231Z" fill="#FFA412"/>
<path d="M229.392 232.231H228.839V236.765H229.392V232.231Z" fill="#FFA412"/>
<path d="M230.245 232.248V236.75C230.177 236.761 230.108 236.765 230.037 236.765H229.692V232.231H230.037C230.108 232.231 230.177 232.237 230.245 232.248Z" fill="#FFA412"/>
<path d="M231.013 232.667V236.33C230.88 236.495 230.687 236.626 230.46 236.699V232.298C230.685 232.371 230.878 232.502 231.013 232.667Z" fill="#FFA412"/>
<path d="M215.808 206.392C215.808 206.392 213.256 209.984 210.916 210.033C208.575 210.084 205.015 208.368 205.015 208.368C205.015 208.368 202.866 203.583 204.323 201.71C204.323 201.71 205.785 201.07 207.314 202.201C207.576 202.396 207.843 202.643 208.105 202.958C208.476 203.403 208.892 203.656 209.334 203.789C211.004 204.297 212.986 203.102 213.727 204.256C214.159 204.926 214.63 205.43 215.018 205.784C215.477 206.194 215.808 206.392 215.808 206.392Z" fill="#FFEDDC"/>
<path d="M182.532 232.299C182.532 232.299 191.553 210.451 207.794 210.035C207.794 210.035 222.785 211.7 223.617 232.299H182.532Z" fill="#FFEDDC"/>
<path d="M203.345 210.702C203.345 210.702 209.855 212.147 211.862 211.299C211.862 211.299 212.166 208.578 209.424 208.96C207.548 209.22 206.327 208.319 205.607 207.954C204.591 207.435 203.076 209.563 203.345 210.702Z" fill="#DB6A1D"/>
<path d="M209.01 206.602C208.594 206.915 207.316 202.203 207.316 202.203C207.578 202.397 207.844 202.645 208.107 202.959C208.478 203.405 208.894 203.658 209.336 203.791C209.338 203.929 209.413 206.297 209.01 206.602Z" fill="#E5C1A1"/>
<path d="M215.018 205.785C214.926 205.84 211.916 207.641 211.508 207.641C211.092 207.641 213.727 204.257 213.727 204.257C214.161 204.928 214.632 205.432 215.018 205.785Z" fill="#E5C1A1"/>
<path d="M191.347 226.195C191.18 226.053 197.731 216.554 199.536 216.485C201.34 216.415 205.393 218.565 208.33 218.842C211.264 219.12 214.111 218.288 214.665 220.022C215.22 221.756 216.747 227.903 215.81 228.888C214.873 229.871 194.949 229.27 191.347 226.195Z" fill="#F9DDBF"/>
<path opacity="0.5" d="M197.516 259.173C197.514 259.184 197.514 259.195 197.512 259.206C197.428 260.729 197.182 262.233 196.783 263.701C196.783 263.703 196.781 263.707 196.781 263.709C196.723 263.92 196.663 264.134 196.598 264.343C196.191 265.682 195.655 266.984 194.995 268.235C194.169 269.804 193.148 271.291 191.943 272.657C191.911 272.694 191.877 272.732 191.844 272.769C190.337 274.455 188.551 275.953 186.505 277.193C186.074 277.455 185.632 277.706 185.178 277.944C184.871 278.105 184.564 278.256 184.254 278.404C183.958 278.577 183.645 278.723 183.351 278.904C182.495 279.429 181.427 279.844 180.263 280.174V278.181C180.263 278.165 180.265 278.148 180.265 278.131C180.267 278.097 180.27 278.065 180.276 278.033C180.284 277.996 180.293 277.96 180.304 277.925C180.426 277.505 180.833 277.194 181.314 277.194H176.118C175.636 277.194 175.23 276.882 175.11 276.462C175.099 276.427 175.089 276.391 175.082 276.354C175.078 276.322 175.072 276.29 175.07 276.258C175.069 276.241 175.069 276.224 175.069 276.206V273.646C175.069 273.629 175.069 273.61 175.07 273.595C175.072 273.563 175.076 273.531 175.082 273.499C175.089 273.462 175.099 273.426 175.11 273.391C175.23 272.971 175.636 272.659 176.118 272.659H178.145C177.857 272.518 177.645 272.254 177.593 271.941C177.589 271.921 177.587 271.898 177.583 271.878C177.581 271.865 177.58 271.85 177.58 271.833C177.578 271.816 177.578 271.799 177.578 271.782V269.22C177.578 269.203 177.578 269.186 177.58 269.17C177.581 269.138 177.583 269.104 177.591 269.074C177.598 269.038 177.608 269.003 177.619 268.969C177.737 268.548 178.145 268.235 178.629 268.235H179.793C179.311 268.235 178.903 267.922 178.783 267.503C178.771 267.467 178.76 267.432 178.755 267.394C178.751 267.362 178.745 267.331 178.743 267.299V264.636C178.771 264.156 179.167 263.763 179.667 263.707H176.219C175.659 263.707 175.2 263.289 175.17 262.77C175.168 262.753 175.168 262.737 175.168 262.718V260.158C175.168 260.141 175.168 260.122 175.17 260.105C175.17 260.092 175.172 260.077 175.174 260.064C175.217 259.637 175.552 259.287 175.989 259.195C175.518 259.139 175.142 258.791 175.078 258.352C175.074 258.324 175.07 258.296 175.069 258.268C175.067 258.249 175.067 258.233 175.067 258.216V255.656C175.067 255.637 175.067 255.62 175.069 255.603C175.07 255.571 175.074 255.54 175.08 255.508C175.087 255.47 175.097 255.435 175.108 255.399C175.228 254.98 175.634 254.667 176.116 254.667H178.144C177.855 254.526 177.643 254.262 177.591 253.951C177.587 253.931 177.585 253.908 177.581 253.888C177.58 253.873 177.578 253.86 177.578 253.845C177.576 253.828 177.576 253.811 177.576 253.792V251.232C177.576 251.215 177.576 251.197 177.578 251.18C177.58 251.148 177.581 251.116 177.589 251.084C177.596 251.049 177.606 251.013 177.617 250.979C177.735 250.558 178.144 250.243 178.627 250.243H182.598C182.114 250.243 181.708 249.931 181.588 249.509C181.577 249.476 181.567 249.44 181.56 249.404C181.554 249.373 181.55 249.341 181.548 249.307C181.547 249.29 181.547 249.273 181.547 249.256V246.694C181.547 246.678 181.547 246.661 181.548 246.644C181.575 246.164 181.97 245.771 182.47 245.715H176.215C175.85 245.715 175.524 245.535 175.338 245.267L175.342 245.245L176.002 241.224L176.006 241.202L176.944 235.465C178.033 235.611 179.109 235.829 180.164 236.113C180.225 236.13 180.287 236.147 180.349 236.164C180.353 236.166 180.357 236.168 180.362 236.168C180.977 236.34 181.584 236.533 182.182 236.752C182.187 236.754 182.193 236.756 182.199 236.758C184.953 237.759 187.519 239.248 189.743 241.181C189.782 241.215 189.822 241.25 189.859 241.286C191.015 242.301 192.078 243.44 193.022 244.692C193.211 244.942 193.395 245.194 193.573 245.453C193.633 245.537 193.691 245.623 193.747 245.709C193.751 245.711 193.751 245.713 193.751 245.717C194.038 246.14 194.31 246.575 194.568 247.02C195.177 248.071 195.689 249.15 196.107 250.243C196.663 251.695 197.055 253.176 197.285 254.667C197.293 254.704 197.297 254.742 197.304 254.779C197.529 256.247 197.594 257.718 197.516 259.173Z" fill="#E2810E"/>
<path d="M185.15 273.724C194.485 264.395 194.485 249.27 185.15 239.941C175.816 230.611 160.681 230.611 151.347 239.941C142.012 249.27 142.012 264.395 151.347 273.724C160.681 283.054 175.816 283.054 185.15 273.724Z" fill="#E2810E"/>
<path d="M178.863 278.239C178.569 278.419 178.269 278.593 177.966 278.76C177.862 278.816 177.759 278.872 177.656 278.926C177.42 279.052 177.184 279.172 176.948 279.29C165.564 284.876 151.681 280.589 145.491 269.37C139.589 258.669 142.761 245.415 152.447 238.456C153.219 237.902 154.032 237.387 154.887 236.916C155.192 236.748 155.503 236.587 155.813 236.433C156.114 236.283 156.418 236.139 156.723 236.004C157.658 235.587 158.61 235.237 159.57 234.948C160.998 234.519 162.446 234.229 163.898 234.075C168.401 233.598 172.932 234.42 176.948 236.385C181.211 238.467 184.895 241.836 187.359 246.305C193.564 257.556 189.741 271.628 178.863 278.239Z" fill="#FFB93E"/>
<path d="M166.591 279.501C164.592 279.501 162.583 279.219 160.61 278.649C155.114 277.061 150.566 273.428 147.806 268.42C145.043 263.412 144.399 257.631 145.988 252.138C147.577 246.645 151.212 242.1 156.223 239.342C166.565 233.643 179.618 237.416 185.321 247.754C191.021 258.09 187.245 271.136 176.903 276.835C173.689 278.601 170.159 279.501 166.591 279.501ZM166.526 237.261C163.126 237.261 159.682 238.093 156.5 239.845C151.626 242.531 148.089 246.953 146.543 252.297C144.995 257.642 145.624 263.268 148.312 268.141C150.999 273.014 155.425 276.548 160.771 278.093C166.119 279.638 171.748 279.011 176.624 276.325C186.687 270.78 190.361 258.088 184.815 248.029C181.018 241.155 173.879 237.261 166.526 237.261Z" fill="#FFA412"/>
<path d="M87.3319 170.492C87.3319 170.492 86.9271 166.471 89.0315 166.609C91.1359 166.746 91.6924 167.711 91.4582 168.484C91.2239 169.258 89.1777 171.812 89.1777 171.812L87.3319 170.492Z" fill="#FFB27D"/>
<path d="M54.5522 178.548C54.5522 178.548 56.8814 181.282 61.8884 184.44C62.3625 184.74 62.8591 185.041 63.3819 185.344C65.327 186.477 67.6075 187.637 70.2422 188.717C70.5326 188.837 70.8737 188.968 71.2559 189.105C74.2579 190.189 79.7783 191.725 83.2019 191.862C83.4998 191.873 83.7828 191.873 84.0451 191.864C89.2526 191.654 89.8879 171.45 89.8879 171.45C89.8879 171.45 89.307 169.43 86.6311 169.937C86.6311 169.937 82.5666 181.346 81.1106 182.277C79.8177 183.103 72.3821 171.84 65.9828 171.052C61.6767 170.522 54.5522 178.548 54.5522 178.548Z" fill="#739AF0"/>
<path d="M68.5445 276.934C68.5445 276.934 68.1603 281.382 69.101 281.845L81.1387 281.82C81.1387 281.82 81.1387 280.432 79.2049 280.123C77.2711 279.814 73.8738 278.683 73.3003 276.164C72.7251 273.644 68.5445 276.934 68.5445 276.934Z" fill="#132642"/>
<path d="M77.3835 223.24C77.3236 226.149 77.1849 229.149 76.9113 231.844C75.6109 244.637 75.1536 260.093 74.9681 263.072C74.6439 268.245 73.6208 276.509 73.6208 276.509C73.6208 276.509 71.5933 278.433 67.6394 277.515C67.6394 277.515 64.3639 265.613 63.633 253.079C63.6218 252.873 63.6106 252.667 63.5993 252.459C63.515 250.802 63.425 248.908 63.3351 246.865C62.7336 233.181 62.0777 212.854 62.0777 212.854L77.183 209.309C77.183 209.31 77.5316 215.991 77.3835 223.24Z" fill="#2A4E96"/>
<path d="M77.3835 223.24C73.5552 229.842 66.2583 242.003 63.3351 246.865C62.7336 233.181 62.0777 212.854 62.0777 212.854L77.183 209.309C77.183 209.31 77.5316 215.991 77.3835 223.24Z" fill="#233862"/>
<path d="M71.2578 189.105C74.2598 190.189 79.7802 191.725 83.2038 191.862C82.6809 191.764 78.8695 191.01 77.4603 189.309C75.9462 187.481 73.3997 182.517 71.3721 184.543C70.4164 185.496 70.6975 187.38 71.2578 189.105Z" fill="#6385DB"/>
<path d="M45.8743 221.09C45.8743 221.09 44.9374 224.765 45.091 225.581C45.2447 226.398 46.161 229.164 46.7307 229.849C47.3003 230.534 47.3247 226.866 47.7051 226.291C48.0855 225.714 47.8794 227.66 48.1829 227.819C48.4865 227.978 48.9943 226.345 49.2211 225.766C49.4478 225.188 48.4097 223.173 48.3141 221.727C48.2167 220.283 45.8743 221.09 45.8743 221.09Z" fill="#FFB27D"/>
<path d="M38.5568 271.88C38.5568 271.88 36.415 273.833 36.8329 275.223C37.2507 276.61 39.1846 277.537 39.4451 279.234C39.7055 280.931 40.7511 281.856 41.6918 281.856C42.6325 281.856 46.176 281.856 46.176 281.856C46.176 281.856 46.8675 280.661 45.196 280.302C43.5245 279.942 42.893 277.947 42.9979 276.095C43.1029 274.243 42.8405 271.775 42.8405 271.775L39.2876 270.953L38.5568 271.88Z" fill="#132642"/>
<path d="M74.8032 213.165C74.8032 213.165 60.6629 243.402 53.1374 256.671C45.612 269.94 43.2603 273.642 43.2603 273.642C43.2603 273.642 38.9485 271.945 38.5568 270.788C38.5568 270.788 41.4351 245.174 46.4739 238.93C49.3222 235.402 52.6671 224.813 52.8226 221.111C52.98 217.408 56.2837 208.571 56.2837 208.571L74.8032 213.165Z" fill="#2A4E96"/>
<path d="M77.4379 211.591C77.4379 211.591 72.8338 216.545 65.0085 218.039C61.5736 218.697 54.6047 219.331 52.8751 216.887C52.4685 216.314 52.4647 215.464 52.5547 214.138C52.787 210.692 53.6546 204.027 49.7383 190.637C49.3728 189.391 49.1274 188.197 48.985 187.058C48.1305 180.207 48.2223 175.035 54.17 172.272C63.0802 168.134 66.738 171.538 66.738 171.538C66.738 171.538 71.4771 173.752 73.6433 180.202C77.9775 193.105 77.4379 211.591 77.4379 211.591Z" fill="#739AF0"/>
<path d="M59.5217 171.134C61.0227 172.197 63.6611 172.827 66.1777 171.57C66.3708 171.475 66.3464 170.143 66.2995 168.836C66.2508 167.553 66.1309 166.296 66.1309 166.296L62.9603 164.216L59.934 162.232C60.2975 169.055 58.8453 170.651 59.5217 171.134Z" fill="#FFB27D"/>
<path d="M60.4662 165.049C60.4662 165.049 62.5237 168.136 66.2995 168.838C66.2508 167.555 66.114 166.143 66.114 166.143L62.9584 164.218L60.4662 165.049Z" fill="#ED985F"/>
<path d="M68.9698 165.495C68.9698 165.495 61.2982 168.356 59.5911 163.631C57.884 158.908 55.744 156.095 60.5711 154.069C65.3963 152.043 67.0041 153.505 67.9654 154.942C68.9249 156.38 70.9224 164.628 68.9698 165.495Z" fill="#FFB27D"/>
<path d="M54.8127 154.599C54.7246 154.532 54.5447 154.498 54.1718 154.551C54.1718 154.551 54.4304 154.307 54.824 154.221C54.7996 153.693 54.8933 152.73 55.7328 152.335C55.7328 152.335 55.3074 152.682 55.3543 153.24C56.1713 151.987 58.2138 150.788 64.3844 150.069C72.5152 149.12 70.8905 154.764 69.9742 155.579C69.0579 156.394 66.1178 155.234 64.2177 155.77C62.3176 156.304 62.5012 159.165 61.9222 159.678C61.3432 160.19 61.4668 159.463 60.5018 159.236C59.5367 159.012 59.741 160.495 60.187 161.399C60.6311 162.304 59.6623 163.802 59.6623 163.802C59.6623 163.802 59.6623 163.802 58.1688 162.72C56.6772 161.637 54.408 156.255 54.7303 154.95C54.7565 154.835 54.7846 154.717 54.8127 154.599Z" fill="#2C3A64"/>
<path d="M52.5565 214.139C52.7889 210.693 53.6565 204.027 49.7401 190.637C49.3747 189.392 49.1292 188.197 48.9868 187.058C51.8969 186.099 57.1981 188.233 57.1981 188.233C57.1981 188.233 58.4461 205.934 52.5565 214.139Z" fill="#6385DB"/>
<path d="M52.5678 173.167C52.5678 173.167 48.9868 174.469 46.7026 183.943C45.1941 190.204 42.4152 199.405 42.1022 202.297C41.7893 205.188 45.2784 222.116 45.2784 222.116C45.2784 222.116 45.7713 222.474 46.9762 222.234C48.1305 222.004 48.6664 221.223 48.6664 221.223C48.6664 221.223 49.5003 209.939 49.2848 204.611C49.1948 202.398 59.5367 188.401 65.119 186.599C67.3133 185.891 52.5678 173.167 52.5678 173.167Z" fill="#739AF0"/>
<path d="M102.653 160.903C102.653 160.903 92.3033 160.609 80.3611 162.806L79.1131 159.663L77.7451 156.221C77.7451 156.221 89.7342 151.063 96.9411 143.879L102.653 160.903Z" fill="#AEC3FF"/>
<path d="M96.7762 143.711L102.718 161.24C103.588 160.984 104.062 160.051 103.76 159.197L98.5302 144.468C98.2772 143.756 97.4696 143.408 96.7762 143.711Z" fill="#F99746"/>
<path d="M91.104 173.951C89.9478 174.181 88.8141 173.426 88.5837 172.271L86.5374 162.04C86.3069 160.886 87.0621 159.751 88.2182 159.521C89.3744 159.291 90.5081 160.045 90.7386 161.201L92.7849 171.432C93.0154 172.585 92.2602 173.718 91.104 173.951Z" fill="#F99746"/>
<path d="M102.653 160.903C102.653 160.903 92.3033 160.609 80.3611 162.806L79.1131 159.663C90.3339 157.373 102.653 160.903 102.653 160.903Z" fill="#739AF0"/>
<path d="M83.661 162.174L80.4267 162.744C80.4754 162.746 77.4228 163.337 76.4222 160.633C76.3304 160.448 76.2723 160.266 76.2311 160.049C75.4534 156.678 77.3048 156.056 77.3048 156.056L81.4667 154.436L82.7896 159.112C82.7896 159.112 82.7896 159.112 82.7896 159.129L83.661 162.174Z" fill="#F99746"/>
<path d="M83.661 162.175L80.4267 162.744C80.4754 162.746 77.4229 163.338 76.4222 160.633C78.2511 159.304 82.7896 159.113 82.7896 159.113C82.7896 159.113 82.7896 159.113 82.7896 159.13L83.661 162.175Z" fill="#ED7D2B"/>
<path d="M90.8286 164.044C90.8286 164.044 89.247 164.673 89.5356 165.369C89.826 166.066 91.8367 167.023 92.1553 166.474C92.4738 165.924 91.8236 163.455 90.8286 164.044Z" fill="#FFB27D"/>
<path d="M87.3019 169.859C87.3019 169.859 87.004 168.241 86.9853 167.497C86.9665 166.754 86.8785 166.147 87.0546 166.127C87.2289 166.106 87.3563 166.243 87.4275 166.481C87.4987 166.72 87.7722 168.202 87.7722 168.202L87.6336 169.632L87.3019 169.859Z" fill="#FFB27D"/>
<path d="M249.025 72.512C249.025 65.1932 254.961 59.2603 262.284 59.2603C269.607 59.2603 275.544 65.1932 275.544 72.512C275.544 79.8308 269.607 85.7637 262.284 85.7637C254.961 85.7637 249.025 79.8308 249.025 72.512Z" fill="#AEC3FF"/>
<path d="M258.029 67.195C258.029 64.8465 259.934 62.9419 262.284 62.9419C264.634 62.9419 266.54 64.8465 266.54 67.195C266.54 69.5434 264.634 71.448 262.284 71.448C259.934 71.4499 258.029 69.5453 258.029 67.195Z" fill="#739AF0"/>
<path d="M262.284 71.4497C258.171 71.4497 254.838 74.7814 254.838 78.8921H269.733C269.731 74.7814 266.398 71.4497 262.284 71.4497Z" fill="#739AF0"/>
<path d="M279.767 39.1789C288.734 30.2168 288.734 15.6865 279.767 6.72447C270.799 -2.23756 256.261 -2.23755 247.293 6.72448C238.326 15.6865 238.326 30.2168 247.293 39.1789C256.261 48.1409 270.799 48.1409 279.767 39.1789Z" fill="#AEC3FF"/>
<path d="M256.162 13.7426C256.162 9.6749 259.462 6.37695 263.532 6.37695C267.602 6.37695 270.902 9.6749 270.902 13.7426C270.902 17.8102 267.602 21.1082 263.532 21.1082C259.462 21.1082 256.162 17.8102 256.162 13.7426Z" fill="#739AF0"/>
<path d="M263.532 21.1079C256.41 21.1079 250.634 26.8798 250.634 33.9982H276.43C276.43 26.8798 270.657 21.1079 263.532 21.1079Z" fill="#739AF0"/>
<path d="M297.339 67.5134C305.246 67.5134 311.655 61.1075 311.655 53.2054C311.655 45.3034 305.246 38.8975 297.339 38.8975C289.432 38.8975 283.022 45.3034 283.022 53.2054C283.022 61.1075 289.432 67.5134 297.339 67.5134Z" fill="#AEC3FF"/>
<path d="M291.817 46.7444C291.817 44.2086 293.874 42.1523 296.411 42.1523C298.949 42.1523 301.006 44.2086 301.006 46.7444C301.006 49.2801 298.949 51.3364 296.411 51.3364C293.872 51.3364 291.817 49.2801 291.817 46.7444Z" fill="#739AF0"/>
<path d="M296.411 51.3364C291.97 51.3364 288.37 54.934 288.37 59.3725H304.454C304.452 54.934 300.852 51.3364 296.411 51.3364Z" fill="#739AF0"/>
<path d="M342.78 278.687C343.058 278.855 343.339 279.018 343.624 279.175C343.721 279.23 343.817 279.282 343.914 279.333C344.135 279.451 344.356 279.563 344.579 279.674C355.266 284.919 368.299 280.893 374.108 270.362C379.649 260.317 376.669 247.876 367.579 241.342C366.854 240.821 366.091 240.336 365.289 239.896C365.001 239.737 364.712 239.585 364.42 239.443C364.137 239.302 363.852 239.168 363.565 239.04C362.686 238.649 361.794 238.319 360.893 238.049C359.553 237.647 358.193 237.373 356.831 237.231C352.603 236.784 348.351 237.555 344.579 239.4C340.578 241.355 337.119 244.518 334.805 248.711C328.981 259.272 332.57 272.48 342.78 278.687Z" fill="#FFB93E"/>
<path d="M344.482 277.621C334.633 272.194 331.037 259.772 336.465 249.927C341.896 240.083 354.325 236.49 364.176 241.915C374.025 247.342 377.621 259.764 372.193 269.61C368.479 276.342 361.493 280.15 354.295 280.15C350.967 280.15 347.596 279.337 344.482 277.621ZM337.451 250.47C332.32 259.77 335.718 271.509 345.025 276.636C354.331 281.764 366.076 278.367 371.207 269.066C376.338 259.766 372.94 248.028 363.633 242.9C360.691 241.278 357.505 240.51 354.361 240.51C347.562 240.51 340.959 244.11 337.451 250.47Z" fill="#FFA412"/>
<path d="M371.13 180.586C371.063 180.31 377.108 183.316 377.413 183.655C380.248 186.798 379.441 190.899 377.818 190.938C376.778 190.963 376.978 192.693 376.978 192.693L365.389 187.792C365.389 187.794 366.783 179.66 371.13 180.586Z" fill="#2C3A64"/>
<path d="M369.702 181.22C369.702 181.22 369.288 176.707 374.333 176.707C374.333 176.707 372.804 177.121 372.013 177.951C372.013 177.951 375.23 176.063 378.732 178.964C382.235 181.865 380.059 189.14 381.124 190.521C382.188 191.903 386.335 192.178 385.829 196.645C385.321 201.111 372.669 206.705 373.48 210.402C373.48 210.402 368.522 203.117 372.067 199.793C372.067 199.793 370.339 201.42 370.163 203.355C370.163 203.355 369.695 199.579 372.099 198.371C374.226 197.302 375.969 193.393 375.785 192.695C375.599 191.994 369.702 181.22 369.702 181.22Z" fill="#2C3A64"/>
<path d="M374.284 202.45C375.062 198.706 379.919 197.545 382.218 200.602C382.632 201.152 382.922 201.802 383.016 202.568C383.541 206.817 376.742 224.127 375.768 225.695C373.995 228.549 363.558 238.329 363.558 238.329L361.633 237.164C361.633 237.164 369.037 224.637 370.184 223.464C371.509 222.11 372.805 209.559 374.284 202.45Z" fill="#ED985F"/>
<path d="M364.289 237.171C364.289 237.171 361.482 235.329 360.417 235.448C359.353 235.568 356.278 236.452 356.24 236.904C356.203 237.355 359.668 237.638 359.9 237.885C360.132 238.132 362.486 239.702 363.339 239.209C364.191 238.716 364.289 237.171 364.289 237.171Z" fill="#ED985F"/>
<path d="M383.872 278.793L386.382 278.425C386.382 278.425 394.816 271.726 396.071 259.229C396.199 257.957 396.227 256.665 396.131 255.365C396.12 255.215 396.137 255.065 396.219 254.938C396.219 254.938 396.219 254.936 396.221 254.934C396.491 254.52 397.164 253.485 398.073 252.011C398.968 250.56 400.503 247.816 402.192 244.735C405.233 239.19 408.773 232.557 409.987 230.444C413.856 223.712 411.992 219.183 411.992 219.183C411.992 219.183 401.198 218.116 398.239 215.531L397.173 217.172C397.173 217.172 394.835 227.519 394.945 227.568C394.831 227.92 394.713 228.277 394.595 228.643C392.749 234.336 390.626 241.452 389.468 247.247C388.818 250.507 388.473 253.348 388.658 255.285C388.722 255.949 388.645 256.968 388.467 258.229C387.423 265.658 383.872 278.793 383.872 278.793Z" fill="#2B478B"/>
<path d="M378.613 281.966H389.076C389.076 281.966 389.327 280.372 388.78 279.163C388.257 278.001 387.51 277.966 388.685 276.146C388.019 276.829 385.881 277.114 384.369 276.91C384.184 277.209 383.174 279.224 382.555 279.67C381.871 280.163 378.822 279.987 378.613 281.966Z" fill="#1A2D4C"/>
<path d="M394.595 228.644C395.509 233.682 397.668 242.068 402.191 244.737C405.233 239.192 408.773 232.559 409.987 230.446C413.856 223.713 411.992 219.185 411.992 219.185C411.992 219.185 401.198 218.118 398.239 215.533L397.173 217.174C397.173 217.174 394.835 227.521 394.945 227.569C394.831 227.922 394.713 228.279 394.595 228.644Z" fill="#233862"/>
<path d="M375.403 200.128C375.403 200.128 373.922 201.665 373.248 203.508C373.248 203.508 375.609 210.282 381.124 211.132C381.124 211.13 376.759 200.124 375.403 200.128Z" fill="#ED7D2B"/>
<path d="M401.935 219.962L401.899 218.005C405.799 218.496 415.344 213.348 415.344 213.348C415.344 213.348 419.424 216.059 419.982 223.803C420.256 227.583 421.98 243.569 422.171 248.342C422.24 250.073 422.263 251.307 422.272 251.801C422.272 251.803 422.272 251.805 422.272 251.807C422.274 251.957 422.345 252.09 422.437 252.21C423.245 253.234 423.943 254.32 424.551 255.446C430.5 266.51 427.39 281.545 427.39 281.545L426.007 281.193C426.007 281.193 420.975 265.607 417.687 258.865C417.128 257.721 416.622 256.833 416.197 256.318C414.96 254.818 413.656 252.269 412.372 249.202C409.944 243.402 407.585 235.75 405.904 229.826C405.784 229.849 401.935 219.962 401.935 219.962Z" fill="#2B478B"/>
<path d="M379.115 206.909C385.49 205.446 381.418 196.495 381.047 196.652C380.164 196.472 378.223 194.921 376.488 191.895L376.253 192.099L372.339 195.53C372.339 195.53 373.244 196.864 374.005 198.171C374.599 199.193 375.105 200.203 375.024 200.547C374.711 200.794 377.413 207.299 379.115 206.909Z" fill="#FFB27D"/>
<path d="M372.339 195.528C372.339 195.528 373.244 196.862 374.005 198.169C376.439 196.669 376.443 193.657 376.253 192.097L372.339 195.528Z" fill="#ED985F"/>
<path d="M372.23 197.248C372.23 197.248 378.14 193.961 376.036 190.313C373.932 186.666 373.276 183.784 369.414 185.73C365.552 187.674 365.627 189.485 366.033 190.873C366.44 192.26 370.639 198.008 372.23 197.248Z" fill="#FFB27D"/>
<path d="M365.036 188.745C365.306 187.125 366.131 186.972 366.704 187.08C368.887 183.473 372.453 184.88 372.453 184.88C374.359 187.268 377.112 187.676 377.112 187.676C377.112 187.676 376.426 188.951 373.6 189.742C372.736 189.983 371.758 189.837 370.812 189.519C372.772 190.611 374.822 191.03 374.822 191.03C371.098 191.371 367.555 187.968 367.188 187.605C367.015 188.133 366.713 189.236 366.895 190.043C367.141 191.141 368.115 193.126 367.519 193.384C367.519 193.382 364.63 191.174 365.036 188.745Z" fill="#2C3A64"/>
<path d="M419.066 281.966H429.53C429.53 281.966 429.781 280.373 429.233 279.163C428.711 278.002 427.89 277.475 428.087 276.071C427.421 276.754 426.338 277.522 424.824 277.318C424.639 277.618 423.627 279.226 423.008 279.67C422.324 280.163 419.276 279.987 419.066 281.966Z" fill="#1A2D4C"/>
<path d="M378.365 214.005C379.711 214.475 381.601 214.732 383.535 214.942C386.286 215.241 389.127 215.447 390.617 216.041C391.16 216.258 391.522 216.524 391.636 216.867C392.281 218.805 395.123 221.796 395.123 221.796C413.345 220.966 415.346 213.35 415.346 213.35C403.087 199.104 382.328 194.978 382.328 194.978C382.328 194.978 380.846 194.35 377.112 197.315C374.619 199.295 374.947 200.055 374.947 200.055C374.947 200.055 374.402 212.625 378.365 214.005Z" fill="#F99746"/>
<path d="M383.533 214.941C386.284 215.241 389.125 215.447 390.615 216.041C391.222 206.958 386.934 200.126 386.934 200.126C386.934 200.126 384.137 211.505 383.533 214.941Z" fill="#ED7D2B"/>
<path d="M380.702 198.37C380.702 198.37 387.598 199.051 388.15 203.529C388.703 208.007 381.539 226.248 380.513 227.899C378.644 230.907 367.645 241.213 367.645 241.213L365.617 239.984C365.617 239.984 373.42 226.785 374.627 225.549C376.525 223.611 378.367 199.92 380.702 198.37Z" fill="#FFB27D"/>
<path d="M387.952 206.223C387.933 206.325 381.588 208.295 377.503 206.223C377.503 206.223 376.628 196.805 381.506 197.316C386.382 197.828 389.269 199.362 389.393 201.695C389.515 204.029 387.952 206.223 387.952 206.223Z" fill="#F99746"/>
<path d="M368.272 239.905C368.272 239.905 365.799 237.636 364.731 237.581C363.663 237.527 360.485 237.905 360.374 238.345C360.264 238.786 363.638 239.623 363.828 239.904C364.017 240.185 366.086 242.113 367.008 241.765C367.93 241.415 368.272 239.905 368.272 239.905Z" fill="#FFB27D"/>
<path d="M127.028 282.474C127.853 282.479 128.716 281.878 128.96 281.131L178.608 128.691C178.85 127.946 178.38 127.337 177.555 127.332C176.731 127.326 175.867 127.927 175.623 128.674L125.975 281.114C125.731 281.86 126.204 282.468 127.028 282.474Z" fill="#233862"/>
<path d="M87.0152 282.24C87.8397 282.246 88.7036 281.644 88.9472 280.897L138.596 128.457C138.839 127.712 138.367 127.103 137.542 127.098C136.718 127.092 135.854 127.693 135.61 128.44L85.9621 280.88C85.7185 281.628 86.1907 282.236 87.0152 282.24Z" fill="#233862"/>
<path d="M130.097 149.698L170.277 149.932C171.051 149.936 171.872 149.367 172.1 148.666C172.329 147.964 171.881 147.387 171.107 147.384L130.928 147.149C130.154 147.146 129.333 147.715 129.104 148.415C128.876 149.118 129.324 149.695 130.097 149.698Z" fill="#233862"/>
<path d="M121.429 176.314L161.609 176.548C162.382 176.552 163.203 175.983 163.432 175.282C163.66 174.58 163.213 174.003 162.439 173.999L122.259 173.765C121.485 173.761 120.664 174.331 120.436 175.031C120.207 175.733 120.655 176.31 121.429 176.314Z" fill="#233862"/>
<path d="M113.081 201.949L153.26 202.183C154.034 202.187 154.855 201.617 155.084 200.917C155.312 200.216 154.864 199.638 154.091 199.634L113.911 199.4C113.137 199.396 112.316 199.966 112.088 200.666C111.859 201.366 112.305 201.945 113.081 201.949Z" fill="#233862"/>
<path d="M103.681 230.808L143.861 231.042C144.635 231.046 145.456 230.477 145.684 229.776C145.913 229.076 145.465 228.497 144.691 228.493L104.512 228.259C103.738 228.256 102.917 228.825 102.688 229.525C102.46 230.226 102.908 230.802 103.681 230.808Z" fill="#233862"/>
<path d="M93.8436 261.012L134.023 261.246C134.797 261.25 135.618 260.68 135.847 259.98C136.075 259.279 135.627 258.701 134.853 258.697L94.6738 258.463C93.8999 258.459 93.0791 259.028 92.8505 259.729C92.6219 260.429 93.0697 261.008 93.8436 261.012Z" fill="#233862"/>
<path d="M464.451 283H0.549045C0.247351 283 0 282.753 0 282.451V282.21C0 281.908 0.247351 281.661 0.549045 281.661H464.451C464.753 281.661 465 281.908 465 282.21V282.451C465 282.753 464.753 283 464.451 283Z" fill="#233862"/>
<path d="M191.791 81.2144C189.173 70.416 195.807 59.5427 206.611 56.9245C217.416 54.3083 228.296 60.9379 230.916 71.7363C233.535 82.5347 226.9 93.408 216.095 96.0261C205.29 98.6424 194.409 92.0109 191.791 81.2144Z" fill="#AEC3FF"/>
<path d="M203.171 70.1517C202.33 66.6871 204.46 63.1962 207.927 62.3553C211.394 61.5145 214.886 63.6438 215.728 67.1084C216.569 70.5731 214.439 74.0639 210.972 74.9048C207.503 75.7457 204.012 73.6163 203.171 70.1517Z" fill="#739AF0"/>
<path d="M210.972 74.9046C204.904 76.3747 201.177 82.4837 202.648 88.5477L224.623 83.2253C223.152 77.1594 217.04 73.4345 210.972 74.9046Z" fill="#739AF0"/>
<path d="M131.145 98.7043C131.145 98.7043 130.39 100.706 130.212 101.916C130.105 102.639 130.341 104.444 129.335 104.648C128.257 104.868 127.753 101.425 127.873 100.856C128.006 100.231 128.392 98.0676 129.091 97.9121C129.792 97.7548 131.145 98.7043 131.145 98.7043Z" fill="#FFB27D"/>
<path d="M130.819 98.9419C130.819 98.9419 131.239 100.388 131.239 100.923C131.239 101.459 131.557 103.04 131.239 103.137C130.819 103.264 130.096 101.33 130.096 101.33L130.819 98.9419Z" fill="#FFB27D"/>
<path d="M197.051 83.1528C195.915 83.8588 196.245 83.4375 194.666 84.4637C193.086 85.4919 191.152 85.756 189.996 85.0331L189.291 84.917L188.446 84.7746L188.253 82.2258C188.253 82.2258 188.772 82.164 189.419 82.0685C189.615 82.0404 189.825 82.0067 190.035 81.9711C190.438 81.6845 191.146 81.0028 191.667 80.7051L191.836 81.4242C192.764 81.0778 193.983 80.8549 196.21 81.2819C196.656 81.3662 197.059 81.6209 197.304 82.001C197.536 82.3587 197.621 82.8007 197.051 83.1528Z" fill="#FFB27D"/>
<path d="M149.419 60.6006C149.419 60.6006 153.073 64.9341 157.726 63.1213C157.726 63.1213 158.727 60.7017 158.742 58.9169C158.743 58.6978 158.745 58.4843 158.749 58.2821C158.773 56.2726 158.841 55.1471 158.841 55.1471C158.841 55.1471 158.839 55.1471 158.835 55.1471C158.623 55.059 151.722 52.2274 151.728 52.4615C151.848 57.8925 149.419 60.6006 149.419 60.6006Z" fill="#FFB27D"/>
<path d="M152.423 53.7559C153.088 54.9882 155.372 57.4003 158.749 58.2824C158.773 56.2729 158.841 55.1474 158.841 55.1474C158.841 55.1474 158.839 55.1474 158.835 55.1474C158.646 55.0949 152.224 53.3926 152.423 53.7559Z" fill="#ED975D"/>
<path d="M160.287 54.9373C160.287 54.9373 152.526 56.7614 151.463 51.9128C150.401 47.0642 148.684 44.034 153.596 42.665C158.507 41.296 159.879 42.9347 160.627 44.4666C161.374 45.9986 162.279 54.338 160.287 54.9373Z" fill="#FFB27D"/>
<path d="M151.729 53.2333C151.623 53.3008 149.953 53.8139 146.79 47.5158C146.293 46.527 145.954 44.3883 147.112 42.4986C148.27 40.609 152.374 39.1239 155.783 38.4759C159.193 37.8298 160.01 39.7475 160.814 41.6746C161.657 43.6972 164.091 45.364 164.091 45.364C161.151 47.0064 157.61 44.6579 156.382 45.0437C155.155 45.4295 154.722 47.3622 154.63 47.9821C154.538 48.602 154.396 49.117 152.854 48.5627C151.312 48.0102 152.157 50.7482 152.404 51.2707C152.404 51.2726 152.614 52.6678 151.729 53.2333Z" fill="#A9453D"/>
<path d="M131.589 173.819H126.889C125.904 173.819 124.809 172.834 124.536 171.029C124.262 169.222 122.237 168.238 121.798 166.761C121.36 165.283 123.606 163.202 123.606 163.202L123.981 162.721L124.371 162.219L128.094 163.094C128.094 163.094 128.186 163.98 128.244 165.109C128.284 165.924 128.306 166.866 128.259 167.691C128.149 169.662 128.812 171.783 130.562 172.167C132.314 172.548 131.589 173.819 131.589 173.819Z" fill="#A9453D"/>
<path d="M161.974 173.95H151.69C151.57 173.928 151.48 173.901 151.426 173.873C150.594 173.457 150.854 170.274 150.954 169.291C150.972 169.109 150.987 169.002 150.987 169.002C150.987 169.002 155.369 165.5 155.972 168.182C155.991 168.266 156.013 168.347 156.036 168.429V168.431C156.796 170.94 160.241 170.984 162.204 171.302C162.251 171.309 162.296 171.319 162.341 171.33C163.848 171.695 163.525 173.95 161.974 173.95Z" fill="#A9453D"/>
<path d="M161.942 102.341C161.942 102.341 161.277 110.637 160.495 120.61C159.433 134.157 158.155 150.797 158.028 153.949C157.808 159.423 156.931 168.178 156.931 168.178C156.931 168.178 154.851 170.259 150.689 169.382C150.689 169.382 146.981 156.883 145.92 143.658C145.904 143.441 145.889 143.223 145.872 143.004C144.884 129.543 143.351 101.193 143.351 101.193L161.942 102.341Z" fill="#F99746"/>
<path d="M161.942 102.341C161.942 102.341 161.277 110.637 160.495 120.61L145.92 143.658C145.904 143.441 145.889 143.223 145.872 143.004C144.884 129.543 143.351 101.193 143.351 101.193L161.942 102.341Z" fill="#ED7D2B"/>
<path d="M158.905 103.328C158.905 103.328 146.912 133.373 139.027 147.494C131.141 161.612 128.677 165.553 128.677 165.553C128.677 165.553 124.159 163.747 123.749 162.515C123.749 162.515 126.764 135.257 132.044 128.61C135.028 124.855 138.534 113.587 138.697 109.647C138.862 105.706 139.765 97.9082 139.765 97.9082L158.905 103.328Z" fill="#F99746"/>
<path d="M130.159 99.2752C131.486 99.7004 131.7 99.6049 131.7 99.6049C131.7 99.6049 138.161 87.8495 138.815 86.7726C139.469 85.6958 152.531 73.5902 152.531 73.5902L149.175 61.0801C149.175 61.0801 134.317 80.3078 132.713 83.0664C130.062 87.6266 128.508 98.2153 128.508 98.2153C128.508 98.2153 129.117 98.94 130.159 99.2752Z" fill="#4662BC"/>
<path d="M164.474 78.5026C164.427 81.072 164.279 83.9599 164.076 86.8926C164.063 87.0668 164.052 87.241 164.039 87.4151C163.91 89.2317 163.771 91.0539 163.61 92.8312C163.546 93.5428 163.477 94.247 163.406 94.938L163.394 95.0317C163.389 95.2901 163.357 95.571 163.329 95.8276C162.673 102.48 161.987 107.737 161.86 107.817C161.708 107.918 161.535 107.969 161.348 107.946C159.602 107.727 154.394 108.122 150.129 107.195C146.531 106.437 143.432 104.999 140.149 103.06C139.712 102.802 138.719 102.12 138.8 101.611C138.878 101.051 139.026 100.242 139.212 99.2229C139.858 95.6834 140.975 89.5969 141.356 82.4729C141.429 81.1451 141.537 79.836 141.678 78.5457C142.043 75.1897 142.63 72.0003 143.417 69.1687C144.879 63.9081 147.028 59.8779 149.723 58.301C150.075 58.1044 151.969 59.3086 153.71 60.4248C155.318 61.4548 157.01 61.7394 158.655 61.5952L160.104 63.1965C161.858 65.234 163.726 67.9477 164.236 71.8037C164.275 72.0884 164.307 72.3918 164.335 72.7139C164.479 74.287 164.513 76.2759 164.474 78.5026Z" fill="#6980E2"/>
<path d="M164.474 78.5029C164.427 81.0724 164.279 83.9602 164.076 86.893C164.063 87.0671 164.052 87.2413 164.039 87.4155C154.068 81.1772 152.531 69.7627 152.531 69.7627C157.437 69.9781 161.335 71.1055 164.339 72.7161C164.479 74.2873 164.513 76.2762 164.474 78.5029Z" fill="#4662BC"/>
<path d="M189.668 83.4165C189.771 81.9389 189.005 81.6917 189.005 81.6917C189.005 81.6917 173.969 78.9687 172.691 78.566C171.413 78.1634 160.484 66.8013 160.484 66.8013C160.484 66.8013 156.294 62.08 152.865 63.1232C149.884 64.0296 148.72 66.3537 148.323 68.5673C147.851 71.2042 149.067 73.8597 151.353 75.2606C156.483 78.405 166.756 84.602 169.175 85.3117C174.559 86.8886 189.025 85.4391 189.025 85.4391C189.025 85.4391 189.589 84.5776 189.668 83.4165Z" fill="#6980E2"/>
<path d="M203.042 96.7627L227.515 153.955H267.42L293.023 96.7627H203.042Z" fill="#FFA318"/>
<path d="M293.398 99.6016H201.535C199.871 99.6016 198.524 98.2532 198.524 96.5921C198.524 94.929 199.873 93.5825 201.535 93.5825H293.398C295.062 93.5825 296.409 94.9309 296.409 96.5921C296.411 98.2532 295.062 99.6016 293.398 99.6016Z" fill="#F78248"/>
<path d="M263.15 173.479H231.635C229.358 173.479 227.513 171.634 227.513 169.359V153.955H267.273V169.359C267.273 171.634 265.427 173.479 263.15 173.479Z" fill="#F78248"/>
</svg>
