<svg width="23" height="18" viewBox="0 0 23 18" fill="none" xmlns="http://www.w3.org/2000/svg">
<path d="M19.105 0.573876C19.4959 0.201719 20.0161 -0.00402408 20.5558 5.96494e-05C21.0955 0.00414338 21.6126 0.217735 21.9978 0.595765C22.383 0.973794 22.6063 1.48669 22.6206 2.02623C22.6348 2.56578 22.439 3.08976 22.0742 3.48762L11.002 17.3348C10.8116 17.5399 10.5819 17.7045 10.3264 17.8187C10.071 17.9329 9.79511 17.9945 9.51533 17.9996C9.23556 18.0048 8.95761 17.9535 8.69811 17.8488C8.43861 17.7441 8.20289 17.5882 8.00504 17.3903L0.662414 10.0477C0.457933 9.85716 0.293925 9.62739 0.180173 9.37209C0.0664208 9.11679 0.00525446 8.8412 0.000323896 8.56175C-0.00460666 8.2823 0.0467997 8.00472 0.151475 7.74557C0.256151 7.48642 0.411951 7.251 0.609583 7.05337C0.807214 6.85574 1.04263 6.69994 1.30178 6.59527C1.56093 6.49059 1.83851 6.43918 2.11796 6.44411C2.39741 6.44904 2.673 6.51021 2.9283 6.62396C3.1836 6.73772 3.41337 6.90172 3.6039 7.1062L9.41473 12.9143L19.0523 0.634927C19.0696 0.613562 19.0882 0.593179 19.1078 0.573876H19.105Z" fill="white"/>
</svg>
