<svg width="32" height="32" viewBox="0 0 32 32" fill="none" xmlns="http://www.w3.org/2000/svg">
<path d="M27.6133 4.873C27.6133 4.873 30.2033 3.863 29.9867 6.31567C29.9153 7.32567 29.268 10.861 28.764 14.6843L27.0373 26.011C27.0373 26.011 26.8933 27.6703 25.598 27.959C24.3033 28.247 22.3607 26.949 22.0007 26.6603C21.7127 26.4437 16.6047 23.197 14.806 21.6103C14.302 21.177 13.726 20.3117 14.878 19.3017L22.432 12.087C23.2953 11.2217 24.1587 9.20167 20.5613 11.6543L10.488 18.5077C10.488 18.5077 9.33667 19.2297 7.17867 18.5803L2.50134 17.137C2.50134 17.137 0.774675 16.055 3.72467 14.973C10.92 11.5823 19.77 8.11967 27.612 4.873H27.6133Z" fill="white"/>
</svg>
