<svg width="16" height="11" viewBox="0 0 16 11" fill="none" xmlns="http://www.w3.org/2000/svg">
<path fill-rule="evenodd" clip-rule="evenodd" d="M15.4778 1.73819C15.305 1.07415 14.7956 0.551255 14.1489 0.37379C12.9769 0.0512695 8.27681 0.0512695 8.27681 0.0512695C8.27681 0.0512695 3.57672 0.0512695 2.40462 0.37379C1.7579 0.551255 1.24858 1.07415 1.07573 1.73819C0.761719 2.94167 0.761719 5.45275 0.761719 5.45275C0.761719 5.45275 0.761719 7.96374 1.07573 9.16731C1.24858 9.83134 1.7579 10.3542 2.40462 10.5318C3.57672 10.8542 8.27681 10.8542 8.27681 10.8542C8.27681 10.8542 12.9769 10.8542 14.1489 10.5318C14.7956 10.3542 15.305 9.83134 15.4778 9.16731C15.7919 7.96374 15.7919 5.45275 15.7919 5.45275C15.7919 5.45275 15.7919 2.94167 15.4778 1.73819Z" fill="white"/>
<path fill-rule="evenodd" clip-rule="evenodd" d="M6.86914 8.03507V3.33813L10.6267 5.68669L6.86914 8.03507Z" fill="#7277F7"/>
</svg>
