<svg width="18" height="18" viewBox="0 0 18 18" fill="none" xmlns="http://www.w3.org/2000/svg">
<path d="M0.34719 14.5509L0.00952792 16.9117C-0.0113398 17.0582 0.00217896 17.2076 0.0490145 17.348C0.09585 17.4884 0.174717 17.616 0.279376 17.7206C0.384035 17.8253 0.511613 17.9041 0.652017 17.951C0.792422 17.9978 0.941799 18.0113 1.08833 17.9905L3.44911 17.6528C3.8068 17.6023 4.70342 15.1947 4.70342 15.1947C4.70342 15.1947 5.15363 15.5811 5.33773 15.6392C5.73071 15.7632 6.1132 15.3779 6.24197 14.9868L6.61111 13.2966C6.61111 13.2966 7.16148 13.5751 7.36084 13.6161C7.61456 13.6686 7.86066 13.5122 8.03521 13.3366C8.14007 13.2321 8.21882 13.1043 8.26509 12.9637L8.51881 11.3889C8.51881 11.3889 9.16266 11.5673 9.383 11.593C9.63386 11.6216 9.87805 11.4938 10.0574 11.3135L11.1428 10.229C12.0617 10.5268 13.0449 10.5651 13.9841 10.34C14.9234 10.1148 15.7823 9.63476 16.4663 8.95276C17.4484 7.96805 18 6.63403 18 5.24324C18 3.85245 17.4484 2.51843 16.4663 1.53372C15.4816 0.55156 14.1475 0 12.7568 0C11.366 0 10.0319 0.55156 9.04724 1.53372C8.36505 2.21756 7.88491 3.07646 7.65971 4.01577C7.43452 4.95508 7.47303 5.93833 7.77099 6.85715L0.616175 14.011C0.470135 14.1569 0.375692 14.3465 0.34719 14.5509V14.5509ZM14.7226 3.27736C15.243 3.79928 15.5352 4.50622 15.5352 5.24324C15.5352 5.98026 15.243 6.68721 14.7226 7.20912L10.7909 3.27736C11.3128 2.75698 12.0197 2.46476 12.7568 2.46476C13.4938 2.46476 14.2007 2.75698 14.7226 3.27736Z" fill="white"/>
</svg>
