<svg width="16" height="12" viewBox="0 0 16 12" fill="none" xmlns="http://www.w3.org/2000/svg">
<path fill-rule="evenodd" clip-rule="evenodd" d="M14.8791 2.30412C14.7063 1.64017 14.197 1.11735 13.5504 0.939908C12.3786 0.617432 7.6791 0.617432 7.6791 0.617432C7.6791 0.617432 2.97965 0.617432 1.80772 0.939908C1.16108 1.11735 0.651831 1.64017 0.479007 2.30412C0.165039 3.50743 0.165039 6.01817 0.165039 6.01817C0.165039 6.01817 0.165039 8.52881 0.479007 9.73222C0.651831 10.3962 1.16108 10.919 1.80772 11.0965C2.97965 11.4189 7.6791 11.4189 7.6791 11.4189C7.6791 11.4189 12.3786 11.4189 13.5504 11.0965C14.197 10.919 14.7063 10.3962 14.8791 9.73222C15.1932 8.52881 15.1932 6.01817 15.1932 6.01817C15.1932 6.01817 15.1932 3.50743 14.8791 2.30412Z" fill="#7277F7"/>
<path fill-rule="evenodd" clip-rule="evenodd" d="M6.27051 8.6001V3.90381L10.0275 6.25204L6.27051 8.6001Z" fill="white"/>
</svg>
