<svg width="15" height="13" viewBox="0 0 15 13" fill="none" xmlns="http://www.w3.org/2000/svg">
<path fill-rule="evenodd" clip-rule="evenodd" d="M7.72054 3.97284L7.75102 4.4754L7.24306 4.41386C5.39408 4.17796 3.77877 3.37797 2.40728 2.03439L1.73677 1.36772L1.56406 1.86003C1.19833 2.95746 1.43199 4.11643 2.19393 4.89591C2.6003 5.32668 2.50887 5.38821 1.80788 5.1318C1.56406 5.04975 1.35072 4.98822 1.3304 5.01898C1.25929 5.09078 1.50311 6.02411 1.69613 6.39334C1.96027 6.90615 2.49871 7.40872 3.08794 7.70615L3.58574 7.94205L2.99651 7.9523C2.42759 7.9523 2.40728 7.96256 2.46823 8.17794C2.67142 8.84461 3.47399 9.55229 4.368 9.85999L4.99787 10.0754L4.44928 10.4036C3.63654 10.8754 2.68157 11.142 1.72661 11.1625C1.26945 11.1728 0.893555 11.2138 0.893555 11.2446C0.893555 11.3472 2.13298 11.9215 2.85428 12.1472C5.01819 12.8138 7.58847 12.5266 9.51872 11.3882C10.8902 10.5779 12.2617 8.96768 12.9017 7.40872C13.2471 6.57795 13.5926 5.06001 13.5926 4.33181C13.5926 3.86002 13.623 3.79848 14.192 3.23438C14.5272 2.90618 14.8421 2.5472 14.9031 2.44464C15.0047 2.24977 14.9945 2.24977 14.4764 2.42413C13.6129 2.73182 13.491 2.69079 13.9177 2.22926C14.2326 1.90105 14.6085 1.30618 14.6085 1.13183C14.6085 1.10106 14.4561 1.15234 14.2834 1.24465C14.1005 1.34721 13.6941 1.50105 13.3894 1.59336L12.8408 1.76772L12.343 1.42926C12.0687 1.24465 11.6826 1.03952 11.4794 0.977981C10.9613 0.834392 10.1689 0.854904 9.70158 1.01901C8.43168 1.48054 7.62911 2.67028 7.72054 3.97284Z" fill="#7277F7"/>
</svg>
