<svg width="22" height="18" viewBox="0 0 22 18" fill="none" xmlns="http://www.w3.org/2000/svg">
<path d="M19.7594 0.158922C19.7594 0.158922 21.7574 -0.620217 21.5903 1.27183C21.5353 2.05097 21.0359 4.77822 20.6471 7.72763L19.3151 16.4653C19.3151 16.4653 19.204 17.7454 18.2048 17.968C17.206 18.1902 15.7074 17.1889 15.4297 16.9662C15.2075 16.7991 11.2671 14.2945 9.87954 13.0705C9.49074 12.7362 9.0464 12.0687 9.93508 11.2896L15.7624 5.72398C16.4284 5.05644 17.0944 3.49817 14.3193 5.39022L6.54852 10.677C6.54852 10.677 5.66036 11.234 3.99562 10.7331L0.387407 9.61968C0.387407 9.61968 -0.944588 8.785 1.33112 7.95032C6.88178 5.33467 13.7089 2.66348 19.7584 0.158922H19.7594Z" fill="white"/>
</svg>
