<svg width="308" height="56" viewBox="0 0 308 56" fill="none" xmlns="http://www.w3.org/2000/svg">
<g filter="url(#filter0_d)">
<rect x="4" width="300" height="48" rx="24" fill="white"/>
</g>
<path d="M150.656 17.4007V19.7407H145.274V23.0617H149.756V25.4107H145.274V30.5137H142.214V17.4007H150.656ZM155.653 21.1807V30.5137H152.863V21.1807H155.653ZM155.977 18.6247C155.977 18.8467 155.932 19.0567 155.842 19.2547C155.752 19.4467 155.629 19.6177 155.473 19.7677C155.317 19.9117 155.134 20.0287 154.924 20.1187C154.72 20.2027 154.501 20.2447 154.267 20.2447C154.039 20.2447 153.826 20.2027 153.628 20.1187C153.43 20.0287 153.253 19.9117 153.097 19.7677C152.947 19.6177 152.827 19.4467 152.737 19.2547C152.653 19.0567 152.611 18.8467 152.611 18.6247C152.611 18.3967 152.653 18.1837 152.737 17.9857C152.827 17.7877 152.947 17.6137 153.097 17.4637C153.253 17.3137 153.43 17.1967 153.628 17.1127C153.826 17.0287 154.039 16.9867 154.267 16.9867C154.501 16.9867 154.72 17.0287 154.924 17.1127C155.134 17.1967 155.317 17.3137 155.473 17.4637C155.629 17.6137 155.752 17.7877 155.842 17.9857C155.932 18.1837 155.977 18.3967 155.977 18.6247ZM161.326 17.0407V30.5137H158.536V17.0407H161.326ZM167.395 30.6577C166.951 30.6577 166.558 30.5947 166.216 30.4687C165.88 30.3367 165.595 30.1537 165.361 29.9197C165.133 29.6797 164.959 29.3917 164.839 29.0557C164.719 28.7197 164.659 28.3447 164.659 27.9307V23.1067H163.867C163.723 23.1067 163.6 23.0617 163.498 22.9717C163.396 22.8757 163.345 22.7377 163.345 22.5577V21.4687L164.83 21.1807L165.379 18.9037C165.451 18.6157 165.655 18.4717 165.991 18.4717H167.449V21.1987H169.717V23.1067H167.449V27.7417C167.449 27.9577 167.5 28.1377 167.602 28.2817C167.71 28.4197 167.863 28.4887 168.061 28.4887C168.163 28.4887 168.247 28.4797 168.313 28.4617C168.385 28.4377 168.445 28.4137 168.493 28.3897C168.547 28.3597 168.595 28.3357 168.637 28.3177C168.685 28.2937 168.739 28.2817 168.799 28.2817C168.883 28.2817 168.949 28.3027 168.997 28.3447C169.051 28.3807 169.105 28.4407 169.159 28.5247L170.005 29.8477C169.645 30.1177 169.24 30.3217 168.79 30.4597C168.34 30.5917 167.875 30.6577 167.395 30.6577ZM171.866 30.5137V21.1807H173.522C173.66 21.1807 173.774 21.1927 173.864 21.2167C173.96 21.2407 174.038 21.2797 174.098 21.3337C174.164 21.3817 174.212 21.4477 174.242 21.5317C174.278 21.6157 174.308 21.7177 174.332 21.8377L174.485 22.7107C174.827 22.1827 175.211 21.7657 175.637 21.4597C176.063 21.1537 176.528 21.0007 177.032 21.0007C177.458 21.0007 177.8 21.1027 178.058 21.3067L177.698 23.3587C177.674 23.4847 177.626 23.5747 177.554 23.6287C177.482 23.6767 177.386 23.7007 177.266 23.7007C177.164 23.7007 177.044 23.6887 176.906 23.6647C176.768 23.6347 176.594 23.6197 176.384 23.6197C175.652 23.6197 175.076 24.0097 174.656 24.7897V30.5137H171.866ZM183.837 21.0367C184.455 21.0367 185.019 21.1327 185.529 21.3247C186.045 21.5167 186.486 21.7957 186.852 22.1617C187.224 22.5277 187.512 22.9777 187.716 23.5117C187.926 24.0397 188.031 24.6397 188.031 25.3117C188.031 25.5217 188.022 25.6927 188.004 25.8247C187.986 25.9567 187.953 26.0617 187.905 26.1397C187.857 26.2177 187.791 26.2717 187.707 26.3017C187.629 26.3317 187.527 26.3467 187.401 26.3467H182.019C182.109 27.1267 182.346 27.6937 182.73 28.0477C183.114 28.3957 183.609 28.5697 184.215 28.5697C184.539 28.5697 184.818 28.5307 185.052 28.4527C185.286 28.3747 185.493 28.2877 185.673 28.1917C185.859 28.0957 186.027 28.0087 186.177 27.9307C186.333 27.8527 186.495 27.8137 186.663 27.8137C186.885 27.8137 187.053 27.8947 187.167 28.0567L187.977 29.0557C187.689 29.3857 187.377 29.6557 187.041 29.8657C186.711 30.0697 186.369 30.2317 186.015 30.3517C185.667 30.4657 185.316 30.5437 184.962 30.5857C184.614 30.6337 184.281 30.6577 183.963 30.6577C183.309 30.6577 182.694 30.5527 182.118 30.3427C181.548 30.1267 181.047 29.8087 180.615 29.3887C180.189 28.9687 179.85 28.4467 179.598 27.8227C179.352 27.1987 179.229 26.4727 179.229 25.6447C179.229 25.0207 179.334 24.4297 179.544 23.8717C179.76 23.3137 180.066 22.8247 180.462 22.4047C180.864 21.9847 181.347 21.6517 181.911 21.4057C182.481 21.1597 183.123 21.0367 183.837 21.0367ZM183.891 22.9627C183.357 22.9627 182.94 23.1157 182.64 23.4217C182.34 23.7217 182.142 24.1567 182.046 24.7267H185.529C185.529 24.5047 185.499 24.2887 185.439 24.0787C185.385 23.8687 185.292 23.6827 185.16 23.5207C185.034 23.3527 184.866 23.2177 184.656 23.1157C184.446 23.0137 184.191 22.9627 183.891 22.9627ZM190.172 30.5137V21.1807H191.828C191.966 21.1807 192.08 21.1927 192.17 21.2167C192.266 21.2407 192.344 21.2797 192.404 21.3337C192.47 21.3817 192.518 21.4477 192.548 21.5317C192.584 21.6157 192.614 21.7177 192.638 21.8377L192.791 22.7107C193.133 22.1827 193.517 21.7657 193.943 21.4597C194.369 21.1537 194.834 21.0007 195.338 21.0007C195.764 21.0007 196.106 21.1027 196.364 21.3067L196.004 23.3587C195.98 23.4847 195.932 23.5747 195.86 23.6287C195.788 23.6767 195.692 23.7007 195.572 23.7007C195.47 23.7007 195.35 23.6887 195.212 23.6647C195.074 23.6347 194.9 23.6197 194.69 23.6197C193.958 23.6197 193.382 24.0097 192.962 24.7897V30.5137H190.172Z" fill="#4048FF"/>
<path fill-rule="evenodd" clip-rule="evenodd" d="M108.82 35.1928V21.749H110.387V35.1928H108.82Z" fill="#4048FF"/>
<path fill-rule="evenodd" clip-rule="evenodd" d="M108.82 16.4851V13.1929H110.387V16.4851H108.82Z" fill="#4048FF"/>
<path fill-rule="evenodd" clip-rule="evenodd" d="M109.605 20.7094C110.412 20.7094 111.065 20.0557 111.065 19.2494C111.065 18.4431 110.412 17.7895 109.605 17.7895C108.799 17.7895 108.145 18.4431 108.145 19.2494C108.145 20.0557 108.799 20.7094 109.605 20.7094ZM109.605 22.2772C111.278 22.2772 112.633 20.9216 112.633 19.2494C112.633 17.5773 111.278 16.2217 109.605 16.2217C107.933 16.2217 106.578 17.5773 106.578 19.2494C106.578 20.9216 107.933 22.2772 109.605 22.2772Z" fill="#4048FF"/>
<path fill-rule="evenodd" clip-rule="evenodd" d="M116.369 25.5251V13.1929H117.936V25.5251H116.369Z" fill="#4048FF"/>
<path fill-rule="evenodd" clip-rule="evenodd" d="M116.369 35.1917V30.4287H117.936V35.1917H116.369Z" fill="#4048FF"/>
<path fill-rule="evenodd" clip-rule="evenodd" d="M117.154 29.435C117.961 29.435 118.614 28.7813 118.614 27.975C118.614 27.1687 117.961 26.5151 117.154 26.5151C116.348 26.5151 115.695 27.1687 115.695 27.975C115.695 28.7813 116.348 29.435 117.154 29.435ZM117.154 31.0028C118.827 31.0028 120.182 29.6472 120.182 27.975C120.182 26.3028 118.827 24.9473 117.154 24.9473C115.482 24.9473 114.127 26.3028 114.127 27.975C114.127 29.6472 115.482 31.0028 117.154 31.0028Z" fill="#4048FF"/>
<path fill-rule="evenodd" clip-rule="evenodd" d="M123.918 35.1928V21.749H125.486V35.1928H123.918Z" fill="#4048FF"/>
<path fill-rule="evenodd" clip-rule="evenodd" d="M123.918 16.4851V13.1929H125.486V16.4851H123.918Z" fill="#4048FF"/>
<path fill-rule="evenodd" clip-rule="evenodd" d="M124.701 20.7094C125.508 20.7094 126.161 20.0557 126.161 19.2494C126.161 18.4431 125.508 17.7895 124.701 17.7895C123.895 17.7895 123.242 18.4431 123.242 19.2494C123.242 20.0557 123.895 20.7094 124.701 20.7094ZM124.701 22.2772C126.374 22.2772 127.729 20.9216 127.729 19.2494C127.729 17.5773 126.374 16.2217 124.701 16.2217C123.029 16.2217 121.674 17.5773 121.674 19.2494C121.674 20.9216 123.029 22.2772 124.701 22.2772Z" fill="#4048FF"/>
<defs>
<filter id="filter0_d" x="0" y="0" width="308" height="56" filterUnits="userSpaceOnUse" color-interpolation-filters="sRGB">
<feFlood flood-opacity="0" result="BackgroundImageFix"/>
<feColorMatrix in="SourceAlpha" type="matrix" values="0 0 0 0 0 0 0 0 0 0 0 0 0 0 0 0 0 0 127 0"/>
<feOffset dy="4"/>
<feGaussianBlur stdDeviation="2"/>
<feColorMatrix type="matrix" values="0 0 0 0 0 0 0 0 0 0 0 0 0 0 0 0 0 0 0.25 0"/>
<feBlend mode="normal" in2="BackgroundImageFix" result="effect1_dropShadow"/>
<feBlend mode="normal" in="SourceGraphic" in2="effect1_dropShadow" result="shape"/>
</filter>
</defs>
</svg>
