<svg width="1317" height="1317" viewBox="0 0 1317 1317" fill="none" xmlns="http://www.w3.org/2000/svg">
<g clip-path="url(#clip0)">
<path d="M1303.56 530.832H1249.81V527.472H658.5V789.528H1031.43C977.671 944.074 829.844 1051.58 658.5 1051.58C440.12 1051.58 262.056 873.52 262.056 655.14C262.056 436.76 440.12 258.696 658.5 258.696C759.291 258.696 850.003 295.653 920.556 359.487L1108.7 178.064C991.11 67.1939 833.204 0 658.5 0C295.653 0 0 295.653 0 658.5C0 1021.35 295.653 1317 658.5 1317C1021.35 1317 1317 1021.35 1317 658.5C1317 614.824 1313.64 571.148 1303.56 530.832Z" fill="white"/>
<path d="M658.502 1317C829.846 1317 984.392 1253.17 1101.98 1145.66L897.04 974.314C829.846 1024.71 745.854 1054.95 658.502 1054.95C487.158 1054.95 342.691 944.077 285.576 792.891L70.5557 957.516C181.426 1172.54 403.165 1317 658.502 1317Z" fill="white"/>
<path d="M1303.56 530.83H1249.81V527.47H658.502V789.527H1031.43C1004.55 863.44 957.515 927.274 897.041 974.31L1101.98 1145.65C1088.54 1159.09 1320.36 987.749 1320.36 658.499C1317 614.823 1313.64 571.146 1303.56 530.83Z" fill="white"/>
</g>
<defs>
<clipPath id="clip0">
<rect width="1317" height="1317" fill="white"/>
</clipPath>
</defs>
</svg>
