<svg width="18" height="18" viewBox="0 0 18 18" fill="none" xmlns="http://www.w3.org/2000/svg">
<path d="M17.5375 7.36182H9.03013V10.8446H13.8902C13.6806 11.9703 13.0448 12.9225 12.0865 13.5604C11.2765 14.0998 10.2428 14.4188 9.02778 14.4188C6.67547 14.4188 4.68578 12.8357 3.97467 10.7085C3.79572 10.1691 3.69211 9.59218 3.69211 8.99883C3.69211 8.40547 3.79572 7.82853 3.97467 7.28912C4.68813 5.1643 6.67782 3.58124 9.03013 3.58124C10.3558 3.58124 11.5449 4.03622 12.4821 4.92743L15.0722 2.34528C13.5063 0.891205 11.4649 0 9.03013 0C5.50049 0 2.44649 2.01694 0.960703 4.95792C0.34849 6.17277 0 7.5471 0 9.00117C0 10.4552 0.34849 11.8272 0.960703 13.0421C2.44649 15.9831 5.50049 18 9.03013 18C11.4696 18 13.5134 17.1932 15.0063 15.8189C16.7134 14.2522 17.7 11.9445 17.7 9.20287C17.7 8.56495 17.6435 7.95283 17.5375 7.36182Z" fill="white"/>
</svg>
