<svg width="16" height="18" viewBox="0 0 16 18" fill="none" xmlns="http://www.w3.org/2000/svg">
<path d="M15.3658 12.912C14.4017 11.8674 13.2317 11.0338 11.9296 10.4636C10.6275 9.89347 9.22139 9.59912 7.7999 9.59912C6.37841 9.59912 4.97232 9.89347 3.67019 10.4636C2.36806 11.0338 1.1981 11.8674 0.233997 12.912C0.0851488 13.0766 0.00188535 13.2901 0 13.512V17.112C0.00315503 17.3486 0.0993659 17.5744 0.267806 17.7406C0.436246 17.9068 0.663361 18 0.899988 17.9999H14.6998C14.9385 17.9999 15.1674 17.9051 15.3362 17.7363C15.505 17.5676 15.5998 17.3386 15.5998 17.1V13.5C15.595 13.2822 15.5119 13.0735 15.3658 12.912V12.912Z" fill="white"/>
<path d="M7.79986 8.39989C10.1194 8.39989 11.9998 6.51951 11.9998 4.19994C11.9998 1.88038 10.1194 0 7.79986 0C5.48029 0 3.59991 1.88038 3.59991 4.19994C3.59991 6.51951 5.48029 8.39989 7.79986 8.39989Z" fill="white"/>
</svg>
