<svg width="32" height="32" viewBox="0 0 32 32" fill="none" xmlns="http://www.w3.org/2000/svg">
<path d="M4.57733 23.1002L4.10533 26.4002C4.07616 26.605 4.09506 26.8138 4.16053 27.0101C4.22599 27.2063 4.33624 27.3847 4.48253 27.531C4.62883 27.6773 4.80717 27.7875 5.00343 27.853C5.19969 27.9184 5.4085 27.9373 5.61333 27.9082L8.91333 27.4362C9.41333 27.3655 10.6667 24.0002 10.6667 24.0002C10.6667 24.0002 11.296 24.5402 11.5533 24.6215C12.1027 24.7948 12.6373 24.2562 12.8173 23.7095L13.3333 21.3468C13.3333 21.3468 14.1027 21.7362 14.3813 21.7935C14.736 21.8668 15.08 21.6482 15.324 21.4028C15.4706 21.2567 15.5807 21.0781 15.6453 20.8815L16 18.6802C16 18.6802 16.9 18.9295 17.208 18.9655C17.5587 19.0055 17.9 18.8268 18.1507 18.5748L19.668 17.0588C20.9524 17.475 22.3267 17.5287 23.6397 17.2139C24.9526 16.8992 26.1533 16.2282 27.1093 15.2748C28.4822 13.8984 29.2532 12.0336 29.2532 10.0895C29.2532 8.14539 28.4822 6.28063 27.1093 4.90416C25.7329 3.53125 23.8681 2.76025 21.924 2.76025C19.9799 2.76025 18.1151 3.53125 16.7387 4.90416C15.7851 5.86006 15.1139 7.06068 14.7991 8.37369C14.4843 9.6867 14.5382 11.0611 14.9547 12.3455L4.95333 22.3455C4.74919 22.5494 4.61717 22.8144 4.57733 23.1002V23.1002ZM24.672 7.3415C25.3994 8.07106 25.8079 9.05926 25.8079 10.0895C25.8079 11.1197 25.3994 12.1079 24.672 12.8375L19.176 7.3415C19.9056 6.61409 20.8938 6.20561 21.924 6.20561C22.9542 6.20561 23.9424 6.61409 24.672 7.3415Z" fill="white"/>
</svg>
