<svg width="12" height="12" viewBox="0 0 12 12" fill="none" xmlns="http://www.w3.org/2000/svg">
<path d="M0 1.39394C0 0.989891 0.135139 0.656558 0.405405 0.393939C0.675672 0.131309 1.02703 0 1.45946 0C1.88417 0 2.2278 0.129285 2.49035 0.387879C2.76061 0.654545 2.89575 1.00201 2.89575 1.4303C2.89575 1.81818 2.76448 2.14141 2.50193 2.4C2.23166 2.66667 1.87645 2.8 1.43629 2.8H1.42471C0.999996 2.8 0.656375 2.66667 0.393822 2.4C0.13127 2.13333 0 1.79798 0 1.39394ZM0.150579 12V3.90303H2.72201V12H0.150579ZM4.14672 12H6.71815V7.47879C6.71815 7.19595 6.74904 6.97777 6.81081 6.82424C6.91892 6.54949 7.08301 6.31716 7.30309 6.12727C7.52317 5.93737 7.79922 5.84242 8.13127 5.84242C8.99614 5.84242 9.42857 6.45252 9.42857 7.67273V12H12V7.35758C12 6.16161 11.7297 5.25455 11.1892 4.63636C10.6486 4.01818 9.93437 3.70909 9.04633 3.70909C8.05019 3.70909 7.27413 4.15758 6.71815 5.05455V5.07879H6.70656L6.71815 5.05455V3.90303H4.14672C4.16216 4.16161 4.16988 4.96565 4.16988 6.31515C4.16988 7.66464 4.16216 9.55959 4.14672 12Z" fill="#7277F7"/>
</svg>
