<svg width="16" height="16" viewBox="0 0 16 16" fill="none" xmlns="http://www.w3.org/2000/svg">
<path fill-rule="evenodd" clip-rule="evenodd" d="M8.24693 0.713135C6.26304 0.713135 6.01406 0.721809 5.23487 0.757269C4.4572 0.79288 3.92638 0.915998 3.46191 1.09664C2.98146 1.28322 2.5739 1.53281 2.16787 1.93899C1.76154 2.34502 1.51195 2.75258 1.32476 3.23287C1.14366 3.6975 1.02039 4.22847 0.985388 5.00584C0.950537 5.78503 0.941406 6.03416 0.941406 8.01805C0.941406 10.0019 0.950233 10.2502 0.98554 11.0294C1.0213 11.807 1.14442 12.3378 1.32491 12.8023C1.51165 13.2828 1.76123 13.6903 2.16741 14.0964C2.57329 14.5027 2.98085 14.7529 3.46099 14.9395C3.92577 15.1201 4.45675 15.2432 5.23426 15.2788C6.01345 15.3143 6.26228 15.323 8.24602 15.323C10.2301 15.323 10.4783 15.3143 11.2575 15.2788C12.0351 15.2432 12.5666 15.1201 13.0313 14.9395C13.5116 14.7529 13.9186 14.5027 14.3245 14.0964C14.7308 13.6903 14.9804 13.2828 15.1676 12.8025C15.3472 12.3378 15.4704 11.8069 15.507 11.0295C15.542 10.2503 15.5511 10.0019 15.5511 8.01805C15.5511 6.03416 15.542 5.78518 15.507 5.00599C15.4704 4.22832 15.3472 3.6975 15.1676 3.23303C14.9804 2.75258 14.7308 2.34502 14.3245 1.93899C13.9181 1.53266 13.5118 1.28307 13.0309 1.09664C12.5652 0.915998 12.0341 0.79288 11.2564 0.757269C10.4772 0.721809 10.2292 0.713135 8.24465 0.713135H8.24693ZM7.5908 2.03053C7.78529 2.03022 8.00231 2.03053 8.24611 2.03053C10.1965 2.03053 10.4277 2.03753 11.1979 2.07253C11.9101 2.1051 12.2967 2.22411 12.5542 2.32409C12.8951 2.4565 13.1381 2.61477 13.3936 2.87044C13.6493 3.12611 13.8076 3.36961 13.9403 3.71051C14.0403 3.9677 14.1594 4.35425 14.1919 5.06648C14.2269 5.83654 14.2345 6.06786 14.2345 8.01736C14.2345 9.96686 14.2269 10.1982 14.1919 10.9682C14.1593 11.6805 14.0403 12.067 13.9403 12.3242C13.8079 12.6651 13.6493 12.9079 13.3936 13.1634C13.138 13.419 12.8952 13.5773 12.5542 13.7097C12.297 13.8102 11.9101 13.9289 11.1979 13.9614C10.4278 13.9964 10.1965 14.004 8.24611 14.004C6.29554 14.004 6.06437 13.9964 5.29431 13.9614C4.58208 13.9286 4.19553 13.8096 3.93788 13.7096C3.59698 13.5772 3.35349 13.4189 3.09781 13.1632C2.84214 12.9075 2.68387 12.6647 2.55116 12.3236C2.45118 12.0664 2.33202 11.6799 2.2996 10.9676C2.2646 10.1976 2.2576 9.96626 2.2576 8.01554C2.2576 6.06482 2.2646 5.83472 2.2996 5.06466C2.33217 4.35243 2.45118 3.96587 2.55116 3.70838C2.68357 3.36748 2.84214 3.12398 3.09781 2.86831C3.35349 2.61264 3.59698 2.45437 3.93788 2.32166C4.19538 2.22122 4.58208 2.10251 5.29431 2.06979C5.96819 2.03935 6.22934 2.03022 7.5908 2.0287V2.03053ZM12.148 3.24209C11.664 3.24209 11.2714 3.63427 11.2714 4.11837C11.2714 4.60232 11.664 4.99496 12.148 4.99496C12.6319 4.99496 13.0246 4.60232 13.0246 4.11837C13.0246 3.63442 12.6319 3.24178 12.148 3.24178V3.24209ZM8.24894 4.2677C6.17724 4.2677 4.49757 5.94738 4.49757 8.01908C4.49757 10.0908 6.17724 11.7697 8.24894 11.7697C10.3206 11.7697 11.9997 10.0908 11.9997 8.01908C11.9997 5.94738 10.3205 4.2677 8.24879 4.2677H8.24894ZM8.24762 5.58278C9.59233 5.58278 10.6826 6.67289 10.6826 8.01776C10.6826 9.36247 9.59233 10.4527 8.24762 10.4527C6.90275 10.4527 5.81265 9.36247 5.81265 8.01776C5.81265 6.67289 6.90275 5.58278 8.24762 5.58278Z" fill="#7277F7"/>
</svg>
