<svg width="160" height="48" viewBox="0 0 160 48" fill="none" xmlns="http://www.w3.org/2000/svg">
<path d="M154.074 47.162H5.92593C2.60741 47.162 0 44.5681 0 41.2668V5.89525C0 2.59391 2.60741 0 5.92593 0H154.074C157.393 0 160 2.59391 160 5.89525V41.2668C160 44.4502 157.393 47.162 154.074 47.162Z" fill="black"/>
<path d="M154.074 0.943241C156.8 0.943241 159.052 3.18344 159.052 5.89525V41.2668C159.052 43.9786 156.8 46.2188 154.074 46.2188H5.92593C3.2 46.2188 0.948148 43.9786 0.948148 41.2668V5.89525C0.948148 3.18344 3.2 0.943241 5.92593 0.943241H154.074ZM154.074 0H5.92593C2.60741 0 0 2.59391 0 5.89525V41.2668C0 44.5681 2.60741 47.162 5.92593 47.162H154.074C157.393 47.162 160 44.5681 160 41.2668V5.89525C160 2.71182 157.393 0 154.074 0Z" fill="#A6A6A6"/>
<path d="M80.7109 25.7032C77.8665 25.7032 75.6146 27.8254 75.6146 30.7731C75.6146 33.6028 77.8665 35.843 80.7109 35.843C83.5554 35.843 85.8072 33.7207 85.8072 30.7731C85.8072 27.7075 83.5554 25.7032 80.7109 25.7032ZM80.7109 33.7207C79.1702 33.7207 77.8665 32.4237 77.8665 30.6552C77.8665 28.8866 79.1702 27.5896 80.7109 27.5896C82.2517 27.5896 83.5554 28.7687 83.5554 30.6552C83.5554 32.4237 82.2517 33.7207 80.7109 33.7207ZM69.6887 25.7032C66.8443 25.7032 64.5924 27.8254 64.5924 30.7731C64.5924 33.6028 66.8443 35.843 69.6887 35.843C72.5332 35.843 74.785 33.7207 74.785 30.7731C74.785 27.7075 72.5332 25.7032 69.6887 25.7032ZM69.6887 33.7207C68.148 33.7207 66.8443 32.4237 66.8443 30.6552C66.8443 28.8866 68.148 27.5896 69.6887 27.5896C71.2295 27.5896 72.5332 28.7687 72.5332 30.6552C72.5332 32.4237 71.2295 33.7207 69.6887 33.7207ZM56.5332 27.2359V29.3582H61.6295C61.5109 30.5373 61.0369 31.4805 60.4443 32.07C59.7332 32.7775 58.548 33.6028 56.5332 33.6028C53.3332 33.6028 50.9628 31.1268 50.9628 27.9434C50.9628 24.7599 53.4517 22.2839 56.5332 22.2839C58.1924 22.2839 59.4961 22.9913 60.4443 23.8167L61.985 22.2839C60.6813 21.1049 59.0221 20.1616 56.6517 20.1616C52.385 20.1616 48.7109 23.6988 48.7109 27.9434C48.7109 32.1879 52.385 35.7251 56.6517 35.7251C59.0221 35.7251 60.6813 35.0177 62.1035 33.4849C63.5258 32.07 63.9998 30.0656 63.9998 28.5329C63.9998 28.0613 63.9998 27.5896 63.8813 27.2359H56.5332ZM110.341 28.8866C109.867 27.7075 108.681 25.7032 106.074 25.7032C103.466 25.7032 101.333 27.7075 101.333 30.7731C101.333 33.6028 103.466 35.843 106.311 35.843C108.563 35.843 109.985 34.4281 110.459 33.6028L108.8 32.4237C108.207 33.2491 107.496 33.8386 106.311 33.8386C105.126 33.8386 104.415 33.367 103.822 32.3058L110.578 29.4761L110.341 28.8866ZM103.467 30.5373C103.467 28.6508 105.007 27.5896 106.074 27.5896C106.904 27.5896 107.733 28.0613 107.97 28.6508L103.467 30.5373ZM97.8961 35.3714H100.148V20.6332H97.8961V35.3714ZM94.3406 26.7643C93.748 26.1748 92.7998 25.5853 91.6147 25.5853C89.1258 25.5853 86.7554 27.8254 86.7554 30.6552C86.7554 33.4849 89.0072 35.6072 91.6147 35.6072C92.7998 35.6072 93.748 35.0177 94.2221 34.4281H94.3406V35.1356C94.3406 37.022 93.2739 38.0832 91.6147 38.0832C90.3109 38.0832 89.3628 37.1399 89.1258 36.3146L87.2295 37.1399C87.8221 38.4369 89.2443 40.0876 91.7332 40.0876C94.3406 40.0876 96.4739 38.5548 96.4739 34.8998V25.939H94.3406V26.7643ZM91.7332 33.7207C90.1924 33.7207 88.8887 32.4237 88.8887 30.6552C88.8887 28.8866 90.1924 27.5896 91.7332 27.5896C93.2739 27.5896 94.4591 28.8866 94.4591 30.6552C94.4591 32.4237 93.2739 33.7207 91.7332 33.7207ZM120.652 20.6332H115.318V35.3714H117.57V29.8298H120.652C123.141 29.8298 125.511 28.0613 125.511 25.2315C125.511 22.4018 123.141 20.6332 120.652 20.6332ZM120.77 27.7075H117.57V22.6376H120.77C122.429 22.6376 123.378 24.0525 123.378 25.1136C123.259 26.4106 122.311 27.7075 120.77 27.7075ZM134.4 25.5853C132.741 25.5853 131.081 26.2927 130.489 27.8254L132.504 28.6508C132.978 27.8254 133.689 27.5896 134.518 27.5896C135.704 27.5896 136.77 28.2971 136.889 29.4761V29.594C136.533 29.3582 135.585 29.0045 134.637 29.0045C132.504 29.0045 130.37 30.1836 130.37 32.3058C130.37 34.3102 132.148 35.6072 134.044 35.6072C135.585 35.6072 136.296 34.8998 136.889 34.1923H137.007V35.3714H139.141V29.7119C138.904 27.118 136.889 25.5853 134.4 25.5853ZM134.163 33.7207C133.452 33.7207 132.385 33.367 132.385 32.4237C132.385 31.2447 133.689 30.891 134.755 30.891C135.704 30.891 136.178 31.1268 136.77 31.3626C136.533 32.7775 135.348 33.7207 134.163 33.7207ZM146.607 25.939L144.118 32.3058H144L141.392 25.939H139.022L142.933 34.8998L140.681 39.8518H142.933L148.978 25.939H146.607ZM126.696 35.3714H128.948V20.6332H126.696V35.3714Z" fill="white"/>
<path d="M12.326 8.84229C11.9704 9.196 11.7334 9.78553 11.7334 10.493V36.55C11.7334 37.2574 11.9704 37.8469 12.326 38.2006L12.4445 38.3186L27.1408 23.6983V23.5804V23.4625L12.326 8.84229Z" fill="url(#paint0_linear_10009:39476)"/>
<path d="M32.0004 28.6504L27.1411 23.8162V23.5804V23.4625L32.0004 18.6284L32.1189 18.7463L37.9263 22.0477C39.5856 22.9909 39.5856 24.5237 37.9263 25.4669L32.0004 28.6504Z" fill="url(#paint1_linear_10009:39476)"/>
<path d="M32.1188 28.5331L27.141 23.5811L12.3262 38.3192C12.9188 38.9087 13.7484 38.9087 14.8151 38.4371L32.1188 28.5331Z" fill="url(#paint2_linear_10009:39476)"/>
<path d="M32.1188 18.6288L14.8151 8.84266C13.7484 8.25314 12.9188 8.37104 12.3262 8.96057L27.141 23.5808L32.1188 18.6288Z" fill="url(#paint3_linear_10009:39476)"/>
<path opacity="0.2" d="M32.0002 28.4146L14.8151 38.0828C13.8669 38.6723 13.0373 38.5544 12.4447 38.0828L12.3262 38.2007L12.4447 38.3186C13.0373 38.7902 13.8669 38.9081 14.8151 38.3186L32.0002 28.4146Z" fill="black"/>
<path opacity="0.12" d="M12.3261 38.0828C11.9706 37.7291 11.8521 37.1396 11.8521 36.4321V36.55C11.8521 37.2575 12.0891 37.847 12.4446 38.2007V38.0828H12.3261Z" fill="black"/>
<path opacity="0.12" d="M37.9254 25.1138L31.9995 28.4152L32.118 28.5331L37.9254 25.2317C38.7551 24.7601 39.1106 24.1706 39.1106 23.5811C39.1106 24.1706 38.6365 24.6422 37.9254 25.1138Z" fill="black"/>
<path opacity="0.25" d="M14.815 8.9605L37.9261 22.048C38.6372 22.5196 39.1113 22.9912 39.1113 23.5807C39.1113 22.9912 38.7558 22.4017 37.9261 21.9301L14.815 8.8426C13.1558 7.89936 11.8521 8.72469 11.8521 10.6112V10.7291C11.8521 8.8426 13.1558 8.01726 14.815 8.9605Z" fill="white"/>
<path d="M48.9478 15.3272V8.25293H51.0811C52.1478 8.25293 53.0959 8.60664 53.6885 9.19617C54.3996 9.9036 54.6366 10.7289 54.6366 11.7901C54.6366 12.8512 54.2811 13.6766 53.6885 14.384C53.0959 14.9735 52.1478 15.3272 51.0811 15.3272H48.9478ZM49.7774 14.5019H51.0811C51.9107 14.5019 52.5033 14.2661 52.9774 13.7945C53.4515 13.3228 53.6885 12.6154 53.6885 11.7901C53.6885 10.9647 53.4515 10.2573 52.9774 9.78569C52.5033 9.31407 51.7922 9.07827 51.0811 9.07827H49.7774V14.5019Z" fill="white" stroke="white" stroke-width="0.2" stroke-miterlimit="10"/>
<path d="M55.9404 15.3272V8.25293H56.8886V15.3272H55.9404Z" fill="white" stroke="white" stroke-width="0.2" stroke-miterlimit="10"/>
<path d="M60.5626 15.4451C60.0885 15.4451 59.496 15.3272 59.0219 14.9735C58.5478 14.6198 58.1922 14.1482 58.0737 13.5586L58.9034 13.2049C59.0219 13.5586 59.2589 13.9123 59.496 14.1482C59.8515 14.384 60.2071 14.5019 60.5626 14.5019C60.9182 14.5019 61.2737 14.384 61.6293 14.1482C61.8663 13.9123 62.1034 13.6765 62.1034 13.3228C62.1034 12.9691 61.9848 12.6154 61.6293 12.3796C61.3923 12.1438 60.9182 11.908 60.3256 11.7901C59.733 11.5542 59.2589 11.3184 58.9034 11.0826C58.5478 10.7289 58.4293 10.3752 58.4293 9.90357C58.4293 9.43195 58.6663 8.96033 59.0219 8.60662C59.3774 8.2529 59.97 8.01709 60.5626 8.01709C61.1552 8.01709 61.6293 8.135 61.9848 8.48871C62.3404 8.84243 62.5774 9.07824 62.696 9.43195L61.8663 9.78567C61.7478 9.54986 61.6293 9.31405 61.3922 9.19614C61.1552 8.96033 60.7997 8.96033 60.4441 8.96033C60.0885 8.96033 59.8515 9.07824 59.496 9.19614C59.3774 9.43195 59.2589 9.66776 59.2589 10.0215C59.2589 10.2573 59.3774 10.4931 59.6145 10.7289C59.8515 10.9647 60.2071 11.0826 60.6811 11.2005C61.0367 11.3184 61.2737 11.4363 61.5108 11.5542C61.7478 11.6721 61.9848 11.7901 62.2219 12.0259C62.4589 12.1438 62.696 12.3796 62.8145 12.7333C62.933 12.9691 63.0515 13.3228 63.0515 13.6765C63.0515 14.0303 62.933 14.384 62.8145 14.6198C62.696 14.8556 62.4589 15.0914 62.2219 15.2093C61.8663 15.2093 61.6293 15.3272 61.3922 15.3272C61.0367 15.4451 60.7997 15.4451 60.5626 15.4451Z" fill="white" stroke="white" stroke-width="0.2" stroke-miterlimit="10"/>
<path d="M65.185 15.3272H64.2368V8.25293H66.6072C67.1998 8.25293 67.6739 8.48874 68.1479 8.84246C68.622 9.19617 68.859 9.78569 68.859 10.3752C68.859 10.9647 68.622 11.4364 68.1479 11.908C67.6739 12.2617 67.1998 12.4975 66.6072 12.4975H65.185V15.3272ZM65.185 11.5543H66.7257C67.0813 11.5543 67.4368 11.4364 67.6739 11.2006C67.9109 10.9647 68.0294 10.611 68.0294 10.3752C68.0294 10.0215 67.9109 9.7857 67.6739 9.54989C67.4368 9.31408 67.0813 9.19617 66.7257 9.19617H65.185V11.5543Z" fill="white" stroke="white" stroke-width="0.2" stroke-miterlimit="10"/>
<path d="M75.8518 14.3842C75.1407 15.0917 74.3111 15.4454 73.2444 15.4454C72.1777 15.4454 71.3481 15.0917 70.637 14.3842C69.9259 13.6768 69.5703 12.8515 69.5703 11.7903C69.5703 10.7292 69.9259 9.90383 70.637 9.1964C71.3481 8.48897 72.1777 8.13525 73.2444 8.13525C74.3111 8.13525 75.1407 8.48897 75.8518 9.1964C76.5629 9.90383 76.9185 10.7292 76.9185 11.7903C76.9185 12.8515 76.5629 13.6768 75.8518 14.3842ZM71.3481 13.7947C71.8222 14.2663 72.5333 14.62 73.2444 14.62C73.9555 14.62 74.6666 14.3842 75.1407 13.7947C75.6148 13.3231 75.9703 12.6156 75.9703 11.7903C75.9703 10.965 75.7333 10.2575 75.1407 9.78592C74.6666 9.3143 73.9555 8.96059 73.2444 8.96059C72.5333 8.96059 71.8222 9.1964 71.3481 9.78592C70.874 10.2575 70.5185 10.965 70.5185 11.7903C70.5185 12.6156 70.7555 13.3231 71.3481 13.7947Z" fill="white" stroke="white" stroke-width="0.2" stroke-miterlimit="10"/>
<path d="M78.1035 15.3272V8.25293H79.1702L82.6072 13.7945V12.3796V8.25293H83.5554V15.3272H82.6072L78.9331 9.54989V10.9647V15.3272H78.1035Z" fill="white" stroke="white" stroke-width="0.2" stroke-miterlimit="10"/>
<path d="M85.2144 15.3272V8.25293H86.1625V15.3272H85.2144Z" fill="white" stroke="white" stroke-width="0.2" stroke-miterlimit="10"/>
<path d="M87.8218 15.3272V8.25293H90.4292C91.0218 8.25293 91.4959 8.48874 91.8514 8.84246C92.207 9.19617 92.444 9.66779 92.444 10.2573C92.444 10.611 92.3255 10.8468 92.207 11.2006C92.0885 11.4364 91.8514 11.6722 91.4959 11.7901C91.8514 11.908 92.0885 12.1438 92.3255 12.3796C92.5625 12.6154 92.681 12.9691 92.681 13.4408C92.681 14.0303 92.444 14.5019 92.0885 14.8556C91.6144 15.2093 91.1403 15.4451 90.5477 15.4451H87.8218V15.3272ZM88.7699 11.3185H90.4292C90.7848 11.3185 91.0218 11.2006 91.2588 10.9647C91.4959 10.7289 91.6144 10.4931 91.6144 10.2573C91.6144 10.0215 91.3773 9.66779 91.2588 9.43198C91.0218 9.19617 90.7848 9.07827 90.4292 9.07827H88.7699V11.3185ZM88.7699 14.5019H90.6662C91.0218 14.5019 91.2588 14.384 91.4959 14.1482C91.7329 13.9124 91.8514 13.6766 91.8514 13.3228C91.8514 13.087 91.7329 12.7333 91.4959 12.4975C91.2588 12.2617 91.0218 12.1438 90.6662 12.1438H88.8884V14.5019H88.7699Z" fill="white" stroke="white" stroke-width="0.2" stroke-miterlimit="10"/>
<path d="M93.8662 15.3272V8.25293H94.8144V14.5019H97.8958V15.3272H93.8662Z" fill="white" stroke="white" stroke-width="0.2" stroke-miterlimit="10"/>
<path d="M103.229 9.07827H100.029V11.3185H102.992V12.1438H100.029V14.384H103.229V15.3272H99.0811V8.25293H103.229V9.07827Z" fill="white" stroke="white" stroke-width="0.2" stroke-miterlimit="10"/>
<path d="M108.681 15.4451C108.207 15.4451 107.614 15.3272 107.14 14.9735C106.666 14.6198 106.31 14.1482 106.192 13.5586L107.022 13.2049C107.14 13.5586 107.377 13.9123 107.614 14.1482C107.97 14.384 108.325 14.5019 108.681 14.5019C109.036 14.5019 109.392 14.384 109.747 14.1482C109.984 13.9123 110.222 13.6765 110.222 13.3228C110.222 12.9691 110.103 12.6154 109.747 12.3796C109.51 12.1438 109.036 11.908 108.444 11.7901C107.851 11.5542 107.377 11.3184 107.022 11.0826C106.666 10.7289 106.547 10.3752 106.547 9.90357C106.547 9.43195 106.784 8.96033 107.14 8.60662C107.496 8.2529 108.088 8.01709 108.681 8.01709C109.273 8.01709 109.747 8.135 110.103 8.48871C110.459 8.84243 110.696 9.07824 110.814 9.43195L109.984 9.78567C109.866 9.54986 109.747 9.31405 109.51 9.19614C109.273 8.96033 108.918 8.96033 108.562 8.96033C108.207 8.96033 107.97 9.07824 107.614 9.19614C107.377 9.43195 107.259 9.66776 107.259 9.90357C107.259 10.1394 107.377 10.3752 107.614 10.611C107.851 10.8468 108.207 10.9647 108.681 11.0826C109.036 11.2005 109.273 11.3184 109.51 11.4363C109.747 11.5542 109.984 11.6721 110.222 11.908C110.459 12.0259 110.696 12.2617 110.814 12.6154C110.933 12.8512 111.051 13.2049 111.051 13.5586C111.051 13.9123 110.933 14.2661 110.814 14.5019C110.696 14.7377 110.459 14.9735 110.222 15.0914C109.984 15.2093 109.747 15.3272 109.51 15.4451C109.273 15.4451 109.036 15.4451 108.681 15.4451Z" fill="white" stroke="white" stroke-width="0.2" stroke-miterlimit="10"/>
<path d="M114.844 15.4451C114.015 15.4451 113.422 15.2093 112.948 14.6198C112.474 14.1482 112.237 13.4408 112.237 12.6154V8.25293H113.185V12.7333C113.185 13.3228 113.303 13.7945 113.659 14.1482C113.896 14.5019 114.37 14.6198 114.963 14.6198C115.555 14.6198 115.911 14.5019 116.266 14.1482C116.503 13.7945 116.741 13.3228 116.741 12.7333V8.25293H117.689V12.7333C117.689 13.5587 117.452 14.2661 116.978 14.7377C116.385 15.2093 115.674 15.4451 114.844 15.4451Z" fill="white" stroke="white" stroke-width="0.2" stroke-miterlimit="10"/>
<path d="M118.992 15.3272V8.25293H121.363C121.955 8.25293 122.429 8.48874 122.903 8.84246C123.377 9.19617 123.614 9.78569 123.614 10.3752C123.614 10.8468 123.496 11.3185 123.14 11.6722C122.785 12.0259 122.429 12.2617 121.955 12.3796L123.97 15.2093H122.903L121.007 12.3796H119.94V15.3272H118.992ZM119.94 11.5543H121.363C121.718 11.5543 122.074 11.4364 122.311 11.2006C122.548 10.9647 122.666 10.611 122.666 10.2573C122.666 9.9036 122.548 9.66779 122.311 9.43198C122.074 9.19617 121.718 9.07827 121.363 9.07827H119.822V11.5543H119.94Z" fill="white" stroke="white" stroke-width="0.2" stroke-miterlimit="10"/>
<defs>
<linearGradient id="paint0_linear_10009:39476" x1="25.8368" y1="10.2686" x2="6.04972" y2="30.1586" gradientUnits="userSpaceOnUse">
<stop stop-color="#00A0FF"/>
<stop offset="0.00657445" stop-color="#00A1FF"/>
<stop offset="0.2601" stop-color="#00BEFF"/>
<stop offset="0.5122" stop-color="#00D2FF"/>
<stop offset="0.7604" stop-color="#00DFFF"/>
<stop offset="1" stop-color="#00E3FF"/>
</linearGradient>
<linearGradient id="paint1_linear_10009:39476" x1="40.1004" y1="23.5822" x2="11.4226" y2="23.5822" gradientUnits="userSpaceOnUse">
<stop stop-color="#FFE000"/>
<stop offset="0.4087" stop-color="#FFBD00"/>
<stop offset="0.7754" stop-color="#FFA500"/>
<stop offset="1" stop-color="#FF9C00"/>
</linearGradient>
<linearGradient id="paint2_linear_10009:39476" x1="29.4248" y1="26.2883" x2="2.59201" y2="53.2607" gradientUnits="userSpaceOnUse">
<stop stop-color="#FF3A44"/>
<stop offset="1" stop-color="#C31162"/>
</linearGradient>
<linearGradient id="paint3_linear_10009:39476" x1="8.6489" y1="0.207529" x2="20.631" y2="12.2518" gradientUnits="userSpaceOnUse">
<stop stop-color="#32A071"/>
<stop offset="0.0685" stop-color="#2DA771"/>
<stop offset="0.4762" stop-color="#15CF74"/>
<stop offset="0.8009" stop-color="#06E775"/>
<stop offset="1" stop-color="#00F076"/>
</linearGradient>
</defs>
</svg>
