<svg width="52" height="52" viewBox="0 0 52 52" fill="none" xmlns="http://www.w3.org/2000/svg">
<rect x="1.50453" y="1.29585" width="49.4" height="49.4" rx="24.7" fill="#FF0000" stroke="white" stroke-width="1.4"/>
<path fill-rule="evenodd" clip-rule="evenodd" d="M37.0532 20.4033C36.793 19.4035 36.026 18.6161 35.0522 18.3489C33.2875 17.8633 26.2102 17.8633 26.2102 17.8633C26.2102 17.8633 19.133 17.8633 17.3681 18.3489C16.3943 18.6161 15.6274 19.4035 15.3671 20.4033C14.8943 22.2155 14.8943 25.9966 14.8943 25.9966C14.8943 25.9966 14.8943 29.7775 15.3671 31.5898C15.6274 32.5897 16.3943 33.3771 17.3681 33.6444C19.133 34.1299 26.2102 34.1299 26.2102 34.1299C26.2102 34.1299 33.2875 34.1299 35.0522 33.6444C36.026 33.3771 36.793 32.5897 37.0532 31.5898C37.5262 29.7775 37.5262 25.9966 37.5262 25.9966C37.5262 25.9966 37.5262 22.2155 37.0532 20.4033Z" fill="white"/>
<path fill-rule="evenodd" clip-rule="evenodd" d="M24.0896 29.885V22.8125L29.7476 26.3489L24.0896 29.885Z" fill="#FF0000"/>
</svg>
