<svg width="30" height="30" viewBox="0 0 30 30" fill="none" xmlns="http://www.w3.org/2000/svg">
<rect width="30" height="30" rx="15" fill="#FF0000"/>
<path fill-rule="evenodd" clip-rule="evenodd" d="M21.779 11.5046C21.6164 10.8797 21.137 10.3876 20.5284 10.2206C19.4254 9.91708 15.0022 9.91708 15.0022 9.91708C15.0022 9.91708 10.5789 9.91708 9.47582 10.2206C8.86719 10.3876 8.38787 10.8797 8.2252 11.5046C7.92969 12.6372 7.92969 15.0004 7.92969 15.0004C7.92969 15.0004 7.92969 17.3635 8.2252 18.4962C8.38787 19.1211 8.86719 19.6132 9.47582 19.7803C10.5789 20.0838 15.0022 20.0838 15.0022 20.0838C15.0022 20.0838 19.4254 20.0838 20.5284 19.7803C21.137 19.6132 21.6164 19.1211 21.779 18.4962C22.0746 17.3635 22.0746 15.0004 22.0746 15.0004C22.0746 15.0004 22.0746 12.6372 21.779 11.5046Z" fill="white"/>
<path fill-rule="evenodd" clip-rule="evenodd" d="M13.6777 17.4307V13.0104L17.214 15.2206L13.6777 17.4307Z" fill="#FF0000"/>
</svg>
