<svg width="22" height="22" viewBox="0 0 22 22" fill="none" xmlns="http://www.w3.org/2000/svg">
<path fill-rule="evenodd" clip-rule="evenodd" d="M19.8121 6.70416C19.6016 5.89533 18.9812 5.25842 18.1935 5.04226C16.7659 4.64941 11.0409 4.64941 11.0409 4.64941C11.0409 4.64941 5.31601 4.64941 3.88834 5.04226C3.1006 5.25842 2.48022 5.89533 2.26969 6.70416C1.88721 8.17006 1.88721 11.2287 1.88721 11.2287C1.88721 11.2287 1.88721 14.2872 2.26969 15.7532C2.48022 16.562 3.1006 17.1989 3.88834 17.4152C5.31601 17.8079 11.0409 17.8079 11.0409 17.8079C11.0409 17.8079 16.7659 17.8079 18.1935 17.4152C18.9812 17.1989 19.6016 16.562 19.8121 15.7532C20.1947 14.2872 20.1947 11.2287 20.1947 11.2287C20.1947 11.2287 20.1947 8.17006 19.8121 6.70416Z" fill="#FF0000"/>
<path fill-rule="evenodd" clip-rule="evenodd" d="M9.32617 14.3725V8.65137L13.903 11.512L9.32617 14.3725Z" fill="#F6F6FF"/>
</svg>
