<svg width="24" height="17" viewBox="0 0 24 17" fill="none" xmlns="http://www.w3.org/2000/svg">
<path fill-rule="evenodd" clip-rule="evenodd" d="M23.5036 2.6546C23.2316 1.60965 22.4301 0.786798 21.4124 0.507532C19.5681 0 12.1718 0 12.1718 0C12.1718 0 4.77551 0 2.93105 0.507532C1.91333 0.786798 1.11185 1.60965 0.839845 2.6546C0.345703 4.54846 0.345703 8.5 0.345703 8.5C0.345703 8.5 0.345703 12.4514 0.839845 14.3454C1.11185 15.3903 1.91333 16.2132 2.93105 16.4926C4.77551 17 12.1718 17 12.1718 17C12.1718 17 19.5681 17 21.4124 16.4926C22.4301 16.2132 23.2316 15.3903 23.5036 14.3454C23.9979 12.4514 23.9979 8.5 23.9979 8.5C23.9979 8.5 23.9979 4.54846 23.5036 2.6546Z" fill="#D6D6E8"/>
<path fill-rule="evenodd" clip-rule="evenodd" d="M9.95605 12.5634V5.17212L15.8691 8.86791L9.95605 12.5634Z" fill="#F6F6FF"/>
</svg>
