<svg width="52" height="52" viewBox="0 0 52 52" fill="none" xmlns="http://www.w3.org/2000/svg">
<rect opacity="0.7" width="52" height="52" rx="26" fill="#1F2337"/>
<rect opacity="0.7" x="5" y="5" width="42" height="42" rx="21" fill="#1F2337"/>
<path d="M33.5999 25.5918C34.0147 26.1343 34.0147 26.8666 33.5999 27.4083C32.2936 29.1136 29.1593 32.625 25.5001 32.625C21.8408 32.625 18.7066 29.1136 17.4002 27.4083C17.1984 27.1485 17.0889 26.8289 17.0889 26.5C17.0889 26.1711 17.1984 25.8515 17.4002 25.5918C18.7066 23.8864 21.8408 20.375 25.5001 20.375C29.1593 20.375 32.2936 23.8864 33.5999 25.5918V25.5918Z" stroke="white" stroke-width="2" stroke-linecap="round" stroke-linejoin="round"/>
<path d="M25.5 29.125C26.9497 29.125 28.125 27.9497 28.125 26.5C28.125 25.0503 26.9497 23.875 25.5 23.875C24.0503 23.875 22.875 25.0503 22.875 26.5C22.875 27.9497 24.0503 29.125 25.5 29.125Z" stroke="white" stroke-width="2" stroke-linecap="round" stroke-linejoin="round"/>
</svg>
