<svg width="547" height="381" viewBox="0 0 547 381" fill="none" xmlns="http://www.w3.org/2000/svg">
<path d="M86.0003 201.513C135.521 64.5493 286.696 -6.33734 423.66 43.1832C560.624 92.7038 645.794 204.374 596.274 341.337C546.753 478.301 230.249 489.411 93.2854 439.89C-43.6784 390.37 36.4797 338.477 86.0003 201.513Z" fill="url(#paint0_linear_357_9871)"/>
<g filter="url(#filter0_d_357_9871)">
<path fill-rule="evenodd" clip-rule="evenodd" d="M58.6676 25.1772C31.7242 25.1772 9.88232 47.0191 9.88232 73.9625C9.88232 100.906 31.7242 122.748 58.6676 122.748H204.63L223.396 141.513V122.748H248.242C275.186 122.748 297.028 100.906 297.028 73.9625C297.028 47.0191 275.186 25.1772 248.242 25.1772H58.6676Z" fill="white"/>
</g>
<g filter="url(#filter1_d_357_9871)">
<path d="M312.072 238.758C297.361 248.258 275.922 249.065 261.591 243.534C251.074 239.475 237.026 230.347 230.48 213.351" stroke="url(#paint1_linear_357_9871)" stroke-width="24.9903" stroke-linecap="round"/>
<path d="M265.751 235.863C264.205 238.651 262.219 241.959 262.103 250.624" stroke="#C7D2D7" stroke-opacity="0.3" stroke-width="5.90048" stroke-linecap="round"/>
<path d="M276.683 239.709C275.697 241.402 274.376 243.439 275.89 247.847" stroke="#C7D2D7" stroke-opacity="0.3" stroke-width="5.90048" stroke-linecap="round"/>
<path d="M255.96 233.483C254.506 234.548 252.672 235.773 251.488 240.234" stroke="#C7D2D7" stroke-opacity="0.3" stroke-width="5.90048" stroke-linecap="round"/>
</g>
<g filter="url(#filter2_d_357_9871)">
<path d="M336.691 217.761C322.47 217.761 309.959 227.269 307.392 241.257C301.604 272.789 298.037 314.01 305.634 326.721C313.973 340.676 332.649 344.919 344.557 345.53V345.559C345.374 345.598 346.267 345.616 347.224 345.609C348.181 345.616 349.075 345.598 349.891 345.559V345.53C361.799 344.919 380.475 340.676 388.815 326.721C396.411 314.01 392.844 272.789 387.057 241.257C384.489 227.269 371.978 217.761 357.757 217.761H336.691Z" fill="url(#paint2_linear_357_9871)"/>
<path d="M337.913 333.836L337.812 316.482L303.104 316.685L303.205 334.039L337.913 333.836ZM309.596 397.167C311.749 406.507 321.065 412.334 330.405 410.181C339.745 408.029 345.571 398.713 343.419 389.373L309.596 397.167ZM303.205 334.039C303.282 347.145 305.427 379.077 309.596 397.167L343.419 389.373C340.068 374.836 337.983 345.777 337.913 333.836L303.205 334.039Z" fill="white"/>
<path d="M391.9 333.836L391.799 316.482L357.091 316.685L357.192 334.039L391.9 333.836ZM363.584 397.167C365.736 406.507 375.052 412.334 384.392 410.181C393.732 408.029 399.558 398.713 397.406 389.373L363.584 397.167ZM357.192 334.039C357.269 347.145 359.415 379.077 363.584 397.167L397.406 389.373C394.056 374.836 391.97 345.777 391.9 333.836L357.192 334.039Z" fill="white"/>
<g filter="url(#filter3_d_357_9871)">
<path d="M307.745 254.27C307.891 252.661 309.24 251.429 310.856 251.429H329.377C331.158 251.429 332.579 252.915 332.498 254.694L331.741 271.355C331.665 273.023 330.29 274.336 328.62 274.336H309.341C307.504 274.336 306.064 272.759 306.23 270.93L307.745 254.27Z" fill="url(#paint3_linear_357_9871)"/>
<path d="M329.377 250.908H310.856C308.971 250.908 307.397 252.345 307.226 254.223L305.712 270.883C305.518 273.017 307.198 274.857 309.341 274.857H328.62C330.568 274.857 332.172 273.325 332.261 271.378L333.018 254.718C333.112 252.642 331.455 250.908 329.377 250.908Z" stroke="#EFF2F3" stroke-width="1.04126"/>
</g>
<path d="M311.249 331.023C323.21 339.827 354.346 352.153 383.199 331.023" stroke="#C7D2D7" stroke-opacity="0.3" stroke-width="5.90048" stroke-linecap="round"/>
<path d="M313.407 353.321C317.378 354.426 322.117 355.88 333.659 354.949" stroke="#C7D2D7" stroke-opacity="0.3" stroke-width="5.90048" stroke-linecap="round"/>
<path d="M364.395 356.516C368.49 356.985 373.397 357.679 384.652 354.953" stroke="#C7D2D7" stroke-opacity="0.3" stroke-width="5.90048" stroke-linecap="round"/>
<path d="M316.851 367.342C318.766 367.901 321.05 368.633 326.642 368.252" stroke="#C7D2D7" stroke-opacity="0.3" stroke-width="5.90048" stroke-linecap="round"/>
<path d="M370.842 368.429C372.833 368.554 375.222 368.767 380.594 367.169" stroke="#C7D2D7" stroke-opacity="0.3" stroke-width="5.90048" stroke-linecap="round"/>
<path d="M315.385 261.11H315.354C315.984 259.725 317.27 258.775 318.754 258.775C319.711 258.775 320.586 259.17 321.255 259.822H321.279H322.798C321.899 258.409 320.422 257.488 318.754 257.488C316.208 257.488 314.109 259.634 313.824 262.398L317.028 262.397V263.685H313.824L313.825 263.695C313.872 264.139 313.965 264.567 314.099 264.973H317.028V268.25C317.393 268.401 317.778 268.506 318.178 268.558V264.973H319.328V268.558C319.728 268.506 320.114 268.402 320.479 268.25V264.973H323.407C323.607 264.371 323.716 263.72 323.716 263.041C323.716 262.362 323.607 261.711 323.407 261.11H322.726H315.385V261.11ZM319.329 263.685H318.178V262.398H319.329V263.685ZM322.522 263.685H320.479V262.398H322.522C322.551 262.608 322.566 262.823 322.566 263.042C322.566 263.26 322.551 263.475 322.522 263.685Z" fill="#9FF9FF"/>
<path d="M318.75 254.899C314.731 254.899 311.474 258.545 311.474 263.041C311.474 267.537 314.731 271.183 318.75 271.183C322.768 271.183 326.025 267.537 326.025 263.041C326.025 258.545 322.768 254.899 318.75 254.899ZM318.75 269.893C315.368 269.893 312.627 266.825 312.627 263.041C312.627 259.257 315.368 256.189 318.75 256.189C322.131 256.189 324.873 259.257 324.873 263.041C324.873 266.825 322.131 269.893 318.75 269.893Z" fill="#9FF9FF"/>
<g filter="url(#filter4_d_357_9871)">
<circle cx="345.904" cy="256.339" r="4.80659" fill="url(#paint4_radial_357_9871)"/>
<circle cx="345.904" cy="256.339" r="5.32722" stroke="#EFF2F3" stroke-width="1.04126"/>
</g>
<g filter="url(#filter5_d_357_9871)">
<circle cx="345.904" cy="269.53" r="4.80659" fill="url(#paint5_radial_357_9871)"/>
<circle cx="345.904" cy="269.53" r="5.32722" stroke="#EFF2F3" stroke-width="1.04126"/>
</g>
</g>
<path d="M224.905 220.283C219.56 223.51 212.663 220.991 210.716 215.1L207.026 203.937C206.574 202.569 206.442 201.16 206.594 199.798C197.597 186.667 194.306 179.559 206.448 166.666C206.751 161.9 204.156 156.468 206.777 154.526C214.175 151.551 211.753 163.924 218.167 171.132C218.48 171.483 218.788 171.83 219.092 172.169C216.905 167.098 219.518 164.353 222.802 164.965C225.898 165.542 228.292 173.281 229.709 181.409C229.801 182.547 229.869 184.036 229.853 185.712C231.66 186.223 233.322 187.263 234.594 188.784L241.553 197.102C245.382 201.678 244.179 208.647 239.024 211.759L224.905 220.283Z" fill="#282522"/>
<g filter="url(#filter6_d_357_9871)">
<path d="M379.741 228.547C379.741 228.547 415.159 237.329 425.279 252.771C435.398 268.213 418.222 288.112 397.833 299.869" stroke="url(#paint6_linear_357_9871)" stroke-width="24.9903" stroke-linecap="round"/>
<path d="M418.533 260.664C421.826 260.945 425.793 261.417 434.191 258.033" stroke="#C7D2D7" stroke-opacity="0.3" stroke-width="5.90048" stroke-linecap="round"/>
<path d="M415.47 253.1C417.893 252.917 420.865 252.817 425.433 248.675" stroke="#C7D2D7" stroke-opacity="0.3" stroke-width="5.90048" stroke-linecap="round"/>
<path d="M418.676 269.712C420.598 271.092 422.871 272.882 429.061 272.54" stroke="#C7D2D7" stroke-opacity="0.3" stroke-width="5.90048" stroke-linecap="round"/>
</g>
<path d="M420.65 290.578C425.334 294.705 425.005 302.041 419.972 305.669L410.435 312.544C409.266 313.386 407.962 313.936 406.616 314.2C384.085 333.196 385.289 346.521 376.147 340.983C371.085 334.822 370.769 325.111 375.798 311.779C376.039 311.376 376.276 310.978 376.509 310.586C372.329 314.196 368.926 312.529 368.523 309.213C368.142 306.087 374.803 301.477 382.129 297.682C383.187 297.252 384.587 296.74 386.19 296.252C386.135 294.375 386.627 292.477 387.695 290.806L393.536 281.668C396.749 276.641 403.758 275.693 408.276 279.674L420.65 290.578Z" fill="#282522"/>
<g filter="url(#filter7_d_357_9871)">
<path d="M351.397 232.042C387.785 226.449 412.749 192.416 407.156 156.028C401.563 119.64 367.531 94.6763 331.143 100.269C294.755 105.863 269.791 139.895 275.384 176.283C280.977 212.671 315.009 237.635 351.397 232.042Z" fill="url(#paint7_radial_357_9871)"/>
<path d="M304.804 203.325C301.807 204.595 298.323 203.871 296.111 201.469C288.672 193.44 281.484 178.853 281.363 168.71C280.862 129.76 336.231 114.685 351.985 145.221C359.23 159.304 356.046 173.687 354.325 179.752C353.767 181.681 352.352 183.292 350.493 184.072L304.804 203.325Z" fill="url(#paint8_linear_357_9871)"/>
<g style="mix-blend-mode:multiply">
<path d="M352.369 145.117C344.418 129.659 326.309 125.923 310.455 131.013C322.98 130.301 307.864 156.275 314.011 168.189C321.257 182.272 345.415 175.636 343.701 181.745C343.144 183.674 341.728 185.286 339.869 186.066L299.123 203.255C301.005 204.089 303.211 204.11 305.195 203.265L350.884 184.013C352.743 183.233 354.159 181.621 354.716 179.692C356.43 173.584 359.665 159.238 352.369 145.117Z" fill="url(#paint9_radial_357_9871)"/>
</g>
<path d="M294.092 150.712C291.655 152.681 284.255 167.663 293.265 181.216" stroke="white" stroke-width="7.07569" stroke-linecap="round"/>
</g>
<defs>
<filter id="filter0_d_357_9871" x="-0.117676" y="19.1772" width="307.145" height="136.336" filterUnits="userSpaceOnUse" color-interpolation-filters="sRGB">
<feFlood flood-opacity="0" result="BackgroundImageFix"/>
<feColorMatrix in="SourceAlpha" type="matrix" values="0 0 0 0 0 0 0 0 0 0 0 0 0 0 0 0 0 0 127 0" result="hardAlpha"/>
<feOffset dy="4"/>
<feGaussianBlur stdDeviation="5"/>
<feComposite in2="hardAlpha" operator="out"/>
<feColorMatrix type="matrix" values="0 0 0 0 0.458824 0 0 0 0 0.458824 0 0 0 0 0.560784 0 0 0 0.5 0"/>
<feBlend mode="normal" in2="BackgroundImageFix" result="effect1_dropShadow_357_9871"/>
<feBlend mode="normal" in="SourceGraphic" in2="effect1_dropShadow_357_9871" result="shape"/>
</filter>
<filter id="filter1_d_357_9871" x="206.714" y="166.155" width="125.732" height="125.579" filterUnits="userSpaceOnUse" color-interpolation-filters="sRGB">
<feFlood flood-opacity="0" result="BackgroundImageFix"/>
<feColorMatrix in="SourceAlpha" type="matrix" values="0 0 0 0 0 0 0 0 0 0 0 0 0 0 0 0 0 0 127 0" result="hardAlpha"/>
<feOffset dy="1.38835"/>
<feGaussianBlur stdDeviation="0.694174"/>
<feComposite in2="hardAlpha" operator="out"/>
<feColorMatrix type="matrix" values="0 0 0 0 0 0 0 0 0 0 0 0 0 0 0 0 0 0 0.25 0"/>
<feBlend mode="normal" in2="BackgroundImageFix" result="effect1_dropShadow_357_9871"/>
<feBlend mode="normal" in="SourceGraphic" in2="effect1_dropShadow_357_9871" result="shape"/>
</filter>
<filter id="filter2_d_357_9871" x="299.673" y="217.761" width="99.6139" height="195.757" filterUnits="userSpaceOnUse" color-interpolation-filters="sRGB">
<feFlood flood-opacity="0" result="BackgroundImageFix"/>
<feColorMatrix in="SourceAlpha" type="matrix" values="0 0 0 0 0 0 0 0 0 0 0 0 0 0 0 0 0 0 127 0" result="hardAlpha"/>
<feOffset dy="1.38835"/>
<feGaussianBlur stdDeviation="0.694174"/>
<feComposite in2="hardAlpha" operator="out"/>
<feColorMatrix type="matrix" values="0 0 0 0 0 0 0 0 0 0 0 0 0 0 0 0 0 0 0.25 0"/>
<feBlend mode="normal" in2="BackgroundImageFix" result="effect1_dropShadow_357_9871"/>
<feBlend mode="normal" in="SourceGraphic" in2="effect1_dropShadow_357_9871" result="shape"/>
</filter>
<filter id="filter3_d_357_9871" x="303.788" y="250.387" width="31.1432" height="27.7674" filterUnits="userSpaceOnUse" color-interpolation-filters="sRGB">
<feFlood flood-opacity="0" result="BackgroundImageFix"/>
<feColorMatrix in="SourceAlpha" type="matrix" values="0 0 0 0 0 0 0 0 0 0 0 0 0 0 0 0 0 0 127 0" result="hardAlpha"/>
<feOffset dy="1.38835"/>
<feGaussianBlur stdDeviation="0.694174"/>
<feComposite in2="hardAlpha" operator="out"/>
<feColorMatrix type="matrix" values="0 0 0 0 0 0 0 0 0 0 0 0 0 0 0 0 0 0 0.25 0"/>
<feBlend mode="normal" in2="BackgroundImageFix" result="effect1_dropShadow_357_9871"/>
<feBlend mode="normal" in="SourceGraphic" in2="effect1_dropShadow_357_9871" result="shape"/>
</filter>
<filter id="filter4_d_357_9871" x="338.667" y="250.491" width="14.4725" height="14.4725" filterUnits="userSpaceOnUse" color-interpolation-filters="sRGB">
<feFlood flood-opacity="0" result="BackgroundImageFix"/>
<feColorMatrix in="SourceAlpha" type="matrix" values="0 0 0 0 0 0 0 0 0 0 0 0 0 0 0 0 0 0 127 0" result="hardAlpha"/>
<feOffset dy="1.38835"/>
<feGaussianBlur stdDeviation="0.694174"/>
<feComposite in2="hardAlpha" operator="out"/>
<feColorMatrix type="matrix" values="0 0 0 0 0 0 0 0 0 0 0 0 0 0 0 0 0 0 0.25 0"/>
<feBlend mode="normal" in2="BackgroundImageFix" result="effect1_dropShadow_357_9871"/>
<feBlend mode="normal" in="SourceGraphic" in2="effect1_dropShadow_357_9871" result="shape"/>
</filter>
<filter id="filter5_d_357_9871" x="338.667" y="263.682" width="14.4725" height="14.4725" filterUnits="userSpaceOnUse" color-interpolation-filters="sRGB">
<feFlood flood-opacity="0" result="BackgroundImageFix"/>
<feColorMatrix in="SourceAlpha" type="matrix" values="0 0 0 0 0 0 0 0 0 0 0 0 0 0 0 0 0 0 127 0" result="hardAlpha"/>
<feOffset dy="1.38835"/>
<feGaussianBlur stdDeviation="0.694174"/>
<feComposite in2="hardAlpha" operator="out"/>
<feColorMatrix type="matrix" values="0 0 0 0 0 0 0 0 0 0 0 0 0 0 0 0 0 0 0.25 0"/>
<feBlend mode="normal" in2="BackgroundImageFix" result="effect1_dropShadow_357_9871"/>
<feBlend mode="normal" in="SourceGraphic" in2="effect1_dropShadow_357_9871" result="shape"/>
</filter>
<filter id="filter6_d_357_9871" x="360.896" y="197.828" width="104.339" height="123.059" filterUnits="userSpaceOnUse" color-interpolation-filters="sRGB">
<feFlood flood-opacity="0" result="BackgroundImageFix"/>
<feColorMatrix in="SourceAlpha" type="matrix" values="0 0 0 0 0 0 0 0 0 0 0 0 0 0 0 0 0 0 127 0" result="hardAlpha"/>
<feOffset dy="1.38835"/>
<feGaussianBlur stdDeviation="0.694174"/>
<feComposite in2="hardAlpha" operator="out"/>
<feColorMatrix type="matrix" values="0 0 0 0 0 0 0 0 0 0 0 0 0 0 0 0 0 0 0.25 0"/>
<feBlend mode="normal" in2="BackgroundImageFix" result="effect1_dropShadow_357_9871"/>
<feBlend mode="normal" in="SourceGraphic" in2="effect1_dropShadow_357_9871" result="shape"/>
</filter>
<filter id="filter7_d_357_9871" x="263.868" y="90.1421" width="154.804" height="154.804" filterUnits="userSpaceOnUse" color-interpolation-filters="sRGB">
<feFlood flood-opacity="0" result="BackgroundImageFix"/>
<feColorMatrix in="SourceAlpha" type="matrix" values="0 0 0 0 0 0 0 0 0 0 0 0 0 0 0 0 0 0 127 0" result="hardAlpha"/>
<feOffset dy="1.38835"/>
<feGaussianBlur stdDeviation="0.694174"/>
<feComposite in2="hardAlpha" operator="out"/>
<feColorMatrix type="matrix" values="0 0 0 0 0 0 0 0 0 0 0 0 0 0 0 0 0 0 0.25 0"/>
<feBlend mode="normal" in2="BackgroundImageFix" result="effect1_dropShadow_357_9871"/>
<feBlend mode="normal" in="SourceGraphic" in2="effect1_dropShadow_357_9871" result="shape"/>
</filter>
<linearGradient id="paint0_linear_357_9871" x1="970.081" y1="509.146" x2="66.354" y2="94.7813" gradientUnits="userSpaceOnUse">
<stop offset="0.46875" stop-color="#D6D6E8"/>
<stop offset="1" stop-color="#F6F6FF"/>
</linearGradient>
<linearGradient id="paint1_linear_357_9871" x1="295.217" y1="255.844" x2="249.798" y2="210.731" gradientUnits="userSpaceOnUse">
<stop stop-color="#EFF2F3"/>
<stop offset="1" stop-color="white"/>
</linearGradient>
<linearGradient id="paint2_linear_357_9871" x1="347.224" y1="217.761" x2="347.224" y2="345.611" gradientUnits="userSpaceOnUse">
<stop stop-color="#E3E9EB"/>
<stop offset="0.56737" stop-color="white"/>
</linearGradient>
<linearGradient id="paint3_linear_357_9871" x1="318.763" y1="222.197" x2="318.763" y2="274.336" gradientUnits="userSpaceOnUse">
<stop stop-color="#50D5FF"/>
<stop offset="1" stop-color="#2C3585"/>
</linearGradient>
<radialGradient id="paint4_radial_357_9871" cx="0" cy="0" r="1" gradientUnits="userSpaceOnUse" gradientTransform="translate(345.904 256.339) rotate(90) scale(7.00435)">
<stop stop-color="#51E0FF"/>
<stop offset="1" stop-color="#4E7CB4"/>
</radialGradient>
<radialGradient id="paint5_radial_357_9871" cx="0" cy="0" r="1" gradientUnits="userSpaceOnUse" gradientTransform="translate(345.904 269.53) rotate(90) scale(7.00435)">
<stop stop-color="#FFB3B3"/>
<stop offset="1" stop-color="#F20000"/>
</radialGradient>
<linearGradient id="paint6_linear_357_9871" x1="403.654" y1="220.963" x2="422.809" y2="282.046" gradientUnits="userSpaceOnUse">
<stop stop-color="#EFF2F3"/>
<stop offset="1" stop-color="white"/>
</linearGradient>
<radialGradient id="paint7_radial_357_9871" cx="0" cy="0" r="1" gradientUnits="userSpaceOnUse" gradientTransform="translate(376.417 251.219) rotate(-8.73846) scale(111.445)">
<stop offset="0.381" stop-color="#BFCCD1"/>
<stop offset="0.7578" stop-color="white"/>
</radialGradient>
<linearGradient id="paint8_linear_357_9871" x1="281.498" y1="171.017" x2="356.339" y2="159.513" gradientUnits="userSpaceOnUse">
<stop stop-color="#FFF668"/>
<stop offset="0.29" stop-color="#FF9C4C"/>
<stop offset="1" stop-color="#880000"/>
</linearGradient>
<radialGradient id="paint9_radial_357_9871" cx="0" cy="0" r="1" gradientUnits="userSpaceOnUse" gradientTransform="translate(315.099 178.498) rotate(-8.73846) scale(59.5973)">
<stop stop-color="white"/>
<stop offset="0.9385" stop-color="#880000"/>
</radialGradient>
</defs>
</svg>
