<svg width="133" height="140" viewBox="0 0 133 140" fill="none" xmlns="http://www.w3.org/2000/svg">
<path d="M130 80C130 113.137 103.137 140 70 140C36.8629 140 10 113.137 10 80C10 46.8629 36.8629 20 70 20C103.137 20 130 46.8629 130 80Z" fill="url(#paint0_linear_2286_32986)"/>
<g filter="url(#filter0_d_2286_32986)">
<path d="M56.3 72.6234L61.7842 87.4857" stroke="url(#paint1_linear_2286_32986)" stroke-width="4.93505" stroke-linecap="round"/>
<path d="M60.4058 79.6367C59.9045 79.9495 59.3111 80.349 57.7081 80.4533" stroke="#C7D2D7" stroke-opacity="0.3" stroke-width="1.16522" stroke-linecap="round"/>
<path d="M59.2275 77.9023C58.9623 78.0408 58.6011 78.2052 58.0467 78.1572" stroke="#C7D2D7" stroke-opacity="0.3" stroke-width="1.16522" stroke-linecap="round"/>
<path d="M60.6133 81.6348C60.3777 81.8192 60.0524 82.0465 59.4985 82.1003" stroke="#C7D2D7" stroke-opacity="0.3" stroke-width="1.16522" stroke-linecap="round"/>
</g>
<path d="M20.8221 56.501C20.503 54.5648 21.9968 52.8047 23.9591 52.8047H37.0785C38.4357 52.8047 39.6432 53.6662 40.0848 54.9496L53.3305 93.4456C54.0407 95.5098 52.5071 97.6593 50.3242 97.6593H30.3038C28.7474 97.6593 27.4199 96.5326 27.1668 94.997L20.8221 56.501Z" fill="url(#paint2_linear_2286_32986)"/>
<g filter="url(#filter1_d_2286_32986)">
<path d="M46.6158 66.5586C43.2757 66.5586 40.3372 68.7917 39.7342 72.077C38.3748 79.483 37.5372 89.1645 39.3213 92.1499C41.2801 95.4276 45.6664 96.4243 48.4633 96.5676V96.5746C48.6551 96.5837 48.8648 96.5879 49.0897 96.5863C49.3146 96.5879 49.5243 96.5837 49.7161 96.5746V96.5676C52.5129 96.4243 56.8993 95.4276 58.8581 92.1499C60.6422 89.1645 59.8046 79.483 58.4452 72.077C57.8422 68.7917 54.9037 66.5586 51.5636 66.5586H46.6158Z" fill="url(#paint3_linear_2286_32986)"/>
<path d="M55.4483 97.5636L52.2636 95.0197L57.3514 88.6503L60.5361 91.1942L55.4483 97.5636ZM63.2662 107.547C62.1339 109.493 59.6387 110.152 57.6931 109.02C55.7475 107.888 55.0881 105.393 56.2204 103.447L63.2662 107.547ZM60.5361 91.1942C62.2396 92.5549 63.992 94.7445 64.7821 97.6164C65.6073 100.616 65.2946 104.062 63.2662 107.547L56.2204 103.447C57.1854 101.789 57.1462 100.593 56.9221 99.7788C56.6629 98.8365 56.0431 98.0387 55.4483 97.5636L60.5361 91.1942Z" fill="white"/>
<path d="M44.6148 96.9836L41.4301 94.4397L46.5178 88.0702L49.7026 90.6141L44.6148 96.9836ZM52.7716 109.05C51.6397 110.996 49.1447 111.656 47.1988 110.524C45.253 109.392 44.5931 106.897 45.7249 104.951L52.7716 109.05ZM49.7026 90.6141C51.6215 92.1469 53.5977 94.6161 54.4884 97.8448C55.4145 101.201 55.0794 105.083 52.7716 109.05L45.7249 104.951C46.9678 102.815 46.9536 101.186 46.63 100.013C46.2711 98.712 45.4271 97.6324 44.6148 96.9836L49.7026 90.6141Z" fill="white"/>
<g filter="url(#filter2_d_2286_32986)">
<rect x="47.3774" y="74.4648" width="6.7662" height="5.38035" rx="0.733684" fill="url(#paint4_linear_2286_32986)"/>
<rect x="47.2552" y="74.3426" width="7.01076" height="5.62491" rx="0.855964" stroke="#EFF2F3" stroke-width="0.244561"/>
</g>
<path d="M42.041 93.8145C45.1468 95.4028 52.8305 97.0822 58.7195 91.0927" stroke="#C7D2D7" stroke-opacity="0.3" stroke-width="1.38585" stroke-linecap="round"/>
<path d="M62.52 96.5859C61.7081 97.1131 60.7487 97.7725 58.0969 98.3769" stroke="#C7D2D7" stroke-opacity="0.3" stroke-width="1.38585" stroke-linecap="round"/>
<path d="M52.9482 100.293C52.0361 100.617 50.9498 101.036 48.2302 101.008" stroke="#C7D2D7" stroke-opacity="0.3" stroke-width="1.38585" stroke-linecap="round"/>
<path d="M61.0308 100.074C60.5728 100.173 60.0254 100.307 58.7217 100.124" stroke="#C7D2D7" stroke-opacity="0.3" stroke-width="1.38585" stroke-linecap="round"/>
<path d="M50.6387 103.553C50.1702 103.543 49.6068 103.545 48.3811 103.065" stroke="#C7D2D7" stroke-opacity="0.3" stroke-width="1.38585" stroke-linecap="round"/>
<path d="M49.8732 76.7394H49.8651C50.0306 76.4141 50.3686 76.1911 50.7587 76.1911C51.0103 76.1911 51.2402 76.2838 51.4162 76.437H51.4223H51.8217C51.5853 76.1051 51.1972 75.8887 50.7587 75.8887C50.0894 75.8887 49.538 76.3927 49.463 77.0419L50.3051 77.0418V77.3442H49.4629L49.4632 77.3465C49.4755 77.4508 49.5 77.5513 49.5353 77.6466H50.305V78.4163C50.4009 78.4519 50.5023 78.4765 50.6073 78.4887V77.6467H50.9097V78.4888C51.0148 78.4766 51.1161 78.452 51.2121 78.4164V77.6466H51.9818C52.0342 77.5054 52.0628 77.3525 52.0628 77.193C52.0628 77.0335 52.0342 76.8807 51.9818 76.7394H51.8027H49.8732ZM50.9098 77.3442H50.6074V77.0419H50.9098V77.3442ZM51.7492 77.3442H51.2122V77.0419H51.7492C51.7567 77.0912 51.7605 77.1417 51.7605 77.1931C51.7605 77.2444 51.7567 77.2949 51.7492 77.3442Z" fill="#9FF9FF"/>
<path d="M50.7575 75.2812C49.7013 75.2812 48.8452 76.1374 48.8452 77.1935C48.8452 78.2496 49.7013 79.1057 50.7575 79.1057C51.8136 79.1057 52.6697 78.2496 52.6697 77.1935C52.6697 76.1374 51.8136 75.2812 50.7575 75.2812ZM50.7575 78.8028C49.8687 78.8028 49.1481 78.0823 49.1481 77.1935C49.1481 76.3047 49.8687 75.5842 50.7575 75.5842C51.6463 75.5842 52.3668 76.3047 52.3668 77.1935C52.3668 78.0823 51.6463 78.8028 50.7575 78.8028Z" fill="#9FF9FF"/>
<g filter="url(#filter3_d_2286_32986)">
<ellipse cx="57.0426" cy="75.6206" rx="0.744577" ry="1.12892" transform="rotate(-2.65315 57.0426 75.6206)" fill="url(#paint5_radial_2286_32986)"/>
<path d="M57.1005 76.8705C57.3601 76.8584 57.5722 76.6888 57.7106 76.4562C57.8496 76.2225 57.9239 75.9124 57.9085 75.5805C57.8932 75.2486 57.7905 74.9466 57.6304 74.7268C57.4711 74.508 57.2443 74.3587 56.9847 74.3707C56.7251 74.3828 56.5131 74.5524 56.3747 74.785C56.2356 75.0187 56.1613 75.3288 56.1767 75.6607C56.1921 75.9926 56.2948 76.2946 56.4548 76.5144C56.6141 76.7332 56.841 76.8825 57.1005 76.8705Z" stroke="#EFF2F3" stroke-width="0.244561"/>
</g>
<g filter="url(#filter4_d_2286_32986)">
<ellipse cx="57.1857" cy="78.7163" rx="0.744577" ry="1.12892" transform="rotate(-2.65315 57.1857 78.7163)" fill="url(#paint6_radial_2286_32986)"/>
<path d="M57.2436 79.9662C57.5032 79.9541 57.7152 79.7845 57.8537 79.5519C57.9927 79.3182 58.067 79.0081 58.0516 78.6762C58.0362 78.3443 57.9335 78.0423 57.7735 77.8225C57.6142 77.6037 57.3873 77.4544 57.1278 77.4664C56.8682 77.4785 56.6561 77.6481 56.5177 77.8807C56.3787 78.1144 56.3044 78.4245 56.3198 78.7564C56.3351 79.0883 56.4378 79.3903 56.5979 79.6101C56.7572 79.8289 56.984 79.9782 57.2436 79.9662Z" stroke="#EFF2F3" stroke-width="0.244561"/>
</g>
</g>
<g filter="url(#filter5_d_2286_32986)">
<ellipse cx="69.719" cy="101.492" rx="50.9641" ry="16.3712" fill="url(#paint7_linear_2286_32986)"/>
</g>
<path d="M79.7108 98.6008C79.5536 98.5264 79.5814 98.2947 79.7518 98.2596L96.5362 94.7995C96.5692 94.7927 96.6034 94.7952 96.635 94.8067L105.798 98.1536C105.969 98.2159 105.952 98.4627 105.774 98.501L87.7668 102.375C87.7278 102.383 87.6871 102.379 87.6511 102.362L79.7108 98.6008Z" fill="#616186"/>
<path d="M87.8799 91.128C87.8799 90.8386 88.0758 90.5859 88.3561 90.5137L96.9379 88.3055C97.3393 88.2022 97.7303 88.5053 97.7303 88.9198V97.416C97.7303 97.7234 97.5099 97.9866 97.2072 98.0405L88.6255 99.5692C88.2367 99.6385 87.8799 99.3396 87.8799 98.9448V91.128Z" fill="#75758F"/>
<path d="M52.3729 99.9828L44.2274 95.8584C44.0686 95.778 44.1088 95.5408 44.2852 95.5171L71.6949 91.842C71.7246 91.838 71.7548 91.8415 71.7829 91.852L80.4844 95.1279C80.6582 95.1933 80.6328 95.4468 80.4495 95.4764L52.4837 100C52.4458 100.006 52.407 100 52.3729 99.9828Z" fill="url(#paint8_linear_2286_32986)"/>
<path d="M54.3159 94.9L64.4304 93.3496" stroke="#9898B3" stroke-width="0.181235" stroke-linecap="round"/>
<path d="M49.0771 96.7811L50.9029 96.4941" stroke="#9898B3" stroke-width="0.181235" stroke-linecap="round"/>
<path d="M52.0146 96.2889L53.8404 96.002" stroke="#9898B3" stroke-width="0.181235" stroke-linecap="round"/>
<path d="M54.9492 95.7967L56.7749 95.5098" stroke="#9898B3" stroke-width="0.181235" stroke-linecap="round"/>
<path d="M57.8867 95.3065L59.7124 95.0195" stroke="#9898B3" stroke-width="0.181235" stroke-linecap="round"/>
<path d="M60.8257 94.8143L62.6514 94.5273" stroke="#9898B3" stroke-width="0.181235" stroke-linecap="round"/>
<path d="M63.7612 94.3221L65.587 94.0352" stroke="#9898B3" stroke-width="0.181235" stroke-linecap="round"/>
<path d="M66.6948 93.8318L68.5206 93.5449" stroke="#9898B3" stroke-width="0.181235" stroke-linecap="round"/>
<path d="M69.6338 93.3397L71.4595 93.0527" stroke="#9898B3" stroke-width="0.181235" stroke-linecap="round"/>
<path d="M50.9058 97.2752L52.7315 96.9883" stroke="#9898B3" stroke-width="0.181235" stroke-linecap="round"/>
<path d="M53.8433 96.783L55.669 96.4961" stroke="#9898B3" stroke-width="0.181235" stroke-linecap="round"/>
<path d="M56.7778 96.2908L58.6036 96.0039" stroke="#9898B3" stroke-width="0.181235" stroke-linecap="round"/>
<path d="M59.7153 95.8006L61.5411 95.5137" stroke="#9898B3" stroke-width="0.181235" stroke-linecap="round"/>
<path d="M62.6548 95.3084L64.4805 95.0215" stroke="#9898B3" stroke-width="0.181235" stroke-linecap="round"/>
<path d="M65.5903 94.8162L67.4161 94.5293" stroke="#9898B3" stroke-width="0.181235" stroke-linecap="round"/>
<path d="M68.5229 94.326L70.3487 94.0391" stroke="#9898B3" stroke-width="0.181235" stroke-linecap="round"/>
<path d="M71.4619 93.8338L73.2876 93.5469" stroke="#9898B3" stroke-width="0.181235" stroke-linecap="round"/>
<path d="M51.2271 98.1541L53.0528 97.8672" stroke="#9898B3" stroke-width="0.181235" stroke-linecap="round"/>
<path d="M54.1646 97.6619L55.9903 97.375" stroke="#9898B3" stroke-width="0.181235" stroke-linecap="round"/>
<path d="M57.0991 97.1697L58.9248 96.8828" stroke="#9898B3" stroke-width="0.181235" stroke-linecap="round"/>
<path d="M60.0366 96.6795L61.8623 96.3926" stroke="#9898B3" stroke-width="0.181235" stroke-linecap="round"/>
<path d="M62.9756 96.1873L64.8013 95.9004" stroke="#9898B3" stroke-width="0.181235" stroke-linecap="round"/>
<path d="M65.9111 95.6951L67.7369 95.4082" stroke="#9898B3" stroke-width="0.181235" stroke-linecap="round"/>
<path d="M68.8447 95.2049L70.6705 94.918" stroke="#9898B3" stroke-width="0.181235" stroke-linecap="round"/>
<path d="M71.7837 94.7127L73.6094 94.4258" stroke="#9898B3" stroke-width="0.181235" stroke-linecap="round"/>
<path d="M54.0303 98.6268L55.856 98.3398" stroke="#9898B3" stroke-width="0.181235" stroke-linecap="round"/>
<path d="M56.9683 98.1346L58.794 97.8477" stroke="#9898B3" stroke-width="0.181235" stroke-linecap="round"/>
<path d="M59.9028 97.6424L61.7286 97.3555" stroke="#9898B3" stroke-width="0.181235" stroke-linecap="round"/>
<path d="M62.8403 97.1522L64.6661 96.8652" stroke="#9898B3" stroke-width="0.181235" stroke-linecap="round"/>
<path d="M65.7793 96.66L67.605 96.373" stroke="#9898B3" stroke-width="0.181235" stroke-linecap="round"/>
<path d="M68.7158 96.1678L70.5415 95.8809" stroke="#9898B3" stroke-width="0.181235" stroke-linecap="round"/>
<path d="M71.6475 95.6775L73.4732 95.3906" stroke="#9898B3" stroke-width="0.181235" stroke-linecap="round"/>
<path d="M74.5874 95.1854L76.4131 94.8984" stroke="#9898B3" stroke-width="0.181235" stroke-linecap="round"/>
<path d="M73.0332 64.9423C73.0332 64.7556 73.1751 64.5994 73.3609 64.5815L112.163 60.8441C112.381 60.8232 112.567 60.9977 112.56 61.216L111.708 89.2271C111.703 89.4002 111.576 89.5454 111.405 89.5737L73.4548 95.852C73.234 95.8885 73.0332 95.7182 73.0332 95.4944V64.9423Z" fill="#75758F"/>
<path d="M74.0645 66.3996V94.3644C74.0645 94.5879 74.2648 94.7582 74.4854 94.7221L111.578 88.6587C111.749 88.6307 111.877 88.4855 111.882 88.3122L112.678 62.6665C112.685 62.4478 112.498 62.273 112.28 62.2945L74.3913 66.0389C74.2058 66.0572 74.0645 66.2132 74.0645 66.3996Z" fill="url(#paint9_linear_2286_32986)"/>
<path d="M91.0678 74.2244L88.4702 85.5794L92.4068 75.6874C92.4527 75.572 92.5545 75.4881 92.6766 75.4652L98.6639 74.3404C98.8512 74.3052 99.0337 74.421 99.0817 74.6054L101.431 83.6391L99.9016 72.9676C99.8729 72.7674 99.6859 72.6294 99.4861 72.6611L91.3644 73.9472C91.2182 73.9704 91.1008 74.0801 91.0678 74.2244Z" fill="#75758F"/>
<g filter="url(#filter6_d_2286_32986)">
<path d="M42.7562 71.1109C42.7562 71.1109 43.1316 78.8468 45.9897 81.6919C48.8478 84.5371 53.8044 81.9718 57.1644 78.3441" stroke="url(#paint10_linear_2286_32986)" stroke-width="5.83357" stroke-linecap="round"/>
<path d="M47.9526 80.6875C47.8737 81.3803 47.8071 82.2217 46.7333 83.7876" stroke="#C7D2D7" stroke-opacity="0.3" stroke-width="1.37737" stroke-linecap="round"/>
<path d="M46.4727 79.6855C46.3318 80.1762 46.1853 80.7842 45.1116 81.5231" stroke="#C7D2D7" stroke-opacity="0.3" stroke-width="1.37737" stroke-linecap="round"/>
<path d="M49.8711 81.1621C50.0837 81.6262 50.3686 82.1829 50.0351 83.4429" stroke="#C7D2D7" stroke-opacity="0.3" stroke-width="1.37737" stroke-linecap="round"/>
</g>
<path d="M54.718 82.0512C55.4196 83.4463 57.2153 83.8318 58.4122 82.8443L60.6805 80.9727C60.9584 80.7433 61.174 80.4626 61.3232 80.1538C64.2065 79.7709 65.402 79.2545 65.0395 75.7926C64.7081 72.6283 65.0101 71.8725 62.692 72.544C62.5792 72.5767 60.9175 72.9048 60.808 72.9362C61.9465 72.154 61.0583 69.6854 60.2406 69.8166C59.4228 69.9478 59.409 70.9433 58.9895 72.1172C58.2217 73.5536 58.496 73.7167 58.2761 74.0736C57.8255 73.9412 57.3351 73.9399 56.8631 74.0924L54.2818 74.9261C52.8618 75.3847 52.188 77.0202 52.8647 78.3658L54.718 82.0512Z" fill="#282522"/>
<g filter="url(#filter7_d_2286_32986)">
<path d="M47.9361 71.7979C39.8645 70.5573 34.3269 63.0082 35.5676 54.9365C36.8083 46.8649 44.3574 41.3273 52.429 42.568C60.5006 43.8087 66.0382 51.3578 64.7975 59.4294C63.5568 67.501 56.0077 73.0386 47.9361 71.7979Z" fill="url(#paint11_radial_2286_32986)"/>
<path d="M61.1723 60.2713C61.8927 60.3209 62.5708 59.9173 62.8611 59.2535C63.3952 56.8463 62.8769 53.3496 62.1688 51.2139C59.4001 42.8642 46.7602 43.6713 45.6643 51.2139C45.1632 54.6912 46.871 57.477 47.6703 58.6244C47.9268 58.9886 48.3402 59.2242 48.7863 59.2534L61.1723 60.2713Z" fill="url(#paint12_linear_2286_32986)"/>
<g style="mix-blend-mode:multiply">
<path d="M45.9899 51.3079C46.5397 47.4912 50.0672 45.3983 53.7598 45.3194C51.0818 46.0758 56.1298 50.4296 55.7021 53.3726C55.2009 56.8499 49.6549 57.2051 50.456 58.3621C50.7124 58.7264 51.1259 58.9619 51.572 58.9912L62.2658 59.8279C61.9315 60.139 61.4703 60.3028 60.9933 60.2692L49.1137 59.3571C48.6676 59.3279 48.2541 59.0923 47.9977 58.7281C47.1966 57.571 45.4809 54.7966 45.9899 51.3079Z" fill="url(#paint13_radial_2286_32986)"/>
</g>
<path d="M57.2949 47.7578C57.9822 47.8599 61.0828 49.891 60.8856 53.4957" stroke="white" stroke-width="2.12943" stroke-linecap="round"/>
</g>
<defs>
<filter id="filter0_d_2286_32986" x="47.0295" y="69.1074" width="23.502" height="23.1011" filterUnits="userSpaceOnUse" color-interpolation-filters="sRGB">
<feFlood flood-opacity="0" result="BackgroundImageFix"/>
<feColorMatrix in="SourceAlpha" type="matrix" values="0 0 0 0 0 0 0 0 0 0 0 0 0 0 0 0 0 0 127 0" result="hardAlpha"/>
<feOffset dy="0.274169"/>
<feGaussianBlur stdDeviation="0.137085"/>
<feComposite in2="hardAlpha" operator="out"/>
<feColorMatrix type="matrix" values="0 0 0 0 0 0 0 0 0 0 0 0 0 0 0 0 0 0 0.25 0"/>
<feBlend mode="normal" in2="BackgroundImageFix" result="effect1_dropShadow_2286_32986"/>
<feBlend mode="normal" in="SourceGraphic" in2="effect1_dropShadow_2286_32986" result="shape"/>
</filter>
<filter id="filter1_d_2286_32986" x="37.9215" y="66.5312" width="32.6898" height="46.0584" filterUnits="userSpaceOnUse" color-interpolation-filters="sRGB">
<feFlood flood-opacity="0" result="BackgroundImageFix"/>
<feColorMatrix in="SourceAlpha" type="matrix" values="0 0 0 0 0 0 0 0 0 0 0 0 0 0 0 0 0 0 127 0" result="hardAlpha"/>
<feOffset dy="0.326082"/>
<feGaussianBlur stdDeviation="0.163041"/>
<feComposite in2="hardAlpha" operator="out"/>
<feColorMatrix type="matrix" values="0 0 0 0 0 0 0 0 0 0 0 0 0 0 0 0 0 0 0.25 0"/>
<feBlend mode="normal" in2="BackgroundImageFix" result="effect1_dropShadow_2286_32986"/>
<feBlend mode="normal" in="SourceGraphic" in2="effect1_dropShadow_2286_32986" result="shape"/>
</filter>
<filter id="filter2_d_2286_32986" x="46.8067" y="74.2207" width="7.90753" height="6.5213" filterUnits="userSpaceOnUse" color-interpolation-filters="sRGB">
<feFlood flood-opacity="0" result="BackgroundImageFix"/>
<feColorMatrix in="SourceAlpha" type="matrix" values="0 0 0 0 0 0 0 0 0 0 0 0 0 0 0 0 0 0 127 0" result="hardAlpha"/>
<feOffset dy="0.326082"/>
<feGaussianBlur stdDeviation="0.163041"/>
<feComposite in2="hardAlpha" operator="out"/>
<feColorMatrix type="matrix" values="0 0 0 0 0 0 0 0 0 0 0 0 0 0 0 0 0 0 0.25 0"/>
<feBlend mode="normal" in2="BackgroundImageFix" result="effect1_dropShadow_2286_32986"/>
<feBlend mode="normal" in="SourceGraphic" in2="effect1_dropShadow_2286_32986" result="shape"/>
</filter>
<filter id="filter3_d_2286_32986" x="55.7262" y="74.248" width="2.63263" height="3.39826" filterUnits="userSpaceOnUse" color-interpolation-filters="sRGB">
<feFlood flood-opacity="0" result="BackgroundImageFix"/>
<feColorMatrix in="SourceAlpha" type="matrix" values="0 0 0 0 0 0 0 0 0 0 0 0 0 0 0 0 0 0 127 0" result="hardAlpha"/>
<feOffset dy="0.326082"/>
<feGaussianBlur stdDeviation="0.163041"/>
<feComposite in2="hardAlpha" operator="out"/>
<feColorMatrix type="matrix" values="0 0 0 0 0 0 0 0 0 0 0 0 0 0 0 0 0 0 0.25 0"/>
<feBlend mode="normal" in2="BackgroundImageFix" result="effect1_dropShadow_2286_32986"/>
<feBlend mode="normal" in="SourceGraphic" in2="effect1_dropShadow_2286_32986" result="shape"/>
</filter>
<filter id="filter4_d_2286_32986" x="55.8692" y="77.3438" width="2.63263" height="3.39826" filterUnits="userSpaceOnUse" color-interpolation-filters="sRGB">
<feFlood flood-opacity="0" result="BackgroundImageFix"/>
<feColorMatrix in="SourceAlpha" type="matrix" values="0 0 0 0 0 0 0 0 0 0 0 0 0 0 0 0 0 0 127 0" result="hardAlpha"/>
<feOffset dy="0.326082"/>
<feGaussianBlur stdDeviation="0.163041"/>
<feComposite in2="hardAlpha" operator="out"/>
<feColorMatrix type="matrix" values="0 0 0 0 0 0 0 0 0 0 0 0 0 0 0 0 0 0 0.25 0"/>
<feBlend mode="normal" in2="BackgroundImageFix" result="effect1_dropShadow_2286_32986"/>
<feBlend mode="normal" in="SourceGraphic" in2="effect1_dropShadow_2286_32986" result="shape"/>
</filter>
<filter id="filter5_d_2286_32986" x="15.8093" y="82.5016" width="107.819" height="38.6333" filterUnits="userSpaceOnUse" color-interpolation-filters="sRGB">
<feFlood flood-opacity="0" result="BackgroundImageFix"/>
<feColorMatrix in="SourceAlpha" type="matrix" values="0 0 0 0 0 0 0 0 0 0 0 0 0 0 0 0 0 0 127 0" result="hardAlpha"/>
<feOffset dy="0.326082"/>
<feGaussianBlur stdDeviation="1.47277"/>
<feComposite in2="hardAlpha" operator="out"/>
<feColorMatrix type="matrix" values="0 0 0 0 0 0 0 0 0 0 0 0 0 0 0 0 0 0 0.25 0"/>
<feBlend mode="normal" in2="BackgroundImageFix" result="effect1_dropShadow_2286_32986"/>
<feBlend mode="normal" in="SourceGraphic" in2="effect1_dropShadow_2286_32986" result="shape"/>
</filter>
<filter id="filter6_d_2286_32986" x="33.6495" y="67.0918" width="27.9206" height="25.32" filterUnits="userSpaceOnUse" color-interpolation-filters="sRGB">
<feFlood flood-opacity="0" result="BackgroundImageFix"/>
<feColorMatrix in="SourceAlpha" type="matrix" values="0 0 0 0 0 0 0 0 0 0 0 0 0 0 0 0 0 0 127 0" result="hardAlpha"/>
<feOffset dy="0.324087"/>
<feGaussianBlur stdDeviation="0.162044"/>
<feComposite in2="hardAlpha" operator="out"/>
<feColorMatrix type="matrix" values="0 0 0 0 0 0 0 0 0 0 0 0 0 0 0 0 0 0 0.25 0"/>
<feBlend mode="normal" in2="BackgroundImageFix" result="effect1_dropShadow_2286_32986"/>
<feBlend mode="normal" in="SourceGraphic" in2="effect1_dropShadow_2286_32986" result="shape"/>
</filter>
<filter id="filter7_d_2286_32986" x="32.903" y="40.3203" width="34.5583" height="34.5583" filterUnits="userSpaceOnUse" color-interpolation-filters="sRGB">
<feFlood flood-opacity="0" result="BackgroundImageFix"/>
<feColorMatrix in="SourceAlpha" type="matrix" values="0 0 0 0 0 0 0 0 0 0 0 0 0 0 0 0 0 0 127 0" result="hardAlpha"/>
<feOffset dy="0.417823"/>
<feGaussianBlur stdDeviation="0.208911"/>
<feComposite in2="hardAlpha" operator="out"/>
<feColorMatrix type="matrix" values="0 0 0 0 0 0 0 0 0 0 0 0 0 0 0 0 0 0 0.25 0"/>
<feBlend mode="normal" in2="BackgroundImageFix" result="effect1_dropShadow_2286_32986"/>
<feBlend mode="normal" in="SourceGraphic" in2="effect1_dropShadow_2286_32986" result="shape"/>
</filter>
<linearGradient id="paint0_linear_2286_32986" x1="70" y1="20" x2="70" y2="140" gradientUnits="userSpaceOnUse">
<stop stop-color="#FF9211" stop-opacity="0.51"/>
<stop offset="0.536458" stop-color="#FF9731" stop-opacity="0.92"/>
<stop offset="1" stop-color="#FF9C4C" stop-opacity="0.56"/>
</linearGradient>
<linearGradient id="paint1_linear_2286_32986" x1="53.2981" y1="75.9072" x2="62.0844" y2="83.8842" gradientUnits="userSpaceOnUse">
<stop stop-color="#EFF2F3"/>
<stop offset="1" stop-color="white"/>
</linearGradient>
<linearGradient id="paint2_linear_2286_32986" x1="24.9364" y1="71.8528" x2="66.5596" y2="63.8085" gradientUnits="userSpaceOnUse">
<stop stop-color="white"/>
<stop offset="1" stop-color="#445987"/>
</linearGradient>
<linearGradient id="paint3_linear_2286_32986" x1="49.0897" y1="66.5586" x2="49.0897" y2="96.5866" gradientUnits="userSpaceOnUse">
<stop stop-color="#E3E9EB"/>
<stop offset="0.56737" stop-color="white"/>
</linearGradient>
<linearGradient id="paint4_linear_2286_32986" x1="50.7605" y1="67.5992" x2="50.7605" y2="79.8452" gradientUnits="userSpaceOnUse">
<stop stop-color="#50D5FF"/>
<stop offset="1" stop-color="#2C3585"/>
</linearGradient>
<radialGradient id="paint5_radial_2286_32986" cx="0" cy="0" r="1" gradientUnits="userSpaceOnUse" gradientTransform="translate(57.0426 75.6206) rotate(90) scale(1.64512 1.08503)">
<stop stop-color="#51E0FF"/>
<stop offset="1" stop-color="#4E7CB4"/>
</radialGradient>
<radialGradient id="paint6_radial_2286_32986" cx="0" cy="0" r="1" gradientUnits="userSpaceOnUse" gradientTransform="translate(57.1857 78.7163) rotate(90) scale(1.64512 1.08503)">
<stop stop-color="#FFB3B3"/>
<stop offset="1" stop-color="#F20000"/>
</radialGradient>
<linearGradient id="paint7_linear_2286_32986" x1="69.719" y1="85.1211" x2="101.277" y2="109.034" gradientUnits="userSpaceOnUse">
<stop stop-color="#F7F9FA"/>
<stop offset="1" stop-color="#DBEBF3"/>
</linearGradient>
<linearGradient id="paint8_linear_2286_32986" x1="62.414" y1="91.8359" x2="68.4592" y2="101.055" gradientUnits="userSpaceOnUse">
<stop stop-color="#75758F"/>
<stop offset="1" stop-color="#575777"/>
</linearGradient>
<linearGradient id="paint9_linear_2286_32986" x1="93.3776" y1="62.2539" x2="93.3776" y2="92.5349" gradientUnits="userSpaceOnUse">
<stop stop-color="#75758F"/>
<stop offset="1" stop-color="#47526A"/>
</linearGradient>
<linearGradient id="paint10_linear_2286_32986" x1="40.1352" y1="75.6703" x2="52.3207" y2="82.62" gradientUnits="userSpaceOnUse">
<stop stop-color="#EFF2F3"/>
<stop offset="1" stop-color="white"/>
</linearGradient>
<radialGradient id="paint11_radial_2286_32986" cx="0" cy="0" r="1" gradientUnits="userSpaceOnUse" gradientTransform="translate(42.3861 76.0519) rotate(-171.262) scale(24.7209)">
<stop offset="0.381" stop-color="#BFCCD1"/>
<stop offset="0.7578" stop-color="white"/>
</radialGradient>
<linearGradient id="paint12_linear_2286_32986" x1="62.7248" y1="51.6158" x2="46.1985" y2="54.6148" gradientUnits="userSpaceOnUse">
<stop stop-color="#FFF668"/>
<stop offset="0.29" stop-color="#FF9C4C"/>
<stop offset="1" stop-color="#880000"/>
</linearGradient>
<radialGradient id="paint13_radial_2286_32986" cx="0" cy="0" r="1" gradientUnits="userSpaceOnUse" gradientTransform="translate(56.2194 55.6131) rotate(169.715) scale(13.22)">
<stop stop-color="white"/>
<stop offset="0.9385" stop-color="#880000"/>
</radialGradient>
</defs>
</svg>
