<svg width="138" height="138" viewBox="0 0 138 138" fill="none" xmlns="http://www.w3.org/2000/svg">
<path d="M137.79 68.895C137.79 106.945 106.945 137.79 68.8955 137.79C30.8458 137.79 0.000488281 106.945 0.000488281 68.895C0.000488281 30.8453 30.8458 0 68.8955 0C106.945 0 137.79 30.8453 137.79 68.895Z" fill="#F0C481"/>
<g filter="url(#filter0_d_1799_29089)">
<path d="M59.6415 54.5498C60.3436 60.3785 64.729 66.0795 69.2259 68.59C72.5256 70.4321 77.8892 72.0987 83.6741 70.1452" stroke="url(#paint0_linear_1799_29089)" stroke-width="7.41207" stroke-linecap="round"/>
<path d="M70.3125 65.8735C69.9248 66.8692 69.4976 68.0902 67.2881 69.9767" stroke="#C7D2D7" stroke-opacity="0.3" stroke-width="1.75007" stroke-linecap="round"/>
<path d="M66.9785 63.8784C66.7534 64.4956 66.511 65.2725 65.0501 65.8266" stroke="#C7D2D7" stroke-opacity="0.3" stroke-width="1.75007" stroke-linecap="round"/>
<path d="M73.0239 67.8882C73.0611 68.4911 73.1383 69.2267 72.2415 70.4876" stroke="#C7D2D7" stroke-opacity="0.3" stroke-width="1.75007" stroke-linecap="round"/>
</g>
<g filter="url(#filter1_d_1799_29089)">
<path d="M54.3463 46.8699C59.4052 46.421 64.1559 49.4085 65.5108 54.3032C68.565 65.3377 71.1347 79.8887 68.8337 84.6502C66.3074 89.8778 59.7978 91.9768 55.5809 92.5698L55.5818 92.5803C55.2926 92.6199 54.9755 92.6546 54.6347 92.6823C54.2943 92.715 53.9761 92.7368 53.6844 92.7487L53.6834 92.7382C49.4281 92.8969 42.6505 91.9768 39.2433 87.2757C36.1399 82.9937 36.1075 68.2176 37.1712 56.8177C37.643 51.7609 41.7935 47.9837 46.8525 47.5348L54.3463 46.8699Z" fill="url(#paint1_linear_1799_29089)"/>
<g filter="url(#filter2_d_1799_29089)">
<rect width="9.79251" height="8.18108" rx="0.926508" transform="matrix(-0.996087 0.0883805 0.0883805 0.996087 58.0315 58.6934)" fill="url(#paint2_linear_1799_29089)"/>
<rect x="0.140166" y="-0.167461" width="10.1013" height="8.48992" rx="1.08093" transform="matrix(-0.996087 0.0883805 0.0883805 0.996087 58.3261 58.6803)" stroke="#EFF2F3" stroke-width="0.308836"/>
</g>
<path d="M52.1724 62.6845L52.1607 62.6855C52.357 62.1714 52.8172 61.7903 53.3829 61.7401C53.7478 61.7077 54.0936 61.8186 54.3694 62.0279L54.3783 62.0271L54.9575 61.9757C54.57 61.5035 53.9782 61.2256 53.3422 61.282C52.3717 61.3681 51.6397 62.2024 51.6183 63.1954L52.8394 63.0869L52.8801 63.5449L51.6587 63.6532L51.6595 63.6567C51.6913 63.8131 51.7404 63.9622 51.8044 64.102L52.9205 64.003L53.0239 65.1687C53.1678 65.2102 53.3182 65.2345 53.4722 65.2395L53.359 63.9642L53.7975 63.9253L53.9107 65.2007C54.0614 65.1687 54.2051 65.1184 54.3394 65.0521L54.236 63.8863L55.3521 63.7872C55.4091 63.5665 55.4301 63.3314 55.4086 63.0898C55.3872 62.8482 55.3252 62.6204 55.2302 62.4132L54.9705 62.4362L52.1724 62.6845V62.6845ZM53.7569 63.4672L53.3185 63.5061L53.2778 63.0481L53.7163 63.0092L53.7569 63.4672ZM54.9742 63.3592L54.1955 63.4283L54.1549 62.9703L54.9336 62.9012C54.951 62.975 54.9635 63.0509 54.9704 63.1288C54.9773 63.2065 54.9784 63.2835 54.9742 63.3592Z" fill="#9FF9FF"/>
<path d="M53.2589 60.3614C51.7273 60.4973 50.6009 61.9042 50.7428 63.5037C50.8847 65.1032 52.2413 66.2898 53.7728 66.1539C55.3044 66.0181 56.4308 64.6111 56.2889 63.0116C56.147 61.4121 54.7904 60.2255 53.2589 60.3614ZM53.7321 65.6952C52.4432 65.8095 51.3015 64.8109 51.1821 63.4647C51.0626 62.1186 52.0107 60.9345 53.2996 60.8202C54.5885 60.7058 55.7302 61.7044 55.8496 63.0506C55.9691 64.3968 55.021 65.5808 53.7321 65.6952Z" fill="#9FF9FF"/>
<g filter="url(#filter3_d_1799_29089)">
<ellipse rx="1.00123" ry="1.71659" transform="matrix(-0.996087 0.0883805 0.0883805 0.996087 63.8695 59.9375)" fill="url(#paint3_radial_1799_29089)"/>
<path d="M64.0349 61.8012C63.682 61.8325 63.3694 61.6143 63.1456 61.2984C62.9192 60.979 62.7622 60.5342 62.7184 60.0397C62.6745 59.5452 62.7507 59.0796 62.9173 58.7253C63.082 58.375 63.3513 58.1051 63.7041 58.0738C64.057 58.0425 64.3696 58.2608 64.5934 58.5766C64.8198 58.896 64.9767 59.3409 65.0206 59.8354C65.0645 60.3299 64.9883 60.7954 64.8217 61.1497C64.657 61.5 64.3877 61.7699 64.0349 61.8012Z" stroke="#EFF2F3" stroke-width="0.308836"/>
</g>
<g filter="url(#filter4_d_1799_29089)">
<ellipse rx="1.00123" ry="1.71659" transform="matrix(-0.996087 0.0883805 0.0883805 0.996087 64.2857 64.6299)" fill="url(#paint4_radial_1799_29089)"/>
<path d="M64.4511 66.4936C64.0983 66.5249 63.7857 66.3066 63.5618 65.9908C63.3355 65.6714 63.1785 65.2265 63.1346 64.732C63.0907 64.2375 63.1669 63.772 63.3335 63.4177C63.4982 63.0674 63.7676 62.7975 64.1204 62.7662C64.4732 62.7349 64.7858 62.9532 65.0097 63.269C65.236 63.5884 65.393 64.0333 65.4369 64.5278C65.4808 65.0223 65.4046 65.4878 65.238 65.8421C65.0733 66.1924 64.8039 66.4623 64.4511 66.4936Z" stroke="#EFF2F3" stroke-width="0.308836"/>
</g>
<path d="M58.6223 88.1134L58.1973 82.9837L68.4567 82.1338L68.8817 87.2635L58.6223 88.1134ZM68.607 109.691C68.2159 112.507 65.6163 114.472 62.8005 114.081C59.9848 113.69 58.0192 111.09 58.4103 108.275L68.607 109.691ZM68.8817 87.2635C69.2652 91.8932 69.5039 103.233 68.607 109.691L58.4103 108.275C59.1585 102.888 58.9772 92.3985 58.6223 88.1134L68.8817 87.2635Z" fill="white"/>
<path d="M39.4172 89.8175L38.9922 84.6878L49.2516 83.8379L49.6766 88.9676L39.4172 89.8175ZM49.4019 111.395C49.0108 114.211 46.4112 116.176 43.5955 115.785C40.7797 115.394 38.8142 112.795 39.2052 109.979L49.4019 111.395ZM49.6766 88.9676C50.0601 93.5973 50.2988 104.937 49.4019 111.395L39.2052 109.979C39.9534 104.593 39.7721 94.1026 39.4172 89.8175L49.6766 88.9676Z" fill="white"/>
<path d="M66.9719 86.3579C62.9947 89.8674 52.3075 95.2348 41.3765 88.6289" stroke="#C7D2D7" stroke-opacity="0.3" stroke-width="1.75007" stroke-linecap="round"/>
<path d="M66.908 94.3579C65.5302 94.8763 63.8904 95.5429 59.755 95.5763" stroke="#C7D2D7" stroke-opacity="0.3" stroke-width="1.75007" stroke-linecap="round"/>
<path d="M48.8708 97.104C47.4289 97.4002 45.7049 97.8019 41.6153 97.1875" stroke="#C7D2D7" stroke-opacity="0.3" stroke-width="1.75007" stroke-linecap="round"/>
<path d="M66.1255 99.4546C65.4618 99.7137 64.6722 100.046 62.6711 100.087" stroke="#C7D2D7" stroke-opacity="0.3" stroke-width="1.75007" stroke-linecap="round"/>
<path d="M46.9534 101.545C46.249 101.653 45.4057 101.804 43.4443 101.405" stroke="#C7D2D7" stroke-opacity="0.3" stroke-width="1.75007" stroke-linecap="round"/>
</g>
<g filter="url(#filter5_d_1799_29089)">
<path d="M54.3679 52.8511C42.0508 52.0615 32.7059 41.4365 33.4955 29.1194C34.2851 16.8023 44.9102 7.45745 57.2273 8.24705C69.5443 9.03666 78.8892 19.6617 78.0996 31.9788C77.31 44.2959 66.6849 53.6407 54.3679 52.8511Z" fill="url(#paint5_radial_1799_29089)"/>
<path d="M69.0764 41.8808C70.1149 42.2161 71.2567 41.8713 71.9244 41.0034C74.1707 38.1018 76.1388 33.0177 75.8784 29.6271C74.8919 16.6053 55.9553 13.2117 51.5992 23.8755C49.5969 28.7932 51.0866 33.5018 51.8408 35.476C52.0842 36.1037 52.6048 36.5999 53.2485 36.8054L69.0764 41.8808Z" fill="url(#paint6_linear_1799_29089)"/>
<g style="mix-blend-mode:multiply">
<path d="M51.4676 23.8523C53.6648 18.4545 59.6016 16.6703 65.0465 17.9002C60.8429 18.0338 66.6604 26.2595 64.9605 30.4202C62.9582 35.3379 54.6941 33.8377 55.4474 35.8268C55.6908 36.4545 56.2114 36.9507 56.8551 37.1562L70.9711 41.6889C70.3674 42.0234 69.6313 42.0957 68.9439 41.8724L53.116 36.797C52.4723 36.5916 51.9517 36.0954 51.7083 35.4677C50.955 33.4786 49.4495 28.7839 51.4676 23.8523Z" fill="url(#paint7_radial_1799_29089)"/>
</g>
<path d="M71.0947 23.9941C71.9667 24.5793 74.8819 29.3631 72.2746 34.1558" stroke="white" stroke-width="2.09864" stroke-linecap="round"/>
</g>
<path fill-rule="evenodd" clip-rule="evenodd" d="M50.7991 108.11C48.0476 108.322 43.3089 108.285 38.7785 107.049C38.1642 106.881 37.5434 107.34 37.5538 107.976L37.7277 118.608C37.7295 118.717 37.7493 118.823 37.7879 118.922C37.7769 119.92 37.7764 122.121 37.8606 123.29C37.946 124.476 39.6852 125.57 40.5441 125.968C41.4413 127.026 44.4313 129.105 49.2134 128.961C53.9956 128.817 55.3412 127.871 55.4163 127.416C55.4226 127.801 55.4245 127.919 55.3819 125.313C55.3538 123.596 52.4348 121.772 49.4899 120.413C49.4934 120.399 49.4966 120.385 49.4995 120.372L51.8377 109.264C51.9699 108.636 51.4394 108.061 50.7991 108.11Z" fill="#282522"/>
<path d="M46.1984 125.413C50.4008 126.636 53.6555 125.829 54.7575 125.273C55.4384 123.999 51.2772 121.216 48.8938 120.738C45.3383 120.024 43.3244 120.535 42.3111 121.582C40.931 123.009 41.9959 124.191 46.1984 125.413Z" fill="url(#paint8_linear_1799_29089)"/>
<path fill-rule="evenodd" clip-rule="evenodd" d="M69.6077 106.441C66.8562 106.653 62.1175 106.616 57.5871 105.38C56.9728 105.212 56.3519 105.671 56.3624 106.307L56.5363 116.939C56.538 117.048 56.5579 117.154 56.5965 117.253C56.5855 118.251 56.585 120.452 56.6692 121.621C56.7546 122.807 58.4938 123.901 59.3527 124.299C60.2499 125.357 63.2399 127.436 68.022 127.292C72.8042 127.148 74.1498 126.202 74.2249 125.747C74.2312 126.132 74.2331 126.25 74.1905 123.644C74.1624 121.927 71.2434 120.103 68.2985 118.744C68.302 118.73 68.3052 118.716 68.3081 118.703L70.6463 107.595C70.7785 106.967 70.248 106.392 69.6077 106.441Z" fill="#282522"/>
<path d="M65.007 123.744C69.2094 124.967 72.464 124.16 73.5661 123.604C74.247 122.33 70.0857 119.547 67.7024 119.069C64.1469 118.355 62.133 118.866 61.1197 119.913C59.7396 121.34 60.8045 122.522 65.007 123.744Z" fill="url(#paint9_linear_1799_29089)"/>
<g filter="url(#filter6_d_1799_29089)">
<path d="M42.1185 54.2122C40.5323 59.8647 42.3969 66.8114 45.5877 70.8541C47.929 73.8206 52.2438 77.4161 58.3356 77.8298" stroke="url(#paint10_linear_1799_29089)" stroke-width="7.41207" stroke-linecap="round"/>
<path d="M47.6323 68.7622C46.8926 69.5332 46.0298 70.4971 43.266 71.3923" stroke="#C7D2D7" stroke-opacity="0.3" stroke-width="1.75007" stroke-linecap="round"/>
<path d="M45.3181 65.6416C44.8736 66.1253 44.3519 66.7499 42.7902 66.7015" stroke="#C7D2D7" stroke-opacity="0.3" stroke-width="1.75007" stroke-linecap="round"/>
<path d="M49.3643 71.6626C49.1674 72.2337 48.9567 72.9427 47.645 73.7634" stroke="#C7D2D7" stroke-opacity="0.3" stroke-width="1.75007" stroke-linecap="round"/>
</g>
<path d="M76.1896 57.476C76.2552 57.2538 76.4235 57.0766 76.6422 56.9998L90.0596 52.2894C90.6139 52.0948 91.1556 52.6096 90.9895 53.1731L83.5961 78.2514C83.5306 78.4736 83.3622 78.6508 83.1436 78.7276L69.7262 83.438C69.1719 83.6326 68.6302 83.1178 68.7963 82.5543L76.1896 57.476Z" fill="url(#paint11_linear_1799_29089)"/>
<path d="M76.6776 56.985C76.4143 57.0774 76.2116 57.2907 76.1328 57.5584L68.8419 82.2888C68.6418 82.9673 69.2941 83.5872 69.9616 83.353L70.2248 83.2606C70.2309 83.2214 70.2397 83.1819 70.2514 83.1422L77.5422 58.4117C77.6211 58.144 77.8238 57.9308 78.0871 57.8384L90.8991 53.3404C90.9962 52.7107 90.3813 52.174 89.7529 52.3947L76.6776 56.985Z" fill="url(#paint12_linear_1799_29089)" fill-opacity="0.5"/>
<g style="mix-blend-mode:multiply">
<path d="M82.1493 56.2939L80.866 55.3899C80.7958 55.3405 80.8134 55.2319 80.8956 55.2072L85.5353 53.8117C85.5643 53.803 85.5957 53.8075 85.621 53.8239L86.9209 54.6678C86.9592 54.6927 86.9766 54.7398 86.9635 54.7836L86.225 57.2572C86.2161 57.287 86.1943 57.3112 86.1656 57.323L81.72 59.1538C81.6427 59.1857 81.5617 59.1169 81.5805 59.0354L82.1903 56.4013C82.1998 56.3605 82.1835 56.318 82.1493 56.2939Z" fill="url(#paint13_linear_1799_29089)"/>
</g>
<path d="M55.0869 80.4756C54.6152 82.5148 56.1364 84.4504 58.2161 84.4575L62.1578 84.4709C62.6408 84.4726 63.1035 84.3678 63.5218 84.1773C73.3709 84.96 76.7657 82.7649 77.5654 80.367C77.743 77.6997 74.4164 78.7975 71.4514 77.5042C71.307 77.4413 71.1645 77.3791 71.0247 77.3176C72.8684 77.4864 73.4709 76.368 72.9341 75.3852C72.4278 74.4585 69.7124 74.5015 66.9746 74.8965C66.6023 74.9856 66.1209 75.1191 65.5885 75.2988C65.2374 74.7763 64.7328 74.3548 64.1156 74.1077L60.7404 72.7562C58.8835 72.0127 56.7879 73.1217 56.3329 75.0886L55.0869 80.4756Z" fill="#282522"/>
<path d="M83.7383 79.2755C81.2945 77.3419 85.5421 72.0759 87.5615 70.183C87.625 70.1234 87.7261 70.1648 87.728 70.2518C87.8029 73.7596 86.197 81.2207 83.7383 79.2755Z" fill="black"/>
<path d="M85.6889 69.1984C87.2326 68.7356 87.9514 69.487 87.7302 70.2581C87.1274 71.2565 85.5858 73.2415 84.2412 73.1942C82.5604 73.135 84.0872 69.6787 85.6889 69.1984Z" fill="black"/>
<g filter="url(#filter7_d_1799_29089)">
<path d="M84.2185 28.0432C81.8492 28.2534 80.0989 30.3445 80.3091 32.7139L81.105 41.6841C81.3152 44.0534 83.4064 45.8037 85.7757 45.5935L87.4206 45.4475L87.7397 49.0433C87.7913 49.6249 88.5203 49.8538 88.8951 49.406L92.4983 45.1012C92.5282 45.0654 92.5534 45.0283 92.5743 44.9902L101.274 44.2183C103.644 44.0081 105.394 41.917 105.184 39.5476L104.388 30.5774C104.178 28.2081 102.086 26.4578 99.7171 26.668L84.2185 28.0432Z" fill="white"/>
<path d="M84.2185 28.0432C81.8492 28.2534 80.0989 30.3445 80.3091 32.7139L81.105 41.6841C81.3152 44.0534 83.4064 45.8037 85.7757 45.5935L87.4206 45.4475L87.7397 49.0433C87.7913 49.6249 88.5203 49.8538 88.8951 49.406L92.4983 45.1012C92.5282 45.0654 92.5534 45.0283 92.5743 44.9902L101.274 44.2183C103.644 44.0081 105.394 41.917 105.184 39.5476L104.388 30.5774C104.178 28.2081 102.086 26.4578 99.7171 26.668L84.2185 28.0432Z" stroke="#FFA318" stroke-width="0.823563"/>
</g>
<path d="M95.5116 32.602C95.5116 32.602 95.5116 32.602 95.5116 32.602Z" fill="#FBD397"/>
<path d="M96.6763 33.5689L92.8073 39.3945C92.7507 39.4665 92.6803 39.5266 92.6002 39.5713C92.5188 39.6167 92.4291 39.6453 92.3365 39.6552C92.2438 39.6652 92.1501 39.6563 92.061 39.6293C91.9718 39.6022 91.889 39.5574 91.8176 39.4976L88.6787 36.8692L88.6752 36.8664C88.6017 36.8093 88.5406 36.7379 88.4953 36.6565C88.4501 36.5752 88.4217 36.4856 88.4118 36.393C88.402 36.3005 88.4108 36.2069 88.4379 36.1178C88.465 36.0288 88.5098 35.9461 88.5695 35.8747C88.6293 35.8034 88.7028 35.7448 88.7856 35.7024C88.8685 35.6601 88.9591 35.6348 89.0519 35.6282C89.1448 35.6217 89.238 35.6338 89.326 35.6641C89.4141 35.6943 89.4951 35.742 89.5643 35.8042L92.1629 37.9782L95.5986 32.6992C95.6015 32.6948 95.6048 32.6905 95.6083 32.6865L95.6356 32.6548C95.751 32.5336 95.9068 32.4578 96.0744 32.4425C96.2558 32.4259 96.4364 32.4814 96.5772 32.5968C96.718 32.7123 96.8077 32.8786 96.8268 33.0597C96.846 33.2408 96.7932 33.4222 96.6797 33.5646L96.6763 33.5689Z" fill="#FBD397"/>
<g filter="url(#filter8_f_1799_29089)">
<path d="M82.698 128.242C82.698 129.481 70.9012 130.485 56.3492 130.485C41.7972 130.485 30.0005 129.481 30.0005 128.242C30.0005 127.004 41.7972 126 56.3492 126C70.9012 126 82.698 127.004 82.698 128.242Z" fill="url(#paint14_radial_1799_29089)" fill-opacity="0.5"/>
</g>
<defs>
<filter id="filter0_d_1799_29089" x="52.9364" y="49.6187" width="37.3953" height="27.7996" filterUnits="userSpaceOnUse" color-interpolation-filters="sRGB">
<feFlood flood-opacity="0" result="BackgroundImageFix"/>
<feColorMatrix in="SourceAlpha" type="matrix" values="0 0 0 0 0 0 0 0 0 0 0 0 0 0 0 0 0 0 127 0" result="hardAlpha"/>
<feOffset dy="0.411782"/>
<feGaussianBlur stdDeviation="0.205891"/>
<feComposite in2="hardAlpha" operator="out"/>
<feColorMatrix type="matrix" values="0 0 0 0 0 0 0 0 0 0 0 0 0 0 0 0 0 0 0.25 0"/>
<feBlend mode="normal" in2="BackgroundImageFix" result="effect1_dropShadow_1799_29089"/>
<feBlend mode="normal" in="SourceGraphic" in2="effect1_dropShadow_1799_29089" result="shape"/>
</filter>
<filter id="filter1_d_1799_29089" x="32.161" y="45.7451" width="41.3629" height="72.5296" filterUnits="userSpaceOnUse" color-interpolation-filters="sRGB">
<feFlood flood-opacity="0" result="BackgroundImageFix"/>
<feColorMatrix in="SourceAlpha" type="matrix" values="0 0 0 0 0 0 0 0 0 0 0 0 0 0 0 0 0 0 127 0" result="hardAlpha"/>
<feOffset dy="0.411782"/>
<feGaussianBlur stdDeviation="0.205891"/>
<feComposite in2="hardAlpha" operator="out"/>
<feColorMatrix type="matrix" values="0 0 0 0 0 0 0 0 0 0 0 0 0 0 0 0 0 0 0.25 0"/>
<feBlend mode="normal" in2="BackgroundImageFix" result="effect1_dropShadow_1799_29089"/>
<feBlend mode="normal" in="SourceGraphic" in2="effect1_dropShadow_1799_29089" result="shape"/>
</filter>
<filter id="filter2_d_1799_29089" x="47.6348" y="58.4629" width="11.762" height="10.2991" filterUnits="userSpaceOnUse" color-interpolation-filters="sRGB">
<feFlood flood-opacity="0" result="BackgroundImageFix"/>
<feColorMatrix in="SourceAlpha" type="matrix" values="0 0 0 0 0 0 0 0 0 0 0 0 0 0 0 0 0 0 127 0" result="hardAlpha"/>
<feOffset dy="0.411782"/>
<feGaussianBlur stdDeviation="0.205891"/>
<feComposite in2="hardAlpha" operator="out"/>
<feColorMatrix type="matrix" values="0 0 0 0 0 0 0 0 0 0 0 0 0 0 0 0 0 0 0.25 0"/>
<feBlend mode="normal" in2="BackgroundImageFix" result="effect1_dropShadow_1799_29089"/>
<feBlend mode="normal" in="SourceGraphic" in2="effect1_dropShadow_1799_29089" result="shape"/>
</filter>
<filter id="filter3_d_1799_29089" x="62.14" y="57.9165" width="3.45906" height="4.86556" filterUnits="userSpaceOnUse" color-interpolation-filters="sRGB">
<feFlood flood-opacity="0" result="BackgroundImageFix"/>
<feColorMatrix in="SourceAlpha" type="matrix" values="0 0 0 0 0 0 0 0 0 0 0 0 0 0 0 0 0 0 127 0" result="hardAlpha"/>
<feOffset dy="0.411782"/>
<feGaussianBlur stdDeviation="0.205891"/>
<feComposite in2="hardAlpha" operator="out"/>
<feColorMatrix type="matrix" values="0 0 0 0 0 0 0 0 0 0 0 0 0 0 0 0 0 0 0.25 0"/>
<feBlend mode="normal" in2="BackgroundImageFix" result="effect1_dropShadow_1799_29089"/>
<feBlend mode="normal" in="SourceGraphic" in2="effect1_dropShadow_1799_29089" result="shape"/>
</filter>
<filter id="filter4_d_1799_29089" x="62.5562" y="62.6089" width="3.45906" height="4.86556" filterUnits="userSpaceOnUse" color-interpolation-filters="sRGB">
<feFlood flood-opacity="0" result="BackgroundImageFix"/>
<feColorMatrix in="SourceAlpha" type="matrix" values="0 0 0 0 0 0 0 0 0 0 0 0 0 0 0 0 0 0 127 0" result="hardAlpha"/>
<feOffset dy="0.411782"/>
<feGaussianBlur stdDeviation="0.205891"/>
<feComposite in2="hardAlpha" operator="out"/>
<feColorMatrix type="matrix" values="0 0 0 0 0 0 0 0 0 0 0 0 0 0 0 0 0 0 0.25 0"/>
<feBlend mode="normal" in2="BackgroundImageFix" result="effect1_dropShadow_1799_29089"/>
<feBlend mode="normal" in="SourceGraphic" in2="effect1_dropShadow_1799_29089" result="shape"/>
</filter>
<filter id="filter5_d_1799_29089" x="24.1614" y="-2.08691" width="63.2722" height="63.2725" filterUnits="userSpaceOnUse" color-interpolation-filters="sRGB">
<feFlood flood-opacity="0" result="BackgroundImageFix"/>
<feColorMatrix in="SourceAlpha" type="matrix" values="0 0 0 0 0 0 0 0 0 0 0 0 0 0 0 0 0 0 127 0" result="hardAlpha"/>
<feOffset dy="-1"/>
<feGaussianBlur stdDeviation="2"/>
<feComposite in2="hardAlpha" operator="out"/>
<feColorMatrix type="matrix" values="0 0 0 0 0.0928125 0 0 0 0 0.3375 0 0 0 0 0.249412 0 0 0 0.3 0"/>
<feBlend mode="normal" in2="BackgroundImageFix" result="effect1_dropShadow_1799_29089"/>
<feBlend mode="normal" in="SourceGraphic" in2="effect1_dropShadow_1799_29089" result="shape"/>
</filter>
<filter id="filter6_d_1799_29089" x="28.7017" y="48.1152" width="42.4241" height="38.0199" filterUnits="userSpaceOnUse" color-interpolation-filters="sRGB">
<feFlood flood-opacity="0" result="BackgroundImageFix"/>
<feColorMatrix in="SourceAlpha" type="matrix" values="0 0 0 0 0 0 0 0 0 0 0 0 0 0 0 0 0 0 127 0" result="hardAlpha"/>
<feOffset dy="0.411782"/>
<feGaussianBlur stdDeviation="0.205891"/>
<feComposite in2="hardAlpha" operator="out"/>
<feColorMatrix type="matrix" values="0 0 0 0 0 0 0 0 0 0 0 0 0 0 0 0 0 0 0.25 0"/>
<feBlend mode="normal" in2="BackgroundImageFix" result="effect1_dropShadow_1799_29089"/>
<feBlend mode="normal" in="SourceGraphic" in2="effect1_dropShadow_1799_29089" result="shape"/>
</filter>
<filter id="filter7_d_1799_29089" x="79.4683" y="26.2393" width="26.556" height="24.6385" filterUnits="userSpaceOnUse" color-interpolation-filters="sRGB">
<feFlood flood-opacity="0" result="BackgroundImageFix"/>
<feColorMatrix in="SourceAlpha" type="matrix" values="0 0 0 0 0 0 0 0 0 0 0 0 0 0 0 0 0 0 127 0" result="hardAlpha"/>
<feOffset dy="0.411782"/>
<feGaussianBlur stdDeviation="0.205891"/>
<feComposite in2="hardAlpha" operator="out"/>
<feColorMatrix type="matrix" values="0 0 0 0 0 0 0 0 0 0 0 0 0 0 0 0 0 0 0.25 0"/>
<feBlend mode="normal" in2="BackgroundImageFix" result="effect1_dropShadow_1799_29089"/>
<feBlend mode="normal" in="SourceGraphic" in2="effect1_dropShadow_1799_29089" result="shape"/>
</filter>
<filter id="filter8_f_1799_29089" x="29.5132" y="125.513" width="53.6721" height="5.45948" filterUnits="userSpaceOnUse" color-interpolation-filters="sRGB">
<feFlood flood-opacity="0" result="BackgroundImageFix"/>
<feBlend mode="normal" in="SourceGraphic" in2="BackgroundImageFix" result="shape"/>
<feGaussianBlur stdDeviation="0.243654" result="effect1_foregroundBlur_1799_29089"/>
</filter>
<linearGradient id="paint0_linear_1799_29089" x1="58.8471" y1="62.5565" x2="80.2108" y2="64.6026" gradientUnits="userSpaceOnUse">
<stop stop-color="#EFF2F3"/>
<stop offset="1" stop-color="white"/>
</linearGradient>
<linearGradient id="paint1_linear_1799_29089" x1="50.5994" y1="47.2024" x2="54.6347" y2="92.6828" gradientUnits="userSpaceOnUse">
<stop stop-color="#E3E9EB"/>
<stop offset="0.56737" stop-color="white"/>
</linearGradient>
<linearGradient id="paint2_linear_1799_29089" x1="4.89625" y1="-10.4395" x2="4.89625" y2="8.18108" gradientUnits="userSpaceOnUse">
<stop stop-color="#50D5FF"/>
<stop offset="1" stop-color="#2C3585"/>
</linearGradient>
<radialGradient id="paint3_radial_1799_29089" cx="0" cy="0" r="1" gradientUnits="userSpaceOnUse" gradientTransform="translate(1.00123 1.71659) rotate(90) scale(2.50148 1.45903)">
<stop stop-color="#51E0FF"/>
<stop offset="1" stop-color="#4E7CB4"/>
</radialGradient>
<radialGradient id="paint4_radial_1799_29089" cx="0" cy="0" r="1" gradientUnits="userSpaceOnUse" gradientTransform="translate(1.00123 1.71659) rotate(90) scale(2.50148 1.45903)">
<stop stop-color="#FFB3B3"/>
<stop offset="1" stop-color="#F20000"/>
</radialGradient>
<radialGradient id="paint5_radial_1799_29089" cx="0" cy="0" r="1" gradientUnits="userSpaceOnUse" gradientTransform="translate(46.5809 59.9965) rotate(-176.332) scale(37.3621)">
<stop offset="0.381" stop-color="#BFCCD1"/>
<stop offset="0.7578" stop-color="white"/>
</radialGradient>
<linearGradient id="paint6_linear_1799_29089" x1="75.9018" y1="30.4013" x2="50.5687" y2="28.7773" gradientUnits="userSpaceOnUse">
<stop stop-color="#FFF668"/>
<stop offset="0.29" stop-color="#FF9C4C"/>
<stop offset="1" stop-color="#880000"/>
</linearGradient>
<radialGradient id="paint7_radial_1799_29089" cx="0" cy="0" r="1" gradientUnits="userSpaceOnUse" gradientTransform="translate(64.9028 33.895) rotate(-176.332) scale(19.98)">
<stop stop-color="white"/>
<stop offset="0.9385" stop-color="#880000"/>
</radialGradient>
<linearGradient id="paint8_linear_1799_29089" x1="49.0037" y1="118.877" x2="46.9172" y2="124.314" gradientUnits="userSpaceOnUse">
<stop stop-color="#504A44"/>
<stop offset="1" stop-color="#504A44" stop-opacity="0"/>
</linearGradient>
<linearGradient id="paint9_linear_1799_29089" x1="67.8123" y1="117.208" x2="65.7258" y2="122.645" gradientUnits="userSpaceOnUse">
<stop stop-color="#504A44"/>
<stop offset="1" stop-color="#504A44" stop-opacity="0"/>
</linearGradient>
<linearGradient id="paint10_linear_1799_29089" x1="38.3152" y1="61.3026" x2="57.2619" y2="71.3829" gradientUnits="userSpaceOnUse">
<stop stop-color="#EFF2F3"/>
<stop offset="1" stop-color="white"/>
</linearGradient>
<linearGradient id="paint11_linear_1799_29089" x1="76.052" y1="92.5807" x2="83.2038" y2="46.5345" gradientUnits="userSpaceOnUse">
<stop stop-color="#1E2236"/>
<stop offset="1" stop-color="#CECECE"/>
</linearGradient>
<linearGradient id="paint12_linear_1799_29089" x1="79.6802" y1="80.4422" x2="85.1027" y2="51.3663" gradientUnits="userSpaceOnUse">
<stop stop-color="#DFDFDF"/>
<stop offset="0.879412" stop-color="#F0F3F4"/>
<stop offset="1" stop-color="white"/>
</linearGradient>
<linearGradient id="paint13_linear_1799_29089" x1="83.748" y1="53.9606" x2="84.1946" y2="58.9939" gradientUnits="userSpaceOnUse">
<stop stop-color="#1E2236"/>
<stop offset="1" stop-color="#1E2236" stop-opacity="0.35"/>
</linearGradient>
<radialGradient id="paint14_radial_1799_29089" cx="0" cy="0" r="1" gradientUnits="userSpaceOnUse" gradientTransform="translate(56.3492 128.242) rotate(90) scale(2.24245 26.3487)">
<stop stop-color="#021B51"/>
<stop offset="1" stop-color="#75758F" stop-opacity="0"/>
</radialGradient>
</defs>
</svg>
