<svg width="138" height="139" viewBox="0 0 138 139" fill="none" xmlns="http://www.w3.org/2000/svg">
<path d="M137.79 69.7178C137.79 107.767 106.945 138.613 68.895 138.613C30.8453 138.613 0 107.767 0 69.7178C0 31.6681 30.8453 0.822754 68.895 0.822754C106.945 0.822754 137.79 31.6681 137.79 69.7178Z" fill="#4E54FF"/>
<g filter="url(#filter0_d_335_10505)">
<path d="M59.6415 55.3728C60.3436 61.2015 64.729 66.9025 69.2258 69.4129C72.5256 71.2551 77.8891 72.9217 83.674 70.9682" stroke="url(#paint0_linear_335_10505)" stroke-width="7.41207" stroke-linecap="round"/>
<path d="M70.3124 66.6968C69.9247 67.6924 69.4975 68.9135 67.288 70.7999" stroke="#C7D2D7" stroke-opacity="0.3" stroke-width="1.75007" stroke-linecap="round"/>
<path d="M66.9784 64.7017C66.7533 65.3188 66.511 66.0957 65.05 66.6498" stroke="#C7D2D7" stroke-opacity="0.3" stroke-width="1.75007" stroke-linecap="round"/>
<path d="M73.0237 68.7112C73.0608 69.3141 73.138 70.0497 72.2413 71.3106" stroke="#C7D2D7" stroke-opacity="0.3" stroke-width="1.75007" stroke-linecap="round"/>
</g>
<g filter="url(#filter1_d_335_10505)">
<path d="M54.3457 47.6924C59.4046 47.2435 64.1554 50.231 65.5102 55.1257C68.5644 66.1602 71.1341 80.7113 68.8331 85.4727C66.3068 90.7003 59.7972 92.7993 55.5803 93.3923L55.5813 93.4028C55.292 93.4424 54.9749 93.4771 54.6341 93.5048C54.2937 93.5375 53.9755 93.5593 53.6838 93.5712L53.6829 93.5607C49.4275 93.7194 42.65 92.7994 39.2427 88.0982C36.1393 83.8163 36.1069 69.0401 37.1706 57.6402C37.6424 52.5834 41.7929 48.8062 46.8519 48.3573L54.3457 47.6924Z" fill="url(#paint1_linear_335_10505)"/>
<g filter="url(#filter2_d_335_10505)">
<rect width="9.79251" height="8.18108" rx="0.926508" transform="matrix(-0.996087 0.0883805 0.0883805 0.996087 58.0309 59.5159)" fill="url(#paint2_linear_335_10505)"/>
<rect x="0.140166" y="-0.167461" width="10.1013" height="8.48992" rx="1.08093" transform="matrix(-0.996087 0.0883805 0.0883805 0.996087 58.3255 59.5028)" stroke="#EFF2F3" stroke-width="0.308836"/>
</g>
<path d="M52.1717 63.5068L52.16 63.5078C52.3563 62.9937 52.8165 62.6125 53.3822 62.5623C53.7471 62.53 54.093 62.6408 54.3687 62.8502L54.3776 62.8494L54.9568 62.798C54.5693 62.3258 53.9775 62.0478 53.3416 62.1043C52.371 62.1904 51.6391 63.0247 51.6176 64.0176L52.8387 63.9092L52.8794 64.3671L51.6581 64.4755L51.6589 64.479C51.6906 64.6354 51.7397 64.7844 51.8037 64.9243L52.9198 64.8252L53.0233 65.991C53.1672 66.0325 53.3175 66.0568 53.4715 66.0617L53.3583 64.7864L53.7968 64.7475L53.91 66.0229C54.0607 65.991 54.2044 65.9407 54.3387 65.8744L54.2353 64.7085L55.3514 64.6095C55.4084 64.3888 55.4294 64.1536 55.408 63.912C55.3865 63.6705 55.3245 63.4427 55.2295 63.2355L54.9698 63.2585L52.1717 63.5068ZM53.7563 64.2894L53.3178 64.3283L53.2771 63.8704L53.7156 63.8315L53.7563 64.2894ZM54.9735 64.1814L54.1948 64.2505L54.1542 63.7926L54.9329 63.7235C54.9504 63.7972 54.9628 63.8732 54.9697 63.951C54.9766 64.0288 54.9777 64.1057 54.9735 64.1814Z" fill="#9FF9FF"/>
<path d="M53.2583 61.1839C51.7267 61.3198 50.6003 62.7267 50.7422 64.3262C50.8841 65.9257 52.2407 67.1123 53.7722 66.9765C55.3038 66.8406 56.4302 65.4336 56.2883 63.8341C56.1464 62.2346 54.7898 61.048 53.2583 61.1839ZM53.7315 66.5177C52.4426 66.632 51.3009 65.6334 51.1815 64.2872C51.062 62.9411 52.0101 61.757 53.299 61.6427C54.5879 61.5283 55.7296 62.5269 55.849 63.8731C55.9685 65.2193 55.0204 66.4033 53.7315 66.5177Z" fill="#9FF9FF"/>
<g filter="url(#filter3_d_335_10505)">
<ellipse rx="1.00123" ry="1.71659" transform="matrix(-0.996087 0.0883805 0.0883805 0.996087 63.8689 60.7603)" fill="url(#paint3_radial_335_10505)"/>
<path d="M64.0342 62.624C63.6814 62.6553 63.3688 62.437 63.1449 62.1212C62.9186 61.8018 62.7616 61.3569 62.7177 60.8624C62.6739 60.3679 62.7501 59.9024 62.9166 59.5481C63.0814 59.1978 63.3507 58.9279 63.7035 58.8966C64.0563 58.8653 64.369 59.0835 64.5928 59.3994C64.8191 59.7188 64.9761 60.1636 65.02 60.6581C65.0639 61.1526 64.9877 61.6182 64.8211 61.9725C64.6564 62.3228 64.387 62.5926 64.0342 62.624Z" stroke="#EFF2F3" stroke-width="0.308836"/>
</g>
<g filter="url(#filter4_d_335_10505)">
<ellipse rx="1.00123" ry="1.71659" transform="matrix(-0.996087 0.0883805 0.0883805 0.996087 64.2852 65.4524)" fill="url(#paint4_radial_335_10505)"/>
<path d="M64.4506 67.3161C64.0977 67.3474 63.7851 67.1292 63.5613 66.8133C63.3349 66.4939 63.1779 66.049 63.1341 65.5545C63.0902 65.06 63.1664 64.5945 63.333 64.2402C63.4977 63.8899 63.767 63.62 64.1198 63.5887C64.4727 63.5574 64.7853 63.7757 65.0091 64.0915C65.2355 64.4109 65.3924 64.8558 65.4363 65.3503C65.4802 65.8448 65.404 66.3103 65.2374 66.6646C65.0727 67.0149 64.8034 67.2848 64.4506 67.3161Z" stroke="#EFF2F3" stroke-width="0.308836"/>
</g>
<path d="M58.6216 88.9362L58.1967 83.8065L68.4561 82.9566L68.881 88.0863L58.6216 88.9362ZM68.6064 110.514C68.2153 113.329 65.6157 115.295 62.7999 114.904C59.9842 114.513 58.0186 111.913 58.4097 109.098L68.6064 110.514ZM68.881 88.0863C69.2646 92.7159 69.5033 104.056 68.6064 110.514L58.4097 109.098C59.1579 103.711 58.9766 93.2212 58.6216 88.9362L68.881 88.0863Z" fill="white"/>
<path d="M39.4165 90.6403L38.9916 85.5106L49.2509 84.6607L49.6759 89.7904L39.4165 90.6403ZM49.4012 112.218C49.0101 115.034 46.4105 116.999 43.5948 116.608C40.779 116.217 38.8135 113.617 39.2046 110.802L49.4012 112.218ZM49.6759 89.7904C50.0594 94.42 50.2981 105.76 49.4012 112.218L39.2046 110.802C39.9527 105.415 39.7714 94.9253 39.4165 90.6403L49.6759 89.7904Z" fill="white"/>
<path d="M66.9714 87.1804C62.9942 90.6899 52.307 96.0573 41.376 89.4514" stroke="#C7D2D7" stroke-opacity="0.3" stroke-width="1.75007" stroke-linecap="round"/>
<path d="M66.9073 95.1809C65.5296 95.6992 63.8897 96.3659 59.7543 96.3993" stroke="#C7D2D7" stroke-opacity="0.3" stroke-width="1.75007" stroke-linecap="round"/>
<path d="M48.8702 97.9265C47.4283 98.2228 45.7043 98.6245 41.6147 98.01" stroke="#C7D2D7" stroke-opacity="0.3" stroke-width="1.75007" stroke-linecap="round"/>
<path d="M66.1249 100.277C65.4613 100.536 64.6717 100.869 62.6705 100.91" stroke="#C7D2D7" stroke-opacity="0.3" stroke-width="1.75007" stroke-linecap="round"/>
<path d="M46.9528 102.368C46.2484 102.475 45.4051 102.626 43.4437 102.227" stroke="#C7D2D7" stroke-opacity="0.3" stroke-width="1.75007" stroke-linecap="round"/>
</g>
<g filter="url(#filter5_d_335_10505)">
<path d="M54.3678 53.6739C42.0507 52.8843 32.7058 42.2592 33.4955 29.9421C34.2851 17.6251 44.9101 8.2802 57.2272 9.06981C69.5443 9.85941 78.8891 20.4845 78.0995 32.8015C77.3099 45.1186 66.6848 54.4635 54.3678 53.6739Z" fill="url(#paint5_radial_335_10505)"/>
<path d="M69.0763 42.7038C70.1148 43.0391 71.2566 42.6942 71.9243 41.8264C74.1706 38.9248 76.1387 33.8407 75.8783 30.4501C74.8917 17.4283 55.9552 14.0347 51.599 24.6985C49.5968 29.6162 51.0864 34.3248 51.8407 36.299C52.0841 36.9267 52.6047 37.4229 53.2484 37.6284L69.0763 42.7038Z" fill="url(#paint6_linear_335_10505)"/>
<g style="mix-blend-mode:multiply">
<path d="M51.4676 24.6753C53.6648 19.2775 59.6016 17.4933 65.0465 18.7232C60.8428 18.8568 66.6604 27.0825 64.9605 31.2432C62.9582 36.1609 54.6941 34.6607 55.4474 36.6498C55.6908 37.2775 56.2114 37.7737 56.8551 37.9792L70.9711 42.5119C70.3674 42.8464 69.6313 42.9187 68.9439 42.6954L53.116 37.62C52.4723 37.4146 51.9517 36.9184 51.7083 36.2907C50.955 34.3016 49.4495 29.6069 51.4676 24.6753Z" fill="url(#paint7_radial_335_10505)"/>
</g>
<path d="M71.0945 24.8169C71.9665 25.4021 74.8817 30.1858 72.2744 34.9786" stroke="white" stroke-width="2.09864" stroke-linecap="round"/>
</g>
<path fill-rule="evenodd" clip-rule="evenodd" d="M50.7992 108.933C48.0477 109.145 43.309 109.108 38.7786 107.872C38.1643 107.704 37.5435 108.162 37.5539 108.799L37.7278 119.431C37.7296 119.54 37.7494 119.646 37.788 119.745C37.777 120.743 37.7766 122.944 37.8607 124.113C37.9461 125.299 39.6853 126.392 40.5442 126.791C41.4414 127.849 44.4314 129.928 49.2136 129.784C53.9957 129.64 55.3413 128.694 55.4164 128.239C55.4227 128.624 55.4246 128.742 55.382 126.136C55.3539 124.419 52.4349 122.595 49.49 121.235C49.4935 121.222 49.4967 121.208 49.4996 121.194L51.8378 110.087C51.9701 109.459 51.4395 108.884 50.7992 108.933Z" fill="#282522"/>
<path d="M46.1982 126.236C50.4007 127.459 53.6553 126.652 54.7573 126.096C55.4382 124.822 51.277 122.039 48.8937 121.561C45.3381 120.847 43.3243 121.358 42.311 122.405C40.9308 123.832 41.9958 125.014 46.1982 126.236Z" fill="url(#paint8_linear_335_10505)"/>
<path fill-rule="evenodd" clip-rule="evenodd" d="M69.6077 107.264C66.8562 107.476 62.1175 107.439 57.5871 106.203C56.9728 106.035 56.3519 106.493 56.3624 107.13L56.5363 117.762C56.538 117.871 56.5579 117.977 56.5965 118.076C56.5854 119.074 56.585 121.275 56.6692 122.444C56.7546 123.63 58.4938 124.724 59.3527 125.122C60.2499 126.18 63.2399 128.259 68.022 128.115C72.8042 127.971 74.1498 127.025 74.2249 126.57C74.2312 126.955 74.2331 127.073 74.1905 124.467C74.1624 122.75 71.2434 120.926 68.2985 119.567C68.302 119.553 68.3052 119.539 68.3081 119.525L70.6462 108.418C70.7785 107.79 70.248 107.215 69.6077 107.264Z" fill="#282522"/>
<path d="M65.0067 124.567C69.2092 125.79 72.4638 124.983 73.5658 124.427C74.2467 123.153 70.0855 120.37 67.7022 119.892C64.1466 119.178 62.1328 119.689 61.1195 120.736C59.7393 122.163 60.8043 123.345 65.0067 124.567Z" fill="url(#paint9_linear_335_10505)"/>
<g filter="url(#filter6_d_335_10505)">
<path d="M42.1183 55.0352C40.5321 60.6877 42.3967 67.6344 45.5874 71.6771C47.9288 74.6436 52.2435 78.2391 58.3353 78.6528" stroke="url(#paint10_linear_335_10505)" stroke-width="7.41207" stroke-linecap="round"/>
<path d="M47.6323 69.585C46.8925 70.3559 46.0298 71.3199 43.2659 72.215" stroke="#C7D2D7" stroke-opacity="0.3" stroke-width="1.75007" stroke-linecap="round"/>
<path d="M45.318 66.4641C44.8735 66.9478 44.3518 67.5724 42.7901 67.524" stroke="#C7D2D7" stroke-opacity="0.3" stroke-width="1.75007" stroke-linecap="round"/>
<path d="M49.364 72.4851C49.1672 73.0562 48.9565 73.7652 47.6448 74.586" stroke="#C7D2D7" stroke-opacity="0.3" stroke-width="1.75007" stroke-linecap="round"/>
</g>
<path d="M76.1891 58.2988C76.2546 58.0765 76.423 57.8993 76.6416 57.8226L90.059 53.1122C90.6133 52.9176 91.1551 53.4324 90.9889 53.9959L83.5956 79.0741C83.5301 79.2964 83.3617 79.4736 83.1431 79.5503L69.7257 84.2607C69.1714 84.4553 68.6296 83.9405 68.7958 83.377L76.1891 58.2988Z" fill="url(#paint11_linear_335_10505)"/>
<path d="M76.6771 57.8075C76.4138 57.8999 76.2111 58.1132 76.1322 58.3809L68.8414 83.1113C68.6413 83.7898 69.2936 84.4097 69.961 84.1755L70.2243 84.0831C70.2303 84.0439 70.2392 84.0044 70.2509 83.9647L77.5417 59.2342C77.6205 58.9665 77.8233 58.7533 78.0866 58.6609L90.8986 54.1629C90.9957 53.5332 90.3808 52.9965 89.7524 53.2172L76.6771 57.8075Z" fill="url(#paint12_linear_335_10505)" fill-opacity="0.5"/>
<g style="mix-blend-mode:multiply">
<path d="M82.1488 57.1169L80.8654 56.2129C80.7953 56.1635 80.8129 56.0549 80.8951 56.0302L85.5348 54.6347C85.5638 54.626 85.5951 54.6305 85.6205 54.6469L86.9204 55.4908C86.9587 55.5157 86.976 55.5628 86.963 55.6066L86.2245 58.0802C86.2156 58.11 86.1937 58.1341 86.165 58.146L81.7195 59.9768C81.6422 60.0087 81.5611 59.9399 81.58 59.8584L82.1898 57.2243C82.1992 57.1835 82.183 57.141 82.1488 57.1169Z" fill="url(#paint13_linear_335_10505)"/>
</g>
<path d="M55.0868 81.2981C54.6151 83.3373 56.1362 85.273 58.216 85.28L62.1577 85.2934C62.6407 85.2951 63.1034 85.1903 63.5217 84.9998C73.3707 85.7825 76.7655 83.5874 77.5652 81.1895C77.7429 78.5222 74.4163 79.6201 71.4513 78.3268C71.3069 78.2638 71.1644 78.2016 71.0245 78.1401C72.8683 78.3089 73.4708 77.1905 72.934 76.2077C72.4277 75.281 69.7123 75.324 66.9745 75.719C66.6021 75.8081 66.1208 75.9416 65.5884 76.1213C65.2373 75.5988 64.7327 75.1773 64.1155 74.9302L60.7402 73.5788C58.8834 72.8353 56.7878 73.9442 56.3328 75.9111L55.0868 81.2981Z" fill="#282522"/>
<path d="M83.7378 80.098C81.2939 78.1644 85.5416 72.8984 87.5609 71.0055C87.6244 70.9459 87.7256 70.9873 87.7274 71.0743C87.8023 74.5821 86.1965 82.0432 83.7378 80.098Z" fill="black"/>
<path d="M85.6884 70.0212C87.2321 69.5584 87.9509 70.3098 87.7296 71.0808C87.1269 72.0793 85.5853 74.0643 84.2406 74.0169C82.5598 73.9578 84.0866 70.5014 85.6884 70.0212Z" fill="black"/>
<g filter="url(#filter7_d_335_10505)">
<path d="M84.218 28.8659C81.8486 29.0762 80.0984 31.1673 80.3086 33.5366L81.1045 42.5068C81.3147 44.8762 83.4058 46.6265 85.7752 46.4162L87.4201 46.2703L87.7391 49.866C87.7907 50.4476 88.5198 50.6765 88.8945 50.2288L92.4977 45.9239C92.5276 45.8882 92.5529 45.8511 92.5738 45.813L101.274 45.0411C103.643 44.8308 105.393 42.7397 105.183 40.3704L104.387 31.4002C104.177 29.0308 102.086 27.2806 99.7166 27.4908L84.218 28.8659Z" fill="white"/>
<path d="M84.218 28.8659C81.8486 29.0762 80.0984 31.1673 80.3086 33.5366L81.1045 42.5068C81.3147 44.8762 83.4058 46.6265 85.7752 46.4162L87.4201 46.2703L87.7391 49.866C87.7907 50.4476 88.5198 50.6765 88.8945 50.2288L92.4977 45.9239C92.5276 45.8882 92.5529 45.8511 92.5738 45.813L101.274 45.0411C103.643 44.8308 105.393 42.7397 105.183 40.3704L104.387 31.4002C104.177 29.0308 102.086 27.2806 99.7166 27.4908L84.218 28.8659Z" stroke="#141CCB" stroke-width="0.823563"/>
</g>
<path d="M95.5114 33.4245C95.5114 33.4246 95.5114 33.4245 95.5114 33.4245V33.4245Z" fill="#7A7FFF"/>
<path d="M96.6761 34.3914L92.8071 40.217C92.7505 40.289 92.6801 40.3492 92.6 40.3938C92.5187 40.4392 92.429 40.4678 92.3363 40.4777C92.2437 40.4877 92.15 40.4789 92.0608 40.4518C91.9716 40.4247 91.8889 40.3799 91.8174 40.3201L88.6786 37.6917L88.675 37.689C88.6016 37.6318 88.5404 37.5604 88.4952 37.479C88.4499 37.3977 88.4215 37.3081 88.4116 37.2155C88.4018 37.123 88.4107 37.0294 88.4378 36.9403C88.4649 36.8513 88.5096 36.7686 88.5694 36.6972C88.6291 36.6259 88.7026 36.5673 88.7855 36.5249C88.8684 36.4826 88.9589 36.4573 89.0518 36.4508C89.1446 36.4442 89.2378 36.4563 89.3259 36.4866C89.4139 36.5168 89.4949 36.5645 89.5641 36.6267L92.1628 38.8007L95.5984 33.5217C95.6014 33.5173 95.6046 33.513 95.6081 33.509L95.6354 33.4773C95.7508 33.3561 95.9067 33.2804 96.0743 33.265C96.2556 33.2484 96.4362 33.3039 96.577 33.4194C96.7178 33.5349 96.8075 33.7011 96.8267 33.8822C96.8459 34.0633 96.793 34.2447 96.6795 34.3871L96.6761 34.3914Z" fill="#7A7FFF"/>
<g filter="url(#filter8_f_335_10505)">
<path d="M82.6975 129.065C82.6975 130.304 70.9007 131.308 56.3487 131.308C41.7967 131.308 30 130.304 30 129.065C30 127.827 41.7967 126.823 56.3487 126.823C70.9007 126.823 82.6975 127.827 82.6975 129.065Z" fill="url(#paint14_radial_335_10505)" fill-opacity="0.5"/>
</g>
<defs>
<filter id="filter0_d_335_10505" x="52.9362" y="50.4414" width="37.3954" height="27.8001" filterUnits="userSpaceOnUse" color-interpolation-filters="sRGB">
<feFlood flood-opacity="0" result="BackgroundImageFix"/>
<feColorMatrix in="SourceAlpha" type="matrix" values="0 0 0 0 0 0 0 0 0 0 0 0 0 0 0 0 0 0 127 0" result="hardAlpha"/>
<feOffset dy="0.411782"/>
<feGaussianBlur stdDeviation="0.205891"/>
<feComposite in2="hardAlpha" operator="out"/>
<feColorMatrix type="matrix" values="0 0 0 0 0 0 0 0 0 0 0 0 0 0 0 0 0 0 0.25 0"/>
<feBlend mode="normal" in2="BackgroundImageFix" result="effect1_dropShadow_335_10505"/>
<feBlend mode="normal" in="SourceGraphic" in2="effect1_dropShadow_335_10505" result="shape"/>
</filter>
<filter id="filter1_d_335_10505" x="32.1603" y="46.5679" width="41.363" height="72.5299" filterUnits="userSpaceOnUse" color-interpolation-filters="sRGB">
<feFlood flood-opacity="0" result="BackgroundImageFix"/>
<feColorMatrix in="SourceAlpha" type="matrix" values="0 0 0 0 0 0 0 0 0 0 0 0 0 0 0 0 0 0 127 0" result="hardAlpha"/>
<feOffset dy="0.411782"/>
<feGaussianBlur stdDeviation="0.205891"/>
<feComposite in2="hardAlpha" operator="out"/>
<feColorMatrix type="matrix" values="0 0 0 0 0 0 0 0 0 0 0 0 0 0 0 0 0 0 0.25 0"/>
<feBlend mode="normal" in2="BackgroundImageFix" result="effect1_dropShadow_335_10505"/>
<feBlend mode="normal" in="SourceGraphic" in2="effect1_dropShadow_335_10505" result="shape"/>
</filter>
<filter id="filter2_d_335_10505" x="47.6343" y="59.2852" width="11.7621" height="10.2994" filterUnits="userSpaceOnUse" color-interpolation-filters="sRGB">
<feFlood flood-opacity="0" result="BackgroundImageFix"/>
<feColorMatrix in="SourceAlpha" type="matrix" values="0 0 0 0 0 0 0 0 0 0 0 0 0 0 0 0 0 0 127 0" result="hardAlpha"/>
<feOffset dy="0.411782"/>
<feGaussianBlur stdDeviation="0.205891"/>
<feComposite in2="hardAlpha" operator="out"/>
<feColorMatrix type="matrix" values="0 0 0 0 0 0 0 0 0 0 0 0 0 0 0 0 0 0 0.25 0"/>
<feBlend mode="normal" in2="BackgroundImageFix" result="effect1_dropShadow_335_10505"/>
<feBlend mode="normal" in="SourceGraphic" in2="effect1_dropShadow_335_10505" result="shape"/>
</filter>
<filter id="filter3_d_335_10505" x="62.1393" y="58.7393" width="3.45906" height="4.8658" filterUnits="userSpaceOnUse" color-interpolation-filters="sRGB">
<feFlood flood-opacity="0" result="BackgroundImageFix"/>
<feColorMatrix in="SourceAlpha" type="matrix" values="0 0 0 0 0 0 0 0 0 0 0 0 0 0 0 0 0 0 127 0" result="hardAlpha"/>
<feOffset dy="0.411782"/>
<feGaussianBlur stdDeviation="0.205891"/>
<feComposite in2="hardAlpha" operator="out"/>
<feColorMatrix type="matrix" values="0 0 0 0 0 0 0 0 0 0 0 0 0 0 0 0 0 0 0.25 0"/>
<feBlend mode="normal" in2="BackgroundImageFix" result="effect1_dropShadow_335_10505"/>
<feBlend mode="normal" in="SourceGraphic" in2="effect1_dropShadow_335_10505" result="shape"/>
</filter>
<filter id="filter4_d_335_10505" x="62.5557" y="63.4314" width="3.45906" height="4.8658" filterUnits="userSpaceOnUse" color-interpolation-filters="sRGB">
<feFlood flood-opacity="0" result="BackgroundImageFix"/>
<feColorMatrix in="SourceAlpha" type="matrix" values="0 0 0 0 0 0 0 0 0 0 0 0 0 0 0 0 0 0 127 0" result="hardAlpha"/>
<feOffset dy="0.411782"/>
<feGaussianBlur stdDeviation="0.205891"/>
<feComposite in2="hardAlpha" operator="out"/>
<feColorMatrix type="matrix" values="0 0 0 0 0 0 0 0 0 0 0 0 0 0 0 0 0 0 0.25 0"/>
<feBlend mode="normal" in2="BackgroundImageFix" result="effect1_dropShadow_335_10505"/>
<feBlend mode="normal" in="SourceGraphic" in2="effect1_dropShadow_335_10505" result="shape"/>
</filter>
<filter id="filter5_d_335_10505" x="24.1614" y="-1.26416" width="63.2722" height="63.2722" filterUnits="userSpaceOnUse" color-interpolation-filters="sRGB">
<feFlood flood-opacity="0" result="BackgroundImageFix"/>
<feColorMatrix in="SourceAlpha" type="matrix" values="0 0 0 0 0 0 0 0 0 0 0 0 0 0 0 0 0 0 127 0" result="hardAlpha"/>
<feOffset dy="-1"/>
<feGaussianBlur stdDeviation="2"/>
<feComposite in2="hardAlpha" operator="out"/>
<feColorMatrix type="matrix" values="0 0 0 0 0.0928125 0 0 0 0 0.3375 0 0 0 0 0.249412 0 0 0 0.3 0"/>
<feBlend mode="normal" in2="BackgroundImageFix" result="effect1_dropShadow_335_10505"/>
<feBlend mode="normal" in="SourceGraphic" in2="effect1_dropShadow_335_10505" result="shape"/>
</filter>
<filter id="filter6_d_335_10505" x="28.7016" y="48.938" width="42.4241" height="38.0199" filterUnits="userSpaceOnUse" color-interpolation-filters="sRGB">
<feFlood flood-opacity="0" result="BackgroundImageFix"/>
<feColorMatrix in="SourceAlpha" type="matrix" values="0 0 0 0 0 0 0 0 0 0 0 0 0 0 0 0 0 0 127 0" result="hardAlpha"/>
<feOffset dy="0.411782"/>
<feGaussianBlur stdDeviation="0.205891"/>
<feComposite in2="hardAlpha" operator="out"/>
<feColorMatrix type="matrix" values="0 0 0 0 0 0 0 0 0 0 0 0 0 0 0 0 0 0 0.25 0"/>
<feBlend mode="normal" in2="BackgroundImageFix" result="effect1_dropShadow_335_10505"/>
<feBlend mode="normal" in="SourceGraphic" in2="effect1_dropShadow_335_10505" result="shape"/>
</filter>
<filter id="filter7_d_335_10505" x="79.4679" y="27.0618" width="26.556" height="24.6385" filterUnits="userSpaceOnUse" color-interpolation-filters="sRGB">
<feFlood flood-opacity="0" result="BackgroundImageFix"/>
<feColorMatrix in="SourceAlpha" type="matrix" values="0 0 0 0 0 0 0 0 0 0 0 0 0 0 0 0 0 0 127 0" result="hardAlpha"/>
<feOffset dy="0.411782"/>
<feGaussianBlur stdDeviation="0.205891"/>
<feComposite in2="hardAlpha" operator="out"/>
<feColorMatrix type="matrix" values="0 0 0 0 0 0 0 0 0 0 0 0 0 0 0 0 0 0 0.25 0"/>
<feBlend mode="normal" in2="BackgroundImageFix" result="effect1_dropShadow_335_10505"/>
<feBlend mode="normal" in="SourceGraphic" in2="effect1_dropShadow_335_10505" result="shape"/>
</filter>
<filter id="filter8_f_335_10505" x="29.5127" y="126.335" width="53.6721" height="5.45948" filterUnits="userSpaceOnUse" color-interpolation-filters="sRGB">
<feFlood flood-opacity="0" result="BackgroundImageFix"/>
<feBlend mode="normal" in="SourceGraphic" in2="BackgroundImageFix" result="shape"/>
<feGaussianBlur stdDeviation="0.243654" result="effect1_foregroundBlur_335_10505"/>
</filter>
<linearGradient id="paint0_linear_335_10505" x1="58.8471" y1="63.3795" x2="80.2108" y2="65.4256" gradientUnits="userSpaceOnUse">
<stop stop-color="#EFF2F3"/>
<stop offset="1" stop-color="white"/>
</linearGradient>
<linearGradient id="paint1_linear_335_10505" x1="50.5988" y1="48.0249" x2="54.6342" y2="93.5053" gradientUnits="userSpaceOnUse">
<stop stop-color="#E3E9EB"/>
<stop offset="0.56737" stop-color="white"/>
</linearGradient>
<linearGradient id="paint2_linear_335_10505" x1="4.89625" y1="-10.4395" x2="4.89625" y2="8.18108" gradientUnits="userSpaceOnUse">
<stop stop-color="#50D5FF"/>
<stop offset="1" stop-color="#2C3585"/>
</linearGradient>
<radialGradient id="paint3_radial_335_10505" cx="0" cy="0" r="1" gradientUnits="userSpaceOnUse" gradientTransform="translate(1.00123 1.71659) rotate(90) scale(2.50148 1.45903)">
<stop stop-color="#51E0FF"/>
<stop offset="1" stop-color="#4E7CB4"/>
</radialGradient>
<radialGradient id="paint4_radial_335_10505" cx="0" cy="0" r="1" gradientUnits="userSpaceOnUse" gradientTransform="translate(1.00123 1.71659) rotate(90) scale(2.50148 1.45903)">
<stop stop-color="#FFB3B3"/>
<stop offset="1" stop-color="#F20000"/>
</radialGradient>
<radialGradient id="paint5_radial_335_10505" cx="0" cy="0" r="1" gradientUnits="userSpaceOnUse" gradientTransform="translate(46.5809 60.8193) rotate(-176.332) scale(37.3621)">
<stop offset="0.381" stop-color="#BFCCD1"/>
<stop offset="0.7578" stop-color="white"/>
</radialGradient>
<linearGradient id="paint6_linear_335_10505" x1="75.9017" y1="31.2243" x2="50.5686" y2="29.6002" gradientUnits="userSpaceOnUse">
<stop stop-color="#FFF668"/>
<stop offset="0.29" stop-color="#FF9C4C"/>
<stop offset="1" stop-color="#880000"/>
</linearGradient>
<radialGradient id="paint7_radial_335_10505" cx="0" cy="0" r="1" gradientUnits="userSpaceOnUse" gradientTransform="translate(64.9028 34.718) rotate(-176.332) scale(19.98)">
<stop stop-color="white"/>
<stop offset="0.9385" stop-color="#880000"/>
</radialGradient>
<linearGradient id="paint8_linear_335_10505" x1="49.0036" y1="119.7" x2="46.9171" y2="125.137" gradientUnits="userSpaceOnUse">
<stop stop-color="#504A44"/>
<stop offset="1" stop-color="#504A44" stop-opacity="0"/>
</linearGradient>
<linearGradient id="paint9_linear_335_10505" x1="67.8121" y1="118.031" x2="65.7256" y2="123.468" gradientUnits="userSpaceOnUse">
<stop stop-color="#504A44"/>
<stop offset="1" stop-color="#504A44" stop-opacity="0"/>
</linearGradient>
<linearGradient id="paint10_linear_335_10505" x1="38.3149" y1="62.1256" x2="57.2617" y2="72.2059" gradientUnits="userSpaceOnUse">
<stop stop-color="#EFF2F3"/>
<stop offset="1" stop-color="white"/>
</linearGradient>
<linearGradient id="paint11_linear_335_10505" x1="76.0514" y1="93.4034" x2="83.2033" y2="47.3573" gradientUnits="userSpaceOnUse">
<stop stop-color="#1E2236"/>
<stop offset="1" stop-color="#CECECE"/>
</linearGradient>
<linearGradient id="paint12_linear_335_10505" x1="79.6797" y1="81.2647" x2="85.1021" y2="52.1888" gradientUnits="userSpaceOnUse">
<stop stop-color="#DFDFDF"/>
<stop offset="0.879412" stop-color="#F0F3F4"/>
<stop offset="1" stop-color="white"/>
</linearGradient>
<linearGradient id="paint13_linear_335_10505" x1="83.7475" y1="54.7836" x2="84.1941" y2="59.8169" gradientUnits="userSpaceOnUse">
<stop stop-color="#1E2236"/>
<stop offset="1" stop-color="#1E2236" stop-opacity="0.35"/>
</linearGradient>
<radialGradient id="paint14_radial_335_10505" cx="0" cy="0" r="1" gradientUnits="userSpaceOnUse" gradientTransform="translate(56.3487 129.065) rotate(90) scale(2.24245 26.3487)">
<stop stop-color="#021B51"/>
<stop offset="1" stop-color="#75758F" stop-opacity="0"/>
</radialGradient>
</defs>
</svg>
