<svg width="138" height="139" viewBox="0 0 138 139" fill="none" xmlns="http://www.w3.org/2000/svg">
<path d="M137.79 69.7021C137.79 107.752 106.945 138.597 68.895 138.597C30.8453 138.597 0 107.752 0 69.7021C0 31.6525 30.8453 0.807129 68.895 0.807129C106.945 0.807129 137.79 31.6525 137.79 69.7021Z" fill="#00CC9E"/>
<g filter="url(#filter0_f_352_9656)">
<path d="M74.3107 117.818C74.3107 119.056 62.514 120.06 47.962 120.06C33.41 120.06 21.6133 119.056 21.6133 117.818C21.6133 116.579 33.41 115.575 47.962 115.575C62.514 115.575 74.3107 116.579 74.3107 117.818Z" fill="url(#paint0_radial_352_9656)" fill-opacity="0.5"/>
</g>
<g filter="url(#filter1_f_352_9656)">
<path d="M116.691 63.2522C116.691 64.4907 104.894 65.4947 90.3419 65.4947C75.7899 65.4947 63.9932 64.4907 63.9932 63.2522C63.9932 62.0137 75.7899 61.0098 90.3419 61.0098C104.894 61.0098 116.691 62.0137 116.691 63.2522Z" fill="url(#paint1_radial_352_9656)" fill-opacity="0.2"/>
</g>
<path d="M79.4028 13.1509C79.4477 13.0296 79.6192 13.0296 79.6641 13.1509L80.1169 14.3746C80.131 14.4127 80.161 14.4428 80.1992 14.4569L81.4228 14.9097C81.5441 14.9545 81.5441 15.1261 81.4228 15.1709L80.1992 15.6237C80.161 15.6378 80.131 15.6679 80.1169 15.706L79.6641 16.9297C79.6192 17.051 79.4477 17.051 79.4028 16.9297L78.95 15.706C78.9359 15.6679 78.9058 15.6378 78.8677 15.6237L77.644 15.1709C77.5227 15.1261 77.5227 14.9545 77.644 14.9097L78.8677 14.4569C78.9058 14.4428 78.9359 14.4127 78.95 14.3746L79.4028 13.1509Z" fill="#29C6A2"/>
<path d="M115.216 58.9221C115.283 58.7402 115.541 58.7402 115.608 58.9221L116.287 60.7576C116.308 60.8148 116.353 60.8599 116.411 60.8811L118.246 61.5603C118.428 61.6276 118.428 61.8849 118.246 61.9522L116.411 62.6314C116.353 62.6526 116.308 62.6977 116.287 62.7548L115.608 64.5904C115.541 64.7723 115.283 64.7723 115.216 64.5904L114.537 62.7548C114.516 62.6977 114.471 62.6526 114.413 62.6314L112.578 61.9522C112.396 61.8849 112.396 61.6276 112.578 61.5603L114.413 60.8811C114.471 60.8599 114.516 60.8148 114.537 60.7576L115.216 58.9221Z" fill="#2BB797"/>
<path d="M73.8396 10.0425C73.8695 9.96164 73.9838 9.96164 74.0137 10.0425L74.3156 10.8583C74.325 10.8837 74.3451 10.9037 74.3705 10.9131L75.1863 11.215C75.2671 11.2449 75.2671 11.3593 75.1863 11.3892L74.3705 11.6911C74.3451 11.7005 74.325 11.7205 74.3156 11.7459L74.0137 12.5617C73.9838 12.6425 73.8695 12.6425 73.8396 12.5617L73.5377 11.7459C73.5283 11.7205 73.5082 11.7005 73.4828 11.6911L72.667 11.3892C72.5862 11.3593 72.5862 11.2449 72.667 11.215L73.4828 10.9131C73.5082 10.9037 73.5283 10.8837 73.5377 10.8583L73.8396 10.0425Z" fill="white" fill-opacity="0.5"/>
<path d="M116.403 48.6548C116.448 48.5335 116.619 48.5335 116.664 48.6548L117.117 49.8785C117.131 49.9166 117.161 49.9467 117.199 49.9608L118.423 50.4136C118.544 50.4584 118.544 50.63 118.423 50.6748L117.199 51.1276C117.161 51.1417 117.131 51.1718 117.117 51.2099L116.664 52.4336C116.619 52.5549 116.448 52.5549 116.403 52.4336L115.95 51.2099C115.936 51.1718 115.906 51.1417 115.868 51.1276L114.644 50.6748C114.523 50.63 114.523 50.4584 114.644 50.4136L115.868 49.9608C115.906 49.9467 115.936 49.9166 115.95 49.8785L116.403 48.6548Z" fill="white"/>
<path d="M70.433 20.624C70.4778 20.5028 70.6494 20.5028 70.6942 20.624L71.147 21.8477C71.1611 21.8858 71.1912 21.9159 71.2293 21.93L72.453 22.3828C72.5743 22.4277 72.5743 22.5992 72.453 22.6441L71.2293 23.0969C71.1912 23.111 71.1611 23.141 71.147 23.1792L70.6942 24.4028C70.6494 24.5241 70.4778 24.5241 70.433 24.4028L69.9802 23.1792C69.9661 23.141 69.936 23.111 69.8979 23.0969L68.6742 22.6441C68.5529 22.5992 68.5529 22.4277 68.6742 22.3828L69.8979 21.93C69.936 21.9159 69.9661 21.8858 69.9802 21.8477L70.433 20.624Z" fill="white"/>
<path d="M106.685 17.6353C106.73 17.514 106.902 17.514 106.946 17.6353L107.399 18.8589C107.413 18.8971 107.443 18.9271 107.482 18.9412L108.705 19.394C108.827 19.4389 108.827 19.6104 108.705 19.6553L107.482 20.1081C107.443 20.1222 107.413 20.1523 107.399 20.1904L106.946 21.4141C106.902 21.5353 106.73 21.5353 106.685 21.4141L106.232 20.1904C106.218 20.1523 106.188 20.1222 106.15 20.1081L104.926 19.6553C104.805 19.6104 104.805 19.4389 104.926 19.394L106.15 18.9412C106.188 18.9271 106.218 18.8971 106.232 18.8589L106.685 17.6353Z" fill="white" fill-opacity="0.5"/>
<g filter="url(#filter2_d_352_9656)">
<path d="M51.4797 60.7255C51.4797 60.7255 56.0765 68.3208 60.5098 69.6311C64.9431 70.9413 68.5419 65.652 69.9516 60.162" stroke="url(#paint2_linear_352_9656)" stroke-width="6.84134" stroke-linecap="round"/>
<path d="M61.942 67.5488C62.2402 68.2904 62.6318 69.1751 62.403 71.3395" stroke="#C7D2D7" stroke-opacity="0.3" stroke-width="1.61532" stroke-linecap="round"/>
<path d="M59.9028 67.3442C60.0283 67.9158 60.2121 68.6087 59.5325 69.9391" stroke="#C7D2D7" stroke-opacity="0.3" stroke-width="1.61532" stroke-linecap="round"/>
<path d="M64.1347 66.98C64.6022 67.332 65.193 67.738 65.5438 69.1903" stroke="#C7D2D7" stroke-opacity="0.3" stroke-width="1.61532" stroke-linecap="round"/>
</g>
<g filter="url(#filter3_d_352_9656)">
<g filter="url(#filter4_d_352_9656)">
<path d="M46.44 55.7819C50.3603 55.3415 54.1119 57.649 55.265 61.534C57.8645 70.2921 60.16 81.8649 58.4707 85.7028C56.616 89.9165 51.6028 91.6975 48.3396 92.2393L48.3405 92.2477C48.1167 92.284 47.8711 92.3167 47.6069 92.3444C47.3432 92.376 47.0965 92.3986 46.8701 92.4128L46.8692 92.4045C43.5671 92.6002 38.2837 91.9758 35.5404 88.2786C33.0417 84.9112 32.7124 73.1174 33.304 64.0009C33.5664 59.9569 36.7126 56.8746 40.6329 56.4342L46.44 55.7819Z" fill="url(#paint3_linear_352_9656)"/>
<g filter="url(#filter5_d_352_9656)">
<rect x="36.4857" y="66.5864" width="8.06546" height="6.50397" rx="0.989424" transform="rotate(-6.40923 36.4857 66.5864)" fill="url(#paint4_linear_352_9656)"/>
<rect x="36.3034" y="66.441" width="8.39527" height="6.83377" rx="1.15433" transform="rotate(-6.40923 36.3034 66.441)" stroke="#EFF2F3" stroke-width="0.329808"/>
</g>
<path d="M39.7249 68.9363L39.7152 68.9374C39.8695 68.5224 40.2445 68.2079 40.712 68.1553C41.0137 68.1215 41.3018 68.2024 41.5335 68.3635L41.5409 68.3627L42.0196 68.3089C41.6912 67.9403 41.1967 67.7313 40.671 67.7904C39.8688 67.8805 39.2761 68.5629 39.2743 69.3565L40.2836 69.243L40.3246 69.6079L39.3151 69.7213L39.3158 69.7241C39.3446 69.8483 39.3877 69.9662 39.4429 70.0765L40.3655 69.9729L40.4698 70.9017C40.5896 70.9317 40.7145 70.9478 40.8421 70.9484L40.7279 69.9323L41.0904 69.8915L41.2045 70.9077C41.3288 70.8789 41.447 70.8356 41.5572 70.7796L41.4528 69.8507L42.3754 69.7471C42.4191 69.5696 42.4326 69.3813 42.411 69.1888C42.3894 68.9963 42.3344 68.8158 42.2524 68.6524L42.0377 68.6765L39.7249 68.9363ZM41.0495 69.5266L40.687 69.5673L40.646 69.2024L41.0085 69.1617L41.0495 69.5266ZM42.0556 69.4135L41.412 69.4858L41.371 69.1209L42.0146 69.0486C42.0303 69.1072 42.0418 69.1676 42.0487 69.2296C42.0557 69.2916 42.0579 69.353 42.0556 69.4135Z" fill="#9FF9FF"/>
<path d="M40.5873 67.057C39.3214 67.1992 38.4112 68.3477 38.5544 69.6221C38.6976 70.8965 39.8398 71.8144 41.1058 71.6722C42.3717 71.53 43.2819 70.3815 43.1387 69.1071C42.9955 67.8327 41.8533 66.9148 40.5873 67.057ZM41.0647 71.3067C39.9993 71.4264 39.038 70.6539 38.9175 69.5813C38.797 68.5087 39.563 67.5422 40.6284 67.4225C41.6938 67.3028 42.6551 68.0753 42.7756 69.1479C42.8961 70.2205 42.1301 71.187 41.0647 71.3067Z" fill="#9FF9FF"/>
<g filter="url(#filter6_d_352_9656)">
<ellipse cx="49.9698" cy="66.4513" rx="1.33335" ry="1.37092" transform="rotate(-6.40923 49.9698 66.4513)" fill="url(#paint5_radial_352_9656)"/>
<path d="M50.1412 67.9775C50.9678 67.8847 51.5528 67.1226 51.4586 66.2841C51.3644 65.4455 50.6249 64.8322 49.7983 64.9251C48.9718 65.0179 48.3867 65.78 48.4809 66.6185C48.5751 67.4571 49.3146 68.0704 50.1412 67.9775Z" stroke="#EFF2F3" stroke-width="0.329808"/>
</g>
<g filter="url(#filter7_d_352_9656)">
<ellipse cx="50.3897" cy="70.1901" rx="1.33335" ry="1.37091" transform="rotate(-6.40923 50.3897 70.1901)" fill="url(#paint6_radial_352_9656)"/>
<path d="M50.5612 71.7163C51.3877 71.6234 51.9728 70.8614 51.8786 70.0228C51.7844 69.1842 51.0448 68.571 50.2183 68.6638C49.3917 68.7567 48.8066 69.5187 48.9008 70.3573C48.995 71.1959 49.7346 71.8091 50.5612 71.7163Z" stroke="#EFF2F3" stroke-width="0.329808"/>
</g>
<path d="M47.9644 86.8259L48.0339 81.3296L59.0266 81.4687L58.9571 86.9651L47.9644 86.8259ZM60.2977 104.598C60.6366 107.615 58.4657 110.335 55.4488 110.674C52.432 111.013 49.7117 108.842 49.3728 105.825L60.2977 104.598ZM58.9571 86.9651C58.8933 92.0085 59.8533 100.642 60.2977 104.598L49.3728 105.825C48.9575 102.128 47.8899 92.7109 47.9644 86.8259L58.9571 86.9651Z" fill="white"/>
<path d="M46.1411 92.0286L47.6764 86.7506L37.1203 83.68L35.585 88.958L46.1411 92.0286ZM32.0042 105.757C31.4047 108.733 33.3312 111.632 36.3072 112.232C39.2832 112.831 42.1818 110.905 42.7813 107.929L32.0042 105.757ZM35.585 88.958C35.2194 90.215 34.2928 94.612 33.5301 98.2932C33.1304 100.222 32.7491 102.088 32.4678 103.47C32.3271 104.162 32.2113 104.733 32.1307 105.131C32.0904 105.331 32.0588 105.487 32.0373 105.593C32.0266 105.647 32.0183 105.687 32.0127 105.715C32.01 105.729 32.0078 105.739 32.0064 105.746C32.0057 105.75 32.0052 105.753 32.0048 105.755C32.0046 105.755 32.0045 105.756 32.0044 105.757C32.0043 105.757 32.0043 105.757 32.0043 105.757C32.0042 105.757 32.0042 105.757 37.3928 106.843C42.7813 107.929 42.7813 107.928 42.7813 107.928C42.7813 107.928 42.7814 107.928 42.7814 107.928C42.7815 107.928 42.7816 107.927 42.7818 107.926C42.7821 107.924 42.7826 107.922 42.7833 107.919C42.7847 107.912 42.7867 107.902 42.7894 107.888C42.7948 107.861 42.8029 107.821 42.8135 107.769C42.8347 107.664 42.866 107.509 42.9059 107.311C42.9859 106.916 43.1009 106.349 43.2407 105.662C43.5203 104.287 43.8989 102.435 44.295 100.524C44.6917 98.6094 45.1036 96.6463 45.4506 95.0451C45.6244 94.2434 45.7789 93.5461 45.9054 92.9972C45.9687 92.7227 46.0224 92.4965 46.0661 92.3195C46.0878 92.2315 46.1055 92.1618 46.1195 92.1086C46.1264 92.0823 46.1318 92.0623 46.1357 92.0479C46.1397 92.0332 46.1415 92.0272 46.1411 92.0286L35.585 88.958Z" fill="white"/>
<path d="M57.0598 87.0962C54.0427 89.962 45.8519 94.4196 37.2253 89.3242" stroke="#C7D2D7" stroke-opacity="0.3" stroke-width="1.86891" stroke-linecap="round"/>
<path d="M57.1746 93.4834C56.1151 93.9195 54.8551 94.4782 51.6436 94.572" stroke="#C7D2D7" stroke-opacity="0.3" stroke-width="1.86891" stroke-linecap="round"/>
<path d="M37.4248 93.8452C38.4848 94.2934 39.7455 94.8666 42.9571 94.9971" stroke="#C7D2D7" stroke-opacity="0.3" stroke-width="1.86891" stroke-linecap="round"/>
<path d="M54.7469 97.8125C54.2072 97.9358 53.5624 98.1015 52.0197 97.8891" stroke="#C7D2D7" stroke-opacity="0.3" stroke-width="1.86891" stroke-linecap="round"/>
<path d="M37.8904 97.4028C38.4195 97.5736 39.0503 97.7961 40.6034 97.7214" stroke="#C7D2D7" stroke-opacity="0.3" stroke-width="1.86891" stroke-linecap="round"/>
</g>
<g filter="url(#filter8_d_352_9656)">
<path d="M33.9761 61.692C29.7939 63.8115 26.714 68.6603 26.0589 72.7208C25.5781 75.7004 25.7931 80.1808 28.8398 83.9881" stroke="url(#paint7_linear_352_9656)" stroke-width="7.91539" stroke-linecap="round"/>
<path d="M28.394 72.7939C27.5409 72.7751 26.5079 72.7881 24.4885 71.6456" stroke="#C7D2D7" stroke-opacity="0.3" stroke-width="1.86891" stroke-linecap="round"/>
<path d="M28.9802 69.7471C28.4556 69.7468 27.8063 69.7772 26.9913 68.8323" stroke="#C7D2D7" stroke-opacity="0.3" stroke-width="1.86891" stroke-linecap="round"/>
<path d="M27.6231 75.3789C27.1808 75.5716 26.6499 75.8304 25.4586 75.5021" stroke="#C7D2D7" stroke-opacity="0.3" stroke-width="1.86891" stroke-linecap="round"/>
</g>
<path d="M25.3316 82.1004C23.9323 83.0148 23.7387 84.9713 24.9333 86.1253L27.1974 88.3124C27.4748 88.5804 27.7994 88.7759 28.1458 88.8974C33.3888 94.7941 32.5595 98.279 35.1943 97.1615C36.7715 95.7226 37.2271 93.1615 36.4051 89.4362C36.3567 89.3201 36.3089 89.2055 36.2624 89.0927C37.2316 90.2094 38.1971 89.898 38.4311 89.0348C38.6518 88.2209 37.0631 86.7443 35.2671 85.4581C35.0032 85.3036 34.652 85.1144 34.2458 84.9236C34.3324 84.4283 34.2746 83.9065 34.0556 83.4228L32.8577 80.7778C32.1987 79.3226 30.3779 78.803 29.0282 79.685L25.3316 82.1004Z" fill="#282522"/>
<g filter="url(#filter9_d_352_9656)">
<path d="M40.6402 60.1362C30.7913 59.7356 23.1321 51.4268 23.5327 41.578C23.9333 31.7291 32.242 24.0698 42.0909 24.4704C51.9397 24.871 59.599 33.1798 59.1984 43.0287C58.7978 52.8775 50.489 60.5368 40.6402 60.1362Z" fill="url(#paint8_radial_352_9656)"/>
<path d="M29.6035 43.8038C29.8763 46.2322 30.6813 47.4743 32.8165 47.9389L50.9518 45.9017C52.9307 44.975 53.44 43.5852 53.1672 41.1569C52.1975 32.5239 46.5689 29.9675 40.0619 30.6985C33.555 31.4294 28.6262 35.1035 29.6035 43.8038Z" fill="url(#paint9_linear_352_9656)" stroke="#AE6666" stroke-opacity="0.5" stroke-width="0.329808"/>
<g style="mix-blend-mode:multiply">
<path d="M30.2013 38.5943C31.4571 34.6575 33.5235 32.1668 39.4357 31.0518C36.4052 32.5004 38.8374 35.7113 38.9317 39.2996C39.0483 43.5384 32.5241 45.0975 33.7141 46.3097C34.0938 46.6904 34.6339 46.8858 35.1705 46.8292L51.2792 45.0978C51.0892 45.5088 51.0694 45.6691 50.4951 45.7268L33.2383 47.6653C32.7017 47.7219 31.3843 47.5233 30.3873 45.9573C29.7243 44.9159 29.9028 39.53 30.2013 38.5943Z" fill="url(#paint10_radial_352_9656)"/>
</g>
<path d="M32.4481 43.3049C32.2102 44.675 33.88 46.3347 35.3725 46.167" stroke="white" stroke-width="1.76933" stroke-linecap="round"/>
<path d="M49.501 37.8514C49.0496 36.0609 47.011 32.5859 42.468 33.0104" stroke="white" stroke-width="2.24115" stroke-linecap="round"/>
</g>
<path fill-rule="evenodd" clip-rule="evenodd" d="M59.4577 100.855C57.2655 101.416 53.7267 102.287 50.0366 101.789C49.3325 101.694 48.6946 102.294 48.8144 102.994L50.2447 111.355C50.2601 111.445 50.2871 111.532 50.3263 111.613L50.2353 111.622C50.2768 112.223 50.4652 114.079 50.6044 115.45C50.6585 115.983 50.7052 116.444 50.7329 116.728C50.8919 118.359 55.8963 117.871 56.7182 116.968C57.4555 117.707 59.1106 117.552 59.8521 117.482C59.9547 117.473 60.0397 117.465 60.1025 117.461C64.4103 117.204 66.2983 116.349 66.5548 115.869C66.5548 115.869 67.0511 115.626 66.8879 113.952C66.6487 111.497 63.4109 111.331 60.4263 111.267L60.6551 101.816C60.6706 101.172 60.081 100.695 59.4577 100.855Z" fill="#282522"/>
<path d="M59.242 114.928C62.9153 115.681 65.7052 114.547 66.6078 113.996C66.341 111.257 61.9775 111.421 60.2051 111.594C57.1127 111.895 57.9286 112.062 57.1357 113.027C56.0557 114.341 55.5687 114.175 59.242 114.928Z" fill="url(#paint11_linear_352_9656)"/>
<path fill-rule="evenodd" clip-rule="evenodd" d="M33.4068 100.855C35.5347 101.544 38.9073 102.495 42.6808 102.319C43.373 102.286 43.9344 102.918 43.7695 103.591L41.8425 111.459C41.817 111.563 41.7756 111.662 41.7188 111.75C41.5784 112.569 41.2405 114.415 40.9885 115.378C40.7347 116.348 40.5117 116.913 39.7142 117.107C38.928 118.679 36.8807 119.641 32.8 118.764C28.7589 117.895 28.7693 117.118 28.7746 116.725C28.7746 116.721 28.7747 116.717 28.7747 116.714C28.7108 117.032 28.6911 117.129 29.1242 114.976C29.374 113.734 30.3813 112.543 31.7722 111.684C31.5764 111.498 31.4786 111.225 31.4971 110.947L32.1126 101.728C32.1557 101.083 32.7922 100.656 33.4068 100.855Z" fill="#282522"/>
<path d="M37.4427 115.947C35.0186 116.569 30.2639 114.966 29.7663 114.403C29.6053 113.286 31.6368 111.727 32.9777 111.552C34.9782 111.291 37.5325 112.077 38.0464 112.946C38.2395 113.273 39.8668 115.325 37.4427 115.947Z" fill="url(#paint12_linear_352_9656)"/>
</g>
<path d="M70.0491 65.3019C71.4396 66.4143 73.4843 65.9599 74.2552 64.3672L75.7162 61.3486C75.8952 60.9787 75.9852 60.5852 75.993 60.1942C78.7994 58.4262 79.793 57.3223 77.7709 53.9065C75.9226 50.7843 75.8763 49.8573 73.7929 51.6557C73.6915 51.7432 72.1253 52.8736 72.0266 52.9582C72.8347 51.606 70.7402 49.4697 69.955 49.9946C69.1698 50.5195 69.6288 51.5578 69.7523 52.9741C69.6395 54.828 70.0014 54.8666 69.9433 55.3411C69.4132 55.4182 68.9043 55.6501 68.4876 56.0326L66.2086 58.1242C64.9548 59.2749 65.0342 61.2905 66.3755 62.3634L70.0491 65.3019Z" fill="#282522"/>
<path d="M87.4226 55.2327L91.0439 56.9587L87.6559 59.2721L87.6554 59.2724C87.6103 59.3032 87.551 59.3067 87.5025 59.281L87.5025 59.281C87.4544 59.2555 87.4243 59.2066 87.4226 59.1537V59.1491V55.2327Z" fill="white" stroke="#13BA94" stroke-width="0.866284"/>
<path d="M110.551 28.5868L110.551 28.5864C110.522 28.5602 110.486 28.5464 110.448 28.5464C110.427 28.5464 110.406 28.551 110.385 28.5614L110.384 28.5616L75.7664 45.5426C75.5616 45.6432 75.4318 45.8526 75.4332 46.0817C75.4345 46.3105 75.5665 46.5184 75.7728 46.6169L110.551 28.5868ZM110.551 28.5868C110.596 28.6278 110.61 28.6925 110.588 28.7491L110.588 28.7499L99.3344 57.1381C99.3344 57.1382 99.3344 57.1382 99.3344 57.1382C99.2736 57.2914 99.1517 57.4131 98.9981 57.474C98.9285 57.5013 98.855 57.5149 98.7794 57.5149C98.6917 57.5149 98.6034 57.4955 98.5237 57.4573L98.5229 57.4569L87.7089 52.3042L103.26 36.6666L102.678 36.0266L84.6479 50.8458L75.773 46.617L110.551 28.5868Z" fill="white" stroke="#13BA94" stroke-width="0.866284"/>
<defs>
<filter id="filter0_f_352_9656" x="21.126" y="115.088" width="53.6721" height="5.45948" filterUnits="userSpaceOnUse" color-interpolation-filters="sRGB">
<feFlood flood-opacity="0" result="BackgroundImageFix"/>
<feBlend mode="normal" in="SourceGraphic" in2="BackgroundImageFix" result="shape"/>
<feGaussianBlur stdDeviation="0.243654" result="effect1_foregroundBlur_352_9656"/>
</filter>
<filter id="filter1_f_352_9656" x="63.5059" y="60.5225" width="53.6721" height="5.45948" filterUnits="userSpaceOnUse" color-interpolation-filters="sRGB">
<feFlood flood-opacity="0" result="BackgroundImageFix"/>
<feBlend mode="normal" in="SourceGraphic" in2="BackgroundImageFix" result="shape"/>
<feGaussianBlur stdDeviation="0.243654" result="effect1_foregroundBlur_352_9656"/>
</filter>
<filter id="filter2_d_352_9656" x="47.4217" y="56.7402" width="26.975" height="19.6898" filterUnits="userSpaceOnUse" color-interpolation-filters="sRGB">
<feFlood flood-opacity="0" result="BackgroundImageFix"/>
<feColorMatrix in="SourceAlpha" type="matrix" values="0 0 0 0 0 0 0 0 0 0 0 0 0 0 0 0 0 0 127 0" result="hardAlpha"/>
<feOffset dy="0.380074"/>
<feGaussianBlur stdDeviation="0.190037"/>
<feComposite in2="hardAlpha" operator="out"/>
<feColorMatrix type="matrix" values="0 0 0 0 0 0 0 0 0 0 0 0 0 0 0 0 0 0 0.25 0"/>
<feBlend mode="normal" in2="BackgroundImageFix" result="effect1_dropShadow_352_9656"/>
<feBlend mode="normal" in="SourceGraphic" in2="effect1_dropShadow_352_9656" result="shape"/>
</filter>
<filter id="filter3_d_352_9656" x="16.1828" y="19.8066" width="52.7337" height="104.696" filterUnits="userSpaceOnUse" color-interpolation-filters="sRGB">
<feFlood flood-opacity="0" result="BackgroundImageFix"/>
<feColorMatrix in="SourceAlpha" type="matrix" values="0 0 0 0 0 0 0 0 0 0 0 0 0 0 0 0 0 0 127 0" result="hardAlpha"/>
<feOffset dy="1.99564"/>
<feGaussianBlur stdDeviation="0.997819"/>
<feComposite in2="hardAlpha" operator="out"/>
<feColorMatrix type="matrix" values="0 0 0 0 0 0 0 0 0 0 0 0 0 0 0 0 0 0 0.25 0"/>
<feBlend mode="normal" in2="BackgroundImageFix" result="effect1_dropShadow_352_9656"/>
<feBlend mode="normal" in="SourceGraphic" in2="effect1_dropShadow_352_9656" result="shape"/>
</filter>
<filter id="filter4_d_352_9656" x="26.5194" y="54.6167" width="36.3129" height="58.964" filterUnits="userSpaceOnUse" color-interpolation-filters="sRGB">
<feFlood flood-opacity="0" result="BackgroundImageFix"/>
<feColorMatrix in="SourceAlpha" type="matrix" values="0 0 0 0 0 0 0 0 0 0 0 0 0 0 0 0 0 0 127 0" result="hardAlpha"/>
<feOffset dy="0.439744"/>
<feGaussianBlur stdDeviation="0.219872"/>
<feComposite in2="hardAlpha" operator="out"/>
<feColorMatrix type="matrix" values="0 0 0 0 0 0 0 0 0 0 0 0 0 0 0 0 0 0 0.25 0"/>
<feBlend mode="normal" in2="BackgroundImageFix" result="effect1_dropShadow_352_9656"/>
<feBlend mode="normal" in="SourceGraphic" in2="effect1_dropShadow_352_9656" result="shape"/>
</filter>
<filter id="filter5_d_352_9656" x="35.8203" y="65.4604" width="10.0719" height="8.69443" filterUnits="userSpaceOnUse" color-interpolation-filters="sRGB">
<feFlood flood-opacity="0" result="BackgroundImageFix"/>
<feColorMatrix in="SourceAlpha" type="matrix" values="0 0 0 0 0 0 0 0 0 0 0 0 0 0 0 0 0 0 127 0" result="hardAlpha"/>
<feOffset dy="0.439744"/>
<feGaussianBlur stdDeviation="0.219872"/>
<feComposite in2="hardAlpha" operator="out"/>
<feColorMatrix type="matrix" values="0 0 0 0 0 0 0 0 0 0 0 0 0 0 0 0 0 0 0.25 0"/>
<feBlend mode="normal" in2="BackgroundImageFix" result="effect1_dropShadow_352_9656"/>
<feBlend mode="normal" in="SourceGraphic" in2="effect1_dropShadow_352_9656" result="shape"/>
</filter>
<filter id="filter6_d_352_9656" x="47.8663" y="64.751" width="4.20694" height="4.28037" filterUnits="userSpaceOnUse" color-interpolation-filters="sRGB">
<feFlood flood-opacity="0" result="BackgroundImageFix"/>
<feColorMatrix in="SourceAlpha" type="matrix" values="0 0 0 0 0 0 0 0 0 0 0 0 0 0 0 0 0 0 127 0" result="hardAlpha"/>
<feOffset dy="0.439744"/>
<feGaussianBlur stdDeviation="0.219872"/>
<feComposite in2="hardAlpha" operator="out"/>
<feColorMatrix type="matrix" values="0 0 0 0 0 0 0 0 0 0 0 0 0 0 0 0 0 0 0.25 0"/>
<feBlend mode="normal" in2="BackgroundImageFix" result="effect1_dropShadow_352_9656"/>
<feBlend mode="normal" in="SourceGraphic" in2="effect1_dropShadow_352_9656" result="shape"/>
</filter>
<filter id="filter7_d_352_9656" x="48.2862" y="68.4897" width="4.20694" height="4.28037" filterUnits="userSpaceOnUse" color-interpolation-filters="sRGB">
<feFlood flood-opacity="0" result="BackgroundImageFix"/>
<feColorMatrix in="SourceAlpha" type="matrix" values="0 0 0 0 0 0 0 0 0 0 0 0 0 0 0 0 0 0 127 0" result="hardAlpha"/>
<feOffset dy="0.439744"/>
<feGaussianBlur stdDeviation="0.219872"/>
<feComposite in2="hardAlpha" operator="out"/>
<feColorMatrix type="matrix" values="0 0 0 0 0 0 0 0 0 0 0 0 0 0 0 0 0 0 0.25 0"/>
<feBlend mode="normal" in2="BackgroundImageFix" result="effect1_dropShadow_352_9656"/>
<feBlend mode="normal" in="SourceGraphic" in2="effect1_dropShadow_352_9656" result="shape"/>
</filter>
<filter id="filter8_d_352_9656" x="17.7387" y="57.3242" width="26.1858" height="32.2901" filterUnits="userSpaceOnUse" color-interpolation-filters="sRGB">
<feFlood flood-opacity="0" result="BackgroundImageFix"/>
<feColorMatrix in="SourceAlpha" type="matrix" values="0 0 0 0 0 0 0 0 0 0 0 0 0 0 0 0 0 0 127 0" result="hardAlpha"/>
<feOffset dy="0.439744"/>
<feGaussianBlur stdDeviation="0.219872"/>
<feComposite in2="hardAlpha" operator="out"/>
<feColorMatrix type="matrix" values="0 0 0 0 0 0 0 0 0 0 0 0 0 0 0 0 0 0 0.25 0"/>
<feBlend mode="normal" in2="BackgroundImageFix" result="effect1_dropShadow_352_9656"/>
<feBlend mode="normal" in="SourceGraphic" in2="effect1_dropShadow_352_9656" result="shape"/>
</filter>
<filter id="filter9_d_352_9656" x="18.4292" y="19.8066" width="45.8727" height="45.8727" filterUnits="userSpaceOnUse" color-interpolation-filters="sRGB">
<feFlood flood-opacity="0" result="BackgroundImageFix"/>
<feColorMatrix in="SourceAlpha" type="matrix" values="0 0 0 0 0 0 0 0 0 0 0 0 0 0 0 0 0 0 127 0" result="hardAlpha"/>
<feOffset dy="0.439744"/>
<feGaussianBlur stdDeviation="0.219872"/>
<feComposite in2="hardAlpha" operator="out"/>
<feColorMatrix type="matrix" values="0 0 0 0 0 0 0 0 0 0 0 0 0 0 0 0 0 0 0.25 0"/>
<feBlend mode="normal" in2="BackgroundImageFix" result="effect1_dropShadow_352_9656"/>
<feBlend mode="normal" in="SourceGraphic" in2="effect1_dropShadow_352_9656" result="shape"/>
</filter>
<radialGradient id="paint0_radial_352_9656" cx="0" cy="0" r="1" gradientUnits="userSpaceOnUse" gradientTransform="translate(47.962 117.818) rotate(90) scale(2.24245 26.3487)">
<stop stop-color="#021B51"/>
<stop offset="1" stop-color="#75758F" stop-opacity="0"/>
</radialGradient>
<radialGradient id="paint1_radial_352_9656" cx="0" cy="0" r="1" gradientUnits="userSpaceOnUse" gradientTransform="translate(90.3419 63.2522) rotate(90) scale(2.24245 26.3487)">
<stop stop-color="#021B51"/>
<stop offset="1" stop-color="#75758F" stop-opacity="0"/>
</radialGradient>
<linearGradient id="paint2_linear_352_9656" x1="51.3232" y1="66.752" x2="67.3994" y2="67.1146" gradientUnits="userSpaceOnUse">
<stop stop-color="#EFF2F3"/>
<stop offset="1" stop-color="white"/>
</linearGradient>
<linearGradient id="paint3_linear_352_9656" x1="43.5365" y1="56.108" x2="47.607" y2="92.3448" gradientUnits="userSpaceOnUse">
<stop stop-color="#E3E9EB"/>
<stop offset="0.56737" stop-color="white"/>
</linearGradient>
<linearGradient id="paint4_linear_352_9656" x1="40.5184" y1="58.287" x2="40.5184" y2="73.0904" gradientUnits="userSpaceOnUse">
<stop stop-color="#50D5FF"/>
<stop offset="1" stop-color="#2C3585"/>
</linearGradient>
<radialGradient id="paint5_radial_352_9656" cx="0" cy="0" r="1" gradientUnits="userSpaceOnUse" gradientTransform="translate(49.9698 66.4513) rotate(90) scale(1.99775 1.94301)">
<stop stop-color="#51E0FF"/>
<stop offset="1" stop-color="#4E7CB4"/>
</radialGradient>
<radialGradient id="paint6_radial_352_9656" cx="0" cy="0" r="1" gradientUnits="userSpaceOnUse" gradientTransform="translate(50.3897 70.1901) rotate(90) scale(1.99775 1.94301)">
<stop stop-color="#FFB3B3"/>
<stop offset="1" stop-color="#F20000"/>
</radialGradient>
<linearGradient id="paint7_linear_352_9656" x1="27.7506" y1="63.2837" x2="32.0527" y2="79.8747" gradientUnits="userSpaceOnUse">
<stop stop-color="#EFF2F3"/>
<stop offset="1" stop-color="white"/>
</linearGradient>
<radialGradient id="paint8_radial_352_9656" cx="0" cy="0" r="1" gradientUnits="userSpaceOnUse" gradientTransform="translate(34.5563 65.9864) rotate(-177.671) scale(29.8385)">
<stop offset="0.381" stop-color="#BFCCD1"/>
<stop offset="0.7578" stop-color="white"/>
</radialGradient>
<linearGradient id="paint9_linear_352_9656" x1="58.4173" y1="43.0849" x2="28.6274" y2="32.7823" gradientUnits="userSpaceOnUse">
<stop stop-color="#FFF668"/>
<stop offset="0.519247" stop-color="#FF9C4C"/>
<stop offset="1" stop-color="#880000"/>
</linearGradient>
<radialGradient id="paint10_radial_352_9656" cx="0" cy="0" r="1" gradientUnits="userSpaceOnUse" gradientTransform="translate(50.9231 44.3934) rotate(173.286) scale(37.7543)">
<stop offset="0.180591" stop-color="white"/>
<stop offset="0.9385" stop-color="#880000"/>
</radialGradient>
<linearGradient id="paint11_linear_352_9656" x1="61.1857" y1="109.152" x2="59.7799" y2="113.94" gradientUnits="userSpaceOnUse">
<stop stop-color="#504A44"/>
<stop offset="1" stop-color="#504A44" stop-opacity="0"/>
</linearGradient>
<linearGradient id="paint12_linear_352_9656" x1="34.081" y1="110.064" x2="35.6716" y2="114.249" gradientUnits="userSpaceOnUse">
<stop stop-color="#504A44"/>
<stop offset="1" stop-color="#504A44" stop-opacity="0"/>
</linearGradient>
</defs>
</svg>
