<svg width="594" height="440" viewBox="0 0 594 440" fill="none" xmlns="http://www.w3.org/2000/svg">
<path d="M68.7637 174.114C118.284 37.1498 269.46 -33.7369 406.423 15.7837C543.387 65.3043 628.558 176.974 579.037 313.938C529.516 450.902 213.013 462.011 76.0488 412.491C-60.9149 362.97 19.2431 311.077 68.7637 174.114Z" fill="url(#paint0_linear_3378_38403)"/>
<g filter="url(#filter0_d_3378_38403)">
<path d="M283.786 176.898C269.076 186.398 247.636 187.205 233.305 181.674C222.788 177.615 208.74 168.487 202.194 151.491" stroke="url(#paint1_linear_3378_38403)" stroke-width="24.9903" stroke-linecap="round"/>
<path d="M237.465 174.003C235.92 176.79 233.933 180.098 233.817 188.763" stroke="#C7D2D7" stroke-opacity="0.3" stroke-width="5.90048" stroke-linecap="round"/>
<path d="M248.397 177.849C247.411 179.542 246.09 181.579 247.604 185.987" stroke="#C7D2D7" stroke-opacity="0.3" stroke-width="5.90048" stroke-linecap="round"/>
<path d="M227.675 171.623C226.22 172.687 224.386 173.912 223.202 178.373" stroke="#C7D2D7" stroke-opacity="0.3" stroke-width="5.90048" stroke-linecap="round"/>
</g>
<g filter="url(#filter1_d_3378_38403)">
<path d="M308.406 155.898C294.185 155.898 281.674 165.406 279.106 179.394C273.318 210.926 269.752 252.147 277.348 264.858C285.688 278.813 304.364 283.057 316.272 283.667V283.696C317.088 283.735 317.981 283.753 318.939 283.746C319.896 283.753 320.789 283.735 321.606 283.696V283.667C333.514 283.057 352.189 278.813 360.529 264.858C368.125 252.147 364.559 210.926 358.771 179.394C356.204 165.406 343.693 155.898 329.472 155.898H308.406Z" fill="url(#paint2_linear_3378_38403)"/>
<path d="M309.627 271.974L309.526 254.62L274.818 254.823L274.919 272.177L309.627 271.974ZM281.311 335.305C283.463 344.645 292.779 350.471 302.119 348.319C311.459 346.166 317.285 336.85 315.133 327.51L281.311 335.305ZM274.919 272.177C274.996 285.283 277.142 317.215 281.311 335.305L315.133 327.51C311.783 312.974 309.697 283.914 309.627 271.974L274.919 272.177Z" fill="white"/>
<path d="M363.615 271.974L363.513 254.62L328.805 254.823L328.907 272.177L363.615 271.974ZM335.298 335.305C337.451 344.645 346.767 350.471 356.106 348.319C365.446 346.166 371.273 336.85 369.12 327.51L335.298 335.305ZM328.907 272.177C328.983 285.283 331.129 317.215 335.298 335.305L369.12 327.51C365.77 312.974 363.685 283.914 363.615 271.974L328.907 272.177Z" fill="white"/>
<g filter="url(#filter2_d_3378_38403)">
<path d="M279.46 192.407C279.606 190.798 280.955 189.566 282.57 189.566H301.092C302.873 189.566 304.293 191.052 304.213 192.832L303.455 209.492C303.379 211.16 302.005 212.474 300.335 212.474H281.056C279.219 212.474 277.779 210.896 277.945 209.067L279.46 192.407Z" fill="url(#paint3_linear_3378_38403)"/>
<path d="M282.57 189.045C280.686 189.045 279.112 190.483 278.941 192.36L277.426 209.02C277.232 211.154 278.913 212.994 281.056 212.994H300.335C302.283 212.994 303.887 211.462 303.975 209.515L304.733 192.855C304.827 190.78 303.17 189.045 301.092 189.045H282.57Z" stroke="#EFF2F3" stroke-width="1.04126"/>
</g>
<path d="M282.963 269.16C294.924 277.964 326.061 290.29 354.914 269.16" stroke="#C7D2D7" stroke-opacity="0.3" stroke-width="5.90048" stroke-linecap="round"/>
<path d="M285.122 291.458C289.093 292.563 293.831 294.017 305.374 293.087" stroke="#C7D2D7" stroke-opacity="0.3" stroke-width="5.90048" stroke-linecap="round"/>
<path d="M336.109 294.653C340.204 295.122 345.112 295.816 356.366 293.09" stroke="#C7D2D7" stroke-opacity="0.3" stroke-width="5.90048" stroke-linecap="round"/>
<path d="M288.565 305.479C290.48 306.038 292.765 306.77 298.356 306.389" stroke="#C7D2D7" stroke-opacity="0.3" stroke-width="5.90048" stroke-linecap="round"/>
<path d="M342.556 306.566C344.547 306.691 346.937 306.904 352.309 305.306" stroke="#C7D2D7" stroke-opacity="0.3" stroke-width="5.90048" stroke-linecap="round"/>
<path d="M287.099 199.247H287.068C287.698 197.862 288.984 196.913 290.468 196.913C291.426 196.913 292.3 197.307 292.97 197.96H292.993H294.513C293.613 196.547 292.137 195.625 290.468 195.625C287.922 195.625 285.824 197.771 285.539 200.535L288.742 200.535V201.822H285.538L285.539 201.832C285.586 202.276 285.679 202.704 285.814 203.11H288.742V206.387C289.107 206.538 289.493 206.643 289.892 206.695V203.11H291.043V206.695C291.443 206.644 291.828 206.539 292.193 206.387V203.11H295.122C295.321 202.508 295.43 201.858 295.43 201.179C295.43 200.499 295.321 199.849 295.122 199.247H294.44H287.099ZM291.043 201.822H289.893V200.535H291.043V201.822ZM294.237 201.822H292.194V200.535H294.237C294.265 200.745 294.28 200.96 294.28 201.179C294.28 201.397 294.265 201.612 294.237 201.822Z" fill="#9FF9FF"/>
<path d="M290.464 193.037C286.446 193.037 283.188 196.682 283.188 201.178C283.188 205.675 286.446 209.32 290.464 209.32C294.482 209.32 297.74 205.675 297.74 201.178C297.74 196.682 294.482 193.037 290.464 193.037ZM290.464 208.03C287.082 208.03 284.341 204.963 284.341 201.178C284.341 197.394 287.082 194.326 290.464 194.326C293.846 194.326 296.587 197.394 296.587 201.178C296.587 204.963 293.846 208.03 290.464 208.03Z" fill="#9FF9FF"/>
<g filter="url(#filter3_d_3378_38403)">
<circle cx="317.618" cy="194.477" r="4.80659" fill="url(#paint4_radial_3378_38403)"/>
<circle cx="317.618" cy="194.477" r="5.32722" stroke="#EFF2F3" stroke-width="1.04126"/>
</g>
<g filter="url(#filter4_d_3378_38403)">
<circle cx="317.618" cy="207.667" r="4.80659" fill="url(#paint5_radial_3378_38403)"/>
<circle cx="317.618" cy="207.667" r="5.32722" stroke="#EFF2F3" stroke-width="1.04126"/>
</g>
</g>
<path d="M196.619 158.423C191.274 161.649 184.377 159.13 182.43 153.24L178.74 142.076C178.288 140.708 178.156 139.299 178.309 137.937C169.311 124.806 166.02 117.699 178.162 104.805C178.465 100.039 175.87 94.607 178.491 92.6651C185.889 89.6899 183.467 102.063 189.882 109.271C190.194 109.622 190.502 109.969 190.806 110.308C188.619 105.237 191.232 102.493 194.516 103.104C197.612 103.681 200.006 111.42 201.423 119.548C201.515 120.686 201.583 122.175 201.567 123.851C203.374 124.362 205.036 125.402 206.309 126.923L213.268 135.241C217.096 139.817 215.893 146.786 210.738 149.898L196.619 158.423Z" fill="#282522"/>
<g filter="url(#filter5_d_3378_38403)">
<path d="M351.455 166.688C351.455 166.688 386.873 175.47 396.992 190.912C407.111 206.354 389.935 226.253 369.547 238.01" stroke="url(#paint6_linear_3378_38403)" stroke-width="24.9903" stroke-linecap="round"/>
<path d="M390.247 198.805C393.539 199.086 397.506 199.559 405.904 196.174" stroke="#C7D2D7" stroke-opacity="0.3" stroke-width="5.90048" stroke-linecap="round"/>
<path d="M387.184 191.241C389.606 191.058 392.578 190.958 397.147 186.816" stroke="#C7D2D7" stroke-opacity="0.3" stroke-width="5.90048" stroke-linecap="round"/>
<path d="M390.39 207.853C392.311 209.233 394.585 211.023 400.775 210.682" stroke="#C7D2D7" stroke-opacity="0.3" stroke-width="5.90048" stroke-linecap="round"/>
</g>
<path d="M392.364 228.717C397.048 232.845 396.718 240.181 391.686 243.808L382.148 250.684C380.979 251.526 379.675 252.075 378.33 252.339C355.799 271.336 357.003 284.661 347.86 279.123C342.799 272.961 342.483 263.251 347.511 249.919C347.752 249.516 347.99 249.117 348.222 248.725C344.043 252.336 340.64 250.669 340.236 247.353C339.855 244.226 346.517 239.617 353.843 235.822C354.901 235.392 356.3 234.88 357.904 234.391C357.848 232.514 358.341 230.616 359.409 228.945L365.25 219.808C368.463 214.781 375.471 213.833 379.989 217.814L392.364 228.717Z" fill="#282522"/>
<g filter="url(#filter6_d_3378_38403)">
<path d="M323.111 170.181C359.499 164.588 384.463 130.555 378.87 94.1673C373.277 57.7794 339.244 32.8152 302.856 38.4084C266.468 44.0015 241.504 78.0339 247.097 114.422C252.691 150.81 286.723 175.774 323.111 170.181Z" fill="url(#paint7_radial_3378_38403)"/>
<path d="M276.517 141.464C273.52 142.734 270.037 142.011 267.824 139.608C260.385 131.579 253.197 116.992 253.077 106.849C252.576 67.8996 307.944 52.8245 323.699 83.36C330.944 97.4435 327.759 111.826 326.039 117.891C325.481 119.82 324.065 121.431 322.207 122.212L276.517 141.464Z" fill="url(#paint8_linear_3378_38403)"/>
<g style="mix-blend-mode:multiply">
<path d="M324.083 83.2567C316.132 67.798 298.022 64.0621 282.169 69.1517C294.694 68.4404 279.577 94.4139 285.725 106.328C292.97 120.411 317.129 113.776 315.415 119.884C314.858 121.813 313.442 123.425 311.583 124.205L270.837 141.394C272.719 142.228 274.925 142.249 276.909 141.405L322.598 122.152C324.457 121.372 325.872 119.76 326.43 117.831C328.144 111.723 331.379 97.3773 324.083 83.2567Z" fill="url(#paint9_radial_3378_38403)"/>
</g>
<path d="M265.806 88.8516C263.369 90.82 255.969 105.802 264.979 119.355" stroke="white" stroke-width="7.07569" stroke-linecap="round"/>
</g>
<path fill-rule="evenodd" clip-rule="evenodd" d="M280.071 334.625C288.007 334.431 301.148 334.07 313.376 328.63C315.426 327.718 317.877 328.99 318.115 331.22L321.303 361.179C321.332 361.457 321.326 361.737 321.281 362.009L321.575 361.955C322.005 364.008 323.131 370.404 323.963 375.129C324.287 376.968 324.566 378.554 324.742 379.532C325.754 385.147 308.526 388.252 304.917 386.003C303.147 389.178 297.455 390.226 294.905 390.695C294.553 390.76 294.26 390.814 294.046 390.861C279.371 394.08 272.236 393.002 270.922 391.637C270.922 391.637 269.029 391.291 267.99 385.529C266.468 377.08 277.158 373.455 287.097 370.416L277.26 338.576C276.66 336.635 278.04 334.675 280.071 334.625Z" fill="#282522"/>
<path d="M294.531 381.561C282.938 387.563 272.517 386.403 268.971 385.412C267.272 375.985 282.046 372.401 288.147 371.302C298.793 369.383 296.218 370.717 299.788 373.198C304.65 376.577 306.124 375.558 294.531 381.561Z" fill="url(#paint10_linear_3378_38403)"/>
<path fill-rule="evenodd" clip-rule="evenodd" d="M336.143 335.039C344.079 334.845 357.22 334.484 369.448 329.044C371.498 328.132 373.949 329.404 374.187 331.635L377.375 361.593C377.404 361.871 377.398 362.151 377.353 362.423L377.647 362.37C378.077 364.422 379.203 370.818 380.035 375.543C380.359 377.382 380.638 378.968 380.814 379.946C381.826 385.561 364.598 388.666 360.989 386.417C359.219 389.592 353.527 390.64 350.977 391.109C350.625 391.174 350.332 391.228 350.118 391.275C335.443 394.494 328.308 393.416 326.994 392.051C326.994 392.051 325.101 391.705 324.062 385.943C322.54 377.494 333.23 373.869 343.169 370.83L333.332 338.99C332.732 337.049 334.112 335.089 336.143 335.039Z" fill="#282522"/>
<path d="M350.603 381.975C339.01 387.977 328.589 386.817 325.043 385.826C323.344 376.399 338.118 372.815 344.22 371.716C354.865 369.797 352.291 371.131 355.86 373.612C360.722 376.991 362.197 375.972 350.603 381.975Z" fill="url(#paint11_linear_3378_38403)"/>
<defs>
<filter id="filter0_d_3378_38403" x="178.428" y="104.295" width="125.732" height="125.579" filterUnits="userSpaceOnUse" color-interpolation-filters="sRGB">
<feFlood flood-opacity="0" result="BackgroundImageFix"/>
<feColorMatrix in="SourceAlpha" type="matrix" values="0 0 0 0 0 0 0 0 0 0 0 0 0 0 0 0 0 0 127 0" result="hardAlpha"/>
<feOffset dy="1.38835"/>
<feGaussianBlur stdDeviation="0.694174"/>
<feComposite in2="hardAlpha" operator="out"/>
<feColorMatrix type="matrix" values="0 0 0 0 0 0 0 0 0 0 0 0 0 0 0 0 0 0 0.25 0"/>
<feBlend mode="normal" in2="BackgroundImageFix" result="effect1_dropShadow_3378_38403"/>
<feBlend mode="normal" in="SourceGraphic" in2="effect1_dropShadow_3378_38403" result="shape"/>
</filter>
<filter id="filter1_d_3378_38403" x="271.388" y="155.898" width="99.6141" height="195.757" filterUnits="userSpaceOnUse" color-interpolation-filters="sRGB">
<feFlood flood-opacity="0" result="BackgroundImageFix"/>
<feColorMatrix in="SourceAlpha" type="matrix" values="0 0 0 0 0 0 0 0 0 0 0 0 0 0 0 0 0 0 127 0" result="hardAlpha"/>
<feOffset dy="1.38835"/>
<feGaussianBlur stdDeviation="0.694174"/>
<feComposite in2="hardAlpha" operator="out"/>
<feColorMatrix type="matrix" values="0 0 0 0 0 0 0 0 0 0 0 0 0 0 0 0 0 0 0.25 0"/>
<feBlend mode="normal" in2="BackgroundImageFix" result="effect1_dropShadow_3378_38403"/>
<feBlend mode="normal" in="SourceGraphic" in2="effect1_dropShadow_3378_38403" result="shape"/>
</filter>
<filter id="filter2_d_3378_38403" x="275.502" y="188.524" width="31.1434" height="27.7674" filterUnits="userSpaceOnUse" color-interpolation-filters="sRGB">
<feFlood flood-opacity="0" result="BackgroundImageFix"/>
<feColorMatrix in="SourceAlpha" type="matrix" values="0 0 0 0 0 0 0 0 0 0 0 0 0 0 0 0 0 0 127 0" result="hardAlpha"/>
<feOffset dy="1.38835"/>
<feGaussianBlur stdDeviation="0.694174"/>
<feComposite in2="hardAlpha" operator="out"/>
<feColorMatrix type="matrix" values="0 0 0 0 0 0 0 0 0 0 0 0 0 0 0 0 0 0 0.25 0"/>
<feBlend mode="normal" in2="BackgroundImageFix" result="effect1_dropShadow_3378_38403"/>
<feBlend mode="normal" in="SourceGraphic" in2="effect1_dropShadow_3378_38403" result="shape"/>
</filter>
<filter id="filter3_d_3378_38403" x="310.382" y="188.628" width="14.4725" height="14.4725" filterUnits="userSpaceOnUse" color-interpolation-filters="sRGB">
<feFlood flood-opacity="0" result="BackgroundImageFix"/>
<feColorMatrix in="SourceAlpha" type="matrix" values="0 0 0 0 0 0 0 0 0 0 0 0 0 0 0 0 0 0 127 0" result="hardAlpha"/>
<feOffset dy="1.38835"/>
<feGaussianBlur stdDeviation="0.694174"/>
<feComposite in2="hardAlpha" operator="out"/>
<feColorMatrix type="matrix" values="0 0 0 0 0 0 0 0 0 0 0 0 0 0 0 0 0 0 0.25 0"/>
<feBlend mode="normal" in2="BackgroundImageFix" result="effect1_dropShadow_3378_38403"/>
<feBlend mode="normal" in="SourceGraphic" in2="effect1_dropShadow_3378_38403" result="shape"/>
</filter>
<filter id="filter4_d_3378_38403" x="310.382" y="201.819" width="14.4725" height="14.4725" filterUnits="userSpaceOnUse" color-interpolation-filters="sRGB">
<feFlood flood-opacity="0" result="BackgroundImageFix"/>
<feColorMatrix in="SourceAlpha" type="matrix" values="0 0 0 0 0 0 0 0 0 0 0 0 0 0 0 0 0 0 127 0" result="hardAlpha"/>
<feOffset dy="1.38835"/>
<feGaussianBlur stdDeviation="0.694174"/>
<feComposite in2="hardAlpha" operator="out"/>
<feColorMatrix type="matrix" values="0 0 0 0 0 0 0 0 0 0 0 0 0 0 0 0 0 0 0.25 0"/>
<feBlend mode="normal" in2="BackgroundImageFix" result="effect1_dropShadow_3378_38403"/>
<feBlend mode="normal" in="SourceGraphic" in2="effect1_dropShadow_3378_38403" result="shape"/>
</filter>
<filter id="filter5_d_3378_38403" x="332.609" y="135.969" width="104.339" height="123.059" filterUnits="userSpaceOnUse" color-interpolation-filters="sRGB">
<feFlood flood-opacity="0" result="BackgroundImageFix"/>
<feColorMatrix in="SourceAlpha" type="matrix" values="0 0 0 0 0 0 0 0 0 0 0 0 0 0 0 0 0 0 127 0" result="hardAlpha"/>
<feOffset dy="1.38835"/>
<feGaussianBlur stdDeviation="0.694174"/>
<feComposite in2="hardAlpha" operator="out"/>
<feColorMatrix type="matrix" values="0 0 0 0 0 0 0 0 0 0 0 0 0 0 0 0 0 0 0.25 0"/>
<feBlend mode="normal" in2="BackgroundImageFix" result="effect1_dropShadow_3378_38403"/>
<feBlend mode="normal" in="SourceGraphic" in2="effect1_dropShadow_3378_38403" result="shape"/>
</filter>
<filter id="filter6_d_3378_38403" x="235.582" y="28.2812" width="154.804" height="154.804" filterUnits="userSpaceOnUse" color-interpolation-filters="sRGB">
<feFlood flood-opacity="0" result="BackgroundImageFix"/>
<feColorMatrix in="SourceAlpha" type="matrix" values="0 0 0 0 0 0 0 0 0 0 0 0 0 0 0 0 0 0 127 0" result="hardAlpha"/>
<feOffset dy="1.38835"/>
<feGaussianBlur stdDeviation="0.694174"/>
<feComposite in2="hardAlpha" operator="out"/>
<feColorMatrix type="matrix" values="0 0 0 0 0 0 0 0 0 0 0 0 0 0 0 0 0 0 0.25 0"/>
<feBlend mode="normal" in2="BackgroundImageFix" result="effect1_dropShadow_3378_38403"/>
<feBlend mode="normal" in="SourceGraphic" in2="effect1_dropShadow_3378_38403" result="shape"/>
</filter>
<linearGradient id="paint0_linear_3378_38403" x1="-449.969" y1="210.923" x2="637.549" y2="320.942" gradientUnits="userSpaceOnUse">
<stop offset="0.46875" stop-color="#D6D6E8"/>
<stop offset="1" stop-color="#F6F6FF"/>
</linearGradient>
<linearGradient id="paint1_linear_3378_38403" x1="266.932" y1="193.983" x2="221.512" y2="148.871" gradientUnits="userSpaceOnUse">
<stop stop-color="#EFF2F3"/>
<stop offset="1" stop-color="white"/>
</linearGradient>
<linearGradient id="paint2_linear_3378_38403" x1="318.939" y1="155.898" x2="318.939" y2="283.748" gradientUnits="userSpaceOnUse">
<stop stop-color="#E3E9EB"/>
<stop offset="0.56737" stop-color="white"/>
</linearGradient>
<linearGradient id="paint3_linear_3378_38403" x1="290.477" y1="160.334" x2="290.477" y2="212.474" gradientUnits="userSpaceOnUse">
<stop stop-color="#50D5FF"/>
<stop offset="1" stop-color="#2C3585"/>
</linearGradient>
<radialGradient id="paint4_radial_3378_38403" cx="0" cy="0" r="1" gradientUnits="userSpaceOnUse" gradientTransform="translate(317.618 194.477) rotate(90) scale(7.00435)">
<stop stop-color="#51E0FF"/>
<stop offset="1" stop-color="#4E7CB4"/>
</radialGradient>
<radialGradient id="paint5_radial_3378_38403" cx="0" cy="0" r="1" gradientUnits="userSpaceOnUse" gradientTransform="translate(317.618 207.667) rotate(90) scale(7.00435)">
<stop stop-color="#FFB3B3"/>
<stop offset="1" stop-color="#F20000"/>
</radialGradient>
<linearGradient id="paint6_linear_3378_38403" x1="375.368" y1="159.104" x2="394.522" y2="220.187" gradientUnits="userSpaceOnUse">
<stop stop-color="#EFF2F3"/>
<stop offset="1" stop-color="white"/>
</linearGradient>
<radialGradient id="paint7_radial_3378_38403" cx="0" cy="0" r="1" gradientUnits="userSpaceOnUse" gradientTransform="translate(348.131 189.358) rotate(-8.73846) scale(111.445)">
<stop offset="0.381" stop-color="#BFCCD1"/>
<stop offset="0.7578" stop-color="white"/>
</radialGradient>
<linearGradient id="paint8_linear_3378_38403" x1="253.212" y1="109.156" x2="328.053" y2="97.6522" gradientUnits="userSpaceOnUse">
<stop stop-color="#FFF668"/>
<stop offset="0.29" stop-color="#FF9C4C"/>
<stop offset="1" stop-color="#880000"/>
</linearGradient>
<radialGradient id="paint9_radial_3378_38403" cx="0" cy="0" r="1" gradientUnits="userSpaceOnUse" gradientTransform="translate(286.812 116.637) rotate(-8.73846) scale(59.5973)">
<stop stop-color="white"/>
<stop offset="0.9385" stop-color="#880000"/>
</radialGradient>
<linearGradient id="paint10_linear_3378_38403" x1="282.55" y1="364.05" x2="291.793" y2="378.759" gradientUnits="userSpaceOnUse">
<stop stop-color="#504A44"/>
<stop offset="1" stop-color="#504A44" stop-opacity="0"/>
</linearGradient>
<linearGradient id="paint11_linear_3378_38403" x1="338.622" y1="364.464" x2="347.866" y2="379.174" gradientUnits="userSpaceOnUse">
<stop stop-color="#504A44"/>
<stop offset="1" stop-color="#504A44" stop-opacity="0"/>
</linearGradient>
</defs>
</svg>
