<svg width="503" height="198" viewBox="0 0 503 198" fill="none" xmlns="http://www.w3.org/2000/svg">
<path d="M43.2396 98.4224H42.8993C49.8641 84.7317 64.0864 75.3505 80.5 75.3505C91.088 75.3505 100.762 79.2521 108.165 85.6966H108.424H125.229C115.279 71.7331 98.953 62.6248 80.5 62.6248C52.3395 62.6248 29.1355 83.8316 25.9822 111.148L61.4141 111.145V123.868H25.9766L25.9906 123.967C26.5054 128.355 27.5378 132.583 29.023 136.594H61.4085V168.98C65.4451 170.476 69.7123 171.514 74.1315 172.026V136.597H86.8545V172.029C91.2764 171.517 95.5408 170.482 99.5774 168.982V136.594H131.963C134.168 130.65 135.372 124.22 135.372 117.508C135.372 110.797 134.168 104.366 131.963 98.4224H124.427H43.2396ZM86.8573 123.871H74.1343V111.148H86.8573V123.871ZM122.177 123.871H99.5831V111.148H122.177C122.492 113.224 122.655 115.348 122.655 117.511C122.655 119.671 122.492 121.795 122.177 123.871Z" fill="#1F2337"/>
<path d="M80.4616 37.0461C36.0227 37.0461 0 73.0716 0 117.508C0 161.944 36.0227 197.969 80.4616 197.969C124.901 197.969 160.923 161.944 160.923 117.508C160.923 73.0716 124.901 37.0461 80.4616 37.0461ZM80.4616 185.224C43.0635 185.224 12.7455 154.906 12.7455 117.508C12.7455 80.1096 43.0635 49.7916 80.4616 49.7916C117.86 49.7916 148.178 80.1096 148.178 117.508C148.178 154.906 117.86 185.224 80.4616 185.224Z" fill="#1F2337"/>
<path d="M234.246 107.352C216.435 102.789 212.019 100.581 212.019 93.8105V93.5152C212.019 88.5109 216.581 84.5391 225.268 84.5391C233.951 84.5391 242.93 88.3647 252.058 94.6938L263.833 77.622C253.383 69.231 240.576 64.5193 225.563 64.5193C204.514 64.5193 189.501 76.885 189.501 95.5799V95.8724C189.501 116.334 202.896 122.075 223.65 127.372C240.871 131.788 244.404 134.733 244.404 140.472V140.767C244.404 146.801 238.812 150.483 229.538 150.483C217.763 150.483 208.047 145.625 198.775 137.968L185.38 154.013C197.746 165.051 213.495 170.5 229.096 170.5C251.321 170.5 266.925 159.018 266.925 138.559V138.264C266.922 120.306 255.147 112.798 234.246 107.352Z" fill="#1F2337"/>
<path d="M433.044 65.9922V86.8924H456.431V169.028H479.1V86.8924H502.487V65.9922H433.044Z" fill="#1F2337"/>
<path d="M360.058 86.8924H383.444V169.028H406.114V86.8924H429.501V65.9922H360.058V86.8924Z" fill="#1F2337"/>
<path d="M331.925 91.3888C326.282 88.5252 319.902 86.9077 313.151 86.9077C290.198 86.9077 271.522 105.583 271.522 128.537C271.522 151.49 290.198 170.165 313.151 170.165C319.902 170.165 326.279 168.548 331.925 165.684V170.165H354.78V86.9077H331.925V91.3888ZM313.151 147.313C302.8 147.313 294.378 138.891 294.378 128.539C294.378 118.185 302.8 109.766 313.151 109.766C323.503 109.766 331.925 118.188 331.925 128.539C331.925 138.891 323.5 147.313 313.151 147.313Z" fill="#1F2337"/>
<path d="M141.37 13.3855C102.861 8.17547 79.962 26.9811 73.326 37.0352C102.374 40.8476 140.578 78.3389 148.155 79.6917C155.732 81.0446 149.726 61.8469 164.438 61.8469C175.387 61.8469 171.79 68.2949 182.017 68.8438C192.244 69.3927 189.506 19.898 141.37 13.3855Z" fill="url(#paint0_linear_13213_66400)"/>
<g style="mix-blend-mode:multiply">
<path d="M175.512 66.7759L176.726 66.6302L178.065 60.4178C175.544 58.5069 169.001 51.5695 162.992 39.1075C155.481 23.5299 136.849 36.7376 149.315 47.3395C157.244 54.0825 156.399 62.4182 154.165 66.9281C156.351 64.8259 158.926 62.3922 164.518 61.96C170.268 61.5156 172.009 63.3106 173.84 65.1976C174.359 65.7326 174.885 66.275 175.512 66.7759Z" fill="url(#paint1_linear_13213_66400)"/>
</g>
<g filter="url(#filter0_d_13213_66400)">
<path d="M72.2244 35.8313C82.1043 35.3109 104.315 46.4154 115.625 57.0701C128.155 68.8752 138.789 85.5537 150.194 88.1223" stroke="#FAFAFA" stroke-width="26.944" stroke-linecap="round"/>
</g>
<circle cx="183.897" cy="62.9488" r="13.4113" transform="rotate(10.3058 183.897 62.9488)" fill="#FAFAFA"/>
<defs>
<filter id="filter0_d_13213_66400" x="49.7706" y="22.342" width="122.88" height="97.2178" filterUnits="userSpaceOnUse" color-interpolation-filters="sRGB">
<feFlood flood-opacity="0" result="BackgroundImageFix"/>
<feColorMatrix in="SourceAlpha" type="matrix" values="0 0 0 0 0 0 0 0 0 0 0 0 0 0 0 0 0 0 127 0" result="hardAlpha"/>
<feOffset dy="8.98132"/>
<feGaussianBlur stdDeviation="4.49066"/>
<feComposite in2="hardAlpha" operator="out"/>
<feColorMatrix type="matrix" values="0 0 0 0 0 0 0 0 0 0 0 0 0 0 0 0 0 0 0.25 0"/>
<feBlend mode="normal" in2="BackgroundImageFix" result="effect1_dropShadow_13213_66400"/>
<feBlend mode="normal" in="SourceGraphic" in2="effect1_dropShadow_13213_66400" result="shape"/>
</filter>
<linearGradient id="paint0_linear_13213_66400" x1="102.2" y1="1.09518" x2="244.857" y2="165.644" gradientUnits="userSpaceOnUse">
<stop stop-color="#FF1523"/>
<stop offset="1" stop-color="#4048FF"/>
</linearGradient>
<linearGradient id="paint1_linear_13213_66400" x1="169.623" y1="46.3184" x2="147.515" y2="55.147" gradientUnits="userSpaceOnUse">
<stop stop-color="#B02A7E"/>
<stop offset="1" stop-color="#B02A7E" stop-opacity="0"/>
</linearGradient>
</defs>
</svg>
