<svg width="856" height="274" viewBox="0 0 856 274" fill="none" xmlns="http://www.w3.org/2000/svg">
<g clip-path="url(#clip0)">
<path d="M74.7246 105.033H74.023C85.9508 81.8487 109.807 65.6897 137.872 65.6897C155.764 65.6897 172.252 72.3641 184.882 83.2538H185.233H214C196.81 59.7179 169.095 43.9102 137.872 43.9102C90.1607 43.9102 50.8689 80.0923 45.6066 126.462H105.597V148.241H45.6066C46.3082 155.618 48.0623 162.995 50.8689 169.669H105.948V224.82C112.964 227.279 119.98 229.036 127.698 230.09V169.669H149.449V229.738C156.816 229.036 164.184 227.279 171.2 224.469V169.669H226.279C230.138 159.482 231.892 148.592 231.892 137.351C231.892 126.11 229.787 114.869 226.279 105.033H213.649H74.7246ZM148.748 148.241H126.997V126.462H148.748V148.241ZM208.738 148.241H170.498V126.462H208.738C209.439 129.974 209.439 133.487 209.439 137.351C209.439 140.864 209.089 144.728 208.738 148.241Z" fill="white"/>
<path d="M137.872 0.702553C62.4459 0.702553 1.40326 61.8256 1.40326 137.351C1.40326 212.877 62.4459 274 137.872 274C213.298 274 274.341 212.877 274.341 137.351C274.341 61.8256 213.298 0.702553 137.872 0.702553ZM137.872 252.221C74.3737 252.221 23.1541 200.582 23.1541 137.351C23.1541 74.1205 74.3737 22.1308 137.872 22.1308C201.37 22.1308 252.59 73.7692 252.59 137C252.59 200.231 201.37 252.221 137.872 252.221Z" fill="white"/>
<path d="M398.882 120.138C368.711 112.41 361.344 108.546 361.344 97.3051V96.9539C361.344 88.5231 369.062 81.8487 383.797 81.8487C398.531 81.8487 413.616 88.5231 429.403 99.0616L449.4 69.9051C431.508 55.5026 410.108 47.7744 384.498 47.7744C348.715 47.7744 323.456 68.8513 323.456 100.467V100.818C323.456 135.595 346.259 145.431 381.341 154.213C410.459 161.59 416.423 166.859 416.423 176.344V176.695C416.423 186.882 406.951 193.205 391.164 193.205C371.167 193.205 354.679 185.126 338.892 171.777L315.738 199.177C336.787 217.795 363.449 227.279 389.761 227.279C427.298 227.279 453.961 207.608 453.961 173.182V172.831C454.311 141.918 434.315 129.272 398.882 120.138Z" fill="white"/>
<path d="M736.02 49.8821V85.3616H775.662V224.821H814.252V85.3616H853.895V49.8821H736.02Z" fill="white"/>
<path d="M612.18 85.3616H651.823V224.821H690.413V85.3616H730.056V49.8821H612.18V85.3616Z" fill="white"/>
<path d="M564.469 93.0897C554.997 88.1718 544.121 85.3615 532.544 85.3615C493.603 85.3615 462.03 116.977 462.03 155.969C462.03 194.962 493.603 226.577 532.544 226.577C544.121 226.577 554.646 223.767 564.469 218.849V226.577H603.41V85.3615H564.469V93.0897ZM532.544 187.936C515.003 187.936 500.62 173.533 500.62 155.969C500.62 138.405 515.003 124.003 532.544 124.003C550.085 124.003 564.469 138.405 564.469 155.969C564.469 173.533 550.085 187.936 532.544 187.936Z" fill="white"/>
</g>
<defs>
<clipPath id="clip0">
<rect width="856" height="274" fill="white"/>
</clipPath>
</defs>
</svg>
