<svg width="206" height="199" viewBox="0 0 206 199" fill="none" xmlns="http://www.w3.org/2000/svg">
<path d="M44.2396 98.6218H43.8993C50.8641 84.9312 65.0864 75.55 81.5 75.55C92.088 75.55 101.762 79.4516 109.165 85.896H109.424H126.229C116.279 71.9325 99.953 62.8242 81.5 62.8242C53.3395 62.8242 30.1355 84.0311 26.9822 111.348L62.4141 111.345V124.068H26.9766L26.9906 124.166C27.5054 128.554 28.5378 132.782 30.023 136.794H62.4085V169.179C66.4451 170.676 70.7123 171.714 75.1315 172.225V136.796H87.8545V172.228C92.2764 171.716 96.5408 170.681 100.577 169.182V136.794H132.963C135.168 130.85 136.372 124.419 136.372 117.708C136.372 110.996 135.168 104.566 132.963 98.6218H125.427H44.2396ZM87.8573 124.071H75.1343V111.348H87.8573V124.071ZM123.177 124.071H100.583V111.348H123.177C123.492 113.424 123.655 115.547 123.655 117.711C123.655 119.871 123.492 121.995 123.177 124.071Z" fill="white"/>
<path d="M81.4616 37.2457C37.0227 37.2457 1 73.2712 1 117.707C1 162.144 37.0227 198.169 81.4616 198.169C125.901 198.169 161.923 162.144 161.923 117.707C161.923 73.2712 125.901 37.2457 81.4616 37.2457ZM81.4616 185.424C44.0635 185.424 13.7455 155.106 13.7455 117.707C13.7455 80.3092 44.0635 49.9912 81.4616 49.9912C118.86 49.9912 149.178 80.3092 149.178 117.707C149.178 155.106 118.86 185.424 81.4616 185.424Z" fill="white"/>
<path d="M142.37 13.5851C103.861 8.37505 80.962 27.1807 74.326 37.2348C103.374 41.0472 141.578 78.5385 149.155 79.8913C156.732 81.2442 150.726 62.0465 165.438 62.0465C176.387 62.0465 172.79 68.4945 183.017 69.0434C193.244 69.5922 190.506 20.0976 142.37 13.5851Z" fill="url(#paint0_linear_13213_66376)"/>
<g style="mix-blend-mode:multiply">
<path d="M176.512 66.9756L177.726 66.8299L179.065 60.6175C176.544 58.7066 170.001 51.7692 163.992 39.3072C156.481 23.7296 137.849 36.9373 150.315 47.5392C158.244 54.2822 157.399 62.6179 155.165 67.1278C157.351 65.0256 159.926 62.5919 165.518 62.1597C171.268 61.7153 173.009 63.5103 174.84 65.3973C175.359 65.9323 175.885 66.4747 176.512 66.9756Z" fill="url(#paint1_linear_13213_66376)"/>
</g>
<g filter="url(#filter0_d_13213_66376)">
<path d="M73.2244 36.031C83.1043 35.5106 105.315 46.6151 116.625 57.2698C129.155 69.0749 139.789 85.7534 151.194 88.322" stroke="#FAFAFA" stroke-width="26.944" stroke-linecap="round"/>
</g>
<circle cx="184.897" cy="63.1485" r="13.4113" transform="rotate(10.3058 184.897 63.1485)" fill="#FAFAFA"/>
<defs>
<filter id="filter0_d_13213_66376" x="50.7706" y="22.5417" width="122.88" height="97.2178" filterUnits="userSpaceOnUse" color-interpolation-filters="sRGB">
<feFlood flood-opacity="0" result="BackgroundImageFix"/>
<feColorMatrix in="SourceAlpha" type="matrix" values="0 0 0 0 0 0 0 0 0 0 0 0 0 0 0 0 0 0 127 0" result="hardAlpha"/>
<feOffset dy="8.98132"/>
<feGaussianBlur stdDeviation="4.49066"/>
<feComposite in2="hardAlpha" operator="out"/>
<feColorMatrix type="matrix" values="0 0 0 0 0 0 0 0 0 0 0 0 0 0 0 0 0 0 0.25 0"/>
<feBlend mode="normal" in2="BackgroundImageFix" result="effect1_dropShadow_13213_66376"/>
<feBlend mode="normal" in="SourceGraphic" in2="effect1_dropShadow_13213_66376" result="shape"/>
</filter>
<linearGradient id="paint0_linear_13213_66376" x1="103.2" y1="1.29477" x2="245.857" y2="165.843" gradientUnits="userSpaceOnUse">
<stop stop-color="#FF1523"/>
<stop offset="1" stop-color="#4048FF"/>
</linearGradient>
<linearGradient id="paint1_linear_13213_66376" x1="170.623" y1="46.5181" x2="148.515" y2="55.3467" gradientUnits="userSpaceOnUse">
<stop stop-color="#B02A7E"/>
<stop offset="1" stop-color="#B02A7E" stop-opacity="0"/>
</linearGradient>
</defs>
</svg>
