<svg width="503" height="199" viewBox="0 0 503 199" fill="none" xmlns="http://www.w3.org/2000/svg">
<path d="M43.2396 99.0142H42.8993C49.8641 85.3235 64.0864 75.9423 80.5 75.9423C91.088 75.9423 100.762 79.8439 108.165 86.2884H108.424H125.229C115.279 72.3249 98.953 63.2166 80.5 63.2166C52.3395 63.2166 29.1355 84.4234 25.9822 111.74L61.4141 111.737V124.46H25.9766L25.9906 124.559C26.5054 128.947 27.5378 133.175 29.023 137.186H61.4085V169.571C65.4451 171.068 69.7123 172.106 74.1315 172.618V137.189H86.8545V172.621C91.2764 172.109 95.5408 171.074 99.5774 169.574V137.186H131.963C134.168 131.242 135.372 124.812 135.372 118.1C135.372 111.388 134.168 104.958 131.963 99.0142H124.427H43.2396ZM86.8573 124.463H74.1343V111.74H86.8573V124.463ZM122.177 124.463H99.5831V111.74H122.177C122.492 113.816 122.655 115.94 122.655 118.103C122.655 120.263 122.492 122.387 122.177 124.463Z" fill="white"/>
<path d="M80.4616 37.6381C36.0227 37.6381 0 73.6635 0 118.1C0 162.536 36.0227 198.561 80.4616 198.561C124.901 198.561 160.923 162.536 160.923 118.1C160.923 73.6635 124.901 37.6381 80.4616 37.6381ZM80.4616 185.816C43.0635 185.816 12.7455 155.498 12.7455 118.1C12.7455 80.7015 43.0635 50.3835 80.4616 50.3835C117.86 50.3835 148.178 80.7015 148.178 118.1C148.178 155.498 117.86 185.816 80.4616 185.816Z" fill="white"/>
<path d="M234.246 107.944C216.435 103.381 212.019 101.173 212.019 94.4023V94.107C212.019 89.1027 216.581 85.1309 225.268 85.1309C233.951 85.1309 242.93 88.9565 252.058 95.2856L263.833 78.2138C253.383 69.8228 240.576 65.1111 225.563 65.1111C204.514 65.1111 189.501 77.4768 189.501 96.1717V96.4642C189.501 116.926 202.896 122.667 223.65 127.964C240.871 132.38 244.404 135.325 244.404 141.064V141.359C244.404 147.393 238.812 151.075 229.538 151.075C217.763 151.075 208.047 146.217 198.775 138.56L185.38 154.605C197.746 165.643 213.495 171.092 229.096 171.092C251.321 171.092 266.925 159.609 266.925 139.151V138.855C266.922 120.898 255.147 113.39 234.246 107.944Z" fill="white"/>
<path d="M433.044 66.5841V87.4843H456.431V169.62H479.1V87.4843H502.487V66.5841H433.044Z" fill="white"/>
<path d="M360.058 87.4843H383.444V169.62H406.114V87.4843H429.501V66.5841H360.058V87.4843Z" fill="white"/>
<path d="M331.925 91.9808C326.282 89.1172 319.902 87.4998 313.151 87.4998C290.198 87.4998 271.522 106.175 271.522 129.129C271.522 152.082 290.198 170.757 313.151 170.757C319.902 170.757 326.279 169.14 331.925 166.276V170.757H354.78V87.4998H331.925V91.9808ZM313.151 147.905C302.8 147.905 294.378 139.483 294.378 129.131C294.378 118.777 302.8 110.358 313.151 110.358C323.503 110.358 331.925 118.78 331.925 129.131C331.925 139.483 323.5 147.905 313.151 147.905Z" fill="white"/>
<path d="M141.37 13.9774C102.861 8.76738 79.962 27.5731 73.326 37.6272C102.374 41.4395 140.578 78.9308 148.155 80.2837C155.732 81.6365 149.726 62.4388 164.438 62.4388C175.387 62.4388 171.79 68.8868 182.017 69.4357C192.244 69.9846 189.506 20.4899 141.37 13.9774Z" fill="url(#paint0_linear_13213_66374)"/>
<g style="mix-blend-mode:multiply">
<path d="M175.512 67.3679L176.726 67.2223L178.065 61.0099C175.544 59.0989 169.001 52.1616 162.992 39.6995C155.481 24.122 136.849 37.3296 149.315 47.9316C157.244 54.6745 156.399 63.0102 154.165 67.5201C156.351 65.418 158.926 62.9843 164.518 62.5521C170.268 62.1076 172.009 63.9026 173.84 65.7896C174.359 66.3246 174.885 66.8671 175.512 67.3679Z" fill="url(#paint1_linear_13213_66374)"/>
</g>
<g filter="url(#filter0_d_13213_66374)">
<path d="M72.2244 36.4234C82.1043 35.9029 104.315 47.0074 115.625 57.6622C128.155 69.4673 138.789 86.1457 150.194 88.7143" stroke="#FAFAFA" stroke-width="26.944" stroke-linecap="round"/>
</g>
<circle cx="183.897" cy="63.5408" r="13.4113" transform="rotate(10.3058 183.897 63.5408)" fill="#FAFAFA"/>
<defs>
<filter id="filter0_d_13213_66374" x="49.7706" y="22.9341" width="122.88" height="97.2178" filterUnits="userSpaceOnUse" color-interpolation-filters="sRGB">
<feFlood flood-opacity="0" result="BackgroundImageFix"/>
<feColorMatrix in="SourceAlpha" type="matrix" values="0 0 0 0 0 0 0 0 0 0 0 0 0 0 0 0 0 0 127 0" result="hardAlpha"/>
<feOffset dy="8.98132"/>
<feGaussianBlur stdDeviation="4.49066"/>
<feComposite in2="hardAlpha" operator="out"/>
<feColorMatrix type="matrix" values="0 0 0 0 0 0 0 0 0 0 0 0 0 0 0 0 0 0 0.25 0"/>
<feBlend mode="normal" in2="BackgroundImageFix" result="effect1_dropShadow_13213_66374"/>
<feBlend mode="normal" in="SourceGraphic" in2="effect1_dropShadow_13213_66374" result="shape"/>
</filter>
<linearGradient id="paint0_linear_13213_66374" x1="102.2" y1="1.6871" x2="244.857" y2="166.236" gradientUnits="userSpaceOnUse">
<stop stop-color="#FF1523"/>
<stop offset="1" stop-color="#4048FF"/>
</linearGradient>
<linearGradient id="paint1_linear_13213_66374" x1="169.623" y1="46.9104" x2="147.515" y2="55.739" gradientUnits="userSpaceOnUse">
<stop stop-color="#B02A7E"/>
<stop offset="1" stop-color="#B02A7E" stop-opacity="0"/>
</linearGradient>
</defs>
</svg>
