<svg width="28" height="27" viewBox="0 0 28 27" fill="none" xmlns="http://www.w3.org/2000/svg">
<path d="M19.249 22.4535L18.5151 16.5782C18.4111 15.746 18.0067 14.9804 17.3779 14.4255C16.749 13.8706 15.9391 13.5645 15.1005 13.5648H12.5733C11.735 13.5651 10.9257 13.8714 10.2973 14.4263C9.66895 14.9811 9.26484 15.7464 9.16089 16.5782L8.4259 22.4535C8.38556 22.7763 8.41436 23.104 8.51038 23.4148C8.6064 23.7256 8.76745 24.0124 8.98283 24.2562C9.19821 24.5 9.46299 24.6952 9.75959 24.8288C10.0562 24.9624 10.3778 25.0314 10.7031 25.0312H16.9729C17.2981 25.0312 17.6196 24.9621 17.9161 24.8285C18.2125 24.6948 18.4772 24.4996 18.6924 24.2558C18.9077 24.012 19.0686 23.7253 19.1646 23.4145C19.2605 23.1038 19.2893 22.7762 19.249 22.4535V22.4535Z" stroke="#1F2337" stroke-width="2.29327" stroke-linecap="round" stroke-linejoin="round"/>
<path d="M13.8364 8.97832C15.7362 8.97832 17.2763 7.43822 17.2763 5.53841C17.2763 3.63861 15.7362 2.09851 13.8364 2.09851C11.9366 2.09851 10.3965 3.63861 10.3965 5.53841C10.3965 7.43822 11.9366 8.97832 13.8364 8.97832Z" stroke="#1F2337" stroke-width="2.29327"/>
<path d="M4.66436 12.4182C5.9309 12.4182 6.95763 11.3915 6.95763 10.1249C6.95763 8.8584 5.9309 7.83167 4.66436 7.83167C3.39782 7.83167 2.37109 8.8584 2.37109 10.1249C2.37109 11.3915 3.39782 12.4182 4.66436 12.4182Z" stroke="#1F2337" stroke-width="2.29327"/>
<path d="M23.0101 12.4182C24.2766 12.4182 25.3033 11.3915 25.3033 10.1249C25.3033 8.8584 24.2766 7.83167 23.0101 7.83167C21.7435 7.83167 20.7168 8.8584 20.7168 10.1249C20.7168 11.3915 21.7435 12.4182 23.0101 12.4182Z" stroke="#1F2337" stroke-width="2.29327"/>
<path d="M4.66492 15.8582H4.31405C3.77119 15.8581 3.24591 16.0506 2.83166 16.4014C2.4174 16.7523 2.14104 17.2387 2.05174 17.7742L1.66991 20.0674C1.61512 20.396 1.63256 20.7326 1.72102 21.0537C1.80948 21.3748 1.96684 21.6729 2.18215 21.927C2.39746 22.1812 2.66555 22.3854 2.96778 22.5254C3.27001 22.6655 3.59912 22.738 3.93222 22.738H8.10482" stroke="#1F2337" stroke-width="2.29327" stroke-linecap="round" stroke-linejoin="round"/>
<path d="M23.0102 15.8582H23.3611C23.9039 15.8581 24.4292 16.0506 24.8435 16.4014C25.2577 16.7523 25.5341 17.2387 25.6234 17.7742L26.0052 20.0674C26.06 20.396 26.0426 20.7326 25.9541 21.0537C25.8657 21.3748 25.7083 21.6729 25.493 21.927C25.2777 22.1812 25.0096 22.3854 24.7074 22.5254C24.4051 22.6655 24.076 22.738 23.7429 22.738H19.5703" stroke="#1F2337" stroke-width="2.29327" stroke-linecap="round" stroke-linejoin="round"/>
</svg>
