<svg width="48" height="48" viewBox="0 0 48 48" fill="none" xmlns="http://www.w3.org/2000/svg">
<circle cx="24" cy="24" r="24" fill="#FFA318"/>
<path opacity="0.5" d="M23.9994 8.16669C20.8678 8.16669 17.8066 9.0953 15.2028 10.8351C12.599 12.5749 10.5697 15.0477 9.37126 17.9409C8.17288 20.834 7.85932 24.0176 8.47026 27.089C9.08119 30.1603 10.5892 32.9815 12.8035 35.1959C15.0178 37.4102 17.8391 38.9182 20.9104 39.5291C23.9818 40.1401 27.1653 39.8265 30.0585 38.6281C32.9517 37.4297 35.4245 35.4003 37.1643 32.7965C38.9041 30.1928 39.8327 27.1316 39.8327 24C39.8327 21.9208 39.4231 19.8619 38.6274 17.9409C37.8317 16.0199 36.6655 14.2744 35.1952 12.8042C33.725 11.3339 31.9795 10.1676 30.0585 9.37193C28.1375 8.57623 26.0786 8.16669 23.9994 8.16669V8.16669ZM23.9994 36.6667C21.4941 36.6667 19.0452 35.9238 16.9621 34.532C14.8791 33.1401 13.2556 31.1619 12.2969 28.8473C11.3382 26.5328 11.0873 23.986 11.5761 21.5289C12.0648 19.0718 13.2712 16.8148 15.0427 15.0433C16.8141 13.2719 19.0711 12.0655 21.5282 11.5767C23.9853 11.088 26.5321 11.3388 28.8467 12.2975C31.1612 13.2563 33.1395 14.8798 34.5313 16.9628C35.9231 19.0458 36.666 21.4948 36.666 24C36.666 27.3594 35.3315 30.5812 32.956 32.9567C30.5806 35.3322 27.3588 36.6667 23.9994 36.6667V36.6667Z" fill="white"/>
<path d="M36.6667 24H39.8333C39.8333 21.9208 39.4238 19.8619 38.6281 17.9409C37.8324 16.0199 36.6661 14.2744 35.1959 12.8042C33.7256 11.3339 31.9801 10.1676 30.0592 9.37193C28.1382 8.57623 26.0793 8.16669 24 8.16669V11.3334C27.3594 11.3334 30.5812 12.6679 32.9567 15.0433C35.3321 17.4188 36.6667 20.6406 36.6667 24Z" fill="white"/>
</svg>
