<svg width="22" height="26" viewBox="0 0 22 26" fill="none" xmlns="http://www.w3.org/2000/svg">
<path fill-rule="evenodd" clip-rule="evenodd" d="M18.279 7.57008C19.9816 8.00963 21.2277 9.42368 21.2277 11.1002V21.4638C21.2277 23.4913 19.4052 25.1348 17.157 25.1348H4.7465C2.49826 25.1348 0.675781 23.4913 0.675781 21.4638V11.1002C0.675781 9.59193 1.68412 8.29663 3.12586 7.73149C3.14534 3.53282 6.53051 0.134766 10.7037 0.134766C14.8232 0.134766 18.175 3.44588 18.279 7.57008ZM4.99764 7.4288C5.17175 4.40669 7.66 2.0101 10.7039 2.0101C13.7478 2.0101 16.2359 4.40669 16.41 7.4288H4.99764ZM12.4995 14.1408C12.4995 14.7868 12.0936 15.3379 11.5234 15.5516L12.4984 20.0695H9.40407L10.4015 15.5238C9.86749 15.2928 9.49381 14.7607 9.49381 14.1408C9.49381 13.3092 10.1666 12.635 10.9967 12.635C11.8266 12.635 12.4995 13.3092 12.4995 14.1408Z" fill="#666666" fill-opacity="0.5"/>
</svg>
