<svg width="28" height="14" viewBox="0 0 28 14" fill="none" xmlns="http://www.w3.org/2000/svg">
<path d="M3.35193 6.46597C3.72998 4.55497 5.59323 3.24197 7.6185 3.24197H11.5745C12.2766 3.24197 12.8572 2.68297 12.8572 2.00697C12.8572 1.33097 12.2766 0.771973 11.5745 0.771973H7.75352C4.22955 0.771973 1.08363 3.25497 0.746089 6.63497C0.652741 7.53747 0.756783 8.44879 1.05151 9.31021C1.34624 10.1716 1.82513 10.9641 2.45731 11.6364C3.08949 12.3088 3.86094 12.8462 4.72197 13.214C5.583 13.5818 6.51451 13.7719 7.45648 13.772H11.5745C12.2766 13.772 12.8572 13.213 12.8572 12.537C12.8572 11.861 12.2766 11.302 11.5745 11.302H7.45648C6.8363 11.3001 6.22425 11.166 5.6643 10.9093C5.10435 10.6526 4.61041 10.2797 4.21797 9.81734C3.82554 9.35496 3.54434 8.81463 3.3946 8.23517C3.24486 7.65571 3.23029 7.0515 3.35193 6.46597ZM10.1568 8.57197H18.2579C19.0005 8.57197 19.6081 7.98697 19.6081 7.27197C19.6081 6.55697 19.0005 5.97197 18.2579 5.97197H10.1568C9.41424 5.97197 8.80666 6.55697 8.80666 7.27197C8.80666 7.98697 9.41424 8.57197 10.1568 8.57197ZM20.6612 0.771973H16.8402C16.1381 0.771973 15.5575 1.33097 15.5575 2.00697C15.5575 2.68297 16.1381 3.24197 16.8402 3.24197H20.7962C22.8215 3.24197 24.6848 4.55497 25.0628 6.46597C25.1845 7.0515 25.1699 7.65571 25.0201 8.23517C24.8704 8.81463 24.5892 9.35496 24.1968 9.81734C23.8043 10.2797 23.3104 10.6526 22.7504 10.9093C22.1905 11.166 21.5784 11.3001 20.9583 11.302H16.8402C16.1381 11.302 15.5575 11.861 15.5575 12.537C15.5575 13.213 16.1381 13.772 16.8402 13.772H20.9583C24.9008 13.772 28.0602 10.509 27.6822 6.63497C27.3446 3.25497 24.1852 0.771973 20.6612 0.771973Z" fill="white" fill-opacity="0.7"/>
</svg>
