<svg width="23" height="24" viewBox="0 0 23 24" fill="none" xmlns="http://www.w3.org/2000/svg">
<path d="M6.34322 9.51437H6.29551C7.27163 7.59566 9.26485 6.2809 11.5652 6.2809C13.0491 6.2809 14.4048 6.8277 15.4424 7.73088H15.4787H17.8338C16.4394 5.77392 14.1513 4.49741 11.5652 4.49741C7.61855 4.49741 4.36655 7.4695 3.92462 11.2979L8.89033 11.2975V13.0806H3.92383L3.9258 13.0944C3.99794 13.7094 4.14263 14.3019 4.35078 14.8641H8.88954V19.4028C9.45526 19.6126 10.0533 19.758 10.6726 19.8298V14.8645H12.4557V19.8302C13.0755 19.7584 13.6731 19.6134 14.2388 19.4032V14.8641H18.7776C19.0867 14.0311 19.2554 13.1299 19.2554 12.1892C19.2554 11.2486 19.0867 10.3474 18.7776 9.51437H17.7215H6.34322ZM12.4561 13.081H10.673V11.2979H12.4561V13.081ZM17.4061 13.081H14.2396V11.2979H17.4061C17.4502 11.5888 17.4731 11.8865 17.4731 12.1896C17.4731 12.4924 17.4502 12.79 17.4061 13.081Z" fill="#1F2337"/>
<path d="M11.5588 0.912476C5.33073 0.912476 0.282227 5.96137 0.282227 12.189C0.282227 18.4167 5.33073 23.4656 11.5588 23.4656C17.7868 23.4656 22.8353 18.4167 22.8353 12.189C22.8353 5.96137 17.7868 0.912476 11.5588 0.912476ZM11.5588 21.6793C6.31749 21.6793 2.06848 17.4303 2.06848 12.189C2.06848 6.94774 6.31749 2.69873 11.5588 2.69873C16.8001 2.69873 21.0491 6.94774 21.0491 12.189C21.0491 17.4303 16.8001 21.6793 11.5588 21.6793Z" fill="#1F2337"/>
</svg>
