<svg width="29" height="28" viewBox="0 0 29 28" fill="none" xmlns="http://www.w3.org/2000/svg">
<path d="M8.17372 10.9885H8.11621C9.29304 8.67529 11.6961 7.09018 14.4695 7.09018C16.2585 7.09018 17.893 7.74941 19.144 8.83831H19.1877H22.0271C20.346 6.47895 17.5874 4.93994 14.4695 4.93994C9.7113 4.93994 5.79059 8.52319 5.25779 13.1388L11.2446 13.1383V15.2881H5.25684L5.25921 15.3047C5.34619 16.0462 5.52062 16.7605 5.77158 17.4383H11.2437V22.9104C11.9257 23.1632 12.6467 23.3386 13.3934 23.4251V17.4388H15.5432V23.4256C16.2903 23.3391 17.0109 23.1642 17.6929 22.9108V17.4383H23.165C23.5376 16.434 23.7411 15.3475 23.7411 14.2134C23.7411 13.0794 23.5376 11.9928 23.165 10.9885H21.8917H8.17372ZM15.5436 15.2885H13.3939V13.1388H15.5436V15.2885ZM21.5115 15.2885H17.6939V13.1388H21.5115C21.5647 13.4895 21.5923 13.8484 21.5923 14.2139C21.5923 14.5789 21.5647 14.9378 21.5115 15.2885Z" fill="#00CC9E"/>
<path d="M14.4625 0.61792C6.95382 0.61792 0.867188 6.70502 0.867188 14.2133C0.867188 21.7215 6.95382 27.8086 14.4625 27.8086C21.9712 27.8086 28.0579 21.7215 28.0579 14.2133C28.0579 6.70502 21.9712 0.61792 14.4625 0.61792ZM14.4625 25.655C8.14348 25.655 3.02075 20.5323 3.02075 14.2133C3.02075 7.89421 8.14348 2.77148 14.4625 2.77148C20.7816 2.77148 25.9043 7.89421 25.9043 14.2133C25.9043 20.5323 20.7816 25.655 14.4625 25.655Z" fill="#00CC9E"/>
</svg>
