<svg width="13" height="15" viewBox="0 0 13 15" fill="none" xmlns="http://www.w3.org/2000/svg">
<path d="M1.10352 14.688C0.970907 14.688 0.843731 14.6353 0.749962 14.5415C0.656194 14.4478 0.603516 14.3206 0.603516 14.188C0.603516 14.0554 0.656194 13.9282 0.749962 13.8344C0.843731 13.7407 0.970907 13.688 1.10352 13.688H2.10352V12.688C2.10331 11.839 2.3433 11.0072 2.79577 10.2888C3.24823 9.57034 3.89471 8.99458 4.66052 8.62799C4.95052 8.48899 5.10352 8.25099 5.10352 8.03799V7.33799C5.10352 7.12499 4.94952 6.88699 4.66052 6.74799C3.89471 6.3814 3.24823 5.80563 2.79577 5.08721C2.3433 4.36879 2.10331 3.53702 2.10352 2.68799V1.68799H1.10352C0.970907 1.68799 0.843731 1.63531 0.749962 1.54154C0.656194 1.44777 0.603516 1.3206 0.603516 1.18799C0.603516 1.05538 0.656194 0.928203 0.749962 0.834435C0.843731 0.740667 0.970907 0.687988 1.10352 0.687988H12.1035C12.2361 0.687988 12.3633 0.740667 12.4571 0.834435C12.5508 0.928203 12.6035 1.05538 12.6035 1.18799C12.6035 1.3206 12.5508 1.44777 12.4571 1.54154C12.3633 1.63531 12.2361 1.68799 12.1035 1.68799H11.1035V2.68799C11.1037 3.53702 10.8637 4.36879 10.4113 5.08721C9.9588 5.80563 9.31232 6.3814 8.54652 6.74799C8.25652 6.88699 8.10352 7.12499 8.10352 7.33799V8.03799C8.10352 8.25099 8.25752 8.48899 8.54652 8.62799C9.31232 8.99458 9.9588 9.57034 10.4113 10.2888C10.8637 11.0072 11.1037 11.839 11.1035 12.688V13.688H12.1035C12.2361 13.688 12.3633 13.7407 12.4571 13.8344C12.5508 13.9282 12.6035 14.0554 12.6035 14.188C12.6035 14.3206 12.5508 14.4478 12.4571 14.5415C12.3633 14.6353 12.2361 14.688 12.1035 14.688H1.10352ZM3.10352 1.68799V2.68799C3.10352 3.22499 3.22352 3.73299 3.44052 4.18799H9.76652C9.98252 3.73299 10.1035 3.22499 10.1035 2.68799V1.68799H3.10352ZM6.10352 8.03799C6.10352 8.73899 5.62552 9.27399 5.09252 9.52999C4.49681 9.8151 3.99393 10.2629 3.64197 10.8218C3.29001 11.3806 3.10333 12.0276 3.10352 12.688C3.10352 12.688 3.96952 11.389 6.10352 11.208V8.03799ZM7.10352 8.03799V11.208C9.23752 11.389 10.1035 12.688 10.1035 12.688C10.1037 12.0276 9.91702 11.3806 9.56506 10.8218C9.2131 10.2629 8.71022 9.8151 8.11452 9.52999C7.58152 9.27399 7.10352 8.73999 7.10352 8.03899V8.03799Z" fill="#FFA318"/>
</svg>
