<svg width="36" height="36" viewBox="0 0 36 36" fill="none" xmlns="http://www.w3.org/2000/svg">
<rect x="1.0395" y="1.63398" width="33.4" height="33.4" rx="16.7" fill="url(#paint0_linear)" stroke="white" stroke-width="1.4"/>
<path fill-rule="evenodd" clip-rule="evenodd" d="M17.5199 11C15.5281 11 15.2781 11.0087 14.4959 11.0443C13.7151 11.0801 13.1822 11.2037 12.7158 11.385C12.2335 11.5724 11.8243 11.8229 11.4166 12.2307C11.0087 12.6384 10.7581 13.0476 10.5702 13.5298C10.3884 13.9962 10.2646 14.5293 10.2295 15.3098C10.1945 16.0921 10.1853 16.3422 10.1853 18.334C10.1853 20.3258 10.1942 20.575 10.2296 21.3573C10.2655 22.138 10.3891 22.671 10.5703 23.1373C10.7578 23.6196 11.0084 24.0288 11.4162 24.4365C11.8237 24.8444 12.2329 25.0956 12.7149 25.2829C13.1815 25.4643 13.7146 25.5879 14.4952 25.6237C15.2775 25.6593 15.5273 25.668 17.519 25.668C19.5109 25.668 19.7601 25.6593 20.5424 25.6237C21.3232 25.5879 21.8567 25.4643 22.3234 25.2829C22.8056 25.0956 23.2141 24.8444 23.6216 24.4365C24.0296 24.0288 24.2802 23.6196 24.4681 23.1374C24.6484 22.671 24.7721 22.1379 24.8088 21.3574C24.844 20.5751 24.8531 20.3258 24.8531 18.334C24.8531 16.3422 24.844 16.0922 24.8088 15.3099C24.7721 14.5292 24.6484 13.9962 24.4681 13.5299C24.2802 13.0476 24.0296 12.6384 23.6216 12.2307C23.2137 11.8228 22.8057 11.5722 22.3229 11.385C21.8554 11.2037 21.3221 11.0801 20.5413 11.0443C19.7591 11.0087 19.51 11 17.5176 11H17.5199ZM16.8616 12.3226C17.0568 12.3223 17.2747 12.3226 17.5195 12.3226C19.4777 12.3226 19.7098 12.3297 20.483 12.3648C21.1981 12.3975 21.5862 12.517 21.8447 12.6174C22.187 12.7503 22.431 12.9092 22.6875 13.1659C22.9442 13.4226 23.1031 13.667 23.2363 14.0093C23.3367 14.2675 23.4564 14.6556 23.4889 15.3707C23.524 16.1438 23.5317 16.376 23.5317 18.3333C23.5317 20.2905 23.524 20.5228 23.4889 21.2959C23.4562 22.011 23.3367 22.3991 23.2363 22.6573C23.1034 22.9995 22.9442 23.2432 22.6875 23.4998C22.4308 23.7565 22.1871 23.9154 21.8447 24.0483C21.5865 24.1491 21.1981 24.2683 20.483 24.301C19.7099 24.3362 19.4777 24.3438 17.5195 24.3438C15.5612 24.3438 15.3291 24.3362 14.556 24.301C13.8409 24.268 13.4528 24.1485 13.1941 24.0481C12.8519 23.9152 12.6074 23.7563 12.3507 23.4996C12.094 23.2429 11.9351 22.9991 11.8019 22.6567C11.7015 22.3985 11.5819 22.0104 11.5493 21.2953C11.5142 20.5222 11.5072 20.2899 11.5072 18.3315C11.5072 16.373 11.5142 16.142 11.5493 15.3688C11.582 14.6538 11.7015 14.2657 11.8019 14.0072C11.9348 13.6649 12.094 13.4204 12.3507 13.1638C12.6074 12.9071 12.8519 12.7482 13.1941 12.6149C13.4526 12.5141 13.8409 12.3949 14.556 12.3621C15.2325 12.3315 15.4947 12.3223 16.8616 12.3208V12.3226ZM21.4369 13.5389C20.951 13.5389 20.5568 13.9326 20.5568 14.4187C20.5568 14.9045 20.951 15.2987 21.4369 15.2987C21.9228 15.2987 22.317 14.9045 22.317 14.4187C22.317 13.9328 21.9228 13.5386 21.4369 13.5386V13.5389ZM17.5219 14.5685C15.442 14.5685 13.7556 16.2549 13.7556 18.3348C13.7556 20.4148 15.442 22.1004 17.5219 22.1004C19.6019 22.1004 21.2876 20.4148 21.2876 18.3348C21.2876 16.2549 19.6017 14.5685 17.5218 14.5685H17.5219ZM17.5208 15.8889C18.8708 15.8889 19.9654 16.9833 19.9654 18.3335C19.9654 19.6836 18.8708 20.7782 17.5208 20.7782C16.1706 20.7782 15.0761 19.6836 15.0761 18.3335C15.0761 16.9833 16.1706 15.8889 17.5208 15.8889Z" fill="white"/>
<defs>
<linearGradient id="paint0_linear" x1="17.7395" y1="49.0856" x2="17.7395" y2="-12.1171" gradientUnits="userSpaceOnUse">
<stop stop-color="#E09B3D"/>
<stop offset="0.3" stop-color="#C74C4D"/>
<stop offset="0.6" stop-color="#C21975"/>
<stop offset="1" stop-color="#7024C4"/>
</linearGradient>
</defs>
</svg>
