<svg width="23" height="23" viewBox="0 0 23 23" fill="none" xmlns="http://www.w3.org/2000/svg">
<path fill-rule="evenodd" clip-rule="evenodd" d="M11.1469 0.251953C8.15923 0.251953 7.78428 0.265017 6.61084 0.318417C5.4397 0.372047 4.64029 0.557459 3.94081 0.829504C3.21727 1.11049 2.60351 1.48635 1.99204 2.09805C1.38011 2.70953 1.00424 3.32329 0.722342 4.0466C0.449609 4.74631 0.263968 5.54594 0.211255 6.71663C0.158771 7.89007 0.14502 8.26525 0.14502 11.2529C0.14502 14.2406 0.158312 14.6144 0.211484 15.7879C0.265343 16.959 0.450755 17.7584 0.722571 18.4579C1.00378 19.1814 1.37965 19.7952 1.99135 20.4067C2.60259 21.0186 3.21635 21.3954 3.93944 21.6764C4.63938 21.9484 5.43901 22.1338 6.60993 22.1874C7.78336 22.2408 8.15809 22.2539 11.1455 22.2539C14.1334 22.2539 14.5073 22.2408 15.6807 22.1874C16.8518 22.1338 17.6522 21.9484 18.3521 21.6764C19.0754 21.3954 19.6883 21.0186 20.2995 20.4067C20.9114 19.7952 21.2873 19.1814 21.5692 18.4581C21.8396 17.7584 22.0253 16.9588 22.0803 15.7881C22.133 14.6146 22.1467 14.2406 22.1467 11.2529C22.1467 8.26525 22.133 7.8903 22.0803 6.71686C22.0253 5.54571 21.8396 4.74631 21.5692 4.04683C21.2873 3.32329 20.9114 2.70953 20.2995 2.09805C19.6876 1.48613 19.0756 1.11026 18.3514 0.829504C17.6501 0.557459 16.8502 0.372047 15.6791 0.318417C14.5056 0.265017 14.1321 0.251953 11.1435 0.251953H11.1469ZM10.1588 2.23682C10.4517 2.23636 10.7785 2.23682 11.1457 2.23682C14.083 2.23682 14.4311 2.24736 15.591 2.30007C16.6636 2.34912 17.2457 2.52834 17.6335 2.67892C18.1469 2.87831 18.5129 3.11667 18.8977 3.5017C19.2828 3.88673 19.5211 4.25343 19.721 4.76681C19.8715 5.15414 20.051 5.73627 20.0998 6.80887C20.1525 7.96855 20.164 8.31692 20.164 11.2528C20.164 14.1887 20.1525 14.5371 20.0998 15.6967C20.0508 16.7693 19.8715 17.3515 19.721 17.7388C19.5216 18.2522 19.2828 18.6177 18.8977 19.0025C18.5127 19.3876 18.1471 19.6259 17.6335 19.8253C17.2462 19.9766 16.6636 20.1553 15.591 20.2044C14.4313 20.2571 14.083 20.2686 11.1457 20.2686C8.20821 20.2686 7.86007 20.2571 6.70039 20.2044C5.62779 20.1549 5.04566 19.9757 4.65765 19.8251C4.14427 19.6257 3.77757 19.3873 3.39253 19.0023C3.0075 18.6173 2.76914 18.2515 2.56929 17.7379C2.41872 17.3506 2.23926 16.7684 2.19045 15.6958C2.13773 14.5361 2.12719 14.1878 2.12719 11.2501C2.12719 8.31233 2.13773 7.9658 2.19045 6.80612C2.23949 5.73352 2.41872 5.15139 2.56929 4.7636C2.76869 4.25022 3.0075 3.88353 3.39253 3.49849C3.77757 3.11346 4.14427 2.8751 4.65765 2.67525C5.04543 2.52399 5.62779 2.34522 6.70039 2.29595C7.71523 2.25011 8.10851 2.23636 10.1588 2.23407V2.23682ZM17.0212 4.06105C16.2924 4.06105 15.7011 4.65166 15.7011 5.38071C15.7011 6.10952 16.2924 6.70083 17.0212 6.70083C17.75 6.70083 18.3413 6.10952 18.3413 5.38071C18.3413 4.65189 17.75 4.06059 17.0212 4.06059V4.06105ZM11.1495 5.60482C8.02958 5.60482 5.50004 8.13436 5.50004 11.2543C5.50004 14.3742 8.02958 16.9026 11.1495 16.9026C14.2694 16.9026 16.798 14.3742 16.798 11.2543C16.798 8.13436 14.2692 5.60482 11.1493 5.60482H11.1495ZM11.148 7.58647C13.1731 7.58647 14.815 9.22814 14.815 11.2535C14.815 13.2786 13.1731 14.9205 11.148 14.9205C9.12266 14.9205 7.48099 13.2786 7.48099 11.2535C7.48099 9.22814 9.12266 7.58647 11.148 7.58647Z" fill="white"/>
</svg>
