<svg width="21" height="20" viewBox="0 0 21 20" fill="none" xmlns="http://www.w3.org/2000/svg">
<path fill-rule="evenodd" clip-rule="evenodd" d="M20.0238 10.077C20.0238 8.42956 18.915 7.1395 17.081 7.1395H14.0666L14.0939 7.06535C14.1212 6.99179 14.1979 6.78979 14.2725 6.59355L14.2726 6.59329L14.2727 6.5931C14.3387 6.4194 14.403 6.2503 14.4297 6.17885C14.6162 5.67914 14.7523 5.27652 14.8624 4.87777C15.0288 4.27511 15.1192 3.73214 15.1192 3.22287C15.1192 1.78155 14.2284 0.886328 12.9104 0.503251C12.316 0.33047 11.7986 0.285312 11.1955 0.285401H10.7251L10.4306 0.651493C10.098 1.06505 9.44454 1.81037 8.69121 2.66965C7.30188 4.25438 5.57275 6.2267 4.88909 7.22032C4.7116 7.16763 4.52359 7.13934 4.32896 7.13934H2.36712C1.28362 7.13934 0.405273 8.01611 0.405273 9.09766V17.9101C0.405273 18.9916 1.28362 19.8684 2.36712 19.8684H4.32896C5.00268 19.8684 5.59708 19.5294 5.95032 19.013C6.24804 19.2052 6.58025 19.3657 6.94136 19.4947C7.7676 19.7898 8.58707 19.8804 9.2674 19.868L16.1001 19.8685C18.8027 19.8685 20.0238 15.8967 20.0238 10.077ZM6.29092 9.09981C6.29092 8.86462 6.33451 8.65636 6.42993 8.43397C6.60134 8.03449 8.15655 6.26335 9.63061 4.58463L9.63062 4.58462L9.63064 4.5846C10.3914 3.7182 11.1306 2.87641 11.6467 2.26053C11.8934 2.27899 12.1258 2.31683 12.362 2.38547C12.9241 2.54886 13.1574 2.7833 13.1574 3.22487C13.1574 3.53485 13.0945 3.91255 12.9711 4.35933C12.8789 4.69319 12.7595 5.04647 12.5913 5.49716C12.5675 5.56092 12.5083 5.71685 12.4451 5.88289L12.4445 5.88446L12.4445 5.88451C12.3673 6.0876 12.2845 6.30542 12.2539 6.38809C12.1264 6.73238 12.0423 6.98588 11.9848 7.21622C11.7405 8.19542 11.9856 9.09981 13.1574 9.09981H17.0811C17.7591 9.09981 18.062 9.4522 18.062 10.079C18.062 14.7699 17.0959 17.9122 16.1001 17.9122H9.23369L9.19746 17.9128C8.76812 17.9205 8.1651 17.8538 7.6023 17.6528C6.73427 17.3428 6.29092 16.8373 6.29092 15.9539V9.09981ZM2.36592 17.9106V9.09814H4.32777V17.9106H2.36592Z" fill="#323754"/>
</svg>
