<svg width="17" height="19" viewBox="0 0 17 19" fill="none" xmlns="http://www.w3.org/2000/svg">
<path fill-rule="evenodd" clip-rule="evenodd" d="M15.2317 10.0405C16.0141 10.0756 16.6778 9.46865 16.7121 8.68462C16.7463 7.90059 16.1962 7.19573 15.4132 7.16184L10.2151 6.51904C10.2151 6.51904 11.2983 4.73452 11.2983 2.09052C11.2983 0.327981 10.0198 0.0908203 9.26788 0.0908203C8.67637 0.0905969 8.51709 1.21934 8.51709 1.21934H8.51588C8.38194 1.94312 8.20754 2.5752 7.60151 3.73895C6.9231 5.04334 5.99919 4.92096 4.92054 6.08278C4.73018 6.28739 4.47439 6.6251 4.22511 7.04065C4.20477 7.06263 4.18578 7.09339 4.16741 7.13667C4.14517 7.18821 4.11855 7.22396 4.0951 7.27163C4.05381 7.34634 4.01319 7.42105 3.97326 7.49948C3.30567 8.15696 2.26559 8.08978 1.8227 8.08978C0.934334 8.08978 0.469053 8.59814 0.469053 9.42291L0.46875 15.5179C0.46875 16.4432 0.853182 16.7553 1.82277 16.7553H3.17641C3.85792 16.7553 4.39158 17.1401 5.20695 17.4219C6.3238 17.8029 7.99176 18.089 10.865 18.089C11.3675 18.089 12.926 18.0908 12.926 18.0908C13.4032 18.0908 13.7865 17.8762 14.063 17.6169C14.1683 17.5184 14.2781 17.3752 14.3251 17.0959C14.3327 17.0526 14.3409 16.8712 14.3397 16.8467C14.3758 16.0476 13.8853 15.7583 13.6074 15.6672C13.615 15.6647 13.61 15.6578 13.6251 15.6584L14.5072 15.6973C15.2902 15.7325 16.0631 15.177 16.0631 14.2323C16.0631 13.4489 15.4183 12.8965 14.6379 12.8588L15.1056 12.8802C15.8885 12.9141 16.5504 12.3071 16.5866 11.5231C16.6207 10.7391 16.0141 10.0757 15.2317 10.0405Z" fill="#4080FF" fill-opacity="0.7"/>
</svg>
