<svg width="44" height="44" viewBox="0 0 44 44" fill="none" xmlns="http://www.w3.org/2000/svg">
<circle cx="22" cy="22" r="20.7" fill="#0E76A8" stroke="white" stroke-width="1.4"/>
<path d="M11.1572 13.5846C11.1572 12.881 11.401 12.3005 11.8884 11.8431C12.3759 11.3858 13.0097 11.1571 13.7896 11.1571C14.5557 11.1571 15.1754 11.3823 15.649 11.8326C16.1365 12.297 16.3802 12.9021 16.3802 13.6479C16.3802 14.3234 16.1435 14.8863 15.6699 15.3367C15.1824 15.8011 14.5417 16.0333 13.7478 16.0333H13.7269C12.9609 16.0333 12.3411 15.8011 11.8676 15.3367C11.394 14.8723 11.1572 14.2882 11.1572 13.5846ZM11.4288 32.0549V17.9542H16.0668V32.0549H11.4288ZM18.6366 32.0549H23.2746V24.1813C23.2746 23.6887 23.3303 23.3088 23.4417 23.0414C23.6367 22.5629 23.9327 22.1583 24.3296 21.8276C24.7266 21.4969 25.2245 21.3316 25.8234 21.3316C27.3834 21.3316 28.1633 22.394 28.1633 24.519V32.0549H32.8013V23.9702C32.8013 21.8874 32.3139 20.3078 31.3389 19.2312C30.3639 18.1547 29.0756 17.6164 27.4739 17.6164C25.6772 17.6164 24.2774 18.3974 23.2746 19.9595V20.0017H23.2537L23.2746 19.9595V17.9542H18.6366C18.6644 18.4045 18.6783 19.8047 18.6783 22.1548C18.6783 24.5049 18.6644 27.8049 18.6366 32.0549Z" fill="white"/>
</svg>
