<svg width="27" height="27" viewBox="0 0 27 27" fill="none" xmlns="http://www.w3.org/2000/svg">
<g opacity="0.5" filter="url(#filter0_d)">
<path fill-rule="evenodd" clip-rule="evenodd" d="M1.8877 22.225C1.8877 22.9594 2.17943 23.6637 2.69873 24.183C3.21802 24.7023 3.92233 24.994 4.65673 24.994H19.4249C20.1593 24.994 20.8636 24.7023 21.3829 24.183C21.9022 23.6637 22.1939 22.9594 22.1939 22.225V14.8409C22.1939 14.5961 22.0967 14.3614 21.9236 14.1883C21.7505 14.0152 21.5157 13.9179 21.2709 13.9179C21.0261 13.9179 20.7913 14.0152 20.6182 14.1883C20.4451 14.3614 20.3479 14.5961 20.3479 14.8409V22.225C20.3479 22.4698 20.2507 22.7046 20.0776 22.8777C19.9045 23.0508 19.6697 23.148 19.4249 23.148H4.65673C4.41193 23.148 4.17716 23.0508 4.00406 22.8777C3.83096 22.7046 3.73372 22.4698 3.73372 22.225V7.45686C3.73372 7.21206 3.83096 6.97729 4.00406 6.80419C4.17716 6.63109 4.41193 6.53385 4.65673 6.53385H12.0408C12.2856 6.53385 12.5204 6.4366 12.6935 6.2635C12.8666 6.09041 12.9638 5.85564 12.9638 5.61084C12.9638 5.36604 12.8666 5.13127 12.6935 4.95817C12.5204 4.78507 12.2856 4.68783 12.0408 4.68783H4.65673C3.92233 4.68783 3.21802 4.97956 2.69873 5.49886C2.17943 6.01815 1.8877 6.72247 1.8877 7.45686V22.225ZM14.8098 1.9188C14.8098 1.674 14.9071 1.43923 15.0802 1.26613C15.2533 1.09303 15.488 0.995789 15.7328 0.995789H24.9629C25.2077 0.995789 25.4425 1.09303 25.6156 1.26613C25.7887 1.43923 25.886 1.674 25.886 1.9188V11.1489C25.886 11.3937 25.7887 11.6285 25.6156 11.8016C25.4425 11.9747 25.2077 12.0719 24.9629 12.0719C24.7181 12.0719 24.4834 11.9747 24.3103 11.8016C24.1372 11.6285 24.0399 11.3937 24.0399 11.1489V2.84181H15.7328C15.488 2.84181 15.2533 2.74456 15.0802 2.57147C14.9071 2.39837 14.8098 2.1636 14.8098 1.9188Z" fill="white"/>
<path fill-rule="evenodd" clip-rule="evenodd" d="M25.6163 1.2658C25.7023 1.35154 25.7705 1.45339 25.817 1.56553C25.8636 1.67767 25.8875 1.79788 25.8875 1.91929C25.8875 2.0407 25.8636 2.16091 25.817 2.27305C25.7705 2.38519 25.7023 2.48704 25.6163 2.57278L10.8482 17.3409C10.7624 17.4268 10.6605 17.4948 10.5484 17.5413C10.4362 17.5877 10.316 17.6116 10.1947 17.6116C10.0733 17.6116 9.95314 17.5877 9.84102 17.5413C9.72889 17.4948 9.62701 17.4268 9.54119 17.3409C9.45538 17.2551 9.3873 17.1532 9.34086 17.0411C9.29441 16.929 9.27051 16.8088 9.27051 16.6874C9.27051 16.5661 9.29441 16.4459 9.34086 16.3338C9.3873 16.2217 9.45538 16.1198 9.54119 16.034L24.3094 1.2658C24.3951 1.17984 24.4969 1.11164 24.6091 1.06511C24.7212 1.01858 24.8414 0.994629 24.9628 0.994629C25.0843 0.994629 25.2045 1.01858 25.3166 1.06511C25.4287 1.11164 25.5306 1.17984 25.6163 1.2658Z" fill="white"/>
</g>
<defs>
<filter id="filter0_d" x="0.887695" y="0.994629" width="25.9998" height="25.9994" filterUnits="userSpaceOnUse" color-interpolation-filters="sRGB">
<feFlood flood-opacity="0" result="BackgroundImageFix"/>
<feColorMatrix in="SourceAlpha" type="matrix" values="0 0 0 0 0 0 0 0 0 0 0 0 0 0 0 0 0 0 127 0"/>
<feOffset dy="1"/>
<feGaussianBlur stdDeviation="0.5"/>
<feColorMatrix type="matrix" values="0 0 0 0 0 0 0 0 0 0 0 0 0 0 0 0 0 0 0.6 0"/>
<feBlend mode="normal" in2="BackgroundImageFix" result="effect1_dropShadow"/>
<feBlend mode="normal" in="SourceGraphic" in2="effect1_dropShadow" result="shape"/>
</filter>
</defs>
</svg>
