<svg width="26" height="26" viewBox="0 0 26 26" fill="none" xmlns="http://www.w3.org/2000/svg">
<path d="M23.7838 2.49709C21.6316 0.33951 18.1315 0.33951 15.9792 2.49709L1.66994 16.8011C1.55806 16.9129 1.48881 17.0568 1.4675 17.2113L0.407353 25.0638C0.375389 25.2876 0.455299 25.5113 0.609793 25.6658C0.742977 25.799 0.929435 25.8789 1.11589 25.8789C1.14786 25.8789 1.17982 25.8789 1.21179 25.8736L5.94249 25.2343C6.33671 25.181 6.61373 24.8188 6.56046 24.4245C6.50719 24.0303 6.14493 23.7533 5.7507 23.8066L1.95762 24.318L2.69812 18.8415L8.46233 24.6057C8.59552 24.7388 8.78197 24.8188 8.96843 24.8188C9.15489 24.8188 9.34135 24.7442 9.47453 24.6057L23.7838 10.3017C24.828 9.25752 25.4034 7.87241 25.4034 6.39673C25.4034 4.92105 24.828 3.53593 23.7838 2.49709ZM16.2563 4.25512L18.6589 6.65777L5.60154 19.7151L3.19889 17.3125L16.2563 4.25512ZM8.97376 23.082L6.62439 20.7327L19.6818 7.67529L22.0311 10.0247L8.97376 23.082ZM23.0327 8.99648L17.2845 3.24825C18.0143 2.64626 18.9253 2.31596 19.8842 2.31596C20.9763 2.31596 21.9992 2.74215 22.7716 3.50929C23.5441 4.27643 23.965 5.30462 23.965 6.39673C23.965 7.36098 23.6347 8.26663 23.0327 8.99648Z" fill="#666666"/>
</svg>
