<svg width="22" height="16" viewBox="0 0 22 16" fill="none" xmlns="http://www.w3.org/2000/svg">
<path fill-rule="evenodd" clip-rule="evenodd" d="M18.7562 1.32673C19.6542 1.57314 20.3614 2.29919 20.6014 3.2212C21.0375 4.89225 21.0375 8.37891 21.0375 8.37891C21.0375 8.37891 21.0375 11.8654 20.6014 13.5366C20.3614 14.4586 19.6542 15.1847 18.7562 15.4312C17.1289 15.8789 10.6028 15.8789 10.6028 15.8789C10.6028 15.8789 4.07662 15.8789 2.44915 15.4312C1.55117 15.1847 0.843977 14.4586 0.603977 13.5366C0.167969 11.8654 0.167969 8.37891 0.167969 8.37891C0.167969 8.37891 0.167969 4.89225 0.603977 3.2212C0.843977 2.29919 1.55117 1.57314 2.44915 1.32673C4.07662 0.878906 10.6028 0.878906 10.6028 0.878906C10.6028 0.878906 17.1289 0.878906 18.7562 1.32673ZM8.64623 5.44412V11.9659L13.8636 8.70512L8.64623 5.44412Z" fill="#FF0000"/>
</svg>
