<svg width="15" height="19" viewBox="0 0 15 19" fill="none" xmlns="http://www.w3.org/2000/svg">
<path d="M0.249024 17.4571C0.249024 16.9757 0.639224 16.5855 1.12056 16.5855L13.2035 16.5855C13.6848 16.5855 14.075 16.9757 14.075 17.4571C14.075 17.9384 13.6848 18.3286 13.2035 18.3286L1.12056 18.3286C0.639223 18.3286 0.249024 17.9384 0.249024 17.4571Z" fill="white"/>
<path fill-rule="evenodd" clip-rule="evenodd" d="M13.4755 8.45883C13.8075 8.12394 13.8075 7.58399 13.4755 7.2491C13.1394 6.91015 12.5914 6.91015 12.2554 7.2491L8.02633 11.5144L8.02633 1.19274C8.02633 0.715495 7.63945 0.328613 7.16221 0.328613C6.68496 0.328613 6.29808 0.715494 6.29808 1.19274L6.29808 11.5144L2.06904 7.2491C1.73296 6.91015 1.18501 6.91015 0.848936 7.2491C0.516894 7.58399 0.516893 8.12394 0.848935 8.45883L3.70571 11.3401L6.45208 14.11C6.84329 14.5046 7.48112 14.5046 7.87232 14.11L13.4755 8.45883Z" fill="white"/>
</svg>
