<svg width="48" height="48" viewBox="0 0 48 48" fill="none" xmlns="http://www.w3.org/2000/svg">
<circle cx="24" cy="24" r="24" fill="#F52079"/>
<path d="M23.9295 9C15.6975 9 9 15.729 9 24C9 32.271 15.729 39 24 39C32.271 39 39 32.271 39 24C39 15.729 32.2395 9 23.9295 9ZM24 36C17.3835 36 12 30.6165 12 24C12 17.3835 17.3505 12 23.9295 12C30.5865 12 36 17.3835 36 24C36 30.6165 30.6165 36 24 36Z" fill="white"/>
<path d="M22.5 16.5H25.5V27H22.5V16.5ZM22.5 28.5H25.5V31.5H22.5V28.5Z" fill="white"/>
</svg>
