<svg width="20" height="21" viewBox="0 0 20 21" fill="none" xmlns="http://www.w3.org/2000/svg">
<path fill-rule="evenodd" clip-rule="evenodd" d="M12.2107 5.36606C12.1542 5.10111 12.1245 4.82625 12.1245 4.54446C12.1245 2.37778 13.8811 0.621338 16.048 0.621338C18.2149 0.621338 19.9716 2.37778 19.9716 4.54446C19.9716 6.71114 18.2149 8.46758 16.048 8.46758C14.867 8.46758 13.8078 7.94582 13.0885 7.12026L8.11337 9.60758C8.16987 9.87264 8.19961 10.1476 8.19961 10.4295C8.19961 10.7118 8.1698 10.9871 8.11315 11.2524L13.0879 13.7395C13.8072 12.9135 14.8666 12.3914 16.048 12.3914C18.2149 12.3914 19.9716 14.1479 19.9716 16.3146C19.9716 18.4813 18.2149 20.2377 16.048 20.2377C13.8811 20.2377 12.1245 18.4813 12.1245 16.3146C12.1245 16.0331 12.1541 15.7586 12.2105 15.494L7.23466 13.0063C6.51538 13.8313 5.45662 14.3526 4.27608 14.3526C2.10917 14.3526 0.352539 12.5962 0.352539 10.4295C0.352539 8.26282 2.10917 6.50638 4.27608 6.50638C5.45699 6.50638 6.51604 7.02804 7.23533 7.85346L12.2107 5.36606ZM16.0608 6.5261C17.1666 6.5261 18.063 5.62977 18.063 4.52408C18.063 3.4184 17.1666 2.52206 16.0608 2.52206C14.955 2.52206 14.0586 3.4184 14.0586 4.52408C14.0586 5.62977 14.955 6.5261 16.0608 6.5261ZM18.0297 16.3572C18.0297 17.4629 17.1332 18.3592 16.0274 18.3592C14.9216 18.3592 14.0252 17.4629 14.0252 16.3572C14.0252 15.2515 14.9216 14.3552 16.0274 14.3552C17.1332 14.3552 18.0297 15.2515 18.0297 16.3572ZM4.25794 12.4321C5.36374 12.4321 6.26017 11.5358 6.26017 10.4301C6.26017 9.32444 5.36374 8.4281 4.25794 8.4281C3.15214 8.4281 2.25571 9.32444 2.25571 10.4301C2.25571 11.5358 3.15214 12.4321 4.25794 12.4321Z" fill="#323754"/>
</svg>
