<svg width="44" height="44" viewBox="0 0 44 44" fill="none" xmlns="http://www.w3.org/2000/svg">
<circle cx="22" cy="22" r="20.75" fill="black" stroke="white" stroke-width="1.5"/>
<path d="M22.1819 10.6191C23.3837 10.6006 24.5786 10.6115 25.7722 10.6006C25.8445 11.9981 26.3501 13.4216 27.379 14.4097C28.4059 15.4224 29.8584 15.886 31.2717 16.0428V19.7191C29.9473 19.6759 28.6167 19.402 27.4148 18.8351C26.8914 18.5995 26.4038 18.2962 25.9265 17.986C25.9203 20.6537 25.9375 23.318 25.9093 25.9747C25.8376 27.251 25.4141 28.5212 24.6675 29.5729C23.4664 31.3238 21.3816 32.4652 19.2403 32.5008C17.9269 32.5754 16.6149 32.2194 15.4957 31.5634C13.641 30.4761 12.3358 28.4856 12.1457 26.3492C12.1218 25.8968 12.1181 25.4435 12.1347 24.9907C12.3 23.2536 13.1644 21.5918 14.506 20.4613C16.0267 19.1446 18.1569 18.5174 20.1515 18.8885C20.1701 20.2408 20.1157 21.5918 20.1157 22.9441C19.2045 22.651 18.1397 22.7332 17.3436 23.283C16.7611 23.6645 16.3209 24.2258 16.0908 24.8805C15.9007 25.3434 15.9551 25.8576 15.9661 26.3492C16.1844 27.8474 17.6335 29.1066 19.1804 28.9704C20.2059 28.9594 21.1887 28.3678 21.7232 27.5016C21.8961 27.1983 22.0896 26.8881 22.0999 26.5314C22.1901 24.8983 22.1543 23.2721 22.1653 21.639C22.1729 17.9586 22.1543 14.2885 22.1826 10.6198L22.1819 10.6191Z" fill="#17FFFF"/>
<g filter="url(#filter0_d_1591_5886)">
<path d="M22.7859 11.5079C23.9877 11.4894 25.1827 11.5003 26.3762 11.4894C26.4485 12.8869 26.9541 14.3104 27.983 15.2985C29.0099 16.3112 30.4624 16.7748 31.8757 16.9316V20.6079C30.5513 20.5647 29.2207 20.2908 28.0188 19.7239C27.4954 19.4883 27.0078 19.185 26.5305 18.8748C26.5243 21.5425 26.5415 24.2068 26.5133 26.8635C26.4416 28.1398 26.0181 29.41 25.2715 30.4617C24.0704 32.2126 21.9856 33.354 19.8443 33.3896C18.5309 33.4642 17.2189 33.1082 16.0997 32.4522C14.245 31.3649 12.9398 29.3744 12.7497 27.238C12.7258 26.7856 12.7221 26.3323 12.7387 25.8795C12.904 24.1424 13.7684 22.4806 15.11 21.3501C16.6307 20.0334 18.7609 19.4062 20.7555 19.7773C20.7741 21.1296 20.7197 22.4806 20.7197 23.8329C19.8085 23.5398 18.7437 23.622 17.9476 24.1718C17.3651 24.5533 16.9249 25.1146 16.6948 25.7693C16.5047 26.2322 16.5591 26.7464 16.5701 27.238C16.7884 28.7362 18.2375 29.9954 19.7844 29.8592C20.8099 29.8482 21.7927 29.2566 22.3272 28.3904C22.5001 28.0871 22.6936 27.7769 22.7039 27.4202C22.7941 25.7871 22.7583 24.1609 22.7693 22.5278C22.7769 18.8474 22.7583 15.1773 22.7866 11.5086L22.7859 11.5079Z" fill="white"/>
</g>
<defs>
<filter id="filter0_d_1591_5886" x="12.7285" y="11.4894" width="19.9612" height="22.8257" filterUnits="userSpaceOnUse" color-interpolation-filters="sRGB">
<feFlood flood-opacity="0" result="BackgroundImageFix"/>
<feColorMatrix in="SourceAlpha" type="matrix" values="0 0 0 0 0 0 0 0 0 0 0 0 0 0 0 0 0 0 127 0" result="hardAlpha"/>
<feOffset dx="0.813967" dy="0.915713"/>
<feColorMatrix type="matrix" values="0 0 0 0 1 0 0 0 0 0 0 0 0 0 0.290196 0 0 0 1 0"/>
<feBlend mode="normal" in2="BackgroundImageFix" result="effect1_dropShadow_1591_5886"/>
<feBlend mode="normal" in="SourceGraphic" in2="effect1_dropShadow_1591_5886" result="shape"/>
</filter>
</defs>
</svg>
