<svg width="48" height="48" viewBox="0 0 48 48" fill="none" xmlns="http://www.w3.org/2000/svg">
<circle cx="24" cy="24" r="24" fill="#00CC9E"/>
<path fill-rule="evenodd" clip-rule="evenodd" d="M34.859 11.5146C35.405 10.9734 36.142 10.6688 36.9108 10.6666C37.6796 10.6645 38.4183 10.965 38.9672 11.5032C39.5162 12.0414 39.8313 12.774 39.8444 13.5427C39.8575 14.3114 39.5675 15.0543 39.0372 15.6109L23.4634 35.0781C23.1958 35.3664 22.8727 35.5978 22.5136 35.7584C22.1545 35.919 21.7667 36.0055 21.3733 36.0128C20.98 36.0201 20.5893 35.948 20.2244 35.8008C19.8596 35.6536 19.5282 35.4344 19.2501 35.1562L8.93126 24.8334C8.64379 24.5656 8.41322 24.2426 8.2533 23.8836C8.09338 23.5247 8.00739 23.1373 8.00046 22.7444C7.99352 22.3515 8.06579 21.9613 8.21295 21.597C8.36011 21.2326 8.57915 20.9017 8.85699 20.6238C9.13483 20.346 9.46579 20.127 9.83012 19.9798C10.1945 19.8327 10.5847 19.7604 10.9776 19.7673C11.3704 19.7742 11.7579 19.8602 12.1168 20.0202C12.4757 20.1801 12.7987 20.4106 13.0666 20.6981L21.2358 28.8634L34.7849 11.6004C34.8091 11.5702 34.8351 11.5415 34.8629 11.5146H34.859Z" fill="white"/>
</svg>
