<svg width="329" height="216" viewBox="0 0 329 216" fill="none" xmlns="http://www.w3.org/2000/svg">
<g clip-path="url(#clip0)">
<path d="M328.802 0.0253906H0.80249V215.025H328.802V0.0253906Z" fill="url(#paint0_linear)"/>
<mask id="mask0" mask-type="alpha" maskUnits="userSpaceOnUse" x="0" y="0" width="329" height="226">
<path d="M328.802 0.0253906H0.80249V225.775H328.802V0.0253906Z" fill="url(#paint1_radial)"/>
</mask>
<g mask="url(#mask0)">
<path d="M345.025 -145.42H-15.4203V215.026H345.025V-145.42Z" fill="url(#paint2_radial)"/>
<g style="mix-blend-mode:multiply" opacity="0.5">
<path d="M273.274 179.687H61.6067V218.174H273.274V179.687Z" fill="url(#paint3_radial)"/>
</g>
<path d="M216.689 68.3487C216.689 68.3005 216.689 68.2684 216.689 68.2684C216.705 68.0598 209.852 70.5796 206.417 71.1574C208.054 70.8846 210.061 68.2845 210.879 67.1931C211.088 66.9202 211.297 66.6153 211.505 66.3264C212.532 64.8337 213.544 63.0361 214.651 60.741C214.795 60.5163 214.94 60.2434 214.844 60.0508C214.619 59.9706 214.49 60.0027 214.314 60.099C210.478 62.1534 206.498 63.646 202.276 64.7053C201.923 64.7856 201.667 64.7053 201.442 64.4806C201.089 64.0794 200.768 63.7102 200.383 63.4053C199.147 62.346 197.847 61.4632 196.45 60.7089C193.128 58.9434 189.356 58.1409 185.6 58.3816C182.647 58.5742 179.742 59.4088 177.11 60.7731C174.478 62.1534 172.135 64.0633 170.257 66.3745C168.331 68.766 166.902 71.5747 166.164 74.56C165.458 77.449 165.522 80.2899 165.939 83.211C166.003 83.6925 165.955 83.7567 165.522 83.6925C149.504 81.301 136.134 75.6835 125.204 63.8065C124.851 63.4213 124.498 63.0201 124.145 62.6188C123.664 62.0731 123.407 62.0731 123.005 62.667C118.142 69.9697 120.502 81.7023 126.585 87.4642C127.403 88.2346 128.222 89.005 129.121 89.6952C128.8 89.7594 124.739 89.326 121.128 87.4642C119.908 86.6938 120.421 89.7433 120.486 90.2569C120.598 91.1236 120.758 91.9903 120.983 92.841C122.652 99.2128 127.371 104.814 133.566 107.174C134.401 107.527 135.316 107.832 136.215 107.992C134.61 108.345 132.973 108.586 128.382 108.233C127.804 108.121 127.596 108.409 127.804 108.955C131.255 118.344 138.686 121.137 144.256 122.742C144.994 122.871 145.748 122.871 146.503 123.047C146.455 123.111 146.406 123.111 146.374 123.175C144.529 126 138.125 128.087 135.139 129.13C131.737 130.318 128.141 131.104 124.514 131.377C122.363 131.538 120.213 131.521 118.078 131.313C117.163 131.184 116.971 131.184 116.714 131.313C116.457 131.473 116.682 131.682 116.971 131.923C118.142 132.693 119.314 133.367 120.534 134.025C124.177 135.951 127.981 137.492 131.945 138.583C135.171 139.482 138.462 140.124 141.784 140.526C157.481 142.419 173.707 138.744 186.21 128.953C187.847 127.669 189.436 126.273 190.945 124.78C191.972 123.769 192.935 122.726 193.85 121.635C196.193 118.858 198.2 115.873 199.869 112.759C205.214 102.744 207.284 91.1878 207.284 79.6158C207.284 78.9738 208.054 78.6046 208.504 78.2676C211.65 75.9082 213.993 73.0674 216.336 69.9216C216.882 69.2314 216.689 68.6055 216.689 68.3487Z" fill="#C5C9DA"/>
<path d="M216.866 68.1563C216.866 68.1081 216.866 68.076 216.866 68.076C216.882 67.8674 210.029 70.3872 206.594 70.965C208.231 70.6922 210.237 68.0921 211.056 67.0007C211.264 66.7278 211.473 66.4229 211.682 66.134C212.709 64.6414 213.72 62.8437 214.827 60.5486C214.972 60.3239 215.116 60.051 215.02 59.8584C214.795 59.7782 214.667 59.8103 214.49 59.9066C210.622 61.9128 206.674 63.4536 202.453 64.5129C202.1 64.5932 201.843 64.513 201.618 64.2883C201.265 63.887 200.944 63.5179 200.559 63.2129C199.307 62.1697 198.023 61.2709 196.627 60.5165C193.304 58.751 189.533 57.9485 185.777 58.1893C182.824 58.3819 179.919 59.2164 177.287 60.5807C174.654 61.961 172.311 63.871 170.433 66.1821C168.507 68.5736 167.079 71.3823 166.34 74.3676C165.634 77.2566 165.714 80.0975 166.116 83.0186C166.18 83.5001 166.132 83.5643 165.698 83.5001C149.681 81.1086 136.311 75.4911 125.381 63.6142C125.028 63.229 124.675 62.8277 124.322 62.4264C123.84 61.8807 123.583 61.8807 123.182 62.4746C118.319 69.7773 120.678 81.5099 126.761 87.2718C127.58 88.0422 128.398 88.8126 129.297 89.5028C128.976 89.567 124.915 89.1336 121.304 87.2718C120.084 86.5014 120.598 89.5509 120.662 90.0645C120.774 90.9312 120.935 91.7979 121.16 92.6486C122.829 99.0204 127.58 104.526 133.743 106.981C134.577 107.318 135.492 107.639 136.391 107.8C134.786 108.153 133.149 108.394 128.559 108.041C127.981 107.928 127.772 108.217 127.981 108.763C131.56 118.104 138.863 120.945 144.432 122.55C145.17 122.678 145.925 122.678 146.679 122.855C146.631 122.919 146.583 122.919 146.551 122.983C144.705 125.808 138.301 127.894 135.316 128.938C131.913 130.125 128.318 130.912 124.691 131.185C122.54 131.345 120.389 131.329 118.255 131.12C117.34 130.992 117.147 130.992 116.89 131.12C116.634 131.281 116.858 131.49 117.147 131.73C118.319 132.501 119.49 133.191 120.71 133.833C124.338 135.791 128.158 137.3 132.122 138.391C135.348 139.29 138.638 139.932 141.96 140.333C157.657 142.227 173.884 138.552 186.387 128.761C188.024 127.477 189.613 126.081 191.122 124.588C192.149 123.577 193.112 122.534 194.027 121.442C196.37 118.666 198.376 115.68 200.045 112.567C205.39 102.551 207.461 90.9954 207.461 79.4234C207.461 78.7814 208.231 78.4122 208.68 78.0752C211.826 75.7158 214.169 72.875 216.513 69.7292C217.058 69.039 216.866 68.4131 216.866 68.1563Z" fill="#C8CCDC"/>
<path d="M217.042 67.9473C217.042 67.8992 217.042 67.8671 217.042 67.8671C217.059 67.6584 210.205 70.1783 206.77 70.7561C208.408 70.4832 210.414 67.8831 211.232 66.7917C211.441 66.5189 211.65 66.2139 211.858 65.925C212.886 64.4324 213.897 62.6348 215.004 60.3396C215.149 60.1149 215.293 59.8421 215.197 59.6495C214.972 59.5692 214.844 59.6013 214.667 59.6976C210.799 61.7039 206.851 63.2447 202.63 64.304C202.276 64.3842 202.02 64.304 201.795 64.0793C201.442 63.678 201.121 63.3089 200.736 63.0039C199.484 61.9607 198.2 61.0619 196.803 60.3075C193.481 58.542 189.709 57.7395 185.954 57.9803C183 58.1729 180.095 59.0075 177.463 60.3717C174.831 61.752 172.488 63.662 170.61 65.9732C168.684 68.3646 167.255 71.1734 166.517 74.1587C165.811 77.0477 165.891 79.8885 166.292 82.8096C166.357 83.2911 166.308 83.3553 165.875 83.2911C149.873 80.9318 136.504 75.2982 125.573 63.4212C125.22 63.036 124.867 62.6348 124.514 62.2335C124.033 61.6878 123.776 61.6878 123.375 62.2817C118.511 69.5844 120.871 81.317 126.954 87.0789C127.772 87.8493 128.591 88.6197 129.49 89.3099C129.169 89.3741 125.108 88.9407 121.497 87.0789C120.277 86.3085 120.791 89.358 120.855 89.8716C120.967 90.7383 121.128 91.605 121.352 92.4557C123.022 98.8275 127.772 104.333 133.936 106.788C134.77 107.125 135.685 107.446 136.584 107.607C134.979 107.96 133.342 108.201 128.751 107.848C128.174 107.735 127.965 108.024 128.174 108.57C131.753 117.911 139.055 120.752 144.625 122.357C145.363 122.485 146.117 122.485 146.872 122.662C146.824 122.726 146.776 122.726 146.743 122.79C144.898 125.615 138.494 127.701 135.508 128.745C132.106 129.932 128.511 130.719 124.883 130.992C122.733 131.152 120.582 131.136 118.447 130.928C117.532 130.799 117.34 130.799 117.083 130.928C116.826 131.088 117.051 131.297 117.34 131.537C118.511 132.308 119.683 132.998 120.903 133.64C124.53 135.598 128.35 137.107 132.314 138.198C135.541 139.097 138.831 139.739 142.153 140.14C157.85 142.034 174.077 138.359 186.58 128.568C188.217 127.284 189.806 125.888 191.314 124.395C192.342 123.384 193.305 122.341 194.219 121.249C196.563 118.473 198.569 115.487 200.238 112.374C205.583 102.359 207.653 90.8025 207.653 79.2305C207.653 78.5885 208.424 78.2193 208.873 77.8823C212.019 75.5229 214.362 72.6821 216.705 69.5363C217.235 68.8461 217.042 68.2202 217.042 67.9473Z" fill="#CACEDE"/>
<path d="M217.219 67.7549C217.219 67.7068 217.219 67.6747 217.219 67.6747C217.235 67.466 210.382 69.9859 206.947 70.5637C208.584 70.2908 210.59 67.6907 211.409 66.5993C211.618 66.3265 211.826 66.0215 212.035 65.7326C213.062 64.24 214.073 62.4424 215.181 60.1472C215.325 59.9225 215.47 59.6497 215.373 59.4571C215.149 59.3768 215.02 59.4089 214.844 59.5052C210.976 61.5115 207.027 63.0523 202.806 64.1116C202.453 64.1918 202.196 64.1116 201.972 63.8869C201.618 63.4856 201.297 63.1165 200.912 62.8115C199.66 61.7683 198.376 60.8695 196.98 60.1151C193.658 58.3496 189.886 57.5471 186.13 57.7879C183.177 57.9805 180.272 58.8151 177.64 60.1793C175.008 61.5596 172.664 63.4696 170.786 65.7808C168.86 68.1722 167.432 70.981 166.694 73.9663C165.987 76.8553 166.068 79.6961 166.469 82.6172C166.533 83.0987 166.485 83.1629 166.052 83.0987C150.034 80.7073 136.664 75.0898 125.734 63.2128C125.381 62.8276 125.028 62.4263 124.675 62.0251C124.193 61.4794 123.936 61.4794 123.535 62.0732C118.672 69.376 121.031 81.1085 127.114 86.8705C127.933 87.6409 128.751 88.4113 129.65 89.1014C129.329 89.1656 125.269 88.7323 121.657 86.8705C120.438 86.1001 120.951 89.1496 121.015 89.6632C121.128 90.5299 121.288 91.3966 121.513 92.2472C123.182 98.6191 127.933 104.124 134.096 106.58C134.931 106.917 135.846 107.238 136.744 107.398C135.139 107.752 133.502 107.992 128.912 107.639C128.334 107.527 128.125 107.816 128.334 108.361C131.913 117.703 139.216 120.543 144.785 122.148C145.524 122.277 146.278 122.277 147.032 122.453C146.984 122.518 146.936 122.518 146.904 122.582C145.058 125.407 138.654 127.493 135.669 128.536C132.266 129.724 128.671 130.51 125.044 130.783C122.893 130.944 120.742 130.928 118.608 130.719C117.693 130.591 117.5 130.591 117.244 130.719C116.987 130.88 117.211 131.088 117.5 131.329C118.672 132.099 119.844 132.79 121.063 133.432C124.691 135.39 128.511 136.898 132.475 137.99C135.701 138.889 138.991 139.531 142.314 139.932C158.011 141.826 174.237 138.15 186.74 128.36C188.377 127.076 189.966 125.679 191.475 124.187C192.502 123.176 193.465 122.132 194.38 121.041C196.723 118.264 198.729 115.279 200.399 112.165C205.743 102.15 207.814 90.5941 207.814 79.022C207.814 78.38 208.584 78.0109 209.034 77.6738C212.179 75.3145 214.523 72.4736 216.866 69.3278C217.396 68.6537 217.219 68.0117 217.219 67.7549Z" fill="#CDD0E1"/>
<path d="M217.379 67.5626C217.379 67.5144 217.379 67.4823 217.379 67.4823C217.396 67.2737 210.542 69.7935 207.107 70.3713C208.745 70.0985 210.751 67.4984 211.569 66.407C211.778 66.1341 211.987 65.8292 212.195 65.5403C213.223 64.0476 214.234 62.25 215.341 59.9549C215.486 59.7302 215.63 59.4573 215.534 59.2647C215.309 59.1844 215.181 59.2166 215.004 59.3129C211.136 61.3191 207.188 62.8599 202.967 63.9192C202.613 63.9995 202.357 63.9192 202.132 63.6945C201.779 63.2933 201.458 62.9241 201.073 62.6192C199.821 61.5759 198.537 60.6771 197.14 59.9228C193.818 58.1573 190.046 57.3548 186.291 57.5955C183.337 57.7881 180.432 58.6227 177.8 59.9869C175.168 61.3673 172.825 63.2772 170.947 65.5884C169.021 67.9799 167.592 70.7886 166.854 73.7739C166.148 76.6629 166.228 79.5038 166.629 82.4249C166.694 82.9064 166.645 82.9706 166.212 82.9064C150.194 80.5149 136.825 74.8974 125.894 63.0204C125.541 62.6352 125.188 62.234 124.835 61.8327C124.354 61.287 124.097 61.287 123.696 61.8809C118.832 69.1997 121.208 80.9322 127.291 86.6942C128.109 87.4646 128.928 88.235 129.827 88.9251C129.506 88.9893 125.445 88.556 121.834 86.6942C120.614 85.9238 121.128 88.9733 121.192 89.4869C121.304 90.3536 121.465 91.2203 121.689 92.0709C123.359 98.4428 128.109 103.948 134.273 106.404C135.107 106.741 136.022 107.062 136.921 107.222C135.316 107.575 133.679 107.816 129.088 107.463C128.511 107.351 128.302 107.639 128.511 108.185C132.09 117.526 139.393 120.367 144.962 121.972C145.7 122.101 146.455 122.1 147.209 122.277C147.161 122.341 147.113 122.341 147.08 122.405C145.235 125.23 138.831 127.317 135.845 128.36C132.443 129.548 128.848 130.334 125.22 130.607C123.07 130.768 120.919 130.751 118.784 130.543C117.869 130.414 117.677 130.414 117.42 130.543C117.163 130.703 117.388 130.912 117.677 131.153C118.849 131.923 120.02 132.613 121.24 133.255C124.867 135.213 128.687 136.722 132.652 137.813C135.878 138.712 139.168 139.354 142.49 139.756C158.187 141.649 174.414 137.974 186.917 128.183C188.554 126.899 190.143 125.503 191.651 124.01C192.679 122.999 193.642 121.956 194.556 120.865C196.9 118.088 198.906 115.103 200.575 111.989C205.92 101.974 207.99 90.4178 207.99 78.8457C207.99 78.2037 208.761 77.8346 209.21 77.4975C212.356 75.1382 214.699 72.2973 217.042 69.1515C217.572 68.4453 217.379 67.8194 217.379 67.5626Z" fill="#D0D3E3"/>
<path d="M217.556 67.3692C217.556 67.321 217.556 67.2889 217.556 67.2889C217.572 67.0803 210.719 69.6001 207.284 70.1779C208.921 69.9051 210.927 67.305 211.746 66.2136C211.955 65.9407 212.163 65.6358 212.372 65.3469C213.399 63.8542 214.41 62.0566 215.518 59.7615C215.662 59.5368 215.807 59.2639 215.71 59.0713C215.486 58.9911 215.357 59.0232 215.181 59.1195C211.313 61.1257 207.364 62.6665 203.143 63.7258C202.79 63.8061 202.533 63.7258 202.309 63.5011C201.955 63.0999 201.634 62.7307 201.249 62.4258C199.997 61.3825 198.713 60.4837 197.317 59.7294C193.995 57.9639 190.223 57.1614 186.467 57.4021C183.514 57.5947 180.609 58.4293 177.977 59.7936C175.345 61.1739 173.001 63.0838 171.123 65.395C169.197 67.7865 167.769 70.5952 167.031 73.5805C166.324 76.4695 166.405 79.3104 166.806 82.2315C166.87 82.713 166.822 82.7772 166.389 82.713C150.371 80.3215 137.001 74.704 126.071 62.827C125.718 62.4418 125.365 62.0406 125.012 61.6393C124.53 61.0936 124.273 61.0936 123.872 61.6875C119.009 68.9902 121.368 80.7228 127.451 86.4847C128.27 87.2551 129.088 88.0255 129.987 88.7157C129.666 88.7799 125.606 88.3465 121.994 86.4847C120.775 85.7143 121.288 88.7638 121.352 89.2774C121.465 90.1441 121.625 91.0108 121.85 91.8615C123.519 98.2333 128.27 103.738 134.433 106.194C135.268 106.531 136.183 106.852 137.081 107.013C135.476 107.366 133.839 107.606 129.249 107.253C128.671 107.141 128.462 107.43 128.671 107.976C132.25 117.317 139.553 120.158 145.122 121.763C145.861 121.891 146.615 121.891 147.369 122.068C147.321 122.132 147.273 122.132 147.241 122.196C145.395 125.021 138.991 127.107 136.006 128.15C132.603 129.338 129.008 130.125 125.381 130.397C123.23 130.558 121.079 130.542 118.945 130.333C118.03 130.205 117.837 130.205 117.581 130.333C117.324 130.494 117.548 130.702 117.837 130.943C119.009 131.714 120.181 132.404 121.4 133.046C125.028 135.004 128.848 136.513 132.812 137.604C136.038 138.503 139.328 139.145 142.651 139.546C158.348 141.44 174.574 137.764 187.077 127.974C188.714 126.69 190.303 125.294 191.812 123.801C192.839 122.79 193.802 121.747 194.717 120.655C197.06 117.878 199.066 114.893 200.736 111.779C206.08 101.764 208.151 90.2083 208.151 78.6363C208.151 77.9943 208.921 77.6251 209.371 77.2881C212.516 74.9287 214.86 72.0879 217.203 68.9421C217.749 68.2519 217.556 67.626 217.556 67.3692Z" fill="#D3D5E5"/>
<path d="M217.733 67.1768C217.733 67.1287 217.733 67.0966 217.733 67.0966C217.749 66.8879 210.895 69.4078 207.461 69.9856C209.098 69.7127 211.104 67.1126 211.922 66.0212C212.131 65.7484 212.34 65.4434 212.548 65.1545C213.576 63.6619 214.587 61.8643 215.694 59.5691C215.839 59.3444 215.983 59.0716 215.887 58.879C215.662 58.7987 215.534 58.8308 215.357 58.9271C211.489 60.9334 207.541 62.4742 203.32 63.5335C202.967 63.6137 202.71 63.5335 202.485 63.3088C202.132 62.9075 201.811 62.5384 201.426 62.2334C200.174 61.1902 198.89 60.2914 197.493 59.537C194.171 57.7715 190.399 56.969 186.644 57.2098C183.69 57.4024 180.785 58.237 178.153 59.6012C175.521 60.9815 173.178 62.8915 171.3 65.2027C169.374 67.5941 167.945 70.4028 167.207 73.3881C166.501 76.2771 166.581 79.118 166.982 82.0391C167.047 82.5206 166.998 82.5848 166.565 82.5206C150.547 80.1291 137.178 74.5116 126.248 62.6347C125.894 62.2495 125.541 61.8482 125.188 61.447C124.707 60.9013 124.45 60.9013 124.049 61.4951C119.186 68.7979 121.545 80.5304 127.628 86.2923C128.446 87.0627 129.265 87.8331 130.164 88.5233C129.843 88.5875 125.782 88.1541 122.171 86.2923C120.951 85.5219 121.465 88.5714 121.529 89.085C121.641 89.9517 121.802 90.8184 122.026 91.6691C123.696 98.0409 128.446 103.546 134.61 106.002C135.444 106.339 136.359 106.66 137.258 106.82C135.653 107.173 134.016 107.414 129.425 107.061C128.848 106.949 128.639 107.238 128.848 107.783C132.427 117.124 139.73 119.965 145.299 121.57C146.037 121.699 146.792 121.699 147.546 121.875C147.498 121.939 147.45 121.939 147.417 122.004C145.572 124.828 139.168 126.915 136.182 127.958C132.78 129.146 129.185 129.932 125.557 130.205C123.407 130.366 121.256 130.35 119.121 130.141C118.206 130.012 118.014 130.012 117.757 130.141C117.5 130.301 117.725 130.51 118.014 130.751C119.186 131.521 120.357 132.211 121.577 132.853C125.204 134.811 129.024 136.32 132.989 137.412C136.215 138.31 139.505 138.952 142.827 139.354C158.524 141.247 174.751 137.572 187.254 127.782C188.891 126.498 190.48 125.101 191.988 123.609C193.016 122.597 193.979 121.554 194.893 120.463C197.237 117.686 199.243 114.701 200.912 111.587C206.257 101.572 208.327 90.0159 208.327 78.4439C208.327 77.8019 209.098 77.4327 209.547 77.0957C212.693 74.7364 215.036 71.8955 217.379 68.7497C217.925 68.0596 217.733 67.4336 217.733 67.1768Z" fill="#D5D8E8"/>
<path d="M217.909 66.9678C217.909 66.9197 217.909 66.8876 217.909 66.8876C217.925 66.6789 211.072 69.1988 207.637 69.7766C209.274 69.5037 211.281 66.9036 212.099 65.8122C212.308 65.5394 212.516 65.2344 212.725 64.9455C213.752 63.4529 214.763 61.6553 215.871 59.3601C216.015 59.1354 216.16 58.8626 216.063 58.67C215.839 58.5897 215.71 58.6218 215.534 58.7181C211.666 60.7244 207.717 62.2652 203.496 63.3245C203.143 63.4047 202.886 63.3245 202.662 63.0998C202.309 62.6985 201.988 62.3294 201.602 62.0244C200.35 60.9812 199.066 60.0824 197.67 59.328C194.348 57.5625 190.576 56.76 186.82 57.0008C183.867 57.1934 180.962 58.028 178.33 59.3922C175.698 60.7725 173.354 62.6825 171.477 64.9937C169.551 67.3851 168.122 70.1939 167.384 73.1792C166.678 76.0682 166.758 78.9091 167.159 81.8302C167.223 82.3117 167.175 82.3759 166.742 82.3117C150.724 79.9202 137.354 74.3027 126.424 62.4257C126.071 62.0405 125.718 61.6392 125.365 61.238C124.883 60.6923 124.627 60.6923 124.225 61.2861C119.362 68.5889 121.722 80.3215 127.804 86.0834C128.623 86.8538 129.442 87.6242 130.34 88.3144C130.019 88.3786 125.959 87.9452 122.347 86.0834C121.128 85.313 121.641 88.3625 121.705 88.8761C121.818 89.7428 121.978 90.6095 122.203 91.4602C123.872 97.832 128.623 103.337 134.786 105.793C135.621 106.13 136.536 106.451 137.434 106.611C135.829 106.964 134.192 107.205 129.602 106.852C129.024 106.74 128.816 107.029 129.024 107.574C132.603 116.915 139.906 119.756 145.476 121.361C146.214 121.49 146.968 121.49 147.723 121.666C147.674 121.73 147.626 121.73 147.594 121.795C145.748 124.619 139.344 126.706 136.359 127.749C132.957 128.937 129.361 129.723 125.734 129.996C123.583 130.157 121.433 130.141 119.298 129.932C118.383 129.804 118.191 129.804 117.934 129.932C117.677 130.093 117.902 130.301 118.191 130.542C119.362 131.312 120.534 132.003 121.754 132.645C125.381 134.603 129.201 136.111 133.165 137.203C136.391 138.102 139.681 138.744 143.004 139.145C158.701 141.039 174.927 137.363 187.43 127.573C189.067 126.289 190.656 124.892 192.165 123.4C193.192 122.389 194.155 121.345 195.07 120.254C197.413 117.477 199.42 114.492 201.089 111.378C206.433 101.363 208.504 89.807 208.504 78.2349C208.504 77.5929 209.274 77.2238 209.724 76.8868C212.869 74.5274 215.213 71.6865 217.556 68.5407C218.102 67.8666 217.909 67.2246 217.909 66.9678Z" fill="#D7DBEA"/>
<path d="M218.086 66.7755C218.086 66.7273 218.086 66.6952 218.086 66.6952C218.102 66.4866 211.248 69.0064 207.814 69.5842C209.451 69.3114 211.457 66.7113 212.276 65.6199C212.484 65.347 212.693 65.0421 212.902 64.7532C213.929 63.2605 214.94 61.4629 216.047 59.1677C216.192 58.943 216.336 58.6702 216.24 58.4776C216.015 58.3973 215.887 58.4294 215.71 58.5257C211.842 60.532 207.894 62.0728 203.673 63.1321C203.32 63.2124 203.063 63.1321 202.838 62.9074C202.485 62.5061 202.164 62.137 201.779 61.832C200.527 60.7888 199.243 59.89 197.847 59.1356C194.524 57.3701 190.753 56.5676 186.997 56.8084C184.044 57.001 181.139 57.8356 178.506 59.1999C175.874 60.5802 173.531 62.4901 171.653 64.8013C169.727 67.1928 168.299 70.0015 167.56 72.9868C166.854 75.8758 166.934 78.7167 167.336 81.6378C167.4 82.1193 167.352 82.1835 166.918 82.1193C150.9 79.7278 137.531 74.1103 126.601 62.2333C126.248 61.8481 125.895 61.4469 125.541 61.0456C125.06 60.4999 124.803 60.4999 124.402 61.0938C119.539 68.3965 121.898 80.1291 127.981 85.891C128.8 86.6614 129.618 87.4318 130.517 88.122C130.196 88.1862 126.135 87.7528 122.524 85.891C121.304 85.1206 121.818 88.1701 121.882 88.6837C121.994 89.5504 122.155 90.4171 122.38 91.2678C124.049 97.6396 128.8 103.145 134.963 105.6C135.797 105.937 136.712 106.258 137.611 106.419C136.006 106.772 134.369 107.013 129.779 106.66C129.201 106.547 128.992 106.836 129.201 107.382C132.78 116.723 140.083 119.564 145.652 121.169C146.39 121.297 147.145 121.297 147.899 121.474C147.851 121.538 147.803 121.538 147.771 121.602C145.925 124.427 139.521 126.514 136.536 127.557C133.133 128.745 129.538 129.531 125.911 129.804C123.76 129.964 121.609 129.948 119.474 129.74C118.56 129.611 118.367 129.611 118.11 129.74C117.853 129.9 118.078 130.109 118.367 130.35C119.539 131.12 120.71 131.81 121.93 132.452C125.557 134.41 129.377 135.919 133.342 137.01C136.568 137.909 139.858 138.551 143.18 138.952C158.877 140.846 175.104 137.171 187.607 127.38C189.244 126.096 190.833 124.7 192.341 123.207C193.369 122.196 194.332 121.153 195.247 120.062C197.59 117.285 199.596 114.3 201.265 111.186C206.61 101.171 208.68 89.6146 208.68 78.0426C208.68 77.4006 209.451 77.0314 209.9 76.6944C213.046 74.335 215.389 71.4942 217.733 68.3484C218.262 67.6743 218.086 67.0323 218.086 66.7755Z" fill="#DADDEE"/>
<path d="M218.246 66.5831C218.246 66.5349 218.246 66.5028 218.246 66.5028C218.262 66.2942 211.409 68.814 207.974 69.3918C209.611 69.119 211.618 66.5189 212.436 65.4275C212.645 65.1546 212.853 64.8497 213.062 64.5608C214.089 63.0681 215.1 61.2705 216.208 58.9754C216.352 58.7507 216.497 58.4778 216.401 58.2852C216.176 58.205 216.047 58.2371 215.871 58.3334C212.035 60.3878 208.055 61.8804 203.833 62.9397C203.48 63.02 203.223 62.9397 202.999 62.715C202.646 62.3138 202.325 61.9446 201.939 61.6397C200.704 60.5804 199.404 59.6976 198.007 58.9433C194.685 57.1778 190.913 56.3753 187.157 56.616C184.204 56.8086 181.299 57.6432 178.667 59.0075C176.035 60.3878 173.691 62.2977 171.814 64.6089C169.888 67.0004 168.459 69.8091 167.721 72.7944C167.015 75.6834 167.079 78.5243 167.496 81.4454C167.56 81.9269 167.512 81.9911 167.079 81.9269C151.061 79.5354 137.691 73.9179 126.761 62.0409C126.408 61.6557 126.055 61.2545 125.702 60.8532C125.22 60.3075 124.964 60.3075 124.562 60.9014C119.699 68.2041 122.059 79.9367 128.142 85.6986C128.96 86.469 129.779 87.2394 130.677 87.9296C130.356 87.9938 126.296 87.5604 122.685 85.6986C121.465 84.9282 121.978 87.9777 122.043 88.4913C122.155 89.358 122.315 90.2247 122.54 91.0754C124.209 97.4472 128.928 103.049 135.123 105.408C135.958 105.761 136.873 106.066 137.772 106.227C136.167 106.58 134.529 106.82 129.939 106.467C129.361 106.355 129.153 106.644 129.361 107.19C132.812 116.579 140.243 119.372 145.813 120.977C146.551 121.105 147.305 121.105 148.06 121.281C148.011 121.346 147.963 121.346 147.931 121.41C146.085 124.235 139.681 126.321 136.696 127.364C133.294 128.552 129.698 129.339 126.071 129.611C123.92 129.772 121.77 129.756 119.635 129.547C118.72 129.419 118.528 129.419 118.271 129.547C118.014 129.708 118.239 129.916 118.528 130.157C119.699 130.928 120.871 131.602 122.091 132.26C125.734 134.186 129.538 135.726 133.502 136.818C136.728 137.717 140.019 138.359 143.341 138.76C159.038 140.654 175.264 136.978 187.767 127.188C189.404 125.904 190.993 124.508 192.502 123.015C193.529 122.004 194.492 120.96 195.407 119.869C197.75 117.092 199.757 114.107 201.426 110.993C206.771 100.978 208.841 89.4222 208.841 77.8502C208.841 77.2082 209.611 76.839 210.061 76.502C213.207 74.1426 215.55 71.3018 217.893 68.156C218.439 67.4658 218.246 66.8399 218.246 66.5831Z" fill="#DDE0F1"/>
<path fill-rule="evenodd" clip-rule="evenodd" d="M151.366 138.84C151.366 138.664 153.147 138.84 151.366 138.84C151.366 138.76 151.59 138.84 151.366 138.84Z" fill="#E6E8F4"/>
<path fill-rule="evenodd" clip-rule="evenodd" d="M186.868 56.5518C186.756 56.632 186.612 56.632 186.451 56.5518C186.612 56.5518 186.756 56.5518 186.868 56.5518Z" fill="#E6E8F4"/>
<path fill-rule="evenodd" clip-rule="evenodd" d="M125.204 147.925C123.551 147.925 125.076 147.941 125.204 147.925V147.925Z" fill="#C5C9DA"/>
<path fill-rule="evenodd" clip-rule="evenodd" d="M128.623 147.989C128.671 147.989 128.719 148.021 128.575 148.021C130.196 148.021 128.88 147.877 128.623 147.989Z" fill="#C5C9DA"/>
<path fill-rule="evenodd" clip-rule="evenodd" d="M163.676 65.7324C163.821 65.8127 163.981 65.8127 164.093 65.7324C163.981 65.7324 163.821 65.7324 163.676 65.7324Z" fill="#C5C9DA"/>
</g>
</g>
<defs>
<linearGradient id="paint0_linear" x1="-13.2047" y1="187.272" x2="229.561" y2="-65.8539" gradientUnits="userSpaceOnUse">
<stop stop-color="#B1E2F9"/>
<stop offset="1" stop-color="#00ADEE"/>
</linearGradient>
<radialGradient id="paint1_radial" cx="0" cy="0" r="1" gradientUnits="userSpaceOnUse" gradientTransform="translate(253.501 248.673) scale(296.993 306.601)">
<stop offset="0.00777244" stop-color="white"/>
<stop offset="0.0904125" stop-color="#E8E8E8"/>
<stop offset="0.5456" stop-color="#6D6D6D"/>
<stop offset="0.8575" stop-color="#1F1F1F"/>
<stop offset="1"/>
</radialGradient>
<radialGradient id="paint2_radial" cx="0" cy="0" r="1" gradientUnits="userSpaceOnUse" gradientTransform="translate(262.276 251.585) scale(326.372 489.537)">
<stop offset="0.00777244" stop-color="#BFE7FA"/>
<stop offset="0.326" stop-color="#B4D3E7"/>
<stop offset="0.7872" stop-color="#6CAEE0" stop-opacity="0.66"/>
<stop offset="1" stop-color="#065A9C"/>
</radialGradient>
<radialGradient id="paint3_radial" cx="0" cy="0" r="1" gradientUnits="userSpaceOnUse" gradientTransform="translate(168.721 201.562) scale(93.01 17.5045)">
<stop stop-color="#2B388F"/>
<stop offset="0.1067" stop-color="#4A559F"/>
<stop offset="0.3448" stop-color="#8A91C1"/>
<stop offset="0.5617" stop-color="#BCC0DC"/>
<stop offset="0.7501" stop-color="#E1E3EF"/>
<stop offset="0.9025" stop-color="#F7F7FB"/>
<stop offset="1" stop-color="white"/>
</radialGradient>
<clipPath id="clip0">
<path d="M0.80249 30.0254C0.80249 13.4569 14.2339 0.0253906 30.8025 0.0253906H298.802C315.371 0.0253906 328.802 13.4569 328.802 30.0254V215.025H0.80249V30.0254Z" fill="white"/>
</clipPath>
</defs>
</svg>
