<svg width="19" height="16" viewBox="0 0 19 16" fill="none" xmlns="http://www.w3.org/2000/svg">
<path fill-rule="evenodd" clip-rule="evenodd" d="M9.36194 4.66888L9.39975 5.29242L8.76952 5.21607C6.47547 4.92339 4.47133 3.93082 2.7697 2.26382L1.93779 1.43668L1.72351 2.04749C1.26974 3.40909 1.55965 4.84704 2.505 5.81415C3.00919 6.34861 2.89574 6.42496 2.02602 6.10683C1.72351 6.00503 1.45881 5.92868 1.4336 5.96685C1.34537 6.05593 1.64788 7.21392 1.88737 7.67203C2.21509 8.30829 2.88314 8.93183 3.61421 9.30086L4.23184 9.59354L3.50077 9.60626C2.79491 9.60626 2.7697 9.61899 2.84533 9.88622C3.09742 10.7134 4.09319 11.5914 5.2024 11.9732L5.98389 12.2404L5.30324 12.6476C4.29486 13.2329 3.11002 13.5638 1.92518 13.5893C1.35797 13.602 0.891602 13.6529 0.891602 13.6911C0.891602 13.8183 2.42937 14.5309 3.3243 14.8109C6.0091 15.638 9.19808 15.2817 11.593 13.8692C13.2946 12.8639 14.9962 10.8661 15.7903 8.93183C16.2189 7.90109 16.6474 6.01775 16.6474 5.11426C16.6474 4.5289 16.6853 4.45255 17.3911 3.75267C17.8071 3.34546 18.1978 2.90008 18.2734 2.77283C18.3995 2.53105 18.3869 2.53105 17.744 2.74738C16.6726 3.12913 16.5214 3.07823 17.0508 2.5056C17.4415 2.09839 17.9079 1.36033 17.9079 1.144C17.9079 1.10582 17.7188 1.16945 17.5046 1.28398C17.2777 1.41123 16.7735 1.60211 16.3953 1.71663L15.7147 1.93296L15.0971 1.51303C14.7567 1.28398 14.2778 1.02947 14.0257 0.953121C13.3828 0.774968 12.3997 0.800418 11.8199 1.00402C10.2443 1.57666 9.2485 3.05278 9.36194 4.66888Z" fill="white"/>
</svg>
