<svg width="36" height="36" viewBox="0 0 36 36" fill="none" xmlns="http://www.w3.org/2000/svg">
<rect x="0.978955" y="1.63398" width="33.4" height="33.4" rx="16.7" fill="#55ACEE" stroke="white" stroke-width="1.4"/>
<path fill-rule="evenodd" clip-rule="evenodd" d="M18.1288 16.2809L18.1594 16.7855L17.6494 16.7237C15.7931 16.4868 14.1714 15.6837 12.7944 14.3347L12.1212 13.6654L11.9478 14.1597C11.5806 15.2615 11.8152 16.4251 12.5802 17.2077C12.9882 17.6401 12.8964 17.7019 12.1926 17.4445C11.9478 17.3621 11.7336 17.3003 11.7132 17.3312C11.6418 17.4033 11.8866 18.3403 12.0804 18.711C12.3456 19.2259 12.8862 19.7305 13.4778 20.0291L13.9776 20.2659L13.386 20.2762C12.8148 20.2762 12.7944 20.2865 12.8556 20.5027C13.0596 21.1721 13.8654 21.8826 14.7629 22.1915L15.3953 22.4077L14.8445 22.7372C14.0286 23.2109 13.0698 23.4786 12.111 23.4992C11.652 23.5095 11.2747 23.5507 11.2747 23.5816C11.2747 23.6846 12.519 24.2612 13.2432 24.4877C15.4157 25.157 17.9962 24.8687 19.9341 23.7257C21.3111 22.9123 22.688 21.2956 23.3306 19.7305C23.6774 18.8964 24.0242 17.3724 24.0242 16.6413C24.0242 16.1676 24.0548 16.1059 24.626 15.5395C24.9626 15.21 25.2787 14.8496 25.3399 14.7466C25.4419 14.551 25.4317 14.551 24.9116 14.726C24.0446 15.035 23.9222 14.9938 24.3506 14.5304C24.6668 14.2009 25.0441 13.6036 25.0441 13.4286C25.0441 13.3977 24.8912 13.4492 24.7178 13.5419C24.5342 13.6448 24.1262 13.7993 23.8202 13.892L23.2694 14.067L22.7696 13.7272C22.4942 13.5419 22.1067 13.3359 21.9027 13.2741C21.3825 13.13 20.5869 13.1506 20.1177 13.3153C18.8428 13.7787 18.037 14.9732 18.1288 16.2809Z" fill="white"/>
</svg>
