<svg width="21" height="15" viewBox="0 0 21 15" fill="none" xmlns="http://www.w3.org/2000/svg">
<path fill-rule="evenodd" clip-rule="evenodd" d="M10.4655 0.650635C12.8571 0.650635 15.144 1.8629 17.2752 3.85466C18.0023 4.53416 18.6601 5.2596 19.2392 5.98534C19.5886 6.42327 19.8367 6.76777 19.9725 6.97301L20.2747 7.42957L19.9725 7.88613C19.8367 8.09137 19.5886 8.43587 19.2392 8.8738C18.6601 9.59954 18.0023 10.325 17.2752 11.0045C15.144 12.9962 12.8571 14.2085 10.4655 14.2085C8.07385 14.2085 5.78694 12.9962 3.65569 11.0045C2.9286 10.325 2.27081 9.59954 1.69175 8.8738C1.34232 8.43587 1.09424 8.09137 0.958408 7.88613L0.65625 7.42957L0.958408 6.97301C1.09424 6.76777 1.34232 6.42327 1.69175 5.98534C2.27081 5.2596 2.9286 4.53416 3.65569 3.85466C5.78694 1.8629 8.07385 0.650635 10.4655 0.650635ZM17.8504 7.01838C17.3202 6.35392 16.7174 5.68914 16.0561 5.07111C14.2205 3.35564 12.3113 2.34357 10.4654 2.34357C8.61963 2.34357 6.71038 3.35564 4.87476 5.07111C4.21345 5.68914 3.61066 6.35392 3.08049 7.01838C2.96599 7.16189 2.86018 7.29882 2.76344 7.42777C2.86018 7.55672 2.96599 7.69364 3.08049 7.83715C3.61066 8.50162 4.21345 9.16639 4.87476 9.78442C6.71038 11.4999 8.61963 12.512 10.4654 12.512C12.3113 12.512 14.2205 11.4999 16.0561 9.78442C16.7174 9.16639 17.3202 8.50162 17.8504 7.83715C17.9649 7.69364 18.0707 7.55672 18.1674 7.42777C18.0707 7.29882 17.9649 7.16189 17.8504 7.01838ZM6.95849 7.42859C6.95849 9.30054 8.52878 10.8181 10.4658 10.8181C12.4029 10.8181 13.9732 9.30054 13.9732 7.42859C13.9732 5.55664 12.4029 4.03912 10.4658 4.03912C8.52878 4.03912 6.95849 5.55664 6.95849 7.42859ZM12.2201 7.42572C12.2201 8.3617 11.435 9.12045 10.4664 9.12045C9.49791 9.12045 8.71276 8.3617 8.71276 7.42572C8.71276 6.48975 9.49791 5.73099 10.4664 5.73099C11.435 5.73099 12.2201 6.48975 12.2201 7.42572Z" fill="#323754"/>
</svg>
