<svg width="33" height="33" viewBox="0 0 33 33" fill="none" xmlns="http://www.w3.org/2000/svg">
<circle cx="16.8252" cy="16.1024" r="15.5" fill="#FF0000" stroke="white"/>
<path fill-rule="evenodd" clip-rule="evenodd" d="M25.3036 11.6162C25.0944 10.8142 24.4782 10.1826 23.6957 9.96827C22.2776 9.57874 16.5908 9.57874 16.5908 9.57874C16.5908 9.57874 10.904 9.57874 9.48585 9.96827C8.70336 10.1826 8.08711 10.8142 7.87798 11.6162C7.49805 13.0697 7.49805 16.1026 7.49805 16.1026C7.49805 16.1026 7.49805 19.1353 7.87798 20.589C8.08711 21.391 8.70336 22.0225 9.48585 22.237C10.904 22.6264 16.5908 22.6264 16.5908 22.6264C16.5908 22.6264 22.2776 22.6264 23.6957 22.237C24.4782 22.0225 25.0944 21.391 25.3036 20.589C25.6836 19.1353 25.6836 16.1026 25.6836 16.1026C25.6836 16.1026 25.6836 13.0697 25.3036 11.6162Z" fill="#F6F6F6"/>
<path fill-rule="evenodd" clip-rule="evenodd" d="M14.8887 19.2205V13.5476L19.4351 16.3842L14.8887 19.2205Z" fill="#FF0000"/>
</svg>
