<svg width="40" height="34" viewBox="0 0 40 34" fill="none" xmlns="http://www.w3.org/2000/svg">
<path d="M29.8501 10.5051C29.1501 10.1051 28.2501 10.1051 27.4501 10.5051L21.8501 13.8051L18.0501 15.9051L12.5501 19.2051C11.8501 19.6051 10.9501 19.6051 10.1501 19.2051L5.8501 16.6051C5.1501 16.2051 4.6501 15.4051 4.6501 14.5051V9.50508C4.6501 8.70508 5.0501 7.90508 5.8501 7.40508L10.1501 4.90508C10.8501 4.50508 11.7501 4.50508 12.5501 4.90508L16.8501 7.50508C17.5501 7.90508 18.0501 8.70508 18.0501 9.60508V12.9051L21.8501 10.7051V7.30508C21.8501 6.50508 21.4501 5.70508 20.6501 5.20508L12.6501 0.505078C11.9501 0.105078 11.0501 0.105078 10.2501 0.505078L2.0501 5.30508C1.2501 5.70508 0.850098 6.50508 0.850098 7.30508V16.7051C0.850098 17.5051 1.2501 18.3051 2.0501 18.8051L10.1501 23.5051C10.8501 23.9051 11.7501 23.9051 12.5501 23.5051L18.0501 20.3051L21.8501 18.1051L27.3501 14.9051C28.0501 14.5051 28.9501 14.5051 29.7501 14.9051L34.0501 17.4051C34.7501 17.8051 35.2501 18.6051 35.2501 19.5051V24.5051C35.2501 25.3051 34.8501 26.1051 34.0501 26.6051L29.8501 29.1051C29.1501 29.5051 28.2501 29.5051 27.4501 29.1051L23.1501 26.6051C22.4501 26.2051 21.9501 25.4051 21.9501 24.5051V21.3051L18.1501 23.5051V26.8051C18.1501 27.6051 18.5501 28.4051 19.3501 28.9051L27.4501 33.6051C28.1501 34.0051 29.0501 34.0051 29.8501 33.6051L37.9501 28.9051C38.6501 28.5051 39.1501 27.7051 39.1501 26.8051V17.3051C39.1501 16.5051 38.7501 15.7051 37.9501 15.2051L29.8501 10.5051Z" fill="white"/>
</svg>
