<svg width="14" height="14" viewBox="0 0 14 14" fill="none" xmlns="http://www.w3.org/2000/svg">
<path d="M3.78745 5.34597H3.75848C4.35119 4.18089 5.56151 3.38255 6.9583 3.38255C7.85933 3.38255 8.68257 3.71458 9.31262 4.263H9.33464H10.7647C9.91802 3.07471 8.52865 2.29959 6.9583 2.29959C4.56185 2.29959 2.58719 4.10429 2.31884 6.42893L5.33409 6.42869V7.51141H2.31836L2.31956 7.51979C2.36336 7.89323 2.45122 8.25302 2.57761 8.59438H5.33361V11.3504C5.67713 11.4777 6.04027 11.5661 6.41634 11.6096V8.59462H7.49906V11.6099C7.87537 11.5663 8.23827 11.4782 8.58179 11.3506V8.59438H11.3378C11.5255 8.08856 11.6279 7.54134 11.6279 6.97017C11.6279 6.39901 11.5255 5.85178 11.3378 5.34597H10.6965H3.78745ZM7.4993 7.51165H6.41658V6.42893H7.4993V7.51165ZM10.505 7.51165H8.58227V6.42893H10.505C10.5318 6.60559 10.5457 6.78633 10.5457 6.97041C10.5457 7.15426 10.5318 7.33499 10.505 7.51165Z" fill="white"/>
<path d="M6.9547 0.122803C3.17295 0.122803 0.107422 3.18857 0.107422 6.97008C0.107422 10.7516 3.17295 13.8174 6.9547 13.8174C10.7365 13.8174 13.802 10.7516 13.802 6.97008C13.802 3.18857 10.7365 0.122803 6.9547 0.122803ZM6.9547 12.7327C3.77212 12.7327 1.19206 10.1527 1.19206 6.97008C1.19206 3.7875 3.77212 1.20744 6.9547 1.20744C10.1373 1.20744 12.7173 3.7875 12.7173 6.97008C12.7173 10.1527 10.1373 12.7327 6.9547 12.7327Z" fill="white"/>
</svg>
