<svg width="13" height="14" viewBox="0 0 13 14" fill="none" xmlns="http://www.w3.org/2000/svg">
<path d="M12.6603 2.5336C13.0357 2.15815 13.0357 1.54942 12.6603 1.17396C12.2848 0.798507 11.6761 0.798507 11.3006 1.17396L6.59009 5.8845L1.87955 1.17396C1.5041 0.798506 0.895364 0.798507 0.519909 1.17396C0.144454 1.54942 0.144454 2.15815 0.519909 2.5336L5.23044 7.24414L0.519909 11.9547C0.144454 12.3301 0.144454 12.9389 0.519909 13.3143C0.895364 13.6898 1.5041 13.6898 1.87955 13.3143L6.59009 8.60378L11.3006 13.3143C11.6761 13.6898 12.2848 13.6898 12.6603 13.3143C13.0357 12.9389 13.0357 12.3301 12.6603 11.9547L7.94973 7.24414L12.6603 2.5336Z" fill="#ADADC8"/>
</svg>
