<svg width="36" height="38" viewBox="0 0 36 38" fill="none" xmlns="http://www.w3.org/2000/svg">
<path fill-rule="evenodd" clip-rule="evenodd" d="M35.5444 19.0052C35.5444 15.9496 33.5662 13.5568 30.2944 13.5568H24.9166L24.9329 13.5104L24.9653 13.4193C25.0137 13.2833 25.15 12.9106 25.2826 12.5477L25.2836 12.5452L25.2841 12.5438L25.2848 12.5418C25.4024 12.2202 25.5168 11.9073 25.5643 11.775C25.897 10.8482 26.1398 10.1014 26.3363 9.36182C26.6332 8.24401 26.7944 7.23693 26.7944 6.29235C26.7944 3.61901 25.2051 1.95858 22.8539 1.24806C21.7934 0.927587 20.8703 0.843828 19.7944 0.843994H18.9552L18.4298 1.52301C17.8364 2.28999 16.6708 3.67223 15.3269 5.26584L15.3268 5.26603L15.3266 5.26624L15.3266 5.26626C12.8488 8.20453 9.76531 11.8612 8.54476 13.7048C8.22781 13.6068 7.89206 13.5543 7.54446 13.5543H4.04445C2.11144 13.5543 0.544434 15.1805 0.544434 17.1865V33.5315C0.544434 35.5376 2.11144 37.1638 4.04445 37.1638H7.54446C8.74569 37.1638 9.80558 36.5358 10.4359 35.5789C10.9673 35.9357 11.5602 36.2336 12.2048 36.4729C13.6789 37.0202 15.1408 37.1883 16.3545 37.1653L28.5444 37.1663C33.3659 37.1663 35.5444 29.7994 35.5444 19.0052ZM13.3828 33.0526C11.8699 32.4909 11.0801 31.5832 11.0445 30.0139V17.1865C11.0445 17.1639 11.0443 17.1414 11.0439 17.119C11.0518 16.711 11.1301 16.3441 11.2912 15.9537C11.597 15.2128 14.3716 11.9277 17.0014 8.81401L17.0014 8.81399C18.3587 7.20701 19.6774 5.64568 20.5982 4.50336C21.0382 4.53761 21.4529 4.60778 21.8742 4.7351C22.8771 5.03814 23.2933 5.47297 23.2933 6.29199C23.2933 6.86694 23.1811 7.56748 22.961 8.39616C22.7965 9.0154 22.5835 9.67064 22.2834 10.5066C22.2408 10.6252 22.1345 10.916 22.0215 11.2251C21.8838 11.6017 21.7361 12.0057 21.6814 12.159C21.4539 12.7976 21.304 13.2678 21.2014 13.6951C20.7654 15.5112 21.2028 17.1887 23.2933 17.1887H30.2933C31.5029 17.1887 32.0433 17.8423 32.0433 19.0048C32.0433 27.7054 30.3198 33.5337 28.5433 33.5337H16.2932L16.2286 33.5349C15.4626 33.5491 14.3868 33.4254 13.3828 33.0526ZM4.0434 33.5344V17.1893H7.54341V33.5344H4.0434Z" fill="#4048FF"/>
</svg>
