<svg width="21" height="21" viewBox="0 0 21 21" fill="none" xmlns="http://www.w3.org/2000/svg">
<circle cx="10.4994" cy="10.8783" r="9.34273" stroke="#F52079" stroke-width="1.37221"/>
<path d="M14.3872 7.8566C14.628 7.61584 14.628 7.2255 14.3872 6.98475C14.1465 6.744 13.7561 6.744 13.5154 6.98475L10.4948 10.0053L7.47427 6.98475C7.23352 6.744 6.84318 6.744 6.60243 6.98475C6.36167 7.2255 6.36167 7.61584 6.60243 7.8566L9.62297 10.8771L6.60243 13.8977C6.36167 14.1384 6.36167 14.5288 6.60243 14.7695C6.84318 15.0103 7.23352 15.0103 7.47427 14.7695L10.4948 11.749L13.5154 14.7695C13.7561 15.0103 14.1465 15.0103 14.3872 14.7695C14.628 14.5288 14.628 14.1384 14.3872 13.8977L11.3667 10.8771L14.3872 7.8566Z" fill="#F52079"/>
</svg>
