<svg width="36" height="38" viewBox="0 0 36 38" fill="none" xmlns="http://www.w3.org/2000/svg">
<path fill-rule="evenodd" clip-rule="evenodd" d="M21.2343 9.63487C21.1329 9.14271 21.0795 8.63208 21.0795 8.10851C21.0795 4.09643 24.2135 0.843994 28.0794 0.843994C31.9453 0.843994 35.0792 4.09643 35.0792 8.10851C35.0792 12.1206 31.9453 15.373 28.0794 15.373C25.9741 15.373 24.0859 14.4085 22.8027 12.882L13.926 17.4882C14.0264 17.9781 14.0793 18.4863 14.0793 19.0073C14.0793 19.5305 14.026 20.0407 13.9247 20.5326L22.7974 25.1366C24.0807 23.6065 25.9712 22.6393 28.0794 22.6393C31.9453 22.6393 35.0792 25.8917 35.0792 29.9038C35.0792 33.9159 31.9453 37.1683 28.0794 37.1683C24.2135 37.1683 21.0795 33.9159 21.0795 29.9038C21.0795 29.3831 21.1323 28.8753 21.2326 28.3856L12.3568 23.7799C11.0736 25.3069 9.18508 26.2718 7.07943 26.2718C3.21352 26.2718 0.0795898 23.0194 0.0795898 19.0073C0.0795898 14.9952 3.21352 11.7428 7.07943 11.7428C9.18725 11.7428 11.0775 12.7097 12.3608 14.2394L21.2343 9.63487ZM28.1032 11.7801C30.076 11.7801 31.6753 10.1204 31.6753 8.07296C31.6753 6.02554 30.076 4.36578 28.1032 4.36578C26.1304 4.36578 24.5311 6.02554 24.5311 8.07296C24.5311 10.1204 26.1304 11.7801 28.1032 11.7801ZM31.6158 29.9877C31.6158 32.0351 30.0165 33.6949 28.0437 33.6949C26.0709 33.6949 24.4716 32.0351 24.4716 29.9877C24.4716 27.9403 26.0709 26.2805 28.0437 26.2805C30.0165 26.2805 31.6158 27.9403 31.6158 29.9877ZM7.04647 22.7119C9.01929 22.7119 10.6186 21.0521 10.6186 19.0047C10.6186 16.9573 9.01929 15.2975 7.04647 15.2975C5.07365 15.2975 3.47437 16.9573 3.47437 19.0047C3.47437 21.0521 5.07365 22.7119 7.04647 22.7119Z" fill="#00CC9E"/>
</svg>
