<svg width="9" height="9" viewBox="0 0 9 9" fill="none" xmlns="http://www.w3.org/2000/svg">
<path fill-rule="evenodd" clip-rule="evenodd" d="M8.71858 4.93739C8.71858 4.26442 8.26643 3.73743 7.51861 3.73743H6.28943L6.30056 3.70714C6.31168 3.67707 6.34301 3.5945 6.37344 3.5143L6.37362 3.51381C6.40049 3.443 6.42662 3.37413 6.43747 3.345C6.51352 3.14086 6.56902 2.97639 6.61393 2.8135C6.68179 2.56731 6.71863 2.34551 6.71863 2.13747C6.71863 1.54868 6.35539 1.18298 5.81797 1.02649C5.57557 0.95591 5.36459 0.937463 5.11868 0.9375H4.92688L4.80679 1.08705C4.67114 1.25599 4.40469 1.56045 4.09751 1.91147C3.53103 2.55879 2.82601 3.36441 2.54719 3.77034C2.47479 3.7488 2.3981 3.73723 2.31871 3.73723H1.51873C1.07691 3.73723 0.71875 4.0954 0.71875 4.53721V8.13712C0.71875 8.57893 1.07691 8.9371 1.51873 8.9371H2.31871C2.59339 8.9371 2.83574 8.79865 2.97979 8.58774C3.10121 8.6663 3.2367 8.73187 3.38397 8.78456C3.72089 8.90511 4.05504 8.94212 4.33246 8.93705L7.11862 8.93729C8.22065 8.93729 8.71858 7.31476 8.71858 4.93739ZM3.65339 8.03169C3.30225 7.90606 3.12154 7.70184 3.11869 7.34626V4.53721L3.11867 4.53227C3.11934 4.43843 3.13717 4.35487 3.17533 4.26575C3.24523 4.10256 3.87941 3.37904 4.48048 2.69327L4.48049 2.69326C4.79071 2.33934 5.09211 1.99547 5.30258 1.74388C5.40315 1.75142 5.49794 1.76688 5.59424 1.79492C5.82345 1.86166 5.91858 1.95743 5.91858 2.13782C5.91858 2.26445 5.89295 2.41873 5.84264 2.60125C5.80504 2.73763 5.75635 2.88194 5.68775 3.06606C5.67802 3.09218 5.65373 3.1562 5.6279 3.22427C5.59643 3.30723 5.56266 3.39623 5.55017 3.43C5.49816 3.57065 5.46389 3.6742 5.44045 3.7683C5.34081 4.1683 5.44077 4.53775 5.91858 4.53775H7.51854C7.79502 4.53775 7.91852 4.6817 7.91852 4.93774C7.91852 6.85399 7.52459 8.13766 7.11855 8.13766H4.31862L4.30385 8.1379C4.12877 8.14104 3.88288 8.1138 3.65339 8.03169ZM1.51875 8.13714V4.53723H2.31873V8.13714H1.51875Z" fill="#4149FF"/>
</svg>
