<svg width="73" height="72" viewBox="0 0 73 72" fill="none" xmlns="http://www.w3.org/2000/svg">
<circle cx="36.9486" cy="36.1249" r="35.8754" fill="url(#paint0_linear)"/>
<mask id="mask0" mask-type="alpha" maskUnits="userSpaceOnUse" x="1" y="0" width="72" height="72">
<circle cx="36.9486" cy="35.8754" r="35.8754" fill="url(#paint1_linear)"/>
</mask>
<g mask="url(#mask0)">
<path d="M21.1027 18.1525V74.2513C21.1027 75.9486 22.4788 77.3247 24.1761 77.3247H49.152C50.8496 77.3247 52.2256 75.9486 52.2256 74.2513V18.1525C52.2256 16.4552 50.8496 15.0791 49.152 15.0791H24.1761C22.4788 15.0791 21.1027 16.4552 21.1027 18.1525Z" fill="#0569FF"/>
<path d="M24.1785 18.0544C23.0799 18.0544 22.1862 18.9482 22.1862 20.0469V70.4615C22.1862 71.5602 23.0799 72.4541 24.1785 72.4541H49.1544C50.2532 72.4541 51.1468 71.5602 51.1468 70.4615V20.0469C51.1468 18.9482 50.2532 18.0544 49.1544 18.0544H24.1785Z" fill="#EBF1F9"/>
<path d="M36.6644 17.3734C37.0279 17.3734 37.3226 17.0787 37.3226 16.7151C37.3226 16.3516 37.0279 16.0569 36.6644 16.0569C36.3009 16.0569 36.0061 16.3516 36.0061 16.7151C36.0061 17.0787 36.3009 17.3734 36.6644 17.3734Z" fill="#D7B2E9"/>
<path d="M43.2439 60.2644H27.2661C26.2742 65.0169 25.9635 68.3973 25.7403 72.4538H33.9116L34.5568 70.0281C34.6953 71.1113 34.8326 71.815 34.9652 72.4538H42.5709L43.2439 60.2644Z" fill="#00161D"/>
<path d="M49.5551 49.8954C45.4233 46.7072 41.559 42.4469 38.2904 37.9551C35.7886 34.6045 36.9121 32.879 39.4256 31.9426C41.0058 32.0613 42.3447 32.5916 43.5763 34.1623C47.1243 38.6873 48.6625 41.33 51.3603 45.8681L49.5551 49.8954Z" fill="#EC5665"/>
<path d="M53.5978 34.8292L52.3504 34.3328L51.0451 37.6512L53.4089 38.7137C53.5473 37.2212 53.587 35.8547 53.5978 34.8292Z" fill="#E3E3E3"/>
<path d="M51.0465 37.6521L48.2581 44.7419L50.1841 48.2686C52.2895 46.0622 53.6449 42.132 53.956 38.7777L51.0465 37.6521Z" fill="#EC5665"/>
<path d="M54.7752 36.6474L53.9174 36.9533C53.5186 37.0955 53.0749 37.0026 52.7637 36.7158C51.1543 35.2312 49.5037 32.0135 48.8504 30.0665L52.4959 28.7668C53.0023 30.3999 54.3305 33.3917 55.3443 34.7845C55.8231 35.4423 55.5413 36.3742 54.7752 36.6474Z" fill="#000342"/>
<path d="M51.5826 29.0938L48.4892 30.1966C46.7807 30.8058 44.9019 29.9146 44.2929 28.2061C43.6837 26.4977 44.575 24.619 46.2835 24.0098L49.3768 22.907L51.5826 29.0938Z" fill="#0286FF"/>
<path d="M48.9282 23.232C48.3352 23.5561 48.3144 25.0343 48.8656 26.5803C49.4167 28.1264 50.3682 29.2579 51.0317 29.132C51.0323 29.1337 65.6064 29.1806 65.6064 29.1806L60.1853 13.9756L48.9282 23.232Z" fill="#0286FF"/>
<path d="M60.0307 13.0255C58.3987 13.6073 58.4311 17.8805 60.1029 22.5699C61.7747 27.2593 64.453 30.5892 66.085 30.0073C67.7169 29.4255 67.6846 25.1523 66.0128 20.4629C64.3409 15.7735 61.6627 12.4437 60.0307 13.0255Z" fill="#000342"/>
<path d="M60.1081 22.5663C60.4732 23.5908 60.8866 24.5504 61.3265 25.4185L64.6514 23.6026L62.9711 18.8894L59.2475 19.5865C59.4558 20.5372 59.7428 21.5417 60.1081 22.5663Z" fill="#0286FF"/>
<path d="M62.9729 18.8938C62.5199 19.0553 62.5289 20.2412 62.9929 21.5427C63.4569 22.8442 64.2002 23.7683 64.6531 23.6068C65.1061 23.4454 65.0971 22.2594 64.6331 20.9579C64.1692 19.6565 63.4258 18.7323 62.9729 18.8938Z" fill="#B3EDFF"/>
<path d="M66.2273 30.3785C65.2665 30.721 64.0521 30.0579 62.8083 28.5113C61.6511 27.0728 60.5606 25.0089 59.7374 22.7001C58.9143 20.3912 58.4532 18.103 58.4392 16.257C58.4241 14.2722 58.945 12.9904 59.9059 12.6479C60.8668 12.3054 62.0809 12.9684 63.325 14.5151C64.482 15.9536 65.5726 18.0175 66.3957 20.3264C67.2189 22.6352 67.6799 24.9234 67.694 26.7695C67.7089 28.7542 67.1881 30.0359 66.2273 30.3785ZM60.1724 13.396C58.9518 13.8312 58.7799 17.6498 60.4855 22.4334C62.1909 27.2169 64.7396 30.0657 65.9605 29.6305C67.1813 29.1953 67.3532 25.3767 65.6475 20.593C63.942 15.8094 61.3934 12.9607 60.1724 13.396Z" fill="#B3EDFF"/>
<path d="M52.9483 36.8611L51.0647 34.1936L50.3001 32.5454L49.8528 32.7529L50.2294 34.7058L51.378 36.471L52.9483 36.8611ZM52.9156 32.1585L54.474 34.6044L54.8952 33.7234L54.4619 32.6689L53.6848 31.0649L53.3804 31.0852L52.9156 32.1585Z" fill="#F4ACC8"/>
<path d="M42.256 52.2656C42.351 48.8187 42.9573 41.1328 43.1716 36.2362C43.2571 34.2826 41.9815 32.5249 40.0931 32.018C35.2596 30.7203 29.5658 30.2926 25.4508 32.099C24.3143 32.598 23.6185 33.7059 23.6686 35.0091C23.9222 41.6017 27.2944 52.2656 27.2944 52.2656L25.3946 64.6097H44.4847L42.2384 52.2656H42.256Z" fill="#EC5665"/>
<path d="M39.1833 52.4369L38.201 31.568C35.7013 31.0425 33.0658 30.7775 30.5954 30.9403L36.0927 52.4535L35.6476 61.7421H39.1173L39.1833 52.4369Z" fill="#E3E3E3"/>
<path d="M15.3401 36.5913L14.0348 37.4334C14.1004 38.0427 14.1933 38.7777 14.3182 39.5907L16.7383 38.971L15.3401 36.5913Z" fill="#E3E3E3"/>
<path d="M19.8422 51.0368C20.4625 46.236 21.3478 38.8135 24.0467 33.5215L30.1758 36.8568C28.6977 42.0027 26.3106 48.6313 23.9931 52.8977L19.8422 51.0368Z" fill="#EC5665"/>
<path d="M22.6388 49.011L16.7393 38.9692L13.7535 39.5936C14.3743 43.6341 16.3727 49.6445 19.4234 52.277C20.8984 53.4521 22.4244 53.9051 23.9925 52.897L22.6388 49.011Z" fill="#EC5665"/>
<path d="M35.6477 61.741L35.5107 64.5949H39.4277L39.1173 61.741H35.6477Z" fill="#00161D"/>
<path d="M36.3268 28.4759L35.4955 34.1716L31.7613 31.0328L33.5813 26.0652L36.3268 28.4759Z" fill="#F4ACC8"/>
<path d="M38.1533 28.0733C38.2089 28.9749 37.3515 29.8127 35.6408 29.2319L32.8466 27.9936L31.4286 23.795L32.8123 20.4578L37.8337 20.5695L38.1533 28.0733Z" fill="#F4ACC8"/>
<path d="M37.476 23.6218L38.6566 25.8035L37.6684 25.9831L37.476 23.6218Z" fill="#F4ACC8"/>
<path d="M38.1174 26.7379L36.7368 26.9781C35.8889 27.1258 35.0641 26.6173 34.815 25.7935C34.815 25.7935 34.4296 23.6599 34.4103 23.1622L38.1251 22.0131L39.0008 19.1741L37.7623 19.4647L32.9317 19.6539C30.7803 19.7144 29.9612 21.3466 30.7101 23.7063L31.7269 26.5629C32.0011 27.3329 32.0681 27.7519 32.8492 27.9923L33.1276 27.1733C33.296 26.6771 33.1988 26.1417 32.9112 25.7036C32.865 25.633 32.8221 25.556 32.7844 25.4733C32.5541 24.9702 32.5967 24.4573 32.8797 24.3277C33.1627 24.198 33.5789 24.5009 33.8092 25.0041C34.0115 25.446 34.1359 28.4641 34.1359 28.4641L35.9336 29.3761C37.6769 29.8499 38.4808 28.9608 38.3697 28.0643L38.1174 26.7379Z" fill="#4F2674"/>
<path d="M31.4774 30.8989L33.5343 35.8709L35.4955 34.1724L32.0963 30.1191L31.4774 30.8989Z" fill="white"/>
<path d="M36.4722 31.2492L36.8789 35.4744L35.4918 34.1724L36.0521 30.3333L36.4722 31.2492Z" fill="white"/>
<path d="M15.3294 36.5936C15.3294 36.5936 16.9543 34.6162 14.7153 34.3563C8.71128 33.6594 12.9463 34.5171 12.7319 34.5171C12.5174 34.5171 10.5876 34.3563 8.8722 34.0882C7.73874 33.9111 9.08665 36.018 11.1238 36.4469C13.1609 36.8758 14.3402 37.251 14.3402 37.251L15.3294 36.5936Z" fill="#F4ACC8"/>
</g>
<path d="M13.1853 34.2253C13.1421 34.2308 13.0977 34.2297 13.0534 34.2319C12.9658 34.2386 12.8793 34.2452 12.7895 34.243C12.7352 34.2419 12.6809 34.2341 12.6266 34.2297C12.5456 34.223 12.4647 34.2186 12.3816 34.2053C12.3228 34.1964 12.2618 34.1809 12.202 34.1687C12.1221 34.1521 12.0434 34.1366 11.9625 34.1144C11.9004 34.0978 11.8372 34.0745 11.7751 34.0545C11.6964 34.029 11.6177 34.0035 11.5379 33.9725C11.4736 33.9481 11.4093 33.9182 11.345 33.8905C11.2663 33.8561 11.1876 33.8217 11.11 33.7829C11.0446 33.7508 10.9803 33.7142 10.9149 33.6787C10.8373 33.6366 10.7596 33.5934 10.682 33.5468C10.6166 33.5069 10.5512 33.4648 10.4858 33.4215C10.4093 33.3716 10.3328 33.3206 10.2574 33.2652C10.2042 33.2275 10.151 33.1865 10.0978 33.1466C9.9559 33.039 9.81511 32.9237 9.67653 32.8029C9.64217 32.7719 9.60669 32.7442 9.57121 32.7131C9.45038 32.6034 9.33064 32.487 9.21313 32.3672C9.19318 32.3462 9.17211 32.3284 9.15216 32.3074C9.05793 32.2098 8.96702 32.1056 8.875 32.0014C8.84175 31.9637 8.80738 31.9293 8.77523 31.8905C8.75749 31.8706 8.74197 31.8484 8.72423 31.8273C8.62335 31.7065 8.52468 31.5845 8.42823 31.457C8.39387 31.4116 8.36172 31.3628 8.32735 31.3163C8.25196 31.212 8.17769 31.1089 8.10563 31.0003C8.0635 30.9371 8.0247 30.8717 7.98368 30.8074C7.9227 30.7121 7.86284 30.6156 7.80519 30.5169C7.75752 30.436 7.71318 30.3518 7.66883 30.2697C7.60897 30.16 7.54688 30.0513 7.49145 29.9382C7.41274 29.7786 7.33846 29.619 7.27084 29.4604C7.2664 29.4505 7.26308 29.4416 7.25975 29.4327C7.2021 29.2964 7.14889 29.1611 7.09901 29.027C7.08238 28.9815 7.06685 28.9372 7.05133 28.8928C7.01697 28.7942 6.98371 28.6955 6.95378 28.5979C6.93715 28.5436 6.92052 28.4904 6.905 28.4361C6.87728 28.3407 6.85289 28.2454 6.82961 28.1512C6.81741 28.1024 6.80522 28.0536 6.79414 28.0059C6.76864 27.8917 6.74646 27.7776 6.72651 27.6656C6.72207 27.6401 6.71542 27.6135 6.7121 27.5869C6.68992 27.4494 6.67329 27.3142 6.65999 27.1811C6.65667 27.1434 6.65445 27.1057 6.65223 27.068C6.64447 26.9727 6.63893 26.8785 6.6356 26.7865C6.63449 26.7399 6.6345 26.6933 6.6345 26.6468C6.6345 26.5647 6.6356 26.4827 6.63893 26.4029C6.64114 26.3563 6.64336 26.3097 6.64669 26.2643C6.65223 26.1845 6.6611 26.1058 6.67108 26.0282C6.67662 25.9871 6.68106 25.9461 6.6866 25.9062C6.70101 25.8109 6.71986 25.7189 6.73981 25.628C6.74425 25.6091 6.74757 25.588 6.75201 25.5692C6.77861 25.4628 6.80965 25.3608 6.84402 25.261C6.88837 25.1324 6.94047 25.0105 6.99923 24.8952C7.01696 24.8597 7.03803 24.8275 7.05688 24.7932C7.09568 24.7244 7.13559 24.6557 7.17993 24.5914C7.20765 24.5515 7.23647 24.5149 7.2664 24.4772C7.3041 24.4284 7.3429 24.3808 7.38392 24.3353C7.41828 24.2987 7.45376 24.2644 7.48924 24.23C7.53026 24.1912 7.57128 24.1535 7.61562 24.118C7.67881 24.0659 7.74311 24.0149 7.81295 23.9717L6.76531 24.6368C6.71431 24.669 6.66443 24.7045 6.61676 24.7411C6.59902 24.7544 6.58461 24.771 6.56798 24.7843C6.52474 24.8198 6.48261 24.8575 6.44159 24.8963C6.41942 24.9173 6.39503 24.9351 6.37286 24.9572C6.35956 24.9717 6.34847 24.9883 6.33517 25.0027C6.29415 25.0481 6.25535 25.0958 6.21766 25.1446C6.1977 25.1701 6.17442 25.1923 6.15557 25.2189C6.1467 25.2311 6.14005 25.2466 6.13118 25.2588C6.08684 25.3231 6.04804 25.3907 6.00923 25.4594C5.99371 25.4872 5.97487 25.5115 5.96046 25.5393C5.95713 25.5459 5.95491 25.5548 5.95048 25.5614C5.89172 25.6767 5.84073 25.7998 5.79527 25.9273C5.79306 25.9328 5.78973 25.9384 5.78862 25.9439C5.75647 26.0381 5.72876 26.1357 5.70437 26.2355C5.69993 26.2543 5.69661 26.2743 5.69217 26.2931C5.67443 26.3685 5.65781 26.445 5.6445 26.5237C5.64229 26.5392 5.64118 26.5559 5.63896 26.5714C5.63231 26.6113 5.62787 26.6523 5.62344 26.6933C5.61346 26.7709 5.6057 26.8496 5.59905 26.9295C5.59572 26.9749 5.59351 27.0215 5.59129 27.068C5.58796 27.1479 5.58685 27.2299 5.58685 27.3119C5.58685 27.3585 5.58685 27.404 5.58796 27.4505C5.59018 27.5436 5.59683 27.6379 5.60459 27.7332C5.60792 27.7709 5.60903 27.8075 5.61235 27.8452C5.62566 27.9782 5.64229 28.1135 5.66446 28.2509C5.66889 28.2764 5.67444 28.303 5.67887 28.3285C5.69883 28.4416 5.71989 28.5547 5.74649 28.6689C5.75758 28.7177 5.76978 28.7664 5.78197 28.8152C5.80525 28.9095 5.82964 29.0037 5.85736 29.099C5.87288 29.1533 5.88951 29.2077 5.90613 29.262C5.91944 29.3041 5.92942 29.3451 5.94383 29.3873C5.96156 29.4427 5.98374 29.4992 6.00369 29.5558C6.01921 29.6012 6.03473 29.6456 6.05136 29.691C6.10125 29.8252 6.15336 29.9604 6.211 30.0957C6.21544 30.1056 6.21876 30.1156 6.2232 30.1256C6.22431 30.1267 6.22431 30.1289 6.22542 30.13C6.29304 30.2875 6.36621 30.4449 6.44381 30.6023C6.46377 30.6422 6.48372 30.6821 6.50368 30.7209C6.54137 30.7941 6.58239 30.8628 6.62119 30.9338C6.66665 31.0169 6.71099 31.1001 6.75755 31.181C6.76753 31.1987 6.7764 31.2165 6.78748 31.2342C6.83516 31.3151 6.88726 31.3916 6.93714 31.4703C6.97816 31.5346 7.01697 31.6012 7.05909 31.6644C7.06685 31.6754 7.07351 31.6887 7.08127 31.6998C7.14557 31.7952 7.21319 31.8872 7.27971 31.9792C7.31408 32.0258 7.34622 32.0745 7.38059 32.1211C7.38392 32.1266 7.38835 32.1322 7.39168 32.1366C7.48369 32.2597 7.58014 32.3772 7.67659 32.4925C7.69322 32.5125 7.70985 32.5346 7.72648 32.5546C7.72759 32.5557 7.72759 32.5557 7.7287 32.5568C7.75974 32.5934 7.793 32.6266 7.82404 32.6632C7.91605 32.7685 8.00807 32.8727 8.10341 32.9725C8.10563 32.9747 8.10673 32.9759 8.10895 32.9781C8.12669 32.9969 8.14553 33.0124 8.16327 33.0302C8.28189 33.151 8.40162 33.2674 8.52357 33.3783C8.53355 33.3871 8.54353 33.3982 8.55351 33.4071C8.5779 33.4293 8.60339 33.447 8.62778 33.4681C8.76636 33.59 8.90716 33.7042 9.04906 33.8117C9.07566 33.8317 9.10116 33.8561 9.12777 33.876C9.15438 33.896 9.18209 33.9115 9.2087 33.9315C9.28519 33.9858 9.36058 34.0368 9.43818 34.0878C9.50359 34.131 9.56789 34.1732 9.6333 34.2131C9.7109 34.2596 9.7885 34.3029 9.86611 34.3461C9.93151 34.3816 9.99582 34.4182 10.0612 34.4503C10.1399 34.4891 10.2175 34.5235 10.2962 34.5578C10.3605 34.5856 10.4248 34.6155 10.4891 34.6399C10.569 34.6709 10.6477 34.6964 10.7264 34.7219C10.7885 34.7419 10.8517 34.7652 10.9137 34.7818C10.9947 34.804 11.0734 34.8195 11.1532 34.8361C11.2131 34.8483 11.2729 34.8638 11.3317 34.8727C11.4137 34.8849 11.4947 34.8904 11.5756 34.8971C11.6299 34.9015 11.6853 34.9093 11.7397 34.9104C11.8284 34.9126 11.9148 34.9048 12.0013 34.8993C12.0456 34.896 12.0911 34.8971 12.1343 34.8926C12.264 34.8771 12.3904 34.8516 12.5135 34.8161C12.7197 34.7563 12.9093 34.6709 13.08 34.5623L14.1276 33.8971C13.9569 34.0058 13.7673 34.0911 13.5611 34.151C13.4403 34.1842 13.3139 34.2086 13.1853 34.2253Z" fill="url(#paint2_linear)"/>
<path d="M8.38177 23.7168C10.303 23.1625 13.0202 25.0472 14.4514 27.9285C15.8816 30.8075 15.4858 33.5946 13.5634 34.1489C11.6433 34.7032 8.92389 32.8163 7.49378 29.9373C6.06255 27.0549 6.46165 24.2711 8.38177 23.7168Z" fill="url(#paint3_linear)"/>
<path opacity="0.4" d="M8.9332 24.3079C7.4958 24.8834 7.33606 27.3612 8.57961 29.8314C9.82213 32.3029 12.0024 33.8445 13.4409 33.2689C14.8783 32.6935 15.0381 30.2157 13.7945 27.7455C12.5521 25.2752 10.3718 23.7337 8.9332 24.3079ZM13.2554 27.9618C14.2397 29.9186 14.114 31.8835 12.9728 32.3403C11.8337 32.7957 10.1054 31.573 9.12103 29.6162C8.13533 27.6557 8.26112 25.692 9.40023 25.2366C10.5404 24.7799 12.2697 26.0025 13.2554 27.9618Z" fill="#FEFBB4"/>
<path d="M11.9028 26.7832L9.37177 28.2611C9.19364 27.4705 9.32751 26.711 9.82435 26.4208C10.133 26.2406 10.5308 26.2721 10.9335 26.4545L11.335 26.22C10.6802 25.7673 10.0438 25.678 9.55667 25.9624C8.79565 26.4068 8.69827 27.7001 9.24531 28.9911L9.26145 28.9817L10.439 28.294L10.8286 28.9612L9.65116 29.6488L9.93687 30.1381L11.1143 29.4505L12.3351 31.541L12.6229 31.3729L11.4022 29.2824L11.6115 29.1602L12.8323 31.2507L13.1462 31.0673L11.9255 28.9768L12.6776 28.5376L12.7231 28.5111L12.9587 28.3735C12.8765 28.1829 12.7703 27.9745 12.6593 27.7847C12.439 27.4082 12.1667 27.0466 11.9028 26.7832ZM11.3258 28.6709L11.1165 28.7931L10.7269 28.126L10.9362 28.0037L11.3258 28.6709ZM11.6398 28.4875L11.2502 27.8204L11.9967 27.3844C12.131 27.5446 12.2741 27.7518 12.3921 27.9535C12.4031 27.9724 12.4071 27.9798 12.4328 28.0244L11.6398 28.4875Z" fill="#F4D27C"/>
<g filter="url(#filter0_f)">
<path d="M2.59073 21.6627C2.62159 21.6667 2.65323 21.6659 2.68487 21.6675C2.74736 21.6722 2.80907 21.677 2.87314 21.6754C2.91191 21.6746 2.95067 21.669 2.98943 21.6659C3.04718 21.6611 3.10492 21.658 3.16425 21.6485C3.20618 21.6421 3.24969 21.6311 3.29241 21.6224C3.34936 21.6105 3.40553 21.5994 3.46327 21.5836C3.50757 21.5717 3.55266 21.5551 3.59696 21.5409C3.65313 21.5227 3.7093 21.5045 3.76625 21.4823C3.81213 21.4649 3.85801 21.4436 3.9039 21.4238C3.96006 21.3993 4.01623 21.3748 4.0716 21.3471C4.11827 21.3241 4.16416 21.298 4.21083 21.2727C4.2662 21.2427 4.32158 21.2118 4.37695 21.1786C4.42362 21.1501 4.4703 21.12 4.51697 21.0892C4.57155 21.0536 4.62613 21.0172 4.67993 20.9777C4.7179 20.9508 4.75587 20.9215 4.79384 20.893C4.89509 20.8163 4.99556 20.734 5.09444 20.6478C5.11896 20.6256 5.14428 20.6059 5.16959 20.5837C5.25582 20.5054 5.34125 20.4223 5.42511 20.3369C5.43935 20.3219 5.45437 20.3092 5.46861 20.2942C5.53585 20.2246 5.60072 20.1502 5.66638 20.0758C5.69011 20.049 5.71463 20.0244 5.73757 19.9967C5.75023 19.9825 5.7613 19.9667 5.77396 19.9516C5.84595 19.8654 5.91635 19.7784 5.98518 19.6874C6.0097 19.655 6.03264 19.6202 6.05716 19.587C6.11095 19.5126 6.16396 19.439 6.21537 19.3615C6.24544 19.3164 6.27312 19.2698 6.30239 19.2239C6.3459 19.1558 6.38862 19.087 6.42975 19.0166C6.46377 18.9589 6.49541 18.8987 6.52705 18.8402C6.56977 18.7619 6.61407 18.6844 6.65362 18.6037C6.70979 18.4898 6.76279 18.3759 6.81104 18.2627C6.81421 18.2556 6.81658 18.2493 6.81895 18.243C6.86009 18.1457 6.89806 18.0491 6.93366 17.9534C6.94552 17.921 6.9566 17.8894 6.96767 17.8577C6.9922 17.7873 7.01593 17.7169 7.03729 17.6473C7.04915 17.6085 7.06102 17.5706 7.07209 17.5318C7.09187 17.4638 7.10927 17.3957 7.12589 17.3285C7.13459 17.2937 7.14329 17.2589 7.1512 17.2249C7.16939 17.1434 7.18522 17.0619 7.19945 16.982C7.20262 16.9638 7.20737 16.9448 7.20974 16.9258C7.22556 16.8278 7.23743 16.7312 7.24692 16.6363C7.24929 16.6094 7.25087 16.5825 7.25245 16.5556C7.25799 16.4876 7.26195 16.4204 7.26432 16.3547C7.26511 16.3215 7.26511 16.2882 7.26511 16.255C7.26511 16.1965 7.26432 16.1379 7.26195 16.081C7.26037 16.0478 7.25878 16.0145 7.25641 15.9821C7.25246 15.9251 7.24613 15.869 7.23901 15.8136C7.23505 15.7843 7.23189 15.7551 7.22793 15.7266C7.21765 15.6586 7.2042 15.5929 7.18996 15.528C7.1868 15.5146 7.18442 15.4996 7.18126 15.4861C7.16227 15.4102 7.14013 15.3374 7.1156 15.2662C7.08396 15.1744 7.04678 15.0874 7.00485 15.0051C6.9922 14.9798 6.97717 14.9569 6.96372 14.9324C6.93603 14.8833 6.90755 14.8343 6.87591 14.7884C6.85613 14.7599 6.83557 14.7338 6.81421 14.7069C6.78731 14.6721 6.75963 14.6381 6.73036 14.6057C6.70583 14.5796 6.68052 14.555 6.6552 14.5305C6.62594 14.5028 6.59666 14.4759 6.56502 14.4506C6.51993 14.4134 6.47405 14.377 6.42421 14.3462L7.17177 14.8208C7.20816 14.8438 7.24375 14.8691 7.27777 14.8952C7.29043 14.9047 7.30071 14.9165 7.31258 14.926C7.34343 14.9514 7.37349 14.9782 7.40276 15.0059C7.41858 15.021 7.43598 15.0336 7.4518 15.0494C7.4613 15.0597 7.46921 15.0716 7.4787 15.0819C7.50797 15.1143 7.53566 15.1483 7.56255 15.1831C7.57679 15.2013 7.5934 15.2171 7.60685 15.2361C7.61318 15.2448 7.61793 15.2559 7.62425 15.2646C7.6559 15.3105 7.68358 15.3588 7.71127 15.4078C7.72235 15.4276 7.73579 15.445 7.74608 15.4648C7.74845 15.4695 7.75003 15.4758 7.7532 15.4806C7.79512 15.5628 7.83151 15.6507 7.86395 15.7416C7.86553 15.7456 7.8679 15.7495 7.86869 15.7535C7.89163 15.8207 7.91141 15.8903 7.92881 15.9615C7.93198 15.975 7.93435 15.9892 7.93751 16.0027C7.95017 16.0565 7.96204 16.111 7.97153 16.1672C7.97311 16.1783 7.9739 16.1902 7.97548 16.2012C7.98023 16.2297 7.98339 16.259 7.98656 16.2882C7.99368 16.3436 7.99922 16.3998 8.00396 16.4567C8.00634 16.4892 8.00792 16.5224 8.0095 16.5556C8.01187 16.6126 8.01266 16.6711 8.01266 16.7297C8.01266 16.7629 8.01266 16.7953 8.01187 16.8285C8.01029 16.895 8.00554 16.9622 8.00001 17.0303C7.99763 17.0572 7.99684 17.0833 7.99447 17.1102C7.98498 17.2051 7.97311 17.3016 7.95729 17.3997C7.95413 17.4179 7.95017 17.4369 7.94701 17.4551C7.93277 17.5357 7.91774 17.6164 7.89875 17.6979C7.89084 17.7327 7.88214 17.7675 7.87344 17.8023C7.85683 17.8696 7.83942 17.9368 7.81965 18.0048C7.80857 18.0436 7.7967 18.0824 7.78484 18.1211C7.77535 18.1512 7.76823 18.1805 7.75794 18.2105C7.74529 18.2501 7.72946 18.2904 7.71523 18.3308C7.70415 18.3632 7.69308 18.3948 7.68121 18.4273C7.64561 18.523 7.60843 18.6195 7.5673 18.716C7.56413 18.7231 7.56176 18.7303 7.5586 18.7374C7.55781 18.7382 7.5578 18.7397 7.55701 18.7405C7.50876 18.8529 7.45655 18.9652 7.40117 19.0775C7.38693 19.106 7.3727 19.1345 7.35846 19.1622C7.33156 19.2144 7.30229 19.2634 7.2746 19.3141C7.24217 19.3734 7.21053 19.4327 7.1773 19.4905C7.17019 19.5031 7.16386 19.5158 7.15594 19.5284C7.12193 19.5862 7.08475 19.6408 7.04915 19.6969C7.01988 19.7428 6.9922 19.7903 6.96214 19.8354C6.9566 19.8433 6.95185 19.8528 6.94631 19.8607C6.90043 19.9287 6.85218 19.9944 6.80471 20.06C6.78019 20.0932 6.75725 20.1281 6.73273 20.1613C6.73036 20.1652 6.72719 20.1692 6.72482 20.1724C6.65916 20.2602 6.59034 20.344 6.52152 20.4263C6.50965 20.4405 6.49778 20.4563 6.48592 20.4706C6.48513 20.4714 6.48513 20.4714 6.48434 20.4722C6.46219 20.4983 6.43845 20.522 6.41631 20.5481C6.35065 20.6233 6.28499 20.6976 6.21696 20.7688C6.21537 20.7704 6.21458 20.7712 6.213 20.7728C6.20034 20.7862 6.1869 20.7973 6.17424 20.8099C6.0896 20.8962 6.00416 20.9792 5.91715 21.0583C5.91003 21.0647 5.90291 21.0726 5.89579 21.0789C5.87838 21.0947 5.86019 21.1074 5.84279 21.1224C5.7439 21.2094 5.64344 21.2909 5.54218 21.3676C5.5232 21.3819 5.505 21.3993 5.48602 21.4135C5.46703 21.4278 5.44725 21.4388 5.42827 21.4531C5.37369 21.4918 5.3199 21.5282 5.26452 21.5646C5.21785 21.5955 5.17197 21.6255 5.12529 21.654C5.06992 21.6872 5.01454 21.7181 4.95917 21.7489C4.9125 21.7743 4.86662 21.8004 4.81994 21.8233C4.76378 21.851 4.7084 21.8755 4.65224 21.9C4.60636 21.9198 4.56048 21.9412 4.51459 21.9586C4.45764 21.9807 4.40147 21.9989 4.34531 22.0171C4.30101 22.0313 4.25592 22.048 4.21162 22.0598C4.15387 22.0756 4.09771 22.0867 4.04075 22.0986C3.99803 22.1073 3.95531 22.1184 3.91339 22.1247C3.85485 22.1334 3.7971 22.1374 3.73935 22.1421C3.70059 22.1453 3.66104 22.1508 3.62228 22.1516C3.55899 22.1532 3.49729 22.1476 3.43559 22.1437C3.40394 22.1413 3.37151 22.1421 3.34066 22.1389C3.24811 22.1279 3.15792 22.1097 3.07012 22.0843C2.92298 22.0416 2.78771 21.9807 2.66589 21.9032L1.91833 21.4286C2.04016 21.5061 2.17543 21.567 2.32257 21.6097C2.40879 21.6334 2.49897 21.6508 2.59073 21.6627Z" fill="url(#paint4_linear)"/>
<path d="M6.02133 14.1659C4.65042 13.7704 2.71153 15.1152 1.69028 17.1712C0.669808 19.2256 0.952215 21.2143 2.32391 21.6098C3.69403 22.0053 5.6345 20.659 6.65497 18.6046C7.67623 16.5478 7.39145 14.5615 6.02133 14.1659Z" fill="url(#paint5_linear)"/>
<path opacity="0.4" d="M5.62213 14.5898C6.6478 15.0004 6.76178 16.7684 5.87443 18.531C4.98782 20.2946 3.43207 21.3946 2.40561 20.9839C1.37995 20.5733 1.26596 18.8053 2.15331 17.0426C3.03986 15.28 4.59561 14.18 5.62213 14.5898ZM2.53801 17.197C1.83561 18.5933 1.92531 19.9954 2.73965 20.3213C3.55247 20.6463 4.78569 19.7738 5.4881 18.3775C6.19145 16.9786 6.1017 15.5774 5.28887 15.2524C4.47532 14.9265 3.24131 15.7989 2.53801 17.197Z" fill="#FEFBB4"/>
<path d="M5.41185 17.4567L3.56777 16.4701C3.98191 16.0664 4.49367 15.8641 4.85567 16.0577C5.08051 16.178 5.21001 16.4317 5.24957 16.7446L5.54207 16.9011C5.57271 16.3339 5.38925 15.9136 5.03435 15.7237C4.47988 15.4271 3.65726 15.851 3.07675 16.6659L3.08851 16.6722L3.94649 17.1312L3.68642 17.6173L2.82852 17.1583L2.6378 17.5148L3.4957 17.9738L2.68083 19.4969L2.89053 19.6091L3.70541 18.086L3.85793 18.1676L3.04305 19.6907L3.27182 19.8131L4.0867 18.29L4.63471 18.5832L4.66783 18.6009L4.8395 18.6927C4.92466 18.5716 5.01165 18.4291 5.08554 18.2907C5.23214 18.0162 5.35031 17.7155 5.41185 17.4567ZM4.04865 17.8111L3.89613 17.7295L4.1562 17.2434L4.30871 17.325L4.04865 17.8111ZM4.27742 17.9335L4.53749 17.4474L5.08138 17.7384C5.03418 17.8799 4.96167 18.0443 4.88312 18.1914C4.87579 18.2051 4.87277 18.2103 4.85522 18.2426L4.27742 17.9335Z" fill="#F4D27C"/>
</g>
<path d="M15.3355 15.9991C15.364 15.9718 15.3885 15.9399 15.4153 15.9099C15.4698 15.8519 15.5237 15.7947 15.5733 15.7301C15.6034 15.6911 15.6289 15.6484 15.6567 15.6075C15.698 15.5467 15.741 15.4871 15.7789 15.4208C15.8061 15.3743 15.8299 15.3225 15.8553 15.2733C15.889 15.2076 15.9229 15.1432 15.9533 15.0735C15.9769 15.0202 15.9965 14.9624 16.0177 14.9073C16.0446 14.8372 16.0714 14.7672 16.0949 14.6932C16.1143 14.634 16.1298 14.5716 16.1469 14.5105C16.1674 14.4354 16.188 14.3603 16.2048 14.2835C16.2193 14.219 16.2301 14.1529 16.2423 14.0865C16.2568 14.0078 16.2705 13.9285 16.2818 13.8472C16.2909 13.7784 16.2984 13.7083 16.3051 13.6375C16.3135 13.5552 16.3211 13.4722 16.3249 13.3874C16.3286 13.3285 16.3299 13.2676 16.3321 13.2073C16.337 13.046 16.3358 12.8811 16.3295 12.7145C16.3271 12.6726 16.3278 12.6318 16.3261 12.5891C16.3174 12.4414 16.3035 12.2907 16.2859 12.1397C16.2824 12.1136 16.2819 12.0887 16.2784 12.0626C16.2632 11.9406 16.2415 11.8172 16.2203 11.6929C16.2127 11.648 16.208 11.6042 16.1989 11.5595C16.1949 11.5356 16.1881 11.512 16.1834 11.4875C16.1556 11.3476 16.1257 11.2086 16.0907 11.068C16.0782 11.0178 16.0621 10.9674 16.0488 10.9167C16.0182 10.8042 15.9878 10.6931 15.9521 10.5804C15.9315 10.5147 15.9075 10.4501 15.8855 10.3846C15.8529 10.2873 15.819 10.1902 15.7822 10.0934C15.7523 10.0137 15.7181 9.93444 15.6854 9.85646C15.6421 9.75176 15.6008 9.64613 15.5526 9.54267C15.4848 9.39628 15.4145 9.25302 15.3411 9.11508C15.3366 9.10627 15.3323 9.09887 15.3279 9.09148C15.2645 8.9732 15.1994 8.85868 15.1332 8.74713C15.1106 8.70953 15.0882 8.67334 15.0657 8.63715C15.0157 8.55675 14.965 8.47713 14.9132 8.40048C14.8844 8.35783 14.8563 8.31581 14.8268 8.27394C14.7754 8.20012 14.722 8.12865 14.6688 8.05859C14.6413 8.02222 14.6139 7.98586 14.5865 7.9509C14.5205 7.86792 14.4526 7.78728 14.385 7.70947C14.3695 7.69183 14.3545 7.67199 14.3377 7.6545C14.2533 7.56062 14.1674 7.4719 14.0811 7.38679C14.0564 7.36299 14.0311 7.33997 14.0058 7.31695C13.9429 7.25721 13.8796 7.19966 13.8166 7.14494C13.7844 7.11765 13.7516 7.09115 13.7187 7.06464C13.6608 7.01795 13.6023 6.97203 13.5441 6.92894C13.51 6.904 13.4759 6.87906 13.442 6.85554C13.3825 6.81401 13.322 6.77546 13.2615 6.73833C13.2295 6.71889 13.198 6.69867 13.1667 6.67986C13.0912 6.63576 13.0156 6.59668 12.9401 6.55901C12.9243 6.55141 12.9076 6.54176 12.8917 6.53416C12.8015 6.49235 12.7119 6.45619 12.622 6.42364C12.506 6.38172 12.3903 6.34905 12.2756 6.32487C12.2405 6.31719 12.2058 6.31375 12.1708 6.30748C12.1002 6.29573 12.029 6.28475 11.9585 6.27943C11.9145 6.27626 11.8723 6.27577 11.8287 6.27543C11.7728 6.27425 11.7171 6.27448 11.6617 6.27754C11.6163 6.28096 11.5719 6.28642 11.5275 6.29188C11.4767 6.29873 11.4268 6.30621 11.3765 6.31729C11.3038 6.33221 11.2313 6.34853 11.161 6.37319L12.2265 6.01284C12.2782 5.99517 12.3316 5.98018 12.3846 5.96738C12.4041 5.96244 12.424 5.96174 12.4428 5.95758C12.4925 5.94728 12.5431 5.93901 12.5938 5.93217C12.6212 5.92852 12.6476 5.92141 12.6759 5.91839C12.6936 5.91721 12.7117 5.91886 12.7294 5.91768C12.7848 5.91462 12.8405 5.91438 12.8964 5.91556C12.9257 5.916 12.9546 5.9122 12.9841 5.91405C12.9978 5.91474 13.0125 5.91888 13.0262 5.91957C13.0968 5.92489 13.1665 5.93601 13.2371 5.94777C13.2655 5.9526 13.2934 5.95318 13.3212 5.95879C13.3278 5.96023 13.3353 5.96372 13.3425 5.96438C13.4573 5.98856 13.5731 6.02264 13.6889 6.06314C13.6941 6.06474 13.6999 6.06554 13.7044 6.06792C13.7892 6.09888 13.8738 6.13486 13.958 6.17445C13.9739 6.18205 13.9898 6.19106 14.0056 6.19866C14.0689 6.22906 14.1323 6.26087 14.1954 6.29629C14.2076 6.30356 14.22 6.31225 14.2322 6.31952C14.2641 6.33754 14.2956 6.35776 14.3271 6.37799C14.3875 6.41512 14.4474 6.45445 14.5075 6.49519C14.5415 6.51872 14.5756 6.54366 14.6097 6.5686C14.6679 6.61169 14.7264 6.6576 14.7842 6.7043C14.8171 6.7308 14.8491 6.75668 14.8813 6.78396C14.9458 6.83853 15.0084 6.89686 15.0713 6.95661C15.096 6.98041 15.1211 7.00201 15.1458 7.02582C15.2321 7.11092 15.318 7.19964 15.4024 7.29353C15.4178 7.31117 15.4335 7.33023 15.4489 7.34787C15.5173 7.42631 15.5851 7.50553 15.6505 7.5893C15.6786 7.62488 15.7061 7.66125 15.7335 7.69762C15.7867 7.76768 15.8393 7.83852 15.8908 7.91234C15.9203 7.95421 15.9491 7.99686 15.978 8.03951C16.0001 8.07287 16.0234 8.10326 16.0449 8.1374C16.0739 8.18147 16.1012 8.22929 16.1297 8.27555C16.1529 8.31237 16.1753 8.34856 16.1979 8.38616C16.2642 8.4977 16.3299 8.61144 16.3925 8.72909C16.397 8.7379 16.4022 8.74592 16.4067 8.75473C16.4068 8.75614 16.4084 8.75741 16.4085 8.75882C16.4811 8.89613 16.5505 9.03735 16.6173 9.18169C16.6341 9.21849 16.6509 9.25528 16.6669 9.29144C16.6971 9.35968 16.7222 9.42774 16.7502 9.49549C16.783 9.57488 16.8164 9.65348 16.8469 9.73239C16.8538 9.74953 16.8612 9.76588 16.8674 9.7838C16.8974 9.86349 16.9217 9.94378 16.9488 10.0238C16.9708 10.0893 16.9957 10.1545 17.0162 10.2202C17.0196 10.232 17.0252 10.2443 17.0286 10.2561C17.0593 10.3557 17.0857 10.4558 17.1127 10.5551C17.126 10.6058 17.1421 10.6562 17.1554 10.707C17.1574 10.7125 17.1588 10.7188 17.1601 10.7236C17.1945 10.8586 17.2225 10.9935 17.2489 11.1272C17.2535 11.1503 17.2597 11.1746 17.2643 11.1977C17.2644 11.1991 17.2644 11.1991 17.2646 11.2005C17.2727 11.2432 17.2773 11.2856 17.2854 11.3284C17.3073 11.4532 17.3284 11.5774 17.3445 11.7015C17.3448 11.7043 17.345 11.7057 17.3453 11.7085C17.3485 11.7318 17.3487 11.7539 17.3511 11.7765C17.3688 11.929 17.3828 12.0797 17.3916 12.2288C17.3922 12.2409 17.3943 12.2542 17.3949 12.2663C17.3966 12.2961 17.3946 12.3242 17.3956 12.3534C17.4027 12.5206 17.4031 12.6849 17.3982 12.8462C17.3971 12.8763 17.3998 12.9082 17.3988 12.9383C17.3977 12.9684 17.3929 12.9968 17.3918 13.027C17.3866 13.1118 17.3796 13.194 17.3714 13.2778C17.3647 13.3485 17.3578 13.4179 17.3487 13.4867C17.3374 13.568 17.3237 13.6473 17.3101 13.7267C17.2978 13.793 17.2871 13.8592 17.2725 13.9236C17.2551 14.0012 17.2351 14.0755 17.2146 14.1506C17.1975 14.2117 17.182 14.2741 17.1626 14.3334C17.1391 14.4073 17.1123 14.4774 17.0855 14.5474C17.0642 14.6026 17.0446 14.6604 17.021 14.7136C16.9906 14.7833 16.9568 14.8477 16.9231 14.9135C16.8976 14.9626 16.8744 15.0137 16.8473 15.0602C16.8092 15.125 16.767 15.1852 16.7256 15.2461C16.6978 15.2869 16.6718 15.3305 16.6416 15.3694C16.5927 15.4332 16.538 15.4898 16.4849 15.5476C16.4573 15.577 16.4322 15.6097 16.4045 15.6377C16.3197 15.7204 16.2298 15.795 16.1347 15.8616C15.9751 15.973 15.807 16.0581 15.6332 16.1167L14.5676 16.477C14.7415 16.4184 14.9096 16.3333 15.0692 16.2219C15.1614 16.1556 15.2506 16.0804 15.3355 15.9991Z" fill="url(#paint6_linear)"/>
<path d="M10.6583 6.62875C9.1737 7.6684 8.95639 10.6578 10.1741 13.3074C11.3908 15.9549 13.582 17.2622 15.0672 16.2218C16.5512 15.1829 16.7682 12.1907 15.5514 9.54315C14.3329 6.89292 12.1422 5.58989 10.6583 6.62875Z" fill="url(#paint7_linear)"/>
<path opacity="0.4" d="M10.7618 7.35544C11.986 6.66912 13.8246 7.96683 14.8592 10.2501C15.8952 12.5333 15.7415 14.9487 14.5168 15.6357C13.2927 16.3221 11.454 15.0244 10.4195 12.7411C9.38424 10.4587 9.53792 8.04328 10.7618 7.35544ZM10.8789 12.484C11.6988 14.2921 13.1564 15.3219 14.1282 14.777C15.0978 14.2327 15.2192 12.3177 14.3992 10.5095C13.5774 8.69824 12.1207 7.66921 11.1511 8.21349C10.1799 8.75772 10.0579 10.6735 10.8789 12.484Z" fill="#FEFBB4"/>
<path d="M13.4342 9.83339L10.9879 10.8693C10.9192 10.1379 11.1274 9.47058 11.6076 9.26723C11.9059 9.14093 12.2599 9.21525 12.6008 9.42579L12.9888 9.26147C12.4526 8.77875 11.8908 8.62481 11.42 8.82417C10.6844 9.13564 10.4473 10.287 10.7897 11.5109L10.8053 11.5043L11.9435 11.0223L12.2166 11.6672L11.0785 12.1491L11.2787 12.622L12.4168 12.14L13.2724 14.1606L13.5506 14.0428L12.695 12.0222L12.8973 11.9366L13.7529 13.9571L14.0564 13.8286L13.2008 11.8081L13.9278 11.5002L13.9717 11.4816L14.1994 11.3852C14.1476 11.2043 14.0762 11.0047 13.9983 10.8213C13.8439 10.4573 13.641 10.1007 13.4342 9.83339ZM12.6971 11.4637L12.4948 11.5494L12.2217 10.9045L12.424 10.8188L12.6971 11.4637ZM13.0006 11.3352L12.7275 10.6903L13.449 10.3848C13.5512 10.5443 13.6559 10.7472 13.7386 10.9421C13.7464 10.9603 13.7491 10.9675 13.7671 11.0106L13.0006 11.3352Z" fill="#F4D27C"/>
<defs>
<filter id="filter0_f" x="0.365623" y="13.3852" width="8.35875" height="9.47836" filterUnits="userSpaceOnUse" color-interpolation-filters="sRGB">
<feFlood flood-opacity="0" result="BackgroundImageFix"/>
<feBlend mode="normal" in="SourceGraphic" in2="BackgroundImageFix" result="shape"/>
<feGaussianBlur stdDeviation="0.355854" result="effect1_foregroundBlur"/>
</filter>
<linearGradient id="paint0_linear" x1="82.591" y1="-47.4388" x2="62.2313" y2="72.2576" gradientUnits="userSpaceOnUse">
<stop stop-color="#4080FF"/>
<stop offset="1" stop-color="#F52053"/>
</linearGradient>
<linearGradient id="paint1_linear" x1="82.591" y1="-47.6883" x2="62.2313" y2="72.0081" gradientUnits="userSpaceOnUse">
<stop stop-color="#4080FF"/>
<stop offset="1" stop-color="#F52053"/>
</linearGradient>
<linearGradient id="paint2_linear" x1="5.94964" y1="32.5625" x2="13.5514" y2="26.9872" gradientUnits="userSpaceOnUse">
<stop offset="0.074" stop-color="#FFF5B7"/>
<stop offset="0.228" stop-color="#E79127"/>
<stop offset="0.2507" stop-color="#D58326"/>
<stop offset="0.2976" stop-color="#B66A25"/>
<stop offset="0.3491" stop-color="#9D5524"/>
<stop offset="0.4061" stop-color="#894623"/>
<stop offset="0.4716" stop-color="#7B3A22"/>
<stop offset="0.5528" stop-color="#733422"/>
<stop offset="0.6982" stop-color="#713222"/>
<stop offset="0.7307" stop-color="#743422"/>
<stop offset="0.7531" stop-color="#7D3C23"/>
<stop offset="0.7725" stop-color="#8C4823"/>
<stop offset="0.7902" stop-color="#A25924"/>
<stop offset="0.8067" stop-color="#BE7025"/>
<stop offset="0.8221" stop-color="#E08B27"/>
<stop offset="0.8249" stop-color="#E79127"/>
<stop offset="0.8485" stop-color="#ECA443"/>
<stop offset="0.8993" stop-color="#F8D68A"/>
<stop offset="0.9294" stop-color="#FFF5B7"/>
</linearGradient>
<linearGradient id="paint3_linear" x1="6.33886" y1="25.0155" x2="16.9797" y2="34.0085" gradientUnits="userSpaceOnUse">
<stop stop-color="#DD8E19"/>
<stop offset="1" stop-color="#FFEDA5"/>
</linearGradient>
<linearGradient id="paint4_linear" x1="7.75379" y1="20.4763" x2="2.3295" y2="16.498" gradientUnits="userSpaceOnUse">
<stop offset="0.074" stop-color="#FFF5B7"/>
<stop offset="0.228" stop-color="#E79127"/>
<stop offset="0.2507" stop-color="#D58326"/>
<stop offset="0.2976" stop-color="#B66A25"/>
<stop offset="0.3491" stop-color="#9D5524"/>
<stop offset="0.4061" stop-color="#894623"/>
<stop offset="0.4716" stop-color="#7B3A22"/>
<stop offset="0.5528" stop-color="#733422"/>
<stop offset="0.6982" stop-color="#713222"/>
<stop offset="0.7307" stop-color="#743422"/>
<stop offset="0.7531" stop-color="#7D3C23"/>
<stop offset="0.7725" stop-color="#8C4823"/>
<stop offset="0.7902" stop-color="#A25924"/>
<stop offset="0.8067" stop-color="#BE7025"/>
<stop offset="0.8221" stop-color="#E08B27"/>
<stop offset="0.8249" stop-color="#E79127"/>
<stop offset="0.8485" stop-color="#ECA443"/>
<stop offset="0.8993" stop-color="#F8D68A"/>
<stop offset="0.9294" stop-color="#FFF5B7"/>
</linearGradient>
<linearGradient id="paint5_linear" x1="7.47907" y1="15.0926" x2="-0.11377" y2="21.5096" gradientUnits="userSpaceOnUse">
<stop stop-color="#DD8E19"/>
<stop offset="1" stop-color="#FFEDA5"/>
</linearGradient>
<linearGradient id="paint6_linear" x1="18.2813" y1="9.94892" x2="10.0217" y2="12.1374" gradientUnits="userSpaceOnUse">
<stop offset="0.074" stop-color="#FFF5B7"/>
<stop offset="0.228" stop-color="#E79127"/>
<stop offset="0.2507" stop-color="#D58326"/>
<stop offset="0.2976" stop-color="#B66A25"/>
<stop offset="0.3491" stop-color="#9D5524"/>
<stop offset="0.4061" stop-color="#894623"/>
<stop offset="0.4716" stop-color="#7B3A22"/>
<stop offset="0.5528" stop-color="#733422"/>
<stop offset="0.6982" stop-color="#713222"/>
<stop offset="0.7307" stop-color="#743422"/>
<stop offset="0.7531" stop-color="#7D3C23"/>
<stop offset="0.7725" stop-color="#8C4823"/>
<stop offset="0.7902" stop-color="#A25924"/>
<stop offset="0.8067" stop-color="#BE7025"/>
<stop offset="0.8221" stop-color="#E08B27"/>
<stop offset="0.8249" stop-color="#E79127"/>
<stop offset="0.8485" stop-color="#ECA443"/>
<stop offset="0.8993" stop-color="#F8D68A"/>
<stop offset="0.9294" stop-color="#FFF5B7"/>
</linearGradient>
<linearGradient id="paint7_linear" x1="12.7372" y1="5.92696" x2="13.0236" y2="18.5516" gradientUnits="userSpaceOnUse">
<stop stop-color="#DD8E19"/>
<stop offset="1" stop-color="#FFEDA5"/>
</linearGradient>
</defs>
</svg>
