<svg width="15" height="15" viewBox="0 0 15 15" fill="none" xmlns="http://www.w3.org/2000/svg">
<path d="M12.8591 5.77101C12.7857 5.46301 12.6872 5.07263 12.5671 4.92394H12.3142H11.9096H11.573H9.95405H4.09294C4.66867 3.58575 6.14545 2.78187 7.833 2.78187C8.84773 2.78187 9.78596 2.991 10.4982 3.58575H11.829C11.5786 3.36272 11.2817 3.0217 10.944 2.78715C10.0758 2.18362 8.97077 1.85547 7.833 1.85547C6.69515 1.85547 5.59024 2.18994 4.72182 2.79332C3.83935 3.40658 3.23366 4.28644 3.01628 5.24838L2.89064 5.81607H6.46736V7.00557H2.67578V7.8977H6.46736V11.8379H7.3595V7.8977H8.17729V11.8379H9.0911V7.8977H12.0295H12.9211H12.9546C13.0627 7.15426 13.0324 6.49602 12.8591 5.77101ZM8.17729 7.00557H7.3595V5.81607H8.17729V7.00557ZM9.0911 7.00557V5.81607H11.9136C11.9321 5.81607 11.95 5.93472 11.966 6.00126C12.0477 6.34316 12.0929 6.70819 12.1023 7.00557H9.0911Z" fill="#00CC9E"/>
<path d="M7.84717 0.0585939C3.98741 0.0585939 0.847168 3.19881 0.847168 7.0586C0.847168 10.9184 3.98741 14.0586 7.84717 14.0586C11.707 14.0586 14.8472 10.9184 14.8472 7.0586C14.8472 3.19881 11.707 0.0585939 7.84717 0.0585939ZM7.84717 13.0808C4.52649 13.0808 1.82502 10.3793 1.82502 7.0586C1.82502 3.73788 4.52656 1.03644 7.84717 1.03644C11.1678 1.03644 13.8694 3.73795 13.8694 7.0586C13.8694 10.3793 11.1678 13.0808 7.84717 13.0808Z" fill="#00CC9E"/>
</svg>
