<svg width="21" height="21" viewBox="0 0 21 21" fill="none" xmlns="http://www.w3.org/2000/svg">
<circle cx="10.6361" cy="10.8754" r="9.34273" stroke="#00CC9E" stroke-width="1.37221"/>
<path fill-rule="evenodd" clip-rule="evenodd" d="M14.0586 7.51314C14.2299 7.34331 14.4612 7.24774 14.7024 7.24707C14.9437 7.24641 15.1755 7.34071 15.3477 7.50958C15.52 7.67845 15.6188 7.90833 15.6229 8.14952C15.627 8.39071 15.5361 8.62383 15.3697 8.79847L10.4829 14.9069C10.399 14.9973 10.2976 15.0699 10.1849 15.1203C10.0722 15.1707 9.95054 15.1979 9.82712 15.2001C9.70371 15.2024 9.5811 15.1798 9.46662 15.1336C9.35215 15.0874 9.24817 15.0186 9.16089 14.9314L5.92307 11.6923C5.83287 11.6083 5.76052 11.5069 5.71034 11.3943C5.66016 11.2817 5.63318 11.1601 5.631 11.0368C5.62883 10.9135 5.6515 10.7911 5.69768 10.6768C5.74385 10.5625 5.81258 10.4586 5.89976 10.3714C5.98694 10.2842 6.09079 10.2155 6.20511 10.1693C6.31943 10.1232 6.44188 10.1005 6.56515 10.1027C6.68843 10.1048 6.81 10.1318 6.92262 10.182C7.03524 10.2322 7.13659 10.3045 7.22065 10.3947L9.78397 12.9568L14.0354 7.54007C14.043 7.53058 14.0511 7.52159 14.0599 7.51314H14.0586Z" fill="#00CC9E"/>
</svg>
