<svg width="21" height="21" viewBox="0 0 21 21" fill="none" xmlns="http://www.w3.org/2000/svg">
<circle cx="10.059" cy="10.8803" r="9.34273" stroke="#F7931A" stroke-width="1.37221"/>
<path d="M7.32478 5.52246C6.94585 5.52246 6.63867 5.82964 6.63867 6.20857V8.66265C6.63867 8.84461 6.71096 9.01913 6.83963 9.1478L8.43644 10.7446C8.70438 11.0126 8.70438 11.447 8.43644 11.7149L6.83963 13.3117C6.71096 13.4404 6.63867 13.6149 6.63867 13.7969V16.251C6.63867 16.6299 6.94585 16.9371 7.32478 16.9371H12.8013C13.1803 16.9371 13.4874 16.6299 13.4874 16.251V13.7969C13.4874 13.6149 13.4151 13.4404 13.2865 13.3117L11.6897 11.7149C11.4217 11.447 11.4217 11.0126 11.6897 10.7446L13.2865 9.1478C13.4151 9.01913 13.4874 8.84461 13.4874 8.66265V6.20857C13.4874 5.82964 13.1803 5.52246 12.8013 5.52246H7.32478ZM12.145 13.5971C12.2737 13.7258 12.346 13.9003 12.346 14.0822V15.1095C12.346 15.4884 12.0388 15.7956 11.6599 15.7956H8.46624C8.08731 15.7956 7.78013 15.4884 7.78013 15.1095V14.0822C7.78013 13.9003 7.85242 13.7258 7.98109 13.5971L9.5779 12.0003C9.84584 11.7323 10.2803 11.7323 10.5482 12.0003L12.145 13.5971ZM10.1482 8.9362C10.0916 8.94327 10.0345 8.94327 9.97795 8.9362L8.38114 8.7366C8.03779 8.69368 7.78013 8.40181 7.78013 8.0558V7.35003C7.78013 6.9711 8.08731 6.66392 8.46624 6.66392H11.6599C12.0388 6.66392 12.346 6.9711 12.346 7.35003V8.0558C12.346 8.40181 12.0883 8.69368 11.745 8.7366L10.1482 8.9362Z" fill="#F7931A"/>
</svg>
