<svg width="49" height="49" viewBox="0 0 49 49" fill="none" xmlns="http://www.w3.org/2000/svg">
<rect x="0.121094" y="0.705078" width="48" height="48" rx="24" fill="#FF0000"/>
<path fill-rule="evenodd" clip-rule="evenodd" d="M33.9605 19.6292C33.7243 18.7219 33.0284 18.0074 32.1447 17.7649C30.5432 17.3242 24.1211 17.3242 24.1211 17.3242C24.1211 17.3242 17.6989 17.3242 16.0974 17.7649C15.2137 18.0074 14.5178 18.7219 14.2816 19.6292C13.8525 21.2736 13.8525 24.7047 13.8525 24.7047C13.8525 24.7047 13.8525 28.1357 14.2816 29.7803C14.5178 30.6876 15.2137 31.4021 16.0974 31.6447C17.6989 32.0853 24.1211 32.0853 24.1211 32.0853C24.1211 32.0853 30.5432 32.0853 32.1447 31.6447C33.0284 31.4021 33.7243 30.6876 33.9605 29.7803C34.3896 28.1357 34.3896 24.7047 34.3896 24.7047C34.3896 24.7047 34.3896 21.2736 33.9605 19.6292Z" fill="white"/>
<path fill-rule="evenodd" clip-rule="evenodd" d="M22.1973 28.2323V21.8145L27.3315 25.0235L22.1973 28.2323Z" fill="#FF0000"/>
</svg>
