<svg width="41" height="40" viewBox="0 0 41 40" fill="none" xmlns="http://www.w3.org/2000/svg">
<rect x="0.525024" y="0.5" width="39" height="39" rx="19.5" fill="#F6F6FF" stroke="#D6D6E8"/>
<path fill-rule="evenodd" clip-rule="evenodd" d="M19.7637 11.291C17.3984 11.291 17.1016 11.3014 16.1726 11.3436C15.2455 11.3861 14.6126 11.5329 14.0588 11.7482C13.486 11.9707 13.0001 12.2682 12.5161 12.7525C12.0316 13.2366 11.7341 13.7225 11.5109 14.2951C11.295 14.849 11.148 15.4821 11.1063 16.4089C11.0647 17.3379 11.0538 17.6349 11.0538 20.0001C11.0538 22.3654 11.0644 22.6613 11.1065 23.5903C11.1491 24.5174 11.2959 25.1503 11.5111 25.704C11.7337 26.2768 12.0312 26.7627 12.5155 27.2468C12.9994 27.7313 13.4853 28.0296 14.0577 28.252C14.6119 28.4674 15.2449 28.6142 16.1719 28.6566C17.1009 28.6989 17.3975 28.7092 19.7626 28.7092C22.128 28.7092 22.4239 28.6989 23.3529 28.6566C24.2801 28.6142 24.9136 28.4674 25.4678 28.252C26.0404 28.0296 26.5256 27.7313 27.0095 27.2468C27.4939 26.7627 27.7915 26.2768 28.0146 25.7042C28.2287 25.1503 28.3757 24.5172 28.4192 23.5904C28.461 22.6615 28.4719 22.3654 28.4719 20.0001C28.4719 17.6349 28.461 17.338 28.4192 16.4091C28.3757 15.4819 28.2287 14.849 28.0146 14.2953C27.7915 13.7225 27.4939 13.2366 27.0095 12.7525C26.525 12.2681 26.0406 11.9705 25.4672 11.7482C24.912 11.5329 24.2788 11.3861 23.3516 11.3436C22.4227 11.3014 22.1269 11.291 19.7609 11.291H19.7637ZM18.9814 12.8617C19.2133 12.8613 19.472 12.8617 19.7627 12.8617C22.088 12.8617 22.3636 12.87 23.2819 12.9117C24.131 12.9506 24.5919 13.0924 24.8989 13.2116C25.3053 13.3695 25.595 13.5582 25.8997 13.863C26.2045 14.1678 26.3932 14.4581 26.5514 14.8646C26.6706 15.1712 26.8127 15.6321 26.8513 16.4812C26.8931 17.3993 26.9021 17.6751 26.9021 19.9993C26.9021 22.3235 26.8931 22.5993 26.8513 23.5174C26.8125 24.3666 26.6706 24.8274 26.5514 25.134C26.3935 25.5405 26.2045 25.8299 25.8997 26.1345C25.5949 26.4393 25.3055 26.628 24.8989 26.7859C24.5922 26.9056 24.131 27.0471 23.2819 27.086C22.3638 27.1277 22.088 27.1368 19.7627 27.1368C17.4371 27.1368 17.1615 27.1277 16.2435 27.086C15.3943 27.0468 14.9335 26.9049 14.6263 26.7857C14.2199 26.6278 13.9296 26.4391 13.6247 26.1343C13.3199 25.8295 13.1312 25.5399 12.973 25.1333C12.8538 24.8267 12.7117 24.3658 12.6731 23.5167C12.6314 22.5986 12.623 22.3228 12.623 19.9971C12.623 17.6714 12.6314 17.3971 12.6731 16.479C12.7119 15.6299 12.8538 15.169 12.973 14.862C13.1309 14.4556 13.3199 14.1653 13.6247 13.8605C13.9296 13.5557 14.2199 13.367 14.6263 13.2087C14.9333 13.089 15.3943 12.9475 16.2435 12.9085C17.0469 12.8722 17.3582 12.8613 18.9814 12.8595V12.8617ZM24.4146 14.3061C23.8376 14.3061 23.3695 14.7737 23.3695 15.3508C23.3695 15.9278 23.8376 16.3959 24.4146 16.3959C24.9915 16.3959 25.4596 15.9278 25.4596 15.3508C25.4596 14.7739 24.9915 14.3057 24.4146 14.3057V14.3061ZM19.766 15.5289C17.2961 15.5289 15.2935 17.5314 15.2935 20.0013C15.2935 22.4713 17.2961 24.4729 19.766 24.4729C22.236 24.4729 24.2378 22.4713 24.2378 20.0013C24.2378 17.5314 22.2358 15.5289 19.7658 15.5289H19.766ZM19.7644 17.0967C21.3676 17.0967 22.6674 18.3964 22.6674 19.9998C22.6674 21.603 21.3676 22.9028 19.7644 22.9028C18.161 22.9028 16.8614 21.603 16.8614 19.9998C16.8614 18.3964 18.161 17.0967 19.7644 17.0967Z" fill="#ADADC8"/>
</svg>
