<svg width="39" height="38" viewBox="0 0 39 38" fill="none" xmlns="http://www.w3.org/2000/svg">
<circle cx="19.025" cy="19" r="18.5" fill="#F6F6FF" stroke="#D6D6E8"/>
<path d="M8.7243 11.0054C8.7243 10.3369 8.95586 9.78543 9.41896 9.35095C9.88206 8.91646 10.4841 8.69922 11.2251 8.69922C11.9528 8.69922 12.5416 8.91311 12.9915 9.34093C13.4546 9.7821 13.6862 10.357 13.6862 11.0655C13.6862 11.7072 13.4612 12.242 13.0113 12.6698C12.5482 13.111 11.9396 13.3316 11.1854 13.3316H11.1655C10.4378 13.3316 9.849 13.111 9.39912 12.6698C8.94923 12.2286 8.7243 11.6738 8.7243 11.0054ZM8.98232 28.5521V15.1564H13.3884V28.5521H8.98232ZM15.8297 28.5521H20.2358V21.0722C20.2358 20.6043 20.2887 20.2433 20.3946 19.9893C20.5798 19.5347 20.861 19.1504 21.2381 18.8362C21.6152 18.522 22.0882 18.365 22.6572 18.365C24.1391 18.365 24.8801 19.3743 24.8801 21.393V28.5521H29.2862V20.8716C29.2862 18.893 28.8231 17.3924 27.8969 16.3697C26.9707 15.3469 25.7468 14.8356 24.2251 14.8356C22.5183 14.8356 21.1885 15.5775 20.2358 17.0615V17.1016H20.216L20.2358 17.0615V15.1564H15.8297C15.8561 15.5842 15.8694 16.9144 15.8694 19.147C15.8694 21.3797 15.8561 24.5147 15.8297 28.5521Z" fill="#ADADC8"/>
</svg>
