<svg width="39" height="38" viewBox="0 0 39 38" fill="none" xmlns="http://www.w3.org/2000/svg">
<path d="M38.475 19C38.475 29.2057 29.9913 37.5 19.5 37.5C9.00871 37.5 0.525024 29.2057 0.525024 19C0.525024 8.7943 9.00871 0.5 19.5 0.5C29.9913 0.5 38.475 8.7943 38.475 19Z" fill="#F6F6FF" stroke="#D6D6E8"/>
<path d="M19.6771 8.18749C20.8474 8.16992 22.011 8.18033 23.1732 8.16992C23.2437 9.49757 23.7359 10.8499 24.7379 11.7886C25.7378 12.7507 27.1522 13.191 28.5284 13.34V16.8325C27.2387 16.7915 25.943 16.5313 24.7727 15.9927C24.263 15.7689 23.7882 15.4808 23.3235 15.1861C23.3174 17.7204 23.3342 20.2514 23.3067 22.7753C23.2369 23.9878 22.8245 25.1945 22.0975 26.1936C20.9279 27.8569 18.8979 28.9413 16.8128 28.9751C15.5339 29.046 14.2563 28.7078 13.1665 28.0846C11.3604 27.0516 10.0895 25.1607 9.90445 23.1311C9.88113 22.7013 9.87755 22.2707 9.89372 21.8406C10.0547 20.1903 10.8963 18.6116 12.2028 17.5376C13.6836 16.2867 15.7579 15.6909 17.7001 16.0434C17.7182 17.3281 17.6652 18.6116 17.6652 19.8963C16.7779 19.6179 15.7411 19.6959 14.9658 20.2183C14.3986 20.5807 13.97 21.1139 13.7459 21.7358C13.5608 22.1756 13.6138 22.6641 13.6245 23.1311C13.8371 24.5544 15.2482 25.7507 16.7545 25.6212C17.7531 25.6108 18.7101 25.0488 19.2305 24.2259C19.3988 23.9377 19.5873 23.6431 19.5973 23.3042C19.6852 21.7528 19.6503 20.2078 19.661 18.6564C19.6684 15.1601 19.6503 11.6734 19.6778 8.18814L19.6771 8.18749Z" fill="#ADADC8"/>
</svg>
