<svg width="41" height="40" viewBox="0 0 41 40" fill="none" xmlns="http://www.w3.org/2000/svg">
<rect x="0.525024" y="0.5" width="39" height="39" rx="19.5" fill="#F6F6FF" stroke="#D6D6E8"/>
<path fill-rule="evenodd" clip-rule="evenodd" d="M20.5597 17.562L20.596 18.1611L19.9904 18.0878C17.786 17.8065 15.8602 16.8528 14.225 15.2509L13.4256 14.4561L13.2197 15.043C12.7837 16.3514 13.0623 17.7332 13.9707 18.6625C14.4552 19.1761 14.3462 19.2494 13.5104 18.9437C13.2197 18.8459 12.9654 18.7725 12.9412 18.8092C12.8564 18.8948 13.1471 20.0076 13.3772 20.4478C13.6921 21.0592 14.3341 21.6583 15.0366 22.0129L15.63 22.2942L14.9275 22.3064C14.2493 22.3064 14.225 22.3186 14.2977 22.5754C14.54 23.3702 15.4968 24.2139 16.5627 24.5808L17.3136 24.8376L16.6596 25.2289C15.6906 25.7913 14.5521 26.1093 13.4135 26.1337C12.8685 26.146 12.4203 26.1949 12.4203 26.2315C12.4203 26.3538 13.898 27.0386 14.758 27.3076C17.3378 28.1024 20.4022 27.76 22.7035 26.4027C24.3386 25.4367 25.9737 23.517 26.7368 21.6583C27.1486 20.6679 27.5604 18.8581 27.5604 17.99C27.5604 17.4275 27.5968 17.3541 28.275 16.6816C28.6747 16.2903 29.0502 15.8623 29.1229 15.74C29.244 15.5077 29.2319 15.5077 28.6142 15.7156C27.5846 16.0824 27.4393 16.0335 27.948 15.4832C28.3235 15.0919 28.7716 14.3827 28.7716 14.1749C28.7716 14.1382 28.5899 14.1993 28.384 14.3094C28.166 14.4316 27.6815 14.6151 27.3182 14.7251L26.6641 14.933L26.0706 14.5295C25.7436 14.3094 25.2834 14.0648 25.0411 13.9914C24.4234 13.8202 23.4787 13.8447 22.9215 14.0403C21.4075 14.5906 20.4506 16.009 20.5597 17.562Z" fill="#ADADC8"/>
</svg>
