<svg width="41" height="40" viewBox="0 0 41 40" fill="none" xmlns="http://www.w3.org/2000/svg">
<rect x="0.524902" y="0.5" width="39" height="39" rx="19.5" fill="#F6F6FF" stroke="#D6D6E8"/>
<path fill-rule="evenodd" clip-rule="evenodd" d="M28.6135 15.5734C28.4075 14.7818 27.8004 14.1585 27.0294 13.947C25.6323 13.5625 20.0295 13.5625 20.0295 13.5625C20.0295 13.5625 14.4267 13.5625 13.0295 13.947C12.2585 14.1585 11.6514 14.7818 11.4454 15.5734C11.071 17.008 11.071 20.0014 11.071 20.0014C11.071 20.0014 11.071 22.9946 11.4454 24.4294C11.6514 25.2209 12.2585 25.8443 13.0295 26.0559C14.4267 26.4403 20.0295 26.4403 20.0295 26.4403C20.0295 26.4403 25.6323 26.4403 27.0294 26.0559C27.8004 25.8443 28.4075 25.2209 28.6135 24.4294C28.988 22.9946 28.988 20.0014 28.988 20.0014C28.988 20.0014 28.988 17.008 28.6135 15.5734Z" fill="#ADADC8"/>
<path fill-rule="evenodd" clip-rule="evenodd" d="M18.3506 23.0795V17.4805L22.8298 20.2801L18.3506 23.0795Z" fill="#F6F6FF"/>
</svg>
