<svg width="37" height="37" viewBox="0 0 37 37" fill="none" xmlns="http://www.w3.org/2000/svg">
<mask id="mask0" mask-type="alpha" maskUnits="userSpaceOnUse" x="0" y="0" width="37" height="37">
<rect x="0.785156" y="0.43457" width="36" height="36" fill="#C4C4C4"/>
</mask>
<g mask="url(#mask0)">
<circle cx="17.3618" cy="16.4346" r="16" fill="#00CC9E"/>
<path d="M17.3682 26.2031L16.65 26.6231C16.0662 26.9645 15.3162 26.768 14.9748 26.1842L13.0705 22.928C12.7291 22.3442 12.9256 21.5942 13.5094 21.2527L14.2276 20.8327C14.8114 20.4913 15.5614 20.6878 15.9028 21.2716L17.8071 24.5279C18.1485 25.1117 17.952 25.8617 17.3682 26.2031Z" fill="#1F2337"/>
<path d="M12.9659 23.0076L19.9247 19.2189L15.1676 11.7705L8.87715 16.4439C8.83659 16.4698 7.13638 18.0254 9.00356 20.949C10.8707 23.8726 12.9659 23.0076 12.9659 23.0076Z" fill="#1F2337"/>
<path d="M26.5835 19.2526C26.8249 19.0984 26.9571 18.8615 27.0242 18.6274C27.0904 18.3968 27.1035 18.1383 27.0874 17.8764C27.0551 17.3519 26.8984 16.7082 26.6586 16.0096C26.1766 14.605 25.3215 12.8718 24.2641 11.2163C23.2068 9.56082 21.9939 8.05613 20.9223 7.02809C20.3893 6.51678 19.8712 6.10384 19.4089 5.854C19.1781 5.72925 18.938 5.63241 18.701 5.59545C18.4604 5.55794 18.1898 5.5782 17.9485 5.73236C17.7071 5.88651 17.575 6.12347 17.5078 6.35751C17.4417 6.58814 17.4286 6.84662 17.4447 7.10853C17.477 7.63304 17.6337 8.27676 17.8735 8.97533C18.3555 10.3799 19.2106 12.1131 20.2679 13.7686C21.3253 15.4241 22.5381 16.9288 23.6097 17.9568C24.1427 18.4681 24.6608 18.8811 25.1231 19.1309C25.354 19.2557 25.594 19.3525 25.831 19.3895C26.0716 19.427 26.3422 19.4067 26.5835 19.2526Z" fill="#323754" stroke="white"/>
<path d="M22.8629 16.0079C23.5842 15.5472 23.3776 13.9345 22.4012 12.4059C21.4249 10.8773 20.0486 10.0116 19.3272 10.4724C18.6058 10.9331 18.8125 12.5458 19.7888 14.0744C20.7652 15.603 22.1415 16.4687 22.8629 16.0079Z" fill="url(#paint0_linear)"/>
<path d="M26.2762 18.8554C25.5155 19.3412 22.932 16.6554 20.8505 13.3963C18.7691 10.1373 17.4187 6.66378 18.1794 6.178C18.2232 6.15001 18.2723 6.13155 18.326 6.12135C17.9671 6.11313 17.6156 6.30028 17.4076 6.69811C16.4908 8.45132 14.1511 12.3411 14.1511 12.3411C14.1511 12.3411 12.9901 13.9044 15.031 17.0999C17.072 20.2954 19.0424 19.8955 19.0424 19.8955C19.0424 19.8955 23.5185 19.4383 25.4853 19.3443C25.9509 19.3221 26.2752 19.0636 26.4099 18.7148C26.3741 18.7736 26.3299 18.8211 26.2762 18.8554Z" fill="white"/>
<path d="M9.93317 18.4915C9.82679 18.4916 9.7221 18.4649 9.62879 18.4138C9.53548 18.3627 9.45657 18.2889 9.39936 18.1992C9.21127 17.9047 9.29752 17.5136 9.59203 17.3255L12.1935 15.664C12.488 15.4759 12.8792 15.5622 13.0673 15.8567C13.2554 16.1512 13.1691 16.5423 12.8746 16.7304L10.2731 18.3919C10.1717 18.4569 10.0537 18.4915 9.93317 18.4915Z" fill="#60FFDB"/>
<path d="M32.4165 22.72C32.4025 22.7339 32.3892 22.7483 32.3766 22.7633C32.3615 22.7799 32.3469 22.797 32.3328 22.8146L32.3328 22.8146L32.3291 22.8193L26.5471 30.1862L23.3119 26.9525C23.1313 26.7612 22.9147 26.6076 22.6743 26.5005C22.4301 26.3917 22.1665 26.3332 21.8993 26.3284C21.632 26.3237 21.3665 26.3729 21.1186 26.473C20.8708 26.5731 20.6456 26.7221 20.4566 26.9112C20.2676 27.1002 20.1185 27.3254 20.0184 27.5732C19.9183 27.8211 19.8691 28.0866 19.8739 28.3538C19.8786 28.6211 19.9371 28.8847 20.0459 29.1289C20.153 29.3692 20.3066 29.5859 20.498 29.7665L25.2361 34.5064L25.2362 34.5065C25.4254 34.6957 25.6509 34.8449 25.8991 34.945C26.1473 35.0452 26.4131 35.0942 26.6807 35.0893C26.9483 35.0843 27.2121 35.0254 27.4564 34.9162C27.7007 34.8069 27.9205 34.6495 28.1026 34.4534C28.1134 34.4418 28.1237 34.4298 28.1336 34.4175L35.28 25.4845C35.6275 25.1084 35.8169 24.6125 35.8082 24.0998C35.7993 23.5768 35.5849 23.0784 35.2114 22.7123C34.838 22.3461 34.3354 22.1417 33.8124 22.1431C33.2894 22.1445 32.7879 22.3518 32.4165 22.72Z" fill="#00CC9E" stroke="white" stroke-width="1.29" stroke-linejoin="round"/>
</g>
<defs>
<linearGradient id="paint0_linear" x1="19.3272" y1="10.4724" x2="22.8629" y2="16.0079" gradientUnits="userSpaceOnUse">
<stop stop-color="#D6D6E8"/>
<stop offset="1" stop-color="#D6D6E8" stop-opacity="0"/>
</linearGradient>
</defs>
</svg>
