<svg width="37" height="36" viewBox="0 0 37 36" fill="none" xmlns="http://www.w3.org/2000/svg">
<circle cx="16.7852" cy="16.4346" r="16" fill="#1F2337"/>
<path d="M16.7915 26.2031L16.0733 26.6231C15.4895 26.9645 14.7395 26.768 14.3981 26.1842L12.4939 22.928C12.1525 22.3442 12.3489 21.5942 12.9327 21.2527L13.651 20.8327C14.2348 20.4913 14.9848 20.6878 15.3262 21.2716L17.2304 24.5279C17.5719 25.1117 17.3753 25.8617 16.7915 26.2031Z" fill="#75758F"/>
<path d="M12.3892 23.0076L19.3481 19.2189L14.5909 11.7705L8.30049 16.4439C8.25993 16.4698 6.55972 18.0254 8.4269 20.949C10.2941 23.8726 12.3892 23.0076 12.3892 23.0076Z" fill="#75758F"/>
<path d="M26.0069 19.2526C26.2483 19.0984 26.3804 18.8615 26.4476 18.6274C26.5137 18.3968 26.5268 18.1383 26.5107 17.8764C26.4785 17.3519 26.3217 16.7082 26.0819 16.0096C25.5999 14.605 24.7448 12.8718 23.6875 11.2163C22.6301 9.56082 21.4173 8.05613 20.3456 7.02809C19.8127 6.51678 19.2946 6.10384 18.8322 5.854C18.6014 5.72925 18.3614 5.63241 18.1243 5.59545C17.8837 5.55794 17.6132 5.5782 17.3718 5.73236C17.1305 5.88651 16.9983 6.12347 16.9312 6.35751C16.865 6.58814 16.8519 6.84662 16.868 7.10853C16.9003 7.63304 17.057 8.27676 17.2968 8.97533C17.7788 10.3799 18.6339 12.1131 19.6913 13.7686C20.7486 15.4241 21.9614 16.9288 23.0331 17.9568C23.566 18.4681 24.0841 18.8811 24.5465 19.1309C24.7773 19.2557 25.0173 19.3525 25.2544 19.3895C25.495 19.427 25.7655 19.4067 26.0069 19.2526Z" fill="#323754" stroke="white"/>
<path d="M22.2862 16.0079C23.0076 15.5472 22.8009 13.9345 21.8246 12.4059C20.8482 10.8773 19.4719 10.0116 18.7505 10.4724C18.0291 10.9331 18.2358 12.5458 19.2122 14.0744C20.1885 15.603 21.5648 16.4687 22.2862 16.0079Z" fill="url(#paint0_linear)"/>
<path d="M25.6995 18.8554C24.9389 19.3412 22.3553 16.6554 20.2739 13.3963C18.1924 10.1373 16.8421 6.66378 17.6027 6.178C17.6465 6.15001 17.6956 6.13155 17.7493 6.12135C17.3905 6.11313 17.0389 6.30028 16.8309 6.69811C15.9141 8.45132 13.5745 12.3411 13.5745 12.3411C13.5745 12.3411 12.4135 13.9044 14.4544 17.0999C16.4953 20.2954 18.4657 19.8955 18.4657 19.8955C18.4657 19.8955 22.9419 19.4383 24.9086 19.3443C25.3742 19.3221 25.6985 19.0636 25.8332 18.7148C25.7975 18.7736 25.7532 18.8211 25.6995 18.8554Z" fill="white"/>
<path d="M9.35651 18.4915C9.25013 18.4916 9.14544 18.4649 9.05213 18.4138C8.95882 18.3627 8.87991 18.2889 8.8227 18.1992C8.63461 17.9047 8.72086 17.5136 9.01537 17.3255L11.6168 15.664C11.9113 15.4759 12.3025 15.5622 12.4906 15.8567C12.6787 16.1512 12.5925 16.5423 12.2979 16.7304L9.69648 18.3919C9.59501 18.4569 9.47702 18.4915 9.35651 18.4915Z" fill="white"/>
<path d="M26.4488 21.3851V25.0845L22.7493 25.0845C22.1948 25.0845 21.663 25.3048 21.2709 25.6969C20.8788 26.089 20.6586 26.6208 20.6586 27.1753C20.6586 27.7298 20.8788 28.2615 21.2709 28.6536C21.663 29.0457 22.1948 29.266 22.7493 29.266L26.4567 29.266V32.9674C26.4567 33.5218 26.6769 34.0536 27.069 34.4457C27.4611 34.8378 27.9929 35.0581 28.5474 35.0581C29.1019 35.0581 29.6337 34.8378 30.0258 34.4457C30.4179 34.0536 30.6382 33.5218 30.6382 32.9674V29.2679H34.3376C34.8921 29.2679 35.4239 29.0476 35.816 28.6555C36.2081 28.2634 36.4284 27.7316 36.4284 27.1771C36.4284 26.6226 36.2081 26.0909 35.816 25.6988C35.4239 25.3067 34.8921 25.0864 34.3376 25.0864H30.6303L30.6303 21.3851C30.6303 20.8306 30.41 20.2988 30.0179 19.9067C29.6258 19.5146 29.094 19.2943 28.5395 19.2943C27.985 19.2943 27.4532 19.5146 27.0611 19.9067C26.669 20.2988 26.4488 20.8306 26.4488 21.3851Z" fill="#00CC9E" stroke="white" stroke-width="1.28638"/>
<defs>
<linearGradient id="paint0_linear" x1="18.7505" y1="10.4724" x2="22.2862" y2="16.0079" gradientUnits="userSpaceOnUse">
<stop stop-color="#D6D6E8"/>
<stop offset="1" stop-color="#D6D6E8" stop-opacity="0"/>
</linearGradient>
</defs>
</svg>
