<svg width="37" height="37" viewBox="0 0 37 37" fill="none" xmlns="http://www.w3.org/2000/svg">
<mask id="mask0" mask-type="alpha" maskUnits="userSpaceOnUse" x="0" y="0" width="37" height="37">
<rect x="0.785156" y="0.43457" width="36" height="36" fill="#C4C4C4"/>
</mask>
<g mask="url(#mask0)">
<circle cx="16.7852" cy="16.4346" r="16" fill="#00CC9E"/>
<g filter="url(#filter0_d)">
<mask id="path-3-outside-1" maskUnits="userSpaceOnUse" x="12.8198" y="7.20117" width="13" height="13" fill="black">
<rect fill="white" x="12.8198" y="7.20117" width="13" height="13"/>
<path fill-rule="evenodd" clip-rule="evenodd" d="M17.1921 12.7465L19.6786 10.2601C20.5165 9.42213 21.8751 9.42213 22.713 10.2601L22.8559 10.403C23.6939 11.2409 23.6939 12.5995 22.8559 13.4374L18.5773 17.7161C17.7393 18.554 16.3808 18.554 15.5428 17.7161L15.3999 17.5731C15.1742 17.3474 15.0092 17.0838 14.9051 16.8029C14.5339 17.1496 14.1646 17.5001 13.8198 17.8452C13.9727 18.1095 14.1623 18.3585 14.3884 18.5846L14.5314 18.7275C15.9279 20.1241 18.1922 20.1241 19.5888 18.7275L23.8674 14.4489C25.264 13.0523 25.264 10.7881 23.8674 9.39151L23.7245 9.24859C22.3279 7.85203 20.0636 7.85203 18.6671 9.24859L14.4417 13.474C15.3686 12.7573 16.3575 12.4921 17.1921 12.7465Z"/>
</mask>
<path fill-rule="evenodd" clip-rule="evenodd" d="M17.1921 12.7465L19.6786 10.2601C20.5165 9.42213 21.8751 9.42213 22.713 10.2601L22.8559 10.403C23.6939 11.2409 23.6939 12.5995 22.8559 13.4374L18.5773 17.7161C17.7393 18.554 16.3808 18.554 15.5428 17.7161L15.3999 17.5731C15.1742 17.3474 15.0092 17.0838 14.9051 16.8029C14.5339 17.1496 14.1646 17.5001 13.8198 17.8452C13.9727 18.1095 14.1623 18.3585 14.3884 18.5846L14.5314 18.7275C15.9279 20.1241 18.1922 20.1241 19.5888 18.7275L23.8674 14.4489C25.264 13.0523 25.264 10.7881 23.8674 9.39151L23.7245 9.24859C22.3279 7.85203 20.0636 7.85203 18.6671 9.24859L14.4417 13.474C15.3686 12.7573 16.3575 12.4921 17.1921 12.7465Z" fill="url(#paint0_linear)"/>
<path d="M19.6786 10.2601L19.82 10.4015L19.6786 10.2601ZM17.1921 12.7465L17.1338 12.9378L17.2486 12.9729L17.3335 12.888L17.1921 12.7465ZM22.8559 10.403L22.9973 10.2616L22.8559 10.403ZM18.5773 17.7161L18.4359 17.5746L18.5773 17.7161ZM15.5428 17.7161L15.4014 17.8575H15.4014L15.5428 17.7161ZM15.3999 17.5731L15.5413 17.4317L15.3999 17.5731ZM14.9051 16.8029L15.0927 16.7334L14.9882 16.4515L14.7686 16.6567L14.9051 16.8029ZM13.8198 17.8452L13.6783 17.7039L13.5698 17.8125L13.6467 17.9454L13.8198 17.8452ZM14.3884 18.5846L14.247 18.726H14.247L14.3884 18.5846ZM14.5314 18.7275L14.6728 18.5861H14.6728L14.5314 18.7275ZM23.8674 14.4489L24.0088 14.5903L23.8674 14.4489ZM23.8674 9.39151L24.0088 9.25009V9.25009L23.8674 9.39151ZM23.7245 9.24859L23.5831 9.39001V9.39002L23.7245 9.24859ZM18.6671 9.24859L18.5257 9.10717L18.6671 9.24859ZM14.4417 13.474L14.3003 13.3326L14.564 13.6322L14.4417 13.474ZM19.5371 10.1186L17.0507 12.6051L17.3335 12.888L19.82 10.4015L19.5371 10.1186ZM22.8544 10.1187C21.9384 9.20261 20.4532 9.20261 19.5371 10.1186L19.82 10.4015C20.5798 9.64166 21.8117 9.64166 22.5716 10.4015L22.8544 10.1187ZM22.9973 10.2616L22.8544 10.1187L22.5716 10.4015L22.7145 10.5444L22.9973 10.2616ZM22.9973 13.5789C23.9134 12.6628 23.9134 11.1776 22.9973 10.2616L22.7145 10.5444C23.4743 11.3042 23.4743 12.5362 22.7145 13.296L22.9973 13.5789ZM18.7187 17.8575L22.9973 13.5789L22.7145 13.296L18.4359 17.5746L18.7187 17.8575ZM15.4014 17.8575C16.3175 18.7735 17.8027 18.7735 18.7187 17.8575L18.4359 17.5746C17.676 18.3345 16.4441 18.3345 15.6843 17.5746L15.4014 17.8575ZM15.2585 17.7146L15.4014 17.8575L15.6843 17.5746L15.5413 17.4317L15.2585 17.7146ZM14.7176 16.8723C14.8315 17.1798 15.012 17.468 15.2585 17.7146L15.5413 17.4317C15.3364 17.2267 15.187 16.9879 15.0927 16.7334L14.7176 16.8723ZM13.9613 17.9866C14.3037 17.6439 14.6711 17.2952 15.0416 16.949L14.7686 16.6567C14.3968 17.004 14.0255 17.3564 13.6783 17.7039L13.9613 17.9866ZM13.6467 17.9454C13.8083 18.2246 14.0084 18.4875 14.247 18.726L14.5299 18.4432C14.3161 18.2295 14.1372 17.9944 13.9929 17.7451L13.6467 17.9454ZM14.247 18.726L14.3899 18.869L14.6728 18.5861L14.5299 18.4432L14.247 18.726ZM14.3899 18.869C15.8646 20.3436 18.2555 20.3436 19.7302 18.869L19.4473 18.5861C18.1289 19.9046 15.9912 19.9046 14.6728 18.5861L14.3899 18.869ZM19.7302 18.869L24.0088 14.5903L23.726 14.3075L19.4473 18.5861L19.7302 18.869ZM24.0088 14.5903C25.4835 13.1157 25.4835 10.7248 24.0088 9.25009L23.726 9.53294C25.0444 10.8514 25.0444 12.989 23.726 14.3075L24.0088 14.5903ZM24.0088 9.25009L23.8659 9.10717L23.5831 9.39002L23.726 9.53294L24.0088 9.25009ZM23.8659 9.10717C22.3912 7.63251 20.0003 7.6325 18.5257 9.10717L18.8085 9.39001C20.127 8.07156 22.2646 8.07156 23.5831 9.39001L23.8659 9.10717ZM18.5257 9.10717L14.3003 13.3326L14.5831 13.6154L18.8085 9.39001L18.5257 9.10717ZM17.2504 12.5552C16.333 12.2756 15.2776 12.5749 14.3193 13.3158L14.564 13.6322C15.4597 12.9397 16.382 12.7086 17.1338 12.9378L17.2504 12.5552Z" fill="white" mask="url(#path-3-outside-1)"/>
<mask id="path-5-outside-2" maskUnits="userSpaceOnUse" x="7.55762" y="13.3145" width="13" height="13" fill="black">
<rect fill="white" x="7.55762" y="13.3145" width="13" height="13"/>
<path fill-rule="evenodd" clip-rule="evenodd" d="M16.2426 20.7691L13.7561 23.2556C12.9182 24.0935 11.5596 24.0935 10.7217 23.2556L10.5788 23.1126C9.74082 22.2747 9.74082 20.9161 10.5788 20.0782L14.8574 15.7996C15.6953 14.9616 17.0539 14.9616 17.8918 15.7996L18.0348 15.9425C18.249 16.1567 18.4084 16.405 18.5131 16.6699C18.715 16.4577 18.9176 16.2455 19.1177 16.0359C19.2662 15.8804 19.4133 15.7264 19.5576 15.575C19.4154 15.3461 19.245 15.1297 19.0462 14.931L18.9033 14.7881C17.5068 13.3915 15.2425 13.3915 13.8459 14.7881L9.56728 19.0667C8.17072 20.4633 8.17072 22.7275 9.56728 24.1241L9.7102 24.267C11.1068 25.6636 13.371 25.6636 14.7676 24.267L18.9928 20.0418C18.0659 20.7584 17.0771 21.0235 16.2426 20.7691Z"/>
</mask>
<path fill-rule="evenodd" clip-rule="evenodd" d="M16.2426 20.7691L13.7561 23.2556C12.9182 24.0935 11.5596 24.0935 10.7217 23.2556L10.5788 23.1126C9.74082 22.2747 9.74082 20.9161 10.5788 20.0782L14.8574 15.7996C15.6953 14.9616 17.0539 14.9616 17.8918 15.7996L18.0348 15.9425C18.249 16.1567 18.4084 16.405 18.5131 16.6699C18.715 16.4577 18.9176 16.2455 19.1177 16.0359C19.2662 15.8804 19.4133 15.7264 19.5576 15.575C19.4154 15.3461 19.245 15.1297 19.0462 14.931L18.9033 14.7881C17.5068 13.3915 15.2425 13.3915 13.8459 14.7881L9.56728 19.0667C8.17072 20.4633 8.17072 22.7275 9.56728 24.1241L9.7102 24.267C11.1068 25.6636 13.371 25.6636 14.7676 24.267L18.9928 20.0418C18.0659 20.7584 17.0771 21.0235 16.2426 20.7691Z" fill="url(#paint1_linear)"/>
<path d="M13.7561 23.2556L13.8975 23.397V23.397L13.7561 23.2556ZM16.2426 20.7691L16.3009 20.5778L16.1861 20.5428L16.1012 20.6277L16.2426 20.7691ZM10.5788 23.1126L10.4373 23.2541L10.5788 23.1126ZM17.8918 15.7996L18.0333 15.6581H18.0333L17.8918 15.7996ZM18.0348 15.9425L17.8933 16.0839H17.8933L18.0348 15.9425ZM18.5131 16.6699L18.3271 16.7434L18.4422 17.0346L18.658 16.8077L18.5131 16.6699ZM19.1177 16.0359L18.9731 15.8978H18.9731L19.1177 16.0359ZM19.5576 15.575L19.7024 15.7129L19.8092 15.6009L19.7275 15.4694L19.5576 15.575ZM19.0462 14.931L19.1877 14.7896H19.1877L19.0462 14.931ZM18.9033 14.7881L18.7619 14.9295H18.7619L18.9033 14.7881ZM13.8459 14.7881L13.9873 14.9295L13.8459 14.7881ZM9.56728 19.0667L9.42586 18.9253L9.56728 19.0667ZM9.56728 24.1241L9.42586 24.2655V24.2655L9.56728 24.1241ZM9.7102 24.267L9.85162 24.1256V24.1256L9.7102 24.267ZM14.7676 24.267L14.6262 24.1256L14.7676 24.267ZM18.9928 20.0418L19.1342 20.1832L18.8705 19.8836L18.9928 20.0418ZM13.8975 23.397L16.384 20.9105L16.1012 20.6277L13.6147 23.1141L13.8975 23.397ZM10.5803 23.397C11.4963 24.313 12.9815 24.313 13.8975 23.397L13.6147 23.1141C12.8549 23.874 11.6229 23.874 10.8631 23.1141L10.5803 23.397ZM10.4373 23.2541L10.5803 23.397L10.8631 23.1141L10.7202 22.9712L10.4373 23.2541ZM10.4373 19.9368C9.5213 20.8528 9.5213 22.338 10.4373 23.2541L10.7202 22.9712C9.96035 22.2114 9.96035 20.9794 10.7202 20.2196L10.4373 19.9368ZM14.716 15.6581L10.4373 19.9368L10.7202 20.2196L14.9988 15.941L14.716 15.6581ZM18.0333 15.6581C17.1172 14.7421 15.632 14.7421 14.716 15.6581L14.9988 15.941C15.7587 15.1811 16.9906 15.1811 17.7504 15.941L18.0333 15.6581ZM18.1762 15.8011L18.0333 15.6581L17.7504 15.941L17.8933 16.0839L18.1762 15.8011ZM18.6991 16.5963C18.5846 16.3065 18.4101 16.035 18.1762 15.8011L17.8933 16.0839C18.0879 16.2784 18.2323 16.5034 18.3271 16.7434L18.6991 16.5963ZM18.9731 15.8978C18.773 16.1073 18.5702 16.3197 18.3682 16.532L18.658 16.8077C18.8597 16.5957 19.0623 16.3836 19.2624 16.174L18.9731 15.8978ZM19.4128 15.437C19.2686 15.5883 19.1216 15.7423 18.9731 15.8978L19.2624 16.174C19.4108 16.0186 19.558 15.8645 19.7024 15.7129L19.4128 15.437ZM19.7275 15.4694C19.5773 15.2276 19.3973 14.9992 19.1877 14.7896L18.9048 15.0724C19.0926 15.2603 19.2536 15.4645 19.3877 15.6805L19.7275 15.4694ZM19.1877 14.7896L19.0447 14.6467L18.7619 14.9295L18.9048 15.0724L19.1877 14.7896ZM19.0447 14.6467C17.5701 13.172 15.1792 13.172 13.7045 14.6467L13.9873 14.9295C15.3058 13.611 17.4434 13.611 18.7619 14.9295L19.0447 14.6467ZM13.7045 14.6467L9.42586 18.9253L9.7087 19.2081L13.9873 14.9295L13.7045 14.6467ZM9.42586 18.9253C7.95119 20.4 7.95119 22.7909 9.42586 24.2655L9.7087 23.9827C8.39025 22.6642 8.39025 20.5266 9.7087 19.2081L9.42586 18.9253ZM9.42586 24.2655L9.56878 24.4085L9.85162 24.1256L9.7087 23.9827L9.42586 24.2655ZM9.56878 24.4085C11.0434 25.8831 13.4343 25.8831 14.909 24.4085L14.6262 24.1256C13.3077 25.4441 11.1701 25.4441 9.85162 24.1256L9.56878 24.4085ZM14.909 24.4085L19.1342 20.1832L18.8514 19.9004L14.6262 24.1256L14.909 24.4085ZM16.1843 20.9604C17.1016 21.2401 18.1569 20.9408 19.1151 20.2L18.8705 19.8836C17.9749 20.576 17.0527 20.807 16.3009 20.5778L16.1843 20.9604Z" fill="white" mask="url(#path-5-outside-2)"/>
<g style="mix-blend-mode:multiply">
<path d="M17.1632 12.8381L17.2206 12.8556L17.263 12.8132L19.7498 10.3264C20.0394 10.0368 20.394 9.85225 20.7666 9.77259L20.7424 9.57486C20.0163 9.59827 18.7277 9.84213 17.1822 10.5959L17.1671 10.6032L17.1553 10.6151L14.3697 13.4007L14.5016 13.5505C15.4133 12.8449 16.3695 12.5963 17.1632 12.8381Z" fill="url(#paint2_linear)"/>
<path d="M17.1632 12.8381L17.2206 12.8556L17.263 12.8132L19.7498 10.3264C20.0394 10.0368 20.394 9.85225 20.7666 9.77259L20.7424 9.57486C20.0163 9.59827 18.7277 9.84213 17.1822 10.5959L17.1671 10.6032L17.1553 10.6151L14.3697 13.4007L14.5016 13.5505C15.4133 12.8449 16.3695 12.5963 17.1632 12.8381Z" stroke="white" stroke-width="0.2"/>
</g>
<g style="mix-blend-mode:multiply">
<path d="M16.2734 20.6726L16.2159 20.6551L16.1735 20.6976L13.6867 23.1844C13.3971 23.474 13.0425 23.6585 12.67 23.7381L12.6941 23.9359C13.4202 23.9125 14.7089 23.6686 16.2543 22.9148L16.2694 22.9075L16.2812 22.8957L19.0668 20.1101L18.9349 19.9603C18.0232 20.6658 17.067 20.9144 16.2734 20.6726Z" fill="url(#paint3_linear)"/>
<path d="M16.2734 20.6726L16.2159 20.6551L16.1735 20.6976L13.6867 23.1844C13.3971 23.474 13.0425 23.6585 12.67 23.7381L12.6941 23.9359C13.4202 23.9125 14.7089 23.6686 16.2543 22.9148L16.2694 22.9075L16.2812 22.8957L19.0668 20.1101L18.9349 19.9603C18.0232 20.6658 17.067 20.9144 16.2734 20.6726Z" stroke="white" stroke-width="0.2"/>
</g>
</g>
<path d="M33.1338 21.8694C33.1197 21.8833 33.1065 21.8977 33.0939 21.9127C33.0788 21.9293 33.0642 21.9464 33.0501 21.964L33.0501 21.964L33.0464 21.9687L27.2644 29.3356L24.0292 26.1019C23.8486 25.9106 23.6319 25.757 23.3916 25.6499C23.1474 25.5411 22.8838 25.4826 22.6165 25.4779C22.3493 25.4731 22.0838 25.5223 21.8359 25.6224C21.5881 25.7225 21.3629 25.8716 21.1739 26.0606C20.9848 26.2496 20.8358 26.4748 20.7357 26.7226C20.6356 26.9705 20.5864 27.236 20.5911 27.5033C20.5959 27.7705 20.6544 28.0341 20.7632 28.2783C20.8703 28.5187 21.0239 28.7354 21.2152 28.9159L25.9534 33.6558L25.9535 33.6559C26.1427 33.8452 26.3681 33.9943 26.6163 34.0944C26.8645 34.1946 27.1304 34.2436 27.398 34.2387C27.6656 34.2337 27.9294 34.1749 28.1737 34.0656C28.418 33.9564 28.6378 33.799 28.8199 33.6028C28.8307 33.5912 28.841 33.5792 28.8509 33.5669L35.9973 24.6339C36.3448 24.2578 36.5342 23.7619 36.5255 23.2492C36.5166 22.7262 36.3022 22.2278 35.9287 21.8617C35.5552 21.4955 35.0527 21.2911 34.5297 21.2925C34.0067 21.294 33.5052 21.5012 33.1338 21.8694Z" fill="#00CC9E" stroke="white" stroke-width="1.29" stroke-linejoin="round"/>
</g>
<defs>
<filter id="filter0_d" x="8.31982" y="8.00098" width="16.795" height="18.5138" filterUnits="userSpaceOnUse" color-interpolation-filters="sRGB">
<feFlood flood-opacity="0" result="BackgroundImageFix"/>
<feColorMatrix in="SourceAlpha" type="matrix" values="0 0 0 0 0 0 0 0 0 0 0 0 0 0 0 0 0 0 127 0"/>
<feOffset dy="1"/>
<feColorMatrix type="matrix" values="0 0 0 0 0 0 0 0 0 0 0 0 0 0 0 0 0 0 0.7 0"/>
<feBlend mode="normal" in2="BackgroundImageFix" result="effect1_dropShadow"/>
<feBlend mode="normal" in="SourceGraphic" in2="effect1_dropShadow" result="shape"/>
</filter>
<linearGradient id="paint0_linear" x1="19.7163" y1="7.25689" x2="15.7041" y2="18.2451" gradientUnits="userSpaceOnUse">
<stop stop-color="white"/>
<stop offset="1" stop-color="#D6D6E8"/>
</linearGradient>
<linearGradient id="paint1_linear" x1="17.8383" y1="19.8581" x2="8.35313" y2="24.4718" gradientUnits="userSpaceOnUse">
<stop stop-color="white"/>
<stop offset="1" stop-color="#D6D6E8"/>
</linearGradient>
<linearGradient id="paint2_linear" x1="22.7058" y1="11.7473" x2="16.1704" y2="11.3647" gradientUnits="userSpaceOnUse">
<stop stop-color="#ADADC8"/>
<stop offset="1" stop-color="#4048FF" stop-opacity="0"/>
</linearGradient>
<linearGradient id="paint3_linear" x1="10.7307" y1="21.7635" x2="17.2662" y2="22.146" gradientUnits="userSpaceOnUse">
<stop stop-color="#ADADC8"/>
<stop offset="1" stop-color="#4048FF" stop-opacity="0"/>
</linearGradient>
</defs>
</svg>
