<svg width="663" height="230" viewBox="0 0 663 230" fill="none" xmlns="http://www.w3.org/2000/svg">
<g clip-path="url(#clip0_10406_10928)">
<rect x="0.5" y="0.5" width="662" height="229" rx="29.5" fill="white" stroke="#D6D6E8"/>
<path d="M663 -278H0V684H663V-278Z" fill="url(#paint0_linear_10406_10928)" fill-opacity="0.8"/>
<path d="M520.25 117.049C520.25 117.648 519.765 118.133 519.167 118.133L467.833 118.133C467.235 118.133 466.75 117.648 466.75 117.049L466.75 112.407C466.75 111.809 467.235 111.324 467.833 111.324L519.167 111.324C519.765 111.324 520.25 111.809 520.25 112.407L520.25 117.049Z" fill="white"/>
<path fill-rule="evenodd" clip-rule="evenodd" d="M517.951 81.705C519.227 80.4058 519.227 78.3238 517.951 77.0245C516.642 75.6918 514.495 75.6918 513.186 77.0245L496.844 93.6638L496.844 54.2112C496.844 52.3645 495.346 50.8674 493.5 50.8674C491.653 50.8674 490.156 52.3645 490.156 54.2112L490.156 93.6638L473.814 77.0245C472.505 75.6918 470.357 75.6918 469.048 77.0245C467.772 78.3238 467.772 80.4058 469.048 81.705L489.541 102.571C491.716 104.785 495.284 104.785 497.458 102.571L517.951 81.705Z" fill="white"/>
<path d="M403.726 149.67L397.553 137.819H401.668L405.576 146.128L409.457 137.819H413.52L407.373 149.67V156H403.726V149.67ZM434.143 146.857C434.143 152.327 430.002 156.182 424.844 156.182C419.713 156.182 415.519 152.327 415.519 146.857C415.519 141.413 419.713 137.558 424.844 137.558C430.028 137.558 434.143 141.413 434.143 146.857ZM419.27 146.857C419.27 150.556 421.536 152.926 424.844 152.926C428.126 152.926 430.392 150.556 430.392 146.857C430.392 143.158 428.126 140.84 424.844 140.84C421.536 140.84 419.27 143.158 419.27 146.857ZM437.586 149.045V137.819H441.232V149.071C441.232 151.572 442.587 152.874 444.905 152.874C447.25 152.874 448.604 151.572 448.604 149.071V137.819H452.277V149.045C452.277 153.838 448.838 156.182 444.853 156.182C440.868 156.182 437.586 153.838 437.586 149.045ZM473.207 143.471C473.207 141.856 472.296 140.84 470.264 140.84H467.216V146.18H470.264C472.296 146.18 473.207 145.112 473.207 143.471ZM463.57 137.819H470.394C474.77 137.819 476.958 140.345 476.958 143.393C476.958 145.607 475.734 147.847 472.817 148.628L477.167 156H472.947L468.936 148.915H467.216V156H463.57V137.819ZM491.587 137.793V140.762H484.685V145.32H490.806V148.212H484.685V153.031H491.587V156H481.038V137.793H491.587ZM494.797 146.883C494.797 141.439 498.783 137.584 504.018 137.584C508.056 137.584 511.338 139.746 512.562 143.471H508.368C507.509 141.726 505.946 140.866 503.992 140.866C500.814 140.866 498.548 143.184 498.548 146.883C498.548 150.556 500.814 152.9 503.992 152.9C505.946 152.9 507.509 152.041 508.368 150.269H512.562C511.338 154.02 508.056 156.156 504.018 156.156C498.783 156.156 494.797 152.327 494.797 146.883ZM527.007 137.793V140.762H520.105V145.32H526.226V148.212H520.105V153.031H527.007V156H516.458V137.793H527.007ZM531.103 156V137.819H534.75V156H531.103ZM546.61 152.275L551.585 137.819H555.466L548.798 156H544.37L537.701 137.819H541.608L546.61 152.275ZM568.983 137.793V140.762H562.08V145.32H568.202V148.212H562.08V153.031H568.983V156H558.434V137.793H568.983ZM579.434 137.819C585.243 137.819 589.02 141.413 589.02 146.935C589.02 152.431 585.243 156 579.434 156H573.079V137.819H579.434ZM576.725 152.9H579.304C583.133 152.9 585.295 150.712 585.295 146.935C585.295 143.158 583.133 140.892 579.304 140.892H576.725V152.9ZM447.506 190V171.819H451.648L457.43 185.337L463.213 171.819H467.328V190H463.682V178.174L458.811 190H456.05L451.153 178.174V190H447.506ZM489.454 180.857C489.454 186.327 485.312 190.182 480.155 190.182C475.023 190.182 470.83 186.327 470.83 180.857C470.83 175.413 475.023 171.558 480.155 171.558C485.338 171.558 489.454 175.413 489.454 180.857ZM474.581 180.857C474.581 184.556 476.847 186.926 480.155 186.926C483.437 186.926 485.703 184.556 485.703 180.857C485.703 177.158 483.437 174.84 480.155 174.84C476.847 174.84 474.581 177.158 474.581 180.857ZM504.852 171.793H508.499V190H504.852L496.595 177.523V190H492.948V171.793H496.595L504.852 184.296V171.793ZM523.433 171.793V174.762H516.531V179.32H522.652V182.212H516.531V187.031H523.433V190H512.884V171.793H523.433ZM532.191 183.67L526.018 171.819H530.134L534.041 180.128L537.922 171.819H541.985L535.838 183.67V190H532.191V183.67Z" fill="white"/>
<circle opacity="0.5" cx="156.5" cy="229.5" r="165.5" fill="#D3FFF3" fill-opacity="0.5"/>
<circle opacity="0.5" cx="156.5" cy="229.5" r="176.5" stroke="#D3FFF3" stroke-opacity="0.3" stroke-width="2"/>
<path opacity="0.3" d="M347.5 229.5C347.5 333.323 262.216 417.5 157 417.5C51.7835 417.5 -33.5 333.323 -33.5 229.5C-33.5 125.677 51.7835 41.5 157 41.5C262.216 41.5 347.5 125.677 347.5 229.5Z" stroke="#D3FFF3" stroke-opacity="0.2"/>
<g filter="url(#filter0_d_10406_10928)">
<path d="M148.398 171.078C150.303 186.89 162.199 202.355 174.398 209.166C183.35 214.163 197.9 218.684 213.593 213.385" stroke="url(#paint1_linear_10406_10928)" stroke-width="20.1072" stroke-linecap="round"/>
<path d="M177.346 201.797C176.295 204.498 175.136 207.811 169.142 212.928" stroke="#C7D2D7" stroke-opacity="0.3" stroke-width="4.74754" stroke-linecap="round"/>
<path d="M168.302 196.385C167.691 198.059 167.034 200.167 163.07 201.67" stroke="#C7D2D7" stroke-opacity="0.3" stroke-width="4.74754" stroke-linecap="round"/>
<path d="M184.701 207.262C184.802 208.898 185.011 210.894 182.579 214.314" stroke="#C7D2D7" stroke-opacity="0.3" stroke-width="4.74754" stroke-linecap="round"/>
</g>
<g filter="url(#filter1_d_10406_10928)">
<path d="M134.032 150.244C147.756 149.027 160.644 157.131 164.319 170.409C172.604 200.343 179.575 239.817 173.333 252.734C166.48 266.915 148.821 272.609 137.381 274.218L137.384 274.246C136.599 274.354 135.739 274.448 134.815 274.523C133.891 274.611 133.028 274.67 132.237 274.703L132.234 274.674C120.69 275.105 102.304 272.609 93.0614 259.856C84.6426 248.24 84.5546 208.156 87.4401 177.231C88.7201 163.513 99.9795 153.266 113.703 152.048L134.032 150.244Z" fill="url(#paint2_linear_10406_10928)"/>
<g filter="url(#filter2_d_10406_10928)">
<rect width="26.5648" height="22.1934" rx="2.5134" transform="matrix(-0.996087 0.0883805 0.0883805 0.996087 144.029 182.319)" fill="url(#paint3_linear_10406_10928)"/>
<rect x="0.380238" y="-0.454284" width="27.4026" height="23.0312" rx="2.9323" transform="matrix(-0.996087 0.0883805 0.0883805 0.996087 144.828 182.283)" stroke="#EFF2F3" stroke-width="0.8378"/>
</g>
<path d="M128.135 193.145L128.103 193.148C128.635 191.753 129.884 190.719 131.418 190.583C132.408 190.495 133.346 190.796 134.094 191.364L134.119 191.362L135.69 191.222C134.639 189.941 133.033 189.187 131.308 189.34C128.675 189.574 126.69 191.837 126.631 194.531L129.944 194.237L130.054 195.479L126.741 195.773L126.743 195.783C126.829 196.207 126.963 196.611 127.136 196.99L130.164 196.722L130.445 199.884C130.835 199.997 131.243 200.063 131.66 200.076L131.353 196.617L132.543 196.511L132.85 199.971C133.259 199.884 133.649 199.748 134.013 199.568L133.732 196.405L136.76 196.136C136.915 195.538 136.972 194.9 136.914 194.245C136.856 193.589 136.687 192.971 136.43 192.409L135.725 192.472L128.135 193.145ZM132.433 195.268L131.244 195.374L131.133 194.131L132.323 194.026L132.433 195.268ZM135.735 194.975L133.623 195.163L133.513 193.92L135.625 193.733C135.672 193.933 135.706 194.139 135.725 194.35C135.743 194.561 135.747 194.77 135.735 194.975Z" fill="#9FF9FF"/>
<path d="M131.082 186.843C126.927 187.212 123.872 191.029 124.257 195.368C124.642 199.707 128.322 202.926 132.476 202.557C136.631 202.189 139.687 198.372 139.302 194.033C138.917 189.694 135.237 186.475 131.082 186.843ZM132.366 201.313C128.87 201.623 125.772 198.914 125.448 195.262C125.124 191.61 127.696 188.398 131.193 188.088C134.689 187.778 137.786 190.487 138.11 194.138C138.434 197.79 135.862 201.002 132.366 201.313Z" fill="#9FF9FF"/>
<g filter="url(#filter3_d_10406_10928)">
<ellipse cx="2.7161" cy="4.6567" rx="2.7161" ry="4.6567" transform="matrix(-0.996087 0.0883805 0.0883805 0.996087 162.16 180.816)" fill="url(#paint4_radial_10406_10928)"/>
<path d="M160.315 190.75C159.358 190.835 158.51 190.243 157.902 189.386C157.288 188.52 156.863 187.313 156.744 185.971C156.624 184.63 156.831 183.367 157.283 182.406C157.73 181.456 158.461 180.723 159.418 180.638C160.375 180.554 161.223 181.146 161.83 182.002C162.444 182.869 162.87 184.076 162.989 185.417C163.108 186.759 162.901 188.022 162.449 188.983C162.003 189.933 161.272 190.665 160.315 190.75Z" stroke="#EFF2F3" stroke-width="0.8378"/>
</g>
<g filter="url(#filter4_d_10406_10928)">
<ellipse cx="2.7161" cy="4.6567" rx="2.7161" ry="4.6567" transform="matrix(-0.996087 0.0883805 0.0883805 0.996087 163.29 193.545)" fill="url(#paint5_radial_10406_10928)"/>
<path d="M161.444 203.479C160.487 203.564 159.639 202.972 159.032 202.115C158.418 201.249 157.992 200.042 157.873 198.7C157.754 197.359 157.961 196.096 158.412 195.135C158.859 194.185 159.59 193.452 160.547 193.367C161.504 193.283 162.352 193.875 162.959 194.731C163.574 195.598 163.999 196.805 164.118 198.146C164.237 199.488 164.031 200.751 163.579 201.712C163.132 202.662 162.401 203.394 161.444 203.479Z" stroke="#EFF2F3" stroke-width="0.8378"/>
</g>
</g>
<path d="M160.618 162.208C129.561 174.716 94.2434 159.678 81.7353 128.62C69.2272 97.5625 84.2647 62.2454 115.322 49.7373C146.38 37.2292 181.697 52.2667 194.206 83.3245C206.714 114.382 191.676 149.699 160.618 162.208Z" fill="url(#paint6_radial_10406_10928)"/>
<path d="M183.74 118.127C186.674 117.73 189.063 115.548 189.679 112.642C191.772 102.91 190.627 88.1654 186.015 80.1758C168.335 49.4764 118.031 63.3744 119.876 94.5689C120.743 108.947 129.907 118.719 134.067 122.665C135.398 123.915 137.253 124.518 139.069 124.267L183.74 118.127Z" fill="url(#paint7_linear_10406_10928)"/>
<g style="mix-blend-mode:multiply">
<path d="M119.527 94.6662C118.574 78.8852 131.006 67.5607 145.768 64.1861C135.641 69.441 159.516 82.7439 160.236 94.9156C161.103 109.293 139.127 115.312 143.301 119.295C144.633 120.545 146.488 121.148 148.304 120.896L188.151 115.436C187.066 116.962 185.35 118.002 183.406 118.262L138.735 124.401C136.92 124.653 135.065 124.05 133.733 122.8C129.558 118.817 120.372 109.097 119.527 94.6662Z" fill="url(#paint8_radial_10406_10928)"/>
</g>
<path d="M167.708 72.0034C170.527 72.4126 183.267 80.6979 182.507 95.4794" stroke="white" stroke-width="5.69311" stroke-linecap="round"/>
<g filter="url(#filter5_d_10406_10928)">
<path d="M100.862 170.164C96.5595 185.498 101.618 204.343 110.273 215.31C116.625 223.357 128.33 233.111 144.855 234.233" stroke="url(#paint9_linear_10406_10928)" stroke-width="20.1072" stroke-linecap="round"/>
<path d="M115.82 209.635C113.814 211.726 111.473 214.341 103.975 216.77" stroke="#C7D2D7" stroke-opacity="0.3" stroke-width="4.74754" stroke-linecap="round"/>
<path d="M109.542 201.169C108.337 202.481 106.921 204.175 102.685 204.044" stroke="#C7D2D7" stroke-opacity="0.3" stroke-width="4.74754" stroke-linecap="round"/>
<path d="M120.518 217.502C119.984 219.052 119.412 220.975 115.854 223.201" stroke="#C7D2D7" stroke-opacity="0.3" stroke-width="4.74754" stroke-linecap="round"/>
</g>
<path d="M193.29 179.014C193.468 178.411 193.925 177.93 194.518 177.722L230.916 164.944C232.42 164.416 233.89 165.812 233.439 167.341L213.382 235.373C213.205 235.975 212.748 236.456 212.155 236.664L175.757 249.443C174.253 249.971 172.783 248.574 173.234 247.045L193.29 179.014Z" fill="url(#paint10_linear_10406_10928)"/>
<path d="M194.614 177.683C193.9 177.934 193.35 178.512 193.136 179.238L173.358 246.326C172.815 248.167 174.584 249.849 176.395 249.213L177.109 248.963C177.125 248.856 177.15 248.749 177.181 248.641L196.96 181.553C197.173 180.827 197.723 180.249 198.438 179.998L233.194 167.796C233.457 166.088 231.789 164.632 230.084 165.23L194.614 177.683Z" fill="url(#paint11_linear_10406_10928)" fill-opacity="0.5"/>
<g style="mix-blend-mode:multiply">
<path d="M209.458 175.808L205.976 173.356C205.786 173.222 205.834 172.927 206.057 172.86L218.643 169.075C218.722 169.051 218.807 169.063 218.876 169.108L222.402 171.397C222.506 171.465 222.553 171.593 222.518 171.711L220.514 178.422C220.49 178.502 220.431 178.568 220.353 178.6L208.293 183.567C208.083 183.653 207.864 183.466 207.915 183.245L209.569 176.1C209.595 175.989 209.551 175.874 209.458 175.808Z" fill="url(#paint12_linear_10406_10928)"/>
</g>
<path d="M136.043 241.411C134.763 246.943 138.89 252.194 144.532 252.213L155.225 252.249C156.535 252.254 157.79 251.97 158.925 251.453C185.643 253.576 194.852 247.621 197.022 241.117C197.504 233.881 188.479 236.859 180.436 233.351C180.044 233.18 179.658 233.011 179.278 232.844C184.28 233.302 185.915 230.268 184.458 227.602C183.085 225.088 175.718 225.205 168.292 226.276C167.281 226.518 165.976 226.88 164.531 227.368C163.579 225.95 162.21 224.807 160.536 224.137L151.379 220.47C146.342 218.453 140.657 221.462 139.423 226.797L136.043 241.411Z" fill="#282522"/>
<path d="M213.768 238.15C207.139 232.905 218.662 218.62 224.14 213.485C224.312 213.323 224.586 213.435 224.591 213.671C224.794 223.187 220.438 243.427 213.768 238.15Z" fill="black"/>
<path d="M219.06 210.818C223.247 209.562 225.197 211.601 224.597 213.692C222.962 216.401 218.78 221.786 215.132 221.657C210.573 221.497 214.715 212.12 219.06 210.818Z" fill="black"/>
<path d="M300.324 146.923C300.429 146.76 300.68 146.816 300.706 147.008L301.464 152.522C301.472 152.582 301.506 152.636 301.558 152.669L306.236 155.683C306.399 155.788 306.344 156.039 306.151 156.066L300.638 156.823C300.577 156.831 300.524 156.866 300.491 156.917L297.476 161.595C297.371 161.759 297.12 161.703 297.094 161.511L296.336 155.997C296.328 155.937 296.294 155.883 296.243 155.85L291.564 152.836C291.401 152.731 291.457 152.479 291.649 152.453L297.162 151.696C297.223 151.687 297.277 151.653 297.31 151.602L300.324 146.923Z" fill="#2BB797"/>
<path d="M342.964 74.5502C343.069 74.3871 343.32 74.4428 343.347 74.6349L344.104 80.1487C344.112 80.2091 344.147 80.2628 344.198 80.2959L348.877 83.3101C349.04 83.4151 348.984 83.6663 348.792 83.6927L343.278 84.45C343.218 84.4583 343.164 84.4926 343.131 84.5439L340.117 89.2224C340.012 89.3855 339.76 89.3299 339.734 89.1377L338.977 83.624C338.968 83.5636 338.934 83.5098 338.883 83.4768L334.204 80.4626C334.041 80.3575 334.097 80.1063 334.289 80.0799L339.803 79.3226C339.863 79.3143 339.917 79.2801 339.95 79.2288L342.964 74.5502Z" fill="#2BB797"/>
<path d="M255.964 53.5502C256.069 53.3871 256.32 53.4428 256.347 53.6349L257.104 59.1487C257.112 59.2091 257.146 59.2628 257.198 59.2959L261.876 62.3101C262.039 62.4151 261.984 62.6663 261.792 62.6927L256.278 63.45C256.217 63.4583 256.164 63.4926 256.131 63.5439L253.116 68.2224C253.011 68.3855 252.76 68.3299 252.734 68.1377L251.977 62.624C251.968 62.5636 251.934 62.5098 251.883 62.4768L247.204 59.4626C247.041 59.3575 247.097 59.1063 247.289 59.0799L252.803 58.3226C252.863 58.3143 252.917 58.2801 252.95 58.2288L255.964 53.5502Z" fill="#2BB797"/>
<path d="M308.272 122.896C308.342 122.788 308.509 122.825 308.527 122.953L309.049 126.757C309.055 126.797 309.078 126.833 309.112 126.855L312.34 128.935C312.449 129.005 312.412 129.173 312.284 129.19L308.479 129.713C308.439 129.718 308.403 129.741 308.381 129.775L306.301 133.003C306.231 133.112 306.064 133.075 306.046 132.947L305.524 129.143C305.518 129.102 305.495 129.066 305.461 129.044L302.233 126.965C302.124 126.895 302.161 126.727 302.29 126.71L306.094 126.187C306.134 126.182 306.17 126.159 306.192 126.125L308.272 122.896Z" fill="white"/>
<path d="M217.544 47.8515C217.614 47.7428 217.781 47.7799 217.799 47.908L218.322 51.7123C218.327 51.7526 218.35 51.7884 218.384 51.8104L221.612 53.8902C221.721 53.9602 221.684 54.1277 221.556 54.1453L217.751 54.6678C217.711 54.6733 217.675 54.6961 217.653 54.7303L215.574 57.9584C215.504 58.0671 215.336 58.03 215.318 57.9019L214.796 54.0976C214.79 54.0573 214.768 54.0215 214.733 53.9995L211.505 51.9197C211.397 51.8497 211.434 51.6822 211.562 51.6647L215.366 51.1421C215.406 51.1366 215.442 51.1138 215.464 51.0796L217.544 47.8515Z" fill="white"/>
<path d="M301.27 43.5058C301.34 43.3971 301.508 43.4342 301.525 43.5623L302.048 47.3666C302.053 47.4069 302.076 47.4427 302.11 47.4647L305.339 49.5445C305.447 49.6145 305.41 49.782 305.282 49.7996L301.478 50.3221C301.437 50.3276 301.402 50.3504 301.38 50.3846L299.3 53.6127C299.23 53.7214 299.062 53.6843 299.045 53.5562L298.522 49.7519C298.517 49.7116 298.494 49.6758 298.46 49.6538L295.232 47.574C295.123 47.504 295.16 47.3365 295.288 47.3189L299.092 46.7964C299.133 46.7909 299.169 46.7681 299.191 46.7339L301.27 43.5058Z" fill="white" fill-opacity="0.5"/>
<path d="M234.754 133.692L234.754 133.692C234.477 133.457 234.35 133.091 234.422 132.738L234.426 132.719L236.717 122.374L246.116 129.709L235.766 133.857L235.766 133.857C235.425 133.994 235.034 133.931 234.754 133.692Z" fill="white" stroke="#13BA94" stroke-width="0.866284"/>
<path d="M307.106 71.6065L307.105 71.6061C306.959 71.396 306.741 71.2546 306.501 71.2015C306.358 71.1696 306.208 71.1697 306.056 71.2066L306.056 71.2066L214.205 93.5015L307.106 71.6065ZM307.106 71.6065C307.34 71.9423 307.343 72.3889 307.112 72.7278L307.111 72.7286L265.135 134.707C265.135 134.707 265.135 134.707 265.135 134.707C264.81 135.186 264.301 135.509 263.729 135.601C263.469 135.642 263.206 135.632 262.95 135.576C262.651 135.509 262.363 135.376 262.117 135.183L262.116 135.183L238.266 116.574M307.106 71.6065L238.266 116.574M238.266 116.574L284.519 86.9108L284.089 86.16L232.728 112.253L213.413 97.1827C212.781 96.6892 212.487 95.8777 212.656 95.0938C212.825 94.3091 213.427 93.6911 214.205 93.5016L238.266 116.574Z" fill="white" stroke="#13BA94" stroke-width="0.866284"/>
</g>
<defs>
<filter id="filter0_d_10406_10928" x="130.209" y="157.7" width="101.445" height="75.4153" filterUnits="userSpaceOnUse" color-interpolation-filters="sRGB">
<feFlood flood-opacity="0" result="BackgroundImageFix"/>
<feColorMatrix in="SourceAlpha" type="matrix" values="0 0 0 0 0 0 0 0 0 0 0 0 0 0 0 0 0 0 127 0" result="hardAlpha"/>
<feOffset dy="1.11707"/>
<feGaussianBlur stdDeviation="0.558534"/>
<feComposite in2="hardAlpha" operator="out"/>
<feColorMatrix type="matrix" values="0 0 0 0 0 0 0 0 0 0 0 0 0 0 0 0 0 0 0.25 0"/>
<feBlend mode="normal" in2="BackgroundImageFix" result="effect1_dropShadow_10406_10928"/>
<feBlend mode="normal" in="SourceGraphic" in2="effect1_dropShadow_10406_10928" result="shape"/>
</filter>
<filter id="filter1_d_10406_10928" x="73.8483" y="147.194" width="112.208" height="196.757" filterUnits="userSpaceOnUse" color-interpolation-filters="sRGB">
<feFlood flood-opacity="0" result="BackgroundImageFix"/>
<feColorMatrix in="SourceAlpha" type="matrix" values="0 0 0 0 0 0 0 0 0 0 0 0 0 0 0 0 0 0 127 0" result="hardAlpha"/>
<feOffset dy="1.11707"/>
<feGaussianBlur stdDeviation="0.558534"/>
<feComposite in2="hardAlpha" operator="out"/>
<feColorMatrix type="matrix" values="0 0 0 0 0 0 0 0 0 0 0 0 0 0 0 0 0 0 0.25 0"/>
<feBlend mode="normal" in2="BackgroundImageFix" result="effect1_dropShadow_10406_10928"/>
<feBlend mode="normal" in="SourceGraphic" in2="effect1_dropShadow_10406_10928" result="shape"/>
</filter>
<filter id="filter2_d_10406_10928" x="115.825" y="181.693" width="31.908" height="27.9399" filterUnits="userSpaceOnUse" color-interpolation-filters="sRGB">
<feFlood flood-opacity="0" result="BackgroundImageFix"/>
<feColorMatrix in="SourceAlpha" type="matrix" values="0 0 0 0 0 0 0 0 0 0 0 0 0 0 0 0 0 0 127 0" result="hardAlpha"/>
<feOffset dy="1.11707"/>
<feGaussianBlur stdDeviation="0.558534"/>
<feComposite in2="hardAlpha" operator="out"/>
<feColorMatrix type="matrix" values="0 0 0 0 0 0 0 0 0 0 0 0 0 0 0 0 0 0 0.25 0"/>
<feBlend mode="normal" in2="BackgroundImageFix" result="effect1_dropShadow_10406_10928"/>
<feBlend mode="normal" in="SourceGraphic" in2="effect1_dropShadow_10406_10928" result="shape"/>
</filter>
<filter id="filter3_d_10406_10928" x="155.174" y="180.211" width="9.38355" height="13.1997" filterUnits="userSpaceOnUse" color-interpolation-filters="sRGB">
<feFlood flood-opacity="0" result="BackgroundImageFix"/>
<feColorMatrix in="SourceAlpha" type="matrix" values="0 0 0 0 0 0 0 0 0 0 0 0 0 0 0 0 0 0 127 0" result="hardAlpha"/>
<feOffset dy="1.11707"/>
<feGaussianBlur stdDeviation="0.558534"/>
<feComposite in2="hardAlpha" operator="out"/>
<feColorMatrix type="matrix" values="0 0 0 0 0 0 0 0 0 0 0 0 0 0 0 0 0 0 0.25 0"/>
<feBlend mode="normal" in2="BackgroundImageFix" result="effect1_dropShadow_10406_10928"/>
<feBlend mode="normal" in="SourceGraphic" in2="effect1_dropShadow_10406_10928" result="shape"/>
</filter>
<filter id="filter4_d_10406_10928" x="156.304" y="192.94" width="9.38355" height="13.1997" filterUnits="userSpaceOnUse" color-interpolation-filters="sRGB">
<feFlood flood-opacity="0" result="BackgroundImageFix"/>
<feColorMatrix in="SourceAlpha" type="matrix" values="0 0 0 0 0 0 0 0 0 0 0 0 0 0 0 0 0 0 127 0" result="hardAlpha"/>
<feOffset dy="1.11707"/>
<feGaussianBlur stdDeviation="0.558534"/>
<feComposite in2="hardAlpha" operator="out"/>
<feColorMatrix type="matrix" values="0 0 0 0 0 0 0 0 0 0 0 0 0 0 0 0 0 0 0.25 0"/>
<feBlend mode="normal" in2="BackgroundImageFix" result="effect1_dropShadow_10406_10928"/>
<feBlend mode="normal" in="SourceGraphic" in2="effect1_dropShadow_10406_10928" result="shape"/>
</filter>
<filter id="filter5_d_10406_10928" x="64.4659" y="153.624" width="115.087" height="103.14" filterUnits="userSpaceOnUse" color-interpolation-filters="sRGB">
<feFlood flood-opacity="0" result="BackgroundImageFix"/>
<feColorMatrix in="SourceAlpha" type="matrix" values="0 0 0 0 0 0 0 0 0 0 0 0 0 0 0 0 0 0 127 0" result="hardAlpha"/>
<feOffset dy="1.11707"/>
<feGaussianBlur stdDeviation="0.558534"/>
<feComposite in2="hardAlpha" operator="out"/>
<feColorMatrix type="matrix" values="0 0 0 0 0 0 0 0 0 0 0 0 0 0 0 0 0 0 0.25 0"/>
<feBlend mode="normal" in2="BackgroundImageFix" result="effect1_dropShadow_10406_10928"/>
<feBlend mode="normal" in="SourceGraphic" in2="effect1_dropShadow_10406_10928" result="shape"/>
</filter>
<linearGradient id="paint0_linear_10406_10928" x1="331.233" y1="-82.3551" x2="331.233" y2="980.77" gradientUnits="userSpaceOnUse">
<stop stop-color="#00CC9E"/>
<stop offset="1" stop-color="#4048FF"/>
</linearGradient>
<linearGradient id="paint1_linear_10406_10928" x1="146.243" y1="192.798" x2="204.198" y2="198.349" gradientUnits="userSpaceOnUse">
<stop stop-color="#EFF2F3"/>
<stop offset="1" stop-color="white"/>
</linearGradient>
<linearGradient id="paint2_linear_10406_10928" x1="123.868" y1="151.146" x2="134.815" y2="274.524" gradientUnits="userSpaceOnUse">
<stop stop-color="#E3E9EB"/>
<stop offset="0.56737" stop-color="white"/>
</linearGradient>
<linearGradient id="paint3_linear_10406_10928" x1="13.2824" y1="-28.3199" x2="13.2824" y2="22.1934" gradientUnits="userSpaceOnUse">
<stop stop-color="#50D5FF"/>
<stop offset="1" stop-color="#2C3585"/>
</linearGradient>
<radialGradient id="paint4_radial_10406_10928" cx="0" cy="0" r="1" gradientUnits="userSpaceOnUse" gradientTransform="translate(2.7161 4.6567) rotate(90) scale(6.78593 3.95801)">
<stop stop-color="#51E0FF"/>
<stop offset="1" stop-color="#4E7CB4"/>
</radialGradient>
<radialGradient id="paint5_radial_10406_10928" cx="0" cy="0" r="1" gradientUnits="userSpaceOnUse" gradientTransform="translate(2.7161 4.6567) rotate(90) scale(6.78593 3.95801)">
<stop stop-color="#FFB3B3"/>
<stop offset="1" stop-color="#F20000"/>
</radialGradient>
<radialGradient id="paint6_radial_10406_10928" cx="0" cy="0" r="1" gradientUnits="userSpaceOnUse" gradientTransform="translate(149.945 188.817) rotate(158.064) scale(101.355 101.355)">
<stop offset="0.381" stop-color="#BFCCD1"/>
<stop offset="0.7578" stop-color="white"/>
</radialGradient>
<linearGradient id="paint7_linear_10406_10928" x1="186.98" y1="82.0424" x2="123.102" y2="107.768" gradientUnits="userSpaceOnUse">
<stop stop-color="#FFF668"/>
<stop offset="0.29" stop-color="#FF9C4C"/>
<stop offset="1" stop-color="#880000"/>
</linearGradient>
<radialGradient id="paint8_radial_10406_10928" cx="0" cy="0" r="1" gradientUnits="userSpaceOnUse" gradientTransform="translate(164.168 103.484) rotate(158.064) scale(54.2012 54.2012)">
<stop stop-color="white"/>
<stop offset="0.9385" stop-color="#880000"/>
</radialGradient>
<linearGradient id="paint9_linear_10406_10928" x1="90.5448" y1="189.399" x2="141.943" y2="216.745" gradientUnits="userSpaceOnUse">
<stop stop-color="#EFF2F3"/>
<stop offset="1" stop-color="white"/>
</linearGradient>
<linearGradient id="paint10_linear_10406_10928" x1="192.917" y1="274.245" x2="212.318" y2="149.332" gradientUnits="userSpaceOnUse">
<stop stop-color="#1E2236"/>
<stop offset="1" stop-color="#CECECE"/>
</linearGradient>
<linearGradient id="paint11_linear_10406_10928" x1="202.759" y1="241.317" x2="217.469" y2="162.441" gradientUnits="userSpaceOnUse">
<stop stop-color="#DFDFDF"/>
<stop offset="0.879412" stop-color="#F0F3F4"/>
<stop offset="1" stop-color="white"/>
</linearGradient>
<linearGradient id="paint12_linear_10406_10928" x1="213.795" y1="169.479" x2="215.006" y2="183.133" gradientUnits="userSpaceOnUse">
<stop stop-color="#1E2236"/>
<stop offset="1" stop-color="#1E2236" stop-opacity="0.35"/>
</linearGradient>
<clipPath id="clip0_10406_10928">
<rect width="663" height="230" rx="32" fill="white"/>
</clipPath>
</defs>
</svg>
