<svg width="81" height="82" viewBox="0 0 81 82" fill="none" xmlns="http://www.w3.org/2000/svg">
<ellipse cx="39.5068" cy="38.5" rx="36.0068" ry="36.5" fill="#1F2337"/>
<g filter="url(#filter0_d_10476_1828)">
<rect x="4.48657" y="2" width="72.0135" height="73" rx="36.0068" fill="white"/>
<rect x="3.80879" y="1.32222" width="73.3691" height="74.3556" rx="36.6845" stroke="#F6F6FF" stroke-width="1.35556"/>
</g>
<g clip-path="url(#clip0_10476_1828)">
<path d="M63.0886 29.848C62.8867 29.2466 62.5676 28.679 62.0957 28.1976L43.5849 13.8722C41.1706 12.0571 39.9362 12.0514 37.5469 13.8448L18.9905 28.0017C18.5144 28.4788 18.1888 29.0435 17.9816 29.643L40.4073 49.7126L63.0886 29.848Z" fill="url(#paint0_linear_10476_1828)"/>
<path d="M24.4173 19.9732C24.423 18.6736 25.4812 17.6248 26.7809 17.6307L54.3634 17.756C55.6631 17.7619 56.712 18.8203 56.7062 20.1199L56.6078 42.368C56.6021 43.6676 55.5439 44.7164 54.2442 44.7105L26.6617 44.5851C25.362 44.5792 24.3131 43.5209 24.3189 42.2212L24.4173 19.9732Z" fill="white" stroke="#D6D6E8" stroke-width="1.56882"/>
<path d="M23.751 26.9141L57.2605 26.9161" stroke="#75758F" stroke-width="2.63832"/>
<path d="M23.7153 34.979L57.2249 34.9811" stroke="#75758F" stroke-width="2.63832"/>
<path d="M23.6797 43.0442L57.1892 43.0462" stroke="#75758F" stroke-width="2.63832"/>
<path d="M20.157 56.2683L40.4476 40.4363L60.6495 56.4537C61.4003 56.0706 62.018 55.4744 62.4318 54.7346L43.4762 39.5429C41.083 37.7407 39.8205 37.7064 37.4382 39.5155L18.3787 54.5102C18.7845 55.2622 19.3997 55.874 20.157 56.2683Z" fill="#E8AB54"/>
<path d="M40.4456 46.8582L63.0932 29.846L62.9859 54.092C62.9755 56.4552 61.0724 58.3621 58.7348 58.3514L22.0555 58.1848C19.7179 58.1741 17.8318 56.2501 17.8422 53.8868L17.9495 29.6409L40.4456 46.8582Z" fill="url(#paint1_linear_10476_1828)"/>
<path d="M59.1855 58.311C60.1001 58.2168 60.9285 57.834 61.5758 57.2437L40.4463 40.4418L19.2184 57.0512C19.8618 57.6488 20.6854 58.0377 21.602 58.1417L59.1855 58.311Z" fill="url(#paint2_linear_10476_1828)"/>
<path d="M18.3643 55.9424C18.7701 56.6944 19.3867 57.3062 20.1425 57.7019L40.4331 41.8713L60.635 57.8873C61.3858 57.5042 62.0035 56.908 62.4173 56.1682L43.4617 40.9723C40.8057 38.9649 40.16 38.8707 37.4238 40.9448L18.3643 55.9424Z" fill="#F9D7A7"/>
</g>
<defs>
<filter id="filter0_d_10476_1828" x="0.419992" y="0.644531" width="80.1468" height="81.1332" filterUnits="userSpaceOnUse" color-interpolation-filters="sRGB">
<feFlood flood-opacity="0" result="BackgroundImageFix"/>
<feColorMatrix in="SourceAlpha" type="matrix" values="0 0 0 0 0 0 0 0 0 0 0 0 0 0 0 0 0 0 127 0" result="hardAlpha"/>
<feOffset dy="2.71111"/>
<feGaussianBlur stdDeviation="1.35556"/>
<feColorMatrix type="matrix" values="0 0 0 0 0 0 0 0 0 0 0 0 0 0 0 0 0 0 0.15 0"/>
<feBlend mode="normal" in2="BackgroundImageFix" result="effect1_dropShadow_10476_1828"/>
<feBlend mode="normal" in="SourceGraphic" in2="effect1_dropShadow_10476_1828" result="shape"/>
</filter>
<linearGradient id="paint0_linear_10476_1828" x1="40.6114" y1="12.5056" x2="40.4423" y2="49.7127" gradientUnits="userSpaceOnUse">
<stop stop-color="#B14A00"/>
<stop offset="1" stop-color="#D07C40"/>
</linearGradient>
<linearGradient id="paint1_linear_10476_1828" x1="40.5213" y1="29.7434" x2="40.3917" y2="58.2681" gradientUnits="userSpaceOnUse">
<stop offset="0.349318" stop-color="#ED9C29"/>
<stop offset="1" stop-color="#FCCB85"/>
</linearGradient>
<linearGradient id="paint2_linear_10476_1828" x1="40.471" y1="40.4419" x2="40.3902" y2="58.2271" gradientUnits="userSpaceOnUse">
<stop stop-color="#F4B459"/>
<stop offset="1" stop-color="#F7C887"/>
</linearGradient>
<clipPath id="clip0_10476_1828">
<rect width="45.1442" height="45.7626" fill="white" transform="matrix(0.99999 0.00454438 -0.00442239 0.99999 18.0359 12.4062)"/>
</clipPath>
</defs>
</svg>
