<svg width="37" height="37" viewBox="0 0 37 37" fill="none" xmlns="http://www.w3.org/2000/svg">
<mask id="mask0" mask-type="alpha" maskUnits="userSpaceOnUse" x="0" y="0" width="37" height="37">
<rect x="0.785156" y="0.43457" width="36" height="36" fill="#C4C4C4"/>
</mask>
<g mask="url(#mask0)">
<rect x="2.78516" y="2.43457" width="32" height="32" rx="16" fill="url(#paint0_radial)"/>
<mask id="mask1" mask-type="alpha" maskUnits="userSpaceOnUse" x="2" y="2" width="33" height="33">
<rect x="2.78516" y="2.43457" width="32" height="32" rx="16" fill="#75758F"/>
</mask>
<g mask="url(#mask1)">
<path d="M15.0081 25.4083C14.3953 25.4244 14.2959 25.7779 14.3228 25.9525C17.0305 26.1474 22.458 26.4202 22.5064 25.9525C22.5547 25.4849 22.1503 25.3949 21.942 25.4083H18.1525C17.3597 25.4016 15.6208 25.3922 15.0081 25.4083Z" fill="black"/>
<path d="M13.4542 26.3357C15.283 26.0483 15.3592 23.3749 15.1687 22.0741L18.4016 20.082V34.3201H7.46181C7.03728 29.6829 7.75572 28.3114 8.26189 27.4786C8.76806 26.6459 11.1683 26.6949 13.4542 26.3357Z" fill="url(#paint1_linear)"/>
<path d="M23.349 26.3357C21.5203 26.0483 21.4441 23.3749 21.6346 22.0741L18.4016 20.082V34.3201H29.3414C29.766 29.6829 29.0475 28.3114 28.5414 27.4786C28.0352 26.6459 25.635 26.6949 23.349 26.3357Z" fill="url(#paint2_linear)"/>
<path fill-rule="evenodd" clip-rule="evenodd" d="M18.4017 34.4351V34.4355H30.4586V31.4488C30.5382 29.9623 30.0686 26.9239 27.5538 26.6621C27.0289 26.6074 26.5494 26.5607 26.1129 26.5182C23.9352 26.3063 22.8251 26.1982 22.4605 25.7211C22.182 27.0026 20.9809 29.8188 18.404 30.8342C15.8264 29.8192 14.6251 27.0024 14.3466 25.7207C13.982 26.1978 12.8719 26.3059 10.6942 26.5179C10.2576 26.5604 9.7782 26.607 9.25327 26.6617C6.73844 26.9235 6.2689 29.962 6.34848 31.4485V34.4351H18.4017Z" fill="black"/>
<path fill-rule="evenodd" clip-rule="evenodd" d="M12.6255 13.052C12.2388 9.60653 14.9349 6.59082 18.402 6.59082C21.8691 6.59082 24.5652 9.60653 24.1785 13.052L23.9947 14.6893C24.1779 14.5489 24.4587 14.493 24.7602 14.8656C25.2793 15.5067 24.2783 19.8469 23.4997 19.3537C23.445 19.3191 23.3997 19.2662 23.3627 19.1977C22.8219 21.0242 21.6493 22.6184 20.0303 23.6784C19.0414 24.326 17.7627 24.326 16.7737 23.6784C15.1545 22.6182 13.9817 21.0237 13.4411 19.1969C13.404 19.2658 13.3586 19.319 13.3037 19.3537C12.5251 19.8469 11.524 15.5067 12.0431 14.8656C12.3451 14.4925 12.6262 14.5491 12.8093 14.6899L12.6255 13.052Z" fill="#F6F6FF"/>
<path d="M13.4876 6.70881C13.6504 6.34277 13.8754 5.92372 14.019 5.93808C14.2089 5.95707 14.3039 6.15174 14.3276 6.2467L14.9211 5.93808V6.22153C15.0936 6.18501 15.2697 6.15312 15.4469 6.12534C16.2038 5.77054 17.3303 5.33573 18.1498 5.32083C18.8749 5.30764 20.1377 5.55062 21.4013 5.79376C22.4133 5.98846 23.4257 6.18327 24.163 6.2467C24.468 6.27294 24.6963 6.22983 24.8684 6.19735C25.0649 6.16025 25.188 6.137 25.2682 6.2467C25.2539 6.40401 25.318 6.63086 25.3904 6.88712C25.5585 7.48169 25.7714 8.23457 25.1532 8.64447C25.1116 8.67205 25.1657 8.7086 25.2517 8.76661C25.5336 8.95692 26.1578 9.37827 24.8683 10.4725C24.8116 10.5206 24.7562 10.5744 24.7024 10.6323C24.8793 12.7281 24.3426 14.1115 24.1781 14.5354C24.1701 14.556 24.1629 14.5744 24.1568 14.5905C24.0936 14.6351 24.0284 14.6541 23.955 14.6756C23.7091 14.7474 23.3705 14.8464 22.7011 16.0243L23.1373 14.4567C23.4896 13.7779 23.2604 12.5588 23.0409 11.3911C23.0223 11.2922 23.0038 11.1937 22.9857 11.096C22.3141 10.2932 20.6602 9.00116 18.4584 9.21423C18.4194 9.21801 18.3806 9.22193 18.342 9.22598V9.22919C18.3391 9.2285 18.3357 9.22778 18.3319 9.22705C18.3254 9.22773 18.319 9.22842 18.3125 9.22911C18.3124 9.22914 18.3123 9.22916 18.3122 9.22919C16.9231 9.37805 15.8127 9.70223 15.028 9.93136C14.4281 10.1065 14.0185 10.2261 13.8202 10.1693C13.7713 10.551 13.6929 10.9677 13.6133 11.3911C13.3938 12.5588 13.1646 13.7779 13.5169 14.4567L13.9531 16.0243C13.2837 14.8464 12.9451 14.7474 12.6992 14.6756C12.6258 14.6541 12.5606 14.6351 12.4974 14.5905C12.4913 14.5744 12.4841 14.5561 12.4761 14.5354C12.2408 13.9288 11.243 11.3572 12.6655 7.54496C12.7949 7.19804 13.0911 6.92418 13.4876 6.70881Z" fill="black"/>
</g>
</g>
<defs>
<radialGradient id="paint0_radial" cx="0" cy="0" r="1" gradientUnits="userSpaceOnUse" gradientTransform="translate(21.3608 33.0888) rotate(-79.4365) scale(31.8631)">
<stop stop-color="#75758F"/>
<stop offset="1" stop-color="#ADADC8"/>
</radialGradient>
<linearGradient id="paint1_linear" x1="19.5639" y1="28.4647" x2="18.737" y2="14.7699" gradientUnits="userSpaceOnUse">
<stop stop-color="#F6F6FF"/>
<stop offset="0.682292" stop-color="#ADADC8"/>
</linearGradient>
<linearGradient id="paint2_linear" x1="19.5639" y1="28.4647" x2="18.737" y2="14.7699" gradientUnits="userSpaceOnUse">
<stop stop-color="#F6F6FF"/>
<stop offset="0.682292" stop-color="#ADADC8"/>
</linearGradient>
</defs>
</svg>
