<svg width="18" height="18" viewBox="0 0 18 18" fill="none" xmlns="http://www.w3.org/2000/svg">
<path d="M17.2929 2.51996C17.6834 2.12944 17.6834 1.49627 17.2929 1.10575L16.8943 0.707107C16.5037 0.316582 15.8706 0.316582 15.48 0.707107L9 7.18714L2.51996 0.707107C2.12944 0.316583 1.49627 0.316583 1.10575 0.707107L0.707107 1.10575C0.316583 1.49627 0.316583 2.12944 0.707107 2.51996L7.18714 9L0.707107 15.48C0.316583 15.8706 0.316583 16.5037 0.707107 16.8943L1.10575 17.2929C1.49627 17.6834 2.12944 17.6834 2.51996 17.2929L9 10.8129L15.48 17.2929C15.8706 17.6834 16.5037 17.6834 16.8943 17.2929L17.2929 16.8943C17.6834 16.5037 17.6834 15.8706 17.2929 15.48L10.8129 9L17.2929 2.51996Z" fill="#1F2337"/>
</svg>
