<svg width="24" height="24" viewBox="0 0 24 24" fill="none" xmlns="http://www.w3.org/2000/svg">
<path d="M9.587 10.303L12.5 7.39L15.4145 10.3045L17.1095 8.6095L12.5 4L7.892 8.608L9.587 10.303ZM5 11.5L6.695 13.195L8.39 11.5L6.695 9.805L5 11.5ZM9.587 12.697L7.88975 14.3898L7.892 14.392L12.5 19L17.1095 14.3905L15.4145 12.6947L12.5 15.61L9.587 12.697ZM16.61 11.5L18.305 13.195L20 11.5L18.305 9.805L16.61 11.5ZM14.219 11.4985L12.5 9.7795L11.2288 11.05L11.0825 11.1962L10.7817 11.4977L10.7787 11.5L10.7817 11.5023L12.4992 13.2205L14.2197 11.5007L14.2205 11.5L14.219 11.4985Z" fill="#4048FF"/>
<circle cx="12" cy="12" r="11.5" stroke="#4048FF"/>
</svg>
