<svg width="28" height="28" viewBox="0 0 28 28" fill="none" xmlns="http://www.w3.org/2000/svg">
<path d="M13.5953 0C6.08663 0 0 6.0871 0 13.5953C0 21.1036 6.08663 27.1907 13.5953 27.1907C21.1041 27.1907 27.1907 21.1036 27.1907 13.5953C27.1907 6.0871 21.1041 0 13.5953 0ZM13.5953 25.0371C7.27629 25.0371 2.15356 19.9144 2.15356 13.5953C2.15356 7.27629 7.27629 2.15356 13.5953 2.15356C19.9144 2.15356 25.0371 7.27629 25.0371 13.5953C25.0371 19.9144 19.9144 25.0371 13.5953 25.0371Z" fill="#4048FF"/>
<path d="M13.5009 5L15.6069 7.15677L10.3038 12.4599L8.19775 10.3539L13.5009 5Z" fill="#4048FF" stroke="#F0B90B" stroke-width="0.0507474"/>
<path d="M16.698 8.19678L18.804 10.3535L10.3038 18.8537L8.19775 16.7477L16.698 8.19678Z" fill="#4048FF" stroke="#F0B90B" stroke-width="0.0507474"/>
<path d="M7.10602 11.3943L9.21204 13.5511L7.10602 15.6571L5 13.5511L7.10602 11.3943Z" fill="#4048FF" stroke="#F0B90B" stroke-width="0.0507474"/>
<path d="M19.8938 11.3943L21.9998 13.5511L13.4996 22.0513L11.3936 19.9452L19.8938 11.3943Z" fill="#4048FF" stroke="#F0B90B" stroke-width="0.0507474"/>
</svg>
