<svg width="19" height="19" viewBox="0 0 19 19" fill="none" xmlns="http://www.w3.org/2000/svg">
<path d="M5.46757 7.01389H5.4295C6.20856 5.48253 7.79938 4.4332 9.63531 4.4332C10.8196 4.4332 11.9017 4.86961 12.7298 5.59045H12.7588H14.6384C13.5255 4.02857 11.6994 3.00977 9.63531 3.00977C6.48544 3.00977 3.88996 5.38185 3.53725 8.43733L7.50047 8.43701V9.86014H3.53662L3.53819 9.87115C3.59577 10.362 3.71125 10.8349 3.87738 11.2836H7.49984V14.906C7.95135 15.0734 8.42866 15.1895 8.92297 15.2468V11.2839H10.3461V15.2471C10.8407 15.1898 11.3177 15.0741 11.7692 14.9064V11.2836H15.3917C15.6384 10.6187 15.773 9.89947 15.773 9.14873C15.773 8.398 15.6384 7.67873 15.3917 7.01389H14.5488H5.46757ZM10.3464 9.86045H8.92328V8.43733H10.3464V9.86045ZM14.297 9.86045H11.7698V8.43733H14.297C14.3323 8.66953 14.3505 8.90709 14.3505 9.14905C14.3505 9.39069 14.3323 9.62825 14.297 9.86045Z" fill="#4048FF"/>
<path d="M9.63037 0.148438C4.65967 0.148438 0.630371 4.17805 0.630371 9.14844C0.630371 14.1188 4.65967 18.1484 9.63037 18.1484C14.6011 18.1484 18.6304 14.1188 18.6304 9.14844C18.6304 4.17805 14.6011 0.148438 9.63037 0.148438ZM9.63037 16.7228C5.44722 16.7228 2.05601 13.3316 2.05601 9.14844C2.05601 4.96528 5.44722 1.57408 9.63037 1.57408C13.8135 1.57408 17.2047 4.96528 17.2047 9.14844C17.2047 13.3316 13.8135 16.7228 9.63037 16.7228Z" fill="#4048FF"/>
</svg>
