<svg width="25" height="26" viewBox="0 0 25 26" fill="none" xmlns="http://www.w3.org/2000/svg">
<path fill-rule="evenodd" clip-rule="evenodd" d="M6.37443 16.9703C5.76474 15.9135 5.44396 14.7146 5.44436 13.4944C5.44454 12.2743 5.76566 11.0756 6.37545 10.0191C6.98524 8.96258 7.86222 8.08528 8.91824 7.47536C9.97427 6.86544 11.1721 6.54441 12.3915 6.54452C13.6108 6.54462 14.8086 6.86587 15.8645 7.47597C16.9204 8.08608 17.7973 8.96354 18.4069 10.0202C19.0165 11.0768 19.3374 12.2754 19.3373 13.4954C19.3373 14.7155 19.0163 15.914 18.4066 16.9706C17.7969 18.0272 16.9201 18.9046 15.8641 19.5146C15.6212 19.655 15.4715 19.9143 15.4715 20.195V22.5197C15.4715 23.3372 15.147 24.1213 14.5692 24.6994C13.9915 25.2775 13.2079 25.6023 12.3908 25.6023C11.5738 25.6023 10.7902 25.2775 10.2125 24.6994C9.63472 24.1213 9.31015 23.3372 9.31015 22.5197V20.195C9.31015 19.9143 9.16046 19.6549 8.91748 19.5146C7.86121 18.9046 6.98412 18.0271 6.37443 16.9703ZM11.2324 20.3486C11.0046 20.3103 10.7716 20.3743 10.5952 20.5236C10.4189 20.6728 10.3172 20.8922 10.3172 21.1233V22.5197C10.3172 23.07 10.5356 23.5978 10.9245 23.9869C11.3134 24.376 11.8409 24.5946 12.3908 24.5946C12.9408 24.5946 13.4683 24.376 13.8572 23.9869C14.2461 23.5978 14.4645 23.07 14.4645 22.5197V21.1233C14.4645 20.8922 14.3628 20.6728 14.1865 20.5236C14.0101 20.3743 13.7771 20.3103 13.5493 20.3486C12.7824 20.4776 11.9993 20.4776 11.2324 20.3486ZM12.3908 7.55104C10.8156 7.55104 9.30487 8.17718 8.19101 9.29172C7.07714 10.4063 6.45138 11.9179 6.45138 13.4941C6.45138 15.0703 7.07714 16.5819 8.19101 17.6965C9.30487 18.811 10.8156 19.4371 12.3908 19.4371C13.9661 19.4371 15.4768 18.811 16.5907 17.6965C17.7046 16.5819 18.3303 15.0703 18.3303 13.4941C18.3303 11.9179 17.7046 10.4063 16.5907 9.29172C15.4768 8.17718 13.9661 7.55104 12.3908 7.55104Z" fill="#4048FF"/>
<path fill-rule="evenodd" clip-rule="evenodd" d="M5.05182 13.4943C5.0514 14.7835 5.39031 16.0501 6.03446 17.1667L5.05182 13.4943ZM5.05182 13.4943C5.05202 12.2053 5.39127 10.9389 6.03552 9.82267C6.67977 8.70645 7.6063 7.77956 8.72201 7.13518C9.83771 6.4908 11.1033 6.15162 12.3915 6.15173C13.6797 6.15185 14.9452 6.49125 16.0608 7.13583C17.1764 7.78041 18.1028 8.70746 18.7468 9.8238C19.3909 10.9401 19.7299 12.2064 19.7299 13.4954C19.7298 14.7844 19.3907 16.0507 18.7466 17.167C18.1024 18.2833 17.176 19.2103 16.0604 19.8548C15.9389 19.925 15.8641 20.0546 15.8641 20.195V22.5197C15.8641 23.4414 15.4982 24.3254 14.8468 24.9771C14.1954 25.6289 13.312 25.995 12.3908 25.995C11.4697 25.995 10.5863 25.6289 9.93489 24.9771C9.28354 24.3254 8.91761 23.4414 8.91761 22.5197V20.195C8.91761 20.0546 8.84276 19.9249 8.72127 19.8548C7.6053 19.2104 6.67862 18.2832 6.03446 17.1667M11.1673 20.736C11.0534 20.7168 10.9369 20.7488 10.8487 20.8234C10.7606 20.8981 10.7097 21.0078 10.7097 21.1233V22.5197C10.7097 22.9658 10.8868 23.3937 11.2021 23.7092C11.5174 24.0246 11.945 24.2019 12.3908 24.2019C12.8367 24.2019 13.2643 24.0246 13.5796 23.7092C13.8949 23.3937 14.072 22.9658 14.072 22.5197V21.1233C14.072 21.0078 14.0211 20.8981 13.933 20.8234C13.8448 20.7488 13.7283 20.7168 13.6144 20.736C12.8044 20.8722 11.9773 20.8722 11.1673 20.736ZM12.3908 7.94382C10.9197 7.94382 9.50883 8.52858 8.46858 9.56946C7.42833 10.6103 6.84392 12.0221 6.84392 13.4941C6.84392 14.9661 7.42833 16.3779 8.46858 17.4187C9.50883 18.4596 10.9197 19.0444 12.3908 19.0444C13.862 19.0444 15.2729 18.4596 16.3131 17.4187C17.3534 16.3779 17.9378 14.9661 17.9378 13.4941C17.9378 12.0221 17.3534 10.6103 16.3131 9.56946C15.2729 8.52858 13.862 7.94382 12.3908 7.94382ZM5.44436 13.4944C5.44396 14.7146 5.76474 15.9135 6.37443 16.9703C6.98412 18.0271 7.86121 18.9046 8.91748 19.5146C9.16046 19.6549 9.31015 19.9143 9.31015 20.195V22.5197C9.31015 23.3372 9.63472 24.1213 10.2125 24.6994C10.7902 25.2775 11.5738 25.6023 12.3908 25.6023C13.2079 25.6023 13.9915 25.2775 14.5692 24.6994C15.147 24.1213 15.4715 23.3372 15.4715 22.5197V20.195C15.4715 19.9143 15.6212 19.655 15.8641 19.5146C16.9201 18.9046 17.7969 18.0272 18.4066 16.9706C19.0163 15.914 19.3373 14.7155 19.3373 13.4954C19.3374 12.2754 19.0165 11.0768 18.4069 10.0202C17.7973 8.96354 16.9204 8.08608 15.8645 7.47597C14.8086 6.86587 13.6108 6.54462 12.3915 6.54452C11.1721 6.54441 9.97427 6.86544 8.91824 7.47536C7.86222 8.08528 6.98524 8.96258 6.37545 10.0191C5.76566 11.0756 5.44454 12.2743 5.44436 13.4944ZM10.5952 20.5236C10.7716 20.3743 11.0046 20.3103 11.2324 20.3486C11.9993 20.4776 12.7824 20.4776 13.5493 20.3486C13.7771 20.3103 14.0101 20.3743 14.1865 20.5236C14.3628 20.6728 14.4645 20.8922 14.4645 21.1233V22.5197C14.4645 23.07 14.2461 23.5978 13.8572 23.9869C13.4683 24.376 12.9408 24.5946 12.3908 24.5946C11.8409 24.5946 11.3134 24.376 10.9245 23.9869C10.5356 23.5978 10.3172 23.07 10.3172 22.5197V21.1233C10.3172 20.8922 10.4189 20.6728 10.5952 20.5236ZM8.19101 9.29172C9.30487 8.17718 10.8156 7.55104 12.3908 7.55104C13.9661 7.55104 15.4768 8.17718 16.5907 9.29172C17.7046 10.4063 18.3303 11.9179 18.3303 13.4941C18.3303 15.0703 17.7046 16.5819 16.5907 17.6965C15.4768 18.811 13.9661 19.4371 12.3908 19.4371C10.8156 19.4371 9.30487 18.811 8.19101 17.6965C7.07714 16.5819 6.45138 15.0703 6.45138 13.4941C6.45138 11.9179 7.07714 10.4063 8.19101 9.29172Z" fill="#4048FF"/>
<path d="M12.3911 1.33712C12.74 1.33712 13.0229 1.62016 13.0229 1.96931V3.06162C13.0229 3.41077 12.74 3.69381 12.3911 3.69381C12.0421 3.69381 11.7592 3.41077 11.7592 3.06162V1.96931C11.7592 1.62016 12.0421 1.33712 12.3911 1.33712Z" fill="#4048FF"/>
<path fill-rule="evenodd" clip-rule="evenodd" d="M13.4154 1.96931V3.06162C13.4154 3.6277 12.9568 4.08659 12.3911 4.08659C11.8253 4.08659 11.3667 3.6277 11.3667 3.06162V1.96931C11.3667 1.40323 11.8253 0.944336 12.3911 0.944336C12.9568 0.944336 13.4154 1.40323 13.4154 1.96931ZM13.0229 1.96931C13.0229 1.62016 12.74 1.33712 12.3911 1.33712C12.0421 1.33712 11.7592 1.62016 11.7592 1.96931V3.06162C11.7592 3.41077 12.0421 3.69381 12.3911 3.69381C12.74 3.69381 13.0229 3.41077 13.0229 3.06162V1.96931Z" fill="#4048FF"/>
<path d="M18.9039 6.97776C18.6572 6.73088 18.6572 6.3306 18.9039 6.08371L19.6758 5.31133C19.9226 5.06445 20.3226 5.06445 20.5693 5.31133C20.8161 5.55822 20.8161 5.9585 20.5693 6.20538L19.7974 6.97776C19.5507 7.22465 19.1507 7.22465 18.9039 6.97776Z" fill="#4048FF"/>
<path fill-rule="evenodd" clip-rule="evenodd" d="M18.6263 5.80597L19.3983 5.03359C19.7983 4.63332 20.4469 4.63332 20.8469 5.03359C21.247 5.43387 21.247 6.08285 20.8469 6.48312L20.075 7.2555C19.675 7.65578 19.0264 7.65578 18.6263 7.2555C18.2263 6.85523 18.2263 6.20625 18.6263 5.80597ZM18.9039 6.08371C18.6572 6.3306 18.6572 6.73088 18.9039 6.97776C19.1507 7.22465 19.5507 7.22465 19.7974 6.97776L20.5693 6.20538C20.8161 5.9585 20.8161 5.55822 20.5693 5.31133C20.3226 5.06445 19.9226 5.06445 19.6758 5.31133L18.9039 6.08371Z" fill="#4048FF"/>
<path d="M5.87812 6.97776C6.12486 6.73088 6.12486 6.3306 5.87812 6.08371L5.1062 5.31133C4.85947 5.06445 4.45943 5.06445 4.21269 5.31133C3.96595 5.55822 3.96595 5.9585 4.21269 6.20538L4.9846 6.97776C5.23134 7.22465 5.63138 7.22465 5.87812 6.97776Z" fill="#4048FF"/>
<path fill-rule="evenodd" clip-rule="evenodd" d="M6.15569 5.80597L5.38377 5.03359C4.98374 4.63332 4.33515 4.63332 3.93512 5.03359C3.53508 5.43387 3.53508 6.08285 3.93512 6.48312L4.70703 7.2555C5.10707 7.65578 5.75565 7.65578 6.15569 7.2555C6.55572 6.85523 6.55572 6.20625 6.15569 5.80597ZM5.87812 6.08371C6.12486 6.3306 6.12486 6.73088 5.87812 6.97776C5.63138 7.22465 5.23134 7.22465 4.9846 6.97776L4.21269 6.20538C3.96595 5.9585 3.96595 5.55822 4.21269 5.31133C4.45943 5.06445 4.85947 5.06445 5.1062 5.31133L5.87812 6.08371Z" fill="#4048FF"/>
<path d="M21.3871 13.2541C21.3871 12.905 21.6699 12.6219 22.0189 12.6219H23.1105C23.4595 12.6219 23.7423 12.905 23.7423 13.2541C23.7423 13.6033 23.4595 13.8863 23.1105 13.8863H22.0189C21.6699 13.8863 21.3871 13.6033 21.3871 13.2541Z" fill="#4048FF"/>
<path fill-rule="evenodd" clip-rule="evenodd" d="M22.0189 12.2291H23.1105C23.6763 12.2291 24.1349 12.688 24.1349 13.2541C24.1349 13.8202 23.6763 14.2791 23.1105 14.2791H22.0189C21.4531 14.2791 20.9945 13.8202 20.9945 13.2541C20.9945 12.688 21.4531 12.2291 22.0189 12.2291ZM22.0189 12.6219C21.6699 12.6219 21.3871 12.905 21.3871 13.2541C21.3871 13.6033 21.6699 13.8863 22.0189 13.8863H23.1105C23.4595 13.8863 23.7423 13.6033 23.7423 13.2541C23.7423 12.905 23.4595 12.6219 23.1105 12.6219H22.0189Z" fill="#4048FF"/>
<path d="M3.39497 13.2541C3.39497 12.905 3.1121 12.6219 2.76316 12.6219H1.67151C1.32257 12.6219 1.0397 12.905 1.0397 13.2541C1.0397 13.6033 1.32257 13.8863 1.67151 13.8863H2.76316C3.1121 13.8863 3.39497 13.6033 3.39497 13.2541Z" fill="#4048FF"/>
<path fill-rule="evenodd" clip-rule="evenodd" d="M2.76316 12.2291H1.67151C1.10577 12.2291 0.647156 12.688 0.647156 13.2541C0.647156 13.8202 1.10577 14.2791 1.67151 14.2791H2.76316C3.3289 14.2791 3.78752 13.8202 3.78752 13.2541C3.78752 12.688 3.3289 12.2291 2.76316 12.2291ZM2.76316 12.6219C3.1121 12.6219 3.39497 12.905 3.39497 13.2541C3.39497 13.6033 3.1121 13.8863 2.76316 13.8863H1.67151C1.32257 13.8863 1.0397 13.6033 1.0397 13.2541C1.0397 12.905 1.32257 12.6219 1.67151 12.6219H2.76316Z" fill="#4048FF"/>
</svg>
