<svg width="29" height="29" viewBox="0 0 29 29" fill="none" xmlns="http://www.w3.org/2000/svg">
<path d="M7.61255 19.2734H4.11255V24.5234H7.61255V19.2734ZM16.3625 12.2734H12.8625V24.5234H16.3625V12.2734ZM25.1125 3.52344V24.5234H21.6125V3.52344L25.1125 3.52344ZM21.6125 1.77344C20.6461 1.77344 19.8625 2.55694 19.8625 3.52344V24.5234C19.8625 25.4899 20.6461 26.2734 21.6125 26.2734H25.1125C26.079 26.2734 26.8625 25.4899 26.8625 24.5234V3.52344C26.8625 2.55694 26.079 1.77344 25.1125 1.77344H21.6125ZM11.1125 12.2734C11.1125 11.3069 11.8961 10.5234 12.8625 10.5234H16.3625C17.329 10.5234 18.1125 11.3069 18.1125 12.2734V24.5234C18.1125 25.4899 17.329 26.2734 16.3625 26.2734H12.8625C11.8961 26.2734 11.1125 25.4899 11.1125 24.5234V12.2734ZM2.36255 19.2734C2.36255 18.3069 3.14605 17.5234 4.11255 17.5234H7.61255C8.57905 17.5234 9.36255 18.3069 9.36255 19.2734V24.5234C9.36255 25.4899 8.57905 26.2734 7.61255 26.2734H4.11255C3.14605 26.2734 2.36255 25.4899 2.36255 24.5234V19.2734Z" fill="#4048FF"/>
</svg>
