<svg width="25" height="25" viewBox="0 0 25 25" fill="none" xmlns="http://www.w3.org/2000/svg">
<path d="M9.15431 10.1777C9.33121 10.1777 9.50087 10.248 9.62595 10.373C9.75104 10.498 9.82132 10.6676 9.82132 10.8444V18.8444C9.82132 19.0212 9.75104 19.1908 9.62595 19.3158C9.50087 19.4408 9.33121 19.5111 9.15431 19.5111C8.97741 19.5111 8.80775 19.4408 8.68267 19.3158C8.55758 19.1908 8.4873 19.0212 8.4873 18.8444V10.8444C8.4873 10.6676 8.55758 10.498 8.68267 10.373C8.80775 10.248 8.97741 10.1777 9.15431 10.1777ZM12.4893 10.1777C12.6662 10.1777 12.8359 10.248 12.961 10.373C13.0861 10.498 13.1563 10.6676 13.1563 10.8444V18.8444C13.1563 19.0212 13.0861 19.1908 12.961 19.3158C12.8359 19.4408 12.6662 19.5111 12.4893 19.5111C12.3124 19.5111 12.1428 19.4408 12.0177 19.3158C11.8926 19.1908 11.8223 19.0212 11.8223 18.8444V10.8444C11.8223 10.6676 11.8926 10.498 12.0177 10.373C12.1428 10.248 12.3124 10.1777 12.4893 10.1777ZM16.4914 10.8444C16.4914 10.6676 16.4211 10.498 16.296 10.373C16.1709 10.248 16.0013 10.1777 15.8244 10.1777C15.6475 10.1777 15.4778 10.248 15.3527 10.373C15.2276 10.498 15.1574 10.6676 15.1574 10.8444V18.8444C15.1574 19.0212 15.2276 19.1908 15.3527 19.3158C15.4778 19.4408 15.6475 19.5111 15.8244 19.5111C16.0013 19.5111 16.1709 19.4408 16.296 19.3158C16.4211 19.1908 16.4914 19.0212 16.4914 18.8444V10.8444Z" fill="#4048FF"/>
<path d="M19.159 7.68099H18.659V8.18099V20.181C18.659 20.7555 18.4306 21.3066 18.0241 21.713C17.6175 22.1193 17.0661 22.3477 16.491 22.3477H8.48691C7.91183 22.3477 7.36036 22.1193 6.9538 21.713C6.54724 21.3066 6.31889 20.7555 6.31889 20.181V8.18099V7.68099H5.81889H5.15188C4.93061 7.68099 4.71845 7.59313 4.56206 7.43682C4.40568 7.28052 4.31787 7.06859 4.31787 6.84766V5.51432C4.31787 5.29339 4.40568 5.08146 4.56206 4.92516C4.71845 4.76885 4.93061 4.68099 5.15188 4.68099H9.82092H10.3209V4.18099C10.3209 3.96006 10.4087 3.74812 10.5651 3.59182L10.2116 3.23818L10.5651 3.59182C10.7215 3.43552 10.9337 3.34766 11.1549 3.34766H13.823C14.0442 3.34766 14.2564 3.43552 14.4128 3.59182C14.5692 3.74812 14.657 3.96006 14.657 4.18099V4.68099H15.157H19.826C20.0473 4.68099 20.2594 4.76885 20.4158 4.92516C20.5722 5.08146 20.66 5.29339 20.66 5.51432V6.84766C20.66 7.06859 20.5722 7.28052 20.4158 7.43682C20.2594 7.59313 20.0473 7.68099 19.826 7.68099H19.159ZM7.31031 7.68099H7.19233L7.0868 7.73373L6.92939 7.8124L6.6529 7.95057V8.25966V20.181C6.6529 20.6673 6.84619 21.1336 7.19016 21.4774C7.53412 21.8212 8.00058 22.0143 8.48691 22.0143H16.491C16.9773 22.0143 17.4438 21.8212 17.7877 21.4774C18.1317 21.1336 18.325 20.6673 18.325 20.181V8.25966V7.95057L18.0485 7.8124L17.8911 7.73373L17.7856 7.68099H17.6676H7.31031ZM4.65188 6.84766V7.34766H5.15188H19.826H20.326V6.84766V5.51432V5.01432H19.826H5.15188H4.65188V5.51432V6.84766Z" fill="#4048FF" stroke="#4048FF"/>
</svg>
