<svg width="25" height="25" viewBox="0 0 25 25" fill="none" xmlns="http://www.w3.org/2000/svg">
<path d="M3.90145 13.6458C3.7691 13.5134 3.58958 13.4391 3.4024 13.4391C3.21522 13.4391 3.0357 13.5134 2.90335 13.6458C2.77099 13.7781 2.69663 13.9577 2.69663 14.1448V18.3852C2.69663 19.0544 2.96245 19.6961 3.43562 20.1693C3.90879 20.6425 4.55055 20.9083 5.21971 20.9083H19.7582C20.4273 20.9083 21.0691 20.6425 21.5423 20.1693C22.0154 19.6961 22.2812 19.0544 22.2812 18.3852V14.1448C22.2812 13.9577 22.2069 13.7781 22.0745 13.6458C21.9422 13.5134 21.7627 13.4391 21.5755 13.4391C21.3883 13.4391 21.2088 13.5134 21.0764 13.6458C20.9441 13.7781 20.8697 13.9577 20.8697 14.1448V18.3852C20.8697 18.68 20.7526 18.9627 20.5441 19.1712C20.3357 19.3796 20.053 19.4968 19.7582 19.4968H5.21971C4.92491 19.4968 4.64219 19.3796 4.43373 19.1712C4.22528 18.9627 4.10817 18.68 4.10817 18.3852V14.1448C4.10817 13.9577 4.03381 13.7781 3.90145 13.6458Z" fill="#4048FF" stroke="#4048FF" stroke-width="0.2"/>
<path d="M8.78364 12.8623L8.78366 12.8623C8.91601 12.7299 9.0955 12.6556 9.28264 12.6556C9.46979 12.6556 9.64927 12.7299 9.78162 12.8623L9.78163 12.8623L12.489 15.5696L15.1957 12.8629C15.2607 12.7958 15.3384 12.7422 15.4242 12.7053C15.5103 12.6684 15.6029 12.6489 15.6966 12.6481C15.7903 12.6473 15.8833 12.6651 15.97 12.7006C16.0567 12.7361 16.1355 12.7885 16.2018 12.8548C16.2681 12.921 16.3205 12.9998 16.356 13.0866L16.2634 13.1244L16.356 13.0866C16.3915 13.1733 16.4093 13.2662 16.4085 13.3599C16.4077 13.4537 16.3882 13.5463 16.3512 13.6324C16.3144 13.7182 16.2608 13.7959 16.1937 13.8608L12.9887 17.0671L12.9886 17.0672L12.9179 16.9965C12.8616 17.0529 12.7947 17.0977 12.7211 17.1282C12.6476 17.1587 12.5687 17.1744 12.489 17.1744C12.4093 17.1744 12.3304 17.1587 12.2568 17.1282C12.1832 17.0977 12.1164 17.0529 12.0601 16.9965L8.78364 12.8623ZM8.78364 12.8623C8.65133 12.9946 8.577 13.1741 8.577 13.3613C8.577 13.5484 8.65133 13.7279 8.78364 13.8602L8.78364 12.8623Z" fill="#4048FF" stroke="#4048FF" stroke-width="0.2"/>
<path d="M12.9879 5.16531C12.8555 5.03295 12.676 4.95859 12.4888 4.95859C12.3016 4.95859 12.1221 5.03295 11.9898 5.16531C11.8574 5.29767 11.7831 5.47718 11.7831 5.66436V15.3567C11.7831 15.5439 11.8574 15.7234 11.9898 15.8557C12.1221 15.9881 12.3016 16.0624 12.4888 16.0624C12.676 16.0624 12.8555 15.9881 12.9879 15.8557C13.1202 15.7234 13.1946 15.5439 13.1946 15.3567V5.66436C13.1946 5.47718 13.1202 5.29767 12.9879 5.16531Z" fill="#4048FF" stroke="#4048FF" stroke-width="0.2"/>
</svg>
