<svg width="35" height="35" viewBox="0 0 35 35" fill="none" xmlns="http://www.w3.org/2000/svg">
<path fill-rule="evenodd" clip-rule="evenodd" d="M26.7003 7.90751C26.7003 6.64259 25.2538 5.96525 24.2678 6.66939C23.3302 7.33896 21.9687 8.24795 20.5462 8.98648C19.0959 9.7394 17.6933 10.255 16.6412 10.255H10.8226C9.45666 10.255 8.0842 10.5268 7.04778 11.4023C5.9865 12.2988 5.41837 13.706 5.41837 15.6625C5.41837 17.6191 5.9865 19.0263 7.04778 19.9228C7.63537 20.4192 8.33097 20.7215 9.07217 20.8902L12.4483 29.8988C12.558 30.1915 12.8377 30.3854 13.1501 30.3854H17.8049C18.0507 30.3854 18.2809 30.2648 18.4209 30.0626C18.5609 29.8605 18.5929 29.6025 18.5066 29.3722L16.8854 25.0463C18.0277 24.8667 19.4626 24.1173 20.2922 22.209C20.949 22.5385 21.6008 22.911 22.2124 23.2877C23.1371 23.8571 23.9571 24.4277 24.5464 24.8565C24.8406 25.0707 25.0764 25.2487 25.2379 25.3727C25.3186 25.4347 25.3807 25.483 25.4222 25.5156L25.4687 25.5522L25.4798 25.5611L25.4823 25.5631C25.7073 25.7431 26.0159 25.7786 26.2755 25.6537C26.5352 25.5288 26.7003 25.2661 26.7003 24.9778V19.8389C26.9991 19.7852 27.2919 19.6995 27.5737 19.5827C28.0882 19.3694 28.5556 19.0569 28.9494 18.6629C29.3432 18.2689 29.6556 17.8011 29.8687 17.2863C30.0818 16.7715 30.1915 16.2198 30.1915 15.6625C30.1915 15.1053 30.0818 14.5536 29.8687 14.0388C29.6556 13.524 29.3432 13.0562 28.9494 12.6622C28.5556 12.2682 28.0882 11.9556 27.5737 11.7424C27.2919 11.6256 26.9991 11.5399 26.7003 11.4862V7.90751ZM18.9238 21.5958C18.0625 21.2619 17.2804 21.0701 16.6412 21.0701H15.3952L16.3404 23.5921C16.9867 23.5885 18.213 23.2409 18.9238 21.5958ZM10.8226 19.5703C9.618 19.5703 8.66304 19.3245 8.0147 18.7768C7.39122 18.2501 6.91725 17.3285 6.91725 15.6625C6.91725 13.9966 7.39122 13.075 8.0147 12.5483C8.66304 12.0006 9.618 11.7548 10.8226 11.7548H15.8918V19.5703H10.8226ZM17.3906 19.625V11.6999C18.6404 11.5255 20.0053 10.957 21.2365 10.3177C22.747 9.53357 24.1725 8.58 25.1385 7.89016C25.1434 7.88666 25.1463 7.88558 25.1473 7.88522C25.1486 7.88479 25.1503 7.88435 25.1531 7.8842C25.1596 7.88386 25.1711 7.88533 25.1838 7.89168C25.1941 7.89679 25.1994 7.90218 25.2013 7.90451L25.2014 7.90751V23.48C24.614 23.0587 23.8501 22.535 22.998 22.0104C22.0338 21.4167 20.9436 20.8136 19.8595 20.3568C19.0445 20.0135 18.1979 19.7376 17.3906 19.625ZM13.6694 28.8856L10.7404 21.0701H13.7944L16.7235 28.8856H13.6694ZM27.0001 18.1971C26.9021 18.2377 26.802 18.2725 26.7003 18.3014V13.0237C26.802 13.0526 26.9021 13.0874 27.0001 13.128C27.3327 13.2659 27.635 13.468 27.8895 13.7227C28.1441 13.9775 28.3461 14.2799 28.4839 14.6127C28.6217 14.9456 28.6926 15.3023 28.6926 15.6625C28.6926 16.0228 28.6217 16.3795 28.4839 16.7124C28.3461 17.0452 28.1441 17.3476 27.8895 17.6024C27.635 17.8571 27.3327 18.0592 27.0001 18.1971Z" fill="#4048FF"/>
</svg>
