<svg width="35" height="35" viewBox="0 0 35 35" fill="none" xmlns="http://www.w3.org/2000/svg">
<path d="M16.6306 23.8846C16.6306 23.3 17.1045 22.8255 17.6891 22.8255C18.2736 22.8255 18.7475 23.3 18.7475 23.8846C18.7475 24.4692 18.2736 24.9437 17.6891 24.9437C17.1045 24.9437 16.6306 24.4692 16.6306 23.8846ZM18.3347 12.2771C16.1543 11.9594 14.228 13.3044 13.6459 15.2319C13.4553 15.8462 13.921 16.4711 14.5667 16.4711H14.7784C15.2123 16.4711 15.5616 16.1639 15.7098 15.7615C16.0485 14.8189 17.054 14.1729 18.1442 14.4059C19.1497 14.6177 19.8906 15.6026 19.8059 16.6299C19.7001 18.0491 18.0913 18.3562 17.2128 19.6801C17.2128 19.6907 17.2022 19.6907 17.2022 19.7012C17.1916 19.7224 17.181 19.733 17.1704 19.7542C17.0752 19.9131 16.9799 20.0931 16.9058 20.2837C16.8952 20.3155 16.8741 20.3367 16.8635 20.3685C16.8529 20.3896 16.8529 20.4108 16.8423 20.4426C16.8115 20.5301 16.7831 20.622 16.7578 20.7186C16.6099 21.2841 17.1045 21.7664 17.6891 21.7664C18.2736 21.7664 18.7236 21.2679 18.9845 20.7448C19.0034 20.7069 19.0232 20.6697 19.0439 20.6332C19.065 20.6015 19.0756 20.5697 19.0968 20.5379C19.1815 20.3896 19.2873 20.252 19.3932 20.1249C19.4037 20.1143 19.4143 20.0931 19.4249 20.0825C19.5308 19.9554 19.6472 19.8389 19.7742 19.7224C20.7903 18.7587 22.1663 17.9749 21.8805 15.9521C21.6264 14.1093 20.1764 12.5525 18.3347 12.2771Z" fill="#4048FF"/>
<path d="M28.7537 18.5876C28.7537 24.6633 23.8315 29.5876 17.7609 29.5876C11.6904 29.5876 6.76819 24.6633 6.76819 18.5876C6.76819 12.5119 11.6904 7.58765 17.7609 7.58765C23.8315 7.58765 28.7537 12.5119 28.7537 18.5876Z" stroke="#4048FF" stroke-width="2"/>
</svg>
