<svg width="35" height="35" viewBox="0 0 35 35" fill="none" xmlns="http://www.w3.org/2000/svg">
<path fill-rule="evenodd" clip-rule="evenodd" d="M18.0927 8.24777C17.7182 7.9262 17.1653 7.9262 16.7909 8.24776L8.55121 15.324C8.33 15.514 8.20271 15.7912 8.20271 16.0829V25.5516C8.20271 26.1038 8.65016 26.5516 9.20211 26.5516H25.6814C26.2333 26.5516 26.6808 26.1038 26.6808 25.5516V16.0829C26.6808 15.7912 26.5535 15.514 26.3323 15.324L18.0927 8.24777ZM15.4891 6.73011C16.6123 5.76542 18.2712 5.76542 19.3945 6.73011L27.6341 13.8064C28.2977 14.3763 28.6796 15.2078 28.6796 16.0829V25.5516C28.6796 27.2084 27.3372 28.5516 25.6814 28.5516H9.20211C7.54625 28.5516 6.20392 27.2084 6.20392 25.5516V16.0829C6.20392 15.2078 6.58577 14.3763 7.24941 13.8064L15.4891 6.73011Z" fill="#4048FF"/>
</svg>
