<svg width="25" height="25" viewBox="0 0 25 25" fill="none" xmlns="http://www.w3.org/2000/svg">
<path d="M16.6557 2.44727C15.1615 2.44727 13.8073 2.73847 12.749 3.28707C11.6915 3.83567 10.8223 4.7292 10.8223 5.91393V9.3806C10.8223 9.4924 10.8582 9.60073 10.8748 9.7056C10.0407 9.48516 9.18299 9.37595 8.32235 9.3806C6.82818 9.3806 5.47401 9.6718 4.41568 10.2204C3.35818 10.769 2.48901 11.6625 2.48901 12.8473V19.7806C2.48901 20.9653 3.35818 21.8589 4.41651 22.4075C5.47401 22.9561 6.82818 23.2473 8.32235 23.2473C9.81651 23.2473 11.1707 22.9561 12.229 22.4075C13.2857 21.8589 14.1557 20.9653 14.1557 19.7806V19.4287C14.9709 19.6579 15.8112 19.7762 16.6557 19.7806C18.1498 19.7806 19.504 19.4894 20.5623 18.9408C21.619 18.3922 22.489 17.4987 22.489 16.3139V5.91393C22.489 4.7292 21.6198 3.83567 20.5615 3.28707C19.5048 2.73847 18.1507 2.44727 16.6557 2.44727ZM16.6557 4.1806C17.9248 4.1806 19.0548 4.46487 19.8065 4.85747C20.559 5.25007 20.8223 5.66347 20.8223 5.91393C20.8223 6.16527 20.559 6.5778 19.8065 6.9704C19.0557 7.363 17.9248 7.64727 16.6557 7.64727C15.3865 7.64727 14.2565 7.363 13.5048 6.9704C12.7523 6.5778 12.489 6.1644 12.489 5.91393C12.489 5.6626 12.7523 5.25007 13.5048 4.85747C14.2557 4.46487 15.3865 4.1806 16.6557 4.1806ZM12.489 8.37873C12.5765 8.429 12.6582 8.494 12.7498 8.5408C13.8073 9.0894 15.1615 9.3806 16.6557 9.3806C18.1498 9.3806 19.504 9.0894 20.5623 8.5408C20.6532 8.494 20.7348 8.429 20.8223 8.37873V9.3806C20.8223 9.63193 20.559 10.0445 19.8065 10.4371C19.0548 10.8297 17.9248 11.1139 16.6557 11.1139C15.3865 11.1139 14.2565 10.8297 13.5048 10.4371C12.7523 10.0445 12.489 9.63107 12.489 9.3806V8.37873ZM8.32235 11.1139C9.59151 11.1139 10.7215 11.3982 11.4732 11.7908C12.2257 12.1834 12.489 12.5968 12.489 12.8473C12.489 13.0986 12.2257 13.5111 11.4732 13.9037C10.7215 14.2963 9.59151 14.5806 8.32235 14.5806C7.05318 14.5806 5.92318 14.2963 5.17151 13.9037C4.41901 13.5111 4.15568 13.0977 4.15568 12.8473C4.15568 12.5959 4.41901 12.1834 5.17151 11.7908C5.92235 11.3982 7.05318 11.1139 8.32235 11.1139ZM20.8223 11.8454V12.8473C20.8223 13.0986 20.559 13.5111 19.8065 13.9037C19.0548 14.2963 17.9248 14.5806 16.6557 14.5806C15.8068 14.5854 14.9627 14.4481 14.1557 14.1741V12.8473C14.1557 12.7355 14.1198 12.6271 14.1032 12.5223C14.8782 12.732 15.7373 12.8473 16.6557 12.8473C18.1498 12.8473 19.504 12.5561 20.5623 12.0075C20.6532 11.9607 20.7348 11.8957 20.8223 11.8454ZM4.15568 15.3121C4.24318 15.3623 4.32485 15.4273 4.41651 15.4741C5.47401 16.0227 6.82818 16.3139 8.32235 16.3139C9.81651 16.3139 11.1707 16.0227 12.229 15.4741C12.3198 15.4273 12.4015 15.3623 12.489 15.3121V16.3139C12.489 16.5653 12.2257 16.9778 11.4732 17.3704C10.7215 17.763 9.59151 18.0473 8.32235 18.0473C7.05318 18.0473 5.92318 17.763 5.17151 17.3704C4.41901 16.9778 4.15568 16.5644 4.15568 16.3139V15.3121ZM20.8223 15.3121V16.3139C20.8223 16.5653 20.559 16.9778 19.8065 17.3704C19.0548 17.763 17.9248 18.0473 16.6557 18.0473C15.7082 18.0473 14.8523 17.9086 14.1557 17.6677V15.9889C14.9207 16.1987 15.754 16.3139 16.6557 16.3139C18.1498 16.3139 19.504 16.0227 20.5623 15.4741C20.6532 15.4273 20.7348 15.3623 20.8223 15.3121ZM4.15568 18.7787C4.24318 18.829 4.32485 18.894 4.41651 18.9408C5.47401 19.4894 6.82818 19.7806 8.32235 19.7806C9.81651 19.7806 11.1707 19.4894 12.229 18.9408C12.3198 18.894 12.4015 18.829 12.489 18.7787V19.7806C12.489 20.0319 12.2257 20.4445 11.4732 20.8371C10.7215 21.2297 9.59151 21.5139 8.32235 21.5139C7.05318 21.5139 5.92318 21.2297 5.17151 20.8371C4.41901 20.4445 4.15568 20.0311 4.15568 19.7806V18.7787Z" fill="#4048FF"/>
</svg>
