<svg width="25" height="25" viewBox="0 0 25 25" fill="none" xmlns="http://www.w3.org/2000/svg">
<path fill-rule="evenodd" clip-rule="evenodd" d="M7.50293 18.0977C7.50293 17.6834 7.83872 17.3477 8.25293 17.3477H21.7529C22.1671 17.3477 22.5029 17.6834 22.5029 18.0977C22.5029 18.5119 22.1671 18.8477 21.7529 18.8477H8.25293C7.83872 18.8477 7.50293 18.5119 7.50293 18.0977Z" fill="#4048FF"/>
<path fill-rule="evenodd" clip-rule="evenodd" d="M7.50293 12.0977C7.50293 11.6834 7.83872 11.3477 8.25293 11.3477H21.7529C22.1671 11.3477 22.5029 11.6834 22.5029 12.0977C22.5029 12.5119 22.1671 12.8477 21.7529 12.8477H8.25293C7.83872 12.8477 7.50293 12.5119 7.50293 12.0977Z" fill="#4048FF"/>
<path fill-rule="evenodd" clip-rule="evenodd" d="M7.50293 6.09766C7.50293 5.68344 7.83872 5.34766 8.25293 5.34766H21.7529C22.1671 5.34766 22.5029 5.68344 22.5029 6.09766C22.5029 6.51187 22.1671 6.84766 21.7529 6.84766H8.25293C7.83872 6.84766 7.50293 6.51187 7.50293 6.09766Z" fill="#4048FF"/>
<path fill-rule="evenodd" clip-rule="evenodd" d="M3.00293 7.59766C3.83136 7.59766 4.50293 6.92608 4.50293 6.09766C4.50293 5.26923 3.83136 4.59766 3.00293 4.59766C2.1745 4.59766 1.50293 5.26923 1.50293 6.09766C1.50293 6.92608 2.1745 7.59766 3.00293 7.59766Z" fill="#4048FF"/>
<path fill-rule="evenodd" clip-rule="evenodd" d="M3.00293 13.5977C3.83136 13.5977 4.50293 12.9261 4.50293 12.0977C4.50293 11.2692 3.83136 10.5977 3.00293 10.5977C2.1745 10.5977 1.50293 11.2692 1.50293 12.0977C1.50293 12.9261 2.1745 13.5977 3.00293 13.5977Z" fill="#4048FF"/>
<path fill-rule="evenodd" clip-rule="evenodd" d="M3.00293 19.5977C3.83136 19.5977 4.50293 18.9261 4.50293 18.0977C4.50293 17.2692 3.83136 16.5977 3.00293 16.5977C2.1745 16.5977 1.50293 17.2692 1.50293 18.0977C1.50293 18.9261 2.1745 19.5977 3.00293 19.5977Z" fill="#4048FF"/>
</svg>
