<svg width="38" height="28" viewBox="0 0 38 28" fill="none" xmlns="http://www.w3.org/2000/svg">
<path fill-rule="evenodd" clip-rule="evenodd" d="M2.94389 7.20055H24.0134C24.9077 7.20055 25.7649 7.5558 26.3973 8.18761C27.0296 8.82166 27.3849 9.67832 27.3849 10.5732V24.057C27.3849 24.9519 27.0296 25.8086 26.3973 26.4404C25.7649 27.0722 24.9077 27.4274 24.0134 27.4274H3.78649C2.89274 27.4274 2.03496 27.0722 1.40315 26.4404C0.770779 25.8086 0.415527 24.9519 0.415527 24.057V7.20055C0.415527 5.34784 1.91748 3.61655 3.75276 3.35348L20.6778 0.936415C22.5114 0.675597 24.0134 1.97519 24.0134 3.83015V6.35963H21.485C21.8129 4.89219 20.5913 3.54142 19.0984 3.72067L4.33747 5.49289C3.48931 5.59472 2.87361 6.34918 2.94389 7.20055ZM5.12037 9.58738C3.84888 9.58738 2.81798 10.6172 2.81798 11.8898V22.8951C2.81798 24.1654 3.84888 25.1975 5.12037 25.1975H22.8968C24.1683 25.1975 25.1992 24.1654 25.1992 22.8951V11.8898C25.1992 11.1118 24.8147 10.426 24.2262 10.0078C23.8507 9.74253 23.392 9.58738 22.8968 9.58738H5.12037Z" fill="#4048FF"/>
<circle cx="20.4219" cy="17.1805" r="1.76757" fill="#4048FF"/>
<path d="M29.7273 16.45C29.7336 16.4481 29.7399 16.4461 29.7462 16.4442C32.5318 15.5766 34.0867 12.6151 33.219 9.82944C32.3588 7.06739 29.4399 5.51537 26.675 6.33509C26.4239 5.54826 26.1855 4.80541 25.9716 4.14235C29.9561 2.93199 34.1769 5.16244 35.4173 9.14478C36.663 13.1444 34.4305 17.3967 30.4308 18.6424C30.0406 18.764 29.648 18.8524 29.2559 18.9093C29.6605 18.2828 29.8815 17.4735 29.7273 16.45Z" fill="#4048FF"/>
</svg>
