<svg width="32" height="32" viewBox="0 0 32 32" fill="none" xmlns="http://www.w3.org/2000/svg">
<rect width="32" height="32" rx="16" fill="#FF060A"/>
<g clip-path="url(#clip0_7016_60879)">
<path d="M24.8121 13.7238C23.9216 12.9015 22.6898 11.6457 21.6861 10.7551L21.6269 10.7136C21.528 10.6343 21.4166 10.5721 21.2972 10.5296C18.8762 10.0785 7.61742 7.97341 7.39787 8.00001C7.33598 8.00854 7.27681 8.03095 7.22479 8.06557L7.16934 8.11015C7.09976 8.18049 7.04699 8.26567 7.01499 8.35929L7 8.39675V8.64027C8.2678 12.1713 13.2731 23.7351 14.2584 26.4479C14.3179 26.6319 14.4307 26.9821 14.6416 27.0001H14.6888C14.8012 27.0001 15.2827 26.3632 15.2827 26.3632C15.2827 26.3632 23.88 15.9387 24.7499 14.8283C24.8626 14.6916 24.962 14.5444 25.0467 14.3888C25.0683 14.2672 25.0581 14.142 25.017 14.0254C24.9759 13.9089 24.9053 13.805 24.8121 13.7238ZM17.4901 14.9381L21.1578 11.8963L23.3102 13.8793L17.4901 14.9381ZM16.0664 14.7391L9.74615 9.5619L19.9672 11.4467L16.0664 14.7391ZM16.6366 16.0961L23.1022 15.0538L15.7071 23.9599L16.6366 16.0961ZM8.88821 10.0785L15.5352 15.7177L14.5731 23.9659L8.88821 10.0785Z" fill="white"/>
</g>
<defs>
<clipPath id="clip0_7016_60879">
<rect width="18.0579" height="19.0001" fill="white" transform="translate(7 8)"/>
</clipPath>
</defs>
</svg>
