<svg width="22" height="22" viewBox="0 0 22 22" fill="none" xmlns="http://www.w3.org/2000/svg">
<path d="M15.9355 10.5862C17.0728 10.0048 17.7966 8.9706 17.6286 7.25194C17.4088 4.89936 15.4768 4.11123 12.9182 3.89139V0.634521H10.9279V3.80083C10.4107 3.80083 9.88117 3.81395 9.35093 3.82642V0.634521H7.36059V3.89139C6.62889 3.9137 5.77645 3.90254 3.36743 3.89139V6.01101C4.93845 5.98345 5.76333 5.88239 5.95232 6.8897V15.8072C5.83223 16.6065 5.19241 16.4917 3.76839 16.4667L3.36809 18.8318C6.99704 18.8318 7.3619 18.8449 7.3619 18.8449V21.6339H9.35224V18.8836C9.89495 18.8967 10.4245 18.8967 10.9292 18.8967V21.6345H12.9195V18.8455C16.2538 18.6644 18.483 17.8245 18.7803 14.6837C19.0126 12.1638 17.8242 11.039 15.9369 10.5869L15.9355 10.5862ZM9.38965 6.15341C10.5138 6.15341 14.0292 5.8043 14.0292 8.14376C14.0292 10.3795 10.5138 10.121 9.38965 10.121V6.15341ZM9.38965 16.4792V12.1107C10.7336 12.1107 14.8495 11.736 14.8495 14.2946C14.8495 16.7633 10.7336 16.4785 9.38965 16.4785V16.4792Z" fill="#1F2337"/>
</svg>
