<svg width="20" height="18" viewBox="0 0 20 18" fill="none" xmlns="http://www.w3.org/2000/svg">
<path d="M14.9262 5.30127C14.566 5.09557 14.1026 5.09557 13.6908 5.30127L10.8086 7.00005L8.85293 8.08057L6.02201 9.78051C5.66184 9.98622 5.19843 9.98622 4.78663 9.78051L2.57437 8.44229C2.38624 8.33146 2.23028 8.17345 2.12191 7.98388C2.01355 7.79431 1.95653 7.57974 1.95649 7.36139V4.78663C1.95649 4.37484 2.16258 3.96304 2.57437 3.70572L4.78663 2.41912C5.14681 2.21303 5.61022 2.21303 6.02201 2.41912L8.23427 3.75734C8.42246 3.86812 8.57846 4.02611 8.68683 4.2157C8.7952 4.40528 8.85219 4.61987 8.85215 4.83825V6.53664L10.8079 5.40412V3.65449C10.8079 3.2427 10.6022 2.83091 10.1904 2.57359L6.07324 0.155239C5.71307 -0.050851 5.25004 -0.050851 4.83825 0.155239L0.617492 2.62482C0.205701 2.83091 0 3.2427 0 3.65449V8.49236C0 8.90415 0.205701 9.31478 0.617492 9.57326L4.78663 11.9928C5.14681 12.1989 5.61022 12.1989 6.02201 11.9928L8.85293 10.3456L10.8086 9.21348L13.6396 7.56631C13.9997 7.36061 14.4631 7.36061 14.8749 7.56631L17.0872 8.85331C17.2757 8.96419 17.4319 9.12242 17.5403 9.31229C17.6488 9.50217 17.7057 9.7171 17.7055 9.93576V12.509C17.7055 12.9208 17.4998 13.3326 17.088 13.5899L14.9262 14.8769C14.566 15.0826 14.1026 15.0826 13.6908 14.8769L11.4785 13.5899C11.2904 13.479 11.1345 13.321 11.0262 13.1314C10.9179 12.9419 10.861 12.7273 10.861 12.509V10.8603L8.90416 11.9928V13.6912C8.90416 14.103 9.11025 14.5148 9.52204 14.7721L13.6908 17.1912C14.0514 17.3973 14.5144 17.3973 14.9262 17.1912L19.0953 14.7717C19.2834 14.6608 19.4393 14.5028 19.5476 14.3132C19.6559 14.1237 19.7128 13.9091 19.7128 13.6908V8.80052C19.7128 8.38873 19.5071 7.97694 19.0953 7.71962L14.9262 5.30127Z" fill="#1F2337"/>
</svg>
