<svg width="638" height="986" viewBox="0 0 638 986" fill="none" xmlns="http://www.w3.org/2000/svg">
<g clip-path="url(#clip0)">
<path d="M638 0H0V986H638V0Z" fill="url(#paint0_linear)"/>
<path d="M638 0H0V986H638V0Z" fill="url(#paint1_linear)"/>
<g opacity="0.6">
<path opacity="0.6" d="M564.148 502.747C568.764 502.747 572.866 498.643 572.866 494.026C572.866 489.409 568.764 485.305 564.148 485.305C559.532 485.305 555.429 489.409 555.429 494.026C555.429 498.643 559.019 502.747 564.148 502.747Z" stroke="white" stroke-miterlimit="10"/>
<path opacity="0.6" d="M546.711 760.277C549.788 756.686 549.275 751.043 545.685 747.964C542.095 744.886 536.453 745.399 533.376 748.99C530.299 752.582 530.812 758.225 534.402 761.303C538.505 763.868 543.633 763.868 546.711 760.277Z" stroke="white" stroke-miterlimit="10"/>
<path opacity="0.6" d="M499.014 247.783C503.63 247.783 507.733 243.678 507.733 239.061C507.733 234.444 503.63 230.853 499.014 230.853C494.399 230.853 490.296 234.957 490.296 239.574C490.296 244.191 493.886 247.783 499.014 247.783Z" stroke="white" stroke-miterlimit="10"/>
<path opacity="0.6" d="M243.609 298.057C248.225 298.057 252.328 293.953 252.328 289.336C252.328 284.719 248.225 280.615 243.609 280.615C238.994 280.615 234.891 284.719 234.891 289.336C234.891 293.953 238.481 298.057 243.609 298.057Z" stroke="white" stroke-miterlimit="10"/>
<path opacity="0.6" d="M166.167 813.116C170.783 813.116 174.886 809.012 174.886 804.395C174.886 799.778 170.783 795.674 166.167 795.674C161.552 795.674 157.449 799.778 157.449 804.395C157.449 809.012 161.552 813.116 166.167 813.116Z" stroke="white" stroke-miterlimit="10"/>
<path opacity="0.6" d="M105.137 441.186C109.753 441.186 113.855 437.082 113.855 432.465C113.855 427.848 109.753 423.744 105.137 423.744C100.521 423.744 96.4181 427.848 96.4181 432.465C96.4181 437.082 100.521 441.186 105.137 441.186Z" stroke="white" stroke-miterlimit="10"/>
<path opacity="0.6" d="M64.1078 625.356C64.1078 621.765 66.6721 619.2 70.2621 619.2C73.8522 619.2 76.4165 621.765 76.4165 625.356C76.4165 628.947 73.8522 631.512 70.2621 631.512C66.6721 632.025 64.1078 628.947 64.1078 625.356Z" stroke="white" stroke-miterlimit="10"/>
<path opacity="0.6" d="M73.3394 778.232C73.3394 776.693 74.8779 775.154 76.4165 775.154C77.9551 775.154 79.4937 776.693 79.4937 778.232C79.4937 779.771 77.9551 781.31 76.4165 781.31C74.8779 781.31 73.3394 779.771 73.3394 778.232Z" stroke="white" stroke-miterlimit="10"/>
<path opacity="0.6" d="M37.9519 380.138C37.9519 378.599 39.4905 377.06 41.0291 377.06C42.5677 377.06 44.1062 378.599 44.1062 380.138C44.1062 381.677 42.5677 383.216 41.0291 383.216C38.9776 382.703 37.9519 381.677 37.9519 380.138Z" stroke="white" stroke-miterlimit="10"/>
<path opacity="0.6" d="M51.2863 486.331C51.2863 484.792 52.8248 483.253 54.3634 483.253C55.902 483.253 57.4406 484.792 57.4406 486.331C57.4406 487.87 55.902 489.409 54.3634 489.409C52.8248 489.409 51.2863 487.87 51.2863 486.331Z" stroke="white" stroke-miterlimit="10"/>
<path opacity="0.6" d="M560.045 797.726C559.019 796.187 559.532 794.135 560.558 793.109C562.097 792.083 564.148 792.596 565.174 793.622C566.2 795.161 565.687 797.213 564.661 798.239C563.122 799.265 561.071 799.265 560.045 797.726Z" stroke="white" stroke-miterlimit="10"/>
<path opacity="0.6" d="M545.172 659.727C544.146 658.188 544.659 656.136 545.685 655.11C547.224 654.084 549.275 654.597 550.301 655.623C551.326 657.162 550.814 659.214 549.788 660.24C548.249 661.266 546.198 661.266 545.172 659.727Z" stroke="white" stroke-miterlimit="10"/>
<path opacity="0.6" d="M234.378 217.002C233.352 215.463 233.865 213.411 234.891 212.385C236.429 211.359 238.481 211.872 239.507 212.898C240.532 214.437 240.019 216.489 238.994 217.515C236.942 218.541 235.404 218.541 234.378 217.002Z" stroke="white" stroke-miterlimit="10"/>
<path opacity="0.6" d="M600.561 619.2C600.561 617.661 602.1 616.122 603.638 616.122C605.177 616.122 606.715 617.661 606.715 619.2C606.715 620.739 605.177 622.278 603.638 622.278C601.587 622.278 600.561 621.252 600.561 619.2Z" stroke="white" stroke-miterlimit="10"/>
<path opacity="0.6" d="M578.508 296.005C580.047 296.005 581.585 294.466 581.585 292.927C581.585 291.388 580.047 289.849 578.508 289.849C576.97 289.849 575.431 291.388 575.431 292.927C575.431 294.466 576.97 296.005 578.508 296.005Z" stroke="white" stroke-miterlimit="10"/>
<path opacity="0.6" d="M572.867 370.391C572.867 366.287 575.944 363.722 579.534 363.722C583.637 363.722 586.201 366.8 586.201 370.391C586.201 374.495 583.124 377.06 579.534 377.06C576.457 377.06 572.867 373.982 572.867 370.391Z" stroke="white" stroke-miterlimit="10"/>
<path opacity="0.6" d="M98.4696 271.894C98.4696 267.79 101.547 265.225 105.137 265.225C109.24 265.225 111.804 268.303 111.804 271.894C111.804 275.998 108.727 278.563 105.137 278.563C101.547 279.076 98.4696 275.998 98.4696 271.894Z" stroke="white" stroke-miterlimit="10"/>
<path opacity="0.6" d="M459.011 781.31C459.011 777.206 462.089 774.641 465.679 774.641C469.781 774.641 472.346 777.719 472.346 781.31C472.346 785.414 469.269 787.979 465.679 787.979C462.089 788.492 459.011 785.414 459.011 781.31Z" stroke="white" stroke-miterlimit="10"/>
<path opacity="0.6" d="M402.597 274.971C404.135 274.971 405.674 273.432 405.674 271.893C405.674 270.354 404.135 268.815 402.597 268.815C401.058 268.815 399.519 270.354 399.519 271.893C399.519 273.945 401.058 274.971 402.597 274.971Z" stroke="white" stroke-miterlimit="10"/>
<path opacity="0.6" d="M173.347 366.287H167.193C148.217 366.287 133.344 353.975 133.344 337.046V331.403C133.344 311.395 153.346 292.414 177.45 292.414H185.143C209.761 292.414 223.608 311.395 217.966 331.403L216.428 337.046C210.786 353.975 191.81 366.287 173.347 366.287Z" fill="url(#paint2_linear)"/>
<path opacity="0.6" d="M173.347 373.469H167.193C148.217 373.469 133.344 361.157 133.344 344.227V338.584C133.344 318.577 153.346 299.596 177.45 299.596H185.143C209.761 299.596 223.608 318.577 217.966 338.584L215.915 343.714C210.786 360.644 191.81 373.469 173.347 373.469Z" fill="url(#paint3_linear)"/>
<path opacity="0.6" d="M170.783 370.391C152.32 370.391 137.447 358.079 137.96 341.15C138.473 322.168 157.449 304.213 180.527 304.213C203.606 304.213 217.966 322.168 212.325 341.15C207.709 358.079 189.246 370.391 170.783 370.391Z" fill="url(#paint4_linear)"/>
<path opacity="0.6" d="M180.015 316.525C165.142 316.525 152.32 327.299 151.807 340.124C151.807 344.228 152.32 347.819 154.371 350.897L148.73 360.131L159.5 355.514C163.09 358.079 168.219 360.131 173.86 360.131C186.682 360.131 198.99 351.41 201.555 340.124C204.119 327.299 194.888 316.525 180.015 316.525ZM167.193 348.332L166.167 347.306L160.013 340.637L160.526 340.124L167.193 344.228L182.579 332.942L183.092 333.455L168.219 347.306L167.193 348.332ZM178.476 347.306L176.937 348.332L175.912 347.306L173.347 344.741L174.886 343.202L176.937 344.741L192.323 333.455L192.836 333.968L178.476 347.306ZM196.426 329.864C196.426 330.377 196.426 330.377 196.426 329.864C195.913 329.864 195.913 329.864 195.4 329.864C192.836 324.221 186.169 320.629 178.476 320.629C177.963 320.629 177.963 320.629 177.963 320.116C177.963 319.603 178.476 319.603 178.476 319.603C186.682 319.603 193.349 323.707 196.426 329.864C196.939 329.864 196.939 329.351 196.426 329.864ZM195.4 345.767C194.888 345.767 194.888 345.254 194.888 345.254C195.913 343.715 196.426 342.176 196.939 340.124C196.939 339.611 197.452 339.611 197.452 339.611C197.965 339.611 197.965 339.611 197.965 340.124C197.452 342.176 196.939 343.715 195.913 345.254C195.913 345.254 195.4 345.767 195.4 345.767Z" fill="white"/>
<path opacity="0.6" d="M476.448 466.323L469.268 464.271C447.215 458.628 431.317 435.03 431.317 410.919V403.224C431.317 379.625 447.215 360.131 469.268 360.131H476.448C502.092 360.131 525.17 384.755 525.17 414.51V423.744C525.17 454.011 502.092 472.993 476.448 466.323Z" fill="url(#paint5_linear)"/>
<path opacity="0.6" d="M469.781 470.428L462.601 468.376C440.548 462.733 424.65 439.134 424.65 415.023V407.328C424.65 383.729 440.548 364.235 462.601 364.235H469.781C495.424 364.235 518.503 388.86 518.503 418.614V427.848C518.503 458.116 495.424 477.097 469.781 470.428Z" fill="url(#paint6_linear)"/>
<path opacity="0.6" d="M466.191 463.759C444.651 458.628 428.752 435.543 428.752 411.945C428.752 388.859 444.651 369.878 466.191 369.878C490.296 370.391 512.349 393.989 512.349 422.718C512.349 451.446 490.296 469.402 466.191 463.759Z" fill="url(#paint7_linear)"/>
<path opacity="0.6" d="M481.064 389.372L452.344 387.833C447.215 387.32 442.6 392.45 442.6 398.606V429.387C442.6 435.543 446.702 441.699 452.344 442.725L467.217 445.803V419.127L463.114 418.614V411.432L467.217 411.945V407.84C467.217 400.145 472.858 394.502 479.526 395.015L484.141 395.528V403.223L479.526 402.71C476.448 402.71 473.884 404.762 473.884 408.353V412.458L482.603 413.484L481.064 420.666L474.397 419.64V446.316L481.577 447.855C488.244 449.394 493.373 444.264 493.373 437.595V403.223C492.86 396.041 487.731 389.885 481.064 389.372Z" fill="white"/>
<path opacity="0.6" d="M313.872 595.601L300.537 592.01C261.56 581.75 232.839 539.683 232.839 497.104V483.766C232.839 441.186 261.56 406.302 300.537 406.302H313.872C359.516 406.302 401.058 450.42 401.058 503.773V520.702C401.058 574.568 359.516 607.4 313.872 595.601Z" fill="url(#paint8_linear)"/>
<path opacity="0.6" d="M301.563 602.783L288.228 599.192C249.251 588.932 220.531 546.866 220.531 504.286V490.948C220.531 448.368 249.251 413.484 288.228 413.484H301.563C347.207 413.484 388.749 457.602 388.749 510.955V527.884C388.749 581.75 347.207 614.583 301.563 602.783Z" fill="url(#paint9_linear)"/>
<path opacity="0.6" d="M294.896 590.984C256.431 581.75 227.711 540.197 227.711 498.643C227.711 457.089 256.431 423.231 294.896 423.744C337.976 424.257 377.466 466.837 377.466 518.137C377.466 569.438 337.976 601.758 294.896 590.984Z" fill="url(#paint10_linear)"/>
<path opacity="0.6" d="M322.077 458.116L270.791 455.037C261.047 454.524 253.354 463.246 253.354 474.019V528.911C253.354 540.197 261.047 550.97 270.791 552.509L297.46 557.639V510.442L290.28 509.416V496.591L297.46 497.617V490.948C297.46 477.61 307.204 467.35 319.513 468.376L327.719 468.889V482.74L319.513 482.227C313.871 481.714 309.256 486.331 309.256 492.487V499.669L324.642 501.721L322.077 515.059L309.769 513.52V561.743L322.59 564.308C333.873 566.36 343.617 558.152 343.617 545.84V482.74C343.105 469.915 333.36 459.142 322.077 458.116Z" fill="white"/>
<path opacity="0.6" d="M112.317 638.181L107.188 642.285C88.2122 658.188 57.4405 648.954 44.619 616.635L40.5161 606.374C27.1817 574.055 44.1061 545.84 69.2363 544.301H74.365C92.3151 543.275 110.265 558.152 118.471 577.646L121.035 583.802C128.728 602.783 126.164 626.382 112.317 638.181Z" fill="url(#paint11_linear)"/>
<path opacity="0.6" d="M118.984 635.616L113.855 639.72C94.8796 655.623 64.1078 646.389 51.2863 614.07L47.1834 603.81C33.849 571.49 49.7477 543.275 74.3651 541.736L81.0323 541.223C98.9824 540.197 116.933 555.074 125.138 574.568L127.703 580.724C134.883 600.218 132.318 623.817 118.984 635.616Z" fill="url(#paint12_linear)"/>
<path opacity="0.6" d="M114.368 632.538C96.4181 646.389 67.6978 636.642 55.902 606.374C44.1062 576.107 57.4406 548.917 80.0065 546.865C97.9567 545.326 115.907 559.691 123.6 579.185C131.293 598.166 128.215 621.251 114.368 632.538Z" fill="url(#paint13_linear)"/>
<path opacity="0.6" d="M110.265 576.107C105.65 567.386 96.931 561.743 89.7509 564.821C85.648 566.36 83.0837 570.464 82.058 575.594C81.5452 578.159 82.058 581.237 82.5709 583.802C82.5709 583.802 83.0837 583.802 83.5966 583.802C84.6223 583.802 85.648 583.802 87.1866 583.802C89.7509 583.802 92.3152 583.802 94.8796 585.854C97.4439 587.906 98.9825 590.472 100.008 594.063C100.008 595.602 100.521 596.628 100.008 598.167C101.034 599.706 101.547 601.245 101.547 603.297C101.547 603.81 101.547 604.323 101.547 604.836C101.547 604.836 101.547 604.836 101.547 605.349C101.547 606.375 100.521 609.453 97.4439 612.018C95.9053 613.557 93.341 614.583 89.7509 615.096C89.7509 616.635 89.7509 618.687 89.7509 620.226C89.7509 623.304 89.2381 626.895 88.2124 630.486C121.548 601.758 111.804 579.698 111.804 579.698C111.291 577.646 110.778 577.133 110.265 576.107ZM94.3667 620.226L102.572 610.992C100.521 613.557 97.9567 616.635 94.3667 620.226ZM105.137 607.401L107.701 602.784C106.675 604.323 106.163 605.862 105.137 607.401ZM101.034 573.542C101.034 574.568 101.547 575.594 101.547 576.107C101.547 577.133 101.547 577.646 101.034 578.672C100.521 579.185 100.008 579.698 99.4953 580.211C98.9825 580.724 97.9567 580.724 97.4439 580.724C95.9053 580.724 94.3667 579.698 92.8281 578.672C94.3667 579.698 95.9053 579.698 96.931 579.698C97.9567 579.698 98.9825 578.672 99.4953 577.646C100.008 576.62 100.008 575.081 100.008 573.542C100.008 572.003 98.9825 570.464 97.9567 568.925C98.9825 569.951 100.521 571.49 101.034 573.542ZM110.265 595.089L108.214 577.133C108.727 578.159 109.24 579.185 109.24 579.698C109.24 579.185 112.317 585.854 110.265 595.089Z" fill="white"/>
<path opacity="0.6" d="M109.24 568.412C109.24 569.438 109.24 569.951 108.727 570.464C109.24 570.977 109.753 572.003 110.265 572.516C111.291 570.977 112.83 570.977 112.83 570.977C111.291 569.438 109.753 568.925 109.24 568.412Z" fill="white"/>
<path opacity="0.6" d="M108.214 567.899C108.214 566.36 107.701 563.795 105.65 560.204C105.65 560.204 105.65 563.282 103.598 565.334C104.624 565.847 105.65 566.873 106.675 567.899C107.188 568.412 107.701 568.925 108.214 569.438C108.214 569.438 108.214 568.925 108.214 567.899Z" fill="white"/>
<path opacity="0.6" d="M87.1867 607.913C87.1867 608.426 86.6738 608.939 86.6738 608.939C86.161 609.452 85.6481 610.478 85.1353 610.991C98.4697 609.965 98.9825 602.783 98.9825 602.783C98.9825 602.783 98.9825 602.27 98.9825 601.757C98.9825 600.218 98.4697 599.192 97.4439 598.166C97.4439 597.14 97.4439 596.114 97.4439 594.575C96.9311 592.523 95.3925 589.958 93.8539 588.932C91.2896 586.88 88.2124 587.906 85.1353 587.393C82.5709 586.88 79.4938 585.854 76.9295 584.315C75.9037 583.802 74.878 582.776 73.8523 581.75C75.3909 590.471 77.9552 595.601 80.5195 599.192C80.0066 599.192 79.4938 599.192 78.9809 599.192C77.9552 599.192 76.9295 599.192 75.9037 599.192C80.0066 605.348 84.1095 607.4 87.1867 607.913Z" fill="white"/>
<path opacity="0.6" d="M315.923 772.076H305.153C271.817 772.076 249.764 746.938 255.918 721.801L257.457 715.132C262.072 695.637 284.125 681.786 306.691 681.786H313.871C336.95 681.786 358.49 695.637 363.106 715.132L364.645 721.801C371.312 746.938 349.772 772.076 315.923 772.076Z" fill="url(#paint14_linear)"/>
<path opacity="0.6" d="M315.923 763.867H305.153C271.817 763.867 249.764 738.73 255.918 713.593L257.457 706.924C262.072 687.429 284.125 673.578 306.691 673.578H313.871C336.95 673.578 358.49 687.429 363.106 706.924L364.645 713.593C371.312 738.73 349.772 763.867 315.923 763.867Z" fill="url(#paint15_linear)"/>
<path opacity="0.6" d="M310.794 756.685C278.997 756.685 257.969 733.6 263.098 710.002C267.201 690.507 288.228 676.656 310.794 676.656C333.36 676.656 354.9 690.507 358.49 710.002C363.619 733.6 342.592 756.685 310.794 756.685Z" fill="url(#paint16_linear)"/>
<path opacity="0.6" d="M334.386 707.95C334.386 707.437 334.386 706.411 334.386 705.898C334.386 698.716 327.206 693.073 318.487 692.56C312.333 692.047 306.691 694.612 303.614 698.716C302.076 698.203 301.05 698.203 299.511 698.203C292.844 698.203 287.203 702.307 286.69 707.95V708.463C280.535 708.463 274.894 713.08 273.868 718.21C272.842 723.853 277.971 728.983 285.151 728.983H335.924C343.104 728.983 348.233 723.853 347.207 718.21C346.182 712.054 340.54 707.95 334.386 707.95ZM293.357 703.333C290.793 704.872 289.254 707.437 288.741 710.002C288.741 710.515 288.228 710.515 287.715 710.515C287.203 710.515 286.69 710.002 286.69 710.002C287.203 706.924 288.741 704.359 291.818 702.307C294.383 700.255 297.973 699.229 301.563 699.742C303.101 699.742 305.153 700.255 306.691 700.768C307.204 700.768 307.204 701.281 307.204 701.794C307.204 702.307 306.691 702.307 306.178 702.307C304.64 701.794 303.614 701.794 301.563 701.281C298.998 700.768 295.921 701.794 293.357 703.333ZM312.846 713.08V720.775H307.717V713.08H303.101L309.768 702.82L316.948 713.08H312.846ZM333.36 708.463C333.36 708.976 332.847 708.976 332.334 708.976C331.821 708.976 331.309 708.463 331.309 707.95C331.309 706.411 331.309 704.359 330.283 702.82C330.283 702.307 330.283 702.307 330.796 701.794C331.309 701.794 331.821 701.794 331.821 702.307C333.36 704.872 333.873 706.411 333.36 708.463Z" fill="white"/>
<path opacity="0.6" d="M517.478 686.404L513.375 682.3C501.579 671.526 500.553 649.98 508.759 633.564L511.323 628.434C519.529 611.505 536.966 599.705 552.865 602.27L558.507 603.296C580.047 606.887 591.843 632.538 578.508 659.727L574.405 668.448C561.071 694.612 533.376 701.281 517.478 686.404Z" fill="url(#paint17_linear)"/>
<path opacity="0.6" d="M510.81 682.299L506.708 678.195C494.912 667.422 493.886 645.876 502.092 629.46L504.656 624.33C512.862 607.4 530.299 595.601 546.198 598.166L551.839 599.192C573.38 602.783 585.175 628.434 571.841 655.623L567.738 664.344C554.404 690.507 526.709 697.177 510.81 682.299Z" fill="url(#paint18_linear)"/>
<path opacity="0.6" d="M510.81 675.63C499.014 664.857 497.476 644.337 505.682 627.408C513.887 610.478 531.325 599.192 546.711 602.27C566.712 605.861 576.457 630.999 564.148 656.136C551.839 681.786 525.683 688.968 510.81 675.63Z" fill="url(#paint19_linear)"/>
<path opacity="0.6" d="M548.762 649.98C549.788 647.415 549.275 644.85 547.223 643.824L534.402 638.181L539.018 632.538L541.069 628.434C542.095 626.382 542.608 623.816 541.069 622.79C539.531 621.764 536.966 622.277 535.94 624.329L533.889 628.434L522.093 638.694L515.426 652.032L516.965 653.058L517.477 655.11L522.093 658.188L531.838 664.344C533.889 665.37 536.453 664.344 537.479 662.292C537.479 661.779 537.479 661.779 537.992 661.266C539.018 661.266 540.556 660.24 541.069 658.701C541.069 658.188 541.582 657.675 541.582 657.162C543.121 657.162 544.659 656.136 545.685 654.597C545.685 654.084 545.685 654.084 546.198 653.571C546.198 652.545 547.736 651.519 548.762 649.98ZM539.018 624.329C539.018 624.329 537.992 623.817 536.966 624.843L534.915 629.46L523.632 639.207C523.632 639.207 523.632 639.207 523.119 639.207V638.694L533.889 629.46L535.94 624.843C536.966 623.303 538.505 623.303 539.018 623.816V624.329C539.531 624.329 539.531 624.329 539.018 624.329ZM543.633 647.415L534.402 642.798V642.285L534.915 641.772L544.146 646.389C544.146 646.389 544.659 646.902 544.146 646.902C544.146 647.415 543.633 647.415 543.633 647.415Z" fill="white"/>
<path opacity="0.6" d="M519.529 633.564L514.913 631.512C514.401 630.999 513.375 631.512 512.862 632.538L506.708 646.389C506.195 647.415 506.195 648.441 506.708 648.954L510.811 651.519C511.323 652.032 512.349 651.519 512.862 650.493L520.042 636.129C520.555 635.103 520.555 634.077 519.529 633.564ZM508.246 648.441C507.733 647.928 507.22 646.902 507.733 645.876L512.862 634.59C513.375 633.564 514.401 633.051 514.913 633.564V634.077C514.913 634.077 514.401 634.59 514.401 634.077C513.888 634.077 513.375 634.077 513.375 634.59L508.246 646.389C508.246 646.902 508.246 647.928 508.246 647.928V648.441C508.759 648.441 508.246 648.954 508.246 648.441ZM511.323 650.493C510.81 650.493 510.81 649.98 511.323 648.954C511.323 648.441 511.836 648.441 512.349 648.441C512.862 648.441 512.862 648.954 512.349 649.98C511.836 650.493 511.323 650.493 511.323 650.493Z" fill="white"/>
<path opacity="0.6" d="M312.333 300.109C324.129 299.083 332.847 288.823 332.335 277.024C331.309 265.224 321.052 256.503 309.256 257.016C297.46 258.042 288.741 268.302 289.254 280.102C290.28 292.414 300.537 301.135 312.333 300.109Z" fill="#EF0760"/>
<path opacity="0.6" d="M310.794 298.57C321.564 298.57 330.283 289.849 330.283 279.076C330.283 268.303 321.564 259.582 310.794 259.582C300.024 259.582 291.306 268.303 291.306 279.076C291.306 289.849 300.024 298.57 310.794 298.57Z" fill="url(#paint20_linear)"/>
<path opacity="0.6" d="M324.129 271.38C325.667 273.432 326.18 275.997 326.18 279.076" stroke="white" stroke-width="1.5309" stroke-miterlimit="10" stroke-linecap="round" stroke-linejoin="round"/>
<path opacity="0.6" d="M295.921 279.076C295.921 270.867 302.589 263.685 311.307 263.685C313.359 263.685 315.41 264.198 316.949 264.711" stroke="white" stroke-width="1.5309" stroke-miterlimit="10" stroke-linecap="round" stroke-linejoin="round"/>
<path opacity="0.6" d="M310.281 289.849C308.23 289.849 306.691 288.823 305.666 287.284C304.64 285.745 304.127 284.206 304.64 282.667C304.64 281.128 305.666 280.102 306.691 279.076C307.204 279.076 307.717 278.563 307.717 278.563V282.154L320.026 275.485L307.717 269.329V273.433C305.666 273.946 304.127 274.972 303.101 276.511C301.563 278.563 300.537 281.128 301.05 283.18C301.05 285.232 302.588 287.797 304.127 288.823C305.666 290.362 308.23 290.875 309.769 290.362C310.281 290.362 310.281 290.362 310.281 289.849C310.281 289.849 310.794 289.849 310.281 289.849Z" fill="white"/>
<path opacity="0.6" d="M496.45 344.741C490.296 349.871 481.065 349.358 475.936 343.715C470.807 338.072 471.32 328.325 476.962 323.194C483.116 318.064 492.347 318.577 497.476 324.221C503.118 329.864 502.605 339.098 496.45 344.741Z" fill="#EF0760"/>
<path opacity="0.6" d="M495.937 343.202C490.296 347.819 482.09 347.819 477.474 342.176C472.859 336.533 472.859 328.325 478.5 323.708C484.142 319.091 492.347 319.091 496.963 324.734C501.579 330.377 501.066 338.585 495.937 343.202Z" fill="url(#paint21_linear)"/>
<path opacity="0.6" d="M496.963 337.046C496.45 338.585 495.424 340.124 493.886 341.663" stroke="white" stroke-width="1.0428" stroke-miterlimit="10" stroke-linecap="round" stroke-linejoin="round"/>
<path opacity="0.6" d="M480.039 325.759C484.141 322.168 490.809 322.168 494.399 326.785C495.424 327.811 495.937 328.837 496.45 330.376" stroke="white" stroke-width="1.0428" stroke-miterlimit="10" stroke-linecap="round" stroke-linejoin="round"/>
<path opacity="0.6" d="M481.065 338.071C480.552 337.045 480.039 336.019 480.552 334.993C480.552 333.967 481.577 332.941 482.09 332.428C483.116 331.915 484.142 331.915 484.655 331.915C485.167 331.915 485.167 331.915 485.68 332.428L483.629 333.967L492.86 337.045L490.809 327.811L488.757 329.863C487.732 329.35 486.706 328.837 485.167 328.837C483.629 328.837 482.09 329.863 480.552 330.889C479.526 331.915 479.013 333.454 479.013 334.993C479.013 336.532 479.526 337.558 481.065 338.071C481.065 338.584 480.552 338.584 481.065 338.071C481.065 338.584 481.065 338.584 481.065 338.071Z" fill="white"/>
<path opacity="0.6" d="M202.068 751.043C209.761 748.478 213.351 739.757 210.786 732.574C208.222 724.879 199.503 721.288 192.323 723.853C184.63 726.418 181.04 735.139 183.605 742.322C186.169 749.504 194.375 753.608 202.068 751.043Z" fill="#EF0760"/>
<path opacity="0.6" d="M209.248 732.061C211.812 738.73 208.735 746.426 202.068 749.504C195.4 752.069 187.708 748.991 184.63 742.321C182.066 735.652 185.143 727.957 191.81 724.879C198.478 722.314 206.683 725.392 209.248 732.061Z" fill="url(#paint22_linear)"/>
<path opacity="0.6" d="M203.093 728.983C204.632 730.009 205.658 731.548 206.17 733.087" stroke="white" stroke-width="1.0428" stroke-miterlimit="10" stroke-linecap="round" stroke-linejoin="round"/>
<path opacity="0.6" d="M187.195 741.295C185.143 736.165 187.707 730.009 192.836 727.957C193.862 727.444 195.4 727.444 196.939 727.444" stroke="white" stroke-width="1.0428" stroke-miterlimit="10" stroke-linecap="round" stroke-linejoin="round"/>
<path opacity="0.6" d="M199.503 744.373C198.478 744.886 196.939 744.373 195.913 743.86C194.888 743.347 194.375 742.321 193.862 741.295C193.862 740.269 193.862 739.243 194.375 738.73L194.888 738.217L195.913 740.269L202.068 732.574L192.836 731.548L193.862 734.113C192.836 735.139 192.323 736.165 191.81 737.191C191.298 738.73 191.298 740.782 192.323 741.808C193.349 742.834 194.375 744.373 195.913 744.886C197.452 745.399 198.99 744.886 200.016 744.373C200.016 744.886 200.016 744.886 199.503 744.373Z" fill="white"/>
<path opacity="0.6" d="M180.527 593.036C186.682 587.906 187.195 578.672 181.553 572.516C176.424 566.36 167.193 565.847 161.039 571.49C154.884 576.62 154.371 585.854 160.013 592.01C165.141 598.166 174.373 598.679 180.527 593.036Z" fill="#EF0760"/>
<path opacity="0.6" d="M180.015 572.516C185.143 577.646 185.656 585.854 180.527 590.984C175.399 596.114 167.193 596.628 162.064 591.497C156.936 586.367 156.423 578.159 161.552 573.029C166.167 567.899 174.373 567.899 180.015 572.516Z" fill="url(#paint23_linear)"/>
<path opacity="0.6" d="M173.347 572.516C174.886 573.029 176.937 573.542 177.963 575.081" stroke="white" stroke-width="1.0428" stroke-miterlimit="10" stroke-linecap="round" stroke-linejoin="round"/>
<path opacity="0.6" d="M163.603 589.958C159.5 585.854 158.987 579.698 163.09 575.594C164.116 574.568 165.142 574.055 166.167 573.542" stroke="white" stroke-width="1.0428" stroke-miterlimit="10" stroke-linecap="round" stroke-linejoin="round"/>
<path opacity="0.6" d="M175.912 587.906C174.886 588.932 173.86 588.932 172.834 588.932C171.809 588.932 170.783 588.419 170.27 587.393C169.757 586.88 169.244 585.341 169.757 584.828C169.757 584.315 169.757 584.315 169.757 583.802L171.296 585.341L173.86 576.107L164.629 579.185L166.68 581.237C166.167 582.263 166.167 583.802 166.167 584.828C166.167 586.367 167.193 587.906 168.219 588.932C169.244 589.958 170.783 590.471 172.834 589.958C173.86 589.958 175.399 589.445 175.912 587.906C176.424 587.906 176.424 588.419 175.912 587.906C175.912 587.906 176.424 587.906 175.912 587.906Z" fill="white"/>
<path opacity="0.6" d="M504.656 712.054C499.015 717.697 489.783 717.697 484.142 712.054C478.5 706.411 478.5 697.177 484.142 691.534C489.783 685.891 499.015 685.891 504.656 691.534C510.297 697.177 510.297 706.411 504.656 712.054Z" fill="#EF0760"/>
<path opacity="0.6" d="M503.63 711.028C498.502 716.158 490.296 716.158 485.167 711.028C480.039 705.898 480.039 697.69 485.167 692.56C490.296 687.43 498.502 687.43 503.63 692.56C508.759 697.69 508.759 705.898 503.63 711.028Z" fill="url(#paint24_linear)"/>
<path opacity="0.6" d="M504.143 704.359C503.63 705.898 502.604 707.437 501.579 708.976" stroke="white" stroke-width="1.0428" stroke-miterlimit="10" stroke-linecap="round" stroke-linejoin="round"/>
<path opacity="0.6" d="M486.706 694.612C490.809 690.508 497.476 690.508 501.066 694.612C502.092 695.638 502.605 696.664 503.117 697.69" stroke="white" stroke-width="1.0428" stroke-miterlimit="10" stroke-linecap="round" stroke-linejoin="round"/>
<path opacity="0.6" d="M488.757 706.924C488.244 705.898 487.731 704.872 487.731 703.846C487.731 702.82 488.244 701.794 489.27 701.281C490.296 700.768 491.321 700.255 491.834 700.768C492.347 700.768 492.347 700.768 492.86 700.768L491.321 702.307L500.553 704.872L497.476 695.638L495.424 697.69C494.399 697.177 492.86 696.664 491.834 697.177C490.296 697.177 488.757 698.203 487.731 699.229C486.706 700.255 486.193 701.794 486.193 703.333C486.193 704.872 487.219 706.411 488.757 706.924C488.757 707.437 488.757 707.437 488.757 706.924Z" fill="white"/>
<path opacity="0.6" d="M147.191 442.725C155.91 442.725 163.09 435.543 163.09 426.822C163.09 418.101 155.91 410.919 147.191 410.919C138.473 410.919 131.293 418.101 131.293 426.822C131.293 435.543 138.473 442.725 147.191 442.725Z" fill="#EF0760"/>
<path opacity="0.6" d="M147.191 441.186C154.884 441.186 161.552 435.03 161.552 426.822C161.552 419.127 155.397 412.457 147.191 412.457C139.499 412.457 132.831 418.614 132.831 426.822C132.831 435.03 139.499 441.186 147.191 441.186Z" fill="url(#paint25_linear)"/>
<path opacity="0.6" d="M156.936 421.692C157.962 423.231 158.474 425.283 158.474 427.335" stroke="white" stroke-width="1.1267" stroke-miterlimit="10" stroke-linecap="round" stroke-linejoin="round"/>
<path opacity="0.6" d="M135.908 427.335C135.908 421.179 141.037 416.049 147.191 416.049C148.73 416.049 150.269 416.049 151.294 417.075" stroke="white" stroke-width="1.1267" stroke-miterlimit="10" stroke-linecap="round" stroke-linejoin="round"/>
<path opacity="0.6" d="M146.679 435.03C145.14 435.03 144.114 434.004 143.601 432.978C143.089 431.952 142.576 430.926 142.576 429.9C142.576 428.874 143.089 427.848 144.114 427.335C144.114 427.335 144.627 426.822 145.14 426.822V429.387L154.372 424.257L145.14 419.64V422.718C143.601 423.231 142.576 423.744 142.063 424.77C141.037 426.309 140.524 427.848 140.524 429.9C140.524 431.439 141.55 432.978 142.576 434.004C144.114 435.03 145.653 435.543 146.679 435.03C147.191 435.543 147.191 435.543 146.679 435.03C147.191 435.03 147.191 435.543 146.679 435.03Z" fill="white"/>
<path opacity="0.6" d="M42.5676 273.433C46.6705 275.998 48.2091 281.641 45.1319 285.745C42.5676 289.849 36.9261 291.388 32.8232 288.31C28.7203 285.745 27.1818 280.102 30.2589 275.998C32.8232 271.894 38.4647 270.868 42.5676 273.433Z" fill="#EF0760"/>
<path opacity="0.6" d="M42.0547 273.946C45.6448 276.511 47.1834 281.128 44.6191 285.232C42.0547 288.823 37.439 290.362 33.3361 287.797C29.7461 285.232 28.2075 280.615 30.7718 276.511C33.3361 272.919 38.4647 271.893 42.0547 273.946Z" fill="url(#paint26_linear)"/>
<path opacity="0.6" d="M37.9519 274.459C38.9776 274.459 40.0033 274.972 41.0291 275.485" stroke="white" stroke-width="0.6389" stroke-miterlimit="10" stroke-linecap="round" stroke-linejoin="round"/>
<path opacity="0.6" d="M34.3619 286.258C31.2847 284.206 30.259 280.615 32.3104 277.537C32.8233 277.024 33.3362 275.998 33.849 275.998" stroke="white" stroke-width="0.6389" stroke-miterlimit="10" stroke-linecap="round" stroke-linejoin="round"/>
<path opacity="0.6" d="M41.5419 283.693C41.029 284.206 40.5161 284.719 39.4904 284.719C38.9775 284.719 37.9518 284.719 37.439 284.206C36.9261 283.693 36.9261 283.18 36.9261 282.667V282.154L37.9518 282.667L38.4647 276.51L33.3361 279.589L34.8746 280.615C34.8746 281.128 34.8746 282.154 34.8746 282.667C35.3875 283.693 35.9004 284.719 36.9261 284.719C37.9518 285.232 38.9775 285.232 39.4904 284.719C40.5161 285.232 41.5419 284.206 41.5419 283.693Z" fill="white"/>
<path opacity="0.6" d="M568.251 236.496C569.79 241.113 567.225 246.243 562.609 247.782C557.994 249.321 552.865 246.756 551.326 242.139C549.788 237.522 552.352 232.392 556.968 230.853C561.584 229.314 566.712 231.879 568.251 236.496Z" fill="#EF0760"/>
<path opacity="0.6" d="M567.738 236.496C569.277 240.6 566.712 245.217 562.609 246.756C558.507 248.295 553.891 245.73 552.352 241.626C550.814 237.522 553.378 232.905 557.481 231.366C561.584 230.34 566.199 232.392 567.738 236.496Z" fill="url(#paint27_linear)"/>
<path opacity="0.6" d="M564.148 234.444C565.174 234.957 565.687 235.983 566.199 237.009" stroke="white" stroke-width="0.6389" stroke-miterlimit="10" stroke-linecap="round" stroke-linejoin="round"/>
<path opacity="0.6" d="M553.891 241.113C552.865 238.035 554.404 234.444 557.994 232.905C559.019 232.905 559.532 232.392 560.558 232.392" stroke="white" stroke-width="0.6389" stroke-miterlimit="10" stroke-linecap="round" stroke-linejoin="round"/>
<path opacity="0.6" d="M561.071 243.678C560.558 243.678 559.532 243.678 559.019 243.165C558.506 242.652 557.994 242.139 557.994 241.626C557.994 241.113 557.994 240.6 558.506 240.087C558.506 240.087 558.506 240.087 559.019 239.574V241.113L563.122 236.496L557.481 235.47L557.994 237.009C557.481 237.522 556.968 238.035 556.455 239.061C555.942 240.087 555.942 241.113 556.455 242.139C556.968 243.165 557.481 243.678 558.506 244.191C559.532 244.704 560.558 244.704 561.071 243.678C561.071 244.191 561.071 244.191 561.071 243.678Z" fill="white"/>
<path opacity="0.6" d="M93.3409 812.09C97.4438 809.525 98.4695 803.882 95.9052 799.778C93.3409 795.674 87.6994 794.648 83.5965 797.213C79.4936 799.778 78.4679 805.421 81.0322 809.525C83.5965 813.629 89.238 814.655 93.3409 812.09Z" fill="#EF0760"/>
<path opacity="0.6" d="M96.4181 801.83C97.9567 805.934 95.3924 810.551 91.2895 812.09C87.1866 813.629 82.5708 811.064 81.0323 806.96C79.4937 802.856 82.058 798.239 86.1609 796.7C90.2638 795.161 94.8795 797.726 96.4181 801.83Z" fill="url(#paint28_linear)"/>
<path opacity="0.6" d="M92.828 799.778C93.3409 800.291 94.3666 801.317 94.3666 802.343" stroke="white" stroke-width="0.6389" stroke-miterlimit="10" stroke-linecap="round" stroke-linejoin="round"/>
<path opacity="0.6" d="M82.5708 805.934C81.5451 802.343 83.5965 799.265 86.6737 798.239C87.6994 798.239 88.2123 797.726 89.238 798.239" stroke="white" stroke-width="0.6389" stroke-miterlimit="10" stroke-linecap="round" stroke-linejoin="round"/>
<path opacity="0.6" d="M89.7508 808.499C89.238 808.499 88.2123 808.499 87.6994 807.986C87.1865 807.473 86.6737 806.96 86.6737 806.447C86.6737 805.934 86.6737 805.421 87.1865 804.908C87.1865 804.908 87.1865 804.908 87.6994 804.395L88.2123 805.934L92.3151 801.83L86.6737 800.804L87.1865 802.343C86.6737 802.856 86.1608 803.369 85.648 803.882C85.1351 804.908 85.1351 805.934 85.648 806.96C86.1608 807.986 86.6737 808.499 87.6994 809.012C88.2123 809.525 89.238 809.525 89.7508 808.499C89.7508 809.012 89.7508 809.012 89.7508 808.499C89.7508 808.499 89.7508 809.012 89.7508 808.499Z" fill="white"/>
<path opacity="0.6" d="M516.452 533.014C515.939 538.144 511.836 541.736 507.22 541.222C502.092 540.709 498.502 536.605 499.015 531.988C499.528 526.858 503.63 523.267 508.246 523.78C512.862 523.78 516.452 527.884 516.452 533.014Z" fill="#EF0760"/>
<path opacity="0.6" d="M515.426 533.014C515.426 537.631 511.323 540.71 506.707 540.71C502.092 540.71 499.014 536.605 499.014 531.988C499.014 527.371 503.117 524.293 507.733 524.293C512.349 524.806 515.426 528.397 515.426 533.014Z" fill="url(#paint29_linear)"/>
<path opacity="0.6" d="M512.862 529.423C513.375 530.449 513.375 531.475 513.375 532.501" stroke="white" stroke-width="0.6389" stroke-miterlimit="10" stroke-linecap="round" stroke-linejoin="round"/>
<path opacity="0.6" d="M501.066 531.989C501.066 528.398 504.143 525.833 507.733 525.833C508.759 525.833 509.272 525.833 509.785 526.346" stroke="white" stroke-width="0.6389" stroke-miterlimit="10" stroke-linecap="round" stroke-linejoin="round"/>
<path opacity="0.6" d="M506.707 537.119C506.195 537.119 505.169 536.606 505.169 536.093C504.656 535.58 504.656 535.067 504.656 534.041C504.656 533.528 505.169 533.015 505.682 532.502H506.194V534.041L511.323 531.476L506.194 528.398V529.937C505.682 529.937 504.656 530.45 504.143 530.963C503.63 531.476 503.117 533.015 503.117 533.528C503.117 534.554 503.63 535.58 504.143 536.093C505.169 537.119 506.195 537.632 506.707 537.119C506.707 537.632 506.707 537.632 506.707 537.119Z" fill="white"/>
<path opacity="0.6" d="M409.777 790.031C412.341 794.135 411.315 799.778 407.212 802.343C403.109 804.908 397.468 803.882 394.904 799.778C392.339 795.674 393.365 790.031 397.468 787.466C401.571 784.388 407.212 785.927 409.777 790.031Z" fill="#EF0760"/>
<path opacity="0.6" d="M408.751 790.544C411.315 794.135 410.289 799.265 406.187 801.83C402.597 804.395 397.468 803.369 394.904 799.265C392.339 795.674 393.365 790.544 397.468 787.979C401.571 785.414 406.699 786.44 408.751 790.544Z" fill="url(#paint30_linear)"/>
<path opacity="0.6" d="M405.161 789.005C406.187 789.518 407.212 790.031 407.725 791.057" stroke="white" stroke-width="0.6389" stroke-miterlimit="10" stroke-linecap="round" stroke-linejoin="round"/>
<path opacity="0.6" d="M396.955 798.239C394.904 795.161 395.929 791.57 399.006 789.518C399.519 789.005 400.545 789.005 401.058 788.492" stroke="white" stroke-width="0.6389" stroke-miterlimit="10" stroke-linecap="round" stroke-linejoin="round"/>
<path opacity="0.6" d="M404.135 798.752C403.622 799.265 402.597 799.265 402.084 798.752C401.571 798.752 401.058 798.239 400.545 797.726C400.545 797.213 400.545 796.7 400.545 796.187V795.674L401.571 796.7L404.135 791.57L398.494 792.083L399.519 793.622C399.007 794.135 398.494 795.161 398.494 795.674C398.494 796.7 398.494 797.726 399.007 798.239C399.519 798.752 400.545 799.265 401.571 799.778C403.109 799.778 404.135 799.265 404.135 798.752C404.648 798.752 404.648 798.752 404.135 798.752C404.648 798.752 404.648 798.752 404.135 798.752Z" fill="white"/>
<path opacity="0.6" d="M603.125 808.499C601.074 813.116 595.433 814.655 590.817 812.09C586.201 810.038 584.662 804.395 587.227 799.778C589.278 795.161 594.92 793.622 599.535 796.187C603.638 798.752 605.177 803.882 603.125 808.499Z" fill="#EF0760"/>
<path opacity="0.6" d="M602.1 807.986C600.048 812.09 594.92 813.629 591.33 811.577C587.227 809.525 585.688 804.395 587.74 800.804C589.791 796.7 594.92 795.161 598.51 797.213C602.613 799.265 604.151 803.882 602.1 807.986Z" fill="url(#paint31_linear)"/>
<path opacity="0.6" d="M601.587 803.882C601.587 804.908 601.587 805.934 601.074 806.96" stroke="white" stroke-width="0.6389" stroke-miterlimit="10" stroke-linecap="round" stroke-linejoin="round"/>
<path opacity="0.6" d="M589.278 801.317C590.817 798.239 594.92 797.213 597.997 798.752C598.51 799.265 599.536 799.778 600.048 800.291" stroke="white" stroke-width="0.6389" stroke-miterlimit="10" stroke-linecap="round" stroke-linejoin="round"/>
<path opacity="0.6" d="M592.868 808.5C592.355 807.987 591.843 807.473 591.843 806.447C591.843 805.934 591.843 804.908 592.356 804.395C592.868 803.882 593.381 803.369 593.894 803.369H594.407L593.894 804.908H600.048L596.971 800.291L595.946 801.83C595.433 801.83 594.407 801.83 593.894 801.83C592.868 802.343 592.356 802.856 591.843 803.882C591.33 804.908 591.33 805.934 591.843 806.447C591.33 807.473 591.843 808.5 592.868 808.5Z" fill="white"/>
<path opacity="0.6" d="M150.269 503.26C140.011 435.543 138.986 380.138 148.217 378.599C157.449 377.06 173.347 430.926 183.605 498.13C193.862 565.847 194.888 621.252 185.656 622.791C176.424 624.33 160.526 570.977 150.269 503.26Z" fill="url(#paint32_radial)"/>
<path opacity="0.6" d="M430.804 461.707C420.547 393.99 419.521 338.585 428.752 337.046C437.984 335.507 453.883 389.373 464.14 456.577C474.397 524.294 475.423 579.698 466.191 581.237C456.96 582.776 441.061 528.911 430.804 461.707Z" fill="url(#paint33_radial)"/>
<path opacity="0.6" d="M289.254 380.651C213.351 393.989 151.807 403.223 151.294 401.171C150.781 399.119 212.325 386.807 287.716 373.469C363.619 360.131 425.162 350.897 425.675 352.949C426.188 355.001 364.645 367.313 289.254 380.651Z" fill="url(#paint34_radial)"/>
<path opacity="0.6" d="M618.511 484.792C618.511 486.331 618.511 487.87 618.511 488.896C618.511 490.435 617.998 491.461 616.973 493C615.947 495.565 613.896 498.13 612.357 500.182C608.767 504.286 604.151 507.877 599.023 511.468C589.791 518.137 579.021 523.267 568.764 527.884C547.736 537.119 526.196 544.301 504.143 550.457C482.09 556.613 460.037 561.743 437.471 566.36C414.905 570.977 392.339 574.568 369.773 577.133C347.207 579.698 324.129 581.75 301.05 582.776C277.971 583.802 254.892 583.802 231.814 581.237C220.531 580.211 208.735 578.159 197.452 575.081C191.81 573.542 186.169 571.49 180.527 568.412C177.963 566.873 174.886 564.821 172.322 562.256C169.757 559.691 167.706 556.1 167.193 551.996C166.68 547.892 167.193 543.788 168.732 540.197C170.27 536.606 172.322 534.041 174.373 531.476C178.989 526.858 183.605 522.754 188.22 519.163C197.965 512.494 208.735 507.364 218.992 502.234L224.121 514.033C213.863 518.65 203.606 523.267 194.887 528.91C190.272 531.989 186.169 535.067 182.579 538.658C181.04 540.71 179.502 542.249 178.476 544.301C177.45 546.353 177.45 547.892 177.45 549.431C177.45 550.97 178.476 552.509 180.014 554.048C181.553 555.587 183.092 557.126 185.143 558.665C189.246 561.23 194.375 563.282 199.503 564.821C209.76 567.899 221.043 569.951 232.326 571.49C254.379 574.055 277.458 575.081 300.024 574.568C322.59 574.055 345.669 572.516 368.235 570.464C390.801 568.412 413.367 565.334 435.932 561.23C458.498 557.126 480.551 552.509 502.605 546.866C524.658 541.223 546.711 534.554 567.225 525.832C577.482 521.215 588.252 516.598 597.484 510.442C602.1 507.364 606.715 503.773 610.818 499.669C612.87 497.617 614.408 495.052 615.434 493C615.947 491.461 616.46 490.435 616.973 488.896C618.511 487.357 618.511 486.331 618.511 484.792Z" fill="url(#paint35_linear)"/>
<path opacity="0.6" d="M618.511 460.167C618.511 461.706 618.511 463.245 618.511 464.271C618.511 465.81 617.998 466.836 616.973 468.376C615.947 470.941 613.896 473.506 612.357 475.558C608.767 479.662 604.151 483.253 599.023 486.844C589.791 493.513 579.021 498.643 568.764 503.26C547.736 512.494 526.196 519.676 504.143 525.832C482.09 531.988 460.037 537.118 437.471 541.736C414.905 546.353 392.339 549.944 369.773 552.509C347.207 555.074 324.129 557.126 301.05 558.152C277.971 559.178 254.892 559.178 231.814 556.613C220.531 555.587 208.735 553.535 197.452 550.457C191.81 548.918 186.169 546.866 180.527 543.788C177.963 542.249 174.886 540.197 172.322 537.631C169.757 535.066 167.706 531.475 167.193 527.371C166.68 523.267 167.193 519.163 168.732 515.572C170.27 511.981 172.322 509.416 174.373 506.851C178.989 502.234 183.605 498.13 188.22 494.539C197.965 487.87 208.735 482.74 218.992 477.61L224.121 489.409C213.863 494.026 203.606 498.643 194.887 504.286C190.272 507.364 186.169 510.442 182.579 514.033C181.04 516.085 179.502 517.624 178.476 519.676C177.45 521.728 177.45 523.267 177.45 524.806C177.45 526.345 178.476 527.884 180.014 529.423C181.553 530.962 183.092 532.501 185.143 534.04C189.246 536.605 194.375 538.658 199.503 540.197C209.76 543.275 221.043 545.327 232.326 546.866C254.379 549.431 277.458 550.457 300.024 549.944C322.59 549.431 345.669 547.892 368.235 545.84C390.801 543.788 413.367 540.71 435.932 536.605C458.498 532.501 480.551 527.884 502.605 522.241C524.658 516.598 546.711 509.929 567.225 501.208C577.482 496.591 588.252 491.974 597.484 485.818C602.1 482.74 606.715 479.149 610.818 475.045C612.87 472.993 614.408 470.428 615.434 468.376C615.947 466.836 616.46 465.81 616.973 464.271C618.511 462.732 618.511 461.706 618.511 460.167Z" fill="url(#paint36_linear)"/>
<path opacity="0.36" d="M142.063 775.667C136.421 1017.29 109.752 1212.24 82.5708 1211.72C55.3892 1211.21 37.9519 1014.73 43.5933 773.615C49.2348 531.989 75.9036 337.046 103.085 337.559C130.267 338.072 147.704 534.041 142.063 775.667Z" fill="url(#paint37_radial)"/>
<path opacity="0.36" d="M516.965 365.774C511.323 607.4 484.654 802.343 457.473 801.83C430.291 801.317 412.854 604.835 418.495 363.722C424.137 122.096 450.805 -72.8472 477.987 -72.3342C505.169 -71.8212 522.606 124.148 516.965 365.774Z" fill="url(#paint38_radial)"/>
<path opacity="0.36" d="M380.031 477.097C374.389 718.723 347.72 913.666 320.539 913.153C293.357 912.64 275.92 716.158 281.561 475.045C287.203 233.418 313.871 38.4753 341.053 38.9883C368.235 39.5013 385.672 235.47 380.031 477.097Z" fill="url(#paint39_radial)"/>
<path opacity="0.36" d="M596.971 642.798C591.33 884.424 564.661 1079.37 537.479 1078.85C510.297 1078.34 492.86 881.859 498.502 640.746C504.143 399.119 530.812 204.177 557.994 204.69C585.175 205.203 602.612 401.172 596.971 642.798Z" fill="url(#paint40_radial)"/>
<path opacity="0.36" d="M182.579 12.312C176.937 253.938 150.269 448.881 123.087 448.368C95.9053 447.342 78.468 251.373 84.1094 10.26C89.7509 -231.366 116.42 -426.309 143.601 -425.796C170.27 -425.283 187.707 -228.801 182.579 12.312Z" fill="url(#paint41_radial)"/>
</g>
<path opacity="0.6" d="M638 0H0V986H638V0Z" fill="url(#paint42_linear)"/>
</g>
<defs>
<linearGradient id="paint0_linear" x1="319" y1="200.525" x2="319" y2="1290.17" gradientUnits="userSpaceOnUse">
<stop stop-color="#1F2337"/>
<stop offset="1" stop-color="#4048FF"/>
</linearGradient>
<linearGradient id="paint1_linear" x1="319" y1="200.525" x2="319" y2="1290.17" gradientUnits="userSpaceOnUse">
<stop stop-color="#1F2337"/>
<stop offset="1" stop-color="#4048FF"/>
</linearGradient>
<linearGradient id="paint2_linear" x1="154.587" y1="365.329" x2="196.581" y2="292.614" gradientUnits="userSpaceOnUse">
<stop stop-color="#152782"/>
<stop offset="0.2456" stop-color="#152C82"/>
<stop offset="0.5305" stop-color="#153A82"/>
<stop offset="0.8338" stop-color="#155182"/>
<stop offset="1" stop-color="#156182"/>
</linearGradient>
<linearGradient id="paint3_linear" x1="154.579" y1="372.234" x2="196.573" y2="299.519" gradientUnits="userSpaceOnUse">
<stop stop-color="#213ED1"/>
<stop offset="0.1871" stop-color="#2143D1"/>
<stop offset="0.4041" stop-color="#2151D1"/>
<stop offset="0.6361" stop-color="#2168D1"/>
<stop offset="0.8769" stop-color="#2188D1"/>
<stop offset="1" stop-color="#219CD1"/>
</linearGradient>
<linearGradient id="paint4_linear" x1="157.537" y1="368.549" x2="193.777" y2="305.795" gradientUnits="userSpaceOnUse">
<stop stop-color="#213ED1"/>
<stop offset="0.1871" stop-color="#2143D1" stop-opacity="0.8129"/>
<stop offset="0.4041" stop-color="#2151D1" stop-opacity="0.5959"/>
<stop offset="0.6361" stop-color="#2168D1" stop-opacity="0.3639"/>
<stop offset="0.8769" stop-color="#2188D1" stop-opacity="0.1231"/>
<stop offset="1" stop-color="#219CD1" stop-opacity="0"/>
</linearGradient>
<linearGradient id="paint5_linear" x1="453.583" y1="456.882" x2="503.977" y2="369.622" gradientUnits="userSpaceOnUse">
<stop stop-color="#152782"/>
<stop offset="0.2456" stop-color="#152C82"/>
<stop offset="0.5305" stop-color="#153A82"/>
<stop offset="0.8338" stop-color="#155182"/>
<stop offset="1" stop-color="#156182"/>
</linearGradient>
<linearGradient id="paint6_linear" x1="446.795" y1="461.004" x2="497.19" y2="373.745" gradientUnits="userSpaceOnUse">
<stop stop-color="#213ED1"/>
<stop offset="0.1871" stop-color="#2143D1"/>
<stop offset="0.4041" stop-color="#2151D1"/>
<stop offset="0.6361" stop-color="#2168D1"/>
<stop offset="0.8769" stop-color="#2188D1"/>
<stop offset="1" stop-color="#219CD1"/>
</linearGradient>
<linearGradient id="paint7_linear" x1="448.589" y1="455.35" x2="492.374" y2="379.535" gradientUnits="userSpaceOnUse">
<stop stop-color="#213ED1"/>
<stop offset="0.1871" stop-color="#2143D1" stop-opacity="0.8129"/>
<stop offset="0.4041" stop-color="#2151D1" stop-opacity="0.5959"/>
<stop offset="0.6361" stop-color="#2168D1" stop-opacity="0.3639"/>
<stop offset="0.8769" stop-color="#2188D1" stop-opacity="0.1231"/>
<stop offset="1" stop-color="#219CD1" stop-opacity="0"/>
</linearGradient>
<linearGradient id="paint8_linear" x1="272.737" y1="579.104" x2="362.847" y2="423.072" gradientUnits="userSpaceOnUse">
<stop stop-color="#152782"/>
<stop offset="0.2456" stop-color="#152C82"/>
<stop offset="0.5305" stop-color="#153A82"/>
<stop offset="0.8338" stop-color="#155182"/>
<stop offset="1" stop-color="#156182"/>
</linearGradient>
<linearGradient id="paint9_linear" x1="260.51" y1="586.387" x2="350.62" y2="430.355" gradientUnits="userSpaceOnUse">
<stop stop-color="#213ED1"/>
<stop offset="0.1871" stop-color="#2143D1"/>
<stop offset="0.4041" stop-color="#2151D1"/>
<stop offset="0.6361" stop-color="#2168D1"/>
<stop offset="0.8769" stop-color="#2188D1"/>
<stop offset="1" stop-color="#219CD1"/>
</linearGradient>
<linearGradient id="paint10_linear" x1="263.763" y1="576.296" x2="342.16" y2="440.547" gradientUnits="userSpaceOnUse">
<stop stop-color="#213ED1"/>
<stop offset="0.1871" stop-color="#2143D1" stop-opacity="0.8129"/>
<stop offset="0.4041" stop-color="#2151D1" stop-opacity="0.5959"/>
<stop offset="0.6361" stop-color="#2168D1" stop-opacity="0.3639"/>
<stop offset="0.8769" stop-color="#2188D1" stop-opacity="0.1231"/>
<stop offset="1" stop-color="#219CD1" stop-opacity="0"/>
</linearGradient>
<linearGradient id="paint11_linear" x1="73.1992" y1="648.369" x2="87.711" y2="545.079" gradientUnits="userSpaceOnUse">
<stop stop-color="#152782"/>
<stop offset="0.2456" stop-color="#152C82"/>
<stop offset="0.5305" stop-color="#153A82"/>
<stop offset="0.8338" stop-color="#155182"/>
<stop offset="1" stop-color="#156182"/>
</linearGradient>
<linearGradient id="paint12_linear" x1="79.3911" y1="645.807" x2="93.9029" y2="542.518" gradientUnits="userSpaceOnUse">
<stop stop-color="#213ED1"/>
<stop offset="0.1871" stop-color="#2143D1"/>
<stop offset="0.4041" stop-color="#2151D1"/>
<stop offset="0.6361" stop-color="#2168D1"/>
<stop offset="0.8769" stop-color="#2188D1"/>
<stop offset="1" stop-color="#219CD1"/>
</linearGradient>
<linearGradient id="paint13_linear" x1="83.0549" y1="637.079" x2="95.5511" y2="548.137" gradientUnits="userSpaceOnUse">
<stop stop-color="#213ED1"/>
<stop offset="0.1871" stop-color="#2143D1" stop-opacity="0.8129"/>
<stop offset="0.4041" stop-color="#2151D1" stop-opacity="0.5959"/>
<stop offset="0.6361" stop-color="#2168D1" stop-opacity="0.3639"/>
<stop offset="0.8769" stop-color="#2188D1" stop-opacity="0.1231"/>
<stop offset="1" stop-color="#219CD1" stop-opacity="0"/>
</linearGradient>
<linearGradient id="paint14_linear" x1="286.47" y1="770.129" x2="335.796" y2="684.719" gradientUnits="userSpaceOnUse">
<stop stop-color="#152782"/>
<stop offset="0.2456" stop-color="#152C82"/>
<stop offset="0.5305" stop-color="#153A82"/>
<stop offset="0.8338" stop-color="#155182"/>
<stop offset="1" stop-color="#156182"/>
</linearGradient>
<linearGradient id="paint15_linear" x1="286.47" y1="761.886" x2="335.796" y2="676.475" gradientUnits="userSpaceOnUse">
<stop stop-color="#213ED1"/>
<stop offset="0.1871" stop-color="#2143D1"/>
<stop offset="0.4041" stop-color="#2151D1"/>
<stop offset="0.6361" stop-color="#2168D1"/>
<stop offset="0.8769" stop-color="#2188D1"/>
<stop offset="1" stop-color="#219CD1"/>
</linearGradient>
<linearGradient id="paint16_linear" x1="289.611" y1="753.519" x2="331.998" y2="680.123" gradientUnits="userSpaceOnUse">
<stop stop-color="#213ED1"/>
<stop offset="0.1871" stop-color="#2143D1" stop-opacity="0.8129"/>
<stop offset="0.4041" stop-color="#2151D1" stop-opacity="0.5959"/>
<stop offset="0.6361" stop-color="#2168D1" stop-opacity="0.3639"/>
<stop offset="0.8769" stop-color="#2188D1" stop-opacity="0.1231"/>
<stop offset="1" stop-color="#219CD1" stop-opacity="0"/>
</linearGradient>
<linearGradient id="paint17_linear" x1="506.025" y1="672.8" x2="582.17" y2="621.54" gradientUnits="userSpaceOnUse">
<stop stop-color="#152782"/>
<stop offset="0.2456" stop-color="#152C82"/>
<stop offset="0.5305" stop-color="#153A82"/>
<stop offset="0.8338" stop-color="#155182"/>
<stop offset="1" stop-color="#156182"/>
</linearGradient>
<linearGradient id="paint18_linear" x1="499.23" y1="668.665" x2="575.374" y2="617.406" gradientUnits="userSpaceOnUse">
<stop stop-color="#213ED1"/>
<stop offset="0.1871" stop-color="#2143D1"/>
<stop offset="0.4041" stop-color="#2151D1"/>
<stop offset="0.6361" stop-color="#2168D1"/>
<stop offset="0.8769" stop-color="#2188D1"/>
<stop offset="1" stop-color="#219CD1"/>
</linearGradient>
<linearGradient id="paint19_linear" x1="502.046" y1="664.442" x2="567.795" y2="620.181" gradientUnits="userSpaceOnUse">
<stop stop-color="#213ED1"/>
<stop offset="0.1871" stop-color="#2143D1" stop-opacity="0.8129"/>
<stop offset="0.4041" stop-color="#2151D1" stop-opacity="0.5959"/>
<stop offset="0.6361" stop-color="#2168D1" stop-opacity="0.3639"/>
<stop offset="0.8769" stop-color="#2188D1" stop-opacity="0.1231"/>
<stop offset="1" stop-color="#219CD1" stop-opacity="0"/>
</linearGradient>
<linearGradient id="paint20_linear" x1="310.826" y1="259.541" x2="310.826" y2="298.336" gradientUnits="userSpaceOnUse">
<stop stop-color="#F29C72"/>
<stop offset="1" stop-color="#E9550C" stop-opacity="0"/>
</linearGradient>
<linearGradient id="paint21_linear" x1="496.843" y1="324.806" x2="477.062" y2="342.357" gradientUnits="userSpaceOnUse">
<stop stop-color="#F29C72"/>
<stop offset="1" stop-color="#E9550C" stop-opacity="0"/>
</linearGradient>
<linearGradient id="paint22_linear" x1="192.058" y1="724.955" x2="202.138" y2="749.407" gradientUnits="userSpaceOnUse">
<stop stop-color="#F29C72"/>
<stop offset="1" stop-color="#E9550C" stop-opacity="0"/>
</linearGradient>
<linearGradient id="paint23_linear" x1="161.163" y1="573.234" x2="180.386" y2="591.394" gradientUnits="userSpaceOnUse">
<stop stop-color="#F29C72"/>
<stop offset="1" stop-color="#E9550C" stop-opacity="0"/>
</linearGradient>
<linearGradient id="paint24_linear" x1="503.64" y1="692.454" x2="485.086" y2="711.298" gradientUnits="userSpaceOnUse">
<stop stop-color="#F29C72"/>
<stop offset="1" stop-color="#E9550C" stop-opacity="0"/>
</linearGradient>
<linearGradient id="paint25_linear" x1="147.206" y1="412.833" x2="147.206" y2="441.41" gradientUnits="userSpaceOnUse">
<stop stop-color="#F29C72"/>
<stop offset="1" stop-color="#E9550C" stop-opacity="0"/>
</linearGradient>
<linearGradient id="paint26_linear" x1="30.9226" y1="276.594" x2="44.6341" y2="285.223" gradientUnits="userSpaceOnUse">
<stop stop-color="#F29C72"/>
<stop offset="1" stop-color="#E9550C" stop-opacity="0"/>
</linearGradient>
<linearGradient id="paint27_linear" x1="557.226" y1="231.686" x2="562.436" y2="247.028" gradientUnits="userSpaceOnUse">
<stop stop-color="#F29C72"/>
<stop offset="1" stop-color="#E9550C" stop-opacity="0"/>
</linearGradient>
<linearGradient id="paint28_linear" x1="86.2342" y1="796.56" x2="90.9796" y2="812.052" gradientUnits="userSpaceOnUse">
<stop stop-color="#F29C72"/>
<stop offset="1" stop-color="#E9550C" stop-opacity="0"/>
</linearGradient>
<linearGradient id="paint29_linear" x1="507.864" y1="524.41" x2="506.835" y2="540.581" gradientUnits="userSpaceOnUse">
<stop stop-color="#F29C72"/>
<stop offset="1" stop-color="#E9550C" stop-opacity="0"/>
</linearGradient>
<linearGradient id="paint30_linear" x1="397.796" y1="787.94" x2="406.575" y2="801.556" gradientUnits="userSpaceOnUse">
<stop stop-color="#F29C72"/>
<stop offset="1" stop-color="#E9550C" stop-opacity="0"/>
</linearGradient>
<linearGradient id="paint31_linear" x1="598.877" y1="797.153" x2="591.26" y2="811.453" gradientUnits="userSpaceOnUse">
<stop stop-color="#F29C72"/>
<stop offset="1" stop-color="#E9550C" stop-opacity="0"/>
</linearGradient>
<radialGradient id="paint32_radial" cx="0" cy="0" r="1" gradientUnits="userSpaceOnUse" gradientTransform="translate(166.991 500.969) rotate(-8.6567) scale(16.8121 123.681)">
<stop stop-color="#FF80EE"/>
<stop offset="0.3893" stop-color="#E48CD1" stop-opacity="0.6107"/>
<stop offset="1" stop-color="#B3A19C" stop-opacity="0"/>
</radialGradient>
<radialGradient id="paint33_radial" cx="0" cy="0" r="1" gradientUnits="userSpaceOnUse" gradientTransform="translate(447.529 459.158) rotate(-8.6567) scale(16.8121 123.681)">
<stop stop-color="#FF80EE"/>
<stop offset="0.3893" stop-color="#E48CD1" stop-opacity="0.6107"/>
<stop offset="1" stop-color="#B3A19C" stop-opacity="0"/>
</radialGradient>
<radialGradient id="paint34_radial" cx="0" cy="0" r="1" gradientUnits="userSpaceOnUse" gradientTransform="translate(288.685 377.007) rotate(-100.034) scale(3.65288 139.046)">
<stop stop-color="#FF80EE"/>
<stop offset="0.3893" stop-color="#E48CD1" stop-opacity="0.6107"/>
<stop offset="1" stop-color="#B3A19C" stop-opacity="0"/>
</radialGradient>
<linearGradient id="paint35_linear" x1="171.625" y1="573.578" x2="619.583" y2="463.001" gradientUnits="userSpaceOnUse">
<stop stop-color="#00FFF7"/>
<stop offset="0.2111" stop-color="#1DEDF1" stop-opacity="0.9156"/>
<stop offset="0.6662" stop-color="#67BEE2" stop-opacity="0.7335"/>
<stop offset="1" stop-color="#A199D6" stop-opacity="0.6"/>
</linearGradient>
<linearGradient id="paint36_linear" x1="171.627" y1="549.088" x2="619.585" y2="438.513" gradientUnits="userSpaceOnUse">
<stop stop-color="#00FFF7"/>
<stop offset="0.2111" stop-color="#1DEDF1" stop-opacity="0.9156"/>
<stop offset="0.6662" stop-color="#67BEE2" stop-opacity="0.7335"/>
<stop offset="1" stop-color="#A199D6" stop-opacity="0.6"/>
</linearGradient>
<radialGradient id="paint37_radial" cx="0" cy="0" r="1" gradientUnits="userSpaceOnUse" gradientTransform="translate(93.133 774.619) rotate(1.36737) scale(49.2222 437.172)">
<stop stop-color="white"/>
<stop offset="0.1869" stop-color="#B0B8B8" stop-opacity="0.7171"/>
<stop offset="0.3521" stop-color="#728081" stop-opacity="0.4669"/>
<stop offset="0.4909" stop-color="#465859" stop-opacity="0.2567"/>
<stop offset="0.598" stop-color="#2A3F40" stop-opacity="0.0945386"/>
<stop offset="0.6605" stop-color="#203637" stop-opacity="0"/>
</radialGradient>
<radialGradient id="paint38_radial" cx="0" cy="0" r="1" gradientUnits="userSpaceOnUse" gradientTransform="translate(468.213 364.808) rotate(1.36737) scale(49.2221 437.172)">
<stop stop-color="white"/>
<stop offset="0.1869" stop-color="#B0B8B8" stop-opacity="0.7171"/>
<stop offset="0.3521" stop-color="#728081" stop-opacity="0.4669"/>
<stop offset="0.4909" stop-color="#465859" stop-opacity="0.2567"/>
<stop offset="0.598" stop-color="#2A3F40" stop-opacity="0.0945386"/>
<stop offset="0.6605" stop-color="#203637" stop-opacity="0"/>
</radialGradient>
<radialGradient id="paint39_radial" cx="0" cy="0" r="1" gradientUnits="userSpaceOnUse" gradientTransform="translate(331.037 475.987) rotate(1.36737) scale(49.2221 437.172)">
<stop stop-color="white"/>
<stop offset="0.1869" stop-color="#B0B8B8" stop-opacity="0.7171"/>
<stop offset="0.3521" stop-color="#728081" stop-opacity="0.4669"/>
<stop offset="0.4909" stop-color="#465859" stop-opacity="0.2567"/>
<stop offset="0.598" stop-color="#2A3F40" stop-opacity="0.0945386"/>
<stop offset="0.6605" stop-color="#203637" stop-opacity="0"/>
</radialGradient>
<radialGradient id="paint40_radial" cx="0" cy="0" r="1" gradientUnits="userSpaceOnUse" gradientTransform="translate(548.157 641.766) rotate(1.36737) scale(49.2222 437.172)">
<stop stop-color="white"/>
<stop offset="0.1869" stop-color="#B0B8B8" stop-opacity="0.7171"/>
<stop offset="0.3521" stop-color="#728081" stop-opacity="0.4669"/>
<stop offset="0.4909" stop-color="#465859" stop-opacity="0.2567"/>
<stop offset="0.598" stop-color="#2A3F40" stop-opacity="0.0945386"/>
<stop offset="0.6605" stop-color="#203637" stop-opacity="0"/>
</radialGradient>
<radialGradient id="paint41_radial" cx="0" cy="0" r="1" gradientUnits="userSpaceOnUse" gradientTransform="translate(133.449 11.5656) rotate(1.36737) scale(49.2222 437.172)">
<stop stop-color="white"/>
<stop offset="0.1869" stop-color="#B0B8B8" stop-opacity="0.7171"/>
<stop offset="0.3521" stop-color="#728081" stop-opacity="0.4669"/>
<stop offset="0.4909" stop-color="#465859" stop-opacity="0.2567"/>
<stop offset="0.598" stop-color="#2A3F40" stop-opacity="0.0945386"/>
<stop offset="0.6605" stop-color="#203637" stop-opacity="0"/>
</radialGradient>
<linearGradient id="paint42_linear" x1="319" y1="200.525" x2="319" y2="1290.17" gradientUnits="userSpaceOnUse">
<stop stop-color="#1F2337"/>
<stop offset="1" stop-color="#4048FF"/>
</linearGradient>
<clipPath id="clip0">
<rect width="638" height="986" fill="white"/>
</clipPath>
</defs>
</svg>
