<svg width="7" height="5" viewBox="0 0 7 5" fill="none" xmlns="http://www.w3.org/2000/svg">
<path fill-rule="evenodd" clip-rule="evenodd" d="M5.26471 0.240818C5.36758 0.138846 5.50645 0.0814564 5.65129 0.0810568C5.79614 0.0806572 5.93532 0.13728 6.03875 0.238683C6.14219 0.340086 6.20155 0.478122 6.20402 0.622947C6.20649 0.767773 6.15186 0.907752 6.05195 1.01262L3.11763 4.68052C3.06719 4.73484 3.00633 4.77843 2.93866 4.80869C2.871 4.83895 2.79793 4.85525 2.72382 4.85662C2.64972 4.85799 2.57609 4.84441 2.50736 4.81668C2.43862 4.78894 2.37618 4.74764 2.32377 4.69522L0.379564 2.75028C0.325401 2.69981 0.281958 2.63895 0.251827 2.57132C0.221695 2.5037 0.205493 2.4307 0.204187 2.35668C0.202881 2.28266 0.216498 2.20913 0.244225 2.14048C0.271952 2.07184 0.313221 2.00948 0.36557 1.95713C0.41792 1.90478 0.480277 1.86351 0.548922 1.83579C0.617566 1.80806 0.691093 1.79444 0.765115 1.79575C0.839136 1.79706 0.912137 1.81326 0.979761 1.84339C1.04738 1.87352 1.10825 1.91696 1.15872 1.97113L2.69791 3.50959L5.25074 0.25699C5.2553 0.251296 5.26021 0.245894 5.26544 0.240818H5.26471Z" fill="#00CC9E"/>
</svg>
