<svg width="33" height="33" viewBox="0 0 33 33" fill="none" xmlns="http://www.w3.org/2000/svg">
<path fill-rule="evenodd" clip-rule="evenodd" d="M12.0491 20.2901H20.0491C20.3143 20.2901 20.5686 20.3897 20.7562 20.567C20.9437 20.7443 21.0491 20.9848 21.0491 21.2355C21.0491 21.4863 20.9437 21.7268 20.7562 21.9041C20.5686 22.0814 20.3143 22.181 20.0491 22.181H11.0491C10.7839 22.181 10.5295 22.0814 10.342 21.9041C10.1544 21.7268 10.0491 21.4863 10.0491 21.2355V8.94462H9.04907C8.78386 8.94462 8.5295 8.84501 8.34197 8.6677C8.15443 8.4904 8.04907 8.24992 8.04907 7.99917C8.04907 7.74842 8.15443 7.50794 8.34197 7.33063C8.5295 7.15332 8.78386 7.05371 9.04907 7.05371H11.0491C11.3143 7.05371 11.5686 7.15332 11.7562 7.33063C11.9437 7.50794 12.0491 7.74842 12.0491 7.99917V16.5083H20.8241L22.0491 11.781V9.89102C23.1941 9.89102 24.0491 10.7363 24.0491 11.781C24.0491 11.919 24.0321 12.0561 23.9991 12.1913L22.8481 16.9186C22.6381 17.7837 21.7961 18.3992 20.8241 18.3992H12.1221L12.0491 18.3982V20.2901ZM11.5491 25.9628C11.1512 25.9628 10.7697 25.8134 10.4884 25.5474C10.2071 25.2815 10.0491 24.9207 10.0491 24.5446C10.0491 24.1685 10.2071 23.8078 10.4884 23.5418C10.7697 23.2759 11.1512 23.1264 11.5491 23.1264C11.9469 23.1264 12.3284 23.2759 12.6097 23.5418C12.891 23.8078 13.0491 24.1685 13.0491 24.5446C13.0491 24.9207 12.891 25.2815 12.6097 25.5474C12.3284 25.8134 11.9469 25.9628 11.5491 25.9628V25.9628ZM20.5491 25.9628C20.1512 25.9628 19.7697 25.8134 19.4884 25.5474C19.2071 25.2815 19.0491 24.9207 19.0491 24.5446C19.0491 24.1685 19.2071 23.8078 19.4884 23.5418C19.7697 23.2759 20.1512 23.1264 20.5491 23.1264C20.9469 23.1264 21.3284 23.2759 21.6097 23.5418C21.891 23.8078 22.0491 24.1685 22.0491 24.5446C22.0491 24.9207 21.891 25.2815 21.6097 25.5474C21.3284 25.8134 20.9469 25.9628 20.5491 25.9628ZM18.0491 9.89007H19.0491C19.3143 9.89007 19.5686 9.98969 19.7562 10.167C19.9437 10.3443 20.0491 10.5848 20.0491 10.8355C20.0491 11.0863 19.9437 11.3268 19.7562 11.5041C19.5686 11.6814 19.3143 11.781 19.0491 11.781H18.0491V12.7264C18.0491 12.9772 17.9437 13.2177 17.7562 13.395C17.5686 13.5723 17.3143 13.6719 17.0491 13.6719C16.7839 13.6719 16.5295 13.5723 16.342 13.395C16.1544 13.2177 16.0491 12.9772 16.0491 12.7264V11.781H15.0491C14.7839 11.781 14.5295 11.6814 14.342 11.5041C14.1544 11.3268 14.0491 11.0863 14.0491 10.8355C14.0491 10.5848 14.1544 10.3443 14.342 10.167C14.5295 9.98969 14.7839 9.89007 15.0491 9.89007H16.0491V8.94462C16.0491 8.69387 16.1544 8.45339 16.342 8.27608C16.5295 8.09878 16.7839 7.99917 17.0491 7.99917C17.3143 7.99917 17.5686 8.09878 17.7562 8.27608C17.9437 8.45339 18.0491 8.69387 18.0491 8.94462V9.89007Z" fill="#FFA318"/>
</svg>
