<svg width="33" height="33" viewBox="0 0 33 33" fill="none" xmlns="http://www.w3.org/2000/svg">
<path d="M24.9509 25.566C24.9509 26.1182 24.5032 26.566 23.9509 26.566L9.95093 26.566C9.39864 26.566 8.95093 26.1182 8.95093 25.566L8.95093 25.5296C8.95093 24.9773 9.39864 24.5296 9.95093 24.5296L23.9509 24.5296C24.5032 24.5296 24.9509 24.9773 24.9509 25.5296L24.9509 25.566Z" fill="#00CC9E"/>
<path fill-rule="evenodd" clip-rule="evenodd" d="M24.2635 15.6717C24.6451 15.2831 24.6451 14.6605 24.2635 14.2719C23.872 13.8733 23.2297 13.8733 22.8383 14.2719L17.9509 19.2481L17.9509 7.44922C17.9509 6.89693 17.5032 6.44922 16.9509 6.44922C16.3986 6.44922 15.9509 6.89693 15.9509 7.44922L15.9509 19.2481L11.0635 14.2719C10.672 13.8733 10.0297 13.8733 9.63825 14.2719C9.25663 14.6605 9.25663 15.2831 9.63825 15.6717L15.7671 21.9119C16.4174 22.5741 17.4843 22.5741 18.1347 21.9119L24.2635 15.6717Z" fill="#00CC9E"/>
</svg>
