<svg width="19" height="19" viewBox="0 0 19 19" fill="none" xmlns="http://www.w3.org/2000/svg">
<path fill-rule="evenodd" clip-rule="evenodd" d="M0.973877 16.2682C0.973877 16.8191 1.19269 17.3473 1.58217 17.7368C1.97166 18.1263 2.49991 18.3451 3.05073 18.3451H14.1273C14.6781 18.3451 15.2063 18.1263 15.5958 17.7368C15.9853 17.3473 16.2041 16.8191 16.2041 16.2682V10.73C16.2041 10.5464 16.1312 10.3703 16.0014 10.2404C15.8715 10.1106 15.6955 10.0377 15.5118 10.0377C15.3282 10.0377 15.1522 10.1106 15.0223 10.2404C14.8925 10.3703 14.8196 10.5464 14.8196 10.73V16.2682C14.8196 16.4518 14.7466 16.6279 14.6168 16.7578C14.487 16.8876 14.3109 16.9605 14.1273 16.9605H3.05073C2.86712 16.9605 2.69104 16.8876 2.56121 16.7578C2.43138 16.6279 2.35845 16.4518 2.35845 16.2682V5.19169C2.35845 5.00809 2.43138 4.832 2.56121 4.70217C2.69104 4.57235 2.86712 4.49941 3.05073 4.49941H8.589C8.77261 4.49941 8.94869 4.42647 9.07852 4.29664C9.20835 4.16681 9.28129 3.99073 9.28129 3.80712C9.28129 3.62352 9.20835 3.44743 9.07852 3.31761C8.94869 3.18778 8.77261 3.11484 8.589 3.11484H3.05073C2.49991 3.11484 1.97166 3.33365 1.58217 3.72314C1.19269 4.11262 0.973877 4.64088 0.973877 5.19169V16.2682ZM10.6659 1.03799C10.6659 0.854382 10.7388 0.678297 10.8686 0.548468C10.9984 0.41864 11.1745 0.345703 11.3581 0.345703H18.281C18.4646 0.345703 18.6407 0.41864 18.7705 0.548468C18.9003 0.678297 18.9733 0.854382 18.9733 1.03799V7.96083C18.9733 8.14443 18.9003 8.32052 18.7705 8.45035C18.6407 8.58018 18.4646 8.65311 18.281 8.65311C18.0974 8.65311 17.9213 8.58018 17.7915 8.45035C17.6616 8.32052 17.5887 8.14443 17.5887 7.96083V1.73027H11.3581C11.1745 1.73027 10.9984 1.65733 10.8686 1.52751C10.7388 1.39768 10.6659 1.22159 10.6659 1.03799Z" fill="#4048FF"/>
</svg>
