<svg width="100" height="83" viewBox="0 0 100 83" fill="none" xmlns="http://www.w3.org/2000/svg">
<path fill-rule="evenodd" clip-rule="evenodd" d="M43.2168 18.1419L52.5096 8.84913C55.753 5.60568 61.0117 5.60568 64.2552 8.84913C67.4986 12.0926 67.4986 17.3513 64.2552 20.5947L48.0467 36.8032C44.8033 40.0466 39.5446 40.0466 36.3011 36.8032C35.3112 35.8132 34.6234 34.6355 34.2377 33.3848C32.6371 34.875 31.0327 36.3885 29.543 37.8769C30.1836 39.0405 30.9971 40.1343 31.9836 41.1207C37.6115 46.7487 46.7363 46.7487 52.3643 41.1208L68.5728 24.9123C74.2007 19.2843 74.2007 10.1595 68.5728 4.53154C62.9448 -1.09645 53.82 -1.09645 48.192 4.53154L31.9836 20.74C31.9575 20.766 31.9317 20.7921 31.9059 20.8182C35.737 17.8536 39.8386 16.8572 43.2168 18.1419Z" fill="url(#paint0_linear)"/>
<path fill-rule="evenodd" clip-rule="evenodd" d="M38.4469 49.2223L29.154 58.5152C25.9106 61.7586 20.6519 61.7586 17.4085 58.5152C14.165 55.2717 14.165 50.013 17.4085 46.7696L33.6169 30.5611C36.8604 27.3177 42.119 27.3177 45.3625 30.5611C46.3177 31.5164 46.9916 32.6464 47.3842 33.8483C48.3354 32.8467 49.295 31.8418 50.2401 30.8521C50.8016 30.2642 51.3579 29.6816 51.9043 29.1082C51.3 28.0859 50.5586 27.1221 49.6801 26.2436C44.0521 20.6156 34.9273 20.6156 29.2993 26.2435L13.0909 42.452C7.46289 48.08 7.46289 57.2048 13.0909 62.8328C18.7189 68.4608 27.8436 68.4608 33.4716 62.8328L49.6801 46.6243C49.7059 46.5985 49.7317 46.5725 49.7573 46.5465C45.9263 49.5108 41.8249 50.5071 38.4469 49.2223Z" fill="url(#paint1_linear)"/>
<circle cx="68.6772" cy="30.454" r="12.6417" fill="white" stroke="#00CC9E" stroke-width="2.39524"/>
<path d="M64.6973 30.1429L68.286 32.7698L72.658 28.1369" stroke="#00CC9E" stroke-width="4.31142" stroke-linecap="round"/>
<g opacity="0.5" filter="url(#filter0_f)">
<ellipse cx="50.0103" cy="76.944" rx="47.8424" ry="3.20249" fill="url(#paint2_radial)"/>
</g>
<g style="mix-blend-mode:multiply">
<path d="M52.4354 8.19926L42.6893 17.9454C39.4165 16.9482 35.5387 17.9896 31.9043 20.8021L42.8214 9.88503C48.8346 6.95217 53.8312 6.01261 56.6154 5.92283C55.0836 6.25036 53.6255 7.00917 52.4354 8.19926Z" fill="url(#paint3_linear)"/>
</g>
<g style="mix-blend-mode:multiply">
<path d="M29.2286 59.145L38.9748 49.3989C42.2475 50.396 46.1253 49.3547 49.7598 46.5421L38.8427 57.4592C32.8294 60.3921 27.8328 61.3317 25.0487 61.4214C26.5805 61.0939 28.0386 60.3351 29.2286 59.145Z" fill="url(#paint4_linear)"/>
</g>
<defs>
<filter id="filter0_f" x="0.132637" y="71.7062" width="99.7554" height="10.4756" filterUnits="userSpaceOnUse" color-interpolation-filters="sRGB">
<feFlood flood-opacity="0" result="BackgroundImageFix"/>
<feBlend mode="normal" in="SourceGraphic" in2="BackgroundImageFix" result="shape"/>
<feGaussianBlur stdDeviation="1.01767" result="effect1_foregroundBlur"/>
</filter>
<linearGradient id="paint0_linear" x1="52.5288" y1="-3.36346" x2="36.9408" y2="39.4085" gradientUnits="userSpaceOnUse">
<stop stop-color="white"/>
<stop offset="1" stop-color="#D6D6E8"/>
</linearGradient>
<linearGradient id="paint1_linear" x1="45.201" y1="45.8244" x2="8.24911" y2="63.8351" gradientUnits="userSpaceOnUse">
<stop stop-color="white"/>
<stop offset="1" stop-color="#D6D6E8"/>
</linearGradient>
<radialGradient id="paint2_radial" cx="0" cy="0" r="1" gradientUnits="userSpaceOnUse" gradientTransform="translate(50.0103 76.944) rotate(90) scale(3.20249 47.8424)">
<stop stop-color="#1F2337"/>
<stop offset="1" stop-color="#1F2337" stop-opacity="0"/>
</radialGradient>
<linearGradient id="paint3_linear" x1="64.2975" y1="14.0451" x2="38.6842" y2="12.5458" gradientUnits="userSpaceOnUse">
<stop stop-color="#ADADC8"/>
<stop offset="1" stop-color="#4048FF" stop-opacity="0"/>
</linearGradient>
<linearGradient id="paint4_linear" x1="17.3665" y1="53.2991" x2="42.9799" y2="54.7984" gradientUnits="userSpaceOnUse">
<stop stop-color="#ADADC8"/>
<stop offset="1" stop-color="#4048FF" stop-opacity="0"/>
</linearGradient>
</defs>
</svg>
