<svg width="128" height="128" viewBox="0 0 128 128" fill="none" xmlns="http://www.w3.org/2000/svg">
<circle cx="61.4834" cy="78.4707" r="49.0097" fill="#FFC1DB"/>
<mask id="mask0" mask-type="alpha" maskUnits="userSpaceOnUse" x="0" y="0" width="128" height="128">
<path d="M127.792 29.1956C127.792 72.6081 96.6348 127.437 62.5424 127.437C28.4499 127.437 0.8125 92.2438 0.8125 48.8313C0.8125 5.41877 25.2191 25.6755 59.3116 25.6755C98.352 -1.84476 127.792 -14.2169 127.792 29.1956Z" fill="#C4C4C4"/>
</mask>
<g mask="url(#mask0)">
<path d="M30.4975 102.149C28.6841 89.8736 30.358 84.108 33.2872 80.1094C37.6114 80.1094 47.0966 80.9184 50.4443 84.1545C53.792 87.3907 56.3118 105.994 60.069 119.306L65.5901 139.564L62.773 140.36L51.6472 119.306L47.729 111.498L41.6565 102.149C40.9187 114.67 43.1561 115.925 43.4376 118.775C46.054 145.26 48.1974 144.402 43.4376 144.833L30.4975 102.149Z" fill="black"/>
<path d="M36.8416 43.1037C36.1173 41.5102 37.5573 40.767 38.3678 40.5945C40.9287 40.0772 43.1275 53.6318 42.9723 54.0457C42.8171 54.4596 39.1697 56.0116 36.2467 55.1839C33.3236 54.3561 34.5653 52.7782 37.5659 49.1308C38.6117 47.8597 37.747 45.0955 36.8416 43.1037Z" fill="#F62054"/>
<path d="M26.0886 60.8163C28.2534 61.7784 32.5386 57.0214 37.5998 54.6662C38.5451 59.6078 33.528 68.4668 26.0886 67.0446C20.7289 66.0199 17.4382 53.3493 19.1921 51.6455C18.5908 54.5018 23.9238 59.8542 26.0886 60.8163Z" fill="#8C4739"/>
<path d="M26.0886 60.8163C28.2534 61.7784 32.5386 57.0214 37.5998 54.6662C38.5451 59.6078 33.528 68.4668 26.0886 67.0446C20.7289 66.0199 17.4382 53.3493 19.1921 51.6455C18.5908 54.5018 23.9238 59.8542 26.0886 60.8163Z" fill="url(#paint0_linear)"/>
<path d="M40.3659 50.6211L40.7292 53.6606L39.524 54.1772L36.5378 61.6774L37.8028 68.9516L50.1934 54.5439L46.2786 53.9325L43.9216 47.499L40.3659 50.6211Z" fill="#8C4739"/>
<path d="M40.3659 50.6211L40.7292 53.6606L39.524 54.1772L36.5378 61.6774L37.8028 68.9516L50.1934 54.5439L46.2786 53.9325L43.9216 47.499L40.3659 50.6211Z" fill="url(#paint1_linear)"/>
<path fill-rule="evenodd" clip-rule="evenodd" d="M41.2491 51.5985C39.0336 52.3506 37.9231 51.2656 37.9952 50.098L38.1144 47.2983L37.3401 47.1575L38.1871 45.5925L38.4091 40.38L44.9122 40.2354L46.7041 44.5573V46.9322L44.8677 49.9948L41.2491 51.5985Z" fill="#8C4739"/>
<path fill-rule="evenodd" clip-rule="evenodd" d="M41.2491 51.5985C39.0336 52.3506 37.9231 51.2656 37.9952 50.098L38.1144 47.2983L37.3401 47.1575L38.1871 45.5925L38.4091 40.38L44.9122 40.2354L46.7041 44.5573V46.9322L44.8677 49.9948L41.2491 51.5985Z" fill="url(#paint2_linear)"/>
<path fill-rule="evenodd" clip-rule="evenodd" d="M39.8088 54.0381C38.6606 56.272 36.7779 61.2476 38.7164 63.7372C40.6257 61.3082 45.0558 56.2821 47.5016 55.6094C48.7667 55.2615 49.4282 54.7596 49.7429 54.2815C50.6581 54.5647 51.7139 54.9985 53.0702 55.6527C57.621 57.8478 53.4426 63.9456 50.0907 68.8374C48.5508 71.0847 47.1853 73.0775 46.9207 74.3204C46.4796 76.392 48.4957 78.8976 50.2439 81.0705C51.1614 82.2108 52.0052 83.2594 52.3813 84.1056C52.3813 84.1056 48.2515 85.3332 45.6036 86.114C38.3834 88.243 30.751 84.9779 30.751 84.9779C31.6936 82.4329 32.2563 81.5841 32.8265 80.724C33.3619 79.9163 33.9039 79.0988 34.7733 76.8573C35.9678 73.7775 34.5505 69.9898 33.4684 67.0979C32.9243 65.6439 32.4649 64.4163 32.4649 63.619C32.4649 61.4021 33.8496 59.7623 35.0178 58.3789C35.7549 57.506 36.4058 56.7353 36.5684 55.986C36.8356 54.7548 38.0742 54.2541 39.8088 54.0381Z" fill="#4F2674"/>
<path d="M18.6788 53.1894L17.7166 46.7743C17.6033 46.0192 18.0126 45.2825 18.7136 44.9798C19.7343 44.5391 20.8943 45.1917 21.0474 46.2929L21.941 52.7179C22.1023 53.8781 21.0358 54.8315 19.9009 54.5417C19.2586 54.3778 18.7771 53.8449 18.6788 53.1894Z" fill="black"/>
<path d="M18.3938 49.3719C17.5557 51.2477 18.2738 54.0913 18.9723 55.9704L19.4711 54.6234C21.4168 53.626 20.483 52.6668 20.483 51.709C20.483 50.5116 21.3489 49.743 21.748 48.2463C22.1471 46.7497 19.4414 47.0271 18.3938 49.3719Z" fill="#8C4739"/>
<path d="M20.5746 46.1463C20.2515 44.9977 17.9723 47.6969 18.1159 49.3767C18.2954 51.4765 19.0671 46.9898 20.5746 46.1463Z" fill="#8C4739"/>
<path d="M51.4676 61.9838C50.0803 58.1765 50.8446 56.5018 53.4175 56.5018C55.3685 55.8778 61.3658 66.1349 59.0067 73.3859C57.7061 77.3837 52.7311 82.4235 49.8408 82.011C51.3943 80.5198 54.3877 75.0265 55.0814 72.5137C55.9485 69.3726 53.2018 66.743 51.4676 61.9838Z" fill="#8C4739"/>
<path d="M51.4676 61.9838C50.0803 58.1765 50.8446 56.5018 53.4175 56.5018C55.3685 55.8778 61.3658 66.1349 59.0067 73.3859C57.7061 77.3837 52.7311 82.4235 49.8408 82.011C51.3943 80.5198 54.3877 75.0265 55.0814 72.5137C55.9485 69.3726 53.2018 66.743 51.4676 61.9838Z" fill="url(#paint3_linear)"/>
<path d="M47.916 82.5725C48.6238 80.7809 50.362 80.7596 51.5591 80.9728C51.9581 81.9174 52.5167 84.0076 52.8081 85.9089C53.1724 88.2855 50.7262 88.4683 50.7262 87.1886C50.7262 85.9089 49.4252 83.3038 48.5925 83.6694C47.9264 83.9619 49.0609 85.9089 48.2802 85.9089C47.8812 85.7413 47.2082 84.3641 47.916 82.5725Z" fill="#8C4739"/>
<path d="M17.1776 40.6551C17.1776 40.6297 17.1778 40.6046 17.1782 40.5801C17.1782 40.6052 17.178 40.6302 17.1776 40.6551C17.1802 41.873 17.7207 44.0835 19.9016 43.7408C18.8215 44.0788 16.713 45.4504 16.9197 48.2334C16.7475 47.054 15.9497 44.7467 14.1367 44.9534C15.141 44.6121 17.1401 43.2772 17.1776 40.6551Z" fill="white"/>
<ellipse cx="18.2704" cy="46.2114" rx="0.261432" ry="0.379034" transform="rotate(-6.66257 18.2704 46.2114)" fill="white"/>
<path d="M38.9473 48.4973C39.4823 48.4462 40.7174 48.1999 41.3783 47.624C41.1816 48.8395 40.42 50.7159 38.9473 48.4973Z" fill="white"/>
<path d="M38.0496 41.6261C36.0019 39.6902 37.1964 38.3375 38.0496 37.9031C53.2207 36.5536 45.8678 42.7896 49.9631 47.2106C54.0584 51.6316 53.3138 55.2616 52.4762 55.215C51.6385 55.1685 51.3593 57.4023 45.3094 59.8222C39.2596 62.2422 45.1698 47.3967 44.7044 45.3956C44.2391 43.3945 40.6091 44.0461 38.0496 41.6261Z" fill="#F62054"/>
<path d="M84.9059 82.2217H64.2135C62.9289 88.3765 57.3672 140.018 57.0781 145.272H60.5868L73.6555 94.8663C73.8348 96.2691 76.4228 142.609 76.5946 143.437L80.3336 142.147L84.9059 82.2217Z" fill="#00161D"/>
<path d="M93.0749 68.7901C87.7238 64.6612 82.7194 59.1439 78.4862 53.3266C75.2463 48.9873 76.7013 46.7527 79.9564 45.54C82.0029 45.6937 83.7369 46.3805 85.3319 48.4147C89.9268 54.2749 91.9189 57.6973 95.4127 63.5746L93.0749 68.7901Z" fill="#F62054"/>
<path d="M98.3128 49.2835L96.6973 48.6406L95.0068 52.9383L98.0682 54.3143C98.2474 52.3814 98.2988 50.6116 98.3128 49.2835Z" fill="#E3E3E3"/>
<path d="M95.0068 52.9385L91.3955 62.1203L93.8898 66.6876C96.6165 63.8301 98.3719 58.7403 98.7747 54.3962L95.0068 52.9385Z" fill="#F62054"/>
<path d="M99.838 51.6385L98.7271 52.0346C98.2106 52.2188 97.636 52.0986 97.2329 51.727C95.1487 49.8044 93.011 45.6373 92.165 43.1158L96.8861 41.4326C97.5419 43.5476 99.2621 47.4221 100.575 49.2259C101.195 50.0777 100.83 51.2847 99.838 51.6385Z" fill="#001744"/>
<path d="M95.7016 41.8551L91.6954 43.2834C89.4827 44.0723 87.0496 42.9182 86.2609 40.7055C85.472 38.493 86.6262 36.0599 88.8389 35.271L92.8448 33.8428L95.7016 41.8551Z" fill="#001744"/>
<path d="M92.263 34.2592C91.495 34.6789 91.468 36.5933 92.1819 38.5954C92.8956 40.5977 94.1279 42.0632 94.9872 41.9002C94.9879 41.9024 113.862 41.963 113.862 41.963L106.842 22.2715L92.263 34.2592Z" fill="#F62054"/>
<path d="M106.65 21.0425C104.536 21.796 104.578 27.3301 106.743 33.4032C108.908 39.4763 112.377 43.7887 114.491 43.0352C116.604 42.2817 116.562 36.7477 114.397 30.6745C112.232 24.6014 108.763 20.289 106.65 21.0425Z" fill="#001744"/>
<path d="M106.742 33.4044C107.215 34.7313 107.751 35.974 108.32 37.0982L112.626 34.7465L110.45 28.6426L105.628 29.5454C105.898 30.7766 106.269 32.0775 106.742 33.4044Z" fill="url(#paint4_linear)"/>
<path d="M110.452 28.645C109.866 28.8542 109.877 30.3901 110.478 32.0756C111.079 33.7611 112.042 34.9579 112.628 34.7488C113.215 34.5397 113.203 33.0037 112.602 31.3182C112.001 29.6327 111.039 28.4359 110.452 28.645Z" fill="#F62054"/>
<path d="M114.663 43.5208C113.418 43.9644 111.846 43.1057 110.235 41.1027C108.736 39.2396 107.324 36.5668 106.258 33.5767C105.192 30.5866 104.595 27.6232 104.577 25.2325C104.557 22.662 105.232 21.002 106.476 20.5584C107.72 20.1149 109.293 20.9735 110.904 22.9766C112.402 24.8395 113.815 27.5124 114.881 30.5026C115.947 33.4927 116.544 36.4561 116.562 38.8468C116.581 41.4173 115.907 43.0771 114.663 43.5208ZM106.821 21.5272C105.24 22.0908 105.018 27.0362 107.227 33.2314C109.435 39.4264 112.736 43.1157 114.317 42.5521C115.898 41.9884 116.121 37.0431 113.912 30.8479C111.703 24.6528 108.402 20.9635 106.821 21.5272Z" fill="#4F2674"/>
<path d="M97.4688 51.9137L95.0294 48.459L94.0392 46.3245L93.46 46.5932L93.9476 49.1224L95.4351 51.4084L97.4688 51.9137ZM97.4264 45.8234L99.4446 48.9911L99.9901 47.8501L99.429 46.4844L98.4226 44.4072L98.0285 44.4334L97.4264 45.8234Z" fill="#F4ACC8"/>
<path d="M83.6163 71.8625C83.7394 67.3985 84.5245 57.4446 84.8021 51.1033C84.9129 48.5732 83.2608 46.2968 80.8152 45.6404C74.5555 43.9597 67.1817 43.4059 61.8523 45.7453C60.3805 46.3915 59.4794 47.8264 59.5443 49.514C59.8727 58.0519 64.24 71.8625 64.24 71.8625L61.7796 87.8489H86.5027L83.5935 71.8625H83.6163Z" fill="#F62054"/>
<path d="M79.6445 72.083L78.3723 45.0564C75.1349 44.3758 71.7219 44.0326 68.5225 44.2434L75.6419 72.1046L75.0655 84.1339H79.5589L79.6445 72.083Z" fill="#E3E3E3"/>
<path d="M48.7667 51.5625L47.0762 52.6531C47.1612 53.4421 47.2814 54.3941 47.4433 55.447L50.5774 54.6444L48.7667 51.5625Z" fill="#F62054"/>
<path d="M54.5957 70.2725C55.3991 64.0551 56.5455 54.4425 60.0409 47.5889L67.9784 51.9084C66.0642 58.5727 62.9728 67.1572 59.9714 72.6824L54.5957 70.2725Z" fill="#F62054"/>
<path d="M58.8554 73.2385L72.9993 78.4774L75.4826 75.405C71.5498 71.8609 64.6214 67.4696 59.4048 67.3284C56.9626 67.3581 55.0608 68.154 54.314 70.4498L58.8554 73.2385Z" fill="#F62054"/>
<path d="M75.0651 84.1348L74.8877 87.8309H79.9605L79.5585 84.1348H75.0651Z" fill="#00161D"/>
<path d="M75.9429 41.0557L74.8664 48.432L70.0303 44.3671L72.3873 37.9336L75.9429 41.0557Z" fill="#F4ACC8"/>
<path d="M78.3154 40.5326C78.3874 41.7002 77.277 42.7852 75.0614 42.0331L71.4428 40.4294L69.6064 34.9918L71.3984 30.6699L77.9014 30.8146L78.3154 40.5326Z" fill="#F4ACC8"/>
<path d="M77.4424 34.7676L78.9713 37.593L77.6916 37.8256L77.4424 34.7676Z" fill="#F4ACC8"/>
<path d="M78.2133 37.887H76.4968C75.3987 38.0782 74.2591 38.5379 73.9364 37.471C73.9364 37.471 73.4373 34.7079 73.4123 34.0634L78.2233 32.5752L79.3574 28.8984L77.7534 29.2749L71.4974 29.5199C68.7112 29.5983 67.6504 31.7121 68.6202 34.768L69.9372 38.4676C70.2922 39.4647 70.379 40.0074 71.3906 40.3187L71.7511 39.2579C71.9693 38.6154 71.8433 37.922 71.4709 37.3547C71.4111 37.2632 71.3555 37.1634 71.3067 37.0565C71.0084 36.4048 71.0636 35.7406 71.4301 35.5727C71.7966 35.4048 72.3356 35.7971 72.6338 36.4487C72.8959 37.021 73.057 40.9298 73.057 40.9298L75.3851 42.1108C77.6428 42.7244 78.6839 41.5729 78.54 40.412L78.2133 37.887Z" fill="#4F2674"/>
<path d="M77.4785 39.2379C77.1407 39.2056 76.3608 39.0501 75.9436 38.6865C76.0677 39.454 76.5486 40.6388 77.4785 39.2379Z" fill="white"/>
<path d="M69.666 44.1914L72.3298 50.6306L74.8698 48.4309L70.4676 43.1816L69.666 44.1914Z" fill="white"/>
<path d="M76.1399 44.6462L76.6665 50.1181L74.8701 48.432L75.5957 43.46L76.1399 44.6462Z" fill="white"/>
<path fill-rule="evenodd" clip-rule="evenodd" d="M13.0783 50.9217C13.3061 51.0046 13.5574 51.0217 13.7892 50.9503C14.4304 50.7527 15.0899 51.2291 15.0899 51.9001C15.0899 52.1363 15.1785 52.3616 15.312 52.5564C15.655 53.0567 15.8483 53.6231 15.8483 54.2231C15.8483 56.2519 13.6378 57.8965 10.911 57.8965C8.18416 57.8965 5.97363 56.2519 5.97363 54.2231C5.97363 52.1944 8.18416 50.5498 10.911 50.5498C11.6885 50.5498 12.424 50.6835 13.0783 50.9217Z" fill="#4048FF"/>
<path fill-rule="evenodd" clip-rule="evenodd" d="M12.3143 43.9963C12.1678 44.058 12.0561 44.1788 11.9854 44.3212C11.4212 45.4571 9.95268 46.2669 8.22989 46.2669C6.01945 46.2669 4.22754 44.9338 4.22754 43.2892C4.22754 41.6447 6.01945 40.3115 8.22989 40.3115C10.1181 40.3115 11.701 41.2844 12.1223 42.5931C12.1801 42.7726 12.313 42.924 12.4949 42.9736C12.9427 43.0955 12.9838 43.7146 12.556 43.8946L12.3143 43.9963Z" fill="#EC2281"/>
<circle cx="11.4734" cy="55.9695" r="0.768363" fill="white"/>
<circle cx="12.3191" cy="52.8543" r="0.768363" fill="white"/>
<circle cx="9.40263" cy="54.1868" r="1.05009" fill="white"/>
<path d="M12.0049 52.9727L9.30176 54.1947L11.5791 56.0832" stroke="white" stroke-width="0.836024"/>
<path d="M9.28337 42.1065C8.77235 41.9195 8.35611 42.4633 8.35611 42.4633C8.35611 42.4633 7.95765 41.9443 7.43813 42.1052C6.62395 42.3577 6.69684 43.366 7.09762 43.8843C7.48114 44.3801 8.27884 44.8834 8.35611 44.9339V44.937C8.35611 44.9375 8.35637 44.9377 8.35637 44.9377C8.35637 44.9377 8.35689 44.937 8.35792 44.9362C8.35895 44.937 8.3574 44.9377 8.3574 44.9377C8.3574 44.9377 8.35611 44.9375 8.35611 44.937V44.9339C8.43338 44.8834 9.22851 44.3412 9.61177 43.8454C10.0126 43.3269 10.0754 42.3963 9.28337 42.1065Z" fill="white"/>
<path d="M117.295 11.8902L115.907 10.915L113.544 14.2772L114.931 15.2524L117.295 11.8902Z" fill="#F62054"/>
<path d="M116.367 7.98537C115.992 7.72179 115.474 7.81213 115.211 8.18734L114.459 9.25696L113.527 8.60227L112.315 7.75028L112.09 7.59236C111.715 7.32877 111.198 7.41912 110.934 7.79433C110.67 8.16934 110.761 8.68708 111.136 8.95066L111.36 9.10859L110.282 10.6425C109.879 11.2157 110.017 12.0071 110.591 12.4103L112.557 13.7921C112.832 13.9854 113.211 13.919 113.404 13.6443L115.559 10.579L115.817 10.2117L116.569 9.14211C116.832 8.7667 116.742 8.24896 116.367 7.98537Z" fill="#F62054"/>
<path d="M116.368 7.98705C115.993 7.72346 115.475 7.81381 115.211 8.18902L115.187 8.22391C115.45 7.84889 115.968 7.75855 116.343 8.02214C116.718 8.28572 116.808 8.80346 116.545 9.17847L116.569 9.14358C116.833 8.76837 116.743 8.25063 116.368 7.98705Z" fill="#F62054"/>
<path d="M114.425 14.4991C114.584 14.6113 114.805 14.5729 114.917 14.4132C115.029 14.2536 114.991 14.0332 114.831 13.921C114.671 13.8087 114.451 13.8472 114.339 14.0069C114.227 14.1665 114.265 14.3869 114.425 14.4991Z" fill="#F62054"/>
<g opacity="0.5" filter="url(#filter0_f)">
<path d="M114.841 49.2801L113.839 49.7197L114.904 52.1474L115.906 51.7078L114.841 49.2801Z" fill="#F62054"/>
<path d="M112.379 48.4892C112.108 48.608 111.985 48.9239 112.104 49.1948L112.443 49.9671L111.77 50.2623L110.895 50.6463L110.733 50.7175C110.462 50.8364 110.339 51.1522 110.458 51.4232C110.577 51.6939 110.893 51.8171 111.163 51.6983L111.326 51.6271L111.812 52.7347C111.993 53.1486 112.476 53.3371 112.89 53.1553L114.31 52.5324C114.508 52.4453 114.598 52.2138 114.511 52.0154L113.54 49.8021L113.424 49.537L113.085 48.7647C112.966 48.4936 112.65 48.3704 112.379 48.4892Z" fill="#F62054"/>
<path d="M112.379 48.487C112.108 48.6058 111.985 48.9217 112.104 49.1926L112.115 49.2178C111.996 48.947 112.119 48.6311 112.39 48.5123C112.661 48.3935 112.977 48.5167 113.096 48.7875L113.085 48.7623C112.966 48.4914 112.65 48.3682 112.379 48.487Z" fill="#F62054"/>
<path d="M115.323 51.736C115.438 51.6854 115.49 51.551 115.44 51.4357C115.389 51.3204 115.255 51.268 115.139 51.3186C115.024 51.3691 114.972 51.5036 115.022 51.6189C115.073 51.7342 115.207 51.7866 115.323 51.736Z" fill="#F62054"/>
</g>
<path fill-rule="evenodd" clip-rule="evenodd" d="M122.634 30.793C122.556 31.0559 122.277 31.2073 122.015 31.1298C121.752 31.0521 121.6 30.774 121.677 30.5108L121.869 29.8627L120.161 29.3587L119.969 30.0074C119.892 30.2702 119.614 30.4218 119.35 30.3442C119.087 30.2665 118.936 29.9886 119.014 29.7254L119.205 29.0767L118.557 28.8855C118.294 28.808 118.143 28.53 118.22 28.2667C118.298 28.0039 118.576 27.8524 118.839 27.93L119.487 28.1211L119.991 26.4137L119.343 26.2226C119.081 26.145 118.929 25.8663 119.007 25.6031C119.084 25.341 119.363 25.1887 119.626 25.2663L120.273 25.4574L120.464 24.8106C120.542 24.5477 120.82 24.3961 121.083 24.4738C121.346 24.5513 121.497 24.8294 121.42 25.0926L121.229 25.7393L122.937 26.2434L123.128 25.596C123.205 25.3331 123.484 25.1817 123.747 25.2594C124.009 25.3367 124.162 25.615 124.084 25.8782L123.893 26.5256L124.54 26.7166C124.803 26.794 124.955 27.0729 124.877 27.3354C124.8 27.5983 124.521 27.7504 124.258 27.673L123.611 27.4819L123.107 29.1893L123.754 29.3803C124.016 29.4577 124.168 29.7359 124.091 29.9991C124.013 30.262 123.734 30.4134 123.472 30.3359L122.825 30.1449L122.634 30.793ZM122.654 27.1997L120.946 26.6957L120.443 28.4031L122.151 28.9071L122.654 27.1997Z" fill="#F62054"/>
</g>
<defs>
<filter id="filter0_f" x="106.741" y="44.7699" width="12.8369" height="12.1266" filterUnits="userSpaceOnUse" color-interpolation-filters="sRGB">
<feFlood flood-opacity="0" result="BackgroundImageFix"/>
<feBlend mode="normal" in="SourceGraphic" in2="BackgroundImageFix" result="shape"/>
<feGaussianBlur stdDeviation="1.83577" result="effect1_foregroundBlur"/>
</filter>
<linearGradient id="paint0_linear" x1="41.3427" y1="55.5406" x2="21.3244" y2="66.4684" gradientUnits="userSpaceOnUse">
<stop stop-color="#420B00"/>
<stop offset="1" stop-color="#8C4739" stop-opacity="0"/>
</linearGradient>
<linearGradient id="paint1_linear" x1="33.9293" y1="52.8721" x2="51.2094" y2="57.7879" gradientUnits="userSpaceOnUse">
<stop stop-color="#420B00"/>
<stop offset="1" stop-color="#8C4739" stop-opacity="0"/>
</linearGradient>
<linearGradient id="paint2_linear" x1="35.5515" y1="43.1437" x2="46.8874" y2="47.2291" gradientUnits="userSpaceOnUse">
<stop stop-color="#420B00"/>
<stop offset="1" stop-color="#8C4739" stop-opacity="0"/>
</linearGradient>
<linearGradient id="paint3_linear" x1="61.4024" y1="62.8765" x2="48.4962" y2="65.067" gradientUnits="userSpaceOnUse">
<stop stop-color="#420B00"/>
<stop offset="1" stop-color="#8C4739" stop-opacity="0"/>
</linearGradient>
<linearGradient id="paint4_linear" x1="108.74" y1="11.7327" x2="117.04" y2="14.9919" gradientUnits="userSpaceOnUse">
<stop stop-color="#4080FF"/>
<stop offset="1" stop-color="#1F2337"/>
</linearGradient>
</defs>
</svg>
