<svg width="162" height="182" viewBox="0 0 162 182" fill="none" xmlns="http://www.w3.org/2000/svg">
<g style="mix-blend-mode:overlay">
<circle cx="68.2613" cy="109.101" r="50.9673" fill="white"/>
</g>
<path opacity="0.3" fill-rule="evenodd" clip-rule="evenodd" d="M78.5417 175.366C88.3863 175.667 103.193 172.655 103.324 168.385C103.454 164.115 88.8589 160.205 79.0143 159.904C76.0741 159.814 73.2907 160.038 70.8293 160.51C68.6962 160.048 66.3418 159.756 63.8625 159.68C54.0179 159.379 35.9914 166.13 35.8609 170.4C35.7304 174.669 43.6052 178.375 53.4498 178.676C58.6587 178.835 66.1582 177.02 72.0854 174.643C74.0814 175.043 76.2586 175.296 78.5417 175.366Z" fill="#3C1F73"/>
<path d="M52.774 171.239C52.9106 170.002 57.6819 169.564 61.7354 162.288L66.1285 162.773C66.0406 163.863 65.8304 166.181 65.692 166.726C65.5191 167.407 63.2798 167.836 62.8928 168.244C62.5058 168.651 52.3903 174.718 52.774 171.239Z" fill="black"/>
<path d="M97.0636 168.914C97.0028 167.67 92.2672 166.943 88.6656 159.432L84.2512 159.648C84.2722 160.742 84.3406 163.068 84.4454 163.62C84.5764 164.31 86.7852 164.876 87.1466 165.306C87.5081 165.737 97.2341 172.41 97.0636 168.914Z" fill="black"/>
<path d="M43.741 168.554L46.4295 160.984C47.0956 157.564 49.3678 159.559 49.4097 159.952C50.1946 167.333 45.9578 168.762 43.741 168.554Z" fill="#78372A"/>
<path d="M75.0335 163.116L71.6158 155.846C70.6175 152.508 68.5856 154.675 68.5825 155.071C68.5251 162.494 72.8478 163.541 75.0335 163.116Z" fill="#78372A"/>
<path d="M49.3243 163.574C47.9878 168.231 45.3437 167.833 44.1887 167.051C42.5288 168.634 40.1035 171.618 43.6818 170.897C47.26 170.176 48.8888 167.206 49.2559 165.811L49.3243 163.574Z" fill="#F52079"/>
<path d="M49.3419 166.887L49.4815 162.319L49.0122 166.063L48.9784 167.168L49.3419 166.887Z" fill="#F52079"/>
<path d="M69.6991 163.914L69.1637 159.564L69.9477 163.062L70.088 164.159L69.6991 163.914Z" fill="#F52079"/>
<path d="M69.0297 158.938C71.0721 163.332 73.6224 162.528 74.6422 161.577C76.5274 162.883 79.3861 165.455 75.7393 165.297C72.0925 165.14 70.023 162.458 69.444 161.137L69.0297 158.938Z" fill="#F52079"/>
<path d="M32.8646 112.363C31.2175 98.2413 33.3363 91.6968 36.8311 87.2197C41.7835 87.3711 52.6184 88.6297 56.3392 92.4531C60.06 96.2766 62.2947 117.671 66.1317 133.048L71.7458 156.443L68.4915 157.256L56.4864 132.753L52.2723 123.674L45.6448 112.754C44.3615 127.068 46.88 128.584 47.1027 131.858C49.172 162.282 51.6569 161.375 46.1905 161.702L32.8646 112.363Z" fill="black"/>
<path d="M42.1975 44.9644C41.4237 43.1141 43.0989 42.3132 44.0332 42.1441C46.9843 41.6412 49.028 57.2421 48.8358 57.7107C48.6435 58.1793 44.412 59.8292 41.0932 58.7788C37.7745 57.7285 39.2518 55.9648 42.816 51.8926C44.0582 50.4734 43.1647 47.2773 42.1975 44.9644Z" fill="#F52079"/>
<path d="M29.2623 64.8715C31.7079 66.0492 36.7822 60.7511 42.6611 58.2309C43.5708 63.9236 37.5146 73.8939 29.0443 72.0047C22.9417 70.6435 19.6165 56.0169 21.6848 54.127C20.8961 57.3772 26.8167 63.6939 29.2623 64.8715Z" fill="#8C4739"/>
<path d="M29.2623 64.8715C31.7079 66.0492 36.7822 60.7511 42.6611 58.2309C43.5708 63.9236 37.5146 73.8939 29.0443 72.0047C22.9417 70.6435 19.6165 56.0169 21.6848 54.127C20.8961 57.3772 26.8167 63.6939 29.2623 64.8715Z" fill="url(#paint0_linear)"/>
<path d="M45.9676 53.6965L46.2772 57.1903L44.8788 57.7397L41.1962 66.2251L42.3904 74.6004L57.0854 58.5332L52.6233 57.6959L50.1491 50.2453L45.9676 53.6965Z" fill="#8C4739"/>
<path d="M45.9676 53.6965L46.2772 57.1903L44.8788 57.7397L41.1962 66.2251L42.3904 74.6004L57.0854 58.5332L52.6233 57.6959L50.1491 50.2453L45.9676 53.6965Z" fill="url(#paint1_linear)"/>
<path fill-rule="evenodd" clip-rule="evenodd" d="M46.9446 54.8465C44.3808 55.6303 43.147 54.3488 43.2704 53.0141L43.5049 49.8125L42.6234 49.6243L43.6478 47.8622L44.0847 41.8988L51.5376 41.9607L53.4386 46.9733L53.3554 49.6932L51.145 53.1365L46.9446 54.8465Z" fill="#8C4739"/>
<path fill-rule="evenodd" clip-rule="evenodd" d="M46.9446 54.8465C44.3808 55.6303 43.147 54.3488 43.2704 53.0141L43.5049 49.8125L42.6234 49.6243L43.6478 47.8622L44.0847 41.8988L51.5376 41.9607L53.4386 46.9733L53.3554 49.6932L51.145 53.1365L46.9446 54.8465Z" fill="url(#paint2_linear)"/>
<path fill-rule="evenodd" clip-rule="evenodd" d="M45.2124 57.5906C43.8194 60.1081 41.4876 65.7423 43.621 68.6621C45.8927 65.947 51.1424 60.3457 53.967 59.6609C55.4289 59.3066 56.2041 58.7546 56.581 58.2178C57.6189 58.5741 58.8125 59.1078 60.3423 59.9042C65.4773 62.5774 60.4784 69.4149 56.4683 74.9001C54.626 77.42 52.9924 79.6545 52.6458 81.0687C52.0681 83.4258 54.2894 86.366 56.2156 88.9157C57.2265 90.2538 58.1561 91.4844 58.5573 92.4666C58.5573 92.4666 53.7845 93.728 50.7245 94.5296C42.3808 96.7152 33.7538 92.7085 33.7538 92.7085C34.9225 89.8268 35.5966 88.8743 36.2798 87.9093C36.9212 87.003 37.5706 86.0856 38.6447 83.5489C40.1206 80.0635 38.63 75.6759 37.4919 72.326C36.9197 70.6417 36.4365 69.2196 36.4645 68.3065C36.5421 65.7675 38.1853 63.938 39.5717 62.3944C40.4464 61.4206 41.2188 60.5606 41.4313 59.7082C41.7805 58.307 43.2173 57.7771 45.2124 57.5906Z" fill="#4F2674"/>
<path d="M21.0411 55.877L20.1637 48.4962C20.0604 47.6275 20.555 46.798 21.3684 46.4759C22.5528 46.0069 23.8584 46.7949 23.9953 48.0615L24.7937 55.4512C24.9379 56.7855 23.6831 57.8402 22.3935 57.4686C21.6636 57.2583 21.1308 56.6312 21.0411 55.877Z" fill="black"/>
<path d="M20.8486 51.4957C19.823 53.6147 20.546 56.8965 21.2801 59.0731L21.8986 57.5479C24.1619 56.4737 23.126 55.3424 23.1595 54.2454C23.2014 52.8741 24.22 52.0242 24.7295 50.324C25.239 48.6239 22.1305 48.8469 20.8486 51.4957Z" fill="#8C4739"/>
<path d="M23.4592 47.8782C23.1294 46.5514 20.4246 49.563 20.5302 51.4918C20.6622 53.9029 21.7032 48.7915 23.4592 47.8782Z" fill="#8C4739"/>
<path d="M58.2865 67.098C56.8309 62.689 57.7648 60.7977 60.7116 60.8878C62.9678 60.2414 69.4774 72.1987 66.5218 80.4206C64.8923 84.9535 59.018 90.5514 55.7223 89.9778C57.5537 88.3243 61.1743 82.1378 62.0567 79.2841C63.1597 75.7171 60.106 72.6093 58.2865 67.098Z" fill="#8C4739"/>
<path d="M58.2865 67.098C56.8309 62.689 57.7648 60.7977 60.7116 60.8878C62.9678 60.2414 69.4774 72.1987 66.5218 80.4206C64.8923 84.9535 59.018 90.5514 55.7223 89.9778C57.5537 88.3243 61.1743 82.1378 62.0567 79.2841C63.1597 75.7171 60.106 72.6093 58.2865 67.098Z" fill="url(#paint3_linear)"/>
<path d="M53.4984 90.5517C54.3718 88.5246 56.3633 88.561 57.7268 88.8472C58.1507 89.943 58.7172 92.3564 58.9845 94.5441C59.3185 97.2788 56.5105 97.4025 56.5553 95.9369C56.6001 94.4712 55.2013 91.4421 54.2348 91.8317C53.4617 92.1434 54.6929 94.4129 53.7988 94.3856C53.3477 94.1797 52.6251 92.5789 53.4984 90.5517Z" fill="#8C4739"/>
<path d="M19.7623 41.4717C19.7631 41.4425 19.7642 41.4139 19.7656 41.3858C19.7647 41.4145 19.7636 41.4432 19.7623 41.4717C19.7226 42.8666 20.2643 45.4172 22.774 45.101C21.5251 45.4503 19.0623 46.9474 19.2017 50.142C19.0456 48.7851 18.2127 46.1147 16.1291 46.288C17.2913 45.9323 19.6276 44.4734 19.7623 41.4717Z" fill="white"/>
<ellipse cx="20.8181" cy="47.8719" rx="0.299553" ry="0.434303" transform="rotate(-4.91186 20.8181 47.8719)" fill="white"/>
<path d="M44.4177 51.215C45.0322 51.1752 46.4554 50.9364 47.2325 50.2999C46.9647 51.6852 46.0268 53.8075 44.4177 51.215Z" fill="white"/>
<path d="M43.6306 43.3139C41.3533 41.025 42.7686 39.5176 43.761 39.05C61.1835 38.0354 52.544 44.92 57.0795 50.1267C61.615 55.3334 60.6352 59.4646 59.6775 59.382C58.7198 59.2994 58.3218 61.8479 51.3083 64.4077C44.2948 66.9674 51.5833 50.1721 51.1204 47.864C50.6575 45.5559 46.4774 46.175 43.6306 43.3139Z" fill="#F52079"/>
<path d="M95.8706 91.4468L72.1721 90.7224C70.4853 97.7265 62.3078 156.676 61.7929 162.683L65.8113 162.806L82.5431 105.535C82.6994 107.148 84.0412 160.311 84.209 161.264L88.5363 159.918L95.8706 91.4468Z" fill="#00161D"/>
<path d="M105.697 76.3488C99.7127 71.4328 94.1744 64.9386 89.5299 58.128C85.9711 53.0449 87.7157 50.5365 91.4862 49.2617C93.8246 49.5093 95.7865 50.3565 97.542 52.7421C102.599 59.6146 104.761 63.604 108.557 70.4574L105.697 76.3488Z" fill="#F52079"/>
<path d="M112.378 54.1909L110.55 53.398L108.464 58.2609L111.922 59.944C112.195 57.7365 112.316 55.7115 112.378 54.1909Z" fill="#E3E3E3"/>
<path d="M108.464 58.2612L104.007 68.6506L106.704 73.9687C109.926 70.7915 112.115 65.0237 112.728 60.0626L108.464 58.2612Z" fill="#F52079"/>
<path d="M114.041 56.9426L112.755 57.3574C112.157 57.5502 111.503 57.3924 111.054 56.9528C108.734 54.6779 106.432 49.8305 105.551 46.9131L111.017 45.1506C111.694 47.5958 113.529 52.0934 114.969 54.2052C115.65 55.2026 115.19 56.5721 114.041 56.9426Z" fill="#001744"/>
<path d="M109.647 45.5937L105.009 47.0892C102.447 47.9153 99.701 46.5083 98.8751 43.9466C98.049 41.3851 99.4561 38.6389 102.018 37.8128L106.656 36.3173L109.647 45.5937Z" fill="#001744"/>
<path d="M105.975 36.7727C105.081 37.2265 104.983 39.418 105.73 41.7361C106.478 44.0543 107.838 45.7757 108.828 45.6191C108.828 45.6217 130.443 46.3518 130.443 46.3518L123.091 23.5537L105.975 36.7727Z" fill="#F52079"/>
<path d="M122.914 22.1391C120.467 22.9281 120.321 29.2676 122.589 36.2988C124.856 43.3301 128.677 48.3904 131.124 47.6014C133.571 46.8124 133.717 40.4729 131.45 33.4417C129.183 26.4105 125.361 21.3501 122.914 22.1391Z" fill="#001744"/>
<path d="M122.587 36.3003C123.082 37.8364 123.652 39.2785 124.265 40.586L129.279 38.0433L127 30.9764L121.446 31.8416C121.712 33.2611 122.092 34.7641 122.587 36.3003Z" fill="url(#paint4_linear)"/>
<path d="M127.002 30.9812C126.323 31.2002 126.283 32.9596 126.912 34.911C127.541 36.8624 128.602 38.2668 129.281 38.0479C129.96 37.8289 130.001 36.0694 129.371 34.118C128.742 32.1666 127.682 30.7622 127.002 30.9812Z" fill="#F52079"/>
<path d="M131.304 48.165C129.863 48.6295 128.092 47.5909 126.317 45.2405C124.666 43.0544 123.142 39.9438 122.026 36.4819C120.91 33.0201 120.329 29.6053 120.392 26.8666C120.46 23.922 121.291 22.0445 122.731 21.58C124.172 21.1156 125.943 22.1539 127.718 24.5045C129.369 26.6905 130.893 29.8012 132.009 33.2631C133.126 36.725 133.705 40.1398 133.643 42.8785C133.575 45.823 132.744 47.7004 131.304 48.165ZM123.093 22.7016C121.263 23.2918 120.835 28.9478 123.147 36.1204C125.46 43.2927 129.111 47.6336 130.942 47.0434C132.772 46.4532 133.2 40.7972 130.887 33.6247C128.575 26.4522 124.924 22.1113 123.093 22.7016Z" fill="#4F2674"/>
<path d="M111.318 57.1729L108.645 53.1309L107.586 50.6516L106.913 50.9391L107.383 53.8528L109.006 56.523L111.318 57.1729ZM111.482 50.1963L113.683 53.8949L114.348 52.6072L113.753 51.0235L112.673 48.6093L112.221 48.6255L111.482 50.1963Z" fill="#F4ACC8"/>
<path d="M94.7563 79.5375C95.0536 74.4293 96.3012 63.0568 96.8411 55.8038C97.0565 52.9101 95.2441 50.2452 92.4662 49.4078C85.3559 47.2638 76.9302 46.3714 70.7447 48.8641C69.0364 49.5526 67.9541 51.1644 67.9694 53.0995C68.0466 62.8894 72.5649 78.8592 72.5649 78.8592L69.1875 97.0821L97.5024 97.9476L94.7302 79.5367L94.7563 79.5375Z" fill="#F52079"/>
<path d="M90.1996 79.6529L89.6887 48.6552C86.0048 47.7625 82.1079 47.2499 78.4363 47.3793L85.6148 79.5375L84.5335 93.2943L89.6797 93.4516L90.1996 79.6529Z" fill="#E3E3E3"/>
<path d="M55.5543 55.0689L53.58 56.2588C53.6497 57.1654 53.7541 58.2599 53.9026 59.4714L57.5202 58.6619L55.5543 55.0689Z" fill="#F52079"/>
<path d="M61.5731 76.7008C62.7108 69.6083 64.3604 58.6392 68.6035 50.9123L77.543 56.1372C75.1173 63.7027 71.2764 73.4262 67.6455 79.6491L61.5731 76.7008Z" fill="#F52079"/>
<path d="M66.3489 80.2474L82.3644 86.7426L85.316 83.3107C80.9358 79.1141 73.1546 73.8422 67.185 73.498C64.387 73.4465 62.1811 74.2914 61.2453 76.8947L66.3489 80.2474Z" fill="#F52079"/>
<path d="M84.5342 93.2943L84.2017 97.5212L90.0115 97.6987L89.6804 93.4516L84.5342 93.2943Z" fill="#00161D"/>
<path d="M87.0481 43.9848L85.5569 52.3951L80.1605 47.5703L83.0852 40.2847L87.0481 43.9848Z" fill="#F4ACC8"/>
<path d="M89.7823 43.4696C89.8239 44.8093 88.5141 46.013 86.0031 45.0741L81.9148 43.1107L80.002 36.819L82.2056 31.9319L89.6484 32.3252L89.7823 43.4696Z" fill="#F4ACC8"/>
<path d="M88.9854 36.8369L90.6375 40.1263L89.1638 40.348L88.9854 36.8369Z" fill="#F4ACC8"/>
<path d="M89.7585 40.4365L87.7926 40.3764C86.5283 40.557 85.207 41.0436 84.8748 39.8104C84.8748 39.8104 84.3999 36.6283 84.3939 35.8893L89.9558 34.3534L91.3834 30.1821L89.5332 30.5571L82.3598 30.6187C79.1661 30.6109 77.8771 32.9947 78.8809 36.5286L80.2596 40.8117C80.6313 41.9661 80.7118 42.5907 81.8594 42.9827L82.3094 41.7804C82.5818 41.0521 82.4618 40.2537 82.0552 39.5908C81.9899 39.484 81.9297 39.3678 81.8775 39.2435C81.5588 38.4868 81.6452 37.728 82.0708 37.5485C82.4964 37.3691 83.1 37.8372 83.4188 38.5939C83.6989 39.2586 83.7465 43.7408 83.7465 43.7408L86.3715 45.1749C88.9357 45.9567 90.1685 44.6744 90.0443 43.3398L89.7585 40.4365Z" fill="#4F2674"/>
<path d="M88.8694 41.9577C88.4836 41.9089 87.5959 41.7035 87.1307 41.2724C87.2461 42.1558 87.7553 43.5295 88.8694 41.9577Z" fill="white"/>
<path d="M79.7469 47.3596L82.5723 54.8276L85.5583 52.3972L80.7002 46.2312L79.7469 47.3596Z" fill="white"/>
<path d="M87.1461 48.1052L87.5577 54.3905L85.5593 52.3965L86.5644 46.7275L87.1461 48.1052Z" fill="white"/>
<path fill-rule="evenodd" clip-rule="evenodd" d="M14.7081 53.0868C14.9661 53.1898 15.2533 53.2182 15.5212 53.1445C16.2628 52.9406 17.0014 53.5095 16.9779 54.2783C16.9696 54.5488 17.0631 54.81 17.2092 55.0378C17.5842 55.6225 17.7857 56.2778 17.7647 56.9648C17.6937 59.2882 15.1045 61.0944 11.9815 60.999C8.85849 60.9035 6.38438 58.9426 6.4554 56.6191C6.52641 54.2956 9.11566 52.4895 12.2386 52.5849C13.1292 52.6122 13.967 52.7911 14.7081 53.0868Z" fill="#4048FF"/>
<path fill-rule="evenodd" clip-rule="evenodd" d="M14.0748 45.1287C13.9049 45.1942 13.7727 45.3286 13.6867 45.4892C13.0007 46.7701 11.2906 47.646 9.31774 47.5857C6.78616 47.5084 4.78058 45.9188 4.83815 44.0353C4.89571 42.1518 6.99463 40.6877 9.52621 40.7651C11.689 40.8312 13.4678 42.001 13.9043 43.5148C13.9642 43.7224 14.1111 43.9006 14.3178 43.9637C14.8263 44.119 14.8516 44.8294 14.3555 45.0205L14.0748 45.1287Z" fill="#EC2281"/>
<circle cx="12.691" cy="58.8112" r="0.880403" transform="rotate(1.75071 12.691 58.8112)" fill="white"/>
<circle cx="13.7681" cy="55.2731" r="0.880403" transform="rotate(1.75071 13.7681 55.2731)" fill="white"/>
<circle cx="10.3817" cy="56.6964" r="1.20321" transform="rotate(1.75071 10.3817 56.6964)" fill="white"/>
<path d="M13.4035 55.3974L10.2648 56.7023L12.8069 58.9449" stroke="white" stroke-width="1.04217"/>
<path d="M10.6692 42.8561C10.0905 42.6241 9.59471 43.2322 9.59471 43.2322C9.59471 43.2322 9.15653 42.6239 8.55589 42.7901C7.61459 43.0507 7.66277 44.2081 8.10364 44.8157C8.52552 45.3969 9.42149 46.0013 9.50822 46.0618L9.50812 46.0653C9.5081 46.0659 9.50838 46.0662 9.50838 46.0662C9.50838 46.0662 9.509 46.0654 9.51021 46.0645C9.51136 46.0654 9.50956 46.0663 9.50956 46.0663C9.50956 46.0663 9.5081 46.0659 9.50812 46.0653L9.50822 46.0618C9.59849 46.0067 10.5281 45.4136 10.9844 44.8591C11.4616 44.2793 11.5661 43.2157 10.6692 42.8561Z" fill="white"/>
<path d="M135.43 12.0297L133.875 10.8643L131.051 14.6322L132.606 15.7976L135.43 12.0297Z" fill="#F52079"/>
<path d="M134.504 7.52563C134.084 7.21063 133.488 7.29597 133.173 7.71646L132.274 8.91516L131.23 8.13275L129.872 7.11455L129.62 6.92582C129.2 6.61081 128.604 6.69615 128.289 7.11665C127.974 7.53692 128.059 8.13303 128.479 8.44804L128.731 8.63677L127.442 10.3558C126.961 10.9982 127.091 11.9094 127.734 12.3912L129.937 14.0426C130.245 14.2735 130.682 14.2108 130.913 13.9029L133.488 10.4677L133.796 10.0562L134.694 8.85748C135.01 8.43676 134.924 7.84064 134.504 7.52563Z" fill="#F52079"/>
<path d="M134.506 7.52742C134.086 7.21242 133.49 7.29776 133.175 7.71826L133.145 7.75735C133.46 7.33708 134.056 7.25174 134.477 7.56675C134.897 7.88175 134.982 8.47787 134.667 8.89814L134.697 8.85904C135.012 8.43855 134.926 7.84243 134.506 7.52742Z" fill="#F52079"/>
<path d="M132.052 14.9171C132.231 15.0512 132.485 15.0149 132.619 14.836C132.753 14.6571 132.717 14.4033 132.538 14.2692C132.359 14.1351 132.105 14.1714 131.971 14.3503C131.837 14.5293 131.873 14.783 132.052 14.9171Z" fill="#F52079"/>
<g opacity="0.5" filter="url(#filter0_f)">
<path d="M131.312 54.767L130.149 55.2354L131.284 58.053L132.447 57.5846L131.312 54.767Z" fill="#F52079"/>
<path d="M128.519 53.7732C128.205 53.8998 128.053 54.2572 128.18 54.5717L128.541 55.4681L127.76 55.7825L126.744 56.1918L126.556 56.2676C126.242 56.3942 126.09 56.7517 126.216 57.0661C126.343 57.3804 126.7 57.5326 127.015 57.406L127.203 57.3301L127.721 58.6156C127.914 59.096 128.46 59.3288 128.941 59.1351L130.589 58.4714C130.819 58.3786 130.931 58.1166 130.838 57.8864L129.803 55.3175L129.679 55.0097L129.318 54.1134C129.191 53.7987 128.834 53.6466 128.519 53.7732Z" fill="#F52079"/>
<path d="M128.52 53.7727C128.206 53.8993 128.054 54.2568 128.18 54.5712L128.192 54.6004C128.066 54.2862 128.218 53.9287 128.532 53.8021C128.846 53.6755 129.204 53.8277 129.33 54.1419L129.319 54.1127C129.192 53.7982 128.835 53.6461 128.52 53.7727Z" fill="#F52079"/>
<path d="M131.779 57.5959C131.913 57.542 131.978 57.3899 131.924 57.2561C131.87 57.1223 131.718 57.0575 131.584 57.1114C131.45 57.1653 131.385 57.3174 131.439 57.4512C131.493 57.585 131.645 57.6498 131.779 57.5959Z" fill="#F52079"/>
</g>
<path fill-rule="evenodd" clip-rule="evenodd" d="M137.859 32.8743C137.761 33.1726 137.437 33.3365 137.138 33.2383C136.84 33.1401 136.676 32.8166 136.774 32.5179L137.016 31.7823L136.28 31.5405C135.982 31.4425 135.818 31.1188 135.916 30.8201C136.014 30.5217 136.339 30.358 136.637 30.456L137.373 30.6977L138.009 28.7602L137.275 28.5188C136.976 28.4207 136.813 28.0962 136.911 27.7975C137.009 27.5 137.333 27.3354 137.631 27.4334L138.366 27.6748L138.607 26.9398C138.706 26.6414 139.029 26.4775 139.328 26.5757C139.626 26.6737 139.79 26.9975 139.692 27.2962L139.451 28.0312L141.389 28.6681L141.63 27.9332C141.728 27.6348 142.053 27.4712 142.351 27.5693C142.649 27.6671 142.814 27.9911 142.715 28.2898L142.474 29.0248L143.21 29.2665C143.507 29.3643 143.671 29.6891 143.574 29.987C143.476 30.2854 143.151 30.4498 142.853 30.3519L142.117 30.1102L141.48 32.0478L142.215 32.2891C142.512 32.3869 142.677 32.7108 142.579 33.0096C142.481 33.3079 142.156 33.4716 141.859 33.3736L141.124 33.1323L140.882 33.8679C140.784 34.1662 140.46 34.3299 140.162 34.232C139.863 34.1338 139.699 33.81 139.797 33.5112L140.039 32.7756L138.101 32.1387L137.859 32.8743ZM141.032 29.7535L139.094 29.1166L138.457 31.0542L140.395 31.6911L141.032 29.7535Z" fill="#F52079"/>
<g style="mix-blend-mode:overlay">
<path d="M150.668 44.9672C151.736 43.2418 153.752 42.4672 155.626 42.8904C155.538 41.8732 154.991 40.9087 154.056 40.3301C152.483 39.357 150.42 39.843 149.447 41.4152C148.87 42.3484 148.81 43.4533 149.182 44.4012C148.908 44.5498 148.473 44.6176 147.959 44.0825C147.959 44.0825 148.189 45.6828 149.967 45.5818C150.056 45.6679 150.151 45.7498 150.252 45.8273C150.358 45.5328 150.496 45.2443 150.668 44.9672Z" fill="#F52079"/>
</g>
<g style="mix-blend-mode:overlay">
<path d="M156.801 43.8594C158.769 45.0774 159.377 47.6598 158.159 49.6278C157.436 50.7956 156.232 51.4801 154.962 51.5927C154.948 51.9828 155.116 52.5084 156.002 52.7852C156.002 52.7852 154.081 53.4207 153.201 51.3734C152.924 51.275 152.651 51.1476 152.39 50.9863C150.422 49.7683 149.814 47.1858 151.032 45.2179C152.25 43.2497 154.832 42.6414 156.801 43.8594Z" fill="#F52079"/>
</g>
<defs>
<filter id="filter0_f" x="121.595" y="49.1516" width="15.4291" height="14.6285" filterUnits="userSpaceOnUse" color-interpolation-filters="sRGB">
<feFlood flood-opacity="0" result="BackgroundImageFix"/>
<feBlend mode="normal" in="SourceGraphic" in2="BackgroundImageFix" result="shape"/>
<feGaussianBlur stdDeviation="2.28844" result="effect1_foregroundBlur"/>
</filter>
<linearGradient id="paint0_linear" x1="46.9172" y1="59.3634" x2="23.6081" y2="71.1781" gradientUnits="userSpaceOnUse">
<stop stop-color="#420B00"/>
<stop offset="1" stop-color="#8C4739" stop-opacity="0"/>
</linearGradient>
<linearGradient id="paint1_linear" x1="38.517" y1="56.0492" x2="58.1355" y2="62.2841" gradientUnits="userSpaceOnUse">
<stop stop-color="#420B00"/>
<stop offset="1" stop-color="#8C4739" stop-opacity="0"/>
</linearGradient>
<linearGradient id="paint2_linear" x1="40.7156" y1="44.9639" x2="53.5551" y2="50.0393" gradientUnits="userSpaceOnUse">
<stop stop-color="#420B00"/>
<stop offset="1" stop-color="#8C4739" stop-opacity="0"/>
</linearGradient>
<linearGradient id="paint3_linear" x1="69.6334" y1="68.4681" x2="54.7755" y2="70.5251" gradientUnits="userSpaceOnUse">
<stop stop-color="#420B00"/>
<stop offset="1" stop-color="#8C4739" stop-opacity="0"/>
</linearGradient>
<linearGradient id="paint4_linear" x1="125.633" y1="11.55" x2="135.025" y2="15.5733" gradientUnits="userSpaceOnUse">
<stop stop-color="#4080FF"/>
<stop offset="1" stop-color="#1F2337"/>
</linearGradient>
</defs>
</svg>
