<svg width="100" height="115" viewBox="0 0 100 115" fill="none" xmlns="http://www.w3.org/2000/svg">
<circle cx="49.6633" cy="65.1037" r="49.4016" fill="#7783BC"/>
<mask id="mask0" mask-type="alpha" maskUnits="userSpaceOnUse" x="1" y="0" width="97" height="115">
<path d="M97.5047 68.4483C97.5047 93.8851 76.0855 114.506 49.6635 114.506C23.2415 114.506 1.82227 93.8851 1.82227 68.4483C1.82227 43.0116 60.0447 27.1081 71.8906 0.755859C91.0559 13.5327 86.2646 21.5182 97.5047 68.4483Z" fill="url(#paint0_linear)"/>
</mask>
<g mask="url(#mask0)">
<mask id="mask1" mask-type="alpha" maskUnits="userSpaceOnUse" x="3" y="-1" width="98" height="125">
<rect x="3.73535" y="-0.171875" width="96.6803" height="123.234" fill="#C4C4C4"/>
</mask>
<g mask="url(#mask1)">
<g style="mix-blend-mode:screen">
<path fill-rule="evenodd" clip-rule="evenodd" d="M46.5928 98.9897C51.3724 93.9857 62.1486 99.285 62.0439 104.165C72.4349 106.336 74.5211 121.667 60.8469 123.024C65.8694 132.545 45.2186 138.883 40.5118 131.562C36.7022 138.107 23.8771 135.068 24.3236 127.594C16.9711 129.403 10.8536 120.378 13.7223 117.528C6.721 117.55 1.71816 101.856 17.1587 101.878C19.1204 96.4308 26.853 93.8535 32.4972 100.653C34.8028 97.0927 44.3683 95.0564 46.5928 98.9897Z" fill="#DADBF0"/>
<path fill-rule="evenodd" clip-rule="evenodd" d="M69.4536 109.85C72.0376 115.122 69.8866 122.127 60.8461 123.024C65.8685 132.545 45.2178 138.884 40.5109 131.562C36.7014 138.108 23.8763 135.068 24.3228 127.594C16.9702 129.404 10.8528 120.378 13.7215 117.529C7.92034 117.547 3.49159 106.775 10.9271 103.094C3.66592 108.1 10.6948 116.608 15.8471 115.375C13.167 118.036 17.5932 129.263 26.2077 125.63C25.7905 132.611 37.672 136.321 41.5589 128.801C45.9556 135.64 63.6762 129.544 58.9841 120.651C69.5972 120.383 70.1087 114.467 69.4536 109.85Z" fill="#C8D0E8"/>
<path fill-rule="evenodd" clip-rule="evenodd" d="M45.3491 94.727C49.201 90.117 59.0394 93.0158 59.2191 97.2507C65.6051 98.3747 68.5656 106.539 56.8289 108.494C60.1311 113.9 53.6452 116.102 48.9245 114.989C48.0507 117.217 44.0931 118.532 41.8044 116.972C39.2645 120.523 27.546 120.781 28.7634 114.464C22.7852 115.678 20.9078 111.174 23.2281 108.541C17.5663 109.106 11.494 99.1097 25.1602 96.9101C26.5529 92.0777 33.0203 90.84 36.8037 94.3814C38.5967 91.1647 43.2098 91.4443 45.3491 94.727Z" fill="#DADBF0"/>
<path fill-rule="evenodd" clip-rule="evenodd" d="M63.6876 99.803C66.4187 102.975 64.5726 107.65 56.8282 108.495C60.1304 113.901 53.6445 116.103 48.9238 114.99C48.05 117.218 44.0925 118.533 41.8037 116.973C39.2638 120.524 27.5453 120.782 28.7627 114.465C22.7845 115.679 20.9071 111.175 23.2275 108.541C18.3058 109.034 13.077 101.545 20.7696 98.1337C15.1651 101.372 18.0306 106.246 24.9497 107.765C22.237 111.307 28.7136 114.623 30.5498 111.809C28.9774 118.192 39.264 117.981 40.8406 113.823C44.1635 116.503 49.0648 115.56 48.5431 111.984C54.5355 113.741 57.5132 111.029 55.4174 106.898C61.1653 106.195 65.8005 104.904 63.6876 99.803Z" fill="#C8D0E8"/>
<path fill-rule="evenodd" clip-rule="evenodd" d="M60.4406 54.2909C59.164 60.7013 42.6619 96.438 48.9243 99.8869C52.2833 101.736 52.0988 105.593 44.1909 106.929C42.3317 109.375 32.9266 112.562 32.7685 106.319C25.9735 105.269 28.7949 101.679 32.2351 99.8386C33.2257 99.3084 34.4527 98.9291 35.4628 97.964C40.8196 92.8461 56.0419 61.3525 60.4406 54.2909Z" fill="#DADBF0"/>
<path fill-rule="evenodd" clip-rule="evenodd" d="M50.5053 74.9682L50.4972 75.0072C47.99 80.1721 41.466 91.4475 36.0263 98.2698C35.1785 99.3335 34.3448 100.143 33.2017 100.713C28.5571 103.028 31.6799 105.544 34.6772 104.608C33.6588 108.443 41.166 109.661 44.5878 106.277C50.0679 106.855 50.8767 103.649 50.3621 100.973C53.6278 103.879 52.1378 108.432 45.337 107.457C43.4778 109.903 32.9269 112.562 32.7688 106.319C25.9738 105.268 28.141 99.3141 31.6624 99.5743C32.9657 99.6705 34.7074 98.4659 35.8723 97.2892C41.083 92.0293 46.2328 81.8272 50.5053 74.9682Z" fill="#C8D0E8"/>
</g>
<path fill-rule="evenodd" clip-rule="evenodd" d="M49.3278 81.7377C48.8664 80.0211 47.8461 73.6957 47.9691 72.0354L46.9336 73.7371C46.2077 66.85 47.4713 64.8657 51.4228 59.9724L61.1736 63.0734C60.7989 69.4789 60.7932 71.8254 55.7834 76.8586L56.0447 74.8837C55.0988 76.2538 51.0009 80.3942 49.3278 81.7377Z" fill="url(#paint1_linear)"/>
<path fill-rule="evenodd" clip-rule="evenodd" d="M51.1404 76.3943C50.8149 75.1824 50.0947 70.717 50.181 69.5448L49.4504 70.7464C48.938 65.8843 49.8295 64.4837 52.6191 61.0291L59.5027 63.2182C59.2384 67.7399 59.2348 69.3966 55.6979 72.95L55.882 71.5558C55.2141 72.5225 52.3212 75.4459 51.1404 76.3943Z" fill="#FF5959"/>
<path fill-rule="evenodd" clip-rule="evenodd" d="M52.4547 72.5345C52.2161 71.6473 51.6892 68.3794 51.7528 67.5214L51.2174 68.4011C50.8423 64.8426 51.495 63.8173 53.5366 61.2891L58.5748 62.8912C58.3813 66.2006 58.3784 67.4133 55.7899 70.0139L55.9251 68.9932C55.4364 69.7008 53.3188 71.8407 52.4547 72.5345Z" fill="#FFDDD2"/>
<path fill-rule="evenodd" clip-rule="evenodd" d="M62.738 66.6362C64.2714 64.4933 65.5322 62.5285 67.0573 60.4123L50.7396 55.1416C50.501 54.538 49.4108 54.7688 49.4404 54.2158C49.238 56.7633 48.9846 59.1773 48.9194 61.7755C48.8105 62.677 49.1648 63.7127 50.0327 64.751C51.2498 66.2148 53.0092 67.1525 54.7311 67.6888C57.3285 68.4981 60.8094 69.0655 62.738 66.6362Z" fill="url(#paint2_linear)"/>
<path fill-rule="evenodd" clip-rule="evenodd" d="M54.3273 56.3005L50.7396 55.1416C50.501 54.538 49.4108 54.7688 49.4404 54.2158C49.238 56.7633 48.9846 59.1773 48.9194 61.7755C48.8105 62.677 49.1648 63.7127 50.0327 64.751C51.2107 66.1677 52.9833 67.1444 54.7311 67.6888C57.2469 68.4726 60.5919 69.0294 62.552 66.856C60.1171 68.7075 55.0644 67.0728 53.539 65.8686C53.7404 62.6179 53.9927 59.4283 54.3273 56.3005Z" fill="url(#paint3_linear)"/>
<path fill-rule="evenodd" clip-rule="evenodd" d="M65.3079 55.6794C62.6975 52.5618 57.2946 50.6141 53.2397 51.3332C49.185 52.0524 48.014 55.1631 50.625 58.2811C53.2346 61.4018 58.6387 63.3461 62.6929 62.6269C66.7478 61.9078 67.9185 58.797 65.3079 55.6794Z" fill="#0A3C5F"/>
<path fill-rule="evenodd" clip-rule="evenodd" d="M80.3569 36.388C81.1424 33.0086 81.5065 29.4843 81.4229 26.0554C81.3995 25.1046 81.3391 24.1542 81.2372 23.2064C79.14 8.1003 74.601 3.22752 61.4583 16.0559C60.9283 16.5734 60.4283 17.1239 59.9331 17.6802C57.7322 20.1654 55.6907 23.1811 54.0662 26.3782C50.3454 33.704 48.16 44.437 49.2731 52.5744C49.3954 53.5302 49.5565 54.294 49.8077 54.9972C50.0402 55.6476 50.3432 56.2442 50.9355 56.9522C53.7741 60.3062 59.4433 62.2602 63.6326 61.5237C64.9022 61.2957 65.8132 60.9071 66.7255 60.1566C67.4085 59.5949 68.1832 58.81 68.7066 58.2802C74.0683 52.8584 78.5757 44.0461 80.3569 36.388Z" fill="#DADBF0"/>
<path fill-rule="evenodd" clip-rule="evenodd" d="M61.4595 16.0565C59.5952 17.8765 57.6852 20.3574 56.3268 22.4556C55.2006 24.1948 54.1848 26.0262 53.3313 27.9172C50.0646 35.1507 48.2363 44.9908 49.2743 52.5751C49.3966 53.5309 49.5577 54.2947 49.8088 54.9979C50.9447 58.174 54.9294 60.3231 57.9901 61.1512C59.9211 61.6738 61.9037 61.8286 63.6335 61.5246C64.8939 61.2977 65.4029 61.1467 66.7071 60.173C62.8971 62.1418 57.1273 60.2075 53.9983 57.7273C53.9618 45.3947 56.0773 33.7486 62.4762 24.9754C63.497 25.6791 72.4346 30.2584 77.6987 26.8472L61.6907 16.2103C61.963 15.9161 62.24 15.6272 62.5262 15.3481C64.6019 13.3222 66.4629 11.7387 68.1331 10.5664C66.1981 11.7775 63.9885 13.5879 61.4595 16.0565Z" fill="#C2BEDB"/>
<path fill-rule="evenodd" clip-rule="evenodd" d="M81.0945 21.8654C80.463 17.0644 79.0899 11.169 76.3526 7.14524C76.2985 7.06673 76.2351 6.97434 76.1718 6.88194C76.1251 6.81392 75.9983 6.61946 75.8274 6.56133C75.6665 6.50605 75.4615 6.58415 75.3678 6.61215C70.4525 8.08406 65.3046 11.9767 61.8173 15.5554C61.5955 15.7831 61.388 16.0203 61.2426 16.2463C60.3527 17.5788 60.5279 19.1647 61.2312 20.5631C61.9081 21.9098 63.064 23.0757 64.2031 23.9368C64.3598 24.0618 64.5219 24.1845 64.6882 24.3042C67.8062 26.5461 72.5372 27.7897 76.067 27.2971C77.3641 27.1161 78.6488 26.7016 79.6279 25.9481C80.1096 25.5773 80.5171 25.1189 80.8021 24.5477C80.9862 24.1798 81.1188 23.776 81.1624 23.3934C81.2204 22.8873 81.1596 22.3602 81.0945 21.8654Z" fill="url(#paint4_linear)"/>
<path fill-rule="evenodd" clip-rule="evenodd" d="M75.8836 6.58585C75.8655 6.57607 75.8466 6.56766 75.8274 6.56133C75.6665 6.50605 75.4615 6.58415 75.3678 6.61216C70.4525 8.08406 65.3046 11.9767 61.8173 15.5554C61.5955 15.7831 61.388 16.0203 61.2426 16.2463C60.3527 17.5788 60.5279 19.1647 61.2312 20.5631C61.2409 20.5825 61.2501 20.6015 61.2601 20.6206L61.268 20.6355L61.293 20.6829L61.2983 20.6934C61.3191 20.7327 61.3402 20.7717 61.3618 20.8107L61.367 20.8198C61.3772 20.8379 61.3872 20.8558 61.3974 20.8742L61.3987 20.8764C61.4103 20.8965 61.4217 20.9164 61.4334 20.9362L61.4339 20.9374C61.4564 20.9762 61.4797 21.0151 61.503 21.0538L61.5098 21.0646C61.5449 21.1227 61.5812 21.1803 61.6179 21.2374L61.6231 21.2452C61.6347 21.2634 61.6464 21.2812 61.6585 21.2993L61.6593 21.3011C61.6987 21.3605 61.7387 21.4193 61.7793 21.4777L61.78 21.479C61.8209 21.5375 61.8621 21.595 61.9043 21.6525L61.9059 21.6545C61.934 21.6925 61.9621 21.7303 61.9905 21.7679L61.9927 21.7707L62.0329 21.8228L62.037 21.8284C62.1238 21.9406 62.2126 22.0503 62.3044 22.1586L62.3096 22.1653L62.3484 22.2113L62.3563 22.22C62.3854 22.2538 62.4142 22.2869 62.444 22.3203L62.4549 22.3328L62.4888 22.3708L62.4998 22.383C62.5301 22.4165 62.5603 22.4495 62.5907 22.4826L62.5971 22.4898L62.6368 22.5325L62.6458 22.5421L62.6793 22.5783L62.6941 22.5934L62.7363 22.6378L62.7495 22.6517L62.781 22.6847L62.7979 22.702L62.8372 22.7419L62.8406 22.7454L62.8891 22.7941L62.8962 22.8016L62.9365 22.8418L62.9459 22.8509L62.9842 22.8887L62.9959 22.9L63.0376 22.94L63.0632 22.9648L63.0833 22.9842L63.1073 23.0071L63.1364 23.0349L63.1499 23.0476L63.1925 23.0875L63.2082 23.102L63.2418 23.1332L63.2627 23.1523L63.2865 23.1748L63.3124 23.1984L63.3371 23.2208L63.3554 23.2376L63.3955 23.2735C63.6614 23.5108 63.933 23.7323 64.2036 23.9369C64.3603 24.0619 64.5224 24.1846 64.6887 24.3043C67.8066 26.5465 72.5377 27.7899 76.0675 27.2972C77.3365 27.1204 78.7377 26.6918 79.7577 25.8459C78.0573 26.6977 71.289 28.9197 64.1189 21.8639C67.1215 16.4426 70.9089 11.482 75.8836 6.58585Z" fill="#1E2136"/>
<path fill-rule="evenodd" clip-rule="evenodd" d="M67.4135 30.6326C71.3567 32.0073 73.4661 36.2468 72.1223 40.1025C70.7779 43.9581 66.4912 45.9647 62.5476 44.5897C58.6019 43.2138 56.4906 38.977 57.835 35.1214C59.1793 31.2659 63.4673 29.2567 67.4135 30.6326Z" fill="#B5B0D2"/>
<path fill-rule="evenodd" clip-rule="evenodd" d="M63.3702 42.2308C60.8144 41.3397 59.4639 38.5515 60.3538 35.9997C61.2437 33.4479 64.0356 32.1002 66.5911 32.9913C69.1445 33.8814 70.4941 36.673 69.6043 39.2246C68.7149 41.7765 65.9233 43.1208 63.3702 42.2308ZM67.3153 30.9157C63.6131 29.6249 59.565 31.5749 58.2748 35.2747C56.9859 38.9718 58.9435 43.0186 62.6458 44.3094C66.3456 45.5993 70.3949 43.6463 71.6833 39.9494C72.9732 36.2493 71.0148 32.2055 67.3153 30.9157Z" fill="#EAE7F4"/>
<path fill-rule="evenodd" clip-rule="evenodd" d="M63.3687 42.2309C65.9139 43.1183 68.7166 41.7672 69.6028 39.2246C70.4905 36.6792 69.1351 33.8788 66.5896 32.9914C64.0424 32.1032 61.2398 33.454 60.3522 35.9997C59.4657 38.542 60.8212 41.3427 63.3687 42.2309Z" fill="url(#paint5_linear)"/>
<path fill-rule="evenodd" clip-rule="evenodd" d="M66.5897 32.9906C69.1431 33.8806 70.4927 36.6722 69.6029 39.2238C69.5021 39.5135 69.3766 39.7871 69.2291 40.0464C69.5757 37.7591 68.259 35.4782 65.9976 34.6896C63.7338 33.9004 61.2835 34.8682 60.1364 36.8765C60.1789 36.5808 60.2514 36.2883 60.3521 35.9989C61.2423 33.4471 64.0339 32.0994 66.5897 32.9906Z" fill="#0A3C5F"/>
<path fill-rule="evenodd" clip-rule="evenodd" d="M66.7035 32.6679C66.9742 32.7624 67.2698 32.6208 67.3643 32.3503C67.4597 32.0764 67.3159 31.7821 67.0451 31.6878C66.7722 31.5924 66.4764 31.7337 66.381 32.0076C66.2864 32.2786 66.4303 32.5729 66.7035 32.6679Z" fill="#1466A0"/>
<path fill-rule="evenodd" clip-rule="evenodd" d="M62.9132 43.5381C63.1837 43.6326 63.4805 43.4884 63.575 43.2177C63.6693 42.9471 63.5267 42.6491 63.2559 42.5548C62.9829 42.4597 62.6861 42.604 62.592 42.875C62.497 43.1454 62.6397 43.4429 62.9132 43.5381Z" fill="#1466A0"/>
<path fill-rule="evenodd" clip-rule="evenodd" d="M70.9113 39.6804C70.8168 39.9511 70.5202 40.0957 70.2472 40.0005C69.9762 39.9062 69.831 39.6078 69.9251 39.3367C70.0194 39.0662 70.32 38.9197 70.5907 39.014C70.8642 39.109 71.0056 39.4099 70.9113 39.6804Z" fill="#1466A0"/>
<path fill-rule="evenodd" clip-rule="evenodd" d="M60.03 35.8874C59.9357 36.1581 59.6364 36.3018 59.3659 36.2073C59.0927 36.1121 58.9502 35.8146 59.0443 35.5438C59.1383 35.273 59.4362 35.1255 59.7096 35.221C59.9804 35.3153 60.1247 35.617 60.03 35.8874Z" fill="#1466A0"/>
<path fill-rule="evenodd" clip-rule="evenodd" d="M70.6331 34.8826C70.7586 35.1428 70.6501 35.4537 70.391 35.5762C70.1337 35.7032 69.8203 35.5938 69.6946 35.3336C69.5703 35.077 69.6791 34.7662 69.9366 34.6395C70.1958 34.5172 70.5089 34.6266 70.6331 34.8826Z" fill="#1466A0"/>
<path fill-rule="evenodd" clip-rule="evenodd" d="M60.2621 39.8885C60.3851 40.148 60.2776 40.456 60.0199 40.5823C59.7597 40.7081 59.4463 40.5989 59.3235 40.3398C59.198 40.0796 59.3053 39.7716 59.5654 39.6459C59.8225 39.5188 60.1364 39.6283 60.2621 39.8885Z" fill="#1466A0"/>
<path fill-rule="evenodd" clip-rule="evenodd" d="M67.7119 43.2632C67.4544 43.3902 67.1413 43.2809 67.015 43.0205C66.892 42.7613 66.9995 42.4534 67.257 42.3266C67.5177 42.201 67.8307 42.3104 67.9536 42.5693C68.0791 42.8294 67.9721 43.1375 67.7119 43.2632Z" fill="#1466A0"/>
<path fill-rule="evenodd" clip-rule="evenodd" d="M62.6995 32.8952C62.4393 33.0212 62.1257 32.9117 62.0029 32.6526C61.8763 32.3956 61.9851 32.0845 62.2448 31.9587C62.5012 31.8352 62.815 31.9447 62.9416 32.2016C63.0647 32.4608 62.956 32.7723 62.6995 32.8952Z" fill="#1466A0"/>
<path fill-rule="evenodd" clip-rule="evenodd" d="M67.2172 59.1852L67.4385 58.9769L67.1983 59.2022L67.2172 59.1852Z" fill="#828388"/>
<path fill-rule="evenodd" clip-rule="evenodd" d="M72.8139 51.475L70.0018 52.0124C70.1119 64.2361 67.478 70.4601 64.3175 80.0895L67.1314 79.547L67.1282 79.5451C69.1239 75.1682 71.8106 70.6664 73.1515 66.1182C73.7497 64.091 74.0966 62.0357 74.1188 59.817C74.1474 56.9762 73.6708 54.2847 72.8139 51.475Z" fill="url(#paint6_linear)"/>
<path fill-rule="evenodd" clip-rule="evenodd" d="M70.0031 52.0134L63.8133 62.07C64.6382 67.1903 64.9177 73.0681 64.3187 80.0906C68.6018 70.7009 73.7854 64.4041 70.0031 52.0134Z" fill="#1E2136"/>
<path fill-rule="evenodd" clip-rule="evenodd" d="M50.2223 43.5999L52.0911 45.769C44.405 55.275 42.5986 61.7872 39.0882 71.2947L37.2211 69.1201L37.2252 69.1209C38.3828 64.4513 39.0771 59.2555 40.8544 54.8592C41.6467 52.8999 42.6526 51.0745 44.0143 49.3228C45.7577 47.0793 47.804 45.2675 50.2223 43.5999Z" fill="url(#paint7_linear)"/>
<path fill-rule="evenodd" clip-rule="evenodd" d="M52.0917 45.7677L50.6874 57.4926C46.8579 60.9904 42.9849 65.4206 39.0889 71.2932C41.5709 61.2756 41.4254 53.1214 52.0917 45.7677Z" fill="#1E2136"/>
<g style="mix-blend-mode:soft-light">
<path d="M68.1954 37.2659L63.1046 35.6626C63.7782 35.0085 64.8338 34.6794 65.8331 34.9941C66.4538 35.1896 66.9463 35.6125 67.2777 36.1106L68.0851 36.3649C67.7253 35.464 66.9788 34.7753 65.9992 34.4668C64.4686 33.9847 62.8567 34.6395 62.0838 36.0105L62.1163 36.0208L64.3959 36.7387L64.1589 37.491L61.7946 36.7464L61.6141 37.3195L63.9784 38.0642L63.1999 40.536L63.7731 40.7165L64.5516 38.2447L65.0173 38.3914L64.2388 40.8632L64.8478 41.055L65.6263 38.5832L67.2117 39.0825L67.3031 39.1113L67.777 39.2605C67.8884 39.0593 67.9832 38.8388 68.0537 38.6141C68.1934 38.1682 68.2364 37.712 68.1954 37.2659ZM65.1978 37.8182L64.7321 37.6715L64.969 36.9192L65.4348 37.0659L65.1978 37.8182ZM65.8068 38.01L66.0438 37.2577L67.6178 37.7534C67.6226 37.9518 67.5708 38.2317 67.496 38.4705C67.489 38.4929 67.4863 38.4996 67.4745 38.5352L65.8068 38.01Z" fill="white"/>
<path d="M68.1954 37.2659L63.1046 35.6626C63.7782 35.0085 64.8338 34.6794 65.8331 34.9941C66.4538 35.1896 66.9463 35.6125 67.2777 36.1106L68.0851 36.3649C67.7253 35.464 66.9788 34.7753 65.9992 34.4668C64.4686 33.9847 62.8567 34.6395 62.0838 36.0105L62.1163 36.0208L64.3959 36.7387L64.1589 37.491L61.7946 36.7464L61.6141 37.3195L63.9784 38.0642L63.1999 40.536L63.7731 40.7165L64.5516 38.2447L65.0173 38.3914L64.2388 40.8632L64.8478 41.055L65.6263 38.5832L67.2117 39.0825L67.3031 39.1113L67.777 39.2605C67.8884 39.0593 67.9832 38.8388 68.0537 38.6141C68.1934 38.1682 68.2364 37.712 68.1954 37.2659ZM65.1978 37.8182L64.7321 37.6715L64.969 36.9192L65.4348 37.0659L65.1978 37.8182ZM65.8068 38.01L66.0438 37.2577L67.6178 37.7534C67.6226 37.9518 67.5708 38.2317 67.496 38.4705C67.489 38.4929 67.4863 38.4996 67.4745 38.5352L65.8068 38.01Z" fill="white"/>
<path d="M66.3322 33.2445C63.9294 32.4877 61.359 33.8268 60.6022 36.2296C59.8455 38.6324 61.1846 41.2029 63.5874 41.9596C65.9902 42.7164 68.5607 41.3772 69.3174 38.9744C70.0741 36.5717 68.735 34.0012 66.3322 33.2445ZM63.7791 41.3509C61.7119 40.6999 60.5599 38.4885 61.211 36.4213C61.862 34.3542 64.0733 33.2021 66.1405 33.8531C68.2076 34.5042 69.3597 36.7156 68.7087 38.7827C68.0576 40.8499 65.8462 42.002 63.7791 41.3509Z" fill="white"/>
</g>
<g style="mix-blend-mode:soft-light">
<path d="M68.1788 37.2562L63.088 35.6528C63.7616 34.9987 64.8172 34.6696 65.8165 34.9844C66.4372 35.1799 66.9297 35.6027 67.2611 36.1008L68.0685 36.3551C67.7087 35.4543 66.9622 34.7656 65.9826 34.457C64.4519 33.975 62.8401 34.6297 62.0672 36.0008L62.0997 36.011L64.3793 36.7289L64.1423 37.4812L61.778 36.7366L61.5975 37.3098L63.9618 38.0544L63.1833 40.5262L63.7565 40.7068L64.535 38.2349L65.0007 38.3816L64.2222 40.8534L64.8312 41.0452L65.6097 38.5734L67.1951 39.0727L67.2865 39.1015L67.7604 39.2508C67.8718 39.0496 67.9666 38.829 68.0371 38.6043C68.1768 38.1584 68.2198 37.7022 68.1788 37.2562ZM65.1812 37.8084L64.7155 37.6617L64.9524 36.9095L65.4182 37.0561L65.1812 37.8084ZM65.7902 38.0002L66.0272 37.2479L67.6012 37.7437C67.6059 37.942 67.5542 38.2219 67.4794 38.4608C67.4724 38.4831 67.4697 38.4898 67.4579 38.5255L65.7902 38.0002Z" fill="white"/>
<path d="M68.1788 37.2562L63.088 35.6528C63.7616 34.9987 64.8172 34.6696 65.8165 34.9844C66.4372 35.1799 66.9297 35.6027 67.2611 36.1008L68.0685 36.3551C67.7087 35.4543 66.9622 34.7656 65.9826 34.457C64.4519 33.975 62.8401 34.6297 62.0672 36.0008L62.0997 36.011L64.3793 36.7289L64.1423 37.4812L61.778 36.7366L61.5975 37.3098L63.9618 38.0544L63.1833 40.5262L63.7565 40.7068L64.535 38.2349L65.0007 38.3816L64.2222 40.8534L64.8312 41.0452L65.6097 38.5734L67.1951 39.0727L67.2865 39.1015L67.7604 39.2508C67.8718 39.0496 67.9666 38.829 68.0371 38.6043C68.1768 38.1584 68.2198 37.7022 68.1788 37.2562ZM65.1812 37.8084L64.7155 37.6617L64.9524 36.9095L65.4182 37.0561L65.1812 37.8084ZM65.7902 38.0002L66.0272 37.2479L67.6012 37.7437C67.6059 37.942 67.5542 38.2219 67.4794 38.4608C67.4724 38.4831 67.4697 38.4898 67.4579 38.5255L65.7902 38.0002Z" fill="white"/>
<path d="M66.3175 33.2347C63.9148 32.478 61.3443 33.8171 60.5876 36.2198C59.8308 38.6226 61.17 41.1931 63.5728 41.9499C65.9756 42.7066 68.546 41.3674 69.3028 38.9646C70.0595 36.5619 68.7203 33.9914 66.3175 33.2347ZM63.7645 41.3412C61.6973 40.6901 60.5453 38.4787 61.1963 36.4115C61.8473 34.3444 64.0587 33.1923 66.1258 33.8434C68.193 34.4944 69.3451 36.7058 68.694 38.7729C68.043 40.8401 65.8316 41.9922 63.7645 41.3412Z" fill="white"/>
</g>
<g style="mix-blend-mode:soft-light">
<path d="M68.1954 37.2591L63.1046 35.6558C63.7782 35.0016 64.8338 34.6726 65.8331 34.9873C66.4538 35.1828 66.9463 35.6056 67.2777 36.1038L68.0851 36.3581C67.7253 35.4572 66.9788 34.7685 65.9992 34.46C64.4686 33.9779 62.8567 34.6327 62.0838 36.0037L62.1163 36.0139L64.3959 36.7319L64.1589 37.4842L61.7946 36.7395L61.6141 37.3127L63.9784 38.0573L63.1999 40.5292L63.7731 40.7097L64.5516 38.2379L65.0173 38.3845L64.2388 40.8564L64.8478 41.0482L65.6263 38.5763L67.2117 39.0756L67.3031 39.1044L67.777 39.2537C67.8884 39.0525 67.9832 38.832 68.0537 38.6073C68.1934 38.1614 68.2364 37.7051 68.1954 37.2591ZM65.1978 37.8113L64.7321 37.6647L64.969 36.9124L65.4348 37.0591L65.1978 37.8113ZM65.8068 38.0032L66.0438 37.2509L67.6178 37.7466C67.6226 37.945 67.5708 38.2248 67.496 38.4637C67.489 38.486 67.4863 38.4927 67.4745 38.5284L65.8068 38.0032Z" fill="white"/>
<path d="M68.1954 37.2591L63.1046 35.6558C63.7782 35.0016 64.8338 34.6726 65.8331 34.9873C66.4538 35.1828 66.9463 35.6056 67.2777 36.1038L68.0851 36.3581C67.7253 35.4572 66.9788 34.7685 65.9992 34.46C64.4686 33.9779 62.8567 34.6327 62.0838 36.0037L62.1163 36.0139L64.3959 36.7319L64.1589 37.4842L61.7946 36.7395L61.6141 37.3127L63.9784 38.0573L63.1999 40.5292L63.7731 40.7097L64.5516 38.2379L65.0173 38.3845L64.2388 40.8564L64.8478 41.0482L65.6263 38.5763L67.2117 39.0756L67.3031 39.1044L67.777 39.2537C67.8884 39.0525 67.9832 38.832 68.0537 38.6073C68.1934 38.1614 68.2364 37.7051 68.1954 37.2591ZM65.1978 37.8113L64.7321 37.6647L64.969 36.9124L65.4348 37.0591L65.1978 37.8113ZM65.8068 38.0032L66.0438 37.2509L67.6178 37.7466C67.6226 37.945 67.5708 38.2248 67.496 38.4637C67.489 38.486 67.4863 38.4927 67.4745 38.5284L65.8068 38.0032Z" fill="white"/>
<path d="M66.3332 33.2386C63.9304 32.4819 61.3599 33.821 60.6032 36.2237C59.8465 38.6265 61.1856 41.197 63.5884 41.9538C65.9912 42.7105 68.5616 41.3713 69.3184 38.9685C70.0751 36.5658 68.7359 33.9953 66.3332 33.2386ZM63.7801 41.3451C61.7129 40.694 60.5609 38.4826 61.2119 36.4154C61.8629 34.3483 64.0743 33.1962 66.1415 33.8473C68.2086 34.4983 69.3607 36.7097 68.7097 38.7768C68.0586 40.844 65.8472 41.9961 63.7801 41.3451Z" fill="white"/>
</g>
<circle cx="43.2763" cy="85.1942" r="2.52823" fill="#4048FF"/>
<circle cx="23.1972" cy="83.6523" r="3.95797" fill="#FB6C77"/>
<circle cx="33.447" cy="88.9577" r="4.08857" fill="#4048FF"/>
<path d="M33.421 90.6759L33.1314 90.8777C33.0075 90.9641 32.8353 90.9335 32.7489 90.8096L31.9664 89.687C31.88 89.5631 31.9107 89.3909 32.0346 89.3045L32.3241 89.1027C32.448 89.0163 32.6203 89.0469 32.7067 89.1708L33.4891 90.2934C33.5755 90.4173 33.5451 90.5895 33.421 90.6759Z" fill="white"/>
<path d="M34.5123 87.9128C34.5736 87.8154 34.575 87.6863 34.5051 87.5865C34.4122 87.4531 34.227 87.4202 34.0941 87.513L33.4052 87.9931C33.385 87.9361 33.3597 87.6475 33.3445 87.5474C33.3316 87.4614 33.2889 87.3801 33.2388 87.3091C33.1764 87.2195 33.0946 87.1431 33.0006 87.0865C32.8721 87.009 32.7074 86.9492 32.585 87.0726C32.4762 87.1824 32.4897 87.3748 32.6166 87.4643C32.6166 87.4643 32.7081 87.5329 32.7252 87.569C32.7476 87.6149 32.7371 87.7227 32.7299 87.8604C32.7149 88.1357 32.6991 88.5007 32.7113 88.6221C32.7256 88.7621 32.7545 88.8573 32.8073 88.9513C32.8134 88.9715 32.8226 88.9909 32.8355 89.0091L33.5487 90.0327C33.6148 90.1269 33.7455 90.1505 33.8398 90.0847L35.0519 89.2442C35.1756 89.1581 35.2059 88.9867 35.12 88.8629C35.0848 88.8127 35.0359 88.7782 34.9816 88.7602C35.0425 88.6692 35.0449 88.5462 34.9791 88.4517C34.9395 88.3952 34.8821 88.3584 34.8198 88.343C34.87 88.2481 34.8673 88.1289 34.8021 88.035C34.7349 87.9393 34.621 87.8956 34.5123 87.9128Z" fill="white"/>
<circle cx="42.9352" cy="102.507" r="3.32972" fill="#4048FF"/>
<path d="M42.9157 103.906L42.6798 104.07C42.5789 104.141 42.4387 104.116 42.3683 104.015L41.7311 103.101C41.6607 103 41.6857 102.86 41.7866 102.789L42.0224 102.625C42.1233 102.554 42.2636 102.579 42.334 102.68L42.9712 103.595C43.0415 103.695 43.0168 103.836 42.9157 103.906Z" fill="white"/>
<path d="M43.8053 101.655C43.8552 101.576 43.8563 101.471 43.7994 101.39C43.7237 101.281 43.5729 101.254 43.4647 101.33L42.9037 101.721C42.8872 101.674 42.8666 101.439 42.8542 101.358C42.8437 101.288 42.8089 101.221 42.7682 101.164C42.7173 101.091 42.6507 101.028 42.5741 100.982C42.4695 100.919 42.3354 100.871 42.2357 100.971C42.147 101.06 42.1581 101.217 42.2615 101.29C42.2615 101.29 42.336 101.346 42.3499 101.375C42.3681 101.413 42.3596 101.5 42.3537 101.613C42.3415 101.837 42.3286 102.134 42.3386 102.233C42.3502 102.347 42.3738 102.424 42.4168 102.501C42.4217 102.517 42.4292 102.533 42.4397 102.548L43.0206 103.382C43.0744 103.458 43.1808 103.478 43.2576 103.424L44.2447 102.74C44.3454 102.669 44.3701 102.53 44.3002 102.429C44.2715 102.388 44.2317 102.36 44.1874 102.345C44.237 102.271 44.239 102.171 44.1854 102.094C44.1532 102.048 44.1064 102.018 44.0557 102.006C44.0966 101.928 44.0944 101.831 44.0413 101.755C43.9866 101.677 43.8938 101.641 43.8053 101.655Z" fill="white"/>
<circle cx="65.2499" cy="99.1786" r="4.95593" fill="#4048FF"/>
<path d="M65.2203 101.259L64.8693 101.503C64.7191 101.608 64.5104 101.571 64.4056 101.421L63.4572 100.06C63.3525 99.9098 63.3896 99.701 63.5398 99.5962L63.8908 99.3516C64.041 99.2469 64.2498 99.2841 64.3545 99.4342L65.3029 100.795C65.4077 100.945 65.3708 101.154 65.2203 101.259Z" fill="white"/>
<path d="M66.5431 97.9111C66.6174 97.7931 66.619 97.6365 66.5343 97.5155C66.4216 97.3539 66.1972 97.3139 66.0361 97.4264L65.2011 98.0084C65.1766 97.9394 65.146 97.5895 65.1275 97.4682C65.1118 97.3639 65.0601 97.2654 64.9994 97.1793C64.9237 97.0708 64.8246 96.9781 64.7106 96.9095C64.5549 96.8156 64.3553 96.7431 64.2069 96.8926C64.0749 97.0257 64.0913 97.259 64.2452 97.3675C64.2452 97.3675 64.3561 97.4506 64.3768 97.4944C64.404 97.5499 64.3913 97.6807 64.3825 97.8476C64.3643 98.1813 64.3452 98.6237 64.36 98.7709C64.3773 98.9405 64.4124 99.0559 64.4764 99.1699C64.4837 99.1944 64.4949 99.218 64.5105 99.24L65.3751 100.481C65.4551 100.595 65.6136 100.623 65.7278 100.544L67.1971 99.5249C67.347 99.4206 67.3838 99.2128 67.2797 99.0628C67.2369 99.0019 67.1777 98.9601 67.1118 98.9383C67.1857 98.8279 67.1887 98.6789 67.1088 98.5644C67.0609 98.4958 66.9913 98.4513 66.9158 98.4326C66.9766 98.3175 66.9734 98.173 66.8944 98.0593C66.8129 97.9432 66.6748 97.8903 66.5431 97.9111Z" fill="white"/>
<circle cx="49.6769" cy="92.59" r="2.05872" fill="#4048FF"/>
<path d="M49.6638 93.4541L49.518 93.5557C49.4556 93.5992 49.3689 93.5837 49.3254 93.5214L48.9314 92.9561C48.8879 92.8937 48.9034 92.807 48.9658 92.7635L49.1116 92.6619C49.1739 92.6184 49.2607 92.6338 49.3042 92.6962L49.6982 93.2614C49.7417 93.3238 49.7264 93.4105 49.6638 93.4541Z" fill="white"/>
<path d="M50.2154 92.0643C50.2463 92.0153 50.247 91.9503 50.2118 91.9C50.165 91.8328 50.0717 91.8162 50.0048 91.863L49.658 92.1047C49.6478 92.0761 49.6351 91.9307 49.6274 91.8803C49.6209 91.837 49.5994 91.7961 49.5742 91.7603C49.5427 91.7152 49.5015 91.6767 49.4542 91.6482C49.3895 91.6092 49.3066 91.5791 49.245 91.6412C49.1901 91.6965 49.197 91.7934 49.2609 91.8385C49.2609 91.8385 49.3069 91.873 49.3156 91.8912C49.3268 91.9143 49.3215 91.9686 49.3179 92.0379C49.3104 92.1766 49.3024 92.3603 49.3086 92.4215C49.3157 92.4919 49.3303 92.5399 49.3569 92.5872C49.36 92.5974 49.3646 92.6072 49.3711 92.6163L49.7302 93.1318C49.7635 93.1792 49.8293 93.191 49.8768 93.1579L50.4871 92.7347C50.5494 92.6913 50.5647 92.6051 50.5214 92.5427C50.5037 92.5174 50.479 92.5001 50.4517 92.491C50.4824 92.4452 50.4836 92.3833 50.4504 92.3357C50.4305 92.3072 50.4016 92.2887 50.3702 92.2809C50.3955 92.2331 50.3942 92.1731 50.3613 92.1259C50.3275 92.0776 50.2702 92.0557 50.2154 92.0643Z" fill="white"/>
<circle cx="30.1901" cy="74.4802" r="2.57295" fill="#4048FF"/>
<path d="M30.1768 75.5608L29.9946 75.6878C29.9166 75.7422 29.8082 75.7229 29.7538 75.6449L29.2614 74.9385C29.2071 74.8605 29.2264 74.7521 29.3043 74.6977L29.4866 74.5707C29.5645 74.5164 29.6729 74.5357 29.7273 74.6136L30.2197 75.3201C30.2741 75.398 30.2549 75.5064 30.1768 75.5608Z" fill="white"/>
<path d="M30.865 73.822C30.9036 73.7607 30.9044 73.6794 30.8604 73.6166C30.8019 73.5327 30.6854 73.512 30.6018 73.5704L30.1683 73.8725C30.1556 73.8367 30.1397 73.655 30.1301 73.5921C30.1219 73.5379 30.0951 73.4868 30.0636 73.4421C30.0243 73.3857 29.9728 73.3376 29.9136 73.302C29.8328 73.2532 29.7292 73.2156 29.6521 73.2932C29.5836 73.3623 29.5921 73.4835 29.672 73.5398C29.672 73.5398 29.7296 73.5829 29.7404 73.6056C29.7544 73.6345 29.7478 73.7024 29.7433 73.789C29.7339 73.9623 29.7239 74.1919 29.7316 74.2684C29.7406 74.3564 29.7588 74.4164 29.792 74.4755C29.7958 74.4882 29.8017 74.5005 29.8097 74.5119L30.2586 75.1561C30.3002 75.2153 30.3824 75.2302 30.4417 75.1887L31.2045 74.6598C31.2824 74.6057 31.3015 74.4978 31.2474 74.4199C31.2252 74.3883 31.1944 74.3666 31.1603 74.3553C31.1986 74.298 31.2002 74.2206 31.1587 74.1611C31.1338 74.1256 31.0977 74.1024 31.0585 74.0927C31.0901 74.033 31.0884 73.958 31.0474 73.8989C31.0051 73.8387 30.9334 73.8112 30.865 73.822Z" fill="white"/>
<path d="M43.2581 86.2574L43.079 86.3822C43.0024 86.4357 42.8959 86.4167 42.8425 86.3401L42.3586 85.6459C42.3052 85.5693 42.3242 85.4628 42.4008 85.4094L42.5798 85.2846C42.6565 85.2312 42.763 85.2501 42.8164 85.3267L43.3002 86.0209C43.3537 86.0975 43.3348 86.204 43.2581 86.2574Z" fill="white"/>
<path d="M43.9362 84.5483C43.9741 84.4881 43.9749 84.4082 43.9317 84.3465C43.8742 84.264 43.7597 84.2436 43.6776 84.301L43.2516 84.5979C43.2391 84.5627 43.2234 84.3842 43.214 84.3223C43.206 84.2691 43.1796 84.2189 43.1487 84.175C43.1101 84.1196 43.0595 84.0723 43.0014 84.0373C42.9219 83.9894 42.8201 83.9524 42.7444 84.0287C42.6771 84.0966 42.6854 84.2156 42.764 84.2709C42.764 84.2709 42.8205 84.3133 42.8311 84.3357C42.8449 84.364 42.8384 84.4307 42.834 84.5159C42.8247 84.6861 42.8149 84.9118 42.8225 84.9869C42.8313 85.0734 42.8492 85.1323 42.8819 85.1904C42.8856 85.2029 42.8913 85.215 42.8993 85.2262L43.3403 85.8591C43.3812 85.9174 43.462 85.932 43.5203 85.8913L44.2698 85.3716C44.3463 85.3183 44.3651 85.2123 44.312 85.1358C44.2901 85.1047 44.2599 85.0834 44.2263 85.0723C44.264 85.016 44.2655 84.94 44.2248 84.8815C44.2003 84.8466 44.1648 84.8238 44.1263 84.8143C44.1573 84.7556 44.1557 84.6819 44.1154 84.6239C44.0738 84.5646 44.0034 84.5377 43.9362 84.5483Z" fill="white"/>
<path d="M21.9495 82.8358C22.4618 82.5374 22.9196 82.8678 23.086 83.0158C23.1136 82.7947 23.241 82.245 23.8227 82.1327C24.6646 81.9698 25.1486 82.9371 24.6887 83.9262C24.2378 84.8956 23.8987 85.1857 23.8987 85.1857C23.8987 85.1857 23.4555 85.189 22.4779 84.756C21.4803 84.3142 21.2087 83.2674 21.9495 82.8358Z" fill="white"/>
<circle cx="56.5998" cy="84.7937" r="3.95797" transform="rotate(43.4779 56.5998 84.7937)" fill="#FB6C77"/>
<path d="M56.093 83.3086C56.67 83.4446 56.7749 83.9993 56.7937 84.2212C56.9659 84.0798 57.4366 83.7685 57.936 84.0873C58.6589 84.5484 58.3446 85.5833 57.3303 85.9846C56.3361 86.3777 55.8904 86.355 55.8904 86.355C55.8904 86.355 55.5665 86.0524 55.1551 85.0655C54.7352 84.0586 55.2584 83.112 56.093 83.3086Z" fill="white"/>
<circle cx="29.2411" cy="99.3224" r="1.76434" transform="rotate(43.4779 29.2411 99.3224)" fill="#FB6C77"/>
<path d="M29.0153 98.6612C29.2725 98.7219 29.3193 98.9691 29.3277 99.068C29.4044 99.005 29.6142 98.8663 29.8369 99.0083C30.1591 99.2139 30.019 99.6752 29.5669 99.8541C29.1237 100.029 28.925 100.019 28.925 100.019C28.925 100.019 28.7806 99.8843 28.5972 99.4444C28.4101 98.9956 28.6433 98.5736 29.0153 98.6612Z" fill="white"/>
<circle cx="60.4266" cy="76.7267" r="1.76434" transform="rotate(43.4779 60.4266 76.7267)" fill="#FB6C77"/>
<path d="M60.2008 76.0645C60.4581 76.1252 60.5048 76.3724 60.5132 76.4714C60.59 76.4083 60.7998 76.2696 61.0224 76.4117C61.3447 76.6172 61.2045 77.0786 60.7524 77.2574C60.3092 77.4327 60.1106 77.4225 60.1106 77.4225C60.1106 77.4225 59.9662 77.2877 59.7828 76.8477C59.5956 76.3989 59.8288 75.9769 60.2008 76.0645Z" fill="white"/>
<g filter="url(#filter0_f)">
<circle cx="44.3355" cy="75.3723" r="1.75755" transform="rotate(15.5444 44.3355 75.3723)" fill="#FB6C77"/>
<path d="M43.8278 74.894C44.0825 74.8273 44.239 75.0231 44.2926 75.1062C44.3307 75.0149 44.4506 74.7949 44.7129 74.8161C45.0924 74.8466 45.1844 75.318 44.8699 75.6864C44.5616 76.0475 44.3821 76.1313 44.3821 76.1313C44.3821 76.1313 44.1921 76.0799 43.8254 75.7783C43.4512 75.4706 43.4595 74.9905 43.8278 74.894Z" fill="white"/>
</g>
</g>
</g>
<defs>
<filter id="filter0_f" x="42.3925" y="73.4296" width="3.88532" height="3.88532" filterUnits="userSpaceOnUse" color-interpolation-filters="sRGB">
<feFlood flood-opacity="0" result="BackgroundImageFix"/>
<feBlend mode="normal" in="SourceGraphic" in2="BackgroundImageFix" result="shape"/>
<feGaussianBlur stdDeviation="0.092333" result="effect1_foregroundBlur"/>
</filter>
<linearGradient id="paint0_linear" x1="88.9496" y1="24.335" x2="-0.461176" y2="132.35" gradientUnits="userSpaceOnUse">
<stop stop-color="#FF5562"/>
<stop offset="0.927083" stop-color="#4080FF"/>
</linearGradient>
<linearGradient id="paint1_linear" x1="55.6879" y1="61.0832" x2="43.6875" y2="95.4586" gradientUnits="userSpaceOnUse">
<stop stop-color="#DB2026"/>
<stop offset="0.505208" stop-color="#4080FF"/>
<stop offset="1" stop-color="#DB2026" stop-opacity="0"/>
</linearGradient>
<linearGradient id="paint2_linear" x1="30.6211" y1="76.2123" x2="73.3059" y2="63.6067" gradientUnits="userSpaceOnUse">
<stop stop-color="#0B1D69"/>
<stop offset="1" stop-color="#4080FF"/>
</linearGradient>
<linearGradient id="paint3_linear" x1="47.8847" y1="60.1894" x2="69.2229" y2="63.1448" gradientUnits="userSpaceOnUse">
<stop stop-color="#0B1D69"/>
<stop offset="1" stop-color="#4080FF"/>
</linearGradient>
<linearGradient id="paint4_linear" x1="61.55" y1="14.2769" x2="90.1465" y2="19.0943" gradientUnits="userSpaceOnUse">
<stop stop-color="#0B1D69"/>
<stop offset="1" stop-color="#4080FF"/>
</linearGradient>
<linearGradient id="paint5_linear" x1="60.1727" y1="36.6257" x2="73.3211" y2="38.8549" gradientUnits="userSpaceOnUse">
<stop stop-color="#0B1D69"/>
<stop offset="1" stop-color="#4080FF"/>
</linearGradient>
<linearGradient id="paint6_linear" x1="66.3542" y1="66.0182" x2="75.1442" y2="68.1274" gradientUnits="userSpaceOnUse">
<stop stop-color="#0B1D69"/>
<stop offset="1" stop-color="#4080FF"/>
</linearGradient>
<linearGradient id="paint7_linear" x1="40.013" y1="57.0441" x2="51.7821" y2="59.7849" gradientUnits="userSpaceOnUse">
<stop stop-color="#0B1D69"/>
<stop offset="1" stop-color="#4080FF"/>
</linearGradient>
</defs>
</svg>
