<svg width="109" height="90" viewBox="0 0 109 90" fill="none" xmlns="http://www.w3.org/2000/svg">
<path fill-rule="evenodd" clip-rule="evenodd" d="M46.7969 19.8628L57.4121 9.24759C60.9889 5.67078 66.788 5.67078 70.3649 9.24759L70.9749 9.85767C74.5517 13.4345 74.5517 19.2336 70.9749 22.8104L52.7112 41.0742C49.1344 44.651 43.3352 44.651 39.7584 41.0742L39.1483 40.4641C38.1851 39.5009 37.4812 38.3765 37.0368 37.1777C35.4524 38.6576 33.876 40.1539 32.4043 41.6269C33.0569 42.7546 33.8657 43.8167 34.8307 44.7817L35.4408 45.3918C41.4022 51.3531 51.0674 51.3531 57.0288 45.3918L75.2925 27.128C81.2539 21.1667 81.2539 11.5014 75.2925 5.54007L74.6825 4.93C68.7211 -1.03135 59.0559 -1.03135 53.0945 4.93L35.0486 22.9759C39.0075 19.9115 43.2318 18.7767 46.7969 19.8628Z" fill="url(#paint0_linear)"/>
<path fill-rule="evenodd" clip-rule="evenodd" d="M42.7483 54.1068L32.133 64.7221C28.5562 68.2989 22.757 68.2989 19.1802 64.7221L18.5701 64.1121C14.9933 60.5353 14.9933 54.7361 18.5701 51.1593L36.8339 32.8955C40.4107 29.3187 46.2099 29.3187 49.7867 32.8955L50.3967 33.5056C51.3108 34.4197 51.9913 35.4789 52.4382 36.6091C53.3 35.7031 54.1653 34.7971 55.0196 33.9024C55.6532 33.239 56.2807 32.5818 56.8965 31.9356C56.2897 30.959 55.5623 30.036 54.7143 29.188L54.1043 28.5779C48.1429 22.6166 38.4777 22.6166 32.5163 28.5779L14.2525 46.8417C8.29119 52.803 8.29118 62.4683 14.2525 68.4297L14.8626 69.0397C20.824 75.0011 30.4892 75.0011 36.4506 69.0397L54.495 50.9953C50.5365 54.0587 46.3129 55.1929 42.7483 54.1068Z" fill="url(#paint1_linear)"/>
<circle cx="75.1017" cy="33.4689" r="13.8757" fill="white" stroke="#00CC9E" stroke-width="2.39524"/>
<path d="M70.7666 33.1302L74.6754 35.9913L79.4372 30.9453" stroke="#00CC9E" stroke-width="4.31142" stroke-linecap="round"/>
<g opacity="0.5" filter="url(#filter0_f)">
<ellipse cx="54.7704" cy="84.1042" rx="52.1083" ry="3.48804" fill="url(#paint2_radial)"/>
</g>
<g style="mix-blend-mode:multiply">
<path d="M57.4126 9.22941L46.7974 19.8446C43.2329 18.7585 39.0093 19.8927 35.0508 22.956L46.9413 11.0655C53.4907 7.87112 58.9328 6.84779 61.9653 6.75C60.2969 7.10673 58.7088 7.93321 57.4126 9.22941Z" fill="url(#paint3_linear)"/>
</g>
<g style="mix-blend-mode:multiply">
<path d="M32.1362 64.7179L42.7514 54.1027C46.316 55.1888 50.5396 54.0546 54.498 50.9912L42.6075 62.8818C36.0581 66.0761 30.616 67.0995 27.5836 67.1973C29.252 66.8405 30.84 66.0141 32.1362 64.7179Z" fill="url(#paint4_linear)"/>
</g>
<defs>
<filter id="filter0_f" x="0.626777" y="78.5809" width="108.287" height="11.0467" filterUnits="userSpaceOnUse" color-interpolation-filters="sRGB">
<feFlood flood-opacity="0" result="BackgroundImageFix"/>
<feBlend mode="normal" in="SourceGraphic" in2="BackgroundImageFix" result="shape"/>
<feGaussianBlur stdDeviation="1.01767" result="effect1_foregroundBlur"/>
</filter>
<linearGradient id="paint0_linear" x1="57.5735" y1="-3.57177" x2="40.4467" y2="43.3322" gradientUnits="userSpaceOnUse">
<stop stop-color="white"/>
<stop offset="1" stop-color="#D6D6E8"/>
</linearGradient>
<linearGradient id="paint1_linear" x1="49.5576" y1="50.2199" x2="9.06959" y2="69.9131" gradientUnits="userSpaceOnUse">
<stop stop-color="white"/>
<stop offset="1" stop-color="#D6D6E8"/>
</linearGradient>
<radialGradient id="paint2_radial" cx="0" cy="0" r="1" gradientUnits="userSpaceOnUse" gradientTransform="translate(54.7704 84.1043) rotate(90) scale(3.48804 52.1083)">
<stop stop-color="#1F2337"/>
<stop offset="1" stop-color="#1F2337" stop-opacity="0"/>
</radialGradient>
<linearGradient id="paint3_linear" x1="70.3324" y1="15.5965" x2="42.4352" y2="13.9635" gradientUnits="userSpaceOnUse">
<stop stop-color="#ADADC8"/>
<stop offset="1" stop-color="#4048FF" stop-opacity="0"/>
</linearGradient>
<linearGradient id="paint4_linear" x1="19.2164" y1="58.3507" x2="47.1136" y2="59.9837" gradientUnits="userSpaceOnUse">
<stop stop-color="#ADADC8"/>
<stop offset="1" stop-color="#4048FF" stop-opacity="0"/>
</linearGradient>
</defs>
</svg>
