<svg width="126" height="41" viewBox="0 0 126 41" fill="none" xmlns="http://www.w3.org/2000/svg">
<path d="M11.1406 15.2818H11.056C12.7872 11.8788 16.3224 9.54698 20.4023 9.54698C23.0341 9.54698 25.4386 10.5168 27.2789 12.1187H27.3432H31.5203C29.0472 8.64781 24.989 6.38379 20.4023 6.38379C13.4025 6.38379 7.63481 11.6551 6.85101 18.445L15.6582 18.4443V21.6068H6.84961L6.85311 21.6313C6.98106 22.7221 7.23767 23.773 7.60685 24.77H15.6568V32.8199C16.6601 33.1919 17.7208 33.4499 18.8193 33.5772V24.7707H21.9818V33.5779C23.0809 33.4506 24.1409 33.1933 25.1443 32.8206V24.77H33.1942C33.7424 23.2926 34.0416 21.6942 34.0416 20.0259C34.0416 18.3576 33.7424 16.7593 33.1942 15.2818H31.321H11.1406V15.2818ZM21.9825 21.6075H18.82V18.445H21.9825V21.6075ZM30.7617 21.6075H25.1457V18.445H30.7617C30.84 18.9611 30.8805 19.4889 30.8805 20.0266C30.8805 20.5636 30.84 21.0915 30.7617 21.6075Z" fill="white"/>
<path d="M20.3906 0.0253906C9.34462 0.0253906 0.390625 8.98008 0.390625 20.0254C0.390625 31.0707 9.34462 40.0254 20.3906 40.0254C31.4366 40.0254 40.3906 31.0707 40.3906 20.0254C40.3906 8.98008 31.4366 0.0253906 20.3906 0.0253906ZM20.3906 36.8573C11.0947 36.8573 3.55871 29.3213 3.55871 20.0254C3.55871 10.7295 11.0947 3.19348 20.3906 3.19348C29.6865 3.19348 37.2225 10.7295 37.2225 20.0254C37.2225 29.3213 29.6865 36.8573 20.3906 36.8573Z" fill="white"/>
<path d="M58.6173 17.5013C54.1899 16.3671 53.0922 15.8183 53.0922 14.1353V14.0619C53.0922 12.818 54.2263 11.8307 56.3854 11.8307C58.5438 11.8307 60.7757 12.7816 63.0446 14.3548L65.9715 10.1114C63.3739 8.02566 60.1905 6.85449 56.4588 6.85449C51.2267 6.85449 47.495 9.92819 47.495 14.5751V14.6478C47.495 19.7338 50.8246 21.1609 55.9834 22.4775C60.2639 23.5752 61.1421 24.3073 61.1421 25.7337V25.8071C61.1421 27.3069 59.7521 28.2221 57.4468 28.2221C54.5199 28.2221 52.1049 27.0146 49.8003 25.1114L46.4707 29.0996C49.5444 31.8433 53.4592 33.1977 57.337 33.1977C62.8614 33.1977 66.7399 30.3435 66.7399 25.2582V25.1848C66.7392 20.7211 63.8123 18.8549 58.6173 17.5013Z" fill="white"/>
<path d="M108.032 7.21973V12.4148H113.845V32.8308H119.48V12.4148H125.293V7.21973H108.032Z" fill="white"/>
<path d="M89.8896 12.4148H95.7028V32.8308H101.338V12.4148H107.151V7.21973H89.8896V12.4148Z" fill="white"/>
<path d="M82.8958 13.5338C81.4932 12.822 79.9074 12.4199 78.2293 12.4199C72.5238 12.4199 67.8818 17.0619 67.8818 22.7674C67.8818 28.4729 72.5238 33.1149 78.2293 33.1149C79.9074 33.1149 81.4925 32.7129 82.8958 32.0011V33.1149H88.5768V12.4199H82.8958V13.5338ZM78.2293 27.4346C75.6563 27.4346 73.5629 25.3412 73.5629 22.7681C73.5629 20.1944 75.6563 18.1016 78.2293 18.1016C80.8024 18.1016 82.8958 20.1951 82.8958 22.7681C82.8958 25.3412 80.8017 27.4346 78.2293 27.4346Z" fill="white"/>
</svg>
