<svg width="20" height="20" viewBox="0 0 20 20" fill="none" xmlns="http://www.w3.org/2000/svg">
<path d="M14.0212 16.4299L13.4786 12.0855C13.4017 11.4702 13.1027 10.9042 12.6377 10.4938C12.1727 10.0835 11.5739 9.85718 10.9537 9.85742H9.0851C8.46526 9.8576 7.86682 10.0841 7.40221 10.4944C6.93759 10.9047 6.63878 11.4705 6.56192 12.0855L6.01846 16.4299C5.98863 16.6686 6.00993 16.9109 6.08093 17.1407C6.15192 17.3705 6.27101 17.5826 6.43026 17.7628C6.58951 17.9431 6.7853 18.0874 7.00461 18.1862C7.22392 18.285 7.46174 18.336 7.70227 18.3358H12.3383C12.5787 18.3359 12.8165 18.2848 13.0357 18.186C13.2549 18.0871 13.4506 17.9428 13.6097 17.7625C13.7689 17.5823 13.8879 17.3702 13.9588 17.1405C14.0298 16.9107 14.0511 16.6685 14.0212 16.4299V16.4299Z" stroke="white" stroke-width="1.80166" stroke-linecap="round" stroke-linejoin="round"/>
<path d="M10.0196 6.46595C11.4243 6.46595 12.5631 5.32718 12.5631 3.92243C12.5631 2.51768 11.4243 1.37891 10.0196 1.37891C8.61485 1.37891 7.47607 2.51768 7.47607 3.92243C7.47607 5.32718 8.61485 6.46595 10.0196 6.46595Z" stroke="white" stroke-width="1.80166"/>
<path d="M3.23792 9.00855C4.17442 9.00855 4.9336 8.24937 4.9336 7.31287C4.9336 6.37637 4.17442 5.61719 3.23792 5.61719C2.30142 5.61719 1.54224 6.37637 1.54224 7.31287C1.54224 8.24937 2.30142 9.00855 3.23792 9.00855Z" stroke="white" stroke-width="1.80166"/>
<path d="M16.8024 9.00855C17.7389 9.00855 18.4981 8.24937 18.4981 7.31287C18.4981 6.37637 17.7389 5.61719 16.8024 5.61719C15.8659 5.61719 15.1067 6.37637 15.1067 7.31287C15.1067 8.24937 15.8659 9.00855 16.8024 9.00855Z" stroke="white" stroke-width="1.80166"/>
<path d="M3.23766 11.5527H2.97822C2.57682 11.5527 2.18842 11.695 1.88211 11.9545C1.57581 12.2139 1.37146 12.5735 1.30543 12.9695L1.0231 14.6652C0.982584 14.9081 0.995479 15.157 1.06089 15.3944C1.1263 15.6319 1.24265 15.8522 1.40185 16.0402C1.56106 16.2281 1.75929 16.3791 1.98277 16.4826C2.20624 16.5862 2.44959 16.6398 2.69589 16.6398H5.78119" stroke="white" stroke-width="1.80166" stroke-linecap="round" stroke-linejoin="round"/>
<path d="M16.8028 11.5527H17.0622C17.4636 11.5527 17.852 11.695 18.1584 11.9545C18.4647 12.2139 18.669 12.5735 18.735 12.9695L19.0174 14.6652C19.0579 14.9081 19.045 15.157 18.9796 15.3944C18.9142 15.6319 18.7978 15.8522 18.6386 16.0402C18.4794 16.2281 18.2812 16.3791 18.0577 16.4826C17.8342 16.5862 17.5909 16.6398 17.3446 16.6398H14.2593" stroke="white" stroke-width="1.80166" stroke-linecap="round" stroke-linejoin="round"/>
</svg>
