<svg width="15" height="16" viewBox="0 0 15 16" fill="none" xmlns="http://www.w3.org/2000/svg">
<path fill-rule="evenodd" clip-rule="evenodd" d="M15 7.78309C15 6.4736 14.1522 5.44816 12.7501 5.44816H10.4454L10.4662 5.38922C10.4871 5.33072 10.5458 5.17004 10.6029 5.01399L10.6033 5.01296L10.604 5.01093C10.6541 4.87389 10.7027 4.74096 10.7229 4.68457C10.8655 4.28736 10.9696 3.96732 11.0538 3.65037C11.181 3.17132 11.2501 2.73973 11.2501 2.33493C11.2501 1.18925 10.569 0.477663 9.56138 0.173163C9.10689 0.0358242 8.71129 -7.13707e-05 8.25021 1.06471e-07H7.89059L7.66543 0.290998C7.41108 0.61971 6.91152 1.21212 6.33558 1.89512L6.33555 1.89515L6.33552 1.89518C5.27376 3.15428 3.95243 4.7212 3.42926 5.51135C3.29323 5.46925 3.14912 5.44665 2.99991 5.44665H1.49995C0.671553 5.44665 0 6.14357 0 7.00326V14.008C0 14.8677 0.671553 15.5647 1.49995 15.5647H2.99991C3.51468 15.5647 3.96889 15.2955 4.23902 14.8855C4.46689 15.0386 4.72119 15.1664 4.99765 15.269C5.62937 15.5036 6.2559 15.5756 6.77605 15.5657L12.0001 15.5662C14.0664 15.5662 15 12.409 15 7.78309ZM4.50107 7.00472C4.50107 6.81778 4.53439 6.65223 4.60735 6.47546C4.7384 6.15792 5.92747 4.75007 7.05449 3.41569L7.0545 3.41568L7.05454 3.41563L7.05458 3.41558C7.63621 2.72693 8.20131 2.05786 8.59592 1.56833C8.78448 1.58301 8.96221 1.61309 9.14278 1.66765C9.57255 1.79752 9.75091 1.98387 9.75091 2.33487C9.75091 2.58127 9.70286 2.88148 9.60852 3.23662C9.53803 3.502 9.44673 3.78281 9.31812 4.14106C9.29999 4.19154 9.25497 4.31469 9.20693 4.44609L9.20661 4.44697L9.2059 4.44891C9.14688 4.61035 9.08357 4.78352 9.06015 4.84923C8.96263 5.1229 8.89838 5.3244 8.85443 5.5075C8.66759 6.28584 8.85503 7.00472 9.75091 7.00472H12.7508C13.2692 7.00472 13.5008 7.28483 13.5008 7.78303C13.5008 11.5117 12.7622 14.0095 12.0008 14.0095H6.751L6.7233 14.01C6.39504 14.0161 5.93399 13.9631 5.50369 13.8033C4.84003 13.5569 4.50107 13.1551 4.50107 12.4529V7.00472ZM1.50018 14.0097V7.00494H3.00013V14.0097H1.50018Z" fill="white"/>
</svg>
