<svg width="16" height="17" viewBox="0 0 16 17" fill="none" xmlns="http://www.w3.org/2000/svg">
<g clip-path="url(#clip0_1826_41680)">
<path d="M13.913 4.06184V2.44413C13.913 1.58106 13.2109 0.878906 12.3478 0.878906C11.6183 0.878906 11.0039 1.38053 10.8312 2.05697C9.17466 3.31731 7.12728 4.00934 5.04347 4.00934H3.13044C1.40431 4.00934 0 5.41366 0 7.13978C0 8.62688 1.04238 9.87503 2.43478 10.1922V15.3137C2.43478 16.1768 3.13694 16.8789 4 16.8789C4.86306 16.8789 5.56522 16.1768 5.56522 15.3137V10.2852C7.46691 10.3904 9.31322 11.0676 10.8312 12.2226C11.0039 12.899 11.6183 13.4007 12.3478 13.4007C13.2109 13.4007 13.913 12.6985 13.913 11.8354V9.17425C15.1023 8.93187 16 7.87781 16 6.61803C16 5.35825 15.1023 4.30422 13.913 4.06184ZM4.52175 15.3137C4.52175 15.6014 4.28769 15.8354 4 15.8354C3.71231 15.8354 3.47825 15.6014 3.47825 15.3137V10.2702H4.52172V15.3137H4.52175ZM4.52175 9.22672H3.13044C1.97969 9.22672 1.04347 8.2905 1.04347 7.13975C1.04347 5.989 1.97969 5.05278 3.13044 5.05278H4.52175V9.22672ZM10.7826 10.9159C9.22525 9.91478 7.41781 9.33219 5.56522 9.23975V5.03978C7.41784 4.94734 9.22525 4.36472 10.7826 3.36366V10.9159ZM12.8696 11.8354C12.8696 12.1231 12.6355 12.3572 12.3478 12.3572C12.0601 12.3572 11.8261 12.1231 11.8261 11.8354V2.44413C11.8261 2.15644 12.0601 1.92237 12.3478 1.92237C12.6355 1.92237 12.8696 2.15644 12.8696 2.44413V11.8354ZM13.913 8.0935V5.14253C14.5203 5.35791 14.9565 5.93784 14.9565 6.618C14.9565 7.29816 14.5203 7.87816 13.913 8.0935Z" fill="white"/>
</g>
<defs>
<clipPath id="clip0_1826_41680">
<rect width="16" height="16" fill="white" transform="translate(0 0.878906)"/>
</clipPath>
</defs>
</svg>
