<svg width="16" height="16" viewBox="0 0 16 16" fill="none" xmlns="http://www.w3.org/2000/svg">
<path fill-rule="evenodd" clip-rule="evenodd" d="M9.08848 3.77698C9.04488 3.56547 9.02193 3.34601 9.02193 3.121C9.02193 1.39732 10.3683 0 12.0292 0C13.6901 0 15.0365 1.39732 15.0365 3.121C15.0365 4.84467 13.6901 6.24199 12.0292 6.24199C11.1248 6.24199 10.3137 5.82768 9.7624 5.17197L5.94875 7.15089C5.99188 7.36133 6.01457 7.5796 6.01457 7.80338C6.01457 8.02809 5.99169 8.24726 5.94821 8.4585L9.7607 10.4368C10.312 9.77994 11.1239 9.36477 12.0292 9.36477C13.6901 9.36477 15.0365 10.7621 15.0365 12.4858C15.0365 14.2094 13.6901 15.6068 12.0292 15.6068C10.3683 15.6068 9.02193 14.2094 9.02193 12.4858C9.02193 12.2617 9.04469 12.0431 9.08793 11.8324L5.27466 9.85369C4.72336 10.5098 3.91198 10.9244 3.00728 10.9244C1.34641 10.9244 0 9.52706 0 7.80338C0 6.0797 1.34641 4.68239 3.00728 4.68239C3.91291 4.68239 4.72503 5.09783 5.27637 5.75511L9.08848 3.77698ZM12.0392 4.69783C12.8868 4.69783 13.5738 3.98476 13.5738 3.10514C13.5738 2.22553 12.8868 1.51246 12.0392 1.51246C11.1916 1.51246 10.5045 2.22553 10.5045 3.10514C10.5045 3.98476 11.1916 4.69783 12.0392 4.69783ZM13.5484 12.5213C13.5484 13.4009 12.8613 14.114 12.0137 14.114C11.1661 14.114 10.479 13.4009 10.479 12.5213C10.479 11.6417 11.1661 10.9286 12.0137 10.9286C12.8613 10.9286 13.5484 11.6417 13.5484 12.5213ZM2.99297 9.3949C3.84053 9.3949 4.52762 8.68183 4.52762 7.80221C4.52762 6.9226 3.84053 6.20953 2.99297 6.20953C2.1454 6.20953 1.45831 6.9226 1.45831 7.80221C1.45831 8.68183 2.1454 9.3949 2.99297 9.3949Z" fill="white"/>
</svg>
