<svg width="23" height="16" viewBox="0 0 23 16" fill="none" xmlns="http://www.w3.org/2000/svg">
<path fill-rule="evenodd" clip-rule="evenodd" d="M11.3287 0C13.9688 0 16.4934 1.39131 18.8462 3.67724C19.6488 4.4571 20.375 5.28968 21.0142 6.12262C21.4 6.62523 21.6738 7.02061 21.8238 7.25616L22.1573 7.78015L21.8238 8.30415C21.6738 8.5397 21.4 8.93508 21.0142 9.43769C20.375 10.2706 19.6488 11.1032 18.8462 11.8831C16.4934 14.169 13.9688 15.5603 11.3287 15.5603C8.68849 15.5603 6.16391 14.169 3.81116 11.8831C3.00851 11.1032 2.28236 10.2706 1.64311 9.43769C1.25738 8.93508 0.983507 8.5397 0.833561 8.30415L0.5 7.78015L0.833561 7.25616C0.983507 7.02061 1.25738 6.62523 1.64311 6.12262C2.28236 5.28968 3.00851 4.4571 3.81116 3.67724C6.16391 1.39131 8.68849 0 11.3287 0ZM19.4825 7.30937C18.8972 6.54676 18.2318 5.7838 17.5018 5.07449C15.4754 3.10565 13.3677 1.9441 11.3301 1.9441C9.29242 1.9441 7.18474 3.10565 5.15835 5.07449C4.42831 5.7838 3.76288 6.54676 3.17761 7.30937C3.05121 7.47407 2.9344 7.63122 2.82761 7.77921C2.9344 7.92721 3.05121 8.08436 3.17761 8.24906C3.76288 9.01167 4.42831 9.77463 5.15835 10.4839C7.18474 12.4528 9.29242 13.6143 11.3301 13.6143C13.3677 13.6143 15.4754 12.4528 17.5018 10.4839C18.2318 9.77463 18.8972 9.01167 19.4825 8.24906C19.6089 8.08436 19.7257 7.92721 19.8325 7.77921C19.7257 7.63122 19.6089 7.47407 19.4825 7.30937ZM7.45948 7.77917C7.45948 9.9276 9.19297 11.6693 11.3313 11.6693C13.4697 11.6693 15.2032 9.9276 15.2032 7.77917C15.2032 5.63074 13.4697 3.8891 11.3313 3.8891C9.19297 3.8891 7.45948 5.63074 7.45948 7.77917ZM13.2655 7.77643C13.2655 8.85064 12.3988 9.72146 11.3296 9.72146C10.2604 9.72146 9.39364 8.85064 9.39364 7.77643C9.39364 6.70221 10.2604 5.83139 11.3296 5.83139C12.3988 5.83139 13.2655 6.70221 13.2655 7.77643Z" fill="white"/>
</svg>
