<svg width="28" height="28" viewBox="0 0 28 28" fill="none" xmlns="http://www.w3.org/2000/svg">
<path d="M13.5953 0C6.08663 0 0 6.0871 0 13.5953C0 21.1036 6.08663 27.1907 13.5953 27.1907C21.1041 27.1907 27.1907 21.1036 27.1907 13.5953C27.1907 6.0871 21.1041 0 13.5953 0ZM13.5953 25.0371C7.27629 25.0371 2.15356 19.9144 2.15356 13.5953C2.15356 7.27629 7.27629 2.15356 13.5953 2.15356C19.9144 2.15356 25.0371 7.27629 25.0371 13.5953C25.0371 19.9144 19.9144 25.0371 13.5953 25.0371Z" fill="#000B48"/>
<path d="M14.2149 14.6289H19.4463C19.5578 14.6289 19.6105 14.6289 19.6185 14.4827C19.6613 13.9505 19.6613 13.4152 19.6185 12.8824C19.6185 12.7789 19.5671 12.7362 19.455 12.7362H9.0437C8.91483 12.7362 8.88014 12.7789 8.88014 12.8997V14.4312C8.88014 14.6289 8.88014 14.6289 9.08644 14.6289H14.2149ZM19.0343 10.9464C19.0492 10.9073 19.0492 10.8646 19.0343 10.8262C18.9469 10.636 18.8435 10.4544 18.7233 10.2841C18.5424 9.99289 18.3293 9.72464 18.0864 9.48364C17.9718 9.33805 17.8392 9.20733 17.6905 9.09643C16.9458 8.46265 16.0605 8.0141 15.1089 7.78859C14.6288 7.6808 14.1381 7.62937 13.6462 7.63371H9.02573C8.89687 7.63371 8.87952 7.68513 8.87952 7.79727V10.8516C8.87952 10.9804 8.87952 11.0151 9.04308 11.0151H18.9723C18.9723 11.0151 19.0585 10.9978 19.0758 10.9464H19.0337H19.0343ZM19.0343 16.4187C18.8881 16.4026 18.7406 16.4026 18.5944 16.4187H9.05237C8.92351 16.4187 8.88014 16.4187 8.88014 16.5909V19.5771C8.88014 19.7146 8.88014 19.7493 9.05237 19.7493H13.4579C13.6685 19.7654 13.8792 19.7505 14.0855 19.7066C14.7248 19.6607 15.3536 19.5219 15.9534 19.2933C16.1714 19.2178 16.3821 19.1192 16.5809 19.0009H16.641C17.6738 18.4638 18.5126 17.62 19.0417 16.5841C19.0417 16.5841 19.1018 16.454 19.0343 16.4199V16.4187ZM7.15102 21.2975V21.2461V19.2413V18.5617V16.5395C7.15102 16.4274 7.15102 16.4106 7.01348 16.4106H5.14621C5.04275 16.4106 5 16.4106 5 16.2731V14.6382H6.99614C7.10765 14.6382 7.15102 14.6382 7.15102 14.4919V12.8743C7.15102 12.7709 7.15102 12.7455 7.01348 12.7455H5.14621C5.04275 12.7455 5 12.7455 5 12.6079V11.0938C5 10.999 5 10.9736 5.13754 10.9736H6.98746C7.11633 10.9736 7.15102 10.9736 7.15102 10.8101V6.17223C7.15102 6.03469 7.15102 6 7.32325 6H13.7763C14.2447 6.01859 14.71 6.07001 15.1703 6.15488C16.1188 6.33021 17.0301 6.6691 17.8634 7.15295C18.416 7.47821 18.9246 7.87099 19.3775 8.32325C19.7183 8.67701 20.0255 9.05988 20.2981 9.46753C20.5689 9.88076 20.7938 10.3225 20.9703 10.784C20.992 10.9042 21.1073 10.9854 21.2274 10.9649H22.7676C22.9652 10.9649 22.9652 10.9649 22.9739 11.1545V12.5658C22.9739 12.7034 22.9225 12.738 22.7843 12.738H21.5967C21.4765 12.738 21.4418 12.738 21.4505 12.8929C21.4976 13.4171 21.4976 13.943 21.4505 14.4672C21.4505 14.6134 21.4505 14.6307 21.6147 14.6307H22.9733C23.0334 14.7082 22.9733 14.7856 22.9733 14.8637C22.982 14.9634 22.982 15.0644 22.9733 15.1641V16.2056C22.9733 16.3518 22.9305 16.3952 22.8011 16.3952H21.1748C21.0614 16.3735 20.9511 16.446 20.9251 16.5587C20.5379 17.5655 19.9184 18.4681 19.1179 19.1917C18.8255 19.455 18.5182 19.7028 18.1973 19.9315C17.8528 20.1297 17.5177 20.336 17.1645 20.4996C16.5147 20.792 15.8332 21.0076 15.1337 21.1445C14.4696 21.2635 13.7961 21.3174 13.1202 21.3081H7.14854V21.2994L7.15102 21.2975Z" fill="#000B48"/>
</svg>
