<svg width="33" height="33" viewBox="0 0 33 33" fill="none" xmlns="http://www.w3.org/2000/svg">
<path d="M9.55775 12.4074H9.49006C10.875 9.68499 13.7032 7.81952 16.9671 7.81952C19.0725 7.81952 20.9961 8.59535 22.4684 9.87685H22.5199H25.8615C23.883 7.10018 20.6365 5.28896 16.9671 5.28896C11.3673 5.28896 6.7531 9.506 6.12606 14.938L13.1718 14.9374V17.4674H6.12494L6.12774 17.487C6.2301 18.3596 6.43539 19.2003 6.73073 19.998H13.1707V26.4379C13.9734 26.7355 14.8219 26.9419 15.7007 27.0437V19.9985H18.2307V27.0442C19.11 26.9424 19.958 26.7366 20.7607 26.4385V19.998H27.2006C27.6391 18.816 27.8785 17.5373 27.8785 16.2027C27.8785 14.868 27.6391 13.5893 27.2006 12.4074H25.7021H9.55775V12.4074ZM18.2312 17.468H15.7012V14.938H18.2312V17.468ZM25.2546 17.468H20.7618V14.938H25.2546C25.3172 15.3508 25.3497 15.7731 25.3497 16.2032C25.3497 16.6328 25.3172 17.0552 25.2546 17.468Z" fill="#14142A"/>
<path d="M16.9578 0.202637C8.12099 0.202637 0.957794 7.36639 0.957794 16.2026C0.957794 25.0389 8.12099 32.2026 16.9578 32.2026C25.7946 32.2026 32.9578 25.0389 32.9578 16.2026C32.9578 7.36639 25.7946 0.202637 16.9578 0.202637ZM16.9578 29.6682C9.52107 29.6682 3.49226 23.6394 3.49226 16.2026C3.49226 8.76591 9.52107 2.73711 16.9578 2.73711C24.3945 2.73711 30.4233 8.76591 30.4233 16.2026C30.4233 23.6394 24.3945 29.6682 16.9578 29.6682Z" fill="#14142A"/>
</svg>
