<svg width="16" height="15" viewBox="0 0 16 15" fill="none" xmlns="http://www.w3.org/2000/svg">
<path fill-rule="evenodd" clip-rule="evenodd" d="M8.24693 0.0527344C6.26304 0.0527344 6.01406 0.061409 5.23487 0.0968683C4.4572 0.13248 3.92638 0.255598 3.46191 0.436243C2.98146 0.622822 2.5739 0.872407 2.16787 1.27859C1.76154 1.68462 1.51195 2.09218 1.32476 2.57247C1.14366 3.0371 1.02039 3.56807 0.985388 4.34544C0.950537 5.12463 0.941406 5.37376 0.941406 7.35765C0.941406 9.34155 0.950233 9.58976 0.98554 10.369C1.0213 11.1466 1.14442 11.6774 1.32491 12.1419C1.51165 12.6224 1.76123 13.0299 2.16741 13.436C2.57329 13.8423 2.98085 14.0925 3.46099 14.2791C3.92577 14.4597 4.45675 14.5828 5.23426 14.6184C6.01345 14.6539 6.26228 14.6626 8.24602 14.6626C10.2301 14.6626 10.4783 14.6539 11.2575 14.6184C12.0351 14.5828 12.5666 14.4597 13.0313 14.2791C13.5116 14.0925 13.9186 13.8423 14.3245 13.436C14.7308 13.0299 14.9804 12.6224 15.1676 12.1421C15.3472 11.6774 15.4704 11.1465 15.507 10.3691C15.542 9.58991 15.5511 9.34155 15.5511 7.35765C15.5511 5.37376 15.542 5.12478 15.507 4.34559C15.4704 3.56792 15.3472 3.0371 15.1676 2.57263C14.9804 2.09218 14.7308 1.68462 14.3245 1.27859C13.9181 0.872255 13.5118 0.62267 13.0309 0.436243C12.5652 0.255598 12.0341 0.13248 11.2564 0.0968683C10.4772 0.061409 10.2292 0.0527344 8.24465 0.0527344H8.24693ZM7.59079 1.37013C7.78529 1.36982 8.00231 1.37013 8.24611 1.37013C10.1965 1.37013 10.4277 1.37713 11.1979 1.41213C11.9101 1.4447 12.2967 1.56371 12.5542 1.66369C12.8951 1.7961 13.1381 1.95437 13.3936 2.21004C13.6493 2.46571 13.8076 2.70921 13.9403 3.05011C14.0403 3.3073 14.1594 3.69385 14.1919 4.40608C14.2269 5.17614 14.2345 5.40746 14.2345 7.35696C14.2345 9.30646 14.2269 9.53779 14.1919 10.3078C14.1593 11.0201 14.0403 11.4066 13.9403 11.6638C13.8079 12.0047 13.6493 12.2475 13.3936 12.503C13.138 12.7586 12.8952 12.9169 12.5542 13.0493C12.297 13.1498 11.9101 13.2685 11.1979 13.301C10.4278 13.336 10.1965 13.3436 8.24611 13.3436C6.29554 13.3436 6.06437 13.336 5.29431 13.301C4.58208 13.2682 4.19553 13.1492 3.93788 13.0492C3.59698 12.9168 3.35349 12.7585 3.09781 12.5028C2.84214 12.2471 2.68387 12.0043 2.55116 11.6632C2.45118 11.406 2.33202 11.0195 2.2996 10.3072C2.2646 9.53718 2.2576 9.30585 2.2576 7.35514C2.2576 5.40442 2.2646 5.17432 2.2996 4.40426C2.33217 3.69203 2.45118 3.30547 2.55116 3.04798C2.68357 2.70708 2.84214 2.46358 3.09781 2.20791C3.35349 1.95224 3.59698 1.79397 3.93788 1.66126C4.19538 1.56082 4.58208 1.44211 5.29431 1.40939C5.96819 1.37895 6.22934 1.36982 7.59079 1.3683V1.37013ZM12.148 2.58169C11.664 2.58169 11.2714 2.97387 11.2714 3.45797C11.2714 3.94192 11.664 4.33456 12.148 4.33456C12.6319 4.33456 13.0246 3.94192 13.0246 3.45797C13.0246 2.97402 12.6319 2.58138 12.148 2.58138V2.58169ZM8.24894 3.6073C6.17724 3.6073 4.49757 5.28698 4.49757 7.35868C4.49757 9.43039 6.17724 11.1093 8.24894 11.1093C10.3206 11.1093 11.9997 9.43039 11.9997 7.35868C11.9997 5.28698 10.3205 3.6073 8.24879 3.6073H8.24894ZM8.24762 4.92238C9.59233 4.92238 10.6826 6.01249 10.6826 7.35736C10.6826 8.70207 9.59233 9.79233 8.24762 9.79233C6.90275 9.79233 5.81265 8.70207 5.81265 7.35736C5.81265 6.01249 6.90275 4.92238 8.24762 4.92238V4.92238Z" fill="#7277F7"/>
</svg>
