<svg width="15" height="12" viewBox="0 0 15 12" fill="none" xmlns="http://www.w3.org/2000/svg">
<path fill-rule="evenodd" clip-rule="evenodd" d="M7.72054 3.31244L7.75102 3.815L7.24306 3.75346C5.39408 3.51756 3.77877 2.71757 2.40728 1.37398L1.73677 0.707322L1.56406 1.19963C1.19833 2.29706 1.43199 3.45603 2.19393 4.23551C2.6003 4.66628 2.50887 4.72781 1.80788 4.4714C1.56406 4.38935 1.35072 4.32782 1.3304 4.35858C1.25929 4.43038 1.50311 5.36371 1.69613 5.73294C1.96027 6.24575 2.49871 6.74832 3.08794 7.04575L3.58574 7.28165L2.99651 7.2919C2.42759 7.2919 2.40728 7.30216 2.46823 7.51754C2.67142 8.18421 3.47399 8.89189 4.368 9.19959L4.99787 9.41497L4.44928 9.74317C3.63654 10.215 2.68157 10.4816 1.72661 10.5021C1.26945 10.5124 0.893555 10.5534 0.893555 10.5842C0.893555 10.6868 2.13298 11.2611 2.85428 11.4868C5.01819 12.1534 7.58847 11.8662 9.51872 10.7278C10.8902 9.91753 12.2617 8.30728 12.9017 6.74832C13.2471 5.91755 13.5926 4.39961 13.5926 3.67141C13.5926 3.19962 13.623 3.13808 14.192 2.57398C14.5272 2.24578 14.8421 1.8868 14.9031 1.78424C15.0047 1.58937 14.9945 1.58937 14.4764 1.76373C13.6129 2.07142 13.491 2.03039 13.9177 1.56886C14.2326 1.24065 14.6085 0.645784 14.6085 0.471426C14.6085 0.440656 14.4561 0.491938 14.2834 0.584245C14.1005 0.686809 13.6942 0.840654 13.3894 0.932962L12.8408 1.10732L12.343 0.76886C12.0687 0.584245 11.6826 0.379118 11.4794 0.31758C10.9613 0.173991 10.1689 0.194504 9.70158 0.358606C8.43168 0.820142 7.62911 2.00988 7.72054 3.31244Z" fill="#7277F7"/>
</svg>
