<svg width="16" height="12" viewBox="0 0 16 12" fill="none" xmlns="http://www.w3.org/2000/svg">
<path fill-rule="evenodd" clip-rule="evenodd" d="M14.8791 2.64365C14.7063 1.97971 14.197 1.45689 13.5504 1.27945C12.3786 0.95697 7.6791 0.95697 7.6791 0.95697C7.6791 0.95697 2.97965 0.95697 1.80772 1.27945C1.16108 1.45689 0.651831 1.97971 0.479007 2.64365C0.165039 3.84697 0.165039 6.3577 0.165039 6.3577C0.165039 6.3577 0.165039 8.86835 0.479007 10.0718C0.651831 10.7357 1.16108 11.2585 1.80772 11.4361C2.97965 11.7584 7.6791 11.7584 7.6791 11.7584C7.6791 11.7584 12.3786 11.7584 13.5504 11.4361C14.197 11.2585 14.7063 10.7357 14.8791 10.0718C15.1932 8.86835 15.1932 6.3577 15.1932 6.3577C15.1932 6.3577 15.1932 3.84697 14.8791 2.64365Z" fill="#7277F7"/>
<path fill-rule="evenodd" clip-rule="evenodd" d="M6.27051 8.9397V4.24341L10.0275 6.59164L6.27051 8.9397Z" fill="white"/>
</svg>
