<svg width="31" height="30" viewBox="0 0 31 30" fill="none" xmlns="http://www.w3.org/2000/svg">
<g clip-path="url(#clip0_1170_13143)">
<path d="M30.5 15C30.5 18.9782 28.9196 22.7936 26.1066 25.6066C23.2936 28.4196 19.4782 30 15.5 30C11.5218 30 7.70644 28.4196 4.8934 25.6066C2.08035 22.7936 0.5 18.9782 0.5 15C0.5 11.0218 2.08035 7.20644 4.8934 4.3934C7.70644 1.58035 11.5218 0 15.5 0C19.4782 0 23.2936 1.58035 26.1066 4.3934C28.9196 7.20644 30.5 11.0218 30.5 15ZM17.9056 7.50375H15.4456L11.885 10.0969V12.48L15.3238 10.0087H15.4456V22.5H17.9056V7.50375Z" fill="#00CC9E"/>
</g>
<defs>
<clipPath id="clip0_1170_13143">
<rect width="30" height="30" fill="white" transform="translate(0.5)"/>
</clipPath>
</defs>
</svg>
