<svg width="31" height="30" viewBox="0 0 31 30" fill="none" xmlns="http://www.w3.org/2000/svg">
<g clip-path="url(#clip0_1170_13119)">
<path d="M30.5 15C30.5 18.9782 28.9196 22.7936 26.1066 25.6066C23.2936 28.4196 19.4782 30 15.5 30C11.5218 30 7.70644 28.4196 4.8934 25.6066C2.08035 22.7936 0.5 18.9782 0.5 15C0.5 11.0218 2.08035 7.20644 4.8934 4.3934C7.70644 1.58035 11.5218 0 15.5 0C19.4782 0 23.2936 1.58035 26.1066 4.3934C28.9196 7.20644 30.5 11.0218 30.5 15ZM12.9613 11.7C12.9613 10.4044 13.8856 9.25125 15.4662 9.25125C16.8837 9.25125 17.9281 10.1737 17.9281 11.5688C17.9281 12.8756 17.0487 13.875 16.2369 14.7656L10.6663 20.94V22.5H20.6862V20.4244H14.1275V20.28L17.8287 16.1175L18.0088 15.9169C19.2987 14.4863 20.4219 13.2394 20.4219 11.3606C20.4219 8.98687 18.4888 7.2075 15.5225 7.2075C12.2262 7.2075 10.5781 9.43875 10.5781 11.7112V11.8331H12.9613V11.7019V11.7Z" fill="#00CC9E"/>
</g>
<defs>
<clipPath id="clip0_1170_13119">
<rect width="30" height="30" fill="white" transform="translate(0.5)"/>
</clipPath>
</defs>
</svg>
