<svg width="31" height="30" viewBox="0 0 31 30" fill="none" xmlns="http://www.w3.org/2000/svg">
<g clip-path="url(#clip0_1170_13362)">
<path d="M30.5 15C30.5 18.9782 28.9196 22.7936 26.1066 25.6066C23.2936 28.4196 19.4782 30 15.5 30C11.5218 30 7.70644 28.4196 4.8934 25.6066C2.08035 22.7936 0.5 18.9782 0.5 15C0.5 11.0218 2.08035 7.20644 4.8934 4.3934C7.70644 1.58035 11.5218 0 15.5 0C19.4782 0 23.2936 1.58035 26.1066 4.3934C28.9196 7.20644 30.5 11.0218 30.5 15ZM15.3463 15.7762C17.0713 15.7762 18.2244 16.7888 18.2356 18.2475C18.2581 19.7306 17.0825 20.7975 15.2581 20.7863C13.6437 20.775 12.4794 19.9069 12.3706 18.7875H10.07C10.1581 20.9944 12.0387 22.8075 15.2337 22.8075C18.3331 22.8075 20.7725 21.0506 20.7275 18.315C20.6844 15.9187 18.7944 14.8538 17.4762 14.7225V14.5913C18.5956 14.4038 20.2981 13.2056 20.255 11.0738C20.1987 8.86687 18.2994 7.185 15.3106 7.2075C12.17 7.21875 10.4544 9.0525 10.3888 11.1825H12.7287C12.7962 10.14 13.7731 9.20625 15.2562 9.20625C16.7281 9.20625 17.7838 10.1175 17.7838 11.4469C17.795 12.7875 16.7281 13.7662 15.2675 13.7662H13.6962V15.7762H15.3444H15.3463Z" fill="#00CC9E"/>
</g>
<defs>
<clipPath id="clip0_1170_13362">
<rect width="30" height="30" fill="white" transform="translate(0.5)"/>
</clipPath>
</defs>
</svg>
