<svg width="31" height="31" viewBox="0 0 31 31" fill="none" xmlns="http://www.w3.org/2000/svg">
<g clip-path="url(#clip0_1170_13365)">
<path d="M30.5 15.5C30.5 19.4782 28.9196 23.2936 26.1066 26.1066C23.2936 28.9196 19.4782 30.5 15.5 30.5C11.5218 30.5 7.70644 28.9196 4.8934 26.1066C2.08035 23.2936 0.5 19.4782 0.5 15.5C0.5 11.5218 2.08035 7.70644 4.8934 4.8934C7.70644 2.08035 11.5218 0.5 15.5 0.5C19.4782 0.5 23.2936 2.08035 26.1066 4.8934C28.9196 7.70644 30.5 11.5218 30.5 15.5ZM14.5981 9.98188C12.9369 12.6406 11.2756 15.3031 9.83188 17.9787V20.0788H17.0938V23H19.4562V20.0769H21.3444V18.0012H19.4562V8.00375H15.83C15.4212 8.66375 15.0087 9.32188 14.5981 9.98188ZM12.1719 17.9019V18.0012H17.0938V9.99312H16.9719C15.3462 12.4869 13.6213 15.2544 12.1719 17.9019Z" fill="#00CC9E"/>
</g>
<defs>
<clipPath id="clip0_1170_13365">
<rect width="30" height="30" fill="white" transform="translate(0.5 0.5)"/>
</clipPath>
</defs>
</svg>
