<?xml version="1.0" encoding="UTF-8" standalone="no"?>
<svg
   xmlns:dc="http://purl.org/dc/elements/1.1/"
   xmlns:cc="http://creativecommons.org/ns#"
   xmlns:rdf="http://www.w3.org/1999/02/22-rdf-syntax-ns#"
   xmlns:svg="http://www.w3.org/2000/svg"
   xmlns="http://www.w3.org/2000/svg"
   width="36"
   height="37"
   viewBox="0 0 36 37"
   fill="none"
   version="1.1"
   id="svg825">
  <metadata
     id="metadata831">
    <rdf:RDF>
      <cc:Work
         rdf:about="">
        <dc:format>image/svg+xml</dc:format>
        <dc:type
           rdf:resource="http://purl.org/dc/dcmitype/StillImage" />
        <dc:title></dc:title>
      </cc:Work>
    </rdf:RDF>
  </metadata>
  <defs
     id="defs829" />
  <path
     id="path823"
     style="fill:#1a1a1a"
     d="M 26.529297,3.65625 C 26.194178,3.6754884 25.857841,3.785045 25.556641,4 c -1.1456,0.8176 -2.808775,1.9282581 -4.546875,2.8300781 -1.772,0.91938 -3.485985,1.5488281 -4.771485,1.5488281 H 9.1308594 c -1.669,0 -3.3469513,0.3313007 -4.6132813,1.4003907 -1.29671,1.0947701 -1.9902344,2.8139251 -1.9902343,5.2031251 0,2.3891 0.6935243,4.106472 1.9902343,5.201172 0.71793,0.6061 1.5670463,0.97564 2.4726563,1.18164 l 4.1269536,11 c 0.133999,0.3574 0.473868,0.59375 0.855468,0.59375 h 5.6875 c 0.3003,0 0.582806,-0.147731 0.753906,-0.394531 0.171001,-0.2469 0.209016,-0.560597 0.103516,-0.841797 l -1.980469,-5.283203 c 1.3957,-0.2193 3.14851,-1.134644 4.16211,-3.464844 0.8025,0.4024 1.600256,0.85846 2.347656,1.31836 1.1298,0.6953 2.131562,1.392415 2.851563,1.916015 0.3595,0.2615 0.646449,0.477607 0.84375,0.628907 0.0986,0.0757 0.175862,0.136081 0.226562,0.175781 l 0.05664,0.04492 0.01367,0.0098 0.002,0.002 c 0.2749,0.2198 0.65155,0.263829 0.96875,0.111329 0.3172,-0.1525 0.519531,-0.474172 0.519531,-0.826172 v -6.273438 c 0.365,-0.0656 0.724059,-0.171853 1.068359,-0.314453 0.6286,-0.2604 1.198588,-0.641947 1.679688,-1.123047 0.4811,-0.4811 0.862647,-1.051087 1.123047,-1.679687 0.2603,-0.6287 0.394531,-1.302022 0.394531,-1.982422 0,-0.6804 -0.134231,-1.355775 -0.394531,-1.984375 -0.2604,-0.6286 -0.641947,-1.198588 -1.123047,-1.679688 -0.4811,-0.4811 -1.051088,-0.862647 -1.679688,-1.123047 -0.3443,-0.142599 -0.703359,-0.2469595 -1.068359,-0.3124995 V 5.5117188 c 0,-1.1584351 -0.994644,-1.9131841 -2,-1.8554688 z m 0.103515,1.828125 c 0.0015,-5.3e-4 0.0025,1.8e-4 0.0059,0 0.008,-4.2e-4 0.02356,6.25e-5 0.03906,0.00781 0.0125,0.00625 0.01713,0.012775 0.01953,0.015625 l 0.002,0.00391 V 24.527344 c -0.7178,-0.5144 -1.65226,-1.154222 -2.69336,-1.794922 -1.1781,-0.7249 -2.509384,-1.461831 -3.833984,-2.019531 -0.9957,-0.4192 -2.031278,-0.755179 -3.017578,-0.892579 v -9.677734 c 1.527,-0.2130799 3.194919,-0.9069799 4.699219,-1.6874999 1.8456,-0.95755 3.587278,-2.1224937 4.767578,-2.9648437 0.006,-0.00428 0.01042,-0.00542 0.01172,-0.00586 z M 9.1308594,10.208984 h 6.1933596 v 9.544922 H 9.1308594 c -1.47187,0 -2.6394807,-0.30005 -3.4316406,-0.96875 -0.76178,-0.6432 -1.3417969,-1.768534 -1.3417969,-3.802734 0,-2.0342 0.5800169,-3.159635 1.3417969,-3.802734 0.7921599,-0.668801 1.9597706,-0.970704 3.4316406,-0.970704 z m 19.3984376,1.550782 c 0.1242,0.0353 0.247487,0.07735 0.367187,0.126953 0.4065,0.1684 0.774938,0.415462 1.085938,0.726562 0.3111,0.311 0.558162,0.679538 0.726562,1.085938 0.1683,0.4065 0.25586,0.843303 0.25586,1.283203 0,0.4399 -0.08756,0.87485 -0.25586,1.28125 -0.1684,0.4064 -0.415462,0.774837 -0.726562,1.085937 -0.311,0.3111 -0.679438,0.558163 -1.085938,0.726563 -0.1197,0.0496 -0.242987,0.09165 -0.367187,0.126953 z M 9.0292969,21.583984 h 3.7324221 l 3.578125,9.544922 h -3.732422 z" />
</svg>
