<svg width="21" height="21" viewBox="0 0 21 21" fill="none" xmlns="http://www.w3.org/2000/svg">
<g clip-path="url(#clip0_445_27029)">
<path d="M14.4384 8.96939H19.3534C19.4127 8.96941 19.4709 8.98635 19.521 9.01823C19.5711 9.0501 19.6111 9.09559 19.6362 9.14936C19.6614 9.20314 19.6708 9.26297 19.6632 9.32186C19.6556 9.38076 19.6314 9.43626 19.5934 9.48189L17.1359 12.4319C17.1065 12.4671 17.0698 12.4954 17.0284 12.5148C16.9869 12.5342 16.9417 12.5443 16.8959 12.5443C16.8501 12.5443 16.8048 12.5342 16.7634 12.5148C16.7219 12.4954 16.6852 12.4671 16.6559 12.4319L14.1984 9.48189C14.1604 9.43626 14.1361 9.38076 14.1285 9.32186C14.1209 9.26297 14.1303 9.20314 14.1555 9.14936C14.1807 9.09559 14.2206 9.0501 14.2707 9.01823C14.3208 8.98635 14.379 8.96941 14.4384 8.96939ZM0.68836 11.4694H5.60336C5.66274 11.4694 5.72088 11.4524 5.77098 11.4206C5.82108 11.3887 5.86107 11.3432 5.88625 11.2894C5.91143 11.2356 5.92077 11.1758 5.91318 11.1169C5.90558 11.058 5.88136 11.0025 5.84336 10.9569L3.38586 8.00689C3.35653 7.97172 3.31983 7.94343 3.27836 7.92401C3.23689 7.9046 3.19165 7.89453 3.14586 7.89453C3.10007 7.89453 3.05483 7.9046 3.01336 7.92401C2.97189 7.94343 2.93519 7.97172 2.90586 8.00689L0.44836 10.9569C0.410357 11.0025 0.38614 11.058 0.378544 11.1169C0.370948 11.1758 0.380289 11.2356 0.405471 11.2894C0.430654 11.3432 0.470636 11.3887 0.520736 11.4206C0.570836 11.4524 0.62898 11.4694 0.68836 11.4694Z" fill="white"/>
<path fill-rule="evenodd" clip-rule="evenodd" d="M10.0208 3.96892C8.08076 3.96892 6.34576 4.85267 5.19951 6.24142C5.14833 6.30776 5.08433 6.36313 5.01131 6.40424C4.9383 6.44535 4.85777 6.47136 4.7745 6.48072C4.69123 6.49009 4.60693 6.48261 4.52661 6.45874C4.4463 6.43487 4.3716 6.39509 4.30696 6.34177C4.24232 6.28845 4.18906 6.22268 4.15036 6.14836C4.11165 6.07405 4.08828 5.99271 4.08164 5.90918C4.07499 5.82565 4.08522 5.74164 4.11169 5.66214C4.13817 5.58265 4.18036 5.50928 4.23576 5.44642C5.151 4.33833 6.36525 3.51643 7.73409 3.07849C9.10293 2.64054 10.5688 2.60498 11.9572 2.97603C13.3457 3.34708 14.5984 4.10912 15.5663 5.17153C16.5342 6.23393 17.1766 7.55198 17.417 8.96892H16.1458C15.8572 7.55743 15.09 6.28891 13.9739 5.37785C12.8579 4.46679 11.4615 3.9691 10.0208 3.96892ZM3.89576 11.4689C4.1324 12.6247 4.6912 13.6899 5.50761 14.5416C6.32402 15.3932 7.36471 15.9965 8.50947 16.2818C9.65422 16.567 10.8563 16.5226 11.9769 16.1536C13.0974 15.7845 14.0907 15.106 14.842 14.1964C14.8932 14.1301 14.9572 14.0747 15.0302 14.0336C15.1032 13.9925 15.1838 13.9665 15.267 13.9571C15.3503 13.9478 15.4346 13.9552 15.5149 13.9791C15.5952 14.003 15.6699 14.0427 15.7346 14.0961C15.7992 14.1494 15.8525 14.2152 15.8912 14.2895C15.9299 14.3638 15.9532 14.4451 15.9599 14.5287C15.9665 14.6122 15.9563 14.6962 15.9298 14.7757C15.9034 14.8552 15.8612 14.9286 15.8058 14.9914C14.8905 16.0995 13.6763 16.9214 12.3074 17.3593C10.9386 17.7973 9.47276 17.8329 8.08429 17.4618C6.69582 17.0908 5.44314 16.3287 4.47525 15.2663C3.50735 14.2039 2.86497 12.8859 2.62451 11.4689H3.89576Z" fill="white"/>
</g>
<defs>
<clipPath id="clip0_445_27029">
<rect width="20" height="20" fill="white" transform="translate(0.0209961 0.21875)"/>
</clipPath>
</defs>
</svg>
