<?xml version="1.0" encoding="UTF-8" standalone="no"?>
<svg
   xmlns:dc="http://purl.org/dc/elements/1.1/"
   xmlns:cc="http://creativecommons.org/ns#"
   xmlns:rdf="http://www.w3.org/1999/02/22-rdf-syntax-ns#"
   xmlns:svg="http://www.w3.org/2000/svg"
   xmlns="http://www.w3.org/2000/svg"
   style="fill:none"
   width="37.771484"
   height="32"
   viewBox="0 0 37.771484 32"
   version="1.1"
   id="svg135">
  <metadata
     id="metadata141">
    <rdf:RDF>
      <cc:Work
         rdf:about="">
        <dc:format>image/svg+xml</dc:format>
        <dc:type
           rdf:resource="http://purl.org/dc/dcmitype/StillImage" />
        <dc:title></dc:title>
      </cc:Work>
    </rdf:RDF>
  </metadata>
  <defs
     id="defs139" />
  <path
     d="m 26.796875,0 c -6.0609,0 -10.974609,2.1249738 -10.974609,4.7460938 v 1.0292968 c 0,2.62113 4.913709,4.7441404 10.974609,4.7441404 6.0609,0 10.974609,-2.1230104 10.974609,-4.7441404 V 4.7460938 C 37.771484,2.1249738 32.857775,0 26.796875,0 Z M 10.974609,8.0371094 C 4.9135898,8.0371094 0,10.162103 0,12.783203 V 13.8125 c 0,2.621 4.9135897,4.746094 10.974609,4.746094 1.0615,0 2.087694,-0.0658 3.058594,-0.1875 V 8.2246094 c -0.9708,-0.1216 -1.997094,-0.1875 -3.058594,-0.1875 z m 5.080079,1.0351562 c -0.151,0.3138204 -0.232422,0.6394563 -0.232422,0.9726564 v 1.029297 c 0,2.6212 4.913709,4.746093 10.974609,4.746093 6.0609,0 10.974609,-2.124893 10.974609,-4.746093 v -1.029297 c 0,-0.3332001 -0.07937,-0.658836 -0.230468,-0.9726564 -1.0372,2.1549204 -5.453541,3.7734374 -10.744141,3.7734374 -5.2905,0 -9.704888,-1.618517 -10.742187,-3.7734374 z m 0,5.2968754 c -0.151,0.3138 -0.232422,0.639456 -0.232422,0.972656 v 1.029297 c 0,2.6212 4.913709,4.746094 10.974609,4.746094 6.0609,0 10.974609,-2.124894 10.974609,-4.746094 v -1.029297 c 0,-0.3332 -0.07937,-0.658856 -0.230468,-0.972656 -1.0372,2.1549 -5.453541,3.773437 -10.744141,3.773437 -5.2905,0 -9.704888,-1.618637 -10.742187,-3.773437 z M 0.23046875,17.109375 C 0.07941675,17.423175 0,17.748831 0,18.082031 v 1.029297 c 0,2.6212 4.9135897,4.746094 10.974609,4.746094 1.0615,0 2.087694,-0.066 3.058594,-0.1875 v -2.97461 c -0.9711,0.121601 -1.996894,0.189454 -3.058594,0.189454 -5.2906092,0 -9.7069032,-1.620591 -10.74414025,-3.775391 z M 16.054688,19.955078 c -0.151,0.3138 -0.232422,0.639556 -0.232422,0.972656 v 1.029297 c 0,2.6212 4.913709,4.746094 10.974609,4.746094 6.0609,0 10.974609,-2.124894 10.974609,-4.746094 v -1.029297 c 0,-0.3331 -0.07937,-0.658956 -0.230468,-0.972656 -1.0372,2.1547 -5.453541,3.773438 -10.744141,3.773438 -5.2905,0 -9.704888,-1.618638 -10.742187,-3.773438 z M 0.23046875,22.408203 C 0.07941675,22.722003 0,23.045806 0,23.378906 v 1.029297 c 0,2.6212 4.9135897,4.746094 10.974609,4.746094 1.212,0 2.37865,-0.08529 3.46875,-0.242188 -0.2702,-0.527 -0.410156,-1.082403 -0.410156,-1.658203 v -1.029297 -0.230468 c -0.9711,0.1216 -1.996894,0.1875 -3.058594,0.1875 -5.2906193,0 -9.7069032,-1.618638 -10.74414025,-3.773438 z m 15.82421925,2.84375 c -0.151,0.3139 -0.232422,0.639656 -0.232422,0.972656 v 1.029297 c 0,2.6211 4.913709,4.746094 10.974609,4.746094 6.0609,0 10.974609,-2.124994 10.974609,-4.746094 v -1.029297 c 0,-0.3331 -0.07937,-0.658956 -0.230468,-0.972656 -1.0372,2.1548 -5.453541,3.773438 -10.744141,3.773438 -5.2905,0 -9.704888,-1.618638 -10.742187,-3.773438 z"
     style="fill:#000000"
     id="path119" />
</svg>
