<?xml version="1.0" encoding="UTF-8" standalone="no"?>
<svg
   xmlns:dc="http://purl.org/dc/elements/1.1/"
   xmlns:cc="http://creativecommons.org/ns#"
   xmlns:rdf="http://www.w3.org/1999/02/22-rdf-syntax-ns#"
   xmlns:svg="http://www.w3.org/2000/svg"
   xmlns="http://www.w3.org/2000/svg"
   style="fill:none"
   id="svg71"
   version="1.1"
   viewBox="0 0 33.561455 31.999985"
   height="31.999985"
   width="33.561455">
  <metadata
     id="metadata77">
    <rdf:RDF>
      <cc:Work
         rdf:about="">
        <dc:format>image/svg+xml</dc:format>
        <dc:type
           rdf:resource="http://purl.org/dc/dcmitype/StillImage" />
        <dc:title></dc:title>
      </cc:Work>
    </rdf:RDF>
  </metadata>
  <defs
     id="defs75" />
  <path
     d="M 5.2441406,0 C 4.6642306,0 4.1953125,0.4472 4.1953125,1 v 4 c 0,0.55267 0.4689181,1.00006 1.0488281,1 0.57963,0 1.0488282,-0.44733 1.0488282,-1 V 1 c 0,-0.5528 -0.4691982,-1 -1.0488282,-1 z M 22.025391,0 c -0.5798,0 -1.048829,0.4472 -1.048829,1 v 4 c 0,0.55267 0.469029,1 1.048829,1 0.5795,0 1.048828,-0.44734 1.048828,-1 V 1 c 0,-0.5528 -0.469328,-1 -1.048828,-1 z M 2.2734375,4 C 1.0178875,4 0,4.9843487 0,6.1992188 V 23.800781 C 0,25.011581 1.0178875,26 2.2734375,26 H 14.683594 V 24 H 2.2734375 c -0.09504,0 -0.1757812,-0.09392 -0.1757813,-0.199219 V 10 H 25.171875 v 4 h 2.097656 V 6.1992188 C 27.269531,4.9843487 26.251594,4 24.996094,4 h -0.873047 v 1 c 0,1.10144 -0.940756,2 -2.097656,2 -1.1572,0 -2.097657,-0.89856 -2.097657,-2 V 4 H 7.3417969 v 1 c 0,1.10144 -0.9405363,2 -2.0976563,2 C 4.0867406,7 3.1464844,6.10144 3.1464844,5 V 4 Z m 3.4902344,9.216797 a 1.48779,1.41734 0 0 0 -1.4882813,1.417969 1.48779,1.41734 0 0 0 1.4882813,1.416015 1.48779,1.41734 0 0 0 1.4882812,-1.416015 1.48779,1.41734 0 0 0 -1.4882812,-1.417969 z m 5.0097661,0 a 1.48779,1.41734 0 0 0 -1.4882818,1.417969 1.48779,1.41734 0 0 0 1.4882818,1.416015 1.48779,1.41734 0 0 0 1.488281,-1.416015 1.48779,1.41734 0 0 0 -1.488281,-1.417969 z m 5.011718,0 a 1.48779,1.41734 0 0 0 -1.488281,1.417969 1.48779,1.41734 0 0 0 1.488281,1.416015 1.48779,1.41734 0 0 0 1.488282,-1.416015 1.48779,1.41734 0 0 0 -1.488282,-1.417969 z m 5.011719,0 a 1.48779,1.41734 0 0 0 -1.486328,1.417969 1.48779,1.41734 0 0 0 1.486328,1.416015 1.48779,1.41734 0 0 0 1.488281,-1.416015 1.48779,1.41734 0 0 0 -1.488281,-1.417969 z M 25.171875,16 c -4.6334,0 -8.390625,3.5822 -8.390625,8 0,4.4184 3.757325,8 8.390625,8 4.6337,0 8.388672,-3.5816 8.388672,-8 0,-4.4179 -3.754972,-8 -8.388672,-8 z m 0,2 c 3.4702,0 6.292969,2.6918 6.292969,6 0,3.3088 -2.822769,6 -6.292969,6 -3.47,0 -6.292969,-2.6912 -6.292969,-6 0,-3.3082 2.822969,-6 6.292969,-6 z M 5.7636719,18.785156 a 1.48779,1.41734 0 0 0 -1.4882813,1.417969 1.48779,1.41734 0 0 0 1.4882813,1.416016 1.48779,1.41734 0 0 0 1.4882812,-1.416016 1.48779,1.41734 0 0 0 -1.4882812,-1.417969 z m 5.0097661,0 a 1.48779,1.41734 0 0 0 -1.4882818,1.417969 1.48779,1.41734 0 0 0 1.4882818,1.416016 1.48779,1.41734 0 0 0 1.488281,-1.416016 1.48779,1.41734 0 0 0 -1.488281,-1.417969 z M 24.123047,20 c -0.5798,0 -1.048828,0.4475 -1.048828,1 v 4 c 0,0.5525 0.469028,1 1.048828,1 h 4.195312 c 0.5798,0 1.048829,-0.4475 1.048829,-1 0,-0.5528 -0.469029,-1 -1.048829,-1 h -3.146484 v -3 c 0,-0.5525 -0.469028,-1 -1.048828,-1 z"
     style="fill:#000000"
     id="path57" />
</svg>
