<svg width="33" height="32" viewBox="0 0 33 32" fill="none" xmlns="http://www.w3.org/2000/svg">
<g clip-path="url(#clip0_497_1579)">
<path d="M16.8929 24.3469C17.5458 24.3469 18.0751 23.8176 18.0751 23.1646C18.0751 22.5117 17.5458 21.9824 16.8929 21.9824C16.24 21.9824 15.7107 22.5117 15.7107 23.1646C15.7107 23.8176 16.24 24.3469 16.8929 24.3469Z" fill="#FFA318"/>
<path d="M16.8928 20.0978C16.657 20.0978 16.431 20.0041 16.2643 19.8374C16.0976 19.6707 16.0039 19.4446 16.0039 19.2089V8.54221C16.0039 8.30646 16.0976 8.08037 16.2643 7.91367C16.431 7.74697 16.657 7.65332 16.8928 7.65332C17.1285 7.65332 17.3546 7.74697 17.5213 7.91367C17.688 8.08037 17.7817 8.30646 17.7817 8.54221V19.2089C17.7817 19.4446 17.688 19.6707 17.5213 19.8374C17.3546 20.0041 17.1285 20.0978 16.8928 20.0978Z" fill="#FFA318"/>
<path d="M16.8929 30.2218C14.08 30.2218 11.3303 29.3877 8.99144 27.8249C6.65261 26.2622 4.82971 24.041 3.75326 21.4422C2.67682 18.8434 2.39517 15.9838 2.94394 13.225C3.4927 10.4661 4.84724 7.93196 6.83625 5.94294C8.82527 3.95393 11.3594 2.59939 14.1183 2.05063C16.8771 1.50186 19.7367 1.78351 22.3355 2.85995C24.9343 3.9364 27.1555 5.7593 28.7182 8.09813C30.281 10.437 31.1151 13.1867 31.1151 15.9996C31.1151 19.7715 29.6167 23.389 26.9495 26.0562C24.2823 28.7234 20.6649 30.2218 16.8929 30.2218ZM16.8929 3.55513C14.4316 3.55513 12.0256 4.28498 9.97912 5.65239C7.93264 7.01981 6.33761 8.96337 5.39572 11.2373C4.45382 13.5112 4.20738 16.0134 4.68756 18.4274C5.16773 20.8413 6.35294 23.0587 8.09333 24.7991C9.83372 26.5395 12.0511 27.7247 14.4651 28.2049C16.8791 28.6851 19.3812 28.4386 21.6552 27.4967C23.9291 26.5548 25.8726 24.9598 27.2401 22.9133C28.6075 20.8669 29.3373 18.4608 29.3373 15.9996C29.3373 12.6991 28.0262 9.53381 25.6924 7.20002C23.3586 4.86624 20.1934 3.55513 16.8929 3.55513Z" fill="#FFA318"/>
</g>
<defs>
<clipPath id="clip0_497_1579">
<rect width="32" height="32" fill="white" transform="translate(0.892822)"/>
</clipPath>
</defs>
</svg>
