<svg width="25" height="25" viewBox="0 0 25 25" fill="none" xmlns="http://www.w3.org/2000/svg">
<g clip-path="url(#clip0_443_28166)">
<path d="M12.165 18.3886C12.6547 18.3886 13.0517 17.9916 13.0517 17.5019C13.0517 17.0122 12.6547 16.6152 12.165 16.6152C11.6753 16.6152 11.2783 17.0122 11.2783 17.5019C11.2783 17.9916 11.6753 18.3886 12.165 18.3886Z" fill="#FFA318"/>
<path d="M12.1652 15.2025C11.9884 15.2025 11.8188 15.1322 11.6938 15.0072C11.5688 14.8822 11.4985 14.7126 11.4985 14.5358V6.53581C11.4985 6.359 11.5688 6.18943 11.6938 6.0644C11.8188 5.93938 11.9884 5.86914 12.1652 5.86914C12.342 5.86914 12.5116 5.93938 12.6366 6.0644C12.7616 6.18943 12.8319 6.359 12.8319 6.53581V14.5358C12.8319 14.7126 12.7616 14.8822 12.6366 15.0072C12.5116 15.1322 12.342 15.2025 12.1652 15.2025Z" fill="#FFA318"/>
<path d="M12.1652 22.7962C10.0555 22.7962 7.99325 22.1706 6.23912 20.9986C4.485 19.8265 3.11783 18.1606 2.31049 16.2115C1.50316 14.2624 1.29192 12.1177 1.7035 10.0486C2.11507 7.97947 3.13097 6.07885 4.62273 4.58709C6.11449 3.09533 8.01511 2.07943 10.0842 1.66785C12.1534 1.25628 14.2981 1.46751 16.2472 2.27485C18.1962 3.08218 19.8621 4.44935 21.0342 6.20348C22.2063 7.9576 22.8319 10.0199 22.8319 12.1296C22.8319 14.9585 21.7081 17.6716 19.7077 19.672C17.7073 21.6724 14.9942 22.7962 12.1652 22.7962ZM12.1652 2.79623C10.3192 2.79623 8.51474 3.34362 6.97988 4.36918C5.44503 5.39474 4.24875 6.85241 3.54233 8.55785C2.83591 10.2633 2.65108 12.1399 3.01121 13.9504C3.37134 15.7609 4.26025 17.4239 5.56554 18.7292C6.87083 20.0345 8.53387 20.9234 10.3444 21.2836C12.1549 21.6437 14.0315 21.4589 15.7369 20.7524C17.4424 20.046 18.9 18.8497 19.9256 17.3149C20.9511 15.78 21.4985 13.9755 21.4985 12.1296C21.4985 9.65421 20.5152 7.28024 18.7649 5.5299C17.0145 3.77956 14.6406 2.79623 12.1652 2.79623Z" fill="#FFA318"/>
</g>
<defs>
<clipPath id="clip0_443_28166">
<rect width="24" height="24" fill="white" transform="translate(0.165039 0.128906)"/>
</clipPath>
</defs>
</svg>
