<svg width="32" height="35" viewBox="0 0 32 35" fill="none" xmlns="http://www.w3.org/2000/svg">
<mask id="mask0_1163_34658" style="mask-type:alpha" maskUnits="userSpaceOnUse" x="4" y="6" width="23" height="24">
<path d="M15.3447 15.7723L15.6982 16.1259L16.0518 15.7723L24.4261 7.39806C24.8983 6.92585 25.6639 6.92585 26.1361 7.39806C26.6083 7.87028 26.6083 8.63589 26.1361 9.1081L17.7618 17.4824L17.4083 17.8359L17.7618 18.1895L26.1361 26.5638C26.6083 27.036 26.6083 27.8016 26.1361 28.2738C25.6639 28.746 24.8983 28.746 24.4261 28.2738L16.0518 19.8995L15.6982 19.546L15.3447 19.8995L6.9704 28.2738C6.49819 28.746 5.73258 28.746 5.26037 28.2738C4.78815 27.8016 4.78815 27.036 5.26037 26.5638L13.6347 18.1895L13.9882 17.8359L13.6347 17.4824L5.26037 9.1081C4.78815 8.63588 4.78815 7.87028 5.26037 7.39806C5.73258 6.92585 6.49819 6.92585 6.9704 7.39806L15.3447 15.7723Z" fill="#5F5F5F" stroke="black"/>
</mask>
<g mask="url(#mask0_1163_34658)">
<rect y="0.835938" width="32" height="33.3264" fill="#5F5F5F"/>
</g>
</svg>
