<?xml version="1.0" encoding="UTF-8" standalone="no"?>
<svg
   xmlns:dc="http://purl.org/dc/elements/1.1/"
   xmlns:cc="http://creativecommons.org/ns#"
   xmlns:rdf="http://www.w3.org/1999/02/22-rdf-syntax-ns#"
   xmlns:svg="http://www.w3.org/2000/svg"
   xmlns="http://www.w3.org/2000/svg"
   id="svg79"
   version="1.1"
   fill="none"
   viewBox="0 0 22 23"
   height="23"
   width="22">
  <metadata
     id="metadata85">
    <rdf:RDF>
      <cc:Work
         rdf:about="">
        <dc:format>image/svg+xml</dc:format>
        <dc:type
           rdf:resource="http://purl.org/dc/dcmitype/StillImage" />
        <dc:title></dc:title>
      </cc:Work>
    </rdf:RDF>
  </metadata>
  <defs
     id="defs83" />
  <path
     d="M 2.9375,0.1484375 V 3.2929688 C 1.6489805,3.6408144 0.6953125,4.8066002 0.6953125,6.2050781 c 0,1.3984863 0.953668,2.5623104 2.2421875,2.9101563 V 22.148438 H 4.5058594 V 9.1171875 C 5.7965156,8.770763 6.7519531,7.6050783 6.7519531,6.2050781 c 0,-1.3999918 -0.9554375,-2.5676382 -2.2460937,-2.9140625 V 0.1484375 Z m 7.548828,0 V 12.019531 c -1.2885358,0.347853 -2.2402342,1.513615 -2.2402342,2.91211 0,1.398494 0.9516984,2.562326 2.2402342,2.910156 v 4.306641 h 1.56836 V 17.84375 c 1.290646,-0.346409 2.246093,-1.512101 2.246093,-2.912109 0,-1.400009 -0.955447,-2.567631 -2.246093,-2.914063 V 0.1484375 Z m 7.548828,0 v 3.1445313 c -1.289401,0.3472307 -2.242187,1.5129758 -2.242187,2.9121093 0,1.3991419 0.952786,2.5629253 2.242187,2.9101563 V 22.148438 h 1.56836 V 9.1152344 c 1.28946,-0.347231 2.24414,-1.5110144 2.24414,-2.9101563 0,-1.3991335 -0.95468,-2.5648786 -2.24414,-2.9121093 V 0.1484375 Z M 3.7246094,4.7441406 c 0.80631,0 1.4589844,0.6546375 1.4589844,1.4609375 0,0.80631 -0.6526744,1.4589844 -1.4589844,1.4589844 -0.80631,0 -1.4609375,-0.6526744 -1.4609375,-1.4589844 0,-0.8063 0.6546275,-1.4609375 1.4609375,-1.4609375 z m 15.0957026,0 c 0.8064,0 1.458985,0.6546375 1.458985,1.4609375 0,0.80631 -0.652584,1.4589844 -1.458985,1.4589844 -0.8063,0 -1.460937,-0.6526744 -1.460937,-1.4589844 0,-0.8063 0.654637,-1.4609375 1.460937,-1.4609375 z m -7.546874,8.7265624 c 0.8063,0 1.458984,0.654638 1.458984,1.460938 0,0.8063 -0.652684,1.458984 -1.458984,1.458984 -0.8063,0 -1.460938,-0.652684 -1.460938,-1.458984 0,-0.8063 0.654637,-1.460938 1.460938,-1.460938 z"
     style="clip-rule:evenodd;fill:#000000;fill-rule:evenodd"
     id="path61" />
</svg>
