<svg width="21" height="21" viewBox="0 0 21 21" fill="none" xmlns="http://www.w3.org/2000/svg">
<path fill-rule="evenodd" clip-rule="evenodd" d="M10.6722 19.4864C12.9929 19.4864 15.2185 18.5645 16.8594 16.9235C18.5004 15.2826 19.4222 13.057 19.4222 10.7364C19.4222 8.41571 18.5004 6.19012 16.8594 4.54917C15.2185 2.90823 12.9929 1.98636 10.6722 1.98636C8.3516 1.98636 6.126 2.90823 4.48506 4.54917C2.84411 6.19012 1.92224 8.41571 1.92224 10.7364C1.92224 13.057 2.84411 15.2826 4.48506 16.9235C6.126 18.5645 8.3516 19.4864 10.6722 19.4864ZM10.6722 20.7364C13.3244 20.7364 15.8679 19.6828 17.7433 17.8074C19.6187 15.9321 20.6722 13.3885 20.6722 10.7364C20.6722 8.08419 19.6187 5.54065 17.7433 3.66529C15.8679 1.78993 13.3244 0.736359 10.6722 0.736359C8.02008 0.736359 5.47654 1.78993 3.60117 3.66529C1.72581 5.54065 0.672241 8.08419 0.672241 10.7364C0.672241 13.3885 1.72581 15.9321 3.60117 17.8074C5.47654 19.6828 8.02008 20.7364 10.6722 20.7364Z" fill="#4048FF"/>
<path d="M11.8348 8.97115L8.9723 9.3299L8.8698 9.8049L9.4323 9.90865C9.7998 9.99615 9.8723 10.1287 9.7923 10.4949L8.8698 14.8299C8.6273 15.9512 9.00105 16.4787 9.8798 16.4787C10.5611 16.4787 11.3523 16.1637 11.7111 15.7312L11.8211 15.2112C11.5711 15.4312 11.2061 15.5187 10.9636 15.5187C10.6198 15.5187 10.4948 15.2774 10.5836 14.8524L11.8348 8.97115Z" fill="#4048FF"/>
<path d="M10.6721 7.61127C11.3625 7.61127 11.9221 7.05163 11.9221 6.36127C11.9221 5.67092 11.3625 5.11127 10.6721 5.11127C9.98176 5.11127 9.42212 5.67092 9.42212 6.36127C9.42212 7.05163 9.98176 7.61127 10.6721 7.61127Z" fill="#4048FF"/>
</svg>
