<?xml version="1.0" encoding="UTF-8" standalone="no"?>
<svg
   xmlns:dc="http://purl.org/dc/elements/1.1/"
   xmlns:cc="http://creativecommons.org/ns#"
   xmlns:rdf="http://www.w3.org/1999/02/22-rdf-syntax-ns#"
   xmlns:svg="http://www.w3.org/2000/svg"
   xmlns="http://www.w3.org/2000/svg"
   width="28"
   height="28"
   viewBox="0 0 28 28"
   fill="none"
   version="1.1"
   id="svg58">
  <metadata
     id="metadata64">
    <rdf:RDF>
      <cc:Work
         rdf:about="">
        <dc:format>image/svg+xml</dc:format>
        <dc:type
           rdf:resource="http://purl.org/dc/dcmitype/StillImage" />
        <dc:title></dc:title>
      </cc:Work>
    </rdf:RDF>
  </metadata>
  <defs
     id="defs62" />
  <path
     id="path56"
     style="fill:#000000"
     d="M 14.419922,0.70703125 C 13.283753,0.67071602 12.140628,0.78096063 11.017578,1.0410156 8.0227081,1.7344956 5.3641369,3.4497181 3.4980469,5.8925781 L 1.4902344,3.8847656 c -0.05775,-0.05789 -0.1307475,-0.097291 -0.2109375,-0.1132812 -0.0802,-0.016 -0.1646844,-0.00788 -0.2402344,0.023437 -0.075537,0.03131 -0.13823275,0.084304 -0.18359375,0.1523437 -0.045362,0.06804 -0.0704585,0.1486888 -0.0703125,0.2304688 v 6.0214846 c 0,0.228 0.18418137,0.412109 0.41210935,0.412109 h 6.0234375 c 0.08177,2e-4 0.1604757,-0.02306 0.2285157,-0.06836 0.06804,-0.0454 0.1210337,-0.109947 0.1523437,-0.185547 C 7.6328725,10.281922 7.64099,10.199341 7.625,10.119141 7.609,10.038941 7.5696187,9.964 7.5117188,9.90625 L 5.2695312,7.6640625 c 1.4621001,-2.04202 3.5929676,-3.507925 6.0234378,-4.140625 2.4305,-0.63271 5.007097,-0.3921756 7.279297,0.6777344 2.2722,1.06991 4.097603,2.9011744 5.158203,5.1777343 1.0606,2.2765198 1.289184,4.8533498 0.646484,7.2812498 -0.6426,2.4278 -2.116062,4.554113 -4.164062,6.007813 -2.048,1.4537 -4.540922,2.143518 -7.044922,1.949219 -2.5039,-0.194301 -4.8609565,-1.259419 -6.6601565,-3.011719 -1.7992,-1.7522 -2.9271,-4.080125 -3.1875,-6.578125 -0.03373,-0.327 -0.1961019,-0.628538 -0.4511719,-0.835938 -0.25508,-0.2074 -0.5812031,-0.303231 -0.9082031,-0.269531 -0.327,0.0338 -0.6285575,0.194119 -0.8359375,0.449219 -0.207371,0.255 -0.30326025,0.583156 -0.26953125,0.910156 0.31775395,3.0576 1.69145565,5.9086 3.88476565,8.0625 2.19331,2.1539 5.0679594,3.475981 8.1308596,3.738281 3.0628,0.2622 6.120837,-0.551081 8.648437,-2.300781 2.5275,-1.7496 4.366219,-4.326056 5.199219,-7.285156 0.8329,-2.9591 0.608934,-6.116525 -0.634766,-8.9277346 C 24.840284,5.7571194 22.654197,3.46774 19.904297,2.09375 18.185609,1.2350119 16.313536,0.76755663 14.419922,0.70703125 Z M 13.585938,7.3085938 c -0.328601,0 -0.644654,0.1309712 -0.876954,0.3632812 -0.2323,0.23231 -0.361328,0.54647 -0.361328,0.875 v 5.78125 c 10e-5,0.2473 0.07234,0.488459 0.210938,0.693359 0.1387,0.2049 0.336806,0.365032 0.566406,0.457032 l 4.128906,1.65039 c 0.3024,0.1104 0.635688,0.10005 0.929688,-0.03125 0.294,-0.1313 0.524931,-0.372975 0.644531,-0.671875 0.1196,-0.299 0.118294,-0.631887 -0.0039,-0.929687 -0.1223,-0.2979 -0.355191,-0.537416 -0.650391,-0.666016 L 14.824219,13.488281 V 8.546875 c 0,-0.32853 -0.130981,-0.64269 -0.363281,-0.875 -0.2323,-0.23231 -0.5465,-0.3632812 -0.875,-0.3632812 z" />
</svg>
