<svg width="29" height="29" viewBox="0 0 29 29" fill="none" xmlns="http://www.w3.org/2000/svg">
<circle cx="14.0833" cy="14.8906" r="13" stroke="#00CC9E" stroke-width="2"/>
<path fill-rule="evenodd" clip-rule="evenodd" d="M18.2045 10.4348C18.4102 10.2308 18.6879 10.116 18.9776 10.1152C19.2673 10.1144 19.5457 10.2277 19.7526 10.4305C19.9594 10.6333 20.0782 10.9094 20.0831 11.199C20.088 11.4887 19.9788 11.7686 19.7789 11.9784L13.9103 19.3142C13.8094 19.4228 13.6877 19.51 13.5524 19.5705C13.4171 19.631 13.2709 19.6636 13.1227 19.6664C12.9745 19.6691 12.8272 19.6419 12.6898 19.5865C12.5523 19.531 12.4274 19.4484 12.3226 19.3436L8.43418 15.4537C8.32585 15.3527 8.23896 15.231 8.1787 15.0958C8.11844 14.9605 8.08604 14.8145 8.08342 14.6665C8.08081 14.5184 8.10804 14.3714 8.1635 14.2341C8.21895 14.0968 8.30149 13.9721 8.40619 13.8674C8.51089 13.7627 8.6356 13.6802 8.77289 13.6247C8.91018 13.5692 9.05723 13.542 9.20528 13.5446C9.35332 13.5472 9.49932 13.5796 9.63457 13.6399C9.76982 13.7002 9.89154 13.7871 9.99248 13.8954L13.0709 16.9723L18.1765 10.4671C18.1856 10.4557 18.1955 10.4449 18.2059 10.4348H18.2045Z" fill="#00CC9E"/>
</svg>
