<?xml version="1.0" encoding="UTF-8" standalone="no"?>
<svg
   xmlns:dc="http://purl.org/dc/elements/1.1/"
   xmlns:cc="http://creativecommons.org/ns#"
   xmlns:rdf="http://www.w3.org/1999/02/22-rdf-syntax-ns#"
   xmlns:svg="http://www.w3.org/2000/svg"
   xmlns="http://www.w3.org/2000/svg"
   width="19.99996"
   height="20.00004"
   viewBox="0 0 19.99996 20.00004"
   version="1.1"
   id="svg153"
   style="fill:none">
  <metadata
     id="metadata159">
    <rdf:RDF>
      <cc:Work
         rdf:about="">
        <dc:format>image/svg+xml</dc:format>
        <dc:type
           rdf:resource="http://purl.org/dc/dcmitype/StillImage" />
        <dc:title></dc:title>
      </cc:Work>
    </rdf:RDF>
  </metadata>
  <defs
     id="defs157" />
  <path
     id="path147"
     style="clip-rule:evenodd;fill:#000000;fill-rule:evenodd"
     d="M 10,0 C 7.34788,0 4.8050575,1.0543275 2.9296875,2.9296875 1.0543275,4.8050475 0,7.34779 0,10 0,12.6521 1.0543275,15.195012 2.9296875,17.070312 4.8050575,18.945712 7.34788,20 10,20 12.6522,20 15.194913,18.945713 17.070312,17.070312 18.945712,15.195013 20,12.6521 20,10 20,7.34779 18.945712,4.8050475 17.070312,2.9296875 15.194912,1.0543275 12.6522,0 10,0 Z m 0,1.25 c 2.3207,0 4.5466,0.92156 6.1875,2.5625 1.641,1.64095 2.5625,3.86681 2.5625,6.1875 0,2.3206 -0.9215,4.5466 -2.5625,6.1875 C 14.5466,17.8285 12.3207,18.75 10,18.75 7.6794,18.75 5.45344,17.8285 3.8125,16.1875 2.17155,14.5466 1.25,12.3206 1.25,10 1.25,7.67931 2.17155,5.45345 3.8125,3.8125 5.45344,2.17156 7.6794,1.25 10,1.25 Z m 0,3.125 c -0.69034,0 -1.25,0.55965 -1.25,1.25 0,0.69036 0.55966,1.25 1.25,1.25 0.6904,0 1.25,-0.55964 1.25,-1.25 0,-0.69035 -0.5596,-1.25 -1.25,-1.25 z m 1.162109,3.859375 -2.8613278,0.359375 -0.1035156,0.4746094 0.5625,0.1035156 c 0.3675,0.0875 0.439375,0.2197375 0.359375,0.5859375 L 8.1972656,14.09375 c -0.2425,1.1213 0.1310157,1.648437 1.0097656,1.648438 0.6813001,0 1.4732308,-0.315547 1.8320308,-0.748047 l 0.109376,-0.519532 c -0.25,0.22 -0.614922,0.308594 -0.857422,0.308594 -0.3438004,0 -0.4677066,-0.242969 -0.3789066,-0.667969 z" />
</svg>
