<?xml version="1.0" encoding="UTF-8" standalone="no"?>
<svg
   xmlns:dc="http://purl.org/dc/elements/1.1/"
   xmlns:cc="http://creativecommons.org/ns#"
   xmlns:rdf="http://www.w3.org/1999/02/22-rdf-syntax-ns#"
   xmlns:svg="http://www.w3.org/2000/svg"
   xmlns="http://www.w3.org/2000/svg"
   width="30"
   height="33"
   viewBox="0 0 30 33"
   fill="none"
   version="1.1"
   id="svg563">
  <metadata
     id="metadata569">
    <rdf:RDF>
      <cc:Work
         rdf:about="">
        <dc:format>image/svg+xml</dc:format>
        <dc:type
           rdf:resource="http://purl.org/dc/dcmitype/StillImage" />
        <dc:title></dc:title>
      </cc:Work>
    </rdf:RDF>
  </metadata>
  <defs
     id="defs567" />
  <mask
     id="path-1-outside-1"
     maskUnits="userSpaceOnUse"
     x="5.14062"
     y="6.27441"
     width="20"
     height="26"
     fill="black">
    <rect
       fill="white"
       x="5.14062"
       y="6.27441"
       width="20"
       height="26"
       id="rect544" />
    <path
       fill-rule="evenodd"
       clip-rule="evenodd"
       d="M7.32528 20.5461C6.5487 19.2008 6.14011 17.6747 6.14063 16.1214C6.14085 14.5683 6.54987 13.0424 7.32658 11.6975C8.1033 10.3525 9.22034 9.23576 10.5654 8.45935C11.9105 7.68295 13.4363 7.27428 14.9894 7.27441C16.5425 7.27455 18.0682 7.68349 19.4132 8.46013C20.7581 9.23678 21.875 10.3538 22.6515 11.6988C23.4279 13.0439 23.8367 14.5696 23.8366 16.1227C23.8366 17.6758 23.4277 19.2016 22.6512 20.5466C21.8746 21.8916 20.7577 23.0085 19.4126 23.785C19.1032 23.9637 18.9126 24.2938 18.9126 24.651V27.6104C18.9126 28.6511 18.4992 29.6492 17.7633 30.3851C17.0274 31.121 16.0293 31.5344 14.9886 31.5344C13.9479 31.5344 12.9498 31.121 12.2139 30.3851C11.478 29.6492 11.0646 28.6511 11.0646 27.6104V24.651C11.0646 24.2937 10.874 23.9635 10.5645 23.7849C9.21906 23.0085 8.10187 21.8914 7.32528 20.5461ZM13.5131 24.8466C13.223 24.7979 12.9261 24.8793 12.7015 25.0693C12.4768 25.2593 12.3473 25.5386 12.3473 25.8328V27.6104C12.3473 28.3109 12.6256 28.9827 13.1209 29.4781C13.6163 29.9734 14.2881 30.2517 14.9886 30.2517C15.6892 30.2517 16.361 29.9734 16.8563 29.4781C17.3517 28.9827 17.63 28.3109 17.63 27.6104V25.8328C17.63 25.5386 17.5004 25.2593 17.2758 25.0693C17.0512 24.8793 16.7543 24.7979 16.4642 24.8466C15.4873 25.0109 14.4899 25.0109 13.5131 24.8466ZM14.9886 8.55569C12.9822 8.55569 11.0579 9.35275 9.63913 10.7715C8.22036 12.1903 7.4233 14.1146 7.4233 16.121C7.4233 18.1275 8.22036 20.0518 9.63913 21.4705C11.0579 22.8893 12.9822 23.6864 14.9886 23.6864C16.9951 23.6864 18.9194 22.8893 20.3381 21.4705C21.7569 20.0518 22.554 18.1275 22.554 16.121C22.554 14.1146 21.7569 12.1903 20.3381 10.7715C18.9194 9.35275 16.9951 8.55569 14.9886 8.55569Z"
       id="path546" />
  </mask>
  <path
     id="path549"
     style="fill:#000000"
     d="m 14.988281,0.39453125 c -0.584337,0 -1.054687,0.4723036 -1.054687,1.05664065 v 1.3886719 c 0,0.584337 0.47035,1.0546874 1.054687,1.0546874 0.584337,0 1.054688,-0.4703504 1.054688,-1.0546874 V 1.4511719 c 0,-0.58433705 -0.470351,-1.05664065 -1.054688,-1.05664065 z M 5.140625,5.21875 c -0.2696169,0 -0.5394993,0.1019993 -0.7460938,0.3085938 -0.4131888,0.4131888 -0.4131888,1.0789986 0,1.4921874 l 0.984375,0.9824219 c 0.4131889,0.4131888 1.0770456,0.4131888 1.4902344,0 0.4131888,-0.4131888 0.4131888,-1.0770455 0,-1.4902343 L 5.8867188,5.5273438 C 5.6801243,5.3207493 5.4102419,5.21875 5.140625,5.21875 Z m 19.697266,0 c -0.269617,0 -0.5395,0.1019994 -0.746094,0.3085938 l -0.984375,0.984375 c -0.413189,0.4131886 -0.413189,1.0770456 0,1.4902343 0.413189,0.4131887 1.078999,0.4131887 1.492187,0 l 0.982422,-0.9824219 c 0.413189,-0.4131886 0.413189,-1.0789988 0,-1.4921874 C 25.375437,5.3207494 25.107507,5.21875 24.837891,5.21875 Z m -9.847657,1.5546875 c -1.6409,-1.4e-4 -3.252728,0.4316731 -4.673828,1.2519531 -1.4211297,0.82028 -2.6012648,2.0009754 -3.4218748,3.4218754 -0.82061,1.421 -1.2536762,3.032928 -1.2539062,4.673828 -5.5e-4,1.6412 0.4314631,3.254381 1.2519531,4.675781 0.82049,1.4214 2.000465,2.601575 3.4218749,3.421875 0.1548,0.0893 0.25,0.253041 0.25,0.431641 v 2.960937 c 0,1.1733 0.467175,2.297353 1.296875,3.126953 0.8297,0.8297 1.953653,1.296875 3.126953,1.296875 1.1734,0 2.299206,-0.467175 3.128907,-1.296875 0.829599,-0.8296 1.294921,-1.953653 1.294921,-3.126953 v -2.960937 c 0,-0.1786 0.0953,-0.342341 0.25,-0.431641 1.4211,-0.8204 2.601375,-2.000875 3.421875,-3.421875 0.8204,-1.421 1.251954,-3.033028 1.251954,-4.673828 9.9e-5,-1.6409 -0.431654,-3.252728 -1.251954,-4.673828 -0.8204,-1.421 -1.998921,-2.6013452 -3.419922,-3.4218752 -1.420999,-0.82053 -3.033028,-1.2537563 -4.673828,-1.2539063 z m -0.002,2.2832031 c 1.8739,0 3.671094,0.7433294 4.996094,2.0683594 1.325,1.325 2.070313,3.122294 2.070313,4.996094 0,1.8739 -0.745313,3.671094 -2.070313,4.996094 -1.325,1.324999 -3.122194,2.068359 -4.996094,2.068359 -1.8738,0 -3.671083,-0.743359 -4.9960935,-2.068359 -1.325,-1.325 -2.0683594,-3.122194 -2.0683594,-4.996094 0,-1.8738 0.7433594,-3.671094 2.0683594,-4.996094 C 11.317198,9.79997 13.114481,9.0566406 14.988281,9.0566406 Z M 1.3359375,14.759766 c -0.58433703,0 -1.05664062,0.472303 -1.05664062,1.05664 0,0.584337 0.47230359,1.054688 1.05664062,1.054688 h 1.3886719 c 0.584337,0 1.0546875,-0.470351 1.0546875,-1.054688 0,-0.584337 -0.4703505,-1.05664 -1.0546875,-1.05664 z m 25.9160155,0 c -0.584337,0 -1.054687,0.472303 -1.054687,1.05664 0,0.584337 0.47035,1.054688 1.054687,1.054688 h 1.390625 c 0.584337,0 1.054688,-0.470351 1.054688,-1.054688 0,-0.584337 -0.470351,-1.05664 -1.054688,-1.05664 z M 13.429688,25.339844 c 1.0317,0.1735 2.085487,0.1735 3.117187,0 0.145,-0.0244 0.29395,0.01633 0.40625,0.111328 0.1123,0.095 0.177734,0.233759 0.177734,0.380859 v 1.779297 c 0,0.5679 -0.227306,1.112072 -0.628906,1.513672 -0.4016,0.4016 -0.945672,0.626953 -1.513672,0.626953 -0.5679,0 -1.112072,-0.225353 -1.513672,-0.626953 -0.4016,-0.4016 -0.626953,-0.945772 -0.626953,-1.513672 v -1.779297 c 0,-0.1471 0.06348,-0.285859 0.175782,-0.380859 0.112299,-0.095 0.26115,-0.135728 0.40625,-0.111328 z" />
</svg>
