<?xml version="1.0" encoding="UTF-8" standalone="no"?>
<svg
   xmlns:dc="http://purl.org/dc/elements/1.1/"
   xmlns:cc="http://creativecommons.org/ns#"
   xmlns:rdf="http://www.w3.org/1999/02/22-rdf-syntax-ns#"
   xmlns:svg="http://www.w3.org/2000/svg"
   xmlns="http://www.w3.org/2000/svg"
   style="fill:none"
   id="svg51"
   version="1.1"
   viewBox="0 0 24.00038 24.000099"
   height="24.000099"
   width="24.00038">
  <metadata
     id="metadata57">
    <rdf:RDF>
      <cc:Work
         rdf:about="">
        <dc:format>image/svg+xml</dc:format>
        <dc:type
           rdf:resource="http://purl.org/dc/dcmitype/StillImage" />
        <dc:title></dc:title>
      </cc:Work>
    </rdf:RDF>
  </metadata>
  <defs
     id="defs55" />
  <path
     d="m 13.845703,0 c -0.2448,0 -0.479244,0.09837437 -0.652344,0.27148438 -0.1731,0.17309999 -0.271484,0.40753375 -0.271484,0.65234374 0,0.24480998 0.09838,0.47924378 0.271484,0.65234378 0.1731,0.17311 0.407544,0.2714843 0.652344,0.2714843 h 7 L 7.6542969,15.039062 c -0.0859,0.0858 -0.1546719,0.188682 -0.2011719,0.300782 -0.0464,0.1122 -0.070312,0.232215 -0.070312,0.353515 0,0.1214 0.023912,0.241416 0.070312,0.353516 0.0465,0.1121 0.1152719,0.214981 0.2011719,0.300781 0.0858,0.0859 0.1867281,0.152719 0.2988281,0.199219 0.1121,0.0464 0.2321156,0.07031 0.3535156,0.07031 0.1214,-10e-7 0.2413157,-0.02391 0.3535156,-0.07031 0.1121,-0.0465 0.2149813,-0.113319 0.3007813,-0.199219 L 22.152344,3.1542969 v 7.0000001 c 0,0.2448 0.09838,0.479244 0.271484,0.652344 0.1731,0.1731 0.407544,0.271484 0.652344,0.271484 0.2448,0 0.479144,-0.09838 0.652344,-0.271484 C 23.901616,10.633541 24,10.399097 24,10.154297 V 0.92382812 C 24,0.67901813 23.901616,0.44458438 23.728516,0.27148438 23.555316,0.09837437 23.320972,0 23.076172,0 Z M 2.7695312,3.6933594 c -0.73442,0 -1.4396743,0.2912268 -1.95898432,0.8105468 C 0.29123688,5.0232162 0,5.7284906 0,6.4628906 V 21.230469 c 0,0.7344 0.29123687,1.439684 0.81054688,1.958984 C 1.3298569,23.708853 2.0351112,24 2.7695312,24 H 17.537109 c 0.7344,0 1.439585,-0.291147 1.958985,-0.810547 0.5193,-0.5193 0.810547,-1.224584 0.810547,-1.958984 v -7.384766 c 0,-0.2448 -0.09643,-0.479244 -0.269532,-0.652344 -0.1731,-0.1731 -0.407543,-0.269531 -0.652343,-0.269531 -0.2448,0 -0.481197,0.09643 -0.654297,0.269531 -0.1731,0.1731 -0.269532,0.407544 -0.269531,0.652344 v 7.384766 c 0,0.2448 -0.09643,0.479244 -0.269532,0.652343 -0.1731,0.173101 -0.409497,0.271485 -0.654297,0.271485 H 2.7695312 c -0.24481,0 -0.4792337,-0.09839 -0.6523437,-0.271485 -0.1731,-0.1731 -0.2714844,-0.407543 -0.2714844,-0.652343 V 6.4628906 c 0,-0.2448 0.098384,-0.4811969 0.2714844,-0.6542968 0.17311,-0.1731 0.4075338,-0.2695313 0.6523437,-0.2695313 h 7.3847658 c 0.2448,0 0.479244,-0.096431 0.652344,-0.2695313 0.1731,-0.17307 0.269531,-0.4094868 0.269531,-0.6542968 0,-0.2448 -0.09643,-0.4792338 -0.269531,-0.6523438 -0.1731,-0.1731 -0.407544,-0.2695312 -0.652344,-0.2695312 z"
     style="clip-rule:evenodd;fill:#000000;fill-rule:evenodd"
     id="path47" />
</svg>
