<?xml version="1.0" encoding="UTF-8" standalone="no"?>
<svg
   xmlns:dc="http://purl.org/dc/elements/1.1/"
   xmlns:cc="http://creativecommons.org/ns#"
   xmlns:rdf="http://www.w3.org/1999/02/22-rdf-syntax-ns#"
   xmlns:svg="http://www.w3.org/2000/svg"
   xmlns="http://www.w3.org/2000/svg"
   style="fill:none"
   id="svg165"
   version="1.1"
   viewBox="0 0 33.974712 33.974712"
   height="33.974712"
   width="33.974712">
  <metadata
     id="metadata171">
    <rdf:RDF>
      <cc:Work
         rdf:about="">
        <dc:format>image/svg+xml</dc:format>
        <dc:type
           rdf:resource="http://purl.org/dc/dcmitype/StillImage" />
        <dc:title></dc:title>
      </cc:Work>
    </rdf:RDF>
  </metadata>
  <defs
     id="defs169" />
  <path
     d="M 16.988281,0 C 7.6073512,0 0,7.6073513 0,16.988281 c 0,9.381 7.6073512,16.986328 16.988281,16.986328 9.381,0 16.986328,-7.605328 16.986328,-16.986328 C 33.974609,7.6073513 26.369281,0 16.988281,0 Z m 0,2.8808594 c 7.7884,0 14.105469,6.3190618 14.105469,14.1074216 0,7.7884 -6.317069,14.105469 -14.105469,14.105469 -7.7883698,0 -14.1074216,-6.317069 -14.1074216,-14.105469 0,-7.7883598 6.3190518,-14.1074216 14.1074216,-14.1074216 z m -3.671875,5.3496094 c -0.1113,-0.00898 -0.222765,0.013733 -0.322265,0.064453 -0.0994,0.05071 -0.182135,0.1273062 -0.240235,0.2226562 -0.0581,0.09535 -0.08839,0.2067094 -0.08789,0.3183594 V 25.140625 c 0,0.4968 0.560884,0.776481 0.958984,0.488281 l 11.226562,-8.152344 c 0.0775,-0.0559 0.142047,-0.129843 0.185547,-0.214843 0.0436,-0.085 0.06641,-0.177838 0.06641,-0.273438 0,-0.0955 -0.02281,-0.19039 -0.06641,-0.27539 -0.0435,-0.0851 -0.108047,-0.159044 -0.185547,-0.214844 L 13.625,8.3457031 c -0.09,-0.06601 -0.197294,-0.1062544 -0.308594,-0.1152343 z m 1.767578,4.1660152 6.322266,4.591797 -6.322266,4.591797 z"
     style="fill:#000000;fill-opacity:0.8"
     id="path161" />
</svg>
