<?xml version="1.0" encoding="UTF-8" standalone="no"?>
<svg
   xmlns:dc="http://purl.org/dc/elements/1.1/"
   xmlns:cc="http://creativecommons.org/ns#"
   xmlns:rdf="http://www.w3.org/1999/02/22-rdf-syntax-ns#"
   xmlns:svg="http://www.w3.org/2000/svg"
   xmlns="http://www.w3.org/2000/svg"
   style="fill:none"
   id="svg51"
   version="1.1"
   viewBox="0 0 14.695815 14.000003"
   height="14.000003"
   width="14.695815">
  <metadata
     id="metadata57">
    <rdf:RDF>
      <cc:Work
         rdf:about="">
        <dc:format>image/svg+xml</dc:format>
        <dc:type
           rdf:resource="http://purl.org/dc/dcmitype/StillImage" />
        <dc:title></dc:title>
      </cc:Work>
    </rdf:RDF>
  </metadata>
  <defs
     id="defs55" />
  <path
     d="M 7.3476562,0 C 3.2960462,0 0,3.14021 0,7 c 0,3.8598 3.2960462,7 7.3476562,7 4.0516798,0 7.3476558,-3.1402 7.3476558,-7 0,-3.85979 -3.295976,-7 -7.3476558,-7 z m 0,0.97851562 C 10.833336,0.97851562 13.669922,3.67935 13.669922,7 c 0,3.3207 -2.836586,6.021484 -6.3222658,6.021484 C 3.8619163,13.021484 1.0273437,10.3207 1.0273438,7 c 0,-3.32072 2.8346525,-6.02148437 6.3203124,-6.02148438 z M 7.3320312,1.796875 c -1.1943999,0 -2.354045,0.33412 -3.265625,0.9375 -0.92634,0.61326 -1.5608725,1.4931381 -1.7890624,2.4550781 L 2.1445312,5.7578125 H 5.9003906 V 6.9472656 H 1.9199219 V 7.8398438 H 5.9003906 V 11.779297 H 6.8359375 V 7.8398438 h 0.859375 V 11.779297 H 8.6542969 V 7.8398438 h 3.0839841 0.935547 0.03516 c 0.1135,-0.74344 0.08239,-1.4019532 -0.09961,-2.1269532 -0.0771,-0.30801 -0.180641,-0.6989662 -0.306641,-0.8476562 H 12.037109 11.611328 11.259766 9.5585938 3.40625 c 0.60434,-1.33819 2.1543513,-2.1425782 3.9257812,-2.1425782 1.0651701,0 2.0512282,0.2099375 2.7988278,0.8046876 h 1.396485 C 11.264644,3.3043137 10.952156,2.9630656 10.597656,2.7285156 9.6862562,2.1249856 8.5263613,1.796875 7.3320312,1.796875 Z M 6.8359375,5.7578125 h 0.859375 v 1.1894531 h -0.859375 z m 1.8183594,0 h 2.9628911 c 0.0195,0 0.03789,0.1190069 0.05469,0.1855469 0.0857,0.34191 0.132678,0.7065362 0.142578,1.0039062 H 8.6542969 Z"
     style="fill:#000000"
     id="path47" />
</svg>
