<?xml version="1.0" encoding="UTF-8" standalone="no"?>
<svg
   xmlns:dc="http://purl.org/dc/elements/1.1/"
   xmlns:cc="http://creativecommons.org/ns#"
   xmlns:rdf="http://www.w3.org/1999/02/22-rdf-syntax-ns#"
   xmlns:svg="http://www.w3.org/2000/svg"
   xmlns="http://www.w3.org/2000/svg"
   width="37"
   height="37"
   viewBox="0 0 37 37"
   fill="none"
   version="1.1"
   id="svg226">
  <metadata
     id="metadata232">
    <rdf:RDF>
      <cc:Work
         rdf:about="">
        <dc:format>image/svg+xml</dc:format>
        <dc:type
           rdf:resource="http://purl.org/dc/dcmitype/StillImage" />
        <dc:title></dc:title>
      </cc:Work>
    </rdf:RDF>
  </metadata>
  <defs
     id="defs230" />
  <path
     id="path220"
     style="fill:#000000"
     d="m 20.328125,6.5742188 c -0.188111,-0.012333 -0.382931,-0.00488 -0.582031,0.023437 L 5.0449219,8.6972656 c -1.59424,0.22851 -2.9003907,1.7323974 -2.9003907,3.3417964 v 14.642579 c 1e-7,0.7773 0.310055,1.521412 0.859375,2.070312 0.54883,0.5488 1.2919994,0.857422 2.0683594,0.857422 H 22.644531 c 0.7768,0 1.520913,-0.308622 2.070313,-0.857422 0.5493,-0.5489 0.857422,-1.293012 0.857422,-2.070312 V 14.96875 c 0,-0.7774 -0.308122,-1.521466 -0.857422,-2.072266 -0.5494,-0.5488 -1.293513,-0.857422 -2.070313,-0.857422 H 4.3417969 c -0.06105,-0.739599 0.4741675,-1.393921 1.2109375,-1.482421 L 18.375,9.0175781 c 1.2968,-0.1557 2.357066,1.0163159 2.072266,2.2910159 h 2.197265 V 9.1113281 c 0,-1.4099137 -0.999627,-2.4507784 -2.316406,-2.5371093 z m 5.966797,2.5214843 c -0.644978,-0.00335 -1.300263,0.089972 -1.949219,0.2871094 0.1857,0.57597 0.393228,1.2207965 0.611328,1.9042965 2.4017,-0.712 4.936294,0.635857 5.683594,3.035157 0.7537,2.4198 -0.595925,4.992393 -3.015625,5.746093 -0.0055,0.0017 -0.01218,0.0042 -0.01758,0.0059 0.1339,0.889 -0.05866,1.590565 -0.410156,2.134765 0.3406,-0.0495 0.682484,-0.124868 1.021484,-0.230468 3.4744,-1.0821 5.414131,-4.7757 4.332031,-8.25 C 31.675312,10.917834 29.089828,9.1102216 26.294922,9.0957031 Z M 6.2324219,14.621094 H 21.486328 c 0.4301,0 0.828197,0.134834 1.154297,0.365234 0.5113,0.3633 0.845703,0.958966 0.845703,1.634766 v 8.769531 c 0,1.1036 -0.8956,2 -2,2 H 6.2324219 c -1.10449,0 -2,-0.8964 -2,-2 v -8.769531 c 0,-1.1055 0.89551,-2 2,-2 z m 13.2773441,4.552734 a 1.5354199,1.5354199 0 0 0 -1.521485,1.535156 1.5354199,1.5354199 0 0 0 1.535157,1.535157 1.5354199,1.5354199 0 0 0 1.537109,-1.535157 1.5354199,1.5354199 0 0 0 -1.537109,-1.535156 1.5354199,1.5354199 0 0 0 -0.01367,0 z" />
</svg>
