<svg width="20" height="20" viewBox="0 0 20 20" fill="none" xmlns="http://www.w3.org/2000/svg">
<path d="M16.8384 0C17.101 0 17.353 0.105357 17.5387 0.292893C17.7245 0.48043 17.8288 0.734783 17.8288 1V4.757L15.8479 6.757V2H1.98098V18H15.8479V15.242L17.8288 13.242V19C17.8288 19.2652 17.7245 19.5196 17.5387 19.7071C17.353 19.8946 17.101 20 16.8384 20H0.990491C0.727797 20 0.475861 19.8946 0.290108 19.7071C0.104355 19.5196 0 19.2652 0 19V1C0 0.734783 0.104355 0.48043 0.290108 0.292893C0.475861 0.105357 0.727797 0 0.990491 0H16.8384ZM18.5994 6.808L20 8.222L12.296 16L10.8934 15.998L10.8954 14.586L18.5994 6.808ZM9.90491 10V12H4.95246V10H9.90491ZM12.8764 6V8H4.95246V6H12.8764Z" fill="white"/>
</svg>
