<svg width="29" height="21" viewBox="0 0 29 21" fill="none" xmlns="http://www.w3.org/2000/svg">
<path d="M1.34653 20.5947C1.58066 20.7553 2.48374 21.2035 3.24635 20.2402L8.41066 12.6944L13.876 17.9657C14.1636 18.24 14.5583 18.3872 14.9597 18.3403C15.3544 18.3002 15.7156 18.0928 15.9497 17.765L25.014 4.76731L25.3418 9.1155C25.4221 10.2193 26.459 10.3999 26.8068 10.3731C27.5561 10.3129 28.1247 9.66404 28.0645 8.90812L27.4892 1.262C27.4356 0.512777 26.7801 -0.0558319 26.0242 0.00437376L18.378 0.579672C17.6288 0.633188 17.0602 1.28876 17.1204 2.04468C17.1739 2.7939 17.8228 3.35582 18.5854 3.30231L22.9336 2.97452L14.6252 14.8819L9.1465 9.59715C8.85885 9.31618 8.45748 9.1757 8.0628 9.22253C7.66143 9.26267 7.3002 9.47673 7.07275 9.81121L0.991981 18.6949C0.563852 19.317 0.7244 20.1666 1.34653 20.5947Z" fill="white"/>
</svg>
