<svg width="587" height="588" viewBox="0 0 587 588" fill="none" xmlns="http://www.w3.org/2000/svg">
<path d="M580.585 234.641C576.674 215.689 570.959 197.339 563.438 179.59C556.219 162.143 546.893 145.597 536.364 129.654C525.836 114.011 513.803 99.5718 500.567 86.3357C487.331 73.0995 472.891 61.0667 457.248 50.5379C441.606 40.0092 424.76 30.9846 407.312 23.464C389.564 15.9435 371.214 10.2279 352.262 6.31721C333.009 2.40653 313.155 0.300781 293.301 0.300781C273.447 0.300781 253.893 2.70735 234.641 6.61803C215.689 10.5287 197.339 16.2443 179.59 23.7648C162.143 30.9846 145.597 40.31 129.654 50.8388C114.011 61.3675 99.5718 73.4004 86.3357 86.6365C73.0995 99.8727 61.0667 114.312 50.5379 129.955C40.0092 145.597 30.9846 162.443 23.464 179.891C15.9435 197.64 10.2279 215.99 6.31721 234.941C2.40653 254.194 0.300781 274.048 0.300781 293.902C0.300781 313.757 2.40653 333.611 6.31721 352.863C10.2279 371.815 15.9435 390.165 23.464 407.914C30.6837 425.361 40.0092 441.907 50.5379 457.85C61.0667 473.493 73.0995 487.932 86.3357 501.168C99.5718 514.404 114.011 526.437 129.654 536.966C145.297 547.495 162.143 556.519 179.59 564.04C197.339 571.561 215.689 577.276 234.641 581.187C253.893 585.098 273.747 587.203 293.602 587.203C313.456 587.203 333.31 585.098 352.563 581.187C371.514 577.276 389.864 571.561 407.613 564.04C425.061 556.82 441.606 547.495 457.549 536.966C473.192 526.437 487.631 514.404 500.868 501.168C514.104 487.932 526.137 473.493 536.665 457.85C547.194 442.207 556.219 425.361 563.739 407.914C571.26 390.165 576.975 371.815 580.886 352.863C584.797 333.611 586.902 313.757 586.902 293.902C586.602 273.747 584.496 253.893 580.585 234.641ZM293.602 549.901C151.915 549.901 37.3018 434.988 37.3018 293.602C37.3018 152.216 152.216 37.3018 293.602 37.3018C434.988 37.3018 549.901 152.216 549.901 293.602C549.901 435.288 435.288 549.901 293.602 549.901Z" fill="#00CC9E"/>
<path d="M298.114 527.942H305.033C306.236 527.942 307.44 527.942 308.643 527.641H308.944C310.147 527.641 311.049 527.641 312.253 527.34H313.155C314.058 527.34 314.96 527.34 315.863 527.04H316.765C317.667 527.04 318.57 526.739 319.773 526.739H320.375C321.578 526.739 322.781 526.438 323.985 526.438C325.188 526.438 326.09 526.137 327.294 525.836H327.895C328.798 525.836 329.7 525.535 330.603 525.535H331.204C332.408 525.235 333.31 525.235 334.513 524.934C336.92 524.633 339.327 524.031 341.432 523.43H342.034C342.936 523.129 344.14 523.129 345.042 522.828H345.343C347.75 522.226 349.855 521.625 352.262 521.023C323.383 521.926 299.919 518.015 285.179 514.706C252.088 507.486 220.502 494.551 193.729 472.29C149.208 434.988 126.345 381.442 126.947 328.197C127.248 288.488 140.785 248.78 168.159 216.291C202.453 175.68 251.186 154.322 301.122 153.119H308.041V113.109H300.22C284.878 113.41 269.837 115.215 255.097 118.524C240.056 121.833 225.616 126.947 211.778 133.264C197.64 139.882 184.404 148.005 172.07 157.33C159.435 166.956 147.703 178.087 137.475 190.42C127.849 201.852 119.426 214.185 112.507 227.421C105.588 240.056 100.174 253.593 95.9621 267.431C92.0515 280.968 89.0432 295.106 87.84 309.245C87.5391 313.757 87.2383 317.969 86.9375 322.481V330.302C87.2383 345.644 89.0432 360.685 92.3523 375.426C95.6613 390.467 100.775 404.906 107.093 418.744C114.613 435.289 128.15 459.656 148.305 478.006C188.013 509.291 238.251 527.942 292.699 527.942H298.114Z" fill="#00CC9E"/>
<path d="M363.693 489.135C349.855 488.834 332.709 486.729 319.472 484.322C257.503 473.192 204.258 435.288 184.704 378.132C160.94 308.642 197.339 233.437 266.528 210.575C280.065 206.062 293.602 203.956 307.44 203.956C325.188 203.956 342.936 207.566 359.181 214.184L376.027 178.387C370.913 176.281 365.799 174.476 360.685 172.671C343.538 167.256 325.489 164.549 307.44 164.549C289.39 164.549 271.341 167.557 254.194 173.273C232.234 180.492 212.079 192.224 194.932 207.566C186.81 214.786 178.989 223.209 172.371 231.933C165.753 240.657 160.037 249.982 155.224 259.909C150.411 269.836 146.5 280.064 143.793 290.593C141.085 301.122 138.98 312.252 138.378 323.383C136.874 346.245 139.882 369.107 147.403 390.766C154.923 412.726 166.956 432.882 183.501 450.63C198.241 466.573 215.388 478.606 236.145 489.737C257.804 501.168 284.577 507.184 312.554 511.095C330.603 513.502 354.669 514.103 368.807 514.103C381.141 509.591 386.255 507.485 392.873 504.778C398.588 502.07 404.304 499.363 410.02 496.054C415.735 492.745 416.638 492.143 426.264 485.826C427.166 485.224 428.069 484.623 428.671 484.021C395.58 490.038 387.157 489.737 363.693 489.135Z" fill="#00CC9E"/>
<path d="M437.695 444.615C428.37 445.216 415.134 446.119 400.093 446.119C373.32 446.119 340.53 443.712 312.554 434.387C269.235 419.947 228.324 382.946 228.324 337.221C228.324 291.497 265.325 254.796 310.749 254.796C341.733 254.796 368.506 271.943 382.645 296.911L418.443 279.163C412.727 268.634 405.808 259.008 397.084 250.585C385.954 239.454 372.718 230.43 358.278 224.413C343.237 218.096 327.294 214.787 310.749 214.787C294.204 214.787 278.26 218.096 263.219 224.413C248.78 230.43 235.543 239.454 224.413 250.585C213.283 261.715 204.258 274.951 198.242 289.391C191.924 304.432 188.615 320.375 188.615 336.921C188.615 353.466 192.225 370.011 199.144 385.654C205.461 399.491 214.185 412.427 225.315 424.46C244.869 445.517 271.642 462.363 300.22 471.989C327.595 481.014 367.905 484.323 407.012 481.616C417.841 481.014 425.963 479.811 439.801 476.803C453.037 466.274 465.371 454.241 475.9 441.005C466.875 441.907 449.728 443.712 437.695 444.615Z" fill="#00CC9E"/>
</svg>
