<svg width="32" height="32" viewBox="0 0 32 32" fill="none" xmlns="http://www.w3.org/2000/svg">
<path d="M16.5108 19.1505V19.9792C16.5108 20.6347 16.8616 21.2261 17.3774 21.5307C17.378 21.531 17.3786 21.5314 17.3792 21.5318L19.6052 22.8651L19.6189 22.8734L19.6331 22.8807C20.1808 23.1628 20.8312 23.1784 21.36 22.8671L21.36 22.8671L21.3677 22.8624L23.545 21.5271L23.5451 21.5272L23.5543 21.5213C24.1169 21.159 24.4057 20.5706 24.4057 19.9792V17.3086C24.4057 16.6531 24.055 16.0618 23.5391 15.7571C23.5385 15.7568 23.5379 15.7564 23.5373 15.7561L21.3114 14.4227L21.2977 14.4145L21.2834 14.4071C20.7357 14.125 20.0854 14.1094 19.5566 14.4208L19.5566 14.4207L19.5532 14.4228L16.7028 16.1314L16.7019 16.132L14.7329 17.3065L14.7319 17.3071L11.8958 19.0072C11.6189 19.145 11.3423 19.1285 11.1484 19.0149C11.148 19.0147 11.1476 19.0145 11.1472 19.0142L6.95882 16.5103C6.69618 16.3383 6.57227 16.0742 6.57227 15.8131V10.7923C6.57227 10.519 6.70264 10.2822 6.92334 10.1685L6.93824 10.1608L6.95259 10.1522L11.1878 7.59789C11.464 7.46064 11.7399 7.47686 11.9337 7.5898L16.0714 10.0944C16.3347 10.2664 16.459 10.5308 16.459 10.7923V12.3244L15.489 12.9029V12.0208C15.489 11.367 15.1401 10.777 14.6264 10.4717L12.4021 9.086L12.3848 9.07523L12.3667 9.0659C11.819 8.78374 11.1687 8.76818 10.6399 9.07951L10.6398 9.0795L10.6366 9.08145L8.4074 10.4168L8.40045 10.4209L8.39364 10.4253C7.8311 10.7876 7.54224 11.376 7.54224 11.9674V14.638C7.54224 15.2917 7.89112 15.8817 8.40478 16.187L10.6291 17.5728L10.6464 17.5835L10.6645 17.5929C11.2123 17.875 11.8626 17.8906 12.3914 17.5792L12.3915 17.5793L12.4006 17.5737L15.2443 15.8158L17.2064 14.6986L17.2065 14.6988L17.2185 14.6915L20.1052 12.9388C20.3816 12.8017 20.6578 12.8182 20.8514 12.9316C20.8518 12.9319 20.8522 12.9321 20.8526 12.9324L25.041 15.4363C25.3036 15.6083 25.4276 15.8724 25.4276 16.1335V21.2077C25.4276 21.5129 25.2607 21.7755 25.0518 21.8985L25.0489 21.9002L20.8646 24.4017C20.5877 24.5396 20.311 24.5232 20.117 24.4096C20.1166 24.4094 20.1162 24.4091 20.1158 24.4089L15.9274 21.9049C15.6648 21.7329 15.5408 21.4688 15.5408 21.2077V19.7291L16.5108 19.1505Z" fill="#00CC9E" stroke="#00CC9E"/>
<circle cx="16" cy="16" r="15.5" stroke="#00CC9E"/>
</svg>
