<svg width="24" height="24" viewBox="0 0 24 24" fill="none" xmlns="http://www.w3.org/2000/svg">
<path d="M6.95552 9.15417H6.90782C7.88393 7.23546 9.87716 5.9207 12.1775 5.9207C13.6614 5.9207 15.0171 6.4675 16.0547 7.37068H16.091H18.4461C17.0517 5.41372 14.7636 4.13721 12.1775 4.13721C8.23085 4.13721 4.97885 7.1093 4.53692 10.9377L9.50264 10.9373V12.7204H4.53613L4.5381 12.7342C4.61025 13.3492 4.75493 13.9417 4.96308 14.5039H9.50185V19.0426C10.0676 19.2524 10.6656 19.3978 11.2849 19.4696V14.5043H13.0681V19.47C13.6878 19.3982 14.2854 19.2532 14.8512 19.043V14.5039H19.3899C19.699 13.6709 19.8677 12.7697 19.8677 11.829C19.8677 10.8884 19.699 9.98718 19.3899 9.15417H18.3338H6.95552ZM13.0684 12.7208H11.2853V10.9377H13.0684V12.7208ZM18.0184 12.7208H14.8519V10.9377H18.0184C18.0625 11.2286 18.0854 11.5263 18.0854 11.8294C18.0854 12.1322 18.0625 12.4298 18.0184 12.7208Z" fill="#00CC9E"/>
<path d="M12.1711 0.552246C5.94304 0.552246 0.894531 5.60114 0.894531 11.8288C0.894531 18.0564 5.94304 23.1053 12.1711 23.1053C18.3991 23.1053 23.4476 18.0564 23.4476 11.8288C23.4476 5.60114 18.3991 0.552246 12.1711 0.552246ZM12.1711 21.3191C6.92979 21.3191 2.68079 17.0701 2.68079 11.8288C2.68079 6.58751 6.92979 2.3385 12.1711 2.3385C17.4124 2.3385 21.6614 6.58751 21.6614 11.8288C21.6614 17.0701 17.4124 21.3191 12.1711 21.3191Z" fill="#00CC9E"/>
</svg>
