<svg width="28" height="28" viewBox="0 0 28 28" fill="none" xmlns="http://www.w3.org/2000/svg">
<path d="M13.5953 0C6.08663 0 0 6.0871 0 13.5953C0 21.1036 6.08663 27.1907 13.5953 27.1907C21.1041 27.1907 27.1907 21.1036 27.1907 13.5953C27.1907 6.0871 21.1041 0 13.5953 0ZM13.5953 25.0371C7.27629 25.0371 2.15356 19.9144 2.15356 13.5953C2.15356 7.27629 7.27629 2.15356 13.5953 2.15356C19.9144 2.15356 25.0371 7.27629 25.0371 13.5953C25.0371 19.9144 19.9144 25.0371 13.5953 25.0371Z" fill="#00CC9E"/>
<path fill-rule="evenodd" clip-rule="evenodd" d="M15.483 14.6261C15.384 14.6335 14.8726 14.6641 13.7317 14.6641C12.8243 14.6641 12.18 14.6368 11.954 14.6261C8.44731 14.4719 5.82986 13.8614 5.82986 13.1305C5.82986 12.3997 8.44731 11.7901 11.954 11.6333V14.0181C12.1833 14.0346 12.84 14.0734 13.7474 14.0734C14.8363 14.0734 15.3815 14.028 15.4797 14.019V11.635C18.979 11.7909 21.5906 12.4013 21.5906 13.1305C21.5906 13.8598 18.9798 14.4702 15.4797 14.6253L15.483 14.6261ZM15.483 11.3883V9.25428H20.3665V6H7.07053V9.25428H11.9532V11.3875C7.98453 11.5698 5 12.3559 5 13.298C5 14.24 7.98453 15.0254 11.9532 15.2085V22.047H15.4822V15.206C19.4417 15.0237 22.4213 14.2384 22.4213 13.2972C22.4213 12.3559 19.4442 11.5706 15.4822 11.3875L15.483 11.3883Z" fill="#00CC9E"/>
</svg>
