<svg width="55" height="55" viewBox="0 0 55 55" fill="none" xmlns="http://www.w3.org/2000/svg">
<path fill-rule="evenodd" clip-rule="evenodd" d="M27.4738 15.3447C24.1127 15.3447 23.6908 15.3594 22.3707 15.4195C21.0532 15.4798 20.1539 15.6884 19.367 15.9945C18.553 16.3106 17.8625 16.7334 17.1746 17.4216C16.4862 18.1095 16.0633 18.8 15.7462 19.6137C15.4393 20.4009 15.2305 21.3005 15.1712 22.6175C15.1121 23.9376 15.0967 24.3597 15.0967 27.7208C15.0967 31.082 15.1116 31.5025 15.1715 32.8226C15.232 34.1402 15.4406 35.0395 15.7464 35.8264C16.0628 36.6404 16.4856 37.3309 17.1738 38.0188C17.8614 38.7072 18.5519 39.1311 19.3654 39.4472C20.1528 39.7532 21.0524 39.9618 22.3697 40.0222C23.6898 40.0822 24.1114 40.0969 27.4723 40.0969C30.8337 40.0969 31.2542 40.0822 32.5743 40.0222C33.8919 39.9618 34.7922 39.7532 35.5796 39.4472C36.3934 39.1311 37.0828 38.7072 37.7705 38.0188C38.4589 37.3309 38.8817 36.6404 39.1989 35.8267C39.5031 35.0395 39.712 34.1399 39.7738 32.8229C39.8332 31.5028 39.8486 31.082 39.8486 27.7208C39.8486 24.3597 39.8332 23.9379 39.7738 22.6177C39.712 21.3002 39.5031 20.4009 39.1989 19.614C38.8817 18.8 38.4589 18.1095 37.7705 17.4216C37.082 16.7332 36.3936 16.3103 35.5789 15.9945C34.7899 15.6884 33.89 15.4798 32.5725 15.4195C31.2524 15.3594 30.8321 15.3447 27.4699 15.3447H27.4738ZM26.3625 17.5769C26.692 17.5764 27.0597 17.5769 27.4727 17.5769C30.7771 17.5769 31.1688 17.5888 32.4737 17.6481C33.6804 17.7033 34.3353 17.9049 34.7715 18.0743C35.3491 18.2986 35.7608 18.5668 36.1938 18.9999C36.6269 19.4331 36.8951 19.8456 37.1199 20.4232C37.2893 20.8589 37.4912 21.5138 37.5461 22.7205C37.6054 24.0252 37.6183 24.4171 37.6183 27.7199C37.6183 31.0228 37.6054 31.4147 37.5461 32.7194C37.4909 33.926 37.2893 34.5809 37.1199 35.0167C36.8956 35.5942 36.6269 36.0055 36.1938 36.4384C35.7606 36.8715 35.3493 37.1397 34.7715 37.364C34.3358 37.5342 33.6804 37.7353 32.4737 37.7905C31.1691 37.8498 30.7771 37.8627 27.4727 37.8627C24.168 37.8627 23.7764 37.8498 22.4718 37.7905C21.2651 37.7348 20.6102 37.5331 20.1737 37.3638C19.5961 37.1394 19.1836 36.8713 18.7504 36.4381C18.3173 36.005 18.0491 35.5935 17.8243 35.0156C17.6549 34.5799 17.453 33.925 17.3981 32.7183C17.3388 31.4137 17.3269 31.0218 17.3269 27.7168C17.3269 24.4119 17.3388 24.0221 17.3981 22.7174C17.4532 21.5107 17.6549 20.8558 17.8243 20.4196C18.0486 19.842 18.3173 19.4295 18.7504 18.9963C19.1836 18.5632 19.5961 18.295 20.1737 18.0702C20.6099 17.9 21.2651 17.6989 22.4718 17.6435C23.6134 17.5919 24.0559 17.5764 26.3625 17.5739V17.5769ZM34.083 19.6288C33.2631 19.6288 32.5979 20.2933 32.5979 21.1134C32.5979 21.9333 33.2631 22.5986 34.083 22.5986C34.9029 22.5986 35.5682 21.9333 35.5682 21.1134C35.5682 20.2935 34.9029 19.6283 34.083 19.6283V19.6288ZM27.4772 21.3674C23.9673 21.3674 21.1216 24.2132 21.1216 27.7231C21.1216 31.233 23.9673 34.0774 27.4772 34.0774C30.9871 34.0774 33.8318 31.233 33.8318 27.7231C33.8318 24.2132 30.9869 21.3674 27.477 21.3674H27.4772ZM27.475 23.5955C29.7532 23.5955 31.6003 25.4423 31.6003 27.7208C31.6003 29.9991 29.7532 31.8462 27.475 31.8462C25.1965 31.8462 23.3496 29.9991 23.3496 27.7208C23.3496 25.4423 25.1965 23.5955 27.475 23.5955Z" fill="white"/>
</svg>
