<svg width="55" height="55" viewBox="0 0 55 55" fill="none" xmlns="http://www.w3.org/2000/svg">
<path fill-rule="evenodd" clip-rule="evenodd" d="M28.6045 24.2552L28.6561 25.1066L27.7955 25.0024C24.6629 24.6027 21.9263 23.2473 19.6027 20.971L18.4667 19.8415L18.1741 20.6756C17.5544 22.5349 17.9503 24.4984 19.2412 25.819C19.9297 26.5489 19.7748 26.6531 18.5872 26.2187C18.1741 26.0797 17.8126 25.9754 17.7782 26.0276C17.6577 26.1492 18.0708 27.7305 18.3978 28.356C18.8453 29.2248 19.7576 30.0763 20.7558 30.5802L21.5992 30.9799L20.6009 30.9972C19.6371 30.9972 19.6027 31.0146 19.7059 31.3795C20.0502 32.509 21.4099 33.708 22.9245 34.2293L23.9917 34.5942L23.0622 35.1502C21.6853 35.9495 20.0674 36.4013 18.4495 36.4361C17.6749 36.4535 17.0381 36.523 17.0381 36.5751C17.0381 36.7488 19.1379 37.7219 20.36 38.1042C24.0261 39.2337 28.3807 38.7471 31.651 36.8184C33.9746 35.4456 36.2982 32.7175 37.3825 30.0763C37.9677 28.6688 38.5529 26.0971 38.5529 24.8633C38.5529 24.064 38.6046 23.9598 39.5684 23.0041C40.1364 22.448 40.67 21.8398 40.7733 21.6661C40.9454 21.3359 40.9282 21.3359 40.0504 21.6313C38.5873 22.1526 38.3808 22.0831 39.1037 21.3012C39.6373 20.7451 40.2741 19.7373 40.2741 19.4419C40.2741 19.3898 40.0159 19.4766 39.7233 19.633C39.4135 19.8068 38.725 20.0674 38.2087 20.2238L37.2792 20.5192L36.4359 19.9458C35.9711 19.633 35.3171 19.2855 34.9729 19.1812C34.095 18.938 32.7525 18.9727 31.9608 19.2507C29.8093 20.0327 28.4496 22.0484 28.6045 24.2552Z" fill="white"/>
</svg>
