<svg width="55" height="55" viewBox="0 0 55 55" fill="none" xmlns="http://www.w3.org/2000/svg">
<path fill-rule="evenodd" clip-rule="evenodd" d="M37.7998 19.1167C38.8953 19.4173 39.7581 20.3031 40.0509 21.4279C40.5829 23.4666 40.5829 27.7203 40.5829 27.7203C40.5829 27.7203 40.5829 31.9739 40.0509 34.0127C39.7581 35.1376 38.8953 36.0234 37.7998 36.3241C35.8144 36.8703 27.8525 36.8703 27.8525 36.8703C27.8525 36.8703 19.8906 36.8703 17.9051 36.3241C16.8096 36.0234 15.9468 35.1376 15.654 34.0127C15.1221 31.9739 15.1221 27.7203 15.1221 27.7203C15.1221 27.7203 15.1221 23.4666 15.654 21.4279C15.9468 20.3031 16.8096 19.4173 17.9051 19.1167C19.8906 18.5703 27.8525 18.5703 27.8525 18.5703C27.8525 18.5703 35.8144 18.5703 37.7998 19.1167ZM25.4668 24.1382V32.0947L31.832 28.1166L25.4668 24.1382Z" fill="white"/>
</svg>
