<svg width="35" height="34" viewBox="0 0 35 34" fill="none" xmlns="http://www.w3.org/2000/svg">
<path fill-rule="evenodd" clip-rule="evenodd" d="M17.2018 33.4339C26.6336 33.4339 34.2796 26.0411 34.2796 16.9215C34.2796 7.80202 26.6336 0.40918 17.2018 0.40918C7.77002 0.40918 0.124023 7.80202 0.124023 16.9215C0.124023 26.0411 7.77002 33.4339 17.2018 33.4339ZM23.7812 15.6449C24.6608 14.7428 24.6174 13.3221 23.6844 12.4717C22.7513 11.6213 21.282 11.6633 20.4025 12.5654L15.6757 17.4137L14.0013 15.6962C13.1218 14.7941 11.6524 14.7522 10.7194 15.6026C9.78637 16.453 9.743 17.8737 10.6225 18.7758L13.9863 22.2261C14.425 22.676 15.0362 22.9311 15.6757 22.9311C16.3152 22.9311 16.9264 22.676 17.3651 22.2261L23.7812 15.6449Z" fill="#00CC9E"/>
</svg>
