<svg width="35" height="34" viewBox="0 0 35 34" fill="none" xmlns="http://www.w3.org/2000/svg">
<path fill-rule="evenodd" clip-rule="evenodd" d="M17.2018 33.2786C26.6336 33.2786 34.2796 25.8858 34.2796 16.7663C34.2796 7.64675 26.6336 0.253906 17.2018 0.253906C7.77002 0.253906 0.124023 7.64675 0.124023 16.7663C0.124023 25.8858 7.77002 33.2786 17.2018 33.2786ZM23.7812 15.4897C24.6608 14.5875 24.6174 13.1668 23.6844 12.3164C22.7513 11.466 21.282 11.508 20.4025 12.4101L15.6757 17.2584L14.0013 15.541C13.1218 14.6388 11.6524 14.5969 10.7194 15.4473C9.78637 16.2977 9.743 17.7184 10.6225 18.6205L13.9863 22.0708C14.425 22.5207 15.0362 22.7758 15.6757 22.7758C16.3152 22.7758 16.9264 22.5207 17.3651 22.0708L23.7812 15.4897Z" fill="#D6D6E8"/>
</svg>
