<svg width="33" height="32" viewBox="0 0 33 32" fill="none" xmlns="http://www.w3.org/2000/svg">
<path d="M16.2676 0.489499C7.4315 0.486535 0.265077 7.45267 0.261992 16.0478C0.259205 23.8148 6.10708 30.2545 13.757 31.4291L13.7609 20.5522L9.69652 20.5508L9.69814 16.0509L13.7625 16.0523L13.7638 12.6233C13.7652 8.71954 16.155 6.56767 19.8082 6.5689C21.5587 6.56948 23.3924 6.87362 23.3924 6.87362L23.391 10.7011L21.3684 10.7004C19.3842 10.6998 18.7629 11.9012 18.7625 13.1324L18.7614 16.0509L23.1955 16.0523L22.485 20.552L18.7598 20.5508L18.7559 31.4277C26.4067 30.2644 32.2592 23.8271 32.262 16.0585C32.2651 7.46341 25.1037 0.492464 16.2676 0.489499Z" fill="#D6D6E8"/>
</svg>
