<svg width="33" height="32" viewBox="0 0 33 32" fill="none" xmlns="http://www.w3.org/2000/svg">
<path d="M16.2676 0.266111C7.4315 0.263146 0.265077 7.22928 0.261992 15.8244C0.259205 23.5914 6.10708 30.0311 13.757 31.2058L13.7609 20.3288L9.69652 20.3274L9.69814 15.8275L13.7625 15.8289L13.7638 12.3999C13.7652 8.49615 16.155 6.34428 19.8082 6.34551C21.5587 6.34609 23.3924 6.65023 23.3924 6.65023L23.391 10.4777L21.3684 10.477C19.3842 10.4764 18.7629 11.6778 18.7625 12.909L18.7614 15.8275L23.1955 15.829L22.485 20.3286L18.7598 20.3274L18.7559 31.2043C26.4067 30.0411 32.2592 23.6037 32.262 15.8351C32.2651 7.24002 25.1037 0.269075 16.2676 0.266111Z" fill="#00CC9E"/>
</svg>
