<svg width="35" height="34" viewBox="0 0 35 34" fill="none" xmlns="http://www.w3.org/2000/svg">
<path d="M20.3157 12.1427C20.3153 13.2 21.1512 14.0088 22.2447 14.0091C23.3382 14.0095 24.1747 13.2013 24.1751 12.144C24.1754 11.0867 23.3395 10.2779 22.246 10.2776C21.1526 10.2772 20.3161 11.0854 20.3157 12.1427Z" fill="#00CC9E"/>
<path fill-rule="evenodd" clip-rule="evenodd" d="M17.4136 33.3186C26.8454 33.3217 34.4941 25.9314 34.4973 16.8119C34.5006 7.69238 26.8573 0.296981 17.4255 0.293816C7.99365 0.290651 0.345003 7.68092 0.34173 16.8005C0.338457 25.92 7.9818 33.3154 17.4136 33.3186ZM15.1694 13.6958C15.1704 10.7727 17.6155 8.41024 20.6386 8.41125C23.6618 8.41226 26.1052 10.7764 26.1041 13.6995C26.1031 16.6225 23.658 18.985 20.6349 18.984C19.9273 18.9838 19.2841 18.8592 18.7053 18.6724L15.8098 21.4701L13.8801 21.4694L13.8795 23.3352L11.9498 23.3346L11.9491 25.2003L8.733 25.1993L8.73412 22.0896L15.4903 15.5617C15.2976 14.9397 15.1691 14.3177 15.1694 13.6958Z" fill="#00CC9E"/>
</svg>
