<svg width="35" height="34" viewBox="0 0 35 34" fill="none" xmlns="http://www.w3.org/2000/svg">
<path d="M20.3157 12.3663C20.3153 13.4236 21.1512 14.2324 22.2447 14.2328C23.3382 14.2331 24.1747 13.4249 24.1751 12.3676C24.1754 11.3103 23.3395 10.5016 22.246 10.5012C21.1526 10.5008 20.3161 11.309 20.3157 12.3663Z" fill="#D6D6E8"/>
<path fill-rule="evenodd" clip-rule="evenodd" d="M17.4136 33.5422C26.8454 33.5453 34.4941 26.1551 34.4973 17.0355C34.5006 7.91602 26.8573 0.520613 17.4255 0.517449C7.99365 0.514284 0.345003 7.90456 0.34173 17.0241C0.338457 26.1436 7.9818 33.539 17.4136 33.5422ZM15.1694 13.9194C15.1704 10.9964 17.6155 8.63387 20.6386 8.63488C23.6618 8.6359 26.1052 11.0001 26.1041 13.9231C26.1031 16.8461 23.658 19.2086 20.6349 19.2076C19.9273 19.2074 19.2841 19.0828 18.7053 18.896L15.8098 21.6937L13.8801 21.6931L13.8795 23.5588L11.9498 23.5582L11.9491 25.424L8.733 25.4229L8.73412 22.3133L15.4903 15.7853C15.2976 15.1633 15.1691 14.5413 15.1694 13.9194Z" fill="#D6D6E8"/>
</svg>
