<svg width="35" height="35" viewBox="0 0 35 35" fill="none" xmlns="http://www.w3.org/2000/svg">
<path fill-rule="evenodd" clip-rule="evenodd" d="M17.0719 34.1556C26.5037 34.1589 34.1523 26.5156 34.1556 17.0837C34.1589 7.65192 26.5156 0.00327508 17.0837 1.05008e-06C7.65192 -0.00327087 0.00327508 7.64007 1.05008e-06 17.0719C-0.00327087 26.5037 7.64007 34.1523 17.0719 34.1556ZM8.63597 8.55202C8.20805 8.92406 7.99408 9.39628 7.99408 9.96869C7.99408 10.5411 8.20192 11.0162 8.61763 11.3939C9.03334 11.7717 9.57741 11.9606 10.2499 11.9606H10.2682C10.9651 11.9606 11.5275 11.7717 11.9555 11.3939C12.3712 11.0276 12.579 10.5697 12.579 10.0202C12.579 9.41346 12.3651 8.92121 11.9371 8.54343C11.5214 8.17709 10.9774 7.99394 10.3049 7.99394C9.62021 7.99394 9.06389 8.17996 8.63597 8.55202ZM8.2325 13.5232V24.9939H12.3039V13.5232H8.2325ZM18.6311 24.9939H14.5597C14.5842 21.5367 14.5964 18.8522 14.5964 16.9404C14.5964 15.0286 14.5842 13.8896 14.5597 13.5232H18.6311V15.1545L18.6128 15.1889H18.6311V15.1545C19.5115 13.8838 20.7402 13.2485 22.3174 13.2485C23.7235 13.2485 24.8544 13.6864 25.7103 14.5621C26.5662 15.4379 26.9941 16.7229 26.9941 18.4172V24.9939H22.9227V18.8636C22.9227 17.135 22.238 16.2707 20.8686 16.2707C20.3429 16.2707 19.9058 16.4052 19.5573 16.6742C19.2088 16.9433 18.949 17.2724 18.7779 17.6616C18.6801 17.8791 18.6311 18.1882 18.6311 18.5889V24.9939Z" fill="#D6D6E8"/>
</svg>
