<svg width="35" height="36" viewBox="0 0 35 36" fill="none" xmlns="http://www.w3.org/2000/svg">
<path fill-rule="evenodd" clip-rule="evenodd" d="M17.0719 35.0873C26.5037 35.0905 34.1523 27.4472 34.1556 18.0154C34.1589 8.58356 26.5156 0.934916 17.0837 0.931642C7.65192 0.92837 0.00327508 8.57171 1.05008e-06 18.0035C-0.00327087 27.4353 7.64007 35.084 17.0719 35.0873ZM8.63597 9.48366C8.20805 9.8557 7.99408 10.3279 7.99408 10.9003C7.99408 11.4727 8.20192 11.9478 8.61763 12.3256C9.03334 12.7034 9.57741 12.8922 10.2499 12.8922H10.2682C10.9651 12.8922 11.5275 12.7034 11.9555 12.3256C12.3712 11.9592 12.579 11.5013 12.579 10.9518C12.579 10.3451 12.3651 9.85285 11.9371 9.47507C11.5214 9.10873 10.9774 8.92558 10.3049 8.92558C9.62021 8.92558 9.06389 9.1116 8.63597 9.48366ZM8.2325 14.4549V25.9256H12.3039V14.4549H8.2325ZM18.6311 25.9256H14.5597C14.5842 22.4683 14.5964 19.7838 14.5964 17.872C14.5964 15.9602 14.5842 14.8212 14.5597 14.4549H18.6311V16.0862L18.6128 16.1205H18.6311V16.0862C19.5115 14.8155 20.7402 14.1801 22.3174 14.1801C23.7235 14.1801 24.8544 14.618 25.7103 15.4938C26.5662 16.3695 26.9941 17.6545 26.9941 19.3488V25.9256H22.9227V19.7953C22.9227 18.0667 22.238 17.2023 20.8686 17.2023C20.3429 17.2023 19.9058 17.3369 19.5573 17.6059C19.2088 17.8749 18.949 18.204 18.7779 18.5933C18.6801 18.8108 18.6311 19.1198 18.6311 19.5205V25.9256Z" fill="#00CC9E"/>
</svg>
