<svg width="35" height="35" viewBox="0 0 35 35" fill="none" xmlns="http://www.w3.org/2000/svg">
<path fill-rule="evenodd" clip-rule="evenodd" d="M17.8307 34.3158C27.2625 34.319 34.9111 26.6757 34.9144 17.2439C34.9177 7.81208 27.2743 0.16343 17.8425 0.160157C8.41071 0.156884 0.762063 7.80023 0.75879 17.232C0.755517 26.6639 8.39886 34.3125 17.8307 34.3158ZM25.7529 12.5541C23.1836 12.3862 21.7059 10.8077 21.398 8.16009V8.16569H18.3138V19.3104C18.7784 25.2605 13.192 24.3593 12.761 21.3143C12.5371 19.7246 13.3432 18.8234 14.7649 18.342C15.2407 18.1797 15.7613 18.0565 16.2483 17.9781V14.8379C9.85591 15.0674 8.63565 20.7937 10.6284 24.057C13.7294 29.1284 21.4428 26.9174 21.4428 19.8421V14.2726C22.9597 15.1906 24.2639 15.6776 25.7529 15.532V12.5541Z" fill="#D6D6E8"/>
</svg>
