<svg width="35" height="35" viewBox="0 0 35 35" fill="none" xmlns="http://www.w3.org/2000/svg">
<path fill-rule="evenodd" clip-rule="evenodd" d="M17.8307 34.4701C27.2625 34.4733 34.9111 26.83 34.9144 17.3982C34.9177 7.96638 27.2743 0.317727 17.8425 0.314454C8.41071 0.311181 0.762063 7.95452 0.75879 17.3863C0.755517 26.8182 8.39886 34.4668 17.8307 34.4701ZM25.7529 12.7084C23.1836 12.5405 21.7059 10.962 21.398 8.31439V8.31998H18.3138V19.4646C18.7784 25.4148 13.192 24.5136 12.761 21.4686C12.5371 19.8789 13.3432 18.9777 14.7649 18.4963C15.2407 18.3339 15.7613 18.2108 16.2483 18.1324V14.9922C9.85591 15.2217 8.63565 20.948 10.6284 24.2113C13.7294 29.2827 21.4428 27.0717 21.4428 19.9964V14.4269C22.9597 15.3449 24.2639 15.8319 25.7529 15.6863V12.7084Z" fill="#00CC9E"/>
</svg>
