<svg width="35" height="34" viewBox="0 0 35 34" fill="none" xmlns="http://www.w3.org/2000/svg">
<path fill-rule="evenodd" clip-rule="evenodd" d="M17.5904 33.0756C27.0222 33.0788 34.6708 25.6885 34.6741 16.569C34.6774 7.44947 27.034 0.0540607 17.6022 0.050896C8.17041 0.0477314 0.521761 7.43801 0.518488 16.5575C0.515215 25.6771 8.15856 33.0725 17.5904 33.0756ZM17.3397 13.3642L17.2945 12.6387C17.1587 10.7583 18.3575 9.04119 20.2538 8.37556C20.9516 8.1389 22.1347 8.10968 22.9082 8.31723C23.2115 8.40616 23.7878 8.70247 24.1972 8.96912L24.9402 9.45796L25.7594 9.20654C26.2145 9.07344 26.8213 8.85155 27.0944 8.70358C27.3523 8.57042 27.5798 8.49646 27.5798 8.54088C27.5797 8.79258 27.0182 9.65114 26.5478 10.1248C25.9105 10.7908 26.0925 10.8501 27.3819 10.4064C28.1556 10.1549 28.1708 10.1549 28.019 10.4362C27.9279 10.5842 27.4575 11.1023 26.9568 11.5759C26.1071 12.3899 26.0616 12.4787 26.0613 13.1598C26.061 14.211 25.5445 16.4021 25.0283 17.6013C24.0719 19.8514 22.0234 22.1753 19.9754 23.3443C17.0929 24.9868 13.2553 25.4 10.0248 24.4366C8.94803 24.1105 7.09785 23.2807 7.0979 23.1327C7.09792 23.0882 7.65915 23.0292 8.34171 23.0146C9.7675 22.9855 11.1934 22.601 12.4071 21.9204L13.2263 21.4468L12.286 21.1356C10.9514 20.691 9.75353 19.669 9.45051 18.7065C9.35962 18.3955 9.38996 18.3807 10.2394 18.381L11.1191 18.3665L10.376 18.0257C9.49642 17.596 8.69278 16.8703 8.29868 16.1299C8.01068 15.5967 7.64713 14.2493 7.75335 14.1457C7.7837 14.1013 8.10219 14.1902 8.46618 14.3088C9.51263 14.6793 9.64917 14.5905 9.04268 13.9684C7.90549 12.8428 7.55723 11.1696 8.10385 9.58557L8.36195 8.87497L9.36269 9.83769C11.4097 11.778 13.8209 12.9336 16.5814 13.2751L17.3397 13.3642Z" fill="#D6D6E8"/>
</svg>
