<svg width="35" height="34" viewBox="0 0 35 34" fill="none" xmlns="http://www.w3.org/2000/svg">
<path fill-rule="evenodd" clip-rule="evenodd" d="M17.5904 33.8518C27.0222 33.8549 34.6708 26.4646 34.6741 17.3451C34.6774 8.22559 27.034 0.830184 17.6022 0.827019C8.17041 0.823854 0.521761 8.21413 0.518488 17.3337C0.515215 26.4532 8.15856 33.8486 17.5904 33.8518ZM17.3397 14.1403L17.2945 13.4148C17.1587 11.5344 18.3575 9.81731 20.2538 9.15168C20.9516 8.91502 22.1347 8.88581 22.9082 9.09335C23.2115 9.18229 23.7878 9.4786 24.1972 9.74524L24.9402 10.2341L25.7594 9.98266C26.2145 9.84956 26.8213 9.62767 27.0944 9.47971C27.3523 9.34654 27.5798 9.27259 27.5798 9.317C27.5797 9.56871 27.0182 10.4273 26.5478 10.9009C25.9105 11.5669 26.0925 11.6262 27.3819 11.1825C28.1556 10.931 28.1708 10.931 28.019 11.2123C27.9279 11.3603 27.4575 11.8784 26.9568 12.352C26.1071 13.1661 26.0616 13.2549 26.0613 13.9359C26.061 14.9872 25.5445 17.1783 25.0283 18.3774C24.0719 20.6276 22.0234 22.9514 19.9754 24.1204C17.0929 25.7629 13.2553 26.1762 10.0248 25.2127C8.94803 24.8866 7.09785 24.0568 7.0979 23.9088C7.09792 23.8644 7.65915 23.8053 8.34171 23.7908C9.7675 23.7616 11.1934 23.3771 12.4071 22.6965L13.2263 22.223L12.286 21.9117C10.9514 21.4671 9.75353 20.4451 9.45051 19.4826C9.35962 19.1716 9.38996 19.1568 10.2394 19.1571L11.1191 19.1426L10.376 18.8018C9.49642 18.3722 8.69278 17.6464 8.29868 16.906C8.01068 16.3729 7.64713 15.0254 7.75335 14.9218C7.7837 14.8774 8.10219 14.9663 8.46618 15.0849C9.51263 15.4554 9.64917 15.3666 9.04268 14.7446C7.90549 13.6189 7.55723 11.9457 8.10385 10.3617L8.36195 9.65109L9.36269 10.6138C11.4097 12.5541 13.8209 13.7098 16.5814 14.0512L17.3397 14.1403Z" fill="#00CC9E"/>
</svg>
