<svg width="35" height="34" viewBox="0 0 35 34" fill="none" xmlns="http://www.w3.org/2000/svg">
<path fill-rule="evenodd" clip-rule="evenodd" d="M17.7583 33.4943C27.1902 33.4975 34.8388 26.1072 34.8421 16.9877C34.8453 7.86817 27.202 0.472762 17.7702 0.469597C8.33838 0.466433 0.68973 7.85671 0.686457 16.9762C0.683184 26.0958 8.32653 33.4912 17.7583 33.4943ZM26.8017 12.4784C26.5851 11.6726 25.9462 11.038 25.1348 10.8224C23.6643 10.4306 17.7666 10.4287 17.7666 10.4287C17.7666 10.4287 11.8689 10.4267 10.398 10.8175C9.5864 11.0325 8.94707 11.6667 8.7299 12.4723C8.33535 13.9323 8.33426 16.9789 8.33426 16.9789C8.33426 16.9789 8.33316 20.0253 8.72666 21.4857C8.94326 22.2914 9.58213 22.9261 10.3936 23.1417C11.8642 23.5334 17.7619 23.5354 17.7619 23.5354C17.7619 23.5354 23.6595 23.5374 25.1303 23.1467C25.9419 22.9315 26.5812 22.2973 26.7984 21.4918C27.1931 20.0317 27.1942 16.9852 27.1942 16.9852C27.1942 16.9852 27.1953 13.9386 26.8017 12.4784ZM15.9962 20.1146L15.9982 14.416L20.7122 17.267L15.9962 20.1146Z" fill="#D6D6E8"/>
</svg>
