<svg width="35" height="34" viewBox="0 0 35 34" fill="none" xmlns="http://www.w3.org/2000/svg">
<path fill-rule="evenodd" clip-rule="evenodd" d="M17.7583 33.2707C27.1902 33.2739 34.8388 25.8836 34.8421 16.7641C34.8453 7.64453 27.202 0.249129 17.7702 0.245964C8.33838 0.2428 0.68973 7.63307 0.686457 16.7526C0.683184 25.8721 8.32653 33.2675 17.7583 33.2707ZM26.8017 12.2547C26.5851 11.449 25.9462 10.8144 25.1348 10.5988C23.6643 10.207 17.7666 10.205 17.7666 10.205C17.7666 10.205 11.8689 10.2031 10.398 10.5939C9.5864 10.8089 8.94707 11.4431 8.7299 12.2487C8.33535 13.7087 8.33426 16.7552 8.33426 16.7552C8.33426 16.7552 8.33316 19.8017 8.72666 21.2621C8.94326 22.0678 9.58213 22.7024 10.3936 22.9181C11.8642 23.3098 17.7619 23.3118 17.7619 23.3118C17.7619 23.3118 23.6595 23.3138 25.1303 22.9231C25.9419 22.7079 26.5812 22.0737 26.7984 21.2681C27.1931 19.808 27.1942 16.7616 27.1942 16.7616C27.1942 16.7616 27.1953 13.715 26.8017 12.2547ZM15.9962 19.891L15.9982 14.1924L20.7122 17.0434L15.9962 19.891Z" fill="#00CC9E"/>
</svg>
