<svg width="13" height="13" viewBox="0 0 13 13" fill="none" xmlns="http://www.w3.org/2000/svg">
<path d="M3.82642 5.46449H3.80158C4.30994 4.46522 5.34801 3.7805 6.54602 3.7805C7.31882 3.7805 8.0249 4.06527 8.56529 4.53564H8.58418H9.81073C9.08453 3.51646 7.89288 2.85165 6.54602 2.85165C4.49062 2.85165 2.79697 4.39952 2.56682 6.39333L5.15296 6.39313V7.32176H2.56641L2.56743 7.32895C2.60501 7.64924 2.68036 7.95783 2.78876 8.25061H5.15255V10.6144C5.44718 10.7236 5.75864 10.7994 6.08119 10.8367V8.25081H7.00983V10.837C7.33258 10.7996 7.64384 10.724 7.93846 10.6146V8.25061H10.3023C10.4632 7.81678 10.5511 7.34743 10.5511 6.85755C10.5511 6.36767 10.4632 5.89832 10.3023 5.46449H9.75221H3.82642ZM7.01003 7.32197H6.08139V6.39333H7.01003V7.32197ZM9.58796 7.32197H7.93887V6.39333H9.58796C9.61096 6.54485 9.62286 6.69987 9.62286 6.85775C9.62286 7.01543 9.61096 7.17045 9.58796 7.32197Z" fill="#75758F"/>
<path d="M6.54176 0.983826C3.2982 0.983826 0.668945 3.61329 0.668945 6.85664C0.668945 10.1 3.2982 12.7295 6.54176 12.7295C9.78532 12.7295 12.4146 10.1 12.4146 6.85664C12.4146 3.61329 9.78532 0.983826 6.54176 0.983826ZM6.54176 11.7992C3.81211 11.7992 1.59923 9.5863 1.59923 6.85664C1.59923 4.12699 3.81211 1.91411 6.54176 1.91411C9.27142 1.91411 11.4843 4.12699 11.4843 6.85664C11.4843 9.5863 9.27142 11.7992 6.54176 11.7992Z" fill="#75758F"/>
</svg>
