<svg width="28" height="28" viewBox="0 0 28 28" fill="none" xmlns="http://www.w3.org/2000/svg">
<path d="M13.5953 0C6.08663 0 0 6.0871 0 13.5953C0 21.1036 6.08663 27.1907 13.5953 27.1907C21.1041 27.1907 27.1907 21.1036 27.1907 13.5953C27.1907 6.0871 21.1041 0 13.5953 0ZM13.5953 25.0371C7.27629 25.0371 2.15356 19.9144 2.15356 13.5953C2.15356 7.27629 7.27629 2.15356 13.5953 2.15356C19.9144 2.15356 25.0371 7.27629 25.0371 13.5953C25.0371 19.9144 19.9144 25.0371 13.5953 25.0371Z" fill="#75758F"/>
<g clip-path="url(#clip0_1596_5904)">
<path d="M21.7822 11.1212C20.9932 10.3854 19.9017 9.26181 19.0124 8.46503L18.96 8.42782C18.8724 8.35689 18.7737 8.30126 18.6679 8.26323C16.5228 7.85964 6.54705 5.97612 6.35253 5.99992C6.29769 6.00756 6.24526 6.02761 6.19917 6.05858L6.15004 6.09847C6.08839 6.16141 6.04164 6.23761 6.01328 6.32138L6 6.3549V6.57279C7.12332 9.73211 11.5582 20.0786 12.4312 22.5058C12.484 22.6704 12.5839 22.9838 12.7708 22.9999H12.8126C12.9122 22.9999 13.3388 22.4301 13.3388 22.4301C13.3388 22.4301 20.9563 13.1029 21.7271 12.1094C21.827 11.9871 21.915 11.8554 21.99 11.7162C22.0092 11.6073 22.0002 11.4953 21.9638 11.3911C21.9273 11.2868 21.8648 11.1938 21.7822 11.1212ZM15.2946 12.2076L18.5444 9.48607L20.4515 11.2603L15.2946 12.2076ZM14.0332 12.0296L8.43319 7.39739L17.4895 9.08382L14.0332 12.0296ZM14.5384 13.2437L20.2672 12.3112L13.7149 20.2797L14.5384 13.2437ZM7.67303 7.85964L13.5625 12.9052L12.71 20.2851L7.67303 7.85964Z" fill="#75758F"/>
</g>
<defs>
<clipPath id="clip0_1596_5904">
<rect width="16" height="17" fill="white" transform="translate(6 6)"/>
</clipPath>
</defs>
</svg>
