<svg width="80" height="80" viewBox="0 0 80 80" fill="none" xmlns="http://www.w3.org/2000/svg">
<mask id="mask0" mask-type="alpha" maskUnits="userSpaceOnUse" x="0" y="0" width="80" height="80">
<rect width="80" height="80" fill="#C4C4C4"/>
</mask>
<g mask="url(#mask0)">
<ellipse cx="40.9289" cy="45.049" rx="27.8431" ry="27.3056" fill="url(#paint0_linear)"/>
<g filter="url(#filter0_d)">
<path fill-rule="evenodd" clip-rule="evenodd" d="M38.6001 27.2886C44.3029 27.5219 49.0987 23.4877 49.3118 18.278C49.5249 13.0682 45.0747 8.65575 39.3719 8.42244C33.6692 8.18913 28.8734 12.2233 28.6602 17.4331C28.5282 20.6607 30.186 23.5823 32.8227 25.3937C33.0187 25.5283 33.1143 25.7703 33.0524 25.9997L32.3048 28.7677C32.165 29.2855 32.7816 29.6702 33.1852 29.317L35.7581 27.0655C35.8964 26.9445 36.0862 26.9027 36.2642 26.9481C37.0113 27.1389 37.7932 27.2556 38.6001 27.2886Z" fill="white"/>
<path d="M35.7581 27.0655L35.4011 26.6575L35.7581 27.0655ZM36.2642 26.9481L36.3984 26.4229L36.2642 26.9481ZM33.1852 29.317L32.8282 28.9091L33.1852 29.317ZM32.8227 25.3937L32.5158 25.8405L32.8227 25.3937ZM48.7701 18.2558C48.5711 23.1213 44.073 26.9699 38.6223 26.7469L38.5779 27.8303C44.5327 28.0739 49.6262 23.8541 49.8535 18.3001L48.7701 18.2558ZM39.3498 8.96411C44.8005 9.18711 48.9692 13.3903 48.7701 18.2558L49.8535 18.3001C50.0807 12.7462 45.3489 8.12439 39.3941 7.88078L39.3498 8.96411ZM29.2019 17.4552C29.4009 12.5897 33.899 8.74111 39.3498 8.96411L39.3941 7.88078C33.4393 7.63716 28.3458 11.857 28.1186 17.4109L29.2019 17.4552ZM33.1297 24.9469C30.6277 23.228 29.0784 20.4747 29.2019 17.4552L28.1186 17.4109C27.978 20.8467 29.7443 23.9366 32.5158 25.8405L33.1297 24.9469ZM32.8282 28.9091L33.5757 26.1411L32.529 25.8584L31.7814 28.6264L32.8282 28.9091ZM35.4011 26.6575L32.8282 28.9091L33.5422 29.725L36.1152 27.4734L35.4011 26.6575ZM38.6223 26.7469C37.8532 26.7155 37.1089 26.6043 36.3984 26.4229L36.1301 27.4734C36.9138 27.6735 37.7331 27.7957 38.5779 27.8303L38.6223 26.7469ZM36.1152 27.4734C36.1145 27.474 36.1147 27.4734 36.1171 27.4729C36.1198 27.4722 36.1244 27.4719 36.1301 27.4734L36.3984 26.4229C36.055 26.3352 35.6796 26.4138 35.4011 26.6575L36.1152 27.4734ZM31.7814 28.6264C31.5018 29.662 32.735 30.4314 33.5422 29.725L32.8282 28.9091L32.8282 28.9091L31.7814 28.6264ZM32.5158 25.8405C32.5226 25.8453 32.5264 25.851 32.5281 25.8553C32.5289 25.8573 32.529 25.8584 32.529 25.8586C32.529 25.8586 32.529 25.8584 32.529 25.8584L33.5757 26.1411C33.7008 25.6778 33.5051 25.2048 33.1297 24.9469L32.5158 25.8405Z" fill="#F62054"/>
<circle cx="34.9153" cy="18.1499" r="1.28002" transform="rotate(2.34274 34.9153 18.1499)" fill="#F62054"/>
<circle cx="38.9674" cy="18.3156" r="1.28002" transform="rotate(2.34274 38.9674 18.3156)" fill="#F62054"/>
<circle cx="43.0191" cy="18.4814" r="1.28002" transform="rotate(2.34274 43.0191 18.4814)" fill="#F62054"/>
</g>
<path d="M66.6677 31.4362C65.6927 29.4542 63.5504 28.4224 61.4585 28.6995L61.8239 28.42L61.8431 28.4053L61.8617 28.39C63.1099 27.3637 63.271 25.5242 62.1956 24.3042C61.148 23.1159 59.3321 22.9791 58.1118 23.9729L40.1118 38.2452L40.0442 38.2762C40.0442 38.2762 40.0442 38.2762 40.0442 38.2762C37.5466 39.4221 36.4331 42.3508 37.6529 44.8304L43.7103 57.1443C44.9163 59.596 47.9085 60.5937 50.3819 59.4588L49.8106 58.2136L50.3819 59.4588L70.3337 50.3043C72.8313 49.1583 73.9449 46.2297 72.7251 43.75L66.6677 31.4362Z" fill="#1F2337" stroke="#1F2337" stroke-width="2.74007"/>
<rect x="36.3719" y="39.6087" width="29.5896" height="21.813" rx="4.02247" transform="rotate(-25.4117 36.3719 39.6087)" fill="url(#paint1_linear)" stroke="#4B40F8" stroke-width="0.913355"/>
<rect x="36.9597" y="40.0806" width="28.6763" height="3.03984" rx="1.51992" transform="rotate(-40.4117 36.9597 40.0806)" fill="url(#paint2_linear)"/>
<mask id="mask1" mask-type="alpha" maskUnits="userSpaceOnUse" x="37" y="22" width="24" height="20">
<rect x="36.9597" y="40.0806" width="28.6763" height="3.03984" rx="1.51992" transform="rotate(-40.4117 36.9597 40.0806)" fill="white"/>
</mask>
<g mask="url(#mask1)">
<path d="M39.4279 37.2131L42.1978 34.8548L41.3374 41.1124L38.5676 43.4707L39.4279 37.2131Z" fill="white"/>
<path d="M43.6674 33.603L46.4372 31.2447L45.5768 37.5023L42.807 39.8606L43.6674 33.603Z" fill="white"/>
<path d="M47.9074 29.9931L50.6773 27.6348L49.8169 33.8924L47.047 36.2507L47.9074 29.9931Z" fill="white"/>
<path d="M52.1475 26.3833L54.9173 24.025L54.0569 30.2825L51.2871 32.6408L52.1475 26.3833Z" fill="white"/>
<path d="M56.387 22.7734L59.1569 20.4151L58.2965 26.6727L55.5267 29.031L56.387 22.7734Z" fill="white"/>
</g>
<path fill-rule="evenodd" clip-rule="evenodd" d="M54.2957 47.1226L51.3048 40.4609L58.1297 41.3992L54.2957 47.1226Z" fill="white"/>
<circle cx="54.4157" cy="43.1112" r="6.40678" transform="rotate(4.58829 54.4157 43.1112)" stroke="white" stroke-width="0.713159"/>
<g filter="url(#filter1_d)">
<path d="M10.6481 46.6892L7.04053 44.3498L7 56.6493C7 57.1183 7.249 57.5526 7.65435 57.7842L10.6076 59.4925C11.4241 59.9616 12.7444 59.9616 13.5551 59.4925L15.5181 58.3517L15.5587 43.8981L10.6481 46.6892Z" fill="url(#paint3_linear)"/>
<path d="M39.7636 53.3485L39.7231 67.8021L43.7534 65.4569C44.1588 65.2253 44.3557 64.9184 44.3557 64.6115L44.3962 50.1578L39.7636 53.3485Z" fill="#24337E"/>
<path d="M39.764 53.3485L39.7234 67.8021C38.3105 68.6244 36.0174 68.6244 34.5986 67.8021C34.0312 67.472 19.0216 58.8091 18.2341 58.3517C17.4813 57.9174 16.2652 57.9174 15.5125 58.3517L15.553 43.898C16.3 43.4637 18.2109 43.0584 18.2109 43.0584L39.764 53.3485Z" fill="#1F2337"/>
<path d="M43.7999 51.0091L39.7696 53.3543C38.3567 54.1766 36.0635 54.1766 34.6448 53.3543C34.0715 53.0242 19.062 44.3555 18.2745 43.9039C17.5217 43.4696 16.3056 43.4696 15.5528 43.9039L9.41467 40.0762L17.0816 35.5826C17.8923 35.1136 19.2126 35.1136 20.0291 35.5826L24.9627 38.4316L43.7883 49.3008C44.6048 49.7699 44.6106 50.5342 43.7999 51.0091Z" fill="#4340BC"/>
<path d="M15.5531 43.9039C15.5531 43.9039 12.1192 46.3707 10.6484 46.6892C9.17754 47.0077 7.04077 46.1333 7.04077 44.3498C7.13342 42.3751 8.70271 40.7537 9.41496 40.0762L15.5531 43.9039Z" fill="#1F2337"/>
<path d="M11.7194 42.3635C12.3332 43.0294 12.1363 44.2165 11.2793 45.0099C10.4165 45.8032 9.22356 45.9074 8.60396 45.2415C7.99014 44.5756 8.18703 43.3885 9.04405 42.5951C9.90687 41.8018 11.1055 41.6976 11.7194 42.3635Z" fill="#1F2337"/>
<path d="M11.3656 42.4215C11.8231 42.9137 11.5915 43.8634 10.856 44.5467C10.1206 45.23 9.15357 45.3805 8.6961 44.8941C8.24443 44.4019 8.47026 43.4522 9.20568 42.7689C9.9411 42.0856 10.9082 41.9293 11.3656 42.4215Z" fill="#4340BC"/>
<path d="M14.6151 39.4045V39.6593C14.6151 39.7694 14.5398 39.8852 14.3951 39.972C14.0997 40.1458 13.6133 40.1458 13.3122 39.972C13.1616 39.8852 13.0864 39.7694 13.0864 39.6593V39.4045C13.0864 39.5204 13.1616 39.6304 13.3122 39.7172C13.6133 39.891 14.0939 39.891 14.3951 39.7172C14.5398 39.6304 14.6151 39.5204 14.6151 39.4045Z" fill="#1F2337"/>
<path d="M14.6151 39.4045V39.6593C14.6151 39.7694 14.5398 39.8852 14.3951 39.972C14.0997 40.1458 13.6133 40.1458 13.3122 39.972C13.1616 39.8852 13.0864 39.7694 13.0864 39.6593V39.4045C13.0864 39.5204 13.1616 39.6304 13.3122 39.7172C13.6133 39.891 14.0939 39.891 14.3951 39.7172C14.5398 39.6304 14.6151 39.5204 14.6151 39.4045Z" fill="#1F2337"/>
<path d="M14.3887 39.0918C14.6898 39.2655 14.6898 39.5434 14.3945 39.7172C14.0992 39.8909 13.6128 39.8909 13.3117 39.7172C13.0105 39.5434 13.0105 39.2655 13.3059 39.0918C13.607 38.918 14.0876 38.918 14.3887 39.0918Z" fill="#24337E"/>
<path d="M16.1266 40.2789V40.5337C16.1266 40.6437 16.0513 40.7595 15.9065 40.8464C15.6112 41.0201 15.1248 41.0201 14.8237 40.8464C14.6731 40.7595 14.5978 40.6437 14.5978 40.5337V40.2789C14.5978 40.3947 14.6731 40.5047 14.8237 40.5916C15.1248 40.7653 15.6054 40.7653 15.9065 40.5916C16.0513 40.4989 16.1266 40.3889 16.1266 40.2789Z" fill="#1F2337"/>
<path d="M16.1266 40.2789V40.5337C16.1266 40.6437 16.0513 40.7595 15.9065 40.8464C15.6112 41.0201 15.1248 41.0201 14.8237 40.8464C14.6731 40.7595 14.5978 40.6437 14.5978 40.5337V40.2789C14.5978 40.3947 14.6731 40.5047 14.8237 40.5916C15.1248 40.7653 15.6054 40.7653 15.9065 40.5916C16.0513 40.4989 16.1266 40.3889 16.1266 40.2789Z" fill="#1F2337"/>
<path d="M15.9009 39.9604C16.202 40.1341 16.202 40.4121 15.9067 40.5858C15.6114 40.7595 15.125 40.7595 14.8239 40.5858C14.5227 40.4121 14.5227 40.1341 14.8181 39.9604C15.1134 39.7867 15.5998 39.7867 15.9009 39.9604Z" fill="#24337E"/>
<path d="M17.632 41.1476V41.4024C17.632 41.5124 17.5567 41.6282 17.412 41.7151C17.1166 41.8888 16.6302 41.8888 16.3291 41.7151C16.1786 41.6282 16.1033 41.5124 16.1033 41.4024V41.1476C16.1033 41.2634 16.1786 41.3734 16.3291 41.4603C16.6302 41.634 17.1109 41.634 17.412 41.4603C17.5625 41.3734 17.632 41.2634 17.632 41.1476Z" fill="#1F2337"/>
<path d="M17.632 41.1476V41.4024C17.632 41.5124 17.5567 41.6282 17.412 41.7151C17.1166 41.8888 16.6302 41.8888 16.3291 41.7151C16.1786 41.6282 16.1033 41.5124 16.1033 41.4024V41.1476C16.1033 41.2634 16.1786 41.3734 16.3291 41.4603C16.6302 41.634 17.1109 41.634 17.412 41.4603C17.5625 41.3734 17.632 41.2634 17.632 41.1476Z" fill="#1F2337"/>
<path d="M17.4061 40.8348C17.7072 41.0085 17.7072 41.2865 17.4118 41.4602C17.1165 41.6339 16.6301 41.6339 16.329 41.4602C16.0279 41.2865 16.0279 41.0085 16.3232 40.8348C16.6243 40.6611 17.1107 40.6611 17.4061 40.8348Z" fill="#24337E"/>
<path d="M19.1438 42.0219V42.2766C19.1438 42.3867 19.0685 42.5025 18.9238 42.5893C18.6284 42.7631 18.142 42.7631 17.8409 42.5893C17.6903 42.5025 17.6151 42.3867 17.6151 42.2766V42.0219C17.6151 42.1377 17.6903 42.2477 17.8409 42.3345C18.142 42.5083 18.6226 42.5083 18.9238 42.3345C19.0685 42.2477 19.1438 42.1319 19.1438 42.0219Z" fill="#1F2337"/>
<path d="M19.1438 42.0219V42.2766C19.1438 42.3867 19.0685 42.5025 18.9238 42.5893C18.6284 42.7631 18.142 42.7631 17.8409 42.5893C17.6903 42.5025 17.6151 42.3867 17.6151 42.2766V42.0219C17.6151 42.1377 17.6903 42.2477 17.8409 42.3345C18.142 42.5083 18.6226 42.5083 18.9238 42.3345C19.0685 42.2477 19.1438 42.1319 19.1438 42.0219Z" fill="#1F2337"/>
<path d="M18.9183 41.7034C19.2194 41.8771 19.2194 42.1551 18.9241 42.3288C18.6287 42.5025 18.1423 42.5025 17.8412 42.3288C17.5401 42.1551 17.5401 41.8771 17.8412 41.7034C18.1365 41.5355 18.6229 41.5355 18.9183 41.7034Z" fill="#24337E"/>
<path d="M38.4496 48.6348C38.9592 48.9302 38.965 49.405 38.4554 49.7003C37.9458 49.9956 37.1236 49.9956 36.614 49.7003C36.1044 49.405 36.0986 48.9244 36.6082 48.6348C37.112 48.3395 37.9343 48.3395 38.4496 48.6348Z" fill="#4340BC"/>
<path d="M40.0998 49.1734L40.0941 50.4473C40.0941 50.8295 39.8451 51.2059 39.3471 51.4954C38.3453 52.0745 36.7181 52.0745 35.7105 51.4954C35.2009 51.2001 34.9519 50.8179 34.9519 50.4357L34.9577 49.1618C34.9577 49.544 35.2125 49.932 35.7163 50.2215C36.7239 50.8064 38.3511 50.8006 39.3528 50.2215C39.8508 49.932 40.0998 49.5556 40.0998 49.1734Z" fill="#1F2337"/>
<path d="M40.0998 49.1734L40.0941 50.4473C40.0941 50.8295 39.8451 51.2059 39.3471 51.4954C38.3453 52.0745 36.7181 52.0745 35.7105 51.4954C35.2009 51.2001 34.9519 50.8179 34.9519 50.4357L34.9577 49.1618C34.9577 49.544 35.2125 49.932 35.7163 50.2215C36.7239 50.8064 38.3511 50.8006 39.3528 50.2215C39.8508 49.932 40.0998 49.5556 40.0998 49.1734Z" fill="#1F2337"/>
<path d="M39.34 48.1137C40.3476 48.6928 40.3534 49.6366 39.3516 50.2215C38.3498 50.8006 36.7226 50.8006 35.715 50.2215C34.7074 49.6424 34.7016 48.6985 35.7034 48.1137C36.7052 47.5346 38.3324 47.5346 39.34 48.1137ZM36.6068 49.7003C37.1164 49.9957 37.9444 49.9957 38.4482 49.7003C38.9578 49.405 38.952 48.9244 38.4424 48.6348C37.9329 48.3395 37.1048 48.3395 36.601 48.6348C36.0972 48.9302 36.0972 49.405 36.6068 49.7003Z" fill="#24337E"/>
<path d="M32.2811 60.2739C32.2174 58.5656 31.7136 56.8921 30.9897 55.3518C30.2427 53.7709 29.2352 52.2885 27.9902 51.0551C27.3184 50.3892 26.5714 49.7869 25.7549 49.3121C23.9309 48.2582 22.2805 48.1655 21.0934 48.8546L11.811 53.7189L21.0935 69.6954L30.3701 64.8312C31.5456 64.1479 32.2753 62.6944 32.2811 60.6271C32.2869 60.5055 32.2811 60.3897 32.2811 60.2739Z" fill="url(#paint4_linear)"/>
<path d="M15.9931 54.8701C19.6123 56.9606 22.5366 62.0274 22.5251 66.1852C22.5135 70.3429 19.5718 72.0222 15.9468 69.9318C12.3276 67.8413 9.40331 62.7802 9.41489 58.6167C9.42647 54.459 12.3739 52.7797 15.9931 54.8701Z" fill="#4C3FF8"/>
<path d="M18.8885 70.2039C18.0952 70.2039 17.1861 69.9202 16.2595 69.3874C12.8199 67.407 10.0287 62.5718 10.0403 58.6225C10.0461 56.1035 11.1695 54.5979 13.0515 54.5979C13.8448 54.5979 14.754 54.8817 15.6805 55.4144C19.1202 57.4007 21.9113 62.2359 21.8997 66.1852C21.8881 68.7041 20.7647 70.2039 18.8885 70.2039Z" fill="#1F2337"/>
<path d="M18.4725 68.4188C17.8337 68.4188 17.0985 68.1906 16.3582 67.7647C13.5898 66.1675 11.3437 62.2735 11.3538 59.0944C11.3589 57.0663 12.2665 55.8545 13.7774 55.8545C14.4163 55.8545 15.1515 56.0827 15.8917 56.5086C18.6601 58.1057 20.9063 61.9997 20.9012 65.1788C20.886 67.207 19.9784 68.4188 18.4725 68.4188Z" fill="#F62054"/>
<g style="mix-blend-mode:overlay">
<path d="M18.2639 68.3199C17.7086 68.3199 17.0697 68.1216 16.4263 67.7514C14.0203 66.3634 12.0682 62.9791 12.077 60.2161C13.5136 66.3898 17.572 68.3287 20.3746 65.5085C20.3614 67.2667 19.5726 68.3199 18.2639 68.3199Z" fill="white"/>
</g>
<g style="mix-blend-mode:overlay">
<path d="M18.2639 67.7182C17.7086 67.7182 17.0697 67.5199 16.4263 67.1498C14.0203 65.7617 12.0682 62.3774 12.077 59.6145C13.5136 65.7881 17.572 67.727 20.3746 64.9068C20.3614 66.6651 19.5726 67.7182 18.2639 67.7182Z" fill="white"/>
</g>
<path d="M34.9109 39.4171C35.5181 39.0306 36.2902 39.3956 36.432 40.1013L37.4061 44.9492C37.497 45.4016 37.2916 45.862 36.8942 46.0966L30.5641 49.8326C29.8403 50.2598 28.9267 49.7367 28.9288 48.8962L28.9414 43.875C28.9414 43.87 32.3352 41.0567 34.9109 39.4171Z" fill="#24337E"/>
<path d="M20.8807 42.8499V46.6486C20.8054 48.3222 27.6211 51.7503 28.9356 50.7948V47.0424L20.8807 42.8499Z" fill="#1F2337"/>
<path d="M35.8537 38.9208C36.5971 39.3496 36.5848 40.4558 35.8639 40.9213C33.2953 42.5797 30.0086 45.248 28.9497 47.0212C28.9481 47.0238 28.9477 47.0272 28.9457 47.0295C28.9422 47.0337 28.9393 47.0384 28.9348 47.0415C27.5132 48.0432 19.9131 44.1071 20.9849 42.5909C21.0348 42.5203 21.0956 42.4541 21.1427 42.3816C22.9443 39.61 25.2428 37.139 29.2315 35.5553C29.5303 35.4367 29.8669 35.467 30.1453 35.6276L35.8537 38.9208Z" fill="#4340BC"/>
</g>
<path d="M13.3447 58.5083C12.9756 58.3238 13.0443 57.943 13.284 57.5383C13.6643 56.8962 14.5765 57.1163 14.8558 57.8083L15.0821 58.3689C15.4791 59.3527 14.7824 59.7848 14.0191 59.0481C13.7545 58.7928 13.5185 58.5952 13.3447 58.5083Z" fill="white"/>
</g>
<defs>
<filter id="filter0_d" x="27.6123" y="7.43617" width="22.6493" height="26.4911" filterUnits="userSpaceOnUse" color-interpolation-filters="sRGB">
<feFlood flood-opacity="0" result="BackgroundImageFix"/>
<feColorMatrix in="SourceAlpha" type="matrix" values="0 0 0 0 0 0 0 0 0 0 0 0 0 0 0 0 0 0 127 0"/>
<feOffset dy="3.25272"/>
<feColorMatrix type="matrix" values="0 0 0 0 0.121569 0 0 0 0 0.137255 0 0 0 0 0.215686 0 0 0 1 0"/>
<feBlend mode="normal" in2="BackgroundImageFix" result="effect1_dropShadow"/>
<feBlend mode="normal" in="SourceGraphic" in2="effect1_dropShadow" result="shape"/>
</filter>
<filter id="filter1_d" x="7" y="34.1466" width="39.5728" height="36.6843" filterUnits="userSpaceOnUse" color-interpolation-filters="sRGB">
<feFlood flood-opacity="0" result="BackgroundImageFix"/>
<feColorMatrix in="SourceAlpha" type="matrix" values="0 0 0 0 0 0 0 0 0 0 0 0 0 0 0 0 0 0 127 0"/>
<feOffset dx="2.16848" dy="-1.08424"/>
<feColorMatrix type="matrix" values="0 0 0 0 0.121569 0 0 0 0 0.137255 0 0 0 0 0.215686 0 0 0 1 0"/>
<feBlend mode="normal" in2="BackgroundImageFix" result="effect1_dropShadow"/>
<feBlend mode="normal" in="SourceGraphic" in2="effect1_dropShadow" result="shape"/>
</filter>
<linearGradient id="paint0_linear" x1="56.8841" y1="45.049" x2="57.9832" y2="142.18" gradientUnits="userSpaceOnUse">
<stop stop-color="#F52053"/>
<stop offset="1" stop-color="#4440FF"/>
</linearGradient>
<linearGradient id="paint1_linear" x1="72.5947" y1="41.9582" x2="32.4236" y2="41.2984" gradientUnits="userSpaceOnUse">
<stop stop-color="#F62054"/>
<stop offset="1" stop-color="#4048FF"/>
</linearGradient>
<linearGradient id="paint2_linear" x1="42.4247" y1="39.5796" x2="74.6611" y2="45.9116" gradientUnits="userSpaceOnUse">
<stop stop-color="#4048FF"/>
<stop offset="1" stop-color="#CE0032"/>
</linearGradient>
<linearGradient id="paint3_linear" x1="16.9258" y1="43.8981" x2="7" y2="43.8981" gradientUnits="userSpaceOnUse">
<stop stop-color="#1F2337"/>
<stop offset="1" stop-color="#4048FF"/>
</linearGradient>
<linearGradient id="paint4_linear" x1="22.0473" y1="48.4134" x2="22.0473" y2="69.6954" gradientUnits="userSpaceOnUse">
<stop stop-color="#4340BC"/>
<stop offset="1" stop-color="#1F2337"/>
</linearGradient>
</defs>
</svg>
