<svg width="80" height="80" viewBox="0 0 80 80" fill="none" xmlns="http://www.w3.org/2000/svg">
<mask id="mask0" mask-type="alpha" maskUnits="userSpaceOnUse" x="0" y="0" width="80" height="80">
<rect width="80" height="80" fill="#C4C4C4"/>
</mask>
<g mask="url(#mask0)">
<circle cx="38.9352" cy="39.9352" r="25.9352" fill="url(#paint0_linear)"/>
<path fill-rule="evenodd" clip-rule="evenodd" d="M51.2572 45.5746C51.2174 45.3579 51.1616 45.1441 51.0892 44.9339C49.6092 40.6378 41.7613 39.4454 33.5603 42.2706C25.3593 45.0958 19.9109 50.8687 21.3909 55.1648C22.8709 59.4609 30.7188 60.6533 38.9198 57.8281C41.9456 56.7858 44.5968 55.3421 46.6634 53.7194C49.0757 55.8348 52.6109 57.6987 57.668 58.5863L61.8321 45.5746H51.2572Z" fill="url(#paint1_linear)"/>
<g filter="url(#filter0_d)">
<path d="M61.0971 60.381C50.084 57.1838 44.955 39.7699 43.8714 33.1439L61.0971 27.3232C62.855 43.3637 72.3531 48.5877 75.9518 50.9266L61.0971 60.381Z" fill="#F6F6FF"/>
</g>
<path d="M50.3852 35.7148L59.2364 32.6867" stroke="#4048FF" stroke-linecap="round"/>
<path d="M51.5907 39.5916L60.362 36.3393" stroke="#4048FF" stroke-linecap="round"/>
<path d="M52.8162 43.4722L61.4989 39.9902" stroke="#4048FF" stroke-linecap="round"/>
<path d="M54.8034 47.2104L63.3433 43.3917" stroke="#4048FF" stroke-linecap="round"/>
<path d="M57.409 50.9016L65.6896 46.5491" stroke="#4048FF" stroke-linecap="round"/>
<path d="M60.6558 53.7414L68.9365 49.389" stroke="#4048FF" stroke-linecap="round"/>
<circle cx="48.2826" cy="36.3676" r="0.611965" transform="rotate(-3.26695 48.2826 36.3676)" fill="#4048FF"/>
<circle cx="49.4109" cy="40.4938" r="0.611965" transform="rotate(-7.47795 49.4109 40.4938)" fill="#4048FF"/>
<circle cx="50.6607" cy="44.4304" r="0.611965" transform="rotate(-8.98558 50.6607 44.4304)" fill="#4048FF"/>
<circle cx="52.6874" cy="48.2523" r="0.611965" transform="rotate(-11.2257 52.6874 48.2523)" fill="#4048FF"/>
<circle cx="55.3629" cy="52.0778" r="0.611965" transform="rotate(-14.861 55.3629 52.0778)" fill="#4048FF"/>
<circle cx="58.6098" cy="54.9177" r="0.611965" transform="rotate(-14.861 58.6098 54.9177)" fill="#4048FF"/>
<path d="M38.7586 54.0128C34.886 56.8384 28.1855 57.5728 23.7928 55.6531C21.5973 54.6921 20.3922 53.2508 20.2218 51.696L20.4617 53.8849C20.6321 55.4397 21.8354 56.8833 24.0327 57.842C28.4254 59.7618 35.1259 59.0274 38.9985 56.2017C40.9338 54.788 41.798 53.1198 41.6276 51.565L41.3877 49.3761C41.5579 50.9289 40.6958 52.5988 38.7586 54.0128Z" fill="#1F2337"/>
<path d="M37.8169 45.4176C40.0123 46.3786 41.2174 47.8199 41.3878 49.3747C41.5582 50.9295 40.6962 52.5995 38.7588 54.0114C34.8862 56.8371 28.1857 57.5715 23.7929 55.6517C21.5974 54.6908 20.3924 53.2494 20.222 51.6946C20.0515 50.1398 20.9136 48.4699 22.851 47.0579C26.7254 44.2301 33.4239 43.4959 37.8169 45.4176Z" fill="#4048FF"/>
<path d="M37.3977 41.021L30.7068 36.4701C30.6396 36.4255 30.5647 36.3837 30.478 36.3453C29.7646 36.0336 28.6783 36.1526 28.0493 36.6115C27.9748 36.6656 27.9087 36.7228 27.853 36.7829L22.3107 42.6746C21.3801 43.6643 20.9771 44.7361 21.0886 45.7535L21.7217 51.5302C21.8681 52.8657 22.9022 54.1039 24.7873 54.9289C28.5596 56.5787 34.3108 55.9484 37.6362 53.5206C39.2979 52.3068 40.0392 50.874 39.8928 49.5385L39.2597 43.7619C39.1484 42.7464 38.5225 41.7854 37.3977 41.021Z" fill="#B5E4FF"/>
<path d="M34.7077 26.805C31.3823 29.2327 25.6311 29.8631 21.8588 28.2133C19.9737 27.3882 18.9396 26.15 18.7932 24.8145L19.4264 30.5912C19.5377 31.6066 20.1635 32.5677 21.2864 33.3323L27.9773 37.8831C28.0445 37.9278 28.1194 37.9695 28.206 38.008C28.9195 38.3197 30.0058 38.2006 30.6348 37.7418C30.7093 37.6877 30.7753 37.6304 30.831 37.5704L36.3773 31.6782C37.3079 30.6885 37.711 29.6167 37.5995 28.5993L36.9663 22.8227C37.1107 24.1584 36.3694 25.5912 34.7077 26.805Z" fill="#B5E4FF"/>
<path d="M37.0781 27.8435L37.1664 28.6495C37.2667 29.5642 36.882 30.5101 36.0575 31.3862L30.511 37.2763C30.4732 37.3164 30.4292 37.3552 30.3751 37.3932C30.1351 37.5694 29.7788 37.6924 29.4015 37.7338C29.0242 37.7751 28.6497 37.7322 28.3772 37.6121C28.3182 37.5866 28.2648 37.5585 28.2192 37.5275L21.5305 32.9784C20.5359 32.3017 19.9554 31.4616 19.8552 30.5469L19.7668 29.7409C19.9063 31.0132 20.8917 32.1927 22.6861 32.9777C26.279 34.5492 31.7581 33.9487 34.9273 31.636C36.511 30.4808 37.2175 29.1158 37.0781 27.8435Z" fill="#FFC142"/>
<path d="M37.078 27.8417C37.2174 29.114 36.5109 30.479 34.9292 31.634C31.762 33.9465 26.2828 34.547 22.688 32.9757C20.8936 32.1907 19.9082 31.0112 19.7687 29.7389C19.6981 29.0948 19.846 28.4269 20.2127 27.7749C20.5692 27.14 21.1381 26.5178 21.9175 25.9466C25.0847 23.6341 30.5639 23.0336 34.1587 24.6049C35.0454 24.9935 35.7316 25.4781 36.2191 26.0205C36.7183 26.5776 37.0074 27.1977 37.078 27.8417Z" fill="#FFA318"/>
<path d="M35.5915 25.1095C31.7188 27.9352 25.0183 28.6696 20.6256 26.7499C18.4301 25.7889 17.227 24.3473 17.0564 22.7905L17.2963 24.9795C17.4667 26.5343 18.67 27.9779 20.8673 28.9366C25.26 30.8563 31.9605 30.1219 35.8331 27.2963C37.7684 25.8826 38.6326 24.2144 38.4622 22.6596L38.2223 20.4707C38.3909 22.0276 37.5287 23.6956 35.5915 25.1095Z" fill="#1F2337"/>
<path d="M34.6493 16.514C36.8448 17.475 38.0499 18.9164 38.2203 20.4712C38.3907 22.0259 37.5286 23.6959 35.5912 25.1078C31.7186 27.9335 25.0181 28.6679 20.6254 26.7482C18.4301 25.7892 17.227 24.3476 17.0564 22.7908C16.8858 21.2341 17.748 19.5661 19.6854 18.1541C23.5581 15.3285 30.2566 14.5943 34.6493 16.514Z" fill="#4048FF"/>
<path opacity="0.5" d="M37.6354 53.5184C39.2971 52.3046 40.0384 50.8718 39.892 49.5363C39.7456 48.2008 38.7115 46.9626 36.8264 46.1376C33.0541 44.4878 27.3029 45.1181 23.9775 47.5459C22.3158 48.7597 21.5745 50.1925 21.7209 51.528C21.8673 52.8635 22.9013 54.1017 24.7865 54.9267C28.5568 56.5768 34.31 55.9462 37.6354 53.5184Z" fill="#B0E1FF"/>
<path opacity="0.63" d="M37.321 53.3821C38.9064 52.2247 39.6128 50.8577 39.4731 49.5835C39.3334 48.3092 38.3478 47.1277 36.5492 46.3411C32.9522 44.7681 27.4631 45.3697 24.2922 47.6846C22.7067 48.842 22.0004 50.209 22.14 51.4833C22.2797 52.7575 23.2654 53.939 25.0639 54.7256C28.661 56.2986 34.148 55.6972 37.321 53.3821Z" fill="#B0E1FF"/>
<path d="M36.1841 43.014C36.108 42.9803 36.0322 42.9486 35.9566 42.9189L30.1656 40.5827L29.2739 40.6804L24.1265 44.2156C24.0573 44.2631 23.9902 44.3105 23.925 44.3576C22.3395 45.5151 21.6332 46.882 21.7729 48.1563C21.9125 49.4305 22.8982 50.6121 24.6967 51.3986C28.2938 52.9717 33.7829 52.37 36.9538 50.0552C38.5393 48.8977 39.2456 47.5308 39.1059 46.2565C38.9683 44.982 37.9826 43.8005 36.1841 43.014Z" fill="#FFA318"/>
<path d="M36.9561 50.052C33.7851 52.3669 28.2961 52.9685 24.699 51.3954C22.9005 50.6089 21.9148 49.4274 21.7751 48.1531L22.1402 51.484C22.2799 52.7582 23.2656 53.9397 25.0641 54.7263C28.6612 56.2994 34.1502 55.6977 37.3212 53.3828C38.9066 52.2254 39.6129 50.8584 39.4733 49.5842L39.1082 46.2533C39.2481 47.5296 38.5415 48.8946 36.9561 50.052Z" fill="#FFC142"/>
<path d="M30.2415 41.1194C30.3606 41.0324 30.4135 40.9286 30.4031 40.8338C30.3925 40.737 30.3186 40.6491 30.1835 40.5899C29.9015 40.4749 29.5103 40.5178 29.2748 40.6795C29.1409 40.7782 29.0878 40.88 29.0984 40.9768C29.109 41.0736 29.1829 41.1614 29.318 41.2206C29.5883 41.3389 30.0033 41.2934 30.2415 41.1194Z" fill="#FFC142"/>
<path d="M30.002 37.1696L28.6973 37.3126L29.0989 40.9773L30.4037 40.8343L30.002 37.1696Z" fill="#FFC142"/>
</g>
<defs>
<filter id="filter0_d" x="39.8715" y="27.3232" width="40.0804" height="41.0579" filterUnits="userSpaceOnUse" color-interpolation-filters="sRGB">
<feFlood flood-opacity="0" result="BackgroundImageFix"/>
<feColorMatrix in="SourceAlpha" type="matrix" values="0 0 0 0 0 0 0 0 0 0 0 0 0 0 0 0 0 0 127 0"/>
<feOffset dy="4"/>
<feGaussianBlur stdDeviation="2"/>
<feColorMatrix type="matrix" values="0 0 0 0 0 0 0 0 0 0 0 0 0 0 0 0 0 0 0.25 0"/>
<feBlend mode="normal" in2="BackgroundImageFix" result="effect1_dropShadow"/>
<feBlend mode="normal" in="SourceGraphic" in2="effect1_dropShadow" result="shape"/>
</filter>
<linearGradient id="paint0_linear" x1="38.9352" y1="14" x2="38.9352" y2="82.0171" gradientUnits="userSpaceOnUse">
<stop stop-color="#00CC9E"/>
<stop offset="1" stop-color="#4048FF"/>
</linearGradient>
<linearGradient id="paint1_linear" x1="55.8304" y1="63.7133" x2="41.4903" y2="36.9033" gradientUnits="userSpaceOnUse">
<stop stop-color="#1F2337"/>
<stop offset="1" stop-color="#1F2337" stop-opacity="0"/>
</linearGradient>
</defs>
</svg>
