<svg width="75" height="75" viewBox="0 0 75 75" fill="none" xmlns="http://www.w3.org/2000/svg">
<mask id="mask0" mask-type="alpha" maskUnits="userSpaceOnUse" x="0" y="0" width="75" height="75">
<rect x="0.256348" y="0.286621" width="74.7133" height="74.7133" fill="#C4C4C4"/>
</mask>
<g mask="url(#mask0)">
<g style="mix-blend-mode:screen">
<path fill-rule="evenodd" clip-rule="evenodd" d="M31.9762 54.0683C35.2227 52.1318 40.1221 56.4944 39.3547 59.0479C44.5078 61.7078 43.3683 70.0827 35.9717 68.8014C37.226 74.5464 25.4296 74.8688 24.0204 70.3277C21.0596 73.2172 14.7518 69.7451 16.0778 65.8758C11.943 65.7552 10.0401 60.1107 11.9662 59.0296C8.27734 58.0189 7.93446 49.0271 16.0597 51.2922C17.8874 48.7112 22.3343 48.4832 24.313 52.8865C26.0464 51.3487 31.3792 51.673 31.9762 54.0683Z" fill="#DADBF0"/>
<path fill-rule="evenodd" clip-rule="evenodd" d="M42.4256 63.1224C43.0164 66.2747 40.8616 69.6484 35.9714 68.8013C37.2256 74.5463 25.4293 74.8688 24.0201 70.3277C21.0593 73.2171 14.7514 69.745 16.0774 65.8758C11.9427 65.7551 10.0398 60.1107 11.9659 59.0295C8.90936 58.1922 8.15026 51.8752 12.6018 51.0229C8.04854 52.5984 10.5069 58.103 13.3993 58.2058C11.5999 59.2157 12.2911 65.7722 17.3565 65.1166C16.1178 68.7309 21.831 72.4185 24.9749 69.0269C26.2912 73.269 36.5096 72.6465 35.3376 67.2799C40.9637 68.6882 42.0966 65.6485 42.4256 63.1224Z" fill="#C8D0E8"/>
<g opacity="0.5">
<path opacity="0.5" fill-rule="evenodd" clip-rule="evenodd" d="M30.2863 51.385C32.9869 49.5204 37.743 52.4825 37.2195 54.7381C40.4172 56.262 40.784 60.9918 34.32 60.3081C35.2693 63.6359 31.5336 63.8482 29.2108 62.5735C28.4257 63.6185 26.1504 63.7331 25.1732 62.5782C23.3178 64.0767 17.1112 62.5017 18.6741 59.3542C15.3498 59.1207 15.019 56.4753 16.6248 55.4279C13.5617 54.8993 11.8242 48.7504 19.3396 49.5873C20.7782 47.2467 24.3634 47.5391 25.8382 49.9557C27.2516 48.524 29.6393 49.3446 30.2863 51.385Z" fill="#DADBF0"/>
<path fill-rule="evenodd" clip-rule="evenodd" d="M39.2003 56.7339C40.175 58.8022 38.5207 60.9941 34.3205 60.3085C35.2698 63.6362 31.5341 63.8486 29.2114 62.5739C28.4263 63.6189 26.1509 63.7335 25.1737 62.5786C23.3183 64.0771 17.1118 62.5021 18.6746 59.3546C15.3503 59.1211 15.0195 56.4757 16.6254 55.4281C13.9626 54.9691 12.3031 50.2636 16.8507 49.5905C13.4276 50.4772 14.2246 53.4614 17.6454 55.2707C15.7003 56.7396 18.6257 59.4306 20.0032 58.217C18.2436 61.348 23.6896 62.7382 25.1265 60.7797C26.4846 62.6754 29.2024 62.8945 29.4498 60.9356C32.3479 62.7353 34.3113 61.7424 33.8109 59.2618C36.9395 59.7305 39.568 59.7275 39.2003 56.7339Z" fill="#C8D0E8"/>
</g>
<g opacity="0.5">
<path fill-rule="evenodd" clip-rule="evenodd" d="M44.2274 32.4498C42.6196 35.6381 28.716 52.0421 31.5093 54.7718C33.0076 56.2356 32.3475 58.2391 27.9896 57.7882C26.6538 58.8044 21.2375 59.1094 22.0656 55.7998C18.6418 54.2548 20.651 52.7772 22.7307 52.3103C23.3296 52.1759 24.0308 52.1552 24.7035 51.7947C28.2705 49.8824 40.881 35.5252 44.2274 32.4498Z" fill="#DADBF0"/>
<path fill-rule="evenodd" clip-rule="evenodd" d="M35.9778 41.8857L35.9679 41.9051C33.8941 44.258 28.8139 49.2414 24.9544 52.0389C24.3528 52.4751 23.7957 52.7798 23.1108 52.9128C20.3279 53.4535 21.6045 55.2339 23.319 55.1785C22.2231 57.0489 25.9974 58.7855 28.2926 57.5039C31.0931 58.6079 31.987 57.038 32.1067 55.5542C33.4016 57.5609 31.9526 59.7404 28.5147 58.2345C27.179 59.2507 21.2366 59.1102 22.0647 55.8006C18.641 54.2556 20.6509 51.4376 22.4667 52.0886C23.1387 52.3295 24.2314 51.9496 25.0165 51.5002C28.5273 49.4918 32.7275 44.8728 35.9778 41.8857Z" fill="#C8D0E8"/>
</g>
</g>
<path fill-rule="evenodd" clip-rule="evenodd" d="M31.5505 48.6749C31.5602 47.4409 32.0511 43.0196 32.4413 41.9316L31.4329 42.878C32.2248 38.1357 33.4383 37.0425 36.9898 34.5018L42.9382 38.3853C41.4992 42.6014 41.0601 44.1701 36.7747 46.6082L37.3158 45.3354C36.4288 46.0765 32.9191 48.0865 31.5505 48.6749Z" fill="url(#paint0_linear)"/>
<path fill-rule="evenodd" clip-rule="evenodd" d="M33.7544 45.436C33.7614 44.5648 34.108 41.4436 34.3832 40.6754L33.6715 41.3438C34.2306 37.9958 35.0869 37.2241 37.5941 35.4304L41.7935 38.1719C40.7778 41.1481 40.4681 42.2558 37.4425 43.9771L37.8243 43.0784C37.1981 43.6013 34.7204 45.0205 33.7544 45.436Z" fill="#FF5959"/>
<path fill-rule="evenodd" clip-rule="evenodd" d="M35.3489 43.0974C35.3539 42.4596 35.6076 40.1754 35.8093 39.6132L35.288 40.1024C35.6972 37.6521 36.324 37.0872 38.1589 35.7744L41.2324 37.781C40.4891 39.9592 40.2622 40.77 38.0479 42.0297L38.3277 41.3719C37.8695 41.7547 36.0558 42.7935 35.3489 43.0974Z" fill="#FFDDD2"/>
<path fill-rule="evenodd" clip-rule="evenodd" d="M43.3252 41.0607C44.7486 39.9115 45.9566 38.8309 47.3695 37.6979L37.4301 31.1446C37.3824 30.6965 36.6103 30.6487 36.7327 30.2842C36.1246 31.951 35.5073 33.519 34.9817 35.2453C34.7416 35.8282 34.7865 36.5869 35.1746 37.4425C35.7173 38.6476 36.7205 39.6014 37.7729 40.2796C39.3606 41.3029 41.5842 42.3283 43.3252 41.0607Z" fill="url(#paint1_linear)"/>
<path fill-rule="evenodd" clip-rule="evenodd" d="M39.6154 32.5855L37.4301 31.1446C37.3824 30.6965 36.6103 30.6487 36.7327 30.2842C36.1246 31.951 35.5073 33.519 34.9817 35.2453C34.7416 35.8282 34.7865 36.5869 35.1746 37.4425C35.6998 38.6089 36.7046 39.5911 37.7729 40.2796C39.3107 41.2707 41.4453 42.2638 43.1599 41.1733C41.1874 41.9603 38.1103 39.9293 37.3131 38.8407C38.0508 36.7032 38.8114 34.616 39.6154 32.5855Z" fill="url(#paint2_linear)"/>
<path fill-rule="evenodd" clip-rule="evenodd" d="M47.0772 34.206C45.9091 31.6359 42.6556 29.3306 39.8093 29.0595C36.9632 28.7884 35.6027 30.6524 36.7711 33.2228C37.9381 35.7948 41.193 38.0981 44.0388 38.369C46.8851 38.6401 48.2454 36.7761 47.0772 34.206Z" fill="#0A3C5F"/>
<path d="M36.12 31.8739L36.119 31.8796C36.0006 32.562 35.9526 33.0879 35.9688 33.5718C35.9836 34.0079 36.0461 34.4055 36.2583 34.9293C36.7962 36.2321 37.8502 37.4545 39.1435 38.3769C40.4379 39.3001 41.9149 39.882 43.2515 39.967C44.0503 40.0144 44.625 39.9087 45.2803 39.5858L45.2804 39.5857C45.8256 39.3172 46.4874 38.9053 46.9637 38.6086L46.964 38.6084C51.6406 35.6982 56.5112 30.2209 59.3184 25.0964C60.5521 22.8436 61.5368 20.4176 62.2041 17.9864C62.3878 17.3169 62.5468 16.6428 62.678 15.9645C63.1328 13.1747 63.3401 10.862 63.2314 9.06789C63.1211 7.24838 62.694 6.10897 62.033 5.49649C61.4092 4.91858 60.4035 4.6585 58.7176 5.0368C57.0277 5.41602 54.7922 6.41169 51.8998 8.14442L36.12 31.8739ZM36.12 31.8739C37.0953 25.9676 40.8186 18.7276 44.84 14.173C46.5934 12.1879 48.5829 10.4044 50.5581 9.02651M36.12 31.8739L50.5581 9.02651M50.5581 9.02651C51.0111 8.71225 51.4514 8.41316 51.8997 8.14448L50.5581 9.02651Z" fill="#DADBF0" stroke="#4048FF" stroke-width="1.42564"/>
<path fill-rule="evenodd" clip-rule="evenodd" d="M51.8527 6.98156C50.2678 7.85331 48.5297 9.15885 47.2316 10.3106C46.1555 11.2653 45.1362 12.3021 44.2143 13.4089C40.6869 17.6424 37.6383 23.8867 36.9258 29.1534C36.8303 29.8156 36.7964 30.3565 36.834 30.8735C37.0047 33.2092 39.2719 35.3862 41.1661 36.508C42.361 37.2159 43.6587 37.6872 44.8724 37.8047C45.7578 37.8868 46.1263 37.8802 47.1795 37.4707C44.2652 38.0811 40.7638 35.7166 39.1306 33.4768C41.394 25.219 44.9698 17.8198 50.8784 13.1372C51.4308 13.7974 56.5609 18.5192 60.7156 17.2134L51.9789 7.12733C52.2156 6.98102 52.4546 6.8391 52.6978 6.7055C54.4623 5.73509 56.0012 5.02093 57.3361 4.54643C55.8168 4.99773 54.0027 5.7991 51.8527 6.98156Z" fill="#C2BEDB"/>
<path fill-rule="evenodd" clip-rule="evenodd" d="M63.9118 14.5111C64.38 11.1819 64.555 6.983 63.47 3.78311C63.4484 3.72055 63.4232 3.64698 63.3979 3.57342C63.3793 3.51925 63.3305 3.36562 63.227 3.29502C63.1296 3.22819 62.9779 3.24241 62.9101 3.24378C59.3485 3.31669 55.1822 4.96606 52.1852 6.71338C51.9946 6.82456 51.8117 6.94482 51.6725 7.06899C50.83 7.79545 50.653 8.88898 50.8641 9.95504C51.0672 10.9816 51.6242 11.976 52.2266 12.7635C52.3082 12.8762 52.3939 12.9883 52.4829 13.0993C54.1531 15.1776 57.0876 16.8873 59.5406 17.2125C60.442 17.332 61.3784 17.293 62.1732 16.9706C62.5643 16.8118 62.922 16.5808 63.2186 16.2515C63.41 16.0395 63.5737 15.7939 63.6738 15.546C63.8065 15.2182 63.8636 14.8543 63.9118 14.5111Z" fill="url(#paint3_linear)"/>
<path fill-rule="evenodd" clip-rule="evenodd" d="M63.26 3.32185C63.2498 3.31196 63.2387 3.30282 63.227 3.29502C63.1296 3.22819 62.9779 3.24241 62.9101 3.24378C59.3485 3.31669 55.1822 4.96605 52.1852 6.71337C51.9946 6.82455 51.8117 6.94482 51.6725 7.06899C50.83 7.79544 50.653 8.88898 50.8641 9.95503C50.867 9.96977 50.8696 9.98418 50.8727 9.99885L50.8753 10.0103L50.8832 10.0466L50.8848 10.0546C50.8914 10.0848 50.8983 10.1148 50.9056 10.1449L50.9073 10.1519C50.9108 10.166 50.9142 10.1798 50.9176 10.194L50.9181 10.1957C50.9221 10.2113 50.926 10.2267 50.9302 10.2422L50.9303 10.243C50.9381 10.2731 50.9465 10.3035 50.9549 10.3337L50.9575 10.3422C50.9702 10.3876 50.9838 10.4329 50.9978 10.4779L50.9998 10.4841C51.0041 10.4984 51.0087 10.5124 51.0134 10.5268L51.0136 10.5282C51.0289 10.5752 51.0448 10.622 51.0611 10.6686L51.0614 10.6696C51.0779 10.7163 51.0948 10.7624 51.1124 10.8087L51.1131 10.8104C51.1248 10.841 51.1366 10.8715 51.1486 10.902L51.1496 10.9042L51.1668 10.9465L51.1685 10.9511C51.2058 11.0422 51.2448 11.132 51.2861 11.2216L51.2883 11.227L51.3058 11.2649L51.3095 11.2722C51.3227 11.3003 51.3358 11.3278 51.3495 11.3557L51.3545 11.366L51.3702 11.3977L51.3753 11.4079C51.3893 11.436 51.4034 11.4637 51.4176 11.4914L51.4205 11.4975L51.4391 11.5334L51.4434 11.5414L51.4591 11.5719L51.4662 11.5848L51.4862 11.6223L51.4925 11.634L51.5074 11.662L51.5155 11.6766L51.5344 11.7106L51.536 11.7136L51.5594 11.7552L51.5628 11.7615L51.5823 11.7959L51.5869 11.8037L51.6055 11.8361L51.6113 11.8459L51.6317 11.8804L51.6443 11.9017L51.6541 11.9184L51.6659 11.9381L51.6802 11.9622L51.6869 11.9732L51.708 12.0078L51.7158 12.0204L51.7325 12.0475L51.7429 12.0641L51.7547 12.0836L51.7677 12.1042L51.78 12.1238L51.7891 12.1384L51.8093 12.1699C51.9432 12.378 52.0838 12.5765 52.2269 12.7637C52.3085 12.8763 52.3942 12.9885 52.4833 13.0994C54.1534 15.178 57.0879 16.8875 59.5409 17.2126C60.4227 17.3298 61.4397 17.303 62.279 16.9262C60.9834 17.1807 56.0429 17.4117 52.5548 11.361C55.5694 8.29097 59.0235 5.67474 63.26 3.32185Z" fill="#1E2136"/>
<path fill-rule="evenodd" clip-rule="evenodd" d="M53.1331 17.8401C55.5162 19.4912 56.1411 22.719 54.5267 25.0493C52.912 27.3794 49.6718 27.9267 47.2885 26.2752C44.9039 24.6227 44.2773 21.3965 45.892 19.0663C47.5067 16.7362 50.7482 16.1874 53.1331 17.8401Z" fill="#B5B0D2"/>
<path fill-rule="evenodd" clip-rule="evenodd" d="M48.2765 24.8482C46.7319 23.7778 46.3455 21.6619 47.4143 20.1198C48.4831 18.5776 50.601 18.1938 52.1454 19.2641C53.6886 20.3333 54.0737 22.4513 53.005 23.9934C51.9366 25.5357 49.8195 25.9172 48.2765 24.8482ZM53.015 18.0098C50.7775 16.4594 47.7074 17.0131 46.1579 19.249C44.6097 21.4834 45.1687 24.5541 47.4062 26.1044C49.6422 27.6538 52.7137 27.0984 54.2615 24.864C55.8109 22.6278 55.2508 19.559 53.015 18.0098Z" fill="#EAE7F4"/>
<path fill-rule="evenodd" clip-rule="evenodd" d="M48.2766 24.8491C49.8148 25.9149 51.9406 25.531 53.0051 23.9943C54.0712 22.4559 53.6839 20.3309 52.1455 19.265C50.6061 18.1983 48.4805 18.5821 47.4144 20.1206C46.3496 21.657 46.737 23.7823 48.2766 24.8491Z" fill="url(#paint4_linear)"/>
<path fill-rule="evenodd" clip-rule="evenodd" d="M52.1456 19.2651C53.6888 20.3343 54.0739 22.4524 53.0052 23.9944C52.884 24.1695 52.7493 24.3292 52.6025 24.4754C53.2587 23.0094 52.8009 21.2391 51.4342 20.292C50.0661 19.344 48.2472 19.537 47.1072 20.6678C47.1905 20.4779 47.2932 20.2956 47.4143 20.1207C48.4832 18.5786 50.601 18.1948 52.1456 19.2651Z" fill="#0A3C5F"/>
<path fill-rule="evenodd" clip-rule="evenodd" d="M52.2802 19.0697C52.4438 19.1832 52.6678 19.1433 52.7812 18.9799C52.8959 18.8143 52.8542 18.5907 52.6906 18.4774C52.5257 18.3629 52.3016 18.4026 52.1869 18.5682C52.0734 18.7319 52.115 18.9555 52.2802 19.0697Z" fill="#1466A0"/>
<path fill-rule="evenodd" clip-rule="evenodd" d="M47.7292 25.6389C47.8926 25.7523 48.118 25.7109 48.2315 25.5473C48.3447 25.3838 48.3046 25.158 48.1409 25.0447C47.9759 24.9304 47.7506 24.9718 47.6373 25.1357C47.5236 25.299 47.564 25.5245 47.7292 25.6389Z" fill="#1466A0"/>
<path fill-rule="evenodd" clip-rule="evenodd" d="M53.7939 24.542C53.6804 24.7055 53.4551 24.7472 53.2901 24.6329C53.1263 24.5195 53.0845 24.2929 53.1978 24.129C53.311 23.9655 53.5393 23.9233 53.703 24.0366C53.8683 24.1509 53.9071 24.3784 53.7939 24.542Z" fill="#1466A0"/>
<path fill-rule="evenodd" clip-rule="evenodd" d="M47.2181 19.9859C47.1048 20.1496 46.8779 20.1901 46.7145 20.0767C46.5493 19.9624 46.5092 19.7369 46.6223 19.5732C46.7355 19.4094 46.9622 19.366 47.1274 19.4807C47.291 19.594 47.3316 19.8226 47.2181 19.9859Z" fill="#1466A0"/>
<path fill-rule="evenodd" clip-rule="evenodd" d="M54.4989 21.2806C54.5346 21.4779 54.4043 21.6658 54.2082 21.6997C54.0125 21.737 53.8231 21.6056 53.7873 21.4082C53.7518 21.2135 53.8822 21.0257 54.078 20.9887C54.2741 20.955 54.4633 21.0863 54.4989 21.2806Z" fill="#1466A0"/>
<path fill-rule="evenodd" clip-rule="evenodd" d="M46.6316 22.7049C46.6657 22.9013 46.5367 23.0874 46.3409 23.1242C46.1435 23.16 45.954 23.0289 45.9199 22.8327C45.8842 22.6354 46.0131 22.4492 46.2105 22.4133C46.4061 22.376 46.5957 22.5075 46.6316 22.7049Z" fill="#1466A0"/>
<path fill-rule="evenodd" clip-rule="evenodd" d="M50.989 26.3456C50.7932 26.3827 50.604 26.2515 50.5678 26.0539C50.5336 25.8577 50.6626 25.6716 50.8584 25.6346C51.0561 25.5989 51.2453 25.7301 51.2794 25.9261C51.3151 26.1234 51.1864 26.3097 50.989 26.3456Z" fill="#1466A0"/>
<path fill-rule="evenodd" clip-rule="evenodd" d="M49.5595 18.479C49.362 18.5151 49.1725 18.3836 49.1384 18.1875C49.1013 17.9921 49.2319 17.8042 49.429 17.7681C49.6234 17.733 49.8131 17.8645 49.8501 18.0599C49.8843 18.2562 49.7539 18.4444 49.5595 18.479Z" fill="#1466A0"/>
<path fill-rule="evenodd" clip-rule="evenodd" d="M47.7047 36.9043L47.8897 36.8069L47.6891 36.9121L47.7047 36.9043Z" fill="#828388"/>
<path fill-rule="evenodd" clip-rule="evenodd" d="M52.8783 32.7865L50.8972 32.6244C48.7031 40.8229 45.7864 44.4984 41.8855 50.3546L43.8688 50.5136L43.867 50.5117C46.0141 47.9536 48.6468 45.4402 50.3876 42.646C51.164 41.4007 51.7773 40.09 52.2037 38.6097C52.7499 36.7144 52.9303 34.8253 52.8783 32.7865Z" fill="url(#paint5_linear)"/>
<path fill-rule="evenodd" clip-rule="evenodd" d="M50.8984 32.6243L44.8916 38.2043C44.4937 41.783 43.5902 45.7673 41.8867 50.3545C46.4942 44.867 51.1303 41.6159 50.8984 32.6243Z" fill="#1E2136"/>
<path fill-rule="evenodd" clip-rule="evenodd" d="M39.2255 23.3256L40.0734 25.1235C33.1677 30.0575 30.751 34.0793 26.6387 39.789L25.7929 37.9878L25.7955 37.9891C27.4363 35.0796 28.8647 31.7322 30.8693 29.1207C31.7628 27.9568 32.7744 26.9221 34.0104 26.0028C35.593 24.8252 37.2982 23.9927 39.2255 23.3256Z" fill="url(#paint6_linear)"/>
<path fill-rule="evenodd" clip-rule="evenodd" d="M40.0744 25.1234L36.9598 32.7072C33.7488 34.337 30.3358 36.5825 26.6398 39.7887C30.1587 33.547 31.5741 28.0645 40.0744 25.1234Z" fill="#1E2136"/>
<g style="mix-blend-mode:soft-light">
<path d="M52.3854 22.445L49.2902 20.4365C49.8597 20.1252 50.6237 20.101 51.2313 20.4952C51.6087 20.7401 51.8587 21.1128 51.9875 21.5058L52.4784 21.8244C52.4051 21.1578 52.035 20.5611 51.4394 20.1746C50.5087 19.5707 49.314 19.7091 48.5458 20.4798L48.5656 20.4926L49.9516 21.392L49.6548 21.8494L48.2172 20.9165L47.9911 21.265L49.4287 22.1979L48.4534 23.7008L48.8019 23.9269L49.7772 22.424L50.0603 22.6077L49.0851 24.1107L49.4554 24.3509L50.4306 22.848L51.3945 23.4735L51.4502 23.5096L51.7383 23.6966C51.8497 23.5831 51.9535 23.4537 52.042 23.317C52.2174 23.0458 52.3303 22.7498 52.3854 22.445ZM50.2865 22.2592L50.0033 22.0755L50.3001 21.6181L50.5833 21.8018L50.2865 22.2592ZM50.6567 22.4995L50.9536 22.0421L51.9106 22.6631C51.8771 22.7962 51.791 22.973 51.697 23.1183C51.6882 23.1319 51.6852 23.1359 51.6707 23.1575L50.6567 22.4995Z" fill="white"/>
<path d="M52.3854 22.445L49.2902 20.4365C49.8597 20.1252 50.6237 20.101 51.2313 20.4952C51.6087 20.7401 51.8587 21.1128 51.9875 21.5058L52.4784 21.8244C52.4051 21.1578 52.035 20.5611 51.4394 20.1746C50.5087 19.5707 49.314 19.7091 48.5458 20.4798L48.5656 20.4926L49.9516 21.392L49.6548 21.8494L48.2172 20.9165L47.9911 21.265L49.4287 22.1979L48.4534 23.7008L48.8019 23.9269L49.7772 22.424L50.0603 22.6077L49.0851 24.1107L49.4554 24.3509L50.4306 22.848L51.3945 23.4735L51.4502 23.5096L51.7383 23.6966C51.8497 23.5831 51.9535 23.4537 52.042 23.317C52.2174 23.0458 52.3303 22.7498 52.3854 22.445ZM50.2865 22.2592L50.0033 22.0755L50.3001 21.6181L50.5833 21.8018L50.2865 22.2592ZM50.6567 22.4995L50.9536 22.0421L51.9106 22.6631C51.8771 22.7962 51.791 22.973 51.697 23.1183C51.6882 23.1319 51.6852 23.1359 51.6707 23.1575L50.6567 22.4995Z" fill="white"/>
<path d="M51.8873 19.4226C50.4264 18.4746 48.4666 18.8919 47.5186 20.3528C46.5706 21.8138 46.9879 23.7736 48.4488 24.7216C49.9098 25.6696 51.8696 25.2522 52.8176 23.7913C53.7656 22.3304 53.3482 20.3706 51.8873 19.4226ZM48.689 24.3515C47.4321 23.5359 47.0731 21.8499 47.8887 20.593C48.7042 19.3361 50.3903 18.9771 51.6471 19.7927C52.904 20.6082 53.263 22.2943 52.4475 23.5511C51.6319 24.808 49.9459 25.167 48.689 24.3515Z" fill="white"/>
</g>
<g style="mix-blend-mode:soft-light">
<path d="M52.394 22.4281L49.2855 20.411C49.8576 20.0983 50.6248 20.074 51.235 20.47C51.614 20.7159 51.8651 21.0901 51.9944 21.4849L52.4874 21.8048C52.4138 21.1354 52.0421 20.5361 51.444 20.1479C50.5093 19.5415 49.3095 19.6805 48.5381 20.4544L48.5579 20.4673L49.9498 21.3705L49.6518 21.8299L48.208 20.8931L47.9809 21.243L49.4246 22.1799L48.4453 23.6892L48.7953 23.9163L49.7746 22.407L50.059 22.5915L49.0796 24.1008L49.4515 24.3421L50.4309 22.8328L51.3989 23.4609L51.4548 23.4972L51.7441 23.6849C51.856 23.571 51.9603 23.441 52.0491 23.3038C52.2253 23.0314 52.3387 22.7341 52.394 22.4281ZM50.2861 22.2415L50.0017 22.057L50.2998 21.5976L50.5842 21.7821L50.2861 22.2415ZM50.658 22.4828L50.9561 22.0234L51.9172 22.6471C51.8836 22.7807 51.797 22.9583 51.7026 23.1043C51.6938 23.1179 51.6908 23.1219 51.6763 23.1436L50.658 22.4828Z" fill="white"/>
<path d="M52.394 22.4281L49.2855 20.411C49.8576 20.0983 50.6248 20.074 51.235 20.47C51.614 20.7159 51.8651 21.0901 51.9944 21.4849L52.4874 21.8048C52.4138 21.1354 52.0421 20.5361 51.444 20.1479C50.5093 19.5415 49.3095 19.6805 48.5381 20.4544L48.5579 20.4673L49.9498 21.3705L49.6518 21.8299L48.208 20.8931L47.9809 21.243L49.4246 22.1799L48.4453 23.6892L48.7953 23.9163L49.7746 22.407L50.059 22.5915L49.0796 24.1008L49.4515 24.3421L50.4309 22.8328L51.3989 23.4609L51.4548 23.4972L51.7441 23.6849C51.856 23.571 51.9603 23.441 52.0491 23.3038C52.2253 23.0314 52.3387 22.7341 52.394 22.4281ZM50.2861 22.2415L50.0017 22.057L50.2998 21.5976L50.5842 21.7821L50.2861 22.2415ZM50.658 22.4828L50.9561 22.0234L51.9172 22.6471C51.8836 22.7807 51.797 22.9583 51.7026 23.1043C51.6938 23.1179 51.6908 23.1219 51.6763 23.1436L50.658 22.4828Z" fill="white"/>
<path d="M51.8944 19.3928C50.4273 18.4408 48.4591 18.8599 47.5071 20.327C46.5551 21.7942 46.9741 23.7624 48.4413 24.7144C49.9085 25.6665 51.8767 25.2473 52.8287 23.7801C53.7807 22.313 53.3616 20.3448 51.8944 19.3928ZM48.6825 24.3427C47.4203 23.5237 47.0597 21.8304 47.8788 20.5682C48.6978 19.306 50.391 18.9454 51.6533 19.7645C52.9155 20.5835 53.276 22.2768 52.457 23.539C51.638 24.8012 49.9447 25.1618 48.6825 24.3427Z" fill="white"/>
</g>
<g style="mix-blend-mode:soft-light">
<path d="M51.9045 19.3982C50.4373 18.4462 48.4691 18.8652 47.5171 20.3324C46.5651 21.7996 46.9842 23.7678 48.4513 24.7198C49.9185 25.6718 51.8867 25.2527 52.8387 23.7855C53.7907 22.3184 53.3716 20.3502 51.9045 19.3982ZM48.6925 24.3481C47.4303 23.5291 47.0698 21.8358 47.8888 20.5736C48.7078 19.3114 50.401 18.9508 51.6633 19.7699C52.9255 20.5889 53.2861 22.2821 52.467 23.5443C51.648 24.8066 49.9547 25.1671 48.6925 24.3481Z" fill="white"/>
</g>
<circle cx="16.8305" cy="44.2682" r="1.11924" transform="rotate(15.4975 16.8305 44.2682)" fill="#4048FF"/>
<circle cx="8.44735" cy="41.2355" r="1.75218" transform="rotate(15.4975 8.44735 41.2355)" fill="#FB6C77"/>
<circle cx="12.1917" cy="44.7107" r="1.80999" transform="rotate(15.4975 12.1917 44.7107)" fill="#4048FF"/>
<path d="M11.9772 45.4405L11.8298 45.4923C11.7667 45.5145 11.6969 45.4811 11.6747 45.418L11.4737 44.8465C11.4515 44.7835 11.4849 44.7136 11.548 44.6914L11.6954 44.6396C11.7585 44.6174 11.8283 44.6508 11.8505 44.7139L12.0515 45.2853C12.0737 45.3484 12.0404 45.4183 11.9772 45.4405Z" fill="white"/>
<path d="M12.7703 44.391C12.808 44.3567 12.8238 44.3018 12.8058 44.2509C12.782 44.1831 12.7069 44.1471 12.6392 44.171L12.2885 44.2943C12.2867 44.2676 12.31 44.1415 12.3153 44.097C12.32 44.0588 12.3114 44.0191 12.2985 43.9828C12.2824 43.9372 12.2566 43.8949 12.2232 43.8597C12.1775 43.8114 12.1143 43.7664 12.0475 43.8046C11.9881 43.8386 11.9711 43.9223 12.0147 43.9755C12.0147 43.9755 12.0456 44.0155 12.0486 44.033C12.0527 44.0552 12.0355 44.0999 12.0161 44.1578C11.9772 44.2735 11.9272 44.4273 11.9181 44.4806C11.9076 44.542 11.9087 44.586 11.9201 44.6324C11.9203 44.6417 11.922 44.6511 11.9253 44.6603L12.1085 45.1814C12.1255 45.2294 12.1785 45.2549 12.2265 45.238L12.843 45.0228C12.906 45.0007 12.9392 44.9312 12.9172 44.8682C12.9081 44.8426 12.8913 44.8221 12.8703 44.808C12.907 44.7764 12.9226 44.7242 12.9057 44.6761C12.8955 44.6473 12.8753 44.6249 12.8506 44.6109C12.8832 44.5764 12.8962 44.5252 12.8795 44.4774C12.8622 44.4286 12.8187 44.3965 12.7703 44.391Z" fill="white"/>
<circle cx="14.6365" cy="51.6134" r="1.47405" transform="rotate(15.4975 14.6365 51.6134)" fill="#4048FF"/>
<path d="M14.4624 52.2072L14.3423 52.2494C14.2909 52.2675 14.2341 52.2403 14.216 52.1889L14.0523 51.7235C14.0342 51.6722 14.0614 51.6153 14.1128 51.5972L14.2329 51.555C14.2842 51.5369 14.3411 51.5641 14.3592 51.6155L14.5229 52.0809C14.541 52.1322 14.5138 52.1891 14.4624 52.2072Z" fill="white"/>
<path d="M15.1079 51.3525C15.1386 51.3246 15.1515 51.2799 15.1368 51.2384C15.1174 51.1832 15.0562 51.1539 15.0011 51.1733L14.7155 51.2738C14.714 51.252 14.733 51.1493 14.7374 51.1131C14.7412 51.082 14.7341 51.0496 14.7236 51.0201C14.7105 50.983 14.6895 50.9485 14.6623 50.9198C14.6251 50.8805 14.5737 50.8439 14.5192 50.875C14.4708 50.9026 14.457 50.9708 14.4925 51.0141C14.4925 51.0141 14.5177 51.0467 14.5201 51.0609C14.5235 51.079 14.5095 51.1155 14.4937 51.1626C14.4619 51.2568 14.4213 51.3821 14.4138 51.4255C14.4053 51.4755 14.4062 51.5113 14.4155 51.5491C14.4157 51.5567 14.417 51.5643 14.4197 51.5719L14.5689 51.9962C14.5828 52.0353 14.6259 52.0561 14.665 52.0423L15.1671 51.8671C15.2184 51.8491 15.2454 51.7924 15.2275 51.7412C15.2201 51.7203 15.2064 51.7036 15.1893 51.6921C15.2192 51.6664 15.2319 51.6239 15.2181 51.5847C15.2098 51.5613 15.1934 51.543 15.1733 51.5316C15.1999 51.5035 15.2104 51.4618 15.1968 51.4229C15.1827 51.3832 15.1473 51.357 15.1079 51.3525Z" fill="white"/>
<circle cx="24.5497" cy="52.8325" r="2.19397" transform="rotate(15.4975 24.5497 52.8325)" fill="#4048FF"/>
<path d="M24.291 53.7165L24.1123 53.7793C24.0358 53.8063 23.9512 53.7657 23.9243 53.6893L23.6806 52.9966C23.6537 52.9201 23.6943 52.8355 23.7707 52.8085L23.9494 52.7457C24.0258 52.7188 24.1105 52.7593 24.1374 52.8358L24.3811 53.5285C24.408 53.6049 24.3676 53.6896 24.291 53.7165Z" fill="white"/>
<path d="M25.2514 52.4439C25.297 52.4024 25.3163 52.3358 25.2944 52.2741C25.2655 52.1919 25.1745 52.1483 25.0925 52.1772L24.6674 52.3267C24.6651 52.2944 24.6934 52.1415 24.6999 52.0876C24.7055 52.0412 24.6951 51.9931 24.6794 51.9492C24.66 51.8939 24.6286 51.8426 24.5881 51.7999C24.5328 51.7414 24.4562 51.6869 24.3752 51.7331C24.3032 51.7743 24.2826 51.8757 24.3354 51.9402C24.3354 51.9402 24.3729 51.9888 24.3766 52.0099C24.3816 52.0368 24.3607 52.0911 24.3372 52.1613C24.29 52.3015 24.2295 52.4879 24.2184 52.5525C24.2057 52.6269 24.207 52.6803 24.2208 52.7365C24.2211 52.7478 24.2231 52.7592 24.2271 52.7704L24.4492 53.402C24.4698 53.4602 24.534 53.4911 24.5922 53.4706L25.3395 53.2098C25.4158 53.183 25.456 53.0987 25.4294 53.0224C25.4184 52.9914 25.398 52.9665 25.3725 52.9494C25.4171 52.9111 25.436 52.8479 25.4155 52.7895C25.4031 52.7546 25.3787 52.7274 25.3487 52.7105C25.3883 52.6686 25.404 52.6066 25.3837 52.5487C25.3627 52.4895 25.31 52.4506 25.2514 52.4439Z" fill="white"/>
<circle cx="18.6855" cy="48.1804" r="0.911389" transform="rotate(15.4975 18.6855 48.1804)" fill="#4048FF"/>
<path d="M18.5794 48.5481L18.5051 48.5742C18.4734 48.5854 18.4382 48.5685 18.427 48.5368L18.3258 48.249C18.3146 48.2173 18.3315 48.1821 18.3632 48.1709L18.4375 48.1448C18.4692 48.1336 18.5044 48.1505 18.5156 48.1822L18.6168 48.47C18.628 48.5017 18.6112 48.5369 18.5794 48.5481Z" fill="white"/>
<path d="M18.9787 48.02C18.9977 48.0028 19.0057 47.9751 18.9966 47.9495C18.9846 47.9153 18.9468 47.8972 18.9127 47.9092L18.7362 47.9714C18.7352 47.9579 18.747 47.8944 18.7497 47.872C18.752 47.8527 18.7477 47.8328 18.7412 47.8145C18.7331 47.7916 18.7201 47.7703 18.7032 47.7525C18.6803 47.7282 18.6484 47.7055 18.6148 47.7248C18.5849 47.7419 18.5763 47.784 18.5983 47.8108C18.5983 47.8108 18.6138 47.831 18.6153 47.8398C18.6174 47.8509 18.6087 47.8735 18.599 47.9026C18.5794 47.9609 18.5542 48.0383 18.5496 48.0651C18.5444 48.0961 18.5449 48.1182 18.5507 48.1416C18.5508 48.1463 18.5516 48.151 18.5533 48.1557L18.6455 48.418C18.6541 48.4422 18.6808 48.455 18.7049 48.4465L19.0153 48.3382C19.0471 48.327 19.0638 48.292 19.0527 48.2603C19.0481 48.2474 19.0397 48.2371 19.0291 48.23C19.0476 48.2141 19.0554 48.1878 19.0469 48.1636C19.0418 48.1491 19.0316 48.1378 19.0192 48.1308C19.0356 48.1134 19.0421 48.0876 19.0337 48.0636C19.025 48.039 19.0031 48.0228 18.9787 48.02Z" fill="white"/>
<circle cx="12.514" cy="38.1493" r="1.13903" transform="rotate(15.4975 12.514 38.1493)" fill="#4048FF"/>
<path d="M12.3784 38.6079L12.2857 38.6405C12.246 38.6545 12.202 38.6335 12.1881 38.5938L12.0616 38.2342C12.0476 38.1945 12.0686 38.1505 12.1083 38.1365L12.2011 38.1039C12.2408 38.0899 12.2847 38.111 12.2987 38.1507L12.4252 38.5103C12.4392 38.55 12.4182 38.594 12.3784 38.6079Z" fill="white"/>
<path d="M12.877 37.9474C12.9007 37.9258 12.9107 37.8913 12.8994 37.8593C12.8844 37.8165 12.8371 37.7939 12.7945 37.8089L12.5738 37.8866C12.5727 37.8698 12.5874 37.7904 12.5907 37.7624C12.5937 37.7383 12.5882 37.7133 12.5801 37.6905C12.57 37.6618 12.5537 37.6352 12.5327 37.613C12.504 37.5827 12.4642 37.5544 12.4222 37.5784C12.3848 37.5997 12.3741 37.6524 12.4015 37.6859C12.4015 37.6859 12.421 37.7111 12.4229 37.7221C12.4255 37.7361 12.4146 37.7642 12.4024 37.8007C12.3779 37.8735 12.3465 37.9703 12.3407 38.0038C12.3341 38.0424 12.3348 38.0701 12.342 38.0993C12.3421 38.1052 12.3432 38.1111 12.3453 38.1169L12.4605 38.4448C12.4713 38.475 12.5046 38.4911 12.5348 38.4804L12.9228 38.345C12.9624 38.3311 12.9833 38.2873 12.9695 38.2477C12.9637 38.2316 12.9532 38.2187 12.9399 38.2098C12.9631 38.1899 12.9729 38.1571 12.9622 38.1268C12.9558 38.1087 12.9431 38.0946 12.9276 38.0858C12.9481 38.064 12.9563 38.0319 12.9457 38.0018C12.9348 37.9711 12.9075 37.9509 12.877 37.9474Z" fill="white"/>
<path d="M16.6979 44.7188L16.6068 44.7509C16.5678 44.7646 16.5246 44.7439 16.5108 44.7049L16.3865 44.3516C16.3728 44.3125 16.3935 44.2694 16.4325 44.2556L16.5236 44.2236C16.5627 44.2098 16.6058 44.2305 16.6196 44.2695L16.7439 44.6229C16.7576 44.6619 16.737 44.7051 16.6979 44.7188Z" fill="white"/>
<path d="M17.1884 44.0697C17.2117 44.0485 17.2215 44.0145 17.2103 43.983C17.1956 43.9411 17.1491 43.9188 17.1073 43.9336L16.8905 44.0099C16.8893 43.9934 16.9037 43.9154 16.907 43.8879C16.9099 43.8642 16.9046 43.8397 16.8966 43.8173C16.8867 43.7891 16.8707 43.7629 16.85 43.7411C16.8218 43.7113 16.7827 43.6834 16.7414 43.707C16.7047 43.728 16.6942 43.7798 16.7211 43.8127C16.7211 43.8127 16.7402 43.8375 16.7421 43.8483C16.7446 43.862 16.734 43.8897 16.722 43.9255C16.6979 43.997 16.6671 44.0921 16.6614 44.125C16.6549 44.163 16.6556 44.1902 16.6627 44.2189C16.6628 44.2247 16.6638 44.2305 16.6659 44.2362L16.7791 44.5584C16.7897 44.5881 16.8224 44.6039 16.8521 44.5934L17.2333 44.4603C17.2723 44.4467 17.2928 44.4037 17.2792 44.3648C17.2736 44.3489 17.2632 44.3362 17.2502 44.3275C17.2729 44.308 17.2825 44.2757 17.2721 44.246C17.2658 44.2282 17.2533 44.2143 17.238 44.2056C17.2582 44.1843 17.2662 44.1526 17.2559 44.1231C17.2452 44.0929 17.2183 44.0731 17.1884 44.0697Z" fill="white"/>
<path d="M8.01131 40.7387C8.26516 40.672 8.42135 40.8671 8.47482 40.9499C8.51276 40.8589 8.63214 40.6394 8.89358 40.6603C9.27197 40.6904 9.36405 41.1603 9.05085 41.5279C8.74383 41.8881 8.56487 41.9717 8.56487 41.9717C8.56487 41.9717 8.37539 41.9207 8.00958 41.6203C7.63628 41.3139 7.64422 40.8352 8.01131 40.7387Z" fill="white"/>
<circle cx="22.561" cy="45.6729" r="1.75218" transform="rotate(58.9755 22.561 45.6729)" fill="#FB6C77"/>
<path d="M22.5208 44.9795C22.7509 45.1057 22.73 45.3548 22.7118 45.4517C22.8019 45.4117 23.0396 45.3346 23.2149 45.5297C23.4688 45.8119 23.2122 46.2162 22.7321 46.2674C22.2615 46.3175 22.074 46.2551 22.074 46.2551C22.074 46.2551 21.9716 46.0877 21.9129 45.6181C21.8528 45.1388 22.188 44.7969 22.5208 44.9795Z" fill="white"/>
<circle cx="9.17196" cy="48.6351" r="0.781065" transform="rotate(58.9755 9.17196 48.6351)" fill="#FB6C77"/>
<path d="M9.15374 48.3255C9.2563 48.3818 9.24699 48.4928 9.23888 48.536C9.27908 48.5182 9.385 48.4838 9.46316 48.5707C9.57632 48.6966 9.46197 48.8768 9.24793 48.8996C9.03814 48.922 8.95459 48.8941 8.95459 48.8941C8.95459 48.8941 8.90896 48.8195 8.88275 48.6101C8.856 48.3965 9.0054 48.2441 9.15374 48.3255Z" fill="white"/>
<circle cx="25.1478" cy="42.6847" r="0.781065" transform="rotate(58.9755 25.1478 42.6847)" fill="#FB6C77"/>
<path d="M25.1296 42.375C25.2321 42.4313 25.2228 42.5423 25.2147 42.5855C25.2549 42.5677 25.3608 42.5334 25.439 42.6203C25.5522 42.7461 25.4378 42.9264 25.2238 42.9492C25.014 42.9715 24.9304 42.9437 24.9304 42.9437C24.9304 42.9437 24.8848 42.8691 24.8586 42.6597C24.8318 42.4461 24.9812 42.2937 25.1296 42.375Z" fill="white"/>
<g filter="url(#filter0_f)">
<circle cx="18.4439" cy="40.2031" r="0.778058" transform="rotate(31.0419 18.4439 40.2031)" fill="#FB6C77"/>
<path d="M18.2829 39.9398C18.3994 39.9415 18.443 40.0435 18.456 40.0853C18.4831 40.0509 18.5603 39.9712 18.6697 40.0112C18.828 40.0692 18.8114 40.2811 18.6337 40.4011C18.4595 40.5187 18.373 40.5332 18.373 40.5332C18.373 40.5332 18.298 40.4888 18.1772 40.3168C18.054 40.1412 18.1144 39.9374 18.2829 39.9398Z" fill="white"/>
</g>
<circle cx="44.5617" cy="58.0175" r="1.11924" transform="rotate(15.4975 44.5617 58.0175)" fill="#4048FF"/>
<circle cx="36.1788" cy="54.9848" r="1.75218" transform="rotate(15.4975 36.1788 54.9848)" fill="#FB6C77"/>
<circle cx="39.9229" cy="58.4602" r="1.80999" transform="rotate(15.4975 39.9229 58.4602)" fill="#4048FF"/>
<path d="M39.7084 59.1895L39.561 59.2413C39.4979 59.2635 39.4281 59.2301 39.4059 59.167L39.2049 58.5956C39.1827 58.5325 39.2161 58.4626 39.2792 58.4404L39.4266 58.3886C39.4897 58.3664 39.5595 58.3998 39.5817 58.4629L39.7827 59.0344C39.8049 59.0974 39.7716 59.1673 39.7084 59.1895Z" fill="white"/>
<path d="M40.5018 58.14C40.5394 58.1057 40.5553 58.0508 40.5373 58C40.5134 57.9321 40.4383 57.8961 40.3707 57.92L40.02 58.0433C40.0181 58.0166 40.0414 57.8905 40.0468 57.846C40.0514 57.8078 40.0428 57.7681 40.0299 57.7319C40.0139 57.6863 39.988 57.644 39.9546 57.6087C39.909 57.5605 39.8458 57.5155 39.779 57.5536C39.7195 57.5876 39.7025 57.6713 39.7461 57.7245C39.7461 57.7245 39.777 57.7646 39.7801 57.782C39.7842 57.8042 39.7669 57.849 39.7476 57.9069C39.7086 58.0225 39.6587 58.1763 39.6495 58.2296C39.6391 58.291 39.6402 58.335 39.6516 58.3814C39.6518 58.3907 39.6534 58.4001 39.6567 58.4094L39.8399 58.9304C39.857 58.9784 39.91 59.0039 39.958 58.987L40.5744 58.7718C40.6374 58.7497 40.6706 58.6802 40.6486 58.6173C40.6395 58.5916 40.6227 58.5711 40.6017 58.557C40.6385 58.5254 40.654 58.4733 40.6371 58.4252C40.6269 58.3964 40.6068 58.3739 40.582 58.3599C40.6147 58.3254 40.6277 58.2742 40.6109 58.2265C40.5936 58.1777 40.5502 58.1456 40.5018 58.14Z" fill="white"/>
<circle cx="42.3677" cy="65.3624" r="1.47405" transform="rotate(15.4975 42.3677 65.3624)" fill="#4048FF"/>
<path d="M42.1936 65.957L42.0735 65.9992C42.0221 66.0173 41.9653 65.99 41.9472 65.9387L41.7835 65.4733C41.7654 65.4219 41.7926 65.365 41.844 65.3469L41.9641 65.3047C42.0154 65.2866 42.0723 65.3139 42.0904 65.3652L42.2541 65.8306C42.2722 65.882 42.245 65.9389 42.1936 65.957Z" fill="white"/>
<path d="M42.8391 65.1023C42.8698 65.0744 42.8827 65.0296 42.868 64.9882C42.8486 64.9329 42.7874 64.9036 42.7323 64.9231L42.4467 65.0235C42.4452 65.0018 42.4642 64.8991 42.4686 64.8628C42.4724 64.8317 42.4653 64.7994 42.4548 64.7699C42.4417 64.7327 42.4207 64.6983 42.3935 64.6696C42.3563 64.6303 42.3049 64.5936 42.2504 64.6247C42.202 64.6524 42.1882 64.7205 42.2237 64.7639C42.2237 64.7639 42.2489 64.7965 42.2513 64.8107C42.2547 64.8288 42.2407 64.8652 42.2249 64.9124C42.1931 65.0066 42.1525 65.1318 42.1451 65.1752C42.1365 65.2252 42.1374 65.2611 42.1467 65.2988C42.1469 65.3064 42.1482 65.3141 42.1509 65.3216L42.3001 65.746C42.314 65.7851 42.3571 65.8058 42.3962 65.792L42.8983 65.6168C42.9496 65.5988 42.9766 65.5422 42.9587 65.4909C42.9513 65.4701 42.9376 65.4534 42.9205 65.4419C42.9504 65.4161 42.9631 65.3737 42.9493 65.3345C42.941 65.311 42.9246 65.2927 42.9045 65.2814C42.9311 65.2532 42.9416 65.2116 42.928 65.1727C42.9139 65.1329 42.8785 65.1068 42.8391 65.1023Z" fill="white"/>
<circle cx="52.2809" cy="66.5815" r="2.19397" transform="rotate(15.4975 52.2809 66.5815)" fill="#4048FF"/>
<path d="M52.0227 67.4653L51.844 67.5281C51.7675 67.555 51.6829 67.5145 51.656 67.438L51.4123 66.7454C51.3854 66.6689 51.4259 66.5842 51.5024 66.5573L51.6811 66.4945C51.7575 66.4676 51.8422 66.5081 51.8691 66.5846L52.1128 67.2772C52.1397 67.3537 52.0993 67.4384 52.0227 67.4653Z" fill="white"/>
<path d="M52.9828 66.193C53.0285 66.1514 53.0477 66.0848 53.0259 66.0232C52.9969 65.9409 52.9059 65.8973 52.8239 65.9262L52.3988 66.0757C52.3966 66.0434 52.4249 65.8905 52.4313 65.8366C52.437 65.7902 52.4265 65.7421 52.4109 65.6982C52.3914 65.6429 52.3601 65.5917 52.3196 65.5489C52.2643 65.4904 52.1877 65.4359 52.1067 65.4821C52.0347 65.5233 52.014 65.6248 52.0669 65.6892C52.0669 65.6892 52.1043 65.7378 52.108 65.759C52.113 65.7859 52.0921 65.8401 52.0686 65.9103C52.0214 66.0505 51.9609 66.237 51.9498 66.3015C51.9371 66.3759 51.9385 66.4293 51.9523 66.4855C51.9525 66.4968 51.9545 66.5082 51.9585 66.5194L52.1806 67.151C52.2013 67.2092 52.2655 67.2401 52.3236 67.2196L53.0709 66.9588C53.1472 66.932 53.1875 66.8477 53.1608 66.7714C53.1498 66.7404 53.1295 66.7155 53.104 66.6984C53.1485 66.6601 53.1674 66.5969 53.1469 66.5386C53.1346 66.5037 53.1101 66.4764 53.0801 66.4595C53.1197 66.4176 53.1354 66.3556 53.1152 66.2977C53.0941 66.2386 53.0415 66.1997 52.9828 66.193Z" fill="white"/>
<circle cx="46.417" cy="61.9296" r="0.911389" transform="rotate(15.4975 46.417 61.9296)" fill="#4048FF"/>
<path d="M46.3098 62.2966L46.2356 62.3227C46.2038 62.3339 46.1687 62.3171 46.1575 62.2853L46.0563 61.9976C46.0451 61.9658 46.0619 61.9306 46.0937 61.9194L46.1679 61.8933C46.1997 61.8822 46.2349 61.899 46.246 61.9308L46.3473 62.2185C46.3584 62.2503 46.3416 62.2854 46.3098 62.2966Z" fill="white"/>
<path d="M46.7092 61.7681C46.7282 61.7508 46.7362 61.7232 46.7271 61.6976C46.7151 61.6634 46.6773 61.6453 46.6432 61.6573L46.4666 61.7194C46.4657 61.706 46.4774 61.6425 46.4801 61.62C46.4825 61.6008 46.4781 61.5808 46.4716 61.5626C46.4635 61.5396 46.4505 61.5183 46.4337 61.5005C46.4107 61.4763 46.3789 61.4536 46.3453 61.4728C46.3153 61.4899 46.3068 61.5321 46.3287 61.5588C46.3287 61.5588 46.3443 61.579 46.3458 61.5878C46.3479 61.599 46.3392 61.6215 46.3295 61.6507C46.3098 61.7089 46.2847 61.7864 46.2801 61.8132C46.2748 61.8441 46.2754 61.8663 46.2811 61.8896C46.2812 61.8943 46.282 61.899 46.2837 61.9037L46.376 62.1661C46.3846 62.1902 46.4112 62.2031 46.4354 62.1946L46.7458 62.0862C46.7775 62.0751 46.7942 62.0401 46.7832 62.0084C46.7786 61.9955 46.7701 61.9852 46.7595 61.9781C46.778 61.9621 46.7859 61.9359 46.7774 61.9117C46.7723 61.8972 46.7621 61.8858 46.7496 61.8788C46.7661 61.8614 46.7726 61.8357 46.7642 61.8116C46.7555 61.787 46.7336 61.7709 46.7092 61.7681Z" fill="white"/>
<circle cx="40.2454" cy="51.8985" r="1.13903" transform="rotate(15.4975 40.2454 51.8985)" fill="#4048FF"/>
<path d="M40.1099 52.3584L40.0171 52.391C39.9774 52.405 39.9335 52.384 39.9195 52.3443L39.793 51.9847C39.779 51.945 39.8001 51.901 39.8398 51.887L39.9325 51.8544C39.9722 51.8404 40.0162 51.8615 40.0302 51.9012L40.1567 52.2608C40.1706 52.3005 40.1496 52.3444 40.1099 52.3584Z" fill="white"/>
<path d="M40.6087 51.6977C40.6324 51.6761 40.6424 51.6415 40.6311 51.6095C40.6161 51.5668 40.5688 51.5442 40.5262 51.5592L40.3055 51.6368C40.3044 51.62 40.319 51.5406 40.3224 51.5126C40.3253 51.4886 40.3199 51.4636 40.3118 51.4408C40.3017 51.4121 40.2854 51.3855 40.2644 51.3633C40.2357 51.3329 40.1959 51.3046 40.1539 51.3286C40.1165 51.35 40.1058 51.4027 40.1332 51.4361C40.1332 51.4361 40.1526 51.4614 40.1545 51.4723C40.1571 51.4863 40.1463 51.5145 40.1341 51.5509C40.1096 51.6237 40.0782 51.7205 40.0724 51.754C40.0658 51.7926 40.0665 51.8204 40.0737 51.8495C40.0738 51.8554 40.0749 51.8613 40.077 51.8671L40.1922 52.195C40.203 52.2252 40.2363 52.2413 40.2665 52.2306L40.6545 52.0952C40.6941 52.0813 40.715 52.0376 40.7011 51.998C40.6954 51.9819 40.6849 51.969 40.6716 51.9601C40.6947 51.9402 40.7046 51.9074 40.6939 51.8771C40.6875 51.859 40.6748 51.8448 40.6592 51.836C40.6798 51.8143 40.6879 51.7821 40.6774 51.752C40.6665 51.7213 40.6392 51.7011 40.6087 51.6977Z" fill="white"/>
<path d="M44.4291 58.4686L44.338 58.5006C44.299 58.5144 44.2558 58.4937 44.242 58.4547L44.1177 58.1013C44.104 58.0623 44.1247 58.0191 44.1637 58.0054L44.2548 57.9733C44.2939 57.9596 44.337 57.9803 44.3508 58.0193L44.4751 58.3726C44.4888 58.4116 44.4682 58.4548 44.4291 58.4686Z" fill="white"/>
<path d="M44.9198 57.8192C44.9431 57.798 44.9529 57.764 44.9418 57.7326C44.927 57.6906 44.8806 57.6683 44.8388 57.6831L44.6219 57.7594C44.6207 57.7429 44.6352 57.6649 44.6385 57.6374C44.6414 57.6137 44.636 57.5892 44.628 57.5668C44.6181 57.5386 44.6021 57.5124 44.5815 57.4906C44.5533 57.4608 44.5142 57.433 44.4729 57.4566C44.4361 57.4775 44.4256 57.5293 44.4526 57.5622C44.4526 57.5622 44.4717 57.587 44.4735 57.5978C44.4761 57.6115 44.4654 57.6392 44.4535 57.675C44.4294 57.7465 44.3985 57.8416 44.3928 57.8746C44.3864 57.9125 44.387 57.9397 44.3941 57.9684C44.3942 57.9742 44.3952 57.98 44.3973 57.9857L44.5106 58.3079C44.5211 58.3376 44.5539 58.3534 44.5836 58.3429L44.9648 58.2098C45.0037 58.1962 45.0242 58.1532 45.0106 58.1143C45.005 58.0984 44.9946 58.0858 44.9816 58.077C45.0043 58.0575 45.014 58.0252 45.0035 57.9955C44.9972 57.9777 44.9848 57.9638 44.9695 57.9551C44.9897 57.9338 44.9977 57.9021 44.9873 57.8726C44.9766 57.8424 44.9498 57.8226 44.9198 57.8192Z" fill="white"/>
<path d="M35.7423 54.4882C35.9961 54.4215 36.1523 54.6166 36.2058 54.6994C36.2437 54.6084 36.3631 54.3889 36.6245 54.4098C37.0029 54.4399 37.095 54.9098 36.7818 55.2774C36.4748 55.6376 36.2958 55.7212 36.2958 55.7212C36.2958 55.7212 36.1064 55.6702 35.7405 55.3699C35.3672 55.0634 35.3752 54.5847 35.7423 54.4882Z" fill="white"/>
<circle cx="50.2917" cy="59.4219" r="1.75218" transform="rotate(58.9755 50.2917 59.4219)" fill="#FB6C77"/>
<path d="M50.2517 58.7285C50.4818 58.8548 50.4609 59.1038 50.4427 59.2007C50.5329 59.1607 50.7705 59.0837 50.9459 59.2787C51.1997 59.5609 50.9432 59.9652 50.463 60.0164C49.9924 60.0666 49.805 60.0041 49.805 60.0041C49.805 60.0041 49.7026 59.8367 49.6438 59.3671C49.5838 58.8878 49.919 58.5459 50.2517 58.7285Z" fill="white"/>
<circle cx="36.9027" cy="62.3846" r="0.781065" transform="rotate(58.9755 36.9027 62.3846)" fill="#FB6C77"/>
<path d="M36.8847 62.075C36.9873 62.1313 36.978 62.2423 36.9698 62.2855C37.01 62.2677 37.116 62.2333 37.1941 62.3203C37.3073 62.4461 37.1929 62.6263 36.9789 62.6491C36.7691 62.6715 36.6855 62.6436 36.6855 62.6436C36.6855 62.6436 36.6399 62.569 36.6137 62.3597C36.587 62.146 36.7364 61.9936 36.8847 62.075Z" fill="white"/>
<circle cx="52.879" cy="56.4332" r="0.781065" transform="rotate(58.9755 52.879 56.4332)" fill="#FB6C77"/>
<path d="M52.8605 56.1243C52.9631 56.1806 52.9538 56.2916 52.9457 56.3348C52.9859 56.317 53.0918 56.2826 53.1699 56.3696C53.2831 56.4954 53.1688 56.6756 52.9547 56.6984C52.7449 56.7208 52.6614 56.693 52.6614 56.693C52.6614 56.693 52.6157 56.6183 52.5895 56.409C52.5628 56.1953 52.7122 56.0429 52.8605 56.1243Z" fill="white"/>
<g filter="url(#filter1_f)">
<circle cx="46.1748" cy="53.9524" r="0.778058" transform="rotate(31.0419 46.1748 53.9524)" fill="#FB6C77"/>
<path d="M46.0139 53.689C46.1304 53.6907 46.174 53.7928 46.187 53.8346C46.2141 53.8001 46.2913 53.7205 46.4006 53.7605C46.5589 53.8184 46.5424 54.0304 46.3647 54.1504C46.1905 54.2679 46.1039 54.2824 46.1039 54.2824C46.1039 54.2824 46.0289 54.2381 45.9082 54.066C45.785 53.8905 45.8453 53.6866 46.0139 53.689Z" fill="white"/>
</g>
</g>
<defs>
<filter id="filter0_f" x="17.2314" y="38.9907" width="2.42477" height="2.42477" filterUnits="userSpaceOnUse" color-interpolation-filters="sRGB">
<feFlood flood-opacity="0" result="BackgroundImageFix"/>
<feBlend mode="normal" in="SourceGraphic" in2="BackgroundImageFix" result="shape"/>
<feGaussianBlur stdDeviation="0.0722665" result="effect1_foregroundBlur"/>
</filter>
<filter id="filter1_f" x="44.9624" y="52.74" width="2.42477" height="2.42477" filterUnits="userSpaceOnUse" color-interpolation-filters="sRGB">
<feFlood flood-opacity="0" result="BackgroundImageFix"/>
<feBlend mode="normal" in="SourceGraphic" in2="BackgroundImageFix" result="shape"/>
<feGaussianBlur stdDeviation="0.0722665" result="effect1_foregroundBlur"/>
</filter>
<linearGradient id="paint0_linear" x1="39.6372" y1="36.0361" x2="25.2315" y2="56.8084" gradientUnits="userSpaceOnUse">
<stop stop-color="#DB2026"/>
<stop offset="0.505208" stop-color="#4080FF"/>
<stop offset="1" stop-color="#DB2026" stop-opacity="0"/>
</linearGradient>
<linearGradient id="paint1_linear" x1="20.0612" y1="41.5095" x2="50.9575" y2="40.9943" gradientUnits="userSpaceOnUse">
<stop stop-color="#0B1D69"/>
<stop offset="1" stop-color="#4080FF"/>
</linearGradient>
<linearGradient id="paint2_linear" x1="34.5837" y1="33.9921" x2="48.3115" y2="39.9279" gradientUnits="userSpaceOnUse">
<stop stop-color="#0B1D69"/>
<stop offset="1" stop-color="#4080FF"/>
</linearGradient>
<linearGradient id="paint3_linear" x1="52.2435" y1="5.80845" x2="70.482" y2="14.3364" gradientUnits="userSpaceOnUse">
<stop stop-color="#0B1D69"/>
<stop offset="1" stop-color="#4080FF"/>
</linearGradient>
<linearGradient id="paint4_linear" x1="47.1782" y1="20.5061" x2="55.5614" y2="24.4367" gradientUnits="userSpaceOnUse">
<stop stop-color="#0B1D69"/>
<stop offset="1" stop-color="#4080FF"/>
</linearGradient>
<linearGradient id="paint5_linear" x1="45.8585" y1="41.3182" x2="51.3481" y2="44.3599" gradientUnits="userSpaceOnUse">
<stop stop-color="#0B1D69"/>
<stop offset="1" stop-color="#4080FF"/>
</linearGradient>
<linearGradient id="paint6_linear" x1="29.901" y1="30.4264" x2="37.2666" y2="34.4433" gradientUnits="userSpaceOnUse">
<stop stop-color="#0B1D69"/>
<stop offset="1" stop-color="#4080FF"/>
</linearGradient>
</defs>
</svg>
