<svg width="27" height="27" viewBox="0 0 27 27" fill="none" xmlns="http://www.w3.org/2000/svg">
<path d="M9.31533 14.0803C10.0847 14.0803 10.8225 14.3859 11.3665 14.9299C11.9105 15.4739 12.2161 16.2117 12.2161 16.981V22.7826C12.2161 23.5519 11.9105 24.2898 11.3665 24.8338C10.8225 25.3778 10.0847 25.6834 9.31533 25.6834H3.51376C2.74442 25.6834 2.0066 25.3778 1.4626 24.8338C0.918594 24.2898 0.612976 23.5519 0.612976 22.7826V16.981C0.612976 16.2117 0.918594 15.4739 1.4626 14.9299C2.0066 14.3859 2.74442 14.0803 3.51376 14.0803H9.31533ZM9.31533 16.4009H3.51376C3.35989 16.4009 3.21233 16.462 3.10353 16.5708C2.99473 16.6796 2.9336 16.8272 2.9336 16.981V22.7826C2.9336 22.9365 2.99473 23.084 3.10353 23.1928C3.21233 23.3016 3.35989 23.3628 3.51376 23.3628H9.31533C9.4692 23.3628 9.61676 23.3016 9.72556 23.1928C9.83436 23.084 9.89549 22.9365 9.89549 22.7826V16.981C9.89549 16.8272 9.83436 16.6796 9.72556 16.5708C9.61676 16.462 9.4692 16.4009 9.31533 16.4009ZM8.44509 17.8513V21.9124H4.384V17.8513H8.44509ZM9.31533 0.156494C10.0847 0.156494 10.8225 0.462112 11.3665 1.00611C11.9105 1.55012 12.2161 2.28794 12.2161 3.05728V8.85885C12.2161 9.62818 11.9105 10.366 11.3665 10.91C10.8225 11.454 10.0847 11.7596 9.31533 11.7596H3.51376C2.74442 11.7596 2.0066 11.454 1.4626 10.91C0.918594 10.366 0.612976 9.62818 0.612976 8.85885V3.05728C0.612976 2.28794 0.918594 1.55012 1.4626 1.00611C2.0066 0.462112 2.74442 0.156494 3.51376 0.156494H9.31533ZM23.2391 0.156494C24.0084 0.156494 24.7463 0.462112 25.2903 1.00611C25.8343 1.55012 26.1399 2.28794 26.1399 3.05728V8.85885C26.1399 9.62818 25.8343 10.366 25.2903 10.91C24.7463 11.454 24.0084 11.7596 23.2391 11.7596H17.4375C16.6682 11.7596 15.9304 11.454 15.3864 10.91C14.8424 10.366 14.5367 9.62818 14.5367 8.85885V3.05728C14.5367 2.28794 14.8424 1.55012 15.3864 1.00611C15.9304 0.462112 16.6682 0.156494 17.4375 0.156494H23.2391ZM9.31533 2.47712H3.51376C3.35989 2.47712 3.21233 2.53825 3.10353 2.64705C2.99473 2.75585 2.9336 2.90341 2.9336 3.05728V8.85885C2.9336 9.01271 2.99473 9.16028 3.10353 9.26908C3.21233 9.37788 3.35989 9.439 3.51376 9.439H9.31533C9.4692 9.439 9.61676 9.37788 9.72556 9.26908C9.83436 9.16028 9.89549 9.01271 9.89549 8.85885V3.05728C9.89549 2.90341 9.83436 2.75585 9.72556 2.64705C9.61676 2.53825 9.4692 2.47712 9.31533 2.47712ZM23.2391 2.47712H17.4375C17.2837 2.47712 17.1361 2.53825 17.0273 2.64705C16.9185 2.75585 16.8574 2.90341 16.8574 3.05728V8.85885C16.8574 9.01271 16.9185 9.16028 17.0273 9.26908C17.1361 9.37788 17.2837 9.439 17.4375 9.439H23.2391C23.393 9.439 23.5405 9.37788 23.6493 9.26908C23.7581 9.16028 23.8193 9.01271 23.8193 8.85885V3.05728C23.8193 2.90341 23.7581 2.75585 23.6493 2.64705C23.5405 2.53825 23.393 2.47712 23.2391 2.47712ZM22.3689 3.92751V7.98861H18.3078V3.92751H22.3689ZM8.44161 3.93099V7.98629H4.38748V3.93099H8.44161Z" fill="#F6F6FF"/>
<path d="M19.565 15.3936C20.1482 15.5408 20.7588 15.5407 21.342 15.3935L24.4298 14.6138C25.4303 14.3612 26.2676 15.3963 25.8116 16.3219L21.5387 24.9943C21.0951 25.8945 19.8116 25.8947 19.3679 24.9945L15.0925 16.3219C14.6362 15.3964 15.4734 14.3611 16.4739 14.6136L19.565 15.3936Z" fill="#F6F6FF"/>
</svg>
