<svg width="80" height="80" viewBox="0 0 80 80" fill="none" xmlns="http://www.w3.org/2000/svg">
<mask id="mask0" mask-type="alpha" maskUnits="userSpaceOnUse" x="0" y="0" width="80" height="80">
<rect width="80" height="80" fill="#C4C4C4"/>
</mask>
<g mask="url(#mask0)">
<circle cx="41.6918" cy="40.4352" r="29.4352" fill="url(#paint0_linear)"/>
<path d="M6.93213 55.6354C6.93213 54.7986 7.61049 54.1202 8.4473 54.1202H73.3826C74.2194 54.1202 74.8978 54.7986 74.8978 55.6354C74.8978 56.4722 74.2194 57.1505 73.3826 57.1505H72.3952C71.7968 57.1505 71.3117 57.6356 71.3117 58.234C71.3117 58.8323 70.8267 59.3174 70.2283 59.3174H62.1607C61.4229 59.3174 60.8249 59.9155 60.8249 60.6533C60.8249 61.391 60.2268 61.9891 59.489 61.9891H21.9976C21.2599 61.9891 20.6618 61.391 20.6618 60.6533C20.6618 59.9155 20.0637 59.3174 19.3259 59.3174H11.7749C11.1765 59.3174 10.6915 58.8323 10.6915 58.234C10.6915 57.6356 10.2064 57.1505 9.60802 57.1505H8.44729C7.61049 57.1505 6.93213 56.4722 6.93213 55.6354Z" fill="#1F2337" fill-opacity="0.8"/>
<path d="M17.9279 54.1892H17.93V52.729C17.93 51.9429 15.0356 51.3056 11.4651 51.3056C7.89454 51.3056 5.00012 51.9429 5.00012 52.729V54.1892H5.00222C5.0907 54.9584 7.95034 55.5759 11.4651 55.5759C14.9798 55.5759 17.8394 54.9584 17.9279 54.1892Z" fill="#FFA318"/>
<path d="M5.01074 52.7292H5V54.1894H5.0021C5.09058 54.9586 7.95022 55.5761 11.4649 55.5761C14.9797 55.5761 17.8393 54.9586 17.9278 54.1894H17.9299V52.7292H17.9191C17.7249 53.4769 14.9096 54.0701 11.4649 54.0701C8.02026 54.0701 5.20498 53.4769 5.01074 52.7292Z" fill="url(#paint1_linear)"/>
<path fill-rule="evenodd" clip-rule="evenodd" d="M5.23938 53.0381V54.5441C5.32194 54.6078 5.42416 54.6697 5.54448 54.7294V53.2234C5.42415 53.1637 5.32194 53.1018 5.23938 53.0381ZM5.87701 53.366V54.8721C5.972 54.9077 6.07383 54.9424 6.18211 54.9759V53.4699C6.07383 53.4363 5.972 53.4017 5.87701 53.366ZM6.52318 53.5666V55.0726C6.62097 55.098 6.72275 55.1227 6.82828 55.1465V53.6405C6.72275 53.6167 6.62097 53.592 6.52318 53.5666ZM7.16103 53.7105V55.2165C7.26005 55.2359 7.3618 55.2546 7.46614 55.2727V53.7667C7.3618 53.7486 7.26005 53.7299 7.16103 53.7105ZM7.79944 53.8206V55.3266C7.89916 55.3417 8.0009 55.3562 8.10455 55.3701V53.8641C8.0009 53.8502 7.89916 53.8357 7.79944 53.8206ZM8.44506 53.9066V55.4126C8.54523 55.4242 8.64696 55.4353 8.75016 55.4458V53.9398C8.64696 53.9293 8.54523 53.9182 8.44506 53.9066ZM9.08347 53.9712V55.4772C9.18396 55.4859 9.28569 55.4941 9.38857 55.5017V53.9957C9.28569 53.9881 9.18396 53.9799 9.08347 53.9712ZM9.72132 54.0183V55.5243C9.82206 55.5304 9.92378 55.5361 10.0264 55.5412V54.0352C9.92378 54.0301 9.82206 54.0244 9.72132 54.0183ZM10.3675 54.05V55.556C10.4684 55.5598 10.5701 55.563 10.6726 55.5658V54.0598C10.5701 54.057 10.4684 54.0538 10.3675 54.05ZM11.0053 54.0667V55.5727C11.1064 55.5742 11.2081 55.5753 11.3105 55.5758V54.0698C11.2081 54.0693 11.1064 54.0683 11.0053 54.0667ZM11.6432 54.0696V55.5755C11.7455 55.5749 11.8472 55.5737 11.9483 55.5721V54.0661C11.8472 54.0678 11.7455 54.0689 11.6432 54.0696ZM12.2894 54.0584V55.5644C12.3918 55.5615 12.4936 55.5581 12.5945 55.5542V54.0482C12.4936 54.0521 12.3918 54.0555 12.2894 54.0584ZM12.9272 54.0332V55.5392C13.0299 55.5339 13.1316 55.5281 13.2323 55.5218V54.0158C13.1316 54.0221 13.0299 54.0279 12.9272 54.0332ZM13.5656 53.9927V55.4987C13.6685 55.4909 13.7703 55.4825 13.8707 55.4736V53.9676C13.7703 53.9765 13.6685 53.9849 13.5656 53.9927ZM14.2113 53.9349V55.4408C14.3145 55.4301 14.4162 55.4188 14.5164 55.407V53.901C14.4162 53.9128 14.3145 53.9241 14.2113 53.9349ZM14.8497 53.8586V55.3646C14.9533 55.3505 15.0551 55.3358 15.1548 55.3204V53.8144C15.0551 53.8298 14.9533 53.8445 14.8497 53.8586ZM15.4875 53.7597V55.2657C15.5919 55.2473 15.6937 55.2283 15.7926 55.2086V53.7026C15.6937 53.7223 15.5919 53.7413 15.4875 53.7597ZM16.1331 53.6296V55.1356C16.2388 55.1112 16.3406 55.0861 16.4382 55.0601V53.5541C16.3406 53.58 16.2388 53.6052 16.1331 53.6296ZM16.7715 53.4574V54.9634C16.8801 54.929 16.982 54.8934 17.0766 54.8569V53.3508C16.982 53.3874 16.8801 53.4229 16.7715 53.4574ZM17.4094 53.203V54.709C17.5321 54.6455 17.6344 54.5796 17.7145 54.5117V53.0123H17.7065C17.6276 53.0779 17.528 53.1415 17.4094 53.203Z" fill="#FF9211"/>
<g style="mix-blend-mode:multiply">
<path fill-rule="evenodd" clip-rule="evenodd" d="M16.8835 52.8528C16.9193 52.8014 16.9378 52.7488 16.9378 52.6954C16.9378 52.0814 14.4943 51.5838 11.4801 51.5838C8.46594 51.5838 6.02246 52.0814 6.02246 52.6954C6.02246 52.7489 6.04102 52.8015 6.07689 52.853C6.45234 52.3136 8.72845 51.8988 11.4802 51.8988C14.2318 51.8988 16.5077 52.3135 16.8835 52.8528Z" fill="#FFC177"/>
</g>
<path d="M16.8902 52.6964C16.8902 52.7568 16.8604 52.8207 16.7929 52.888C16.7252 52.9553 16.623 53.0225 16.4873 53.0878C16.2161 53.2184 15.8207 53.3373 15.3284 53.4375C14.3446 53.6379 12.9834 53.7622 11.4784 53.7622C9.97344 53.7622 8.61224 53.6379 7.62842 53.4375C7.13613 53.3373 6.74074 53.2184 6.46954 53.0878C6.33383 53.0225 6.23163 52.9553 6.16398 52.888C6.09644 52.8207 6.0666 52.7568 6.0666 52.6964C6.0666 52.636 6.09644 52.5721 6.16398 52.5049C6.23163 52.4375 6.33383 52.3704 6.46954 52.305C6.74074 52.1744 7.13613 52.0556 7.62842 51.9553C8.61224 51.7549 9.97344 51.6306 11.4784 51.6306C12.9834 51.6306 14.3446 51.7549 15.3284 51.9553C15.8207 52.0556 16.2161 52.1744 16.4873 52.305C16.623 52.3704 16.7252 52.4375 16.7929 52.5049C16.8604 52.5721 16.8902 52.636 16.8902 52.6964Z" stroke="#FFC177" stroke-width="0.0917006"/>
<g style="mix-blend-mode:multiply" opacity="0.5">
<ellipse cx="11.4908" cy="52.697" rx="6.46495" ry="1.42341" fill="#FF981D"/>
</g>
<path d="M18.6464 52.4216H18.6485V50.9614C18.6485 50.1753 15.7541 49.538 12.1836 49.538C8.61305 49.538 5.71863 50.1753 5.71863 50.9614V52.4216H5.72073C5.80921 53.1907 8.66885 53.8082 12.1836 53.8082C15.6983 53.8082 18.5579 53.1907 18.6464 52.4216Z" fill="#FFA318"/>
<path d="M5.73059 50.9616H5.71985V52.4217H5.72195C5.81043 53.1909 8.67007 53.8084 12.1848 53.8084C15.6995 53.8084 18.5591 53.1909 18.6476 52.4217H18.6497V50.9616H18.639C18.4448 51.7093 15.6295 52.3024 12.1848 52.3024C8.74011 52.3024 5.92483 51.7093 5.73059 50.9616Z" fill="url(#paint2_linear)"/>
<path fill-rule="evenodd" clip-rule="evenodd" d="M5.97473 51.2692V52.7753C6.05729 52.839 6.1595 52.9009 6.27983 52.9606V51.4546C6.1595 51.3948 6.05729 51.3329 5.97473 51.2692ZM6.6124 51.5973V53.1033C6.70739 53.1389 6.80922 53.1736 6.9175 53.2072V51.7011C6.80922 51.6676 6.70739 51.6329 6.6124 51.5973ZM7.25857 51.7978V53.3039C7.35636 53.3293 7.45814 53.3539 7.56367 53.3777V51.8717C7.45814 51.8479 7.35636 51.8232 7.25857 51.7978ZM7.89642 51.9417V53.4477C7.99545 53.4671 8.09719 53.4858 8.20153 53.5039V51.9979C8.09719 51.9798 7.99545 51.9611 7.89642 51.9417ZM8.53483 52.0519V53.5579C8.63455 53.5729 8.73629 53.5874 8.83994 53.6013V52.0953C8.73629 52.0814 8.63455 52.0669 8.53483 52.0519ZM9.18045 52.1378V53.6438C9.28062 53.6554 9.38235 53.6665 9.48555 53.677V52.171C9.38235 52.1605 9.28062 52.1494 9.18045 52.1378ZM9.81886 52.2024V53.7084C9.91935 53.7171 10.0211 53.7253 10.124 53.733V52.227C10.0211 52.2193 9.91935 52.2111 9.81886 52.2024ZM10.4567 52.2495V53.7555C10.5574 53.7617 10.6592 53.7673 10.7618 53.7724V52.2664C10.6592 52.2613 10.5574 52.2557 10.4567 52.2495ZM11.1029 52.2813V53.7873C11.2038 53.791 11.3055 53.7943 11.408 53.797V52.291C11.3055 52.2883 11.2038 52.285 11.1029 52.2813ZM11.7407 52.298V53.804C11.8418 53.8055 11.9435 53.8065 12.0458 53.807V52.301C11.9435 52.3005 11.8418 52.2995 11.7407 52.298ZM12.3786 52.3008V53.8068C12.4809 53.8062 12.5826 53.805 12.6837 53.8033V52.2973C12.5826 52.299 12.4809 52.3002 12.3786 52.3008ZM13.0248 52.2897V53.7957C13.1272 53.7928 13.229 53.7894 13.3299 53.7854V52.2794C13.229 52.2834 13.1272 52.2868 13.0248 52.2897ZM13.6626 52.2644V53.7704C13.7653 53.7651 13.867 53.7594 13.9677 53.753V52.247C13.867 52.2534 13.7653 52.2592 13.6626 52.2644ZM14.3005 52.224V53.73C14.4034 53.7222 14.5051 53.7138 14.6056 53.7049V52.1989C14.5051 52.2078 14.4034 52.2162 14.3005 52.224ZM14.9466 52.1661V53.6721C15.0499 53.6614 15.1516 53.6501 15.2517 53.6382V52.1322C15.1516 52.1441 15.0499 52.1554 14.9466 52.1661ZM15.5845 52.0899V53.5959C15.6882 53.5818 15.7899 53.5671 15.8896 53.5518V52.0458C15.7899 52.0611 15.6882 52.0758 15.5845 52.0899ZM16.2229 51.991V53.497C16.3273 53.4786 16.4291 53.4596 16.528 53.4398V51.9338C16.4291 51.9536 16.3273 51.9726 16.2229 51.991ZM16.8685 51.8609V53.3669C16.9742 53.3425 17.076 53.3173 17.1736 53.2914V51.7853C17.076 51.8113 16.9742 51.8365 16.8685 51.8609ZM17.5069 51.6887V53.1947C17.6155 53.1602 17.7173 53.1247 17.812 53.0881V51.5821C17.7173 51.6187 17.6155 51.6542 17.5069 51.6887ZM18.1448 51.4343V52.9403C18.2675 52.8768 18.3698 52.8109 18.4499 52.743V51.2428H18.443C18.3639 51.3086 18.264 51.3726 18.1448 51.4343Z" fill="#FF9211"/>
<g style="mix-blend-mode:multiply">
<path fill-rule="evenodd" clip-rule="evenodd" d="M17.6032 51.0872C17.6391 51.0357 17.6576 50.9831 17.6576 50.9295C17.6576 50.3156 15.2142 49.8179 12.2 49.8179C9.18579 49.8179 6.74231 50.3156 6.74231 50.9295C6.74231 50.9829 6.76081 51.0355 6.79657 51.0869C7.17253 50.5476 9.44837 50.1329 12.1997 50.1329C14.9517 50.1329 17.2279 50.5478 17.6032 51.0872Z" fill="#FFC177"/>
</g>
<path d="M17.6101 50.9288C17.6101 50.9891 17.5802 51.0531 17.5127 51.1203C17.4451 51.1876 17.3429 51.2548 17.2072 51.3202C16.9359 51.4508 16.5406 51.5696 16.0483 51.6699C15.0644 51.8703 13.7032 51.9945 12.1983 51.9945C10.6933 51.9945 9.33209 51.8703 8.34827 51.6699C7.85598 51.5696 7.46059 51.4508 7.18938 51.3202C7.05368 51.2548 6.95148 51.1876 6.88383 51.1203C6.81628 51.0531 6.78645 50.9891 6.78645 50.9288C6.78645 50.8684 6.81628 50.8045 6.88383 50.7372C6.95148 50.6699 7.05368 50.6027 7.18938 50.5374C7.46059 50.4068 7.85598 50.2879 8.34827 50.1877C9.33209 49.9873 10.6933 49.863 12.1983 49.863C13.7032 49.863 15.0644 49.9873 16.0483 50.1877C16.5406 50.2879 16.9359 50.4068 17.2072 50.5374C17.3429 50.6027 17.4451 50.6699 17.5127 50.7372C17.5802 50.8045 17.6101 50.8684 17.6101 50.9288Z" stroke="#FFC177" stroke-width="0.0917006"/>
<g style="mix-blend-mode:multiply" opacity="0.5">
<ellipse cx="12.2085" cy="50.9305" rx="6.46495" ry="1.42341" fill="#FF981D"/>
</g>
<path d="M18.1199 50.7158H18.122V49.2556C18.122 48.4695 15.2276 47.8322 11.6571 47.8322C8.08656 47.8322 5.19214 48.4695 5.19214 49.2556V50.7158H5.19424C5.28272 51.485 8.14236 52.1025 11.6571 52.1025C15.1718 52.1025 18.0314 51.485 18.1199 50.7158Z" fill="#FFA318"/>
<path d="M5.20288 49.2558H5.19214V50.716H5.19424C5.28272 51.4852 8.14236 52.1027 11.6571 52.1027C15.1718 52.1027 18.0314 51.4852 18.1199 50.716H18.122V49.2558H18.1113C17.917 50.0035 15.1018 50.5967 11.6571 50.5967C8.2124 50.5967 5.39712 50.0035 5.20288 49.2558Z" fill="url(#paint3_linear)"/>
<path fill-rule="evenodd" clip-rule="evenodd" d="M5.43384 49.5613V51.0673C5.51624 51.1313 5.61846 51.1935 5.73894 51.2535V49.7474C5.61845 49.6875 5.51623 49.6253 5.43384 49.5613ZM6.07996 49.8937V51.3997C6.17499 51.4352 6.27682 51.4697 6.38506 51.5032V49.9972C6.27682 49.9637 6.17499 49.9292 6.07996 49.8937ZM6.71781 50.0914V51.5975C6.8156 51.6229 6.91738 51.6476 7.02292 51.6714V50.1654C6.91738 50.1415 6.8156 50.1169 6.71781 50.0914ZM7.35567 50.2355V51.7415C7.45469 51.7609 7.55644 51.7797 7.66077 51.7977V50.2917C7.55644 50.2737 7.45469 50.2549 7.35567 50.2355ZM8.00184 50.3469V51.8529C8.10156 51.868 8.2033 51.8824 8.30694 51.8963V50.3903C8.2033 50.3765 8.10156 50.362 8.00184 50.3469ZM8.6397 50.4318V51.9378C8.73987 51.9494 8.8416 51.9605 8.9448 51.971V50.465C8.8416 50.4545 8.73987 50.4434 8.6397 50.4318ZM9.27811 50.4965V52.0025C9.3786 52.0112 9.48032 52.0194 9.58321 52.0271V50.5211C9.48032 50.5134 9.3786 50.5052 9.27811 50.4965ZM9.91596 50.5437V52.0496C10.0167 52.0558 10.1184 52.0615 10.2211 52.0666V50.5606C10.1184 50.5555 10.0167 50.5498 9.91596 50.5437ZM10.5621 50.5755V52.0815C10.6631 52.0852 10.7648 52.0885 10.8672 52.0913V50.5853C10.7648 50.5825 10.6631 50.5793 10.5621 50.5755ZM11.2 50.5922V52.0982C11.3011 52.0998 11.4028 52.1008 11.5051 52.1013V50.5953C11.4028 50.5948 11.3011 50.5938 11.2 50.5922ZM11.8378 50.5951V52.1011C11.9402 52.1005 12.0419 52.0994 12.1429 52.0977V50.5917C12.0419 50.5934 11.9402 50.5945 11.8378 50.5951ZM12.484 50.5841V52.0901C12.5865 52.0872 12.6882 52.0838 12.7891 52.0798V50.5739C12.6882 50.5778 12.5865 50.5812 12.484 50.5841ZM13.1219 50.5589V52.0649C13.2245 52.0596 13.3263 52.0538 13.427 52.0475V50.5415C13.3263 50.5478 13.2245 50.5536 13.1219 50.5589ZM13.7597 50.5185V52.0245C13.8626 52.0167 13.9644 52.0084 14.0648 51.9995V50.4935C13.9644 50.5024 13.8626 50.5107 13.7597 50.5185ZM14.4059 50.4607V51.9667C14.5091 51.956 14.6108 51.9447 14.711 51.9329V50.4269C14.6108 50.4387 14.5091 50.45 14.4059 50.4607ZM15.0437 50.3846V51.8906C15.1474 51.8765 15.2492 51.8618 15.3489 51.8465V50.3405C15.2492 50.3558 15.1474 50.3706 15.0437 50.3846ZM15.6822 50.2858V51.7918C15.7865 51.7734 15.8883 51.7544 15.9873 51.7347V50.2287C15.8883 50.2484 15.7865 50.2674 15.6822 50.2858ZM16.3278 50.1558V51.6618C16.4334 51.6375 16.5352 51.6123 16.6329 51.5864V50.0804C16.5352 50.1063 16.4334 50.1315 16.3278 50.1558ZM16.9662 49.9839V51.4899C17.0747 51.4555 17.1766 51.42 17.2713 51.3835V49.8775C17.1766 49.914 17.0747 49.9495 16.9662 49.9839ZM17.604 49.73V51.2361C17.7265 51.1728 17.8288 51.1072 17.9091 51.0396V49.537H17.9051C17.8254 49.6034 17.7245 49.6678 17.604 49.73Z" fill="#FF9211"/>
<g style="mix-blend-mode:multiply">
<path fill-rule="evenodd" clip-rule="evenodd" d="M17.0762 49.3793C17.112 49.3279 17.1305 49.2753 17.1305 49.2218C17.1305 48.6079 14.6871 48.1102 11.6729 48.1102C8.65869 48.1102 6.21521 48.6079 6.21521 49.2218C6.21521 49.2753 6.23376 49.3279 6.26963 49.3794C6.64511 48.8401 8.92121 48.4253 11.673 48.4253C14.4245 48.4253 16.7005 48.84 17.0762 49.3793Z" fill="#FFC177"/>
</g>
<path d="M17.0825 49.223C17.0825 49.2834 17.0527 49.3473 16.9851 49.4146C16.9175 49.4819 16.8153 49.5491 16.6796 49.6144C16.4084 49.745 16.013 49.8639 15.5207 49.9641C14.5369 50.1645 13.1757 50.2888 11.6707 50.2888C10.1657 50.2888 8.8045 50.1645 7.82068 49.9641C7.32839 49.8639 6.933 49.745 6.6618 49.6144C6.52609 49.5491 6.42389 49.4819 6.35624 49.4146C6.2887 49.3473 6.25886 49.2834 6.25886 49.223C6.25886 49.1626 6.2887 49.0987 6.35624 49.0315C6.42389 48.9641 6.52609 48.897 6.6618 48.8316C6.933 48.701 7.32839 48.5822 7.82068 48.4819C8.8045 48.2815 10.1657 48.1572 11.6707 48.1572C13.1757 48.1572 14.5369 48.2815 15.5207 48.4819C16.013 48.5822 16.4084 48.701 16.6796 48.8316C16.8153 48.897 16.9175 48.9641 16.9851 49.0315C17.0527 49.0987 17.0825 49.1626 17.0825 49.223Z" stroke="#FFC177" stroke-width="0.0917006"/>
<g style="mix-blend-mode:multiply" opacity="0.5">
<ellipse cx="11.6743" cy="49.2198" rx="6.46495" ry="1.42341" fill="#FF981D"/>
</g>
<path d="M18.8394 48.9454H18.8415V47.4852C18.8415 46.6991 15.9471 46.0618 12.3766 46.0618C8.80604 46.0618 5.91162 46.6991 5.91162 47.4852V48.9454H5.91372C6.0022 49.7146 8.86184 50.3321 12.3766 50.3321C15.8913 50.3321 18.7509 49.7146 18.8394 48.9454Z" fill="#FFA318"/>
<path d="M5.92236 47.4861H5.91162V48.9463H5.91372C6.0022 49.7155 8.86184 50.333 12.3766 50.333C15.8913 50.333 18.7509 49.7155 18.8394 48.9463H18.8415V47.4861H18.8308C18.6365 48.2338 15.8212 48.827 12.3766 48.827C8.93188 48.827 6.1166 48.2338 5.92236 47.4861Z" fill="url(#paint4_linear)"/>
<path fill-rule="evenodd" clip-rule="evenodd" d="M6.15552 47.7933V49.2994C6.23799 49.3632 6.3402 49.4253 6.46062 49.4852V47.9791C6.3402 47.9192 6.23798 47.8572 6.15552 47.7933ZM6.79318 48.122V49.628C6.88816 49.6637 6.98999 49.6984 7.09828 49.732V48.226C6.98999 48.1924 6.88816 48.1577 6.79318 48.122ZM7.43935 48.3228V49.8288C7.53714 49.8542 7.63892 49.8789 7.74445 49.9027V48.3967C7.63891 48.3729 7.53714 48.3482 7.43935 48.3228ZM8.07721 48.4668V49.9728C8.17623 49.9922 8.27797 50.0109 8.38231 50.029V48.523C8.27797 48.5049 8.17623 48.4862 8.07721 48.4668ZM8.71562 48.577V50.083C8.81533 50.0981 8.91707 50.1126 9.02072 50.1265V48.6205C8.91707 48.6066 8.81533 48.5921 8.71562 48.577ZM9.36123 48.663V50.169C9.46141 50.1806 9.56313 50.1917 9.66633 50.2022V48.6962C9.56313 48.6857 9.46141 48.6746 9.36123 48.663ZM9.99964 48.7276V50.2336C10.1001 50.2424 10.2019 50.2506 10.3047 50.2582V48.7522C10.2019 48.7446 10.1001 48.7364 9.99964 48.7276ZM10.6375 48.7748V50.2808C10.7382 50.287 10.84 50.2926 10.9426 50.2977V48.7917C10.84 48.7866 10.7382 48.781 10.6375 48.7748ZM11.2837 48.8066V50.3126C11.3846 50.3163 11.4863 50.3196 11.5888 50.3223V48.8164C11.4863 48.8136 11.3846 48.8104 11.2837 48.8066ZM11.9215 48.8233V50.3293C12.0226 50.3309 12.1243 50.3319 12.2266 50.3324V48.8264C12.1243 48.8259 12.0226 48.8249 11.9215 48.8233ZM12.5594 48.8262V50.3322C12.6617 50.3316 12.7634 50.3304 12.8645 50.3287V48.8228C12.7634 48.8244 12.6617 48.8256 12.5594 48.8262ZM13.2055 48.8151V50.3211C13.308 50.3182 13.4097 50.3148 13.5107 50.3109V48.8049C13.4097 48.8088 13.308 48.8122 13.2055 48.8151ZM13.8434 48.7899V50.2959C13.9461 50.2906 14.0478 50.2848 14.1485 50.2785V48.7725C14.0478 48.7788 13.9461 48.7846 13.8434 48.7899ZM14.4813 48.7495V50.2555C14.5842 50.2477 14.6859 50.2393 14.7864 50.2304V48.7244C14.6859 48.7333 14.5842 48.7417 14.4813 48.7495ZM15.1197 48.6925V50.1985C15.2229 50.1878 15.3246 50.1765 15.4248 50.1647V48.6587C15.3246 48.6705 15.2229 48.6818 15.1197 48.6925ZM15.7653 48.6155V50.1215C15.869 50.1075 15.9707 50.0927 16.0704 50.0774V48.5714C15.9707 48.5867 15.869 48.6015 15.7653 48.6155ZM16.4037 48.5166V50.0226C16.5081 50.0043 16.6098 49.9853 16.7088 49.9656V48.4596C16.6098 48.4793 16.5081 48.4983 16.4037 48.5166ZM17.0416 48.3884V49.8944C17.1472 49.8702 17.249 49.8451 17.3467 49.8192V48.3132C17.249 48.3391 17.1472 48.3642 17.0416 48.3884ZM17.6877 48.2146V49.7206C17.7963 49.6862 17.8981 49.6507 17.9928 49.6142V48.1081C17.8981 48.1447 17.7963 48.1802 17.6877 48.2146ZM18.3256 47.9605V49.4666C18.4482 49.4032 18.5504 49.3375 18.6307 49.2698V47.7688H18.6247C18.5454 47.8347 18.4451 47.8987 18.3256 47.9605Z" fill="#FF9211"/>
<g style="mix-blend-mode:multiply">
<path fill-rule="evenodd" clip-rule="evenodd" d="M17.8013 47.6106C17.837 47.5592 17.8555 47.5067 17.8555 47.4532C17.8555 46.8393 15.412 46.3416 12.3979 46.3416C9.38367 46.3416 6.94019 46.8393 6.94019 47.4532C6.94019 47.5066 6.95864 47.5591 6.99431 47.6104C7.3696 47.071 9.6458 46.6561 12.3977 46.6561C15.15 46.6561 17.4264 47.0711 17.8013 47.6106Z" fill="#FFC177"/>
</g>
<path d="M17.8019 47.4532C17.8019 47.5136 17.772 47.5775 17.7045 47.6448C17.6368 47.7121 17.5346 47.7793 17.3989 47.8446C17.1277 47.9752 16.7323 48.0941 16.24 48.1944C15.2562 48.3947 13.895 48.519 12.39 48.519C10.8851 48.519 9.52386 48.3947 8.54004 48.1944C8.04775 48.0941 7.65236 47.9752 7.38116 47.8446C7.24545 47.7793 7.14325 47.7121 7.0756 47.6448C7.00806 47.5775 6.97822 47.5136 6.97822 47.4532C6.97822 47.3929 7.00806 47.3289 7.0756 47.2617C7.14325 47.1944 7.24545 47.1272 7.38116 47.0619C7.65236 46.9313 8.04775 46.8124 8.54004 46.7121C9.52386 46.5117 10.8851 46.3875 12.39 46.3875C13.895 46.3875 15.2562 46.5117 16.24 46.7121C16.7323 46.8124 17.1277 46.9313 17.3989 47.0619C17.5346 47.1272 17.6368 47.1944 17.7045 47.2617C17.772 47.3289 17.8019 47.3929 17.8019 47.4532Z" stroke="#FFC177" stroke-width="0.0917006"/>
<g style="mix-blend-mode:multiply" opacity="0.5">
<ellipse cx="12.4002" cy="47.4533" rx="6.46495" ry="1.42341" fill="#FF981D"/>
</g>
<path d="M24.6969 56.9407H24.6992V55.3128C24.6992 54.4363 21.4723 53.7258 17.4915 53.7258C13.5108 53.7258 10.2838 54.4363 10.2838 55.3128V56.9407H10.2862C10.3848 57.7983 13.573 58.4867 17.4915 58.4867C21.4101 58.4867 24.5982 57.7983 24.6969 56.9407Z" fill="#FFA318"/>
<path d="M10.2964 55.3122H10.2844V56.9401H10.2868C10.3854 57.7977 13.5736 58.4861 17.4921 58.4861C21.4107 58.4861 24.5989 57.7977 24.6975 56.9401H24.6998V55.3122H24.6879C24.4713 56.1458 21.3326 56.8071 17.4921 56.8071C13.6517 56.8071 10.513 56.1458 10.2964 55.3122Z" fill="url(#paint5_linear)"/>
<path fill-rule="evenodd" clip-rule="evenodd" d="M10.557 55.6505V57.3295C10.6489 57.4009 10.7628 57.4702 10.8972 57.5371V55.858C10.7628 55.7911 10.6489 55.7218 10.557 55.6505ZM11.2744 56.02V57.699C11.3804 57.7387 11.4939 57.7773 11.6146 57.8146V56.1356C11.4939 56.0982 11.3804 56.0597 11.2744 56.02ZM11.9843 56.2405V57.9196C12.0933 57.948 12.2068 57.9755 12.3245 58.0022V56.3231C12.2068 56.2965 12.0933 56.2689 11.9843 56.2405ZM12.702 56.4027V58.0817C12.8124 58.1033 12.9258 58.1242 13.0421 58.1444V56.4653C12.9258 56.4452 12.8124 56.4243 12.702 56.4027ZM13.4119 56.5252V58.2043C13.5231 58.2211 13.6365 58.2373 13.752 58.2528V56.5737C13.6365 56.5583 13.5231 56.5421 13.4119 56.5252ZM14.1295 56.6209V58.2999C14.2412 58.3129 14.3546 58.3253 14.4697 58.337V56.658C14.3546 56.6463 14.2412 56.6339 14.1295 56.6209ZM14.8394 56.6929V58.3719C14.9515 58.3817 15.0649 58.3909 15.1796 58.3994V56.7204C15.0649 56.7119 14.9515 56.7027 14.8394 56.6929ZM15.5571 56.746V58.425C15.6694 58.4319 15.7828 58.4382 15.8973 58.4439V56.7649C15.7828 56.7592 15.6694 56.7529 15.5571 56.746ZM16.267 56.781V58.46C16.3795 58.4643 16.4929 58.4679 16.6072 58.471V56.792C16.4929 56.7889 16.3795 56.7853 16.267 56.781ZM16.9847 56.8V58.479C17.0974 58.4807 17.2108 58.4819 17.3248 58.4825V56.8034C17.2108 56.8029 17.0974 56.8017 16.9847 56.8ZM17.7029 56.8032V58.4822C17.8169 58.4815 17.9303 58.4802 18.043 58.4783V56.7993C17.9303 56.8012 17.8169 56.8025 17.7029 56.8032ZM18.4122 56.7911V58.4701C18.5265 58.4669 18.6399 58.4631 18.7524 58.4587V56.7797C18.6399 56.7841 18.5265 56.7879 18.4122 56.7911ZM19.1304 56.7627V58.4417C19.2449 58.4359 19.3583 58.4294 19.4706 58.4224V56.7434C19.3583 56.7504 19.2449 56.7569 19.1304 56.7627ZM19.8398 56.7178V58.3968C19.9545 58.3881 20.0679 58.3788 20.1799 58.3689V56.6899C20.0679 56.6998 19.9545 56.7091 19.8398 56.7178ZM20.558 56.6536V58.3326C20.6731 58.3207 20.7865 58.3081 20.8981 58.2949V56.6159C20.7865 56.6291 20.6731 56.6417 20.558 56.6536ZM21.2673 56.5691V58.2481C21.3829 58.2324 21.4963 58.216 21.6075 58.199V56.52C21.4963 56.537 21.3829 56.5534 21.2673 56.5691ZM21.9855 56.4579V58.1369C22.1019 58.1164 22.2154 58.0952 22.3257 58.0732V56.3942C22.2154 56.4162 22.1019 56.4374 21.9855 56.4579ZM22.6949 56.3152V57.9943C22.8127 57.9672 22.9261 57.9393 23.035 57.9105V56.2314C22.9261 56.2603 22.8127 56.2882 22.6949 56.3152ZM23.4131 56.1222V57.8012C23.5341 57.7629 23.6476 57.7234 23.7533 57.6828V56.0037C23.6476 56.0443 23.5341 56.0839 23.4131 56.1222ZM24.1224 55.8404V57.5195C24.2588 57.4493 24.3729 57.3765 24.4626 57.3015V55.624H24.4606C24.3712 55.6984 24.2578 55.7707 24.1224 55.8404Z" fill="#FF9211"/>
<g style="mix-blend-mode:multiply">
<path fill-rule="evenodd" clip-rule="evenodd" d="M23.5322 55.4518C23.572 55.3945 23.5926 55.336 23.5926 55.2765C23.5926 54.592 20.8684 54.0372 17.5079 54.0372C14.1474 54.0372 11.4232 54.592 11.4232 55.2765C11.4232 55.3361 11.4439 55.3947 11.4838 55.4521C11.9019 54.8507 14.4398 54.3881 17.5082 54.3881C20.576 54.3881 23.1135 54.8505 23.5322 55.4518Z" fill="#FFC177"/>
</g>
<path d="M23.5431 55.2755C23.5431 55.3428 23.5098 55.414 23.4345 55.489C23.3591 55.5641 23.2452 55.639 23.0939 55.7118C22.7915 55.8574 22.3507 55.9899 21.8018 56.1017C20.705 56.3251 19.1874 56.4637 17.5095 56.4637C15.8316 56.4637 14.314 56.3251 13.2172 56.1017C12.6683 55.9899 12.2275 55.8574 11.9251 55.7118C11.7739 55.639 11.6599 55.5641 11.5845 55.489C11.5092 55.414 11.4759 55.3428 11.4759 55.2755C11.4759 55.2081 11.5092 55.1369 11.5845 55.0619C11.6599 54.9868 11.7739 54.912 11.9251 54.8391C12.2275 54.6935 12.6683 54.561 13.2172 54.4492C14.314 54.2258 15.8316 54.0872 17.5095 54.0872C19.1874 54.0872 20.705 54.2258 21.8018 54.4492C22.3507 54.561 22.7915 54.6935 23.0939 54.8391C23.2452 54.912 23.3591 54.9868 23.4345 55.0619C23.5098 55.1369 23.5431 55.2081 23.5431 55.2755Z" stroke="#FFC177" stroke-width="0.102236"/>
<g style="mix-blend-mode:multiply" opacity="0.5">
<ellipse cx="17.5164" cy="55.2773" rx="7.20772" ry="1.58695" fill="#FF981D"/>
</g>
<path d="M25.5117 54.9712H25.5141V53.3433C25.5141 52.4668 22.2871 51.7563 18.3063 51.7563C14.3256 51.7563 11.0986 52.4668 11.0986 53.3433V54.9712H11.101C11.1996 55.8287 14.3878 56.5172 18.3063 56.5172C22.2249 56.5172 25.4131 55.8287 25.5117 54.9712Z" fill="#FFA318"/>
<path d="M11.1106 53.3434H11.0986V54.9713H11.101C11.1996 55.8288 14.3878 56.5173 18.3063 56.5173C22.2249 56.5173 25.4131 55.8288 25.5117 54.9713H25.5141V53.3434H25.5021C25.2855 54.177 22.1468 54.8383 18.3063 54.8383C14.4659 54.8383 11.3272 54.177 11.1106 53.3434Z" fill="url(#paint6_linear)"/>
<path fill-rule="evenodd" clip-rule="evenodd" d="M11.3691 53.6825V55.3615C11.4609 55.433 11.5749 55.5025 11.7093 55.5695V53.8904C11.5749 53.8234 11.4609 53.754 11.3691 53.6825ZM12.0864 54.0525V55.7316C12.1923 55.7713 12.3058 55.8099 12.4265 55.8473V54.1682C12.3058 54.1308 12.1923 54.0922 12.0864 54.0525ZM12.7963 54.2732V55.9523C12.9053 55.9807 13.0187 56.0083 13.1364 56.0349V54.3559C13.0187 54.3292 12.9053 54.3016 12.7963 54.2732ZM13.5139 54.4355V56.1145C13.6243 56.1362 13.7377 56.1571 13.8541 56.1772V54.4982C13.7377 54.478 13.6243 54.4571 13.5139 54.4355ZM14.2238 54.5581V56.2371C14.335 56.254 14.4484 56.2702 14.564 56.2857V54.6066C14.4484 54.5911 14.335 54.575 14.2238 54.5581ZM14.9415 54.6539V56.3329C15.0532 56.3459 15.1666 56.3582 15.2816 56.37V54.691C15.1666 54.6792 15.0532 54.6669 14.9415 54.6539ZM15.6514 54.7259V56.4049C15.7634 56.4147 15.8768 56.4239 15.9915 56.4324V54.7534C15.8768 54.7449 15.7634 54.7357 15.6514 54.7259ZM16.369 54.779V56.4581C16.4813 56.4649 16.5947 56.4712 16.7092 56.4769V54.7979C16.5947 54.7922 16.4813 54.7859 16.369 54.779ZM17.0789 54.8141V56.4931C17.1914 56.4974 17.3048 56.501 17.4191 56.5041V54.8251C17.3048 54.822 17.1914 54.8183 17.0789 54.8141ZM17.7966 54.8331V56.5121C17.9093 56.5138 18.0227 56.515 18.1367 56.5156V54.8366C18.0227 54.836 17.9093 54.8348 17.7966 54.8331ZM18.5148 54.8363V56.5154C18.6289 56.5146 18.7423 56.5133 18.855 56.5115V54.8325C18.7423 54.8343 18.6289 54.8356 18.5148 54.8363ZM19.2241 54.8242V56.5033C19.3384 56.5001 19.4518 56.4963 19.5643 56.4919V54.8129C19.4518 54.8173 19.3384 54.821 19.2241 54.8242ZM19.9424 54.7959V56.4749C20.0568 56.4691 20.1702 56.4626 20.2825 56.4556V54.7766C20.1702 54.7836 20.0568 54.7901 19.9424 54.7959ZM20.6523 54.751V56.43C20.767 56.4213 20.8804 56.412 20.9924 56.4021V54.7231C20.8804 54.733 20.767 54.7423 20.6523 54.751ZM21.3699 54.6869V56.3659C21.485 56.354 21.5984 56.3414 21.7101 56.3282V54.6492C21.5984 54.6624 21.485 54.675 21.3699 54.6869ZM22.0798 54.6023V56.2814C22.1954 56.2657 22.3088 56.2493 22.42 56.2323V54.5533C22.3088 54.5703 22.1954 54.5867 22.0798 54.6023ZM22.7975 54.4913V56.1703C22.9138 56.1499 23.0273 56.1286 23.1376 56.1067V54.4276C23.0273 54.4496 22.9138 54.4708 22.7975 54.4913ZM23.5074 54.3486V56.0277C23.6251 56.0006 23.7386 55.9727 23.8475 55.9439V54.2649C23.7386 54.2937 23.6251 54.3216 23.5074 54.3486ZM24.225 54.1558V55.8349C24.346 55.7966 24.4596 55.7571 24.5652 55.7165V54.0375C24.4596 54.0781 24.346 54.1176 24.225 54.1558ZM24.9427 53.8701V55.5492C25.0795 55.4783 25.1935 55.4048 25.2828 55.329V53.6572H25.2742C25.1862 53.7304 25.0751 53.8015 24.9427 53.8701Z" fill="#FF9211"/>
<g style="mix-blend-mode:multiply">
<path fill-rule="evenodd" clip-rule="evenodd" d="M24.3496 53.4863C24.3896 53.4289 24.4103 53.3703 24.4103 53.3106C24.4103 52.6262 21.686 52.0713 18.3256 52.0713C14.9651 52.0713 12.2408 52.6262 12.2408 53.3106C12.2408 53.3701 12.2614 53.4287 12.3012 53.4859C12.72 52.8846 15.2575 52.4222 18.3253 52.4222C21.3937 52.4222 23.9316 52.8848 24.3496 53.4863Z" fill="#FFC177"/>
</g>
<path d="M24.3574 53.3066C24.3574 53.3739 24.3242 53.4452 24.2489 53.5202C24.1734 53.5953 24.0595 53.6701 23.9082 53.743C23.6058 53.8886 23.165 54.0211 22.6162 54.1329C21.5193 54.3563 20.0017 54.4949 18.3238 54.4949C16.646 54.4949 15.1284 54.3563 14.0315 54.1329C13.4827 54.0211 13.0418 53.8886 12.7395 53.743C12.5882 53.6701 12.4742 53.5953 12.3988 53.5202C12.3235 53.4452 12.2903 53.3739 12.2903 53.3066C12.2903 53.2393 12.3235 53.168 12.3988 53.0931C12.4742 53.018 12.5882 52.9431 12.7395 52.8703C13.0418 52.7247 13.4827 52.5922 14.0315 52.4804C15.1284 52.257 16.646 52.1184 18.3238 52.1184C20.0017 52.1184 21.5193 52.257 22.6162 52.4804C23.165 52.5922 23.6058 52.7247 23.9082 52.8703C24.0595 52.9431 24.1734 53.018 24.2489 53.0931C24.3242 53.168 24.3574 53.2393 24.3574 53.3066Z" stroke="#FFC177" stroke-width="0.102236"/>
<g style="mix-blend-mode:multiply" opacity="0.5">
<ellipse cx="18.3222" cy="53.3074" rx="7.20772" ry="1.58695" fill="#FF981D"/>
</g>
<path d="M24.9114 53.0665H24.9137V51.4385C24.9137 50.5621 21.6867 49.8516 17.706 49.8516C13.7253 49.8516 10.4983 50.5621 10.4983 51.4385V53.0665H10.5006C10.5993 53.924 13.7875 54.6125 17.706 54.6125C21.6245 54.6125 24.8127 53.924 24.9114 53.0665Z" fill="#FFA318"/>
<path d="M10.5104 51.4387H10.4984V53.0666H10.5008C10.5994 53.9242 13.7876 54.6126 17.7061 54.6126C21.6247 54.6126 24.8128 53.9242 24.9115 53.0666H24.9138V51.4387H24.9019C24.6853 52.2723 21.5466 52.9336 17.7061 52.9336C13.8657 52.9336 10.7269 52.2723 10.5104 51.4387Z" fill="url(#paint7_linear)"/>
<path fill-rule="evenodd" clip-rule="evenodd" d="M10.7744 51.7859V53.465C10.8668 53.5355 10.9807 53.604 11.1146 53.6701V51.991C10.9807 51.9249 10.8667 51.8564 10.7744 51.7859ZM11.4845 52.1491V53.8282C11.5905 53.8678 11.704 53.9064 11.8247 53.9437V52.2646C11.704 52.2273 11.5905 52.1888 11.4845 52.1491ZM12.2022 52.3715V54.0505C12.3112 54.0788 12.4247 54.1063 12.5423 54.1328V52.4538C12.4247 52.4272 12.3112 52.3998 12.2022 52.3715ZM12.9198 52.533V54.2121C13.0302 54.2336 13.1437 54.2545 13.26 54.2745V52.5955C13.1437 52.5754 13.0302 52.5546 12.9198 52.533ZM13.6297 52.6552V54.3342C13.7409 54.351 13.8543 54.3671 13.9699 54.3825V52.7035C13.8543 52.6881 13.7409 52.672 13.6297 52.6552ZM14.3474 52.7505V54.4295C14.4591 54.4425 14.5725 54.4548 14.6876 54.4665V52.7875C14.5725 52.7758 14.4591 52.7635 14.3474 52.7505ZM15.0573 52.8223V54.5013C15.1693 54.511 15.2827 54.5201 15.3975 54.5286V52.8496C15.2827 52.8411 15.1693 52.832 15.0573 52.8223ZM15.775 52.8751V54.5541C15.8873 54.561 16.0007 54.5672 16.1151 54.5729V52.8939C16.0007 52.8882 15.8873 52.8819 15.775 52.8751ZM16.4849 52.9099V54.5889C16.5974 54.5931 16.7108 54.5968 16.825 54.5998V52.9208C16.7108 52.9177 16.5974 52.9141 16.4849 52.9099ZM17.2025 52.9287V54.6077C17.3152 54.6094 17.4286 54.6105 17.5427 54.611V52.932C17.4286 52.9315 17.3152 52.9303 17.2025 52.9287ZM17.9124 52.9317V54.6107C18.0265 54.61 18.1399 54.6087 18.2526 54.6068V52.9278C18.1399 52.9297 18.0265 52.931 17.9124 52.9317ZM18.6301 52.9193V54.5983C18.7443 54.5951 18.8577 54.5913 18.9702 54.5869V52.9079C18.8577 52.9123 18.7443 52.9161 18.6301 52.9193ZM19.3483 52.8907V54.5698C19.4627 54.5639 19.5761 54.5574 19.6884 54.5503V52.8713C19.5761 52.8784 19.4627 52.8848 19.3483 52.8907ZM20.0576 52.8456V54.5246C20.1723 54.5159 20.2858 54.5065 20.3978 54.4966V52.8176C20.2858 52.8275 20.1723 52.8369 20.0576 52.8456ZM20.7758 52.7811V54.4601C20.8909 54.4482 21.0043 54.4356 21.116 54.4223V52.7433C21.0043 52.7565 20.8909 52.7692 20.7758 52.7811ZM21.4852 52.6963V54.3753C21.6008 54.3596 21.7142 54.3432 21.8253 54.3261V52.647C21.7142 52.6641 21.6008 52.6806 21.4852 52.6963ZM22.2034 52.5847V54.2637C22.3198 54.2432 22.4332 54.2219 22.5435 54.1999V52.5208C22.4332 52.5429 22.3198 52.5642 22.2034 52.5847ZM22.9127 52.4416V54.1206C23.0305 54.0935 23.144 54.0654 23.2529 54.0365V52.3575C23.144 52.3864 23.0305 52.4145 22.9127 52.4416ZM23.6309 52.2477V53.9267C23.752 53.8882 23.8656 53.8485 23.9711 53.8076V52.1286C23.8656 52.1694 23.752 52.2092 23.6309 52.2477ZM24.3403 51.964V53.6431C24.4773 53.5719 24.5913 53.4981 24.6804 53.4221V51.7514H24.6705C24.5829 51.8245 24.4722 51.8955 24.3403 51.964Z" fill="#FF9211"/>
<g style="mix-blend-mode:multiply">
<path fill-rule="evenodd" clip-rule="evenodd" d="M23.7561 51.5766C23.7956 51.5196 23.816 51.4612 23.816 51.402C23.816 50.7175 21.0918 50.1626 17.7313 50.1626C14.3708 50.1626 11.6466 50.7175 11.6466 51.402C11.6466 51.4618 11.6674 51.5206 11.7076 51.5781C12.1243 50.9763 14.6629 50.5134 17.7323 50.5134C20.7992 50.5134 23.3362 50.9756 23.7561 51.5766Z" fill="#FFC177"/>
</g>
<path d="M23.7572 51.402C23.7572 51.4693 23.724 51.5405 23.6487 51.6155C23.5732 51.6906 23.4593 51.7654 23.308 51.8383C23.0056 51.9839 22.5648 52.1164 22.016 52.2282C20.9191 52.4516 19.4015 52.5902 17.7236 52.5902C16.0457 52.5902 14.5281 52.4516 13.4313 52.2282C12.8824 52.1164 12.4416 51.9839 12.1393 51.8383C11.988 51.7654 11.874 51.6906 11.7986 51.6155C11.7233 51.5405 11.69 51.4693 11.69 51.402C11.69 51.3346 11.7233 51.2634 11.7986 51.1884C11.874 51.1133 11.988 51.0385 12.1393 50.9656C12.4416 50.82 12.8824 50.6875 13.4313 50.5757C14.5281 50.3523 16.0457 50.2137 17.7236 50.2137C19.4015 50.2137 20.9191 50.3523 22.016 50.5757C22.5648 50.6875 23.0056 50.82 23.308 50.9656C23.4593 51.0385 23.5732 51.1133 23.6487 51.1884C23.724 51.2634 23.7572 51.3346 23.7572 51.402Z" stroke="#FFC177" stroke-width="0.102236"/>
<g style="mix-blend-mode:multiply" opacity="0.5">
<ellipse cx="17.7243" cy="51.4013" rx="7.20772" ry="1.58695" fill="#FF981D"/>
</g>
<path d="M25.7137 51.0939H25.7161V49.4659C25.7161 48.5895 22.4891 47.879 18.5084 47.879C14.5276 47.879 11.3007 48.5895 11.3007 49.4659V51.0939H11.303C11.4016 51.9514 14.5898 52.6399 18.5084 52.6399C22.4269 52.6399 25.6151 51.9514 25.7137 51.0939Z" fill="#FFA318"/>
<path d="M11.3125 49.4661H11.3005V51.094H11.3029C11.4015 51.9516 14.5897 52.64 18.5082 52.64C22.4268 52.64 25.615 51.9516 25.7136 51.094H25.716V49.4661H25.704C25.4874 50.2997 22.3487 50.961 18.5082 50.961C14.6678 50.961 11.5291 50.2997 11.3125 49.4661Z" fill="url(#paint8_linear)"/>
<path fill-rule="evenodd" clip-rule="evenodd" d="M11.5765 49.8083V51.4874C11.6685 51.5586 11.7824 51.6278 11.9167 51.6946V50.0155C11.7824 49.9487 11.6685 49.8795 11.5765 49.8083ZM12.2941 50.1773V51.8564C12.4001 51.896 12.5136 51.9345 12.6343 51.9719V50.2928C12.5136 50.2555 12.4001 50.2169 12.2941 50.1773ZM13.004 50.3976V52.0767C13.113 52.1051 13.2265 52.1326 13.3442 52.1592V50.4802C13.2265 50.4536 13.113 50.426 13.004 50.3976ZM13.7217 50.5597V52.2387C13.8321 52.2603 13.9455 52.2812 14.0618 52.3013V50.6223C13.9455 50.6022 13.8321 50.5813 13.7217 50.5597ZM14.4316 50.6822V52.3612C14.5427 52.378 14.6562 52.3942 14.7717 52.4097V50.7306C14.6562 50.7152 14.5427 50.699 14.4316 50.6822ZM15.1492 50.7778V52.4568C15.2609 52.4698 15.3743 52.4822 15.4894 52.4939V50.8149C15.3743 50.8031 15.2609 50.7908 15.1492 50.7778ZM15.8591 50.8498V52.5288C15.9712 52.5385 16.0846 52.5477 16.1993 52.5562V50.8772C16.0846 50.8687 15.9712 50.8595 15.8591 50.8498ZM16.5768 50.9028V52.5818C16.6891 52.5887 16.8025 52.595 16.9169 52.6007V50.9216C16.8025 50.916 16.6891 50.9097 16.5768 50.9028ZM17.295 50.9381V52.6171C17.4075 52.6213 17.5209 52.6249 17.6352 52.628V50.949C17.5209 50.9459 17.4075 50.9423 17.295 50.9381ZM18.0043 50.9567V52.6357C18.117 52.6374 18.2304 52.6386 18.3445 52.6392V50.9601C18.2304 50.9596 18.117 50.9584 18.0043 50.9567ZM18.7226 50.9599V52.6389C18.8366 52.6382 18.95 52.6369 19.0627 52.635V50.956C18.95 50.9578 18.8366 50.9592 18.7226 50.9599ZM19.4319 50.9477V52.6267C19.5461 52.6235 19.6595 52.6197 19.7721 52.6153V50.9363C19.6596 50.9407 19.5461 50.9445 19.4319 50.9477ZM20.1501 50.9193V52.5983C20.2646 52.5925 20.378 52.586 20.4903 52.579V50.8999C20.378 50.907 20.2646 50.9135 20.1501 50.9193ZM20.8595 50.8744V52.5534C20.9742 52.5447 21.0876 52.5354 21.1996 52.5254V50.8464C21.0876 50.8563 20.9742 50.8657 20.8595 50.8744ZM21.5777 50.8101V52.4891C21.6928 52.4772 21.8062 52.4646 21.9178 52.4514V50.7724C21.8062 50.7856 21.6928 50.7982 21.5777 50.8101ZM22.287 50.7255V52.4046C22.4026 52.3889 22.516 52.3725 22.6272 52.3554V50.6764C22.516 50.6935 22.4026 50.7098 22.287 50.7255ZM23.0052 50.6142V52.2933C23.1216 52.2728 23.235 52.2516 23.3454 52.2296V50.5506C23.235 50.5725 23.1216 50.5938 23.0052 50.6142ZM23.7229 50.4696V52.1487C23.8407 52.1215 23.9541 52.0935 24.063 52.0645V50.3855C23.9541 50.4144 23.8407 50.4425 23.7229 50.4696ZM24.4328 50.2783V51.9574C24.5538 51.9191 24.6673 51.8795 24.7729 51.8388V50.1597C24.6673 50.2004 24.5538 50.24 24.4328 50.2783ZM25.1504 49.9919V51.671C25.2875 51.5998 25.4015 51.5259 25.4906 51.4498V49.7802H25.4793C25.3919 49.853 25.2817 49.9237 25.1504 49.9919Z" fill="#FF9211"/>
<g style="mix-blend-mode:multiply">
<path fill-rule="evenodd" clip-rule="evenodd" d="M24.5493 49.6058C24.5896 49.5481 24.6105 49.4892 24.6105 49.4294C24.6105 48.7449 21.8862 48.19 18.5257 48.19C15.1653 48.19 12.441 48.7449 12.441 49.4294C12.441 49.4888 12.4616 49.5472 12.5013 49.6044C12.9217 49.0035 15.4583 48.5415 18.5248 48.5415C21.5936 48.5415 24.1317 49.0042 24.5493 49.6058Z" fill="#FFC177"/>
</g>
<path d="M24.5593 49.4294C24.5593 49.4967 24.5261 49.5679 24.4508 49.6429C24.3753 49.718 24.2614 49.7929 24.1101 49.8657C23.8077 50.0113 23.3669 50.1438 22.8181 50.2556C21.7212 50.479 20.2036 50.6176 18.5257 50.6176C16.8479 50.6176 15.3303 50.479 14.2334 50.2556C13.6846 50.1438 13.2438 50.0113 12.9414 49.8657C12.7901 49.7929 12.6761 49.718 12.6007 49.6429C12.5254 49.5679 12.4922 49.4967 12.4922 49.4294C12.4922 49.362 12.5254 49.2908 12.6007 49.2158C12.6761 49.1407 12.7901 49.0659 12.9414 48.993C13.2438 48.8474 13.6846 48.7149 14.2334 48.6031C15.3303 48.3797 16.8479 48.2411 18.5257 48.2411C20.2036 48.2411 21.7212 48.3797 22.8181 48.6031C23.3669 48.7149 23.8077 48.8474 24.1101 48.993C24.2614 49.0659 24.3753 49.1407 24.4508 49.2158C24.5261 49.2908 24.5593 49.362 24.5593 49.4294Z" stroke="#FFC177" stroke-width="0.102236"/>
<g style="mix-blend-mode:multiply" opacity="0.5">
<ellipse cx="18.5295" cy="49.4314" rx="7.20772" ry="1.58695" fill="#FF981D"/>
</g>
<path d="M74.6661 56.9399H74.6685V55.312C74.6685 54.4355 71.4415 53.725 67.4608 53.725C63.48 53.725 60.2531 54.4355 60.2531 55.312V56.9399H60.2554C60.354 57.7975 63.5422 58.4859 67.4608 58.4859C71.3793 58.4859 74.5675 57.7975 74.6661 56.9399Z" fill="#FFA318"/>
<path d="M60.265 55.3121H60.2531V56.94H60.2554C60.354 57.7976 63.5422 58.486 67.4608 58.486C71.3793 58.486 74.5675 57.7976 74.6661 56.94H74.6685V55.3121H74.6565C74.4399 56.1457 71.3012 56.807 67.4608 56.807C63.6203 56.807 60.4816 56.1457 60.265 55.3121Z" fill="url(#paint9_linear)"/>
<path fill-rule="evenodd" clip-rule="evenodd" d="M60.5284 55.6503V57.3294C60.6203 57.4007 60.7343 57.47 60.8686 57.5369V55.8578C60.7343 55.791 60.6203 55.7216 60.5284 55.6503ZM61.2463 56.0199V57.699C61.3522 57.7386 61.4658 57.7772 61.5865 57.8146V56.1355C61.4658 56.0982 61.3522 56.0596 61.2463 56.0199ZM61.9562 56.2404V57.9194C62.0652 57.9478 62.1787 57.9754 62.2964 58.002V56.323C62.1787 56.2964 62.0652 56.2688 61.9562 56.2404ZM62.6739 56.4025V58.0815C62.7842 58.1032 62.8977 58.1241 63.014 58.1442V56.4652C62.8977 56.445 62.7842 56.4241 62.6739 56.4025ZM63.3838 56.5251V58.2041C63.4949 58.2209 63.6083 58.2371 63.7239 58.2526V56.5735C63.6083 56.5581 63.4949 56.5419 63.3838 56.5251ZM64.1014 56.6207V58.2997C64.2131 58.3127 64.3265 58.3251 64.4416 58.3368V56.6578C64.3265 56.6461 64.2131 56.6337 64.1014 56.6207ZM64.8113 56.6927V58.3717C64.9233 58.3815 65.0368 58.3906 65.1515 58.3992V56.7202C65.0368 56.7116 64.9233 56.7025 64.8113 56.6927ZM65.529 56.7458V58.4248C65.6413 58.4317 65.7547 58.438 65.8691 58.4436V56.7646C65.7547 56.7589 65.6413 56.7527 65.529 56.7458ZM66.2389 56.7808V58.4598C66.3514 58.464 66.4648 58.4677 66.579 58.4708V56.7918C66.4648 56.7887 66.3514 56.785 66.2389 56.7808ZM66.9565 56.7997V58.4787C67.0692 58.4805 67.1826 58.4816 67.2967 58.4822V56.8032C67.1826 56.8026 67.0692 56.8015 66.9565 56.7997ZM67.6747 56.8029V58.4819C67.7888 58.4812 67.9022 58.4799 68.0149 58.478V56.799C67.9022 56.8009 67.7888 56.8022 67.6747 56.8029ZM68.3841 56.7908V58.4698C68.4983 58.4666 68.6117 58.4628 68.7242 58.4584V56.7794C68.6117 56.7838 68.4983 56.7876 68.3841 56.7908ZM69.1023 56.7624V58.4414C69.2167 58.4356 69.3302 58.4291 69.4424 58.4221V56.7431C69.3302 56.7501 69.2167 56.7566 69.1023 56.7624ZM69.8116 56.7175V58.3965C69.9264 58.3878 70.0398 58.3785 70.1518 58.3686V56.6896C70.0398 56.6995 69.9264 56.7088 69.8116 56.7175ZM70.5298 56.6533V58.3323C70.6449 58.3204 70.7583 58.3078 70.87 58.2946V56.6156C70.7583 56.6288 70.6449 56.6413 70.5298 56.6533ZM71.2392 56.5687V58.2477C71.3548 58.2321 71.4682 58.2157 71.5793 58.1986V56.5196C71.4682 56.5367 71.3548 56.553 71.2392 56.5687ZM71.9574 56.4575V58.1365C72.0738 58.1161 72.1872 58.0948 72.2976 58.0728V56.3938C72.1872 56.4158 72.0738 56.437 71.9574 56.4575ZM72.6667 56.3149V57.9939C72.7845 57.9668 72.898 57.9389 73.0069 57.9101V56.231C72.898 56.2598 72.7845 56.2878 72.6667 56.3149ZM73.385 56.1217V57.8008C73.506 57.7625 73.6195 57.7229 73.7251 57.6823V56.0032C73.6195 56.0439 73.506 56.0834 73.385 56.1217ZM74.1026 55.8356V57.5146C74.2396 57.4435 74.3536 57.3697 74.4428 57.2937V55.6227H74.4332C74.3455 55.6959 74.2347 55.7669 74.1026 55.8356Z" fill="#FF9211"/>
<g style="mix-blend-mode:multiply">
<path fill-rule="evenodd" clip-rule="evenodd" d="M73.5007 55.4521C73.5406 55.3947 73.5613 55.3361 73.5613 55.2765C73.5613 54.592 70.837 54.0372 67.4766 54.0372C64.1161 54.0372 61.3918 54.592 61.3918 55.2765C61.3918 55.336 61.4124 55.3946 61.4523 55.4518C61.8709 54.8505 64.4085 54.3881 67.4764 54.3881C70.5447 54.3881 73.0825 54.8506 73.5007 55.4521Z" fill="#FFC177"/>
</g>
<path d="M73.5119 55.2754C73.5119 55.3427 73.4786 55.414 73.4033 55.4889C73.3279 55.564 73.2139 55.6389 73.0626 55.7117C72.7603 55.8573 72.3194 55.9899 71.7706 56.1016C70.6737 56.3251 69.1561 56.4636 67.4783 56.4636C65.8004 56.4636 64.2828 56.3251 63.1859 56.1016C62.6371 55.9899 62.1963 55.8573 61.8939 55.7117C61.7426 55.6389 61.6287 55.564 61.5532 55.4889C61.4779 55.414 61.4447 55.3427 61.4447 55.2754C61.4447 55.2081 61.4779 55.1368 61.5532 55.0618C61.6287 54.9868 61.7426 54.9119 61.8939 54.839C62.1963 54.6934 62.6371 54.5609 63.1859 54.4491C64.2828 54.2257 65.8004 54.0872 67.4783 54.0872C69.1561 54.0872 70.6737 54.2257 71.7706 54.4491C72.3194 54.5609 72.7603 54.6934 73.0626 54.839C73.2139 54.9119 73.3279 54.9868 73.4033 55.0618C73.4786 55.1368 73.5119 55.2081 73.5119 55.2754Z" stroke="#FFC177" stroke-width="0.102236"/>
<g style="mix-blend-mode:multiply" opacity="0.5">
<ellipse cx="67.4827" cy="55.2769" rx="7.20772" ry="1.58695" fill="#FF981D"/>
</g>
<path d="M75.468 54.9707H75.4704V53.3428C75.4704 52.4663 72.2434 51.7558 68.2626 51.7558C64.2819 51.7558 61.0549 52.4663 61.0549 53.3428V54.9707H61.0573C61.1559 55.8283 64.3441 56.5167 68.2626 56.5167C72.1812 56.5167 75.3694 55.8283 75.468 54.9707Z" fill="#FFA318"/>
<path d="M61.0665 53.343H61.0546V54.9709H61.0569C61.1556 55.8284 64.3437 56.5169 68.2623 56.5169C72.1808 56.5169 75.369 55.8284 75.4676 54.9709H75.47V53.343H75.458C75.2415 54.1766 72.1027 54.8379 68.2623 54.8379C64.4218 54.8379 61.2831 54.1766 61.0665 53.343Z" fill="url(#paint10_linear)"/>
<path fill-rule="evenodd" clip-rule="evenodd" d="M61.3217 53.683V55.3621C61.4134 55.4337 61.5273 55.5033 61.6618 55.5705V53.8914C61.5273 53.8243 61.4134 53.7547 61.3217 53.683ZM62.0391 54.0537V55.7328C62.145 55.7725 62.2586 55.8111 62.3793 55.8486V54.1695C62.2586 54.1321 62.145 54.0935 62.0391 54.0537ZM62.749 54.2746V55.9536C62.858 55.9821 62.9715 56.0096 63.0892 56.0363V54.3573C62.9715 54.3306 62.858 54.303 62.749 54.2746ZM63.4667 54.4369V56.1159C63.5771 56.1376 63.6905 56.1585 63.8069 56.1787V54.4996C63.6905 54.4795 63.5771 54.4586 63.4667 54.4369ZM64.1766 54.5596V56.2386C64.2878 56.2555 64.4012 56.2717 64.5168 56.2872V54.6081C64.4012 54.5926 64.2878 54.5765 64.1766 54.5596ZM64.8943 54.6554V56.3344C65.0059 56.3474 65.1194 56.3598 65.2344 56.3715V54.6925C65.1194 54.6808 65.0059 54.6684 64.8943 54.6554ZM65.6042 54.7274V56.4065C65.7162 56.4162 65.8296 56.4254 65.9443 56.434V54.755C65.8296 54.7464 65.7162 54.7372 65.6042 54.7274ZM66.3218 54.7806V56.4596C66.4341 56.4665 66.5475 56.4728 66.662 56.4785V54.7995C66.5475 54.7938 66.4341 54.7875 66.3218 54.7806ZM67.0317 54.8157V56.4947C67.1442 56.499 67.2576 56.5026 67.3719 56.5057V54.8267C67.2576 54.8236 67.1442 54.8199 67.0317 54.8157ZM67.7494 54.8347V56.5137C67.8621 56.5155 67.9755 56.5166 68.0895 56.5172V54.8382C67.9755 54.8376 67.8621 54.8365 67.7494 54.8347ZM68.4676 54.838V56.517C68.5816 56.5163 68.6951 56.515 68.8077 56.5131V54.8341C68.6951 54.836 68.5816 54.8373 68.4676 54.838ZM69.1769 54.8259V56.5049C69.2912 56.5017 69.4046 56.498 69.5171 56.4936V54.8146C69.4046 54.8189 69.2912 54.8227 69.1769 54.8259ZM69.8951 54.7976V56.4766C70.0096 56.4708 70.123 56.4643 70.2353 56.4573V54.7783C70.123 54.7853 70.0096 54.7918 69.8951 54.7976ZM70.6045 54.7528V56.4318C70.7192 56.4231 70.8326 56.4138 70.9446 56.4039V54.7249C70.8326 54.7348 70.7192 54.7441 70.6045 54.7528ZM71.3227 54.6886V56.3677C71.4378 56.3558 71.5512 56.3432 71.6628 56.33V54.651C71.5512 54.6642 71.4378 54.6767 71.3227 54.6886ZM72.032 54.6042V56.2832C72.1476 56.2676 72.2611 56.2512 72.3722 56.2342V54.5552C72.2611 54.5722 72.1476 54.5886 72.032 54.6042ZM72.7502 54.4931V56.1721C72.8666 56.1517 72.9801 56.1305 73.0904 56.1085V54.4295C72.9801 54.4515 72.8666 54.4727 72.7502 54.4931ZM73.4596 54.3507V56.0297C73.5774 56.0027 73.6908 55.9748 73.7998 55.946V54.2669C73.6908 54.2957 73.5774 54.3236 73.4596 54.3507ZM74.1778 54.1578V55.8369C74.2988 55.7986 74.4123 55.7592 74.518 55.7186V54.0395C74.4123 54.0801 74.2988 54.1196 74.1778 54.1578ZM74.8872 53.8766V55.5557C75.0233 55.4858 75.1374 55.4132 75.2273 55.3386V53.6595H75.2273C75.1373 53.7342 75.0233 53.8067 74.8872 53.8766Z" fill="#FF9211"/>
<g style="mix-blend-mode:multiply">
<path fill-rule="evenodd" clip-rule="evenodd" d="M74.3043 53.4852C74.344 53.428 74.3645 53.3696 74.3645 53.3103C74.3645 52.6258 71.6403 52.0709 68.2798 52.0709C64.9193 52.0709 62.1951 52.6258 62.1951 53.3103C62.1951 53.37 62.2158 53.4288 62.2559 53.4862C62.6733 52.8846 65.2116 52.4218 68.2805 52.4218C71.3477 52.4218 73.8848 52.8841 74.3043 53.4852Z" fill="#FFC177"/>
</g>
<path d="M74.3134 53.3062C74.3134 53.3736 74.2801 53.4448 74.2048 53.5198C74.1294 53.5949 74.0154 53.6697 73.8641 53.7426C73.5618 53.8882 73.121 54.0207 72.5721 54.1325C71.4753 54.3559 69.9577 54.4945 68.2798 54.4945C66.6019 54.4945 65.0843 54.3559 63.9874 54.1325C63.4386 54.0207 62.9978 53.8882 62.6954 53.7426C62.5441 53.6697 62.4302 53.5949 62.3547 53.5198C62.2794 53.4448 62.2462 53.3736 62.2462 53.3062C62.2462 53.2389 62.2794 53.1676 62.3547 53.0927C62.4302 53.0176 62.5441 52.9427 62.6954 52.8699C62.9978 52.7243 63.4386 52.5918 63.9874 52.48C65.0843 52.2566 66.6019 52.118 68.2798 52.118C69.9577 52.118 71.4753 52.2566 72.5721 52.48C73.121 52.5918 73.5618 52.7243 73.8641 52.8699C74.0154 52.9427 74.1294 53.0176 74.2048 53.0927C74.2801 53.1676 74.3134 53.2389 74.3134 53.3062Z" stroke="#FFC177" stroke-width="0.102236"/>
<g style="mix-blend-mode:multiply" opacity="0.5">
<ellipse cx="68.288" cy="53.307" rx="7.20772" ry="1.58695" fill="#FF981D"/>
</g>
<path d="M74.8771 53.0656H74.8794V51.4377C74.8794 50.5612 71.6524 49.8507 67.6717 49.8507C63.691 49.8507 60.464 50.5612 60.464 51.4377V53.0656H60.4663C60.565 53.9231 63.7532 54.6116 67.6717 54.6116C71.5902 54.6116 74.7784 53.9231 74.8771 53.0656Z" fill="#FFA318"/>
<path d="M60.4758 51.4378H60.4639V53.0657H60.4662C60.5649 53.9233 63.753 54.6117 67.6716 54.6117C71.5901 54.6117 74.7783 53.9233 74.8769 53.0657H74.8793V51.4378H74.8673C74.6508 52.2714 71.512 52.9327 67.6716 52.9327C63.8311 52.9327 60.6924 52.2714 60.4758 51.4378Z" fill="url(#paint11_linear)"/>
<path fill-rule="evenodd" clip-rule="evenodd" d="M60.7294 51.7812V53.4603C60.8214 53.5313 60.9354 53.6003 61.0695 53.6668V51.9877C60.9354 51.9212 60.8214 51.8522 60.7294 51.7812ZM61.4395 52.1464V53.8255C61.5454 53.8652 61.6589 53.9039 61.7796 53.9413V52.2623C61.6589 52.2248 61.5454 52.1862 61.4395 52.1464ZM62.1571 52.3694V54.0484C62.2661 54.0768 62.3796 54.1043 62.4973 54.1309V52.4518C62.3796 52.4252 62.2661 52.3977 62.1571 52.3694ZM62.867 52.5297V54.2087C62.9774 54.2304 63.0908 54.2513 63.2072 54.2715V52.5924C63.0908 52.5723 62.9774 52.5514 62.867 52.5297ZM63.5847 52.6536V54.3326C63.6958 54.3494 63.8093 54.3656 63.9248 54.381V52.702C63.8093 52.6866 63.6958 52.6704 63.5847 52.6536ZM64.3023 52.7491V54.4281C64.414 54.4411 64.5274 54.4535 64.6425 54.4652V52.7861C64.5274 52.7744 64.414 52.7621 64.3023 52.7491ZM65.0122 52.821V54.5C65.1243 54.5098 65.2377 54.5189 65.3524 54.5274V52.8484C65.2377 52.8399 65.1243 52.8307 65.0122 52.821ZM65.7299 52.874V54.553C65.8422 54.5598 65.9556 54.5661 66.07 54.5718V52.8928C65.9556 52.8871 65.8422 52.8808 65.7299 52.874ZM66.4398 52.9089V54.5879C66.5523 54.5921 66.6657 54.5958 66.7799 54.5988V52.9198C66.6657 52.9168 66.5523 52.9131 66.4398 52.9089ZM67.1574 52.9277V54.6068C67.2701 54.6085 67.3835 54.6096 67.4976 54.6102V52.9312C67.3835 52.9306 67.2701 52.9295 67.1574 52.9277ZM67.8673 52.9309V54.6099C67.9814 54.6092 68.0948 54.6079 68.2075 54.6061V52.9271C68.0948 52.9289 67.9814 52.9302 67.8673 52.9309ZM68.585 52.9186V54.5976C68.6992 54.5944 68.8126 54.5906 68.9252 54.5862V52.9072C68.8126 52.9116 68.6992 52.9154 68.585 52.9186ZM69.2949 52.8906V54.5696C69.4094 54.5638 69.5228 54.5573 69.6351 54.5503V52.8713C69.5228 52.8783 69.4094 52.8848 69.2949 52.8906ZM70.0126 52.8452V54.5242C70.1273 54.5155 70.2407 54.5061 70.3527 54.4962V52.8172C70.2407 52.8271 70.1273 52.8364 70.0126 52.8452ZM70.7308 52.7808V54.4598C70.8459 54.4479 70.9593 54.4353 71.0709 54.4221V52.743C70.9593 52.7563 70.8459 52.7689 70.7308 52.7808ZM71.4401 52.6962V54.3752C71.5557 54.3595 71.6691 54.3431 71.7803 54.326V52.647C71.6691 52.664 71.5557 52.6804 71.4401 52.6962ZM72.1583 52.5848V54.2638C72.2747 54.2433 72.3882 54.222 72.4985 54.2V52.521C72.3882 52.543 72.2747 52.5643 72.1583 52.5848ZM72.8677 52.4419V54.1209C72.9855 54.0939 73.0989 54.0659 73.2078 54.037V52.358C73.0989 52.3868 72.9855 52.4148 72.8677 52.4419ZM73.5859 52.2484V53.9275C73.7069 53.8891 73.8205 53.8495 73.926 53.8087V52.1297C73.8205 52.1704 73.7069 52.2101 73.5859 52.2484ZM74.2952 51.9658V53.6449C74.4319 53.5742 74.5459 53.5009 74.6354 53.4255V51.7505H74.6305C74.5418 51.8245 74.4294 51.8964 74.2952 51.9658Z" fill="#FF9211"/>
<g style="mix-blend-mode:multiply">
<path fill-rule="evenodd" clip-rule="evenodd" d="M73.7134 51.5763C73.7532 51.5191 73.7738 51.4606 73.7738 51.4011C73.7738 50.7166 71.0496 50.1617 67.6891 50.1617C64.3286 50.1617 61.6044 50.7166 61.6044 51.4011C61.6044 51.4607 61.625 51.5193 61.6649 51.5766C62.0829 50.9752 64.6208 50.5125 67.6893 50.5125C70.7572 50.5125 73.2948 50.975 73.7134 51.5763Z" fill="#FFC177"/>
</g>
<path d="M73.7227 51.4011C73.7227 51.4684 73.6894 51.5397 73.6141 51.6146C73.5387 51.6897 73.4247 51.7646 73.2734 51.8374C72.9711 51.983 72.5303 52.1156 71.9814 52.2273C70.8846 52.4508 69.367 52.5893 67.6891 52.5893C66.0112 52.5893 64.4936 52.4508 63.3967 52.2273C62.8479 52.1156 62.4071 51.983 62.1047 51.8374C61.9534 51.7646 61.8395 51.6897 61.7641 51.6146C61.6887 51.5397 61.6555 51.4684 61.6555 51.4011C61.6555 51.3338 61.6887 51.2625 61.7641 51.1875C61.8395 51.1125 61.9534 51.0376 62.1047 50.9647C62.4071 50.8191 62.8479 50.6866 63.3967 50.5748C64.4936 50.3514 66.0112 50.2129 67.6891 50.2129C69.367 50.2129 70.8846 50.3514 71.9814 50.5748C72.5303 50.6866 72.9711 50.8191 73.2734 50.9647C73.4247 51.0376 73.5387 51.1125 73.6141 51.1875C73.6894 51.2625 73.7227 51.3338 73.7227 51.4011Z" stroke="#FFC177" stroke-width="0.102236"/>
<g style="mix-blend-mode:multiply" opacity="0.5">
<ellipse cx="67.69" cy="51.4009" rx="7.20772" ry="1.58695" fill="#FF981D"/>
</g>
<path d="M75.6846 51.0948H75.6869V49.4669C75.6869 48.5904 72.4599 47.8799 68.4792 47.8799C64.4985 47.8799 61.2715 48.5904 61.2715 49.4669V51.0948H61.2738C61.3725 51.9524 64.5607 52.6408 68.4792 52.6408C72.3977 52.6408 75.5859 51.9524 75.6846 51.0948Z" fill="#FFA318"/>
<path d="M61.2836 49.4657H61.2716V51.0936H61.2739C61.3726 51.9512 64.5608 52.6396 68.4793 52.6396C72.3979 52.6396 75.586 51.9512 75.6847 51.0936H75.687V49.4657H75.6751C75.4585 50.2993 72.3198 50.9606 68.4793 50.9606C64.6389 50.9606 61.5001 50.2993 61.2836 49.4657Z" fill="url(#paint12_linear)"/>
<path fill-rule="evenodd" clip-rule="evenodd" d="M61.5421 49.812V51.4911C61.6343 51.5618 61.7483 51.6305 61.8823 51.6968V50.0177C61.7483 49.9514 61.6343 49.8827 61.5421 49.812ZM62.2521 50.176V51.8551C62.358 51.8948 62.4716 51.9333 62.5923 51.9707V50.2917C62.4716 50.2543 62.358 50.2157 62.2521 50.176ZM62.9698 50.3986V52.0777C63.0788 52.106 63.1923 52.1335 63.3099 52.16V50.481C63.1923 50.4544 63.0788 50.427 62.9698 50.3986ZM63.6874 50.5603V52.2394C63.7978 52.2609 63.9113 52.2818 64.0276 52.3019V50.6228C63.9113 50.6028 63.7978 50.5819 63.6874 50.5603ZM64.3973 50.6826V52.3616C64.5085 52.3784 64.6219 52.3945 64.7375 52.41V50.7309C64.6219 50.7155 64.5085 50.6994 64.3973 50.6826ZM65.115 50.778V52.457C65.2267 52.47 65.3401 52.4823 65.4552 52.494V50.815C65.3401 50.8033 65.2267 50.791 65.115 50.778ZM65.8249 50.8498V52.5288C65.9369 52.5385 66.0503 52.5477 66.1651 52.5562V50.8772C66.0503 50.8687 65.9369 50.8595 65.8249 50.8498ZM66.5426 50.9027V52.5817C66.6549 52.5886 66.7683 52.5948 66.8827 52.6005V50.9215C66.7683 50.9158 66.6549 50.9095 66.5426 50.9027ZM67.2525 50.9375V52.6166C67.365 52.6208 67.4784 52.6244 67.5926 52.6275V50.9485C67.4784 50.9454 67.365 50.9418 67.2525 50.9375ZM67.9701 50.9563V52.6354C68.0828 52.6371 68.1962 52.6382 68.3103 52.6387V50.9597C68.1962 50.9592 68.0828 50.958 67.9701 50.9563ZM68.68 50.9595V52.6385C68.7941 52.6377 68.9075 52.6365 69.0202 52.6346V50.9556C68.9075 50.9574 68.7941 50.9587 68.68 50.9595ZM69.3977 50.9471V52.6261C69.5119 52.6229 69.6253 52.6191 69.7378 52.6147V50.9357C69.6253 50.9401 69.5119 50.9439 69.3977 50.9471ZM70.1159 50.9186V52.5976C70.2303 52.5917 70.3437 52.5852 70.456 52.5782V50.8991C70.3437 50.9062 70.2303 50.9127 70.1159 50.9186ZM70.8252 50.8735V52.5525C70.9399 52.5438 71.0534 52.5344 71.1654 52.5245V50.8455C71.0534 50.8554 70.9399 50.8648 70.8252 50.8735ZM71.5434 50.8091V52.4881C71.6585 52.4761 71.7719 52.4635 71.8836 52.4503V50.7713C71.7719 50.7845 71.6585 50.7971 71.5434 50.8091ZM72.2528 50.7243V52.4034C72.3684 52.3876 72.4818 52.3712 72.5929 52.3541V50.6751C72.4818 50.6922 72.3684 50.7086 72.2528 50.7243ZM72.971 50.6128V52.2919C73.0874 52.2713 73.2008 52.2501 73.3111 52.228V50.549C73.2008 50.571 73.0874 50.5923 72.971 50.6128ZM73.6803 50.4698V52.1489C73.7981 52.1218 73.9116 52.0937 74.0205 52.0648V50.3858C73.9116 50.4147 73.7981 50.4427 73.6803 50.4698ZM74.3985 50.2761V51.9552C74.5196 51.9167 74.6331 51.877 74.7387 51.8362V50.1572C74.6332 50.198 74.5196 50.2377 74.3985 50.2761ZM75.1079 49.9929V51.672C75.2447 51.6011 75.3588 51.5275 75.448 51.4517V49.7803H75.4389C75.3511 49.8533 75.2401 49.9244 75.1079 49.9929Z" fill="#FF9211"/>
<g style="mix-blend-mode:multiply">
<path fill-rule="evenodd" clip-rule="evenodd" d="M74.5226 49.6052C74.5626 49.5479 74.5832 49.4892 74.5832 49.4296C74.5832 48.7451 71.859 48.1902 68.4985 48.1902C65.138 48.1902 62.4138 48.7451 62.4138 49.4296C62.4138 49.4891 62.4344 49.5476 62.4742 49.6049C62.893 49.0036 65.4305 48.5412 68.4983 48.5412C71.5666 48.5412 74.1045 49.0038 74.5226 49.6052Z" fill="#FFC177"/>
</g>
<path d="M74.5304 49.429C74.5304 49.4964 74.4971 49.5676 74.4218 49.6426C74.3464 49.7177 74.2325 49.7925 74.0812 49.8654C73.7788 50.011 73.338 50.1435 72.7892 50.2553C71.6923 50.4787 70.1747 50.6173 68.4968 50.6173C66.8189 50.6173 65.3013 50.4787 64.2045 50.2553C63.6556 50.1435 63.2148 50.011 62.9125 49.8654C62.7612 49.7925 62.6472 49.7177 62.5718 49.6426C62.4965 49.5676 62.4632 49.4964 62.4632 49.429C62.4632 49.3617 62.4965 49.2905 62.5718 49.2155C62.6472 49.1404 62.7612 49.0655 62.9125 48.9927C63.2148 48.8471 63.6556 48.7146 64.2045 48.6028C65.3013 48.3794 66.8189 48.2408 68.4968 48.2408C70.1747 48.2408 71.6923 48.3794 72.7892 48.6028C73.338 48.7146 73.7788 48.8471 74.0812 48.9927C74.2325 49.0655 74.3464 49.1404 74.4218 49.2155C74.4971 49.2905 74.5304 49.3617 74.5304 49.429Z" stroke="#FFC177" stroke-width="0.102236"/>
<g style="mix-blend-mode:multiply" opacity="0.5">
<ellipse cx="68.4953" cy="49.431" rx="7.20772" ry="1.58695" fill="#FF981D"/>
</g>
<path d="M19.7928 27.2698C19.7343 25.2879 21.3127 23.6433 23.2953 23.6201L60.5443 23.1861C62.5184 23.163 64.131 24.757 64.131 26.7312V54.1808C64.131 56.1389 62.5437 57.7262 60.5857 57.7262H24.1334C22.2161 57.7262 20.6461 56.2018 20.5896 54.2853L19.7928 27.2698Z" fill="#1F2337"/>
<rect x="19.2258" y="23.8301" width="43.4399" height="34.5819" rx="3.54539" fill="url(#paint13_linear)"/>
<rect x="19.2258" y="23.8301" width="43.4399" height="34.5819" rx="3.54539" fill="url(#paint14_radial)" fill-opacity="0.5"/>
<rect x="20.9282" y="26.1908" width="40.4726" height="29.8474" rx="3.54539" stroke="url(#paint15_linear)" stroke-width="1.13495" stroke-miterlimit="16" stroke-linecap="round" stroke-dasharray="3.4 3.4"/>
<g filter="url(#filter0_d)">
<path d="M50.4547 38.5012C50.4547 36.4616 52.1082 34.8081 54.1478 34.8081H62.4805C63.0516 34.8081 63.5146 35.2711 63.5146 35.8422V43.3019C63.5146 43.873 63.0516 44.336 62.4805 44.336H54.1478C52.1082 44.336 50.4547 42.6826 50.4547 40.6429V38.5012Z" fill="#FF9211"/>
</g>
<ellipse cx="54.5797" cy="39.5714" rx="1.54099" ry="1.3481" transform="rotate(-90 54.5797 39.5714)" fill="#1F2337"/>
<path d="M58.9406 37.7129L55.4364 39.1616C55.0713 39.3126 55.0713 39.8297 55.4364 39.9807L58.9406 41.4295C59.2324 41.5501 59.5531 41.3357 59.5531 41.02V38.1225C59.5531 37.8067 59.2324 37.5923 58.9406 37.7129Z" fill="#1F2337"/>
<path d="M64.1576 34.1382L62.63 34.8367V44.3099L64.1576 43.6333V34.1382Z" fill="#D17B14"/>
<g style="mix-blend-mode:lighten">
<path d="M62.2026 35.6858C62.3437 35.6858 62.4582 35.5714 62.4582 35.4302C62.4582 35.289 62.3437 35.1746 62.2026 35.1746V35.6858ZM54.1275 35.4302V35.1746C54.116 35.1746 54.1046 35.1754 54.0932 35.1769L54.1275 35.4302ZM50.6903 39.5398C50.674 39.68 50.7744 39.807 50.9146 39.8233C51.0548 39.8397 51.1817 39.7393 51.1981 39.5991L50.6903 39.5398ZM62.2026 35.1746H54.1275V35.6858H62.2026V35.1746ZM54.0932 35.1769C52.8922 35.3394 51.0486 36.4689 50.6903 39.5398L51.1981 39.5991C51.5307 36.7484 53.2036 35.8132 54.1617 35.6835L54.0932 35.1769Z" fill="#FFECBC"/>
</g>
<path fill-rule="evenodd" clip-rule="evenodd" d="M55.676 39.0622C55.6746 39.0572 55.6731 39.0521 55.6717 39.0471L55.6552 39.054L55.5992 38.9172L55.6236 38.9072C55.4177 38.3866 54.9618 38.0361 54.4526 38.0361C53.8068 38.0361 53.2467 38.6 53.1736 39.3595C53.1167 39.4136 53.0639 39.4641 53.0179 39.5087C53.0272 38.612 53.666 37.8884 54.4526 37.8884C55.0337 37.8884 55.534 38.2832 55.7596 38.8509L59.1108 37.4655C59.4511 37.3248 59.8253 37.575 59.8253 37.9433V38.5017L59.6776 38.3549V37.9433C59.6776 37.6802 59.4103 37.5015 59.1672 37.602L55.8085 38.9906C55.8101 38.9961 55.8118 39.0016 55.8134 39.0071L55.676 39.0622Z" fill="#FFECBC"/>
</g>
<defs>
<filter id="filter0_d" x="49.8638" y="34.8081" width="14.2416" height="10.7097" filterUnits="userSpaceOnUse" color-interpolation-filters="sRGB">
<feFlood flood-opacity="0" result="BackgroundImageFix"/>
<feColorMatrix in="SourceAlpha" type="matrix" values="0 0 0 0 0 0 0 0 0 0 0 0 0 0 0 0 0 0 127 0"/>
<feOffset dy="0.590898"/>
<feGaussianBlur stdDeviation="0.295449"/>
<feColorMatrix type="matrix" values="0 0 0 0 0 0 0 0 0 0 0 0 0 0 0 0 0 0 0.5 0"/>
<feBlend mode="normal" in2="BackgroundImageFix" result="effect1_dropShadow"/>
<feBlend mode="normal" in="SourceGraphic" in2="effect1_dropShadow" result="shape"/>
</filter>
<linearGradient id="paint0_linear" x1="41.6918" y1="11" x2="41.6918" y2="88.1961" gradientUnits="userSpaceOnUse">
<stop stop-color="#00CC9E"/>
<stop offset="1" stop-color="#4048FF"/>
</linearGradient>
<linearGradient id="paint1_linear" x1="6.38434" y1="54.1527" x2="17.9299" y2="53.5996" gradientUnits="userSpaceOnUse">
<stop stop-color="#FF9211"/>
<stop offset="0.53395" stop-color="#FFC581"/>
<stop offset="1" stop-color="#FF9211"/>
</linearGradient>
<linearGradient id="paint2_linear" x1="7.10419" y1="52.385" x2="18.6497" y2="51.8319" gradientUnits="userSpaceOnUse">
<stop stop-color="#FF9211"/>
<stop offset="0.53395" stop-color="#FFC581"/>
<stop offset="1" stop-color="#FF9211"/>
</linearGradient>
<linearGradient id="paint3_linear" x1="6.57648" y1="50.6793" x2="18.122" y2="50.1262" gradientUnits="userSpaceOnUse">
<stop stop-color="#FF9211"/>
<stop offset="0.53395" stop-color="#FFC581"/>
<stop offset="1" stop-color="#FF9211"/>
</linearGradient>
<linearGradient id="paint4_linear" x1="7.29597" y1="48.9096" x2="18.8415" y2="48.3565" gradientUnits="userSpaceOnUse">
<stop stop-color="#FF9211"/>
<stop offset="0.53395" stop-color="#FFC581"/>
<stop offset="1" stop-color="#FF9211"/>
</linearGradient>
<linearGradient id="paint5_linear" x1="11.8278" y1="56.8991" x2="24.6998" y2="56.2825" gradientUnits="userSpaceOnUse">
<stop stop-color="#FF9211"/>
<stop offset="0.53395" stop-color="#FFC581"/>
<stop offset="1" stop-color="#FF9211"/>
</linearGradient>
<linearGradient id="paint6_linear" x1="12.642" y1="54.9303" x2="25.5141" y2="54.3137" gradientUnits="userSpaceOnUse">
<stop stop-color="#FF9211"/>
<stop offset="0.53395" stop-color="#FFC581"/>
<stop offset="1" stop-color="#FF9211"/>
</linearGradient>
<linearGradient id="paint7_linear" x1="12.0418" y1="53.0256" x2="24.9138" y2="52.409" gradientUnits="userSpaceOnUse">
<stop stop-color="#FF9211"/>
<stop offset="0.53395" stop-color="#FFC581"/>
<stop offset="1" stop-color="#FF9211"/>
</linearGradient>
<linearGradient id="paint8_linear" x1="12.8439" y1="51.053" x2="25.716" y2="50.4364" gradientUnits="userSpaceOnUse">
<stop stop-color="#FF9211"/>
<stop offset="0.53395" stop-color="#FFC581"/>
<stop offset="1" stop-color="#FF9211"/>
</linearGradient>
<linearGradient id="paint9_linear" x1="61.7964" y1="56.8991" x2="74.6685" y2="56.2825" gradientUnits="userSpaceOnUse">
<stop stop-color="#FF9211"/>
<stop offset="0.53395" stop-color="#FFC581"/>
<stop offset="1" stop-color="#FF9211"/>
</linearGradient>
<linearGradient id="paint10_linear" x1="62.598" y1="54.9299" x2="75.47" y2="54.3133" gradientUnits="userSpaceOnUse">
<stop stop-color="#FF9211"/>
<stop offset="0.53395" stop-color="#FFC581"/>
<stop offset="1" stop-color="#FF9211"/>
</linearGradient>
<linearGradient id="paint11_linear" x1="62.0073" y1="53.0248" x2="74.8793" y2="52.4082" gradientUnits="userSpaceOnUse">
<stop stop-color="#FF9211"/>
<stop offset="0.53395" stop-color="#FFC581"/>
<stop offset="1" stop-color="#FF9211"/>
</linearGradient>
<linearGradient id="paint12_linear" x1="62.815" y1="51.0527" x2="75.687" y2="50.436" gradientUnits="userSpaceOnUse">
<stop stop-color="#FF9211"/>
<stop offset="0.53395" stop-color="#FFC581"/>
<stop offset="1" stop-color="#FF9211"/>
</linearGradient>
<linearGradient id="paint13_linear" x1="40.9458" y1="79.8449" x2="41.1639" y2="15.2723" gradientUnits="userSpaceOnUse">
<stop stop-color="#47526A"/>
<stop offset="0.0001" stop-color="#4048FF"/>
<stop offset="1" stop-color="#F52079"/>
</linearGradient>
<radialGradient id="paint14_radial" cx="0" cy="0" r="1" gradientUnits="userSpaceOnUse" gradientTransform="translate(40.9458 20.0313) rotate(90) scale(21.0898 26.4919)">
<stop stop-color="#FFA318"/>
<stop offset="1" stop-color="#FFA318" stop-opacity="0"/>
</radialGradient>
<linearGradient id="paint15_linear" x1="41.1645" y1="16.6599" x2="41.1645" y2="76.7271" gradientUnits="userSpaceOnUse">
<stop stop-color="#F6F6FF"/>
<stop offset="1" stop-color="#F6F6FF" stop-opacity="0"/>
</linearGradient>
</defs>
</svg>
