<svg width="26" height="28" viewBox="0 0 26 28" fill="none" xmlns="http://www.w3.org/2000/svg">
<path d="M22.2908 19.6701L18.5722 21.4293C18.0587 20.4731 17.0739 19.8646 15.99 19.834L12.5571 19.7395C12.0135 19.724 11.4802 19.5861 10.9969 19.3362L10.6476 19.1549C8.85906 18.2215 6.72725 18.2238 4.94057 19.1609L4.96236 18.3686C4.96955 18.1061 4.76302 17.8875 4.50086 17.8803L0.73652 17.7765C0.474361 17.7694 0.256242 17.9761 0.249057 18.2386L0.0216663 26.5096C0.0144807 26.7721 0.221009 26.9907 0.483169 26.9979L4.24751 27.1017L4.26049 27.1017C4.51778 27.1017 4.72825 26.8968 4.7352 26.6394L4.7461 26.2437L5.72404 25.7194C6.10789 25.5126 6.55665 25.4634 6.97596 25.5822L12.8158 27.2233C12.826 27.2263 12.8362 27.2286 12.8466 27.231C13.2687 27.3194 13.6989 27.3637 14.1301 27.3635C15.0433 27.3639 15.9459 27.1669 16.776 26.7854C16.7964 26.7761 16.8161 26.7652 16.8349 26.7529L25.3021 21.2692C25.513 21.1325 25.5812 20.8551 25.4576 20.6361C24.829 19.5193 23.4348 19.0939 22.2908 19.6701ZM0.983845 26.0608L1.18504 18.7399L4.00019 18.8174L3.79899 26.1385L0.983845 26.0608ZM16.3483 25.9364C15.3171 26.4024 14.1653 26.531 13.0569 26.3042L7.23279 24.6674C6.57727 24.4819 5.87563 24.5587 5.27598 24.8816L4.77623 25.1496L4.90998 20.2821C6.4936 19.2275 8.52458 19.1192 10.2111 19.999L10.5604 20.1802C11.171 20.4959 11.8443 20.6699 12.5311 20.6899L15.9643 20.7844C16.9285 20.8122 17.7474 21.4996 17.9431 22.4456L12.8295 22.3043C12.5673 22.2971 12.3492 22.5041 12.3418 22.7664C12.3346 23.0288 12.5413 23.2475 12.8033 23.2547L18.4465 23.4102L18.4597 23.4102C18.7168 23.4099 18.927 23.205 18.934 22.9478C18.9398 22.7413 18.9245 22.5345 18.8881 22.3312L22.7023 20.5267C22.706 20.5251 22.7097 20.5233 22.7134 20.5214C23.2544 20.2473 23.9085 20.339 24.3536 20.7514L16.3483 25.9364Z" fill="white"/>
<path fill-rule="evenodd" clip-rule="evenodd" d="M9 12.6138L9.74897 11.8657L12.7448 14.858L12.7448 8L13.8148 8L13.8148 14.858L16.8107 11.8657L17.5596 12.6138L15.4197 14.7512L13.2798 16.8885L9 12.6138Z" fill="white"/>
</svg>
