<svg width="24" height="21" viewBox="0 0 24 21" fill="none" xmlns="http://www.w3.org/2000/svg">
<line x1="9.65264" y1="19.2692" x2="22.8065" y2="19.2692" stroke="white" stroke-width="1.46154" stroke-linecap="round"/>
<line x1="9.65264" y1="14.8845" x2="22.8065" y2="14.8845" stroke="white" stroke-width="1.46154" stroke-linecap="round"/>
<line x1="9.65264" y1="10.4999" x2="22.8065" y2="10.4999" stroke="white" stroke-width="1.46154" stroke-linecap="round"/>
<line x1="16.9612" y1="6.11542" x2="22.8074" y2="6.11542" stroke="white" stroke-width="1.46154" stroke-linecap="round"/>
<line x1="12.5765" y1="1.7309" x2="22.8072" y2="1.7309" stroke="white" stroke-width="1.46154" stroke-linecap="round"/>
<path d="M5.26923 20C5.26923 20.4036 5.59641 20.7308 6 20.7308C6.40359 20.7308 6.73077 20.4036 6.73077 20L5.26923 20ZM6.51673 0.483269C6.23135 0.197886 5.76865 0.197886 5.48327 0.483269L0.832681 5.13386C0.547297 5.41924 0.547297 5.88194 0.832681 6.16732C1.11806 6.4527 1.58076 6.4527 1.86614 6.16732L6 2.03346L10.1339 6.16732C10.4192 6.4527 10.8819 6.4527 11.1673 6.16732C11.4527 5.88193 11.4527 5.41924 11.1673 5.13385L6.51673 0.483269ZM6.73077 20L6.73077 1L5.26923 1L5.26923 20L6.73077 20Z" fill="white"/>
</svg>
