<svg width="24" height="21" viewBox="0 0 24 21" fill="none" xmlns="http://www.w3.org/2000/svg">
<line x1="0.730769" y1="-0.730769" x2="13.8846" y2="-0.730769" transform="matrix(1 0 0 -1 8.92188 1)" stroke="white" stroke-width="1.46154" stroke-linecap="round"/>
<line x1="0.730769" y1="-0.730769" x2="13.8846" y2="-0.730769" transform="matrix(1 0 0 -1 8.92188 5.38477)" stroke="white" stroke-width="1.46154" stroke-linecap="round"/>
<line x1="0.730769" y1="-0.730769" x2="13.8846" y2="-0.730769" transform="matrix(1 0 0 -1 8.92188 9.76929)" stroke="white" stroke-width="1.46154" stroke-linecap="round"/>
<line x1="0.730769" y1="-0.730769" x2="6.57692" y2="-0.730769" transform="matrix(1 -8.74228e-08 -8.74228e-08 -1 16.2305 14.1538)" stroke="white" stroke-width="1.46154" stroke-linecap="round"/>
<line x1="0.730769" y1="-0.730769" x2="10.9615" y2="-0.730769" transform="matrix(1 8.74228e-08 8.74228e-08 -1 11.8457 18.5383)" stroke="white" stroke-width="1.46154" stroke-linecap="round"/>
<path d="M5.26923 1C5.26923 0.596407 5.59641 0.269231 6 0.269231C6.40359 0.269231 6.73077 0.596407 6.73077 1L5.26923 1ZM6.51673 20.5167C6.23135 20.8021 5.76865 20.8021 5.48327 20.5167L0.832681 15.8661C0.547297 15.5808 0.547297 15.1181 0.832681 14.8327C1.11806 14.5473 1.58076 14.5473 1.86614 14.8327L6 18.9665L10.1339 14.8327C10.4192 14.5473 10.8819 14.5473 11.1673 14.8327C11.4527 15.1181 11.4527 15.5808 11.1673 15.8661L6.51673 20.5167ZM6.73077 1L6.73077 20L5.26923 20L5.26923 1L6.73077 1Z" fill="white"/>
</svg>
