<svg width="14" height="11" viewBox="0 0 14 11" fill="none" xmlns="http://www.w3.org/2000/svg">
<path opacity="0.3" d="M0.879178 0.352548H12.9006C13.0223 0.352929 13.1416 0.386498 13.2457 0.449639C13.3497 0.512781 13.4346 0.603105 13.4911 0.710888C13.5477 0.818672 13.5737 0.939835 13.5665 1.06133C13.5593 1.18283 13.5191 1.30007 13.4503 1.40042L7.43954 10.0826C7.19043 10.4425 6.59069 10.4425 6.34091 10.0826L0.330199 1.40042C0.260625 1.30027 0.219825 1.18298 0.212232 1.06128C0.20464 0.93958 0.230544 0.818126 0.287132 0.710114C0.343719 0.602101 0.428826 0.511662 0.533204 0.448624C0.637582 0.385584 0.75724 0.352356 0.879178 0.352548Z" fill="#ADADC8"/>
</svg>
