<svg width="15" height="11" viewBox="0 0 15 11" fill="none" xmlns="http://www.w3.org/2000/svg">
<path d="M1.52371 10.458H13.5451C13.6668 10.4576 13.7861 10.424 13.8902 10.3609C13.9943 10.2978 14.0791 10.2074 14.1357 10.0997C14.1922 9.99187 14.2183 9.87071 14.2111 9.74921C14.2039 9.62772 14.1637 9.51048 14.0948 9.41013L8.08407 0.727989C7.83496 0.368014 7.23522 0.368014 6.98544 0.727989L0.97473 9.41013C0.905156 9.51027 0.864357 9.62756 0.856764 9.74927C0.849171 9.87097 0.875075 9.99242 0.931663 10.1004C0.988251 10.2084 1.07336 10.2989 1.17774 10.3619C1.28211 10.425 1.40177 10.4582 1.52371 10.458Z" fill="white"/>
</svg>
