<svg width="15" height="11" viewBox="0 0 15 11" fill="none" xmlns="http://www.w3.org/2000/svg">
<path d="M1.52371 10.3525H13.5451C13.6668 10.3521 13.7861 10.3186 13.8902 10.2554C13.9943 10.1923 14.0791 10.102 14.1357 9.99419C14.1922 9.88641 14.2183 9.76524 14.2111 9.64374C14.2039 9.52225 14.1637 9.40501 14.0948 9.30466L8.08407 0.62252C7.83496 0.262545 7.23522 0.262545 6.98544 0.62252L0.97473 9.30466C0.905156 9.4048 0.864357 9.5221 0.856764 9.6438C0.849171 9.7655 0.875075 9.88695 0.931663 9.99496C0.988251 10.103 1.07336 10.1934 1.17774 10.2565C1.28211 10.3195 1.40177 10.3527 1.52371 10.3525Z" fill="#ADADC8"/>
</svg>
