<svg width="26" height="27" viewBox="0 0 26 27" fill="none" xmlns="http://www.w3.org/2000/svg">
<path d="M13.001 7.24463C13.3924 7.24463 13.7677 7.08916 14.0445 6.81242C14.3212 6.53568 14.4767 6.16034 14.4767 5.76898C14.4767 5.37761 14.3212 5.00227 14.0445 4.72554C13.7677 4.4488 13.3924 4.29333 13.001 4.29333C12.6097 4.29333 12.2343 4.4488 11.9576 4.72554C11.6809 5.00227 11.5254 5.37761 11.5254 5.76898C11.5254 6.16034 11.6809 6.53568 11.9576 6.81242C12.2343 7.08916 12.6097 7.24463 13.001 7.24463ZM23.6236 20.4626V11.0085H23.7865C25.3674 11.0085 26.0172 8.9761 24.7248 8.06079L14.3678 0.709991C13.9685 0.426325 13.4908 0.273926 13.001 0.273926C12.5112 0.273926 12.0336 0.426325 11.6343 0.709991L1.27375 8.06079C-0.015115 8.9761 0.63109 11.0068 2.21208 11.0068H2.3785V20.4608C1.31447 21.1442 0.608074 22.3375 0.608074 23.6954V26.0554C0.608074 26.2902 0.701338 26.5153 0.867347 26.6813C1.03336 26.8473 1.25851 26.9406 1.49329 26.9406H24.5088C24.7436 26.9406 24.9687 26.8473 25.1347 26.6813C25.3007 26.5153 25.394 26.2902 25.394 26.0554V23.6954C25.394 22.3375 24.6894 21.1442 23.6236 20.4626ZM12.6576 2.15466C12.7572 2.08408 12.8763 2.04617 12.9984 2.04617C13.1205 2.04617 13.2396 2.08408 13.3392 2.15466L23.3226 9.23635H2.67593L12.6593 2.15466H12.6576ZM21.8496 11.0068V19.8695C21.7518 19.8623 21.6538 19.8587 21.5557 19.8589H18.3088V11.0085H21.8496V11.0068ZM4.14892 19.8695V11.0085H7.68977V19.8607H4.44281C4.34367 19.8607 4.24452 19.8642 4.14715 19.8713L4.14892 19.8695ZM4.44458 21.6293H21.5593C22.6994 21.6293 23.6236 22.5535 23.6236 23.6954V25.1702H2.3785V23.6954C2.3785 22.5535 3.30443 21.6293 4.44458 21.6293ZM12.1158 19.8589H9.46019V11.0085H12.1158V19.8607V19.8589ZM13.8863 19.8589V11.0085H16.5419V19.8607H13.8863V19.8589Z" fill="#1F2337"/>
</svg>
