<svg width="25" height="25" viewBox="0 0 25 25" fill="none" xmlns="http://www.w3.org/2000/svg">
<path d="M12.2661 24.5C5.63836 24.5 0.266113 19.1278 0.266113 12.5C0.266113 5.87225 5.63836 0.5 12.2661 0.5C18.8939 0.5 24.2661 5.87225 24.2661 12.5C24.2661 19.1278 18.8939 24.5 12.2661 24.5ZM9.35311 11.303L12.2661 8.39L15.1806 11.3045L16.8756 9.6095L12.2661 5L7.65811 9.608L9.35311 11.303ZM4.76611 12.5L6.46111 14.195L8.15611 12.5L6.46111 10.805L4.76611 12.5ZM9.35311 13.697L7.65586 15.3898L7.65811 15.392L12.2661 20L16.8756 15.3905V15.3898L15.1806 13.6947L12.2661 16.61L9.35311 13.697ZM16.3761 12.5L18.0711 14.195L19.7661 12.5L18.0711 10.805L16.3761 12.5ZM13.9851 12.4985H13.9859L12.2661 10.7795L10.9949 12.05L10.8486 12.1962L10.5479 12.4977L10.5449 12.5L10.5479 12.5023L12.2654 14.2205L13.9859 12.5007L13.9866 12.5L13.9851 12.4992V12.4985Z" fill="#F3BA2B"/>
</svg>
