<svg width="33" height="33" viewBox="0 0 33 33" fill="none" xmlns="http://www.w3.org/2000/svg">
<path fill-rule="evenodd" clip-rule="evenodd" d="M16.1094 32.3545C24.9459 32.3545 32.1094 25.191 32.1094 16.3545C32.1094 7.51794 24.9459 0.354492 16.1094 0.354492C7.27282 0.354492 0.109375 7.51794 0.109375 16.3545C0.109375 25.191 7.27282 32.3545 16.1094 32.3545Z" fill="#F7931A"/>
<path fill-rule="evenodd" clip-rule="evenodd" d="M22.7655 13.8639C23.0791 11.7677 21.4831 10.6408 19.3007 9.88904L20.0086 7.04941L18.2801 6.61864L17.5909 9.38344C17.1365 9.27021 16.6698 9.16338 16.206 9.05753L16.9002 6.27452L15.1727 5.84375L14.4642 8.6824C14.0881 8.59673 13.7189 8.51206 13.3605 8.42295L13.3624 8.41409L10.9787 7.81889L10.5189 9.66504C10.5189 9.66504 11.8013 9.95895 11.7743 9.97717C12.4743 10.1519 12.6008 10.6152 12.5797 10.9825L11.7733 14.2174C11.8215 14.2297 11.884 14.2474 11.953 14.275C11.8954 14.2607 11.8338 14.245 11.7703 14.2297L10.64 18.7614C10.5543 18.9741 10.3372 19.2931 9.84786 19.172C9.86509 19.1971 8.59149 18.8584 8.59149 18.8584L7.7334 20.837L9.98275 21.3977C10.4012 21.5026 10.8113 21.6124 11.215 21.7158L10.4997 24.5879L12.2262 25.0186L12.9346 22.177C13.4063 22.305 13.8641 22.4232 14.3121 22.5345L13.6061 25.3628L15.3346 25.7935L16.05 22.9268C18.9974 23.4846 21.2138 23.2596 22.1467 20.5938C22.8984 18.4473 22.1093 17.2092 20.5585 16.4018C21.6879 16.1414 22.5386 15.3985 22.7655 13.8639ZM18.8157 19.4027C18.2816 21.5492 14.6675 20.3888 13.4958 20.0978L14.445 16.2928C15.6167 16.5852 19.374 17.1642 18.8157 19.4027ZM19.3503 13.8341C18.8629 15.7866 15.8549 14.7946 14.8792 14.5514L15.7397 11.1003C16.7155 11.3435 19.8579 11.7974 19.3503 13.8341Z" fill="white"/>
</svg>
