<svg width="32" height="32" viewBox="0 0 32 32" fill="none" xmlns="http://www.w3.org/2000/svg">
<ellipse cx="15.58" cy="16.239" rx="15.58" ry="15.5784" fill="#00041B"/>
<path d="M15.6526 27.5915C15.7026 27.5915 15.7359 27.5915 15.7859 27.5915C15.8025 27.5915 15.8359 27.5915 15.8525 27.5915C15.9025 27.5915 15.9525 27.5915 15.9858 27.5915C16.0025 27.5915 16.0192 27.5915 16.0358 27.5915C16.1025 27.5915 16.1691 27.5915 16.2358 27.5748C16.2358 27.5748 16.2358 27.5748 16.2524 27.5748C16.3191 27.5748 16.3691 27.5748 16.4357 27.5581C16.4524 27.5581 16.4691 27.5581 16.4857 27.5581C16.5357 27.5581 16.5857 27.5581 16.6357 27.5415C16.6524 27.5415 16.669 27.5415 16.6857 27.5415C16.7357 27.5415 16.7857 27.5248 16.8523 27.5248C16.869 27.5248 16.869 27.5248 16.8856 27.5248C16.9523 27.5248 17.019 27.5082 17.0856 27.5082C17.1523 27.5082 17.2022 27.4915 17.2689 27.4748C17.2856 27.4748 17.3022 27.4748 17.3022 27.4748C17.3522 27.4748 17.4022 27.4582 17.4522 27.4582C17.4689 27.4582 17.4689 27.4582 17.4855 27.4582C17.5522 27.4415 17.6022 27.4415 17.6688 27.4248C17.8021 27.4082 17.9354 27.3749 18.0521 27.3415C18.0687 27.3415 18.0687 27.3415 18.0854 27.3415C18.1354 27.3249 18.202 27.3249 18.252 27.3082H18.2687C18.402 27.2749 18.5186 27.2416 18.6519 27.2083C17.0523 27.2582 15.7526 27.0416 14.9361 26.8584C13.1031 26.4585 11.3535 25.7421 9.87048 24.5091C7.40434 22.4431 6.13794 19.4774 6.17127 16.5283C6.18793 14.329 6.93777 12.1297 8.45412 10.3303C10.3537 8.08104 13.0531 6.89808 15.8192 6.83144C15.9525 6.83144 16.0692 6.83144 16.2025 6.83144V4.61548C16.0525 4.61548 15.9192 4.61548 15.7692 4.61548C14.9194 4.63214 14.0862 4.73211 13.2698 4.91538C12.4366 5.09866 11.6368 5.3819 10.8703 5.73179C10.0871 6.09834 9.35392 6.54819 8.67074 7.0647C7.97089 7.59786 7.32102 8.21433 6.75448 8.89744C6.22126 9.53057 5.75469 10.2137 5.37144 10.9468C4.98819 11.6466 4.68825 12.3963 4.45497 13.1627C4.23835 13.9125 4.07172 14.6956 4.00507 15.4787C3.9884 15.7286 3.97174 15.9618 3.95508 16.2118C3.95508 16.3117 3.95508 16.395 3.95508 16.495C3.95508 16.545 3.95508 16.595 3.95508 16.645C3.97174 17.4947 4.07172 18.3278 4.25501 19.1442C4.43831 19.9772 4.72158 20.777 5.07151 21.5434C5.48808 22.4598 6.23792 23.8093 7.35435 24.8257C9.55388 26.5585 12.3366 27.5915 15.3526 27.5915C15.4193 27.5915 15.4859 27.5915 15.5526 27.5915C15.6026 27.5915 15.6359 27.5915 15.6526 27.5915Z" fill="white"/>
<path d="M19.2857 25.4588C18.5192 25.4421 17.5694 25.3255 16.8362 25.1922C13.4036 24.5757 10.4542 22.4764 9.37113 19.3108C8.05474 15.462 10.071 11.2966 13.9035 10.0304C14.6533 9.78047 15.4032 9.66384 16.1697 9.66384C17.1528 9.66384 18.1359 9.86377 19.0357 10.2303L19.9689 8.24762C19.6856 8.13099 19.4023 8.03103 19.119 7.93106C18.1692 7.63115 17.1695 7.4812 16.1697 7.4812C15.1699 7.4812 14.1701 7.64781 13.2203 7.96438C12.0039 8.36425 10.8875 9.01404 9.93767 9.86377C9.48777 10.2636 9.05453 10.7302 8.68794 11.2133C8.32135 11.6965 8.00475 12.213 7.73814 12.7628C7.47153 13.3127 7.25491 13.8792 7.10494 14.4623C6.95498 15.0454 6.83833 15.6619 6.80501 16.2784C6.72169 17.5446 6.88832 18.8109 7.3049 20.0105C7.72148 21.2268 8.388 22.3431 9.30447 23.3261C10.121 24.2092 11.0708 24.8756 12.2205 25.4921C13.4203 26.1252 14.9033 26.4585 16.4529 26.6751C17.4527 26.8084 18.7858 26.8417 19.5689 26.8417C20.2521 26.5918 20.5354 26.4751 20.902 26.3252C21.2186 26.1752 21.5352 26.0253 21.8518 25.842C22.1684 25.6587 22.2184 25.6254 22.7516 25.2755C22.8016 25.2422 22.8516 25.2089 22.8849 25.1755C21.052 25.4921 20.5854 25.4754 19.2857 25.4588Z" fill="white"/>
<path d="M23.384 22.9763C22.8674 23.0097 22.1342 23.0596 21.3011 23.0596C19.8181 23.0596 18.0018 22.9263 16.4521 22.4098C14.0526 21.6101 11.7864 19.5608 11.7864 17.0282C11.7864 14.4957 13.836 12.463 16.3521 12.463C18.0684 12.463 19.5515 13.4127 20.3346 14.7956L22.3175 13.8126C22.0009 13.2294 21.6177 12.6963 21.1344 12.2298C20.5179 11.6133 19.7847 11.1135 18.9849 10.7802C18.1517 10.4303 17.2686 10.2471 16.3521 10.2471C15.4357 10.2471 14.5525 10.4303 13.7194 10.7802C12.9195 11.1135 12.1864 11.6133 11.5698 12.2298C10.9533 12.8462 10.4534 13.5793 10.1201 14.3791C9.77021 15.2121 9.58691 16.0952 9.58691 17.0116C9.58691 17.9279 9.78687 18.8443 10.1701 19.7107C10.52 20.4771 11.0033 21.1936 11.6198 21.86C12.7029 23.0263 14.1859 23.9594 15.7689 24.4925C17.2853 24.9924 19.5181 25.1756 21.6843 25.0257C22.2842 24.9757 22.7341 24.9257 23.5006 24.7591C24.2338 24.1759 24.917 23.5095 25.5002 22.7764C24.9836 22.8264 24.0338 22.9263 23.384 22.9763Z" fill="white"/>
</svg>
