<svg width="587" height="587" viewBox="0 0 587 587" fill="none" xmlns="http://www.w3.org/2000/svg">
<path d="M580.284 234.34C576.374 215.388 570.658 197.038 563.138 179.29C555.918 161.842 546.592 145.297 536.064 129.353C525.535 113.71 513.502 99.271 500.266 86.0349C487.03 72.7988 472.59 60.7659 456.948 50.2372C441.305 39.7084 424.459 30.6838 407.011 23.1632C389.263 15.6427 370.913 9.9271 351.961 6.01643C332.708 2.10575 312.854 0 293 0C273.146 0 253.592 2.40657 234.34 6.31725C215.388 10.2279 197.038 15.9435 179.29 23.4641C161.842 30.6838 145.297 40.0092 129.353 50.538C113.71 61.0667 99.271 73.0996 86.0349 86.3357C72.7988 99.5719 60.7659 114.011 50.2372 129.654C39.7084 145.297 30.6838 162.143 23.1632 179.59C15.6427 197.339 9.9271 215.689 6.01643 234.641C2.10575 253.893 0 273.747 0 293.602C0 313.456 2.10575 333.31 6.01643 352.563C9.9271 371.514 15.6427 389.864 23.1632 407.613C30.383 425.061 39.7084 441.606 50.2372 457.549C60.7659 473.192 72.7988 487.631 86.0349 500.868C99.271 514.104 113.71 526.137 129.353 536.665C144.996 547.194 161.842 556.219 179.29 563.739C197.038 571.26 215.388 576.975 234.34 580.886C253.592 584.797 273.447 586.902 293.301 586.902C313.155 586.902 333.009 584.797 352.262 580.886C371.214 576.975 389.564 571.26 407.312 563.739C424.76 556.52 441.305 547.194 457.248 536.665C472.891 526.137 487.331 514.104 500.567 500.868C513.803 487.631 525.836 473.192 536.365 457.549C546.893 441.907 555.918 425.061 563.438 407.613C570.959 389.864 576.675 371.514 580.585 352.563C584.496 333.31 586.602 313.456 586.602 293.602C586.301 273.447 584.195 253.592 580.284 234.34ZM293.301 549.601C151.614 549.601 37.001 434.687 37.001 293.301C37.001 151.915 151.915 37.001 293.301 37.001C434.687 37.001 549.601 151.915 549.601 293.301C549.601 434.988 434.988 549.601 293.301 549.601Z" fill="black"/>
<path d="M297.813 527.641H304.732C305.935 527.641 307.139 527.641 308.342 527.34H308.643C309.846 527.34 310.749 527.34 311.952 527.04H312.854C313.757 527.04 314.659 527.04 315.562 526.739H316.464C317.367 526.739 318.269 526.438 319.472 526.438H320.074C321.277 526.438 322.481 526.137 323.684 526.137C324.887 526.137 325.79 525.836 326.993 525.536H327.595C328.497 525.536 329.4 525.235 330.302 525.235H330.904C332.107 524.934 333.009 524.934 334.213 524.633C336.619 524.332 339.026 523.731 341.132 523.129H341.733C342.636 522.828 343.839 522.828 344.741 522.527H345.042C347.449 521.926 349.555 521.324 351.961 520.722C323.082 521.625 299.618 517.714 284.878 514.405C251.788 507.185 220.201 494.25 193.428 471.989C148.907 434.687 126.044 381.141 126.646 327.896C126.947 288.187 140.484 248.479 167.858 215.99C202.152 175.379 250.885 154.021 300.822 152.818H307.74V112.809H299.919C284.577 113.109 269.536 114.914 254.796 118.223C239.755 121.532 225.315 126.646 211.478 132.964C197.339 139.582 184.103 147.704 171.769 157.029C159.135 166.656 147.403 177.786 137.175 190.12C127.548 201.551 119.125 213.885 112.207 227.121C105.288 239.755 99.8729 253.292 95.6614 267.13C91.7507 280.667 88.7425 294.805 87.5392 308.944C87.2384 313.456 86.9375 317.668 86.6367 322.18V330.002C86.9375 345.343 88.7425 360.385 92.0515 375.125C95.3605 390.166 100.475 404.605 106.792 418.443C114.312 434.988 127.849 459.355 148.004 477.705C187.713 508.99 237.95 527.641 292.398 527.641H297.813Z" fill="black"/>
<path d="M363.392 488.834C349.555 488.533 332.408 486.428 319.172 484.021C257.202 472.891 203.957 434.987 184.404 377.831C160.639 308.341 197.038 233.136 266.227 210.274C279.764 205.761 293.301 203.656 307.139 203.656C324.887 203.656 342.636 207.265 358.88 213.884L375.726 178.086C370.612 175.98 365.498 174.175 360.384 172.37C343.237 166.955 325.188 164.248 307.139 164.248C289.09 164.248 271.04 167.256 253.893 172.972C231.933 180.192 211.778 191.924 194.632 207.266C186.509 214.485 178.688 222.908 172.07 231.632C165.452 240.356 159.736 249.681 154.923 259.608C150.11 269.536 146.199 279.763 143.492 290.292C140.785 300.821 138.679 311.951 138.077 323.082C136.573 345.944 139.581 368.807 147.102 390.466C154.622 412.426 166.655 432.581 183.2 450.329C197.941 466.273 215.087 478.306 235.844 489.436C257.503 500.867 284.276 506.884 312.253 510.794C330.302 513.201 354.368 513.802 368.506 513.802C380.84 509.29 385.954 507.184 392.572 504.477C398.288 501.77 404.003 499.062 409.719 495.753C415.434 492.444 416.337 491.842 425.963 485.525C426.866 484.924 427.768 484.322 428.37 483.72C395.279 489.737 386.856 489.436 363.392 488.834Z" fill="black"/>
<path d="M437.395 444.314C428.069 444.916 414.833 445.818 399.792 445.818C373.019 445.818 340.229 443.411 312.253 434.086C268.935 419.646 228.023 382.645 228.023 336.921C228.023 291.196 265.024 254.496 310.448 254.496C341.433 254.496 368.206 271.642 382.344 296.611L418.142 278.862C412.426 268.333 405.507 258.707 396.784 250.284C385.653 239.154 372.417 230.129 357.978 224.113C342.937 217.795 326.993 214.486 310.448 214.486C293.903 214.486 277.959 217.795 262.918 224.113C248.479 230.129 235.243 239.154 224.112 250.284C212.982 261.414 203.957 274.651 197.941 289.09C191.623 304.131 188.314 320.075 188.314 336.62C188.314 353.165 191.924 369.71 198.843 385.353C205.16 399.191 213.884 412.126 225.015 424.159C244.568 445.216 271.341 462.062 299.919 471.689C327.294 480.713 367.604 484.022 406.711 481.315C417.54 480.713 425.663 479.51 439.5 476.502C452.736 465.973 465.07 453.94 475.599 440.704C466.574 441.606 449.427 443.411 437.395 444.314Z" fill="black"/>
</svg>
