<?xml version="1.0" encoding="utf-8"?>
<!-- Generator: Adobe Illustrator 25.2.0, SVG Export Plug-In . SVG Version: 6.00 Build 0)  -->
<svg version="1.1" id="Calque_1" xmlns="http://www.w3.org/2000/svg" xmlns:xlink="http://www.w3.org/1999/xlink" x="0px" y="0px"
	 viewBox="0 0 138 138" style="enable-background:new 0 0 138 138;" xml:space="preserve">
<style type="text/css">
	.st0{fill:#FFD371;}
	.st1{fill:#FFC552;}
	.st2{opacity:0.5;fill:#FFEDA1;}
	.st3{fill:#FFEDA1;}
	.st4{fill:#FFB32C;}
	.st5{fill:#FFA20D;}
	.st6{fill:#E29417;}
	.st7{fill:none;stroke:#E29417;stroke-width:2;stroke-linecap:round;stroke-miterlimit:10;}
</style>
<g>
	<ellipse class="st0" cx="69.3" cy="73.51" rx="60.45" ry="61.08"/>
	<ellipse class="st0" cx="69.3" cy="73.51" rx="60.45" ry="61.08"/>
	<path class="st1" d="M129.75,73.51c0,33.73-27.07,61.09-60.45,61.09c-20.41,0-38.47-10.23-49.41-25.89
		c9.85,7.04,21.87,11.16,34.83,11.16c33.38,0,60.45-27.35,60.45-61.09c0-13.1-4.08-25.25-11.04-35.19
		C119.64,34.65,129.75,52.89,129.75,73.51z"/>
	<path class="st0" d="M58.18,9.86c0.05-0.16,0.11-0.32,0.18-0.48c0.48-1.1,1.81-1.53,2.99-1.62c4.6-0.34,9.12-0.71,13.72-0.67
		c1.17,0.01,2.45,0.29,3.19,1.2c0.61,0.75,0.74,1.81,0.57,2.76c-0.23,1.3-0.88,2.76-1.67,3.81c-0.3,0.4-0.65,0.78-1.1,0.98
		c-0.38,0.17-0.81,0.2-1.23,0.22c-2.83,0.15-5.67,0.17-8.5,0.07C63.58,16.04,56.96,13.94,58.18,9.86z"/>
	<path class="st0" d="M8.35,58.1c-0.39,0-0.8,0-1.15,0.18c-0.47,0.25-0.73,0.77-0.95,1.26C4.39,63.8,3.27,68.63,4.54,73.1
		c0.33,1.15,0.84,2.3,1.73,3.09c0.89,0.79,2.24,1.15,3.31,0.62c1.53-0.76,1.82-2.79,1.98-4.5c0.32-3.45,0.88-6.88,1.69-10.25
		C14.28,57.79,11.61,58.11,8.35,58.1z"/>
	<path class="st0" d="M129.67,53.82c0.29-0.15,0.59-0.3,0.91-0.26c0.4,0.05,0.69,0.39,0.92,0.72c1.55,2.24,1.8,5.11,2,7.83
		c0.14,1.89,0.28,3.78,0.42,5.67c0.08,1.13,0.16,2.3-0.22,3.37c-0.38,1.07-1.35,2.01-2.47,1.97c-1.54-0.05-2.44-1.73-2.96-3.19
		c-1.17-3.31-1.86-6.68-2.36-10.15C125.45,56.49,126.76,55.34,129.67,53.82z"/>
	<path class="st2" d="M76.19,20.19C45.35,15.58,24.3,47.93,23.55,75.35c-0.25,9.06,1.47,18.93,8.06,25.07
		c6.22,5.8,15.62,6.99,23.87,5.12c16.71-3.78,31.86-15.32,39.07-31.32c6.23-13.83,7.36-34.3-3.44-46.28
		C87.21,23.61,81.89,21.04,76.19,20.19z"/>
	<path class="st3" d="M70.25,37.37c-18.47-2.76-31.08,16.62-31.53,33.04c-0.15,5.43,0.88,11.34,4.83,15.02
		c3.73,3.47,9.35,4.19,14.3,3.07c10.01-2.26,19.08-9.18,23.4-18.76c3.73-8.28,4.41-20.55-2.06-27.72
		C76.85,39.43,73.67,37.88,70.25,37.37z"/>
	<path class="st4" d="M106.46,82.62c-1.59,0.18-3.23,0.66-4.39,1.78c-0.83,0.8-1.36,1.87-1.79,2.95c-0.65,1.65-1.11,3.42-1.03,5.2
		c0.18,3.77,3.05,7.24,6.69,8.08c3.64,0.84,7.72-1.02,9.5-4.33C119.16,89.39,114.22,81.75,106.46,82.62z"/>
	<path class="st5" d="M116.6,92.89c-0.7-4.53-4.73-8.05-10.14-7.44c-1.6,0.17-3.23,0.66-4.39,1.78c-0.83,0.8-1.36,1.87-1.79,2.94
		c-0.42,1.07-0.76,2.19-0.93,3.33c-0.05-0.31-0.09-0.63-0.11-0.95c-0.08-1.78,0.38-3.55,1.03-5.2c0.43-1.08,0.95-2.14,1.79-2.95
		c1.16-1.12,2.79-1.59,4.39-1.78C112.95,81.89,117.47,87.11,116.6,92.89z"/>
	<path class="st4" d="M43.09,93.07c-1.36,0.15-2.76,0.56-3.75,1.52c-0.71,0.69-1.16,1.6-1.53,2.52c-0.56,1.41-0.95,2.92-0.88,4.44
		c0.15,3.22,2.61,6.19,5.72,6.91c3.11,0.72,6.6-0.87,8.12-3.7C53.96,98.86,49.73,92.32,43.09,93.07z"/>
	<path class="st5" d="M51.72,102.12c-0.71-3.75-4.11-6.62-8.62-6.11c-1.37,0.16-2.77,0.56-3.75,1.52c-0.72,0.69-1.17,1.59-1.53,2.52
		c-0.32,0.82-0.59,1.67-0.74,2.54c-0.07-0.34-0.12-0.68-0.14-1.03c-0.07-1.52,0.33-3.03,0.88-4.44c0.36-0.93,0.82-1.84,1.53-2.52
		c0.99-0.96,2.39-1.37,3.75-1.52C48.74,92.44,52.65,97.08,51.72,102.12z"/>
	<path class="st4" d="M19.08,64.41c-0.85,0.1-1.72,0.35-2.34,0.95c-0.44,0.43-0.73,1-0.95,1.57c-0.35,0.88-0.59,1.82-0.55,2.77
		c0.09,2.01,1.63,3.86,3.57,4.31s4.11-0.54,5.07-2.31C25.85,68.02,23.22,63.95,19.08,64.41z"/>
	<path class="st4" d="M81.55,29.36c-0.67,0.08-1.35,0.28-1.84,0.75c-0.35,0.34-0.57,0.78-0.75,1.24c-0.27,0.69-0.47,1.43-0.43,2.18
		c0.07,1.58,1.28,3.04,2.81,3.39c1.53,0.35,3.24-0.43,3.99-1.82C86.88,32.2,84.8,29,81.55,29.36z"/>
	<path class="st5" d="M24.46,70.05c-0.44-2.34-2.56-4.12-5.38-3.81c-0.85,0.1-1.72,0.36-2.34,0.95c-0.44,0.42-0.73,0.99-0.95,1.57
		c-0.2,0.5-0.37,1.04-0.47,1.57c-0.05-0.2-0.07-0.41-0.08-0.62c-0.05-0.95,0.2-1.9,0.55-2.78c0.23-0.58,0.51-1.15,0.95-1.57
		c0.62-0.6,1.49-0.85,2.34-0.95C22.6,64.01,25.04,66.91,24.46,70.05z"/>
	<path class="st4" d="M85.3,115.24c-0.57,0.06-1.16,0.24-1.58,0.64c-0.3,0.29-0.49,0.67-0.64,1.06c-0.23,0.59-0.4,1.23-0.37,1.87
		c0.06,1.35,1.1,2.6,2.4,2.9c1.31,0.3,2.77-0.37,3.41-1.55C89.87,117.68,88.09,114.93,85.3,115.24z"/>
	<path class="st5" d="M88.93,119.05c-0.29-1.57-1.72-2.78-3.62-2.57c-0.57,0.07-1.16,0.24-1.58,0.64c-0.3,0.28-0.49,0.67-0.64,1.06
		c-0.13,0.34-0.25,0.7-0.32,1.06c-0.03-0.14-0.05-0.28-0.06-0.42c-0.03-0.64,0.13-1.28,0.37-1.87c0.15-0.39,0.34-0.77,0.64-1.06
		c0.42-0.4,1-0.57,1.58-0.64C87.68,114.98,89.32,116.93,88.93,119.05z"/>
	<path class="st5" d="M85.74,34c-0.42-1.74-2.05-3.04-4.19-2.8c-0.67,0.07-1.35,0.27-1.84,0.74c-0.35,0.34-0.57,0.79-0.75,1.24
		c-0.14,0.34-0.24,0.69-0.33,1.04c-0.05-0.23-0.1-0.46-0.11-0.7c-0.03-0.74,0.16-1.48,0.44-2.18c0.18-0.45,0.4-0.9,0.75-1.24
		c0.49-0.47,1.17-0.67,1.84-0.74C84.4,29.04,86.34,31.45,85.74,34z"/>
	<path class="st4" d="M109.57,36.71c-0.85,0.1-1.72,0.35-2.34,0.95c-0.44,0.43-0.73,1-0.95,1.57c-0.35,0.88-0.59,1.82-0.55,2.77
		c0.09,2.01,1.63,3.86,3.57,4.31c1.94,0.45,4.11-0.54,5.07-2.31C116.34,40.32,113.7,36.24,109.57,36.71z"/>
	<path class="st5" d="M114.93,42.38c-0.45-2.32-2.57-4.09-5.37-3.77c-0.85,0.09-1.71,0.35-2.34,0.94c-0.44,0.43-0.73,1-0.95,1.58
		c-0.19,0.49-0.36,1.02-0.45,1.54c-0.05-0.22-0.08-0.44-0.09-0.67c-0.05-0.95,0.2-1.89,0.54-2.78c0.23-0.57,0.51-1.15,0.95-1.57
		c0.63-0.6,1.49-0.85,2.34-0.95C113.1,36.31,115.54,39.22,114.93,42.38z"/>
	<path class="st4" d="M33.21,32.59c-1.36,1.5-2.56,3.24-2.93,5.01c-0.26,1.27-0.07,2.47,0.22,3.58c0.44,1.71,1.14,3.32,2.34,4.48
		c2.55,2.45,7.39,2.37,11.28-0.18s6.48-7.36,6.03-11.18C49.22,26.32,39.82,25.3,33.21,32.59z"/>
	<path class="st5" d="M49.99,33.32c-3.18-3.88-10.1-3.28-15.29,2.44c-1.36,1.5-2.56,3.23-2.93,5.01c-0.26,1.28-0.07,2.47,0.22,3.58
		c0.04,0.14,0.08,0.3,0.12,0.44c-0.77-1.03-1.26-2.3-1.6-3.61c-0.29-1.12-0.48-2.32-0.22-3.58c0.37-1.77,1.57-3.51,2.93-5.01
		C39.54,25.6,48.43,26.26,49.99,33.32z"/>
	<g>
		<g>
			<g>
				<g>
					<path class="st6" d="M90.83,56.21c2.62,2.48,5.41,4.78,8.32,6.91c0.49,0.36,1.36,0.41,1.93,0.25c0.58-0.16,1.21-0.61,1.49-1.15
						c0.31-0.58,0.46-1.28,0.25-1.93c-0.21-0.66-0.6-1.09-1.15-1.49c-0.55-0.4-1.09-0.81-1.63-1.22c0.17,0.13,0.34,0.26,0.51,0.39
						c-2.15-1.66-4.21-3.43-6.19-5.3c-0.95-0.9-2.6-1.01-3.54,0C89.93,53.65,89.81,55.25,90.83,56.21L90.83,56.21z"/>
				</g>
			</g>
			<g>
				<g>
					<path class="st6" d="M97.97,51.99c-2.46,2.65-4.74,5.47-6.85,8.4c-0.36,0.5-0.41,1.36-0.25,1.93c0.16,0.58,0.61,1.21,1.15,1.49
						c0.58,0.31,1.28,0.46,1.93,0.25c0.65-0.21,1.09-0.59,1.49-1.15c0.55-0.76,1.11-1.51,1.68-2.26c-0.13,0.17-0.26,0.34-0.39,0.51
						c1.51-1.95,3.1-3.83,4.78-5.64c0.89-0.96,1.02-2.6,0-3.54C100.53,51.1,98.91,50.96,97.97,51.99L97.97,51.99z"/>
				</g>
			</g>
		</g>
		<g>
			<g>
				<g>
					<path class="st6" d="M36.42,58.98c2.62,2.48,5.41,4.78,8.32,6.91c0.49,0.36,1.36,0.41,1.93,0.25c0.58-0.16,1.21-0.61,1.49-1.15
						c0.31-0.58,0.46-1.28,0.25-1.93c-0.21-0.66-0.6-1.09-1.15-1.49c-0.55-0.4-1.09-0.81-1.63-1.22c0.17,0.13,0.34,0.26,0.51,0.39
						c-2.15-1.66-4.21-3.43-6.19-5.3c-0.95-0.9-2.6-1.01-3.54,0C35.52,56.42,35.4,58.02,36.42,58.98L36.42,58.98z"/>
				</g>
			</g>
			<g>
				<g>
					<path class="st6" d="M43.55,54.76c-2.46,2.65-4.74,5.47-6.85,8.4c-0.36,0.5-0.41,1.36-0.25,1.93c0.16,0.58,0.61,1.21,1.15,1.49
						c0.58,0.31,1.28,0.46,1.93,0.25c0.65-0.21,1.09-0.59,1.49-1.15c0.55-0.76,1.11-1.51,1.68-2.26c-0.13,0.17-0.26,0.34-0.39,0.51
						c1.51-1.95,3.1-3.83,4.78-5.64c0.89-0.96,1.02-2.6,0-3.54C46.12,53.87,44.5,53.73,43.55,54.76L43.55,54.76z"/>
				</g>
			</g>
		</g>
	</g>
	<rect x="62" y="77.29" class="st7" width="14" height="0.41"/>
</g>
</svg>
