<svg width="33" height="33" viewBox="0 0 33 33" fill="none" xmlns="http://www.w3.org/2000/svg">
<g clip-path="url(#clip0_5280_31146)">
<path d="M21.6839 12.9087C21.321 12.6951 20.8545 12.6951 20.4397 12.9087L17.5366 14.6713L15.5666 15.793L12.7154 17.5556C12.3525 17.7692 11.8859 17.7692 11.4712 17.5556L9.24198 16.1669C8.87909 15.9532 8.61988 15.5259 8.61988 15.0452V12.3746C8.61988 11.9473 8.82725 11.52 9.24198 11.2529L11.4712 9.91761C11.8341 9.70396 12.3006 9.70396 12.7154 9.91761L14.9445 11.3063C15.3074 11.52 15.5666 11.9473 15.5666 12.428V14.1906L17.5366 13.0155V11.1995C17.5366 10.7722 17.3293 10.3449 16.9145 10.0778L12.7672 7.56746C12.4043 7.35381 11.9377 7.35381 11.523 7.56746L7.272 10.1313C6.85727 10.3449 6.6499 10.7722 6.6499 11.1995V16.2203C6.6499 16.6476 6.85727 17.0749 7.272 17.3419L11.4712 19.8523C11.8341 20.066 12.3006 20.066 12.7154 19.8523L15.5666 18.1431L17.5366 16.9681L20.3879 15.2589C20.7508 15.0452 21.2174 15.0452 21.6321 15.2589L23.8613 16.5942C24.2242 16.8078 24.4834 17.2351 24.4834 17.7158V20.3865C24.4834 20.8138 24.276 21.2411 23.8613 21.5081L21.6839 22.8434C21.321 23.0571 20.8545 23.0571 20.4397 22.8434L18.2106 21.5081C17.8477 21.2945 17.5885 20.8672 17.5885 20.3865V18.6773L15.6185 19.8523V21.6149C15.6185 22.0422 15.8258 22.4695 16.2406 22.7366L20.4397 25.247C20.8026 25.4606 21.2692 25.4606 21.6839 25.247L25.8831 22.7366C26.246 22.523 26.5052 22.0957 26.5052 21.6149V16.5408C26.5052 16.1135 26.2978 15.6862 25.8831 15.4191L21.6839 12.9087Z" fill="#1F2337"/>
<circle cx="16.5776" cy="16.4072" r="15.5" stroke="#1F2337"/>
</g>
<defs>
<clipPath id="clip0_5280_31146">
<rect width="32" height="32" fill="white" transform="translate(0.577637 0.407227)"/>
</clipPath>
</defs>
</svg>
