<svg width="33" height="32" viewBox="0 0 33 32" fill="none" xmlns="http://www.w3.org/2000/svg">
<circle cx="16.7241" cy="16" r="15.5" fill="#4AD6DC" stroke="#1F2337"/>
<g clip-path="url(#clip0_3181_6490)">
<path fill-rule="evenodd" clip-rule="evenodd" d="M10.11 9.08905C9.79573 7.57136 11.0528 6.17041 12.687 6.17041C14.1326 6.17041 15.3268 7.27949 15.3268 8.62207V11.6575C15.704 11.6575 16.0811 11.5991 16.4582 11.5991C16.8353 11.5991 17.1496 11.5991 17.5267 11.6575V8.62207C17.5267 7.27949 18.7209 6.17041 20.1666 6.17041C21.8008 6.17041 23.0578 7.57136 22.8064 9.08905L22.115 12.6498C24.5663 13.6421 26.4519 15.3933 26.4519 17.5531V18.8957C26.4519 20.7052 25.1949 22.2229 23.3721 23.2153C21.5493 24.266 19.1609 24.8497 16.4582 24.8497C13.7555 24.8497 11.3671 24.266 9.54432 23.2153C7.78442 22.2229 6.52734 20.7052 6.52734 18.8957V17.5531C6.52734 15.3933 8.3501 13.6421 10.8014 12.6498L10.11 9.08905ZM21.1722 13.1168L21.9893 8.91393C22.1779 7.86322 21.3608 6.87088 20.1666 6.87088C19.1609 6.87088 18.3438 7.62973 18.3438 8.56369V12.4163C18.0924 12.3579 17.7781 12.3579 17.5267 12.3579C17.1496 12.3579 16.8353 12.2996 16.4582 12.2996C16.0811 12.2996 15.704 12.2996 15.3268 12.3579C15.0754 12.3579 14.7612 12.4163 14.5097 12.4163V8.62207C14.5097 7.6881 13.6927 6.92926 12.687 6.92926C11.5556 6.92926 10.6757 7.92159 10.9271 8.9723L11.7442 13.1751C9.10434 14.1091 7.34444 15.7435 7.34444 17.6115V18.9541C7.34444 21.8143 11.4299 24.1492 16.4582 24.1492C21.4865 24.1492 25.572 21.8143 25.572 18.9541V17.6115C25.6348 15.6852 23.8749 14.0507 21.1722 13.1168Z" fill="#633001"/>
<path d="M25.6349 18.8958C25.6349 21.7561 21.5494 24.091 16.5211 24.091C11.4928 24.091 7.40735 21.7561 7.40735 18.8958V17.5532H25.6977V18.8958H25.6349Z" fill="#FEDC90"/>
<path fill-rule="evenodd" clip-rule="evenodd" d="M10.9271 8.97225C10.6757 7.92154 11.5557 6.9292 12.687 6.9292C13.6927 6.9292 14.5098 7.68805 14.5098 8.62201V12.4746C15.1383 12.4162 15.7669 12.3579 16.4583 12.3579C17.0868 12.3579 17.7153 12.4162 18.3439 12.4746V8.62201C18.3439 7.68805 19.161 6.9292 20.1666 6.9292C21.298 6.9292 22.1779 7.92154 21.9894 8.97225L21.1723 13.1751C23.8121 14.1091 25.6349 15.7435 25.6349 17.6114C25.6349 20.4717 21.5494 22.8066 16.5211 22.8066C11.4928 22.8066 7.40735 20.4717 7.40735 17.6114C7.40735 15.7435 9.16725 14.1091 11.8071 13.1751L10.9271 8.97225Z" fill="#D1884F"/>
<path d="M13.9441 17.2027C13.9441 17.9616 13.5041 18.6037 12.9384 18.6037C12.3727 18.6037 11.9327 17.9616 11.9327 17.2027C11.9327 16.4439 12.3727 15.8018 12.9384 15.8018C13.5041 15.8018 13.9441 16.4439 13.9441 17.2027Z" fill="#633001"/>
<path d="M20.9209 17.2027C20.9209 17.9616 20.4809 18.6037 19.9152 18.6037C19.3495 18.6037 18.9095 17.9616 18.9095 17.2027C18.9095 16.4439 19.3495 15.8018 19.9152 15.8018C20.4809 15.8018 20.9209 16.4439 20.9209 17.2027Z" fill="#633001"/>
</g>
<defs>
<clipPath id="clip0_3181_6490">
<rect width="19.9246" height="18.6793" fill="white" transform="translate(6.52734 6.17041)"/>
</clipPath>
</defs>
</svg>
