<svg width="30" height="28" viewBox="0 0 30 28" fill="none" xmlns="http://www.w3.org/2000/svg">
<g clip-path="url(#clip0_3181_7277)">
<path fill-rule="evenodd" clip-rule="evenodd" d="M7.51111 13.618C7.51111 13.0483 7.97294 12.5864 8.54263 12.5864H28.4854C29.0551 12.5864 29.517 13.0483 29.517 13.618V25.9962C29.517 26.5659 29.0551 27.0278 28.4854 27.0278H8.54263C7.97294 27.0278 7.51111 26.5659 7.51111 25.9962V13.618Z" fill="#F4F6F7"/>
<path fill-rule="evenodd" clip-rule="evenodd" d="M7.51111 14.0864C7.51111 13.258 8.18268 12.5864 9.01111 12.5864H28.017C28.8454 12.5864 29.517 13.258 29.517 14.0864V16.0248H7.51111V14.0864Z" fill="#4095DB"/>
<path fill-rule="evenodd" clip-rule="evenodd" d="M7.51111 23.5894H29.517V25.5278C29.517 26.3562 28.8454 27.0278 28.017 27.0278H9.01111C8.18268 27.0278 7.51111 26.3562 7.51111 25.5278V23.5894Z" fill="#F4B662"/>
<path fill-rule="evenodd" clip-rule="evenodd" d="M21.3614 17.5958C21.1473 17.5022 20.8105 17.4001 20.391 17.4001C19.3203 17.4001 18.5667 18.033 18.5604 18.9392C18.5536 19.6094 19.0982 19.9833 19.5088 20.2061C19.9308 20.4345 20.0726 20.5806 20.0709 20.7848C20.068 21.0971 19.7341 21.2403 19.4227 21.2403C18.9892 21.2403 18.7588 21.1698 18.4027 20.9957L18.2634 20.9215L18.112 21.9653C18.3645 22.0952 18.8326 22.2079 19.3184 22.2139C20.4563 22.2139 21.1956 21.5887 21.2043 20.621C21.2082 20.0894 20.9196 19.6865 20.2947 19.3538C19.9162 19.1377 19.684 18.9944 19.6866 18.7756C19.6869 18.5817 19.8829 18.3742 20.307 18.3742C20.6612 18.3679 20.9177 18.4586 21.1175 18.5534L21.2147 18.6068L21.3614 17.5958ZM16.3503 22.1447L17.0278 17.4814H18.1107L17.4333 22.1447H16.3503ZM23.2347 19.1879C23.2347 19.1879 22.8931 20.2233 22.8033 20.4914H23.7024C23.6596 20.2582 23.4518 19.1452 23.4518 19.1452L23.3787 18.743C23.3498 18.8354 23.3094 18.9579 23.2788 19.051L23.2787 19.051L23.2787 19.0513C23.2514 19.1342 23.2318 19.1937 23.2347 19.1879ZM24.1393 17.4861H23.3024C23.0428 17.4861 22.8485 17.5686 22.7348 17.8727L21.1266 22.1464H22.264C22.264 22.1464 22.4496 21.5715 22.4917 21.4453C22.55 21.4453 22.8251 21.4458 23.1166 21.4464L23.1168 21.4464C23.4455 21.447 23.7952 21.4477 23.8788 21.4477C23.9112 21.6104 24.0106 22.1464 24.0106 22.1464H25.0157L24.1393 17.4861ZM15.4418 17.4853L14.3819 20.6646L14.2684 20.0183L13.8889 17.8756C13.8234 17.58 13.6331 17.4924 13.398 17.4821H11.6516L11.6372 17.5787C12.0621 17.6995 12.442 17.8737 12.7749 18.0903L13.7379 22.1407L14.884 22.1399L16.5894 17.4853H15.4418Z" fill="#0071CE"/>
<path fill-rule="evenodd" clip-rule="evenodd" d="M7.51111 13.618C7.51111 13.0483 7.97294 12.5864 8.54263 12.5864H28.4854C29.0551 12.5864 29.517 13.0483 29.517 13.618V25.9962C29.517 26.5659 29.0551 27.0278 28.4854 27.0278H8.54263C7.97294 27.0278 7.51111 26.5659 7.51111 25.9962V13.618Z" fill="#E5E5E5" fill-opacity="0.01"/>
</g>
<path d="M10.5111 13.0864H26.4889V12.0864H10.5111V13.0864ZM28.9889 15.5864V24.0093H29.9889V15.5864H28.9889ZM26.4889 26.5093H10.5111V27.5093H26.4889V26.5093ZM8.01111 24.0093V15.5864H7.01111V24.0093H8.01111ZM10.5111 26.5093C9.1304 26.5093 8.01111 25.39 8.01111 24.0093H7.01111C7.01111 25.9423 8.57812 27.5093 10.5111 27.5093V26.5093ZM28.9889 24.0093C28.9889 25.39 27.8696 26.5093 26.4889 26.5093V27.5093C28.4219 27.5093 29.9889 25.9423 29.9889 24.0093H28.9889ZM26.4889 13.0864C27.8696 13.0864 28.9889 14.2057 28.9889 15.5864H29.9889C29.9889 13.6534 28.4218 12.0864 26.4889 12.0864V13.0864ZM10.5111 12.0864C8.57811 12.0864 7.01111 13.6534 7.01111 15.5864H8.01111C8.01111 14.2057 9.1304 13.0864 10.5111 13.0864V12.0864Z" fill="#D6D6E8"/>
<path d="M26.6883 10.8173L24.4475 2.45454C24.1616 1.38761 23.0649 0.754441 21.998 1.04032L2.40119 6.29127C1.33426 6.57715 0.701096 7.67382 0.98698 8.74076L3.39095 17.7125C3.72057 18.9427 4.83533 19.798 6.10887 19.798V13.8173C6.10887 12.1605 7.45201 10.8173 9.10887 10.8173H26.6883Z" fill="#F4F6F7"/>
<path d="M26.6883 10.8173L24.4475 2.45454C24.1616 1.38761 23.0649 0.754441 21.998 1.04032L2.40119 6.29127C1.33426 6.57715 0.701096 7.67382 0.98698 8.74076L3.39095 17.7125C3.72057 18.9427 4.83533 19.798 6.10887 19.798V19.798V13.8173C6.10887 12.1605 7.45201 10.8173 9.10887 10.8173H26.6883Z" stroke="#D6D6E8"/>
<mask id="mask0_3181_7277" style="mask-type:alpha" maskUnits="userSpaceOnUse" x="0" y="0" width="27" height="20">
<path d="M26.6883 10.8173L24.4475 2.45454C24.1616 1.38761 23.0649 0.754441 21.998 1.04032L2.40119 6.29127C1.33426 6.57715 0.701096 7.67382 0.98698 8.74076L3.39095 17.7125C3.72057 18.9427 4.83533 19.798 6.10887 19.798V13.8173C6.10887 12.1605 7.45201 10.8173 9.10887 10.8173H26.6883Z" fill="#F4F6F7"/>
</mask>
<g mask="url(#mask0_3181_7277)">
<path fill-rule="evenodd" clip-rule="evenodd" d="M12.6133 14.726C14.7135 14.2587 16.0372 12.1774 15.5699 10.0773C15.1026 7.97714 13.0213 6.65344 10.9212 7.12072C8.82103 7.58799 7.49733 9.6693 7.96461 11.7694C8.43189 13.8696 10.5132 15.1933 12.6133 14.726Z" fill="#D8232A"/>
<path fill-rule="evenodd" clip-rule="evenodd" d="M20.4097 9.00067C20.877 11.1008 19.5533 13.1821 17.4531 13.6494C16.5338 13.8539 15.6182 13.7153 14.8399 13.3186C15.5292 12.4333 15.8327 11.2584 15.57 10.0776C15.3072 8.89668 14.5342 7.96129 13.5345 7.45174C14.0711 6.76245 14.8417 6.24864 15.761 6.0441C17.8611 5.57682 19.9424 6.90052 20.4097 9.00067Z" fill="#ED9F2D"/>
<path fill-rule="evenodd" clip-rule="evenodd" d="M13.5344 7.45161C12.845 8.33699 12.5416 9.51189 12.8043 10.6927C13.067 11.8736 13.84 12.809 14.8397 13.3185C15.5291 12.4331 15.8326 11.2582 15.5698 10.0774C15.3071 8.89655 14.5341 7.96118 13.5344 7.45161Z" fill="#D8232A"/>
<mask id="mask1_3181_7277" style="mask-type:alpha" maskUnits="userSpaceOnUse" x="12" y="7" width="4" height="7">
<path fill-rule="evenodd" clip-rule="evenodd" d="M13.5344 7.45161C12.845 8.33699 12.5416 9.51189 12.8043 10.6927C13.067 11.8736 13.84 12.809 14.8397 13.3185C15.5291 12.4331 15.8326 11.2582 15.5698 10.0774C15.3071 8.89655 14.5341 7.96118 13.5344 7.45161Z" fill="white"/>
</mask>
<g mask="url(#mask1_3181_7277)">
<path fill-rule="evenodd" clip-rule="evenodd" d="M11.5745 8.42676L15.7228 7.50376L15.8766 8.19515L11.7283 9.11815L11.5745 8.42676ZM11.8821 9.80951L16.0305 8.88652L16.1843 9.57791L12.036 10.5009L11.8821 9.80951ZM16.3382 10.2693L12.1898 11.1923L12.3437 11.8837L16.492 10.9607L16.3382 10.2693ZM12.4975 12.5751L16.6458 11.6521L16.7996 12.3435L12.6513 13.2665L12.4975 12.5751ZM16.9535 13.0349L12.8051 13.9579L12.959 14.6493L17.1073 13.7263L16.9535 13.0349Z" fill="#ED9F2D"/>
</g>
</g>
<defs>
<clipPath id="clip0_3181_7277">
<path d="M7.51111 15.5864C7.51111 13.9296 8.85425 12.5864 10.5111 12.5864H26.4889C28.1457 12.5864 29.4889 13.9296 29.4889 15.5864V24.0093C29.4889 25.6662 28.1457 27.0093 26.4889 27.0093H10.5111C8.85426 27.0093 7.51111 25.6662 7.51111 24.0093V15.5864Z" fill="white"/>
</clipPath>
</defs>
</svg>
