<svg width="33" height="32" viewBox="0 0 33 32" fill="none" xmlns="http://www.w3.org/2000/svg">
<path d="M9.09943 12.2019H9.03175C10.4167 9.47953 13.2449 7.61405 16.5087 7.61405C18.6142 7.61405 20.5378 8.38989 22.0101 9.67139H22.0615H25.4032C23.4247 6.89471 20.1782 5.0835 16.5087 5.0835C10.909 5.0835 6.29479 9.30053 5.66774 14.7325L12.7135 14.7319V17.2619H5.66663L5.66942 17.2815C5.77179 18.1541 5.97707 18.9948 6.27242 19.7925H12.7124V26.2324C13.515 26.53 14.3636 26.7364 15.2423 26.8382V19.793H17.7723V26.8388C18.6517 26.737 19.4997 26.5311 20.3023 26.233V19.7925H26.7423C27.1808 18.6106 27.4202 17.3319 27.4202 15.9972C27.4202 14.6626 27.1808 13.3839 26.7423 12.2019H25.2437H9.09943ZM17.7729 17.2625H15.2429V14.7325H17.7729V17.2625ZM24.7963 17.2625H20.3035V14.7325H24.7963C24.8589 15.1453 24.8913 15.5676 24.8913 15.9978C24.8913 16.4274 24.8589 16.8497 24.7963 17.2625Z" fill="#1F2337"/>
<path d="M16.5 0C7.66319 0 0.5 7.16375 0.5 16C0.5 24.8362 7.66319 32 16.5 32C25.3368 32 32.5 24.8362 32.5 16C32.5 7.16375 25.3368 0 16.5 0ZM16.5 29.4655C9.06328 29.4655 3.03447 23.4367 3.03447 16C3.03447 8.56328 9.06328 2.53447 16.5 2.53447C23.9367 2.53447 29.9655 8.56328 29.9655 16C29.9655 23.4367 23.9367 29.4655 16.5 29.4655Z" fill="#1F2337"/>
</svg>
