<svg width="41" height="41" viewBox="0 0 41 41" fill="none" xmlns="http://www.w3.org/2000/svg">
<circle cx="20.5061" cy="20.0199" r="20" fill="#4048FF"/>
<path d="M11.288 15.3649H11.2042C12.9193 11.9936 16.4214 9.68357 20.4632 9.68357C23.0704 9.68357 25.4525 10.6443 27.2756 12.2312H27.3393H31.4773C29.0273 8.79279 25.0071 6.54993 20.4632 6.54993C13.5288 6.54993 7.81498 11.772 7.0385 18.4985L15.7634 18.4978V21.6308H7.03711L7.04057 21.655C7.16733 22.7356 7.42154 23.7766 7.78727 24.7644H15.762V32.7391C16.756 33.1076 17.8068 33.3632 18.8949 33.4893V24.7651H22.0279V33.49C23.1168 33.3639 24.1669 33.109 25.1608 32.7398V24.7644H33.1356C33.6786 23.3008 33.9751 21.7173 33.9751 20.0646C33.9751 18.4119 33.6786 16.8285 33.1356 15.3649H31.2799H11.288ZM22.0286 21.6314H18.8956V18.4985H22.0286V21.6314ZM30.7258 21.6314H25.1622V18.4985H30.7258C30.8033 19.0097 30.8435 19.5327 30.8435 20.0653C30.8435 20.5973 30.8033 21.1203 30.7258 21.6314Z" fill="white"/>
</svg>
