<svg width="33" height="33" viewBox="0 0 33 33" fill="none" xmlns="http://www.w3.org/2000/svg">
<rect x="0.555664" y="0.0078125" width="32" height="32" rx="16" fill="#FF060A"/>
<g clip-path="url(#clip0_7016_60901)">
<path d="M25.3678 13.7314C24.4773 12.9091 23.2454 11.6532 22.2418 10.7627L22.1826 10.7211C22.0837 10.6419 21.9723 10.5797 21.8529 10.5372C19.4319 10.0861 8.17308 7.98097 7.95354 8.00757C7.89164 8.01611 7.83247 8.03852 7.78045 8.07314L7.725 8.11772C7.65542 8.18806 7.60265 8.27323 7.57065 8.36686L7.55566 8.40432V8.64784C8.82346 12.1789 13.8287 23.7427 14.814 26.4555C14.8736 26.6394 14.9864 26.9897 15.1973 27.0077H15.2445C15.3569 27.0077 15.8383 26.3708 15.8383 26.3708C15.8383 26.3708 24.4357 15.9463 25.3056 14.8359C25.4183 14.6992 25.5176 14.552 25.6023 14.3964C25.624 14.2747 25.6138 14.1495 25.5727 14.033C25.5316 13.9165 25.461 13.8126 25.3678 13.7314ZM18.0457 14.9456L21.7135 11.9039L23.8658 13.8869L18.0457 14.9456ZM16.6221 14.7467L10.3018 9.56947L20.5229 11.4543L16.6221 14.7467ZM17.1923 16.1037L23.6579 15.0614L16.2628 23.9675L17.1923 16.1037ZM9.44388 10.0861L16.0908 15.7253L15.1287 23.9734L9.44388 10.0861Z" fill="white"/>
</g>
<defs>
<clipPath id="clip0_7016_60901">
<rect width="18.0579" height="19.0001" fill="white" transform="translate(7.55566 8.00781)"/>
</clipPath>
</defs>
</svg>
