<svg width="49" height="49" viewBox="0 0 49 49" fill="none" xmlns="http://www.w3.org/2000/svg">
<path fill-rule="evenodd" clip-rule="evenodd" d="M21.756 1.48458C21.756 0.783728 22.3241 0.215576 23.025 0.215576H26.123C26.8239 0.215576 27.3921 0.783728 27.3921 1.48458V4.00897C30.9105 4.50757 34.1388 5.90807 36.8354 7.96895L38.6547 6.14962C39.1503 5.65404 39.9538 5.65404 40.4494 6.14962L42.6401 8.3403C43.1356 8.83587 43.1356 9.63936 42.6401 10.1349L40.7983 11.9767C42.8145 14.6774 44.1744 17.8966 44.642 21.3981H47.3053C48.0062 21.3981 48.5743 21.9662 48.5743 22.6671V25.7652C48.5743 26.466 48.0062 27.0342 47.3053 27.0342H44.6128C44.1103 30.5197 42.7224 33.7189 40.6844 36.3967L42.5838 38.2961C43.0794 38.7916 43.0794 39.5951 42.5838 40.0907L40.3931 42.2814C39.8975 42.777 39.0941 42.777 38.5985 42.2814L36.6846 40.3675C34.0187 42.3659 30.8452 43.724 27.3921 44.2133V46.9465C27.3921 47.6474 26.8239 48.2155 26.123 48.2155H23.025C22.3241 48.2155 21.756 47.6474 21.756 46.9465V44.229C18.273 43.7553 15.0709 42.3984 12.3827 40.3914L10.4927 42.2814C9.99716 42.777 9.19367 42.777 8.69809 42.2814L6.50741 40.0907C6.01183 39.5951 6.01183 38.7916 6.50741 38.2961L8.37508 36.4284C6.32365 33.7439 4.92665 30.5327 4.42226 27.033H1.84277C1.14192 27.033 0.573767 26.4649 0.573767 25.764L0.573767 22.6659C0.573767 21.9651 1.14192 21.3969 1.84277 21.3969H4.39342C4.86298 17.8821 6.2318 14.6517 8.26093 11.9447L6.45116 10.1349C5.95558 9.63936 5.95558 8.83587 6.45116 8.3403L8.64184 6.14962C9.13742 5.65404 9.9409 5.65404 10.4365 6.14962L12.2316 7.94474C14.9506 5.87516 18.2075 4.47587 21.756 3.99332V1.48458ZM7.42983 24.1111C7.42983 33.5484 15.0804 41.1989 24.5176 41.1989C33.9549 41.1989 41.6054 33.5484 41.6054 24.1111C41.6054 14.6739 33.9549 7.02333 24.5176 7.02333C15.0804 7.02333 7.42983 14.6739 7.42983 24.1111ZM15.0412 19.2942H15.127H35.6142H37.5159C38.0724 20.7941 38.3762 22.4168 38.3762 24.1104C38.3762 25.8041 38.0724 27.4268 37.5159 28.9267H29.3436V37.0997C28.325 37.478 27.2489 37.7392 26.133 37.8684V28.9274H22.9224V37.8677C21.8073 37.7385 20.7305 37.4766 19.7119 37.099V28.9267H11.5395C11.1648 27.9144 10.9042 26.8476 10.7744 25.7402L10.7708 25.7154H19.7133V22.5048L10.7722 22.5055C11.5679 15.6123 17.4234 10.2609 24.5295 10.2609C29.186 10.2609 33.3059 12.5593 35.8165 16.0829H31.576H31.5107C29.6424 14.4567 27.2013 13.4722 24.5295 13.4722C20.3876 13.4722 16.7987 15.8395 15.0412 19.2942ZM22.9231 25.7161H26.1337V22.5055H22.9231V25.7161ZM29.345 25.7161H35.0464C35.1259 25.1922 35.167 24.6563 35.167 24.1111C35.167 23.5653 35.1259 23.0294 35.0464 22.5055H29.345V25.7161Z" fill="url(#paint0_radial)"/>
<defs>
<radialGradient id="paint0_radial" cx="0" cy="0" r="1" gradientUnits="userSpaceOnUse" gradientTransform="translate(24.574 26.9833) rotate(90) scale(21.2322 21.2325)">
<stop offset="0.691355" stop-color="#FF007A"/>
<stop offset="1" stop-color="#1F2337"/>
</radialGradient>
</defs>
</svg>
